[Module]
VortexTrackerII=0
Version=3.5
Title=1me-2me+,8m[uf]-3p+-4p+,5m-7m+-6m+
Author=oisee ^ 4d 29.05.2010
NoteTable=4
ChipFreq=1750000
Speed=3
PlayOrder=L0,1,2,3,4,5,6,7,8,9,10,11,12,13,14,15,16,17,18,19,20,21,22,23,24,25,26,27,28,29,30,31,32,33,34,35,36,37,38,39,40,41,42,43,44,45,46,47,48,49,50,51,52,53,54,55,56,57,58,59,60,60,62

[Ornament1]
L0,0,5,5,9,9

[Ornament2]
L0,0,5,5,7,7

[Ornament3]
L0,0,3,3,8,8

[Ornament4]
L0,0,5,5

[Ornament5]
L0,0,7,7

[Ornament6]
L0,0,5,5,12,12

[Ornament7]
L0,0,4,4

[Ornament8]
L0,0,4,4,8,8

[Ornament9]
L0,0,4,4,6,6

[Ornament10]
L0,0,4,4,7,7

[Ornament11]
L0,0,4,4,7,7,12,12

[Ornament12]
L0,0,2,2

[Ornament13]
L0,0,1,1,3,3,5,5,8,8

[Ornament14]
L0,0,1,1

[Ornament15]
12,0,L0

[Sample1]
TnE +000_ +00_ F_
TnE +000_ +00_ F_
TnE +000_ +00_ F_
TnE +000_ +00_ D_
TnE +000_ +00_ B_
TnE +000_ +00_ B_ L

[Sample2]
TnE +000_ +00_ F_ L

[Sample3]
TnE +001_ +00_ F_
TnE +002_ +00_ F_
TnE +001_ +00_ E_
TnE +002_ +00_ E_
TnE +000_ +00_ E_ L
TnE -001_ +00_ E_
TnE -002_ +00_ E_
TnE -001_ +00_ E_
TnE +000_ +00_ E_
TnE +001_ +00_ E_
TnE +002_ +00_ E_
TnE +001_ +00_ E_

[Sample4]
TnE +002_ +00_ D_
TnE +002_ +00_ D_
TnE +002_ +00_ C_
TnE +002_ +00_ B_
TnE +002_ +00_ A_ L
TnE +002_ +00_ A_
TnE +002_ +00_ A_
TnE +002_ +00_ A_
TnE +002_ +00_ A_
TnE +002_ +00_ A_
TnE +002_ +00_ A_
TnE +002_ +00_ A_

[Sample5]
TnE +000_ +00_ F_
TnE +000_ +00_ F_
tne +000_ +00_ 0_ L

[Sample6]
TnE -001_ +00_ F_ L

[Sample7]
TnE +006_ +00_ F_ L

[Sample8]
tNe +000_ +00_ F_
tNe +000_ +00_ B_
tNe +000_ +00_ 7_
tNe +000_ +00_ 6- L

[Sample9]
TnE +080_ +00_ F_
TnE +100_ +00_ E_
TnE +180_ +00_ E_
TnE +200_ +00_ E_
TnE +240_ +00_ D_
TnE +280_ +00_ D_
TnE +2C0_ +00_ D_
TnE +300_ +00_ C_
TnE +300_ +00_ C_
TnE +340_ +00_ C_
TnE +340_ +00_ C_
TnE +380_ +00_ B_
TnE +380_ +00_ B_
TnE +400_ +00_ B_
TnE +400_ +00_ B_
TnE +480_ +00_ A_
TnE +500_ +00_ 9_
TnE +580_ +00_ 7_
TnE +600_ +00_ 4_
TnE +680_ +00_ 1_
TnE +000_ +00_ 0_ L

[Sample10]
Tne +1C0_ +00_ F_
Tne +280_ +00_ E_
Tne +380_ +00_ C_
Tne +440_ +00_ A_
Tne +480_ +00_ 8_
TnE +000_ +00_ 0_ L

[Sample11]
TNe +200_ -0A_ F_
tNe +000_ +0F_ A_
TNe +200_ -07_ E_
tNe +000_ +0E_ B- L

[Sample12]
TNE +0A0_ +05_ F_
TNE +140_ +02_ D_
TNE +140_ +02_ B_
TNE +100_ +00_ A_ L
TNE +140_ +00_ A_
TNE +200_ +00_ A-

[Sample13]
Tne +200_ +00_ F_
Tne +2C0_ +00_ F_
Tne +380_ +00_ E_
Tne +500_ +00_ C_
Tne +520_ +00_ 9_
tne +000_ +00_ 0_ L

[Sample14]
TNE -100_ +00_ F_
TNE -100_ +00_ D_
TNE -100_ +00_ A_
TNE -100_ +00_ 5_
tne +000_ +00_ 0_ L

[Sample15]
TNE -100_ +00_ 5_
TNE -100_ +00_ 8_
TNE -100_ +00_ B_
TNE -100_ +00_ F_
TNe -100_ +00_ 9- L

[Sample16]
TnE +000_ +00_ C_
TnE +000_ +00_ E_
TnE +000_ +00_ F_
TnE +000_ +00_ F_
TnE +000_ +00_ E_
TnE +000_ +00_ D_
TnE +000_ +00_ C_
TnE +000_ +00_ C_ L
TnE +001_ +00_ C_
TnE +002_ +00_ C_
TnE +003_ +00_ C_
TnE +001_ +00_ C_
TnE +000_ +00_ C_
TnE -001_ +00_ C_
TnE -002_ +00_ C_
TnE -003_ +00_ C_
TnE -001_ +00_ C_
TnE +000_ +00_ C_
TnE +000_ +00_ C_

[Sample17]
Tne +1C0_ +00_ F_
Tne +280_ +00_ D_
Tne +380_ +00_ 7_
TNE +000_ +00_ 0_ L

[Sample18]
TnE -00C_ +00_ 0_ L

[Sample19]
TNe +000_ +00_ F_
TNe +000_ +00_ C_
TNe +000_ +00_ 6_
TNe +000_ +01_ A- L

[Sample20]
TNE +140_ +00_ F_
tNE +000_ +00_ B- L

[Sample21]
tNE +000_ +00_ D_
tNE +000_ +00_ 8_
tNE +000_ +00_ 1_
TNE +000_ +00_ 0_ L

[Sample22]
TnE +000_ +00_ D_ L
TnE +000_ +00_ D_
tne +000_ +00_ 9_
tne +000_ +00_ 9_
TnE +000_ +00_ D_
TnE +000_ +00_ D_
tne +000_ +00_ 9_
tne +000_ +00_ 9_
TnE +000_ +00_ D_
TnE +000_ +00_ D_
TnE +000_ +00_ D_
TnE +000_ +00_ D_
TnE +000_ +00_ D_
TnE +000_ +00_ D_
tne +000_ +00_ 9_
tne +000_ +00_ 9_

[Sample23]
TnE +000_ +00_ F_ L
TnE +010_ +01_ F_
TnE +010_ +01_ F_
TnE +010_ +01_ F_
TnE +010_ +01_ F_
TnE +000_ +00_ F_
TnE +000_ +00_ F_
TnE -010_ -01_ F_
TnE -010_ -01_ F_
TnE -010_ -01_ F_
TnE -010_ -01_ F_
TnE +000_ +00_ F_

[Sample24]
TNe +000_ -01_ C_
TNe +000_ -01_ D_
TNe +000_ -01_ E_
TNe +000_ -01_ F_
TNe +000_ -01_ F_
TNe +000_ -01_ F_
TNe +000_ -01_ F_
TNe +000_ -01_ F_
TNe +000_ -01_ E_
TNe +000_ -01_ E_
TNe +000_ -01_ E_
TNe +000_ -01_ F_
TNe +000_ -01_ F_ L

[Sample25]
TNE +000_ +00_ F_
TNE +000_ +00_ F_ L
TNE +000_ +00_ F_
TNE +000_ +00_ F_
TNE +000_ +00_ F-

[Sample26]
tne +000_ +00_ 0_ L

[Sample27]
TnE +100_ +05_ F_
TnE +200_ +02_ A_
TnE +300_ +02_ 7_
TNE +400_ +00_ 3- L

[Sample28]
tne +000_ +00_ 0_ L

[Sample29]
tnE +000_ +00_ 0_ L

[Sample30]
TNE +000_ +00_ C+ L

[Sample31]
TNe +1C0_ +00_ F_
Tne +280_ +00_ E_
Tne +380_ +00_ C_
Tne +440_ +00_ A_
Tne +480_ +00_ 8_
TnE +000_ +00_ 0_ L

[Pattern0]
....|..|--- .... ....|--- .... ....|--- .... ....
....|..|--- .... ....|--- .... ....|--- .... ....
....|..|--- .... ....|--- .... ....|--- .... ....
....|..|--- .... ....|--- .... ....|--- .... ....
....|..|--- .... ....|--- .... ....|--- .... ....
....|..|--- .... ....|--- .... ....|--- .... ....
....|..|--- .... ....|--- .... ....|--- .... ....
....|..|--- .... ....|--- .... ....|--- .... ....
....|..|--- .... ....|--- .... ....|--- .... ....
....|..|--- .... ....|--- .... ....|--- .... ....
....|..|--- .... ....|--- .... ....|--- .... ....
....|..|--- .... ....|--- .... ....|--- .... ....
....|..|--- .... ....|--- .... ....|--- .... ....
....|..|--- .... ....|--- .... ....|--- .... ....
....|..|--- .... ....|--- .... ....|--- .... ....
....|..|--- .... ....|--- .... ....|--- .... ....
....|..|--- .... ....|--- .... ....|--- .... ....
....|..|--- .... ....|--- .... ....|--- .... ....
....|..|--- .... ....|--- .... ....|--- .... ....
....|..|--- .... ....|--- .... ....|--- .... ....
....|..|--- .... ....|--- .... ....|--- .... ....
....|..|--- .... ....|--- .... ....|--- .... ....
....|..|--- .... ....|--- .... ....|--- .... ....
....|..|--- .... ....|--- .... ....|--- .... ....
....|..|--- .... ....|--- .... ....|--- .... ....
....|..|--- .... ....|--- .... ....|--- .... ....
....|..|--- .... ....|--- .... ....|--- .... ....
....|..|--- .... ....|--- .... ....|--- .... ....
....|..|--- .... ....|--- .... ....|--- .... ....
....|..|--- .... ....|--- .... ....|--- .... ....
....|..|--- .... ....|--- .... ....|--- .... ....
....|..|--- .... ....|--- .... ....|--- .... ....
 E-4|..|E-2 2A.F ....|E-6 UFFF ....|--- .... ....
....|..|--- .... ....|--- .... ....|--- .... ....
....|..|--- .... ....|R-- .... ....|--- .... ....
....|..|--- .... ....|--- .... ....|--- .... ....
....|..|R-- .... ....|B-6 UFFF ....|--- .... ....
....|..|--- .... ....|R-- .... ....|--- .... ....
....|..|E-2 2F.A ....|E-6 UFFA ....|--- .... ....
....|..|--- .... ....|--- .... ....|--- .... ....
 E-4|..|E-2 2A.F ....|E-6 UFFF ....|--- .... ....
....|..|--- .... ....|--- .... ....|--- .... ....
....|..|R-- .... ....|B-6 UFFA ....|--- .... ....
....|..|--- .... ....|R-- .... ....|--- .... ....
....|..|E-2 2F.7 ....|B-6 UFFF ....|--- .... ....
....|..|--- .... ....|R-- .... ....|--- .... ....
....|..|E-2 2F.A ....|E-6 UFFA ....|--- .... ....
....|..|--- .... ....|--- .... ....|--- .... ....
 E-4|..|E-2 2A.F ....|E-6 UFFF ....|--- .... ....
....|..|--- .... ....|R-- .... ....|--- .... ....
....|..|R-- .... ....|B-6 UFFA ....|--- .... ....
....|..|--- .... ....|R-- .... ....|--- .... ....
....|..|E-2 2F.7 ....|B-6 UFFF ....|--- .... ....
....|..|--- .... ....|R-- .... ....|--- .... ....
....|..|E-2 2F.A ....|E-6 UFFA ....|--- .... ....
....|..|--- .... ....|--- .... ....|--- .... ....
 E-4|..|E-2 2A.F ....|E-6 UFFF ....|--- .... ....
....|..|--- .... ....|R-- .... ....|--- .... ....
....|..|R-- .... ....|B-6 UFFA ....|--- .... ....
....|..|--- .... ....|R-- .... ....|--- .... ....
....|..|E-2 2F.7 ....|C-7 UFFF ....|--- .... ....
....|..|--- .... ....|R-- .... ....|--- .... ....
....|..|E-2 2F.A ....|E-6 UFFA ....|--- .... ....
....|..|--- .... ....|--- .... ....|--- .... ....

[Pattern1]
 E-4|..|E-2 2A.F ....|E-6 UFFF ....|--- .... ....
....|..|--- .... ....|R-- .... ....|--- .... ....
....|..|R-- .... ....|C-7 UFFA ....|--- .... ....
....|..|--- .... ....|R-- .... ....|--- .... ....
....|..|E-2 2F.7 ....|C-7 UFFF ....|--- .... ....
....|..|--- .... ....|R-- .... ....|--- .... ....
....|..|E-2 2F.A ....|E-6 UFFA ....|--- .... ....
....|..|--- .... ....|--- .... ....|--- .... ....
 E-4|..|E-2 2A.F ....|E-6 UFFF ....|--- .... ....
....|..|--- .... ....|R-- .... ....|--- .... ....
....|..|R-- .... ....|C-7 UFFA ....|--- .... ....
....|..|--- .... ....|R-- .... ....|--- .... ....
....|..|E-2 2F.7 ....|C-7 UFFF ....|--- .... ....
....|..|--- .... ....|R-- .... ....|--- .... ....
....|..|E-2 2F.A ....|E-6 UFFA ....|--- .... ....
....|..|--- .... ....|--- .... ....|--- .... ....
 E-4|..|E-2 2A.F ....|E-6 UFFF ....|--- .... ....
....|..|--- .... ....|R-- .... ....|--- .... ....
....|..|R-- .... ....|E-6 UFFF ....|--- .... ....
....|..|--- .... ....|R-- .... ....|--- .... ....
....|..|E-2 2F.7 ....|C-7 UFFF ....|--- .... ....
....|..|--- .... ....|R-- .... ....|--- .... ....
....|..|E-2 2F.A ....|E-6 UFFA ....|--- .... ....
....|..|--- .... ....|R-- .... ....|--- .... ....
 E-4|..|E-2 2A.F ....|E-6 UFFF ....|--- .... ....
....|..|--- .... ....|R-- .... ....|--- .... ....
....|..|R-- .... ....|C-7 UFFA ....|--- .... ....
....|..|--- .... ....|R-- .... ....|--- .... ....
....|..|E-2 2F.7 ....|B-6 UFFF ....|--- .... ....
....|..|--- .... ....|R-- .... ....|--- .... ....
....|..|E-2 2F.A ....|E-5 2F.A ....|--- .... ....
....|..|--- .... ....|R-- .... ....|--- .... ....
 E-4|..|E-2 2A.F ....|E-6 UFFF ....|--- .... ....
....|..|R-- .... ....|R-- .... ....|--- .... ....
....|..|R-- .... ....|B-6 UFFA ....|--- .... ....
....|..|--- .... ....|R-- .... ....|--- .... ....
 B-3|..|B-1 2A.F ....|B-6 UFFF ....|--- .... ....
....|..|R-- .... ....|R-- .... ....|--- .... ....
....|..|E-2 2F.A ....|E-6 UFFA ....|--- .... ....
....|..|R-- .... ....|--- .... ....|--- .... ....
 E-4|..|E-2 2A.F ....|E-6 UFFF ....|--- .... ....
....|..|--- .... ....|R-- .... ....|--- .... ....
....|..|B-1 2F.A ....|B-6 UFFA ....|--- .... ....
....|..|R-- .... ....|R-- .... ....|--- .... ....
 B-3|..|B-1 2A.F ....|B-6 UFFF ....|--- .... ....
....|..|R-- .... ....|R-- .... ....|--- .... ....
....|..|E-2 2F.A ....|E-6 UFFA ....|--- .... ....
....|..|--- .... ....|--- .... ....|--- .... ....
 E-4|..|E-2 2A.F ....|E-6 UFFF ....|--- .... ....
....|..|R-- .... ....|R-- .... ....|--- .... ....
....|..|B-1 2F.A ....|B-6 UFFA ....|--- .... ....
....|..|R-- .... ....|R-- .... ....|--- .... ....
....|..|E-2 2F.7 ....|B-6 UFFF ....|--- .... ....
....|..|--- .... ....|R-- .... ....|--- .... ....
....|..|E-2 2F.A ....|E-6 UFFA ....|--- .... ....
....|..|R-- .... ....|--- .... ....|--- .... ....
 E-4|..|E-2 2A.F ....|E-6 UFFF ....|--- .... ....
....|..|R-- .... ....|R-- .... ....|--- .... ....
....|..|R-- .... ....|B-6 UFFA ....|--- .... ....
....|..|--- .... ....|R-- .... ....|--- .... ....
 B-3|..|B-1 2A.F ....|C-7 UFFF ....|--- .... ....
....|..|R-- .... ....|R-- .... ....|--- .... ....
....|..|E-2 2F.A ....|E-6 UFFA ....|--- .... ....
....|..|R-- .... ....|--- .... ....|--- .... ....

[Pattern2]
 E-4|..|E-2 2A.F ....|E-6 UFFF ....|--- .... ....
....|..|--- .... ....|R-- .... ....|--- .... ....
....|..|B-1 2F.A ....|C-7 UFFA ....|--- .... ....
....|..|R-- .... ....|R-- .... ....|--- .... ....
 B-3|..|B-1 2A.F ....|C-7 UFFF ....|--- .... ....
....|..|R-- .... ....|R-- .... ....|--- .... ....
....|..|E-2 2F.A ....|E-6 UFFA ....|--- .... ....
....|..|--- .... ....|--- .... ....|--- .... ....
 E-4|..|E-2 2A.F ....|E-6 UFFF ....|--- .... ....
....|..|R-- .... ....|R-- .... ....|--- .... ....
....|..|B-1 2F.A ....|C-7 UFFA ....|--- .... ....
....|..|R-- .... ....|R-- .... ....|--- .... ....
....|..|E-2 2F.7 ....|C-7 UFFF ....|--- .... ....
....|..|--- .... ....|R-- .... ....|--- .... ....
....|..|E-2 2F.A ....|E-6 UFFA ....|--- .... ....
....|..|R-- .... ....|--- .... ....|--- .... ....
 E-4|..|E-2 2A.F ....|E-6 UFFF ....|--- .... ....
....|..|R-- .... ....|R-- .... ....|--- .... ....
....|..|R-- .... ....|E-6 UFFF ....|--- .... ....
....|..|--- .... ....|R-- .... ....|--- .... ....
....|..|E-2 2F.7 ....|C-7 UFFF ....|--- .... ....
....|..|R-- .... ....|R-- .... ....|--- .... ....
....|..|E-2 2F.A ....|E-6 UFFA ....|--- .... ....
....|..|R-- .... ....|R-- .... ....|--- .... ....
 E-4|..|E-2 2A.F ....|E-6 UFFF ....|--- .... ....
....|..|R-- .... ....|R-- .... ....|--- .... ....
....|..|R-- .... ....|C-7 UFFA ....|--- .... ....
....|..|--- .... ....|R-- .... ....|--- .... ....
 B-3|..|B-1 2A.F ....|B-6 UFFF ....|--- .... ....
....|..|R-- .... ....|R-- .... ....|--- .... ....
....|..|E-2 2F.A ....|E-5 2F.A ....|--- .... ....
....|..|R-- .... ....|R-- .... ....|--- .... ....
 E-4|..|E-2 2A.F ....|E-6 UFFF ....|--- .... ....
....|..|R-- .... ....|R-- .... ....|--- .... ....
 B-3|..|B-1 2A.F ....|B-6 UFFA ....|--- .... ....
....|..|R-- .... ....|R-- .... ....|--- .... ....
 B-3|..|B-1 2A.F ....|B-6 UFFF ....|--- .... ....
....|..|R-- .... ....|R-- .... ....|--- .... ....
 B-3|..|B-1 2A.F ....|E-6 UFFA ....|--- .... ....
....|..|R-- .... ....|--- .... ....|--- .... ....
 E-4|..|E-2 2A.F ....|E-6 UFFF ....|--- .... ....
....|..|R-- .... ....|R-- .... ....|--- .... ....
 B-3|..|B-1 2A.F ....|B-6 UFFA ....|--- .... ....
....|..|R-- .... ....|R-- .... ....|--- .... ....
 B-3|..|B-1 2A.F ....|B-6 UFFF ....|--- .... ....
....|..|R-- .... ....|R-- .... ....|--- .... ....
 B-3|..|B-1 2A.F ....|E-6 UFFA ....|--- .... ....
....|..|R-- .... ....|--- .... ....|--- .... ....
 E-4|..|E-2 2A.F ....|E-6 UFFF ....|--- .... ....
....|..|R-- .... ....|R-- .... ....|--- .... ....
 B-3|..|B-1 2A.F ....|B-6 UFFA ....|--- .... ....
....|..|R-- .... ....|R-- .... ....|--- .... ....
 B-3|..|B-1 2A.F ....|B-6 UFFF ....|--- .... ....
....|..|R-- .... ....|R-- .... ....|--- .... ....
 B-3|..|B-1 2A.F ....|E-6 UFFA ....|--- .... ....
....|..|R-- .... ....|--- .... ....|--- .... ....
 E-4|..|E-2 2A.F ....|E-6 UFFF ....|--- .... ....
....|..|R-- .... ....|R-- .... ....|--- .... ....
 B-3|..|B-1 2A.F ....|B-6 UFFA ....|--- .... ....
....|..|R-- .... ....|R-- .... ....|--- .... ....
 B-3|..|B-1 2A.F ....|C-7 UFFF ....|--- .... ....
....|..|R-- .... ....|R-- .... ....|--- .... ....
 B-3|..|B-1 2A.F ....|E-6 UFFA ....|--- .... ....
....|..|R-- .... ....|--- .... ....|--- .... ....

[Pattern3]
 E-4|..|E-2 2A.F ....|E-6 UFFF ....|--- .... ....
....|..|R-- .... ....|R-- .... ....|--- .... ....
 B-3|..|B-1 2A.F ....|C-7 UFFA ....|--- .... ....
....|..|R-- .... ....|R-- .... ....|--- .... ....
 B-3|..|B-1 2A.F ....|C-7 UFFF ....|--- .... ....
....|..|R-- .... ....|R-- .... ....|--- .... ....
 B-3|..|B-1 2A.F ....|E-6 UFFA ....|--- .... ....
....|..|R-- .... ....|--- .... ....|--- .... ....
 E-4|..|E-2 2A.F ....|E-6 UFFF ....|--- .... ....
....|..|R-- .... ....|R-- .... ....|--- .... ....
 B-3|..|B-1 2A.F ....|C-7 UFFA ....|--- .... ....
....|..|R-- .... ....|R-- .... ....|--- .... ....
 B-3|..|B-1 2A.F ....|C-7 UFFF ....|--- .... ....
....|..|R-- .... ....|R-- .... ....|--- .... ....
 B-3|..|B-1 2A.F ....|E-6 UFFA ....|--- .... ....
....|..|R-- .... ....|--- .... ....|--- .... ....
 E-4|..|E-2 2A.F ....|E-6 UFFF ....|--- .... ....
....|..|R-- .... ....|R-- .... ....|--- .... ....
 B-3|..|B-1 2A.F ....|E-6 UFFF ....|--- .... ....
....|..|R-- .... ....|R-- .... ....|--- .... ....
 B-3|..|B-1 2A.F ....|C-7 UFFF ....|--- .... ....
....|..|R-- .... ....|R-- .... ....|--- .... ....
 B-3|..|B-1 2A.F ....|E-6 UFFA ....|--- .... ....
....|..|R-- .... ....|R-- .... ....|--- .... ....
 E-4|..|E-2 2A.F ....|E-6 UFFF ....|--- .... ....
....|..|R-- .... ....|R-- .... ....|--- .... ....
 B-3|..|B-1 2A.F ....|C-7 UFFA ....|--- .... ....
....|..|R-- .... ....|R-- .... ....|--- .... ....
 B-3|..|B-1 2A.F ....|B-6 UFFF ....|--- .... ....
....|..|R-- .... ....|R-- .... ....|--- .... ....
 B-3|..|B-1 2A.F ....|E-5 2F.A ....|--- .... ....
....|..|R-- .... ....|R-- .... ....|--- .... ....
 E-4|..|E-2 2A.F ....|E-6 UFFF ....|B-4 2F.F ....
....|..|R-- .... ....|R-- .... ....|--- .... ....
 B-3|..|B-1 2A.F ....|B-6 UFFA ....|--- .... ....
....|..|R-- .... ....|R-- .... ....|R-- .... ....
 B-3|..|B-1 2A.F ....|B-6 UFFF ....|E-4 2F.F ....
....|..|R-- .... ....|R-- .... ....|B-4 2F.F ....
 B-3|..|B-1 2A.F ....|E-6 UFFA ....|B-4 2F.A ....
....|..|R-- .... ....|--- .... ....|--- .... ....
 E-4|..|E-2 2A.F ....|E-6 UFFF ....|--- .... ....
....|..|R-- .... ....|R-- .... ....|R-- .... ....
 B-3|..|B-1 2A.F ....|B-6 UFFA ....|E-4 2F.A ....
....|..|R-- .... ....|R-- .... ....|B-4 2F.A ....
 B-3|..|B-1 2A.F ....|B-6 UFFF ....|B-4 2F.F ....
....|..|R-- .... ....|R-- .... ....|R-- .... ....
 B-3|..|B-1 2A.F ....|E-6 UFFA ....|--- .... ....
....|..|R-- .... ....|--- .... ....|R-- .... ....
 E-4|..|E-2 2A.F ....|E-6 UFFF ....|B-4 2F.F ....
....|..|R-- .... ....|R-- .... ....|B-4 2F.7 ....
 B-3|..|B-1 2A.F ....|B-6 UFFA ....|B-4 2F.A ....
....|..|R-- .... ....|R-- .... ....|R-- .... ....
 B-3|..|B-1 2A.F ....|B-6 UFFF ....|--- .... ....
....|..|R-- .... ....|R-- .... ....|--- .... ....
 B-3|..|B-1 2A.F ....|E-6 UFFA ....|B-4 2F.A ....
....|..|R-- .... ....|--- .... ....|--- .... ....
 E-4|..|E-2 2A.F ....|E-6 UFFF ....|B-4 2F.7 ....
....|..|R-- .... ....|R-- .... ....|R-- .... ....
 B-3|..|B-1 2A.F ....|B-6 UFFA ....|--- .... ....
....|..|R-- .... ....|R-- .... ....|--- .... ....
 B-3|..|B-1 2A.F ....|C-7 UFFF ....|B-4 2F.7 ....
....|..|R-- .... ....|R-- .... ....|--- .... ....
 B-3|..|B-1 2A.F ....|E-6 UFFA ....|R-- .... ....
....|..|R-- .... ....|--- .... ....|--- .... ....

[Pattern4]
 E-4|..|E-2 2A.F ....|E-6 UFFF ....|--- .... ....
....|..|R-- .... ....|R-- .... ....|--- .... ....
 B-3|..|B-1 2A.F ....|C-7 UFFA ....|--- .... ....
....|..|R-- .... ....|R-- .... ....|--- .... ....
 B-3|..|B-1 2A.F ....|C-7 UFFF ....|R-- .... ....
....|..|R-- .... ....|R-- .... ....|--- .... ....
 B-3|..|B-1 2A.F ....|E-6 UFFA ....|--- .... ....
....|..|R-- .... ....|--- .... ....|--- .... ....
 E-4|..|E-2 2A.F ....|E-6 UFFF ....|--- .... ....
....|..|R-- .... ....|R-- .... ....|--- .... ....
 B-3|..|B-1 2A.F ....|C-7 UFFA ....|--- .... ....
....|..|R-- .... ....|R-- .... ....|--- .... ....
 B-3|..|B-1 2A.F ....|C-7 UFFF ....|--- .... ....
....|..|R-- .... ....|R-- .... ....|--- .... ....
 B-3|..|B-1 2A.F ....|E-6 UFFA ....|--- .... ....
....|..|R-- .... ....|--- .... ....|--- .... ....
 E-4|..|E-2 2A.F ....|E-6 UFFF ....|--- .... ....
....|..|R-- .... ....|R-- .... ....|--- .... ....
 B-3|..|B-1 2A.F ....|E-6 UFFF ....|--- .... ....
....|..|R-- .... ....|R-- .... ....|--- .... ....
 B-3|..|B-1 2A.F ....|C-7 UFFF ....|--- .... ....
....|..|R-- .... ....|R-- .... ....|--- .... ....
 B-3|..|B-1 2A.F ....|E-6 UFFA ....|--- .... ....
....|..|R-- .... ....|R-- .... ....|--- .... ....
 E-4|..|E-2 2A.F ....|E-6 UFFF ....|--- .... ....
....|..|R-- .... ....|R-- .... ....|--- .... ....
 B-3|..|B-1 2A.F ....|C-7 UFFA ....|--- .... ....
....|..|R-- .... ....|R-- .... ....|--- .... ....
 B-3|..|B-1 2A.F ....|B-6 UFFF ....|--- .... ....
....|..|R-- .... ....|R-- .... ....|--- .... ....
 B-3|..|B-1 2A.F ....|E-5 2F.A ....|--- .... ....
....|..|R-- .... ....|R-- .... ....|--- .... ....
 E-3|..|E-1 2A.F ....|C-7 UFF7 ....|B-3 2F.F ....
....|..|R-- .... ....|R-- .... ....|--- .... ....
 B-3|..|B-1 2A.F ....|B-6 UFFA ....|--- .... ....
....|..|R-- .... ....|R-- .... ....|--- .... ....
....|..|E-2 2F.7 ....|E-6 UFF7 ....|--- .... ....
....|..|R-- .... ....|--- .... ....|--- .... ....
 E-3|..|E-1 2A.F ....|R-- .... ....|B-3 2F.A ....
....|..|R-- .... ....|--- .... ....|R-- .... ....
 B-3|..|B-1 2A.F ....|B-6 UFF7 ....|E-4 2F.F ....
....|..|R-- .... ....|R-- .... ....|--- .... ....
....|..|B-1 2F.7 ....|--- .... ....|--- .... ....
....|..|R-- .... ....|--- .... ....|--- .... ....
 E-3|..|E-1 2A.F ....|--- .... ....|B-3 2F.7 ....
....|..|R-- .... ....|--- .... ....|R-- .... ....
 B-3|..|B-1 2A.F ....|--- .... ....|E-4 2F.A ....
....|..|R-- .... ....|--- .... ....|--- .... ....
 B-3|..|B-1 2A.F ....|--- .... ....|D#4 2F.F ....
....|..|R-- .... ....|--- .... ....|--- .... ....
 B-3|..|B-1 2A.F ....|--- .... ....|--- .... ....
....|..|R-- .... ....|--- .... ....|R-- .... ....
 E-3|..|E-1 2A.F ....|--- .... ....|E-4 2F.F ....
....|..|R-- .... ....|--- .... ....|--- .... ....
 B-3|..|B-1 2A.F ....|--- .... ....|D#4 2F.A ....
....|..|R-- .... ....|--- .... ....|--- .... ....
 B-3|..|B-1 2A.F ....|--- .... ....|F#4 2F.F ....
....|..|R-- .... ....|--- .... ....|R-- .... ....
....|..|E-1 2F.A ....|--- .... ....|E-4 2F.A ....
....|..|R-- .... ....|--- .... ....|--- .... ....
 E-3|..|E-1 2A.F ....|--- .... ....|G#4 2F.F ....
....|..|R-- .... ....|--- .... ....|--- .... ....
....|..|B-1 2F.7 ....|--- .... ....|F#4 2F.A ....
....|..|R-- .... ....|--- .... ....|R-- .... ....

[Pattern5]
 E-3|..|E-1 2A.F ....|--- .... ....|E-4 2F.7 ....
....|..|R-- .... ....|--- .... ....|--- .... ....
 B-3|..|B-1 2A.F ....|--- .... ....|G#4 2F.A ....
....|..|R-- .... ....|--- .... ....|--- .... ....
....|..|B-1 2F.7 ....|--- .... ....|F#4 2F.7 ....
....|..|R-- .... ....|--- .... ....|--- .... ....
 E-3|..|E-1 2A.F ....|--- .... ....|R-- .... ....
....|..|R-- .... ....|--- .... ....|--- .... ....
 B-3|..|B-1 2A.F ....|--- .... ....|G#4 2F.7 ....
....|..|R-- .... ....|--- .... ....|E-4 2F.F ....
....|..|R-- .... ....|--- .... ....|R-- .... ....
....|..|--- .... ....|--- .... ....|--- .... ....
 E-3|..|E-1 2A.F ....|--- .... ....|E-4 2F.F ....
....|..|R-- .... ....|--- .... ....|--- .... ....
 B-3|..|B-1 2A.F ....|--- .... ....|--- .... ....
....|..|R-- .... ....|--- .... ....|E-4 2F.A ....
 B-3|..|B-1 2A.F ....|--- .... ....|E-4 2F.F ....
....|..|R-- .... ....|--- .... ....|D#4 2F.F ....
 B-3|..|B-1 2A.F ....|--- .... ....|E-4 2F.A ....
....|..|R-- .... ....|--- .... ....|--- .... ....
 E-3|..|E-1 2A.F ....|--- .... ....|E-4 2F.F ....
....|..|R-- .... ....|--- .... ....|E-4 2F.7 ....
 B-3|..|B-1 2A.F ....|--- .... ....|E-4 2F.A ....
....|..|R-- .... ....|--- .... ....|D#4 2F.A ....
 B-3|..|B-1 2A.F ....|--- .... ....|E-4 2F.F ....
....|..|R-- .... ....|--- .... ....|R-- .... ....
....|..|E-1 2F.A ....|--- .... ....|E-4 2F.A ....
....|..|R-- .... ....|--- .... ....|--- .... ....
 E-3|..|E-1 2A.F ....|--- .... ....|D#4 2F.F ....
....|..|R-- .... ....|--- .... ....|D#4 2F.7 ....
....|..|B-1 2F.7 ....|--- .... ....|E-4 2F.A ....
....|..|R-- .... ....|--- .... ....|R-- .... ....
 A-2|..|A-1 2A.F ....|--- .... ....|E-4 2F.7 ....
....|..|R-- .... ....|--- .... ....|--- .... ....
 B-3|..|B-1 2A.F ....|--- .... ....|D#4 2F.A ....
....|..|R-- .... ....|--- .... ....|--- .... ....
....|..|B-1 2F.7 ....|--- .... ....|E-4 2F.7 ....
....|..|R-- .... ....|--- .... ....|R-- .... ....
 A-2|..|A-1 2A.F ....|--- .... ....|--- .... ....
....|..|R-- .... ....|--- .... ....|--- .... ....
 B-3|..|B-1 2A.F ....|B-4 2F4F ....|D#4 2F.7 ....
....|..|R-- .... ....|R-- .... ....|--- .... ....
....|..|R-- .... ....|--- .... ....|R-- .... ....
....|..|--- .... ....|--- .... ....|--- .... ....
 A-2|..|A-1 2A.F ....|B-4 2F4F ....|--- .... ....
....|..|R-- .... ....|R-- .... ....|--- .... ....
 B-3|..|B-1 2A.F ....|B-4 2F4A ....|--- .... ....
....|..|R-- .... ....|R-- .... ....|--- .... ....
 B-3|..|B-1 2A.F ....|B-4 2F5F ....|R-- .... ....
....|..|R-- .... ....|--- .... ....|--- .... ....
 B-3|..|B-1 2A.F ....|B-4 2F4A ....|--- .... ....
....|..|R-- .... ....|R-- .... ....|--- .... ....
 A-2|..|A-1 2A.F ....|B-4 2F4F ....|--- .... ....
....|..|R-- .... ....|E-5 2F.F ....|--- .... ....
....|..|B-1 2F.A ....|B-4 2F5A ....|R-- .... ....
....|..|R-- .... ....|--- .... ....|--- .... ....
 B-3|..|B-1 2A.F ....|B-4 2F4F ....|--- .... ....
....|..|R-- .... ....|R-- .... ....|--- .... ....
....|..|A-1 2F.A ....|B-4 2F4A ....|--- .... ....
....|..|R-- .... ....|E-5 2F.A ....|--- .... ....
 A-2|..|A-1 2A.F ....|B-4 2F4F ....|--- .... ....
....|..|R-- .... ....|--- .... ....|--- .... ....
....|..|B-1 2F.7 ....|B-4 2F4A ....|--- .... ....
....|..|R-- .... ....|R-- .... ....|--- .... ....

[Pattern6]
 A-2|..|A-1 2A.F ....|B-4 2F47 ....|--- .... ....
....|..|R-- .... ....|E-5 2F.7 ....|--- .... ....
 B-3|..|B-1 2A.F ....|B-4 2F4A ....|--- .... ....
....|..|R-- .... ....|--- .... ....|--- .... ....
....|..|B-1 2F.7 ....|B-4 2F47 ....|--- .... ....
....|..|R-- .... ....|R-- .... ....|--- .... ....
 A-2|..|A-1 2A.F ....|--- .... ....|--- .... ....
....|..|R-- .... ....|R-- .... ....|--- .... ....
 B-3|..|B-1 2A.F ....|A-5 2F.F ....|--- .... ....
....|..|R-- .... ....|A-5 2F.F ....|--- .... ....
....|..|R-- .... ....|R-- .... ....|--- .... ....
....|..|--- .... ....|--- .... ....|--- .... ....
 A-2|..|A-1 2A.F ....|A-5 2F.F ....|--- .... ....
....|..|R-- .... ....|A-5 2F.F ....|--- .... ....
 B-3|..|B-1 2A.F ....|A-5 2F.A ....|--- .... ....
....|..|R-- .... ....|A-5 2F.A ....|--- .... ....
 B-3|..|B-1 2A.F ....|G#5 2F.F ....|--- .... ....
....|..|R-- .... ....|--- .... ....|--- .... ....
 B-3|..|B-1 2A.F ....|A-5 2F.A ....|--- .... ....
....|..|R-- .... ....|A-5 2F.A ....|--- .... ....
 A-2|..|A-1 2A.F ....|B-4 2F4F ....|--- .... ....
....|..|R-- .... ....|E-5 2F.F ....|--- .... ....
....|..|B-1 2F.A ....|G#5 2F.A ....|--- .... ....
....|..|R-- .... ....|--- .... ....|--- .... ....
 B-3|..|B-1 2A.F ....|B-4 2F4F ....|--- .... ....
....|..|R-- .... ....|A-5 2F.7 ....|--- .... ....
....|..|A-1 2F.A ....|B-4 2F4A ....|--- .... ....
....|..|R-- .... ....|E-5 2F.A ....|--- .... ....
 A-2|..|A-1 2A.F ....|B-4 2F4F ....|--- .... ....
....|..|R-- .... ....|--- .... ....|--- .... ....
....|..|B-1 2F.7 ....|B-4 2F4A ....|--- .... ....
....|..|R-- .... ....|R-- .... ....|--- .... ....
 E-3|..|E-1 2A.F ....|B-4 2F47 ....|B-3 2F.F ....
....|..|R-- .... ....|E-5 2F.7 ....|--- .... ....
 B-3|..|B-1 2A.F ....|B-4 2F4A ....|--- .... ....
....|..|R-- .... ....|--- .... ....|--- .... ....
....|..|B-1 2F.7 ....|B-4 2F47 ....|--- .... ....
....|..|R-- .... ....|R-- .... ....|--- .... ....
 E-3|..|E-1 2A.F ....|--- .... ....|B-3 2F.A ....
....|..|R-- .... ....|R-- .... ....|R-- .... ....
 B-3|..|B-1 2A.F ....|B-4 2F47 ....|E-4 2F.F ....
....|..|R-- .... ....|--- .... ....|--- .... ....
....|..|R-- .... ....|--- .... ....|--- .... ....
....|..|--- .... ....|--- .... ....|--- .... ....
 E-3|..|E-1 2A.F ....|--- .... ....|B-3 2F.7 ....
....|..|R-- .... ....|R-- .... ....|R-- .... ....
....|..|B-1 2F.7 ....|--- .... ....|E-4 2F.A ....
....|..|R-- .... ....|--- .... ....|--- .... ....
 B-3|..|B-1 2A.F ....|--- .... ....|D#4 2F.F ....
....|..|R-- .... ....|--- .... ....|--- .... ....
 B-3|..|B-1 2A.F ....|--- .... ....|--- .... ....
....|..|R-- .... ....|--- .... ....|R-- .... ....
 E-3|..|E-1 2A.F ....|--- .... ....|E-4 2F.F ....
....|..|R-- .... ....|--- .... ....|--- .... ....
 B-3|..|B-1 2A.F ....|--- .... ....|D#4 2F.A ....
....|..|R-- .... ....|--- .... ....|--- .... ....
 B-3|..|B-1 2A.F ....|--- .... ....|F#4 2F.F ....
....|..|R-- .... ....|--- .... ....|R-- .... ....
....|..|E-1 2F.A ....|--- .... ....|E-4 2F.A ....
....|..|--- .... ....|--- .... ....|--- .... ....
 E-3|..|E-1 2A.F ....|--- .... ....|G#4 2F.F ....
....|..|R-- .... ....|--- .... ....|--- .... ....
....|..|B-1 2F.7 ....|--- .... ....|F#4 2F.A ....
....|..|R-- .... ....|--- .... ....|R-- .... ....

[Pattern7]
 E-3|..|E-1 2A.F ....|--- .... ....|E-4 2F.7 ....
....|..|R-- .... ....|--- .... ....|--- .... ....
 B-3|..|B-1 2A.F ....|--- .... ....|G#4 2F.A ....
....|..|R-- .... ....|--- .... ....|--- .... ....
 B-3|..|B-1 2A.F ....|--- .... ....|F#4 2F.7 ....
....|..|R-- .... ....|--- .... ....|R-- .... ....
 E-3|..|E-1 2A.F ....|--- .... ....|R-- .... ....
....|..|R-- .... ....|--- .... ....|--- .... ....
 B-3|..|B-1 2A.F ....|--- .... ....|G#4 2F.7 ....
....|..|R-- .... ....|--- .... ....|E-4 2F.F ....
....|..|B-1 2F.A ....|--- .... ....|R-- .... ....
....|..|R-- .... ....|--- .... ....|--- .... ....
 E-3|..|E-1 2A.F ....|--- .... ....|E-4 2F.F ....
....|..|R-- .... ....|--- .... ....|--- .... ....
 B-3|..|B-1 2A.F ....|--- .... ....|--- .... ....
....|..|R-- .... ....|--- .... ....|E-4 2F.A ....
 B-3|..|B-1 2A.F ....|--- .... ....|E-4 2F.F ....
....|..|R-- .... ....|--- .... ....|D#4 2F.F ....
 B-3|..|B-1 2A.F ....|--- .... ....|E-4 2F.A ....
....|..|R-- .... ....|--- .... ....|--- .... ....
 E-3|..|E-1 2A.F ....|--- .... ....|E-4 2F.F ....
....|..|R-- .... ....|--- .... ....|E-4 2F.7 ....
 B-3|..|B-1 2A.F ....|--- .... ....|E-4 2F.A ....
....|..|R-- .... ....|--- .... ....|D#4 2F.A ....
 B-3|..|B-1 2A.F ....|--- .... ....|E-4 2F.F ....
....|..|R-- .... ....|--- .... ....|R-- .... ....
....|..|E-1 2F.A ....|--- .... ....|E-4 2F.A ....
....|..|R-- .... ....|--- .... ....|--- .... ....
 E-3|..|E-1 2A.F ....|--- .... ....|D#4 2F.F ....
....|..|R-- .... ....|--- .... ....|D#4 2F.7 ....
....|..|B-1 2F.7 ....|--- .... ....|E-4 2F.A ....
....|..|R-- .... ....|--- .... ....|R-- .... ....
 A-2|..|A-1 2A.F ....|--- .... ....|E-4 2F.7 ....
....|..|R-- .... ....|--- .... ....|--- .... ....
 B-3|..|B-1 2A.F ....|--- .... ....|D#4 2F.A ....
....|..|R-- .... ....|--- .... ....|--- .... ....
....|..|B-1 2F.7 ....|--- .... ....|E-4 2F.7 ....
....|..|R-- .... ....|--- .... ....|R-- .... ....
 A-2|..|A-1 2A.F ....|--- .... ....|--- .... ....
....|..|R-- .... ....|--- .... ....|--- .... ....
 B-3|..|B-1 2A.F ....|B-4 2F4F ....|D#4 2F.7 ....
....|..|R-- .... ....|R-- .... ....|--- .... ....
....|..|R-- .... ....|--- .... ....|R-- .... ....
....|..|--- .... ....|--- .... ....|--- .... ....
 A-2|..|A-1 2A.F ....|B-4 2F4F ....|--- .... ....
....|..|R-- .... ....|R-- .... ....|--- .... ....
 B-3|..|B-1 2A.F ....|B-4 2F4A ....|--- .... ....
....|..|R-- .... ....|R-- .... ....|--- .... ....
 B-3|..|B-1 2A.F ....|B-4 2F5F ....|R-- .... ....
....|..|R-- .... ....|--- .... ....|--- .... ....
 B-3|..|B-1 2A.F ....|B-4 2F4A ....|--- .... ....
....|..|R-- .... ....|R-- .... ....|--- .... ....
 A-2|..|A-1 2A.F ....|B-4 2F4F ....|--- .... ....
....|..|R-- .... ....|E-5 2F.F ....|--- .... ....
....|..|B-1 2F.A ....|B-4 2F5A ....|R-- .... ....
....|..|R-- .... ....|--- .... ....|--- .... ....
 B-3|..|B-1 2A.F ....|B-4 2F4F ....|--- .... ....
....|..|R-- .... ....|R-- .... ....|--- .... ....
....|..|A-1 2F.A ....|B-4 2F4A ....|--- .... ....
....|..|R-- .... ....|E-5 2F.A ....|--- .... ....
 A-2|..|A-1 2A.F ....|B-4 2F4F ....|--- .... ....
....|..|R-- .... ....|--- .... ....|--- .... ....
 B-3|..|B-1 2A.F ....|B-4 2F4A ....|--- .... ....
....|..|R-- .... ....|R-- .... ....|--- .... ....

[Pattern8]
 A-2|..|A-1 2A.F ....|B-4 2F47 ....|--- .... ....
....|..|R-- .... ....|E-5 2F.7 ....|--- .... ....
 B-3|..|B-1 2A.F ....|B-4 2F4A ....|--- .... ....
....|..|R-- .... ....|--- .... ....|--- .... ....
 B-3|..|B-1 2A.F ....|B-4 2F47 ....|--- .... ....
....|..|R-- .... ....|R-- .... ....|--- .... ....
 A-2|..|A-1 2A.F ....|--- .... ....|--- .... ....
....|..|R-- .... ....|R-- .... ....|--- .... ....
 B-3|..|B-1 2A.F ....|A-5 2F.F ....|--- .... ....
....|..|R-- .... ....|A-5 2F.F ....|--- .... ....
 B-3|..|B-1 2A.F ....|R-- .... ....|--- .... ....
....|..|R-- .... ....|--- .... ....|--- .... ....
 A-2|..|A-1 2A.F ....|A-5 2F.F ....|--- .... ....
....|..|R-- .... ....|A-5 2F.F ....|--- .... ....
 B-3|..|B-1 2A.F ....|A-5 2F.A ....|--- .... ....
....|..|R-- .... ....|A-5 2F.A ....|--- .... ....
 B-3|..|B-1 2A.F ....|G#5 2F.F ....|--- .... ....
....|..|R-- .... ....|--- .... ....|--- .... ....
 B-3|..|B-1 2A.F ....|A-5 2F.A ....|--- .... ....
....|..|R-- .... ....|A-5 2F.A ....|--- .... ....
 A-2|..|A-1 2A.F ....|B-4 2F4F ....|--- .... ....
....|..|R-- .... ....|E-5 2F.F ....|--- .... ....
 B-3|..|B-1 2A.F ....|G#5 2F.A ....|--- .... ....
....|..|R-- .... ....|--- .... ....|--- .... ....
 B-3|..|B-1 2A.F ....|B-4 2F4F ....|--- .... ....
....|..|R-- .... ....|A-5 2F.7 ....|--- .... ....
 B-3|..|B-1 2A.F ....|B-4 2F4A ....|--- .... ....
....|..|R-- .... ....|E-5 2F.A ....|--- .... ....
 A-2|..|A-1 2A.F ....|B-4 2F4F ....|--- .... ....
....|..|R-- .... ....|--- .... ....|--- .... ....
 B-3|..|B-1 2A.F ....|B-4 2F4A ....|--- .... ....
....|..|R-- .... ....|R-- .... ....|--- .... ....
 E-3|..|E-1 2A.F ....|E-6 UFFF ....|B-3 2F.F ....
....|..|R-- .... ....|B-4 2F4F ....|--- .... ....
....|..|A-1 2F.A ....|B-4 2F4A ....|--- .... ....
....|..|R-- .... ....|--- .... ....|--- .... ....
....|..|B-1 2F.7 ....|B-6 UFFF ....|C#4 2F.F ....
....|..|R-- .... ....|R-- .... ....|--- .... ....
 E-3|..|E-1 2A.F ....|E-6 UFFA ....|B-3 2F.A ....
....|..|R-- .... ....|B-4 2F4A ....|--- .... ....
....|..|A-1 2F.7 ....|E-6 UFFF ....|E-4 2F.F ....
....|..|R-- .... ....|--- .... ....|--- .... ....
....|..|B-1 2F.7 ....|B-6 UFFA ....|C#4 2F.A ....
....|..|R-- .... ....|R-- .... ....|--- .... ....
 E-3|..|E-1 2A.F ....|B-6 UFFF ....|G#4 2F.F ....
....|..|R-- .... ....|B-4 2F47 ....|--- .... ....
....|..|R-- .... ....|E-6 UFFA ....|E-4 2F.A ....
....|..|--- .... ....|--- .... ....|--- .... ....
....|..|R-- .... ....|E-6 UFFF ....|C#4 2F.7 ....
....|..|--- .... ....|R-- .... ....|--- .... ....
....|..|E-1 2F.7 ....|B-6 UFFA ....|G#4 2F.A ....
....|..|--- .... ....|R-- .... ....|--- .... ....
 E-3|..|E-1 2A.F ....|B-6 UFFF ....|E-4 2F.7 ....
....|..|--- .... ....|R-- .... ....|--- .... ....
....|..|R-- .... ....|E-6 UFFA ....|--- .... ....
....|..|R-- .... ....|--- .... ....|--- .... ....
....|..|E-1 2F.7 ....|E-6 UFFF ....|G#4 2F.7 ....
....|..|--- .... ....|R-- .... ....|--- .... ....
....|..|E-1 2F.A ....|B-6 UFFA ....|--- .... ....
....|..|--- .... ....|B-4 2F4F ....|--- .... ....
 E-3|..|E-1 2A.F ....|C-7 UFFF ....|--- .... ....
....|..|R-- .... ....|R-- .... ....|--- .... ....
....|..|--- .... ....|E-6 UFFA ....|--- .... ....
....|..|--- .... ....|B-4 2F4F ....|R-- .... ....

[Pattern9]
 E-3|..|E-1 2A.F ....|E-6 UFFF ....|--- .... ....
....|..|--- .... ....|B-4 2F4A ....|--- .... ....
....|..|E-1 2F.A ....|C-7 UFFA ....|--- .... ....
....|..|R-- .... ....|B-4 2F2F ....|--- .... ....
....|..|R-- .... ....|C-7 UFFF ....|--- .... ....
....|..|--- .... ....|B-4 2F4A ....|R-- .... ....
 E-3|..|E-1 2A.F ....|E-6 UFFA ....|--- .... ....
....|..|--- .... ....|B-4 2F4F ....|--- .... ....
....|..|E-1 2F.7 ....|E-6 UFFF ....|G#4 2F.F ....
....|..|R-- .... ....|B-4 2F2A ....|--- .... ....
....|..|R-- .... ....|C-7 UFFA ....|--- .... ....
....|..|--- .... ....|B-4 2F47 ....|R-- .... ....
 E-3|..|E-1 2A.F ....|C-7 UFFF ....|F#4 2F.F ....
....|..|--- .... ....|B-4 2F4A ....|--- .... ....
....|..|R-- .... ....|E-6 UFFA ....|G#4 2F.A ....
....|..|--- .... ....|B-4 2F27 ....|--- .... ....
....|..|R-- .... ....|E-6 UFFF ....|G#4 2F.F ....
....|..|--- .... ....|R-- .... ....|--- .... ....
....|..|E-1 2F.7 ....|E-6 UFFF ....|F#4 2F.A ....
....|..|--- .... ....|B-4 2F47 ....|--- .... ....
 E-3|..|E-1 2A.F ....|C-7 UFFF ....|F#4 2F.F ....
....|..|--- .... ....|R-- .... ....|--- .... ....
....|..|R-- .... ....|E-6 UFFA ....|G#4 2F.A ....
....|..|R-- .... ....|R-- .... ....|--- .... ....
....|..|E-1 2F.7 ....|E-6 UFFF ....|E-4 2F.F ....
....|..|--- .... ....|R-- .... ....|--- .... ....
....|..|E-1 2F.A ....|C-7 UFFA ....|F#4 2F.A ....
....|..|--- .... ....|R-- .... ....|--- .... ....
 E-3|..|E-1 2A.F ....|B-6 UFFF ....|G#4 2F.7 ....
....|..|R-- .... ....|R-- .... ....|R-- .... ....
....|..|--- .... ....|B-5 2F.F ....|E-4 2F.A ....
....|..|--- .... ....|B-5 2F.F ....|--- .... ....
 E-3|..|E-1 2A.F ....|E-6 UFFF ....|B-3 2F.F ....
....|..|--- .... ....|R-- .... ....|--- .... ....
....|..|E-1 2F.A ....|B-6 UFFA ....|--- .... ....
....|..|R-- .... ....|R-- .... ....|R-- .... ....
....|..|R-- .... ....|B-6 UFFF ....|C#4 2F.F ....
....|..|--- .... ....|B-5 2F.A ....|--- .... ....
 E-3|..|E-1 2A.F ....|E-6 UFFA ....|B-3 2F.A ....
....|..|--- .... ....|--- .... ....|--- .... ....
....|..|E-1 2F.7 ....|E-6 UFFF ....|E-4 2F.F ....
....|..|R-- .... ....|R-- .... ....|R-- .... ....
....|..|R-- .... ....|B-6 UFFA ....|C#4 2F.A ....
....|..|--- .... ....|B-5 2F.7 ....|--- .... ....
 E-3|..|E-1 2A.F ....|B-6 UFFF ....|G#4 2F.F ....
....|..|--- .... ....|R-- .... ....|G#4 2F.F ....
....|..|R-- .... ....|E-6 UFFA ....|E-4 2F.A ....
....|..|--- .... ....|--- .... ....|--- .... ....
....|..|R-- .... ....|E-6 UFFF ....|C#4 2F.7 ....
....|..|--- .... ....|R-- .... ....|--- .... ....
....|..|E-1 2F.7 ....|B-6 UFFA ....|G#4 2F.A ....
....|..|--- .... ....|R-- .... ....|G#4 2F.A ....
 E-3|..|E-1 2A.F ....|B-6 UFFF ....|E-4 2F.7 ....
....|..|--- .... ....|R-- .... ....|--- .... ....
....|..|R-- .... ....|E-6 UFFA ....|--- .... ....
....|..|R-- .... ....|--- .... ....|--- .... ....
....|..|E-1 2F.7 ....|E-6 UFFF ....|G#4 2F.7 ....
....|..|--- .... ....|R-- .... ....|G#4 2F.7 ....
....|..|E-1 2F.A ....|B-6 UFFA ....|--- .... ....
....|..|--- .... ....|C-4 2F7F ....|--- .... ....
 E-3|..|E-1 2A.F ....|C-7 UFFF ....|--- .... ....
....|..|R-- .... ....|R-- .... ....|--- .... ....
....|..|--- .... ....|E-6 UFFA ....|--- .... ....
....|..|--- .... ....|C-4 2F7F ....|--- .... ....

[Pattern10]
 E-3|..|E-1 2A.F ....|E-6 UFFF ....|--- .... ....
....|..|--- .... ....|C-4 2F7A ....|R-- .... ....
....|..|E-1 2F.A ....|C-7 UFFA ....|--- .... ....
....|..|R-- .... ....|C-4 2F7F ....|--- .... ....
....|..|R-- .... ....|C-7 UFFF ....|--- .... ....
....|..|--- .... ....|C-4 2F7A ....|--- .... ....
 E-3|..|E-1 2A.F ....|E-6 UFFA ....|--- .... ....
....|..|--- .... ....|C-4 2F7F ....|R-- .... ....
....|..|E-1 2F.7 ....|E-6 UFFF ....|G#4 2F.F ....
....|..|R-- .... ....|C-4 2F7A ....|--- .... ....
....|..|R-- .... ....|C-7 UFFA ....|--- .... ....
....|..|--- .... ....|C-4 2F77 ....|R-- .... ....
 E-3|..|E-1 2A.F ....|C-7 UFFF ....|F#4 2F.F ....
....|..|--- .... ....|C-4 2F7A ....|R-- .... ....
....|..|R-- .... ....|E-6 UFFA ....|G#4 2F.A ....
....|..|--- .... ....|C-4 2F77 ....|--- .... ....
....|..|R-- .... ....|E-6 UFFF ....|A-4 2F.F ....
....|..|--- .... ....|R-- .... ....|R-- .... ....
....|..|E-1 2F.7 ....|E-6 UFFF ....|F#4 2F.A ....
....|..|--- .... ....|C-4 2F77 ....|--- .... ....
 E-3|..|E-1 2A.F ....|C-7 UFFF ....|G#4 2F.F ....
....|..|--- .... ....|R-- .... ....|--- .... ....
....|..|R-- .... ....|E-6 UFFA ....|A-4 2F.A ....
....|..|R-- .... ....|R-- .... ....|R-- .... ....
....|..|E-1 2F.7 ....|E-6 UFFF ....|E-4 2F.F ....
....|..|--- .... ....|R-- .... ....|--- .... ....
....|..|E-1 2F.A ....|C-7 UFFA ....|G#4 2F.A ....
....|..|--- .... ....|R-- .... ....|--- .... ....
 E-3|..|E-1 2A.F ....|B-6 UFFF ....|F#4 2F.F ....
....|..|R-- .... ....|R-- .... ....|--- .... ....
....|..|--- .... ....|E-6 UFF7 ....|E-4 2F.A ....
....|..|--- .... ....|C-6 2F.F ....|--- .... ....
 A-2|..|A-1 2A.F ....|A-3 2FAF ....|G#4 2F.7 ....
....|..|--- .... ....|R-- .... ....|--- .... ....
....|..|E-1 2F.A ....|B-6 UFFA ....|F#4 2F.A ....
....|..|R-- .... ....|R-- .... ....|--- .... ....
....|..|R-- .... ....|A-3 2FAF ....|G#4 2F.F ....
....|..|--- .... ....|C-6 2F.A ....|--- .... ....
 A-2|..|A-1 2A.F ....|A-3 2FAA ....|R-- .... ....
....|..|--- .... ....|--- .... ....|--- .... ....
....|..|E-1 2F.7 ....|B-6 UFF7 ....|F#4 2F.7 ....
....|..|R-- .... ....|R-- .... ....|--- .... ....
....|..|R-- .... ....|A-3 2FAA ....|G#4 2F.A ....
....|..|--- .... ....|C-6 2F.7 ....|--- .... ....
 A-2|..|A-1 2A.F ....|A-3 2FA7 ....|G#4 2F.F ....
....|..|--- .... ....|--- .... ....|--- .... ....
....|..|R-- .... ....|--- .... ....|--- .... ....
....|..|--- .... ....|--- .... ....|--- .... ....
....|..|R-- .... ....|A-3 2FA7 ....|F#4 2F.F ....
....|..|--- .... ....|--- .... ....|--- .... ....
....|..|A-1 2F.7 ....|--- .... ....|G#4 2F.A ....
....|..|--- .... ....|--- .... ....|--- .... ....
 A-2|..|A-1 2A.F ....|--- .... ....|E-4 2F.F ....
....|..|--- .... ....|--- .... ....|--- .... ....
....|..|R-- .... ....|--- .... ....|F#4 2F.A ....
....|..|R-- .... ....|--- .... ....|--- .... ....
....|..|A-1 2F.7 ....|--- .... ....|G#4 2F.7 ....
....|..|--- .... ....|--- .... ....|--- .... ....
....|..|A-1 2F.A ....|--- .... ....|E-4 2F.A ....
....|..|--- .... ....|--- .... ....|--- .... ....
 A-2|..|A-1 2A.F ....|--- .... ....|F#4 2F.7 ....
....|..|R-- .... ....|--- .... ....|R-- .... ....
....|..|--- .... ....|--- .... ....|--- .... ....
....|..|--- .... ....|--- .... ....|--- .... ....

[Pattern11]
 A-2|..|A-1 2A.F ....|--- .... ....|E-4 2F.7 ....
....|..|--- .... ....|--- .... ....|--- .... ....
....|..|A-1 2F.A ....|--- .... ....|--- .... ....
....|..|R-- .... ....|--- .... ....|R-- .... ....
....|..|R-- .... ....|--- .... ....|--- .... ....
....|..|--- .... ....|--- .... ....|--- .... ....
 A-2|..|A-1 2A.F ....|--- .... ....|--- .... ....
....|..|--- .... ....|--- .... ....|--- .... ....
....|..|A-1 2F.7 ....|--- .... ....|G#4 2F.F ....
....|..|R-- .... ....|--- .... ....|R-- .... ....
....|..|R-- .... ....|--- .... ....|--- .... ....
....|..|--- .... ....|--- .... ....|--- .... ....
 A-2|..|A-1 2A.F ....|--- .... ....|G#4 2F.F ....
....|..|--- .... ....|--- .... ....|R-- .... ....
....|..|R-- .... ....|--- .... ....|G#4 2F.A ....
....|..|--- .... ....|--- .... ....|R-- .... ....
....|..|R-- .... ....|--- .... ....|G#4 2F.F ....
....|..|--- .... ....|--- .... ....|--- .... ....
....|..|A-1 2F.7 ....|--- .... ....|G#4 2F.A ....
....|..|--- .... ....|--- .... ....|R-- .... ....
 A-2|..|A-1 2A.F ....|--- .... ....|F#4 2F.F ....
....|..|--- .... ....|--- .... ....|R-- .... ....
....|..|R-- .... ....|--- .... ....|G#4 2F.A ....
....|..|R-- .... ....|--- .... ....|--- .... ....
....|..|A-1 2F.7 ....|--- .... ....|E-4 2F.F ....
....|..|--- .... ....|--- .... ....|R-- .... ....
....|..|A-1 2F.A ....|--- .... ....|F#4 2F.A ....
....|..|--- .... ....|--- .... ....|--- .... ....
 A-2|..|A-1 2A.F ....|--- .... ....|F#4 2F.F ....
....|..|R-- .... ....|--- .... ....|--- .... ....
....|..|--- .... ....|--- .... ....|E-4 2F.A ....
....|..|--- .... ....|--- .... ....|--- .... ....
 B-2|..|B-1 2A.F ....|B-3 2FAF ....|F#4 2F.7 ....
....|..|--- .... ....|--- .... ....|--- .... ....
....|..|A-1 2F.A ....|--- .... ....|F#4 2F.A ....
....|..|R-- .... ....|--- .... ....|--- .... ....
....|..|R-- .... ....|--- .... ....|G#4 2F.F ....
....|..|--- .... ....|--- .... ....|--- .... ....
 B-2|..|B-1 2A.F ....|B-3 2FAA ....|--- .... ....
....|..|--- .... ....|--- .... ....|--- .... ....
....|..|A-1 2F.7 ....|--- .... ....|F#4 2F.7 ....
....|..|R-- .... ....|--- .... ....|--- .... ....
....|..|R-- .... ....|--- .... ....|G#4 2F.A ....
....|..|--- .... ....|--- .... ....|--- .... ....
 B-2|..|B-1 2A.F ....|B-3 2FA7 ....|B-3 2F.F ....
....|..|--- .... ....|--- .... ....|--- .... ....
....|..|R-- .... ....|--- .... ....|--- .... ....
....|..|--- .... ....|--- .... ....|--- .... ....
....|..|R-- .... ....|--- .... ....|G#4 2F.7 ....
....|..|--- .... ....|--- .... ....|--- .... ....
....|..|B-1 2F.7 ....|--- .... ....|B-3 2F.A ....
....|..|--- .... ....|--- .... ....|--- .... ....
 B-2|..|B-1 2A.F ....|--- .... ....|--- .... ....
....|..|--- .... ....|--- .... ....|--- .... ....
....|..|R-- .... ....|--- .... ....|--- .... ....
....|..|R-- .... ....|--- .... ....|--- .... ....
....|..|B-1 2F.7 ....|--- .... ....|B-3 2F.7 ....
....|..|--- .... ....|--- .... ....|--- .... ....
....|..|B-1 2F.A ....|--- .... ....|--- .... ....
....|..|--- .... ....|--- .... ....|--- .... ....
 B-2|..|B-1 2A.F ....|--- .... ....|--- .... ....
....|..|R-- .... ....|--- .... ....|--- .... ....
....|..|--- .... ....|--- .... ....|--- .... ....
....|..|--- .... ....|--- .... ....|R-- .... ....

[Pattern12]
 B-2|..|B-1 2A.F ....|--- .... ....|--- .... ....
....|..|--- .... ....|--- .... ....|--- .... ....
....|..|B-1 2F.A ....|--- .... ....|--- .... ....
....|..|R-- .... ....|--- .... ....|--- .... ....
....|..|R-- .... ....|--- .... ....|--- .... ....
....|..|--- .... ....|--- .... ....|R-- .... ....
 B-2|..|B-1 2A.F ....|--- .... ....|--- .... ....
....|..|--- .... ....|--- .... ....|--- .... ....
....|..|B-1 2F.7 ....|--- .... ....|--- .... ....
....|..|R-- .... ....|R-- .... ....|--- .... ....
....|..|R-- .... ....|--- .... ....|--- .... ....
....|..|--- .... ....|--- .... ....|R-- .... ....
 B-2|..|B-1 2A.F ....|--- .... ....|--- .... ....
....|..|--- .... ....|--- .... ....|--- .... ....
....|..|R-- .... ....|--- .... ....|--- .... ....
....|..|--- .... ....|R-- .... ....|--- .... ....
 A-3|..|A-1 2A.F ....|E-4 2F6F ....|A-4 2F.F ....
....|..|--- .... ....|--- .... ....|--- .... ....
....|..|B-1 2F.7 ....|--- .... ....|--- .... ....
....|..|--- .... ....|--- .... ....|--- .... ....
....|..|R-- .... ....|--- .... ....|--- .... ....
....|..|--- .... ....|R-- .... ....|--- .... ....
....|..|A-1 2F.A ....|E-4 2F6A ....|A-4 2F.A ....
....|..|R-- .... ....|--- .... ....|R-- .... ....
 G#3|..|G#1 2A.F ....|E-4 2F7F ....|G#4 2F.F ....
....|..|--- .... ....|--- .... ....|--- .... ....
....|..|--- .... ....|--- .... ....|--- .... ....
....|..|--- .... ....|--- .... ....|--- .... ....
....|..|A-1 2F.7 ....|E-4 2F67 ....|A-4 2F.7 ....
....|..|R-- .... ....|--- .... ....|R-- .... ....
....|..|G#1 2F.A ....|E-4 2F7A ....|G#4 2F.A ....
....|..|R-- .... ....|--- .... ....|R-- .... ....
 B-2|..|B-1 2A.F ....|B-4 2FBF ....|F#4 2F.F ....
....|..|--- .... ....|--- .... ....|--- .... ....
....|..|--- .... ....|R-- .... ....|--- .... ....
....|..|R-- .... ....|--- .... ....|R-- .... ....
....|..|G#1 2F.7 ....|E-4 2F77 ....|B-3 2F.F ....
....|..|R-- .... ....|--- .... ....|R-- .... ....
 B-2|..|B-1 2A.F ....|B-4 2FBA ....|F#4 2F.A ....
....|..|--- .... ....|--- .... ....|--- .... ....
....|..|R-- .... ....|--- .... ....|B-3 2F.F ....
....|..|--- .... ....|--- .... ....|R-- .... ....
....|..|R-- .... ....|R-- .... ....|B-3 2F.A ....
....|..|R-- .... ....|--- .... ....|R-- .... ....
 B-2|..|B-1 2A.F ....|B-4 2FB7 ....|B-3 2F.F ....
....|..|--- .... ....|--- .... ....|R-- .... ....
....|..|R-- .... ....|--- .... ....|B-3 2F.A ....
....|..|--- .... ....|--- .... ....|R-- .... ....
....|..|R-- .... ....|--- .... ....|B-3 2F.F ....
....|..|--- .... ....|--- .... ....|--- .... ....
....|..|B-1 2F.7 ....|R-- .... ....|B-3 2F.A ....
....|..|--- .... ....|--- .... ....|R-- .... ....
 B-2|..|B-1 2A.F ....|--- .... ....|B-3 2F.F ....
....|..|--- .... ....|--- .... ....|R-- .... ....
....|..|R-- .... ....|--- .... ....|B-3 2F.A ....
....|..|R-- .... ....|--- .... ....|--- .... ....
....|..|B-1 2F.7 ....|--- .... ....|B-3 2F.F ....
....|..|--- .... ....|--- .... ....|R-- .... ....
....|..|B-1 2F.A ....|--- .... ....|B-3 2F.A ....
....|..|--- .... ....|--- .... ....|R-- .... ....
 B-2|..|B-1 2A.F ....|--- .... ....|B-3 2F.F ....
....|..|R-- .... ....|--- .... ....|--- .... ....
....|..|--- .... ....|--- .... ....|B-3 2F.A ....
....|..|--- .... ....|--- .... ....|R-- .... ....

[Pattern13]
 B-2|..|B-1 2A.F ....|--- .... ....|B-3 2F.7 ....
....|..|--- .... ....|--- .... ....|R-- .... ....
....|..|B-1 2F.A ....|--- .... ....|B-3 2F.A ....
....|..|R-- .... ....|--- .... ....|--- .... ....
....|..|R-- .... ....|--- .... ....|B-3 2F.7 ....
....|..|--- .... ....|--- .... ....|R-- .... ....
 B-2|..|B-1 2A.F ....|--- .... ....|--- .... ....
....|..|--- .... ....|--- .... ....|--- .... ....
....|..|B-1 2F.7 ....|--- .... ....|B-3 2F.7 ....
....|..|R-- .... ....|--- .... ....|--- .... ....
....|..|R-- .... ....|--- .... ....|--- .... ....
....|..|--- .... ....|--- .... ....|--- .... ....
 B-2|..|B-1 2A.F ....|--- .... ....|--- .... ....
....|..|--- .... ....|--- .... ....|--- .... ....
....|..|R-- .... ....|--- .... ....|R-- .... ....
....|..|--- .... ....|--- .... ....|--- .... ....
 A-3|..|A-1 2A.F ....|E-4 2F6F ....|A-4 2F.F ....
....|..|--- .... ....|--- .... ....|--- .... ....
....|..|B-1 2F.7 ....|--- .... ....|--- .... ....
....|..|--- .... ....|--- .... ....|--- .... ....
....|..|R-- .... ....|--- .... ....|--- .... ....
....|..|--- .... ....|--- .... ....|--- .... ....
....|..|A-1 2F.A ....|E-4 2F6A ....|A-4 2F.A ....
....|..|R-- .... ....|--- .... ....|R-- .... ....
 G#3|..|G#1 2A.F ....|E-4 2F7F ....|G#4 2F.F ....
....|..|--- .... ....|--- .... ....|--- .... ....
....|..|--- .... ....|--- .... ....|--- .... ....
....|..|--- .... ....|--- .... ....|--- .... ....
....|..|A-1 2F.7 ....|E-4 2F67 ....|A-4 2F.7 ....
....|..|R-- .... ....|--- .... ....|R-- .... ....
....|..|G#1 2F.A ....|E-4 2F7A ....|G#4 2F.A ....
....|..|R-- .... ....|--- .... ....|--- .... ....
 B-2|..|B-1 2A.F ....|B-4 2FBF ....|F#4 2F.F ....
....|..|R-- .... ....|--- .... ....|--- .... ....
 B-3|..|B-1 2A.F ....|R-- .... ....|--- .... ....
....|..|R-- .... ....|--- .... ....|R-- .... ....
 B-3|..|B-1 2A.F ....|E-4 2F77 ....|B-3 2F.F ....
....|..|R-- .... ....|--- .... ....|--- .... ....
 B-2|..|B-1 2A.F ....|B-4 2FBA ....|F#4 2F.A ....
....|..|R-- .... ....|--- .... ....|--- .... ....
 B-3|..|B-1 2A.F ....|--- .... ....|B-3 2F.F ....
....|..|R-- .... ....|--- .... ....|R-- .... ....
 B-3|..|B-1 2A.F ....|R-- .... ....|B-3 2F.A ....
....|..|R-- .... ....|--- .... ....|--- .... ....
 B-2|..|B-1 2A.F ....|B-4 2FB7 ....|B-3 2F.F ....
....|..|R-- .... ....|--- .... ....|R-- .... ....
 B-3|..|B-1 2A.F ....|--- .... ....|B-3 2F.A ....
....|..|R-- .... ....|--- .... ....|R-- .... ....
 B-3|..|B-1 2A.F ....|--- .... ....|B-3 2F.F ....
....|..|R-- .... ....|--- .... ....|--- .... ....
 B-3|..|B-1 2A.F ....|R-- .... ....|B-3 2F.A ....
....|..|R-- .... ....|--- .... ....|R-- .... ....
 B-2|..|B-1 2A.F ....|--- .... ....|B-3 2F.F ....
....|..|R-- .... ....|--- .... ....|R-- .... ....
 B-3|..|B-1 2A.F ....|--- .... ....|B-3 2F.A ....
....|..|R-- .... ....|--- .... ....|--- .... ....
 B-3|..|B-1 2A.F ....|--- .... ....|B-3 2F.F ....
....|..|R-- .... ....|--- .... ....|R-- .... ....
 B-3|..|B-1 2A.F ....|--- .... ....|B-3 2F.A ....
....|..|R-- .... ....|--- .... ....|--- .... ....
 B-2|..|B-1 2A.F ....|--- .... ....|B-3 2F.F ....
....|..|R-- .... ....|--- .... ....|--- .... ....
 B-3|..|B-1 2A.F ....|--- .... ....|B-3 2F.A ....
....|..|R-- .... ....|--- .... ....|R-- .... ....

[Pattern14]
 B-2|..|B-1 2A.F ....|--- .... ....|B-3 2F.7 ....
....|..|R-- .... ....|--- .... ....|--- .... ....
 B-3|..|B-1 2A.F ....|--- .... ....|B-3 2F.A ....
....|..|R-- .... ....|--- .... ....|--- .... ....
 B-3|..|B-1 2A.F ....|--- .... ....|B-3 2F.7 ....
....|..|R-- .... ....|--- .... ....|R-- .... ....
 B-3|..|B-1 2A.F ....|--- .... ....|R-- .... ....
....|..|R-- .... ....|--- .... ....|--- .... ....
 B-3|..|B-1 2A.F ....|--- .... ....|B-3 2F.7 ....
....|..|R-- .... ....|--- .... ....|--- .... ....
 B-3|..|B-1 2A.F ....|--- .... ....|--- .... ....
....|..|R-- .... ....|--- .... ....|--- .... ....
 B-3|..|B-1 2A.F ....|--- .... ....|R-- .... ....
....|..|R-- .... ....|--- .... ....|--- .... ....
 B-3|..|B-1 2A.F ....|--- .... ....|--- .... ....
....|..|R-- .... ....|--- .... ....|--- .... ....
 B-3|..|B-1 2A.F ....|--- .... ....|G#4 2F.F ....
....|..|R-- .... ....|--- .... ....|--- .... ....
 B-3|..|B-1 2A.F ....|--- .... ....|R-- .... ....
....|..|R-- .... ....|--- .... ....|--- .... ....
 B-3|..|B-1 2A.F ....|--- .... ....|E-4 2F.F ....
....|..|R-- .... ....|--- .... ....|--- .... ....
 B-3|..|B-1 2A.F ....|--- .... ....|G#4 2F.A ....
....|..|R-- .... ....|--- .... ....|--- .... ....
 B-3|..|B-1 2A.F ....|--- .... ....|F#4 2F.F ....
....|..|R-- .... ....|--- .... ....|--- .... ....
 B-3|..|B-1 2A.F ....|--- .... ....|E-4 2F.A ....
....|..|R-- .... ....|--- .... ....|R-- .... ....
 B-3|..|B-1 2A.F ....|--- .... ....|E-4 2F.F ....
....|..|R-- .... ....|--- .... ....|--- .... ....
 B-3|..|B-1 2A.F ....|--- .... ....|F#4 2F.A ....
....|..|R-- .... ....|--- .... ....|--- .... ....
....|..|B-1 2F.7 ....|B-4 2F1F ....|E-4 2F.7 ....
....|..|R-- .... ....|R-- .... ....|R-- .... ....
....|..|B-1 2F.7 ....|--- .... ....|E-4 2F.A ....
....|..|R-- .... ....|--- .... ....|--- .... ....
....|..|B-1 2F.7 ....|B-4 2F1F ....|F#4 2F.7 ....
....|..|R-- .... ....|R-- .... ....|--- .... ....
....|..|B-1 2F.7 ....|B-4 2F1A ....|R-- .... ....
....|..|R-- .... ....|R-- .... ....|R-- .... ....
....|..|B-1 2F.7 ....|F#6 UFFF ....|F#4 2F.F ....
....|..|R-- .... ....|R-- .... ....|--- .... ....
....|..|B-1 2F.7 ....|B-4 2F1A ....|R-- .... ....
....|..|R-- .... ....|R-- .... ....|--- .... ....
....|..|--- .... ....|E-6 UFFF ....|E-4 2F.F ....
....|..|--- .... ....|R-- .... ....|--- .... ....
....|..|--- .... ....|F#6 UFFA ....|F#4 2F.A ....
....|..|--- .... ....|R-- .... ....|--- .... ....
....|..|--- .... ....|F#6 UFFF ....|F#4 2F.F ....
....|..|--- .... ....|R-- .... ....|--- .... ....
....|..|--- .... ....|E-6 UFFA ....|E-4 2F.A ....
....|..|--- .... ....|R-- .... ....|--- .... ....
....|..|--- .... ....|E-6 UFFF ....|E-4 2F.F ....
....|..|--- .... ....|E-6 UFFF ....|--- .... ....
....|..|--- .... ....|F#6 UFFA ....|F#4 2F.A ....
....|..|--- .... ....|R-- .... ....|R-- .... ....
....|..|--- .... ....|B-4 2F1F ....|E-4 2F.7 ....
....|..|--- .... ....|R-- .... ....|--- .... ....
....|..|--- .... ....|E-6 UFFA ....|E-4 2F.A ....
....|..|--- .... ....|E-6 UFFA ....|--- .... ....
....|..|--- .... ....|B-4 2F1F ....|F#4 2F.7 ....
....|..|--- .... ....|R-- .... ....|R-- .... ....
....|..|--- .... ....|B-4 2F1A ....|--- .... ....
....|..|--- .... ....|R-- .... ....|--- .... ....

[Pattern15]
....|..|--- .... ....|B-4 2F1F ....|E-4 2F.7 ....
....|..|--- .... ....|E-6 UFF7 ....|--- .... ....
....|..|--- .... ....|B-4 2F1A ....|--- .... ....
....|..|--- .... ....|R-- .... ....|R-- .... ....
....|..|--- .... ....|B-4 2F1F ....|--- .... ....
....|..|--- .... ....|R-- .... ....|--- .... ....
....|..|--- .... ....|B-4 2F1A ....|--- .... ....
....|..|--- .... ....|R-- .... ....|--- .... ....
....|..|--- .... ....|E-6 UFFF ....|E-4 2F.F ....
....|..|--- .... ....|R-- .... ....|R-- .... ....
....|..|--- .... ....|B-4 2F1A ....|--- .... ....
....|..|--- .... ....|R-- .... ....|--- .... ....
....|..|--- .... ....|E-6 UFFF ....|E-4 2F.F ....
....|..|--- .... ....|R-- .... ....|--- .... ....
....|..|--- .... ....|E-6 UFFA ....|E-4 2F.A ....
....|..|--- .... ....|R-- .... ....|R-- .... ....
....|..|--- .... ....|F#6 UFFF ....|F#4 2F.F ....
....|..|--- .... ....|R-- .... ....|--- .... ....
....|..|--- .... ....|E-6 UFFA ....|E-4 2F.A ....
....|..|--- .... ....|R-- .... ....|--- .... ....
....|..|--- .... ....|G#6 UFFF ....|G#4 2F.F ....
....|..|--- .... ....|R-- .... ....|R-- .... ....
....|..|--- .... ....|F#6 UFFA ....|F#4 2F.A ....
....|..|--- .... ....|R-- .... ....|R-- .... ....
....|..|--- .... ....|F#6 UFFF ....|F#4 2F.F ....
....|..|--- .... ....|R-- .... ....|--- .... ....
....|..|--- .... ....|G#6 UFFA ....|G#4 2F.A ....
....|..|--- .... ....|R-- .... ....|R-- .... ....
....|..|--- .... ....|E-6 UFFF ....|E-4 2F.F ....
....|..|--- .... ....|R-- .... ....|R-- .... ....
....|..|--- .... ....|F#6 UFFA ....|F#4 2F.A ....
....|..|--- .... ....|R-- .... ....|R-- .... ....
 B-3|..|B-1 2A.F ....|C#4 2F3F ....|G#4 2F.7 ....
....|..|R-- .... ....|R-- .... ....|R-- .... ....
 B-3|..|B-1 2A.F ....|E-6 UFFA ....|E-4 2F.A ....
....|..|R-- .... ....|R-- .... ....|R-- .... ....
 B-3|..|B-1 2A.F ....|C#4 2F3F ....|F#4 2F.7 ....
....|..|R-- .... ....|R-- .... ....|R-- .... ....
 B-3|..|B-1 2A.F ....|C#4 2F3A ....|--- .... ....
....|..|R-- .... ....|R-- .... ....|R-- .... ....
 B-3|..|B-1 2A.F ....|F#6 UFFF ....|F#4 2F.F ....
....|..|R-- .... ....|R-- .... ....|--- .... ....
 B-3|..|B-1 2A.F ....|C#4 2F3A ....|--- .... ....
....|..|R-- .... ....|R-- .... ....|R-- .... ....
 B-3|..|B-1 2A.F ....|C#4 2F3F ....|--- .... ....
....|..|R-- .... ....|R-- .... ....|R-- .... ....
 B-3|..|B-1 2A.F ....|F#6 UFFA ....|F#4 2F.A ....
....|..|R-- .... ....|R-- .... ....|--- .... ....
 B-3|..|B-1 2A.F ....|E-6 UFFF ....|E-4 2F.F ....
....|..|R-- .... ....|R-- .... ....|--- .... ....
 B-3|..|B-1 2A.F ....|C#4 2F3A ....|--- .... ....
....|..|R-- .... ....|R-- .... ....|R-- .... ....
 B-3|..|B-1 2A.F ....|C#4 2F3F ....|F#4 2F.7 ....
....|..|R-- .... ....|R-- .... ....|--- .... ....
 B-3|..|B-1 2A.F ....|E-6 UFFA ....|E-4 2F.A ....
....|..|R-- .... ....|R-- .... ....|R-- .... ....
 B-3|..|B-1 2A.F ....|C#4 2F3F ....|--- .... ....
....|..|R-- .... ....|E-5 2F.F ....|R-- .... ....
 B-3|..|B-1 2A.F ....|C#4 2F3A ....|--- .... ....
....|..|R-- .... ....|R-- .... ....|--- .... ....
 B-3|..|B-1 2A.F ....|A-6 UFFF ....|A-4 2F.F ....
....|..|R-- .... ....|R-- .... ....|R-- .... ....
 B-3|..|B-1 2A.F ....|C#4 2F3A ....|--- .... ....
....|..|R-- .... ....|E-5 2F.A ....|R-- .... ....

[Pattern16]
 B-3|..|B-1 2A.F ....|C#4 2F3F ....|--- .... ....
....|..|R-- .... ....|R-- .... ....|--- .... ....
 B-3|..|B-1 2A.F ....|A-6 UFFA ....|A-4 2F.A ....
....|..|R-- .... ....|R-- .... ....|R-- .... ....
 B-3|..|B-1 2A.F ....|A-6 UFFF ....|A-4 2F.F ....
....|..|R-- .... ....|E-5 2F.7 ....|R-- .... ....
 B-3|..|B-1 2A.F ....|C#4 2F3A ....|R-- .... ....
....|..|R-- .... ....|R-- .... ....|--- .... ....
 B-3|..|B-1 2A.F ....|A-6 UFFF ....|A-4 2F.F ....
....|..|R-- .... ....|R-- .... ....|--- .... ....
 B-3|..|B-1 2A.F ....|A-6 UFFA ....|A-4 2F.A ....
....|..|R-- .... ....|R-- .... ....|R-- .... ....
 B-3|..|B-1 2A.F ....|A-6 UFFF ....|A-4 2F.F ....
....|..|R-- .... ....|R-- .... ....|--- .... ....
 B-3|..|B-1 2A.F ....|A-6 UFFA ....|A-4 2F.A ....
....|..|R-- .... ....|R-- .... ....|--- .... ....
 B-3|..|B-1 2A.F ....|G#6 UFFF ....|G#4 2F.F ....
....|..|R-- .... ....|R-- .... ....|--- .... ....
 B-3|..|B-1 2A.F ....|A-6 UFFA ....|A-4 2F.A ....
....|..|R-- .... ....|R-- .... ....|--- .... ....
 B-3|..|B-1 2A.F ....|C#4 2F3F ....|A-4 2F.7 ....
....|..|R-- .... ....|R-- .... ....|--- .... ....
 B-3|..|B-1 2A.F ....|G#6 UFFA ....|G#4 2F.A ....
....|..|R-- .... ....|R-- .... ....|R-- .... ....
 B-3|..|B-1 2A.F ....|E-6 UFFF ....|E-4 2F.F ....
....|..|R-- .... ....|R-- .... ....|--- .... ....
 B-3|..|B-1 2A.F ....|C#4 2F3A ....|R-- .... ....
....|..|R-- .... ....|R-- .... ....|--- .... ....
 B-3|..|B-1 2A.F ....|C#4 2F3F ....|G#4 2F.7 ....
....|..|R-- .... ....|R-- .... ....|R-- .... ....
 B-3|..|B-1 2A.F ....|E-6 UFFA ....|E-4 2F.A ....
....|..|R-- .... ....|R-- .... ....|--- .... ....
 E-3|..|E-1 2A.F ....|B-4 2F1F ....|--- .... ....
....|..|R-- .... ....|R-- .... ....|--- .... ....
....|..|B-1 2F.7 ....|C#4 2F3A ....|R-- .... ....
....|..|R-- .... ....|R-- .... ....|R-- .... ....
....|..|B-1 2F.7 ....|B-4 2F1F ....|E-4 2F.7 ....
....|..|R-- .... ....|R-- .... ....|--- .... ....
 E-3|..|E-1 2A.F ....|B-4 2F1A ....|--- .... ....
....|..|R-- .... ....|R-- .... ....|--- .... ....
....|..|B-1 2F.7 ....|F#6 UFFF ....|F#4 2F.F ....
....|..|R-- .... ....|R-- .... ....|--- .... ....
....|..|B-1 2F.7 ....|B-4 2F1A ....|--- .... ....
....|..|R-- .... ....|R-- .... ....|R-- .... ....
 E-3|..|E-1 2A.F ....|E-6 UFFF ....|E-4 2F.F ....
....|..|--- .... ....|R-- .... ....|--- .... ....
....|..|R-- .... ....|F#6 UFFA ....|F#4 2F.A ....
....|..|--- .... ....|R-- .... ....|--- .... ....
....|..|R-- .... ....|F#6 UFFF ....|F#4 2F.F ....
....|..|--- .... ....|R-- .... ....|R-- .... ....
....|..|E-1 2F.7 ....|E-6 UFFA ....|E-4 2F.A ....
....|..|--- .... ....|R-- .... ....|R-- .... ....
 E-3|..|E-1 2A.F ....|E-6 UFFF ....|E-4 2F.F ....
....|..|--- .... ....|E-6 UFFF ....|--- .... ....
....|..|R-- .... ....|F#6 UFFA ....|F#4 2F.A ....
....|..|R-- .... ....|R-- .... ....|R-- .... ....
....|..|E-1 2F.7 ....|B-4 2F1F ....|E-4 2F.7 ....
....|..|--- .... ....|R-- .... ....|R-- .... ....
....|..|E-1 2F.A ....|E-6 UFFA ....|E-4 2F.A ....
....|..|--- .... ....|E-6 UFFA ....|--- .... ....
 E-3|..|E-1 2A.F ....|B-4 2F1F ....|F#4 2F.7 ....
....|..|R-- .... ....|R-- .... ....|R-- .... ....
....|..|--- .... ....|B-4 2F1A ....|--- .... ....
....|..|--- .... ....|R-- .... ....|R-- .... ....

[Pattern17]
 E-3|..|E-1 2A.F ....|B-4 2F1F ....|E-4 2F.7 ....
....|..|--- .... ....|E-6 UFF7 ....|--- .... ....
....|..|E-1 2F.A ....|B-4 2F1A ....|--- .... ....
....|..|R-- .... ....|R-- .... ....|R-- .... ....
....|..|R-- .... ....|B-4 2F1F ....|--- .... ....
....|..|--- .... ....|R-- .... ....|--- .... ....
 E-3|..|E-1 2A.F ....|B-4 2F1A ....|--- .... ....
....|..|--- .... ....|R-- .... ....|--- .... ....
....|..|E-1 2F.7 ....|E-6 UFFF ....|E-4 2F.F ....
....|..|R-- .... ....|R-- .... ....|R-- .... ....
....|..|R-- .... ....|B-4 2F1A ....|--- .... ....
....|..|--- .... ....|R-- .... ....|--- .... ....
 E-3|..|E-1 2A.F ....|E-6 UFFF ....|E-4 2F.F ....
....|..|--- .... ....|R-- .... ....|--- .... ....
....|..|R-- .... ....|E-6 UFFA ....|E-4 2F.A ....
....|..|--- .... ....|R-- .... ....|R-- .... ....
....|..|R-- .... ....|F#6 UFFF ....|F#4 2F.F ....
....|..|--- .... ....|R-- .... ....|--- .... ....
....|..|E-1 2F.7 ....|E-6 UFFA ....|E-4 2F.A ....
....|..|--- .... ....|R-- .... ....|--- .... ....
 E-3|..|E-1 2A.F ....|G#6 UFFF ....|G#4 2F.F ....
....|..|--- .... ....|R-- .... ....|R-- .... ....
....|..|R-- .... ....|F#6 UFFA ....|F#4 2F.A ....
....|..|R-- .... ....|R-- .... ....|--- .... ....
....|..|E-1 2F.7 ....|F#6 UFFF ....|F#4 2F.F ....
....|..|--- .... ....|R-- .... ....|--- .... ....
....|..|E-1 2F.A ....|G#6 UFFA ....|G#4 2F.A ....
....|..|--- .... ....|R-- .... ....|R-- .... ....
 E-3|..|E-1 2A.F ....|E-6 UFFF ....|E-4 2F.F ....
....|..|R-- .... ....|G#5 2F.F ....|--- .... ....
....|..|--- .... ....|F#6 UFFA ....|F#4 2F.A ....
....|..|--- .... ....|R-- .... ....|--- .... ....
 A-2|..|A-1 2A.F ....|C#4 2F3F ....|G#4 2F.7 ....
....|..|--- .... ....|R-- .... ....|R-- .... ....
....|..|E-1 2F.A ....|E-6 UFFA ....|E-4 2F.A ....
....|..|R-- .... ....|G#5 2F.A ....|--- .... ....
....|..|R-- .... ....|C#4 2F3F ....|F#4 2F.7 ....
....|..|--- .... ....|R-- .... ....|--- .... ....
 A-2|..|A-1 2A.F ....|C#4 2F3A ....|R-- .... ....
....|..|--- .... ....|R-- .... ....|R-- .... ....
....|..|E-1 2F.7 ....|F#6 UFFF ....|F#4 2F.F ....
....|..|R-- .... ....|G#5 2F.7 ....|--- .... ....
....|..|R-- .... ....|C#4 2F3A ....|--- .... ....
....|..|--- .... ....|R-- .... ....|--- .... ....
 A-2|..|A-1 2A.F ....|C#4 2F3F ....|R-- .... ....
....|..|--- .... ....|R-- .... ....|--- .... ....
....|..|R-- .... ....|F#6 UFFA ....|F#4 2F.A ....
....|..|--- .... ....|R-- .... ....|R-- .... ....
....|..|R-- .... ....|E-6 UFFF ....|E-4 2F.F ....
....|..|--- .... ....|R-- .... ....|--- .... ....
....|..|A-1 2F.7 ....|C#4 2F3A ....|--- .... ....
....|..|--- .... ....|R-- .... ....|--- .... ....
 A-2|..|A-1 2A.F ....|C#4 2F3F ....|F#4 2F.7 ....
....|..|--- .... ....|R-- .... ....|R-- .... ....
....|..|R-- .... ....|E-6 UFFA ....|E-4 2F.A ....
....|..|R-- .... ....|R-- .... ....|--- .... ....
....|..|A-1 2F.7 ....|C#4 2F3F ....|R-- .... ....
....|..|--- .... ....|R-- .... ....|--- .... ....
....|..|A-1 2F.A ....|C#4 2F3A ....|--- .... ....
....|..|--- .... ....|R-- .... ....|R-- .... ....
 A-2|..|A-1 2A.F ....|A-6 UFFF ....|A-4 2F.F ....
....|..|R-- .... ....|R-- .... ....|--- .... ....
....|..|--- .... ....|C#4 2F3A ....|R-- .... ....
....|..|--- .... ....|R-- .... ....|R-- .... ....

[Pattern18]
 A-2|..|A-1 2A.F ....|C#4 2F3F ....|--- .... ....
....|..|--- .... ....|R-- .... ....|--- .... ....
....|..|A-1 2F.A ....|A-6 UFFA ....|A-4 2F.A ....
....|..|R-- .... ....|R-- .... ....|--- .... ....
....|..|R-- .... ....|A-6 UFFF ....|A-4 2F.F ....
....|..|--- .... ....|R-- .... ....|R-- .... ....
 A-2|..|A-1 2A.F ....|C#4 2F3A ....|R-- .... ....
....|..|--- .... ....|R-- .... ....|--- .... ....
....|..|A-1 2F.7 ....|A-6 UFFF ....|A-4 2F.F ....
....|..|R-- .... ....|R-- .... ....|--- .... ....
....|..|R-- .... ....|A-6 UFFA ....|A-4 2F.A ....
....|..|--- .... ....|R-- .... ....|R-- .... ....
 A-2|..|A-1 2A.F ....|A-6 UFFF ....|A-4 2F.F ....
....|..|--- .... ....|R-- .... ....|--- .... ....
....|..|R-- .... ....|A-6 UFFA ....|A-4 2F.A ....
....|..|--- .... ....|R-- .... ....|--- .... ....
....|..|R-- .... ....|G#6 UFFF ....|G#4 2F.F ....
....|..|--- .... ....|R-- .... ....|--- .... ....
....|..|A-1 2F.7 ....|A-6 UFFA ....|A-4 2F.A ....
....|..|--- .... ....|R-- .... ....|--- .... ....
 A-2|..|A-1 2A.F ....|C#4 2F3F ....|G#4 2F.F ....
....|..|--- .... ....|R-- .... ....|--- .... ....
....|..|R-- .... ....|G#6 UFFA ....|G#4 2F.A ....
....|..|R-- .... ....|R-- .... ....|--- .... ....
....|..|A-1 2F.7 ....|E-6 UFFF ....|E-4 2F.F ....
....|..|--- .... ....|R-- .... ....|--- .... ....
....|..|A-1 2F.A ....|C#4 2F3A ....|G#4 2F.A ....
....|..|--- .... ....|R-- .... ....|R-- .... ....
 A-2|..|A-1 2A.F ....|C#4 2F3F ....|F-4 2F.F ....
....|..|R-- .... ....|R-- .... ....|--- .... ....
....|..|--- .... ....|E-6 UFFA ....|E-4 2F.A ....
....|..|--- .... ....|R-- .... ....|R-- .... ....
 E-3|..|E-1 2A.F ....|B-5 2F.F ....|E-4 2F.F ....
....|..|--- .... ....|R-- .... ....|R-- .... ....
....|..|A-1 2F.A ....|C#4 2F3A ....|F-4 2F.A ....
....|..|R-- .... ....|R-- .... ....|--- .... ....
....|..|R-- .... ....|E-6 UFF7 ....|E-4 2F.7 ....
....|..|--- .... ....|R-- .... ....|R-- .... ....
 E-3|..|E-1 2A.F ....|B-5 2F.A ....|E-4 2F.A ....
....|..|--- .... ....|--- .... ....|R-- .... ....
....|..|A-1 2F.7 ....|C#4 2F37 ....|B-4 2F.F ....
....|..|R-- .... ....|R-- .... ....|B-4 2F.F ....
....|..|R-- .... ....|--- .... ....|--- .... ....
....|..|--- .... ....|--- .... ....|R-- .... ....
 E-3|..|E-1 2A.F ....|B-5 2F.7 ....|E-4 2F.7 ....
....|..|--- .... ....|--- .... ....|--- .... ....
....|..|R-- .... ....|--- .... ....|B-4 2F.A ....
....|..|--- .... ....|--- .... ....|B-4 2F.A ....
....|..|R-- .... ....|--- .... ....|R-- .... ....
....|..|--- .... ....|--- .... ....|R-- .... ....
....|..|E-1 2F.7 ....|--- .... ....|--- .... ....
....|..|--- .... ....|--- .... ....|--- .... ....
 E-3|..|E-1 2A.F ....|--- .... ....|B-4 2F.F ....
....|..|--- .... ....|--- .... ....|B-4 2F.7 ....
....|..|R-- .... ....|--- .... ....|R-- .... ....
....|..|R-- .... ....|--- .... ....|R-- .... ....
....|..|E-1 2F.7 ....|--- .... ....|B-4 2F.F ....
....|..|--- .... ....|--- .... ....|R-- .... ....
....|..|E-1 2F.A ....|--- .... ....|B-4 2F.A ....
....|..|--- .... ....|--- .... ....|R-- .... ....
 E-3|..|E-1 2A.F ....|--- .... ....|B-4 2F.F ....
....|..|R-- .... ....|--- .... ....|R-- .... ....
....|..|--- .... ....|--- .... ....|B-4 2F.A ....
....|..|--- .... ....|--- .... ....|R-- .... ....

[Pattern19]
 D#3|..|D#1 2A.F ....|--- .... ....|B-4 2F.7 ....
....|..|--- .... ....|--- .... ....|R-- .... ....
....|..|E-1 2F.A ....|--- .... ....|B-4 2F.A ....
....|..|R-- .... ....|--- .... ....|--- .... ....
....|..|R-- .... ....|--- .... ....|F#4 2F.F ....
....|..|--- .... ....|--- .... ....|R-- .... ....
 D#3|..|D#1 2A.F ....|--- .... ....|--- .... ....
....|..|--- .... ....|--- .... ....|R-- .... ....
....|..|E-1 2F.7 ....|F#5 2F.F ....|B-4 2F.7 ....
....|..|R-- .... ....|--- .... ....|--- .... ....
....|..|R-- .... ....|--- .... ....|F#4 2F.A ....
....|..|--- .... ....|--- .... ....|--- .... ....
 D#3|..|D#1 2A.F ....|--- .... ....|G#4 2F.F ....
....|..|--- .... ....|--- .... ....|R-- .... ....
....|..|R-- .... ....|F#5 2F.A ....|--- .... ....
....|..|--- .... ....|--- .... ....|--- .... ....
....|..|R-- .... ....|G#5 2F.F ....|B-2 2F.F ....
....|..|--- .... ....|--- .... ....|--- .... ....
....|..|D#1 2F.7 ....|--- .... ....|G#4 2F.A ....
....|..|--- .... ....|--- .... ....|--- .... ....
 D#3|..|D#1 2A.F ....|F#5 2F.7 ....|A-4 2F.F ....
....|..|--- .... ....|--- .... ....|--- .... ....
....|..|R-- .... ....|G#5 2F.A ....|B-2 2F.A ....
....|..|R-- .... ....|--- .... ....|--- .... ....
....|..|D#1 2F.7 ....|A-5 2F.F ....|G#2 2F.F ....
....|..|--- .... ....|--- .... ....|--- .... ....
....|..|D#1 2F.A ....|--- .... ....|A-4 2F.A ....
....|..|--- .... ....|--- .... ....|--- .... ....
 D#3|..|D#1 2A.F ....|G#5 2F.7 ....|A-2 2F.F ....
....|..|R-- .... ....|--- .... ....|R-- .... ....
....|..|--- .... ....|A-5 2F.A ....|G#2 2F.A ....
....|..|--- .... ....|--- .... ....|--- .... ....
 C#3|..|C#1 2A.F ....|G#5 2F.F ....|G#2 2F.F ....
....|..|--- .... ....|--- .... ....|--- .... ....
....|..|D#1 2F.A ....|--- .... ....|A-2 2F.A ....
....|..|R-- .... ....|--- .... ....|R-- .... ....
....|..|R-- .... ....|A-5 2F.7 ....|G#2 2F.7 ....
....|..|--- .... ....|--- .... ....|--- .... ....
 C#3|..|C#1 2A.F ....|G#5 2F.A ....|G#2 2F.A ....
....|..|--- .... ....|--- .... ....|--- .... ....
....|..|D#1 2F.7 ....|--- .... ....|G#4 2F.F ....
....|..|R-- .... ....|--- .... ....|R-- .... ....
....|..|R-- .... ....|--- .... ....|--- .... ....
....|..|--- .... ....|--- .... ....|--- .... ....
 C#3|..|C#1 2A.F ....|G#5 2F.7 ....|G#2 2F.7 ....
....|..|--- .... ....|--- .... ....|--- .... ....
....|..|R-- .... ....|--- .... ....|G#4 2F.A ....
....|..|--- .... ....|--- .... ....|--- .... ....
....|..|R-- .... ....|--- .... ....|R-- .... ....
....|..|--- .... ....|--- .... ....|R-- .... ....
....|..|C#1 2F.7 ....|--- .... ....|--- .... ....
....|..|--- .... ....|--- .... ....|--- .... ....
 C#3|..|C#1 2A.F ....|--- .... ....|G#4 2F.F ....
....|..|--- .... ....|--- .... ....|R-- .... ....
....|..|R-- .... ....|--- .... ....|R-- .... ....
....|..|R-- .... ....|--- .... ....|R-- .... ....
....|..|C#1 2F.7 ....|--- .... ....|G#4 2F.F ....
....|..|--- .... ....|--- .... ....|R-- .... ....
....|..|C#1 2F.A ....|--- .... ....|G#4 2F.A ....
....|..|--- .... ....|--- .... ....|R-- .... ....
 C#3|..|C#1 2A.F ....|--- .... ....|G#4 2F.F ....
....|..|R-- .... ....|--- .... ....|R-- .... ....
....|..|--- .... ....|--- .... ....|G#4 2F.A ....
....|..|--- .... ....|--- .... ....|R-- .... ....

[Pattern20]
 B-2|..|B-1 2A.F ....|--- .... ....|G#4 2F.7 ....
....|..|--- .... ....|--- .... ....|R-- .... ....
....|..|C#1 2F.A ....|--- .... ....|G#4 2F.A ....
....|..|R-- .... ....|--- .... ....|R-- .... ....
....|..|R-- .... ....|--- .... ....|D#4 2F.F ....
....|..|--- .... ....|--- .... ....|R-- .... ....
 B-2|..|B-1 2A.F ....|--- .... ....|--- .... ....
....|..|--- .... ....|G#5 2F.F ....|--- .... ....
....|..|C#1 2F.7 ....|D#5 2F.F ....|G#4 2F.7 ....
....|..|R-- .... ....|--- .... ....|R-- .... ....
....|..|R-- .... ....|--- .... ....|D#4 2F.A ....
....|..|--- .... ....|--- .... ....|--- .... ....
 B-2|..|B-1 2A.F ....|--- .... ....|E-4 2F.F ....
....|..|--- .... ....|G#5 2F.A ....|--- .... ....
....|..|R-- .... ....|D#5 2F.A ....|--- .... ....
....|..|--- .... ....|--- .... ....|R-- .... ....
....|..|R-- .... ....|E-4 2F.F ....|G#2 2F.F ....
....|..|--- .... ....|E-5 2F.F ....|--- .... ....
....|..|B-1 2F.7 ....|--- .... ....|E-4 2F.A ....
....|..|--- .... ....|G#5 2F.7 ....|R-- .... ....
 B-2|..|B-1 2A.F ....|D#5 2F.7 ....|F#4 2F.F ....
....|..|--- .... ....|--- .... ....|--- .... ....
....|..|R-- .... ....|E-4 2F.A ....|G#2 2F.A ....
....|..|R-- .... ....|E-4 2FCF ....|R-- .... ....
....|..|B-1 2F.7 ....|F#5 2F.F ....|E-2 2F.F ....
....|..|--- .... ....|--- .... ....|R-- .... ....
....|..|B-1 2F.A ....|--- .... ....|F#4 2F.A ....
....|..|--- .... ....|--- .... ....|F#2 2F.F ....
 B-2|..|B-1 2A.F ....|E-4 2F.7 ....|F#2 2F.F ....
....|..|R-- .... ....|E-5 2F.7 ....|R-- .... ....
....|..|--- .... ....|F#5 2F.A ....|E-2 2F.A ....
....|..|--- .... ....|--- .... ....|E-2 2F.F ....
 A-2|..|A-1 2A.F ....|R-- .... ....|F#4 2F.7 ....
....|..|--- .... ....|--- .... ....|F#2 2F.A ....
....|..|B-1 2F.A ....|--- .... ....|F#2 2F.A ....
....|..|R-- .... ....|E-4 2FC7 ....|R-- .... ....
....|..|R-- .... ....|F#5 2F.7 ....|E-2 2F.7 ....
....|..|--- .... ....|--- .... ....|E-2 2F.A ....
 A-2|..|A-1 2A.F ....|R-- .... ....|--- .... ....
....|..|--- .... ....|--- .... ....|F#2 2F.7 ....
....|..|B-1 2F.7 ....|A-4 2F4F ....|F#4 2F.F ....
....|..|R-- .... ....|--- .... ....|--- .... ....
....|..|R-- .... ....|--- .... ....|--- .... ....
....|..|--- .... ....|--- .... ....|E-2 2F.7 ....
 A-2|..|A-1 2A.F ....|R-- .... ....|--- .... ....
....|..|--- .... ....|A-4 2F.F ....|R-- .... ....
....|..|R-- .... ....|A-4 2F4A ....|F#4 2F.A ....
....|..|--- .... ....|--- .... ....|--- .... ....
....|..|R-- .... ....|A-4 2F7F ....|E-4 2F.F ....
....|..|--- .... ....|--- .... ....|--- .... ....
....|..|A-1 2F.7 ....|--- .... ....|--- .... ....
....|..|--- .... ....|A-4 2F.A ....|R-- .... ....
 A-2|..|A-1 2A.F ....|A-4 2F47 ....|F#4 2F.7 ....
....|..|--- .... ....|A-4 2F.F ....|R-- .... ....
....|..|R-- .... ....|A-4 2F7A ....|E-4 2F.A ....
....|..|R-- .... ....|--- .... ....|--- .... ....
....|..|A-1 2F.7 ....|--- .... ....|--- .... ....
....|..|--- .... ....|A-4 2F.7 ....|R-- .... ....
....|..|A-1 2F.A ....|R-- .... ....|--- .... ....
....|..|--- .... ....|A-4 2F.A ....|R-- .... ....
 A-2|..|A-1 2A.F ....|A-4 2F77 ....|A-4 2F.F ....
....|..|R-- .... ....|--- .... ....|--- .... ....
....|..|--- .... ....|--- .... ....|--- .... ....
....|..|--- .... ....|--- .... ....|--- .... ....

[Pattern21]
 F#3|..|F#1 2A.F ....|--- .... ....|R-- .... ....
....|..|--- .... ....|A-4 2F.7 ....|R-- .... ....
....|..|A-1 2F.A ....|R-- .... ....|A-4 2F.A ....
....|..|R-- .... ....|--- .... ....|--- .... ....
....|..|R-- .... ....|--- .... ....|A-4 2F.F ....
....|..|--- .... ....|--- .... ....|R-- .... ....
 F#3|..|F#1 2A.F ....|--- .... ....|R-- .... ....
....|..|--- .... ....|--- .... ....|--- .... ....
....|..|A-1 2F.7 ....|--- .... ....|G#4 2F.F ....
....|..|R-- .... ....|--- .... ....|--- .... ....
....|..|R-- .... ....|--- .... ....|A-4 2F.A ....
....|..|--- .... ....|--- .... ....|R-- .... ....
 F#3|..|F#1 2A.F ....|--- .... ....|E-4 2F.F ....
....|..|--- .... ....|--- .... ....|--- .... ....
....|..|R-- .... ....|--- .... ....|G#4 2F.A ....
....|..|--- .... ....|--- .... ....|--- .... ....
 B-2|..|B-1 2A.F ....|--- .... ....|F#4 2F.F ....
....|..|--- .... ....|--- .... ....|R-- .... ....
....|..|F#1 2F.7 ....|--- .... ....|E-4 2F.A ....
....|..|--- .... ....|--- .... ....|R-- .... ....
....|..|R-- .... ....|--- .... ....|E-4 2F.F ....
....|..|--- .... ....|--- .... ....|--- .... ....
 B-2|..|B-1 2A.F ....|--- .... ....|F#4 2F.A ....
....|..|--- .... ....|--- .... ....|R-- .... ....
....|..|F#1 2F.7 ....|--- .... ....|F#4 2F.F ....
....|..|--- .... ....|--- .... ....|R-- .... ....
....|..|R-- .... ....|--- .... ....|E-4 2F.A ....
....|..|--- .... ....|--- .... ....|R-- .... ....
 B-2|..|B-1 2A.F ....|--- .... ....|E-4 2F.F ....
....|..|--- .... ....|--- .... ....|--- .... ....
....|..|R-- .... ....|--- .... ....|F#4 2F.A ....
....|..|--- .... ....|--- .... ....|R-- .... ....
 E-3|..|E-1 2A.F ....|B-4 2F4F ....|E-4 2F.7 ....
....|..|--- .... ....|--- .... ....|E-3 2F.F ....
....|..|B-1 2F.7 ....|--- .... ....|E-4 2F.A ....
....|..|--- .... ....|--- .... ....|--- .... ....
....|..|R-- .... ....|--- .... ....|F#4 2F.7 ....
....|..|--- .... ....|--- .... ....|R-- .... ....
 E-3|..|E-1 2A.F ....|B-4 2F4A ....|--- .... ....
....|..|--- .... ....|--- .... ....|E-3 2F.A ....
....|..|B-1 2F.7 ....|--- .... ....|F#4 2F.F ....
....|..|--- .... ....|--- .... ....|--- .... ....
....|..|R-- .... ....|--- .... ....|--- .... ....
....|..|--- .... ....|--- .... ....|R-- .... ....
 E-3|..|E-1 2A.F ....|B-4 2F47 ....|E-4 2F.F ....
....|..|--- .... ....|--- .... ....|E-3 2F.7 ....
....|..|R-- .... ....|--- .... ....|F#4 2F.A ....
....|..|--- .... ....|--- .... ....|--- .... ....
....|..|R-- .... ....|--- .... ....|F#4 2F.F ....
....|..|--- .... ....|--- .... ....|--- .... ....
....|..|E-1 2F.7 ....|--- .... ....|E-4 2F.A ....
....|..|--- .... ....|--- .... ....|R-- .... ....
 E-3|..|E-1 2A.F ....|--- .... ....|E-4 2F.F ....
....|..|--- .... ....|--- .... ....|R-- .... ....
....|..|R-- .... ....|--- .... ....|F#4 2F.A ....
....|..|R-- .... ....|--- .... ....|R-- .... ....
....|..|E-1 2F.7 ....|--- .... ....|E-4 2F.F ....
....|..|--- .... ....|--- .... ....|R-- .... ....
....|..|E-1 2F.A ....|--- .... ....|E-4 2F.A ....
....|..|--- .... ....|--- .... ....|R-- .... ....
 E-3|..|E-1 2A.F ....|--- .... ....|D#4 2F.F ....
....|..|R-- .... ....|--- .... ....|R-- .... ....
....|..|--- .... ....|--- .... ....|E-4 2F.A ....
....|..|--- .... ....|--- .... ....|R-- .... ....

[Pattern22]
 C#3|..|C#1 2A.F ....|--- .... ....|C#4 2F.F ....
....|..|--- .... ....|--- .... ....|R-- .... ....
....|..|E-1 2F.A ....|--- .... ....|D#4 2F.A ....
....|..|R-- .... ....|--- .... ....|R-- .... ....
....|..|R-- .... ....|--- .... ....|E-4 2F.7 ....
....|..|--- .... ....|--- .... ....|--- .... ....
 C#3|..|C#1 2A.F ....|--- .... ....|C#4 2F.A ....
....|..|--- .... ....|--- .... ....|--- .... ....
....|..|E-1 2F.7 ....|--- .... ....|E-4 2F.F ....
....|..|R-- .... ....|--- .... ....|R-- .... ....
....|..|R-- .... ....|--- .... ....|--- .... ....
....|..|--- .... ....|--- .... ....|--- .... ....
 C#3|..|C#1 2A.F ....|--- .... ....|E-4 2F.F ....
....|..|--- .... ....|--- .... ....|--- .... ....
....|..|R-- .... ....|--- .... ....|E-4 2F.A ....
....|..|--- .... ....|--- .... ....|R-- .... ....
....|..|R-- .... ....|--- .... ....|F#4 2F.F ....
....|..|--- .... ....|--- .... ....|--- .... ....
....|..|C#1 2F.7 ....|--- .... ....|E-4 2F.A ....
....|..|--- .... ....|--- .... ....|--- .... ....
 C#3|..|C#1 2A.F ....|--- .... ....|G#4 2F.F ....
....|..|--- .... ....|--- .... ....|R-- .... ....
....|..|R-- .... ....|--- .... ....|F#4 2F.A ....
....|..|R-- .... ....|--- .... ....|--- .... ....
....|..|C#1 2F.7 ....|--- .... ....|F#4 2F.F ....
....|..|--- .... ....|--- .... ....|--- .... ....
....|..|C#1 2F.A ....|--- .... ....|G#4 2F.A ....
....|..|--- .... ....|--- .... ....|--- .... ....
 C#3|..|C#1 2A.F ....|--- .... ....|E-4 2F.F ....
....|..|R-- .... ....|--- .... ....|--- .... ....
....|..|--- .... ....|--- .... ....|F#4 2F.A ....
....|..|--- .... ....|--- .... ....|R-- .... ....
 A-2|..|A-1 2A.F ....|R-- .... ....|R-- .... ....
....|..|--- .... ....|--- .... ....|--- .... ....
....|..|C#1 2F.A ....|--- .... ....|E-4 2F.A ....
....|..|R-- .... ....|--- .... ....|--- .... ....
....|..|R-- .... ....|--- .... ....|F#4 2F.7 ....
....|..|--- .... ....|--- .... ....|R-- .... ....
 A-2|..|A-1 2A.F ....|R-- .... ....|R-- .... ....
....|..|--- .... ....|--- .... ....|--- .... ....
....|..|C#1 2F.7 ....|A-4 2F4F ....|F#4 2F.F ....
....|..|R-- .... ....|--- .... ....|--- .... ....
....|..|R-- .... ....|--- .... ....|--- .... ....
....|..|--- .... ....|--- .... ....|R-- .... ....
 A-2|..|A-1 2A.F ....|R-- .... ....|R-- .... ....
....|..|--- .... ....|A-4 2F.F ....|--- .... ....
....|..|R-- .... ....|A-4 2F4A ....|F#4 2F.A ....
....|..|--- .... ....|--- .... ....|--- .... ....
....|..|R-- .... ....|A-4 2F7F ....|E-4 2F.F ....
....|..|--- .... ....|--- .... ....|--- .... ....
....|..|A-1 2F.7 ....|--- .... ....|--- .... ....
....|..|--- .... ....|A-4 2F.A ....|--- .... ....
 A-2|..|A-1 2A.F ....|A-4 2F47 ....|F#4 2F.7 ....
....|..|--- .... ....|A-4 2F.F ....|--- .... ....
....|..|R-- .... ....|A-4 2F7A ....|E-4 2F.A ....
....|..|R-- .... ....|--- .... ....|--- .... ....
....|..|A-1 2F.7 ....|--- .... ....|--- .... ....
....|..|--- .... ....|A-4 2F.7 ....|--- .... ....
....|..|A-1 2F.A ....|R-- .... ....|R-- .... ....
....|..|--- .... ....|A-4 2F.A ....|--- .... ....
 A-2|..|A-1 2A.F ....|A-4 2F77 ....|A-4 2F.F ....
....|..|R-- .... ....|--- .... ....|--- .... ....
....|..|--- .... ....|--- .... ....|R-- .... ....
....|..|--- .... ....|--- .... ....|--- .... ....

[Pattern23]
 F#3|..|F#1 2A.F ....|G#3 2F.F ....|R-- .... ....
....|..|--- .... ....|A-4 2F.7 ....|--- .... ....
....|..|A-1 2F.A ....|A-3 2F.F ....|A-4 2F.A ....
....|..|R-- .... ....|--- .... ....|--- .... ....
....|..|R-- .... ....|A#3 2F.F ....|A-4 2F.F ....
....|..|--- .... ....|R-- .... ....|--- .... ....
 F#3|..|F#1 2A.F ....|B-3 2F.F ....|R-- .... ....
....|..|--- .... ....|--- .... ....|--- .... ....
....|..|A-1 2F.7 ....|C-4 2F.F ....|G#4 2F.F ....
....|..|R-- .... ....|--- .... ....|--- .... ....
....|..|R-- .... ....|C#4 2F.F ....|A-4 2F.A ....
....|..|--- .... ....|R-- .... ....|R-- .... ....
 F#3|..|F#1 2A.F ....|D-4 2F.F ....|E-4 2F.F ....
....|..|--- .... ....|--- .... ....|--- .... ....
....|..|R-- .... ....|D#4 2F.F ....|G#4 2F.A ....
....|..|--- .... ....|--- .... ....|--- .... ....
 B-2|..|B-1 2A.F ....|A#3 2F.7 ....|F#4 2F.F ....
....|..|--- .... ....|E-4 2F.F ....|R-- .... ....
....|..|F#1 2F.7 ....|B-3 2F.7 ....|E-4 2F.A ....
....|..|--- .... ....|F-4 2F.F ....|R-- .... ....
 B-3|..|B-1 2A.F ....|F#4 2F.F ....|E-4 2F.F ....
....|..|R-- .... ....|--- .... ....|--- .... ....
 B-2|..|B-1 2A.F ....|G-4 2F.F ....|F#4 2F.A ....
....|..|R-- .... ....|E-4 2F.A ....|R-- .... ....
 B-3|..|B-1 2A.F ....|G#4 2F.F ....|F#4 2F.F ....
....|..|R-- .... ....|F-4 2F.A ....|R-- .... ....
 B-3|..|B-1 2A.F ....|A-4 2F.F ....|E-4 2F.A ....
....|..|R-- .... ....|--- .... ....|R-- .... ....
 B-2|..|B-1 2A.F ....|A#4 2F.F ....|E-4 2F.F ....
....|..|R-- .... ....|E-4 2F.7 ....|R-- .... ....
 B-3|..|B-1 2A.F ....|B-4 2F.F ....|F#4 2F.A ....
....|..|R-- .... ....|F-4 2F.7 ....|R-- .... ....
 B-3|..|B-1 2A.F ....|E-6 UFFF ....|E-4 2F.7 ....
....|..|R-- .... ....|--- .... ....|R-- .... ....
....|..|B-1 2F.7 ....|G-4 2F.7 ....|E-4 2F.A ....
....|..|R-- .... ....|R-- .... ....|R-- .... ....
 B-3|..|B-1 2A.F ....|B-6 UFFF ....|F#4 2F.7 ....
....|..|R-- .... ....|R-- .... ....|R-- .... ....
....|..|B-1 2F.7 ....|E-6 UFFA ....|--- .... ....
....|..|R-- .... ....|--- .... ....|R-- .... ....
....|..|B-1 2F.7 ....|E-6 UFFF ....|E-4 2F.7 ....
....|..|R-- .... ....|R-- .... ....|--- .... ....
....|..|B-1 2F.7 ....|B-6 UFFA ....|--- .... ....
....|..|R-- .... ....|R-- .... ....|R-- .... ....
 B-3|..|B-1 2A.F ....|B-6 UFFF ....|--- .... ....
....|..|R-- .... ....|R-- .... ....|--- .... ....
....|..|--- .... ....|E-6 UFFA ....|--- .... ....
....|..|--- .... ....|--- .... ....|--- .... ....
 B-3|..|B-1 2A.F ....|E-6 UFFF ....|--- .... ....
....|..|R-- .... ....|R-- .... ....|--- .... ....
....|..|B-1 2F.A ....|B-6 UFFA ....|--- .... ....
....|..|R-- .... ....|R-- .... ....|--- .... ....
....|..|--- .... ....|B-6 UFFF ....|--- .... ....
....|..|--- .... ....|R-- .... ....|--- .... ....
....|..|B-1 2F.A ....|E-6 UFFA ....|--- .... ....
....|..|R-- .... ....|--- .... ....|--- .... ....
 B-3|..|B-1 2A.F ....|E-6 UFFF ....|--- .... ....
....|..|R-- .... ....|R-- .... ....|--- .... ....
....|..|--- .... ....|E-5 UFFF ....|--- .... ....
....|..|--- .... ....|R-- .... ....|--- .... ....
 B-3|..|B-1 2A.F ....|C-7 UFFF ....|--- .... ....
....|..|R-- .... ....|R-- .... ....|--- .... ....
....|..|B-1 2F.A ....|E-6 UFFA ....|--- .... ....
....|..|R-- .... ....|--- .... ....|--- .... ....

[Pattern24]
....|..|--- .... ....|E-6 UFFF ....|--- .... ....
....|..|--- .... ....|R-- .... ....|--- .... ....
....|..|B-1 2F.A ....|C-7 UFFA ....|--- .... ....
....|..|R-- .... ....|R-- .... ....|--- .... ....
 B-3|..|B-1 2A.F ....|C-7 UFFF ....|--- .... ....
....|..|R-- .... ....|R-- .... ....|--- .... ....
....|..|--- .... ....|E-5 2F.A ....|--- .... ....
....|..|--- .... ....|R-- .... ....|--- .... ....
 B-3|..|B-1 2A.F ....|E-6 UFFF ....|--- .... ....
....|..|R-- .... ....|R-- .... ....|--- .... ....
....|..|B-1 2F.A ....|C-7 UFFA ....|--- .... ....
....|..|R-- .... ....|R-- .... ....|--- .... ....
....|..|--- .... ....|C-7 UFFF ....|--- .... ....
....|..|--- .... ....|R-- .... ....|--- .... ....
....|..|B-1 2F.A ....|E-6 UFFA ....|--- .... ....
....|..|R-- .... ....|--- .... ....|--- .... ....
 B-3|..|B-1 2A.F ....|E-6 UFFF ....|--- .... ....
....|..|R-- .... ....|R-- .... ....|--- .... ....
....|..|--- .... ....|C-7 UFFA ....|--- .... ....
....|..|--- .... ....|R-- .... ....|--- .... ....
....|..|B-1 2F.7 ....|C-7 UFFF ....|--- .... ....
....|..|R-- .... ....|R-- .... ....|--- .... ....
....|..|B-1 2F.A ....|E-6 UFFA ....|--- .... ....
....|..|R-- .... ....|R-- .... ....|--- .... ....
 B-3|..|B-1 2A.F ....|E-6 UFFF ....|--- .... ....
....|..|R-- .... ....|R-- .... ....|--- .... ....
....|..|--- .... ....|C-7 UFFA ....|--- .... ....
....|..|--- .... ....|R-- .... ....|--- .... ....
 B-3|..|B-1 2A.F ....|B-6 UFFF ....|--- .... ....
....|..|R-- .... ....|R-- .... ....|--- .... ....
....|..|B-1 2F.A ....|E-6 UFFA ....|--- .... ....
....|..|R-- .... ....|R-- .... ....|--- .... ....
 B-3|..|B-1 2A.F ....|E-6 UFFF ....|--- .... ....
....|..|R-- .... ....|R-- .... ....|--- .... ....
 B-3|..|B-1 2A.F ....|B-6 UFFA ....|--- .... ....
....|..|R-- .... ....|R-- .... ....|--- .... ....
 B-3|..|B-1 2A.F ....|B-6 UFFF ....|--- .... ....
....|..|R-- .... ....|R-- .... ....|--- .... ....
 B-3|..|B-1 2A.F ....|E-6 UFFA ....|--- .... ....
....|..|R-- .... ....|R-- .... ....|--- .... ....
 B-3|..|B-1 2A.F ....|E-6 UFFF ....|--- .... ....
....|..|R-- .... ....|R-- .... ....|--- .... ....
 B-3|..|B-1 2A.F ....|B-6 UFFA ....|--- .... ....
....|..|R-- .... ....|R-- .... ....|--- .... ....
 B-3|..|B-1 2A.F ....|B-6 UFFF ....|--- .... ....
....|..|R-- .... ....|R-- .... ....|--- .... ....
 B-3|..|B-1 2A.F ....|E-6 UFFA ....|--- .... ....
....|..|R-- .... ....|--- .... ....|--- .... ....
 B-3|..|B-1 2A.F ....|E-6 UFFF ....|--- .... ....
....|..|R-- .... ....|R-- .... ....|--- .... ....
 B-3|..|B-1 2A.F ....|B-6 UFFA ....|--- .... ....
....|..|R-- .... ....|R-- .... ....|--- .... ....
 B-3|..|B-1 2A.F ....|B-6 UFFF ....|--- .... ....
....|..|R-- .... ....|R-- .... ....|--- .... ....
 B-3|..|B-1 2A.F ....|E-6 UFFA ....|--- .... ....
....|..|R-- .... ....|--- .... ....|--- .... ....
 B-3|..|B-1 2A.F ....|E-6 UFFF ....|--- .... ....
....|..|R-- .... ....|R-- .... ....|--- .... ....
 B-3|..|B-1 2A.F ....|E-5 UFFF ....|--- .... ....
....|..|R-- .... ....|R-- .... ....|--- .... ....
 B-3|..|B-1 2A.F ....|C-7 UFFF ....|--- .... ....
....|..|R-- .... ....|R-- .... ....|--- .... ....
 B-3|..|B-1 2A.F ....|E-6 UFFA ....|--- .... ....
....|..|R-- .... ....|--- .... ....|--- .... ....

[Pattern25]
 B-3|..|B-1 2A.F ....|E-6 UFFF ....|--- .... ....
....|..|R-- .... ....|R-- .... ....|--- .... ....
 B-3|..|B-1 2A.F ....|C-7 UFFA ....|--- .... ....
....|..|R-- .... ....|R-- .... ....|--- .... ....
 B-3|..|B-1 2A.F ....|C-7 UFFF ....|--- .... ....
....|..|R-- .... ....|R-- .... ....|--- .... ....
 B-3|..|B-1 2A.F ....|E-5 2F.A ....|--- .... ....
....|..|R-- .... ....|R-- .... ....|--- .... ....
 B-3|..|B-1 2A.F ....|E-6 UFFF ....|--- .... ....
....|..|R-- .... ....|R-- .... ....|--- .... ....
 B-3|..|B-1 2A.F ....|C-7 UFFA ....|--- .... ....
....|..|R-- .... ....|R-- .... ....|--- .... ....
 B-3|..|B-1 2A.F ....|C-7 UFFF ....|--- .... ....
....|..|R-- .... ....|R-- .... ....|--- .... ....
 B-3|..|B-1 2A.F ....|E-6 UFFA ....|--- .... ....
....|..|R-- .... ....|--- .... ....|--- .... ....
 B-3|..|B-1 2A.F ....|E-6 UFFF ....|--- .... ....
....|..|R-- .... ....|R-- .... ....|--- .... ....
 B-3|..|B-1 2A.F ....|C-7 UFFA ....|--- .... ....
....|..|R-- .... ....|R-- .... ....|--- .... ....
 B-3|..|B-1 2A.F ....|C-7 UFFF ....|--- .... ....
....|..|R-- .... ....|R-- .... ....|--- .... ....
 B-3|..|B-1 2A.F ....|E-6 UFFA ....|--- .... ....
....|..|R-- .... ....|R-- .... ....|--- .... ....
 B-3|..|B-1 2A.F ....|E-6 UFFF ....|--- .... ....
....|..|R-- .... ....|R-- .... ....|--- .... ....
 B-3|..|B-1 2A.F ....|C-7 UFFA ....|--- .... ....
....|..|R-- .... ....|R-- .... ....|--- .... ....
 B-3|..|B-1 2A.F ....|B-6 UFFF ....|--- .... ....
....|..|R-- .... ....|R-- .... ....|--- .... ....
 B-3|..|B-1 2A.F ....|E-6 UFFA ....|--- .... ....
....|..|R-- .... ....|R-- .... ....|--- .... ....
 E-3|..|E-1 2A.F ....|C-7 UFF7 ....|B-3 2F.F ....
....|..|R-- .... ....|R-- .... ....|--- .... ....
 B-3|..|B-1 2A.F ....|B-6 UFFA ....|--- .... ....
....|..|R-- .... ....|R-- .... ....|--- .... ....
....|..|B-1 2F.7 ....|E-6 UFF7 ....|--- .... ....
....|..|R-- .... ....|--- .... ....|--- .... ....
 E-3|..|E-1 2A.F ....|R-- .... ....|B-3 2F.A ....
....|..|R-- .... ....|R-- .... ....|R-- .... ....
 B-3|..|B-1 2A.F ....|B-6 UFF7 ....|E-4 2F.F ....
....|..|R-- .... ....|R-- .... ....|--- .... ....
....|..|B-1 2F.7 ....|R-- .... ....|--- .... ....
....|..|R-- .... ....|--- .... ....|--- .... ....
 E-3|..|E-1 2A.F ....|--- .... ....|B-3 2F.7 ....
....|..|R-- .... ....|--- .... ....|R-- .... ....
 B-3|..|B-1 2A.F ....|--- .... ....|E-4 2F.A ....
....|..|R-- .... ....|--- .... ....|--- .... ....
 B-3|..|B-1 2A.F ....|--- .... ....|D#4 2F.F ....
....|..|R-- .... ....|--- .... ....|--- .... ....
 B-3|..|B-1 2A.F ....|--- .... ....|--- .... ....
....|..|R-- .... ....|--- .... ....|R-- .... ....
 E-3|..|E-1 2A.F ....|--- .... ....|E-4 2F.F ....
....|..|R-- .... ....|--- .... ....|--- .... ....
 B-3|..|B-1 2A.F ....|--- .... ....|D#4 2F.A ....
....|..|R-- .... ....|--- .... ....|--- .... ....
 B-3|..|B-1 2A.F ....|--- .... ....|R-- .... ....
....|..|R-- .... ....|--- .... ....|F#4 2F.F ....
....|..|E-1 2F.A ....|--- .... ....|E-4 2F.A ....
....|..|R-- .... ....|--- .... ....|--- .... ....
 E-3|..|E-1 2A.F ....|--- .... ....|D#4 2F.7 ....
....|..|R-- .... ....|--- .... ....|G#4 2F.F ....
....|..|B-1 2F.7 ....|--- .... ....|R-- .... ....
....|..|R-- .... ....|--- .... ....|F#4 2F.A ....

[Pattern26]
 E-3|..|E-1 2A.F ....|--- .... ....|E-4 2F.7 ....
....|..|R-- .... ....|--- .... ....|--- .... ....
 B-3|..|B-1 2A.F ....|--- .... ....|--- .... ....
....|..|R-- .... ....|--- .... ....|G#4 2F.A ....
....|..|B-1 2F.7 ....|--- .... ....|R-- .... ....
....|..|R-- .... ....|--- .... ....|F#4 2F.7 ....
 E-3|..|E-1 2A.F ....|--- .... ....|R-- .... ....
....|..|R-- .... ....|--- .... ....|--- .... ....
 B-3|..|B-1 2A.F ....|--- .... ....|--- .... ....
....|..|R-- .... ....|--- .... ....|E-4 2F.F ....
....|..|R-- .... ....|--- .... ....|R-- .... ....
....|..|--- .... ....|--- .... ....|--- .... ....
 E-3|..|E-1 2A.F ....|--- .... ....|R-- .... ....
....|..|R-- .... ....|--- .... ....|E-4 2F.F ....
 B-3|..|B-1 2A.F ....|--- .... ....|--- .... ....
....|..|R-- .... ....|--- .... ....|E-4 2F.A ....
 B-3|..|B-1 2A.F ....|--- .... ....|E-4 2F.F ....
....|..|R-- .... ....|--- .... ....|D#4 2F.F ....
 B-3|..|B-1 2A.F ....|--- .... ....|R-- .... ....
....|..|R-- .... ....|--- .... ....|E-4 2F.A ....
 E-3|..|E-1 2A.F ....|--- .... ....|E-4 2F.F ....
....|..|R-- .... ....|--- .... ....|E-4 2F.7 ....
 B-3|..|B-1 2A.F ....|--- .... ....|E-4 2F.A ....
....|..|R-- .... ....|--- .... ....|D#4 2F.A ....
 B-3|..|B-1 2A.F ....|--- .... ....|E-4 2F.F ....
....|..|R-- .... ....|--- .... ....|E-4 2F.7 ....
....|..|E-1 2F.A ....|--- .... ....|E-4 2F.A ....
....|..|R-- .... ....|--- .... ....|--- .... ....
 E-3|..|E-1 2A.F ....|--- .... ....|D#4 2F.F ....
....|..|R-- .... ....|--- .... ....|D#4 2F.7 ....
....|..|B-1 2F.7 ....|--- .... ....|E-4 2F.A ....
....|..|R-- .... ....|--- .... ....|R-- .... ....
 A-2|..|A-1 2A.F ....|--- .... ....|E-4 2F.7 ....
....|..|R-- .... ....|--- .... ....|--- .... ....
 B-3|..|B-1 2A.F ....|--- .... ....|D#4 2F.A ....
....|..|R-- .... ....|--- .... ....|--- .... ....
....|..|B-1 2F.7 ....|--- .... ....|E-4 2F.7 ....
....|..|R-- .... ....|--- .... ....|R-- .... ....
 A-2|..|A-1 2A.F ....|--- .... ....|--- .... ....
....|..|R-- .... ....|--- .... ....|--- .... ....
 B-3|..|B-1 2A.F ....|B-4 2F4F ....|D#4 2F.7 ....
....|..|R-- .... ....|E-5 2F.F ....|--- .... ....
....|..|R-- .... ....|R-- .... ....|R-- .... ....
....|..|--- .... ....|--- .... ....|--- .... ....
 A-2|..|A-1 2A.F ....|B-4 2F4F ....|--- .... ....
....|..|R-- .... ....|E-5 2F.F ....|--- .... ....
 B-3|..|B-1 2A.F ....|B-4 2F4A ....|--- .... ....
....|..|R-- .... ....|E-5 2F.A ....|--- .... ....
 B-3|..|B-1 2A.F ....|B-4 2F5F ....|R-- .... ....
....|..|R-- .... ....|--- .... ....|--- .... ....
 B-3|..|B-1 2A.F ....|B-4 2F4A ....|--- .... ....
....|..|R-- .... ....|E-5 2F.A ....|--- .... ....
 A-2|..|A-1 2A.F ....|B-4 2F4F ....|--- .... ....
....|..|R-- .... ....|E-5 2F.F ....|--- .... ....
....|..|B-1 2F.A ....|B-4 2F5A ....|R-- .... ....
....|..|R-- .... ....|--- .... ....|--- .... ....
 B-3|..|B-1 2A.F ....|B-4 2F4F ....|--- .... ....
....|..|R-- .... ....|E-5 2F.7 ....|--- .... ....
....|..|A-1 2F.A ....|B-4 2F4A ....|--- .... ....
....|..|R-- .... ....|E-5 2F.A ....|--- .... ....
 A-2|..|A-1 2A.F ....|B-4 2F4F ....|--- .... ....
....|..|R-- .... ....|--- .... ....|--- .... ....
....|..|B-1 2F.7 ....|B-4 2F4A ....|--- .... ....
....|..|R-- .... ....|R-- .... ....|--- .... ....

[Pattern27]
 A-2|..|A-1 2A.F ....|B-4 2F47 ....|--- .... ....
....|..|R-- .... ....|E-5 2F.7 ....|--- .... ....
 B-3|..|B-1 2A.F ....|B-4 2F4A ....|--- .... ....
....|..|R-- .... ....|--- .... ....|--- .... ....
....|..|B-1 2F.7 ....|B-4 2F47 ....|--- .... ....
....|..|R-- .... ....|R-- .... ....|--- .... ....
 A-2|..|A-1 2A.F ....|--- .... ....|--- .... ....
....|..|R-- .... ....|R-- .... ....|--- .... ....
 B-3|..|B-1 2A.F ....|A-5 2F.F ....|--- .... ....
....|..|R-- .... ....|--- .... ....|--- .... ....
....|..|R-- .... ....|R-- .... ....|--- .... ....
....|..|--- .... ....|--- .... ....|--- .... ....
 A-2|..|A-1 2A.F ....|A-5 2F.F ....|--- .... ....
....|..|R-- .... ....|A-5 2F.F ....|--- .... ....
 B-3|..|B-1 2A.F ....|A-5 2F.A ....|--- .... ....
....|..|R-- .... ....|--- .... ....|--- .... ....
 B-3|..|B-1 2A.F ....|G#5 2F.F ....|--- .... ....
....|..|R-- .... ....|--- .... ....|--- .... ....
 B-3|..|B-1 2A.F ....|A-5 2F.A ....|--- .... ....
....|..|R-- .... ....|A-5 2F.A ....|--- .... ....
 A-2|..|A-1 2A.F ....|B-4 2F4F ....|--- .... ....
....|..|R-- .... ....|E-5 2F.F ....|--- .... ....
....|..|B-1 2F.A ....|G#5 2F.A ....|--- .... ....
....|..|R-- .... ....|--- .... ....|--- .... ....
 B-3|..|B-1 2A.F ....|B-4 2F4F ....|--- .... ....
....|..|R-- .... ....|E-5 2F.F ....|--- .... ....
....|..|A-1 2F.A ....|B-4 2F4A ....|--- .... ....
....|..|R-- .... ....|E-5 2F.A ....|--- .... ....
 A-2|..|A-1 2A.F ....|B-4 2F4F ....|--- .... ....
....|..|R-- .... ....|--- .... ....|--- .... ....
....|..|B-1 2F.7 ....|B-4 2F4A ....|--- .... ....
....|..|R-- .... ....|E-5 2F.A ....|--- .... ....
 E-3|..|E-1 2A.F ....|B-4 2F47 ....|B-3 2F.F ....
....|..|R-- .... ....|E-5 2F.7 ....|--- .... ....
 B-3|..|B-1 2A.F ....|B-4 2F4A ....|--- .... ....
....|..|R-- .... ....|--- .... ....|--- .... ....
....|..|B-1 2F.7 ....|B-4 2F47 ....|--- .... ....
....|..|R-- .... ....|E-5 2F.7 ....|--- .... ....
 E-3|..|E-1 2A.F ....|R-- .... ....|B-3 2F.A ....
....|..|R-- .... ....|R-- .... ....|--- .... ....
 B-3|..|B-1 2A.F ....|B-4 2F47 ....|E-4 2F.F ....
....|..|R-- .... ....|--- .... ....|--- .... ....
....|..|R-- .... ....|--- .... ....|--- .... ....
....|..|--- .... ....|--- .... ....|--- .... ....
 E-3|..|E-1 2A.F ....|--- .... ....|B-3 2F.7 ....
....|..|R-- .... ....|R-- .... ....|--- .... ....
....|..|B-1 2F.7 ....|--- .... ....|E-4 2F.A ....
....|..|R-- .... ....|--- .... ....|--- .... ....
 B-3|..|B-1 2A.F ....|--- .... ....|D#4 2F.F ....
....|..|R-- .... ....|--- .... ....|--- .... ....
 B-3|..|B-1 2A.F ....|--- .... ....|--- .... ....
....|..|R-- .... ....|--- .... ....|--- .... ....
 E-3|..|E-1 2A.F ....|--- .... ....|E-4 2F.F ....
....|..|R-- .... ....|--- .... ....|--- .... ....
 B-3|..|B-1 2A.F ....|--- .... ....|D#4 2F.A ....
....|..|R-- .... ....|--- .... ....|--- .... ....
 B-3|..|B-1 2A.F ....|--- .... ....|F#4 2F.F ....
....|..|R-- .... ....|--- .... ....|--- .... ....
....|..|E-1 2F.A ....|--- .... ....|E-4 2F.A ....
....|..|--- .... ....|--- .... ....|--- .... ....
 E-3|..|E-1 2A.F ....|--- .... ....|G#4 2F.F ....
....|..|R-- .... ....|--- .... ....|--- .... ....
....|..|B-1 2F.7 ....|--- .... ....|F#4 2F.A ....
....|..|R-- .... ....|--- .... ....|--- .... ....

[Pattern28]
 E-3|..|E-1 2A.F ....|--- .... ....|E-4 2F.7 ....
....|..|R-- .... ....|--- .... ....|--- .... ....
 B-3|..|B-1 2A.F ....|--- .... ....|G#4 2F.A ....
....|..|R-- .... ....|--- .... ....|--- .... ....
 B-3|..|B-1 2A.F ....|--- .... ....|F#4 2F.7 ....
....|..|R-- .... ....|--- .... ....|--- .... ....
 E-3|..|E-1 2A.F ....|--- .... ....|R-- .... ....
....|..|R-- .... ....|--- .... ....|--- .... ....
 B-3|..|B-1 2A.F ....|--- .... ....|G#4 2F.7 ....
....|..|R-- .... ....|--- .... ....|E-4 2F.F ....
....|..|B-1 2F.A ....|--- .... ....|R-- .... ....
....|..|R-- .... ....|--- .... ....|--- .... ....
 E-3|..|E-1 2A.F ....|--- .... ....|E-4 2F.F ....
....|..|R-- .... ....|--- .... ....|--- .... ....
 B-3|..|B-1 2A.F ....|--- .... ....|--- .... ....
....|..|R-- .... ....|--- .... ....|E-4 2F.A ....
 B-3|..|B-1 2A.F ....|--- .... ....|E-4 2F.F ....
....|..|R-- .... ....|--- .... ....|D#4 2F.F ....
 B-3|..|B-1 2A.F ....|--- .... ....|E-4 2F.A ....
....|..|R-- .... ....|--- .... ....|--- .... ....
 E-3|..|E-1 2A.F ....|--- .... ....|E-4 2F.F ....
....|..|R-- .... ....|--- .... ....|E-4 2F.7 ....
 B-3|..|B-1 2A.F ....|--- .... ....|E-4 2F.A ....
....|..|R-- .... ....|--- .... ....|D#4 2F.A ....
 B-3|..|B-1 2A.F ....|--- .... ....|E-4 2F.F ....
....|..|R-- .... ....|--- .... ....|R-- .... ....
....|..|E-1 2F.A ....|--- .... ....|E-4 2F.A ....
....|..|R-- .... ....|--- .... ....|--- .... ....
 E-3|..|E-1 2A.F ....|--- .... ....|D#4 2F.F ....
....|..|R-- .... ....|--- .... ....|D#4 2F.7 ....
....|..|B-1 2F.7 ....|--- .... ....|E-4 2F.A ....
....|..|R-- .... ....|--- .... ....|R-- .... ....
 A-2|..|A-1 2A.F ....|--- .... ....|E-4 2F.7 ....
....|..|R-- .... ....|--- .... ....|--- .... ....
 B-3|..|B-1 2A.F ....|--- .... ....|D#4 2F.A ....
....|..|R-- .... ....|--- .... ....|--- .... ....
....|..|B-1 2F.7 ....|--- .... ....|E-4 2F.7 ....
....|..|R-- .... ....|--- .... ....|R-- .... ....
 A-2|..|A-1 2A.F ....|--- .... ....|--- .... ....
....|..|R-- .... ....|--- .... ....|--- .... ....
 B-3|..|B-1 2A.F ....|B-4 2F4F ....|D#4 2F.7 ....
....|..|R-- .... ....|E-5 2F.F ....|--- .... ....
....|..|R-- .... ....|R-- .... ....|R-- .... ....
....|..|--- .... ....|--- .... ....|--- .... ....
 A-2|..|A-1 2A.F ....|B-4 2F4F ....|--- .... ....
....|..|R-- .... ....|E-5 2F.F ....|--- .... ....
 B-3|..|B-1 2A.F ....|B-4 2F4A ....|--- .... ....
....|..|R-- .... ....|E-5 2F.A ....|--- .... ....
 B-3|..|B-1 2A.F ....|B-4 2F5F ....|R-- .... ....
....|..|R-- .... ....|--- .... ....|--- .... ....
 B-3|..|B-1 2A.F ....|B-4 2F4A ....|--- .... ....
....|..|R-- .... ....|E-5 2F.A ....|--- .... ....
 A-2|..|A-1 2A.F ....|B-4 2F4F ....|--- .... ....
....|..|R-- .... ....|E-5 2F.F ....|--- .... ....
....|..|B-1 2F.A ....|B-4 2F5A ....|R-- .... ....
....|..|R-- .... ....|--- .... ....|--- .... ....
 B-3|..|B-1 2A.F ....|B-4 2F4F ....|--- .... ....
....|..|R-- .... ....|E-5 2F.7 ....|--- .... ....
....|..|A-1 2F.A ....|B-4 2F4A ....|--- .... ....
....|..|R-- .... ....|E-5 2F.A ....|--- .... ....
 A-2|..|A-1 2A.F ....|B-4 2F4F ....|--- .... ....
....|..|R-- .... ....|--- .... ....|--- .... ....
 B-3|..|B-1 2A.F ....|B-4 2F4A ....|--- .... ....
....|..|R-- .... ....|R-- .... ....|--- .... ....

[Pattern29]
 A-2|..|A-1 2A.F ....|B-4 2F47 ....|--- .... ....
....|..|R-- .... ....|E-5 2F.7 ....|--- .... ....
 B-3|..|B-1 2A.F ....|B-4 2F4A ....|--- .... ....
....|..|R-- .... ....|--- .... ....|--- .... ....
 B-3|..|B-1 2A.F ....|B-4 2F47 ....|--- .... ....
....|..|R-- .... ....|R-- .... ....|--- .... ....
 A-2|..|A-1 2A.F ....|--- .... ....|--- .... ....
....|..|R-- .... ....|R-- .... ....|--- .... ....
 B-3|..|B-1 2A.F ....|A-5 2F.F ....|--- .... ....
....|..|R-- .... ....|--- .... ....|--- .... ....
 B-3|..|B-1 2A.F ....|R-- .... ....|--- .... ....
....|..|R-- .... ....|--- .... ....|--- .... ....
 A-2|..|A-1 2A.F ....|A-5 2F.F ....|--- .... ....
....|..|R-- .... ....|A-5 2F.F ....|--- .... ....
 B-3|..|B-1 2A.F ....|A-5 2F.A ....|--- .... ....
....|..|R-- .... ....|--- .... ....|--- .... ....
 B-3|..|B-1 2A.F ....|G#5 2F.F ....|--- .... ....
....|..|R-- .... ....|--- .... ....|--- .... ....
 B-3|..|B-1 2A.F ....|A-5 2F.A ....|--- .... ....
....|..|R-- .... ....|A-5 2F.A ....|--- .... ....
 A-2|..|A-1 2A.F ....|B-4 2F4F ....|--- .... ....
....|..|R-- .... ....|E-5 2F.F ....|--- .... ....
 B-3|..|B-1 2A.F ....|G#5 2F.A ....|--- .... ....
....|..|R-- .... ....|--- .... ....|--- .... ....
 B-3|..|B-1 2A.F ....|B-4 2F4F ....|--- .... ....
....|..|R-- .... ....|E-5 2F.F ....|--- .... ....
 B-3|..|B-1 2A.F ....|B-4 2F4A ....|--- .... ....
....|..|R-- .... ....|E-5 2F.A ....|--- .... ....
 A-2|..|A-1 2A.F ....|B-4 2F4F ....|--- .... ....
....|..|R-- .... ....|--- .... ....|--- .... ....
 B-3|..|B-1 2A.F ....|B-4 2F4A ....|--- .... ....
....|..|R-- .... ....|E-5 2F.A ....|--- .... ....
 E-3|..|E-1 2A.F ....|E-6 UFFF ....|B-3 2F.F ....
....|..|R-- .... ....|B-4 2F4F ....|--- .... ....
....|..|A-1 2F.A ....|B-4 2F4A ....|--- .... ....
....|..|R-- .... ....|--- .... ....|--- .... ....
....|..|B-1 2F.7 ....|B-6 UFFF ....|C#4 2F.F ....
....|..|R-- .... ....|E-5 2F.7 ....|--- .... ....
 E-3|..|E-1 2A.F ....|E-6 UFFA ....|B-3 2F.A ....
....|..|R-- .... ....|B-4 2F4A ....|--- .... ....
....|..|A-1 2F.7 ....|E-6 UFFF ....|E-4 2F.F ....
....|..|R-- .... ....|--- .... ....|--- .... ....
....|..|B-1 2F.7 ....|B-6 UFFA ....|C#4 2F.A ....
....|..|R-- .... ....|R-- .... ....|--- .... ....
 E-3|..|E-1 2A.F ....|B-6 UFFF ....|G#4 2F.F ....
....|..|R-- .... ....|B-4 2F47 ....|G#4 2F.F ....
....|..|R-- .... ....|E-6 UFFA ....|E-4 2F.A ....
....|..|--- .... ....|--- .... ....|--- .... ....
....|..|R-- .... ....|E-6 UFFF ....|C#4 2F.7 ....
....|..|R-- .... ....|R-- .... ....|--- .... ....
....|..|E-1 2F.7 ....|B-6 UFFA ....|G#4 2F.A ....
....|..|--- .... ....|R-- .... ....|G#4 2F.A ....
 E-3|..|E-1 2A.F ....|B-6 UFFF ....|E-4 2F.7 ....
....|..|--- .... ....|R-- .... ....|--- .... ....
....|..|--- .... ....|E-6 UFFA ....|--- .... ....
....|..|R-- .... ....|--- .... ....|--- .... ....
....|..|E-1 2F.7 ....|E-6 UFFF ....|G#4 2F.7 ....
....|..|--- .... ....|R-- .... ....|G#4 2F.7 ....
....|..|E-1 2F.A ....|E-5 UFFF ....|--- .... ....
....|..|--- .... ....|B-4 2F4F ....|--- .... ....
 E-3|..|E-1 2A.F ....|C-7 UFFF ....|--- .... ....
....|..|R-- .... ....|--- .... ....|--- .... ....
....|..|--- .... ....|E-6 UFFA ....|--- .... ....
....|..|--- .... ....|B-4 2F4F ....|R-- .... ....

[Pattern30]
 E-3|..|E-1 2A.F ....|E-6 UFFF ....|--- .... ....
....|..|--- .... ....|B-4 2F4A ....|--- .... ....
....|..|E-1 2F.A ....|C-7 UFFA ....|--- .... ....
....|..|R-- .... ....|B-4 2F4F ....|--- .... ....
....|..|R-- .... ....|C-7 UFFF ....|--- .... ....
....|..|--- .... ....|B-4 2F4A ....|R-- .... ....
 E-3|..|E-1 2A.F ....|B-4 2F1A ....|--- .... ....
....|..|--- .... ....|B-4 2F4F ....|--- .... ....
....|..|E-1 2F.7 ....|E-6 UFFF ....|G#4 2F.F ....
....|..|R-- .... ....|B-4 2F4A ....|--- .... ....
....|..|R-- .... ....|C-7 UFFA ....|--- .... ....
....|..|--- .... ....|B-4 2F47 ....|R-- .... ....
 E-3|..|E-1 2A.F ....|C-7 UFFF ....|F#4 2F.F ....
....|..|--- .... ....|B-4 2F4A ....|--- .... ....
....|..|R-- .... ....|E-6 UFFA ....|G#4 2F.A ....
....|..|--- .... ....|B-4 2F47 ....|--- .... ....
....|..|R-- .... ....|E-6 UFFF ....|G#4 2F.F ....
....|..|R-- .... ....|R-- .... ....|--- .... ....
....|..|E-1 2F.7 ....|C-7 UFFA ....|F#4 2F.A ....
....|..|--- .... ....|B-4 2F47 ....|--- .... ....
 E-3|..|E-1 2A.F ....|C-7 UFFF ....|F#4 2F.F ....
....|..|--- .... ....|R-- .... ....|--- .... ....
....|..|--- .... ....|E-6 UFFA ....|G#4 2F.A ....
....|..|R-- .... ....|R-- .... ....|--- .... ....
....|..|E-1 2F.7 ....|E-6 UFFF ....|E-4 2F.F ....
....|..|--- .... ....|R-- .... ....|--- .... ....
....|..|E-1 2F.A ....|C-7 UFFA ....|F#4 2F.A ....
....|..|--- .... ....|R-- .... ....|--- .... ....
 E-3|..|E-1 2A.F ....|B-6 UFFF ....|G#4 2F.7 ....
....|..|R-- .... ....|--- .... ....|R-- .... ....
....|..|--- .... ....|E-6 UFFA ....|E-4 2F.A ....
....|..|--- .... ....|B-5 2F.F ....|--- .... ....
 E-3|..|E-1 2A.F ....|E-6 UFFF ....|B-3 2F.F ....
....|..|--- .... ....|R-- .... ....|--- .... ....
....|..|E-1 2F.A ....|B-6 UFFA ....|--- .... ....
....|..|R-- .... ....|--- .... ....|R-- .... ....
....|..|R-- .... ....|B-6 UFFF ....|C#4 2F.F ....
....|..|--- .... ....|B-5 2F.A ....|--- .... ....
 E-3|..|E-1 2A.F ....|E-6 UFFA ....|B-3 2F.A ....
....|..|--- .... ....|R-- .... ....|--- .... ....
....|..|E-1 2F.7 ....|E-6 UFFF ....|E-4 2F.F ....
....|..|R-- .... ....|--- .... ....|R-- .... ....
....|..|R-- .... ....|B-6 UFFA ....|C#4 2F.A ....
....|..|--- .... ....|B-5 2F.7 ....|--- .... ....
 E-3|..|E-1 2A.F ....|B-6 UFFF ....|G#4 2F.F ....
....|..|--- .... ....|R-- .... ....|G#4 2F.F ....
....|..|R-- .... ....|E-6 UFFA ....|E-4 2F.A ....
....|..|--- .... ....|--- .... ....|--- .... ....
....|..|R-- .... ....|E-6 UFFF ....|C#4 2F.7 ....
....|..|R-- .... ....|R-- .... ....|--- .... ....
....|..|E-1 2F.7 ....|B-6 UFFA ....|G#4 2F.A ....
....|..|--- .... ....|R-- .... ....|G#4 2F.A ....
 E-3|..|E-1 2A.F ....|B-6 UFFF ....|E-4 2F.7 ....
....|..|--- .... ....|R-- .... ....|--- .... ....
....|..|--- .... ....|E-6 UFFA ....|--- .... ....
....|..|R-- .... ....|--- .... ....|--- .... ....
....|..|E-1 2F.7 ....|E-6 UFFF ....|G#4 2F.7 ....
....|..|--- .... ....|C-4 2F8F ....|G#4 2F.7 ....
....|..|E-1 2F.A ....|E-5 UFFF ....|--- .... ....
....|..|--- .... ....|C-4 2F7F ....|--- .... ....
 E-3|..|E-1 2A.F ....|C-7 UFFF ....|--- .... ....
....|..|R-- .... ....|--- .... ....|--- .... ....
....|..|--- .... ....|E-6 UFFA ....|--- .... ....
....|..|--- .... ....|C-4 2F7F ....|--- .... ....

[Pattern31]
 E-3|..|E-1 2A.F ....|E-6 UFFF ....|--- .... ....
....|..|--- .... ....|C-4 2F7A ....|--- .... ....
....|..|E-1 2F.A ....|C-7 UFFA ....|R-- .... ....
....|..|R-- .... ....|C-4 2F7F ....|--- .... ....
....|..|R-- .... ....|C-7 UFFF ....|--- .... ....
....|..|--- .... ....|C-4 2F87 ....|--- .... ....
 E-3|..|E-1 2A.F ....|C-4 2F8A ....|--- .... ....
....|..|--- .... ....|C-4 2F7F ....|--- .... ....
....|..|E-1 2F.7 ....|E-6 UFFF ....|G#4 2F.F ....
....|..|R-- .... ....|C-4 2F7A ....|--- .... ....
....|..|R-- .... ....|C-7 UFFA ....|--- .... ....
....|..|--- .... ....|C-4 2F77 ....|--- .... ....
 E-3|..|E-1 2A.F ....|C-7 UFFF ....|F#4 2F.F ....
....|..|--- .... ....|C-4 2F7A ....|--- .... ....
....|..|R-- .... ....|E-6 UFFA ....|G#4 2F.A ....
....|..|--- .... ....|C-4 2F77 ....|--- .... ....
....|..|R-- .... ....|E-6 UFFF ....|A-4 2F.F ....
....|..|R-- .... ....|R-- .... ....|--- .... ....
....|..|E-1 2F.7 ....|C-7 UFFA ....|F#4 2F.A ....
....|..|--- .... ....|C-4 2F77 ....|--- .... ....
 E-3|..|E-1 2A.F ....|C-7 UFFF ....|G#4 2F.F ....
....|..|--- .... ....|R-- .... ....|--- .... ....
....|..|--- .... ....|E-6 UFFA ....|A-4 2F.A ....
....|..|R-- .... ....|R-- .... ....|--- .... ....
....|..|E-1 2F.7 ....|E-6 UFFF ....|E-4 2F.F ....
....|..|--- .... ....|R-- .... ....|--- .... ....
....|..|E-1 2F.A ....|C-7 UFFA ....|G#4 2F.A ....
....|..|--- .... ....|R-- .... ....|--- .... ....
 E-3|..|E-1 2A.F ....|B-6 UFFF ....|F#4 2F.F ....
....|..|R-- .... ....|--- .... ....|--- .... ....
....|..|--- .... ....|E-6 UFFA ....|E-4 2F.A ....
....|..|--- .... ....|R-- .... ....|--- .... ....
 A-2|..|A-1 2A.F ....|A-3 2FAF ....|G#4 2F.7 ....
....|..|--- .... ....|R-- .... ....|--- .... ....
....|..|E-1 2F.A ....|B-6 UFFA ....|F#4 2F.A ....
....|..|R-- .... ....|--- .... ....|--- .... ....
....|..|R-- .... ....|A-3 2FAF ....|G#4 2F.F ....
....|..|--- .... ....|--- .... ....|--- .... ....
 A-2|..|A-1 2A.F ....|A-3 2FAA ....|R-- .... ....
....|..|--- .... ....|R-- .... ....|--- .... ....
....|..|E-1 2F.7 ....|B-6 UFF7 ....|F#4 2F.7 ....
....|..|R-- .... ....|--- .... ....|--- .... ....
....|..|R-- .... ....|A-3 2FAA ....|G#4 2F.A ....
....|..|--- .... ....|--- .... ....|--- .... ....
 A-2|..|A-1 2A.F ....|A-3 2FA7 ....|G#4 2F.F ....
....|..|--- .... ....|--- .... ....|--- .... ....
....|..|R-- .... ....|--- .... ....|--- .... ....
....|..|--- .... ....|--- .... ....|--- .... ....
....|..|R-- .... ....|A-3 2FA7 ....|F#4 2F.F ....
....|..|R-- .... ....|--- .... ....|--- .... ....
....|..|A-1 2F.7 ....|--- .... ....|G#4 2F.A ....
....|..|--- .... ....|--- .... ....|--- .... ....
 A-2|..|A-1 2A.F ....|--- .... ....|E-4 2F.F ....
....|..|--- .... ....|--- .... ....|--- .... ....
....|..|--- .... ....|--- .... ....|F#4 2F.A ....
....|..|R-- .... ....|--- .... ....|--- .... ....
....|..|A-1 2F.7 ....|--- .... ....|G#4 2F.7 ....
....|..|--- .... ....|--- .... ....|--- .... ....
....|..|A-1 2F.A ....|--- .... ....|E-4 2F.A ....
....|..|--- .... ....|--- .... ....|--- .... ....
 A-2|..|A-1 2A.F ....|--- .... ....|F#4 2F.7 ....
....|..|R-- .... ....|--- .... ....|R-- .... ....
....|..|--- .... ....|--- .... ....|--- .... ....
....|..|--- .... ....|--- .... ....|--- .... ....

[Pattern32]
 A-2|..|A-1 2A.F ....|--- .... ....|E-4 2F.7 ....
....|..|--- .... ....|--- .... ....|--- .... ....
....|..|A-1 2F.A ....|--- .... ....|--- .... ....
....|..|R-- .... ....|--- .... ....|R-- .... ....
....|..|R-- .... ....|--- .... ....|--- .... ....
....|..|--- .... ....|--- .... ....|--- .... ....
 A-2|..|A-1 2A.F ....|--- .... ....|--- .... ....
....|..|--- .... ....|--- .... ....|--- .... ....
....|..|A-1 2F.7 ....|--- .... ....|G#4 2F.F ....
....|..|R-- .... ....|--- .... ....|R-- .... ....
....|..|R-- .... ....|--- .... ....|--- .... ....
....|..|--- .... ....|--- .... ....|--- .... ....
 A-2|..|A-1 2A.F ....|--- .... ....|G#4 2F.F ....
....|..|--- .... ....|--- .... ....|R-- .... ....
....|..|R-- .... ....|--- .... ....|G#4 2F.A ....
....|..|--- .... ....|--- .... ....|R-- .... ....
....|..|R-- .... ....|--- .... ....|G#4 2F.F ....
....|..|R-- .... ....|--- .... ....|--- .... ....
....|..|A-1 2F.7 ....|--- .... ....|G#4 2F.A ....
....|..|--- .... ....|--- .... ....|R-- .... ....
 A-2|..|A-1 2A.F ....|--- .... ....|F#4 2F.F ....
....|..|--- .... ....|--- .... ....|R-- .... ....
....|..|--- .... ....|--- .... ....|G#4 2F.A ....
....|..|R-- .... ....|--- .... ....|--- .... ....
....|..|A-1 2F.7 ....|--- .... ....|E-4 2F.F ....
....|..|--- .... ....|--- .... ....|R-- .... ....
....|..|A-1 2F.A ....|--- .... ....|F#4 2F.A ....
....|..|--- .... ....|--- .... ....|--- .... ....
 A-2|..|A-1 2A.F ....|--- .... ....|F#4 2F.F ....
....|..|R-- .... ....|--- .... ....|--- .... ....
....|..|--- .... ....|--- .... ....|E-4 2F.A ....
....|..|--- .... ....|--- .... ....|--- .... ....
 B-2|..|B-1 2A.F ....|B-3 2FAF ....|F#4 2F.7 ....
....|..|--- .... ....|--- .... ....|--- .... ....
....|..|A-1 2F.A ....|--- .... ....|F#4 2F.A ....
....|..|R-- .... ....|--- .... ....|--- .... ....
....|..|R-- .... ....|--- .... ....|G#4 2F.F ....
....|..|--- .... ....|--- .... ....|--- .... ....
 B-2|..|B-1 2A.F ....|B-3 2FAA ....|--- .... ....
....|..|--- .... ....|--- .... ....|--- .... ....
....|..|A-1 2F.7 ....|--- .... ....|F#4 2F.7 ....
....|..|R-- .... ....|--- .... ....|--- .... ....
....|..|R-- .... ....|--- .... ....|G#4 2F.A ....
....|..|--- .... ....|--- .... ....|--- .... ....
 B-2|..|B-1 2A.F ....|B-3 2FA7 ....|B-3 2F.F ....
....|..|--- .... ....|--- .... ....|--- .... ....
....|..|R-- .... ....|--- .... ....|--- .... ....
....|..|--- .... ....|--- .... ....|--- .... ....
....|..|R-- .... ....|--- .... ....|G#4 2F.7 ....
....|..|R-- .... ....|--- .... ....|--- .... ....
....|..|B-1 2F.7 ....|--- .... ....|B-3 2F.A ....
....|..|--- .... ....|--- .... ....|--- .... ....
 B-2|..|B-1 2A.F ....|--- .... ....|--- .... ....
....|..|--- .... ....|--- .... ....|--- .... ....
....|..|--- .... ....|--- .... ....|--- .... ....
....|..|R-- .... ....|--- .... ....|--- .... ....
....|..|B-1 2F.7 ....|--- .... ....|B-3 2F.7 ....
....|..|--- .... ....|--- .... ....|--- .... ....
....|..|B-1 2F.A ....|--- .... ....|--- .... ....
....|..|--- .... ....|--- .... ....|--- .... ....
 B-2|..|B-1 2A.F ....|--- .... ....|--- .... ....
....|..|R-- .... ....|--- .... ....|--- .... ....
....|..|--- .... ....|--- .... ....|--- .... ....
....|..|--- .... ....|--- .... ....|R-- .... ....

[Pattern33]
 B-2|..|B-1 2A.F ....|--- .... ....|--- .... ....
....|..|--- .... ....|--- .... ....|--- .... ....
....|..|B-1 2F.A ....|--- .... ....|--- .... ....
....|..|R-- .... ....|--- .... ....|--- .... ....
....|..|R-- .... ....|--- .... ....|--- .... ....
....|..|--- .... ....|--- .... ....|R-- .... ....
 B-2|..|B-1 2A.F ....|--- .... ....|--- .... ....
....|..|--- .... ....|--- .... ....|--- .... ....
....|..|B-1 2F.7 ....|--- .... ....|--- .... ....
....|..|R-- .... ....|R-- .... ....|--- .... ....
....|..|R-- .... ....|--- .... ....|--- .... ....
....|..|--- .... ....|--- .... ....|R-- .... ....
 B-2|..|B-1 2A.F ....|--- .... ....|--- .... ....
....|..|--- .... ....|--- .... ....|--- .... ....
....|..|R-- .... ....|--- .... ....|--- .... ....
....|..|--- .... ....|R-- .... ....|--- .... ....
 A-3|..|A-1 2A.F ....|E-4 2F6F ....|A-4 2F.F ....
....|..|--- .... ....|--- .... ....|--- .... ....
....|..|B-1 2F.7 ....|--- .... ....|--- .... ....
....|..|--- .... ....|--- .... ....|--- .... ....
....|..|R-- .... ....|--- .... ....|--- .... ....
....|..|--- .... ....|R-- .... ....|--- .... ....
....|..|A-1 2F.A ....|E-4 2F6A ....|A-4 2F.A ....
....|..|R-- .... ....|--- .... ....|R-- .... ....
 G#3|..|G#1 2A.F ....|E-4 2F7F ....|G#4 2F.F ....
....|..|--- .... ....|--- .... ....|--- .... ....
....|..|--- .... ....|--- .... ....|--- .... ....
....|..|--- .... ....|--- .... ....|--- .... ....
....|..|A-1 2F.7 ....|E-4 2F67 ....|A-4 2F.7 ....
....|..|R-- .... ....|--- .... ....|R-- .... ....
....|..|G#1 2F.A ....|E-4 2F7A ....|G#4 2F.A ....
....|..|R-- .... ....|--- .... ....|R-- .... ....
 B-2|..|B-1 2A.F ....|B-4 2FBF ....|F#4 2F.F ....
....|..|--- .... ....|--- .... ....|--- .... ....
....|..|--- .... ....|R-- .... ....|--- .... ....
....|..|R-- .... ....|--- .... ....|R-- .... ....
....|..|G#1 2F.7 ....|E-4 2F77 ....|B-3 2F.F ....
....|..|R-- .... ....|--- .... ....|R-- .... ....
 B-2|..|B-1 2A.F ....|B-4 2FBA ....|F#4 2F.A ....
....|..|--- .... ....|--- .... ....|--- .... ....
....|..|R-- .... ....|--- .... ....|B-3 2F.F ....
....|..|--- .... ....|--- .... ....|R-- .... ....
....|..|R-- .... ....|R-- .... ....|B-3 2F.A ....
....|..|R-- .... ....|--- .... ....|R-- .... ....
 B-2|..|B-1 2A.F ....|B-4 2FB7 ....|B-3 2F.F ....
....|..|--- .... ....|--- .... ....|R-- .... ....
....|..|R-- .... ....|--- .... ....|B-3 2F.A ....
....|..|--- .... ....|--- .... ....|R-- .... ....
....|..|R-- .... ....|--- .... ....|B-3 2F.F ....
....|..|R-- .... ....|--- .... ....|--- .... ....
....|..|B-1 2F.7 ....|R-- .... ....|B-3 2F.A ....
....|..|--- .... ....|--- .... ....|R-- .... ....
 B-2|..|B-1 2A.F ....|--- .... ....|B-3 2F.F ....
....|..|--- .... ....|--- .... ....|R-- .... ....
....|..|--- .... ....|--- .... ....|B-3 2F.A ....
....|..|R-- .... ....|--- .... ....|--- .... ....
....|..|B-1 2F.7 ....|--- .... ....|B-3 2F.F ....
....|..|--- .... ....|--- .... ....|R-- .... ....
....|..|B-1 2F.A ....|--- .... ....|B-3 2F.A ....
....|..|--- .... ....|--- .... ....|R-- .... ....
 B-2|..|B-1 2A.F ....|--- .... ....|B-3 2F.F ....
....|..|R-- .... ....|--- .... ....|--- .... ....
....|..|--- .... ....|--- .... ....|B-3 2F.A ....
....|..|--- .... ....|--- .... ....|R-- .... ....

[Pattern34]
 B-2|..|B-1 2A.F ....|--- .... ....|B-3 2F.7 ....
....|..|--- .... ....|--- .... ....|R-- .... ....
....|..|B-1 2F.A ....|--- .... ....|B-3 2F.A ....
....|..|R-- .... ....|--- .... ....|R-- .... ....
....|..|R-- .... ....|--- .... ....|B-3 2F.7 ....
....|..|--- .... ....|--- .... ....|R-- .... ....
 B-2|..|B-1 2A.F ....|--- .... ....|--- .... ....
....|..|--- .... ....|--- .... ....|--- .... ....
....|..|B-1 2F.7 ....|--- .... ....|B-3 2F.7 ....
....|..|R-- .... ....|--- .... ....|R-- .... ....
....|..|R-- .... ....|--- .... ....|--- .... ....
....|..|--- .... ....|--- .... ....|--- .... ....
 B-2|..|B-1 2A.F ....|--- .... ....|--- .... ....
....|..|--- .... ....|--- .... ....|--- .... ....
....|..|R-- .... ....|--- .... ....|--- .... ....
....|..|--- .... ....|--- .... ....|R-- .... ....
 A-3|..|A-1 2A.F ....|E-4 2F6F ....|A-4 2F.F ....
....|..|--- .... ....|--- .... ....|--- .... ....
....|..|B-1 2F.7 ....|--- .... ....|--- .... ....
....|..|--- .... ....|--- .... ....|--- .... ....
....|..|R-- .... ....|--- .... ....|--- .... ....
....|..|--- .... ....|--- .... ....|--- .... ....
....|..|A-1 2F.A ....|E-4 2F6A ....|A-4 2F.A ....
....|..|R-- .... ....|--- .... ....|R-- .... ....
 G#3|..|G#1 2A.F ....|E-4 2F7F ....|G#4 2F.F ....
....|..|--- .... ....|--- .... ....|--- .... ....
....|..|--- .... ....|--- .... ....|--- .... ....
....|..|--- .... ....|--- .... ....|--- .... ....
....|..|A-1 2F.7 ....|E-4 2F67 ....|A-4 2F.7 ....
....|..|R-- .... ....|--- .... ....|R-- .... ....
....|..|G#1 2F.A ....|E-4 2F7A ....|G#4 2F.A ....
....|..|R-- .... ....|--- .... ....|--- .... ....
 B-2|..|B-1 2A.F ....|B-4 2FBF ....|F#4 2F.F ....
....|..|R-- .... ....|--- .... ....|--- .... ....
 B-3|..|B-1 2A.F ....|R-- .... ....|--- .... ....
....|..|R-- .... ....|--- .... ....|R-- .... ....
 B-3|..|B-1 2A.F ....|E-4 2F77 ....|B-3 2F.F ....
....|..|R-- .... ....|--- .... ....|--- .... ....
 B-2|..|B-1 2A.F ....|B-4 2FBA ....|F#4 2F.A ....
....|..|R-- .... ....|--- .... ....|--- .... ....
 B-3|..|B-1 2A.F ....|--- .... ....|B-3 2F.F ....
....|..|R-- .... ....|--- .... ....|R-- .... ....
 B-3|..|B-1 2A.F ....|R-- .... ....|B-3 2F.A ....
....|..|R-- .... ....|--- .... ....|--- .... ....
 B-2|..|B-1 2A.F ....|B-4 2FB7 ....|B-3 2F.F ....
....|..|R-- .... ....|--- .... ....|R-- .... ....
 B-3|..|B-1 2A.F ....|--- .... ....|B-3 2F.A ....
....|..|R-- .... ....|--- .... ....|R-- .... ....
 B-3|..|B-1 2A.F ....|--- .... ....|B-3 2F.F ....
....|..|R-- .... ....|--- .... ....|--- .... ....
 B-3|..|B-1 2A.F ....|R-- .... ....|B-3 2F.A ....
....|..|R-- .... ....|--- .... ....|R-- .... ....
 B-2|..|B-1 2A.F ....|--- .... ....|B-3 2F.F ....
....|..|R-- .... ....|--- .... ....|R-- .... ....
 B-3|..|B-1 2A.F ....|--- .... ....|B-3 2F.A ....
....|..|R-- .... ....|--- .... ....|--- .... ....
 B-3|..|B-1 2A.F ....|--- .... ....|B-3 2F.F ....
....|..|R-- .... ....|--- .... ....|R-- .... ....
 B-3|..|B-1 2A.F ....|--- .... ....|B-3 2F.A ....
....|..|R-- .... ....|--- .... ....|--- .... ....
 B-2|..|B-1 2A.F ....|--- .... ....|B-3 2F.F ....
....|..|R-- .... ....|--- .... ....|--- .... ....
 B-3|..|B-1 2A.F ....|--- .... ....|B-3 2F.A ....
....|..|R-- .... ....|--- .... ....|R-- .... ....

[Pattern35]
 B-2|..|B-1 2A.F ....|--- .... ....|B-3 2F.7 ....
....|..|R-- .... ....|--- .... ....|--- .... ....
 B-3|..|B-1 2A.F ....|--- .... ....|B-3 2F.A ....
....|..|R-- .... ....|--- .... ....|--- .... ....
 B-3|..|B-1 2A.F ....|--- .... ....|B-3 2F.7 ....
....|..|R-- .... ....|--- .... ....|R-- .... ....
 B-3|..|B-1 2A.F ....|--- .... ....|R-- .... ....
....|..|R-- .... ....|--- .... ....|--- .... ....
 B-3|..|B-1 2A.F ....|--- .... ....|B-3 2F.7 ....
....|..|R-- .... ....|--- .... ....|--- .... ....
 B-3|..|B-1 2A.F ....|--- .... ....|--- .... ....
....|..|R-- .... ....|--- .... ....|--- .... ....
 B-3|..|B-1 2A.F ....|--- .... ....|R-- .... ....
....|..|R-- .... ....|--- .... ....|--- .... ....
 B-3|..|B-1 2A.F ....|--- .... ....|--- .... ....
....|..|R-- .... ....|--- .... ....|--- .... ....
 B-3|..|B-1 2A.F ....|--- .... ....|G#4 2F.F ....
....|..|R-- .... ....|--- .... ....|--- .... ....
 B-3|..|B-1 2A.F ....|--- .... ....|R-- .... ....
....|..|R-- .... ....|--- .... ....|--- .... ....
 B-3|..|B-1 2A.F ....|--- .... ....|E-4 2F.F ....
....|..|R-- .... ....|--- .... ....|--- .... ....
 B-3|..|B-1 2A.F ....|--- .... ....|G#4 2F.A ....
....|..|R-- .... ....|--- .... ....|--- .... ....
 B-3|..|B-1 2A.F ....|--- .... ....|F#4 2F.F ....
....|..|R-- .... ....|--- .... ....|--- .... ....
 B-3|..|B-1 2A.F ....|--- .... ....|E-4 2F.A ....
....|..|R-- .... ....|--- .... ....|R-- .... ....
 B-3|..|B-1 2A.F ....|--- .... ....|E-4 2F.F ....
....|..|R-- .... ....|--- .... ....|--- .... ....
 B-3|..|B-1 2A.F ....|--- .... ....|F#4 2F.A ....
....|..|R-- .... ....|--- .... ....|--- .... ....
....|..|B-1 2F.7 ....|B-4 2F1F ....|E-4 2F.7 ....
....|..|R-- .... ....|R-- .... ....|R-- .... ....
....|..|B-1 2F.7 ....|--- .... ....|E-4 2F.A ....
....|..|R-- .... ....|--- .... ....|--- .... ....
....|..|B-1 2F.7 ....|B-4 2F1F ....|F#4 2F.7 ....
....|..|R-- .... ....|R-- .... ....|--- .... ....
....|..|B-1 2F.7 ....|B-4 2F1A ....|R-- .... ....
....|..|R-- .... ....|R-- .... ....|R-- .... ....
....|..|B-1 2F.7 ....|F#6 UFFF ....|F#4 2F.F ....
....|..|R-- .... ....|F#6 UFFF ....|--- .... ....
....|..|B-1 2F.7 ....|B-4 2F1A ....|R-- .... ....
....|..|R-- .... ....|R-- .... ....|--- .... ....
....|..|--- .... ....|E-6 UFFF ....|E-4 2F.F ....
....|..|--- .... ....|E-6 UFFF ....|--- .... ....
....|..|--- .... ....|F#6 UFFA ....|F#4 2F.A ....
....|..|--- .... ....|F#6 UFFA ....|--- .... ....
....|..|--- .... ....|F#6 UFFF ....|F#4 2F.F ....
....|..|--- .... ....|R-- .... ....|--- .... ....
....|..|--- .... ....|E-6 UFFA ....|E-4 2F.A ....
....|..|--- .... ....|E-6 UFFA ....|--- .... ....
....|..|--- .... ....|E-6 UFFF ....|E-4 2F.F ....
....|..|--- .... ....|F#6 UFF7 ....|--- .... ....
....|..|--- .... ....|F#6 UFFA ....|F#4 2F.A ....
....|..|--- .... ....|R-- .... ....|--- .... ....
....|..|--- .... ....|B-4 2F1F ....|E-4 2F.7 ....
....|..|--- .... ....|E-6 UFF7 ....|--- .... ....
....|..|--- .... ....|E-6 UFFA ....|E-4 2F.A ....
....|..|--- .... ....|R-- .... ....|--- .... ....
....|..|--- .... ....|B-4 2F1F ....|F#4 2F.7 ....
....|..|--- .... ....|R-- .... ....|--- .... ....
....|..|--- .... ....|B-4 2F1A ....|R-- .... ....
....|..|--- .... ....|R-- .... ....|--- .... ....

[Pattern36]
....|..|--- .... ....|B-4 2F1F ....|E-4 2F.7 ....
....|..|--- .... ....|R-- .... ....|--- .... ....
....|..|--- .... ....|B-4 2F1A ....|--- .... ....
....|..|--- .... ....|R-- .... ....|--- .... ....
....|..|--- .... ....|B-4 2F1F ....|R-- .... ....
....|..|--- .... ....|R-- .... ....|--- .... ....
....|..|--- .... ....|B-4 2F1A ....|--- .... ....
....|..|--- .... ....|R-- .... ....|--- .... ....
....|..|--- .... ....|E-6 UFFF ....|E-4 2F.F ....
....|..|--- .... ....|E-6 UFFF ....|R-- .... ....
....|..|--- .... ....|B-4 2F1A ....|--- .... ....
....|..|--- .... ....|R-- .... ....|--- .... ....
....|..|--- .... ....|E-6 UFFF ....|E-4 2F.F ....
....|..|--- .... ....|E-6 UFFF ....|--- .... ....
....|..|--- .... ....|E-6 UFFA ....|E-4 2F.A ....
....|..|--- .... ....|E-6 UFFA ....|R-- .... ....
....|..|--- .... ....|F#6 UFFF ....|F#4 2F.F ....
....|..|--- .... ....|R-- .... ....|--- .... ....
....|..|--- .... ....|E-6 UFFA ....|E-4 2F.A ....
....|..|--- .... ....|E-6 UFFA ....|--- .... ....
....|..|--- .... ....|G#6 UFFF ....|G#4 2F.F ....
....|..|--- .... ....|E-6 UFF7 ....|R-- .... ....
....|..|--- .... ....|F#6 UFFA ....|F#4 2F.A ....
....|..|--- .... ....|R-- .... ....|R-- .... ....
....|..|--- .... ....|F#6 UFFF ....|F#4 2F.F ....
....|..|--- .... ....|E-6 UFF7 ....|--- .... ....
....|..|--- .... ....|G#6 UFFA ....|G#4 2F.A ....
....|..|--- .... ....|R-- .... ....|R-- .... ....
....|..|--- .... ....|E-6 UFFF ....|E-4 2F.F ....
....|..|--- .... ....|R-- .... ....|R-- .... ....
....|..|--- .... ....|F#6 UFFA ....|F#4 2F.A ....
....|..|--- .... ....|A-4 2FAF ....|R-- .... ....
 A-2|..|A-1 2A.F ....|C#4 2F3F ....|G#4 2F.7 ....
....|..|--- .... ....|R-- .... ....|R-- .... ....
....|..|--- .... ....|E-6 UFFA ....|E-4 2F.A ....
....|..|--- .... ....|R-- .... ....|R-- .... ....
....|..|R-- .... ....|C#4 2F3F ....|F#4 2F.7 ....
....|..|--- .... ....|A-4 2FAA ....|R-- .... ....
 A-2|..|A-1 2A.F ....|C#4 2F3A ....|--- .... ....
....|..|--- .... ....|R-- .... ....|R-- .... ....
....|..|R-- .... ....|C#4 2F3F ....|F#4 2F.F ....
....|..|--- .... ....|F#6 UFFF ....|--- .... ....
....|..|R-- .... ....|C#4 2F3A ....|--- .... ....
....|..|--- .... ....|A-4 2FA7 ....|R-- .... ....
 A-2|..|A-1 2A.F ....|C#4 2F3F ....|--- .... ....
....|..|--- .... ....|R-- .... ....|R-- .... ....
....|..|R-- .... ....|C#4 2F3A ....|F#4 2F.A ....
....|..|--- .... ....|F#6 UFFA ....|--- .... ....
....|..|R-- .... ....|C#4 2F3F ....|E-4 2F.F ....
....|..|R-- .... ....|E-6 UFFF ....|--- .... ....
....|..|A-1 2F.7 ....|C#4 2F3A ....|--- .... ....
....|..|--- .... ....|R-- .... ....|R-- .... ....
 A-2|..|A-1 2A.F ....|C#4 2F3F ....|F#4 2F.7 ....
....|..|--- .... ....|F#6 UFF7 ....|--- .... ....
....|..|--- .... ....|C#4 2F3A ....|E-4 2F.A ....
....|..|R-- .... ....|E-6 UFFA ....|R-- .... ....
....|..|A-1 2F.7 ....|C#4 2F3F ....|--- .... ....
....|..|--- .... ....|E-5 2F.F ....|R-- .... ....
....|..|A-1 2F.A ....|C#4 2F3A ....|--- .... ....
....|..|--- .... ....|R-- .... ....|--- .... ....
 A-2|..|A-1 2A.F ....|A-6 UFFF ....|A-4 2F.F ....
....|..|R-- .... ....|A-6 UFFF ....|R-- .... ....
....|..|--- .... ....|C#4 2F3A ....|--- .... ....
....|..|--- .... ....|E-5 2F.A ....|R-- .... ....

[Pattern37]
 A-2|..|A-1 2A.F ....|C#4 2F3F ....|--- .... ....
....|..|--- .... ....|R-- .... ....|--- .... ....
....|..|A-1 2F.A ....|A-6 UFFA ....|A-4 2F.A ....
....|..|R-- .... ....|A-6 UFFA ....|R-- .... ....
....|..|R-- .... ....|A-6 UFFF ....|A-4 2F.F ....
....|..|--- .... ....|A-5 UFFF ....|R-- .... ....
 A-2|..|A-1 2A.F ....|C#4 2F3A ....|R-- .... ....
....|..|--- .... ....|R-- .... ....|--- .... ....
....|..|A-1 2F.7 ....|A-6 UFFF ....|A-4 2F.F ....
....|..|R-- .... ....|A-6 UFF7 ....|--- .... ....
....|..|R-- .... ....|A-6 UFFA ....|A-4 2F.A ....
....|..|--- .... ....|A-5 UFFA ....|R-- .... ....
 A-2|..|A-1 2A.F ....|A-6 UFFF ....|A-4 2F.F ....
....|..|--- .... ....|A-6 UFFF ....|--- .... ....
....|..|R-- .... ....|A-6 UFFA ....|A-4 2F.A ....
....|..|--- .... ....|R-- .... ....|--- .... ....
....|..|R-- .... ....|G#6 UFFF ....|G#4 2F.F ....
....|..|R-- .... ....|A-5 UFF7 ....|--- .... ....
....|..|A-1 2F.7 ....|A-6 UFFA ....|A-4 2F.A ....
....|..|--- .... ....|A-6 UFFA ....|--- .... ....
 A-2|..|A-1 2A.F ....|C#4 2F3F ....|A-4 2F.7 ....
....|..|--- .... ....|R-- .... ....|--- .... ....
....|..|--- .... ....|G#6 UFFA ....|G#4 2F.A ....
....|..|R-- .... ....|R-- .... ....|R-- .... ....
....|..|A-1 2F.7 ....|E-6 UFFF ....|E-4 2F.F ....
....|..|--- .... ....|E-6 UFFF ....|--- .... ....
....|..|A-1 2F.A ....|C#4 2F3A ....|R-- .... ....
....|..|--- .... ....|R-- .... ....|--- .... ....
 A-2|..|A-1 2A.F ....|C#4 2F3F ....|G#4 2F.7 ....
....|..|R-- .... ....|R-- .... ....|R-- .... ....
....|..|--- .... ....|E-6 UFFA ....|E-4 2F.A ....
....|..|--- .... ....|E-6 UFFA ....|--- .... ....
 E-3|..|E-1 2A.F ....|B-4 2F1F ....|--- .... ....
....|..|--- .... ....|R-- .... ....|--- .... ....
....|..|A-1 2F.A ....|C#4 2F3A ....|R-- .... ....
....|..|R-- .... ....|R-- .... ....|R-- .... ....
....|..|R-- .... ....|B-4 2F1F ....|E-4 2F.7 ....
....|..|--- .... ....|E-6 UFF7 ....|--- .... ....
 E-3|..|E-1 2A.F ....|B-4 2F1A ....|--- .... ....
....|..|--- .... ....|R-- .... ....|--- .... ....
....|..|A-1 2F.7 ....|F#6 UFFF ....|F#4 2F.F ....
....|..|R-- .... ....|F#6 UFFF ....|--- .... ....
....|..|R-- .... ....|B-4 2F1A ....|--- .... ....
....|..|--- .... ....|R-- .... ....|R-- .... ....
 E-3|..|E-1 2A.F ....|E-6 UFFF ....|E-4 2F.F ....
....|..|--- .... ....|E-6 UFFF ....|--- .... ....
....|..|R-- .... ....|F#6 UFFA ....|F#4 2F.A ....
....|..|--- .... ....|F#6 UFFA ....|--- .... ....
....|..|R-- .... ....|F#6 UFFF ....|F#4 2F.F ....
....|..|R-- .... ....|E-5 2F.F ....|R-- .... ....
....|..|E-1 2F.7 ....|E-6 UFFA ....|E-4 2F.A ....
....|..|--- .... ....|E-6 UFFA ....|R-- .... ....
 E-3|..|E-1 2A.F ....|E-6 UFFF ....|E-4 2F.F ....
....|..|--- .... ....|F#6 UFF7 ....|--- .... ....
....|..|--- .... ....|F#6 UFFA ....|F#4 2F.A ....
....|..|R-- .... ....|E-5 2F.A ....|R-- .... ....
....|..|E-1 2F.7 ....|B-4 2F1F ....|E-4 2F.7 ....
....|..|--- .... ....|B-4 2F.F ....|R-- .... ....
....|..|E-1 2F.A ....|E-6 UFFA ....|E-4 2F.A ....
....|..|--- .... ....|R-- .... ....|--- .... ....
 E-3|..|E-1 2A.F ....|B-4 2F1F ....|F#4 2F.7 ....
....|..|R-- .... ....|B-4 2F.F ....|R-- .... ....
....|..|--- .... ....|B-4 2F1A ....|--- .... ....
....|..|--- .... ....|B-4 2F.A ....|R-- .... ....

[Pattern38]
 E-3|..|E-1 2A.F ....|B-4 2F1F ....|E-4 2F.7 ....
....|..|--- .... ....|E-5 2F.F ....|--- .... ....
....|..|E-1 2F.A ....|B-4 2F1A ....|--- .... ....
....|..|R-- .... ....|B-4 2F.A ....|R-- .... ....
....|..|R-- .... ....|B-4 2F1F ....|--- .... ....
....|..|--- .... ....|B-4 2F.7 ....|--- .... ....
 E-3|..|E-1 2A.F ....|B-4 2F1A ....|--- .... ....
....|..|--- .... ....|E-5 2F.A ....|--- .... ....
....|..|E-1 2F.7 ....|E-6 UFFF ....|E-4 2F.F ....
....|..|R-- .... ....|E-6 UFFF ....|R-- .... ....
....|..|R-- .... ....|B-4 2F1A ....|--- .... ....
....|..|--- .... ....|R-- .... ....|--- .... ....
 E-3|..|E-1 2A.F ....|E-6 UFFF ....|E-4 2F.F ....
....|..|--- .... ....|E-6 UFFF ....|--- .... ....
....|..|R-- .... ....|E-6 UFFA ....|E-4 2F.A ....
....|..|--- .... ....|E-6 UFFA ....|R-- .... ....
....|..|R-- .... ....|F#6 UFFF ....|F#4 2F.F ....
....|..|R-- .... ....|R-- .... ....|--- .... ....
....|..|E-1 2F.7 ....|E-6 UFFA ....|E-4 2F.A ....
....|..|--- .... ....|E-6 UFFA ....|--- .... ....
 E-3|..|E-1 2A.F ....|G#6 UFFF ....|G#4 2F.F ....
....|..|--- .... ....|E-6 UFF7 ....|R-- .... ....
....|..|--- .... ....|F#6 UFFA ....|F#4 2F.A ....
....|..|R-- .... ....|R-- .... ....|--- .... ....
....|..|E-1 2F.7 ....|F#6 UFFF ....|F#4 2F.F ....
....|..|--- .... ....|E-6 UFF7 ....|--- .... ....
....|..|E-1 2F.A ....|G#6 UFFA ....|G#4 2F.A ....
....|..|--- .... ....|R-- .... ....|R-- .... ....
 E-3|..|E-1 2A.F ....|E-6 UFFF ....|E-4 2F.F ....
....|..|R-- .... ....|G#5 2F.F ....|--- .... ....
....|..|--- .... ....|F#6 UFFA ....|F#4 2F.A ....
....|..|--- .... ....|R-- .... ....|--- .... ....
 A-2|..|A-1 2A.F ....|C#4 2F3F ....|G#4 2F.7 ....
....|..|--- .... ....|E-5 2F.F ....|R-- .... ....
....|..|E-1 2F.A ....|E-6 UFFA ....|E-4 2F.A ....
....|..|R-- .... ....|G#5 2F.A ....|--- .... ....
....|..|R-- .... ....|C#4 2F3F ....|F#4 2F.7 ....
....|..|--- .... ....|E-5 2F.F ....|--- .... ....
 A-2|..|A-1 2A.F ....|C#4 2F3A ....|R-- .... ....
....|..|--- .... ....|E-5 2F.A ....|R-- .... ....
....|..|E-1 2F.7 ....|C#4 2F3F ....|F#4 2F.F ....
....|..|R-- .... ....|F#6 UFFF ....|--- .... ....
....|..|R-- .... ....|C#4 2F3A ....|--- .... ....
....|..|--- .... ....|E-5 2F.A ....|--- .... ....
 A-2|..|A-1 2A.F ....|C#4 2F3F ....|R-- .... ....
....|..|--- .... ....|E-5 2F.7 ....|--- .... ....
....|..|R-- .... ....|C#4 2F3A ....|F#4 2F.A ....
....|..|--- .... ....|F#6 UFFA ....|--- .... ....
....|..|R-- .... ....|C#4 2F3F ....|E-4 2F.F ....
....|..|R-- .... ....|E-6 UFFF ....|--- .... ....
....|..|A-1 2F.7 ....|C#4 2F3A ....|--- .... ....
....|..|--- .... ....|R-- .... ....|--- .... ....
 A-2|..|A-1 2A.F ....|C#4 2F3F ....|F#4 2F.7 ....
....|..|--- .... ....|E-5 2F.F ....|--- .... ....
....|..|--- .... ....|C#4 2F3A ....|E-4 2F.A ....
....|..|R-- .... ....|E-6 UFFA ....|--- .... ....
....|..|A-1 2F.7 ....|C#4 2F3F ....|R-- .... ....
....|..|--- .... ....|E-5 2F.F ....|--- .... ....
....|..|A-1 2F.A ....|C#4 2F3A ....|--- .... ....
....|..|--- .... ....|E-5 2F.A ....|--- .... ....
 A-2|..|A-1 2A.F ....|A-6 UFFF ....|A-4 2F.F ....
....|..|R-- .... ....|A-6 UFFF ....|--- .... ....
....|..|--- .... ....|C#4 2F3A ....|R-- .... ....
....|..|--- .... ....|E-5 2F.A ....|R-- .... ....

[Pattern39]
 A-2|..|A-1 2A.F ....|C#4 2F3F ....|--- .... ....
....|..|--- .... ....|E-5 2F.7 ....|--- .... ....
....|..|A-1 2F.A ....|A-6 UFFA ....|A-4 2F.A ....
....|..|R-- .... ....|A-6 UFFA ....|--- .... ....
....|..|R-- .... ....|A-6 UFFF ....|A-4 2F.F ....
....|..|--- .... ....|A-5 UFFF ....|R-- .... ....
 A-2|..|A-1 2A.F ....|C#4 2F3A ....|R-- .... ....
....|..|--- .... ....|R-- .... ....|--- .... ....
....|..|A-1 2F.7 ....|A-6 UFFF ....|A-4 2F.F ....
....|..|R-- .... ....|A-6 UFF7 ....|--- .... ....
....|..|R-- .... ....|A-6 UFFA ....|A-4 2F.A ....
....|..|--- .... ....|A-5 UFFA ....|R-- .... ....
 A-2|..|A-1 2A.F ....|A-6 UFFF ....|A-4 2F.F ....
....|..|--- .... ....|A-6 UFFF ....|--- .... ....
....|..|R-- .... ....|A-6 UFFA ....|A-4 2F.A ....
....|..|--- .... ....|R-- .... ....|R-- .... ....
....|..|R-- .... ....|G#6 UFFF ....|G#4 2F.F ....
....|..|R-- .... ....|E-5 2F.F ....|--- .... ....
....|..|A-1 2F.7 ....|A-6 UFFA ....|A-4 2F.A ....
....|..|--- .... ....|A-6 UFFA ....|--- .... ....
 A-2|..|A-1 2A.F ....|C#4 2F3F ....|G#4 2F.F ....
....|..|--- .... ....|R-- .... ....|R-- .... ....
....|..|--- .... ....|G#6 UFFA ....|G#4 2F.A ....
....|..|R-- .... ....|E-5 2F.A ....|--- .... ....
....|..|A-1 2F.7 ....|E-6 UFFF ....|E-4 2F.F ....
....|..|--- .... ....|E-6 UFFF ....|--- .... ....
....|..|A-1 2F.A ....|C#4 2F3A ....|G#4 2F.A ....
....|..|--- .... ....|R-- .... ....|R-- .... ....
 A-2|..|A-1 2A.F ....|C#4 2F3F ....|F-4 2F.F ....
....|..|R-- .... ....|E-5 2F.7 ....|--- .... ....
....|..|--- .... ....|E-6 UFFA ....|E-4 2F.A ....
....|..|--- .... ....|E-6 UFFA ....|R-- .... ....
 E-3|..|E-1 2A.F ....|B-4 2F.F ....|F-4 2F.F ....
....|..|--- .... ....|B-5 2F.F ....|E-4 2F.F ....
....|..|A-1 2F.A ....|C#4 2F3A ....|F-4 2F.A ....
....|..|R-- .... ....|R-- .... ....|--- .... ....
....|..|R-- .... ....|E-6 UFF7 ....|E-4 2F.7 ....
....|..|--- .... ....|E-6 UFF7 ....|R-- .... ....
 E-3|..|E-1 2A.F ....|B-4 2F.A ....|F-4 2F.A ....
....|..|--- .... ....|B-5 2F.A ....|E-4 2F.A ....
....|..|A-1 2F.7 ....|C#4 2F37 ....|B-4 2F.F ....
....|..|R-- .... ....|R-- .... ....|B-4 2F.F ....
....|..|R-- .... ....|--- .... ....|--- .... ....
....|..|--- .... ....|--- .... ....|R-- .... ....
 E-3|..|E-1 2A.F ....|B-4 2F.7 ....|F-4 2F.7 ....
....|..|--- .... ....|B-5 2F.7 ....|E-4 2F.7 ....
....|..|R-- .... ....|--- .... ....|B-4 2F.A ....
....|..|--- .... ....|--- .... ....|B-4 2F.A ....
....|..|R-- .... ....|--- .... ....|R-- .... ....
....|..|R-- .... ....|--- .... ....|R-- .... ....
....|..|E-1 2F.7 ....|--- .... ....|--- .... ....
....|..|--- .... ....|--- .... ....|--- .... ....
 E-3|..|E-1 2A.F ....|--- .... ....|B-4 2F.F ....
....|..|--- .... ....|--- .... ....|B-4 2F.7 ....
....|..|--- .... ....|--- .... ....|R-- .... ....
....|..|R-- .... ....|--- .... ....|R-- .... ....
....|..|E-1 2F.7 ....|--- .... ....|B-4 2F.F ....
....|..|--- .... ....|--- .... ....|R-- .... ....
....|..|E-1 2F.A ....|--- .... ....|B-4 2F.A ....
....|..|--- .... ....|--- .... ....|R-- .... ....
 E-3|..|E-1 2A.F ....|--- .... ....|B-4 2F.F ....
....|..|R-- .... ....|--- .... ....|R-- .... ....
....|..|--- .... ....|--- .... ....|B-4 2F.A ....
....|..|--- .... ....|--- .... ....|R-- .... ....

[Pattern40]
 D#3|..|D#1 2A.F ....|--- .... ....|B-4 2F.7 ....
....|..|--- .... ....|--- .... ....|R-- .... ....
....|..|E-1 2F.A ....|--- .... ....|B-4 2F.A ....
....|..|R-- .... ....|--- .... ....|--- .... ....
....|..|R-- .... ....|--- .... ....|F#4 2F.F ....
....|..|--- .... ....|--- .... ....|R-- .... ....
 D#3|..|D#1 2A.F ....|--- .... ....|--- .... ....
....|..|--- .... ....|--- .... ....|R-- .... ....
....|..|E-1 2F.7 ....|F#4 2F4F ....|B-4 2F.7 ....
....|..|R-- .... ....|F#5 2F.F ....|--- .... ....
....|..|R-- .... ....|--- .... ....|F#4 2F.A ....
....|..|--- .... ....|--- .... ....|--- .... ....
 D#3|..|D#1 2A.F ....|--- .... ....|G#4 2F.F ....
....|..|--- .... ....|--- .... ....|R-- .... ....
....|..|R-- .... ....|F#4 2F4A ....|--- .... ....
....|..|--- .... ....|F#5 2F.A ....|--- .... ....
....|..|R-- .... ....|F#4 2FCF ....|B-2 2F.F ....
....|..|R-- .... ....|G#5 2F.F ....|--- .... ....
....|..|D#1 2F.7 ....|--- .... ....|G#4 2F.A ....
....|..|--- .... ....|--- .... ....|--- .... ....
 D#3|..|D#1 2A.F ....|F#4 2F47 ....|A-4 2F.F ....
....|..|--- .... ....|F#5 2F.7 ....|--- .... ....
....|..|--- .... ....|F#4 2FCA ....|B-2 2F.A ....
....|..|R-- .... ....|G#5 2F.A ....|--- .... ....
....|..|D#1 2F.7 ....|A-5 2F.F ....|G#2 2F.F ....
....|..|--- .... ....|--- .... ....|--- .... ....
....|..|D#1 2F.A ....|--- .... ....|A-4 2F.A ....
....|..|--- .... ....|--- .... ....|--- .... ....
 D#3|..|D#1 2A.F ....|F#4 2FC7 ....|A-2 2F.F ....
....|..|R-- .... ....|G#5 2F.7 ....|R-- .... ....
....|..|--- .... ....|A-5 2F.A ....|G#2 2F.A ....
....|..|--- .... ....|--- .... ....|--- .... ....
 C#3|..|C#1 2A.F ....|G#5 2F.F ....|G#2 2F.F ....
....|..|--- .... ....|--- .... ....|--- .... ....
....|..|D#1 2F.A ....|--- .... ....|A-2 2F.A ....
....|..|R-- .... ....|--- .... ....|R-- .... ....
....|..|R-- .... ....|A-5 2F.7 ....|G#2 2F.7 ....
....|..|--- .... ....|--- .... ....|--- .... ....
 C#3|..|C#1 2A.F ....|G#5 2F.A ....|G#2 2F.A ....
....|..|--- .... ....|--- .... ....|--- .... ....
....|..|D#1 2F.7 ....|--- .... ....|G#4 2F.F ....
....|..|R-- .... ....|--- .... ....|R-- .... ....
....|..|R-- .... ....|--- .... ....|--- .... ....
....|..|--- .... ....|--- .... ....|--- .... ....
 C#3|..|C#1 2A.F ....|G#5 2F.7 ....|G#2 2F.7 ....
....|..|--- .... ....|--- .... ....|--- .... ....
....|..|R-- .... ....|--- .... ....|G#4 2F.A ....
....|..|--- .... ....|--- .... ....|--- .... ....
....|..|R-- .... ....|--- .... ....|R-- .... ....
....|..|R-- .... ....|--- .... ....|R-- .... ....
....|..|C#1 2F.7 ....|--- .... ....|--- .... ....
....|..|--- .... ....|--- .... ....|--- .... ....
 C#3|..|C#1 2A.F ....|--- .... ....|G#4 2F.F ....
....|..|--- .... ....|--- .... ....|R-- .... ....
....|..|--- .... ....|--- .... ....|R-- .... ....
....|..|R-- .... ....|--- .... ....|R-- .... ....
....|..|C#1 2F.7 ....|--- .... ....|G#4 2F.F ....
....|..|--- .... ....|--- .... ....|R-- .... ....
....|..|C#1 2F.A ....|--- .... ....|G#4 2F.A ....
....|..|--- .... ....|--- .... ....|R-- .... ....
 C#3|..|C#1 2A.F ....|--- .... ....|G#4 2F.F ....
....|..|R-- .... ....|--- .... ....|R-- .... ....
....|..|--- .... ....|--- .... ....|G#4 2F.A ....
....|..|--- .... ....|--- .... ....|R-- .... ....

[Pattern41]
 B-2|..|B-1 2A.F ....|--- .... ....|G#4 2F.7 ....
....|..|--- .... ....|--- .... ....|R-- .... ....
....|..|C#1 2F.A ....|--- .... ....|G#4 2F.A ....
....|..|R-- .... ....|--- .... ....|R-- .... ....
....|..|R-- .... ....|--- .... ....|D#4 2F.F ....
....|..|--- .... ....|--- .... ....|R-- .... ....
 B-2|..|B-1 2A.F ....|--- .... ....|--- .... ....
....|..|--- .... ....|G#5 2F.F ....|--- .... ....
....|..|C#1 2F.7 ....|D#5 2F.F ....|G#4 2F.7 ....
....|..|R-- .... ....|--- .... ....|R-- .... ....
....|..|R-- .... ....|--- .... ....|D#4 2F.A ....
....|..|--- .... ....|--- .... ....|R-- .... ....
 B-2|..|B-1 2A.F ....|--- .... ....|E-4 2F.F ....
....|..|--- .... ....|G#5 2F.A ....|--- .... ....
....|..|R-- .... ....|D#5 2F.A ....|--- .... ....
....|..|--- .... ....|--- .... ....|R-- .... ....
....|..|R-- .... ....|E-4 2F.F ....|G#2 2F.F ....
....|..|R-- .... ....|E-5 2F.F ....|R-- .... ....
....|..|B-1 2F.7 ....|--- .... ....|E-4 2F.A ....
....|..|--- .... ....|G#5 2F.7 ....|R-- .... ....
 B-2|..|B-1 2A.F ....|D#5 2F.7 ....|F#4 2F.F ....
....|..|--- .... ....|--- .... ....|--- .... ....
....|..|--- .... ....|E-4 2F.A ....|G#2 2F.A ....
....|..|R-- .... ....|E-5 2F.A ....|R-- .... ....
....|..|B-1 2F.7 ....|F#5 2F.F ....|E-2 2F.F ....
....|..|--- .... ....|--- .... ....|R-- .... ....
....|..|B-1 2F.A ....|--- .... ....|F#4 2F.A ....
....|..|--- .... ....|--- .... ....|F#2 2F.F ....
 B-2|..|B-1 2A.F ....|E-4 2F.7 ....|F#2 2F.F ....
....|..|R-- .... ....|E-5 2F.7 ....|--- .... ....
....|..|--- .... ....|F#5 2F.A ....|E-2 2F.A ....
....|..|--- .... ....|--- .... ....|R-- .... ....
 A-2|..|A-1 2A.F ....|R-- .... ....|E-2 2F.F ....
....|..|--- .... ....|--- .... ....|F#2 2F.A ....
....|..|B-1 2F.A ....|--- .... ....|F#2 2F.A ....
....|..|R-- .... ....|--- .... ....|--- .... ....
....|..|R-- .... ....|F#5 2F.7 ....|E-2 2F.7 ....
....|..|--- .... ....|--- .... ....|--- .... ....
 A-2|..|A-1 2A.F ....|R-- .... ....|E-2 2F.A ....
....|..|--- .... ....|--- .... ....|F#2 2F.7 ....
....|..|B-1 2F.7 ....|A-4 2F4F ....|F#4 2F.F ....
....|..|R-- .... ....|--- .... ....|--- .... ....
....|..|R-- .... ....|--- .... ....|--- .... ....
....|..|--- .... ....|--- .... ....|--- .... ....
 A-2|..|A-1 2A.F ....|R-- .... ....|E-2 2F.7 ....
....|..|--- .... ....|--- .... ....|R-- .... ....
....|..|R-- .... ....|A-4 2F4A ....|F#4 2F.A ....
....|..|--- .... ....|--- .... ....|--- .... ....
....|..|R-- .... ....|A-4 2F7F ....|E-4 2F.F ....
....|..|R-- .... ....|--- .... ....|--- .... ....
....|..|A-1 2F.7 ....|--- .... ....|--- .... ....
....|..|--- .... ....|--- .... ....|R-- .... ....
 A-2|..|A-1 2A.F ....|A-4 2F47 ....|F#4 2F.7 ....
....|..|--- .... ....|--- .... ....|R-- .... ....
....|..|--- .... ....|A-4 2F7A ....|E-4 2F.A ....
....|..|R-- .... ....|--- .... ....|--- .... ....
....|..|A-1 2F.7 ....|--- .... ....|--- .... ....
....|..|--- .... ....|--- .... ....|R-- .... ....
....|..|A-1 2F.A ....|R-- .... ....|--- .... ....
....|..|--- .... ....|--- .... ....|R-- .... ....
 A-2|..|A-1 2A.F ....|A-4 2F77 ....|A-4 2F.F ....
....|..|R-- .... ....|--- .... ....|--- .... ....
....|..|--- .... ....|--- .... ....|--- .... ....
....|..|--- .... ....|--- .... ....|--- .... ....

[Pattern42]
 F#3|..|F#1 2A.F ....|--- .... ....|R-- .... ....
....|..|--- .... ....|--- .... ....|R-- .... ....
....|..|A-1 2F.A ....|R-- .... ....|A-4 2F.A ....
....|..|R-- .... ....|--- .... ....|--- .... ....
....|..|R-- .... ....|--- .... ....|A-4 2F.F ....
....|..|--- .... ....|--- .... ....|R-- .... ....
 F#3|..|F#1 2A.F ....|--- .... ....|R-- .... ....
....|..|--- .... ....|--- .... ....|--- .... ....
....|..|A-1 2F.7 ....|--- .... ....|G#4 2F.F ....
....|..|R-- .... ....|--- .... ....|--- .... ....
....|..|R-- .... ....|--- .... ....|A-4 2F.A ....
....|..|--- .... ....|--- .... ....|R-- .... ....
 F#3|..|F#1 2A.F ....|--- .... ....|E-4 2F.F ....
....|..|--- .... ....|--- .... ....|--- .... ....
....|..|R-- .... ....|--- .... ....|G#4 2F.A ....
....|..|--- .... ....|--- .... ....|--- .... ....
 B-2|..|B-1 2A.F ....|--- .... ....|F#4 2F.F ....
....|..|--- .... ....|--- .... ....|R-- .... ....
....|..|F#1 2F.7 ....|--- .... ....|E-4 2F.A ....
....|..|--- .... ....|--- .... ....|--- .... ....
....|..|R-- .... ....|--- .... ....|E-4 2F.F ....
....|..|--- .... ....|--- .... ....|--- .... ....
 B-2|..|B-1 2A.F ....|--- .... ....|F#4 2F.A ....
....|..|--- .... ....|--- .... ....|R-- .... ....
....|..|F#1 2F.7 ....|--- .... ....|F#4 2F.F ....
....|..|--- .... ....|--- .... ....|--- .... ....
....|..|R-- .... ....|--- .... ....|E-4 2F.A ....
....|..|--- .... ....|--- .... ....|--- .... ....
 B-2|..|B-1 2A.F ....|--- .... ....|E-4 2F.F ....
....|..|--- .... ....|--- .... ....|--- .... ....
....|..|R-- .... ....|--- .... ....|F#4 2F.A ....
....|..|--- .... ....|--- .... ....|R-- .... ....
 E-3|..|E-1 2A.F ....|B-4 2F4F ....|E-4 2F.7 ....
....|..|--- .... ....|--- .... ....|E-3 2F.F ....
....|..|B-1 2F.7 ....|--- .... ....|E-4 2F.A ....
....|..|--- .... ....|--- .... ....|--- .... ....
....|..|R-- .... ....|--- .... ....|F#4 2F.7 ....
....|..|--- .... ....|--- .... ....|R-- .... ....
 E-3|..|E-1 2A.F ....|B-4 2F4A ....|--- .... ....
....|..|--- .... ....|--- .... ....|E-3 2F.A ....
....|..|B-1 2F.7 ....|--- .... ....|F#4 2F.F ....
....|..|--- .... ....|--- .... ....|--- .... ....
....|..|R-- .... ....|--- .... ....|--- .... ....
....|..|--- .... ....|--- .... ....|R-- .... ....
 E-3|..|E-1 2A.F ....|B-4 2F47 ....|E-4 2F.F ....
....|..|--- .... ....|--- .... ....|E-3 2F.7 ....
....|..|R-- .... ....|--- .... ....|F#4 2F.A ....
....|..|--- .... ....|--- .... ....|--- .... ....
....|..|R-- .... ....|--- .... ....|F#4 2F.F ....
....|..|R-- .... ....|--- .... ....|--- .... ....
....|..|E-1 2F.7 ....|--- .... ....|E-4 2F.A ....
....|..|--- .... ....|--- .... ....|R-- .... ....
 E-3|..|E-1 2A.F ....|--- .... ....|E-4 2F.F ....
....|..|--- .... ....|--- .... ....|R-- .... ....
....|..|--- .... ....|--- .... ....|F#4 2F.A ....
....|..|R-- .... ....|--- .... ....|R-- .... ....
....|..|E-1 2F.7 ....|--- .... ....|E-4 2F.F ....
....|..|--- .... ....|--- .... ....|R-- .... ....
....|..|E-1 2F.A ....|--- .... ....|E-4 2F.A ....
....|..|--- .... ....|--- .... ....|R-- .... ....
 E-3|..|E-1 2A.F ....|--- .... ....|D#4 2F.F ....
....|..|R-- .... ....|--- .... ....|R-- .... ....
....|..|--- .... ....|--- .... ....|E-4 2F.A ....
....|..|--- .... ....|--- .... ....|R-- .... ....

[Pattern43]
 C#3|..|C#1 2A.F ....|--- .... ....|C#4 2F.F ....
....|..|--- .... ....|--- .... ....|R-- .... ....
....|..|E-1 2F.A ....|--- .... ....|D#4 2F.A ....
....|..|R-- .... ....|--- .... ....|R-- .... ....
....|..|R-- .... ....|--- .... ....|E-4 2F.7 ....
....|..|--- .... ....|--- .... ....|--- .... ....
 C#3|..|C#1 2A.F ....|--- .... ....|C#4 2F.A ....
....|..|--- .... ....|--- .... ....|--- .... ....
....|..|E-1 2F.7 ....|--- .... ....|E-4 2F.F ....
....|..|R-- .... ....|--- .... ....|R-- .... ....
....|..|R-- .... ....|--- .... ....|--- .... ....
....|..|--- .... ....|--- .... ....|--- .... ....
 C#3|..|C#1 2A.F ....|--- .... ....|E-4 2F.F ....
....|..|--- .... ....|--- .... ....|--- .... ....
....|..|R-- .... ....|--- .... ....|E-4 2F.A ....
....|..|--- .... ....|--- .... ....|R-- .... ....
....|..|R-- .... ....|--- .... ....|F#4 2F.F ....
....|..|R-- .... ....|--- .... ....|--- .... ....
....|..|C#1 2F.7 ....|--- .... ....|E-4 2F.A ....
....|..|--- .... ....|--- .... ....|--- .... ....
 C#3|..|C#1 2A.F ....|--- .... ....|G#4 2F.F ....
....|..|--- .... ....|--- .... ....|R-- .... ....
....|..|--- .... ....|--- .... ....|F#4 2F.A ....
....|..|R-- .... ....|--- .... ....|--- .... ....
....|..|C#1 2F.7 ....|--- .... ....|F#4 2F.F ....
....|..|--- .... ....|--- .... ....|--- .... ....
....|..|C#1 2F.A ....|--- .... ....|G#4 2F.A ....
....|..|--- .... ....|--- .... ....|--- .... ....
 C#3|..|C#1 2A.F ....|--- .... ....|E-4 2F.F ....
....|..|R-- .... ....|--- .... ....|--- .... ....
....|..|--- .... ....|--- .... ....|F#4 2F.A ....
....|..|--- .... ....|--- .... ....|R-- .... ....
 A-2|..|A-1 2A.F ....|R-- .... ....|R-- .... ....
....|..|--- .... ....|--- .... ....|--- .... ....
....|..|C#1 2F.A ....|--- .... ....|E-4 2F.A ....
....|..|R-- .... ....|--- .... ....|--- .... ....
....|..|R-- .... ....|--- .... ....|F#4 2F.7 ....
....|..|--- .... ....|--- .... ....|R-- .... ....
 A-2|..|A-1 2A.F ....|R-- .... ....|R-- .... ....
....|..|--- .... ....|--- .... ....|--- .... ....
....|..|C#1 2F.7 ....|A-4 2F4F ....|F#4 2F.F ....
....|..|R-- .... ....|--- .... ....|--- .... ....
....|..|R-- .... ....|--- .... ....|--- .... ....
....|..|--- .... ....|--- .... ....|R-- .... ....
 A-2|..|A-1 2A.F ....|R-- .... ....|R-- .... ....
....|..|--- .... ....|--- .... ....|--- .... ....
....|..|R-- .... ....|A-4 2F4A ....|F#4 2F.A ....
....|..|--- .... ....|--- .... ....|--- .... ....
....|..|R-- .... ....|A-4 2F7F ....|E-4 2F.F ....
....|..|R-- .... ....|--- .... ....|--- .... ....
....|..|A-1 2F.7 ....|--- .... ....|--- .... ....
....|..|--- .... ....|--- .... ....|--- .... ....
 A-2|..|A-1 2A.F ....|A-4 2F47 ....|F#4 2F.7 ....
....|..|--- .... ....|--- .... ....|--- .... ....
....|..|--- .... ....|A-4 2F7A ....|E-4 2F.A ....
....|..|R-- .... ....|--- .... ....|--- .... ....
....|..|A-1 2F.7 ....|--- .... ....|--- .... ....
....|..|--- .... ....|--- .... ....|--- .... ....
....|..|A-1 2F.A ....|R-- .... ....|R-- .... ....
....|..|--- .... ....|--- .... ....|--- .... ....
 A-2|..|A-1 2A.F ....|A-4 2F77 ....|A-4 2F.F ....
....|..|R-- .... ....|--- .... ....|--- .... ....
....|..|--- .... ....|--- .... ....|R-- .... ....
....|..|--- .... ....|--- .... ....|--- .... ....

[Pattern44]
 F#3|..|F#1 2A.F ....|G#3 2F.F ....|R-- .... ....
....|..|--- .... ....|--- .... ....|--- .... ....
....|..|A-1 2F.A ....|A-3 2F.F ....|A-4 2F.A ....
....|..|R-- .... ....|--- .... ....|--- .... ....
....|..|R-- .... ....|A#3 2F.F ....|A-4 2F.F ....
....|..|--- .... ....|R-- .... ....|--- .... ....
 F#3|..|F#1 2A.F ....|B-3 2F.F ....|R-- .... ....
....|..|--- .... ....|--- .... ....|--- .... ....
....|..|A-1 2F.7 ....|C-4 2F.F ....|G#4 2F.F ....
....|..|R-- .... ....|--- .... ....|--- .... ....
....|..|R-- .... ....|A#3 2F.A ....|A-4 2F.A ....
....|..|--- .... ....|C#4 2F.F ....|R-- .... ....
 F#3|..|F#1 2A.F ....|D-4 2F.F ....|E-4 2F.F ....
....|..|--- .... ....|--- .... ....|--- .... ....
....|..|R-- .... ....|D#4 2F.F ....|G#4 2F.A ....
....|..|--- .... ....|--- .... ....|--- .... ....
 B-2|..|B-1 2A.F ....|A#3 2F.7 ....|F#4 2F.F ....
....|..|--- .... ....|E-4 2F.F ....|R-- .... ....
....|..|F#1 2F.7 ....|B-3 2F.7 ....|E-4 2F.A ....
....|..|--- .... ....|F-4 2F.F ....|R-- .... ....
....|..|R-- .... ....|F#4 2F.F ....|E-4 2F.F ....
....|..|--- .... ....|--- .... ....|--- .... ....
 B-2|..|B-1 2A.F ....|G-4 2F.F ....|F#4 2F.A ....
....|..|--- .... ....|C#4 2F.7 ....|R-- .... ....
....|..|F#1 2F.7 ....|G#4 2F.F ....|F#4 2F.F ....
....|..|--- .... ....|F-4 2F.A ....|R-- .... ....
....|..|R-- .... ....|A-4 2F.F ....|E-4 2F.A ....
....|..|--- .... ....|--- .... ....|R-- .... ....
 B-2|..|B-1 2A.F ....|A#4 2F.F ....|E-4 2F.F ....
....|..|--- .... ....|E-4 2F.7 ....|R-- .... ....
....|..|R-- .... ....|B-4 2F.F ....|F#4 2F.A ....
....|..|--- .... ....|F-4 2F.7 ....|R-- .... ....
....|..|R-- .... ....|E-6 UFFF ....|E-4 2F.7 ....
....|..|--- .... ....|--- .... ....|R-- .... ....
....|..|B-1 2F.7 ....|E-6 UFFF ....|E-4 2F.A ....
....|..|--- .... ....|R-- .... ....|R-- .... ....
....|..|R-- .... ....|B-6 UFFF ....|F#4 2F.7 ....
....|..|--- .... ....|R-- .... ....|R-- .... ....
....|..|R-- .... ....|E-6 UFFA ....|--- .... ....
....|..|--- .... ....|--- .... ....|R-- .... ....
....|..|B-1 2F.7 ....|E-6 UFFF ....|E-4 2F.7 ....
....|..|--- .... ....|R-- .... ....|--- .... ....
....|..|--- .... ....|E-5 UFFF ....|--- .... ....
....|..|--- .... ....|R-- .... ....|R-- .... ....
....|..|R-- .... ....|B-6 UFFF ....|--- .... ....
....|..|--- .... ....|R-- .... ....|--- .... ....
....|..|--- .... ....|E-6 UFF7 ....|--- .... ....
....|..|--- .... ....|R-- .... ....|--- .... ....
....|..|--- .... ....|E-6 UFFF ....|--- .... ....
....|..|--- .... ....|R-- .... ....|--- .... ....
....|..|--- .... ....|B-6 UFFA ....|--- .... ....
....|..|--- .... ....|R-- .... ....|--- .... ....
....|..|--- .... ....|B-6 UFFF ....|--- .... ....
....|..|--- .... ....|R-- .... ....|--- .... ....
....|..|--- .... ....|E-5 UFF7 ....|--- .... ....
....|..|--- .... ....|R-- .... ....|--- .... ....
....|..|--- .... ....|E-6 UFFF ....|--- .... ....
....|..|--- .... ....|R-- .... ....|--- .... ....
....|..|--- .... ....|E-5 UFFF ....|--- .... ....
....|..|--- .... ....|R-- .... ....|--- .... ....
....|..|--- .... ....|C-7 UFFF ....|--- .... ....
....|..|--- .... ....|--- .... ....|--- .... ....
....|..|--- .... ....|E-6 UFFA ....|--- .... ....
....|..|--- .... ....|--- .... ....|--- .... ....

[Pattern45]
....|..|--- .... ....|E-6 UFFF ....|--- .... ....
....|..|--- .... ....|R-- .... ....|--- .... ....
....|..|--- .... ....|C-7 UFFA ....|--- .... ....
....|..|--- .... ....|R-- .... ....|--- .... ....
....|..|--- .... ....|C-7 UFFF ....|--- .... ....
....|..|--- .... ....|R-- .... ....|--- .... ....
....|..|--- .... ....|E-5 UFF7 ....|--- .... ....
....|..|--- .... ....|R-- .... ....|--- .... ....
....|..|--- .... ....|E-6 UFFF ....|--- .... ....
....|..|--- .... ....|R-- .... ....|--- .... ....
....|..|--- .... ....|C-7 UFFA ....|--- .... ....
....|..|--- .... ....|R-- .... ....|--- .... ....
....|..|--- .... ....|C-7 UFFF ....|--- .... ....
....|..|--- .... ....|--- .... ....|--- .... ....
....|..|--- .... ....|E-6 UFFA ....|--- .... ....
....|..|--- .... ....|R-- .... ....|--- .... ....
....|..|--- .... ....|E-6 UFFF ....|--- .... ....
....|..|--- .... ....|R-- .... ....|--- .... ....
....|..|--- .... ....|C-7 UFFA ....|--- .... ....
....|..|--- .... ....|R-- .... ....|--- .... ....
....|..|--- .... ....|C-7 UFFF ....|--- .... ....
....|..|--- .... ....|--- .... ....|--- .... ....
....|..|--- .... ....|E-6 UFFA ....|--- .... ....
....|..|--- .... ....|R-- .... ....|--- .... ....
....|..|--- .... ....|E-6 UFFF ....|--- .... ....
....|..|--- .... ....|R-- .... ....|--- .... ....
....|..|--- .... ....|C-7 UFFA ....|--- .... ....
....|..|--- .... ....|R-- .... ....|--- .... ....
....|..|--- .... ....|B-6 UFFF ....|--- .... ....
....|..|--- .... ....|--- .... ....|--- .... ....
....|..|--- .... ....|E-6 UFFA ....|--- .... ....
....|..|--- .... ....|R-- .... ....|--- .... ....
....|..|--- .... ....|E-6 UFFF ....|--- .... ....
....|..|--- .... ....|R-- .... ....|--- .... ....
....|..|--- .... ....|E-6 UFFF ....|--- .... ....
....|..|--- .... ....|R-- .... ....|--- .... ....
....|..|--- .... ....|B-6 UFFF ....|--- .... ....
....|..|--- .... ....|--- .... ....|--- .... ....
....|..|--- .... ....|E-6 UFFA ....|--- .... ....
....|..|--- .... ....|R-- .... ....|--- .... ....
....|..|--- .... ....|E-6 UFFF ....|--- .... ....
....|..|--- .... ....|R-- .... ....|--- .... ....
....|..|--- .... ....|E-5 UFFF ....|--- .... ....
....|..|--- .... ....|R-- .... ....|--- .... ....
....|..|--- .... ....|B-6 UFFF ....|--- .... ....
....|..|--- .... ....|--- .... ....|--- .... ....
....|..|--- .... ....|E-6 UFF7 ....|--- .... ....
....|..|--- .... ....|R-- .... ....|--- .... ....
....|..|--- .... ....|E-6 UFFF ....|--- .... ....
....|..|--- .... ....|R-- .... ....|--- .... ....
....|..|--- .... ....|B-6 UFFA ....|--- .... ....
....|..|--- .... ....|R-- .... ....|--- .... ....
....|..|--- .... ....|B-6 UFFF ....|--- .... ....
....|..|--- .... ....|--- .... ....|--- .... ....
....|..|--- .... ....|E-5 UFF7 ....|--- .... ....
....|..|--- .... ....|R-- .... ....|--- .... ....
....|..|--- .... ....|E-6 UFFF ....|--- .... ....
....|..|--- .... ....|R-- .... ....|--- .... ....
....|..|--- .... ....|B-6 UFFA ....|--- .... ....
....|..|--- .... ....|R-- .... ....|--- .... ....
....|..|--- .... ....|C-7 UFFF ....|--- .... ....
....|..|--- .... ....|--- .... ....|--- .... ....
....|..|--- .... ....|E-6 UFFA ....|--- .... ....
....|..|--- .... ....|R-- .... ....|--- .... ....

[Pattern46]
....|..|--- .... ....|E-6 UFFF ....|--- .... ....
....|..|--- .... ....|R-- .... ....|--- .... ....
....|..|--- .... ....|C-7 UFFA ....|--- .... ....
....|..|--- .... ....|R-- .... ....|--- .... ....
....|..|--- .... ....|C-7 UFFF ....|--- .... ....
....|..|--- .... ....|--- .... ....|--- .... ....
....|..|--- .... ....|E-6 UFFA ....|--- .... ....
....|..|--- .... ....|R-- .... ....|--- .... ....
....|..|--- .... ....|E-6 UFFF ....|--- .... ....
....|..|--- .... ....|R-- .... ....|--- .... ....
....|..|--- .... ....|C-7 UFFA ....|--- .... ....
....|..|--- .... ....|R-- .... ....|--- .... ....
....|..|--- .... ....|C-7 UFFF ....|--- .... ....
....|..|--- .... ....|--- .... ....|--- .... ....
....|..|--- .... ....|E-6 UFFA ....|--- .... ....
....|..|--- .... ....|R-- .... ....|--- .... ....
....|..|--- .... ....|E-6 UFFF ....|--- .... ....
....|..|--- .... ....|R-- .... ....|--- .... ....
....|..|--- .... ....|C-7 UFFA ....|--- .... ....
....|..|--- .... ....|R-- .... ....|--- .... ....
....|..|--- .... ....|C-7 UFFF ....|--- .... ....
....|..|--- .... ....|--- .... ....|--- .... ....
....|..|--- .... ....|E-6 UFFA ....|--- .... ....
....|..|--- .... ....|R-- .... ....|--- .... ....
....|..|--- .... ....|E-6 UFFF ....|--- .... ....
....|..|--- .... ....|R-- .... ....|--- .... ....
....|..|--- .... ....|C-7 UFFA ....|--- .... ....
....|..|--- .... ....|R-- .... ....|--- .... ....
....|..|--- .... ....|B-6 UFFF ....|--- .... ....
....|..|--- .... ....|--- .... ....|--- .... ....
....|..|--- .... ....|E-6 UFFA ....|--- .... ....
....|..|--- .... ....|R-- .... ....|--- .... ....
....|..|--- .... ....|E-6 UFFF ....|--- .... ....
....|..|--- .... ....|R-- .... ....|--- .... ....
....|..|--- .... ....|E-6 UFFF ....|--- .... ....
....|..|--- .... ....|R-- .... ....|--- .... ....
....|..|--- .... ....|B-6 UFFF ....|--- .... ....
....|..|--- .... ....|--- .... ....|--- .... ....
....|..|--- .... ....|E-6 UFFA ....|--- .... ....
....|..|--- .... ....|R-- .... ....|--- .... ....
....|..|--- .... ....|E-6 UFFF ....|--- .... ....
....|..|--- .... ....|R-- .... ....|--- .... ....
....|..|--- .... ....|E-5 UFFF ....|--- .... ....
....|..|--- .... ....|R-- .... ....|--- .... ....
....|..|--- .... ....|B-6 UFFF ....|--- .... ....
....|..|--- .... ....|--- .... ....|--- .... ....
....|..|--- .... ....|E-6 UFF7 ....|--- .... ....
....|..|--- .... ....|R-- .... ....|--- .... ....
....|..|--- .... ....|E-6 UFFF ....|--- .... ....
....|..|--- .... ....|R-- .... ....|--- .... ....
....|..|--- .... ....|B-6 UFFA ....|--- .... ....
....|..|--- .... ....|R-- .... ....|--- .... ....
....|..|--- .... ....|B-6 UFFF ....|--- .... ....
....|..|--- .... ....|--- .... ....|--- .... ....
....|..|--- .... ....|E-5 UFF7 ....|--- .... ....
....|..|--- .... ....|R-- .... ....|--- .... ....
....|..|--- .... ....|E-6 UFFF ....|--- .... ....
....|..|--- .... ....|R-- .... ....|--- .... ....
....|..|--- .... ....|B-6 UFFA ....|--- .... ....
....|..|--- .... ....|R-- .... ....|--- .... ....
....|..|--- .... ....|C-7 UFFF ....|--- .... ....
....|..|--- .... ....|--- .... ....|--- .... ....
....|..|--- .... ....|E-6 UFFA ....|--- .... ....
....|..|--- .... ....|R-- .... ....|--- .... ....

[Pattern47]
 B-3|..|B-1 2A.F ....|E-6 UFFF ....|--- .... ....
....|..|R-- .... ....|R-- .... ....|--- .... ....
 B-3|..|B-1 2A.F ....|C-7 UFFA ....|--- .... ....
....|..|R-- .... ....|R-- .... ....|--- .... ....
 B-3|..|B-1 2A.F ....|C-7 UFFF ....|--- .... ....
....|..|R-- .... ....|--- .... ....|--- .... ....
 B-3|..|B-1 2A.F ....|E-6 UFFA ....|--- .... ....
....|..|R-- .... ....|R-- .... ....|--- .... ....
 B-3|..|B-1 2A.F ....|E-6 UFFF ....|--- .... ....
....|..|R-- .... ....|R-- .... ....|--- .... ....
 B-3|..|B-1 2A.F ....|C-7 UFFA ....|--- .... ....
....|..|R-- .... ....|R-- .... ....|--- .... ....
 B-3|..|B-1 2A.F ....|E-6 UFF7 ....|--- .... ....
....|..|R-- .... ....|C-7 UFFF ....|--- .... ....
 B-3|..|B-1 2A.F ....|E-6 UFFA ....|--- .... ....
....|..|R-- .... ....|R-- .... ....|--- .... ....
 B-3|..|B-1 2A.F ....|E-6 UFFF ....|--- .... ....
....|..|R-- .... ....|R-- .... ....|--- .... ....
 B-3|..|B-1 2A.F ....|R-- .... ....|--- .... ....
....|..|R-- .... ....|C-7 UFFA ....|--- .... ....
 B-3|..|B-1 2A.F ....|C-7 UFFF ....|--- .... ....
....|..|R-- .... ....|--- .... ....|--- .... ....
 B-3|..|B-1 2A.F ....|E-6 UFFA ....|--- .... ....
....|..|R-- .... ....|R-- .... ....|--- .... ....
 B-3|..|B-1 2A.F ....|E-6 UFFF ....|--- .... ....
....|..|R-- .... ....|E-6 UFFF ....|--- .... ....
 B-3|..|B-1 2A.F ....|C-7 UFFA ....|--- .... ....
....|..|R-- .... ....|R-- .... ....|--- .... ....
 B-3|..|B-1 2A.F ....|B-6 UFFF ....|--- .... ....
....|..|R-- .... ....|--- .... ....|--- .... ....
 B-3|..|B-1 2A.F ....|E-6 UFFA ....|--- .... ....
....|..|R-- .... ....|E-6 UFFA ....|--- .... ....
 B-3|..|B-1 2A.F ....|E-6 UFFF ....|--- .... ....
....|..|R-- .... ....|E-6 UFFF ....|--- .... ....
 B-3|..|B-1 2A.F ....|B-6 UFFA ....|--- .... ....
....|..|R-- .... ....|R-- .... ....|--- .... ....
 B-3|..|B-1 2A.F ....|B-6 UFFF ....|--- .... ....
....|..|R-- .... ....|E-6 UFF7 ....|--- .... ....
 B-3|..|B-1 2A.F ....|E-6 UFFA ....|--- .... ....
....|..|R-- .... ....|E-6 UFFA ....|--- .... ....
 B-3|..|B-1 2A.F ....|B-6 UFF7 ....|--- .... ....
....|..|R-- .... ....|E-6 UFFF ....|--- .... ....
 B-3|..|B-1 2A.F ....|B-6 UFFA ....|--- .... ....
....|..|R-- .... ....|R-- .... ....|--- .... ....
 B-3|..|B-1 2A.F ....|E-6 UFF7 ....|--- .... ....
....|..|R-- .... ....|B-6 UFFF ....|--- .... ....
 B-3|..|B-1 2A.F ....|R-- .... ....|--- .... ....
....|..|R-- .... ....|E-6 UFFA ....|--- .... ....
 B-3|..|B-1 2A.F ....|B-6 UFF7 ....|--- .... ....
....|..|R-- .... ....|E-6 UFFF ....|--- .... ....
 B-3|..|B-1 2A.F ....|R-- .... ....|--- .... ....
....|..|R-- .... ....|B-6 UFFA ....|--- .... ....
 B-3|..|B-1 2A.F ....|R-- .... ....|--- .... ....
....|..|R-- .... ....|B-6 UFFF ....|--- .... ....
 B-3|..|B-1 2A.F ....|R-- .... ....|--- .... ....
....|..|R-- .... ....|E-6 UFFA ....|--- .... ....
 B-3|..|B-1 2A.F ....|--- .... ....|--- .... ....
....|..|R-- .... ....|E-6 UFFF ....|--- .... ....
 B-3|..|B-1 2A.F ....|R-- .... ....|--- .... ....
....|..|R-- .... ....|B-6 UFFA ....|--- .... ....
 B-3|..|B-1 2A.F ....|R-- .... ....|--- .... ....
....|..|R-- .... ....|C-7 UFFF ....|--- .... ....
 B-3|..|B-1 2A.F ....|R-- .... ....|--- .... ....
....|..|R-- .... ....|E-6 UFFA ....|--- .... ....

[Pattern48]
 B-3|..|B-1 2A.F ....|--- .... ....|--- .... ....
....|..|R-- .... ....|E-6 UFFF ....|--- .... ....
 B-3|..|B-1 2A.F ....|R-- .... ....|--- .... ....
....|..|R-- .... ....|C-7 UFFA ....|--- .... ....
 B-3|..|B-1 2A.F ....|R-- .... ....|--- .... ....
....|..|R-- .... ....|C-7 UFFF ....|--- .... ....
 B-3|..|B-1 2A.F ....|R-- .... ....|--- .... ....
....|..|R-- .... ....|E-6 UFFA ....|--- .... ....
 B-3|..|B-1 2A.F ....|--- .... ....|--- .... ....
....|..|R-- .... ....|E-6 UFFF ....|--- .... ....
 B-3|..|B-1 2A.F ....|R-- .... ....|--- .... ....
....|..|R-- .... ....|C-7 UFFA ....|--- .... ....
 B-3|..|B-1 2A.F ....|R-- .... ....|--- .... ....
....|..|R-- .... ....|C-7 UFFF ....|--- .... ....
 B-3|..|B-1 2A.F ....|R-- .... ....|--- .... ....
....|..|R-- .... ....|E-6 UFFA ....|--- .... ....
 B-3|..|B-1 2A.F ....|--- .... ....|--- .... ....
....|..|R-- .... ....|E-6 UFFF ....|--- .... ....
 B-3|..|B-1 2A.F ....|R-- .... ....|--- .... ....
....|..|R-- .... ....|C-7 UFFA ....|--- .... ....
 B-3|..|B-1 2A.F ....|R-- .... ....|--- .... ....
....|..|R-- .... ....|C-7 UFFF ....|--- .... ....
 B-3|..|B-1 2A.F ....|R-- .... ....|--- .... ....
....|..|--- .... ....|E-6 UFFA ....|--- .... ....
 B-3|..|B-1 2A.F ....|--- .... ....|--- .... ....
....|..|--- .... ....|E-6 UFFF ....|--- .... ....
 B-3|..|B-1 2A.F ....|R-- .... ....|--- .... ....
....|..|--- .... ....|C-7 UFFA ....|--- .... ....
 B-3|..|B-1 2A.F ....|R-- .... ....|--- .... ....
....|..|--- .... ....|B-6 UFFF ....|--- .... ....
 B-3|..|B-1 2A.F ....|R-- .... ....|--- .... ....
....|..|--- .... ....|E-6 UFFA ....|--- .... ....
 B-3|..|B-1 2A.F ....|--- .... ....|--- .... ....
....|..|--- .... ....|C-7 UFF7 ....|--- .... ....
 B-3|..|B-1 2A.F ....|R-- .... ....|--- .... ....
....|..|--- .... ....|B-6 UFFA ....|--- .... ....
 B-3|..|B-1 2A.F ....|R-- .... ....|--- .... ....
....|..|--- .... ....|E-6 UFF7 ....|--- .... ....
 B-3|..|B-1 2A.F ....|--- .... ....|--- .... ....
....|..|--- .... ....|R-- .... ....|--- .... ....
 B-3|..|B-1 2A.F ....|--- .... ....|--- .... ....
....|..|--- .... ....|B-6 UFF7 ....|--- .... ....
 B-3|..|B-1 2A.F ....|R-- .... ....|--- .... ....
....|..|--- .... ....|--- .... ....|--- .... ....
 B-3|..|B-1 2A.F ....|--- .... ....|--- .... ....
....|..|--- .... ....|--- .... ....|--- .... ....
 B-3|..|B-1 2A.F ....|--- .... ....|--- .... ....
....|..|--- .... ....|--- .... ....|--- .... ....
 B-3|..|B-1 2A.F ....|--- .... ....|--- .... ....
....|..|--- .... ....|--- .... ....|--- .... ....
 B-3|..|B-1 2A.F ....|--- .... ....|--- .... ....
....|..|--- .... ....|--- .... ....|--- .... ....
 B-3|..|B-1 2A.F ....|--- .... ....|--- .... ....
....|..|--- .... ....|--- .... ....|--- .... ....
 B-3|..|B-1 2A.F ....|--- .... ....|--- .... ....
....|..|--- .... ....|--- .... ....|--- .... ....
 B-3|..|B-1 2A.F ....|--- .... ....|--- .... ....
....|..|--- .... ....|--- .... ....|--- .... ....
 B-3|..|B-1 2A.F ....|--- .... ....|--- .... ....
....|..|--- .... ....|--- .... ....|--- .... ....
 B-3|..|B-1 2A.F ....|--- .... ....|--- .... ....
....|..|--- .... ....|--- .... ....|--- .... ....
 B-3|..|B-1 2A.F ....|--- .... ....|--- .... ....
....|..|--- .... ....|--- .... ....|--- .... ....

[Pattern49]
....|..|B-1 2F.7 ....|G#4 2F3F ....|--- .... ....
 E-3|..|E-1 2A.F ....|B-4 2F1F ....|--- .... ....
....|..|B-1 2F.7 ....|R-- .... ....|--- .... ....
....|..|--- .... ....|--- .... ....|--- .... ....
....|..|B-1 2F.7 ....|--- .... ....|--- .... ....
....|..|R-- .... ....|B-4 2F1F ....|--- .... ....
....|..|B-1 2F.7 ....|G#4 2F3A ....|--- .... ....
 E-3|..|E-1 2A.F ....|B-4 2F1A ....|--- .... ....
....|..|B-1 2F.7 ....|R-- .... ....|--- .... ....
....|..|R-- .... ....|F#6 UFFF ....|F#4 2F.F ....
....|..|B-1 2F.7 ....|R-- .... ....|R-- .... ....
....|..|R-- .... ....|B-4 2F1A ....|--- .... ....
....|..|R-- .... ....|G#4 2F37 ....|--- .... ....
 E-3|..|E-1 2A.F ....|E-6 UFFF ....|E-4 2F.F ....
....|..|--- .... ....|R-- .... ....|R-- .... ....
....|..|R-- .... ....|F#6 UFFA ....|F#4 2F.A ....
....|..|--- .... ....|R-- .... ....|R-- .... ....
....|..|R-- .... ....|F#6 UFFF ....|F#4 2F.F ....
....|..|--- .... ....|R-- .... ....|--- .... ....
....|..|E-1 2F.7 ....|E-6 UFFA ....|E-4 2F.A ....
....|..|--- .... ....|R-- .... ....|R-- .... ....
 E-3|..|E-1 2A.F ....|E-6 UFFF ....|E-4 2F.F ....
....|..|--- .... ....|R-- .... ....|R-- .... ....
....|..|R-- .... ....|F#6 UFFA ....|F#4 2F.A ....
....|..|R-- .... ....|R-- .... ....|R-- .... ....
....|..|E-1 2F.7 ....|B-4 2F1F ....|E-4 2F.7 ....
....|..|--- .... ....|R-- .... ....|R-- .... ....
....|..|E-1 2F.A ....|E-6 UFFA ....|E-4 2F.A ....
....|..|--- .... ....|R-- .... ....|--- .... ....
 E-3|..|E-1 2A.F ....|B-4 2F1F ....|F#4 2F.7 ....
....|..|R-- .... ....|R-- .... ....|R-- .... ....
....|..|--- .... ....|B-4 2F1A ....|--- .... ....
....|..|--- .... ....|R-- .... ....|R-- .... ....
 E-3|..|E-1 2A.F ....|B-4 2F1F ....|E-4 2F.7 ....
....|..|--- .... ....|R-- .... ....|--- .... ....
....|..|E-1 2F.A ....|B-4 2F1A ....|--- .... ....
....|..|R-- .... ....|R-- .... ....|R-- .... ....
....|..|R-- .... ....|B-4 2F1F ....|--- .... ....
....|..|--- .... ....|R-- .... ....|--- .... ....
 E-3|..|E-1 2A.F ....|B-4 2F1A ....|--- .... ....
....|..|--- .... ....|R-- .... ....|--- .... ....
....|..|E-1 2F.7 ....|E-6 UFFF ....|E-4 2F.F ....
....|..|R-- .... ....|R-- .... ....|R-- .... ....
....|..|R-- .... ....|B-4 2F1A ....|--- .... ....
....|..|--- .... ....|R-- .... ....|--- .... ....
 E-3|..|E-1 2A.F ....|E-6 UFFF ....|E-4 2F.F ....
....|..|--- .... ....|R-- .... ....|R-- .... ....
....|..|R-- .... ....|E-6 UFFA ....|E-4 2F.A ....
....|..|--- .... ....|R-- .... ....|R-- .... ....
....|..|R-- .... ....|F#6 UFFF ....|F#4 2F.F ....
....|..|--- .... ....|R-- .... ....|--- .... ....
....|..|E-1 2F.7 ....|E-6 UFFA ....|E-4 2F.A ....
....|..|--- .... ....|R-- .... ....|R-- .... ....
 E-3|..|E-1 2A.F ....|G#6 UFFF ....|G#4 2F.F ....
....|..|--- .... ....|R-- .... ....|R-- .... ....
....|..|R-- .... ....|F#6 UFFA ....|F#4 2F.A ....
....|..|R-- .... ....|R-- .... ....|--- .... ....
....|..|E-1 2F.7 ....|F#6 UFFF ....|F#4 2F.F ....
....|..|--- .... ....|R-- .... ....|R-- .... ....
....|..|E-1 2F.A ....|G#6 UFFA ....|G#4 2F.A ....
....|..|--- .... ....|E-6 UFFF ....|R-- .... ....
 E-3|..|E-1 2A.F ....|E-6 UFFF ....|E-4 2F.F ....
....|..|R-- .... ....|R-- .... ....|--- .... ....
....|..|--- .... ....|F#6 UFFA ....|F#4 2F.A ....

[Pattern50]
....|..|--- .... ....|G#4 2FDF ....|R-- .... ....
 A-2|..|A-1 2A.F ....|C#4 2F3F ....|G#4 2F.7 ....
....|..|--- .... ....|E-6 UFFA ....|R-- .... ....
....|..|E-1 2F.A ....|E-6 UFFA ....|E-4 2F.A ....
....|..|R-- .... ....|R-- .... ....|--- .... ....
....|..|R-- .... ....|C#4 2F3F ....|F#4 2F.7 ....
....|..|--- .... ....|G#4 2FDA ....|R-- .... ....
 A-2|..|A-1 2A.F ....|C#4 2F3A ....|--- .... ....
....|..|--- .... ....|R-- .... ....|R-- .... ....
....|..|E-1 2F.7 ....|F#6 UFFF ....|F#4 2F.F ....
....|..|R-- .... ....|R-- .... ....|--- .... ....
....|..|R-- .... ....|C#4 2F3A ....|--- .... ....
....|..|--- .... ....|G#4 2FD7 ....|R-- .... ....
 A-2|..|A-1 2A.F ....|C#4 2F3F ....|--- .... ....
....|..|--- .... ....|R-- .... ....|R-- .... ....
....|..|R-- .... ....|F#6 UFFA ....|F#4 2F.A ....
....|..|--- .... ....|R-- .... ....|--- .... ....
....|..|R-- .... ....|E-6 UFFF ....|E-4 2F.F ....
....|..|--- .... ....|R-- .... ....|--- .... ....
....|..|A-1 2F.7 ....|C#4 2F3A ....|--- .... ....
....|..|--- .... ....|R-- .... ....|R-- .... ....
 A-2|..|A-1 2A.F ....|C#4 2F3F ....|F#4 2F.7 ....
....|..|--- .... ....|R-- .... ....|--- .... ....
....|..|R-- .... ....|E-6 UFFA ....|E-4 2F.A ....
....|..|R-- .... ....|R-- .... ....|--- .... ....
....|..|A-1 2F.7 ....|C#4 2F3F ....|--- .... ....
....|..|--- .... ....|R-- .... ....|R-- .... ....
....|..|A-1 2F.A ....|C#4 2F3A ....|--- .... ....
....|..|--- .... ....|R-- .... ....|--- .... ....
 A-2|..|A-1 2A.F ....|A-6 UFFF ....|A-4 2F.F ....
....|..|R-- .... ....|R-- .... ....|--- .... ....
....|..|--- .... ....|C#4 2F3A ....|--- .... ....
....|..|--- .... ....|R-- .... ....|R-- .... ....
 A-2|..|A-1 2A.F ....|C#4 2F3F ....|--- .... ....
....|..|--- .... ....|R-- .... ....|--- .... ....
....|..|A-1 2F.A ....|A-6 UFFA ....|A-4 2F.A ....
....|..|R-- .... ....|R-- .... ....|--- .... ....
....|..|R-- .... ....|A-6 UFFF ....|A-4 2F.F ....
....|..|--- .... ....|R-- .... ....|R-- .... ....
 A-2|..|A-1 2A.F ....|C#4 2F3A ....|--- .... ....
....|..|--- .... ....|R-- .... ....|--- .... ....
....|..|A-1 2F.7 ....|A-6 UFFF ....|A-4 2F.F ....
....|..|R-- .... ....|R-- .... ....|R-- .... ....
....|..|R-- .... ....|A-6 UFFA ....|A-4 2F.A ....
....|..|--- .... ....|R-- .... ....|R-- .... ....
 A-2|..|A-1 2A.F ....|A-6 UFFF ....|A-4 2F.F ....
....|..|--- .... ....|R-- .... ....|--- .... ....
....|..|R-- .... ....|A-6 UFFA ....|A-4 2F.A ....
....|..|--- .... ....|R-- .... ....|R-- .... ....
....|..|R-- .... ....|G#6 UFFF ....|G#4 2F.F ....
....|..|--- .... ....|R-- .... ....|R-- .... ....
....|..|A-1 2F.7 ....|A-6 UFFA ....|A-4 2F.A ....
....|..|--- .... ....|R-- .... ....|--- .... ....
 A-2|..|A-1 2A.F ....|C#4 2F3F ....|A-4 2F.7 ....
....|..|--- .... ....|R-- .... ....|R-- .... ....
....|..|R-- .... ....|G#6 UFFA ....|G#4 2F.A ....
....|..|R-- .... ....|R-- .... ....|R-- .... ....
....|..|A-1 2F.7 ....|E-6 UFFF ....|E-4 2F.F ....
....|..|--- .... ....|E-6 UFFF ....|--- .... ....
....|..|A-1 2F.A ....|C#4 2F3A ....|R-- .... ....
....|..|--- .... ....|R-- .... ....|--- .... ....
 A-2|..|A-1 2A.F ....|C#4 2F3F ....|G#4 2F.7 ....
....|..|R-- .... ....|R-- .... ....|R-- .... ....
....|..|--- .... ....|E-6 UFFA ....|E-4 2F.A ....

[Pattern51]
....|..|--- .... ....|E-6 UFFA ....|--- .... ....
 E-3|..|E-1 2A.F ....|B-4 2F1F ....|--- .... ....
....|..|--- .... ....|R-- .... ....|--- .... ....
....|..|A-1 2F.A ....|C#4 2F3A ....|R-- .... ....
....|..|R-- .... ....|R-- .... ....|R-- .... ....
....|..|R-- .... ....|B-4 2F1F ....|E-4 2F.7 ....
....|..|--- .... ....|E-6 UFF7 ....|--- .... ....
 E-3|..|E-1 2A.F ....|B-4 2F1A ....|--- .... ....
....|..|--- .... ....|R-- .... ....|--- .... ....
....|..|A-1 2F.7 ....|F#6 UFFF ....|F#4 2F.F ....
....|..|R-- .... ....|R-- .... ....|--- .... ....
....|..|R-- .... ....|B-4 2F1A ....|--- .... ....
....|..|--- .... ....|R-- .... ....|R-- .... ....
 E-3|..|E-1 2A.F ....|E-6 UFFF ....|E-4 2F.F ....
....|..|--- .... ....|R-- .... ....|R-- .... ....
....|..|R-- .... ....|F#6 UFFA ....|F#4 2F.A ....
....|..|--- .... ....|R-- .... ....|--- .... ....
....|..|R-- .... ....|F#6 UFFF ....|F#4 2F.F ....
....|..|--- .... ....|R-- .... ....|R-- .... ....
....|..|E-1 2F.7 ....|E-6 UFFA ....|E-4 2F.A ....
....|..|--- .... ....|R-- .... ....|R-- .... ....
 E-3|..|E-1 2A.F ....|E-6 UFFF ....|E-4 2F.F ....
....|..|--- .... ....|R-- .... ....|--- .... ....
....|..|R-- .... ....|F#6 UFFA ....|F#4 2F.A ....
....|..|R-- .... ....|R-- .... ....|R-- .... ....
....|..|E-1 2F.7 ....|B-4 2F1F ....|E-4 2F.7 ....
....|..|--- .... ....|R-- .... ....|R-- .... ....
....|..|E-1 2F.A ....|E-6 UFFA ....|E-4 2F.A ....
....|..|--- .... ....|R-- .... ....|--- .... ....
 E-3|..|E-1 2A.F ....|B-4 2F1F ....|F#4 2F.7 ....
....|..|R-- .... ....|R-- .... ....|R-- .... ....
....|..|--- .... ....|B-4 2F1A ....|--- .... ....
....|..|--- .... ....|R-- .... ....|R-- .... ....
 E-3|..|E-1 2A.F ....|B-4 2F1F ....|E-4 2F.7 ....
....|..|--- .... ....|R-- .... ....|--- .... ....
....|..|E-1 2F.A ....|B-4 2F1A ....|--- .... ....
....|..|R-- .... ....|R-- .... ....|R-- .... ....
....|..|R-- .... ....|B-4 2F1F ....|--- .... ....
....|..|--- .... ....|R-- .... ....|--- .... ....
 E-3|..|E-1 2A.F ....|B-4 2F1A ....|--- .... ....
....|..|--- .... ....|R-- .... ....|--- .... ....
....|..|E-1 2F.7 ....|E-6 UFFF ....|E-4 2F.F ....
....|..|R-- .... ....|R-- .... ....|R-- .... ....
....|..|R-- .... ....|B-4 2F1A ....|--- .... ....
....|..|--- .... ....|R-- .... ....|--- .... ....
 E-3|..|E-1 2A.F ....|E-6 UFFF ....|E-4 2F.F ....
....|..|--- .... ....|R-- .... ....|R-- .... ....
....|..|R-- .... ....|E-6 UFFA ....|E-4 2F.A ....
....|..|--- .... ....|R-- .... ....|R-- .... ....
....|..|R-- .... ....|F#6 UFFF ....|F#4 2F.F ....
....|..|--- .... ....|R-- .... ....|--- .... ....
....|..|E-1 2F.7 ....|E-6 UFFA ....|E-4 2F.A ....
....|..|--- .... ....|R-- .... ....|R-- .... ....
 E-3|..|E-1 2A.F ....|G#6 UFFF ....|G#4 2F.F ....
....|..|--- .... ....|R-- .... ....|R-- .... ....
....|..|R-- .... ....|F#6 UFFA ....|F#4 2F.A ....
....|..|R-- .... ....|R-- .... ....|--- .... ....
....|..|E-1 2F.7 ....|F#6 UFFF ....|F#4 2F.F ....
....|..|--- .... ....|R-- .... ....|R-- .... ....
....|..|E-1 2F.A ....|G#6 UFFA ....|G#4 2F.A ....
....|..|--- .... ....|E-6 UFFF ....|--- .... ....
 E-3|..|E-1 2A.F ....|E-6 UFFF ....|E-4 2F.F ....
....|..|R-- .... ....|R-- .... ....|--- .... ....
....|..|--- .... ....|F#6 UFFA ....|F#4 2F.A ....

[Pattern52]
....|..|--- .... ....|R-- .... ....|R-- .... ....
 A-2|..|A-1 2A.F ....|C#4 2F3F ....|G#4 2F.7 ....
....|..|--- .... ....|E-6 UFFA ....|--- .... ....
....|..|E-1 2F.A ....|E-6 UFFA ....|E-4 2F.A ....
....|..|R-- .... ....|R-- .... ....|--- .... ....
....|..|R-- .... ....|C#4 2F3F ....|F#4 2F.7 ....
....|..|--- .... ....|R-- .... ....|R-- .... ....
 A-2|..|A-1 2A.F ....|C#4 2F3A ....|R-- .... ....
....|..|--- .... ....|R-- .... ....|--- .... ....
....|..|E-1 2F.7 ....|F#6 UFFF ....|F#4 2F.F ....
....|..|R-- .... ....|R-- .... ....|--- .... ....
....|..|R-- .... ....|C#4 2F3A ....|--- .... ....
....|..|--- .... ....|R-- .... ....|R-- .... ....
 A-2|..|A-1 2A.F ....|C#4 2F3F ....|--- .... ....
....|..|--- .... ....|R-- .... ....|--- .... ....
....|..|R-- .... ....|F#6 UFFA ....|F#4 2F.A ....
....|..|--- .... ....|R-- .... ....|R-- .... ....
....|..|R-- .... ....|E-6 UFFF ....|E-4 2F.F ....
....|..|--- .... ....|R-- .... ....|--- .... ....
....|..|A-1 2F.7 ....|C#4 2F3A ....|--- .... ....
....|..|--- .... ....|R-- .... ....|--- .... ....
 A-2|..|A-1 2A.F ....|C#4 2F3F ....|F#4 2F.7 ....
....|..|--- .... ....|R-- .... ....|R-- .... ....
....|..|R-- .... ....|E-6 UFFA ....|E-4 2F.A ....
....|..|R-- .... ....|R-- .... ....|--- .... ....
....|..|A-1 2F.7 ....|C#4 2F3F ....|R-- .... ....
....|..|--- .... ....|R-- .... ....|--- .... ....
....|..|A-1 2F.A ....|C#4 2F3A ....|--- .... ....
....|..|--- .... ....|R-- .... ....|R-- .... ....
 A-2|..|A-1 2A.F ....|A-6 UFFF ....|A-4 2F.F ....
....|..|R-- .... ....|R-- .... ....|--- .... ....
....|..|--- .... ....|C#4 2F3A ....|R-- .... ....
....|..|--- .... ....|R-- .... ....|--- .... ....
 A-2|..|A-1 2A.F ....|C#4 2F3F ....|--- .... ....
....|..|--- .... ....|R-- .... ....|--- .... ....
....|..|A-1 2F.A ....|A-6 UFFA ....|A-4 2F.A ....
....|..|R-- .... ....|R-- .... ....|--- .... ....
....|..|R-- .... ....|A-6 UFFF ....|A-4 2F.F ....
....|..|--- .... ....|R-- .... ....|R-- .... ....
 A-2|..|A-1 2A.F ....|C#4 2F3A ....|--- .... ....
....|..|--- .... ....|R-- .... ....|--- .... ....
....|..|A-1 2F.7 ....|A-6 UFFF ....|A-4 2F.F ....
....|..|R-- .... ....|R-- .... ....|R-- .... ....
....|..|R-- .... ....|A-6 UFFA ....|A-4 2F.A ....
....|..|--- .... ....|R-- .... ....|R-- .... ....
 A-2|..|A-1 2A.F ....|A-6 UFFF ....|A-4 2F.F ....
....|..|--- .... ....|R-- .... ....|--- .... ....
....|..|R-- .... ....|A-6 UFFA ....|A-4 2F.A ....
....|..|--- .... ....|R-- .... ....|R-- .... ....
....|..|R-- .... ....|G#6 UFFF ....|G#4 2F.F ....
....|..|--- .... ....|R-- .... ....|R-- .... ....
....|..|A-1 2F.7 ....|A-6 UFFA ....|A-4 2F.A ....
....|..|--- .... ....|R-- .... ....|--- .... ....
 A-2|..|A-1 2A.F ....|C#4 2F3F ....|A-4 2F.7 ....
....|..|--- .... ....|R-- .... ....|R-- .... ....
....|..|R-- .... ....|G#6 UFFA ....|G#4 2F.A ....
....|..|R-- .... ....|R-- .... ....|R-- .... ....
....|..|A-1 2F.7 ....|E-6 UFFF ....|E-4 2F.F ....
....|..|--- .... ....|E-6 UFFF ....|--- .... ....
....|..|A-1 2F.A ....|C#4 2F3A ....|R-- .... ....
....|..|--- .... ....|R-- .... ....|--- .... ....
 A-2|..|A-1 2A.F ....|C#4 2F3F ....|G#4 2F.7 ....
....|..|R-- .... ....|R-- .... ....|R-- .... ....
....|..|--- .... ....|E-6 UFFA ....|E-4 2F.A ....

[Pattern53]
....|..|--- .... ....|E-6 UFFA ....|--- .... ....
 E-3|..|E-1 2A.F ....|B-5 2F.F ....|--- .... ....
....|..|--- .... ....|R-- .... ....|--- .... ....
....|..|A-1 2F.A ....|C#4 2F3A ....|--- .... ....
....|..|R-- .... ....|R-- .... ....|R-- .... ....
....|..|R-- .... ....|E-6 UFF7 ....|E-4 2F.7 ....
....|..|--- .... ....|E-6 UFF7 ....|--- .... ....
 E-3|..|E-1 2A.F ....|B-5 2F.A ....|--- .... ....
....|..|--- .... ....|--- .... ....|--- .... ....
....|..|A-1 2F.7 ....|C#4 2F37 ....|B-4 2F.F ....
....|..|R-- .... ....|R-- .... ....|--- .... ....
....|..|R-- .... ....|--- .... ....|R-- .... ....
....|..|--- .... ....|--- .... ....|--- .... ....
 E-3|..|E-1 2A.F ....|B-5 2F.7 ....|--- .... ....
....|..|--- .... ....|--- .... ....|--- .... ....
....|..|R-- .... ....|--- .... ....|B-4 2F.A ....
....|..|--- .... ....|--- .... ....|--- .... ....
....|..|R-- .... ....|--- .... ....|R-- .... ....
....|..|--- .... ....|--- .... ....|--- .... ....
....|..|E-1 2F.7 ....|--- .... ....|--- .... ....
....|..|--- .... ....|--- .... ....|--- .... ....
 E-3|..|E-1 2A.F ....|--- .... ....|B-4 2F.F ....
....|..|--- .... ....|--- .... ....|R-- .... ....
....|..|R-- .... ....|--- .... ....|R-- .... ....
....|..|R-- .... ....|--- .... ....|--- .... ....
....|..|E-1 2F.7 ....|--- .... ....|B-4 2F.F ....
....|..|--- .... ....|--- .... ....|R-- .... ....
....|..|E-1 2F.A ....|--- .... ....|B-4 2F.A ....
....|..|--- .... ....|--- .... ....|R-- .... ....
 E-3|..|E-1 2A.F ....|--- .... ....|B-4 2F.F ....
....|..|R-- .... ....|--- .... ....|--- .... ....
....|..|--- .... ....|--- .... ....|B-4 2F.A ....
....|..|--- .... ....|--- .... ....|R-- .... ....
 D#3|..|D#1 2A.F ....|--- .... ....|B-4 2F.7 ....
....|..|--- .... ....|--- .... ....|R-- .... ....
....|..|E-1 2F.A ....|--- .... ....|B-4 2F.A ....
....|..|R-- .... ....|--- .... ....|--- .... ....
....|..|R-- .... ....|--- .... ....|F#4 2F.F ....
....|..|--- .... ....|--- .... ....|R-- .... ....
 D#3|..|D#1 2A.F ....|--- .... ....|--- .... ....
....|..|--- .... ....|F#4 2F4F ....|R-- .... ....
....|..|E-1 2F.7 ....|F#5 2F.F ....|B-4 2F.7 ....
....|..|R-- .... ....|--- .... ....|R-- .... ....
....|..|R-- .... ....|--- .... ....|F#4 2F.A ....
....|..|--- .... ....|--- .... ....|--- .... ....
 D#3|..|D#1 2A.F ....|--- .... ....|G#4 2F.F ....
....|..|--- .... ....|F#4 2F4A ....|R-- .... ....
....|..|R-- .... ....|F#5 2F.A ....|--- .... ....
....|..|--- .... ....|--- .... ....|B-2 2F.F ....
....|..|R-- .... ....|G#5 2F.F ....|F#4 2F.7 ....
....|..|--- .... ....|--- .... ....|--- .... ....
....|..|D#1 2F.7 ....|--- .... ....|G#4 2F.A ....
....|..|--- .... ....|F#4 2F47 ....|--- .... ....
 D#3|..|D#1 2A.F ....|F#5 2F.7 ....|A-4 2F.F ....
....|..|--- .... ....|--- .... ....|B-2 2F.A ....
....|..|R-- .... ....|G#5 2F.A ....|--- .... ....
....|..|R-- .... ....|G#4 2FEF ....|A-2 2F.F ....
....|..|D#1 2F.7 ....|A-5 2F.F ....|G#2 2F.F ....
....|..|--- .... ....|--- .... ....|--- .... ....
....|..|D#1 2F.A ....|--- .... ....|A-4 2F.A ....
....|..|--- .... ....|--- .... ....|A-2 2F.F ....
 D#3|..|D#1 2A.F ....|G#5 2F.7 ....|--- .... ....
....|..|R-- .... ....|G#4 2FEA ....|A-2 2F.A ....
....|..|--- .... ....|A-5 2F.A ....|G#2 2F.A ....

[Pattern54]
....|..|--- .... ....|A-5 2F.F ....|G#2 2F.F ....
 C#3|..|C#1 2A.F ....|G#5 2F.F ....|A-4 2F.7 ....
....|..|--- .... ....|--- .... ....|A-2 2F.A ....
....|..|D#1 2F.A ....|--- .... ....|--- .... ....
....|..|R-- .... ....|G#4 2FE7 ....|A-2 2F.7 ....
....|..|R-- .... ....|A-5 2F.7 ....|G#2 2F.7 ....
....|..|--- .... ....|A-5 2F.A ....|G#2 2F.A ....
 C#3|..|C#1 2A.F ....|G#5 2F.A ....|--- .... ....
....|..|--- .... ....|--- .... ....|A-2 2F.7 ....
....|..|D#1 2F.7 ....|--- .... ....|G#4 2F.F ....
....|..|R-- .... ....|--- .... ....|R-- .... ....
....|..|R-- .... ....|--- .... ....|--- .... ....
....|..|--- .... ....|A-5 2F.7 ....|G#2 2F.7 ....
 C#3|..|C#1 2A.F ....|G#5 2F.7 ....|--- .... ....
....|..|--- .... ....|--- .... ....|--- .... ....
....|..|R-- .... ....|--- .... ....|G#4 2F.A ....
....|..|--- .... ....|--- .... ....|R-- .... ....
....|..|R-- .... ....|--- .... ....|R-- .... ....
....|..|--- .... ....|--- .... ....|--- .... ....
....|..|C#1 2F.7 ....|--- .... ....|--- .... ....
....|..|--- .... ....|--- .... ....|--- .... ....
 C#3|..|C#1 2A.F ....|--- .... ....|G#4 2F.F ....
....|..|--- .... ....|--- .... ....|R-- .... ....
....|..|R-- .... ....|--- .... ....|R-- .... ....
....|..|R-- .... ....|--- .... ....|--- .... ....
....|..|C#1 2F.7 ....|--- .... ....|G#4 2F.F ....
....|..|--- .... ....|--- .... ....|R-- .... ....
....|..|C#1 2F.A ....|--- .... ....|G#4 2F.A ....
....|..|--- .... ....|--- .... ....|R-- .... ....
 C#3|..|C#1 2A.F ....|--- .... ....|G#4 2F.F ....
....|..|R-- .... ....|--- .... ....|--- .... ....
....|..|--- .... ....|--- .... ....|G#4 2F.A ....
....|..|--- .... ....|--- .... ....|R-- .... ....
 B-2|..|B-1 2A.F ....|--- .... ....|G#4 2F.7 ....
....|..|--- .... ....|--- .... ....|R-- .... ....
....|..|C#1 2F.A ....|--- .... ....|G#4 2F.A ....
....|..|R-- .... ....|--- .... ....|--- .... ....
....|..|R-- .... ....|--- .... ....|D#4 2F.F ....
....|..|--- .... ....|--- .... ....|R-- .... ....
 B-2|..|B-1 2A.F ....|--- .... ....|--- .... ....
....|..|--- .... ....|D#5 2F.F ....|--- .... ....
....|..|C#1 2F.7 ....|--- .... ....|G#4 2F.7 ....
....|..|R-- .... ....|--- .... ....|--- .... ....
....|..|R-- .... ....|--- .... ....|D#4 2F.A ....
....|..|--- .... ....|--- .... ....|--- .... ....
 B-2|..|B-1 2A.F ....|--- .... ....|E-4 2F.F ....
....|..|--- .... ....|D#5 2F.A ....|--- .... ....
....|..|R-- .... ....|--- .... ....|R-- .... ....
....|..|--- .... ....|--- .... ....|G#2 2F.F ....
....|..|R-- .... ....|E-5 2F.F ....|D#4 2F.7 ....
....|..|--- .... ....|--- .... ....|--- .... ....
....|..|B-1 2F.7 ....|--- .... ....|E-4 2F.A ....
....|..|--- .... ....|D#5 2F.7 ....|G#2 2F.F ....
 B-2|..|B-1 2A.F ....|--- .... ....|F#4 2F.F ....
....|..|--- .... ....|--- .... ....|G#2 2F.A ....
....|..|R-- .... ....|E-5 2F.A ....|R-- .... ....
....|..|R-- .... ....|E-4 2FCF ....|E-2 2F.F ....
....|..|B-1 2F.7 ....|F#5 2F.F ....|E-4 2F.7 ....
....|..|--- .... ....|--- .... ....|G#2 2F.A ....
....|..|B-1 2F.A ....|--- .... ....|F#4 2F.A ....
....|..|--- .... ....|--- .... ....|F#2 2F.F ....
 B-2|..|B-1 2A.F ....|E-5 2F.7 ....|--- .... ....
....|..|R-- .... ....|E-4 2FCA ....|E-2 2F.A ....
....|..|--- .... ....|F#5 2F.A ....|--- .... ....

[Pattern55]
....|..|--- .... ....|--- .... ....|E-2 2F.F ....
 A-2|..|A-1 2A.F ....|R-- .... ....|F#4 2F.7 ....
....|..|--- .... ....|--- .... ....|F#2 2F.A ....
....|..|B-1 2F.A ....|--- .... ....|--- .... ....
....|..|R-- .... ....|E-4 2FC7 ....|E-2 2F.7 ....
....|..|R-- .... ....|F#5 2F.7 ....|--- .... ....
....|..|--- .... ....|--- .... ....|E-2 2F.A ....
 A-2|..|A-1 2A.F ....|R-- .... ....|R-- .... ....
....|..|--- .... ....|--- .... ....|F#2 2F.7 ....
....|..|B-1 2F.7 ....|A-4 2F4F ....|F#4 2F.F ....
....|..|R-- .... ....|--- .... ....|--- .... ....
....|..|R-- .... ....|--- .... ....|--- .... ....
....|..|--- .... ....|--- .... ....|E-2 2F.7 ....
 A-2|..|A-1 2A.F ....|R-- .... ....|--- .... ....
....|..|--- .... ....|R-- .... ....|R-- .... ....
....|..|R-- .... ....|A-4 2F4A ....|F#4 2F.A ....
....|..|--- .... ....|--- .... ....|--- .... ....
....|..|R-- .... ....|A-4 2F7F ....|E-4 2F.F ....
....|..|--- .... ....|--- .... ....|--- .... ....
....|..|A-1 2F.7 ....|--- .... ....|--- .... ....
....|..|--- .... ....|R-- .... ....|R-- .... ....
 A-2|..|A-1 2A.F ....|A-4 2F47 ....|F#4 2F.7 ....
....|..|--- .... ....|A-4 2F.F ....|R-- .... ....
....|..|R-- .... ....|A-4 2F7A ....|E-4 2F.A ....
....|..|R-- .... ....|--- .... ....|--- .... ....
....|..|A-1 2F.7 ....|--- .... ....|--- .... ....
....|..|--- .... ....|R-- .... ....|R-- .... ....
....|..|A-1 2F.A ....|--- .... ....|--- .... ....
....|..|--- .... ....|A-4 2F.A ....|R-- .... ....
 A-2|..|A-1 2A.F ....|A-4 2F77 ....|A-4 2F.F ....
....|..|R-- .... ....|--- .... ....|--- .... ....
....|..|--- .... ....|--- .... ....|--- .... ....
....|..|--- .... ....|--- .... ....|--- .... ....
 F#3|..|F#1 2A.F ....|--- .... ....|R-- .... ....
....|..|--- .... ....|A-4 2F.7 ....|R-- .... ....
....|..|A-1 2F.A ....|R-- .... ....|A-4 2F.A ....
....|..|R-- .... ....|--- .... ....|--- .... ....
....|..|R-- .... ....|--- .... ....|A-4 2F.F ....
....|..|--- .... ....|--- .... ....|R-- .... ....
 F#3|..|F#1 2A.F ....|--- .... ....|R-- .... ....
....|..|--- .... ....|--- .... ....|--- .... ....
....|..|A-1 2F.7 ....|--- .... ....|G#4 2F.F ....
....|..|R-- .... ....|--- .... ....|--- .... ....
....|..|R-- .... ....|--- .... ....|A-4 2F.A ....
....|..|--- .... ....|--- .... ....|R-- .... ....
 F#3|..|F#1 2A.F ....|--- .... ....|E-4 2F.F ....
....|..|--- .... ....|--- .... ....|--- .... ....
....|..|R-- .... ....|--- .... ....|G#4 2F.A ....
....|..|R-- .... ....|--- .... ....|--- .... ....
 B-2|..|B-1 2A.F ....|--- .... ....|F#4 2F.F ....
....|..|--- .... ....|--- .... ....|R-- .... ....
....|..|F#1 2F.7 ....|--- .... ....|E-4 2F.A ....
....|..|--- .... ....|--- .... ....|R-- .... ....
....|..|R-- .... ....|--- .... ....|E-4 2F.F ....
....|..|R-- .... ....|--- .... ....|--- .... ....
 B-2|..|B-1 2A.F ....|--- .... ....|F#4 2F.A ....
....|..|--- .... ....|--- .... ....|R-- .... ....
....|..|F#1 2F.7 ....|--- .... ....|F#4 2F.F ....
....|..|--- .... ....|--- .... ....|R-- .... ....
....|..|R-- .... ....|--- .... ....|E-4 2F.A ....
....|..|R-- .... ....|--- .... ....|R-- .... ....
 B-2|..|B-1 2A.F ....|--- .... ....|E-4 2F.F ....
....|..|--- .... ....|--- .... ....|--- .... ....
....|..|R-- .... ....|--- .... ....|F#4 2F.A ....

[Pattern56]
....|..|R-- .... ....|--- .... ....|R-- .... ....
 E-3|..|E-1 2A.F ....|B-4 2F4F ....|E-3 2F.F ....
....|..|--- .... ....|--- .... ....|R-- .... ....
....|..|B-1 2F.7 ....|--- .... ....|E-4 2F.A ....
....|..|--- .... ....|--- .... ....|--- .... ....
....|..|R-- .... ....|--- .... ....|F#4 2F.7 ....
....|..|R-- .... ....|--- .... ....|R-- .... ....
 E-3|..|E-1 2A.F ....|B-4 2F4A ....|E-3 2F.A ....
....|..|--- .... ....|--- .... ....|R-- .... ....
....|..|B-1 2F.7 ....|--- .... ....|F#4 2F.F ....
....|..|--- .... ....|--- .... ....|--- .... ....
....|..|R-- .... ....|--- .... ....|--- .... ....
....|..|R-- .... ....|--- .... ....|R-- .... ....
 E-3|..|E-1 2A.F ....|B-4 2F47 ....|E-4 2F.F ....
....|..|--- .... ....|--- .... ....|R-- .... ....
....|..|R-- .... ....|--- .... ....|F#4 2F.A ....
....|..|--- .... ....|--- .... ....|--- .... ....
....|..|R-- .... ....|--- .... ....|F#4 2F.F ....
....|..|--- .... ....|--- .... ....|R-- .... ....
....|..|E-1 2F.7 ....|--- .... ....|E-4 2F.A ....
....|..|--- .... ....|--- .... ....|R-- .... ....
 E-3|..|E-1 2A.F ....|--- .... ....|E-4 2F.F ....
....|..|--- .... ....|--- .... ....|--- .... ....
....|..|R-- .... ....|--- .... ....|F#4 2F.A ....
....|..|R-- .... ....|--- .... ....|R-- .... ....
....|..|E-1 2F.7 ....|--- .... ....|E-4 2F.F ....
....|..|--- .... ....|--- .... ....|R-- .... ....
....|..|E-1 2F.A ....|--- .... ....|E-4 2F.A ....
....|..|--- .... ....|--- .... ....|--- .... ....
 E-3|..|E-1 2A.F ....|--- .... ....|D#4 2F.F ....
....|..|R-- .... ....|--- .... ....|R-- .... ....
....|..|--- .... ....|--- .... ....|E-4 2F.A ....
....|..|--- .... ....|--- .... ....|R-- .... ....
 C#3|..|C#1 2A.F ....|--- .... ....|C#4 2F.F ....
....|..|--- .... ....|--- .... ....|--- .... ....
....|..|E-1 2F.A ....|--- .... ....|D#4 2F.A ....
....|..|R-- .... ....|--- .... ....|R-- .... ....
....|..|R-- .... ....|--- .... ....|E-4 2F.7 ....
....|..|--- .... ....|--- .... ....|R-- .... ....
 C#3|..|C#1 2A.F ....|--- .... ....|C#4 2F.A ....
....|..|--- .... ....|--- .... ....|--- .... ....
....|..|E-1 2F.7 ....|--- .... ....|E-4 2F.F ....
....|..|R-- .... ....|--- .... ....|R-- .... ....
....|..|R-- .... ....|--- .... ....|--- .... ....
....|..|--- .... ....|--- .... ....|R-- .... ....
 C#3|..|C#1 2A.F ....|--- .... ....|E-4 2F.F ....
....|..|--- .... ....|--- .... ....|R-- .... ....
....|..|R-- .... ....|--- .... ....|E-4 2F.A ....
....|..|--- .... ....|--- .... ....|R-- .... ....
....|..|R-- .... ....|--- .... ....|F#4 2F.F ....
....|..|--- .... ....|--- .... ....|--- .... ....
....|..|C#1 2F.7 ....|--- .... ....|E-4 2F.A ....
....|..|--- .... ....|--- .... ....|R-- .... ....
 C#3|..|C#1 2A.F ....|--- .... ....|G#4 2F.F ....
....|..|--- .... ....|--- .... ....|R-- .... ....
....|..|R-- .... ....|--- .... ....|F#4 2F.A ....
....|..|R-- .... ....|--- .... ....|--- .... ....
....|..|C#1 2F.7 ....|--- .... ....|F#4 2F.F ....
....|..|--- .... ....|--- .... ....|R-- .... ....
....|..|C#1 2F.A ....|--- .... ....|G#4 2F.A ....
....|..|--- .... ....|--- .... ....|--- .... ....
 C#3|..|C#1 2A.F ....|--- .... ....|E-4 2F.F ....
....|..|R-- .... ....|--- .... ....|--- .... ....
....|..|--- .... ....|--- .... ....|F#4 2F.A ....

[Pattern57]
 B-3|..|B-1 2A.F ....|--- .... ....|R-- .... ....
 A-2|..|A-1 2A.F ....|R-- .... ....|R-- .... ....
 B-3|..|B-1 2A.F ....|--- .... ....|--- .... ....
....|..|C#1 2F.A ....|--- .... ....|E-4 2F.A ....
 B-3|..|B-1 2A.F ....|--- .... ....|--- .... ....
....|..|R-- .... ....|--- .... ....|F#4 2F.7 ....
 B-3|..|B-1 2A.F ....|--- .... ....|R-- .... ....
 A-2|..|A-1 2A.F ....|R-- .... ....|R-- .... ....
 B-3|..|B-1 2A.F ....|--- .... ....|--- .... ....
....|..|C#1 2F.7 ....|A-4 2F4F ....|F#4 2F.F ....
 B-3|..|B-1 2A.F ....|--- .... ....|--- .... ....
....|..|R-- .... ....|--- .... ....|--- .... ....
 B-3|..|B-1 2A.F ....|--- .... ....|R-- .... ....
 A-2|..|A-1 2A.F ....|R-- .... ....|R-- .... ....
 B-3|..|B-1 2A.F ....|R-- .... ....|--- .... ....
....|..|R-- .... ....|A-4 2F4A ....|F#4 2F.A ....
 B-3|..|B-1 2A.F ....|--- .... ....|--- .... ....
....|..|R-- .... ....|A-4 2F7F ....|E-4 2F.F ....
 B-3|..|B-1 2A.F ....|--- .... ....|--- .... ....
....|..|A-1 2F.7 ....|--- .... ....|--- .... ....
 B-3|..|B-1 2A.F ....|R-- .... ....|--- .... ....
 A-2|..|A-1 2A.F ....|A-4 2F47 ....|F#4 2F.7 ....
 B-3|..|B-1 2A.F ....|A-4 2F.F ....|--- .... ....
....|..|R-- .... ....|A-4 2F7A ....|E-4 2F.A ....
 B-3|..|B-1 2A.F ....|--- .... ....|--- .... ....
....|..|A-1 2F.7 ....|--- .... ....|--- .... ....
 B-3|..|B-1 2A.F ....|R-- .... ....|--- .... ....
....|..|A-1 2F.A ....|--- .... ....|R-- .... ....
 B-3|..|B-1 2A.F ....|A-4 2F.A ....|--- .... ....
 A-2|..|A-1 2A.F ....|A-4 2F77 ....|A-4 2F.F ....
 B-3|..|B-1 2A.F ....|--- .... ....|--- .... ....
....|..|--- .... ....|--- .... ....|R-- .... ....
 B-3|..|B-1 2A.F ....|--- .... ....|--- .... ....
 F#3|..|F#1 2A.F ....|G#3 2F.F ....|R-- .... ....
 B-3|..|B-1 2A.F ....|A-4 2F.7 ....|--- .... ....
....|..|A-1 2F.A ....|A-3 2F.F ....|A-4 2F.A ....
 B-3|..|B-1 2A.F ....|R-- .... ....|--- .... ....
....|..|R-- .... ....|A#3 2F.F ....|A-4 2F.F ....
 B-3|..|B-1 2A.F ....|R-- .... ....|R-- .... ....
 F#3|..|F#1 2A.F ....|B-3 2F.F ....|--- .... ....
 B-3|..|B-1 2A.F ....|R-- .... ....|--- .... ....
....|..|A-1 2F.7 ....|C-4 2F.F ....|G#4 2F.F ....
 B-3|..|B-1 2A.F ....|R-- .... ....|--- .... ....
....|..|R-- .... ....|C#4 2F.F ....|A-4 2F.A ....
 B-3|..|B-1 2A.F ....|R-- .... ....|R-- .... ....
 F#3|..|F#1 2A.F ....|D-4 2F.F ....|E-4 2F.F ....
 B-3|..|B-1 2A.F ....|R-- .... ....|R-- .... ....
....|..|R-- .... ....|D#4 2F.F ....|G#4 2F.A ....
 B-3|..|B-1 2A.F ....|R-- .... ....|--- .... ....
 B-2|..|B-1 2A.F ....|E-4 2F.F ....|F#4 2F.F ....
 B-3|..|B-1 2A.F ....|R-- .... ....|R-- .... ....
....|..|F#1 2F.7 ....|F-4 2F.F ....|E-4 2F.A ....
 B-3|..|B-1 2A.F ....|R-- .... ....|R-- .... ....
....|..|R-- .... ....|F#4 2F.F ....|E-4 2F.F ....
 B-3|..|B-1 2A.F ....|R-- .... ....|--- .... ....
 B-2|..|B-1 2A.F ....|G-4 2F.F ....|F#4 2F.A ....
 B-3|..|B-1 2A.F ....|R-- .... ....|R-- .... ....
....|..|F#1 2F.7 ....|G#4 2F.F ....|F#4 2F.F ....
 B-3|..|B-1 2A.F ....|R-- .... ....|R-- .... ....
....|..|R-- .... ....|A-4 2F.F ....|E-4 2F.A ....
 B-3|..|B-1 2A.F ....|R-- .... ....|R-- .... ....
 B-2|..|B-1 2A.F ....|A#4 2F.F ....|E-4 2F.F ....
....|..|B-1 2F.7 ....|B-4 2F.F ....|R-- .... ....
 B-3|..|B-1 2A.F ....|F-4 2F.7 ....|F#4 2F.A ....

[Pattern58]
....|..|B-1 2F.7 ....|R-- .... ....|R-- .... ....
 E-3|..|E-1 2A.F ....|E-6 UFFF ....|E-4 2F.7 ....
....|..|B-1 2F.7 ....|R-- .... ....|R-- .... ....
....|..|B-1 2F.7 ....|G-4 2F.7 ....|E-4 2F.A ....
....|..|B-1 2F.7 ....|B-4 2F.A ....|R-- .... ....
....|..|B-1 2F.A ....|B-6 UFFF ....|F#4 2F.7 ....
....|..|B-1 2F.7 ....|R-- .... ....|R-- .... ....
 E-3|..|E-1 2A.F ....|E-6 UFFA ....|--- .... ....
....|..|B-1 2F.7 ....|R-- .... ....|R-- .... ....
....|..|B-1 2F.7 ....|E-6 UFFF ....|E-4 2F.7 ....
....|..|R-- .... ....|B-4 2F.7 ....|--- .... ....
....|..|B-1 2F.7 ....|B-6 UFFA ....|--- .... ....
....|..|R-- .... ....|R-- .... ....|R-- .... ....
 E-3|..|E-1 2A.F ....|B-6 UFFF ....|--- .... ....
....|..|--- .... ....|R-- .... ....|--- .... ....
....|..|R-- .... ....|E-6 UFFA ....|--- .... ....
....|..|--- .... ....|--- .... ....|--- .... ....
....|..|R-- .... ....|E-6 UFFF ....|--- .... ....
....|..|--- .... ....|R-- .... ....|--- .... ....
....|..|E-1 2F.7 ....|B-6 UFFA ....|--- .... ....
....|..|--- .... ....|R-- .... ....|--- .... ....
 E-3|..|E-1 2A.F ....|B-6 UFFF ....|--- .... ....
....|..|--- .... ....|R-- .... ....|--- .... ....
....|..|R-- .... ....|E-6 UFFA ....|--- .... ....
....|..|R-- .... ....|--- .... ....|--- .... ....
....|..|E-1 2F.7 ....|E-6 UFFF ....|--- .... ....
....|..|--- .... ....|R-- .... ....|--- .... ....
....|..|E-1 2F.A ....|B-6 UFFA ....|--- .... ....
....|..|--- .... ....|R-- .... ....|--- .... ....
 E-3|..|E-1 2A.F ....|C-7 UFFF ....|--- .... ....
....|..|R-- .... ....|R-- .... ....|--- .... ....
....|..|--- .... ....|E-6 UFFA ....|--- .... ....
....|..|--- .... ....|--- .... ....|--- .... ....
 E-3|..|E-1 2A.F ....|E-6 UFFF ....|--- .... ....
....|..|--- .... ....|R-- .... ....|--- .... ....
....|..|E-1 2F.A ....|C-7 UFFA ....|--- .... ....
....|..|R-- .... ....|R-- .... ....|--- .... ....
....|..|R-- .... ....|C-7 UFFF ....|--- .... ....
....|..|--- .... ....|R-- .... ....|--- .... ....
 E-3|..|E-1 2A.F ....|E-6 UFFA ....|--- .... ....
....|..|--- .... ....|--- .... ....|--- .... ....
....|..|E-1 2F.7 ....|E-6 UFFF ....|--- .... ....
....|..|R-- .... ....|R-- .... ....|--- .... ....
....|..|R-- .... ....|E-5 UFFF ....|--- .... ....
....|..|--- .... ....|R-- .... ....|--- .... ....
 E-3|..|E-1 2A.F ....|C-7 UFFF ....|--- .... ....
....|..|--- .... ....|R-- .... ....|--- .... ....
....|..|R-- .... ....|E-6 UFFA ....|--- .... ....
....|..|--- .... ....|--- .... ....|--- .... ....
....|..|R-- .... ....|E-6 UFFF ....|--- .... ....
....|..|--- .... ....|R-- .... ....|--- .... ....
....|..|E-1 2F.7 ....|C-7 UFFA ....|--- .... ....
....|..|--- .... ....|R-- .... ....|--- .... ....
 E-3|..|E-1 2A.F ....|C-7 UFFF ....|--- .... ....
....|..|--- .... ....|R-- .... ....|--- .... ....
....|..|R-- .... ....|E-5 2F.A ....|--- .... ....
....|..|R-- .... ....|R-- .... ....|--- .... ....
....|..|E-1 2F.7 ....|E-6 UFFF ....|--- .... ....
....|..|--- .... ....|R-- .... ....|--- .... ....
....|..|E-1 2F.A ....|C-7 UFFA ....|--- .... ....
....|..|--- .... ....|R-- .... ....|--- .... ....
 E-3|..|E-1 2A.F ....|B-6 UFFF ....|--- .... ....
....|..|R-- .... ....|R-- .... ....|--- .... ....
....|..|--- .... ....|E-6 UFFA ....|--- .... ....

[Pattern59]
....|..|--- .... ....|--- .... ....|--- .... ....
 E-3|..|E-1 2A.F ....|E-6 UFFF ....|--- .... ....
....|..|--- .... ....|R-- .... ....|--- .... ....
....|..|E-1 2F.A ....|B-6 UFFA ....|--- .... ....
....|..|R-- .... ....|R-- .... ....|--- .... ....
....|..|R-- .... ....|B-6 UFFF ....|--- .... ....
....|..|--- .... ....|R-- .... ....|--- .... ....
 E-3|..|E-1 2A.F ....|E-6 UFFA ....|--- .... ....
....|..|--- .... ....|--- .... ....|--- .... ....
....|..|E-1 2F.7 ....|E-6 UFFF ....|F#4 2F.F ....
....|..|R-- .... ....|R-- .... ....|--- .... ....
....|..|R-- .... ....|B-6 UFFA ....|--- .... ....
....|..|--- .... ....|R-- .... ....|R-- .... ....
 E-3|..|E-1 2A.F ....|B-6 UFFF ....|E-4 2F.F ....
....|..|--- .... ....|R-- .... ....|--- .... ....
....|..|R-- .... ....|E-6 UFFA ....|F#4 2F.A ....
....|..|--- .... ....|--- .... ....|R-- .... ....
....|..|R-- .... ....|E-6 UFFF ....|F#4 2F.F ....
....|..|--- .... ....|R-- .... ....|R-- .... ....
....|..|E-1 2F.7 ....|B-6 UFFA ....|E-4 2F.A ....
....|..|--- .... ....|R-- .... ....|R-- .... ....
 E-3|..|E-1 2A.F ....|B-6 UFFF ....|E-4 2F.F ....
....|..|--- .... ....|R-- .... ....|R-- .... ....
....|..|R-- .... ....|E-6 UFFA ....|F#4 2F.A ....
....|..|R-- .... ....|--- .... ....|R-- .... ....
....|..|E-1 2F.7 ....|E-6 UFFF ....|F#4 2F.F ....
....|..|--- .... ....|R-- .... ....|R-- .... ....
....|..|E-1 2F.A ....|B-6 UFFA ....|E-4 2F.A ....
....|..|--- .... ....|R-- .... ....|R-- .... ....
 E-3|..|E-1 2A.F ....|C-7 UFFF ....|E-4 2F.F ....
....|..|R-- .... ....|R-- .... ....|R-- .... ....
....|..|--- .... ....|E-6 UFFA ....|F#4 2F.A ....
....|..|--- .... ....|--- .... ....|R-- .... ....
 E-3|..|E-1 2A.F ....|E-6 UFFF ....|F#4 2F.F ....
....|..|--- .... ....|R-- .... ....|R-- .... ....
....|..|E-1 2F.A ....|C-7 UFFA ....|E-4 2F.A ....
....|..|R-- .... ....|R-- .... ....|R-- .... ....
....|..|R-- .... ....|C-7 UFFF ....|E-4 2F.F ....
....|..|--- .... ....|R-- .... ....|R-- .... ....
 E-3|..|E-1 2A.F ....|E-6 UFFA ....|F#4 2F.A ....
....|..|--- .... ....|--- .... ....|R-- .... ....
....|..|E-1 2F.7 ....|E-6 UFFF ....|F#4 2F.F ....
....|..|R-- .... ....|R-- .... ....|R-- .... ....
....|..|R-- .... ....|E-5 UFFF ....|E-4 2F.A ....
....|..|--- .... ....|R-- .... ....|R-- .... ....
 E-3|..|E-1 2A.F ....|C-7 UFFF ....|E-4 2F.F ....
....|..|--- .... ....|R-- .... ....|R-- .... ....
....|..|R-- .... ....|E-6 UFFA ....|F#4 2F.A ....
....|..|--- .... ....|--- .... ....|R-- .... ....
....|..|R-- .... ....|E-6 UFFF ....|F#4 2F.F ....
....|..|--- .... ....|R-- .... ....|R-- .... ....
....|..|E-1 2F.7 ....|C-7 UFFA ....|E-4 2F.A ....
....|..|--- .... ....|R-- .... ....|R-- .... ....
 E-3|..|E-1 2A.F ....|C-7 UFFF ....|E-4 2F.F ....
....|..|--- .... ....|R-- .... ....|R-- .... ....
....|..|R-- .... ....|E-5 2F.A ....|F#4 2F.A ....
....|..|R-- .... ....|R-- .... ....|R-- .... ....
....|..|E-1 2F.7 ....|E-6 UFFF ....|F#4 2F.F ....
....|..|--- .... ....|R-- .... ....|R-- .... ....
....|..|E-1 2F.A ....|C-7 UFFA ....|E-4 2F.A ....
....|..|--- .... ....|R-- .... ....|R-- .... ....
 E-3|..|E-1 2A.F ....|B-6 UFFF ....|E-4 2F.F ....
....|..|R-- .... ....|R-- .... ....|R-- .... ....
....|..|--- .... ....|E-6 UFFA ....|F#4 2F.A ....

[Pattern60]
....|..|--- .... ....|--- .... ....|R-- .... ....
 E-3|..|E-1 2A.F ....|E-6 UFFF ....|E-4 2F.7 ....
....|..|--- .... ....|R-- .... ....|R-- .... ....
....|..|E-1 2F.A ....|B-6 UFFA ....|E-4 2F.A ....
....|..|R-- .... ....|R-- .... ....|R-- .... ....
....|..|R-- .... ....|B-6 UFFF ....|F#4 2F.7 ....
....|..|--- .... ....|R-- .... ....|R-- .... ....
 E-3|..|E-1 2A.F ....|E-6 UFFA ....|--- .... ....
....|..|--- .... ....|--- .... ....|R-- .... ....
....|..|E-1 2F.7 ....|E-6 UFFF ....|F#4 2F.F ....
....|..|R-- .... ....|R-- .... ....|--- .... ....
....|..|R-- .... ....|B-6 UFFA ....|--- .... ....
....|..|--- .... ....|R-- .... ....|R-- .... ....
 E-3|..|E-1 2A.F ....|B-6 UFFF ....|E-4 2F.F ....
....|..|--- .... ....|R-- .... ....|--- .... ....
....|..|R-- .... ....|E-6 UFFA ....|F#4 2F.A ....
....|..|--- .... ....|--- .... ....|R-- .... ....
....|..|R-- .... ....|E-6 UFFF ....|F#4 2F.F ....
....|..|--- .... ....|R-- .... ....|R-- .... ....
....|..|E-1 2F.7 ....|B-6 UFFA ....|E-4 2F.A ....
....|..|--- .... ....|R-- .... ....|R-- .... ....
 E-3|..|E-1 2A.F ....|B-6 UFFF ....|E-4 2F.F ....
....|..|--- .... ....|R-- .... ....|R-- .... ....
....|..|R-- .... ....|E-6 UFFA ....|F#4 2F.A ....
....|..|R-- .... ....|--- .... ....|R-- .... ....
....|..|E-1 2F.7 ....|E-6 UFFF ....|F#4 2F.F ....
....|..|--- .... ....|R-- .... ....|R-- .... ....
....|..|E-1 2F.A ....|B-6 UFFA ....|E-4 2F.A ....
....|..|--- .... ....|R-- .... ....|R-- .... ....
 E-3|..|E-1 2A.F ....|C-7 UFFF ....|E-4 2F.F ....
....|..|R-- .... ....|R-- .... ....|R-- .... ....
....|..|--- .... ....|E-6 UFFA ....|F#4 2F.A ....
....|..|--- .... ....|--- .... ....|R-- .... ....
 E-3|..|E-1 2A.F ....|E-6 UFFF ....|F#4 2F.F ....
....|..|--- .... ....|R-- .... ....|R-- .... ....
....|..|E-1 2F.A ....|C-7 UFFA ....|E-4 2F.A ....
....|..|R-- .... ....|R-- .... ....|R-- .... ....
....|..|R-- .... ....|C-7 UFFF ....|E-4 2F.F ....
....|..|--- .... ....|R-- .... ....|R-- .... ....
 E-3|..|E-1 2A.F ....|E-6 UFFA ....|F#4 2F.A ....
....|..|--- .... ....|--- .... ....|R-- .... ....
....|..|E-1 2F.7 ....|E-6 UFFF ....|F#4 2F.F ....
....|..|R-- .... ....|R-- .... ....|R-- .... ....
....|..|R-- .... ....|E-5 UFFF ....|E-4 2F.A ....
....|..|--- .... ....|R-- .... ....|R-- .... ....
 E-3|..|E-1 2A.F ....|C-7 UFFF ....|E-4 2F.F ....
....|..|--- .... ....|R-- .... ....|R-- .... ....
....|..|R-- .... ....|E-6 UFFA ....|F#4 2F.A ....
....|..|--- .... ....|--- .... ....|R-- .... ....
....|..|R-- .... ....|E-6 UFFF ....|F#4 2F.F ....
....|..|--- .... ....|R-- .... ....|R-- .... ....
....|..|E-1 2F.7 ....|C-7 UFFA ....|E-4 2F.A ....
....|..|--- .... ....|R-- .... ....|R-- .... ....
 E-3|..|E-1 2A.F ....|C-7 UFFF ....|E-4 2F.F ....
....|..|--- .... ....|R-- .... ....|R-- .... ....
....|..|R-- .... ....|E-5 2F.A ....|F#4 2F.A ....
....|..|R-- .... ....|R-- .... ....|R-- .... ....
....|..|E-1 2F.7 ....|E-6 UFFF ....|F#4 2F.F ....
....|..|--- .... ....|R-- .... ....|R-- .... ....
....|..|E-1 2F.A ....|C-7 UFFA ....|E-4 2F.A ....
....|..|--- .... ....|R-- .... ....|R-- .... ....
 E-3|..|E-1 2A.F ....|B-6 UFFF ....|E-4 2F.F ....
....|..|R-- .... ....|R-- .... ....|R-- .... ....
....|..|--- .... ....|E-6 UFFA ....|F#4 2F.A ....

[Pattern62]
....|..|--- .... ....|--- .... ....|R-- .... ....
 A#2|..|A#1 2A.F ....|C-7 UFF7 ....|E-4 2F.7 ....
....|..|--- .... ....|R-- .... ....|R-- .... ....
....|..|E-1 2F.A ....|B-6 UFFA ....|E-4 2F.A ....
....|..|R-- .... ....|R-- .... ....|R-- .... ....
....|..|R-- .... ....|E-6 UFF7 ....|F#4 2F.7 ....
....|..|--- .... ....|--- .... ....|R-- .... ....
....|..|A#1 2F.A ....|R-- .... ....|--- .... ....
....|..|--- .... ....|--- .... ....|R-- .... ....
....|..|E-1 2F.7 ....|B-6 UFF7 ....|E-4 2F.7 ....
....|..|R-- .... ....|R-- .... ....|--- .... ....
....|..|R-- .... ....|--- .... ....|--- .... ....
....|..|--- .... ....|--- .... ....|R-- .... ....
....|..|A#1 2F.7 ....|--- .... ....|--- .... ....
....|..|--- .... ....|--- .... ....|--- .... ....
....|..|--- .... ....|--- .... ....|--- .... ....
....|..|--- .... ....|--- .... ....|--- .... ....

