[Module]
VortexTrackerII=0
Version=3.5
Title=6me[2]-4me+,8p[4]-7p[3]+-9mw[6]+-6mew+-3me+,9m[6]-10m[u]+-8p[4]
Author=oisee ^ 4d 29.05.2010
NoteTable=4
ChipFreq=1750000
Speed=4
PlayOrder=L0,1,2,3,4,5,6,7,8,9,10,11,12,7,14,15,16,17,18,19,20,7,22,7,24


[Ornament1]
L0,0,4,4,7,7

[Ornament2]
L0,0,3,3,7,7

[Ornament3]
L0,0,3,3

[Ornament4]
L0,0,5,5

[Ornament5]
L0,0,7,7

[Ornament6]
L0,0,4,4

[Ornament7]
L0,0,4,4,7,7,12,12

[Ornament8]
L0,0,4,4,9,9

[Ornament9]
L0,0,12,12

[Ornament10]
L0,0,7,7,12,12,16,16

[Ornament11]
L0,0,12,12,16,16

[Ornament12]
L0,0,5,5,9,9

[Ornament13]
L0,0,5,5,8,8

[Ornament14]
L0,0,9,9

[Ornament15]
L0,0,3,3,8,8

[Sample1]
TnE +000_ +00_ F_
TnE +000_ +00_ F_
TnE +000_ +00_ F_
TnE +000_ +00_ D_
TnE +000_ +00_ B_
TnE +000_ +00_ B_ L

[Sample2]
TnE +000_ +00_ F_ L

[Sample3]
TnE +001_ +00_ F_
TnE +002_ +00_ F_
TnE +001_ +00_ E_
TnE +002_ +00_ E_
TnE +000_ +00_ E_ L
TnE -001_ +00_ E_
TnE -002_ +00_ E_
TnE -001_ +00_ E_
TnE +000_ +00_ E_
TnE +001_ +00_ E_
TnE +002_ +00_ E_
TnE +001_ +00_ E_

[Sample4]
TnE +002_ +00_ D_
TnE +002_ +00_ D_
TnE +002_ +00_ C_
TnE +002_ +00_ B_
TnE +002_ +00_ A_ L
TnE +002_ +00_ A_
TnE +002_ +00_ A_
TnE +002_ +00_ A_
TnE +002_ +00_ A_
TnE +002_ +00_ A_
TnE +002_ +00_ A_
TnE +002_ +00_ A_

[Sample5]
TnE +000_ +00_ F_
TnE +000_ +00_ F_
tne +000_ +00_ 0_ L

[Sample6]
TnE -001_ +00_ F_ L

[Sample7]
TnE +006_ +00_ F_ L

[Sample8]
tNe +000_ +00_ F_
tNe +000_ +00_ B_
tNe +000_ +00_ 7_
tNe +000_ +00_ 6- L

[Sample9]
TnE +080_ +00_ F_
TnE +100_ +00_ E_
TnE +180_ +00_ E_
TnE +200_ +00_ E_
TnE +240_ +00_ D_
TnE +280_ +00_ D_
TnE +2C0_ +00_ D_
TnE +300_ +00_ C_
TnE +300_ +00_ C_
TnE +340_ +00_ C_
TnE +340_ +00_ C_
TnE +380_ +00_ B_
TnE +380_ +00_ B_
TnE +400_ +00_ B_
TnE +400_ +00_ B_
TnE +480_ +00_ A_
TnE +500_ +00_ 9_
TnE +580_ +00_ 7_
TnE +600_ +00_ 4_
TnE +680_ +00_ 1_
TnE +000_ +00_ 0_ L

[Sample10]
Tne +1C0_ +00_ F_
Tne +280_ +00_ E_
Tne +380_ +00_ C_
Tne +440_ +00_ A_
Tne +480_ +00_ 8_
TnE +000_ +00_ 0_ L

[Sample11]
TNe +200_ -0A_ F_
tNe +000_ +0F_ A_
TNe +200_ -07_ E_
tNe +000_ +0E_ B- L

[Sample12]
TNE +0A0_ +05_ F_
TNE +140_ +02_ D_
TNE +140_ +02_ B_
TNE +100_ +00_ A_ L
TNE +140_ +00_ A_
TNE +200_ +00_ A-

[Sample13]
Tne +200_ +00_ F_
Tne +2C0_ +00_ F_
Tne +380_ +00_ E_
Tne +500_ +00_ C_
Tne +520_ +00_ 9_
tne +000_ +00_ 0_ L

[Sample14]
TNE -100_ +00_ F_
TNE -100_ +00_ D_
TNE -100_ +00_ A_
TNE -100_ +00_ 5_
tne +000_ +00_ 0_ L

[Sample15]
TNE -100_ +00_ 5_
TNE -100_ +00_ 8_
TNE -100_ +00_ B_
TNE -100_ +00_ F_
TNe -100_ +00_ 9- L

[Sample16]
TnE +000_ +00_ C_
TnE +000_ +00_ E_
TnE +000_ +00_ F_
TnE +000_ +00_ F_
TnE +000_ +00_ E_
TnE +000_ +00_ D_
TnE +000_ +00_ C_
TnE +000_ +00_ C_ L
TnE +001_ +00_ C_
TnE +002_ +00_ C_
TnE +003_ +00_ C_
TnE +001_ +00_ C_
TnE +000_ +00_ C_
TnE -001_ +00_ C_
TnE -002_ +00_ C_
TnE -003_ +00_ C_
TnE -001_ +00_ C_
TnE +000_ +00_ C_
TnE +000_ +00_ C_

[Sample17]
Tne +1C0_ +00_ F_
Tne +280_ +00_ D_
Tne +380_ +00_ 7_
TNE +000_ +00_ 0_ L

[Sample18]
TnE -00C_ +00_ 0_ L

[Sample19]
TNe +000_ +00_ F_
TNe +000_ +00_ C_
TNe +000_ +00_ 6_
TNe +000_ +01_ A- L

[Sample20]
TNE +140_ +00_ F_
tNE +000_ +00_ B- L

[Sample21]
tNE +000_ +00_ D_
tNE +000_ +00_ 8_
tNE +000_ +00_ 1_
TNE +000_ +00_ 0_ L

[Sample22]
TnE +000_ +00_ D_ L
TnE +000_ +00_ D_
tne +000_ +00_ 9_
tne +000_ +00_ 9_
TnE +000_ +00_ D_
TnE +000_ +00_ D_
tne +000_ +00_ 9_
tne +000_ +00_ 9_
TnE +000_ +00_ D_
TnE +000_ +00_ D_
TnE +000_ +00_ D_
TnE +000_ +00_ D_
TnE +000_ +00_ D_
TnE +000_ +00_ D_
tne +000_ +00_ 9_
tne +000_ +00_ 9_

[Sample23]
TnE +000_ +00_ F_ L
TnE +010_ +01_ F_
TnE +010_ +01_ F_
TnE +010_ +01_ F_
TnE +010_ +01_ F_
TnE +000_ +00_ F_
TnE +000_ +00_ F_
TnE -010_ -01_ F_
TnE -010_ -01_ F_
TnE -010_ -01_ F_
TnE -010_ -01_ F_
TnE +000_ +00_ F_

[Sample24]
TNe +000_ -01_ C_
TNe +000_ -01_ D_
TNe +000_ -01_ E_
TNe +000_ -01_ F_
TNe +000_ -01_ F_
TNe +000_ -01_ F_
TNe +000_ -01_ F_
TNe +000_ -01_ F_
TNe +000_ -01_ E_
TNe +000_ -01_ E_
TNe +000_ -01_ E_
TNe +000_ -01_ F_
TNe +000_ -01_ F_ L

[Sample25]
TNE +000_ +00_ F_
TNE +000_ +00_ F_ L
TNE +000_ +00_ F_
TNE +000_ +00_ F_
TNE +000_ +00_ F-

[Sample26]
tne +000_ +00_ 0_ L

[Sample27]
TnE +100_ +05_ F_
TnE +200_ +02_ A_
TnE +300_ +02_ 7_
TNE +400_ +00_ 3- L

[Sample28]
tne +000_ +00_ 0_ L

[Sample29]
tnE +000_ +00_ 0_ L

[Sample30]
TNE +000_ +00_ C+ L

[Sample31]
TNe +1C0_ +00_ F_
Tne +280_ +00_ E_
Tne +380_ +00_ C_
Tne +440_ +00_ A_
Tne +480_ +00_ 8_
TnE +000_ +00_ 0_ L

[Pattern0]
 B-4|..|B-2 2A.F ....|B-2 2A.F ....|--- .... ....
....|..|R-- .... ....|R-- .... ....|--- .... ....
....|..|--- .... ....|--- .... ....|--- .... ....
....|..|--- .... ....|--- .... ....|--- .... ....
....|..|--- .... ....|--- .... ....|--- .... ....
....|..|--- .... ....|--- .... ....|--- .... ....
 B-4|..|B-2 2A.F ....|B-2 2A.F ....|--- .... ....
....|..|R-- .... ....|R-- .... ....|--- .... ....
....|..|B-2 2F.A ....|B-2 2F.A ....|--- .... ....
....|..|R-- .... ....|R-- .... ....|--- .... ....
....|..|--- .... ....|--- .... ....|--- .... ....
....|..|--- .... ....|--- .... ....|--- .... ....
 B-4|..|B-2 2A.F ....|B-2 2A.F ....|--- .... ....
....|..|R-- .... ....|R-- .... ....|--- .... ....
....|..|B-2 2F.A ....|B-2 2F.A ....|--- .... ....
....|..|R-- .... ....|R-- .... ....|--- .... ....
....|..|B-2 2F.7 ....|B-2 2F.7 ....|--- .... ....
....|..|R-- .... ....|R-- .... ....|--- .... ....
 B-4|..|B-2 2A.F ....|B-2 2A.F ....|--- .... ....
....|..|R-- .... ....|R-- .... ....|--- .... ....
....|..|B-2 2F.A ....|B-2 2F.A ....|--- .... ....
....|..|R-- .... ....|R-- .... ....|--- .... ....
....|..|B-2 2F.7 ....|B-2 2F.7 ....|--- .... ....
....|..|R-- .... ....|R-- .... ....|--- .... ....
 B-4|..|B-2 2A.F ....|B-2 2A.F ....|--- .... ....
....|..|R-- .... ....|R-- .... ....|--- .... ....
....|..|B-2 2F.A ....|B-2 2F.A ....|--- .... ....
....|..|R-- .... ....|R-- .... ....|--- .... ....
....|..|B-2 2F.7 ....|B-2 2F.7 ....|--- .... ....
....|..|R-- .... ....|R-- .... ....|--- .... ....
 B-4|..|B-2 2A.F ....|B-2 2A.F ....|--- .... ....
....|..|R-- .... ....|R-- .... ....|--- .... ....
....|..|B-2 2F.A ....|B-2 2F.A ....|--- .... ....
....|..|R-- .... ....|R-- .... ....|--- .... ....
....|..|B-2 2F.7 ....|B-2 2F.7 ....|--- .... ....
....|..|R-- .... ....|R-- .... ....|--- .... ....
 B-4|..|B-2 2A.F ....|B-2 2A.F ....|--- .... ....
....|..|R-- .... ....|R-- .... ....|--- .... ....
....|..|B-2 2F.A ....|B-2 2F.A ....|--- .... ....
....|..|R-- .... ....|R-- .... ....|--- .... ....
....|..|B-2 2F.7 ....|B-2 2F.7 ....|--- .... ....
....|..|R-- .... ....|R-- .... ....|--- .... ....
 B-4|..|B-2 2A.F ....|B-2 2A.F ....|--- .... ....
....|..|R-- .... ....|R-- .... ....|--- .... ....
....|..|B-2 2F.A ....|B-2 2F.A ....|--- .... ....
....|..|R-- .... ....|R-- .... ....|--- .... ....
....|..|B-2 2F.7 ....|B-2 2F.7 ....|--- .... ....
....|..|R-- .... ....|R-- .... ....|--- .... ....
 B-4|..|B-2 2A.F ....|B-2 2A.F ....|--- .... ....
....|..|R-- .... ....|R-- .... ....|--- .... ....
....|..|B-2 2F.A ....|B-2 2F.A ....|--- .... ....
....|..|R-- .... ....|R-- .... ....|--- .... ....
....|..|B-2 2F.7 ....|B-2 2F.7 ....|--- .... ....
....|..|R-- .... ....|R-- .... ....|--- .... ....
 B-4|..|B-2 2A.F ....|B-2 2A.F ....|--- .... ....
....|..|R-- .... ....|R-- .... ....|--- .... ....
....|..|B-2 2F.A ....|B-2 2F.A ....|--- .... ....
....|..|R-- .... ....|R-- .... ....|--- .... ....
....|..|B-2 2F.7 ....|B-2 2F.7 ....|--- .... ....
....|..|R-- .... ....|R-- .... ....|--- .... ....
 B-4|..|B-2 2A.F ....|B-2 2A.F ....|--- .... ....
....|..|R-- .... ....|R-- .... ....|--- .... ....
....|..|B-2 2F.A ....|B-2 2F.A ....|--- .... ....
....|..|R-- .... ....|R-- .... ....|--- .... ....
....|..|B-2 2F.7 ....|B-2 2F.7 ....|--- .... ....
....|..|R-- .... ....|R-- .... ....|--- .... ....
 B-4|..|B-2 2A.F ....|B-2 2A.F ....|--- .... ....
....|..|R-- .... ....|R-- .... ....|--- .... ....
....|..|B-2 2F.A ....|B-2 2F.A ....|--- .... ....
....|..|R-- .... ....|R-- .... ....|--- .... ....
....|..|B-2 2F.7 ....|B-2 2F.7 ....|--- .... ....
....|..|R-- .... ....|R-- .... ....|--- .... ....
 B-4|..|B-2 2A.F ....|B-2 2A.F ....|--- .... ....
....|..|R-- .... ....|R-- .... ....|--- .... ....
....|..|B-2 2F.A ....|B-2 2F.A ....|--- .... ....
....|..|R-- .... ....|R-- .... ....|--- .... ....
....|..|B-2 2F.7 ....|B-2 2F.7 ....|--- .... ....
....|..|R-- .... ....|R-- .... ....|--- .... ....
 B-4|..|B-2 2A.F ....|B-2 2A.F ....|--- .... ....
 B-4|..|R-- .... ....|B-2 2A.F ....|--- .... ....
....|..|B-2 2F.A ....|B-2 2F.A ....|--- .... ....
....|..|R-- .... ....|R-- .... ....|--- .... ....
....|..|B-2 2F.7 ....|B-2 2F.7 ....|--- .... ....
....|..|R-- .... ....|R-- .... ....|--- .... ....
 B-4|..|B-2 2A.F ....|B-2 2A.F ....|--- .... ....
....|..|R-- .... ....|R-- .... ....|--- .... ....
....|..|B-2 2F.A ....|B-2 2F.A ....|--- .... ....
....|..|R-- .... ....|B-2 2F.A ....|--- .... ....
....|..|B-2 2F.7 ....|B-2 2F.7 ....|--- .... ....
....|..|R-- .... ....|R-- .... ....|--- .... ....
 B-4|..|B-2 2A.F ....|B-2 2A.F ....|--- .... ....
 B-4|..|R-- .... ....|B-2 2A.F ....|--- .... ....
....|..|B-2 2F.A ....|B-2 2F.A ....|--- .... ....
....|..|R-- .... ....|R-- .... ....|--- .... ....
....|..|B-2 2F.7 ....|B-2 2F.7 ....|--- .... ....
....|..|R-- .... ....|B-2 2F.7 ....|--- .... ....
 B-4|..|B-2 2A.F ....|A-4 6F.F ....|A-4 6F.F ....
....|..|R-- .... ....|R-- .... ....|--- .... ....
....|..|B-2 2F.A ....|B-2 2F.A ....|--- .... ....
....|..|R-- .... ....|B-2 2F.A ....|--- .... ....
....|..|B-2 2F.7 ....|B-2 2F.7 ....|--- .... ....
....|..|R-- .... ....|R-- .... ....|--- .... ....
 B-4|..|B-2 2A.F ....|B-2 2A.F ....|--- .... ....
....|..|R-- .... ....|R-- .... ....|--- .... ....
....|..|B-2 2F.A ....|B-2 2F.A ....|A-4 6F.A ....
....|..|R-- .... ....|R-- .... ....|--- .... ....
....|..|B-2 2F.7 ....|B-2 2F.7 ....|R-- .... ....
....|..|R-- .... ....|B-2 2F.7 ....|--- .... ....
 B-4|..|B-2 2A.F ....|A-4 6F.F ....|A-4 6F.F ....
....|..|R-- .... ....|R-- .... ....|--- .... ....
....|..|B-2 2F.A ....|B-2 2F.A ....|--- .... ....
....|..|R-- .... ....|R-- .... ....|--- .... ....
....|..|B-2 2F.7 ....|A-4 6F.A ....|A-4 6F.7 ....
....|..|R-- .... ....|R-- .... ....|--- .... ....
 B-4|..|B-2 2A.F ....|B-2 2A.F ....|R-- .... ....
....|..|R-- .... ....|R-- .... ....|--- .... ....
....|..|B-2 2F.A ....|B-2 2F.A ....|A-4 6F.A ....
....|..|R-- .... ....|R-- .... ....|--- .... ....
....|..|B-2 2F.7 ....|B-2 2F.7 ....|--- .... ....
....|..|R-- .... ....|R-- .... ....|--- .... ....
 B-4|..|B-2 2A.F ....|A-4 6F.F ....|A-4 6F.F ....
....|..|R-- .... ....|R-- .... ....|--- .... ....
....|..|B-2 2F.A ....|B-2 2F.A ....|R-- .... ....
....|..|R-- .... ....|R-- .... ....|--- .... ....
....|..|B-2 2F.7 ....|G-4 6F.F ....|G-4 6F.F ....
....|..|R-- .... ....|R-- .... ....|--- .... ....
 B-4|..|B-2 2A.F ....|B-2 2A.F ....|R-- .... ....
....|..|R-- .... ....|E-4 6F.F ....|E-4 6F.F ....
....|..|B-2 2F.A ....|B-2 2F.A ....|A-4 6F.A ....
....|..|R-- .... ....|R-- .... ....|--- .... ....
....|..|B-2 2F.7 ....|B-2 2F.7 ....|R-- .... ....
....|..|R-- .... ....|R-- .... ....|--- .... ....
 B-4|..|B-2 2A.F ....|B-2 2A.F ....|G-4 6F.A ....
....|..|R-- .... ....|R-- .... ....|--- .... ....
....|..|B-2 2F.A ....|B-2 2F.A ....|R-- .... ....
....|..|R-- .... ....|R-- .... ....|E-4 6F.A ....
....|..|B-2 2F.7 ....|A-4 6F.A ....|A-4 6F.7 ....
....|..|R-- .... ....|R-- .... ....|--- .... ....
 B-4|..|B-2 2A.F ....|B-2 2A.F ....|R-- .... ....
....|..|R-- .... ....|R-- .... ....|R-- .... ....
....|..|B-2 2F.A ....|B-2 2F.A ....|G-4 6F.7 ....
....|..|R-- .... ....|R-- .... ....|--- .... ....
....|..|B-2 2F.7 ....|B-2 2F.7 ....|R-- .... ....
....|..|R-- .... ....|E-4 6F.A ....|E-4 6F.7 ....
 B-4|..|B-2 2A.F ....|B-4 6F.F ....|B-4 6F.F ....
....|..|R-- .... ....|R-- .... ....|--- .... ....
....|..|B-2 2F.A ....|B-2 2F.A ....|--- .... ....
....|..|R-- .... ....|R-- .... ....|R-- .... ....
....|..|B-2 2F.7 ....|B-2 2F.7 ....|R-- .... ....
....|..|R-- .... ....|R-- .... ....|--- .... ....
 F#4|..|F#2 2A.F ....|B-4 6F.F ....|B-4 6F.F ....
....|..|R-- .... ....|R-- .... ....|--- .... ....
....|..|B-2 2F.A ....|B-2 2F.A ....|B-4 6F.A ....
....|..|R-- .... ....|R-- .... ....|--- .... ....
....|..|B-2 2F.7 ....|B-2 2F.7 ....|--- .... ....
....|..|R-- .... ....|R-- .... ....|R-- .... ....
 F#4|..|F#2 2A.F ....|A-4 6F.F ....|A-4 6F.F ....
....|..|R-- .... ....|R-- .... ....|--- .... ....
....|..|F#2 2F.A ....|F#2 2F.A ....|B-4 6F.A ....
....|..|R-- .... ....|R-- .... ....|--- .... ....
....|..|B-2 2F.7 ....|B-4 6F.A ....|B-4 6F.7 ....
....|..|R-- .... ....|A-4 6F.F ....|A-4 6F.F ....
 F#4|..|F#2 2A.F ....|G-4 6F.F ....|G-4 6F.F ....
....|..|R-- .... ....|R-- .... ....|R-- .... ....
....|..|F#2 2F.A ....|F#2 2F.A ....|A-4 6F.A ....
....|..|R-- .... ....|R-- .... ....|--- .... ....
....|..|F#2 2F.7 ....|B-4 6F.A ....|B-4 6F.7 ....
....|..|R-- .... ....|R-- .... ....|--- .... ....
 F#4|..|F#2 2A.F ....|F#2 2A.F ....|--- .... ....
....|..|R-- .... ....|R-- .... ....|A-4 6F.A ....
....|..|F#2 2F.A ....|F#2 2F.A ....|G-4 6F.A ....
....|..|R-- .... ....|R-- .... ....|R-- .... ....
....|..|F#2 2F.7 ....|A-4 6F.A ....|A-4 6F.7 ....
....|..|R-- .... ....|E-4 6F.F ....|E-4 6F.F ....
 F#4|..|F#2 2A.F ....|F#2 2A.F ....|--- .... ....
 F#4|..|F#2 2A.F ....|F#2 2A.F ....|--- .... ....
....|..|F#2 2F.A ....|F#2 2F.A ....|--- .... ....
....|..|R-- .... ....|A-4 6F.A ....|A-4 6F.7 ....
....|..|F#2 2F.7 ....|G-4 6F.A ....|G-4 6F.7 ....
....|..|R-- .... ....|R-- .... ....|--- .... ....
 F#4|..|F#2 2A.F ....|F#2 2A.F ....|R-- .... ....
....|..|R-- .... ....|R-- .... ....|E-4 6F.A ....
....|..|F#2 2F.A ....|F#2 2F.A ....|--- .... ....
....|..|F#2 2F.A ....|F#2 2F.A ....|R-- .... ....
....|..|F#2 2F.7 ....|F#2 2F.7 ....|--- .... ....
....|..|R-- .... ....|R-- .... ....|--- .... ....
 F#4|..|F#2 2A.F ....|F#2 2A.F ....|--- .... ....
 F#4|..|F#2 2A.F ....|F#2 2A.F ....|--- .... ....
....|..|F#2 2F.A ....|F#2 2F.A ....|R-- .... ....
....|..|R-- .... ....|E-4 6F.A ....|E-4 6F.7 ....
....|..|F#2 2F.7 ....|F#2 2F.7 ....|--- .... ....
....|..|F#2 2F.7 ....|F#2 2F.7 ....|R-- .... ....

[Pattern1]
 F#4|..|F#2 2A.F ....|A-4 6F.F ....|A-4 6F.F ....
 F#4|..|F#2 2A.F ....|F#2 2A.F ....|--- .... ....
....|..|F#2 2F.A ....|F#2 2F.A ....|--- .... ....
....|..|F#2 2F.A ....|F#2 2F.A ....|--- .... ....
....|..|F#2 2F.7 ....|F#2 2F.7 ....|--- .... ....
....|..|R-- .... ....|R-- .... ....|--- .... ....
 A-3|..|A-2 2C.F ....|A-2 2C.F ....|--- .... ....
....|..|R-- .... ....|R-- .... ....|R-- .... ....
....|..|F#2 2F.A ....|F#2 2F.A ....|A-4 6F.A ....
....|..|F#2 2F.A ....|F#2 2F.A ....|R-- .... ....
....|..|F#2 2F.7 ....|D-5 6F.F ....|D-5 6F.F ....
....|..|F#2 2F.7 ....|F#2 2F.7 ....|--- .... ....
 A-3|..|A-2 2C.F ....|A-2 2C.F ....|--- .... ....
....|..|R-- .... ....|R-- .... ....|--- .... ....
....|..|A-2 2F.A ....|A-2 2F.A ....|--- .... ....
....|..|R-- .... ....|R-- .... ....|--- .... ....
....|..|F#2 2F.7 ....|A-4 6F.A ....|A-4 6F.7 ....
....|..|F#2 2F.7 ....|F#2 2F.7 ....|R-- .... ....
 A-3|..|A-2 2C.F ....|A-2 2C.F ....|D-5 6F.A ....
....|..|R-- .... ....|B-4 6F.F ....|B-4 6F.F ....
....|..|A-2 2F.A ....|A-2 2F.A ....|--- .... ....
....|..|R-- .... ....|R-- .... ....|--- .... ....
....|..|A-2 2F.7 ....|A-2 2F.7 ....|--- .... ....
....|..|R-- .... ....|R-- .... ....|--- .... ....
 A-3|..|A-2 2C.F ....|A-2 2C.F ....|R-- .... ....
....|..|R-- .... ....|A-4 6F.F ....|A-4 6F.F ....
....|..|A-2 2F.A ....|D-5 6F.A ....|D-5 6F.7 ....
....|..|R-- .... ....|R-- .... ....|B-4 6F.A ....
....|..|A-2 2F.7 ....|A-2 2F.7 ....|--- .... ....
....|..|R-- .... ....|R-- .... ....|R-- .... ....
 A-3|..|A-2 2C.F ....|G-4 6F.F ....|G-4 6F.F ....
 A-3|..|A-2 2C.F ....|A-2 2C.F ....|--- .... ....
....|..|A-2 2F.A ....|A-2 2F.A ....|R-- .... ....
....|..|R-- .... ....|R-- .... ....|A-4 6F.A ....
....|..|A-2 2F.7 ....|A-2 2F.7 ....|--- .... ....
....|..|R-- .... ....|B-4 6F.A ....|B-4 6F.7 ....
 A-3|..|A-2 2C.F ....|E-4 6F.F ....|E-4 6F.F ....
....|..|R-- .... ....|R-- .... ....|R-- .... ....
....|..|A-2 2F.A ....|A-2 2F.A ....|G-4 6F.A ....
....|..|A-2 2F.A ....|A-2 2F.A ....|R-- .... ....
....|..|A-2 2F.7 ....|A-2 2F.7 ....|R-- .... ....
....|..|R-- .... ....|A-4 6F.A ....|A-4 6F.7 ....
 A-3|..|A-2 2C.F ....|E-4 6F.F ....|E-4 6F.F ....
 A-3|..|A-2 2C.F ....|A-2 2C.F ....|R-- .... ....
....|..|A-2 2F.A ....|A-2 2F.A ....|E-4 6F.A ....
....|..|R-- .... ....|R-- .... ....|R-- .... ....
....|..|A-2 2F.7 ....|G-4 6F.A ....|G-4 6F.7 ....
....|..|A-2 2F.7 ....|A-2 2F.7 ....|R-- .... ....
 A-3|..|A-2 2C.F ....|G-4 6F.F ....|G-4 6F.F ....
 A-3|..|A-2 2C.F ....|A-2 2C.F ....|R-- .... ....
....|..|A-2 2F.A ....|A-2 2F.A ....|E-4 6F.A ....
....|..|A-2 2F.A ....|G-4 6F.F ....|G-4 6F.F ....
....|..|A-2 2F.7 ....|E-4 6F.A ....|E-4 6F.7 ....
....|..|R-- .... ....|R-- .... ....|--- .... ....
 F#4|..|F#2 2A.F ....|F#2 2A.F ....|R-- .... ....
....|..|R-- .... ....|R-- .... ....|R-- .... ....
....|..|A-2 2F.A ....|A-2 2F.A ....|G-4 6F.A ....
....|..|A-2 2F.A ....|G-4 6F.F ....|G-4 6F.F ....
....|..|A-2 2F.7 ....|E-4 6F.A ....|E-4 6F.7 ....
....|..|A-2 2F.7 ....|A-2 2F.7 ....|G-4 6F.A ....
 F#4|..|F#2 2A.F ....|F#4 6F.F ....|F#4 6F.F ....
....|..|R-- .... ....|R-- .... ....|--- .... ....
....|..|F#2 2F.A ....|F#2 2F.A ....|R-- .... ....
....|..|R-- .... ....|R-- .... ....|R-- .... ....
....|..|A-2 2F.7 ....|G-4 6F.A ....|G-4 6F.7 ....
....|..|A-2 2F.7 ....|A-2 2F.7 ....|G-4 6F.A ....
 F#4|..|F#2 2A.F ....|E-4 6F.F ....|E-4 6F.F ....
....|..|R-- .... ....|R-- .... ....|G-4 6F.7 ....
....|..|F#2 2F.A ....|F#2 2F.A ....|F#4 6F.A ....
....|..|R-- .... ....|R-- .... ....|--- .... ....
....|..|F#2 2F.7 ....|E-4 6F.F ....|E-4 6F.F ....
....|..|R-- .... ....|R-- .... ....|R-- .... ....
 F#4|..|F#2 2A.F ....|F#2 2A.F ....|--- .... ....
....|..|R-- .... ....|R-- .... ....|G-4 6F.7 ....
....|..|F#2 2F.A ....|F#2 2F.A ....|E-4 6F.A ....
....|..|R-- .... ....|R-- .... ....|R-- .... ....
....|..|F#2 2F.7 ....|F#4 6F.A ....|F#4 6F.7 ....
....|..|R-- .... ....|R-- .... ....|--- .... ....
 A-3|..|A-2 2C.F ....|A-2 2C.F ....|E-4 6F.A ....
 A-3|..|A-2 2C.F ....|A-2 2C.F ....|R-- .... ....
....|..|F#2 2F.A ....|F#2 2F.A ....|--- .... ....
....|..|R-- .... ....|R-- .... ....|--- .... ....
....|..|F#2 2F.7 ....|E-4 6F.A ....|E-4 6F.7 ....
....|..|R-- .... ....|G-4 6F.7 ....|--- .... ....
 A-3|..|A-2 2C.F ....|A-2 2C.F ....|R-- .... ....
....|..|R-- .... ....|R-- .... ....|--- .... ....
....|..|A-2 2F.A ....|E-4 6F.A ....|E-4 6F.7 ....
....|..|A-2 2F.A ....|A-2 2F.A ....|--- .... ....
....|..|F#2 2F.7 ....|F#2 2F.7 ....|--- .... ....
....|..|R-- .... ....|G-4 6F.7 ....|--- .... ....
 A-3|..|A-2 2C.F ....|A-2 2C.F ....|--- .... ....
 A-3|..|A-2 2C.F ....|A-2 2C.F ....|--- .... ....
....|..|A-2 2F.A ....|A-2 2F.A ....|--- .... ....
....|..|R-- .... ....|R-- .... ....|--- .... ....
....|..|A-2 2F.7 ....|A-2 2F.7 ....|R-- .... ....
....|..|A-2 2F.7 ....|A-2 2F.7 ....|--- .... ....
 B-4|..|B-2 2A.F ....|A-4 6F.F ....|A-4 6F.F ....
....|..|R-- .... ....|R-- .... ....|--- .... ....
....|..|A-2 2F.A ....|A-2 2F.A ....|--- .... ....
....|..|A-2 2F.A ....|A-2 2F.A ....|--- .... ....
....|..|A-2 2F.7 ....|A-2 2F.7 ....|--- .... ....
....|..|R-- .... ....|R-- .... ....|--- .... ....
 B-4|..|B-2 2A.F ....|B-2 2A.F ....|--- .... ....
....|..|R-- .... ....|R-- .... ....|--- .... ....
....|..|B-2 2F.A ....|B-2 2F.A ....|A-4 6F.A ....
....|..|R-- .... ....|R-- .... ....|--- .... ....
....|..|A-2 2F.7 ....|A-2 2F.7 ....|R-- .... ....
....|..|A-2 2F.7 ....|A-2 2F.7 ....|--- .... ....
 B-4|..|B-2 2A.F ....|A-4 6F.F ....|A-4 6F.F ....
....|..|R-- .... ....|R-- .... ....|--- .... ....
....|..|B-2 2F.A ....|B-2 2F.A ....|--- .... ....
....|..|R-- .... ....|R-- .... ....|--- .... ....
....|..|B-2 2F.7 ....|A-4 6F.A ....|A-4 6F.7 ....
....|..|R-- .... ....|R-- .... ....|--- .... ....
 B-4|..|B-2 2A.F ....|B-2 2A.F ....|R-- .... ....
....|..|R-- .... ....|R-- .... ....|--- .... ....
....|..|B-2 2F.A ....|B-2 2F.A ....|A-4 6F.A ....
....|..|R-- .... ....|R-- .... ....|--- .... ....
....|..|B-2 2F.7 ....|B-2 2F.7 ....|--- .... ....
....|..|R-- .... ....|R-- .... ....|--- .... ....
 B-4|..|B-2 2A.F ....|B-2 2A.F ....|--- .... ....
....|..|R-- .... ....|A-4 6F.F ....|A-4 6F.F ....
....|..|B-2 2F.A ....|B-2 2F.A ....|R-- .... ....
....|..|R-- .... ....|R-- .... ....|R-- .... ....
....|..|B-2 2F.7 ....|G-4 6F.F ....|G-4 6F.F ....
....|..|R-- .... ....|R-- .... ....|--- .... ....
 B-4|..|B-2 2A.F ....|B-2 2A.F ....|R-- .... ....
....|..|R-- .... ....|E-4 6F.F ....|E-4 6F.F ....
....|..|B-2 2F.A ....|B-2 2F.A ....|--- .... ....
....|..|R-- .... ....|R-- .... ....|A-4 6F.A ....
....|..|B-2 2F.7 ....|B-2 2F.7 ....|--- .... ....
....|..|R-- .... ....|R-- .... ....|R-- .... ....
 B-4|..|B-2 2A.F ....|B-2 2A.F ....|G-4 6F.A ....
....|..|R-- .... ....|R-- .... ....|--- .... ....
....|..|B-2 2F.A ....|B-2 2F.A ....|R-- .... ....
....|..|R-- .... ....|R-- .... ....|E-4 6F.A ....
....|..|B-2 2F.7 ....|B-2 2F.7 ....|R-- .... ....
....|..|R-- .... ....|A-4 6F.A ....|A-4 6F.7 ....
 B-4|..|B-2 2A.F ....|E-4 6F.F ....|E-4 6F.F ....
....|..|R-- .... ....|R-- .... ....|R-- .... ....
....|..|B-2 2F.A ....|B-2 2F.A ....|G-4 6F.7 ....
....|..|R-- .... ....|E-4 6F.F ....|E-4 6F.F ....
....|..|B-2 2F.7 ....|B-2 2F.7 ....|R-- .... ....
....|..|R-- .... ....|E-4 6F.A ....|E-4 6F.7 ....
 B-4|..|B-2 2A.F ....|B-4 6F.F ....|B-4 6F.F ....
....|..|R-- .... ....|R-- .... ....|--- .... ....
....|..|B-2 2F.A ....|B-2 2F.A ....|E-4 6F.A ....
....|..|R-- .... ....|R-- .... ....|--- .... ....
....|..|B-2 2F.7 ....|B-2 2F.7 ....|R-- .... ....
....|..|R-- .... ....|R-- .... ....|E-4 6F.A ....
 F#4|..|F#2 2A.F ....|B-4 6F.F ....|B-4 6F.F ....
....|..|R-- .... ....|R-- .... ....|R-- .... ....
....|..|B-2 2F.A ....|B-2 2F.A ....|B-4 6F.A ....
....|..|R-- .... ....|R-- .... ....|--- .... ....
....|..|B-2 2F.7 ....|E-4 6F.A ....|E-4 6F.7 ....
....|..|R-- .... ....|R-- .... ....|--- .... ....
 F#4|..|F#2 2A.F ....|A-4 6F.F ....|A-4 6F.F ....
....|..|R-- .... ....|R-- .... ....|E-4 6F.7 ....
....|..|F#2 2F.A ....|F#2 2F.A ....|B-4 6F.A ....
....|..|R-- .... ....|R-- .... ....|R-- .... ....
....|..|B-2 2F.7 ....|B-4 6F.A ....|B-4 6F.7 ....
....|..|R-- .... ....|A-4 6F.F ....|A-4 6F.F ....
 F#4|..|F#2 2A.F ....|G-4 6F.F ....|G-4 6F.F ....
....|..|R-- .... ....|R-- .... ....|--- .... ....
....|..|F#2 2F.A ....|F#2 2F.A ....|A-4 6F.A ....
....|..|R-- .... ....|R-- .... ....|--- .... ....
....|..|F#2 2F.7 ....|B-4 6F.A ....|B-4 6F.7 ....
....|..|R-- .... ....|E-4 6F.F ....|E-4 6F.F ....
 F#4|..|F#2 2A.F ....|F#2 2A.F ....|--- .... ....
....|..|R-- .... ....|R-- .... ....|A-4 6F.A ....
....|..|F#2 2F.A ....|F#2 2F.A ....|G-4 6F.A ....
....|..|R-- .... ....|R-- .... ....|--- .... ....
....|..|F#2 2F.7 ....|A-4 6F.A ....|A-4 6F.7 ....
....|..|R-- .... ....|E-4 6F.7 ....|--- .... ....
 F#4|..|F#2 2A.F ....|F#2 2A.F ....|--- .... ....
 F#4|..|F#2 2A.F ....|F#2 2A.F ....|E-4 6F.A ....
....|..|F#2 2F.A ....|F#2 2F.A ....|--- .... ....
....|..|R-- .... ....|A-4 6F.A ....|A-4 6F.7 ....
....|..|F#2 2F.7 ....|G-4 6F.A ....|G-4 6F.7 ....
....|..|R-- .... ....|R-- .... ....|--- .... ....
 F#4|..|F#2 2A.F ....|F#2 2A.F ....|--- .... ....
....|..|R-- .... ....|R-- .... ....|--- .... ....
....|..|F#2 2F.A ....|F#2 2F.A ....|--- .... ....
....|..|F#2 2F.A ....|E-4 6F.A ....|E-4 6F.7 ....
....|..|F#2 2F.7 ....|F#2 2F.7 ....|--- .... ....
....|..|R-- .... ....|R-- .... ....|R-- .... ....
 F#4|..|F#2 2A.F ....|F#2 2A.F ....|--- .... ....
 F#4|..|F#2 2A.F ....|F#2 2A.F ....|--- .... ....
....|..|F#2 2F.A ....|F#2 2F.A ....|--- .... ....
....|..|R-- .... ....|R-- .... ....|--- .... ....
....|..|F#2 2F.7 ....|F#2 2F.7 ....|--- .... ....
....|..|F#2 2F.7 ....|F#2 2F.7 ....|--- .... ....

[Pattern2]
 F#4|..|F#2 2A.F ....|A-4 6F.F ....|A-4 6F.F ....
 F#4|..|F#2 2A.F ....|F#2 2A.F ....|R-- .... ....
....|..|F#2 2F.A ....|F#2 2F.A ....|--- .... ....
....|..|F#2 2F.A ....|F#2 2F.A ....|--- .... ....
....|..|F#2 2F.7 ....|F#2 2F.7 ....|--- .... ....
....|..|R-- .... ....|R-- .... ....|--- .... ....
 A-3|..|A-2 2C.F ....|A-2 2C.F ....|--- .... ....
....|..|R-- .... ....|R-- .... ....|--- .... ....
....|..|F#2 2F.A ....|F#2 2F.A ....|A-4 6F.A ....
....|..|F#2 2F.A ....|F#2 2F.A ....|R-- .... ....
....|..|F#2 2F.7 ....|D-5 6F.F ....|D-5 6F.F ....
....|..|F#2 2F.7 ....|F#2 2F.7 ....|--- .... ....
 A-3|..|A-2 2C.F ....|A-2 2C.F ....|--- .... ....
....|..|R-- .... ....|R-- .... ....|--- .... ....
....|..|A-2 2F.A ....|A-2 2F.A ....|--- .... ....
....|..|R-- .... ....|R-- .... ....|--- .... ....
....|..|F#2 2F.7 ....|A-4 6F.A ....|A-4 6F.7 ....
....|..|F#2 2F.7 ....|F#2 2F.7 ....|R-- .... ....
 A-3|..|A-2 2C.F ....|A-2 2C.F ....|D-5 6F.A ....
....|..|R-- .... ....|B-4 6F.F ....|B-4 6F.F ....
....|..|A-2 2F.A ....|A-2 2F.A ....|--- .... ....
....|..|R-- .... ....|R-- .... ....|--- .... ....
....|..|A-2 2F.7 ....|A-2 2F.7 ....|--- .... ....
....|..|R-- .... ....|R-- .... ....|--- .... ....
 A-3|..|A-2 2C.F ....|A-2 2C.F ....|R-- .... ....
....|..|R-- .... ....|A-4 6F.F ....|A-4 6F.F ....
....|..|A-2 2F.A ....|D-5 6F.A ....|D-5 6F.7 ....
....|..|R-- .... ....|R-- .... ....|B-4 6F.A ....
....|..|A-2 2F.7 ....|A-2 2F.7 ....|--- .... ....
....|..|R-- .... ....|R-- .... ....|R-- .... ....
 A-3|..|A-2 2C.F ....|G-4 6F.F ....|G-4 6F.F ....
 A-3|..|A-2 2C.F ....|A-2 2C.F ....|--- .... ....
....|..|A-2 2F.A ....|A-2 2F.A ....|R-- .... ....
....|..|R-- .... ....|R-- .... ....|A-4 6F.A ....
....|..|A-2 2F.7 ....|A-2 2F.7 ....|--- .... ....
....|..|R-- .... ....|B-4 6F.A ....|B-4 6F.7 ....
 A-3|..|A-2 2C.F ....|E-4 6F.F ....|E-4 6F.F ....
....|..|R-- .... ....|R-- .... ....|R-- .... ....
....|..|A-2 2F.A ....|A-2 2F.A ....|G-4 6F.A ....
....|..|A-2 2F.A ....|A-2 2F.A ....|R-- .... ....
....|..|A-2 2F.7 ....|A-2 2F.7 ....|R-- .... ....
....|..|R-- .... ....|A-4 6F.A ....|A-4 6F.7 ....
 A-3|..|A-2 2C.F ....|A-2 2C.F ....|--- .... ....
 A-3|..|A-2 2C.F ....|A-2 2C.F ....|R-- .... ....
....|..|A-2 2F.A ....|A-2 2F.A ....|E-4 6F.A ....
....|..|R-- .... ....|E-4 6F.F ....|E-4 6F.F ....
....|..|A-2 2F.7 ....|G-4 6F.A ....|G-4 6F.7 ....
....|..|A-2 2F.7 ....|A-2 2F.7 ....|R-- .... ....
 A-3|..|A-2 2C.F ....|G-4 6F.F ....|G-4 6F.F ....
 A-3|..|A-2 2C.F ....|A-2 2C.F ....|--- .... ....
....|..|A-2 2F.A ....|A-2 2F.A ....|--- .... ....
....|..|A-2 2F.A ....|A-2 2F.A ....|R-- .... ....
....|..|A-2 2F.7 ....|E-4 6F.A ....|E-4 6F.7 ....
....|..|R-- .... ....|R-- .... ....|E-4 6F.A ....
 F#4|..|F#2 2A.F ....|G-4 6F.F ....|G-4 6F.F ....
....|..|R-- .... ....|R-- .... ....|R-- .... ....
....|..|A-2 2F.A ....|A-2 2F.A ....|G-4 6F.A ....
....|..|A-2 2F.A ....|A-2 2F.A ....|--- .... ....
....|..|A-2 2F.7 ....|A-2 2F.7 ....|--- .... ....
....|..|A-2 2F.7 ....|A-2 2F.7 ....|R-- .... ....
 F#4|..|F#2 2A.F ....|F#4 6F.F ....|F#4 6F.F ....
....|..|R-- .... ....|R-- .... ....|E-4 6F.7 ....
....|..|F#2 2F.A ....|F#2 2F.A ....|G-4 6F.A ....
....|..|R-- .... ....|R-- .... ....|--- .... ....
....|..|A-2 2F.7 ....|G-4 6F.A ....|G-4 6F.7 ....
....|..|A-2 2F.7 ....|A-2 2F.7 ....|R-- .... ....
 F#4|..|F#2 2A.F ....|E-4 6F.F ....|E-4 6F.F ....
....|..|R-- .... ....|R-- .... ....|R-- .... ....
....|..|F#2 2F.A ....|F#2 2F.A ....|F#4 6F.A ....
....|..|R-- .... ....|R-- .... ....|R-- .... ....
....|..|F#2 2F.7 ....|G-4 6F.A ....|G-4 6F.7 ....
....|..|R-- .... ....|R-- .... ....|R-- .... ....
 F#4|..|F#2 2A.F ....|E-4 6F.F ....|E-4 6F.F ....
....|..|R-- .... ....|R-- .... ....|R-- .... ....
....|..|F#2 2F.A ....|F#2 2F.A ....|E-4 6F.A ....
....|..|R-- .... ....|R-- .... ....|R-- .... ....
....|..|F#2 2F.7 ....|F#4 6F.A ....|F#4 6F.7 ....
....|..|R-- .... ....|E-4 6F.7 ....|--- .... ....
 A-3|..|A-2 2C.F ....|A-2 2C.F ....|--- .... ....
 A-3|..|A-2 2C.F ....|A-2 2C.F ....|R-- .... ....
....|..|F#2 2F.A ....|F#2 2F.A ....|E-4 6F.A ....
....|..|R-- .... ....|R-- .... ....|R-- .... ....
....|..|F#2 2F.7 ....|E-4 6F.A ....|E-4 6F.7 ....
....|..|R-- .... ....|R-- .... ....|--- .... ....
 A-3|..|A-2 2C.F ....|A-2 2C.F ....|--- .... ....
....|..|R-- .... ....|R-- .... ....|--- .... ....
....|..|A-2 2F.A ....|A-2 2F.A ....|--- .... ....
....|..|A-2 2F.A ....|A-2 2F.A ....|R-- .... ....
....|..|F#2 2F.7 ....|E-4 6F.A ....|E-4 6F.7 ....
....|..|R-- .... ....|R-- .... ....|--- .... ....
 A-3|..|A-2 2C.F ....|A-2 2C.F ....|--- .... ....
 A-3|..|A-2 2C.F ....|A-2 2C.F ....|--- .... ....
....|..|A-2 2F.A ....|A-2 2F.A ....|--- .... ....
....|..|R-- .... ....|R-- .... ....|--- .... ....
....|..|A-2 2F.7 ....|A-2 2F.7 ....|--- .... ....
....|..|A-2 2F.7 ....|A-2 2F.7 ....|--- .... ....
 B-4|..|B-2 2A.F ....|A-4 6F.F ....|A-4 6F.F ....
....|..|R-- .... ....|R-- .... ....|--- .... ....
....|..|A-2 2F.A ....|A-2 2F.A ....|--- .... ....
....|..|A-2 2F.A ....|A-2 2F.A ....|--- .... ....
....|..|A-2 2F.7 ....|A-2 2F.7 ....|--- .... ....
....|..|R-- .... ....|R-- .... ....|--- .... ....
 B-4|..|B-2 2A.F ....|B-2 2A.F ....|--- .... ....
....|..|R-- .... ....|R-- .... ....|--- .... ....
....|..|B-2 2F.A ....|B-2 2F.A ....|A-4 6F.A ....
....|..|R-- .... ....|R-- .... ....|--- .... ....
....|..|A-2 2F.7 ....|A-2 2F.7 ....|R-- .... ....
....|..|A-2 2F.7 ....|A-2 2F.7 ....|--- .... ....
 B-4|..|B-2 2A.F ....|A-4 6F.F ....|A-4 6F.F ....
....|..|R-- .... ....|R-- .... ....|--- .... ....
....|..|B-2 2F.A ....|B-2 2F.A ....|--- .... ....
....|..|R-- .... ....|R-- .... ....|--- .... ....
....|..|B-2 2F.7 ....|A-4 6F.A ....|A-4 6F.7 ....
....|..|R-- .... ....|R-- .... ....|--- .... ....
 B-4|..|B-2 2A.F ....|B-2 2A.F ....|R-- .... ....
....|..|R-- .... ....|R-- .... ....|--- .... ....
....|..|B-2 2F.A ....|B-2 2F.A ....|A-4 6F.A ....
....|..|R-- .... ....|R-- .... ....|--- .... ....
....|..|B-2 2F.7 ....|B-2 2F.7 ....|--- .... ....
....|..|R-- .... ....|R-- .... ....|--- .... ....
 B-4|..|B-2 2A.F ....|B-2 2A.F ....|--- .... ....
....|..|R-- .... ....|A-4 6F.F ....|A-4 6F.F ....
....|..|B-2 2F.A ....|B-2 2F.A ....|R-- .... ....
....|..|R-- .... ....|R-- .... ....|R-- .... ....
....|..|B-2 2F.7 ....|G-4 6F.F ....|G-4 6F.F ....
....|..|R-- .... ....|R-- .... ....|--- .... ....
 B-4|..|B-2 2A.F ....|B-2 2A.F ....|R-- .... ....
....|..|R-- .... ....|E-4 6F.F ....|E-4 6F.F ....
....|..|B-2 2F.A ....|B-2 2F.A ....|--- .... ....
....|..|R-- .... ....|R-- .... ....|A-4 6F.A ....
....|..|B-2 2F.7 ....|B-2 2F.7 ....|--- .... ....
....|..|R-- .... ....|R-- .... ....|R-- .... ....
 B-4|..|B-2 2A.F ....|B-2 2A.F ....|G-4 6F.A ....
....|..|R-- .... ....|R-- .... ....|--- .... ....
....|..|B-2 2F.A ....|B-2 2F.A ....|R-- .... ....
....|..|R-- .... ....|R-- .... ....|E-4 6F.A ....
....|..|B-2 2F.7 ....|B-2 2F.7 ....|--- .... ....
....|..|R-- .... ....|A-4 6F.A ....|A-4 6F.7 ....
 B-4|..|B-2 2A.F ....|E-4 6F.F ....|E-4 6F.F ....
....|..|R-- .... ....|R-- .... ....|R-- .... ....
....|..|B-2 2F.A ....|B-2 2F.A ....|G-4 6F.7 ....
....|..|R-- .... ....|E-4 6F.F ....|E-4 6F.F ....
....|..|B-2 2F.7 ....|B-2 2F.7 ....|R-- .... ....
....|..|R-- .... ....|E-4 6F.A ....|E-4 6F.7 ....
 B-4|..|B-2 2A.F ....|B-4 6F.F ....|B-4 6F.F ....
....|..|R-- .... ....|R-- .... ....|--- .... ....
....|..|B-2 2F.A ....|B-2 2F.A ....|E-4 6F.A ....
....|..|R-- .... ....|R-- .... ....|--- .... ....
....|..|B-2 2F.7 ....|B-2 2F.7 ....|R-- .... ....
....|..|R-- .... ....|R-- .... ....|E-4 6F.A ....
 F#4|..|F#2 2A.F ....|B-4 6F.F ....|B-4 6F.F ....
....|..|R-- .... ....|R-- .... ....|--- .... ....
....|..|B-2 2F.A ....|B-2 2F.A ....|B-4 6F.A ....
....|..|R-- .... ....|R-- .... ....|--- .... ....
....|..|B-2 2F.7 ....|E-4 6F.A ....|E-4 6F.7 ....
....|..|R-- .... ....|R-- .... ....|R-- .... ....
 F#4|..|F#2 2A.F ....|A-4 6F.F ....|A-4 6F.F ....
....|..|R-- .... ....|R-- .... ....|E-4 6F.7 ....
....|..|F#2 2F.A ....|F#2 2F.A ....|B-4 6F.A ....
....|..|R-- .... ....|R-- .... ....|--- .... ....
....|..|B-2 2F.7 ....|B-4 6F.A ....|B-4 6F.7 ....
....|..|R-- .... ....|A-4 6F.F ....|A-4 6F.F ....
 F#4|..|F#2 2A.F ....|G-4 6F.F ....|G-4 6F.F ....
....|..|R-- .... ....|R-- .... ....|R-- .... ....
....|..|F#2 2F.A ....|F#2 2F.A ....|A-4 6F.A ....
....|..|R-- .... ....|R-- .... ....|--- .... ....
....|..|F#2 2F.7 ....|B-4 6F.A ....|B-4 6F.7 ....
....|..|R-- .... ....|E-4 6F.F ....|E-4 6F.F ....
 F#4|..|F#2 2A.F ....|F#2 2A.F ....|--- .... ....
....|..|R-- .... ....|R-- .... ....|A-4 6F.A ....
....|..|F#2 2F.A ....|F#2 2F.A ....|G-4 6F.A ....
....|..|R-- .... ....|R-- .... ....|R-- .... ....
....|..|F#2 2F.7 ....|A-4 6F.A ....|A-4 6F.7 ....
....|..|R-- .... ....|E-4 6F.7 ....|--- .... ....
 F#4|..|F#2 2A.F ....|F#2 2A.F ....|--- .... ....
 F#4|..|F#2 2A.F ....|F#2 2A.F ....|E-4 6F.A ....
....|..|F#2 2F.A ....|F#2 2F.A ....|--- .... ....
....|..|R-- .... ....|A-4 6F.A ....|A-4 6F.7 ....
....|..|F#2 2F.7 ....|G-4 6F.A ....|G-4 6F.7 ....
....|..|R-- .... ....|R-- .... ....|--- .... ....
 F#4|..|F#2 2A.F ....|F#2 2A.F ....|--- .... ....
....|..|R-- .... ....|R-- .... ....|--- .... ....
....|..|F#2 2F.A ....|F#2 2F.A ....|--- .... ....
....|..|F#2 2F.A ....|E-4 6F.A ....|E-4 6F.7 ....
....|..|F#2 2F.7 ....|F#2 2F.7 ....|--- .... ....
....|..|R-- .... ....|R-- .... ....|R-- .... ....
 F#4|..|F#2 2A.F ....|F#2 2A.F ....|--- .... ....
 F#4|..|F#2 2A.F ....|F#2 2A.F ....|--- .... ....
....|..|F#2 2F.A ....|F#2 2F.A ....|--- .... ....
....|..|R-- .... ....|R-- .... ....|--- .... ....
....|..|F#2 2F.7 ....|F#2 2F.7 ....|--- .... ....
....|..|F#2 2F.7 ....|F#2 2F.7 ....|--- .... ....

[Pattern3]
 F#4|..|F#2 2A.F ....|A-4 6F.F ....|A-4 6F.F ....
 F#4|..|F#2 2A.F ....|F#2 2A.F ....|R-- .... ....
....|..|F#2 2F.A ....|F#2 2F.A ....|--- .... ....
....|..|F#2 2F.A ....|F#2 2F.A ....|--- .... ....
....|..|F#2 2F.7 ....|F#2 2F.7 ....|--- .... ....
....|..|R-- .... ....|R-- .... ....|--- .... ....
 A-3|..|A-2 2C.F ....|A-2 2C.F ....|--- .... ....
....|..|R-- .... ....|R-- .... ....|--- .... ....
....|..|F#2 2F.A ....|F#2 2F.A ....|A-4 6F.A ....
....|..|F#2 2F.A ....|F#2 2F.A ....|R-- .... ....
....|..|F#2 2F.7 ....|D-5 6F.F ....|D-5 6F.F ....
....|..|F#2 2F.7 ....|F#2 2F.7 ....|--- .... ....
 A-3|..|A-2 2C.F ....|A-2 2C.F ....|--- .... ....
....|..|R-- .... ....|R-- .... ....|--- .... ....
....|..|A-2 2F.A ....|A-2 2F.A ....|--- .... ....
....|..|R-- .... ....|R-- .... ....|--- .... ....
....|..|F#2 2F.7 ....|A-4 6F.A ....|A-4 6F.7 ....
....|..|F#2 2F.7 ....|F#2 2F.7 ....|R-- .... ....
 A-3|..|A-2 2C.F ....|A-2 2C.F ....|D-5 6F.A ....
....|..|R-- .... ....|B-4 6F.F ....|B-4 6F.F ....
....|..|A-2 2F.A ....|A-2 2F.A ....|--- .... ....
....|..|R-- .... ....|R-- .... ....|--- .... ....
....|..|A-2 2F.7 ....|A-2 2F.7 ....|--- .... ....
....|..|R-- .... ....|R-- .... ....|--- .... ....
 A-3|..|A-2 2C.F ....|A-2 2C.F ....|R-- .... ....
....|..|R-- .... ....|A-4 6F.F ....|A-4 6F.F ....
....|..|A-2 2F.A ....|D-5 6F.A ....|D-5 6F.7 ....
....|..|R-- .... ....|R-- .... ....|B-4 6F.A ....
....|..|A-2 2F.7 ....|A-2 2F.7 ....|--- .... ....
....|..|R-- .... ....|R-- .... ....|R-- .... ....
 A-3|..|A-2 2C.F ....|G-4 6F.F ....|G-4 6F.F ....
 A-3|..|A-2 2C.F ....|A-2 2C.F ....|--- .... ....
....|..|A-2 2F.A ....|A-2 2F.A ....|R-- .... ....
....|..|R-- .... ....|R-- .... ....|A-4 6F.A ....
....|..|A-2 2F.7 ....|A-2 2F.7 ....|--- .... ....
....|..|R-- .... ....|B-4 6F.A ....|B-4 6F.7 ....
 A-3|..|A-2 2C.F ....|E-4 6F.F ....|E-4 6F.F ....
....|..|R-- .... ....|R-- .... ....|R-- .... ....
....|..|A-2 2F.A ....|A-2 2F.A ....|G-4 6F.A ....
....|..|A-2 2F.A ....|A-2 2F.A ....|R-- .... ....
....|..|A-2 2F.7 ....|A-2 2F.7 ....|R-- .... ....
....|..|R-- .... ....|A-4 6F.A ....|A-4 6F.7 ....
 A-3|..|A-2 2C.F ....|E-4 6F.F ....|E-4 6F.F ....
 A-3|..|A-2 2C.F ....|A-2 2C.F ....|R-- .... ....
....|..|A-2 2F.A ....|A-2 2F.A ....|E-4 6F.A ....
....|..|R-- .... ....|R-- .... ....|R-- .... ....
....|..|A-2 2F.7 ....|G-4 6F.A ....|G-4 6F.7 ....
....|..|A-2 2F.7 ....|A-2 2F.7 ....|R-- .... ....
 A-3|..|A-2 2C.F ....|G-4 6F.F ....|G-4 6F.F ....
 A-3|..|A-2 2C.F ....|A-2 2C.F ....|R-- .... ....
....|..|A-2 2F.A ....|A-2 2F.A ....|E-4 6F.A ....
....|..|A-2 2F.A ....|G-4 6F.F ....|G-4 6F.F ....
....|..|A-2 2F.7 ....|E-4 6F.A ....|E-4 6F.7 ....
....|..|R-- .... ....|R-- .... ....|--- .... ....
 F#4|..|F#2 2A.F ....|G-4 6F.F ....|G-4 6F.F ....
....|..|R-- .... ....|R-- .... ....|R-- .... ....
....|..|A-2 2F.A ....|A-2 2F.A ....|G-4 6F.A ....
....|..|A-2 2F.A ....|A-2 2F.A ....|R-- .... ....
....|..|A-2 2F.7 ....|E-4 6F.A ....|E-4 6F.7 ....
....|..|A-2 2F.7 ....|A-2 2F.7 ....|G-4 6F.A ....
 F#4|..|F#2 2A.F ....|F#4 6F.F ....|F#4 6F.F ....
....|..|R-- .... ....|R-- .... ....|--- .... ....
....|..|F#2 2F.A ....|F#2 2F.A ....|G-4 6F.A ....
....|..|R-- .... ....|R-- .... ....|R-- .... ....
....|..|A-2 2F.7 ....|G-4 6F.A ....|G-4 6F.7 ....
....|..|A-2 2F.7 ....|A-2 2F.7 ....|R-- .... ....
 F#4|..|F#2 2A.F ....|E-4 6F.F ....|E-4 6F.F ....
....|..|R-- .... ....|R-- .... ....|G-4 6F.7 ....
....|..|F#2 2F.A ....|F#2 2F.A ....|F#4 6F.A ....
....|..|R-- .... ....|R-- .... ....|--- .... ....
....|..|F#2 2F.7 ....|G-4 6F.A ....|G-4 6F.7 ....
....|..|R-- .... ....|R-- .... ....|R-- .... ....
 F#4|..|F#2 2A.F ....|F#2 2A.F ....|R-- .... ....
....|..|R-- .... ....|E-4 6F.F ....|E-4 6F.F ....
....|..|F#2 2F.A ....|F#2 2F.A ....|E-4 6F.A ....
....|..|R-- .... ....|R-- .... ....|--- .... ....
....|..|F#2 2F.7 ....|F#4 6F.A ....|F#4 6F.7 ....
....|..|R-- .... ....|R-- .... ....|--- .... ....
 A-3|..|A-2 2C.F ....|A-2 2C.F ....|--- .... ....
 A-3|..|A-2 2C.F ....|A-2 2C.F ....|R-- .... ....
....|..|F#2 2F.A ....|F#2 2F.A ....|R-- .... ....
....|..|R-- .... ....|R-- .... ....|E-4 6F.A ....
....|..|F#2 2F.7 ....|E-4 6F.A ....|E-4 6F.7 ....
....|..|R-- .... ....|G-4 6F.7 ....|--- .... ....
 A-3|..|A-2 2C.F ....|A-2 2C.F ....|--- .... ....
....|..|R-- .... ....|R-- .... ....|--- .... ....
....|..|A-2 2F.A ....|A-2 2F.A ....|--- .... ....
....|..|A-2 2F.A ....|A-2 2F.A ....|--- .... ....
....|..|F#2 2F.7 ....|F#2 2F.7 ....|R-- .... ....
....|..|R-- .... ....|E-4 6F.A ....|E-4 6F.7 ....
 A-3|..|A-2 2C.F ....|A-2 2C.F ....|--- .... ....
 A-3|..|A-2 2C.F ....|A-2 2C.F ....|--- .... ....
....|..|A-2 2F.A ....|A-2 2F.A ....|--- .... ....
....|..|R-- .... ....|R-- .... ....|--- .... ....
....|..|A-2 2F.7 ....|A-2 2F.7 ....|--- .... ....
....|..|A-2 2F.7 ....|A-2 2F.7 ....|--- .... ....
 B-4|..|B-2 2A.F ....|A-4 6F.F ....|A-4 6F.F ....
....|..|R-- .... ....|R-- .... ....|R-- .... ....
....|..|A-2 2F.A ....|A-2 2F.A ....|--- .... ....
....|..|A-2 2F.A ....|A-2 2F.A ....|--- .... ....
....|..|A-2 2F.7 ....|A-2 2F.7 ....|--- .... ....
....|..|R-- .... ....|R-- .... ....|--- .... ....
 B-4|..|B-2 2A.F ....|B-2 2A.F ....|--- .... ....
....|..|R-- .... ....|R-- .... ....|--- .... ....
....|..|B-2 2F.A ....|B-2 2F.A ....|A-4 6F.A ....
....|..|R-- .... ....|R-- .... ....|--- .... ....
....|..|A-2 2F.7 ....|A-2 2F.7 ....|R-- .... ....
....|..|A-2 2F.7 ....|A-2 2F.7 ....|--- .... ....
 B-4|..|B-2 2A.F ....|A-4 6F.F ....|A-4 6F.F ....
....|..|R-- .... ....|R-- .... ....|--- .... ....
....|..|B-2 2F.A ....|B-2 2F.A ....|--- .... ....
....|..|R-- .... ....|R-- .... ....|--- .... ....
....|..|B-2 2F.7 ....|A-4 6F.A ....|A-4 6F.7 ....
....|..|R-- .... ....|R-- .... ....|--- .... ....
 B-4|..|B-2 2A.F ....|B-2 2A.F ....|R-- .... ....
....|..|R-- .... ....|R-- .... ....|--- .... ....
....|..|B-2 2F.A ....|B-2 2F.A ....|A-4 6F.A ....
....|..|R-- .... ....|R-- .... ....|--- .... ....
....|..|B-2 2F.7 ....|B-2 2F.7 ....|--- .... ....
....|..|R-- .... ....|R-- .... ....|--- .... ....
 B-4|..|B-2 2A.F ....|B-2 2A.F ....|--- .... ....
....|..|R-- .... ....|A-4 6F.F ....|A-4 6F.F ....
....|..|B-2 2F.A ....|B-2 2F.A ....|R-- .... ....
....|..|R-- .... ....|R-- .... ....|R-- .... ....
....|..|B-2 2F.7 ....|G-4 6F.F ....|G-4 6F.F ....
....|..|R-- .... ....|R-- .... ....|--- .... ....
 B-4|..|B-2 2A.F ....|B-2 2A.F ....|R-- .... ....
....|..|R-- .... ....|E-4 6F.F ....|E-4 6F.F ....
....|..|B-2 2F.A ....|B-2 2F.A ....|--- .... ....
....|..|R-- .... ....|R-- .... ....|A-4 6F.A ....
....|..|B-2 2F.7 ....|B-2 2F.7 ....|--- .... ....
....|..|R-- .... ....|R-- .... ....|R-- .... ....
 B-4|..|B-2 2A.F ....|B-2 2A.F ....|G-4 6F.A ....
....|..|R-- .... ....|R-- .... ....|--- .... ....
....|..|B-2 2F.A ....|B-2 2F.A ....|R-- .... ....
....|..|R-- .... ....|R-- .... ....|E-4 6F.A ....
....|..|B-2 2F.7 ....|B-2 2F.7 ....|--- .... ....
....|..|R-- .... ....|A-4 6F.A ....|A-4 6F.7 ....
 B-4|..|B-2 2A.F ....|B-2 2A.F ....|--- .... ....
....|..|R-- .... ....|R-- .... ....|R-- .... ....
....|..|B-2 2F.A ....|B-2 2F.A ....|G-4 6F.7 ....
....|..|R-- .... ....|R-- .... ....|--- .... ....
....|..|B-2 2F.7 ....|B-2 2F.7 ....|R-- .... ....
....|..|R-- .... ....|E-4 6F.A ....|E-4 6F.7 ....
 B-4|..|B-2 2A.F ....|B-4 6F.F ....|B-4 6F.F ....
....|..|R-- .... ....|R-- .... ....|--- .... ....
....|..|B-2 2F.A ....|B-2 2F.A ....|--- .... ....
....|..|R-- .... ....|R-- .... ....|R-- .... ....
....|..|B-2 2F.7 ....|B-2 2F.7 ....|R-- .... ....
....|..|R-- .... ....|R-- .... ....|--- .... ....
 F#4|..|F#2 2A.F ....|B-4 6F.F ....|B-4 6F.F ....
....|..|R-- .... ....|R-- .... ....|--- .... ....
....|..|B-2 2F.A ....|B-2 2F.A ....|B-4 6F.A ....
....|..|R-- .... ....|R-- .... ....|--- .... ....
....|..|B-2 2F.7 ....|B-2 2F.7 ....|R-- .... ....
....|..|R-- .... ....|R-- .... ....|R-- .... ....
 F#4|..|F#2 2A.F ....|A-4 6F.F ....|A-4 6F.F ....
....|..|R-- .... ....|R-- .... ....|--- .... ....
....|..|F#2 2F.A ....|F#2 2F.A ....|B-4 6F.A ....
....|..|R-- .... ....|R-- .... ....|--- .... ....
....|..|B-2 2F.7 ....|B-4 6F.A ....|B-4 6F.7 ....
....|..|R-- .... ....|A-4 6F.F ....|A-4 6F.F ....
 F#4|..|F#2 2A.F ....|G-4 6F.F ....|G-4 6F.F ....
....|..|R-- .... ....|R-- .... ....|--- .... ....
....|..|F#2 2F.A ....|F#2 2F.A ....|A-4 6F.A ....
....|..|R-- .... ....|R-- .... ....|--- .... ....
....|..|F#2 2F.7 ....|B-4 6F.A ....|B-4 6F.7 ....
....|..|R-- .... ....|R-- .... ....|--- .... ....
 F#4|..|F#2 2A.F ....|F#2 2A.F ....|--- .... ....
....|..|R-- .... ....|R-- .... ....|A-4 6F.A ....
....|..|F#2 2F.A ....|F#2 2F.A ....|G-4 6F.A ....
....|..|R-- .... ....|R-- .... ....|--- .... ....
....|..|F#2 2F.7 ....|A-4 6F.A ....|A-4 6F.7 ....
....|..|R-- .... ....|E-4 6F.F ....|E-4 6F.F ....
 F#4|..|F#2 2A.F ....|F#2 2A.F ....|--- .... ....
 F#4|..|F#2 2A.F ....|F#2 2A.F ....|--- .... ....
....|..|F#2 2F.A ....|F#2 2F.A ....|--- .... ....
....|..|R-- .... ....|A-4 6F.A ....|A-4 6F.7 ....
....|..|F#2 2F.7 ....|G-4 6F.A ....|G-4 6F.7 ....
....|..|R-- .... ....|R-- .... ....|--- .... ....
 F#4|..|F#2 2A.F ....|F#2 2A.F ....|R-- .... ....
....|..|R-- .... ....|R-- .... ....|E-4 6F.A ....
....|..|F#2 2F.A ....|F#2 2F.A ....|--- .... ....
....|..|F#2 2F.A ....|F#2 2F.A ....|R-- .... ....
....|..|F#2 2F.7 ....|F#2 2F.7 ....|--- .... ....
....|..|R-- .... ....|R-- .... ....|--- .... ....
 F#4|..|F#2 2A.F ....|F#2 2A.F ....|--- .... ....
 F#4|..|F#2 2A.F ....|F#2 2A.F ....|--- .... ....
....|..|F#2 2F.A ....|F#2 2F.A ....|R-- .... ....
....|..|R-- .... ....|E-4 6F.A ....|E-4 6F.7 ....
....|..|F#2 2F.7 ....|F#2 2F.7 ....|--- .... ....
....|..|F#2 2F.7 ....|F#2 2F.7 ....|R-- .... ....

[Pattern4]
 F#4|..|F#2 2A.F ....|A-4 6F.F ....|A-4 6F.F ....
 F#4|..|F#2 2A.F ....|F#2 2A.F ....|--- .... ....
....|..|F#2 2F.A ....|F#2 2F.A ....|--- .... ....
....|..|F#2 2F.A ....|F#2 2F.A ....|--- .... ....
....|..|F#2 2F.7 ....|F#2 2F.7 ....|--- .... ....
....|..|R-- .... ....|R-- .... ....|--- .... ....
 A-3|..|A-2 2C.F ....|A-2 2C.F ....|--- .... ....
....|..|R-- .... ....|R-- .... ....|R-- .... ....
....|..|F#2 2F.A ....|F#2 2F.A ....|A-4 6F.A ....
....|..|F#2 2F.A ....|F#2 2F.A ....|R-- .... ....
....|..|F#2 2F.7 ....|D-5 6F.F ....|D-5 6F.F ....
....|..|F#2 2F.7 ....|F#2 2F.7 ....|--- .... ....
 A-3|..|A-2 2C.F ....|A-2 2C.F ....|--- .... ....
....|..|R-- .... ....|R-- .... ....|--- .... ....
....|..|A-2 2F.A ....|A-2 2F.A ....|--- .... ....
....|..|R-- .... ....|R-- .... ....|--- .... ....
....|..|F#2 2F.7 ....|A-4 6F.A ....|A-4 6F.7 ....
....|..|F#2 2F.7 ....|F#2 2F.7 ....|R-- .... ....
 A-3|..|A-2 2C.F ....|A-2 2C.F ....|D-5 6F.A ....
....|..|R-- .... ....|B-4 6F.F ....|B-4 6F.F ....
....|..|A-2 2F.A ....|A-2 2F.A ....|--- .... ....
....|..|R-- .... ....|R-- .... ....|--- .... ....
....|..|A-2 2F.7 ....|A-2 2F.7 ....|--- .... ....
....|..|R-- .... ....|R-- .... ....|--- .... ....
 A-3|..|A-2 2C.F ....|A-2 2C.F ....|R-- .... ....
....|..|R-- .... ....|A-4 6F.F ....|A-4 6F.F ....
....|..|A-2 2F.A ....|D-5 6F.A ....|D-5 6F.7 ....
....|..|R-- .... ....|R-- .... ....|B-4 6F.A ....
....|..|A-2 2F.7 ....|A-2 2F.7 ....|--- .... ....
....|..|R-- .... ....|R-- .... ....|R-- .... ....
 A-3|..|A-2 2C.F ....|G-4 6F.F ....|G-4 6F.F ....
 A-3|..|A-2 2C.F ....|A-2 2C.F ....|--- .... ....
....|..|A-2 2F.A ....|A-2 2F.A ....|R-- .... ....
....|..|R-- .... ....|R-- .... ....|A-4 6F.A ....
....|..|A-2 2F.7 ....|A-2 2F.7 ....|--- .... ....
....|..|R-- .... ....|B-4 6F.A ....|B-4 6F.7 ....
 A-3|..|A-2 2C.F ....|E-4 6F.F ....|E-4 6F.F ....
....|..|R-- .... ....|R-- .... ....|R-- .... ....
....|..|A-2 2F.A ....|A-2 2F.A ....|G-4 6F.A ....
....|..|A-2 2F.A ....|A-2 2F.A ....|R-- .... ....
....|..|A-2 2F.7 ....|A-2 2F.7 ....|R-- .... ....
....|..|R-- .... ....|A-4 6F.A ....|A-4 6F.7 ....
 A-3|..|A-2 2C.F ....|E-4 6F.F ....|E-4 6F.F ....
 A-3|..|A-2 2C.F ....|A-2 2C.F ....|R-- .... ....
....|..|A-2 2F.A ....|A-2 2F.A ....|E-4 6F.A ....
....|..|R-- .... ....|E-4 6F.F ....|E-4 6F.F ....
....|..|A-2 2F.7 ....|G-4 6F.A ....|G-4 6F.7 ....
....|..|A-2 2F.7 ....|A-2 2F.7 ....|R-- .... ....
 A-3|..|A-2 2C.F ....|G-4 6F.F ....|G-4 6F.F ....
 A-3|..|A-2 2C.F ....|A-2 2C.F ....|--- .... ....
....|..|A-2 2F.A ....|A-2 2F.A ....|E-4 6F.A ....
....|..|A-2 2F.A ....|G-4 6F.F ....|G-4 6F.F ....
....|..|A-2 2F.7 ....|E-4 6F.A ....|E-4 6F.7 ....
....|..|R-- .... ....|R-- .... ....|E-4 6F.A ....
 F#4|..|F#2 2A.F ....|G-4 6F.F ....|G-4 6F.F ....
....|..|R-- .... ....|R-- .... ....|R-- .... ....
....|..|A-2 2F.A ....|A-2 2F.A ....|G-4 6F.A ....
....|..|A-2 2F.A ....|A-2 2F.A ....|--- .... ....
....|..|A-2 2F.7 ....|E-4 6F.A ....|E-4 6F.7 ....
....|..|A-2 2F.7 ....|A-2 2F.7 ....|G-4 6F.A ....
 F#4|..|F#2 2A.F ....|F#4 6F.F ....|F#4 6F.F ....
....|..|R-- .... ....|R-- .... ....|E-4 6F.7 ....
....|..|F#2 2F.A ....|F#2 2F.A ....|G-4 6F.A ....
....|..|R-- .... ....|R-- .... ....|--- .... ....
....|..|A-2 2F.7 ....|G-4 6F.A ....|G-4 6F.7 ....
....|..|A-2 2F.7 ....|A-2 2F.7 ....|R-- .... ....
 F#4|..|F#2 2A.F ....|E-4 6F.F ....|E-4 6F.F ....
....|..|R-- .... ....|R-- .... ....|G-4 6F.7 ....
....|..|F#2 2F.A ....|F#2 2F.A ....|F#4 6F.A ....
....|..|R-- .... ....|R-- .... ....|--- .... ....
....|..|F#2 2F.7 ....|G-4 6F.A ....|G-4 6F.7 ....
....|..|R-- .... ....|R-- .... ....|R-- .... ....
 F#4|..|F#2 2A.F ....|E-4 6F.F ....|E-4 6F.F ....
....|..|R-- .... ....|R-- .... ....|R-- .... ....
....|..|F#2 2F.A ....|F#2 2F.A ....|E-4 6F.A ....
....|..|R-- .... ....|R-- .... ....|R-- .... ....
....|..|F#2 2F.7 ....|F#4 6F.A ....|F#4 6F.7 ....
....|..|R-- .... ....|E-4 6F.7 ....|--- .... ....
 A-3|..|A-2 2C.F ....|A-2 2C.F ....|--- .... ....
 A-3|..|A-2 2C.F ....|A-2 2C.F ....|R-- .... ....
....|..|F#2 2F.A ....|F#2 2F.A ....|E-4 6F.A ....
....|..|R-- .... ....|R-- .... ....|R-- .... ....
....|..|F#2 2F.7 ....|E-4 6F.A ....|E-4 6F.7 ....
....|..|R-- .... ....|G-4 6F.7 ....|--- .... ....
 A-3|..|A-2 2C.F ....|A-2 2C.F ....|--- .... ....
....|..|R-- .... ....|R-- .... ....|--- .... ....
....|..|A-2 2F.A ....|A-2 2F.A ....|--- .... ....
....|..|A-2 2F.A ....|A-2 2F.A ....|R-- .... ....
....|..|F#2 2F.7 ....|E-4 6F.A ....|E-4 6F.7 ....
....|..|R-- .... ....|R-- .... ....|--- .... ....
 A-3|..|A-2 2C.F ....|A-2 2C.F ....|--- .... ....
 A-3|..|A-2 2C.F ....|A-2 2C.F ....|--- .... ....
....|..|A-2 2F.A ....|A-2 2F.A ....|--- .... ....
....|..|R-- .... ....|R-- .... ....|--- .... ....
....|..|A-2 2F.7 ....|A-2 2F.7 ....|--- .... ....
....|..|A-2 2F.7 ....|A-2 2F.7 ....|--- .... ....
 C-3|..|C-1 2A.F ....|C-4 3F1F ....|R-- .... ....
....|..|--- .... ....|R-- .... ....|--- .... ....
....|..|A-2 2F.A ....|A-2 2F.A ....|--- .... ....
....|..|A-2 2F.A ....|A-2 2F.A ....|--- .... ....
....|..|A-2 2F.7 ....|A-2 2F.7 ....|--- .... ....
....|..|R-- .... ....|R-- .... ....|--- .... ....
 G-4|..|C-2 2F.F ....|G-2 2A.F ....|--- .... ....
....|..|--- .... ....|R-- .... ....|--- .... ....
....|..|C-1 2F.A ....|C-4 3F1A ....|--- .... ....
....|..|--- .... ....|R-- .... ....|--- .... ....
....|..|A-2 2F.7 ....|A-2 2F.7 ....|--- .... ....
....|..|A-2 2F.7 ....|A-2 2F.7 ....|--- .... ....
 G-4|..|C-2 2F.F ....|G-2 2A.F ....|--- .... ....
....|..|R-- .... ....|R-- .... ....|--- .... ....
....|..|C-2 2F.A ....|G-2 2F.A ....|--- .... ....
....|..|--- .... ....|R-- .... ....|--- .... ....
....|..|C-1 2F.7 ....|C-1 2F.A ....|--- .... ....
....|..|R-- .... ....|R-- .... ....|--- .... ....
 C-4|..|C-2 2A.F ....|G-4 6F.F ....|G-4 6F.F ....
....|..|R-- .... ....|R-- .... ....|--- .... ....
....|..|C-2 2F.A ....|G-2 2F.A ....|--- .... ....
....|..|R-- .... ....|R-- .... ....|R-- .... ....
....|..|C-2 2F.7 ....|G-2 2F.7 ....|--- .... ....
....|..|R-- .... ....|R-- .... ....|--- .... ....
 G-4|..|C-2 2F.F ....|G-2 2A.F ....|--- .... ....
....|..|R-- .... ....|A#4 6F.F ....|A#4 6F.F ....
....|..|C-2 2F.A ....|G-2 2F.A ....|G-4 6F.A ....
....|..|R-- .... ....|R-- .... ....|--- .... ....
....|..|C-2 2F.7 ....|G-2 2F.7 ....|--- .... ....
....|..|R-- .... ....|R-- .... ....|R-- .... ....
 G-4|..|C-2 2F.F ....|G-2 2A.F ....|--- .... ....
....|..|R-- .... ....|R-- .... ....|--- .... ....
....|..|C-2 2F.A ....|G-2 2F.A ....|--- .... ....
....|..|R-- .... ....|R-- .... ....|A#4 6F.A ....
....|..|C-2 2F.7 ....|G-4 6F.A ....|G-4 6F.7 ....
....|..|R-- .... ....|R-- .... ....|--- .... ....
 C-4|..|C-2 2A.F ....|A#4 6F.F ....|A#4 6F.F ....
....|..|R-- .... ....|R-- .... ....|R-- .... ....
....|..|C-2 2F.A ....|G-2 2F.A ....|--- .... ....
....|..|R-- .... ....|R-- .... ....|--- .... ....
....|..|C-2 2F.7 ....|G-2 2F.7 ....|--- .... ....
....|..|R-- .... ....|A#4 6F.A ....|A#4 6F.7 ....
 G-4|..|C-2 2F.F ....|G-2 2A.F ....|--- .... ....
....|..|R-- .... ....|R-- .... ....|--- .... ....
....|..|C-2 2F.A ....|G-2 2F.A ....|A#4 6F.A ....
....|..|R-- .... ....|R-- .... ....|--- .... ....
....|..|C-2 2F.7 ....|G-2 2F.7 ....|R-- .... ....
....|..|R-- .... ....|R-- .... ....|--- .... ....
 D-3|..|D-1 2A.F ....|D-3 3F1F ....|A#4 6F.F ....
....|..|R-- .... ....|R-- .... ....|R-- .... ....
....|..|C-2 2F.A ....|G-2 2F.A ....|--- .... ....
....|..|R-- .... ....|R-- .... ....|--- .... ....
....|..|C-2 2F.7 ....|G-4 6F.F ....|G-4 6F.F ....
....|..|R-- .... ....|R-- .... ....|--- .... ....
 A-3|..|D-2 2F.F ....|A-2 2C.F ....|R-- .... ....
....|..|R-- .... ....|E-4 6F.F ....|E-4 6F.F ....
....|..|D-1 2F.A ....|D-3 3F1A ....|A#4 6F.A ....
....|..|R-- .... ....|R-- .... ....|--- .... ....
....|..|C-2 2F.7 ....|G-2 2F.7 ....|R-- .... ....
....|..|R-- .... ....|R-- .... ....|--- .... ....
 A-3|..|D-2 2F.F ....|A-2 2C.F ....|G-4 6F.A ....
....|..|R-- .... ....|G-4 6F.F ....|G-4 6F.F ....
....|..|D-2 2F.A ....|A-2 2F.A ....|R-- .... ....
....|..|R-- .... ....|R-- .... ....|E-4 6F.A ....
....|..|D-1 2F.7 ....|A#4 6F.A ....|A#4 6F.7 ....
....|..|R-- .... ....|R-- .... ....|R-- .... ....
 A-3|..|D-2 2F.F ....|A-2 2C.F ....|R-- .... ....
....|..|R-- .... ....|G-4 6F.F ....|G-4 6F.F ....
....|..|D-2 2F.A ....|A-2 2F.A ....|G-4 6F.7 ....
....|..|R-- .... ....|R-- .... ....|G-4 6F.A ....
....|..|D-2 2F.7 ....|A-2 2F.7 ....|R-- .... ....
....|..|R-- .... ....|E-4 6F.A ....|E-4 6F.7 ....
 A-3|..|D-2 2F.F ....|A-2 2C.F ....|--- .... ....
....|..|R-- .... ....|A#4 6F.F ....|A#4 6F.F ....
....|..|D-2 2F.A ....|A-2 2F.A ....|R-- .... ....
....|..|R-- .... ....|R-- .... ....|G-4 6F.A ....
....|..|D-2 2F.7 ....|A-2 2F.7 ....|--- .... ....
....|..|R-- .... ....|G-4 6F.A ....|G-4 6F.7 ....
 A-3|..|D-2 2F.F ....|A-2 2C.F ....|R-- .... ....
....|..|R-- .... ....|R-- .... ....|--- .... ....
....|..|D-2 2F.A ....|A-2 2F.A ....|--- .... ....
....|..|R-- .... ....|R-- .... ....|A#4 6F.A ....
....|..|D-2 2F.7 ....|A-2 2F.7 ....|--- .... ....
....|..|R-- .... ....|R-- .... ....|G-4 6F.7 ....
 D-3|..|D-1 2A.F ....|D-3 3F1F ....|A#4 6F.F ....
....|..|R-- .... ....|R-- .... ....|--- .... ....
....|..|D-2 2F.A ....|A-2 2F.A ....|R-- .... ....
....|..|R-- .... ....|R-- .... ....|--- .... ....
....|..|D-2 2F.7 ....|A-2 2F.7 ....|--- .... ....
....|..|R-- .... ....|A#4 6F.A ....|A#4 6F.7 ....
 A-3|..|D-2 2F.F ....|A-2 2C.F ....|--- .... ....
....|..|R-- .... ....|R-- .... ....|--- .... ....
....|..|D-1 2F.A ....|D-3 3F1A ....|A#4 6F.A ....
....|..|R-- .... ....|R-- .... ....|--- .... ....
....|..|D-2 2F.7 ....|A-2 2F.7 ....|R-- .... ....
....|..|R-- .... ....|R-- .... ....|--- .... ....

[Pattern5]
 B-2|..|B-1 2A.F ....|B-3 3F2F ....|A#4 6F.F ....
....|..|R-- .... ....|R-- .... ....|R-- .... ....
....|..|D-2 2F.A ....|A-2 2F.A ....|--- .... ....
....|..|R-- .... ....|R-- .... ....|--- .... ....
....|..|D-1 2F.7 ....|G-4 6F.F ....|G-4 6F.F ....
....|..|R-- .... ....|R-- .... ....|--- .... ....
 F#4|..|B-1 2F.F ....|F#2 2A.F ....|R-- .... ....
....|..|R-- .... ....|E-4 6F.F ....|E-4 6F.F ....
....|..|B-1 2F.A ....|B-3 3F2A ....|A#4 6F.A ....
....|..|R-- .... ....|R-- .... ....|--- .... ....
....|..|D-2 2F.7 ....|A-2 2F.7 ....|--- .... ....
....|..|R-- .... ....|R-- .... ....|R-- .... ....
 F#4|..|B-1 2F.F ....|F#2 2A.F ....|G-4 6F.A ....
....|..|R-- .... ....|G-4 6F.F ....|G-4 6F.F ....
....|..|B-1 2F.A ....|F#2 2F.A ....|R-- .... ....
....|..|R-- .... ....|R-- .... ....|E-4 6F.A ....
....|..|B-1 2F.7 ....|A#4 6F.A ....|A#4 6F.7 ....
....|..|R-- .... ....|R-- .... ....|R-- .... ....
 B-3|..|B-1 2A.F ....|G-4 6F.F ....|G-4 6F.F ....
....|..|R-- .... ....|R-- .... ....|R-- .... ....
....|..|B-1 2F.A ....|F#2 2F.A ....|G-4 6F.7 ....
....|..|R-- .... ....|R-- .... ....|G-4 6F.A ....
....|..|B-1 2F.7 ....|F#2 2F.7 ....|--- .... ....
....|..|R-- .... ....|E-4 6F.A ....|E-4 6F.7 ....
 B-3|..|B-1 2A.F ....|A#4 6F.F ....|A#4 6F.F ....
....|..|R-- .... ....|R-- .... ....|R-- .... ....
....|..|B-1 2F.A ....|F#2 2F.A ....|G-4 6F.A ....
....|..|R-- .... ....|R-- .... ....|R-- .... ....
....|..|B-1 2F.7 ....|F#2 2F.7 ....|--- .... ....
....|..|R-- .... ....|G-4 6F.A ....|G-4 6F.7 ....
 F#4|..|B-1 2F.F ....|F#2 2A.F ....|--- .... ....
....|..|R-- .... ....|R-- .... ....|--- .... ....
....|..|B-1 2F.A ....|F#2 2F.A ....|A#4 6F.A ....
....|..|R-- .... ....|R-- .... ....|R-- .... ....
....|..|B-1 2F.7 ....|G-4 6F.A ....|G-4 6F.7 ....
....|..|R-- .... ....|R-- .... ....|--- .... ....
 B-3|..|B-1 2A.F ....|A#4 6F.F ....|A#4 6F.F ....
....|..|R-- .... ....|R-- .... ....|R-- .... ....
....|..|B-1 2F.A ....|F#2 2F.A ....|--- .... ....
....|..|R-- .... ....|R-- .... ....|--- .... ....
....|..|B-1 2F.7 ....|A#4 6F.A ....|A#4 6F.7 ....
....|..|R-- .... ....|R-- .... ....|R-- .... ....
 F#4|..|B-1 2F.F ....|F#2 2A.F ....|--- .... ....
....|..|R-- .... ....|R-- .... ....|--- .... ....
....|..|B-1 2F.A ....|F#2 2F.A ....|A#4 6F.A ....
....|..|R-- .... ....|R-- .... ....|--- .... ....
....|..|B-1 2F.7 ....|F#2 2F.7 ....|R-- .... ....
....|..|R-- .... ....|R-- .... ....|--- .... ....
 C-3|..|C-1 2A.F ....|C-4 3F1F ....|A-4 6F.F ....
....|..|R-- .... ....|R-- .... ....|R-- .... ....
....|..|B-1 2F.A ....|F#2 2F.A ....|--- .... ....
....|..|R-- .... ....|R-- .... ....|R-- .... ....
....|..|B-1 2F.7 ....|A#4 6F.A ....|A#4 6F.7 ....
....|..|R-- .... ....|R-- .... ....|--- .... ....
 C-4|..|C-2 2A.F ....|G-4 6F.F ....|G-4 6F.F ....
....|..|R-- .... ....|R-- .... ....|--- .... ....
....|..|C-1 2F.A ....|C-4 3F1A ....|A-4 6F.A ....
....|..|R-- .... ....|R-- .... ....|R-- .... ....
....|..|B-1 2F.7 ....|F#2 2F.7 ....|--- .... ....
....|..|R-- .... ....|R-- .... ....|R-- .... ....
 C-4|..|C-2 2A.F ....|G-4 6F.F ....|G-4 6F.F ....
....|..|R-- .... ....|R-- .... ....|--- .... ....
....|..|C-2 2F.A ....|G-2 2F.A ....|G-4 6F.A ....
....|..|R-- .... ....|R-- .... ....|--- .... ....
....|..|C-1 2F.7 ....|A-4 6F.A ....|A-4 6F.7 ....
....|..|R-- .... ....|R-- .... ....|R-- .... ....
 C-4|..|C-2 2A.F ....|G-4 6F.F ....|G-4 6F.F ....
....|..|R-- .... ....|R-- .... ....|R-- .... ....
....|..|C-2 2F.A ....|G-2 2F.A ....|G-4 6F.A ....
....|..|R-- .... ....|R-- .... ....|--- .... ....
....|..|C-2 2F.7 ....|G-4 6F.A ....|G-4 6F.7 ....
....|..|R-- .... ....|R-- .... ....|--- .... ....
 C-4|..|C-2 2A.F ....|A-4 6F.F ....|A-4 6F.F ....
....|..|R-- .... ....|R-- .... ....|R-- .... ....
....|..|C-2 2F.A ....|G-2 2F.A ....|G-4 6F.A ....
....|..|R-- .... ....|R-- .... ....|--- .... ....
....|..|C-2 2F.7 ....|G-4 6F.A ....|G-4 6F.7 ....
....|..|R-- .... ....|R-- .... ....|R-- .... ....
 C-4|..|C-2 2A.F ....|G-4 6F.F ....|G-4 6F.F ....
....|..|R-- .... ....|R-- .... ....|--- .... ....
....|..|C-2 2F.A ....|G-2 2F.A ....|A-4 6F.A ....
....|..|R-- .... ....|R-- .... ....|--- .... ....
....|..|C-2 2F.7 ....|G-4 6F.A ....|G-4 6F.7 ....
....|..|R-- .... ....|R-- .... ....|--- .... ....
 C-4|..|C-2 2A.F ....|B-4 6F.F ....|B-4 6F.F ....
....|..|R-- .... ....|R-- .... ....|R-- .... ....
....|..|C-2 2F.A ....|G-2 2F.A ....|G-4 6F.A ....
....|..|R-- .... ....|R-- .... ....|--- .... ....
....|..|C-2 2F.7 ....|A-4 6F.A ....|A-4 6F.7 ....
....|..|R-- .... ....|R-- .... ....|R-- .... ....
 C-4|..|C-2 2A.F ....|D-3 3F2F ....|G-4 6F.F ....
....|..|R-- .... ....|R-- .... ....|--- .... ....
....|..|C-2 2F.A ....|G-2 2F.A ....|B-4 6F.A ....
....|..|R-- .... ....|R-- .... ....|R-- .... ....
....|..|C-2 2F.7 ....|G-4 6F.A ....|G-4 6F.7 ....
....|..|R-- .... ....|R-- .... ....|R-- .... ....
 C-3|..|C-1 2A.F ....|C-4 3F1F ....|G-4 6F.F ....
....|..|R-- .... ....|R-- .... ....|R-- .... ....
....|..|C-2 2F.A ....|D-3 3F2A ....|G-4 6F.A ....
....|..|R-- .... ....|R-- .... ....|--- .... ....
....|..|C-2 2F.7 ....|B-4 6F.A ....|B-4 6F.7 ....
....|..|R-- .... ....|R-- .... ....|--- .... ....
 G-4|..|C-2 2F.F ....|G-2 2A.F ....|--- .... ....
....|..|R-- .... ....|R-- .... ....|R-- .... ....
....|..|C-1 2F.A ....|C-4 3F1A ....|G-4 6F.A ....
....|..|R-- .... ....|R-- .... ....|R-- .... ....
....|..|C-2 2F.7 ....|G-4 6F.A ....|G-4 6F.7 ....
....|..|R-- .... ....|R-- .... ....|R-- .... ....
 G-4|..|C-2 2F.F ....|G-2 2A.F ....|--- .... ....
....|..|R-- .... ....|R-- .... ....|--- .... ....
....|..|C-2 2F.A ....|G-2 2F.A ....|--- .... ....
....|..|R-- .... ....|R-- .... ....|R-- .... ....
....|..|C-1 2F.7 ....|G-4 6F.A ....|G-4 6F.7 ....
....|..|R-- .... ....|R-- .... ....|--- .... ....
 C-4|..|C-2 2A.F ....|G-4 6F.F ....|G-4 6F.F ....
....|..|R-- .... ....|R-- .... ....|R-- .... ....
....|..|C-2 2F.A ....|G-2 2F.A ....|--- .... ....
....|..|R-- .... ....|R-- .... ....|R-- .... ....
....|..|C-2 2F.7 ....|G-2 2F.7 ....|--- .... ....
....|..|R-- .... ....|R-- .... ....|--- .... ....
 C-3|..|C-1 2A.F ....|C-4 3F1F ....|--- .... ....
....|..|R-- .... ....|A#4 6F.F ....|A#4 6F.F ....
....|..|C-2 2F.A ....|G-2 2F.A ....|G-4 6F.A ....
....|..|R-- .... ....|R-- .... ....|R-- .... ....
....|..|C-2 2F.7 ....|G-2 2F.7 ....|--- .... ....
....|..|R-- .... ....|R-- .... ....|R-- .... ....
 G-4|..|C-2 2F.F ....|G-2 2A.F ....|--- .... ....
....|..|R-- .... ....|R-- .... ....|--- .... ....
....|..|C-1 2F.A ....|C-4 3F1A ....|--- .... ....
....|..|R-- .... ....|R-- .... ....|A#4 6F.A ....
....|..|C-2 2F.7 ....|G-4 6F.A ....|G-4 6F.7 ....
....|..|R-- .... ....|R-- .... ....|--- .... ....
 C-4|..|C-2 2A.F ....|A#4 6F.F ....|A#4 6F.F ....
....|..|R-- .... ....|R-- .... ....|R-- .... ....
....|..|C-2 2F.A ....|G-2 2F.A ....|--- .... ....
....|..|R-- .... ....|R-- .... ....|--- .... ....
....|..|C-1 2F.7 ....|C-1 2F.A ....|--- .... ....
....|..|R-- .... ....|A#4 6F.A ....|A#4 6F.7 ....
 C-4|..|C-2 2A.F ....|C-4 3F1F ....|--- .... ....
....|..|R-- .... ....|R-- .... ....|--- .... ....
....|..|C-2 2F.A ....|G-2 2F.A ....|A#4 6F.A ....
....|..|R-- .... ....|R-- .... ....|--- .... ....
....|..|C-2 2F.7 ....|G-2 2F.7 ....|R-- .... ....
....|..|R-- .... ....|R-- .... ....|--- .... ....
 D-3|..|D-1 2A.F ....|D-3 3F1F ....|A#4 6F.F ....
....|..|R-- .... ....|R-- .... ....|R-- .... ....
....|..|C-2 2F.A ....|C-4 3F1A ....|--- .... ....
....|..|R-- .... ....|R-- .... ....|--- .... ....
....|..|C-2 2F.7 ....|G-4 6F.F ....|G-4 6F.F ....
....|..|R-- .... ....|R-- .... ....|--- .... ....
 A-3|..|D-2 2F.F ....|A-2 2C.F ....|R-- .... ....
....|..|R-- .... ....|E-4 6F.F ....|E-4 6F.F ....
....|..|D-1 2F.A ....|D-3 3F1A ....|A#4 6F.A ....
....|..|R-- .... ....|R-- .... ....|--- .... ....
....|..|C-2 2F.7 ....|G-2 2F.7 ....|R-- .... ....
....|..|R-- .... ....|R-- .... ....|--- .... ....
 A-3|..|D-2 2F.F ....|A-2 2C.F ....|G-4 6F.A ....
....|..|R-- .... ....|G-4 6F.F ....|G-4 6F.F ....
....|..|D-2 2F.A ....|A-2 2F.A ....|R-- .... ....
....|..|R-- .... ....|R-- .... ....|E-4 6F.A ....
....|..|D-1 2F.7 ....|A#4 6F.A ....|A#4 6F.7 ....
....|..|R-- .... ....|R-- .... ....|R-- .... ....
 A-3|..|D-2 2F.F ....|A-2 2C.F ....|R-- .... ....
....|..|R-- .... ....|G-4 6F.F ....|G-4 6F.F ....
....|..|D-2 2F.A ....|A-2 2F.A ....|G-4 6F.7 ....
....|..|R-- .... ....|R-- .... ....|G-4 6F.A ....
....|..|D-2 2F.7 ....|A-2 2F.7 ....|R-- .... ....
....|..|R-- .... ....|E-4 6F.A ....|E-4 6F.7 ....
 D-4|..|D-2 2A.F ....|D-3 3F5F ....|--- .... ....
....|..|R-- .... ....|A#4 6F.F ....|A#4 6F.F ....
....|..|D-2 2F.A ....|A-2 2F.A ....|R-- .... ....
....|..|R-- .... ....|R-- .... ....|G-4 6F.A ....
....|..|D-2 2F.7 ....|A-2 2F.7 ....|--- .... ....
....|..|R-- .... ....|G-4 6F.A ....|G-4 6F.7 ....
 D-4|..|D-2 2A.F ....|D-3 3F1F ....|R-- .... ....
....|..|R-- .... ....|R-- .... ....|--- .... ....
....|..|D-2 2F.A ....|D-3 3F5A ....|--- .... ....
....|..|R-- .... ....|D-3 3F6F ....|A#4 6F.A ....
....|..|D-2 2F.7 ....|A-2 2F.7 ....|--- .... ....
....|..|R-- .... ....|G-4 6F.A ....|G-4 6F.7 ....
 D-4|..|D-2 2A.F ....|D-3 3F1F ....|A#4 6F.F ....
....|..|R-- .... ....|R-- .... ....|--- .... ....
....|..|D-2 2F.A ....|D-3 3F1A ....|R-- .... ....
....|..|R-- .... ....|R-- .... ....|--- .... ....
....|..|D-2 2F.7 ....|D-3 3F57 ....|--- .... ....
....|..|R-- .... ....|R-- .... ....|A#4 6F.7 ....
 D-4|..|D-2 2A.F ....|D-3 3F7F ....|--- .... ....
....|..|R-- .... ....|R-- .... ....|--- .... ....
....|..|D-2 2F.A ....|D-3 3F1A ....|A#4 6F.A ....
....|..|R-- .... ....|R-- .... ....|--- .... ....
....|..|D-2 2F.7 ....|A-2 2F.7 ....|R-- .... ....
....|..|R-- .... ....|D-3 3F6F ....|--- .... ....

[Pattern6]
 B-2|..|B-1 2A.F ....|D-3 3F8F ....|A#4 6F.F ....
....|..|R-- .... ....|R-- .... ....|R-- .... ....
....|..|D-2 2F.A ....|D-3 3F7A ....|--- .... ....
....|..|R-- .... ....|R-- .... ....|--- .... ....
....|..|D-2 2F.7 ....|G-4 6F.F ....|G-4 6F.F ....
....|..|R-- .... ....|R-- .... ....|--- .... ....
 F#4|..|B-1 2F.F ....|F#2 2A.F ....|R-- .... ....
....|..|R-- .... ....|E-4 6F.F ....|E-4 6F.F ....
....|..|B-1 2F.A ....|D-3 3F8A ....|A#4 6F.A ....
....|..|R-- .... ....|R-- .... ....|--- .... ....
....|..|D-2 2F.7 ....|D-3 3F77 ....|--- .... ....
....|..|R-- .... ....|R-- .... ....|R-- .... ....
 F#4|..|B-1 2F.F ....|F#2 2A.F ....|G-4 6F.A ....
....|..|R-- .... ....|G-4 6F.F ....|G-4 6F.F ....
....|..|B-1 2F.A ....|F#2 2F.A ....|R-- .... ....
....|..|R-- .... ....|R-- .... ....|E-4 6F.A ....
....|..|B-1 2F.7 ....|A#4 6F.A ....|A#4 6F.7 ....
....|..|R-- .... ....|R-- .... ....|R-- .... ....
 B-3|..|B-1 2A.F ....|G-4 6F.F ....|G-4 6F.F ....
....|..|R-- .... ....|R-- .... ....|R-- .... ....
....|..|B-1 2F.A ....|F#2 2F.A ....|G-4 6F.7 ....
....|..|R-- .... ....|R-- .... ....|G-4 6F.A ....
....|..|B-1 2F.7 ....|F#2 2F.7 ....|--- .... ....
....|..|R-- .... ....|E-4 6F.A ....|E-4 6F.7 ....
 B-3|..|B-1 2A.F ....|A#4 6F.F ....|A#4 6F.F ....
....|..|R-- .... ....|R-- .... ....|R-- .... ....
....|..|B-1 2F.A ....|F#2 2F.A ....|G-4 6F.A ....
....|..|R-- .... ....|R-- .... ....|R-- .... ....
....|..|B-1 2F.7 ....|F#2 2F.7 ....|--- .... ....
....|..|R-- .... ....|G-4 6F.A ....|G-4 6F.7 ....
 F#4|..|B-1 2F.F ....|F#2 2A.F ....|--- .... ....
....|..|R-- .... ....|R-- .... ....|--- .... ....
....|..|B-1 2F.A ....|F#2 2F.A ....|A#4 6F.A ....
....|..|R-- .... ....|R-- .... ....|R-- .... ....
....|..|B-1 2F.7 ....|G-4 6F.A ....|G-4 6F.7 ....
....|..|R-- .... ....|D-3 3F6F ....|--- .... ....
 B-3|..|B-1 2A.F ....|D-3 3F9F ....|A#4 6F.F ....
....|..|R-- .... ....|R-- .... ....|R-- .... ....
....|..|B-1 2F.A ....|F#2 2F.A ....|--- .... ....
....|..|R-- .... ....|R-- .... ....|--- .... ....
....|..|B-1 2F.7 ....|A#4 6F.A ....|A#4 6F.7 ....
....|..|R-- .... ....|R-- .... ....|R-- .... ....
 F#4|..|B-1 2F.F ....|F#2 2A.F ....|--- .... ....
....|..|R-- .... ....|R-- .... ....|--- .... ....
....|..|B-1 2F.A ....|D-3 3F9A ....|A#4 6F.A ....
....|..|R-- .... ....|R-- .... ....|--- .... ....
....|..|B-1 2F.7 ....|F#2 2F.7 ....|R-- .... ....
....|..|R-- .... ....|R-- .... ....|--- .... ....
 B-3|..|B-1 2A.F ....|B-3 3FAF ....|A-4 6F.F ....
....|..|R-- .... ....|R-- .... ....|R-- .... ....
....|..|B-1 2F.A ....|F#2 2F.A ....|--- .... ....
....|..|R-- .... ....|R-- .... ....|--- .... ....
....|..|B-1 2F.7 ....|A#4 6F.A ....|A#4 6F.7 ....
....|..|R-- .... ....|B-3 3FBF ....|--- .... ....
 B-3|..|B-1 2A.F ....|G-4 6F.F ....|G-4 6F.F ....
....|..|R-- .... ....|R-- .... ....|--- .... ....
....|..|B-1 2F.A ....|B-3 3FAA ....|A-4 6F.A ....
....|..|R-- .... ....|B-3 3FAF ....|--- .... ....
....|..|B-1 2F.7 ....|B-3 3F5F ....|--- .... ....
....|..|R-- .... ....|R-- .... ....|--- .... ....
 B-3|..|B-1 2A.F ....|B-3 3FAF ....|--- .... ....
....|..|R-- .... ....|R-- .... ....|--- .... ....
....|..|B-1 2F.A ....|F#2 2F.A ....|G-4 6F.A ....
....|..|R-- .... ....|F#3 3FCF ....|R-- .... ....
....|..|B-1 2F.7 ....|A-4 6F.A ....|A-4 6F.7 ....
....|..|R-- .... ....|B-3 3FAA ....|--- .... ....
 B-3|..|B-1 2A.F ....|B-3 3FAF ....|B-4 6F.F ....
....|..|R-- .... ....|R-- .... ....|R-- .... ....
....|..|B-1 2F.A ....|B-3 3FAA ....|--- .... ....
....|..|R-- .... ....|R-- .... ....|--- .... ....
....|..|B-1 2F.7 ....|B-2 3F.F ....|G-4 6F.7 ....
....|..|R-- .... ....|F#3 3FCA ....|R-- .... ....
 B-3|..|B-1 2A.F ....|B-3 3FAF ....|D-5 6F.F ....
....|..|R-- .... ....|R-- .... ....|--- .... ....
....|..|B-1 2F.A ....|F#2 2F.A ....|B-4 6F.A ....
....|..|R-- .... ....|F#3 3FCF ....|R-- .... ....
....|..|B-1 2F.7 ....|B-3 3FA7 ....|--- .... ....
....|..|R-- .... ....|R-- .... ....|R-- .... ....
 B-3|..|B-1 2A.F ....|B-3 3FAF ....|B-4 6F.F ....
....|..|R-- .... ....|R-- .... ....|R-- .... ....
....|..|B-1 2F.A ....|B-3 3FAA ....|D-5 6F.A ....
....|..|R-- .... ....|B-2 3F.F ....|--- .... ....
....|..|B-1 2F.7 ....|B-4 6F.A ....|B-4 6F.7 ....
....|..|R-- .... ....|F#3 3FCA ....|R-- .... ....
 B-3|..|B-1 2A.F ....|B-3 3FAF ....|D-5 6F.F ....
....|..|R-- .... ....|R-- .... ....|R-- .... ....
....|..|B-1 2F.A ....|F#3 3FCF ....|B-4 6F.A ....
....|..|R-- .... ....|R-- .... ....|--- .... ....
....|..|B-1 2F.7 ....|D-5 6F.A ....|D-5 6F.7 ....
....|..|R-- .... ....|B-2 3F.A ....|--- .... ....
 B-3|..|B-1 2A.F ....|B-3 3FAF ....|B-4 6F.F ....
....|..|R-- .... ....|R-- .... ....|--- .... ....
....|..|B-1 2F.A ....|B-3 3FAA ....|D-5 6F.A ....
....|..|R-- .... ....|B-2 3F.F ....|R-- .... ....
....|..|B-1 2F.7 ....|B-4 6F.A ....|B-4 6F.7 ....
....|..|R-- .... ....|R-- .... ....|--- .... ....
 E-3|..|E-1 2A.F ....|G-3 4F1F ....|G-3 4F1F ....
....|..|R-- .... ....|E-5 6F.F ....|E-5 6F.F ....
 E-4|..|B-1 2F.A ....|E-2 2A.F ....|B-4 6F.A ....
....|..|R-- .... ....|R-- .... ....|R-- .... ....
....|..|B-1 2F.7 ....|D-5 6F.A ....|D-5 6F.7 ....
....|..|--- .... ....|B-2 3F.A ....|R-- .... ....
 E-4|..|E-2 2A.F ....|G-3 4F1F ....|G-3 4F1F ....
....|..|R-- .... ....|R-- .... ....|--- .... ....
....|..|E-1 2F.A ....|G-3 4F1A ....|G-3 4F1A ....
....|..|R-- .... ....|R-- .... ....|R-- .... ....
....|..|B-1 2F.7 ....|B-4 6F.A ....|B-4 6F.7 ....
....|..|--- .... ....|R-- .... ....|R-- .... ....
 E-4|..|E-2 2A.F ....|A-3 4F2F ....|A-3 4F2F ....
....|..|--- .... ....|R-- .... ....|R-- .... ....
....|..|E-2 2F.A ....|G-3 4F1A ....|G-3 4F1A ....
....|..|R-- .... ....|R-- .... ....|--- .... ....
....|..|E-1 2F.7 ....|E-1 2F.A ....|G-3 4F17 ....
....|..|--- .... ....|E-5 6F.A ....|R-- .... ....
 E-4|..|E-2 2A.F ....|B-3 3FDF ....|--- .... ....
....|..|--- .... ....|R-- .... ....|R-- .... ....
....|..|E-2 2F.A ....|A-3 4F2A ....|A-3 4F2A ....
....|..|--- .... ....|G-3 4F1F ....|G-3 4F1F ....
....|..|E-2 2F.7 ....|G-3 4F17 ....|G-3 4F17 ....
....|..|--- .... ....|B-3 4F3F ....|B-3 4F3F ....
 E-4|..|E-2 2A.F ....|B-3 3FDF ....|R-- .... ....
....|..|--- .... ....|R-- .... ....|R-- .... ....
....|..|E-2 2F.A ....|B-3 3FDA ....|--- .... ....
....|..|--- .... ....|R-- .... ....|R-- .... ....
....|..|E-2 2F.7 ....|A-3 4F27 ....|A-3 4F27 ....
....|..|--- .... ....|G-3 4F1A ....|G-3 4F1A ....
 E-4|..|E-2 2A.F ....|B-3 3FDF ....|--- .... ....
....|..|--- .... ....|B-3 3F.F ....|B-3 4F3A ....
....|..|E-2 2F.A ....|B-3 3FDA ....|R-- .... ....
....|..|--- .... ....|E-5 6F.7 ....|--- .... ....
....|..|E-2 2F.7 ....|B-3 3FD7 ....|--- .... ....
....|..|--- .... ....|R-- .... ....|R-- .... ....
 E-4|..|E-2 2A.F ....|B-3 3FDF ....|--- .... ....
....|..|--- .... ....|G-3 4F17 ....|G-3 4F17 ....
....|..|E-2 2F.A ....|B-3 3FDA ....|--- .... ....
 E-4|..|--- .... ....|E-2 2A.F ....|B-3 4F37 ....
....|..|E-2 2F.7 ....|B-3 3FD7 ....|R-- .... ....
....|..|--- .... ....|R-- .... ....|R-- .... ....
 E-4|..|E-2 2A.F ....|B-3 3FDF ....|D-5 6F.F ....
....|..|--- .... ....|R-- .... ....|--- .... ....
 E-4|..|E-2 2F.A ....|E-2 2A.F ....|--- .... ....
....|..|--- .... ....|--- .... ....|--- .... ....
....|..|E-2 2F.7 ....|B-3 3FD7 ....|--- .... ....
....|..|R-- .... ....|B-2 2F.7 ....|--- .... ....
 D-3|..|D-1 2A.F ....|G-3 4F1F ....|G-3 4F1F ....
....|..|--- .... ....|--- .... ....|R-- .... ....
....|..|E-2 2F.A ....|B-3 3FDA ....|D-5 6F.A ....
....|..|--- .... ....|R-- .... ....|R-- .... ....
....|..|E-2 2F.7 ....|B-3 3FD7 ....|--- .... ....
....|..|--- .... ....|--- .... ....|--- .... ....
 D-4|..|D-2 2A.F ....|G-3 4F1F ....|G-3 4F1F ....
 A-3|..|R-- .... ....|A-2 2C.F ....|--- .... ....
....|..|D-1 2F.A ....|G-3 4F1A ....|G-3 4F1A ....
....|..|--- .... ....|R-- .... ....|R-- .... ....
....|..|E-2 2F.7 ....|D-5 6F.A ....|D-5 6F.7 ....
....|..|--- .... ....|R-- .... ....|R-- .... ....
 D-4|..|D-2 2A.F ....|A-3 4F2F ....|A-3 4F2F ....
....|..|--- .... ....|--- .... ....|--- .... ....
....|..|D-2 2F.A ....|G-3 4F1A ....|G-3 4F1A ....
 D-4|..|R-- .... ....|D-2 2A.F ....|--- .... ....
....|..|D-1 2F.7 ....|D-1 2F.A ....|G-3 4F17 ....
....|..|--- .... ....|R-- .... ....|R-- .... ....
 D-4|..|D-2 2A.F ....|A-3 3FCF ....|--- .... ....
....|..|--- .... ....|B-4 6F.F ....|B-4 6F.F ....
 D-4|..|D-2 2F.A ....|D-2 2A.F ....|A-3 4F2A ....
....|..|--- .... ....|G-3 4F1F ....|G-3 4F1F ....
....|..|D-2 2F.7 ....|D-3 2F.7 ....|G-3 4F17 ....
....|..|--- .... ....|B-3 4F3F ....|B-3 4F3F ....
 D-4|..|D-2 2A.F ....|A-3 3FCF ....|R-- .... ....
....|..|--- .... ....|D-5 6F.F ....|D-5 6F.F ....
 D-4|..|D-2 2F.A ....|D-3 2C.F ....|R-- .... ....
 D-4|..|--- .... ....|D-2 2A.F ....|B-4 6F.A ....
....|..|D-2 2F.7 ....|A-3 4F27 ....|A-3 4F27 ....
....|..|--- .... ....|G-3 4F1A ....|G-3 4F1A ....
 D-4|..|D-2 2A.F ....|A-3 3FCF ....|R-- .... ....
....|..|--- .... ....|A-3 3FEF ....|B-4 6F.F ....
....|..|D-2 2F.A ....|A-3 3FCA ....|B-3 4F3A ....
....|..|--- .... ....|R-- .... ....|D-5 6F.A ....
....|..|D-2 2F.7 ....|A-3 3FC7 ....|R-- .... ....
....|..|--- .... ....|B-4 6F.A ....|B-4 6F.7 ....
 D-4|..|D-2 2A.F ....|A-3 3FCF ....|R-- .... ....
....|..|--- .... ....|D-5 6F.F ....|D-5 6F.F ....
....|..|D-2 2F.A ....|A-3 3FCA ....|G-3 4F17 ....
 D-4|..|--- .... ....|D-2 2A.F ....|B-4 6F.A ....
....|..|D-2 2F.7 ....|A-3 3FC7 ....|B-3 4F37 ....
....|..|--- .... ....|D-5 6F.A ....|D-5 6F.7 ....
 D-4|..|D-2 2A.F ....|A-3 3FCF ....|B-4 6F.F ....
....|..|--- .... ....|F#4 3F.F ....|R-- .... ....
 D-4|..|D-2 2F.A ....|D-2 2A.F ....|--- .... ....
....|..|--- .... ....|R-- .... ....|D-5 6F.A ....
....|..|D-2 2F.7 ....|D-3 2F.7 ....|R-- .... ....
....|..|R-- .... ....|D-2 2F.A ....|B-4 6F.7 ....

[Pattern7]
 C-3|..|C-1 2A.F ....|G-3 4F1F ....|G-3 4F1F ....
....|..|--- .... ....|E-3 3F5F ....|E-5 6F.F ....
....|..|D-2 2F.A ....|A-3 3FCA ....|B-4 6F.A ....
 C-3|..|--- .... ....|C-3 2C.F ....|R-- .... ....
....|..|D-2 2F.7 ....|A-3 3FC7 ....|--- .... ....
....|..|--- .... ....|D-5 6F.A ....|D-5 6F.7 ....
 C-4|..|C-2 2A.F ....|G-3 4F1F ....|G-3 4F1F ....
....|..|R-- .... ....|D-2 2F.7 ....|--- .... ....
....|..|C-1 2F.A ....|G-3 4F1A ....|G-3 4F1A ....
....|..|--- .... ....|E-3 3F5A ....|R-- .... ....
....|..|D-2 2F.7 ....|B-4 6F.A ....|B-4 6F.7 ....
....|..|--- .... ....|C-3 2F.A ....|R-- .... ....
 C-4|..|C-2 2A.F ....|A-3 4F2F ....|A-3 4F2F ....
....|..|--- .... ....|G-3 3F6F ....|R-- .... ....
 C-3|..|C-2 2F.A ....|C-3 2C.F ....|G-3 4F1A ....
 C-4|..|R-- .... ....|C-2 2A.F ....|--- .... ....
....|..|C-1 2F.7 ....|C-1 2F.A ....|G-3 4F17 ....
....|..|--- .... ....|E-5 6F.A ....|R-- .... ....
 C-4|..|C-2 2A.F ....|E-3 3F2F ....|--- .... ....
....|..|--- .... ....|B-3 3F.F ....|R-- .... ....
 C-4|..|C-2 2F.A ....|C-2 2A.F ....|A-3 4F2A ....
....|..|--- .... ....|G-3 4F1F ....|G-3 4F1F ....
....|..|C-2 2F.7 ....|G-3 4F17 ....|G-3 4F17 ....
....|..|--- .... ....|B-3 4F3F ....|B-3 4F3F ....
 C-4|..|C-2 2A.F ....|E-3 3F2F ....|R-- .... ....
....|..|--- .... ....|G-3 3F6F ....|R-- .... ....
 C-4|..|C-2 2F.A ....|C-2 2A.F ....|--- .... ....
....|..|--- .... ....|B-3 3F.A ....|R-- .... ....
....|..|C-2 2F.7 ....|A-3 4F27 ....|A-3 4F27 ....
....|..|--- .... ....|G-3 4F1A ....|G-3 4F1A ....
 C-4|..|C-2 2A.F ....|E-3 3F2F ....|--- .... ....
....|..|--- .... ....|G-3 3F6F ....|B-3 4F3A ....
....|..|C-2 2F.A ....|E-3 3F2A ....|R-- .... ....
....|..|--- .... ....|G-3 3F6A ....|--- .... ....
....|..|C-2 2F.7 ....|E-3 3F27 ....|--- .... ....
....|..|--- .... ....|B-3 3F.7 ....|R-- .... ....
 C-4|..|C-2 2A.F ....|E-3 3F2F ....|--- .... ....
....|..|--- .... ....|G-3 3F6F ....|G-3 4F17 ....
 C-3|..|C-2 2F.A ....|C-3 2C.F ....|--- .... ....
 C-4|..|--- .... ....|C-2 2A.F ....|B-3 4F37 ....
....|..|C-2 2F.7 ....|E-3 3F27 ....|R-- .... ....
....|..|--- .... ....|R-- .... ....|R-- .... ....
 C-4|..|C-2 2A.F ....|E-3 3F2F ....|D-5 6F.F ....
....|..|--- .... ....|G-3 3F6F ....|--- .... ....
....|..|C-2 2F.A ....|E-3 3F2A ....|--- .... ....
....|..|--- .... ....|G-3 3F6A ....|--- .... ....
....|..|C-2 2F.7 ....|E-3 3F27 ....|--- .... ....
....|..|R-- .... ....|C-2 2F.7 ....|--- .... ....
 C-3|..|C-1 2A.F ....|G-3 4F1F ....|G-3 4F1F ....
....|..|--- .... ....|B-3 3F.F ....|R-- .... ....
 C-4|..|C-2 2F.A ....|C-2 2A.F ....|D-5 6F.A ....
....|..|--- .... ....|G-3 3F6A ....|R-- .... ....
....|..|C-2 2F.7 ....|E-3 3F27 ....|--- .... ....
....|..|--- .... ....|G-3 3F67 ....|--- .... ....
 C-4|..|C-2 2A.F ....|G-3 4F1F ....|G-3 4F1F ....
....|..|R-- .... ....|G-3 3F6F ....|--- .... ....
....|..|C-1 2F.A ....|G-3 4F1A ....|G-3 4F1A ....
....|..|--- .... ....|B-3 3F.A ....|R-- .... ....
....|..|C-2 2F.7 ....|D-5 6F.A ....|D-5 6F.7 ....
....|..|--- .... ....|G-3 3F67 ....|R-- .... ....
 C-4|..|C-2 2A.F ....|A-3 4F2F ....|A-3 4F2F ....
....|..|--- .... ....|G-3 3F6F ....|--- .... ....
 C-3|..|C-2 2F.A ....|C-3 2C.F ....|G-3 4F1A ....
 C-4|..|R-- .... ....|C-2 2A.F ....|--- .... ....
....|..|C-1 2F.7 ....|C-1 2F.A ....|G-3 4F17 ....
....|..|--- .... ....|B-3 3F.7 ....|R-- .... ....
 C-4|..|C-2 2A.F ....|E-3 3F2F ....|--- .... ....
....|..|--- .... ....|G-3 3F6F ....|B-4 6F.F ....
 C-4|..|C-2 2F.A ....|C-2 2A.F ....|A-3 4F2A ....
....|..|--- .... ....|G-3 4F1F ....|G-3 4F1F ....
....|..|C-2 2F.7 ....|G-3 4F17 ....|G-3 4F17 ....
....|..|R-- .... ....|B-3 4F3F ....|B-3 4F3F ....
 D-3|..|D-1 2A.F ....|F#3 3FFF ....|R-- .... ....
....|..|--- .... ....|D-5 6F.F ....|D-5 6F.F ....
....|..|C-2 2F.A ....|E-3 3F2A ....|R-- .... ....
....|..|--- .... ....|G-3 3F6A ....|B-4 6F.A ....
....|..|C-2 2F.7 ....|A-3 4F27 ....|A-3 4F27 ....
....|..|--- .... ....|G-3 4F1A ....|G-3 4F1A ....
 D-4|..|D-2 2A.F ....|F#3 3FFF ....|R-- .... ....
....|..|R-- .... ....|F#3 3F3F ....|B-4 6F.F ....
....|..|D-1 2F.A ....|F#3 3FFA ....|B-3 4F3A ....
....|..|--- .... ....|R-- .... ....|D-5 6F.A ....
....|..|C-2 2F.7 ....|E-3 3F27 ....|R-- .... ....
....|..|--- .... ....|B-4 6F.A ....|B-4 6F.7 ....
 D-4|..|D-2 2A.F ....|F#3 3FFF ....|R-- .... ....
....|..|--- .... ....|D-5 6F.F ....|D-5 6F.F ....
....|..|D-2 2F.A ....|F#3 3FFA ....|G-3 4F17 ....
....|..|R-- .... ....|F#3 3F3A ....|B-4 6F.A ....
....|..|D-1 2F.7 ....|D-1 2F.A ....|B-3 4F37 ....
....|..|--- .... ....|D-5 6F.A ....|D-5 6F.7 ....
 D-4|..|D-2 2A.F ....|F#3 3FFF ....|B-4 6F.F ....
....|..|--- .... ....|F#3 3F.F ....|R-- .... ....
....|..|D-2 2F.A ....|F#3 3FFA ....|--- .... ....
....|..|--- .... ....|R-- .... ....|D-5 6F.A ....
....|..|D-2 2F.7 ....|D-3 2F.7 ....|R-- .... ....
....|..|R-- .... ....|R-- .... ....|B-4 6F.7 ....
 E-3|..|E-1 2A.F ....|G-3 4F1F ....|E-5 6F.F ....
....|..|--- .... ....|R-- .... ....|G-3 4F1F ....
 E-4|..|D-2 2F.A ....|E-2 2A.F ....|B-4 6F.A ....
....|..|--- .... ....|F#3 3F.A ....|R-- .... ....
....|..|D-2 2F.7 ....|F#3 3FF7 ....|--- .... ....
....|..|--- .... ....|R-- .... ....|D-5 6F.7 ....
 E-4|..|E-2 2A.F ....|G-3 4F1F ....|G-3 4F1F ....
....|..|R-- .... ....|R-- .... ....|--- .... ....
....|..|E-1 2F.A ....|G-3 4F1A ....|E-5 6F.A ....
....|..|--- .... ....|D-5 6F.7 ....|R-- .... ....
....|..|D-2 2F.7 ....|B-4 6F.A ....|B-4 6F.7 ....
....|..|--- .... ....|F#3 3F.7 ....|R-- .... ....
 E-4|..|E-2 2A.F ....|A-3 4F2F ....|A-3 4F2F ....
....|..|--- .... ....|R-- .... ....|R-- .... ....
....|..|E-2 2F.A ....|G-3 4F1A ....|G-3 4F1A ....
....|..|R-- .... ....|R-- .... ....|--- .... ....
....|..|E-1 2F.7 ....|E-5 6F.A ....|E-5 6F.7 ....
....|..|--- .... ....|R-- .... ....|R-- .... ....
 E-4|..|E-2 2A.F ....|B-3 3FDF ....|--- .... ....
....|..|--- .... ....|R-- .... ....|R-- .... ....
....|..|E-2 2F.A ....|A-3 4F2A ....|A-3 4F2A ....
....|..|--- .... ....|G-3 4F1F ....|G-3 4F1F ....
....|..|E-2 2F.7 ....|G-3 4F17 ....|G-3 4F17 ....
....|..|--- .... ....|B-3 4F3F ....|B-3 4F3F ....
 E-4|..|E-2 2A.F ....|B-3 3FDF ....|R-- .... ....
....|..|--- .... ....|R-- .... ....|R-- .... ....
....|..|E-2 2F.A ....|B-3 3FDA ....|--- .... ....
....|..|--- .... ....|R-- .... ....|R-- .... ....
....|..|E-2 2F.7 ....|E-3 2F.7 ....|A-3 4F27 ....
....|..|--- .... ....|G-3 4F1A ....|G-3 4F1A ....
 E-4|..|E-2 2A.F ....|B-3 3FDF ....|E-5 6F.F ....
....|..|--- .... ....|B-3 3F.F ....|B-3 4F3A ....
....|..|E-2 2F.A ....|B-3 3FDA ....|R-- .... ....
....|..|--- .... ....|--- .... ....|--- .... ....
....|..|E-2 2F.7 ....|B-3 3FD7 ....|--- .... ....
....|..|--- .... ....|R-- .... ....|R-- .... ....
 E-4|..|E-2 2A.F ....|B-3 3FDF ....|R-- .... ....
....|..|--- .... ....|E-5 6F.F ....|E-5 6F.F ....
....|..|E-2 2F.A ....|B-3 3FDA ....|E-5 6F.A ....
 E-4|..|--- .... ....|E-2 2A.F ....|G-3 4F17 ....
....|..|E-2 2F.7 ....|B-3 3FD7 ....|B-3 4F37 ....
....|..|--- .... ....|R-- .... ....|R-- .... ....
 E-4|..|E-2 2A.F ....|B-3 3FDF ....|D-5 6F.F ....
....|..|--- .... ....|R-- .... ....|R-- .... ....
 E-4|..|E-2 2F.A ....|E-2 2A.F ....|R-- .... ....
....|..|--- .... ....|--- .... ....|E-5 6F.A ....
....|..|E-2 2F.7 ....|E-5 6F.A ....|E-5 6F.7 ....
....|..|R-- .... ....|B-2 2F.7 ....|--- .... ....
 D-3|..|D-1 2A.F ....|G-3 4F1F ....|G-3 4F1F ....
....|..|--- .... ....|--- .... ....|R-- .... ....
....|..|E-2 2F.A ....|B-3 3FDA ....|D-5 6F.A ....
....|..|--- .... ....|R-- .... ....|R-- .... ....
....|..|E-2 2F.7 ....|B-3 3FD7 ....|--- .... ....
....|..|--- .... ....|E-5 6F.A ....|E-5 6F.7 ....
 D-4|..|D-2 2A.F ....|G-3 4F1F ....|G-3 4F1F ....
 A-3|..|R-- .... ....|A-2 2C.F ....|--- .... ....
....|..|D-1 2F.A ....|G-3 4F1A ....|G-3 4F1A ....
....|..|--- .... ....|R-- .... ....|R-- .... ....
....|..|E-2 2F.7 ....|D-5 6F.A ....|D-5 6F.7 ....
....|..|--- .... ....|R-- .... ....|R-- .... ....
 D-4|..|D-2 2A.F ....|A-3 4F2F ....|A-3 4F2F ....
....|..|--- .... ....|R-- .... ....|R-- .... ....
....|..|D-2 2F.A ....|G-3 4F1A ....|G-3 4F1A ....
 D-4|..|R-- .... ....|D-2 2A.F ....|--- .... ....
....|..|D-1 2F.7 ....|D-1 2F.A ....|G-3 4F17 ....
....|..|--- .... ....|R-- .... ....|R-- .... ....
 D-4|..|D-2 2A.F ....|A-3 3FCF ....|--- .... ....
....|..|--- .... ....|R-- .... ....|R-- .... ....
 D-4|..|D-2 2F.A ....|D-2 2A.F ....|A-3 4F2A ....
....|..|--- .... ....|G-3 4F1F ....|G-3 4F1F ....
....|..|D-2 2F.7 ....|G-3 4F17 ....|G-3 4F17 ....
....|..|--- .... ....|B-3 4F3F ....|B-3 4F3F ....
 D-4|..|D-2 2A.F ....|A-3 3FCF ....|R-- .... ....
....|..|--- .... ....|R-- .... ....|R-- .... ....
 D-4|..|D-2 2F.A ....|D-3 2C.F ....|--- .... ....
 D-4|..|--- .... ....|D-2 2A.F ....|R-- .... ....
....|..|D-2 2F.7 ....|A-3 4F27 ....|A-3 4F27 ....
....|..|--- .... ....|G-3 4F1A ....|G-3 4F1A ....
 D-4|..|D-2 2A.F ....|A-3 3FCF ....|B-4 6F.F ....
....|..|--- .... ....|A-3 3FEF ....|B-3 4F3A ....
....|..|D-2 2F.A ....|A-3 3FCA ....|R-- .... ....
....|..|--- .... ....|--- .... ....|--- .... ....
....|..|D-2 2F.7 ....|D-3 2F.7 ....|R-- .... ....
....|..|--- .... ....|D-2 2F.A ....|R-- .... ....
 D-4|..|D-2 2A.F ....|A-3 3FCF ....|B-4 6F.F ....
....|..|--- .... ....|G-3 4F17 ....|G-3 4F17 ....
....|..|D-2 2F.A ....|A-3 3FCA ....|B-4 6F.A ....
 D-4|..|--- .... ....|D-2 2A.F ....|B-3 4F37 ....
....|..|D-2 2F.7 ....|D-3 2F.7 ....|R-- .... ....
....|..|--- .... ....|--- .... ....|--- .... ....
 D-4|..|D-2 2A.F ....|A-3 3FCF ....|C-5 6F.F ....
....|..|--- .... ....|F#4 3F.F ....|--- .... ....
 D-4|..|D-2 2F.A ....|D-2 2A.F ....|B-4 6F.A ....
....|..|--- .... ....|R-- .... ....|--- .... ....
....|..|D-2 2F.7 ....|B-4 6F.A ....|B-4 6F.7 ....
....|..|R-- .... ....|D-2 2F.A ....|--- .... ....

[Pattern8]
 C-3|..|C-1 2A.F ....|G-3 4F1F ....|G-3 4F1F ....
....|..|--- .... ....|E-3 3F5F ....|--- .... ....
....|..|D-2 2F.A ....|A-3 3FCA ....|C-5 6F.A ....
 C-3|..|--- .... ....|C-3 2C.F ....|R-- .... ....
....|..|D-2 2F.7 ....|B-4 6F.A ....|B-4 6F.7 ....
....|..|--- .... ....|--- .... ....|--- .... ....
 C-4|..|C-2 2A.F ....|G-3 4F1F ....|C-5 6F.F ....
....|..|R-- .... ....|D-2 2F.7 ....|G-3 4F1F ....
....|..|C-1 2F.A ....|G-3 4F1A ....|G-3 4F1A ....
....|..|--- .... ....|R-- .... ....|R-- .... ....
....|..|D-2 2F.7 ....|C-5 6F.A ....|C-5 6F.7 ....
....|..|--- .... ....|C-3 2F.A ....|R-- .... ....
 C-4|..|C-2 2A.F ....|A-3 4F2F ....|A-3 4F2F ....
....|..|--- .... ....|G-3 3F6F ....|--- .... ....
 C-3|..|C-2 2F.A ....|C-3 2C.F ....|C-5 6F.A ....
 C-4|..|R-- .... ....|C-2 2A.F ....|G-3 4F1A ....
....|..|C-1 2F.7 ....|C-1 2F.A ....|G-3 4F17 ....
....|..|--- .... ....|E-3 3F57 ....|R-- .... ....
 C-4|..|C-2 2A.F ....|E-3 3F2F ....|--- .... ....
....|..|--- .... ....|B-3 3F.F ....|R-- .... ....
 C-4|..|C-2 2F.A ....|C-2 2A.F ....|A-3 4F2A ....
....|..|--- .... ....|G-3 4F1F ....|G-3 4F1F ....
....|..|C-2 2F.7 ....|C-5 6F.A ....|C-5 6F.7 ....
....|..|--- .... ....|B-3 4F3F ....|B-3 4F3F ....
 C-4|..|C-2 2A.F ....|E-3 3F2F ....|R-- .... ....
....|..|--- .... ....|G-3 3F6F ....|R-- .... ....
 C-4|..|C-2 2F.A ....|C-2 2A.F ....|--- .... ....
....|..|--- .... ....|B-3 3F.A ....|R-- .... ....
....|..|C-2 2F.7 ....|A-3 4F27 ....|A-3 4F27 ....
....|..|--- .... ....|G-3 4F1A ....|G-3 4F1A ....
 C-4|..|C-2 2A.F ....|E-3 3F2F ....|B-4 6F.F ....
....|..|--- .... ....|G-3 3F6F ....|B-3 4F3A ....
....|..|C-2 2F.A ....|E-3 3F2A ....|R-- .... ....
....|..|--- .... ....|G-3 3F6A ....|--- .... ....
....|..|C-2 2F.7 ....|E-3 3F27 ....|--- .... ....
....|..|--- .... ....|B-3 3F.7 ....|R-- .... ....
 C-4|..|C-2 2A.F ....|E-3 3F2F ....|B-4 6F.F ....
....|..|--- .... ....|G-3 3F6F ....|G-3 4F17 ....
 C-3|..|C-2 2F.A ....|C-3 2C.F ....|B-4 6F.A ....
 C-4|..|--- .... ....|C-2 2A.F ....|B-3 4F37 ....
....|..|C-2 2F.7 ....|E-3 3F27 ....|R-- .... ....
....|..|--- .... ....|G-3 3F67 ....|--- .... ....
 C-4|..|C-2 2A.F ....|E-3 3F2F ....|C-5 6F.F ....
....|..|--- .... ....|G-3 3F6F ....|R-- .... ....
....|..|C-2 2F.A ....|E-3 3F2A ....|B-4 6F.A ....
....|..|--- .... ....|G-3 3F6A ....|--- .... ....
....|..|C-2 2F.7 ....|B-4 6F.A ....|B-4 6F.7 ....
....|..|R-- .... ....|B-4 6F.F ....|B-4 6F.F ....
 C-3|..|C-1 2A.F ....|G-3 4F1F ....|G-3 4F1F ....
....|..|--- .... ....|B-3 3F.F ....|--- .... ....
 C-4|..|C-2 2F.A ....|C-2 2A.F ....|C-5 6F.A ....
....|..|--- .... ....|G-3 3F6A ....|R-- .... ....
....|..|C-2 2F.7 ....|B-4 6F.A ....|B-4 6F.7 ....
....|..|--- .... ....|R-- .... ....|R-- .... ....
 C-4|..|C-2 2A.F ....|G-3 4F1F ....|A-4 6F.F ....
....|..|R-- .... ....|G-3 3F6F ....|B-4 6F.A ....
....|..|C-1 2F.A ....|G-3 4F1A ....|G-3 4F1F ....
....|..|--- .... ....|B-3 3F.A ....|R-- .... ....
....|..|C-2 2F.7 ....|C-5 6F.A ....|C-5 6F.7 ....
....|..|--- .... ....|G-3 3F67 ....|R-- .... ....
 C-4|..|C-2 2A.F ....|A-3 4F2F ....|G-4 6F.F ....
....|..|--- .... ....|G-3 3F6F ....|A-3 4F2F ....
 C-3|..|C-2 2F.A ....|C-3 2C.F ....|A-4 6F.A ....
 C-4|..|R-- .... ....|C-2 2A.F ....|B-4 6F.7 ....
....|..|C-1 2F.7 ....|C-1 2F.A ....|G-3 4F1A ....
....|..|--- .... ....|B-3 3F.7 ....|R-- .... ....
 C-4|..|C-2 2A.F ....|E-3 3F2F ....|--- .... ....
....|..|--- .... ....|G-3 3F6F ....|R-- .... ....
 C-4|..|C-2 2F.A ....|C-2 2A.F ....|G-4 6F.A ....
....|..|--- .... ....|G-3 4F1F ....|G-3 4F1F ....
....|..|C-2 2F.7 ....|A-4 6F.A ....|A-4 6F.7 ....
....|..|R-- .... ....|B-3 4F3F ....|B-3 4F3F ....
 D-3|..|D-1 2A.F ....|F#3 3FFF ....|R-- .... ....
....|..|--- .... ....|R-- .... ....|R-- .... ....
....|..|C-2 2F.A ....|E-3 3F2A ....|--- .... ....
....|..|--- .... ....|G-3 3F6A ....|R-- .... ....
....|..|C-2 2F.7 ....|G-4 6F.A ....|G-4 6F.7 ....
....|..|--- .... ....|G-3 4F1A ....|G-3 4F1A ....
 D-4|..|D-2 2A.F ....|F#3 3FFF ....|R-- .... ....
....|..|R-- .... ....|F#3 3F3F ....|B-3 4F3A ....
....|..|D-1 2F.A ....|F#3 3FFA ....|R-- .... ....
....|..|--- .... ....|--- .... ....|--- .... ....
....|..|C-2 2F.7 ....|E-3 3F27 ....|--- .... ....
....|..|--- .... ....|G-3 3F67 ....|R-- .... ....
 D-4|..|D-2 2A.F ....|F#3 3FFF ....|--- .... ....
....|..|--- .... ....|G-3 4F17 ....|G-3 4F17 ....
....|..|D-2 2F.A ....|F#3 3FFA ....|R-- .... ....
....|..|R-- .... ....|F#3 3F3A ....|B-3 4F37 ....
....|..|D-1 2F.7 ....|D-1 2F.A ....|R-- .... ....
....|..|--- .... ....|--- .... ....|--- .... ....
 D-4|..|D-2 2A.F ....|F#3 3FFF ....|--- .... ....
....|..|--- .... ....|F#3 3F.F ....|--- .... ....
....|..|D-2 2F.A ....|F#3 3FFA ....|--- .... ....
....|..|--- .... ....|--- .... ....|--- .... ....
....|..|D-2 2F.7 ....|D-3 2F.7 ....|R-- .... ....
....|..|R-- .... ....|R-- .... ....|--- .... ....
 E-3|..|E-1 2A.F ....|A-4 6F.F ....|A-4 6F.F ....
....|..|R-- .... ....|R-- .... ....|--- .... ....
....|..|D-2 2F.A ....|F#3 3FFA ....|--- .... ....
....|..|--- .... ....|F#3 3F.A ....|--- .... ....
....|..|D-2 2F.7 ....|F#3 3FF7 ....|--- .... ....
....|..|--- .... ....|--- .... ....|--- .... ....
 B-4|..|B-2 2A.F ....|B-2 2A.F ....|--- .... ....
....|..|R-- .... ....|R-- .... ....|--- .... ....
....|..|E-1 2F.A ....|B-2 2F.A ....|A-4 6F.A ....
....|..|R-- .... ....|R-- .... ....|--- .... ....
....|..|D-2 2F.7 ....|D-3 2F.7 ....|R-- .... ....
....|..|--- .... ....|F#3 3F.7 ....|--- .... ....
 B-4|..|B-2 2A.F ....|A-4 6F.F ....|A-4 6F.F ....
....|..|R-- .... ....|R-- .... ....|--- .... ....
....|..|B-2 2F.A ....|B-2 2F.A ....|--- .... ....
....|..|R-- .... ....|R-- .... ....|--- .... ....
....|..|E-1 2F.7 ....|A-4 6F.A ....|A-4 6F.7 ....
....|..|R-- .... ....|R-- .... ....|--- .... ....
 B-4|..|B-2 2A.F ....|B-2 2A.F ....|R-- .... ....
....|..|R-- .... ....|R-- .... ....|--- .... ....
....|..|B-2 2F.A ....|B-2 2F.A ....|A-4 6F.A ....
....|..|R-- .... ....|R-- .... ....|--- .... ....
....|..|B-2 2F.7 ....|B-2 2F.7 ....|--- .... ....
....|..|R-- .... ....|R-- .... ....|--- .... ....
 B-4|..|B-2 2A.F ....|B-2 2A.F ....|--- .... ....
....|..|R-- .... ....|A-4 6F.F ....|A-4 6F.F ....
....|..|B-2 2F.A ....|B-2 2F.A ....|R-- .... ....
....|..|R-- .... ....|R-- .... ....|R-- .... ....
....|..|B-2 2F.7 ....|G-4 6F.F ....|G-4 6F.F ....
....|..|R-- .... ....|R-- .... ....|--- .... ....
 B-4|..|B-2 2A.F ....|B-2 2A.F ....|R-- .... ....
....|..|R-- .... ....|E-4 6F.F ....|E-4 6F.F ....
....|..|B-2 2F.A ....|B-2 2F.A ....|--- .... ....
....|..|R-- .... ....|R-- .... ....|A-4 6F.A ....
....|..|B-2 2F.7 ....|B-2 2F.7 ....|--- .... ....
....|..|R-- .... ....|R-- .... ....|R-- .... ....
 B-4|..|B-2 2A.F ....|B-2 2A.F ....|G-4 6F.A ....
....|..|R-- .... ....|R-- .... ....|--- .... ....
....|..|B-2 2F.A ....|B-2 2F.A ....|R-- .... ....
....|..|R-- .... ....|R-- .... ....|E-4 6F.A ....
....|..|B-2 2F.7 ....|B-2 2F.7 ....|--- .... ....
....|..|R-- .... ....|A-4 6F.A ....|A-4 6F.7 ....
 B-4|..|B-2 2A.F ....|B-2 2A.F ....|--- .... ....
....|..|R-- .... ....|R-- .... ....|R-- .... ....
....|..|B-2 2F.A ....|B-2 2F.A ....|G-4 6F.7 ....
....|..|R-- .... ....|R-- .... ....|--- .... ....
....|..|B-2 2F.7 ....|B-2 2F.7 ....|R-- .... ....
....|..|R-- .... ....|E-4 6F.A ....|E-4 6F.7 ....
 B-4|..|B-2 2A.F ....|B-4 6F.F ....|B-4 6F.F ....
....|..|R-- .... ....|R-- .... ....|--- .... ....
....|..|B-2 2F.A ....|B-2 2F.A ....|--- .... ....
....|..|R-- .... ....|R-- .... ....|R-- .... ....
....|..|B-2 2F.7 ....|B-2 2F.7 ....|R-- .... ....
....|..|R-- .... ....|R-- .... ....|--- .... ....
 B-2|..|B-1 2A.F ....|B-4 6F.F ....|B-4 6F.F ....
....|..|R-- .... ....|R-- .... ....|--- .... ....
....|..|B-2 2F.A ....|B-2 2F.A ....|B-4 6F.A ....
....|..|R-- .... ....|R-- .... ....|--- .... ....
....|..|B-2 2F.7 ....|B-2 2F.7 ....|--- .... ....
....|..|R-- .... ....|R-- .... ....|R-- .... ....
 F#4|..|F#2 2A.F ....|A-4 6F.F ....|A-4 6F.F ....
....|..|R-- .... ....|R-- .... ....|--- .... ....
....|..|B-1 2F.A ....|F#2 2F.A ....|B-4 6F.A ....
....|..|R-- .... ....|R-- .... ....|--- .... ....
....|..|B-2 2F.7 ....|B-4 6F.A ....|B-4 6F.7 ....
....|..|R-- .... ....|A-4 6F.F ....|A-4 6F.F ....
 F#4|..|F#2 2A.F ....|G-4 6F.F ....|G-4 6F.F ....
....|..|R-- .... ....|R-- .... ....|R-- .... ....
....|..|F#2 2F.A ....|F#2 2F.A ....|A-4 6F.A ....
....|..|R-- .... ....|R-- .... ....|--- .... ....
....|..|B-1 2F.7 ....|B-4 6F.A ....|B-4 6F.7 ....
....|..|R-- .... ....|R-- .... ....|R-- .... ....
 F#4|..|F#2 2A.F ....|E-4 6F.F ....|E-4 6F.F ....
....|..|R-- .... ....|R-- .... ....|A-4 6F.A ....
....|..|F#2 2F.A ....|F#2 2F.A ....|G-4 6F.A ....
....|..|R-- .... ....|R-- .... ....|R-- .... ....
....|..|F#2 2F.7 ....|A-4 6F.A ....|A-4 6F.7 ....
....|..|R-- .... ....|R-- .... ....|--- .... ....
 F#4|..|F#2 2A.F ....|F#2 2A.F ....|--- .... ....
 F#4|..|F#2 2A.F ....|F#2 2A.F ....|R-- .... ....
....|..|F#2 2F.A ....|F#2 2F.A ....|E-4 6F.A ....
....|..|R-- .... ....|A-4 6F.A ....|A-4 6F.7 ....
....|..|F#2 2F.7 ....|G-4 6F.A ....|G-4 6F.7 ....
....|..|R-- .... ....|R-- .... ....|--- .... ....
 F#4|..|F#2 2A.F ....|F#2 2A.F ....|--- .... ....
....|..|R-- .... ....|R-- .... ....|--- .... ....
....|..|F#2 2F.A ....|F#2 2F.A ....|--- .... ....
....|..|F#2 2F.A ....|F#2 2F.A ....|R-- .... ....
....|..|F#2 2F.7 ....|E-4 6F.A ....|E-4 6F.7 ....
....|..|R-- .... ....|R-- .... ....|--- .... ....
 F#4|..|F#2 2A.F ....|E-4 6F.F ....|E-4 6F.F ....
 F#4|..|F#2 2A.F ....|F#2 2A.F ....|R-- .... ....
....|..|F#2 2F.A ....|F#2 2F.A ....|--- .... ....
....|..|R-- .... ....|E-4 6F.F ....|E-4 6F.F ....
....|..|F#2 2F.7 ....|F#2 2F.7 ....|--- .... ....
....|..|F#2 2F.7 ....|F#2 2F.7 ....|--- .... ....

[Pattern9]
 F#4|..|F#2 2A.F ....|A-4 6F.F ....|A-4 6F.F ....
 F#4|..|F#2 2A.F ....|F#2 2A.F ....|--- .... ....
....|..|F#2 2F.A ....|F#2 2F.A ....|E-4 6F.A ....
....|..|F#2 2F.A ....|F#2 2F.A ....|R-- .... ....
....|..|F#2 2F.7 ....|F#2 2F.7 ....|--- .... ....
....|..|R-- .... ....|R-- .... ....|E-4 6F.A ....
 D-3|..|D-1 2A.F ....|D-1 2A.F ....|--- .... ....
....|..|R-- .... ....|R-- .... ....|--- .... ....
....|..|F#2 2F.A ....|F#2 2F.A ....|A-4 6F.A ....
....|..|F#2 2F.A ....|F#2 2F.A ....|R-- .... ....
....|..|F#2 2F.7 ....|D-5 6F.F ....|D-5 6F.F ....
....|..|F#2 2F.7 ....|F#2 2F.7 ....|R-- .... ....
 A-3|..|A-2 2C.F ....|A-2 2C.F ....|--- .... ....
....|..|R-- .... ....|R-- .... ....|E-4 6F.7 ....
....|..|D-1 2F.A ....|A-2 2F.A ....|--- .... ....
....|..|R-- .... ....|R-- .... ....|--- .... ....
....|..|F#2 2F.7 ....|A-4 6F.A ....|A-4 6F.7 ....
....|..|F#2 2F.7 ....|F#2 2F.7 ....|R-- .... ....
 A-3|..|A-2 2C.F ....|A-2 2C.F ....|D-5 6F.A ....
....|..|R-- .... ....|B-4 6F.F ....|B-4 6F.F ....
....|..|A-2 2F.A ....|A-2 2F.A ....|--- .... ....
....|..|R-- .... ....|R-- .... ....|--- .... ....
....|..|D-1 2F.7 ....|D-1 2F.A ....|--- .... ....
....|..|R-- .... ....|R-- .... ....|--- .... ....
 A-3|..|A-2 2C.F ....|A-2 2C.F ....|R-- .... ....
....|..|R-- .... ....|A-4 6F.F ....|A-4 6F.F ....
....|..|A-2 2F.A ....|A-2 2F.A ....|D-5 6F.7 ....
....|..|R-- .... ....|R-- .... ....|B-4 6F.A ....
....|..|A-2 2F.7 ....|A-2 2F.7 ....|--- .... ....
....|..|R-- .... ....|E-4 6F.7 ....|R-- .... ....
 A-3|..|A-2 2C.F ....|G-4 6F.F ....|G-4 6F.F ....
 A-3|..|A-2 2C.F ....|A-2 2C.F ....|--- .... ....
....|..|A-2 2F.A ....|A-2 2F.A ....|R-- .... ....
....|..|R-- .... ....|R-- .... ....|A-4 6F.A ....
....|..|A-2 2F.7 ....|A-2 2F.7 ....|--- .... ....
....|..|R-- .... ....|B-4 6F.A ....|B-4 6F.7 ....
 A-3|..|A-2 2C.F ....|E-4 6F.F ....|E-4 6F.F ....
....|..|R-- .... ....|R-- .... ....|R-- .... ....
....|..|A-2 2F.A ....|A-2 2F.A ....|G-4 6F.A ....
....|..|A-2 2F.A ....|A-2 2F.A ....|R-- .... ....
....|..|A-2 2F.7 ....|A-2 2F.7 ....|R-- .... ....
....|..|R-- .... ....|A-4 6F.A ....|A-4 6F.7 ....
 A-3|..|A-2 2C.F ....|E-4 6F.F ....|E-4 6F.F ....
 A-3|..|A-2 2C.F ....|A-2 2C.F ....|R-- .... ....
....|..|A-2 2F.A ....|A-2 2F.A ....|E-4 6F.A ....
....|..|R-- .... ....|R-- .... ....|R-- .... ....
....|..|A-2 2F.7 ....|G-4 6F.A ....|G-4 6F.7 ....
....|..|A-2 2F.7 ....|A-2 2F.7 ....|R-- .... ....
 A-3|..|A-2 2C.F ....|G-4 6F.F ....|G-4 6F.F ....
 A-3|..|A-2 2C.F ....|A-2 2C.F ....|R-- .... ....
....|..|A-2 2F.A ....|A-2 2F.A ....|E-4 6F.A ....
....|..|A-2 2F.A ....|G-4 6F.F ....|G-4 6F.F ....
....|..|A-2 2F.7 ....|E-4 6F.A ....|E-4 6F.7 ....
....|..|R-- .... ....|R-- .... ....|--- .... ....
 B-2|..|B-1 2A.F ....|B-1 2A.F ....|R-- .... ....
....|..|R-- .... ....|R-- .... ....|R-- .... ....
....|..|A-2 2F.A ....|A-2 2F.A ....|G-4 6F.A ....
....|..|A-2 2F.A ....|G-4 6F.F ....|G-4 6F.F ....
....|..|A-2 2F.7 ....|E-4 6F.A ....|E-4 6F.7 ....
....|..|A-2 2F.7 ....|A-2 2F.7 ....|G-4 6F.A ....
 F#4|..|F#2 2A.F ....|F#4 6F.F ....|F#4 6F.F ....
....|..|R-- .... ....|R-- .... ....|--- .... ....
....|..|B-1 2F.A ....|F#2 2F.A ....|R-- .... ....
....|..|R-- .... ....|R-- .... ....|R-- .... ....
....|..|A-2 2F.7 ....|G-4 6F.A ....|G-4 6F.7 ....
....|..|A-2 2F.7 ....|A-2 2F.7 ....|G-4 6F.A ....
 F#4|..|F#2 2A.F ....|E-4 6F.F ....|E-4 6F.F ....
....|..|R-- .... ....|R-- .... ....|G-4 6F.7 ....
....|..|F#2 2F.A ....|F#2 2F.A ....|F#4 6F.A ....
....|..|R-- .... ....|R-- .... ....|--- .... ....
....|..|B-1 2F.7 ....|B-1 2F.A ....|R-- .... ....
....|..|R-- .... ....|R-- .... ....|R-- .... ....
 F#4|..|F#2 2A.F ....|F#2 2A.F ....|--- .... ....
....|..|R-- .... ....|E-4 6F.F ....|E-4 6F.F ....
....|..|F#2 2F.A ....|F#2 2F.A ....|E-4 6F.A ....
....|..|R-- .... ....|R-- .... ....|R-- .... ....
....|..|F#2 2F.7 ....|F#4 6F.A ....|F#4 6F.7 ....
....|..|R-- .... ....|R-- .... ....|--- .... ....
 D-3|..|D-1 2A.F ....|D-1 2A.F ....|--- .... ....
 A-3|..|A-2 2C.F ....|A-2 2C.F ....|R-- .... ....
....|..|F#2 2F.A ....|F#2 2F.A ....|--- .... ....
....|..|R-- .... ....|R-- .... ....|E-4 6F.A ....
....|..|F#2 2F.7 ....|E-4 6F.A ....|E-4 6F.7 ....
....|..|R-- .... ....|G-4 6F.7 ....|--- .... ....
 A-3|..|A-2 2C.F ....|A-2 2C.F ....|R-- .... ....
....|..|R-- .... ....|R-- .... ....|--- .... ....
....|..|D-1 2F.A ....|A-2 2F.A ....|--- .... ....
....|..|A-2 2F.A ....|A-2 2F.A ....|--- .... ....
....|..|F#2 2F.7 ....|F#2 2F.7 ....|--- .... ....
....|..|R-- .... ....|G-4 6F.7 ....|E-4 6F.7 ....
 A-3|..|A-2 2C.F ....|A-2 2C.F ....|--- .... ....
 A-3|..|A-2 2C.F ....|A-2 2C.F ....|--- .... ....
....|..|A-2 2F.A ....|A-2 2F.A ....|--- .... ....
....|..|R-- .... ....|R-- .... ....|--- .... ....
....|..|D-1 2F.7 ....|D-1 2F.A ....|--- .... ....
....|..|A-2 2F.7 ....|A-2 2F.7 ....|--- .... ....
 E-3|..|E-1 2A.F ....|A-4 6F.F ....|A-4 6F.F ....
....|..|R-- .... ....|R-- .... ....|R-- .... ....
....|..|A-2 2F.A ....|A-2 2F.A ....|--- .... ....
....|..|A-2 2F.A ....|A-2 2F.A ....|--- .... ....
....|..|A-2 2F.7 ....|A-2 2F.7 ....|--- .... ....
....|..|R-- .... ....|R-- .... ....|--- .... ....
 B-4|..|B-2 2A.F ....|B-2 2A.F ....|--- .... ....
....|..|R-- .... ....|R-- .... ....|--- .... ....
....|..|E-1 2F.A ....|B-2 2F.A ....|A-4 6F.A ....
....|..|R-- .... ....|R-- .... ....|--- .... ....
....|..|A-2 2F.7 ....|A-2 2F.7 ....|R-- .... ....
....|..|A-2 2F.7 ....|A-2 2F.7 ....|--- .... ....
 B-4|..|B-2 2A.F ....|A-4 6F.F ....|A-4 6F.F ....
....|..|R-- .... ....|R-- .... ....|--- .... ....
....|..|B-2 2F.A ....|B-2 2F.A ....|--- .... ....
....|..|R-- .... ....|R-- .... ....|--- .... ....
....|..|E-1 2F.7 ....|A-4 6F.A ....|A-4 6F.7 ....
....|..|R-- .... ....|R-- .... ....|--- .... ....
 B-4|..|B-2 2A.F ....|B-2 2A.F ....|R-- .... ....
....|..|R-- .... ....|R-- .... ....|--- .... ....
....|..|B-2 2F.A ....|B-2 2F.A ....|A-4 6F.A ....
....|..|R-- .... ....|R-- .... ....|--- .... ....
....|..|B-2 2F.7 ....|B-2 2F.7 ....|--- .... ....
....|..|R-- .... ....|R-- .... ....|--- .... ....
 B-4|..|B-2 2A.F ....|B-2 2A.F ....|--- .... ....
....|..|R-- .... ....|A-4 6F.F ....|A-4 6F.F ....
....|..|B-2 2F.A ....|B-2 2F.A ....|R-- .... ....
....|..|R-- .... ....|R-- .... ....|R-- .... ....
....|..|B-2 2F.7 ....|G-4 6F.F ....|G-4 6F.F ....
....|..|R-- .... ....|R-- .... ....|--- .... ....
 B-4|..|B-2 2A.F ....|B-2 2A.F ....|R-- .... ....
....|..|R-- .... ....|E-4 6F.F ....|E-4 6F.F ....
....|..|B-2 2F.A ....|B-2 2F.A ....|--- .... ....
....|..|R-- .... ....|R-- .... ....|A-4 6F.A ....
....|..|B-2 2F.7 ....|B-2 2F.7 ....|--- .... ....
....|..|R-- .... ....|R-- .... ....|R-- .... ....
 B-4|..|B-2 2A.F ....|B-2 2A.F ....|G-4 6F.A ....
....|..|R-- .... ....|R-- .... ....|--- .... ....
....|..|B-2 2F.A ....|B-2 2F.A ....|R-- .... ....
....|..|R-- .... ....|R-- .... ....|E-4 6F.A ....
....|..|B-2 2F.7 ....|B-2 2F.7 ....|--- .... ....
....|..|R-- .... ....|A-4 6F.A ....|A-4 6F.7 ....
 B-4|..|B-2 2A.F ....|B-2 2A.F ....|R-- .... ....
....|..|R-- .... ....|R-- .... ....|R-- .... ....
....|..|B-2 2F.A ....|B-2 2F.A ....|G-4 6F.7 ....
....|..|R-- .... ....|E-4 6F.F ....|E-4 6F.F ....
....|..|B-2 2F.7 ....|B-2 2F.7 ....|R-- .... ....
....|..|R-- .... ....|E-4 6F.A ....|E-4 6F.7 ....
 B-4|..|B-2 2A.F ....|B-4 6F.F ....|B-4 6F.F ....
....|..|R-- .... ....|R-- .... ....|--- .... ....
....|..|B-2 2F.A ....|B-2 2F.A ....|R-- .... ....
....|..|R-- .... ....|R-- .... ....|--- .... ....
....|..|B-2 2F.7 ....|B-2 2F.7 ....|R-- .... ....
....|..|R-- .... ....|R-- .... ....|E-4 6F.A ....
 B-2|..|B-1 2A.F ....|B-4 6F.F ....|B-4 6F.F ....
....|..|R-- .... ....|R-- .... ....|R-- .... ....
....|..|B-2 2F.A ....|B-2 2F.A ....|B-4 6F.A ....
....|..|R-- .... ....|R-- .... ....|--- .... ....
....|..|B-2 2F.7 ....|B-2 2F.7 ....|R-- .... ....
....|..|R-- .... ....|R-- .... ....|--- .... ....
 F#4|..|F#2 2A.F ....|A-4 6F.F ....|A-4 6F.F ....
....|..|R-- .... ....|R-- .... ....|E-4 6F.7 ....
....|..|B-1 2F.A ....|F#2 2F.A ....|B-4 6F.A ....
....|..|R-- .... ....|R-- .... ....|R-- .... ....
....|..|B-2 2F.7 ....|B-4 6F.A ....|B-4 6F.7 ....
....|..|R-- .... ....|A-4 6F.F ....|A-4 6F.F ....
 F#4|..|F#2 2A.F ....|G-4 6F.F ....|G-4 6F.F ....
....|..|R-- .... ....|R-- .... ....|--- .... ....
....|..|F#2 2F.A ....|F#2 2F.A ....|A-4 6F.A ....
....|..|R-- .... ....|R-- .... ....|--- .... ....
....|..|B-1 2F.7 ....|B-4 6F.A ....|B-4 6F.7 ....
....|..|R-- .... ....|E-4 6F.F ....|E-4 6F.F ....
 F#4|..|F#2 2A.F ....|F#2 2A.F ....|--- .... ....
....|..|R-- .... ....|R-- .... ....|A-4 6F.A ....
....|..|F#2 2F.A ....|F#2 2F.A ....|G-4 6F.A ....
....|..|R-- .... ....|R-- .... ....|--- .... ....
....|..|F#2 2F.7 ....|A-4 6F.A ....|A-4 6F.7 ....
....|..|R-- .... ....|E-4 6F.7 ....|--- .... ....
 F#4|..|F#2 2A.F ....|F#2 2A.F ....|--- .... ....
 F#4|..|F#2 2A.F ....|F#2 2A.F ....|E-4 6F.A ....
....|..|F#2 2F.A ....|F#2 2F.A ....|--- .... ....
....|..|R-- .... ....|A-4 6F.A ....|A-4 6F.7 ....
....|..|F#2 2F.7 ....|G-4 6F.A ....|G-4 6F.7 ....
....|..|R-- .... ....|R-- .... ....|--- .... ....
 F#4|..|F#2 2A.F ....|F#2 2A.F ....|--- .... ....
....|..|R-- .... ....|R-- .... ....|--- .... ....
....|..|F#2 2F.A ....|F#2 2F.A ....|--- .... ....
....|..|F#2 2F.A ....|E-4 6F.A ....|E-4 6F.7 ....
....|..|F#2 2F.7 ....|F#2 2F.7 ....|--- .... ....
....|..|R-- .... ....|R-- .... ....|R-- .... ....
 F#4|..|F#2 2A.F ....|F#2 2A.F ....|--- .... ....
 F#4|..|F#2 2A.F ....|F#2 2A.F ....|--- .... ....
....|..|F#2 2F.A ....|F#2 2F.A ....|--- .... ....
....|..|R-- .... ....|R-- .... ....|--- .... ....
....|..|F#2 2F.7 ....|F#2 2F.7 ....|--- .... ....
....|..|F#2 2F.7 ....|F#2 2F.7 ....|--- .... ....

[Pattern10]
 F#4|..|F#2 2A.F ....|A-4 6F.F ....|A-4 6F.F ....
 F#4|..|F#2 2A.F ....|F#2 2A.F ....|R-- .... ....
....|..|F#2 2F.A ....|F#2 2F.A ....|--- .... ....
....|..|F#2 2F.A ....|F#2 2F.A ....|--- .... ....
....|..|F#2 2F.7 ....|F#2 2F.7 ....|--- .... ....
....|..|R-- .... ....|R-- .... ....|--- .... ....
 D-3|..|D-1 2A.F ....|D-1 2A.F ....|--- .... ....
....|..|R-- .... ....|R-- .... ....|--- .... ....
....|..|F#2 2F.A ....|F#2 2F.A ....|A-4 6F.A ....
....|..|F#2 2F.A ....|F#2 2F.A ....|R-- .... ....
....|..|F#2 2F.7 ....|D-5 6F.F ....|D-5 6F.F ....
....|..|F#2 2F.7 ....|F#2 2F.7 ....|--- .... ....
 A-3|..|A-2 2C.F ....|A-2 2C.F ....|--- .... ....
....|..|R-- .... ....|R-- .... ....|--- .... ....
....|..|D-1 2F.A ....|A-2 2F.A ....|--- .... ....
....|..|R-- .... ....|R-- .... ....|--- .... ....
....|..|F#2 2F.7 ....|A-4 6F.A ....|A-4 6F.7 ....
....|..|F#2 2F.7 ....|F#2 2F.7 ....|R-- .... ....
 A-3|..|A-2 2C.F ....|A-2 2C.F ....|D-5 6F.A ....
....|..|R-- .... ....|B-4 6F.F ....|B-4 6F.F ....
....|..|A-2 2F.A ....|A-2 2F.A ....|--- .... ....
....|..|R-- .... ....|R-- .... ....|--- .... ....
....|..|D-1 2F.7 ....|D-1 2F.A ....|--- .... ....
....|..|R-- .... ....|R-- .... ....|--- .... ....
 A-3|..|A-2 2C.F ....|A-2 2C.F ....|R-- .... ....
....|..|R-- .... ....|A-4 6F.F ....|A-4 6F.F ....
....|..|A-2 2F.A ....|D-5 6F.A ....|D-5 6F.7 ....
....|..|R-- .... ....|R-- .... ....|B-4 6F.A ....
....|..|A-2 2F.7 ....|A-2 2F.7 ....|--- .... ....
....|..|R-- .... ....|R-- .... ....|R-- .... ....
 A-3|..|A-2 2C.F ....|G-4 6F.F ....|G-4 6F.F ....
 A-3|..|A-2 2C.F ....|A-2 2C.F ....|--- .... ....
....|..|A-2 2F.A ....|A-2 2F.A ....|R-- .... ....
....|..|R-- .... ....|R-- .... ....|A-4 6F.A ....
....|..|A-2 2F.7 ....|A-2 2F.7 ....|--- .... ....
....|..|R-- .... ....|B-4 6F.A ....|B-4 6F.7 ....
 A-3|..|A-2 2C.F ....|E-4 6F.F ....|E-4 6F.F ....
....|..|R-- .... ....|R-- .... ....|R-- .... ....
....|..|A-2 2F.A ....|A-2 2F.A ....|G-4 6F.A ....
....|..|A-2 2F.A ....|A-2 2F.A ....|R-- .... ....
....|..|A-2 2F.7 ....|A-2 2F.7 ....|R-- .... ....
....|..|R-- .... ....|A-4 6F.A ....|A-4 6F.7 ....
 A-3|..|A-2 2C.F ....|E-4 6F.F ....|E-4 6F.F ....
 A-3|..|A-2 2C.F ....|A-2 2C.F ....|R-- .... ....
....|..|A-2 2F.A ....|A-2 2F.A ....|E-4 6F.A ....
....|..|R-- .... ....|E-4 6F.F ....|E-4 6F.F ....
....|..|A-2 2F.7 ....|G-4 6F.A ....|G-4 6F.7 ....
....|..|A-2 2F.7 ....|A-2 2F.7 ....|R-- .... ....
 A-3|..|A-2 2C.F ....|G-4 6F.F ....|G-4 6F.F ....
 A-3|..|A-2 2C.F ....|A-2 2C.F ....|--- .... ....
....|..|A-2 2F.A ....|A-2 2F.A ....|E-4 6F.A ....
....|..|A-2 2F.A ....|A-2 2F.A ....|R-- .... ....
....|..|A-2 2F.7 ....|E-4 6F.A ....|E-4 6F.7 ....
....|..|R-- .... ....|R-- .... ....|E-4 6F.A ....
 B-2|..|B-1 2A.F ....|G-4 6F.F ....|G-4 6F.F ....
....|..|R-- .... ....|R-- .... ....|R-- .... ....
....|..|A-2 2F.A ....|A-2 2F.A ....|G-4 6F.A ....
....|..|A-2 2F.A ....|A-2 2F.A ....|--- .... ....
....|..|A-2 2F.7 ....|E-4 6F.A ....|E-4 6F.7 ....
....|..|A-2 2F.7 ....|A-2 2F.7 ....|R-- .... ....
 F#4|..|F#2 2A.F ....|F#4 6F.F ....|F#4 6F.F ....
....|..|R-- .... ....|R-- .... ....|E-4 6F.7 ....
....|..|B-1 2F.A ....|F#2 2F.A ....|G-4 6F.A ....
....|..|R-- .... ....|R-- .... ....|--- .... ....
....|..|A-2 2F.7 ....|G-4 6F.A ....|G-4 6F.7 ....
....|..|A-2 2F.7 ....|A-2 2F.7 ....|R-- .... ....
 F#4|..|F#2 2A.F ....|E-4 6F.F ....|E-4 6F.F ....
....|..|R-- .... ....|R-- .... ....|R-- .... ....
....|..|F#2 2F.A ....|F#2 2F.A ....|F#4 6F.A ....
....|..|R-- .... ....|R-- .... ....|R-- .... ....
....|..|B-1 2F.7 ....|G-4 6F.A ....|G-4 6F.7 ....
....|..|R-- .... ....|R-- .... ....|R-- .... ....
 F#4|..|F#2 2A.F ....|E-4 6F.F ....|E-4 6F.F ....
....|..|R-- .... ....|R-- .... ....|R-- .... ....
....|..|F#2 2F.A ....|F#2 2F.A ....|E-4 6F.A ....
....|..|R-- .... ....|R-- .... ....|R-- .... ....
....|..|F#2 2F.7 ....|F#4 6F.A ....|F#4 6F.7 ....
....|..|R-- .... ....|E-4 6F.7 ....|--- .... ....
 D-3|..|D-1 2A.F ....|D-1 2A.F ....|--- .... ....
 A-3|..|A-2 2C.F ....|A-2 2C.F ....|R-- .... ....
....|..|F#2 2F.A ....|F#2 2F.A ....|E-4 6F.A ....
....|..|R-- .... ....|R-- .... ....|R-- .... ....
....|..|F#2 2F.7 ....|E-4 6F.A ....|E-4 6F.7 ....
....|..|R-- .... ....|R-- .... ....|--- .... ....
 A-3|..|A-2 2C.F ....|A-2 2C.F ....|--- .... ....
....|..|R-- .... ....|R-- .... ....|--- .... ....
....|..|D-1 2F.A ....|A-2 2F.A ....|--- .... ....
....|..|A-2 2F.A ....|A-2 2F.A ....|R-- .... ....
....|..|F#2 2F.7 ....|E-4 6F.A ....|E-4 6F.7 ....
....|..|R-- .... ....|R-- .... ....|--- .... ....
 A-3|..|A-2 2C.F ....|A-2 2C.F ....|--- .... ....
 A-3|..|A-2 2C.F ....|A-2 2C.F ....|--- .... ....
....|..|A-2 2F.A ....|A-2 2F.A ....|--- .... ....
....|..|R-- .... ....|R-- .... ....|--- .... ....
....|..|D-1 2F.7 ....|D-1 2F.A ....|--- .... ....
....|..|A-2 2F.7 ....|A-2 2F.7 ....|--- .... ....
 C-3|..|C-1 2A.F ....|D-4 4F.F ....|D-4 4F.F ....
....|..|--- .... ....|R-- .... ....|--- .... ....
....|..|A-2 2F.A ....|A-2 2F.A ....|R-- .... ....
....|..|A-2 2F.A ....|D-4 4F.F ....|D-4 4F.F ....
....|..|A-2 2F.7 ....|A-2 2F.7 ....|--- .... ....
....|..|R-- .... ....|R-- .... ....|R-- .... ....
 C-4|..|C-2 2A.F ....|D-4 4F.F ....|D-4 4F.F ....
....|..|R-- .... ....|R-- .... ....|--- .... ....
....|..|C-1 2F.A ....|D-4 4F.A ....|D-4 4F.A ....
....|..|--- .... ....|R-- .... ....|--- .... ....
....|..|A-2 2F.7 ....|A-2 2F.7 ....|R-- .... ....
....|..|A-2 2F.7 ....|D-4 4F.A ....|D-4 4F.A ....
 C-4|..|C-2 2A.F ....|E-4 4F.F ....|E-4 4F.F ....
....|..|R-- .... ....|R-- .... ....|R-- .... ....
....|..|C-2 2F.A ....|D-4 4F.A ....|D-4 4F.A ....
....|..|R-- .... ....|R-- .... ....|--- .... ....
....|..|C-1 2F.7 ....|C-1 2F.A ....|D-4 4F.7 ....
....|..|R-- .... ....|R-- .... ....|--- .... ....
 C-4|..|C-2 2A.F ....|E-4 4F.F ....|G-4 6F.F ....
....|..|R-- .... ....|R-- .... ....|E-4 4F.F ....
....|..|C-2 2F.A ....|E-4 4F.A ....|E-4 4F.A ....
....|..|R-- .... ....|D-4 4F.F ....|D-4 4F.F ....
....|..|C-2 2F.7 ....|D-4 4F.7 ....|D-4 4F.7 ....
....|..|R-- .... ....|R-- .... ....|--- .... ....
 G-4|..|C-2 2F.F ....|G-2 2A.F ....|R-- .... ....
....|..|R-- .... ....|A#4 6F.F ....|A#4 6F.F ....
....|..|C-2 2F.A ....|E-4 4F.A ....|G-4 6F.A ....
....|..|R-- .... ....|R-- .... ....|E-4 4F.A ....
....|..|C-2 2F.7 ....|E-4 4F.7 ....|E-4 4F.7 ....
....|..|R-- .... ....|D-4 4F.A ....|D-4 4F.A ....
 G-4|..|C-2 2F.F ....|G-2 2A.F ....|--- .... ....
....|..|R-- .... ....|R-- .... ....|--- .... ....
....|..|C-2 2F.A ....|G-2 2F.A ....|R-- .... ....
....|..|R-- .... ....|R-- .... ....|A#4 6F.A ....
....|..|C-2 2F.7 ....|G-4 6F.A ....|G-4 6F.7 ....
....|..|R-- .... ....|R-- .... ....|E-4 4F.7 ....
 C-4|..|C-2 2A.F ....|A#4 6F.F ....|A#4 6F.F ....
....|..|R-- .... ....|R-- .... ....|D-4 4F.7 ....
....|..|C-2 2F.A ....|G-2 2F.A ....|--- .... ....
....|..|R-- .... ....|R-- .... ....|--- .... ....
....|..|C-2 2F.7 ....|G-2 2F.7 ....|--- .... ....
....|..|R-- .... ....|A#4 6F.A ....|A#4 6F.7 ....
 G-4|..|C-2 2F.F ....|G-2 2A.F ....|R-- .... ....
....|..|R-- .... ....|R-- .... ....|--- .... ....
....|..|C-2 2F.A ....|G-2 2F.A ....|A#4 6F.A ....
....|..|R-- .... ....|R-- .... ....|--- .... ....
....|..|C-2 2F.7 ....|G-2 2F.7 ....|R-- .... ....
....|..|R-- .... ....|R-- .... ....|--- .... ....
 D-3|..|D-1 2A.F ....|D-4 4F.F ....|A#4 6F.F ....
....|..|R-- .... ....|R-- .... ....|D-4 4F.F ....
....|..|C-2 2F.A ....|G-2 2F.A ....|R-- .... ....
....|..|R-- .... ....|D-4 4F.F ....|D-4 4F.F ....
....|..|C-2 2F.7 ....|G-4 6F.F ....|G-4 6F.F ....
....|..|R-- .... ....|R-- .... ....|R-- .... ....
 D-4|..|D-2 2A.F ....|D-4 4F.F ....|D-4 4F.F ....
....|..|R-- .... ....|E-4 6F.F ....|E-4 6F.F ....
....|..|D-1 2F.A ....|D-4 4F.A ....|A#4 6F.A ....
....|..|R-- .... ....|R-- .... ....|R-- .... ....
....|..|C-2 2F.7 ....|G-2 2F.7 ....|R-- .... ....
....|..|R-- .... ....|D-4 4F.A ....|D-4 4F.A ....
 D-4|..|D-2 2A.F ....|E-4 4F.F ....|E-4 4F.F ....
....|..|R-- .... ....|G-4 6F.F ....|G-4 6F.F ....
....|..|D-2 2F.A ....|D-4 4F.A ....|D-4 4F.A ....
....|..|R-- .... ....|R-- .... ....|E-4 6F.A ....
....|..|D-1 2F.7 ....|A#4 6F.A ....|A#4 6F.7 ....
....|..|R-- .... ....|R-- .... ....|R-- .... ....
 D-4|..|D-2 2A.F ....|E-4 4F.F ....|E-4 4F.F ....
....|..|R-- .... ....|G-4 6F.F ....|G-4 6F.F ....
....|..|D-2 2F.A ....|E-4 4F.A ....|E-4 4F.A ....
....|..|R-- .... ....|D-4 4F.F ....|D-4 4F.F ....
....|..|D-2 2F.7 ....|A-2 2F.7 ....|D-4 4F.7 ....
....|..|R-- .... ....|E-4 6F.A ....|E-4 6F.7 ....
 A-3|..|D-2 2F.F ....|A-2 2C.F ....|R-- .... ....
....|..|R-- .... ....|A#4 6F.F ....|A#4 6F.F ....
....|..|D-2 2F.A ....|E-4 4F.A ....|E-4 4F.A ....
....|..|R-- .... ....|R-- .... ....|G-4 6F.A ....
....|..|D-2 2F.7 ....|E-4 4F.7 ....|E-4 4F.7 ....
....|..|R-- .... ....|D-4 4F.A ....|D-4 4F.A ....
 A-3|..|D-2 2F.F ....|A-2 2C.F ....|R-- .... ....
....|..|R-- .... ....|R-- .... ....|--- .... ....
....|..|D-2 2F.A ....|A-2 2F.A ....|R-- .... ....
....|..|R-- .... ....|R-- .... ....|A#4 6F.A ....
....|..|D-2 2F.7 ....|E-4 4F.7 ....|E-4 4F.7 ....
....|..|R-- .... ....|R-- .... ....|G-4 6F.7 ....
 D-3|..|D-1 2A.F ....|D-3 3F1F ....|A#4 6F.F ....
....|..|R-- .... ....|R-- .... ....|D-4 4F.7 ....
....|..|D-2 2F.A ....|A-2 2F.A ....|R-- .... ....
....|..|R-- .... ....|R-- .... ....|--- .... ....
....|..|D-2 2F.7 ....|A-2 2F.7 ....|--- .... ....
....|..|R-- .... ....|A#4 6F.A ....|A#4 6F.7 ....
 A-3|..|D-2 2F.F ....|A-2 2C.F ....|R-- .... ....
....|..|R-- .... ....|R-- .... ....|--- .... ....
....|..|D-1 2F.A ....|D-3 3F1A ....|A#4 6F.A ....
....|..|R-- .... ....|R-- .... ....|--- .... ....
....|..|D-2 2F.7 ....|A-2 2F.7 ....|R-- .... ....
....|..|R-- .... ....|R-- .... ....|--- .... ....

[Pattern11]
 B-2|..|B-1 2A.F ....|D-4 4F.F ....|A#4 6F.F ....
....|..|R-- .... ....|R-- .... ....|D-4 4F.F ....
....|..|D-2 2F.A ....|A-2 2F.A ....|R-- .... ....
....|..|R-- .... ....|D-4 4F.F ....|D-4 4F.F ....
....|..|D-1 2F.7 ....|G-4 6F.F ....|G-4 6F.F ....
....|..|R-- .... ....|R-- .... ....|R-- .... ....
 B-3|..|B-1 2A.F ....|D-4 4F.F ....|D-4 4F.F ....
....|..|R-- .... ....|E-4 6F.F ....|E-4 6F.F ....
....|..|B-1 2F.A ....|D-4 4F.A ....|A#4 6F.A ....
....|..|R-- .... ....|R-- .... ....|D-4 4F.A ....
....|..|D-2 2F.7 ....|A-2 2F.7 ....|R-- .... ....
....|..|R-- .... ....|R-- .... ....|D-4 4F.A ....
 B-3|..|B-1 2A.F ....|E-4 4F.F ....|E-4 4F.F ....
....|..|R-- .... ....|G-4 6F.F ....|G-4 6F.F ....
....|..|B-1 2F.A ....|D-4 4F.A ....|D-4 4F.A ....
....|..|R-- .... ....|R-- .... ....|E-4 6F.A ....
....|..|B-1 2F.7 ....|A#4 6F.A ....|A#4 6F.7 ....
....|..|R-- .... ....|R-- .... ....|D-4 4F.7 ....
 B-3|..|B-1 2A.F ....|E-4 4F.F ....|G-4 6F.F ....
....|..|R-- .... ....|R-- .... ....|E-4 4F.F ....
....|..|B-1 2F.A ....|E-4 4F.A ....|E-4 4F.A ....
....|..|R-- .... ....|D-4 4F.F ....|D-4 4F.F ....
....|..|B-1 2F.7 ....|D-4 4F.7 ....|D-4 4F.7 ....
....|..|R-- .... ....|E-4 6F.A ....|E-4 6F.7 ....
 B-3|..|B-1 2A.F ....|A#4 6F.F ....|A#4 6F.F ....
....|..|R-- .... ....|R-- .... ....|R-- .... ....
....|..|B-1 2F.A ....|E-4 4F.A ....|G-4 6F.A ....
....|..|R-- .... ....|R-- .... ....|E-4 4F.A ....
....|..|B-1 2F.7 ....|E-4 4F.7 ....|E-4 4F.7 ....
....|..|R-- .... ....|D-4 4F.A ....|D-4 4F.A ....
 F#4|..|B-1 2F.F ....|F#2 2A.F ....|--- .... ....
....|..|R-- .... ....|R-- .... ....|--- .... ....
....|..|B-1 2F.A ....|F#2 2F.A ....|A#4 6F.A ....
....|..|R-- .... ....|R-- .... ....|R-- .... ....
....|..|B-1 2F.7 ....|G-4 6F.A ....|G-4 6F.7 ....
....|..|R-- .... ....|R-- .... ....|E-4 4F.7 ....
 B-3|..|B-1 2A.F ....|A#4 6F.F ....|A#4 6F.F ....
....|..|R-- .... ....|R-- .... ....|D-4 4F.7 ....
....|..|B-1 2F.A ....|F#2 2F.A ....|--- .... ....
....|..|R-- .... ....|R-- .... ....|--- .... ....
....|..|B-1 2F.7 ....|A#4 6F.A ....|A#4 6F.7 ....
....|..|R-- .... ....|R-- .... ....|R-- .... ....
 F#4|..|B-1 2F.F ....|F#2 2A.F ....|--- .... ....
....|..|R-- .... ....|R-- .... ....|--- .... ....
....|..|B-1 2F.A ....|F#2 2F.A ....|A#4 6F.A ....
....|..|R-- .... ....|R-- .... ....|--- .... ....
....|..|B-1 2F.7 ....|F#2 2F.7 ....|R-- .... ....
....|..|R-- .... ....|R-- .... ....|--- .... ....
 C-3|..|C-1 2A.F ....|D-4 4F.F ....|A-4 6F.F ....
....|..|R-- .... ....|R-- .... ....|D-4 4F.F ....
....|..|B-1 2F.A ....|F#2 2F.A ....|R-- .... ....
....|..|R-- .... ....|D-4 4F.F ....|D-4 4F.F ....
....|..|B-1 2F.7 ....|A#4 6F.A ....|A#4 6F.7 ....
....|..|R-- .... ....|R-- .... ....|--- .... ....
 C-4|..|C-2 2A.F ....|D-4 4F.F ....|G-4 6F.F ....
....|..|R-- .... ....|R-- .... ....|D-4 4F.F ....
....|..|C-1 2F.A ....|D-4 4F.A ....|A-4 6F.A ....
....|..|R-- .... ....|R-- .... ....|D-4 4F.A ....
....|..|B-1 2F.7 ....|F#2 2F.7 ....|R-- .... ....
....|..|R-- .... ....|D-4 4F.A ....|D-4 4F.A ....
 C-4|..|C-2 2A.F ....|E-4 4F.F ....|G-4 6F.F ....
....|..|R-- .... ....|R-- .... ....|E-4 4F.F ....
....|..|C-2 2F.A ....|D-4 4F.A ....|G-4 6F.A ....
....|..|R-- .... ....|R-- .... ....|D-4 4F.A ....
....|..|C-1 2F.7 ....|A-4 6F.A ....|A-4 6F.7 ....
....|..|R-- .... ....|R-- .... ....|D-4 4F.7 ....
 C-4|..|C-2 2A.F ....|E-4 4F.F ....|G-4 6F.F ....
....|..|R-- .... ....|R-- .... ....|E-4 4F.F ....
....|..|C-2 2F.A ....|E-4 4F.A ....|G-4 6F.A ....
....|..|R-- .... ....|D-4 4F.F ....|D-4 4F.F ....
....|..|C-2 2F.7 ....|G-4 6F.A ....|G-4 6F.7 ....
....|..|R-- .... ....|R-- .... ....|E-4 4F.A ....
 C-4|..|C-2 2A.F ....|A-4 6F.F ....|A-4 6F.F ....
....|..|R-- .... ....|R-- .... ....|D-4 4F.7 ....
....|..|C-2 2F.A ....|E-4 4F.A ....|G-4 6F.A ....
....|..|R-- .... ....|R-- .... ....|E-4 4F.A ....
....|..|C-2 2F.7 ....|G-4 6F.A ....|G-4 6F.7 ....
....|..|R-- .... ....|R-- .... ....|D-4 4F.A ....
 C-4|..|C-2 2A.F ....|G-4 6F.F ....|G-4 6F.F ....
....|..|R-- .... ....|R-- .... ....|--- .... ....
....|..|C-2 2F.A ....|G-2 2F.A ....|A-4 6F.A ....
....|..|R-- .... ....|R-- .... ....|R-- .... ....
....|..|C-2 2F.7 ....|G-4 6F.A ....|G-4 6F.7 ....
....|..|R-- .... ....|R-- .... ....|E-4 4F.7 ....
 C-4|..|C-2 2A.F ....|B-4 6F.F ....|B-4 6F.F ....
....|..|R-- .... ....|R-- .... ....|D-4 4F.7 ....
....|..|C-2 2F.A ....|G-2 2F.A ....|G-4 6F.A ....
....|..|R-- .... ....|R-- .... ....|--- .... ....
....|..|C-2 2F.7 ....|A-4 6F.A ....|A-4 6F.7 ....
....|..|R-- .... ....|R-- .... ....|R-- .... ....
 C-4|..|C-2 2A.F ....|D-3 3F2F ....|G-4 6F.F ....
....|..|R-- .... ....|R-- .... ....|R-- .... ....
....|..|C-2 2F.A ....|G-2 2F.A ....|B-4 6F.A ....
....|..|R-- .... ....|R-- .... ....|R-- .... ....
....|..|C-2 2F.7 ....|G-4 6F.A ....|G-4 6F.7 ....
....|..|R-- .... ....|R-- .... ....|R-- .... ....
 C-3|..|C-1 2A.F ....|D-4 4F.F ....|G-4 6F.F ....
....|..|R-- .... ....|R-- .... ....|D-4 4F.F ....
....|..|C-2 2F.A ....|D-3 3F2A ....|R-- .... ....
....|..|R-- .... ....|D-4 4F.F ....|D-4 4F.F ....
....|..|C-2 2F.7 ....|B-4 6F.A ....|B-4 6F.7 ....
....|..|R-- .... ....|R-- .... ....|R-- .... ....
 C-4|..|C-2 2A.F ....|D-4 4F.F ....|D-4 4F.F ....
....|..|R-- .... ....|R-- .... ....|R-- .... ....
....|..|C-1 2F.A ....|D-4 4F.A ....|G-4 6F.A ....
....|..|R-- .... ....|R-- .... ....|D-4 4F.A ....
....|..|C-2 2F.7 ....|G-4 6F.A ....|R-- .... ....
....|..|R-- .... ....|R-- .... ....|D-4 4F.A ....
 C-4|..|C-2 2A.F ....|E-4 4F.F ....|E-4 4F.F ....
....|..|R-- .... ....|R-- .... ....|R-- .... ....
....|..|C-2 2F.A ....|D-4 4F.A ....|D-4 4F.A ....
....|..|R-- .... ....|R-- .... ....|R-- .... ....
....|..|C-1 2F.7 ....|G-4 6F.A ....|G-4 6F.7 ....
....|..|R-- .... ....|R-- .... ....|D-4 4F.7 ....
 C-4|..|C-2 2A.F ....|E-4 4F.F ....|G-4 6F.F ....
....|..|R-- .... ....|R-- .... ....|E-4 4F.F ....
....|..|C-2 2F.A ....|E-4 4F.A ....|E-4 4F.A ....
....|..|R-- .... ....|D-4 4F.F ....|D-4 4F.F ....
....|..|C-2 2F.7 ....|D-4 4F.7 ....|D-4 4F.7 ....
....|..|R-- .... ....|R-- .... ....|--- .... ....
 C-3|..|C-1 2A.F ....|C-4 3F1F ....|R-- .... ....
....|..|R-- .... ....|A#4 6F.F ....|A#4 6F.F ....
....|..|C-2 2F.A ....|E-4 4F.A ....|G-4 6F.A ....
....|..|R-- .... ....|R-- .... ....|E-4 4F.A ....
....|..|C-2 2F.7 ....|E-4 4F.7 ....|E-4 4F.7 ....
....|..|R-- .... ....|D-4 4F.A ....|D-4 4F.A ....
 G-4|..|C-2 2F.F ....|G-2 2A.F ....|--- .... ....
....|..|R-- .... ....|R-- .... ....|--- .... ....
....|..|C-1 2F.A ....|C-4 3F1A ....|R-- .... ....
....|..|R-- .... ....|R-- .... ....|A#4 6F.A ....
....|..|C-2 2F.7 ....|G-4 6F.A ....|G-4 6F.7 ....
....|..|R-- .... ....|R-- .... ....|E-4 4F.7 ....
 C-4|..|C-2 2A.F ....|A#4 6F.F ....|A#4 6F.F ....
....|..|R-- .... ....|R-- .... ....|D-4 4F.7 ....
....|..|C-2 2F.A ....|G-2 2F.A ....|--- .... ....
....|..|R-- .... ....|R-- .... ....|--- .... ....
....|..|C-1 2F.7 ....|C-1 2F.A ....|--- .... ....
....|..|R-- .... ....|A#4 6F.A ....|A#4 6F.7 ....
 C-4|..|C-2 2A.F ....|C-4 3F1F ....|R-- .... ....
....|..|R-- .... ....|R-- .... ....|--- .... ....
....|..|C-2 2F.A ....|G-2 2F.A ....|A#4 6F.A ....
....|..|R-- .... ....|R-- .... ....|--- .... ....
....|..|C-2 2F.7 ....|G-2 2F.7 ....|R-- .... ....
....|..|R-- .... ....|R-- .... ....|--- .... ....
 D-3|..|D-1 2A.F ....|D-4 4F.F ....|A#4 6F.F ....
....|..|R-- .... ....|R-- .... ....|D-4 4F.F ....
....|..|C-2 2F.A ....|C-4 3F1A ....|R-- .... ....
....|..|R-- .... ....|D-4 4F.F ....|D-4 4F.F ....
....|..|C-2 2F.7 ....|G-4 6F.F ....|G-4 6F.F ....
....|..|R-- .... ....|R-- .... ....|R-- .... ....
 D-4|..|D-2 2A.F ....|D-4 4F.F ....|D-4 4F.F ....
....|..|R-- .... ....|E-4 6F.F ....|E-4 6F.F ....
....|..|D-1 2F.A ....|D-4 4F.A ....|A#4 6F.A ....
....|..|R-- .... ....|R-- .... ....|R-- .... ....
....|..|C-2 2F.7 ....|G-2 2F.7 ....|R-- .... ....
....|..|R-- .... ....|D-4 4F.A ....|D-4 4F.A ....
 D-4|..|D-2 2A.F ....|E-4 4F.F ....|E-4 4F.F ....
....|..|R-- .... ....|G-4 6F.F ....|G-4 6F.F ....
....|..|D-2 2F.A ....|D-4 4F.A ....|D-4 4F.A ....
....|..|R-- .... ....|R-- .... ....|E-4 6F.A ....
....|..|D-1 2F.7 ....|A#4 6F.A ....|A#4 6F.7 ....
....|..|R-- .... ....|R-- .... ....|R-- .... ....
 D-4|..|D-2 2A.F ....|E-4 4F.F ....|E-4 4F.F ....
....|..|R-- .... ....|G-4 6F.F ....|G-4 6F.F ....
....|..|D-2 2F.A ....|E-4 4F.A ....|E-4 4F.A ....
....|..|R-- .... ....|D-4 4F.F ....|D-4 4F.F ....
....|..|D-2 2F.7 ....|A-2 2F.7 ....|D-4 4F.7 ....
....|..|R-- .... ....|E-4 6F.A ....|E-4 6F.7 ....
 D-4|..|D-2 2A.F ....|D-3 3F5F ....|R-- .... ....
....|..|R-- .... ....|A#4 6F.F ....|A#4 6F.F ....
....|..|D-2 2F.A ....|E-4 4F.A ....|E-4 4F.A ....
....|..|R-- .... ....|R-- .... ....|G-4 6F.A ....
....|..|D-2 2F.7 ....|E-4 4F.7 ....|E-4 4F.7 ....
....|..|R-- .... ....|D-4 4F.A ....|D-4 4F.A ....
 D-4|..|D-2 2A.F ....|D-3 3F1F ....|R-- .... ....
....|..|R-- .... ....|R-- .... ....|--- .... ....
....|..|D-2 2F.A ....|D-3 3F5A ....|R-- .... ....
....|..|R-- .... ....|D-3 3F6F ....|A#4 6F.A ....
....|..|D-2 2F.7 ....|E-4 4F.7 ....|E-4 4F.7 ....
....|..|R-- .... ....|G-4 6F.A ....|G-4 6F.7 ....
 D-4|..|D-2 2A.F ....|D-3 3F1F ....|A#4 6F.F ....
....|..|R-- .... ....|R-- .... ....|D-4 4F.7 ....
....|..|D-2 2F.A ....|D-3 3F1A ....|R-- .... ....
....|..|R-- .... ....|R-- .... ....|--- .... ....
....|..|D-2 2F.7 ....|D-3 3F57 ....|--- .... ....
....|..|R-- .... ....|R-- .... ....|A#4 6F.7 ....
 D-4|..|D-2 2A.F ....|D-3 3F7F ....|R-- .... ....
....|..|R-- .... ....|R-- .... ....|--- .... ....
....|..|D-2 2F.A ....|D-3 3F1A ....|A#4 6F.A ....
....|..|R-- .... ....|R-- .... ....|--- .... ....
....|..|D-2 2F.7 ....|A-2 2F.7 ....|R-- .... ....
....|..|R-- .... ....|D-3 3F6F ....|--- .... ....

[Pattern12]
 B-2|..|B-1 2A.F ....|D-4 4F.F ....|A#4 6F.F ....
....|..|R-- .... ....|R-- .... ....|D-4 4F.F ....
....|..|D-2 2F.A ....|D-3 3F7A ....|R-- .... ....
....|..|R-- .... ....|D-4 4F.F ....|D-4 4F.F ....
....|..|D-2 2F.7 ....|G-4 6F.F ....|G-4 6F.F ....
....|..|R-- .... ....|R-- .... ....|R-- .... ....
 B-3|..|B-1 2A.F ....|D-4 4F.F ....|D-4 4F.F ....
....|..|R-- .... ....|E-4 6F.F ....|E-4 6F.F ....
....|..|B-1 2F.A ....|D-4 4F.A ....|A#4 6F.A ....
....|..|R-- .... ....|R-- .... ....|D-4 4F.A ....
....|..|D-2 2F.7 ....|D-3 3F77 ....|R-- .... ....
....|..|R-- .... ....|R-- .... ....|D-4 4F.A ....
 B-3|..|B-1 2A.F ....|E-4 4F.F ....|E-4 4F.F ....
....|..|R-- .... ....|G-4 6F.F ....|G-4 6F.F ....
....|..|B-1 2F.A ....|D-4 4F.A ....|D-4 4F.A ....
....|..|R-- .... ....|R-- .... ....|E-4 6F.A ....
....|..|B-1 2F.7 ....|A#4 6F.A ....|A#4 6F.7 ....
....|..|R-- .... ....|R-- .... ....|D-4 4F.7 ....
 B-3|..|B-1 2A.F ....|E-4 4F.F ....|G-4 6F.F ....
....|..|R-- .... ....|R-- .... ....|E-4 4F.F ....
....|..|B-1 2F.A ....|E-4 4F.A ....|E-4 4F.A ....
....|..|R-- .... ....|D-4 4F.F ....|D-4 4F.F ....
....|..|B-1 2F.7 ....|D-4 4F.7 ....|D-4 4F.7 ....
....|..|R-- .... ....|E-4 6F.A ....|E-4 6F.7 ....
 B-3|..|B-1 2A.F ....|A#4 6F.F ....|A#4 6F.F ....
....|..|R-- .... ....|R-- .... ....|R-- .... ....
....|..|B-1 2F.A ....|E-4 4F.A ....|G-4 6F.A ....
....|..|R-- .... ....|R-- .... ....|E-4 4F.A ....
....|..|B-1 2F.7 ....|E-4 4F.7 ....|E-4 4F.7 ....
....|..|R-- .... ....|D-4 4F.A ....|D-4 4F.A ....
 F#4|..|B-1 2F.F ....|F#2 2A.F ....|--- .... ....
....|..|R-- .... ....|R-- .... ....|--- .... ....
....|..|B-1 2F.A ....|F#2 2F.A ....|A#4 6F.A ....
....|..|R-- .... ....|R-- .... ....|R-- .... ....
....|..|B-1 2F.7 ....|G-4 6F.A ....|G-4 6F.7 ....
....|..|R-- .... ....|D-3 3F6F ....|E-4 4F.7 ....
 B-3|..|B-1 2A.F ....|D-3 3F9F ....|A#4 6F.F ....
....|..|R-- .... ....|R-- .... ....|D-4 4F.7 ....
....|..|B-1 2F.A ....|F#2 2F.A ....|--- .... ....
....|..|R-- .... ....|R-- .... ....|--- .... ....
....|..|B-1 2F.7 ....|A#4 6F.A ....|A#4 6F.7 ....
....|..|R-- .... ....|R-- .... ....|R-- .... ....
 F#4|..|B-1 2F.F ....|F#2 2A.F ....|--- .... ....
....|..|R-- .... ....|R-- .... ....|--- .... ....
....|..|B-1 2F.A ....|D-3 3F9A ....|A#4 6F.A ....
....|..|R-- .... ....|R-- .... ....|--- .... ....
....|..|B-1 2F.7 ....|F#2 2F.7 ....|R-- .... ....
....|..|R-- .... ....|R-- .... ....|--- .... ....
 B-3|..|B-1 2A.F ....|D-4 4F.F ....|A-4 6F.F ....
....|..|R-- .... ....|R-- .... ....|D-4 4F.F ....
....|..|B-1 2F.A ....|F#2 2F.A ....|R-- .... ....
....|..|R-- .... ....|D-4 4F.F ....|D-4 4F.F ....
....|..|B-1 2F.7 ....|A#4 6F.A ....|A#4 6F.7 ....
....|..|R-- .... ....|B-3 3FBF ....|--- .... ....
 B-3|..|B-1 2A.F ....|D-4 4F.F ....|G-4 6F.F ....
....|..|R-- .... ....|R-- .... ....|D-4 4F.F ....
....|..|B-1 2F.A ....|D-4 4F.A ....|A-4 6F.A ....
....|..|R-- .... ....|B-3 3FAF ....|D-4 4F.A ....
....|..|B-1 2F.7 ....|B-3 3F5F ....|R-- .... ....
....|..|R-- .... ....|D-4 4F.A ....|D-4 4F.A ....
 B-3|..|B-1 2A.F ....|E-4 4F.F ....|E-4 4F.F ....
....|..|R-- .... ....|R-- .... ....|--- .... ....
....|..|B-1 2F.A ....|D-4 4F.A ....|G-4 6F.A ....
....|..|R-- .... ....|F#3 3FCF ....|D-4 4F.A ....
....|..|B-1 2F.7 ....|A-4 6F.A ....|A-4 6F.7 ....
....|..|R-- .... ....|B-3 3FAA ....|D-4 4F.7 ....
 B-3|..|B-1 2A.F ....|E-4 4F.F ....|B-4 6F.F ....
....|..|R-- .... ....|R-- .... ....|E-4 4F.F ....
....|..|B-1 2F.A ....|E-4 4F.A ....|E-4 4F.A ....
....|..|R-- .... ....|D-4 4F.F ....|D-4 4F.F ....
....|..|B-1 2F.7 ....|B-2 3F.F ....|G-4 6F.7 ....
....|..|R-- .... ....|F#3 3FCA ....|D-4 4F.7 ....
 B-3|..|B-1 2A.F ....|B-3 3FAF ....|D-5 6F.F ....
....|..|R-- .... ....|R-- .... ....|R-- .... ....
....|..|B-1 2F.A ....|E-4 4F.A ....|B-4 6F.A ....
....|..|R-- .... ....|F#3 3FCF ....|E-4 4F.A ....
....|..|B-1 2F.7 ....|E-4 4F.7 ....|E-4 4F.7 ....
....|..|R-- .... ....|R-- .... ....|D-4 4F.A ....
 B-3|..|B-1 2A.F ....|B-3 3FAF ....|B-4 6F.F ....
....|..|R-- .... ....|R-- .... ....|R-- .... ....
....|..|B-1 2F.A ....|B-3 3FAA ....|D-5 6F.A ....
....|..|R-- .... ....|B-2 3F.F ....|R-- .... ....
....|..|B-1 2F.7 ....|B-4 6F.A ....|B-4 6F.7 ....
....|..|R-- .... ....|F#3 3FCA ....|E-4 4F.7 ....
 B-3|..|B-1 2A.F ....|B-3 3FAF ....|D-5 6F.F ....
....|..|R-- .... ....|R-- .... ....|D-4 4F.7 ....
....|..|B-1 2F.A ....|F#3 3FCF ....|B-4 6F.A ....
....|..|R-- .... ....|R-- .... ....|--- .... ....
....|..|B-1 2F.7 ....|D-5 6F.A ....|D-5 6F.7 ....
....|..|R-- .... ....|B-2 3F.A ....|--- .... ....
 B-3|..|B-1 2A.F ....|B-3 3FAF ....|B-4 6F.F ....
....|..|R-- .... ....|R-- .... ....|R-- .... ....
....|..|B-1 2F.A ....|B-3 3FAA ....|D-5 6F.A ....
....|..|R-- .... ....|B-2 3F.F ....|R-- .... ....
....|..|B-1 2F.7 ....|B-4 6F.A ....|B-4 6F.7 ....
....|..|R-- .... ....|R-- .... ....|--- .... ....
 E-3|..|E-1 2A.F ....|G-3 4F1F ....|G-3 4F1F ....
....|..|R-- .... ....|E-5 6F.F ....|E-5 6F.F ....
 E-4|..|B-1 2F.A ....|E-2 2A.F ....|B-4 6F.A ....
....|..|R-- .... ....|R-- .... ....|R-- .... ....
....|..|B-1 2F.7 ....|D-5 6F.A ....|D-5 6F.7 ....
....|..|--- .... ....|B-2 3F.A ....|R-- .... ....
 E-4|..|E-2 2A.F ....|G-3 4F1F ....|G-3 4F1F ....
....|..|R-- .... ....|R-- .... ....|--- .... ....
....|..|E-1 2F.A ....|G-3 4F1A ....|G-3 4F1A ....
....|..|R-- .... ....|R-- .... ....|R-- .... ....
....|..|B-1 2F.7 ....|B-4 6F.A ....|B-4 6F.7 ....
....|..|--- .... ....|R-- .... ....|R-- .... ....
 E-4|..|E-2 2A.F ....|A-3 4F2F ....|A-3 4F2F ....
....|..|--- .... ....|R-- .... ....|R-- .... ....
....|..|E-2 2F.A ....|G-3 4F1A ....|G-3 4F1A ....
....|..|R-- .... ....|R-- .... ....|--- .... ....
....|..|E-1 2F.7 ....|E-1 2F.A ....|G-3 4F17 ....
....|..|--- .... ....|E-5 6F.A ....|R-- .... ....
 E-4|..|E-2 2A.F ....|B-3 3FDF ....|--- .... ....
....|..|--- .... ....|R-- .... ....|R-- .... ....
....|..|E-2 2F.A ....|A-3 4F2A ....|A-3 4F2A ....
....|..|--- .... ....|G-3 4F1F ....|G-3 4F1F ....
....|..|E-2 2F.7 ....|G-3 4F17 ....|G-3 4F17 ....
....|..|--- .... ....|B-3 4F3F ....|B-3 4F3F ....
 E-4|..|E-2 2A.F ....|B-3 3FDF ....|R-- .... ....
....|..|--- .... ....|R-- .... ....|R-- .... ....
....|..|E-2 2F.A ....|B-3 3FDA ....|--- .... ....
....|..|--- .... ....|R-- .... ....|R-- .... ....
....|..|E-2 2F.7 ....|A-3 4F27 ....|A-3 4F27 ....
....|..|--- .... ....|G-3 4F1A ....|G-3 4F1A ....
 E-4|..|E-2 2A.F ....|B-3 3FDF ....|--- .... ....
....|..|--- .... ....|B-3 3F.F ....|B-3 4F3A ....
....|..|E-2 2F.A ....|B-3 3FDA ....|R-- .... ....
....|..|--- .... ....|E-5 6F.7 ....|--- .... ....
....|..|E-2 2F.7 ....|B-3 3FD7 ....|--- .... ....
....|..|--- .... ....|R-- .... ....|R-- .... ....
 E-4|..|E-2 2A.F ....|B-3 3FDF ....|--- .... ....
....|..|--- .... ....|G-3 4F17 ....|G-3 4F17 ....
....|..|E-2 2F.A ....|B-3 3FDA ....|--- .... ....
 E-4|..|--- .... ....|E-2 2A.F ....|B-3 4F37 ....
....|..|E-2 2F.7 ....|B-3 3FD7 ....|R-- .... ....
....|..|--- .... ....|R-- .... ....|R-- .... ....
 E-4|..|E-2 2A.F ....|B-3 3FDF ....|D-5 6F.F ....
....|..|--- .... ....|R-- .... ....|--- .... ....
 E-4|..|E-2 2F.A ....|E-2 2A.F ....|--- .... ....
....|..|--- .... ....|--- .... ....|--- .... ....
....|..|E-2 2F.7 ....|B-3 3FD7 ....|--- .... ....
....|..|R-- .... ....|B-2 2F.7 ....|--- .... ....
 D-3|..|D-1 2A.F ....|G-3 4F1F ....|G-3 4F1F ....
....|..|--- .... ....|--- .... ....|R-- .... ....
....|..|E-2 2F.A ....|B-3 3FDA ....|D-5 6F.A ....
....|..|--- .... ....|R-- .... ....|R-- .... ....
....|..|E-2 2F.7 ....|B-3 3FD7 ....|--- .... ....
....|..|--- .... ....|--- .... ....|--- .... ....
 D-4|..|D-2 2A.F ....|G-3 4F1F ....|G-3 4F1F ....
 A-3|..|R-- .... ....|A-2 2C.F ....|--- .... ....
....|..|D-1 2F.A ....|G-3 4F1A ....|G-3 4F1A ....
....|..|--- .... ....|R-- .... ....|R-- .... ....
....|..|E-2 2F.7 ....|D-5 6F.A ....|D-5 6F.7 ....
....|..|--- .... ....|R-- .... ....|R-- .... ....
 D-4|..|D-2 2A.F ....|A-3 4F2F ....|A-3 4F2F ....
....|..|--- .... ....|--- .... ....|--- .... ....
....|..|D-2 2F.A ....|G-3 4F1A ....|G-3 4F1A ....
 D-4|..|R-- .... ....|D-2 2A.F ....|--- .... ....
....|..|D-1 2F.7 ....|D-1 2F.A ....|G-3 4F17 ....
....|..|--- .... ....|R-- .... ....|R-- .... ....
 D-4|..|D-2 2A.F ....|A-3 3FCF ....|--- .... ....
....|..|--- .... ....|B-4 6F.F ....|B-4 6F.F ....
 D-4|..|D-2 2F.A ....|D-2 2A.F ....|A-3 4F2A ....
....|..|--- .... ....|G-3 4F1F ....|G-3 4F1F ....
....|..|D-2 2F.7 ....|D-3 2F.7 ....|G-3 4F17 ....
....|..|--- .... ....|B-3 4F3F ....|B-3 4F3F ....
 D-4|..|D-2 2A.F ....|A-3 3FCF ....|R-- .... ....
....|..|--- .... ....|D-5 6F.F ....|D-5 6F.F ....
 D-4|..|D-2 2F.A ....|D-3 2C.F ....|R-- .... ....
 D-4|..|--- .... ....|D-2 2A.F ....|B-4 6F.A ....
....|..|D-2 2F.7 ....|A-3 4F27 ....|A-3 4F27 ....
....|..|--- .... ....|G-3 4F1A ....|G-3 4F1A ....
 D-4|..|D-2 2A.F ....|A-3 3FCF ....|R-- .... ....
....|..|--- .... ....|A-3 3FEF ....|B-4 6F.F ....
....|..|D-2 2F.A ....|A-3 3FCA ....|B-3 4F3A ....
....|..|--- .... ....|R-- .... ....|D-5 6F.A ....
....|..|D-2 2F.7 ....|A-3 3FC7 ....|R-- .... ....
....|..|--- .... ....|B-4 6F.A ....|B-4 6F.7 ....
 D-4|..|D-2 2A.F ....|A-3 3FCF ....|R-- .... ....
....|..|--- .... ....|D-5 6F.F ....|D-5 6F.F ....
....|..|D-2 2F.A ....|A-3 3FCA ....|G-3 4F17 ....
 D-4|..|--- .... ....|D-2 2A.F ....|B-4 6F.A ....
....|..|D-2 2F.7 ....|A-3 3FC7 ....|B-3 4F37 ....
....|..|--- .... ....|D-5 6F.A ....|D-5 6F.7 ....
 D-4|..|D-2 2A.F ....|A-3 3FCF ....|B-4 6F.F ....
....|..|--- .... ....|F#4 3F.F ....|R-- .... ....
 D-4|..|D-2 2F.A ....|D-2 2A.F ....|--- .... ....
....|..|--- .... ....|R-- .... ....|D-5 6F.A ....
....|..|D-2 2F.7 ....|D-3 2F.7 ....|R-- .... ....
....|..|R-- .... ....|D-2 2F.A ....|B-4 6F.7 ....

[Pattern14]
 C-3|..|C-1 2A.F ....|G-3 4F1F ....|G-3 4F1F ....
....|..|--- .... ....|E-3 3F5F ....|--- .... ....
....|..|D-2 2F.A ....|A-3 3FCA ....|C-5 6F.A ....
 C-3|..|--- .... ....|C-3 2C.F ....|R-- .... ....
....|..|D-2 2F.7 ....|B-4 6F.A ....|B-4 6F.7 ....
....|..|--- .... ....|--- .... ....|--- .... ....
 C-4|..|C-2 2A.F ....|G-3 4F1F ....|C-5 6F.F ....
....|..|R-- .... ....|D-2 2F.7 ....|G-3 4F1F ....
....|..|C-1 2F.A ....|G-3 4F1A ....|G-3 4F1A ....
....|..|--- .... ....|R-- .... ....|R-- .... ....
....|..|D-2 2F.7 ....|C-5 6F.A ....|C-5 6F.7 ....
....|..|--- .... ....|C-3 2F.A ....|R-- .... ....
 C-4|..|C-2 2A.F ....|A-3 4F2F ....|A-3 4F2F ....
....|..|--- .... ....|G-3 3F6F ....|--- .... ....
 C-3|..|C-2 2F.A ....|C-3 2C.F ....|C-5 6F.A ....
 C-4|..|R-- .... ....|C-2 2A.F ....|G-3 4F1A ....
....|..|C-1 2F.7 ....|C-1 2F.A ....|G-3 4F17 ....
....|..|--- .... ....|E-3 3F57 ....|R-- .... ....
 C-4|..|C-2 2A.F ....|E-3 3F2F ....|--- .... ....
....|..|--- .... ....|B-3 3F.F ....|R-- .... ....
 C-4|..|C-2 2F.A ....|C-2 2A.F ....|A-3 4F2A ....
....|..|--- .... ....|G-3 4F1F ....|G-3 4F1F ....
....|..|C-2 2F.7 ....|C-5 6F.A ....|C-5 6F.7 ....
....|..|--- .... ....|B-3 4F3F ....|B-3 4F3F ....
 C-4|..|C-2 2A.F ....|E-3 3F2F ....|R-- .... ....
....|..|--- .... ....|G-3 3F6F ....|R-- .... ....
 C-4|..|C-2 2F.A ....|C-2 2A.F ....|--- .... ....
....|..|--- .... ....|B-3 3F.A ....|R-- .... ....
....|..|C-2 2F.7 ....|A-3 4F27 ....|A-3 4F27 ....
....|..|--- .... ....|G-3 4F1A ....|G-3 4F1A ....
 C-4|..|C-2 2A.F ....|E-3 3F2F ....|B-4 6F.F ....
....|..|--- .... ....|G-3 3F6F ....|B-3 4F3A ....
....|..|C-2 2F.A ....|E-3 3F2A ....|R-- .... ....
....|..|--- .... ....|G-3 3F6A ....|--- .... ....
....|..|C-2 2F.7 ....|E-3 3F27 ....|--- .... ....
....|..|--- .... ....|B-3 3F.7 ....|R-- .... ....
 C-4|..|C-2 2A.F ....|E-3 3F2F ....|B-4 6F.F ....
....|..|--- .... ....|G-3 3F6F ....|G-3 4F17 ....
 C-3|..|C-2 2F.A ....|C-3 2C.F ....|B-4 6F.A ....
 C-4|..|--- .... ....|C-2 2A.F ....|B-3 4F37 ....
....|..|C-2 2F.7 ....|E-3 3F27 ....|R-- .... ....
....|..|--- .... ....|G-3 3F67 ....|--- .... ....
 C-4|..|C-2 2A.F ....|E-3 3F2F ....|C-5 6F.F ....
....|..|--- .... ....|G-3 3F6F ....|R-- .... ....
....|..|C-2 2F.A ....|E-3 3F2A ....|B-4 6F.A ....
....|..|--- .... ....|G-3 3F6A ....|--- .... ....
....|..|C-2 2F.7 ....|B-4 6F.A ....|B-4 6F.7 ....
....|..|R-- .... ....|B-4 6F.F ....|B-4 6F.F ....
 C-3|..|C-1 2A.F ....|G-3 4F1F ....|G-3 4F1F ....
....|..|--- .... ....|B-3 3F.F ....|--- .... ....
 C-4|..|C-2 2F.A ....|C-2 2A.F ....|C-5 6F.A ....
....|..|--- .... ....|G-3 3F6A ....|R-- .... ....
....|..|C-2 2F.7 ....|B-4 6F.A ....|B-4 6F.7 ....
....|..|--- .... ....|R-- .... ....|R-- .... ....
 C-4|..|C-2 2A.F ....|G-3 4F1F ....|A-4 6F.F ....
....|..|R-- .... ....|G-3 3F6F ....|B-4 6F.A ....
....|..|C-1 2F.A ....|G-3 4F1A ....|G-3 4F1F ....
....|..|--- .... ....|B-3 3F.A ....|R-- .... ....
....|..|C-2 2F.7 ....|C-5 6F.A ....|C-5 6F.7 ....
....|..|--- .... ....|G-3 3F67 ....|R-- .... ....
 C-4|..|C-2 2A.F ....|A-3 4F2F ....|G-4 6F.F ....
....|..|--- .... ....|G-3 3F6F ....|A-3 4F2F ....
 C-3|..|C-2 2F.A ....|C-3 2C.F ....|A-4 6F.A ....
 C-4|..|R-- .... ....|C-2 2A.F ....|B-4 6F.7 ....
....|..|C-1 2F.7 ....|C-1 2F.A ....|G-3 4F1A ....
....|..|--- .... ....|B-3 3F.7 ....|R-- .... ....
 C-4|..|C-2 2A.F ....|E-3 3F2F ....|R-- .... ....
....|..|--- .... ....|G-3 3F6F ....|B-4 6F.F ....
 C-4|..|C-2 2F.A ....|C-2 2A.F ....|G-4 6F.A ....
....|..|--- .... ....|G-3 4F1F ....|G-3 4F1F ....
....|..|C-2 2F.7 ....|A-4 6F.A ....|A-4 6F.7 ....
....|..|R-- .... ....|B-3 4F3F ....|B-3 4F3F ....
 D-3|..|D-1 2A.F ....|F#3 3FFF ....|R-- .... ....
....|..|--- .... ....|D-5 6F.F ....|D-5 6F.F ....
....|..|C-2 2F.A ....|E-3 3F2A ....|R-- .... ....
....|..|--- .... ....|G-3 3F6A ....|B-4 6F.A ....
....|..|C-2 2F.7 ....|G-4 6F.A ....|G-4 6F.7 ....
....|..|--- .... ....|G-3 4F1A ....|G-3 4F1A ....
 D-4|..|D-2 2A.F ....|F#3 3FFF ....|R-- .... ....
....|..|R-- .... ....|F#3 3F3F ....|B-4 6F.F ....
....|..|D-1 2F.A ....|F#3 3FFA ....|B-3 4F3A ....
....|..|--- .... ....|R-- .... ....|D-5 6F.A ....
....|..|C-2 2F.7 ....|C-3 2F.7 ....|R-- .... ....
....|..|--- .... ....|B-4 6F.A ....|B-4 6F.7 ....
 D-4|..|D-2 2A.F ....|F#3 3FFF ....|R-- .... ....
....|..|--- .... ....|D-5 6F.F ....|D-5 6F.F ....
....|..|D-2 2F.A ....|F#3 3FFA ....|G-3 4F17 ....
....|..|R-- .... ....|F#3 3F3A ....|B-4 6F.A ....
....|..|D-1 2F.7 ....|D-1 2F.A ....|B-3 4F37 ....
....|..|--- .... ....|D-5 6F.A ....|D-5 6F.7 ....
 D-4|..|D-2 2A.F ....|F#3 3FFF ....|B-4 6F.F ....
....|..|--- .... ....|F#3 3F.F ....|R-- .... ....
....|..|D-2 2F.A ....|F#3 3FFA ....|--- .... ....
....|..|--- .... ....|R-- .... ....|D-5 6F.A ....
....|..|D-2 2F.7 ....|D-3 2F.7 ....|R-- .... ....
....|..|R-- .... ....|R-- .... ....|B-4 6F.7 ....
 C-3|..|C-1 2A.F ....|G-3 3F8F ....|--- .... ....
....|..|--- .... ....|B-3 3F4F ....|E-5 6F.F ....
....|..|D-2 2F.A ....|F#3 3FFA ....|B-4 6F.A ....
 C-3|..|--- .... ....|C-3 2C.F ....|--- .... ....
....|..|D-2 2F.7 ....|F#3 3FF7 ....|--- .... ....
....|..|--- .... ....|D-5 6F.A ....|D-5 6F.7 ....
 C-4|..|C-2 2A.F ....|G-3 3F8F ....|--- .... ....
....|..|R-- .... ....|R-- .... ....|--- .... ....
....|..|C-1 2F.A ....|G-3 3F8A ....|--- .... ....
....|..|--- .... ....|B-3 3F4A ....|E-5 6F.A ....
....|..|D-2 2F.7 ....|B-4 6F.A ....|B-4 6F.7 ....
....|..|--- .... ....|C-3 2F.A ....|--- .... ....
 C-4|..|C-2 2A.F ....|G-3 3F8F ....|--- .... ....
....|..|--- .... ....|G-3 3F6F ....|R-- .... ....
 C-3|..|C-2 2F.A ....|C-3 2C.F ....|--- .... ....
 C-4|..|R-- .... ....|C-2 2A.F ....|--- .... ....
....|..|C-1 2F.7 ....|C-1 2F.A ....|--- .... ....
....|..|--- .... ....|E-5 6F.A ....|E-5 6F.7 ....
 C-4|..|C-2 2A.F ....|G-3 3F8F ....|--- .... ....
....|..|--- .... ....|B-3 3F.F ....|--- .... ....
 C-4|..|C-2 2F.A ....|C-2 2A.F ....|--- .... ....
....|..|--- .... ....|G-3 3F6A ....|--- .... ....
....|..|C-2 2F.7 ....|G-3 3F87 ....|--- .... ....
....|..|--- .... ....|C-2 2F.A ....|--- .... ....
 C-4|..|C-2 2A.F ....|G-3 3F8F ....|--- .... ....
....|..|--- .... ....|G-3 3F6F ....|--- .... ....
 C-4|..|C-2 2F.A ....|C-2 2A.F ....|--- .... ....
....|..|--- .... ....|B-3 3F.A ....|--- .... ....
....|..|C-2 2F.7 ....|G-3 3F87 ....|--- .... ....
....|..|--- .... ....|G-3 3F67 ....|--- .... ....
 C-4|..|C-2 2A.F ....|G-3 3F8F ....|--- .... ....
....|..|--- .... ....|G-3 3F6F ....|--- .... ....
....|..|C-2 2F.A ....|G-3 3F8A ....|--- .... ....
....|..|--- .... ....|G-3 3F6A ....|--- .... ....
....|..|C-2 2F.7 ....|G-3 3F87 ....|--- .... ....
....|..|--- .... ....|B-3 3F.7 ....|--- .... ....
 C-4|..|C-2 2A.F ....|G-3 3F8F ....|--- .... ....
....|..|--- .... ....|G-3 3F6F ....|--- .... ....
 C-3|..|C-2 2F.A ....|C-3 2C.F ....|--- .... ....
 C-4|..|--- .... ....|C-2 2A.F ....|--- .... ....
....|..|C-2 2F.7 ....|G-3 3F87 ....|--- .... ....
....|..|--- .... ....|R-- .... ....|R-- .... ....
 C-4|..|C-2 2A.F ....|G-3 3F8F ....|D-5 6F.F ....
....|..|--- .... ....|G-3 3F6F ....|--- .... ....
....|..|C-2 2F.A ....|G-3 3F8A ....|--- .... ....
....|..|--- .... ....|G-3 3F6A ....|--- .... ....
....|..|C-2 2F.7 ....|G-3 3F87 ....|--- .... ....
....|..|R-- .... ....|C-2 2F.7 ....|--- .... ....
 D-3|..|D-1 2A.F ....|A-3 3FCF ....|--- .... ....
....|..|--- .... ....|--- .... ....|R-- .... ....
....|..|C-2 2F.A ....|G-3 3F8A ....|D-5 6F.A ....
....|..|--- .... ....|G-3 3F6A ....|--- .... ....
....|..|C-2 2F.7 ....|G-3 3F87 ....|--- .... ....
....|..|--- .... ....|G-3 3F67 ....|--- .... ....
 D-4|..|D-2 2A.F ....|A-3 3FCF ....|R-- .... ....
 A-3|..|R-- .... ....|A-2 2C.F ....|--- .... ....
....|..|D-1 2F.A ....|A-3 3FCA ....|--- .... ....
....|..|--- .... ....|R-- .... ....|R-- .... ....
....|..|C-2 2F.7 ....|D-5 6F.A ....|D-5 6F.7 ....
....|..|--- .... ....|G-3 3F67 ....|--- .... ....
 D-4|..|D-2 2A.F ....|A-3 3FCF ....|--- .... ....
....|..|--- .... ....|--- .... ....|--- .... ....
....|..|D-2 2F.A ....|A-3 3FCA ....|R-- .... ....
 D-4|..|R-- .... ....|D-2 2A.F ....|--- .... ....
....|..|D-1 2F.7 ....|D-1 2F.A ....|--- .... ....
....|..|--- .... ....|--- .... ....|--- .... ....
 D-4|..|D-2 2A.F ....|A-3 3FCF ....|--- .... ....
....|..|--- .... ....|B-4 6F.F ....|B-4 6F.F ....
 D-4|..|D-2 2F.A ....|D-2 2A.F ....|R-- .... ....
....|..|--- .... ....|--- .... ....|--- .... ....
....|..|D-2 2F.7 ....|D-3 2F.7 ....|R-- .... ....
....|..|--- .... ....|A-2 2F.7 ....|--- .... ....
 D-4|..|D-2 2A.F ....|A-3 3FCF ....|--- .... ....
....|..|--- .... ....|D-5 6F.F ....|D-5 6F.F ....
 D-4|..|D-2 2F.A ....|D-3 2C.F ....|--- .... ....
 D-4|..|--- .... ....|D-2 2A.F ....|B-4 6F.A ....
....|..|D-2 2F.7 ....|A-3 3FC7 ....|R-- .... ....
....|..|--- .... ....|--- .... ....|--- .... ....
 D-4|..|D-2 2A.F ....|A-3 3FCF ....|R-- .... ....
....|..|--- .... ....|A-3 3FEF ....|B-4 6F.F ....
....|..|D-2 2F.A ....|A-3 3FCA ....|--- .... ....
....|..|--- .... ....|R-- .... ....|D-5 6F.A ....
....|..|D-2 2F.7 ....|A-3 3FC7 ....|--- .... ....
....|..|--- .... ....|B-4 6F.A ....|B-4 6F.7 ....
 D-4|..|D-2 2A.F ....|A-3 3FCF ....|R-- .... ....
....|..|--- .... ....|D-5 6F.F ....|D-5 6F.F ....
....|..|D-2 2F.A ....|A-3 3FCA ....|R-- .... ....
 D-4|..|--- .... ....|D-2 2A.F ....|B-4 6F.A ....
....|..|D-2 2F.7 ....|A-3 3FC7 ....|--- .... ....
....|..|--- .... ....|D-5 6F.A ....|D-5 6F.7 ....
 D-4|..|D-2 2A.F ....|A-3 3FCF ....|B-4 6F.F ....
....|..|--- .... ....|F#4 3F.F ....|--- .... ....
 D-4|..|D-2 2F.A ....|D-2 2A.F ....|--- .... ....
....|..|--- .... ....|R-- .... ....|D-5 6F.A ....
....|..|D-2 2F.7 ....|D-3 2F.7 ....|R-- .... ....
....|..|R-- .... ....|D-2 2F.A ....|B-4 6F.7 ....

[Pattern15]
 E-3|..|E-1 2A.F ....|B-3 3FDF ....|--- .... ....
....|..|--- .... ....|E-5 6F.F ....|E-5 6F.F ....
 E-4|..|D-2 2F.A ....|E-2 2A.F ....|B-4 6F.A ....
....|..|--- .... ....|F#4 3F.A ....|--- .... ....
....|..|D-2 2F.7 ....|A-3 3FC7 ....|--- .... ....
....|..|--- .... ....|R-- .... ....|D-5 6F.7 ....
 E-4|..|E-2 2A.F ....|B-3 3FDF ....|--- .... ....
....|..|R-- .... ....|D-2 2F.7 ....|--- .... ....
....|..|E-1 2F.A ....|B-3 3FDA ....|--- .... ....
....|..|--- .... ....|D-5 6F.7 ....|E-5 6F.A ....
....|..|D-2 2F.7 ....|B-4 6F.A ....|B-4 6F.7 ....
....|..|--- .... ....|F#4 3F.7 ....|--- .... ....
 E-4|..|E-2 2A.F ....|B-3 3FDF ....|--- .... ....
....|..|--- .... ....|R-- .... ....|R-- .... ....
....|..|E-2 2F.A ....|B-3 3FDA ....|--- .... ....
....|..|R-- .... ....|R-- .... ....|--- .... ....
....|..|E-1 2F.7 ....|E-1 2F.A ....|--- .... ....
....|..|--- .... ....|E-5 6F.A ....|E-5 6F.7 ....
 E-4|..|E-2 2A.F ....|B-3 3FDF ....|--- .... ....
....|..|--- .... ....|--- .... ....|--- .... ....
....|..|E-2 2F.A ....|B-3 3FDA ....|--- .... ....
....|..|--- .... ....|D-5 6F.7 ....|--- .... ....
....|..|E-2 2F.7 ....|B-3 3FD7 ....|--- .... ....
....|..|--- .... ....|R-- .... ....|--- .... ....
 E-4|..|E-2 2A.F ....|B-3 3FDF ....|--- .... ....
....|..|--- .... ....|R-- .... ....|--- .... ....
....|..|E-2 2F.A ....|B-3 3FDA ....|--- .... ....
....|..|--- .... ....|R-- .... ....|--- .... ....
....|..|E-2 2F.7 ....|B-3 3FD7 ....|--- .... ....
....|..|--- .... ....|R-- .... ....|--- .... ....
 E-4|..|E-2 2A.F ....|B-3 3FDF ....|--- .... ....
....|..|--- .... ....|B-3 3F.F ....|--- .... ....
....|..|E-2 2F.A ....|B-3 3FDA ....|--- .... ....
....|..|--- .... ....|E-5 6F.7 ....|--- .... ....
....|..|E-2 2F.7 ....|B-3 3FD7 ....|--- .... ....
....|..|--- .... ....|R-- .... ....|--- .... ....
 E-4|..|E-2 2A.F ....|B-3 3FDF ....|--- .... ....
....|..|--- .... ....|--- .... ....|--- .... ....
....|..|E-2 2F.A ....|B-3 3FDA ....|--- .... ....
 E-4|..|--- .... ....|E-2 2A.F ....|--- .... ....
....|..|E-2 2F.7 ....|B-3 3FD7 ....|--- .... ....
....|..|--- .... ....|R-- .... ....|R-- .... ....
 E-4|..|E-2 2A.F ....|B-3 3FDF ....|D-5 6F.F ....
....|..|--- .... ....|R-- .... ....|--- .... ....
 E-4|..|E-2 2F.A ....|E-2 2A.F ....|--- .... ....
....|..|--- .... ....|--- .... ....|--- .... ....
....|..|E-2 2F.7 ....|B-3 3FD7 ....|--- .... ....
....|..|R-- .... ....|B-2 2F.7 ....|--- .... ....
 D-3|..|D-1 2A.F ....|A-3 3FCF ....|--- .... ....
....|..|--- .... ....|--- .... ....|R-- .... ....
 D-4|..|E-2 2F.A ....|D-2 2A.F ....|D-5 6F.A ....
....|..|--- .... ....|--- .... ....|--- .... ....
....|..|E-2 2F.7 ....|B-3 3FD7 ....|--- .... ....
....|..|--- .... ....|R-- .... ....|--- .... ....
 D-4|..|D-2 2A.F ....|A-3 3FCF ....|--- .... ....
....|..|R-- .... ....|E-2 2F.7 ....|--- .... ....
....|..|D-1 2F.A ....|A-3 3FCA ....|--- .... ....
....|..|--- .... ....|R-- .... ....|R-- .... ....
....|..|E-2 2F.7 ....|D-5 6F.A ....|D-5 6F.7 ....
....|..|--- .... ....|--- .... ....|--- .... ....
 D-4|..|D-2 2A.F ....|A-3 3FCF ....|--- .... ....
....|..|--- .... ....|R-- .... ....|--- .... ....
....|..|D-2 2F.A ....|A-3 3FCA ....|--- .... ....
....|..|R-- .... ....|R-- .... ....|--- .... ....
....|..|D-1 2F.7 ....|D-1 2F.A ....|--- .... ....
....|..|--- .... ....|--- .... ....|R-- .... ....
 D-4|..|D-2 2A.F ....|A-3 3FCF ....|--- .... ....
....|..|--- .... ....|B-4 6F.F ....|B-4 6F.F ....
....|..|D-2 2F.A ....|D-3 2F.A ....|R-- .... ....
....|..|--- .... ....|R-- .... ....|--- .... ....
....|..|D-2 2F.7 ....|A-3 3FC7 ....|--- .... ....
....|..|--- .... ....|R-- .... ....|--- .... ....
 D-4|..|D-2 2A.F ....|A-3 3FCF ....|--- .... ....
....|..|--- .... ....|D-5 6F.F ....|D-5 6F.F ....
....|..|D-2 2F.A ....|A-3 3FCA ....|--- .... ....
....|..|--- .... ....|R-- .... ....|B-4 6F.A ....
....|..|D-2 2F.7 ....|A-3 3FC7 ....|R-- .... ....
....|..|--- .... ....|--- .... ....|--- .... ....
 D-4|..|D-2 2A.F ....|A-3 3FCF ....|R-- .... ....
....|..|--- .... ....|A-3 3FEF ....|B-4 6F.F ....
....|..|D-2 2F.A ....|A-3 3FCA ....|--- .... ....
....|..|--- .... ....|R-- .... ....|D-5 6F.A ....
....|..|D-2 2F.7 ....|A-3 3FC7 ....|--- .... ....
....|..|--- .... ....|B-4 6F.A ....|B-4 6F.7 ....
 D-4|..|D-2 2A.F ....|A-3 3FCF ....|R-- .... ....
....|..|--- .... ....|D-5 6F.F ....|D-5 6F.F ....
....|..|D-2 2F.A ....|A-3 3FCA ....|R-- .... ....
 D-4|..|--- .... ....|D-2 2A.F ....|B-4 6F.A ....
....|..|D-2 2F.7 ....|A-3 3FC7 ....|--- .... ....
....|..|--- .... ....|D-5 6F.A ....|D-5 6F.7 ....
 D-4|..|D-2 2A.F ....|A-3 3FCF ....|B-4 6F.F ....
....|..|--- .... ....|F#4 3F.F ....|--- .... ....
 D-4|..|D-2 2F.A ....|D-2 2A.F ....|--- .... ....
....|..|--- .... ....|R-- .... ....|D-5 6F.A ....
....|..|D-2 2F.7 ....|D-3 2F.7 ....|R-- .... ....
....|..|R-- .... ....|A-2 2F.7 ....|B-4 6F.7 ....
 C-3|..|C-1 2A.F ....|G-3 3F8F ....|E-5 6F.F ....
....|..|--- .... ....|B-3 3F4F ....|R-- .... ....
 C-4|..|D-2 2F.A ....|C-2 2A.F ....|B-4 6F.A ....
....|..|--- .... ....|F#4 3F.A ....|--- .... ....
....|..|D-2 2F.7 ....|A-3 3FC7 ....|--- .... ....
....|..|--- .... ....|R-- .... ....|D-5 6F.7 ....
 C-4|..|C-2 2A.F ....|G-3 3F8F ....|--- .... ....
....|..|R-- .... ....|D-2 2F.7 ....|--- .... ....
....|..|C-1 2F.A ....|G-3 3F8A ....|E-5 6F.A ....
....|..|--- .... ....|B-3 3F4A ....|R-- .... ....
....|..|D-2 2F.7 ....|B-4 6F.A ....|B-4 6F.7 ....
....|..|--- .... ....|F#4 3F.7 ....|--- .... ....
 C-4|..|C-2 2A.F ....|G-3 3F8F ....|--- .... ....
....|..|--- .... ....|G-3 3F6F ....|R-- .... ....
....|..|C-2 2F.A ....|G-3 3F8A ....|--- .... ....
....|..|R-- .... ....|R-- .... ....|--- .... ....
....|..|C-1 2F.7 ....|E-5 6F.A ....|E-5 6F.7 ....
....|..|--- .... ....|B-3 3F47 ....|--- .... ....
 C-4|..|C-2 2A.F ....|G-3 3F8F ....|--- .... ....
....|..|--- .... ....|B-3 3F.F ....|--- .... ....
....|..|C-2 2F.A ....|G-3 3F8A ....|--- .... ....
....|..|--- .... ....|G-3 3F6A ....|--- .... ....
....|..|C-2 2F.7 ....|G-3 3F87 ....|--- .... ....
....|..|--- .... ....|R-- .... ....|--- .... ....
 C-4|..|C-2 2A.F ....|G-3 3F8F ....|--- .... ....
....|..|--- .... ....|G-3 3F6F ....|--- .... ....
....|..|C-2 2F.A ....|G-3 3F8A ....|--- .... ....
....|..|--- .... ....|R-- .... ....|--- .... ....
....|..|C-2 2F.7 ....|C-3 2F.7 ....|R-- .... ....
....|..|--- .... ....|G-3 3F67 ....|--- .... ....
 C-4|..|C-2 2A.F ....|G-3 3F8F ....|E-5 6F.F ....
....|..|--- .... ....|G-3 3F6F ....|--- .... ....
....|..|C-2 2F.A ....|G-3 3F8A ....|--- .... ....
....|..|--- .... ....|G-3 3F6A ....|--- .... ....
....|..|C-2 2F.7 ....|G-3 3F87 ....|--- .... ....
....|..|--- .... ....|R-- .... ....|R-- .... ....
 C-4|..|C-2 2A.F ....|G-3 3F8F ....|R-- .... ....
....|..|--- .... ....|G-3 3F6F ....|E-5 6F.F ....
....|..|C-2 2F.A ....|G-3 3F8A ....|E-5 6F.A ....
 C-4|..|--- .... ....|C-2 2A.F ....|--- .... ....
....|..|C-2 2F.7 ....|G-3 3F87 ....|--- .... ....
....|..|--- .... ....|R-- .... ....|R-- .... ....
 C-4|..|C-2 2A.F ....|G-3 3F8F ....|D-5 6F.F ....
....|..|--- .... ....|G-3 3F6F ....|R-- .... ....
 C-4|..|C-2 2F.A ....|C-2 2A.F ....|R-- .... ....
....|..|--- .... ....|G-3 3F6A ....|E-5 6F.A ....
....|..|C-2 2F.7 ....|E-5 6F.A ....|E-5 6F.7 ....
....|..|R-- .... ....|G-2 2F.7 ....|--- .... ....
 C-3|..|C-1 2A.F ....|G-3 3F8F ....|--- .... ....
....|..|--- .... ....|B-3 3F4F ....|R-- .... ....
 C-4|..|C-2 2F.A ....|C-2 2A.F ....|D-5 6F.A ....
....|..|--- .... ....|G-3 3F6A ....|R-- .... ....
....|..|C-2 2F.7 ....|G-3 3F87 ....|--- .... ....
....|..|--- .... ....|R-- .... ....|E-5 6F.7 ....
 C-4|..|C-2 2A.F ....|G-3 3F8F ....|--- .... ....
....|..|R-- .... ....|C-2 2F.7 ....|--- .... ....
....|..|C-1 2F.A ....|G-3 3F8A ....|--- .... ....
....|..|--- .... ....|B-3 3F4A ....|R-- .... ....
....|..|C-2 2F.7 ....|D-5 6F.A ....|D-5 6F.7 ....
....|..|--- .... ....|G-3 3F67 ....|--- .... ....
 C-4|..|C-2 2A.F ....|G-3 3F8F ....|--- .... ....
....|..|--- .... ....|G-3 3F6F ....|R-- .... ....
....|..|C-2 2F.A ....|G-3 3F8A ....|--- .... ....
....|..|R-- .... ....|R-- .... ....|--- .... ....
....|..|C-1 2F.7 ....|C-1 2F.A ....|--- .... ....
....|..|--- .... ....|B-3 3F47 ....|--- .... ....
 C-4|..|C-2 2A.F ....|G-3 3F8F ....|--- .... ....
....|..|--- .... ....|B-3 3F.F ....|--- .... ....
....|..|C-2 2F.A ....|G-3 3F8A ....|--- .... ....
....|..|--- .... ....|G-3 3F6A ....|R-- .... ....
....|..|C-2 2F.7 ....|G-3 3F87 ....|--- .... ....
....|..|--- .... ....|R-- .... ....|--- .... ....
 C-4|..|C-2 2A.F ....|G-3 3F8F ....|--- .... ....
....|..|--- .... ....|G-3 3F6F ....|--- .... ....
....|..|C-2 2F.A ....|G-3 3F8A ....|--- .... ....
....|..|--- .... ....|R-- .... ....|--- .... ....
....|..|C-2 2F.7 ....|G-3 3F87 ....|--- .... ....
....|..|--- .... ....|R-- .... ....|R-- .... ....
 C-4|..|C-2 2A.F ....|G-3 3F8F ....|B-4 6F.F ....
....|..|--- .... ....|G-3 3F6F ....|--- .... ....
....|..|C-2 2F.A ....|G-3 3F8A ....|--- .... ....
....|..|--- .... ....|G-3 3F6A ....|--- .... ....
....|..|C-2 2F.7 ....|C-3 2F.7 ....|R-- .... ....
....|..|--- .... ....|R-- .... ....|--- .... ....
 C-4|..|C-2 2A.F ....|G-3 3F8F ....|B-4 6F.F ....
....|..|--- .... ....|G-3 3F6F ....|--- .... ....
....|..|C-2 2F.A ....|G-3 3F8A ....|B-4 6F.A ....
 C-4|..|--- .... ....|C-2 2A.F ....|--- .... ....
....|..|C-2 2F.7 ....|C-3 2F.7 ....|R-- .... ....
....|..|--- .... ....|G-3 3F67 ....|--- .... ....
 C-4|..|C-2 2A.F ....|G-3 3F8F ....|C-5 6F.F ....
....|..|--- .... ....|G-3 3F6F ....|--- .... ....
 C-4|..|C-2 2F.A ....|C-2 2A.F ....|B-4 6F.A ....
....|..|--- .... ....|G-3 3F6A ....|--- .... ....
....|..|C-2 2F.7 ....|B-4 6F.A ....|B-4 6F.7 ....
....|..|R-- .... ....|G-2 2F.7 ....|--- .... ....

[Pattern16]
 D-3|..|D-1 2A.F ....|A-3 3FCF ....|R-- .... ....
....|..|--- .... ....|--- .... ....|--- .... ....
....|..|C-2 2F.A ....|G-3 3F8A ....|C-5 6F.A ....
 D-4|..|--- .... ....|D-3 2C.F ....|R-- .... ....
....|..|C-2 2F.7 ....|B-4 6F.A ....|B-4 6F.7 ....
....|..|--- .... ....|G-3 3F67 ....|--- .... ....
 D-4|..|D-2 2A.F ....|A-3 3FCF ....|C-5 6F.F ....
 D-4|..|R-- .... ....|D-3 2C.F ....|--- .... ....
....|..|D-1 2F.A ....|A-3 3FCA ....|R-- .... ....
....|..|--- .... ....|R-- .... ....|R-- .... ....
....|..|C-2 2F.7 ....|C-5 6F.A ....|C-5 6F.7 ....
....|..|--- .... ....|D-3 2F.A ....|R-- .... ....
 D-4|..|D-2 2A.F ....|A-3 3FCF ....|--- .... ....
....|..|--- .... ....|--- .... ....|--- .... ....
....|..|D-2 2F.A ....|A-3 3FCA ....|C-5 6F.A ....
....|..|R-- .... ....|D-3 2F.A ....|--- .... ....
....|..|D-1 2F.7 ....|D-1 2F.A ....|--- .... ....
....|..|--- .... ....|--- .... ....|R-- .... ....
 D-4|..|D-2 2A.F ....|A-3 3FCF ....|--- .... ....
....|..|--- .... ....|D-3 2F.7 ....|R-- .... ....
....|..|D-2 2F.A ....|A-3 3FCA ....|--- .... ....
....|..|--- .... ....|--- .... ....|--- .... ....
....|..|D-2 2F.7 ....|C-5 6F.A ....|C-5 6F.7 ....
....|..|--- .... ....|D-3 2F.7 ....|--- .... ....
 D-4|..|D-2 2A.F ....|A-3 3FCF ....|--- .... ....
....|..|--- .... ....|R-- .... ....|R-- .... ....
....|..|D-2 2F.A ....|A-3 3FCA ....|--- .... ....
....|..|--- .... ....|--- .... ....|--- .... ....
....|..|D-2 2F.7 ....|A-3 3FC7 ....|--- .... ....
....|..|--- .... ....|--- .... ....|--- .... ....
 D-4|..|D-2 2A.F ....|A-3 3FCF ....|B-4 6F.F ....
....|..|--- .... ....|A-3 3FEF ....|--- .... ....
....|..|D-2 2F.A ....|A-3 3FCA ....|--- .... ....
....|..|--- .... ....|R-- .... ....|--- .... ....
....|..|D-2 2F.7 ....|F#3 2F.7 ....|R-- .... ....
....|..|--- .... ....|R-- .... ....|--- .... ....
 D-4|..|D-2 2A.F ....|A-3 3FCF ....|B-4 6F.F ....
....|..|--- .... ....|--- .... ....|--- .... ....
....|..|D-2 2F.A ....|A-3 3FCA ....|B-4 6F.A ....
....|..|--- .... ....|A-3 3FEA ....|--- .... ....
....|..|D-2 2F.7 ....|F#3 2F.7 ....|R-- .... ....
....|..|--- .... ....|R-- .... ....|--- .... ....
 D-4|..|D-2 2A.F ....|A-3 3FCF ....|C-5 6F.F ....
....|..|--- .... ....|F#4 3F.F ....|--- .... ....
....|..|D-2 2F.A ....|A-3 3FCA ....|B-4 6F.A ....
....|..|--- .... ....|--- .... ....|--- .... ....
....|..|D-2 2F.7 ....|B-4 6F.A ....|B-4 6F.7 ....
....|..|R-- .... ....|R-- .... ....|--- .... ....
 D-3|..|D-1 2A.F ....|A-3 3FCF ....|R-- .... ....
....|..|--- .... ....|R-- .... ....|--- .... ....
....|..|D-2 2F.A ....|A-3 3FCA ....|C-5 6F.A ....
....|..|--- .... ....|R-- .... ....|R-- .... ....
....|..|D-2 2F.7 ....|B-4 6F.A ....|B-4 6F.7 ....
....|..|--- .... ....|--- .... ....|--- .... ....
 D-4|..|D-2 2A.F ....|A-3 3FCF ....|C-5 6F.F ....
 D-4|..|R-- .... ....|D-4 2C.F ....|--- .... ....
....|..|D-1 2F.A ....|A-3 3FCA ....|R-- .... ....
....|..|--- .... ....|R-- .... ....|R-- .... ....
....|..|D-2 2F.7 ....|C-5 6F.A ....|C-5 6F.7 ....
....|..|--- .... ....|F#4 3F.7 ....|R-- .... ....
 D-4|..|D-2 2A.F ....|A-3 3FCF ....|--- .... ....
....|..|--- .... ....|R-- .... ....|--- .... ....
....|..|D-2 2F.A ....|A-3 3FCA ....|C-5 6F.A ....
....|..|R-- .... ....|D-4 2F.A ....|--- .... ....
....|..|D-1 2F.7 ....|D-1 2F.A ....|--- .... ....
....|..|--- .... ....|R-- .... ....|R-- .... ....
 D-4|..|D-2 2A.F ....|A-3 3FCF ....|--- .... ....
....|..|--- .... ....|R-- .... ....|R-- .... ....
....|..|D-2 2F.A ....|A-3 3FCA ....|--- .... ....
....|..|--- .... ....|R-- .... ....|--- .... ....
....|..|D-2 2F.7 ....|C-5 6F.A ....|C-5 6F.7 ....
....|..|--- .... ....|D-4 2F.7 ....|--- .... ....
 D-4|..|D-2 2A.F ....|A-3 3FCF ....|--- .... ....
....|..|--- .... ....|R-- .... ....|R-- .... ....
....|..|D-2 2F.A ....|A-3 3FCA ....|--- .... ....
....|..|--- .... ....|R-- .... ....|--- .... ....
....|..|D-2 2F.7 ....|A-3 3FC7 ....|--- .... ....
....|..|--- .... ....|R-- .... ....|--- .... ....
 D-4|..|D-2 2A.F ....|A-3 3FCF ....|--- .... ....
....|..|--- .... ....|A-3 3FEF ....|--- .... ....
....|..|D-2 2F.A ....|A-3 3FCA ....|--- .... ....
....|..|--- .... ....|--- .... ....|--- .... ....
....|..|D-2 2F.7 ....|A-3 3FC7 ....|--- .... ....
....|..|--- .... ....|R-- .... ....|--- .... ....
 D-4|..|D-2 2A.F ....|A-3 3FCF ....|--- .... ....
....|..|--- .... ....|--- .... ....|--- .... ....
....|..|D-2 2F.A ....|A-3 3FCA ....|--- .... ....
 D-4|..|--- .... ....|D-4 2C.F ....|--- .... ....
....|..|D-2 2F.7 ....|R-- .... ....|--- .... ....
....|..|--- .... ....|R-- .... ....|--- .... ....
 D-4|..|D-2 2A.F ....|A-3 3FCF ....|--- .... ....
....|..|--- .... ....|F#4 3F.F ....|--- .... ....
 F#4|..|D-2 2F.A ....|F#3 2C.F ....|--- .... ....
....|..|--- .... ....|R-- .... ....|--- .... ....
....|..|D-2 2F.7 ....|A-3 3FC7 ....|--- .... ....
....|..|R-- .... ....|D-4 2F.A ....|--- .... ....
....|..|R-- .... ....|A-4 6F.F ....|A-4 6F.F ....
....|..|--- .... ....|--- .... ....|--- .... ....
....|..|D-2 2F.A ....|A-3 3FCA ....|--- .... ....
....|..|--- .... ....|F#4 3F.A ....|--- .... ....
....|..|D-2 2F.7 ....|F#3 2F.A ....|--- .... ....
....|..|--- .... ....|R-- .... ....|--- .... ....
....|..|--- .... ....|R-- .... ....|--- .... ....
....|..|R-- .... ....|D-4 2F.7 ....|--- .... ....
....|..|R-- .... ....|R-- .... ....|A-4 6F.A ....
....|..|--- .... ....|--- .... ....|--- .... ....
....|..|D-2 2F.7 ....|D-4 2F.7 ....|R-- .... ....
....|..|--- .... ....|F#4 3F.7 ....|--- .... ....
....|..|--- .... ....|A-4 6F.F ....|A-4 6F.F ....
....|..|--- .... ....|R-- .... ....|--- .... ....
....|..|--- .... ....|--- .... ....|--- .... ....
....|..|R-- .... ....|R-- .... ....|--- .... ....
....|..|R-- .... ....|A-4 6F.A ....|A-4 6F.7 ....
....|..|--- .... ....|--- .... ....|--- .... ....
....|..|--- .... ....|--- .... ....|R-- .... ....
....|..|--- .... ....|--- .... ....|--- .... ....
....|..|--- .... ....|--- .... ....|A-4 6F.A ....
....|..|--- .... ....|--- .... ....|--- .... ....
....|..|--- .... ....|--- .... ....|--- .... ....
....|..|--- .... ....|--- .... ....|--- .... ....
....|..|--- .... ....|--- .... ....|--- .... ....
....|..|--- .... ....|A-4 6F.F ....|A-4 6F.F ....
....|..|--- .... ....|R-- .... ....|R-- .... ....
....|..|--- .... ....|R-- .... ....|R-- .... ....
....|..|--- .... ....|G-4 6F.F ....|G-4 6F.F ....
....|..|--- .... ....|--- .... ....|--- .... ....
....|..|--- .... ....|R-- .... ....|R-- .... ....
....|..|--- .... ....|E-4 6F.F ....|E-4 6F.F ....
....|..|--- .... ....|A-4 6F.7 ....|--- .... ....
....|..|--- .... ....|--- .... ....|A-4 6F.A ....
....|..|--- .... ....|--- .... ....|--- .... ....
....|..|--- .... ....|--- .... ....|R-- .... ....
....|..|--- .... ....|--- .... ....|G-4 6F.A ....
....|..|--- .... ....|--- .... ....|--- .... ....
....|..|--- .... ....|--- .... ....|R-- .... ....
....|..|--- .... ....|--- .... ....|E-4 6F.A ....
....|..|--- .... ....|--- .... ....|--- .... ....
....|..|--- .... ....|A-4 6F.A ....|A-4 6F.7 ....
....|..|--- .... ....|R-- .... ....|--- .... ....
....|..|--- .... ....|R-- .... ....|R-- .... ....
....|..|--- .... ....|A-4 6F.7 ....|G-4 6F.7 ....
....|..|--- .... ....|--- .... ....|--- .... ....
....|..|--- .... ....|R-- .... ....|R-- .... ....
....|..|--- .... ....|E-4 6F.A ....|E-4 6F.7 ....
....|..|--- .... ....|B-4 6F.F ....|B-4 6F.F ....
....|..|--- .... ....|--- .... ....|--- .... ....
....|..|--- .... ....|--- .... ....|--- .... ....
....|..|--- .... ....|--- .... ....|R-- .... ....
....|..|--- .... ....|R-- .... ....|R-- .... ....
....|..|--- .... ....|--- .... ....|--- .... ....
....|..|--- .... ....|B-4 6F.F ....|B-4 6F.F ....
....|..|--- .... ....|--- .... ....|--- .... ....
....|..|--- .... ....|--- .... ....|B-4 6F.A ....
....|..|--- .... ....|A-4 6F.7 ....|--- .... ....
....|..|--- .... ....|--- .... ....|--- .... ....
....|..|--- .... ....|R-- .... ....|R-- .... ....
....|..|--- .... ....|A-4 6F.F ....|A-4 6F.F ....
....|..|--- .... ....|--- .... ....|--- .... ....
....|..|--- .... ....|R-- .... ....|B-4 6F.A ....
....|..|--- .... ....|E-4 6F.7 ....|--- .... ....
....|..|--- .... ....|B-4 6F.A ....|B-4 6F.7 ....
....|..|--- .... ....|A-4 6F.F ....|A-4 6F.F ....
....|..|--- .... ....|G-4 6F.F ....|G-4 6F.F ....
....|..|--- .... ....|--- .... ....|R-- .... ....
....|..|--- .... ....|R-- .... ....|A-4 6F.A ....
....|..|--- .... ....|--- .... ....|--- .... ....
....|..|--- .... ....|B-4 6F.A ....|B-4 6F.7 ....
....|..|--- .... ....|E-4 6F.F ....|E-4 6F.F ....
....|..|--- .... ....|--- .... ....|--- .... ....
....|..|--- .... ....|--- .... ....|A-4 6F.A ....
....|..|--- .... ....|--- .... ....|G-4 6F.A ....
....|..|--- .... ....|R-- .... ....|R-- .... ....
....|..|--- .... ....|A-4 6F.A ....|A-4 6F.7 ....
....|..|--- .... ....|--- .... ....|--- .... ....
....|..|--- .... ....|B-2 4F.F ....|B-2 4F.F ....
....|..|--- .... ....|--- .... ....|E-4 6F.A ....
....|..|--- .... ....|B-4 6F.7 ....|--- .... ....
....|..|--- .... ....|A-4 6F.A ....|A-4 6F.7 ....
....|..|--- .... ....|G-4 6F.A ....|G-4 6F.7 ....
....|..|--- .... ....|R-- .... ....|R-- .... ....
....|..|--- .... ....|D-3 4F.F ....|D-3 4F.F ....
....|..|--- .... ....|--- .... ....|--- .... ....
....|..|--- .... ....|B-2 4F.A ....|B-2 4F.A ....
....|..|--- .... ....|E-3 4F.F ....|E-3 4F.F ....
....|..|--- .... ....|--- .... ....|--- .... ....
....|..|--- .... ....|--- .... ....|R-- .... ....
....|..|--- .... ....|--- .... ....|--- .... ....
....|..|--- .... ....|R-- .... ....|R-- .... ....
....|..|--- .... ....|D-3 4F.A ....|D-3 4F.A ....
....|..|--- .... ....|R-- .... ....|R-- .... ....
....|..|--- .... ....|B-2 4F.7 ....|B-2 4F.7 ....
....|..|--- .... ....|E-3 4F.A ....|E-3 4F.A ....

[Pattern17]
....|..|--- .... ....|D-3 4F4F ....|A-4 6F.F ....
....|..|--- .... ....|A-4 6F.7 ....|D-3 4F4F ....
....|..|--- .... ....|G-4 6F.7 ....|--- .... ....
....|..|--- .... ....|R-- .... ....|R-- .... ....
....|..|--- .... ....|D-3 4F.7 ....|D-3 4F.7 ....
....|..|--- .... ....|R-- .... ....|R-- .... ....
....|..|--- .... ....|--- .... ....|--- .... ....
....|..|--- .... ....|E-3 4F.7 ....|E-3 4F.7 ....
....|..|--- .... ....|D-3 4F4A ....|A-4 6F.A ....
....|..|--- .... ....|R-- .... ....|D-3 4F4A ....
....|..|--- .... ....|D-5 6F.F ....|D-5 6F.F ....
....|..|--- .... ....|--- .... ....|--- .... ....
....|..|--- .... ....|--- .... ....|--- .... ....
....|..|--- .... ....|R-- .... ....|R-- .... ....
....|..|--- .... ....|--- .... ....|--- .... ....
....|..|--- .... ....|--- .... ....|--- .... ....
....|..|--- .... ....|A-4 6F.A ....|A-4 6F.7 ....
....|..|--- .... ....|D-3 4F.F ....|D-3 4F.F ....
....|..|--- .... ....|R-- .... ....|R-- .... ....
....|..|--- .... ....|B-4 6F.F ....|B-4 6F.F ....
....|..|--- .... ....|--- .... ....|--- .... ....
....|..|--- .... ....|--- .... ....|--- .... ....
....|..|--- .... ....|--- .... ....|--- .... ....
....|..|--- .... ....|--- .... ....|--- .... ....
....|..|--- .... ....|R-- .... ....|R-- .... ....
....|..|--- .... ....|A-4 6F.F ....|A-4 6F.F ....
....|..|--- .... ....|D-5 6F.A ....|R-- .... ....
....|..|--- .... ....|--- .... ....|B-4 6F.A ....
....|..|--- .... ....|--- .... ....|D-3 4F.A ....
....|..|--- .... ....|R-- .... ....|R-- .... ....
....|..|--- .... ....|G-4 6F.F ....|G-4 6F.F ....
....|..|--- .... ....|--- .... ....|--- .... ....
....|..|--- .... ....|A-4 6F.7 ....|R-- .... ....
....|..|--- .... ....|R-- .... ....|A-4 6F.A ....
....|..|--- .... ....|R-- .... ....|D-3 4F.7 ....
....|..|--- .... ....|B-4 6F.A ....|B-4 6F.7 ....
....|..|--- .... ....|E-4 6F.F ....|E-4 6F.F ....
....|..|--- .... ....|--- .... ....|R-- .... ....
....|..|--- .... ....|--- .... ....|G-4 6F.A ....
....|..|--- .... ....|R-- .... ....|R-- .... ....
....|..|--- .... ....|R-- .... ....|R-- .... ....
....|..|--- .... ....|A-4 6F.A ....|A-4 6F.7 ....
....|..|--- .... ....|E-4 6F.F ....|E-4 6F.F ....
....|..|--- .... ....|--- .... ....|R-- .... ....
....|..|--- .... ....|--- .... ....|E-4 6F.A ....
....|..|--- .... ....|R-- .... ....|R-- .... ....
....|..|--- .... ....|G-4 6F.A ....|G-4 6F.7 ....
....|..|--- .... ....|--- .... ....|R-- .... ....
....|..|--- .... ....|G-4 6F.F ....|G-4 6F.F ....
....|..|--- .... ....|R-- .... ....|R-- .... ....
....|..|--- .... ....|--- .... ....|E-4 6F.A ....
....|..|--- .... ....|G-4 6F.F ....|G-4 6F.F ....
....|..|--- .... ....|E-4 6F.A ....|E-4 6F.7 ....
....|..|--- .... ....|--- .... ....|--- .... ....
....|..|--- .... ....|R-- .... ....|D-4 UF.F ....
....|..|--- .... ....|R-- .... ....|R-- .... ....
....|..|--- .... ....|R-- .... ....|G-4 6F.A ....
....|..|--- .... ....|G-4 6F.F ....|G-4 6F.F ....
....|..|--- .... ....|E-4 6F.A ....|E-4 6F.7 ....
....|..|--- .... ....|R-- .... ....|G-4 6F.A ....
....|..|--- .... ....|A-4 6F.F ....|A-4 6F.F ....
....|..|--- .... ....|R-- .... ....|--- .... ....
....|..|--- .... ....|G-4 6F.7 ....|D-4 UF.A ....
....|..|--- .... ....|R-- .... ....|R-- .... ....
....|..|--- .... ....|G-4 6F.A ....|G-4 6F.7 ....
....|..|--- .... ....|R-- .... ....|G-4 6F.A ....
....|..|--- .... ....|B-4 6F.F ....|B-4 6F.F ....
....|..|--- .... ....|G-4 6F.A ....|G-4 6F.7 ....
....|..|--- .... ....|E-4 6F.7 ....|A-4 6F.A ....
....|..|--- .... ....|--- .... ....|--- .... ....
....|..|--- .... ....|R-- .... ....|D-4 UF.7 ....
....|..|--- .... ....|R-- .... ....|R-- .... ....
....|..|--- .... ....|D-3 3F.F ....|--- .... ....
....|..|--- .... ....|B-4 6F.F ....|B-4 6F.F ....
....|..|--- .... ....|E-4 6F.7 ....|B-4 6F.A ....
....|..|--- .... ....|R-- .... ....|R-- .... ....
....|..|--- .... ....|A-4 6F.A ....|R-- .... ....
....|..|--- .... ....|--- .... ....|--- .... ....
....|..|--- .... ....|E-3 3F.F ....|D-4 UF.F ....
....|..|--- .... ....|R-- .... ....|R-- .... ....
....|..|--- .... ....|D-3 3F.A ....|--- .... ....
....|..|--- .... ....|R-- .... ....|B-4 6F.A ....
....|..|--- .... ....|B-4 6F.A ....|R-- .... ....
....|..|--- .... ....|G-4 6F.7 ....|--- .... ....
....|..|--- .... ....|D-3 3F.F ....|D-4 UF.F ....
....|..|--- .... ....|D-3 3F.F ....|--- .... ....
....|..|--- .... ....|E-3 3F.A ....|D-4 UF.A ....
....|..|--- .... ....|--- .... ....|--- .... ....
....|..|--- .... ....|D-3 3F.7 ....|D-4 UF.F ....
....|..|--- .... ....|G-4 6F.7 ....|R-- .... ....
....|..|--- .... ....|D-3 3F.F ....|A-3 UF.F ....
....|..|--- .... ....|R-- .... ....|A-3 UF.F ....
....|..|--- .... ....|D-3 3F.A ....|D-4 UF.A ....
....|..|--- .... ....|D-3 3F.A ....|--- .... ....
....|..|--- .... ....|E-3 3F.7 ....|D-4 UF.7 ....
....|..|--- .... ....|E-3 3F.F ....|--- .... ....
 E-3|..|E-1 2A.F ....|A-4 6F.F ....|A-4 6F.F ....
....|..|R-- .... ....|R-- .... ....|R-- .... ....
....|..|--- .... ....|D-3 3F.A ....|A-3 UF.A ....
....|..|--- .... ....|--- .... ....|A-3 UF.A ....
....|..|--- .... ....|D-3 3F.7 ....|D-4 UF.7 ....
....|..|--- .... ....|D-3 3F.7 ....|--- .... ....
 B-4|..|B-2 2A.F ....|B-2 2A.F ....|R-- .... ....
....|..|R-- .... ....|R-- .... ....|--- .... ....
....|..|E-1 2F.A ....|B-2 2F.A ....|A-4 6F.A ....
....|..|R-- .... ....|R-- .... ....|R-- .... ....
....|..|--- .... ....|R-- .... ....|A-3 UF.7 ....
....|..|--- .... ....|--- .... ....|A-3 UF.7 ....
 B-4|..|B-2 2A.F ....|A-4 6F.F ....|A-4 6F.F ....
....|..|R-- .... ....|R-- .... ....|--- .... ....
....|..|B-2 2F.A ....|B-2 2F.A ....|R-- .... ....
....|..|R-- .... ....|R-- .... ....|--- .... ....
....|..|E-1 2F.7 ....|A-4 6F.A ....|A-4 6F.7 ....
....|..|R-- .... ....|R-- .... ....|--- .... ....
 B-4|..|B-2 2A.F ....|B-2 2A.F ....|R-- .... ....
....|..|R-- .... ....|R-- .... ....|--- .... ....
....|..|B-2 2F.A ....|B-2 2F.A ....|A-4 6F.A ....
....|..|R-- .... ....|R-- .... ....|--- .... ....
....|..|B-2 2F.7 ....|B-2 2F.7 ....|--- .... ....
....|..|R-- .... ....|R-- .... ....|--- .... ....
 B-4|..|B-2 2A.F ....|B-2 2A.F ....|--- .... ....
....|..|R-- .... ....|A-4 6F.F ....|A-4 6F.F ....
....|..|B-2 2F.A ....|B-2 2F.A ....|R-- .... ....
....|..|R-- .... ....|R-- .... ....|R-- .... ....
....|..|B-2 2F.7 ....|G-4 6F.F ....|G-4 6F.F ....
....|..|R-- .... ....|R-- .... ....|--- .... ....
 B-4|..|B-2 2A.F ....|B-2 2A.F ....|R-- .... ....
....|..|R-- .... ....|E-4 6F.F ....|E-4 6F.F ....
....|..|B-2 2F.A ....|B-2 2F.A ....|--- .... ....
....|..|R-- .... ....|R-- .... ....|A-4 6F.A ....
....|..|B-2 2F.7 ....|B-2 2F.7 ....|--- .... ....
....|..|R-- .... ....|R-- .... ....|R-- .... ....
 B-4|..|B-2 2A.F ....|B-2 2A.F ....|G-4 6F.A ....
....|..|R-- .... ....|R-- .... ....|--- .... ....
....|..|B-2 2F.A ....|B-2 2F.A ....|R-- .... ....
....|..|R-- .... ....|R-- .... ....|E-4 6F.A ....
....|..|B-2 2F.7 ....|B-2 2F.7 ....|--- .... ....
....|..|R-- .... ....|A-4 6F.A ....|A-4 6F.7 ....
 B-4|..|B-2 2A.F ....|B-2 2A.F ....|--- .... ....
....|..|R-- .... ....|R-- .... ....|R-- .... ....
....|..|B-2 2F.A ....|B-2 2F.A ....|G-4 6F.7 ....
....|..|R-- .... ....|R-- .... ....|--- .... ....
....|..|B-2 2F.7 ....|B-2 2F.7 ....|R-- .... ....
....|..|R-- .... ....|E-4 6F.A ....|E-4 6F.7 ....
 B-4|..|B-2 2A.F ....|B-4 6F.F ....|B-4 6F.F ....
....|..|R-- .... ....|R-- .... ....|--- .... ....
....|..|B-2 2F.A ....|B-2 2F.A ....|--- .... ....
....|..|R-- .... ....|R-- .... ....|R-- .... ....
....|..|B-2 2F.7 ....|B-2 2F.7 ....|R-- .... ....
....|..|R-- .... ....|R-- .... ....|--- .... ....
 F#4|..|F#2 2A.F ....|C#3 3FFF ....|B-4 6F.F ....
....|..|R-- .... ....|R-- .... ....|--- .... ....
....|..|B-2 2F.A ....|B-2 2F.A ....|B-4 6F.A ....
....|..|R-- .... ....|R-- .... ....|--- .... ....
....|..|B-2 2F.7 ....|B-2 2F.7 ....|R-- .... ....
....|..|R-- .... ....|R-- .... ....|R-- .... ....
 F#4|..|F#2 2A.F ....|A-4 6F.F ....|A-4 6F.F ....
....|..|R-- .... ....|C#3 3F3F ....|--- .... ....
....|..|F#2 2F.A ....|C#3 3FFA ....|B-4 6F.A ....
....|..|R-- .... ....|R-- .... ....|--- .... ....
....|..|B-2 2F.7 ....|B-4 6F.A ....|B-4 6F.7 ....
....|..|R-- .... ....|A-4 6F.F ....|A-4 6F.F ....
 F#4|..|F#2 2A.F ....|B-3 3FFF ....|G-4 6F.F ....
....|..|R-- .... ....|R-- .... ....|--- .... ....
....|..|F#2 2F.A ....|F#2 2F.A ....|A-4 6F.A ....
....|..|R-- .... ....|C#3 3F3A ....|--- .... ....
....|..|F#2 2F.7 ....|B-4 6F.A ....|B-4 6F.7 ....
....|..|R-- .... ....|R-- .... ....|--- .... ....
 F#4|..|F#2 2A.F ....|E-4 6F.F ....|E-4 6F.F ....
....|..|R-- .... ....|R-- .... ....|A-4 6F.A ....
....|..|F#2 2F.A ....|B-3 3F1F ....|G-4 6F.A ....
....|..|R-- .... ....|R-- .... ....|--- .... ....
....|..|F#2 2F.7 ....|A-4 6F.A ....|A-4 6F.7 ....
....|..|R-- .... ....|C#3 3F37 ....|--- .... ....
 F#4|..|F#2 2A.F ....|F#2 2A.F ....|B-2 UF.F ....
 F#4|..|F#2 2A.F ....|F#2 2A.F ....|--- .... ....
....|..|F#2 2F.A ....|F#2 2F.A ....|E-4 6F.A ....
....|..|R-- .... ....|A-4 6F.A ....|D-3 UF.F ....
....|..|F#2 2F.7 ....|G-4 6F.A ....|G-4 6F.7 ....
....|..|R-- .... ....|R-- .... ....|--- .... ....
 F#4|..|F#2 2A.F ....|F#2 2A.F ....|E-3 UF.F ....
....|..|R-- .... ....|R-- .... ....|--- .... ....
....|..|F#2 2F.A ....|F#2 2F.A ....|B-2 UF.A ....
....|..|F#2 2F.A ....|F#2 2F.A ....|G-3 UF.F ....
....|..|F#2 2F.7 ....|E-4 6F.A ....|E-4 6F.7 ....
....|..|R-- .... ....|R-- .... ....|D-3 UF.A ....
 F#4|..|F#2 2A.F ....|F#2 2A.F ....|R-- .... ....
 F#4|..|F#2 2A.F ....|F#2 2A.F ....|--- .... ....
....|..|F#2 2F.A ....|F#2 2F.A ....|E-3 UF.A ....
....|..|R-- .... ....|R-- .... ....|G-3 UF.F ....
....|..|F#2 2F.7 ....|F#2 2F.7 ....|B-2 UF.7 ....
....|..|F#2 2F.7 ....|F#2 2F.7 ....|G-3 UF.A ....

[Pattern18]
 F#4|..|F#2 2A.F ....|A-4 6F.F ....|A-4 6F.F ....
 F#4|..|F#2 2A.F ....|F#2 2A.F ....|D-3 UF.7 ....
....|..|F#2 2F.A ....|F#2 2F.A ....|R-- .... ....
....|..|F#2 2F.A ....|F#2 2F.A ....|--- .... ....
....|..|F#2 2F.7 ....|F#2 2F.7 ....|E-3 UF.7 ....
....|..|R-- .... ....|R-- .... ....|G-3 UF.A ....
 A-3|..|A-2 2C.F ....|A-2 2C.F ....|E-3 UF.F ....
....|..|R-- .... ....|R-- .... ....|G-3 UF.7 ....
....|..|F#2 2F.A ....|F#2 2F.A ....|A-4 6F.A ....
....|..|F#2 2F.A ....|F#2 2F.A ....|R-- .... ....
....|..|F#2 2F.7 ....|D-5 6F.F ....|D-5 6F.F ....
....|..|F#2 2F.7 ....|F#2 2F.7 ....|--- .... ....
 A-3|..|A-2 2C.F ....|A-2 2C.F ....|--- .... ....
....|..|R-- .... ....|R-- .... ....|G-3 UF.7 ....
....|..|A-2 2F.A ....|A-2 2F.A ....|E-3 UF.A ....
....|..|R-- .... ....|R-- .... ....|--- .... ....
....|..|F#2 2F.7 ....|A-4 6F.A ....|A-4 6F.7 ....
....|..|F#2 2F.7 ....|F#2 2F.7 ....|R-- .... ....
 A-3|..|A-2 2C.F ....|A-2 2C.F ....|D-5 6F.A ....
....|..|R-- .... ....|B-4 6F.F ....|B-4 6F.F ....
....|..|A-2 2F.A ....|A-2 2F.A ....|--- .... ....
....|..|R-- .... ....|R-- .... ....|--- .... ....
....|..|A-2 2F.7 ....|A-2 2F.7 ....|E-3 UF.7 ....
....|..|R-- .... ....|R-- .... ....|--- .... ....
 A-3|..|A-2 2C.F ....|A-2 2C.F ....|D-3 UF.F ....
....|..|R-- .... ....|A-4 6F.F ....|A-4 6F.F ....
....|..|A-2 2F.A ....|D-5 6F.A ....|R-- .... ....
....|..|R-- .... ....|R-- .... ....|E-3 UF.F ....
....|..|A-2 2F.7 ....|A-2 2F.7 ....|--- .... ....
....|..|R-- .... ....|R-- .... ....|R-- .... ....
 A-3|..|A-2 2C.F ....|G-4 6F.F ....|G-4 6F.F ....
 A-3|..|A-2 2C.F ....|A-2 2C.F ....|--- .... ....
....|..|A-2 2F.A ....|A-2 2F.A ....|D-3 UF.A ....
....|..|R-- .... ....|R-- .... ....|A-4 6F.A ....
....|..|A-2 2F.7 ....|A-2 2F.7 ....|R-- .... ....
....|..|R-- .... ....|B-4 6F.A ....|E-3 UF.A ....
 A-3|..|A-2 2C.F ....|E-4 6F.F ....|E-4 6F.F ....
....|..|R-- .... ....|R-- .... ....|R-- .... ....
....|..|A-2 2F.A ....|A-2 2F.A ....|G-4 6F.A ....
....|..|A-2 2F.A ....|A-2 2F.A ....|R-- .... ....
....|..|A-2 2F.7 ....|A-2 2F.7 ....|D-3 UF.7 ....
....|..|R-- .... ....|A-4 6F.A ....|A-4 6F.7 ....
 A-3|..|A-2 2C.F ....|E-4 6F.F ....|E-4 6F.F ....
 A-3|..|A-2 2C.F ....|A-2 2C.F ....|E-3 UF.7 ....
....|..|A-2 2F.A ....|A-2 2F.A ....|E-4 6F.A ....
....|..|R-- .... ....|R-- .... ....|R-- .... ....
....|..|A-2 2F.7 ....|G-4 6F.A ....|G-4 6F.7 ....
....|..|A-2 2F.7 ....|A-2 2F.7 ....|R-- .... ....
 A-3|..|A-2 2C.F ....|G-4 6F.F ....|G-4 6F.F ....
 A-3|..|A-2 2C.F ....|A-2 2C.F ....|--- .... ....
....|..|A-2 2F.A ....|A-2 2F.A ....|E-4 6F.A ....
....|..|A-2 2F.A ....|A-2 2F.A ....|R-- .... ....
....|..|A-2 2F.7 ....|E-4 6F.A ....|E-4 6F.7 ....
....|..|R-- .... ....|R-- .... ....|R-- .... ....
 F#4|..|F#2 2A.F ....|G-4 6F.F ....|G-4 6F.F ....
....|..|R-- .... ....|R-- .... ....|R-- .... ....
....|..|A-2 2F.A ....|A-2 2F.A ....|G-4 6F.A ....
....|..|A-2 2F.A ....|A-2 2F.A ....|B-3 UF.F ....
....|..|A-2 2F.7 ....|E-4 6F.A ....|E-4 6F.7 ....
....|..|A-2 2F.7 ....|A-2 2F.7 ....|R-- .... ....
 F#4|..|F#2 2A.F ....|A-4 6F.F ....|A-4 6F.F ....
....|..|R-- .... ....|R-- .... ....|R-- .... ....
....|..|F#2 2F.A ....|F#2 2F.A ....|G-4 6F.A ....
....|..|R-- .... ....|R-- .... ....|B-3 UF.F ....
....|..|A-2 2F.7 ....|G-4 6F.A ....|G-4 6F.7 ....
....|..|A-2 2F.7 ....|A-2 2F.7 ....|B-3 UF.A ....
 F#4|..|F#2 2A.F ....|B-4 6F.F ....|B-4 6F.F ....
....|..|R-- .... ....|R-- .... ....|R-- .... ....
....|..|F#2 2F.A ....|F#2 2F.A ....|A-4 6F.A ....
....|..|R-- .... ....|R-- .... ....|R-- .... ....
....|..|F#2 2F.7 ....|G-4 6F.A ....|G-4 6F.7 ....
....|..|R-- .... ....|R-- .... ....|B-3 UF.A ....
 F#4|..|F#2 2A.F ....|B-4 6F.F ....|B-4 6F.F ....
....|..|R-- .... ....|R-- .... ....|B-3 UF.7 ....
....|..|F#2 2F.A ....|F#2 2F.A ....|B-4 6F.A ....
....|..|R-- .... ....|R-- .... ....|R-- .... ....
....|..|F#2 2F.7 ....|A-4 6F.A ....|A-4 6F.7 ....
....|..|R-- .... ....|R-- .... ....|--- .... ....
 A-3|..|A-2 2C.F ....|A-2 2C.F ....|--- .... ....
 A-3|..|A-2 2C.F ....|A-2 2C.F ....|B-3 UF.7 ....
....|..|F#2 2F.A ....|F#2 2F.A ....|B-4 6F.A ....
....|..|R-- .... ....|R-- .... ....|D-4 UF.F ....
....|..|F#2 2F.7 ....|B-4 6F.A ....|B-4 6F.7 ....
....|..|R-- .... ....|R-- .... ....|--- .... ....
 A-3|..|A-2 2C.F ....|E-5 6F.F ....|E-5 6F.F ....
....|..|R-- .... ....|R-- .... ....|--- .... ....
....|..|A-2 2F.A ....|A-2 2F.A ....|R-- .... ....
....|..|A-2 2F.A ....|A-2 2F.A ....|D-4 UF.F ....
....|..|F#2 2F.7 ....|B-4 6F.A ....|B-4 6F.7 ....
....|..|R-- .... ....|R-- .... ....|D-4 UF.A ....
 A-3|..|A-2 2C.F ....|A-2 2C.F ....|E-4 UF.F ....
 A-3|..|A-2 2C.F ....|A-2 2C.F ....|--- .... ....
....|..|A-2 2F.A ....|A-2 2F.A ....|E-5 6F.A ....
....|..|R-- .... ....|R-- .... ....|--- .... ....
....|..|A-2 2F.7 ....|A-2 2F.7 ....|R-- .... ....
....|..|A-2 2F.7 ....|A-2 2F.7 ....|D-4 UF.A ....
 E-3|..|E-1 2A.F ....|G-3 4F1F ....|G-3 4F1F ....
....|..|--- .... ....|R-- .... ....|D-4 UF.7 ....
....|..|A-2 2F.A ....|A-2 2F.A ....|E-4 UF.A ....
....|..|A-2 2F.A ....|A-2 2F.A ....|R-- .... ....
....|..|A-2 2F.7 ....|E-5 6F.A ....|E-5 6F.7 ....
....|..|R-- .... ....|R-- .... ....|--- .... ....
....|..|--- .... ....|G-3 4F1F ....|G-3 4F1F ....
....|..|--- .... ....|R-- .... ....|D-4 UF.7 ....
....|..|E-1 2F.A ....|G-3 4F1A ....|G-3 4F1A ....
....|..|--- .... ....|R-- .... ....|R-- .... ....
....|..|A-2 2F.7 ....|A-2 2F.7 ....|E-4 UF.7 ....
....|..|A-2 2F.7 ....|A-2 2F.7 ....|R-- .... ....
....|..|R-- .... ....|A-3 4F2F ....|A-3 4F2F ....
....|..|--- .... ....|--- .... ....|--- .... ....
....|..|--- .... ....|G-3 4F1A ....|G-3 4F1A ....
....|..|--- .... ....|R-- .... ....|--- .... ....
....|..|E-1 2F.7 ....|E-1 2F.A ....|G-3 4F17 ....
....|..|--- .... ....|R-- .... ....|R-- .... ....
....|..|--- .... ....|B-3 3FDF ....|--- .... ....
....|..|--- .... ....|R-- .... ....|R-- .... ....
....|..|--- .... ....|A-3 4F2A ....|A-3 4F2A ....
....|..|--- .... ....|G-3 4F1F ....|G-3 4F1F ....
....|..|--- .... ....|G-3 4F17 ....|G-3 4F17 ....
....|..|--- .... ....|B-3 4F3F ....|B-3 4F3F ....
....|..|--- .... ....|B-3 3FDF ....|R-- .... ....
....|..|--- .... ....|R-- .... ....|R-- .... ....
....|..|--- .... ....|B-3 3FDA ....|--- .... ....
....|..|--- .... ....|R-- .... ....|R-- .... ....
....|..|--- .... ....|A-3 4F27 ....|A-3 4F27 ....
....|..|--- .... ....|G-3 4F1A ....|G-3 4F1A ....
....|..|--- .... ....|B-3 3FDF ....|--- .... ....
....|..|--- .... ....|B-3 3F.F ....|B-3 4F3A ....
....|..|--- .... ....|B-3 3FDA ....|R-- .... ....
....|..|--- .... ....|--- .... ....|--- .... ....
....|..|--- .... ....|B-3 3FD7 ....|--- .... ....
....|..|--- .... ....|R-- .... ....|R-- .... ....
....|..|--- .... ....|B-3 3FDF ....|--- .... ....
....|..|--- .... ....|G-3 4F17 ....|G-3 4F17 ....
....|..|--- .... ....|B-3 3FDA ....|--- .... ....
....|..|--- .... ....|B-3 3F.A ....|B-3 4F37 ....
....|..|--- .... ....|B-3 3FD7 ....|R-- .... ....
....|..|--- .... ....|--- .... ....|--- .... ....
....|..|--- .... ....|B-3 3FDF ....|--- .... ....
....|..|--- .... ....|--- .... ....|--- .... ....
....|..|--- .... ....|B-3 3FDA ....|--- .... ....
....|..|--- .... ....|--- .... ....|--- .... ....
....|..|--- .... ....|B-3 3FD7 ....|--- .... ....
....|..|R-- .... ....|R-- .... ....|--- .... ....
 D-3|..|D-1 2A.F ....|G-3 4F1F ....|G-3 4F1F ....
....|..|--- .... ....|--- .... ....|--- .... ....
....|..|--- .... ....|B-3 3FDA ....|--- .... ....
....|..|--- .... ....|R-- .... ....|R-- .... ....
....|..|--- .... ....|B-3 3FD7 ....|--- .... ....
....|..|--- .... ....|--- .... ....|--- .... ....
....|..|--- .... ....|G-3 4F1F ....|G-3 4F1F ....
....|..|R-- .... ....|R-- .... ....|--- .... ....
....|..|D-1 2F.A ....|G-3 4F1A ....|G-3 4F1A ....
....|..|--- .... ....|R-- .... ....|R-- .... ....
....|..|--- .... ....|B-3 3FD7 ....|--- .... ....
....|..|--- .... ....|R-- .... ....|R-- .... ....
....|..|--- .... ....|A-3 4F2F ....|A-3 4F2F ....
....|..|--- .... ....|--- .... ....|--- .... ....
....|..|--- .... ....|G-3 4F1A ....|G-3 4F1A ....
....|..|R-- .... ....|R-- .... ....|--- .... ....
....|..|D-1 2F.7 ....|D-1 2F.A ....|G-3 4F17 ....
....|..|--- .... ....|R-- .... ....|R-- .... ....
....|..|--- .... ....|A-3 3FCF ....|G-4 6F.F ....
....|..|--- .... ....|R-- .... ....|R-- .... ....
....|..|--- .... ....|A-3 4F2A ....|A-3 4F2A ....
....|..|--- .... ....|G-3 4F1F ....|G-3 4F1F ....
....|..|--- .... ....|G-3 4F17 ....|G-3 4F17 ....
....|..|--- .... ....|B-3 4F3F ....|B-3 4F3F ....
....|..|--- .... ....|A-3 3FCF ....|A-4 6F.F ....
....|..|--- .... ....|R-- .... ....|R-- .... ....
....|..|--- .... ....|A-3 3FCA ....|G-4 6F.A ....
....|..|--- .... ....|R-- .... ....|R-- .... ....
....|..|--- .... ....|A-3 4F27 ....|A-3 4F27 ....
....|..|--- .... ....|R-- .... ....|G-3 4F1A ....
....|..|--- .... ....|A-3 3FCF ....|G-4 6F.F ....
....|..|--- .... ....|A-3 3FEF ....|B-3 4F3A ....
....|..|--- .... ....|A-3 3FCA ....|A-4 6F.A ....
....|..|--- .... ....|R-- .... ....|R-- .... ....
....|..|--- .... ....|G-4 6F.A ....|G-4 6F.7 ....
....|..|--- .... ....|R-- .... ....|R-- .... ....
....|..|--- .... ....|A-3 3FCF ....|A-4 6F.F ....
....|..|--- .... ....|R-- .... ....|G-3 4F17 ....
....|..|--- .... ....|A-3 3FCA ....|G-4 6F.A ....
....|..|--- .... ....|A-3 3FEA ....|B-3 4F37 ....
....|..|--- .... ....|A-4 6F.A ....|A-4 6F.7 ....
....|..|--- .... ....|--- .... ....|R-- .... ....
....|..|--- .... ....|A-3 3FCF ....|B-4 6F.F ....
....|..|--- .... ....|F#4 3F.F ....|--- .... ....
....|..|--- .... ....|A-3 3FCA ....|A-4 6F.A ....
....|..|--- .... ....|R-- .... ....|R-- .... ....
....|..|--- .... ....|G-4 6F.A ....|G-4 6F.7 ....
....|..|R-- .... ....|R-- .... ....|--- .... ....

[Pattern19]
 C-3|..|C-1 2A.F ....|G-3 4F1F ....|B-4 6F.F ....
....|..|--- .... ....|E-3 3F5F ....|G-3 4F1F ....
....|..|--- .... ....|A-3 3FCA ....|B-4 6F.A ....
....|..|--- .... ....|F#4 3F.A ....|R-- .... ....
....|..|--- .... ....|A-4 6F.A ....|A-4 6F.7 ....
....|..|--- .... ....|R-- .... ....|R-- .... ....
....|..|--- .... ....|G-3 4F1F ....|G-3 4F1F ....
....|..|R-- .... ....|R-- .... ....|--- .... ....
....|..|C-1 2F.A ....|G-3 4F1A ....|B-4 6F.A ....
....|..|--- .... ....|E-3 3F5A ....|R-- .... ....
....|..|--- .... ....|B-4 6F.A ....|B-4 6F.7 ....
....|..|--- .... ....|F#4 3F.7 ....|R-- .... ....
....|..|--- .... ....|A-3 4F2F ....|A-3 4F2F ....
....|..|--- .... ....|G-3 3F6F ....|R-- .... ....
....|..|--- .... ....|G-3 4F1A ....|G-3 4F1A ....
....|..|R-- .... ....|R-- .... ....|--- .... ....
....|..|C-1 2F.7 ....|B-4 6F.A ....|B-4 6F.7 ....
....|..|--- .... ....|E-3 3F57 ....|R-- .... ....
....|..|--- .... ....|E-3 3F2F ....|--- .... ....
....|..|--- .... ....|B-3 3F.F ....|R-- .... ....
....|..|--- .... ....|A-3 4F2A ....|A-3 4F2A ....
....|..|--- .... ....|G-3 4F1F ....|G-3 4F1F ....
....|..|--- .... ....|G-3 4F17 ....|G-3 4F17 ....
....|..|--- .... ....|B-3 4F3F ....|B-3 4F3F ....
....|..|--- .... ....|E-3 3F2F ....|R-- .... ....
....|..|--- .... ....|G-3 3F6F ....|R-- .... ....
....|..|--- .... ....|E-3 3F2A ....|--- .... ....
....|..|--- .... ....|B-3 3F.A ....|R-- .... ....
....|..|--- .... ....|A-3 4F27 ....|A-3 4F27 ....
....|..|--- .... ....|G-3 4F1A ....|G-3 4F1A ....
....|..|--- .... ....|E-3 3F2F ....|--- .... ....
....|..|--- .... ....|G-3 3F6F ....|B-3 4F3A ....
....|..|--- .... ....|E-3 3F2A ....|R-- .... ....
....|..|--- .... ....|G-3 3F6A ....|--- .... ....
....|..|--- .... ....|E-3 3F27 ....|--- .... ....
....|..|--- .... ....|R-- .... ....|R-- .... ....
....|..|--- .... ....|E-3 3F2F ....|B-4 6F.F ....
....|..|--- .... ....|G-3 3F6F ....|G-3 4F17 ....
....|..|--- .... ....|E-3 3F2A ....|--- .... ....
....|..|--- .... ....|G-3 3F6A ....|B-3 4F37 ....
....|..|--- .... ....|E-3 3F27 ....|R-- .... ....
....|..|--- .... ....|G-3 3F67 ....|--- .... ....
....|..|--- .... ....|E-3 3F2F ....|A-4 6F.F ....
....|..|--- .... ....|G-3 3F6F ....|R-- .... ....
....|..|--- .... ....|E-3 3F2A ....|B-4 6F.A ....
....|..|--- .... ....|G-3 3F6A ....|--- .... ....
....|..|--- .... ....|E-3 3F27 ....|--- .... ....
....|..|R-- .... ....|R-- .... ....|R-- .... ....
 C-3|..|C-1 2A.F ....|G-3 4F1F ....|G-3 4F1F ....
....|..|--- .... ....|B-3 3F.F ....|--- .... ....
....|..|--- .... ....|E-3 3F2A ....|A-4 6F.A ....
....|..|--- .... ....|G-3 3F6A ....|R-- .... ....
....|..|--- .... ....|B-4 6F.A ....|B-4 6F.7 ....
....|..|--- .... ....|G-3 3F67 ....|--- .... ....
....|..|--- .... ....|G-3 4F1F ....|G-3 4F1F ....
....|..|R-- .... ....|G-3 3F6F ....|R-- .... ....
....|..|C-1 2F.A ....|G-3 4F1A ....|G-3 4F1A ....
....|..|--- .... ....|B-3 3F.A ....|R-- .... ....
....|..|--- .... ....|A-4 6F.A ....|A-4 6F.7 ....
....|..|--- .... ....|G-3 3F67 ....|R-- .... ....
....|..|--- .... ....|A-3 4F2F ....|A-3 4F2F ....
....|..|--- .... ....|G-3 3F6F ....|--- .... ....
....|..|--- .... ....|G-3 4F1A ....|G-3 4F1A ....
....|..|R-- .... ....|G-3 3F6A ....|R-- .... ....
....|..|C-1 2F.7 ....|C-1 2F.A ....|G-3 4F17 ....
....|..|--- .... ....|B-3 3F.7 ....|R-- .... ....
....|..|--- .... ....|E-3 3F2F ....|G-4 6F.F ....
....|..|--- .... ....|G-3 3F6F ....|R-- .... ....
....|..|--- .... ....|A-3 4F2A ....|A-3 4F2A ....
....|..|--- .... ....|G-3 4F1F ....|G-3 4F1F ....
....|..|--- .... ....|G-3 4F17 ....|G-3 4F17 ....
....|..|R-- .... ....|B-3 4F3F ....|B-3 4F3F ....
 D-3|..|D-1 2A.F ....|F#3 3FFF ....|A-4 6F.F ....
....|..|--- .... ....|R-- .... ....|R-- .... ....
....|..|--- .... ....|E-3 3F2A ....|G-4 6F.A ....
....|..|--- .... ....|G-3 3F6A ....|R-- .... ....
....|..|--- .... ....|A-3 4F27 ....|A-3 4F27 ....
....|..|--- .... ....|R-- .... ....|G-3 4F1A ....
....|..|--- .... ....|F#3 3FFF ....|G-4 6F.F ....
....|..|R-- .... ....|F#3 3F3F ....|B-3 4F3A ....
....|..|D-1 2F.A ....|F#3 3FFA ....|A-4 6F.A ....
....|..|--- .... ....|--- .... ....|R-- .... ....
....|..|--- .... ....|G-4 6F.A ....|G-4 6F.7 ....
....|..|--- .... ....|G-3 3F67 ....|R-- .... ....
....|..|--- .... ....|F#3 3FFF ....|A-4 6F.F ....
....|..|--- .... ....|R-- .... ....|G-3 4F17 ....
....|..|--- .... ....|F#3 3FFA ....|G-4 6F.A ....
....|..|R-- .... ....|F#3 3F3A ....|B-3 4F37 ....
....|..|D-1 2F.7 ....|A-4 6F.A ....|A-4 6F.7 ....
....|..|--- .... ....|--- .... ....|R-- .... ....
....|..|--- .... ....|F#3 3FFF ....|R-- .... ....
....|..|--- .... ....|F#3 3F.F ....|B-4 6F.F ....
....|..|--- .... ....|F#3 3FFA ....|A-4 6F.A ....
....|..|--- .... ....|R-- .... ....|R-- .... ....
....|..|--- .... ....|G-4 6F.A ....|G-4 6F.7 ....
....|..|R-- .... ....|R-- .... ....|--- .... ....
 E-3|..|E-1 2A.F ....|G-3 4F1F ....|G-3 4F1F ....
....|..|--- .... ....|B-4 6F.F ....|B-4 6F.F ....
....|..|--- .... ....|F#3 3FFA ....|R-- .... ....
....|..|--- .... ....|F#3 3F.A ....|R-- .... ....
....|..|--- .... ....|A-4 6F.F ....|A-4 6F.F ....
....|..|--- .... ....|R-- .... ....|R-- .... ....
....|..|--- .... ....|G-3 4F1F ....|A-4 6F.F ....
....|..|R-- .... ....|R-- .... ....|G-3 4F1F ....
....|..|E-1 2F.A ....|G-4 6F.F ....|G-4 6F.F ....
....|..|--- .... ....|R-- .... ....|R-- .... ....
....|..|--- .... ....|R-- .... ....|G-3 4F1A ....
....|..|--- .... ....|B-4 6F.A ....|R-- .... ....
....|..|--- .... ....|A-3 4F2F ....|A-3 4F2F ....
....|..|--- .... ....|R-- .... ....|R-- .... ....
....|..|--- .... ....|G-3 4F1A ....|A-4 6F.A ....
....|..|R-- .... ....|R-- .... ....|G-3 4F1A ....
....|..|E-1 2F.7 ....|E-1 2F.A ....|G-4 6F.A ....
....|..|--- .... ....|B-4 6F.A ....|R-- .... ....
....|..|--- .... ....|B-3 3FDF ....|G-3 4F17 ....
....|..|--- .... ....|R-- .... ....|R-- .... ....
....|..|--- .... ....|A-3 4F2A ....|A-3 4F2A ....
....|..|--- .... ....|G-3 4F1F ....|G-3 4F1F ....
....|..|--- .... ....|A-4 6F.A ....|A-4 6F.7 ....
....|..|--- .... ....|B-3 4F3F ....|B-3 4F3F ....
....|..|--- .... ....|B-3 3FDF ....|R-- .... ....
....|..|--- .... ....|R-- .... ....|R-- .... ....
....|..|--- .... ....|B-3 3FDA ....|--- .... ....
....|..|--- .... ....|B-4 6F.7 ....|R-- .... ....
....|..|--- .... ....|A-3 4F27 ....|A-3 4F27 ....
....|..|--- .... ....|G-3 4F1A ....|G-3 4F1A ....
....|..|--- .... ....|B-3 3FDF ....|E-4 6F.F ....
....|..|--- .... ....|B-3 3F.F ....|B-3 4F3A ....
....|..|--- .... ....|E-1 2F.7 ....|R-- .... ....
....|..|--- .... ....|D-4 6F.F ....|D-4 6F.F ....
....|..|--- .... ....|B-3 3FD7 ....|--- .... ....
....|..|--- .... ....|R-- .... ....|R-- .... ....
....|..|--- .... ....|B-3 3FDF ....|E-4 6F.F ....
....|..|--- .... ....|G-3 4F17 ....|G-3 4F17 ....
....|..|--- .... ....|B-3 3FDA ....|E-4 6F.A ....
....|..|--- .... ....|B-3 3F.A ....|B-3 4F37 ....
....|..|--- .... ....|B-3 3FD7 ....|R-- .... ....
....|..|--- .... ....|R-- .... ....|D-4 6F.A ....
....|..|--- .... ....|B-3 3FDF ....|G-4 6F.F ....
....|..|--- .... ....|--- .... ....|--- .... ....
....|..|--- .... ....|B-3 3FDA ....|E-4 6F.A ....
....|..|--- .... ....|R-- .... ....|R-- .... ....
....|..|--- .... ....|E-4 6F.A ....|E-4 6F.7 ....
....|..|R-- .... ....|R-- .... ....|--- .... ....
 D-3|..|D-1 2A.F ....|G-3 4F1F ....|G-3 4F1F ....
....|..|--- .... ....|D-4 6F.A ....|D-4 6F.7 ....
....|..|--- .... ....|B-3 3FDA ....|G-4 6F.A ....
....|..|--- .... ....|R-- .... ....|R-- .... ....
....|..|--- .... ....|E-4 6F.A ....|E-4 6F.7 ....
....|..|--- .... ....|--- .... ....|--- .... ....
....|..|--- .... ....|G-3 4F1F ....|G-3 4F1F ....
....|..|R-- .... ....|R-- .... ....|--- .... ....
....|..|D-1 2F.A ....|G-3 4F1A ....|G-3 4F1A ....
....|..|--- .... ....|R-- .... ....|R-- .... ....
....|..|--- .... ....|G-4 6F.A ....|G-4 6F.7 ....
....|..|--- .... ....|R-- .... ....|R-- .... ....
....|..|--- .... ....|A-3 4F2F ....|A-3 4F2F ....
....|..|--- .... ....|R-- .... ....|--- .... ....
....|..|--- .... ....|G-3 4F1A ....|G-3 4F1A ....
....|..|R-- .... ....|R-- .... ....|--- .... ....
....|..|D-1 2F.7 ....|D-1 2F.A ....|G-3 4F17 ....
....|..|--- .... ....|D-4 6F.7 ....|R-- .... ....
....|..|--- .... ....|A-3 3FCF ....|--- .... ....
....|..|--- .... ....|R-- .... ....|R-- .... ....
....|..|--- .... ....|A-3 4F2A ....|A-3 4F2A ....
....|..|--- .... ....|G-3 4F1F ....|G-3 4F1F ....
....|..|--- .... ....|G-3 4F17 ....|G-3 4F17 ....
....|..|--- .... ....|B-3 4F3F ....|B-3 4F3F ....
....|..|--- .... ....|A-3 3FCF ....|R-- .... ....
....|..|--- .... ....|R-- .... ....|R-- .... ....
....|..|--- .... ....|A-3 3FCA ....|--- .... ....
....|..|--- .... ....|R-- .... ....|R-- .... ....
....|..|--- .... ....|A-3 4F27 ....|A-3 4F27 ....
....|..|--- .... ....|G-3 4F1A ....|G-3 4F1A ....
....|..|--- .... ....|A-3 3FCF ....|--- .... ....
....|..|--- .... ....|A-3 3FEF ....|B-3 4F3A ....
....|..|--- .... ....|A-3 3FCA ....|R-- .... ....
....|..|--- .... ....|--- .... ....|--- .... ....
....|..|--- .... ....|A-3 3FC7 ....|--- .... ....
....|..|--- .... ....|R-- .... ....|R-- .... ....
....|..|--- .... ....|A-3 3FCF ....|--- .... ....
....|..|--- .... ....|G-3 4F17 ....|G-3 4F17 ....
....|..|--- .... ....|A-3 3FCA ....|--- .... ....
....|..|--- .... ....|A-3 3FEA ....|B-3 4F37 ....
....|..|--- .... ....|A-3 3FC7 ....|R-- .... ....
....|..|--- .... ....|--- .... ....|--- .... ....
....|..|--- .... ....|A-3 3FCF ....|G-4 6F.F ....
....|..|--- .... ....|F#4 3F.F ....|--- .... ....
....|..|--- .... ....|R-- .... ....|R-- .... ....
....|..|--- .... ....|G-4 6F.F ....|G-4 6F.F ....
....|..|--- .... ....|A-3 3FC7 ....|--- .... ....
....|..|R-- .... ....|R-- .... ....|--- .... ....

[Pattern20]
 C-3|..|C-1 2A.F ....|G-3 4F1F ....|G-3 4F1F ....
....|..|--- .... ....|E-3 3F5F ....|--- .... ....
....|..|--- .... ....|A-3 3FCA ....|G-4 6F.A ....
....|..|--- .... ....|F#4 3F.A ....|R-- .... ....
....|..|--- .... ....|F#4 6F.F ....|F#4 6F.F ....
....|..|--- .... ....|--- .... ....|G-4 6F.A ....
....|..|--- .... ....|G-3 4F1F ....|E-4 6F.F ....
....|..|R-- .... ....|R-- .... ....|G-3 4F1F ....
....|..|C-1 2F.A ....|G-3 4F1A ....|G-3 4F1A ....
....|..|--- .... ....|E-3 3F5A ....|R-- .... ....
....|..|--- .... ....|G-4 6F.A ....|G-4 6F.7 ....
....|..|--- .... ....|R-- .... ....|R-- .... ....
....|..|--- .... ....|A-3 4F2F ....|A-3 4F2F ....
....|..|--- .... ....|G-3 3F6F ....|G-4 6F.7 ....
....|..|--- .... ....|G-3 4F1A ....|E-4 6F.A ....
....|..|R-- .... ....|R-- .... ....|G-3 4F1A ....
....|..|C-1 2F.7 ....|C-1 2F.A ....|G-3 4F17 ....
....|..|--- .... ....|G-4 6F.F ....|G-4 6F.F ....
....|..|--- .... ....|E-3 3F2F ....|R-- .... ....
....|..|--- .... ....|B-3 3F.F ....|R-- .... ....
....|..|--- .... ....|A-3 4F2A ....|A-3 4F2A ....
....|..|--- .... ....|G-3 4F1F ....|G-4 6F.F ....
....|..|--- .... ....|E-4 6F.A ....|E-4 6F.7 ....
....|..|--- .... ....|B-3 4F3F ....|G-3 4F1F ....
....|..|--- .... ....|E-3 3F2F ....|R-- .... ....
....|..|--- .... ....|G-3 3F6F ....|G-4 6F.A ....
....|..|--- .... ....|E-3 3F2A ....|B-3 4F3F ....
....|..|--- .... ....|B-3 3F.A ....|R-- .... ....
....|..|--- .... ....|F#4 6F.F ....|F#4 6F.F ....
....|..|--- .... ....|G-3 4F1A ....|G-4 6F.A ....
....|..|--- .... ....|E-3 3F2F ....|E-4 6F.F ....
....|..|--- .... ....|G-3 3F6F ....|B-3 4F3A ....
....|..|--- .... ....|E-3 3F2A ....|G-3 4F1A ....
....|..|--- .... ....|G-3 3F6A ....|G-4 6F.7 ....
....|..|--- .... ....|R-- .... ....|R-- .... ....
....|..|--- .... ....|B-3 3F.7 ....|R-- .... ....
....|..|--- .... ....|E-3 3F2F ....|F#4 6F.A ....
....|..|--- .... ....|G-3 3F6F ....|G-4 6F.7 ....
....|..|--- .... ....|E-3 3F2A ....|E-4 6F.A ....
....|..|--- .... ....|G-3 3F6A ....|G-3 4F17 ....
....|..|--- .... ....|E-3 3F27 ....|B-3 4F37 ....
....|..|--- .... ....|G-3 3F67 ....|R-- .... ....
....|..|--- .... ....|E-3 3F2F ....|G-4 6F.F ....
....|..|--- .... ....|G-3 3F6F ....|R-- .... ....
....|..|--- .... ....|E-3 3F2A ....|F#4 6F.7 ....
....|..|--- .... ....|G-4 6F.F ....|G-4 6F.F ....
....|..|--- .... ....|E-4 6F.A ....|E-4 6F.7 ....
....|..|R-- .... ....|R-- .... ....|--- .... ....
 C-3|..|C-1 2A.F ....|G-3 4F1F ....|G-3 4F1F ....
....|..|--- .... ....|B-3 3F.F ....|--- .... ....
....|..|--- .... ....|E-3 3F2A ....|G-4 6F.A ....
....|..|--- .... ....|F#4 6F.F ....|F#4 6F.F ....
....|..|--- .... ....|E-3 3F27 ....|R-- .... ....
....|..|--- .... ....|G-3 3F67 ....|G-4 6F.A ....
....|..|--- .... ....|G-3 4F1F ....|E-4 6F.F ....
....|..|R-- .... ....|G-3 3F6F ....|G-3 4F1F ....
....|..|C-1 2F.A ....|G-3 4F1A ....|G-3 4F1A ....
....|..|--- .... ....|B-3 3F.A ....|R-- .... ....
....|..|--- .... ....|G-4 6F.A ....|G-4 6F.7 ....
....|..|--- .... ....|R-- .... ....|F#4 6F.A ....
....|..|--- .... ....|A-3 4F2F ....|A-3 4F2F ....
....|..|--- .... ....|G-3 3F6F ....|G-4 6F.7 ....
....|..|--- .... ....|G-3 4F1A ....|E-4 6F.A ....
....|..|R-- .... ....|G-3 3F6A ....|G-3 4F1A ....
....|..|C-1 2F.7 ....|C-1 2F.A ....|G-3 4F17 ....
....|..|--- .... ....|B-3 3F.7 ....|R-- .... ....
....|..|--- .... ....|E-3 3F2F ....|B-4 6F.F ....
....|..|--- .... ....|G-3 3F6F ....|F#4 6F.7 ....
....|..|--- .... ....|R-- .... ....|A-3 4F2A ....
....|..|--- .... ....|G-3 4F1F ....|G-3 4F1F ....
....|..|--- .... ....|E-4 6F.A ....|E-4 6F.7 ....
....|..|R-- .... ....|B-3 4F3F ....|B-3 4F3F ....
 D-3|..|D-1 2A.F ....|F#3 3FFF ....|D-5 6F.F ....
....|..|--- .... ....|R-- .... ....|R-- .... ....
....|..|--- .... ....|E-3 3F2A ....|B-4 6F.A ....
....|..|--- .... ....|G-3 3F6A ....|R-- .... ....
....|..|--- .... ....|A-3 4F27 ....|A-3 4F27 ....
....|..|--- .... ....|G-3 4F1A ....|G-3 4F1A ....
....|..|--- .... ....|F#3 3FFF ....|B-4 6F.F ....
....|..|R-- .... ....|F#3 3F3F ....|B-3 4F3A ....
....|..|D-1 2F.A ....|F#3 3FFA ....|D-5 6F.A ....
....|..|--- .... ....|R-- .... ....|R-- .... ....
....|..|--- .... ....|B-4 6F.A ....|B-4 6F.7 ....
....|..|--- .... ....|G-3 3F67 ....|R-- .... ....
....|..|--- .... ....|F#3 3FFF ....|D-5 6F.F ....
....|..|--- .... ....|G-3 4F17 ....|G-3 4F17 ....
....|..|--- .... ....|F#3 3FFA ....|B-4 6F.A ....
....|..|R-- .... ....|F#3 3F3A ....|B-3 4F37 ....
....|..|D-1 2F.7 ....|D-5 6F.A ....|D-5 6F.7 ....
....|..|--- .... ....|--- .... ....|R-- .... ....
....|..|--- .... ....|F#3 3FFF ....|B-4 6F.F ....
....|..|--- .... ....|F#3 3F.F ....|--- .... ....
....|..|--- .... ....|F#3 3FFA ....|D-5 6F.A ....
....|..|--- .... ....|R-- .... ....|R-- .... ....
....|..|--- .... ....|B-4 6F.A ....|B-4 6F.7 ....
....|..|R-- .... ....|R-- .... ....|--- .... ....
 E-3|..|E-1 2A.F ....|G-3 4F1F ....|G-3 4F1F ....
....|..|--- .... ....|E-5 6F.F ....|E-5 6F.F ....
 E-4|..|--- .... ....|E-2 2A.F ....|B-4 6F.A ....
....|..|--- .... ....|F#3 3F.A ....|R-- .... ....
....|..|--- .... ....|D-5 6F.A ....|D-5 6F.7 ....
....|..|--- .... ....|R-- .... ....|R-- .... ....
 E-4|..|E-2 2A.F ....|G-3 4F1F ....|G-3 4F1F ....
....|..|R-- .... ....|R-- .... ....|--- .... ....
....|..|E-1 2F.A ....|G-3 4F1A ....|G-3 4F1A ....
....|..|--- .... ....|R-- .... ....|R-- .... ....
....|..|--- .... ....|B-4 6F.A ....|B-4 6F.7 ....
....|..|--- .... ....|F#3 3F.7 ....|R-- .... ....
 E-4|..|E-2 2A.F ....|A-3 4F2F ....|A-3 4F2F ....
....|..|--- .... ....|R-- .... ....|R-- .... ....
....|..|E-2 2F.A ....|G-3 4F1A ....|G-3 4F1A ....
....|..|R-- .... ....|R-- .... ....|--- .... ....
....|..|E-1 2F.7 ....|E-1 2F.A ....|G-3 4F17 ....
....|..|--- .... ....|E-5 6F.A ....|R-- .... ....
 E-4|..|E-2 2A.F ....|B-3 3FDF ....|--- .... ....
....|..|--- .... ....|R-- .... ....|R-- .... ....
....|..|E-2 2F.A ....|A-3 4F2A ....|A-3 4F2A ....
....|..|--- .... ....|G-3 4F1F ....|G-3 4F1F ....
....|..|E-2 2F.7 ....|G-3 4F17 ....|G-3 4F17 ....
....|..|--- .... ....|B-3 4F3F ....|B-3 4F3F ....
 E-4|..|E-2 2A.F ....|B-3 3FDF ....|R-- .... ....
....|..|--- .... ....|R-- .... ....|R-- .... ....
....|..|E-2 2F.A ....|B-3 3FDA ....|--- .... ....
....|..|--- .... ....|R-- .... ....|R-- .... ....
....|..|E-2 2F.7 ....|A-3 4F27 ....|A-3 4F27 ....
....|..|--- .... ....|G-3 4F1A ....|G-3 4F1A ....
 E-4|..|E-2 2A.F ....|B-3 3FDF ....|--- .... ....
....|..|--- .... ....|B-3 3F.F ....|B-3 4F3A ....
....|..|E-2 2F.A ....|B-3 3FDA ....|R-- .... ....
....|..|--- .... ....|E-5 6F.7 ....|--- .... ....
....|..|E-2 2F.7 ....|B-3 3FD7 ....|--- .... ....
....|..|--- .... ....|R-- .... ....|R-- .... ....
 E-4|..|E-2 2A.F ....|B-3 3FDF ....|--- .... ....
....|..|--- .... ....|G-3 4F17 ....|G-3 4F17 ....
....|..|E-2 2F.A ....|B-3 3FDA ....|--- .... ....
 E-4|..|--- .... ....|E-2 2A.F ....|B-3 4F37 ....
....|..|E-2 2F.7 ....|B-3 3FD7 ....|R-- .... ....
....|..|--- .... ....|R-- .... ....|R-- .... ....
 E-4|..|E-2 2A.F ....|B-3 3FDF ....|D-5 6F.F ....
....|..|--- .... ....|R-- .... ....|--- .... ....
 E-4|..|E-2 2F.A ....|E-2 2A.F ....|--- .... ....
....|..|--- .... ....|--- .... ....|--- .... ....
....|..|E-2 2F.7 ....|B-3 3FD7 ....|--- .... ....
....|..|R-- .... ....|B-2 2F.7 ....|--- .... ....
 D-3|..|D-1 2A.F ....|G-3 4F1F ....|G-3 4F1F ....
....|..|--- .... ....|--- .... ....|R-- .... ....
....|..|E-2 2F.A ....|B-3 3FDA ....|D-5 6F.A ....
....|..|--- .... ....|R-- .... ....|R-- .... ....
....|..|E-2 2F.7 ....|B-3 3FD7 ....|--- .... ....
....|..|--- .... ....|--- .... ....|--- .... ....
 D-4|..|D-2 2A.F ....|G-3 4F1F ....|G-3 4F1F ....
 A-3|..|R-- .... ....|A-2 2C.F ....|--- .... ....
....|..|D-1 2F.A ....|G-3 4F1A ....|G-3 4F1A ....
....|..|--- .... ....|R-- .... ....|R-- .... ....
....|..|E-2 2F.7 ....|D-5 6F.A ....|D-5 6F.7 ....
....|..|--- .... ....|R-- .... ....|R-- .... ....
 D-4|..|D-2 2A.F ....|A-3 4F2F ....|A-3 4F2F ....
....|..|--- .... ....|--- .... ....|--- .... ....
....|..|D-2 2F.A ....|G-3 4F1A ....|G-3 4F1A ....
 D-4|..|R-- .... ....|D-2 2A.F ....|--- .... ....
....|..|D-1 2F.7 ....|D-1 2F.A ....|G-3 4F17 ....
....|..|--- .... ....|R-- .... ....|R-- .... ....
 D-4|..|D-2 2A.F ....|A-3 3FCF ....|--- .... ....
....|..|--- .... ....|B-4 6F.F ....|B-4 6F.F ....
 D-4|..|D-2 2F.A ....|D-2 2A.F ....|A-3 4F2A ....
....|..|--- .... ....|G-3 4F1F ....|G-3 4F1F ....
....|..|D-2 2F.7 ....|D-3 2F.7 ....|G-3 4F17 ....
....|..|--- .... ....|B-3 4F3F ....|B-3 4F3F ....
 D-4|..|D-2 2A.F ....|A-3 3FCF ....|R-- .... ....
....|..|--- .... ....|D-5 6F.F ....|D-5 6F.F ....
 D-4|..|D-2 2F.A ....|D-3 2C.F ....|R-- .... ....
 D-4|..|--- .... ....|D-2 2A.F ....|B-4 6F.A ....
....|..|D-2 2F.7 ....|A-3 4F27 ....|A-3 4F27 ....
....|..|--- .... ....|G-3 4F1A ....|G-3 4F1A ....
 D-4|..|D-2 2A.F ....|A-3 3FCF ....|R-- .... ....
....|..|--- .... ....|A-3 3FEF ....|B-4 6F.F ....
....|..|D-2 2F.A ....|A-3 3FCA ....|B-3 4F3A ....
....|..|--- .... ....|R-- .... ....|D-5 6F.A ....
....|..|D-2 2F.7 ....|A-3 3FC7 ....|R-- .... ....
....|..|--- .... ....|B-4 6F.A ....|B-4 6F.7 ....
 D-4|..|D-2 2A.F ....|A-3 3FCF ....|R-- .... ....
....|..|--- .... ....|D-5 6F.F ....|D-5 6F.F ....
....|..|D-2 2F.A ....|A-3 3FCA ....|G-3 4F17 ....
 D-4|..|--- .... ....|D-2 2A.F ....|B-4 6F.A ....
....|..|D-2 2F.7 ....|A-3 3FC7 ....|B-3 4F37 ....
....|..|--- .... ....|D-5 6F.A ....|D-5 6F.7 ....
 D-4|..|D-2 2A.F ....|A-3 3FCF ....|B-4 6F.F ....
....|..|--- .... ....|F#4 3F.F ....|R-- .... ....
 D-4|..|D-2 2F.A ....|D-2 2A.F ....|--- .... ....
....|..|--- .... ....|R-- .... ....|D-5 6F.A ....
....|..|D-2 2F.7 ....|D-3 2F.7 ....|R-- .... ....
....|..|R-- .... ....|D-2 2F.A ....|B-4 6F.7 ....

[Pattern22]
 C-3|..|C-1 2A.F ....|G-3 4F1F ....|G-3 4F1F ....
....|..|--- .... ....|E-3 3F5F ....|--- .... ....
....|..|D-2 2F.A ....|A-3 3FCA ....|C-5 6F.A ....
 C-3|..|--- .... ....|C-3 2C.F ....|R-- .... ....
....|..|D-2 2F.7 ....|B-4 6F.A ....|B-4 6F.7 ....
....|..|--- .... ....|--- .... ....|--- .... ....
 C-4|..|C-2 2A.F ....|G-3 4F1F ....|C-5 6F.F ....
....|..|R-- .... ....|D-2 2F.7 ....|G-3 4F1F ....
....|..|C-1 2F.A ....|G-3 4F1A ....|G-3 4F1A ....
....|..|--- .... ....|R-- .... ....|R-- .... ....
....|..|D-2 2F.7 ....|C-5 6F.A ....|C-5 6F.7 ....
....|..|--- .... ....|C-3 2F.A ....|R-- .... ....
 C-4|..|C-2 2A.F ....|A-3 4F2F ....|A-3 4F2F ....
....|..|--- .... ....|G-3 3F6F ....|--- .... ....
 C-3|..|C-2 2F.A ....|C-3 2C.F ....|C-5 6F.A ....
 C-4|..|R-- .... ....|C-2 2A.F ....|G-3 4F1A ....
....|..|C-1 2F.7 ....|C-1 2F.A ....|G-3 4F17 ....
....|..|--- .... ....|E-3 3F57 ....|R-- .... ....
 C-4|..|C-2 2A.F ....|E-3 3F2F ....|--- .... ....
....|..|--- .... ....|B-3 3F.F ....|R-- .... ....
 C-4|..|C-2 2F.A ....|C-2 2A.F ....|A-3 4F2A ....
....|..|--- .... ....|G-3 4F1F ....|G-3 4F1F ....
....|..|C-2 2F.7 ....|C-5 6F.A ....|C-5 6F.7 ....
....|..|--- .... ....|B-3 4F3F ....|B-3 4F3F ....
 C-4|..|C-2 2A.F ....|E-3 3F2F ....|R-- .... ....
....|..|--- .... ....|G-3 3F6F ....|R-- .... ....
 C-4|..|C-2 2F.A ....|C-2 2A.F ....|--- .... ....
....|..|--- .... ....|B-3 3F.A ....|R-- .... ....
....|..|C-2 2F.7 ....|A-3 4F27 ....|A-3 4F27 ....
....|..|--- .... ....|G-3 4F1A ....|G-3 4F1A ....
 C-4|..|C-2 2A.F ....|E-3 3F2F ....|B-4 6F.F ....
....|..|--- .... ....|G-3 3F6F ....|B-3 4F3A ....
....|..|C-2 2F.A ....|E-3 3F2A ....|R-- .... ....
....|..|--- .... ....|G-3 3F6A ....|--- .... ....
....|..|C-2 2F.7 ....|E-3 3F27 ....|--- .... ....
....|..|--- .... ....|B-3 3F.7 ....|R-- .... ....
 C-4|..|C-2 2A.F ....|E-3 3F2F ....|B-4 6F.F ....
....|..|--- .... ....|G-3 3F6F ....|G-3 4F17 ....
 C-3|..|C-2 2F.A ....|C-3 2C.F ....|B-4 6F.A ....
 C-4|..|--- .... ....|C-2 2A.F ....|B-3 4F37 ....
....|..|C-2 2F.7 ....|E-3 3F27 ....|R-- .... ....
....|..|--- .... ....|G-3 3F67 ....|--- .... ....
 C-4|..|C-2 2A.F ....|E-3 3F2F ....|C-5 6F.F ....
....|..|--- .... ....|G-3 3F6F ....|R-- .... ....
....|..|C-2 2F.A ....|E-3 3F2A ....|B-4 6F.A ....
....|..|--- .... ....|G-3 3F6A ....|--- .... ....
....|..|C-2 2F.7 ....|B-4 6F.A ....|B-4 6F.7 ....
....|..|R-- .... ....|B-4 6F.F ....|B-4 6F.F ....
 C-3|..|C-1 2A.F ....|G-3 4F1F ....|G-3 4F1F ....
....|..|--- .... ....|B-3 3F.F ....|--- .... ....
 C-4|..|C-2 2F.A ....|C-2 2A.F ....|C-5 6F.A ....
....|..|--- .... ....|G-3 3F6A ....|R-- .... ....
....|..|C-2 2F.7 ....|B-4 6F.A ....|B-4 6F.7 ....
....|..|--- .... ....|R-- .... ....|R-- .... ....
 C-4|..|C-2 2A.F ....|G-3 4F1F ....|A-4 6F.F ....
....|..|R-- .... ....|G-3 3F6F ....|B-4 6F.A ....
....|..|C-1 2F.A ....|G-3 4F1A ....|G-3 4F1F ....
....|..|--- .... ....|B-3 3F.A ....|R-- .... ....
....|..|C-2 2F.7 ....|C-5 6F.A ....|C-5 6F.7 ....
....|..|--- .... ....|G-3 3F67 ....|R-- .... ....
 C-4|..|C-2 2A.F ....|A-3 4F2F ....|G-4 6F.F ....
....|..|--- .... ....|G-3 3F6F ....|A-3 4F2F ....
 C-3|..|C-2 2F.A ....|C-3 2C.F ....|A-4 6F.A ....
 C-4|..|R-- .... ....|C-2 2A.F ....|B-4 6F.7 ....
....|..|C-1 2F.7 ....|C-1 2F.A ....|G-3 4F1A ....
....|..|--- .... ....|B-3 3F.7 ....|R-- .... ....
 C-4|..|C-2 2A.F ....|E-3 3F2F ....|R-- .... ....
....|..|--- .... ....|G-3 3F6F ....|B-4 6F.F ....
 C-4|..|C-2 2F.A ....|C-2 2A.F ....|G-4 6F.A ....
....|..|--- .... ....|G-3 4F1F ....|G-3 4F1F ....
....|..|C-2 2F.7 ....|A-4 6F.A ....|A-4 6F.7 ....
....|..|R-- .... ....|B-3 4F3F ....|B-3 4F3F ....
 D-3|..|D-1 2A.F ....|F#3 3FFF ....|R-- .... ....
....|..|--- .... ....|D-5 6F.F ....|D-5 6F.F ....
....|..|C-2 2F.A ....|E-3 3F2A ....|R-- .... ....
....|..|--- .... ....|G-3 3F6A ....|B-4 6F.A ....
....|..|C-2 2F.7 ....|G-4 6F.A ....|G-4 6F.7 ....
....|..|--- .... ....|G-3 4F1A ....|G-3 4F1A ....
 D-4|..|D-2 2A.F ....|F#3 3FFF ....|R-- .... ....
....|..|R-- .... ....|F#3 3F3F ....|B-4 6F.F ....
....|..|D-1 2F.A ....|F#3 3FFA ....|B-3 4F3A ....
....|..|--- .... ....|R-- .... ....|D-5 6F.A ....
....|..|C-2 2F.7 ....|C-3 2F.7 ....|R-- .... ....
....|..|--- .... ....|B-4 6F.A ....|B-4 6F.7 ....
 D-4|..|D-2 2A.F ....|F#3 3FFF ....|R-- .... ....
....|..|--- .... ....|D-5 6F.F ....|D-5 6F.F ....
....|..|D-2 2F.A ....|F#3 3FFA ....|G-3 4F17 ....
....|..|R-- .... ....|F#3 3F3A ....|B-4 6F.A ....
....|..|D-1 2F.7 ....|D-1 2F.A ....|B-3 4F37 ....
....|..|--- .... ....|D-5 6F.A ....|D-5 6F.7 ....
 D-4|..|D-2 2A.F ....|F#3 3FFF ....|B-4 6F.F ....
....|..|--- .... ....|F#3 3F.F ....|R-- .... ....
....|..|D-2 2F.A ....|F#3 3FFA ....|--- .... ....
....|..|--- .... ....|R-- .... ....|D-5 6F.A ....
....|..|D-2 2F.7 ....|D-3 2F.7 ....|R-- .... ....
....|..|R-- .... ....|R-- .... ....|B-4 6F.7 ....
 E-3|..|E-1 2A.F ....|G-3 4F1F ....|G-3 4F1F ....
....|..|--- .... ....|E-5 6F.F ....|E-5 6F.F ....
 E-4|..|D-2 2F.A ....|E-2 2A.F ....|B-4 6F.A ....
....|..|--- .... ....|F#3 3F.A ....|R-- .... ....
....|..|D-2 2F.7 ....|F#3 3FF7 ....|--- .... ....
....|..|--- .... ....|R-- .... ....|D-5 6F.7 ....
 E-4|..|E-2 2A.F ....|G-3 4F1F ....|G-3 4F1F ....
....|..|R-- .... ....|R-- .... ....|--- .... ....
....|..|E-1 2F.A ....|G-3 4F1A ....|G-3 4F1A ....
....|..|--- .... ....|D-5 6F.7 ....|R-- .... ....
....|..|D-2 2F.7 ....|B-4 6F.A ....|B-4 6F.7 ....
....|..|--- .... ....|F#3 3F.7 ....|R-- .... ....
 E-4|..|E-2 2A.F ....|A-3 4F2F ....|A-3 4F2F ....
....|..|--- .... ....|R-- .... ....|R-- .... ....
....|..|E-2 2F.A ....|G-3 4F1A ....|G-3 4F1A ....
....|..|R-- .... ....|R-- .... ....|--- .... ....
....|..|E-1 2F.7 ....|E-1 2F.A ....|G-3 4F17 ....
....|..|--- .... ....|E-5 6F.A ....|R-- .... ....
 E-4|..|E-2 2A.F ....|B-3 3FDF ....|--- .... ....
....|..|--- .... ....|R-- .... ....|R-- .... ....
....|..|E-2 2F.A ....|A-3 4F2A ....|A-3 4F2A ....
....|..|--- .... ....|G-3 4F1F ....|G-3 4F1F ....
....|..|E-2 2F.7 ....|G-3 4F17 ....|G-3 4F17 ....
....|..|--- .... ....|B-3 4F3F ....|B-3 4F3F ....
 E-4|..|E-2 2A.F ....|B-3 3FDF ....|R-- .... ....
....|..|--- .... ....|R-- .... ....|R-- .... ....
....|..|E-2 2F.A ....|B-3 3FDA ....|--- .... ....
....|..|--- .... ....|R-- .... ....|R-- .... ....
....|..|E-2 2F.7 ....|A-3 4F27 ....|A-3 4F27 ....
....|..|--- .... ....|G-3 4F1A ....|G-3 4F1A ....
 E-4|..|E-2 2A.F ....|B-3 3FDF ....|--- .... ....
....|..|--- .... ....|B-3 3F.F ....|B-3 4F3A ....
....|..|E-2 2F.A ....|B-3 3FDA ....|R-- .... ....
....|..|--- .... ....|E-5 6F.7 ....|--- .... ....
....|..|E-2 2F.7 ....|B-3 3FD7 ....|--- .... ....
....|..|--- .... ....|R-- .... ....|R-- .... ....
 E-4|..|E-2 2A.F ....|B-3 3FDF ....|--- .... ....
....|..|--- .... ....|G-3 4F17 ....|G-3 4F17 ....
....|..|E-2 2F.A ....|B-3 3FDA ....|--- .... ....
 E-4|..|--- .... ....|E-2 2A.F ....|B-3 4F37 ....
....|..|E-2 2F.7 ....|B-3 3FD7 ....|R-- .... ....
....|..|--- .... ....|R-- .... ....|R-- .... ....
 E-4|..|E-2 2A.F ....|B-3 3FDF ....|D-5 6F.F ....
....|..|--- .... ....|R-- .... ....|--- .... ....
 E-4|..|E-2 2F.A ....|E-2 2A.F ....|--- .... ....
....|..|--- .... ....|--- .... ....|--- .... ....
....|..|E-2 2F.7 ....|B-3 3FD7 ....|--- .... ....
....|..|R-- .... ....|B-2 2F.7 ....|--- .... ....
 D-3|..|D-1 2A.F ....|G-3 4F1F ....|G-3 4F1F ....
....|..|--- .... ....|--- .... ....|R-- .... ....
....|..|E-2 2F.A ....|B-3 3FDA ....|D-5 6F.A ....
....|..|--- .... ....|R-- .... ....|R-- .... ....
....|..|E-2 2F.7 ....|B-3 3FD7 ....|--- .... ....
....|..|--- .... ....|--- .... ....|--- .... ....
 D-4|..|D-2 2A.F ....|G-3 4F1F ....|G-3 4F1F ....
 A-3|..|R-- .... ....|A-2 2C.F ....|--- .... ....
....|..|D-1 2F.A ....|G-3 4F1A ....|G-3 4F1A ....
....|..|--- .... ....|R-- .... ....|R-- .... ....
....|..|E-2 2F.7 ....|D-5 6F.A ....|D-5 6F.7 ....
....|..|--- .... ....|R-- .... ....|R-- .... ....
 D-4|..|D-2 2A.F ....|A-3 4F2F ....|A-3 4F2F ....
....|..|--- .... ....|--- .... ....|--- .... ....
....|..|D-2 2F.A ....|G-3 4F1A ....|G-3 4F1A ....
 D-4|..|R-- .... ....|D-2 2A.F ....|--- .... ....
....|..|D-1 2F.7 ....|D-1 2F.A ....|G-3 4F17 ....
....|..|--- .... ....|R-- .... ....|R-- .... ....
 D-4|..|D-2 2A.F ....|A-3 3FCF ....|--- .... ....
....|..|--- .... ....|B-4 6F.F ....|B-4 6F.F ....
 D-4|..|D-2 2F.A ....|D-2 2A.F ....|A-3 4F2A ....
....|..|--- .... ....|G-3 4F1F ....|G-3 4F1F ....
....|..|D-2 2F.7 ....|D-3 2F.7 ....|G-3 4F17 ....
....|..|--- .... ....|B-3 4F3F ....|B-3 4F3F ....
 D-4|..|D-2 2A.F ....|A-3 3FCF ....|R-- .... ....
....|..|--- .... ....|D-5 6F.F ....|D-5 6F.F ....
 D-4|..|D-2 2F.A ....|D-3 2C.F ....|R-- .... ....
 D-4|..|--- .... ....|D-2 2A.F ....|B-4 6F.A ....
....|..|D-2 2F.7 ....|A-3 4F27 ....|A-3 4F27 ....
....|..|--- .... ....|G-3 4F1A ....|G-3 4F1A ....
 D-4|..|D-2 2A.F ....|A-3 3FCF ....|R-- .... ....
....|..|--- .... ....|A-3 3FEF ....|B-4 6F.F ....
....|..|D-2 2F.A ....|A-3 3FCA ....|B-3 4F3A ....
....|..|--- .... ....|R-- .... ....|D-5 6F.A ....
....|..|D-2 2F.7 ....|A-3 3FC7 ....|R-- .... ....
....|..|--- .... ....|B-4 6F.A ....|B-4 6F.7 ....
 D-4|..|D-2 2A.F ....|A-3 3FCF ....|R-- .... ....
....|..|--- .... ....|D-5 6F.F ....|D-5 6F.F ....
....|..|D-2 2F.A ....|A-3 3FCA ....|G-3 4F17 ....
 D-4|..|--- .... ....|D-2 2A.F ....|B-4 6F.A ....
....|..|D-2 2F.7 ....|A-3 3FC7 ....|B-3 4F37 ....
....|..|--- .... ....|D-5 6F.A ....|D-5 6F.7 ....
 D-4|..|D-2 2A.F ....|A-3 3FCF ....|B-4 6F.F ....
....|..|--- .... ....|F#4 3F.F ....|R-- .... ....
 D-4|..|D-2 2F.A ....|D-2 2A.F ....|--- .... ....
....|..|--- .... ....|R-- .... ....|D-5 6F.A ....
....|..|D-2 2F.7 ....|D-3 2F.7 ....|R-- .... ....
....|..|R-- .... ....|D-2 2F.A ....|B-4 6F.7 ....

[Pattern24]
 C-3|..|C-1 2A.F ....|G-3 4F1F ....|G-3 4F1F ....
....|..|--- .... ....|E-3 3F5F ....|--- .... ....
....|..|D-2 2F.A ....|A-3 3FCA ....|C-5 6F.A ....
 C-3|..|--- .... ....|C-3 2C.F ....|R-- .... ....
....|..|D-2 2F.7 ....|B-4 6F.A ....|B-4 6F.7 ....
....|..|--- .... ....|--- .... ....|--- .... ....
 C-4|..|C-2 2A.F ....|G-3 4F1F ....|C-5 6F.F ....
....|..|R-- .... ....|D-2 2F.7 ....|G-3 4F1F ....
....|..|C-1 2F.A ....|G-3 4F1A ....|G-3 4F1A ....
....|..|--- .... ....|R-- .... ....|R-- .... ....
....|..|D-2 2F.7 ....|C-5 6F.A ....|C-5 6F.7 ....
....|..|--- .... ....|C-3 2F.A ....|R-- .... ....
 C-4|..|C-2 2A.F ....|A-3 4F2F ....|B-4 6F.F ....
....|..|--- .... ....|G-3 3F6F ....|A-3 4F2F ....
 C-3|..|C-2 2F.A ....|C-3 2C.F ....|C-5 6F.A ....
 C-4|..|R-- .... ....|C-2 2A.F ....|G-3 4F1A ....
....|..|C-1 2F.7 ....|C-1 2F.A ....|G-3 4F17 ....
....|..|--- .... ....|E-3 3F57 ....|R-- .... ....
 C-4|..|C-2 2A.F ....|E-3 3F2F ....|C-5 6F.F ....
....|..|--- .... ....|B-3 3F.F ....|R-- .... ....
 C-4|..|C-2 2F.A ....|C-2 2A.F ....|B-4 6F.A ....
....|..|--- .... ....|G-3 4F1F ....|G-3 4F1F ....
....|..|C-2 2F.7 ....|C-5 6F.A ....|C-5 6F.7 ....
....|..|--- .... ....|B-3 4F3F ....|B-3 4F3F ....
 C-4|..|C-2 2A.F ....|E-3 3F2F ....|R-- .... ....
....|..|--- .... ....|G-3 3F6F ....|R-- .... ....
 C-4|..|C-2 2F.A ....|C-2 2A.F ....|C-5 6F.A ....
....|..|--- .... ....|R-- .... ....|R-- .... ....
....|..|C-2 2F.7 ....|B-4 6F.A ....|B-4 6F.7 ....
....|..|--- .... ....|G-3 4F1A ....|G-3 4F1A ....
 C-4|..|C-2 2A.F ....|E-3 3F2F ....|C-5 6F.F ....
....|..|--- .... ....|G-3 3F6F ....|B-3 4F3A ....
....|..|C-2 2F.A ....|C-3 2F.A ....|R-- .... ....
....|..|--- .... ....|G-3 3F6A ....|--- .... ....
....|..|C-2 2F.7 ....|C-5 6F.A ....|C-5 6F.7 ....
....|..|--- .... ....|B-3 3F.7 ....|R-- .... ....
 C-4|..|C-2 2A.F ....|E-3 3F2F ....|--- .... ....
....|..|--- .... ....|G-3 3F6F ....|B-4 6F.F ....
 C-3|..|C-2 2F.A ....|C-3 2C.F ....|C-5 6F.A ....
 C-4|..|--- .... ....|C-2 2A.F ....|G-3 4F17 ....
....|..|C-2 2F.7 ....|E-3 3F27 ....|B-3 4F37 ....
....|..|--- .... ....|G-3 3F67 ....|R-- .... ....
 C-4|..|C-2 2A.F ....|E-3 3F2F ....|C-5 6F.F ....
....|..|--- .... ....|G-3 3F6F ....|R-- .... ....
....|..|C-2 2F.A ....|E-3 3F2A ....|--- .... ....
....|..|--- .... ....|G-3 3F6A ....|B-4 6F.A ....
....|..|C-2 2F.7 ....|C-5 6F.A ....|C-5 6F.7 ....
....|..|R-- .... ....|C-2 2F.7 ....|R-- .... ....
 C-3|..|C-1 2A.F ....|G-3 4F1F ....|G-3 4F1F ....
....|..|--- .... ....|B-3 3F.F ....|--- .... ....
 C-4|..|C-2 2F.A ....|C-2 2A.F ....|C-5 6F.A ....
....|..|--- .... ....|C-3 2F.A ....|R-- .... ....
....|..|C-2 2F.7 ....|E-3 3F27 ....|--- .... ....
....|..|--- .... ....|B-4 6F.A ....|B-4 6F.7 ....
 C-4|..|C-2 2A.F ....|G-3 4F1F ....|C-5 6F.F ....
....|..|R-- .... ....|G-3 3F6F ....|G-3 4F1F ....
....|..|C-1 2F.A ....|C-3 2F.A ....|G-3 4F1A ....
....|..|--- .... ....|B-3 3F.A ....|R-- .... ....
....|..|C-2 2F.7 ....|C-5 6F.A ....|C-5 6F.7 ....
....|..|--- .... ....|G-3 3F67 ....|R-- .... ....
 C-4|..|C-2 2A.F ....|A-3 4F2F ....|A-3 4F2F ....
....|..|--- .... ....|G-3 3F6F ....|B-4 6F.F ....
 C-3|..|C-2 2F.A ....|C-3 2C.F ....|C-5 6F.A ....
 C-4|..|R-- .... ....|C-2 2A.F ....|G-3 4F1A ....
....|..|C-1 2F.7 ....|C-1 2F.A ....|G-3 4F17 ....
....|..|--- .... ....|B-3 3F.7 ....|R-- .... ....
 C-4|..|C-2 2A.F ....|E-3 3F2F ....|C-5 6F.F ....
....|..|--- .... ....|G-3 3F6F ....|R-- .... ....
 C-4|..|C-2 2F.A ....|C-2 2A.F ....|A-3 4F2A ....
....|..|--- .... ....|G-3 4F1F ....|G-3 4F1F ....
....|..|C-2 2F.7 ....|C-5 6F.A ....|C-5 6F.7 ....
....|..|R-- .... ....|B-3 4F3F ....|B-3 4F3F ....
 D-3|..|D-1 2A.F ....|F#3 3FFF ....|R-- .... ....
....|..|--- .... ....|R-- .... ....|R-- .... ....
....|..|C-2 2F.A ....|E-3 3F2A ....|C-5 6F.A ....
....|..|--- .... ....|G-3 3F6A ....|R-- .... ....
....|..|C-2 2F.7 ....|C-3 2F.7 ....|A-3 4F27 ....
....|..|--- .... ....|G-3 4F1A ....|G-3 4F1A ....
 D-4|..|D-2 2A.F ....|F#3 3FFF ....|C-5 6F.F ....
....|..|R-- .... ....|F#3 3F3F ....|B-3 4F3A ....
....|..|D-1 2F.A ....|F#3 3FFA ....|R-- .... ....
....|..|--- .... ....|R-- .... ....|R-- .... ....
....|..|C-2 2F.7 ....|C-5 6F.A ....|C-5 6F.7 ....
....|..|--- .... ....|G-3 3F67 ....|R-- .... ....
 D-4|..|D-2 2A.F ....|F#3 3FFF ....|B-4 6F.F ....
....|..|--- .... ....|G-3 4F17 ....|G-3 4F17 ....
....|..|D-2 2F.A ....|F#3 3FFA ....|C-5 6F.A ....
....|..|R-- .... ....|F#3 3F3A ....|B-3 4F37 ....
....|..|D-1 2F.7 ....|D-1 2F.A ....|R-- .... ....
....|..|--- .... ....|R-- .... ....|R-- .... ....
 D-4|..|D-2 2A.F ....|F#3 3FFF ....|A-4 6F.F ....
....|..|--- .... ....|F#3 3F.F ....|--- .... ....
....|..|D-2 2F.A ....|F#3 3FFA ....|B-4 6F.A ....
....|..|--- .... ....|B-4 6F.7 ....|--- .... ....
....|..|D-2 2F.7 ....|C-5 6F.A ....|C-5 6F.7 ....
....|..|R-- .... ....|R-- .... ....|--- .... ....
 E-3|..|E-1 2A.F ....|E-3 3F2F ....|B-4 6F.F ....
....|..|--- .... ....|R-- .... ....|R-- .... ....
....|..|D-2 2F.A ....|F#3 3FFA ....|A-4 6F.A ....
....|..|--- .... ....|A-4 6F.F ....|A-4 6F.F ....
....|..|D-2 2F.7 ....|B-4 6F.A ....|B-4 6F.7 ....
....|..|--- .... ....|--- .... ....|--- .... ....
....|..|--- .... ....|G-4 6F.F ....|G-4 6F.F ....
....|..|R-- .... ....|R-- .... ....|--- .... ....
....|..|E-1 2F.A ....|E-3 3F2A ....|B-4 6F.A ....
....|..|--- .... ....|R-- .... ....|R-- .... ....
....|..|D-2 2F.7 ....|A-4 6F.A ....|A-4 6F.7 ....
....|..|--- .... ....|F#3 3F.7 ....|A-4 6F.A ....
....|..|--- .... ....|R-- .... ....|--- .... ....
....|..|--- .... ....|--- .... ....|--- .... ....
....|..|--- .... ....|C-5 6F.7 ....|G-4 6F.A ....
....|..|R-- .... ....|R-- .... ....|--- .... ....
....|..|E-1 2F.7 ....|E-3 3F5F ....|B-4 6F.7 ....
....|..|R-- .... ....|R-- .... ....|R-- .... ....
....|..|--- .... ....|R-- .... ....|R-- .... ....
....|..|--- .... ....|A-4 6F.A ....|A-4 6F.7 ....
....|..|--- .... ....|B-4 6F.7 ....|--- .... ....
....|..|--- .... ....|--- .... ....|--- .... ....
....|..|--- .... ....|G-4 6F.A ....|G-4 6F.7 ....
....|..|--- .... ....|--- .... ....|--- .... ....
....|..|--- .... ....|E-3 3F5A ....|--- .... ....
....|..|R-- .... ....|R-- .... ....|R-- .... ....
....|..|--- .... ....|A-4 6F.7 ....|--- .... ....
....|..|--- .... ....|--- .... ....|--- .... ....
....|..|--- .... ....|--- .... ....|--- .... ....
....|..|--- .... ....|--- .... ....|--- .... ....
....|..|--- .... ....|--- .... ....|--- .... ....
....|..|--- .... ....|R-- .... ....|--- .... ....
....|..|--- .... ....|E-3 3F57 ....|--- .... ....
....|..|R-- .... ....|R-- .... ....|R-- .... ....
....|..|--- .... ....|R-- .... ....|--- .... ....
....|..|--- .... ....|A-4 6F.7 ....|--- .... ....
