[Module]
VortexTrackerII=0
Version=3.5
Title=6me[29]-4me+,8p[4]-7p[3]+,9m[6]-10m[u]+
Author=oisee ^ 4d 29.05.2010
NoteTable=4
ChipFreq=1750000
Speed=4
PlayOrder=L0,1,2,3,4,5,6,7,8,9,10,11,12,13,14,15,16,17,18,19,20,21,22,23,24,13,14,15,28,29,30,31,32,33,34,35,36,37,38,39,40,41,14,15,28,45,14,15,48,49

[Ornament1]
L0,0,4,4,7,7

[Ornament2]
L0,0,3,3,7,7

[Ornament3]
L0,0,5,5

[Ornament4]
L0,0,7,7

[Ornament5]
L0,0,4,4

[Ornament6]
L0,0,4,4,7,7,12,12

[Ornament7]
L0,0,4,4,12,12

[Ornament8]
L0,0,4,4,9,9

[Ornament9]
L0,0,12,12

[Ornament10]
L0,0,7,7,12,12,16,16

[Ornament11]
L0,0,12,12,16,16

[Ornament12]
L0,0,5,5,9,9

[Ornament13]
L0,0,5,5,8,8

[Ornament14]
L0,0,3,3,8,8

[Ornament15]
L0,0,2,2

[Sample1]
TnE +000_ +00_ F_
TnE +000_ +00_ F_
TnE +000_ +00_ F_
TnE +000_ +00_ D_
TnE +000_ +00_ B_
TnE +000_ +00_ B_ L

[Sample2]
TnE +000_ +00_ F_ L

[Sample3]
TnE +001_ +00_ F_
TnE +002_ +00_ F_
TnE +001_ +00_ E_
TnE +002_ +00_ E_
TnE +000_ +00_ E_ L
TnE -001_ +00_ E_
TnE -002_ +00_ E_
TnE -001_ +00_ E_
TnE +000_ +00_ E_
TnE +001_ +00_ E_
TnE +002_ +00_ E_
TnE +001_ +00_ E_

[Sample4]
TnE +001_ +00_ F_
TnE +002_ +00_ F_
TnE +001_ +00_ E_
TnE +002_ +00_ E_
TnE +000_ +00_ E_ L
TnE -001_ +00_ E_
TnE -002_ +00_ E_
TnE -001_ +00_ E_
TnE +000_ +00_ E_
TnE +001_ +00_ E_
TnE +002_ +00_ E_
TnE +001_ +00_ E_

[Sample5]
TnE +000_ +00_ F_
TnE +000_ +00_ F_
tne +000_ +00_ 0_ L

[Sample6]
TnE -001_ +00_ F_ L

[Sample7]
TnE +006_ +00_ F_ L

[Sample8]
tNe +000_ +00_ F_
tNe +000_ +00_ B_
tNe +000_ +00_ 7_
tNe +000_ +00_ 6- L

[Sample9]
TnE +080_ +00_ F_
TnE +100_ +00_ E_
TnE +180_ +00_ E_
TnE +200_ +00_ E_
TnE +240_ +00_ D_
TnE +280_ +00_ D_
TnE +2C0_ +00_ D_
TnE +300_ +00_ C_
TnE +300_ +00_ C_
TnE +340_ +00_ C_
TnE +340_ +00_ C_
TnE +380_ +00_ B_
TnE +380_ +00_ B_
TnE +400_ +00_ B_
TnE +400_ +00_ B_
TnE +480_ +00_ A_
TnE +500_ +00_ 9_
TnE +580_ +00_ 7_
TnE +600_ +00_ 4_
TnE +680_ +00_ 1_
TnE +000_ +00_ 0_ L

[Sample10]
Tne +1C0_ +00_ F_
Tne +280_ +00_ E_
Tne +380_ +00_ C_
Tne +440_ +00_ A_
Tne +480_ +00_ 8_
TnE +000_ +00_ 0_ L

[Sample11]
TNe +200_ -0A_ F_
tNe +000_ +0F_ A_
TNe +200_ -07_ E_
tNe +000_ +0E_ B- L

[Sample12]
TNE +0A0_ +05_ F_
TNE +140_ +02_ D_
TNE +140_ +02_ B_
TNE +100_ +00_ A_ L
TNE +140_ +00_ A_
TNE +200_ +00_ A-

[Sample13]
Tne +200_ +00_ F_
Tne +2C0_ +00_ F_
Tne +380_ +00_ E_
Tne +500_ +00_ C_
Tne +520_ +00_ 9_
tne +000_ +00_ 0_ L

[Sample14]
TNE -100_ +00_ F_
TNE -100_ +00_ D_
TNE -100_ +00_ A_
TNE -100_ +00_ 5_
tne +000_ +00_ 0_ L

[Sample15]
TNE -100_ +00_ 5_
TNE -100_ +00_ 8_
TNE -100_ +00_ B_
TNE -100_ +00_ F_
TNe -100_ +00_ 9- L

[Sample16]
TnE +000_ +00_ C_
TnE +000_ +00_ E_
TnE +000_ +00_ F_
TnE +000_ +00_ F_
TnE +000_ +00_ E_
TnE +000_ +00_ D_
TnE +000_ +00_ C_
TnE +000_ +00_ C_ L
TnE +001_ +00_ C_
TnE +002_ +00_ C_
TnE +003_ +00_ C_
TnE +001_ +00_ C_
TnE +000_ +00_ C_
TnE -001_ +00_ C_
TnE -002_ +00_ C_
TnE -003_ +00_ C_
TnE -001_ +00_ C_
TnE +000_ +00_ C_
TnE +000_ +00_ C_

[Sample17]
Tne +1C0_ +00_ F_
Tne +280_ +00_ D_
Tne +380_ +00_ 7_
TNE +000_ +00_ 0_ L

[Sample18]
TnE -00C_ +00_ 0_ L

[Sample19]
TNe +000_ +00_ F_
TNe +000_ +00_ C_
TNe +000_ +00_ 6_
TNe +000_ +01_ A- L

[Sample20]
TNE +140_ +00_ F_
tNE +000_ +00_ B- L

[Sample21]
tNE +000_ +00_ D_
tNE +000_ +00_ 8_
tNE +000_ +00_ 1_
TNE +000_ +00_ 0_ L

[Sample22]
TnE +000_ +00_ D_ L
TnE +000_ +00_ D_
tne +000_ +00_ 9_
tne +000_ +00_ 9_
TnE +000_ +00_ D_
TnE +000_ +00_ D_
tne +000_ +00_ 9_
tne +000_ +00_ 9_
TnE +000_ +00_ D_
TnE +000_ +00_ D_
TnE +000_ +00_ D_
TnE +000_ +00_ D_
TnE +000_ +00_ D_
TnE +000_ +00_ D_
tne +000_ +00_ 9_
tne +000_ +00_ 9_

[Sample23]
TnE +000_ +00_ F_ L
TnE +010_ +01_ F_
TnE +010_ +01_ F_
TnE +010_ +01_ F_
TnE +010_ +01_ F_
TnE +000_ +00_ F_
TnE +000_ +00_ F_
TnE -010_ -01_ F_
TnE -010_ -01_ F_
TnE -010_ -01_ F_
TnE -010_ -01_ F_
TnE +000_ +00_ F_

[Sample24]
TNe +000_ -01_ C_
TNe +000_ -01_ D_
TNe +000_ -01_ E_
TNe +000_ -01_ F_
TNe +000_ -01_ F_
TNe +000_ -01_ F_
TNe +000_ -01_ F_
TNe +000_ -01_ F_
TNe +000_ -01_ E_
TNe +000_ -01_ E_
TNe +000_ -01_ E_
TNe +000_ -01_ F_
TNe +000_ -01_ F_ L

[Sample25]
TNE +000_ +00_ F_
TNE +000_ +00_ F_ L
TNE +000_ +00_ F_
TNE +000_ +00_ F_
TNE +000_ +00_ F-

[Sample26]
tne +000_ +00_ 0_ L

[Sample27]
TnE +100_ +05_ F_
TnE +200_ +02_ A_
TnE +300_ +02_ 7_
TNE +400_ +00_ 3- L

[Sample28]
tne +000_ +00_ 0_ L

[Sample29]
tnE +000_ +00_ 0_ L

[Sample30]
TnE +000_ +00_ C+ L

[Sample31]
TNe +1C0_ +00_ F_
Tne +280_ +00_ E_
Tne +380_ +00_ C_
Tne +440_ +00_ A_
Tne +480_ +00_ 8_
TnE +000_ +00_ 0_ L

[Pattern0]
 B-4|..|B-2 2A.F ....|--- .... ....|--- .... ....
....|..|R-- .... ....|--- .... ....|--- .... ....
....|..|--- .... ....|--- .... ....|--- .... ....
....|..|--- .... ....|--- .... ....|--- .... ....
 B-4|..|B-2 2A.F ....|--- .... ....|--- .... ....
....|..|R-- .... ....|--- .... ....|--- .... ....
....|..|B-2 2F.A ....|--- .... ....|--- .... ....
....|..|R-- .... ....|--- .... ....|--- .... ....
 B-4|..|B-2 2A.F ....|--- .... ....|--- .... ....
....|..|R-- .... ....|--- .... ....|--- .... ....
....|..|B-2 2F.A ....|--- .... ....|--- .... ....
....|..|R-- .... ....|--- .... ....|--- .... ....
 B-4|..|B-2 2A.F ....|--- .... ....|--- .... ....
....|..|R-- .... ....|--- .... ....|--- .... ....
....|..|B-2 2F.A ....|--- .... ....|--- .... ....
....|..|R-- .... ....|--- .... ....|--- .... ....
 B-4|..|B-2 2A.F ....|--- .... ....|--- .... ....
....|..|R-- .... ....|--- .... ....|--- .... ....
....|..|B-2 2F.A ....|--- .... ....|--- .... ....
....|..|R-- .... ....|--- .... ....|--- .... ....
 B-4|..|B-2 2A.F ....|--- .... ....|--- .... ....
....|..|R-- .... ....|--- .... ....|--- .... ....
....|..|B-2 2F.A ....|--- .... ....|--- .... ....
....|..|R-- .... ....|--- .... ....|--- .... ....
 B-4|..|B-2 2A.F ....|--- .... ....|--- .... ....
....|..|R-- .... ....|--- .... ....|--- .... ....
....|..|B-2 2F.A ....|--- .... ....|--- .... ....
....|..|R-- .... ....|--- .... ....|--- .... ....
 B-4|..|B-2 2A.F ....|--- .... ....|--- .... ....
....|..|R-- .... ....|--- .... ....|--- .... ....
....|..|B-2 2F.A ....|--- .... ....|--- .... ....
....|..|R-- .... ....|--- .... ....|--- .... ....
 B-4|..|B-2 2A.F ....|--- .... ....|--- .... ....
....|..|R-- .... ....|--- .... ....|--- .... ....
....|..|B-2 2F.A ....|--- .... ....|--- .... ....
....|..|R-- .... ....|--- .... ....|--- .... ....
 B-4|..|B-2 2A.F ....|--- .... ....|--- .... ....
....|..|R-- .... ....|--- .... ....|--- .... ....
....|..|B-2 2F.A ....|--- .... ....|--- .... ....
....|..|R-- .... ....|--- .... ....|--- .... ....
 B-4|..|B-2 2A.F ....|--- .... ....|--- .... ....
....|..|R-- .... ....|--- .... ....|--- .... ....
....|..|B-2 2F.A ....|--- .... ....|--- .... ....
....|..|R-- .... ....|--- .... ....|--- .... ....
 B-4|..|B-2 2A.F ....|--- .... ....|--- .... ....
....|..|R-- .... ....|--- .... ....|--- .... ....
....|..|B-2 2F.A ....|--- .... ....|--- .... ....
....|..|R-- .... ....|--- .... ....|--- .... ....
 B-4|..|B-2 2A.F ....|--- .... ....|--- .... ....
....|..|R-- .... ....|--- .... ....|--- .... ....
....|..|B-2 2F.A ....|--- .... ....|--- .... ....
....|..|R-- .... ....|--- .... ....|--- .... ....
 B-4|..|B-2 2A.F ....|--- .... ....|--- .... ....
....|..|R-- .... ....|--- .... ....|--- .... ....
....|..|B-2 2F.A ....|--- .... ....|--- .... ....
....|..|R-- .... ....|--- .... ....|--- .... ....
 B-4|..|B-2 2A.F ....|--- .... ....|--- .... ....
....|..|R-- .... ....|--- .... ....|--- .... ....
....|..|B-2 2F.A ....|--- .... ....|--- .... ....
....|..|R-- .... ....|--- .... ....|--- .... ....
 B-4|..|B-2 2A.F ....|--- .... ....|--- .... ....
....|..|R-- .... ....|--- .... ....|--- .... ....
....|..|B-2 2F.A ....|--- .... ....|--- .... ....
....|..|R-- .... ....|--- .... ....|--- .... ....

[Pattern1]
 B-4|..|B-2 2A.F ....|--- .... ....|A-4 6F.F ....
....|..|R-- .... ....|--- .... ....|--- .... ....
....|..|B-2 2F.A ....|--- .... ....|--- .... ....
....|..|R-- .... ....|--- .... ....|--- .... ....
 B-4|..|B-2 2A.F ....|--- .... ....|--- .... ....
....|..|R-- .... ....|--- .... ....|--- .... ....
....|..|B-2 2F.A ....|--- .... ....|A-4 6F.A ....
....|..|R-- .... ....|--- .... ....|R-- .... ....
 B-4|..|B-2 2A.F ....|--- .... ....|A-4 6F.F ....
....|..|R-- .... ....|--- .... ....|--- .... ....
....|..|B-2 2F.A ....|--- .... ....|--- .... ....
....|..|R-- .... ....|--- .... ....|--- .... ....
 B-4|..|B-2 2A.F ....|--- .... ....|A-4 6F.7 ....
....|..|R-- .... ....|--- .... ....|R-- .... ....
....|..|B-2 2F.A ....|--- .... ....|A-4 6F.A ....
....|..|R-- .... ....|--- .... ....|--- .... ....
 B-4|..|B-2 2A.F ....|--- .... ....|A-4 6F.F ....
....|..|R-- .... ....|--- .... ....|R-- .... ....
....|..|B-2 2F.A ....|--- .... ....|--- .... ....
....|..|R-- .... ....|--- .... ....|G-4 6F.F ....
 B-4|..|B-2 2A.F ....|--- .... ....|A-4 6F.7 ....
....|..|R-- .... ....|--- .... ....|E-4 6F.F ....
....|..|B-2 2F.A ....|--- .... ....|A-4 6F.A ....
....|..|R-- .... ....|--- .... ....|R-- .... ....
 B-4|..|B-2 2A.F ....|--- .... ....|--- .... ....
....|..|R-- .... ....|--- .... ....|G-4 6F.A ....
....|..|B-2 2F.A ....|--- .... ....|R-- .... ....
....|..|R-- .... ....|--- .... ....|E-4 6F.A ....
 B-4|..|B-2 2A.F ....|--- .... ....|A-4 6F.7 ....
....|..|R-- .... ....|--- .... ....|R-- .... ....
....|..|B-2 2F.A ....|--- .... ....|--- .... ....
....|..|R-- .... ....|--- .... ....|G-4 6F.7 ....
 B-4|..|B-2 2A.F ....|--- .... ....|B-4 6F.F ....
....|..|R-- .... ....|--- .... ....|E-4 6F.7 ....
....|..|B-2 2F.A ....|--- .... ....|--- .... ....
....|..|R-- .... ....|--- .... ....|R-- .... ....
 F#4|..|F#2 2A.F ....|--- .... ....|B-4 6F.F ....
....|..|R-- .... ....|--- .... ....|--- .... ....
....|..|B-2 2F.A ....|--- .... ....|B-4 6F.A ....
....|..|R-- .... ....|--- .... ....|R-- .... ....
 F#4|..|F#2 2A.F ....|--- .... ....|A-4 6F.F ....
....|..|R-- .... ....|--- .... ....|R-- .... ....
....|..|F#2 2F.A ....|--- .... ....|B-4 6F.A ....
....|..|R-- .... ....|--- .... ....|--- .... ....
 F#4|..|F#2 2A.F ....|--- .... ....|G-4 6F.F ....
....|..|R-- .... ....|--- .... ....|R-- .... ....
....|..|F#2 2F.A ....|--- .... ....|A-4 6F.A ....
....|..|R-- .... ....|--- .... ....|R-- .... ....
 F#4|..|F#2 2A.F ....|--- .... ....|B-4 6F.7 ....
....|..|R-- .... ....|--- .... ....|--- .... ....
....|..|F#2 2F.A ....|--- .... ....|G-4 6F.A ....
....|..|R-- .... ....|--- .... ....|R-- .... ....
 F#4|..|F#2 2A.F ....|--- .... ....|E-4 6F.F ....
....|..|R-- .... ....|--- .... ....|--- .... ....
....|..|F#2 2F.A ....|--- .... ....|--- .... ....
....|..|R-- .... ....|--- .... ....|--- .... ....
 F#4|..|F#2 2A.F ....|--- .... ....|G-4 6F.7 ....
....|..|R-- .... ....|--- .... ....|R-- .... ....
....|..|F#2 2F.A ....|--- .... ....|E-4 6F.A ....
....|..|R-- .... ....|--- .... ....|--- .... ....
 F#4|..|F#2 2A.F ....|--- .... ....|--- .... ....
....|..|R-- .... ....|--- .... ....|--- .... ....
....|..|F#2 2F.A ....|--- .... ....|--- .... ....
....|..|R-- .... ....|--- .... ....|R-- .... ....

[Pattern2]
 F#4|..|F#2 2A.F ....|--- .... ....|A-4 6F.F ....
....|..|R-- .... ....|--- .... ....|--- .... ....
....|..|F#2 2F.A ....|--- .... ....|--- .... ....
....|..|R-- .... ....|--- .... ....|--- .... ....
 A-3|..|A-2 2C.F ....|--- .... ....|--- .... ....
....|..|R-- .... ....|--- .... ....|--- .... ....
....|..|F#2 2F.A ....|--- .... ....|A-4 6F.A ....
....|..|R-- .... ....|--- .... ....|D-5 6F.F ....
 A-3|..|A-2 2C.F ....|--- .... ....|--- .... ....
....|..|R-- .... ....|--- .... ....|--- .... ....
....|..|A-2 2F.A ....|--- .... ....|--- .... ....
....|..|R-- .... ....|--- .... ....|R-- .... ....
 A-3|..|A-2 2C.F ....|--- .... ....|B-4 6F.F ....
....|..|R-- .... ....|--- .... ....|D-5 6F.A ....
....|..|A-2 2F.A ....|--- .... ....|--- .... ....
....|..|R-- .... ....|--- .... ....|--- .... ....
 A-3|..|A-2 2C.F ....|--- .... ....|A-4 6F.F ....
....|..|R-- .... ....|--- .... ....|R-- .... ....
....|..|A-2 2F.A ....|--- .... ....|B-4 6F.A ....
....|..|R-- .... ....|--- .... ....|D-5 6F.7 ....
 A-3|..|A-2 2C.F ....|--- .... ....|G-4 6F.F ....
....|..|R-- .... ....|--- .... ....|--- .... ....
....|..|A-2 2F.A ....|--- .... ....|A-4 6F.A ....
....|..|R-- .... ....|--- .... ....|R-- .... ....
 A-3|..|A-2 2C.F ....|--- .... ....|E-4 6F.F ....
....|..|R-- .... ....|--- .... ....|R-- .... ....
....|..|A-2 2F.A ....|--- .... ....|G-4 6F.A ....
....|..|R-- .... ....|--- .... ....|--- .... ....
 A-3|..|A-2 2C.F ....|--- .... ....|E-4 6F.F ....
....|..|R-- .... ....|--- .... ....|R-- .... ....
....|..|A-2 2F.A ....|--- .... ....|E-4 6F.A ....
....|..|R-- .... ....|--- .... ....|R-- .... ....
 A-3|..|A-2 2C.F ....|--- .... ....|G-4 6F.F ....
....|..|R-- .... ....|--- .... ....|R-- .... ....
....|..|A-2 2F.A ....|--- .... ....|G-4 6F.F ....
....|..|R-- .... ....|--- .... ....|R-- .... ....
 F#4|..|F#2 2A.F ....|--- .... ....|E-4 6F.7 ....
....|..|R-- .... ....|--- .... ....|R-- .... ....
....|..|A-2 2F.A ....|--- .... ....|G-4 6F.F ....
....|..|R-- .... ....|--- .... ....|R-- .... ....
 F#4|..|F#2 2A.F ....|--- .... ....|F#4 6F.F ....
....|..|R-- .... ....|--- .... ....|--- .... ....
....|..|F#2 2F.A ....|--- .... ....|R-- .... ....
....|..|R-- .... ....|--- .... ....|R-- .... ....
 F#4|..|F#2 2A.F ....|--- .... ....|E-4 6F.F ....
....|..|R-- .... ....|--- .... ....|R-- .... ....
....|..|F#2 2F.A ....|--- .... ....|E-4 6F.F ....
....|..|R-- .... ....|--- .... ....|--- .... ....
 F#4|..|F#2 2A.F ....|--- .... ....|R-- .... ....
....|..|R-- .... ....|--- .... ....|--- .... ....
....|..|F#2 2F.A ....|--- .... ....|G-4 6F.7 ....
....|..|R-- .... ....|--- .... ....|R-- .... ....
 A-3|..|A-2 2C.F ....|--- .... ....|F#4 6F.7 ....
....|..|R-- .... ....|--- .... ....|--- .... ....
....|..|F#2 2F.A ....|--- .... ....|R-- .... ....
....|..|R-- .... ....|--- .... ....|--- .... ....
 A-3|..|A-2 2C.F ....|--- .... ....|E-4 6F.7 ....
....|..|R-- .... ....|--- .... ....|R-- .... ....
....|..|A-2 2F.A ....|--- .... ....|E-4 6F.7 ....
....|..|R-- .... ....|--- .... ....|--- .... ....
 A-3|..|A-2 2C.F ....|--- .... ....|--- .... ....
....|..|R-- .... ....|--- .... ....|--- .... ....
....|..|A-2 2F.A ....|--- .... ....|--- .... ....
....|..|R-- .... ....|--- .... ....|--- .... ....

[Pattern3]
 B-4|..|B-2 2A.F ....|--- .... ....|A-4 6F.F ....
....|..|R-- .... ....|--- .... ....|--- .... ....
....|..|A-2 2F.A ....|--- .... ....|--- .... ....
....|..|R-- .... ....|--- .... ....|--- .... ....
 B-4|..|B-2 2A.F ....|--- .... ....|--- .... ....
....|..|R-- .... ....|--- .... ....|--- .... ....
....|..|B-2 2F.A ....|--- .... ....|A-4 6F.A ....
....|..|R-- .... ....|--- .... ....|R-- .... ....
 B-4|..|B-2 2A.F ....|--- .... ....|A-4 6F.F ....
....|..|R-- .... ....|--- .... ....|--- .... ....
....|..|B-2 2F.A ....|--- .... ....|--- .... ....
....|..|R-- .... ....|--- .... ....|--- .... ....
 B-4|..|B-2 2A.F ....|--- .... ....|A-4 6F.7 ....
....|..|R-- .... ....|--- .... ....|R-- .... ....
....|..|B-2 2F.A ....|--- .... ....|A-4 6F.A ....
....|..|R-- .... ....|--- .... ....|--- .... ....
 B-4|..|B-2 2A.F ....|--- .... ....|--- .... ....
....|..|R-- .... ....|--- .... ....|A-4 6F.F ....
....|..|B-2 2F.A ....|--- .... ....|R-- .... ....
....|..|R-- .... ....|--- .... ....|G-4 6F.F ....
 B-4|..|B-2 2A.F ....|--- .... ....|A-4 6F.7 ....
....|..|R-- .... ....|--- .... ....|E-4 6F.F ....
....|..|B-2 2F.A ....|--- .... ....|--- .... ....
....|..|R-- .... ....|--- .... ....|A-4 6F.A ....
 B-4|..|B-2 2A.F ....|--- .... ....|R-- .... ....
....|..|R-- .... ....|--- .... ....|G-4 6F.A ....
....|..|B-2 2F.A ....|--- .... ....|R-- .... ....
....|..|R-- .... ....|--- .... ....|E-4 6F.A ....
 B-4|..|B-2 2A.F ....|--- .... ....|E-4 6F.F ....
....|..|R-- .... ....|--- .... ....|A-4 6F.7 ....
....|..|B-2 2F.A ....|--- .... ....|E-4 6F.F ....
....|..|R-- .... ....|--- .... ....|G-4 6F.7 ....
 B-4|..|B-2 2A.F ....|--- .... ....|B-4 6F.F ....
....|..|R-- .... ....|--- .... ....|E-4 6F.7 ....
....|..|B-2 2F.A ....|--- .... ....|E-4 6F.A ....
....|..|R-- .... ....|--- .... ....|R-- .... ....
 F#4|..|F#2 2A.F ....|--- .... ....|B-4 6F.F ....
....|..|R-- .... ....|--- .... ....|R-- .... ....
....|..|B-2 2F.A ....|--- .... ....|B-4 6F.A ....
....|..|R-- .... ....|--- .... ....|R-- .... ....
 F#4|..|F#2 2A.F ....|--- .... ....|A-4 6F.F ....
....|..|R-- .... ....|--- .... ....|R-- .... ....
....|..|F#2 2F.A ....|--- .... ....|E-4 6F.7 ....
....|..|R-- .... ....|--- .... ....|R-- .... ....
 F#4|..|F#2 2A.F ....|--- .... ....|G-4 6F.F ....
....|..|R-- .... ....|--- .... ....|R-- .... ....
....|..|F#2 2F.A ....|--- .... ....|A-4 6F.A ....
....|..|R-- .... ....|--- .... ....|R-- .... ....
 F#4|..|F#2 2A.F ....|--- .... ....|E-4 6F.F ....
....|..|R-- .... ....|--- .... ....|--- .... ....
....|..|F#2 2F.A ....|--- .... ....|G-4 6F.A ....
....|..|R-- .... ....|--- .... ....|R-- .... ....
 F#4|..|F#2 2A.F ....|--- .... ....|A-4 6F.7 ....
....|..|R-- .... ....|--- .... ....|R-- .... ....
....|..|F#2 2F.A ....|--- .... ....|E-4 6F.A ....
....|..|R-- .... ....|--- .... ....|--- .... ....
 F#4|..|F#2 2A.F ....|--- .... ....|G-4 6F.7 ....
....|..|R-- .... ....|--- .... ....|--- .... ....
....|..|F#2 2F.A ....|--- .... ....|--- .... ....
....|..|R-- .... ....|--- .... ....|R-- .... ....
 F#4|..|F#2 2A.F ....|--- .... ....|E-4 6F.7 ....
....|..|R-- .... ....|--- .... ....|--- .... ....
....|..|F#2 2F.A ....|--- .... ....|--- .... ....
....|..|R-- .... ....|--- .... ....|--- .... ....

[Pattern4]
 F#4|..|F#2 2A.F ....|--- .... ....|A-4 6F.F ....
....|..|R-- .... ....|--- .... ....|--- .... ....
....|..|F#2 2F.A ....|--- .... ....|R-- .... ....
....|..|R-- .... ....|--- .... ....|--- .... ....
 A-3|..|A-2 2C.F ....|--- .... ....|--- .... ....
....|..|R-- .... ....|--- .... ....|--- .... ....
....|..|F#2 2F.A ....|--- .... ....|A-4 6F.A ....
....|..|R-- .... ....|--- .... ....|D-5 6F.F ....
 A-3|..|A-2 2C.F ....|--- .... ....|--- .... ....
....|..|R-- .... ....|--- .... ....|--- .... ....
....|..|A-2 2F.A ....|--- .... ....|--- .... ....
....|..|R-- .... ....|--- .... ....|R-- .... ....
 A-3|..|A-2 2C.F ....|--- .... ....|B-4 6F.F ....
....|..|R-- .... ....|--- .... ....|D-5 6F.A ....
....|..|A-2 2F.A ....|--- .... ....|--- .... ....
....|..|R-- .... ....|--- .... ....|--- .... ....
 A-3|..|A-2 2C.F ....|--- .... ....|A-4 6F.F ....
....|..|R-- .... ....|--- .... ....|R-- .... ....
....|..|A-2 2F.A ....|--- .... ....|B-4 6F.A ....
....|..|R-- .... ....|--- .... ....|D-5 6F.7 ....
 A-3|..|A-2 2C.F ....|--- .... ....|G-4 6F.F ....
....|..|R-- .... ....|--- .... ....|--- .... ....
....|..|A-2 2F.A ....|--- .... ....|A-4 6F.A ....
....|..|R-- .... ....|--- .... ....|R-- .... ....
 A-3|..|A-2 2C.F ....|--- .... ....|E-4 6F.F ....
....|..|R-- .... ....|--- .... ....|R-- .... ....
....|..|A-2 2F.A ....|--- .... ....|G-4 6F.A ....
....|..|R-- .... ....|--- .... ....|--- .... ....
 A-3|..|A-2 2C.F ....|--- .... ....|A-4 6F.7 ....
....|..|R-- .... ....|--- .... ....|R-- .... ....
....|..|A-2 2F.A ....|--- .... ....|E-4 6F.F ....
....|..|R-- .... ....|--- .... ....|R-- .... ....
 A-3|..|A-2 2C.F ....|--- .... ....|G-4 6F.F ....
....|..|R-- .... ....|--- .... ....|--- .... ....
....|..|A-2 2F.A ....|--- .... ....|--- .... ....
....|..|R-- .... ....|--- .... ....|R-- .... ....
 F#4|..|F#2 2A.F ....|--- .... ....|G-4 6F.F ....
....|..|R-- .... ....|--- .... ....|--- .... ....
....|..|A-2 2F.A ....|--- .... ....|G-4 6F.A ....
....|..|R-- .... ....|--- .... ....|--- .... ....
 F#4|..|F#2 2A.F ....|--- .... ....|F#4 6F.F ....
....|..|R-- .... ....|--- .... ....|--- .... ....
....|..|F#2 2F.A ....|--- .... ....|E-4 6F.7 ....
....|..|R-- .... ....|--- .... ....|--- .... ....
 F#4|..|F#2 2A.F ....|--- .... ....|E-4 6F.F ....
....|..|R-- .... ....|--- .... ....|--- .... ....
....|..|F#2 2F.A ....|--- .... ....|F#4 6F.A ....
....|..|R-- .... ....|--- .... ....|--- .... ....
 F#4|..|F#2 2A.F ....|--- .... ....|E-4 6F.F ....
....|..|R-- .... ....|--- .... ....|--- .... ....
....|..|F#2 2F.A ....|--- .... ....|E-4 6F.A ....
....|..|R-- .... ....|--- .... ....|--- .... ....
 A-3|..|A-2 2C.F ....|--- .... ....|F#4 6F.7 ....
....|..|R-- .... ....|--- .... ....|R-- .... ....
....|..|F#2 2F.A ....|--- .... ....|E-4 6F.A ....
....|..|R-- .... ....|--- .... ....|--- .... ....
 A-3|..|A-2 2C.F ....|--- .... ....|E-4 6F.7 ....
....|..|R-- .... ....|--- .... ....|--- .... ....
....|..|A-2 2F.A ....|--- .... ....|--- .... ....
....|..|R-- .... ....|--- .... ....|R-- .... ....
 A-3|..|A-2 2C.F ....|--- .... ....|E-4 6F.7 ....
....|..|R-- .... ....|--- .... ....|--- .... ....
....|..|A-2 2F.A ....|--- .... ....|--- .... ....
....|..|R-- .... ....|--- .... ....|--- .... ....

[Pattern5]
 B-4|..|B-2 2A.F ....|--- .... ....|A-4 6F.F ....
....|..|R-- .... ....|--- .... ....|R-- .... ....
....|..|A-2 2F.A ....|--- .... ....|--- .... ....
....|..|R-- .... ....|--- .... ....|--- .... ....
 B-4|..|B-2 2A.F ....|--- .... ....|--- .... ....
....|..|R-- .... ....|--- .... ....|--- .... ....
....|..|B-2 2F.A ....|--- .... ....|A-4 6F.A ....
....|..|R-- .... ....|--- .... ....|R-- .... ....
 B-4|..|B-2 2A.F ....|--- .... ....|A-4 6F.F ....
....|..|R-- .... ....|--- .... ....|--- .... ....
....|..|B-2 2F.A ....|--- .... ....|--- .... ....
....|..|R-- .... ....|--- .... ....|--- .... ....
 B-4|..|B-2 2A.F ....|--- .... ....|A-4 6F.7 ....
....|..|R-- .... ....|--- .... ....|R-- .... ....
....|..|B-2 2F.A ....|--- .... ....|A-4 6F.A ....
....|..|R-- .... ....|--- .... ....|--- .... ....
 B-4|..|B-2 2A.F ....|--- .... ....|--- .... ....
....|..|R-- .... ....|--- .... ....|A-4 6F.F ....
....|..|B-2 2F.A ....|--- .... ....|R-- .... ....
....|..|R-- .... ....|--- .... ....|G-4 6F.F ....
 B-4|..|B-2 2A.F ....|--- .... ....|A-4 6F.7 ....
....|..|R-- .... ....|--- .... ....|E-4 6F.F ....
....|..|B-2 2F.A ....|--- .... ....|--- .... ....
....|..|R-- .... ....|--- .... ....|A-4 6F.A ....
 B-4|..|B-2 2A.F ....|--- .... ....|R-- .... ....
....|..|R-- .... ....|--- .... ....|G-4 6F.A ....
....|..|B-2 2F.A ....|--- .... ....|R-- .... ....
....|..|R-- .... ....|--- .... ....|E-4 6F.A ....
 B-4|..|B-2 2A.F ....|--- .... ....|E-4 6F.F ....
....|..|R-- .... ....|--- .... ....|A-4 6F.7 ....
....|..|B-2 2F.A ....|--- .... ....|E-4 6F.F ....
....|..|R-- .... ....|--- .... ....|G-4 6F.7 ....
 B-4|..|B-2 2A.F ....|--- .... ....|B-4 6F.F ....
....|..|R-- .... ....|--- .... ....|E-4 6F.7 ....
....|..|B-2 2F.A ....|--- .... ....|E-4 6F.A ....
....|..|R-- .... ....|--- .... ....|R-- .... ....
 F#4|..|F#2 2A.F ....|--- .... ....|B-4 6F.F ....
....|..|R-- .... ....|--- .... ....|--- .... ....
....|..|B-2 2F.A ....|--- .... ....|B-4 6F.A ....
....|..|R-- .... ....|--- .... ....|R-- .... ....
 F#4|..|F#2 2A.F ....|--- .... ....|A-4 6F.F ....
....|..|R-- .... ....|--- .... ....|R-- .... ....
....|..|F#2 2F.A ....|--- .... ....|E-4 6F.7 ....
....|..|R-- .... ....|--- .... ....|--- .... ....
 F#4|..|F#2 2A.F ....|--- .... ....|G-4 6F.F ....
....|..|R-- .... ....|--- .... ....|R-- .... ....
....|..|F#2 2F.A ....|--- .... ....|A-4 6F.A ....
....|..|R-- .... ....|--- .... ....|R-- .... ....
 F#4|..|F#2 2A.F ....|--- .... ....|E-4 6F.F ....
....|..|R-- .... ....|--- .... ....|--- .... ....
....|..|F#2 2F.A ....|--- .... ....|G-4 6F.A ....
....|..|R-- .... ....|--- .... ....|R-- .... ....
 F#4|..|F#2 2A.F ....|--- .... ....|A-4 6F.7 ....
....|..|R-- .... ....|--- .... ....|R-- .... ....
....|..|F#2 2F.A ....|--- .... ....|E-4 6F.A ....
....|..|R-- .... ....|--- .... ....|--- .... ....
 F#4|..|F#2 2A.F ....|--- .... ....|G-4 6F.7 ....
....|..|R-- .... ....|--- .... ....|--- .... ....
....|..|F#2 2F.A ....|--- .... ....|--- .... ....
....|..|R-- .... ....|--- .... ....|R-- .... ....
 F#4|..|F#2 2A.F ....|--- .... ....|E-4 6F.7 ....
....|..|R-- .... ....|--- .... ....|--- .... ....
....|..|F#2 2F.A ....|--- .... ....|--- .... ....
....|..|R-- .... ....|--- .... ....|--- .... ....

[Pattern6]
 F#4|..|F#2 2A.F ....|--- .... ....|A-4 6F.F ....
....|..|R-- .... ....|--- .... ....|--- .... ....
....|..|F#2 2F.A ....|--- .... ....|R-- .... ....
....|..|R-- .... ....|--- .... ....|--- .... ....
 A-3|..|A-2 2C.F ....|--- .... ....|--- .... ....
....|..|R-- .... ....|--- .... ....|--- .... ....
....|..|F#2 2F.A ....|--- .... ....|A-4 6F.A ....
....|..|R-- .... ....|--- .... ....|D-5 6F.F ....
 A-3|..|A-2 2C.F ....|--- .... ....|--- .... ....
....|..|R-- .... ....|--- .... ....|--- .... ....
....|..|A-2 2F.A ....|--- .... ....|--- .... ....
....|..|R-- .... ....|--- .... ....|R-- .... ....
 A-3|..|A-2 2C.F ....|--- .... ....|B-4 6F.F ....
....|..|R-- .... ....|--- .... ....|D-5 6F.A ....
....|..|A-2 2F.A ....|--- .... ....|--- .... ....
....|..|R-- .... ....|--- .... ....|--- .... ....
 A-3|..|A-2 2C.F ....|--- .... ....|A-4 6F.F ....
....|..|R-- .... ....|--- .... ....|R-- .... ....
....|..|A-2 2F.A ....|--- .... ....|B-4 6F.A ....
....|..|R-- .... ....|--- .... ....|D-5 6F.7 ....
 A-3|..|A-2 2C.F ....|--- .... ....|G-4 6F.F ....
....|..|R-- .... ....|--- .... ....|--- .... ....
....|..|A-2 2F.A ....|--- .... ....|A-4 6F.A ....
....|..|R-- .... ....|--- .... ....|R-- .... ....
 A-3|..|A-2 2C.F ....|--- .... ....|E-4 6F.F ....
....|..|R-- .... ....|--- .... ....|R-- .... ....
....|..|A-2 2F.A ....|--- .... ....|G-4 6F.A ....
....|..|R-- .... ....|--- .... ....|--- .... ....
 A-3|..|A-2 2C.F ....|--- .... ....|E-4 6F.F ....
....|..|R-- .... ....|--- .... ....|R-- .... ....
....|..|A-2 2F.A ....|--- .... ....|E-4 6F.A ....
....|..|R-- .... ....|--- .... ....|R-- .... ....
 A-3|..|A-2 2C.F ....|--- .... ....|G-4 6F.F ....
....|..|R-- .... ....|--- .... ....|R-- .... ....
....|..|A-2 2F.A ....|--- .... ....|G-4 6F.F ....
....|..|R-- .... ....|--- .... ....|R-- .... ....
 F#4|..|F#2 2A.F ....|--- .... ....|G-4 6F.F ....
....|..|R-- .... ....|--- .... ....|R-- .... ....
....|..|A-2 2F.A ....|--- .... ....|G-4 6F.A ....
....|..|R-- .... ....|--- .... ....|R-- .... ....
 F#4|..|F#2 2A.F ....|--- .... ....|F#4 6F.F ....
....|..|R-- .... ....|--- .... ....|--- .... ....
....|..|F#2 2F.A ....|--- .... ....|G-4 6F.A ....
....|..|R-- .... ....|--- .... ....|R-- .... ....
 F#4|..|F#2 2A.F ....|--- .... ....|E-4 6F.F ....
....|..|R-- .... ....|--- .... ....|R-- .... ....
....|..|F#2 2F.A ....|--- .... ....|G-4 6F.7 ....
....|..|R-- .... ....|--- .... ....|--- .... ....
 F#4|..|F#2 2A.F ....|--- .... ....|E-4 6F.F ....
....|..|R-- .... ....|--- .... ....|--- .... ....
....|..|F#2 2F.A ....|--- .... ....|E-4 6F.A ....
....|..|R-- .... ....|--- .... ....|--- .... ....
 A-3|..|A-2 2C.F ....|--- .... ....|F#4 6F.7 ....
....|..|R-- .... ....|--- .... ....|--- .... ....
....|..|F#2 2F.A ....|--- .... ....|E-4 6F.A ....
....|..|R-- .... ....|--- .... ....|--- .... ....
 A-3|..|A-2 2C.F ....|--- .... ....|E-4 6F.7 ....
....|..|R-- .... ....|--- .... ....|--- .... ....
....|..|A-2 2F.A ....|--- .... ....|--- .... ....
....|..|R-- .... ....|--- .... ....|--- .... ....
 A-3|..|A-2 2C.F ....|--- .... ....|E-4 6F.7 ....
....|..|R-- .... ....|--- .... ....|--- .... ....
....|..|A-2 2F.A ....|--- .... ....|--- .... ....
....|..|R-- .... ....|--- .... ....|--- .... ....

[Pattern7]
 B-4|..|B-2 2A.F ....|--- .... ....|A-4 6F.F ....
....|..|R-- .... ....|--- .... ....|--- .... ....
....|..|A-2 2F.A ....|--- .... ....|R-- .... ....
....|..|R-- .... ....|--- .... ....|--- .... ....
 B-4|..|B-2 2A.F ....|--- .... ....|--- .... ....
....|..|R-- .... ....|--- .... ....|--- .... ....
....|..|B-2 2F.A ....|--- .... ....|A-4 6F.A ....
....|..|R-- .... ....|--- .... ....|R-- .... ....
 B-4|..|B-2 2A.F ....|--- .... ....|A-4 6F.F ....
....|..|R-- .... ....|--- .... ....|--- .... ....
....|..|B-2 2F.A ....|--- .... ....|--- .... ....
....|..|R-- .... ....|--- .... ....|--- .... ....
 B-4|..|B-2 2A.F ....|--- .... ....|A-4 6F.7 ....
....|..|R-- .... ....|--- .... ....|R-- .... ....
....|..|B-2 2F.A ....|--- .... ....|A-4 6F.A ....
....|..|R-- .... ....|--- .... ....|--- .... ....
 B-4|..|B-2 2A.F ....|--- .... ....|--- .... ....
....|..|R-- .... ....|--- .... ....|A-4 6F.F ....
....|..|B-2 2F.A ....|--- .... ....|R-- .... ....
....|..|R-- .... ....|--- .... ....|G-4 6F.F ....
 B-4|..|B-2 2A.F ....|--- .... ....|A-4 6F.7 ....
....|..|R-- .... ....|--- .... ....|E-4 6F.F ....
....|..|B-2 2F.A ....|--- .... ....|--- .... ....
....|..|R-- .... ....|--- .... ....|A-4 6F.A ....
 B-4|..|B-2 2A.F ....|--- .... ....|R-- .... ....
....|..|R-- .... ....|--- .... ....|G-4 6F.A ....
....|..|B-2 2F.A ....|--- .... ....|R-- .... ....
....|..|R-- .... ....|--- .... ....|E-4 6F.A ....
 B-4|..|B-2 2A.F ....|--- .... ....|--- .... ....
....|..|R-- .... ....|--- .... ....|A-4 6F.7 ....
....|..|B-2 2F.A ....|--- .... ....|R-- .... ....
....|..|R-- .... ....|--- .... ....|G-4 6F.7 ....
 B-4|..|B-2 2A.F ....|--- .... ....|B-4 6F.F ....
....|..|R-- .... ....|--- .... ....|E-4 6F.7 ....
....|..|B-2 2F.A ....|--- .... ....|--- .... ....
....|..|R-- .... ....|--- .... ....|R-- .... ....
 F#4|..|F#2 2A.F ....|--- .... ....|B-4 6F.F ....
....|..|R-- .... ....|--- .... ....|--- .... ....
....|..|B-2 2F.A ....|--- .... ....|B-4 6F.A ....
....|..|R-- .... ....|--- .... ....|R-- .... ....
 F#4|..|F#2 2A.F ....|--- .... ....|A-4 6F.F ....
....|..|R-- .... ....|--- .... ....|R-- .... ....
....|..|F#2 2F.A ....|--- .... ....|B-4 6F.A ....
....|..|R-- .... ....|--- .... ....|--- .... ....
 F#4|..|F#2 2A.F ....|--- .... ....|G-4 6F.F ....
....|..|R-- .... ....|--- .... ....|R-- .... ....
....|..|F#2 2F.A ....|--- .... ....|A-4 6F.A ....
....|..|R-- .... ....|--- .... ....|R-- .... ....
 F#4|..|F#2 2A.F ....|--- .... ....|B-4 6F.7 ....
....|..|R-- .... ....|--- .... ....|--- .... ....
....|..|F#2 2F.A ....|--- .... ....|G-4 6F.A ....
....|..|R-- .... ....|--- .... ....|R-- .... ....
 F#4|..|F#2 2A.F ....|--- .... ....|E-4 6F.F ....
....|..|R-- .... ....|--- .... ....|--- .... ....
....|..|F#2 2F.A ....|--- .... ....|--- .... ....
....|..|R-- .... ....|--- .... ....|--- .... ....
 F#4|..|F#2 2A.F ....|--- .... ....|G-4 6F.7 ....
....|..|R-- .... ....|--- .... ....|R-- .... ....
....|..|F#2 2F.A ....|--- .... ....|E-4 6F.A ....
....|..|R-- .... ....|--- .... ....|--- .... ....
 F#4|..|F#2 2A.F ....|--- .... ....|--- .... ....
....|..|R-- .... ....|--- .... ....|--- .... ....
....|..|F#2 2F.A ....|--- .... ....|--- .... ....
....|..|R-- .... ....|--- .... ....|R-- .... ....

[Pattern8]
 F#4|..|F#2 2A.F ....|--- .... ....|A-4 6F.F ....
....|..|R-- .... ....|--- .... ....|--- .... ....
....|..|F#2 2F.A ....|--- .... ....|--- .... ....
....|..|R-- .... ....|--- .... ....|--- .... ....
 A-3|..|A-2 2C.F ....|--- .... ....|--- .... ....
....|..|R-- .... ....|--- .... ....|--- .... ....
....|..|F#2 2F.A ....|--- .... ....|A-4 6F.A ....
....|..|R-- .... ....|--- .... ....|D-5 6F.F ....
 A-3|..|A-2 2C.F ....|--- .... ....|--- .... ....
....|..|R-- .... ....|--- .... ....|--- .... ....
....|..|A-2 2F.A ....|--- .... ....|--- .... ....
....|..|R-- .... ....|--- .... ....|R-- .... ....
 A-3|..|A-2 2C.F ....|--- .... ....|B-4 6F.F ....
....|..|R-- .... ....|--- .... ....|D-5 6F.A ....
....|..|A-2 2F.A ....|--- .... ....|--- .... ....
....|..|R-- .... ....|--- .... ....|--- .... ....
 A-3|..|A-2 2C.F ....|--- .... ....|A-4 6F.F ....
....|..|R-- .... ....|--- .... ....|R-- .... ....
....|..|A-2 2F.A ....|--- .... ....|B-4 6F.A ....
....|..|R-- .... ....|--- .... ....|D-5 6F.7 ....
 A-3|..|A-2 2C.F ....|--- .... ....|G-4 6F.F ....
....|..|R-- .... ....|--- .... ....|--- .... ....
....|..|A-2 2F.A ....|--- .... ....|A-4 6F.A ....
....|..|R-- .... ....|--- .... ....|R-- .... ....
 A-3|..|A-2 2C.F ....|--- .... ....|E-4 6F.F ....
....|..|R-- .... ....|--- .... ....|R-- .... ....
....|..|A-2 2F.A ....|--- .... ....|G-4 6F.A ....
....|..|R-- .... ....|--- .... ....|--- .... ....
 A-3|..|A-2 2C.F ....|--- .... ....|E-4 6F.F ....
....|..|R-- .... ....|--- .... ....|R-- .... ....
....|..|A-2 2F.A ....|--- .... ....|E-4 6F.F ....
....|..|R-- .... ....|--- .... ....|R-- .... ....
 A-3|..|A-2 2C.F ....|--- .... ....|G-4 6F.F ....
....|..|R-- .... ....|--- .... ....|--- .... ....
....|..|A-2 2F.A ....|--- .... ....|G-4 6F.F ....
....|..|R-- .... ....|--- .... ....|R-- .... ....
 F#4|..|F#2 2A.F ....|--- .... ....|G-4 6F.F ....
....|..|R-- .... ....|--- .... ....|--- .... ....
....|..|A-2 2F.A ....|--- .... ....|G-4 6F.A ....
....|..|R-- .... ....|--- .... ....|--- .... ....
 F#4|..|F#2 2A.F ....|--- .... ....|F#4 6F.F ....
....|..|R-- .... ....|--- .... ....|--- .... ....
....|..|F#2 2F.A ....|--- .... ....|E-4 6F.7 ....
....|..|R-- .... ....|--- .... ....|--- .... ....
 F#4|..|F#2 2A.F ....|--- .... ....|E-4 6F.F ....
....|..|R-- .... ....|--- .... ....|--- .... ....
....|..|F#2 2F.A ....|--- .... ....|G-4 6F.7 ....
....|..|R-- .... ....|--- .... ....|--- .... ....
 F#4|..|F#2 2A.F ....|--- .... ....|E-4 6F.F ....
....|..|R-- .... ....|--- .... ....|--- .... ....
....|..|F#2 2F.A ....|--- .... ....|E-4 6F.A ....
....|..|R-- .... ....|--- .... ....|--- .... ....
 A-3|..|A-2 2C.F ....|--- .... ....|F#4 6F.7 ....
....|..|R-- .... ....|--- .... ....|R-- .... ....
....|..|F#2 2F.A ....|--- .... ....|E-4 6F.A ....
....|..|R-- .... ....|--- .... ....|--- .... ....
 A-3|..|A-2 2C.F ....|--- .... ....|E-4 6F.7 ....
....|..|R-- .... ....|--- .... ....|--- .... ....
....|..|A-2 2F.A ....|--- .... ....|--- .... ....
....|..|R-- .... ....|--- .... ....|R-- .... ....
 A-3|..|A-2 2C.F ....|--- .... ....|E-4 6F.7 ....
....|..|R-- .... ....|--- .... ....|--- .... ....
....|..|A-2 2F.A ....|--- .... ....|--- .... ....
....|..|R-- .... ....|--- .... ....|--- .... ....

[Pattern9]
 C-3|..|C-1 2A9F ....|C-4 3F1F ....|--- .... ....
....|..|R-- .... ....|--- .... ....|R-- .... ....
....|..|A-2 2F.A ....|--- .... ....|--- .... ....
....|..|R-- .... ....|--- .... ....|--- .... ....
 C-4|..|C-2 2A.F ....|--- .... ....|--- .... ....
....|..|R-- .... ....|--- .... ....|--- .... ....
....|..|C-1 2F9A ....|C-4 3F1A ....|--- .... ....
....|..|--- .... ....|--- .... ....|--- .... ....
 C-4|..|C-2 2A.F ....|--- .... ....|--- .... ....
....|..|R-- .... ....|--- .... ....|--- .... ....
....|..|C-2 2F.A ....|--- .... ....|--- .... ....
....|..|--- .... ....|--- .... ....|--- .... ....
 C-4|..|C-2 2A.F ....|C-4 3F17 ....|G-4 6F.F ....
....|..|--- .... ....|--- .... ....|--- .... ....
....|..|C-2 2F.A ....|--- .... ....|R-- .... ....
....|..|--- .... ....|--- .... ....|--- .... ....
 C-4|..|C-2 2A.F ....|--- .... ....|A#4 6F.F ....
....|..|--- .... ....|--- .... ....|--- .... ....
....|..|C-2 2F.A ....|--- .... ....|G-4 6F.A ....
....|..|--- .... ....|--- .... ....|--- .... ....
 C-4|..|C-2 2A.F ....|--- .... ....|R-- .... ....
....|..|--- .... ....|--- .... ....|--- .... ....
....|..|C-2 2F.A ....|--- .... ....|A#4 6F.A ....
....|..|--- .... ....|--- .... ....|--- .... ....
 C-4|..|C-2 2A.F ....|--- .... ....|A#4 6F.F ....
....|..|--- .... ....|--- .... ....|--- .... ....
....|..|C-2 2F.A ....|--- .... ....|R-- .... ....
....|..|--- .... ....|--- .... ....|--- .... ....
 C-4|..|C-2 2A.F ....|--- .... ....|A#4 6F.7 ....
....|..|--- .... ....|--- .... ....|--- .... ....
....|..|C-2 2F.A ....|R-- .... ....|A#4 6F.A ....
....|..|--- .... ....|--- .... ....|R-- .... ....
 D-3|..|D-1 2A9F ....|D-3 3F1F ....|A#4 6F.F ....
....|..|--- .... ....|--- .... ....|--- .... ....
....|..|C-2 2F.A ....|--- .... ....|R-- .... ....
....|..|--- .... ....|--- .... ....|G-4 6F.F ....
 D-4|..|D-2 2A.F ....|R-- .... ....|A#4 6F.7 ....
....|..|--- .... ....|--- .... ....|E-4 6F.F ....
....|..|D-1 2F9A ....|D-3 3F1A ....|A#4 6F.A ....
....|..|--- .... ....|--- .... ....|R-- .... ....
 D-4|..|D-2 2A.F ....|--- .... ....|R-- .... ....
....|..|--- .... ....|--- .... ....|G-4 6F.F ....
....|..|D-2 2F.A ....|R-- .... ....|R-- .... ....
....|..|--- .... ....|--- .... ....|E-4 6F.A ....
 D-4|..|D-2 2A.F ....|D-3 3F17 ....|G-4 6F.F ....
....|..|--- .... ....|--- .... ....|R-- .... ....
....|..|D-2 2F.A ....|--- .... ....|R-- .... ....
....|..|--- .... ....|--- .... ....|G-4 6F.7 ....
 D-4|..|D-2 2A.F ....|--- .... ....|A#4 6F.F ....
....|..|--- .... ....|--- .... ....|E-4 6F.7 ....
....|..|D-2 2F.A ....|--- .... ....|G-4 6F.A ....
....|..|--- .... ....|--- .... ....|R-- .... ....
 D-4|..|D-2 2A.F ....|--- .... ....|R-- .... ....
....|..|--- .... ....|--- .... ....|G-4 6F.7 ....
....|..|D-2 2F.A ....|--- .... ....|A#4 6F.A ....
....|..|--- .... ....|--- .... ....|R-- .... ....
 D-3|..|D-1 2A9F ....|D-3 3F1F ....|A#4 6F.F ....
....|..|--- .... ....|--- .... ....|--- .... ....
....|..|D-2 2F.A ....|--- .... ....|R-- .... ....
....|..|--- .... ....|--- .... ....|--- .... ....
 D-4|..|D-2 2A.F ....|--- .... ....|A#4 6F.7 ....
....|..|--- .... ....|--- .... ....|--- .... ....
....|..|D-1 2F9A ....|D-3 3F1A ....|A#4 6F.A ....
....|..|--- .... ....|--- .... ....|R-- .... ....

[Pattern10]
 B-2|..|B-1 2A9F ....|B-3 3F2F ....|A#4 6F.F ....
....|..|--- .... ....|--- .... ....|--- .... ....
....|..|D-2 2F.A ....|--- .... ....|R-- .... ....
....|..|--- .... ....|--- .... ....|G-4 6F.F ....
 B-3|..|B-1 2A.F ....|D-3 3F17 ....|A#4 6F.7 ....
....|..|--- .... ....|--- .... ....|E-4 6F.F ....
....|..|B-1 2F9A ....|B-3 3F2A ....|A#4 6F.A ....
....|..|--- .... ....|--- .... ....|R-- .... ....
 B-3|..|B-1 2A.F ....|--- .... ....|--- .... ....
....|..|--- .... ....|--- .... ....|G-4 6F.F ....
....|..|B-1 2F.A ....|--- .... ....|--- .... ....
....|..|--- .... ....|--- .... ....|E-4 6F.A ....
 B-3|..|B-1 2A.F ....|B-3 3F27 ....|G-4 6F.F ....
....|..|--- .... ....|--- .... ....|R-- .... ....
....|..|B-1 2F.A ....|--- .... ....|R-- .... ....
....|..|--- .... ....|--- .... ....|G-4 6F.7 ....
 B-3|..|B-1 2A.F ....|--- .... ....|A#4 6F.F ....
....|..|--- .... ....|--- .... ....|E-4 6F.7 ....
....|..|B-1 2F.A ....|--- .... ....|G-4 6F.A ....
....|..|--- .... ....|--- .... ....|R-- .... ....
 B-3|..|B-1 2A.F ....|--- .... ....|R-- .... ....
....|..|--- .... ....|--- .... ....|G-4 6F.7 ....
....|..|B-1 2F.A ....|--- .... ....|A#4 6F.A ....
....|..|--- .... ....|--- .... ....|R-- .... ....
 B-3|..|B-1 2A.F ....|--- .... ....|A#4 6F.F ....
....|..|--- .... ....|--- .... ....|--- .... ....
....|..|B-1 2F.A ....|--- .... ....|R-- .... ....
....|..|--- .... ....|--- .... ....|--- .... ....
 B-3|..|B-1 2A.F ....|--- .... ....|A#4 6F.7 ....
....|..|--- .... ....|--- .... ....|--- .... ....
....|..|B-1 2F.A ....|--- .... ....|A#4 6F.A ....
....|..|--- .... ....|--- .... ....|R-- .... ....
 C-3|..|C-1 2A9F ....|C-4 3F1F ....|A-4 6F.F ....
....|..|--- .... ....|--- .... ....|--- .... ....
....|..|B-1 2F.A ....|--- .... ....|R-- .... ....
....|..|--- .... ....|--- .... ....|--- .... ....
 C-4|..|C-2 2A.F ....|--- .... ....|G-4 6F.F ....
....|..|--- .... ....|--- .... ....|R-- .... ....
....|..|C-1 2F9A ....|C-4 3F1A ....|A-4 6F.A ....
....|..|--- .... ....|--- .... ....|--- .... ....
 C-4|..|C-2 2A.F ....|--- .... ....|G-4 6F.F ....
....|..|--- .... ....|--- .... ....|R-- .... ....
....|..|C-2 2F.A ....|--- .... ....|G-4 6F.A ....
....|..|--- .... ....|--- .... ....|R-- .... ....
 C-4|..|C-2 2A.F ....|C-4 3F17 ....|G-4 6F.F ....
....|..|--- .... ....|--- .... ....|R-- .... ....
....|..|C-2 2F.A ....|--- .... ....|G-4 6F.A ....
....|..|--- .... ....|--- .... ....|R-- .... ....
 C-4|..|C-2 2A.F ....|--- .... ....|A-4 6F.F ....
....|..|--- .... ....|--- .... ....|--- .... ....
....|..|C-2 2F.A ....|--- .... ....|G-4 6F.A ....
....|..|--- .... ....|--- .... ....|R-- .... ....
 C-4|..|C-2 2A.F ....|--- .... ....|G-4 6F.F ....
....|..|--- .... ....|--- .... ....|R-- .... ....
....|..|C-2 2F.A ....|--- .... ....|A-4 6F.A ....
....|..|--- .... ....|--- .... ....|--- .... ....
 C-4|..|C-2 2A.F ....|--- .... ....|B-4 6F.F ....
....|..|--- .... ....|--- .... ....|R-- .... ....
....|..|C-2 2F.A ....|--- .... ....|G-4 6F.A ....
....|..|--- .... ....|--- .... ....|R-- .... ....
 C-4|..|C-2 2A.F ....|D-3 3F2F ....|G-4 6F.F ....
....|..|--- .... ....|--- .... ....|--- .... ....
....|..|C-2 2F.A ....|--- .... ....|B-4 6F.A ....
....|..|--- .... ....|--- .... ....|R-- .... ....

[Pattern11]
 C-3|..|C-1 2A9F ....|C-4 3F1F ....|G-4 6F.F ....
....|..|--- .... ....|--- .... ....|R-- .... ....
....|..|C-2 2F.A ....|D-3 3F2A ....|G-4 6F.A ....
....|..|--- .... ....|--- .... ....|--- .... ....
 C-4|..|C-2 2A.F ....|--- .... ....|B-4 6F.7 ....
....|..|--- .... ....|--- .... ....|R-- .... ....
....|..|C-1 2F9A ....|C-4 3F1A ....|G-4 6F.A ....
....|..|--- .... ....|--- .... ....|R-- .... ....
 C-4|..|C-2 2A.F ....|D-3 3F27 ....|G-4 6F.7 ....
....|..|--- .... ....|--- .... ....|--- .... ....
....|..|C-2 2F.A ....|--- .... ....|--- .... ....
....|..|--- .... ....|--- .... ....|R-- .... ....
 C-4|..|C-2 2A.F ....|C-4 3F17 ....|G-4 6F.F ....
....|..|--- .... ....|--- .... ....|R-- .... ....
....|..|C-2 2F.A ....|--- .... ....|R-- .... ....
....|..|--- .... ....|--- .... ....|--- .... ....
 C-3|..|C-1 2A9F ....|C-4 3F1F ....|A#4 6F.F ....
....|..|--- .... ....|--- .... ....|--- .... ....
....|..|C-2 2F.A ....|--- .... ....|G-4 6F.A ....
....|..|--- .... ....|--- .... ....|R-- .... ....
 C-4|..|C-2 2A.F ....|--- .... ....|R-- .... ....
....|..|--- .... ....|--- .... ....|--- .... ....
....|..|C-1 2F9A ....|C-4 3F1A ....|A#4 6F.A ....
....|..|--- .... ....|--- .... ....|--- .... ....
 C-4|..|C-2 2A.F ....|--- .... ....|A#4 6F.F ....
....|..|--- .... ....|--- .... ....|--- .... ....
....|..|C-2 2F.A ....|R-- .... ....|R-- .... ....
....|..|--- .... ....|--- .... ....|--- .... ....
 C-4|..|C-2 2A.F ....|C-4 3F1F ....|A#4 6F.7 ....
....|..|--- .... ....|--- .... ....|--- .... ....
....|..|C-2 2F.A ....|--- .... ....|A#4 6F.A ....
....|..|--- .... ....|R-- .... ....|R-- .... ....
 D-3|..|D-1 2A9F ....|D-3 3F1F ....|A#4 6F.F ....
....|..|--- .... ....|--- .... ....|--- .... ....
....|..|C-2 2F.A ....|C-4 3F1A ....|R-- .... ....
....|..|--- .... ....|--- .... ....|G-4 6F.F ....
 D-4|..|D-2 2A.F ....|--- .... ....|A#4 6F.7 ....
....|..|--- .... ....|R-- .... ....|E-4 6F.F ....
....|..|D-1 2F9A ....|D-3 3F1A ....|A#4 6F.A ....
....|..|--- .... ....|--- .... ....|R-- .... ....
 D-4|..|D-2 2A.F ....|C-4 3F17 ....|R-- .... ....
....|..|--- .... ....|--- .... ....|G-4 6F.F ....
....|..|D-2 2F.A ....|--- .... ....|R-- .... ....
....|..|--- .... ....|R-- .... ....|E-4 6F.A ....
 D-4|..|D-2 2A.F ....|D-3 3F17 ....|G-4 6F.F ....
....|..|--- .... ....|--- .... ....|R-- .... ....
....|..|D-2 2F.A ....|--- .... ....|R-- .... ....
....|..|--- .... ....|--- .... ....|G-4 6F.7 ....
 D-4|..|D-2 2A.F ....|D-3 3F4F ....|A#4 6F.F ....
....|..|--- .... ....|--- .... ....|E-4 6F.7 ....
....|..|D-2 2F.A ....|--- .... ....|G-4 6F.A ....
....|..|--- .... ....|--- .... ....|R-- .... ....
 D-4|..|D-2 2A.F ....|D-3 3F1F ....|R-- .... ....
....|..|--- .... ....|--- .... ....|G-4 6F.7 ....
....|..|D-2 2F.A ....|D-3 3F5F ....|A#4 6F.A ....
....|..|--- .... ....|--- .... ....|R-- .... ....
 D-4|..|D-2 2A.F ....|D-3 3F1F ....|A#4 6F.F ....
....|..|--- .... ....|--- .... ....|--- .... ....
....|..|D-2 2F.A ....|D-3 3F1A ....|R-- .... ....
....|..|--- .... ....|--- .... ....|--- .... ....
 D-4|..|D-2 2A.F ....|D-3 3F6F ....|A#4 6F.7 ....
....|..|--- .... ....|--- .... ....|--- .... ....
....|..|D-2 2F.A ....|D-3 3F1A ....|A#4 6F.A ....
....|..|--- .... ....|D-3 3F7F ....|R-- .... ....

[Pattern12]
 B-2|..|B-1 2A9F ....|D-3 3F8F ....|A#4 6F.F ....
....|..|--- .... ....|--- .... ....|--- .... ....
....|..|D-2 2F.A ....|D-3 3F57 ....|R-- .... ....
....|..|--- .... ....|--- .... ....|G-4 6F.F ....
 B-3|..|B-1 2A.F ....|D-3 3F17 ....|A#4 6F.7 ....
....|..|--- .... ....|D-3 3F7A ....|E-4 6F.F ....
....|..|B-1 2F9A ....|D-3 3F8A ....|A#4 6F.A ....
....|..|--- .... ....|--- .... ....|R-- .... ....
 B-3|..|B-1 2A.F ....|D-3 3F67 ....|--- .... ....
....|..|--- .... ....|--- .... ....|G-4 6F.F ....
....|..|B-1 2F.A ....|--- .... ....|--- .... ....
....|..|--- .... ....|D-3 3F77 ....|E-4 6F.A ....
 B-3|..|B-1 2A.F ....|D-3 3F87 ....|G-4 6F.F ....
....|..|--- .... ....|--- .... ....|R-- .... ....
....|..|B-1 2F.A ....|--- .... ....|R-- .... ....
....|..|--- .... ....|--- .... ....|G-4 6F.7 ....
 B-3|..|B-1 2A.F ....|--- .... ....|A#4 6F.F ....
....|..|--- .... ....|--- .... ....|E-4 6F.7 ....
....|..|B-1 2F.A ....|--- .... ....|G-4 6F.A ....
....|..|--- .... ....|--- .... ....|R-- .... ....
 B-3|..|B-1 2A.F ....|--- .... ....|R-- .... ....
....|..|--- .... ....|--- .... ....|G-4 6F.7 ....
....|..|B-1 2F.A ....|--- .... ....|A#4 6F.A ....
....|..|--- .... ....|--- .... ....|R-- .... ....
 B-3|..|B-1 2A.F ....|D-3 3F9F ....|A#4 6F.F ....
....|..|--- .... ....|--- .... ....|--- .... ....
....|..|B-1 2F.A ....|--- .... ....|R-- .... ....
....|..|--- .... ....|--- .... ....|--- .... ....
 B-3|..|B-1 2A.F ....|--- .... ....|A#4 6F.7 ....
....|..|--- .... ....|--- .... ....|--- .... ....
....|..|B-1 2F.A ....|D-3 3F9A ....|A#4 6F.A ....
....|..|--- .... ....|--- .... ....|R-- .... ....
 B-3|..|B-1 2A.F ....|B-3 3FAF ....|A-4 6F.F ....
....|..|--- .... ....|--- .... ....|--- .... ....
....|..|B-1 2F.A ....|--- .... ....|R-- .... ....
....|..|--- .... ....|--- .... ....|--- .... ....
 B-3|..|B-1 2A.F ....|B-3 3FBF ....|G-4 6F.F ....
....|..|--- .... ....|--- .... ....|R-- .... ....
....|..|B-1 2F.A ....|B-3 3FAF ....|A-4 6F.A ....
....|..|--- .... ....|B-3 3F4F ....|--- .... ....
 B-3|..|B-1 2A.F ....|B-3 3FAF ....|--- .... ....
....|..|--- .... ....|--- .... ....|--- .... ....
....|..|B-1 2F.A ....|F#3 3FCF ....|G-4 6F.A ....
....|..|--- .... ....|--- .... ....|R-- .... ....
 B-3|..|B-1 2A.F ....|B-3 3FAF ....|B-4 6F.F ....
....|..|--- .... ....|B-3 3F4A ....|R-- .... ....
....|..|B-1 2F.A ....|B-3 3FAA ....|--- .... ....
....|..|--- .... ....|B-2 3F.F ....|--- .... ....
 B-3|..|B-1 2A.F ....|B-3 3FAF ....|D-5 6F.F ....
....|..|--- .... ....|--- .... ....|--- .... ....
....|..|B-1 2F.A ....|F#3 3FCF ....|B-4 6F.A ....
....|..|--- .... ....|B-3 3F47 ....|R-- .... ....
 B-3|..|B-1 2A.F ....|B-3 3FAF ....|B-4 6F.F ....
....|..|--- .... ....|B-2 3F.A ....|--- .... ....
....|..|B-1 2F.A ....|B-2 3F.F ....|D-5 6F.A ....
....|..|--- .... ....|--- .... ....|--- .... ....
 B-3|..|B-1 2A.F ....|B-3 3FAF ....|D-5 6F.F ....
....|..|--- .... ....|F#3 3FCF ....|R-- .... ....
....|..|B-1 2F.A ....|B-3 3FAA ....|B-4 6F.A ....
....|..|--- .... ....|B-2 3F.7 ....|--- .... ....
 B-3|..|B-1 2A.F ....|B-3 3FAF ....|B-4 6F.F ....
....|..|--- .... ....|--- .... ....|--- .... ....
....|..|B-1 2F.A ....|B-2 3F.F ....|D-5 6F.A ....
....|..|--- .... ....|F#3 3FCA ....|R-- .... ....

[Pattern13]
 E-3|..|E-1 2A9F ....|G-3 4F1F ....|E-5 6F.F ....
....|..|--- .... ....|R-- .... ....|--- .... ....
....|..|B-1 2F.A ....|B-2 3F.7 ....|B-4 6F.A ....
....|..|--- .... ....|--- .... ....|--- .... ....
 E-4|..|E-2 2A.F ....|G-3 4F1F ....|D-5 6F.7 ....
....|..|--- .... ....|F#3 3FC7 ....|--- .... ....
....|..|E-1 2F9A ....|G-3 4F1A ....|E-5 6F.A ....
....|..|--- .... ....|R-- .... ....|--- .... ....
 E-4|..|E-2 2A.F ....|A-3 4F2F ....|B-4 6F.7 ....
....|..|--- .... ....|R-- .... ....|--- .... ....
....|..|E-2 2F.A ....|G-3 4F1A ....|R-- .... ....
....|..|--- .... ....|R-- .... ....|--- .... ....
 E-4|..|E-2 2A.F ....|A-3 4F.F ....|E-5 6F.7 ....
....|..|--- .... ....|R-- .... ....|--- .... ....
....|..|E-2 2F.A ....|G-3 4F1F ....|--- .... ....
....|..|--- .... ....|R-- .... ....|--- .... ....
 E-4|..|E-2 2A.F ....|B-3 3FDF ....|--- .... ....
....|..|--- .... ....|R-- .... ....|--- .... ....
....|..|E-2 2F.A ....|A-3 4F.A ....|--- .... ....
....|..|--- .... ....|R-- .... ....|--- .... ....
 E-4|..|E-2 2A.F ....|B-3 3FDF ....|--- .... ....
....|..|--- .... ....|R-- .... ....|--- .... ....
....|..|E-2 2F.A ....|B-3 3FDA ....|--- .... ....
....|..|--- .... ....|R-- .... ....|--- .... ....
 E-4|..|E-2 2A.F ....|B-3 3FDF ....|--- .... ....
....|..|--- .... ....|B-3 3F.F ....|--- .... ....
....|..|E-2 2F.A ....|B-3 3FDA ....|--- .... ....
....|..|--- .... ....|R-- .... ....|R-- .... ....
 E-4|..|E-2 2A.F ....|B-3 3FDF ....|D-5 6F.F ....
....|..|--- .... ....|R-- .... ....|--- .... ....
....|..|E-2 2F.A ....|B-3 3FDA ....|--- .... ....
....|..|--- .... ....|B-3 3F.A ....|--- .... ....
 D-3|..|D-1 2A9F ....|G-3 4F1F ....|--- .... ....
....|..|--- .... ....|R-- .... ....|R-- .... ....
....|..|E-2 2F.A ....|B-3 3FDA ....|D-5 6F.A ....
....|..|--- .... ....|R-- .... ....|--- .... ....
 D-4|..|D-2 2A.F ....|G-3 4F1F ....|R-- .... ....
....|..|--- .... ....|B-3 3F.7 ....|--- .... ....
....|..|D-1 2F9A ....|G-3 4F1A ....|--- .... ....
....|..|--- .... ....|R-- .... ....|R-- .... ....
 D-4|..|D-2 2A.F ....|A-3 4F2F ....|D-5 6F.7 ....
....|..|--- .... ....|R-- .... ....|--- .... ....
....|..|D-2 2F.A ....|G-3 4F1A ....|R-- .... ....
....|..|--- .... ....|R-- .... ....|--- .... ....
 D-4|..|D-2 2A.F ....|A-3 4F.F ....|B-4 6F.F ....
....|..|--- .... ....|R-- .... ....|R-- .... ....
....|..|D-2 2F.A ....|G-3 4F1F ....|--- .... ....
....|..|--- .... ....|R-- .... ....|--- .... ....
 D-4|..|D-2 2A.F ....|A-3 3FCF ....|D-5 6F.F ....
....|..|--- .... ....|R-- .... ....|--- .... ....
....|..|D-2 2F.A ....|A-3 4F.A ....|B-4 6F.A ....
....|..|--- .... ....|R-- .... ....|R-- .... ....
 D-4|..|D-2 2A.F ....|A-3 3FCF ....|R-- .... ....
....|..|--- .... ....|R-- .... ....|B-4 6F.F ....
....|..|D-2 2F.A ....|A-3 3FCA ....|D-5 6F.A ....
....|..|--- .... ....|R-- .... ....|--- .... ....
 D-4|..|D-2 2A.F ....|A-3 3FCF ....|D-5 6F.F ....
....|..|--- .... ....|R-- .... ....|R-- .... ....
....|..|D-2 2F.A ....|A-3 3FCA ....|R-- .... ....
....|..|--- .... ....|R-- .... ....|B-4 6F.A ....
 D-4|..|D-2 2A.F ....|A-3 3FCF ....|B-4 6F.F ....
....|..|--- .... ....|R-- .... ....|--- .... ....
....|..|D-2 2F.A ....|A-3 3FCA ....|D-5 6F.A ....
....|..|--- .... ....|R-- .... ....|--- .... ....

[Pattern14]
 C-3|..|C-1 2A9F ....|G-3 4F1F ....|E-5 6F.F ....
....|..|--- .... ....|R-- .... ....|B-4 6F.7 ....
....|..|D-2 2F.A ....|A-3 3FCA ....|B-4 6F.A ....
....|..|--- .... ....|R-- .... ....|--- .... ....
 C-4|..|C-2 2A.F ....|G-3 4F1F ....|D-5 6F.7 ....
....|..|--- .... ....|R-- .... ....|--- .... ....
....|..|C-1 2F9A ....|G-3 4F1A ....|E-5 6F.A ....
....|..|--- .... ....|R-- .... ....|--- .... ....
 C-4|..|C-2 2A.F ....|A-3 4F2F ....|B-4 6F.7 ....
....|..|--- .... ....|R-- .... ....|--- .... ....
....|..|C-2 2F.A ....|G-3 4F1A ....|R-- .... ....
....|..|--- .... ....|R-- .... ....|--- .... ....
 C-4|..|C-2 2A.F ....|A-3 4F.F ....|E-5 6F.7 ....
....|..|--- .... ....|R-- .... ....|--- .... ....
....|..|C-2 2F.A ....|G-3 4F1F ....|--- .... ....
....|..|--- .... ....|R-- .... ....|--- .... ....
 C-4|..|C-2 2A.F ....|E-3 3F2F ....|--- .... ....
....|..|--- .... ....|R-- .... ....|--- .... ....
....|..|C-2 2F.A ....|A-3 4F.A ....|--- .... ....
....|..|--- .... ....|R-- .... ....|--- .... ....
 C-4|..|C-2 2A.F ....|E-3 3F2F ....|--- .... ....
....|..|--- .... ....|R-- .... ....|--- .... ....
....|..|C-2 2F.A ....|E-3 3F2A ....|--- .... ....
....|..|--- .... ....|R-- .... ....|--- .... ....
 C-4|..|C-2 2A.F ....|E-3 3F2F ....|--- .... ....
....|..|--- .... ....|R-- .... ....|--- .... ....
....|..|C-2 2F.A ....|E-3 3F2A ....|--- .... ....
....|..|--- .... ....|R-- .... ....|--- .... ....
 C-4|..|C-2 2A.F ....|E-3 3F2F ....|D-5 6F.F ....
....|..|--- .... ....|R-- .... ....|--- .... ....
....|..|C-2 2F.A ....|E-3 3F2A ....|--- .... ....
....|..|--- .... ....|R-- .... ....|--- .... ....
 C-3|..|C-1 2A9F ....|G-3 4F1F ....|--- .... ....
....|..|--- .... ....|R-- .... ....|--- .... ....
....|..|C-2 2F.A ....|E-3 3F2A ....|D-5 6F.A ....
....|..|--- .... ....|R-- .... ....|--- .... ....
 C-4|..|C-2 2A.F ....|G-3 4F1F ....|--- .... ....
....|..|--- .... ....|R-- .... ....|--- .... ....
....|..|C-1 2F9A ....|G-3 4F1A ....|R-- .... ....
....|..|--- .... ....|R-- .... ....|--- .... ....
 C-4|..|C-2 2A.F ....|A-3 4F2F ....|D-5 6F.7 ....
....|..|--- .... ....|R-- .... ....|--- .... ....
....|..|C-2 2F.A ....|G-3 4F1A ....|--- .... ....
....|..|--- .... ....|R-- .... ....|--- .... ....
 C-4|..|C-2 2A.F ....|A-3 4F.F ....|B-4 6F.F ....
....|..|--- .... ....|R-- .... ....|R-- .... ....
....|..|C-2 2F.A ....|G-3 4F1F ....|--- .... ....
....|..|--- .... ....|R-- .... ....|--- .... ....
 D-3|..|D-1 2A9F ....|F#3 3FEF ....|D-5 6F.F ....
....|..|--- .... ....|R-- .... ....|--- .... ....
....|..|C-2 2F.A ....|A-3 4F.A ....|B-4 6F.A ....
....|..|--- .... ....|R-- .... ....|R-- .... ....
 D-4|..|D-2 2A.F ....|F#3 3FEF ....|R-- .... ....
....|..|--- .... ....|R-- .... ....|B-4 6F.F ....
....|..|D-1 2F9A ....|F#3 3FEA ....|D-5 6F.A ....
....|..|--- .... ....|R-- .... ....|--- .... ....
 D-4|..|D-2 2A.F ....|F#3 3FEF ....|D-5 6F.F ....
....|..|--- .... ....|R-- .... ....|R-- .... ....
....|..|D-2 2F.A ....|F#3 3FEA ....|R-- .... ....
....|..|--- .... ....|R-- .... ....|B-4 6F.A ....
 D-4|..|D-2 2A.F ....|F#3 3FEF ....|B-4 6F.F ....
....|..|--- .... ....|R-- .... ....|--- .... ....
....|..|D-2 2F.A ....|F#3 3FEA ....|D-5 6F.A ....
....|..|--- .... ....|R-- .... ....|--- .... ....

[Pattern15]
 E-3|..|E-1 2A9F ....|G-3 4F1F ....|E-5 6F.F ....
....|..|--- .... ....|R-- .... ....|B-4 6F.7 ....
....|..|D-2 2F.A ....|F#3 3FEA ....|B-4 6F.A ....
....|..|--- .... ....|R-- .... ....|--- .... ....
 E-4|..|E-2 2A.F ....|G-3 4F1F ....|D-5 6F.7 ....
....|..|--- .... ....|R-- .... ....|--- .... ....
....|..|E-1 2F9A ....|G-3 4F1A ....|E-5 6F.A ....
....|..|--- .... ....|R-- .... ....|--- .... ....
 E-4|..|E-2 2A.F ....|A-3 4F2F ....|B-4 6F.7 ....
....|..|--- .... ....|R-- .... ....|--- .... ....
....|..|E-2 2F.A ....|G-3 4F1A ....|R-- .... ....
....|..|--- .... ....|R-- .... ....|--- .... ....
 E-4|..|E-2 2A.F ....|A-3 4F.F ....|E-5 6F.7 ....
....|..|--- .... ....|R-- .... ....|--- .... ....
....|..|E-2 2F.A ....|G-3 4F1F ....|--- .... ....
....|..|--- .... ....|R-- .... ....|--- .... ....
 E-4|..|E-2 2A.F ....|B-3 3FDF ....|--- .... ....
....|..|--- .... ....|R-- .... ....|--- .... ....
....|..|E-2 2F.A ....|A-3 4F.A ....|--- .... ....
....|..|--- .... ....|R-- .... ....|R-- .... ....
 E-4|..|E-2 2A.F ....|B-3 3FDF ....|E-5 6F.F ....
....|..|--- .... ....|R-- .... ....|--- .... ....
....|..|E-2 2F.A ....|B-3 3FDA ....|--- .... ....
....|..|--- .... ....|R-- .... ....|--- .... ....
 E-4|..|E-2 2A.F ....|B-3 3FDF ....|R-- .... ....
....|..|--- .... ....|B-3 3F.F ....|E-5 6F.F ....
....|..|E-2 2F.A ....|B-3 3FDA ....|E-5 6F.A ....
....|..|--- .... ....|R-- .... ....|R-- .... ....
 E-4|..|E-2 2A.F ....|B-3 3FDF ....|D-5 6F.F ....
....|..|--- .... ....|R-- .... ....|--- .... ....
....|..|E-2 2F.A ....|B-3 3FDA ....|R-- .... ....
....|..|--- .... ....|B-3 3F.A ....|E-5 6F.A ....
 D-3|..|D-1 2A9F ....|G-3 4F1F ....|E-5 6F.7 ....
....|..|--- .... ....|R-- .... ....|R-- .... ....
....|..|E-2 2F.A ....|B-3 3FDA ....|D-5 6F.A ....
....|..|--- .... ....|R-- .... ....|--- .... ....
 D-4|..|D-2 2A.F ....|G-3 4F1F ....|R-- .... ....
....|..|--- .... ....|B-3 3F.7 ....|E-5 6F.7 ....
....|..|D-1 2F9A ....|G-3 4F1A ....|--- .... ....
....|..|--- .... ....|R-- .... ....|R-- .... ....
 D-4|..|D-2 2A.F ....|A-3 4F2F ....|D-5 6F.7 ....
....|..|--- .... ....|R-- .... ....|R-- .... ....
....|..|D-2 2F.A ....|G-3 4F1A ....|--- .... ....
....|..|--- .... ....|R-- .... ....|--- .... ....
 D-4|..|D-2 2A.F ....|A-3 4F.F ....|--- .... ....
....|..|--- .... ....|R-- .... ....|--- .... ....
....|..|D-2 2F.A ....|G-3 4F1F ....|--- .... ....
....|..|--- .... ....|R-- .... ....|R-- .... ....
 D-4|..|D-2 2A.F ....|A-3 3FCF ....|--- .... ....
....|..|--- .... ....|R-- .... ....|--- .... ....
....|..|D-2 2F.A ....|A-3 4F.A ....|--- .... ....
....|..|--- .... ....|R-- .... ....|--- .... ....
 D-4|..|D-2 2A.F ....|A-3 3FCF ....|B-4 6F.F ....
....|..|--- .... ....|R-- .... ....|R-- .... ....
....|..|D-2 2F.A ....|A-3 3FCA ....|--- .... ....
....|..|--- .... ....|R-- .... ....|R-- .... ....
 D-4|..|D-2 2A.F ....|A-3 3FCF ....|B-4 6F.F ....
....|..|--- .... ....|R-- .... ....|--- .... ....
....|..|D-2 2F.A ....|A-3 3FCA ....|B-4 6F.A ....
....|..|--- .... ....|R-- .... ....|R-- .... ....
 D-4|..|D-2 2A.F ....|A-3 3FCF ....|C-5 6F.F ....
....|..|--- .... ....|R-- .... ....|R-- .... ....
....|..|D-2 2F.A ....|A-3 3FCA ....|B-4 6F.A ....
....|..|--- .... ....|R-- .... ....|--- .... ....

[Pattern16]
 C-3|..|C-1 2A9F ....|G-3 4F1F ....|B-4 6F.7 ....
....|..|--- .... ....|R-- .... ....|R-- .... ....
....|..|D-2 2F.A ....|A-3 3FCA ....|C-5 6F.A ....
....|..|--- .... ....|R-- .... ....|R-- .... ....
 C-4|..|C-2 2A.F ....|G-3 4F1F ....|C-5 6F.F ....
....|..|--- .... ....|R-- .... ....|--- .... ....
....|..|C-1 2F9A ....|G-3 4F1A ....|R-- .... ....
....|..|--- .... ....|R-- .... ....|R-- .... ....
 C-4|..|C-2 2A.F ....|A-3 4F2F ....|C-5 6F.7 ....
....|..|--- .... ....|R-- .... ....|--- .... ....
....|..|C-2 2F.A ....|G-3 4F1A ....|C-5 6F.A ....
....|..|--- .... ....|R-- .... ....|--- .... ....
 C-4|..|C-2 2A.F ....|A-3 4F.F ....|R-- .... ....
....|..|--- .... ....|R-- .... ....|--- .... ....
....|..|C-2 2F.A ....|G-3 4F1F ....|R-- .... ....
....|..|--- .... ....|R-- .... ....|--- .... ....
 C-4|..|C-2 2A.F ....|E-3 3F2F ....|C-5 6F.7 ....
....|..|--- .... ....|R-- .... ....|--- .... ....
....|..|C-2 2F.A ....|A-3 4F.A ....|R-- .... ....
....|..|--- .... ....|R-- .... ....|--- .... ....
 C-4|..|C-2 2A.F ....|E-3 3F2F ....|B-4 6F.F ....
....|..|--- .... ....|R-- .... ....|--- .... ....
....|..|C-2 2F.A ....|E-3 3F2A ....|--- .... ....
....|..|--- .... ....|R-- .... ....|R-- .... ....
 C-4|..|C-2 2A.F ....|E-3 3F2F ....|B-4 6F.F ....
....|..|--- .... ....|R-- .... ....|--- .... ....
....|..|C-2 2F.A ....|E-3 3F2A ....|B-4 6F.A ....
....|..|--- .... ....|R-- .... ....|--- .... ....
 C-4|..|C-2 2A.F ....|E-3 3F2F ....|C-5 6F.F ....
....|..|--- .... ....|R-- .... ....|R-- .... ....
....|..|C-2 2F.A ....|E-3 3F2A ....|B-4 6F.A ....
....|..|--- .... ....|R-- .... ....|R-- .... ....
 C-3|..|C-1 2A9F ....|G-3 4F1F ....|B-4 6F.F ....
....|..|--- .... ....|R-- .... ....|--- .... ....
....|..|C-2 2F.A ....|E-3 3F2A ....|C-5 6F.A ....
....|..|--- .... ....|R-- .... ....|R-- .... ....
 C-4|..|C-2 2A.F ....|G-3 4F1F ....|A-4 6F.F ....
....|..|--- .... ....|R-- .... ....|R-- .... ....
....|..|C-1 2F9A ....|G-3 4F1A ....|B-4 6F.A ....
....|..|--- .... ....|R-- .... ....|--- .... ....
 C-4|..|C-2 2A.F ....|A-3 4F2F ....|G-4 6F.F ....
....|..|--- .... ....|R-- .... ....|R-- .... ....
....|..|C-2 2F.A ....|G-3 4F1A ....|A-4 6F.A ....
....|..|--- .... ....|R-- .... ....|R-- .... ....
 C-4|..|C-2 2A.F ....|A-3 4F.F ....|B-4 6F.7 ....
....|..|--- .... ....|R-- .... ....|--- .... ....
....|..|C-2 2F.A ....|G-3 4F1F ....|G-4 6F.A ....
....|..|--- .... ....|R-- .... ....|R-- .... ....
 D-3|..|D-1 2A9F ....|F#3 3FEF ....|A-4 6F.7 ....
....|..|--- .... ....|R-- .... ....|--- .... ....
....|..|C-2 2F.A ....|A-3 4F.A ....|--- .... ....
....|..|--- .... ....|R-- .... ....|--- .... ....
 D-4|..|D-2 2A.F ....|F#3 3FEF ....|G-4 6F.7 ....
....|..|--- .... ....|R-- .... ....|--- .... ....
....|..|D-1 2F9A ....|F#3 3FEA ....|--- .... ....
....|..|--- .... ....|R-- .... ....|--- .... ....
 D-4|..|D-2 2A.F ....|F#3 3FEF ....|--- .... ....
....|..|--- .... ....|R-- .... ....|--- .... ....
....|..|D-2 2F.A ....|F#3 3FEA ....|R-- .... ....
....|..|--- .... ....|R-- .... ....|--- .... ....
 D-4|..|D-2 2A.F ....|F#3 3FEF ....|--- .... ....
....|..|--- .... ....|R-- .... ....|--- .... ....
....|..|D-2 2F.A ....|F#3 3FEA ....|--- .... ....
....|..|--- .... ....|R-- .... ....|--- .... ....

[Pattern17]
 E-3|..|E-1 2A9F ....|F#3 3FE7 ....|A-4 6F.F ....
....|..|R-- .... ....|R-- .... ....|--- .... ....
....|..|D-2 2F.A ....|F#3 3FEA ....|--- .... ....
....|..|--- .... ....|R-- .... ....|--- .... ....
 B-4|..|B-2 2A.F ....|F#3 3FE7 ....|--- .... ....
....|..|R-- .... ....|R-- .... ....|--- .... ....
....|..|E-1 2F9A ....|--- .... ....|A-4 6F.A ....
....|..|R-- .... ....|--- .... ....|R-- .... ....
 B-4|..|B-2 2A.F ....|F#3 3FE7 ....|A-4 6F.F ....
....|..|R-- .... ....|R-- .... ....|--- .... ....
....|..|B-2 2F.A ....|--- .... ....|--- .... ....
....|..|R-- .... ....|--- .... ....|--- .... ....
 B-4|..|B-2 2A.F ....|--- .... ....|A-4 6F.7 ....
....|..|R-- .... ....|--- .... ....|R-- .... ....
....|..|B-2 2F.A ....|--- .... ....|A-4 6F.A ....
....|..|R-- .... ....|--- .... ....|--- .... ....
 B-4|..|B-2 2A.F ....|--- .... ....|--- .... ....
....|..|R-- .... ....|--- .... ....|A-4 6F.F ....
....|..|B-2 2F.A ....|--- .... ....|R-- .... ....
....|..|R-- .... ....|--- .... ....|G-4 6F.F ....
 B-4|..|B-2 2A.F ....|--- .... ....|A-4 6F.7 ....
....|..|R-- .... ....|--- .... ....|E-4 6F.F ....
....|..|B-2 2F.A ....|--- .... ....|--- .... ....
....|..|R-- .... ....|--- .... ....|A-4 6F.A ....
 B-4|..|B-2 2A.F ....|--- .... ....|R-- .... ....
....|..|R-- .... ....|--- .... ....|G-4 6F.A ....
....|..|B-2 2F.A ....|--- .... ....|R-- .... ....
....|..|R-- .... ....|--- .... ....|E-4 6F.A ....
 B-4|..|B-2 2A.F ....|--- .... ....|--- .... ....
....|..|R-- .... ....|--- .... ....|A-4 6F.7 ....
....|..|B-2 2F.A ....|--- .... ....|R-- .... ....
....|..|R-- .... ....|--- .... ....|G-4 6F.7 ....
 B-4|..|B-2 2A.F ....|--- .... ....|B-4 6F.F ....
....|..|R-- .... ....|--- .... ....|E-4 6F.7 ....
....|..|B-2 2F.A ....|--- .... ....|--- .... ....
....|..|R-- .... ....|--- .... ....|R-- .... ....
 B-2|..|B-1 2A9F ....|--- .... ....|B-4 6F.F ....
....|..|R-- .... ....|--- .... ....|--- .... ....
....|..|B-2 2F.A ....|--- .... ....|B-4 6F.A ....
....|..|R-- .... ....|--- .... ....|R-- .... ....
 F#4|..|F#2 2A.F ....|--- .... ....|A-4 6F.F ....
....|..|R-- .... ....|--- .... ....|R-- .... ....
....|..|B-1 2F9A ....|--- .... ....|B-4 6F.A ....
....|..|R-- .... ....|--- .... ....|--- .... ....
 F#4|..|F#2 2A.F ....|--- .... ....|G-4 6F.F ....
....|..|R-- .... ....|--- .... ....|R-- .... ....
....|..|F#2 2F.A ....|--- .... ....|A-4 6F.A ....
....|..|R-- .... ....|--- .... ....|R-- .... ....
 F#4|..|F#2 2A.F ....|--- .... ....|E-4 6F.F ....
....|..|R-- .... ....|--- .... ....|--- .... ....
....|..|F#2 2F.A ....|--- .... ....|G-4 6F.A ....
....|..|R-- .... ....|--- .... ....|R-- .... ....
 F#4|..|F#2 2A.F ....|--- .... ....|A-4 6F.7 ....
....|..|R-- .... ....|--- .... ....|R-- .... ....
....|..|F#2 2F.A ....|--- .... ....|E-4 6F.A ....
....|..|R-- .... ....|--- .... ....|R-- .... ....
 F#4|..|F#2 2A.F ....|--- .... ....|G-4 6F.7 ....
....|..|R-- .... ....|--- .... ....|--- .... ....
....|..|F#2 2F.A ....|--- .... ....|--- .... ....
....|..|R-- .... ....|--- .... ....|R-- .... ....
 F#4|..|F#2 2A.F ....|--- .... ....|E-4 6F.F ....
....|..|R-- .... ....|--- .... ....|R-- .... ....
....|..|F#2 2F.A ....|--- .... ....|E-4 6F.F ....
....|..|R-- .... ....|--- .... ....|--- .... ....

[Pattern18]
 F#4|..|F#2 2A.F ....|--- .... ....|A-4 6F.F ....
....|..|R-- .... ....|--- .... ....|--- .... ....
....|..|F#2 2F.A ....|--- .... ....|E-4 6F.A ....
....|..|R-- .... ....|--- .... ....|R-- .... ....
 D-3|..|D-1 2A9F ....|--- .... ....|E-4 6F.A ....
....|..|R-- .... ....|--- .... ....|--- .... ....
....|..|F#2 2F.A ....|--- .... ....|A-4 6F.A ....
....|..|R-- .... ....|--- .... ....|D-5 6F.F ....
 A-3|..|A-2 2C.F ....|--- .... ....|E-4 6F.7 ....
....|..|R-- .... ....|--- .... ....|R-- .... ....
....|..|D-1 2F9A ....|--- .... ....|E-4 6F.7 ....
....|..|R-- .... ....|--- .... ....|R-- .... ....
 A-3|..|A-2 2C.F ....|--- .... ....|B-4 6F.F ....
....|..|R-- .... ....|--- .... ....|D-5 6F.A ....
....|..|A-2 2F.A ....|--- .... ....|--- .... ....
....|..|R-- .... ....|--- .... ....|--- .... ....
 A-3|..|A-2 2C.F ....|--- .... ....|A-4 6F.F ....
....|..|R-- .... ....|--- .... ....|R-- .... ....
....|..|A-2 2F.A ....|--- .... ....|B-4 6F.A ....
....|..|R-- .... ....|--- .... ....|D-5 6F.7 ....
 A-3|..|A-2 2C.F ....|--- .... ....|G-4 6F.F ....
....|..|R-- .... ....|--- .... ....|--- .... ....
....|..|A-2 2F.A ....|--- .... ....|A-4 6F.A ....
....|..|R-- .... ....|--- .... ....|R-- .... ....
 A-3|..|A-2 2C.F ....|--- .... ....|E-4 6F.F ....
....|..|R-- .... ....|--- .... ....|R-- .... ....
....|..|A-2 2F.A ....|--- .... ....|G-4 6F.A ....
....|..|R-- .... ....|--- .... ....|--- .... ....
 A-3|..|A-2 2C.F ....|--- .... ....|E-4 6F.F ....
....|..|R-- .... ....|--- .... ....|R-- .... ....
....|..|A-2 2F.A ....|--- .... ....|E-4 6F.A ....
....|..|R-- .... ....|--- .... ....|R-- .... ....
 A-3|..|A-2 2C.F ....|--- .... ....|G-4 6F.F ....
....|..|R-- .... ....|--- .... ....|R-- .... ....
....|..|A-2 2F.A ....|--- .... ....|G-4 6F.F ....
....|..|R-- .... ....|--- .... ....|R-- .... ....
 B-2|..|B-1 2A9F ....|--- .... ....|E-4 6F.7 ....
....|..|R-- .... ....|--- .... ....|R-- .... ....
....|..|A-2 2F.A ....|--- .... ....|G-4 6F.F ....
....|..|R-- .... ....|--- .... ....|R-- .... ....
 F#4|..|F#2 2A.F ....|--- .... ....|F#4 6F.F ....
....|..|R-- .... ....|--- .... ....|--- .... ....
....|..|B-1 2F9A ....|--- .... ....|R-- .... ....
....|..|R-- .... ....|--- .... ....|R-- .... ....
 F#4|..|F#2 2A.F ....|--- .... ....|E-4 6F.F ....
....|..|R-- .... ....|--- .... ....|R-- .... ....
....|..|F#2 2F.A ....|--- .... ....|G-4 6F.7 ....
....|..|R-- .... ....|--- .... ....|--- .... ....
 F#4|..|F#2 2A.F ....|--- .... ....|E-4 6F.F ....
....|..|R-- .... ....|--- .... ....|--- .... ....
....|..|F#2 2F.A ....|--- .... ....|G-4 6F.7 ....
....|..|R-- .... ....|--- .... ....|R-- .... ....
 D-3|..|D-1 2A9F ....|--- .... ....|F#4 6F.7 ....
....|..|R-- .... ....|--- .... ....|--- .... ....
....|..|F#2 2F.A ....|--- .... ....|E-4 6F.A ....
....|..|R-- .... ....|--- .... ....|--- .... ....
 A-3|..|A-2 2C.F ....|--- .... ....|E-4 6F.7 ....
....|..|R-- .... ....|--- .... ....|R-- .... ....
....|..|D-1 2F9A ....|--- .... ....|--- .... ....
....|..|R-- .... ....|--- .... ....|--- .... ....
 A-3|..|A-2 2C.F ....|--- .... ....|E-4 6F.7 ....
....|..|R-- .... ....|--- .... ....|--- .... ....
....|..|A-2 2F.A ....|--- .... ....|--- .... ....
....|..|R-- .... ....|--- .... ....|--- .... ....

[Pattern19]
 E-3|..|E-1 2A9F ....|--- .... ....|A-4 6F.F ....
....|..|R-- .... ....|--- .... ....|--- .... ....
....|..|A-2 2F.A ....|--- .... ....|R-- .... ....
....|..|R-- .... ....|--- .... ....|--- .... ....
 B-4|..|B-2 2A.F ....|--- .... ....|--- .... ....
....|..|R-- .... ....|--- .... ....|--- .... ....
....|..|E-1 2F9A ....|--- .... ....|A-4 6F.A ....
....|..|R-- .... ....|--- .... ....|R-- .... ....
 B-4|..|B-2 2A.F ....|--- .... ....|A-4 6F.F ....
....|..|R-- .... ....|--- .... ....|--- .... ....
....|..|B-2 2F.A ....|--- .... ....|--- .... ....
....|..|R-- .... ....|--- .... ....|--- .... ....
 B-4|..|B-2 2A.F ....|--- .... ....|A-4 6F.7 ....
....|..|R-- .... ....|--- .... ....|R-- .... ....
....|..|B-2 2F.A ....|--- .... ....|A-4 6F.A ....
....|..|R-- .... ....|--- .... ....|--- .... ....
 B-4|..|B-2 2A.F ....|--- .... ....|--- .... ....
....|..|R-- .... ....|--- .... ....|A-4 6F.F ....
....|..|B-2 2F.A ....|--- .... ....|R-- .... ....
....|..|R-- .... ....|--- .... ....|G-4 6F.F ....
 B-4|..|B-2 2A.F ....|--- .... ....|A-4 6F.7 ....
....|..|R-- .... ....|--- .... ....|E-4 6F.F ....
....|..|B-2 2F.A ....|--- .... ....|--- .... ....
....|..|R-- .... ....|--- .... ....|A-4 6F.A ....
 B-4|..|B-2 2A.F ....|--- .... ....|R-- .... ....
....|..|R-- .... ....|--- .... ....|G-4 6F.A ....
....|..|B-2 2F.A ....|--- .... ....|R-- .... ....
....|..|R-- .... ....|--- .... ....|E-4 6F.A ....
 B-4|..|B-2 2A.F ....|--- .... ....|R-- .... ....
....|..|R-- .... ....|--- .... ....|A-4 6F.7 ....
....|..|B-2 2F.A ....|--- .... ....|E-4 6F.F ....
....|..|R-- .... ....|--- .... ....|G-4 6F.7 ....
 B-4|..|B-2 2A.F ....|--- .... ....|B-4 6F.F ....
....|..|R-- .... ....|--- .... ....|E-4 6F.7 ....
....|..|B-2 2F.A ....|--- .... ....|R-- .... ....
....|..|R-- .... ....|--- .... ....|R-- .... ....
 B-2|..|B-1 2A9F ....|--- .... ....|B-4 6F.F ....
....|..|R-- .... ....|--- .... ....|R-- .... ....
....|..|B-2 2F.A ....|--- .... ....|B-4 6F.A ....
....|..|R-- .... ....|--- .... ....|R-- .... ....
 F#4|..|F#2 2A.F ....|--- .... ....|A-4 6F.F ....
....|..|R-- .... ....|--- .... ....|R-- .... ....
....|..|B-1 2F9A ....|--- .... ....|E-4 6F.7 ....
....|..|R-- .... ....|--- .... ....|R-- .... ....
 F#4|..|F#2 2A.F ....|--- .... ....|G-4 6F.F ....
....|..|R-- .... ....|--- .... ....|R-- .... ....
....|..|F#2 2F.A ....|--- .... ....|A-4 6F.A ....
....|..|R-- .... ....|--- .... ....|R-- .... ....
 F#4|..|F#2 2A.F ....|--- .... ....|E-4 6F.F ....
....|..|R-- .... ....|--- .... ....|--- .... ....
....|..|F#2 2F.A ....|--- .... ....|G-4 6F.A ....
....|..|R-- .... ....|--- .... ....|R-- .... ....
 F#4|..|F#2 2A.F ....|--- .... ....|A-4 6F.7 ....
....|..|R-- .... ....|--- .... ....|R-- .... ....
....|..|F#2 2F.A ....|--- .... ....|E-4 6F.A ....
....|..|R-- .... ....|--- .... ....|--- .... ....
 F#4|..|F#2 2A.F ....|--- .... ....|G-4 6F.7 ....
....|..|R-- .... ....|--- .... ....|--- .... ....
....|..|F#2 2F.A ....|--- .... ....|--- .... ....
....|..|R-- .... ....|--- .... ....|R-- .... ....
 F#4|..|F#2 2A.F ....|--- .... ....|E-4 6F.7 ....
....|..|R-- .... ....|--- .... ....|--- .... ....
....|..|F#2 2F.A ....|--- .... ....|--- .... ....
....|..|R-- .... ....|--- .... ....|--- .... ....

[Pattern20]
 F#4|..|F#2 2A.F ....|--- .... ....|A-4 6F.F ....
....|..|R-- .... ....|--- .... ....|--- .... ....
....|..|F#2 2F.A ....|--- .... ....|R-- .... ....
....|..|R-- .... ....|--- .... ....|--- .... ....
 D-3|..|D-1 2A9F ....|--- .... ....|--- .... ....
....|..|R-- .... ....|--- .... ....|--- .... ....
....|..|F#2 2F.A ....|--- .... ....|A-4 6F.A ....
....|..|R-- .... ....|--- .... ....|D-5 6F.F ....
 A-3|..|A-2 2C.F ....|--- .... ....|--- .... ....
....|..|R-- .... ....|--- .... ....|--- .... ....
....|..|D-1 2F9A ....|--- .... ....|--- .... ....
....|..|R-- .... ....|--- .... ....|R-- .... ....
 A-3|..|A-2 2C.F ....|--- .... ....|B-4 6F.F ....
....|..|R-- .... ....|--- .... ....|D-5 6F.A ....
....|..|A-2 2F.A ....|--- .... ....|--- .... ....
....|..|R-- .... ....|--- .... ....|--- .... ....
 A-3|..|A-2 2C.F ....|--- .... ....|A-4 6F.F ....
....|..|R-- .... ....|--- .... ....|R-- .... ....
....|..|A-2 2F.A ....|--- .... ....|B-4 6F.A ....
....|..|R-- .... ....|--- .... ....|D-5 6F.7 ....
 A-3|..|A-2 2C.F ....|--- .... ....|G-4 6F.F ....
....|..|R-- .... ....|--- .... ....|--- .... ....
....|..|A-2 2F.A ....|--- .... ....|A-4 6F.A ....
....|..|R-- .... ....|--- .... ....|R-- .... ....
 A-3|..|A-2 2C.F ....|--- .... ....|E-4 6F.F ....
....|..|R-- .... ....|--- .... ....|R-- .... ....
....|..|A-2 2F.A ....|--- .... ....|G-4 6F.A ....
....|..|R-- .... ....|--- .... ....|--- .... ....
 A-3|..|A-2 2C.F ....|--- .... ....|E-4 6F.F ....
....|..|R-- .... ....|--- .... ....|R-- .... ....
....|..|A-2 2F.A ....|--- .... ....|E-4 6F.F ....
....|..|R-- .... ....|--- .... ....|R-- .... ....
 A-3|..|A-2 2C.F ....|--- .... ....|G-4 6F.F ....
....|..|R-- .... ....|--- .... ....|--- .... ....
....|..|A-2 2F.A ....|--- .... ....|E-4 6F.A ....
....|..|R-- .... ....|--- .... ....|R-- .... ....
 B-2|..|B-1 2A9F ....|--- .... ....|G-4 6F.F ....
....|..|R-- .... ....|--- .... ....|--- .... ....
....|..|A-2 2F.A ....|--- .... ....|G-4 6F.A ....
....|..|R-- .... ....|--- .... ....|--- .... ....
 F#4|..|F#2 2A.F ....|--- .... ....|F#4 6F.F ....
....|..|R-- .... ....|--- .... ....|--- .... ....
....|..|B-1 2F9A ....|--- .... ....|E-4 6F.7 ....
....|..|R-- .... ....|--- .... ....|--- .... ....
 F#4|..|F#2 2A.F ....|--- .... ....|E-4 6F.F ....
....|..|R-- .... ....|--- .... ....|--- .... ....
....|..|F#2 2F.A ....|--- .... ....|F#4 6F.A ....
....|..|R-- .... ....|--- .... ....|--- .... ....
 F#4|..|F#2 2A.F ....|--- .... ....|E-4 6F.F ....
....|..|R-- .... ....|--- .... ....|--- .... ....
....|..|F#2 2F.A ....|--- .... ....|E-4 6F.A ....
....|..|R-- .... ....|--- .... ....|--- .... ....
 D-3|..|D-1 2A9F ....|--- .... ....|F#4 6F.7 ....
....|..|R-- .... ....|--- .... ....|R-- .... ....
....|..|F#2 2F.A ....|--- .... ....|E-4 6F.A ....
....|..|R-- .... ....|--- .... ....|--- .... ....
 A-3|..|A-2 2C.F ....|--- .... ....|E-4 6F.7 ....
....|..|R-- .... ....|--- .... ....|--- .... ....
....|..|D-1 2F9A ....|--- .... ....|--- .... ....
....|..|R-- .... ....|--- .... ....|R-- .... ....
 A-3|..|A-2 2C.F ....|--- .... ....|E-4 6F.7 ....
....|..|R-- .... ....|--- .... ....|--- .... ....
....|..|A-2 2F.A ....|--- .... ....|--- .... ....
....|..|R-- .... ....|--- .... ....|--- .... ....

[Pattern21]
 C-3|..|C-1 2A9F ....|D-4 4F.F ....|--- .... ....
....|..|R-- .... ....|--- .... ....|R-- .... ....
....|..|A-2 2F.A ....|D-4 4F.F ....|--- .... ....
....|..|R-- .... ....|--- .... ....|--- .... ....
 C-4|..|C-2 2A.F ....|D-4 4F.F ....|--- .... ....
....|..|R-- .... ....|--- .... ....|--- .... ....
....|..|C-1 2F9A ....|D-4 4F.A ....|--- .... ....
....|..|--- .... ....|R-- .... ....|--- .... ....
 C-4|..|C-2 2A.F ....|E-4 4F.F ....|--- .... ....
....|..|R-- .... ....|--- .... ....|--- .... ....
....|..|C-2 2F.A ....|D-4 4F.A ....|--- .... ....
....|..|--- .... ....|--- .... ....|--- .... ....
 C-4|..|C-2 2A.F ....|E-4 4F.F ....|G-4 6F.F ....
....|..|--- .... ....|R-- .... ....|--- .... ....
....|..|C-2 2F.A ....|D-4 4F.F ....|R-- .... ....
....|..|--- .... ....|--- .... ....|--- .... ....
 C-4|..|C-2 2A.F ....|D-4 4F.7 ....|A#4 6F.F ....
....|..|--- .... ....|R-- .... ....|--- .... ....
....|..|C-2 2F.A ....|E-4 4F.A ....|G-4 6F.A ....
....|..|--- .... ....|R-- .... ....|--- .... ....
 C-4|..|C-2 2A.F ....|E-4 4F.7 ....|R-- .... ....
....|..|--- .... ....|--- .... ....|--- .... ....
....|..|C-2 2F.A ....|R-- .... ....|A#4 6F.A ....
....|..|--- .... ....|R-- .... ....|--- .... ....
 C-4|..|C-2 2A.F ....|E-4 4F.7 ....|A#4 6F.F ....
....|..|--- .... ....|R-- .... ....|--- .... ....
....|..|C-2 2F.A ....|D-4 4F.7 ....|R-- .... ....
....|..|--- .... ....|--- .... ....|--- .... ....
 C-4|..|C-2 2A.F ....|--- .... ....|A#4 6F.7 ....
....|..|--- .... ....|R-- .... ....|--- .... ....
....|..|C-2 2F.A ....|R-- .... ....|A#4 6F.A ....
....|..|--- .... ....|--- .... ....|R-- .... ....
 D-3|..|D-1 2A9F ....|D-4 4F.F ....|A#4 6F.F ....
....|..|--- .... ....|R-- .... ....|--- .... ....
....|..|C-2 2F.A ....|D-4 4F.F ....|R-- .... ....
....|..|--- .... ....|R-- .... ....|G-4 6F.F ....
 D-4|..|D-2 2A.F ....|D-4 4F.F ....|A#4 6F.7 ....
....|..|--- .... ....|--- .... ....|E-4 6F.F ....
....|..|D-1 2F9A ....|D-4 4F.A ....|A#4 6F.A ....
....|..|--- .... ....|R-- .... ....|R-- .... ....
 D-4|..|D-2 2A.F ....|E-4 4F.F ....|R-- .... ....
....|..|--- .... ....|R-- .... ....|G-4 6F.F ....
....|..|D-2 2F.A ....|D-4 4F.A ....|R-- .... ....
....|..|--- .... ....|R-- .... ....|E-4 6F.A ....
 D-4|..|D-2 2A.F ....|E-4 4F.F ....|G-4 6F.F ....
....|..|--- .... ....|R-- .... ....|R-- .... ....
....|..|D-2 2F.A ....|D-4 4F.F ....|R-- .... ....
....|..|--- .... ....|R-- .... ....|G-4 6F.7 ....
 D-4|..|D-2 2A.F ....|D-4 4F.7 ....|A#4 6F.F ....
....|..|--- .... ....|R-- .... ....|E-4 6F.7 ....
....|..|D-2 2F.A ....|E-4 4F.A ....|G-4 6F.A ....
....|..|--- .... ....|--- .... ....|R-- .... ....
 D-4|..|D-2 2A.F ....|E-4 4F.7 ....|R-- .... ....
....|..|--- .... ....|--- .... ....|G-4 6F.7 ....
....|..|D-2 2F.A ....|--- .... ....|A#4 6F.A ....
....|..|--- .... ....|R-- .... ....|R-- .... ....
 D-3|..|D-1 2A9F ....|D-3 3F1F ....|A#4 6F.F ....
....|..|--- .... ....|--- .... ....|--- .... ....
....|..|D-2 2F.A ....|D-4 4F.7 ....|R-- .... ....
....|..|--- .... ....|--- .... ....|--- .... ....
 D-4|..|D-2 2A.F ....|--- .... ....|A#4 6F.7 ....
....|..|--- .... ....|--- .... ....|--- .... ....
....|..|D-1 2F9A ....|D-3 3F1A ....|A#4 6F.A ....
....|..|--- .... ....|--- .... ....|R-- .... ....

[Pattern22]
 B-2|..|B-1 2A9F ....|D-4 4F.F ....|A#4 6F.F ....
....|..|--- .... ....|--- .... ....|--- .... ....
....|..|D-2 2F.A ....|D-4 4F.F ....|R-- .... ....
....|..|--- .... ....|--- .... ....|G-4 6F.F ....
 B-3|..|B-1 2A.F ....|D-4 4F.F ....|A#4 6F.7 ....
....|..|--- .... ....|--- .... ....|E-4 6F.F ....
....|..|B-1 2F9A ....|D-4 4F.A ....|A#4 6F.A ....
....|..|--- .... ....|R-- .... ....|R-- .... ....
 B-3|..|B-1 2A.F ....|E-4 4F.F ....|--- .... ....
....|..|--- .... ....|--- .... ....|G-4 6F.F ....
....|..|B-1 2F.A ....|D-4 4F.A ....|--- .... ....
....|..|--- .... ....|--- .... ....|E-4 6F.A ....
 B-3|..|B-1 2A.F ....|E-4 4F.F ....|G-4 6F.F ....
....|..|--- .... ....|R-- .... ....|R-- .... ....
....|..|B-1 2F.A ....|D-4 4F.F ....|R-- .... ....
....|..|--- .... ....|--- .... ....|G-4 6F.7 ....
 B-3|..|B-1 2A.F ....|D-4 4F.7 ....|A#4 6F.F ....
....|..|--- .... ....|R-- .... ....|E-4 6F.7 ....
....|..|B-1 2F.A ....|E-4 4F.A ....|G-4 6F.A ....
....|..|--- .... ....|R-- .... ....|R-- .... ....
 B-3|..|B-1 2A.F ....|E-4 4F.7 ....|R-- .... ....
....|..|--- .... ....|--- .... ....|G-4 6F.7 ....
....|..|B-1 2F.A ....|R-- .... ....|A#4 6F.A ....
....|..|--- .... ....|R-- .... ....|R-- .... ....
 B-3|..|B-1 2A.F ....|E-4 4F.7 ....|A#4 6F.F ....
....|..|--- .... ....|R-- .... ....|--- .... ....
....|..|B-1 2F.A ....|D-4 4F.7 ....|R-- .... ....
....|..|--- .... ....|--- .... ....|--- .... ....
 B-3|..|B-1 2A.F ....|--- .... ....|A#4 6F.7 ....
....|..|--- .... ....|R-- .... ....|--- .... ....
....|..|B-1 2F.A ....|--- .... ....|A#4 6F.A ....
....|..|--- .... ....|--- .... ....|R-- .... ....
 C-3|..|C-1 2A9F ....|D-4 4F.F ....|A-4 6F.F ....
....|..|--- .... ....|R-- .... ....|--- .... ....
....|..|B-1 2F.A ....|D-4 4F.F ....|R-- .... ....
....|..|--- .... ....|--- .... ....|--- .... ....
 C-4|..|C-2 2A.F ....|D-4 4F.F ....|G-4 6F.F ....
....|..|--- .... ....|R-- .... ....|R-- .... ....
....|..|C-1 2F9A ....|D-4 4F.A ....|A-4 6F.A ....
....|..|--- .... ....|R-- .... ....|--- .... ....
 C-4|..|C-2 2A.F ....|E-4 4F.F ....|G-4 6F.F ....
....|..|--- .... ....|--- .... ....|R-- .... ....
....|..|C-2 2F.A ....|D-4 4F.A ....|G-4 6F.A ....
....|..|--- .... ....|R-- .... ....|R-- .... ....
 C-4|..|C-2 2A.F ....|E-4 4F.F ....|G-4 6F.F ....
....|..|--- .... ....|R-- .... ....|R-- .... ....
....|..|C-2 2F.A ....|D-4 4F.F ....|G-4 6F.A ....
....|..|--- .... ....|--- .... ....|R-- .... ....
 C-4|..|C-2 2A.F ....|D-4 4F.7 ....|A-4 6F.F ....
....|..|--- .... ....|R-- .... ....|--- .... ....
....|..|C-2 2F.A ....|E-4 4F.A ....|G-4 6F.A ....
....|..|--- .... ....|--- .... ....|R-- .... ....
 C-4|..|C-2 2A.F ....|E-4 4F.7 ....|G-4 6F.F ....
....|..|--- .... ....|--- .... ....|R-- .... ....
....|..|C-2 2F.A ....|--- .... ....|A-4 6F.A ....
....|..|--- .... ....|R-- .... ....|--- .... ....
 C-4|..|C-2 2A.F ....|E-4 4F.7 ....|B-4 6F.F ....
....|..|--- .... ....|--- .... ....|R-- .... ....
....|..|C-2 2F.A ....|D-4 4F.7 ....|G-4 6F.A ....
....|..|--- .... ....|--- .... ....|R-- .... ....
 C-4|..|C-2 2A.F ....|D-3 3F2F ....|G-4 6F.F ....
....|..|--- .... ....|--- .... ....|--- .... ....
....|..|C-2 2F.A ....|R-- .... ....|B-4 6F.A ....
....|..|--- .... ....|--- .... ....|R-- .... ....

[Pattern23]
 C-3|..|C-1 2A9F ....|D-4 4F.F ....|G-4 6F.F ....
....|..|--- .... ....|--- .... ....|R-- .... ....
....|..|C-2 2F.A ....|D-4 4F.F ....|G-4 6F.A ....
....|..|--- .... ....|--- .... ....|--- .... ....
 C-4|..|C-2 2A.F ....|D-4 4F.F ....|B-4 6F.7 ....
....|..|--- .... ....|--- .... ....|R-- .... ....
....|..|C-1 2F9A ....|D-4 4F.A ....|G-4 6F.A ....
....|..|--- .... ....|R-- .... ....|R-- .... ....
 C-4|..|C-2 2A.F ....|E-4 4F.F ....|G-4 6F.7 ....
....|..|--- .... ....|--- .... ....|--- .... ....
....|..|C-2 2F.A ....|D-4 4F.A ....|--- .... ....
....|..|--- .... ....|--- .... ....|R-- .... ....
 C-4|..|C-2 2A.F ....|E-4 4F.F ....|G-4 6F.F ....
....|..|--- .... ....|R-- .... ....|R-- .... ....
....|..|C-2 2F.A ....|D-4 4F.F ....|R-- .... ....
....|..|--- .... ....|--- .... ....|--- .... ....
 C-3|..|C-1 2A9F ....|C-4 3F1F ....|A#4 6F.F ....
....|..|--- .... ....|R-- .... ....|--- .... ....
....|..|C-2 2F.A ....|E-4 4F.A ....|G-4 6F.A ....
....|..|--- .... ....|R-- .... ....|R-- .... ....
 C-4|..|C-2 2A.F ....|E-4 4F.7 ....|R-- .... ....
....|..|--- .... ....|--- .... ....|--- .... ....
....|..|C-1 2F9A ....|C-4 3F1A ....|A#4 6F.A ....
....|..|--- .... ....|R-- .... ....|--- .... ....
 C-4|..|C-2 2A.F ....|E-4 4F.7 ....|A#4 6F.F ....
....|..|--- .... ....|R-- .... ....|--- .... ....
....|..|C-2 2F.A ....|R-- .... ....|R-- .... ....
....|..|--- .... ....|--- .... ....|--- .... ....
 C-4|..|C-2 2A.F ....|C-4 3F1F ....|A#4 6F.7 ....
....|..|--- .... ....|R-- .... ....|--- .... ....
....|..|C-2 2F.A ....|--- .... ....|A#4 6F.A ....
....|..|--- .... ....|R-- .... ....|R-- .... ....
 D-3|..|D-1 2A9F ....|D-4 4F.F ....|A#4 6F.F ....
....|..|--- .... ....|R-- .... ....|--- .... ....
....|..|C-2 2F.A ....|D-4 4F.F ....|R-- .... ....
....|..|--- .... ....|R-- .... ....|G-4 6F.F ....
 D-4|..|D-2 2A.F ....|D-4 4F.F ....|A#4 6F.7 ....
....|..|--- .... ....|R-- .... ....|E-4 6F.F ....
....|..|D-1 2F9A ....|D-4 4F.A ....|A#4 6F.A ....
....|..|--- .... ....|R-- .... ....|R-- .... ....
 D-4|..|D-2 2A.F ....|E-4 4F.F ....|R-- .... ....
....|..|--- .... ....|R-- .... ....|G-4 6F.F ....
....|..|D-2 2F.A ....|D-4 4F.A ....|R-- .... ....
....|..|--- .... ....|R-- .... ....|E-4 6F.A ....
 D-4|..|D-2 2A.F ....|E-4 4F.F ....|G-4 6F.F ....
....|..|--- .... ....|R-- .... ....|R-- .... ....
....|..|D-2 2F.A ....|D-4 4F.F ....|R-- .... ....
....|..|--- .... ....|R-- .... ....|G-4 6F.7 ....
 D-4|..|D-2 2A.F ....|D-3 3F4F ....|A#4 6F.F ....
....|..|--- .... ....|R-- .... ....|E-4 6F.7 ....
....|..|D-2 2F.A ....|E-4 4F.A ....|G-4 6F.A ....
....|..|--- .... ....|--- .... ....|R-- .... ....
 D-4|..|D-2 2A.F ....|D-3 3F1F ....|R-- .... ....
....|..|--- .... ....|--- .... ....|G-4 6F.7 ....
....|..|D-2 2F.A ....|D-3 3F5F ....|A#4 6F.A ....
....|..|--- .... ....|R-- .... ....|R-- .... ....
 D-4|..|D-2 2A.F ....|D-3 3F1F ....|A#4 6F.F ....
....|..|--- .... ....|--- .... ....|--- .... ....
....|..|D-2 2F.A ....|D-3 3F1A ....|R-- .... ....
....|..|--- .... ....|--- .... ....|--- .... ....
 D-4|..|D-2 2A.F ....|D-3 3F6F ....|A#4 6F.7 ....
....|..|--- .... ....|--- .... ....|--- .... ....
....|..|D-2 2F.A ....|D-3 3F1A ....|A#4 6F.A ....
....|..|--- .... ....|D-3 3F7F ....|R-- .... ....

[Pattern24]
 B-2|..|B-1 2A9F ....|D-4 4F.F ....|A#4 6F.F ....
....|..|--- .... ....|--- .... ....|--- .... ....
....|..|D-2 2F.A ....|D-4 4F.F ....|R-- .... ....
....|..|--- .... ....|--- .... ....|G-4 6F.F ....
 B-3|..|B-1 2A.F ....|D-4 4F.F ....|A#4 6F.7 ....
....|..|--- .... ....|D-3 3F7A ....|E-4 6F.F ....
....|..|B-1 2F9A ....|D-4 4F.A ....|A#4 6F.A ....
....|..|--- .... ....|R-- .... ....|R-- .... ....
 B-3|..|B-1 2A.F ....|E-4 4F.F ....|--- .... ....
....|..|--- .... ....|--- .... ....|G-4 6F.F ....
....|..|B-1 2F.A ....|D-4 4F.A ....|--- .... ....
....|..|--- .... ....|D-3 3F77 ....|E-4 6F.A ....
 B-3|..|B-1 2A.F ....|E-4 4F.F ....|G-4 6F.F ....
....|..|--- .... ....|R-- .... ....|R-- .... ....
....|..|B-1 2F.A ....|D-4 4F.F ....|R-- .... ....
....|..|--- .... ....|--- .... ....|G-4 6F.7 ....
 B-3|..|B-1 2A.F ....|D-4 4F.7 ....|A#4 6F.F ....
....|..|--- .... ....|R-- .... ....|E-4 6F.7 ....
....|..|B-1 2F.A ....|E-4 4F.A ....|G-4 6F.A ....
....|..|--- .... ....|R-- .... ....|R-- .... ....
 B-3|..|B-1 2A.F ....|E-4 4F.7 ....|R-- .... ....
....|..|--- .... ....|--- .... ....|G-4 6F.7 ....
....|..|B-1 2F.A ....|R-- .... ....|A#4 6F.A ....
....|..|--- .... ....|R-- .... ....|R-- .... ....
 B-3|..|B-1 2A.F ....|D-3 3F9F ....|A#4 6F.F ....
....|..|--- .... ....|R-- .... ....|--- .... ....
....|..|B-1 2F.A ....|D-4 4F.7 ....|R-- .... ....
....|..|--- .... ....|--- .... ....|--- .... ....
 B-3|..|B-1 2A.F ....|--- .... ....|A#4 6F.7 ....
....|..|--- .... ....|R-- .... ....|--- .... ....
....|..|B-1 2F.A ....|D-3 3F9A ....|A#4 6F.A ....
....|..|--- .... ....|--- .... ....|R-- .... ....
 B-3|..|B-1 2A.F ....|D-4 4F.F ....|A-4 6F.F ....
....|..|--- .... ....|R-- .... ....|--- .... ....
....|..|B-1 2F.A ....|D-4 4F.F ....|R-- .... ....
....|..|--- .... ....|--- .... ....|--- .... ....
 B-3|..|B-1 2A.F ....|D-4 4F.F ....|G-4 6F.F ....
....|..|--- .... ....|R-- .... ....|R-- .... ....
....|..|B-1 2F.A ....|B-3 3FAF ....|A-4 6F.A ....
....|..|--- .... ....|B-3 3F4F ....|--- .... ....
 B-3|..|B-1 2A.F ....|E-4 4F.F ....|--- .... ....
....|..|--- .... ....|--- .... ....|--- .... ....
....|..|B-1 2F.A ....|F#3 3FCF ....|G-4 6F.A ....
....|..|--- .... ....|R-- .... ....|R-- .... ....
 B-3|..|B-1 2A.F ....|E-4 4F.F ....|B-4 6F.F ....
....|..|--- .... ....|B-3 3F4A ....|R-- .... ....
....|..|B-1 2F.A ....|D-4 4F.F ....|--- .... ....
....|..|--- .... ....|B-2 3F.F ....|--- .... ....
 B-3|..|B-1 2A.F ....|B-3 3FAF ....|D-5 6F.F ....
....|..|--- .... ....|R-- .... ....|--- .... ....
....|..|B-1 2F.A ....|F#3 3FCF ....|B-4 6F.A ....
....|..|--- .... ....|B-3 3F47 ....|R-- .... ....
 B-3|..|B-1 2A.F ....|B-3 3FAF ....|B-4 6F.F ....
....|..|--- .... ....|B-2 3F.A ....|--- .... ....
....|..|B-1 2F.A ....|B-2 3F.F ....|D-5 6F.A ....
....|..|--- .... ....|R-- .... ....|--- .... ....
 B-3|..|B-1 2A.F ....|B-3 3FAF ....|D-5 6F.F ....
....|..|--- .... ....|F#3 3FCF ....|R-- .... ....
....|..|B-1 2F.A ....|B-3 3FAA ....|B-4 6F.A ....
....|..|--- .... ....|B-2 3F.7 ....|--- .... ....
 B-3|..|B-1 2A.F ....|B-3 3FAF ....|B-4 6F.F ....
....|..|--- .... ....|--- .... ....|--- .... ....
....|..|B-1 2F.A ....|B-2 3F.F ....|D-5 6F.A ....
....|..|--- .... ....|F#3 3FCA ....|R-- .... ....

[Pattern28]
 C-3|..|C-1 2A9F ....|G-3 4F1F ....|B-4 6F.7 ....
....|..|--- .... ....|R-- .... ....|R-- .... ....
....|..|D-2 2F.A ....|A-3 3FCA ....|C-5 6F.A ....
....|..|--- .... ....|R-- .... ....|R-- .... ....
 C-4|..|C-2 2A.F ....|G-3 4F1F ....|C-5 6F.F ....
....|..|--- .... ....|R-- .... ....|--- .... ....
....|..|C-1 2F9A ....|G-3 4F1A ....|R-- .... ....
....|..|--- .... ....|R-- .... ....|R-- .... ....
 C-4|..|C-2 2A.F ....|A-3 4F2F ....|C-5 6F.7 ....
....|..|--- .... ....|R-- .... ....|--- .... ....
....|..|C-2 2F.A ....|G-3 4F1A ....|C-5 6F.A ....
....|..|--- .... ....|R-- .... ....|--- .... ....
 C-4|..|C-2 2A.F ....|A-3 4F.F ....|R-- .... ....
....|..|--- .... ....|R-- .... ....|--- .... ....
....|..|C-2 2F.A ....|G-3 4F1F ....|R-- .... ....
....|..|--- .... ....|R-- .... ....|--- .... ....
 C-4|..|C-2 2A.F ....|E-3 3F2F ....|C-5 6F.7 ....
....|..|--- .... ....|R-- .... ....|--- .... ....
....|..|C-2 2F.A ....|A-3 4F.A ....|R-- .... ....
....|..|--- .... ....|R-- .... ....|--- .... ....
 C-4|..|C-2 2A.F ....|E-3 3F2F ....|B-4 6F.F ....
....|..|--- .... ....|R-- .... ....|--- .... ....
....|..|C-2 2F.A ....|E-3 3F2A ....|--- .... ....
....|..|--- .... ....|R-- .... ....|R-- .... ....
 C-4|..|C-2 2A.F ....|E-3 3F2F ....|B-4 6F.F ....
....|..|--- .... ....|R-- .... ....|--- .... ....
....|..|C-2 2F.A ....|E-3 3F2A ....|B-4 6F.A ....
....|..|--- .... ....|R-- .... ....|--- .... ....
 C-4|..|C-2 2A.F ....|E-3 3F2F ....|C-5 6F.F ....
....|..|--- .... ....|R-- .... ....|R-- .... ....
....|..|C-2 2F.A ....|E-3 3F2A ....|B-4 6F.A ....
....|..|--- .... ....|R-- .... ....|R-- .... ....
 C-3|..|C-1 2A9F ....|G-3 4F1F ....|B-4 6F.F ....
....|..|--- .... ....|R-- .... ....|--- .... ....
....|..|C-2 2F.A ....|E-3 3F2A ....|C-5 6F.A ....
....|..|--- .... ....|R-- .... ....|R-- .... ....
 C-4|..|C-2 2A.F ....|G-3 4F1F ....|A-4 6F.F ....
....|..|--- .... ....|R-- .... ....|R-- .... ....
....|..|C-1 2F9A ....|G-3 4F1A ....|B-4 6F.A ....
....|..|--- .... ....|R-- .... ....|--- .... ....
 C-4|..|C-2 2A.F ....|A-3 4F2F ....|G-4 6F.F ....
....|..|--- .... ....|R-- .... ....|R-- .... ....
....|..|C-2 2F.A ....|G-3 4F1A ....|A-4 6F.A ....
....|..|--- .... ....|R-- .... ....|R-- .... ....
 C-4|..|C-2 2A.F ....|A-3 4F.F ....|B-4 6F.F ....
....|..|--- .... ....|R-- .... ....|R-- .... ....
....|..|C-2 2F.A ....|G-3 4F1F ....|G-4 6F.A ....
....|..|--- .... ....|R-- .... ....|R-- .... ....
 D-3|..|D-1 2A9F ....|F#3 3FEF ....|D-5 6F.F ....
....|..|--- .... ....|R-- .... ....|--- .... ....
....|..|C-2 2F.A ....|A-3 4F.A ....|B-4 6F.A ....
....|..|--- .... ....|R-- .... ....|R-- .... ....
 D-4|..|D-2 2A.F ....|F#3 3FEF ....|G-4 6F.7 ....
....|..|--- .... ....|R-- .... ....|B-4 6F.F ....
....|..|D-1 2F9A ....|F#3 3FEA ....|D-5 6F.A ....
....|..|--- .... ....|R-- .... ....|--- .... ....
 D-4|..|D-2 2A.F ....|F#3 3FEF ....|D-5 6F.F ....
....|..|--- .... ....|R-- .... ....|R-- .... ....
....|..|D-2 2F.A ....|F#3 3FEA ....|R-- .... ....
....|..|--- .... ....|R-- .... ....|B-4 6F.A ....
 D-4|..|D-2 2A.F ....|F#3 3FEF ....|B-4 6F.F ....
....|..|--- .... ....|R-- .... ....|--- .... ....
....|..|D-2 2F.A ....|F#3 3FEA ....|D-5 6F.A ....
....|..|--- .... ....|R-- .... ....|--- .... ....

[Pattern29]
 C-3|..|C-1 2A9F ....|G-3 3F8F ....|E-5 6F.F ....
....|..|--- .... ....|R-- .... ....|B-4 6F.7 ....
....|..|D-2 2F.A ....|F#3 3FEA ....|B-4 6F.A ....
....|..|--- .... ....|R-- .... ....|--- .... ....
 C-4|..|C-2 2A.F ....|G-3 3F8F ....|D-5 6F.7 ....
....|..|--- .... ....|R-- .... ....|--- .... ....
....|..|C-1 2F9A ....|G-3 3F8A ....|E-5 6F.A ....
....|..|--- .... ....|R-- .... ....|--- .... ....
 C-4|..|C-2 2A.F ....|G-3 3F8F ....|B-4 6F.7 ....
....|..|--- .... ....|R-- .... ....|--- .... ....
....|..|C-2 2F.A ....|G-3 3F8A ....|R-- .... ....
....|..|--- .... ....|R-- .... ....|--- .... ....
 C-4|..|C-2 2A.F ....|G-3 3F8F ....|E-5 6F.7 ....
....|..|--- .... ....|R-- .... ....|--- .... ....
....|..|C-2 2F.A ....|G-3 3F8A ....|--- .... ....
....|..|--- .... ....|R-- .... ....|--- .... ....
 C-4|..|C-2 2A.F ....|G-3 3F8F ....|--- .... ....
....|..|--- .... ....|R-- .... ....|--- .... ....
....|..|C-2 2F.A ....|G-3 3F8A ....|--- .... ....
....|..|--- .... ....|R-- .... ....|--- .... ....
 C-4|..|C-2 2A.F ....|G-3 3F8F ....|--- .... ....
....|..|--- .... ....|R-- .... ....|--- .... ....
....|..|C-2 2F.A ....|G-3 3F8A ....|--- .... ....
....|..|--- .... ....|R-- .... ....|--- .... ....
 C-4|..|C-2 2A.F ....|G-3 3F8F ....|--- .... ....
....|..|--- .... ....|R-- .... ....|--- .... ....
....|..|C-2 2F.A ....|G-3 3F8A ....|--- .... ....
....|..|--- .... ....|R-- .... ....|R-- .... ....
 C-4|..|C-2 2A.F ....|G-3 3F8F ....|D-5 6F.F ....
....|..|--- .... ....|R-- .... ....|--- .... ....
....|..|C-2 2F.A ....|G-3 3F8A ....|--- .... ....
....|..|--- .... ....|R-- .... ....|--- .... ....
 D-3|..|D-1 2A9F ....|A-3 3FCF ....|--- .... ....
....|..|--- .... ....|R-- .... ....|R-- .... ....
....|..|C-2 2F.A ....|G-3 3F8A ....|D-5 6F.A ....
....|..|--- .... ....|R-- .... ....|--- .... ....
 D-4|..|D-2 2A.F ....|A-3 3FCF ....|R-- .... ....
....|..|--- .... ....|R-- .... ....|--- .... ....
....|..|D-1 2F9A ....|A-3 3FCA ....|--- .... ....
....|..|--- .... ....|R-- .... ....|R-- .... ....
 D-4|..|D-2 2A.F ....|A-3 3FCF ....|D-5 6F.7 ....
....|..|--- .... ....|R-- .... ....|--- .... ....
....|..|D-2 2F.A ....|A-3 3FCA ....|R-- .... ....
....|..|--- .... ....|R-- .... ....|--- .... ....
 D-4|..|D-2 2A.F ....|A-3 3FCF ....|B-4 6F.F ....
....|..|--- .... ....|R-- .... ....|R-- .... ....
....|..|D-2 2F.A ....|A-3 3FCA ....|--- .... ....
....|..|--- .... ....|R-- .... ....|--- .... ....
 D-4|..|D-2 2A.F ....|A-3 3FCF ....|D-5 6F.F ....
....|..|--- .... ....|R-- .... ....|--- .... ....
....|..|D-2 2F.A ....|A-3 3FCA ....|B-4 6F.A ....
....|..|--- .... ....|R-- .... ....|R-- .... ....
 D-4|..|D-2 2A.F ....|A-3 3FCF ....|R-- .... ....
....|..|--- .... ....|R-- .... ....|B-4 6F.F ....
....|..|D-2 2F.A ....|A-3 3FCA ....|D-5 6F.A ....
....|..|--- .... ....|R-- .... ....|--- .... ....
 D-4|..|D-2 2A.F ....|A-3 3FCF ....|D-5 6F.F ....
....|..|--- .... ....|R-- .... ....|R-- .... ....
....|..|D-2 2F.A ....|A-3 3FCA ....|R-- .... ....
....|..|--- .... ....|R-- .... ....|B-4 6F.A ....
 D-4|..|D-2 2A.F ....|A-3 3FCF ....|B-4 6F.F ....
....|..|--- .... ....|R-- .... ....|--- .... ....
....|..|D-2 2F.A ....|A-3 3FCA ....|D-5 6F.A ....
....|..|--- .... ....|R-- .... ....|--- .... ....

[Pattern30]
 E-3|..|E-1 2A9F ....|B-3 3FDF ....|E-5 6F.F ....
....|..|--- .... ....|R-- .... ....|B-4 6F.7 ....
....|..|D-2 2F.A ....|A-3 3FCA ....|B-4 6F.A ....
....|..|--- .... ....|R-- .... ....|--- .... ....
 E-4|..|E-2 2A.F ....|B-3 3FDF ....|D-5 6F.7 ....
....|..|--- .... ....|R-- .... ....|--- .... ....
....|..|E-1 2F9A ....|B-3 3FDA ....|E-5 6F.A ....
....|..|--- .... ....|R-- .... ....|--- .... ....
 E-4|..|E-2 2A.F ....|B-3 3FDF ....|B-4 6F.7 ....
....|..|--- .... ....|R-- .... ....|--- .... ....
....|..|E-2 2F.A ....|B-3 3FDA ....|R-- .... ....
....|..|--- .... ....|R-- .... ....|--- .... ....
 E-4|..|E-2 2A.F ....|B-3 3FDF ....|E-5 6F.7 ....
....|..|--- .... ....|R-- .... ....|--- .... ....
....|..|E-2 2F.A ....|B-3 3FDA ....|--- .... ....
....|..|--- .... ....|R-- .... ....|--- .... ....
 E-4|..|E-2 2A.F ....|B-3 3FDF ....|--- .... ....
....|..|--- .... ....|R-- .... ....|--- .... ....
....|..|E-2 2F.A ....|B-3 3FDA ....|--- .... ....
....|..|--- .... ....|R-- .... ....|--- .... ....
 E-4|..|E-2 2A.F ....|B-3 3FDF ....|--- .... ....
....|..|--- .... ....|R-- .... ....|--- .... ....
....|..|E-2 2F.A ....|B-3 3FDA ....|--- .... ....
....|..|--- .... ....|R-- .... ....|--- .... ....
 E-4|..|E-2 2A.F ....|B-3 3FDF ....|--- .... ....
....|..|--- .... ....|B-3 3F.F ....|--- .... ....
....|..|E-2 2F.A ....|B-3 3FDA ....|--- .... ....
....|..|--- .... ....|R-- .... ....|--- .... ....
 E-4|..|E-2 2A.F ....|B-3 3FDF ....|D-5 6F.F ....
....|..|--- .... ....|R-- .... ....|--- .... ....
....|..|E-2 2F.A ....|B-3 3FDA ....|--- .... ....
....|..|--- .... ....|B-3 3F.A ....|--- .... ....
 D-3|..|D-1 2A9F ....|A-3 3FCF ....|--- .... ....
....|..|--- .... ....|R-- .... ....|--- .... ....
....|..|E-2 2F.A ....|B-3 3FDA ....|D-5 6F.A ....
....|..|--- .... ....|R-- .... ....|--- .... ....
 D-4|..|D-2 2A.F ....|A-3 3FCF ....|--- .... ....
....|..|--- .... ....|B-3 3F.7 ....|--- .... ....
....|..|D-1 2F9A ....|A-3 3FCA ....|R-- .... ....
....|..|--- .... ....|R-- .... ....|--- .... ....
 D-4|..|D-2 2A.F ....|A-3 3FCF ....|D-5 6F.7 ....
....|..|--- .... ....|R-- .... ....|--- .... ....
....|..|D-2 2F.A ....|A-3 3FCA ....|--- .... ....
....|..|--- .... ....|R-- .... ....|--- .... ....
 D-4|..|D-2 2A.F ....|A-3 3FCF ....|B-4 6F.F ....
....|..|--- .... ....|R-- .... ....|R-- .... ....
....|..|D-2 2F.A ....|A-3 3FCA ....|--- .... ....
....|..|--- .... ....|R-- .... ....|--- .... ....
 D-4|..|D-2 2A.F ....|A-3 3FCF ....|D-5 6F.F ....
....|..|--- .... ....|R-- .... ....|--- .... ....
....|..|D-2 2F.A ....|A-3 3FCA ....|B-4 6F.A ....
....|..|--- .... ....|R-- .... ....|R-- .... ....
 D-4|..|D-2 2A.F ....|A-3 3FCF ....|R-- .... ....
....|..|--- .... ....|R-- .... ....|B-4 6F.F ....
....|..|D-2 2F.A ....|A-3 3FCA ....|D-5 6F.A ....
....|..|--- .... ....|R-- .... ....|--- .... ....
 D-4|..|D-2 2A.F ....|A-3 3FCF ....|D-5 6F.F ....
....|..|--- .... ....|R-- .... ....|R-- .... ....
....|..|D-2 2F.A ....|A-3 3FCA ....|R-- .... ....
....|..|--- .... ....|R-- .... ....|B-4 6F.A ....
 D-4|..|D-2 2A.F ....|A-3 3FCF ....|B-4 6F.F ....
....|..|--- .... ....|R-- .... ....|--- .... ....
....|..|D-2 2F.A ....|A-3 3FCA ....|D-5 6F.A ....
....|..|--- .... ....|R-- .... ....|--- .... ....

[Pattern31]
 C-3|..|C-1 2A9F ....|G-3 3F8F ....|E-5 6F.F ....
....|..|--- .... ....|R-- .... ....|B-4 6F.7 ....
....|..|D-2 2F.A ....|A-3 3FCA ....|B-4 6F.A ....
....|..|--- .... ....|R-- .... ....|--- .... ....
 C-4|..|C-2 2A.F ....|G-3 3F8F ....|D-5 6F.7 ....
....|..|--- .... ....|R-- .... ....|--- .... ....
....|..|C-1 2F9A ....|G-3 3F8A ....|E-5 6F.A ....
....|..|--- .... ....|R-- .... ....|--- .... ....
 C-4|..|C-2 2A.F ....|G-3 3F8F ....|B-4 6F.7 ....
....|..|--- .... ....|R-- .... ....|--- .... ....
....|..|C-2 2F.A ....|G-3 3F8A ....|R-- .... ....
....|..|--- .... ....|R-- .... ....|--- .... ....
 C-4|..|C-2 2A.F ....|G-3 3F8F ....|E-5 6F.7 ....
....|..|--- .... ....|R-- .... ....|--- .... ....
....|..|C-2 2F.A ....|G-3 3F8A ....|--- .... ....
....|..|--- .... ....|R-- .... ....|--- .... ....
 C-4|..|C-2 2A.F ....|G-3 3F8F ....|--- .... ....
....|..|--- .... ....|R-- .... ....|--- .... ....
....|..|C-2 2F.A ....|G-3 3F8A ....|--- .... ....
....|..|--- .... ....|R-- .... ....|R-- .... ....
 C-4|..|C-2 2A.F ....|G-3 3F8F ....|E-5 6F.F ....
....|..|--- .... ....|R-- .... ....|--- .... ....
....|..|C-2 2F.A ....|G-3 3F8A ....|--- .... ....
....|..|--- .... ....|R-- .... ....|--- .... ....
 C-4|..|C-2 2A.F ....|G-3 3F8F ....|R-- .... ....
....|..|--- .... ....|R-- .... ....|E-5 6F.F ....
....|..|C-2 2F.A ....|G-3 3F8A ....|E-5 6F.A ....
....|..|--- .... ....|R-- .... ....|R-- .... ....
 C-4|..|C-2 2A.F ....|G-3 3F8F ....|D-5 6F.F ....
....|..|--- .... ....|R-- .... ....|--- .... ....
....|..|C-2 2F.A ....|G-3 3F8A ....|R-- .... ....
....|..|--- .... ....|R-- .... ....|E-5 6F.A ....
 C-3|..|C-1 2A9F ....|G-3 3F8F ....|E-5 6F.7 ....
....|..|--- .... ....|R-- .... ....|R-- .... ....
....|..|C-2 2F.A ....|G-3 3F8A ....|D-5 6F.A ....
....|..|--- .... ....|R-- .... ....|--- .... ....
 C-4|..|C-2 2A.F ....|G-3 3F8F ....|R-- .... ....
....|..|--- .... ....|R-- .... ....|E-5 6F.7 ....
....|..|C-1 2F9A ....|G-3 3F8A ....|--- .... ....
....|..|--- .... ....|R-- .... ....|R-- .... ....
 C-4|..|C-2 2A.F ....|G-3 3F8F ....|D-5 6F.7 ....
....|..|--- .... ....|R-- .... ....|R-- .... ....
....|..|C-2 2F.A ....|G-3 3F8A ....|--- .... ....
....|..|--- .... ....|R-- .... ....|--- .... ....
 C-4|..|C-2 2A.F ....|G-3 3F8F ....|--- .... ....
....|..|--- .... ....|R-- .... ....|--- .... ....
....|..|C-2 2F.A ....|G-3 3F8A ....|--- .... ....
....|..|--- .... ....|R-- .... ....|R-- .... ....
 C-4|..|C-2 2A.F ....|G-3 3F8F ....|--- .... ....
....|..|--- .... ....|R-- .... ....|--- .... ....
....|..|C-2 2F.A ....|G-3 3F8A ....|--- .... ....
....|..|--- .... ....|R-- .... ....|--- .... ....
 C-4|..|C-2 2A.F ....|G-3 3F8F ....|B-4 6F.F ....
....|..|--- .... ....|R-- .... ....|R-- .... ....
....|..|C-2 2F.A ....|G-3 3F8A ....|--- .... ....
....|..|--- .... ....|R-- .... ....|R-- .... ....
 C-4|..|C-2 2A.F ....|G-3 3F8F ....|B-4 6F.F ....
....|..|--- .... ....|R-- .... ....|--- .... ....
....|..|C-2 2F.A ....|G-3 3F8A ....|B-4 6F.A ....
....|..|--- .... ....|R-- .... ....|R-- .... ....
 C-4|..|C-2 2A.F ....|G-3 3F8F ....|C-5 6F.F ....
....|..|--- .... ....|R-- .... ....|R-- .... ....
....|..|C-2 2F.A ....|G-3 3F8A ....|B-4 6F.A ....
....|..|--- .... ....|R-- .... ....|--- .... ....

[Pattern32]
 D-3|..|D-1 2A9F ....|A-3 3FCF ....|B-4 6F.7 ....
....|..|--- .... ....|R-- .... ....|R-- .... ....
....|..|C-2 2F.A ....|G-3 3F8A ....|C-5 6F.A ....
....|..|--- .... ....|R-- .... ....|R-- .... ....
 D-4|..|D-2 2A.F ....|A-3 3FCF ....|C-5 6F.F ....
....|..|--- .... ....|R-- .... ....|--- .... ....
....|..|D-1 2F9A ....|A-3 3FCA ....|R-- .... ....
....|..|--- .... ....|R-- .... ....|R-- .... ....
 D-4|..|D-2 2A.F ....|A-3 3FCF ....|C-5 6F.7 ....
....|..|--- .... ....|R-- .... ....|--- .... ....
....|..|D-2 2F.A ....|A-3 3FCA ....|C-5 6F.A ....
....|..|--- .... ....|R-- .... ....|--- .... ....
 D-4|..|D-2 2A.F ....|A-3 3FCF ....|R-- .... ....
....|..|--- .... ....|R-- .... ....|--- .... ....
....|..|D-2 2F.A ....|A-3 3FCA ....|R-- .... ....
....|..|--- .... ....|R-- .... ....|--- .... ....
 D-4|..|D-2 2A.F ....|A-3 3FCF ....|C-5 6F.7 ....
....|..|--- .... ....|R-- .... ....|--- .... ....
....|..|D-2 2F.A ....|A-3 3FCA ....|R-- .... ....
....|..|--- .... ....|R-- .... ....|--- .... ....
 D-4|..|D-2 2A.F ....|A-3 3FCF ....|B-4 6F.F ....
....|..|--- .... ....|R-- .... ....|--- .... ....
....|..|D-2 2F.A ....|A-3 3FCA ....|--- .... ....
....|..|--- .... ....|R-- .... ....|R-- .... ....
 D-4|..|D-2 2A.F ....|A-3 3FCF ....|B-4 6F.F ....
....|..|--- .... ....|R-- .... ....|--- .... ....
....|..|D-2 2F.A ....|A-3 3FCA ....|B-4 6F.A ....
....|..|--- .... ....|R-- .... ....|R-- .... ....
 D-4|..|D-2 2A.F ....|A-3 3FCF ....|C-5 6F.F ....
....|..|--- .... ....|R-- .... ....|R-- .... ....
....|..|D-2 2F.A ....|A-3 3FCA ....|B-4 6F.A ....
....|..|--- .... ....|R-- .... ....|--- .... ....
 D-3|..|D-1 2A9F ....|A-3 3FCF ....|B-4 6F.7 ....
....|..|--- .... ....|R-- .... ....|R-- .... ....
....|..|D-2 2F.A ....|A-3 3FCA ....|C-5 6F.A ....
....|..|--- .... ....|R-- .... ....|R-- .... ....
 D-4|..|D-2 2A.F ....|A-3 3FCF ....|C-5 6F.F ....
....|..|--- .... ....|R-- .... ....|--- .... ....
....|..|D-1 2F9A ....|A-3 3FCA ....|R-- .... ....
....|..|--- .... ....|R-- .... ....|R-- .... ....
 D-4|..|D-2 2A.F ....|A-3 3FCF ....|C-5 6F.7 ....
....|..|--- .... ....|R-- .... ....|--- .... ....
....|..|D-2 2F.A ....|A-3 3FCA ....|C-5 6F.A ....
....|..|--- .... ....|R-- .... ....|--- .... ....
 D-4|..|D-2 2A.F ....|A-3 3FCF ....|R-- .... ....
....|..|--- .... ....|R-- .... ....|--- .... ....
....|..|D-2 2F.A ....|A-3 3FCA ....|R-- .... ....
....|..|--- .... ....|R-- .... ....|--- .... ....
 D-4|..|D-2 2A.F ....|A-3 3FCF ....|C-5 6F.7 ....
....|..|--- .... ....|R-- .... ....|--- .... ....
....|..|D-2 2F.A ....|A-3 3FCA ....|R-- .... ....
....|..|--- .... ....|R-- .... ....|--- .... ....
 D-4|..|D-2 2A.F ....|A-3 3FCF ....|--- .... ....
....|..|--- .... ....|R-- .... ....|--- .... ....
....|..|D-2 2F.A ....|A-3 3FCA ....|--- .... ....
....|..|--- .... ....|R-- .... ....|--- .... ....
 D-4|..|D-2 2A.F ....|A-3 3FCF ....|--- .... ....
....|..|--- .... ....|R-- .... ....|--- .... ....
....|..|D-2 2F.A ....|A-3 3FCA ....|--- .... ....
....|..|--- .... ....|R-- .... ....|--- .... ....
 D-4|..|D-2 2A.F ....|A-3 3FCF ....|--- .... ....
....|..|--- .... ....|R-- .... ....|--- .... ....
....|..|D-2 2F.A ....|A-3 3FCA ....|--- .... ....
....|..|--- .... ....|R-- .... ....|--- .... ....

[Pattern33]
....|..|D-2 2F.7 ....|A-3 3FC7 ....|A-4 6F.F ....
....|..|--- .... ....|R-- .... ....|--- .... ....
....|..|D-2 2F.A ....|A-3 3FCA ....|--- .... ....
....|..|--- .... ....|R-- .... ....|--- .... ....
....|..|D-2 2F.7 ....|A-3 3FC7 ....|--- .... ....
....|..|--- .... ....|R-- .... ....|--- .... ....
....|..|R-- .... ....|--- .... ....|A-4 6F.A ....
....|..|--- .... ....|--- .... ....|R-- .... ....
....|..|D-2 2F.7 ....|A-3 3FC7 ....|A-4 6F.F ....
....|..|--- .... ....|R-- .... ....|--- .... ....
....|..|--- .... ....|--- .... ....|--- .... ....
....|..|--- .... ....|--- .... ....|--- .... ....
....|..|R-- .... ....|--- .... ....|A-4 6F.7 ....
....|..|--- .... ....|--- .... ....|R-- .... ....
....|..|--- .... ....|--- .... ....|A-4 6F.A ....
....|..|--- .... ....|--- .... ....|--- .... ....
....|..|--- .... ....|--- .... ....|--- .... ....
....|..|--- .... ....|--- .... ....|A-4 6F.F ....
....|..|--- .... ....|--- .... ....|R-- .... ....
....|..|--- .... ....|--- .... ....|G-4 6F.F ....
....|..|--- .... ....|--- .... ....|A-4 6F.7 ....
....|..|--- .... ....|--- .... ....|E-4 6F.F ....
....|..|--- .... ....|--- .... ....|--- .... ....
....|..|--- .... ....|--- .... ....|A-4 6F.A ....
....|..|--- .... ....|--- .... ....|R-- .... ....
....|..|--- .... ....|--- .... ....|G-4 6F.A ....
....|..|--- .... ....|--- .... ....|R-- .... ....
....|..|--- .... ....|--- .... ....|E-4 6F.A ....
....|..|--- .... ....|--- .... ....|--- .... ....
....|..|--- .... ....|--- .... ....|A-4 6F.7 ....
....|..|--- .... ....|--- .... ....|R-- .... ....
....|..|--- .... ....|--- .... ....|G-4 6F.7 ....
....|..|--- .... ....|--- .... ....|B-4 6F.F ....
....|..|--- .... ....|--- .... ....|E-4 6F.7 ....
....|..|--- .... ....|--- .... ....|--- .... ....
....|..|--- .... ....|--- .... ....|R-- .... ....
....|..|--- .... ....|--- .... ....|B-4 6F.F ....
....|..|--- .... ....|--- .... ....|--- .... ....
....|..|--- .... ....|--- .... ....|B-4 6F.A ....
....|..|--- .... ....|--- .... ....|R-- .... ....
....|..|--- .... ....|--- .... ....|A-4 6F.F ....
....|..|--- .... ....|--- .... ....|R-- .... ....
....|..|--- .... ....|--- .... ....|B-4 6F.A ....
....|..|--- .... ....|--- .... ....|--- .... ....
....|..|--- .... ....|--- .... ....|G-4 6F.F ....
....|..|--- .... ....|--- .... ....|R-- .... ....
....|..|--- .... ....|--- .... ....|A-4 6F.A ....
....|..|--- .... ....|--- .... ....|R-- .... ....
....|..|--- .... ....|--- .... ....|E-4 6F.F ....
....|..|--- .... ....|--- .... ....|--- .... ....
....|..|--- .... ....|--- .... ....|G-4 6F.A ....
....|..|--- .... ....|--- .... ....|R-- .... ....
....|..|--- .... ....|B-2 4F.F ....|A-4 6F.7 ....
....|..|--- .... ....|--- .... ....|R-- .... ....
....|..|--- .... ....|--- .... ....|E-4 6F.A ....
....|..|--- .... ....|--- .... ....|--- .... ....
....|..|--- .... ....|D-3 4F.F ....|G-4 6F.7 ....
....|..|--- .... ....|--- .... ....|--- .... ....
....|..|--- .... ....|E-3 4F.F ....|--- .... ....
....|..|--- .... ....|--- .... ....|R-- .... ....
....|..|--- .... ....|--- .... ....|E-4 6F.7 ....
....|..|--- .... ....|--- .... ....|--- .... ....
....|..|--- .... ....|D-3 4F.A ....|--- .... ....
....|..|--- .... ....|--- .... ....|--- .... ....

[Pattern34]
....|..|--- .... ....|D-3 4F3F ....|A-4 6F.F ....
....|..|--- .... ....|--- .... ....|--- .... ....
....|..|--- .... ....|--- .... ....|R-- .... ....
....|..|--- .... ....|--- .... ....|--- .... ....
....|..|--- .... ....|D-3 4F.7 ....|--- .... ....
....|..|--- .... ....|--- .... ....|--- .... ....
....|..|--- .... ....|E-3 4F.7 ....|A-4 6F.A ....
....|..|--- .... ....|--- .... ....|D-5 6F.F ....
....|..|--- .... ....|--- .... ....|--- .... ....
....|..|--- .... ....|--- .... ....|--- .... ....
....|..|--- .... ....|R-- .... ....|--- .... ....
....|..|--- .... ....|D-3 4F.F ....|R-- .... ....
....|..|--- .... ....|D-3 4F37 ....|B-4 6F.F ....
....|..|--- .... ....|--- .... ....|D-5 6F.A ....
....|..|--- .... ....|--- .... ....|--- .... ....
....|..|--- .... ....|--- .... ....|--- .... ....
....|..|--- .... ....|--- .... ....|A-4 6F.F ....
....|..|--- .... ....|D-3 4F.A ....|R-- .... ....
....|..|--- .... ....|R-- .... ....|B-4 6F.A ....
....|..|--- .... ....|--- .... ....|D-5 6F.7 ....
....|..|--- .... ....|--- .... ....|G-4 6F.F ....
....|..|--- .... ....|--- .... ....|--- .... ....
....|..|--- .... ....|--- .... ....|A-4 6F.A ....
....|..|--- .... ....|D-3 4F.7 ....|R-- .... ....
....|..|--- .... ....|R-- .... ....|E-4 6F.F ....
....|..|--- .... ....|--- .... ....|R-- .... ....
....|..|--- .... ....|--- .... ....|G-4 6F.A ....
....|..|--- .... ....|--- .... ....|--- .... ....
....|..|--- .... ....|--- .... ....|E-4 6F.F ....
....|..|--- .... ....|--- .... ....|R-- .... ....
....|..|--- .... ....|--- .... ....|E-4 6F.A ....
....|..|--- .... ....|--- .... ....|R-- .... ....
....|..|--- .... ....|--- .... ....|G-4 6F.F ....
....|..|--- .... ....|--- .... ....|R-- .... ....
....|..|--- .... ....|--- .... ....|G-4 6F.F ....
....|..|--- .... ....|--- .... ....|R-- .... ....
....|..|--- .... ....|--- .... ....|D-4 UF.F ....
....|..|--- .... ....|--- .... ....|R-- .... ....
....|..|--- .... ....|--- .... ....|G-4 6F.F ....
....|..|--- .... ....|--- .... ....|R-- .... ....
....|..|--- .... ....|--- .... ....|A-4 6F.F ....
....|..|--- .... ....|--- .... ....|--- .... ....
....|..|--- .... ....|--- .... ....|D-4 UF.A ....
....|..|--- .... ....|--- .... ....|R-- .... ....
....|..|--- .... ....|--- .... ....|B-4 6F.F ....
....|..|--- .... ....|--- .... ....|R-- .... ....
....|..|--- .... ....|--- .... ....|G-4 6F.7 ....
....|..|--- .... ....|--- .... ....|--- .... ....
....|..|--- .... ....|D-3 3F.F ....|B-4 6F.F ....
....|..|--- .... ....|R-- .... ....|--- .... ....
....|..|--- .... ....|--- .... ....|G-4 6F.7 ....
....|..|--- .... ....|--- .... ....|R-- .... ....
....|..|--- .... ....|E-3 3F.F ....|D-4 UF.F ....
....|..|--- .... ....|--- .... ....|--- .... ....
....|..|--- .... ....|D-3 3F.A ....|B-4 6F.A ....
....|..|--- .... ....|R-- .... ....|R-- .... ....
....|..|--- .... ....|D-3 3F.F ....|D-4 UF.F ....
....|..|--- .... ....|--- .... ....|R-- .... ....
....|..|--- .... ....|E-3 3F.A ....|D-4 UF.F ....
....|..|--- .... ....|--- .... ....|R-- .... ....
....|..|--- .... ....|D-3 3FFF ....|A-3 UF.F ....
....|..|--- .... ....|R-- .... ....|A-3 UF.F ....
....|..|--- .... ....|D-3 3F.A ....|D-4 UF.A ....
....|..|--- .... ....|--- .... ....|R-- .... ....

[Pattern35]
 E-3|..|E-1 2A9F ....|E-3 3F.7 ....|A-4 6F.F ....
....|..|R-- .... ....|--- .... ....|R-- .... ....
....|..|--- .... ....|D-3 3FFA ....|A-3 UF.A ....
....|..|--- .... ....|--- .... ....|A-3 UF.A ....
 B-4|..|B-2 2A.F ....|D-3 3F.7 ....|D-4 UF.7 ....
....|..|R-- .... ....|--- .... ....|R-- .... ....
....|..|E-1 2F9A ....|R-- .... ....|A-4 6F.A ....
....|..|R-- .... ....|--- .... ....|R-- .... ....
 B-4|..|B-2 2A.F ....|D-3 3FF7 ....|A-4 6F.F ....
....|..|R-- .... ....|--- .... ....|A-3 UF.7 ....
....|..|B-2 2F.A ....|--- .... ....|--- .... ....
....|..|R-- .... ....|--- .... ....|R-- .... ....
 B-4|..|B-2 2A.F ....|R-- .... ....|A-4 6F.7 ....
....|..|R-- .... ....|--- .... ....|R-- .... ....
....|..|B-2 2F.A ....|--- .... ....|A-4 6F.A ....
....|..|R-- .... ....|--- .... ....|--- .... ....
 B-4|..|B-2 2A.F ....|--- .... ....|--- .... ....
....|..|R-- .... ....|--- .... ....|A-4 6F.F ....
....|..|B-2 2F.A ....|--- .... ....|R-- .... ....
....|..|R-- .... ....|--- .... ....|G-4 6F.F ....
 B-4|..|B-2 2A.F ....|--- .... ....|A-4 6F.7 ....
....|..|R-- .... ....|--- .... ....|E-4 6F.F ....
....|..|B-2 2F.A ....|--- .... ....|--- .... ....
....|..|R-- .... ....|--- .... ....|A-4 6F.A ....
 B-4|..|B-2 2A.F ....|--- .... ....|R-- .... ....
....|..|R-- .... ....|--- .... ....|G-4 6F.A ....
....|..|B-2 2F.A ....|--- .... ....|R-- .... ....
....|..|R-- .... ....|--- .... ....|E-4 6F.A ....
 B-4|..|B-2 2A.F ....|--- .... ....|--- .... ....
....|..|R-- .... ....|--- .... ....|A-4 6F.7 ....
....|..|B-2 2F.A ....|--- .... ....|R-- .... ....
....|..|R-- .... ....|--- .... ....|G-4 6F.7 ....
 B-4|..|B-2 2A.F ....|--- .... ....|B-4 6F.F ....
....|..|R-- .... ....|--- .... ....|E-4 6F.7 ....
....|..|B-2 2F.A ....|--- .... ....|--- .... ....
....|..|R-- .... ....|--- .... ....|R-- .... ....
 F#4|..|F#2 2A.F ....|C#3 3FEF ....|B-4 6F.F ....
....|..|R-- .... ....|--- .... ....|--- .... ....
....|..|B-2 2F.A ....|--- .... ....|B-4 6F.A ....
....|..|R-- .... ....|--- .... ....|R-- .... ....
 F#4|..|F#2 2A.F ....|--- .... ....|A-4 6F.F ....
....|..|R-- .... ....|R-- .... ....|R-- .... ....
....|..|F#2 2F.A ....|C#3 3FEA ....|B-4 6F.A ....
....|..|R-- .... ....|--- .... ....|--- .... ....
 F#4|..|F#2 2A.F ....|B-3 3FEF ....|G-4 6F.F ....
....|..|R-- .... ....|--- .... ....|R-- .... ....
....|..|F#2 2F.A ....|--- .... ....|A-4 6F.A ....
....|..|R-- .... ....|R-- .... ....|R-- .... ....
 F#4|..|F#2 2A.F ....|C#3 3FE7 ....|E-4 6F.F ....
....|..|R-- .... ....|--- .... ....|--- .... ....
....|..|F#2 2F.A ....|B-3 3FEA ....|G-4 6F.A ....
....|..|R-- .... ....|--- .... ....|R-- .... ....
 F#4|..|F#2 2A.F ....|--- .... ....|B-2 UF.F ....
....|..|R-- .... ....|R-- .... ....|--- .... ....
....|..|F#2 2F.A ....|--- .... ....|D-3 UF.F ....
....|..|R-- .... ....|--- .... ....|R-- .... ....
 F#4|..|F#2 2A.F ....|B-3 3FE7 ....|E-3 UF.F ....
....|..|R-- .... ....|--- .... ....|R-- .... ....
....|..|F#2 2F.A ....|--- .... ....|G-3 UF.F ....
....|..|R-- .... ....|--- .... ....|R-- .... ....
 F#4|..|F#2 2A.F ....|--- .... ....|D-3 UF.A ....
....|..|R-- .... ....|--- .... ....|R-- .... ....
....|..|F#2 2F.A ....|R-- .... ....|G-3 UF.F ....
....|..|R-- .... ....|--- .... ....|R-- .... ....

[Pattern36]
 F#4|..|F#2 2A.F ....|--- .... ....|A-4 6F.F ....
....|..|R-- .... ....|--- .... ....|R-- .... ....
....|..|F#2 2F.A ....|--- .... ....|D-3 UF.7 ....
....|..|R-- .... ....|--- .... ....|R-- .... ....
 A-3|..|A-2 2C.F ....|--- .... ....|E-3 UF.F ....
....|..|R-- .... ....|--- .... ....|R-- .... ....
....|..|F#2 2F.A ....|--- .... ....|A-4 6F.A ....
....|..|R-- .... ....|--- .... ....|D-5 6F.F ....
 A-3|..|A-2 2C.F ....|--- .... ....|--- .... ....
....|..|R-- .... ....|--- .... ....|--- .... ....
....|..|A-2 2F.A ....|--- .... ....|G-3 UF.7 ....
....|..|R-- .... ....|--- .... ....|R-- .... ....
 A-3|..|A-2 2C.F ....|--- .... ....|B-4 6F.F ....
....|..|R-- .... ....|--- .... ....|D-5 6F.A ....
....|..|A-2 2F.A ....|--- .... ....|--- .... ....
....|..|R-- .... ....|--- .... ....|--- .... ....
 A-3|..|A-2 2C.F ....|--- .... ....|A-4 6F.F ....
....|..|R-- .... ....|--- .... ....|R-- .... ....
....|..|A-2 2F.A ....|--- .... ....|E-3 UF.F ....
....|..|R-- .... ....|--- .... ....|R-- .... ....
 A-3|..|A-2 2C.F ....|--- .... ....|G-4 6F.F ....
....|..|R-- .... ....|--- .... ....|R-- .... ....
....|..|A-2 2F.A ....|--- .... ....|A-4 6F.A ....
....|..|R-- .... ....|--- .... ....|R-- .... ....
 A-3|..|A-2 2C.F ....|--- .... ....|E-4 6F.F ....
....|..|R-- .... ....|--- .... ....|R-- .... ....
....|..|A-2 2F.A ....|--- .... ....|G-4 6F.A ....
....|..|R-- .... ....|--- .... ....|R-- .... ....
 A-3|..|A-2 2C.F ....|--- .... ....|E-4 6F.F ....
....|..|R-- .... ....|--- .... ....|R-- .... ....
....|..|A-2 2F.A ....|--- .... ....|E-4 6F.A ....
....|..|R-- .... ....|--- .... ....|R-- .... ....
 A-3|..|A-2 2C.F ....|--- .... ....|G-4 6F.F ....
....|..|R-- .... ....|--- .... ....|R-- .... ....
....|..|A-2 2F.A ....|--- .... ....|E-4 6F.A ....
....|..|R-- .... ....|--- .... ....|R-- .... ....
 F#4|..|F#2 2A.F ....|--- .... ....|G-4 6F.F ....
....|..|R-- .... ....|--- .... ....|R-- .... ....
....|..|A-2 2F.A ....|--- .... ....|B-3 UF.F ....
....|..|R-- .... ....|--- .... ....|R-- .... ....
 F#4|..|F#2 2A.F ....|--- .... ....|A-4 6F.F ....
....|..|R-- .... ....|--- .... ....|R-- .... ....
....|..|F#2 2F.A ....|--- .... ....|B-3 UF.F ....
....|..|R-- .... ....|--- .... ....|R-- .... ....
 F#4|..|F#2 2A.F ....|--- .... ....|B-4 6F.F ....
....|..|R-- .... ....|--- .... ....|R-- .... ....
....|..|F#2 2F.A ....|--- .... ....|A-4 6F.A ....
....|..|R-- .... ....|--- .... ....|R-- .... ....
 F#4|..|F#2 2A.F ....|--- .... ....|B-4 6F.F ....
....|..|R-- .... ....|--- .... ....|R-- .... ....
....|..|F#2 2F.A ....|--- .... ....|B-4 6F.A ....
....|..|R-- .... ....|--- .... ....|R-- .... ....
 A-3|..|A-2 2C.F ....|--- .... ....|A-4 6F.7 ....
....|..|R-- .... ....|--- .... ....|R-- .... ....
....|..|F#2 2F.A ....|--- .... ....|D-4 UF.F ....
....|..|R-- .... ....|--- .... ....|R-- .... ....
 A-3|..|A-2 2C.F ....|--- .... ....|E-5 6F.F ....
....|..|R-- .... ....|--- .... ....|R-- .... ....
....|..|A-2 2F.A ....|--- .... ....|D-4 UF.F ....
....|..|R-- .... ....|--- .... ....|R-- .... ....
 A-3|..|A-2 2C.F ....|--- .... ....|E-4 UF.F ....
....|..|R-- .... ....|--- .... ....|R-- .... ....
....|..|A-2 2F.A ....|--- .... ....|E-5 6F.A ....
....|..|R-- .... ....|--- .... ....|R-- .... ....

[Pattern37]
 E-3|..|E-1 2A9F ....|G-3 4F1F ....|D-4 UF.A ....
....|..|R-- .... ....|R-- .... ....|--- .... ....
....|..|A-2 2F.A ....|R-- .... ....|D-4 UF.7 ....
....|..|R-- .... ....|--- .... ....|R-- .... ....
....|..|A-2 2F.7 ....|G-3 4F1F ....|E-5 6F.7 ....
....|..|R-- .... ....|R-- .... ....|R-- .... ....
....|..|E-1 2F9A ....|G-3 4F1A ....|D-4 UF.7 ....
....|..|--- .... ....|R-- .... ....|--- .... ....
....|..|A-2 2F.7 ....|A-3 4F2F ....|E-4 UF.7 ....
....|..|R-- .... ....|R-- .... ....|R-- .... ....
....|..|--- .... ....|G-3 4F1A ....|R-- .... ....
....|..|--- .... ....|R-- .... ....|--- .... ....
....|..|E-1 2F97 ....|A-3 4F.F ....|--- .... ....
....|..|--- .... ....|R-- .... ....|--- .... ....
....|..|--- .... ....|G-3 4F1F ....|--- .... ....
....|..|--- .... ....|R-- .... ....|--- .... ....
....|..|--- .... ....|B-3 3FDF ....|--- .... ....
....|..|--- .... ....|R-- .... ....|--- .... ....
....|..|--- .... ....|A-3 4F.A ....|--- .... ....
....|..|--- .... ....|R-- .... ....|--- .... ....
....|..|--- .... ....|B-3 3FDF ....|--- .... ....
....|..|--- .... ....|R-- .... ....|--- .... ....
....|..|--- .... ....|B-3 3FDA ....|--- .... ....
....|..|--- .... ....|R-- .... ....|--- .... ....
....|..|--- .... ....|B-3 3FDF ....|--- .... ....
....|..|--- .... ....|B-3 3F.F ....|--- .... ....
....|..|--- .... ....|B-3 3FDA ....|--- .... ....
....|..|--- .... ....|R-- .... ....|--- .... ....
....|..|--- .... ....|B-3 3FDF ....|--- .... ....
....|..|--- .... ....|R-- .... ....|--- .... ....
....|..|--- .... ....|B-3 3FDA ....|--- .... ....
....|..|--- .... ....|B-3 3F.A ....|--- .... ....
 D-3|..|D-1 2A9F ....|G-3 4F1F ....|--- .... ....
....|..|--- .... ....|R-- .... ....|--- .... ....
....|..|--- .... ....|B-3 3FDA ....|--- .... ....
....|..|--- .... ....|R-- .... ....|--- .... ....
....|..|--- .... ....|G-3 4F1F ....|--- .... ....
....|..|--- .... ....|B-3 3F.7 ....|--- .... ....
....|..|D-1 2F9A ....|G-3 4F1A ....|--- .... ....
....|..|--- .... ....|R-- .... ....|--- .... ....
....|..|--- .... ....|A-3 4F2F ....|--- .... ....
....|..|--- .... ....|R-- .... ....|--- .... ....
....|..|--- .... ....|G-3 4F1A ....|--- .... ....
....|..|--- .... ....|R-- .... ....|--- .... ....
....|..|D-1 2F97 ....|A-3 4F.F ....|G-4 6F.F ....
....|..|--- .... ....|R-- .... ....|--- .... ....
....|..|--- .... ....|G-3 4F1F ....|R-- .... ....
....|..|--- .... ....|R-- .... ....|--- .... ....
....|..|--- .... ....|A-3 3FCF ....|A-4 6F.F ....
....|..|--- .... ....|R-- .... ....|--- .... ....
....|..|--- .... ....|A-3 4F.A ....|G-4 6F.A ....
....|..|--- .... ....|R-- .... ....|R-- .... ....
....|..|--- .... ....|A-3 3FCF ....|G-4 6F.F ....
....|..|--- .... ....|R-- .... ....|--- .... ....
....|..|--- .... ....|A-3 3FCA ....|A-4 6F.A ....
....|..|--- .... ....|R-- .... ....|--- .... ....
....|..|--- .... ....|A-3 3FCF ....|A-4 6F.F ....
....|..|--- .... ....|R-- .... ....|R-- .... ....
....|..|--- .... ....|A-3 3FCA ....|G-4 6F.A ....
....|..|--- .... ....|R-- .... ....|--- .... ....
....|..|--- .... ....|A-3 3FCF ....|B-4 6F.F ....
....|..|--- .... ....|R-- .... ....|--- .... ....
....|..|--- .... ....|A-3 3FCA ....|A-4 6F.A ....
....|..|--- .... ....|R-- .... ....|R-- .... ....

[Pattern38]
 C-3|..|C-1 2A9F ....|G-3 4F1F ....|B-4 6F.F ....
....|..|--- .... ....|R-- .... ....|--- .... ....
....|..|--- .... ....|A-3 3FCA ....|B-4 6F.A ....
....|..|--- .... ....|R-- .... ....|--- .... ....
....|..|--- .... ....|G-3 4F1F ....|A-4 6F.7 ....
....|..|--- .... ....|R-- .... ....|--- .... ....
....|..|C-1 2F9A ....|G-3 4F1A ....|B-4 6F.A ....
....|..|--- .... ....|R-- .... ....|--- .... ....
....|..|--- .... ....|A-3 4F2F ....|B-4 6F.7 ....
....|..|--- .... ....|R-- .... ....|--- .... ....
....|..|--- .... ....|G-3 4F1A ....|R-- .... ....
....|..|--- .... ....|R-- .... ....|--- .... ....
....|..|C-1 2F97 ....|A-3 4F.F ....|B-4 6F.7 ....
....|..|--- .... ....|R-- .... ....|--- .... ....
....|..|--- .... ....|G-3 4F1F ....|--- .... ....
....|..|--- .... ....|R-- .... ....|--- .... ....
....|..|--- .... ....|E-3 3F2F ....|--- .... ....
....|..|--- .... ....|R-- .... ....|--- .... ....
....|..|--- .... ....|A-3 4F.A ....|--- .... ....
....|..|--- .... ....|R-- .... ....|--- .... ....
....|..|--- .... ....|E-3 3F2F ....|--- .... ....
....|..|--- .... ....|R-- .... ....|--- .... ....
....|..|--- .... ....|E-3 3F2A ....|--- .... ....
....|..|--- .... ....|R-- .... ....|R-- .... ....
....|..|--- .... ....|E-3 3F2F ....|B-4 6F.F ....
....|..|--- .... ....|R-- .... ....|--- .... ....
....|..|--- .... ....|E-3 3F2A ....|--- .... ....
....|..|--- .... ....|R-- .... ....|--- .... ....
....|..|--- .... ....|E-3 3F2F ....|A-4 6F.F ....
....|..|--- .... ....|R-- .... ....|R-- .... ....
....|..|--- .... ....|E-3 3F2A ....|B-4 6F.A ....
....|..|--- .... ....|R-- .... ....|--- .... ....
 C-3|..|C-1 2A9F ....|G-3 4F1F ....|R-- .... ....
....|..|--- .... ....|R-- .... ....|--- .... ....
....|..|--- .... ....|E-3 3F2A ....|A-4 6F.A ....
....|..|--- .... ....|R-- .... ....|R-- .... ....
....|..|--- .... ....|G-3 4F1F ....|B-4 6F.7 ....
....|..|--- .... ....|R-- .... ....|--- .... ....
....|..|C-1 2F9A ....|G-3 4F1A ....|R-- .... ....
....|..|--- .... ....|R-- .... ....|--- .... ....
....|..|--- .... ....|A-3 4F2F ....|A-4 6F.7 ....
....|..|--- .... ....|R-- .... ....|--- .... ....
....|..|--- .... ....|G-3 4F1A ....|--- .... ....
....|..|--- .... ....|R-- .... ....|--- .... ....
....|..|C-1 2F97 ....|A-3 4F.F ....|G-4 6F.F ....
....|..|--- .... ....|R-- .... ....|--- .... ....
....|..|--- .... ....|G-3 4F1F ....|R-- .... ....
....|..|--- .... ....|R-- .... ....|--- .... ....
 D-3|..|D-1 2A9F ....|F#3 3FEF ....|A-4 6F.F ....
....|..|--- .... ....|R-- .... ....|--- .... ....
....|..|--- .... ....|A-3 4F.A ....|G-4 6F.A ....
....|..|--- .... ....|R-- .... ....|--- .... ....
....|..|--- .... ....|F#3 3FEF ....|G-4 6F.F ....
....|..|--- .... ....|R-- .... ....|--- .... ....
....|..|D-1 2F9A ....|F#3 3FEA ....|A-4 6F.A ....
....|..|--- .... ....|R-- .... ....|R-- .... ....
....|..|--- .... ....|F#3 3FEF ....|A-4 6F.F ....
....|..|--- .... ....|R-- .... ....|--- .... ....
....|..|--- .... ....|F#3 3FEA ....|G-4 6F.A ....
....|..|--- .... ....|R-- .... ....|--- .... ....
....|..|D-1 2F97 ....|F#3 3FEF ....|B-4 6F.F ....
....|..|--- .... ....|R-- .... ....|R-- .... ....
....|..|--- .... ....|F#3 3FEA ....|A-4 6F.A ....
....|..|--- .... ....|R-- .... ....|--- .... ....

[Pattern39]
 E-3|..|E-1 2A9F ....|G-3 4F1F ....|G-4 6F.7 ....
....|..|--- .... ....|R-- .... ....|B-4 6F.F ....
....|..|--- .... ....|F#3 3FEA ....|B-4 6F.A ....
....|..|--- .... ....|R-- .... ....|A-4 6F.F ....
....|..|--- .... ....|G-3 4F1F ....|A-4 6F.F ....
....|..|--- .... ....|R-- .... ....|G-4 6F.F ....
....|..|E-1 2F9A ....|G-3 4F1A ....|--- .... ....
....|..|--- .... ....|R-- .... ....|B-4 6F.A ....
....|..|--- .... ....|A-3 4F2F ....|B-4 6F.7 ....
....|..|--- .... ....|R-- .... ....|A-4 6F.A ....
....|..|--- .... ....|G-3 4F1A ....|A-4 6F.A ....
....|..|--- .... ....|R-- .... ....|G-4 6F.A ....
....|..|E-1 2F97 ....|A-3 4F.F ....|--- .... ....
....|..|--- .... ....|R-- .... ....|B-4 6F.7 ....
....|..|--- .... ....|G-3 4F1F ....|R-- .... ....
....|..|--- .... ....|R-- .... ....|A-4 6F.7 ....
....|..|--- .... ....|B-3 3FDF ....|A-4 6F.7 ....
....|..|--- .... ....|R-- .... ....|G-4 6F.7 ....
....|..|--- .... ....|A-3 4F.A ....|--- .... ....
....|..|--- .... ....|R-- .... ....|R-- .... ....
....|..|--- .... ....|B-3 3FDF ....|E-4 6F.F ....
....|..|--- .... ....|R-- .... ....|R-- .... ....
....|..|--- .... ....|B-3 3FDA ....|D-4 6F.F ....
....|..|--- .... ....|R-- .... ....|--- .... ....
....|..|--- .... ....|B-3 3FDF ....|E-4 6F.F ....
....|..|--- .... ....|B-3 3F.F ....|R-- .... ....
....|..|--- .... ....|B-3 3FDA ....|E-4 6F.A ....
....|..|--- .... ....|R-- .... ....|R-- .... ....
....|..|--- .... ....|B-3 3FDF ....|G-4 6F.F ....
....|..|--- .... ....|R-- .... ....|--- .... ....
....|..|--- .... ....|B-3 3FDA ....|E-4 6F.A ....
....|..|--- .... ....|B-3 3F.A ....|R-- .... ....
 D-3|..|D-1 2A9F ....|G-3 4F1F ....|E-4 6F.7 ....
....|..|--- .... ....|R-- .... ....|R-- .... ....
....|..|--- .... ....|B-3 3FDA ....|D-4 6F.7 ....
....|..|--- .... ....|R-- .... ....|--- .... ....
....|..|--- .... ....|G-3 4F1F ....|E-4 6F.7 ....
....|..|--- .... ....|B-3 3F.7 ....|--- .... ....
....|..|D-1 2F9A ....|G-3 4F1A ....|--- .... ....
....|..|--- .... ....|R-- .... ....|R-- .... ....
....|..|--- .... ....|A-3 4F2F ....|G-4 6F.7 ....
....|..|--- .... ....|R-- .... ....|--- .... ....
....|..|--- .... ....|G-3 4F1A ....|--- .... ....
....|..|--- .... ....|R-- .... ....|--- .... ....
....|..|D-1 2F97 ....|A-3 4F.F ....|R-- .... ....
....|..|--- .... ....|R-- .... ....|--- .... ....
....|..|--- .... ....|G-3 4F1F ....|--- .... ....
....|..|--- .... ....|R-- .... ....|--- .... ....
....|..|--- .... ....|A-3 3FCF ....|--- .... ....
....|..|--- .... ....|R-- .... ....|--- .... ....
....|..|--- .... ....|A-3 4F.A ....|R-- .... ....
....|..|--- .... ....|R-- .... ....|--- .... ....
....|..|--- .... ....|A-3 3FCF ....|--- .... ....
....|..|--- .... ....|R-- .... ....|--- .... ....
....|..|--- .... ....|A-3 3FCA ....|--- .... ....
....|..|--- .... ....|R-- .... ....|--- .... ....
....|..|--- .... ....|A-3 3FCF ....|R-- .... ....
....|..|--- .... ....|R-- .... ....|--- .... ....
....|..|--- .... ....|A-3 3FCA ....|--- .... ....
....|..|--- .... ....|R-- .... ....|--- .... ....
....|..|--- .... ....|A-3 3FCF ....|G-4 6F.F ....
....|..|--- .... ....|R-- .... ....|R-- .... ....
....|..|--- .... ....|A-3 3FCA ....|G-4 6F.F ....
....|..|--- .... ....|R-- .... ....|--- .... ....

[Pattern40]
 C-3|..|C-1 2A9F ....|G-3 4F1F ....|--- .... ....
....|..|--- .... ....|R-- .... ....|--- .... ....
....|..|--- .... ....|A-3 3FCA ....|G-4 6F.A ....
....|..|--- .... ....|R-- .... ....|F#4 6F.F ....
....|..|--- .... ....|G-3 4F1F ....|E-4 6F.F ....
....|..|--- .... ....|R-- .... ....|--- .... ....
....|..|C-1 2F9A ....|G-3 4F1A ....|--- .... ....
....|..|--- .... ....|R-- .... ....|R-- .... ....
....|..|--- .... ....|A-3 4F2F ....|G-4 6F.7 ....
....|..|--- .... ....|R-- .... ....|F#4 6F.A ....
....|..|--- .... ....|G-3 4F1A ....|G-4 6F.7 ....
....|..|--- .... ....|R-- .... ....|G-4 6F.F ....
....|..|C-1 2F97 ....|A-3 4F.F ....|R-- .... ....
....|..|--- .... ....|R-- .... ....|R-- .... ....
....|..|--- .... ....|G-3 4F1F ....|G-4 6F.F ....
....|..|--- .... ....|R-- .... ....|F#4 6F.7 ....
....|..|--- .... ....|E-3 3F2F ....|E-4 6F.7 ....
....|..|--- .... ....|R-- .... ....|G-4 6F.A ....
....|..|--- .... ....|A-3 4F.A ....|F#4 6F.F ....
....|..|--- .... ....|R-- .... ....|R-- .... ....
....|..|--- .... ....|E-3 3F2F ....|E-4 6F.F ....
....|..|--- .... ....|R-- .... ....|--- .... ....
....|..|--- .... ....|E-3 3F2A ....|--- .... ....
....|..|--- .... ....|R-- .... ....|G-4 6F.7 ....
....|..|--- .... ....|E-3 3F2F ....|F#4 6F.A ....
....|..|--- .... ....|R-- .... ....|--- .... ....
....|..|--- .... ....|E-3 3F2A ....|G-4 6F.7 ....
....|..|--- .... ....|R-- .... ....|--- .... ....
....|..|--- .... ....|E-3 3F2F ....|G-4 6F.F ....
....|..|--- .... ....|R-- .... ....|R-- .... ....
....|..|--- .... ....|E-3 3F2A ....|G-4 6F.F ....
....|..|--- .... ....|R-- .... ....|--- .... ....
 C-3|..|C-1 2A9F ....|G-3 4F1F ....|E-4 6F.7 ....
....|..|--- .... ....|R-- .... ....|--- .... ....
....|..|--- .... ....|E-3 3F2A ....|F#4 6F.F ....
....|..|--- .... ....|R-- .... ....|R-- .... ....
....|..|--- .... ....|G-3 4F1F ....|E-4 6F.F ....
....|..|--- .... ....|R-- .... ....|--- .... ....
....|..|C-1 2F9A ....|G-3 4F1A ....|--- .... ....
....|..|--- .... ....|R-- .... ....|R-- .... ....
....|..|--- .... ....|A-3 4F2F ....|G-4 6F.7 ....
....|..|--- .... ....|R-- .... ....|R-- .... ....
....|..|--- .... ....|G-3 4F1A ....|G-4 6F.7 ....
....|..|--- .... ....|R-- .... ....|--- .... ....
....|..|C-1 2F97 ....|A-3 4F.F ....|B-4 6F.F ....
....|..|--- .... ....|R-- .... ....|R-- .... ....
....|..|--- .... ....|G-3 4F1F ....|F#4 6F.7 ....
....|..|--- .... ....|R-- .... ....|--- .... ....
 D-3|..|D-1 2A9F ....|F#3 3FEF ....|D-5 6F.F ....
....|..|--- .... ....|R-- .... ....|--- .... ....
....|..|--- .... ....|A-3 4F.A ....|B-4 6F.A ....
....|..|--- .... ....|R-- .... ....|R-- .... ....
....|..|--- .... ....|F#3 3FEF ....|B-4 6F.F ....
....|..|--- .... ....|R-- .... ....|--- .... ....
....|..|D-1 2F9A ....|F#3 3FEA ....|D-5 6F.A ....
....|..|--- .... ....|R-- .... ....|--- .... ....
....|..|--- .... ....|F#3 3FEF ....|D-5 6F.F ....
....|..|--- .... ....|R-- .... ....|R-- .... ....
....|..|--- .... ....|F#3 3FEA ....|B-4 6F.A ....
....|..|--- .... ....|R-- .... ....|--- .... ....
....|..|D-1 2F97 ....|F#3 3FEF ....|B-4 6F.F ....
....|..|--- .... ....|R-- .... ....|--- .... ....
....|..|--- .... ....|F#3 3FEA ....|D-5 6F.A ....
....|..|--- .... ....|R-- .... ....|--- .... ....

[Pattern41]
 E-3|..|E-1 2A9F ....|G-3 4F1F ....|E-5 6F.F ....
....|..|--- .... ....|R-- .... ....|--- .... ....
....|..|--- .... ....|F#3 3FEA ....|B-4 6F.A ....
....|..|--- .... ....|R-- .... ....|--- .... ....
 E-4|..|E-2 2A.F ....|G-3 4F1F ....|D-5 6F.7 ....
....|..|--- .... ....|R-- .... ....|--- .... ....
....|..|E-1 2F9A ....|G-3 4F1A ....|E-5 6F.A ....
....|..|--- .... ....|R-- .... ....|--- .... ....
 E-4|..|E-2 2A.F ....|A-3 4F2F ....|B-4 6F.7 ....
....|..|--- .... ....|R-- .... ....|--- .... ....
....|..|E-2 2F.A ....|G-3 4F1A ....|R-- .... ....
....|..|--- .... ....|R-- .... ....|--- .... ....
 E-4|..|E-2 2A.F ....|A-3 4F.F ....|E-5 6F.7 ....
....|..|--- .... ....|R-- .... ....|--- .... ....
....|..|E-2 2F.A ....|G-3 4F1F ....|--- .... ....
....|..|--- .... ....|R-- .... ....|--- .... ....
 E-4|..|E-2 2A.F ....|B-3 3FDF ....|--- .... ....
....|..|--- .... ....|R-- .... ....|--- .... ....
....|..|E-2 2F.A ....|A-3 4F.A ....|--- .... ....
....|..|--- .... ....|R-- .... ....|--- .... ....
 E-4|..|E-2 2A.F ....|B-3 3FDF ....|--- .... ....
....|..|--- .... ....|R-- .... ....|--- .... ....
....|..|E-2 2F.A ....|B-3 3FDA ....|--- .... ....
....|..|--- .... ....|R-- .... ....|--- .... ....
 E-4|..|E-2 2A.F ....|B-3 3FDF ....|--- .... ....
....|..|--- .... ....|B-3 3F.F ....|--- .... ....
....|..|E-2 2F.A ....|B-3 3FDA ....|--- .... ....
....|..|--- .... ....|R-- .... ....|R-- .... ....
 E-4|..|E-2 2A.F ....|B-3 3FDF ....|D-5 6F.F ....
....|..|--- .... ....|R-- .... ....|--- .... ....
....|..|E-2 2F.A ....|B-3 3FDA ....|--- .... ....
....|..|--- .... ....|B-3 3F.A ....|--- .... ....
 D-3|..|D-1 2A9F ....|G-3 4F1F ....|--- .... ....
....|..|--- .... ....|R-- .... ....|R-- .... ....
....|..|E-2 2F.A ....|B-3 3FDA ....|D-5 6F.A ....
....|..|--- .... ....|R-- .... ....|--- .... ....
 D-4|..|D-2 2A.F ....|G-3 4F1F ....|R-- .... ....
....|..|--- .... ....|B-3 3F.7 ....|--- .... ....
....|..|D-1 2F9A ....|G-3 4F1A ....|--- .... ....
....|..|--- .... ....|R-- .... ....|R-- .... ....
 D-4|..|D-2 2A.F ....|A-3 4F2F ....|D-5 6F.7 ....
....|..|--- .... ....|R-- .... ....|--- .... ....
....|..|D-2 2F.A ....|G-3 4F1A ....|R-- .... ....
....|..|--- .... ....|R-- .... ....|--- .... ....
 D-4|..|D-2 2A.F ....|A-3 4F.F ....|B-4 6F.F ....
....|..|--- .... ....|R-- .... ....|R-- .... ....
....|..|D-2 2F.A ....|G-3 4F1F ....|--- .... ....
....|..|--- .... ....|R-- .... ....|--- .... ....
 D-4|..|D-2 2A.F ....|A-3 3FCF ....|D-5 6F.F ....
....|..|--- .... ....|R-- .... ....|--- .... ....
....|..|D-2 2F.A ....|A-3 4F.A ....|B-4 6F.A ....
....|..|--- .... ....|R-- .... ....|R-- .... ....
 D-4|..|D-2 2A.F ....|A-3 3FCF ....|R-- .... ....
....|..|--- .... ....|R-- .... ....|B-4 6F.F ....
....|..|D-2 2F.A ....|A-3 3FCA ....|D-5 6F.A ....
....|..|--- .... ....|R-- .... ....|--- .... ....
 D-4|..|D-2 2A.F ....|A-3 3FCF ....|D-5 6F.F ....
....|..|--- .... ....|R-- .... ....|R-- .... ....
....|..|D-2 2F.A ....|A-3 3FCA ....|R-- .... ....
....|..|--- .... ....|R-- .... ....|B-4 6F.A ....
 D-4|..|D-2 2A.F ....|A-3 3FCF ....|B-4 6F.F ....
....|..|--- .... ....|R-- .... ....|--- .... ....
....|..|D-2 2F.A ....|A-3 3FCA ....|D-5 6F.A ....
....|..|--- .... ....|R-- .... ....|--- .... ....

[Pattern45]
 E-3|..|E-1 2A9F ....|G-3 4F1F ....|E-5 6F.F ....
....|..|--- .... ....|R-- .... ....|B-4 6F.7 ....
....|..|D-2 2F.A ....|F#3 3FEA ....|B-4 6F.A ....
....|..|--- .... ....|R-- .... ....|--- .... ....
 E-4|..|E-2 2A.F ....|G-3 4F1F ....|D-5 6F.7 ....
....|..|--- .... ....|R-- .... ....|--- .... ....
....|..|E-1 2F9A ....|G-3 4F1A ....|E-5 6F.A ....
....|..|--- .... ....|R-- .... ....|--- .... ....
 E-4|..|E-2 2A.F ....|A-3 4F2F ....|B-4 6F.7 ....
....|..|--- .... ....|R-- .... ....|--- .... ....
....|..|E-2 2F.A ....|G-3 4F1A ....|R-- .... ....
....|..|--- .... ....|R-- .... ....|--- .... ....
 E-4|..|E-2 2A.F ....|A-3 4F.F ....|E-5 6F.7 ....
....|..|--- .... ....|R-- .... ....|--- .... ....
....|..|E-2 2F.A ....|G-3 4F1F ....|--- .... ....
....|..|--- .... ....|R-- .... ....|--- .... ....
 E-4|..|E-2 2A.F ....|B-3 3FDF ....|--- .... ....
....|..|--- .... ....|R-- .... ....|--- .... ....
....|..|E-2 2F.A ....|A-3 4F.A ....|--- .... ....
....|..|--- .... ....|R-- .... ....|--- .... ....
 E-4|..|E-2 2A.F ....|B-3 3FDF ....|--- .... ....
....|..|--- .... ....|R-- .... ....|--- .... ....
....|..|E-2 2F.A ....|B-3 3FDA ....|--- .... ....
....|..|--- .... ....|R-- .... ....|--- .... ....
 E-4|..|E-2 2A.F ....|B-3 3FDF ....|--- .... ....
....|..|--- .... ....|B-3 3F.F ....|--- .... ....
....|..|E-2 2F.A ....|B-3 3FDA ....|--- .... ....
....|..|--- .... ....|R-- .... ....|R-- .... ....
 E-4|..|E-2 2A.F ....|B-3 3FDF ....|D-5 6F.F ....
....|..|--- .... ....|R-- .... ....|--- .... ....
....|..|E-2 2F.A ....|B-3 3FDA ....|--- .... ....
....|..|--- .... ....|B-3 3F.A ....|--- .... ....
 D-3|..|D-1 2A9F ....|G-3 4F1F ....|--- .... ....
....|..|--- .... ....|R-- .... ....|R-- .... ....
....|..|E-2 2F.A ....|B-3 3FDA ....|D-5 6F.A ....
....|..|--- .... ....|R-- .... ....|--- .... ....
 D-4|..|D-2 2A.F ....|G-3 4F1F ....|R-- .... ....
....|..|--- .... ....|B-3 3F.7 ....|--- .... ....
....|..|D-1 2F9A ....|G-3 4F1A ....|--- .... ....
....|..|--- .... ....|R-- .... ....|R-- .... ....
 D-4|..|D-2 2A.F ....|A-3 4F2F ....|D-5 6F.7 ....
....|..|--- .... ....|R-- .... ....|--- .... ....
....|..|D-2 2F.A ....|G-3 4F1A ....|R-- .... ....
....|..|--- .... ....|R-- .... ....|--- .... ....
 D-4|..|D-2 2A.F ....|A-3 4F.F ....|B-4 6F.F ....
....|..|--- .... ....|R-- .... ....|R-- .... ....
....|..|D-2 2F.A ....|G-3 4F1F ....|--- .... ....
....|..|--- .... ....|R-- .... ....|--- .... ....
 D-4|..|D-2 2A.F ....|A-3 3FCF ....|D-5 6F.F ....
....|..|--- .... ....|R-- .... ....|--- .... ....
....|..|D-2 2F.A ....|A-3 4F.A ....|B-4 6F.A ....
....|..|--- .... ....|R-- .... ....|R-- .... ....
 D-4|..|D-2 2A.F ....|A-3 3FCF ....|R-- .... ....
....|..|--- .... ....|R-- .... ....|B-4 6F.F ....
....|..|D-2 2F.A ....|A-3 3FCA ....|D-5 6F.A ....
....|..|--- .... ....|R-- .... ....|--- .... ....
 D-4|..|D-2 2A.F ....|A-3 3FCF ....|D-5 6F.F ....
....|..|--- .... ....|R-- .... ....|R-- .... ....
....|..|D-2 2F.A ....|A-3 3FCA ....|R-- .... ....
....|..|--- .... ....|R-- .... ....|B-4 6F.A ....
 D-4|..|D-2 2A.F ....|A-3 3FCF ....|B-4 6F.F ....
....|..|--- .... ....|R-- .... ....|--- .... ....
....|..|D-2 2F.A ....|A-3 3FCA ....|D-5 6F.A ....
....|..|--- .... ....|R-- .... ....|--- .... ....

[Pattern48]
 C-3|..|C-1 2A9F ....|G-3 4F1F ....|B-4 6F.7 ....
....|..|--- .... ....|R-- .... ....|R-- .... ....
....|..|D-2 2F.A ....|A-3 3FCA ....|C-5 6F.A ....
....|..|--- .... ....|R-- .... ....|R-- .... ....
 C-4|..|C-2 2A.F ....|G-3 4F1F ....|C-5 6F.F ....
....|..|--- .... ....|R-- .... ....|--- .... ....
....|..|C-1 2F9A ....|G-3 4F1A ....|R-- .... ....
....|..|--- .... ....|R-- .... ....|R-- .... ....
 C-4|..|C-2 2A.F ....|A-3 4F2F ....|B-4 6F.F ....
....|..|--- .... ....|R-- .... ....|R-- .... ....
....|..|C-2 2F.A ....|G-3 4F1A ....|C-5 6F.A ....
....|..|--- .... ....|R-- .... ....|--- .... ....
 C-4|..|C-2 2A.F ....|A-3 4F.F ....|C-5 6F.F ....
....|..|--- .... ....|R-- .... ....|--- .... ....
....|..|C-2 2F.A ....|G-3 4F1F ....|B-4 6F.A ....
....|..|--- .... ....|R-- .... ....|R-- .... ....
 C-4|..|C-2 2A.F ....|E-3 3F2F ....|C-5 6F.7 ....
....|..|--- .... ....|R-- .... ....|--- .... ....
....|..|C-2 2F.A ....|A-3 4F.A ....|C-5 6F.A ....
....|..|--- .... ....|R-- .... ....|--- .... ....
 C-4|..|C-2 2A.F ....|E-3 3F2F ....|C-5 6F.F ....
....|..|--- .... ....|R-- .... ....|R-- .... ....
....|..|C-2 2F.A ....|E-3 3F2A ....|R-- .... ....
....|..|--- .... ....|R-- .... ....|--- .... ....
 C-4|..|C-2 2A.F ....|E-3 3F2F ....|B-4 6F.F ....
....|..|--- .... ....|R-- .... ....|--- .... ....
....|..|C-2 2F.A ....|E-3 3F2A ....|C-5 6F.A ....
....|..|--- .... ....|R-- .... ....|--- .... ....
 C-4|..|C-2 2A.F ....|E-3 3F2F ....|C-5 6F.F ....
....|..|--- .... ....|R-- .... ....|--- .... ....
....|..|C-2 2F.A ....|E-3 3F2A ....|B-4 6F.A ....
....|..|--- .... ....|R-- .... ....|--- .... ....
 C-3|..|C-1 2A9F ....|G-3 4F1F ....|C-5 6F.7 ....
....|..|--- .... ....|R-- .... ....|--- .... ....
....|..|C-2 2F.A ....|E-3 3F2A ....|C-5 6F.A ....
....|..|--- .... ....|R-- .... ....|--- .... ....
 C-4|..|C-2 2A.F ....|G-3 4F1F ....|C-5 6F.F ....
....|..|--- .... ....|R-- .... ....|R-- .... ....
....|..|C-1 2F9A ....|G-3 4F1A ....|R-- .... ....
....|..|--- .... ....|R-- .... ....|--- .... ....
 C-4|..|C-2 2A.F ....|A-3 4F2F ....|B-4 6F.F ....
....|..|--- .... ....|R-- .... ....|--- .... ....
....|..|C-2 2F.A ....|G-3 4F1A ....|C-5 6F.A ....
....|..|--- .... ....|R-- .... ....|R-- .... ....
 C-4|..|C-2 2A.F ....|A-3 4F.F ....|C-5 6F.F ....
....|..|--- .... ....|R-- .... ....|--- .... ....
....|..|C-2 2F.A ....|G-3 4F1F ....|B-4 6F.A ....
....|..|--- .... ....|R-- .... ....|--- .... ....
 D-3|..|D-1 2A9F ....|F#3 3FEF ....|C-5 6F.7 ....
....|..|--- .... ....|R-- .... ....|R-- .... ....
....|..|C-2 2F.A ....|A-3 4F.A ....|C-5 6F.A ....
....|..|--- .... ....|R-- .... ....|R-- .... ....
 D-4|..|D-2 2A.F ....|F#3 3FEF ....|C-5 6F.F ....
....|..|--- .... ....|R-- .... ....|--- .... ....
....|..|D-1 2F9A ....|F#3 3FEA ....|R-- .... ....
....|..|--- .... ....|R-- .... ....|--- .... ....
 D-4|..|D-2 2A.F ....|F#3 3FEF ....|B-4 6F.F ....
....|..|--- .... ....|R-- .... ....|R-- .... ....
....|..|D-2 2F.A ....|F#3 3FEA ....|C-5 6F.A ....
....|..|--- .... ....|R-- .... ....|--- .... ....
 D-4|..|D-2 2A.F ....|F#3 3FEF ....|A-4 6F.F ....
....|..|--- .... ....|R-- .... ....|--- .... ....
....|..|D-2 2F.A ....|F#3 3FEA ....|B-4 6F.A ....
....|..|--- .... ....|R-- .... ....|R-- .... ....

[Pattern49]
 E-3|..|E-1 2A9F ....|E-3 3F2F ....|B-4 6F.F ....
....|..|--- .... ....|R-- .... ....|--- .... ....
....|..|D-2 2F.A ....|F#3 3FEA ....|A-4 6F.F ....
....|..|--- .... ....|R-- .... ....|--- .... ....
....|..|D-2 2F.7 ....|F#3 3FE7 ....|G-4 6F.F ....
....|..|--- .... ....|R-- .... ....|--- .... ....
....|..|E-1 2F9A ....|E-3 3F2A ....|B-4 6F.A ....
....|..|--- .... ....|--- .... ....|--- .... ....
....|..|D-2 2F.7 ....|F#3 3FE7 ....|A-4 6F.7 ....
....|..|--- .... ....|R-- .... ....|--- .... ....
....|..|--- .... ....|--- .... ....|G-4 6F.A ....
....|..|--- .... ....|R-- .... ....|R-- .... ....
....|..|E-1 2F97 ....|E-3 3F27 ....|B-4 6F.7 ....
....|..|--- .... ....|--- .... ....|--- .... ....
....|..|--- .... ....|--- .... ....|A-4 6F.7 ....
....|..|--- .... ....|--- .... ....|--- .... ....
....|..|--- .... ....|--- .... ....|G-4 6F.7 ....
....|..|--- .... ....|R-- .... ....|R-- .... ....
....|..|R-- .... ....|--- .... ....|--- .... ....
....|..|--- .... ....|--- .... ....|--- .... ....
....|..|--- .... ....|--- .... ....|--- .... ....
....|..|--- .... ....|--- .... ....|--- .... ....
....|..|--- .... ....|--- .... ....|--- .... ....
....|..|--- .... ....|R-- .... ....|R-- .... ....
....|..|R-- .... ....|--- .... ....|--- .... ....
....|..|--- .... ....|--- .... ....|--- .... ....

