[Module]
VortexTrackerII=0
Version=3.5
Title=1me[2e],2m[3f],3p[g]
Author=oisee ^ 4d 29.05.2010
NoteTable=4
ChipFreq=1750000
Speed=4
PlayOrder=L0,1,2,3,4,5,6,7,8,9,10,11,12,13,14,15,16


[Ornament1]
L0,0,17,17

[Ornament2]
L0,0,15,15

[Ornament3]
L0,0,12,12

[Ornament4]
L0,0,5,5

[Ornament5]
L0,0,9,9

[Ornament6]
L0,0,7,7

[Ornament7]
L0,0,8,8

[Ornament8]
L0,0,3,3

[Ornament9]
L0,0,5,5,9,9

[Ornament10]
L0,0,2,2,7,7

[Ornament11]
L0,0,7,7,9,9


[Sample1]
TnE +000_ +00_ F_
TnE +000_ +00_ F_
TnE +000_ +00_ F_
TnE +000_ +00_ D_
TnE +000_ +00_ B_
TnE +000_ +00_ B_ L

[Sample2]
TnE +000_ +00_ F_ L

[Sample3]
TnE +001_ +00_ F_
TnE +002_ +00_ F_
TnE +001_ +00_ E_
TnE +002_ +00_ E_
TnE +000_ +00_ E_ L
TnE -001_ +00_ E_
TnE -002_ +00_ E_
TnE -001_ +00_ E_
TnE +000_ +00_ E_
TnE +001_ +00_ E_
TnE +002_ +00_ E_
TnE +001_ +00_ E_

[Sample4]
TnE +002_ +00_ D_
TnE +002_ +00_ D_
TnE +002_ +00_ C_
TnE +002_ +00_ B_
TnE +002_ +00_ A_ L
TnE +002_ +00_ A_
TnE +002_ +00_ A_
TnE +002_ +00_ A_
TnE +002_ +00_ A_
TnE +002_ +00_ A_
TnE +002_ +00_ A_
TnE +002_ +00_ A_

[Sample5]
TnE +000_ +00_ F_
TnE +000_ +00_ F_
tne +000_ +00_ 0_ L

[Sample6]
TnE -001_ +00_ F_ L

[Sample7]
TnE +006_ +00_ F_ L

[Sample8]
tNe +000_ +00_ F_
tNe +000_ +00_ B_
tNe +000_ +00_ 7_
tNe +000_ +00_ 6- L

[Sample9]
TnE +080_ +00_ F_
TnE +100_ +00_ E_
TnE +180_ +00_ E_
TnE +200_ +00_ E_
TnE +240_ +00_ D_
TnE +280_ +00_ D_
TnE +2C0_ +00_ D_
TnE +300_ +00_ C_
TnE +300_ +00_ C_
TnE +340_ +00_ C_
TnE +340_ +00_ C_
TnE +380_ +00_ B_
TnE +380_ +00_ B_
TnE +400_ +00_ B_
TnE +400_ +00_ B_
TnE +480_ +00_ A_
TnE +500_ +00_ 9_
TnE +580_ +00_ 7_
TnE +600_ +00_ 4_
TnE +680_ +00_ 1_
TnE +000_ +00_ 0_ L

[Sample10]
Tne +1C0_ +00_ F_
Tne +280_ +00_ E_
Tne +380_ +00_ C_
Tne +440_ +00_ A_
Tne +480_ +00_ 8_
TnE +000_ +00_ 0_ L

[Sample11]
TNe +200_ -0A_ F_
tNe +000_ +0F_ A_
TNe +200_ -07_ E_
tNe +000_ +0E_ B- L

[Sample12]
TNE +0A0_ +05_ F_
TNE +140_ +02_ D_
TNE +140_ +02_ B_
TNE +100_ +00_ A_ L
TNE +140_ +00_ A_
TNE +200_ +00_ A-

[Sample13]
Tne +200_ +00_ F_
Tne +2C0_ +00_ F_
Tne +380_ +00_ E_
Tne +500_ +00_ C_
Tne +520_ +00_ 9_
tne +000_ +00_ 0_ L

[Sample14]
TNE -100_ +00_ F_
TNE -100_ +00_ D_
TNE -100_ +00_ A_
TNE -100_ +00_ 5_
tne +000_ +00_ 0_ L

[Sample15]
TNE -100_ +00_ 5_
TNE -100_ +00_ 8_
TNE -100_ +00_ B_
TNE -100_ +00_ F_
TNe -100_ +00_ 9- L

[Sample16]
TnE +000_ +00_ C_
TnE +000_ +00_ E_
TnE +000_ +00_ F_
TnE +000_ +00_ F_
TnE +000_ +00_ E_
TnE +000_ +00_ D_
TnE +000_ +00_ C_
TnE +000_ +00_ C_ L
TnE +001_ +00_ C_
TnE +002_ +00_ C_
TnE +003_ +00_ C_
TnE +001_ +00_ C_
TnE +000_ +00_ C_
TnE -001_ +00_ C_
TnE -002_ +00_ C_
TnE -003_ +00_ C_
TnE -001_ +00_ C_
TnE +000_ +00_ C_
TnE +000_ +00_ C_

[Sample17]
Tne +1C0_ +00_ F_
Tne +280_ +00_ D_
Tne +380_ +00_ 7_
TNE +000_ +00_ 0_ L

[Sample18]
TnE -00C_ +00_ 0_ L

[Sample19]
TNe +000_ +00_ F_
TNe +000_ +00_ C_
TNe +000_ +00_ 6_
TNe +000_ +01_ A- L

[Sample20]
TNE +140_ +00_ F_
tNE +000_ +00_ B- L

[Sample21]
tNE +000_ +00_ D_
tNE +000_ +00_ 8_
tNE +000_ +00_ 1_
TNE +000_ +00_ 0_ L

[Sample22]
TnE +000_ +00_ D_ L
TnE +000_ +00_ D_
tne +000_ +00_ 9_
tne +000_ +00_ 9_
TnE +000_ +00_ D_
TnE +000_ +00_ D_
tne +000_ +00_ 9_
tne +000_ +00_ 9_
TnE +000_ +00_ D_
TnE +000_ +00_ D_
TnE +000_ +00_ D_
TnE +000_ +00_ D_
TnE +000_ +00_ D_
TnE +000_ +00_ D_
tne +000_ +00_ 9_
tne +000_ +00_ 9_

[Sample23]
TnE +000_ +00_ F_ L
TnE +010_ +01_ F_
TnE +010_ +01_ F_
TnE +010_ +01_ F_
TnE +010_ +01_ F_
TnE +000_ +00_ F_
TnE +000_ +00_ F_
TnE -010_ -01_ F_
TnE -010_ -01_ F_
TnE -010_ -01_ F_
TnE -010_ -01_ F_
TnE +000_ +00_ F_

[Sample24]
TNe +000_ -01_ C_
TNe +000_ -01_ D_
TNe +000_ -01_ E_
TNe +000_ -01_ F_
TNe +000_ -01_ F_
TNe +000_ -01_ F_
TNe +000_ -01_ F_
TNe +000_ -01_ F_
TNe +000_ -01_ E_
TNe +000_ -01_ E_
TNe +000_ -01_ E_
TNe +000_ -01_ F_
TNe +000_ -01_ F_ L

[Sample25]
TNE +000_ +00_ F_
TNE +000_ +00_ F_ L
TNE +000_ +00_ F_
TNE +000_ +00_ F_
TNE +000_ +00_ F-

[Sample26]
tne +000_ +00_ 0_ L

[Sample27]
TnE +100_ +05_ F_
TnE +200_ +02_ A_
TnE +300_ +02_ 7_
TNE +400_ +00_ 3- L

[Sample28]
tne +000_ +00_ 0_ L

[Sample29]
tnE +000_ +00_ 0_ L

[Sample30]
TNE +000_ +00_ C+ L

[Sample31]
TNe +1C0_ +00_ F_
Tne +280_ +00_ E_
Tne +380_ +00_ C_
Tne +440_ +00_ A_
Tne +480_ +00_ 8_
TnE +000_ +00_ 0_ L

[Pattern0]
....|..|--- .... ....|--- .... ....|--- .... ....
....|..|--- .... ....|--- .... ....|--- .... ....
....|..|--- .... ....|--- .... ....|--- .... ....
....|..|--- .... ....|--- .... ....|--- .... ....
....|..|--- .... ....|--- .... ....|--- .... ....
....|..|--- .... ....|--- .... ....|--- .... ....
....|..|--- .... ....|--- .... ....|--- .... ....
....|..|--- .... ....|--- .... ....|--- .... ....
....|..|--- .... ....|--- .... ....|--- .... ....
....|..|--- .... ....|--- .... ....|--- .... ....
....|..|--- .... ....|--- .... ....|--- .... ....
....|..|--- .... ....|--- .... ....|--- .... ....
....|..|--- .... ....|--- .... ....|--- .... ....
....|..|--- .... ....|--- .... ....|--- .... ....
....|..|--- .... ....|--- .... ....|--- .... ....
....|..|--- .... ....|--- .... ....|--- .... ....
....|..|--- .... ....|--- .... ....|--- .... ....
....|..|--- .... ....|--- .... ....|--- .... ....
....|..|--- .... ....|--- .... ....|--- .... ....
....|..|--- .... ....|--- .... ....|--- .... ....
....|..|--- .... ....|--- .... ....|--- .... ....
....|..|--- .... ....|--- .... ....|--- .... ....
....|..|--- .... ....|--- .... ....|--- .... ....
....|..|--- .... ....|--- .... ....|--- .... ....
....|..|--- .... ....|--- .... ....|--- .... ....
....|..|--- .... ....|--- .... ....|--- .... ....
....|..|--- .... ....|--- .... ....|--- .... ....
....|..|--- .... ....|--- .... ....|--- .... ....
....|..|--- .... ....|--- .... ....|--- .... ....
....|..|--- .... ....|--- .... ....|--- .... ....
....|..|--- .... ....|--- .... ....|--- .... ....
....|..|--- .... ....|--- .... ....|--- .... ....
....|..|--- .... ....|--- .... ....|--- .... ....
....|..|--- .... ....|--- .... ....|--- .... ....
....|..|--- .... ....|--- .... ....|--- .... ....
....|..|--- .... ....|--- .... ....|--- .... ....
....|..|--- .... ....|--- .... ....|--- .... ....
....|..|--- .... ....|--- .... ....|--- .... ....
....|..|--- .... ....|--- .... ....|--- .... ....
....|..|--- .... ....|--- .... ....|--- .... ....
....|..|--- .... ....|--- .... ....|--- .... ....
....|..|--- .... ....|--- .... ....|--- .... ....
....|..|--- .... ....|--- .... ....|--- .... ....
....|..|--- .... ....|--- .... ....|--- .... ....
....|..|--- .... ....|--- .... ....|--- .... ....
....|..|--- .... ....|--- .... ....|--- .... ....
....|..|--- .... ....|--- .... ....|--- .... ....
....|..|--- .... ....|--- .... ....|--- .... ....
....|..|--- .... ....|--- .... ....|--- .... ....
....|..|--- .... ....|--- .... ....|--- .... ....
....|..|--- .... ....|--- .... ....|--- .... ....
....|..|--- .... ....|--- .... ....|--- .... ....
....|..|--- .... ....|--- .... ....|--- .... ....
....|..|--- .... ....|--- .... ....|--- .... ....
....|..|--- .... ....|--- .... ....|--- .... ....
....|..|--- .... ....|--- .... ....|--- .... ....
....|..|--- .... ....|--- .... ....|--- .... ....
....|..|--- .... ....|--- .... ....|--- .... ....
....|..|--- .... ....|--- .... ....|--- .... ....
....|..|--- .... ....|--- .... ....|--- .... ....
....|..|--- .... ....|--- .... ....|--- .... ....
....|..|--- .... ....|--- .... ....|--- .... ....
....|..|--- .... ....|--- .... ....|--- .... ....
....|..|--- .... ....|--- .... ....|--- .... ....
....|..|--- .... ....|--- .... ....|--- .... ....
....|..|--- .... ....|--- .... ....|--- .... ....
....|..|--- .... ....|--- .... ....|--- .... ....
....|..|--- .... ....|--- .... ....|--- .... ....
....|..|--- .... ....|--- .... ....|--- .... ....
....|..|--- .... ....|--- .... ....|--- .... ....
....|..|--- .... ....|--- .... ....|--- .... ....
....|..|--- .... ....|--- .... ....|--- .... ....
....|..|--- .... ....|--- .... ....|--- .... ....
....|..|--- .... ....|--- .... ....|--- .... ....
....|..|--- .... ....|--- .... ....|--- .... ....
....|..|--- .... ....|--- .... ....|--- .... ....
....|..|--- .... ....|--- .... ....|--- .... ....
....|..|--- .... ....|--- .... ....|--- .... ....
....|..|--- .... ....|--- .... ....|--- .... ....
....|..|--- .... ....|--- .... ....|--- .... ....
....|..|--- .... ....|--- .... ....|--- .... ....
....|..|--- .... ....|--- .... ....|--- .... ....
....|..|--- .... ....|--- .... ....|--- .... ....
....|..|--- .... ....|--- .... ....|--- .... ....
....|..|--- .... ....|--- .... ....|--- .... ....
....|..|--- .... ....|--- .... ....|--- .... ....
....|..|--- .... ....|--- .... ....|--- .... ....
....|..|--- .... ....|--- .... ....|--- .... ....
....|..|--- .... ....|--- .... ....|--- .... ....
....|..|--- .... ....|--- .... ....|--- .... ....
....|..|--- .... ....|--- .... ....|--- .... ....
....|..|--- .... ....|--- .... ....|--- .... ....
....|..|--- .... ....|--- .... ....|--- .... ....
....|..|--- .... ....|--- .... ....|--- .... ....
....|..|--- .... ....|--- .... ....|--- .... ....
....|..|--- .... ....|--- .... ....|--- .... ....
....|..|--- .... ....|--- .... ....|--- .... ....
....|..|--- .... ....|--- .... ....|--- .... ....
....|..|--- .... ....|--- .... ....|--- .... ....
....|..|--- .... ....|--- .... ....|--- .... ....
....|..|--- .... ....|--- .... ....|--- .... ....
....|..|--- .... ....|--- .... ....|--- .... ....
....|..|--- .... ....|--- .... ....|--- .... ....
....|..|--- .... ....|--- .... ....|--- .... ....
....|..|--- .... ....|--- .... ....|--- .... ....
....|..|--- .... ....|--- .... ....|--- .... ....
....|..|--- .... ....|--- .... ....|--- .... ....
....|..|--- .... ....|--- .... ....|--- .... ....
....|..|--- .... ....|--- .... ....|--- .... ....
....|..|--- .... ....|--- .... ....|--- .... ....
....|..|--- .... ....|--- .... ....|--- .... ....
....|..|--- .... ....|--- .... ....|--- .... ....
....|..|--- .... ....|--- .... ....|--- .... ....
....|..|--- .... ....|--- .... ....|--- .... ....
....|..|--- .... ....|--- .... ....|--- .... ....
....|..|--- .... ....|--- .... ....|--- .... ....
....|..|--- .... ....|--- .... ....|--- .... ....
....|..|--- .... ....|--- .... ....|--- .... ....
....|..|--- .... ....|--- .... ....|--- .... ....
....|..|--- .... ....|--- .... ....|--- .... ....
....|..|--- .... ....|--- .... ....|--- .... ....
....|..|--- .... ....|--- .... ....|--- .... ....
....|..|--- .... ....|--- .... ....|--- .... ....
....|..|--- .... ....|--- .... ....|--- .... ....
....|..|--- .... ....|--- .... ....|--- .... ....
....|..|--- .... ....|--- .... ....|--- .... ....
....|..|--- .... ....|--- .... ....|--- .... ....
....|..|--- .... ....|--- .... ....|--- .... ....

[Pattern1]
....|..|--- .... ....|--- .... ....|--- .... ....
....|..|--- .... ....|--- .... ....|--- .... ....
....|..|--- .... ....|--- .... ....|--- .... ....
....|..|--- .... ....|--- .... ....|--- .... ....
....|..|--- .... ....|--- .... ....|--- .... ....
....|..|--- .... ....|--- .... ....|--- .... ....
....|..|--- .... ....|--- .... ....|--- .... ....
....|..|--- .... ....|--- .... ....|--- .... ....
....|..|--- .... ....|--- .... ....|--- .... ....
....|..|--- .... ....|--- .... ....|--- .... ....
....|..|--- .... ....|--- .... ....|--- .... ....
....|..|--- .... ....|--- .... ....|--- .... ....
....|..|--- .... ....|--- .... ....|--- .... ....
....|..|--- .... ....|--- .... ....|--- .... ....
....|..|--- .... ....|--- .... ....|--- .... ....
....|..|--- .... ....|--- .... ....|--- .... ....
....|..|--- .... ....|--- .... ....|--- .... ....
....|..|--- .... ....|--- .... ....|--- .... ....
....|..|--- .... ....|--- .... ....|--- .... ....
....|..|--- .... ....|--- .... ....|--- .... ....
....|..|--- .... ....|--- .... ....|--- .... ....
....|..|--- .... ....|--- .... ....|--- .... ....
....|..|--- .... ....|--- .... ....|--- .... ....
....|..|--- .... ....|--- .... ....|--- .... ....
....|..|--- .... ....|--- .... ....|--- .... ....
....|..|--- .... ....|--- .... ....|--- .... ....
....|..|--- .... ....|--- .... ....|--- .... ....
....|..|--- .... ....|--- .... ....|--- .... ....
....|..|--- .... ....|--- .... ....|--- .... ....
....|..|--- .... ....|--- .... ....|--- .... ....
....|..|--- .... ....|--- .... ....|--- .... ....
....|..|--- .... ....|--- .... ....|--- .... ....
....|..|--- .... ....|--- .... ....|--- .... ....
....|..|--- .... ....|--- .... ....|--- .... ....
....|..|--- .... ....|--- .... ....|--- .... ....
....|..|--- .... ....|--- .... ....|--- .... ....
....|..|--- .... ....|--- .... ....|--- .... ....
....|..|--- .... ....|--- .... ....|--- .... ....
....|..|--- .... ....|--- .... ....|--- .... ....
....|..|--- .... ....|--- .... ....|--- .... ....
....|..|--- .... ....|G-4 3FFF ....|--- .... ....
....|..|--- .... ....|R-- .... ....|--- .... ....
....|..|--- .... ....|G-4 3FFF ....|--- .... ....
....|..|--- .... ....|R-- .... ....|--- .... ....
....|..|--- .... ....|G-4 3FFF ....|--- .... ....
....|..|--- .... ....|--- .... ....|--- .... ....
....|..|--- .... ....|G-4 3FFF ....|--- .... ....
....|..|--- .... ....|--- .... ....|--- .... ....
....|..|--- .... ....|--- .... ....|--- .... ....
....|..|--- .... ....|--- .... ....|--- .... ....
....|..|--- .... ....|--- .... ....|--- .... ....
....|..|--- .... ....|--- .... ....|--- .... ....
....|..|--- .... ....|F-4 3FFF ....|--- .... ....
....|..|--- .... ....|R-- .... ....|--- .... ....
....|..|--- .... ....|E-4 3FFF ....|--- .... ....
....|..|--- .... ....|R-- .... ....|--- .... ....
....|..|--- .... ....|G-4 3FFA ....|--- .... ....
....|..|--- .... ....|R-- .... ....|--- .... ....
....|..|--- .... ....|E-4 3FFF ....|--- .... ....
....|..|--- .... ....|R-- .... ....|--- .... ....
....|..|--- .... ....|D-4 3FFF ....|--- .... ....
....|..|--- .... ....|R-- .... ....|--- .... ....
....|..|--- .... ....|E-4 3FFF ....|--- .... ....
....|..|--- .... ....|--- .... ....|--- .... ....
....|..|--- .... ....|G-4 3FF7 ....|--- .... ....
....|..|--- .... ....|R-- .... ....|--- .... ....
....|..|--- .... ....|G-4 3FF7 ....|--- .... ....
....|..|--- .... ....|R-- .... ....|--- .... ....
....|..|--- .... ....|G-4 3FF7 ....|--- .... ....
....|..|--- .... ....|R-- .... ....|--- .... ....
....|..|--- .... ....|G-4 3FF7 ....|--- .... ....
....|..|--- .... ....|R-- .... ....|--- .... ....
....|..|--- .... ....|E-4 3FFF ....|--- .... ....
....|..|--- .... ....|R-- .... ....|--- .... ....
....|..|--- .... ....|E-4 3FFF ....|--- .... ....
....|..|--- .... ....|R-- .... ....|--- .... ....
....|..|--- .... ....|G-4 3FFF ....|--- .... ....
....|..|--- .... ....|R-- .... ....|--- .... ....
....|..|--- .... ....|F-4 3FFF ....|--- .... ....
....|..|--- .... ....|--- .... ....|--- .... ....
....|..|--- .... ....|--- .... ....|--- .... ....
....|..|--- .... ....|R-- .... ....|--- .... ....
....|..|--- .... ....|F-4 3FFF ....|--- .... ....
....|..|--- .... ....|R-- .... ....|--- .... ....
....|..|--- .... ....|E-4 3FFF ....|--- .... ....
....|..|--- .... ....|R-- .... ....|--- .... ....
....|..|--- .... ....|E-4 3FFF ....|--- .... ....
....|..|--- .... ....|R-- .... ....|--- .... ....
....|..|--- .... ....|C-4 3FFF ....|--- .... ....
....|..|--- .... ....|R-- .... ....|--- .... ....
....|..|--- .... ....|C-4 3FFF ....|--- .... ....
....|..|--- .... ....|R-- .... ....|--- .... ....
....|..|--- .... ....|D-4 3FFF ....|--- .... ....
....|..|--- .... ....|R-- .... ....|--- .... ....
....|..|--- .... ....|D-4 3FFF ....|--- .... ....
....|..|--- .... ....|R-- .... ....|--- .... ....
....|..|--- .... ....|E-4 3FF7 ....|--- .... ....
....|..|--- .... ....|R-- .... ....|--- .... ....
....|..|--- .... ....|E-4 3FF7 ....|--- .... ....
....|..|--- .... ....|R-- .... ....|--- .... ....
....|..|--- .... ....|G-4 3FF7 ....|--- .... ....
....|..|--- .... ....|R-- .... ....|--- .... ....
....|..|--- .... ....|F-4 3FF7 ....|--- .... ....
....|..|--- .... ....|R-- .... ....|--- .... ....
....|..|--- .... ....|D-4 3FFF ....|--- .... ....
....|..|--- .... ....|R-- .... ....|--- .... ....
....|..|--- .... ....|D-4 3FFF ....|--- .... ....
....|..|--- .... ....|R-- .... ....|--- .... ....
....|..|--- .... ....|D-4 3FFF ....|--- .... ....
....|..|--- .... ....|R-- .... ....|--- .... ....
....|..|--- .... ....|C-4 3FFF ....|--- .... ....
....|..|--- .... ....|R-- .... ....|--- .... ....
....|..|--- .... ....|E-4 3FFF ....|--- .... ....
....|..|--- .... ....|R-- .... ....|--- .... ....
....|..|--- .... ....|C-4 3FF7 ....|--- .... ....
....|..|--- .... ....|R-- .... ....|--- .... ....
....|..|--- .... ....|D-4 3FFF ....|--- .... ....
....|..|--- .... ....|R-- .... ....|--- .... ....
....|..|--- .... ....|C-4 3FFF ....|--- .... ....
....|..|--- .... ....|R-- .... ....|--- .... ....
....|..|--- .... ....|C-4 3FFF ....|--- .... ....
....|..|--- .... ....|R-- .... ....|--- .... ....
....|..|--- .... ....|C-4 3FFF ....|--- .... ....
....|..|--- .... ....|R-- .... ....|--- .... ....
....|..|--- .... ....|A-3 3FFF ....|--- .... ....
....|..|--- .... ....|R-- .... ....|--- .... ....
....|..|--- .... ....|C-4 3FFF ....|--- .... ....
....|..|--- .... ....|R-- .... ....|--- .... ....

[Pattern2]
....|..|--- .... ....|D-4 3FF7 ....|--- .... ....
....|..|--- .... ....|R-- .... ....|--- .... ....
....|..|--- .... ....|D-4 3FF7 ....|--- .... ....
....|..|--- .... ....|R-- .... ....|--- .... ....
....|..|--- .... ....|C-4 3FFF ....|--- .... ....
....|..|--- .... ....|R-- .... ....|--- .... ....
....|..|--- .... ....|A-3 3FFF ....|--- .... ....
....|..|--- .... ....|R-- .... ....|--- .... ....
....|..|--- .... ....|C-4 3FFF ....|--- .... ....
....|..|--- .... ....|R-- .... ....|--- .... ....
....|..|--- .... ....|A-3 3FFF ....|--- .... ....
....|..|--- .... ....|R-- .... ....|--- .... ....
....|..|--- .... ....|C-4 3FFF ....|--- .... ....
....|..|--- .... ....|R-- .... ....|--- .... ....
....|..|--- .... ....|A-3 3FFF ....|--- .... ....
....|..|--- .... ....|R-- .... ....|--- .... ....
....|..|--- .... ....|D-4 3FFF ....|--- .... ....
....|..|--- .... ....|R-- .... ....|--- .... ....
....|..|--- .... ....|A-3 3FFF ....|--- .... ....
....|..|--- .... ....|R-- .... ....|--- .... ....
....|..|--- .... ....|A-3 3FFF ....|--- .... ....
....|..|--- .... ....|R-- .... ....|--- .... ....
....|..|--- .... ....|C-4 3FF7 ....|--- .... ....
....|..|--- .... ....|R-- .... ....|--- .... ....
....|..|--- .... ....|C-4 3FFA ....|--- .... ....
....|..|--- .... ....|R-- .... ....|--- .... ....
....|..|--- .... ....|A-3 3FFA ....|--- .... ....
....|..|--- .... ....|R-- .... ....|--- .... ....
....|..|--- .... ....|C-4 3FF7 ....|--- .... ....
....|..|--- .... ....|R-- .... ....|--- .... ....
....|..|--- .... ....|A-3 3FF7 ....|--- .... ....
....|..|--- .... ....|R-- .... ....|--- .... ....
....|..|--- .... ....|C-4 3FF7 ....|--- .... ....
....|..|--- .... ....|R-- .... ....|--- .... ....
....|..|--- .... ....|A-3 3FF7 ....|--- .... ....
....|..|--- .... ....|R-- .... ....|--- .... ....
....|..|--- .... ....|C-4 3FF7 ....|--- .... ....
....|..|--- .... ....|R-- .... ....|--- .... ....
....|..|--- .... ....|A-3 3FF7 ....|--- .... ....
....|..|--- .... ....|R-- .... ....|--- .... ....
....|..|--- .... ....|G-4 3FFF ....|--- .... ....
....|..|--- .... ....|R-- .... ....|--- .... ....
....|..|--- .... ....|G-4 3FFF ....|--- .... ....
....|..|--- .... ....|R-- .... ....|--- .... ....
....|..|--- .... ....|G-4 3FFF ....|--- .... ....
....|..|--- .... ....|--- .... ....|--- .... ....
....|..|--- .... ....|G-4 3FFF ....|--- .... ....
....|..|--- .... ....|--- .... ....|--- .... ....
....|..|--- .... ....|R-- .... ....|--- .... ....
....|..|--- .... ....|--- .... ....|--- .... ....
....|..|--- .... ....|G-4 3FFF ....|--- .... ....
....|..|--- .... ....|R-- .... ....|--- .... ....
....|..|--- .... ....|F-4 3FFF ....|--- .... ....
....|..|--- .... ....|R-- .... ....|--- .... ....
....|..|--- .... ....|F-4 3FFF ....|--- .... ....
....|..|--- .... ....|R-- .... ....|--- .... ....
....|..|--- .... ....|E-4 3FFF ....|--- .... ....
....|..|--- .... ....|--- .... ....|--- .... ....
....|..|--- .... ....|G-4 3FFA ....|--- .... ....
....|..|--- .... ....|--- .... ....|--- .... ....
....|..|--- .... ....|D-4 3FFF ....|--- .... ....
....|..|--- .... ....|R-- .... ....|--- .... ....
....|..|--- .... ....|E-4 3FFF ....|--- .... ....
....|..|--- .... ....|R-- .... ....|--- .... ....
....|..|--- .... ....|G-4 3FF7 ....|--- .... ....
....|..|--- .... ....|R-- .... ....|--- .... ....
....|..|--- .... ....|G-4 3FF7 ....|--- .... ....
....|..|--- .... ....|R-- .... ....|--- .... ....
....|..|--- .... ....|C-4 3FFF ....|--- .... ....
....|..|--- .... ....|--- .... ....|--- .... ....
....|..|--- .... ....|C-4 3FFF ....|--- .... ....
....|..|--- .... ....|R-- .... ....|--- .... ....
....|..|--- .... ....|E-4 3FFF ....|--- .... ....
....|..|--- .... ....|R-- .... ....|--- .... ....
....|..|--- .... ....|E-4 3FFF ....|--- .... ....
....|..|--- .... ....|R-- .... ....|--- .... ....
....|..|--- .... ....|G-4 3FFF ....|--- .... ....
....|..|--- .... ....|R-- .... ....|--- .... ....
....|..|--- .... ....|F-4 3FFF ....|--- .... ....
....|..|--- .... ....|R-- .... ....|--- .... ....
....|..|--- .... ....|E-4 3FF7 ....|--- .... ....
....|..|--- .... ....|R-- .... ....|--- .... ....
....|..|--- .... ....|F-4 3FFF ....|--- .... ....
....|..|--- .... ....|R-- .... ....|--- .... ....
....|..|--- .... ....|E-4 3FFF ....|--- .... ....
....|..|--- .... ....|R-- .... ....|--- .... ....
....|..|--- .... ....|E-4 3FFF ....|--- .... ....
....|..|--- .... ....|R-- .... ....|--- .... ....
....|..|--- .... ....|C-4 3FFF ....|--- .... ....
....|..|--- .... ....|R-- .... ....|--- .... ....
....|..|--- .... ....|C-4 3FFF ....|--- .... ....
....|..|--- .... ....|R-- .... ....|--- .... ....
....|..|--- .... ....|D-4 3FFF ....|--- .... ....
....|..|--- .... ....|R-- .... ....|--- .... ....
....|..|--- .... ....|D-4 3FFF ....|--- .... ....
....|..|--- .... ....|R-- .... ....|--- .... ....
....|..|--- .... ....|E-4 3FF7 ....|--- .... ....
....|..|--- .... ....|R-- .... ....|--- .... ....
....|..|--- .... ....|E-4 3FF7 ....|--- .... ....
....|..|--- .... ....|R-- .... ....|--- .... ....
....|..|--- .... ....|G-4 3FF7 ....|--- .... ....
....|..|--- .... ....|R-- .... ....|--- .... ....
....|..|--- .... ....|F-4 3FF7 ....|--- .... ....
....|..|--- .... ....|R-- .... ....|--- .... ....
....|..|--- .... ....|D-4 3FFF ....|--- .... ....
....|..|--- .... ....|R-- .... ....|--- .... ....
....|..|--- .... ....|D-4 3FFF ....|--- .... ....
....|..|--- .... ....|R-- .... ....|--- .... ....
....|..|--- .... ....|D-4 3FFF ....|--- .... ....
....|..|--- .... ....|R-- .... ....|--- .... ....
....|..|--- .... ....|C-4 3FFF ....|--- .... ....
....|..|--- .... ....|R-- .... ....|--- .... ....
....|..|--- .... ....|E-4 3FFF ....|--- .... ....
....|..|--- .... ....|R-- .... ....|--- .... ....
....|..|--- .... ....|C-4 3FF7 ....|--- .... ....
....|..|--- .... ....|R-- .... ....|--- .... ....
....|..|--- .... ....|D-4 3FFF ....|--- .... ....
....|..|--- .... ....|R-- .... ....|--- .... ....
....|..|--- .... ....|D-4 3FF7 ....|--- .... ....
....|..|--- .... ....|R-- .... ....|--- .... ....
....|..|--- .... ....|C-4 3FFF ....|--- .... ....
....|..|--- .... ....|R-- .... ....|--- .... ....
....|..|--- .... ....|C-4 3FFF ....|--- .... ....
....|..|--- .... ....|R-- .... ....|--- .... ....
....|..|--- .... ....|E-4 3FFA ....|--- .... ....
....|..|--- .... ....|R-- .... ....|--- .... ....
....|..|--- .... ....|A-3 3FFF ....|--- .... ....
....|..|--- .... ....|R-- .... ....|--- .... ....

[Pattern3]
....|..|--- .... ....|D-4 3FFF ....|--- .... ....
....|..|--- .... ....|R-- .... ....|--- .... ....
....|..|--- .... ....|D-4 3FF7 ....|--- .... ....
....|..|--- .... ....|R-- .... ....|--- .... ....
....|..|--- .... ....|A-3 3FFF ....|--- .... ....
....|..|--- .... ....|R-- .... ....|--- .... ....
....|..|--- .... ....|C-4 3FF7 ....|--- .... ....
....|..|--- .... ....|R-- .... ....|--- .... ....
....|..|--- .... ....|C-4 3FFF ....|--- .... ....
....|..|--- .... ....|C-4 3FFF ....|--- .... ....
....|..|--- .... ....|A-3 3FFF ....|--- .... ....
....|..|--- .... ....|R-- .... ....|--- .... ....
....|..|--- .... ....|C-4 3FFF ....|--- .... ....
....|..|--- .... ....|--- .... ....|--- .... ....
....|..|--- .... ....|A-3 3FFF ....|--- .... ....
....|..|--- .... ....|--- .... ....|--- .... ....
....|..|--- .... ....|D-4 3FFF ....|--- .... ....
....|..|--- .... ....|R-- .... ....|--- .... ....
....|..|--- .... ....|C-4 3FF7 ....|--- .... ....
....|..|--- .... ....|--- .... ....|--- .... ....
....|..|--- .... ....|A-3 3FFF ....|--- .... ....
....|..|--- .... ....|C-4 3FFA ....|--- .... ....
....|..|--- .... ....|A-3 3FF7 ....|--- .... ....
....|..|--- .... ....|R-- .... ....|--- .... ....
....|..|--- .... ....|D-4 3FF7 ....|--- .... ....
....|..|--- .... ....|--- .... ....|--- .... ....
....|..|--- .... ....|A-3 3FFA ....|--- .... ....
....|..|--- .... ....|--- .... ....|--- .... ....
....|..|--- .... ....|A-3 3FF7 ....|--- .... ....
....|..|--- .... ....|--- .... ....|--- .... ....
....|..|--- .... ....|R-- .... ....|--- .... ....
....|..|--- .... ....|--- .... ....|--- .... ....
....|..|--- .... ....|C-4 3FF7 ....|--- .... ....
....|..|--- .... ....|C-4 3FF7 ....|--- .... ....
....|..|--- .... ....|A-3 3FF7 ....|--- .... ....
....|..|--- .... ....|--- .... ....|--- .... ....
....|..|--- .... ....|C-4 3FF7 ....|--- .... ....
....|..|--- .... ....|--- .... ....|--- .... ....
....|..|--- .... ....|A-3 3FF7 ....|--- .... ....
....|..|--- .... ....|--- .... ....|--- .... ....
....|..|--- .... ....|G-4 3FFF ....|--- .... ....
....|..|--- .... ....|R-- .... ....|--- .... ....
....|..|--- .... ....|G-4 3FFF ....|--- .... ....
....|..|--- .... ....|--- .... ....|--- .... ....
....|..|--- .... ....|G-4 3FFF ....|--- .... ....
....|..|--- .... ....|R-- .... ....|--- .... ....
....|..|--- .... ....|A-4 3FFF ....|--- .... ....
....|..|--- .... ....|--- .... ....|--- .... ....
....|..|--- .... ....|--- .... ....|--- .... ....
....|..|--- .... ....|R-- .... ....|--- .... ....
....|..|--- .... ....|G-4 3FFF ....|--- .... ....
....|..|--- .... ....|R-- .... ....|--- .... ....
....|..|--- .... ....|G-4 3FFF ....|--- .... ....
....|..|--- .... ....|R-- .... ....|--- .... ....
....|..|--- .... ....|G-4 3FFF ....|--- .... ....
....|..|--- .... ....|R-- .... ....|--- .... ....
....|..|--- .... ....|A-4 3FFF ....|B-5 GF.F ....
....|..|--- .... ....|R-- .... ....|--- .... ....
....|..|--- .... ....|G-4 3FFF ....|--- .... ....
....|..|--- .... ....|R-- .... ....|--- .... ....
....|..|--- .... ....|E-4 3FFF ....|--- .... ....
....|..|--- .... ....|R-- .... ....|--- .... ....
....|..|--- .... ....|G-4 3FFA ....|--- .... ....
....|..|--- .... ....|R-- .... ....|--- .... ....
....|..|--- .... ....|G-4 3FF7 ....|A-5 GF.F ....
....|..|--- .... ....|R-- .... ....|--- .... ....
....|..|--- .... ....|G-4 3FF7 ....|--- .... ....
....|..|--- .... ....|R-- .... ....|--- .... ....
....|..|--- .... ....|G-4 3FF7 ....|B-5 GF.A ....
....|..|--- .... ....|R-- .... ....|--- .... ....
....|..|--- .... ....|A-4 3FF7 ....|--- .... ....
....|..|--- .... ....|R-- .... ....|--- .... ....
....|..|--- .... ....|E-4 3FFF ....|--- .... ....
....|..|--- .... ....|R-- .... ....|--- .... ....
....|..|--- .... ....|E-4 3FFF ....|--- .... ....
....|..|--- .... ....|R-- .... ....|--- .... ....
....|..|--- .... ....|E-4 3FFF ....|G-5 GF.F ....
....|..|--- .... ....|R-- .... ....|--- .... ....
....|..|--- .... ....|E-4 3FFF ....|--- .... ....
....|..|--- .... ....|R-- .... ....|--- .... ....
....|..|--- .... ....|A-4 3FFF ....|A-5 GF.F ....
....|..|--- .... ....|R-- .... ....|--- .... ....
....|..|--- .... ....|G-4 3FF7 ....|--- .... ....
....|..|--- .... ....|R-- .... ....|--- .... ....
....|..|--- .... ....|G-4 3FFF ....|--- .... ....
....|..|--- .... ....|R-- .... ....|--- .... ....
....|..|--- .... ....|E-4 3FFF ....|--- .... ....
....|..|--- .... ....|R-- .... ....|--- .... ....
....|..|--- .... ....|E-4 3FFF ....|A-5 GF.7 ....
....|..|--- .... ....|R-- .... ....|--- .... ....
....|..|--- .... ....|C-4 3FFF ....|--- .... ....
....|..|--- .... ....|R-- .... ....|--- .... ....
....|..|--- .... ....|D-4 3FFF ....|A-5 GF.A ....
....|..|--- .... ....|--- .... ....|--- .... ....
....|..|--- .... ....|--- .... ....|--- .... ....
....|..|--- .... ....|R-- .... ....|--- .... ....
....|..|--- .... ....|E-4 3FF7 ....|G-4 GF.F ....
....|..|--- .... ....|R-- .... ....|--- .... ....
....|..|--- .... ....|E-4 3FF7 ....|--- .... ....
....|..|--- .... ....|R-- .... ....|--- .... ....
....|..|--- .... ....|E-4 3FF7 ....|G-5 GF.7 ....
....|..|--- .... ....|R-- .... ....|--- .... ....
....|..|--- .... ....|E-4 3FF7 ....|--- .... ....
....|..|--- .... ....|R-- .... ....|--- .... ....
....|..|--- .... ....|D-4 3FFF ....|A-5 GF.7 ....
....|..|--- .... ....|R-- .... ....|--- .... ....
....|..|--- .... ....|D-4 3FFF ....|--- .... ....
....|..|--- .... ....|R-- .... ....|--- .... ....
....|..|--- .... ....|D-4 3FFF ....|G-4 GF.A ....
....|..|--- .... ....|R-- .... ....|--- .... ....
....|..|--- .... ....|E-4 3FFF ....|--- .... ....
....|..|--- .... ....|R-- .... ....|--- .... ....
....|..|--- .... ....|E-4 3FF7 ....|A-4 GF.F ....
....|..|--- .... ....|R-- .... ....|--- .... ....
....|..|--- .... ....|E-4 3FFF ....|--- .... ....
....|..|--- .... ....|D-4 3FFF ....|--- .... ....
....|..|--- .... ....|D-4 3FF7 ....|--- .... ....
....|..|--- .... ....|R-- .... ....|--- .... ....
....|..|--- .... ....|A-3 3FFF ....|--- .... ....
....|..|--- .... ....|R-- .... ....|--- .... ....
....|..|--- .... ....|C-4 3FFF ....|A-4 GF1F ....
....|..|--- .... ....|R-- .... ....|A-4 GF.F ....
....|..|--- .... ....|C-4 3FFF ....|A-4 GF1F ....
....|..|--- .... ....|R-- .... ....|--- .... ....
....|..|--- .... ....|A-3 3FFF ....|A-4 GF.F ....
....|..|--- .... ....|R-- .... ....|--- .... ....
....|..|--- .... ....|C-4 3FFF ....|A-4 GF1F ....
....|..|--- .... ....|D-4 3FFA ....|--- .... ....

[Pattern4]
....|..|--- .... ....|D-4 3FF7 ....|A-4 GF2F ....
....|..|--- .... ....|R-- .... ....|--- .... ....
....|..|--- .... ....|A-3 3FFF ....|--- .... ....
....|..|--- .... ....|R-- .... ....|--- .... ....
....|..|--- .... ....|C-4 3FFF ....|A-4 GF1A ....
....|..|--- .... ....|R-- .... ....|A-4 GF.A ....
....|..|--- .... ....|A-3 3FFF ....|A-4 GF1A ....
....|..|--- .... ....|R-- .... ....|--- .... ....
....|..|--- .... ....|C-4 3FFF ....|A-4 GF.7 ....
....|..|--- .... ....|R-- .... ....|--- .... ....
....|..|--- .... ....|A-3 3FFF ....|A-4 GF1A ....
....|..|--- .... ....|D-4 3FF7 ....|--- .... ....
....|..|--- .... ....|R-- .... ....|A-4 GF2A ....
....|..|--- .... ....|R-- .... ....|--- .... ....
....|..|--- .... ....|A-3 3FF7 ....|--- .... ....
....|..|--- .... ....|R-- .... ....|--- .... ....
....|..|--- .... ....|C-4 3FF7 ....|C-4 GF3F ....
....|..|--- .... ....|R-- .... ....|A-4 GF.7 ....
....|..|--- .... ....|C-4 3FF7 ....|A-4 GF17 ....
....|..|--- .... ....|R-- .... ....|--- .... ....
....|..|--- .... ....|A-3 3FF7 ....|A-4 GF.7 ....
....|..|--- .... ....|R-- .... ....|--- .... ....
....|..|--- .... ....|C-4 3FFF ....|A-4 GF17 ....
....|..|--- .... ....|R-- .... ....|--- .... ....
....|..|--- .... ....|E-4 3FFF ....|A-4 GF27 ....
....|..|--- .... ....|R-- .... ....|--- .... ....
....|..|--- .... ....|A-3 3FF7 ....|--- .... ....
....|..|--- .... ....|R-- .... ....|--- .... ....
....|..|--- .... ....|D-4 3FFF ....|D-4 GF4F ....
....|..|--- .... ....|R-- .... ....|--- .... ....
....|..|--- .... ....|C-4 3FFF ....|--- .... ....
....|..|--- .... ....|R-- .... ....|--- .... ....
....|..|--- .... ....|C-4 3FF7 ....|G-4 GF5F ....
....|..|--- .... ....|R-- .... ....|--- .... ....
....|..|--- .... ....|A-3 3FF7 ....|--- .... ....
....|..|--- .... ....|R-- .... ....|--- .... ....
....|..|--- .... ....|G-4 3FFF ....|--- .... ....
....|..|--- .... ....|R-- .... ....|--- .... ....
....|..|--- .... ....|A-4 3FFF ....|--- .... ....
....|..|--- .... ....|--- .... ....|--- .... ....
....|..|--- .... ....|D-4 3FFA ....|C-4 GF37 ....
....|..|--- .... ....|--- .... ....|--- .... ....
....|..|--- .... ....|C-4 3FFA ....|--- .... ....
....|..|--- .... ....|R-- .... ....|--- .... ....
....|..|--- .... ....|G-4 3FFF ....|G-4 GF5A ....
....|..|--- .... ....|--- .... ....|--- .... ....
....|..|--- .... ....|G-4 3FFF ....|--- .... ....
....|..|--- .... ....|R-- .... ....|--- .... ....
 G-2|..|G-1 2AEF ....|E-4 3FF7 ....|G-4 GF6F ....
....|..|--- .... ....|R-- .... ....|--- .... ....
....|..|--- .... ....|A-4 3FFA ....|--- .... ....
....|..|--- .... ....|R-- .... ....|--- .... ....
....|..|--- .... ....|D-4 3FF7 ....|D-4 GF47 ....
....|..|--- .... ....|--- .... ....|--- .... ....
....|..|--- .... ....|C-4 3FF7 ....|--- .... ....
....|..|--- .... ....|R-- .... ....|--- .... ....
 B-2|..|B-1 2AEF ....|D-4 3FFF ....|G-4 GF57 ....
....|..|--- .... ....|--- .... ....|--- .... ....
....|..|--- .... ....|E-4 3FFF ....|--- .... ....
....|..|--- .... ....|--- .... ....|--- .... ....
 D-3|..|D-1 2AEF ....|F-4 3FFF ....|G-4 GF6A ....
....|..|--- .... ....|R-- .... ....|--- .... ....
....|..|R-- .... ....|E-4 3FFF ....|--- .... ....
....|..|--- .... ....|R-- .... ....|--- .... ....
....|..|--- .... ....|--- .... ....|E-4 GF7F ....
....|..|--- .... ....|--- .... ....|--- .... ....
....|..|--- .... ....|R-- .... ....|--- .... ....
....|..|--- .... ....|--- .... ....|--- .... ....
....|..|B-1 2FEA ....|G-4 3FFF ....|--- .... ....
....|..|--- .... ....|--- .... ....|--- .... ....
....|..|--- .... ....|F-4 3FFF ....|--- .... ....
....|..|--- .... ....|--- .... ....|--- .... ....
....|..|G-1 2FE7 ....|F-4 3FFA ....|G-4 GF67 ....
....|..|--- .... ....|--- .... ....|--- .... ....
....|..|R-- .... ....|E-4 3FFA ....|--- .... ....
....|..|--- .... ....|R-- .... ....|--- .... ....
....|..|--- .... ....|E-4 3FFF ....|E-4 GF7A ....
....|..|--- .... ....|--- .... ....|--- .... ....
....|..|--- .... ....|C-4 3FFF ....|--- .... ....
....|..|--- .... ....|--- .... ....|--- .... ....
....|..|B-1 2FE7 ....|D-4 3FF7 ....|F-4 GF6F ....
....|..|--- .... ....|--- .... ....|--- .... ....
....|..|--- .... ....|E-4 3FF7 ....|--- .... ....
....|..|--- .... ....|--- .... ....|--- .... ....
 F-2|..|F-1 2AEF ....|F-4 3FF7 ....|--- .... ....
....|..|--- .... ....|R-- .... ....|--- .... ....
....|..|R-- .... ....|E-4 3FF7 ....|--- .... ....
....|..|--- .... ....|R-- .... ....|--- .... ....
 A-2|..|A-1 2AEF ....|E-4 3FFA ....|E-4 GF77 ....
....|..|--- .... ....|--- .... ....|--- .... ....
....|..|--- .... ....|C-4 3FFA ....|--- .... ....
....|..|--- .... ....|--- .... ....|--- .... ....
 C-3|..|C-1 2AEF ....|G-4 3FF7 ....|F-4 GF6A ....
....|..|--- .... ....|--- .... ....|--- .... ....
....|..|--- .... ....|F-4 3FF7 ....|--- .... ....
....|..|R-- .... ....|--- .... ....|--- .... ....
....|..|F-1 2FEA ....|--- .... ....|G-4 GF6F ....
....|..|--- .... ....|R-- .... ....|--- .... ....
....|..|--- .... ....|--- .... ....|--- .... ....
....|..|--- .... ....|R-- .... ....|--- .... ....
....|..|A-1 2FEA ....|D-4 3FFF ....|--- .... ....
....|..|--- .... ....|--- .... ....|--- .... ....
....|..|--- .... ....|D-4 3FFF ....|--- .... ....
....|..|--- .... ....|--- .... ....|--- .... ....
....|..|C-1 2FEA ....|D-4 3FFF ....|F-4 GF67 ....
....|..|--- .... ....|--- .... ....|--- .... ....
....|..|--- .... ....|D-4 3FFF ....|--- .... ....
....|..|R-- .... ....|--- .... ....|--- .... ....
....|..|F-1 2FE7 ....|E-4 3FFF ....|G-4 GF6A ....
....|..|--- .... ....|R-- .... ....|--- .... ....
....|..|--- .... ....|F-4 3FFF ....|--- .... ....
....|..|--- .... ....|--- .... ....|--- .... ....
....|..|A-1 2FE7 ....|E-4 3FFF ....|A-4 GF4F ....
....|..|--- .... ....|--- .... ....|--- .... ....
....|..|--- .... ....|D-4 3FFA ....|--- .... ....
....|..|--- .... ....|--- .... ....|--- .... ....
 D-2|..|D-1 2AEF ....|D-4 3FFF ....|--- .... ....
....|..|--- .... ....|--- .... ....|--- .... ....
....|..|--- .... ....|C-4 3FFF ....|--- .... ....
....|..|R-- .... ....|--- .... ....|--- .... ....
 F-2|..|F-1 2AEF ....|E-4 3FFA ....|G-4 GF67 ....
....|..|--- .... ....|--- .... ....|--- .... ....
....|..|--- .... ....|A-3 3FFF ....|--- .... ....
....|..|--- .... ....|--- .... ....|--- .... ....
 A-2|..|A-1 2AEF ....|D-4 3FF7 ....|A-4 GF4A ....
....|..|--- .... ....|--- .... ....|--- .... ....
....|..|--- .... ....|D-4 3FF7 ....|--- .... ....
....|..|R-- .... ....|R-- .... ....|--- .... ....

[Pattern5]
....|..|D-1 2FEA ....|D-4 3FF7 ....|F-4 GF6F ....
....|..|--- .... ....|--- .... ....|--- .... ....
....|..|--- .... ....|D-4 3FF7 ....|--- .... ....
....|..|--- .... ....|--- .... ....|--- .... ....
....|..|F-1 2FEA ....|C-4 3FFF ....|--- .... ....
....|..|--- .... ....|--- .... ....|--- .... ....
....|..|--- .... ....|C-4 3FFF ....|--- .... ....
....|..|--- .... ....|--- .... ....|--- .... ....
....|..|A-1 2FEA ....|E-4 3FF7 ....|A-4 GF47 ....
....|..|--- .... ....|--- .... ....|--- .... ....
....|..|--- .... ....|A-3 3FFF ....|--- .... ....
....|..|R-- .... ....|R-- .... ....|--- .... ....
....|..|D-1 2FE7 ....|D-4 3FF7 ....|F-4 GF6A ....
....|..|--- .... ....|--- .... ....|--- .... ....
....|..|--- .... ....|C-4 3FF7 ....|--- .... ....
....|..|--- .... ....|--- .... ....|--- .... ....
....|..|F-1 2FE7 ....|C-4 3FFA ....|G-4 GF6F ....
....|..|--- .... ....|--- .... ....|--- .... ....
....|..|--- .... ....|A-3 3FF7 ....|--- .... ....
....|..|--- .... ....|--- .... ....|--- .... ....
 G-3|..|G-1 2AEF ....|D-4 3FFF ....|--- .... ....
....|..|--- .... ....|--- .... ....|--- .... ....
....|..|--- .... ....|E-4 3FFF ....|--- .... ....
....|..|R-- .... ....|R-- .... ....|--- .... ....
 D-4|..|D-2 2AEF ....|--- .... ....|F-4 GF67 ....
....|..|--- .... ....|--- .... ....|--- .... ....
....|..|--- .... ....|--- .... ....|--- .... ....
....|..|--- .... ....|--- .... ....|--- .... ....
 G-4|..|G-2 2AEF ....|D-4 3FFF ....|G-4 GF6A ....
....|..|--- .... ....|--- .... ....|--- .... ....
....|..|--- .... ....|C-4 3FF7 ....|--- .... ....
....|..|R-- .... ....|--- .... ....|G-4 GF.F ....
....|..|G-1 2FEA ....|D-4 3FFA ....|G-4 GF5F ....
....|..|--- .... ....|--- .... ....|--- .... ....
....|..|--- .... ....|A-3 3FF7 ....|--- .... ....
....|..|--- .... ....|--- .... ....|--- .... ....
....|..|D-2 2FEA ....|G-4 3FFF ....|--- .... ....
....|..|--- .... ....|--- .... ....|--- .... ....
....|..|--- .... ....|A-4 3FFF ....|--- .... ....
....|..|--- .... ....|--- .... ....|--- .... ....
....|..|G-2 2FEA ....|D-4 3FFA ....|G-4 GF67 ....
....|..|--- .... ....|--- .... ....|--- .... ....
....|..|--- .... ....|--- .... ....|--- .... ....
....|..|R-- .... ....|--- .... ....|G-4 GF.A ....
....|..|G-1 2FE7 ....|G-4 3FFF ....|G-4 GF5A ....
....|..|--- .... ....|--- .... ....|--- .... ....
....|..|--- .... ....|G-4 3FFF ....|--- .... ....
....|..|--- .... ....|--- .... ....|--- .... ....
....|..|D-2 2FE7 ....|G-4 3FFA ....|G-4 GF6F ....
....|..|--- .... ....|--- .... ....|--- .... ....
....|..|--- .... ....|A-4 3FFA ....|--- .... ....
....|..|--- .... ....|R-- .... ....|--- .... ....
 G-2|..|G-1 2AEF ....|D-4 3FF7 ....|--- .... ....
....|..|--- .... ....|--- .... ....|--- .... ....
....|..|--- .... ....|--- .... ....|--- .... ....
....|..|R-- .... ....|--- .... ....|G-4 GF.7 ....
 B-2|..|B-1 2AEF ....|D-4 3FFF ....|G-4 GF57 ....
....|..|--- .... ....|--- .... ....|--- .... ....
....|..|--- .... ....|E-4 3FFF ....|--- .... ....
....|..|--- .... ....|--- .... ....|--- .... ....
 D-3|..|D-1 2AEF ....|F-4 3FFF ....|G-4 GF6A ....
....|..|--- .... ....|--- .... ....|--- .... ....
....|..|R-- .... ....|E-4 3FFF ....|--- .... ....
....|..|--- .... ....|R-- .... ....|--- .... ....
....|..|G-1 2FEA ....|--- .... ....|E-4 GF7F ....
....|..|--- .... ....|--- .... ....|--- .... ....
....|..|--- .... ....|R-- .... ....|--- .... ....
....|..|--- .... ....|--- .... ....|--- .... ....
....|..|B-1 2FEA ....|G-4 3FFF ....|--- .... ....
....|..|--- .... ....|--- .... ....|--- .... ....
....|..|--- .... ....|F-4 3FFF ....|--- .... ....
....|..|--- .... ....|--- .... ....|--- .... ....
....|..|D-1 2FEA ....|F-4 3FFA ....|G-4 GF67 ....
....|..|--- .... ....|--- .... ....|--- .... ....
....|..|R-- .... ....|E-4 3FFA ....|--- .... ....
....|..|--- .... ....|R-- .... ....|--- .... ....
....|..|G-1 2FE7 ....|E-4 3FFF ....|E-4 GF7A ....
....|..|--- .... ....|--- .... ....|--- .... ....
....|..|--- .... ....|C-4 3FFF ....|--- .... ....
....|..|--- .... ....|--- .... ....|--- .... ....
....|..|B-1 2FE7 ....|D-4 3FF7 ....|F-4 GF6F ....
....|..|--- .... ....|--- .... ....|--- .... ....
....|..|--- .... ....|E-4 3FF7 ....|--- .... ....
....|..|--- .... ....|--- .... ....|--- .... ....
 F-2|..|F-1 2AEF ....|F-4 3FF7 ....|--- .... ....
....|..|--- .... ....|R-- .... ....|--- .... ....
....|..|R-- .... ....|E-4 3FF7 ....|--- .... ....
....|..|--- .... ....|--- .... ....|--- .... ....
 A-2|..|A-1 2AEF ....|E-4 3FFA ....|E-4 GF77 ....
....|..|--- .... ....|--- .... ....|--- .... ....
....|..|--- .... ....|C-4 3FFA ....|--- .... ....
....|..|--- .... ....|--- .... ....|--- .... ....
 C-3|..|C-1 2AEF ....|G-4 3FF7 ....|F-4 GF6A ....
....|..|--- .... ....|--- .... ....|--- .... ....
....|..|--- .... ....|F-4 3FF7 ....|--- .... ....
....|..|R-- .... ....|--- .... ....|--- .... ....
....|..|F-1 2FEA ....|--- .... ....|G-4 GF6F ....
....|..|--- .... ....|R-- .... ....|--- .... ....
....|..|--- .... ....|--- .... ....|--- .... ....
....|..|--- .... ....|--- .... ....|--- .... ....
....|..|A-1 2FEA ....|D-4 3FFF ....|--- .... ....
....|..|--- .... ....|--- .... ....|--- .... ....
....|..|--- .... ....|D-4 3FFF ....|--- .... ....
....|..|--- .... ....|--- .... ....|--- .... ....
....|..|C-1 2FEA ....|D-4 3FFF ....|F-4 GF67 ....
....|..|--- .... ....|--- .... ....|--- .... ....
....|..|--- .... ....|D-4 3FFF ....|--- .... ....
....|..|R-- .... ....|--- .... ....|--- .... ....
....|..|F-1 2FE7 ....|E-4 3FFF ....|G-4 GF6A ....
....|..|--- .... ....|R-- .... ....|--- .... ....
....|..|--- .... ....|F-4 3FFF ....|--- .... ....
....|..|--- .... ....|--- .... ....|--- .... ....
....|..|A-1 2FE7 ....|E-4 3FFF ....|A-4 GF4F ....
....|..|--- .... ....|--- .... ....|--- .... ....
....|..|--- .... ....|D-4 3FFA ....|--- .... ....
....|..|--- .... ....|--- .... ....|--- .... ....
 D-2|..|D-1 2AEF ....|D-4 3FFF ....|--- .... ....
....|..|--- .... ....|--- .... ....|--- .... ....
....|..|--- .... ....|C-4 3FFF ....|--- .... ....
....|..|R-- .... ....|--- .... ....|--- .... ....
 F-2|..|F-1 2AEF ....|E-4 3FFA ....|G-4 GF67 ....
....|..|--- .... ....|--- .... ....|--- .... ....
....|..|--- .... ....|A-3 3FFF ....|--- .... ....
....|..|--- .... ....|--- .... ....|--- .... ....
 A-2|..|A-1 2AEF ....|D-4 3FF7 ....|A-4 GF4A ....
....|..|--- .... ....|--- .... ....|--- .... ....
....|..|--- .... ....|D-4 3FF7 ....|--- .... ....
....|..|R-- .... ....|R-- .... ....|--- .... ....

[Pattern6]
....|..|D-1 2FEA ....|D-4 3FF7 ....|F-4 GF6F ....
....|..|--- .... ....|--- .... ....|--- .... ....
....|..|--- .... ....|D-4 3FF7 ....|--- .... ....
....|..|--- .... ....|--- .... ....|--- .... ....
....|..|F-1 2FEA ....|C-4 3FFF ....|--- .... ....
....|..|--- .... ....|--- .... ....|--- .... ....
....|..|--- .... ....|C-4 3FFF ....|--- .... ....
....|..|--- .... ....|--- .... ....|--- .... ....
....|..|A-1 2FEA ....|E-4 3FF7 ....|A-4 GF47 ....
....|..|--- .... ....|--- .... ....|--- .... ....
....|..|--- .... ....|A-3 3FFF ....|--- .... ....
....|..|R-- .... ....|R-- .... ....|--- .... ....
....|..|D-1 2FE7 ....|D-4 3FF7 ....|F-4 GF6A ....
....|..|--- .... ....|--- .... ....|--- .... ....
....|..|--- .... ....|C-4 3FF7 ....|--- .... ....
....|..|--- .... ....|R-- .... ....|--- .... ....
....|..|F-1 2FE7 ....|C-4 3FFA ....|G-4 GF6F ....
....|..|--- .... ....|--- .... ....|--- .... ....
....|..|--- .... ....|A-3 3FF7 ....|--- .... ....
....|..|--- .... ....|--- .... ....|--- .... ....
 G-3|..|G-1 2AEF ....|D-4 3FFF ....|--- .... ....
....|..|--- .... ....|--- .... ....|--- .... ....
....|..|--- .... ....|D-4 3FFF ....|--- .... ....
....|..|R-- .... ....|R-- .... ....|--- .... ....
 D-4|..|D-2 2AEF ....|--- .... ....|F-4 GF67 ....
....|..|--- .... ....|--- .... ....|--- .... ....
....|..|--- .... ....|--- .... ....|--- .... ....
....|..|--- .... ....|R-- .... ....|--- .... ....
 G-4|..|G-2 2AEF ....|B-3 3FFF ....|G-4 GF6A ....
....|..|--- .... ....|--- .... ....|--- .... ....
....|..|--- .... ....|C-4 3FFF ....|--- .... ....
....|..|R-- .... ....|--- .... ....|--- .... ....
 C-3|..|C-1 2AEF ....|D-4 3FFA ....|C-5 GF.F ....
....|..|--- .... ....|--- .... ....|--- .... ....
....|..|--- .... ....|A-3 3FF7 ....|--- .... ....
....|..|--- .... ....|R-- .... ....|--- .... ....
....|..|D-2 2FEA ....|--- .... ....|--- .... ....
....|..|--- .... ....|--- .... ....|--- .... ....
....|..|--- .... ....|--- .... ....|--- .... ....
....|..|--- .... ....|R-- .... ....|--- .... ....
....|..|G-2 2FEA ....|B-3 3FFA ....|G-4 GF67 ....
....|..|--- .... ....|--- .... ....|--- .... ....
....|..|--- .... ....|C-4 3FFA ....|--- .... ....
....|..|R-- .... ....|--- .... ....|--- .... ....
....|..|G-1 2FE7 ....|D-4 3FF7 ....|C-5 GF.A ....
....|..|--- .... ....|--- .... ....|--- .... ....
....|..|--- .... ....|D-4 3FF7 ....|--- .... ....
....|..|--- .... ....|R-- .... ....|--- .... ....
 G-3|..|G-1 2AEF ....|--- .... ....|R-- .... ....
....|..|--- .... ....|--- .... ....|--- .... ....
....|..|--- .... ....|--- .... ....|--- .... ....
....|..|--- .... ....|--- .... ....|--- .... ....
....|..|G-2 2FE7 ....|B-3 3FF7 ....|--- .... ....
....|..|--- .... ....|--- .... ....|--- .... ....
....|..|--- .... ....|C-4 3FF7 ....|--- .... ....
....|..|R-- .... ....|--- .... ....|--- .... ....
....|..|C-1 2FE7 ....|--- .... ....|C-5 GF.7 ....
....|..|--- .... ....|--- .... ....|--- .... ....
....|..|--- .... ....|--- .... ....|--- .... ....
....|..|--- .... ....|R-- .... ....|--- .... ....
....|..|G-1 2FEA ....|--- .... ....|R-- .... ....
....|..|--- .... ....|--- .... ....|--- .... ....
....|..|--- .... ....|--- .... ....|--- .... ....
....|..|R-- .... ....|--- .... ....|--- .... ....
 C-4|..|C-2 2AEF ....|--- .... ....|--- .... ....
....|..|--- .... ....|--- .... ....|--- .... ....
....|..|R-- .... ....|--- .... ....|--- .... ....
....|..|--- .... ....|--- .... ....|--- .... ....
 C-4|..|C-2 2AEF ....|--- .... ....|--- .... ....
....|..|--- .... ....|--- .... ....|--- .... ....
....|..|R-- .... ....|--- .... ....|--- .... ....
....|..|--- .... ....|--- .... ....|--- .... ....
 C-4|..|C-2 2AEF ....|G-4 3FFF ....|R-- .... ....
....|..|--- .... ....|R-- .... ....|--- .... ....
....|..|R-- .... ....|G-4 3FFF ....|--- .... ....
....|..|R-- .... ....|R-- .... ....|--- .... ....
 C-4|..|C-2 2AEF ....|G-4 3FFF ....|--- .... ....
....|..|--- .... ....|--- .... ....|--- .... ....
....|..|R-- .... ....|G-4 3FFF ....|--- .... ....
....|..|--- .... ....|--- .... ....|--- .... ....
 G-3|..|G-1 2AEF ....|--- .... ....|--- .... ....
....|..|--- .... ....|--- .... ....|--- .... ....
....|..|R-- .... ....|G-4 3FFF ....|--- .... ....
....|..|--- .... ....|R-- .... ....|--- .... ....
 G-4|..|G-2 2AEF ....|F-4 3FFF ....|--- .... ....
....|..|--- .... ....|R-- .... ....|--- .... ....
....|..|R-- .... ....|F-4 3FFF ....|--- .... ....
....|..|R-- .... ....|R-- .... ....|--- .... ....
 B-3|..|B-1 2AEF ....|E-4 3FFF ....|--- .... ....
....|..|--- .... ....|--- .... ....|--- .... ....
....|..|R-- .... ....|G-4 3FFA ....|--- .... ....
....|..|--- .... ....|--- .... ....|--- .... ....
 D-4|..|D-2 2AEF ....|D-4 3FFF ....|--- .... ....
....|..|--- .... ....|R-- .... ....|--- .... ....
....|..|R-- .... ....|E-4 3FFF ....|--- .... ....
....|..|--- .... ....|R-- .... ....|--- .... ....
 A-3|..|A-1 2AEF ....|G-4 3FF7 ....|--- .... ....
....|..|--- .... ....|R-- .... ....|--- .... ....
....|..|R-- .... ....|G-4 3FF7 ....|--- .... ....
....|..|--- .... ....|R-- .... ....|--- .... ....
 A-3|..|A-1 2AEF ....|G-4 3FF7 ....|--- .... ....
....|..|--- .... ....|--- .... ....|--- .... ....
....|..|R-- .... ....|G-4 3FF7 ....|--- .... ....
....|..|--- .... ....|--- .... ....|--- .... ....
 A-3|..|A-1 2AEF ....|E-4 3FFF ....|--- .... ....
....|..|--- .... ....|R-- .... ....|--- .... ....
....|..|R-- .... ....|E-4 3FFF ....|--- .... ....
....|..|--- .... ....|R-- .... ....|--- .... ....
 A-3|..|A-1 2AEF ....|G-4 3FFF ....|--- .... ....
....|..|--- .... ....|R-- .... ....|--- .... ....
....|..|R-- .... ....|F-4 3FFF ....|--- .... ....
....|..|--- .... ....|R-- .... ....|--- .... ....
 F-3|..|F-1 2AEF ....|E-4 3FF7 ....|--- .... ....
....|..|--- .... ....|R-- .... ....|--- .... ....
....|..|R-- .... ....|F-4 3FFF ....|--- .... ....
....|..|--- .... ....|R-- .... ....|--- .... ....
 F-3|..|F-1 2AEF ....|E-4 3FFF ....|--- .... ....
....|..|--- .... ....|R-- .... ....|--- .... ....
....|..|R-- .... ....|E-4 3FFF ....|--- .... ....
....|..|--- .... ....|R-- .... ....|--- .... ....
 A-3|..|A-1 2AEF ....|C-4 3FFF ....|--- .... ....
....|..|--- .... ....|R-- .... ....|--- .... ....
....|..|R-- .... ....|C-4 3FFF ....|--- .... ....
....|..|--- .... ....|R-- .... ....|--- .... ....
 C-4|..|C-2 2AEF ....|D-4 3FFF ....|--- .... ....
....|..|--- .... ....|R-- .... ....|--- .... ....
....|..|R-- .... ....|D-4 3FFF ....|--- .... ....
....|..|--- .... ....|R-- .... ....|--- .... ....

[Pattern7]
 G-3|..|G-1 2AEF ....|E-4 3FF7 ....|--- .... ....
....|..|--- .... ....|R-- .... ....|--- .... ....
....|..|R-- .... ....|E-4 3FF7 ....|--- .... ....
....|..|--- .... ....|R-- .... ....|--- .... ....
 G-3|..|G-1 2AEF ....|G-4 3FF7 ....|--- .... ....
....|..|--- .... ....|R-- .... ....|--- .... ....
....|..|R-- .... ....|F-4 3FF7 ....|--- .... ....
....|..|--- .... ....|R-- .... ....|--- .... ....
 G-3|..|G-1 2AEF ....|D-4 3FFF ....|--- .... ....
....|..|--- .... ....|R-- .... ....|--- .... ....
....|..|R-- .... ....|D-4 3FFF ....|--- .... ....
....|..|--- .... ....|R-- .... ....|--- .... ....
 G-3|..|G-1 2AEF ....|D-4 3FFF ....|--- .... ....
....|..|--- .... ....|R-- .... ....|--- .... ....
....|..|R-- .... ....|E-4 3FFF ....|--- .... ....
....|..|--- .... ....|R-- .... ....|--- .... ....
 D-3|..|D-1 2AEF ....|C-4 3FF7 ....|--- .... ....
....|..|--- .... ....|R-- .... ....|--- .... ....
....|..|R-- .... ....|D-4 3FFF ....|--- .... ....
....|..|--- .... ....|R-- .... ....|--- .... ....
 D-3|..|D-1 2AEF ....|D-4 3FF7 ....|--- .... ....
....|..|--- .... ....|R-- .... ....|--- .... ....
....|..|R-- .... ....|A-3 3FFF ....|--- .... ....
....|..|--- .... ....|R-- .... ....|--- .... ....
 A-3|..|A-1 2AEF ....|C-4 3FFF ....|--- .... ....
....|..|--- .... ....|R-- .... ....|--- .... ....
....|..|R-- .... ....|C-4 3FFF ....|--- .... ....
....|..|--- .... ....|R-- .... ....|--- .... ....
 D-4|..|D-2 2AEF ....|C-4 3FFF ....|--- .... ....
....|..|--- .... ....|R-- .... ....|--- .... ....
....|..|R-- .... ....|C-4 3FFF ....|--- .... ....
....|..|--- .... ....|--- .... ....|--- .... ....
 F-3|..|F-1 2AEF ....|D-4 3FF7 ....|--- .... ....
....|..|--- .... ....|R-- .... ....|--- .... ....
....|..|R-- .... ....|D-4 3FF7 ....|--- .... ....
....|..|--- .... ....|R-- .... ....|--- .... ....
 F-3|..|F-1 2AEF ....|D-4 3FF7 ....|--- .... ....
....|..|--- .... ....|R-- .... ....|--- .... ....
....|..|R-- .... ....|A-3 3FFF ....|--- .... ....
....|..|--- .... ....|R-- .... ....|--- .... ....
 F-3|..|F-1 2AEF ....|C-4 3FFF ....|--- .... ....
....|..|--- .... ....|R-- .... ....|--- .... ....
....|..|R-- .... ....|A-3 3FFF ....|--- .... ....
....|..|--- .... ....|--- .... ....|--- .... ....
 F-3|..|F-1 2AEF ....|C-4 3FFF ....|--- .... ....
....|..|--- .... ....|--- .... ....|--- .... ....
....|..|R-- .... ....|A-3 3FF7 ....|--- .... ....
....|..|--- .... ....|R-- .... ....|--- .... ....
 A-3|..|A-1 2AEF ....|A-3 3FFF ....|--- .... ....
....|..|--- .... ....|R-- .... ....|--- .... ....
....|..|R-- .... ....|C-4 3FF7 ....|--- .... ....
....|..|--- .... ....|R-- .... ....|--- .... ....
 A-3|..|A-1 2AEF ....|C-4 3FF7 ....|--- .... ....
....|..|--- .... ....|R-- .... ....|--- .... ....
....|..|R-- .... ....|C-4 3FF7 ....|--- .... ....
....|..|--- .... ....|--- .... ....|--- .... ....
 C-4|..|C-2 2AEF ....|C-4 3FFA ....|--- .... ....
....|..|--- .... ....|--- .... ....|--- .... ....
....|..|R-- .... ....|--- .... ....|--- .... ....
....|..|--- .... ....|--- .... ....|--- .... ....
 B-3|..|B-1 2AEF ....|A-3 3FFA ....|--- .... ....
....|..|--- .... ....|--- .... ....|--- .... ....
....|..|R-- .... ....|A-3 3FF7 ....|--- .... ....
....|..|--- .... ....|--- .... ....|--- .... ....
 C-4|..|C-2 2AEF ....|C-4 3FF7 ....|--- .... ....
....|..|--- .... ....|--- .... ....|--- .... ....
....|..|R-- .... ....|A-3 3FF7 ....|--- .... ....
....|..|--- .... ....|--- .... ....|--- .... ....
 C-4|..|C-2 2AEF ....|G-4 3FFF ....|--- .... ....
....|..|--- .... ....|R-- .... ....|--- .... ....
....|..|R-- .... ....|G-4 3FFF ....|--- .... ....
....|..|--- .... ....|R-- .... ....|--- .... ....
 C-4|..|C-2 2AEF ....|G-4 3FFF ....|--- .... ....
....|..|--- .... ....|R-- .... ....|--- .... ....
....|..|R-- .... ....|G-4 3FFF ....|--- .... ....
....|..|--- .... ....|R-- .... ....|--- .... ....
 C-4|..|C-2 2AEF ....|G-4 3FFF ....|--- .... ....
....|..|--- .... ....|R-- .... ....|--- .... ....
....|..|R-- .... ....|G-4 3FFF ....|--- .... ....
....|..|--- .... ....|--- .... ....|--- .... ....
 G-3|..|G-1 2AEF ....|G-4 3FFA ....|--- .... ....
....|..|--- .... ....|R-- .... ....|--- .... ....
....|..|R-- .... ....|G-4 3FFA ....|--- .... ....
....|..|--- .... ....|R-- .... ....|--- .... ....
 G-4|..|G-2 2AEF ....|F-4 3FFF ....|--- .... ....
....|..|--- .... ....|R-- .... ....|--- .... ....
....|..|R-- .... ....|E-4 3FFF ....|--- .... ....
....|..|--- .... ....|R-- .... ....|--- .... ....
 B-3|..|B-1 2AEF ....|G-4 3FFA ....|--- .... ....
....|..|--- .... ....|R-- .... ....|--- .... ....
....|..|R-- .... ....|G-4 3FFA ....|--- .... ....
....|..|--- .... ....|--- .... ....|--- .... ....
 D-4|..|D-2 2AEF ....|D-4 3FFF ....|--- .... ....
....|..|--- .... ....|R-- .... ....|--- .... ....
....|..|R-- .... ....|E-4 3FFF ....|--- .... ....
....|..|--- .... ....|R-- .... ....|--- .... ....
 A-3|..|A-1 2AEF ....|G-4 3FF7 ....|--- .... ....
....|..|--- .... ....|R-- .... ....|--- .... ....
....|..|R-- .... ....|G-4 3FF7 ....|--- .... ....
....|..|--- .... ....|R-- .... ....|--- .... ....
 A-3|..|A-1 2AEF ....|G-4 3FF7 ....|--- .... ....
....|..|--- .... ....|R-- .... ....|--- .... ....
....|..|R-- .... ....|G-4 3FF7 ....|--- .... ....
....|..|--- .... ....|--- .... ....|--- .... ....
 A-3|..|A-1 2AEF ....|E-4 3FFF ....|--- .... ....
....|..|--- .... ....|R-- .... ....|--- .... ....
....|..|R-- .... ....|E-4 3FFF ....|--- .... ....
....|..|--- .... ....|R-- .... ....|--- .... ....
 A-3|..|A-1 2AEF ....|E-4 3FFF ....|--- .... ....
....|..|--- .... ....|R-- .... ....|--- .... ....
....|..|R-- .... ....|E-4 3FFF ....|--- .... ....
....|..|--- .... ....|R-- .... ....|--- .... ....
 F-3|..|F-1 2AEF ....|A-4 3FFF ....|--- .... ....
....|..|--- .... ....|--- .... ....|--- .... ....
....|..|R-- .... ....|--- .... ....|--- .... ....
....|..|--- .... ....|R-- .... ....|--- .... ....
 F-3|..|F-1 2AEF ....|G-4 3FFF ....|--- .... ....
....|..|--- .... ....|R-- .... ....|--- .... ....
....|..|R-- .... ....|E-4 3FFF ....|--- .... ....
....|..|--- .... ....|R-- .... ....|--- .... ....
 A-3|..|A-1 2AEF ....|E-4 3FFF ....|--- .... ....
....|..|--- .... ....|R-- .... ....|--- .... ....
....|..|R-- .... ....|C-4 3FFF ....|--- .... ....
....|..|--- .... ....|R-- .... ....|--- .... ....
 C-4|..|C-2 2AEF ....|D-4 3FFF ....|--- .... ....
....|..|--- .... ....|--- .... ....|--- .... ....
....|..|R-- .... ....|--- .... ....|--- .... ....
....|..|--- .... ....|R-- .... ....|--- .... ....

[Pattern8]
 G-3|..|G-1 2AEF ....|E-4 3FF7 ....|--- .... ....
....|..|--- .... ....|R-- .... ....|--- .... ....
....|..|R-- .... ....|E-4 3FF7 ....|--- .... ....
....|..|--- .... ....|R-- .... ....|--- .... ....
 G-3|..|G-1 2AEF ....|E-4 3FF7 ....|--- .... ....
....|..|--- .... ....|R-- .... ....|--- .... ....
....|..|R-- .... ....|E-4 3FF7 ....|--- .... ....
....|..|--- .... ....|R-- .... ....|--- .... ....
 G-3|..|G-1 2AEF ....|D-4 3FFF ....|--- .... ....
....|..|--- .... ....|R-- .... ....|--- .... ....
....|..|R-- .... ....|D-4 3FFF ....|--- .... ....
....|..|--- .... ....|R-- .... ....|--- .... ....
 G-3|..|G-1 2AEF ....|D-4 3FFF ....|--- .... ....
....|..|--- .... ....|R-- .... ....|--- .... ....
....|..|R-- .... ....|E-4 3FFF ....|--- .... ....
....|..|--- .... ....|R-- .... ....|--- .... ....
 D-3|..|D-1 2AEF ....|E-4 3FF7 ....|--- .... ....
....|..|--- .... ....|R-- .... ....|--- .... ....
....|..|R-- .... ....|E-4 3FFF ....|--- .... ....
....|..|--- .... ....|D-4 3FFF ....|--- .... ....
 D-3|..|D-1 2AEF ....|D-4 3FF7 ....|--- .... ....
....|..|--- .... ....|R-- .... ....|--- .... ....
....|..|R-- .... ....|A-3 3FFF ....|--- .... ....
....|..|--- .... ....|R-- .... ....|--- .... ....
 A-3|..|A-1 2AEF ....|C-4 3FFF ....|--- .... ....
....|..|--- .... ....|R-- .... ....|--- .... ....
....|..|R-- .... ....|C-4 3FFF ....|--- .... ....
....|..|--- .... ....|R-- .... ....|--- .... ....
 D-4|..|D-2 2AEF ....|A-3 3FFF ....|--- .... ....
....|..|--- .... ....|--- .... ....|--- .... ....
....|..|R-- .... ....|E-4 3FFA ....|--- .... ....
....|..|--- .... ....|D-4 3FFA ....|--- .... ....
 F-3|..|F-1 2AEF ....|D-4 3FF7 ....|--- .... ....
....|..|--- .... ....|R-- .... ....|--- .... ....
....|..|R-- .... ....|D-4 3FF7 ....|--- .... ....
....|..|--- .... ....|R-- .... ....|--- .... ....
 F-3|..|F-1 2AEF ....|D-4 3FF7 ....|--- .... ....
....|..|--- .... ....|R-- .... ....|--- .... ....
....|..|R-- .... ....|A-3 3FFF ....|--- .... ....
....|..|--- .... ....|R-- .... ....|--- .... ....
 F-3|..|F-1 2AEF ....|C-4 3FFF ....|--- .... ....
....|..|--- .... ....|--- .... ....|--- .... ....
....|..|R-- .... ....|A-3 3FFF ....|--- .... ....
....|..|--- .... ....|D-4 3FF7 ....|--- .... ....
 F-3|..|F-1 2AEF ....|C-4 3FFF ....|--- .... ....
....|..|--- .... ....|--- .... ....|--- .... ....
....|..|R-- .... ....|A-3 3FFF ....|--- .... ....
....|..|--- .... ....|R-- .... ....|--- .... ....
 A-3|..|A-1 2AEF ....|D-4 3FFF ....|--- .... ....
....|..|--- .... ....|R-- .... ....|--- .... ....
....|..|R-- .... ....|C-4 3FF7 ....|--- .... ....
....|..|--- .... ....|R-- .... ....|--- .... ....
 A-3|..|A-1 2AEF ....|A-3 3FFF ....|--- .... ....
....|..|--- .... ....|--- .... ....|--- .... ....
....|..|R-- .... ....|A-3 3FFA ....|--- .... ....
....|..|--- .... ....|R-- .... ....|--- .... ....
 C-4|..|C-2 2AEF ....|C-4 3FFA ....|--- .... ....
....|..|--- .... ....|--- .... ....|--- .... ....
....|..|R-- .... ....|A-3 3FFA ....|--- .... ....
....|..|--- .... ....|--- .... ....|--- .... ....
 B-3|..|B-1 2AEF ....|D-4 3FFA ....|--- .... ....
....|..|--- .... ....|--- .... ....|--- .... ....
....|..|R-- .... ....|A-3 3FF7 ....|--- .... ....
....|..|--- .... ....|--- .... ....|--- .... ....
 C-4|..|C-2 2AEF ....|C-4 3FF7 ....|--- .... ....
....|..|--- .... ....|--- .... ....|--- .... ....
....|..|R-- .... ....|A-3 3FF7 ....|--- .... ....
....|..|--- .... ....|R-- .... ....|--- .... ....
 C-4|..|C-2 2AEF ....|C-4 3FF7 ....|--- .... ....
....|..|--- .... ....|--- .... ....|--- .... ....
....|..|R-- .... ....|G-4 3FFF ....|--- .... ....
....|..|--- .... ....|R-- .... ....|--- .... ....
 C-4|..|C-2 2AEF ....|G-4 3FFF ....|--- .... ....
....|..|--- .... ....|R-- .... ....|--- .... ....
....|..|R-- .... ....|G-4 3FFF ....|--- .... ....
....|..|--- .... ....|R-- .... ....|--- .... ....
 C-4|..|C-2 2AEF ....|G-4 3FFF ....|--- .... ....
....|..|--- .... ....|R-- .... ....|--- .... ....
....|..|R-- .... ....|A-4 3FFF ....|--- .... ....
....|..|--- .... ....|R-- .... ....|--- .... ....
 G-3|..|G-1 2AEF ....|--- .... ....|--- .... ....
....|..|--- .... ....|--- .... ....|--- .... ....
....|..|R-- .... ....|G-4 3FFF ....|--- .... ....
....|..|--- .... ....|R-- .... ....|--- .... ....
 G-4|..|G-2 2AEF ....|G-4 3FFF ....|--- .... ....
....|..|--- .... ....|R-- .... ....|--- .... ....
....|..|R-- .... ....|G-4 3FFA ....|--- .... ....
....|..|--- .... ....|R-- .... ....|--- .... ....
 B-3|..|B-1 2AEF ....|A-4 3FFF ....|--- .... ....
....|..|--- .... ....|R-- .... ....|--- .... ....
....|..|R-- .... ....|A-4 3FFA ....|--- .... ....
....|..|--- .... ....|--- .... ....|--- .... ....
 D-4|..|D-2 2AEF ....|G-4 3FFF ....|--- .... ....
....|..|--- .... ....|R-- .... ....|--- .... ....
....|..|R-- .... ....|A-4 3FFF ....|--- .... ....
....|..|--- .... ....|R-- .... ....|--- .... ....
 A-3|..|A-1 2AEF ....|G-4 3FF7 ....|--- .... ....
....|..|--- .... ....|R-- .... ....|--- .... ....
....|..|R-- .... ....|G-4 3FF7 ....|--- .... ....
....|..|--- .... ....|R-- .... ....|--- .... ....
 A-3|..|A-1 2AEF ....|G-4 3FF7 ....|--- .... ....
....|..|--- .... ....|R-- .... ....|--- .... ....
....|..|R-- .... ....|A-4 3FF7 ....|--- .... ....
....|..|--- .... ....|--- .... ....|--- .... ....
 A-3|..|A-1 2AEF ....|C-5 3FFF ....|--- .... ....
....|..|--- .... ....|R-- .... ....|--- .... ....
....|..|R-- .... ....|A-4 3FFF ....|--- .... ....
....|..|--- .... ....|R-- .... ....|--- .... ....
 A-3|..|A-1 2AEF ....|G-4 3FFF ....|--- .... ....
....|..|--- .... ....|--- .... ....|--- .... ....
....|..|R-- .... ....|C-5 3FFF ....|--- .... ....
....|..|--- .... ....|--- .... ....|--- .... ....
 F-3|..|F-1 2AEF ....|A-4 3FF7 ....|--- .... ....
....|..|--- .... ....|R-- .... ....|--- .... ....
....|..|R-- .... ....|R-- .... ....|--- .... ....
....|..|--- .... ....|--- .... ....|--- .... ....
 F-3|..|F-1 2AEF ....|A-4 3FFF ....|--- .... ....
....|..|--- .... ....|R-- .... ....|--- .... ....
....|..|R-- .... ....|A-4 3FFF ....|--- .... ....
....|..|--- .... ....|R-- .... ....|--- .... ....
 A-3|..|A-1 2AEF ....|G-4 3FFF ....|--- .... ....
....|..|--- .... ....|R-- .... ....|--- .... ....
....|..|R-- .... ....|A-4 3FFF ....|--- .... ....
....|..|--- .... ....|R-- .... ....|--- .... ....
 C-4|..|C-2 2AEF ....|G-4 3FFF ....|--- .... ....
....|..|--- .... ....|R-- .... ....|--- .... ....
....|..|R-- .... ....|--- .... ....|--- .... ....
....|..|--- .... ....|--- .... ....|--- .... ....

[Pattern9]
 G-3|..|G-1 2AEF ....|C-5 3FF7 ....|--- .... ....
....|..|--- .... ....|R-- .... ....|--- .... ....
....|..|R-- .... ....|A-4 3FF7 ....|--- .... ....
....|..|--- .... ....|R-- .... ....|--- .... ....
 G-3|..|G-1 2AEF ....|G-4 3FF7 ....|--- .... ....
....|..|--- .... ....|R-- .... ....|--- .... ....
....|..|R-- .... ....|C-5 3FF7 ....|--- .... ....
....|..|--- .... ....|R-- .... ....|--- .... ....
 G-3|..|G-1 2AEF ....|G-4 3FFF ....|--- .... ....
....|..|--- .... ....|R-- .... ....|--- .... ....
....|..|R-- .... ....|G-4 3FFF ....|--- .... ....
....|..|--- .... ....|R-- .... ....|--- .... ....
 G-3|..|G-1 2AEF ....|G-4 3FFF ....|--- .... ....
....|..|--- .... ....|R-- .... ....|--- .... ....
....|..|R-- .... ....|A-4 3FFF ....|--- .... ....
....|..|--- .... ....|R-- .... ....|--- .... ....
 D-3|..|D-1 2AEF ....|G-4 3FF7 ....|--- .... ....
....|..|--- .... ....|R-- .... ....|--- .... ....
....|..|R-- .... ....|A-4 3FF7 ....|--- .... ....
....|..|--- .... ....|R-- .... ....|--- .... ....
 D-3|..|D-1 2AEF ....|G-4 3FFF ....|--- .... ....
....|..|--- .... ....|R-- .... ....|--- .... ....
....|..|R-- .... ....|E-4 3FFF ....|--- .... ....
....|..|--- .... ....|R-- .... ....|--- .... ....
 A-3|..|A-1 2AEF ....|A-4 3FFF ....|--- .... ....
....|..|--- .... ....|R-- .... ....|--- .... ....
....|..|R-- .... ....|G-4 3FFF ....|--- .... ....
....|..|--- .... ....|R-- .... ....|--- .... ....
 D-4|..|D-2 2AEF ....|E-4 3FFF ....|--- .... ....
....|..|--- .... ....|--- .... ....|--- .... ....
....|..|R-- .... ....|C-4 3FFF ....|--- .... ....
....|..|--- .... ....|--- .... ....|--- .... ....
 F-3|..|F-1 2AEF ....|G-4 3FF7 ....|C-5 GF.F ....
....|..|--- .... ....|R-- .... ....|--- .... ....
....|..|R-- .... ....|G-4 3FF7 ....|--- .... ....
....|..|--- .... ....|R-- .... ....|--- .... ....
 F-3|..|F-1 2AEF ....|G-4 3FF7 ....|--- .... ....
....|..|--- .... ....|R-- .... ....|--- .... ....
....|..|R-- .... ....|G-4 3FFF ....|--- .... ....
....|..|--- .... ....|--- .... ....|--- .... ....
 F-3|..|F-1 2AEF ....|A-4 3FFF ....|--- .... ....
....|..|--- .... ....|--- .... ....|--- .... ....
....|..|R-- .... ....|G-4 3FFF ....|--- .... ....
....|..|--- .... ....|--- .... ....|--- .... ....
 F-3|..|F-1 2AEF ....|A-4 3FFF ....|C-5 GF.A ....
....|..|--- .... ....|--- .... ....|--- .... ....
....|..|R-- .... ....|E-4 3FF7 ....|--- .... ....
....|..|--- .... ....|--- .... ....|--- .... ....
 A-3|..|A-1 2AEF ....|A-4 3FFF ....|--- .... ....
....|..|--- .... ....|--- .... ....|--- .... ....
....|..|R-- .... ....|G-4 3FF7 ....|--- .... ....
....|..|--- .... ....|--- .... ....|--- .... ....
 A-3|..|A-1 2AEF ....|E-4 3FF7 ....|--- .... ....
....|..|--- .... ....|--- .... ....|--- .... ....
....|..|R-- .... ....|C-4 3FF7 ....|--- .... ....
....|..|--- .... ....|--- .... ....|--- .... ....
 A-3|..|A-1 2AEF ....|A-4 3FFA ....|C-5 GF.7 ....
....|..|--- .... ....|--- .... ....|--- .... ....
....|..|R-- .... ....|G-4 3FFF ....|--- .... ....
....|..|--- .... ....|--- .... ....|--- .... ....
 G-3|..|G-1 2AEF ....|A-4 3FFF ....|B-4 GF8F ....
....|..|--- .... ....|--- .... ....|--- .... ....
....|..|R-- .... ....|G-4 3FF7 ....|--- .... ....
....|..|--- .... ....|--- .... ....|--- .... ....
 C-3|..|C-1 2AEF ....|G-4 3FFF ....|G-4 GF5F ....
....|..|--- .... ....|--- .... ....|--- .... ....
....|..|R-- .... ....|G-4 3FF7 ....|--- .... ....
....|..|--- .... ....|R-- .... ....|--- .... ....
....|..|F-1 2FE7 ....|G-4 3FFF ....|--- .... ....
....|..|--- .... ....|R-- .... ....|--- .... ....
....|..|R-- .... ....|A-4 3FFF ....|--- .... ....
....|..|--- .... ....|--- .... ....|--- .... ....
....|..|A-1 2FE7 ....|A-4 3FF7 ....|B-4 GF8A ....
....|..|--- .... ....|--- .... ....|--- .... ....
....|..|R-- .... ....|R-- .... ....|--- .... ....
....|..|--- .... ....|--- .... ....|--- .... ....
....|..|A-1 2FE7 ....|G-4 3FFF ....|G-4 GF5A ....
....|..|--- .... ....|--- .... ....|--- .... ....
....|..|R-- .... ....|G-4 3FFF ....|--- .... ....
....|..|--- .... ....|R-- .... ....|--- .... ....
 G-2|..|G-1 2AEF ....|G-4 3FFA ....|G-4 GF6F ....
....|..|--- .... ....|R-- .... ....|--- .... ....
....|..|R-- .... ....|G-4 3FF7 ....|--- .... ....
....|..|--- .... ....|R-- .... ....|--- .... ....
 G-3|..|G-1 2AEF ....|A-4 3FF7 ....|B-4 GF87 ....
....|..|--- .... ....|--- .... ....|--- .... ....
 G-2|..|G-1 2AEF ....|R-- .... ....|--- .... ....
....|..|--- .... ....|--- .... ....|--- .... ....
 B-3|..|B-1 2AEF ....|D-4 3FFF ....|G-4 GF57 ....
....|..|--- .... ....|--- .... ....|--- .... ....
 G-2|..|G-1 2AEF ....|E-4 3FFF ....|--- .... ....
....|..|--- .... ....|R-- .... ....|--- .... ....
 D-4|..|D-2 2AEF ....|F-4 3FFF ....|G-4 GF6A ....
....|..|--- .... ....|R-- .... ....|--- .... ....
 G-2|..|G-1 2AEF ....|E-4 3FFF ....|--- .... ....
....|..|R-- .... ....|R-- .... ....|--- .... ....
 A-2|..|A-1 2AEF ....|--- .... ....|E-4 GF7F ....
....|..|--- .... ....|--- .... ....|--- .... ....
....|..|G-1 2FEA ....|R-- .... ....|--- .... ....
....|..|--- .... ....|--- .... ....|--- .... ....
....|..|B-1 2FEA ....|G-4 3FFF ....|--- .... ....
....|..|--- .... ....|--- .... ....|--- .... ....
....|..|G-1 2FEA ....|F-4 3FFF ....|--- .... ....
....|..|R-- .... ....|--- .... ....|--- .... ....
 G-2|..|G-1 2AEF ....|F-4 3FFA ....|G-4 GF67 ....
....|..|--- .... ....|--- .... ....|--- .... ....
....|..|G-1 2FEA ....|E-4 3FFA ....|--- .... ....
....|..|R-- .... ....|R-- .... ....|--- .... ....
....|..|G-1 2FE7 ....|E-4 3FFF ....|E-4 GF7A ....
....|..|--- .... ....|--- .... ....|--- .... ....
....|..|G-1 2FE7 ....|C-4 3FFF ....|--- .... ....
....|..|R-- .... ....|--- .... ....|--- .... ....
 F-2|..|F-1 2AEF ....|D-4 3FF7 ....|F-4 GF6F ....
....|..|--- .... ....|--- .... ....|--- .... ....
....|..|G-1 2FE7 ....|E-4 3FF7 ....|--- .... ....
....|..|R-- .... ....|--- .... ....|--- .... ....
 F-3|..|F-1 2AEF ....|F-4 3FF7 ....|--- .... ....
....|..|--- .... ....|R-- .... ....|--- .... ....
 F-2|..|F-1 2AEF ....|E-4 3FF7 ....|--- .... ....
....|..|R-- .... ....|R-- .... ....|--- .... ....
 A-3|..|A-1 2AEF ....|E-4 3FFA ....|E-4 GF77 ....
....|..|--- .... ....|--- .... ....|--- .... ....
 F-2|..|F-1 2AEF ....|C-4 3FFA ....|--- .... ....
....|..|R-- .... ....|--- .... ....|--- .... ....
 C-4|..|C-2 2AEF ....|G-4 3FF7 ....|F-4 GF6A ....
....|..|--- .... ....|--- .... ....|--- .... ....
 F-2|..|F-1 2AEF ....|F-4 3FF7 ....|--- .... ....
....|..|R-- .... ....|--- .... ....|--- .... ....

[Pattern10]
 G-2|..|G-1 2AEF ....|--- .... ....|G-4 GF6F ....
....|..|--- .... ....|R-- .... ....|--- .... ....
....|..|F-1 2FEA ....|--- .... ....|--- .... ....
....|..|--- .... ....|R-- .... ....|--- .... ....
....|..|A-1 2FEA ....|D-4 3FFF ....|--- .... ....
....|..|--- .... ....|--- .... ....|--- .... ....
....|..|F-1 2FEA ....|D-4 3FFF ....|--- .... ....
....|..|R-- .... ....|--- .... ....|--- .... ....
....|..|F-1 2FE7 ....|D-4 3FFF ....|F-4 GF67 ....
....|..|--- .... ....|--- .... ....|--- .... ....
....|..|F-1 2FEA ....|D-4 3FFF ....|--- .... ....
....|..|R-- .... ....|--- .... ....|--- .... ....
....|..|F-1 2FE7 ....|E-4 3FFF ....|G-4 GF6A ....
....|..|--- .... ....|R-- .... ....|--- .... ....
....|..|F-1 2FE7 ....|F-4 3FFF ....|--- .... ....
....|..|R-- .... ....|--- .... ....|--- .... ....
 D-2|..|D-1 2AEF ....|E-4 3FFF ....|A-4 GF4F ....
....|..|--- .... ....|--- .... ....|--- .... ....
....|..|F-1 2FE7 ....|D-4 3FFA ....|--- .... ....
....|..|--- .... ....|--- .... ....|--- .... ....
 D-3|..|D-1 2AEF ....|D-4 3FFF ....|--- .... ....
....|..|--- .... ....|--- .... ....|--- .... ....
 D-2|..|D-1 2AEF ....|C-4 3FFF ....|--- .... ....
....|..|R-- .... ....|--- .... ....|--- .... ....
 A-3|..|A-1 2AEF ....|E-4 3FFA ....|G-4 GF67 ....
....|..|--- .... ....|--- .... ....|--- .... ....
 D-2|..|D-1 2AEF ....|A-3 3FFF ....|--- .... ....
....|..|R-- .... ....|--- .... ....|--- .... ....
 D-4|..|D-2 2AEF ....|D-4 3FF7 ....|A-4 GF4A ....
....|..|--- .... ....|--- .... ....|--- .... ....
 D-2|..|D-1 2AEF ....|D-4 3FF7 ....|--- .... ....
....|..|R-- .... ....|R-- .... ....|--- .... ....
 F-2|..|F-1 2AEF ....|D-4 3FF7 ....|F-4 GF6F ....
....|..|--- .... ....|--- .... ....|--- .... ....
....|..|D-1 2FEA ....|D-4 3FF7 ....|--- .... ....
....|..|--- .... ....|--- .... ....|--- .... ....
....|..|A-1 2FEA ....|C-4 3FFF ....|--- .... ....
....|..|--- .... ....|--- .... ....|--- .... ....
....|..|D-1 2FEA ....|C-4 3FFF ....|--- .... ....
....|..|R-- .... ....|--- .... ....|--- .... ....
....|..|D-1 2FE7 ....|E-4 3FF7 ....|A-4 GF47 ....
....|..|--- .... ....|--- .... ....|--- .... ....
....|..|D-1 2FEA ....|A-3 3FFF ....|--- .... ....
....|..|R-- .... ....|R-- .... ....|--- .... ....
....|..|D-1 2FE7 ....|D-4 3FF7 ....|F-4 GF6A ....
....|..|--- .... ....|--- .... ....|--- .... ....
....|..|D-1 2FE7 ....|C-4 3FF7 ....|--- .... ....
....|..|R-- .... ....|--- .... ....|--- .... ....
 G-2|..|G-1 2AEF ....|C-4 3FFA ....|G-4 GF6F ....
....|..|--- .... ....|--- .... ....|--- .... ....
....|..|D-1 2FE7 ....|A-3 3FF7 ....|--- .... ....
....|..|--- .... ....|--- .... ....|--- .... ....
 B-3|..|B-1 2AEF ....|D-4 3FFF ....|--- .... ....
....|..|--- .... ....|--- .... ....|--- .... ....
 G-2|..|G-1 2AEF ....|E-4 3FFF ....|--- .... ....
....|..|R-- .... ....|R-- .... ....|--- .... ....
 D-4|..|D-2 2AEF ....|--- .... ....|F-4 GF67 ....
....|..|--- .... ....|--- .... ....|--- .... ....
 G-2|..|G-1 2AEF ....|--- .... ....|--- .... ....
....|..|R-- .... ....|--- .... ....|--- .... ....
 B-3|..|B-1 2AEF ....|D-4 3FFF ....|G-4 GF6A ....
....|..|--- .... ....|--- .... ....|--- .... ....
 G-2|..|G-1 2AEF ....|C-4 3FF7 ....|--- .... ....
....|..|R-- .... ....|--- .... ....|G-4 GF.F ....
 C-3|..|C-1 2AEF ....|D-4 3FFA ....|G-4 GF5F ....
....|..|--- .... ....|--- .... ....|--- .... ....
....|..|G-1 2FEA ....|A-3 3FF7 ....|--- .... ....
....|..|--- .... ....|--- .... ....|--- .... ....
....|..|D-2 2FEA ....|G-4 3FFF ....|--- .... ....
....|..|--- .... ....|--- .... ....|--- .... ....
....|..|G-1 2FEA ....|A-4 3FFF ....|--- .... ....
....|..|R-- .... ....|--- .... ....|--- .... ....
....|..|G-1 2FE7 ....|D-4 3FFA ....|G-4 GF67 ....
....|..|--- .... ....|--- .... ....|--- .... ....
....|..|G-1 2FEA ....|--- .... ....|--- .... ....
....|..|R-- .... ....|--- .... ....|G-4 GF.A ....
....|..|B-1 2FE7 ....|G-4 3FFF ....|G-4 GF5A ....
....|..|--- .... ....|--- .... ....|--- .... ....
....|..|G-1 2FE7 ....|G-4 3FFF ....|--- .... ....
....|..|--- .... ....|--- .... ....|--- .... ....
 G-2|..|G-1 2AEF ....|G-4 3FFA ....|G-4 GF6F ....
....|..|--- .... ....|--- .... ....|--- .... ....
....|..|G-1 2FE7 ....|A-4 3FFA ....|--- .... ....
....|..|--- .... ....|R-- .... ....|--- .... ....
 G-3|..|G-1 2AEF ....|D-4 3FF7 ....|--- .... ....
....|..|--- .... ....|--- .... ....|--- .... ....
 G-2|..|G-1 2AEF ....|--- .... ....|--- .... ....
....|..|R-- .... ....|--- .... ....|G-4 GF.7 ....
 B-3|..|B-1 2AEF ....|D-4 3FFF ....|G-4 GF57 ....
....|..|--- .... ....|--- .... ....|--- .... ....
 G-2|..|G-1 2AEF ....|E-4 3FFF ....|--- .... ....
....|..|--- .... ....|--- .... ....|--- .... ....
 D-4|..|D-2 2AEF ....|F-4 3FFF ....|G-4 GF6A ....
....|..|--- .... ....|--- .... ....|--- .... ....
 G-2|..|G-1 2AEF ....|E-4 3FFF ....|--- .... ....
....|..|R-- .... ....|R-- .... ....|--- .... ....
 A-2|..|A-1 2AEF ....|--- .... ....|E-4 GF7F ....
....|..|--- .... ....|--- .... ....|--- .... ....
....|..|G-1 2FEA ....|R-- .... ....|--- .... ....
....|..|--- .... ....|--- .... ....|--- .... ....
....|..|B-1 2FEA ....|G-4 3FFF ....|--- .... ....
....|..|--- .... ....|--- .... ....|--- .... ....
....|..|G-1 2FEA ....|F-4 3FFF ....|--- .... ....
....|..|R-- .... ....|--- .... ....|--- .... ....
 G-2|..|G-1 2AEF ....|F-4 3FFA ....|G-4 GF67 ....
....|..|--- .... ....|--- .... ....|--- .... ....
....|..|G-1 2FEA ....|E-4 3FFA ....|--- .... ....
....|..|R-- .... ....|R-- .... ....|--- .... ....
....|..|G-1 2FE7 ....|E-4 3FFF ....|E-4 GF7A ....
....|..|--- .... ....|--- .... ....|--- .... ....
....|..|G-1 2FE7 ....|C-4 3FFF ....|--- .... ....
....|..|R-- .... ....|--- .... ....|--- .... ....
 F-2|..|F-1 2AEF ....|D-4 3FF7 ....|F-4 GF6F ....
....|..|--- .... ....|--- .... ....|--- .... ....
....|..|G-1 2FE7 ....|E-4 3FF7 ....|--- .... ....
....|..|R-- .... ....|--- .... ....|--- .... ....
 F-3|..|F-1 2AEF ....|F-4 3FF7 ....|--- .... ....
....|..|--- .... ....|R-- .... ....|--- .... ....
 F-2|..|F-1 2AEF ....|E-4 3FF7 ....|--- .... ....
....|..|R-- .... ....|--- .... ....|--- .... ....
 A-3|..|A-1 2AEF ....|E-4 3FFA ....|E-4 GF77 ....
....|..|--- .... ....|--- .... ....|--- .... ....
 F-2|..|F-1 2AEF ....|C-4 3FFA ....|--- .... ....
....|..|R-- .... ....|--- .... ....|--- .... ....
 C-4|..|C-2 2AEF ....|G-4 3FF7 ....|F-4 GF6A ....
....|..|--- .... ....|--- .... ....|--- .... ....
 F-2|..|F-1 2AEF ....|F-4 3FF7 ....|--- .... ....
....|..|R-- .... ....|--- .... ....|--- .... ....

[Pattern11]
 G-2|..|G-1 2AEF ....|--- .... ....|G-4 GF6F ....
....|..|--- .... ....|R-- .... ....|--- .... ....
....|..|F-1 2FEA ....|--- .... ....|--- .... ....
....|..|--- .... ....|--- .... ....|--- .... ....
....|..|A-1 2FEA ....|D-4 3FFF ....|--- .... ....
....|..|--- .... ....|--- .... ....|--- .... ....
....|..|F-1 2FEA ....|D-4 3FFF ....|--- .... ....
....|..|R-- .... ....|--- .... ....|--- .... ....
....|..|F-1 2FE7 ....|D-4 3FFF ....|F-4 GF67 ....
....|..|--- .... ....|--- .... ....|--- .... ....
....|..|F-1 2FEA ....|D-4 3FFF ....|--- .... ....
....|..|R-- .... ....|--- .... ....|--- .... ....
....|..|F-1 2FE7 ....|E-4 3FFF ....|G-4 GF6A ....
....|..|--- .... ....|R-- .... ....|--- .... ....
....|..|F-1 2FE7 ....|F-4 3FFF ....|--- .... ....
....|..|R-- .... ....|--- .... ....|--- .... ....
 D-2|..|D-1 2AEF ....|E-4 3FFF ....|A-4 GF4F ....
....|..|--- .... ....|--- .... ....|--- .... ....
....|..|F-1 2FE7 ....|D-4 3FFA ....|--- .... ....
....|..|--- .... ....|--- .... ....|--- .... ....
 D-3|..|D-1 2AEF ....|D-4 3FFF ....|--- .... ....
....|..|--- .... ....|--- .... ....|--- .... ....
 D-2|..|D-1 2AEF ....|C-4 3FFF ....|--- .... ....
....|..|R-- .... ....|--- .... ....|--- .... ....
 A-3|..|A-1 2AEF ....|E-4 3FFA ....|G-4 GF67 ....
....|..|--- .... ....|--- .... ....|--- .... ....
 D-2|..|D-1 2AEF ....|A-3 3FFF ....|--- .... ....
....|..|R-- .... ....|--- .... ....|--- .... ....
 D-4|..|D-2 2AEF ....|D-4 3FF7 ....|A-4 GF4A ....
....|..|--- .... ....|--- .... ....|--- .... ....
 D-2|..|D-1 2AEF ....|D-4 3FF7 ....|--- .... ....
....|..|R-- .... ....|R-- .... ....|--- .... ....
 F-2|..|F-1 2AEF ....|D-4 3FF7 ....|F-4 GF6F ....
....|..|--- .... ....|--- .... ....|--- .... ....
....|..|D-1 2FEA ....|D-4 3FF7 ....|--- .... ....
....|..|--- .... ....|--- .... ....|--- .... ....
....|..|A-1 2FEA ....|C-4 3FFF ....|--- .... ....
....|..|--- .... ....|--- .... ....|--- .... ....
....|..|D-1 2FEA ....|C-4 3FFF ....|--- .... ....
....|..|R-- .... ....|--- .... ....|--- .... ....
....|..|D-1 2FE7 ....|E-4 3FF7 ....|A-4 GF47 ....
....|..|--- .... ....|--- .... ....|--- .... ....
....|..|D-1 2FEA ....|A-3 3FFF ....|--- .... ....
....|..|R-- .... ....|R-- .... ....|--- .... ....
....|..|D-1 2FE7 ....|D-4 3FF7 ....|F-4 GF6A ....
....|..|--- .... ....|--- .... ....|--- .... ....
....|..|D-1 2FE7 ....|C-4 3FF7 ....|--- .... ....
....|..|R-- .... ....|R-- .... ....|--- .... ....
 G-2|..|G-1 2AEF ....|C-4 3FFA ....|G-4 GF6F ....
....|..|--- .... ....|--- .... ....|--- .... ....
....|..|D-1 2FE7 ....|A-3 3FF7 ....|--- .... ....
....|..|--- .... ....|--- .... ....|--- .... ....
 B-3|..|B-1 2AEF ....|D-4 3FFF ....|--- .... ....
....|..|--- .... ....|R-- .... ....|--- .... ....
 G-2|..|G-1 2AEF ....|E-4 3FFF ....|--- .... ....
....|..|R-- .... ....|R-- .... ....|--- .... ....
 D-4|..|D-2 2AEF ....|--- .... ....|F-4 GF67 ....
....|..|--- .... ....|--- .... ....|--- .... ....
 G-2|..|G-1 2AEF ....|--- .... ....|--- .... ....
....|..|R-- .... ....|R-- .... ....|--- .... ....
 B-3|..|B-1 2AEF ....|F-4 3FFF ....|G-4 GF6A ....
....|..|--- .... ....|--- .... ....|--- .... ....
 G-2|..|G-1 2AEF ....|C-4 3FF7 ....|--- .... ....
....|..|R-- .... ....|R-- .... ....|D-5 GF.F ....
 C-3|..|C-1 2AEF ....|D-4 3FFA ....|G-4 GF5F ....
....|..|--- .... ....|R-- .... ....|--- .... ....
....|..|G-1 2FEA ....|A-3 3FF7 ....|--- .... ....
....|..|--- .... ....|--- .... ....|--- .... ....
....|..|D-2 2FEA ....|G-4 3FFF ....|--- .... ....
....|..|--- .... ....|R-- .... ....|--- .... ....
....|..|G-1 2FEA ....|A-4 3FFF ....|--- .... ....
....|..|R-- .... ....|R-- .... ....|--- .... ....
....|..|G-1 2FE7 ....|F-4 3FFA ....|G-4 GF67 ....
....|..|--- .... ....|--- .... ....|--- .... ....
....|..|G-1 2FEA ....|R-- .... ....|--- .... ....
....|..|R-- .... ....|R-- .... ....|D-5 GF.A ....
....|..|B-1 2FE7 ....|G-4 3FFF ....|G-4 GF5A ....
....|..|--- .... ....|R-- .... ....|--- .... ....
....|..|G-1 2FE7 ....|G-4 3FFF ....|--- .... ....
....|..|--- .... ....|--- .... ....|--- .... ....
 G-2|..|G-1 2AEF ....|G-4 3FFA ....|G-4 GF6F ....
....|..|--- .... ....|R-- .... ....|--- .... ....
....|..|G-1 2FE7 ....|A-4 3FFA ....|--- .... ....
....|..|--- .... ....|R-- .... ....|--- .... ....
 G-3|..|G-1 2AEF ....|F-4 3FF7 ....|--- .... ....
....|..|--- .... ....|--- .... ....|--- .... ....
 G-2|..|G-1 2AEF ....|R-- .... ....|--- .... ....
....|..|R-- .... ....|R-- .... ....|D-5 GF.7 ....
 B-3|..|B-1 2AEF ....|G-4 3FFF ....|G-4 GF57 ....
....|..|--- .... ....|R-- .... ....|--- .... ....
 G-2|..|G-1 2AEF ....|G-4 3FFF ....|--- .... ....
....|..|--- .... ....|R-- .... ....|--- .... ....
 D-4|..|D-2 2AEF ....|G-4 3FFF ....|G-4 GF6A ....
....|..|--- .... ....|R-- .... ....|--- .... ....
 G-2|..|G-1 2AEF ....|A-4 3FFF ....|--- .... ....
....|..|R-- .... ....|R-- .... ....|--- .... ....
 A-2|..|A-1 2AEF ....|--- .... ....|E-4 GF7F ....
....|..|--- .... ....|--- .... ....|--- .... ....
....|..|G-1 2FEA ....|R-- .... ....|--- .... ....
....|..|--- .... ....|R-- .... ....|--- .... ....
....|..|B-1 2FEA ....|A-4 3FFF ....|--- .... ....
....|..|--- .... ....|R-- .... ....|--- .... ....
....|..|G-1 2FEA ....|A-4 3FFF ....|--- .... ....
....|..|R-- .... ....|R-- .... ....|--- .... ....
 G-2|..|G-1 2AEF ....|G-4 3FFA ....|G-4 GF67 ....
....|..|--- .... ....|R-- .... ....|--- .... ....
....|..|G-1 2FEA ....|A-4 3FFA ....|--- .... ....
....|..|R-- .... ....|R-- .... ....|--- .... ....
....|..|G-1 2FE7 ....|G-4 3FFF ....|E-4 GF7A ....
....|..|--- .... ....|--- .... ....|--- .... ....
....|..|G-1 2FE7 ....|--- .... ....|--- .... ....
....|..|R-- .... ....|R-- .... ....|--- .... ....
 F-2|..|F-1 2AEF ....|A-4 3FFF ....|F-4 GF6F ....
....|..|--- .... ....|R-- .... ....|--- .... ....
....|..|G-1 2FE7 ....|G-4 3FF7 ....|--- .... ....
....|..|R-- .... ....|R-- .... ....|--- .... ....
 F-3|..|F-1 2AEF ....|G-4 3FF7 ....|--- .... ....
....|..|--- .... ....|R-- .... ....|--- .... ....
 F-2|..|F-1 2AEF ....|A-4 3FF7 ....|--- .... ....
....|..|R-- .... ....|--- .... ....|--- .... ....
 A-3|..|A-1 2AEF ....|G-4 3FFA ....|E-4 GF77 ....
....|..|--- .... ....|--- .... ....|--- .... ....
 F-2|..|F-1 2AEF ....|--- .... ....|--- .... ....
....|..|R-- .... ....|R-- .... ....|--- .... ....
 C-4|..|C-2 2AEF ....|A-4 3FF7 ....|F-4 GF6A ....
....|..|--- .... ....|R-- .... ....|--- .... ....
 F-2|..|F-1 2AEF ....|A-4 3FF7 ....|--- .... ....
....|..|R-- .... ....|--- .... ....|--- .... ....

[Pattern12]
 G-2|..|G-1 2AEF ....|--- .... ....|G-4 GF6F ....
....|..|--- .... ....|--- .... ....|--- .... ....
....|..|F-1 2FEA ....|--- .... ....|--- .... ....
....|..|--- .... ....|--- .... ....|--- .... ....
....|..|A-1 2FEA ....|G-4 3FFF ....|--- .... ....
....|..|--- .... ....|R-- .... ....|--- .... ....
....|..|F-1 2FEA ....|G-4 3FFF ....|--- .... ....
....|..|R-- .... ....|R-- .... ....|--- .... ....
....|..|F-1 2FE7 ....|G-4 3FFF ....|F-4 GF67 ....
....|..|--- .... ....|R-- .... ....|--- .... ....
....|..|F-1 2FEA ....|G-4 3FFF ....|--- .... ....
....|..|R-- .... ....|R-- .... ....|--- .... ....
....|..|F-1 2FE7 ....|G-4 3FFF ....|G-4 GF6A ....
....|..|--- .... ....|R-- .... ....|--- .... ....
....|..|F-1 2FE7 ....|G-4 3FFF ....|--- .... ....
....|..|R-- .... ....|R-- .... ....|--- .... ....
 D-2|..|D-1 2AEF ....|A-4 3FFF ....|A-4 GF4F ....
....|..|--- .... ....|R-- .... ....|--- .... ....
....|..|F-1 2FE7 ....|G-4 3FFA ....|--- .... ....
....|..|--- .... ....|R-- .... ....|--- .... ....
 D-3|..|D-1 2AEF ....|G-4 3FFF ....|--- .... ....
....|..|--- .... ....|R-- .... ....|--- .... ....
 D-2|..|D-1 2AEF ....|A-4 3FFF ....|--- .... ....
....|..|R-- .... ....|R-- .... ....|--- .... ....
 A-3|..|A-1 2AEF ....|G-4 3FFA ....|G-4 GF67 ....
....|..|--- .... ....|R-- .... ....|--- .... ....
 D-2|..|D-1 2AEF ....|G-4 3FFA ....|--- .... ....
....|..|R-- .... ....|R-- .... ....|--- .... ....
 D-4|..|D-2 2AEF ....|C-5 3FFF ....|A-4 GF4A ....
....|..|--- .... ....|R-- .... ....|--- .... ....
 D-2|..|D-1 2AEF ....|G-4 3FF7 ....|--- .... ....
....|..|R-- .... ....|R-- .... ....|--- .... ....
....|..|D-1 2FEA ....|G-4 3FF7 ....|F-4 GF6F ....
....|..|--- .... ....|R-- .... ....|--- .... ....
....|..|D-1 2FEA ....|G-4 3FF7 ....|--- .... ....
....|..|--- .... ....|R-- .... ....|--- .... ....
....|..|A-1 2FEA ....|C-5 3FFF ....|--- .... ....
....|..|--- .... ....|C-5 3FFF ....|--- .... ....
....|..|D-1 2FEA ....|C-5 3FFF ....|--- .... ....
....|..|R-- .... ....|R-- .... ....|--- .... ....
....|..|D-1 2FE7 ....|A-4 3FF7 ....|A-4 GF47 ....
....|..|--- .... ....|--- .... ....|--- .... ....
....|..|D-1 2FEA ....|R-- .... ....|--- .... ....
....|..|R-- .... ....|--- .... ....|--- .... ....
....|..|D-1 2FE7 ....|C-5 3FFF ....|F-4 GF6A ....
....|..|--- .... ....|R-- .... ....|--- .... ....
....|..|D-1 2FE7 ....|A-4 3FF7 ....|--- .... ....
....|..|--- .... ....|--- .... ....|--- .... ....
....|..|A-1 2FE7 ....|C-5 3FFA ....|--- .... ....
....|..|--- .... ....|C-5 3FFA ....|--- .... ....
....|..|D-1 2FE7 ....|C-5 3FFA ....|--- .... ....
....|..|--- .... ....|--- .... ....|--- .... ....
....|..|D-2 2FE7 ....|C-5 3FF7 ....|--- .... ....
....|..|--- .... ....|--- .... ....|--- .... ....
....|..|D-1 2FE7 ....|--- .... ....|--- .... ....
....|..|R-- .... ....|--- .... ....|--- .... ....
....|..|--- .... ....|C-5 3FFA ....|F-4 GF67 ....
....|..|--- .... ....|--- .... ....|--- .... ....
....|..|--- .... ....|--- .... ....|--- .... ....
....|..|--- .... ....|--- .... ....|--- .... ....
....|..|--- .... ....|C-5 3FF7 ....|--- .... ....
....|..|--- .... ....|C-5 3FF7 ....|--- .... ....
....|..|--- .... ....|C-5 3FF7 ....|--- .... ....
....|..|--- .... ....|R-- .... ....|F-4 GF.F ....
....|..|--- .... ....|G-4 3FFF ....|G-4 GF5F ....
....|..|--- .... ....|--- .... ....|--- .... ....
....|..|--- .... ....|--- .... ....|--- .... ....
....|..|--- .... ....|--- .... ....|--- .... ....
....|..|--- .... ....|C-5 3FF7 ....|--- .... ....
....|..|--- .... ....|--- .... ....|--- .... ....
....|..|--- .... ....|--- .... ....|--- .... ....
....|..|--- .... ....|--- .... ....|--- .... ....
....|..|--- .... ....|--- .... ....|--- .... ....
....|..|--- .... ....|--- .... ....|--- .... ....
....|..|--- .... ....|--- .... ....|--- .... ....
....|..|--- .... ....|R-- .... ....|F-4 GF.A ....
....|..|--- .... ....|G-4 3FFA ....|G-4 GF5A ....
....|..|--- .... ....|--- .... ....|--- .... ....
....|..|--- .... ....|R-- .... ....|--- .... ....
....|..|--- .... ....|--- .... ....|--- .... ....
....|..|--- .... ....|--- .... ....|G-4 GF6F ....
....|..|--- .... ....|--- .... ....|--- .... ....
....|..|--- .... ....|--- .... ....|--- .... ....
....|..|--- .... ....|--- .... ....|--- .... ....
 G-3|..|G-1 2AEF ....|--- .... ....|--- .... ....
....|..|--- .... ....|--- .... ....|--- .... ....
....|..|R-- .... ....|--- .... ....|--- .... ....
....|..|--- .... ....|R-- .... ....|F-4 GF.7 ....
 B-3|..|B-1 2AEF ....|G-4 3FF7 ....|G-4 GF57 ....
....|..|--- .... ....|--- .... ....|--- .... ....
....|..|R-- .... ....|R-- .... ....|--- .... ....
....|..|--- .... ....|--- .... ....|--- .... ....
 D-4|..|D-2 2AEF ....|--- .... ....|G-4 GF6A ....
....|..|--- .... ....|--- .... ....|--- .... ....
....|..|R-- .... ....|--- .... ....|--- .... ....
....|..|--- .... ....|--- .... ....|--- .... ....
....|..|G-1 2FEA ....|--- .... ....|E-4 GF7F ....
....|..|--- .... ....|--- .... ....|--- .... ....
....|..|R-- .... ....|--- .... ....|--- .... ....
....|..|--- .... ....|--- .... ....|--- .... ....
....|..|B-1 2FEA ....|--- .... ....|--- .... ....
....|..|--- .... ....|--- .... ....|--- .... ....
....|..|R-- .... ....|R-- .... ....|--- .... ....
....|..|--- .... ....|--- .... ....|--- .... ....
....|..|D-2 2FEA ....|--- .... ....|G-4 GF67 ....
....|..|--- .... ....|--- .... ....|--- .... ....
....|..|R-- .... ....|--- .... ....|--- .... ....
....|..|--- .... ....|--- .... ....|--- .... ....
....|..|G-1 2FE7 ....|--- .... ....|E-4 GF7A ....
....|..|--- .... ....|--- .... ....|--- .... ....
....|..|R-- .... ....|--- .... ....|--- .... ....
....|..|--- .... ....|--- .... ....|--- .... ....
....|..|B-1 2FE7 ....|--- .... ....|F-4 GF6F ....
....|..|--- .... ....|--- .... ....|--- .... ....
....|..|R-- .... ....|--- .... ....|--- .... ....
....|..|--- .... ....|--- .... ....|--- .... ....
 F-3|..|F-1 2AEF ....|--- .... ....|--- .... ....
....|..|--- .... ....|--- .... ....|--- .... ....
....|..|R-- .... ....|--- .... ....|--- .... ....
....|..|--- .... ....|--- .... ....|--- .... ....
 A-3|..|A-1 2AEF ....|--- .... ....|E-4 GF77 ....
....|..|--- .... ....|--- .... ....|--- .... ....
....|..|R-- .... ....|--- .... ....|--- .... ....
....|..|--- .... ....|--- .... ....|--- .... ....
 C-4|..|C-2 2AEF ....|--- .... ....|F-4 GF6A ....
....|..|--- .... ....|--- .... ....|--- .... ....
....|..|R-- .... ....|--- .... ....|--- .... ....
....|..|--- .... ....|--- .... ....|--- .... ....

[Pattern13]
....|..|F-1 2FEA ....|--- .... ....|G-4 GF6F ....
....|..|--- .... ....|--- .... ....|--- .... ....
....|..|R-- .... ....|--- .... ....|--- .... ....
....|..|--- .... ....|--- .... ....|--- .... ....
....|..|A-1 2FEA ....|--- .... ....|--- .... ....
....|..|--- .... ....|--- .... ....|--- .... ....
 D-3|..|D-1 2AEF ....|--- .... ....|--- .... ....
....|..|--- .... ....|--- .... ....|--- .... ....
....|..|C-2 2FEA ....|--- .... ....|F-4 GF67 ....
....|..|--- .... ....|--- .... ....|--- .... ....
....|..|R-- .... ....|--- .... ....|--- .... ....
....|..|--- .... ....|--- .... ....|--- .... ....
....|..|F-1 2FE7 ....|--- .... ....|G-4 GF6A ....
....|..|--- .... ....|--- .... ....|--- .... ....
....|..|R-- .... ....|--- .... ....|--- .... ....
....|..|--- .... ....|--- .... ....|--- .... ....
....|..|A-1 2FE7 ....|--- .... ....|A-4 GF4F ....
....|..|--- .... ....|--- .... ....|--- .... ....
....|..|D-1 2FEA ....|--- .... ....|--- .... ....
....|..|--- .... ....|--- .... ....|--- .... ....
....|..|C-2 2FE7 ....|--- .... ....|--- .... ....
....|..|--- .... ....|--- .... ....|--- .... ....
 D-3|..|D-1 2AEF ....|--- .... ....|--- .... ....
....|..|--- .... ....|--- .... ....|--- .... ....
....|..|R-- .... ....|--- .... ....|G-4 GF67 ....
....|..|--- .... ....|--- .... ....|--- .... ....
....|..|--- .... ....|--- .... ....|--- .... ....
....|..|--- .... ....|--- .... ....|--- .... ....
....|..|--- .... ....|--- .... ....|A-4 GF4A ....
....|..|--- .... ....|--- .... ....|--- .... ....
....|..|D-1 2FE7 ....|--- .... ....|--- .... ....
....|..|--- .... ....|--- .... ....|--- .... ....
....|..|R-- .... ....|--- .... ....|F-4 GF6F ....
....|..|--- .... ....|--- .... ....|--- .... ....
....|..|D-1 2FEA ....|--- .... ....|--- .... ....
....|..|--- .... ....|--- .... ....|--- .... ....
....|..|R-- .... ....|--- .... ....|--- .... ....
....|..|--- .... ....|--- .... ....|--- .... ....
....|..|--- .... ....|--- .... ....|--- .... ....
....|..|--- .... ....|--- .... ....|--- .... ....
....|..|--- .... ....|--- .... ....|A-4 GF47 ....
....|..|--- .... ....|--- .... ....|--- .... ....
....|..|--- .... ....|--- .... ....|--- .... ....
....|..|--- .... ....|--- .... ....|--- .... ....
....|..|--- .... ....|--- .... ....|F-4 GF6A ....
....|..|--- .... ....|--- .... ....|--- .... ....
....|..|D-1 2FE7 ....|--- .... ....|--- .... ....
....|..|--- .... ....|--- .... ....|--- .... ....
....|..|R-- .... ....|--- .... ....|--- .... ....
....|..|--- .... ....|--- .... ....|--- .... ....
....|..|--- .... ....|--- .... ....|--- .... ....
....|..|--- .... ....|--- .... ....|--- .... ....
....|..|--- .... ....|--- .... ....|--- .... ....
....|..|--- .... ....|--- .... ....|--- .... ....
....|..|--- .... ....|--- .... ....|--- .... ....
....|..|--- .... ....|--- .... ....|--- .... ....
....|..|--- .... ....|--- .... ....|F-4 GF67 ....
....|..|--- .... ....|--- .... ....|--- .... ....
....|..|--- .... ....|--- .... ....|--- .... ....
....|..|--- .... ....|--- .... ....|--- .... ....
....|..|--- .... ....|--- .... ....|--- .... ....
....|..|--- .... ....|--- .... ....|--- .... ....
....|..|--- .... ....|--- .... ....|--- .... ....
....|..|--- .... ....|--- .... ....|F-4 GF.F ....
....|..|--- .... ....|--- .... ....|G-4 GF5F ....
....|..|--- .... ....|--- .... ....|--- .... ....
....|..|--- .... ....|--- .... ....|--- .... ....
....|..|--- .... ....|--- .... ....|--- .... ....
....|..|--- .... ....|--- .... ....|--- .... ....
....|..|--- .... ....|--- .... ....|--- .... ....
....|..|--- .... ....|--- .... ....|--- .... ....
....|..|--- .... ....|--- .... ....|--- .... ....
....|..|--- .... ....|--- .... ....|--- .... ....
....|..|--- .... ....|--- .... ....|--- .... ....
....|..|--- .... ....|--- .... ....|--- .... ....
....|..|--- .... ....|--- .... ....|F-4 GF.A ....
....|..|--- .... ....|--- .... ....|G-4 GF5A ....
....|..|--- .... ....|--- .... ....|--- .... ....
....|..|--- .... ....|--- .... ....|--- .... ....
....|..|--- .... ....|--- .... ....|--- .... ....
....|..|--- .... ....|--- .... ....|G-4 GF6F ....
....|..|--- .... ....|--- .... ....|--- .... ....
....|..|--- .... ....|--- .... ....|--- .... ....
....|..|--- .... ....|--- .... ....|--- .... ....
 G-3|..|G-1 2AEF ....|--- .... ....|--- .... ....
....|..|--- .... ....|--- .... ....|--- .... ....
....|..|R-- .... ....|--- .... ....|--- .... ....
....|..|--- .... ....|--- .... ....|F-4 GF.7 ....
 B-3|..|B-1 2AEF ....|--- .... ....|G-4 GF57 ....
....|..|--- .... ....|--- .... ....|--- .... ....
....|..|R-- .... ....|--- .... ....|--- .... ....
....|..|--- .... ....|--- .... ....|--- .... ....
 D-4|..|D-2 2AEF ....|--- .... ....|G-4 GF6A ....
....|..|--- .... ....|--- .... ....|--- .... ....
....|..|R-- .... ....|--- .... ....|--- .... ....
....|..|--- .... ....|--- .... ....|--- .... ....
....|..|G-1 2FEA ....|--- .... ....|E-4 GF7F ....
....|..|--- .... ....|--- .... ....|--- .... ....
....|..|R-- .... ....|--- .... ....|--- .... ....
....|..|--- .... ....|--- .... ....|--- .... ....
....|..|B-1 2FEA ....|--- .... ....|--- .... ....
....|..|--- .... ....|--- .... ....|--- .... ....
....|..|R-- .... ....|--- .... ....|--- .... ....
....|..|--- .... ....|--- .... ....|--- .... ....
....|..|D-2 2FEA ....|--- .... ....|G-4 GF67 ....
....|..|--- .... ....|--- .... ....|--- .... ....
....|..|R-- .... ....|--- .... ....|--- .... ....
....|..|--- .... ....|--- .... ....|--- .... ....
....|..|G-1 2FE7 ....|--- .... ....|E-4 GF7A ....
....|..|--- .... ....|--- .... ....|--- .... ....
....|..|R-- .... ....|--- .... ....|--- .... ....
....|..|--- .... ....|--- .... ....|--- .... ....
....|..|B-1 2FE7 ....|--- .... ....|F-4 GF6F ....
....|..|--- .... ....|--- .... ....|--- .... ....
....|..|R-- .... ....|--- .... ....|--- .... ....
....|..|--- .... ....|--- .... ....|--- .... ....
 F-3|..|F-1 2AEF ....|--- .... ....|--- .... ....
....|..|--- .... ....|--- .... ....|--- .... ....
....|..|R-- .... ....|--- .... ....|--- .... ....
....|..|--- .... ....|--- .... ....|--- .... ....
 A-3|..|A-1 2AEF ....|--- .... ....|E-4 GF77 ....
....|..|--- .... ....|--- .... ....|--- .... ....
....|..|R-- .... ....|--- .... ....|--- .... ....
....|..|--- .... ....|--- .... ....|--- .... ....
 C-4|..|C-2 2AEF ....|--- .... ....|F-4 GF6A ....
....|..|--- .... ....|--- .... ....|--- .... ....
....|..|R-- .... ....|--- .... ....|--- .... ....
....|..|--- .... ....|--- .... ....|--- .... ....

[Pattern14]
....|..|F-1 2FEA ....|--- .... ....|G-4 GF6F ....
....|..|--- .... ....|--- .... ....|--- .... ....
....|..|R-- .... ....|--- .... ....|--- .... ....
....|..|--- .... ....|--- .... ....|--- .... ....
....|..|A-1 2FEA ....|--- .... ....|--- .... ....
....|..|--- .... ....|--- .... ....|--- .... ....
 D-3|..|D-1 2AEF ....|--- .... ....|--- .... ....
....|..|--- .... ....|--- .... ....|--- .... ....
....|..|C-2 2FEA ....|--- .... ....|F-4 GF67 ....
....|..|--- .... ....|--- .... ....|--- .... ....
....|..|R-- .... ....|--- .... ....|--- .... ....
....|..|--- .... ....|--- .... ....|--- .... ....
....|..|F-1 2FE7 ....|--- .... ....|G-4 GF6A ....
....|..|--- .... ....|--- .... ....|--- .... ....
....|..|R-- .... ....|--- .... ....|--- .... ....
....|..|--- .... ....|--- .... ....|--- .... ....
....|..|A-1 2FE7 ....|--- .... ....|A-4 GF4F ....
....|..|--- .... ....|--- .... ....|--- .... ....
....|..|D-1 2FEA ....|--- .... ....|--- .... ....
....|..|--- .... ....|--- .... ....|--- .... ....
....|..|C-2 2FE7 ....|--- .... ....|--- .... ....
....|..|--- .... ....|--- .... ....|--- .... ....
 D-3|..|D-1 2AEF ....|--- .... ....|--- .... ....
....|..|--- .... ....|--- .... ....|--- .... ....
....|..|R-- .... ....|--- .... ....|G-4 GF67 ....
....|..|--- .... ....|--- .... ....|--- .... ....
....|..|--- .... ....|--- .... ....|--- .... ....
....|..|--- .... ....|--- .... ....|--- .... ....
....|..|--- .... ....|--- .... ....|A-4 GF4A ....
....|..|--- .... ....|--- .... ....|--- .... ....
....|..|D-1 2FE7 ....|--- .... ....|--- .... ....
....|..|--- .... ....|--- .... ....|--- .... ....
....|..|R-- .... ....|--- .... ....|F-4 GF6F ....
....|..|--- .... ....|--- .... ....|--- .... ....
....|..|D-1 2FEA ....|--- .... ....|--- .... ....
....|..|--- .... ....|--- .... ....|--- .... ....
....|..|R-- .... ....|--- .... ....|--- .... ....
....|..|--- .... ....|--- .... ....|--- .... ....
....|..|--- .... ....|--- .... ....|--- .... ....
....|..|--- .... ....|--- .... ....|--- .... ....
....|..|--- .... ....|--- .... ....|A-4 GF47 ....
....|..|--- .... ....|--- .... ....|--- .... ....
....|..|--- .... ....|--- .... ....|--- .... ....
....|..|--- .... ....|--- .... ....|--- .... ....
....|..|--- .... ....|--- .... ....|F-4 GF6A ....
....|..|--- .... ....|--- .... ....|--- .... ....
....|..|D-1 2FE7 ....|--- .... ....|--- .... ....
....|..|--- .... ....|--- .... ....|--- .... ....
....|..|R-- .... ....|--- .... ....|--- .... ....
....|..|--- .... ....|--- .... ....|--- .... ....
....|..|--- .... ....|--- .... ....|--- .... ....
....|..|--- .... ....|--- .... ....|--- .... ....
....|..|--- .... ....|--- .... ....|--- .... ....
....|..|--- .... ....|--- .... ....|--- .... ....
....|..|--- .... ....|--- .... ....|--- .... ....
....|..|--- .... ....|--- .... ....|--- .... ....
....|..|--- .... ....|--- .... ....|F-4 GF67 ....
....|..|--- .... ....|--- .... ....|--- .... ....
....|..|--- .... ....|--- .... ....|--- .... ....
....|..|--- .... ....|--- .... ....|--- .... ....
....|..|--- .... ....|--- .... ....|--- .... ....
....|..|--- .... ....|--- .... ....|--- .... ....
....|..|--- .... ....|--- .... ....|--- .... ....
....|..|--- .... ....|--- .... ....|--- .... ....
....|..|--- .... ....|--- .... ....|G-4 GF9F ....
....|..|--- .... ....|--- .... ....|--- .... ....
....|..|--- .... ....|--- .... ....|--- .... ....
....|..|--- .... ....|--- .... ....|--- .... ....
....|..|--- .... ....|--- .... ....|--- .... ....
....|..|--- .... ....|--- .... ....|--- .... ....
....|..|--- .... ....|--- .... ....|--- .... ....
....|..|--- .... ....|--- .... ....|--- .... ....
....|..|--- .... ....|--- .... ....|--- .... ....
....|..|--- .... ....|--- .... ....|--- .... ....
....|..|--- .... ....|--- .... ....|--- .... ....
....|..|--- .... ....|--- .... ....|--- .... ....
....|..|--- .... ....|--- .... ....|G-4 GF9A ....
....|..|--- .... ....|--- .... ....|--- .... ....
....|..|--- .... ....|--- .... ....|--- .... ....
....|..|--- .... ....|--- .... ....|--- .... ....
....|..|--- .... ....|--- .... ....|G-4 GF6F ....
....|..|--- .... ....|--- .... ....|--- .... ....
....|..|--- .... ....|--- .... ....|--- .... ....
....|..|--- .... ....|--- .... ....|--- .... ....
 G-3|..|G-1 2AEF ....|--- .... ....|--- .... ....
....|..|--- .... ....|--- .... ....|--- .... ....
....|..|R-- .... ....|--- .... ....|--- .... ....
....|..|--- .... ....|--- .... ....|--- .... ....
 B-3|..|B-1 2AEF ....|--- .... ....|G-4 GF97 ....
....|..|--- .... ....|--- .... ....|--- .... ....
....|..|R-- .... ....|--- .... ....|--- .... ....
....|..|--- .... ....|--- .... ....|--- .... ....
 D-4|..|D-2 2AEF ....|--- .... ....|G-4 GF6A ....
....|..|--- .... ....|--- .... ....|--- .... ....
....|..|R-- .... ....|--- .... ....|--- .... ....
....|..|--- .... ....|--- .... ....|--- .... ....
....|..|G-1 2FEA ....|--- .... ....|E-4 GF7F ....
....|..|--- .... ....|--- .... ....|--- .... ....
....|..|R-- .... ....|--- .... ....|--- .... ....
....|..|--- .... ....|--- .... ....|--- .... ....
....|..|B-1 2FEA ....|--- .... ....|--- .... ....
....|..|--- .... ....|--- .... ....|--- .... ....
....|..|R-- .... ....|--- .... ....|--- .... ....
....|..|--- .... ....|--- .... ....|--- .... ....
....|..|D-2 2FEA ....|--- .... ....|G-4 GF67 ....
....|..|--- .... ....|--- .... ....|--- .... ....
....|..|R-- .... ....|--- .... ....|--- .... ....
....|..|--- .... ....|--- .... ....|--- .... ....
....|..|G-1 2FE7 ....|--- .... ....|E-4 GF7A ....
....|..|--- .... ....|--- .... ....|--- .... ....
....|..|R-- .... ....|--- .... ....|--- .... ....
....|..|--- .... ....|--- .... ....|--- .... ....
....|..|B-1 2FE7 ....|--- .... ....|F-4 GF6F ....
....|..|--- .... ....|--- .... ....|--- .... ....
....|..|R-- .... ....|--- .... ....|--- .... ....
....|..|--- .... ....|--- .... ....|--- .... ....
 F-3|..|F-1 2AEF ....|--- .... ....|--- .... ....
....|..|--- .... ....|--- .... ....|--- .... ....
....|..|R-- .... ....|--- .... ....|--- .... ....
....|..|--- .... ....|--- .... ....|--- .... ....
 A-3|..|A-1 2AEF ....|--- .... ....|E-4 GF77 ....
....|..|--- .... ....|--- .... ....|--- .... ....
....|..|R-- .... ....|--- .... ....|--- .... ....
....|..|--- .... ....|--- .... ....|--- .... ....
 C-4|..|C-2 2AEF ....|--- .... ....|F-4 GF6A ....
....|..|--- .... ....|--- .... ....|--- .... ....
....|..|R-- .... ....|--- .... ....|--- .... ....
....|..|--- .... ....|--- .... ....|--- .... ....

[Pattern15]
....|..|F-1 2FEA ....|--- .... ....|G-4 GF6F ....
....|..|--- .... ....|--- .... ....|--- .... ....
....|..|R-- .... ....|--- .... ....|--- .... ....
....|..|--- .... ....|--- .... ....|--- .... ....
....|..|A-1 2FEA ....|--- .... ....|--- .... ....
....|..|--- .... ....|--- .... ....|--- .... ....
....|..|R-- .... ....|--- .... ....|--- .... ....
....|..|--- .... ....|--- .... ....|--- .... ....
....|..|C-2 2FEA ....|--- .... ....|F-4 GF67 ....
....|..|--- .... ....|--- .... ....|--- .... ....
....|..|R-- .... ....|--- .... ....|--- .... ....
....|..|--- .... ....|--- .... ....|--- .... ....
....|..|F-1 2FE7 ....|--- .... ....|G-4 GF6A ....
....|..|--- .... ....|--- .... ....|--- .... ....
....|..|R-- .... ....|--- .... ....|--- .... ....
....|..|--- .... ....|--- .... ....|--- .... ....
....|..|A-1 2FE7 ....|--- .... ....|A-4 GF4F ....
....|..|--- .... ....|--- .... ....|--- .... ....
....|..|R-- .... ....|--- .... ....|--- .... ....
....|..|--- .... ....|--- .... ....|--- .... ....
....|..|C-2 2FE7 ....|--- .... ....|--- .... ....
....|..|--- .... ....|--- .... ....|--- .... ....
....|..|R-- .... ....|--- .... ....|--- .... ....
....|..|--- .... ....|--- .... ....|--- .... ....
....|..|--- .... ....|--- .... ....|G-4 GF67 ....
....|..|--- .... ....|--- .... ....|--- .... ....
....|..|--- .... ....|--- .... ....|--- .... ....
....|..|--- .... ....|--- .... ....|--- .... ....
....|..|--- .... ....|--- .... ....|A-4 GF4A ....
....|..|--- .... ....|--- .... ....|--- .... ....
....|..|--- .... ....|--- .... ....|--- .... ....
....|..|--- .... ....|--- .... ....|--- .... ....
....|..|--- .... ....|--- .... ....|A-4 GF8F ....
....|..|--- .... ....|--- .... ....|--- .... ....
....|..|--- .... ....|--- .... ....|--- .... ....
....|..|--- .... ....|--- .... ....|--- .... ....
....|..|--- .... ....|--- .... ....|--- .... ....
....|..|--- .... ....|--- .... ....|--- .... ....
....|..|--- .... ....|--- .... ....|--- .... ....
....|..|--- .... ....|--- .... ....|--- .... ....
....|..|--- .... ....|--- .... ....|A-4 GF47 ....
....|..|--- .... ....|--- .... ....|--- .... ....
....|..|--- .... ....|--- .... ....|--- .... ....
....|..|--- .... ....|--- .... ....|--- .... ....
....|..|--- .... ....|--- .... ....|A-4 GF8A ....
....|..|--- .... ....|--- .... ....|--- .... ....
....|..|--- .... ....|--- .... ....|--- .... ....
....|..|--- .... ....|--- .... ....|--- .... ....
....|..|--- .... ....|--- .... ....|G-4 GFAF ....
....|..|--- .... ....|--- .... ....|G-4 GF6F ....
....|..|--- .... ....|--- .... ....|--- .... ....
....|..|--- .... ....|--- .... ....|--- .... ....
....|..|--- .... ....|--- .... ....|--- .... ....
....|..|--- .... ....|--- .... ....|--- .... ....
....|..|--- .... ....|--- .... ....|--- .... ....
....|..|--- .... ....|--- .... ....|--- .... ....
....|..|--- .... ....|--- .... ....|A-4 GF87 ....
....|..|--- .... ....|--- .... ....|--- .... ....
....|..|--- .... ....|--- .... ....|--- .... ....
....|..|--- .... ....|--- .... ....|--- .... ....
....|..|--- .... ....|--- .... ....|G-4 GFAA ....
....|..|--- .... ....|--- .... ....|G-4 GF6A ....
....|..|--- .... ....|--- .... ....|--- .... ....
....|..|--- .... ....|--- .... ....|D-5 GF.F ....
....|..|--- .... ....|--- .... ....|G-4 GFBF ....
....|..|--- .... ....|--- .... ....|G-4 GF5F ....
....|..|--- .... ....|--- .... ....|--- .... ....
....|..|--- .... ....|--- .... ....|--- .... ....
....|..|--- .... ....|--- .... ....|--- .... ....
....|..|--- .... ....|--- .... ....|--- .... ....
....|..|--- .... ....|--- .... ....|--- .... ....
....|..|--- .... ....|--- .... ....|--- .... ....
....|..|--- .... ....|--- .... ....|G-4 GFA7 ....
....|..|--- .... ....|--- .... ....|G-4 GF67 ....
....|..|--- .... ....|--- .... ....|--- .... ....
....|..|--- .... ....|--- .... ....|D-5 GF.A ....
....|..|--- .... ....|--- .... ....|G-4 GFBA ....
....|..|--- .... ....|--- .... ....|G-4 GF5A ....
....|..|--- .... ....|--- .... ....|--- .... ....
....|..|--- .... ....|--- .... ....|--- .... ....
....|..|--- .... ....|--- .... ....|G-4 GF6F ....
....|..|--- .... ....|--- .... ....|--- .... ....
....|..|--- .... ....|--- .... ....|--- .... ....
....|..|--- .... ....|--- .... ....|--- .... ....
....|..|--- .... ....|--- .... ....|--- .... ....
....|..|--- .... ....|--- .... ....|--- .... ....
....|..|--- .... ....|--- .... ....|--- .... ....
....|..|--- .... ....|--- .... ....|D-5 GF.7 ....
....|..|--- .... ....|--- .... ....|G-4 GFB7 ....
....|..|--- .... ....|--- .... ....|G-4 GF57 ....
....|..|--- .... ....|--- .... ....|--- .... ....
....|..|--- .... ....|--- .... ....|--- .... ....
....|..|--- .... ....|--- .... ....|G-4 GF6A ....
....|..|--- .... ....|--- .... ....|--- .... ....
....|..|--- .... ....|--- .... ....|--- .... ....
....|..|--- .... ....|--- .... ....|--- .... ....
....|..|--- .... ....|--- .... ....|E-4 GF7F ....
....|..|--- .... ....|--- .... ....|--- .... ....
....|..|--- .... ....|--- .... ....|--- .... ....
....|..|--- .... ....|--- .... ....|--- .... ....
....|..|--- .... ....|--- .... ....|--- .... ....
....|..|--- .... ....|--- .... ....|--- .... ....
....|..|--- .... ....|--- .... ....|--- .... ....
....|..|--- .... ....|--- .... ....|--- .... ....
....|..|--- .... ....|--- .... ....|G-4 GF67 ....
....|..|--- .... ....|--- .... ....|--- .... ....
....|..|--- .... ....|--- .... ....|--- .... ....
....|..|--- .... ....|--- .... ....|--- .... ....
....|..|--- .... ....|--- .... ....|E-4 GF7A ....
....|..|--- .... ....|--- .... ....|--- .... ....
....|..|--- .... ....|--- .... ....|--- .... ....
....|..|--- .... ....|--- .... ....|--- .... ....
....|..|--- .... ....|--- .... ....|F-4 GF6F ....
....|..|--- .... ....|--- .... ....|--- .... ....
....|..|--- .... ....|--- .... ....|--- .... ....
....|..|--- .... ....|--- .... ....|--- .... ....
....|..|--- .... ....|--- .... ....|--- .... ....
....|..|--- .... ....|--- .... ....|--- .... ....
....|..|--- .... ....|--- .... ....|--- .... ....
....|..|--- .... ....|--- .... ....|--- .... ....
....|..|--- .... ....|--- .... ....|E-4 GF77 ....
....|..|--- .... ....|--- .... ....|--- .... ....
....|..|--- .... ....|--- .... ....|--- .... ....
....|..|--- .... ....|--- .... ....|--- .... ....
....|..|--- .... ....|--- .... ....|F-4 GF6A ....
....|..|--- .... ....|--- .... ....|--- .... ....
....|..|--- .... ....|--- .... ....|--- .... ....
....|..|--- .... ....|--- .... ....|--- .... ....

[Pattern16]
....|..|--- .... ....|--- .... ....|--- .... ....
....|..|--- .... ....|--- .... ....|--- .... ....
....|..|--- .... ....|--- .... ....|--- .... ....
....|..|--- .... ....|--- .... ....|--- .... ....
....|..|--- .... ....|--- .... ....|--- .... ....
....|..|--- .... ....|--- .... ....|--- .... ....
....|..|--- .... ....|--- .... ....|--- .... ....
....|..|--- .... ....|--- .... ....|--- .... ....
....|..|--- .... ....|--- .... ....|F-4 GF67 ....
....|..|--- .... ....|--- .... ....|--- .... ....
....|..|--- .... ....|--- .... ....|--- .... ....
....|..|--- .... ....|--- .... ....|--- .... ....
....|..|--- .... ....|--- .... ....|--- .... ....
....|..|--- .... ....|--- .... ....|--- .... ....
....|..|--- .... ....|--- .... ....|--- .... ....
....|..|--- .... ....|--- .... ....|--- .... ....
....|..|--- .... ....|--- .... ....|--- .... ....
....|..|--- .... ....|--- .... ....|--- .... ....
....|..|--- .... ....|--- .... ....|--- .... ....
....|..|--- .... ....|--- .... ....|--- .... ....
....|..|--- .... ....|--- .... ....|R-- .... ....
....|..|--- .... ....|--- .... ....|--- .... ....
