[Module]
VortexTrackerII=0
Version=3.5
Title=1d-2me-3me+-5p,4me-5p+-9me+,6m-7m+-10m+-3me+
Author=oisee ^ 4d 29.05.2010
NoteTable=4
ChipFreq=1750000
Speed=3
PlayOrder=L0,1,2,1,4,5,6,7,8,9,10,9,12,13,14,15,16,17,18,19,18,21,22,23,24,25,26,27,26,29,30,31,32,33,34,35,34,37,38,39,40,41,9,10,9,12,13,47,48,49,26,27,26,29,30,31,32,57,58,59,60,61

[Ornament1]
L0,0,4,4,7,7

[Ornament2]
L0,0,3,3,7,7,10,10

[Ornament3]
L0,0,5,5,8,8

[Ornament4]
L0,0,3,3,8,8

[Ornament5]
L0,0,7,7,12,12,15,15

[Ornament6]
L0,0,4,4,7,7,12,12

[Ornament7]
L0

[Ornament8]
L0

[Ornament9]
L0

[Ornament10]
L0

[Ornament11]
L0

[Ornament12]
L0

[Ornament13]
L0

[Ornament14]
L0

[Ornament15]
L0

[Sample1]
TnE +000_ +00_ F_
TnE +000_ +00_ F_
TnE +000_ +00_ F_
TnE +000_ +00_ D_
TnE +000_ +00_ B_
TnE +000_ +00_ B_ L

[Sample2]
TnE +000_ +00_ F_ L

[Sample3]
TnE +001_ +00_ F_
TnE +002_ +00_ F_
TnE +001_ +00_ E_
TnE +002_ +00_ E_
TnE +000_ +00_ E_ L
TnE -001_ +00_ E_
TnE -002_ +00_ E_
TnE -001_ +00_ E_
TnE +000_ +00_ E_
TnE +001_ +00_ E_
TnE +002_ +00_ E_
TnE +001_ +00_ E_

[Sample4]
TnE +002_ +00_ D_
TnE +002_ +00_ D_
TnE +002_ +00_ C_
TnE +002_ +00_ B_
TnE +002_ +00_ A_ L
TnE +002_ +00_ A_
TnE +002_ +00_ A_
TnE +002_ +00_ A_
TnE +002_ +00_ A_
TnE +002_ +00_ A_
TnE +002_ +00_ A_
TnE +002_ +00_ A_

[Sample5]
TnE +000_ +00_ F_
TnE +000_ +00_ F_
tne +000_ +00_ 0_ L

[Sample6]
TnE -001_ +00_ F_ L

[Sample7]
TnE +006_ +00_ F_ L

[Sample8]
tNe +000_ +00_ F_
tNe +000_ +00_ B_
tNe +000_ +00_ 7_
tNe +000_ +00_ 6- L

[Sample9]
TnE +080_ +00_ F_
TnE +100_ +00_ E_
TnE +180_ +00_ E_
TnE +200_ +00_ E_
TnE +240_ +00_ D_
TnE +280_ +00_ D_
TnE +2C0_ +00_ D_
TnE +300_ +00_ C_
TnE +300_ +00_ C_
TnE +340_ +00_ C_
TnE +340_ +00_ C_
TnE +380_ +00_ B_
TnE +380_ +00_ B_
TnE +400_ +00_ B_
TnE +400_ +00_ B_
TnE +480_ +00_ A_
TnE +500_ +00_ 9_
TnE +580_ +00_ 7_
TnE +600_ +00_ 4_
TnE +680_ +00_ 1_
TnE +000_ +00_ 0_ L

[Sample10]
Tne +1C0_ +00_ F_
Tne +280_ +00_ E_
Tne +380_ +00_ C_
Tne +440_ +00_ A_
Tne +480_ +00_ 8_
TnE +000_ +00_ 0_ L

[Sample11]
TNe +200_ -0A_ F_
tNe +000_ +0F_ A_
TNe +200_ -07_ E_
tNe +000_ +0E_ B- L

[Sample12]
TNE +0A0_ +05_ F_
TNE +140_ +02_ D_
TNE +140_ +02_ B_
TNE +100_ +00_ A_ L
TNE +140_ +00_ A_
TNE +200_ +00_ A-

[Sample13]
Tne +200_ +00_ F_
Tne +2C0_ +00_ F_
Tne +380_ +00_ E_
Tne +500_ +00_ C_
Tne +520_ +00_ 9_
tne +000_ +00_ 0_ L

[Sample14]
TNE -100_ +00_ F_
TNE -100_ +00_ D_
TNE -100_ +00_ A_
TNE -100_ +00_ 5_
tne +000_ +00_ 0_ L

[Sample15]
TNE -100_ +00_ 5_
TNE -100_ +00_ 8_
TNE -100_ +00_ B_
TNE -100_ +00_ F_
TNe -100_ +00_ 9- L

[Sample16]
TnE +000_ +00_ C_
TnE +000_ +00_ E_
TnE +000_ +00_ F_
TnE +000_ +00_ F_
TnE +000_ +00_ E_
TnE +000_ +00_ D_
TnE +000_ +00_ C_
TnE +000_ +00_ C_ L
TnE +001_ +00_ C_
TnE +002_ +00_ C_
TnE +003_ +00_ C_
TnE +001_ +00_ C_
TnE +000_ +00_ C_
TnE -001_ +00_ C_
TnE -002_ +00_ C_
TnE -003_ +00_ C_
TnE -001_ +00_ C_
TnE +000_ +00_ C_
TnE +000_ +00_ C_

[Sample17]
Tne +1C0_ +00_ F_
Tne +280_ +00_ D_
Tne +380_ +00_ 7_
TNE +000_ +00_ 0_ L

[Sample18]
TnE -00C_ +00_ 0_ L

[Sample19]
TNe +000_ +00_ F_
TNe +000_ +00_ C_
TNe +000_ +00_ 6_
TNe +000_ +01_ A- L

[Sample20]
TNE +140_ +00_ F_
tNE +000_ +00_ B- L

[Sample21]
tNE +000_ +00_ D_
tNE +000_ +00_ 8_
tNE +000_ +00_ 1_
TNE +000_ +00_ 0_ L

[Sample22]
TnE +000_ +00_ D_ L
TnE +000_ +00_ D_
tne +000_ +00_ 9_
tne +000_ +00_ 9_
TnE +000_ +00_ D_
TnE +000_ +00_ D_
tne +000_ +00_ 9_
tne +000_ +00_ 9_
TnE +000_ +00_ D_
TnE +000_ +00_ D_
TnE +000_ +00_ D_
TnE +000_ +00_ D_
TnE +000_ +00_ D_
TnE +000_ +00_ D_
tne +000_ +00_ 9_
tne +000_ +00_ 9_

[Sample23]
TnE +000_ +00_ F_ L
TnE +010_ +01_ F_
TnE +010_ +01_ F_
TnE +010_ +01_ F_
TnE +010_ +01_ F_
TnE +000_ +00_ F_
TnE +000_ +00_ F_
TnE -010_ -01_ F_
TnE -010_ -01_ F_
TnE -010_ -01_ F_
TnE -010_ -01_ F_
TnE +000_ +00_ F_

[Sample24]
TNe +000_ -01_ C_
TNe +000_ -01_ D_
TNe +000_ -01_ E_
TNe +000_ -01_ F_
TNe +000_ -01_ F_
TNe +000_ -01_ F_
TNe +000_ -01_ F_
TNe +000_ -01_ F_
TNe +000_ -01_ E_
TNe +000_ -01_ E_
TNe +000_ -01_ E_
TNe +000_ -01_ F_
TNe +000_ -01_ F_ L

[Sample25]
TNE +000_ +00_ F_
TNE +000_ +00_ F_ L
TNE +000_ +00_ F_
TNE +000_ +00_ F_
TNE +000_ +00_ F-

[Sample26]
tne +000_ +00_ 0_ L

[Sample27]
TnE +100_ +05_ F_
TnE +200_ +02_ A_
TnE +300_ +02_ 7_
TNE +400_ +00_ 3- L

[Sample28]
tne +000_ +00_ 0_ L

[Sample29]
tnE +000_ +00_ 0_ L

[Sample30]
TNE +000_ +00_ C+ L

[Sample31]
TNe +1C0_ +00_ F_
Tne +280_ +00_ E_
Tne +380_ +00_ C_
Tne +440_ +00_ A_
Tne +480_ +00_ 8_
TnE +000_ +00_ 0_ L

[Pattern0]
....|..|B-8 JF.F ....|--- .... ....|--- .... ....
....|..|--- .... ....|--- .... ....|--- .... ....
....|..|R-- .... ....|--- .... ....|--- .... ....
....|..|--- .... ....|--- .... ....|--- .... ....
....|..|--- .... ....|--- .... ....|--- .... ....
....|..|--- .... ....|--- .... ....|--- .... ....
....|..|--- .... ....|--- .... ....|--- .... ....
....|..|--- .... ....|--- .... ....|--- .... ....
....|..|B-8 JF.F ....|--- .... ....|--- .... ....
....|..|--- .... ....|--- .... ....|--- .... ....
....|..|R-- .... ....|--- .... ....|--- .... ....
....|..|--- .... ....|--- .... ....|--- .... ....
....|..|B-8 JF.A ....|--- .... ....|--- .... ....
....|..|--- .... ....|--- .... ....|--- .... ....
....|..|R-- .... ....|--- .... ....|--- .... ....
....|..|--- .... ....|--- .... ....|--- .... ....
....|..|B-8 JF.F ....|--- .... ....|--- .... ....
....|..|--- .... ....|--- .... ....|--- .... ....
....|..|R-- .... ....|--- .... ....|--- .... ....
....|..|--- .... ....|--- .... ....|--- .... ....
....|..|B-8 JF.A ....|--- .... ....|--- .... ....
....|..|--- .... ....|--- .... ....|--- .... ....
....|..|R-- .... ....|--- .... ....|--- .... ....
....|..|--- .... ....|--- .... ....|--- .... ....
....|..|B-8 JF.F ....|--- .... ....|--- .... ....
....|..|--- .... ....|--- .... ....|--- .... ....
....|..|R-- .... ....|--- .... ....|--- .... ....
....|..|--- .... ....|--- .... ....|--- .... ....
....|..|B-8 JF.A ....|--- .... ....|--- .... ....
....|..|--- .... ....|--- .... ....|--- .... ....
....|..|R-- .... ....|--- .... ....|--- .... ....
....|..|--- .... ....|--- .... ....|--- .... ....
 A#3|..|C-4 AF.F ....|A#3 2F1F ....|A#4 2C.F ....
....|..|A#3 2F1F ....|--- .... ....|R-- .... ....
 A#3|..|R-- .... ....|A#3 2C.F ....|--- .... ....
....|..|--- .... ....|R-- .... ....|--- .... ....
 A#3|..|C-4 LF.F ....|--- .... ....|A#4 2C.F ....
....|..|R-- .... ....|--- .... ....|R-- .... ....
....|..|R-- .... ....|--- .... ....|--- .... ....
....|..|--- .... ....|--- .... ....|--- .... ....
 A#3|..|C-4 BF.F ....|A#4 2C.F ....|A#4 2C.F ....
....|..|--- .... ....|R-- .... ....|--- .... ....
....|..|R-- .... ....|--- .... ....|--- .... ....
....|..|--- .... ....|--- .... ....|--- .... ....
 A#3|..|C-4 LF.F ....|A#3 2C.F ....|R-- .... ....
....|..|A#3 2F1A ....|R-- .... ....|R-- .... ....
 A#3|..|A#4 2C.F ....|A#3 2F.A ....|A#4 2C.F ....
....|..|R-- .... ....|R-- .... ....|R-- .... ....
....|..|B-8 JF.7 ....|--- .... ....|A#4 2F.F ....
....|..|R-- .... ....|--- .... ....|R-- .... ....
 A#3|..|R-- .... ....|A#3 2C.F ....|--- .... ....
....|..|--- .... ....|R-- .... ....|--- .... ....
 A#3|..|C-4 LF.F ....|A#3 2F.A ....|A#4 2C.F ....
....|..|R-- .... ....|R-- .... ....|R-- .... ....
....|..|R-- .... ....|--- .... ....|--- .... ....
....|..|--- .... ....|--- .... ....|--- .... ....
 A#3|..|C-4 BF.F ....|A#4 2C.F ....|A#4 2C.F ....
....|..|A#3 2F17 ....|R-- .... ....|R-- .... ....
....|..|R-- .... ....|A#3 2F.7 ....|A#4 2F.A ....
....|..|R-- .... ....|R-- .... ....|R-- .... ....
 A#3|..|C-4 LF.F ....|A#3 2C.F ....|A#4 2F.7 ....
....|..|R-- .... ....|R-- .... ....|R-- .... ....
 A-3|..|A-4 2C.F ....|A#3 2F.A ....|A-4 2C.F ....
....|..|--- .... ....|R-- .... ....|--- .... ....

[Pattern1]
....|..|G-3 2F2F ....|G-3 2F2F ....|A#4 2F.7 ....
....|..|R-- .... ....|R-- .... ....|R-- .... ....
 G-4|..|R-- .... ....|G-3 2C.F ....|--- .... ....
....|..|--- .... ....|R-- .... ....|--- .... ....
 A-3|..|C-4 LF.F ....|A#3 2F.7 ....|A-4 2C.F ....
....|..|R-- .... ....|R-- .... ....|R-- .... ....
....|..|A#4 2F.7 ....|--- .... ....|A#4 2F.7 ....
....|..|R-- .... ....|--- .... ....|R-- .... ....
 A-3|..|C-4 BF.F ....|G-3 2F.F ....|A-4 2C.F ....
....|..|--- .... ....|R-- .... ....|--- .... ....
....|..|R-- .... ....|A#3 2F.7 ....|A-4 2F.A ....
....|..|--- .... ....|R-- .... ....|--- .... ....
 G-4|..|C-4 LF.F ....|G-3 2C.F ....|A#4 2F.7 ....
....|..|R-- .... ....|R-- .... ....|R-- .... ....
 A-3|..|A-4 2C.F ....|G-3 2F.A ....|A-4 2C.F ....
....|..|R-- .... ....|R-- .... ....|R-- .... ....
....|..|C-4 BF.7 ....|A#3 2F.7 ....|A#4 2F.7 ....
....|..|R-- .... ....|R-- .... ....|R-- .... ....
 G-4|..|R-- .... ....|G-3 2C.F ....|--- .... ....
....|..|--- .... ....|R-- .... ....|--- .... ....
 A-3|..|C-4 LF.F ....|A#3 2F.7 ....|A-4 2C.F ....
....|..|R-- .... ....|R-- .... ....|R-- .... ....
....|..|A-4 2F.7 ....|--- .... ....|A-4 2F.7 ....
....|..|--- .... ....|--- .... ....|--- .... ....
 A-3|..|C-4 BF.F ....|G-3 2F.F ....|A-4 2C.F ....
....|..|--- .... ....|R-- .... ....|--- .... ....
....|..|R-- .... ....|G-3 2F.7 ....|A-4 2F.A ....
....|..|R-- .... ....|R-- .... ....|R-- .... ....
 G-4|..|C-4 LF.F ....|G-3 2C.F ....|A-4 2F.7 ....
....|..|R-- .... ....|R-- .... ....|R-- .... ....
 G-4|..|G-4 2C.F ....|G-3 2F.A ....|G-4 2C.F ....
....|..|--- .... ....|R-- .... ....|--- .... ....
....|..|A-3 2F3F ....|A-3 2F3F ....|A-4 2F.7 ....
....|..|R-- .... ....|R-- .... ....|R-- .... ....
 D-4|..|R-- .... ....|D-4 2C.F ....|--- .... ....
....|..|--- .... ....|R-- .... ....|--- .... ....
 G-4|..|C-4 LF.F ....|G-3 2F.7 ....|G-4 2C.F ....
....|..|R-- .... ....|R-- .... ....|R-- .... ....
....|..|A-4 2F.7 ....|--- .... ....|A-4 2F.7 ....
....|..|R-- .... ....|--- .... ....|R-- .... ....
 G-4|..|C-4 BF.F ....|D-4 2F.F ....|G-4 2C.F ....
....|..|--- .... ....|R-- .... ....|--- .... ....
....|..|R-- .... ....|G-3 2F.7 ....|G-4 2F.A ....
....|..|--- .... ....|R-- .... ....|--- .... ....
 D-4|..|C-4 LF.F ....|D-4 2C.F ....|A-4 2F.7 ....
....|..|R-- .... ....|R-- .... ....|R-- .... ....
 G-4|..|G-4 2C.F ....|D-4 2F.A ....|G-4 2C.F ....
....|..|--- .... ....|R-- .... ....|--- .... ....
....|..|C-4 BF.7 ....|G-3 2F.7 ....|A#4 2F.F ....
....|..|R-- .... ....|R-- .... ....|R-- .... ....
 D-4|..|R-- .... ....|D-4 2C.F ....|--- .... ....
....|..|--- .... ....|R-- .... ....|--- .... ....
 G-4|..|C-4 LF.F ....|G-3 2F.7 ....|G-4 2C.F ....
....|..|R-- .... ....|R-- .... ....|R-- .... ....
....|..|G-4 2F.7 ....|--- .... ....|G-4 2F.7 ....
....|..|--- .... ....|--- .... ....|--- .... ....
 G-4|..|C-4 BF.F ....|D-4 2F.F ....|G-4 2C.F ....
....|..|R-- .... ....|R-- .... ....|R-- .... ....
....|..|R-- .... ....|D-4 2F.7 ....|G-4 2F.A ....
....|..|--- .... ....|R-- .... ....|--- .... ....
 D-4|..|C-4 LF.F ....|D-4 2C.F ....|D-4 2C.F ....
....|..|R-- .... ....|R-- .... ....|R-- .... ....
 D#4|..|D#4 2C.F ....|D-4 2F.A ....|D#4 2C.F ....
....|..|R-- .... ....|R-- .... ....|R-- .... ....

[Pattern2]
....|..|G-3 2F4F ....|G-3 2F4F ....|G-4 2F.7 ....
....|..|R-- .... ....|R-- .... ....|R-- .... ....
 D#4|..|R-- .... ....|D#3 2C.F ....|--- .... ....
....|..|--- .... ....|R-- .... ....|--- .... ....
 D#4|..|C-4 LF.F ....|D-4 2F.7 ....|D#4 2C.F ....
....|..|R-- .... ....|R-- .... ....|R-- .... ....
....|..|G-4 2F.7 ....|--- .... ....|G-4 2F.7 ....
....|..|--- .... ....|--- .... ....|--- .... ....
 D#4|..|C-4 BF.F ....|D#4 2C.F ....|D#4 2C.F ....
....|..|--- .... ....|R-- .... ....|--- .... ....
....|..|R-- .... ....|D-4 2F.7 ....|D#4 2F.A ....
....|..|R-- .... ....|R-- .... ....|R-- .... ....
 D#4|..|C-4 LF.F ....|D#3 2C.F ....|G-4 2F.7 ....
....|..|R-- .... ....|R-- .... ....|R-- .... ....
 D#4|..|D#4 2C.F ....|D#3 2F.A ....|D#4 2C.F ....
....|..|R-- .... ....|R-- .... ....|R-- .... ....
....|..|C-4 BF.7 ....|D-4 2F.7 ....|G-4 2F.7 ....
....|..|R-- .... ....|R-- .... ....|R-- .... ....
 D#4|..|R-- .... ....|D#3 2C.F ....|--- .... ....
....|..|--- .... ....|R-- .... ....|--- .... ....
 D#4|..|C-4 LF.F ....|D-4 2F.7 ....|D#4 2C.F ....
....|..|R-- .... ....|R-- .... ....|R-- .... ....
....|..|D#4 2F.7 ....|--- .... ....|D#4 2F.7 ....
....|..|R-- .... ....|--- .... ....|R-- .... ....
 D#4|..|C-4 BF.F ....|D#4 2C.F ....|D#4 2C.F ....
....|..|R-- .... ....|R-- .... ....|R-- .... ....
....|..|R-- .... ....|D#3 2F.7 ....|D#4 2F.A ....
....|..|R-- .... ....|R-- .... ....|R-- .... ....
 D#4|..|C-4 LF.F ....|D#3 2C.F ....|D#4 2F.7 ....
....|..|R-- .... ....|R-- .... ....|R-- .... ....
....|..|R-- .... ....|D#3 2F.A ....|R-- .... ....
....|..|--- .... ....|R-- .... ....|--- .... ....
 A#3|..|A#4 2C.F ....|A#3 2F1F ....|A#4 2C.F ....
....|..|A#3 2F1F ....|R-- .... ....|R-- .... ....
 A#3|..|R-- .... ....|A#3 2C.F ....|--- .... ....
....|..|--- .... ....|R-- .... ....|--- .... ....
 A#3|..|C-4 LF.F ....|D#3 2F.7 ....|A#4 2C.F ....
....|..|R-- .... ....|R-- .... ....|R-- .... ....
....|..|D#4 2F.7 ....|--- .... ....|D#4 2F.7 ....
....|..|R-- .... ....|--- .... ....|R-- .... ....
 A#3|..|C-4 BF.F ....|A#4 2C.F ....|A#4 2C.F ....
....|..|--- .... ....|R-- .... ....|--- .... ....
....|..|R-- .... ....|D#3 2F.7 ....|R-- .... ....
....|..|--- .... ....|R-- .... ....|--- .... ....
 A#3|..|C-4 LF.F ....|A#3 2C.F ....|D#4 2F.7 ....
....|..|R-- .... ....|R-- .... ....|R-- .... ....
 A#3|..|A#4 2C.F ....|A#3 2F.A ....|A#4 2C.F ....
....|..|R-- .... ....|R-- .... ....|R-- .... ....
....|..|C-4 BF.7 ....|D#3 2F.7 ....|A#4 2F.F ....
....|..|R-- .... ....|R-- .... ....|R-- .... ....
 A#3|..|R-- .... ....|A#3 2C.F ....|--- .... ....
....|..|--- .... ....|R-- .... ....|--- .... ....
 A#3|..|C-4 LF.F ....|D#3 2F.7 ....|A#4 2C.F ....
....|..|R-- .... ....|R-- .... ....|R-- .... ....
....|..|R-- .... ....|--- .... ....|R-- .... ....
....|..|--- .... ....|--- .... ....|--- .... ....
 A#3|..|C-4 BF.F ....|A#4 2C.F ....|A#4 2C.F ....
....|..|A#3 2F17 ....|R-- .... ....|R-- .... ....
....|..|R-- .... ....|A#3 2F.7 ....|A#4 2F.A ....
....|..|R-- .... ....|R-- .... ....|R-- .... ....
 A#3|..|C-4 LF.F ....|A#3 2C.F ....|A#4 2F.7 ....
....|..|R-- .... ....|R-- .... ....|R-- .... ....
 A-3|..|A-4 2C.F ....|A#3 2F.A ....|A-4 2C.F ....
....|..|--- .... ....|R-- .... ....|--- .... ....

[Pattern4]
....|..|G-3 2F4F ....|G-3 2F4F ....|G-4 2F.7 ....
....|..|R-- .... ....|R-- .... ....|R-- .... ....
 D#4|..|R-- .... ....|D#3 2C.F ....|--- .... ....
....|..|--- .... ....|R-- .... ....|--- .... ....
 D#4|..|C-4 LF.F ....|D-4 2F.7 ....|D#4 2C.F ....
....|..|R-- .... ....|R-- .... ....|R-- .... ....
....|..|G-4 2F.7 ....|--- .... ....|G-4 2F.7 ....
....|..|--- .... ....|--- .... ....|--- .... ....
 D#4|..|C-4 BF.F ....|D#4 2C.F ....|D#4 2C.F ....
....|..|--- .... ....|R-- .... ....|--- .... ....
....|..|R-- .... ....|D-4 2F.7 ....|D#4 2F.A ....
....|..|R-- .... ....|R-- .... ....|R-- .... ....
 D#4|..|C-4 LF.F ....|D#3 2C.F ....|G-4 2F.7 ....
....|..|R-- .... ....|R-- .... ....|R-- .... ....
 D#4|..|D#4 2C.F ....|D#3 2F.A ....|D#4 2C.F ....
....|..|R-- .... ....|R-- .... ....|R-- .... ....
....|..|C-4 BF.7 ....|D-4 2F.7 ....|G-4 2F.7 ....
....|..|R-- .... ....|R-- .... ....|R-- .... ....
 D#4|..|R-- .... ....|D#3 2C.F ....|--- .... ....
....|..|--- .... ....|R-- .... ....|--- .... ....
 D#4|..|C-4 LF.F ....|D-4 2F.7 ....|D#4 2C.F ....
....|..|R-- .... ....|R-- .... ....|R-- .... ....
....|..|D#4 2F.7 ....|--- .... ....|D#4 2F.7 ....
....|..|R-- .... ....|--- .... ....|R-- .... ....
 D#4|..|C-4 BF.F ....|D#4 2C.F ....|D#4 2C.F ....
....|..|R-- .... ....|R-- .... ....|R-- .... ....
....|..|R-- .... ....|D#3 2F.7 ....|D#4 2F.A ....
....|..|R-- .... ....|R-- .... ....|R-- .... ....
 D#4|..|C-4 LF.F ....|D#3 2C.F ....|D#4 2F.7 ....
....|..|R-- .... ....|R-- .... ....|R-- .... ....
....|..|R-- .... ....|D#3 2F.A ....|R-- .... ....
....|..|--- .... ....|R-- .... ....|--- .... ....
....|..|C-4 AF.F ....|A#3 2F1F ....|A#5 2F.F ....
....|..|A#3 2F1F ....|R-- .... ....|R-- .... ....
 A#3|..|R-- .... ....|A#3 2C.F ....|--- .... ....
....|..|--- .... ....|R-- .... ....|--- .... ....
....|..|C-4 LF.F ....|D#3 2F.7 ....|A#4 2F.F ....
....|..|R-- .... ....|R-- .... ....|R-- .... ....
....|..|D#4 2F.7 ....|--- .... ....|D#4 2F.7 ....
....|..|R-- .... ....|--- .... ....|R-- .... ....
 A#3|..|C-4 BF.F ....|A#4 2C.F ....|A#4 2C.F ....
....|..|--- .... ....|R-- .... ....|--- .... ....
....|..|R-- .... ....|D#3 2F.7 ....|R-- .... ....
....|..|--- .... ....|R-- .... ....|--- .... ....
 A#3|..|C-4 LF.F ....|A#3 2C.F ....|A#4 2F.F ....
....|..|R-- .... ....|R-- .... ....|R-- .... ....
 A#3|..|A#4 2C.F ....|A#3 2F.A ....|A#4 2C.F ....
....|..|R-- .... ....|R-- .... ....|R-- .... ....
....|..|C-4 BF.7 ....|D#3 2F.7 ....|A#4 2F.F ....
....|..|R-- .... ....|R-- .... ....|R-- .... ....
 A#3|..|R-- .... ....|A#3 2C.F ....|R-- .... ....
....|..|--- .... ....|R-- .... ....|--- .... ....
....|..|C-4 LF.F ....|D#3 2F.7 ....|A#4 2F.F ....
....|..|R-- .... ....|R-- .... ....|R-- .... ....
....|..|R-- .... ....|--- .... ....|C-5 2F.F ....
....|..|--- .... ....|--- .... ....|--- .... ....
 A#3|..|C-4 BF.F ....|A#4 2C.F ....|A#4 2C.F ....
....|..|A#3 2F17 ....|R-- .... ....|R-- .... ....
....|..|R-- .... ....|A#3 2F.7 ....|A#4 2F.A ....
....|..|R-- .... ....|R-- .... ....|R-- .... ....
 A#3|..|C-4 LF.F ....|A#3 2C.F ....|D-5 2F.F ....
....|..|R-- .... ....|R-- .... ....|R-- .... ....
 A-3|..|A-4 2C.F ....|A#3 2F.A ....|A-4 2C.F ....
....|..|--- .... ....|R-- .... ....|R-- .... ....

[Pattern5]
....|..|G-3 2F2F ....|G-3 2F2F ....|A-5 2F.F ....
....|..|R-- .... ....|R-- .... ....|R-- .... ....
 G-4|..|R-- .... ....|G-3 2C.F ....|C-5 2F.A ....
....|..|--- .... ....|R-- .... ....|--- .... ....
 A-3|..|C-4 LF.F ....|A#3 2F.7 ....|A-4 2C.F ....
....|..|R-- .... ....|R-- .... ....|R-- .... ....
....|..|A#4 2F.7 ....|--- .... ....|A#4 2F.7 ....
....|..|R-- .... ....|--- .... ....|R-- .... ....
 A-3|..|C-4 BF.F ....|G-3 2F.F ....|A-4 2C.F ....
....|..|--- .... ....|R-- .... ....|--- .... ....
....|..|R-- .... ....|A#3 2F.7 ....|R-- .... ....
....|..|--- .... ....|R-- .... ....|R-- .... ....
 G-4|..|C-4 LF.F ....|G-3 2C.F ....|A#4 2F.7 ....
....|..|R-- .... ....|R-- .... ....|R-- .... ....
 A-3|..|A-4 2C.F ....|G-3 2F.A ....|A-4 2C.F ....
....|..|R-- .... ....|R-- .... ....|R-- .... ....
....|..|C-4 BF.7 ....|A#3 2F.7 ....|A#4 2F.7 ....
....|..|R-- .... ....|R-- .... ....|R-- .... ....
 G-4|..|R-- .... ....|G-3 2C.F ....|--- .... ....
....|..|--- .... ....|R-- .... ....|--- .... ....
 A-3|..|C-4 LF.F ....|A#3 2F.7 ....|A-4 2C.F ....
....|..|R-- .... ....|R-- .... ....|R-- .... ....
....|..|A-4 2F.7 ....|--- .... ....|A-4 2F.7 ....
....|..|--- .... ....|--- .... ....|R-- .... ....
 A-3|..|C-4 BF.F ....|G-3 2F.F ....|A-4 2C.F ....
....|..|--- .... ....|R-- .... ....|--- .... ....
....|..|R-- .... ....|G-3 2F.7 ....|A-4 2F.A ....
....|..|R-- .... ....|R-- .... ....|R-- .... ....
 G-4|..|C-4 LF.F ....|G-3 2C.F ....|A-4 2F.7 ....
....|..|R-- .... ....|R-- .... ....|R-- .... ....
 G-4|..|G-4 2C.F ....|G-3 2F.A ....|G-4 2C.F ....
....|..|--- .... ....|R-- .... ....|--- .... ....
....|..|A-3 2F3F ....|A-3 2F3F ....|G-5 2F.F ....
....|..|R-- .... ....|R-- .... ....|R-- .... ....
 D-4|..|R-- .... ....|D-4 2C.F ....|--- .... ....
....|..|--- .... ....|R-- .... ....|--- .... ....
....|..|C-4 LF.F ....|G-3 2F.7 ....|A-4 2F.F ....
....|..|R-- .... ....|R-- .... ....|R-- .... ....
....|..|A-4 2F.7 ....|--- .... ....|A-4 2F.7 ....
....|..|R-- .... ....|--- .... ....|R-- .... ....
 G-4|..|C-4 BF.F ....|D-4 2F.F ....|G-4 2C.F ....
....|..|--- .... ....|R-- .... ....|--- .... ....
....|..|R-- .... ....|G-3 2F.7 ....|G-4 2F.A ....
....|..|--- .... ....|R-- .... ....|--- .... ....
 D-4|..|C-4 LF.F ....|D-4 2C.F ....|A-4 2F.F ....
....|..|R-- .... ....|R-- .... ....|R-- .... ....
 G-4|..|G-4 2C.F ....|D-4 2F.A ....|G-4 2C.F ....
....|..|--- .... ....|R-- .... ....|--- .... ....
....|..|C-4 BF.7 ....|G-3 2F.7 ....|A-4 2F.F ....
....|..|R-- .... ....|R-- .... ....|R-- .... ....
 D-4|..|R-- .... ....|D-4 2C.F ....|R-- .... ....
....|..|--- .... ....|R-- .... ....|--- .... ....
....|..|C-4 LF.F ....|G-3 2F.7 ....|A-4 2F.F ....
....|..|R-- .... ....|R-- .... ....|R-- .... ....
....|..|G-4 2F.7 ....|--- .... ....|A#4 2F.F ....
....|..|--- .... ....|--- .... ....|--- .... ....
 D-4|..|C-4 BF.F ....|D-4 2C.F ....|D-5 2F.F ....
....|..|R-- .... ....|R-- .... ....|R-- .... ....
....|..|R-- .... ....|D-4 2F.7 ....|G-4 2F.A ....
....|..|--- .... ....|R-- .... ....|--- .... ....
 D-4|..|C-4 LF.F ....|D-4 2C.F ....|C-5 2F.F ....
....|..|R-- .... ....|R-- .... ....|R-- .... ....
 D#4|..|D#4 2C.F ....|D-4 2F.A ....|D#4 2C.F ....
....|..|R-- .... ....|R-- .... ....|R-- .... ....

[Pattern6]
....|..|G-3 2F4F ....|G-3 2F4F ....|G-4 2F.7 ....
....|..|R-- .... ....|R-- .... ....|R-- .... ....
 D#4|..|R-- .... ....|D#3 2C.F ....|A#4 2F.A ....
....|..|--- .... ....|R-- .... ....|--- .... ....
 D#4|..|C-4 LF.F ....|D-4 2F.7 ....|D#4 2C.F ....
....|..|R-- .... ....|R-- .... ....|R-- .... ....
....|..|G-4 2F.7 ....|--- .... ....|G-4 2F.7 ....
....|..|--- .... ....|--- .... ....|--- .... ....
 D#4|..|C-4 BF.F ....|D#4 2C.F ....|D#4 2C.F ....
....|..|--- .... ....|R-- .... ....|--- .... ....
....|..|R-- .... ....|D-4 2F.7 ....|R-- .... ....
....|..|R-- .... ....|R-- .... ....|R-- .... ....
 D#4|..|C-4 LF.F ....|D#3 2C.F ....|A-4 2F.7 ....
....|..|R-- .... ....|R-- .... ....|R-- .... ....
 D#4|..|D#4 2C.F ....|D#3 2F.A ....|D#4 2C.F ....
....|..|R-- .... ....|R-- .... ....|R-- .... ....
....|..|C-4 BF.7 ....|D-4 2F.7 ....|D-5 2F.7 ....
....|..|R-- .... ....|R-- .... ....|R-- .... ....
 D#4|..|R-- .... ....|D#3 2C.F ....|--- .... ....
....|..|--- .... ....|R-- .... ....|--- .... ....
 D#4|..|C-4 LF.F ....|D-4 2F.7 ....|D#4 2C.F ....
....|..|R-- .... ....|R-- .... ....|R-- .... ....
....|..|D#4 2F.7 ....|--- .... ....|D#4 2F.7 ....
....|..|R-- .... ....|--- .... ....|R-- .... ....
 D#4|..|C-4 BF.F ....|D#4 2C.F ....|D#4 2C.F ....
....|..|R-- .... ....|R-- .... ....|R-- .... ....
....|..|R-- .... ....|D#3 2F.7 ....|D#4 2F.A ....
....|..|R-- .... ....|R-- .... ....|R-- .... ....
 D#4|..|C-4 LF.F ....|D#3 2C.F ....|D#4 2F.7 ....
....|..|R-- .... ....|R-- .... ....|R-- .... ....
....|..|R-- .... ....|D#3 2F.A ....|--- .... ....
....|..|--- .... ....|R-- .... ....|--- .... ....
....|..|C-5 VF.F ....|A#3 2F1F ....|A#5 2F.F ....
....|..|A#3 2F1F ....|R-- .... ....|R-- .... ....
 A#3|..|C-5 VF.F ....|A#3 2C.F ....|--- .... ....
....|..|--- .... ....|R-- .... ....|--- .... ....
....|..|C-5 VF.F ....|D#3 2F.7 ....|A#4 2F.F ....
....|..|R-- .... ....|R-- .... ....|R-- .... ....
....|..|C-5 VF.F ....|--- .... ....|D#4 2F.7 ....
....|..|R-- .... ....|--- .... ....|R-- .... ....
 A#3|..|C-4 BF.F ....|A#4 2C.F ....|A#4 2C.F ....
....|..|--- .... ....|R-- .... ....|--- .... ....
....|..|C-5 VF.F ....|D#3 2F.7 ....|--- .... ....
....|..|--- .... ....|R-- .... ....|--- .... ....
 A#3|..|C-5 VF.F ....|A#3 2C.F ....|A#4 2F.F ....
....|..|R-- .... ....|R-- .... ....|R-- .... ....
 A#3|..|C-5 VF.F ....|A#3 2F.A ....|A#4 2C.F ....
....|..|R-- .... ....|R-- .... ....|R-- .... ....
....|..|C-5 VF.F ....|D#3 2F.7 ....|A#4 2F.F ....
....|..|R-- .... ....|R-- .... ....|R-- .... ....
 A#3|..|C-5 VF.F ....|A#3 2C.F ....|R-- .... ....
....|..|--- .... ....|R-- .... ....|--- .... ....
....|..|C-5 VF.F ....|D#3 2F.7 ....|A#4 2F.F ....
....|..|R-- .... ....|R-- .... ....|R-- .... ....
....|..|C-5 VF.F ....|--- .... ....|C-5 2F.F ....
....|..|--- .... ....|--- .... ....|--- .... ....
 A#3|..|C-4 BF.F ....|A#4 2C.F ....|A#4 2C.F ....
....|..|A#3 2F17 ....|R-- .... ....|R-- .... ....
....|..|C-5 VF.F ....|A#3 2F.7 ....|A#4 2F.A ....
....|..|R-- .... ....|R-- .... ....|R-- .... ....
 A#3|..|C-5 VF.F ....|A#3 2C.F ....|D-5 2F.F ....
....|..|R-- .... ....|R-- .... ....|R-- .... ....
 A-3|..|C-5 VF.F ....|A#3 2F.A ....|A-4 2C.F ....
....|..|--- .... ....|R-- .... ....|R-- .... ....

[Pattern7]
....|..|C-5 VF.F ....|G-3 2F2F ....|A-5 2F.F ....
....|..|G-3 2F2F ....|R-- .... ....|R-- .... ....
 G-4|..|C-5 VF.F ....|G-3 2C.F ....|C-5 2F.A ....
....|..|--- .... ....|R-- .... ....|--- .... ....
 A-3|..|C-5 VF.F ....|A#3 2F.7 ....|A-4 2C.F ....
....|..|R-- .... ....|R-- .... ....|R-- .... ....
....|..|C-5 VF.F ....|--- .... ....|A#4 2F.7 ....
....|..|R-- .... ....|--- .... ....|R-- .... ....
 A-3|..|C-4 BF.F ....|G-3 2F.F ....|A-4 2C.F ....
....|..|--- .... ....|R-- .... ....|--- .... ....
....|..|C-5 VF.F ....|A#3 2F.7 ....|R-- .... ....
....|..|--- .... ....|R-- .... ....|R-- .... ....
 G-4|..|C-5 VF.F ....|G-3 2C.F ....|A#4 2F.7 ....
....|..|R-- .... ....|R-- .... ....|R-- .... ....
 A-3|..|C-5 VF.F ....|G-3 2F.A ....|A-4 2C.F ....
....|..|R-- .... ....|R-- .... ....|R-- .... ....
....|..|C-5 VF.F ....|A#3 2F.7 ....|A#4 2F.7 ....
....|..|R-- .... ....|R-- .... ....|R-- .... ....
 G-4|..|C-5 VF.F ....|G-3 2C.F ....|--- .... ....
....|..|--- .... ....|R-- .... ....|--- .... ....
 A-3|..|C-5 VF.F ....|A#3 2F.7 ....|A-4 2C.F ....
....|..|R-- .... ....|R-- .... ....|R-- .... ....
....|..|C-5 VF.F ....|--- .... ....|A-4 2F.7 ....
....|..|--- .... ....|--- .... ....|R-- .... ....
 A-3|..|C-4 BF.F ....|G-3 2F.F ....|A-4 2C.F ....
....|..|G-3 2F27 ....|R-- .... ....|--- .... ....
....|..|C-5 VF.F ....|G-3 2F.7 ....|A-4 2F.A ....
....|..|R-- .... ....|R-- .... ....|R-- .... ....
 G-4|..|C-5 VF.F ....|G-3 2C.F ....|A-4 2F.7 ....
....|..|R-- .... ....|R-- .... ....|R-- .... ....
 G-4|..|C-5 VF.F ....|G-3 2F.A ....|G-4 2C.F ....
....|..|--- .... ....|R-- .... ....|--- .... ....
....|..|C-5 VF.F ....|A-3 2F3F ....|G-5 2F.F ....
....|..|A-3 2F3F ....|R-- .... ....|R-- .... ....
 D-4|..|C-5 VF.F ....|D-4 2C.F ....|--- .... ....
....|..|--- .... ....|R-- .... ....|--- .... ....
....|..|C-5 VF.F ....|G-3 2F.7 ....|A-4 2F.F ....
....|..|R-- .... ....|R-- .... ....|R-- .... ....
....|..|C-5 VF.F ....|--- .... ....|A-4 2F.7 ....
....|..|R-- .... ....|--- .... ....|R-- .... ....
 G-4|..|C-4 BF.F ....|D-4 2F.F ....|G-4 2C.F ....
....|..|--- .... ....|R-- .... ....|--- .... ....
....|..|C-5 VF.F ....|G-3 2F.7 ....|G-4 2F.A ....
....|..|--- .... ....|R-- .... ....|--- .... ....
 D-4|..|C-5 VF.F ....|D-4 2C.F ....|A-4 2F.F ....
....|..|R-- .... ....|R-- .... ....|R-- .... ....
 G-4|..|C-5 VF.F ....|D-4 2F.A ....|G-4 2C.F ....
....|..|--- .... ....|R-- .... ....|--- .... ....
....|..|C-5 VF.F ....|G-3 2F.7 ....|A-4 2F.F ....
....|..|R-- .... ....|R-- .... ....|R-- .... ....
 D-4|..|C-5 VF.F ....|D-4 2C.F ....|R-- .... ....
....|..|--- .... ....|R-- .... ....|--- .... ....
....|..|C-5 VF.F ....|G-3 2F.7 ....|A-4 2F.F ....
....|..|R-- .... ....|R-- .... ....|R-- .... ....
....|..|C-5 VF.F ....|--- .... ....|A#4 2F.F ....
....|..|--- .... ....|--- .... ....|--- .... ....
 D-4|..|C-4 BF.F ....|D-4 2C.F ....|D-5 2F.F ....
....|..|A-3 2F37 ....|R-- .... ....|R-- .... ....
....|..|C-5 VF.F ....|D-4 2F.7 ....|G-4 2F.A ....
....|..|--- .... ....|R-- .... ....|--- .... ....
 D-4|..|C-5 VF.F ....|D-4 2C.F ....|C-5 2F.F ....
....|..|R-- .... ....|R-- .... ....|R-- .... ....
 D#4|..|C-5 VF.F ....|D-4 2F.A ....|D#4 2C.F ....
....|..|R-- .... ....|R-- .... ....|R-- .... ....

[Pattern8]
....|..|G-3 2F4F ....|G-3 2F4F ....|G-4 2F.7 ....
....|..|R-- .... ....|R-- .... ....|R-- .... ....
....|..|C-5 VF.7 ....|--- .... ....|A#4 2F.A ....
....|..|--- .... ....|--- .... ....|--- .... ....
....|..|C-5 VF.7 ....|D-4 2F.7 ....|A-4 2F.7 ....
....|..|R-- .... ....|R-- .... ....|R-- .... ....
....|..|C-5 VF.7 ....|--- .... ....|G-4 2F.7 ....
....|..|--- .... ....|--- .... ....|--- .... ....
....|..|C-5 VF.7 ....|D-4 2F.A ....|A-4 2F.7 ....
....|..|--- .... ....|R-- .... ....|--- .... ....
....|..|C-5 VF.7 ....|D-4 2F.7 ....|R-- .... ....
....|..|R-- .... ....|R-- .... ....|R-- .... ....
....|..|C-5 VF.7 ....|G-3 2F4A ....|A-4 2F.7 ....
....|..|R-- .... ....|--- .... ....|R-- .... ....
....|..|C-5 VF.7 ....|--- .... ....|A#4 2F.7 ....
....|..|--- .... ....|--- .... ....|--- .... ....
....|..|C-4 BF.7 ....|D-4 2F.7 ....|D-5 2F.7 ....
....|..|--- .... ....|R-- .... ....|--- .... ....
....|..|C-5 VF.7 ....|--- .... ....|--- .... ....
....|..|--- .... ....|--- .... ....|--- .... ....
....|..|C-5 VF.7 ....|D-4 2F.7 ....|C-5 2F.7 ....
....|..|--- .... ....|R-- .... ....|--- .... ....
....|..|C-5 VF.7 ....|--- .... ....|D#4 2F.7 ....
....|..|R-- .... ....|--- .... ....|R-- .... ....
....|..|G-3 2F47 ....|G-3 2F47 ....|R-- .... ....
....|..|--- .... ....|--- .... ....|--- .... ....
....|..|--- .... ....|--- .... ....|--- .... ....
....|..|--- .... ....|--- .... ....|--- .... ....
....|..|--- .... ....|--- .... ....|--- .... ....
....|..|--- .... ....|--- .... ....|--- .... ....
....|..|--- .... ....|--- .... ....|--- .... ....
....|..|--- .... ....|--- .... ....|--- .... ....
....|..|C-4 AF.F ....|R-- .... ....|R-- .... ....
....|..|R-- .... ....|--- .... ....|--- .... ....
....|..|B-8 JF.F ....|--- .... ....|--- .... ....
....|..|--- .... ....|--- .... ....|--- .... ....
 A#3|..|C-3 RF.F ....|A#3 2C.F ....|--- .... ....
 A#3|..|A#1 2A.F ....|--- .... ....|--- .... ....
....|..|C-4 LF.F ....|--- .... ....|--- .... ....
....|..|--- .... ....|--- .... ....|--- .... ....
....|..|C-4 AF.F ....|R-- .... ....|F-5 2F.F ....
....|..|R-- .... ....|--- .... ....|R-- .... ....
....|..|B-8 JF.F ....|--- .... ....|--- .... ....
....|..|--- .... ....|--- .... ....|--- .... ....
 A#3|..|C-3 RF.F ....|A#3 2C.F ....|--- .... ....
 A#3|..|A#1 2A.F ....|--- .... ....|--- .... ....
....|..|C-4 LF.F ....|--- .... ....|--- .... ....
....|..|--- .... ....|--- .... ....|--- .... ....
....|..|C-4 AF.F ....|R-- .... ....|--- .... ....
....|..|R-- .... ....|--- .... ....|--- .... ....
....|..|B-8 JF.F ....|--- .... ....|--- .... ....
....|..|--- .... ....|--- .... ....|--- .... ....
 A#3|..|C-3 RF.F ....|A#3 2C.F ....|F-5 2F.A ....
 A#3|..|A#1 2A.F ....|--- .... ....|R-- .... ....
....|..|C-4 LF.F ....|--- .... ....|--- .... ....
....|..|--- .... ....|--- .... ....|--- .... ....
....|..|C-4 AF.F ....|R-- .... ....|--- .... ....
....|..|R-- .... ....|--- .... ....|--- .... ....
....|..|B-8 JF.F ....|--- .... ....|--- .... ....
....|..|--- .... ....|--- .... ....|--- .... ....
 A#3|..|C-3 RF.F ....|A#3 2C.F ....|--- .... ....
 A#3|..|A#1 2A.F ....|--- .... ....|--- .... ....
....|..|C-4 LF.F ....|--- .... ....|--- .... ....
....|..|--- .... ....|--- .... ....|--- .... ....

[Pattern9]
....|..|C-4 AF.F ....|R-- .... ....|F-5 2F.7 ....
....|..|R-- .... ....|--- .... ....|R-- .... ....
....|..|B-8 JF.F ....|--- .... ....|--- .... ....
....|..|--- .... ....|--- .... ....|--- .... ....
 A#3|..|C-3 RF.F ....|A#3 2C.F ....|--- .... ....
 A#3|..|A#1 2A.F ....|--- .... ....|--- .... ....
....|..|C-4 LF.F ....|--- .... ....|--- .... ....
....|..|--- .... ....|--- .... ....|--- .... ....
....|..|C-4 AF.F ....|R-- .... ....|F-5 2F.F ....
....|..|R-- .... ....|--- .... ....|R-- .... ....
....|..|B-8 JF.F ....|--- .... ....|--- .... ....
....|..|--- .... ....|--- .... ....|--- .... ....
 A#3|..|C-3 RF.F ....|A#3 2C.F ....|--- .... ....
 A#3|..|A#1 2A.F ....|--- .... ....|--- .... ....
....|..|C-4 LF.F ....|--- .... ....|--- .... ....
....|..|--- .... ....|--- .... ....|--- .... ....
....|..|C-4 AF.F ....|R-- .... ....|--- .... ....
....|..|R-- .... ....|--- .... ....|--- .... ....
....|..|B-8 JF.F ....|--- .... ....|--- .... ....
....|..|--- .... ....|--- .... ....|--- .... ....
 A#3|..|C-3 RF.F ....|A#3 2C.F ....|F-5 2F.A ....
 A#3|..|A#1 2A.F ....|--- .... ....|R-- .... ....
....|..|C-4 LF.F ....|--- .... ....|--- .... ....
....|..|--- .... ....|--- .... ....|--- .... ....
....|..|C-4 AF.F ....|R-- .... ....|--- .... ....
....|..|R-- .... ....|--- .... ....|--- .... ....
....|..|B-8 JF.F ....|--- .... ....|--- .... ....
....|..|--- .... ....|--- .... ....|--- .... ....
 A#3|..|C-3 RF.F ....|A#3 2C.F ....|--- .... ....
 A#3|..|A#1 2A.F ....|--- .... ....|--- .... ....
....|..|C-4 LF.F ....|--- .... ....|--- .... ....
....|..|--- .... ....|--- .... ....|--- .... ....
....|..|C-4 AF.F ....|R-- .... ....|F-5 2F.7 ....
....|..|R-- .... ....|--- .... ....|R-- .... ....
....|..|B-8 JF.F ....|--- .... ....|--- .... ....
....|..|--- .... ....|--- .... ....|--- .... ....
 A#3|..|C-3 RF.F ....|A#3 2C.F ....|--- .... ....
 A#3|..|A#1 2A.F ....|--- .... ....|--- .... ....
....|..|C-4 LF.F ....|--- .... ....|--- .... ....
....|..|--- .... ....|--- .... ....|--- .... ....
....|..|C-4 AF.F ....|R-- .... ....|F-5 2F.F ....
....|..|R-- .... ....|--- .... ....|R-- .... ....
....|..|B-8 JF.F ....|--- .... ....|--- .... ....
....|..|--- .... ....|--- .... ....|--- .... ....
 A#3|..|C-3 RF.F ....|A#3 2C.F ....|--- .... ....
 A#3|..|A#1 2A.F ....|--- .... ....|--- .... ....
....|..|C-4 LF.F ....|--- .... ....|--- .... ....
....|..|--- .... ....|--- .... ....|--- .... ....
....|..|C-4 AF.F ....|R-- .... ....|--- .... ....
....|..|R-- .... ....|--- .... ....|--- .... ....
....|..|B-8 JF.F ....|--- .... ....|--- .... ....
....|..|--- .... ....|--- .... ....|--- .... ....
 A#3|..|C-3 RF.F ....|A#3 2C.F ....|F-5 2F.A ....
 A#3|..|A#1 2A.F ....|--- .... ....|R-- .... ....
....|..|C-4 LF.F ....|--- .... ....|--- .... ....
....|..|--- .... ....|--- .... ....|--- .... ....
....|..|C-4 AF.F ....|R-- .... ....|--- .... ....
....|..|R-- .... ....|--- .... ....|--- .... ....
....|..|B-8 JF.F ....|--- .... ....|--- .... ....
....|..|--- .... ....|--- .... ....|--- .... ....
 A#3|..|C-3 RF.F ....|A#3 2C.F ....|--- .... ....
 A#3|..|A#1 2A.F ....|--- .... ....|--- .... ....
....|..|C-4 LF.F ....|--- .... ....|--- .... ....
....|..|--- .... ....|--- .... ....|--- .... ....

[Pattern10]
....|..|C-4 AF.F ....|R-- .... ....|F-5 2F.7 ....
....|..|R-- .... ....|--- .... ....|R-- .... ....
....|..|B-8 JF.F ....|--- .... ....|--- .... ....
....|..|--- .... ....|--- .... ....|--- .... ....
 F#4|..|C-3 RF.F ....|F#3 2C.F ....|--- .... ....
 F#3|..|F#1 2A.F ....|--- .... ....|--- .... ....
....|..|C-4 LF.F ....|--- .... ....|--- .... ....
....|..|--- .... ....|--- .... ....|--- .... ....
....|..|C-4 AF.F ....|R-- .... ....|F-5 2F.F ....
....|..|R-- .... ....|--- .... ....|R-- .... ....
....|..|B-8 JF.F ....|--- .... ....|--- .... ....
....|..|--- .... ....|--- .... ....|--- .... ....
 F#4|..|C-3 RF.F ....|F#3 2C.F ....|--- .... ....
 F#3|..|F#1 2A.F ....|--- .... ....|--- .... ....
....|..|C-4 LF.F ....|--- .... ....|--- .... ....
....|..|--- .... ....|--- .... ....|--- .... ....
....|..|C-4 AF.F ....|R-- .... ....|--- .... ....
....|..|R-- .... ....|--- .... ....|--- .... ....
....|..|B-8 JF.F ....|--- .... ....|--- .... ....
....|..|--- .... ....|--- .... ....|--- .... ....
 F#4|..|C-3 RF.F ....|F#3 2C.F ....|F-5 2F.A ....
 F#3|..|F#1 2A.F ....|--- .... ....|R-- .... ....
....|..|C-4 LF.F ....|--- .... ....|--- .... ....
....|..|--- .... ....|--- .... ....|--- .... ....
....|..|C-4 AF.F ....|R-- .... ....|--- .... ....
....|..|R-- .... ....|--- .... ....|--- .... ....
....|..|B-8 JF.F ....|--- .... ....|--- .... ....
....|..|--- .... ....|--- .... ....|--- .... ....
 F#4|..|C-3 RF.F ....|F#3 2C.F ....|--- .... ....
 F#3|..|F#1 2A.F ....|--- .... ....|--- .... ....
....|..|C-4 LF.F ....|--- .... ....|--- .... ....
....|..|--- .... ....|--- .... ....|--- .... ....
....|..|C-4 AF.F ....|R-- .... ....|F-5 2F.7 ....
....|..|R-- .... ....|--- .... ....|R-- .... ....
....|..|B-8 JF.F ....|--- .... ....|--- .... ....
....|..|--- .... ....|--- .... ....|--- .... ....
 A#3|..|C-3 RF.F ....|A#3 2C.F ....|--- .... ....
 A#3|..|A#1 2A.F ....|--- .... ....|--- .... ....
....|..|C-4 LF.F ....|--- .... ....|--- .... ....
....|..|--- .... ....|--- .... ....|--- .... ....
....|..|C-4 AF.F ....|R-- .... ....|F-5 2F.F ....
....|..|R-- .... ....|--- .... ....|R-- .... ....
....|..|B-8 JF.F ....|--- .... ....|--- .... ....
....|..|--- .... ....|--- .... ....|--- .... ....
 A#3|..|C-3 RF.F ....|A#3 2C.F ....|--- .... ....
 A#3|..|A#1 2A.F ....|--- .... ....|--- .... ....
....|..|C-4 LF.F ....|--- .... ....|--- .... ....
....|..|--- .... ....|--- .... ....|--- .... ....
....|..|C-4 AF.F ....|R-- .... ....|--- .... ....
....|..|R-- .... ....|--- .... ....|--- .... ....
....|..|B-8 JF.F ....|--- .... ....|--- .... ....
....|..|--- .... ....|--- .... ....|--- .... ....
 A#3|..|C-3 RF.F ....|A#3 2C.F ....|F-5 2F.A ....
 A#3|..|A#1 2A.F ....|--- .... ....|R-- .... ....
....|..|C-4 LF.F ....|--- .... ....|--- .... ....
....|..|--- .... ....|--- .... ....|--- .... ....
....|..|C-4 AF.F ....|R-- .... ....|--- .... ....
....|..|R-- .... ....|--- .... ....|--- .... ....
....|..|B-8 JF.F ....|--- .... ....|--- .... ....
....|..|--- .... ....|--- .... ....|--- .... ....
 A#3|..|C-3 RF.F ....|A#3 2C.F ....|--- .... ....
 A#3|..|A#1 2A.F ....|--- .... ....|--- .... ....
....|..|C-4 LF.F ....|--- .... ....|--- .... ....
....|..|--- .... ....|--- .... ....|--- .... ....

[Pattern12]
....|..|B-8 JF.F ....|R-- .... ....|F-5 2F.7 ....
....|..|R-- .... ....|--- .... ....|R-- .... ....
....|..|B-8 JF.F ....|--- .... ....|--- .... ....
....|..|--- .... ....|--- .... ....|--- .... ....
 F#4|..|C-3 RF.F ....|F#3 2C.F ....|--- .... ....
 F#3|..|F#1 2A.F ....|--- .... ....|--- .... ....
....|..|C-4 LF.F ....|--- .... ....|--- .... ....
....|..|--- .... ....|--- .... ....|--- .... ....
....|..|C-4 BF.F ....|R-- .... ....|F-5 2F.F ....
....|..|R-- .... ....|--- .... ....|R-- .... ....
....|..|B-8 JF.F ....|--- .... ....|--- .... ....
....|..|--- .... ....|--- .... ....|--- .... ....
 F#4|..|C-3 RF.F ....|F#3 2C.F ....|--- .... ....
 F#3|..|F#1 2A.F ....|--- .... ....|--- .... ....
....|..|C-4 LF.F ....|--- .... ....|--- .... ....
....|..|--- .... ....|--- .... ....|--- .... ....
....|..|B-8 JF.F ....|R-- .... ....|--- .... ....
....|..|R-- .... ....|--- .... ....|--- .... ....
....|..|B-8 JF.F ....|--- .... ....|--- .... ....
....|..|--- .... ....|--- .... ....|--- .... ....
 F#4|..|C-3 RF.F ....|F#3 2C.F ....|F-5 2F.A ....
 F#3|..|F#1 2A.F ....|--- .... ....|R-- .... ....
....|..|C-4 LF.F ....|--- .... ....|--- .... ....
....|..|--- .... ....|--- .... ....|--- .... ....
....|..|C-4 BF.F ....|R-- .... ....|--- .... ....
....|..|R-- .... ....|--- .... ....|--- .... ....
....|..|B-8 JF.F ....|--- .... ....|--- .... ....
....|..|--- .... ....|--- .... ....|--- .... ....
 F#4|..|C-3 RF.F ....|F#3 2C.F ....|--- .... ....
 F#3|..|F#1 2A.F ....|--- .... ....|--- .... ....
....|..|C-4 LF.F ....|--- .... ....|--- .... ....
....|..|--- .... ....|--- .... ....|--- .... ....
 A#3|..|C-4 AF.F ....|R-- .... ....|A#4 2C.F ....
....|..|R-- .... ....|--- .... ....|R-- .... ....
....|..|B-8 JF.F ....|--- .... ....|--- .... ....
....|..|--- .... ....|--- .... ....|--- .... ....
 A#3|..|C-3 RF.F ....|A#4 2C.F ....|A#4 2C.F ....
 A#3|..|A#1 2A.F ....|--- .... ....|R-- .... ....
 G#4|..|C-4 LF.F ....|--- .F.. ....|G#4 2C.F ....
....|..|--- .... ....|--- .... ....|--- .... ....
....|..|C-4 AF.F ....|R-- .... ....|F-5 2F.F ....
....|..|R-- .... ....|--- .... ....|R-- .... ....
....|..|B-8 JF.F ....|--- .... ....|--- .... ....
....|..|--- .... ....|--- .... ....|--- .... ....
 A#3|..|C-3 RF.F ....|A#4 2C.F ....|A#4 2C.F ....
 A#3|..|A#1 2A.F ....|--- .... ....|R-- .... ....
....|..|C-4 LF.F ....|--- .... ....|--- .... ....
....|..|--- .... ....|--- .... ....|--- .... ....
....|..|C-4 AF.F ....|R-- .... ....|A#4 2F.A ....
....|..|R-- .... ....|--- .... ....|R-- .... ....
 A#3|..|B-8 JF.F ....|--- .... ....|A#4 2C.F ....
....|..|R-- .... ....|--- .... ....|R-- .... ....
 A#3|..|C-3 RF.F ....|A#3 2C.F ....|F-5 2F.A ....
 A#3|..|A#1 2A.F ....|--- .... ....|R-- .... ....
 A#3|..|C-4 LF.F ....|--- .... ....|A#4 2C.F ....
....|..|R-- .... ....|--- .... ....|R-- .... ....
....|..|C-4 AF.F ....|R-- .... ....|F-5 2F.F ....
....|..|R-- .... ....|--- .... ....|R-- .... ....
....|..|B-8 JF.F ....|--- .... ....|--- .... ....
....|..|--- .... ....|--- .... ....|--- .... ....
 C#4|..|C-3 RF.F ....|A#3 2F.F ....|C#5 2C.F ....
 A#3|..|A#1 2A.F ....|--- .F.. ....|R-- .... ....
....|..|C-4 LF.F ....|--- .... ....|G#4 2F.7 ....
....|..|R-- .... ....|--- .... ....|R-- .... ....

[Pattern13]
 A#3|..|C-4 AF.F ....|R-- .... ....|A#4 2C.F ....
....|..|R-- .... ....|--- .... ....|R-- .... ....
....|..|B-8 JF.F ....|--- .... ....|A#4 2F.A ....
....|..|R-- .... ....|--- .... ....|R-- .... ....
 A#3|..|C-3 RF.F ....|A#4 2C.F ....|A#4 2C.F ....
 A#3|..|A#1 2A.F ....|--- .... ....|R-- .... ....
 G#4|..|C-4 LF.F ....|--- .F.. ....|G#4 2C.F ....
....|..|--- .... ....|--- .... ....|--- .... ....
....|..|C-4 AF.F ....|R-- .... ....|F-5 2F.F ....
....|..|R-- .... ....|--- .... ....|R-- .... ....
....|..|B-8 JF.F ....|--- .... ....|A#4 2F.7 ....
....|..|R-- .... ....|--- .... ....|R-- .... ....
 A#3|..|C-3 RF.F ....|A#4 2C.F ....|A#4 2C.F ....
 A#3|..|A#1 2A.F ....|--- .... ....|R-- .... ....
....|..|C-4 LF.F ....|--- .... ....|A#4 2F.7 ....
....|..|R-- .... ....|--- .... ....|R-- .... ....
....|..|C-4 AF.F ....|R-- .... ....|F-5 2F.7 ....
....|..|R-- .... ....|--- .... ....|R-- .... ....
 A#3|..|B-8 JF.F ....|--- .... ....|A#4 2C.F ....
....|..|R-- .... ....|--- .... ....|R-- .... ....
 A#3|..|C-3 RF.F ....|A#3 2C.F ....|C#5 2F.7 ....
 A#3|..|A#1 2A.F ....|--- .... ....|R-- .... ....
 A#3|..|C-4 LF.F ....|--- .... ....|A#4 2C.F ....
....|..|R-- .... ....|--- .... ....|R-- .... ....
....|..|C-4 AF.F ....|R-- .... ....|F-5 2F.F ....
....|..|R-- .... ....|--- .... ....|R-- .... ....
....|..|B-8 JF.F ....|--- .... ....|--- .... ....
....|..|--- .... ....|--- .... ....|--- .... ....
 C#4|..|C-3 RF.F ....|A#3 2F.F ....|C#5 2C.F ....
 A#3|..|A#1 2A.F ....|--- .F.. ....|R-- .... ....
....|..|C-4 LF.F ....|--- .... ....|G#4 2F.7 ....
....|..|R-- .... ....|--- .... ....|R-- .... ....
 A#3|..|C-4 AF.F ....|R-- .... ....|A#4 2C.F ....
....|..|R-- .... ....|--- .... ....|R-- .... ....
....|..|B-8 JF.F ....|--- .... ....|A#4 2F.A ....
....|..|R-- .... ....|--- .... ....|R-- .... ....
 A#3|..|C-3 RF.F ....|A#4 2C.F ....|A#4 2C.F ....
 A#3|..|A#1 2A.F ....|--- .... ....|R-- .... ....
 G#4|..|C-4 LF.F ....|--- .F.. ....|G#4 2C.F ....
....|..|--- .... ....|--- .... ....|--- .... ....
....|..|C-4 AF.F ....|R-- .... ....|F-5 2F.F ....
....|..|R-- .... ....|--- .... ....|R-- .... ....
....|..|B-8 JF.F ....|--- .... ....|A#4 2F.7 ....
....|..|R-- .... ....|--- .... ....|R-- .... ....
 A#3|..|C-3 RF.F ....|A#4 2C.F ....|A#4 2C.F ....
 A#3|..|A#1 2A.F ....|--- .... ....|R-- .... ....
....|..|C-4 LF.F ....|--- .... ....|A#4 2F.7 ....
....|..|R-- .... ....|--- .... ....|R-- .... ....
....|..|C-4 AF.F ....|R-- .... ....|F-5 2F.7 ....
....|..|R-- .... ....|--- .... ....|R-- .... ....
 A#3|..|B-8 JF.F ....|--- .... ....|A#4 2C.F ....
....|..|R-- .... ....|--- .... ....|R-- .... ....
 A#3|..|C-3 RF.F ....|A#3 2C.F ....|C#5 2F.7 ....
 A#3|..|A#1 2A.F ....|--- .... ....|R-- .... ....
 A#3|..|C-4 LF.F ....|--- .... ....|A#4 2C.F ....
....|..|R-- .... ....|--- .... ....|R-- .... ....
....|..|C-4 AF.F ....|R-- .... ....|F-5 2F.F ....
....|..|R-- .... ....|--- .... ....|R-- .... ....
....|..|B-8 JF.F ....|--- .... ....|--- .... ....
....|..|--- .... ....|--- .... ....|--- .... ....
 C#4|..|C-3 RF.F ....|A#3 2F.F ....|C#5 2C.F ....
 A#3|..|A#1 2A.F ....|--- .F.. ....|R-- .... ....
....|..|C-4 LF.F ....|--- .... ....|G#4 2F.7 ....
....|..|R-- .... ....|--- .... ....|R-- .... ....

[Pattern14]
 A#3|..|C-4 AF.F ....|R-- .... ....|A#4 2C.F ....
....|..|R-- .... ....|--- .... ....|R-- .... ....
....|..|B-8 JF.F ....|--- .... ....|A#4 2F.A ....
....|..|R-- .... ....|--- .... ....|R-- .... ....
 A#3|..|C-3 RF.F ....|F#3 2F.F ....|A#4 2C.F ....
 F#3|..|F#1 2A.F ....|--- .F.. ....|R-- .... ....
 G#4|..|C-4 LF.F ....|--- .F.. ....|G#4 2C.F ....
....|..|--- .... ....|--- .... ....|--- .... ....
....|..|C-4 AF.F ....|R-- .... ....|F-5 2F.F ....
....|..|R-- .... ....|--- .... ....|R-- .... ....
....|..|B-8 JF.F ....|--- .... ....|A#4 2F.7 ....
....|..|R-- .... ....|--- .... ....|R-- .... ....
 A#3|..|C-3 RF.F ....|F#3 2F.F ....|A#4 2C.F ....
 F#3|..|F#1 2A.F ....|--- .F.. ....|R-- .... ....
....|..|C-4 LF.F ....|--- .... ....|A#4 2F.7 ....
....|..|R-- .... ....|--- .... ....|R-- .... ....
....|..|C-4 AF.F ....|R-- .... ....|F-5 2F.7 ....
....|..|R-- .... ....|--- .... ....|R-- .... ....
 A#3|..|B-8 JF.F ....|--- .F.. ....|A#4 2C.F ....
....|..|R-- .... ....|--- .... ....|R-- .... ....
 F#4|..|C-3 RF.F ....|F#3 2C.F ....|C#5 2F.7 ....
 F#3|..|F#1 2A.F ....|--- .... ....|R-- .... ....
 A#3|..|C-4 LF.F ....|--- .F.. ....|A#4 2C.F ....
....|..|R-- .... ....|--- .... ....|R-- .... ....
....|..|C-4 AF.F ....|R-- .... ....|F-5 2F.F ....
....|..|R-- .... ....|--- .... ....|R-- .... ....
....|..|B-8 JF.F ....|--- .... ....|--- .... ....
....|..|--- .... ....|--- .... ....|--- .... ....
 C#4|..|C-3 RF.F ....|F#3 2F.F ....|C#5 2C.F ....
 F#3|..|F#1 2A.F ....|--- .F.. ....|R-- .... ....
....|..|C-4 LF.F ....|--- .... ....|G#4 2F.7 ....
....|..|R-- .... ....|--- .... ....|R-- .... ....
 A#3|..|C-4 AF.F ....|R-- .... ....|A#4 2C.F ....
....|..|R-- .... ....|--- .... ....|R-- .... ....
....|..|C-5 VF.F ....|--- .... ....|A#4 2F.A ....
....|..|R-- .... ....|--- .... ....|R-- .... ....
 A#3|..|C-5 VF.F ....|A#4 2C.F ....|A#4 2C.F ....
 A#3|..|A#1 2A.F ....|--- .... ....|R-- .... ....
 G#4|..|C-5 VF.F ....|--- .F.. ....|G#4 2C.F ....
....|..|--- .... ....|--- .... ....|--- .... ....
....|..|C-4 AF.F ....|R-- .... ....|F-5 2F.F ....
....|..|R-- .... ....|--- .... ....|R-- .... ....
....|..|C-5 VF.F ....|--- .... ....|A#4 2F.7 ....
....|..|R-- .... ....|--- .... ....|R-- .... ....
 A#3|..|C-5 VF.F ....|A#4 2C.F ....|A#4 2C.F ....
 A#3|..|A#1 2A.F ....|--- .... ....|R-- .... ....
....|..|C-5 VF.F ....|--- .... ....|A#4 2F.7 ....
....|..|R-- .... ....|--- .... ....|R-- .... ....
....|..|C-4 AF.F ....|R-- .... ....|F-5 2F.7 ....
....|..|R-- .... ....|--- .... ....|R-- .... ....
 A#3|..|C-5 VF.F ....|--- .... ....|A#4 2C.F ....
....|..|R-- .... ....|--- .... ....|R-- .... ....
 A#3|..|C-5 VF.F ....|A#3 2C.F ....|C#5 2F.7 ....
 A#3|..|A#1 2A.F ....|--- .... ....|R-- .... ....
 A#3|..|C-5 VF.F ....|--- .... ....|A#4 2C.F ....
....|..|R-- .... ....|--- .... ....|R-- .... ....
....|..|C-4 AF.F ....|R-- .... ....|F-5 2F.F ....
....|..|R-- .... ....|--- .... ....|R-- .... ....
....|..|C-5 VF.F ....|--- .... ....|--- .... ....
....|..|--- .... ....|--- .... ....|--- .... ....
 C#4|..|C-5 VF.F ....|A#3 2F.F ....|C#5 2C.F ....
 A#3|..|A#1 2A.F ....|--- .F.. ....|R-- .... ....
....|..|C-5 VF.F ....|--- .... ....|G#4 2F.7 ....
....|..|R-- .... ....|--- .... ....|R-- .... ....

[Pattern15]
 A#3|..|C-4 AF.F ....|R-- .... ....|A#4 2C.F ....
....|..|R-- .... ....|--- .... ....|R-- .... ....
....|..|C-5 VF.F ....|--- .... ....|A#4 2F.A ....
....|..|R-- .... ....|--- .... ....|R-- .... ....
 A#3|..|C-5 VF.F ....|A#4 2C.F ....|A#4 2C.F ....
 A#3|..|A#1 2A.F ....|--- .... ....|R-- .... ....
 G#4|..|C-5 VF.F ....|--- .F.. ....|G#4 2C.F ....
....|..|--- .... ....|--- .... ....|--- .... ....
....|..|C-4 AF.F ....|R-- .... ....|F-5 2F.F ....
....|..|R-- .... ....|--- .... ....|R-- .... ....
....|..|C-5 VF.F ....|--- .... ....|A#4 2F.7 ....
....|..|R-- .... ....|--- .... ....|R-- .... ....
 A#3|..|C-5 VF.F ....|A#4 2C.F ....|A#4 2C.F ....
 A#3|..|A#1 2A.F ....|--- .... ....|R-- .... ....
....|..|C-5 VF.F ....|--- .... ....|A#4 2F.7 ....
....|..|R-- .... ....|--- .... ....|R-- .... ....
....|..|C-4 AF.F ....|R-- .... ....|F-5 2F.7 ....
....|..|R-- .... ....|--- .... ....|R-- .... ....
 A#3|..|C-5 VF.F ....|--- .... ....|A#4 2C.F ....
....|..|R-- .... ....|--- .... ....|R-- .... ....
 A#3|..|C-5 VF.F ....|A#3 2C.F ....|C#5 2F.7 ....
 A#3|..|A#1 2A.F ....|--- .... ....|R-- .... ....
 A#3|..|C-5 VF.F ....|--- .... ....|A#4 2C.F ....
....|..|R-- .... ....|--- .... ....|R-- .... ....
....|..|C-4 AF.F ....|R-- .... ....|F-5 2F.F ....
....|..|R-- .... ....|--- .... ....|R-- .... ....
....|..|C-5 VF.F ....|--- .... ....|--- .... ....
....|..|--- .... ....|--- .... ....|--- .... ....
 C#4|..|C-5 VF.F ....|A#3 2F.F ....|C#5 2C.F ....
 A#3|..|A#1 2A.F ....|--- .F.. ....|R-- .... ....
....|..|C-5 VF.F ....|--- .... ....|G#4 2F.7 ....
....|..|R-- .... ....|--- .... ....|R-- .... ....
 A#3|..|C-4 AF.F ....|R-- .... ....|A#4 2C.F ....
....|..|R-- .... ....|--- .... ....|R-- .... ....
....|..|C-5 VF.F ....|--- .... ....|A#4 2F.A ....
....|..|R-- .... ....|--- .... ....|R-- .... ....
 A#3|..|C-5 VF.F ....|A#4 2C.F ....|A#4 2C.F ....
 A#3|..|A#1 2A.F ....|--- .... ....|R-- .... ....
 G#4|..|C-5 VF.F ....|--- .F.. ....|G#4 2C.F ....
....|..|--- .... ....|--- .... ....|--- .... ....
....|..|C-4 AF.F ....|R-- .... ....|F-5 2F.F ....
....|..|R-- .... ....|--- .... ....|R-- .... ....
....|..|C-5 VF.F ....|--- .... ....|A#4 2F.7 ....
....|..|R-- .... ....|--- .... ....|R-- .... ....
 A#3|..|C-5 VF.F ....|A#4 2C.F ....|A#4 2C.F ....
 A#3|..|A#1 2A.F ....|--- .... ....|R-- .... ....
....|..|C-5 VF.F ....|--- .... ....|A#4 2F.7 ....
....|..|R-- .... ....|--- .... ....|R-- .... ....
....|..|C-4 AF.F ....|R-- .... ....|F-5 2F.7 ....
....|..|R-- .... ....|--- .... ....|R-- .... ....
 A#3|..|C-5 VF.F ....|--- .... ....|A#4 2C.F ....
....|..|R-- .... ....|--- .... ....|R-- .... ....
 A#3|..|C-5 VF.F ....|A#3 2C.F ....|C#5 2F.7 ....
 A#3|..|A#1 2A.F ....|--- .... ....|R-- .... ....
 A#3|..|C-5 VF.F ....|--- .... ....|A#4 2C.F ....
....|..|R-- .... ....|--- .... ....|R-- .... ....
....|..|C-4 AF.F ....|R-- .... ....|F-5 2F.F ....
....|..|R-- .... ....|--- .... ....|R-- .... ....
....|..|C-5 VF.F ....|--- .... ....|--- .... ....
....|..|--- .... ....|--- .... ....|--- .... ....
 C#4|..|C-5 VF.F ....|A#3 2F.F ....|C#5 2C.F ....
 A#3|..|A#1 2A.F ....|--- .F.. ....|R-- .... ....
....|..|C-5 VF.F ....|--- .... ....|G#4 2F.7 ....
....|..|R-- .... ....|--- .... ....|R-- .... ....

[Pattern16]
 A#3|..|C-4 AF.F ....|R-- .... ....|A#4 2C.F ....
....|..|C-4 AF.F ....|--- .... ....|R-- .... ....
....|..|C-5 VF.F ....|--- .... ....|A#4 2F.A ....
....|..|C-5 VF.F ....|--- .... ....|R-- .... ....
 A#3|..|C-5 VF.F ....|F#3 2F.F ....|A#4 2C.F ....
....|..|C-5 VF.F ....|--- .... ....|R-- .... ....
 G#4|..|C-5 VF.F ....|--- .F.. ....|G#4 2C.F ....
....|..|C-5 VF.F ....|--- .... ....|--- .... ....
....|..|C-4 AF.F ....|R-- .... ....|F-5 2F.F ....
....|..|C-4 AF.F ....|--- .... ....|R-- .... ....
....|..|C-5 VF.F ....|--- .... ....|A#4 2F.7 ....
....|..|C-5 VF.F ....|--- .... ....|R-- .... ....
 A#3|..|C-5 VF.F ....|F#3 2F.F ....|A#4 2C.F ....
....|..|C-5 VF.F ....|--- .... ....|R-- .... ....
....|..|C-5 VF.F ....|--- .... ....|A#4 2F.7 ....
....|..|C-5 VF.F ....|--- .... ....|R-- .... ....
....|..|C-4 AF.F ....|R-- .... ....|F-5 2F.7 ....
....|..|C-4 AF.F ....|--- .... ....|R-- .... ....
 A#3|..|C-5 VF.F ....|--- .... ....|A#4 2C.F ....
....|..|C-5 VF.F ....|--- .... ....|R-- .... ....
 F#4|..|C-5 VF.F ....|F#3 2C.F ....|C#5 2F.7 ....
....|..|C-5 VF.F ....|--- .... ....|R-- .... ....
 A#3|..|C-5 VF.F ....|--- .F.. ....|A#4 2C.F ....
....|..|C-5 VF.F ....|--- .... ....|R-- .... ....
....|..|C-4 AF.F ....|R-- .... ....|F-5 2F.F ....
....|..|C-4 AF.F ....|--- .... ....|R-- .... ....
....|..|C-5 VF.F ....|--- .... ....|--- .... ....
....|..|C-5 VF.F ....|--- .... ....|--- .... ....
 C#4|..|C-5 VF.F ....|F#3 2F.F ....|C#5 2C.F ....
....|..|C-5 VF.F ....|--- .... ....|R-- .... ....
....|..|C-5 VF.F ....|--- .... ....|G#4 2F.7 ....
....|..|C-5 VF.F ....|--- .... ....|R-- .... ....
....|..|C-4 AF.F ....|R-- .... ....|F-5 2F.7 ....
....|..|C-4 AF.7 ....|--- .... ....|R-- .... ....
....|..|C-5 VF.7 ....|--- .... ....|A#4 2F.A ....
....|..|C-5 VF.7 ....|--- .... ....|R-- .... ....
....|..|C-5 VF.7 ....|F#3 2F.7 ....|A#4 2F.7 ....
....|..|C-5 VF.7 ....|--- .... ....|R-- .... ....
....|..|C-5 VF.7 ....|--- .... ....|--- .... ....
....|..|C-5 VF.7 ....|--- .... ....|--- .... ....
....|..|C-4 AF.7 ....|R-- .... ....|C#5 2F.A ....
....|..|C-4 AF.7 ....|--- .... ....|R-- .... ....
....|..|C-5 VF.7 ....|--- .... ....|A#4 2F.7 ....
....|..|C-5 VF.7 ....|--- .... ....|R-- .... ....
....|..|C-5 VF.7 ....|F#3 2F.7 ....|--- .... ....
....|..|C-5 VF.7 ....|--- .... ....|--- .... ....
....|..|C-5 VF.7 ....|--- .... ....|A#4 2F.7 ....
....|..|C-5 VF.7 ....|--- .... ....|R-- .... ....
....|..|C-4 AF.7 ....|R-- .... ....|F-5 2F.7 ....
....|..|C-4 AF.7 ....|--- .... ....|R-- .... ....
....|..|C-5 VF.7 ....|--- .... ....|--- .... ....
....|..|C-5 VF.7 ....|--- .... ....|--- .... ....
....|..|C-5 VF.7 ....|F#3 2F.7 ....|C#5 2F.7 ....
....|..|C-5 VF.7 ....|--- .... ....|R-- .... ....
....|..|C-5 VF.7 ....|--- .... ....|--- .... ....
....|..|C-5 VF.7 ....|--- .... ....|--- .... ....
....|..|C-4 AF.7 ....|R-- .... ....|--- .... ....
....|..|R-- .... ....|--- .... ....|--- .... ....
....|..|R-- .... ....|--- .... ....|--- .... ....
....|..|--- .... ....|--- .... ....|--- .... ....
....|..|--- .... ....|--- .... ....|--- .... ....
....|..|--- .... ....|--- .... ....|--- .... ....
....|..|--- .... ....|--- .... ....|--- .... ....
....|..|--- .... ....|--- .... ....|--- .... ....

[Pattern17]
....|..|--- .... ....|--- .... ....|--- .... ....
....|..|--- .... ....|--- .... ....|--- .... ....
....|..|--- .... ....|--- .... ....|--- .... ....
....|..|--- .... ....|--- .... ....|--- .... ....
....|..|--- .... ....|--- .... ....|--- .... ....
....|..|--- .... ....|--- .... ....|--- .... ....
....|..|--- .... ....|--- .... ....|--- .... ....
....|..|--- .... ....|--- .... ....|--- .... ....
....|..|--- .... ....|--- .... ....|--- .... ....
....|..|--- .... ....|--- .... ....|--- .... ....
....|..|--- .... ....|--- .... ....|--- .... ....
....|..|--- .... ....|--- .... ....|--- .... ....
....|..|--- .... ....|--- .... ....|--- .... ....
....|..|--- .... ....|--- .... ....|--- .... ....
....|..|--- .... ....|--- .... ....|--- .... ....
....|..|--- .... ....|--- .... ....|--- .... ....
....|..|--- .... ....|--- .... ....|--- .... ....
....|..|--- .... ....|--- .... ....|--- .... ....
....|..|--- .... ....|--- .... ....|--- .... ....
....|..|--- .... ....|--- .... ....|--- .... ....
....|..|--- .... ....|--- .... ....|--- .... ....
....|..|--- .... ....|--- .... ....|--- .... ....
....|..|--- .... ....|--- .... ....|--- .... ....
....|..|--- .... ....|--- .... ....|--- .... ....
....|..|--- .... ....|--- .... ....|--- .... ....
....|..|--- .... ....|--- .... ....|--- .... ....
....|..|--- .... ....|--- .... ....|--- .... ....
....|..|--- .... ....|--- .... ....|--- .... ....
....|..|--- .... ....|--- .... ....|--- .... ....
....|..|--- .... ....|--- .... ....|--- .... ....
....|..|--- .... ....|--- .... ....|--- .... ....
....|..|--- .... ....|--- .... ....|--- .... ....
....|..|C-4 AF.F ....|A#3 2F1F ....|--- .... ....
....|..|A#3 2F1F ....|--- .... ....|--- .... ....
....|..|R-- .... ....|--- .... ....|--- .... ....
....|..|--- .... ....|--- .... ....|--- .... ....
....|..|--- .... ....|--- .... ....|A#4 2F.F ....
....|..|--- .... ....|--- .... ....|--- .... ....
....|..|--- .... ....|--- .... ....|--- .... ....
....|..|--- .... ....|--- .... ....|--- .... ....
....|..|--- .... ....|--- .... ....|R-- .... ....
....|..|--- .... ....|--- .... ....|--- .... ....
....|..|--- .... ....|--- .... ....|--- .... ....
....|..|--- .... ....|--- .... ....|--- .... ....
....|..|C-4 AF.A ....|A#3 2F1A ....|A#4 2F.F ....
....|..|A#3 2F1A ....|--- .... ....|R-- .... ....
....|..|R-- .... ....|--- .... ....|--- .... ....
....|..|--- .... ....|--- .... ....|--- .... ....
....|..|--- .... ....|--- .... ....|A#4 2F.F ....
....|..|--- .... ....|--- .... ....|--- .... ....
....|..|--- .... ....|--- .... ....|R-- .... ....
....|..|--- .... ....|--- .... ....|--- .... ....
....|..|--- .... ....|--- .... ....|A#4 2F.F ....
....|..|--- .... ....|--- .... ....|R-- .... ....
....|..|--- .... ....|--- .... ....|C-5 2F.F ....
....|..|--- .... ....|--- .... ....|--- .... ....
....|..|C-4 AF.7 ....|A#3 2F17 ....|A#4 2F.A ....
....|..|A#3 2F17 ....|--- .... ....|R-- .... ....
....|..|R-- .... ....|--- .... ....|--- .... ....
....|..|--- .... ....|--- .... ....|--- .... ....
....|..|--- .... ....|--- .... ....|D-5 2F.F ....
....|..|--- .... ....|--- .... ....|--- .... ....
....|..|--- .... ....|--- .... ....|R-- .... ....
....|..|--- .... ....|--- .... ....|R-- .... ....

[Pattern18]
....|..|G-3 2F2F ....|G-3 2F2F ....|R-- .... ....
....|..|--- .... ....|--- .... ....|R-- .... ....
....|..|--- .... ....|--- .... ....|C-5 2F.A ....
....|..|--- .... ....|--- .... ....|--- .... ....
....|..|--- .... ....|--- .... ....|A#4 2F.7 ....
....|..|--- .... ....|--- .... ....|R-- .... ....
....|..|--- .... ....|--- .... ....|--- .... ....
....|..|--- .... ....|--- .... ....|--- .... ....
....|..|--- .... ....|--- .... ....|A#4 2F.7 ....
....|..|--- .... ....|--- .... ....|--- .... ....
....|..|--- .... ....|--- .... ....|R-- .... ....
....|..|--- .... ....|--- .... ....|R-- .... ....
....|..|G-3 2F2A ....|G-3 2F2A ....|A#4 2F.7 ....
....|..|--- .... ....|--- .... ....|R-- .... ....
....|..|--- .... ....|--- .... ....|C-5 2F.7 ....
....|..|--- .... ....|--- .... ....|--- .... ....
....|..|--- .... ....|--- .... ....|--- .... ....
....|..|--- .... ....|--- .... ....|R-- .... ....
....|..|--- .... ....|--- .... ....|--- .... ....
....|..|--- .... ....|--- .... ....|--- .... ....
....|..|--- .... ....|--- .... ....|D-5 2F.7 ....
....|..|--- .... ....|--- .... ....|--- .... ....
....|..|--- .... ....|--- .... ....|--- .... ....
....|..|--- .... ....|--- .... ....|R-- .... ....
....|..|G-3 2F27 ....|G-3 2F27 ....|--- .... ....
....|..|--- .... ....|--- .... ....|--- .... ....
....|..|--- .... ....|--- .... ....|--- .... ....
....|..|--- .... ....|--- .... ....|--- .... ....
....|..|--- .... ....|--- .... ....|--- .... ....
....|..|--- .... ....|--- .... ....|--- .... ....
....|..|--- .... ....|--- .... ....|--- .... ....
....|..|--- .... ....|--- .... ....|--- .... ....
....|..|D-3 2F5F ....|D-3 2F5F ....|--- .... ....
....|..|--- .... ....|--- .... ....|--- .... ....
....|..|--- .... ....|--- .... ....|--- .... ....
....|..|--- .... ....|--- .... ....|--- .... ....
....|..|--- .... ....|--- .... ....|A-4 2F.F ....
....|..|--- .... ....|--- .... ....|--- .... ....
....|..|--- .... ....|--- .... ....|--- .... ....
....|..|--- .... ....|--- .... ....|--- .... ....
....|..|--- .... ....|--- .... ....|R-- .... ....
....|..|--- .... ....|--- .... ....|--- .... ....
....|..|--- .... ....|--- .... ....|--- .... ....
....|..|--- .... ....|--- .... ....|--- .... ....
....|..|D-3 2F5A ....|D-3 2F5A ....|A-4 2F.F ....
....|..|--- .... ....|--- .... ....|--- .... ....
....|..|--- .... ....|--- .... ....|R-- .... ....
....|..|--- .... ....|--- .... ....|--- .... ....
....|..|--- .... ....|--- .... ....|A-4 2F.F ....
....|..|--- .... ....|--- .... ....|--- .... ....
....|..|--- .... ....|--- .... ....|R-- .... ....
....|..|--- .... ....|--- .... ....|--- .... ....
....|..|--- .... ....|--- .... ....|A-4 2F.F ....
....|..|--- .... ....|--- .... ....|--- .... ....
....|..|--- .... ....|--- .... ....|A#4 2F.F ....
....|..|--- .... ....|--- .... ....|--- .... ....
....|..|D-3 2F57 ....|D-3 2F57 ....|R-- .... ....
....|..|--- .... ....|--- .... ....|--- .... ....
....|..|--- .... ....|--- .... ....|R-- .... ....
....|..|--- .... ....|--- .... ....|--- .... ....
....|..|--- .... ....|--- .... ....|C-5 2F.F ....
....|..|--- .... ....|--- .... ....|--- .... ....
....|..|--- .... ....|--- .... ....|R-- .... ....
....|..|--- .... ....|--- .... ....|--- .... ....

[Pattern19]
....|..|D#3 2F6F ....|D#3 2F6F ....|R-- .... ....
....|..|--- .... ....|--- .... ....|--- .... ....
....|..|--- .... ....|--- .... ....|A#4 2F.A ....
....|..|--- .... ....|--- .... ....|--- .... ....
....|..|--- .... ....|--- .... ....|A-4 2F.7 ....
....|..|--- .... ....|--- .... ....|--- .... ....
....|..|--- .... ....|--- .... ....|R-- .... ....
....|..|--- .... ....|--- .... ....|--- .... ....
....|..|--- .... ....|--- .... ....|A-4 2F.7 ....
....|..|--- .... ....|--- .... ....|--- .... ....
....|..|--- .... ....|--- .... ....|R-- .... ....
....|..|--- .... ....|--- .... ....|--- .... ....
....|..|D#3 2F6A ....|D#3 2F6A ....|A-4 2F.7 ....
....|..|--- .... ....|--- .... ....|--- .... ....
....|..|--- .... ....|--- .... ....|A#4 2F.7 ....
....|..|--- .... ....|--- .... ....|--- .... ....
....|..|--- .... ....|--- .... ....|R-- .... ....
....|..|--- .... ....|--- .... ....|--- .... ....
....|..|--- .... ....|--- .... ....|--- .... ....
....|..|--- .... ....|--- .... ....|--- .... ....
....|..|--- .... ....|--- .... ....|C-5 2F.7 ....
....|..|--- .... ....|--- .... ....|--- .... ....
....|..|--- .... ....|--- .... ....|--- .... ....
....|..|--- .... ....|--- .... ....|--- .... ....
....|..|D#3 2F67 ....|D#3 2F67 ....|--- .... ....
....|..|--- .... ....|--- .... ....|--- .... ....
....|..|--- .... ....|--- .... ....|--- .... ....
....|..|--- .... ....|--- .... ....|--- .... ....
....|..|--- .... ....|--- .... ....|--- .... ....
....|..|--- .... ....|--- .... ....|--- .... ....
....|..|--- .... ....|--- .... ....|--- .... ....
....|..|--- .... ....|--- .... ....|--- .... ....
....|..|A#3 2F1F ....|A#3 2F1F ....|R-- .... ....
....|..|--- .... ....|--- .... ....|--- .... ....
....|..|--- .... ....|--- .... ....|--- .... ....
....|..|--- .... ....|--- .... ....|--- .... ....
....|..|--- .... ....|--- .... ....|A#4 2F.F ....
....|..|--- .... ....|--- .... ....|--- .... ....
....|..|--- .... ....|--- .... ....|--- .... ....
....|..|--- .... ....|--- .... ....|--- .... ....
....|..|--- .... ....|--- .... ....|R-- .... ....
....|..|--- .... ....|--- .... ....|--- .... ....
....|..|--- .... ....|--- .... ....|--- .... ....
....|..|--- .... ....|--- .... ....|--- .... ....
....|..|A#3 2F1A ....|A#3 2F1A ....|A#4 2F.F ....
....|..|--- .... ....|--- .... ....|R-- .... ....
....|..|--- .... ....|--- .... ....|--- .... ....
....|..|--- .... ....|--- .... ....|--- .... ....
....|..|--- .... ....|--- .... ....|A#4 2F.F ....
....|..|--- .... ....|--- .... ....|--- .... ....
....|..|--- .... ....|--- .... ....|R-- .... ....
....|..|--- .... ....|--- .... ....|--- .... ....
....|..|--- .... ....|--- .... ....|A#4 2F.F ....
....|..|--- .... ....|--- .... ....|R-- .... ....
....|..|--- .... ....|--- .... ....|C-5 2F.F ....
....|..|--- .... ....|--- .... ....|--- .... ....
....|..|A#3 2F17 ....|A#3 2F17 ....|A#4 2F.A ....
....|..|--- .... ....|--- .... ....|R-- .... ....
....|..|--- .... ....|--- .... ....|--- .... ....
....|..|--- .... ....|--- .... ....|--- .... ....
....|..|--- .... ....|--- .... ....|D-5 2F.F ....
....|..|--- .... ....|--- .... ....|--- .... ....
....|..|--- .... ....|--- .... ....|R-- .... ....
....|..|--- .... ....|--- .... ....|R-- .... ....

[Pattern21]
....|..|C-4 LF.F ....|D#3 2F6F ....|R-- .... ....
....|..|C-4 LF.F ....|--- .... ....|--- .... ....
....|..|C-4 LF.F ....|--- .... ....|A#4 2F.A ....
....|..|C-4 LF.F ....|--- .... ....|--- .... ....
....|..|C-4 LF.F ....|--- .... ....|D#5 2F.F ....
....|..|C-4 LF.F ....|--- .... ....|--- .... ....
....|..|C-4 LF.F ....|--- .... ....|R-- .... ....
....|..|C-4 LF.F ....|--- .... ....|--- .... ....
....|..|C-4 LF.F ....|--- .... ....|A-4 2F.7 ....
....|..|C-4 LF.F ....|--- .... ....|--- .... ....
....|..|C-4 LF.F ....|--- .... ....|R-- .... ....
....|..|C-4 LF.F ....|--- .... ....|--- .... ....
....|..|C-4 LF.F ....|D#3 2F6A ....|D#5 2F.F ....
....|..|C-4 LF.F ....|--- .... ....|R-- .... ....
....|..|C-4 LF.F ....|--- .... ....|A#4 2F.7 ....
....|..|C-4 LF.F ....|--- .... ....|--- .... ....
....|..|C-4 LF.F ....|--- .... ....|D#5 2F.F ....
....|..|C-4 LF.F ....|--- .... ....|--- .... ....
....|..|C-4 LF.F ....|--- .... ....|R-- .... ....
....|..|C-4 LF.F ....|--- .... ....|--- .... ....
....|..|C-4 LF.F ....|--- .... ....|C-5 2F.7 ....
....|..|C-4 LF.F ....|--- .... ....|--- .... ....
....|..|C-4 LF.F ....|--- .... ....|--- .... ....
....|..|C-4 LF.F ....|--- .... ....|--- .... ....
....|..|C-4 LF.F ....|D#3 2F67 ....|C-5 2F.F ....
....|..|C-4 LF.F ....|--- .... ....|R-- .... ....
....|..|C-4 LF.F ....|--- .... ....|--- .... ....
....|..|C-4 LF.F ....|--- .... ....|--- .... ....
....|..|C-4 LF.F ....|--- .... ....|D#5 2F.7 ....
....|..|C-4 LF.F ....|--- .... ....|--- .... ....
....|..|C-4 LF.F ....|--- .... ....|R-- .... ....
....|..|C-4 LF.F ....|--- .... ....|--- .... ....
....|..|C-4 AF.F ....|A#3 2F1F ....|R-- .... ....
....|..|A#3 2F1F ....|--- .... ....|--- .... ....
 A#3|..|C-4 LF.F ....|A#3 2C.F ....|--- .... ....
....|..|C-4 LF.7 ....|R-- .... ....|--- .... ....
....|..|C-4 LF.F ....|--- .... ....|A#4 2F.F ....
....|..|C-4 LF.7 ....|--- .... ....|R-- .... ....
....|..|C-4 LF.F ....|--- .... ....|--- .... ....
....|..|C-4 LF.7 ....|--- .... ....|--- .... ....
 A#3|..|C-4 BF.F ....|A#3 2C.F ....|D#5 2F.7 ....
....|..|C-4 LF.7 ....|R-- .... ....|--- .... ....
....|..|C-4 LF.F ....|--- .... ....|R-- .... ....
....|..|C-4 LF.7 ....|--- .... ....|--- .... ....
 A#3|..|C-4 LF.F ....|A#3 2C.F ....|A#4 2F.F ....
....|..|C-4 LF.7 ....|R-- .... ....|R-- .... ....
....|..|C-4 LF.F ....|A#3 2F.A ....|--- .... ....
....|..|C-4 LF.7 ....|R-- .... ....|--- .... ....
....|..|C-4 LF.F ....|--- .... ....|A#4 2F.F ....
....|..|C-4 LF.7 ....|--- .... ....|--- .... ....
 A#3|..|C-4 LF.F ....|A#3 2C.F ....|R-- .... ....
....|..|C-4 LF.7 ....|R-- .... ....|--- .... ....
....|..|C-4 LF.F ....|A#3 2F.A ....|A#4 2F.F ....
....|..|C-4 LF.7 ....|R-- .... ....|R-- .... ....
....|..|C-4 LF.F ....|--- .... ....|C-5 2F.F ....
....|..|C-4 LF.7 ....|--- .... ....|--- .... ....
 A#3|..|C-4 BF.F ....|A#3 2C.F ....|A#4 2F.A ....
....|..|A#3 2F17 ....|R-- .... ....|R-- .... ....
....|..|C-4 LF.F ....|A#3 2F.7 ....|--- .... ....
....|..|--- .... ....|R-- .... ....|--- .... ....
 A#3|..|C-4 LF.F ....|A#3 2C.F ....|D-5 2F.F ....
....|..|--- .... ....|R-- .... ....|--- .... ....
....|..|C-4 LF.F ....|A#3 2F.A ....|R-- .... ....
....|..|--- .... ....|R-- .... ....|R-- .... ....

[Pattern22]
....|..|C-4 LF.F ....|G-3 2F2F ....|R-- .... ....
....|..|G-3 2F2F ....|R-- .... ....|R-- .... ....
 G-4|..|C-4 LF.F ....|G-3 2C.F ....|C-5 2F.A ....
....|..|--- .... ....|R-- .... ....|--- .... ....
....|..|C-4 LF.F ....|A#3 2F.7 ....|F-5 2F.F ....
....|..|--- .... ....|R-- .... ....|R-- .... ....
....|..|C-4 LF.F ....|--- .... ....|--- .... ....
....|..|--- .... ....|--- .... ....|--- .... ....
 G-4|..|C-4 BF.F ....|G-3 2C.F ....|A#4 2F.7 ....
....|..|--- .... ....|R-- .... ....|--- .... ....
....|..|C-4 LF.F ....|A#3 2F.7 ....|R-- .... ....
....|..|--- .... ....|R-- .... ....|R-- .... ....
 G-4|..|C-4 LF.F ....|G-3 2C.F ....|F-5 2F.F ....
....|..|G-3 2F2A ....|R-- .... ....|R-- .... ....
....|..|C-4 LF.F ....|G-3 2F.A ....|C-5 2F.7 ....
....|..|--- .... ....|R-- .... ....|--- .... ....
....|..|C-4 LF.F ....|A#3 2F.7 ....|F-5 2F.F ....
....|..|--- .... ....|R-- .... ....|R-- .... ....
 G-4|..|C-4 LF.F ....|G-3 2C.F ....|--- .... ....
....|..|--- .... ....|R-- .... ....|--- .... ....
....|..|C-4 LF.F ....|A#3 2F.7 ....|D-5 2F.7 ....
....|..|--- .... ....|R-- .... ....|--- .... ....
....|..|C-4 LF.F ....|--- .... ....|--- .... ....
....|..|--- .... ....|--- .... ....|R-- .... ....
 G-4|..|C-4 BF.F ....|G-3 2C.F ....|F-5 2F.A ....
....|..|G-3 2F27 ....|R-- .... ....|R-- .... ....
....|..|C-4 LF.F ....|G-3 2F.7 ....|--- .... ....
....|..|--- .... ....|R-- .... ....|--- .... ....
 G-4|..|C-4 LF.F ....|G-3 2C.F ....|F-5 2F.7 ....
....|..|--- .... ....|R-- .... ....|--- .... ....
....|..|C-4 LF.F ....|G-3 2F.A ....|--- .... ....
....|..|--- .... ....|R-- .... ....|--- .... ....
....|..|C-4 LF.F ....|D-3 2F5F ....|R-- .... ....
....|..|D-3 2F5F ....|R-- .... ....|R-- .... ....
 D-4|..|C-4 LF.F ....|D-4 2C.F ....|--- .... ....
....|..|--- .... ....|R-- .... ....|--- .... ....
....|..|C-4 LF.F ....|G-3 2F.7 ....|A-4 2F.F ....
....|..|--- .... ....|R-- .... ....|R-- .... ....
....|..|C-4 LF.F ....|--- .... ....|--- .... ....
....|..|--- .... ....|--- .... ....|--- .... ....
 D-4|..|C-4 BF.F ....|D-4 2C.F ....|F-5 2F.7 ....
....|..|--- .... ....|R-- .... ....|--- .... ....
....|..|C-4 LF.F ....|G-3 2F.7 ....|--- .... ....
....|..|--- .... ....|R-- .... ....|--- .... ....
 D-4|..|C-4 LF.F ....|D-4 2C.F ....|A-4 2F.F ....
....|..|D-3 2F5A ....|R-- .... ....|R-- .... ....
....|..|C-4 LF.F ....|D-4 2F.A ....|R-- .... ....
....|..|--- .... ....|R-- .... ....|--- .... ....
....|..|C-4 LF.F ....|G-3 2F.7 ....|A-4 2F.F ....
....|..|--- .... ....|R-- .... ....|--- .... ....
 D-4|..|C-4 LF.F ....|D-4 2C.F ....|R-- .... ....
....|..|--- .... ....|R-- .... ....|--- .... ....
....|..|C-4 LF.F ....|G-3 2F.7 ....|A-4 2F.F ....
....|..|--- .... ....|R-- .... ....|--- .... ....
....|..|C-4 LF.F ....|--- .... ....|A#4 2F.F ....
....|..|--- .... ....|--- .... ....|--- .... ....
 D-4|..|C-4 BF.F ....|D-4 2C.F ....|R-- .... ....
....|..|D-3 2F57 ....|R-- .... ....|R-- .... ....
....|..|C-4 LF.F ....|D-4 2F.7 ....|R-- .... ....
....|..|--- .... ....|R-- .... ....|--- .... ....
 D-4|..|C-4 LF.F ....|D-4 2C.F ....|C-5 2F.F ....
....|..|--- .... ....|R-- .... ....|--- .... ....
....|..|C-4 LF.F ....|D-4 2F.A ....|R-- .... ....
....|..|--- .... ....|R-- .... ....|--- .... ....

[Pattern23]
....|..|C-4 LF.F ....|D#3 2F6F ....|R-- .... ....
....|..|D#3 2F6F ....|R-- .... ....|--- .... ....
 D#4|..|C-4 LF.F ....|D#3 2C.F ....|A#4 2F.A ....
....|..|--- .... ....|R-- .... ....|--- .... ....
....|..|C-4 LF.F ....|D-4 2F.7 ....|A#4 2F.F ....
....|..|--- .... ....|R-- .... ....|--- .... ....
....|..|C-4 LF.F ....|--- .... ....|R-- .... ....
....|..|--- .... ....|--- .... ....|--- .... ....
 D#4|..|C-4 BF.F ....|D#3 2C.F ....|A-4 2F.7 ....
....|..|--- .... ....|R-- .... ....|--- .... ....
....|..|C-4 LF.F ....|D-4 2F.7 ....|R-- .... ....
....|..|--- .... ....|R-- .... ....|--- .... ....
 D#4|..|C-4 LF.F ....|D#3 2C.F ....|A#4 2F.F ....
....|..|D#3 2F6A ....|R-- .... ....|R-- .... ....
....|..|C-4 LF.F ....|D#3 2F.A ....|A#4 2F.7 ....
....|..|--- .... ....|R-- .... ....|--- .... ....
....|..|C-4 LF.F ....|D-4 2F.7 ....|A#4 2F.F ....
....|..|--- .... ....|R-- .... ....|--- .... ....
 D#4|..|C-4 LF.F ....|D#3 2C.F ....|R-- .... ....
....|..|--- .... ....|R-- .... ....|--- .... ....
....|..|C-4 LF.F ....|D-4 2F.7 ....|C-5 2F.7 ....
....|..|--- .... ....|R-- .... ....|--- .... ....
....|..|C-4 LF.F ....|--- .... ....|--- .... ....
....|..|--- .... ....|--- .... ....|--- .... ....
 D#4|..|C-4 BF.F ....|D#3 2C.F ....|C-5 2F.F ....
....|..|D#3 2F67 ....|R-- .... ....|R-- .... ....
....|..|C-4 LF.F ....|D#3 2F.7 ....|--- .... ....
....|..|--- .... ....|R-- .... ....|--- .... ....
 D#4|..|C-4 LF.F ....|D#3 2C.F ....|A#4 2F.7 ....
....|..|--- .... ....|R-- .... ....|--- .... ....
....|..|C-4 LF.F ....|D#3 2F.A ....|R-- .... ....
....|..|--- .... ....|R-- .... ....|R-- .... ....
....|..|C-4 AF.F ....|A#3 2F1F ....|--- .... ....
....|..|A#3 2F1F ....|R-- .... ....|--- .... ....
 A#3|..|C-5 VF.F ....|A#3 2C.F ....|--- .... ....
....|..|--- .... ....|R-- .... ....|--- .... ....
....|..|C-5 VF.F ....|D#3 2F.7 ....|A#4 2F.F ....
....|..|--- .... ....|R-- .... ....|R-- .... ....
....|..|C-5 VF.F ....|--- .... ....|--- .... ....
....|..|--- .... ....|--- .... ....|--- .... ....
 A#3|..|C-4 BF.F ....|A#3 2C.F ....|A#4 2F.7 ....
....|..|--- .... ....|R-- .... ....|--- .... ....
....|..|C-5 VF.F ....|D#3 2F.7 ....|R-- .... ....
....|..|--- .... ....|R-- .... ....|R-- .... ....
 A#3|..|C-5 VF.F ....|A#3 2C.F ....|A#4 2F.F ....
....|..|A#3 2F1A ....|R-- .... ....|R-- .... ....
....|..|C-5 VF.F ....|A#3 2F.A ....|--- .... ....
....|..|--- .... ....|R-- .... ....|--- .... ....
....|..|C-5 VF.F ....|D#3 2F.7 ....|A#4 2F.F ....
....|..|--- .... ....|R-- .... ....|--- .... ....
 A#3|..|C-5 VF.F ....|A#3 2C.F ....|R-- .... ....
....|..|--- .... ....|R-- .... ....|--- .... ....
....|..|C-5 VF.F ....|D#3 2F.7 ....|A#4 2F.F ....
....|..|--- .... ....|R-- .... ....|R-- .... ....
....|..|C-5 VF.F ....|--- .... ....|C-5 2F.F ....
....|..|--- .... ....|--- .... ....|R-- .... ....
 A#3|..|C-4 BF.F ....|A#3 2C.F ....|A#4 2F.A ....
....|..|A#3 2F17 ....|R-- .... ....|R-- .... ....
....|..|C-5 VF.F ....|A#3 2F.7 ....|--- .... ....
....|..|--- .... ....|R-- .... ....|--- .... ....
 A#3|..|C-5 VF.F ....|A#3 2C.F ....|D-5 2F.F ....
....|..|--- .... ....|R-- .... ....|--- .... ....
....|..|C-5 VF.F ....|A#3 2F.A ....|R-- .... ....
....|..|--- .... ....|R-- .... ....|R-- .... ....

[Pattern24]
....|..|C-5 VF.F ....|G-3 2F2F ....|R-- .... ....
....|..|G-3 2F2F ....|R-- .... ....|R-- .... ....
 G-4|..|C-5 VF.F ....|G-3 2C.F ....|C-5 2F.A ....
....|..|--- .... ....|R-- .... ....|--- .... ....
....|..|C-5 VF.F ....|A#3 2F.7 ....|F-5 2F.F ....
....|..|--- .... ....|R-- .... ....|R-- .... ....
....|..|C-5 VF.F ....|--- .... ....|--- .... ....
....|..|--- .... ....|--- .... ....|--- .... ....
 G-4|..|C-4 BF.F ....|G-3 2C.F ....|A#4 2F.7 ....
....|..|--- .... ....|R-- .... ....|--- .... ....
....|..|C-5 VF.F ....|A#3 2F.7 ....|R-- .... ....
....|..|--- .... ....|R-- .... ....|R-- .... ....
 G-4|..|C-5 VF.F ....|G-3 2C.F ....|F-5 2F.F ....
....|..|G-3 2F2A ....|R-- .... ....|R-- .... ....
....|..|C-5 VF.F ....|G-3 2F.A ....|C-5 2F.7 ....
....|..|--- .... ....|R-- .... ....|--- .... ....
....|..|C-5 VF.F ....|A#3 2F.7 ....|F-5 2F.F ....
....|..|--- .... ....|R-- .... ....|--- .... ....
 G-4|..|C-5 VF.F ....|G-3 2C.F ....|--- .... ....
....|..|--- .... ....|R-- .... ....|--- .... ....
....|..|C-5 VF.F ....|A#3 2F.7 ....|G-5 2F.. 31.4
....|..|--- .... ....|R-- .... ....|--- .... ....
....|..|C-5 VF.F ....|--- .... ....|--- .... ....
....|..|--- .... ....|--- .... ....|--- .... ....
 G-4|..|C-4 BF.F ....|G-3 2C.F ....|F-5 2F.F 31.4
....|..|G-3 2F27 ....|R-- .... ....|--- .... ....
....|..|C-5 VF.F ....|G-3 2F.7 ....|R-- .... ....
....|..|--- .... ....|R-- .... ....|--- .... ....
 G-4|..|C-5 VF.F ....|G-3 2C.F ....|F-5 2F.A ....
....|..|--- .... ....|R-- .... ....|--- .... ....
....|..|C-5 VF.F ....|G-3 2F.A ....|--- .... ....
....|..|--- .... ....|R-- .... ....|--- .... ....
....|..|C-5 VF.F ....|D-3 2F5F ....|G-5 2F.. 31.4
....|..|D-3 2F5F ....|R-- .... ....|--- .... ....
 D-4|..|C-5 VF.F ....|D-4 2C.F ....|--- .... ....
....|..|--- .... ....|R-- .... ....|--- .... ....
....|..|C-5 VF.F ....|G-3 2F.7 ....|A-4 2F.F ....
....|..|--- .... ....|R-- .... ....|R-- .... ....
....|..|C-5 VF.F ....|--- .... ....|--- .... ....
....|..|--- .... ....|--- .... ....|--- .... ....
 D-4|..|C-4 BF.F ....|D-4 2C.F ....|F-5 2F.7 ....
....|..|--- .... ....|R-- .... ....|--- .... ....
....|..|C-5 VF.F ....|G-3 2F.7 ....|--- .... ....
....|..|--- .... ....|R-- .... ....|--- .... ....
 D-4|..|C-5 VF.F ....|D-4 2C.F ....|A-4 2F.F ....
....|..|D-3 2F5A ....|R-- .... ....|R-- .... ....
....|..|C-5 VF.F ....|D-4 2F.A ....|R-- .... ....
....|..|--- .... ....|R-- .... ....|--- .... ....
....|..|C-5 VF.F ....|G-3 2F.7 ....|A-4 2F.F ....
....|..|--- .... ....|R-- .... ....|--- .... ....
 D-4|..|C-5 VF.F ....|D-4 2C.F ....|R-- .... ....
....|..|--- .... ....|R-- .... ....|--- .... ....
....|..|C-5 VF.F ....|G-3 2F.7 ....|A-4 2F.F ....
....|..|--- .... ....|R-- .... ....|--- .... ....
....|..|C-5 VF.F ....|--- .... ....|A#4 2F.F ....
....|..|--- .... ....|--- .... ....|--- .... ....
 D-4|..|C-4 BF.F ....|D-4 2C.F ....|R-- .... ....
....|..|D-3 2F57 ....|R-- .... ....|R-- .... ....
....|..|C-5 VF.F ....|D-4 2F.7 ....|R-- .... ....
....|..|--- .... ....|R-- .... ....|--- .... ....
 D-4|..|C-5 VF.F ....|D-4 2C.F ....|C-5 2F.F ....
....|..|--- .... ....|R-- .... ....|--- .... ....
....|..|C-5 VF.F ....|D-4 2F.A ....|R-- .... ....
....|..|--- .... ....|R-- .... ....|--- .... ....

[Pattern25]
....|..|C-5 VF.F ....|D#3 2F6F ....|R-- .... ....
....|..|C-5 VF.F ....|R-- .... ....|--- .... ....
 D#4|..|C-5 VF.F ....|D#3 2C.F ....|A#4 2F.A ....
....|..|C-5 VF.F ....|R-- .... ....|--- .... ....
....|..|C-5 VF.F ....|D-4 2F.7 ....|A#4 2F.F ....
....|..|C-5 VF.F ....|R-- .... ....|--- .... ....
....|..|C-5 VF.F ....|--- .... ....|R-- .... ....
....|..|C-5 VF.F ....|--- .... ....|--- .... ....
 D#4|..|C-5 VF.F ....|D#3 2C.F ....|A-4 2F.7 ....
....|..|C-5 VF.F ....|R-- .... ....|--- .... ....
....|..|C-5 VF.F ....|D-4 2F.7 ....|R-- .... ....
....|..|C-5 VF.F ....|R-- .... ....|--- .... ....
 D#4|..|C-5 VF.F ....|D#3 2C.F ....|A#4 2F.F ....
....|..|C-5 VF.F ....|R-- .... ....|R-- .... ....
....|..|C-5 VF.F ....|D#3 2F.A ....|A#4 2F.7 ....
....|..|C-5 VF.F ....|R-- .... ....|--- .... ....
....|..|C-5 VF.F ....|D-4 2F.7 ....|A#4 2F.F ....
....|..|C-5 VF.F ....|R-- .... ....|--- .... ....
 D#4|..|C-5 VF.F ....|D#3 2C.F ....|--- .... ....
....|..|C-5 VF.F ....|R-- .... ....|--- .... ....
....|..|C-5 VF.F ....|D-4 2F.7 ....|C-5 .... 31.8
....|..|C-5 VF.F ....|R-- .... ....|--- .... ....
....|..|C-5 VF.F ....|--- .... ....|--- .... ....
....|..|C-5 VF.F ....|--- .... ....|--- .... ....
 D#4|..|C-5 VF.F ....|D#3 2C.F ....|A#4 2F.F 31.8
....|..|C-5 VF.F ....|R-- .... ....|--- .... ....
....|..|C-5 VF.F ....|D#3 2F.7 ....|R-- .... ....
....|..|C-5 VF.F ....|R-- .... ....|--- .... ....
 D#4|..|C-5 VF.F ....|D#3 2C.F ....|A#4 2F.7 ....
....|..|C-5 VF.F ....|R-- .... ....|--- .... ....
....|..|C-5 VF.F ....|D#3 2F.A ....|R-- .... ....
....|..|C-5 VF.F ....|R-- .... ....|R-- .... ....
....|..|C-4 AF.F ....|A#3 2F1F ....|--- .... ....
....|..|A#3 2F1F ....|R-- .... ....|--- .... ....
 A#3|..|B-8 JF.F ....|A#3 2C.F ....|--- .... ....
....|..|C-5 VF.7 ....|R-- .... ....|--- .... ....
....|..|C-3 RF.F ....|D#3 2F.7 ....|A#4 2F.F ....
 A#3|..|A#1 2A.F ....|R-- .... ....|R-- .... ....
....|..|C-4 LF.F ....|--- .... ....|--- .... ....
....|..|C-5 VF.7 ....|--- .... ....|--- .... ....
 A#3|..|C-4 AF.F ....|A#3 2C.F ....|A#4 2F.7 ....
....|..|C-5 VF.7 ....|R-- .... ....|--- .... ....
....|..|B-8 JF.F ....|D#3 2F.7 ....|R-- .... ....
....|..|C-5 VF.7 ....|R-- .... ....|R-- .... ....
 A#3|..|C-3 RF.F ....|A#3 2C.F ....|A#4 2F.F ....
 A#3|..|A#1 2A.F ....|R-- .... ....|R-- .... ....
....|..|C-4 LF.F ....|A#3 2F.A ....|--- .... ....
....|..|C-5 VF.7 ....|R-- .... ....|--- .... ....
....|..|C-4 AF.F ....|D#3 2F.7 ....|A#4 2F.F ....
....|..|C-5 VF.7 ....|R-- .... ....|--- .... ....
 A#3|..|B-8 JF.F ....|A#3 2C.F ....|R-- .... ....
....|..|C-5 VF.7 ....|R-- .... ....|--- .... ....
....|..|C-3 RF.F ....|D#3 2F.7 ....|A#4 2F.F ....
 A#3|..|A#1 2A.F ....|R-- .... ....|R-- .... ....
....|..|C-4 LF.F ....|--- .... ....|C-5 2F.F ....
....|..|C-5 VF.7 ....|--- .... ....|R-- .... ....
 A#3|..|C-4 AF.F ....|A#3 2C.F ....|A#4 2F.A ....
....|..|A#3 2F17 ....|R-- .... ....|R-- .... ....
....|..|B-8 JF.F ....|A#3 2F.7 ....|--- .... ....
....|..|--- .... ....|R-- .... ....|--- .... ....
 A#3|..|C-3 RF.F ....|A#3 2C.F ....|D-5 2F.F ....
 A#3|..|A#1 2A.F ....|R-- .... ....|--- .... ....
....|..|C-4 LF.F ....|A#3 2F.A ....|R-- .... ....
....|..|--- .... ....|R-- .... ....|R-- .... ....

[Pattern26]
....|..|C-4 AF.F ....|G-3 2F2F ....|R-- .... ....
....|..|G-3 2F2F ....|R-- .... ....|R-- .... ....
 G-4|..|B-8 JF.F ....|G-3 2C.F ....|C-5 2F.A ....
....|..|--- .... ....|R-- .... ....|--- .... ....
....|..|C-3 RF.F ....|A#3 2F.7 ....|F-5 2F.F ....
 G-3|..|G-1 2A.F ....|R-- .... ....|R-- .... ....
....|..|C-4 LF.F ....|--- .... ....|--- .... ....
....|..|--- .... ....|--- .... ....|--- .... ....
 G-4|..|C-4 AF.F ....|G-3 2C.F ....|A#4 2F.7 ....
....|..|R-- .... ....|R-- .... ....|--- .... ....
....|..|B-8 JF.F ....|A#3 2F.7 ....|R-- .... ....
....|..|--- .... ....|R-- .... ....|R-- .... ....
 G-4|..|C-3 RF.F ....|G-3 2C.F ....|F-5 2F.F ....
 G-3|..|G-1 2A.F ....|R-- .... ....|R-- .... ....
....|..|C-4 LF.F ....|G-3 2F.A ....|C-5 2F.7 ....
....|..|--- .... ....|R-- .... ....|--- .... ....
....|..|C-4 AF.F ....|A#3 2F.7 ....|F-5 2F.F ....
....|..|R-- .... ....|R-- .... ....|--- .... ....
 G-4|..|B-8 JF.F ....|G-3 2C.F ....|--- .... ....
....|..|--- .... ....|R-- .... ....|--- .... ....
....|..|C-3 RF.F ....|A#3 2F.7 ....|G-5 2F.F 31.6
 G-3|..|G-1 2A.F ....|R-- .... ....|--- .... ....
....|..|C-4 LF.F ....|--- .... ....|--- .... ....
....|..|--- .... ....|--- .... ....|--- .... ....
 G-4|..|C-4 AF.F ....|G-3 2C.F ....|F-5 2F.F ....
....|..|G-3 2F27 ....|R-- .... ....|R-- .... ....
....|..|B-8 JF.F ....|G-3 2F.7 ....|--- .... ....
....|..|--- .... ....|R-- .... ....|--- .... ....
 G-4|..|C-3 RF.F ....|G-3 2C.F ....|F-5 2F.7 ....
 G-3|..|G-1 2A.F ....|R-- .... ....|--- .... ....
....|..|C-4 LF.F ....|G-3 2F.A ....|--- .... ....
....|..|--- .... ....|R-- .... ....|--- .... ....
....|..|C-4 AF.F ....|D-3 2F5F ....|R-- .... ....
....|..|D-3 2F5F ....|R-- .... ....|R-- .... ....
 D-4|..|B-8 JF.F ....|D-4 2C.F ....|--- .... ....
....|..|--- .... ....|R-- .... ....|--- .... ....
....|..|C-3 RF.F ....|G-3 2F.7 ....|A-4 2F.F ....
 D-4|..|D-2 2A.F ....|R-- .... ....|R-- .... ....
....|..|C-4 LF.F ....|--- .... ....|--- .... ....
....|..|--- .... ....|--- .... ....|--- .... ....
 D-4|..|C-4 AF.F ....|D-4 2C.F ....|F-5 2F.7 ....
....|..|R-- .... ....|R-- .... ....|--- .... ....
....|..|B-8 JF.F ....|G-3 2F.7 ....|--- .... ....
....|..|--- .... ....|R-- .... ....|--- .... ....
 D-4|..|C-3 RF.F ....|D-4 2C.F ....|A-4 2F.F ....
 D-4|..|D-2 2A.F ....|R-- .... ....|R-- .... ....
....|..|C-4 LF.F ....|D-4 2F.A ....|R-- .... ....
....|..|--- .... ....|R-- .... ....|--- .... ....
....|..|C-4 AF.F ....|G-3 2F.7 ....|A-4 2F.F ....
....|..|R-- .... ....|R-- .... ....|--- .... ....
 D-4|..|B-8 JF.F ....|D-4 2C.F ....|R-- .... ....
....|..|--- .... ....|R-- .... ....|--- .... ....
....|..|C-3 RF.F ....|G-3 2F.7 ....|A-4 2F.F ....
 D-4|..|D-2 2A.F ....|R-- .... ....|--- .... ....
....|..|C-4 LF.F ....|--- .... ....|A#4 2F.F ....
....|..|--- .... ....|--- .... ....|--- .... ....
 D-4|..|C-4 AF.F ....|D-4 2C.F ....|R-- .... ....
....|..|D-3 2F57 ....|R-- .... ....|R-- .... ....
....|..|B-8 JF.F ....|D-4 2F.7 ....|R-- .... ....
....|..|--- .... ....|R-- .... ....|--- .... ....
 D-4|..|C-3 RF.F ....|D-4 2C.F ....|C-5 2F.F ....
 D-4|..|D-2 2A.F ....|R-- .... ....|--- .... ....
....|..|C-4 LF.F ....|D-4 2F.A ....|R-- .... ....
....|..|--- .... ....|R-- .... ....|--- .... ....

[Pattern27]
....|..|C-4 AF.F ....|D#3 2F6F ....|R-- .... ....
....|..|D#3 2F6F ....|R-- .... ....|--- .... ....
 D#4|..|B-8 JF.F ....|D#3 2C.F ....|A#4 2F.A ....
....|..|--- .... ....|R-- .... ....|--- .... ....
....|..|C-3 RF.F ....|D-4 2F.7 ....|A#4 2F.F ....
 D#4|..|D#2 2A.F ....|R-- .... ....|--- .... ....
....|..|C-4 LF.F ....|--- .... ....|R-- .... ....
....|..|--- .... ....|--- .... ....|--- .... ....
 D#4|..|C-4 AF.F ....|D#3 2C.F ....|A-4 2F.7 ....
....|..|R-- .... ....|R-- .... ....|--- .... ....
....|..|B-8 JF.F ....|D-4 2F.7 ....|R-- .... ....
....|..|--- .... ....|R-- .... ....|--- .... ....
 D#4|..|C-3 RF.F ....|D#3 2C.F ....|A#4 2F.F ....
 D#4|..|D#2 2A.F ....|R-- .... ....|R-- .... ....
....|..|C-4 LF.F ....|D#3 2F.A ....|A#4 2F.7 ....
....|..|--- .... ....|R-- .... ....|--- .... ....
....|..|C-4 AF.F ....|D-4 2F.7 ....|A#4 2F.F ....
....|..|R-- .... ....|R-- .... ....|--- .... ....
 D#4|..|B-8 JF.F ....|D#3 2C.F ....|R-- .... ....
....|..|--- .... ....|R-- .... ....|--- .... ....
....|..|C-3 RF.F ....|D-4 2F.7 ....|C-5 2F.7 ....
 D#4|..|D#2 2A.F ....|R-- .... ....|--- .... ....
....|..|C-4 LF.F ....|--- .... ....|--- .... ....
....|..|--- .... ....|--- .... ....|--- .... ....
 D#4|..|C-4 AF.F ....|D#3 2C.F ....|C-5 2F.F ....
....|..|D#3 2F67 ....|R-- .... ....|R-- .... ....
....|..|B-8 JF.F ....|D#3 2F.7 ....|--- .... ....
....|..|--- .... ....|R-- .... ....|--- .... ....
 D#4|..|C-3 RF.F ....|D#3 2C.F ....|A#4 2F.7 ....
 D#4|..|D#2 2A.F ....|R-- .... ....|--- .... ....
....|..|C-4 LF.F ....|D#3 2F.A ....|R-- .... ....
....|..|--- .... ....|R-- .... ....|R-- .... ....
....|..|C-4 AF.F ....|A#3 2F1F ....|--- .... ....
....|..|A#3 2F1F ....|R-- .... ....|--- .... ....
 A#3|..|B-8 JF.F ....|A#3 2C.F ....|--- .... ....
....|..|--- .... ....|R-- .... ....|--- .... ....
....|..|C-3 RF.F ....|D#3 2F.7 ....|A#4 2F.F ....
 A#3|..|A#1 2A.F ....|R-- .... ....|R-- .... ....
....|..|C-4 LF.F ....|--- .... ....|--- .... ....
....|..|--- .... ....|--- .... ....|--- .... ....
 A#3|..|C-4 AF.F ....|A#3 2C.F ....|A#4 2F.7 ....
....|..|R-- .... ....|R-- .... ....|--- .... ....
....|..|B-8 JF.F ....|D#3 2F.7 ....|R-- .... ....
....|..|--- .... ....|R-- .... ....|R-- .... ....
 A#3|..|C-3 RF.F ....|A#3 2C.F ....|A#4 2F.F ....
 A#3|..|A#1 2A.F ....|R-- .... ....|R-- .... ....
....|..|C-4 LF.F ....|A#3 2F.A ....|--- .... ....
....|..|--- .... ....|R-- .... ....|--- .... ....
....|..|C-4 AF.F ....|D#3 2F.7 ....|A#4 2F.F ....
....|..|R-- .... ....|R-- .... ....|--- .... ....
 A#3|..|B-8 JF.F ....|A#3 2C.F ....|R-- .... ....
....|..|--- .... ....|R-- .... ....|--- .... ....
....|..|C-3 RF.F ....|D#3 2F.7 ....|A#4 2F.F ....
 A#3|..|A#1 2A.F ....|R-- .... ....|R-- .... ....
....|..|C-4 LF.F ....|--- .... ....|C-5 2F.F ....
....|..|--- .... ....|--- .... ....|R-- .... ....
 A#3|..|C-4 AF.F ....|A#3 2C.F ....|A#4 2F.A ....
....|..|A#3 2F17 ....|R-- .... ....|R-- .... ....
....|..|B-8 JF.F ....|A#3 2F.7 ....|--- .... ....
....|..|--- .... ....|R-- .... ....|--- .... ....
 A#3|..|C-3 RF.F ....|A#3 2C.F ....|D-5 2F.F ....
 A#3|..|A#1 2A.F ....|R-- .... ....|--- .... ....
....|..|C-4 LF.F ....|A#3 2F.A ....|R-- .... ....
....|..|--- .... ....|R-- .... ....|R-- .... ....

[Pattern29]
....|..|C-4 AF.F ....|D#3 2F6F ....|R-- .... ....
....|..|D#3 2F6F ....|R-- .... ....|--- .... ....
 D#4|..|B-8 JF.F ....|D#3 2C.F ....|A#4 2F.A ....
....|..|--- .... ....|R-- .... ....|--- .... ....
....|..|C-3 RF.F ....|D-4 2F.7 ....|A#4 2F.F ....
 D#4|..|D#2 2A.F ....|R-- .... ....|--- .... ....
....|..|C-4 LF.F ....|--- .... ....|R-- .... ....
....|..|--- .... ....|--- .... ....|--- .... ....
 D#4|..|C-4 AF.F ....|D#3 2C.F ....|A-4 2F.7 ....
....|..|R-- .... ....|R-- .... ....|--- .... ....
....|..|B-8 JF.F ....|D-4 2F.7 ....|R-- .... ....
....|..|--- .... ....|R-- .... ....|--- .... ....
 D#4|..|C-3 RF.F ....|D#3 2C.F ....|A#4 2F.F ....
 D#4|..|D#2 2A.F ....|R-- .... ....|R-- .... ....
....|..|C-4 LF.F ....|D#3 2F.A ....|A#4 2F.7 ....
....|..|--- .... ....|R-- .... ....|--- .... ....
....|..|C-4 AF.F ....|D-4 2F.7 ....|A#4 2F.F ....
....|..|R-- .... ....|R-- .... ....|--- .... ....
 D#4|..|B-8 JF.F ....|D#3 2C.F ....|R-- .... ....
....|..|--- .... ....|R-- .... ....|--- .... ....
....|..|C-3 RF.F ....|D-4 2F.7 ....|C-5 2F.7 ....
 D#4|..|D#2 2A.F ....|R-- .... ....|--- .... ....
....|..|C-4 LF.F ....|--- .... ....|--- .... ....
....|..|--- .... ....|--- .... ....|--- .... ....
 D#4|..|C-4 AF.F ....|D#3 2C.F ....|C-5 2F.F ....
....|..|D#3 2F67 ....|R-- .... ....|R-- .... ....
....|..|B-8 JF.F ....|D#3 2F.7 ....|--- .... ....
....|..|--- .... ....|R-- .... ....|--- .... ....
 D#4|..|C-3 RF.F ....|D#3 2C.F ....|A#4 2F.7 ....
 D#4|..|D#2 2A.F ....|R-- .... ....|--- .... ....
....|..|C-4 LF.F ....|D#3 2F.A ....|R-- .... ....
....|..|--- .... ....|R-- .... ....|R-- .... ....
....|..|C-4 AF.F ....|A#3 2F1F ....|--- .... ....
....|..|A#3 2F1F ....|R-- .... ....|--- .... ....
 A#3|..|B-8 JF.F ....|A#4 2C.F ....|--- .... ....
....|..|--- .... ....|R-- .... ....|--- .... ....
....|..|C-3 RF.F ....|D#3 2F.7 ....|A#4 2F.F ....
 A#3|..|A#1 2A.F ....|R-- .... ....|R-- .... ....
....|..|C-4 LF.F ....|--- .... ....|--- .... ....
....|..|--- .... ....|--- .... ....|--- .... ....
 A#3|..|C-4 AF.F ....|A#4 2C.F ....|A#4 2F.7 ....
....|..|R-- .... ....|R-- .... ....|--- .... ....
....|..|B-8 JF.F ....|D#3 2F.7 ....|R-- .... ....
....|..|--- .... ....|R-- .... ....|R-- .... ....
 A#3|..|C-3 RF.F ....|A#4 2C.F ....|A#4 2F.F ....
 A#3|..|A#1 2A.F ....|R-- .... ....|R-- .... ....
....|..|C-4 LF.F ....|A#4 2F.A ....|--- .... ....
....|..|--- .... ....|R-- .... ....|--- .... ....
....|..|C-4 AF.F ....|D#3 2F.7 ....|A#4 2F.F ....
....|..|R-- .... ....|R-- .... ....|--- .... ....
 A#3|..|B-8 JF.F ....|A#4 2C.F ....|R-- .... ....
....|..|--- .... ....|R-- .... ....|--- .... ....
....|..|C-3 RF.F ....|D#3 2F.7 ....|A#4 2F.F ....
 A#3|..|A#1 2A.F ....|R-- .... ....|R-- .... ....
....|..|C-4 LF.F ....|--- .... ....|C-5 2F.F ....
....|..|--- .... ....|--- .... ....|R-- .... ....
 A#3|..|C-4 AF.F ....|A#4 2C.F ....|A#4 2F.A ....
....|..|A#3 2F17 ....|R-- .... ....|R-- .... ....
....|..|B-8 JF.F ....|A#4 2F.7 ....|--- .... ....
....|..|--- .... ....|R-- .... ....|--- .... ....
 A#3|..|C-3 RF.F ....|A#4 2C.F ....|D-5 2F.F ....
 A#3|..|A#1 2A.F ....|R-- .... ....|--- .... ....
....|..|C-4 LF.F ....|A#4 2F.A ....|R-- .... ....
....|..|--- .... ....|R-- .... ....|R-- .... ....

[Pattern30]
....|..|C-4 AF.F ....|G-3 2F2F ....|R-- .... ....
....|..|G-3 2F2F ....|R-- .... ....|R-- .... ....
 G-4|..|B-8 JF.F ....|G-4 2C.F ....|C-5 2F.A ....
....|..|--- .... ....|R-- .... ....|--- .... ....
....|..|C-3 RF.F ....|A#4 2F.7 ....|F-5 2F.F ....
 G-3|..|G-1 2A.F ....|R-- .... ....|R-- .... ....
....|..|C-4 LF.F ....|--- .... ....|--- .... ....
....|..|--- .... ....|--- .... ....|--- .... ....
 G-4|..|C-4 AF.F ....|G-4 2C.F ....|A#4 2F.7 ....
....|..|R-- .... ....|R-- .... ....|--- .... ....
....|..|B-8 JF.F ....|A#4 2F.7 ....|R-- .... ....
....|..|--- .... ....|R-- .... ....|R-- .... ....
 G-4|..|C-3 RF.F ....|G-4 2C.F ....|F-5 2F.F ....
 G-3|..|G-1 2A.F ....|R-- .... ....|R-- .... ....
....|..|C-4 LF.F ....|G-4 2F.A ....|C-5 2F.7 ....
....|..|--- .... ....|R-- .... ....|--- .... ....
....|..|C-4 AF.F ....|A#4 2F.7 ....|F-5 2F.F ....
....|..|R-- .... ....|R-- .... ....|R-- .... ....
 G-4|..|B-8 JF.F ....|G-4 2C.F ....|--- .... ....
....|..|--- .... ....|R-- .... ....|--- .... ....
....|..|C-3 RF.F ....|A#4 2F.7 ....|D-5 2F.7 ....
 G-3|..|G-1 2A.F ....|R-- .... ....|--- .... ....
....|..|C-4 LF.F ....|--- .... ....|--- .... ....
....|..|--- .... ....|--- .... ....|R-- .... ....
 G-4|..|C-4 AF.F ....|G-4 2C.F ....|F-5 2F.A ....
....|..|G-3 2F27 ....|R-- .... ....|R-- .... ....
....|..|B-8 JF.F ....|G-4 2F.7 ....|--- .... ....
....|..|--- .... ....|R-- .... ....|--- .... ....
 G-4|..|C-3 RF.F ....|G-4 2C.F ....|F-5 2F.7 ....
 G-3|..|G-1 2A.F ....|R-- .... ....|--- .... ....
....|..|C-4 LF.F ....|G-4 2F.A ....|--- .... ....
....|..|--- .... ....|R-- .... ....|--- .... ....
....|..|C-4 AF.F ....|D-3 2F5F ....|R-- .... ....
....|..|D-3 2F5F ....|R-- .... ....|R-- .... ....
 D-4|..|B-8 JF.F ....|D-5 2C.F ....|--- .... ....
....|..|--- .... ....|R-- .... ....|--- .... ....
....|..|C-3 RF.F ....|G-4 2F.7 ....|A-4 2F.F ....
 D-4|..|D-2 2A.F ....|R-- .... ....|R-- .... ....
....|..|C-4 LF.F ....|--- .... ....|--- .... ....
....|..|--- .... ....|--- .... ....|--- .... ....
 D-4|..|C-4 AF.F ....|D-5 2C.F ....|F-5 2F.7 ....
....|..|R-- .... ....|R-- .... ....|--- .... ....
....|..|B-8 JF.F ....|G-4 2F.7 ....|--- .... ....
....|..|--- .... ....|R-- .... ....|--- .... ....
 D-4|..|C-3 RF.F ....|D-5 2C.F ....|A-4 2F.F ....
 D-4|..|D-2 2A.F ....|R-- .... ....|R-- .... ....
....|..|C-4 LF.F ....|D-5 2F.A ....|R-- .... ....
....|..|--- .... ....|R-- .... ....|--- .... ....
....|..|C-4 AF.F ....|G-4 2F.7 ....|A-4 2F.F ....
....|..|R-- .... ....|R-- .... ....|--- .... ....
 D-4|..|B-8 JF.F ....|D-5 2C.F ....|R-- .... ....
....|..|--- .... ....|R-- .... ....|--- .... ....
....|..|C-3 RF.F ....|G-4 2F.7 ....|A-4 2F.F ....
 D-4|..|D-2 2A.F ....|R-- .... ....|--- .... ....
....|..|C-4 LF.F ....|--- .... ....|A#4 2F.F ....
....|..|--- .... ....|--- .... ....|--- .... ....
 D-4|..|C-4 AF.F ....|D-5 2C.F ....|R-- .... ....
....|..|D-3 2F57 ....|R-- .... ....|R-- .... ....
....|..|B-8 JF.F ....|D-5 2F.7 ....|R-- .... ....
....|..|--- .... ....|R-- .... ....|--- .... ....
 D-4|..|C-3 RF.F ....|D-5 2C.F ....|C-5 2F.F ....
 D-4|..|D-2 2A.F ....|R-- .... ....|--- .... ....
....|..|C-4 LF.F ....|D-5 2F.A ....|R-- .... ....
....|..|--- .... ....|R-- .... ....|--- .... ....

[Pattern31]
....|..|C-4 AF.F ....|D#3 2F6F ....|R-- .... ....
....|..|D#3 2F6F ....|R-- .... ....|--- .... ....
 D#4|..|B-8 JF.F ....|D#4 2C.F ....|A#4 2F.A ....
....|..|--- .... ....|R-- .... ....|--- .... ....
....|..|C-3 RF.F ....|D-5 2F.7 ....|A#4 2F.F ....
 D#4|..|D#2 2A.F ....|R-- .... ....|--- .... ....
....|..|C-4 LF.F ....|--- .... ....|R-- .... ....
....|..|--- .... ....|--- .... ....|--- .... ....
 D#4|..|C-4 AF.F ....|D#4 2C.F ....|A-4 2F.7 ....
....|..|R-- .... ....|R-- .... ....|--- .... ....
....|..|B-8 JF.F ....|D-5 2F.7 ....|R-- .... ....
....|..|--- .... ....|R-- .... ....|--- .... ....
 D#4|..|C-3 RF.F ....|D#4 2C.F ....|A#4 2F.F ....
 D#4|..|D#2 2A.F ....|R-- .... ....|R-- .... ....
....|..|C-4 LF.F ....|D#4 2F.A ....|A#4 2F.7 ....
....|..|--- .... ....|R-- .... ....|--- .... ....
....|..|C-4 AF.F ....|D-5 2F.7 ....|A#4 2F.F ....
....|..|R-- .... ....|R-- .... ....|--- .... ....
 D#4|..|B-8 JF.F ....|D#4 2C.F ....|R-- .... ....
....|..|--- .... ....|R-- .... ....|--- .... ....
....|..|C-3 RF.F ....|D-5 2F.7 ....|C-5 2F.7 ....
 D#4|..|D#2 2A.F ....|R-- .... ....|--- .... ....
....|..|C-4 LF.F ....|--- .... ....|--- .... ....
....|..|--- .... ....|--- .... ....|--- .... ....
 D#4|..|C-4 AF.F ....|D#4 2C.F ....|C-5 2F.F ....
....|..|D#3 2F67 ....|R-- .... ....|R-- .... ....
....|..|B-8 JF.F ....|D#4 2F.7 ....|--- .... ....
....|..|--- .... ....|R-- .... ....|--- .... ....
 D#4|..|C-3 RF.F ....|D#4 2C.F ....|A#4 2F.7 ....
 D#4|..|D#2 2A.F ....|R-- .... ....|--- .... ....
....|..|C-4 LF.F ....|D#4 2F.A ....|R-- .... ....
....|..|--- .... ....|R-- .... ....|R-- .... ....
....|..|C-4 AF.F ....|A#3 2F1F ....|--- .... ....
....|..|A#3 2F1F ....|R-- .... ....|--- .... ....
 A#3|..|C-5 VF.F ....|A#4 2C.F ....|--- .... ....
....|..|--- .... ....|R-- .... ....|--- .... ....
....|..|C-5 VF.F ....|D#4 2F.7 ....|A#4 2F.F ....
 A#3|..|A#1 2A.F ....|R-- .... ....|R-- .... ....
....|..|C-5 VF.F ....|--- .... ....|--- .... ....
....|..|--- .... ....|--- .... ....|--- .... ....
 A#3|..|C-4 AF.F ....|A#4 2C.F ....|A#4 2F.7 ....
....|..|R-- .... ....|R-- .... ....|--- .... ....
....|..|C-5 VF.F ....|D#4 2F.7 ....|R-- .... ....
....|..|--- .... ....|R-- .... ....|R-- .... ....
 A#3|..|C-5 VF.F ....|A#4 2C.F ....|A#4 2F.F ....
 A#3|..|A#1 2A.F ....|R-- .... ....|R-- .... ....
....|..|C-5 VF.F ....|A#4 2F.A ....|--- .... ....
....|..|--- .... ....|R-- .... ....|--- .... ....
....|..|C-4 AF.F ....|D#4 2F.7 ....|A#4 2F.F ....
....|..|R-- .... ....|R-- .... ....|--- .... ....
 A#3|..|C-5 VF.F ....|A#4 2C.F ....|R-- .... ....
....|..|--- .... ....|R-- .... ....|--- .... ....
....|..|C-5 VF.F ....|D#4 2F.7 ....|A#4 2F.F ....
 A#3|..|A#1 2A.F ....|R-- .... ....|R-- .... ....
....|..|C-5 VF.F ....|--- .... ....|C-5 2F.F ....
....|..|--- .... ....|--- .... ....|R-- .... ....
 A#3|..|C-4 AF.F ....|A#4 2C.F ....|A#4 2F.A ....
....|..|A#3 2F17 ....|R-- .... ....|R-- .... ....
....|..|C-5 VF.F ....|A#4 2F.7 ....|--- .... ....
....|..|--- .... ....|R-- .... ....|--- .... ....
 A#3|..|C-5 VF.F ....|A#4 2C.F ....|D-5 2F.F ....
 A#3|..|A#1 2A.F ....|R-- .... ....|--- .... ....
....|..|C-5 VF.F ....|A#4 2F.A ....|R-- .... ....
....|..|--- .... ....|R-- .... ....|R-- .... ....

[Pattern32]
....|..|C-4 AF.F ....|G-3 2F2F ....|R-- .... ....
....|..|G-3 2F2F ....|R-- .... ....|R-- .... ....
 G-4|..|C-5 VF.F ....|G-4 2C.F ....|C-5 2F.A ....
....|..|--- .... ....|R-- .... ....|--- .... ....
....|..|C-5 VF.F ....|A#4 2F.7 ....|F-5 2F.F ....
 G-3|..|G-1 2A.F ....|R-- .... ....|R-- .... ....
....|..|C-5 VF.F ....|--- .... ....|--- .... ....
....|..|--- .... ....|--- .... ....|--- .... ....
 G-4|..|C-4 AF.F ....|G-4 2C.F ....|A#4 2F.7 ....
....|..|R-- .... ....|R-- .... ....|--- .... ....
....|..|C-5 VF.F ....|A#4 2F.7 ....|R-- .... ....
....|..|--- .... ....|R-- .... ....|R-- .... ....
 G-4|..|C-5 VF.F ....|G-4 2C.F ....|F-5 2F.F ....
 G-3|..|G-1 2A.F ....|R-- .... ....|R-- .... ....
....|..|C-5 VF.F ....|G-4 2F.A ....|C-5 2F.7 ....
....|..|--- .... ....|R-- .... ....|--- .... ....
....|..|C-4 AF.F ....|A#4 2F.7 ....|F-5 2F.F ....
....|..|R-- .... ....|R-- .... ....|R-- .... ....
 G-4|..|C-5 VF.F ....|G-4 2C.F ....|--- .... ....
....|..|--- .... ....|R-- .... ....|--- .... ....
....|..|C-5 VF.F ....|A#4 2F.7 ....|D-5 2F.7 ....
 G-3|..|G-1 2A.F ....|R-- .... ....|--- .... ....
....|..|C-5 VF.F ....|--- .... ....|--- .... ....
....|..|--- .... ....|--- .... ....|R-- .... ....
 G-4|..|C-4 AF.F ....|G-4 2C.F ....|F-5 2F.A ....
....|..|G-3 2F27 ....|R-- .... ....|R-- .... ....
....|..|C-5 VF.F ....|G-4 2F.7 ....|--- .... ....
....|..|--- .... ....|R-- .... ....|--- .... ....
 G-4|..|C-5 VF.F ....|G-4 2C.F ....|F-5 2F.7 ....
 G-3|..|G-1 2A.F ....|R-- .... ....|--- .... ....
....|..|C-5 VF.F ....|G-4 2F.A ....|--- .... ....
....|..|--- .... ....|R-- .... ....|--- .... ....
....|..|C-4 AF.F ....|D-3 2F5F ....|R-- .... ....
....|..|D-3 2F5F ....|R-- .... ....|R-- .... ....
 D-4|..|C-5 VF.F ....|D-5 2C.F ....|--- .... ....
....|..|--- .... ....|R-- .... ....|--- .... ....
....|..|C-5 VF.F ....|G-4 2F.7 ....|A-4 2F.F ....
 D-4|..|D-2 2A.F ....|R-- .... ....|R-- .... ....
....|..|C-5 VF.F ....|--- .... ....|--- .... ....
....|..|--- .... ....|--- .... ....|--- .... ....
 D-4|..|C-4 AF.F ....|D-5 2C.F ....|F-5 2F.7 ....
....|..|R-- .... ....|R-- .... ....|--- .... ....
....|..|C-5 VF.F ....|G-4 2F.7 ....|--- .... ....
....|..|--- .... ....|R-- .... ....|--- .... ....
 D-4|..|C-5 VF.F ....|D-5 2C.F ....|A-4 2F.F ....
 D-4|..|D-2 2A.F ....|R-- .... ....|R-- .... ....
....|..|C-5 VF.F ....|D-5 2F.A ....|R-- .... ....
....|..|--- .... ....|R-- .... ....|--- .... ....
....|..|C-4 AF.F ....|G-4 2F.7 ....|A-4 2F.F ....
....|..|R-- .... ....|R-- .... ....|--- .... ....
 D-4|..|C-5 VF.F ....|D-5 2C.F ....|R-- .... ....
....|..|--- .... ....|R-- .... ....|--- .... ....
....|..|C-5 VF.F ....|G-4 2F.7 ....|A-4 2F.F ....
 D-4|..|D-2 2A.F ....|R-- .... ....|--- .... ....
....|..|C-5 VF.F ....|--- .... ....|A#4 2F.F ....
....|..|--- .... ....|--- .... ....|--- .... ....
 D-4|..|C-4 AF.F ....|D-5 2C.F ....|R-- .... ....
....|..|D-3 2F57 ....|R-- .... ....|R-- .... ....
....|..|C-5 VF.F ....|D-5 2F.7 ....|R-- .... ....
....|..|--- .... ....|R-- .... ....|--- .... ....
 D-4|..|C-5 VF.F ....|D-5 2C.F ....|C-5 2F.F ....
 D-4|..|D-2 2A.F ....|R-- .... ....|--- .... ....
....|..|C-5 VF.F ....|D-5 2F.A ....|R-- .... ....
....|..|--- .... ....|R-- .... ....|--- .... ....

[Pattern33]
....|..|C-4 AF.F ....|D#3 2F6F ....|R-- .... ....
....|..|C-4 AF.F ....|R-- .... ....|--- .... ....
 D#4|..|C-5 VF.F ....|D#4 2C.F ....|A#4 2F.A ....
....|..|C-5 VF.F ....|R-- .... ....|--- .... ....
....|..|C-5 VF.F ....|D-5 2F.7 ....|A#4 2F.F ....
....|..|C-5 VF.F ....|R-- .... ....|--- .... ....
....|..|C-5 VF.F ....|--- .... ....|R-- .... ....
....|..|C-5 VF.F ....|--- .... ....|--- .... ....
 D#4|..|C-4 AF.F ....|D#4 2C.F ....|A-4 2F.7 ....
....|..|C-4 AF.F ....|R-- .... ....|--- .... ....
....|..|C-5 VF.F ....|D-5 2F.7 ....|R-- .... ....
....|..|C-5 VF.F ....|R-- .... ....|--- .... ....
 D#4|..|C-5 VF.F ....|D#4 2C.F ....|A#4 2F.F ....
....|..|C-5 VF.F ....|R-- .... ....|R-- .... ....
....|..|C-5 VF.F ....|D#4 2F.A ....|A#4 2F.7 ....
....|..|C-5 VF.F ....|R-- .... ....|--- .... ....
....|..|C-4 AF.F ....|D-5 2F.7 ....|A#4 2F.F ....
....|..|C-4 AF.F ....|R-- .... ....|--- .... ....
 D#4|..|C-5 VF.F ....|D#4 2C.F ....|R-- .... ....
....|..|C-5 VF.F ....|R-- .... ....|--- .... ....
....|..|C-5 VF.F ....|D-5 2F.7 ....|C-5 2F.7 ....
....|..|C-5 VF.F ....|R-- .... ....|--- .... ....
....|..|C-5 VF.F ....|--- .... ....|--- .... ....
....|..|C-5 VF.F ....|--- .... ....|--- .... ....
 D#4|..|C-4 AF.F ....|D#4 2C.F ....|C-5 2F.F ....
....|..|C-4 AF.F ....|R-- .... ....|R-- .... ....
....|..|C-5 VF.F ....|D#4 2F.7 ....|--- .... ....
....|..|C-5 VF.F ....|R-- .... ....|--- .... ....
 D#4|..|C-5 VF.F ....|D#4 2C.F ....|A#4 2F.7 ....
....|..|C-5 VF.F ....|R-- .... ....|--- .... ....
....|..|C-5 VF.F ....|D#4 2F.A ....|R-- .... ....
....|..|C-5 VF.F ....|R-- .... ....|R-- .... ....
....|..|C-4 AF.F ....|A#3 2F1F ....|A#5 2F.F ....
....|..|A#3 2F1F ....|R-- .... ....|R-- .... ....
 A#3|..|B-8 JF.F ....|A#3 2C.F ....|--- .... ....
....|..|C-5 VF.7 ....|R-- .... ....|--- .... ....
 A#3|..|C-3 RF.F ....|D#4 2F.7 ....|A#4 2C.F ....
 A#3|..|A#1 2A.F ....|R-- .... ....|R-- .... ....
....|..|C-4 LF.F ....|--- .... ....|--- .... ....
....|..|C-5 VF.7 ....|--- .... ....|--- .... ....
 A#3|..|C-4 AF.F ....|A#4 2C.F ....|A#4 2C.F ....
....|..|C-4 AF.7 ....|R-- .... ....|--- .... ....
....|..|B-8 JF.F ....|D#4 2F.7 ....|R-- .... ....
....|..|C-5 VF.7 ....|R-- .... ....|R-- .... ....
 A#3|..|C-3 RF.F ....|A#3 2C.F ....|R-- .... ....
 A#3|..|A#1 2A.F ....|R-- .... ....|R-- .... ....
 A#3|..|C-4 LF.F ....|A#3 2F.A ....|A#4 2C.F ....
....|..|C-5 VF.7 ....|R-- .... ....|R-- .... ....
....|..|C-4 AF.F ....|D#4 2F.7 ....|C-5 2F.7 ....
....|..|C-4 AF.7 ....|R-- .... ....|R-- .... ....
 A#3|..|B-8 JF.F ....|A#3 2C.F ....|--- .... ....
....|..|C-5 VF.7 ....|R-- .... ....|--- .... ....
 A#3|..|C-3 RF.F ....|D#4 2F.7 ....|A#4 2C.F ....
 A#3|..|A#1 2A.F ....|R-- .... ....|R-- .... ....
....|..|C-4 LF.F ....|--- .... ....|R-- .... ....
....|..|C-5 VF.7 ....|--- .... ....|R-- .... ....
 A#3|..|C-4 AF.F ....|A#4 2C.F ....|A#4 2C.F ....
....|..|A#3 2F17 ....|R-- .... ....|R-- .... ....
....|..|B-8 JF.F ....|A#3 2F.7 ....|A#4 2F.A ....
....|..|R-- .... ....|R-- .... ....|R-- .... ....
 A#3|..|C-3 RF.F ....|A#3 2C.F ....|A#4 2F.7 ....
 A#3|..|A#1 2A.F ....|R-- .... ....|R-- .... ....
 A-3|..|C-4 LF.F ....|A#3 2F.A ....|A-4 2C.F ....
....|..|--- .... ....|R-- .... ....|--- .... ....

[Pattern34]
....|..|C-4 AF.F ....|G-3 2F2F ....|A-5 2F.F ....
....|..|G-3 2F2F ....|R-- .... ....|R-- .... ....
 G-4|..|B-8 JF.F ....|G-3 2C.F ....|--- .... ....
....|..|--- .... ....|R-- .... ....|--- .... ....
 A-3|..|C-3 RF.F ....|A#3 2F.7 ....|A-4 2C.F ....
 G-3|..|G-1 2A.F ....|R-- .... ....|R-- .... ....
....|..|C-4 LF.F ....|--- .... ....|A#4 2F.7 ....
....|..|R-- .... ....|--- .... ....|R-- .... ....
 A-3|..|C-4 AF.F ....|G-3 2F.F ....|A-4 2C.F ....
....|..|R-- .... ....|R-- .... ....|--- .... ....
....|..|B-8 JF.F ....|A#3 2F.7 ....|A-4 2F.A ....
....|..|--- .... ....|R-- .... ....|--- .... ....
 G-4|..|C-3 RF.F ....|G-3 2C.F ....|A#4 2F.7 ....
 G-3|..|G-1 2A.F ....|R-- .... ....|R-- .... ....
 A-3|..|C-4 LF.F ....|G-3 2F.A ....|A-4 2C.F ....
....|..|R-- .... ....|R-- .... ....|R-- .... ....
....|..|C-4 AF.F ....|A#3 2F.7 ....|A#4 2F.7 ....
....|..|R-- .... ....|R-- .... ....|R-- .... ....
 G-4|..|B-8 JF.F ....|G-3 2C.F ....|--- .... ....
....|..|--- .... ....|R-- .... ....|--- .... ....
 A-3|..|C-3 RF.F ....|A#3 2F.7 ....|A-4 2C.F ....
 G-3|..|G-1 2A.F ....|R-- .... ....|R-- .... ....
....|..|C-4 LF.F ....|--- .... ....|A-4 2F.7 ....
....|..|--- .... ....|--- .... ....|--- .... ....
 A-3|..|C-4 AF.F ....|G-3 2F.F ....|A-4 2C.F ....
....|..|G-3 2F27 ....|R-- .... ....|--- .... ....
....|..|B-8 JF.F ....|G-3 2F.7 ....|A-4 2F.A ....
....|..|R-- .... ....|R-- .... ....|R-- .... ....
 G-4|..|C-3 RF.F ....|G-3 2C.F ....|A-4 2F.7 ....
 G-3|..|G-1 2A.F ....|R-- .... ....|R-- .... ....
 G-4|..|C-4 LF.F ....|G-3 2F.A ....|G-4 2C.F ....
....|..|--- .... ....|R-- .... ....|--- .... ....
....|..|C-4 AF.F ....|A-3 2F3F ....|G-5 2F.F ....
....|..|A-3 2F3F ....|R-- .... ....|R-- .... ....
 D-4|..|B-8 JF.F ....|D-4 2C.F ....|--- .... ....
....|..|--- .... ....|R-- .... ....|--- .... ....
 G-4|..|C-3 RF.F ....|G-3 2F.7 ....|G-4 2C.F ....
 D-4|..|D-2 2A.F ....|R-- .... ....|R-- .... ....
....|..|C-4 LF.F ....|--- .... ....|A-4 2F.7 ....
....|..|R-- .... ....|--- .... ....|R-- .... ....
 G-4|..|C-4 AF.F ....|D-4 2F.F ....|G-4 2C.F ....
....|..|R-- .... ....|R-- .... ....|--- .... ....
....|..|B-8 JF.F ....|G-3 2F.7 ....|G-4 2F.A ....
....|..|--- .... ....|R-- .... ....|--- .... ....
 D-4|..|C-3 RF.F ....|D-4 2C.F ....|A-4 2F.7 ....
 D-4|..|D-2 2A.F ....|R-- .... ....|R-- .... ....
 G-4|..|C-4 LF.F ....|D-4 2F.A ....|G-4 2C.F ....
....|..|--- .... ....|R-- .... ....|--- .... ....
....|..|C-4 AF.F ....|G-3 2F.7 ....|A-4 2F.7 ....
....|..|R-- .... ....|R-- .... ....|R-- .... ....
 D-4|..|B-8 JF.F ....|D-4 2C.F ....|--- .... ....
....|..|--- .... ....|R-- .... ....|--- .... ....
 G-4|..|C-3 RF.F ....|G-3 2F.7 ....|G-4 2C.F ....
 D-4|..|D-2 2A.F ....|R-- .... ....|R-- .... ....
....|..|C-4 LF.F ....|--- .... ....|G-4 2F.7 ....
....|..|--- .... ....|--- .... ....|--- .... ....
 D-4|..|C-4 AF.F ....|D-4 2C.F ....|D-5 2F.F ....
....|..|A-3 2F37 ....|R-- .... ....|R-- .... ....
....|..|B-8 JF.F ....|D-4 2F.7 ....|G-4 2F.A ....
....|..|--- .... ....|R-- .... ....|--- .... ....
 D-4|..|C-3 RF.F ....|D-4 2C.F ....|D-4 2C.F ....
 D-4|..|D-2 2A.F ....|R-- .... ....|R-- .... ....
 D#4|..|C-4 LF.F ....|D-4 2F.A ....|D#4 2C.F ....
....|..|R-- .... ....|R-- .... ....|R-- .... ....

[Pattern35]
....|..|C-4 AF.F ....|G-3 2F4F ....|G-4 2F.7 ....
....|..|G-3 2F4F ....|R-- .... ....|R-- .... ....
 D#4|..|B-8 JF.F ....|D#3 2C.F ....|--- .... ....
....|..|--- .... ....|R-- .... ....|--- .... ....
 D#4|..|C-3 RF.F ....|D-4 2F.7 ....|D#4 2C.F ....
 D#4|..|D#2 2A.F ....|R-- .... ....|R-- .... ....
....|..|C-4 LF.F ....|--- .... ....|G-4 2F.7 ....
....|..|--- .... ....|--- .... ....|--- .... ....
 D#4|..|C-4 AF.F ....|D#4 2C.F ....|D#4 2C.F ....
....|..|R-- .... ....|R-- .... ....|--- .... ....
....|..|B-8 JF.F ....|D-4 2F.7 ....|D#4 2F.A ....
....|..|R-- .... ....|R-- .... ....|R-- .... ....
 D#4|..|C-3 RF.F ....|D#3 2C.F ....|G-4 2F.7 ....
 D#4|..|D#2 2A.F ....|R-- .... ....|R-- .... ....
 D#4|..|C-4 LF.F ....|D#3 2F.A ....|D#4 2C.F ....
....|..|R-- .... ....|R-- .... ....|R-- .... ....
....|..|C-4 AF.F ....|D-4 2F.7 ....|D-5 2F.7 ....
....|..|R-- .... ....|R-- .... ....|R-- .... ....
 D#4|..|B-8 JF.F ....|D#3 2C.F ....|--- .... ....
....|..|--- .... ....|R-- .... ....|--- .... ....
 D#4|..|C-3 RF.F ....|D-4 2F.7 ....|D#4 2C.F ....
 D#4|..|D#2 2A.F ....|R-- .... ....|R-- .... ....
....|..|C-4 LF.F ....|--- .... ....|D#4 2F.7 ....
....|..|R-- .... ....|--- .... ....|R-- .... ....
 D#4|..|C-4 AF.F ....|D#4 2C.F ....|D#4 2C.F ....
....|..|G-3 2F47 ....|R-- .... ....|R-- .... ....
....|..|B-8 JF.F ....|D#3 2F.7 ....|D#4 2F.A ....
....|..|R-- .... ....|R-- .... ....|R-- .... ....
 D#4|..|C-3 RF.F ....|D#3 2C.F ....|D#4 2F.7 ....
 D#4|..|D#2 2A.F ....|R-- .... ....|R-- .... ....
....|..|C-4 LF.F ....|D#3 2F.A ....|--- .... ....
....|..|--- .... ....|R-- .... ....|--- .... ....
....|..|C-4 AF.F ....|A#3 2F1F ....|A#5 2F.F ....
....|..|A#3 2F1F ....|R-- .... ....|R-- .... ....
 A#3|..|B-8 JF.F ....|A#3 2C.F ....|--- .... ....
....|..|--- .... ....|R-- .... ....|--- .... ....
 A#3|..|C-3 RF.F ....|D#3 2F.7 ....|A#4 2C.F ....
 A#3|..|A#1 2A.F ....|R-- .... ....|R-- .... ....
....|..|C-4 LF.F ....|--- .... ....|D#4 2F.7 ....
....|..|R-- .... ....|--- .... ....|R-- .... ....
 A#3|..|C-4 AF.F ....|A#4 2C.F ....|A#4 2C.F ....
....|..|R-- .... ....|R-- .... ....|--- .... ....
....|..|B-8 JF.F ....|D#3 2F.7 ....|--- .... ....
....|..|--- .... ....|R-- .... ....|--- .... ....
 A#3|..|C-3 RF.F ....|A#3 2C.F ....|D#4 2F.7 ....
 A#3|..|A#1 2A.F ....|R-- .... ....|R-- .... ....
 A#3|..|C-4 LF.F ....|A#3 2F.A ....|A#4 2C.F ....
....|..|R-- .... ....|R-- .... ....|R-- .... ....
....|..|C-4 AF.F ....|D#3 2F.7 ....|D#4 2F.7 ....
....|..|R-- .... ....|R-- .... ....|R-- .... ....
 A#3|..|B-8 JF.F ....|A#3 2C.F ....|--- .... ....
....|..|--- .... ....|R-- .... ....|--- .... ....
 A#3|..|C-3 RF.F ....|D#3 2F.7 ....|A#4 2C.F ....
 A#3|..|A#1 2A.F ....|R-- .... ....|R-- .... ....
....|..|C-4 LF.F ....|--- .... ....|--- .... ....
....|..|--- .... ....|--- .... ....|--- .... ....
 A#3|..|C-4 AF.F ....|A#4 2C.F ....|A#4 2C.F ....
....|..|A#3 2F17 ....|R-- .... ....|R-- .... ....
....|..|B-8 JF.F ....|A#3 2F.7 ....|A#4 2F.A ....
....|..|R-- .... ....|R-- .... ....|R-- .... ....
 A#3|..|C-3 RF.F ....|A#3 2C.F ....|A#4 2F.7 ....
 A#3|..|A#1 2A.F ....|R-- .... ....|R-- .... ....
 A-3|..|C-4 LF.F ....|A#3 2F.A ....|A-4 2C.F ....
....|..|--- .... ....|R-- .... ....|--- .... ....

[Pattern37]
....|..|C-4 AF.F ....|G-3 2F4F ....|G-4 2F.7 ....
....|..|G-3 2F4F ....|R-- .... ....|R-- .... ....
 D#4|..|B-8 JF.F ....|D#4 2C.F ....|--- .... ....
....|..|--- .... ....|R-- .... ....|--- .... ....
....|..|C-3 RF.F ....|D-4 2F.7 ....|D-5 2F.A ....
 D#4|..|D#2 2A.F ....|R-- .... ....|R-- .... ....
....|..|C-4 LF.F ....|--- .... ....|G-4 2F.7 ....
....|..|--- .... ....|--- .... ....|--- .... ....
 D#4|..|C-4 AF.F ....|D#4 2C.F ....|R-- .... ....
....|..|R-- .... ....|R-- .... ....|--- .... ....
....|..|B-8 JF.F ....|D-4 2F.7 ....|D#4 2F.A ....
....|..|R-- .... ....|R-- .... ....|R-- .... ....
 D#4|..|C-3 RF.F ....|D#4 2C.F ....|G-4 2F.7 ....
 D#4|..|D#2 2A.F ....|R-- .... ....|R-- .... ....
....|..|C-4 LF.F ....|D#4 2F.A ....|--- .... ....
....|..|--- .... ....|R-- .... ....|--- .... ....
....|..|C-4 AF.F ....|D-4 2F.7 ....|D-5 2F.7 ....
....|..|R-- .... ....|R-- .... ....|--- .... ....
 D#4|..|B-8 JF.F ....|D#4 2C.F ....|--- .... ....
....|..|--- .... ....|R-- .... ....|--- .... ....
....|..|C-3 RF.F ....|D-4 2F.7 ....|D-4 2F.7 ....
 D#4|..|D#2 2A.F ....|R-- .... ....|--- .... ....
....|..|C-4 LF.F ....|--- .... ....|D#4 2F.7 ....
....|..|R-- .... ....|--- .... ....|R-- .... ....
 D#4|..|C-4 AF.F ....|D#4 2C.F ....|R-- .... ....
....|..|G-3 2F47 ....|R-- .... ....|--- .... ....
....|..|B-8 JF.F ....|D#4 2F.7 ....|--- .... ....
....|..|--- .... ....|R-- .... ....|--- .... ....
 D#4|..|C-3 RF.F ....|D#4 2C.F ....|--- .... ....
 D#4|..|D#2 2A.F ....|R-- .... ....|--- .... ....
....|..|C-4 LF.F ....|D#4 2F.A ....|--- .... ....
....|..|--- .... ....|R-- .... ....|--- .... ....
....|..|C-4 AF.F ....|A#3 2F1F ....|A#4 2F.F ....
....|..|A#3 2F1F ....|R-- .... ....|R-- .... ....
 A#3|..|B-8 JF.F ....|A#3 2C.F ....|--- .... ....
....|..|--- .... ....|R-- .... ....|--- .... ....
....|..|C-3 RF.F ....|D#4 2F.7 ....|A#4 2F.F ....
 A#3|..|A#1 2A.F ....|R-- .... ....|R-- .... ....
....|..|C-4 LF.F ....|--- .... ....|--- .... ....
....|..|--- .... ....|--- .... ....|--- .... ....
 A#3|..|C-4 AF.F ....|A#3 2C.F ....|A#4 2F.F ....
....|..|R-- .... ....|R-- .... ....|--- .... ....
....|..|B-8 JF.F ....|D#4 2F.7 ....|--- .... ....
....|..|--- .... ....|R-- .... ....|--- .... ....
 A#3|..|C-3 RF.F ....|A#3 2C.F ....|R-- .... ....
 A#3|..|A#1 2A.F ....|R-- .... ....|R-- .... ....
....|..|C-4 LF.F ....|A#3 2F.A ....|A#4 2F.F ....
....|..|R-- .... ....|R-- .... ....|R-- .... ....
....|..|C-4 AF.F ....|D#4 2F.7 ....|R-- .... ....
....|..|R-- .... ....|R-- .... ....|R-- .... ....
 A#3|..|B-8 JF.F ....|A#3 2C.F ....|--- .... ....
....|..|--- .... ....|R-- .... ....|--- .... ....
....|..|C-3 RF.F ....|D#4 2F.7 ....|A#4 2F.F ....
 A#3|..|A#1 2A.F ....|R-- .... ....|R-- .... ....
....|..|C-4 LF.F ....|--- .... ....|--- .... ....
....|..|--- .... ....|--- .... ....|--- .... ....
 A#3|..|C-4 AF.F ....|A#3 2C.F ....|A#4 2F.F ....
....|..|A#3 2F17 ....|R-- .... ....|R-- .... ....
....|..|B-8 JF.F ....|A#3 2F.7 ....|A#4 2F.A ....
....|..|R-- .... ....|R-- .... ....|R-- .... ....
 A#3|..|C-3 RF.F ....|A#3 2C.F ....|A#4 2F.7 ....
 A#3|..|A#1 2A.F ....|R-- .... ....|R-- .... ....
....|..|C-4 LF.F ....|A#3 2F.A ....|A-4 2F.F ....
....|..|--- .... ....|R-- .... ....|R-- .... ....

[Pattern38]
....|..|C-4 AF.F ....|G-3 2F2F ....|A-5 2F.F ....
....|..|G-3 2F2F ....|R-- .... ....|R-- .... ....
 G-4|..|B-8 JF.F ....|G-3 2C.F ....|--- .... ....
....|..|--- .... ....|R-- .... ....|--- .... ....
....|..|C-3 RF.F ....|A#3 2F.7 ....|A-4 2F.F ....
 G-3|..|G-1 2A.F ....|R-- .... ....|R-- .... ....
....|..|C-4 LF.F ....|--- .... ....|A#4 2F.7 ....
....|..|R-- .... ....|--- .... ....|R-- .... ....
 G-4|..|C-4 AF.F ....|G-3 2C.F ....|A-4 2F.F ....
....|..|R-- .... ....|R-- .... ....|--- .... ....
....|..|B-8 JF.F ....|A#3 2F.7 ....|A-4 2F.A ....
....|..|--- .... ....|R-- .... ....|R-- .... ....
 G-4|..|C-3 RF.F ....|G-3 2C.F ....|A#4 2F.7 ....
 G-3|..|G-1 2A.F ....|R-- .... ....|R-- .... ....
....|..|C-4 LF.F ....|G-3 2F.A ....|A-4 2F.F ....
....|..|R-- .... ....|R-- .... ....|R-- .... ....
....|..|C-4 AF.F ....|A#3 2F.7 ....|A#4 2F.7 ....
....|..|R-- .... ....|R-- .... ....|R-- .... ....
 G-4|..|B-8 JF.F ....|G-3 2C.F ....|--- .... ....
....|..|--- .... ....|R-- .... ....|--- .... ....
....|..|C-3 RF.F ....|A#3 2F.7 ....|A-4 2F.F ....
 G-3|..|G-1 2A.F ....|R-- .... ....|R-- .... ....
....|..|C-4 LF.F ....|--- .... ....|A-4 2F.7 ....
....|..|--- .... ....|--- .... ....|R-- .... ....
 G-4|..|C-4 AF.F ....|G-3 2C.F ....|A-4 2F.F ....
....|..|G-3 2F27 ....|R-- .... ....|R-- .... ....
....|..|B-8 JF.F ....|G-3 2F.7 ....|A-4 2F.A ....
....|..|R-- .... ....|R-- .... ....|R-- .... ....
 G-4|..|C-3 RF.F ....|G-3 2C.F ....|A-4 2F.7 ....
 G-3|..|G-1 2A.F ....|R-- .... ....|R-- .... ....
....|..|C-4 LF.F ....|G-3 2F.A ....|G-4 2F.F ....
....|..|--- .... ....|R-- .... ....|R-- .... ....
....|..|C-4 AF.F ....|A-3 2F3F ....|G-5 2F.F ....
....|..|A-3 2F3F ....|R-- .... ....|R-- .... ....
 D-4|..|B-8 JF.F ....|D-4 2C.F ....|--- .... ....
....|..|--- .... ....|R-- .... ....|--- .... ....
....|..|C-3 RF.F ....|G-3 2F.7 ....|G-4 2F.F ....
 D-4|..|D-2 2A.F ....|R-- .... ....|R-- .... ....
....|..|C-4 LF.F ....|--- .... ....|A-4 2F.7 ....
....|..|R-- .... ....|--- .... ....|R-- .... ....
 D-4|..|C-4 AF.F ....|D-4 2C.F ....|G-4 2F.F ....
....|..|R-- .... ....|R-- .... ....|R-- .... ....
....|..|B-8 JF.F ....|G-3 2F.7 ....|G-4 2F.A ....
....|..|--- .... ....|R-- .... ....|R-- .... ....
 D-4|..|C-3 RF.F ....|D-4 2C.F ....|A-4 2F.7 ....
 D-4|..|D-2 2A.F ....|R-- .... ....|R-- .... ....
....|..|C-4 LF.F ....|D-4 2F.A ....|G-4 2F.F ....
....|..|--- .... ....|R-- .... ....|--- .... ....
....|..|C-4 AF.F ....|G-3 2F.7 ....|A-4 2F.7 ....
....|..|R-- .... ....|R-- .... ....|R-- .... ....
 D-4|..|B-8 JF.F ....|D-4 2C.F ....|--- .... ....
....|..|--- .... ....|R-- .... ....|--- .... ....
....|..|C-3 RF.F ....|G-3 2F.7 ....|G-4 2F.F ....
 D-4|..|D-2 2A.F ....|R-- .... ....|R-- .... ....
....|..|C-4 LF.F ....|--- .... ....|G-4 2F.7 ....
....|..|--- .... ....|--- .... ....|R-- .... ....
 D-4|..|C-4 AF.F ....|D-4 2C.F ....|G-4 2F.F ....
....|..|A-3 2F37 ....|R-- .... ....|R-- .... ....
....|..|B-8 JF.F ....|D-4 2F.7 ....|G-4 2F.A ....
....|..|--- .... ....|R-- .... ....|R-- .... ....
 D-4|..|C-3 RF.F ....|D-4 2C.F ....|D-4 2F.F ....
 D-4|..|D-2 2A.F ....|R-- .... ....|R-- .... ....
....|..|C-4 LF.F ....|D-4 2F.A ....|D#4 2F.F ....
....|..|R-- .... ....|R-- .... ....|R-- .... ....

[Pattern39]
....|..|C-4 AF.F ....|G-3 2F4F ....|G-4 2F.7 ....
....|..|G-3 2F4F ....|R-- .... ....|R-- .... ....
 D#4|..|B-8 JF.F ....|D#3 2C.F ....|--- .... ....
....|..|--- .... ....|R-- .... ....|--- .... ....
....|..|C-3 RF.F ....|D-4 2F.7 ....|D#4 2F.F ....
 D#4|..|D#2 2A.F ....|R-- .... ....|R-- .... ....
....|..|C-4 LF.F ....|--- .... ....|G-4 2F.7 ....
....|..|--- .... ....|--- .... ....|R-- .... ....
 D#4|..|C-4 AF.F ....|D#3 2C.F ....|D#4 2F.F ....
....|..|R-- .... ....|R-- .... ....|--- .... ....
....|..|B-8 JF.F ....|D-4 2F.7 ....|D#4 2F.A ....
....|..|R-- .... ....|R-- .... ....|R-- .... ....
 D#4|..|C-3 RF.F ....|D#3 2C.F ....|G-4 2F.7 ....
 D#4|..|D#2 2A.F ....|R-- .... ....|R-- .... ....
....|..|C-4 LF.F ....|D#3 2F.A ....|D#4 2F.F ....
....|..|R-- .... ....|R-- .... ....|R-- .... ....
....|..|C-4 AF.F ....|D-4 2F.7 ....|G-4 2F.7 ....
....|..|R-- .... ....|R-- .... ....|R-- .... ....
 D#4|..|B-8 JF.F ....|D#3 2C.F ....|--- .... ....
....|..|--- .... ....|R-- .... ....|R-- .... ....
....|..|C-3 RF.F ....|D-4 2F.7 ....|D#4 2F.F ....
 D#4|..|D#2 2A.F ....|R-- .... ....|R-- .... ....
....|..|C-4 LF.F ....|--- .... ....|D#4 2F.7 ....
....|..|R-- .... ....|--- .... ....|R-- .... ....
 D#4|..|C-4 AF.F ....|D#3 2C.F ....|D#4 2F.F ....
....|..|G-3 2F47 ....|R-- .... ....|R-- .... ....
....|..|B-8 JF.F ....|D#3 2F.7 ....|D#4 2F.A ....
....|..|R-- .... ....|R-- .... ....|R-- .... ....
 D#4|..|C-3 RF.F ....|D#3 2C.F ....|D#4 2F.7 ....
 D#4|..|D#2 2A.F ....|R-- .... ....|R-- .... ....
....|..|C-4 LF.F ....|D#3 2F.A ....|A#4 2F.F ....
....|..|--- .... ....|R-- .... ....|R-- .... ....
....|..|C-4 AF.F ....|A#3 2F1F ....|A#5 2F.F ....
....|..|A#3 2F1F ....|R-- .... ....|R-- .... ....
 A#3|..|C-5 VF.F ....|A#3 2C.F ....|--- .... ....
....|..|--- .... ....|R-- .... ....|--- .... ....
....|..|C-5 VF.F ....|D#3 2F.7 ....|A#4 2F.F ....
 A#3|..|A#1 2A.F ....|R-- .... ....|R-- .... ....
....|..|C-5 VF.F ....|--- .... ....|D#4 2F.7 ....
....|..|R-- .... ....|--- .... ....|R-- .... ....
 A#3|..|C-4 AF.F ....|A#3 2C.F ....|A#4 2F.F ....
....|..|R-- .... ....|R-- .... ....|--- .... ....
....|..|C-5 VF.F ....|D#3 2F.7 ....|A#4 2F.A ....
....|..|--- .... ....|R-- .... ....|R-- .... ....
 A#3|..|C-5 VF.F ....|A#3 2C.F ....|D#4 2F.7 ....
 A#3|..|A#1 2A.F ....|R-- .... ....|R-- .... ....
....|..|C-5 VF.F ....|A#3 2F.A ....|A#4 2F.F ....
....|..|R-- .... ....|R-- .... ....|R-- .... ....
....|..|C-4 AF.F ....|D#3 2F.7 ....|D#4 2F.7 ....
....|..|R-- .... ....|R-- .... ....|R-- .... ....
 A#3|..|C-5 VF.F ....|A#3 2C.F ....|--- .... ....
....|..|--- .... ....|R-- .... ....|--- .... ....
....|..|C-5 VF.F ....|D#3 2F.7 ....|A#4 2F.F ....
 A#3|..|A#1 2A.F ....|R-- .... ....|R-- .... ....
....|..|C-5 VF.F ....|--- .... ....|A#4 2F.7 ....
....|..|--- .... ....|--- .... ....|R-- .... ....
 A#3|..|C-4 AF.F ....|A#3 2C.F ....|A#4 2F.F ....
....|..|A#3 2F17 ....|R-- .... ....|R-- .... ....
....|..|C-5 VF.F ....|A#3 2F.7 ....|A#4 2F.A ....
....|..|R-- .... ....|R-- .... ....|R-- .... ....
 A#3|..|C-5 VF.F ....|A#3 2C.F ....|A#4 2F.7 ....
 A#3|..|A#1 2A.F ....|R-- .... ....|R-- .... ....
....|..|C-5 VF.F ....|A#3 2F.A ....|A-4 2F.F ....
....|..|--- .... ....|R-- .... ....|R-- .... ....

[Pattern40]
....|..|C-4 AF.F ....|G-3 2F2F ....|A-5 2F.F ....
....|..|G-3 2F2F ....|R-- .... ....|R-- .... ....
 G-4|..|C-5 VF.F ....|G-3 2C.F ....|--- .... ....
....|..|--- .... ....|R-- .... ....|--- .... ....
....|..|C-5 VF.F ....|A#3 2F.7 ....|A-4 2F.F ....
 G-3|..|G-1 2A.F ....|R-- .... ....|R-- .... ....
....|..|C-5 VF.F ....|--- .... ....|A#4 2F.7 ....
....|..|R-- .... ....|--- .... ....|R-- .... ....
 G-4|..|C-4 AF.F ....|G-3 2C.F ....|A-4 2F.F ....
....|..|R-- .... ....|R-- .... ....|R-- .... ....
....|..|C-5 VF.F ....|A#3 2F.7 ....|A-4 2F.A ....
....|..|--- .... ....|R-- .... ....|R-- .... ....
 G-4|..|C-5 VF.F ....|G-3 2C.F ....|A#4 2F.7 ....
 G-3|..|G-1 2A.F ....|R-- .... ....|R-- .... ....
....|..|C-5 VF.F ....|G-3 2F.A ....|A-4 2F.F ....
....|..|R-- .... ....|R-- .... ....|R-- .... ....
....|..|C-4 AF.F ....|A#3 2F.7 ....|A#4 2F.7 ....
....|..|R-- .... ....|R-- .... ....|R-- .... ....
 G-4|..|C-5 VF.F ....|G-3 2C.F ....|--- .... ....
....|..|--- .... ....|R-- .... ....|--- .... ....
....|..|C-5 VF.F ....|A#3 2F.7 ....|A-4 2F.F ....
 G-3|..|G-1 2A.F ....|R-- .... ....|R-- .... ....
....|..|C-5 VF.F ....|--- .... ....|A-4 2F.7 ....
....|..|--- .... ....|--- .... ....|R-- .... ....
 G-4|..|C-4 AF.F ....|G-3 2C.F ....|A-4 2F.F ....
....|..|G-3 2F27 ....|R-- .... ....|R-- .... ....
....|..|C-5 VF.F ....|G-3 2F.7 ....|A-4 2F.A ....
....|..|R-- .... ....|R-- .... ....|R-- .... ....
 G-4|..|C-5 VF.F ....|G-3 2C.F ....|A-4 2F.7 ....
 G-3|..|G-1 2A.F ....|R-- .... ....|R-- .... ....
....|..|C-5 VF.F ....|G-3 2F.A ....|G-4 2F.F ....
....|..|--- .... ....|R-- .... ....|R-- .... ....
....|..|C-4 AF.F ....|A-3 2F3F ....|G-5 2F.F ....
....|..|A-3 2F3F ....|R-- .... ....|R-- .... ....
 D-4|..|C-5 VF.F ....|D-4 2C.F ....|--- .... ....
....|..|--- .... ....|R-- .... ....|--- .... ....
....|..|C-5 VF.F ....|G-3 2F.7 ....|G-4 2F.F ....
 D-4|..|D-2 2A.F ....|R-- .... ....|R-- .... ....
....|..|C-5 VF.F ....|--- .... ....|A-4 2F.7 ....
....|..|R-- .... ....|--- .... ....|R-- .... ....
 D-4|..|C-4 AF.F ....|D-4 2C.F ....|G-4 2F.F ....
....|..|R-- .... ....|R-- .... ....|R-- .... ....
....|..|C-5 VF.F ....|G-3 2F.7 ....|G-4 2F.A ....
....|..|--- .... ....|R-- .... ....|R-- .... ....
 D-4|..|C-5 VF.F ....|D-4 2C.F ....|A-4 2F.7 ....
 D-4|..|D-2 2A.F ....|R-- .... ....|R-- .... ....
....|..|C-5 VF.F ....|D-4 2F.A ....|G-4 2F.F ....
....|..|--- .... ....|R-- .... ....|R-- .... ....
....|..|C-4 AF.F ....|G-3 2F.7 ....|A-4 2F.7 ....
....|..|R-- .... ....|R-- .... ....|R-- .... ....
 D-4|..|C-5 VF.F ....|D-4 2C.F ....|--- .... ....
....|..|--- .... ....|R-- .... ....|--- .... ....
....|..|C-5 VF.F ....|G-3 2F.7 ....|G-4 2F.F ....
 D-4|..|D-2 2A.F ....|R-- .... ....|R-- .... ....
....|..|C-5 VF.F ....|--- .... ....|G-4 2F.7 ....
....|..|--- .... ....|--- .... ....|R-- .... ....
 D-4|..|C-4 AF.F ....|D-4 2C.F ....|G-4 2F.F ....
....|..|A-3 2F37 ....|R-- .... ....|R-- .... ....
....|..|C-5 VF.F ....|D-4 2F.7 ....|G-4 2F.A ....
....|..|--- .... ....|R-- .... ....|R-- .... ....
 D-4|..|C-5 VF.F ....|D-4 2C.F ....|D-4 2F.F ....
 D-4|..|D-2 2A.F ....|R-- .... ....|R-- .... ....
....|..|C-5 VF.F ....|D-4 2F.A ....|D#4 2F.F ....
....|..|R-- .... ....|R-- .... ....|R-- .... ....

[Pattern41]
....|..|C-4 AF.F ....|G-3 2F4F ....|G-4 2F.7 ....
....|..|C-4 AF.F ....|R-- .... ....|R-- .... ....
 D#4|..|C-5 VF.F ....|D#4 2C.F ....|--- .... ....
....|..|C-5 VF.F ....|R-- .... ....|--- .... ....
....|..|C-5 VF.F ....|D-4 2F.7 ....|D#4 2F.F ....
....|..|C-5 VF.F ....|R-- .... ....|R-- .... ....
....|..|C-5 VF.F ....|--- .... ....|G-4 2F.7 ....
....|..|C-5 VF.F ....|--- .... ....|R-- .... ....
 D#4|..|C-4 AF.F ....|D#4 2C.F ....|D#4 2F.F ....
....|..|C-4 AF.F ....|R-- .... ....|--- .... ....
....|..|C-5 VF.F ....|D-4 2F.7 ....|D#4 2F.A ....
....|..|C-5 VF.F ....|R-- .... ....|R-- .... ....
 D#4|..|C-5 VF.F ....|D#4 2C.F ....|G-4 2F.7 ....
....|..|C-5 VF.F ....|R-- .... ....|R-- .... ....
....|..|C-5 VF.F ....|D#4 2F.A ....|D#4 2F.F ....
....|..|C-5 VF.F ....|R-- .... ....|R-- .... ....
....|..|C-4 AF.F ....|D-4 2F.7 ....|G-4 2F.7 ....
....|..|C-4 AF.F ....|R-- .... ....|R-- .... ....
 D#4|..|C-5 VF.F ....|D#4 2C.F ....|--- .... ....
....|..|C-5 VF.F ....|R-- .... ....|R-- .... ....
....|..|C-5 VF.F ....|D-4 2F.7 ....|D#4 2F.F ....
....|..|C-5 VF.F ....|R-- .... ....|R-- .... ....
....|..|C-5 VF.F ....|--- .... ....|D#4 2F.7 ....
....|..|C-5 VF.F ....|--- .... ....|R-- .... ....
 D#4|..|C-4 AF.F ....|D#4 2C.F ....|D#4 2F.F ....
....|..|C-4 AF.F ....|R-- .... ....|--- .... ....
....|..|C-5 VF.F ....|D#4 2F.7 ....|D#4 2F.A ....
....|..|C-5 VF.F ....|R-- .... ....|R-- .... ....
 D#4|..|C-5 VF.F ....|D#4 2C.F ....|D#4 2F.7 ....
....|..|C-5 VF.F ....|R-- .... ....|R-- .... ....
....|..|C-5 VF.F ....|D#4 2F.A ....|--- .... ....
....|..|C-5 VF.F ....|R-- .... ....|--- .... ....
....|..|C-4 AF.F ....|D#4 2F.7 ....|D#4 2F.7 ....
....|..|C-4 AF.7 ....|R-- .... ....|R-- .... ....
....|..|B-8 JF.F ....|--- .... ....|--- .... ....
....|..|C-5 VF.7 ....|--- .... ....|--- .... ....
 A#3|..|C-3 RF.F ....|A#3 2C.F ....|R-- .... ....
 A#3|..|A#1 2A.F ....|R-- .... ....|--- .... ....
....|..|C-4 LF.F ....|--- .... ....|D#4 2F.7 ....
....|..|C-5 VF.7 ....|--- .... ....|R-- .... ....
....|..|C-4 AF.F ....|R-- .... ....|F-5 2F.F ....
....|..|C-4 AF.7 ....|R-- .... ....|R-- .... ....
....|..|B-8 JF.F ....|D#4 2F.7 ....|--- .... ....
....|..|C-5 VF.7 ....|R-- .... ....|--- .... ....
 A#3|..|C-3 RF.F ....|A#3 2C.F ....|D#4 2F.7 ....
 A#3|..|A#1 2A.F ....|--- .... ....|R-- .... ....
....|..|C-4 LF.F ....|--- .... ....|--- .... ....
....|..|C-5 VF.7 ....|--- .... ....|--- .... ....
....|..|C-4 AF.F ....|D#4 2F.7 ....|D#4 2F.7 ....
....|..|C-4 AF.7 ....|R-- .... ....|--- .... ....
....|..|B-8 JF.F ....|--- .... ....|--- .... ....
....|..|C-5 VF.7 ....|--- .... ....|--- .... ....
 A#3|..|C-3 RF.F ....|A#3 2C.F ....|R-- .... ....
 A#3|..|A#1 2A.F ....|R-- .... ....|R-- .... ....
....|..|C-4 LF.F ....|--- .... ....|--- .... ....
....|..|C-5 VF.7 ....|--- .... ....|--- .... ....
....|..|C-4 AF.F ....|R-- .... ....|--- .... ....
....|..|R-- .... ....|--- .... ....|--- .... ....
....|..|B-8 JF.F ....|--- .... ....|--- .... ....
....|..|--- .... ....|--- .... ....|--- .... ....
 A#3|..|C-3 RF.F ....|A#3 2C.F ....|--- .... ....
 A#3|..|A#1 2A.F ....|--- .... ....|--- .... ....
....|..|C-4 LF.F ....|--- .... ....|--- .... ....
....|..|--- .... ....|--- .... ....|--- .... ....

[Pattern47]
 A#3|..|C-4 AF.F ....|R-- .... ....|A#4 2C.F ....
....|..|R-- .... ....|--- .... ....|R-- .... ....
....|..|B-8 JF.F ....|--- .... ....|A#4 2F.A ....
....|..|R-- .... ....|--- .... ....|R-- .... ....
 A#3|..|C-3 RF.F ....|F#3 2F.F ....|A#4 2C.F ....
 F#3|..|F#1 2A.F ....|--- .F.. ....|R-- .... ....
 G#4|..|C-4 LF.F ....|--- .F.. ....|G#4 2C.F ....
....|..|--- .... ....|--- .... ....|--- .... ....
....|..|C-4 AF.F ....|R-- .... ....|F-5 2F.F ....
....|..|R-- .... ....|--- .... ....|R-- .... ....
....|..|B-8 JF.F ....|--- .... ....|A#4 2F.7 ....
....|..|R-- .... ....|--- .... ....|R-- .... ....
 A#3|..|C-3 RF.F ....|F#3 2F.F ....|A#4 2C.F ....
 F#3|..|F#1 2A.F ....|--- .F.. ....|R-- .... ....
....|..|C-4 LF.F ....|--- .... ....|A#4 2F.7 ....
....|..|R-- .... ....|--- .... ....|R-- .... ....
....|..|C-4 AF.F ....|R-- .... ....|F-5 2F.7 ....
....|..|R-- .... ....|--- .... ....|R-- .... ....
 A#3|..|B-8 JF.F ....|--- .F.. ....|A#4 2C.F ....
....|..|R-- .... ....|--- .... ....|R-- .... ....
 F#4|..|C-3 RF.F ....|F#3 2C.F ....|C#5 2F.7 ....
 F#3|..|F#1 2A.F ....|--- .... ....|R-- .... ....
 A#3|..|C-4 LF.F ....|--- .F.. ....|A#4 2C.F ....
....|..|R-- .... ....|--- .... ....|R-- .... ....
....|..|C-4 AF.F ....|R-- .... ....|F-5 2F.F ....
....|..|R-- .... ....|--- .... ....|R-- .... ....
....|..|B-8 JF.F ....|--- .... ....|--- .... ....
....|..|--- .... ....|--- .... ....|--- .... ....
 C#4|..|C-3 RF.F ....|F#3 2F.F ....|C#5 2C.F ....
 F#3|..|F#1 2A.F ....|--- .F.. ....|R-- .... ....
....|..|C-4 LF.F ....|--- .... ....|G#4 2F.7 ....
....|..|R-- .... ....|--- .... ....|R-- .... ....
 A#3|..|C-5 VF.F ....|R-- .... ....|A#4 2C.F ....
....|..|R-- .... ....|--- .... ....|R-- .... ....
....|..|C-5 VF.F ....|--- .... ....|A#4 2F.A ....
....|..|R-- .... ....|--- .... ....|R-- .... ....
 A#3|..|C-5 VF.F ....|A#4 2C.F ....|A#4 2C.F ....
 A#3|..|A#1 2A.F ....|--- .... ....|R-- .... ....
 G#4|..|C-5 VF.F ....|--- .F.. ....|G#4 2C.F ....
....|..|--- .... ....|--- .... ....|--- .... ....
....|..|C-4 BF.F ....|R-- .... ....|F-5 2F.F ....
....|..|R-- .... ....|--- .... ....|R-- .... ....
....|..|C-5 VF.F ....|--- .... ....|A#4 2F.7 ....
....|..|R-- .... ....|--- .... ....|R-- .... ....
 A#3|..|C-5 VF.F ....|A#4 2C.F ....|A#4 2C.F ....
 A#3|..|A#1 2A.F ....|--- .... ....|R-- .... ....
....|..|C-5 VF.F ....|--- .... ....|A#4 2F.7 ....
....|..|R-- .... ....|--- .... ....|R-- .... ....
....|..|C-5 VF.F ....|R-- .... ....|F-5 2F.7 ....
....|..|R-- .... ....|--- .... ....|R-- .... ....
 A#3|..|C-5 VF.F ....|--- .... ....|A#4 2C.F ....
....|..|R-- .... ....|--- .... ....|R-- .... ....
 A#3|..|C-5 VF.F ....|A#3 2C.F ....|C#5 2F.7 ....
 A#3|..|A#1 2A.F ....|--- .... ....|R-- .... ....
 A#3|..|C-5 VF.F ....|--- .... ....|A#4 2C.F ....
....|..|R-- .... ....|--- .... ....|R-- .... ....
....|..|C-4 BF.F ....|R-- .... ....|F-5 2F.F ....
....|..|R-- .... ....|--- .... ....|R-- .... ....
....|..|C-5 VF.F ....|--- .... ....|--- .... ....
....|..|--- .... ....|--- .... ....|--- .... ....
 C#4|..|C-5 VF.F ....|A#3 2F.F ....|C#5 2C.F ....
 A#3|..|A#1 2A.F ....|--- .F.. ....|R-- .... ....
....|..|C-5 VF.F ....|--- .... ....|G#4 2F.7 ....
....|..|R-- .... ....|--- .... ....|R-- .... ....

[Pattern48]
 A#3|..|C-5 VF.F ....|R-- .... ....|A#4 2C.F ....
....|..|R-- .... ....|--- .... ....|R-- .... ....
....|..|C-5 VF.F ....|--- .... ....|A#4 2F.A ....
....|..|R-- .... ....|--- .... ....|R-- .... ....
 A#3|..|C-5 VF.F ....|A#4 2C.F ....|A#4 2C.F ....
 A#3|..|A#1 2A.F ....|--- .... ....|R-- .... ....
 G#4|..|C-5 VF.F ....|--- .F.. ....|G#4 2C.F ....
....|..|--- .... ....|--- .... ....|--- .... ....
....|..|C-4 BF.F ....|R-- .... ....|F-5 2F.F ....
....|..|R-- .... ....|--- .... ....|R-- .... ....
....|..|C-5 VF.F ....|--- .... ....|A#4 2F.7 ....
....|..|R-- .... ....|--- .... ....|R-- .... ....
 A#3|..|C-5 VF.F ....|A#4 2C.F ....|A#4 2C.F ....
 A#3|..|A#1 2A.F ....|--- .... ....|R-- .... ....
....|..|C-5 VF.F ....|--- .... ....|A#4 2F.7 ....
....|..|R-- .... ....|--- .... ....|R-- .... ....
....|..|C-5 VF.F ....|R-- .... ....|F-5 2F.7 ....
....|..|R-- .... ....|--- .... ....|R-- .... ....
 A#3|..|C-5 VF.F ....|--- .... ....|A#4 2C.F ....
....|..|R-- .... ....|--- .... ....|R-- .... ....
 A#3|..|C-5 VF.F ....|A#3 2C.F ....|C#5 2F.7 ....
 A#3|..|A#1 2A.F ....|--- .... ....|R-- .... ....
 A#3|..|C-5 VF.F ....|--- .... ....|A#4 2C.F ....
....|..|R-- .... ....|--- .... ....|R-- .... ....
....|..|C-4 BF.F ....|R-- .... ....|F-5 2F.F ....
....|..|R-- .... ....|--- .... ....|R-- .... ....
....|..|C-5 VF.F ....|--- .... ....|--- .... ....
....|..|--- .... ....|--- .... ....|--- .... ....
 C#4|..|C-5 VF.F ....|A#3 2F.F ....|C#5 2C.F ....
 A#3|..|A#1 2A.F ....|--- .F.. ....|R-- .... ....
....|..|C-5 VF.F ....|--- .... ....|G#4 2F.7 ....
....|..|R-- .... ....|--- .... ....|R-- .... ....
 A#3|..|C-5 VF.F ....|R-- .... ....|A#4 2C.F ....
....|..|R-- .... ....|--- .... ....|R-- .... ....
....|..|C-5 VF.F ....|--- .... ....|A#4 2F.A ....
....|..|R-- .... ....|--- .... ....|R-- .... ....
 A#3|..|C-5 VF.F ....|A#4 2C.F ....|A#4 2C.F ....
 A#3|..|A#1 2A.F ....|--- .... ....|R-- .... ....
 G#4|..|C-5 VF.F ....|--- .F.. ....|G#4 2C.F ....
....|..|--- .... ....|--- .... ....|--- .... ....
....|..|C-4 BF.F ....|R-- .... ....|F-5 2F.F ....
....|..|R-- .... ....|--- .... ....|R-- .... ....
....|..|C-5 VF.F ....|--- .... ....|A#4 2F.7 ....
....|..|R-- .... ....|--- .... ....|R-- .... ....
 A#3|..|C-5 VF.F ....|A#4 2C.F ....|A#4 2C.F ....
 A#3|..|A#1 2A.F ....|--- .... ....|R-- .... ....
....|..|C-5 VF.F ....|--- .... ....|A#4 2F.7 ....
....|..|R-- .... ....|--- .... ....|R-- .... ....
....|..|C-5 VF.F ....|R-- .... ....|F-5 2F.7 ....
....|..|R-- .... ....|--- .... ....|R-- .... ....
 A#3|..|C-5 VF.F ....|--- .... ....|A#4 2C.F ....
....|..|R-- .... ....|--- .... ....|R-- .... ....
 A#3|..|C-5 VF.F ....|A#3 2C.F ....|C#5 2F.7 ....
 A#3|..|A#1 2A.F ....|--- .... ....|R-- .... ....
 A#3|..|C-5 VF.F ....|--- .... ....|A#4 2C.F ....
....|..|R-- .... ....|--- .... ....|R-- .... ....
....|..|C-4 BF.F ....|R-- .... ....|F-5 2F.F ....
....|..|R-- .... ....|--- .... ....|R-- .... ....
....|..|C-5 VF.F ....|--- .... ....|--- .... ....
....|..|--- .... ....|--- .... ....|--- .... ....
 C#4|..|C-5 VF.F ....|A#3 2F.F ....|C#5 2C.F ....
 A#3|..|A#1 2A.F ....|--- .F.. ....|R-- .... ....
....|..|C-5 VF.F ....|--- .... ....|G#4 2F.7 ....
....|..|R-- .... ....|--- .... ....|R-- .... ....

[Pattern49]
 A#3|..|C-5 VF.F ....|R-- .... ....|A#4 2C.F ....
....|..|C-5 VF.F ....|--- .... ....|R-- .... ....
....|..|C-5 VF.F ....|--- .... ....|A#4 2F.A ....
....|..|C-5 VF.F ....|--- .... ....|R-- .... ....
 A#3|..|C-5 VF.F ....|F#3 2F.F ....|A#4 2C.F ....
....|..|C-5 VF.F ....|--- .... ....|R-- .... ....
 G#4|..|C-5 VF.F ....|--- .F.. ....|G#4 2C.F ....
....|..|C-5 VF.F ....|--- .... ....|--- .... ....
....|..|C-4 BF.F ....|R-- .... ....|F-5 2F.F ....
....|..|C-4 BF.F ....|--- .... ....|R-- .... ....
....|..|C-5 VF.F ....|--- .... ....|A#4 2F.7 ....
....|..|C-5 VF.F ....|--- .... ....|R-- .... ....
 A#3|..|C-5 VF.F ....|F#3 2F.F ....|A#4 2C.F ....
....|..|C-5 VF.F ....|--- .... ....|R-- .... ....
....|..|C-5 VF.F ....|--- .... ....|A#4 2F.7 ....
....|..|C-5 VF.F ....|--- .... ....|R-- .... ....
....|..|C-5 VF.F ....|R-- .... ....|F-5 2F.7 ....
....|..|C-5 VF.F ....|--- .... ....|R-- .... ....
 A#3|..|C-5 VF.F ....|--- .... ....|A#4 2C.F ....
....|..|C-5 VF.F ....|--- .... ....|R-- .... ....
 F#4|..|C-5 VF.F ....|F#3 2C.F ....|C#5 2F.7 ....
....|..|C-5 VF.F ....|--- .... ....|R-- .... ....
 A#3|..|C-5 VF.F ....|--- .F.. ....|A#4 2C.F ....
....|..|C-5 VF.F ....|--- .... ....|R-- .... ....
....|..|C-4 BF.F ....|R-- .... ....|F-5 2F.F ....
....|..|C-4 BF.F ....|--- .... ....|R-- .... ....
....|..|C-5 VF.F ....|--- .... ....|--- .... ....
....|..|C-5 VF.F ....|--- .... ....|--- .... ....
 C#4|..|C-5 VF.F ....|F#3 2F.F ....|C#5 2C.F ....
....|..|C-5 VF.F ....|--- .... ....|R-- .... ....
....|..|C-5 VF.F ....|--- .... ....|G#4 2F.7 ....
....|..|C-5 VF.F ....|--- .... ....|R-- .... ....
....|..|C-4 AF.F ....|A#3 2F1F ....|F-5 2F.7 ....
....|..|A#3 2F1F ....|--- .... ....|R-- .... ....
 A#3|..|B-8 JF.F ....|A#3 2C.F ....|A#4 2F.A ....
....|..|C-5 VF.7 ....|R-- .... ....|R-- .... ....
....|..|C-3 RF.F ....|F#3 2F.7 ....|A#4 2F.F ....
 A#3|..|A#1 2A.F ....|--- .... ....|R-- .... ....
....|..|C-4 LF.F ....|--- .... ....|--- .... ....
....|..|C-5 VF.7 ....|--- .... ....|--- .... ....
 A#3|..|C-4 AF.F ....|A#3 2C.F ....|R-- .... ....
....|..|C-5 VF.7 ....|R-- .... ....|R-- .... ....
....|..|B-8 JF.F ....|--- .... ....|A#4 2F.7 ....
....|..|C-5 VF.7 ....|--- .... ....|R-- .... ....
 A#3|..|C-3 RF.F ....|A#3 2C.F ....|A#4 2F.F ....
 A#3|..|A#1 2A.F ....|R-- .... ....|R-- .... ....
....|..|C-4 LF.F ....|A#3 2F.A ....|A#4 2F.7 ....
....|..|C-5 VF.7 ....|R-- .... ....|R-- .... ....
....|..|C-4 AF.F ....|R-- .... ....|A#4 2F.F ....
....|..|C-4 BF.7 ....|--- .... ....|R-- .... ....
 A#3|..|B-8 JF.F ....|A#3 2C.F ....|R-- .... ....
....|..|C-5 VF.7 ....|R-- .... ....|--- .... ....
....|..|C-3 RF.F ....|F#3 2F.7 ....|A#4 2F.F ....
 A#3|..|A#1 2A.F ....|R-- .... ....|R-- .... ....
....|..|C-4 LF.F ....|--- .... ....|C-5 2F.F ....
....|..|C-5 VF.7 ....|--- .... ....|--- .... ....
 A#3|..|C-4 AF.F ....|A#3 2C.F ....|A#4 2F.A ....
....|..|A#3 2F17 ....|R-- .... ....|R-- .... ....
....|..|B-8 JF.F ....|A#3 2F.7 ....|--- .... ....
....|..|--- .... ....|R-- .... ....|--- .... ....
 A#3|..|C-3 RF.F ....|A#3 2C.F ....|D-5 2F.F ....
 A#3|..|A#1 2A.F ....|R-- .... ....|--- .... ....
....|..|C-4 LF.F ....|A#3 2F.A ....|R-- .... ....
....|..|--- .... ....|R-- .... ....|R-- .... ....

[Pattern57]
....|..|C-4 AF.F ....|D#3 2F6F ....|R-- .... ....
....|..|C-4 AF.F ....|R-- .... ....|--- .... ....
 D#4|..|C-5 VF.F ....|D#4 2C.F ....|A#4 2F.A ....
....|..|C-5 VF.F ....|R-- .... ....|--- .... ....
....|..|C-5 VF.F ....|D-5 2F.7 ....|A#4 2F.F ....
....|..|C-5 VF.F ....|R-- .... ....|--- .... ....
....|..|C-5 VF.F ....|--- .... ....|R-- .... ....
....|..|C-5 VF.F ....|--- .... ....|--- .... ....
 D#4|..|C-4 AF.F ....|D#4 2C.F ....|A-4 2F.7 ....
....|..|C-4 AF.F ....|R-- .... ....|--- .... ....
....|..|C-5 VF.F ....|D-5 2F.7 ....|R-- .... ....
....|..|C-5 VF.F ....|R-- .... ....|--- .... ....
 D#4|..|C-5 VF.F ....|D#4 2C.F ....|A#4 2F.F ....
....|..|C-5 VF.F ....|R-- .... ....|R-- .... ....
....|..|C-5 VF.F ....|D#4 2F.A ....|A#4 2F.7 ....
....|..|C-5 VF.F ....|R-- .... ....|--- .... ....
....|..|C-4 AF.F ....|D-5 2F.7 ....|A#4 2F.F ....
....|..|C-4 AF.F ....|R-- .... ....|--- .... ....
 D#4|..|C-5 VF.F ....|D#4 2C.F ....|R-- .... ....
....|..|C-5 VF.F ....|R-- .... ....|--- .... ....
....|..|C-5 VF.F ....|D-5 2F.7 ....|C-5 2F.7 ....
....|..|C-5 VF.F ....|R-- .... ....|--- .... ....
....|..|C-5 VF.F ....|--- .... ....|--- .... ....
....|..|C-5 VF.F ....|--- .... ....|--- .... ....
 D#4|..|C-4 AF.F ....|D#4 2C.F ....|C-5 2F.F ....
....|..|C-4 AF.F ....|R-- .... ....|R-- .... ....
....|..|C-5 VF.F ....|D#4 2F.7 ....|--- .... ....
....|..|C-5 VF.F ....|R-- .... ....|--- .... ....
 D#4|..|C-5 VF.F ....|D#4 2C.F ....|A#4 2F.7 ....
....|..|C-5 VF.F ....|R-- .... ....|--- .... ....
....|..|C-5 VF.F ....|D#4 2F.A ....|R-- .... ....
....|..|C-5 VF.F ....|R-- .... ....|R-- .... ....
....|..|B-8 JF.F ....|A#3 2F1F ....|--- .... ....
....|..|A#3 2F1F ....|R-- .... ....|--- .... ....
 A#3|..|B-8 JF.F ....|A#4 2C.F ....|--- .... ....
....|..|C-5 VF.7 ....|R-- .... ....|--- .... ....
....|..|C-3 RF.F ....|D#4 2F.7 ....|A#4 2F.7 ....
....|..|C-5 VF.7 ....|R-- .... ....|R-- .... ....
....|..|C-4 LF.F ....|--- .... ....|--- .... ....
....|..|C-5 VF.7 ....|--- .... ....|--- .... ....
 A#3|..|C-4 BF.F ....|A#4 2C.F ....|A#4 2F.7 ....
....|..|C-4 AF.7 ....|R-- .... ....|--- .... ....
....|..|B-8 JF.F ....|D#4 2F.7 ....|R-- .... ....
....|..|C-5 VF.7 ....|R-- .... ....|R-- .... ....
 A#3|..|C-3 RF.F ....|A#4 2C.F ....|--- .... ....
....|..|C-5 VF.7 ....|R-- .... ....|--- .... ....
....|..|C-4 LF.F ....|A#4 2F.A ....|--- .... ....
....|..|C-5 VF.7 ....|R-- .... ....|--- .... ....
....|..|B-8 JF.F ....|D#4 2F.7 ....|A#4 2F.F ....
....|..|C-4 AF.7 ....|R-- .... ....|--- .... ....
 A#3|..|B-8 JF.F ....|A#4 2C.F ....|--- .... ....
....|..|C-5 VF.7 ....|R-- .... ....|--- .... ....
....|..|C-3 RF.F ....|D#4 2F.7 ....|--- .... ....
....|..|C-5 VF.7 ....|R-- .... ....|--- .... ....
....|..|C-4 LF.F ....|--- .... ....|R-- .... ....
....|..|C-5 VF.7 ....|--- .... ....|R-- .... ....
 A#3|..|C-4 BF.F ....|A#4 2C.F ....|--- .... ....
....|..|A#3 2F17 ....|R-- .... ....|--- .... ....
....|..|B-8 JF.F ....|A#4 2F.7 ....|--- .... ....
....|..|--- .... ....|R-- .... ....|--- .... ....
 A#3|..|C-3 RF.F ....|A#4 2C.F ....|A#4 2F.A ....
....|..|--- .... ....|R-- .... ....|--- .... ....
....|..|C-4 LF.F ....|A#4 2F.A ....|--- .... ....
....|..|--- .... ....|R-- .... ....|--- .... ....

[Pattern58]
....|..|B-8 JF.F ....|G-3 2F2F ....|--- .... ....
....|..|G-3 2F2F ....|R-- .... ....|--- .... ....
 G-4|..|B-8 JF.F ....|G-4 2C.F ....|--- .... ....
....|..|--- .... ....|R-- .... ....|--- .... ....
....|..|C-3 RF.F ....|A#4 2F.7 ....|F-5 2F.F ....
....|..|--- .... ....|R-- .... ....|--- .... ....
....|..|C-4 LF.F ....|--- .... ....|--- .... ....
....|..|--- .... ....|--- .... ....|--- .... ....
 G-4|..|C-4 BF.F ....|G-4 2C.F ....|A#4 2F.7 ....
....|..|--- .... ....|R-- .... ....|--- .... ....
....|..|B-8 JF.F ....|A#4 2F.7 ....|--- .... ....
....|..|--- .... ....|R-- .... ....|--- .... ....
 G-4|..|C-3 RF.F ....|G-4 2C.F ....|F-5 2F.F ....
....|..|G-3 2F2A ....|R-- .... ....|R-- .... ....
....|..|C-4 LF.F ....|G-4 2F.A ....|--- .... ....
....|..|--- .... ....|R-- .... ....|--- .... ....
....|..|B-8 JF.F ....|A#4 2F.7 ....|F-5 2F.F ....
....|..|--- .... ....|R-- .... ....|--- .... ....
 G-4|..|B-8 JF.F ....|G-4 2C.F ....|--- .... ....
....|..|--- .... ....|R-- .... ....|--- .... ....
....|..|C-3 RF.F ....|A#4 2F.7 ....|R-- .... ....
....|..|--- .... ....|R-- .... ....|--- .... ....
....|..|C-4 LF.F ....|--- .... ....|--- .... ....
....|..|--- .... ....|--- .... ....|--- .... ....
 G-4|..|C-4 BF.F ....|G-4 2C.F ....|F-5 2F.A ....
....|..|G-3 2F27 ....|R-- .... ....|R-- .... ....
....|..|B-8 JF.F ....|G-4 2F.7 ....|--- .... ....
....|..|--- .... ....|R-- .... ....|--- .... ....
 G-4|..|C-3 RF.F ....|G-4 2C.F ....|F-5 2F.7 ....
....|..|--- .... ....|R-- .... ....|--- .... ....
....|..|C-4 LF.F ....|G-4 2F.A ....|--- .... ....
....|..|--- .... ....|R-- .... ....|--- .... ....
....|..|B-8 JF.F ....|D-3 2F5F ....|R-- .... ....
....|..|D-3 2F5F ....|R-- .... ....|R-- .... ....
 D-4|..|B-8 JF.F ....|D-5 2C.F ....|--- .... ....
....|..|--- .... ....|R-- .... ....|--- .... ....
....|..|C-3 RF.F ....|G-4 2F.7 ....|F-5 2F.7 ....
....|..|--- .... ....|R-- .... ....|R-- .... ....
....|..|C-4 LF.F ....|--- .... ....|--- .... ....
....|..|--- .... ....|--- .... ....|--- .... ....
 D-4|..|C-4 BF.F ....|D-5 2C.F ....|F-5 2F.7 ....
....|..|--- .... ....|R-- .... ....|--- .... ....
....|..|B-8 JF.F ....|G-4 2F.7 ....|--- .... ....
....|..|--- .... ....|R-- .... ....|--- .... ....
 D-4|..|C-3 RF.F ....|D-5 2C.F ....|R-- .... ....
....|..|D-3 2F5A ....|R-- .... ....|R-- .... ....
....|..|C-4 LF.F ....|D-5 2F.A ....|--- .... ....
....|..|--- .... ....|R-- .... ....|--- .... ....
....|..|B-8 JF.F ....|G-4 2F.7 ....|A#4 2F.F ....
....|..|--- .... ....|R-- .... ....|--- .... ....
 D-4|..|B-8 JF.F ....|D-5 2C.F ....|--- .... ....
....|..|--- .... ....|R-- .... ....|--- .... ....
....|..|C-3 RF.F ....|G-4 2F.7 ....|--- .... ....
....|..|--- .... ....|R-- .... ....|--- .... ....
....|..|C-4 LF.F ....|--- .... ....|--- .... ....
....|..|--- .... ....|--- .... ....|--- .... ....
 D-4|..|C-4 BF.F ....|D-5 2C.F ....|R-- .... ....
....|..|D-3 2F57 ....|R-- .... ....|R-- .... ....
....|..|B-8 JF.F ....|D-5 2F.7 ....|--- .... ....
....|..|--- .... ....|R-- .... ....|--- .... ....
 D-4|..|C-3 RF.F ....|D-5 2C.F ....|A#4 2F.A ....
....|..|--- .... ....|R-- .... ....|--- .... ....
....|..|C-4 LF.F ....|D-5 2F.A ....|--- .... ....
....|..|--- .... ....|R-- .... ....|--- .... ....

[Pattern59]
....|..|B-8 JF.F ....|D#3 2F6F ....|--- .... ....
....|..|D#3 2F6F ....|R-- .... ....|--- .... ....
 D#4|..|B-8 JF.F ....|D#4 2C.F ....|--- .... ....
....|..|--- .... ....|R-- .... ....|--- .... ....
....|..|C-3 RF.F ....|D-5 2F.7 ....|D#5 2F.F ....
....|..|--- .... ....|R-- .... ....|--- .... ....
....|..|C-4 LF.F ....|--- .... ....|R-- .... ....
....|..|--- .... ....|--- .... ....|--- .... ....
 D#4|..|C-4 BF.F ....|D#4 2C.F ....|A#4 2F.7 ....
....|..|--- .... ....|R-- .... ....|--- .... ....
....|..|B-8 JF.F ....|D-5 2F.7 ....|--- .... ....
....|..|--- .... ....|R-- .... ....|--- .... ....
 D#4|..|C-3 RF.F ....|D#4 2C.F ....|D#5 2F.F ....
....|..|D#3 2F6A ....|R-- .... ....|R-- .... ....
....|..|C-4 LF.F ....|D#4 2F.A ....|--- .... ....
....|..|--- .... ....|R-- .... ....|--- .... ....
....|..|B-8 JF.F ....|D-5 2F.7 ....|D#5 2F.F ....
....|..|--- .... ....|R-- .... ....|--- .... ....
 D#4|..|B-8 JF.F ....|D#4 2C.F ....|R-- .... ....
....|..|--- .... ....|R-- .... ....|--- .... ....
....|..|C-3 RF.F ....|D-5 2F.7 ....|--- .... ....
....|..|--- .... ....|R-- .... ....|--- .... ....
....|..|C-4 LF.F ....|--- .... ....|--- .... ....
....|..|--- .... ....|--- .... ....|--- .... ....
 D#4|..|C-4 BF.F ....|D#4 2C.F ....|C-5 2F.F ....
....|..|D#3 2F67 ....|R-- .... ....|R-- .... ....
....|..|B-8 JF.F ....|D#4 2F.7 ....|--- .... ....
....|..|--- .... ....|R-- .... ....|--- .... ....
 D#4|..|C-3 RF.F ....|D#4 2C.F ....|D#5 2F.7 ....
....|..|--- .... ....|R-- .... ....|--- .... ....
....|..|C-4 LF.F ....|D#4 2F.A ....|R-- .... ....
....|..|--- .... ....|R-- .... ....|--- .... ....
....|..|B-8 JF.F ....|A#3 2F1F ....|--- .... ....
....|..|A#3 2F1F ....|R-- .... ....|--- .... ....
....|..|B-8 JF.F ....|--- .... ....|--- .... ....
....|..|--- .... ....|--- .... ....|--- .... ....
....|..|C-3 RF.F ....|D#4 2F.7 ....|D#5 2F.7 ....
....|..|--- .... ....|R-- .... ....|R-- .... ....
....|..|C-4 LF.F ....|--- .... ....|--- .... ....
....|..|--- .... ....|--- .... ....|--- .... ....
....|..|C-4 BF.F ....|D#4 2F.A ....|D#5 2F.7 ....
....|..|--- .... ....|R-- .... ....|--- .... ....
....|..|B-8 JF.F ....|D#4 2F.7 ....|R-- .... ....
....|..|--- .... ....|R-- .... ....|--- .... ....
....|..|C-3 RF.F ....|A#3 2F1A ....|--- .... ....
....|..|A#3 2F1A ....|--- .... ....|--- .... ....
....|..|C-4 LF.F ....|--- .... ....|--- .... ....
....|..|--- .... ....|--- .... ....|--- .... ....
....|..|B-8 JF.F ....|D#4 2F.7 ....|A#4 2F.F ....
....|..|--- .... ....|R-- .... ....|--- .... ....
....|..|B-8 JF.F ....|--- .... ....|--- .... ....
....|..|--- .... ....|--- .... ....|--- .... ....
....|..|C-3 RF.F ....|D#4 2F.7 ....|--- .... ....
....|..|--- .... ....|R-- .... ....|--- .... ....
....|..|C-4 LF.F ....|--- .... ....|R-- .... ....
....|..|--- .... ....|--- .... ....|--- .... ....
....|..|C-4 BF.F ....|A#3 2F17 ....|--- .... ....
....|..|A#3 2F17 ....|--- .... ....|--- .... ....
....|..|B-8 JF.F ....|--- .... ....|--- .... ....
....|..|--- .... ....|--- .... ....|--- .... ....
....|..|C-3 RF.F ....|--- .... ....|A#4 2F.A ....
....|..|--- .... ....|--- .... ....|--- .... ....
....|..|C-4 LF.F ....|--- .... ....|--- .... ....
....|..|--- .... ....|--- .... ....|--- .... ....

[Pattern60]
....|..|B-8 JF.F ....|G-3 2F2F ....|--- .... ....
....|..|G-3 2F2F ....|--- .... ....|--- .... ....
....|..|B-8 JF.F ....|--- .... ....|--- .... ....
....|..|--- .... ....|--- .... ....|--- .... ....
....|..|C-3 RF.F ....|--- .... ....|F-5 2F.F ....
....|..|--- .... ....|--- .... ....|--- .... ....
....|..|C-4 LF.F ....|--- .... ....|--- .... ....
....|..|--- .... ....|--- .... ....|--- .... ....
....|..|C-4 BF.F ....|--- .... ....|A#4 2F.7 ....
....|..|--- .... ....|--- .... ....|--- .... ....
....|..|B-8 JF.F ....|--- .... ....|--- .... ....
....|..|--- .... ....|--- .... ....|--- .... ....
....|..|C-3 RF.F ....|G-3 2F2A ....|F-5 2F.F ....
....|..|G-3 2F2A ....|--- .... ....|R-- .... ....
....|..|C-4 LF.F ....|--- .... ....|--- .... ....
....|..|--- .... ....|--- .... ....|--- .... ....
....|..|B-8 JF.F ....|--- .... ....|F-5 2F.F ....
....|..|--- .... ....|--- .... ....|--- .... ....
....|..|B-8 JF.F ....|--- .... ....|--- .... ....
....|..|--- .... ....|--- .... ....|--- .... ....
....|..|C-3 RF.F ....|--- .... ....|R-- .... ....
....|..|--- .... ....|--- .... ....|--- .... ....
....|..|C-4 LF.F ....|--- .... ....|--- .... ....
....|..|--- .... ....|--- .... ....|--- .... ....
....|..|C-4 BF.F ....|G-3 2F27 ....|F-5 2F.A ....
....|..|G-3 2F27 ....|--- .... ....|R-- .... ....
....|..|B-8 JF.F ....|--- .... ....|--- .... ....
....|..|--- .... ....|--- .... ....|--- .... ....
....|..|C-3 RF.F ....|--- .... ....|F-5 2F.7 ....
....|..|--- .... ....|--- .... ....|--- .... ....
....|..|C-4 LF.F ....|--- .... ....|--- .... ....
....|..|--- .... ....|--- .... ....|--- .... ....
....|..|B-8 JF.F ....|D-3 2F5F ....|R-- .... ....
....|..|D-3 2F5F ....|--- .... ....|R-- .... ....
....|..|B-8 JF.F ....|--- .... ....|--- .... ....
....|..|--- .... ....|--- .... ....|--- .... ....
....|..|C-3 RF.F ....|--- .... ....|F-5 2F.7 ....
....|..|--- .... ....|--- .... ....|R-- .... ....
....|..|C-4 LF.F ....|--- .... ....|--- .... ....
....|..|--- .... ....|--- .... ....|--- .... ....
....|..|C-4 BF.F ....|--- .... ....|F-5 2F.7 ....
....|..|--- .... ....|--- .... ....|--- .... ....
....|..|B-8 JF.F ....|--- .... ....|--- .... ....
....|..|--- .... ....|--- .... ....|--- .... ....
....|..|C-3 RF.F ....|D-3 2F5A ....|R-- .... ....
....|..|D-3 2F5A ....|--- .... ....|R-- .... ....
....|..|C-4 LF.F ....|--- .... ....|--- .... ....
....|..|--- .... ....|--- .... ....|--- .... ....
....|..|B-8 JF.F ....|--- .... ....|A#4 2F.F ....
....|..|--- .... ....|--- .... ....|--- .... ....
....|..|B-8 JF.F ....|--- .... ....|--- .... ....
....|..|--- .... ....|--- .... ....|--- .... ....
....|..|C-3 RF.F ....|--- .... ....|--- .... ....
....|..|--- .... ....|--- .... ....|--- .... ....
....|..|C-4 LF.F ....|--- .... ....|--- .... ....
....|..|--- .... ....|--- .... ....|--- .... ....
....|..|C-4 BF.F ....|D-3 2F57 ....|R-- .... ....
....|..|D-3 2F57 ....|--- .... ....|R-- .... ....
....|..|B-8 JF.F ....|--- .... ....|--- .... ....
....|..|--- .... ....|--- .... ....|--- .... ....
....|..|C-3 RF.F ....|--- .... ....|A#4 2F.A ....
....|..|--- .... ....|--- .... ....|--- .... ....
....|..|C-4 LF.F ....|--- .... ....|--- .... ....
....|..|--- .... ....|--- .... ....|--- .... ....

[Pattern61]
....|..|B-8 JF.F ....|D#3 2F6F ....|--- .... ....
....|..|D#3 2F6F ....|--- .... ....|--- .... ....
....|..|B-8 JF.F ....|--- .... ....|--- .... ....
....|..|--- .... ....|--- .... ....|--- .... ....
....|..|C-3 RF.F ....|--- .... ....|D#5 2F.F ....
....|..|--- .... ....|--- .... ....|--- .... ....
....|..|C-4 LF.F ....|--- .... ....|R-- .... ....
....|..|--- .... ....|--- .... ....|--- .... ....
....|..|C-4 BF.F ....|--- .... ....|A#4 2F.7 ....
....|..|--- .... ....|--- .... ....|--- .... ....
....|..|B-8 JF.F ....|--- .... ....|--- .... ....
....|..|--- .... ....|--- .... ....|--- .... ....
....|..|C-3 RF.F ....|D#3 2F6A ....|D#5 2F.F ....
....|..|D#3 2F6A ....|--- .... ....|R-- .... ....
....|..|C-4 LF.F ....|--- .... ....|--- .... ....
....|..|--- .... ....|--- .... ....|--- .... ....
....|..|B-8 JF.F ....|--- .... ....|D#5 2F.F ....
....|..|--- .... ....|--- .... ....|--- .... ....
....|..|B-8 JF.F ....|--- .... ....|R-- .... ....
....|..|--- .... ....|--- .... ....|--- .... ....
....|..|C-3 RF.F ....|--- .... ....|--- .... ....
....|..|--- .... ....|--- .... ....|--- .... ....
....|..|C-4 LF.F ....|--- .... ....|--- .... ....
....|..|--- .... ....|--- .... ....|--- .... ....
....|..|C-4 BF.F ....|D#3 2F67 ....|C-5 2F.F ....
....|..|D#3 2F67 ....|--- .... ....|R-- .... ....
....|..|B-8 JF.F ....|--- .... ....|--- .... ....
....|..|--- .... ....|--- .... ....|--- .... ....
....|..|C-3 RF.F ....|--- .... ....|D#5 2F.7 ....
....|..|--- .... ....|--- .... ....|--- .... ....
....|..|C-4 LF.F ....|--- .... ....|R-- .... ....
....|..|--- .... ....|--- .... ....|--- .... ....
....|..|C-4 BF.7 ....|R-- .... ....|--- .... ....
....|..|--- .... ....|--- .... ....|--- .... ....
....|..|B-8 JF.7 ....|--- .... ....|--- .... ....
....|..|--- .... ....|--- .... ....|--- .... ....
....|..|C-3 RF.7 ....|--- .... ....|D#5 2F.7 ....
....|..|--- .... ....|--- .... ....|R-- .... ....
....|..|C-4 LF.7 ....|--- .... ....|--- .... ....
....|..|--- .... ....|--- .... ....|--- .... ....
....|..|B-8 JF.7 ....|--- .... ....|D#5 2F.7 ....
....|..|--- .... ....|--- .... ....|--- .... ....
....|..|B-8 JF.7 ....|--- .... ....|R-- .... ....
....|..|--- .... ....|--- .... ....|--- .... ....
....|..|C-3 RF.7 ....|R-- .... ....|--- .... ....
....|..|--- .... ....|--- .... ....|--- .... ....
....|..|C-4 LF.7 ....|--- .... ....|--- .... ....
....|..|--- .... ....|--- .... ....|--- .... ....
....|..|C-4 BF.7 ....|--- .... ....|C-5 2F.7 ....
....|..|--- .... ....|--- .... ....|--- .... ....
....|..|B-8 JF.7 ....|--- .... ....|--- .... ....
....|..|--- .... ....|--- .... ....|--- .... ....
....|..|C-3 RF.7 ....|--- .... ....|--- .... ....
....|..|--- .... ....|--- .... ....|--- .... ....
....|..|C-4 LF.7 ....|--- .... ....|R-- .... ....
....|..|--- .... ....|--- .... ....|--- .... ....

