[Module]
VortexTrackerII=0
Version=3.5
Title=./test/azu_ending_theme.mid
Author=oisee ^ 4d 29.05.2010
NoteTable=4
ChipFreq=1750000
Speed=4
PlayOrder=L0,1,2,3,4,5,6,7,8,9,10,11,12,13,14,15,16,17,18,19,20,21,22,23,24,25,26,27,28,29,30,31,32,33,34,35,36

[Ornament1]
L0

[Ornament2]
L0

[Ornament3]
L0

[Ornament4]
L0

[Ornament5]
L0

[Ornament6]
L0

[Ornament7]
L0

[Ornament8]
L0

[Ornament9]
L0

[Ornament10]
L0

[Ornament11]
L0

[Ornament12]
L0

[Ornament13]
L0

[Ornament14]
L0

[Ornament15]
L0

[Sample1]
TnE +000_ +00_ F_
TnE +000_ +00_ F_
TnE +000_ +00_ F_
TnE +000_ +00_ D_
TnE +000_ +00_ B_
TnE +000_ +00_ B_ L

[Sample2]
TnE +000_ +00_ F_ L

[Sample3]
TnE +001_ +00_ F_
TnE +002_ +00_ F_
TnE +001_ +00_ E_
TnE +002_ +00_ E_
TnE +000_ +00_ E_ L
TnE -001_ +00_ E_
TnE -002_ +00_ E_
TnE -001_ +00_ E_
TnE +000_ +00_ E_
TnE +001_ +00_ E_
TnE +002_ +00_ E_
TnE +001_ +00_ E_

[Sample4]
TnE +002_ +00_ D_
TnE +002_ +00_ D_
TnE +002_ +00_ C_
TnE +002_ +00_ B_
TnE +002_ +00_ A_ L
TnE +002_ +00_ A_
TnE +002_ +00_ A_
TnE +002_ +00_ A_
TnE +002_ +00_ A_
TnE +002_ +00_ A_
TnE +002_ +00_ A_
TnE +002_ +00_ A_

[Sample5]
TnE +000_ +00_ F_
TnE +000_ +00_ F_
tne +000_ +00_ 0_ L

[Sample6]
TnE -001_ +00_ F_ L

[Sample7]
TnE +006_ +00_ F_ L

[Sample8]
tNe +000_ +00_ F_
tNe +000_ +00_ B_
tNe +000_ +00_ 7_
tNe +000_ +00_ 6- L

[Sample9]
TnE +080_ +00_ F_
TnE +100_ +00_ E_
TnE +180_ +00_ E_
TnE +200_ +00_ E_
TnE +240_ +00_ D_
TnE +280_ +00_ D_
TnE +2C0_ +00_ D_
TnE +300_ +00_ C_
TnE +300_ +00_ C_
TnE +340_ +00_ C_
TnE +340_ +00_ C_
TnE +380_ +00_ B_
TnE +380_ +00_ B_
TnE +400_ +00_ B_
TnE +400_ +00_ B_
TnE +480_ +00_ A_
TnE +500_ +00_ 9_
TnE +580_ +00_ 7_
TnE +600_ +00_ 4_
TnE +680_ +00_ 1_
TnE +000_ +00_ 0_ L

[Sample10]
Tne +1C0_ +00_ F_
Tne +280_ +00_ E_
Tne +380_ +00_ C_
Tne +440_ +00_ A_
Tne +480_ +00_ 8_
TnE +000_ +00_ 0_ L

[Sample11]
TNe +200_ -0A_ F_
tNe +000_ +0F_ A_
TNe +200_ -07_ E_
tNe +000_ +0E_ B- L

[Sample12]
TNE +0A0_ +05_ F_
TNE +140_ +02_ D_
TNE +140_ +02_ B_
TNE +100_ +00_ A_ L
TNE +140_ +00_ A_
TNE +200_ +00_ A-

[Sample13]
Tne +200_ +00_ F_
Tne +2C0_ +00_ F_
Tne +380_ +00_ E_
Tne +500_ +00_ C_
Tne +520_ +00_ 9_
tne +000_ +00_ 0_ L

[Sample14]
TNE -100_ +00_ F_
TNE -100_ +00_ D_
TNE -100_ +00_ A_
TNE -100_ +00_ 5_
tne +000_ +00_ 0_ L

[Sample15]
TNE -100_ +00_ 5_
TNE -100_ +00_ 8_
TNE -100_ +00_ B_
TNE -100_ +00_ F_
TNe -100_ +00_ 9- L

[Sample16]
TnE +000_ +00_ C_
TnE +000_ +00_ E_
TnE +000_ +00_ F_
TnE +000_ +00_ F_
TnE +000_ +00_ E_
TnE +000_ +00_ D_
TnE +000_ +00_ C_
TnE +000_ +00_ C_ L
TnE +001_ +00_ C_
TnE +002_ +00_ C_
TnE +003_ +00_ C_
TnE +001_ +00_ C_
TnE +000_ +00_ C_
TnE -001_ +00_ C_
TnE -002_ +00_ C_
TnE -003_ +00_ C_
TnE -001_ +00_ C_
TnE +000_ +00_ C_
TnE +000_ +00_ C_

[Sample17]
Tne +1C0_ +00_ F_
Tne +280_ +00_ D_
Tne +380_ +00_ 7_
TNE +000_ +00_ 0_ L

[Sample18]
TnE -00C_ +00_ 0_ L

[Sample19]
TNe +000_ +00_ F_
TNe +000_ +00_ C_
TNe +000_ +00_ 6_
TNe +000_ +01_ A- L

[Sample20]
TNE +140_ +00_ F_
tNE +000_ +00_ B- L

[Sample21]
tNE +000_ +00_ D_
tNE +000_ +00_ 8_
tNE +000_ +00_ 1_
TNE +000_ +00_ 0_ L

[Sample22]
TnE +000_ +00_ D_ L
TnE +000_ +00_ D_
tne +000_ +00_ 9_
tne +000_ +00_ 9_
TnE +000_ +00_ D_
TnE +000_ +00_ D_
tne +000_ +00_ 9_
tne +000_ +00_ 9_
TnE +000_ +00_ D_
TnE +000_ +00_ D_
TnE +000_ +00_ D_
TnE +000_ +00_ D_
TnE +000_ +00_ D_
TnE +000_ +00_ D_
tne +000_ +00_ 9_
tne +000_ +00_ 9_

[Sample23]
TnE +000_ +00_ F_ L
TnE +010_ +01_ F_
TnE +010_ +01_ F_
TnE +010_ +01_ F_
TnE +010_ +01_ F_
TnE +000_ +00_ F_
TnE +000_ +00_ F_
TnE -010_ -01_ F_
TnE -010_ -01_ F_
TnE -010_ -01_ F_
TnE -010_ -01_ F_
TnE +000_ +00_ F_

[Sample24]
TNe +000_ -01_ C_
TNe +000_ -01_ D_
TNe +000_ -01_ E_
TNe +000_ -01_ F_
TNe +000_ -01_ F_
TNe +000_ -01_ F_
TNe +000_ -01_ F_
TNe +000_ -01_ F_
TNe +000_ -01_ E_
TNe +000_ -01_ E_
TNe +000_ -01_ E_
TNe +000_ -01_ F_
TNe +000_ -01_ F_ L

[Sample25]
TNE +000_ +00_ F_
TNE +000_ +00_ F_ L
TNE +000_ +00_ F_
TNE +000_ +00_ F_
TNE +000_ +00_ F-

[Sample26]
tne +000_ +00_ 0_ L

[Sample27]
TnE +100_ +05_ F_
TnE +200_ +02_ A_
TnE +300_ +02_ 7_
TNE +400_ +00_ 3- L

[Sample28]
tne +000_ +00_ 0_ L

[Sample29]
tnE +000_ +00_ 0_ L

[Sample30]
TNE +000_ +00_ C+ L

[Sample31]
TNe +1C0_ +00_ F_
Tne +280_ +00_ E_
Tne +380_ +00_ C_
Tne +440_ +00_ A_
Tne +480_ +00_ 8_
TnE +000_ +00_ 0_ L

[Pattern0]
....|..|--- .... ....|--- .... ....|--- .... ....
....|..|--- .... ....|--- .... ....|--- .... ....
....|..|--- .... ....|--- .... ....|--- .... ....
....|..|--- .... ....|--- .... ....|--- .... ....
....|..|--- .... ....|--- .... ....|--- .... ....
....|..|--- .... ....|--- .... ....|--- .... ....
....|..|--- .... ....|--- .... ....|--- .... ....
....|..|--- .... ....|--- .... ....|--- .... ....
....|..|--- .... ....|--- .... ....|--- .... ....
....|..|--- .... ....|--- .... ....|--- .... ....
....|..|--- .... ....|--- .... ....|--- .... ....
....|..|--- .... ....|--- .... ....|--- .... ....
....|..|--- .... ....|--- .... ....|--- .... ....
....|..|--- .... ....|--- .... ....|--- .... ....
....|..|--- .... ....|--- .... ....|--- .... ....
....|..|--- .... ....|--- .... ....|--- .... ....
....|..|--- .... ....|--- .... ....|--- .... ....
....|..|--- .... ....|--- .... ....|--- .... ....
....|..|--- .... ....|--- .... ....|--- .... ....
....|..|--- .... ....|--- .... ....|--- .... ....
....|..|--- .... ....|--- .... ....|--- .... ....
....|..|--- .... ....|--- .... ....|--- .... ....
....|..|--- .... ....|--- .... ....|--- .... ....
....|..|--- .... ....|--- .... ....|--- .... ....
....|..|--- .... ....|--- .... ....|--- .... ....
....|..|--- .... ....|--- .... ....|--- .... ....
....|..|--- .... ....|--- .... ....|--- .... ....
....|..|--- .... ....|--- .... ....|--- .... ....
....|..|--- .... ....|--- .... ....|--- .... ....
....|..|--- .... ....|--- .... ....|--- .... ....
....|..|--- .... ....|--- .... ....|--- .... ....
....|..|--- .... ....|--- .... ....|--- .... ....
....|..|--- .... ....|--- .... ....|--- .... ....
....|..|--- .... ....|--- .... ....|--- .... ....
....|..|--- .... ....|--- .... ....|--- .... ....
....|..|--- .... ....|--- .... ....|--- .... ....
....|..|--- .... ....|--- .... ....|--- .... ....
....|..|--- .... ....|--- .... ....|--- .... ....
....|..|--- .... ....|--- .... ....|--- .... ....
....|..|--- .... ....|--- .... ....|--- .... ....
....|..|--- .... ....|--- .... ....|--- .... ....
....|..|--- .... ....|--- .... ....|--- .... ....
....|..|--- .... ....|--- .... ....|--- .... ....
....|..|--- .... ....|--- .... ....|--- .... ....
....|..|--- .... ....|--- .... ....|--- .... ....
....|..|--- .... ....|--- .... ....|--- .... ....
....|..|--- .... ....|--- .... ....|--- .... ....
....|..|--- .... ....|--- .... ....|--- .... ....
....|..|--- .... ....|--- .... ....|--- .... ....
....|..|--- .... ....|--- .... ....|--- .... ....
....|..|--- .... ....|--- .... ....|--- .... ....
....|..|--- .... ....|--- .... ....|--- .... ....
....|..|--- .... ....|--- .... ....|--- .... ....
....|..|--- .... ....|--- .... ....|--- .... ....
....|..|--- .... ....|--- .... ....|--- .... ....
....|..|--- .... ....|--- .... ....|--- .... ....
....|..|--- .... ....|--- .... ....|--- .... ....
....|..|--- .... ....|--- .... ....|--- .... ....
....|..|--- .... ....|--- .... ....|--- .... ....
....|..|--- .... ....|--- .... ....|--- .... ....
....|..|--- .... ....|--- .... ....|--- .... ....
....|..|--- .... ....|--- .... ....|--- .... ....
....|..|--- .... ....|--- .... ....|--- .... ....
....|..|--- .... ....|--- .... ....|--- .... ....

[Pattern1]
....|..|--- .... ....|--- .... ....|--- .... ....
....|..|--- .... ....|--- .... ....|--- .... ....
....|..|--- .... ....|--- .... ....|--- .... ....
....|..|--- .... ....|--- .... ....|--- .... ....
....|..|--- .... ....|--- .... ....|--- .... ....
....|..|--- .... ....|--- .... ....|--- .... ....
....|..|--- .... ....|--- .... ....|--- .... ....
....|..|--- .... ....|--- .... ....|--- .... ....
....|..|--- .... ....|--- .... ....|--- .... ....
....|..|--- .... ....|--- .... ....|--- .... ....
....|..|--- .... ....|--- .... ....|--- .... ....
....|..|--- .... ....|--- .... ....|--- .... ....
....|..|--- .... ....|--- .... ....|--- .... ....
....|..|--- .... ....|--- .... ....|--- .... ....
....|..|--- .... ....|--- .... ....|--- .... ....
....|..|--- .... ....|--- .... ....|--- .... ....
....|..|--- .... ....|--- .... ....|--- .... ....
....|..|--- .... ....|--- .... ....|--- .... ....
....|..|--- .... ....|--- .... ....|--- .... ....
....|..|--- .... ....|--- .... ....|--- .... ....
....|..|--- .... ....|--- .... ....|--- .... ....
....|..|--- .... ....|--- .... ....|--- .... ....
....|..|--- .... ....|--- .... ....|--- .... ....
....|..|--- .... ....|--- .... ....|--- .... ....
....|..|--- .... ....|--- .... ....|--- .... ....
....|..|--- .... ....|--- .... ....|--- .... ....
....|..|--- .... ....|--- .... ....|--- .... ....
....|..|--- .... ....|--- .... ....|--- .... ....
....|..|--- .... ....|--- .... ....|--- .... ....
....|..|--- .... ....|--- .... ....|--- .... ....
....|..|--- .... ....|--- .... ....|--- .... ....
....|..|--- .... ....|--- .... ....|--- .... ....
....|..|C-4 AF.F ....|F-5 2F.F ....|--- .... ....
....|..|--- .... ....|R-- .... ....|--- .... ....
....|..|--- .... ....|A#5 2F.F ....|--- .... ....
....|..|--- .... ....|--- .... ....|--- .... ....
....|..|--- .... ....|--- .... ....|--- .... ....
....|..|--- .... ....|--- .... ....|--- .... ....
....|..|C-4 AF.F ....|A#5 2F.F ....|--- .... ....
....|..|--- .... ....|R-- .... ....|--- .... ....
....|..|--- .... ....|F-5 2F.F ....|--- .... ....
....|..|--- .... ....|--- .... ....|--- .... ....
....|..|--- .... ....|--- .... ....|--- .... ....
....|..|--- .... ....|R-- .... ....|--- .... ....
....|..|C-4 RF.F ....|F-5 2F.7 ....|--- .... ....
....|..|--- .... ....|R-- .... ....|--- .... ....
....|..|--- .... ....|D-5 2F.F ....|--- .... ....
....|..|--- .... ....|--- .... ....|--- .... ....
....|..|--- .... ....|D#5 2F.F ....|--- .... ....
....|..|--- .... ....|R-- .... ....|--- .... ....
....|..|C-4 AF.7 ....|F-5 2F.F ....|--- .... ....
....|..|--- .... ....|--- .... ....|--- .... ....
....|..|--- .... ....|C-5 2F.F ....|--- .... ....
....|..|--- .... ....|--- .... ....|--- .... ....
....|..|--- .... ....|A#4 2F.F ....|--- .... ....
....|..|--- .... ....|R-- .... ....|--- .... ....
....|..|C-4 AF.F ....|F-5 2F.F ....|--- .... ....
....|..|--- .... ....|--- .... ....|--- .... ....
....|..|--- .... ....|D-5 2F.7 ....|--- .... ....
....|..|--- .... ....|R-- .... ....|--- .... ....
....|..|--- .... ....|D#5 2F.7 ....|--- .... ....
....|..|--- .... ....|--- .... ....|--- .... ....
....|..|C-4 AF.F ....|F-5 2F.7 ....|--- .... ....
....|..|--- .... ....|--- .... ....|--- .... ....

[Pattern2]
....|..|--- .... ....|C-5 2F.7 ....|--- .... ....
....|..|--- .... ....|R-- .... ....|--- .... ....
....|..|--- .... ....|A#4 2F.7 ....|--- .... ....
....|..|--- .... ....|--- .... ....|--- .... ....
....|..|C-4 RF.F ....|F-5 2F.7 ....|--- .... ....
....|..|--- .... ....|--- .... ....|--- .... ....
....|..|C-4 RF.F ....|--- .... ....|--- .... ....
....|..|--- .... ....|R-- .... ....|--- .... ....
....|..|--- .... ....|--- .... ....|--- .... ....
....|..|--- .... ....|--- .... ....|--- .... ....
....|..|C-4 AF.7 ....|--- .... ....|--- .... ....
....|..|--- .... ....|--- .... ....|--- .... ....
....|..|C-4 RF.A ....|--- .... ....|--- .... ....
....|..|--- .... ....|--- .... ....|--- .... ....
....|..|--- .... ....|--- .... ....|--- .... ....
....|..|--- .... ....|--- .... ....|--- .... ....
....|..|C-4 AF.F ....|F-5 2F.F ....|--- .... ....
....|..|--- .... ....|R-- .... ....|--- .... ....
....|..|C-4 RF.7 ....|A#5 2F.F ....|--- .... ....
....|..|--- .... ....|--- .... ....|--- .... ....
....|..|--- .... ....|--- .... ....|--- .... ....
....|..|--- .... ....|--- .... ....|--- .... ....
....|..|C-4 AF.F ....|A#5 2F.F ....|--- .... ....
....|..|--- .... ....|R-- .... ....|--- .... ....
....|..|--- .... ....|F-5 2F.F ....|--- .... ....
....|..|--- .... ....|--- .... ....|--- .... ....
....|..|--- .... ....|--- .... ....|--- .... ....
....|..|--- .... ....|R-- .... ....|--- .... ....
....|..|C-4 RF.F ....|F-5 2F.7 ....|--- .... ....
....|..|--- .... ....|R-- .... ....|--- .... ....
....|..|--- .... ....|D-5 2F.F ....|--- .... ....
....|..|--- .... ....|--- .... ....|--- .... ....
....|..|--- .... ....|D#5 2F.F ....|--- .... ....
....|..|--- .... ....|R-- .... ....|--- .... ....
....|..|C-4 AF.7 ....|F-5 2F.F ....|--- .... ....
....|..|--- .... ....|--- .... ....|--- .... ....
....|..|--- .... ....|G-5 2F.F ....|--- .... ....
....|..|--- .... ....|--- .... ....|--- .... ....
....|..|--- .... ....|A-5 2F.F ....|--- .... ....
....|..|--- .... ....|R-- .... ....|--- .... ....
....|..|C-4 AF.F ....|A#5 2F.F ....|--- .... ....
....|..|--- .... ....|--- .... ....|--- .... ....
....|..|--- .... ....|D-5 2F.7 ....|--- .... ....
....|..|--- .... ....|--- .... ....|--- .... ....
....|..|--- .... ....|D#5 2F.7 ....|--- .... ....
....|..|--- .... ....|--- .... ....|--- .... ....
....|..|C-4 AF.F ....|G#5 2F.F ....|--- .... ....
....|..|--- .... ....|--- .... ....|--- .... ....
....|..|--- .... ....|G-5 2F.7 ....|--- .... ....
....|..|--- .... ....|--- .... ....|--- .... ....
....|..|--- .... ....|A-5 2F.7 ....|--- .... ....
....|..|--- .... ....|--- .... ....|--- .... ....
....|..|C-4 RF.F ....|A#5 2F.7 ....|--- .... ....
....|..|--- .... ....|--- .... ....|--- .... ....
....|..|C-4 RF.F ....|--- .... ....|--- .... ....
....|..|--- .... ....|--- .... ....|--- .... ....
....|..|--- .... ....|--- .... ....|--- .... ....
....|..|--- .... ....|--- .... ....|--- .... ....
....|..|C-4 AF.7 ....|G#5 2F.7 ....|--- .... ....
....|..|--- .... ....|--- .... ....|--- .... ....
....|..|C-4 RF.A ....|--- .... ....|--- .... ....
....|..|--- .... ....|--- .... ....|--- .... ....
....|..|--- .... ....|--- .... ....|--- .... ....
....|..|--- .... ....|--- .... ....|--- .... ....

[Pattern3]
....|..|C-4 AF.F ....|A#5 2F.F ....|--- .... ....
....|..|--- .... ....|--- .... ....|--- .... ....
....|..|C-4 RF.7 ....|--- .... ....|--- .... ....
....|..|--- .... ....|--- .... ....|--- .... ....
....|..|--- .... ....|--- .... ....|--- .... ....
....|..|--- .... ....|--- .... ....|--- .... ....
....|..|C-4 AF.F ....|G#5 2F.F ....|--- .... ....
....|..|--- .... ....|--- .... ....|--- .... ....
....|..|--- .... ....|--- .... ....|--- .... ....
....|..|--- .... ....|--- .... ....|--- .... ....
....|..|--- .... ....|--- .... ....|--- .... ....
....|..|--- .... ....|--- .... ....|--- .... ....
....|..|C-4 RF.F ....|A#5 2F.7 ....|--- .... ....
....|..|--- .... ....|--- .... ....|--- .... ....
....|..|--- .... ....|G-5 2F.F ....|--- .... ....
....|..|--- .... ....|--- .... ....|--- .... ....
....|..|--- .... ....|G#5 2F.F ....|--- .... ....
....|..|--- .... ....|--- .... ....|--- .... ....
....|..|C-4 AF.7 ....|A#5 2F.F ....|--- .... ....
....|..|--- .... ....|--- .... ....|--- .... ....
....|..|--- .... ....|F-5 2F.F ....|--- .... ....
....|..|--- .... ....|--- .... ....|--- .... ....
....|..|--- .... ....|D#5 2F.F ....|--- .... ....
....|..|--- .... ....|--- .... ....|--- .... ....
....|..|C-4 AF.F ....|F-5 2F.F ....|--- .... ....
....|..|--- .... ....|--- .... ....|--- .... ....
....|..|--- .... ....|G-5 2F.7 ....|--- .... ....
....|..|--- .... ....|--- .... ....|--- .... ....
....|..|C-4 AF.F ....|G#5 2F.7 ....|--- .... ....
....|..|--- .... ....|--- .... ....|--- .... ....
....|..|C-4 AF.F ....|A#5 2F.7 ....|--- .... ....
....|..|--- .... ....|--- .... ....|--- .... ....
....|..|C-4 AF.F ....|F-5 2F.7 ....|--- .... ....
....|..|--- .... ....|--- .... ....|--- .... ....
....|..|C-4 AF.F ....|D#5 2F.7 ....|--- .... ....
....|..|--- .... ....|--- .... ....|--- .... ....
....|..|C-4 RF.F ....|F-5 2F.7 ....|--- .... ....
....|..|--- .... ....|--- .... ....|--- .... ....
....|..|C-4 RF.F ....|--- .... ....|--- .... ....
....|..|--- .... ....|--- .... ....|--- .... ....
....|..|C-4 RF.F ....|--- .... ....|--- .... ....
....|..|--- .... ....|--- .... ....|--- .... ....
....|..|C-4 AF.7 ....|R-- .... ....|--- .... ....
....|..|--- .... ....|--- .... ....|--- .... ....
....|..|C-4 RF.F ....|--- .... ....|--- .... ....
....|..|--- .... ....|--- .... ....|--- .... ....
....|..|C-4 AF.7 ....|--- .... ....|--- .... ....
....|..|--- .... ....|--- .... ....|--- .... ....
....|..|C-4 AF.F ....|--- .... ....|--- .... ....
....|..|--- .... ....|--- .... ....|--- .... ....
....|..|C-4 RF.7 ....|--- .... ....|--- .... ....
....|..|--- .... ....|--- .... ....|--- .... ....
....|..|C-4 AF.F ....|--- .... ....|--- .... ....
....|..|--- .... ....|--- .... ....|--- .... ....
....|..|C-4 LF.F ....|--- .... ....|--- .... ....
....|..|--- .... ....|--- .... ....|--- .... ....
....|..|C-4 LF.F ....|--- .... ....|--- .... ....
....|..|--- .... ....|--- .... ....|--- .... ....
....|..|C-4 LF.F ....|--- .... ....|--- .... ....
....|..|--- .... ....|--- .... ....|--- .... ....
....|..|C-4 LF.F ....|--- .... ....|--- .... ....
....|..|--- .... ....|--- .... ....|--- .... ....
....|..|C-4 LF.A ....|--- .... ....|--- .... ....
....|..|--- .... ....|--- .... ....|--- .... ....

[Pattern4]
....|..|C-4 LF.F ....|--- .... ....|--- .... ....
....|..|--- .... ....|--- .... ....|--- .... ....
....|..|C-4 LF.7 ....|--- .... ....|--- .... ....
....|..|--- .... ....|--- .... ....|--- .... ....
....|..|C-4 9F.F ....|--- .... ....|--- .... ....
....|..|--- .... ....|--- .... ....|--- .... ....
....|..|C-4 LF.7 ....|--- .... ....|--- .... ....
....|..|--- .... ....|--- .... ....|--- .... ....
....|..|C-4 AF.F ....|--- .... ....|F-5 2F.F ....
....|..|--- .... ....|--- .... ....|R-- .... ....
....|..|C-4 9F.A ....|--- .... ....|A#5 2F.F ....
....|..|--- .... ....|--- .... ....|--- .... ....
....|..|C-4 AF.F ....|--- .... ....|--- .... ....
....|..|--- .... ....|--- .... ....|--- .... ....
....|..|C-4 AF.F ....|--- .... ....|A#5 2F.F ....
....|..|--- .... ....|--- .... ....|R-- .... ....
....|..|C-4 AF.F ....|--- .... ....|F-5 2F.F ....
....|..|--- .... ....|--- .... ....|--- .... ....
....|..|C-4 AF.F ....|--- .... ....|--- .... ....
....|..|--- .... ....|--- .... ....|R-- .... ....
....|..|C-4 LF.F ....|--- .... ....|F-5 2F.7 ....
....|..|--- .... ....|--- .... ....|R-- .... ....
....|..|C-4 AF.A ....|--- .... ....|D-5 2F.F ....
....|..|--- .... ....|--- .... ....|--- .... ....
....|..|C-4 LF.F ....|--- .... ....|D#5 2F.F ....
....|..|--- .... ....|--- .... ....|R-- .... ....
....|..|C-4 AF.7 ....|--- .... ....|F-5 2F.F ....
....|..|--- .... ....|--- .... ....|--- .... ....
....|..|C-4 LF.F ....|--- .... ....|D-5 2F.F ....
....|..|--- .... ....|--- .... ....|--- .... ....
....|..|C-4 AF.7 ....|--- .... ....|C-5 2F.F ....
....|..|--- .... ....|--- .... ....|R-- .... ....
....|..|C-4 AF.F ....|--- .... ....|D#5 2F.F ....
....|..|--- .... ....|--- .... ....|--- .... ....
....|..|C-4 LF.A ....|--- .... ....|D-5 2F.7 ....
....|..|--- .... ....|--- .... ....|R-- .... ....
....|..|C-4 AF.F ....|--- .... ....|D#5 2F.7 ....
....|..|--- .... ....|--- .... ....|--- .... ....
....|..|C-4 AF.F ....|--- .... ....|F-5 2F.7 ....
....|..|--- .... ....|--- .... ....|--- .... ....
....|..|C-4 AF.F ....|--- .... ....|D-5 2F.7 ....
....|..|--- .... ....|--- .... ....|R-- .... ....
....|..|C-4 AF.F ....|--- .... ....|C-5 2F.7 ....
....|..|--- .... ....|--- .... ....|--- .... ....
....|..|C-4 LF.F ....|--- .... ....|D#5 2F.7 ....
....|..|--- .... ....|--- .... ....|--- .... ....
....|..|C-4 AF.A ....|D-5 2F.F ....|--- .... ....
....|..|--- .... ....|--- .... ....|R-- .... ....
....|..|C-4 LF.F ....|D#5 2F.F ....|--- .... ....
....|..|--- .... ....|--- .... ....|--- .... ....
....|..|C-4 AF.7 ....|F-5 2F.F ....|--- .... ....
....|..|--- .... ....|--- .... ....|--- .... ....
....|..|C-4 LF.F ....|D-5 2F.F ....|--- .... ....
....|..|--- .... ....|--- .... ....|--- .... ....
....|..|C-4 AF.7 ....|C-5 2F.F ....|--- .... ....
....|..|--- .... ....|--- .... ....|--- .... ....
....|..|C-4 AF.F ....|R-- .... ....|F-5 2F.F ....
....|..|--- .... ....|--- .... ....|R-- .... ....
....|..|C-4 LF.A ....|D-5 2F.7 ....|A#5 2F.F ....
....|..|--- .... ....|--- .... ....|--- .... ....
....|..|C-4 AF.F ....|D#5 2F.7 ....|--- .... ....
....|..|--- .... ....|--- .... ....|--- .... ....
....|..|C-4 AF.F ....|F-5 2F.7 ....|A#5 2F.F ....
....|..|--- .... ....|--- .... ....|R-- .... ....

[Pattern5]
....|..|C-4 AF.F ....|D-5 2F.7 ....|F-5 2F.F ....
....|..|--- .... ....|--- .... ....|--- .... ....
....|..|C-4 AF.F ....|C-5 2F.7 ....|--- .... ....
....|..|--- .... ....|--- .... ....|R-- .... ....
....|..|C-4 LF.F ....|R-- .... ....|F-5 2F.7 ....
....|..|--- .... ....|--- .... ....|R-- .... ....
....|..|C-4 AF.A ....|--- .... ....|D-5 2F.F ....
....|..|--- .... ....|--- .... ....|--- .... ....
....|..|C-4 LF.F ....|--- .... ....|D#5 2F.F ....
....|..|--- .... ....|--- .... ....|R-- .... ....
....|..|C-4 AF.7 ....|--- .... ....|F-5 2F.F ....
....|..|--- .... ....|--- .... ....|--- .... ....
....|..|C-4 LF.F ....|--- .... ....|G-5 2F.F ....
....|..|--- .... ....|--- .... ....|--- .... ....
....|..|C-4 AF.7 ....|D#5 2F.F ....|A-5 2F.F ....
....|..|--- .... ....|--- .... ....|R-- .... ....
....|..|C-4 AF.F ....|D#5 2F.F ....|A#5 2F.F ....
....|..|--- .... ....|--- .... ....|--- .... ....
....|..|C-4 LF.A ....|--- .... ....|D-5 2F.7 ....
....|..|--- .... ....|--- .... ....|--- .... ....
....|..|C-4 AF.F ....|D#5 2F.A ....|D#5 2F.7 ....
....|..|--- .... ....|--- .... ....|--- .... ....
....|..|C-4 AF.F ....|C-5 2F.F ....|G#5 2F.F ....
....|..|--- .... ....|--- .... ....|--- .... ....
....|..|C-4 AF.F ....|--- .... ....|G-5 2F.7 ....
....|..|--- .... ....|--- .... ....|--- .... ....
....|..|C-4 AF.F ....|D#5 2F.7 ....|A-5 2F.7 ....
....|..|--- .... ....|--- .... ....|--- .... ....
....|..|C-4 LF.F ....|D#5 2F.7 ....|A#5 2F.7 ....
....|..|--- .... ....|--- .... ....|--- .... ....
....|..|C-4 AF.A ....|--- .... ....|--- .... ....
....|..|--- .... ....|--- .... ....|--- .... ....
....|..|C-4 LF.F ....|--- .... ....|--- .... ....
....|..|--- .... ....|--- .... ....|--- .... ....
....|..|C-4 AF.7 ....|C-5 2F.7 ....|G#5 2F.7 ....
....|..|--- .... ....|--- .... ....|--- .... ....
....|..|C-4 LF.F ....|--- .... ....|--- .... ....
....|..|--- .... ....|--- .... ....|--- .... ....
....|..|C-4 AF.7 ....|--- .... ....|--- .... ....
....|..|--- .... ....|--- .... ....|--- .... ....
....|..|C-4 AF.F ....|D#5 2F.F ....|A#5 2F.F ....
....|..|--- .... ....|--- .... ....|--- .... ....
....|..|C-4 LF.A ....|--- .... ....|--- .... ....
....|..|--- .... ....|--- .... ....|--- .... ....
....|..|C-4 AF.F ....|--- .... ....|--- .... ....
....|..|--- .... ....|--- .... ....|--- .... ....
....|..|C-4 AF.F ....|C-5 2F.F ....|G#5 2F.F ....
....|..|--- .... ....|--- .... ....|--- .... ....
....|..|C-4 AF.F ....|--- .... ....|--- .... ....
....|..|--- .... ....|--- .... ....|--- .... ....
....|..|C-4 AF.F ....|--- .... ....|--- .... ....
....|..|--- .... ....|--- .... ....|--- .... ....
....|..|C-4 LF.F ....|C-5 2F.F ....|G-5 2F.F ....
....|..|--- .... ....|--- .... ....|--- .... ....
....|..|C-4 AF.A ....|R-- .... ....|R-- .... ....
....|..|--- .... ....|--- .... ....|--- .... ....
....|..|C-4 LF.F ....|D#5 2F.F ....|G#5 2F.F ....
....|..|--- .... ....|--- .... ....|--- .... ....
....|..|C-4 AF.7 ....|C-5 2F.7 ....|G#5 2F.7 ....
....|..|--- .... ....|--- .... ....|--- .... ....
....|..|C-4 LF.F ....|D#5 2F.F ....|F-5 2F.F ....
....|..|--- .... ....|--- .... ....|--- .... ....
....|..|C-4 AF.7 ....|R-- .... ....|R-- .... ....
....|..|--- .... ....|--- .... ....|--- .... ....

[Pattern6]
....|..|C-4 AF.F ....|D-5 2F.F ....|C-6 2F.F ....
....|..|--- .... ....|--- .... ....|--- .... ....
....|..|C-4 LF.A ....|R-- .... ....|R-- .... ....
....|..|--- .... ....|--- .... ....|--- .... ....
....|..|C-4 AF.F ....|D#5 2F.7 ....|G#5 2F.7 ....
....|..|--- .... ....|--- .... ....|--- .... ....
....|..|C-4 AF.F ....|F-5 2F.F ....|A#5 2F.F ....
....|..|--- .... ....|--- .... ....|--- .... ....
....|..|C-4 AF.F ....|D#5 2F.7 ....|F-5 2F.7 ....
....|..|--- .... ....|--- .... ....|--- .... ....
....|..|C-4 AF.F ....|R-- .... ....|R-- .... ....
....|..|--- .... ....|R-- .... ....|R-- .... ....
....|..|C-4 LF.F ....|F-5 2F.F ....|G#5 2F.F ....
....|..|--- .... ....|--- .... ....|--- .... ....
....|..|C-4 AF.A ....|--- .... ....|--- .... ....
....|..|--- .... ....|--- .... ....|--- .... ....
....|..|C-4 LF.F ....|D-5 2F.F ....|A#5 2F.F ....
....|..|--- .... ....|R-- .... ....|R-- .... ....
....|..|C-4 AF.7 ....|F-5 2F.7 ....|A#5 2F.7 ....
....|..|--- .... ....|--- .... ....|--- .... ....
....|..|C-4 LF.F ....|A#4 2F.F ....|F-5 2F.F ....
....|..|--- .... ....|--- .... ....|--- .... ....
....|..|C-4 AF.7 ....|D-5 2F.A ....|A#5 2F.A ....
....|..|--- .... ....|R-- .... ....|R-- .... ....
....|..|C-4 AF.F ....|D#5 2F.F ....|G#5 2F.F ....
....|..|--- .... ....|--- .... ....|--- .... ....
....|..|C-4 LF.A ....|A#4 2F.A ....|F-5 2F.A ....
....|..|--- .... ....|--- .... ....|--- .... ....
....|..|C-4 AF.F ....|D-5 2F.7 ....|A#5 2F.7 ....
....|..|--- .... ....|--- .... ....|--- .... ....
....|..|C-4 AF.F ....|D#5 2F.A ....|G#5 2F.A ....
....|..|--- .... ....|--- .... ....|--- .... ....
....|..|C-4 AF.F ....|D#5 2F.F ....|G-5 2F.F ....
....|..|--- .... ....|--- .... ....|--- .... ....
....|..|C-4 AF.F ....|F-5 2F.F ....|G#5 2F.F ....
....|..|--- .... ....|--- .... ....|--- .... ....
....|..|C-4 LF.F ....|G-5 2F.F ....|A#5 2F.F ....
....|..|--- .... ....|--- .... ....|--- .... ....
....|..|C-4 AF.A ....|D#5 2F.A ....|G-5 2F.A ....
....|..|--- .... ....|--- .... ....|--- .... ....
....|..|C-4 LF.F ....|F-5 2F.A ....|G#5 2F.A ....
....|..|--- .... ....|--- .... ....|--- .... ....
....|..|C-4 AF.7 ....|G-5 2F.A ....|A#5 2F.A ....
....|..|--- .... ....|--- .... ....|--- .... ....
....|..|C-4 LF.F ....|D#5 2F.7 ....|G-5 2F.7 ....
....|..|--- .... ....|--- .... ....|--- .... ....
....|..|C-4 AF.7 ....|F-5 2F.7 ....|G#5 2F.7 ....
....|..|--- .... ....|--- .... ....|--- .... ....
....|..|C-4 AF.F ....|G#5 2F.F ....|A#5 2F.7 ....
....|..|--- .... ....|--- .... ....|--- .... ....
....|..|C-4 LF.A ....|--- .... ....|--- .... ....
....|..|--- .... ....|--- .... ....|--- .... ....
....|..|C-4 AF.F ....|--- .... ....|--- .... ....
....|..|--- .... ....|--- .... ....|--- .... ....
....|..|C-4 LF.F ....|G#5 2F.A ....|--- .... ....
....|..|--- .... ....|--- .... ....|--- .... ....
....|..|C-4 LF.F ....|--- .... ....|--- .... ....
....|..|--- .... ....|--- .... ....|--- .... ....
....|..|C-4 LF.F ....|--- .... ....|--- .... ....
....|..|--- .... ....|--- .... ....|--- .... ....
....|..|C-4 LF.F ....|G-5 2F.F ....|R-- .... ....
....|..|--- .... ....|--- .... ....|--- .... ....
....|..|C-4 LF.F ....|--- .... ....|--- .... ....
....|..|--- .... ....|--- .... ....|--- .... ....

[Pattern7]
....|..|C-4 LF.F ....|--- .... ....|--- .... ....
....|..|--- .... ....|--- .... ....|--- .... ....
....|..|C-4 LF.F ....|G-5 2F.A ....|R-- .... ....
....|..|--- .... ....|--- .... ....|--- .... ....
....|..|C-4 9F.F ....|R-- .... ....|--- .... ....
....|..|--- .... ....|--- .... ....|--- .... ....
....|..|C-4 LF.7 ....|--- .... ....|--- .... ....
....|..|--- .... ....|--- .... ....|--- .... ....
....|..|C-4 AF.F ....|G-5 2F.7 ....|R-- .... ....
....|..|--- .... ....|--- .... ....|--- .... ....
....|..|C-4 AF.F ....|R-- .... ....|--- .... ....
....|..|--- .... ....|--- .... ....|--- .... ....
....|..|C-4 LF.7 ....|G#5 2F.F ....|--- .... ....
....|..|--- .... ....|--- .... ....|--- .... ....
....|..|C-4 LF.7 ....|--- .... ....|--- .... ....
....|..|--- .... ....|--- .... ....|--- .... ....
....|..|C-4 RF.F ....|D#5 2F.F ....|--- .... ....
....|..|--- .... ....|--- .... ....|--- .... ....
....|..|--- .... ....|G#5 2F.A ....|--- .... ....
....|..|--- .... ....|--- .... ....|--- .... ....
....|..|C-4 AF.7 ....|D-5 2F.F ....|--- .... ....
....|..|--- .... ....|--- .... ....|--- .... ....
....|..|C-4 RF.F ....|D#5 2F.A ....|--- .... ....
....|..|--- .... ....|--- .... ....|--- .... ....
....|..|R-- .... ....|G#5 2F.7 ....|--- .... ....
....|..|--- .... ....|--- .... ....|--- .... ....
....|..|R-- .... ....|D-5 2F.A ....|--- .... ....
....|..|--- .... ....|--- .... ....|--- .... ....
....|..|C-4 RF.7 ....|D#5 2F.F ....|--- .... ....
....|..|--- .... ....|--- .... ....|--- .... ....
....|..|R-- .... ....|F-5 2F.F ....|--- .... ....
....|..|--- .... ....|R-- .... ....|--- .... ....
....|..|C-4 AF.F ....|G-5 2F.F ....|--- .... ....
....|..|--- .... ....|--- .... ....|--- .... ....
....|..|C-4 AF.F ....|R-- .... ....|--- .... ....
....|..|--- .... ....|--- .... ....|--- .... ....
....|..|R-- .... ....|F-5 2F.A ....|--- .... ....
....|..|--- .... ....|R-- .... ....|--- .... ....
....|..|C-4 AF.A ....|G#5 2F.F ....|--- .... ....
....|..|--- .... ....|--- .... ....|--- .... ....
....|..|C-4 RF.F ....|A#5 2F.F ....|--- .... ....
....|..|--- .... ....|--- .... ....|--- .... ....
....|..|--- .... ....|F-5 2F.7 ....|--- .... ....
....|..|--- .... ....|R-- .... ....|--- .... ....
....|..|C-4 AF.7 ....|A-5 2F.F ....|--- .... ....
....|..|--- .... ....|--- .... ....|--- .... ....
....|..|C-4 RF.F ....|R-- .... ....|--- .... ....
....|..|--- .... ....|--- .... ....|--- .... ....
....|..|R-- .... ....|G-5 2F.F ....|--- .... ....
....|..|--- .... ....|--- .... ....|--- .... ....
....|..|R-- .... ....|G#5 2F.7 ....|--- .... ....
....|..|--- .... ....|--- .... ....|--- .... ....
....|..|C-4 RF.7 ....|F-5 2F.F ....|--- .... ....
....|..|--- .... ....|--- .... ....|--- .... ....
....|..|R-- .... ....|G-5 2F.A ....|--- .... ....
....|..|--- .... ....|--- .... ....|--- .... ....
....|..|C-4 AF.F ....|A-5 2F.7 ....|--- .... ....
....|..|--- .... ....|--- .... ....|--- .... ....
....|..|C-4 AF.F ....|F-5 2F.A ....|--- .... ....
....|..|--- .... ....|--- .... ....|--- .... ....
....|..|R-- .... ....|G#5 2F.F ....|--- .... ....
....|..|--- .... ....|--- .... ....|--- .... ....
....|..|C-4 AF.A ....|--- .... ....|--- .... ....
....|..|--- .... ....|--- .... ....|--- .... ....

[Pattern8]
....|..|C-4 RF.F ....|D#5 2F.F ....|--- .... ....
....|..|--- .... ....|--- .... ....|--- .... ....
....|..|--- .... ....|G#5 2F.A ....|--- .... ....
....|..|--- .... ....|--- .... ....|--- .... ....
....|..|C-4 AF.7 ....|D-5 2F.F ....|--- .... ....
....|..|--- .... ....|--- .... ....|--- .... ....
....|..|C-4 RF.F ....|D#5 2F.A ....|--- .... ....
....|..|--- .... ....|--- .... ....|--- .... ....
....|..|R-- .... ....|G#5 2F.7 ....|--- .... ....
....|..|--- .... ....|--- .... ....|--- .... ....
....|..|R-- .... ....|D-5 2F.A ....|--- .... ....
....|..|--- .... ....|--- .... ....|--- .... ....
....|..|C-4 RF.7 ....|D#5 2F.F ....|--- .... ....
....|..|--- .... ....|--- .... ....|--- .... ....
....|..|R-- .... ....|F-5 2F.F ....|--- .... ....
....|..|--- .... ....|--- .... ....|--- .... ....
....|..|C-4 AF.F ....|G-5 2F.F ....|--- .... ....
....|..|--- .... ....|--- .... ....|--- .... ....
....|..|C-4 AF.F ....|D#5 2F.A ....|--- .... ....
....|..|--- .... ....|--- .... ....|--- .... ....
....|..|R-- .... ....|F-5 2F.A ....|--- .... ....
....|..|--- .... ....|--- .... ....|--- .... ....
....|..|C-4 AF.A ....|G-5 2F.A ....|--- .... ....
....|..|--- .... ....|--- .... ....|--- .... ....
....|..|C-4 RF.F ....|G-5 2F.F ....|--- .... ....
....|..|--- .... ....|--- .... ....|--- .... ....
....|..|--- .... ....|G#5 2F.F ....|--- .... ....
....|..|--- .... ....|--- .... ....|--- .... ....
....|..|C-4 AF.7 ....|A#5 2F.F ....|--- .... ....
....|..|--- .... ....|--- .... ....|--- .... ....
....|..|C-4 RF.F ....|G-5 2F.A ....|--- .... ....
....|..|--- .... ....|--- .... ....|--- .... ....
....|..|R-- .... ....|G#5 2F.A ....|--- .... ....
....|..|--- .... ....|--- .... ....|--- .... ....
....|..|R-- .... ....|A#5 2F.A ....|--- .... ....
....|..|--- .... ....|--- .... ....|--- .... ....
....|..|C-4 RF.7 ....|G-5 2F.7 ....|--- .... ....
....|..|--- .... ....|--- .... ....|--- .... ....
....|..|R-- .... ....|G#5 2F.7 ....|--- .... ....
....|..|--- .... ....|--- .... ....|--- .... ....
....|..|C-4 AF.F ....|A#5 2F.7 ....|--- .... ....
....|..|--- .... ....|--- .... ....|--- .... ....
....|..|C-4 AF.F ....|R-- .... ....|--- .... ....
....|..|--- .... ....|--- .... ....|--- .... ....
....|..|R-- .... ....|--- .... ....|A#5 2F.F ....
....|..|--- .... ....|--- .... ....|--- .... ....
....|..|C-4 AF.A ....|--- .... ....|--- .... ....
....|..|--- .... ....|--- .... ....|--- .... ....
....|..|C-4 RF.F ....|R-- .... ....|G-5 2F.F ....
....|..|--- .... ....|--- .... ....|--- .... ....
....|..|--- .... ....|--- .... ....|R-- .... ....
....|..|--- .... ....|--- .... ....|--- .... ....
....|..|C-4 AF.7 ....|--- .... ....|A-5 2F.F ....
....|..|--- .... ....|--- .... ....|--- .... ....
....|..|C-4 RF.F ....|--- .... ....|G-5 2F.A ....
....|..|--- .... ....|--- .... ....|--- .... ....
....|..|R-- .... ....|--- .... ....|A#5 2F.7 ....
....|..|--- .... ....|--- .... ....|--- .... ....
....|..|R-- .... ....|--- .... ....|A-5 2F.A ....
....|..|--- .... ....|--- .... ....|R-- .... ....
....|..|C-4 RF.7 ....|--- .... ....|A#5 2F.F ....
....|..|--- .... ....|--- .... ....|--- .... ....
....|..|R-- .... ....|--- .... ....|C-6 2F.F ....
....|..|--- .... ....|--- .... ....|--- .... ....

[Pattern9]
....|..|C-4 AF.F ....|--- .... ....|A#5 2F.F ....
....|..|--- .... ....|--- .... ....|R-- .... ....
....|..|C-4 AF.F ....|--- .... ....|A#5 2F.A ....
....|..|--- .... ....|--- .... ....|--- .... ....
....|..|R-- .... ....|--- .... ....|C-6 2F.A ....
....|..|--- .... ....|--- .... ....|--- .... ....
....|..|C-4 AF.A ....|--- .... ....|A#5 2F.A ....
....|..|--- .... ....|--- .... ....|R-- .... ....
....|..|C-4 RF.F ....|--- .... ....|F-5 2F.F ....
....|..|--- .... ....|--- .... ....|--- .... ....
....|..|--- .... ....|--- .... ....|C-6 2F.7 ....
....|..|--- .... ....|--- .... ....|--- .... ....
....|..|C-4 AF.7 ....|--- .... ....|G-5 2F.F ....
....|..|--- .... ....|--- .... ....|--- .... ....
....|..|C-4 RF.F ....|--- .... ....|F-5 2F.A ....
....|..|--- .... ....|--- .... ....|--- .... ....
....|..|R-- .... ....|--- .... ....|R-- .... ....
....|..|--- .... ....|--- .... ....|--- .... ....
....|..|R-- .... ....|--- .... ....|G-5 2F.A ....
....|..|--- .... ....|--- .... ....|--- .... ....
....|..|C-4 RF.7 ....|--- .... ....|F-5 2F.7 ....
....|..|--- .... ....|--- .... ....|--- .... ....
....|..|R-- .... ....|--- .... ....|R-- .... ....
....|..|--- .... ....|--- .... ....|--- .... ....
....|..|C-4 AF.F ....|D#5 2F.F ....|D#5 2F.F ....
....|..|--- .... ....|--- .... ....|--- .... ....
....|..|C-4 AF.F ....|D-5 2F.F ....|D-5 2F.F ....
....|..|--- .... ....|--- .... ....|--- .... ....
....|..|R-- .... ....|D#5 2F.F ....|D#5 2F.F ....
....|..|--- .... ....|--- .... ....|--- .... ....
....|..|C-4 AF.A ....|F-5 2F.F ....|F-5 2F.F ....
....|..|--- .... ....|--- .... ....|--- .... ....
....|..|C-4 RF.F ....|G-5 2F.F ....|G-5 2F.F ....
....|..|--- .... ....|--- .... ....|--- .... ....
....|..|--- .... ....|R-- .... ....|R-- .... ....
....|..|--- .... ....|--- .... ....|--- .... ....
....|..|C-4 AF.7 ....|F-5 2F.F ....|F-5 2F.F ....
....|..|--- .... ....|--- .... ....|--- .... ....
....|..|C-4 RF.F ....|D-5 2F.7 ....|D-5 2F.7 ....
....|..|--- .... ....|--- .... ....|--- .... ....
....|..|R-- .... ....|D#5 2F.7 ....|D#5 2F.7 ....
....|..|--- .... ....|--- .... ....|--- .... ....
....|..|R-- .... ....|C-6 2F.F ....|C-6 2F.F ....
....|..|--- .... ....|--- .... ....|--- .... ....
....|..|C-4 RF.7 ....|F-5 2F.F ....|F-5 2F.F ....
....|..|--- .... ....|--- .... ....|--- .... ....
....|..|R-- .... ....|R-- .... ....|R-- .... ....
....|..|--- .... ....|--- .... ....|--- .... ....
....|..|C-4 AF.F ....|D#5 2F.F ....|D#5 2F.F ....
....|..|--- .... ....|--- .... ....|--- .... ....
....|..|C-4 RF.7 ....|D-5 2F.F ....|D-5 2F.F ....
....|..|--- .... ....|--- .... ....|--- .... ....
....|..|R-- .... ....|D#5 2F.F ....|D#5 2F.F ....
....|..|--- .... ....|--- .... ....|--- .... ....
....|..|C-4 LF.F ....|F-5 2F.F ....|A-5 2F.F ....
....|..|--- .... ....|--- .... ....|--- .... ....
....|..|C-4 LF.F ....|G-5 2F.F ....|A#5 2F.F ....
....|..|--- .... ....|--- .... ....|--- .... ....
....|..|--- .... ....|R-- .... ....|R-- .... ....
....|..|--- .... ....|--- .... ....|--- .... ....
....|..|D#4 9F.F ....|F-5 2F.F ....|A-5 2F.F ....
....|..|--- .... ....|--- .... ....|--- .... ....
....|..|D#4 9F.F ....|D-5 2F.7 ....|D-5 2F.7 ....
....|..|--- .... ....|--- .... ....|--- .... ....

[Pattern10]
....|..|R-- .... ....|G-5 2F.F ....|A#5 2F.F ....
....|..|--- .... ....|--- .... ....|--- .... ....
....|..|C-4 9F.F ....|F-5 2F.7 ....|A-5 2F.7 ....
....|..|--- .... ....|--- .... ....|--- .... ....
....|..|C-4 9F.F ....|A-5 2F.F ....|C-6 2F.F ....
....|..|--- .... ....|--- .... ....|--- .... ....
....|..|R-- .... ....|R-- .... ....|R-- .... ....
....|..|--- .... ....|--- .... ....|--- .... ....
....|..|C-4 AF.F ....|A#5 2F.F ....|A#5 2F.F ....
....|..|--- .... ....|--- .... ....|--- .... ....
....|..|C-4 AF.F ....|A-5 2F.A ....|C-6 2F.A ....
....|..|--- .... ....|--- .... ....|--- .... ....
....|..|C-4 AF.F ....|A#5 2F.F ....|A#5 2F.F ....
....|..|--- .... ....|--- .... ....|--- .... ....
....|..|C-4 AF.F ....|C-6 2F.F ....|C-6 2F.F ....
....|..|--- .... ....|--- .... ....|--- .... ....
....|..|C-4 AF.F ....|A-5 2F.7 ....|C-6 2F.7 ....
....|..|--- .... ....|--- .... ....|--- .... ....
....|..|C-4 AF.F ....|A#5 2F.F ....|A#5 2F.F ....
....|..|--- .... ....|--- .... ....|--- .... ....
....|..|C-4 LF.F ....|A#5 2F.F ....|A#5 2F.F ....
....|..|--- .... ....|--- .... ....|--- .... ....
....|..|C-4 LF.F ....|--- .... ....|--- .... ....
....|..|--- .... ....|--- .... ....|--- .... ....
....|..|C-4 LF.F ....|A#5 2F.F ....|A#5 2F.F ....
....|..|--- .... ....|--- .... ....|--- .... ....
....|..|C-4 LF.F ....|C-6 2F.7 ....|C-6 2F.7 ....
....|..|--- .... ....|--- .... ....|--- .... ....
....|..|C-4 LF.F ....|A#5 2F.F ....|A#5 2F.F ....
....|..|--- .... ....|--- .... ....|--- .... ....
....|..|C-4 LF.F ....|A#5 2F.7 ....|A#5 2F.7 ....
....|..|--- .... ....|--- .... ....|--- .... ....
....|..|C-4 AF.F ....|D#6 2F.F ....|D#6 2F.F ....
....|..|--- .... ....|--- .... ....|--- .... ....
....|..|C-4 AF.F ....|C#6 2F.F ....|C#6 2F.F ....
....|..|--- .... ....|--- .... ....|--- .... ....
....|..|C-4 AF.F ....|A#5 2F.7 ....|A#5 2F.7 ....
....|..|--- .... ....|R-- .... ....|R-- .... ....
....|..|C-4 AF.F ....|C-6 2F.F ....|C-6 2F.F ....
....|..|--- .... ....|--- .... ....|--- .... ....
....|..|C-4 AF.F ....|A#5 2F.F ....|A#5 2F.F ....
....|..|--- .... ....|--- .... ....|--- .... ....
....|..|C-4 AF.F ....|--- .... ....|--- .... ....
....|..|--- .... ....|R-- .... ....|R-- .... ....
....|..|C-4 LF.F ....|F-5 2F.F ....|F-5 2F.F ....
....|..|--- .... ....|--- .... ....|--- .... ....
....|..|C-4 LF.F ....|C#6 2F.7 ....|C#6 2F.7 ....
....|..|--- .... ....|--- .... ....|--- .... ....
....|..|C-4 LF.F ....|C-6 2F.F ....|C-6 2F.F ....
....|..|--- .... ....|R-- .... ....|R-- .... ....
....|..|D#4 9F.F ....|C-6 2F.7 ....|C-6 2F.7 ....
....|..|--- .... ....|--- .... ....|--- .... ....
....|..|D#4 9F.F ....|A#5 2F.7 ....|A#5 2F.7 ....
....|..|--- .... ....|--- .... ....|--- .... ....
....|..|C-4 LF.F ....|C-6 2F.A ....|C-6 2F.A ....
....|..|--- .... ....|--- .... ....|--- .... ....
....|..|C-4 AF.F ....|A#5 2F.F ....|A#5 2F.F ....
....|..|--- .... ....|--- .... ....|--- .... ....
....|..|C-4 AF.F ....|R-- .... ....|R-- .... ....
....|..|--- .... ....|R-- .... ....|R-- .... ....
....|..|C-4 AF.F ....|A#5 2F.F ....|A#5 2F.F ....
....|..|--- .... ....|--- .... ....|--- .... ....
....|..|C-4 AF.F ....|C-6 2F.F ....|C-6 2F.F ....
....|..|--- .... ....|--- .... ....|--- .... ....

[Pattern11]
....|..|C-4 AF.F ....|R-- .... ....|R-- .... ....
....|..|--- .... ....|R-- .... ....|R-- .... ....
....|..|C-4 AF.F ....|A#5 2F.F ....|A#5 2F.F ....
....|..|--- .... ....|--- .... ....|--- .... ....
....|..|C-4 LF.F ....|A#5 2F.F ....|A#5 2F.F ....
....|..|--- .... ....|--- .... ....|--- .... ....
....|..|C-4 LF.F ....|--- .... ....|--- .... ....
....|..|--- .... ....|R-- .... ....|R-- .... ....
....|..|C-4 LF.F ....|C-6 2F.F ....|C-6 2F.F ....
....|..|--- .... ....|--- .... ....|--- .... ....
....|..|C-4 LF.F ....|C-6 2F.7 ....|C-6 2F.7 ....
....|..|--- .... ....|--- .... ....|--- .... ....
....|..|C-4 9F.F ....|A#5 2F.F ....|A#5 2F.F ....
....|..|--- .... ....|--- .... ....|--- .... ....
....|..|C-4 LF.F ....|A#5 2F.7 ....|A#5 2F.7 ....
....|..|--- .... ....|--- .... ....|--- .... ....
....|..|C-4 AF.F ....|C#6 2F.F ....|C#6 2F.F ....
....|..|--- .... ....|--- .... ....|--- .... ....
....|..|C-4 AF.F ....|A#5 2F.A ....|A#5 2F.A ....
....|..|--- .... ....|--- .... ....|--- .... ....
....|..|C-4 AF.F ....|A#5 2F.F ....|A#5 2F.F ....
....|..|--- .... ....|--- .... ....|--- .... ....
....|..|C-4 AF.F ....|C#6 2F.A ....|C#6 2F.A ....
....|..|--- .... ....|--- .... ....|--- .... ....
....|..|C-4 AF.F ....|A#5 2F.7 ....|A#5 2F.7 ....
....|..|--- .... ....|--- .... ....|--- .... ....
....|..|C-4 AF.F ....|A#5 2F.A ....|A#5 2F.A ....
....|..|--- .... ....|--- .... ....|--- .... ....
....|..|C-4 LF.F ....|C#6 2F.7 ....|C#6 2F.7 ....
....|..|C-4 LF.F ....|--- .... ....|--- .... ....
....|..|C-4 LF.F ....|--- .... ....|--- .... ....
....|..|C-4 LF.F ....|--- .... ....|--- .... ....
....|..|C-4 LF.F ....|A#5 2F.7 ....|A#5 2F.7 ....
....|..|C-4 LF.F ....|--- .... ....|--- .... ....
....|..|C-4 LF.F ....|R-- .... ....|R-- .... ....
....|..|C-4 LF.F ....|--- .... ....|--- .... ....
....|..|C-4 LF.F ....|--- .... ....|--- .... ....
....|..|C-4 LF.A ....|--- .... ....|--- .... ....
....|..|C-4 LF.F ....|--- .... ....|--- .... ....
....|..|C-4 LF.A ....|--- .... ....|--- .... ....
....|..|C-4 AF.F ....|A#5 2F.F ....|A#5 2F.F ....
....|..|C-4 LF.7 ....|--- .... ....|--- .... ....
....|..|C-4 AF.F ....|--- .... ....|--- .... ....
....|..|C-4 LF.7 ....|--- .... ....|--- .... ....
....|..|C-4 AF.F ....|A#5 2F.F ....|A#5 2F.F ....
....|..|C-4 LF.7 ....|--- .... ....|--- .... ....
....|..|C-4 AF.F ....|C-6 2F.F ....|C-6 2F.F ....
....|..|C-4 LF.7 ....|--- .... ....|--- .... ....
....|..|C-4 AF.F ....|--- .... ....|--- .... ....
....|..|--- .... ....|--- .... ....|--- .... ....
....|..|C-4 AF.F ....|A#5 2F.F ....|A#5 2F.F ....
....|..|--- .... ....|--- .... ....|--- .... ....
....|..|C-4 LF.F ....|A#5 2F.F ....|A#5 2F.F ....
....|..|--- .... ....|--- .... ....|--- .... ....
....|..|C-4 LF.F ....|--- .... ....|--- .... ....
....|..|--- .... ....|--- .... ....|--- .... ....
....|..|C-4 LF.F ....|F-5 2F.F ....|F-5 2F.F ....
....|..|--- .... ....|--- .... ....|--- .... ....
....|..|D#4 9F.F ....|C-6 2F.7 ....|C-6 2F.7 ....
....|..|--- .... ....|--- .... ....|--- .... ....
....|..|D#4 9F.F ....|A#5 2F.F ....|A#5 2F.F ....
....|..|--- .... ....|--- .... ....|--- .... ....
....|..|C-4 LF.F ....|A#5 2F.7 ....|A#5 2F.7 ....
....|..|--- .... ....|--- .... ....|--- .... ....

[Pattern12]
....|..|C-4 AF.F ....|D-6 2F.F ....|D-6 2F.F ....
....|..|--- .... ....|--- .... ....|--- .... ....
....|..|C-4 AF.F ....|C-6 2F.F ....|C-6 2F.F ....
....|..|--- .... ....|--- .... ....|--- .... ....
....|..|C-4 AF.F ....|F-5 2F.7 ....|F-5 2F.7 ....
....|..|--- .... ....|--- .... ....|--- .... ....
....|..|C-4 AF.F ....|A#5 2F.F ....|A#5 2F.F ....
....|..|--- .... ....|--- .... ....|--- .... ....
....|..|C-4 AF.F ....|A#5 2F.7 ....|A#5 2F.7 ....
....|..|--- .... ....|--- .... ....|--- .... ....
....|..|C-4 AF.F ....|A-5 2F.F ....|A-5 2F.F ....
....|..|--- .... ....|--- .... ....|--- .... ....
....|..|C-4 LF.F ....|G-5 2F.F ....|G-5 2F.F ....
....|..|--- .... ....|--- .... ....|--- .... ....
....|..|C-4 LF.F ....|C-6 2F.7 ....|C-6 2F.7 ....
....|..|--- .... ....|--- .... ....|--- .... ....
....|..|C-4 LF.F ....|A-5 2F.A ....|A-5 2F.A ....
....|..|--- .... ....|--- .... ....|--- .... ....
....|..|C-4 LF.F ....|A#5 2F.7 ....|A#5 2F.7 ....
....|..|--- .... ....|--- .... ....|--- .... ....
....|..|C-4 9F.F ....|G-5 2F.F ....|G-5 2F.F ....
....|..|--- .... ....|--- .... ....|--- .... ....
....|..|C-4 LF.F ....|A-5 2F.F ....|A-5 2F.F ....
....|..|--- .... ....|--- .... ....|--- .... ....
....|..|C-4 AF.F ....|A#5 2F.F ....|A#5 2F.F ....
....|..|--- .... ....|--- .... ....|--- .... ....
....|..|C-4 AF.F ....|R-- .... ....|R-- .... ....
....|..|--- .... ....|--- .... ....|--- .... ....
....|..|C-4 AF.F ....|F-5 2F.F ....|F-5 2F.F ....
....|..|--- .... ....|--- .... ....|--- .... ....
....|..|C-4 AF.F ....|A#5 2F.F ....|A#5 2F.F ....
....|..|--- .... ....|--- .... ....|--- .... ....
....|..|C-4 AF.F ....|G-5 2F.7 ....|G-5 2F.7 ....
....|..|--- .... ....|--- .... ....|--- .... ....
....|..|C-4 AF.F ....|F-5 2F.F ....|F-5 2F.F ....
....|..|--- .... ....|--- .... ....|--- .... ....
....|..|C-4 LF.F ....|A#5 2F.F ....|A#5 2F.F ....
....|..|--- .... ....|--- .... ....|--- .... ....
....|..|C-4 LF.F ....|--- .... ....|--- .... ....
....|..|--- .... ....|--- .... ....|--- .... ....
....|..|C-4 LF.F ....|F-5 2F.7 ....|F-5 2F.7 ....
....|..|--- .... ....|--- .... ....|--- .... ....
....|..|D#4 9F.F ....|A#5 2F.7 ....|A#5 2F.7 ....
....|..|--- .... ....|--- .... ....|--- .... ....
....|..|C-4 LF.F ....|R-- .... ....|R-- .... ....
....|..|C-4 LF.F ....|--- .... ....|--- .... ....
....|..|C-4 LF.F ....|F-5 2F.7 ....|F-5 2F.7 ....
....|..|C-4 LF.F ....|--- .... ....|--- .... ....
....|..|C-4 AF.F ....|A#5 2F.7 ....|A#5 2F.7 ....
....|..|--- .... ....|--- .... ....|--- .... ....
....|..|C-4 AF.F ....|R-- .... ....|R-- .... ....
....|..|C-4 LF.A ....|--- .... ....|--- .... ....
....|..|C-4 AF.F ....|A#5 2F.F ....|A#5 2F.F ....
....|..|C-4 LF.A ....|--- .... ....|--- .... ....
....|..|C-4 LF.F ....|C-6 2F.F ....|C-6 2F.F ....
....|..|--- .... ....|--- .... ....|--- .... ....
....|..|C-4 LF.F ....|A#5 2F.F ....|A#5 2F.F ....
....|..|C-4 LF.7 ....|--- .... ....|--- .... ....
....|..|C-4 LF.F ....|A#5 2F.A ....|A#5 2F.A ....
....|..|C-4 LF.7 ....|--- .... ....|--- .... ....
....|..|C-4 AF.F ....|F-5 2F.F ....|F-5 2F.F ....
....|..|C-4 AF.F ....|--- .... ....|--- .... ....
....|..|D#4 9F.F ....|R-- .... ....|R-- .... ....
....|..|D#4 9F.F ....|--- .... ....|--- .... ....

[Pattern13]
....|..|C-4 LF.F ....|C-6 2F.F ....|C-6 2F.F ....
....|..|C-4 LF.F ....|--- .... ....|--- .... ....
....|..|C-4 9F.F ....|C-6 2F.7 ....|C-6 2F.7 ....
....|..|C-4 9F.F ....|--- .... ....|--- .... ....
....|..|C-4 9F.F ....|A#5 2F.7 ....|A#5 2F.7 ....
....|..|D#4 9F.A ....|--- .... ....|--- .... ....
....|..|C-3 9F.F ....|C-6 2F.A ....|C-6 2F.A ....
....|..|C-4 LF.A ....|--- .... ....|--- .... ....
....|..|C-4 AF.F ....|A#5 2F.F ....|A#5 2F.F ....
....|..|C-4 AF.7 ....|--- .... ....|--- .... ....
....|..|C-4 AF.F ....|R-- .... ....|R-- .... ....
....|..|D#4 9F.7 ....|--- .... ....|--- .... ....
....|..|C-4 AF.F ....|A#5 2F.F ....|A#5 2F.F ....
....|..|C-4 LF.7 ....|--- .... ....|--- .... ....
....|..|C-4 AF.F ....|C-6 2F.F ....|C-6 2F.F ....
....|..|C-4 9F.7 ....|--- .... ....|--- .... ....
....|..|C-4 AF.F ....|--- .... ....|--- .... ....
....|..|--- .... ....|--- .... ....|--- .... ....
....|..|C-4 AF.F ....|A#5 2F.F ....|A#5 2F.F ....
....|..|--- .... ....|--- .... ....|--- .... ....
....|..|C-4 LF.F ....|A#5 2F.F ....|A#5 2F.F ....
....|..|--- .... ....|--- .... ....|--- .... ....
....|..|C-4 LF.F ....|--- .... ....|--- .... ....
....|..|--- .... ....|--- .... ....|--- .... ....
....|..|C-4 LF.F ....|A#5 2F.F ....|A#5 2F.F ....
....|..|--- .... ....|--- .... ....|--- .... ....
....|..|C-4 LF.F ....|C-6 2F.7 ....|C-6 2F.7 ....
....|..|--- .... ....|--- .... ....|--- .... ....
....|..|C-4 LF.F ....|A#5 2F.F ....|A#5 2F.F ....
....|..|--- .... ....|--- .... ....|--- .... ....
....|..|C-4 LF.F ....|A#5 2F.7 ....|A#5 2F.7 ....
....|..|--- .... ....|--- .... ....|--- .... ....
....|..|C-4 AF.F ....|D#6 2F.F ....|D#6 2F.F ....
....|..|--- .... ....|--- .... ....|--- .... ....
....|..|C-4 AF.F ....|C#6 2F.F ....|C#6 2F.F ....
....|..|--- .... ....|--- .... ....|--- .... ....
....|..|C-4 AF.F ....|A#5 2F.7 ....|A#5 2F.7 ....
....|..|--- .... ....|R-- .... ....|R-- .... ....
....|..|C-4 AF.F ....|C-6 2F.F ....|C-6 2F.F ....
....|..|--- .... ....|--- .... ....|--- .... ....
....|..|C-4 AF.F ....|A#5 2F.F ....|A#5 2F.F ....
....|..|--- .... ....|--- .... ....|--- .... ....
....|..|C-4 AF.F ....|--- .... ....|--- .... ....
....|..|--- .... ....|R-- .... ....|R-- .... ....
....|..|C-4 LF.F ....|F-5 2F.F ....|F-5 2F.F ....
....|..|--- .... ....|--- .... ....|--- .... ....
....|..|C-4 LF.F ....|C#6 2F.7 ....|C#6 2F.7 ....
....|..|--- .... ....|--- .... ....|--- .... ....
....|..|C-4 LF.F ....|C-6 2F.F ....|C-6 2F.F ....
....|..|C-4 LF.F ....|R-- .... ....|R-- .... ....
....|..|D#4 9F.F ....|C-6 2F.7 ....|C-6 2F.7 ....
....|..|D#4 9F.F ....|--- .... ....|--- .... ....
....|..|C-4 9F.F ....|A#5 2F.7 ....|A#5 2F.7 ....
....|..|--- .... ....|--- .... ....|--- .... ....
....|..|C-4 9F.F ....|C-6 2F.A ....|C-6 2F.A ....
....|..|C-4 LF.A ....|--- .... ....|--- .... ....
....|..|C-4 AF.F ....|A#5 2F.F ....|A#5 2F.F ....
....|..|D#4 9F.A ....|--- .... ....|--- .... ....
....|..|C-4 AF.F ....|R-- .... ....|R-- .... ....
....|..|--- .... ....|R-- .... ....|R-- .... ....
....|..|C-4 AF.F ....|A#5 2F.F ....|A#5 2F.F ....
....|..|C-4 LF.7 ....|--- .... ....|--- .... ....
....|..|C-4 AF.F ....|C-6 2F.F ....|C-6 2F.F ....
....|..|D#4 9F.7 ....|--- .... ....|--- .... ....

[Pattern14]
....|..|C-4 AF.F ....|R-- .... ....|R-- .... ....
....|..|--- .... ....|R-- .... ....|R-- .... ....
....|..|C-4 AF.F ....|A#5 2F.F ....|A#5 2F.F ....
....|..|--- .... ....|--- .... ....|--- .... ....
....|..|C-4 LF.F ....|A#5 2F.F ....|A#5 2F.F ....
....|..|--- .... ....|--- .... ....|--- .... ....
....|..|C-4 LF.F ....|--- .... ....|--- .... ....
....|..|--- .... ....|R-- .... ....|R-- .... ....
....|..|C-4 LF.F ....|C-6 2F.F ....|C-6 2F.F ....
....|..|--- .... ....|--- .... ....|--- .... ....
....|..|D#4 9F.F ....|C-6 2F.7 ....|C-6 2F.7 ....
....|..|--- .... ....|--- .... ....|--- .... ....
....|..|D#4 9F.F ....|A#5 2F.F ....|A#5 2F.F ....
....|..|--- .... ....|--- .... ....|--- .... ....
....|..|C-4 LF.F ....|A#5 2F.7 ....|A#5 2F.7 ....
....|..|--- .... ....|--- .... ....|--- .... ....
....|..|C-4 AF.F ....|C#6 2F.F ....|C#6 2F.F ....
....|..|--- .... ....|--- .... ....|--- .... ....
....|..|C-4 AF.F ....|A#5 2F.A ....|A#5 2F.A ....
....|..|--- .... ....|--- .... ....|--- .... ....
....|..|C-4 AF.F ....|A#5 2F.F ....|A#5 2F.F ....
....|..|--- .... ....|--- .... ....|--- .... ....
....|..|C-4 AF.F ....|C#6 2F.A ....|C#6 2F.A ....
....|..|--- .... ....|--- .... ....|--- .... ....
....|..|C-4 AF.F ....|A#5 2F.7 ....|A#5 2F.7 ....
....|..|--- .... ....|--- .... ....|--- .... ....
....|..|C-4 AF.F ....|A#5 2F.A ....|A#5 2F.A ....
....|..|--- .... ....|--- .... ....|--- .... ....
....|..|C-4 LF.F ....|C#6 2F.7 ....|C#6 2F.7 ....
....|..|--- .... ....|--- .... ....|--- .... ....
....|..|C-4 LF.F ....|--- .... ....|--- .... ....
....|..|--- .... ....|--- .... ....|--- .... ....
....|..|C-4 LF.F ....|A#5 2F.7 ....|A#5 2F.7 ....
....|..|--- .... ....|--- .... ....|--- .... ....
....|..|C-4 LF.F ....|R-- .... ....|R-- .... ....
....|..|--- .... ....|--- .... ....|--- .... ....
....|..|C-4 LF.F ....|--- .... ....|--- .... ....
....|..|--- .... ....|--- .... ....|--- .... ....
....|..|C-4 LF.F ....|--- .... ....|--- .... ....
....|..|--- .... ....|--- .... ....|--- .... ....
....|..|C-4 AF.F ....|A#5 2F.F ....|A#5 2F.F ....
....|..|--- .... ....|--- .... ....|--- .... ....
....|..|C-4 LF.7 ....|--- .... ....|--- .... ....
....|..|--- .... ....|--- .... ....|--- .... ....
....|..|C-4 AF.F ....|A#5 2F.F ....|A#5 2F.F ....
....|..|--- .... ....|--- .... ....|--- .... ....
....|..|C-4 AF.F ....|C-6 2F.F ....|C-6 2F.F ....
....|..|--- .... ....|--- .... ....|--- .... ....
....|..|C-4 LF.7 ....|--- .... ....|--- .... ....
....|..|--- .... ....|--- .... ....|--- .... ....
....|..|C-4 AF.F ....|A#5 2F.F ....|A#5 2F.F ....
....|..|--- .... ....|--- .... ....|--- .... ....
....|..|C-4 LF.F ....|A#5 2F.F ....|A#5 2F.F ....
....|..|--- .... ....|--- .... ....|--- .... ....
....|..|C-4 LF.F ....|--- .... ....|--- .... ....
....|..|--- .... ....|--- .... ....|--- .... ....
....|..|C-4 LF.F ....|F-5 2F.F ....|F-5 2F.F ....
....|..|--- .... ....|--- .... ....|--- .... ....
....|..|D#4 9F.F ....|C-6 2F.7 ....|C-6 2F.7 ....
....|..|--- .... ....|--- .... ....|--- .... ....
....|..|C-4 9F.F ....|A#5 2F.F ....|A#5 2F.F ....
....|..|--- .... ....|--- .... ....|--- .... ....
....|..|C-4 9F.F ....|A#5 2F.7 ....|A#5 2F.7 ....
....|..|--- .... ....|--- .... ....|--- .... ....

[Pattern15]
....|..|C-4 AF.F ....|D-6 2F.F ....|D-6 2F.F ....
....|..|--- .... ....|--- .... ....|--- .... ....
....|..|C-4 AF.F ....|C-6 2F.F ....|C-6 2F.F ....
....|..|--- .... ....|--- .... ....|--- .... ....
....|..|C-4 AF.F ....|F-5 2F.7 ....|F-5 2F.7 ....
....|..|--- .... ....|--- .... ....|--- .... ....
....|..|C-4 AF.F ....|A#5 2F.F ....|A#5 2F.F ....
....|..|--- .... ....|--- .... ....|--- .... ....
....|..|C-4 AF.F ....|A#5 2F.7 ....|A#5 2F.7 ....
....|..|--- .... ....|--- .... ....|--- .... ....
....|..|C-4 AF.F ....|A-5 2F.F ....|A-5 2F.F ....
....|..|--- .... ....|--- .... ....|--- .... ....
....|..|C-4 LF.F ....|G-5 2F.F ....|G-5 2F.F ....
....|..|--- .... ....|--- .... ....|--- .... ....
....|..|C-4 LF.F ....|C-6 2F.7 ....|C-6 2F.7 ....
....|..|--- .... ....|--- .... ....|--- .... ....
....|..|C-4 LF.F ....|A-5 2F.A ....|A-5 2F.A ....
....|..|C-4 LF.F ....|--- .... ....|--- .... ....
....|..|C-4 LF.F ....|A#5 2F.7 ....|A#5 2F.7 ....
....|..|C-4 LF.F ....|--- .... ....|--- .... ....
....|..|C-4 LF.F ....|G-5 2F.F ....|G-5 2F.F ....
....|..|--- .... ....|--- .... ....|--- .... ....
....|..|C-4 LF.F ....|A-5 2F.F ....|A-5 2F.F ....
....|..|C-4 LF.A ....|--- .... ....|--- .... ....
....|..|C-4 AF.F ....|A#5 2F.F ....|A#5 2F.F ....
....|..|C-4 LF.A ....|--- .... ....|--- .... ....
....|..|C-4 AF.F ....|R-- .... ....|R-- .... ....
....|..|--- .... ....|--- .... ....|--- .... ....
....|..|C-4 AF.F ....|F-5 2F.F ....|F-5 2F.F ....
....|..|C-4 LF.7 ....|--- .... ....|--- .... ....
....|..|C-4 AF.F ....|A#5 2F.F ....|A#5 2F.F ....
....|..|C-4 LF.7 ....|--- .... ....|--- .... ....
....|..|C-4 AF.F ....|G-5 2F.7 ....|G-5 2F.7 ....
....|..|--- .... ....|--- .... ....|--- .... ....
....|..|C-4 AF.F ....|F-5 2F.F ....|F-5 2F.F ....
....|..|--- .... ....|--- .... ....|--- .... ....
....|..|C-4 LF.F ....|A#5 2F.F ....|A#5 2F.F ....
....|..|--- .... ....|--- .... ....|--- .... ....
....|..|C-4 LF.F ....|--- .... ....|--- .... ....
....|..|--- .... ....|--- .... ....|--- .... ....
....|..|C-4 LF.F ....|F-5 2F.7 ....|F-5 2F.7 ....
....|..|--- .... ....|--- .... ....|--- .... ....
....|..|C-4 LF.F ....|A#5 2F.7 ....|A#5 2F.7 ....
....|..|--- .... ....|--- .... ....|--- .... ....
....|..|C-3 9F.F ....|--- .... ....|--- .... ....
....|..|--- .... ....|--- .... ....|--- .... ....
....|..|C-3 9F.F ....|F-5 2F.7 ....|F-5 2F.7 ....
....|..|--- .... ....|--- .... ....|--- .... ....
....|..|C-4 AF.F ....|A#5 2F.7 ....|A#5 2F.7 ....
....|..|--- .... ....|--- .... ....|--- .... ....
....|..|C-4 AF.F ....|--- .... ....|--- .... ....
....|..|--- .... ....|--- .... ....|--- .... ....
....|..|C-4 AF.F ....|A#5 2F.F ....|A#5 2F.F ....
....|..|--- .... ....|--- .... ....|--- .... ....
....|..|C-4 AF.F ....|C-6 2F.F ....|C-6 2F.F ....
....|..|--- .... ....|--- .... ....|--- .... ....
....|..|C-4 AF.F ....|A#5 2F.F ....|A#5 2F.F ....
....|..|--- .... ....|--- .... ....|--- .... ....
....|..|C-4 AF.F ....|R-- .... ....|R-- .... ....
....|..|--- .... ....|--- .... ....|--- .... ....
....|..|C-4 LF.F ....|C#6 2F.F ....|C#6 2F.F ....
....|..|--- .... ....|--- .... ....|--- .... ....
....|..|C-4 LF.F ....|A#5 2F.A ....|A#5 2F.A ....
....|..|C-4 LF.F ....|--- .... ....|--- .... ....

[Pattern16]
....|..|C-4 LF.F ....|A#5 2F.F ....|A#5 2F.F ....
....|..|--- .... ....|--- .... ....|--- .... ....
....|..|C-4 LF.F ....|C-6 2F.7 ....|C-6 2F.7 ....
....|..|C-4 LF.F ....|--- .... ....|--- .... ....
....|..|D#4 9F.F ....|A#5 2F.7 ....|A#5 2F.7 ....
....|..|D#4 9F.F ....|R-- .... ....|R-- .... ....
....|..|D#4 9F.F ....|F-5 2F.F ....|F-5 2F.F ....
....|..|D#4 9F.F ....|--- .... ....|--- .... ....
....|..|C-4 AF.F ....|A#5 2F.F ....|A#5 2F.F ....
....|..|C-4 LF.A ....|--- .... ....|--- .... ....
....|..|C-4 LF.7 ....|--- .... ....|--- .... ....
....|..|C-4 LF.7 ....|R-- .... ....|R-- .... ....
....|..|C-4 AF.F ....|F-5 2F.F ....|F-5 2F.F ....
....|..|D#4 9F.A ....|--- .... ....|--- .... ....
....|..|C-4 AF.F ....|A#5 2F.F ....|A#5 2F.F ....
....|..|C-4 LF.7 ....|--- .... ....|--- .... ....
....|..|C-4 AF.F ....|--- .... ....|--- .... ....
....|..|D#4 9F.7 ....|R-- .... ....|R-- .... ....
....|..|C-4 AF.F ....|F-5 2F.F ....|F-5 2F.F ....
....|..|D#4 9F.7 ....|--- .... ....|--- .... ....
....|..|C-4 LF.F ....|A#5 2F.F ....|A#5 2F.F ....
....|..|--- .... ....|--- .... ....|--- .... ....
....|..|C-4 LF.F ....|--- .... ....|--- .... ....
....|..|--- .... ....|--- .... ....|--- .... ....
....|..|C-4 LF.F ....|F-5 2F.7 ....|F-5 2F.7 ....
....|..|--- .... ....|--- .... ....|--- .... ....
....|..|D#4 9F.F ....|A#5 2F.7 ....|A#5 2F.7 ....
....|..|--- .... ....|--- .... ....|--- .... ....
....|..|C-4 9F.F ....|--- .... ....|--- .... ....
....|..|--- .... ....|--- .... ....|--- .... ....
....|..|C-4 9F.F ....|F-5 2F.7 ....|F-5 2F.7 ....
....|..|--- .... ....|--- .... ....|--- .... ....
....|..|C-4 AF.F ....|A#5 2F.7 ....|A#5 2F.7 ....
....|..|--- .... ....|--- .... ....|--- .... ....
....|..|C-4 AF.F ....|--- .... ....|--- .... ....
....|..|--- .... ....|--- .... ....|--- .... ....
....|..|C-4 AF.F ....|A#5 2F.F ....|A#5 2F.F ....
....|..|--- .... ....|--- .... ....|--- .... ....
....|..|C-4 LF.F ....|C-6 2F.F ....|C-6 2F.F ....
....|..|--- .... ....|--- .... ....|--- .... ....
....|..|C-4 LF.F ....|A#5 2F.F ....|A#5 2F.F ....
....|..|--- .... ....|--- .... ....|--- .... ....
....|..|C-4 LF.F ....|A#5 2F.A ....|A#5 2F.A ....
....|..|--- .... ....|--- .... ....|--- .... ....
....|..|C-4 LF.F ....|C-6 2F.F ....|C-6 2F.F ....
....|..|--- .... ....|--- .... ....|--- .... ....
....|..|C-4 LF.F ....|R-- .... ....|R-- .... ....
....|..|--- .... ....|--- .... ....|--- .... ....
....|..|C-4 LF.F ....|F-5 2F.F ....|F-5 2F.F ....
....|..|C-4 LF.F ....|--- .... ....|--- .... ....
....|..|C-4 9F.F ....|G-5 2F.F ....|G-5 2F.F ....
....|..|C-4 9F.F ....|--- .... ....|--- .... ....
....|..|C-4 9F.F ....|A-5 2F.F ....|A-5 2F.F ....
....|..|--- .... ....|--- .... ....|--- .... ....
....|..|C-4 LF.7 ....|C-6 2F.F ....|C-6 2F.F ....
....|..|C-4 LF.A ....|--- .... ....|--- .... ....
....|..|C-4 AF.F ....|A#5 2F.F ....|A#5 2F.F ....
....|..|C-4 9F.A ....|--- .... ....|--- .... ....
....|..|C-4 LF.7 ....|R-- .... ....|R-- .... ....
....|..|--- .... ....|--- .... ....|--- .... ....
....|..|C-4 LF.7 ....|F-5 2F.7 ....|F-5 2F.7 ....
....|..|C-4 LF.7 ....|--- .... ....|--- .... ....
....|..|C-4 AF.F ....|G-5 2F.7 ....|G-5 2F.7 ....
....|..|C-4 9F.7 ....|--- .... ....|--- .... ....

[Pattern17]
....|..|C-4 9F.7 ....|A-5 2F.7 ....|A-5 2F.7 ....
....|..|--- .... ....|--- .... ....|--- .... ....
....|..|R-- .... ....|C-6 2F.7 ....|C-6 2F.7 ....
....|..|--- .... ....|--- .... ....|--- .... ....
....|..|C-4 RF.F ....|A#5 2F.7 ....|A#5 2F.7 ....
....|..|--- .... ....|--- .... ....|--- .... ....
....|..|--- .... ....|--- .... ....|--- .... ....
....|..|--- .... ....|--- .... ....|--- .... ....
....|..|--- .... ....|--- .... ....|--- .... ....
....|..|--- .... ....|--- .... ....|--- .... ....
....|..|C-4 AF.7 ....|--- .... ....|--- .... ....
....|..|--- .... ....|--- .... ....|--- .... ....
....|..|--- .... ....|--- .... ....|--- .... ....
....|..|--- .... ....|--- .... ....|--- .... ....
....|..|--- .... ....|--- .... ....|--- .... ....
....|..|--- .... ....|--- .... ....|--- .... ....
....|..|C-4 AF.F ....|R-- .... ....|R-- .... ....
....|..|--- .... ....|--- .... ....|--- .... ....
....|..|--- .... ....|--- .... ....|--- .... ....
....|..|--- .... ....|--- .... ....|--- .... ....
....|..|--- .... ....|--- .... ....|--- .... ....
....|..|--- .... ....|--- .... ....|--- .... ....
....|..|C-4 AF.F ....|R-- .... ....|R-- .... ....
....|..|--- .... ....|--- .... ....|--- .... ....
....|..|--- .... ....|--- .... ....|--- .... ....
....|..|--- .... ....|--- .... ....|--- .... ....
....|..|--- .... ....|--- .... ....|--- .... ....
....|..|--- .... ....|--- .... ....|--- .... ....
....|..|C-4 RF.F ....|R-- .... ....|R-- .... ....
....|..|--- .... ....|--- .... ....|--- .... ....
....|..|C-4 RF.F ....|--- .... ....|--- .... ....
....|..|--- .... ....|--- .... ....|--- .... ....
....|..|--- .... ....|--- .... ....|--- .... ....
....|..|--- .... ....|--- .... ....|--- .... ....
....|..|C-4 AF.7 ....|--- .... ....|--- .... ....
....|..|--- .... ....|--- .... ....|--- .... ....
....|..|C-4 RF.A ....|--- .... ....|--- .... ....
....|..|--- .... ....|--- .... ....|--- .... ....
....|..|--- .... ....|--- .... ....|--- .... ....
....|..|--- .... ....|--- .... ....|--- .... ....
....|..|C-4 AF.F ....|--- .... ....|--- .... ....
....|..|--- .... ....|--- .... ....|--- .... ....
....|..|C-4 RF.7 ....|--- .... ....|--- .... ....
....|..|--- .... ....|--- .... ....|--- .... ....
....|..|--- .... ....|--- .... ....|--- .... ....
....|..|--- .... ....|--- .... ....|--- .... ....
....|..|C-4 AF.F ....|--- .... ....|--- .... ....
....|..|--- .... ....|--- .... ....|--- .... ....
....|..|--- .... ....|--- .... ....|--- .... ....
....|..|--- .... ....|--- .... ....|--- .... ....
....|..|--- .... ....|--- .... ....|--- .... ....
....|..|--- .... ....|--- .... ....|--- .... ....
....|..|C-4 RF.F ....|--- .... ....|--- .... ....
....|..|--- .... ....|--- .... ....|--- .... ....
....|..|--- .... ....|--- .... ....|--- .... ....
....|..|--- .... ....|--- .... ....|--- .... ....
....|..|--- .... ....|--- .... ....|--- .... ....
....|..|--- .... ....|--- .... ....|--- .... ....
....|..|C-4 AF.7 ....|--- .... ....|--- .... ....
....|..|--- .... ....|--- .... ....|--- .... ....
....|..|--- .... ....|--- .... ....|--- .... ....
....|..|--- .... ....|--- .... ....|--- .... ....
....|..|--- .... ....|--- .... ....|--- .... ....
....|..|--- .... ....|--- .... ....|--- .... ....

[Pattern18]
....|..|C-4 AF.F ....|--- .... ....|--- .... ....
....|..|--- .... ....|--- .... ....|--- .... ....
....|..|--- .... ....|--- .... ....|--- .... ....
....|..|--- .... ....|--- .... ....|--- .... ....
....|..|--- .... ....|--- .... ....|--- .... ....
....|..|--- .... ....|--- .... ....|--- .... ....
....|..|C-4 LF.F ....|--- .... ....|--- .... ....
....|..|--- .... ....|--- .... ....|--- .... ....
....|..|C-4 9F.F ....|--- .... ....|--- .... ....
....|..|--- .... ....|--- .... ....|--- .... ....
....|..|--- .... ....|--- .... ....|--- .... ....
....|..|--- .... ....|--- .... ....|--- .... ....
....|..|C-4 AF.F ....|--- .... ....|--- .... ....
....|..|--- .... ....|--- .... ....|--- .... ....
....|..|C-4 9F.A ....|--- .... ....|--- .... ....
....|..|--- .... ....|--- .... ....|--- .... ....
....|..|--- .... ....|--- .... ....|--- .... ....
....|..|--- .... ....|--- .... ....|--- .... ....
....|..|C-4 LF.F ....|--- .... ....|--- .... ....
....|..|--- .... ....|--- .... ....|--- .... ....
....|..|D#4 9F.F ....|--- .... ....|--- .... ....
....|..|--- .... ....|--- .... ....|--- .... ....
....|..|--- .... ....|--- .... ....|--- .... ....
....|..|--- .... ....|--- .... ....|--- .... ....
....|..|C-4 AF.F ....|--- .... ....|--- .... ....
....|..|--- .... ....|--- .... ....|--- .... ....
....|..|C-4 AF.F ....|--- .... ....|--- .... ....
....|..|--- .... ....|--- .... ....|--- .... ....
....|..|C-4 AF.F ....|--- .... ....|--- .... ....
....|..|--- .... ....|--- .... ....|--- .... ....
....|..|C-4 AF.F ....|--- .... ....|--- .... ....
....|..|--- .... ....|--- .... ....|--- .... ....
....|..|C-4 AF.F ....|--- .... ....|--- .... ....
....|..|--- .... ....|--- .... ....|--- .... ....
....|..|C-4 AF.F ....|--- .... ....|--- .... ....
....|..|--- .... ....|--- .... ....|--- .... ....
....|..|C-4 LF.F ....|--- .... ....|--- .... ....
....|..|--- .... ....|--- .... ....|--- .... ....
....|..|C-4 LF.F ....|--- .... ....|--- .... ....
....|..|--- .... ....|--- .... ....|--- .... ....
....|..|C-4 LF.F ....|--- .... ....|--- .... ....
....|..|--- .... ....|--- .... ....|--- .... ....
....|..|C-4 LF.F ....|--- .... ....|--- .... ....
....|..|--- .... ....|--- .... ....|--- .... ....
....|..|C-4 LF.F ....|--- .... ....|--- .... ....
....|..|--- .... ....|--- .... ....|--- .... ....
....|..|C-4 LF.F ....|--- .... ....|--- .... ....
....|..|--- .... ....|--- .... ....|--- .... ....
....|..|C-4 AF.F ....|--- .... ....|--- .... ....
....|..|--- .... ....|--- .... ....|--- .... ....
....|..|C-4 AF.F ....|--- .... ....|--- .... ....
....|..|--- .... ....|--- .... ....|--- .... ....
....|..|C-4 AF.F ....|--- .... ....|--- .... ....
....|..|--- .... ....|--- .... ....|--- .... ....
....|..|C-4 AF.F ....|--- .... ....|--- .... ....
....|..|--- .... ....|--- .... ....|--- .... ....
....|..|C-4 AF.F ....|--- .... ....|--- .... ....
....|..|--- .... ....|--- .... ....|--- .... ....
....|..|C-4 AF.F ....|--- .... ....|--- .... ....
....|..|--- .... ....|--- .... ....|--- .... ....
....|..|C-4 LF.F ....|--- .... ....|--- .... ....
....|..|--- .... ....|--- .... ....|--- .... ....
....|..|C-4 LF.F ....|--- .... ....|--- .... ....
....|..|--- .... ....|--- .... ....|--- .... ....

[Pattern19]
....|..|C-4 LF.F ....|--- .... ....|--- .... ....
....|..|--- .... ....|--- .... ....|--- .... ....
....|..|C-4 LF.F ....|--- .... ....|--- .... ....
....|..|--- .... ....|--- .... ....|--- .... ....
....|..|C-4 LF.F ....|--- .... ....|--- .... ....
....|..|--- .... ....|--- .... ....|--- .... ....
....|..|C-4 LF.F ....|--- .... ....|--- .... ....
....|..|--- .... ....|--- .... ....|--- .... ....
....|..|C-4 AF.F ....|--- .... ....|--- .... ....
....|..|--- .... ....|--- .... ....|--- .... ....
....|..|C-4 AF.F ....|--- .... ....|--- .... ....
....|..|--- .... ....|--- .... ....|--- .... ....
....|..|C-4 AF.F ....|--- .... ....|--- .... ....
....|..|--- .... ....|--- .... ....|--- .... ....
....|..|C-4 AF.F ....|--- .... ....|--- .... ....
....|..|--- .... ....|--- .... ....|--- .... ....
....|..|C-4 AF.F ....|--- .... ....|--- .... ....
....|..|--- .... ....|--- .... ....|--- .... ....
....|..|C-4 AF.F ....|--- .... ....|--- .... ....
....|..|--- .... ....|--- .... ....|--- .... ....
....|..|C-4 LF.F ....|--- .... ....|--- .... ....
....|..|--- .... ....|--- .... ....|--- .... ....
....|..|C-4 LF.F ....|--- .... ....|--- .... ....
....|..|--- .... ....|--- .... ....|--- .... ....
....|..|C-4 LF.F ....|--- .... ....|--- .... ....
....|..|--- .... ....|--- .... ....|--- .... ....
....|..|C-4 LF.F ....|--- .... ....|--- .... ....
....|..|--- .... ....|--- .... ....|--- .... ....
....|..|C-4 LF.F ....|--- .... ....|--- .... ....
....|..|--- .... ....|--- .... ....|--- .... ....
....|..|C-4 LF.F ....|--- .... ....|--- .... ....
....|..|--- .... ....|--- .... ....|--- .... ....
....|..|C-4 AF.F ....|--- .... ....|--- .... ....
....|..|--- .... ....|--- .... ....|--- .... ....
....|..|C-4 AF.F ....|--- .... ....|--- .... ....
....|..|--- .... ....|--- .... ....|--- .... ....
....|..|C-4 AF.F ....|--- .... ....|--- .... ....
....|..|--- .... ....|--- .... ....|--- .... ....
....|..|C-4 AF.F ....|--- .... ....|--- .... ....
....|..|--- .... ....|--- .... ....|--- .... ....
....|..|C-4 AF.F ....|--- .... ....|--- .... ....
....|..|--- .... ....|--- .... ....|--- .... ....
....|..|C-4 AF.F ....|--- .... ....|--- .... ....
....|..|--- .... ....|--- .... ....|--- .... ....
....|..|C-4 LF.F ....|--- .... ....|--- .... ....
....|..|--- .... ....|--- .... ....|--- .... ....
....|..|C-4 LF.F ....|--- .... ....|--- .... ....
....|..|--- .... ....|--- .... ....|--- .... ....
....|..|C-4 LF.F ....|--- .... ....|--- .... ....
....|..|--- .... ....|--- .... ....|--- .... ....
....|..|C-4 LF.F ....|--- .... ....|--- .... ....
....|..|--- .... ....|--- .... ....|--- .... ....
....|..|C-4 LF.F ....|--- .... ....|--- .... ....
....|..|--- .... ....|--- .... ....|--- .... ....
....|..|C-4 LF.F ....|--- .... ....|--- .... ....
....|..|--- .... ....|--- .... ....|--- .... ....
....|..|C-4 AF.F ....|--- .... ....|--- .... ....
....|..|--- .... ....|--- .... ....|--- .... ....
....|..|C-4 AF.F ....|--- .... ....|--- .... ....
....|..|--- .... ....|--- .... ....|--- .... ....
....|..|C-4 AF.F ....|--- .... ....|--- .... ....
....|..|--- .... ....|--- .... ....|--- .... ....
....|..|C-4 AF.F ....|--- .... ....|--- .... ....
....|..|--- .... ....|--- .... ....|--- .... ....

[Pattern20]
....|..|C-4 LF.F ....|--- .... ....|--- .... ....
....|..|--- .... ....|--- .... ....|--- .... ....
....|..|C-4 LF.F ....|--- .... ....|--- .... ....
....|..|--- .... ....|--- .... ....|--- .... ....
....|..|C-4 AF.F ....|--- .... ....|--- .... ....
....|..|--- .... ....|--- .... ....|--- .... ....
....|..|C-4 AF.F ....|--- .... ....|--- .... ....
....|..|--- .... ....|--- .... ....|--- .... ....
....|..|C-4 AF.F ....|--- .... ....|--- .... ....
....|..|--- .... ....|--- .... ....|--- .... ....
....|..|C-4 AF.F ....|--- .... ....|--- .... ....
....|..|--- .... ....|--- .... ....|--- .... ....
....|..|C-4 AF.F ....|--- .... ....|--- .... ....
....|..|--- .... ....|--- .... ....|--- .... ....
....|..|C-4 LF.F ....|--- .... ....|--- .... ....
....|..|--- .... ....|--- .... ....|--- .... ....
....|..|C-4 AF.F ....|--- .... ....|--- .... ....
....|..|--- .... ....|--- .... ....|--- .... ....
....|..|C-4 AF.F ....|--- .... ....|--- .... ....
....|..|--- .... ....|--- .... ....|--- .... ....
....|..|C-4 AF.F ....|--- .... ....|--- .... ....
....|..|--- .... ....|--- .... ....|--- .... ....
....|..|C-4 AF.F ....|--- .... ....|--- .... ....
....|..|--- .... ....|--- .... ....|--- .... ....
....|..|C-4 LF.F ....|--- .... ....|--- .... ....
....|..|--- .... ....|--- .... ....|--- .... ....
....|..|C-4 LF.F ....|--- .... ....|--- .... ....
....|..|--- .... ....|--- .... ....|--- .... ....
....|..|C-4 LF.F ....|--- .... ....|--- .... ....
....|..|--- .... ....|--- .... ....|--- .... ....
....|..|C-4 LF.F ....|--- .... ....|--- .... ....
....|..|--- .... ....|--- .... ....|--- .... ....
....|..|D#4 9F.F ....|--- .... ....|--- .... ....
....|..|--- .... ....|--- .... ....|--- .... ....
....|..|D#4 9F.F ....|--- .... ....|--- .... ....
....|..|--- .... ....|--- .... ....|--- .... ....
....|..|C-4 9F.F ....|--- .... ....|--- .... ....
....|..|--- .... ....|--- .... ....|--- .... ....
....|..|C-4 9F.F ....|--- .... ....|--- .... ....
....|..|--- .... ....|--- .... ....|--- .... ....
....|..|C-4 AF.F ....|F-5 2F.F ....|--- .... ....
....|..|--- .... ....|R-- .... ....|--- .... ....
....|..|C-4 LF.7 ....|A#5 2F.F ....|--- .... ....
....|..|--- .... ....|--- .... ....|--- .... ....
....|..|C-4 AF.F ....|--- .... ....|--- .... ....
....|..|--- .... ....|--- .... ....|--- .... ....
....|..|C-4 AF.F ....|A#5 2F.F ....|--- .... ....
....|..|--- .... ....|R-- .... ....|--- .... ....
....|..|C-4 AF.F ....|F-5 2F.F ....|--- .... ....
....|..|--- .... ....|--- .... ....|--- .... ....
....|..|C-4 AF.F ....|--- .... ....|--- .... ....
....|..|--- .... ....|R-- .... ....|--- .... ....
....|..|C-4 LF.F ....|F-5 2F.7 ....|--- .... ....
....|..|--- .... ....|R-- .... ....|--- .... ....
....|..|C-4 LF.F ....|D-5 2F.F ....|--- .... ....
....|..|--- .... ....|--- .... ....|--- .... ....
....|..|C-4 LF.F ....|D#5 2F.F ....|--- .... ....
....|..|--- .... ....|R-- .... ....|--- .... ....
....|..|C-4 AF.7 ....|F-5 2F.F ....|--- .... ....
....|..|--- .... ....|--- .... ....|--- .... ....
....|..|C-4 LF.F ....|C-5 2F.F ....|--- .... ....
....|..|--- .... ....|--- .... ....|--- .... ....
....|..|C-4 LF.F ....|A#4 2F.F ....|--- .... ....
....|..|--- .... ....|R-- .... ....|--- .... ....

[Pattern21]
....|..|C-4 AF.F ....|F-5 2F.F ....|--- .... ....
....|..|--- .... ....|--- .... ....|--- .... ....
....|..|C-4 LF.7 ....|D-5 2F.7 ....|--- .... ....
....|..|--- .... ....|R-- .... ....|--- .... ....
....|..|C-4 AF.F ....|D#5 2F.7 ....|--- .... ....
....|..|--- .... ....|--- .... ....|--- .... ....
....|..|C-4 AF.F ....|F-5 2F.7 ....|--- .... ....
....|..|--- .... ....|--- .... ....|--- .... ....
....|..|C-4 AF.F ....|C-5 2F.7 ....|--- .... ....
....|..|--- .... ....|R-- .... ....|--- .... ....
....|..|C-4 AF.F ....|A#4 2F.7 ....|--- .... ....
....|..|--- .... ....|--- .... ....|--- .... ....
....|..|C-4 LF.F ....|F-5 2F.7 ....|--- .... ....
....|..|--- .... ....|--- .... ....|--- .... ....
....|..|C-4 LF.F ....|--- .... ....|--- .... ....
....|..|--- .... ....|R-- .... ....|--- .... ....
....|..|C-4 LF.F ....|--- .... ....|--- .... ....
....|..|--- .... ....|--- .... ....|--- .... ....
....|..|C-4 LF.F ....|--- .... ....|--- .... ....
....|..|--- .... ....|--- .... ....|--- .... ....
....|..|C-4 LF.F ....|--- .... ....|--- .... ....
....|..|--- .... ....|--- .... ....|--- .... ....
....|..|C-3 9F.F ....|--- .... ....|--- .... ....
....|..|--- .... ....|--- .... ....|--- .... ....
....|..|C-4 AF.F ....|F-5 2F.F ....|--- .... ....
....|..|--- .... ....|R-- .... ....|--- .... ....
....|..|C-4 LF.7 ....|A#5 2F.F ....|--- .... ....
....|..|--- .... ....|--- .... ....|--- .... ....
....|..|C-4 AF.F ....|--- .... ....|--- .... ....
....|..|--- .... ....|--- .... ....|--- .... ....
....|..|C-4 AF.F ....|A#5 2F.F ....|--- .... ....
....|..|--- .... ....|R-- .... ....|--- .... ....
....|..|C-4 AF.F ....|F-5 2F.F ....|--- .... ....
....|..|--- .... ....|--- .... ....|--- .... ....
....|..|C-4 AF.F ....|--- .... ....|--- .... ....
....|..|--- .... ....|R-- .... ....|--- .... ....
....|..|C-4 LF.F ....|F-5 2F.7 ....|--- .... ....
....|..|--- .... ....|R-- .... ....|--- .... ....
....|..|C-4 LF.F ....|D-5 2F.F ....|--- .... ....
....|..|--- .... ....|--- .... ....|--- .... ....
....|..|C-4 LF.F ....|D#5 2F.F ....|--- .... ....
....|..|--- .... ....|R-- .... ....|--- .... ....
....|..|C-4 AF.7 ....|F-5 2F.F ....|--- .... ....
....|..|--- .... ....|--- .... ....|--- .... ....
....|..|C-4 LF.F ....|G-5 2F.F ....|--- .... ....
....|..|--- .... ....|--- .... ....|--- .... ....
....|..|C-4 AF.7 ....|A-5 2F.F ....|--- .... ....
....|..|--- .... ....|R-- .... ....|--- .... ....
....|..|C-4 AF.F ....|A#5 2F.F ....|--- .... ....
....|..|--- .... ....|--- .... ....|--- .... ....
....|..|C-4 LF.7 ....|D-5 2F.7 ....|--- .... ....
....|..|--- .... ....|--- .... ....|--- .... ....
....|..|C-4 AF.F ....|D#5 2F.7 ....|--- .... ....
....|..|--- .... ....|--- .... ....|--- .... ....
....|..|C-4 AF.F ....|G#5 2F.F ....|--- .... ....
....|..|--- .... ....|--- .... ....|--- .... ....
....|..|C-4 AF.F ....|G-5 2F.7 ....|--- .... ....
....|..|--- .... ....|--- .... ....|--- .... ....
....|..|C-4 AF.F ....|A-5 2F.7 ....|--- .... ....
....|..|--- .... ....|--- .... ....|--- .... ....
....|..|C-4 LF.F ....|A#5 2F.7 ....|--- .... ....
....|..|--- .... ....|--- .... ....|--- .... ....
....|..|C-4 LF.F ....|--- .... ....|--- .... ....
....|..|--- .... ....|--- .... ....|--- .... ....

[Pattern22]
....|..|C-4 LF.F ....|--- .... ....|--- .... ....
....|..|--- .... ....|--- .... ....|--- .... ....
....|..|C-4 AF.7 ....|G#5 2F.7 ....|--- .... ....
....|..|--- .... ....|--- .... ....|--- .... ....
....|..|C-4 LF.F ....|--- .... ....|--- .... ....
....|..|--- .... ....|--- .... ....|--- .... ....
....|..|C-4 LF.F ....|--- .... ....|--- .... ....
....|..|--- .... ....|--- .... ....|--- .... ....
....|..|C-4 AF.F ....|A#5 2F.F ....|--- .... ....
....|..|--- .... ....|--- .... ....|--- .... ....
....|..|C-4 LF.7 ....|--- .... ....|--- .... ....
....|..|--- .... ....|--- .... ....|--- .... ....
....|..|C-4 AF.F ....|--- .... ....|--- .... ....
....|..|--- .... ....|--- .... ....|--- .... ....
....|..|C-4 AF.F ....|G#5 2F.F ....|--- .... ....
....|..|--- .... ....|--- .... ....|--- .... ....
....|..|C-4 AF.F ....|--- .... ....|--- .... ....
....|..|--- .... ....|--- .... ....|--- .... ....
....|..|C-4 AF.F ....|--- .... ....|--- .... ....
....|..|--- .... ....|--- .... ....|--- .... ....
....|..|C-4 LF.F ....|A#5 2F.7 ....|--- .... ....
....|..|--- .... ....|--- .... ....|--- .... ....
....|..|C-4 LF.F ....|G-5 2F.F ....|--- .... ....
....|..|--- .... ....|--- .... ....|--- .... ....
....|..|C-4 LF.F ....|G#5 2F.F ....|--- .... ....
....|..|--- .... ....|--- .... ....|--- .... ....
....|..|C-4 AF.7 ....|A#5 2F.F ....|--- .... ....
....|..|--- .... ....|--- .... ....|--- .... ....
....|..|C-4 LF.F ....|F-5 2F.F ....|--- .... ....
....|..|--- .... ....|--- .... ....|--- .... ....
....|..|C-4 AF.7 ....|D#5 2F.F ....|--- .... ....
....|..|--- .... ....|--- .... ....|--- .... ....
....|..|C-4 AF.F ....|F-5 2F.F ....|--- .... ....
....|..|--- .... ....|--- .... ....|--- .... ....
....|..|C-4 LF.7 ....|G-5 2F.7 ....|--- .... ....
....|..|--- .... ....|--- .... ....|--- .... ....
....|..|C-4 AF.F ....|G#5 2F.7 ....|--- .... ....
....|..|--- .... ....|--- .... ....|--- .... ....
....|..|C-4 AF.F ....|A#5 2F.7 ....|--- .... ....
....|..|--- .... ....|--- .... ....|--- .... ....
....|..|C-4 AF.F ....|F-5 2F.7 ....|--- .... ....
....|..|--- .... ....|--- .... ....|--- .... ....
....|..|C-4 AF.F ....|D#5 2F.7 ....|--- .... ....
....|..|--- .... ....|--- .... ....|--- .... ....
....|..|C-4 LF.F ....|F-5 2F.7 ....|--- .... ....
....|..|--- .... ....|--- .... ....|--- .... ....
....|..|C-4 LF.F ....|--- .... ....|--- .... ....
....|..|--- .... ....|--- .... ....|--- .... ....
....|..|C-4 LF.F ....|R-- .... ....|--- .... ....
....|..|--- .... ....|--- .... ....|--- .... ....
....|..|C-4 AF.7 ....|--- .... ....|--- .... ....
....|..|--- .... ....|--- .... ....|--- .... ....
....|..|C-4 LF.F ....|--- .... ....|--- .... ....
....|..|--- .... ....|--- .... ....|--- .... ....
....|..|C-4 LF.F ....|--- .... ....|--- .... ....
....|..|--- .... ....|--- .... ....|--- .... ....
....|..|C-4 AF.F ....|--- .... ....|--- .... ....
....|..|--- .... ....|--- .... ....|--- .... ....
....|..|C-4 LF.7 ....|--- .... ....|--- .... ....
....|..|--- .... ....|--- .... ....|--- .... ....
....|..|C-4 AF.F ....|--- .... ....|--- .... ....
....|..|--- .... ....|--- .... ....|--- .... ....
....|..|C-4 LF.F ....|--- .... ....|--- .... ....
....|..|--- .... ....|--- .... ....|--- .... ....

[Pattern23]
....|..|C-4 LF.F ....|--- .... ....|--- .... ....
....|..|--- .... ....|--- .... ....|--- .... ....
....|..|C-4 LF.F ....|--- .... ....|--- .... ....
....|..|--- .... ....|--- .... ....|--- .... ....
....|..|C-4 LF.F ....|--- .... ....|--- .... ....
....|..|--- .... ....|--- .... ....|--- .... ....
....|..|C-4 LF.F ....|--- .... ....|--- .... ....
....|..|--- .... ....|--- .... ....|--- .... ....
....|..|C-4 LF.F ....|--- .... ....|--- .... ....
....|..|--- .... ....|--- .... ....|--- .... ....
....|..|C-4 LF.F ....|--- .... ....|--- .... ....
....|..|--- .... ....|--- .... ....|--- .... ....
....|..|C-4 9F.F ....|--- .... ....|--- .... ....
....|..|--- .... ....|--- .... ....|--- .... ....
....|..|C-4 LF.F ....|--- .... ....|--- .... ....
....|..|--- .... ....|--- .... ....|--- .... ....
....|..|C-4 AF.F ....|--- .... ....|F-5 2F.F ....
....|..|--- .... ....|--- .... ....|R-- .... ....
....|..|C-4 LF.7 ....|--- .... ....|A#5 2F.F ....
....|..|--- .... ....|--- .... ....|--- .... ....
....|..|C-4 AF.F ....|--- .... ....|--- .... ....
....|..|--- .... ....|--- .... ....|--- .... ....
....|..|C-4 AF.F ....|--- .... ....|A#5 2F.F ....
....|..|--- .... ....|--- .... ....|R-- .... ....
....|..|C-4 AF.F ....|--- .... ....|F-5 2F.F ....
....|..|--- .... ....|--- .... ....|--- .... ....
....|..|C-4 AF.F ....|--- .... ....|--- .... ....
....|..|--- .... ....|--- .... ....|R-- .... ....
....|..|C-4 LF.F ....|--- .... ....|F-5 2F.7 ....
....|..|--- .... ....|--- .... ....|R-- .... ....
....|..|C-4 LF.F ....|--- .... ....|D-5 2F.F ....
....|..|--- .... ....|--- .... ....|--- .... ....
....|..|C-4 LF.F ....|--- .... ....|D#5 2F.F ....
....|..|--- .... ....|--- .... ....|R-- .... ....
....|..|C-4 AF.7 ....|--- .... ....|F-5 2F.F ....
....|..|--- .... ....|--- .... ....|--- .... ....
....|..|C-4 LF.F ....|--- .... ....|D-5 2F.F ....
....|..|--- .... ....|--- .... ....|--- .... ....
....|..|C-4 LF.F ....|--- .... ....|C-5 2F.F ....
....|..|--- .... ....|--- .... ....|R-- .... ....
....|..|C-4 AF.F ....|--- .... ....|D#5 2F.F ....
....|..|--- .... ....|--- .... ....|--- .... ....
....|..|C-4 LF.7 ....|--- .... ....|D-5 2F.7 ....
....|..|--- .... ....|--- .... ....|R-- .... ....
....|..|C-4 AF.F ....|--- .... ....|D#5 2F.7 ....
....|..|--- .... ....|--- .... ....|--- .... ....
....|..|C-4 AF.F ....|--- .... ....|F-5 2F.7 ....
....|..|--- .... ....|--- .... ....|--- .... ....
....|..|C-4 AF.F ....|--- .... ....|D-5 2F.7 ....
....|..|--- .... ....|--- .... ....|R-- .... ....
....|..|C-4 AF.F ....|--- .... ....|C-5 2F.7 ....
....|..|--- .... ....|--- .... ....|--- .... ....
....|..|C-4 LF.F ....|--- .... ....|D#5 2F.7 ....
....|..|--- .... ....|--- .... ....|--- .... ....
....|..|C-4 LF.F ....|D-5 2F.F ....|--- .... ....
....|..|--- .... ....|--- .... ....|R-- .... ....
....|..|C-4 LF.F ....|D#5 2F.F ....|--- .... ....
....|..|--- .... ....|--- .... ....|--- .... ....
....|..|C-4 AF.7 ....|F-5 2F.F ....|--- .... ....
....|..|--- .... ....|--- .... ....|--- .... ....
....|..|C-4 9F.F ....|D-5 2F.F ....|--- .... ....
....|..|--- .... ....|--- .... ....|--- .... ....
....|..|C-4 LF.F ....|A#4 2F.F ....|--- .... ....
....|..|--- .... ....|--- .... ....|--- .... ....

[Pattern24]
....|..|C-4 AF.F ....|F-3 2F.F ....|F-5 2F.F ....
....|..|--- .... ....|--- .... ....|R-- .... ....
....|..|C-4 LF.7 ....|D-5 2F.7 ....|A#5 2F.F ....
....|..|--- .... ....|--- .... ....|--- .... ....
....|..|C-4 AF.F ....|D#5 2F.7 ....|--- .... ....
....|..|--- .... ....|--- .... ....|--- .... ....
....|..|C-4 AF.F ....|F-5 2F.7 ....|A#5 2F.F ....
....|..|--- .... ....|--- .... ....|R-- .... ....
....|..|C-4 AF.F ....|D-5 2F.7 ....|F-5 2F.F ....
....|..|--- .... ....|--- .... ....|--- .... ....
....|..|C-4 AF.F ....|A#4 2F.7 ....|--- .... ....
....|..|--- .... ....|--- .... ....|R-- .... ....
....|..|C-4 LF.F ....|F-3 2F.7 ....|F-5 2F.7 ....
....|..|--- .... ....|--- .... ....|R-- .... ....
....|..|C-4 LF.F ....|R-- .... ....|D-5 2F.F ....
....|..|--- .... ....|--- .... ....|--- .... ....
....|..|C-4 LF.F ....|--- .... ....|D#5 2F.F ....
....|..|--- .... ....|--- .... ....|R-- .... ....
....|..|C-4 AF.7 ....|--- .... ....|F-5 2F.F ....
....|..|--- .... ....|--- .... ....|--- .... ....
....|..|C-4 LF.F ....|--- .... ....|G-5 2F.F ....
....|..|--- .... ....|--- .... ....|--- .... ....
....|..|C-4 AF.7 ....|D#5 2F.F ....|A-5 2F.F ....
....|..|--- .... ....|--- .... ....|R-- .... ....
....|..|C-4 AF.F ....|D#5 2F.F ....|A#5 2F.F ....
....|..|--- .... ....|--- .... ....|--- .... ....
....|..|C-4 LF.7 ....|--- .... ....|D-5 2F.7 ....
....|..|--- .... ....|--- .... ....|--- .... ....
....|..|C-4 AF.F ....|D#5 2F.A ....|D#5 2F.7 ....
....|..|--- .... ....|--- .... ....|--- .... ....
....|..|C-4 AF.F ....|C-5 2F.F ....|G#5 2F.F ....
....|..|--- .... ....|--- .... ....|--- .... ....
....|..|C-4 AF.F ....|--- .... ....|G-5 2F.7 ....
....|..|--- .... ....|--- .... ....|--- .... ....
....|..|C-4 AF.F ....|D#5 2F.7 ....|A-5 2F.7 ....
....|..|--- .... ....|--- .... ....|--- .... ....
....|..|C-4 LF.F ....|D#5 2F.7 ....|A#5 2F.7 ....
....|..|--- .... ....|--- .... ....|--- .... ....
....|..|C-4 LF.F ....|--- .... ....|--- .... ....
....|..|--- .... ....|--- .... ....|--- .... ....
....|..|C-4 LF.F ....|--- .... ....|--- .... ....
....|..|--- .... ....|--- .... ....|--- .... ....
....|..|C-4 AF.7 ....|C-5 2F.7 ....|G#5 2F.7 ....
....|..|--- .... ....|--- .... ....|--- .... ....
....|..|C-4 LF.F ....|--- .... ....|--- .... ....
....|..|--- .... ....|--- .... ....|--- .... ....
....|..|C-4 LF.F ....|--- .... ....|--- .... ....
....|..|--- .... ....|--- .... ....|--- .... ....
....|..|C-4 AF.F ....|D#5 2F.F ....|A#5 2F.F ....
....|..|--- .... ....|--- .... ....|--- .... ....
....|..|C-4 LF.7 ....|--- .... ....|--- .... ....
....|..|--- .... ....|--- .... ....|--- .... ....
....|..|C-4 AF.F ....|--- .... ....|--- .... ....
....|..|--- .... ....|--- .... ....|--- .... ....
....|..|C-4 AF.F ....|C-5 2F.F ....|G#5 2F.F ....
....|..|--- .... ....|--- .... ....|--- .... ....
....|..|C-4 AF.F ....|--- .... ....|--- .... ....
....|..|--- .... ....|--- .... ....|--- .... ....
....|..|C-4 AF.F ....|--- .... ....|--- .... ....
....|..|--- .... ....|--- .... ....|--- .... ....
....|..|C-4 LF.F ....|C-5 2F.F ....|G-5 2F.F ....
....|..|--- .... ....|--- .... ....|--- .... ....
....|..|C-4 LF.F ....|R-- .... ....|R-- .... ....
....|..|--- .... ....|--- .... ....|--- .... ....

[Pattern25]
....|..|C-4 LF.F ....|D#5 2F.F ....|G#5 2F.F ....
....|..|--- .... ....|--- .... ....|--- .... ....
....|..|C-4 AF.7 ....|C-5 2F.7 ....|G#5 2F.7 ....
....|..|--- .... ....|--- .... ....|--- .... ....
....|..|C-4 LF.F ....|D#5 2F.F ....|F-5 2F.F ....
....|..|--- .... ....|--- .... ....|--- .... ....
....|..|C-4 AF.7 ....|R-- .... ....|R-- .... ....
....|..|--- .... ....|--- .... ....|--- .... ....
....|..|C-4 AF.F ....|D-5 2F.F ....|C-6 2F.F ....
....|..|--- .... ....|--- .... ....|--- .... ....
....|..|C-4 LF.7 ....|R-- .... ....|R-- .... ....
....|..|--- .... ....|--- .... ....|--- .... ....
....|..|C-4 AF.F ....|D#5 2F.7 ....|G#5 2F.7 ....
....|..|--- .... ....|--- .... ....|--- .... ....
....|..|C-4 AF.F ....|F-5 2F.F ....|A#5 2F.F ....
....|..|--- .... ....|--- .... ....|--- .... ....
....|..|C-4 AF.F ....|D#5 2F.7 ....|F-5 2F.7 ....
....|..|--- .... ....|--- .... ....|--- .... ....
....|..|C-4 AF.F ....|R-- .... ....|R-- .... ....
....|..|--- .... ....|R-- .... ....|R-- .... ....
....|..|C-4 LF.F ....|F-5 2F.F ....|G#5 2F.F ....
....|..|--- .... ....|--- .... ....|--- .... ....
....|..|C-4 LF.F ....|--- .... ....|--- .... ....
....|..|--- .... ....|--- .... ....|--- .... ....
....|..|C-4 LF.F ....|D-5 2F.F ....|A#5 2F.F ....
....|..|--- .... ....|R-- .... ....|R-- .... ....
....|..|C-4 AF.7 ....|F-5 2F.7 ....|A#5 2F.7 ....
....|..|--- .... ....|--- .... ....|--- .... ....
....|..|C-4 LF.F ....|A#4 2F.F ....|F-5 2F.F ....
....|..|--- .... ....|--- .... ....|--- .... ....
....|..|C-4 LF.F ....|D-5 2F.A ....|A#5 2F.A ....
....|..|--- .... ....|R-- .... ....|R-- .... ....
....|..|C-4 AF.F ....|D#5 2F.F ....|G#5 2F.F ....
....|..|--- .... ....|--- .... ....|--- .... ....
....|..|C-4 LF.7 ....|A#4 2F.A ....|F-5 2F.A ....
....|..|--- .... ....|--- .... ....|--- .... ....
....|..|C-4 AF.F ....|D-5 2F.7 ....|A#5 2F.7 ....
....|..|--- .... ....|--- .... ....|--- .... ....
....|..|C-4 AF.F ....|D#5 2F.A ....|G#5 2F.A ....
....|..|--- .... ....|--- .... ....|--- .... ....
....|..|C-4 AF.F ....|D#5 2F.F ....|G-5 2F.F ....
....|..|--- .... ....|--- .... ....|--- .... ....
....|..|C-4 AF.F ....|F-5 2F.F ....|G#5 2F.F ....
....|..|--- .... ....|--- .... ....|--- .... ....
....|..|C-4 LF.F ....|G-5 2F.F ....|A#5 2F.F ....
....|..|--- .... ....|--- .... ....|--- .... ....
....|..|C-4 LF.F ....|D#5 2F.A ....|G-5 2F.A ....
....|..|--- .... ....|--- .... ....|--- .... ....
....|..|C-4 LF.F ....|F-5 2F.A ....|G#5 2F.A ....
....|..|--- .... ....|--- .... ....|--- .... ....
....|..|C-4 LF.F ....|G-5 2F.A ....|A#5 2F.A ....
....|..|--- .... ....|--- .... ....|--- .... ....
....|..|C-4 LF.F ....|D#5 2F.7 ....|G-5 2F.7 ....
....|..|--- .... ....|--- .... ....|--- .... ....
....|..|C-4 AF.7 ....|F-5 2F.7 ....|G#5 2F.7 ....
....|..|--- .... ....|--- .... ....|--- .... ....
....|..|C-4 AF.F ....|G#5 2F.F ....|A#5 2F.7 ....
....|..|--- .... ....|--- .... ....|--- .... ....
....|..|C-4 LF.7 ....|--- .... ....|--- .... ....
....|..|--- .... ....|--- .... ....|--- .... ....
....|..|C-4 AF.F ....|--- .... ....|--- .... ....
....|..|--- .... ....|--- .... ....|--- .... ....
....|..|C-4 LF.F ....|G#5 2F.A ....|--- .... ....
....|..|--- .... ....|--- .... ....|--- .... ....

[Pattern26]
....|..|C-4 LF.F ....|--- .... ....|--- .... ....
....|..|--- .... ....|--- .... ....|--- .... ....
....|..|C-4 LF.F ....|--- .... ....|--- .... ....
....|..|--- .... ....|--- .... ....|--- .... ....
....|..|C-4 LF.F ....|G-5 2F.F ....|R-- .... ....
....|..|--- .... ....|--- .... ....|--- .... ....
....|..|C-4 LF.F ....|--- .... ....|--- .... ....
....|..|--- .... ....|--- .... ....|--- .... ....
....|..|C-4 LF.F ....|--- .... ....|--- .... ....
....|..|--- .... ....|--- .... ....|--- .... ....
....|..|C-4 LF.F ....|G-5 2F.A ....|R-- .... ....
....|..|--- .... ....|--- .... ....|--- .... ....
....|..|C-4 LF.F ....|R-- .... ....|--- .... ....
....|..|--- .... ....|--- .... ....|--- .... ....
....|..|C-4 LF.F ....|--- .... ....|--- .... ....
....|..|--- .... ....|--- .... ....|--- .... ....
....|..|C-4 LF.7 ....|G-5 2F.7 ....|R-- .... ....
....|..|--- .... ....|--- .... ....|--- .... ....
....|..|C-4 AF.F ....|R-- .... ....|--- .... ....
....|..|--- .... ....|--- .... ....|--- .... ....
....|..|C-4 LF.7 ....|G#5 2F.F ....|--- .... ....
....|..|--- .... ....|--- .... ....|--- .... ....
....|..|C-4 LF.7 ....|--- .... ....|--- .... ....
....|..|--- .... ....|--- .... ....|--- .... ....
....|..|C-4 AF.F ....|D#5 2F.F ....|--- .... ....
....|..|--- .... ....|--- .... ....|--- .... ....
....|..|C-4 LF.7 ....|G#5 2F.A ....|--- .... ....
....|..|--- .... ....|--- .... ....|--- .... ....
....|..|C-4 AF.F ....|D-5 2F.F ....|--- .... ....
....|..|--- .... ....|--- .... ....|--- .... ....
....|..|C-4 AF.F ....|D#5 2F.A ....|--- .... ....
....|..|--- .... ....|--- .... ....|--- .... ....
....|..|C-4 AF.F ....|G#5 2F.7 ....|--- .... ....
....|..|--- .... ....|--- .... ....|--- .... ....
....|..|C-4 AF.F ....|D-5 2F.A ....|--- .... ....
....|..|--- .... ....|--- .... ....|--- .... ....
....|..|C-4 AF.7 ....|D#5 2F.F ....|--- .... ....
....|..|--- .... ....|--- .... ....|--- .... ....
....|..|C-4 AF.A ....|F-5 2F.F ....|--- .... ....
....|..|--- .... ....|R-- .... ....|--- .... ....
....|..|C-4 AF.7 ....|G-5 2F.F ....|--- .... ....
....|..|--- .... ....|--- .... ....|--- .... ....
....|..|C-4 AF.F ....|R-- .... ....|--- .... ....
....|..|--- .... ....|--- .... ....|--- .... ....
....|..|C-4 AF.7 ....|F-5 2F.A ....|--- .... ....
....|..|--- .... ....|R-- .... ....|--- .... ....
....|..|C-4 AF.F ....|G#5 2F.F ....|--- .... ....
....|..|--- .... ....|--- .... ....|--- .... ....
....|..|C-4 AF.F ....|A#5 2F.F ....|--- .... ....
....|..|--- .... ....|--- .... ....|--- .... ....
....|..|--- .... ....|F-5 2F.7 ....|--- .... ....
....|..|--- .... ....|R-- .... ....|--- .... ....
....|..|C-4 AF.F ....|A-5 2F.F ....|--- .... ....
....|..|--- .... ....|--- .... ....|--- .... ....
....|..|C-4 AF.F ....|R-- .... ....|--- .... ....
....|..|--- .... ....|--- .... ....|--- .... ....
....|..|C-4 AF.F ....|G-5 2F.F ....|--- .... ....
....|..|--- .... ....|--- .... ....|--- .... ....
....|..|C-4 AF.F ....|G#5 2F.7 ....|--- .... ....
....|..|--- .... ....|--- .... ....|--- .... ....
....|..|C-4 AF.7 ....|F-5 2F.F ....|--- .... ....
....|..|--- .... ....|--- .... ....|--- .... ....
....|..|C-4 AF.A ....|G-5 2F.A ....|--- .... ....
....|..|--- .... ....|--- .... ....|--- .... ....

[Pattern27]
....|..|C-4 AF.7 ....|A-5 2F.7 ....|--- .... ....
....|..|--- .... ....|--- .... ....|--- .... ....
....|..|C-4 AF.F ....|F-5 2F.A ....|--- .... ....
....|..|--- .... ....|--- .... ....|--- .... ....
....|..|C-4 AF.7 ....|G#5 2F.F ....|--- .... ....
....|..|--- .... ....|--- .... ....|--- .... ....
....|..|C-4 AF.F ....|--- .... ....|--- .... ....
....|..|--- .... ....|--- .... ....|--- .... ....
....|..|C-4 AF.F ....|D#5 2F.F ....|--- .... ....
....|..|--- .... ....|--- .... ....|--- .... ....
....|..|--- .... ....|G#5 2F.A ....|--- .... ....
....|..|--- .... ....|--- .... ....|--- .... ....
....|..|C-4 AF.F ....|D-5 2F.F ....|--- .... ....
....|..|--- .... ....|--- .... ....|--- .... ....
....|..|C-4 AF.F ....|D#5 2F.A ....|--- .... ....
....|..|--- .... ....|--- .... ....|--- .... ....
....|..|C-4 AF.F ....|G#5 2F.7 ....|--- .... ....
....|..|--- .... ....|--- .... ....|--- .... ....
....|..|C-4 AF.F ....|D-5 2F.A ....|--- .... ....
....|..|--- .... ....|--- .... ....|--- .... ....
....|..|C-4 AF.7 ....|D#5 2F.F ....|--- .... ....
....|..|--- .... ....|--- .... ....|--- .... ....
....|..|C-4 AF.A ....|F-5 2F.F ....|--- .... ....
....|..|--- .... ....|--- .... ....|--- .... ....
....|..|C-4 AF.7 ....|G-5 2F.F ....|--- .... ....
....|..|--- .... ....|--- .... ....|--- .... ....
....|..|C-4 AF.F ....|D#5 2F.A ....|--- .... ....
....|..|--- .... ....|--- .... ....|--- .... ....
....|..|C-4 AF.7 ....|F-5 2F.A ....|--- .... ....
....|..|--- .... ....|--- .... ....|--- .... ....
....|..|C-4 AF.F ....|G-5 2F.A ....|--- .... ....
....|..|--- .... ....|--- .... ....|--- .... ....
....|..|C-4 AF.F ....|G-5 2F.F ....|--- .... ....
....|..|--- .... ....|--- .... ....|--- .... ....
....|..|--- .... ....|G#5 2F.F ....|--- .... ....
....|..|--- .... ....|--- .... ....|--- .... ....
....|..|C-4 AF.F ....|A#5 2F.F ....|--- .... ....
....|..|--- .... ....|--- .... ....|--- .... ....
....|..|C-4 AF.F ....|G-5 2F.A ....|--- .... ....
....|..|--- .... ....|--- .... ....|--- .... ....
....|..|C-4 AF.F ....|G#5 2F.A ....|--- .... ....
....|..|--- .... ....|--- .... ....|--- .... ....
....|..|C-4 AF.F ....|A#5 2F.A ....|--- .... ....
....|..|--- .... ....|--- .... ....|--- .... ....
....|..|C-4 AF.7 ....|G-5 2F.7 ....|--- .... ....
....|..|--- .... ....|--- .... ....|--- .... ....
....|..|C-4 AF.A ....|G#5 2F.7 ....|--- .... ....
....|..|--- .... ....|--- .... ....|--- .... ....
....|..|C-4 AF.7 ....|A#5 2F.7 ....|--- .... ....
....|..|--- .... ....|--- .... ....|--- .... ....
....|..|C-4 AF.F ....|R-- .... ....|--- .... ....
....|..|--- .... ....|--- .... ....|--- .... ....
....|..|C-4 AF.7 ....|--- .... ....|A#5 2F.F ....
....|..|--- .... ....|--- .... ....|--- .... ....
....|..|C-4 AF.F ....|--- .... ....|--- .... ....
....|..|--- .... ....|--- .... ....|--- .... ....
....|..|C-4 AF.F ....|R-- .... ....|G-5 2F.F ....
....|..|--- .... ....|--- .... ....|--- .... ....
....|..|--- .... ....|--- .... ....|R-- .... ....
....|..|--- .... ....|--- .... ....|--- .... ....
....|..|C-4 AF.F ....|--- .... ....|A-5 2F.F ....
....|..|--- .... ....|--- .... ....|--- .... ....
....|..|C-4 AF.F ....|--- .... ....|G-5 2F.A ....
....|..|--- .... ....|--- .... ....|--- .... ....

[Pattern28]
....|..|C-4 AF.F ....|--- .... ....|A#5 2F.7 ....
....|..|--- .... ....|--- .... ....|--- .... ....
....|..|C-4 AF.F ....|--- .... ....|A-5 2F.A ....
....|..|--- .... ....|--- .... ....|R-- .... ....
....|..|C-4 AF.7 ....|--- .... ....|A#5 2F.F ....
....|..|--- .... ....|--- .... ....|--- .... ....
....|..|C-4 AF.A ....|--- .... ....|C-6 2F.F ....
....|..|--- .... ....|--- .... ....|--- .... ....
....|..|C-4 AF.7 ....|--- .... ....|A#5 2F.F ....
....|..|--- .... ....|--- .... ....|R-- .... ....
....|..|C-4 AF.F ....|--- .... ....|A#5 2F.A ....
....|..|--- .... ....|--- .... ....|--- .... ....
....|..|C-4 AF.7 ....|--- .... ....|C-6 2F.A ....
....|..|--- .... ....|--- .... ....|--- .... ....
....|..|C-4 AF.F ....|--- .... ....|A#5 2F.A ....
....|..|--- .... ....|--- .... ....|R-- .... ....
....|..|C-4 AF.F ....|--- .... ....|F-5 2F.F ....
....|..|--- .... ....|--- .... ....|--- .... ....
....|..|--- .... ....|--- .... ....|C-6 2F.7 ....
....|..|--- .... ....|--- .... ....|--- .... ....
....|..|C-4 AF.F ....|--- .... ....|G-5 2F.F ....
....|..|--- .... ....|--- .... ....|--- .... ....
....|..|C-4 AF.F ....|--- .... ....|F-5 2F.A ....
....|..|--- .... ....|--- .... ....|--- .... ....
....|..|C-4 AF.F ....|--- .... ....|R-- .... ....
....|..|--- .... ....|--- .... ....|--- .... ....
....|..|C-4 AF.F ....|--- .... ....|G-5 2F.A ....
....|..|--- .... ....|--- .... ....|--- .... ....
....|..|C-4 AF.7 ....|--- .... ....|F-5 2F.7 ....
....|..|--- .... ....|--- .... ....|--- .... ....
....|..|C-4 AF.A ....|--- .... ....|R-- .... ....
....|..|--- .... ....|--- .... ....|--- .... ....
....|..|C-4 AF.7 ....|D#5 2F.F ....|D#5 2F.F ....
....|..|--- .... ....|--- .... ....|--- .... ....
....|..|C-4 AF.F ....|D-5 2F.F ....|D-5 2F.F ....
....|..|--- .... ....|--- .... ....|--- .... ....
....|..|C-4 AF.7 ....|D#5 2F.F ....|D#5 2F.F ....
....|..|--- .... ....|--- .... ....|--- .... ....
....|..|C-4 AF.F ....|F-5 2F.F ....|F-5 2F.F ....
....|..|--- .... ....|--- .... ....|--- .... ....
....|..|C-4 AF.F ....|G-5 2F.F ....|G-5 2F.F ....
....|..|--- .... ....|--- .... ....|--- .... ....
....|..|--- .... ....|R-- .... ....|R-- .... ....
....|..|--- .... ....|--- .... ....|--- .... ....
....|..|C-4 AF.F ....|F-5 2F.F ....|F-5 2F.F ....
....|..|--- .... ....|--- .... ....|--- .... ....
....|..|C-4 AF.F ....|D-5 2F.7 ....|D-5 2F.7 ....
....|..|--- .... ....|--- .... ....|--- .... ....
....|..|C-4 AF.F ....|D#5 2F.7 ....|D#5 2F.7 ....
....|..|--- .... ....|--- .... ....|--- .... ....
....|..|C-4 AF.F ....|C-6 2F.F ....|C-6 2F.F ....
....|..|--- .... ....|--- .... ....|--- .... ....
....|..|C-4 AF.7 ....|F-5 2F.F ....|F-5 2F.F ....
....|..|--- .... ....|--- .... ....|--- .... ....
....|..|C-4 AF.A ....|R-- .... ....|R-- .... ....
....|..|--- .... ....|--- .... ....|--- .... ....
....|..|C-4 AF.F ....|D#5 2F.F ....|D#5 2F.F ....
....|..|--- .... ....|--- .... ....|--- .... ....
....|..|C-4 AF.7 ....|D-5 2F.F ....|D-5 2F.F ....
....|..|--- .... ....|--- .... ....|--- .... ....
....|..|C-4 AF.7 ....|D#5 2F.F ....|D#5 2F.F ....
....|..|--- .... ....|--- .... ....|--- .... ....
....|..|C-4 LF.F ....|F-5 2F.F ....|A-5 2F.F ....
....|..|--- .... ....|--- .... ....|--- .... ....

[Pattern29]
....|..|C-4 LF.F ....|G-5 2F.F ....|A#5 2F.F ....
....|..|--- .... ....|--- .... ....|--- .... ....
....|..|--- .... ....|R-- .... ....|R-- .... ....
....|..|--- .... ....|--- .... ....|--- .... ....
....|..|D#4 9F.F ....|F-5 2F.F ....|A-5 2F.F ....
....|..|--- .... ....|--- .... ....|--- .... ....
....|..|D#4 9F.F ....|D-5 2F.7 ....|D-5 2F.7 ....
....|..|--- .... ....|--- .... ....|--- .... ....
....|..|R-- .... ....|G-5 2F.F ....|A#5 2F.F ....
....|..|--- .... ....|--- .... ....|--- .... ....
....|..|C-4 9F.F ....|F-5 2F.7 ....|A-5 2F.7 ....
....|..|--- .... ....|--- .... ....|--- .... ....
....|..|C-4 9F.F ....|A-5 2F.F ....|C-6 2F.F ....
....|..|--- .... ....|--- .... ....|--- .... ....
....|..|R-- .... ....|R-- .... ....|R-- .... ....
....|..|--- .... ....|--- .... ....|--- .... ....
....|..|C-4 AF.F ....|A#5 2F.F ....|A#5 2F.F ....
....|..|--- .... ....|--- .... ....|--- .... ....
....|..|D#4 9F.7 ....|A-5 2F.A ....|C-6 2F.A ....
....|..|--- .... ....|--- .... ....|--- .... ....
....|..|R-- .... ....|A#5 2F.F ....|A#5 2F.F ....
....|..|--- .... ....|--- .... ....|--- .... ....
....|..|C-4 AF.F ....|C-6 2F.F ....|C-6 2F.F ....
....|..|--- .... ....|--- .... ....|--- .... ....
....|..|C-4 9F.7 ....|A-5 2F.7 ....|C-6 2F.7 ....
....|..|--- .... ....|--- .... ....|--- .... ....
....|..|C-4 AF.F ....|A#5 2F.F ....|A#5 2F.F ....
....|..|--- .... ....|--- .... ....|--- .... ....
....|..|C-4 LF.F ....|A#5 2F.F ....|A#5 2F.F ....
....|..|--- .... ....|--- .... ....|--- .... ....
....|..|C-4 LF.F ....|--- .... ....|--- .... ....
....|..|--- .... ....|--- .... ....|--- .... ....
....|..|C-4 LF.F ....|F-5 2F.F ....|F-5 2F.F ....
....|..|--- .... ....|--- .... ....|--- .... ....
....|..|C-4 LF.F ....|C-6 2F.7 ....|C-6 2F.7 ....
....|..|--- .... ....|--- .... ....|--- .... ....
....|..|D#4 9F.F ....|A#5 2F.F ....|A#5 2F.F ....
....|..|--- .... ....|--- .... ....|--- .... ....
....|..|C-4 LF.F ....|A#5 2F.7 ....|A#5 2F.7 ....
....|..|--- .... ....|--- .... ....|--- .... ....
....|..|C-4 AF.F ....|D#6 2F.F ....|D#6 2F.F ....
....|..|--- .... ....|--- .... ....|--- .... ....
....|..|C-4 LF.7 ....|C#6 2F.F ....|C#6 2F.F ....
....|..|--- .... ....|--- .... ....|--- .... ....
....|..|C-4 AF.F ....|F-5 2F.7 ....|F-5 2F.7 ....
....|..|--- .... ....|R-- .... ....|R-- .... ....
....|..|C-4 AF.F ....|C-6 2F.F ....|C-6 2F.F ....
....|..|--- .... ....|--- .... ....|--- .... ....
....|..|C-4 AF.F ....|A#5 2F.7 ....|A#5 2F.7 ....
....|..|--- .... ....|--- .... ....|--- .... ....
....|..|C-4 AF.F ....|A#5 2F.F ....|A#5 2F.F ....
....|..|--- .... ....|R-- .... ....|R-- .... ....
....|..|C-4 LF.F ....|F-5 2F.F ....|F-5 2F.F ....
....|..|C-4 LF.F ....|--- .... ....|--- .... ....
....|..|C-4 LF.F ....|C#6 2F.7 ....|C#6 2F.7 ....
....|..|C-4 LF.F ....|--- .... ....|--- .... ....
....|..|C-4 LF.F ....|C-6 2F.F ....|C-6 2F.F ....
....|..|C-4 LF.F ....|R-- .... ....|R-- .... ....
....|..|C-4 LF.F ....|C-6 2F.7 ....|C-6 2F.7 ....
....|..|C-4 LF.F ....|--- .... ....|--- .... ....
....|..|D#4 9F.F ....|R-- .... ....|R-- .... ....
....|..|C-4 LF.A ....|--- .... ....|--- .... ....
....|..|C-4 9F.F ....|A#5 2F.7 ....|A#5 2F.7 ....
....|..|C-4 LF.A ....|--- .... ....|--- .... ....

[Pattern30]
....|..|C-4 AF.F ....|A#5 2F.F ....|A#5 2F.F ....
....|..|C-4 LF.7 ....|--- .... ....|--- .... ....
....|..|C-4 AF.F ....|R-- .... ....|R-- .... ....
....|..|C-4 LF.7 ....|R-- .... ....|R-- .... ....
....|..|C-4 AF.F ....|A#5 2F.F ....|A#5 2F.F ....
....|..|C-4 LF.7 ....|--- .... ....|--- .... ....
....|..|C-4 AF.F ....|C-6 2F.F ....|C-6 2F.F ....
....|..|C-4 LF.7 ....|--- .... ....|--- .... ....
....|..|C-4 AF.F ....|R-- .... ....|R-- .... ....
....|..|--- .... ....|R-- .... ....|R-- .... ....
....|..|C-4 AF.F ....|A#5 2F.F ....|A#5 2F.F ....
....|..|--- .... ....|--- .... ....|--- .... ....
....|..|C-4 LF.F ....|A#5 2F.F ....|A#5 2F.F ....
....|..|--- .... ....|--- .... ....|--- .... ....
....|..|C-4 LF.F ....|--- .... ....|--- .... ....
....|..|--- .... ....|R-- .... ....|R-- .... ....
....|..|C-4 LF.F ....|C-6 2F.F ....|C-6 2F.F ....
....|..|--- .... ....|--- .... ....|--- .... ....
....|..|D#4 9F.F ....|C-6 2F.7 ....|C-6 2F.7 ....
....|..|--- .... ....|--- .... ....|--- .... ....
....|..|C-4 LF.F ....|A#5 2F.F ....|A#5 2F.F ....
....|..|--- .... ....|--- .... ....|--- .... ....
....|..|C-4 CF.F ....|A#5 2F.7 ....|A#5 2F.7 ....
....|..|--- .... ....|--- .... ....|--- .... ....
....|..|C-4 AF.F ....|C#6 2F.F ....|C#6 2F.F ....
....|..|C-4 9F.F ....|--- .... ....|--- .... ....
....|..|C-4 9F.F ....|A#5 2F.A ....|A#5 2F.A ....
....|..|C-4 9F.F ....|--- .... ....|--- .... ....
....|..|D#4 9F.F ....|A#5 2F.F ....|A#5 2F.F ....
....|..|C-3 9F.F ....|--- .... ....|--- .... ....
....|..|C-3 9F.F ....|C#6 2F.A ....|C#6 2F.A ....
....|..|C-4 9F.F ....|--- .... ....|--- .... ....
....|..|C-4 9F.F ....|A#5 2F.7 ....|A#5 2F.7 ....
....|..|D#4 9F.F ....|--- .... ....|--- .... ....
....|..|D#4 9F.F ....|A#5 2F.A ....|A#5 2F.A ....
....|..|C-4 LF.F ....|--- .... ....|--- .... ....
....|..|D#4 9F.F ....|C#6 2F.7 ....|C#6 2F.7 ....
....|..|C-4 9F.F ....|--- .... ....|--- .... ....
....|..|C-4 9F.F ....|--- .... ....|--- .... ....
....|..|C-4 9F.F ....|--- .... ....|--- .... ....
....|..|D#4 9F.F ....|A#5 2F.7 ....|A#5 2F.7 ....
....|..|C-4 9F.F ....|--- .... ....|--- .... ....
....|..|C-3 9F.7 ....|R-- .... ....|R-- .... ....
....|..|C-4 9F.F ....|--- .... ....|--- .... ....
....|..|D#4 9F.F ....|--- .... ....|--- .... ....
....|..|C-4 9F.F ....|--- .... ....|--- .... ....
....|..|D#4 9F.7 ....|--- .... ....|--- .... ....
....|..|C-4 9F.F ....|--- .... ....|--- .... ....
....|..|C-4 AF.F ....|A#5 2F.F ....|A#5 2F.F ....
....|..|C-4 9F.7 ....|--- .... ....|--- .... ....
....|..|C-4 AF.F ....|--- .... ....|--- .... ....
....|..|C-4 9F.7 ....|--- .... ....|--- .... ....
....|..|C-4 AF.F ....|A#5 2F.F ....|A#5 2F.F ....
....|..|C-4 9F.7 ....|--- .... ....|--- .... ....
....|..|C-4 AF.F ....|C-6 2F.F ....|C-6 2F.F ....
....|..|C-4 9F.7 ....|--- .... ....|--- .... ....
....|..|C-4 AF.F ....|--- .... ....|--- .... ....
....|..|C-4 9F.7 ....|--- .... ....|--- .... ....
....|..|C-4 AF.F ....|A#5 2F.F ....|A#5 2F.F ....
....|..|C-4 9F.7 ....|--- .... ....|--- .... ....
....|..|C-4 LF.F ....|A#5 2F.F ....|A#5 2F.F ....
....|..|--- .... ....|--- .... ....|--- .... ....
....|..|C-4 LF.F ....|--- .... ....|--- .... ....
....|..|--- .... ....|--- .... ....|--- .... ....

[Pattern31]
....|..|C-4 LF.F ....|F-5 2F.F ....|F-5 2F.F ....
....|..|--- .... ....|--- .... ....|--- .... ....
....|..|C-4 LF.F ....|C-6 2F.7 ....|C-6 2F.7 ....
....|..|--- .... ....|--- .... ....|--- .... ....
....|..|D#4 9F.F ....|A#5 2F.F ....|A#5 2F.F ....
....|..|--- .... ....|--- .... ....|--- .... ....
....|..|C-4 LF.F ....|A#5 2F.7 ....|A#5 2F.7 ....
....|..|--- .... ....|--- .... ....|--- .... ....
....|..|C-4 AF.F ....|D-6 2F.F ....|D-6 2F.F ....
....|..|--- .... ....|--- .... ....|--- .... ....
....|..|C-4 AF.F ....|C-6 2F.F ....|C-6 2F.F ....
....|..|--- .... ....|--- .... ....|--- .... ....
....|..|C-4 AF.F ....|F-5 2F.7 ....|F-5 2F.7 ....
....|..|--- .... ....|--- .... ....|--- .... ....
....|..|C-4 AF.F ....|A#5 2F.F ....|A#5 2F.F ....
....|..|--- .... ....|--- .... ....|--- .... ....
....|..|C-4 AF.F ....|A#5 2F.7 ....|A#5 2F.7 ....
....|..|--- .... ....|--- .... ....|--- .... ....
....|..|C-4 AF.F ....|A-5 2F.F ....|A-5 2F.F ....
....|..|--- .... ....|--- .... ....|--- .... ....
....|..|C-4 LF.F ....|G-5 2F.F ....|G-5 2F.F ....
....|..|C-4 LF.F ....|--- .... ....|--- .... ....
....|..|C-4 LF.F ....|C-6 2F.7 ....|C-6 2F.7 ....
....|..|C-4 LF.F ....|--- .... ....|--- .... ....
....|..|C-4 LF.F ....|A-5 2F.A ....|A-5 2F.A ....
....|..|C-4 LF.F ....|--- .... ....|--- .... ....
....|..|C-4 LF.F ....|A#5 2F.7 ....|A#5 2F.7 ....
....|..|C-4 LF.F ....|--- .... ....|--- .... ....
....|..|D#4 9F.F ....|G-5 2F.F ....|G-5 2F.F ....
....|..|C-4 LF.A ....|--- .... ....|--- .... ....
....|..|C-4 9F.F ....|A-5 2F.F ....|A-5 2F.F ....
....|..|C-4 LF.A ....|--- .... ....|--- .... ....
....|..|C-4 AF.F ....|A#5 2F.F ....|A#5 2F.F ....
....|..|C-4 LF.7 ....|--- .... ....|--- .... ....
....|..|C-4 AF.F ....|R-- .... ....|R-- .... ....
....|..|C-4 LF.7 ....|--- .... ....|--- .... ....
....|..|C-4 AF.F ....|F-5 2F.F ....|F-5 2F.F ....
....|..|C-4 LF.7 ....|--- .... ....|--- .... ....
....|..|C-4 AF.F ....|A#5 2F.F ....|A#5 2F.F ....
....|..|C-4 LF.7 ....|--- .... ....|--- .... ....
....|..|C-4 AF.F ....|G-5 2F.7 ....|G-5 2F.7 ....
....|..|--- .... ....|--- .... ....|--- .... ....
....|..|C-4 AF.F ....|F-5 2F.F ....|F-5 2F.F ....
....|..|--- .... ....|--- .... ....|--- .... ....
....|..|C-4 LF.F ....|A#5 2F.F ....|A#5 2F.F ....
....|..|--- .... ....|--- .... ....|--- .... ....
....|..|C-4 LF.F ....|--- .... ....|--- .... ....
....|..|--- .... ....|--- .... ....|--- .... ....
....|..|C-4 LF.F ....|F-5 2F.7 ....|F-5 2F.7 ....
....|..|--- .... ....|--- .... ....|--- .... ....
....|..|C-4 LF.F ....|A#5 2F.7 ....|A#5 2F.7 ....
....|..|--- .... ....|--- .... ....|--- .... ....
....|..|C-4 LF.F ....|R-- .... ....|R-- .... ....
....|..|C-4 LF.F ....|--- .... ....|--- .... ....
....|..|C-4 LF.F ....|F-5 2F.7 ....|F-5 2F.7 ....
....|..|C-4 LF.F ....|--- .... ....|--- .... ....
....|..|C-4 AF.F ....|A#5 2F.7 ....|A#5 2F.7 ....
....|..|--- .... ....|--- .... ....|--- .... ....
....|..|C-4 AF.F ....|R-- .... ....|R-- .... ....
....|..|C-4 LF.A ....|--- .... ....|--- .... ....
....|..|C-4 AF.F ....|A#5 2F.F ....|A#5 2F.F ....
....|..|C-4 LF.A ....|--- .... ....|--- .... ....
....|..|C-4 AF.F ....|C-6 2F.F ....|C-6 2F.F ....
....|..|--- .... ....|--- .... ....|--- .... ....

[Pattern32]
....|..|C-4 AF.F ....|A#5 2F.F ....|A#5 2F.F ....
....|..|C-4 LF.7 ....|--- .... ....|--- .... ....
....|..|C-4 AF.F ....|A#5 2F.A ....|A#5 2F.A ....
....|..|C-4 LF.7 ....|--- .... ....|--- .... ....
....|..|C-4 LF.F ....|F-5 2F.F ....|F-5 2F.F ....
....|..|--- .... ....|--- .... ....|--- .... ....
....|..|C-4 LF.F ....|R-- .... ....|R-- .... ....
....|..|C-4 LF.F ....|--- .... ....|--- .... ....
....|..|C-4 LF.F ....|C-6 2F.F ....|C-6 2F.F ....
....|..|--- .... ....|--- .... ....|--- .... ....
....|..|C-4 LF.F ....|C-6 2F.7 ....|C-6 2F.7 ....
....|..|--- .... ....|--- .... ....|--- .... ....
....|..|C-4 LF.F ....|A#5 2F.7 ....|A#5 2F.7 ....
....|..|C-4 LF.A ....|--- .... ....|--- .... ....
....|..|C-4 LF.F ....|C-6 2F.A ....|C-6 2F.A ....
....|..|--- .... ....|--- .... ....|--- .... ....
....|..|C-4 AF.F ....|A#5 2F.F ....|A#5 2F.F ....
....|..|--- .... ....|--- .... ....|--- .... ....
....|..|C-4 LF.7 ....|R-- .... ....|R-- .... ....
....|..|C-4 LF.7 ....|--- .... ....|--- .... ....
....|..|C-4 LF.7 ....|A#5 2F.F ....|A#5 2F.F ....
....|..|--- .... ....|--- .... ....|--- .... ....
....|..|C-4 AF.F ....|C-6 2F.F ....|C-6 2F.F ....
....|..|--- .... ....|--- .... ....|--- .... ....
....|..|C-4 LF.7 ....|--- .... ....|--- .... ....
....|..|--- .... ....|--- .... ....|--- .... ....
....|..|C-4 AF.F ....|A#5 2F.F ....|A#5 2F.F ....
....|..|--- .... ....|--- .... ....|--- .... ....
....|..|C-4 LF.F ....|A#5 2F.F ....|A#5 2F.F ....
....|..|--- .... ....|--- .... ....|--- .... ....
....|..|C-4 LF.F ....|--- .... ....|--- .... ....
....|..|--- .... ....|--- .... ....|--- .... ....
....|..|C-4 LF.F ....|F-5 2F.F ....|F-5 2F.F ....
....|..|--- .... ....|--- .... ....|--- .... ....
....|..|D#4 9F.F ....|C-6 2F.7 ....|C-6 2F.7 ....
....|..|--- .... ....|--- .... ....|--- .... ....
....|..|C-4 LF.F ....|A#5 2F.F ....|A#5 2F.F ....
....|..|--- .... ....|--- .... ....|--- .... ....
....|..|C-4 CF.F ....|A#5 2F.7 ....|A#5 2F.7 ....
....|..|--- .... ....|--- .... ....|--- .... ....
....|..|C-4 AF.F ....|D#6 2F.F ....|D#6 2F.F ....
....|..|--- .... ....|--- .... ....|--- .... ....
....|..|C-4 LF.7 ....|C#6 2F.F ....|C#6 2F.F ....
....|..|--- .... ....|--- .... ....|--- .... ....
....|..|C-4 AF.F ....|F-5 2F.7 ....|F-5 2F.7 ....
....|..|--- .... ....|R-- .... ....|R-- .... ....
....|..|C-4 AF.F ....|C-6 2F.F ....|C-6 2F.F ....
....|..|--- .... ....|--- .... ....|--- .... ....
....|..|C-4 AF.F ....|A#5 2F.7 ....|A#5 2F.7 ....
....|..|--- .... ....|--- .... ....|--- .... ....
....|..|C-4 AF.F ....|A#5 2F.F ....|A#5 2F.F ....
....|..|--- .... ....|R-- .... ....|R-- .... ....
....|..|C-4 LF.F ....|F-5 2F.F ....|F-5 2F.F ....
....|..|C-4 LF.F ....|--- .... ....|--- .... ....
....|..|C-4 LF.F ....|C#6 2F.7 ....|C#6 2F.7 ....
....|..|C-4 LF.F ....|--- .... ....|--- .... ....
....|..|C-4 LF.F ....|C-6 2F.F ....|C-6 2F.F ....
....|..|C-4 LF.F ....|R-- .... ....|R-- .... ....
....|..|C-4 LF.F ....|C-6 2F.7 ....|C-6 2F.7 ....
....|..|C-4 LF.F ....|--- .... ....|--- .... ....
....|..|C-4 LF.F ....|R-- .... ....|R-- .... ....
....|..|C-4 LF.A ....|--- .... ....|--- .... ....
....|..|C-4 LF.F ....|A#5 2F.7 ....|A#5 2F.7 ....
....|..|C-4 LF.A ....|--- .... ....|--- .... ....

[Pattern33]
....|..|C-4 AF.F ....|A#5 2F.F ....|A#5 2F.F ....
....|..|C-4 LF.7 ....|--- .... ....|--- .... ....
....|..|C-4 AF.F ....|R-- .... ....|R-- .... ....
....|..|C-4 LF.7 ....|R-- .... ....|R-- .... ....
....|..|C-4 AF.F ....|A#5 2F.F ....|A#5 2F.F ....
....|..|C-4 LF.7 ....|--- .... ....|--- .... ....
....|..|C-4 AF.F ....|C-6 2F.F ....|C-6 2F.F ....
....|..|C-4 LF.7 ....|--- .... ....|--- .... ....
....|..|C-4 AF.F ....|R-- .... ....|R-- .... ....
....|..|--- .... ....|R-- .... ....|R-- .... ....
....|..|C-4 AF.F ....|A#5 2F.F ....|A#5 2F.F ....
....|..|--- .... ....|--- .... ....|--- .... ....
....|..|C-4 LF.F ....|A#5 2F.F ....|A#5 2F.F ....
....|..|--- .... ....|--- .... ....|--- .... ....
....|..|C-4 LF.F ....|--- .... ....|--- .... ....
....|..|--- .... ....|R-- .... ....|R-- .... ....
....|..|C-4 LF.F ....|C-6 2F.F ....|C-6 2F.F ....
....|..|--- .... ....|--- .... ....|--- .... ....
....|..|C-4 LF.F ....|C-6 2F.7 ....|C-6 2F.7 ....
....|..|--- .... ....|--- .... ....|--- .... ....
....|..|D#4 9F.F ....|A#5 2F.F ....|A#5 2F.F ....
....|..|--- .... ....|--- .... ....|--- .... ....
....|..|C-4 9F.F ....|A#5 2F.7 ....|A#5 2F.7 ....
....|..|--- .... ....|--- .... ....|--- .... ....
....|..|C-4 AF.F ....|C#6 2F.F ....|C#6 2F.F ....
....|..|--- .... ....|--- .... ....|--- .... ....
....|..|C-4 AF.F ....|A#5 2F.A ....|A#5 2F.A ....
....|..|--- .... ....|--- .... ....|--- .... ....
....|..|C-4 AF.F ....|A#5 2F.F ....|A#5 2F.F ....
....|..|--- .... ....|--- .... ....|--- .... ....
....|..|C-4 AF.F ....|C#6 2F.A ....|C#6 2F.A ....
....|..|--- .... ....|--- .... ....|--- .... ....
....|..|D#4 9F.7 ....|A#5 2F.7 ....|A#5 2F.7 ....
....|..|--- .... ....|--- .... ....|--- .... ....
....|..|C-4 AF.F ....|A#5 2F.A ....|A#5 2F.A ....
....|..|--- .... ....|--- .... ....|--- .... ....
....|..|C-4 LF.F ....|C#6 2F.7 ....|C#6 2F.7 ....
....|..|--- .... ....|--- .... ....|--- .... ....
....|..|C-4 LF.F ....|--- .... ....|--- .... ....
....|..|--- .... ....|--- .... ....|--- .... ....
....|..|C-4 LF.F ....|A#5 2F.7 ....|A#5 2F.7 ....
....|..|--- .... ....|--- .... ....|--- .... ....
....|..|C-4 AF.7 ....|R-- .... ....|R-- .... ....
....|..|--- .... ....|--- .... ....|--- .... ....
....|..|C-4 LF.F ....|--- .... ....|--- .... ....
....|..|--- .... ....|--- .... ....|--- .... ....
....|..|C-4 AF.7 ....|--- .... ....|--- .... ....
....|..|--- .... ....|--- .... ....|--- .... ....
....|..|C-4 AF.F ....|A#5 2F.F ....|A#5 2F.F ....
....|..|--- .... ....|--- .... ....|--- .... ....
....|..|C-4 LF.7 ....|--- .... ....|--- .... ....
....|..|--- .... ....|--- .... ....|--- .... ....
....|..|C-4 LF.7 ....|A#5 2F.F ....|A#5 2F.F ....
....|..|--- .... ....|--- .... ....|--- .... ....
....|..|C-4 AF.F ....|C-6 2F.F ....|C-6 2F.F ....
....|..|--- .... ....|--- .... ....|--- .... ....
....|..|C-4 LF.7 ....|--- .... ....|--- .... ....
....|..|--- .... ....|--- .... ....|--- .... ....
....|..|C-4 AF.F ....|A#5 2F.F ....|A#5 2F.F ....
....|..|--- .... ....|--- .... ....|--- .... ....
....|..|C-4 LF.F ....|A#5 2F.F ....|A#5 2F.F ....
....|..|--- .... ....|--- .... ....|--- .... ....
....|..|C-4 LF.F ....|--- .... ....|--- .... ....
....|..|--- .... ....|--- .... ....|--- .... ....

[Pattern34]
....|..|C-4 LF.F ....|F-5 2F.F ....|F-5 2F.F ....
....|..|--- .... ....|--- .... ....|--- .... ....
....|..|C-4 LF.F ....|C-6 2F.7 ....|C-6 2F.7 ....
....|..|--- .... ....|--- .... ....|--- .... ....
....|..|C-4 LF.F ....|A#5 2F.F ....|A#5 2F.F ....
....|..|--- .... ....|--- .... ....|--- .... ....
....|..|C-4 LF.F ....|A#5 2F.7 ....|A#5 2F.7 ....
....|..|--- .... ....|--- .... ....|--- .... ....
....|..|C-4 AF.F ....|D-6 2F.F ....|D-6 2F.F ....
....|..|--- .... ....|--- .... ....|--- .... ....
....|..|C-4 AF.F ....|C-6 2F.F ....|C-6 2F.F ....
....|..|--- .... ....|--- .... ....|--- .... ....
....|..|C-4 AF.F ....|F-5 2F.7 ....|F-5 2F.7 ....
....|..|--- .... ....|--- .... ....|--- .... ....
....|..|C-4 AF.F ....|A#5 2F.F ....|A#5 2F.F ....
....|..|--- .... ....|--- .... ....|--- .... ....
....|..|C-4 AF.F ....|A#5 2F.7 ....|A#5 2F.7 ....
....|..|--- .... ....|--- .... ....|--- .... ....
....|..|C-4 AF.F ....|A-5 2F.F ....|A-5 2F.F ....
....|..|--- .... ....|--- .... ....|--- .... ....
....|..|C-4 LF.F ....|G-5 2F.F ....|G-5 2F.F ....
....|..|--- .... ....|--- .... ....|--- .... ....
....|..|C-4 LF.F ....|C-6 2F.7 ....|C-6 2F.7 ....
....|..|--- .... ....|--- .... ....|--- .... ....
....|..|C-4 LF.F ....|A-5 2F.A ....|A-5 2F.A ....
....|..|--- .... ....|--- .... ....|--- .... ....
....|..|C-4 LF.F ....|A#5 2F.7 ....|A#5 2F.7 ....
....|..|--- .... ....|--- .... ....|--- .... ....
....|..|C-4 9F.F ....|G-5 2F.F ....|G-5 2F.F ....
....|..|--- .... ....|--- .... ....|--- .... ....
....|..|C-4 LF.F ....|A-5 2F.F ....|A-5 2F.F ....
....|..|--- .... ....|--- .... ....|--- .... ....
....|..|C-4 AF.F ....|A#5 2F.F ....|A#5 2F.F ....
....|..|--- .... ....|--- .... ....|--- .... ....
....|..|C-4 AF.F ....|R-- .... ....|R-- .... ....
....|..|--- .... ....|--- .... ....|--- .... ....
....|..|C-4 AF.F ....|F-5 2F.F ....|F-5 2F.F ....
....|..|--- .... ....|--- .... ....|--- .... ....
....|..|C-4 AF.F ....|A#5 2F.F ....|A#5 2F.F ....
....|..|--- .... ....|--- .... ....|--- .... ....
....|..|C-4 AF.F ....|G-5 2F.7 ....|G-5 2F.7 ....
....|..|--- .... ....|--- .... ....|--- .... ....
....|..|C-4 AF.F ....|F-5 2F.F ....|F-5 2F.F ....
....|..|--- .... ....|--- .... ....|--- .... ....
....|..|C-4 LF.F ....|A#5 2F.F ....|A#5 2F.F ....
....|..|--- .... ....|--- .... ....|--- .... ....
....|..|C-4 LF.F ....|--- .... ....|--- .... ....
....|..|--- .... ....|--- .... ....|--- .... ....
....|..|C-4 LF.F ....|F-5 2F.7 ....|F-5 2F.7 ....
....|..|--- .... ....|--- .... ....|--- .... ....
....|..|C-4 LF.F ....|A#5 2F.7 ....|A#5 2F.7 ....
....|..|--- .... ....|--- .... ....|--- .... ....
....|..|C-4 9F.F ....|--- .... ....|--- .... ....
....|..|--- .... ....|--- .... ....|--- .... ....
....|..|C-4 LF.F ....|F-5 2F.7 ....|F-5 2F.7 ....
....|..|--- .... ....|--- .... ....|--- .... ....
....|..|C-4 AF.F ....|A#5 2F.7 ....|A#5 2F.7 ....
....|..|--- .... ....|--- .... ....|--- .... ....
....|..|C-4 AF.F ....|--- .... ....|--- .... ....
....|..|--- .... ....|--- .... ....|--- .... ....
....|..|C-4 LF.F ....|A#5 2F.F ....|A#5 2F.F ....
....|..|--- .... ....|--- .... ....|--- .... ....
....|..|C-4 AF.F ....|C-6 2F.F ....|C-6 2F.F ....
....|..|--- .... ....|--- .... ....|--- .... ....

[Pattern35]
....|..|C-4 AF.F ....|A#5 2F.F ....|A#5 2F.F ....
....|..|--- .... ....|--- .... ....|--- .... ....
....|..|C-4 LF.F ....|R-- .... ....|R-- .... ....
....|..|--- .... ....|--- .... ....|--- .... ....
....|..|C-4 AF.F ....|C#6 2F.F ....|C#6 2F.F ....
....|..|--- .... ....|--- .... ....|--- .... ....
....|..|C-4 LF.F ....|A#5 2F.A ....|A#5 2F.A ....
....|..|C-4 LF.F ....|--- .... ....|--- .... ....
....|..|C-4 AF.F ....|A#5 2F.F ....|A#5 2F.F ....
....|..|--- .... ....|--- .... ....|--- .... ....
....|..|C-4 LF.F ....|C-6 2F.7 ....|C-6 2F.7 ....
....|..|C-4 LF.F ....|--- .... ....|--- .... ....
....|..|C-4 AF.F ....|A#5 2F.7 ....|A#5 2F.7 ....
....|..|C-4 AF.F ....|R-- .... ....|R-- .... ....
....|..|C-4 LF.F ....|F-5 2F.F ....|F-5 2F.F ....
....|..|C-4 LF.F ....|--- .... ....|--- .... ....
....|..|C-4 AF.F ....|A#5 2F.F ....|A#5 2F.F ....
....|..|C-4 LF.A ....|--- .... ....|--- .... ....
....|..|C-4 LF.7 ....|--- .... ....|--- .... ....
....|..|C-4 LF.7 ....|R-- .... ....|R-- .... ....
....|..|C-4 AF.F ....|F-5 2F.F ....|F-5 2F.F ....
....|..|C-4 LF.A ....|--- .... ....|--- .... ....
....|..|C-4 AF.F ....|A#5 2F.F ....|A#5 2F.F ....
....|..|C-4 LF.7 ....|--- .... ....|--- .... ....
....|..|C-4 AF.F ....|--- .... ....|--- .... ....
....|..|C-4 AF.7 ....|R-- .... ....|R-- .... ....
....|..|C-4 AF.F ....|F-5 2F.F ....|F-5 2F.F ....
....|..|C-4 LF.7 ....|--- .... ....|--- .... ....
....|..|C-4 LF.F ....|A#5 2F.F ....|A#5 2F.F ....
....|..|--- .... ....|--- .... ....|--- .... ....
....|..|C-4 LF.F ....|--- .... ....|--- .... ....
....|..|--- .... ....|--- .... ....|--- .... ....
....|..|C-4 LF.F ....|F-5 2F.7 ....|F-5 2F.7 ....
....|..|--- .... ....|--- .... ....|--- .... ....
....|..|C-4 LF.F ....|A#5 2F.7 ....|A#5 2F.7 ....
....|..|--- .... ....|--- .... ....|--- .... ....
....|..|C-4 9F.F ....|--- .... ....|--- .... ....
....|..|--- .... ....|--- .... ....|--- .... ....
....|..|C-4 LF.F ....|F-5 2F.7 ....|F-5 2F.7 ....
....|..|--- .... ....|--- .... ....|--- .... ....
....|..|C-4 AF.F ....|A#5 2F.7 ....|A#5 2F.7 ....
....|..|--- .... ....|--- .... ....|--- .... ....
....|..|C-4 AF.F ....|--- .... ....|--- .... ....
....|..|--- .... ....|--- .... ....|--- .... ....
....|..|C-4 AF.F ....|A#5 2F.F ....|A#5 2F.F ....
....|..|--- .... ....|--- .... ....|--- .... ....
....|..|C-4 AF.F ....|C-6 2F.F ....|C-6 2F.F ....
....|..|--- .... ....|--- .... ....|--- .... ....
....|..|C-4 AF.F ....|A#5 2F.F ....|A#5 2F.F ....
....|..|--- .... ....|--- .... ....|--- .... ....
....|..|C-4 AF.F ....|A#5 2F.A ....|A#5 2F.A ....
....|..|--- .... ....|--- .... ....|--- .... ....
....|..|C-4 LF.F ....|C-6 2F.F ....|C-6 2F.F ....
....|..|--- .... ....|--- .... ....|--- .... ....
....|..|C-4 LF.F ....|R-- .... ....|R-- .... ....
....|..|--- .... ....|--- .... ....|--- .... ....
....|..|D#4 9F.F ....|F-5 2F.F ....|F-5 2F.F ....
....|..|--- .... ....|--- .... ....|--- .... ....
....|..|C-4 LF.F ....|G-5 2F.F ....|G-5 2F.F ....
....|..|--- .... ....|--- .... ....|--- .... ....
....|..|C-3 9F.F ....|A-5 2F.F ....|A-5 2F.F ....
....|..|--- .... ....|--- .... ....|--- .... ....
....|..|C-4 AF.7 ....|C-6 2F.F ....|C-6 2F.F ....
....|..|--- .... ....|--- .... ....|--- .... ....

[Pattern36]
....|..|C-4 AF.F ....|A#5 2F.F ....|A#5 2F.F ....
....|..|C-4 AF.F ....|--- .... ....|--- .... ....
....|..|C-4 AF.F ....|R-- .... ....|R-- .... ....
....|..|C-4 AF.F ....|--- .... ....|--- .... ....
....|..|C-4 AF.F ....|F-5 2F.7 ....|F-5 2F.7 ....
....|..|C-4 AF.F ....|--- .... ....|--- .... ....
....|..|C-4 AF.F ....|G-5 2F.7 ....|G-5 2F.7 ....
....|..|C-4 AF.F ....|--- .... ....|--- .... ....
....|..|C-4 AF.F ....|A-5 2F.7 ....|A-5 2F.7 ....
....|..|C-4 AF.F ....|--- .... ....|--- .... ....
....|..|C-4 AF.F ....|C-6 2F.7 ....|C-6 2F.7 ....
....|..|C-4 AF.F ....|--- .... ....|--- .... ....
....|..|C-4 AF.F ....|A#5 2F.7 ....|A#5 2F.7 ....
....|..|C-4 AF.F ....|--- .... ....|--- .... ....
....|..|C-4 AF.F ....|--- .... ....|--- .... ....
....|..|C-4 AF.F ....|--- .... ....|--- .... ....
....|..|C-4 AF.F ....|--- .... ....|--- .... ....
....|..|C-4 AF.F ....|--- .... ....|--- .... ....
....|..|C-4 AF.F ....|--- .... ....|--- .... ....
....|..|C-4 AF.F ....|--- .... ....|--- .... ....
....|..|C-4 AF.F ....|--- .... ....|--- .... ....
....|..|C-4 AF.F ....|--- .... ....|--- .... ....
....|..|C-4 AF.F ....|--- .... ....|--- .... ....
....|..|C-4 AF.F ....|--- .... ....|--- .... ....
....|..|C-4 LF.F ....|R-- .... ....|R-- .... ....
....|..|C-4 LF.F ....|--- .... ....|--- .... ....
....|..|C-4 AF.7 ....|--- .... ....|--- .... ....
....|..|C-4 AF.7 ....|--- .... ....|--- .... ....
....|..|C-4 AF.7 ....|--- .... ....|--- .... ....
....|..|C-4 AF.7 ....|--- .... ....|--- .... ....
....|..|C-4 AF.7 ....|R-- .... ....|R-- .... ....
....|..|C-4 AF.7 ....|--- .... ....|--- .... ....
....|..|C-4 AF.7 ....|--- .... ....|--- .... ....
....|..|C-4 AF.7 ....|--- .... ....|--- .... ....
....|..|C-4 AF.7 ....|--- .... ....|--- .... ....
....|..|C-4 AF.7 ....|--- .... ....|--- .... ....
....|..|C-4 LF.7 ....|R-- .... ....|R-- .... ....
....|..|C-4 LF.7 ....|--- .... ....|--- .... ....
....|..|--- .... ....|--- .... ....|--- .... ....
....|..|--- .... ....|--- .... ....|--- .... ....
....|..|--- .... ....|--- .... ....|--- .... ....
....|..|--- .... ....|--- .... ....|--- .... ....
....|..|--- .... ....|--- .... ....|--- .... ....
....|..|--- .... ....|--- .... ....|--- .... ....
....|..|--- .... ....|--- .... ....|--- .... ....
....|..|--- .... ....|--- .... ....|--- .... ....
....|..|--- .... ....|--- .... ....|--- .... ....
....|..|--- .... ....|--- .... ....|--- .... ....
....|..|R-- .... ....|--- .... ....|--- .... ....
....|..|--- .... ....|--- .... ....|--- .... ....
....|..|--- .... ....|--- .... ....|--- .... ....
....|..|--- .... ....|--- .... ....|--- .... ....
....|..|--- .... ....|--- .... ....|--- .... ....
....|..|--- .... ....|--- .... ....|--- .... ....
....|..|R-- .... ....|--- .... ....|--- .... ....
....|..|--- .... ....|--- .... ....|--- .... ....
....|..|--- .... ....|--- .... ....|--- .... ....
....|..|--- .... ....|--- .... ....|--- .... ....
....|..|--- .... ....|--- .... ....|--- .... ....
....|..|--- .... ....|--- .... ....|--- .... ....

[Module]
VortexTrackerII=0
Version=3.5
Title=./test/azu_ending_theme.mid
Author=oisee ^ 4d 29.05.2010
NoteTable=4
ChipFreq=1750000
Speed=4
PlayOrder=L0,1,2,3,4,5,6,7,8,9,10,11,12,13,14,15,16,17,18,19,20,21,22,23,24,25,26,27,28,29,30,31,32,33,34,35,36

[Ornament1]
L0,0,2,2

[Ornament2]
L0,0,5,5

[Ornament3]
L0,0,3,3

[Ornament4]
L0,0,3,3,8,8

[Ornament5]
L0,0,5,5,7,7

[Ornament6]
L0,0,2,2,4,4

[Ornament7]
L0,0,3,3,5,5

[Ornament8]
L0,0,2,2,5,5,9,9

[Ornament9]
L0,0,3,3,7,7

[Ornament10]
L0,0,2,2,4,4,7,7

[Ornament11]
L0,0,4,4,7,7

[Ornament12]
L0,0,5,5,9,9

[Ornament13]
L0,0,5,5,8,8

[Ornament14]
L0,0,3,3,6,6

[Ornament15]
L0,0,5,5,10,10

[Sample1]
TnE +000_ +00_ F_
TnE +000_ +00_ F_
TnE +000_ +00_ F_
TnE +000_ +00_ D_
TnE +000_ +00_ B_
TnE +000_ +00_ B_ L

[Sample2]
TnE +000_ +00_ F_ L

[Sample3]
TnE +001_ +00_ F_
TnE +002_ +00_ F_
TnE +001_ +00_ E_
TnE +002_ +00_ E_
TnE +000_ +00_ E_ L
TnE -001_ +00_ E_
TnE -002_ +00_ E_
TnE -001_ +00_ E_
TnE +000_ +00_ E_
TnE +001_ +00_ E_
TnE +002_ +00_ E_
TnE +001_ +00_ E_

[Sample4]
TnE +002_ +00_ D_
TnE +002_ +00_ D_
TnE +002_ +00_ C_
TnE +002_ +00_ B_
TnE +002_ +00_ A_ L
TnE +002_ +00_ A_
TnE +002_ +00_ A_
TnE +002_ +00_ A_
TnE +002_ +00_ A_
TnE +002_ +00_ A_
TnE +002_ +00_ A_
TnE +002_ +00_ A_

[Sample5]
TnE +000_ +00_ F_
TnE +000_ +00_ F_
tne +000_ +00_ 0_ L

[Sample6]
TnE -001_ +00_ F_ L

[Sample7]
TnE +006_ +00_ F_ L

[Sample8]
tNe +000_ +00_ F_
tNe +000_ +00_ B_
tNe +000_ +00_ 7_
tNe +000_ +00_ 6- L

[Sample9]
TnE +080_ +00_ F_
TnE +100_ +00_ E_
TnE +180_ +00_ E_
TnE +200_ +00_ E_
TnE +240_ +00_ D_
TnE +280_ +00_ D_
TnE +2C0_ +00_ D_
TnE +300_ +00_ C_
TnE +300_ +00_ C_
TnE +340_ +00_ C_
TnE +340_ +00_ C_
TnE +380_ +00_ B_
TnE +380_ +00_ B_
TnE +400_ +00_ B_
TnE +400_ +00_ B_
TnE +480_ +00_ A_
TnE +500_ +00_ 9_
TnE +580_ +00_ 7_
TnE +600_ +00_ 4_
TnE +680_ +00_ 1_
TnE +000_ +00_ 0_ L

[Sample10]
Tne +1C0_ +00_ F_
Tne +280_ +00_ E_
Tne +380_ +00_ C_
Tne +440_ +00_ A_
Tne +480_ +00_ 8_
TnE +000_ +00_ 0_ L

[Sample11]
TNe +200_ -0A_ F_
tNe +000_ +0F_ A_
TNe +200_ -07_ E_
tNe +000_ +0E_ B- L

[Sample12]
TNE +0A0_ +05_ F_
TNE +140_ +02_ D_
TNE +140_ +02_ B_
TNE +100_ +00_ A_ L
TNE +140_ +00_ A_
TNE +200_ +00_ A-

[Sample13]
Tne +200_ +00_ F_
Tne +2C0_ +00_ F_
Tne +380_ +00_ E_
Tne +500_ +00_ C_
Tne +520_ +00_ 9_
tne +000_ +00_ 0_ L

[Sample14]
TNE -100_ +00_ F_
TNE -100_ +00_ D_
TNE -100_ +00_ A_
TNE -100_ +00_ 5_
tne +000_ +00_ 0_ L

[Sample15]
TNE -100_ +00_ 5_
TNE -100_ +00_ 8_
TNE -100_ +00_ B_
TNE -100_ +00_ F_
TNe -100_ +00_ 9- L

[Sample16]
TnE +000_ +00_ C_
TnE +000_ +00_ E_
TnE +000_ +00_ F_
TnE +000_ +00_ F_
TnE +000_ +00_ E_
TnE +000_ +00_ D_
TnE +000_ +00_ C_
TnE +000_ +00_ C_ L
TnE +001_ +00_ C_
TnE +002_ +00_ C_
TnE +003_ +00_ C_
TnE +001_ +00_ C_
TnE +000_ +00_ C_
TnE -001_ +00_ C_
TnE -002_ +00_ C_
TnE -003_ +00_ C_
TnE -001_ +00_ C_
TnE +000_ +00_ C_
TnE +000_ +00_ C_

[Sample17]
Tne +1C0_ +00_ F_
Tne +280_ +00_ D_
Tne +380_ +00_ 7_
TNE +000_ +00_ 0_ L

[Sample18]
TnE -00C_ +00_ 0_ L

[Sample19]
TNe +000_ +00_ F_
TNe +000_ +00_ C_
TNe +000_ +00_ 6_
TNe +000_ +01_ A- L

[Sample20]
TNE +140_ +00_ F_
tNE +000_ +00_ B- L

[Sample21]
tNE +000_ +00_ D_
tNE +000_ +00_ 8_
tNE +000_ +00_ 1_
TNE +000_ +00_ 0_ L

[Sample22]
TnE +000_ +00_ D_ L
TnE +000_ +00_ D_
tne +000_ +00_ 9_
tne +000_ +00_ 9_
TnE +000_ +00_ D_
TnE +000_ +00_ D_
tne +000_ +00_ 9_
tne +000_ +00_ 9_
TnE +000_ +00_ D_
TnE +000_ +00_ D_
TnE +000_ +00_ D_
TnE +000_ +00_ D_
TnE +000_ +00_ D_
TnE +000_ +00_ D_
tne +000_ +00_ 9_
tne +000_ +00_ 9_

[Sample23]
TnE +000_ +00_ F_ L
TnE +010_ +01_ F_
TnE +010_ +01_ F_
TnE +010_ +01_ F_
TnE +010_ +01_ F_
TnE +000_ +00_ F_
TnE +000_ +00_ F_
TnE -010_ -01_ F_
TnE -010_ -01_ F_
TnE -010_ -01_ F_
TnE -010_ -01_ F_
TnE +000_ +00_ F_

[Sample24]
TNe +000_ -01_ C_
TNe +000_ -01_ D_
TNe +000_ -01_ E_
TNe +000_ -01_ F_
TNe +000_ -01_ F_
TNe +000_ -01_ F_
TNe +000_ -01_ F_
TNe +000_ -01_ F_
TNe +000_ -01_ E_
TNe +000_ -01_ E_
TNe +000_ -01_ E_
TNe +000_ -01_ F_
TNe +000_ -01_ F_ L

[Sample25]
TNE +000_ +00_ F_
TNE +000_ +00_ F_ L
TNE +000_ +00_ F_
TNE +000_ +00_ F_
TNE +000_ +00_ F-

[Sample26]
tne +000_ +00_ 0_ L

[Sample27]
TnE +100_ +05_ F_
TnE +200_ +02_ A_
TnE +300_ +02_ 7_
TNE +400_ +00_ 3- L

[Sample28]
tne +000_ +00_ 0_ L

[Sample29]
tnE +000_ +00_ 0_ L

[Sample30]
TNE +000_ +00_ C+ L

[Sample31]
TNe +1C0_ +00_ F_
Tne +280_ +00_ E_
Tne +380_ +00_ C_
Tne +440_ +00_ A_
Tne +480_ +00_ 8_
TnE +000_ +00_ 0_ L

[Pattern0]
....|..|--- .... ....|D#4 2F1F ....|--- .... ....
....|..|--- .... ....|A#3 2F5F ....|--- .... ....
....|..|--- .... ....|A#3 2F.F ....|--- .... ....
....|..|--- .... ....|R-- .... ....|--- .... ....
....|..|--- .... ....|R-- .... ....|--- .... ....
....|..|--- .... ....|--- .... ....|--- .... ....
....|..|--- .... ....|D#4 2F1F ....|--- .... ....
....|..|--- .... ....|A#3 2F5F ....|--- .... ....
....|..|--- .... ....|R-- .... ....|--- .... ....
....|..|--- .... ....|R-- .... ....|--- .... ....
....|..|--- .... ....|A#3 2F.F ....|--- .... ....
....|..|--- .... ....|--- .... ....|--- .... ....
....|..|--- .... ....|D#4 2F1F ....|--- .... ....
....|..|--- .... ....|A#3 2F5F ....|--- .... ....
....|..|--- .... ....|A#3 2F.F ....|--- .... ....
....|..|--- .... ....|R-- .... ....|--- .... ....
....|..|--- .... ....|D#4 2F1F ....|--- .... ....
....|..|--- .... ....|A#3 2F5F ....|--- .... ....
....|..|--- .... ....|D#4 2F17 ....|--- .... ....
....|..|--- .... ....|A#3 2F57 ....|--- .... ....
....|..|--- .... ....|D#4 2F1F ....|--- .... ....
....|..|--- .... ....|R-- .... ....|--- .... ....
....|..|--- .... ....|A#3 2F.F ....|--- .... ....
....|..|--- .... ....|A#3 2F5A ....|--- .... ....
....|..|--- .... ....|D#4 2F1F ....|--- .... ....
....|..|--- .... ....|A#3 2F5F ....|--- .... ....
....|..|--- .... ....|A#3 2F.F ....|--- .... ....
....|..|--- .... ....|R-- .... ....|--- .... ....
....|..|--- .... ....|D#4 2F17 ....|--- .... ....
....|..|--- .... ....|A#3 2F57 ....|--- .... ....
....|..|--- .... ....|D#4 2F1F ....|--- .... ....
....|..|--- .... ....|A#3 2F5F ....|--- .... ....
....|..|--- .... ....|D#4 2F17 ....|--- .... ....
....|..|--- .... ....|R-- .... ....|--- .... ....
....|..|--- .... ....|A#3 2F.F ....|--- .... ....
....|..|--- .... ....|--- .... ....|--- .... ....
 F#4|..|F#2 2A.F ....|D#4 2F1F ....|--- .... ....
....|..|--- .... ....|A#3 2F5F ....|--- .... ....
....|..|--- .... ....|A#3 2F.F ....|--- .... ....
....|..|--- .... ....|R-- .... ....|--- .... ....
 A#3|..|A#2 2C.F ....|D#4 2F1F ....|--- .... ....
....|..|--- .... ....|--- .... ....|--- .... ....
 G-4|..|G-2 2A.F ....|D#4 2F17 ....|--- .... ....
....|..|--- .... ....|A#3 2F57 ....|--- .... ....
....|..|--- .... ....|D#4 2F1F ....|--- .... ....
....|..|--- .... ....|A#3 2F5F ....|--- .... ....
 A#3|..|A#2 2F.A ....|A#3 2F.F ....|--- .... ....
....|..|R-- .... ....|R-- .... ....|--- .... ....
 D#4|..|D#2 2A.F ....|D#4 2F1F ....|--- .... ....
....|..|--- .... ....|A#3 2F5F ....|--- .... ....
....|..|--- .... ....|A#3 2F.F ....|--- .... ....
....|..|--- .... ....|R-- .... ....|--- .... ....
 A#3|..|A#2 2F.7 ....|D#4 2F17 ....|--- .... ....
....|..|R-- .... ....|R-- .... ....|--- .... ....
 G-4|..|G-2 2F.7 ....|D#4 2F1F ....|--- .... ....
....|..|--- .... ....|A#3 2F5F ....|--- .... ....
....|..|--- .... ....|D#4 2F17 ....|--- .... ....
....|..|--- .... ....|A#3 2F57 ....|--- .... ....
....|..|--- .... ....|A#3 2F.F ....|--- .... ....
....|..|R-- .... ....|R-- .... ....|--- .... ....
 D#4|..|D#2 2F.7 ....|D#4 2F1F ....|--- .... ....
....|..|--- .... ....|A#3 2F5F ....|--- .... ....
....|..|--- .... ....|A#3 2F.F ....|--- .... ....
....|..|--- .... ....|R-- .... ....|--- .... ....

[Pattern1]
....|..|--- .... ....|D#4 2F1F ....|--- .... ....
....|..|--- .... ....|A#3 2F5F ....|--- .... ....
....|..|--- .... ....|D#4 2F17 ....|--- .... ....
....|..|--- .... ....|A#3 2F57 ....|--- .... ....
....|..|--- .... ....|D#4 2F1F ....|--- .... ....
....|..|--- .... ....|R-- .... ....|--- .... ....
....|..|--- .... ....|A#3 2F.F ....|--- .... ....
....|..|--- .... ....|A#3 2F5A ....|--- .... ....
....|..|--- .... ....|D#4 2F1F ....|--- .... ....
....|..|--- .... ....|A#3 2F5F ....|--- .... ....
....|..|--- .... ....|A#3 2F.F ....|--- .... ....
....|..|--- .... ....|R-- .... ....|--- .... ....
....|..|--- .... ....|D#4 2F17 ....|--- .... ....
....|..|--- .... ....|A#3 2F57 ....|--- .... ....
....|..|--- .... ....|D#4 2F1F ....|--- .... ....
....|..|--- .... ....|A#3 2F5F ....|--- .... ....
....|..|--- .... ....|D#4 2F17 ....|--- .... ....
....|..|--- .... ....|R-- .... ....|--- .... ....
....|..|--- .... ....|A#3 2F.F ....|--- .... ....
....|..|--- .... ....|--- .... ....|--- .... ....
....|..|--- .... ....|D#4 2F1F ....|--- .... ....
....|..|--- .... ....|A#3 2F5F ....|--- .... ....
....|..|--- .... ....|A#3 2F.F ....|--- .... ....
....|..|--- .... ....|R-- .... ....|--- .... ....
....|..|--- .... ....|D#4 2F1F ....|--- .... ....
....|..|--- .... ....|--- .... ....|--- .... ....
....|..|--- .... ....|D#4 2F17 ....|--- .... ....
....|..|--- .... ....|A#3 2F57 ....|--- .... ....
....|..|--- .... ....|D#4 2F1F ....|--- .... ....
....|..|--- .... ....|A#3 2F5F ....|--- .... ....
....|..|--- .... ....|A#3 2F.F ....|--- .... ....
....|..|--- .... ....|R-- .... ....|--- .... ....
....|..|--- .... ....|D#4 2F1F ....|--- .... ....
....|..|--- .... ....|A#3 2F5F ....|--- .... ....
....|..|--- .... ....|A#3 2F.F ....|--- .... ....
....|..|--- .... ....|R-- .... ....|--- .... ....
....|..|--- .... ....|D#4 2F17 ....|--- .... ....
....|..|--- .... ....|R-- .... ....|--- .... ....
....|..|--- .... ....|D#4 2F1F ....|--- .... ....
....|..|--- .... ....|A#3 2F5F ....|--- .... ....
....|..|--- .... ....|D#4 2F17 ....|--- .... ....
....|..|--- .... ....|A#3 2F57 ....|--- .... ....
....|..|--- .... ....|A#3 2F.F ....|--- .... ....
....|..|--- .... ....|R-- .... ....|--- .... ....
....|..|--- .... ....|D#4 2F1F ....|--- .... ....
....|..|--- .... ....|A#3 2F5F ....|--- .... ....
....|..|--- .... ....|A#3 2F.F ....|--- .... ....
....|..|--- .... ....|R-- .... ....|--- .... ....
....|..|--- .... ....|D#4 2F1F ....|--- .... ....
....|..|--- .... ....|A#3 2F5F ....|--- .... ....
....|..|--- .... ....|D#4 2F17 ....|--- .... ....
....|..|--- .... ....|A#3 2F57 ....|--- .... ....
....|..|--- .... ....|D#4 2F1F ....|--- .... ....
....|..|--- .... ....|R-- .... ....|--- .... ....
....|..|--- .... ....|A#3 2F.F ....|--- .... ....
....|..|--- .... ....|A#3 2F5A ....|--- .... ....
....|..|R-- .... ....|D#4 2F1F ....|--- .... ....
....|..|--- .... ....|A#3 2F5F ....|--- .... ....
....|..|--- .... ....|A#3 2F.F ....|--- .... ....
....|..|--- .... ....|R-- .... ....|--- .... ....
....|..|--- .... ....|D#4 2F17 ....|--- .... ....
....|..|--- .... ....|A#3 2F57 ....|--- .... ....
....|..|R-- .... ....|D#4 2F1F ....|--- .... ....
....|..|--- .... ....|A#3 2F5F ....|--- .... ....

[Pattern2]
....|..|--- .... ....|D#4 2F17 ....|--- .... ....
....|..|--- .... ....|R-- .... ....|--- .... ....
 A#3|..|A#1 2A.F ....|A#3 2F.F ....|--- .... ....
....|..|--- .... ....|--- .... ....|--- .... ....
 F-4|..|F-2 2A.F ....|D#4 2F1F ....|--- .... ....
....|..|--- .... ....|A#3 2F5F ....|--- .... ....
....|..|--- .... ....|A#3 2F.F ....|--- .... ....
....|..|--- .... ....|R-- .... ....|--- .... ....
 A#3|..|A#1 2F.A ....|D#4 2F1F ....|--- .... ....
....|..|R-- .... ....|--- .... ....|--- .... ....
 F-4|..|F-2 2A.F ....|D#4 2F17 ....|--- .... ....
....|..|--- .... ....|A#3 2F57 ....|--- .... ....
....|..|--- .... ....|D#4 2F1F ....|--- .... ....
....|..|--- .... ....|A#3 2F5F ....|--- .... ....
 A#3|..|A#1 2F.7 ....|A#3 2F.F ....|--- .... ....
....|..|R-- .... ....|R-- .... ....|--- .... ....
 D#4|..|D#2 2A.F ....|D#4 2F1F ....|--- .... ....
....|..|--- .... ....|A#3 2F5F ....|--- .... ....
....|..|--- .... ....|A#3 2F.F ....|--- .... ....
....|..|--- .... ....|R-- .... ....|--- .... ....
....|..|--- .... ....|D#4 2F17 ....|--- .... ....
....|..|R-- .... ....|R-- .... ....|--- .... ....
 F-4|..|F-2 2F.7 ....|D#4 2F1F ....|--- .... ....
....|..|--- .... ....|A#3 2F5F ....|--- .... ....
....|..|--- .... ....|D#4 2F17 ....|--- .... ....
....|..|--- .... ....|A#3 2F57 ....|--- .... ....
....|..|--- .... ....|A#3 2F.F ....|--- .... ....
....|..|R-- .... ....|R-- .... ....|--- .... ....
 D#4|..|D#2 2F.7 ....|D#4 2F1F ....|--- .... ....
....|..|--- .... ....|A#3 2F5F ....|--- .... ....
....|..|--- .... ....|A#3 2F.F ....|--- .... ....
....|..|--- .... ....|R-- .... ....|--- .... ....
....|..|--- .... ....|D#4 2F1F ....|--- .... ....
....|..|--- .... ....|A#3 2F5F ....|--- .... ....
....|..|--- .... ....|D#4 2F17 ....|--- .... ....
....|..|--- .... ....|A#3 2F57 ....|--- .... ....
....|..|--- .... ....|D#4 2F1F ....|--- .... ....
....|..|--- .... ....|R-- .... ....|--- .... ....
....|..|--- .... ....|A#3 2F.F ....|--- .... ....
....|..|--- .... ....|A#3 2F5A ....|--- .... ....
 G#4|..|G#2 2A.F ....|D#4 2F1F ....|--- .... ....
....|..|--- .... ....|A#3 2F5F ....|--- .... ....
....|..|--- .... ....|A#3 2F.F ....|--- .... ....
....|..|--- .... ....|R-- .... ....|--- .... ....
....|..|--- .... ....|D#4 2F17 ....|--- .... ....
....|..|R-- .... ....|A#3 2F57 ....|--- .... ....
 G-4|..|G-2 2A.F ....|D#4 2F1F ....|--- .... ....
....|..|--- .... ....|A#3 2F5F ....|--- .... ....
 D#4|..|D#2 2A.F ....|D#4 2F17 ....|--- .... ....
....|..|--- .... ....|R-- .... ....|--- .... ....
 A#2|..|A#1 2A.F ....|A#3 2F.F ....|--- .... ....
....|..|R-- .... ....|--- .... ....|--- .... ....
 G#3|..|G#1 2A.F ....|D#4 2F1F ....|--- .... ....
....|..|--- .... ....|A#3 2F5F ....|--- .... ....
 D#4|..|D#2 2F.A ....|A#3 2F.F ....|--- .... ....
....|..|--- .... ....|R-- .... ....|--- .... ....
 A#2|..|A#1 2F.A ....|D#4 2F1F ....|--- .... ....
....|..|R-- .... ....|A#3 2F5F ....|--- .... ....
 G-4|..|G-2 2F.7 ....|D#4 2F17 ....|--- .... ....
....|..|--- .... ....|A#3 2F57 ....|--- .... ....
 D#4|..|D#2 2F.7 ....|D#4 2F1F ....|--- .... ....
....|..|--- .... ....|R-- .... ....|--- .... ....
 A#2|..|A#1 2F.7 ....|A#3 2F.F ....|--- .... ....
....|..|--- .... ....|A#3 2F5A ....|--- .... ....

[Pattern3]
 F-3|..|F-1 2A.F ....|D#4 2F1F ....|--- .... ....
....|..|--- .... ....|C#4 2F6F ....|--- .... ....
....|..|--- .... ....|A#3 2F.F ....|--- .... ....
....|..|--- .... ....|R-- .... ....|--- .... ....
....|..|--- .... ....|D#4 2F17 ....|--- .... ....
....|..|--- .... ....|A#3 2F57 ....|--- .... ....
 F-3|..|F-1 2F.A ....|D#4 2F1F ....|--- .... ....
....|..|--- .... ....|C#4 2F6F ....|--- .... ....
....|..|--- .... ....|D#4 2F17 ....|--- .... ....
....|..|--- .... ....|R-- .... ....|--- .... ....
....|..|--- .... ....|A#3 2F.F ....|--- .... ....
....|..|--- .... ....|--- .... ....|--- .... ....
 C#3|..|C#1 2A.F ....|D#4 2F1F ....|--- .... ....
....|..|--- .... ....|A#3 2F5F ....|--- .... ....
....|..|--- .... ....|A#3 2F.F ....|--- .... ....
....|..|--- .... ....|R-- .... ....|--- .... ....
....|..|--- .... ....|D#4 2F1F ....|--- .... ....
....|..|--- .... ....|--- .... ....|--- .... ....
 C#3|..|C#1 2F.A ....|D#4 2F17 ....|--- .... ....
....|..|--- .... ....|C#4 2F67 ....|--- .... ....
....|..|--- .... ....|D#4 2F1F ....|--- .... ....
....|..|--- .... ....|A#3 2F5F ....|--- .... ....
....|..|--- .... ....|A#3 2F.F ....|--- .... ....
....|..|--- .... ....|R-- .... ....|--- .... ....
 A#2|..|A#1 2A.F ....|D#4 2F1F ....|--- .... ....
....|..|--- .... ....|A#3 2F57 ....|--- .... ....
....|..|--- .... ....|A#3 2F.F ....|--- .... ....
....|..|--- .... ....|R-- .... ....|--- .... ....
....|..|--- .... ....|D#4 2F17 ....|--- .... ....
....|..|--- .... ....|R-- .... ....|--- .... ....
 D#3|..|D#1 2A.F ....|D#4 2F1F ....|--- .... ....
....|..|--- .... ....|--- .... ....|--- .... ....
 F-3|..|F-1 2A.F ....|D#4 2F17 ....|--- .... ....
....|..|--- .... ....|A#3 2F57 ....|--- .... ....
....|..|--- .... ....|A#3 2F.F ....|--- .... ....
....|..|--- .... ....|R-- .... ....|--- .... ....
 G#3|..|G#1 2A.F ....|D#4 2F1F ....|--- .... ....
....|..|--- .... ....|--- .... ....|--- .... ....
 A#3|..|A#1 2A.F ....|A#3 2F.F ....|--- .... ....
....|..|--- .... ....|--- .... ....|--- .... ....
....|..|--- .... ....|D#4 2F1F ....|--- .... ....
....|..|--- .... ....|--- .... ....|--- .... ....
 D#3|..|D#1 2F.7 ....|D#4 2F17 ....|--- .... ....
....|..|--- .... ....|--- .... ....|--- .... ....
 F-3|..|F-1 2F.7 ....|D#4 2F1F ....|--- .... ....
....|..|--- .... ....|--- .... ....|--- .... ....
 F-3|..|F-1 2A.F ....|A#3 2F.F ....|--- .... ....
....|..|--- .... ....|--- .... ....|--- .... ....
 A#3|..|A#1 2A.F ....|D#4 2F1F ....|--- .... ....
....|..|--- .... ....|--- .... ....|--- .... ....
 A#3|..|A#1 2F.7 ....|A#3 2F.F ....|--- .... ....
....|..|--- .... ....|--- .... ....|--- .... ....
 F-3|..|F-1 2F.A ....|D#4 2F17 ....|--- .... ....
....|..|--- .... ....|--- .... ....|--- .... ....
 A#3|..|A#1 2F.A ....|D#4 2F1F ....|--- .... ....
....|..|--- .... ....|--- .... ....|--- .... ....
....|..|--- .... ....|D#4 2F17 ....|--- .... ....
....|..|--- .... ....|--- .... ....|--- .... ....
 F-3|..|F-1 2F.7 ....|A#3 2F.F ....|--- .... ....
....|..|--- .... ....|--- .... ....|--- .... ....
 F-3|..|F-1 2A.F ....|D#4 2F1F ....|--- .... ....
....|..|--- .... ....|--- .... ....|--- .... ....
....|..|--- .... ....|A#3 2F.F ....|--- .... ....
....|..|--- .... ....|--- .... ....|--- .... ....

[Pattern4]
....|..|--- .... ....|D#4 2F1F ....|--- .... ....
....|..|--- .... ....|--- .... ....|--- .... ....
 A#2|..|A#1 2A.F ....|D#4 2F17 ....|--- .... ....
....|..|--- .... ....|--- .... ....|--- .... ....
....|..|--- .... ....|D#4 2F1F ....|--- .... ....
....|..|--- .... ....|--- .... ....|--- .... ....
....|..|--- .... ....|A#3 2F.F ....|--- .... ....
....|..|--- .... ....|--- .... ....|--- .... ....
 D#3|..|D#1 2A.F ....|D#4 2F1F ....|--- .... ....
....|..|--- .... ....|G-4 2F7F ....|--- .... ....
....|..|--- .... ....|A#3 2F.F ....|--- .... ....
....|..|--- .... ....|R-- .... ....|--- .... ....
....|..|R-- .... ....|D#4 2F17 ....|--- .... ....
....|..|--- .... ....|--- .... ....|--- .... ....
 D#3|..|D#1 2A.F ....|D#4 2F1F ....|--- .... ....
....|..|--- .... ....|G-4 2F7F ....|--- .... ....
....|..|R-- .... ....|D#4 2F17 ....|--- .... ....
....|..|--- .... ....|R-- .... ....|--- .... ....
....|..|R-- .... ....|A#3 2F.F ....|--- .... ....
....|..|--- .... ....|--- .... ....|--- .... ....
 D#3|..|D#1 2F.7 ....|D#4 2F1F ....|--- .... ....
....|..|--- .... ....|G-4 2F7F ....|--- .... ....
....|..|R-- .... ....|A#3 2F.F ....|--- .... ....
....|..|--- .... ....|R-- .... ....|--- .... ....
 A#2|..|A#1 2A.F ....|D#4 2F1F ....|--- .... ....
....|..|--- .... ....|G-4 2F7F ....|--- .... ....
 D#3|..|D#1 2F.7 ....|D#4 2F17 ....|--- .... ....
....|..|--- .... ....|G-4 2F77 ....|--- .... ....
 C-3|..|C-1 2A.F ....|D#4 2F1F ....|--- .... ....
....|..|--- .... ....|R-- .... ....|--- .... ....
 A#2|..|A#1 2F.A ....|A#3 2F.F ....|--- .... ....
....|..|--- .... ....|G-4 2F7A ....|--- .... ....
 D#3|..|D#1 2A.F ....|D#4 2F1F ....|--- .... ....
....|..|--- .... ....|G-4 2F7F ....|--- .... ....
 C-3|..|C-1 2F.A ....|A#3 2F.F ....|--- .... ....
....|..|--- .... ....|R-- .... ....|--- .... ....
 A#2|..|A#1 2F.7 ....|D#4 2F17 ....|--- .... ....
....|..|--- .... ....|G-4 2F77 ....|--- .... ....
 D#3|..|D#1 2A.F ....|D#4 2F1F ....|--- .... ....
....|..|--- .... ....|G-4 2F7F ....|--- .... ....
 C-3|..|C-1 2F.7 ....|D#4 2F17 ....|--- .... ....
....|..|--- .... ....|R-- .... ....|--- .... ....
....|..|R-- .... ....|A#3 2F.F ....|--- .... ....
....|..|--- .... ....|--- .... ....|--- .... ....
 D#3|..|D#1 2F.7 ....|D#4 2F1F ....|--- .... ....
....|..|--- .... ....|G-4 2F7F ....|--- .... ....
....|..|R-- .... ....|A#3 2F.F ....|--- .... ....
....|..|--- .... ....|R-- .... ....|--- .... ....
 A#2|..|A#1 2A.F ....|D#4 2F1F ....|--- .... ....
....|..|--- .... ....|--- .... ....|--- .... ....
 D#3|..|D#1 2F.7 ....|D#4 2F17 ....|--- .... ....
....|..|--- .... ....|G-4 2F77 ....|--- .... ....
 C-3|..|C-1 2A.F ....|D#4 2F1F ....|--- .... ....
....|..|--- .... ....|G-4 2F7F ....|--- .... ....
 A#2|..|A#1 2A.F ....|A#3 2F.F ....|--- .... ....
....|..|--- .... ....|R-- .... ....|--- .... ....
 D#3|..|D#1 2A.F ....|D#4 2F1F ....|--- .... ....
....|..|--- .... ....|G-4 2F7F ....|--- .... ....
 C-3|..|C-1 2F.A ....|A#3 2F.F ....|--- .... ....
....|..|--- .... ....|R-- .... ....|--- .... ....
 A#2|..|A#1 2F.7 ....|D#4 2F17 ....|--- .... ....
....|..|--- .... ....|R-- .... ....|--- .... ....
 D#3|..|D#1 2A.F ....|D#4 2F1F ....|--- .... ....
....|..|--- .... ....|G-4 2F7F ....|--- .... ....

[Pattern5]
 C-3|..|C-1 2F.7 ....|D#4 2F17 ....|--- .... ....
....|..|--- .... ....|G-4 2F77 ....|--- .... ....
 A#2|..|A#1 2F.7 ....|A#3 2F.F ....|--- .... ....
....|..|--- .... ....|R-- .... ....|--- .... ....
 D#3|..|D#1 2F.7 ....|D#4 2F1F ....|--- .... ....
....|..|--- .... ....|G-4 2F7F ....|--- .... ....
....|..|R-- .... ....|A#3 2F.F ....|--- .... ....
....|..|--- .... ....|R-- .... ....|--- .... ....
 A#2|..|A#1 2A.F ....|D#4 2F1F ....|--- .... ....
....|..|--- .... ....|G-4 2F7F ....|--- .... ....
 D#3|..|D#1 2F.7 ....|D#4 2F17 ....|--- .... ....
....|..|--- .... ....|G-4 2F77 ....|--- .... ....
 A-2|..|A-1 2A.F ....|D#4 2F1F ....|--- .... ....
....|..|--- .... ....|R-- .... ....|--- .... ....
....|..|R-- .... ....|A#3 2F.F ....|--- .... ....
....|..|--- .... ....|G-4 2F7A ....|--- .... ....
 G#2|..|G#1 2A.F ....|C-4 2F2F ....|--- .... ....
....|..|--- .... ....|G-4 2F7F ....|--- .... ....
 A-2|..|A-1 2F.A ....|A#3 2F.F ....|--- .... ....
....|..|--- .... ....|R-- .... ....|--- .... ....
 A#2|..|A#1 2F.7 ....|D#4 2F17 ....|--- .... ....
....|..|--- .... ....|G-4 2F77 ....|--- .... ....
 G#2|..|G#1 2A.F ....|C-4 2F2F ....|--- .... ....
....|..|--- .... ....|G-4 2F7F ....|--- .... ....
 A-2|..|A-1 2F.7 ....|D#4 2F17 ....|--- .... ....
....|..|--- .... ....|R-- .... ....|--- .... ....
 D#3|..|D#1 2A.F ....|A#3 2F.F ....|--- .... ....
....|..|--- .... ....|--- .... ....|--- .... ....
 G#3|..|G#1 2A.F ....|C-4 2F2F ....|--- .... ....
....|..|--- .... ....|G-4 2F7F ....|--- .... ....
 D#3|..|D#1 2A.F ....|A#3 2F.F ....|--- .... ....
....|..|--- .... ....|R-- .... ....|--- .... ....
 A#3|..|A#1 2A.F ....|C-4 2F2F ....|--- .... ....
....|..|--- .... ....|G-4 2F7F ....|--- .... ....
 G#3|..|G#1 2A.F ....|C-4 2F27 ....|--- .... ....
....|..|--- .... ....|G-4 2F77 ....|--- .... ....
....|..|R-- .... ....|C-4 2F2F ....|--- .... ....
....|..|--- .... ....|R-- .... ....|--- .... ....
 D#3|..|D#1 2F.7 ....|A#3 2F.F ....|--- .... ....
....|..|--- .... ....|G-4 2F7A ....|--- .... ....
 F-2|..|F-1 2A.F ....|D#4 2F1F ....|--- .... ....
....|..|--- .... ....|D#4 2F8F ....|--- .... ....
 D#3|..|D#1 2F.7 ....|A#3 2F.F ....|--- .... ....
....|..|--- .... ....|R-- .... ....|--- .... ....
 A#3|..|A#1 2F.7 ....|C-4 2F27 ....|--- .... ....
....|..|R-- .... ....|G-4 2F77 ....|--- .... ....
 F-2|..|F-1 2A.F ....|D#4 2F1F ....|--- .... ....
....|..|--- .... ....|D#4 2F8F ....|--- .... ....
....|..|R-- .... ....|C-4 2F27 ....|--- .... ....
....|..|--- .... ....|R-- .... ....|--- .... ....
....|..|--- .... ....|A#3 2F.F ....|--- .... ....
....|..|R-- .... ....|--- .... ....|--- .... ....
 F-2|..|F-1 2A.F ....|D#4 2F1F ....|--- .... ....
....|..|--- .... ....|D#4 2F8F ....|--- .... ....
....|..|R-- .... ....|A#3 2F.F ....|--- .... ....
....|..|--- .... ....|R-- .... ....|--- .... ....
 C-3|..|C-1 2A.F ....|D#4 2F1F ....|--- .... ....
....|..|R-- .... ....|D#4 2F8F ....|--- .... ....
 F-2|..|F-1 2F.7 ....|D#4 2F17 ....|--- .... ....
....|..|R-- .... ....|D#4 2F87 ....|--- .... ....
 F-3|..|F-1 2A.F ....|D#4 2F1F ....|--- .... ....
....|..|--- .... ....|R-- .... ....|--- .... ....
....|..|R-- .... ....|A#3 2F.F ....|--- .... ....
....|..|--- .... ....|D#4 2F8A ....|--- .... ....

[Pattern6]
 D-3|..|D-1 2A.F ....|D-4 2F3F ....|--- .... ....
....|..|R-- .... ....|F-4 2F9F ....|--- .... ....
....|..|R-- .... ....|A#3 2F.F ....|--- .... ....
....|..|--- .... ....|R-- .... ....|--- .... ....
 C-3|..|C-1 2F.7 ....|D#4 2F17 ....|--- .... ....
....|..|R-- .... ....|D#4 2F87 ....|--- .... ....
 G#3|..|G#1 2A.F ....|D-4 2F3F ....|--- .... ....
....|..|R-- .... ....|F-4 2F9F ....|--- .... ....
 F-3|..|F-1 2F.7 ....|D#4 2F17 ....|--- .... ....
....|..|--- .... ....|R-- .... ....|--- .... ....
....|..|R-- .... ....|A#3 2F.F ....|--- .... ....
....|..|R-- .... ....|--- .... ....|--- .... ....
 D-3|..|D-1 2A.F ....|D-4 2F3F ....|--- .... ....
....|..|--- .... ....|F-4 2F9F ....|--- .... ....
....|..|R-- .... ....|A#3 2F.F ....|--- .... ....
....|..|--- .... ....|R-- .... ....|--- .... ....
 A#3|..|A#1 2A.F ....|D-4 2F3F ....|--- .... ....
....|..|R-- .... ....|--- .... ....|--- .... ....
 G#3|..|G#1 2F.7 ....|D-4 2F37 ....|--- .... ....
....|..|--- .... ....|F-4 2F97 ....|--- .... ....
 D-3|..|D-1 2A.F ....|D-4 2F3F ....|--- .... ....
....|..|--- .... ....|F-4 2F9F ....|--- .... ....
....|..|R-- .... ....|A#3 2F.F ....|--- .... ....
....|..|--- .... ....|R-- .... ....|--- .... ....
 D#3|..|D#1 2A.F ....|A#3 2F2F ....|--- .... ....
....|..|--- .... ....|D#4 2FAF ....|--- .... ....
....|..|R-- .... ....|G-3 2F.F ....|--- .... ....
....|..|--- .... ....|R-- .... ....|--- .... ....
 A#3|..|A#1 2F.7 ....|D-4 2F37 ....|--- .... ....
....|..|R-- .... ....|R-- .... ....|--- .... ....
 D#3|..|D#1 2A.F ....|A#3 2F2F ....|--- .... ....
....|..|--- .... ....|D#4 2FAF ....|--- .... ....
 D-3|..|D-1 2F.7 ....|D-4 2F37 ....|--- .... ....
....|..|--- .... ....|F-4 2F97 ....|--- .... ....
....|..|R-- .... ....|G-3 2F.F ....|--- .... ....
....|..|R-- .... ....|R-- .... ....|--- .... ....
 D#3|..|D#1 2A.F ....|A#3 2F2F ....|--- .... ....
....|..|--- .... ....|D#4 2FAF ....|--- .... ....
....|..|R-- .... ....|G-3 2F.F ....|--- .... ....
....|..|--- .... ....|R-- .... ....|--- .... ....
 G#3|..|G#1 2A.F ....|A#3 2F2F ....|--- .... ....
....|..|R-- .... ....|D#4 2FAF ....|--- .... ....
 D#3|..|D#1 2F.7 ....|A#3 2F27 ....|--- .... ....
....|..|--- .... ....|D#4 2FA7 ....|--- .... ....
 A#2|..|A#1 2A.F ....|A#3 2F2F ....|--- .... ....
....|..|--- .... ....|R-- .... ....|--- .... ....
....|..|R-- .... ....|G-3 2F.F ....|--- .... ....
....|..|--- .... ....|D#4 2FAA ....|--- .... ....
 D#3|..|D#1 2A.F ....|A#3 2F2F ....|--- .... ....
....|..|--- .... ....|D#4 2FAF ....|--- .... ....
....|..|R-- .... ....|G-3 2F.F ....|--- .... ....
....|..|--- .... ....|R-- .... ....|--- .... ....
 G#3|..|G#1 2F.7 ....|G-3 2F4F ....|--- .... ....
....|..|--- .... ....|D#4 2FA7 ....|--- .... ....
....|..|R-- .... ....|G-3 2F4F ....|--- .... ....
....|..|--- .... ....|D#4 2FAF ....|--- .... ....
 A#2|..|A#1 2F.7 ....|G-3 2F4F ....|--- .... ....
....|..|--- .... ....|R-- .... ....|--- .... ....
 A#2|..|A#1 2A.F ....|G-3 2F.F ....|--- .... ....
....|..|--- .... ....|--- .... ....|--- .... ....
 D#3|..|D#1 2A.F ....|A#3 2F2F ....|--- .... ....
....|..|--- .... ....|D#4 2FAF ....|--- .... ....
....|..|--- .... ....|G-3 2F.F ....|--- .... ....
....|..|--- .... ....|R-- .... ....|--- .... ....

[Pattern7]
 A#2|..|A#1 2A.F ....|A#3 2F2F ....|--- .... ....
....|..|--- .... ....|D#4 2FAF ....|--- .... ....
 D#3|..|D#1 2F.A ....|G-3 2F47 ....|--- .... ....
....|..|--- .... ....|D#4 2FA7 ....|--- .... ....
 D#2|..|D#1 2A.F ....|A#3 2F2F ....|--- .... ....
....|..|--- .... ....|R-- .... ....|--- .... ....
 A#2|..|A#1 2F.7 ....|G-3 2F.F ....|--- .... ....
....|..|R-- .... ....|D#4 2FAA ....|--- .... ....
 G#3|..|G#1 2A.F ....|A#3 2F27 ....|--- .... ....
....|..|--- .... ....|D#4 2FA7 ....|--- .... ....
 D#2|..|D#1 2F.A ....|G-3 2F.7 ....|--- .... ....
....|..|--- .... ....|R-- .... ....|--- .... ....
 A#2|..|A#1 2F.7 ....|A#3 2F27 ....|--- .... ....
....|..|R-- .... ....|D#4 2FA7 ....|--- .... ....
 G#3|..|G#1 2F.A ....|R-- .... ....|--- .... ....
....|..|--- .... ....|--- .... ....|--- .... ....
 D#2|..|D#1 2F.7 ....|A#3 2F27 ....|--- .... ....
....|..|--- .... ....|--- .... ....|--- .... ....
....|..|--- .... ....|G-3 2F.7 ....|--- .... ....
....|..|R-- .... ....|--- .... ....|--- .... ....
 A#3|..|A#1 2A.F ....|R-- .... ....|--- .... ....
....|..|--- .... ....|--- .... ....|--- .... ....
....|..|--- .... ....|--- .... ....|--- .... ....
....|..|--- .... ....|--- .... ....|--- .... ....
....|..|--- .... ....|--- .... ....|--- .... ....
....|..|--- .... ....|--- .... ....|--- .... ....
 A#3|..|A#1 2F.A ....|--- .... ....|--- .... ....
....|..|--- .... ....|--- .... ....|--- .... ....
....|..|--- .... ....|--- .... ....|--- .... ....
....|..|--- .... ....|--- .... ....|--- .... ....
....|..|--- .... ....|--- .... ....|--- .... ....
....|..|--- .... ....|--- .... ....|--- .... ....
 D#3|..|D#1 2A.F ....|--- .... ....|--- .... ....
....|..|--- .... ....|--- .... ....|--- .... ....
....|..|--- .... ....|--- .... ....|--- .... ....
....|..|--- .... ....|--- .... ....|--- .... ....
....|..|--- .... ....|--- .... ....|--- .... ....
....|..|--- .... ....|--- .... ....|--- .... ....
 D#3|..|D#1 2F.A ....|--- .... ....|--- .... ....
....|..|--- .... ....|--- .... ....|--- .... ....
....|..|--- .... ....|--- .... ....|--- .... ....
....|..|--- .... ....|--- .... ....|--- .... ....
....|..|--- .... ....|--- .... ....|--- .... ....
....|..|--- .... ....|--- .... ....|--- .... ....
 F-3|..|F-1 2A.F ....|--- .... ....|--- .... ....
....|..|--- .... ....|--- .... ....|--- .... ....
....|..|--- .... ....|--- .... ....|--- .... ....
....|..|--- .... ....|--- .... ....|--- .... ....
....|..|--- .... ....|--- .... ....|--- .... ....
....|..|--- .... ....|--- .... ....|--- .... ....
 F-3|..|F-1 2F.A ....|--- .... ....|--- .... ....
....|..|--- .... ....|--- .... ....|--- .... ....
....|..|--- .... ....|--- .... ....|--- .... ....
....|..|--- .... ....|--- .... ....|--- .... ....
....|..|--- .... ....|--- .... ....|--- .... ....
....|..|--- .... ....|--- .... ....|--- .... ....
 G#3|..|G#1 2A.F ....|--- .... ....|--- .... ....
....|..|--- .... ....|--- .... ....|--- .... ....
....|..|--- .... ....|--- .... ....|--- .... ....
....|..|--- .... ....|--- .... ....|--- .... ....
....|..|--- .... ....|--- .... ....|--- .... ....
....|..|--- .... ....|--- .... ....|--- .... ....
 G#3|..|G#1 2F.A ....|--- .... ....|--- .... ....
....|..|--- .... ....|--- .... ....|--- .... ....

[Pattern8]
 G#3|..|G#1 2A.F ....|--- .... ....|--- .... ....
....|..|--- .... ....|--- .... ....|--- .... ....
 A-3|..|A-1 2A.F ....|--- .... ....|--- .... ....
....|..|--- .... ....|--- .... ....|--- .... ....
 A#3|..|A#1 2A.F ....|--- .... ....|--- .... ....
....|..|--- .... ....|--- .... ....|--- .... ....
 G#3|..|G#1 2F.A ....|--- .... ....|--- .... ....
....|..|--- .... ....|--- .... ....|--- .... ....
 A-3|..|A-1 2F.A ....|--- .... ....|--- .... ....
....|..|--- .... ....|--- .... ....|--- .... ....
 A#3|..|A#1 2F.A ....|--- .... ....|--- .... ....
....|..|--- .... ....|--- .... ....|--- .... ....
 G#3|..|G#1 2F.7 ....|--- .... ....|--- .... ....
....|..|--- .... ....|--- .... ....|--- .... ....
 A-3|..|A-1 2F.7 ....|--- .... ....|--- .... ....
....|..|--- .... ....|--- .... ....|--- .... ....
 D#3|..|D#1 2A.F ....|--- .... ....|--- .... ....
....|..|--- .... ....|--- .... ....|--- .... ....
....|..|--- .... ....|--- .... ....|--- .... ....
....|..|--- .... ....|--- .... ....|--- .... ....
....|..|--- .... ....|--- .... ....|--- .... ....
....|..|--- .... ....|--- .... ....|--- .... ....
 D#4|..|D#2 2A.F ....|--- .... ....|--- .... ....
....|..|--- .... ....|--- .... ....|--- .... ....
 D-4|..|D-2 2A.F ....|--- .... ....|--- .... ....
....|..|--- .... ....|--- .... ....|--- .... ....
....|..|--- .... ....|--- .... ....|--- .... ....
....|..|--- .... ....|--- .... ....|--- .... ....
 A#3|..|A#1 2A.F ....|--- .... ....|--- .... ....
....|..|--- .... ....|--- .... ....|--- .... ....
 D-4|..|D-2 2F.A ....|--- .... ....|--- .... ....
....|..|--- .... ....|--- .... ....|--- .... ....
....|..|--- .... ....|--- .... ....|--- .... ....
....|..|--- .... ....|--- .... ....|--- .... ....
 D#3|..|D#1 2A.F ....|--- .... ....|--- .... ....
....|..|--- .... ....|--- .... ....|--- .... ....
 D-4|..|D-2 2F.7 ....|--- .... ....|--- .... ....
....|..|--- .... ....|--- .... ....|--- .... ....
....|..|--- .... ....|--- .... ....|--- .... ....
....|..|--- .... ....|--- .... ....|--- .... ....
 C-3|..|C-1 2A.F ....|--- .... ....|--- .... ....
....|..|--- .... ....|--- .... ....|--- .... ....
....|..|--- .... ....|--- .... ....|--- .... ....
....|..|--- .... ....|--- .... ....|--- .... ....
....|..|--- .... ....|--- .... ....|--- .... ....
....|..|--- .... ....|--- .... ....|--- .... ....
 D#3|..|D#1 2F.7 ....|--- .... ....|--- .... ....
....|..|--- .... ....|--- .... ....|--- .... ....
....|..|--- .... ....|--- .... ....|--- .... ....
....|..|--- .... ....|--- .... ....|--- .... ....
....|..|--- .... ....|--- .... ....|--- .... ....
....|..|--- .... ....|--- .... ....|--- .... ....
 F-3|..|F-1 2A.F ....|--- .... ....|--- .... ....
....|..|--- .... ....|--- .... ....|--- .... ....
....|..|--- .... ....|--- .... ....|--- .... ....
....|..|--- .... ....|--- .... ....|--- .... ....
....|..|--- .... ....|--- .... ....|--- .... ....
....|..|--- .... ....|--- .... ....|--- .... ....
 F-3|..|F-1 2F.A ....|--- .... ....|--- .... ....
....|..|--- .... ....|--- .... ....|--- .... ....
....|..|--- .... ....|--- .... ....|--- .... ....
....|..|--- .... ....|--- .... ....|--- .... ....
....|..|--- .... ....|--- .... ....|--- .... ....
....|..|--- .... ....|--- .... ....|--- .... ....

[Pattern9]
 A#2|..|A#1 2A.F ....|--- .... ....|--- .... ....
....|..|--- .... ....|--- .... ....|--- .... ....
....|..|--- .... ....|--- .... ....|--- .... ....
....|..|--- .... ....|--- .... ....|--- .... ....
....|..|--- .... ....|--- .... ....|--- .... ....
....|..|--- .... ....|--- .... ....|--- .... ....
 A#2|..|A#1 2F.A ....|--- .... ....|--- .... ....
....|..|--- .... ....|--- .... ....|--- .... ....
....|..|--- .... ....|--- .... ....|--- .... ....
....|..|--- .... ....|--- .... ....|--- .... ....
....|..|--- .... ....|--- .... ....|--- .... ....
....|..|--- .... ....|--- .... ....|--- .... ....
 C-3|..|C-1 2A.F ....|--- .... ....|--- .... ....
....|..|--- .... ....|--- .... ....|--- .... ....
....|..|--- .... ....|--- .... ....|--- .... ....
....|..|--- .... ....|--- .... ....|--- .... ....
....|..|--- .... ....|--- .... ....|--- .... ....
....|..|--- .... ....|--- .... ....|--- .... ....
 C-3|..|C-1 2F.A ....|--- .... ....|--- .... ....
....|..|--- .... ....|--- .... ....|--- .... ....
....|..|--- .... ....|--- .... ....|--- .... ....
....|..|--- .... ....|--- .... ....|--- .... ....
....|..|--- .... ....|--- .... ....|--- .... ....
....|..|--- .... ....|--- .... ....|--- .... ....
 D#3|..|D#1 2A.F ....|--- .... ....|--- .... ....
....|..|--- .... ....|--- .... ....|--- .... ....
....|..|--- .... ....|--- .... ....|--- .... ....
....|..|--- .... ....|--- .... ....|--- .... ....
....|..|--- .... ....|--- .... ....|--- .... ....
....|..|--- .... ....|--- .... ....|--- .... ....
 D#3|..|D#1 2F.A ....|--- .... ....|--- .... ....
....|..|--- .... ....|--- .... ....|--- .... ....
....|..|--- .... ....|--- .... ....|--- .... ....
....|..|--- .... ....|--- .... ....|--- .... ....
....|..|--- .... ....|--- .... ....|--- .... ....
....|..|--- .... ....|--- .... ....|--- .... ....
 F-3|..|F-1 2A.F ....|--- .... ....|--- .... ....
....|..|--- .... ....|--- .... ....|--- .... ....
....|..|--- .... ....|--- .... ....|--- .... ....
....|..|--- .... ....|--- .... ....|--- .... ....
....|..|--- .... ....|--- .... ....|--- .... ....
....|..|--- .... ....|--- .... ....|--- .... ....
 F-3|..|F-1 2F.A ....|--- .... ....|--- .... ....
....|..|--- .... ....|--- .... ....|--- .... ....
....|..|--- .... ....|--- .... ....|--- .... ....
....|..|--- .... ....|--- .... ....|--- .... ....
....|..|--- .... ....|--- .... ....|--- .... ....
....|..|--- .... ....|--- .... ....|--- .... ....
 D#3|..|D#1 2A.F ....|--- .... ....|--- .... ....
....|..|--- .... ....|--- .... ....|--- .... ....
....|..|--- .... ....|--- .... ....|--- .... ....
....|..|--- .... ....|--- .... ....|--- .... ....
 A#2|..|A#1 2A.F ....|--- .... ....|--- .... ....
....|..|--- .... ....|--- .... ....|--- .... ....
 D#3|..|D#1 2A.F ....|--- .... ....|--- .... ....
....|..|--- .... ....|--- .... ....|--- .... ....
 A#2|..|A#1 2A.F ....|--- .... ....|--- .... ....
....|..|--- .... ....|--- .... ....|--- .... ....
 A#2|..|A#1 2F.A ....|--- .... ....|--- .... ....
....|..|--- .... ....|--- .... ....|--- .... ....
 F-2|..|F-1 2A.F ....|--- .... ....|--- .... ....
....|..|--- .... ....|--- .... ....|--- .... ....
 A#2|..|A#1 2F.A ....|--- .... ....|--- .... ....
....|..|--- .... ....|--- .... ....|--- .... ....

[Pattern10]
 F-2|..|F-1 2A.F ....|--- .... ....|--- .... ....
....|..|--- .... ....|--- .... ....|--- .... ....
 A-2|..|A-1 2A.F ....|--- .... ....|--- .... ....
....|..|--- .... ....|--- .... ....|--- .... ....
 C-3|..|C-1 2A.F ....|--- .... ....|--- .... ....
....|..|--- .... ....|--- .... ....|--- .... ....
 A-2|..|A-1 2A.F ....|--- .... ....|--- .... ....
....|..|--- .... ....|--- .... ....|--- .... ....
 A#3|..|A#1 2A.F ....|--- .... ....|--- .... ....
....|..|--- .... ....|--- .... ....|--- .... ....
 C-3|..|C-1 2F.A ....|--- .... ....|--- .... ....
....|..|--- .... ....|--- .... ....|--- .... ....
 F-2|..|F-1 2F.7 ....|--- .... ....|--- .... ....
....|..|--- .... ....|--- .... ....|--- .... ....
 F-3|..|F-1 2A.F ....|--- .... ....|--- .... ....
....|..|--- .... ....|--- .... ....|--- .... ....
 C-3|..|C-1 2F.7 ....|--- .... ....|--- .... ....
....|..|--- .... ....|--- .... ....|--- .... ....
 A-2|..|A-1 2F.7 ....|--- .... ....|--- .... ....
....|..|--- .... ....|--- .... ....|--- .... ....
 A#3|..|A#1 2A.F ....|--- .... ....|A#4 2FAF ....
....|..|--- .... ....|--- .... ....|--- .... ....
....|..|--- .... ....|--- .... ....|R-- .... ....
....|..|--- .... ....|--- .... ....|--- .... ....
 F-3|..|F-1 2A.F ....|--- .... ....|--- .... ....
....|..|--- .... ....|--- .... ....|--- .... ....
 F-3|..|F-1 2F.7 ....|--- .... ....|A#4 2FAF ....
....|..|--- .... ....|--- .... ....|--- .... ....
 A#3|..|A#1 2A.F ....|--- .... ....|R-- .... ....
....|..|--- .... ....|--- .... ....|--- .... ....
 F-3|..|F-1 2F.A ....|--- .... ....|--- .... ....
....|..|--- .... ....|--- .... ....|--- .... ....
 F#3|..|F#1 2A.F ....|--- .... ....|A#4 2FA7 ....
....|..|--- .... ....|--- .... ....|--- .... ....
 A#3|..|A#1 2F.A ....|--- .... ....|R-- .... ....
....|..|--- .... ....|--- .... ....|--- .... ....
 F-3|..|F-1 2F.7 ....|--- .... ....|--- .... ....
....|..|R-- .... ....|--- .... ....|--- .... ....
 C#4|..|C#2 2A.F ....|--- .... ....|A#4 2FA7 ....
....|..|--- .... ....|--- .... ....|--- .... ....
 A#3|..|A#1 2F.7 ....|--- .... ....|R-- .... ....
....|..|--- .... ....|--- .... ....|--- .... ....
....|..|--- .... ....|--- .... ....|--- .... ....
....|..|R-- .... ....|--- .... ....|--- .... ....
 F-3|..|F-1 2A.F ....|--- .... ....|C-4 2FCF ....
....|..|--- .... ....|--- .... ....|--- .... ....
....|..|--- .... ....|--- .... ....|R-- .... ....
....|..|--- .... ....|--- .... ....|--- .... ....
 C-4|..|C-2 2A.F ....|--- .... ....|--- .... ....
....|..|R-- .... ....|--- .... ....|--- .... ....
 C#4|..|C#2 2F.7 ....|--- .... ....|C-4 2FCF ....
....|..|--- .... ....|--- .... ....|--- .... ....
 F-3|..|F-1 2A.F ....|--- .... ....|R-- .... ....
....|..|--- .... ....|--- .... ....|--- .... ....
 C-4|..|C-2 2F.A ....|--- .... ....|--- .... ....
....|..|R-- .... ....|--- .... ....|--- .... ....
 F-3|..|F-1 2A.F ....|--- .... ....|C-4 2FC7 ....
....|..|--- .... ....|--- .... ....|--- .... ....
 F-3|..|F-1 2F.A ....|--- .... ....|R-- .... ....
....|..|--- .... ....|--- .... ....|--- .... ....
 C-4|..|C-2 2F.7 ....|--- .... ....|--- .... ....
....|..|--- .... ....|--- .... ....|--- .... ....
 D-4|..|D-2 2A.F ....|--- .... ....|C-4 2FC7 ....
....|..|--- .... ....|--- .... ....|--- .... ....

[Pattern11]
 F-3|..|F-1 2F.7 ....|--- .... ....|R-- .... ....
....|..|--- .... ....|--- .... ....|--- .... ....
....|..|--- .... ....|--- .... ....|--- .... ....
....|..|--- .... ....|--- .... ....|--- .... ....
 F-3|..|F-1 2A.F ....|--- .... ....|A#4 2FAF ....
....|..|--- .... ....|--- .... ....|--- .... ....
....|..|--- .... ....|--- .... ....|R-- .... ....
....|..|--- .... ....|--- .... ....|--- .... ....
 D-4|..|D-2 2A.F ....|--- .... ....|--- .... ....
....|..|--- .... ....|--- .... ....|--- .... ....
 D-4|..|D-2 2F.7 ....|--- .... ....|A#4 2FAF ....
....|..|--- .... ....|--- .... ....|--- .... ....
 F-3|..|F-1 2A.F ....|--- .... ....|R-- .... ....
....|..|--- .... ....|--- .... ....|--- .... ....
 D-4|..|D-2 2F.A ....|--- .... ....|--- .... ....
....|..|--- .... ....|--- .... ....|--- .... ....
 F#3|..|F#1 2A.F ....|--- .... ....|A#4 2FA7 ....
....|..|--- .... ....|--- .... ....|--- .... ....
 F-3|..|F-1 2F.A ....|--- .... ....|R-- .... ....
....|..|--- .... ....|--- .... ....|--- .... ....
 D-4|..|D-2 2F.7 ....|--- .... ....|--- .... ....
....|..|R-- .... ....|--- .... ....|--- .... ....
 C#4|..|C#2 2A.F ....|--- .... ....|A#4 2FA7 ....
....|..|--- .... ....|--- .... ....|--- .... ....
 F-3|..|F-1 2F.7 ....|--- .... ....|R-- .... ....
....|..|--- .... ....|--- .... ....|--- .... ....
....|..|--- .... ....|--- .... ....|--- .... ....
....|..|R-- .... ....|--- .... ....|--- .... ....
 G#3|..|G#1 2A.F ....|--- .... ....|G#4 2FBF ....
....|..|--- .... ....|--- .... ....|--- .... ....
....|..|--- .... ....|--- .... ....|R-- .... ....
....|..|--- .... ....|--- .... ....|--- .... ....
 D#4|..|D#2 2A.F ....|--- .... ....|--- .... ....
....|..|R-- .... ....|--- .... ....|--- .... ....
 C#4|..|C#2 2F.7 ....|--- .... ....|G#4 2FBF ....
....|..|--- .... ....|--- .... ....|--- .... ....
 G#3|..|G#1 2A.F ....|--- .... ....|R-- .... ....
....|..|--- .... ....|--- .... ....|--- .... ....
 D#4|..|D#2 2F.A ....|--- .... ....|--- .... ....
....|..|R-- .... ....|--- .... ....|--- .... ....
 G-3|..|G-1 2A.F ....|--- .... ....|G#4 2FB7 ....
....|..|--- .... ....|--- .... ....|--- .... ....
 G#3|..|G#1 2F.A ....|--- .... ....|R-- .... ....
....|..|--- .... ....|--- .... ....|--- .... ....
 D#4|..|D#2 2F.7 ....|--- .... ....|--- .... ....
....|..|R-- .... ....|--- .... ....|--- .... ....
 D-3|..|D-1 2A.F ....|--- .... ....|G#4 2FB7 ....
....|..|--- .... ....|--- .... ....|--- .... ....
 G#3|..|G#1 2F.7 ....|--- .... ....|R-- .... ....
....|..|--- .... ....|--- .... ....|--- .... ....
....|..|--- .... ....|--- .... ....|--- .... ....
....|..|R-- .... ....|--- .... ....|--- .... ....
 D-3|..|D-1 2A.F ....|--- .... ....|G-4 2F9F ....
....|..|--- .... ....|--- .... ....|--- .... ....
....|..|--- .... ....|--- .... ....|R-- .... ....
....|..|--- .... ....|--- .... ....|--- .... ....
 G-3|..|G-1 2A.F ....|--- .... ....|--- .... ....
....|..|R-- .... ....|--- .... ....|--- .... ....
 D-3|..|D-1 2F.7 ....|--- .... ....|G-4 2F9F ....
....|..|--- .... ....|--- .... ....|--- .... ....
 G-3|..|G-1 2A.F ....|--- .... ....|R-- .... ....
....|..|--- .... ....|--- .... ....|--- .... ....
 G-3|..|G-1 2F.A ....|--- .... ....|--- .... ....
....|..|R-- .... ....|--- .... ....|--- .... ....

[Pattern12]
 C-3|..|C-1 2A.F ....|--- .... ....|G-4 2F97 ....
....|..|--- .... ....|--- .... ....|--- .... ....
 G-3|..|G-1 2F.A ....|--- .... ....|R-- .... ....
....|..|--- .... ....|--- .... ....|--- .... ....
 G-3|..|G-1 2F.7 ....|--- .... ....|--- .... ....
....|..|R-- .... ....|--- .... ....|--- .... ....
 G-2|..|G-1 2A.F ....|--- .... ....|G-4 2F97 ....
....|..|--- .... ....|--- .... ....|--- .... ....
 G-3|..|G-1 2F.7 ....|--- .... ....|R-- .... ....
....|..|--- .... ....|--- .... ....|--- .... ....
....|..|--- .... ....|--- .... ....|--- .... ....
....|..|R-- .... ....|--- .... ....|--- .... ....
 C-3|..|C-1 2A.F ....|--- .... ....|G-4 2FCF ....
....|..|--- .... ....|--- .... ....|--- .... ....
....|..|--- .... ....|--- .... ....|R-- .... ....
....|..|--- .... ....|--- .... ....|--- .... ....
 G-2|..|G-1 2A.F ....|--- .... ....|--- .... ....
....|..|R-- .... ....|--- .... ....|--- .... ....
 C-3|..|C-1 2A.F ....|--- .... ....|G-4 2FCF ....
....|..|--- .... ....|--- .... ....|--- .... ....
 G-2|..|G-1 2A.F ....|--- .... ....|R-- .... ....
....|..|--- .... ....|--- .... ....|--- .... ....
 G-2|..|G-1 2F.A ....|--- .... ....|--- .... ....
....|..|R-- .... ....|--- .... ....|--- .... ....
 D#3|..|D#1 2A.F ....|--- .... ....|G-4 2FC7 ....
....|..|--- .... ....|--- .... ....|--- .... ....
 G-2|..|G-1 2F.A ....|--- .... ....|R-- .... ....
....|..|--- .... ....|--- .... ....|--- .... ....
 G-2|..|G-1 2F.7 ....|--- .... ....|--- .... ....
....|..|R-- .... ....|--- .... ....|--- .... ....
 A#2|..|A#1 2A.F ....|--- .... ....|G-4 2FC7 ....
....|..|--- .... ....|--- .... ....|--- .... ....
 G-2|..|G-1 2F.7 ....|--- .... ....|R-- .... ....
....|..|--- .... ....|--- .... ....|--- .... ....
....|..|--- .... ....|--- .... ....|--- .... ....
....|..|R-- .... ....|--- .... ....|--- .... ....
 D#3|..|D#1 2A.F ....|--- .... ....|G-4 2F4F ....
....|..|--- .... ....|--- .... ....|--- .... ....
....|..|--- .... ....|--- .... ....|R-- .... ....
....|..|--- .... ....|--- .... ....|--- .... ....
 F-3|..|F-1 2A.F ....|--- .... ....|--- .... ....
....|..|R-- .... ....|--- .... ....|--- .... ....
 A#2|..|A#1 2F.7 ....|--- .... ....|G-4 2F4F ....
....|..|--- .... ....|--- .... ....|--- .... ....
 D#3|..|D#1 2A.F ....|--- .... ....|R-- .... ....
....|..|--- .... ....|--- .... ....|--- .... ....
 F-3|..|F-1 2F.A ....|--- .... ....|--- .... ....
....|..|R-- .... ....|--- .... ....|--- .... ....
 F-3|..|F-1 2A.F ....|--- .... ....|G-4 2F47 ....
....|..|--- .... ....|--- .... ....|--- .... ....
 D#3|..|D#1 2F.A ....|--- .... ....|R-- .... ....
....|..|--- .... ....|--- .... ....|--- .... ....
 F-3|..|F-1 2F.7 ....|--- .... ....|--- .... ....
....|..|R-- .... ....|--- .... ....|--- .... ....
 C-3|..|C-1 2A.F ....|--- .... ....|G-4 2F47 ....
....|..|--- .... ....|--- .... ....|--- .... ....
 D#3|..|D#1 2F.7 ....|--- .... ....|R-- .... ....
....|..|--- .... ....|--- .... ....|--- .... ....
....|..|--- .... ....|--- .... ....|--- .... ....
....|..|R-- .... ....|--- .... ....|--- .... ....
 F-3|..|F-1 2A.F ....|--- .... ....|F-4 2FBF ....
....|..|--- .... ....|--- .... ....|--- .... ....
....|..|--- .... ....|--- .... ....|R-- .... ....
....|..|--- .... ....|--- .... ....|--- .... ....

[Pattern13]
 C-3|..|C-1 2A.F ....|--- .... ....|--- .... ....
....|..|R-- .... ....|--- .... ....|--- .... ....
 C-3|..|C-1 2F.7 ....|--- .... ....|F-4 2FBF ....
....|..|--- .... ....|--- .... ....|--- .... ....
 F-2|..|F-1 2A.F ....|--- .... ....|R-- .... ....
....|..|--- .... ....|--- .... ....|--- .... ....
 C-3|..|C-1 2F.A ....|--- .... ....|--- .... ....
....|..|R-- .... ....|--- .... ....|--- .... ....
 A#3|..|A#1 2A.F ....|--- .... ....|F-4 2FB7 ....
....|..|--- .... ....|--- .... ....|--- .... ....
 F-2|..|F-1 2F.A ....|--- .... ....|R-- .... ....
....|..|--- .... ....|--- .... ....|--- .... ....
 C-3|..|C-1 2F.7 ....|--- .... ....|--- .... ....
....|..|--- .... ....|--- .... ....|--- .... ....
 F-3|..|F-1 2A.F ....|--- .... ....|F-4 2FB7 ....
....|..|--- .... ....|--- .... ....|--- .... ....
 F-2|..|F-1 2F.7 ....|--- .... ....|R-- .... ....
....|..|--- .... ....|--- .... ....|--- .... ....
....|..|--- .... ....|--- .... ....|--- .... ....
....|..|--- .... ....|--- .... ....|--- .... ....
 A#3|..|A#1 2A.F ....|--- .... ....|A#4 2FAF ....
....|..|--- .... ....|--- .... ....|--- .... ....
....|..|--- .... ....|--- .... ....|R-- .... ....
....|..|--- .... ....|--- .... ....|--- .... ....
 F-3|..|F-1 2A.F ....|--- .... ....|--- .... ....
....|..|--- .... ....|--- .... ....|--- .... ....
 F-3|..|F-1 2F.7 ....|--- .... ....|A#4 2FAF ....
....|..|--- .... ....|--- .... ....|--- .... ....
 A#3|..|A#1 2A.F ....|--- .... ....|R-- .... ....
....|..|--- .... ....|--- .... ....|--- .... ....
 F-3|..|F-1 2F.A ....|--- .... ....|--- .... ....
....|..|--- .... ....|--- .... ....|--- .... ....
 F#3|..|F#1 2A.F ....|--- .... ....|A#4 2FA7 ....
....|..|--- .... ....|--- .... ....|--- .... ....
 A#3|..|A#1 2F.A ....|--- .... ....|R-- .... ....
....|..|--- .... ....|--- .... ....|--- .... ....
 F-3|..|F-1 2F.7 ....|--- .... ....|--- .... ....
....|..|R-- .... ....|--- .... ....|--- .... ....
 C#4|..|C#2 2A.F ....|--- .... ....|A#4 2FA7 ....
....|..|--- .... ....|--- .... ....|--- .... ....
 A#3|..|A#1 2F.7 ....|--- .... ....|R-- .... ....
....|..|--- .... ....|--- .... ....|--- .... ....
....|..|--- .... ....|--- .... ....|--- .... ....
....|..|R-- .... ....|--- .... ....|--- .... ....
 F-3|..|F-1 2A.F ....|--- .... ....|C-4 2FCF ....
....|..|--- .... ....|--- .... ....|--- .... ....
....|..|--- .... ....|--- .... ....|R-- .... ....
....|..|--- .... ....|--- .... ....|--- .... ....
 C-4|..|C-2 2A.F ....|--- .... ....|--- .... ....
....|..|R-- .... ....|--- .... ....|--- .... ....
 C#4|..|C#2 2F.7 ....|--- .... ....|C-4 2FCF ....
....|..|--- .... ....|--- .... ....|--- .... ....
 F-3|..|F-1 2A.F ....|--- .... ....|R-- .... ....
....|..|--- .... ....|--- .... ....|--- .... ....
 C-4|..|C-2 2F.A ....|--- .... ....|--- .... ....
....|..|R-- .... ....|--- .... ....|--- .... ....
 F-3|..|F-1 2A.F ....|--- .... ....|C-4 2FC7 ....
....|..|--- .... ....|--- .... ....|--- .... ....
 F-3|..|F-1 2F.A ....|--- .... ....|R-- .... ....
....|..|--- .... ....|--- .... ....|--- .... ....
 C-4|..|C-2 2F.7 ....|--- .... ....|--- .... ....
....|..|--- .... ....|--- .... ....|--- .... ....
 D-4|..|D-2 2A.F ....|--- .... ....|C-4 2FC7 ....
....|..|--- .... ....|--- .... ....|--- .... ....

[Pattern14]
 F-3|..|F-1 2F.7 ....|--- .... ....|R-- .... ....
....|..|--- .... ....|--- .... ....|--- .... ....
....|..|--- .... ....|--- .... ....|--- .... ....
....|..|--- .... ....|--- .... ....|--- .... ....
 F-3|..|F-1 2A.F ....|--- .... ....|A#4 2FAF ....
....|..|--- .... ....|--- .... ....|--- .... ....
....|..|--- .... ....|--- .... ....|R-- .... ....
....|..|--- .... ....|--- .... ....|--- .... ....
 D-4|..|D-2 2A.F ....|--- .... ....|--- .... ....
....|..|--- .... ....|--- .... ....|--- .... ....
 D-4|..|D-2 2F.7 ....|--- .... ....|A#4 2FAF ....
....|..|--- .... ....|--- .... ....|--- .... ....
 F-3|..|F-1 2A.F ....|--- .... ....|R-- .... ....
....|..|--- .... ....|--- .... ....|--- .... ....
 D-4|..|D-2 2F.A ....|--- .... ....|--- .... ....
....|..|--- .... ....|--- .... ....|--- .... ....
 F#3|..|F#1 2A.F ....|--- .... ....|A#4 2FA7 ....
....|..|--- .... ....|--- .... ....|--- .... ....
 F-3|..|F-1 2F.A ....|--- .... ....|R-- .... ....
....|..|--- .... ....|--- .... ....|--- .... ....
 D-4|..|D-2 2F.7 ....|--- .... ....|--- .... ....
....|..|--- .... ....|--- .... ....|--- .... ....
 F#3|..|F#1 2F.A ....|--- .... ....|A#4 2FA7 ....
....|..|--- .... ....|--- .... ....|--- .... ....
 F-3|..|F-1 2F.7 ....|--- .... ....|R-- .... ....
....|..|--- .... ....|--- .... ....|--- .... ....
....|..|--- .... ....|--- .... ....|--- .... ....
....|..|--- .... ....|--- .... ....|--- .... ....
 G#3|..|G#1 2A.F ....|--- .... ....|G#4 2FBF ....
....|..|--- .... ....|--- .... ....|--- .... ....
....|..|--- .... ....|--- .... ....|R-- .... ....
....|..|--- .... ....|--- .... ....|--- .... ....
....|..|--- .... ....|--- .... ....|--- .... ....
....|..|--- .... ....|--- .... ....|--- .... ....
 G#3|..|G#1 2F.A ....|--- .... ....|G#4 2FBF ....
....|..|--- .... ....|--- .... ....|--- .... ....
....|..|--- .... ....|--- .... ....|R-- .... ....
....|..|--- .... ....|--- .... ....|--- .... ....
....|..|--- .... ....|--- .... ....|--- .... ....
....|..|--- .... ....|--- .... ....|--- .... ....
 G-3|..|G-1 2A.F ....|--- .... ....|G#4 2FB7 ....
....|..|--- .... ....|--- .... ....|--- .... ....
....|..|--- .... ....|--- .... ....|R-- .... ....
....|..|--- .... ....|--- .... ....|--- .... ....
....|..|--- .... ....|--- .... ....|--- .... ....
....|..|R-- .... ....|--- .... ....|--- .... ....
 D-3|..|D-1 2A.F ....|--- .... ....|G#4 2FB7 ....
....|..|--- .... ....|--- .... ....|--- .... ....
....|..|--- .... ....|--- .... ....|R-- .... ....
....|..|--- .... ....|--- .... ....|--- .... ....
....|..|--- .... ....|--- .... ....|--- .... ....
....|..|R-- .... ....|--- .... ....|--- .... ....
 D-3|..|D-1 2A.F ....|--- .... ....|D-4 2FDF ....
....|..|--- .... ....|--- .... ....|--- .... ....
....|..|--- .... ....|--- .... ....|R-- .... ....
....|..|--- .... ....|--- .... ....|--- .... ....
 G-3|..|G-1 2A.F ....|--- .... ....|--- .... ....
....|..|R-- .... ....|--- .... ....|--- .... ....
 D-3|..|D-1 2F.7 ....|--- .... ....|D-4 2FDF ....
....|..|--- .... ....|--- .... ....|--- .... ....
 G-3|..|G-1 2A.F ....|--- .... ....|R-- .... ....
....|..|--- .... ....|--- .... ....|--- .... ....
 G-3|..|G-1 2F.A ....|--- .... ....|--- .... ....
....|..|R-- .... ....|--- .... ....|--- .... ....

[Pattern15]
 C-3|..|C-1 2A.F ....|--- .... ....|D-4 2FD7 ....
....|..|--- .... ....|--- .... ....|--- .... ....
 G-3|..|G-1 2F.A ....|--- .... ....|R-- .... ....
....|..|--- .... ....|--- .... ....|--- .... ....
 G-3|..|G-1 2F.7 ....|--- .... ....|--- .... ....
....|..|R-- .... ....|--- .... ....|--- .... ....
 G-2|..|G-1 2A.F ....|--- .... ....|D-4 2FD7 ....
....|..|--- .... ....|--- .... ....|--- .... ....
 G-3|..|G-1 2F.7 ....|--- .... ....|R-- .... ....
....|..|--- .... ....|--- .... ....|--- .... ....
....|..|--- .... ....|--- .... ....|--- .... ....
....|..|R-- .... ....|--- .... ....|--- .... ....
 C-3|..|C-1 2A.F ....|--- .... ....|E-4 2FEF ....
....|..|--- .... ....|--- .... ....|--- .... ....
....|..|--- .... ....|--- .... ....|R-- .... ....
....|..|--- .... ....|--- .... ....|--- .... ....
 G-2|..|G-1 2A.F ....|--- .... ....|--- .... ....
....|..|R-- .... ....|--- .... ....|--- .... ....
 C-3|..|C-1 2A.F ....|--- .... ....|E-4 2FEF ....
....|..|--- .... ....|--- .... ....|--- .... ....
 G-2|..|G-1 2A.F ....|--- .... ....|R-- .... ....
....|..|--- .... ....|--- .... ....|--- .... ....
 G-2|..|G-1 2F.A ....|--- .... ....|--- .... ....
....|..|R-- .... ....|--- .... ....|--- .... ....
 C#3|..|C#1 2A.F ....|--- .... ....|E-4 2FE7 ....
....|..|--- .... ....|--- .... ....|--- .... ....
 G-2|..|G-1 2F.A ....|--- .... ....|R-- .... ....
....|..|--- .... ....|--- .... ....|--- .... ....
 G-2|..|G-1 2F.7 ....|--- .... ....|--- .... ....
....|..|--- .... ....|--- .... ....|--- .... ....
 C#3|..|C#1 2A.F ....|--- .... ....|E-4 2FE7 ....
....|..|--- .... ....|--- .... ....|--- .... ....
 G-2|..|G-1 2F.7 ....|--- .... ....|R-- .... ....
....|..|--- .... ....|--- .... ....|--- .... ....
....|..|--- .... ....|--- .... ....|--- .... ....
....|..|--- .... ....|--- .... ....|--- .... ....
 C#3|..|C#1 2A.F ....|--- .... ....|F-4 2FDF ....
....|..|--- .... ....|--- .... ....|--- .... ....
....|..|--- .... ....|--- .... ....|R-- .... ....
....|..|--- .... ....|--- .... ....|--- .... ....
 G#2|..|G#1 2A.F ....|--- .... ....|--- .... ....
....|..|--- .... ....|--- .... ....|--- .... ....
 C#3|..|C#1 2F.7 ....|--- .... ....|F-4 2FDF ....
....|..|--- .... ....|--- .... ....|--- .... ....
 C#3|..|C#1 2A.F ....|--- .... ....|R-- .... ....
....|..|--- .... ....|--- .... ....|--- .... ....
 G#2|..|G#1 2F.A ....|--- .... ....|--- .... ....
....|..|--- .... ....|--- .... ....|--- .... ....
 D#3|..|D#1 2A.F ....|--- .... ....|F-4 2FD7 ....
....|..|--- .... ....|--- .... ....|--- .... ....
 C#3|..|C#1 2F.A ....|--- .... ....|R-- .... ....
....|..|--- .... ....|--- .... ....|--- .... ....
 G#2|..|G#1 2F.7 ....|--- .... ....|--- .... ....
....|..|--- .... ....|--- .... ....|--- .... ....
 A#3|..|A#1 2A.F ....|--- .... ....|F-4 2FD7 ....
....|..|--- .... ....|--- .... ....|--- .... ....
 C#3|..|C#1 2F.7 ....|--- .... ....|R-- .... ....
....|..|--- .... ....|--- .... ....|--- .... ....
....|..|--- .... ....|--- .... ....|--- .... ....
....|..|--- .... ....|--- .... ....|--- .... ....
 D#3|..|D#1 2A.F ....|--- .... ....|D#4 2FBF ....
....|..|--- .... ....|--- .... ....|--- .... ....
....|..|--- .... ....|--- .... ....|R-- .... ....
....|..|--- .... ....|--- .... ....|--- .... ....

[Pattern16]
 A#3|..|A#1 2A.F ....|--- .... ....|--- .... ....
....|..|--- .... ....|--- .... ....|--- .... ....
 A#3|..|A#1 2F.7 ....|--- .... ....|D#4 2FBF ....
....|..|--- .... ....|--- .... ....|--- .... ....
 D#3|..|D#1 2A.F ....|--- .... ....|R-- .... ....
....|..|--- .... ....|--- .... ....|--- .... ....
 A#3|..|A#1 2F.A ....|--- .... ....|--- .... ....
....|..|--- .... ....|--- .... ....|--- .... ....
 C#3|..|C#1 2A.F ....|--- .... ....|D#4 2FB7 ....
....|..|--- .... ....|--- .... ....|--- .... ....
 D#3|..|D#1 2F.A ....|--- .... ....|R-- .... ....
....|..|--- .... ....|--- .... ....|--- .... ....
 A#3|..|A#1 2F.7 ....|--- .... ....|--- .... ....
....|..|--- .... ....|--- .... ....|--- .... ....
 C#3|..|C#1 2A.F ....|--- .... ....|D#4 2FB7 ....
....|..|--- .... ....|--- .... ....|--- .... ....
 D#3|..|D#1 2F.7 ....|--- .... ....|R-- .... ....
....|..|--- .... ....|--- .... ....|--- .... ....
....|..|--- .... ....|--- .... ....|--- .... ....
....|..|--- .... ....|--- .... ....|--- .... ....
 C#3|..|C#1 2A.F ....|--- .... ....|F-4 2FDF ....
....|..|--- .... ....|--- .... ....|--- .... ....
....|..|--- .... ....|--- .... ....|R-- .... ....
....|..|--- .... ....|--- .... ....|--- .... ....
 G#2|..|G#1 2A.F ....|--- .... ....|--- .... ....
....|..|--- .... ....|--- .... ....|--- .... ....
 C#3|..|C#1 2F.7 ....|--- .... ....|F-4 2FDF ....
....|..|--- .... ....|--- .... ....|--- .... ....
 C#3|..|C#1 2A.F ....|--- .... ....|R-- .... ....
....|..|--- .... ....|--- .... ....|--- .... ....
 G#2|..|G#1 2F.A ....|--- .... ....|--- .... ....
....|..|--- .... ....|--- .... ....|--- .... ....
 C-3|..|C-1 2A.F ....|--- .... ....|G-4 2F3F ....
....|..|--- .... ....|--- .... ....|--- .... ....
 C#3|..|C#1 2F.A ....|--- .... ....|R-- .... ....
....|..|--- .... ....|--- .... ....|--- .... ....
 G#2|..|G#1 2F.7 ....|--- .... ....|--- .... ....
....|..|--- .... ....|--- .... ....|--- .... ....
 C-3|..|C-1 2F.A ....|--- .... ....|G-4 2F3F ....
....|..|--- .... ....|--- .... ....|--- .... ....
 G-3|..|G-1 2A.F ....|--- .... ....|R-- .... ....
....|..|--- .... ....|--- .... ....|--- .... ....
 F#3|..|F#1 2A.F ....|--- .... ....|--- .... ....
....|..|--- .... ....|--- .... ....|--- .... ....
 F-3|..|F-1 2A.F ....|--- .... ....|C-4 2FFF ....
....|..|--- .... ....|--- .... ....|--- .... ....
 G-3|..|G-1 2F.A ....|--- .... ....|R-- .... ....
....|..|--- .... ....|--- .... ....|--- .... ....
 F#3|..|F#1 2F.A ....|--- .... ....|--- .... ....
....|..|--- .... ....|--- .... ....|--- .... ....
 F-3|..|F-1 2F.A ....|--- .... ....|G-4 2F37 ....
....|..|--- .... ....|--- .... ....|--- .... ....
 G-3|..|G-1 2F.7 ....|--- .... ....|R-- .... ....
....|..|--- .... ....|--- .... ....|--- .... ....
 F#3|..|F#1 2F.7 ....|--- .... ....|--- .... ....
....|..|--- .... ....|--- .... ....|--- .... ....
 D#3|..|D#1 2A.F ....|--- .... ....|C-4 2FF7 ....
....|..|--- .... ....|--- .... ....|--- .... ....
....|..|--- .... ....|--- .... ....|R-- .... ....
....|..|--- .... ....|--- .... ....|--- .... ....
....|..|--- .... ....|--- .... ....|--- .... ....
....|..|--- .... ....|--- .... ....|--- .... ....
 G-3|..|G-1 2A.F ....|--- .... ....|--- .... ....
....|..|--- .... ....|--- .... ....|--- .... ....

[Pattern17]
....|..|--- .... ....|--- .... ....|--- .... ....
....|..|R-- .... ....|--- .... ....|--- .... ....
 G-3|..|G-1 2A.F ....|--- .... ....|--- .... ....
....|..|--- .... ....|--- .... ....|--- .... ....
 A#3|..|A#1 2A.F ....|--- .... ....|--- .... ....
....|..|--- .... ....|--- .... ....|--- .... ....
....|..|--- .... ....|--- .... ....|--- .... ....
....|..|R-- .... ....|--- .... ....|--- .... ....
 C-4|..|C-2 2A.F ....|--- .... ....|--- .... ....
....|..|--- .... ....|--- .... ....|--- .... ....
 A#3|..|A#1 2A.F ....|--- .... ....|--- .... ....
....|..|--- .... ....|--- .... ....|--- .... ....
....|..|--- .... ....|--- .... ....|--- .... ....
....|..|R-- .... ....|--- .... ....|--- .... ....
 C-4|..|C-2 2A.F ....|--- .... ....|--- .... ....
....|..|--- .... ....|--- .... ....|--- .... ....
 F-3|..|F-1 2A.F ....|--- .... ....|--- .... ....
....|..|--- .... ....|--- .... ....|--- .... ....
....|..|--- .... ....|--- .... ....|--- .... ....
....|..|--- .... ....|--- .... ....|--- .... ....
 C-4|..|C-2 2F.7 ....|--- .... ....|--- .... ....
....|..|--- .... ....|--- .... ....|--- .... ....
 C-4|..|C-2 2A.F ....|--- .... ....|--- .... ....
....|..|--- .... ....|--- .... ....|--- .... ....
 F-3|..|F-1 2A.F ....|--- .... ....|--- .... ....
....|..|--- .... ....|--- .... ....|--- .... ....
 C-4|..|C-2 2A.F ....|--- .... ....|--- .... ....
....|..|--- .... ....|--- .... ....|--- .... ....
 F-3|..|F-1 2A.F ....|--- .... ....|--- .... ....
....|..|--- .... ....|--- .... ....|--- .... ....
 F-3|..|F-1 2F.A ....|--- .... ....|--- .... ....
....|..|--- .... ....|--- .... ....|--- .... ....
 C-4|..|C-2 2F.A ....|--- .... ....|--- .... ....
....|..|--- .... ....|--- .... ....|--- .... ....
 C-4|..|C-2 2F.7 ....|--- .... ....|--- .... ....
....|..|--- .... ....|--- .... ....|--- .... ....
 F-3|..|F-1 2F.7 ....|--- .... ....|--- .... ....
....|..|--- .... ....|--- .... ....|--- .... ....
 C-4|..|C-2 2F.7 ....|--- .... ....|--- .... ....
....|..|--- .... ....|--- .... ....|--- .... ....
 D#3|..|D#1 2A.F ....|--- .... ....|--- .... ....
....|..|--- .... ....|--- .... ....|--- .... ....
....|..|--- .... ....|--- .... ....|--- .... ....
....|..|--- .... ....|--- .... ....|--- .... ....
....|..|--- .... ....|--- .... ....|--- .... ....
....|..|--- .... ....|--- .... ....|--- .... ....
....|..|R-- .... ....|--- .... ....|--- .... ....
....|..|--- .... ....|--- .... ....|--- .... ....
 A#2|..|A#1 2A.F ....|--- .... ....|--- .... ....
....|..|--- .... ....|--- .... ....|--- .... ....
....|..|--- .... ....|--- .... ....|--- .... ....
....|..|--- .... ....|--- .... ....|--- .... ....
 D#3|..|D#1 2A.F ....|--- .... ....|--- .... ....
....|..|--- .... ....|--- .... ....|--- .... ....
 A#2|..|A#1 2F.A ....|--- .... ....|--- .... ....
....|..|--- .... ....|--- .... ....|--- .... ....
....|..|--- .... ....|--- .... ....|--- .... ....
....|..|--- .... ....|--- .... ....|--- .... ....
....|..|R-- .... ....|--- .... ....|--- .... ....
....|..|--- .... ....|--- .... ....|--- .... ....
 D#3|..|D#1 2A.F ....|--- .... ....|--- .... ....
....|..|--- .... ....|--- .... ....|--- .... ....
 E-3|..|E-1 2A.F ....|--- .... ....|--- .... ....
....|..|--- .... ....|--- .... ....|--- .... ....

[Pattern18]
 F-3|..|F-1 2A.F ....|--- .... ....|--- .... ....
....|..|--- .... ....|--- .... ....|--- .... ....
 D#3|..|D#1 2F.A ....|--- .... ....|--- .... ....
....|..|--- .... ....|--- .... ....|--- .... ....
 E-3|..|E-1 2F.A ....|--- .... ....|--- .... ....
....|..|--- .... ....|--- .... ....|--- .... ....
 C-3|..|C-1 2A.F ....|--- .... ....|--- .... ....
....|..|--- .... ....|--- .... ....|--- .... ....
 F-3|..|F-1 2A.F ....|--- .... ....|--- .... ....
....|..|--- .... ....|--- .... ....|--- .... ....
 E-3|..|E-1 2F.7 ....|--- .... ....|--- .... ....
....|..|R-- .... ....|--- .... ....|--- .... ....
 F-3|..|F-1 2A.F ....|--- .... ....|--- .... ....
....|..|--- .... ....|--- .... ....|--- .... ....
 F-3|..|F-1 2F.A ....|--- .... ....|--- .... ....
....|..|--- .... ....|--- .... ....|--- .... ....
....|..|--- .... ....|--- .... ....|--- .... ....
....|..|R-- .... ....|--- .... ....|--- .... ....
 D#3|..|D#1 2A.F ....|--- .... ....|--- .... ....
....|..|--- .... ....|--- .... ....|--- .... ....
 D-3|..|D-1 2A.F ....|--- .... ....|--- .... ....
....|..|--- .... ....|--- .... ....|--- .... ....
....|..|--- .... ....|--- .... ....|--- .... ....
....|..|R-- .... ....|--- .... ....|--- .... ....
 C#3|..|C#1 2A.F ....|--- .... ....|--- .... ....
....|..|--- .... ....|--- .... ....|--- .... ....
 D-3|..|D-1 2F.A ....|--- .... ....|--- .... ....
....|..|--- .... ....|--- .... ....|--- .... ....
....|..|--- .... ....|--- .... ....|--- .... ....
....|..|--- .... ....|--- .... ....|--- .... ....
 G#2|..|G#1 2A.F ....|--- .... ....|--- .... ....
....|..|--- .... ....|--- .... ....|--- .... ....
 D-3|..|D-1 2F.7 ....|--- .... ....|--- .... ....
....|..|--- .... ....|--- .... ....|--- .... ....
....|..|--- .... ....|--- .... ....|--- .... ....
....|..|--- .... ....|--- .... ....|--- .... ....
 C#3|..|C#1 2F.7 ....|--- .... ....|--- .... ....
....|..|--- .... ....|--- .... ....|--- .... ....
....|..|--- .... ....|--- .... ....|--- .... ....
....|..|--- .... ....|--- .... ....|--- .... ....
 C#3|..|C#1 2A.F ....|--- .... ....|--- .... ....
....|..|--- .... ....|--- .... ....|--- .... ....
 G#2|..|G#1 2F.7 ....|--- .... ....|--- .... ....
....|..|--- .... ....|--- .... ....|--- .... ....
 G#2|..|G#1 2A.F ....|--- .... ....|--- .... ....
....|..|--- .... ....|--- .... ....|--- .... ....
 C#3|..|C#1 2A.F ....|--- .... ....|--- .... ....
....|..|--- .... ....|--- .... ....|--- .... ....
 D#3|..|D#1 2A.F ....|--- .... ....|--- .... ....
....|..|--- .... ....|--- .... ....|--- .... ....
 G#2|..|G#1 2F.A ....|--- .... ....|--- .... ....
....|..|--- .... ....|--- .... ....|--- .... ....
 C#3|..|C#1 2F.7 ....|--- .... ....|--- .... ....
....|..|--- .... ....|--- .... ....|--- .... ....
 A#3|..|A#1 2A.F ....|--- .... ....|--- .... ....
....|..|--- .... ....|--- .... ....|--- .... ....
 G#2|..|G#1 2F.7 ....|--- .... ....|--- .... ....
....|..|--- .... ....|--- .... ....|--- .... ....
 C#3|..|C#1 2F.7 ....|--- .... ....|--- .... ....
....|..|--- .... ....|--- .... ....|--- .... ....
 D#3|..|D#1 2A.F ....|--- .... ....|--- .... ....
....|..|--- .... ....|--- .... ....|--- .... ....
....|..|--- .... ....|--- .... ....|--- .... ....
....|..|--- .... ....|--- .... ....|--- .... ....

[Pattern19]
 A#3|..|A#1 2A.F ....|--- .... ....|--- .... ....
....|..|--- .... ....|--- .... ....|--- .... ....
 A#3|..|A#1 2F.7 ....|--- .... ....|--- .... ....
....|..|--- .... ....|--- .... ....|--- .... ....
 D#3|..|D#1 2A.F ....|--- .... ....|--- .... ....
....|..|--- .... ....|--- .... ....|--- .... ....
 A#3|..|A#1 2F.A ....|--- .... ....|--- .... ....
....|..|--- .... ....|--- .... ....|--- .... ....
 E-3|..|E-1 2A.F ....|--- .... ....|--- .... ....
....|..|--- .... ....|--- .... ....|--- .... ....
 D#3|..|D#1 2F.A ....|--- .... ....|--- .... ....
....|..|--- .... ....|--- .... ....|--- .... ....
 A#3|..|A#1 2F.7 ....|--- .... ....|--- .... ....
....|..|--- .... ....|--- .... ....|--- .... ....
 B-3|..|B-1 2A.F ....|--- .... ....|--- .... ....
....|..|--- .... ....|--- .... ....|--- .... ....
 D#3|..|D#1 2F.7 ....|--- .... ....|--- .... ....
....|..|--- .... ....|--- .... ....|--- .... ....
....|..|--- .... ....|--- .... ....|--- .... ....
....|..|--- .... ....|--- .... ....|--- .... ....
 E-3|..|E-1 2F.7 ....|--- .... ....|--- .... ....
....|..|--- .... ....|--- .... ....|--- .... ....
....|..|--- .... ....|--- .... ....|--- .... ....
....|..|--- .... ....|--- .... ....|--- .... ....
 E-3|..|E-1 2A.F ....|--- .... ....|--- .... ....
....|..|--- .... ....|--- .... ....|--- .... ....
 B-3|..|B-1 2F.7 ....|--- .... ....|--- .... ....
....|..|--- .... ....|--- .... ....|--- .... ....
 B-3|..|B-1 2A.F ....|--- .... ....|--- .... ....
....|..|--- .... ....|--- .... ....|--- .... ....
 E-3|..|E-1 2A.F ....|--- .... ....|--- .... ....
....|..|--- .... ....|--- .... ....|--- .... ....
 F#3|..|F#1 2A.F ....|--- .... ....|--- .... ....
....|..|--- .... ....|--- .... ....|--- .... ....
 B-3|..|B-1 2F.A ....|--- .... ....|--- .... ....
....|..|--- .... ....|--- .... ....|--- .... ....
 E-3|..|E-1 2F.7 ....|--- .... ....|--- .... ....
....|..|--- .... ....|--- .... ....|--- .... ....
 F#3|..|F#1 2F.A ....|--- .... ....|--- .... ....
....|..|--- .... ....|--- .... ....|--- .... ....
 B-3|..|B-1 2F.7 ....|--- .... ....|--- .... ....
....|..|--- .... ....|--- .... ....|--- .... ....
 E-3|..|E-1 2F.7 ....|--- .... ....|--- .... ....
....|..|--- .... ....|--- .... ....|--- .... ....
 F#3|..|F#1 2F.7 ....|--- .... ....|--- .... ....
....|..|--- .... ....|--- .... ....|--- .... ....
....|..|--- .... ....|--- .... ....|--- .... ....
....|..|--- .... ....|--- .... ....|--- .... ....
 C#3|..|C#1 2A.F ....|--- .... ....|--- .... ....
....|..|--- .... ....|--- .... ....|--- .... ....
....|..|--- .... ....|--- .... ....|--- .... ....
....|..|--- .... ....|--- .... ....|--- .... ....
 F#3|..|F#1 2A.F ....|--- .... ....|--- .... ....
....|..|--- .... ....|--- .... ....|--- .... ....
 C#3|..|C#1 2F.A ....|--- .... ....|--- .... ....
....|..|--- .... ....|--- .... ....|--- .... ....
 G#3|..|G#1 2A.F ....|--- .... ....|--- .... ....
....|..|--- .... ....|--- .... ....|--- .... ....
 F#3|..|F#1 2F.A ....|--- .... ....|--- .... ....
....|..|--- .... ....|--- .... ....|--- .... ....
 C#3|..|C#1 2F.7 ....|--- .... ....|--- .... ....
....|..|--- .... ....|--- .... ....|--- .... ....
 G#3|..|G#1 2A.F ....|--- .... ....|--- .... ....
....|..|--- .... ....|--- .... ....|--- .... ....

[Pattern20]
 F#3|..|F#1 2F.7 ....|--- .... ....|--- .... ....
....|..|--- .... ....|--- .... ....|--- .... ....
....|..|--- .... ....|--- .... ....|--- .... ....
....|..|--- .... ....|--- .... ....|--- .... ....
 G#3|..|G#1 2A.F ....|--- .... ....|--- .... ....
....|..|--- .... ....|--- .... ....|--- .... ....
....|..|--- .... ....|--- .... ....|--- .... ....
....|..|--- .... ....|--- .... ....|--- .... ....
 G#3|..|G#1 2A.F ....|--- .... ....|--- .... ....
....|..|--- .... ....|--- .... ....|--- .... ....
 G#3|..|G#1 2F.7 ....|--- .... ....|--- .... ....
....|..|--- .... ....|--- .... ....|--- .... ....
 D#3|..|D#1 2A.F ....|--- .... ....|--- .... ....
....|..|--- .... ....|--- .... ....|--- .... ....
 G#3|..|G#1 2F.A ....|--- .... ....|--- .... ....
....|..|--- .... ....|--- .... ....|--- .... ....
 G#2|..|G#1 2A.F ....|--- .... ....|--- .... ....
....|..|--- .... ....|--- .... ....|--- .... ....
 D#3|..|D#1 2F.A ....|--- .... ....|--- .... ....
....|..|--- .... ....|--- .... ....|--- .... ....
 G#3|..|G#1 2F.7 ....|--- .... ....|--- .... ....
....|..|--- .... ....|--- .... ....|--- .... ....
 G#2|..|G#1 2F.A ....|--- .... ....|--- .... ....
....|..|--- .... ....|--- .... ....|--- .... ....
 D#3|..|D#1 2F.7 ....|--- .... ....|--- .... ....
....|..|--- .... ....|--- .... ....|--- .... ....
....|..|--- .... ....|--- .... ....|--- .... ....
....|..|--- .... ....|--- .... ....|--- .... ....
 G#3|..|G#1 2A.F ....|--- .... ....|--- .... ....
....|..|--- .... ....|--- .... ....|--- .... ....
....|..|--- .... ....|--- .... ....|--- .... ....
....|..|--- .... ....|--- .... ....|--- .... ....
 D#3|..|D#1 2A.F ....|--- .... ....|--- .... ....
....|..|--- .... ....|--- .... ....|--- .... ....
 G#3|..|G#1 2F.A ....|--- .... ....|--- .... ....
....|..|--- .... ....|--- .... ....|--- .... ....
 G#2|..|G#1 2A.F ....|--- .... ....|--- .... ....
....|..|--- .... ....|--- .... ....|--- .... ....
 D#3|..|D#1 2F.A ....|--- .... ....|--- .... ....
....|..|--- .... ....|--- .... ....|--- .... ....
 D#2|..|D#1 2A.F ....|D#4 2F1F ....|--- .... ....
....|..|--- .... ....|G-4 2F7F ....|--- .... ....
 G#2|..|G#1 2F.A ....|A#3 2F.F ....|--- .... ....
....|..|--- .... ....|R-- .... ....|--- .... ....
 D#3|..|D#1 2F.7 ....|R-- .... ....|--- .... ....
....|..|--- .... ....|--- .... ....|--- .... ....
 D#2|..|D#1 2A.F ....|D#4 2F1F ....|--- .... ....
....|..|--- .... ....|G-4 2F7F ....|--- .... ....
 G#2|..|G#1 2F.7 ....|R-- .... ....|--- .... ....
....|..|--- .... ....|R-- .... ....|--- .... ....
....|..|--- .... ....|A#3 2F.F ....|--- .... ....
....|..|--- .... ....|--- .... ....|--- .... ....
 D#2|..|D#1 2F.7 ....|D#4 2F1F ....|--- .... ....
....|..|--- .... ....|G-4 2F7F ....|--- .... ....
....|..|--- .... ....|A#3 2F.F ....|--- .... ....
....|..|--- .... ....|R-- .... ....|--- .... ....
 A#2|..|A#1 2A.F ....|D#4 2F1F ....|--- .... ....
....|..|--- .... ....|G-4 2F7F ....|--- .... ....
 D#2|..|D#1 2F.7 ....|D#4 2F17 ....|--- .... ....
....|..|R-- .... ....|G-4 2F77 ....|--- .... ....
 C-3|..|C-1 2A.F ....|D#4 2F1F ....|--- .... ....
....|..|--- .... ....|R-- .... ....|--- .... ....
 A#2|..|A#1 2A.F ....|A#3 2F.F ....|--- .... ....
....|..|--- .... ....|G-4 2F7A ....|--- .... ....

[Pattern21]
 D#3|..|D#1 2A.F ....|D#4 2F1F ....|--- .... ....
....|..|R-- .... ....|G-4 2F7F ....|--- .... ....
 C-3|..|C-1 2F.A ....|A#3 2F.F ....|--- .... ....
....|..|--- .... ....|R-- .... ....|--- .... ....
 A#2|..|A#1 2F.7 ....|D#4 2F17 ....|--- .... ....
....|..|--- .... ....|G-4 2F77 ....|--- .... ....
 D#3|..|D#1 2A.F ....|D#4 2F1F ....|--- .... ....
....|..|R-- .... ....|G-4 2F7F ....|--- .... ....
 C-3|..|C-1 2F.7 ....|D#4 2F17 ....|--- .... ....
....|..|--- .... ....|R-- .... ....|--- .... ....
 A#2|..|A#1 2F.7 ....|A#3 2F.F ....|--- .... ....
....|..|--- .... ....|--- .... ....|--- .... ....
 D#3|..|D#1 2F.7 ....|D#4 2F1F ....|--- .... ....
....|..|--- .... ....|G-4 2F7F ....|--- .... ....
....|..|R-- .... ....|A#3 2F.F ....|F-4 2F.F ....
....|..|--- .... ....|R-- .... ....|--- .... ....
 A#2|..|A#1 2A.F ....|D#4 2F1F ....|F-4 2F.F ....
....|..|--- .... ....|--- .... ....|--- .... ....
 D#3|..|D#1 2F.7 ....|D#4 2F17 ....|A#4 2F.F ....
....|..|R-- .... ....|G-4 2F77 ....|--- .... ....
 D#3|..|D#1 2A.F ....|D#4 2F1F ....|A#4 2F.F ....
....|..|--- .... ....|G-4 2F7F ....|--- .... ....
 A#2|..|A#1 2A.F ....|A#3 2F.F ....|R-- .... ....
....|..|--- .... ....|R-- .... ....|--- .... ....
 D#3|..|D#1 2A.F ....|D#4 2F1F ....|A#4 2F.A ....
....|..|R-- .... ....|G-4 2F7F ....|--- .... ....
 D#3|..|D#1 2F.A ....|A#3 2F.F ....|F-4 2F.7 ....
....|..|--- .... ....|R-- .... ....|--- .... ....
 A#2|..|A#1 2F.7 ....|D#4 2F17 ....|F-4 2F.7 ....
....|..|--- .... ....|R-- .... ....|--- .... ....
 D#3|..|D#1 2A.F ....|D#4 2F1F ....|A#4 2F.7 ....
....|..|R-- .... ....|G-4 2F7F ....|--- .... ....
 D#3|..|D#1 2F.7 ....|D#4 2F17 ....|A#4 2F.7 ....
....|..|--- .... ....|G-4 2F77 ....|--- .... ....
 A#2|..|A#1 2F.7 ....|A#3 2F.F ....|R-- .... ....
....|..|--- .... ....|R-- .... ....|--- .... ....
 D#3|..|D#1 2F.7 ....|D#4 2F1F ....|--- .... ....
....|..|--- .... ....|G-4 2F7F ....|--- .... ....
....|..|R-- .... ....|A#3 2F.F ....|--- .... ....
....|..|--- .... ....|R-- .... ....|--- .... ....
 C-3|..|C-1 2A.F ....|D#4 2F1F ....|--- .... ....
....|..|--- .... ....|G-4 2F7F ....|--- .... ....
 D#3|..|D#1 2F.7 ....|D#4 2F17 ....|--- .... ....
....|..|--- .... ....|G-4 2F77 ....|--- .... ....
 A#2|..|A#1 2A.F ....|D#4 2F1F ....|--- .... ....
....|..|--- .... ....|R-- .... ....|--- .... ....
....|..|R-- .... ....|A#3 2F.F ....|--- .... ....
....|..|--- .... ....|G-4 2F7A ....|--- .... ....
 G#2|..|G#1 2A.F ....|D#4 2F1F ....|--- .... ....
....|..|--- .... ....|G-4 2F7F ....|--- .... ....
 A#2|..|A#1 2F.A ....|A#3 2F.F ....|--- .... ....
....|..|--- .... ....|R-- .... ....|--- .... ....
 C-3|..|C-1 2F.7 ....|D#4 2F17 ....|--- .... ....
....|..|--- .... ....|G-4 2F77 ....|--- .... ....
 G#2|..|G#1 2A.F ....|D#4 2F1F ....|--- .... ....
....|..|--- .... ....|G-4 2F7F ....|--- .... ....
 A#2|..|A#1 2F.7 ....|D#4 2F17 ....|--- .... ....
....|..|--- .... ....|R-- .... ....|--- .... ....
 D#3|..|D#1 2A.F ....|A#3 2F.F ....|--- .... ....
....|..|--- .... ....|--- .... ....|--- .... ....
 G#3|..|G#1 2A.F ....|D#4 2F1F ....|--- .... ....
....|..|--- .... ....|G-4 2F7F ....|--- .... ....
 G#3|..|G#1 2A.F ....|A#3 2F.F ....|--- .... ....
....|..|--- .... ....|R-- .... ....|--- .... ....

[Pattern22]
 D#3|..|D#1 2A.F ....|D#4 2F1F ....|--- .... ....
....|..|--- .... ....|G-4 2F7F ....|--- .... ....
 G#2|..|G#1 2F.7 ....|D#4 2F17 ....|--- .... ....
....|..|--- .... ....|G-4 2F77 ....|--- .... ....
 G#3|..|G#1 2A.F ....|D#4 2F1F ....|--- .... ....
....|..|--- .... ....|R-- .... ....|--- .... ....
 D#3|..|D#1 2F.7 ....|A#3 2F.F ....|--- .... ....
....|..|--- .... ....|G-4 2F7A ....|--- .... ....
 F-3|..|F-1 2A.F ....|D#4 2F1F ....|--- .... ....
....|..|--- .... ....|A#3 2FBF ....|--- .... ....
 G#3|..|G#1 2F.7 ....|A#3 2F.F ....|--- .... ....
....|..|--- .... ....|R-- .... ....|--- .... ....
 D#3|..|D#1 2F.7 ....|D#4 2F17 ....|--- .... ....
....|..|R-- .... ....|G-4 2F77 ....|--- .... ....
 F-3|..|F-1 2A.F ....|D#4 2F1F ....|--- .... ....
....|..|--- .... ....|A#3 2FBF ....|--- .... ....
 G#3|..|G#1 2F.7 ....|D#4 2F17 ....|--- .... ....
....|..|--- .... ....|R-- .... ....|--- .... ....
....|..|--- .... ....|A#3 2F.F ....|--- .... ....
....|..|R-- .... ....|--- .... ....|--- .... ....
 C#3|..|C#1 2A.F ....|D#4 2F1F ....|--- .... ....
....|..|--- .... ....|A#3 2F5F ....|--- .... ....
....|..|R-- .... ....|A#3 2F.F ....|--- .... ....
....|..|--- .... ....|R-- .... ....|--- .... ....
 C#3|..|C#1 2A.F ....|D#4 2F1F ....|--- .... ....
....|..|R-- .... ....|A#3 2F5F ....|--- .... ....
 F-3|..|F-1 2F.7 ....|D#4 2F17 ....|--- .... ....
....|..|--- .... ....|A#3 2FB7 ....|--- .... ....
 C#3|..|C#1 2A.F ....|D#4 2F1F ....|--- .... ....
....|..|--- .... ....|R-- .... ....|--- .... ....
....|..|R-- .... ....|A#3 2F.F ....|--- .... ....
....|..|--- .... ....|A#3 2F5A ....|--- .... ....
 A#2|..|A#1 2A.F ....|D#4 2F1F ....|--- .... ....
....|..|--- .... ....|A#3 2F5F ....|--- .... ....
....|..|R-- .... ....|A#3 2F.F ....|--- .... ....
....|..|--- .... ....|R-- .... ....|--- .... ....
 C#3|..|C#1 2F.7 ....|D#4 2F17 ....|--- .... ....
....|..|R-- .... ....|A#3 2F57 ....|--- .... ....
 A#2|..|A#1 2A.F ....|D#4 2F1F ....|--- .... ....
....|..|--- .... ....|A#3 2F5F ....|--- .... ....
 C#3|..|C#1 2F.7 ....|D#4 2F17 ....|--- .... ....
....|..|--- .... ....|R-- .... ....|--- .... ....
....|..|R-- .... ....|A#3 2F.F ....|--- .... ....
....|..|R-- .... ....|--- .... ....|--- .... ....
 D#3|..|D#1 2A.F ....|D#4 2F1F ....|--- .... ....
....|..|--- .... ....|A#3 2F5F ....|--- .... ....
....|..|R-- .... ....|A#3 2F.F ....|--- .... ....
....|..|R-- .... ....|R-- .... ....|--- .... ....
 F-3|..|F-1 2A.F ....|D#4 2F1F ....|--- .... ....
....|..|R-- .... ....|--- .... ....|--- .... ....
 A#2|..|A#1 2F.7 ....|D#4 2F17 ....|--- .... ....
....|..|R-- .... ....|A#3 2F57 ....|--- .... ....
 C-4|..|C-2 2A.F ....|D#4 2F1F ....|--- .... ....
....|..|R-- .... ....|A#3 2F5F ....|--- .... ....
 F-3|..|F-1 2F.A ....|A#3 2F.F ....|--- .... ....
....|..|--- .... ....|R-- .... ....|--- .... ....
 A#3|..|A#1 2A.F ....|D#4 2F1F ....|--- .... ....
....|..|R-- .... ....|A#3 2F5F ....|--- .... ....
 C-4|..|C-2 2F.A ....|A#3 2F.F ....|--- .... ....
....|..|R-- .... ....|R-- .... ....|--- .... ....
 F-3|..|F-1 2F.7 ....|D#4 2F17 ....|--- .... ....
....|..|R-- .... ....|R-- .... ....|--- .... ....
 A#3|..|A#1 2A.F ....|D#4 2F1F ....|--- .... ....
....|..|R-- .... ....|A#3 2F5F ....|--- .... ....

[Pattern23]
 C-4|..|C-2 2F.7 ....|D#4 2F17 ....|--- .... ....
....|..|--- .... ....|A#3 2F57 ....|--- .... ....
 F-3|..|F-1 2A.F ....|A#3 2F.F ....|--- .... ....
....|..|R-- .... ....|R-- .... ....|--- .... ....
 A#3|..|A#1 2A.F ....|D#4 2F1F ....|--- .... ....
....|..|--- .... ....|A#3 2F5F ....|--- .... ....
....|..|R-- .... ....|A#3 2F.F ....|--- .... ....
....|..|R-- .... ....|R-- .... ....|--- .... ....
 F-3|..|F-1 2A.F ....|D#4 2F1F ....|--- .... ....
....|..|R-- .... ....|A#3 2F5F ....|--- .... ....
 A#3|..|A#1 2F.7 ....|D#4 2F17 ....|--- .... ....
....|..|R-- .... ....|A#3 2F57 ....|--- .... ....
 A#2|..|A#1 2A.F ....|D#4 2F1F ....|--- .... ....
....|..|R-- .... ....|R-- .... ....|--- .... ....
 F-3|..|F-1 2F.7 ....|A#3 2F.F ....|--- .... ....
....|..|R-- .... ....|A#3 2F5A ....|--- .... ....
 D#3|..|D#1 2A.F ....|D#4 2F1F ....|--- .... ....
....|..|R-- .... ....|A#3 2F5F ....|--- .... ....
 A#2|..|A#1 2F.A ....|A#3 2F.F ....|--- .... ....
....|..|R-- .... ....|R-- .... ....|--- .... ....
 F-3|..|F-1 2F.7 ....|D#4 2F17 ....|--- .... ....
....|..|R-- .... ....|A#3 2F57 ....|--- .... ....
 D#3|..|D#1 2A.F ....|D#4 2F1F ....|--- .... ....
....|..|R-- .... ....|A#3 2F5F ....|--- .... ....
 A#2|..|A#1 2F.7 ....|D#4 2F17 ....|--- .... ....
....|..|--- .... ....|R-- .... ....|--- .... ....
....|..|--- .... ....|A#3 2F.F ....|--- .... ....
....|..|R-- .... ....|--- .... ....|--- .... ....
 D#3|..|D#1 2A.F ....|D#4 2F1F ....|--- .... ....
....|..|--- .... ....|A#3 2F5F ....|--- .... ....
....|..|R-- .... ....|A#3 2F.F ....|--- .... ....
....|..|--- .... ....|R-- .... ....|--- .... ....
 A#2|..|A#1 2A.F ....|D#4 2F1F ....|--- .... ....
....|..|R-- .... ....|A#3 2F5F ....|--- .... ....
 D#3|..|D#1 2F.7 ....|D#4 2F17 ....|--- .... ....
....|..|R-- .... ....|A#3 2F57 ....|--- .... ....
 C-3|..|C-1 2A.F ....|D#4 2F1F ....|--- .... ....
....|..|--- .... ....|R-- .... ....|--- .... ....
 A#2|..|A#1 2A.F ....|A#3 2F.F ....|--- .... ....
....|..|--- .... ....|A#3 2F5A ....|--- .... ....
 D#3|..|D#1 2A.F ....|D#4 2F1F ....|--- .... ....
....|..|R-- .... ....|A#3 2F5F ....|--- .... ....
....|..|R-- .... ....|A#3 2F.F ....|--- .... ....
....|..|--- .... ....|R-- .... ....|--- .... ....
 A#2|..|A#1 2F.7 ....|D#4 2F17 ....|--- .... ....
....|..|--- .... ....|A#3 2F57 ....|--- .... ....
 D#3|..|D#1 2A.F ....|D#4 2F1F ....|--- .... ....
....|..|R-- .... ....|A#3 2F5F ....|--- .... ....
 F-3|..|F-1 2A.F ....|D#4 2F17 ....|--- .... ....
....|..|--- .... ....|R-- .... ....|--- .... ....
 A#2|..|A#1 2F.7 ....|A#3 2F.F ....|--- .... ....
....|..|R-- .... ....|--- .... ....|--- .... ....
 G-3|..|G-1 2A.F ....|D#4 2F1F ....|--- .... ....
....|..|--- .... ....|A#3 2F5F ....|--- .... ....
 A#3|..|A#1 2A.F ....|A#3 2F.F ....|--- .... ....
....|..|--- .... ....|R-- .... ....|--- .... ....
 D#4|..|D#2 2A.F ....|D#4 2F1F ....|--- .... ....
....|..|R-- .... ....|--- .... ....|--- .... ....
 A#3|..|A#1 2A.F ....|D#4 2F17 ....|--- .... ....
....|..|--- .... ....|A#3 2F57 ....|--- .... ....
 A#2|..|A#1 2A.F ....|D#4 2F1F ....|--- .... ....
....|..|--- .... ....|A#3 2F5F ....|--- .... ....
 D#4|..|D#2 2F.A ....|A#3 2F.F ....|--- .... ....
....|..|R-- .... ....|R-- .... ....|--- .... ....

[Pattern24]
 D#3|..|D#1 2A.F ....|D#4 2F1F ....|--- .... ....
....|..|--- .... ....|A#3 2F5F ....|--- .... ....
 A#3|..|A#1 2F.7 ....|A#3 2F.F ....|--- .... ....
....|..|--- .... ....|R-- .... ....|--- .... ....
 D#4|..|D#2 2F.7 ....|D#4 2F17 ....|--- .... ....
....|..|R-- .... ....|R-- .... ....|--- .... ....
 D#3|..|D#1 2A.F ....|D#4 2F1F ....|--- .... ....
....|..|--- .... ....|A#3 2F5F ....|--- .... ....
 A#2|..|A#1 2F.7 ....|D#4 2F17 ....|--- .... ....
....|..|--- .... ....|A#3 2F57 ....|--- .... ....
....|..|--- .... ....|A#3 2F.F ....|--- .... ....
....|..|R-- .... ....|R-- .... ....|--- .... ....
 D#3|..|D#1 2F.7 ....|D#4 2F1F ....|--- .... ....
....|..|--- .... ....|A#3 2F5F ....|--- .... ....
....|..|R-- .... ....|A#3 2F.F ....|--- .... ....
....|..|--- .... ....|R-- .... ....|--- .... ....
 A#2|..|A#1 2A.F ....|D#4 2F1F ....|--- .... ....
....|..|R-- .... ....|A#3 2F5F ....|--- .... ....
 D#3|..|D#1 2F.7 ....|D#4 2F17 ....|--- .... ....
....|..|--- .... ....|A#3 2F57 ....|--- .... ....
 D#3|..|D#1 2A.F ....|D#4 2F1F ....|--- .... ....
....|..|--- .... ....|R-- .... ....|--- .... ....
 A#2|..|A#1 2A.F ....|A#3 2F.F ....|--- .... ....
....|..|--- .... ....|A#3 2F5A ....|--- .... ....
 G#2|..|G#1 2A.F ....|D#4 2F1F ....|--- .... ....
....|..|--- .... ....|A#3 2F5F ....|--- .... ....
 D#3|..|D#1 2F.A ....|A#3 2F.F ....|--- .... ....
....|..|--- .... ....|R-- .... ....|--- .... ....
 A#2|..|A#1 2F.7 ....|D#4 2F17 ....|--- .... ....
....|..|R-- .... ....|A#3 2F57 ....|--- .... ....
 G#2|..|G#1 2A.F ....|D#4 2F1F ....|--- .... ....
....|..|--- .... ....|A#3 2F5F ....|--- .... ....
 D#3|..|D#1 2F.7 ....|D#4 2F17 ....|--- .... ....
....|..|--- .... ....|R-- .... ....|--- .... ....
 A#2|..|A#1 2F.7 ....|A#3 2F.F ....|--- .... ....
....|..|R-- .... ....|--- .... ....|--- .... ....
 G#3|..|G#1 2A.F ....|D#4 2F1F ....|--- .... ....
....|..|--- .... ....|A#3 2F5F ....|--- .... ....
 D#3|..|D#1 2A.F ....|A#3 2F.F ....|--- .... ....
....|..|--- .... ....|R-- .... ....|--- .... ....
 G#3|..|G#1 2A.F ....|D#4 2F1F ....|--- .... ....
....|..|R-- .... ....|--- .... ....|--- .... ....
 G#2|..|G#1 2F.7 ....|D#4 2F17 ....|--- .... ....
....|..|--- .... ....|A#3 2F57 ....|--- .... ....
....|..|R-- .... ....|D#4 2F1F ....|--- .... ....
....|..|--- .... ....|A#3 2F5F ....|--- .... ....
 G#3|..|G#1 2F.A ....|A#3 2F.F ....|--- .... ....
....|..|--- .... ....|R-- .... ....|--- .... ....
 F-2|..|F-1 2A.F ....|D#4 2F1F ....|--- .... ....
....|..|--- .... ....|A#3 2F5F ....|--- .... ....
 D#3|..|D#1 2F.7 ....|A#3 2F.F ....|--- .... ....
....|..|--- .... ....|R-- .... ....|--- .... ....
 G#3|..|G#1 2F.7 ....|D#4 2F17 ....|--- .... ....
....|..|R-- .... ....|R-- .... ....|--- .... ....
 F-3|..|F-1 2A.F ....|D#4 2F1F ....|--- .... ....
....|..|--- .... ....|A#3 2F5F ....|--- .... ....
....|..|R-- .... ....|D#4 2F17 ....|--- .... ....
....|..|--- .... ....|A#3 2F57 ....|--- .... ....
 C-3|..|C-1 2A.F ....|A#3 2F.F ....|--- .... ....
....|..|R-- .... ....|R-- .... ....|--- .... ....
 F-3|..|F-1 2A.F ....|D#4 2F1F ....|--- .... ....
....|..|--- .... ....|A#3 2F5F ....|--- .... ....
 C-3|..|C-1 2A.F ....|A#3 2F.F ....|--- .... ....
....|..|--- .... ....|R-- .... ....|--- .... ....

[Pattern25]
 F-3|..|F-1 2A.F ....|D#4 2F1F ....|--- .... ....
....|..|R-- .... ....|A#3 2F5F ....|--- .... ....
 C-3|..|C-1 2A.F ....|D#4 2F17 ....|--- .... ....
....|..|--- .... ....|A#3 2F57 ....|--- .... ....
 F-3|..|F-1 2A.F ....|D#4 2F1F ....|--- .... ....
....|..|--- .... ....|R-- .... ....|--- .... ....
 C-3|..|C-1 2F.7 ....|A#3 2F.F ....|--- .... ....
....|..|--- .... ....|A#3 2F5A ....|--- .... ....
 D-3|..|D-1 2A.F ....|D#4 2F1F ....|--- .... ....
....|..|--- .... ....|A#3 2FBF ....|--- .... ....
 C-3|..|C-1 2F.7 ....|A#3 2F.F ....|--- .... ....
....|..|--- .... ....|R-- .... ....|--- .... ....
 F-3|..|F-1 2F.7 ....|D#4 2F17 ....|--- .... ....
....|..|R-- .... ....|A#3 2F57 ....|--- .... ....
 D-3|..|D-1 2A.F ....|D#4 2F1F ....|--- .... ....
....|..|--- .... ....|A#3 2FBF ....|--- .... ....
 F-3|..|F-1 2F.7 ....|D#4 2F17 ....|--- .... ....
....|..|--- .... ....|R-- .... ....|--- .... ....
....|..|R-- .... ....|A#3 2F.F ....|--- .... ....
....|..|R-- .... ....|--- .... ....|--- .... ....
 A#2|..|A#1 2A.F ....|D#4 2F1F ....|--- .... ....
....|..|--- .... ....|A#3 2FBF ....|--- .... ....
....|..|R-- .... ....|A#3 2F.F ....|--- .... ....
....|..|--- .... ....|R-- .... ....|--- .... ....
....|..|--- .... ....|D#4 2F1F ....|--- .... ....
....|..|R-- .... ....|--- .... ....|--- .... ....
 D-3|..|D-1 2A.F ....|D#4 2F17 ....|--- .... ....
....|..|--- .... ....|A#3 2FB7 ....|--- .... ....
....|..|R-- .... ....|D#4 2F1F ....|--- .... ....
....|..|--- .... ....|A#3 2FBF ....|--- .... ....
....|..|--- .... ....|A#3 2F.F ....|--- .... ....
....|..|--- .... ....|R-- .... ....|--- .... ....
 D#3|..|D#1 2A.F ....|D#4 2F1F ....|--- .... ....
....|..|--- .... ....|A#3 2F5F ....|--- .... ....
....|..|--- .... ....|A#3 2F.F ....|--- .... ....
....|..|--- .... ....|R-- .... ....|--- .... ....
....|..|--- .... ....|D#4 2F17 ....|--- .... ....
....|..|R-- .... ....|R-- .... ....|--- .... ....
 D#3|..|D#1 2A.F ....|D#4 2F1F ....|--- .... ....
....|..|--- .... ....|A#3 2F5F ....|--- .... ....
....|..|R-- .... ....|D#4 2F17 ....|--- .... ....
....|..|--- .... ....|A#3 2FB7 ....|--- .... ....
 A#2|..|A#1 2A.F ....|A#3 2F.F ....|--- .... ....
....|..|R-- .... ....|R-- .... ....|--- .... ....
 D#3|..|D#1 2A.F ....|D#4 2F1F ....|--- .... ....
....|..|--- .... ....|A#3 2F5F ....|--- .... ....
....|..|R-- .... ....|A#3 2F.F ....|--- .... ....
....|..|--- .... ....|R-- .... ....|--- .... ....
 G#2|..|G#1 2A.F ....|D#4 2F1F ....|--- .... ....
....|..|R-- .... ....|A#3 2F5F ....|--- .... ....
 D#3|..|D#1 2F.7 ....|D#4 2F17 ....|--- .... ....
....|..|--- .... ....|A#3 2F57 ....|--- .... ....
 A#2|..|A#1 2A.F ....|D#4 2F1F ....|--- .... ....
....|..|--- .... ....|R-- .... ....|--- .... ....
 A#2|..|A#1 2F.7 ....|A#3 2F.F ....|--- .... ....
....|..|--- .... ....|A#3 2F5A ....|--- .... ....
 D#3|..|D#1 2A.F ....|D#4 2F1F ....|--- .... ....
....|..|--- .... ....|A#3 2F5F ....|--- .... ....
 A#2|..|A#1 2F.A ....|A#3 2F.F ....|--- .... ....
....|..|--- .... ....|R-- .... ....|--- .... ....
 G#2|..|G#1 2F.7 ....|D#4 2F17 ....|--- .... ....
....|..|--- .... ....|A#3 2F57 ....|--- .... ....
 D#3|..|D#1 2F.A ....|D#4 2F1F ....|--- .... ....
....|..|--- .... ....|A#3 2F5F ....|--- .... ....

[Pattern26]
 A#2|..|A#1 2F.7 ....|D#4 2F17 ....|--- .... ....
....|..|--- .... ....|R-- .... ....|--- .... ....
 A#2|..|A#1 2A.F ....|A#3 2F.F ....|--- .... ....
....|..|--- .... ....|--- .... ....|--- .... ....
 D#3|..|D#1 2A.F ....|D#4 2F1F ....|--- .... ....
....|..|--- .... ....|A#3 2F5F ....|--- .... ....
....|..|--- .... ....|A#3 2F.F ....|--- .... ....
....|..|--- .... ....|R-- .... ....|--- .... ....
 A#2|..|A#1 2F.A ....|D#4 2F1F ....|--- .... ....
....|..|--- .... ....|A#3 2F5F ....|--- .... ....
 D#3|..|D#1 2F.A ....|D#4 2F17 ....|--- .... ....
....|..|--- .... ....|A#3 2F57 ....|--- .... ....
....|..|--- .... ....|D#4 2F1F ....|--- .... ....
....|..|--- .... ....|R-- .... ....|--- .... ....
 A#2|..|A#1 2F.7 ....|A#3 2F.F ....|--- .... ....
....|..|--- .... ....|A#3 2F5A ....|--- .... ....
 G#3|..|G#1 2A.F ....|D#4 2F17 ....|--- .... ....
....|..|--- .... ....|A#3 2F57 ....|--- .... ....
....|..|--- .... ....|A#3 2F.7 ....|--- .... ....
....|..|--- .... ....|R-- .... ....|--- .... ....
....|..|--- .... ....|D#4 2F17 ....|--- .... ....
....|..|--- .... ....|A#3 2F57 ....|--- .... ....
 G#3|..|G#1 2F.A ....|R-- .... ....|--- .... ....
....|..|--- .... ....|--- .... ....|--- .... ....
....|..|--- .... ....|D#4 2F17 ....|--- .... ....
....|..|--- .... ....|--- .... ....|--- .... ....
....|..|--- .... ....|A#3 2F.7 ....|--- .... ....
....|..|R-- .... ....|--- .... ....|--- .... ....
 A#3|..|A#1 2A.F ....|R-- .... ....|--- .... ....
....|..|--- .... ....|--- .... ....|--- .... ....
....|..|--- .... ....|--- .... ....|--- .... ....
....|..|--- .... ....|--- .... ....|--- .... ....
....|..|--- .... ....|--- .... ....|--- .... ....
....|..|R-- .... ....|--- .... ....|--- .... ....
 A#3|..|A#1 2F.A ....|--- .... ....|--- .... ....
....|..|--- .... ....|--- .... ....|--- .... ....
....|..|--- .... ....|--- .... ....|--- .... ....
....|..|--- .... ....|--- .... ....|--- .... ....
....|..|--- .... ....|--- .... ....|--- .... ....
....|..|R-- .... ....|--- .... ....|--- .... ....
 D#3|..|D#1 2A.F ....|--- .... ....|--- .... ....
....|..|--- .... ....|--- .... ....|--- .... ....
....|..|--- .... ....|--- .... ....|--- .... ....
....|..|--- .... ....|--- .... ....|--- .... ....
....|..|--- .... ....|--- .... ....|--- .... ....
....|..|--- .... ....|--- .... ....|--- .... ....
 D#3|..|D#1 2F.A ....|--- .... ....|--- .... ....
....|..|--- .... ....|--- .... ....|--- .... ....
....|..|--- .... ....|--- .... ....|--- .... ....
....|..|--- .... ....|--- .... ....|--- .... ....
....|..|--- .... ....|--- .... ....|--- .... ....
....|..|--- .... ....|--- .... ....|--- .... ....
 F-3|..|F-1 2A.F ....|--- .... ....|--- .... ....
....|..|--- .... ....|--- .... ....|--- .... ....
....|..|--- .... ....|--- .... ....|--- .... ....
....|..|--- .... ....|--- .... ....|--- .... ....
 C-4|..|C-2 2A.F ....|--- .... ....|--- .... ....
....|..|--- .... ....|--- .... ....|--- .... ....
 F-3|..|F-1 2F.A ....|--- .... ....|--- .... ....
....|..|--- .... ....|--- .... ....|--- .... ....
 A#3|..|A#1 2A.F ....|--- .... ....|--- .... ....
....|..|--- .... ....|--- .... ....|--- .... ....
 C-4|..|C-2 2F.A ....|--- .... ....|--- .... ....
....|..|--- .... ....|--- .... ....|--- .... ....

[Pattern27]
 G#3|..|G#1 2A.F ....|--- .... ....|--- .... ....
....|..|--- .... ....|--- .... ....|--- .... ....
 A#3|..|A#1 2F.A ....|--- .... ....|--- .... ....
....|..|--- .... ....|--- .... ....|--- .... ....
 C-4|..|C-2 2F.7 ....|--- .... ....|--- .... ....
....|..|--- .... ....|--- .... ....|--- .... ....
 G#3|..|G#1 2F.A ....|--- .... ....|--- .... ....
....|..|--- .... ....|--- .... ....|--- .... ....
 A#3|..|A#1 2F.7 ....|--- .... ....|--- .... ....
....|..|--- .... ....|--- .... ....|--- .... ....
....|..|--- .... ....|--- .... ....|--- .... ....
....|..|R-- .... ....|--- .... ....|--- .... ....
 A#3|..|A#1 2A.F ....|--- .... ....|--- .... ....
....|..|--- .... ....|--- .... ....|--- .... ....
....|..|--- .... ....|--- .... ....|--- .... ....
....|..|--- .... ....|--- .... ....|--- .... ....
....|..|--- .... ....|--- .... ....|--- .... ....
....|..|R-- .... ....|--- .... ....|--- .... ....
 A#3|..|A#1 2F.A ....|--- .... ....|--- .... ....
....|..|--- .... ....|--- .... ....|--- .... ....
....|..|--- .... ....|--- .... ....|--- .... ....
....|..|--- .... ....|--- .... ....|--- .... ....
....|..|--- .... ....|--- .... ....|--- .... ....
....|..|R-- .... ....|--- .... ....|--- .... ....
 D#3|..|D#1 2A.F ....|--- .... ....|--- .... ....
....|..|--- .... ....|--- .... ....|--- .... ....
....|..|--- .... ....|--- .... ....|--- .... ....
....|..|--- .... ....|--- .... ....|--- .... ....
....|..|--- .... ....|--- .... ....|--- .... ....
....|..|--- .... ....|--- .... ....|--- .... ....
....|..|R-- .... ....|--- .... ....|--- .... ....
....|..|--- .... ....|--- .... ....|--- .... ....
 A#2|..|A#1 2A.F ....|--- .... ....|--- .... ....
....|..|--- .... ....|--- .... ....|--- .... ....
 C-3|..|C-1 2A.F ....|--- .... ....|--- .... ....
....|..|--- .... ....|--- .... ....|--- .... ....
 D#3|..|D#1 2A.F ....|--- .... ....|--- .... ....
....|..|--- .... ....|--- .... ....|--- .... ....
 A#2|..|A#1 2F.A ....|--- .... ....|--- .... ....
....|..|--- .... ....|--- .... ....|--- .... ....
 C-3|..|C-1 2F.A ....|--- .... ....|--- .... ....
....|..|--- .... ....|--- .... ....|--- .... ....
....|..|R-- .... ....|--- .... ....|--- .... ....
....|..|--- .... ....|--- .... ....|--- .... ....
 A#2|..|A#1 2F.7 ....|--- .... ....|--- .... ....
....|..|--- .... ....|--- .... ....|--- .... ....
 C-3|..|C-1 2F.7 ....|--- .... ....|--- .... ....
....|..|--- .... ....|--- .... ....|--- .... ....
 C-3|..|C-1 2A.F ....|--- .... ....|--- .... ....
....|..|--- .... ....|--- .... ....|--- .... ....
....|..|--- .... ....|--- .... ....|--- .... ....
....|..|--- .... ....|--- .... ....|--- .... ....
....|..|--- .... ....|--- .... ....|--- .... ....
....|..|--- .... ....|--- .... ....|--- .... ....
 C-3|..|C-1 2F.A ....|--- .... ....|--- .... ....
....|..|--- .... ....|--- .... ....|--- .... ....
....|..|--- .... ....|--- .... ....|--- .... ....
....|..|--- .... ....|--- .... ....|--- .... ....
....|..|--- .... ....|--- .... ....|--- .... ....
....|..|--- .... ....|--- .... ....|--- .... ....
 F-3|..|F-1 2A.F ....|--- .... ....|--- .... ....
....|..|--- .... ....|--- .... ....|--- .... ....
....|..|--- .... ....|--- .... ....|--- .... ....
....|..|--- .... ....|--- .... ....|--- .... ....

[Pattern28]
....|..|--- .... ....|--- .... ....|--- .... ....
....|..|--- .... ....|--- .... ....|--- .... ....
 F-3|..|F-1 2F.A ....|--- .... ....|--- .... ....
....|..|--- .... ....|--- .... ....|--- .... ....
....|..|--- .... ....|--- .... ....|--- .... ....
....|..|--- .... ....|--- .... ....|--- .... ....
....|..|--- .... ....|--- .... ....|--- .... ....
....|..|--- .... ....|--- .... ....|--- .... ....
 A#2|..|A#1 2A.F ....|--- .... ....|--- .... ....
....|..|--- .... ....|--- .... ....|--- .... ....
....|..|--- .... ....|--- .... ....|--- .... ....
....|..|--- .... ....|--- .... ....|--- .... ....
....|..|--- .... ....|--- .... ....|--- .... ....
....|..|--- .... ....|--- .... ....|--- .... ....
 A#2|..|A#1 2F.A ....|--- .... ....|--- .... ....
....|..|--- .... ....|--- .... ....|--- .... ....
....|..|--- .... ....|--- .... ....|--- .... ....
....|..|--- .... ....|--- .... ....|--- .... ....
....|..|--- .... ....|--- .... ....|--- .... ....
....|..|--- .... ....|--- .... ....|--- .... ....
 C-3|..|C-1 2A.F ....|--- .... ....|--- .... ....
....|..|--- .... ....|--- .... ....|--- .... ....
....|..|--- .... ....|--- .... ....|--- .... ....
....|..|--- .... ....|--- .... ....|--- .... ....
....|..|--- .... ....|--- .... ....|--- .... ....
....|..|--- .... ....|--- .... ....|--- .... ....
 C-3|..|C-1 2F.A ....|--- .... ....|--- .... ....
....|..|--- .... ....|--- .... ....|--- .... ....
....|..|--- .... ....|--- .... ....|--- .... ....
....|..|--- .... ....|--- .... ....|--- .... ....
....|..|--- .... ....|--- .... ....|--- .... ....
....|..|--- .... ....|--- .... ....|--- .... ....
 D#3|..|D#1 2A.F ....|--- .... ....|--- .... ....
....|..|--- .... ....|--- .... ....|--- .... ....
....|..|--- .... ....|--- .... ....|--- .... ....
....|..|--- .... ....|--- .... ....|--- .... ....
....|..|--- .... ....|--- .... ....|--- .... ....
....|..|--- .... ....|--- .... ....|--- .... ....
 D#3|..|D#1 2F.A ....|--- .... ....|--- .... ....
....|..|--- .... ....|--- .... ....|--- .... ....
....|..|--- .... ....|--- .... ....|--- .... ....
....|..|--- .... ....|--- .... ....|--- .... ....
....|..|--- .... ....|--- .... ....|--- .... ....
....|..|--- .... ....|--- .... ....|--- .... ....
 F-3|..|F-1 2A.F ....|--- .... ....|--- .... ....
....|..|--- .... ....|--- .... ....|--- .... ....
....|..|--- .... ....|--- .... ....|--- .... ....
....|..|--- .... ....|--- .... ....|--- .... ....
....|..|--- .... ....|--- .... ....|--- .... ....
....|..|--- .... ....|--- .... ....|--- .... ....
 F-3|..|F-1 2F.A ....|--- .... ....|--- .... ....
....|..|--- .... ....|--- .... ....|--- .... ....
....|..|--- .... ....|--- .... ....|--- .... ....
....|..|--- .... ....|--- .... ....|--- .... ....
....|..|--- .... ....|--- .... ....|--- .... ....
....|..|--- .... ....|--- .... ....|--- .... ....
 D#3|..|D#1 2A.F ....|--- .... ....|--- .... ....
....|..|--- .... ....|--- .... ....|--- .... ....
....|..|--- .... ....|--- .... ....|--- .... ....
....|..|--- .... ....|--- .... ....|--- .... ....
 A#2|..|A#1 2A.F ....|--- .... ....|--- .... ....
....|..|--- .... ....|--- .... ....|--- .... ....
 D#3|..|D#1 2A.F ....|--- .... ....|--- .... ....
....|..|--- .... ....|--- .... ....|--- .... ....

[Pattern29]
 A#2|..|A#1 2A.F ....|--- .... ....|--- .... ....
....|..|--- .... ....|--- .... ....|--- .... ....
 A#2|..|A#1 2F.A ....|--- .... ....|--- .... ....
....|..|--- .... ....|--- .... ....|--- .... ....
 F-2|..|F-1 2A.F ....|--- .... ....|--- .... ....
....|..|--- .... ....|--- .... ....|--- .... ....
 A#2|..|A#1 2F.A ....|--- .... ....|--- .... ....
....|..|--- .... ....|--- .... ....|--- .... ....
 F-2|..|F-1 2A.F ....|--- .... ....|--- .... ....
....|..|--- .... ....|--- .... ....|--- .... ....
 A-2|..|A-1 2A.F ....|--- .... ....|--- .... ....
....|..|--- .... ....|--- .... ....|--- .... ....
 C-3|..|C-1 2A.F ....|--- .... ....|--- .... ....
....|..|--- .... ....|--- .... ....|--- .... ....
 A-2|..|A-1 2A.F ....|--- .... ....|--- .... ....
....|..|--- .... ....|--- .... ....|--- .... ....
 A#3|..|A#1 2A.F ....|--- .... ....|--- .... ....
....|..|--- .... ....|--- .... ....|--- .... ....
 C-3|..|C-1 2F.A ....|--- .... ....|--- .... ....
....|..|--- .... ....|--- .... ....|--- .... ....
 F-2|..|F-1 2F.7 ....|--- .... ....|--- .... ....
....|..|--- .... ....|--- .... ....|--- .... ....
 F-3|..|F-1 2A.F ....|--- .... ....|--- .... ....
....|..|--- .... ....|--- .... ....|--- .... ....
 C-3|..|C-1 2F.7 ....|--- .... ....|--- .... ....
....|..|--- .... ....|--- .... ....|--- .... ....
 A-2|..|A-1 2F.7 ....|--- .... ....|--- .... ....
....|..|--- .... ....|--- .... ....|--- .... ....
 A#3|..|A#1 2A.F ....|--- .... ....|A#4 2FAF ....
....|..|--- .... ....|--- .... ....|--- .... ....
....|..|--- .... ....|--- .... ....|R-- .... ....
....|..|--- .... ....|--- .... ....|--- .... ....
 F-3|..|F-1 2A.F ....|--- .... ....|--- .... ....
....|..|--- .... ....|--- .... ....|--- .... ....
 F-3|..|F-1 2F.7 ....|--- .... ....|A#4 2FAF ....
....|..|--- .... ....|--- .... ....|--- .... ....
 A#3|..|A#1 2A.F ....|--- .... ....|R-- .... ....
....|..|--- .... ....|--- .... ....|--- .... ....
 F-3|..|F-1 2F.A ....|--- .... ....|--- .... ....
....|..|--- .... ....|--- .... ....|--- .... ....
 F#3|..|F#1 2A.F ....|--- .... ....|A#4 2FA7 ....
....|..|--- .... ....|--- .... ....|--- .... ....
 A#3|..|A#1 2F.A ....|--- .... ....|R-- .... ....
....|..|--- .... ....|--- .... ....|--- .... ....
 F-3|..|F-1 2F.7 ....|--- .... ....|--- .... ....
....|..|R-- .... ....|--- .... ....|--- .... ....
 C#4|..|C#2 2A.F ....|--- .... ....|A#4 2FA7 ....
....|..|--- .... ....|--- .... ....|--- .... ....
 A#3|..|A#1 2F.7 ....|--- .... ....|R-- .... ....
....|..|--- .... ....|--- .... ....|--- .... ....
....|..|--- .... ....|--- .... ....|--- .... ....
....|..|R-- .... ....|--- .... ....|--- .... ....
 F-3|..|F-1 2A.F ....|--- .... ....|C-4 2FCF ....
....|..|--- .... ....|--- .... ....|--- .... ....
....|..|--- .... ....|--- .... ....|R-- .... ....
....|..|--- .... ....|--- .... ....|--- .... ....
 C-4|..|C-2 2A.F ....|--- .... ....|--- .... ....
....|..|R-- .... ....|--- .... ....|--- .... ....
 C#4|..|C#2 2F.7 ....|--- .... ....|C-4 2FCF ....
....|..|--- .... ....|--- .... ....|--- .... ....
 F-3|..|F-1 2A.F ....|--- .... ....|R-- .... ....
....|..|--- .... ....|--- .... ....|--- .... ....
 C-4|..|C-2 2F.A ....|--- .... ....|--- .... ....
....|..|R-- .... ....|--- .... ....|--- .... ....

[Pattern30]
 F-3|..|F-1 2A.F ....|--- .... ....|C-4 2FC7 ....
....|..|--- .... ....|--- .... ....|--- .... ....
 F-3|..|F-1 2F.A ....|--- .... ....|R-- .... ....
....|..|--- .... ....|--- .... ....|--- .... ....
 C-4|..|C-2 2F.7 ....|--- .... ....|--- .... ....
....|..|--- .... ....|--- .... ....|--- .... ....
 D-4|..|D-2 2A.F ....|--- .... ....|C-4 2FC7 ....
....|..|--- .... ....|--- .... ....|--- .... ....
 F-3|..|F-1 2F.7 ....|--- .... ....|R-- .... ....
....|..|--- .... ....|--- .... ....|--- .... ....
....|..|--- .... ....|--- .... ....|--- .... ....
....|..|--- .... ....|--- .... ....|--- .... ....
 F-3|..|F-1 2A.F ....|--- .... ....|A#4 2FAF ....
....|..|--- .... ....|--- .... ....|--- .... ....
....|..|--- .... ....|--- .... ....|R-- .... ....
....|..|--- .... ....|--- .... ....|--- .... ....
 D-4|..|D-2 2A.F ....|--- .... ....|--- .... ....
....|..|--- .... ....|--- .... ....|--- .... ....
 D-4|..|D-2 2F.7 ....|--- .... ....|A#4 2FAF ....
....|..|--- .... ....|--- .... ....|--- .... ....
 F-3|..|F-1 2A.F ....|--- .... ....|R-- .... ....
....|..|--- .... ....|--- .... ....|--- .... ....
 D-4|..|D-2 2F.A ....|--- .... ....|--- .... ....
....|..|--- .... ....|--- .... ....|--- .... ....
 F#3|..|F#1 2A.F ....|--- .... ....|A#4 2FA7 ....
....|..|--- .... ....|--- .... ....|--- .... ....
 F-3|..|F-1 2F.A ....|--- .... ....|R-- .... ....
....|..|--- .... ....|--- .... ....|--- .... ....
 D-4|..|D-2 2F.7 ....|--- .... ....|--- .... ....
....|..|R-- .... ....|--- .... ....|--- .... ....
 C#4|..|C#2 2A.F ....|--- .... ....|A#4 2FA7 ....
....|..|--- .... ....|--- .... ....|--- .... ....
 F-3|..|F-1 2F.7 ....|--- .... ....|R-- .... ....
....|..|--- .... ....|--- .... ....|--- .... ....
....|..|--- .... ....|--- .... ....|--- .... ....
....|..|R-- .... ....|--- .... ....|--- .... ....
 G#3|..|G#1 2A.F ....|--- .... ....|G#4 2FBF ....
....|..|--- .... ....|--- .... ....|--- .... ....
....|..|--- .... ....|--- .... ....|R-- .... ....
....|..|--- .... ....|--- .... ....|--- .... ....
 D#4|..|D#2 2A.F ....|--- .... ....|--- .... ....
....|..|R-- .... ....|--- .... ....|--- .... ....
 C#4|..|C#2 2F.7 ....|--- .... ....|G#4 2FBF ....
....|..|--- .... ....|--- .... ....|--- .... ....
 G#3|..|G#1 2A.F ....|--- .... ....|R-- .... ....
....|..|--- .... ....|--- .... ....|--- .... ....
 D#4|..|D#2 2F.A ....|--- .... ....|--- .... ....
....|..|R-- .... ....|--- .... ....|--- .... ....
 G-3|..|G-1 2A.F ....|--- .... ....|G#4 2FB7 ....
....|..|--- .... ....|--- .... ....|--- .... ....
 G#3|..|G#1 2F.A ....|--- .... ....|R-- .... ....
....|..|--- .... ....|--- .... ....|--- .... ....
 D#4|..|D#2 2F.7 ....|--- .... ....|--- .... ....
....|..|R-- .... ....|--- .... ....|--- .... ....
 D-3|..|D-1 2A.F ....|--- .... ....|G#4 2FB7 ....
....|..|--- .... ....|--- .... ....|--- .... ....
 G#3|..|G#1 2F.7 ....|--- .... ....|R-- .... ....
....|..|--- .... ....|--- .... ....|--- .... ....
....|..|--- .... ....|--- .... ....|--- .... ....
....|..|R-- .... ....|--- .... ....|--- .... ....
 D-3|..|D-1 2A.F ....|--- .... ....|G-4 2F9F ....
....|..|--- .... ....|--- .... ....|--- .... ....
....|..|--- .... ....|--- .... ....|R-- .... ....
....|..|--- .... ....|--- .... ....|--- .... ....

[Pattern31]
 G-3|..|G-1 2A.F ....|--- .... ....|--- .... ....
....|..|R-- .... ....|--- .... ....|--- .... ....
 D-3|..|D-1 2F.7 ....|--- .... ....|G-4 2F9F ....
....|..|--- .... ....|--- .... ....|--- .... ....
 G-3|..|G-1 2A.F ....|--- .... ....|R-- .... ....
....|..|--- .... ....|--- .... ....|--- .... ....
 G-3|..|G-1 2F.A ....|--- .... ....|--- .... ....
....|..|R-- .... ....|--- .... ....|--- .... ....
 C-3|..|C-1 2A.F ....|--- .... ....|G-4 2F97 ....
....|..|--- .... ....|--- .... ....|--- .... ....
 G-3|..|G-1 2F.A ....|--- .... ....|R-- .... ....
....|..|--- .... ....|--- .... ....|--- .... ....
 G-3|..|G-1 2F.7 ....|--- .... ....|--- .... ....
....|..|R-- .... ....|--- .... ....|--- .... ....
 G-2|..|G-1 2A.F ....|--- .... ....|G-4 2F97 ....
....|..|--- .... ....|--- .... ....|--- .... ....
 G-3|..|G-1 2F.7 ....|--- .... ....|R-- .... ....
....|..|--- .... ....|--- .... ....|--- .... ....
....|..|--- .... ....|--- .... ....|--- .... ....
....|..|R-- .... ....|--- .... ....|--- .... ....
 C-3|..|C-1 2A.F ....|--- .... ....|G-4 2FCF ....
....|..|--- .... ....|--- .... ....|--- .... ....
....|..|--- .... ....|--- .... ....|R-- .... ....
....|..|--- .... ....|--- .... ....|--- .... ....
 G-2|..|G-1 2A.F ....|--- .... ....|--- .... ....
....|..|R-- .... ....|--- .... ....|--- .... ....
 C-3|..|C-1 2A.F ....|--- .... ....|G-4 2FCF ....
....|..|--- .... ....|--- .... ....|--- .... ....
 G-2|..|G-1 2A.F ....|--- .... ....|R-- .... ....
....|..|--- .... ....|--- .... ....|--- .... ....
 G-2|..|G-1 2F.A ....|--- .... ....|--- .... ....
....|..|R-- .... ....|--- .... ....|--- .... ....
 D#3|..|D#1 2A.F ....|--- .... ....|G-4 2FC7 ....
....|..|--- .... ....|--- .... ....|--- .... ....
 G-2|..|G-1 2F.A ....|--- .... ....|R-- .... ....
....|..|--- .... ....|--- .... ....|--- .... ....
 G-2|..|G-1 2F.7 ....|--- .... ....|--- .... ....
....|..|R-- .... ....|--- .... ....|--- .... ....
 A#2|..|A#1 2A.F ....|--- .... ....|G-4 2FC7 ....
....|..|--- .... ....|--- .... ....|--- .... ....
 G-2|..|G-1 2F.7 ....|--- .... ....|R-- .... ....
....|..|--- .... ....|--- .... ....|--- .... ....
....|..|--- .... ....|--- .... ....|--- .... ....
....|..|R-- .... ....|--- .... ....|--- .... ....
 D#3|..|D#1 2A.F ....|--- .... ....|G-4 2F4F ....
....|..|--- .... ....|--- .... ....|--- .... ....
....|..|--- .... ....|--- .... ....|R-- .... ....
....|..|--- .... ....|--- .... ....|--- .... ....
 F-3|..|F-1 2A.F ....|--- .... ....|--- .... ....
....|..|R-- .... ....|--- .... ....|--- .... ....
 A#2|..|A#1 2F.7 ....|--- .... ....|G-4 2F4F ....
....|..|--- .... ....|--- .... ....|--- .... ....
 D#3|..|D#1 2A.F ....|--- .... ....|R-- .... ....
....|..|--- .... ....|--- .... ....|--- .... ....
 F-3|..|F-1 2F.A ....|--- .... ....|--- .... ....
....|..|R-- .... ....|--- .... ....|--- .... ....
 F-3|..|F-1 2A.F ....|--- .... ....|G-4 2F47 ....
....|..|--- .... ....|--- .... ....|--- .... ....
 D#3|..|D#1 2F.A ....|--- .... ....|R-- .... ....
....|..|--- .... ....|--- .... ....|--- .... ....
 F-3|..|F-1 2F.7 ....|--- .... ....|--- .... ....
....|..|R-- .... ....|--- .... ....|--- .... ....
 C-3|..|C-1 2A.F ....|--- .... ....|G-4 2F47 ....
....|..|--- .... ....|--- .... ....|--- .... ....

[Pattern32]
 D#3|..|D#1 2F.7 ....|--- .... ....|R-- .... ....
....|..|--- .... ....|--- .... ....|--- .... ....
....|..|--- .... ....|--- .... ....|--- .... ....
....|..|R-- .... ....|--- .... ....|--- .... ....
 F-3|..|F-1 2A.F ....|--- .... ....|F-4 2FBF ....
....|..|--- .... ....|--- .... ....|--- .... ....
....|..|--- .... ....|--- .... ....|R-- .... ....
....|..|--- .... ....|--- .... ....|--- .... ....
 C-3|..|C-1 2A.F ....|--- .... ....|--- .... ....
....|..|R-- .... ....|--- .... ....|--- .... ....
 C-3|..|C-1 2F.7 ....|--- .... ....|F-4 2FBF ....
....|..|--- .... ....|--- .... ....|--- .... ....
 F-2|..|F-1 2A.F ....|--- .... ....|R-- .... ....
....|..|--- .... ....|--- .... ....|--- .... ....
 C-3|..|C-1 2F.A ....|--- .... ....|--- .... ....
....|..|R-- .... ....|--- .... ....|--- .... ....
 A#3|..|A#1 2A.F ....|--- .... ....|F-4 2FB7 ....
....|..|--- .... ....|--- .... ....|--- .... ....
 F-2|..|F-1 2F.A ....|--- .... ....|R-- .... ....
....|..|--- .... ....|--- .... ....|--- .... ....
 C-3|..|C-1 2F.7 ....|--- .... ....|--- .... ....
....|..|--- .... ....|--- .... ....|--- .... ....
 F-3|..|F-1 2A.F ....|--- .... ....|F-4 2FB7 ....
....|..|--- .... ....|--- .... ....|--- .... ....
 F-2|..|F-1 2F.7 ....|--- .... ....|R-- .... ....
....|..|--- .... ....|--- .... ....|--- .... ....
....|..|--- .... ....|--- .... ....|--- .... ....
....|..|--- .... ....|--- .... ....|--- .... ....
 A#3|..|A#1 2A.F ....|--- .... ....|A#4 2FAF ....
....|..|--- .... ....|--- .... ....|--- .... ....
....|..|--- .... ....|--- .... ....|R-- .... ....
....|..|--- .... ....|--- .... ....|--- .... ....
 F-3|..|F-1 2A.F ....|--- .... ....|--- .... ....
....|..|--- .... ....|--- .... ....|--- .... ....
 F-3|..|F-1 2F.7 ....|--- .... ....|A#4 2FAF ....
....|..|--- .... ....|--- .... ....|--- .... ....
 A#3|..|A#1 2A.F ....|D#4 2F.F ....|R-- .... ....
....|..|--- .... ....|--- .... ....|--- .... ....
 F-3|..|F-1 2F.A ....|--- .... ....|--- .... ....
....|..|--- .... ....|--- .... ....|--- .... ....
 F#3|..|F#1 2A.F ....|G#4 2F.F ....|A#4 2FA7 ....
....|..|--- .... ....|--- .... ....|--- .... ....
 A#3|..|A#1 2F.A ....|F#4 2F.F ....|R-- .... ....
....|..|--- .... ....|--- .... ....|--- .... ....
 F-3|..|F-1 2F.7 ....|--- .... ....|--- .... ....
....|..|R-- .... ....|--- .... ....|--- .... ....
 C#4|..|C#2 2A.F ....|F-4 2F.F ....|A#4 2FA7 ....
....|..|--- .... ....|--- .... ....|--- .... ....
 A#3|..|A#1 2F.7 ....|D#4 2F.F ....|R-- .... ....
....|..|--- .... ....|--- .... ....|--- .... ....
....|..|--- .... ....|R-- .... ....|--- .... ....
....|..|R-- .... ....|--- .... ....|--- .... ....
 F-3|..|F-1 2A.F ....|C-4 2F.F ....|C-4 2FCF ....
....|..|--- .... ....|--- .... ....|--- .... ....
....|..|--- .... ....|F#4 2F.7 ....|R-- .... ....
....|..|--- .... ....|--- .... ....|--- .... ....
 C-4|..|C-2 2A.F ....|F-4 2F.F ....|--- .... ....
....|..|R-- .... ....|--- .... ....|--- .... ....
 C#4|..|C#2 2F.7 ....|F-4 2F.7 ....|C-4 2FCF ....
....|..|--- .... ....|--- .... ....|--- .... ....
 F-3|..|F-1 2A.F ....|D#4 2F.7 ....|R-- .... ....
....|..|--- .... ....|--- .... ....|--- .... ....
 C-4|..|C-2 2F.A ....|R-- .... ....|--- .... ....
....|..|R-- .... ....|--- .... ....|--- .... ....

[Pattern33]
 F-3|..|F-1 2A.F ....|D-4 2F.F ....|C-4 2FC7 ....
....|..|--- .... ....|--- .... ....|--- .... ....
 F-3|..|F-1 2F.A ....|R-- .... ....|R-- .... ....
....|..|--- .... ....|--- .... ....|--- .... ....
 C-4|..|C-2 2F.7 ....|D-4 2F.F ....|--- .... ....
....|..|--- .... ....|--- .... ....|--- .... ....
 D-4|..|D-2 2A.F ....|F-4 2F.F ....|C-4 2FC7 ....
....|..|--- .... ....|--- .... ....|--- .... ....
 F-3|..|F-1 2F.7 ....|R-- .... ....|R-- .... ....
....|..|--- .... ....|--- .... ....|--- .... ....
....|..|--- .... ....|D-4 2F.F ....|--- .... ....
....|..|--- .... ....|--- .... ....|--- .... ....
 F-3|..|F-1 2A.F ....|A#3 2F.F ....|A#4 2FAF ....
....|..|--- .... ....|--- .... ....|--- .... ....
....|..|--- .... ....|R-- .... ....|R-- .... ....
....|..|--- .... ....|--- .... ....|--- .... ....
 D-4|..|D-2 2A.F ....|D-4 2F.F ....|--- .... ....
....|..|--- .... ....|--- .... ....|--- .... ....
 D-4|..|D-2 2F.7 ....|F-4 2F.7 ....|A#4 2FAF ....
....|..|--- .... ....|--- .... ....|--- .... ....
 F-3|..|F-1 2A.F ....|F-4 2F.F ....|R-- .... ....
....|..|--- .... ....|--- .... ....|--- .... ....
 D-4|..|D-2 2F.A ....|D-4 2F.7 ....|--- .... ....
....|..|--- .... ....|--- .... ....|--- .... ....
 F#3|..|F#1 2A.F ....|F#4 2F.F ....|A#4 2FA7 ....
....|..|--- .... ....|--- .... ....|--- .... ....
 F-3|..|F-1 2F.A ....|F-4 2F.A ....|R-- .... ....
....|..|--- .... ....|--- .... ....|--- .... ....
 D-4|..|D-2 2F.7 ....|C#4 2F.F ....|--- .... ....
....|..|--- .... ....|--- .... ....|--- .... ....
 F#3|..|F#1 2F.A ....|F#4 2F.A ....|A#4 2FA7 ....
....|..|--- .... ....|--- .... ....|--- .... ....
 F-3|..|F-1 2F.7 ....|F-4 2F.7 ....|R-- .... ....
....|..|--- .... ....|--- .... ....|--- .... ....
....|..|--- .... ....|R-- .... ....|--- .... ....
....|..|--- .... ....|--- .... ....|--- .... ....
 G#3|..|G#1 2A.F ....|F#4 2F.7 ....|G#4 2FBF ....
....|..|--- .... ....|--- .... ....|--- .... ....
....|..|--- .... ....|--- .... ....|R-- .... ....
....|..|--- .... ....|--- .... ....|--- .... ....
....|..|--- .... ....|C#4 2F.7 ....|--- .... ....
....|..|--- .... ....|--- .... ....|--- .... ....
 G#3|..|G#1 2F.A ....|R-- .... ....|G#4 2FBF ....
....|..|--- .... ....|--- .... ....|--- .... ....
....|..|--- .... ....|--- .... ....|R-- .... ....
....|..|--- .... ....|--- .... ....|--- .... ....
....|..|--- .... ....|--- .... ....|--- .... ....
....|..|--- .... ....|--- .... ....|--- .... ....
 G-3|..|G-1 2A.F ....|D-4 2F.F ....|G#4 2FB7 ....
....|..|--- .... ....|--- .... ....|--- .... ....
....|..|--- .... ....|R-- .... ....|R-- .... ....
....|..|--- .... ....|--- .... ....|--- .... ....
....|..|--- .... ....|D-4 2F.F ....|--- .... ....
....|..|R-- .... ....|--- .... ....|--- .... ....
 D-3|..|D-1 2A.F ....|G-4 2F.F ....|G#4 2FB7 ....
....|..|--- .... ....|--- .... ....|--- .... ....
....|..|--- .... ....|R-- .... ....|R-- .... ....
....|..|--- .... ....|--- .... ....|--- .... ....
....|..|--- .... ....|D-4 2F.F ....|--- .... ....
....|..|R-- .... ....|--- .... ....|--- .... ....
 D-3|..|D-1 2A.F ....|G-4 2F.F ....|D-4 2FDF ....
....|..|--- .... ....|--- .... ....|--- .... ....
....|..|--- .... ....|R-- .... ....|R-- .... ....
....|..|--- .... ....|--- .... ....|--- .... ....

[Pattern34]
 G-3|..|G-1 2A.F ....|D-4 2F.F ....|--- .... ....
....|..|R-- .... ....|--- .... ....|--- .... ....
 D-3|..|D-1 2F.7 ....|G-4 2F.7 ....|D-4 2FDF ....
....|..|--- .... ....|--- .... ....|--- .... ....
 G-3|..|G-1 2A.F ....|G-4 2F.F ....|R-- .... ....
....|..|--- .... ....|--- .... ....|--- .... ....
 G-3|..|G-1 2F.A ....|D-4 2F.7 ....|--- .... ....
....|..|R-- .... ....|--- .... ....|--- .... ....
 C-3|..|C-1 2A.F ....|E-4 2F.F ....|D-4 2FD7 ....
....|..|--- .... ....|--- .... ....|--- .... ....
 G-3|..|G-1 2F.A ....|E-4 2F.F ....|R-- .... ....
....|..|--- .... ....|--- .... ....|--- .... ....
 G-3|..|G-1 2F.7 ....|D-4 2F.7 ....|--- .... ....
....|..|R-- .... ....|--- .... ....|--- .... ....
 G-2|..|G-1 2A.F ....|D-4 2F.F ....|D-4 2FD7 ....
....|..|--- .... ....|--- .... ....|--- .... ....
 G-3|..|G-1 2F.7 ....|G-4 2F.7 ....|R-- .... ....
....|..|--- .... ....|--- .... ....|--- .... ....
....|..|--- .... ....|D-4 2F.F ....|--- .... ....
....|..|R-- .... ....|--- .... ....|--- .... ....
 C-3|..|C-1 2A.F ....|E-4 2F.F ....|E-4 2FEF ....
....|..|--- .... ....|--- .... ....|--- .... ....
....|..|--- .... ....|E-4 2F.7 ....|R-- .... ....
....|..|--- .... ....|--- .... ....|--- .... ....
 G-2|..|G-1 2A.F ....|R-- .... ....|--- .... ....
....|..|R-- .... ....|--- .... ....|--- .... ....
 C-3|..|C-1 2A.F ....|D-4 2F.7 ....|E-4 2FEF ....
....|..|--- .... ....|--- .... ....|--- .... ....
 G-2|..|G-1 2A.F ....|E-4 2F.F ....|R-- .... ....
....|..|--- .... ....|--- .... ....|--- .... ....
 G-2|..|G-1 2F.A ....|E-4 2F.F ....|--- .... ....
....|..|R-- .... ....|--- .... ....|--- .... ....
 C#3|..|C#1 2A.F ....|F-4 2F.F ....|E-4 2FE7 ....
....|..|--- .... ....|--- .... ....|--- .... ....
 G-2|..|G-1 2F.A ....|R-- .... ....|R-- .... ....
....|..|--- .... ....|--- .... ....|--- .... ....
 G-2|..|G-1 2F.7 ....|C#4 2F.F ....|--- .... ....
....|..|--- .... ....|--- .... ....|--- .... ....
 C#3|..|C#1 2A.F ....|F-4 2F.F ....|E-4 2FE7 ....
....|..|--- .... ....|--- .... ....|--- .... ....
 G-2|..|G-1 2F.7 ....|E-4 2F.7 ....|R-- .... ....
....|..|--- .... ....|--- .... ....|--- .... ....
....|..|--- .... ....|C#4 2F.F ....|--- .... ....
....|..|--- .... ....|--- .... ....|--- .... ....
 C#3|..|C#1 2A.F ....|F-4 2F.F ....|F-4 2FDF ....
....|..|--- .... ....|--- .... ....|--- .... ....
....|..|--- .... ....|--- .... ....|R-- .... ....
....|..|--- .... ....|--- .... ....|--- .... ....
 G#2|..|G#1 2A.F ....|C#4 2F.7 ....|--- .... ....
....|..|--- .... ....|--- .... ....|--- .... ....
 C#3|..|C#1 2F.7 ....|F-4 2F.7 ....|F-4 2FDF ....
....|..|--- .... ....|--- .... ....|--- .... ....
 C#3|..|C#1 2A.F ....|R-- .... ....|R-- .... ....
....|..|--- .... ....|--- .... ....|--- .... ....
 G#2|..|G#1 2F.A ....|C#4 2F.7 ....|--- .... ....
....|..|--- .... ....|--- .... ....|--- .... ....
 D#3|..|D#1 2A.F ....|F-4 2F.7 ....|F-4 2FD7 ....
....|..|--- .... ....|--- .... ....|--- .... ....
 C#3|..|C#1 2F.A ....|R-- .... ....|R-- .... ....
....|..|--- .... ....|--- .... ....|--- .... ....
 G#2|..|G#1 2F.7 ....|D#4 2F.F ....|--- .... ....
....|..|--- .... ....|--- .... ....|--- .... ....
 A#3|..|A#1 2A.F ....|F-4 2F.F ....|F-4 2FD7 ....
....|..|--- .... ....|--- .... ....|--- .... ....

[Pattern35]
 C#3|..|C#1 2F.7 ....|D#4 2F.F ....|R-- .... ....
....|..|--- .... ....|--- .... ....|--- .... ....
....|..|--- .... ....|R-- .... ....|--- .... ....
....|..|--- .... ....|--- .... ....|--- .... ....
 D#3|..|D#1 2A.F ....|A#4 2F.F ....|D#4 2FBF ....
....|..|--- .... ....|--- .... ....|--- .... ....
....|..|--- .... ....|D#4 2F.A ....|R-- .... ....
....|..|--- .... ....|--- .... ....|--- .... ....
 A#3|..|A#1 2A.F ....|G-4 2F.F ....|--- .... ....
....|..|--- .... ....|--- .... ....|--- .... ....
 A#3|..|A#1 2F.7 ....|F-4 2F.7 ....|D#4 2FBF ....
....|..|--- .... ....|--- .... ....|--- .... ....
 D#3|..|D#1 2A.F ....|D#4 2F.7 ....|R-- .... ....
....|..|--- .... ....|--- .... ....|--- .... ....
 A#3|..|A#1 2F.A ....|C#4 2F.F ....|--- .... ....
....|..|--- .... ....|--- .... ....|--- .... ....
 C#3|..|C#1 2A.F ....|A#4 2F.7 ....|D#4 2FB7 ....
....|..|--- .... ....|--- .... ....|--- .... ....
 D#3|..|D#1 2F.A ....|--- .... ....|R-- .... ....
....|..|--- .... ....|--- .... ....|--- .... ....
 A#3|..|A#1 2F.7 ....|G-4 2F.7 ....|--- .... ....
....|..|--- .... ....|--- .... ....|--- .... ....
 C#3|..|C#1 2A.F ....|R-- .... ....|D#4 2FB7 ....
....|..|--- .... ....|--- .... ....|--- .... ....
 D#3|..|D#1 2F.7 ....|--- .... ....|R-- .... ....
....|..|--- .... ....|--- .... ....|--- .... ....
....|..|--- .... ....|C#4 2F.7 ....|--- .... ....
....|..|--- .... ....|--- .... ....|--- .... ....
 C#3|..|C#1 2A.F ....|R-- .... ....|F-4 2FDF ....
....|..|--- .... ....|--- .... ....|--- .... ....
....|..|--- .... ....|--- .... ....|R-- .... ....
....|..|--- .... ....|--- .... ....|--- .... ....
 G#2|..|G#1 2A.F ....|--- .... ....|--- .... ....
....|..|--- .... ....|--- .... ....|--- .... ....
 C#3|..|C#1 2F.7 ....|--- .... ....|F-4 2FDF ....
....|..|--- .... ....|--- .... ....|--- .... ....
 C#3|..|C#1 2A.F ....|--- .... ....|R-- .... ....
....|..|--- .... ....|--- .... ....|--- .... ....
 G#2|..|G#1 2F.A ....|--- .... ....|--- .... ....
....|..|--- .... ....|--- .... ....|--- .... ....
 C-3|..|C-1 2A.F ....|--- .... ....|G-4 2F3F ....
....|..|--- .... ....|--- .... ....|--- .... ....
 C#3|..|C#1 2F.A ....|--- .... ....|R-- .... ....
....|..|--- .... ....|--- .... ....|--- .... ....
 G#2|..|G#1 2F.7 ....|D#4 2F.F ....|--- .... ....
....|..|--- .... ....|--- .... ....|--- .... ....
 C-3|..|C-1 2F.A ....|G-4 2F.F ....|G-4 2F3F ....
....|..|--- .... ....|--- .... ....|--- .... ....
 G-3|..|G-1 2A.F ....|D#4 2F.F ....|R-- .... ....
....|..|--- .... ....|--- .... ....|--- .... ....
 F#3|..|F#1 2A.F ....|D#4 2F.A ....|--- .... ....
....|..|--- .... ....|--- .... ....|--- .... ....
 F-3|..|F-1 2A.F ....|F-4 2F.F ....|C-4 2FFF ....
....|..|--- .... ....|--- .... ....|--- .... ....
 G-3|..|G-1 2F.A ....|R-- .... ....|R-- .... ....
....|..|--- .... ....|--- .... ....|--- .... ....
 F#3|..|F#1 2F.A ....|D#4 2F.7 ....|--- .... ....
....|..|--- .... ....|--- .... ....|--- .... ....
 F-3|..|F-1 2F.A ....|G-4 2F.7 ....|G-4 2F37 ....
....|..|--- .... ....|--- .... ....|--- .... ....
 G-3|..|G-1 2F.7 ....|D#4 2F.7 ....|R-- .... ....
....|..|--- .... ....|--- .... ....|--- .... ....
 F#3|..|F#1 2F.7 ....|--- .... ....|--- .... ....
....|..|--- .... ....|--- .... ....|--- .... ....

[Pattern36]
 D#3|..|D#1 2A.F ....|F-4 2F.7 ....|C-4 2FF7 ....
....|..|--- .... ....|--- .... ....|--- .... ....
....|..|--- .... ....|R-- .... ....|R-- .... ....
....|..|--- .... ....|--- .... ....|--- .... ....
....|..|--- .... ....|--- .... ....|--- .... ....
....|..|--- .... ....|--- .... ....|--- .... ....
 D#3|..|D#1 2F.A ....|--- .... ....|--- .... ....
....|..|--- .... ....|--- .... ....|--- .... ....
....|..|--- .... ....|--- .... ....|--- .... ....
....|..|--- .... ....|--- .... ....|--- .... ....
....|..|--- .... ....|--- .... ....|--- .... ....
....|..|--- .... ....|--- .... ....|--- .... ....
 D#3|..|D#1 2F.7 ....|--- .... ....|--- .... ....
....|..|--- .... ....|--- .... ....|--- .... ....
....|..|--- .... ....|--- .... ....|--- .... ....
....|..|--- .... ....|--- .... ....|--- .... ....
....|..|--- .... ....|--- .... ....|--- .... ....
....|..|--- .... ....|--- .... ....|--- .... ....
....|..|--- .... ....|--- .... ....|--- .... ....
....|..|--- .... ....|--- .... ....|--- .... ....
....|..|--- .... ....|--- .... ....|--- .... ....
....|..|--- .... ....|--- .... ....|--- .... ....
....|..|--- .... ....|--- .... ....|--- .... ....
....|..|--- .... ....|--- .... ....|--- .... ....
....|..|--- .... ....|--- .... ....|--- .... ....
....|..|--- .... ....|--- .... ....|--- .... ....
....|..|--- .... ....|--- .... ....|--- .... ....
....|..|--- .... ....|--- .... ....|--- .... ....
....|..|R-- .... ....|--- .... ....|--- .... ....
....|..|--- .... ....|--- .... ....|--- .... ....
....|..|--- .... ....|--- .... ....|--- .... ....
....|..|--- .... ....|--- .... ....|--- .... ....
....|..|--- .... ....|--- .... ....|--- .... ....
....|..|--- .... ....|--- .... ....|--- .... ....
....|..|R-- .... ....|--- .... ....|--- .... ....
....|..|--- .... ....|--- .... ....|--- .... ....
....|..|--- .... ....|--- .... ....|--- .... ....
....|..|--- .... ....|--- .... ....|--- .... ....
....|..|--- .... ....|--- .... ....|--- .... ....
....|..|--- .... ....|--- .... ....|--- .... ....
....|..|R-- .... ....|--- .... ....|--- .... ....
....|..|--- .... ....|--- .... ....|--- .... ....
....|..|--- .... ....|--- .... ....|--- .... ....
....|..|--- .... ....|--- .... ....|--- .... ....
....|..|--- .... ....|--- .... ....|--- .... ....
....|..|--- .... ....|--- .... ....|--- .... ....
....|..|--- .... ....|--- .... ....|--- .... ....
....|..|--- .... ....|--- .... ....|--- .... ....
....|..|--- .... ....|--- .... ....|--- .... ....
....|..|--- .... ....|--- .... ....|--- .... ....
....|..|--- .... ....|--- .... ....|--- .... ....
....|..|--- .... ....|--- .... ....|--- .... ....
....|..|--- .... ....|--- .... ....|--- .... ....
....|..|--- .... ....|--- .... ....|--- .... ....
....|..|--- .... ....|--- .... ....|--- .... ....
....|..|--- .... ....|--- .... ....|--- .... ....
....|..|--- .... ....|--- .... ....|--- .... ....
....|..|--- .... ....|--- .... ....|--- .... ....
....|..|--- .... ....|--- .... ....|--- .... ....
....|..|--- .... ....|--- .... ....|--- .... ....

