[Module]
VortexTrackerII=0
Version=3.5
Title=11me-5me-8p,6m-7m+,9p-3p-4p+
Author=oisee/siril^4d 2012.10.11
NoteTable=4
ChipFreq=1750000
Speed=3
PlayOrder=L0,1,2,3,4,5,6,7,8,9,10,9,8,13,14,15,16,2,3,19,5,6,7,8,9,10,9,8,13,14,30,31,32,31,34,35,36,37,9,8,13,14,30,31,32,31,46,47

[Ornament1]
L0,0,4,4

[Ornament2]
L0,0,5,5

[Ornament3]
L0,0,3,3

[Ornament4]
L0

[Ornament5]
L0

[Ornament6]
L0

[Ornament7]
L0

[Ornament8]
L0

[Ornament9]
L0

[Ornament10]
L0

[Ornament11]
L0

[Ornament12]
L0

[Ornament13]
L0

[Ornament14]
L0

[Ornament15]
L0

[Sample1]
TnE +000_ +00_ F_
TnE +000_ +00_ F_
TnE +000_ +00_ F_
TnE +000_ +00_ D_
TnE +000_ +00_ B_
TnE +000_ +00_ B_ L

[Sample2]
TnE +000_ +00_ F_ L

[Sample3]
TnE +001_ +00_ F_
TnE +002_ +00_ F_
TnE +001_ +00_ E_
TnE +002_ +00_ E_
TnE +000_ +00_ E_ L
TnE -001_ +00_ E_
TnE -002_ +00_ E_
TnE -001_ +00_ E_
TnE +000_ +00_ E_
TnE +001_ +00_ E_
TnE +002_ +00_ E_
TnE +001_ +00_ E_

[Sample4]
TnE +002_ +00_ D_
TnE +002_ +00_ D_
TnE +002_ +00_ C_
TnE +002_ +00_ B_
TnE +002_ +00_ A_ L
TnE +002_ +00_ A_
TnE +002_ +00_ A_
TnE +002_ +00_ A_
TnE +002_ +00_ A_
TnE +002_ +00_ A_
TnE +002_ +00_ A_
TnE +002_ +00_ A_

[Sample5]
TnE +000_ +00_ F_
TnE +000_ +00_ F_
tne +000_ +00_ 0_ L

[Sample6]
TnE -001_ +00_ F_ L

[Sample7]
TnE +006_ +00_ F_ L

[Sample8]
tNe +000_ +00_ F_
tNe +000_ +00_ B_
tNe +000_ +00_ 7_
tNe +000_ +00_ 6- L

[Sample9]
TnE +080_ +00_ F_
TnE +100_ +00_ E_
TnE +180_ +00_ E_
TnE +200_ +00_ E_
TnE +240_ +00_ D_
TnE +280_ +00_ D_
TnE +2C0_ +00_ D_
TnE +300_ +00_ C_
TnE +300_ +00_ C_
TnE +340_ +00_ C_
TnE +340_ +00_ C_
TnE +380_ +00_ B_
TnE +380_ +00_ B_
TnE +400_ +00_ B_
TnE +400_ +00_ B_
TnE +480_ +00_ A_
TnE +500_ +00_ 9_
TnE +580_ +00_ 7_
TnE +600_ +00_ 4_
TnE +680_ +00_ 1_
TnE +000_ +00_ 0_ L

[Sample10]
Tne +1C0_ +00_ F_
Tne +280_ +00_ E_
Tne +380_ +00_ C_
Tne +440_ +00_ A_
Tne +480_ +00_ 8_
TnE +000_ +00_ 0_ L

[Sample11]
TNe +200_ -0A_ F_
tNe +000_ +0F_ A_
TNe +200_ -07_ E_
tNe +000_ +0E_ B- L

[Sample12]
TNE +0A0_ +05_ F_
TNE +140_ +02_ D_
TNE +140_ +02_ B_
TNE +100_ +00_ A_ L
TNE +140_ +00_ A_
TNE +200_ +00_ A-

[Sample13]
Tne +200_ +00_ F_
Tne +2C0_ +00_ F_
Tne +380_ +00_ E_
Tne +500_ +00_ C_
Tne +520_ +00_ 9_
tne +000_ +00_ 0_ L

[Sample14]
TNE -100_ +00_ F_
TNE -100_ +00_ D_
TNE -100_ +00_ A_
TNE -100_ +00_ 5_
tne +000_ +00_ 0_ L

[Sample15]
TNE -100_ +00_ 5_
TNE -100_ +00_ 8_
TNE -100_ +00_ B_
TNE -100_ +00_ F_
TNe -100_ +00_ 9- L

[Sample16]
TnE +000_ +00_ C_
TnE +000_ +00_ E_
TnE +000_ +00_ F_
TnE +000_ +00_ F_
TnE +000_ +00_ E_
TnE +000_ +00_ D_
TnE +000_ +00_ C_
TnE +000_ +00_ C_ L
TnE +001_ +00_ C_
TnE +002_ +00_ C_
TnE +003_ +00_ C_
TnE +001_ +00_ C_
TnE +000_ +00_ C_
TnE -001_ +00_ C_
TnE -002_ +00_ C_
TnE -003_ +00_ C_
TnE -001_ +00_ C_
TnE +000_ +00_ C_
TnE +000_ +00_ C_

[Sample17]
Tne +1C0_ +00_ F_
Tne +280_ +00_ D_
Tne +380_ +00_ 7_
TNE +000_ +00_ 0_ L

[Sample18]
TnE -00C_ +00_ 0_ L

[Sample19]
TNe +000_ +00_ F_
TNe +000_ +00_ C_
TNe +000_ +00_ 6_
TNe +000_ +01_ A- L

[Sample20]
TNE +140_ +00_ F_
tNE +000_ +00_ B- L

[Sample21]
tNE +000_ +00_ D_
tNE +000_ +00_ 8_
tNE +000_ +00_ 1_
TNE +000_ +00_ 0_ L

[Sample22]
TnE +000_ +00_ D_ L
TnE +000_ +00_ D_
tne +000_ +00_ 9_
tne +000_ +00_ 9_
TnE +000_ +00_ D_
TnE +000_ +00_ D_
tne +000_ +00_ 9_
tne +000_ +00_ 9_
TnE +000_ +00_ D_
TnE +000_ +00_ D_
TnE +000_ +00_ D_
TnE +000_ +00_ D_
TnE +000_ +00_ D_
TnE +000_ +00_ D_
tne +000_ +00_ 9_
tne +000_ +00_ 9_

[Sample23]
TnE +000_ +00_ F_ L
TnE +010_ +01_ F_
TnE +010_ +01_ F_
TnE +010_ +01_ F_
TnE +010_ +01_ F_
TnE +000_ +00_ F_
TnE +000_ +00_ F_
TnE -010_ -01_ F_
TnE -010_ -01_ F_
TnE -010_ -01_ F_
TnE -010_ -01_ F_
TnE +000_ +00_ F_

[Sample24]
TNe +000_ -01_ C_
TNe +000_ -01_ D_
TNe +000_ -01_ E_
TNe +000_ -01_ F_
TNe +000_ -01_ F_
TNe +000_ -01_ F_
TNe +000_ -01_ F_
TNe +000_ -01_ F_
TNe +000_ -01_ E_
TNe +000_ -01_ E_
TNe +000_ -01_ E_
TNe +000_ -01_ F_
TNe +000_ -01_ F_ L

[Sample25]
TNE +000_ +00_ F_
TNE +000_ +00_ F_ L
TNE +000_ +00_ F_
TNE +000_ +00_ F_
TNE +000_ +00_ F-

[Sample26]
tne +000_ +00_ 0_ L

[Sample27]
TnE +100_ +05_ F_
TnE +200_ +02_ A_
TnE +300_ +02_ 7_
TNE +400_ +00_ 3- L

[Sample28]
tne +000_ +00_ 0_ L

[Sample29]
tnE +000_ +00_ 0_ L

[Sample30]
TNE +000_ +00_ C+ L

[Sample31]
TNe +1C0_ +00_ F_
Tne +280_ +00_ E_
Tne +380_ +00_ C_
Tne +440_ +00_ A_
Tne +480_ +00_ 8_
TnE +000_ +00_ 0_ L

[Pattern0]
....|..|--- .... ....|--- .... ....|--- .... ....
....|..|--- .... ....|--- .... ....|--- .... ....
....|..|--- .... ....|--- .... ....|--- .... ....
....|..|--- .... ....|--- .... ....|--- .... ....
....|..|--- .... ....|--- .... ....|--- .... ....
....|..|--- .... ....|--- .... ....|--- .... ....
....|..|--- .... ....|--- .... ....|--- .... ....
....|..|--- .... ....|--- .... ....|--- .... ....
....|..|--- .... ....|--- .... ....|--- .... ....
....|..|--- .... ....|--- .... ....|--- .... ....
....|..|--- .... ....|--- .... ....|--- .... ....
....|..|--- .... ....|--- .... ....|--- .... ....
....|..|--- .... ....|--- .... ....|--- .... ....
....|..|--- .... ....|--- .... ....|--- .... ....
....|..|--- .... ....|--- .... ....|--- .... ....
....|..|--- .... ....|--- .... ....|--- .... ....
....|..|--- .... ....|--- .... ....|--- .... ....
....|..|--- .... ....|--- .... ....|--- .... ....
....|..|--- .... ....|--- .... ....|--- .... ....
....|..|--- .... ....|--- .... ....|--- .... ....
....|..|--- .... ....|--- .... ....|--- .... ....
....|..|--- .... ....|--- .... ....|--- .... ....
....|..|--- .... ....|--- .... ....|--- .... ....
....|..|--- .... ....|--- .... ....|--- .... ....
....|..|--- .... ....|--- .... ....|--- .... ....
....|..|--- .... ....|--- .... ....|--- .... ....
....|..|--- .... ....|--- .... ....|--- .... ....
....|..|--- .... ....|--- .... ....|--- .... ....
....|..|--- .... ....|--- .... ....|--- .... ....
....|..|--- .... ....|--- .... ....|--- .... ....
....|..|--- .... ....|--- .... ....|--- .... ....
....|..|--- .... ....|--- .... ....|--- .... ....
....|..|--- .... ....|B-3 2F.F ....|D-4 2F2F ....
....|..|--- .... ....|R-- .... ....|R-- .... ....
....|..|--- .... ....|--- .... ....|--- .... ....
....|..|--- .... ....|--- .... ....|--- .... ....
....|..|--- .... ....|B-3 2F.F ....|D-4 2F2F ....
....|..|--- .... ....|R-- .... ....|R-- .... ....
....|..|--- .... ....|B-3 2F.A ....|D-4 2F2A ....
....|..|--- .... ....|R-- .... ....|R-- .... ....
....|..|--- .... ....|B-3 2F.F ....|D-4 2F2F ....
....|..|--- .... ....|R-- .... ....|R-- .... ....
....|..|--- .... ....|B-3 2F.A ....|D-4 2F2A ....
....|..|--- .... ....|R-- .... ....|R-- .... ....
....|..|--- .... ....|B-3 2F.F ....|D-4 2F2F ....
....|..|--- .... ....|R-- .... ....|R-- .... ....
....|..|--- .... ....|B-3 2F.A ....|D-4 2F2A ....
....|..|--- .... ....|R-- .... ....|R-- .... ....
....|..|--- .... ....|B-3 2F.F ....|D-4 2F2F ....
....|..|--- .... ....|R-- .... ....|R-- .... ....
....|..|--- .... ....|B-3 2F.A ....|D-4 2F2A ....
....|..|--- .... ....|R-- .... ....|R-- .... ....
....|..|--- .... ....|B-3 2F.F ....|D-4 2F2F ....
....|..|--- .... ....|R-- .... ....|R-- .... ....
....|..|--- .... ....|B-3 2F.A ....|D-4 2F2A ....
....|..|--- .... ....|R-- .... ....|R-- .... ....
....|..|--- .... ....|B-3 2F.F ....|D-4 2F2F ....
....|..|--- .... ....|R-- .... ....|R-- .... ....
....|..|--- .... ....|B-3 2F.A ....|D-4 2F2A ....
....|..|--- .... ....|R-- .... ....|R-- .... ....
....|..|--- .... ....|B-3 2F.F ....|D-4 2F2F ....
....|..|--- .... ....|R-- .... ....|R-- .... ....
....|..|--- .... ....|B-3 2F.A ....|D-4 2F2A ....
....|..|--- .... ....|R-- .... ....|R-- .... ....

[Pattern1]
....|..|--- .... ....|B-3 2F.F ....|D-4 2F2F ....
....|..|--- .... ....|R-- .... ....|R-- .... ....
....|..|--- .... ....|B-3 2F.A ....|D-4 2F2A ....
....|..|--- .... ....|R-- .... ....|R-- .... ....
....|..|--- .... ....|B-3 2F.F ....|D-4 2F2F ....
....|..|--- .... ....|R-- .... ....|R-- .... ....
....|..|--- .... ....|B-3 2F.A ....|D-4 2F2A ....
....|..|--- .... ....|R-- .... ....|R-- .... ....
....|..|--- .... ....|B-3 2F.F ....|D-4 2F2F ....
....|..|--- .... ....|R-- .... ....|R-- .... ....
....|..|--- .... ....|B-3 2F.A ....|D-4 2F2A ....
....|..|--- .... ....|R-- .... ....|R-- .... ....
....|..|--- .... ....|B-3 2F.F ....|D-4 2F2F ....
....|..|--- .... ....|R-- .... ....|R-- .... ....
....|..|--- .... ....|B-3 2F.A ....|D-4 2F2A ....
....|..|--- .... ....|R-- .... ....|R-- .... ....
....|..|--- .... ....|B-3 2F.7 ....|D-4 2F2F ....
....|..|--- .... ....|R-- .... ....|R-- .... ....
....|..|--- .... ....|B-3 2F.A ....|D-4 2F2A ....
....|..|--- .... ....|R-- .... ....|R-- .... ....
....|..|--- .... ....|B-3 2F.7 ....|D-4 2F2F ....
....|..|--- .... ....|R-- .... ....|R-- .... ....
....|..|--- .... ....|--- .... ....|D-4 2F2A ....
....|..|--- .... ....|--- .... ....|R-- .... ....
....|..|--- .... ....|B-3 2F.7 ....|D-4 2F2F ....
....|..|--- .... ....|R-- .... ....|R-- .... ....
....|..|--- .... ....|--- .... ....|D-4 2F2A ....
....|..|--- .... ....|--- .... ....|R-- .... ....
....|..|--- .... ....|--- .... ....|D-4 2F2F ....
....|..|--- .... ....|--- .... ....|R-- .... ....
....|..|--- .... ....|--- .... ....|D-4 2F2A ....
....|..|--- .... ....|--- .... ....|R-- .... ....
....|..|--- .... ....|--- .... ....|D-4 2F2F ....
....|..|--- .... ....|--- .... ....|R-- .... ....
....|..|--- .... ....|--- .... ....|D-4 2F2A ....
....|..|--- .... ....|--- .... ....|R-- .... ....
....|..|--- .... ....|B-3 2F.F ....|D-4 2F2F ....
....|..|--- .... ....|--- .... ....|R-- .... ....
....|..|--- .... ....|--- .... ....|D-4 2F2A ....
....|..|--- .... ....|--- .... ....|R-- .... ....
....|..|--- .... ....|B-3 2F.F ....|D-4 2F2F ....
....|..|--- .... ....|--- .... ....|R-- .... ....
....|..|--- .... ....|B-3 2F.A ....|D-4 2F2A ....
....|..|--- .... ....|R-- .... ....|R-- .... ....
....|..|--- .... ....|B-3 2F.F ....|D-4 2F2F ....
....|..|--- .... ....|--- .... ....|R-- .... ....
....|..|--- .... ....|B-3 2F.A ....|D-4 2F2A ....
....|..|--- .... ....|R-- .... ....|R-- .... ....
....|..|--- .... ....|B-3 2F.F ....|D-4 2F2F ....
....|..|--- .... ....|R-- .... ....|R-- .... ....
....|..|--- .... ....|B-3 2F.A ....|D-4 2F2A ....
....|..|--- .... ....|R-- .... ....|R-- .... ....
....|..|--- .... ....|B-3 2F.F ....|D-4 2F2F ....
....|..|--- .... ....|R-- .... ....|R-- .... ....
....|..|--- .... ....|B-3 2F.A ....|D-4 2F2A ....
....|..|--- .... ....|R-- .... ....|R-- .... ....
....|..|--- .... ....|A-3 2F.F ....|D-4 2F2F ....
....|..|--- .... ....|R-- .... ....|R-- .... ....
....|..|--- .... ....|B-3 2F.A ....|D-4 2F2A ....
....|..|--- .... ....|R-- .... ....|R-- .... ....
....|..|--- .... ....|B-3 2F.F ....|D-4 2F2F ....
....|..|--- .... ....|R-- .... ....|R-- .... ....
....|..|--- .... ....|A-3 2F.A ....|D-4 2F2A ....
....|..|--- .... ....|R-- .... ....|R-- .... ....

[Pattern2]
....|..|--- .... ....|B-3 2F.7 ....|D-4 2F2F ....
....|..|--- .... ....|R-- .... ....|R-- .... ....
....|..|--- .... ....|B-3 2F.A ....|D-4 2F2A ....
....|..|--- .... ....|R-- .... ....|R-- .... ....
....|..|--- .... ....|B-3 2F.F ....|D-4 2F2F ....
....|..|--- .... ....|--- .... ....|R-- .... ....
....|..|--- .... ....|R-- .... ....|D-4 2F2A ....
....|..|--- .... ....|R-- .... ....|R-- .... ....
....|..|--- .... ....|B-3 2F.F ....|D-4 2F2F ....
....|..|--- .... ....|--- .... ....|R-- .... ....
....|..|--- .... ....|B-3 2F.A ....|D-4 2F2A ....
....|..|--- .... ....|R-- .... ....|R-- .... ....
....|..|--- .... ....|B-3 2F.F ....|D-4 2F2F ....
....|..|--- .... ....|R-- .... ....|R-- .... ....
....|..|--- .... ....|B-3 2F.A ....|D-4 2F2A ....
....|..|--- .... ....|R-- .... ....|R-- .... ....
....|..|--- .... ....|B-3 2F.F ....|D-4 2F2F ....
....|..|--- .... ....|R-- .... ....|R-- .... ....
....|..|--- .... ....|B-3 2F.A ....|D-4 2F2A ....
....|..|--- .... ....|R-- .... ....|R-- .... ....
....|..|--- .... ....|B-3 2F.F ....|D-4 2F2F ....
....|..|--- .... ....|R-- .... ....|R-- .... ....
....|..|--- .... ....|B-3 2F.A ....|D-4 2F2A ....
....|..|--- .... ....|R-- .... ....|R-- .... ....
....|..|--- .... ....|A-3 2F.F ....|D-4 2F2F ....
....|..|--- .... ....|R-- .... ....|R-- .... ....
....|..|--- .... ....|B-3 2F.A ....|D-4 2F2A ....
....|..|--- .... ....|R-- .... ....|R-- .... ....
....|..|--- .... ....|B-3 2F.F ....|D-4 2F2F ....
....|..|--- .... ....|--- .... ....|R-- .... ....
....|..|--- .... ....|A-3 2F.A ....|D-4 2F2A ....
....|..|--- .... ....|R-- .... ....|R-- .... ....
....|..|--- .... ....|B-3 2F.7 ....|D-4 2F2F ....
....|..|--- .... ....|R-- .... ....|R-- .... ....
....|..|--- .... ....|B-3 2F.A ....|D-4 2F2A ....
....|..|--- .... ....|--- .... ....|R-- .... ....
....|..|--- .... ....|B-3 2F.F ....|D-4 2F2F ....
....|..|--- .... ....|--- .... ....|R-- .... ....
....|..|--- .... ....|R-- .... ....|D-4 2F2A ....
....|..|--- .... ....|R-- .... ....|R-- .... ....
....|..|--- .... ....|B-3 2F.F ....|D-4 2F2F ....
....|..|--- .... ....|--- .... ....|R-- .... ....
....|..|--- .... ....|B-3 2F.A ....|D-4 2F2A ....
....|..|--- .... ....|R-- .... ....|R-- .... ....
....|..|--- .... ....|B-3 2F.F ....|D-4 2F2F ....
....|..|--- .... ....|R-- .... ....|R-- .... ....
....|..|--- .... ....|B-3 2F.A ....|D-4 2F2A ....
....|..|--- .... ....|R-- .... ....|R-- .... ....
....|..|--- .... ....|B-3 2F.F ....|D-4 2F2F ....
....|..|--- .... ....|R-- .... ....|R-- .... ....
....|..|--- .... ....|B-3 2F.A ....|D-4 2F2A ....
....|..|--- .... ....|R-- .... ....|R-- .... ....
....|..|--- .... ....|B-3 2F.F ....|D-4 2F2F ....
....|..|--- .... ....|R-- .... ....|R-- .... ....
....|..|--- .... ....|B-3 2F.A ....|D-4 2F2A ....
....|..|--- .... ....|R-- .... ....|R-- .... ....
....|..|--- .... ....|A-3 2F.F ....|D-4 2F2F ....
....|..|--- .... ....|R-- .... ....|R-- .... ....
....|..|--- .... ....|B-3 2F.A ....|D-4 2F2A ....
....|..|--- .... ....|R-- .... ....|R-- .... ....
....|..|--- .... ....|A-3 2F.F ....|D-4 2F2F ....
....|..|--- .... ....|R-- .... ....|R-- .... ....
....|..|--- .... ....|A-3 2F.A ....|D-4 2F2A ....
....|..|--- .... ....|R-- .... ....|R-- .... ....

[Pattern3]
....|..|--- .... ....|B-3 2F.7 ....|D-4 2F2F ....
....|..|--- .... ....|R-- .... ....|R-- .... ....
....|..|--- .... ....|A-3 2F.A ....|D-4 2F2A ....
....|..|--- .... ....|R-- .... ....|R-- .... ....
....|..|--- .... ....|A-3 2F.F ....|D-4 2F2F ....
....|..|--- .... ....|--- .... ....|R-- .... ....
....|..|--- .... ....|R-- .... ....|D-4 2F2A ....
....|..|--- .... ....|R-- .... ....|R-- .... ....
....|..|--- .... ....|A-3 2F.F ....|D-4 2F2F ....
....|..|--- .... ....|--- .... ....|R-- .... ....
....|..|--- .... ....|A-3 2F.A ....|D-4 2F2A ....
....|..|--- .... ....|--- .... ....|R-- .... ....
....|..|--- .... ....|G-3 2F.F ....|D-4 2F2F ....
....|..|--- .... ....|R-- .... ....|R-- .... ....
....|..|--- .... ....|A-3 2F.A ....|D-4 2F2A ....
....|..|--- .... ....|R-- .... ....|R-- .... ....
....|..|--- .... ....|G-3 2F.F ....|D-4 2F2F ....
....|..|--- .... ....|--- .... ....|R-- .... ....
....|..|--- .... ....|G-3 2F.A ....|D-4 2F2A ....
....|..|--- .... ....|R-- .... ....|R-- .... ....
....|..|--- .... ....|A-3 2F.7 ....|D-4 2F2F ....
....|..|--- .... ....|R-- .... ....|R-- .... ....
....|..|--- .... ....|D-4 2F.F ....|D-4 2F2A ....
....|..|--- .... ....|--- .... ....|R-- .... ....
....|..|--- .... ....|G-3 2F.7 ....|D-4 2F2F ....
....|..|--- .... ....|--- .... ....|R-- .... ....
....|..|--- .... ....|--- .... ....|D-4 2F2A ....
....|..|--- .... ....|R-- .... ....|R-- .... ....
....|..|--- .... ....|B-3 2F.F ....|D-4 2F2F ....
....|..|--- .... ....|--- .... ....|R-- .... ....
....|..|--- .... ....|--- .... ....|D-4 2F2A ....
....|..|--- .... ....|--- .... ....|R-- .... ....
....|..|--- .... ....|R-- .... ....|D-4 2F2F ....
....|..|--- .... ....|R-- .... ....|R-- .... ....
....|..|--- .... ....|D-4 2F.7 ....|D-4 2F2A ....
....|..|--- .... ....|--- .... ....|R-- .... ....
....|..|--- .... ....|B-3 2F.F ....|D-4 2F2F ....
....|..|--- .... ....|--- .... ....|R-- .... ....
....|..|--- .... ....|R-- .... ....|D-4 2F2A ....
....|..|--- .... ....|R-- .... ....|R-- .... ....
....|..|--- .... ....|B-3 2F.F ....|D-4 2F2F ....
....|..|--- .... ....|--- .... ....|R-- .... ....
....|..|--- .... ....|B-3 2F.A ....|D-4 2F2A ....
....|..|--- .... ....|R-- .... ....|R-- .... ....
....|..|--- .... ....|B-3 2F.F ....|D-4 2F2F ....
....|..|--- .... ....|R-- .... ....|R-- .... ....
....|..|--- .... ....|B-3 2F.A ....|D-4 2F2A ....
....|..|--- .... ....|R-- .... ....|R-- .... ....
....|..|--- .... ....|B-3 2F.F ....|D-4 2F2F ....
....|..|--- .... ....|R-- .... ....|R-- .... ....
....|..|--- .... ....|B-3 2F.A ....|D-4 2F2A ....
....|..|--- .... ....|R-- .... ....|R-- .... ....
....|..|--- .... ....|B-3 2F.F ....|D-4 2F2F ....
....|..|--- .... ....|R-- .... ....|R-- .... ....
....|..|--- .... ....|B-3 2F.A ....|D-4 2F2A ....
....|..|--- .... ....|R-- .... ....|R-- .... ....
....|..|--- .... ....|A-3 2F.F ....|D-4 2F2F ....
....|..|--- .... ....|R-- .... ....|R-- .... ....
....|..|--- .... ....|B-3 2F.A ....|D-4 2F2A ....
....|..|--- .... ....|R-- .... ....|R-- .... ....
....|..|--- .... ....|B-3 2F.F ....|D-4 2F2F ....
....|..|--- .... ....|R-- .... ....|R-- .... ....
....|..|--- .... ....|A-3 2F.A ....|D-4 2F2A ....
....|..|--- .... ....|R-- .... ....|R-- .... ....

[Pattern4]
....|..|--- .... ....|B-3 2F.7 ....|D-4 2F2F ....
....|..|--- .... ....|R-- .... ....|R-- .... ....
....|..|--- .... ....|B-3 2F.A ....|D-4 2F2A ....
....|..|--- .... ....|R-- .... ....|R-- .... ....
....|..|--- .... ....|B-3 2F.F ....|D-4 2F2F ....
....|..|--- .... ....|--- .... ....|R-- .... ....
....|..|--- .... ....|R-- .... ....|D-4 2F2A ....
....|..|--- .... ....|R-- .... ....|R-- .... ....
....|..|--- .... ....|B-3 2F.F ....|D-4 2F2F ....
....|..|--- .... ....|--- .... ....|R-- .... ....
....|..|--- .... ....|B-3 2F.A ....|D-4 2F2A ....
....|..|--- .... ....|R-- .... ....|R-- .... ....
....|..|--- .... ....|B-3 2F.F ....|D-4 2F2F ....
....|..|--- .... ....|R-- .... ....|R-- .... ....
....|..|--- .... ....|B-3 2F.A ....|D-4 2F2A ....
....|..|--- .... ....|R-- .... ....|R-- .... ....
....|..|--- .... ....|B-3 2F.F ....|D-4 2F2F ....
....|..|--- .... ....|R-- .... ....|R-- .... ....
....|..|--- .... ....|B-3 2F.A ....|D-4 2F2A ....
....|..|--- .... ....|R-- .... ....|R-- .... ....
....|..|--- .... ....|B-3 2F.F ....|D-4 2F2F ....
....|..|--- .... ....|R-- .... ....|R-- .... ....
....|..|--- .... ....|B-3 2F.A ....|D-4 2F2A ....
....|..|--- .... ....|R-- .... ....|R-- .... ....
....|..|--- .... ....|A-3 2F.F ....|D-4 2F2F ....
....|..|--- .... ....|R-- .... ....|R-- .... ....
....|..|--- .... ....|B-3 2F.A ....|D-4 2F2A ....
....|..|--- .... ....|R-- .... ....|R-- .... ....
....|..|--- .... ....|B-3 2F.F ....|D-4 2F2F ....
....|..|--- .... ....|--- .... ....|R-- .... ....
....|..|--- .... ....|A-3 2F.A ....|D-4 2F2A ....
....|..|--- .... ....|R-- .... ....|R-- .... ....
....|..|--- .... ....|B-3 2F.7 ....|D-4 2F2F ....
....|..|--- .... ....|R-- .... ....|R-- .... ....
....|..|--- .... ....|B-3 2F.A ....|D-4 2F2A ....
....|..|--- .... ....|--- .... ....|R-- .... ....
....|..|--- .... ....|B-3 2F.F ....|D-4 2F2F ....
....|..|--- .... ....|R-- .... ....|R-- .... ....
....|..|--- .... ....|--- .... ....|D-4 2F2A ....
....|..|--- .... ....|R-- .... ....|R-- .... ....
....|..|--- .... ....|B-3 2F.F ....|D-4 2F2F ....
....|..|--- .... ....|--- .... ....|R-- .... ....
....|..|--- .... ....|B-3 2F.A ....|D-4 2F2A ....
....|..|--- .... ....|R-- .... ....|R-- .... ....
....|..|--- .... ....|B-3 2F.F ....|D-4 2F2F ....
....|..|--- .... ....|R-- .... ....|R-- .... ....
....|..|--- .... ....|B-3 2F.A ....|D-4 2F2A ....
....|..|--- .... ....|R-- .... ....|R-- .... ....
....|..|--- .... ....|B-3 2F.F ....|D-4 2F2F ....
....|..|--- .... ....|R-- .... ....|R-- .... ....
....|..|--- .... ....|B-3 2F.A ....|D-4 2F2A ....
....|..|--- .... ....|R-- .... ....|R-- .... ....
....|..|--- .... ....|B-3 2F.F ....|D-4 2F2F ....
....|..|--- .... ....|R-- .... ....|R-- .... ....
....|..|--- .... ....|B-3 2F.A ....|D-4 2F2A ....
....|..|--- .... ....|R-- .... ....|R-- .... ....
....|..|--- .... ....|A-3 2F.F ....|D-4 2F2F ....
....|..|--- .... ....|R-- .... ....|R-- .... ....
....|..|--- .... ....|B-3 2F.A ....|D-4 2F2A ....
....|..|--- .... ....|R-- .... ....|R-- .... ....
....|..|--- .... ....|A-3 2F.F ....|D-4 2F2F ....
....|..|--- .... ....|R-- .... ....|R-- .... ....
....|..|--- .... ....|A-3 2F.A ....|D-4 2F2A ....
....|..|--- .... ....|R-- .... ....|R-- .... ....

[Pattern5]
....|..|--- .... ....|B-3 2F.7 ....|D-4 2F2F ....
....|..|--- .... ....|R-- .... ....|R-- .... ....
....|..|--- .... ....|A-3 2F.A ....|D-4 2F2A ....
....|..|--- .... ....|R-- .... ....|R-- .... ....
....|..|--- .... ....|A-3 2F.F ....|D-4 2F2F ....
....|..|--- .... ....|--- .... ....|R-- .... ....
....|..|--- .... ....|R-- .... ....|D-4 2F2A ....
....|..|--- .... ....|R-- .... ....|R-- .... ....
....|..|--- .... ....|A-3 2F.F ....|D-4 2F2F ....
....|..|--- .... ....|--- .... ....|R-- .... ....
....|..|--- .... ....|A-3 2F.A ....|D-4 2F2A ....
....|..|--- .... ....|--- .... ....|R-- .... ....
....|..|--- .... ....|G-3 2F.F ....|D-4 2F2F ....
....|..|--- .... ....|R-- .... ....|R-- .... ....
....|..|--- .... ....|A-3 2F.A ....|D-4 2F2A ....
....|..|--- .... ....|R-- .... ....|R-- .... ....
....|..|--- .... ....|G-3 2F.F ....|D-4 2F2F ....
....|..|--- .... ....|--- .... ....|R-- .... ....
....|..|--- .... ....|G-3 2F.A ....|D-4 2F2A ....
....|..|--- .... ....|R-- .... ....|R-- .... ....
....|..|--- .... ....|A-3 2F.7 ....|D-4 2F2F ....
....|..|--- .... ....|R-- .... ....|R-- .... ....
....|..|--- .... ....|D-4 2F.F ....|D-4 2F2A ....
....|..|--- .... ....|--- .... ....|R-- .... ....
....|..|--- .... ....|G-3 2F.7 ....|D-4 2F2F ....
....|..|--- .... ....|--- .... ....|R-- .... ....
....|..|--- .... ....|--- .... ....|D-4 2F2A ....
....|..|--- .... ....|R-- .... ....|R-- .... ....
....|..|--- .... ....|B-3 2F.F ....|D-4 2F2F ....
....|..|--- .... ....|--- .... ....|R-- .... ....
....|..|--- .... ....|--- .... ....|D-4 2F2A ....
....|..|--- .... ....|--- .... ....|R-- .... ....
 C-3|..|C-1 2A.F ....|R-- .... ....|D-4 2F2F ....
....|..|--- .... ....|R-- .... ....|R-- .... ....
....|..|--- .... ....|D-4 2F.7 ....|D-4 2F2A ....
....|..|--- .... ....|--- .... ....|R-- .... ....
 C-3|..|C-1 2A.F ....|--- .... ....|D-4 2F2F ....
....|..|--- .... ....|--- .... ....|R-- .... ....
....|..|C-1 2F.A ....|R-- .... ....|D-4 2F2A ....
....|..|--- .... ....|--- .... ....|R-- .... ....
 C-3|..|C-1 2A.F ....|D-4 2F.F ....|D-4 2F2F ....
....|..|--- .... ....|--- .... ....|R-- .... ....
....|..|C-1 2F.A ....|--- .... ....|D-4 2F2A ....
....|..|--- .... ....|--- .... ....|R-- .... ....
 C-3|..|C-1 2A.F ....|R-- .... ....|D-4 2F2F ....
....|..|--- .... ....|R-- .... ....|R-- .... ....
....|..|C-1 2F.A ....|D-4 2F.A ....|D-4 2F2A ....
....|..|--- .... ....|--- .... ....|R-- .... ....
 C-3|..|C-1 2A.F ....|D-4 2F.F ....|D-4 2F2F ....
....|..|--- .... ....|--- .... ....|R-- .... ....
....|..|C-1 2F.A ....|B-3 2F.F ....|D-4 2F2A ....
....|..|--- .... ....|R-- .... ....|R-- .... ....
 C-3|..|C-1 2A.F ....|D-4 2F.7 ....|D-4 2F2F ....
....|..|--- .... ....|R-- .... ....|R-- .... ....
....|..|C-1 2F.A ....|A-3 2F.F ....|D-4 2F2A ....
....|..|--- .... ....|C-4 2F.F ....|R-- .... ....
 C-3|..|C-1 2A.F ....|B-3 2F.A ....|D-4 2F2F ....
....|..|--- .... ....|R-- .... ....|R-- .... ....
....|..|C-1 2F.A ....|G-3 2F.F ....|D-4 2F2A ....
....|..|--- .... ....|R-- .... ....|R-- .... ....
 G-3|..|G-1 2A.F ....|D-4 2F.A ....|D-4 2F2F ....
....|..|--- .... ....|C-4 2F.A ....|R-- .... ....
....|..|C-1 2F.A ....|B-3 2F.7 ....|D-4 2F2A ....
....|..|--- .... ....|R-- .... ....|R-- .... ....

[Pattern6]
 G-3|..|G-1 2A.F ....|D-4 2F.F ....|D-4 2F2F ....
....|..|--- .... ....|R-- .... ....|R-- .... ....
....|..|G-1 2F.A ....|A-3 2F.7 ....|D-4 2F2A ....
....|..|--- .... ....|C-4 2F.7 ....|R-- .... ....
 D-3|..|D-1 2A.F ....|R-- .... ....|D-4 2F2F ....
....|..|--- .... ....|R-- .... ....|R-- .... ....
....|..|G-1 2F.A ....|G-3 2F.7 ....|D-4 2F2A ....
....|..|--- .... ....|--- .... ....|R-- .... ....
 D-3|..|D-1 2A.F ....|D-4 2F.F ....|D-4 2F2F ....
....|..|--- .... ....|R-- .... ....|R-- .... ....
....|..|D-1 2F.A ....|R-- .... ....|D-4 2F2A ....
....|..|--- .... ....|--- .... ....|R-- .... ....
 D-3|..|D-1 2A.F ....|D-4 2F.7 ....|D-4 2F2F ....
....|..|--- .... ....|--- .... ....|R-- .... ....
....|..|D-1 2F.A ....|D-4 2F.A ....|D-4 2F2A ....
....|..|--- .... ....|--- .... ....|R-- .... ....
 D-3|..|D-1 2A.F ....|D-4 2F.F ....|D-4 2F2F ....
....|..|--- .... ....|--- .... ....|R-- .... ....
....|..|D-1 2F.A ....|B-3 2F.F ....|D-4 2F2A ....
....|..|--- .... ....|--- .... ....|R-- .... ....
 D-3|..|D-1 2A.F ....|D-4 2F.7 ....|D-4 2F2F ....
....|..|--- .... ....|--- .... ....|R-- .... ....
....|..|D-1 2F.A ....|A-3 2F.F ....|D-4 2F2A ....
....|..|--- .... ....|C-4 2F.F ....|R-- .... ....
 D-3|..|D-1 2A.F ....|B-3 2F.A ....|D-4 2F2F ....
....|..|--- .... ....|R-- .... ....|R-- .... ....
....|..|D-1 2F.A ....|G-3 2F.F ....|D-4 2F2A ....
....|..|--- .... ....|--- .... ....|R-- .... ....
 E-3|..|E-1 2A.F ....|D-4 2F.A ....|D-4 2F2F ....
....|..|--- .... ....|C-4 2F.A ....|R-- .... ....
....|..|D-1 2F.A ....|B-3 2F.7 ....|D-4 2F2A ....
....|..|--- .... ....|R-- .... ....|R-- .... ....
 E-3|..|E-1 2A.F ....|D-4 2F.F ....|D-4 2F2F ....
....|..|--- .... ....|--- .... ....|R-- .... ....
....|..|E-1 2F.A ....|A-3 2F.7 ....|D-4 2F2A ....
....|..|--- .... ....|C-4 2F.7 ....|R-- .... ....
 C-3|..|C-1 2A.F ....|R-- .... ....|D-4 2F2F ....
....|..|--- .... ....|R-- .... ....|R-- .... ....
....|..|E-1 2F.A ....|G-3 2F.7 ....|D-4 2F2A ....
....|..|--- .... ....|--- .... ....|R-- .... ....
 C-3|..|C-1 2A.F ....|D-4 2F.F ....|D-4 2F2F ....
....|..|--- .... ....|R-- .... ....|R-- .... ....
....|..|C-1 2F.A ....|R-- .... ....|D-4 2F2A ....
....|..|--- .... ....|--- .... ....|R-- .... ....
 C-3|..|C-1 2A.F ....|D-4 2F.7 ....|D-4 2F2F ....
....|..|--- .... ....|R-- .... ....|R-- .... ....
....|..|C-1 2F.A ....|D-4 2F.A ....|D-4 2F2A ....
....|..|--- .... ....|--- .... ....|R-- .... ....
 C-3|..|C-1 2A.F ....|D-4 2F.F ....|D-4 2F2F ....
....|..|--- .... ....|--- .... ....|R-- .... ....
....|..|C-1 2F.A ....|B-3 2F.F ....|D-4 2F2A ....
....|..|--- .... ....|R-- .... ....|R-- .... ....
 C-3|..|C-1 2A.F ....|D-4 2F.7 ....|D-4 2F2F ....
....|..|--- .... ....|R-- .... ....|R-- .... ....
....|..|C-1 2F.A ....|A-3 2F.F ....|D-4 2F2A ....
....|..|--- .... ....|--- .... ....|R-- .... ....
 C-3|..|C-1 2A.F ....|B-3 2F.A ....|D-4 2F2F ....
....|..|--- .... ....|R-- .... ....|R-- .... ....
....|..|C-1 2F.A ....|G-3 2F.F ....|D-4 2F2A ....
....|..|--- .... ....|R-- .... ....|R-- .... ....
 G-3|..|G-1 2A.F ....|C-4 2F.A ....|D-4 2F2F ....
....|..|--- .... ....|R-- .... ....|R-- .... ....
....|..|C-1 2F.A ....|B-3 2F.7 ....|D-4 2F2A ....
....|..|--- .... ....|--- .... ....|R-- .... ....

[Pattern7]
 G-3|..|G-1 2A.F ....|G-4 2F.F ....|D-4 2F2F ....
....|..|--- .... ....|R-- .... ....|R-- .... ....
....|..|G-1 2F.A ....|A-3 2F.7 ....|D-4 2F2A ....
....|..|--- .... ....|R-- .... ....|R-- .... ....
 D-3|..|D-1 2A.F ....|G-4 2F.F ....|D-4 2F2F ....
....|..|--- .... ....|--- .... ....|R-- .... ....
....|..|G-1 2F.A ....|G-3 2F.7 ....|D-4 2F2A ....
....|..|--- .... ....|R-- .... ....|R-- .... ....
 D-3|..|D-1 2A.F ....|G-4 2F.F ....|D-4 2F2F ....
....|..|--- .... ....|R-- .... ....|R-- .... ....
....|..|D-1 2F.A ....|G-4 2F.A ....|D-4 2F2A ....
....|..|--- .... ....|R-- .... ....|R-- .... ....
 D-3|..|D-1 2A.F ....|G-4 2F.F ....|D-4 2F2F ....
....|..|--- .... ....|R-- .... ....|R-- .... ....
....|..|D-1 2F.A ....|G-4 2F.A ....|D-4 2F2A ....
....|..|--- .... ....|R-- .... ....|R-- .... ....
 D-3|..|D-1 2A.F ....|G-4 2F.F ....|D-4 2F2F ....
....|..|--- .... ....|R-- .... ....|R-- .... ....
....|..|D-1 2F.A ....|G-4 2F.A ....|D-4 2F2A ....
....|..|--- .... ....|R-- .... ....|R-- .... ....
....|..|D-1 2F.7 ....|G-4 2F.F ....|D-4 2F27 ....
....|..|--- .... ....|R-- .... ....|R-- .... ....
....|..|D-1 2F.A ....|G-4 2F.A ....|D-4 2F2A ....
....|..|--- .... ....|R-- .... ....|--- .... ....
....|..|D-1 2F.7 ....|A-4 2F.F ....|D-4 2F2F ....
....|..|--- .... ....|R-- .... ....|R-- .... ....
....|..|--- .... ....|G-4 2F.A ....|--- .... ....
....|..|--- .... ....|R-- .... ....|--- .... ....
....|..|D-1 2F.7 ....|B-4 2F.F ....|D-4 2F27 ....
....|..|--- .... ....|R-- .... ....|--- .... ....
....|..|R-- .... ....|A-4 2F.A ....|D-4 2F2A ....
....|..|--- .... ....|R-- .... ....|R-- .... ....
 C-3|..|C-3 2C.F ....|G-4 2F.7 ....|C-4 2F1F ....
 C-3|..|C-1 2A.F ....|--- .... ....|--- .... ....
....|..|E-5 2F.F ....|B-4 2F.A ....|--- .... ....
....|..|--- .... ....|R-- .... ....|--- .... ....
....|..|R-- .... ....|A-4 2F.7 ....|D-4 2F27 ....
....|..|--- .... ....|R-- .... ....|R-- .... ....
....|..|C-3 2F.A ....|--- .... ....|E-4 2F.F ....
....|..|R-- .... ....|--- .... ....|R-- .... ....
....|..|E-5 2F.A ....|G-4 2F.F ....|--- .... ....
....|..|--- .... ....|--- .... ....|--- .... ....
....|..|--- .... ....|--- .... ....|--- .... ....
....|..|--- .... ....|R-- .... ....|--- .... ....
....|..|C-3 2F.7 ....|--- .... ....|C-4 2F17 ....
....|..|R-- .... ....|R-- .... ....|R-- .... ....
....|..|E-5 2F.7 ....|G-4 2F.A ....|--- .... ....
....|..|--- .... ....|--- .... ....|--- .... ....
....|..|--- .... ....|B-3 2F.F ....|--- .... ....
....|..|--- .... ....|--- .... ....|--- .... ....
....|..|--- .... ....|D-4 2F.F ....|E-4 2F.7 ....
....|..|R-- .... ....|D-4 2F.F ....|R-- .... ....
....|..|R-- .... ....|G-4 2F.7 ....|--- .... ....
....|..|--- .... ....|R-- .... ....|--- .... ....
....|..|--- .... ....|G-4 2F.F ....|--- .... ....
....|..|--- .... ....|--- .... ....|--- .... ....
....|..|--- .... ....|D-4 2F.A ....|--- .... ....
....|..|--- .... ....|D-4 2F.A ....|--- .... ....
....|..|--- .... ....|D-4 2F.F ....|--- .... ....
....|..|--- .... ....|R-- .... ....|--- .... ....
 G-4|..|G-3 2C.F ....|B-3 2F.7 ....|D-4 2F2F ....
 G-3|..|G-1 2A.F ....|R-- .... ....|--- .... ....
....|..|B-5 2F.F ....|D-4 2F.7 ....|--- .... ....
....|..|--- .... ....|D-4 2F.7 ....|--- .... ....

[Pattern8]
....|..|R-- .... ....|D-4 2F.A ....|--- .... ....
....|..|R-- .... ....|R-- .... ....|R-- .... ....
....|..|G-3 2F.A ....|G-4 2F.7 ....|D-4 2F2A ....
....|..|G-1 2F.A ....|R-- .... ....|--- .... ....
 D-4|..|D-3 2C.F ....|--- .... ....|D-4 2F1F ....
 D-3|..|D-1 2A.F ....|--- .... ....|--- .... ....
....|..|F#5 2F.F ....|D-4 2F.7 ....|--- .... ....
....|..|R-- .... ....|--- .... ....|D-4 2F.F ....
 D-4|..|D-3 2C.F ....|--- .... ....|D-4 2F1F ....
 D-3|..|D-1 2A.F ....|R-- .... ....|--- .... ....
....|..|D-3 2F.A ....|--- .... ....|D-4 2F1A ....
....|..|D-1 2F.A ....|--- .... ....|--- .... ....
....|..|F#5 2F.A ....|B-3 2F.F ....|D-4 2F.F ....
....|..|R-- .... ....|--- .... ....|D-4 2F.A ....
....|..|D-3 2F.A ....|--- .... ....|D-4 2F1A ....
....|..|F#5 2F.A ....|R-- .... ....|--- .... ....
....|..|D-3 2F.7 ....|B-3 2F.F ....|D-4 2F17 ....
....|..|D-1 2F.7 ....|--- .... ....|--- .... ....
....|..|F#5 2F.7 ....|D-4 2F.F ....|D-4 2F.A ....
....|..|R-- .... ....|D-4 2F.F ....|D-4 2F.7 ....
....|..|D-3 2F.7 ....|R-- .... ....|D-4 2F17 ....
....|..|F#5 2F.7 ....|R-- .... ....|--- .... ....
....|..|--- .... ....|B-4 2F.F ....|--- .... ....
....|..|--- .... ....|--- .... ....|--- .... ....
....|..|--- .... ....|B-3 2F.7 ....|D-4 2F.7 ....
....|..|R-- .... ....|D-4 2F.A ....|R-- .... ....
....|..|R-- .... ....|R-- .... ....|--- .... ....
....|..|R-- .... ....|R-- .... ....|--- .... ....
 E-4|..|E-3 2C.F ....|G-4 2F.F ....|E-4 2F3F ....
 E-3|..|E-1 2A.F ....|--- .... ....|--- .... ....
....|..|G-5 2F.F ....|D-4 2F.7 ....|--- .... ....
....|..|--- .... ....|D-4 2F.7 ....|--- .... ....
....|..|R-- .... ....|R-- .... ....|R-- .... ....
....|..|R-- .... ....|--- .... ....|--- .... ....
....|..|E-3 2F.A ....|B-4 2F.7 ....|E-4 2F3A ....
....|..|E-1 2F.A ....|--- .... ....|--- .... ....
 C-3|..|C-3 2C.F ....|--- .... ....|C-4 2F1F ....
 C-3|..|C-1 2A.F ....|R-- .... ....|--- .... ....
....|..|E-5 2F.F ....|--- .... ....|R-- .... ....
....|..|R-- .... ....|--- .... ....|R-- .... ....
 C-3|..|C-3 2C.F ....|G-4 2F.7 ....|C-4 2F1F ....
 C-3|..|C-1 2A.F ....|--- .... ....|--- .... ....
....|..|C-3 2F.A ....|--- .... ....|C-4 2F1A ....
....|..|C-1 2F.A ....|R-- .... ....|--- .... ....
 C-3|..|C-3 2C.F ....|G-4 2F.F ....|R-- .... ....
....|..|E-5 2F.A ....|--- .... ....|R-- .... ....
....|..|C-3 2F.A ....|--- .... ....|C-4 2F1A ....
....|..|C-1 2F.A ....|R-- .... ....|--- .... ....
....|..|C-3 2F.7 ....|B-4 2F.F ....|C-4 2F17 ....
....|..|C-1 2F.7 ....|--- .... ....|--- .... ....
....|..|C-3 2F.A ....|G-4 2F.A ....|--- .... ....
....|..|E-5 2F.7 ....|--- .... ....|R-- .... ....
....|..|C-3 2F.7 ....|C-5 2F.F ....|C-4 2F17 ....
....|..|C-1 2F.7 ....|R-- .... ....|--- .... ....
....|..|E-5 2F.7 ....|B-4 2F.A ....|--- .... ....
....|..|--- .... ....|R-- .... ....|--- .... ....
....|..|C-3 2F.7 ....|B-4 2F.F ....|--- .... ....
....|..|--- .... ....|--- .... ....|--- .... ....
....|..|R-- .... ....|C-5 2F.A ....|R-- .... ....
....|..|--- .... ....|R-- .... ....|--- .... ....
 G-4|..|G-3 2C.F ....|G-4 2F.F ....|D-4 2F2F ....
 G-3|..|G-1 2A.F ....|R-- .... ....|--- .... ....
....|..|B-5 2F.F ....|B-4 2F.A ....|--- .... ....
....|..|--- .... ....|R-- .... ....|--- .... ....

[Pattern9]
....|..|R-- .... ....|C-5 2F.7 ....|R-- .... ....
....|..|R-- .... ....|--- .... ....|--- .... ....
....|..|G-3 2F.A ....|G-4 2F.A ....|D-4 2F2A ....
....|..|G-1 2F.A ....|R-- .... ....|--- .... ....
 D-4|..|D-3 2C.F ....|B-4 2F.7 ....|D-4 2F1F ....
 D-3|..|D-1 2A.F ....|R-- .... ....|--- .... ....
....|..|F#5 2F.F ....|--- .... ....|R-- .... ....
....|..|R-- .... ....|--- .... ....|--- .... ....
 D-4|..|D-3 2C.F ....|G-4 2F.7 ....|D-4 2F1F ....
 D-3|..|D-1 2A.F ....|--- .... ....|--- .... ....
....|..|D-3 2F.A ....|--- .... ....|D-4 2F1A ....
....|..|D-1 2F.A ....|R-- .... ....|--- .... ....
....|..|F#5 2F.A ....|G-4 2F.F ....|R-- .... ....
....|..|R-- .... ....|--- .... ....|--- .... ....
....|..|D-3 2F.A ....|--- .... ....|D-4 2F1A ....
....|..|D-1 2F.A ....|R-- .... ....|--- .... ....
....|..|D-3 2F.7 ....|B-4 2F.F ....|D-4 2F17 ....
....|..|D-1 2F.7 ....|--- .... ....|--- .... ....
....|..|F#5 2F.7 ....|G-4 2F.A ....|--- .... ....
....|..|R-- .... ....|--- .... ....|--- .... ....
....|..|D-3 2F.7 ....|A-4 2F.F ....|D-4 2F17 ....
....|..|D-1 2F.7 ....|R-- .... ....|--- .... ....
....|..|F#5 2F.7 ....|B-4 2F.A ....|--- .... ....
....|..|--- .... ....|R-- .... ....|--- .... ....
....|..|--- .... ....|A-4 2F.F ....|--- .... ....
....|..|R-- .... ....|--- .... ....|--- .... ....
....|..|R-- .... ....|A-4 2F.A ....|R-- .... ....
....|..|--- .... ....|R-- .... ....|--- .... ....
....|..|R-- .... ....|G-4 2F.F ....|--- .... ....
....|..|--- .... ....|R-- .... ....|--- .... ....
....|..|--- .... ....|A-4 2F.A ....|--- .... ....
....|..|--- .... ....|R-- .... ....|--- .... ....
 C-3|..|C-3 2C.F ....|A-4 2F.7 ....|C-4 2F1F ....
 C-3|..|C-1 2A.F ....|--- .... ....|--- .... ....
....|..|--- .... ....|G-4 2F.A ....|--- .... ....
....|..|--- .... ....|R-- .... ....|--- .... ....
....|..|--- .... ....|A-4 2F.7 ....|--- .... ....
....|..|--- .... ....|R-- .... ....|--- .... ....
....|..|C-3 2F.A ....|--- .... ....|E-4 2F.F ....
....|..|C-1 2F.A ....|--- .... ....|R-- .... ....
....|..|R-- .... ....|G-4 2F.F ....|--- .... ....
....|..|--- .... ....|--- .... ....|--- .... ....
....|..|--- .... ....|--- .... ....|--- .... ....
....|..|--- .... ....|R-- .... ....|--- .... ....
....|..|C-3 2F.7 ....|--- .... ....|C-4 2F17 ....
....|..|C-1 2F.7 ....|R-- .... ....|R-- .... ....
....|..|R-- .... ....|G-4 2F.A ....|--- .... ....
....|..|--- .... ....|--- .... ....|--- .... ....
....|..|--- .... ....|B-3 2F.F ....|--- .... ....
....|..|--- .... ....|--- .... ....|--- .... ....
....|..|--- .... ....|D-4 2F.F ....|E-4 2F.7 ....
....|..|R-- .... ....|D-4 2F.F ....|R-- .... ....
....|..|R-- .... ....|G-4 2F.7 ....|--- .... ....
....|..|--- .... ....|R-- .... ....|--- .... ....
....|..|--- .... ....|G-4 2F.F ....|--- .... ....
....|..|--- .... ....|--- .... ....|--- .... ....
....|..|--- .... ....|D-4 2F.A ....|--- .... ....
....|..|--- .... ....|D-4 2F.A ....|--- .... ....
....|..|--- .... ....|D-4 2F.F ....|--- .... ....
....|..|--- .... ....|R-- .... ....|--- .... ....
 G-4|..|G-3 2C.F ....|B-3 2F.7 ....|D-4 2F2F ....
 G-3|..|G-1 2A.F ....|R-- .... ....|--- .... ....
....|..|B-5 2F.F ....|D-4 2F.7 ....|--- .... ....
....|..|--- .... ....|D-4 2F.7 ....|--- .... ....

[Pattern10]
....|..|R-- .... ....|D-4 2F.A ....|--- .... ....
....|..|R-- .... ....|R-- .... ....|R-- .... ....
....|..|G-3 2F.A ....|G-4 2F.7 ....|D-4 2F2A ....
....|..|G-1 2F.A ....|R-- .... ....|--- .... ....
 D-4|..|D-3 2C.F ....|--- .... ....|D-4 2F1F ....
 D-3|..|D-1 2A.F ....|--- .... ....|--- .... ....
....|..|F#5 2F.F ....|D-4 2F.7 ....|--- .... ....
....|..|R-- .... ....|--- .... ....|D-4 2F.F ....
 D-4|..|D-3 2C.F ....|--- .... ....|D-4 2F1F ....
 D-3|..|D-1 2A.F ....|R-- .... ....|--- .... ....
....|..|D-3 2F.A ....|--- .... ....|D-4 2F1A ....
....|..|D-1 2F.A ....|--- .... ....|--- .... ....
....|..|F#5 2F.A ....|--- .... ....|D-4 2F.F ....
....|..|R-- .... ....|--- .... ....|D-4 2F.A ....
....|..|D-3 2F.A ....|--- .... ....|D-4 2F1A ....
....|..|F#5 2F.A ....|B-3 2F.F ....|--- .... ....
....|..|D-3 2F.7 ....|--- .... ....|D-4 2F17 ....
....|..|D-1 2F.7 ....|--- .... ....|--- .... ....
....|..|F#5 2F.7 ....|--- .... ....|D-4 2F.A ....
....|..|R-- .... ....|D-4 2F.F ....|D-4 2F.7 ....
....|..|D-3 2F.7 ....|--- .... ....|D-4 2F17 ....
....|..|F#5 2F.7 ....|B-3 2F.A ....|--- .... ....
....|..|--- .... ....|B-4 2F.F ....|--- .... ....
....|..|--- .... ....|--- .... ....|--- .... ....
....|..|--- .... ....|--- .... ....|D-4 2F.7 ....
....|..|R-- .... ....|D-4 2F.A ....|R-- .... ....
....|..|R-- .... ....|--- .... ....|--- .... ....
....|..|R-- .... ....|B-3 2F.7 ....|--- .... ....
 E-4|..|E-3 2C.F ....|G-4 2F.F ....|E-4 2F3F ....
 E-3|..|E-1 2A.F ....|--- .... ....|--- .... ....
....|..|G-5 2F.F ....|--- .... ....|--- .... ....
....|..|--- .... ....|D-4 2F.7 ....|--- .... ....
....|..|R-- .... ....|--- .... ....|R-- .... ....
....|..|R-- .... ....|--- .... ....|--- .... ....
....|..|E-3 2F.A ....|B-4 2F.7 ....|E-4 2F3A ....
....|..|E-1 2F.A ....|--- .... ....|--- .... ....
 C-3|..|C-3 2C.F ....|--- .... ....|C-4 2F1F ....
 C-3|..|C-1 2A.F ....|R-- .... ....|--- .... ....
....|..|E-5 2F.F ....|--- .... ....|R-- .... ....
....|..|R-- .... ....|--- .... ....|R-- .... ....
 C-3|..|C-3 2C.F ....|G-4 2F.7 ....|C-4 2F1F ....
 C-3|..|C-1 2A.F ....|--- .... ....|--- .... ....
....|..|C-3 2F.A ....|--- .... ....|C-4 2F1A ....
....|..|C-1 2F.A ....|R-- .... ....|--- .... ....
 C-3|..|C-3 2C.F ....|G-4 2F.F ....|R-- .... ....
....|..|E-5 2F.A ....|--- .... ....|R-- .... ....
....|..|C-3 2F.A ....|--- .... ....|C-4 2F1A ....
....|..|C-1 2F.A ....|R-- .... ....|--- .... ....
....|..|C-3 2F.7 ....|B-4 2F.F ....|C-4 2F17 ....
....|..|C-1 2F.7 ....|--- .... ....|--- .... ....
....|..|C-3 2F.A ....|G-4 2F.A ....|--- .... ....
....|..|E-5 2F.7 ....|--- .... ....|R-- .... ....
....|..|C-3 2F.7 ....|C-5 2F.F ....|C-4 2F17 ....
....|..|C-1 2F.7 ....|R-- .... ....|--- .... ....
....|..|E-5 2F.7 ....|B-4 2F.A ....|--- .... ....
....|..|--- .... ....|R-- .... ....|--- .... ....
....|..|C-3 2F.7 ....|B-4 2F.F ....|--- .... ....
....|..|--- .... ....|--- .... ....|--- .... ....
....|..|R-- .... ....|C-5 2F.A ....|R-- .... ....
....|..|--- .... ....|R-- .... ....|--- .... ....
 G-4|..|G-3 2C.F ....|G-4 2F.F ....|D-4 2F2F ....
 G-3|..|G-1 2A.F ....|R-- .... ....|--- .... ....
....|..|B-5 2F.F ....|B-4 2F.A ....|--- .... ....
....|..|--- .... ....|R-- .... ....|--- .... ....

[Pattern13]
....|..|R-- .... ....|C-5 2F.7 ....|R-- .... ....
....|..|R-- .... ....|--- .... ....|--- .... ....
....|..|G-3 2F.A ....|G-4 2F.A ....|D-4 2F2A ....
....|..|G-1 2F.A ....|R-- .... ....|--- .... ....
 D-4|..|D-3 2C.F ....|B-4 2F.7 ....|D-4 2F1F ....
 D-3|..|D-1 2A.F ....|R-- .... ....|--- .... ....
....|..|F#5 2F.F ....|--- .... ....|R-- .... ....
....|..|R-- .... ....|--- .... ....|--- .... ....
 D-4|..|D-3 2C.F ....|G-4 2F.7 ....|D-4 2F1F ....
 D-3|..|D-1 2A.F ....|--- .... ....|--- .... ....
....|..|D-3 2F.A ....|--- .... ....|D-4 2F1A ....
....|..|D-1 2F.A ....|R-- .... ....|--- .... ....
....|..|F#5 2F.A ....|G-4 2F.F ....|R-- .... ....
....|..|R-- .... ....|--- .... ....|--- .... ....
....|..|D-3 2F.A ....|--- .... ....|D-4 2F1A ....
....|..|D-1 2F.A ....|R-- .... ....|--- .... ....
....|..|D-3 2F.7 ....|B-4 2F.F ....|D-4 2F17 ....
....|..|D-1 2F.7 ....|--- .... ....|--- .... ....
....|..|F#5 2F.7 ....|G-4 2F.A ....|--- .... ....
....|..|R-- .... ....|--- .... ....|--- .... ....
....|..|D-3 2F.7 ....|A-4 2F.F ....|D-4 2F17 ....
....|..|D-1 2F.7 ....|R-- .... ....|--- .... ....
....|..|F#5 2F.7 ....|B-4 2F.A ....|--- .... ....
....|..|--- .... ....|R-- .... ....|--- .... ....
....|..|--- .... ....|A-4 2F.F ....|--- .... ....
....|..|R-- .... ....|--- .... ....|--- .... ....
....|..|R-- .... ....|A-4 2F.A ....|R-- .... ....
....|..|--- .... ....|R-- .... ....|--- .... ....
....|..|R-- .... ....|G-4 2F.F ....|--- .... ....
....|..|--- .... ....|R-- .... ....|--- .... ....
....|..|--- .... ....|A-4 2F.A ....|--- .... ....
....|..|--- .... ....|R-- .... ....|--- .... ....
 C-3|..|C-3 2C.F ....|A-4 2F.7 ....|C-4 2F1F ....
 C-3|..|C-1 2A.F ....|--- .... ....|--- .... ....
....|..|--- .... ....|G-4 2F.A ....|--- .... ....
....|..|--- .... ....|R-- .... ....|--- .... ....
....|..|--- .... ....|A-4 2F.7 ....|--- .... ....
....|..|--- .... ....|R-- .... ....|--- .... ....
....|..|C-3 2F.A ....|--- .... ....|E-4 2F.F ....
....|..|C-1 2F.A ....|--- .... ....|R-- .... ....
....|..|R-- .... ....|G-4 2F.F ....|--- .... ....
....|..|--- .... ....|--- .... ....|--- .... ....
....|..|--- .... ....|--- .... ....|--- .... ....
....|..|--- .... ....|R-- .... ....|--- .... ....
....|..|C-3 2F.7 ....|--- .... ....|C-4 2F17 ....
....|..|C-1 2F.7 ....|R-- .... ....|R-- .... ....
....|..|R-- .... ....|G-4 2F.A ....|--- .... ....
....|..|--- .... ....|--- .... ....|--- .... ....
....|..|--- .... ....|B-3 2F.F ....|--- .... ....
....|..|--- .... ....|--- .... ....|--- .... ....
....|..|--- .... ....|D-4 2F.F ....|E-4 2F.7 ....
....|..|R-- .... ....|D-4 2F.F ....|R-- .... ....
....|..|R-- .... ....|G-4 2F.7 ....|--- .... ....
....|..|--- .... ....|G-4 2F.F ....|--- .... ....
....|..|--- .... ....|B-3 2F.A ....|--- .... ....
....|..|--- .... ....|R-- .... ....|--- .... ....
....|..|--- .... ....|D-4 2F.A ....|--- .... ....
....|..|--- .... ....|G-4 2F.F ....|--- .... ....
....|..|--- .... ....|--- .... ....|--- .... ....
....|..|--- .... ....|D-4 2F.F ....|--- .... ....
 G-4|..|G-3 2C.F ....|B-3 2F.7 ....|D-4 2F2F ....
 G-3|..|G-1 2A.F ....|R-- .... ....|--- .... ....
....|..|B-5 2F.F ....|D-4 2F.7 ....|--- .... ....
....|..|--- .... ....|D-4 2F.7 ....|--- .... ....

[Pattern14]
....|..|R-- .... ....|--- .... ....|--- .... ....
....|..|R-- .... ....|G-4 2F.7 ....|R-- .... ....
....|..|G-3 2F.A ....|--- .... ....|D-4 2F2A ....
....|..|G-1 2F.A ....|R-- .... ....|--- .... ....
 D-4|..|D-3 2C.F ....|R-- .... ....|D-4 2F1F ....
 D-3|..|D-1 2A.F ....|G-4 2F.7 ....|--- .... ....
....|..|F#5 2F.F ....|--- .... ....|--- .... ....
....|..|R-- .... ....|D-4 2F.7 ....|D-4 2F.F ....
 D-4|..|D-3 2C.F ....|--- .... ....|D-4 2F1F ....
 D-3|..|D-1 2A.F ....|--- .... ....|--- .... ....
....|..|D-3 2F.A ....|R-- .... ....|D-4 2F1A ....
....|..|D-1 2F.A ....|--- .... ....|--- .... ....
....|..|F#5 2F.A ....|--- .... ....|D-4 2F.F ....
....|..|R-- .... ....|--- .... ....|D-4 2F.A ....
....|..|D-3 2F.A ....|--- .... ....|D-4 2F1A ....
....|..|F#5 2F.A ....|--- .... ....|--- .... ....
....|..|D-3 2F.7 ....|B-3 2F.F ....|D-4 2F17 ....
....|..|D-1 2F.7 ....|--- .... ....|--- .... ....
....|..|F#5 2F.7 ....|--- .... ....|D-4 2F.A ....
....|..|R-- .... ....|D-4 2F.F ....|D-4 2F.7 ....
....|..|D-3 2F.7 ....|D-4 2F.F ....|D-4 2F17 ....
....|..|F#5 2F.7 ....|--- .... ....|--- .... ....
....|..|--- .... ....|B-4 2F.F ....|--- .... ....
....|..|--- .... ....|--- .... ....|--- .... ....
....|..|--- .... ....|--- .... ....|D-4 2F.7 ....
....|..|R-- .... ....|D-4 2F.A ....|R-- .... ....
....|..|R-- .... ....|D-4 2F.A ....|--- .... ....
....|..|R-- .... ....|--- .... ....|--- .... ....
 E-4|..|E-3 2C.F ....|G-4 2F.F ....|E-4 2F3F ....
 E-3|..|E-1 2A.F ....|--- .... ....|--- .... ....
....|..|G-5 2F.F ....|--- .... ....|--- .... ....
....|..|--- .... ....|D-4 2F.7 ....|--- .... ....
....|..|R-- .... ....|D-4 2F.7 ....|R-- .... ....
....|..|R-- .... ....|--- .... ....|--- .... ....
....|..|E-3 2F.A ....|B-4 2F.7 ....|E-4 2F3A ....
....|..|E-1 2F.A ....|--- .... ....|--- .... ....
 C-3|..|C-3 2C.F ....|--- .... ....|C-4 2F1F ....
 C-3|..|C-1 2A.F ....|R-- .... ....|--- .... ....
....|..|E-5 2F.F ....|--- .... ....|R-- .... ....
....|..|R-- .... ....|--- .... ....|R-- .... ....
 C-3|..|C-3 2C.F ....|G-4 2F.7 ....|C-4 2F1F ....
 C-3|..|C-1 2A.F ....|--- .... ....|--- .... ....
....|..|C-3 2F.A ....|--- .... ....|C-4 2F1A ....
....|..|C-1 2F.A ....|R-- .... ....|--- .... ....
 C-3|..|C-3 2C.F ....|G-4 2F.F ....|R-- .... ....
....|..|E-5 2F.A ....|--- .... ....|R-- .... ....
....|..|C-3 2F.A ....|--- .... ....|C-4 2F1A ....
....|..|C-1 2F.A ....|R-- .... ....|--- .... ....
....|..|C-3 2F.7 ....|B-4 2F.F ....|C-4 2F17 ....
....|..|C-1 2F.7 ....|--- .... ....|--- .... ....
....|..|C-3 2F.A ....|G-4 2F.A ....|--- .... ....
....|..|E-5 2F.7 ....|--- .... ....|R-- .... ....
....|..|C-3 2F.7 ....|C-5 2F.F ....|C-4 2F17 ....
....|..|C-1 2F.7 ....|R-- .... ....|--- .... ....
....|..|E-5 2F.7 ....|B-4 2F.A ....|--- .... ....
....|..|--- .... ....|R-- .... ....|--- .... ....
....|..|C-3 2F.7 ....|B-4 2F.F ....|--- .... ....
....|..|--- .... ....|--- .... ....|--- .... ....
....|..|R-- .... ....|C-5 2F.A ....|R-- .... ....
....|..|--- .... ....|R-- .... ....|--- .... ....
 G-4|..|G-3 2C.F ....|G-4 2F.F ....|D-4 2F2F ....
 G-3|..|G-1 2A.F ....|R-- .... ....|--- .... ....
....|..|B-5 2F.F ....|B-4 2F.A ....|--- .... ....
....|..|--- .... ....|R-- .... ....|--- .... ....

[Pattern15]
....|..|R-- .... ....|C-5 2F.7 ....|R-- .... ....
....|..|R-- .... ....|--- .... ....|--- .... ....
....|..|G-3 2F.A ....|G-4 2F.A ....|D-4 2F2A ....
....|..|G-1 2F.A ....|R-- .... ....|--- .... ....
 D-4|..|D-3 2C.F ....|B-4 2F.7 ....|D-4 2F1F ....
 D-3|..|D-1 2A.F ....|R-- .... ....|--- .... ....
....|..|F#5 2F.F ....|--- .... ....|R-- .... ....
....|..|R-- .... ....|--- .... ....|--- .... ....
 D-4|..|D-3 2C.F ....|G-4 2F.7 ....|D-4 2F1F ....
 D-3|..|D-1 2A.F ....|--- .... ....|--- .... ....
....|..|D-3 2F.A ....|--- .... ....|D-4 2F1A ....
....|..|D-1 2F.A ....|R-- .... ....|--- .... ....
....|..|F#5 2F.A ....|G-4 2F.F ....|R-- .... ....
....|..|R-- .... ....|--- .... ....|--- .... ....
....|..|D-3 2F.A ....|--- .... ....|D-4 2F1A ....
....|..|D-1 2F.A ....|R-- .... ....|--- .... ....
....|..|D-3 2F.7 ....|B-4 2F.F ....|D-4 2F17 ....
....|..|D-1 2F.7 ....|--- .... ....|--- .... ....
....|..|F#5 2F.7 ....|G-4 2F.A ....|--- .... ....
....|..|R-- .... ....|--- .... ....|--- .... ....
....|..|D-3 2F.7 ....|A-4 2F.F ....|D-4 2F17 ....
....|..|D-1 2F.7 ....|R-- .... ....|--- .... ....
....|..|F#5 2F.7 ....|B-4 2F.A ....|--- .... ....
....|..|--- .... ....|R-- .... ....|--- .... ....
....|..|--- .... ....|A-4 2F.F ....|--- .... ....
....|..|R-- .... ....|--- .... ....|--- .... ....
....|..|R-- .... ....|A-4 2F.A ....|R-- .... ....
....|..|--- .... ....|R-- .... ....|--- .... ....
....|..|R-- .... ....|G-4 2F.F ....|--- .... ....
....|..|--- .... ....|R-- .... ....|--- .... ....
....|..|--- .... ....|A-4 2F.A ....|--- .... ....
....|..|--- .... ....|R-- .... ....|--- .... ....
....|..|--- .... ....|A-4 2F.7 ....|--- .... ....
....|..|--- .... ....|--- .... ....|--- .... ....
....|..|--- .... ....|G-4 2F.A ....|--- .... ....
....|..|--- .... ....|R-- .... ....|--- .... ....
....|..|--- .... ....|A-4 2F.7 ....|D-4 2F2F ....
....|..|--- .... ....|R-- .... ....|R-- .... ....
....|..|--- .... ....|--- .... ....|--- .... ....
....|..|--- .... ....|--- .... ....|--- .... ....
....|..|--- .... ....|G-4 2F.7 ....|D-4 2F2F ....
....|..|--- .... ....|--- .... ....|R-- .... ....
....|..|--- .... ....|--- .... ....|D-4 2F2A ....
....|..|--- .... ....|R-- .... ....|R-- .... ....
....|..|--- .... ....|--- .... ....|D-4 2F2F ....
....|..|--- .... ....|--- .... ....|R-- .... ....
....|..|--- .... ....|--- .... ....|D-4 2F2A ....
....|..|--- .... ....|--- .... ....|R-- .... ....
....|..|--- .... ....|--- .... ....|D-4 2F2F ....
....|..|--- .... ....|--- .... ....|R-- .... ....
....|..|--- .... ....|--- .... ....|D-4 2F2A ....
....|..|--- .... ....|--- .... ....|R-- .... ....
....|..|--- .... ....|--- .... ....|D-4 2F2F ....
....|..|--- .... ....|--- .... ....|R-- .... ....
....|..|--- .... ....|--- .... ....|D-4 2F2A ....
....|..|--- .... ....|--- .... ....|R-- .... ....
....|..|--- .... ....|--- .... ....|D-4 2F2F ....
....|..|--- .... ....|--- .... ....|R-- .... ....
....|..|--- .... ....|--- .... ....|D-4 2F2A ....
....|..|--- .... ....|--- .... ....|R-- .... ....
....|..|--- .... ....|--- .... ....|D-4 2F2F ....
....|..|--- .... ....|--- .... ....|R-- .... ....
....|..|--- .... ....|--- .... ....|D-4 2F2A ....
....|..|--- .... ....|--- .... ....|R-- .... ....

[Pattern16]
....|..|--- .... ....|--- .... ....|D-4 2F2F ....
....|..|--- .... ....|--- .... ....|R-- .... ....
....|..|--- .... ....|--- .... ....|D-4 2F2A ....
....|..|--- .... ....|--- .... ....|R-- .... ....
....|..|--- .... ....|--- .... ....|D-4 2F2F ....
....|..|--- .... ....|--- .... ....|R-- .... ....
....|..|--- .... ....|--- .... ....|D-4 2F2A ....
....|..|--- .... ....|--- .... ....|R-- .... ....
....|..|--- .... ....|--- .... ....|D-4 2F2F ....
....|..|--- .... ....|--- .... ....|R-- .... ....
....|..|--- .... ....|--- .... ....|D-4 2F2A ....
....|..|--- .... ....|--- .... ....|R-- .... ....
....|..|--- .... ....|--- .... ....|D-4 2F2F ....
....|..|--- .... ....|--- .... ....|R-- .... ....
....|..|--- .... ....|--- .... ....|D-4 2F2A ....
....|..|--- .... ....|--- .... ....|R-- .... ....
....|..|--- .... ....|--- .... ....|D-4 2F2F ....
....|..|--- .... ....|--- .... ....|R-- .... ....
....|..|--- .... ....|--- .... ....|D-4 2F2A ....
....|..|--- .... ....|--- .... ....|R-- .... ....
....|..|--- .... ....|--- .... ....|D-4 2F2F ....
....|..|--- .... ....|--- .... ....|R-- .... ....
....|..|--- .... ....|--- .... ....|D-4 2F2A ....
....|..|--- .... ....|--- .... ....|R-- .... ....
....|..|--- .... ....|--- .... ....|D-4 2F2F ....
....|..|--- .... ....|--- .... ....|R-- .... ....
....|..|--- .... ....|--- .... ....|D-4 2F2A ....
....|..|--- .... ....|--- .... ....|R-- .... ....
....|..|--- .... ....|--- .... ....|D-4 2F2F ....
....|..|--- .... ....|--- .... ....|R-- .... ....
....|..|--- .... ....|--- .... ....|D-4 2F2A ....
....|..|--- .... ....|--- .... ....|R-- .... ....
....|..|--- .... ....|--- .... ....|D-4 2F2F ....
....|..|--- .... ....|--- .... ....|R-- .... ....
....|..|--- .... ....|--- .... ....|D-4 2F2A ....
....|..|--- .... ....|--- .... ....|R-- .... ....
....|..|--- .... ....|B-3 2F.F ....|D-4 2F2F ....
....|..|--- .... ....|--- .... ....|R-- .... ....
....|..|--- .... ....|--- .... ....|D-4 2F2A ....
....|..|--- .... ....|--- .... ....|R-- .... ....
....|..|--- .... ....|B-3 2F.F ....|D-4 2F2F ....
....|..|--- .... ....|--- .... ....|R-- .... ....
....|..|--- .... ....|B-3 2F.A ....|D-4 2F2A ....
....|..|--- .... ....|R-- .... ....|R-- .... ....
....|..|--- .... ....|B-3 2F.F ....|D-4 2F2F ....
....|..|--- .... ....|--- .... ....|R-- .... ....
....|..|--- .... ....|B-3 2F.A ....|D-4 2F2A ....
....|..|--- .... ....|R-- .... ....|R-- .... ....
....|..|--- .... ....|B-3 2F.F ....|D-4 2F2F ....
....|..|--- .... ....|R-- .... ....|R-- .... ....
....|..|--- .... ....|B-3 2F.A ....|D-4 2F2A ....
....|..|--- .... ....|R-- .... ....|R-- .... ....
....|..|--- .... ....|B-3 2F.F ....|D-4 2F2F ....
....|..|--- .... ....|R-- .... ....|R-- .... ....
....|..|--- .... ....|B-3 2F.A ....|D-4 2F2A ....
....|..|--- .... ....|R-- .... ....|R-- .... ....
....|..|--- .... ....|A-3 2F.F ....|D-4 2F2F ....
....|..|--- .... ....|R-- .... ....|R-- .... ....
....|..|--- .... ....|B-3 2F.A ....|D-4 2F2A ....
....|..|--- .... ....|R-- .... ....|R-- .... ....
....|..|--- .... ....|B-3 2F.F ....|D-4 2F2F ....
....|..|--- .... ....|R-- .... ....|R-- .... ....
....|..|--- .... ....|A-3 2F.A ....|D-4 2F2A ....
....|..|--- .... ....|R-- .... ....|R-- .... ....

[Pattern19]
....|..|--- .... ....|B-3 2F.7 ....|D-4 2F2F ....
....|..|--- .... ....|R-- .... ....|R-- .... ....
....|..|--- .... ....|B-3 2F.A ....|D-4 2F2A ....
....|..|--- .... ....|R-- .... ....|R-- .... ....
....|..|--- .... ....|A-3 2F.7 ....|D-4 2F2F ....
....|..|--- .... ....|--- .... ....|R-- .... ....
....|..|--- .... ....|R-- .... ....|D-4 2F2A ....
....|..|--- .... ....|R-- .... ....|R-- .... ....
....|..|--- .... ....|B-3 2F.F ....|D-4 2F2F ....
....|..|--- .... ....|--- .... ....|R-- .... ....
....|..|--- .... ....|--- .... ....|D-4 2F2A ....
....|..|--- .... ....|R-- .... ....|R-- .... ....
....|..|--- .... ....|B-3 2F.F ....|D-4 2F2F ....
....|..|--- .... ....|--- .... ....|R-- .... ....
....|..|--- .... ....|B-3 2F.A ....|D-4 2F2A ....
....|..|--- .... ....|R-- .... ....|R-- .... ....
....|..|--- .... ....|B-3 2F.F ....|D-4 2F2F ....
....|..|--- .... ....|R-- .... ....|R-- .... ....
....|..|--- .... ....|B-3 2F.A ....|D-4 2F2A ....
....|..|--- .... ....|R-- .... ....|R-- .... ....
....|..|--- .... ....|B-3 2F.F ....|D-4 2F2F ....
....|..|--- .... ....|R-- .... ....|R-- .... ....
....|..|--- .... ....|B-3 2F.A ....|D-4 2F2A ....
....|..|--- .... ....|R-- .... ....|R-- .... ....
....|..|--- .... ....|A-3 2F.F ....|D-4 2F2F ....
....|..|--- .... ....|R-- .... ....|R-- .... ....
....|..|--- .... ....|B-3 2F.A ....|D-4 2F2A ....
....|..|--- .... ....|R-- .... ....|R-- .... ....
....|..|--- .... ....|B-3 2F.F ....|D-4 2F2F ....
....|..|--- .... ....|--- .... ....|R-- .... ....
....|..|--- .... ....|A-3 2F.A ....|D-4 2F2A ....
....|..|--- .... ....|R-- .... ....|R-- .... ....
....|..|--- .... ....|B-3 2F.7 ....|D-4 2F2F ....
....|..|--- .... ....|R-- .... ....|R-- .... ....
....|..|--- .... ....|B-3 2F.A ....|D-4 2F2A ....
....|..|--- .... ....|--- .... ....|R-- .... ....
....|..|--- .... ....|B-3 2F.F ....|D-4 2F2F ....
....|..|--- .... ....|R-- .... ....|R-- .... ....
....|..|--- .... ....|--- .... ....|D-4 2F2A ....
....|..|--- .... ....|R-- .... ....|R-- .... ....
....|..|--- .... ....|B-3 2F.F ....|D-4 2F2F ....
....|..|--- .... ....|--- .... ....|R-- .... ....
....|..|--- .... ....|B-3 2F.A ....|D-4 2F2A ....
....|..|--- .... ....|R-- .... ....|R-- .... ....
....|..|--- .... ....|B-3 2F.F ....|D-4 2F2F ....
....|..|--- .... ....|R-- .... ....|R-- .... ....
....|..|--- .... ....|B-3 2F.A ....|D-4 2F2A ....
....|..|--- .... ....|R-- .... ....|R-- .... ....
....|..|--- .... ....|B-3 2F.F ....|D-4 2F2F ....
....|..|--- .... ....|R-- .... ....|R-- .... ....
....|..|--- .... ....|B-3 2F.A ....|D-4 2F2A ....
....|..|--- .... ....|R-- .... ....|R-- .... ....
....|..|--- .... ....|B-3 2F.F ....|D-4 2F2F ....
....|..|--- .... ....|R-- .... ....|R-- .... ....
....|..|--- .... ....|B-3 2F.A ....|D-4 2F2A ....
....|..|--- .... ....|R-- .... ....|R-- .... ....
....|..|--- .... ....|A-3 2F.F ....|D-4 2F2F ....
....|..|--- .... ....|R-- .... ....|R-- .... ....
....|..|--- .... ....|B-3 2F.A ....|D-4 2F2A ....
....|..|--- .... ....|R-- .... ....|R-- .... ....
....|..|--- .... ....|A-3 2F.F ....|D-4 2F2F ....
....|..|--- .... ....|R-- .... ....|R-- .... ....
....|..|--- .... ....|A-3 2F.A ....|D-4 2F2A ....
....|..|--- .... ....|R-- .... ....|R-- .... ....

[Pattern30]
....|..|R-- .... ....|C-5 2F.7 ....|R-- .... ....
....|..|R-- .... ....|--- .... ....|--- .... ....
....|..|G-3 2F.A ....|G-4 2F.A ....|D-4 2F2A ....
....|..|G-1 2F.A ....|R-- .... ....|--- .... ....
 D-4|..|D-3 2C.F ....|B-4 2F.7 ....|D-4 2F1F ....
 D-3|..|D-1 2A.F ....|R-- .... ....|--- .... ....
....|..|F#5 2F.F ....|--- .... ....|R-- .... ....
....|..|R-- .... ....|--- .... ....|--- .... ....
 D-4|..|D-3 2C.F ....|G-4 2F.7 ....|D-4 2F1F ....
 D-3|..|D-1 2A.F ....|--- .... ....|--- .... ....
....|..|D-3 2F.A ....|--- .... ....|D-4 2F1A ....
....|..|D-1 2F.A ....|R-- .... ....|--- .... ....
....|..|F#5 2F.A ....|G-4 2F.F ....|R-- .... ....
....|..|R-- .... ....|--- .... ....|--- .... ....
....|..|D-3 2F.A ....|--- .... ....|D-4 2F1A ....
....|..|D-1 2F.A ....|R-- .... ....|--- .... ....
....|..|D-3 2F.7 ....|B-4 2F.F ....|D-4 2F17 ....
....|..|D-1 2F.7 ....|--- .... ....|--- .... ....
....|..|F#5 2F.7 ....|G-4 2F.A ....|--- .... ....
....|..|R-- .... ....|--- .... ....|--- .... ....
....|..|D-3 2F.7 ....|A-4 2F.F ....|D-4 2F17 ....
....|..|D-1 2F.7 ....|R-- .... ....|--- .... ....
....|..|F#5 2F.7 ....|B-4 2F.A ....|--- .... ....
....|..|--- .... ....|R-- .... ....|--- .... ....
....|..|--- .... ....|A-4 2F.F ....|--- .... ....
....|..|R-- .... ....|--- .... ....|--- .... ....
....|..|R-- .... ....|A-4 2F.A ....|R-- .... ....
....|..|--- .... ....|R-- .... ....|--- .... ....
....|..|R-- .... ....|G-4 2F.F ....|--- .... ....
....|..|--- .... ....|R-- .... ....|--- .... ....
....|..|--- .... ....|A-4 2F.A ....|--- .... ....
....|..|--- .... ....|R-- .... ....|--- .... ....
 C-3|..|C-3 2C.F ....|A-4 2F.7 ....|C-4 2F1F ....
 C-3|..|C-1 2A.F ....|--- .... ....|--- .... ....
....|..|--- .... ....|G-4 2F.A ....|--- .... ....
....|..|--- .... ....|R-- .... ....|--- .... ....
....|..|--- .... ....|G-4 2F.F ....|--- .... ....
....|..|--- .... ....|R-- .... ....|--- .... ....
....|..|C-3 2F.A ....|--- .... ....|E-4 2F.F ....
....|..|C-1 2F.A ....|--- .... ....|R-- .... ....
....|..|R-- .... ....|B-4 2F.F ....|--- .... ....
....|..|--- .... ....|--- .... ....|--- .... ....
....|..|--- .... ....|G-4 2F.A ....|--- .... ....
....|..|--- .... ....|R-- .... ....|--- .... ....
....|..|C-3 2F.7 ....|A-4 2F.F ....|C-4 2F17 ....
....|..|C-1 2F.7 ....|--- .... ....|R-- .... ....
....|..|R-- .... ....|B-4 2F.A ....|--- .... ....
....|..|--- .... ....|R-- .... ....|--- .... ....
....|..|--- .... ....|A-4 2F.F ....|--- .... ....
....|..|--- .... ....|--- .... ....|--- .... ....
....|..|--- .... ....|A-4 2F.A ....|E-4 2F.7 ....
....|..|R-- .... ....|R-- .... ....|R-- .... ....
....|..|R-- .... ....|G-4 2F.F ....|--- .... ....
....|..|--- .... ....|R-- .... ....|--- .... ....
....|..|--- .... ....|A-4 2F.A ....|--- .... ....
....|..|--- .... ....|R-- .... ....|--- .... ....
....|..|--- .... ....|G-4 2F.F ....|--- .... ....
....|..|--- .... ....|R-- .... ....|--- .... ....
....|..|--- .... ....|G-4 2F.A ....|--- .... ....
....|..|--- .... ....|R-- .... ....|--- .... ....
 G-4|..|G-3 2C.F ....|E-4 2F.F ....|D-4 2F2F ....
 G-3|..|G-1 2A.F ....|R-- .... ....|--- .... ....
....|..|B-5 2F.F ....|G-4 2F.A ....|--- .... ....
....|..|--- .... ....|R-- .... ....|--- .... ....

[Pattern31]
....|..|R-- .... ....|D-4 2F.F ....|--- .... ....
....|..|R-- .... ....|R-- .... ....|R-- .... ....
....|..|G-3 2F.A ....|E-4 2F.A ....|D-4 2F2A ....
....|..|G-1 2F.A ....|R-- .... ....|--- .... ....
 D-4|..|D-3 2C.F ....|D-4 2F.F ....|D-4 2F1F ....
 D-3|..|D-1 2A.F ....|--- .... ....|--- .... ....
....|..|F#5 2F.F ....|D-4 2F.A ....|--- .... ....
....|..|R-- .... ....|R-- .... ....|D-4 2F.F ....
 D-4|..|D-3 2C.F ....|D-4 2F.F ....|D-4 2F1F ....
 D-3|..|D-1 2A.F ....|R-- .... ....|--- .... ....
....|..|D-3 2F.A ....|D-4 2F.A ....|D-4 2F1A ....
....|..|D-1 2F.A ....|--- .... ....|--- .... ....
....|..|F#5 2F.A ....|D-4 2F.F ....|D-4 2F.F ....
....|..|R-- .... ....|--- .... ....|D-4 2F.A ....
....|..|D-3 2F.A ....|D-4 2F.A ....|D-4 2F1A ....
....|..|F#5 2F.A ....|R-- .... ....|--- .... ....
....|..|D-3 2F.7 ....|A-4 2F.F ....|D-4 2F17 ....
....|..|D-1 2F.7 ....|--- .... ....|--- .... ....
....|..|F#5 2F.7 ....|D-4 2F.A ....|D-4 2F.A ....
....|..|R-- .... ....|--- .... ....|D-4 2F.7 ....
....|..|D-3 2F.7 ....|D-4 2F.7 ....|D-4 2F17 ....
....|..|F#5 2F.7 ....|--- .... ....|--- .... ....
....|..|--- .... ....|A-4 2F.A ....|--- .... ....
....|..|--- .... ....|--- .... ....|--- .... ....
....|..|--- .... ....|G-4 2F.F ....|D-4 2F.7 ....
....|..|R-- .... ....|--- .... ....|R-- .... ....
....|..|R-- .... ....|--- .... ....|--- .... ....
....|..|R-- .... ....|--- .... ....|--- .... ....
 E-4|..|E-3 2C.F ....|A-4 2F.7 ....|E-4 2F3F ....
 E-3|..|E-1 2A.F ....|--- .... ....|--- .... ....
....|..|G-5 2F.F ....|G-4 2F.A ....|--- .... ....
....|..|--- .... ....|--- .... ....|--- .... ....
....|..|R-- .... ....|--- .... ....|R-- .... ....
....|..|R-- .... ....|--- .... ....|--- .... ....
....|..|E-3 2F.A ....|R-- .... ....|E-4 2F3A ....
....|..|E-1 2F.A ....|--- .... ....|--- .... ....
 C-3|..|C-3 2C.F ....|D-4 2F.F ....|C-4 2F1F ....
 C-3|..|C-1 2A.F ....|--- .... ....|--- .... ....
....|..|E-5 2F.F ....|--- .... ....|R-- .... ....
....|..|R-- .... ....|--- .... ....|R-- .... ....
 C-3|..|C-3 2C.F ....|D-4 2F.F ....|C-4 2F1F ....
 C-3|..|C-1 2A.F ....|--- .... ....|--- .... ....
....|..|C-3 2F.A ....|D-4 2F.A ....|C-4 2F1A ....
....|..|C-1 2F.A ....|--- .... ....|--- .... ....
 C-3|..|C-3 2C.F ....|D-4 2F.F ....|R-- .... ....
....|..|E-5 2F.A ....|--- .... ....|R-- .... ....
....|..|C-3 2F.A ....|D-4 2F.A ....|C-4 2F1A ....
....|..|C-1 2F.A ....|--- .... ....|--- .... ....
....|..|C-3 2F.7 ....|A-4 2F.F ....|C-4 2F17 ....
....|..|C-1 2F.7 ....|--- .... ....|--- .... ....
....|..|C-3 2F.A ....|D-4 2F.A ....|--- .... ....
....|..|E-5 2F.7 ....|--- .... ....|R-- .... ....
....|..|C-3 2F.7 ....|D-4 2F.7 ....|C-4 2F17 ....
....|..|C-1 2F.7 ....|--- .... ....|--- .... ....
....|..|E-5 2F.7 ....|A-4 2F.A ....|--- .... ....
....|..|--- .... ....|--- .... ....|--- .... ....
....|..|C-3 2F.7 ....|G-4 2F.F ....|--- .... ....
....|..|--- .... ....|--- .... ....|--- .... ....
....|..|R-- .... ....|--- .... ....|R-- .... ....
....|..|--- .... ....|--- .... ....|--- .... ....
 G-4|..|G-3 2C.F ....|A-4 2F.7 ....|D-4 2F2F ....
 G-3|..|G-1 2A.F ....|--- .... ....|--- .... ....
....|..|B-5 2F.F ....|G-4 2F.A ....|--- .... ....
....|..|--- .... ....|--- .... ....|--- .... ....

[Pattern32]
....|..|R-- .... ....|--- .... ....|R-- .... ....
....|..|R-- .... ....|--- .... ....|--- .... ....
....|..|G-3 2F.A ....|R-- .... ....|D-4 2F2A ....
....|..|G-1 2F.A ....|--- .... ....|--- .... ....
 D-4|..|D-3 2C.F ....|D-4 2F.F ....|D-4 2F1F ....
 D-3|..|D-1 2A.F ....|--- .... ....|--- .... ....
....|..|F#5 2F.F ....|--- .... ....|R-- .... ....
....|..|R-- .... ....|--- .... ....|--- .... ....
 D-4|..|D-3 2C.F ....|D-4 2F.F ....|D-4 2F1F ....
 D-3|..|D-1 2A.F ....|--- .... ....|--- .... ....
....|..|D-3 2F.A ....|D-4 2F.A ....|D-4 2F1A ....
....|..|D-1 2F.A ....|--- .... ....|--- .... ....
....|..|F#5 2F.A ....|D-4 2F.F ....|R-- .... ....
....|..|R-- .... ....|--- .... ....|--- .... ....
....|..|D-3 2F.A ....|D-4 2F.A ....|D-4 2F1A ....
....|..|D-1 2F.A ....|--- .... ....|--- .... ....
....|..|D-3 2F.7 ....|A-4 2F.F ....|D-4 2F17 ....
....|..|D-1 2F.7 ....|--- .... ....|--- .... ....
....|..|F#5 2F.7 ....|D-4 2F.A ....|--- .... ....
....|..|R-- .... ....|--- .... ....|--- .... ....
....|..|D-3 2F.7 ....|D-4 2F.7 ....|D-4 2F17 ....
....|..|D-1 2F.7 ....|--- .... ....|--- .... ....
....|..|F#5 2F.7 ....|A-4 2F.A ....|--- .... ....
....|..|--- .... ....|--- .... ....|--- .... ....
....|..|--- .... ....|A-4 2F.F ....|--- .... ....
....|..|R-- .... ....|--- .... ....|--- .... ....
....|..|R-- .... ....|--- .... ....|R-- .... ....
....|..|--- .... ....|--- .... ....|--- .... ....
....|..|R-- .... ....|A-4 2F.7 ....|--- .... ....
....|..|--- .... ....|--- .... ....|--- .... ....
....|..|--- .... ....|A-4 2F.A ....|--- .... ....
....|..|--- .... ....|--- .... ....|--- .... ....
 C-3|..|C-3 2C.F ....|G-4 2F.F ....|C-4 2F1F ....
 C-3|..|C-1 2A.F ....|--- .... ....|--- .... ....
....|..|--- .... ....|--- .... ....|--- .... ....
....|..|--- .... ....|--- .... ....|--- .... ....
....|..|--- .... ....|G-4 2F.F ....|--- .... ....
....|..|--- .... ....|--- .... ....|--- .... ....
....|..|C-3 2F.A ....|G-4 2F.A ....|E-4 2F.F ....
....|..|C-1 2F.A ....|--- .... ....|R-- .... ....
....|..|R-- .... ....|B-4 2F.F ....|--- .... ....
....|..|--- .... ....|--- .... ....|--- .... ....
....|..|--- .... ....|G-4 2F.A ....|--- .... ....
....|..|--- .... ....|--- .... ....|--- .... ....
....|..|C-3 2F.7 ....|A-4 2F.F ....|C-4 2F17 ....
....|..|C-1 2F.7 ....|--- .... ....|R-- .... ....
....|..|R-- .... ....|B-4 2F.A ....|--- .... ....
....|..|--- .... ....|R-- .... ....|--- .... ....
....|..|--- .... ....|A-4 2F.F ....|--- .... ....
....|..|--- .... ....|--- .... ....|--- .... ....
....|..|--- .... ....|A-4 2F.A ....|E-4 2F.7 ....
....|..|R-- .... ....|R-- .... ....|R-- .... ....
....|..|R-- .... ....|G-4 2F.F ....|--- .... ....
....|..|--- .... ....|R-- .... ....|--- .... ....
....|..|--- .... ....|A-4 2F.A ....|--- .... ....
....|..|--- .... ....|R-- .... ....|--- .... ....
....|..|--- .... ....|G-4 2F.F ....|--- .... ....
....|..|--- .... ....|R-- .... ....|--- .... ....
....|..|--- .... ....|G-4 2F.A ....|--- .... ....
....|..|--- .... ....|R-- .... ....|--- .... ....
 G-4|..|G-3 2C.F ....|E-4 2F.F ....|D-4 2F2F ....
 G-3|..|G-1 2A.F ....|R-- .... ....|--- .... ....
....|..|B-5 2F.F ....|G-4 2F.A ....|--- .... ....
....|..|--- .... ....|R-- .... ....|--- .... ....

[Pattern34]
....|..|R-- .... ....|--- .... ....|R-- .... ....
....|..|R-- .... ....|--- .... ....|--- .... ....
....|..|G-3 2F.A ....|R-- .... ....|D-4 2F2A ....
....|..|G-1 2F.A ....|--- .... ....|--- .... ....
 D-4|..|D-3 2C.F ....|D-4 2F.F ....|D-4 2F1F ....
 D-3|..|D-1 2A.F ....|--- .... ....|--- .... ....
....|..|F#5 2F.F ....|--- .... ....|R-- .... ....
....|..|R-- .... ....|--- .... ....|--- .... ....
 D-4|..|D-3 2C.F ....|D-4 2F.F ....|D-4 2F1F ....
 D-3|..|D-1 2A.F ....|--- .... ....|--- .... ....
....|..|D-3 2F.A ....|D-4 2F.A ....|D-4 2F1A ....
....|..|D-1 2F.A ....|--- .... ....|--- .... ....
....|..|F#5 2F.A ....|D-4 2F.F ....|R-- .... ....
....|..|R-- .... ....|--- .... ....|--- .... ....
....|..|D-3 2F.A ....|D-4 2F.A ....|D-4 2F1A ....
....|..|D-1 2F.A ....|--- .... ....|--- .... ....
....|..|D-3 2F.7 ....|A-4 2F.F ....|D-4 2F17 ....
....|..|D-1 2F.7 ....|--- .... ....|--- .... ....
....|..|F#5 2F.7 ....|D-4 2F.A ....|--- .... ....
....|..|R-- .... ....|--- .... ....|--- .... ....
....|..|D-3 2F.7 ....|D-4 2F.7 ....|D-4 2F17 ....
....|..|D-1 2F.7 ....|--- .... ....|--- .... ....
....|..|F#5 2F.7 ....|A-4 2F.A ....|--- .... ....
....|..|--- .... ....|--- .... ....|--- .... ....
....|..|--- .... ....|A-4 2F.F ....|--- .... ....
....|..|R-- .... ....|--- .... ....|--- .... ....
....|..|R-- .... ....|--- .... ....|R-- .... ....
....|..|--- .... ....|--- .... ....|--- .... ....
....|..|R-- .... ....|A-4 2F.7 ....|--- .... ....
....|..|--- .... ....|--- .... ....|--- .... ....
....|..|--- .... ....|A-4 2F.A ....|--- .... ....
....|..|--- .... ....|--- .... ....|--- .... ....
 C-3|..|C-3 2C.F ....|G-4 2F.F ....|C-4 2F1F ....
 C-3|..|C-1 2A.F ....|--- .... ....|--- .... ....
....|..|--- .... ....|--- .... ....|--- .... ....
....|..|--- .... ....|--- .... ....|--- .... ....
....|..|--- .... ....|A-4 2F.7 ....|--- .... ....
....|..|--- .... ....|--- .... ....|--- .... ....
....|..|C-3 2F.A ....|G-4 2F.A ....|E-4 2F.F ....
....|..|C-1 2F.A ....|--- .... ....|R-- .... ....
....|..|R-- .... ....|--- .... ....|--- .... ....
....|..|--- .... ....|--- .... ....|--- .... ....
....|..|--- .... ....|R-- .... ....|--- .... ....
....|..|--- .... ....|--- .... ....|--- .... ....
....|..|C-3 2F.7 ....|G-4 2F.7 ....|C-4 2F17 ....
....|..|C-1 2F.7 ....|--- .... ....|R-- .... ....
....|..|R-- .... ....|--- .... ....|--- .... ....
....|..|--- .... ....|--- .... ....|--- .... ....
....|..|--- .... ....|R-- .... ....|--- .... ....
....|..|--- .... ....|--- .... ....|--- .... ....
....|..|--- .... ....|--- .... ....|E-4 2F.7 ....
....|..|R-- .... ....|--- .... ....|R-- .... ....
....|..|R-- .... ....|--- .... ....|--- .... ....
....|..|--- .... ....|--- .... ....|--- .... ....
....|..|--- .... ....|--- .... ....|--- .... ....
....|..|--- .... ....|--- .... ....|--- .... ....
....|..|--- .... ....|--- .... ....|--- .... ....
....|..|--- .... ....|--- .... ....|--- .... ....
....|..|--- .... ....|--- .... ....|--- .... ....
....|..|--- .... ....|--- .... ....|--- .... ....
 G-4|..|G-3 2C.F ....|--- .... ....|D-4 2F2F ....
 G-3|..|G-1 2A.F ....|--- .... ....|--- .... ....
....|..|B-5 2F.F ....|--- .... ....|--- .... ....
....|..|--- .... ....|--- .... ....|--- .... ....

[Pattern35]
....|..|R-- .... ....|--- .... ....|--- .... ....
....|..|R-- .... ....|--- .... ....|R-- .... ....
....|..|G-3 2F.A ....|--- .... ....|D-4 2F2A ....
....|..|G-1 2F.A ....|--- .... ....|--- .... ....
 D-4|..|D-3 2C.F ....|--- .... ....|D-4 2F1F ....
 D-3|..|D-1 2A.F ....|--- .... ....|--- .... ....
....|..|F#5 2F.F ....|--- .... ....|--- .... ....
....|..|R-- .... ....|--- .... ....|D-4 2F.F ....
 D-4|..|D-3 2C.F ....|--- .... ....|D-4 2F1F ....
 D-3|..|D-1 2A.F ....|--- .... ....|--- .... ....
....|..|D-3 2F.A ....|--- .... ....|D-4 2F1A ....
....|..|D-1 2F.A ....|--- .... ....|--- .... ....
....|..|F#5 2F.A ....|--- .... ....|D-4 2F.F ....
....|..|R-- .... ....|--- .... ....|D-4 2F.A ....
....|..|D-3 2F.A ....|--- .... ....|D-4 2F1A ....
....|..|F#5 2F.A ....|--- .... ....|--- .... ....
....|..|D-3 2F.7 ....|--- .... ....|D-4 2F17 ....
....|..|D-1 2F.7 ....|--- .... ....|--- .... ....
....|..|F#5 2F.7 ....|--- .... ....|D-4 2F.A ....
....|..|R-- .... ....|--- .... ....|D-4 2F.7 ....
....|..|D-3 2F.7 ....|--- .... ....|D-4 2F17 ....
....|..|F#5 2F.7 ....|--- .... ....|--- .... ....
....|..|--- .... ....|--- .... ....|--- .... ....
....|..|--- .... ....|--- .... ....|--- .... ....
....|..|--- .... ....|--- .... ....|D-4 2F.7 ....
....|..|R-- .... ....|--- .... ....|R-- .... ....
....|..|R-- .... ....|--- .... ....|--- .... ....
....|..|R-- .... ....|--- .... ....|--- .... ....
 E-4|..|E-3 2C.F ....|--- .... ....|E-4 2F3F ....
 E-3|..|E-1 2A.F ....|--- .... ....|--- .... ....
....|..|G-5 2F.F ....|--- .... ....|--- .... ....
....|..|--- .... ....|--- .... ....|--- .... ....
....|..|R-- .... ....|--- .... ....|R-- .... ....
....|..|R-- .... ....|--- .... ....|--- .... ....
....|..|E-3 2F.A ....|--- .... ....|E-4 2F3A ....
....|..|E-1 2F.A ....|--- .... ....|--- .... ....
 C-3|..|C-3 2C.F ....|--- .... ....|C-4 2F1F ....
 C-3|..|C-1 2A.F ....|--- .... ....|--- .... ....
....|..|E-5 2F.F ....|--- .... ....|R-- .... ....
....|..|R-- .... ....|--- .... ....|R-- .... ....
 C-3|..|C-3 2C.F ....|--- .... ....|C-4 2F1F ....
 C-3|..|C-1 2A.F ....|--- .... ....|--- .... ....
....|..|C-3 2F.A ....|--- .... ....|C-4 2F1A ....
....|..|C-1 2F.A ....|--- .... ....|--- .... ....
 C-3|..|C-3 2C.F ....|--- .... ....|R-- .... ....
....|..|E-5 2F.A ....|--- .... ....|R-- .... ....
....|..|C-3 2F.A ....|--- .... ....|C-4 2F1A ....
....|..|C-1 2F.A ....|--- .... ....|--- .... ....
....|..|C-3 2F.7 ....|--- .... ....|C-4 2F17 ....
....|..|C-1 2F.7 ....|--- .... ....|--- .... ....
....|..|C-3 2F.A ....|--- .... ....|--- .... ....
....|..|E-5 2F.7 ....|--- .... ....|R-- .... ....
....|..|C-3 2F.7 ....|--- .... ....|C-4 2F17 ....
....|..|C-1 2F.7 ....|--- .... ....|--- .... ....
....|..|E-5 2F.7 ....|--- .... ....|--- .... ....
....|..|--- .... ....|--- .... ....|--- .... ....
....|..|C-3 2F.7 ....|--- .... ....|--- .... ....
....|..|--- .... ....|--- .... ....|--- .... ....
....|..|R-- .... ....|--- .... ....|R-- .... ....
....|..|--- .... ....|--- .... ....|--- .... ....
 G-4|..|G-3 2C.F ....|--- .... ....|D-4 2F2F ....
 G-3|..|G-1 2A.F ....|--- .... ....|--- .... ....
....|..|B-5 2F.F ....|--- .... ....|--- .... ....
....|..|--- .... ....|--- .... ....|--- .... ....

[Pattern36]
....|..|R-- .... ....|--- .... ....|R-- .... ....
....|..|R-- .... ....|--- .... ....|--- .... ....
....|..|G-3 2F.A ....|--- .... ....|D-4 2F2A ....
....|..|G-1 2F.A ....|--- .... ....|--- .... ....
 D-4|..|D-3 2C.F ....|--- .... ....|D-4 2F1F ....
 D-3|..|D-1 2A.F ....|--- .... ....|--- .... ....
....|..|F#5 2F.F ....|--- .... ....|R-- .... ....
....|..|R-- .... ....|--- .... ....|--- .... ....
 D-4|..|D-3 2C.F ....|--- .... ....|D-4 2F1F ....
 D-3|..|D-1 2A.F ....|--- .... ....|--- .... ....
....|..|D-3 2F.A ....|--- .... ....|D-4 2F1A ....
....|..|D-1 2F.A ....|--- .... ....|--- .... ....
....|..|F#5 2F.A ....|--- .... ....|R-- .... ....
....|..|R-- .... ....|--- .... ....|--- .... ....
....|..|D-3 2F.A ....|--- .... ....|D-4 2F1A ....
....|..|D-1 2F.A ....|--- .... ....|--- .... ....
....|..|D-3 2F.7 ....|--- .... ....|D-4 2F17 ....
....|..|D-1 2F.7 ....|--- .... ....|--- .... ....
....|..|F#5 2F.7 ....|--- .... ....|--- .... ....
....|..|R-- .... ....|--- .... ....|--- .... ....
....|..|D-3 2F.7 ....|--- .... ....|D-4 2F17 ....
....|..|D-1 2F.7 ....|--- .... ....|--- .... ....
....|..|F#5 2F.7 ....|--- .... ....|--- .... ....
....|..|--- .... ....|--- .... ....|--- .... ....
....|..|--- .... ....|--- .... ....|--- .... ....
....|..|R-- .... ....|--- .... ....|--- .... ....
....|..|R-- .... ....|--- .... ....|R-- .... ....
....|..|--- .... ....|--- .... ....|--- .... ....
....|..|R-- .... ....|--- .... ....|--- .... ....
....|..|--- .... ....|--- .... ....|--- .... ....
....|..|--- .... ....|--- .... ....|--- .... ....
....|..|--- .... ....|--- .... ....|--- .... ....
 C-3|..|C-3 2C.F ....|--- .... ....|C-4 2F1F ....
 C-3|..|C-1 2A.F ....|--- .... ....|--- .... ....
....|..|--- .... ....|--- .... ....|--- .... ....
....|..|--- .... ....|--- .... ....|--- .... ....
....|..|--- .... ....|--- .... ....|--- .... ....
....|..|--- .... ....|--- .... ....|--- .... ....
....|..|C-3 2F.A ....|--- .... ....|E-4 2F.F ....
....|..|C-1 2F.A ....|--- .... ....|R-- .... ....
....|..|R-- .... ....|G-4 2F.F ....|--- .... ....
....|..|--- .... ....|--- .... ....|--- .... ....
....|..|--- .... ....|--- .... ....|--- .... ....
....|..|--- .... ....|--- .... ....|--- .... ....
....|..|C-3 2F.7 ....|--- .... ....|C-4 2F17 ....
....|..|C-1 2F.7 ....|R-- .... ....|R-- .... ....
....|..|R-- .... ....|G-4 2F.A ....|--- .... ....
....|..|--- .... ....|--- .... ....|--- .... ....
....|..|--- .... ....|B-3 2F.F ....|--- .... ....
....|..|--- .... ....|--- .... ....|--- .... ....
....|..|--- .... ....|D-4 2F.F ....|E-4 2F.7 ....
....|..|R-- .... ....|D-4 2F.F ....|R-- .... ....
....|..|R-- .... ....|G-4 2F.7 ....|--- .... ....
....|..|--- .... ....|R-- .... ....|--- .... ....
....|..|--- .... ....|G-4 2F.F ....|--- .... ....
....|..|--- .... ....|--- .... ....|--- .... ....
....|..|--- .... ....|D-4 2F.A ....|--- .... ....
....|..|--- .... ....|D-4 2F.A ....|--- .... ....
....|..|--- .... ....|D-4 2F.F ....|--- .... ....
....|..|--- .... ....|R-- .... ....|--- .... ....
 G-4|..|G-3 2C.F ....|B-3 2F.7 ....|D-4 2F2F ....
 G-3|..|G-1 2A.F ....|R-- .... ....|--- .... ....
....|..|B-5 2F.F ....|D-4 2F.7 ....|--- .... ....
....|..|--- .... ....|D-4 2F.7 ....|--- .... ....

[Pattern37]
....|..|R-- .... ....|D-4 2F.A ....|--- .... ....
....|..|R-- .... ....|R-- .... ....|R-- .... ....
....|..|G-3 2F.A ....|G-4 2F.7 ....|D-4 2F2A ....
....|..|G-1 2F.A ....|R-- .... ....|--- .... ....
 D-4|..|D-3 2C.F ....|--- .... ....|D-4 2F1F ....
 D-3|..|D-1 2A.F ....|--- .... ....|--- .... ....
....|..|F#5 2F.F ....|D-4 2F.7 ....|--- .... ....
....|..|R-- .... ....|--- .... ....|D-4 2F.F ....
 D-4|..|D-3 2C.F ....|--- .... ....|D-4 2F1F ....
 D-3|..|D-1 2A.F ....|R-- .... ....|--- .... ....
....|..|D-3 2F.A ....|--- .... ....|D-4 2F1A ....
....|..|D-1 2F.A ....|--- .... ....|--- .... ....
....|..|F#5 2F.A ....|--- .... ....|D-4 2F.F ....
....|..|R-- .... ....|--- .... ....|D-4 2F.A ....
....|..|D-3 2F.A ....|--- .... ....|D-4 2F1A ....
....|..|F#5 2F.A ....|B-3 2F.F ....|--- .... ....
....|..|D-3 2F.7 ....|--- .... ....|D-4 2F17 ....
....|..|D-1 2F.7 ....|--- .... ....|--- .... ....
....|..|F#5 2F.7 ....|--- .... ....|D-4 2F.A ....
....|..|R-- .... ....|D-4 2F.F ....|D-4 2F.7 ....
....|..|D-3 2F.7 ....|--- .... ....|D-4 2F17 ....
....|..|F#5 2F.7 ....|B-3 2F.A ....|--- .... ....
....|..|--- .... ....|B-4 2F.F ....|--- .... ....
....|..|--- .... ....|--- .... ....|--- .... ....
....|..|--- .... ....|--- .... ....|D-4 2F.7 ....
....|..|R-- .... ....|D-4 2F.A ....|R-- .... ....
....|..|R-- .... ....|--- .... ....|--- .... ....
....|..|R-- .... ....|B-3 2F.7 ....|--- .... ....
 E-4|..|E-3 2C.F ....|G-4 2F.F ....|E-4 2F3F ....
 E-3|..|E-1 2A.F ....|--- .... ....|--- .... ....
....|..|G-5 2F.F ....|--- .... ....|--- .... ....
....|..|--- .... ....|D-4 2F.7 ....|--- .... ....
....|..|R-- .... ....|--- .... ....|R-- .... ....
....|..|R-- .... ....|R-- .... ....|--- .... ....
....|..|E-3 2F.A ....|B-4 2F.7 ....|E-4 2F3A ....
....|..|E-1 2F.A ....|--- .... ....|--- .... ....
 C-3|..|C-3 2C.F ....|--- .... ....|C-4 2F1F ....
 C-3|..|C-1 2A.F ....|R-- .... ....|--- .... ....
....|..|E-5 2F.F ....|--- .... ....|R-- .... ....
....|..|R-- .... ....|R-- .... ....|R-- .... ....
 C-3|..|C-3 2C.F ....|G-4 2F.7 ....|C-4 2F1F ....
 C-3|..|C-1 2A.F ....|--- .... ....|--- .... ....
....|..|C-3 2F.A ....|--- .... ....|C-4 2F1A ....
....|..|C-1 2F.A ....|R-- .... ....|--- .... ....
 C-3|..|C-3 2C.F ....|G-4 2F.F ....|R-- .... ....
....|..|E-5 2F.A ....|--- .... ....|R-- .... ....
....|..|C-3 2F.A ....|--- .... ....|C-4 2F1A ....
....|..|C-1 2F.A ....|R-- .... ....|--- .... ....
....|..|C-3 2F.7 ....|B-4 2F.F ....|C-4 2F17 ....
....|..|C-1 2F.7 ....|--- .... ....|--- .... ....
....|..|C-3 2F.A ....|G-4 2F.A ....|--- .... ....
....|..|E-5 2F.7 ....|--- .... ....|R-- .... ....
....|..|C-3 2F.7 ....|C-5 2F.F ....|C-4 2F17 ....
....|..|C-1 2F.7 ....|R-- .... ....|--- .... ....
....|..|E-5 2F.7 ....|B-4 2F.A ....|--- .... ....
....|..|--- .... ....|R-- .... ....|--- .... ....
....|..|C-3 2F.7 ....|B-4 2F.F ....|--- .... ....
....|..|--- .... ....|--- .... ....|--- .... ....
....|..|R-- .... ....|C-5 2F.A ....|R-- .... ....
....|..|--- .... ....|R-- .... ....|--- .... ....
 G-4|..|G-3 2C.F ....|G-4 2F.F ....|D-4 2F2F ....
 G-3|..|G-1 2A.F ....|R-- .... ....|--- .... ....
....|..|B-5 2F.F ....|B-4 2F.A ....|--- .... ....
....|..|--- .... ....|R-- .... ....|--- .... ....

[Pattern46]
....|..|R-- .... ....|--- .... ....|R-- .... ....
....|..|R-- .... ....|--- .... ....|--- .... ....
....|..|G-3 2F.A ....|R-- .... ....|D-4 2F2A ....
....|..|G-1 2F.A ....|--- .... ....|--- .... ....
 D-4|..|D-3 2C.F ....|G-4 2F.7 ....|D-4 2F1F ....
 D-3|..|D-1 2A.F ....|--- .... ....|--- .... ....
....|..|F#5 2F.F ....|--- .... ....|R-- .... ....
....|..|R-- .... ....|--- .... ....|--- .... ....
 D-4|..|D-3 2C.F ....|R-- .... ....|D-4 2F1F ....
 D-3|..|D-1 2A.F ....|--- .... ....|--- .... ....
....|..|D-3 2F.A ....|--- .... ....|D-4 2F1A ....
....|..|D-1 2F.A ....|--- .... ....|--- .... ....
....|..|F#5 2F.A ....|G-4 2F.F ....|R-- .... ....
....|..|R-- .... ....|--- .... ....|--- .... ....
....|..|D-3 2F.A ....|--- .... ....|D-4 2F1A ....
....|..|D-1 2F.A ....|--- .... ....|--- .... ....
....|..|D-3 2F.7 ....|B-4 2F.F ....|D-4 2F17 ....
....|..|D-1 2F.7 ....|--- .... ....|--- .... ....
....|..|F#5 2F.7 ....|G-4 2F.A ....|--- .... ....
....|..|R-- .... ....|--- .... ....|--- .... ....
....|..|D-3 2F.7 ....|A-4 2F.F ....|D-4 2F17 ....
....|..|D-1 2F.7 ....|--- .... ....|--- .... ....
....|..|F#5 2F.7 ....|B-4 2F.A ....|--- .... ....
....|..|--- .... ....|--- .... ....|--- .... ....
....|..|--- .... ....|A-4 2F.F ....|--- .... ....
....|..|R-- .... ....|--- .... ....|--- .... ....
....|..|R-- .... ....|A-4 2F.A ....|R-- .... ....
....|..|--- .... ....|--- .... ....|--- .... ....
....|..|R-- .... ....|G-4 2F.F ....|--- .... ....
....|..|--- .... ....|--- .... ....|--- .... ....
....|..|--- .... ....|A-4 2F.A ....|--- .... ....
....|..|--- .... ....|--- .... ....|--- .... ....
 C-3|..|C-3 2C.F ....|A-4 2F.7 ....|C-4 2F1F ....
 C-3|..|C-1 2A.F ....|--- .... ....|--- .... ....
....|..|--- .... ....|G-4 2F.A ....|--- .... ....
....|..|--- .... ....|--- .... ....|--- .... ....
....|..|--- .... ....|A-4 2F.7 ....|D-4 2F2F ....
....|..|--- .... ....|--- .... ....|R-- .... ....
....|..|C-3 2F.A ....|R-- .... ....|E-4 2F.F ....
....|..|C-1 2F.A ....|--- .... ....|R-- .... ....
....|..|R-- .... ....|G-4 2F.7 ....|D-4 2F2F ....
....|..|--- .... ....|--- .... ....|R-- .... ....
....|..|--- .... ....|--- .... ....|D-4 2F2A ....
....|..|--- .... ....|--- .... ....|R-- .... ....
....|..|C-3 2F.7 ....|R-- .... ....|D-4 2F2F ....
....|..|C-1 2F.7 ....|--- .... ....|R-- .... ....
....|..|R-- .... ....|--- .... ....|D-4 2F2A ....
....|..|--- .... ....|--- .... ....|R-- .... ....
....|..|--- .... ....|--- .... ....|D-4 2F2F ....
....|..|--- .... ....|--- .... ....|R-- .... ....
....|..|--- .... ....|--- .... ....|D-4 2F2A ....
....|..|R-- .... ....|--- .... ....|R-- .... ....
....|..|R-- .... ....|--- .... ....|D-4 2F2F ....
....|..|--- .... ....|--- .... ....|R-- .... ....
....|..|--- .... ....|--- .... ....|D-4 2F2A ....
....|..|--- .... ....|--- .... ....|R-- .... ....
....|..|--- .... ....|--- .... ....|D-4 2F2F ....
....|..|--- .... ....|--- .... ....|R-- .... ....
....|..|--- .... ....|--- .... ....|D-4 2F2A ....
....|..|--- .... ....|--- .... ....|R-- .... ....
....|..|--- .... ....|--- .... ....|D-4 2F2F ....
....|..|--- .... ....|--- .... ....|R-- .... ....
....|..|--- .... ....|--- .... ....|D-4 2F2A ....
....|..|--- .... ....|--- .... ....|R-- .... ....

[Pattern47]
....|..|--- .... ....|--- .... ....|D-4 2F2F ....
....|..|--- .... ....|--- .... ....|R-- .... ....
....|..|--- .... ....|--- .... ....|D-4 2F2A ....
....|..|--- .... ....|--- .... ....|R-- .... ....
....|..|--- .... ....|--- .... ....|D-4 2F2F ....
....|..|--- .... ....|--- .... ....|R-- .... ....
....|..|--- .... ....|--- .... ....|D-4 2F2A ....
....|..|--- .... ....|--- .... ....|R-- .... ....
....|..|--- .... ....|--- .... ....|D-4 2F2F ....
....|..|--- .... ....|--- .... ....|R-- .... ....
....|..|--- .... ....|--- .... ....|D-4 2F2A ....
....|..|--- .... ....|--- .... ....|R-- .... ....
....|..|--- .... ....|--- .... ....|D-4 2F2F ....
....|..|--- .... ....|--- .... ....|R-- .... ....
....|..|--- .... ....|--- .... ....|D-4 2F2A ....
....|..|--- .... ....|--- .... ....|R-- .... ....
....|..|--- .... ....|--- .... ....|D-4 2F2F ....
....|..|--- .... ....|--- .... ....|R-- .... ....
....|..|--- .... ....|--- .... ....|D-4 2F2A ....
....|..|--- .... ....|--- .... ....|R-- .... ....
....|..|--- .... ....|--- .... ....|D-4 2F2F ....
....|..|--- .... ....|--- .... ....|R-- .... ....
....|..|--- .... ....|--- .... ....|D-4 2F2A ....
....|..|--- .... ....|--- .... ....|R-- .... ....
....|..|--- .... ....|--- .... ....|D-4 2F2F ....
....|..|--- .... ....|--- .... ....|R-- .... ....
....|..|--- .... ....|--- .... ....|D-4 2F2A ....
....|..|--- .... ....|--- .... ....|R-- .... ....
....|..|--- .... ....|--- .... ....|D-4 2F2F ....
....|..|--- .... ....|--- .... ....|R-- .... ....
....|..|--- .... ....|--- .... ....|D-4 2F2A ....
....|..|--- .... ....|--- .... ....|R-- .... ....
 G-4|..|G-3 2C.F ....|--- .... ....|D-4 2F2F ....
 G-3|..|G-1 2A.F ....|--- .... ....|D-4 2F27 ....
....|..|G-5 2F.F ....|--- .... ....|D-4 2F2A ....
....|..|R-- .... ....|--- .... ....|R-- .... ....
....|..|R-- .... ....|--- .... ....|D-4 2F27 ....
....|..|--- .... ....|--- .... ....|R-- .... ....
....|..|G-3 2F.A ....|--- .... ....|D-4 2F2A ....
....|..|G-1 2F.A ....|--- .... ....|--- .... ....
....|..|G-5 2F.A ....|--- .... ....|D-4 2F27 ....
....|..|R-- .... ....|--- .... ....|R-- .... ....
....|..|R-- .... ....|--- .... ....|--- .... ....
....|..|--- .... ....|--- .... ....|--- .... ....
....|..|G-3 2F.7 ....|--- .... ....|D-4 2F27 ....
....|..|G-1 2F.7 ....|--- .... ....|--- .... ....
....|..|G-5 2F.7 ....|--- .... ....|--- .... ....
....|..|R-- .... ....|--- .... ....|R-- .... ....

