[Module]
VortexTrackerII=0
Version=3.5
Title=1me[2],3p[3],4m[u]-6m[u]+
Author=oisee ^ 4d 29.05.2010
NoteTable=4
ChipFreq=1750000
Speed=4
PlayOrder=L0,1,2,3,4,5,6,7,8,9,10,11,12,13,14,15,16,17,18,19,20,21,22,23,24,25,26,27,28,29,30,31,32,33,34,35,36


[Ornament1]
L0,0,3,3

[Ornament2]
L0,0,3,3,5,5

[Ornament3]
L0,0,2,2

[Ornament4]
L0,0,5,5,10,10

[Ornament5]
L0,0,5,5,8,8

[Ornament6]
L0,0,4,4,7,7

[Ornament7]
L0,0,2,2,5,5

[Ornament8]
L0,0,3,3,6,6

[Ornament9]
L0,0,3,3,8,8

[Ornament10]
L0,0,4,4

[Ornament11]
L0,0,5,5

[Ornament12]
L0,0,4,4,9,9

[Ornament13]
L0,0,5,5,7,7

[Ornament14]
L0,0,5,5,9,9

[Ornament15]
L0,0,4,4,5,5,9,9

[Sample1]
TnE +000_ +00_ F_
TnE +000_ +00_ F_
TnE +000_ +00_ F_
TnE +000_ +00_ D_
TnE +000_ +00_ B_
TnE +000_ +00_ B_ L

[Sample2]
TnE +000_ +00_ F_ L

[Sample3]
TnE +001_ +00_ F_
TnE +002_ +00_ F_
TnE +001_ +00_ E_
TnE +002_ +00_ E_
TnE +000_ +00_ E_ L
TnE -001_ +00_ E_
TnE -002_ +00_ E_
TnE -001_ +00_ E_
TnE +000_ +00_ E_
TnE +001_ +00_ E_
TnE +002_ +00_ E_
TnE +001_ +00_ E_

[Sample4]
TnE +002_ +00_ D_
TnE +002_ +00_ D_
TnE +002_ +00_ C_
TnE +002_ +00_ B_
TnE +002_ +00_ A_ L
TnE +002_ +00_ A_
TnE +002_ +00_ A_
TnE +002_ +00_ A_
TnE +002_ +00_ A_
TnE +002_ +00_ A_
TnE +002_ +00_ A_
TnE +002_ +00_ A_

[Sample5]
TnE +000_ +00_ F_
TnE +000_ +00_ F_
tne +000_ +00_ 0_ L

[Sample6]
TnE -001_ +00_ F_ L

[Sample7]
TnE +006_ +00_ F_ L

[Sample8]
tNe +000_ +00_ F_
tNe +000_ +00_ B_
tNe +000_ +00_ 7_
tNe +000_ +00_ 6- L

[Sample9]
TnE +080_ +00_ F_
TnE +100_ +00_ E_
TnE +180_ +00_ E_
TnE +200_ +00_ E_
TnE +240_ +00_ D_
TnE +280_ +00_ D_
TnE +2C0_ +00_ D_
TnE +300_ +00_ C_
TnE +300_ +00_ C_
TnE +340_ +00_ C_
TnE +340_ +00_ C_
TnE +380_ +00_ B_
TnE +380_ +00_ B_
TnE +400_ +00_ B_
TnE +400_ +00_ B_
TnE +480_ +00_ A_
TnE +500_ +00_ 9_
TnE +580_ +00_ 7_
TnE +600_ +00_ 4_
TnE +680_ +00_ 1_
TnE +000_ +00_ 0_ L

[Sample10]
Tne +1C0_ +00_ F_
Tne +280_ +00_ E_
Tne +380_ +00_ C_
Tne +440_ +00_ A_
Tne +480_ +00_ 8_
TnE +000_ +00_ 0_ L

[Sample11]
TNe +200_ -0A_ F_
tNe +000_ +0F_ A_
TNe +200_ -07_ E_
tNe +000_ +0E_ B- L

[Sample12]
TNE +0A0_ +05_ F_
TNE +140_ +02_ D_
TNE +140_ +02_ B_
TNE +100_ +00_ A_ L
TNE +140_ +00_ A_
TNE +200_ +00_ A-

[Sample13]
Tne +200_ +00_ F_
Tne +2C0_ +00_ F_
Tne +380_ +00_ E_
Tne +500_ +00_ C_
Tne +520_ +00_ 9_
tne +000_ +00_ 0_ L

[Sample14]
TNE -100_ +00_ F_
TNE -100_ +00_ D_
TNE -100_ +00_ A_
TNE -100_ +00_ 5_
tne +000_ +00_ 0_ L

[Sample15]
TNE -100_ +00_ 5_
TNE -100_ +00_ 8_
TNE -100_ +00_ B_
TNE -100_ +00_ F_
TNe -100_ +00_ 9- L

[Sample16]
TnE +000_ +00_ C_
TnE +000_ +00_ E_
TnE +000_ +00_ F_
TnE +000_ +00_ F_
TnE +000_ +00_ E_
TnE +000_ +00_ D_
TnE +000_ +00_ C_
TnE +000_ +00_ C_ L
TnE +001_ +00_ C_
TnE +002_ +00_ C_
TnE +003_ +00_ C_
TnE +001_ +00_ C_
TnE +000_ +00_ C_
TnE -001_ +00_ C_
TnE -002_ +00_ C_
TnE -003_ +00_ C_
TnE -001_ +00_ C_
TnE +000_ +00_ C_
TnE +000_ +00_ C_

[Sample17]
Tne +1C0_ +00_ F_
Tne +280_ +00_ D_
Tne +380_ +00_ 7_
TNE +000_ +00_ 0_ L

[Sample18]
TnE -00C_ +00_ 0_ L

[Sample19]
TNe +000_ +00_ F_
TNe +000_ +00_ C_
TNe +000_ +00_ 6_
TNe +000_ +01_ A- L

[Sample20]
TNE +140_ +00_ F_
tNE +000_ +00_ B- L

[Sample21]
tNE +000_ +00_ D_
tNE +000_ +00_ 8_
tNE +000_ +00_ 1_
TNE +000_ +00_ 0_ L

[Sample22]
TnE +000_ +00_ D_ L
TnE +000_ +00_ D_
tne +000_ +00_ 9_
tne +000_ +00_ 9_
TnE +000_ +00_ D_
TnE +000_ +00_ D_
tne +000_ +00_ 9_
tne +000_ +00_ 9_
TnE +000_ +00_ D_
TnE +000_ +00_ D_
TnE +000_ +00_ D_
TnE +000_ +00_ D_
TnE +000_ +00_ D_
TnE +000_ +00_ D_
tne +000_ +00_ 9_
tne +000_ +00_ 9_

[Sample23]
TnE +000_ +00_ F_ L
TnE +010_ +01_ F_
TnE +010_ +01_ F_
TnE +010_ +01_ F_
TnE +010_ +01_ F_
TnE +000_ +00_ F_
TnE +000_ +00_ F_
TnE -010_ -01_ F_
TnE -010_ -01_ F_
TnE -010_ -01_ F_
TnE -010_ -01_ F_
TnE +000_ +00_ F_

[Sample24]
TNe +000_ -01_ C_
TNe +000_ -01_ D_
TNe +000_ -01_ E_
TNe +000_ -01_ F_
TNe +000_ -01_ F_
TNe +000_ -01_ F_
TNe +000_ -01_ F_
TNe +000_ -01_ F_
TNe +000_ -01_ E_
TNe +000_ -01_ E_
TNe +000_ -01_ E_
TNe +000_ -01_ F_
TNe +000_ -01_ F_ L

[Sample25]
TNE +000_ +00_ F_
TNE +000_ +00_ F_ L
TNE +000_ +00_ F_
TNE +000_ +00_ F_
TNE +000_ +00_ F-

[Sample26]
tne +000_ +00_ 0_ L

[Sample27]
TnE +100_ +05_ F_
TnE +200_ +02_ A_
TnE +300_ +02_ 7_
TNE +400_ +00_ 3- L

[Sample28]
tne +000_ +00_ 0_ L

[Sample29]
tnE +000_ +00_ 0_ L

[Sample30]
TNE +000_ +00_ C+ L

[Sample31]
TNe +1C0_ +00_ F_
Tne +280_ +00_ E_
Tne +380_ +00_ C_
Tne +440_ +00_ A_
Tne +480_ +00_ 8_
TnE +000_ +00_ 0_ L

[Pattern0]
....|..|--- .... ....|G#3 3F.F ....|--- .... ....
....|..|--- .... ....|--- .... ....|--- .... ....
....|..|--- .... ....|--- .... ....|--- .... ....
....|..|--- .... ....|--- .... ....|--- .... ....
....|..|--- .... ....|G#3 3F1F ....|--- .... ....
....|..|--- .... ....|--- .... ....|--- .... ....
....|..|--- .... ....|G#3 3F.A ....|--- .... ....
....|..|--- .... ....|--- .... ....|--- .... ....
....|..|--- .... ....|G#3 3F2F ....|--- .... ....
....|..|--- .... ....|--- .... ....|--- .... ....
....|..|--- .... ....|G#3 3F1A ....|--- .... ....
....|..|--- .... ....|B-3 3F3F ....|--- .... ....
....|..|--- .... ....|G#3 3F2F ....|--- .... ....
....|..|--- .... ....|--- .... ....|--- .... ....
....|..|--- .... ....|G#3 3F2A ....|--- .... ....
....|..|--- .... ....|--- .... ....|--- .... ....
....|..|--- .... ....|G#3 3F4F ....|--- .... ....
....|..|--- .... ....|B-3 3F3A ....|--- .... ....
....|..|--- .... ....|G#3 3F2A ....|--- .... ....
....|..|--- .... ....|--- .... ....|--- .... ....
....|..|--- .... ....|F#4 3F.F ....|--- .... ....
....|..|--- .... ....|G#3 3F.F ....|--- .... ....
....|..|--- .... ....|E-4 3F.F ....|--- .... ....
....|..|--- .... ....|B-3 3F37 ....|--- .... ....
....|..|--- .... ....|G#3 3F27 ....|--- .... ....
....|..|--- .... ....|--- .... ....|--- .... ....
....|..|--- .... ....|F#4 3F.A ....|--- .... ....
....|..|--- .... ....|G#3 3F.F ....|--- .... ....
....|..|--- .... ....|D#4 3F.F ....|--- .... ....
....|..|--- .... ....|--- .... ....|--- .... ....
....|..|--- .... ....|--- .... ....|--- .... ....
....|..|--- .... ....|--- .... ....|--- .... ....
....|..|--- .... ....|G#3 3F.F ....|--- .... ....
....|..|--- .... ....|G#3 3F.7 ....|--- .... ....
....|..|--- .... ....|E-4 3F.7 ....|--- .... ....
....|..|--- .... ....|--- .... ....|--- .... ....
....|..|--- .... ....|G#3 3F1F ....|--- .... ....
....|..|--- .... ....|--- .... ....|--- .... ....
....|..|--- .... ....|G#3 3F.A ....|--- .... ....
....|..|--- .... ....|G#3 3F.7 ....|--- .... ....
....|..|--- .... ....|G#3 3F2F ....|G#4 UF.F ....
....|..|--- .... ....|--- .... ....|--- .... ....
....|..|--- .... ....|G#3 3F1A ....|--- .... ....
....|..|--- .... ....|B-3 3F3F ....|R-- .... ....
....|..|--- .... ....|G#3 3F2F ....|A-4 UF.F ....
....|..|--- .... ....|--- .... ....|--- .... ....
....|..|--- .... ....|G#3 3F2A ....|G#4 UF.A ....
....|..|--- .... ....|--- .... ....|--- .... ....
....|..|--- .... ....|G#3 3F4F ....|G#4 UF.F ....
....|..|--- .... ....|B-3 3F3A ....|R-- .... ....
....|..|--- .... ....|G#3 3F2A ....|A-4 UF.A ....
....|..|--- .... ....|--- .... ....|--- .... ....
....|..|--- .... ....|F#4 3F.F ....|G#4 UF.7 ....
....|..|--- .... ....|G#3 3F.F ....|--- .... ....
....|..|--- .... ....|E-4 3F.F ....|G#4 UF.A ....
....|..|--- .... ....|B-3 3F37 ....|R-- .... ....
....|..|--- .... ....|G#3 3F27 ....|F#4 UF.F ....
....|..|--- .... ....|--- .... ....|--- .... ....
....|..|--- .... ....|F#4 3F.A ....|--- .... ....
....|..|--- .... ....|G#3 3F.F ....|--- .... ....
....|..|--- .... ....|D#4 3F.F ....|G#4 UF.7 ....
....|..|--- .... ....|--- .... ....|--- .... ....
....|..|--- .... ....|--- .... ....|F#4 UF.A ....
....|..|--- .... ....|--- .... ....|R-- .... ....

[Pattern1]
....|..|--- .... ....|G#3 3F.F ....|E-4 UF.F ....
....|..|--- .... ....|G#3 3F.7 ....|--- .... ....
....|..|--- .... ....|E-4 3F.7 ....|R-- .... ....
....|..|--- .... ....|--- .... ....|--- .... ....
....|..|--- .... ....|G#3 3F1F ....|F#4 UF.7 ....
....|..|--- .... ....|--- .... ....|R-- .... ....
....|..|--- .... ....|G#3 3F.A ....|E-4 UF.A ....
....|..|--- .... ....|G#3 3F.7 ....|R-- .... ....
....|..|--- .... ....|G#3 3F2F ....|F#4 UF.F ....
....|..|--- .... ....|--- .... ....|--- .... ....
....|..|--- .... ....|G#3 3F1A ....|--- .... ....
....|..|--- .... ....|B-3 3F3F ....|R-- .... ....
....|..|--- .... ....|G#3 3F2F ....|E-4 UF.F ....
....|..|--- .... ....|--- .... ....|R-- .... ....
....|..|--- .... ....|G#3 3F2A ....|F#4 UF.A ....
....|..|--- .... ....|--- .... ....|R-- .... ....
....|..|--- .... ....|G#3 3F4F ....|D#4 UF.F ....
....|..|--- .... ....|B-3 3F3A ....|--- .... ....
....|..|--- .... ....|G#3 3F2A ....|E-4 UF.A ....
....|..|--- .... ....|--- .... ....|R-- .... ....
....|..|--- .... ....|F#4 3F.F ....|F#4 UF.7 ....
....|..|--- .... ....|G#3 3F.F ....|R-- .... ....
....|..|--- .... ....|E-4 3F.F ....|C#4 UF.F ....
....|..|--- .... ....|B-3 3F37 ....|--- .... ....
....|..|--- .... ....|G#3 3F27 ....|E-4 UF.7 ....
....|..|--- .... ....|--- .... ....|--- .... ....
....|..|--- .... ....|F#4 3F.A ....|R-- .... ....
....|..|--- .... ....|G#3 3F.F ....|R-- .... ....
....|..|--- .... ....|D#4 3F.F ....|B-3 UF.F ....
....|..|--- .... ....|--- .... ....|--- .... ....
....|..|--- .... ....|--- .... ....|--- .... ....
....|..|--- .... ....|--- .... ....|R-- .... ....
....|..|--- .... ....|F#4 3F.7 ....|C#4 UF.F ....
....|..|--- .... ....|G#3 3F.7 ....|C#5 UF.F ....
....|..|--- .... ....|E-4 3F.7 ....|C#4 UF.7 ....
....|..|--- .... ....|--- .... ....|--- .... ....
....|..|--- .... ....|--- .... ....|--- .... ....
....|..|--- .... ....|--- .... ....|R-- .... ....
....|..|--- .... ....|R-- .... ....|C#4 UF.A ....
....|..|--- .... ....|G#3 3F.7 ....|C#5 UF.A ....
....|..|--- .... ....|D#4 3F.7 ....|B-3 UF.7 ....
....|..|--- .... ....|--- .... ....|--- .... ....
....|..|--- .... ....|--- .... ....|--- .... ....
....|..|--- .... ....|--- .... ....|R-- .... ....
....|..|--- .... ....|R-- .... ....|C#4 UF.7 ....
....|..|--- .... ....|--- .... ....|C#5 UF.7 ....
....|..|--- .... ....|--- .... ....|--- .... ....
....|..|--- .... ....|--- .... ....|--- .... ....
....|..|--- .... ....|--- .... ....|C#5 UF.F ....
....|..|--- .... ....|--- .... ....|R-- .... ....
....|..|--- .... ....|--- .... ....|--- .... ....
....|..|--- .... ....|--- .... ....|--- .... ....
....|..|--- .... ....|--- .... ....|D#5 UF.F ....
....|..|--- .... ....|--- .... ....|--- .... ....
....|..|--- .... ....|--- .... ....|C#5 UF.A ....
....|..|--- .... ....|--- .... ....|R-- .... ....
....|..|--- .... ....|--- .... ....|C#5 UF.F ....
....|..|--- .... ....|--- .... ....|--- .... ....
....|..|--- .... ....|--- .... ....|D#5 UF.A ....
....|..|--- .... ....|--- .... ....|R-- .... ....
....|..|--- .... ....|--- .... ....|B-4 UF.F ....
....|..|--- .... ....|--- .... ....|R-- .... ....
....|..|--- .... ....|--- .... ....|C#5 UF.A ....
....|..|--- .... ....|--- .... ....|--- .... ....

[Pattern2]
 C#4|..|C#2 2A.F ....|G#3 3F5F ....|C#5 UF.F ....
....|..|--- .... ....|R-- .... ....|R-- .... ....
....|..|--- .... ....|--- .... ....|B-4 UF.A ....
....|..|--- .... ....|--- .... ....|--- .... ....
....|..|--- .... ....|G#3 3F5F ....|C#5 UF.7 ....
....|..|--- .... ....|R-- .... ....|--- .... ....
....|..|C#2 2F.A ....|G#3 3F5A ....|C#5 UF.A ....
....|..|--- .... ....|R-- .... ....|R-- .... ....
....|..|--- .... ....|G#3 3F5F ....|B-4 UF.7 ....
....|..|R-- .... ....|R-- .... ....|--- .... ....
....|..|--- .... ....|G#3 3F5A ....|--- .... ....
....|..|--- .... ....|R-- .... ....|--- .... ....
 C#4|..|C#2 2A.F ....|G#3 3F5F ....|C#5 UF.7 ....
....|..|--- .... ....|R-- .... ....|--- .... ....
....|..|R-- .... ....|G#3 3F5A ....|--- .... ....
....|..|R-- .... ....|R-- .... ....|--- .... ....
 B-3|..|B-1 2A.F ....|B-3 3F6F ....|--- .... ....
....|..|--- .... ....|R-- .... ....|--- .... ....
....|..|C#2 2F.A ....|G#3 3F5A ....|--- .... ....
....|..|--- .... ....|R-- .... ....|--- .... ....
....|..|R-- .... ....|B-3 3F6F ....|--- .... ....
....|..|R-- .... ....|R-- .... ....|--- .... ....
....|..|B-1 2F.A ....|B-3 3F6A ....|--- .... ....
....|..|--- .... ....|R-- .... ....|--- .... ....
....|..|C#2 2F.7 ....|B-3 3F6F ....|--- .... ....
....|..|R-- .... ....|R-- .... ....|--- .... ....
....|..|R-- .... ....|B-3 3F6A ....|R-- .... ....
....|..|--- .... ....|R-- .... ....|--- .... ....
 B-3|..|B-1 2A.F ....|B-3 3F6F ....|--- .... ....
....|..|R-- .... ....|R-- .... ....|--- .... ....
....|..|--- .... ....|B-3 3F6A ....|--- .... ....
....|..|R-- .... ....|R-- .... ....|--- .... ....
 A-3|..|A-1 2A.F ....|A-3 3F6F ....|R-- .... ....
....|..|--- .... ....|R-- .... ....|--- .... ....
....|..|B-1 2F.A ....|B-3 3F6A ....|--- .... ....
....|..|R-- .... ....|R-- .... ....|--- .... ....
....|..|--- .... ....|A-3 3F6F ....|--- .... ....
....|..|R-- .... ....|R-- .... ....|--- .... ....
....|..|A-1 2F.A ....|A-3 3F6A ....|R-- .... ....
....|..|--- .... ....|R-- .... ....|--- .... ....
....|..|B-1 2F.7 ....|A-3 3F6F ....|C#5 UF.F ....
....|..|R-- .... ....|R-- .... ....|--- .... ....
....|..|--- .... ....|A-3 3F6A ....|--- .... ....
....|..|--- .... ....|R-- .... ....|R-- .... ....
 A-3|..|A-1 2A.F ....|A-3 3F6F ....|D#5 UF.F ....
....|..|R-- .... ....|R-- .... ....|--- .... ....
....|..|--- .... ....|A-3 3F6A ....|C#5 UF.A ....
....|..|R-- .... ....|R-- .... ....|--- .... ....
 B-3|..|B-1 2A.F ....|B-3 3F6F ....|C#5 UF.F ....
....|..|--- .... ....|R-- .... ....|R-- .... ....
....|..|A-1 2F.A ....|A-3 3F6A ....|D#5 UF.A ....
....|..|R-- .... ....|R-- .... ....|--- .... ....
....|..|--- .... ....|B-3 3F6F ....|C#5 UF.7 ....
....|..|R-- .... ....|R-- .... ....|--- .... ....
....|..|B-1 2F.A ....|B-3 3F6A ....|C#5 UF.A ....
....|..|--- .... ....|R-- .... ....|R-- .... ....
....|..|A-1 2F.7 ....|B-3 3F6F ....|B-4 UF.F ....
....|..|R-- .... ....|R-- .... ....|--- .... ....
....|..|--- .... ....|B-3 3F6A ....|--- .... ....
....|..|--- .... ....|R-- .... ....|R-- .... ....
 B-3|..|B-1 2A.F ....|B-3 3F6F ....|G#4 UF.F ....
....|..|--- .... ....|R-- .... ....|--- .... ....
....|..|R-- .... ....|B-3 3F6A ....|B-4 UF.A ....
....|..|R-- .... ....|R-- .... ....|--- .... ....

[Pattern3]
 G#3|..|G#1 2A.F ....|C#4 3F7F ....|--- .... ....
....|..|--- .... ....|R-- .... ....|R-- .... ....
....|..|B-1 2F.A ....|B-3 3F6A ....|G#4 UF.A ....
....|..|--- .... ....|R-- .... ....|--- .... ....
....|..|R-- .... ....|C#4 3F7F ....|B-4 UF.7 ....
....|..|R-- .... ....|R-- .... ....|--- .... ....
....|..|G#1 2F.A ....|C#4 3F7A ....|--- .... ....
....|..|--- .... ....|R-- .... ....|R-- .... ....
....|..|B-1 2F.7 ....|C#4 3F7F ....|G#4 UF.7 ....
....|..|R-- .... ....|R-- .... ....|--- .... ....
....|..|R-- .... ....|C#4 3F7A ....|--- .... ....
....|..|--- .... ....|R-- .... ....|--- .... ....
 G#3|..|G#1 2A.F ....|C#4 3F7F ....|--- .... ....
....|..|R-- .... ....|R-- .... ....|--- .... ....
....|..|--- .... ....|C#4 3F7A ....|--- .... ....
....|..|R-- .... ....|R-- .... ....|--- .... ....
 G#3|..|G#1 2A.F ....|C#4 3F7F ....|--- .... ....
....|..|--- .... ....|R-- .... ....|--- .... ....
....|..|G#1 2F.A ....|C#4 3F7A ....|--- .... ....
....|..|R-- .... ....|R-- .... ....|--- .... ....
 G#3|..|G#1 2A.F ....|C#4 3F7F ....|--- .... ....
....|..|R-- .... ....|R-- .... ....|--- .... ....
....|..|G#1 2F.A ....|C#4 3F7A ....|--- .... ....
....|..|--- .... ....|R-- .... ....|--- .... ....
....|..|G#1 2F.7 ....|C#4 3F7F ....|--- .... ....
....|..|R-- .... ....|R-- .... ....|--- .... ....
....|..|G#1 2F.A ....|C#4 3F7A ....|--- .... ....
....|..|--- .... ....|R-- .... ....|--- .... ....
 G#3|..|G#1 2A.F ....|C#4 3F7F ....|--- .... ....
....|..|R-- .... ....|R-- .... ....|--- .... ....
....|..|R-- .... ....|C#4 3F7A ....|--- .... ....
....|..|R-- .... ....|R-- .... ....|R-- .... ....
 G#3|..|G#1 2A.F ....|C-4 3F8F ....|--- .... ....
....|..|--- .... ....|R-- .... ....|--- .... ....
....|..|G#1 2F.A ....|C#4 3F7A ....|--- .... ....
....|..|R-- .... ....|R-- .... ....|--- .... ....
....|..|--- .... ....|C-4 3F8F ....|--- .... ....
....|..|R-- .... ....|R-- .... ....|R-- .... ....
....|..|G#1 2F.A ....|C-4 3F8A ....|--- .... ....
....|..|--- .... ....|R-- .... ....|--- .... ....
....|..|G#1 2F.7 ....|C-4 3F8F ....|--- .... ....
....|..|R-- .... ....|R-- .... ....|--- .... ....
....|..|--- .... ....|C-4 3F8A ....|--- .... ....
....|..|--- .... ....|R-- .... ....|R-- .... ....
 G#3|..|G#1 2A.F ....|C-4 3F8F ....|--- .... ....
....|..|--- .... ....|R-- .... ....|--- .... ....
....|..|R-- .... ....|C-4 3F8A ....|--- .... ....
....|..|R-- .... ....|R-- .... ....|--- .... ....
 A-3|..|A-1 2A.F ....|A-3 3F6F ....|E-5 UF.F ....
....|..|--- .... ....|R-- .... ....|--- .... ....
....|..|G#1 2F.A ....|C-4 3F8A ....|--- .... ....
....|..|--- .... ....|R-- .... ....|R-- .... ....
....|..|R-- .... ....|A-3 3F6F ....|E-5 UF.F ....
....|..|R-- .... ....|R-- .... ....|--- .... ....
....|..|A-1 2F.A ....|A-3 3F6A ....|E-5 UF.A ....
....|..|--- .... ....|R-- .... ....|--- .... ....
....|..|G#1 2F.7 ....|A-3 3F6F ....|--- .... ....
....|..|R-- .... ....|R-- .... ....|R-- .... ....
....|..|R-- .... ....|A-3 3F6A ....|E-5 UF.A ....
....|..|--- .... ....|R-- .... ....|E-5 UF.F ....
 A-3|..|A-1 2A.F ....|A-3 3F6F ....|E-5 UF.7 ....
....|..|R-- .... ....|R-- .... ....|E-5 UF.F ....
....|..|--- .... ....|A-3 3F6A ....|--- .... ....
....|..|R-- .... ....|R-- .... ....|R-- .... ....

[Pattern4]
 E-4|..|E-2 2A.F ....|G#3 3F9F ....|E-5 UF.F ....
....|..|--- .... ....|R-- .... ....|E-5 UF.A ....
....|..|A-1 2F.A ....|A-3 3F6A ....|--- .... ....
....|..|R-- .... ....|R-- .... ....|E-5 UF.A ....
....|..|--- .... ....|G#3 3F9F ....|--- .... ....
....|..|R-- .... ....|R-- .... ....|R-- .... ....
....|..|E-2 2F.A ....|G#3 3F9A ....|E-5 UF.A ....
....|..|--- .... ....|R-- .... ....|E-5 UF.7 ....
....|..|A-1 2F.7 ....|G#3 3F9F ....|--- .... ....
....|..|R-- .... ....|R-- .... ....|E-5 UF.7 ....
....|..|--- .... ....|G#3 3F9A ....|--- .... ....
....|..|--- .... ....|R-- .... ....|R-- .... ....
 E-4|..|E-2 2A.F ....|G#3 3F9F ....|E-5 UF.7 ....
....|..|R-- .... ....|R-- .... ....|--- .... ....
....|..|--- .... ....|G#3 3F9A ....|--- .... ....
....|..|R-- .... ....|R-- .... ....|--- .... ....
 G#3|..|G#1 2A.F ....|C-4 3F8F ....|--- .... ....
....|..|--- .... ....|R-- .... ....|R-- .... ....
....|..|E-2 2F.A ....|G#3 3F9A ....|--- .... ....
....|..|R-- .... ....|R-- .... ....|--- .... ....
....|..|--- .... ....|C-4 3F8F ....|--- .... ....
....|..|R-- .... ....|R-- .... ....|--- .... ....
....|..|G#1 2F.A ....|C-4 3F8A ....|--- .... ....
....|..|--- .... ....|R-- .... ....|R-- .... ....
....|..|E-2 2F.7 ....|C-4 3F8F ....|--- .... ....
....|..|R-- .... ....|R-- .... ....|--- .... ....
....|..|--- .... ....|C-4 3F8A ....|--- .... ....
....|..|--- .... ....|R-- .... ....|--- .... ....
 G#3|..|G#1 2A.F ....|C-4 3F8F ....|--- .... ....
....|..|R-- .... ....|R-- .... ....|--- .... ....
....|..|R-- .... ....|C-4 3F8A ....|--- .... ....
....|..|--- .... ....|R-- .... ....|--- .... ....
 C#4|..|C#2 2A.F ....|G#3 3F5F ....|--- .... ....
....|..|--- .... ....|R-- .... ....|--- .... ....
....|..|G#1 2F.A ....|C-4 3F8A ....|--- .... ....
....|..|R-- .... ....|R-- .... ....|--- .... ....
....|..|R-- .... ....|G#3 3F5F ....|--- .... ....
....|..|--- .... ....|R-- .... ....|--- .... ....
....|..|C#2 2F.A ....|G#3 3F5A ....|--- .... ....
....|..|--- .... ....|R-- .... ....|--- .... ....
....|..|G#1 2F.7 ....|G#3 3F5F ....|E-5 UF.F ....
....|..|R-- .... ....|R-- .... ....|--- .... ....
....|..|--- .... ....|G#3 3F5A ....|R-- .... ....
....|..|--- .... ....|R-- .... ....|--- .... ....
 C#4|..|C#2 2A.F ....|G#3 3F5F ....|E-5 UF.F ....
....|..|--- .... ....|R-- .... ....|--- .... ....
....|..|R-- .... ....|G#3 3F5A ....|E-5 UF.A ....
....|..|--- .... ....|R-- .... ....|--- .... ....
 A-3|..|A-1 2A.F ....|A-3 3F6F ....|E-5 UF.F ....
....|..|--- .... ....|R-- .... ....|--- .... ....
....|..|C#2 2F.A ....|G#3 3F5A ....|E-5 UF.A ....
....|..|--- .... ....|R-- .... ....|R-- .... ....
....|..|R-- .... ....|A-3 3F6F ....|E-5 UF.F ....
....|..|--- .... ....|R-- .... ....|--- .... ....
....|..|A-1 2F.A ....|A-3 3F6A ....|E-5 UF.A ....
....|..|--- .... ....|R-- .... ....|--- .... ....
....|..|C#2 2F.7 ....|A-3 3F6F ....|E-5 UF.7 ....
....|..|R-- .... ....|R-- .... ....|R-- .... ....
....|..|R-- .... ....|A-3 3F6A ....|E-5 UF.A ....
....|..|--- .... ....|R-- .... ....|--- .... ....
 A-3|..|A-1 2A.F ....|A-3 3F6F ....|D#5 UF.F ....
....|..|R-- .... ....|R-- .... ....|--- .... ....
....|..|--- .... ....|A-3 3F6A ....|R-- .... ....
....|..|R-- .... ....|R-- .... ....|R-- .... ....

[Pattern5]
 G#3|..|G#1 2A.F ....|C#4 3F7F ....|E-5 UF.7 ....
....|..|--- .... ....|R-- .... ....|--- .... ....
....|..|A-1 2F.A ....|A-3 3F6A ....|D#5 UF.A ....
....|..|R-- .... ....|R-- .... ....|--- .... ....
....|..|--- .... ....|C#4 3F7F ....|R-- .... ....
....|..|R-- .... ....|R-- .... ....|--- .... ....
....|..|G#1 2F.A ....|C#4 3F7A ....|--- .... ....
....|..|--- .... ....|R-- .... ....|--- .... ....
....|..|A-1 2F.7 ....|C#4 3F7F ....|D#5 UF.7 ....
....|..|R-- .... ....|R-- .... ....|--- .... ....
....|..|--- .... ....|C#4 3F7A ....|--- .... ....
....|..|--- .... ....|R-- .... ....|--- .... ....
 G#3|..|G#1 2A.F ....|C#4 3F7F ....|--- .... ....
....|..|R-- .... ....|R-- .... ....|--- .... ....
....|..|--- .... ....|C#4 3F7A ....|--- .... ....
....|..|R-- .... ....|R-- .... ....|--- .... ....
 G#3|..|G#1 2A.F ....|C#4 3F7F ....|--- .... ....
....|..|--- .... ....|R-- .... ....|--- .... ....
....|..|G#1 2F.A ....|C#4 3F7A ....|R-- .... ....
....|..|R-- .... ....|R-- .... ....|--- .... ....
....|..|--- .... ....|C#4 3F7F ....|--- .... ....
....|..|R-- .... ....|R-- .... ....|--- .... ....
....|..|G#1 2F.A ....|C#4 3F7A ....|--- .... ....
....|..|--- .... ....|R-- .... ....|--- .... ....
....|..|G#1 2F.7 ....|C#4 3F7F ....|R-- .... ....
....|..|R-- .... ....|R-- .... ....|--- .... ....
....|..|--- .... ....|C#4 3F7A ....|--- .... ....
....|..|--- .... ....|R-- .... ....|--- .... ....
 G#3|..|G#1 2A.F ....|C#4 3F7F ....|--- .... ....
....|..|R-- .... ....|R-- .... ....|--- .... ....
....|..|--- .... ....|C#4 3F7A ....|R-- .... ....
....|..|R-- .... ....|R-- .... ....|--- .... ....
 G#3|..|G#1 2A.F ....|C-4 3F8F ....|--- .... ....
....|..|--- .... ....|R-- .... ....|--- .... ....
....|..|G#1 2F.A ....|C#4 3F7A ....|--- .... ....
....|..|R-- .... ....|R-- .... ....|--- .... ....
....|..|--- .... ....|C-4 3F8F ....|--- .... ....
....|..|R-- .... ....|R-- .... ....|--- .... ....
....|..|G#1 2F.A ....|C-4 3F8A ....|--- .... ....
....|..|--- .... ....|R-- .... ....|--- .... ....
....|..|G#1 2F.7 ....|C-4 3F8F ....|--- .... ....
....|..|R-- .... ....|R-- .... ....|--- .... ....
....|..|--- .... ....|C-4 3F8A ....|--- .... ....
....|..|--- .... ....|R-- .... ....|--- .... ....
 G#3|..|G#1 2A.F ....|C-4 3F8F ....|--- .... ....
....|..|--- .... ....|R-- .... ....|--- .... ....
....|..|R-- .... ....|C-4 3F8A ....|--- .... ....
....|..|R-- .... ....|R-- .... ....|--- .... ....
 C-4|..|C-2 2A.F ....|C-4 3F8F ....|G#4 UF.F ....
....|..|--- .... ....|R-- .... ....|--- .... ....
....|..|G#1 2F.A ....|C-4 3F8A ....|--- .... ....
....|..|--- .... ....|R-- .... ....|R-- .... ....
 D#4|..|D#2 2A.F ....|C-4 3F8F ....|G#4 UF.F ....
....|..|R-- .... ....|R-- .... ....|--- .... ....
....|..|C-2 2F.A ....|C-4 3F8A ....|G#4 UF.A ....
....|..|--- .... ....|R-- .... ....|R-- .... ....
 F#4|..|F#2 2A.F ....|C-4 3F8F ....|B-4 UF.F ....
....|..|--- .... ....|R-- .... ....|R-- .... ....
....|..|D#2 2F.A ....|C-4 3F8A ....|G#4 UF.A ....
....|..|R-- .... ....|R-- .... ....|--- .... ....
 C-4|..|C-2 2A.F ....|C-4 3F8F ....|G#4 UF.F ....
....|..|--- .... ....|R-- .... ....|R-- .... ....
....|..|F#2 2F.A ....|C-4 3F8A ....|B-4 UF.A ....
....|..|R-- .... ....|R-- .... ....|R-- .... ....

[Pattern6]
 C#4|..|C#2 2A.F ....|G#3 3F5F ....|E-5 UF.F ....
....|..|R-- .... ....|R-- .... ....|--- .... ....
....|..|C-2 2F.A ....|C-4 3F8A ....|G#4 UF.A ....
....|..|--- .... ....|R-- .... ....|R-- .... ....
....|..|F#2 2F.7 ....|G#3 3F5F ....|C#5 UF.F ....
....|..|R-- .... ....|R-- .... ....|--- .... ....
....|..|C#2 2F.A ....|G#3 3F5A ....|E-5 UF.A ....
....|..|R-- .... ....|R-- .... ....|--- .... ....
....|..|C-2 2F.7 ....|G#3 3F5F ....|G#4 UF.7 ....
....|..|R-- .... ....|R-- .... ....|--- .... ....
....|..|--- .... ....|G#3 3F5A ....|C#5 UF.A ....
....|..|R-- .... ....|--- .... ....|--- .... ....
 C#4|..|C#2 2A.F ....|G#3 3F5F ....|E-5 UF.7 ....
....|..|--- .... ....|R-- .... ....|--- .... ....
....|..|R-- .... ....|G#3 3F5A ....|--- .... ....
....|..|R-- .... ....|R-- .... ....|--- .... ....
 B-3|..|B-1 2A.F ....|B-3 3F6F ....|C#5 UF.7 ....
....|..|--- .... ....|R-- .... ....|--- .... ....
....|..|C#2 2F.A ....|G#3 3F5A ....|--- .... ....
....|..|--- .... ....|R-- .... ....|--- .... ....
....|..|R-- .... ....|B-3 3F6F ....|--- .... ....
....|..|R-- .... ....|R-- .... ....|--- .... ....
....|..|B-1 2F.A ....|B-3 3F6A ....|R-- .... ....
....|..|--- .... ....|R-- .... ....|--- .... ....
....|..|C#2 2F.7 ....|B-3 3F6F ....|--- .... ....
....|..|R-- .... ....|R-- .... ....|--- .... ....
....|..|R-- .... ....|B-3 3F6A ....|--- .... ....
....|..|--- .... ....|R-- .... ....|--- .... ....
 B-3|..|B-1 2A.F ....|B-3 3F6F ....|R-- .... ....
....|..|--- .... ....|R-- .... ....|--- .... ....
....|..|R-- .... ....|B-3 3F6A ....|--- .... ....
....|..|R-- .... ....|R-- .... ....|--- .... ....
 A-3|..|A-1 2A.F ....|A-3 3F6F ....|--- .... ....
....|..|--- .... ....|R-- .... ....|--- .... ....
....|..|B-1 2F.A ....|B-3 3F6A ....|--- .... ....
....|..|--- .... ....|R-- .... ....|--- .... ....
....|..|R-- .... ....|A-3 3F6F ....|--- .... ....
....|..|R-- .... ....|R-- .... ....|--- .... ....
....|..|A-1 2F.A ....|A-3 3F6A ....|--- .... ....
....|..|--- .... ....|R-- .... ....|--- .... ....
....|..|B-1 2F.7 ....|A-3 3F6F ....|C#5 UF.F ....
....|..|R-- .... ....|R-- .... ....|--- .... ....
....|..|R-- .... ....|A-3 3F6A ....|R-- .... ....
....|..|--- .... ....|R-- .... ....|--- .... ....
 A-3|..|A-1 2A.F ....|A-3 3F6F ....|D#5 UF.F ....
....|..|R-- .... ....|R-- .... ....|--- .... ....
....|..|--- .... ....|A-3 3F6A ....|C#5 UF.A ....
....|..|R-- .... ....|R-- .... ....|R-- .... ....
 B-3|..|B-1 2A.F ....|B-3 3F6F ....|C#5 UF.F ....
....|..|--- .... ....|R-- .... ....|--- .... ....
....|..|A-1 2F.A ....|A-3 3F6A ....|D#5 UF.A ....
....|..|R-- .... ....|R-- .... ....|R-- .... ....
....|..|--- .... ....|B-3 3F6F ....|B-4 UF.F ....
....|..|R-- .... ....|R-- .... ....|R-- .... ....
....|..|B-1 2F.A ....|B-3 3F6A ....|C#5 UF.A ....
....|..|--- .... ....|R-- .... ....|--- .... ....
....|..|A-1 2F.7 ....|B-3 3F6F ....|B-4 UF.F ....
....|..|R-- .... ....|R-- .... ....|R-- .... ....
....|..|--- .... ....|B-3 3F6A ....|B-4 UF.A ....
....|..|--- .... ....|R-- .... ....|R-- .... ....
 B-3|..|B-1 2A.F ....|B-3 3F6F ....|G#4 UF.F ....
....|..|--- .... ....|R-- .... ....|--- .... ....
....|..|R-- .... ....|B-3 3F6A ....|B-4 UF.A ....
....|..|R-- .... ....|R-- .... ....|R-- .... ....

[Pattern7]
 G#3|..|G#1 2A.F ....|C#4 3F7F ....|B-4 UF.7 ....
....|..|--- .... ....|R-- .... ....|R-- .... ....
....|..|B-1 2F.A ....|B-3 3F6A ....|G#4 UF.A ....
....|..|--- .... ....|R-- .... ....|--- .... ....
....|..|R-- .... ....|C#4 3F7F ....|B-4 UF.7 ....
....|..|R-- .... ....|R-- .... ....|--- .... ....
....|..|G#1 2F.A ....|C#4 3F7A ....|--- .... ....
....|..|--- .... ....|R-- .... ....|R-- .... ....
....|..|B-1 2F.7 ....|C#4 3F7F ....|G#4 UF.7 ....
....|..|R-- .... ....|R-- .... ....|--- .... ....
....|..|R-- .... ....|C#4 3F7A ....|--- .... ....
....|..|--- .... ....|R-- .... ....|--- .... ....
 G#3|..|G#1 2A.F ....|C#4 3F7F ....|--- .... ....
....|..|R-- .... ....|R-- .... ....|--- .... ....
....|..|--- .... ....|C#4 3F7A ....|--- .... ....
....|..|R-- .... ....|R-- .... ....|--- .... ....
 G#3|..|G#1 2A.F ....|C#4 3F7F ....|--- .... ....
....|..|--- .... ....|R-- .... ....|--- .... ....
....|..|G#1 2F.A ....|C#4 3F7A ....|--- .... ....
....|..|R-- .... ....|R-- .... ....|--- .... ....
....|..|--- .... ....|C#4 3F7F ....|--- .... ....
....|..|R-- .... ....|R-- .... ....|--- .... ....
....|..|G#1 2F.A ....|C#4 3F7A ....|--- .... ....
....|..|--- .... ....|R-- .... ....|--- .... ....
....|..|G#1 2F.7 ....|C#4 3F7F ....|--- .... ....
....|..|R-- .... ....|R-- .... ....|--- .... ....
....|..|--- .... ....|C#4 3F7A ....|--- .... ....
....|..|--- .... ....|R-- .... ....|--- .... ....
 G#3|..|G#1 2A.F ....|C#4 3F7F ....|--- .... ....
....|..|R-- .... ....|R-- .... ....|--- .... ....
....|..|--- .... ....|C#4 3F7A ....|--- .... ....
....|..|R-- .... ....|R-- .... ....|R-- .... ....
 G#3|..|G#1 2A.F ....|C-4 3F8F ....|--- .... ....
....|..|--- .... ....|R-- .... ....|--- .... ....
....|..|G#1 2F.A ....|C#4 3F7A ....|--- .... ....
....|..|R-- .... ....|R-- .... ....|--- .... ....
....|..|--- .... ....|C-4 3F8F ....|--- .... ....
....|..|R-- .... ....|R-- .... ....|R-- .... ....
....|..|G#1 2F.A ....|C-4 3F8A ....|--- .... ....
....|..|--- .... ....|R-- .... ....|--- .... ....
....|..|G#1 2F.7 ....|C-4 3F8F ....|--- .... ....
....|..|R-- .... ....|R-- .... ....|--- .... ....
....|..|--- .... ....|C-4 3F8A ....|--- .... ....
....|..|--- .... ....|R-- .... ....|R-- .... ....
 G#3|..|G#1 2A.F ....|C-4 3F8F ....|--- .... ....
....|..|R-- .... ....|R-- .... ....|--- .... ....
....|..|--- .... ....|C-4 3F8A ....|--- .... ....
....|..|R-- .... ....|R-- .... ....|--- .... ....
 G#3|..|G#1 2A.F ....|C-4 3F8F ....|G#5 UF.F ....
....|..|--- .... ....|R-- .... ....|--- .... ....
....|..|G#1 2F.A ....|C-4 3F8A ....|--- .... ....
....|..|R-- .... ....|R-- .... ....|R-- .... ....
 C-4|..|C-2 2A.F ....|C-4 3F8F ....|F#5 UF.F ....
....|..|R-- .... ....|R-- .... ....|--- .... ....
....|..|G#1 2F.A ....|C-4 3F8A ....|G#5 UF.A ....
....|..|--- .... ....|R-- .... ....|--- .... ....
 D#4|..|D#2 2A.F ....|C-4 3F8F ....|E-5 UF.F ....
....|..|R-- .... ....|R-- .... ....|R-- .... ....
....|..|C-2 2F.A ....|C-4 3F8A ....|F#5 UF.A ....
....|..|R-- .... ....|--- .... ....|R-- .... ....
 F#4|..|F#2 2A.F ....|C-4 3F8F ....|D#5 UF.F ....
....|..|--- .... ....|R-- .... ....|--- .... ....
....|..|D#2 2F.A ....|C-4 3F8A ....|E-5 UF.A ....
....|..|R-- .... ....|R-- .... ....|R-- .... ....

[Pattern8]
 C#4|..|C#2 2A.F ....|G#3 3F5F ....|E-5 UF.F ....
....|..|R-- .... ....|R-- .... ....|R-- .... ....
....|..|F#2 2F.A ....|C-4 3F8A ....|D#5 UF.A ....
....|..|--- .... ....|R-- .... ....|--- .... ....
 C#4|..|C#2 2A.F ....|G#3 3F5F ....|E-5 UF.F ....
....|..|R-- .... ....|R-- .... ....|C#5 UF.F ....
....|..|C#2 2F.A ....|G#3 3F5A ....|E-5 UF.A ....
....|..|R-- .... ....|R-- .... ....|R-- .... ....
 C#4|..|C#2 2A.F ....|G#3 3F5F ....|D#5 UF.7 ....
....|..|--- .... ....|R-- .... ....|--- .... ....
....|..|C#2 2F.A ....|G#3 3F5A ....|E-5 UF.A ....
....|..|R-- .... ....|R-- .... ....|C#5 UF.A ....
 C#4|..|C#2 2A.F ....|G#3 3F5F ....|E-5 UF.7 ....
....|..|--- .... ....|R-- .... ....|--- .... ....
....|..|C#2 2F.A ....|G#3 3F5A ....|--- .... ....
....|..|R-- .... ....|R-- .... ....|--- .... ....
 B-3|..|B-1 2A.F ....|B-3 3F6F ....|E-5 UF.7 ....
....|..|--- .... ....|R-- .... ....|C#5 UF.7 ....
....|..|C#2 2F.A ....|G#3 3F5A ....|--- .... ....
....|..|--- .... ....|R-- .... ....|--- .... ....
 B-3|..|B-1 2A.F ....|B-3 3F6F ....|--- .... ....
....|..|R-- .... ....|R-- .... ....|--- .... ....
....|..|B-1 2F.A ....|B-3 3F6A ....|--- .... ....
....|..|--- .... ....|R-- .... ....|--- .... ....
 B-3|..|B-1 2A.F ....|B-3 3F6F ....|--- .... ....
....|..|--- .... ....|R-- .... ....|R-- .... ....
....|..|B-1 2F.A ....|B-3 3F6A ....|--- .... ....
....|..|R-- .... ....|R-- .... ....|--- .... ....
 B-3|..|B-1 2A.F ....|B-3 3F6F ....|--- .... ....
....|..|--- .... ....|R-- .... ....|--- .... ....
....|..|B-1 2F.A ....|B-3 3F6A ....|--- .... ....
....|..|R-- .... ....|R-- .... ....|R-- .... ....
 A-3|..|A-1 2A.F ....|A-3 3F6F ....|--- .... ....
....|..|--- .... ....|R-- .... ....|--- .... ....
....|..|B-1 2F.A ....|B-3 3F6A ....|--- .... ....
....|..|--- .... ....|R-- .... ....|--- .... ....
 A-3|..|A-1 2A.F ....|A-3 3F6F ....|--- .... ....
....|..|R-- .... ....|R-- .... ....|R-- .... ....
....|..|A-1 2F.A ....|A-3 3F6A ....|--- .... ....
....|..|--- .... ....|R-- .... ....|--- .... ....
 A-3|..|A-1 2A.F ....|A-3 3F6F ....|--- .... ....
....|..|--- .... ....|R-- .... ....|--- .... ....
....|..|A-1 2F.A ....|A-3 3F6A ....|--- .... ....
....|..|R-- .... ....|R-- .... ....|--- .... ....
 A-3|..|A-1 2A.F ....|A-3 3F6F ....|E-5 UF.F ....
....|..|--- .... ....|R-- .... ....|--- .... ....
....|..|A-1 2F.A ....|A-3 3F6A ....|--- .... ....
....|..|R-- .... ....|R-- .... ....|R-- .... ....
 B-3|..|B-1 2A.F ....|B-3 3F6F ....|F#5 UF.F ....
....|..|--- .... ....|R-- .... ....|--- .... ....
....|..|A-1 2F.A ....|A-3 3F6A ....|E-5 UF.A ....
....|..|--- .... ....|R-- .... ....|R-- .... ....
 B-3|..|B-1 2A.F ....|B-3 3F6F ....|E-5 UF.F ....
....|..|R-- .... ....|R-- .... ....|R-- .... ....
....|..|B-1 2F.A ....|B-3 3F6A ....|F#5 UF.A ....
....|..|--- .... ....|R-- .... ....|--- .... ....
 B-3|..|B-1 2A.F ....|B-3 3F6F ....|F#5 UF.F ....
....|..|--- .... ....|R-- .... ....|R-- .... ....
....|..|B-1 2F.A ....|B-3 3F6A ....|E-5 UF.A ....
....|..|R-- .... ....|R-- .... ....|R-- .... ....
 B-3|..|B-1 2A.F ....|B-3 3F6F ....|E-5 UF.F ....
....|..|--- .... ....|R-- .... ....|--- .... ....
....|..|B-1 2F.A ....|B-3 3F6A ....|F#5 UF.A ....
....|..|R-- .... ....|R-- .... ....|R-- .... ....

[Pattern9]
 G#3|..|G#1 2A.F ....|C#4 3F7F ....|D#5 UF.F ....
....|..|--- .... ....|R-- .... ....|R-- .... ....
....|..|B-1 2F.A ....|B-3 3F6A ....|E-5 UF.A ....
....|..|--- .... ....|R-- .... ....|--- .... ....
 G#3|..|G#1 2A.F ....|C#4 3F7F ....|F#5 UF.7 ....
....|..|R-- .... ....|R-- .... ....|--- .... ....
....|..|G#1 2F.A ....|C#4 3F7A ....|D#5 UF.A ....
....|..|--- .... ....|R-- .... ....|R-- .... ....
 G#3|..|G#1 2A.F ....|C#4 3F7F ....|E-5 UF.7 ....
....|..|--- .... ....|R-- .... ....|--- .... ....
....|..|G#1 2F.A ....|C#4 3F7A ....|R-- .... ....
....|..|R-- .... ....|R-- .... ....|--- .... ....
 G#3|..|G#1 2A.F ....|C#4 3F7F ....|D#5 UF.7 ....
....|..|--- .... ....|R-- .... ....|--- .... ....
....|..|G#1 2F.A ....|C#4 3F7A ....|--- .... ....
....|..|--- .... ....|R-- .... ....|--- .... ....
 G#3|..|G#1 2A.F ....|C#4 3F7F ....|--- .... ....
....|..|--- .... ....|R-- .... ....|--- .... ....
....|..|G#1 2F.A ....|C#4 3F7A ....|--- .... ....
....|..|--- .... ....|R-- .... ....|--- .... ....
 G#3|..|G#1 2A.F ....|C#4 3F7F ....|--- .... ....
....|..|--- .... ....|R-- .... ....|--- .... ....
....|..|G#1 2F.A ....|C#4 3F7A ....|--- .... ....
....|..|--- .... ....|R-- .... ....|--- .... ....
 G#3|..|G#1 2A.F ....|C#4 3F7F ....|--- .... ....
....|..|--- .... ....|R-- .... ....|--- .... ....
....|..|G#1 2F.A ....|C#4 3F7A ....|--- .... ....
....|..|--- .... ....|R-- .... ....|--- .... ....
 G#3|..|G#1 2A.F ....|C#4 3F7F ....|--- .... ....
....|..|--- .... ....|R-- .... ....|--- .... ....
....|..|G#1 2F.A ....|C#4 3F7A ....|--- .... ....
....|..|--- .... ....|R-- .... ....|--- .... ....
 G#3|..|G#1 2A.F ....|C-4 3F8F ....|--- .... ....
....|..|--- .... ....|R-- .... ....|--- .... ....
....|..|G#1 2F.A ....|C#4 3F7A ....|--- .... ....
....|..|--- .... ....|R-- .... ....|--- .... ....
 G#3|..|G#1 2A.F ....|C-4 3F8F ....|--- .... ....
....|..|--- .... ....|R-- .... ....|--- .... ....
....|..|G#1 2F.A ....|C-4 3F8A ....|--- .... ....
....|..|--- .... ....|R-- .... ....|R-- .... ....
 G#3|..|G#1 2A.F ....|C-4 3F8F ....|--- .... ....
....|..|--- .... ....|R-- .... ....|--- .... ....
....|..|G#1 2F.A ....|C-4 3F8A ....|--- .... ....
....|..|--- .... ....|R-- .... ....|--- .... ....
 G#3|..|G#1 2A.F ....|C-4 3F8F ....|--- .... ....
....|..|--- .... ....|R-- .... ....|R-- .... ....
....|..|G#1 2F.A ....|C-4 3F8A ....|--- .... ....
....|..|--- .... ....|R-- .... ....|--- .... ....
 C-4|..|C-2 2A.F ....|C-4 3F8F ....|C#5 UF.F ....
....|..|--- .... ....|R-- .... ....|--- .... ....
....|..|G#1 2F.A ....|C-4 3F8A ....|--- .... ....
....|..|--- .... ....|R-- .... ....|R-- .... ....
 D#4|..|D#2 2A.F ....|C-4 3F8F ....|D#5 UF.F ....
....|..|--- .... ....|R-- .... ....|--- .... ....
....|..|C-2 2F.A ....|C-4 3F8A ....|C#5 UF.A ....
....|..|--- .... ....|R-- .... ....|--- .... ....
 F#4|..|F#2 2A.F ....|C-4 3F8F ....|C#5 UF.F ....
....|..|--- .... ....|R-- .... ....|R-- .... ....
....|..|D#2 2F.A ....|C-4 3F8A ....|D#5 UF.A ....
....|..|R-- .... ....|R-- .... ....|R-- .... ....
 C-4|..|C-2 2A.F ....|C-4 3F8F ....|B-4 UF.F ....
....|..|--- .... ....|R-- .... ....|--- .... ....
....|..|F#2 2F.A ....|C-4 3F8A ....|C#5 UF.A ....
....|..|--- .... ....|R-- .... ....|C#5 UF.F ....

[Pattern10]
 C#4|..|C#2 2A.F ....|G#3 3F5F ....|D#5 UF.7 ....
....|..|R-- .... ....|R-- .... ....|R-- .... ....
....|..|C-2 2F.A ....|C-4 3F8A ....|B-4 UF.A ....
....|..|--- .... ....|R-- .... ....|--- .... ....
....|..|F#2 2F.7 ....|G#3 3F5F ....|C#5 UF.7 ....
....|..|--- .... ....|R-- .... ....|C#5 UF.A ....
....|..|C#2 2F.A ....|G#3 3F5A ....|--- .... ....
....|..|R-- .... ....|R-- .... ....|R-- .... ....
....|..|C-2 2F.7 ....|G#3 3F5F ....|B-4 UF.7 ....
....|..|R-- .... ....|R-- .... ....|--- .... ....
....|..|--- .... ....|G#3 3F5A ....|R-- .... ....
....|..|--- .... ....|R-- .... ....|C#5 UF.7 ....
 C#4|..|C#2 2A.F ....|G#3 3F5F ....|--- .... ....
....|..|--- .... ....|R-- .... ....|R-- .... ....
....|..|R-- .... ....|G#3 3F5A ....|--- .... ....
....|..|R-- .... ....|R-- .... ....|--- .... ....
 B-3|..|B-1 2A.F ....|B-3 3F6F ....|--- .... ....
....|..|--- .... ....|R-- .... ....|--- .... ....
....|..|C#2 2F.A ....|G#3 3F5A ....|--- .... ....
....|..|--- .... ....|R-- .... ....|R-- .... ....
....|..|R-- .... ....|B-3 3F6F ....|--- .... ....
....|..|R-- .... ....|R-- .... ....|--- .... ....
....|..|B-1 2F.A ....|B-3 3F6A ....|--- .... ....
....|..|--- .... ....|R-- .... ....|--- .... ....
....|..|C#2 2F.7 ....|B-3 3F6F ....|--- .... ....
....|..|R-- .... ....|R-- .... ....|R-- .... ....
....|..|R-- .... ....|B-3 3F6A ....|--- .... ....
....|..|--- .... ....|R-- .... ....|--- .... ....
 B-3|..|B-1 2A.F ....|B-3 3F6F ....|--- .... ....
....|..|--- .... ....|R-- .... ....|--- .... ....
....|..|R-- .... ....|B-3 3F6A ....|--- .... ....
....|..|R-- .... ....|R-- .... ....|--- .... ....
 A-3|..|A-1 2A.F ....|A-3 3F6F ....|--- .... ....
....|..|--- .... ....|R-- .... ....|--- .... ....
....|..|B-1 2F.A ....|B-3 3F6A ....|--- .... ....
....|..|--- .... ....|R-- .... ....|--- .... ....
....|..|R-- .... ....|A-3 3F6F ....|C#5 UF.F ....
....|..|R-- .... ....|R-- .... ....|--- .... ....
....|..|A-1 2F.A ....|A-3 3F6A ....|R-- .... ....
....|..|--- .... ....|R-- .... ....|--- .... ....
....|..|B-1 2F.7 ....|A-3 3F6F ....|C#5 UF.F ....
....|..|R-- .... ....|R-- .... ....|--- .... ....
....|..|R-- .... ....|A-3 3F6A ....|C#5 UF.A ....
....|..|--- .... ....|R-- .... ....|R-- .... ....
 A-3|..|A-1 2A.F ....|A-3 3F6F ....|D#5 UF.F ....
....|..|--- .... ....|R-- .... ....|--- .... ....
....|..|R-- .... ....|A-3 3F6A ....|C#5 UF.A ....
....|..|R-- .... ....|R-- .... ....|--- .... ....
 B-3|..|B-1 2A.F ....|B-3 3F6F ....|C#5 UF.F ....
....|..|--- .... ....|R-- .... ....|R-- .... ....
....|..|A-1 2F.A ....|A-3 3F6A ....|D#5 UF.A ....
....|..|--- .... ....|R-- .... ....|--- .... ....
....|..|R-- .... ....|B-3 3F6F ....|C#5 UF.7 ....
....|..|R-- .... ....|R-- .... ....|R-- .... ....
....|..|B-1 2F.A ....|B-3 3F6A ....|C#5 UF.A ....
....|..|--- .... ....|R-- .... ....|R-- .... ....
....|..|A-1 2F.7 ....|B-3 3F6F ....|B-4 UF.F ....
....|..|R-- .... ....|R-- .... ....|--- .... ....
....|..|R-- .... ....|B-3 3F6A ....|R-- .... ....
....|..|--- .... ....|R-- .... ....|R-- .... ....
 B-3|..|B-1 2A.F ....|B-3 3F6F ....|G#4 UF.F ....
....|..|--- .... ....|R-- .... ....|--- .... ....
....|..|R-- .... ....|B-3 3F6A ....|B-4 UF.A ....
....|..|R-- .... ....|R-- .... ....|--- .... ....

[Pattern11]
 G#3|..|G#1 2A.F ....|C#4 3F7F ....|R-- .... ....
....|..|--- .... ....|R-- .... ....|R-- .... ....
....|..|B-1 2F.A ....|B-3 3F6A ....|G#4 UF.A ....
....|..|--- .... ....|R-- .... ....|--- .... ....
....|..|R-- .... ....|C#4 3F7F ....|B-4 UF.7 ....
....|..|R-- .... ....|R-- .... ....|--- .... ....
....|..|G#1 2F.A ....|C#4 3F7A ....|R-- .... ....
....|..|--- .... ....|R-- .... ....|--- .... ....
....|..|B-1 2F.7 ....|C#4 3F7F ....|G#4 UF.7 ....
....|..|--- .... ....|R-- .... ....|--- .... ....
....|..|R-- .... ....|C#4 3F7A ....|--- .... ....
....|..|--- .... ....|R-- .... ....|--- .... ....
 G#3|..|G#1 2A.F ....|C#4 3F7F ....|--- .... ....
....|..|R-- .... ....|R-- .... ....|--- .... ....
....|..|R-- .... ....|C#4 3F7A ....|--- .... ....
....|..|--- .... ....|R-- .... ....|--- .... ....
 G#3|..|G#1 2A.F ....|C#4 3F7F ....|--- .... ....
....|..|--- .... ....|R-- .... ....|--- .... ....
....|..|G#1 2F.A ....|C#4 3F7A ....|--- .... ....
....|..|R-- .... ....|R-- .... ....|--- .... ....
 G#3|..|G#1 2A.F ....|C#4 3F7F ....|--- .... ....
....|..|--- .... ....|R-- .... ....|--- .... ....
....|..|G#1 2F.A ....|C#4 3F7A ....|--- .... ....
....|..|--- .... ....|R-- .... ....|--- .... ....
....|..|G#1 2F.7 ....|C#4 3F7F ....|--- .... ....
....|..|R-- .... ....|R-- .... ....|--- .... ....
....|..|G#1 2F.A ....|C#4 3F7A ....|--- .... ....
....|..|--- .... ....|R-- .... ....|--- .... ....
 G#3|..|G#1 2A.F ....|C#4 3F7F ....|--- .... ....
....|..|R-- .... ....|R-- .... ....|--- .... ....
....|..|R-- .... ....|C#4 3F7A ....|--- .... ....
....|..|--- .... ....|R-- .... ....|R-- .... ....
 G#3|..|G#1 2A.F ....|C-4 3F8F ....|--- .... ....
....|..|--- .... ....|R-- .... ....|--- .... ....
....|..|G#1 2F.A ....|C#4 3F7A ....|--- .... ....
....|..|R-- .... ....|R-- .... ....|--- .... ....
....|..|--- .... ....|C-4 3F8F ....|G#5 UF.F ....
....|..|--- .... ....|R-- .... ....|R-- .... ....
....|..|G#1 2F.A ....|C-4 3F8A ....|--- .... ....
....|..|--- .... ....|R-- .... ....|--- .... ....
....|..|G#1 2F.7 ....|C-4 3F8F ....|--- .... ....
....|..|R-- .... ....|R-- .... ....|--- .... ....
....|..|--- .... ....|C-4 3F8A ....|G#5 UF.A ....
....|..|--- .... ....|R-- .... ....|R-- .... ....
 G#3|..|G#1 2A.F ....|C-4 3F8F ....|G#5 UF.F ....
....|..|R-- .... ....|R-- .... ....|R-- .... ....
....|..|R-- .... ....|C-4 3F8A ....|--- .... ....
....|..|--- .... ....|R-- .... ....|--- .... ....
 A-3|..|A-1 2A.F ....|A-3 3F6F ....|G#5 UF.F ....
....|..|--- .... ....|R-- .... ....|R-- .... ....
....|..|G#1 2F.A ....|C-4 3F8A ....|G#5 UF.A ....
....|..|R-- .... ....|R-- .... ....|R-- .... ....
....|..|R-- .... ....|A-3 3F6F ....|R-- .... ....
....|..|--- .... ....|R-- .... ....|F#5 UF.F ....
....|..|A-1 2F.A ....|A-3 3F6A ....|G#5 UF.A ....
....|..|--- .... ....|R-- .... ....|R-- .... ....
....|..|G#1 2F.7 ....|A-3 3F6F ....|G#5 UF.7 ....
....|..|R-- .... ....|R-- .... ....|E-5 UF.F ....
....|..|--- .... ....|A-3 3F6A ....|R-- .... ....
....|..|--- .... ....|R-- .... ....|F#5 UF.A ....
 A-3|..|A-1 2A.F ....|A-3 3F6F ....|C#5 UF.F ....
....|..|--- .... ....|R-- .... ....|--- .... ....
....|..|R-- .... ....|A-3 3F6A ....|R-- .... ....
....|..|R-- .... ....|R-- .... ....|E-5 UF.A ....

[Pattern12]
 E-4|..|E-2 2A.F ....|G#3 3F9F ....|E-5 UF.F ....
....|..|--- .... ....|R-- .... ....|F#5 UF.7 ....
....|..|A-1 2F.A ....|A-3 3F6A ....|C#5 UF.A ....
....|..|--- .... ....|R-- .... ....|--- .... ....
....|..|R-- .... ....|G#3 3F9F ....|R-- .... ....
....|..|R-- .... ....|R-- .... ....|E-5 UF.7 ....
....|..|E-2 2F.A ....|G#3 3F9A ....|E-5 UF.A ....
....|..|--- .... ....|R-- .... ....|--- .... ....
....|..|A-1 2F.7 ....|G#3 3F9F ....|C#5 UF.7 ....
....|..|--- .... ....|R-- .... ....|--- .... ....
....|..|R-- .... ....|G#3 3F9A ....|--- .... ....
....|..|--- .... ....|R-- .... ....|--- .... ....
 E-4|..|E-2 2A.F ....|G#3 3F9F ....|E-5 UF.7 ....
....|..|--- .... ....|R-- .... ....|--- .... ....
....|..|R-- .... ....|G#3 3F9A ....|--- .... ....
....|..|--- .... ....|R-- .... ....|--- .... ....
 G#3|..|G#1 2A.F ....|C-4 3F8F ....|--- .... ....
....|..|--- .... ....|R-- .... ....|--- .... ....
....|..|E-2 2F.A ....|G#3 3F9A ....|R-- .... ....
....|..|--- .... ....|R-- .... ....|--- .... ....
....|..|R-- .... ....|C-4 3F8F ....|--- .... ....
....|..|--- .... ....|R-- .... ....|--- .... ....
....|..|G#1 2F.A ....|C-4 3F8A ....|--- .... ....
....|..|--- .... ....|R-- .... ....|--- .... ....
....|..|E-2 2F.7 ....|C-4 3F8F ....|R-- .... ....
....|..|R-- .... ....|R-- .... ....|--- .... ....
....|..|R-- .... ....|C-4 3F8A ....|--- .... ....
....|..|--- .... ....|R-- .... ....|--- .... ....
 G#3|..|G#1 2A.F ....|C-4 3F8F ....|--- .... ....
....|..|--- .... ....|R-- .... ....|--- .... ....
....|..|R-- .... ....|C-4 3F8A ....|--- .... ....
....|..|R-- .... ....|R-- .... ....|--- .... ....
 C#4|..|C#2 2A.F ....|G#3 3F5F ....|--- .... ....
....|..|--- .... ....|R-- .... ....|--- .... ....
....|..|G#1 2F.A ....|C-4 3F8A ....|--- .... ....
....|..|--- .... ....|R-- .... ....|--- .... ....
....|..|R-- .... ....|G#3 3F5F ....|E-5 UF.F ....
....|..|R-- .... ....|R-- .... ....|--- .... ....
....|..|C#2 2F.A ....|G#3 3F5A ....|R-- .... ....
....|..|--- .... ....|R-- .... ....|--- .... ....
....|..|G#1 2F.7 ....|G#3 3F5F ....|E-5 UF.F ....
....|..|R-- .... ....|R-- .... ....|--- .... ....
....|..|R-- .... ....|G#3 3F5A ....|E-5 UF.A ....
....|..|--- .... ....|R-- .... ....|R-- .... ....
 C#4|..|C#2 2A.F ....|G#3 3F5F ....|C#5 UF.F ....
....|..|R-- .... ....|R-- .... ....|R-- .... ....
....|..|--- .... ....|G#3 3F5A ....|E-5 UF.A ....
....|..|R-- .... ....|R-- .... ....|--- .... ....
 A-3|..|A-1 2A.F ....|A-3 3F6F ....|E-5 UF.F ....
....|..|--- .... ....|R-- .... ....|R-- .... ....
....|..|C#2 2F.A ....|G#3 3F5A ....|C#5 UF.A ....
....|..|R-- .... ....|R-- .... ....|R-- .... ....
....|..|--- .... ....|A-3 3F6F ....|E-5 UF.7 ....
....|..|R-- .... ....|R-- .... ....|--- .... ....
....|..|A-1 2F.A ....|A-3 3F6A ....|E-5 UF.A ....
....|..|--- .... ....|R-- .... ....|R-- .... ....
....|..|C#2 2F.7 ....|A-3 3F6F ....|C#5 UF.7 ....
....|..|R-- .... ....|R-- .... ....|C#5 UF.F ....
....|..|--- .... ....|A-3 3F6A ....|--- .... ....
....|..|--- .... ....|R-- .... ....|R-- .... ....
 A-3|..|A-1 2A.F ....|A-3 3F6F ....|D#5 UF.F ....
....|..|R-- .... ....|R-- .... ....|--- .... ....
....|..|--- .... ....|A-3 3F6A ....|--- .... ....
....|..|R-- .... ....|R-- .... ....|C#5 UF.A ....

[Pattern13]
 G#3|..|G#1 2A.F ....|C#4 3F7F ....|--- .... ....
....|..|--- .... ....|R-- .... ....|R-- .... ....
....|..|A-1 2F.A ....|A-3 3F6A ....|D#5 UF.A ....
....|..|R-- .... ....|R-- .... ....|--- .... ....
....|..|--- .... ....|C#4 3F7F ....|--- .... ....
....|..|R-- .... ....|R-- .... ....|C#5 UF.7 ....
....|..|G#1 2F.A ....|C#4 3F7A ....|--- .... ....
....|..|--- .... ....|R-- .... ....|R-- .... ....
....|..|A-1 2F.7 ....|C#4 3F7F ....|D#5 UF.7 ....
....|..|R-- .... ....|R-- .... ....|--- .... ....
....|..|--- .... ....|C#4 3F7A ....|--- .... ....
....|..|--- .... ....|R-- .... ....|--- .... ....
 G#3|..|G#1 2A.F ....|C#4 3F7F ....|--- .... ....
....|..|R-- .... ....|R-- .... ....|--- .... ....
....|..|--- .... ....|C#4 3F7A ....|--- .... ....
....|..|R-- .... ....|R-- .... ....|--- .... ....
 G#3|..|G#1 2A.F ....|C#4 3F7F ....|--- .... ....
....|..|--- .... ....|R-- .... ....|R-- .... ....
....|..|G#1 2F.A ....|C#4 3F7A ....|--- .... ....
....|..|R-- .... ....|R-- .... ....|--- .... ....
 G#3|..|G#1 2A.F ....|C#4 3F7F ....|--- .... ....
....|..|R-- .... ....|R-- .... ....|--- .... ....
....|..|G#1 2F.A ....|C#4 3F7A ....|--- .... ....
....|..|--- .... ....|R-- .... ....|R-- .... ....
....|..|G#1 2F.7 ....|C#4 3F7F ....|--- .... ....
....|..|R-- .... ....|R-- .... ....|--- .... ....
....|..|G#1 2F.A ....|C#4 3F7A ....|--- .... ....
....|..|--- .... ....|R-- .... ....|--- .... ....
 G#3|..|G#1 2A.F ....|C#4 3F7F ....|--- .... ....
....|..|R-- .... ....|R-- .... ....|R-- .... ....
....|..|R-- .... ....|C#4 3F7A ....|--- .... ....
....|..|--- .... ....|R-- .... ....|--- .... ....
 G#3|..|G#1 2A.F ....|C-4 3F8F ....|--- .... ....
....|..|--- .... ....|R-- .... ....|--- .... ....
....|..|G#1 2F.A ....|C#4 3F7A ....|--- .... ....
....|..|R-- .... ....|R-- .... ....|--- .... ....
....|..|--- .... ....|C-4 3F8F ....|G#5 UF.F ....
....|..|--- .... ....|R-- .... ....|--- .... ....
....|..|G#1 2F.A ....|C-4 3F8A ....|--- .... ....
....|..|--- .... ....|R-- .... ....|--- .... ....
....|..|G#1 2F.7 ....|C-4 3F8F ....|R-- .... ....
....|..|R-- .... ....|R-- .... ....|G#5 UF.F ....
....|..|--- .... ....|C-4 3F8A ....|G#5 UF.A ....
....|..|--- .... ....|R-- .... ....|R-- .... ....
 G#3|..|G#1 2A.F ....|C-4 3F8F ....|G#5 UF.F ....
....|..|R-- .... ....|R-- .... ....|--- .... ....
....|..|R-- .... ....|C-4 3F8A ....|R-- .... ....
....|..|--- .... ....|R-- .... ....|G#5 UF.A ....
 G#3|..|G#1 2A.F ....|C-4 3F8F ....|G#5 UF.F ....
....|..|--- .... ....|R-- .... ....|R-- .... ....
....|..|G#1 2F.A ....|C-4 3F8A ....|G#5 UF.A ....
....|..|R-- .... ....|R-- .... ....|--- .... ....
....|..|R-- .... ....|C-4 3F8F ....|F#5 UF.F ....
....|..|--- .... ....|R-- .... ....|G#5 UF.7 ....
....|..|G#1 2F.A ....|C-4 3F8A ....|G#5 UF.A ....
....|..|--- .... ....|R-- .... ....|R-- .... ....
....|..|G#1 2F.7 ....|C-4 3F8F ....|E-5 UF.F ....
....|..|R-- .... ....|R-- .... ....|--- .... ....
....|..|--- .... ....|C-4 3F8A ....|F#5 UF.A ....
....|..|--- .... ....|--- .... ....|--- .... ....
 G#3|..|G#1 2A.F ....|C-4 3F8F ....|D#5 UF.F ....
....|..|R-- .... ....|R-- .... ....|--- .... ....
....|..|--- .... ....|C-4 3F8A ....|E-5 UF.A ....
....|..|R-- .... ....|R-- .... ....|R-- .... ....

[Pattern14]
 C#4|..|C#2 2A.F ....|G#3 3F5F ....|E-5 UF.F ....
....|..|--- .... ....|R-- .... ....|--- .... ....
....|..|G#1 2F.A ....|C-4 3F8A ....|D#5 UF.A ....
....|..|R-- .... ....|R-- .... ....|--- .... ....
....|..|--- .... ....|G#3 3F5F ....|E-5 UF.7 ....
....|..|R-- .... ....|R-- .... ....|R-- .... ....
....|..|C#2 2F.A ....|G#3 3F5A ....|E-5 UF.A ....
....|..|--- .... ....|R-- .... ....|--- .... ....
....|..|G#1 2F.7 ....|G#3 3F5F ....|D#5 UF.7 ....
....|..|R-- .... ....|R-- .... ....|--- .... ....
....|..|--- .... ....|G#3 3F5A ....|--- .... ....
....|..|--- .... ....|R-- .... ....|R-- .... ....
 C#4|..|C#2 2A.F ....|G#3 3F5F ....|E-5 UF.7 ....
....|..|R-- .... ....|R-- .... ....|--- .... ....
....|..|--- .... ....|G#3 3F5A ....|R-- .... ....
....|..|R-- .... ....|R-- .... ....|--- .... ....
 B-3|..|B-1 2A.F ....|B-3 3F6F ....|--- .... ....
....|..|--- .... ....|R-- .... ....|--- .... ....
....|..|C#2 2F.A ....|G#3 3F5A ....|--- .... ....
....|..|R-- .... ....|R-- .... ....|--- .... ....
....|..|--- .... ....|B-3 3F6F ....|R-- .... ....
....|..|R-- .... ....|R-- .... ....|--- .... ....
....|..|B-1 2F.A ....|B-3 3F6A ....|--- .... ....
....|..|--- .... ....|R-- .... ....|--- .... ....
....|..|C#2 2F.7 ....|B-3 3F6F ....|--- .... ....
....|..|R-- .... ....|R-- .... ....|--- .... ....
....|..|--- .... ....|B-3 3F6A ....|R-- .... ....
....|..|--- .... ....|R-- .... ....|--- .... ....
 B-3|..|B-1 2A.F ....|B-3 3F6F ....|--- .... ....
....|..|--- .... ....|R-- .... ....|--- .... ....
....|..|R-- .... ....|B-3 3F6A ....|--- .... ....
....|..|--- .... ....|R-- .... ....|--- .... ....
 A-3|..|A-1 2A.F ....|A-3 3F6F ....|--- .... ....
....|..|--- .... ....|R-- .... ....|--- .... ....
....|..|B-1 2F.A ....|B-3 3F6A ....|--- .... ....
....|..|--- .... ....|R-- .... ....|--- .... ....
....|..|R-- .... ....|A-3 3F6F ....|C#5 UF.F ....
....|..|--- .... ....|R-- .... ....|--- .... ....
....|..|A-1 2F.A ....|A-3 3F6A ....|R-- .... ....
....|..|--- .... ....|R-- .... ....|--- .... ....
....|..|B-1 2F.7 ....|A-3 3F6F ....|C#5 UF.F ....
....|..|--- .... ....|R-- .... ....|--- .... ....
....|..|R-- .... ....|A-3 3F6A ....|C#5 UF.A ....
....|..|--- .... ....|R-- .... ....|--- .... ....
 A-3|..|A-1 2A.F ....|A-3 3F6F ....|B-4 UF.F ....
....|..|R-- .... ....|R-- .... ....|R-- .... ....
....|..|R-- .... ....|A-3 3F6A ....|C#5 UF.A ....
....|..|--- .... ....|R-- .... ....|--- .... ....
 B-3|..|B-1 2A.F ....|B-3 3F6F ....|C#5 UF.F ....
....|..|--- .... ....|R-- .... ....|--- .... ....
....|..|A-1 2F.A ....|A-3 3F6A ....|B-4 UF.A ....
....|..|R-- .... ....|R-- .... ....|R-- .... ....
....|..|R-- .... ....|B-3 3F6F ....|C#5 UF.7 ....
....|..|--- .... ....|R-- .... ....|--- .... ....
....|..|B-1 2F.A ....|B-3 3F6A ....|C#5 UF.A ....
....|..|--- .... ....|R-- .... ....|R-- .... ....
....|..|A-1 2F.7 ....|B-3 3F6F ....|B-4 UF.F ....
....|..|R-- .... ....|R-- .... ....|R-- .... ....
....|..|--- .... ....|B-3 3F6A ....|R-- .... ....
....|..|--- .... ....|R-- .... ....|--- .... ....
 B-3|..|B-1 2A.F ....|B-3 3F6F ....|G#4 UF.F ....
....|..|R-- .... ....|R-- .... ....|R-- .... ....
....|..|--- .... ....|B-3 3F6A ....|B-4 UF.A ....
....|..|R-- .... ....|R-- .... ....|--- .... ....

[Pattern15]
 G#3|..|G#1 2A.F ....|C#4 3F7F ....|R-- .... ....
....|..|--- .... ....|R-- .... ....|--- .... ....
....|..|B-1 2F.A ....|B-3 3F6A ....|G#4 UF.A ....
....|..|R-- .... ....|R-- .... ....|R-- .... ....
....|..|--- .... ....|C#4 3F7F ....|B-4 UF.7 ....
....|..|R-- .... ....|R-- .... ....|--- .... ....
....|..|G#1 2F.A ....|C#4 3F7A ....|R-- .... ....
....|..|--- .... ....|R-- .... ....|--- .... ....
....|..|B-1 2F.7 ....|C#4 3F7F ....|G#4 UF.7 ....
....|..|R-- .... ....|R-- .... ....|--- .... ....
....|..|--- .... ....|C#4 3F7A ....|--- .... ....
....|..|--- .... ....|R-- .... ....|--- .... ....
 G#3|..|G#1 2A.F ....|C#4 3F7F ....|--- .... ....
....|..|R-- .... ....|R-- .... ....|--- .... ....
....|..|R-- .... ....|C#4 3F7A ....|--- .... ....
....|..|--- .... ....|R-- .... ....|--- .... ....
 G#3|..|G#1 2A.F ....|C#4 3F7F ....|--- .... ....
....|..|--- .... ....|R-- .... ....|--- .... ....
....|..|G#1 2F.A ....|C#4 3F7A ....|--- .... ....
....|..|R-- .... ....|R-- .... ....|--- .... ....
....|..|R-- .... ....|C#4 3F7F ....|--- .... ....
....|..|--- .... ....|R-- .... ....|--- .... ....
....|..|G#1 2F.A ....|C#4 3F7A ....|--- .... ....
....|..|--- .... ....|R-- .... ....|--- .... ....
....|..|G#1 2F.7 ....|C#4 3F7F ....|--- .... ....
....|..|R-- .... ....|R-- .... ....|--- .... ....
....|..|--- .... ....|C#4 3F7A ....|--- .... ....
....|..|--- .... ....|R-- .... ....|--- .... ....
 G#3|..|G#1 2A.F ....|C#4 3F7F ....|--- .... ....
....|..|R-- .... ....|R-- .... ....|--- .... ....
....|..|--- .... ....|C#4 3F7A ....|--- .... ....
....|..|R-- .... ....|R-- .... ....|R-- .... ....
 G#3|..|G#1 2A.F ....|C-4 3F8F ....|--- .... ....
....|..|--- .... ....|R-- .... ....|--- .... ....
....|..|G#1 2F.A ....|C#4 3F7A ....|--- .... ....
....|..|R-- .... ....|R-- .... ....|--- .... ....
....|..|--- .... ....|C-4 3F8F ....|--- .... ....
....|..|R-- .... ....|R-- .... ....|R-- .... ....
....|..|G#1 2F.A ....|C-4 3F8A ....|--- .... ....
....|..|--- .... ....|R-- .... ....|--- .... ....
....|..|G#1 2F.7 ....|C-4 3F8F ....|--- .... ....
....|..|R-- .... ....|R-- .... ....|--- .... ....
....|..|--- .... ....|C-4 3F8A ....|--- .... ....
....|..|--- .... ....|R-- .... ....|R-- .... ....
 G#3|..|G#1 2A.F ....|C-4 3F8F ....|G#5 UF.F ....
....|..|R-- .... ....|R-- .... ....|--- .... ....
....|..|--- .... ....|C-4 3F8A ....|--- .... ....
....|..|R-- .... ....|R-- .... ....|--- .... ....
 G#3|..|G#1 2A.F ....|C-4 3F8F ....|--- .... ....
....|..|--- .... ....|R-- .... ....|--- .... ....
....|..|G#1 2F.A ....|C-4 3F8A ....|G#5 UF.A ....
....|..|R-- .... ....|R-- .... ....|--- .... ....
 C-4|..|C-2 2A.F ....|C-4 3F8F ....|F#5 UF.F ....
....|..|R-- .... ....|R-- .... ....|--- .... ....
....|..|G#1 2F.A ....|C-4 3F8A ....|--- .... ....
....|..|--- .... ....|R-- .... ....|--- .... ....
 D#4|..|D#2 2A.F ....|C-4 3F8F ....|E-5 UF.F ....
....|..|R-- .... ....|R-- .... ....|--- .... ....
....|..|C-2 2F.A ....|C-4 3F8A ....|F#5 UF.A ....
....|..|R-- .... ....|R-- .... ....|--- .... ....
 F#4|..|F#2 2A.F ....|C-4 3F8F ....|D#5 UF.F ....
....|..|--- .... ....|R-- .... ....|--- .... ....
....|..|D#2 2F.A ....|C-4 3F8A ....|E-5 UF.A ....
....|..|R-- .... ....|R-- .... ....|--- .... ....

[Pattern16]
 C#4|..|C#2 2A.F ....|G#3 3F5F ....|E-5 UF.F ....
....|..|R-- .... ....|R-- .... ....|--- .... ....
....|..|F#2 2F.A ....|C-4 3F8A ....|D#5 UF.A ....
....|..|--- .... ....|R-- .... ....|--- .... ....
 C#4|..|C#2 2A.F ....|G#3 3F5F ....|E-5 UF.7 ....
....|..|--- .... ....|R-- .... ....|--- .... ....
....|..|C#2 2F.A ....|G#3 3F5A ....|E-5 UF.A ....
....|..|R-- .... ....|R-- .... ....|--- .... ....
 C#4|..|C#2 2A.F ....|G#3 3F5F ....|D#5 UF.7 ....
....|..|--- .... ....|R-- .... ....|--- .... ....
....|..|C#2 2F.A ....|G#3 3F5A ....|--- .... ....
....|..|--- .... ....|R-- .... ....|--- .... ....
 C#4|..|C#2 2A.F ....|G#3 3F5F ....|E-5 UF.7 ....
....|..|--- .... ....|R-- .... ....|--- .... ....
....|..|C#2 2F.A ....|G#3 3F5A ....|--- .... ....
....|..|R-- .... ....|R-- .... ....|--- .... ....
 B-3|..|B-1 2A.F ....|B-3 3F6F ....|--- .... ....
....|..|--- .... ....|R-- .... ....|--- .... ....
....|..|C#2 2F.A ....|G#3 3F5A ....|--- .... ....
....|..|--- .... ....|R-- .... ....|--- .... ....
 B-3|..|B-1 2A.F ....|B-3 3F6F ....|--- .... ....
....|..|R-- .... ....|R-- .... ....|--- .... ....
....|..|B-1 2F.A ....|B-3 3F6A ....|--- .... ....
....|..|--- .... ....|R-- .... ....|--- .... ....
 B-3|..|B-1 2A.F ....|B-3 3F6F ....|--- .... ....
....|..|--- .... ....|R-- .... ....|--- .... ....
....|..|B-1 2F.A ....|B-3 3F6A ....|--- .... ....
....|..|R-- .... ....|R-- .... ....|--- .... ....
 B-3|..|B-1 2A.F ....|B-3 3F6F ....|--- .... ....
....|..|--- .... ....|R-- .... ....|--- .... ....
....|..|B-1 2F.A ....|B-3 3F6A ....|--- .... ....
....|..|R-- .... ....|R-- .... ....|--- .... ....
 A-3|..|A-1 2A.F ....|A-3 3F6F ....|C#5 UF.F ....
....|..|--- .... ....|R-- .... ....|--- .... ....
....|..|B-1 2F.A ....|B-3 3F6A ....|--- .... ....
....|..|--- .... ....|R-- .... ....|--- .... ....
 A-3|..|A-1 2A.F ....|A-3 3F6F ....|--- .... ....
....|..|R-- .... ....|R-- .... ....|--- .... ....
....|..|A-1 2F.A ....|A-3 3F6A ....|C#5 UF.A ....
....|..|--- .... ....|R-- .... ....|--- .... ....
 A-3|..|A-1 2A.F ....|A-3 3F6F ....|--- .... ....
....|..|--- .... ....|R-- .... ....|--- .... ....
....|..|A-1 2F.A ....|A-3 3F6A ....|--- .... ....
....|..|R-- .... ....|R-- .... ....|--- .... ....
 A-3|..|A-1 2A.F ....|A-3 3F6F ....|E-5 UF.F ....
....|..|--- .... ....|R-- .... ....|--- .... ....
....|..|A-1 2F.A ....|A-3 3F6A ....|R-- .... ....
....|..|R-- .... ....|R-- .... ....|--- .... ....
 B-3|..|B-1 2A.F ....|B-3 3F6F ....|F#5 UF.F ....
....|..|--- .... ....|R-- .... ....|--- .... ....
....|..|A-1 2F.A ....|A-3 3F6A ....|E-5 UF.A ....
....|..|--- .... ....|R-- .... ....|R-- .... ....
 B-3|..|B-1 2A.F ....|B-3 3F6F ....|E-5 UF.F ....
....|..|R-- .... ....|R-- .... ....|--- .... ....
....|..|B-1 2F.A ....|B-3 3F6A ....|F#5 UF.A ....
....|..|--- .... ....|R-- .... ....|--- .... ....
 B-3|..|B-1 2A.F ....|B-3 3F6F ....|F#5 UF.F ....
....|..|--- .... ....|R-- .... ....|R-- .... ....
....|..|B-1 2F.A ....|B-3 3F6A ....|E-5 UF.A ....
....|..|R-- .... ....|R-- .... ....|R-- .... ....
 B-3|..|B-1 2A.F ....|B-3 3F6F ....|E-5 UF.F ....
....|..|--- .... ....|R-- .... ....|--- .... ....
....|..|B-1 2F.A ....|B-3 3F6A ....|F#5 UF.A ....
....|..|R-- .... ....|R-- .... ....|R-- .... ....

[Pattern17]
 G#3|..|G#1 2A.F ....|C#4 3F7F ....|D#5 UF.F ....
....|..|--- .... ....|R-- .... ....|R-- .... ....
....|..|B-1 2F.A ....|B-3 3F6A ....|E-5 UF.A ....
....|..|--- .... ....|R-- .... ....|--- .... ....
 G#3|..|G#1 2A.F ....|C#4 3F7F ....|F#5 UF.7 ....
....|..|R-- .... ....|R-- .... ....|--- .... ....
....|..|G#1 2F.A ....|C#4 3F7A ....|D#5 UF.A ....
....|..|--- .... ....|R-- .... ....|R-- .... ....
 G#3|..|G#1 2A.F ....|C#4 3F7F ....|E-5 UF.7 ....
....|..|--- .... ....|R-- .... ....|--- .... ....
....|..|G#1 2F.A ....|C#4 3F7A ....|R-- .... ....
....|..|R-- .... ....|R-- .... ....|--- .... ....
 G#3|..|G#1 2A.F ....|C#4 3F7F ....|D#5 UF.7 ....
....|..|--- .... ....|R-- .... ....|--- .... ....
....|..|G#1 2F.A ....|C#4 3F7A ....|--- .... ....
....|..|--- .... ....|R-- .... ....|--- .... ....
 G#3|..|G#1 2A.F ....|C#4 3F7F ....|--- .... ....
....|..|--- .... ....|R-- .... ....|--- .... ....
....|..|G#1 2F.A ....|C#4 3F7A ....|--- .... ....
....|..|--- .... ....|R-- .... ....|--- .... ....
 G#3|..|G#1 2A.F ....|C#4 3F7F ....|--- .... ....
....|..|--- .... ....|R-- .... ....|--- .... ....
....|..|G#1 2F.A ....|C#4 3F7A ....|--- .... ....
....|..|--- .... ....|R-- .... ....|--- .... ....
 G#3|..|G#1 2A.F ....|C#4 3F7F ....|--- .... ....
....|..|--- .... ....|R-- .... ....|--- .... ....
....|..|G#1 2F.A ....|C#4 3F7A ....|--- .... ....
....|..|--- .... ....|R-- .... ....|--- .... ....
 G#3|..|G#1 2A.F ....|C#4 3F7F ....|--- .... ....
....|..|--- .... ....|R-- .... ....|--- .... ....
....|..|G#1 2F.A ....|C#4 3F7A ....|--- .... ....
....|..|--- .... ....|R-- .... ....|--- .... ....
 G#3|..|G#1 2A.F ....|C-4 3F8F ....|--- .... ....
....|..|--- .... ....|R-- .... ....|R-- .... ....
....|..|G#1 2F.A ....|C#4 3F7A ....|--- .... ....
....|..|--- .... ....|R-- .... ....|--- .... ....
 G#3|..|G#1 2A.F ....|C-4 3F8F ....|--- .... ....
....|..|--- .... ....|R-- .... ....|--- .... ....
....|..|G#1 2F.A ....|C-4 3F8A ....|--- .... ....
....|..|--- .... ....|R-- .... ....|R-- .... ....
 G#3|..|G#1 2A.F ....|C-4 3F8F ....|--- .... ....
....|..|--- .... ....|R-- .... ....|--- .... ....
....|..|G#1 2F.A ....|C-4 3F8A ....|--- .... ....
....|..|--- .... ....|R-- .... ....|--- .... ....
 G#3|..|G#1 2A.F ....|C-4 3F8F ....|--- .... ....
....|..|--- .... ....|R-- .... ....|R-- .... ....
....|..|G#1 2F.A ....|C-4 3F8A ....|--- .... ....
....|..|--- .... ....|R-- .... ....|--- .... ....
 G#3|..|G#1 2A.F ....|C-4 3F8F ....|--- .... ....
....|..|--- .... ....|R-- .... ....|--- .... ....
....|..|G#1 2F.A ....|C-4 3F8A ....|--- .... ....
....|..|--- .... ....|R-- .... ....|--- .... ....
 G#3|..|G#1 2A.F ....|C-4 3F8F ....|--- .... ....
....|..|--- .... ....|R-- .... ....|--- .... ....
....|..|G#1 2F.A ....|C-4 3F8A ....|--- .... ....
....|..|--- .... ....|R-- .... ....|--- .... ....
 G#3|..|G#1 2A.F ....|C-4 3F8F ....|--- .... ....
....|..|--- .... ....|R-- .... ....|--- .... ....
....|..|G#1 2F.A ....|C-4 3F8A ....|--- .... ....
....|..|--- .... ....|--- .... ....|--- .... ....
 G#3|..|G#1 2A.F ....|C-4 3F8F ....|--- .... ....
....|..|--- .... ....|R-- .... ....|--- .... ....
....|..|G#1 2F.A ....|C-4 3F8A ....|--- .... ....
....|..|R-- .... ....|R-- .... ....|--- .... ....

[Pattern18]
 C#4|..|C#2 2A.F ....|G#3 3F5F ....|E-4 UF.F ....
....|..|--- .... ....|R-- .... ....|--- .... ....
....|..|G#1 2F.A ....|C-4 3F8A ....|--- .... ....
....|..|--- .... ....|R-- .... ....|--- .... ....
 C#4|..|C#2 2A.F ....|G#3 3F5F ....|--- .... ....
....|..|R-- .... ....|R-- .... ....|--- .... ....
....|..|C#2 2F.A ....|G#3 3F5A ....|E-4 UF.A ....
....|..|--- .... ....|R-- .... ....|--- .... ....
 C#4|..|C#2 2A.F ....|G#3 3F5F ....|--- .... ....
....|..|--- .... ....|R-- .... ....|R-- .... ....
....|..|C#2 2F.A ....|G#3 3F5A ....|--- .... ....
....|..|R-- .... ....|R-- .... ....|--- .... ....
 C#4|..|C#2 2A.F ....|G#3 3F5F ....|E-4 UF.F ....
....|..|--- .... ....|R-- .... ....|--- .... ....
....|..|C#2 2F.A ....|G#3 3F5A ....|--- .... ....
....|..|--- .... ....|R-- .... ....|R-- .... ....
 C#4|..|C#2 2A.F ....|G#3 3F5F ....|--- .... ....
....|..|--- .... ....|R-- .... ....|--- .... ....
....|..|C#2 2F.A ....|G#3 3F5A ....|E-4 UF.A ....
....|..|--- .... ....|R-- .... ....|--- .... ....
 C#4|..|C#2 2A.F ....|G#3 3F5F ....|--- .... ....
....|..|--- .... ....|R-- .... ....|R-- .... ....
....|..|C#2 2F.A ....|G#3 3F5A ....|--- .... ....
....|..|--- .... ....|R-- .... ....|--- .... ....
 C#4|..|C#2 2A.F ....|G#3 3F5F ....|E-4 UF.7 ....
....|..|--- .... ....|R-- .... ....|--- .... ....
....|..|C#2 2F.A ....|G#3 3F5A ....|--- .... ....
....|..|R-- .... ....|R-- .... ....|--- .... ....
 G#3|..|G#1 2A.F ....|G#3 3F5F ....|--- .... ....
....|..|--- .... ....|R-- .... ....|--- .... ....
....|..|C#2 2F.A ....|G#3 3F5A ....|--- .... ....
....|..|--- .... ....|R-- .... ....|--- .... ....
 C#4|..|C#2 2A.F ....|G#3 3F5F ....|--- .... ....
....|..|R-- .... ....|R-- .... ....|--- .... ....
....|..|G#1 2F.A ....|G#3 3F5A ....|--- .... ....
....|..|--- .... ....|R-- .... ....|--- .... ....
 C#4|..|C#2 2A.F ....|G#3 3F5F ....|--- .... ....
....|..|--- .... ....|R-- .... ....|--- .... ....
....|..|C#2 2F.A ....|G#3 3F5A ....|--- .... ....
....|..|R-- .... ....|R-- .... ....|E-4 UF.F ....
 C#4|..|C#2 2A.F ....|G#3 3F5F ....|--- .... ....
....|..|--- .... ....|R-- .... ....|--- .... ....
....|..|C#2 2F.A ....|G#3 3F5A ....|--- .... ....
....|..|--- .... ....|R-- .... ....|--- .... ....
 C#4|..|C#2 2A.F ....|G#3 3F5F ....|E-4 UF.F ....
....|..|--- .... ....|R-- .... ....|E-4 UF.A ....
....|..|C#2 2F.A ....|G#3 3F5A ....|--- .... ....
....|..|--- .... ....|R-- .... ....|--- .... ....
 C#4|..|C#2 2A.F ....|G#3 3F5F ....|F#4 UF.F ....
....|..|--- .... ....|R-- .... ....|--- .... ....
....|..|C#2 2F.A ....|G#3 3F5A ....|E-4 UF.A ....
....|..|--- .... ....|R-- .... ....|E-4 UF.7 ....
 C#4|..|C#2 2A.F ....|G#3 3F5F ....|--- .... ....
....|..|--- .... ....|R-- .... ....|--- .... ....
....|..|C#2 2F.A ....|G#3 3F5A ....|F#4 UF.A ....
....|..|--- .... ....|R-- .... ....|--- .... ....
 C#4|..|C#2 2A.F ....|G#3 3F5F ....|E-4 UF.7 ....
....|..|--- .... ....|R-- .... ....|--- .... ....
....|..|C#2 2F.A ....|G#3 3F5A ....|--- .... ....
....|..|R-- .... ....|R-- .... ....|--- .... ....
 G#3|..|G#1 2A.F ....|G#3 3F5F ....|E-4 UF.F ....
....|..|--- .... ....|R-- .... ....|--- .... ....
....|..|C#2 2F.A ....|G#3 3F5A ....|E-4 UF.F ....
....|..|--- .... ....|R-- .... ....|--- .... ....

[Pattern19]
 C#4|..|C#2 2A.F ....|G#3 3F5F ....|E-4 UF.F ....
....|..|R-- .... ....|R-- .... ....|--- .... ....
....|..|G#1 2F.A ....|G#3 3F5A ....|E-4 UF.A ....
....|..|--- .... ....|R-- .... ....|--- .... ....
 C#4|..|C#2 2A.F ....|G#3 3F5F ....|E-4 UF.A ....
....|..|--- .... ....|R-- .... ....|--- .... ....
....|..|C#2 2F.A ....|G#3 3F5A ....|E-4 UF.A ....
....|..|R-- .... ....|R-- .... ....|--- .... ....
 C#4|..|C#2 2A.F ....|G#3 3F5F ....|E-4 UF.7 ....
....|..|--- .... ....|R-- .... ....|--- .... ....
....|..|C#2 2F.A ....|G#3 3F5A ....|E-4 UF.7 ....
....|..|--- .... ....|R-- .... ....|--- .... ....
 C#4|..|C#2 2A.F ....|G#3 3F5F ....|E-4 UF.7 ....
....|..|--- .... ....|R-- .... ....|--- .... ....
....|..|C#2 2F.A ....|G#3 3F5A ....|--- .... ....
....|..|--- .... ....|R-- .... ....|--- .... ....
 C#4|..|C#2 2A.F ....|G#3 3F5F ....|--- .... ....
....|..|--- .... ....|R-- .... ....|--- .... ....
....|..|C#2 2F.A ....|G#3 3F5A ....|--- .... ....
....|..|--- .... ....|R-- .... ....|--- .... ....
 C#4|..|C#2 2A.F ....|G#3 3F5F ....|--- .... ....
....|..|--- .... ....|R-- .... ....|--- .... ....
....|..|C#2 2F.A ....|G#3 3F5A ....|--- .... ....
....|..|--- .... ....|R-- .... ....|--- .... ....
 C#4|..|C#2 2A.F ....|G#3 3F5F ....|--- .... ....
....|..|--- .... ....|R-- .... ....|--- .... ....
....|..|C#2 2F.A ....|G#3 3F5A ....|--- .... ....
....|..|--- .... ....|R-- .... ....|--- .... ....
 C#4|..|C#2 2A.F ....|G#3 3F5F ....|--- .... ....
....|..|--- .... ....|R-- .... ....|--- .... ....
....|..|C#2 2F.A ....|G#3 3F5A ....|--- .... ....
....|..|--- .... ....|R-- .... ....|--- .... ....
 C#4|..|C#2 2A.F ....|G#3 3F5F ....|--- .... ....
....|..|--- .... ....|R-- .... ....|--- .... ....
....|..|C#2 2F.A ....|G#3 3F5A ....|--- .... ....
....|..|--- .... ....|R-- .... ....|--- .... ....
 C#4|..|C#2 2A.F ....|G#3 3F5F ....|--- .... ....
....|..|--- .... ....|R-- .... ....|--- .... ....
....|..|C#2 2F.A ....|G#3 3F5A ....|--- .... ....
....|..|--- .... ....|R-- .... ....|--- .... ....
 C#4|..|C#2 2A.F ....|G#3 3F5F ....|E-4 UF.F ....
....|..|--- .... ....|R-- .... ....|--- .... ....
....|..|C#2 2F.A ....|G#3 3F5A ....|--- .... ....
....|..|--- .... ....|R-- .... ....|--- .... ....
 C#4|..|C#2 2A.F ....|G#3 3F5F ....|E-4 UF.F ....
....|..|--- .... ....|R-- .... ....|--- .... ....
....|..|C#2 2F.A ....|G#3 3F5A ....|E-4 UF.A ....
....|..|R-- .... ....|R-- .... ....|R-- .... ....
 A-3|..|A-1 2A.F ....|A-3 3F6F ....|F#4 UF.F ....
....|..|--- .... ....|R-- .... ....|--- .... ....
....|..|C#2 2F.A ....|G#3 3F5A ....|E-4 UF.A ....
....|..|--- .... ....|R-- .... ....|--- .... ....
 A-3|..|A-1 2A.F ....|A-3 3F6F ....|E-4 UF.7 ....
....|..|R-- .... ....|R-- .... ....|R-- .... ....
....|..|A-1 2F.A ....|A-3 3F6A ....|F#4 UF.A ....
....|..|--- .... ....|R-- .... ....|R-- .... ....
 A-3|..|A-1 2A.F ....|A-3 3F6F ....|E-4 UF.F ....
....|..|--- .... ....|R-- .... ....|--- .... ....
....|..|A-1 2F.A ....|A-3 3F6A ....|--- .... ....
....|..|R-- .... ....|R-- .... ....|R-- .... ....
 A-3|..|A-1 2A.F ....|A-3 3F6F ....|C#4 UF.F ....
....|..|--- .... ....|R-- .... ....|R-- .... ....
....|..|A-1 2F.A ....|A-3 3F6A ....|E-4 UF.A ....
....|..|R-- .... ....|R-- .... ....|--- .... ....

[Pattern20]
 E-4|..|E-2 2A.F ....|G#3 3F9F ....|B-3 UF.F ....
....|..|--- .... ....|R-- .... ....|--- .... ....
....|..|A-1 2F.A ....|A-3 3F6A ....|C#4 UF.A ....
....|..|--- .... ....|R-- .... ....|R-- .... ....
 E-4|..|E-2 2A.F ....|G#3 3F9F ....|E-4 UF.7 ....
....|..|R-- .... ....|R-- .... ....|--- .... ....
....|..|E-2 2F.A ....|G#3 3F9A ....|B-3 UF.A ....
....|..|--- .... ....|R-- .... ....|--- .... ....
 E-4|..|E-2 2A.F ....|G#3 3F9F ....|C#4 UF.7 ....
....|..|--- .... ....|R-- .... ....|--- .... ....
....|..|E-2 2F.A ....|G#3 3F9A ....|--- .... ....
....|..|R-- .... ....|--- .... ....|--- .... ....
 E-4|..|E-2 2A.F ....|G#3 3F9F ....|B-3 UF.7 ....
....|..|--- .... ....|R-- .... ....|--- .... ....
....|..|E-2 2F.A ....|G#3 3F9A ....|--- .... ....
....|..|--- .... ....|R-- .... ....|--- .... ....
 G#3|..|G#1 2A.F ....|C-4 3F8F ....|C-4 UF.F ....
....|..|--- .... ....|R-- .... ....|--- .... ....
....|..|E-2 2F.A ....|G#3 3F9A ....|--- .... ....
....|..|--- .... ....|R-- .... ....|--- .... ....
 G#3|..|G#1 2A.F ....|C-4 3F8F ....|--- .... ....
....|..|--- .... ....|R-- .... ....|--- .... ....
....|..|G#1 2F.A ....|C-4 3F8A ....|C-4 UF.A ....
....|..|--- .... ....|R-- .... ....|--- .... ....
 G#3|..|G#1 2A.F ....|C-4 3F8F ....|--- .... ....
....|..|--- .... ....|R-- .... ....|--- .... ....
....|..|G#1 2F.A ....|C-4 3F8A ....|--- .... ....
....|..|--- .... ....|R-- .... ....|--- .... ....
 G#3|..|G#1 2A.F ....|C-4 3F8F ....|C-4 UF.7 ....
....|..|--- .... ....|R-- .... ....|--- .... ....
....|..|G#1 2F.A ....|C-4 3F8A ....|--- .... ....
....|..|--- .... ....|R-- .... ....|--- .... ....
 C#4|..|C#2 2A.F ....|G#3 3F5F ....|C#4 UF.F ....
....|..|--- .... ....|R-- .... ....|--- .... ....
....|..|G#1 2F.A ....|C-4 3F8A ....|--- .... ....
....|..|--- .... ....|R-- .... ....|--- .... ....
 C#4|..|C#2 2A.F ....|G#3 3F5F ....|--- .... ....
....|..|--- .... ....|R-- .... ....|--- .... ....
....|..|C#2 2F.A ....|G#3 3F5A ....|C#4 UF.A ....
....|..|--- .... ....|R-- .... ....|--- .... ....
 C#4|..|C#2 2A.F ....|G#3 3F5F ....|--- .... ....
....|..|--- .... ....|R-- .... ....|--- .... ....
....|..|C#2 2F.A ....|G#3 3F5A ....|--- .... ....
....|..|--- .... ....|R-- .... ....|--- .... ....
 C#4|..|C#2 2A.F ....|G#3 3F5F ....|C#4 UF.7 ....
....|..|--- .... ....|R-- .... ....|--- .... ....
....|..|C#2 2F.A ....|G#3 3F5A ....|--- .... ....
....|..|--- .... ....|R-- .... ....|R-- .... ....
 A-3|..|A-1 2A.F ....|A-3 3F6F ....|A-4 UF.F ....
....|..|--- .... ....|R-- .... ....|--- .... ....
....|..|C#2 2F.A ....|G#3 3F5A ....|--- .... ....
....|..|--- .... ....|R-- .... ....|--- .... ....
 A-3|..|A-1 2A.F ....|A-3 3F6F ....|--- .... ....
....|..|--- .... ....|R-- .... ....|R-- .... ....
....|..|A-1 2F.A ....|A-3 3F6A ....|A-4 UF.A ....
....|..|--- .... ....|R-- .... ....|--- .... ....
 A-3|..|A-1 2A.F ....|A-3 3F6F ....|--- .... ....
....|..|--- .... ....|R-- .... ....|--- .... ....
....|..|A-1 2F.A ....|A-3 3F6A ....|--- .... ....
....|..|--- .... ....|R-- .... ....|R-- .... ....
 A-3|..|A-1 2A.F ....|A-3 3F6F ....|A-4 UF.7 ....
....|..|--- .... ....|R-- .... ....|--- .... ....
....|..|A-1 2F.A ....|A-3 3F6A ....|R-- .... ....
....|..|--- .... ....|R-- .... ....|--- .... ....

[Pattern21]
 G#3|..|G#1 2A.F ....|C#4 3F7F ....|A-4 UF.F ....
....|..|--- .... ....|R-- .... ....|--- .... ....
....|..|A-1 2F.A ....|A-3 3F6A ....|--- .... ....
....|..|--- .... ....|R-- .... ....|--- .... ....
....|..|A-1 2F.7 ....|C#4 3F7F ....|G#4 UF.F ....
....|..|R-- .... ....|R-- .... ....|--- .... ....
 G#3|..|G#1 2A.F ....|C#4 3F7A ....|A-4 UF.A ....
....|..|R-- .... ....|R-- .... ....|--- .... ....
 G#3|..|G#1 2A.F ....|C#4 3F7F ....|--- .... ....
....|..|--- .... ....|R-- .... ....|R-- .... ....
....|..|R-- .... ....|C#4 3F7A ....|G#4 UF.A ....
....|..|R-- .... ....|R-- .... ....|--- .... ....
 G#3|..|G#1 2A.F ....|C#4 3F7F ....|G#4 UF.F ....
....|..|R-- .... ....|R-- .... ....|--- .... ....
....|..|G#1 2F.A ....|C#4 3F7A ....|--- .... ....
....|..|--- .... ....|R-- .... ....|R-- .... ....
....|..|R-- .... ....|C#4 3F77 ....|G#4 UF.7 ....
....|..|R-- .... ....|R-- .... ....|--- .... ....
....|..|G#1 2F.7 ....|C#4 3F7A ....|G#4 UF.A ....
....|..|R-- .... ....|R-- .... ....|--- .... ....
 G#3|..|G#1 2A.F ....|C#4 3F7F ....|--- .... ....
....|..|--- .... ....|R-- .... ....|R-- .... ....
....|..|R-- .... ....|--- .... ....|--- .... ....
....|..|--- .... ....|--- .... ....|--- .... ....
 G#3|..|G#1 2A.F ....|C#4 3F7F ....|G#4 UF.7 ....
....|..|--- .... ....|R-- .... ....|--- .... ....
....|..|G#1 2F.A ....|C#4 3F7A ....|--- .... ....
....|..|--- .... ....|R-- .... ....|--- .... ....
 G#3|..|G#1 2A.F ....|C#4 3F7F ....|--- .... ....
....|..|--- .... ....|R-- .... ....|--- .... ....
....|..|G#1 2F.A ....|C#4 3F7A ....|--- .... ....
....|..|--- .... ....|R-- .... ....|--- .... ....
 G#3|..|G#1 2A.F ....|C#4 3F7F ....|--- .... ....
....|..|--- .... ....|R-- .... ....|--- .... ....
....|..|G#1 2F.A ....|C#4 3F7A ....|--- .... ....
....|..|--- .... ....|R-- .... ....|--- .... ....
....|..|G#1 2F.7 ....|C#4 3F77 ....|--- .... ....
....|..|R-- .... ....|R-- .... ....|--- .... ....
 G#3|..|G#1 2A.F ....|C#4 3F7A ....|--- .... ....
....|..|R-- .... ....|R-- .... ....|--- .... ....
 G#3|..|G#1 2A.F ....|C#4 3F7F ....|--- .... ....
....|..|--- .... ....|R-- .... ....|--- .... ....
....|..|R-- .... ....|--- .... ....|--- .... ....
....|..|R-- .... ....|--- .... ....|--- .... ....
 G#3|..|G#1 2A.F ....|C#4 3F7F ....|C#5 UF.F ....
....|..|R-- .... ....|R-- .... ....|--- .... ....
....|..|G#1 2F.A ....|C#4 3F7A ....|--- .... ....
....|..|--- .... ....|R-- .... ....|G#4 UF.F ....
....|..|R-- .... ....|--- .... ....|E-5 UF.F ....
....|..|R-- .... ....|--- .... ....|--- .... ....
....|..|G#1 2F.7 ....|C#4 3F7A ....|C#5 UF.A ....
....|..|R-- .... ....|R-- .... ....|--- .... ....
 G#3|..|G#1 2A.F ....|C#4 3F7F ....|--- .... ....
....|..|--- .... ....|R-- .... ....|G#4 UF.A ....
....|..|R-- .... ....|--- .... ....|E-5 UF.A ....
....|..|--- .... ....|--- .... ....|G#4 UF.F ....
 G#3|..|G#1 2A.F ....|C#4 3F7F ....|A-5 UF.F ....
....|..|--- .... ....|R-- .... ....|--- .... ....
....|..|G#1 2F.A ....|C#4 3F7A ....|--- .... ....
....|..|--- .... ....|R-- .... ....|G#4 UF.7 ....
 G#3|..|G#1 2A.F ....|C#4 3F7F ....|E-5 UF.7 ....
....|..|--- .... ....|R-- .... ....|G#4 UF.A ....
....|..|G#1 2F.A ....|C#4 3F7A ....|A-5 UF.A ....
....|..|--- .... ....|R-- .... ....|R-- .... ....

[Pattern22]
 C#4|..|C#2 2A.F ....|G#3 3F5F ....|G#5 UF.F ....
....|..|--- .... ....|R-- .... ....|--- .... ....
....|..|G#1 2F.A ....|C#4 3F7A ....|--- .... ....
....|..|--- .... ....|R-- .... ....|G#4 UF.7 ....
 C#4|..|C#2 2A.F ....|G#3 3F5F ....|A-5 UF.7 ....
....|..|--- .... ....|R-- .... ....|R-- .... ....
....|..|C#2 2F.A ....|G#3 3F5A ....|G#5 UF.A ....
....|..|--- .... ....|R-- .... ....|R-- .... ....
 C#4|..|C#2 2A.F ....|G#3 3F5F ....|E-5 UF.F ....
....|..|--- .... ....|R-- .... ....|--- .... ....
....|..|C#2 2F.A ....|G#3 3F5A ....|--- .... ....
....|..|--- .... ....|R-- .... ....|R-- .... ....
 C#4|..|C#2 2A.F ....|G#3 3F5F ....|F#5 UF.F ....
....|..|--- .... ....|R-- .... ....|R-- .... ....
....|..|C#2 2F.A ....|G#3 3F5A ....|E-5 UF.A ....
....|..|--- .... ....|R-- .... ....|--- .... ....
 B-3|..|B-1 2A.F ....|B-3 3F6F ....|--- .... ....
....|..|--- .... ....|R-- .... ....|--- .... ....
....|..|C#2 2F.A ....|G#3 3F5A ....|F#5 UF.A ....
....|..|--- .... ....|R-- .... ....|R-- .... ....
 B-3|..|B-1 2A.F ....|B-3 3F6F ....|E-5 UF.7 ....
....|..|--- .... ....|R-- .... ....|--- .... ....
....|..|B-1 2F.A ....|B-3 3F6A ....|R-- .... ....
....|..|--- .... ....|R-- .... ....|--- .... ....
 B-3|..|B-1 2A.F ....|B-3 3F6F ....|F#5 UF.7 ....
....|..|--- .... ....|R-- .... ....|--- .... ....
....|..|B-1 2F.A ....|B-3 3F6A ....|--- .... ....
....|..|--- .... ....|R-- .... ....|--- .... ....
 B-3|..|B-1 2A.F ....|B-3 3F6F ....|C#5 UF.F ....
....|..|--- .... ....|R-- .... ....|R-- .... ....
....|..|B-1 2F.A ....|B-3 3F6A ....|--- .... ....
....|..|R-- .... ....|R-- .... ....|--- .... ....
 A-3|..|A-1 2A.F ....|A-3 3F6F ....|G#5 UF.F ....
....|..|--- .... ....|R-- .... ....|--- .... ....
....|..|B-1 2F.A ....|B-3 3F6A ....|C#5 UF.A ....
....|..|--- .... ....|R-- .... ....|R-- .... ....
 A-3|..|A-1 2A.F ....|A-3 3F6F ....|--- .... ....
....|..|R-- .... ....|R-- .... ....|--- .... ....
....|..|A-1 2F.A ....|A-3 3F6A ....|G#5 UF.A ....
....|..|--- .... ....|R-- .... ....|--- .... ....
 A-3|..|A-1 2A.F ....|A-3 3F6F ....|E-5 UF.F ....
....|..|--- .... ....|R-- .... ....|R-- .... ....
....|..|A-1 2F.A ....|A-3 3F6A ....|--- .... ....
....|..|R-- .... ....|R-- .... ....|--- .... ....
 A-3|..|A-1 2A.F ....|A-3 3F6F ....|F#5 UF.F ....
....|..|--- .... ....|R-- .... ....|--- .... ....
....|..|A-1 2F.A ....|A-3 3F6A ....|E-5 UF.A ....
....|..|--- .... ....|R-- .... ....|--- .... ....
 B-3|..|B-1 2A.F ....|B-3 3F6F ....|--- .... ....
....|..|--- .... ....|R-- .... ....|--- .... ....
....|..|A-1 2F.A ....|A-3 3F6A ....|F#5 UF.A ....
....|..|--- .... ....|R-- .... ....|--- .... ....
 B-3|..|B-1 2A.F ....|B-3 3F6F ....|E-5 UF.7 ....
....|..|--- .... ....|R-- .... ....|--- .... ....
....|..|B-1 2F.A ....|B-3 3F6A ....|R-- .... ....
....|..|--- .... ....|R-- .... ....|--- .... ....
 B-3|..|B-1 2A.F ....|B-3 3F6F ....|F#5 UF.7 ....
....|..|--- .... ....|R-- .... ....|--- .... ....
....|..|B-1 2F.A ....|B-3 3F6A ....|--- .... ....
....|..|--- .... ....|R-- .... ....|--- .... ....
 B-3|..|B-1 2A.F ....|B-3 3F6F ....|C#5 UF.F ....
....|..|--- .... ....|R-- .... ....|R-- .... ....
....|..|B-1 2F.A ....|B-3 3F6A ....|--- .... ....
....|..|--- .... ....|R-- .... ....|--- .... ....

[Pattern23]
 G#3|..|G#1 2A.F ....|C#4 3F7F ....|G#5 UF.F ....
....|..|--- .... ....|R-- .... ....|--- .... ....
....|..|B-1 2F.A ....|B-3 3F6A ....|C#5 UF.A ....
....|..|--- .... ....|R-- .... ....|R-- .... ....
 G#3|..|G#1 2A.F ....|C#4 3F7F ....|--- .... ....
....|..|--- .... ....|R-- .... ....|--- .... ....
....|..|G#1 2F.A ....|C#4 3F7A ....|G#5 UF.A ....
....|..|--- .... ....|R-- .... ....|--- .... ....
 G#3|..|G#1 2A.F ....|C#4 3F7F ....|G#5 UF.F ....
....|..|--- .... ....|R-- .... ....|R-- .... ....
....|..|G#1 2F.A ....|C#4 3F7A ....|--- .... ....
....|..|--- .... ....|R-- .... ....|--- .... ....
 G#3|..|G#1 2A.F ....|C#4 3F7F ....|G#5 UF.7 ....
....|..|--- .... ....|R-- .... ....|--- .... ....
....|..|G#1 2F.A ....|C#4 3F7A ....|G#5 UF.A ....
....|..|--- .... ....|R-- .... ....|R-- .... ....
 G#3|..|G#1 2A.F ....|C#4 3F7F ....|G#5 UF.F ....
....|..|--- .... ....|R-- .... ....|--- .... ....
....|..|G#1 2F.A ....|C#4 3F7A ....|--- .... ....
....|..|--- .... ....|R-- .... ....|--- .... ....
 G#3|..|G#1 2A.F ....|C#4 3F7F ....|F#5 UF.F ....
....|..|--- .... ....|R-- .... ....|R-- .... ....
....|..|G#1 2F.A ....|C#4 3F7A ....|G#5 UF.A ....
....|..|--- .... ....|R-- .... ....|--- .... ....
 G#3|..|G#1 2A.F ....|C#4 3F7F ....|D#5 UF.F ....
....|..|--- .... ....|R-- .... ....|--- .... ....
....|..|G#1 2F.A ....|C#4 3F7A ....|F#5 UF.A ....
....|..|--- .... ....|R-- .... ....|R-- .... ....
 G#3|..|G#1 2A.F ....|C#4 3F7F ....|F#5 UF.F ....
....|..|--- .... ....|R-- .... ....|--- .... ....
....|..|G#1 2F.A ....|C#4 3F7A ....|D#5 UF.A ....
....|..|--- .... ....|R-- .... ....|--- .... ....
 G#3|..|G#1 2A.F ....|C-4 3F8F ....|G#5 UF.F ....
....|..|--- .... ....|R-- .... ....|--- .... ....
....|..|G#1 2F.A ....|C#4 3F7A ....|F#5 UF.A ....
....|..|--- .... ....|R-- .... ....|--- .... ....
 G#3|..|G#1 2A.F ....|C-4 3F8F ....|D#5 UF.7 ....
....|..|--- .... ....|R-- .... ....|--- .... ....
....|..|G#1 2F.A ....|C-4 3F8A ....|G#5 UF.A ....
....|..|--- .... ....|R-- .... ....|R-- .... ....
 G#3|..|G#1 2A.F ....|C-4 3F8F ....|G#5 UF.F ....
....|..|--- .... ....|R-- .... ....|--- .... ....
....|..|G#1 2F.A ....|C-4 3F8A ....|--- .... ....
....|..|--- .... ....|R-- .... ....|--- .... ....
 G#3|..|G#1 2A.F ....|C-4 3F8F ....|G#5 UF.7 ....
....|..|--- .... ....|R-- .... ....|R-- .... ....
....|..|G#1 2F.A ....|C-4 3F8A ....|G#5 UF.A ....
....|..|--- .... ....|R-- .... ....|--- .... ....
 G#3|..|G#1 2A.F ....|C-4 3F8F ....|G#5 UF.F ....
....|..|--- .... ....|R-- .... ....|--- .... ....
....|..|G#1 2F.A ....|C-4 3F8A ....|--- .... ....
....|..|--- .... ....|R-- .... ....|R-- .... ....
 C-4|..|C-2 2A.F ....|C-4 3F8F ....|B-5 UF.F ....
....|..|--- .... ....|R-- .... ....|--- .... ....
....|..|G#1 2F.A ....|C-4 3F8A ....|G#5 UF.A ....
....|..|--- .... ....|R-- .... ....|R-- .... ....
 D#4|..|D#2 2A.F ....|C-4 3F8F ....|G#5 UF.F ....
....|..|--- .... ....|R-- .... ....|R-- .... ....
....|..|C-2 2F.A ....|C-4 3F8A ....|B-5 UF.A ....
....|..|R-- .... ....|R-- .... ....|R-- .... ....
 F#4|..|F#2 2A.F ....|C-4 3F8F ....|F#5 UF.F ....
....|..|--- .... ....|R-- .... ....|R-- .... ....
....|..|D#2 2F.A ....|C-4 3F8A ....|G#5 UF.A ....
....|..|--- .... ....|R-- .... ....|R-- .... ....

[Pattern24]
 C#4|..|C#2 2A.F ....|G#3 3F5F ....|G#5 UF.F ....
....|..|R-- .... ....|R-- .... ....|R-- .... ....
....|..|F#2 2F.A ....|C-4 3F8A ....|F#5 UF.A ....
....|..|--- .... ....|R-- .... ....|R-- .... ....
 C#4|..|C#2 2A.F ....|G#3 3F5F ....|G#5 UF.7 ....
....|..|--- .... ....|R-- .... ....|R-- .... ....
....|..|C#2 2F.A ....|G#3 3F5A ....|G#5 UF.A ....
....|..|R-- .... ....|R-- .... ....|R-- .... ....
 C#4|..|C#2 2A.F ....|G#3 3F5F ....|E-5 UF.F ....
....|..|--- .... ....|R-- .... ....|R-- .... ....
....|..|C#2 2F.A ....|G#3 3F5A ....|R-- .... ....
....|..|--- .... ....|R-- .... ....|R-- .... ....
 C#4|..|C#2 2A.F ....|G#3 3F5F ....|G-5 UF.F ....
....|..|--- .... ....|R-- .... ....|--- .... ....
....|..|C#2 2F.A ....|G#3 3F5A ....|E-5 UF.A ....
....|..|R-- .... ....|R-- .... ....|R-- .... ....
 B-3|..|B-1 2A.F ....|B-3 3F6F ....|--- .... ....
....|..|--- .... ....|R-- .... ....|R-- .... ....
....|..|C#2 2F.A ....|G#3 3F5A ....|G-5 UF.A ....
....|..|--- .... ....|R-- .... ....|--- .... ....
 B-3|..|B-1 2A.F ....|B-3 3F6F ....|E-5 UF.F ....
....|..|R-- .... ....|R-- .... ....|R-- .... ....
....|..|B-1 2F.A ....|B-3 3F6A ....|--- .... ....
....|..|--- .... ....|R-- .... ....|--- .... ....
 B-3|..|B-1 2A.F ....|B-3 3F6F ....|G#5 UF.F ....
....|..|--- .... ....|R-- .... ....|--- .... ....
....|..|B-1 2F.A ....|B-3 3F6A ....|E-5 UF.A ....
....|..|R-- .... ....|R-- .... ....|R-- .... ....
 B-3|..|B-1 2A.F ....|B-3 3F6F ....|--- .... ....
....|..|--- .... ....|R-- .... ....|--- .... ....
....|..|B-1 2F.A ....|B-3 3F6A ....|G#5 UF.A ....
....|..|R-- .... ....|R-- .... ....|--- .... ....
 A-3|..|A-1 2A.F ....|A-3 3F6F ....|E-5 UF.7 ....
....|..|--- .... ....|R-- .... ....|R-- .... ....
....|..|B-1 2F.A ....|B-3 3F6A ....|--- .... ....
....|..|--- .... ....|R-- .... ....|R-- .... ....
 A-3|..|A-1 2A.F ....|A-3 3F6F ....|E-5 UF.F ....
....|..|R-- .... ....|R-- .... ....|R-- .... ....
....|..|A-1 2F.A ....|A-3 3F6A ....|--- .... ....
....|..|--- .... ....|R-- .... ....|--- .... ....
 A-3|..|A-1 2A.F ....|A-3 3F6F ....|G#5 UF.F ....
....|..|--- .... ....|R-- .... ....|R-- .... ....
....|..|A-1 2F.A ....|A-3 3F6A ....|E-5 UF.A ....
....|..|R-- .... ....|R-- .... ....|R-- .... ....
 A-3|..|A-1 2A.F ....|A-3 3F6F ....|F#5 UF.F ....
....|..|--- .... ....|R-- .... ....|--- .... ....
....|..|A-1 2F.A ....|A-3 3F6A ....|G#5 UF.A ....
....|..|R-- .... ....|R-- .... ....|R-- .... ....
 B-3|..|B-1 2A.F ....|B-3 3F6F ....|E-5 UF.7 ....
....|..|--- .... ....|R-- .... ....|R-- .... ....
....|..|A-1 2F.A ....|A-3 3F6A ....|F#5 UF.A ....
....|..|--- .... ....|R-- .... ....|--- .... ....
 B-3|..|B-1 2A.F ....|B-3 3F6F ....|G#5 UF.7 ....
....|..|R-- .... ....|R-- .... ....|--- .... ....
....|..|B-1 2F.A ....|B-3 3F6A ....|--- .... ....
....|..|--- .... ....|R-- .... ....|R-- .... ....
 B-3|..|B-1 2A.F ....|B-3 3F6F ....|E-5 UF.F ....
....|..|--- .... ....|R-- .... ....|--- .... ....
....|..|B-1 2F.A ....|B-3 3F6A ....|R-- .... ....
....|..|R-- .... ....|R-- .... ....|--- .... ....
 B-3|..|B-1 2A.F ....|B-3 3F6F ....|F#5 UF.F ....
....|..|--- .... ....|R-- .... ....|R-- .... ....
....|..|B-1 2F.A ....|B-3 3F6A ....|E-5 UF.A ....
....|..|--- .... ....|R-- .... ....|--- .... ....

[Pattern25]
 G#3|..|G#1 2A.F ....|C#4 3F7F ....|G#5 UF.F ....
....|..|--- .... ....|R-- .... ....|--- .... ....
....|..|B-1 2F.A ....|B-3 3F6A ....|F#5 UF.A ....
....|..|--- .... ....|R-- .... ....|R-- .... ....
 G#3|..|G#1 2A.F ....|C#4 3F7F ....|G#5 UF.F ....
....|..|--- .... ....|R-- .... ....|--- .... ....
....|..|G#1 2F.A ....|C#4 3F7A ....|G#5 UF.A ....
....|..|--- .... ....|R-- .... ....|R-- .... ....
 G#3|..|G#1 2A.F ....|C#4 3F7F ....|G#5 UF.F ....
....|..|--- .... ....|R-- .... ....|--- .... ....
....|..|G#1 2F.A ....|C#4 3F7A ....|G#5 UF.A ....
....|..|--- .... ....|R-- .... ....|R-- .... ....
 G#3|..|G#1 2A.F ....|C#4 3F7F ....|F#5 UF.F ....
....|..|--- .... ....|R-- .... ....|R-- .... ....
....|..|G#1 2F.A ....|C#4 3F7A ....|G#5 UF.A ....
....|..|--- .... ....|R-- .... ....|R-- .... ....
 G#3|..|G#1 2A.F ....|C#4 3F7F ....|F#5 UF.F ....
....|..|--- .... ....|R-- .... ....|R-- .... ....
....|..|G#1 2F.A ....|C#4 3F7A ....|F#5 UF.A ....
....|..|--- .... ....|R-- .... ....|R-- .... ....
 G#3|..|G#1 2A.F ....|C#4 3F7F ....|D#5 UF.F ....
....|..|--- .... ....|R-- .... ....|R-- .... ....
....|..|G#1 2F.A ....|C#4 3F7A ....|F#5 UF.A ....
....|..|--- .... ....|R-- .... ....|R-- .... ....
 G#3|..|G#1 2A.F ....|C#4 3F7F ....|D#5 UF.F ....
....|..|--- .... ....|R-- .... ....|--- .... ....
....|..|G#1 2F.A ....|C#4 3F7A ....|D#5 UF.A ....
....|..|--- .... ....|R-- .... ....|R-- .... ....
 G#3|..|G#1 2A.F ....|C#4 3F7F ....|C-5 UF.F ....
....|..|--- .... ....|R-- .... ....|--- .... ....
....|..|G#1 2F.A ....|C#4 3F7A ....|D#5 UF.A ....
....|..|--- .... ....|R-- .... ....|--- .... ....
 G#3|..|G#1 2A.F ....|C-4 3F8F ....|C-5 UF.F ....
....|..|--- .... ....|R-- .... ....|--- .... ....
....|..|G#1 2F.A ....|C#4 3F7A ....|C-5 UF.A ....
....|..|--- .... ....|R-- .... ....|--- .... ....
 G#3|..|G#1 2A.F ....|C-4 3F8F ....|A-4 UF.F ....
....|..|--- .... ....|R-- .... ....|--- .... ....
....|..|G#1 2F.A ....|C-4 3F8A ....|C-5 UF.A ....
....|..|--- .... ....|R-- .... ....|R-- .... ....
 G#3|..|G#1 2A.F ....|C-4 3F8F ....|A-4 UF.F ....
....|..|--- .... ....|R-- .... ....|--- .... ....
....|..|G#1 2F.A ....|C-4 3F8A ....|A-4 UF.A ....
....|..|--- .... ....|R-- .... ....|--- .... ....
 G#3|..|G#1 2A.F ....|C-4 3F8F ....|G#4 UF.F ....
....|..|--- .... ....|R-- .... ....|R-- .... ....
....|..|G#1 2F.A ....|C-4 3F8A ....|A-4 UF.A ....
....|..|--- .... ....|R-- .... ....|--- .... ....
 G#3|..|G#1 2A.F ....|C-4 3F8F ....|C#5 UF.F ....
....|..|--- .... ....|R-- .... ....|--- .... ....
....|..|G#1 2F.A ....|C-4 3F8A ....|G#4 UF.A ....
....|..|R-- .... ....|R-- .... ....|R-- .... ....
 C-4|..|C-2 2A.F ....|C-4 3F8F ....|D#5 UF.F ....
....|..|--- .... ....|R-- .... ....|--- .... ....
....|..|G#1 2F.A ....|C-4 3F8A ....|C#5 UF.A ....
....|..|--- .... ....|R-- .... ....|D#5 UF.F ....
 D#4|..|D#2 2A.F ....|C-4 3F8F ....|C#5 UF.F ....
....|..|R-- .... ....|R-- .... ....|--- .... ....
....|..|C-2 2F.A ....|C-4 3F8A ....|D#5 UF.A ....
....|..|--- .... ....|R-- .... ....|R-- .... ....
 F#4|..|F#2 2A.F ....|C-4 3F8F ....|B-4 UF.F ....
....|..|--- .... ....|R-- .... ....|D#5 UF.A ....
....|..|D#2 2F.A ....|C-4 3F8A ....|C#5 UF.A ....
....|..|R-- .... ....|R-- .... ....|R-- .... ....

[Pattern26]
 C#4|..|C#2 2A.F ....|G#3 3F5F ....|C#5 UF.F ....
....|..|--- .... ....|R-- .... ....|R-- .... ....
....|..|F#2 2F.A ....|C-4 3F8A ....|B-4 UF.A ....
....|..|--- .... ....|R-- .... ....|D#5 UF.7 ....
....|..|D#2 2F.7 ....|G#3 3F5F ....|C#5 UF.7 ....
....|..|--- .... ....|R-- .... ....|R-- .... ....
....|..|C#2 2F.A ....|G#3 3F5A ....|C#5 UF.A ....
....|..|--- .... ....|R-- .... ....|R-- .... ....
....|..|F#2 2F.7 ....|G#3 3F5F ....|B-4 UF.7 ....
....|..|--- .... ....|R-- .... ....|--- .... ....
....|..|--- .... ....|G#3 3F5A ....|--- .... ....
....|..|--- .... ....|R-- .... ....|R-- .... ....
 C#4|..|C#2 2A.F ....|G#3 3F5F ....|C#5 UF.7 ....
....|..|--- .... ....|R-- .... ....|--- .... ....
....|..|R-- .... ....|G#3 3F5A ....|--- .... ....
....|..|--- .... ....|R-- .... ....|--- .... ....
 B-3|..|B-1 2A.F ....|B-3 3F6F ....|--- .... ....
....|..|--- .... ....|R-- .... ....|--- .... ....
....|..|C#2 2F.A ....|G#3 3F5A ....|--- .... ....
....|..|--- .... ....|R-- .... ....|--- .... ....
....|..|R-- .... ....|B-3 3F6F ....|--- .... ....
....|..|--- .... ....|R-- .... ....|--- .... ....
....|..|B-1 2F.A ....|B-3 3F6A ....|--- .... ....
....|..|--- .... ....|R-- .... ....|--- .... ....
....|..|C#2 2F.7 ....|B-3 3F6F ....|--- .... ....
....|..|R-- .... ....|R-- .... ....|--- .... ....
....|..|--- .... ....|B-3 3F6A ....|R-- .... ....
....|..|--- .... ....|--- .... ....|--- .... ....
 B-3|..|B-1 2A.F ....|B-3 3F6F ....|--- .... ....
....|..|--- .... ....|R-- .... ....|--- .... ....
....|..|--- .... ....|B-3 3F6A ....|--- .... ....
....|..|R-- .... ....|R-- .... ....|--- .... ....
 A-3|..|A-1 2A.F ....|A-3 3F6F ....|R-- .... ....
....|..|--- .... ....|R-- .... ....|--- .... ....
....|..|B-1 2F.A ....|B-3 3F6A ....|--- .... ....
....|..|--- .... ....|R-- .... ....|--- .... ....
....|..|--- .... ....|A-3 3F6F ....|--- .... ....
....|..|R-- .... ....|R-- .... ....|--- .... ....
....|..|A-1 2F.A ....|A-3 3F6A ....|R-- .... ....
....|..|--- .... ....|R-- .... ....|--- .... ....
....|..|B-1 2F.7 ....|A-3 3F6F ....|C#5 UF.F ....
....|..|--- .... ....|R-- .... ....|--- .... ....
....|..|--- .... ....|A-3 3F6A ....|--- .... ....
....|..|--- .... ....|R-- .... ....|R-- .... ....
 A-3|..|A-1 2A.F ....|A-3 3F6F ....|D#5 UF.F ....
....|..|--- .... ....|R-- .... ....|--- .... ....
....|..|R-- .... ....|A-3 3F6A ....|C#5 UF.A ....
....|..|--- .... ....|R-- .... ....|--- .... ....
 B-3|..|B-1 2A.F ....|B-3 3F6F ....|C#5 UF.F ....
....|..|--- .... ....|R-- .... ....|R-- .... ....
....|..|A-1 2F.A ....|A-3 3F6A ....|D#5 UF.A ....
....|..|--- .... ....|R-- .... ....|--- .... ....
....|..|R-- .... ....|B-3 3F6F ....|C#5 UF.7 ....
....|..|--- .... ....|R-- .... ....|--- .... ....
....|..|B-1 2F.A ....|B-3 3F6A ....|C#5 UF.A ....
....|..|--- .... ....|R-- .... ....|R-- .... ....
....|..|A-1 2F.7 ....|B-3 3F6F ....|B-4 UF.F ....
....|..|R-- .... ....|R-- .... ....|--- .... ....
....|..|--- .... ....|B-3 3F6A ....|--- .... ....
....|..|--- .... ....|R-- .... ....|R-- .... ....
 B-3|..|B-1 2A.F ....|B-3 3F6F ....|G#4 UF.F ....
....|..|R-- .... ....|R-- .... ....|--- .... ....
....|..|--- .... ....|B-3 3F6A ....|B-4 UF.A ....
....|..|R-- .... ....|R-- .... ....|--- .... ....

[Pattern27]
 G#3|..|G#1 2A.F ....|C#4 3F7F ....|--- .... ....
....|..|--- .... ....|R-- .... ....|R-- .... ....
....|..|B-1 2F.A ....|B-3 3F6A ....|G#4 UF.A ....
....|..|R-- .... ....|R-- .... ....|--- .... ....
....|..|--- .... ....|C#4 3F7F ....|B-4 UF.7 ....
....|..|R-- .... ....|R-- .... ....|--- .... ....
....|..|G#1 2F.A ....|C#4 3F7A ....|--- .... ....
....|..|--- .... ....|R-- .... ....|R-- .... ....
....|..|B-1 2F.7 ....|C#4 3F7F ....|G#4 UF.7 ....
....|..|R-- .... ....|R-- .... ....|--- .... ....
....|..|--- .... ....|C#4 3F7A ....|--- .... ....
....|..|--- .... ....|R-- .... ....|--- .... ....
 G#3|..|G#1 2A.F ....|C#4 3F7F ....|--- .... ....
....|..|R-- .... ....|R-- .... ....|--- .... ....
....|..|R-- .... ....|C#4 3F7A ....|--- .... ....
....|..|--- .... ....|R-- .... ....|--- .... ....
 G#3|..|G#1 2A.F ....|C#4 3F77 ....|--- .... ....
....|..|--- .... ....|R-- .... ....|--- .... ....
....|..|G#1 2F.A ....|C#4 3F7A ....|--- .... ....
....|..|R-- .... ....|R-- .... ....|--- .... ....
....|..|R-- .... ....|C#4 3F7F ....|--- .... ....
....|..|--- .... ....|R-- .... ....|--- .... ....
....|..|G#1 2F.A ....|--- .... ....|--- .... ....
....|..|--- .... ....|--- .... ....|--- .... ....
....|..|G#1 2F.7 ....|C#4 3F7F ....|--- .... ....
....|..|R-- .... ....|R-- .... ....|--- .... ....
....|..|--- .... ....|C#4 3F7A ....|--- .... ....
....|..|--- .... ....|R-- .... ....|--- .... ....
 G#3|..|G#1 2A.F ....|C#4 3F7F ....|--- .... ....
....|..|--- .... ....|R-- .... ....|--- .... ....
....|..|R-- .... ....|C#4 3F7A ....|--- .... ....
....|..|--- .... ....|R-- .... ....|R-- .... ....
 G#3|..|G#1 2A.F ....|C-4 3F8F ....|--- .... ....
....|..|--- .... ....|R-- .... ....|--- .... ....
....|..|G#1 2F.A ....|C#4 3F7A ....|--- .... ....
....|..|--- .... ....|R-- .... ....|--- .... ....
....|..|R-- .... ....|C-4 3F8F ....|--- .... ....
....|..|--- .... ....|R-- .... ....|R-- .... ....
....|..|G#1 2F.A ....|C-4 3F8A ....|--- .... ....
....|..|--- .... ....|R-- .... ....|--- .... ....
....|..|G#1 2F.7 ....|C-4 3F8F ....|--- .... ....
....|..|R-- .... ....|R-- .... ....|--- .... ....
....|..|R-- .... ....|C-4 3F8A ....|--- .... ....
....|..|--- .... ....|R-- .... ....|R-- .... ....
 G#3|..|G#1 2A.F ....|C-4 3F8F ....|--- .... ....
....|..|--- .... ....|R-- .... ....|--- .... ....
....|..|R-- .... ....|C-4 3F8A ....|--- .... ....
....|..|R-- .... ....|R-- .... ....|--- .... ....
 A-3|..|A-1 2A.F ....|A-3 3F6F ....|E-5 UF.F ....
....|..|--- .... ....|R-- .... ....|--- .... ....
....|..|G#1 2F.A ....|C-4 3F8A ....|R-- .... ....
....|..|--- .... ....|R-- .... ....|--- .... ....
 A-3|..|A-1 2A.F ....|A-3 3F6F ....|E-5 UF.F ....
....|..|R-- .... ....|R-- .... ....|--- .... ....
....|..|A-1 2F.A ....|A-3 3F6A ....|E-5 UF.A ....
....|..|R-- .... ....|R-- .... ....|--- .... ....
 A-3|..|A-1 2A.F ....|A-3 3F6F ....|R-- .... ....
....|..|--- .... ....|R-- .... ....|--- .... ....
....|..|A-1 2F.A ....|A-3 3F6A ....|E-5 UF.A ....
....|..|--- .... ....|--- .... ....|E-5 UF.F ....
 A-3|..|A-1 2A.F ....|A-3 3F6F ....|E-5 UF.7 ....
....|..|R-- .... ....|R-- .... ....|E-5 UF.F ....
....|..|A-1 2F.A ....|A-3 3F6A ....|R-- .... ....
....|..|--- .... ....|R-- .... ....|R-- .... ....

[Pattern28]
 E-4|..|E-2 2A.F ....|G#3 3F9F ....|E-5 UF.F ....
....|..|--- .... ....|R-- .... ....|E-5 UF.A ....
....|..|A-1 2F.A ....|A-3 3F6A ....|--- .... ....
....|..|R-- .... ....|E-3 3FAF ....|E-5 UF.A ....
....|..|A-1 2F.7 ....|B-3 3FBF ....|--- .... ....
....|..|--- .... ....|R-- .... ....|R-- .... ....
....|..|E-2 2F.A ....|G#3 3F9A ....|E-5 UF.A ....
....|..|--- .... ....|E-3 3FAF ....|E-5 UF.7 ....
....|..|A-1 2F.7 ....|B-3 3FBF ....|--- .... ....
....|..|--- .... ....|E-3 3FAA ....|E-5 UF.7 ....
....|..|--- .... ....|B-3 3FBA ....|R-- .... ....
....|..|--- .... ....|E-3 3FAF ....|R-- .... ....
 E-4|..|E-2 2A.F ....|B-3 3FBF ....|E-5 UF.7 ....
....|..|--- .... ....|E-3 3FAA ....|--- .... ....
....|..|R-- .... ....|B-3 3FBA ....|--- .... ....
....|..|--- .... ....|C-4 3F8F ....|--- .... ....
 G#3|..|G#1 2A.F ....|B-3 3FB7 ....|R-- .... ....
....|..|--- .... ....|E-3 3FAA ....|--- .... ....
....|..|E-2 2F.A ....|B-3 3FBA ....|--- .... ....
....|..|--- .... ....|C-4 3F8F ....|--- .... ....
....|..|R-- .... ....|B-3 3FB7 ....|--- .... ....
....|..|--- .... ....|C-4 3F8A ....|--- .... ....
....|..|G#1 2F.A ....|R-- .... ....|R-- .... ....
....|..|--- .... ....|C-4 3F8F ....|--- .... ....
....|..|E-2 2F.7 ....|B-3 3FB7 ....|--- .... ....
....|..|R-- .... ....|C-4 3F8A ....|--- .... ....
....|..|R-- .... ....|R-- .... ....|--- .... ....
....|..|--- .... ....|C-4 3F8F ....|--- .... ....
 G#3|..|G#1 2A.F ....|R-- .... ....|--- .... ....
....|..|--- .... ....|C-4 3F8A ....|--- .... ....
....|..|--- .... ....|R-- .... ....|--- .... ....
....|..|R-- .... ....|G#3 3F5F ....|--- .... ....
 C#4|..|C#2 2A.F ....|R-- .... ....|--- .... ....
....|..|--- .... ....|C-4 3F8A ....|--- .... ....
....|..|G#1 2F.A ....|R-- .... ....|--- .... ....
....|..|--- .... ....|G#3 3F5F ....|--- .... ....
....|..|--- .... ....|R-- .... ....|--- .... ....
....|..|R-- .... ....|G#3 3F5A ....|--- .... ....
....|..|C#2 2F.A ....|R-- .... ....|--- .... ....
....|..|--- .... ....|E-3 3FCF ....|--- .... ....
....|..|G#1 2F.7 ....|E-4 3F.F ....|E-5 UF.F ....
....|..|R-- .... ....|G#3 3F5A ....|--- .... ....
....|..|--- .... ....|R-- .... ....|R-- .... ....
....|..|--- .... ....|G#3 3F5F ....|--- .... ....
 C#4|..|C#2 2A.F ....|R-- .... ....|E-5 UF.F ....
....|..|--- .... ....|E-3 3FCA ....|--- .... ....
....|..|R-- .... ....|E-4 3F.A ....|E-5 UF.A ....
....|..|R-- .... ....|A-3 3F6F ....|--- .... ....
 A-3|..|A-1 2A.F ....|R-- .... ....|E-5 UF.F ....
....|..|--- .... ....|G#3 3F5A ....|--- .... ....
....|..|C#2 2F.A ....|R-- .... ....|E-5 UF.A ....
....|..|--- .... ....|A-3 3F6F ....|R-- .... ....
....|..|R-- .... ....|E-4 3F.7 ....|E-5 UF.F ....
....|..|R-- .... ....|A-3 3F6A ....|--- .... ....
....|..|A-1 2F.A ....|R-- .... ....|E-5 UF.A ....
....|..|--- .... ....|A-3 3F6F ....|--- .... ....
....|..|C#2 2F.7 ....|R-- .... ....|E-5 UF.7 ....
....|..|R-- .... ....|A-3 3F6A ....|R-- .... ....
....|..|R-- .... ....|R-- .... ....|E-5 UF.A ....
....|..|--- .... ....|A-3 3F6F ....|--- .... ....
 A-3|..|A-1 2A.F ....|R-- .... ....|D#5 UF.F ....
....|..|--- .... ....|A-3 3F6A ....|--- .... ....
....|..|R-- .... ....|R-- .... ....|--- .... ....
....|..|R-- .... ....|C#4 3F7F ....|R-- .... ....

[Pattern29]
 G#3|..|G#1 2A.F ....|R-- .... ....|E-5 UF.7 ....
....|..|--- .... ....|A-3 3F6A ....|--- .... ....
....|..|A-1 2F.A ....|R-- .... ....|D#5 UF.A ....
....|..|--- .... ....|C#4 3F7F ....|--- .... ....
....|..|R-- .... ....|R-- .... ....|--- .... ....
....|..|R-- .... ....|C#4 3F7A ....|R-- .... ....
....|..|G#1 2F.A ....|R-- .... ....|--- .... ....
....|..|--- .... ....|C#4 3F7F ....|--- .... ....
....|..|A-1 2F.7 ....|R-- .... ....|D#5 UF.7 ....
....|..|--- .... ....|C#4 3F7A ....|--- .... ....
....|..|R-- .... ....|R-- .... ....|--- .... ....
....|..|--- .... ....|G#3 3FDF ....|--- .... ....
 G#3|..|G#1 2A.F ....|F#4 3F.F ....|--- .... ....
....|..|R-- .... ....|C#4 3F7A ....|--- .... ....
....|..|R-- .... ....|R-- .... ....|--- .... ....
....|..|--- .... ....|C#4 3F7F ....|--- .... ....
 G#3|..|G#1 2A.F ....|R-- .... ....|--- .... ....
....|..|--- .... ....|G#3 3FDA ....|--- .... ....
....|..|G#1 2F.A ....|F#4 3F.A ....|R-- .... ....
....|..|R-- .... ....|C#4 3F7F ....|--- .... ....
....|..|R-- .... ....|R-- .... ....|--- .... ....
....|..|--- .... ....|C#4 3F7A ....|--- .... ....
....|..|G#1 2F.A ....|R-- .... ....|--- .... ....
....|..|--- .... ....|C#4 3F7F ....|--- .... ....
....|..|G#1 2F.7 ....|F#4 3F.7 ....|R-- .... ....
....|..|R-- .... ....|C#4 3F7A ....|--- .... ....
....|..|--- .... ....|R-- .... ....|--- .... ....
....|..|--- .... ....|C#4 3F7F ....|--- .... ....
 G#3|..|G#1 2A.F ....|R-- .... ....|--- .... ....
....|..|--- .... ....|C#4 3F7A ....|--- .... ....
....|..|R-- .... ....|R-- .... ....|R-- .... ....
....|..|R-- .... ....|C-4 3F8F ....|--- .... ....
 G#3|..|G#1 2A.F ....|R-- .... ....|--- .... ....
....|..|--- .... ....|C#4 3F7A ....|--- .... ....
....|..|G#1 2F.A ....|R-- .... ....|--- .... ....
....|..|--- .... ....|C#4 3F77 ....|--- .... ....
....|..|R-- .... ....|R-- .... ....|--- .... ....
....|..|R-- .... ....|C-4 3F8A ....|--- .... ....
....|..|G#1 2F.A ....|R-- .... ....|--- .... ....
....|..|--- .... ....|G#3 3F6F ....|--- .... ....
....|..|G#1 2F.7 ....|F#4 3F.F ....|--- .... ....
....|..|R-- .... ....|R-- .... ....|--- .... ....
....|..|R-- .... ....|--- .... ....|--- .... ....
....|..|--- .... ....|C-4 3F8F ....|--- .... ....
 G#3|..|G#1 2A.F ....|R-- .... ....|--- .... ....
....|..|--- .... ....|G#3 3F6A ....|--- .... ....
....|..|R-- .... ....|F#4 3F.A ....|--- .... ....
....|..|R-- .... ....|R-- .... ....|--- .... ....
 C-4|..|C-2 2A.F ....|--- .... ....|G#4 UF.F ....
....|..|--- .... ....|C-4 3F8A ....|--- .... ....
....|..|G#1 2F.A ....|R-- .... ....|--- .... ....
....|..|R-- .... ....|C-4 3F8F ....|R-- .... ....
 D#4|..|D#2 2A.F ....|F#4 3F.7 ....|G#4 UF.F ....
....|..|R-- .... ....|R-- .... ....|--- .... ....
....|..|C-2 2F.A ....|--- .... ....|G#4 UF.A ....
....|..|--- .... ....|C-4 3F8F ....|--- .... ....
 F#4|..|F#2 2A.F ....|R-- .... ....|B-4 UF.F ....
....|..|R-- .... ....|C-4 3F8A ....|R-- .... ....
....|..|D#2 2F.A ....|R-- .... ....|G#4 UF.A ....
....|..|R-- .... ....|C-4 3F8F ....|--- .... ....
 C-4|..|C-2 2A.F ....|R-- .... ....|G#4 UF.F ....
....|..|--- .... ....|C-4 3F8A ....|--- .... ....
....|..|F#2 2F.A ....|R-- .... ....|B-4 UF.A ....
....|..|R-- .... ....|G#3 3F5F ....|R-- .... ....

[Pattern30]
 C#4|..|C#2 2A.F ....|R-- .... ....|E-5 UF.F ....
....|..|R-- .... ....|C-4 3F8A ....|--- .... ....
....|..|C-2 2F.A ....|R-- .... ....|G#4 UF.A ....
....|..|--- .... ....|G#3 3F5F ....|--- .... ....
....|..|F#2 2F.7 ....|R-- .... ....|C#5 UF.F ....
....|..|R-- .... ....|G#3 3F5A ....|--- .... ....
....|..|C#2 2F.A ....|R-- .... ....|E-5 UF.A ....
....|..|R-- .... ....|G#3 3F5F ....|--- .... ....
....|..|C-2 2F.7 ....|R-- .... ....|G#4 UF.7 ....
....|..|--- .... ....|G#3 3F5A ....|--- .... ....
....|..|--- .... ....|R-- .... ....|C#5 UF.A ....
....|..|R-- .... ....|G#3 3F5F ....|--- .... ....
 C#4|..|C#2 2A.F ....|R-- .... ....|E-5 UF.7 ....
....|..|--- .... ....|G#3 3F5A ....|--- .... ....
....|..|R-- .... ....|R-- .... ....|--- .... ....
....|..|--- .... ....|B-3 3F6F ....|--- .... ....
 B-3|..|B-1 2A.F ....|R-- .... ....|C#5 UF.7 ....
....|..|--- .... ....|G#3 3F5A ....|--- .... ....
....|..|C#2 2F.A ....|R-- .... ....|--- .... ....
....|..|--- .... ....|B-3 3F6F ....|--- .... ....
....|..|R-- .... ....|R-- .... ....|--- .... ....
....|..|--- .... ....|B-3 3F6A ....|--- .... ....
....|..|B-1 2F.A ....|R-- .... ....|R-- .... ....
....|..|--- .... ....|B-3 3F6F ....|--- .... ....
....|..|C#2 2F.7 ....|R-- .... ....|--- .... ....
....|..|R-- .... ....|B-3 3F6A ....|--- .... ....
....|..|R-- .... ....|R-- .... ....|--- .... ....
....|..|--- .... ....|B-3 3F6F ....|--- .... ....
 B-3|..|B-1 2A.F ....|R-- .... ....|R-- .... ....
....|..|--- .... ....|B-3 3F6A ....|--- .... ....
....|..|R-- .... ....|R-- .... ....|--- .... ....
....|..|R-- .... ....|A-3 3F6F ....|--- .... ....
 A-3|..|A-1 2A.F ....|R-- .... ....|--- .... ....
....|..|--- .... ....|B-3 3F6A ....|--- .... ....
....|..|B-1 2F.A ....|R-- .... ....|--- .... ....
....|..|--- .... ....|A-3 3F6F ....|--- .... ....
....|..|R-- .... ....|R-- .... ....|--- .... ....
....|..|R-- .... ....|A-3 3F6A ....|--- .... ....
....|..|A-1 2F.A ....|R-- .... ....|--- .... ....
....|..|--- .... ....|A-3 3F6F ....|--- .... ....
....|..|B-1 2F.7 ....|R-- .... ....|C#5 UF.F ....
....|..|--- .... ....|A-3 3F6A ....|--- .... ....
....|..|R-- .... ....|R-- .... ....|--- .... ....
....|..|--- .... ....|A-3 3F6F ....|--- .... ....
 A-3|..|A-1 2A.F ....|R-- .... ....|D#5 UF.F ....
....|..|--- .... ....|A-3 3F6A ....|--- .... ....
....|..|R-- .... ....|R-- .... ....|C#5 UF.A ....
....|..|--- .... ....|B-3 3F6F ....|--- .... ....
 B-3|..|B-1 2A.F ....|R-- .... ....|C#5 UF.F ....
....|..|--- .... ....|A-3 3F6A ....|--- .... ....
....|..|A-1 2F.A ....|R-- .... ....|D#5 UF.A ....
....|..|--- .... ....|F#3 3FEF ....|--- .... ....
....|..|R-- .... ....|F#4 3F.F ....|C#5 UF.7 ....
....|..|--- .... ....|B-3 3F6A ....|--- .... ....
....|..|B-1 2F.A ....|R-- .... ....|C#5 UF.A ....
....|..|--- .... ....|B-3 3F6F ....|--- .... ....
....|..|A-1 2F.7 ....|R-- .... ....|B-4 UF.F ....
....|..|R-- .... ....|F#3 3FEA ....|--- .... ....
....|..|R-- .... ....|F#4 3F.A ....|R-- .... ....
....|..|--- .... ....|B-3 3F6F ....|R-- .... ....
 B-3|..|B-1 2A.F ....|R-- .... ....|G#4 UF.F ....
....|..|--- .... ....|B-3 3F6A ....|--- .... ....
....|..|R-- .... ....|R-- .... ....|B-4 UF.A ....
....|..|R-- .... ....|C#4 3F7F ....|--- .... ....

[Pattern31]
 G#3|..|G#1 2A.F ....|F#4 3F.7 ....|--- .... ....
....|..|--- .... ....|B-3 3F6A ....|R-- .... ....
....|..|B-1 2F.A ....|R-- .... ....|G#4 UF.A ....
....|..|--- .... ....|C#4 3F7F ....|--- .... ....
....|..|R-- .... ....|R-- .... ....|B-4 UF.7 ....
....|..|R-- .... ....|C#4 3F7A ....|--- .... ....
....|..|G#1 2F.A ....|R-- .... ....|--- .... ....
....|..|--- .... ....|C#4 3F7F ....|R-- .... ....
....|..|B-1 2F.7 ....|R-- .... ....|G#4 UF.7 ....
....|..|R-- .... ....|C#4 3F7A ....|--- .... ....
....|..|R-- .... ....|R-- .... ....|--- .... ....
....|..|--- .... ....|C#4 3F7F ....|--- .... ....
 G#3|..|G#1 2A.F ....|R-- .... ....|--- .... ....
....|..|--- .... ....|C#4 3F7A ....|--- .... ....
....|..|R-- .... ....|R-- .... ....|--- .... ....
....|..|R-- .... ....|C#4 3F7F ....|--- .... ....
 G#3|..|G#1 2A.F ....|R-- .... ....|--- .... ....
....|..|--- .... ....|C#4 3F7A ....|--- .... ....
....|..|G#1 2F.A ....|R-- .... ....|--- .... ....
....|..|--- .... ....|C#4 3F7F ....|--- .... ....
....|..|R-- .... ....|R-- .... ....|--- .... ....
....|..|R-- .... ....|C#4 3F7A ....|--- .... ....
....|..|G#1 2F.A ....|R-- .... ....|--- .... ....
....|..|--- .... ....|C#4 3F7F ....|--- .... ....
....|..|G#1 2F.7 ....|R-- .... ....|--- .... ....
....|..|R-- .... ....|C#4 3F7A ....|--- .... ....
....|..|R-- .... ....|R-- .... ....|--- .... ....
....|..|--- .... ....|C#4 3F7F ....|--- .... ....
 G#3|..|G#1 2A.F ....|R-- .... ....|--- .... ....
....|..|--- .... ....|C#4 3F7A ....|--- .... ....
....|..|R-- .... ....|R-- .... ....|--- .... ....
....|..|R-- .... ....|C-4 3F8F ....|R-- .... ....
 G#3|..|G#1 2A.F ....|R-- .... ....|--- .... ....
....|..|--- .... ....|C#4 3F7A ....|--- .... ....
....|..|G#1 2F.A ....|R-- .... ....|--- .... ....
....|..|--- .... ....|C-4 3F8F ....|--- .... ....
 G#3|..|G#1 2A.F ....|R-- .... ....|--- .... ....
....|..|R-- .... ....|C-4 3F8A ....|R-- .... ....
....|..|G#1 2F.A ....|R-- .... ....|--- .... ....
....|..|--- .... ....|C-4 3F8F ....|--- .... ....
....|..|G#1 2F.7 ....|R-- .... ....|--- .... ....
....|..|R-- .... ....|C-4 3F8A ....|--- .... ....
....|..|G#1 2F.A ....|R-- .... ....|--- .... ....
....|..|--- .... ....|G#3 3F6F ....|R-- .... ....
 G#3|..|G#1 2A.F ....|F#4 3F.F ....|--- .... ....
....|..|--- .... ....|C-4 3F8A ....|--- .... ....
....|..|R-- .... ....|R-- .... ....|--- .... ....
....|..|R-- .... ....|C-4 3F8F ....|--- .... ....
 G#3|..|G#1 2A.F ....|R-- .... ....|G#5 UF.F ....
....|..|--- .... ....|G#3 3F6A ....|--- .... ....
....|..|G#1 2F.A ....|F#4 3F.A ....|--- .... ....
....|..|--- .... ....|C-4 3F8F ....|R-- .... ....
 G#3|..|G#1 2A.F ....|R-- .... ....|F#5 UF.F ....
....|..|R-- .... ....|C-4 3F8A ....|--- .... ....
....|..|G#1 2F.A ....|R-- .... ....|G#5 UF.A ....
....|..|--- .... ....|C-4 3F8F ....|--- .... ....
....|..|G#1 2F.7 ....|F#4 3F.7 ....|E-5 UF.F ....
....|..|R-- .... ....|C-4 3F8A ....|R-- .... ....
....|..|G#1 2F.A ....|--- .... ....|F#5 UF.A ....
....|..|--- .... ....|C-4 3F8F ....|--- .... ....
 G#3|..|G#1 2A.F ....|R-- .... ....|D#5 UF.F ....
....|..|--- .... ....|C-4 3F8A ....|--- .... ....
....|..|R-- .... ....|R-- .... ....|E-5 UF.A ....
....|..|R-- .... ....|G#3 3F5F ....|R-- .... ....

[Pattern32]
 C#4|..|C#2 2A.F ....|R-- .... ....|E-5 UF.F ....
....|..|--- .... ....|C-4 3F8A ....|--- .... ....
....|..|G#1 2F.A ....|R-- .... ....|D#5 UF.A ....
....|..|--- .... ....|G#3 3F5F ....|--- .... ....
 C#4|..|C#2 2A.F ....|R-- .... ....|C#5 UF.F ....
....|..|R-- .... ....|G#3 3F5A ....|--- .... ....
....|..|C#2 2F.A ....|R-- .... ....|E-5 UF.A ....
....|..|--- .... ....|E-3 3FCF ....|--- .... ....
 C#4|..|C#2 2A.F ....|E-4 3F.F ....|D#5 UF.7 ....
....|..|--- .... ....|G#3 3F5A ....|--- .... ....
....|..|C#2 2F.A ....|R-- .... ....|C#5 UF.A ....
....|..|R-- .... ....|G#3 3F5F ....|--- .... ....
 C#4|..|C#2 2A.F ....|R-- .... ....|E-5 UF.7 ....
....|..|--- .... ....|E-3 3FCA ....|--- .... ....
....|..|C#2 2F.A ....|E-4 3F.A ....|--- .... ....
....|..|--- .... ....|B-3 3F6F ....|--- .... ....
 B-3|..|B-1 2A.F ....|R-- .... ....|C#5 UF.7 ....
....|..|--- .... ....|G#3 3F5A ....|--- .... ....
....|..|C#2 2F.A ....|R-- .... ....|--- .... ....
....|..|--- .... ....|B-3 3F6F ....|--- .... ....
 B-3|..|B-1 2A.F ....|E-4 3F.7 ....|--- .... ....
....|..|--- .... ....|B-3 3F6A ....|--- .... ....
....|..|B-1 2F.A ....|R-- .... ....|--- .... ....
....|..|--- .... ....|B-3 3F6F ....|--- .... ....
 B-3|..|B-1 2A.F ....|R-- .... ....|--- .... ....
....|..|--- .... ....|B-3 3F6A ....|R-- .... ....
....|..|B-1 2F.A ....|R-- .... ....|--- .... ....
....|..|--- .... ....|B-3 3F6F ....|--- .... ....
 B-3|..|B-1 2A.F ....|R-- .... ....|--- .... ....
....|..|--- .... ....|B-3 3F6A ....|--- .... ....
....|..|B-1 2F.A ....|R-- .... ....|--- .... ....
....|..|--- .... ....|A-3 3F6F ....|R-- .... ....
 A-3|..|A-1 2A.F ....|R-- .... ....|--- .... ....
....|..|--- .... ....|B-3 3F6A ....|--- .... ....
....|..|B-1 2F.A ....|R-- .... ....|--- .... ....
....|..|--- .... ....|A-3 3F6F ....|--- .... ....
 A-3|..|A-1 2A.F ....|R-- .... ....|--- .... ....
....|..|--- .... ....|A-3 3F6A ....|R-- .... ....
....|..|A-1 2F.A ....|R-- .... ....|--- .... ....
....|..|--- .... ....|E-3 3FEF ....|--- .... ....
 A-3|..|A-1 2A.F ....|E-4 3F.F ....|--- .... ....
....|..|--- .... ....|A-3 3F6A ....|--- .... ....
....|..|A-1 2F.A ....|R-- .... ....|--- .... ....
....|..|--- .... ....|A-3 3F6F ....|--- .... ....
 A-3|..|A-1 2A.F ....|R-- .... ....|E-5 UF.F ....
....|..|--- .... ....|E-3 3FEA ....|--- .... ....
....|..|A-1 2F.A ....|E-4 3F.A ....|R-- .... ....
....|..|--- .... ....|B-3 3F6F ....|--- .... ....
 B-3|..|B-1 2A.F ....|R-- .... ....|F#5 UF.F ....
....|..|--- .... ....|A-3 3F6A ....|--- .... ....
....|..|A-1 2F.A ....|R-- .... ....|E-5 UF.A ....
....|..|--- .... ....|B-3 3F6F ....|R-- .... ....
 B-3|..|B-1 2A.F ....|E-4 3F.7 ....|E-5 UF.F ....
....|..|--- .... ....|B-3 3F6A ....|--- .... ....
....|..|B-1 2F.A ....|R-- .... ....|F#5 UF.A ....
....|..|--- .... ....|B-3 3F6F ....|--- .... ....
 B-3|..|B-1 2A.F ....|R-- .... ....|D#5 UF.F ....
....|..|--- .... ....|B-3 3F6A ....|R-- .... ....
....|..|B-1 2F.A ....|R-- .... ....|E-5 UF.A ....
....|..|--- .... ....|B-3 3F6F ....|R-- .... ....
 B-3|..|B-1 2A.F ....|R-- .... ....|B-4 UF.F ....
....|..|--- .... ....|B-3 3F6A ....|--- .... ....
....|..|B-1 2F.A ....|R-- .... ....|D#5 UF.A ....
....|..|--- .... ....|G#3 3F5F ....|R-- .... ....

[Pattern33]
 C#4|..|C#2 2A.F ....|R-- .... ....|C#5 UF.F ....
....|..|--- .... ....|B-3 3F6A ....|R-- .... ....
....|..|B-1 2F.A ....|R-- .... ....|B-4 UF.A ....
....|..|--- .... ....|G#3 3F5F ....|--- .... ....
 C#4|..|C#2 2A.F ....|R-- .... ....|D#5 UF.7 ....
....|..|--- .... ....|G#3 3F5A ....|--- .... ....
....|..|C#2 2F.A ....|R-- .... ....|C#5 UF.A ....
....|..|--- .... ....|E-3 3FCF ....|R-- .... ....
 C#4|..|C#2 2A.F ....|E-4 3F.F ....|B-4 UF.7 ....
....|..|--- .... ....|G#3 3F5A ....|--- .... ....
....|..|C#2 2F.A ....|R-- .... ....|R-- .... ....
....|..|--- .... ....|G#3 3F5F ....|--- .... ....
 C#4|..|C#2 2A.F ....|R-- .... ....|C#5 UF.7 ....
....|..|--- .... ....|E-3 3FCA ....|--- .... ....
....|..|C#2 2F.A ....|E-4 3F.A ....|--- .... ....
....|..|--- .... ....|B-3 3F6F ....|--- .... ....
 B-3|..|B-1 2A.F ....|R-- .... ....|--- .... ....
....|..|--- .... ....|G#3 3F5A ....|--- .... ....
....|..|C#2 2F.A ....|R-- .... ....|--- .... ....
....|..|--- .... ....|B-3 3F6F ....|--- .... ....
 B-3|..|B-1 2A.F ....|E-4 3F.7 ....|--- .... ....
....|..|--- .... ....|B-3 3F6A ....|--- .... ....
....|..|B-1 2F.A ....|R-- .... ....|--- .... ....
....|..|--- .... ....|B-3 3F6F ....|--- .... ....
 B-3|..|B-1 2A.F ....|R-- .... ....|--- .... ....
....|..|--- .... ....|B-3 3F6A ....|--- .... ....
....|..|B-1 2F.A ....|R-- .... ....|--- .... ....
....|..|--- .... ....|B-3 3F6F ....|--- .... ....
 B-3|..|B-1 2A.F ....|R-- .... ....|--- .... ....
....|..|--- .... ....|B-3 3F6A ....|--- .... ....
....|..|B-1 2F.A ....|R-- .... ....|--- .... ....
....|..|--- .... ....|A-3 3F6F ....|--- .... ....
 A-3|..|A-1 2A.F ....|R-- .... ....|--- .... ....
....|..|--- .... ....|B-3 3F6A ....|--- .... ....
....|..|B-1 2F.A ....|R-- .... ....|--- .... ....
....|..|--- .... ....|A-3 3F6F ....|--- .... ....
 A-3|..|A-1 2A.F ....|R-- .... ....|--- .... ....
....|..|--- .... ....|A-3 3F6A ....|--- .... ....
....|..|A-1 2F.A ....|R-- .... ....|--- .... ....
....|..|--- .... ....|E-3 3FEF ....|R-- .... ....
 A-3|..|A-1 2A.F ....|E-4 3F.F ....|--- .... ....
....|..|--- .... ....|A-3 3F6A ....|--- .... ....
....|..|A-1 2F.A ....|R-- .... ....|--- .... ....
....|..|--- .... ....|A-3 3F6F ....|--- .... ....
 A-3|..|A-1 2A.F ....|R-- .... ....|E-5 UF.F ....
....|..|--- .... ....|E-3 3FEA ....|R-- .... ....
....|..|A-1 2F.A ....|E-4 3F.A ....|R-- .... ....
....|..|--- .... ....|B-3 3F6F ....|--- .... ....
 B-3|..|B-1 2A.F ....|R-- .... ....|F#5 UF.F ....
....|..|--- .... ....|A-3 3F6A ....|--- .... ....
....|..|A-1 2F.A ....|R-- .... ....|E-5 UF.A ....
....|..|--- .... ....|B-3 3F6F ....|R-- .... ....
 B-3|..|B-1 2A.F ....|E-4 3F.7 ....|E-5 UF.F ....
....|..|--- .... ....|B-3 3F6A ....|--- .... ....
....|..|B-1 2F.A ....|R-- .... ....|F#5 UF.A ....
....|..|--- .... ....|B-3 3F6F ....|R-- .... ....
 B-3|..|B-1 2A.F ....|R-- .... ....|D#5 UF.F ....
....|..|--- .... ....|B-3 3F6A ....|R-- .... ....
....|..|B-1 2F.A ....|R-- .... ....|E-5 UF.A ....
....|..|--- .... ....|B-3 3F6F ....|R-- .... ....
 B-3|..|B-1 2A.F ....|R-- .... ....|B-4 UF.F ....
....|..|--- .... ....|B-3 3F6A ....|R-- .... ....
....|..|B-1 2F.A ....|R-- .... ....|D#5 UF.A ....
....|..|--- .... ....|G#3 3F5F ....|R-- .... ....

[Pattern34]
 C#4|..|C#2 2A.F ....|R-- .... ....|C#5 UF.F ....
....|..|--- .... ....|B-3 3F6A ....|R-- .... ....
....|..|B-1 2F.A ....|R-- .... ....|B-4 UF.A ....
....|..|--- .... ....|E-3 3FCF ....|R-- .... ....
 C#4|..|C#2 2A.F ....|E-4 3F.F ....|D#5 UF.7 ....
....|..|--- .... ....|G#3 3F5A ....|--- .... ....
....|..|C#2 2F.A ....|R-- .... ....|C#5 UF.A ....
....|..|--- .... ....|G#3 3F5F ....|R-- .... ....
 C#4|..|C#2 2A.F ....|R-- .... ....|B-4 UF.7 ....
....|..|--- .... ....|E-3 3FCA ....|--- .... ....
....|..|C#2 2F.A ....|E-4 3F.A ....|R-- .... ....
....|..|--- .... ....|G#3 3F5F ....|--- .... ....
 C#4|..|C#2 2A.F ....|R-- .... ....|C#5 UF.7 ....
....|..|--- .... ....|G#3 3F5A ....|--- .... ....
....|..|C#2 2F.A ....|R-- .... ....|--- .... ....
....|..|--- .... ....|F#3 3FEF ....|--- .... ....
 B-3|..|B-1 2A.F ....|F#4 3F.F ....|--- .... ....
....|..|--- .... ....|G#3 3F5A ....|--- .... ....
....|..|C#2 2F.A ....|R-- .... ....|--- .... ....
....|..|--- .... ....|B-3 3F6F ....|--- .... ....
 B-3|..|B-1 2A.F ....|R-- .... ....|--- .... ....
....|..|--- .... ....|F#3 3FEA ....|--- .... ....
....|..|B-1 2F.A ....|F#4 3F.A ....|--- .... ....
....|..|--- .... ....|B-3 3F6F ....|--- .... ....
 B-3|..|B-1 2A.F ....|R-- .... ....|--- .... ....
....|..|--- .... ....|B-3 3F6A ....|--- .... ....
....|..|B-1 2F.A ....|R-- .... ....|--- .... ....
....|..|--- .... ....|B-3 3F6F ....|--- .... ....
 B-3|..|B-1 2A.F ....|F#4 3F.7 ....|--- .... ....
....|..|--- .... ....|B-3 3F6A ....|--- .... ....
....|..|B-1 2F.A ....|R-- .... ....|--- .... ....
....|..|--- .... ....|A-3 3F6F ....|--- .... ....
 A-3|..|A-1 2A.F ....|R-- .... ....|--- .... ....
....|..|--- .... ....|B-3 3F6A ....|--- .... ....
....|..|B-1 2F.A ....|R-- .... ....|--- .... ....
....|..|--- .... ....|E-3 3FEF ....|--- .... ....
 A-3|..|A-1 2A.F ....|E-4 3F.F ....|--- .... ....
....|..|--- .... ....|A-3 3F6A ....|--- .... ....
....|..|A-1 2F.A ....|R-- .... ....|--- .... ....
....|..|--- .... ....|E-3 3FEF ....|R-- .... ....
 A-3|..|A-1 2A.F ....|E-4 3F.F ....|--- .... ....
....|..|--- .... ....|E-3 3FEA ....|--- .... ....
....|..|A-1 2F.A ....|E-4 3F.A ....|--- .... ....
....|..|--- .... ....|A-3 3F6F ....|--- .... ....
 A-3|..|A-1 2A.F ....|R-- .... ....|E-5 UF.F ....
....|..|--- .... ....|E-3 3FEA ....|R-- .... ....
....|..|A-1 2F.A ....|E-4 3F.A ....|R-- .... ....
....|..|--- .... ....|B-3 3F6F ....|--- .... ....
 B-3|..|B-1 2A.F ....|E-4 3F.7 ....|F#5 UF.F ....
....|..|--- .... ....|A-3 3F6A ....|--- .... ....
....|..|A-1 2F.A ....|R-- .... ....|E-5 UF.A ....
....|..|--- .... ....|B-3 3F6F ....|R-- .... ....
 B-3|..|B-1 2A.F ....|E-4 3F.7 ....|E-5 UF.F ....
....|..|--- .... ....|B-3 3F6A ....|--- .... ....
....|..|B-1 2F.A ....|R-- .... ....|F#5 UF.A ....
....|..|--- .... ....|B-3 3F6F ....|--- .... ....
 B-3|..|B-1 2A.F ....|R-- .... ....|F#5 UF.F ....
....|..|--- .... ....|B-3 3F6A ....|R-- .... ....
....|..|B-1 2F.A ....|R-- .... ....|E-5 UF.A ....
....|..|--- .... ....|B-3 3F6F ....|R-- .... ....
 B-3|..|B-1 2A.F ....|R-- .... ....|E-5 UF.F ....
....|..|--- .... ....|B-3 3F6A ....|--- .... ....
....|..|B-1 2F.A ....|R-- .... ....|F#5 UF.A ....
....|..|--- .... ....|E-3 3FFF ....|R-- .... ....

[Pattern35]
 A-3|..|A-1 2A.F ....|C#4 3F.F ....|G#5 UF.F ....
....|..|--- .... ....|B-3 3F6A ....|R-- .... ....
....|..|B-1 2F.A ....|R-- .... ....|E-5 UF.A ....
....|..|--- .... ....|E-3 3F.F ....|--- .... ....
 A-3|..|A-1 2A.F ....|R-- .... ....|F#5 UF.7 ....
....|..|--- .... ....|E-3 3FFA ....|--- .... ....
....|..|A-1 2F.A ....|C#4 3F.A ....|G#5 UF.A ....
....|..|--- .... ....|E-3 3F.F ....|R-- .... ....
 A-3|..|A-1 2A.F ....|R-- .... ....|E-5 UF.7 ....
....|..|--- .... ....|E-3 3F.A ....|--- .... ....
....|..|A-1 2F.A ....|R-- .... ....|R-- .... ....
....|..|--- .... ....|E-3 3F.F ....|--- .... ....
 A-3|..|A-1 2A.F ....|C#4 3F.7 ....|G#5 UF.7 ....
....|..|--- .... ....|E-3 3F.A ....|--- .... ....
....|..|A-1 2F.A ....|R-- .... ....|--- .... ....
....|..|--- .... ....|E-3 3F.F ....|--- .... ....
 A-3|..|A-1 2A.F ....|R-- .... ....|--- .... ....
....|..|--- .... ....|E-3 3F.A ....|--- .... ....
....|..|A-1 2F.A ....|R-- .... ....|--- .... ....
....|..|--- .... ....|E-3 3F.F ....|--- .... ....
 A-3|..|A-1 2A.F ....|R-- .... ....|--- .... ....
....|..|--- .... ....|E-3 3F.A ....|--- .... ....
....|..|A-1 2F.A ....|R-- .... ....|--- .... ....
....|..|--- .... ....|E-3 3F.F ....|--- .... ....
 A-3|..|A-1 2A.F ....|R-- .... ....|--- .... ....
....|..|--- .... ....|E-3 3F.A ....|--- .... ....
....|..|A-1 2F.A ....|R-- .... ....|--- .... ....
....|..|--- .... ....|E-3 3FFF ....|--- .... ....
 A-3|..|A-1 2A.F ....|C#4 3F.F ....|--- .... ....
....|..|--- .... ....|E-3 3F.A ....|--- .... ....
....|..|A-1 2F.A ....|R-- .... ....|--- .... ....
....|..|--- .... ....|E-3 3F.F ....|--- .... ....
 A-3|..|A-1 2A.F ....|R-- .... ....|--- .... ....
....|..|--- .... ....|E-3 3FFA ....|--- .... ....
....|..|A-1 2F.A ....|C#4 3F.A ....|--- .... ....
....|..|--- .... ....|E-3 3FFF ....|--- .... ....
 A-3|..|A-1 2A.F ....|C#4 3F.F ....|--- .... ....
....|..|--- .... ....|E-3 3F.A ....|--- .... ....
....|..|A-1 2F.A ....|R-- .... ....|--- .... ....
....|..|--- .... ....|E-3 3F.F ....|--- .... ....
 A-3|..|A-1 2A.F ....|C#4 3F.7 ....|--- .... ....
....|..|--- .... ....|E-3 3FFA ....|--- .... ....
....|..|A-1 2F.A ....|C#4 3F.A ....|--- .... ....
....|..|--- .... ....|E-3 3F.F ....|--- .... ....
 A-3|..|A-1 2A.F ....|R-- .... ....|--- .... ....
....|..|--- .... ....|E-3 3F.A ....|--- .... ....
....|..|A-1 2F.A ....|R-- .... ....|--- .... ....
....|..|--- .... ....|E-3 3FF7 ....|--- .... ....
 A-3|..|A-1 2A.F ....|C#4 3F.7 ....|--- .... ....
....|..|--- .... ....|E-3 3F.A ....|--- .... ....
....|..|A-1 2F.A ....|R-- .... ....|--- .... ....
....|..|--- .... ....|E-3 3F.F ....|--- .... ....
 A-3|..|A-1 2A.F ....|R-- .... ....|--- .... ....
....|..|--- .... ....|--- .... ....|--- .... ....
....|..|A-1 2F.A ....|--- .... ....|--- .... ....
....|..|--- .... ....|E-3 3FFF ....|--- .... ....
 A-3|..|A-1 2A.F ....|C#4 3F.F ....|--- .... ....
....|..|--- .... ....|E-3 3F.A ....|--- .... ....
....|..|A-1 2F.A ....|--- .... ....|--- .... ....
....|..|--- .... ....|E-3 3FFF ....|--- .... ....
 A-3|..|A-1 2A.F ....|C#4 3F.F ....|--- .... ....
....|..|--- .... ....|E-3 3FFA ....|--- .... ....
....|..|A-1 2F.A ....|C#4 3F.A ....|--- .... ....
....|..|--- .... ....|G#3 3F5F ....|--- .... ....

[Pattern36]
 C#4|..|C#2 2A.F ....|R-- .... ....|R-- .... ....
....|..|--- .... ....|E-3 3FFA ....|--- .... ....
....|..|A-1 2F.A ....|C#4 3F.A ....|--- .... ....
....|..|--- .... ....|E-3 3FF7 ....|--- .... ....
....|..|A-1 2F.7 ....|C#4 3F.7 ....|--- .... ....
....|..|--- .... ....|G#3 3F5A ....|--- .... ....
....|..|C#2 2F.A ....|R-- .... ....|R-- .... ....
....|..|--- .... ....|E-3 3FF7 ....|--- .... ....
....|..|A-1 2F.7 ....|C#4 3F.7 ....|--- .... ....
....|..|--- .... ....|R-- .... ....|--- .... ....
....|..|--- .... ....|--- .... ....|--- .... ....
....|..|--- .... ....|G#3 3F57 ....|--- .... ....
....|..|C#2 2F.7 ....|R-- .... ....|R-- .... ....
....|..|--- .... ....|--- .... ....|--- .... ....
....|..|--- .... ....|--- .... ....|--- .... ....
....|..|--- .... ....|--- .... ....|--- .... ....
....|..|--- .... ....|--- .... ....|--- .... ....
....|..|--- .... ....|--- .... ....|--- .... ....
....|..|--- .... ....|--- .... ....|--- .... ....
....|..|--- .... ....|--- .... ....|--- .... ....
....|..|--- .... ....|--- .... ....|--- .... ....
....|..|--- .... ....|--- .... ....|--- .... ....
....|..|--- .... ....|--- .... ....|--- .... ....
....|..|--- .... ....|--- .... ....|--- .... ....
....|..|--- .... ....|--- .... ....|--- .... ....
....|..|R-- .... ....|--- .... ....|--- .... ....
....|..|--- .... ....|--- .... ....|--- .... ....
....|..|--- .... ....|--- .... ....|--- .... ....
....|..|--- .... ....|--- .... ....|--- .... ....
....|..|--- .... ....|--- .... ....|--- .... ....
....|..|--- .... ....|--- .... ....|--- .... ....
....|..|R-- .... ....|--- .... ....|--- .... ....
....|..|--- .... ....|--- .... ....|--- .... ....
....|..|--- .... ....|--- .... ....|--- .... ....
....|..|--- .... ....|--- .... ....|--- .... ....
....|..|--- .... ....|--- .... ....|--- .... ....
....|..|--- .... ....|--- .... ....|--- .... ....
