[Module]
VortexTrackerII=0
Version=3.5
Title=1d-2me,3m[u]+6m,4p
Author=oisee ^ 4d 29.05.2010
NoteTable=4
ChipFreq=1750000
Speed=4
PlayOrder=L0,1,2,3,4,5,6,7,8,9,10,11,12,13,14,15,16,17,18,19,20,21,22,23,24,25,26,27,28,29,30,31,32,33,34,35,36,37,38,39,40,41,42,43,44,45,46,47,9,10,11,12,52,53,54,55,56,57,58,59,60,61

[Ornament1]
L0,0,2,2

[Ornament2]
L0,0,3,3

[Ornament3]
L0,0,2,2,5,5

[Ornament4]
L0,0,1,1,3,3

[Ornament5]
L0,0,2,2,4,4

[Ornament6]
L0,0,1,1,3,3,4,4

[Ornament7]
L0,0,1,1

[Ornament8]
L0,0,2,2,3,3,5,5

[Ornament9]
L0,0,3,3,5,5

[Ornament10]
L0,0,2,2,3,3

[Ornament11]
L0,0,3,3,6,6

[Ornament12]
L0

[Ornament13]
L0

[Ornament14]
L0

[Ornament15]
L0

[Sample1]
TnE +000_ +00_ F_
TnE +000_ +00_ F_
TnE +000_ +00_ F_
TnE +000_ +00_ D_
TnE +000_ +00_ B_
TnE +000_ +00_ B_ L

[Sample2]
TnE +000_ +00_ F_ L

[Sample3]
TnE +000_ +00_ F_
TnE +000_ +00_ F_
TnE +001_ +00_ E_
TnE +002_ +00_ E_
TnE +000_ +00_ E_ L
TnE -001_ +00_ E_
TnE -002_ +00_ E_
TnE -001_ +00_ E_
TnE +000_ +00_ E_
TnE +001_ +00_ E_
TnE +002_ +00_ E_
TnE +001_ +00_ E_

[Sample4]
TnE +002_ +00_ D_
TnE +002_ +00_ D_
TnE +002_ +00_ C_
TnE +002_ +00_ B_
TnE +002_ +00_ A_ L
TnE +002_ +00_ A_
TnE +002_ +00_ A_
TnE +002_ +00_ A_
TnE +002_ +00_ A_
TnE +002_ +00_ A_
TnE +002_ +00_ A_
TnE +002_ +00_ A_

[Sample5]
TnE +000_ +00_ F_
TnE +000_ +00_ F_
tne +000_ +00_ 0_ L

[Sample6]
TnE -001_ +00_ F_ L

[Sample7]
TnE +006_ +00_ F_ L

[Sample8]
tNe +000_ +00_ F_
tNe +000_ +00_ B_
tNe +000_ +00_ 7_
tNe +000_ +00_ 6- L

[Sample9]
TnE +080_ +00_ F_
TnE +100_ +00_ E_
TnE +180_ +00_ E_
TnE +200_ +00_ E_
TnE +240_ +00_ D_
TnE +280_ +00_ D_
TnE +2C0_ +00_ D_
TnE +300_ +00_ C_
TnE +300_ +00_ C_
TnE +340_ +00_ C_
TnE +340_ +00_ C_
TnE +380_ +00_ B_
TnE +380_ +00_ B_
TnE +400_ +00_ B_
TnE +400_ +00_ B_
TnE +480_ +00_ A_
TnE +500_ +00_ 9_
TnE +580_ +00_ 7_
TnE +600_ +00_ 4_
TnE +680_ +00_ 1_
TnE +000_ +00_ 0_ L

[Sample10]
Tne +1C0_ +00_ F_
Tne +280_ +00_ E_
Tne +380_ +00_ C_
Tne +440_ +00_ A_
Tne +480_ +00_ 8_
TnE +000_ +00_ 0_ L

[Sample11]
TNe +200_ -0A_ F_
tNe +000_ +0F_ A_
TNe +200_ -07_ E_
tNe +000_ +0E_ B- L

[Sample12]
TNE +0A0_ +05_ F_
TNE +140_ +02_ D_
TNE +140_ +02_ B_
TNE +100_ +00_ A_ L
TNE +140_ +00_ A_
TNE +200_ +00_ A-

[Sample13]
Tne +200_ +00_ F_
Tne +2C0_ +00_ F_
Tne +380_ +00_ E_
Tne +500_ +00_ C_
Tne +520_ +00_ 9_
tne +000_ +00_ 0_ L

[Sample14]
TNE -100_ +00_ F_
TNE -100_ +00_ D_
TNE -100_ +00_ A_
TNE -100_ +00_ 5_
tne +000_ +00_ 0_ L

[Sample15]
TNE -100_ +00_ 5_
TNE -100_ +00_ 8_
TNE -100_ +00_ B_
TNE -100_ +00_ F_
TNe -100_ +00_ 9- L

[Sample16]
TnE +000_ +00_ C_
TnE +000_ +00_ E_
TnE +000_ +00_ F_
TnE +000_ +00_ F_
TnE +000_ +00_ E_
TnE +000_ +00_ D_
TnE +000_ +00_ C_
TnE +000_ +00_ C_ L
TnE +001_ +00_ C_
TnE +002_ +00_ C_
TnE +003_ +00_ C_
TnE +001_ +00_ C_
TnE +000_ +00_ C_
TnE -001_ +00_ C_
TnE -002_ +00_ C_
TnE -003_ +00_ C_
TnE -001_ +00_ C_
TnE +000_ +00_ C_
TnE +000_ +00_ C_

[Sample17]
Tne +1C0_ +00_ F_
Tne +280_ +00_ D_
Tne +380_ +00_ 7_
TNE +000_ +00_ 0_ L

[Sample18]
TnE -00C_ +00_ 0_ L

[Sample19]
TNe +000_ +00_ F_
TNe +000_ +00_ C_
TNe +000_ +00_ 6_
TNe +000_ +01_ A- L

[Sample20]
TNE +140_ +00_ F_
tNE +000_ +00_ B- L

[Sample21]
tNE +000_ +00_ D_
tNE +000_ +00_ 8_
tNE +000_ +00_ 1_
TNE +000_ +00_ 0_ L

[Sample22]
TnE +000_ +00_ D_ L
TnE +000_ +00_ D_
tne +000_ +00_ 9_
tne +000_ +00_ 9_
TnE +000_ +00_ D_
TnE +000_ +00_ D_
tne +000_ +00_ 9_
tne +000_ +00_ 9_
TnE +000_ +00_ D_
TnE +000_ +00_ D_
TnE +000_ +00_ D_
TnE +000_ +00_ D_
TnE +000_ +00_ D_
TnE +000_ +00_ D_
tne +000_ +00_ 9_
tne +000_ +00_ 9_

[Sample23]
TnE +000_ +00_ F_ L
TnE +010_ +01_ F_
TnE +010_ +01_ F_
TnE +010_ +01_ F_
TnE +010_ +01_ F_
TnE +000_ +00_ F_
TnE +000_ +00_ F_
TnE -010_ -01_ F_
TnE -010_ -01_ F_
TnE -010_ -01_ F_
TnE -010_ -01_ F_
TnE +000_ +00_ F_

[Sample24]
TNe +000_ -01_ C_
TNe +000_ -01_ D_
TNe +000_ -01_ E_
TNe +000_ -01_ F_
TNe +000_ -01_ F_
TNe +000_ -01_ F_
TNe +000_ -01_ F_
TNe +000_ -01_ F_
TNe +000_ -01_ E_
TNe +000_ -01_ E_
TNe +000_ -01_ E_
TNe +000_ -01_ F_
TNe +000_ -01_ F_ L

[Sample25]
TNE +000_ +00_ F_
TNE +000_ +00_ F_ L
TNE +000_ +00_ F_
TNE +000_ +00_ F_
TNE +000_ +00_ F-

[Sample26]
tne +000_ +00_ 0_ L

[Sample27]
TnE +100_ +05_ F_
TnE +200_ +02_ A_
TnE +300_ +02_ 7_
TNE +400_ +00_ 3- L

[Sample28]
tne +000_ +00_ 0_ L

[Sample29]
tnE +000_ +00_ 0_ L

[Sample30]
TNE +000_ +00_ F_
TnE +000_ +00_ F_
TnE +001_ +00_ E_
TnE +002_ +00_ E_
TnE +000_ +00_ E_ L
TnE -001_ +00_ E_
TnE -002_ +00_ E_
TnE -001_ +00_ E_
TnE +000_ +00_ E_
TnE +001_ +00_ E_
TnE +002_ +00_ E_
TnE +001_ +00_ E_

[Sample31]
TNe +1C0_ +00_ F_
Tne +280_ +00_ E_
Tne +380_ +00_ C_
Tne +440_ +00_ A_
Tne +480_ +00_ 8_
TnE +000_ +00_ 0_ L

[Pattern0]
....|..|--- .... ....|--- .... ....|--- .... ....
....|..|--- .... ....|--- .... ....|--- .... ....
....|..|--- .... ....|--- .... ....|--- .... ....
....|..|--- .... ....|--- .... ....|--- .... ....
....|..|--- .... ....|--- .... ....|--- .... ....
....|..|--- .... ....|--- .... ....|--- .... ....
....|..|--- .... ....|--- .... ....|--- .... ....
....|..|--- .... ....|--- .... ....|--- .... ....
....|..|--- .... ....|--- .... ....|--- .... ....
....|..|--- .... ....|--- .... ....|--- .... ....
....|..|--- .... ....|--- .... ....|--- .... ....
....|..|--- .... ....|--- .... ....|--- .... ....
....|..|--- .... ....|--- .... ....|--- .... ....
....|..|--- .... ....|--- .... ....|--- .... ....
....|..|--- .... ....|--- .... ....|--- .... ....
....|..|--- .... ....|--- .... ....|--- .... ....
....|..|--- .... ....|--- .... ....|--- .... ....
....|..|--- .... ....|--- .... ....|--- .... ....
....|..|--- .... ....|--- .... ....|--- .... ....
....|..|--- .... ....|--- .... ....|--- .... ....
....|..|--- .... ....|--- .... ....|--- .... ....
....|..|--- .... ....|--- .... ....|--- .... ....
....|..|--- .... ....|--- .... ....|--- .... ....
....|..|--- .... ....|--- .... ....|--- .... ....
....|..|--- .... ....|A-5 UF.F ....|--- .... ....
....|..|--- .... ....|--- .... ....|--- .... ....
....|..|--- .... ....|R-- .... ....|--- .... ....
....|..|--- .... ....|--- .... ....|--- .... ....
....|..|--- .... ....|--- .... ....|--- .... ....
....|..|--- .... ....|--- .... ....|--- .... ....
....|..|--- .... ....|--- .... ....|--- .... ....
....|..|--- .... ....|--- .... ....|--- .... ....
....|..|--- .... ....|--- .... ....|--- .... ....
....|..|--- .... ....|--- .... ....|--- .... ....
....|..|--- .... ....|--- .... ....|--- .... ....
....|..|--- .... ....|--- .... ....|--- .... ....
....|..|--- .... ....|A-5 UF.F ....|--- .... ....
....|..|--- .... ....|--- .... ....|--- .... ....
....|..|--- .... ....|R-- .... ....|--- .... ....
....|..|--- .... ....|--- .... ....|--- .... ....
....|..|--- .... ....|--- .... ....|--- .... ....
....|..|--- .... ....|--- .... ....|--- .... ....
....|..|--- .... ....|--- .... ....|--- .... ....
....|..|--- .... ....|--- .... ....|--- .... ....
....|..|--- .... ....|--- .... ....|--- .... ....
....|..|--- .... ....|--- .... ....|--- .... ....
....|..|--- .... ....|--- .... ....|--- .... ....
....|..|--- .... ....|--- .... ....|--- .... ....
....|..|--- .... ....|A-5 UF.F ....|--- .... ....
....|..|--- .... ....|--- .... ....|--- .... ....
....|..|--- .... ....|R-- .... ....|--- .... ....
....|..|--- .... ....|--- .... ....|--- .... ....
....|..|--- .... ....|--- .... ....|--- .... ....
....|..|--- .... ....|--- .... ....|--- .... ....
....|..|--- .... ....|--- .... ....|--- .... ....
....|..|--- .... ....|--- .... ....|--- .... ....
....|..|--- .... ....|--- .... ....|--- .... ....
....|..|--- .... ....|--- .... ....|--- .... ....
....|..|--- .... ....|--- .... ....|--- .... ....
....|..|--- .... ....|--- .... ....|--- .... ....
....|..|--- .... ....|A-5 UF.F ....|--- .... ....
....|..|--- .... ....|--- .... ....|--- .... ....
....|..|--- .... ....|R-- .... ....|--- .... ....
....|..|--- .... ....|--- .... ....|--- .... ....

[Pattern1]
....|..|--- .... ....|--- .... ....|--- .... ....
....|..|--- .... ....|--- .... ....|--- .... ....
....|..|--- .... ....|--- .... ....|--- .... ....
....|..|--- .... ....|--- .... ....|--- .... ....
....|..|--- .... ....|--- .... ....|--- .... ....
....|..|--- .... ....|--- .... ....|--- .... ....
....|..|--- .... ....|--- .... ....|--- .... ....
....|..|--- .... ....|--- .... ....|--- .... ....
....|..|--- .... ....|A-5 UF.F ....|--- .... ....
....|..|--- .... ....|--- .... ....|--- .... ....
....|..|--- .... ....|R-- .... ....|--- .... ....
....|..|--- .... ....|--- .... ....|--- .... ....
....|..|--- .... ....|--- .... ....|--- .... ....
....|..|--- .... ....|--- .... ....|--- .... ....
....|..|--- .... ....|--- .... ....|--- .... ....
....|..|--- .... ....|--- .... ....|--- .... ....
....|..|--- .... ....|--- .... ....|--- .... ....
....|..|--- .... ....|--- .... ....|--- .... ....
....|..|--- .... ....|--- .... ....|--- .... ....
....|..|--- .... ....|--- .... ....|--- .... ....
....|..|--- .... ....|A-5 UF.F ....|--- .... ....
....|..|--- .... ....|--- .... ....|--- .... ....
....|..|--- .... ....|R-- .... ....|--- .... ....
....|..|--- .... ....|--- .... ....|--- .... ....
....|..|--- .... ....|--- .... ....|--- .... ....
....|..|--- .... ....|--- .... ....|--- .... ....
....|..|--- .... ....|--- .... ....|--- .... ....
....|..|--- .... ....|--- .... ....|--- .... ....
....|..|--- .... ....|--- .... ....|--- .... ....
....|..|--- .... ....|--- .... ....|--- .... ....
....|..|--- .... ....|--- .... ....|--- .... ....
....|..|--- .... ....|--- .... ....|--- .... ....
....|..|--- .... ....|A-5 UF.F ....|--- .... ....
....|..|--- .... ....|--- .... ....|--- .... ....
....|..|--- .... ....|R-- .... ....|--- .... ....
....|..|--- .... ....|--- .... ....|--- .... ....
....|..|--- .... ....|--- .... ....|--- .... ....
....|..|--- .... ....|--- .... ....|--- .... ....
....|..|--- .... ....|--- .... ....|--- .... ....
....|..|--- .... ....|--- .... ....|--- .... ....
....|..|--- .... ....|--- .... ....|--- .... ....
....|..|--- .... ....|--- .... ....|--- .... ....
....|..|--- .... ....|--- .... ....|--- .... ....
....|..|--- .... ....|--- .... ....|--- .... ....
....|..|--- .... ....|A-5 UF.F ....|--- .... ....
....|..|--- .... ....|--- .... ....|--- .... ....
....|..|--- .... ....|R-- .... ....|--- .... ....
....|..|--- .... ....|--- .... ....|--- .... ....
....|..|--- .... ....|--- .... ....|--- .... ....
....|..|--- .... ....|--- .... ....|--- .... ....
....|..|--- .... ....|--- .... ....|--- .... ....
....|..|--- .... ....|--- .... ....|--- .... ....
....|..|--- .... ....|--- .... ....|--- .... ....
....|..|--- .... ....|--- .... ....|--- .... ....
....|..|--- .... ....|--- .... ....|--- .... ....
....|..|--- .... ....|--- .... ....|--- .... ....
....|..|--- .... ....|C#6 UF.F ....|--- .... ....
....|..|--- .... ....|--- .... ....|--- .... ....
....|..|--- .... ....|R-- .... ....|--- .... ....
....|..|--- .... ....|R-- .... ....|--- .... ....
....|..|--- .... ....|--- .... ....|--- .... ....
....|..|--- .... ....|--- .... ....|--- .... ....
....|..|--- .... ....|--- .... ....|--- .... ....
....|..|--- .... ....|--- .... ....|--- .... ....

[Pattern2]
....|..|--- .... ....|--- .... ....|--- .... ....
....|..|--- .... ....|--- .... ....|--- .... ....
....|..|--- .... ....|--- .... ....|--- .... ....
....|..|--- .... ....|--- .... ....|--- .... ....
....|..|--- .... ....|A-5 UF.7 ....|--- .... ....
....|..|--- .... ....|--- .... ....|--- .... ....
....|..|--- .... ....|R-- .... ....|--- .... ....
....|..|--- .... ....|R-- .... ....|--- .... ....
....|..|--- .... ....|--- .... ....|--- .... ....
....|..|--- .... ....|--- .... ....|--- .... ....
....|..|--- .... ....|--- .... ....|--- .... ....
....|..|--- .... ....|--- .... ....|--- .... ....
....|..|--- .... ....|--- .... ....|--- .... ....
....|..|--- .... ....|--- .... ....|--- .... ....
....|..|--- .... ....|--- .... ....|--- .... ....
....|..|--- .... ....|--- .... ....|--- .... ....
....|..|--- .... ....|C#6 UF.F ....|--- .... ....
....|..|--- .... ....|--- .... ....|--- .... ....
....|..|--- .... ....|R-- .... ....|--- .... ....
....|..|--- .... ....|R-- .... ....|--- .... ....
....|..|--- .... ....|--- .... ....|--- .... ....
....|..|--- .... ....|--- .... ....|--- .... ....
....|..|--- .... ....|--- .... ....|--- .... ....
....|..|--- .... ....|--- .... ....|--- .... ....
....|..|--- .... ....|--- .... ....|--- .... ....
....|..|--- .... ....|--- .... ....|--- .... ....
....|..|--- .... ....|--- .... ....|--- .... ....
....|..|--- .... ....|--- .... ....|--- .... ....
....|..|--- .... ....|C#6 UF.F ....|--- .... ....
....|..|--- .... ....|--- .... ....|--- .... ....
....|..|--- .... ....|R-- .... ....|--- .... ....
....|..|--- .... ....|R-- .... ....|--- .... ....
....|..|--- .... ....|--- .... ....|--- .... ....
....|..|--- .... ....|--- .... ....|--- .... ....
....|..|--- .... ....|--- .... ....|--- .... ....
....|..|--- .... ....|--- .... ....|--- .... ....
....|..|--- .... ....|--- .... ....|--- .... ....
....|..|--- .... ....|--- .... ....|--- .... ....
....|..|--- .... ....|--- .... ....|--- .... ....
....|..|--- .... ....|--- .... ....|--- .... ....
....|..|--- .... ....|C#6 UF.7 ....|--- .... ....
....|..|--- .... ....|--- .... ....|--- .... ....
....|..|--- .... ....|R-- .... ....|--- .... ....
....|..|--- .... ....|R-- .... ....|--- .... ....
....|..|--- .... ....|--- .... ....|--- .... ....
....|..|--- .... ....|--- .... ....|--- .... ....
....|..|--- .... ....|--- .... ....|--- .... ....
....|..|--- .... ....|--- .... ....|--- .... ....
....|..|--- .... ....|--- .... ....|--- .... ....
....|..|--- .... ....|--- .... ....|--- .... ....
....|..|--- .... ....|--- .... ....|--- .... ....
....|..|--- .... ....|--- .... ....|--- .... ....
....|..|--- .... ....|C#6 UF.7 ....|--- .... ....
....|..|--- .... ....|--- .... ....|--- .... ....
....|..|--- .... ....|--- .... ....|--- .... ....
....|..|--- .... ....|R-- .... ....|--- .... ....
....|..|--- .... ....|B-5 UF.F ....|--- .... ....
....|..|--- .... ....|--- .... ....|--- .... ....
....|..|--- .... ....|R-- .... ....|--- .... ....
....|..|--- .... ....|--- .... ....|--- .... ....
....|..|--- .... ....|A-5 UF.F ....|--- .... ....
....|..|--- .... ....|R-- .... ....|--- .... ....
....|..|--- .... ....|--- .... ....|--- .... ....
....|..|--- .... ....|--- .... ....|--- .... ....

[Pattern3]
....|..|--- .... ....|B-5 UF.F ....|--- .... ....
....|..|--- .... ....|--- .... ....|--- .... ....
....|..|--- .... ....|R-- .... ....|--- .... ....
....|..|--- .... ....|--- .... ....|--- .... ....
....|..|--- .... ....|B-5 UF.A ....|--- .... ....
....|..|--- .... ....|--- .... ....|--- .... ....
....|..|--- .... ....|R-- .... ....|--- .... ....
....|..|--- .... ....|--- .... ....|--- .... ....
....|..|--- .... ....|A-5 UF.A ....|--- .... ....
....|..|--- .... ....|R-- .... ....|--- .... ....
....|..|--- .... ....|--- .... ....|--- .... ....
....|..|--- .... ....|--- .... ....|--- .... ....
....|..|--- .... ....|B-5 UF.A ....|--- .... ....
....|..|--- .... ....|--- .... ....|--- .... ....
....|..|--- .... ....|R-- .... ....|--- .... ....
....|..|--- .... ....|--- .... ....|--- .... ....
....|..|--- .... ....|B-5 UF.7 ....|--- .... ....
....|..|--- .... ....|--- .... ....|--- .... ....
....|..|--- .... ....|R-- .... ....|--- .... ....
....|..|--- .... ....|--- .... ....|--- .... ....
....|..|--- .... ....|A-5 UF.7 ....|--- .... ....
....|..|--- .... ....|R-- .... ....|--- .... ....
....|..|--- .... ....|--- .... ....|--- .... ....
....|..|--- .... ....|--- .... ....|--- .... ....
....|..|--- .... ....|A-5 UF.F ....|--- .... ....
....|..|--- .... ....|--- .... ....|--- .... ....
....|..|--- .... ....|R-- .... ....|--- .... ....
....|..|--- .... ....|--- .... ....|--- .... ....
....|..|--- .... ....|--- .... ....|--- .... ....
....|..|--- .... ....|--- .... ....|--- .... ....
....|..|--- .... ....|--- .... ....|--- .... ....
....|..|--- .... ....|--- .... ....|--- .... ....
....|..|--- .... ....|--- .... ....|--- .... ....
....|..|--- .... ....|--- .... ....|--- .... ....
....|..|--- .... ....|--- .... ....|--- .... ....
....|..|--- .... ....|--- .... ....|--- .... ....
....|..|--- .... ....|F#5 UF.F ....|--- .... ....
....|..|--- .... ....|--- .... ....|--- .... ....
....|..|--- .... ....|R-- .... ....|--- .... ....
....|..|--- .... ....|R-- .... ....|--- .... ....
....|..|--- .... ....|--- .... ....|--- .... ....
....|..|--- .... ....|--- .... ....|--- .... ....
....|..|--- .... ....|--- .... ....|--- .... ....
....|..|--- .... ....|--- .... ....|--- .... ....
....|..|--- .... ....|--- .... ....|--- .... ....
....|..|--- .... ....|--- .... ....|--- .... ....
....|..|--- .... ....|--- .... ....|--- .... ....
....|..|--- .... ....|--- .... ....|--- .... ....
....|..|--- .... ....|A-5 UF.7 ....|--- .... ....
....|..|--- .... ....|--- .... ....|--- .... ....
....|..|--- .... ....|R-- .... ....|--- .... ....
....|..|--- .... ....|R-- .... ....|--- .... ....
....|..|--- .... ....|--- .... ....|--- .... ....
....|..|--- .... ....|--- .... ....|--- .... ....
....|..|--- .... ....|--- .... ....|--- .... ....
....|..|--- .... ....|--- .... ....|--- .... ....
....|..|--- .... ....|--- .... ....|--- .... ....
....|..|--- .... ....|--- .... ....|--- .... ....
....|..|--- .... ....|--- .... ....|--- .... ....
....|..|--- .... ....|--- .... ....|--- .... ....
....|..|--- .... ....|G#5 UF.F ....|--- .... ....
....|..|--- .... ....|--- .... ....|--- .... ....
....|..|--- .... ....|--- .... ....|--- .... ....
....|..|--- .... ....|R-- .... ....|--- .... ....

[Pattern4]
....|..|--- .... ....|--- .... ....|--- .... ....
....|..|--- .... ....|--- .... ....|--- .... ....
....|..|--- .... ....|--- .... ....|--- .... ....
....|..|--- .... ....|--- .... ....|--- .... ....
....|..|--- .... ....|A-5 UF.F ....|--- .... ....
....|..|--- .... ....|R-- .... ....|--- .... ....
....|..|--- .... ....|--- .... ....|--- .... ....
....|..|--- .... ....|--- .... ....|--- .... ....
....|..|--- .... ....|A-5 UF.F ....|--- .... ....
....|..|--- .... ....|--- .... ....|--- .... ....
....|..|--- .... ....|--- .... ....|--- .... ....
....|..|--- .... ....|R-- .... ....|--- .... ....
....|..|--- .... ....|--- .... ....|--- .... ....
....|..|--- .... ....|--- .... ....|--- .... ....
....|..|--- .... ....|--- .... ....|--- .... ....
....|..|--- .... ....|--- .... ....|--- .... ....
....|..|--- .... ....|A-5 UF.A ....|--- .... ....
....|..|--- .... ....|R-- .... ....|--- .... ....
....|..|--- .... ....|--- .... ....|--- .... ....
....|..|--- .... ....|--- .... ....|--- .... ....
....|..|--- .... ....|D-5 UF.F ....|--- .... ....
....|..|--- .... ....|--- .... ....|--- .... ....
....|..|--- .... ....|R-- .... ....|--- .... ....
....|..|--- .... ....|R-- .... ....|--- .... ....
....|..|--- .... ....|--- .... ....|--- .... ....
....|..|--- .... ....|--- .... ....|--- .... ....
....|..|--- .... ....|--- .... ....|--- .... ....
....|..|--- .... ....|--- .... ....|--- .... ....
....|..|--- .... ....|A-5 UF.7 ....|--- .... ....
....|..|--- .... ....|R-- .... ....|--- .... ....
....|..|--- .... ....|--- .... ....|--- .... ....
....|..|--- .... ....|--- .... ....|--- .... ....
....|..|--- .... ....|A-5 UF.7 ....|--- .... ....
....|..|--- .... ....|--- .... ....|--- .... ....
....|..|--- .... ....|R-- .... ....|--- .... ....
....|..|--- .... ....|R-- .... ....|--- .... ....
....|..|--- .... ....|--- .... ....|--- .... ....
....|..|--- .... ....|--- .... ....|--- .... ....
....|..|--- .... ....|--- .... ....|--- .... ....
....|..|--- .... ....|--- .... ....|--- .... ....
....|..|--- .... ....|--- .... ....|--- .... ....
....|..|--- .... ....|--- .... ....|--- .... ....
....|..|--- .... ....|--- .... ....|--- .... ....
....|..|--- .... ....|--- .... ....|--- .... ....
....|..|--- .... ....|G#5 UF.F ....|--- .... ....
....|..|--- .... ....|--- .... ....|--- .... ....
....|..|--- .... ....|R-- .... ....|--- .... ....
....|..|--- .... ....|R-- .... ....|--- .... ....
....|..|--- .... ....|--- .... ....|--- .... ....
....|..|--- .... ....|--- .... ....|--- .... ....
....|..|--- .... ....|--- .... ....|--- .... ....
....|..|--- .... ....|--- .... ....|--- .... ....
....|..|--- .... ....|F#5 UF.F ....|--- .... ....
....|..|--- .... ....|R-- .... ....|--- .... ....
....|..|--- .... ....|--- .... ....|--- .... ....
....|..|--- .... ....|--- .... ....|--- .... ....
....|..|--- .... ....|G#5 UF.F ....|--- .... ....
....|..|--- .... ....|--- .... ....|--- .... ....
....|..|--- .... ....|--- .... ....|--- .... ....
....|..|--- .... ....|R-- .... ....|--- .... ....
....|..|--- .... ....|--- .... ....|--- .... ....
....|..|--- .... ....|--- .... ....|--- .... ....
....|..|--- .... ....|--- .... ....|--- .... ....
....|..|--- .... ....|--- .... ....|--- .... ....

[Pattern5]
....|..|--- .... ....|F#5 UF.A ....|--- .... ....
....|..|--- .... ....|R-- .... ....|--- .... ....
....|..|--- .... ....|--- .... ....|--- .... ....
....|..|--- .... ....|--- .... ....|--- .... ....
....|..|--- .... ....|C#5 UF.F ....|--- .... ....
....|..|--- .... ....|--- .... ....|--- .... ....
....|..|--- .... ....|--- .... ....|--- .... ....
....|..|--- .... ....|R-- .... ....|--- .... ....
....|..|--- .... ....|--- .... ....|--- .... ....
....|..|--- .... ....|--- .... ....|--- .... ....
....|..|--- .... ....|--- .... ....|--- .... ....
....|..|--- .... ....|--- .... ....|--- .... ....
....|..|--- .... ....|F#5 UF.7 ....|--- .... ....
....|..|--- .... ....|R-- .... ....|--- .... ....
....|..|--- .... ....|--- .... ....|--- .... ....
....|..|--- .... ....|--- .... ....|--- .... ....
....|..|--- .... ....|G#5 UF.7 ....|--- .... ....
....|..|--- .... ....|--- .... ....|--- .... ....
....|..|--- .... ....|--- .... ....|--- .... ....
....|..|--- .... ....|R-- .... ....|--- .... ....
....|..|--- .... ....|--- .... ....|--- .... ....
....|..|--- .... ....|--- .... ....|--- .... ....
....|..|--- .... ....|--- .... ....|--- .... ....
....|..|--- .... ....|--- .... ....|--- .... ....
....|..|--- .... ....|--- .... ....|--- .... ....
....|..|--- .... ....|--- .... ....|--- .... ....
....|..|--- .... ....|--- .... ....|--- .... ....
....|..|--- .... ....|--- .... ....|--- .... ....
....|..|--- .... ....|C#5 UF.7 ....|--- .... ....
....|..|--- .... ....|--- .... ....|--- .... ....
....|..|--- .... ....|--- .... ....|--- .... ....
....|..|--- .... ....|R-- .... ....|--- .... ....
....|..|--- .... ....|--- .... ....|--- .... ....
....|..|--- .... ....|--- .... ....|--- .... ....
....|..|--- .... ....|--- .... ....|--- .... ....
....|..|--- .... ....|--- .... ....|--- .... ....
....|..|--- .... ....|--- .... ....|--- .... ....
....|..|--- .... ....|--- .... ....|--- .... ....
....|..|--- .... ....|--- .... ....|--- .... ....
....|..|--- .... ....|--- .... ....|--- .... ....
....|..|--- .... ....|--- .... ....|--- .... ....
....|..|--- .... ....|--- .... ....|--- .... ....
....|..|--- .... ....|--- .... ....|--- .... ....
....|..|--- .... ....|--- .... ....|--- .... ....
....|..|--- .... ....|--- .... ....|--- .... ....
....|..|--- .... ....|--- .... ....|--- .... ....
....|..|--- .... ....|--- .... ....|--- .... ....
....|..|--- .... ....|--- .... ....|--- .... ....
....|..|--- .... ....|--- .... ....|--- .... ....
....|..|--- .... ....|--- .... ....|--- .... ....
....|..|--- .... ....|--- .... ....|--- .... ....
....|..|--- .... ....|--- .... ....|--- .... ....
....|..|--- .... ....|F#5 UF.F ....|--- .... ....
....|..|--- .... ....|--- .... ....|--- .... ....
....|..|--- .... ....|--- .... ....|--- .... ....
....|..|--- .... ....|R-- .... ....|--- .... ....
....|..|--- .... ....|--- .... ....|--- .... ....
....|..|--- .... ....|--- .... ....|--- .... ....
....|..|--- .... ....|--- .... ....|--- .... ....
....|..|--- .... ....|--- .... ....|--- .... ....
....|..|--- .... ....|E-5 UF.F ....|--- .... ....
....|..|--- .... ....|R-- .... ....|--- .... ....
....|..|--- .... ....|--- .... ....|--- .... ....
....|..|--- .... ....|--- .... ....|--- .... ....

[Pattern6]
....|..|--- .... ....|F#5 UF.F ....|--- .... ....
....|..|--- .... ....|--- .... ....|--- .... ....
....|..|--- .... ....|--- .... ....|--- .... ....
....|..|--- .... ....|R-- .... ....|--- .... ....
....|..|--- .... ....|R-- .... ....|--- .... ....
....|..|--- .... ....|--- .... ....|--- .... ....
....|..|--- .... ....|--- .... ....|--- .... ....
....|..|--- .... ....|--- .... ....|--- .... ....
....|..|--- .... ....|E-5 UF.A ....|--- .... ....
....|..|--- .... ....|R-- .... ....|--- .... ....
....|..|--- .... ....|--- .... ....|--- .... ....
....|..|--- .... ....|--- .... ....|--- .... ....
....|..|--- .... ....|B-4 UF.F ....|--- .... ....
....|..|--- .... ....|--- .... ....|--- .... ....
....|..|--- .... ....|--- .... ....|--- .... ....
....|..|--- .... ....|R-- .... ....|--- .... ....
....|..|--- .... ....|R-- .... ....|--- .... ....
....|..|--- .... ....|--- .... ....|--- .... ....
....|..|--- .... ....|--- .... ....|--- .... ....
....|..|--- .... ....|--- .... ....|--- .... ....
....|..|--- .... ....|E-5 UF.7 ....|--- .... ....
....|..|--- .... ....|R-- .... ....|--- .... ....
....|..|--- .... ....|--- .... ....|--- .... ....
....|..|--- .... ....|--- .... ....|--- .... ....
....|..|--- .... ....|F#5 UF.7 ....|--- .... ....
....|..|--- .... ....|--- .... ....|--- .... ....
....|..|--- .... ....|--- .... ....|--- .... ....
....|..|--- .... ....|--- .... ....|--- .... ....
....|..|--- .... ....|R-- .... ....|--- .... ....
....|..|--- .... ....|--- .... ....|--- .... ....
....|..|--- .... ....|--- .... ....|--- .... ....
....|..|--- .... ....|--- .... ....|--- .... ....
....|..|--- .... ....|--- .... ....|--- .... ....
....|..|--- .... ....|--- .... ....|--- .... ....
....|..|--- .... ....|--- .... ....|--- .... ....
....|..|--- .... ....|--- .... ....|--- .... ....
....|..|--- .... ....|C#6 UF.F ....|--- .... ....
....|..|--- .... ....|--- .... ....|--- .... ....
....|..|--- .... ....|--- .... ....|--- .... ....
....|..|--- .... ....|--- .... ....|--- .... ....
....|..|--- .... ....|R-- .... ....|--- .... ....
....|..|--- .... ....|--- .... ....|--- .... ....
....|..|--- .... ....|--- .... ....|--- .... ....
....|..|--- .... ....|--- .... ....|--- .... ....
....|..|--- .... ....|--- .... ....|--- .... ....
....|..|--- .... ....|--- .... ....|--- .... ....
....|..|--- .... ....|--- .... ....|--- .... ....
....|..|--- .... ....|--- .... ....|--- .... ....
....|..|--- .... ....|B-5 UF.F ....|--- .... ....
....|..|--- .... ....|--- .... ....|--- .... ....
....|..|--- .... ....|--- .... ....|--- .... ....
....|..|--- .... ....|--- .... ....|--- .... ....
....|..|--- .... ....|R-- .... ....|--- .... ....
....|..|--- .... ....|--- .... ....|--- .... ....
....|..|--- .... ....|--- .... ....|--- .... ....
....|..|--- .... ....|--- .... ....|--- .... ....
....|..|--- .... ....|--- .... ....|--- .... ....
....|..|--- .... ....|--- .... ....|--- .... ....
....|..|--- .... ....|--- .... ....|--- .... ....
....|..|--- .... ....|--- .... ....|--- .... ....
....|..|--- .... ....|C#6 UF.7 ....|--- .... ....
....|..|--- .... ....|--- .... ....|--- .... ....
....|..|--- .... ....|--- .... ....|--- .... ....
....|..|--- .... ....|--- .... ....|--- .... ....

[Pattern7]
....|..|--- .... ....|R-- .... ....|--- .... ....
....|..|--- .... ....|--- .... ....|--- .... ....
....|..|--- .... ....|--- .... ....|--- .... ....
....|..|--- .... ....|--- .... ....|--- .... ....
....|..|--- .... ....|--- .... ....|--- .... ....
....|..|--- .... ....|--- .... ....|--- .... ....
....|..|--- .... ....|--- .... ....|--- .... ....
....|..|--- .... ....|C#6 UF.F ....|--- .... ....
....|..|--- .... ....|B-5 UF.7 ....|--- .... ....
....|..|--- .... ....|R-- .... ....|--- .... ....
....|..|--- .... ....|--- .... ....|--- .... ....
....|..|--- .... ....|--- .... ....|--- .... ....
....|..|--- .... ....|R-- .... ....|--- .... ....
....|..|--- .... ....|--- .... ....|--- .... ....
....|..|--- .... ....|--- .... ....|--- .... ....
....|..|--- .... ....|--- .... ....|--- .... ....
....|..|--- .... ....|--- .... ....|--- .... ....
....|..|--- .... ....|--- .... ....|--- .... ....
....|..|--- .... ....|--- .... ....|--- .... ....
....|..|--- .... ....|C#6 UF.A ....|--- .... ....
....|..|--- .... ....|--- .... ....|--- .... ....
....|..|--- .... ....|R-- .... ....|--- .... ....
....|..|--- .... ....|--- .... ....|--- .... ....
....|..|--- .... ....|--- .... ....|--- .... ....
....|..|--- .... ....|--- .... ....|--- .... ....
....|..|--- .... ....|--- .... ....|--- .... ....
....|..|--- .... ....|--- .... ....|--- .... ....
....|..|--- .... ....|--- .... ....|--- .... ....
....|..|--- .... ....|--- .... ....|--- .... ....
....|..|--- .... ....|--- .... ....|--- .... ....
....|..|--- .... ....|--- .... ....|--- .... ....
....|..|--- .... ....|C#6 UF.7 ....|--- .... ....
....|..|--- .... ....|--- .... ....|C#4 2F.F ....
....|..|--- .... ....|R-- .... ....|--- .... ....
....|..|--- .... ....|--- .... ....|--- .... ....
....|..|--- .... ....|--- .... ....|--- .... ....
....|..|--- .... ....|--- .... ....|--- .... ....
....|..|--- .... ....|--- .... ....|R-- .... ....
....|..|--- .... ....|--- .... ....|--- .... ....
....|..|--- .... ....|--- .... ....|--- .... ....
....|..|--- .... ....|--- .... ....|A-3 2F1F ....
....|..|--- .... ....|--- .... ....|--- .... ....
....|..|--- .... ....|--- .... ....|--- .... ....
....|..|--- .... ....|--- .... ....|--- .... ....
....|..|C-4 LF.F ....|--- .... ....|B-3 2F.F ....
....|..|--- .... ....|--- .... ....|R-- .... ....
....|..|R-- .... ....|--- .... ....|--- .... ....
....|..|--- .... ....|--- .... ....|--- .... ....
....|..|D#4 9F.F ....|--- .... ....|G#3 2F.F ....
....|..|R-- .... ....|--- .... ....|R-- .... ....
....|..|--- .... ....|--- .... ....|--- .... ....
....|..|--- .... ....|--- .... ....|--- .... ....
....|..|C-4 9F.F ....|--- .... ....|A-3 2F1A ....
....|..|R-- .... ....|--- .... ....|R-- .... ....
....|..|--- .... ....|--- .... ....|--- .... ....
....|..|--- .... ....|--- .... ....|--- .... ....
....|..|C-4 AF.F ....|C#6 UF.F ....|F#4 2F2F ....
 F#4|..|F#2 2A.F ....|--- .... ....|R-- .... ....
....|..|R-- .... ....|--- .... ....|--- .... ....
....|..|R-- .... ....|R-- .... ....|--- .... ....
....|..|C-4 AF.F ....|--- .... ....|G#3 2F.A ....
....|..|R-- .... ....|--- .... ....|R-- .... ....
....|..|--- .... ....|--- .... ....|--- .... ....
....|..|R-- .... ....|--- .... ....|--- .... ....

[Pattern8]
....|..|C-4 9F.A ....|--- .... ....|A-3 2F17 ....
....|..|R-- .... ....|--- .... ....|R-- .... ....
....|..|--- .... ....|--- .... ....|--- .... ....
....|..|--- .... ....|--- .... ....|--- .... ....
....|..|C-4 CF.F ....|C#6 UF.A ....|B-3 2F.7 ....
....|..|F#2 2F.A ....|--- .... ....|R-- .... ....
....|..|R-- .... ....|--- .... ....|--- .... ....
....|..|R-- .... ....|R-- .... ....|--- .... ....
....|..|D#4 9F.7 ....|--- .... ....|G#3 2F.7 ....
....|..|R-- .... ....|--- .... ....|--- .... ....
....|..|--- .... ....|--- .... ....|--- .... ....
....|..|R-- .... ....|--- .... ....|--- .... ....
....|..|C-4 9F.7 ....|--- .... ....|--- .... ....
....|..|R-- .... ....|--- .... ....|R-- .... ....
....|..|--- .... ....|--- .... ....|--- .... ....
....|..|--- .... ....|C#6 UF.F ....|--- .... ....
....|..|C-4 AF.7 ....|C#6 UF.7 ....|F#4 2F27 ....
....|..|F#2 2F.7 ....|--- .... ....|--- .... ....
....|..|--- .... ....|R-- .... ....|--- .... ....
....|..|R-- .... ....|R-- .... ....|--- .... ....
....|..|C-4 AF.7 ....|--- .... ....|--- .... ....
....|..|--- .... ....|--- .... ....|--- .... ....
....|..|--- .... ....|--- .... ....|--- .... ....
....|..|R-- .... ....|--- .... ....|--- .... ....
....|..|C-4 AF.F ....|--- .... ....|--- .... ....
....|..|--- .... ....|--- .... ....|--- .... ....
....|..|R-- .... ....|--- .... ....|--- .... ....
....|..|R-- .... ....|C#6 UF.F ....|--- .... ....
....|..|B-8 JF.F ....|--- .... ....|--- .... ....
 F#4|..|F#2 2A.F ....|--- .... ....|--- .... ....
....|..|--- .... ....|R-- .... ....|--- .... ....
....|..|R-- .... ....|--- .... ....|--- .... ....
....|..|--- .... ....|--- .... ....|--- .... ....
....|..|--- .... ....|--- .... ....|--- .... ....
....|..|--- .... ....|--- .... ....|--- .... ....
....|..|--- .... ....|--- .... ....|--- .... ....
....|..|C-4 AF.F ....|--- .... ....|--- .... ....
....|..|--- .... ....|--- .... ....|F#4 2F2F ....
....|..|R-- .... ....|--- .... ....|--- .... ....
....|..|R-- .... ....|C#6 UF.7 ....|--- .... ....
....|..|C-4 AF.F ....|--- .... ....|E-4 2F.F ....
 E-4|..|E-2 2A.F ....|--- .... ....|E-4 2F.F ....
....|..|--- .... ....|R-- .... ....|--- .... ....
....|..|R-- .... ....|--- .... ....|--- .... ....
....|..|C-4 AF.F ....|--- .... ....|--- .... ....
....|..|--- .... ....|--- .... ....|--- .... ....
....|..|--- .... ....|--- .... ....|--- .... ....
....|..|R-- .... ....|--- .... ....|--- .... ....
....|..|C-4 AF.7 ....|--- .... ....|--- .... ....
....|..|--- .... ....|--- .... ....|F#4 2F2A ....
....|..|R-- .... ....|--- .... ....|--- .... ....
....|..|R-- .... ....|C#6 UF.7 ....|--- .... ....
....|..|C-4 CF.F ....|--- .... ....|E-4 2F.A ....
....|..|F#2 2F.7 ....|--- .... ....|E-4 2F.A ....
....|..|--- .... ....|R-- .... ....|--- .... ....
....|..|R-- .... ....|B-5 UF.F ....|--- .... ....
....|..|C-4 AF.A ....|--- .... ....|--- .... ....
....|..|--- .... ....|R-- .... ....|--- .... ....
....|..|--- .... ....|--- .... ....|--- .... ....
....|..|R-- .... ....|A-5 UF.F ....|--- .... ....
....|..|C-4 AF.7 ....|--- .... ....|--- .... ....
....|..|--- .... ....|R-- .... ....|F#4 2F27 ....
....|..|--- .... ....|--- .... ....|--- .... ....
....|..|R-- .... ....|--- .... ....|--- .... ....

[Pattern9]
....|..|C-4 AF.7 ....|B-5 UF.F ....|E-4 2F.7 ....
....|..|E-2 2F.7 ....|--- .... ....|E-4 2F.7 ....
....|..|--- .... ....|--- .... ....|--- .... ....
....|..|R-- .... ....|B-5 UF.A ....|--- .... ....
....|..|C-4 AF.F ....|--- .... ....|--- .... ....
....|..|--- .... ....|R-- .... ....|--- .... ....
....|..|--- .... ....|--- .... ....|--- .... ....
....|..|R-- .... ....|A-5 UF.A ....|--- .... ....
....|..|C-4 AF.F ....|--- .... ....|--- .... ....
....|..|--- .... ....|R-- .... ....|--- .... ....
....|..|C-4 AF.F ....|--- .... ....|--- .... ....
....|..|C-4 LF.F ....|--- .... ....|--- .... ....
....|..|C-4 LF.F ....|B-5 UF.A ....|--- .... ....
....|..|--- .... ....|--- .... ....|--- .... ....
....|..|--- .... ....|--- .... ....|--- .... ....
....|..|R-- .... ....|B-5 UF.7 ....|--- .... ....
....|..|C-4 AF.A ....|--- .... ....|--- .... ....
....|..|--- .... ....|R-- .... ....|--- .... ....
....|..|R-- .... ....|--- .... ....|--- .... ....
....|..|R-- .... ....|A-5 UF.7 ....|--- .... ....
....|..|C-4 AF.A ....|--- .... ....|B-3 2F.F ....
....|..|--- .... ....|R-- .... ....|--- .... ....
....|..|C-4 AF.A ....|--- .... ....|--- .... ....
....|..|C-4 LF.A ....|A-5 UF.F ....|--- .... ....
....|..|C-4 AF.F ....|B-5 UF.7 ....|A-3 2F3F ....
 D-4|..|D-2 2A.F ....|--- .... ....|D-4 2F.F ....
....|..|--- .... ....|--- .... ....|A-3 2F.F ....
....|..|R-- .... ....|R-- .... ....|D-4 2F.F ....
....|..|C-4 AF.F ....|--- .... ....|--- .... ....
....|..|--- .... ....|R-- .... ....|--- .... ....
....|..|R-- .... ....|--- .... ....|--- .... ....
....|..|R-- .... ....|--- .... ....|--- .... ....
....|..|C-4 AF.7 ....|--- .... ....|B-3 2F.A ....
....|..|--- .... ....|--- .... ....|--- .... ....
....|..|C-4 AF.7 ....|--- .... ....|--- .... ....
....|..|C-4 LF.7 ....|A-5 UF.A ....|--- .... ....
....|..|C-4 CF.F ....|F#6 UF.F ....|A-3 2F3A ....
....|..|D-2 2F.A ....|--- .... ....|D-4 2F.A ....
....|..|--- .... ....|--- .... ....|A-3 2F.A ....
....|..|R-- .... ....|R-- .... ....|D-4 2F.A ....
....|..|C-4 AF.A ....|R-- .... ....|--- .... ....
....|..|--- .... ....|--- .... ....|--- .... ....
....|..|R-- .... ....|--- .... ....|--- .... ....
....|..|R-- .... ....|--- .... ....|--- .... ....
....|..|--- .... ....|--- .... ....|B-3 2F.7 ....
....|..|--- .... ....|--- .... ....|--- .... ....
....|..|--- .... ....|--- .... ....|--- .... ....
....|..|--- .... ....|A-5 UF.7 ....|--- .... ....
....|..|C-4 AF.7 ....|F#6 UF.A ....|A-3 2F37 ....
....|..|D-2 2F.7 ....|--- .... ....|D-4 2F.7 ....
....|..|--- .... ....|--- .... ....|A-3 2F.7 ....
....|..|R-- .... ....|R-- .... ....|D-4 2F.7 ....
....|..|C-4 AF.7 ....|R-- .... ....|--- .... ....
....|..|--- .... ....|--- .... ....|--- .... ....
....|..|--- .... ....|--- .... ....|--- .... ....
....|..|R-- .... ....|--- .... ....|--- .... ....
....|..|C-4 AF.F ....|--- .... ....|--- .... ....
....|..|--- .... ....|--- .... ....|--- .... ....
....|..|--- .... ....|--- .... ....|--- .... ....
....|..|R-- .... ....|--- .... ....|--- .... ....
....|..|B-8 JF.F ....|G#5 UF.F ....|--- .... ....
....|..|R-- .... ....|--- .... ....|--- .... ....
....|..|--- .... ....|--- .... ....|--- .... ....
....|..|R-- .... ....|R-- .... ....|--- .... ....

[Pattern10]
....|..|--- .... ....|R-- .... ....|--- .... ....
....|..|--- .... ....|--- .... ....|--- .... ....
....|..|--- .... ....|--- .... ....|D-4 2F.F ....
....|..|--- .... ....|A-5 UF.F ....|--- .... ....
....|..|C-4 AF.F ....|--- .... ....|--- .... ....
....|..|--- .... ....|R-- .... ....|--- .... ....
....|..|--- .... ....|--- .... ....|--- .... ....
....|..|R-- .... ....|D-5 UF.F ....|--- .... ....
....|..|C-4 AF.F ....|G#5 UF.A ....|B-3 2F2F ....
 D-4|..|D-2 2A.F ....|--- .... ....|B-3 2F2F ....
 B-3|..|B-1 2A.F ....|--- .... ....|--- .... ....
....|..|R-- .... ....|R-- .... ....|--- .... ....
....|..|C-4 AF.F ....|R-- .... ....|--- .... ....
....|..|--- .... ....|--- .... ....|--- .... ....
....|..|--- .... ....|--- .... ....|D-4 2F.A ....
....|..|R-- .... ....|A-5 UF.A ....|--- .... ....
....|..|C-4 AF.7 ....|--- .... ....|--- .... ....
....|..|--- .... ....|R-- .... ....|--- .... ....
....|..|--- .... ....|--- .... ....|--- .... ....
....|..|R-- .... ....|D-5 UF.A ....|--- .... ....
....|..|C-4 CF.F ....|G#5 UF.7 ....|B-3 2F2A ....
....|..|D-2 2F.A ....|--- .... ....|B-3 2F2A ....
....|..|B-1 2F.A ....|--- .... ....|--- .... ....
....|..|R-- .... ....|R-- .... ....|--- .... ....
....|..|C-4 AF.A ....|R-- .... ....|--- .... ....
....|..|--- .... ....|--- .... ....|--- .... ....
....|..|--- .... ....|--- .... ....|D-4 2F.7 ....
....|..|R-- .... ....|A-5 UF.7 ....|--- .... ....
....|..|C-4 AF.7 ....|--- .... ....|--- .... ....
....|..|--- .... ....|R-- .... ....|--- .... ....
....|..|R-- .... ....|--- .... ....|--- .... ....
....|..|R-- .... ....|D-5 UF.7 ....|--- .... ....
 E-4|..|E-2 2A.F ....|G#5 UF.F ....|E-4 2F.F ....
....|..|D-2 2F.7 ....|--- .... ....|B-3 2F27 ....
....|..|B-1 2F.7 ....|F#5 UF.F ....|--- .... ....
....|..|R-- .... ....|G#5 UF.F ....|--- .... ....
....|..|C-4 AF.F ....|R-- .... ....|--- .... ....
....|..|--- .... ....|R-- .... ....|--- .... ....
....|..|--- .... ....|--- .... ....|--- .... ....
....|..|R-- .... ....|--- .... ....|--- .... ....
....|..|C-4 AF.F ....|G#5 UF.F ....|--- .... ....
....|..|--- .... ....|F#5 UF.F ....|--- .... ....
....|..|C-4 AF.F ....|--- .... ....|--- .... ....
....|..|C-4 LF.F ....|G#5 UF.F ....|--- .... ....
....|..|C-4 LF.F ....|G#5 UF.A ....|E-4 2F.A ....
....|..|--- .... ....|--- .... ....|--- .... ....
....|..|--- .... ....|F#5 UF.A ....|--- .... ....
....|..|R-- .... ....|G#5 UF.F ....|--- .... ....
....|..|C-4 AF.A ....|G#5 UF.F ....|--- .... ....
....|..|--- .... ....|F#5 UF.F ....|--- .... ....
....|..|R-- .... ....|G#5 UF.F ....|--- .... ....
....|..|R-- .... ....|R-- .... ....|--- .... ....
....|..|C-4 AF.F ....|G#5 UF.A ....|--- .... ....
....|..|--- .... ....|F#5 UF.A ....|--- .... ....
....|..|C-4 AF.A ....|G#5 UF.F ....|--- .... ....
....|..|C-4 LF.A ....|G#5 UF.A ....|E-4 2F.F ....
....|..|C-4 AF.F ....|G#5 UF.7 ....|C#4 2F2F ....
 A-3|..|A-1 2A.F ....|--- .... ....|C#4 2F2F ....
....|..|--- .... ....|F#5 UF.7 ....|--- .... ....
....|..|R-- .... ....|G#5 UF.7 ....|--- .... ....
....|..|C-4 AF.F ....|G#5 UF.A ....|--- .... ....
....|..|--- .... ....|F#5 UF.A ....|--- .... ....
....|..|R-- .... ....|G#5 UF.A ....|--- .... ....
....|..|R-- .... ....|R-- .... ....|--- .... ....

[Pattern11]
....|..|C-4 AF.7 ....|G#5 UF.7 ....|--- .... ....
....|..|--- .... ....|F#5 UF.7 ....|--- .... ....
....|..|C-4 AF.7 ....|G#5 UF.A ....|--- .... ....
....|..|C-4 LF.7 ....|G#5 UF.7 ....|E-4 2F.A ....
....|..|C-4 CF.F ....|C#5 UF.F ....|C#4 2F2A ....
....|..|A-1 2F.A ....|--- .... ....|C#4 2F2A ....
....|..|--- .... ....|R-- .... ....|--- .... ....
....|..|R-- .... ....|G#5 UF.7 ....|--- .... ....
....|..|C-4 AF.A ....|G#5 UF.7 ....|--- .... ....
....|..|--- .... ....|F#5 UF.7 ....|--- .... ....
....|..|R-- .... ....|G#5 UF.7 ....|--- .... ....
....|..|R-- .... ....|R-- .... ....|--- .... ....
....|..|C-4 AF.7 ....|--- .... ....|--- .... ....
....|..|--- .... ....|--- .... ....|--- .... ....
....|..|--- .... ....|G#5 UF.7 ....|--- .... ....
....|..|R-- .... ....|--- .... ....|E-4 2F.7 ....
....|..|C-4 AF.7 ....|C#5 UF.A ....|C#4 2F27 ....
....|..|A-1 2F.7 ....|--- .... ....|C#4 2F27 ....
....|..|--- .... ....|R-- .... ....|--- .... ....
....|..|R-- .... ....|--- .... ....|--- .... ....
....|..|C-4 AF.7 ....|R-- .... ....|--- .... ....
....|..|--- .... ....|--- .... ....|--- .... ....
....|..|--- .... ....|--- .... ....|--- .... ....
....|..|R-- .... ....|--- .... ....|--- .... ....
....|..|C-4 AF.F ....|--- .... ....|--- .... ....
....|..|--- .... ....|--- .... ....|--- .... ....
....|..|--- .... ....|--- .... ....|--- .... ....
....|..|R-- .... ....|--- .... ....|--- .... ....
....|..|B-8 JF.F ....|C#5 UF.7 ....|--- .... ....
....|..|R-- .... ....|--- .... ....|--- .... ....
....|..|--- .... ....|--- .... ....|--- .... ....
....|..|R-- .... ....|--- .... ....|--- .... ....
....|..|--- .... ....|R-- .... ....|--- .... ....
....|..|--- .... ....|--- .... ....|--- .... ....
....|..|--- .... ....|--- .... ....|--- .... ....
....|..|--- .... ....|--- .... ....|--- .... ....
....|..|C-4 AF.F ....|--- .... ....|--- .... ....
....|..|--- .... ....|--- .... ....|--- .... ....
....|..|--- .... ....|--- .... ....|--- .... ....
....|..|R-- .... ....|--- .... ....|--- .... ....
....|..|C-4 AF.F ....|F#5 UF.F ....|C#4 2F4F ....
 D-4|..|D-2 2A.F ....|--- .... ....|D-4 2F1F ....
....|..|--- .... ....|--- .... ....|D-4 2F5F ....
....|..|R-- .... ....|--- .... ....|D-4 2F.F ....
....|..|C-4 AF.F ....|R-- .... ....|--- .... ....
....|..|--- .... ....|--- .... ....|--- .... ....
....|..|--- .... ....|--- .... ....|--- .... ....
....|..|R-- .... ....|--- .... ....|--- .... ....
....|..|C-4 AF.7 ....|--- .... ....|--- .... ....
....|..|--- .... ....|--- .... ....|--- .... ....
....|..|--- .... ....|--- .... ....|--- .... ....
....|..|R-- .... ....|--- .... ....|--- .... ....
....|..|C-4 CF.F ....|F#5 UF.A ....|C#4 2F4A ....
....|..|D-2 2F.A ....|--- .... ....|D-4 2F1A ....
....|..|--- .... ....|--- .... ....|D-4 2F5A ....
....|..|R-- .... ....|--- .... ....|D-4 2F.A ....
....|..|C-4 AF.A ....|R-- .... ....|--- .... ....
....|..|--- .... ....|--- .... ....|--- .... ....
....|..|--- .... ....|--- .... ....|--- .... ....
....|..|R-- .... ....|--- .... ....|--- .... ....
....|..|C-4 AF.7 ....|--- .... ....|--- .... ....
....|..|--- .... ....|--- .... ....|--- .... ....
....|..|--- .... ....|--- .... ....|--- .... ....
....|..|R-- .... ....|F#5 UF.F ....|--- .... ....

[Pattern12]
....|..|C-4 AF.7 ....|F#5 UF.7 ....|C#4 2F47 ....
....|..|D-2 2F.7 ....|E-5 UF.F ....|D-4 2F17 ....
....|..|--- .... ....|--- .... ....|D-4 2F57 ....
....|..|R-- .... ....|F#5 UF.F ....|D-4 2F.7 ....
....|..|C-4 AF.F ....|R-- .... ....|--- .... ....
....|..|--- .... ....|R-- .... ....|--- .... ....
....|..|--- .... ....|--- .... ....|--- .... ....
....|..|R-- .... ....|F#5 UF.F ....|--- .... ....
....|..|C-4 AF.F ....|--- .... ....|--- .... ....
....|..|--- .... ....|E-5 UF.F ....|--- .... ....
....|..|C-4 AF.F ....|--- .... ....|--- .... ....
....|..|C-4 LF.F ....|F#5 UF.F ....|--- .... ....
....|..|C-4 LF.F ....|--- .... ....|--- .... ....
....|..|--- .... ....|E-5 UF.A ....|--- .... ....
....|..|--- .... ....|--- .... ....|--- .... ....
....|..|R-- .... ....|F#5 UF.F ....|--- .... ....
....|..|C-4 AF.A ....|--- .... ....|--- .... ....
....|..|--- .... ....|E-5 UF.F ....|--- .... ....
....|..|R-- .... ....|--- .... ....|--- .... ....
....|..|R-- .... ....|F#5 UF.F ....|D-4 2F.F ....
....|..|C-4 AF.A ....|R-- .... ....|--- .... ....
....|..|--- .... ....|E-5 UF.A ....|--- .... ....
....|..|C-4 AF.A ....|--- .... ....|F#4 2F.F ....
....|..|C-4 LF.A ....|B-4 UF.F ....|--- .... ....
....|..|C-4 AF.F ....|--- .... ....|B-3 2F2F ....
 G#3|..|G#1 2A.F ....|E-5 UF.7 ....|--- .... ....
....|..|--- .... ....|--- .... ....|--- .... ....
....|..|R-- .... ....|F#5 UF.7 ....|--- .... ....
....|..|C-4 AF.F ....|R-- .... ....|--- .... ....
....|..|--- .... ....|E-5 UF.A ....|--- .... ....
....|..|R-- .... ....|--- .... ....|--- .... ....
....|..|R-- .... ....|F#5 UF.7 ....|D-4 2F.A ....
....|..|C-4 AF.7 ....|R-- .... ....|--- .... ....
....|..|--- .... ....|E-5 UF.7 ....|--- .... ....
....|..|C-4 AF.7 ....|--- .... ....|F#4 2F.A ....
....|..|C-4 LF.7 ....|B-4 UF.F ....|--- .... ....
....|..|C-4 CF.F ....|--- .... ....|B-3 2F2A ....
....|..|G#1 2F.A ....|R-- .... ....|--- .... ....
....|..|--- .... ....|--- .... ....|--- .... ....
....|..|R-- .... ....|F#5 UF.7 ....|--- .... ....
....|..|C-4 AF.A ....|R-- .... ....|--- .... ....
....|..|--- .... ....|E-5 UF.7 ....|--- .... ....
....|..|R-- .... ....|--- .... ....|--- .... ....
....|..|R-- .... ....|F#5 UF.7 ....|D-4 2F.7 ....
....|..|--- .... ....|R-- .... ....|--- .... ....
....|..|--- .... ....|--- .... ....|--- .... ....
....|..|--- .... ....|--- .... ....|F#4 2F.7 ....
....|..|--- .... ....|B-4 UF.7 ....|--- .... ....
....|..|C-4 AF.7 ....|--- .... ....|B-3 2F27 ....
....|..|G#1 2F.7 ....|--- .... ....|--- .... ....
....|..|--- .... ....|--- .... ....|--- .... ....
....|..|R-- .... ....|--- .... ....|--- .... ....
....|..|C-4 AF.7 ....|R-- .... ....|--- .... ....
....|..|--- .... ....|R-- .... ....|--- .... ....
....|..|--- .... ....|--- .... ....|--- .... ....
....|..|R-- .... ....|--- .... ....|--- .... ....
....|..|C-4 AF.F ....|--- .... ....|--- .... ....
....|..|--- .... ....|--- .... ....|--- .... ....
....|..|--- .... ....|--- .... ....|--- .... ....
....|..|R-- .... ....|B-4 UF.7 ....|--- .... ....
....|..|B-8 JF.F ....|--- .... ....|--- .... ....
....|..|R-- .... ....|--- .... ....|--- .... ....
....|..|--- .... ....|--- .... ....|--- .... ....
....|..|R-- .... ....|--- .... ....|--- .... ....

[Pattern13]
....|..|--- .... ....|--- .... ....|--- .... ....
....|..|--- .... ....|R-- .... ....|--- .... ....
....|..|--- .... ....|--- .... ....|--- .... ....
....|..|--- .... ....|--- .... ....|--- .... ....
....|..|C-4 AF.F ....|--- .... ....|--- .... ....
....|..|--- .... ....|--- .... ....|--- .... ....
....|..|--- .... ....|--- .... ....|B-3 2F.F ....
....|..|R-- .... ....|F-5 UF.F ....|G#2 2F.F ....
....|..|C-4 AF.F ....|--- .... ....|C#4 2F.F ....
 C#4|..|C#2 2A.F ....|--- .... ....|F-4 2F2F ....
....|..|--- .... ....|--- .... ....|--- .... ....
....|..|R-- .... ....|--- .... ....|--- .... ....
....|..|C-4 AF.F ....|--- .... ....|--- .... ....
....|..|--- .... ....|R-- .... ....|--- .... ....
....|..|--- .... ....|--- .... ....|--- .... ....
....|..|R-- .... ....|--- .... ....|--- .... ....
....|..|C-4 AF.7 ....|--- .... ....|--- .... ....
....|..|--- .... ....|--- .... ....|--- .... ....
....|..|--- .... ....|--- .... ....|B-3 2F.A ....
....|..|R-- .... ....|F-5 UF.A ....|G#2 2F.A ....
....|..|C-4 CF.F ....|--- .... ....|C#4 2F.A ....
....|..|C#2 2F.A ....|--- .... ....|F-4 2F2A ....
....|..|--- .... ....|--- .... ....|--- .... ....
....|..|R-- .... ....|--- .... ....|--- .... ....
....|..|C-4 AF.A ....|--- .... ....|--- .... ....
....|..|--- .... ....|R-- .... ....|--- .... ....
....|..|--- .... ....|--- .... ....|--- .... ....
....|..|R-- .... ....|--- .... ....|--- .... ....
....|..|C-4 AF.7 ....|--- .... ....|--- .... ....
....|..|--- .... ....|--- .... ....|--- .... ....
....|..|--- .... ....|--- .... ....|B-3 2F.7 ....
....|..|R-- .... ....|F-5 UF.7 ....|G#2 2F.7 ....
....|..|C-4 AF.7 ....|F-5 UF.F ....|C#4 2F.F ....
....|..|C#2 2F.7 ....|F-5 UF.F ....|F-4 2F27 ....
....|..|--- .... ....|D#5 UF.F ....|--- .... ....
....|..|R-- .... ....|F-5 UF.F ....|--- .... ....
....|..|C-4 AF.F ....|--- .... ....|--- .... ....
....|..|--- .... ....|R-- .... ....|--- .... ....
....|..|--- .... ....|--- .... ....|--- .... ....
....|..|R-- .... ....|F-5 UF.F ....|--- .... ....
....|..|C-4 AF.F ....|--- .... ....|--- .... ....
....|..|--- .... ....|D#5 UF.F ....|--- .... ....
....|..|C-4 AF.F ....|--- .... ....|--- .... ....
....|..|C-4 LF.F ....|F-5 UF.F ....|--- .... ....
....|..|C-4 LF.F ....|F-5 UF.F ....|C#4 2F.A ....
....|..|--- .... ....|F-5 UF.A ....|--- .... ....
....|..|--- .... ....|D#5 UF.A ....|--- .... ....
....|..|R-- .... ....|F-5 UF.F ....|--- .... ....
....|..|C-4 LF.F ....|--- .... ....|--- .... ....
....|..|D#4 9F.F ....|D#5 UF.F ....|--- .... ....
....|..|R-- .... ....|--- .... ....|--- .... ....
....|..|C-4 9F.F ....|F-5 UF.F ....|--- .... ....
....|..|C-4 AF.A ....|R-- .... ....|--- .... ....
....|..|--- .... ....|D#5 UF.A ....|--- .... ....
....|..|C-4 AF.A ....|--- .... ....|F-4 2F2F ....
....|..|C-4 LF.A ....|F-5 UF.F ....|--- .... ....
....|..|C-4 AF.F ....|F-5 UF.7 ....|C#4 2F.F ....
 F#3|..|F#1 2A.F ....|F-5 UF.7 ....|C#4 2F.F ....
....|..|--- .... ....|D#5 UF.7 ....|F#3 2F2F ....
....|..|R-- .... ....|F-5 UF.7 ....|C#4 2F.F ....
....|..|C-4 AF.F ....|--- .... ....|--- .... ....
....|..|D#4 9F.A ....|D#5 UF.A ....|--- .... ....
....|..|R-- .... ....|R-- .... ....|--- .... ....
....|..|C-4 9F.A ....|F-5 UF.7 ....|--- .... ....

[Pattern14]
....|..|C-4 AF.7 ....|R-- .... ....|--- .... ....
....|..|--- .... ....|D#5 UF.7 ....|--- .... ....
....|..|C-4 AF.7 ....|--- .... ....|F-4 2F2A ....
....|..|C-4 LF.7 ....|F-5 UF.7 ....|--- .... ....
....|..|C-4 CF.F ....|F#5 UF.F ....|C#4 2F.A ....
....|..|F#1 2F.A ....|R-- .... ....|C#4 2F.A ....
....|..|--- .... ....|--- .... ....|F#3 2F2A ....
....|..|R-- .... ....|F-5 UF.7 ....|C#4 2F.A ....
....|..|C-4 LF.7 ....|--- .... ....|--- .... ....
....|..|D#4 9F.7 ....|D#5 UF.7 ....|--- .... ....
....|..|R-- .... ....|R-- .... ....|--- .... ....
....|..|C-4 9F.7 ....|F-5 UF.7 ....|--- .... ....
....|..|R-- .... ....|R-- .... ....|--- .... ....
....|..|--- .... ....|--- .... ....|--- .... ....
....|..|--- .... ....|--- .... ....|F-4 2F27 ....
....|..|--- .... ....|F-5 UF.7 ....|--- .... ....
....|..|C-4 AF.F ....|F#5 UF.A ....|C#4 2F.7 ....
....|..|F#1 2F.7 ....|--- .... ....|C#4 2F.7 ....
....|..|--- .... ....|--- .... ....|F#3 2F27 ....
....|..|R-- .... ....|--- .... ....|C#4 2F.7 ....
....|..|C-4 AF.F ....|--- .... ....|--- .... ....
....|..|--- .... ....|--- .... ....|--- .... ....
....|..|--- .... ....|R-- .... ....|--- .... ....
....|..|R-- .... ....|--- .... ....|--- .... ....
....|..|--- .... ....|--- .... ....|--- .... ....
....|..|--- .... ....|--- .... ....|--- .... ....
....|..|C-4 LF.F ....|--- .... ....|--- .... ....
....|..|C-4 LF.F ....|--- .... ....|--- .... ....
....|..|C-4 LF.F ....|F#5 UF.7 ....|--- .... ....
 C#4|..|C#2 2A.F ....|--- .... ....|--- .... ....
....|..|--- .... ....|--- .... ....|--- .... ....
....|..|R-- .... ....|--- .... ....|--- .... ....
 F#4|..|F#2 2A.F ....|--- .... ....|--- .... ....
....|..|--- .... ....|--- .... ....|--- .... ....
....|..|--- .... ....|--- .... ....|--- .... ....
....|..|R-- .... ....|--- .... ....|--- .... ....
 C#4|..|C#2 2A.F ....|--- .... ....|--- .... ....
....|..|--- .... ....|--- .... ....|--- .... ....
....|..|C-4 LF.A ....|--- .... ....|--- .... ....
....|..|C-4 LF.A ....|--- .... ....|--- .... ....
....|..|C-4 AF.F ....|--- .... ....|F#4 2F2F ....
 F#3|..|F#1 2A.F ....|--- .... ....|--- .... ....
....|..|--- .... ....|--- .... ....|--- .... ....
....|..|R-- .... ....|--- .... ....|F#4 2F2F ....
....|..|C-4 AF.F ....|--- .... ....|C#4 2F.F ....
....|..|--- .... ....|--- .... ....|--- .... ....
....|..|--- .... ....|--- .... ....|--- .... ....
....|..|R-- .... ....|--- .... ....|--- .... ....
....|..|C#2 2F.A ....|--- .... ....|F#4 2F2F ....
....|..|--- .... ....|--- .... ....|--- .... ....
....|..|C-4 LF.7 ....|--- .... ....|--- .... ....
....|..|C-4 LF.7 ....|--- .... ....|--- .... ....
....|..|C-4 CF.F ....|--- .... ....|F#4 2F2A ....
....|..|C#2 2F.7 ....|--- .... ....|C#4 2F.F ....
....|..|--- .... ....|--- .... ....|--- .... ....
....|..|R-- .... ....|--- .... ....|F#4 2F2A ....
....|..|F#2 2F.7 ....|--- .... ....|F#4 2F2F ....
....|..|--- .... ....|--- .... ....|--- .... ....
....|..|--- .... ....|--- .... ....|--- .... ....
....|..|R-- .... ....|--- .... ....|--- .... ....
....|..|C#2 2F.7 ....|--- .... ....|F#4 2F2A ....
....|..|--- .... ....|--- .... ....|C#4 2F.F ....
....|..|--- .... ....|--- .... ....|--- .... ....
....|..|--- .... ....|R-- .... ....|--- .... ....

[Pattern15]
....|..|C-4 AF.F ....|--- .... ....|F#4 2F2F ....
....|..|F#1 2F.7 ....|--- .... ....|C#4 2F.A ....
....|..|--- .... ....|--- .... ....|--- .... ....
....|..|R-- .... ....|--- .... ....|F#4 2F2F ....
....|..|C-4 AF.F ....|--- .... ....|C#4 2F.F ....
....|..|--- .... ....|--- .... ....|C#4 2F.F ....
....|..|--- .... ....|--- .... ....|--- .... ....
....|..|R-- .... ....|--- .... ....|--- .... ....
....|..|--- .... ....|--- .... ....|C#4 2F.F ....
....|..|--- .... ....|--- .... ....|C#4 2F.A ....
....|..|--- .... ....|--- .... ....|--- .... ....
....|..|--- .... ....|R-- .... ....|C#4 2F.F ....
....|..|C-4 LF.F ....|--- .... ....|F#3 2F2F ....
....|..|--- .... ....|--- .... ....|C#4 2F.7 ....
....|..|--- .... ....|--- .... ....|--- .... ....
....|..|R-- .... ....|--- .... ....|F#3 2F2F ....
....|..|D#4 9F.F ....|--- .... ....|F#3 2F2F ....
....|..|--- .... ....|--- .... ....|C#4 2F.A ....
....|..|--- .... ....|--- .... ....|--- .... ....
....|..|R-- .... ....|--- .... ....|C#4 2F.F ....
....|..|C-4 9F.F ....|--- .... ....|F#3 2F.F ....
....|..|R-- .... ....|--- .... ....|C#4 2F.7 ....
....|..|--- .... ....|--- .... ....|--- .... ....
....|..|R-- .... ....|R-- .... ....|C#4 2F.A ....
....|..|C-4 AF.F ....|C#5 UF.F ....|C#4 2F2F ....
....|..|C-4 AF.F ....|--- .... ....|C#4 2F2F ....
 A-3|..|A-1 2A.F ....|--- .... ....|--- .... ....
....|..|C-4 LF.F ....|--- .... ....|F#4 2F27 ....
....|..|C-4 LF.F ....|--- .... ....|C#4 2F.7 ....
....|..|--- .... ....|--- .... ....|C#4 2F.7 ....
....|..|C-4 LF.F ....|--- .... ....|--- .... ....
....|..|R-- .... ....|--- .... ....|C#4 2F.A ....
....|..|C-4 LF.F ....|--- .... ....|C#4 2F.7 ....
....|..|C-4 LF.F ....|--- .... ....|--- .... ....
....|..|R-- .... ....|--- .... ....|--- .... ....
....|..|R-- .... ....|--- .... ....|C#4 2F.7 ....
....|..|C-4 CF.F ....|C#5 UF.A ....|F#3 2F27 ....
....|..|C-4 AF.A ....|--- .... ....|C#4 2F2A ....
....|..|A-1 2F.A ....|--- .... ....|--- .... ....
....|..|C-4 LF.A ....|--- .... ....|F#3 2F27 ....
....|..|C-4 LF.F ....|B-4 UF.F ....|F#3 2F27 ....
....|..|R-- .... ....|C#5 UF.F ....|--- .... ....
....|..|C-4 LF.A ....|C#5 UF.F ....|--- .... ....
....|..|R-- .... ....|D-5 UF.F ....|A-4 2F.F ....
....|..|C-4 AF.F ....|--- .... ....|F#3 2F.7 ....
 A-3|..|A-1 2A.F ....|C#5 UF.F ....|--- .... ....
....|..|C-4 AF.F ....|--- .... ....|--- .... ....
....|..|R-- .... ....|C#5 UF.F ....|A-4 2F.F ....
....|..|C-4 AF.F ....|B-4 UF.F ....|F-4 2F2F ....
....|..|C-4 AF.F ....|--- .... ....|C#4 2F27 ....
 G#3|..|G#1 2A.F ....|--- .... ....|--- .... ....
....|..|C-4 LF.7 ....|--- .... ....|--- .... ....
....|..|C-4 LF.F ....|B-4 UF.A ....|--- .... ....
....|..|R-- .... ....|C#5 UF.A ....|--- .... ....
....|..|C-4 LF.7 ....|C#5 UF.A ....|--- .... ....
....|..|--- .... ....|D-5 UF.A ....|A-4 2F.A ....
....|..|C-4 LF.F ....|--- .... ....|--- .... ....
....|..|C-4 LF.7 ....|C#5 UF.A ....|--- .... ....
....|..|C-4 AF.A ....|--- .... ....|--- .... ....
....|..|R-- .... ....|C#5 UF.A ....|A-4 2F.A ....
....|..|C-4 CF.F ....|B-4 UF.A ....|F-4 2F2A ....
....|..|C-4 AF.A ....|--- .... ....|--- .... ....
....|..|C-4 CF.F ....|--- .... ....|--- .... ....
....|..|R-- .... ....|--- .... ....|--- .... ....

[Pattern16]
....|..|C-4 AF.F ....|B-4 UF.7 ....|--- .... ....
....|..|C-4 AF.F ....|C#5 UF.7 ....|--- .... ....
....|..|R-- .... ....|C#5 UF.7 ....|--- .... ....
....|..|R-- .... ....|D-5 UF.7 ....|A-4 2F.7 ....
....|..|C-4 LF.F ....|A-4 UF.F ....|--- .... ....
....|..|A-1 2F.7 ....|A-4 UF.F ....|--- .... ....
....|..|C-4 AF.7 ....|G#4 UF.F ....|--- .... ....
....|..|R-- .... ....|A-4 UF.F ....|A-4 2F.7 ....
....|..|C-4 AF.F ....|B-4 UF.7 ....|F-4 2F6F ....
....|..|C-4 AF.F ....|--- .... ....|--- .... ....
 F#3|..|F#1 2A.F ....|--- .... ....|F#4 2F2F ....
....|..|R-- .... ....|--- .... ....|--- .... ....
....|..|C-4 LF.F ....|--- .... ....|F#4 2F2F ....
....|..|C-4 AF.A ....|--- .... ....|--- .... ....
....|..|--- .... ....|--- .... ....|--- .... ....
....|..|R-- .... ....|--- .... ....|--- .... ....
....|..|C-4 LF.F ....|A-4 UF.A ....|F#4 2F2F ....
....|..|R-- .... ....|A-4 UF.A ....|--- .... ....
....|..|R-- .... ....|G#4 UF.A ....|--- .... ....
....|..|--- .... ....|A-4 UF.A ....|--- .... ....
....|..|C-4 CF.F ....|--- .... ....|F-4 2F6A ....
....|..|C-4 CF.F ....|--- .... ....|F#4 2F2F ....
....|..|C-4 CF.7 ....|--- .... ....|F#4 2F2A ....
....|..|R-- .... ....|--- .... ....|--- .... ....
....|..|C-4 LF.F ....|--- .... ....|F#4 2F2A ....
....|..|C-4 AF.7 ....|--- .... ....|--- .... ....
....|..|R-- .... ....|--- .... ....|--- .... ....
....|..|R-- .... ....|--- .... ....|--- .... ....
....|..|C-4 AF.F ....|A-4 UF.7 ....|F#4 2F2A ....
....|..|C-4 AF.F ....|A-4 UF.7 ....|--- .... ....
 F#3|..|F#1 2A.F ....|G#4 UF.7 ....|--- .... ....
....|..|R-- .... ....|A-4 UF.7 ....|--- .... ....
....|..|C-4 AF.F ....|--- .... ....|C#4 2F.F ....
....|..|C-4 AF.F ....|--- .... ....|F#4 2F2F ....
 E-3|..|E-1 2A.F ....|--- .... ....|F#4 2F27 ....
....|..|R-- .... ....|--- .... ....|--- .... ....
....|..|C-4 LF.F ....|--- .... ....|F#4 2F27 ....
....|..|R-- .... ....|--- .... ....|C#4 2F.F ....
....|..|R-- .... ....|--- .... ....|--- .... ....
....|..|--- .... ....|--- .... ....|--- .... ....
....|..|C-4 LF.F ....|--- .... ....|C#4 2F.F ....
....|..|C-4 AF.A ....|--- .... ....|--- .... ....
....|..|F#1 2F.A ....|--- .... ....|--- .... ....
....|..|R-- .... ....|--- .... ....|C#4 2F.F ....
....|..|C-4 CF.F ....|--- .... ....|C#4 2F.A ....
....|..|C-4 CF.7 ....|--- .... ....|C#4 2F.F ....
....|..|C-4 CF.F ....|--- .... ....|--- .... ....
....|..|R-- .... ....|--- .... ....|--- .... ....
....|..|C-4 LF.F ....|--- .... ....|--- .... ....
....|..|R-- .... ....|R-- .... ....|C#4 2F.A ....
....|..|R-- .... ....|--- .... ....|--- .... ....
....|..|--- .... ....|--- .... ....|--- .... ....
....|..|C-4 LF.F ....|--- .... ....|C#4 2F.A ....
....|..|C-4 AF.7 ....|--- .... ....|--- .... ....
....|..|F#1 2F.7 ....|--- .... ....|--- .... ....
....|..|R-- .... ....|F#5 UF.F ....|C#4 2F.A ....
....|..|C-4 AF.F ....|--- .... ....|D-4 2F.F ....
....|..|C-4 AF.F ....|--- .... ....|D-4 2F.F ....
 D-4|..|D-2 2A.F ....|--- .... ....|--- .... ....
....|..|R-- .... ....|--- .... ....|--- .... ....
....|..|C-4 LF.F ....|--- .... ....|D-3 2F.F ....
....|..|R-- .... ....|R-- .... ....|C#4 2F.7 ....
....|..|--- .... ....|--- .... ....|--- .... ....
....|..|--- .... ....|--- .... ....|--- .... ....

[Pattern17]
....|..|C-4 LF.F ....|--- .... ....|C#4 2F.7 ....
....|..|R-- .... ....|--- .... ....|--- .... ....
....|..|--- .... ....|--- .... ....|--- .... ....
....|..|--- .... ....|F#5 UF.A ....|C#4 2F.7 ....
....|..|C-4 CF.F ....|--- .... ....|D-4 2F.A ....
....|..|C-4 AF.A ....|--- .... ....|C#4 2F.7 ....
....|..|C-4 CF.F ....|--- .... ....|--- .... ....
....|..|R-- .... ....|F#5 UF.F ....|--- .... ....
....|..|C-4 LF.F ....|E-5 UF.F ....|D-3 2F.A ....
....|..|R-- .... ....|F#5 UF.F ....|--- .... ....
....|..|R-- .... ....|F#5 UF.F ....|--- .... ....
....|..|--- .... ....|G-5 UF.F ....|--- .... ....
....|..|C-4 AF.F ....|--- .... ....|--- .... ....
....|..|C-4 AF.F ....|G-5 UF.F ....|--- .... ....
 D-4|..|D-2 2A.F ....|F#5 UF.F ....|--- .... ....
....|..|R-- .... ....|F#5 UF.7 ....|R-- .... ....
....|..|C-4 AF.F ....|E-5 UF.F ....|F#4 2F.F ....
 C#4|..|C#2 2A.F ....|--- .... ....|D-4 2F.7 ....
....|..|C-4 AF.F ....|--- .... ....|--- .... ....
....|..|R-- .... ....|F#5 UF.A ....|--- .... ....
....|..|C-4 LF.F ....|E-5 UF.A ....|D-3 2F.7 ....
....|..|R-- .... ....|F#5 UF.A ....|--- .... ....
....|..|R-- .... ....|F#5 UF.A ....|--- .... ....
....|..|--- .... ....|G-5 UF.A ....|--- .... ....
....|..|C-4 LF.F ....|--- .... ....|--- .... ....
....|..|C-4 AF.A ....|G-5 UF.A ....|--- .... ....
....|..|D-2 2F.A ....|F#5 UF.A ....|--- .... ....
....|..|R-- .... ....|--- .... ....|R-- .... ....
....|..|C-4 CF.F ....|E-5 UF.A ....|F#4 2F.A ....
....|..|C#2 2F.A ....|--- .... ....|--- .... ....
....|..|C-4 CF.F ....|--- .... ....|--- .... ....
....|..|R-- .... ....|F#5 UF.7 ....|--- .... ....
....|..|C-4 LF.F ....|E-5 UF.7 ....|--- .... ....
....|..|R-- .... ....|F#5 UF.7 ....|--- .... ....
....|..|R-- .... ....|F#5 UF.7 ....|--- .... ....
....|..|--- .... ....|G-5 UF.7 ....|--- .... ....
....|..|C-4 LF.F ....|E-5 UF.F ....|--- .... ....
....|..|C-4 AF.7 ....|D-5 UF.F ....|--- .... ....
....|..|D-2 2F.7 ....|C#5 UF.F ....|--- .... ....
....|..|R-- .... ....|D-5 UF.F ....|R-- .... ....
....|..|C-4 AF.F ....|D-5 UF.F ....|F#4 2F.F ....
 B-3|..|B-1 2A.F ....|--- .... ....|F#4 2F.F ....
....|..|C-4 AF.F ....|--- .... ....|--- .... ....
....|..|R-- .... ....|--- .... ....|--- .... ....
....|..|C-4 LF.F ....|--- .... ....|--- .... ....
....|..|R-- .... ....|--- .... ....|F#4 2F.F ....
....|..|R-- .... ....|--- .... ....|--- .... ....
....|..|--- .... ....|--- .... ....|--- .... ....
....|..|C-4 LF.F ....|E-5 UF.A ....|F#4 2F.F ....
....|..|R-- .... ....|D-5 UF.A ....|--- .... ....
....|..|--- .... ....|C#5 UF.A ....|--- .... ....
....|..|--- .... ....|D-5 UF.A ....|--- .... ....
....|..|C-4 CF.F ....|D-5 UF.A ....|F#4 2F.A ....
....|..|B-1 2F.A ....|--- .... ....|F#4 2F.F ....
....|..|C-4 CF.F ....|--- .... ....|--- .... ....
....|..|R-- .... ....|--- .... ....|--- .... ....
....|..|C-4 LF.F ....|--- .... ....|--- .... ....
....|..|--- .... ....|--- .... ....|F#4 2F.A ....
....|..|R-- .... ....|--- .... ....|--- .... ....
....|..|--- .... ....|--- .... ....|--- .... ....
....|..|C-4 AF.F ....|E-5 UF.7 ....|F#4 2F.A ....
....|..|C-4 AF.F ....|D-5 UF.7 ....|--- .... ....
 F#3|..|F#1 2A.F ....|C#5 UF.7 ....|--- .... ....
....|..|R-- .... ....|D-5 UF.7 ....|--- .... ....

[Pattern18]
....|..|C-4 AF.F ....|D-5 UF.7 ....|F#4 2F.F ....
....|..|C-4 AF.F ....|--- .... ....|F#4 2F.7 ....
 B-3|..|B-1 2A.F ....|--- .... ....|--- .... ....
....|..|R-- .... ....|--- .... ....|--- .... ....
....|..|C-4 LF.F ....|--- .... ....|--- .... ....
....|..|R-- .... ....|--- .... ....|D-4 2F.F ....
....|..|R-- .... ....|--- .... ....|--- .... ....
....|..|--- .... ....|--- .... ....|--- .... ....
....|..|C-4 LF.F ....|--- .... ....|D-4 2F.F ....
....|..|C-4 AF.A ....|--- .... ....|--- .... ....
....|..|F#1 2F.A ....|--- .... ....|--- .... ....
....|..|R-- .... ....|--- .... ....|--- .... ....
....|..|C-4 CF.F ....|--- .... ....|D-4 2F.F ....
....|..|C-4 AF.A ....|R-- .... ....|D-4 2F.F ....
....|..|C-4 CF.F ....|--- .... ....|--- .... ....
....|..|R-- .... ....|--- .... ....|--- .... ....
....|..|D#4 9F.F ....|--- .... ....|--- .... ....
....|..|D#4 9F.F ....|--- .... ....|D-4 2F.A ....
 B-3|..|B-1 2A.F ....|C#5 UF.F ....|--- .... ....
....|..|R-- .... ....|R-- .... ....|--- .... ....
....|..|C-4 9F.F ....|C#5 UF.F ....|D-4 2F.A ....
....|..|C-4 9F.F ....|B-4 UF.F ....|--- .... ....
....|..|F#1 2F.7 ....|--- .... ....|--- .... ....
....|..|R-- .... ....|--- .... ....|--- .... ....
....|..|C-4 AF.F ....|C#5 UF.F ....|C#4 2F.F ....
....|..|C-4 AF.F ....|R-- .... ....|C#4 2F.F ....
 A-3|..|A-1 2A.F ....|--- .... ....|--- .... ....
....|..|C-4 LF.F ....|--- .... ....|--- .... ....
....|..|C-4 LF.F ....|--- .... ....|--- .... ....
....|..|D#4 9F.A ....|--- .... ....|D-4 2F.7 ....
....|..|C-4 LF.F ....|C#5 UF.A ....|--- .... ....
....|..|R-- .... ....|R-- .... ....|--- .... ....
....|..|C-4 LF.F ....|C#5 UF.A ....|D-4 2F.7 ....
....|..|C-4 LF.F ....|B-4 UF.A ....|--- .... ....
....|..|R-- .... ....|--- .... ....|--- .... ....
....|..|R-- .... ....|--- .... ....|--- .... ....
....|..|C-4 CF.F ....|F#5 UF.F ....|D-4 2F.7 ....
....|..|C-4 AF.A ....|F#5 UF.F ....|D-4 2F.7 ....
....|..|C-4 CF.7 ....|--- .... ....|--- .... ....
....|..|C-4 LF.A ....|--- .... ....|--- .... ....
....|..|C-4 LF.F ....|--- .... ....|--- .... ....
....|..|D#4 9F.7 ....|--- .... ....|--- .... ....
....|..|B-1 2F.7 ....|C#5 UF.7 ....|--- .... ....
....|..|R-- .... ....|R-- .... ....|--- .... ....
....|..|C-4 AF.F ....|C#5 UF.7 ....|A-3 2F.F ....
 A-3|..|A-1 2A.F ....|B-4 UF.7 ....|A-3 2F.F ....
....|..|C-4 AF.F ....|--- .... ....|--- .... ....
....|..|R-- .... ....|--- .... ....|--- .... ....
....|..|C-4 AF.F ....|G#5 UF.F ....|C-4 2F2F ....
....|..|C-4 AF.F ....|G#5 UF.F ....|C#4 2F.7 ....
 A-3|..|A-1 2A.F ....|--- .... ....|--- .... ....
 G#3|..|G#1 2A.F ....|--- .... ....|--- .... ....
....|..|C-4 LF.F ....|--- .... ....|--- .... ....
....|..|R-- .... ....|--- .... ....|--- .... ....
....|..|C-4 LF.7 ....|--- .... ....|--- .... ....
....|..|--- .... ....|--- .... ....|--- .... ....
....|..|C-4 LF.F ....|--- .... ....|A-3 2F.A ....
....|..|C-4 LF.7 ....|--- .... ....|A-3 2F.A ....
....|..|C-4 AF.A ....|--- .... ....|--- .... ....
....|..|R-- .... ....|--- .... ....|--- .... ....
....|..|C-4 CF.F ....|F#5 UF.7 ....|C-4 2F2A ....
....|..|C-4 AF.A ....|F#5 UF.7 ....|--- .... ....
....|..|C-4 CF.F ....|--- .... ....|--- .... ....
....|..|G#1 2F.A ....|--- .... ....|--- .... ....

[Pattern19]
....|..|C-4 AF.F ....|--- .... ....|--- .... ....
....|..|C-4 AF.F ....|--- .... ....|--- .... ....
....|..|R-- .... ....|--- .... ....|--- .... ....
....|..|R-- .... ....|G#5 UF.F ....|--- .... ....
....|..|C-4 LF.F ....|D#5 UF.F ....|A-3 2F.7 ....
 G#3|..|G#1 2A.F ....|--- .... ....|A-3 2F.7 ....
....|..|C-4 AF.7 ....|--- .... ....|D#4 2F.F ....
....|..|R-- .... ....|--- .... ....|--- .... ....
....|..|C-4 AF.F ....|F-5 UF.F ....|D#4 2F3F ....
....|..|C-4 AF.F ....|G#5 UF.7 ....|F-4 2F2F ....
 C#4|..|C#2 2A.F ....|--- .... ....|F-4 2F2F ....
 C#4|..|C#2 2A.F ....|--- .... ....|--- .... ....
....|..|C-4 LF.F ....|--- .... ....|--- .... ....
....|..|C-4 AF.A ....|--- .... ....|--- .... ....
....|..|R-- .... ....|--- .... ....|--- .... ....
....|..|R-- .... ....|G#5 UF.A ....|--- .... ....
....|..|C-4 LF.F ....|D#5 UF.A ....|F-4 2F4F ....
....|..|G#1 2F.A ....|--- .... ....|--- .... ....
....|..|R-- .... ....|--- .... ....|D#4 2F.A ....
....|..|--- .... ....|--- .... ....|--- .... ....
....|..|C-4 CF.F ....|F-5 UF.A ....|D#4 2F3A ....
....|..|C-4 CF.F ....|--- .... ....|F-4 2F2A ....
....|..|C-4 CF.7 ....|--- .... ....|F-4 2F2A ....
....|..|C#2 2F.A ....|--- .... ....|--- .... ....
....|..|C-4 LF.F ....|--- .... ....|F-4 2F2F ....
....|..|C-4 AF.7 ....|--- .... ....|--- .... ....
....|..|R-- .... ....|--- .... ....|--- .... ....
....|..|R-- .... ....|G#5 UF.7 ....|F-4 2F2F ....
....|..|C-4 AF.F ....|D#5 UF.7 ....|F-4 2F4A ....
....|..|C-4 AF.F ....|--- .... ....|G#4 2F.F ....
....|..|R-- .... ....|--- .... ....|D#4 2F.7 ....
....|..|R-- .... ....|--- .... ....|--- .... ....
....|..|C-4 AF.F ....|F-5 UF.7 ....|G#4 2F.F ....
....|..|C-4 AF.F ....|--- .... ....|F-4 2F27 ....
 C#4|..|C#2 2A.F ....|--- .... ....|F-4 2F27 ....
....|..|C#2 2F.7 ....|--- .... ....|--- .... ....
....|..|C-4 LF.F ....|--- .... ....|F-4 2F2A ....
....|..|R-- .... ....|--- .... ....|--- .... ....
....|..|--- .... ....|--- .... ....|--- .... ....
....|..|--- .... ....|--- .... ....|F-4 2F2A ....
....|..|C-4 LF.F ....|--- .... ....|F-4 2F47 ....
....|..|C-4 AF.A ....|--- .... ....|G#4 2F.A ....
....|..|R-- .... ....|--- .... ....|--- .... ....
....|..|R-- .... ....|--- .... ....|--- .... ....
....|..|C-4 CF.F ....|--- .... ....|G#4 2F.A ....
....|..|C-4 CF.7 ....|--- .... ....|--- .... ....
....|..|C-4 CF.F ....|--- .... ....|--- .... ....
....|..|R-- .... ....|--- .... ....|C#4 2F.F ....
....|..|D#4 9F.F ....|F#5 UF.F ....|A-4 2F1F ....
 G#3|..|G#1 2A.F ....|F#5 UF.F ....|A-4 2F1F ....
....|..|--- .... ....|--- .... ....|--- .... ....
....|..|--- .... ....|--- .... ....|F-4 2F27 ....
....|..|C-4 9F.F ....|G#5 UF.F ....|--- .... ....
....|..|C-4 AF.7 ....|G#5 UF.F ....|C#4 2F.F ....
....|..|R-- .... ....|--- .... ....|--- .... ....
....|..|R-- .... ....|--- .... ....|--- .... ....
....|..|C-4 AF.F ....|A-5 UF.F ....|C#4 2F.F ....
....|..|C-4 AF.F ....|A-5 UF.F ....|--- .... ....
 F#3|..|F#1 2A.F ....|--- .... ....|F#4 2F.F ....
....|..|R-- .... ....|--- .... ....|C#4 2F.A ....
....|..|C-4 LF.F ....|F#5 UF.A ....|A-4 2F1A ....
....|..|G#1 2F.A ....|F#5 UF.A ....|A-4 2F1A ....
....|..|--- .... ....|--- .... ....|--- .... ....
....|..|--- .... ....|--- .... ....|--- .... ....

[Pattern20]
....|..|C-4 LF.F ....|G#5 UF.A ....|--- .... ....
....|..|R-- .... ....|G#5 UF.A ....|C#4 2F.A ....
....|..|--- .... ....|--- .... ....|--- .... ....
....|..|--- .... ....|--- .... ....|--- .... ....
....|..|C-4 CF.F ....|C#6 UF.F ....|C#4 2F.A ....
....|..|C-4 AF.A ....|C#6 UF.F ....|--- .... ....
....|..|C-4 CF.F ....|--- .... ....|F#4 2F.A ....
....|..|R-- .... ....|--- .... ....|C#4 2F.7 ....
....|..|C-4 LF.F ....|F#5 UF.7 ....|A-4 2F17 ....
....|..|G#1 2F.7 ....|F#5 UF.7 ....|A-4 2F17 ....
....|..|R-- .... ....|--- .... ....|--- .... ....
....|..|--- .... ....|--- .... ....|--- .... ....
....|..|C-4 AF.F ....|G#5 UF.7 ....|--- .... ....
....|..|C-4 AF.F ....|G#5 UF.7 ....|C#4 2F.7 ....
 F#3|..|F#1 2A.F ....|--- .... ....|C#5 2F.F ....
....|..|R-- .... ....|--- .... ....|--- .... ....
....|..|C-4 AF.F ....|B-5 UF.F ....|D#4 2F2F ....
 B-3|..|B-1 2A.F ....|A-5 UF.7 ....|B-3 2F.F ....
....|..|C-4 AF.F ....|--- .... ....|F#4 2F.F ....
....|..|R-- .... ....|--- .... ....|--- .... ....
....|..|C-4 LF.F ....|--- .... ....|--- .... ....
....|..|R-- .... ....|--- .... ....|--- .... ....
....|..|R-- .... ....|--- .... ....|--- .... ....
....|..|--- .... ....|--- .... ....|--- .... ....
....|..|C-4 LF.F ....|--- .... ....|--- .... ....
....|..|C-4 AF.A ....|--- .... ....|--- .... ....
....|..|F#1 2F.A ....|--- .... ....|C#5 2F.A ....
....|..|R-- .... ....|--- .... ....|--- .... ....
....|..|C-4 CF.F ....|C#6 UF.7 ....|D#4 2F2A ....
....|..|B-1 2F.A ....|C#6 UF.7 ....|B-3 2F.A ....
....|..|C-4 CF.F ....|--- .... ....|F#4 2F.A ....
....|..|R-- .... ....|--- .... ....|--- .... ....
....|..|C-4 LF.F ....|--- .... ....|--- .... ....
....|..|R-- .... ....|--- .... ....|--- .... ....
....|..|R-- .... ....|B-5 UF.F ....|--- .... ....
....|..|--- .... ....|F#5 UF.F ....|--- .... ....
....|..|C-4 LF.F ....|--- .... ....|--- .... ....
 B-3|..|B-1 2A.F ....|--- .... ....|--- .... ....
....|..|F#1 2F.7 ....|--- .... ....|C#5 2F.7 ....
....|..|R-- .... ....|--- .... ....|F#4 2F.F ....
....|..|C-4 AF.F ....|G#5 UF.F ....|F-4 2F4F ....
 C#4|..|C#2 2A.F ....|--- .... ....|F-4 2F2F ....
....|..|C-4 AF.F ....|--- .... ....|F#4 2F.7 ....
 C#4|..|C#2 2A.F ....|--- .... ....|--- .... ....
....|..|C-4 LF.F ....|--- .... ....|--- .... ....
....|..|R-- .... ....|--- .... ....|--- .... ....
....|..|B-8 JF.F ....|B-5 UF.A ....|--- .... ....
....|..|--- .... ....|F#5 UF.A ....|--- .... ....
....|..|C-4 LF.F ....|--- .... ....|--- .... ....
....|..|B-8 JF.F ....|--- .... ....|--- .... ....
....|..|--- .... ....|--- .... ....|--- .... ....
....|..|--- .... ....|--- .... ....|F#4 2F.A ....
....|..|C-4 CF.F ....|G#5 UF.A ....|F-4 2F4A ....
....|..|C#2 2F.A ....|--- .... ....|F-4 2F2A ....
....|..|C-4 CF.F ....|--- .... ....|--- .... ....
....|..|B-8 JF.F ....|--- .... ....|--- .... ....
....|..|C-4 LF.F ....|--- .... ....|--- .... ....
....|..|--- .... ....|--- .... ....|--- .... ....
....|..|B-8 JF.F ....|B-5 UF.7 ....|--- .... ....
....|..|--- .... ....|F#5 UF.7 ....|--- .... ....
....|..|C-4 AF.F ....|--- .... ....|--- .... ....
....|..|C-4 AF.F ....|--- .... ....|--- .... ....
....|..|--- .... ....|--- .... ....|--- .... ....
....|..|B-8 JF.F ....|--- .... ....|F#4 2F.7 ....

[Pattern21]
....|..|C-4 AF.F ....|G#5 UF.7 ....|F-4 2F47 ....
....|..|C#2 2F.7 ....|--- .... ....|F-4 2F27 ....
....|..|C-4 AF.F ....|--- .... ....|R-- .... ....
....|..|C#2 2F.7 ....|--- .... ....|--- .... ....
....|..|C-4 LF.7 ....|--- .... ....|--- .... ....
....|..|--- .... ....|--- .... ....|--- .... ....
....|..|B-8 JF.7 ....|R-- .... ....|--- .... ....
....|..|--- .... ....|--- .... ....|--- .... ....
....|..|C-4 LF.7 ....|--- .... ....|--- .... ....
....|..|B-8 JF.7 ....|--- .... ....|--- .... ....
....|..|--- .... ....|--- .... ....|--- .... ....
....|..|B-8 JF.A ....|--- .... ....|--- .... ....
....|..|C-4 CF.7 ....|--- .... ....|--- .... ....
....|..|--- .... ....|--- .... ....|--- .... ....
....|..|C-4 CF.7 ....|--- .... ....|R-- .... ....
....|..|B-8 JF.7 ....|--- .... ....|--- .... ....
....|..|C-4 LF.7 ....|--- .... ....|--- .... ....
....|..|--- .... ....|--- .... ....|--- .... ....
....|..|B-8 JF.7 ....|R-- .... ....|--- .... ....
....|..|--- .... ....|--- .... ....|--- .... ....
....|..|C-4 AF.7 ....|--- .... ....|--- .... ....
....|..|C-4 AF.7 ....|--- .... ....|--- .... ....
....|..|--- .... ....|--- .... ....|--- .... ....
....|..|B-8 JF.7 ....|--- .... ....|--- .... ....
 F#4|..|F#2 2A.F ....|C#6 UF.F ....|--- .... ....
....|..|--- .... ....|--- .... ....|--- .... ....
....|..|C-4 AF.7 ....|--- .... ....|R-- .... ....
....|..|--- .... ....|R-- .... ....|--- .... ....
 F#4|..|F#2 2A.F ....|--- .... ....|--- .... ....
....|..|--- .... ....|--- .... ....|--- .... ....
....|..|R-- .... ....|R-- .... ....|--- .... ....
....|..|--- .... ....|--- .... ....|--- .... ....
 F#4|..|F#2 2A.F ....|--- .... ....|--- .... ....
....|..|--- .... ....|--- .... ....|--- .... ....
....|..|R-- .... ....|--- .... ....|--- .... ....
....|..|--- .... ....|--- .... ....|--- .... ....
 F#4|..|F#2 2A.F ....|C#6 UF.A ....|--- .... ....
....|..|--- .... ....|--- .... ....|--- .... ....
....|..|R-- .... ....|--- .... ....|--- .... ....
....|..|--- .... ....|R-- .... ....|--- .... ....
 F#4|..|F#2 2A.F ....|--- .... ....|--- .... ....
....|..|--- .... ....|--- .... ....|--- .... ....
....|..|R-- .... ....|--- .... ....|--- .... ....
....|..|--- .... ....|--- .... ....|--- .... ....
 F#4|..|F#2 2A.F ....|--- .... ....|--- .... ....
....|..|--- .... ....|--- .... ....|--- .... ....
....|..|R-- .... ....|--- .... ....|--- .... ....
....|..|--- .... ....|--- .... ....|--- .... ....
 F#4|..|F#2 2A.F ....|C#6 UF.F ....|--- .... ....
....|..|--- .... ....|--- .... ....|--- .... ....
....|..|R-- .... ....|R-- .... ....|--- .... ....
....|..|--- .... ....|R-- .... ....|--- .... ....
 F#4|..|F#2 2A.F ....|--- .... ....|--- .... ....
....|..|--- .... ....|--- .... ....|--- .... ....
....|..|R-- .... ....|--- .... ....|--- .... ....
....|..|--- .... ....|--- .... ....|--- .... ....
 F#4|..|F#2 2A.F ....|--- .... ....|--- .... ....
....|..|--- .... ....|--- .... ....|--- .... ....
....|..|R-- .... ....|--- .... ....|--- .... ....
....|..|--- .... ....|--- .... ....|--- .... ....
 F#4|..|F#2 2A.F ....|C#6 UF.F ....|--- .... ....
....|..|--- .... ....|--- .... ....|--- .... ....
....|..|R-- .... ....|R-- .... ....|--- .... ....
....|..|--- .... ....|R-- .... ....|--- .... ....

[Pattern22]
 F#4|..|F#2 2A.F ....|--- .... ....|--- .... ....
....|..|--- .... ....|--- .... ....|--- .... ....
....|..|R-- .... ....|--- .... ....|--- .... ....
....|..|--- .... ....|--- .... ....|--- .... ....
 F#4|..|F#2 2A.F ....|--- .... ....|--- .... ....
....|..|--- .... ....|--- .... ....|--- .... ....
....|..|R-- .... ....|--- .... ....|--- .... ....
....|..|--- .... ....|--- .... ....|--- .... ....
 E-4|..|E-2 2A.F ....|C#6 UF.7 ....|--- .... ....
....|..|--- .... ....|--- .... ....|--- .... ....
....|..|R-- .... ....|R-- .... ....|--- .... ....
....|..|--- .... ....|R-- .... ....|--- .... ....
 E-4|..|E-2 2A.F ....|--- .... ....|--- .... ....
....|..|--- .... ....|--- .... ....|--- .... ....
....|..|--- .... ....|--- .... ....|--- .... ....
....|..|--- .... ....|--- .... ....|--- .... ....
 E-4|..|E-2 2A.F ....|--- .... ....|--- .... ....
....|..|--- .... ....|--- .... ....|--- .... ....
....|..|R-- .... ....|--- .... ....|--- .... ....
....|..|--- .... ....|--- .... ....|--- .... ....
 E-4|..|E-2 2A.F ....|C#6 UF.7 ....|--- .... ....
....|..|--- .... ....|--- .... ....|--- .... ....
....|..|R-- .... ....|--- .... ....|--- .... ....
....|..|--- .... ....|R-- .... ....|--- .... ....
 E-4|..|E-2 2A.F ....|B-5 UF.F ....|--- .... ....
....|..|--- .... ....|--- .... ....|--- .... ....
....|..|--- .... ....|R-- .... ....|--- .... ....
....|..|--- .... ....|--- .... ....|--- .... ....
 E-4|..|E-2 2A.F ....|A-5 UF.F ....|--- .... ....
....|..|--- .... ....|R-- .... ....|--- .... ....
....|..|R-- .... ....|--- .... ....|--- .... ....
....|..|--- .... ....|--- .... ....|--- .... ....
 E-4|..|E-2 2A.F ....|B-5 UF.F ....|--- .... ....
....|..|--- .... ....|--- .... ....|--- .... ....
....|..|R-- .... ....|R-- .... ....|--- .... ....
....|..|--- .... ....|--- .... ....|--- .... ....
 E-4|..|E-2 2A.F ....|B-5 UF.A ....|--- .... ....
....|..|--- .... ....|--- .... ....|--- .... ....
....|..|--- .... ....|R-- .... ....|--- .... ....
....|..|--- .... ....|--- .... ....|--- .... ....
 E-4|..|E-2 2A.F ....|A-5 UF.A ....|--- .... ....
....|..|--- .... ....|R-- .... ....|--- .... ....
....|..|R-- .... ....|--- .... ....|--- .... ....
....|..|--- .... ....|--- .... ....|--- .... ....
 E-4|..|E-2 2A.F ....|B-5 UF.A ....|--- .... ....
....|..|--- .... ....|--- .... ....|--- .... ....
....|..|--- .... ....|R-- .... ....|--- .... ....
....|..|--- .... ....|--- .... ....|--- .... ....
 E-4|..|E-2 2A.F ....|B-5 UF.7 ....|--- .... ....
....|..|--- .... ....|--- .... ....|--- .... ....
....|..|R-- .... ....|R-- .... ....|--- .... ....
....|..|--- .... ....|--- .... ....|--- .... ....
 E-4|..|E-2 2A.F ....|A-5 UF.7 ....|--- .... ....
....|..|--- .... ....|R-- .... ....|--- .... ....
....|..|R-- .... ....|--- .... ....|--- .... ....
....|..|--- .... ....|--- .... ....|--- .... ....
 D-4|..|D-2 2A.F ....|A-5 UF.F ....|--- .... ....
....|..|--- .... ....|--- .... ....|--- .... ....
....|..|--- .... ....|R-- .... ....|--- .... ....
....|..|--- .... ....|--- .... ....|--- .... ....
 D-4|..|D-2 2A.F ....|--- .... ....|--- .... ....
....|..|--- .... ....|--- .... ....|--- .... ....
....|..|R-- .... ....|--- .... ....|--- .... ....
....|..|--- .... ....|--- .... ....|--- .... ....

[Pattern23]
 D-4|..|D-2 2A.F ....|--- .... ....|--- .... ....
....|..|--- .... ....|--- .... ....|--- .... ....
....|..|R-- .... ....|--- .... ....|--- .... ....
....|..|--- .... ....|--- .... ....|--- .... ....
 D-4|..|D-2 2A.F ....|F#5 UF.F ....|--- .... ....
....|..|--- .... ....|--- .... ....|--- .... ....
....|..|--- .... ....|R-- .... ....|--- .... ....
....|..|--- .... ....|R-- .... ....|--- .... ....
 D-4|..|D-2 2A.F ....|--- .... ....|--- .... ....
....|..|--- .... ....|--- .... ....|--- .... ....
....|..|R-- .... ....|--- .... ....|--- .... ....
....|..|--- .... ....|--- .... ....|--- .... ....
 D-4|..|D-2 2A.F ....|--- .... ....|--- .... ....
....|..|--- .... ....|--- .... ....|--- .... ....
....|..|--- .... ....|--- .... ....|--- .... ....
....|..|--- .... ....|--- .... ....|--- .... ....
 D-4|..|D-2 2A.F ....|A-5 UF.7 ....|--- .... ....
....|..|--- .... ....|--- .... ....|--- .... ....
....|..|--- .... ....|R-- .... ....|--- .... ....
....|..|--- .... ....|R-- .... ....|--- .... ....
 D-4|..|D-2 2A.F ....|--- .... ....|--- .... ....
....|..|--- .... ....|--- .... ....|--- .... ....
....|..|R-- .... ....|--- .... ....|--- .... ....
....|..|--- .... ....|--- .... ....|--- .... ....
 D-4|..|D-2 2A.F ....|--- .... ....|--- .... ....
....|..|--- .... ....|--- .... ....|--- .... ....
....|..|--- .... ....|--- .... ....|--- .... ....
....|..|--- .... ....|--- .... ....|--- .... ....
 D-4|..|D-2 2A.F ....|G#5 UF.F ....|--- .... ....
....|..|--- .... ....|--- .... ....|--- .... ....
....|..|--- .... ....|--- .... ....|--- .... ....
....|..|--- .... ....|R-- .... ....|--- .... ....
 D-4|..|D-2 2A.F ....|--- .... ....|--- .... ....
....|..|--- .... ....|--- .... ....|--- .... ....
....|..|R-- .... ....|--- .... ....|--- .... ....
....|..|--- .... ....|--- .... ....|--- .... ....
 D-4|..|D-2 2A.F ....|A-5 UF.F ....|--- .... ....
....|..|--- .... ....|R-- .... ....|--- .... ....
....|..|--- .... ....|--- .... ....|--- .... ....
....|..|--- .... ....|--- .... ....|--- .... ....
 B-3|..|B-1 2A.F ....|A-5 UF.F ....|--- .... ....
....|..|--- .... ....|--- .... ....|--- .... ....
....|..|--- .... ....|--- .... ....|--- .... ....
....|..|--- .... ....|R-- .... ....|--- .... ....
 B-3|..|B-1 2A.F ....|--- .... ....|--- .... ....
....|..|--- .... ....|--- .... ....|--- .... ....
....|..|--- .... ....|--- .... ....|--- .... ....
....|..|--- .... ....|--- .... ....|--- .... ....
 B-3|..|B-1 2A.F ....|A-5 UF.A ....|--- .... ....
....|..|--- .... ....|R-- .... ....|--- .... ....
....|..|--- .... ....|--- .... ....|--- .... ....
....|..|--- .... ....|--- .... ....|--- .... ....
 B-3|..|B-1 2A.F ....|D-5 UF.F ....|--- .... ....
....|..|--- .... ....|--- .... ....|--- .... ....
....|..|--- .... ....|R-- .... ....|--- .... ....
....|..|--- .... ....|R-- .... ....|--- .... ....
 B-3|..|B-1 2A.F ....|--- .... ....|--- .... ....
....|..|--- .... ....|--- .... ....|--- .... ....
....|..|--- .... ....|--- .... ....|--- .... ....
....|..|--- .... ....|--- .... ....|--- .... ....
 B-3|..|B-1 2A.F ....|A-5 UF.7 ....|--- .... ....
....|..|--- .... ....|R-- .... ....|--- .... ....
....|..|--- .... ....|--- .... ....|--- .... ....
....|..|--- .... ....|--- .... ....|--- .... ....

[Pattern24]
 E-4|..|E-2 2A.F ....|A-5 UF.7 ....|--- .... ....
....|..|--- .... ....|--- .... ....|--- .... ....
....|..|--- .... ....|R-- .... ....|--- .... ....
....|..|--- .... ....|R-- .... ....|--- .... ....
 E-4|..|E-2 2A.F ....|--- .... ....|--- .... ....
....|..|--- .... ....|--- .... ....|--- .... ....
....|..|--- .... ....|--- .... ....|--- .... ....
....|..|--- .... ....|--- .... ....|--- .... ....
 E-4|..|E-2 2A.F ....|--- .... ....|--- .... ....
....|..|--- .... ....|--- .... ....|--- .... ....
....|..|--- .... ....|--- .... ....|--- .... ....
....|..|--- .... ....|--- .... ....|--- .... ....
 E-4|..|E-2 2A.F ....|G#5 UF.F ....|--- .... ....
....|..|--- .... ....|--- .... ....|--- .... ....
....|..|--- .... ....|R-- .... ....|--- .... ....
....|..|--- .... ....|R-- .... ....|--- .... ....
 E-4|..|E-2 2A.F ....|--- .... ....|--- .... ....
....|..|--- .... ....|--- .... ....|--- .... ....
....|..|--- .... ....|--- .... ....|--- .... ....
....|..|--- .... ....|--- .... ....|--- .... ....
 E-4|..|E-2 2A.F ....|F#5 UF.F ....|--- .... ....
....|..|--- .... ....|R-- .... ....|--- .... ....
....|..|--- .... ....|--- .... ....|--- .... ....
....|..|--- .... ....|--- .... ....|--- .... ....
 A-3|..|A-1 2A.F ....|G#5 UF.F ....|--- .... ....
....|..|--- .... ....|--- .... ....|--- .... ....
....|..|--- .... ....|--- .... ....|--- .... ....
....|..|--- .... ....|R-- .... ....|--- .... ....
 A-3|..|A-1 2A.F ....|--- .... ....|--- .... ....
....|..|--- .... ....|--- .... ....|--- .... ....
....|..|--- .... ....|--- .... ....|--- .... ....
....|..|--- .... ....|--- .... ....|--- .... ....
 A-3|..|A-1 2A.F ....|F#5 UF.A ....|--- .... ....
....|..|--- .... ....|R-- .... ....|--- .... ....
....|..|--- .... ....|--- .... ....|--- .... ....
....|..|--- .... ....|--- .... ....|--- .... ....
 A-3|..|A-1 2A.F ....|C#5 UF.F ....|--- .... ....
....|..|--- .... ....|--- .... ....|--- .... ....
....|..|--- .... ....|--- .... ....|--- .... ....
....|..|--- .... ....|R-- .... ....|--- .... ....
 A-3|..|A-1 2A.F ....|--- .... ....|--- .... ....
....|..|--- .... ....|--- .... ....|--- .... ....
....|..|--- .... ....|--- .... ....|--- .... ....
....|..|--- .... ....|--- .... ....|--- .... ....
 A-3|..|A-1 2A.F ....|F#5 UF.7 ....|--- .... ....
....|..|--- .... ....|R-- .... ....|--- .... ....
....|..|--- .... ....|--- .... ....|--- .... ....
....|..|--- .... ....|--- .... ....|--- .... ....
 A-3|..|A-1 2A.F ....|G#5 UF.7 ....|--- .... ....
....|..|--- .... ....|--- .... ....|--- .... ....
....|..|--- .... ....|--- .... ....|--- .... ....
....|..|--- .... ....|R-- .... ....|--- .... ....
 A-3|..|A-1 2A.F ....|--- .... ....|--- .... ....
....|..|--- .... ....|--- .... ....|--- .... ....
....|..|--- .... ....|--- .... ....|--- .... ....
....|..|--- .... ....|--- .... ....|--- .... ....
 A-3|..|A-1 2A.F ....|--- .... ....|--- .... ....
....|..|--- .... ....|--- .... ....|--- .... ....
....|..|--- .... ....|--- .... ....|--- .... ....
....|..|--- .... ....|--- .... ....|--- .... ....
 A-3|..|A-1 2A.F ....|C#5 UF.7 ....|--- .... ....
....|..|--- .... ....|--- .... ....|--- .... ....
....|..|--- .... ....|--- .... ....|--- .... ....
....|..|--- .... ....|R-- .... ....|--- .... ....

[Pattern25]
 A-3|..|A-1 2A.F ....|--- .... ....|--- .... ....
....|..|--- .... ....|--- .... ....|--- .... ....
....|..|--- .... ....|--- .... ....|--- .... ....
....|..|--- .... ....|--- .... ....|--- .... ....
 A-3|..|A-1 2A.F ....|--- .... ....|--- .... ....
....|..|--- .... ....|--- .... ....|--- .... ....
....|..|R-- .... ....|--- .... ....|--- .... ....
....|..|--- .... ....|--- .... ....|--- .... ....
 D-4|..|D-2 2A.F ....|--- .... ....|--- .... ....
....|..|--- .... ....|--- .... ....|--- .... ....
....|..|--- .... ....|--- .... ....|--- .... ....
....|..|--- .... ....|--- .... ....|--- .... ....
 D-4|..|D-2 2A.F ....|--- .... ....|--- .... ....
....|..|--- .... ....|--- .... ....|--- .... ....
....|..|--- .... ....|--- .... ....|--- .... ....
....|..|--- .... ....|--- .... ....|--- .... ....
 D-4|..|D-2 2A.F ....|--- .... ....|--- .... ....
....|..|--- .... ....|--- .... ....|--- .... ....
....|..|R-- .... ....|--- .... ....|--- .... ....
....|..|--- .... ....|--- .... ....|--- .... ....
 D-4|..|D-2 2A.F ....|F#5 UF.F ....|--- .... ....
....|..|--- .... ....|--- .... ....|--- .... ....
....|..|--- .... ....|--- .... ....|--- .... ....
....|..|--- .... ....|R-- .... ....|--- .... ....
 D-4|..|D-2 2A.F ....|--- .... ....|--- .... ....
....|..|--- .... ....|--- .... ....|--- .... ....
....|..|--- .... ....|--- .... ....|--- .... ....
....|..|--- .... ....|--- .... ....|--- .... ....
 D-4|..|D-2 2A.F ....|E-5 UF.F ....|--- .... ....
....|..|--- .... ....|R-- .... ....|--- .... ....
....|..|R-- .... ....|--- .... ....|--- .... ....
....|..|--- .... ....|--- .... ....|--- .... ....
 G#3|..|G#1 2A.F ....|F#5 UF.F ....|--- .... ....
....|..|--- .... ....|--- .... ....|--- .... ....
....|..|--- .... ....|--- .... ....|--- .... ....
....|..|--- .... ....|R-- .... ....|--- .... ....
 G#3|..|G#1 2A.F ....|R-- .... ....|--- .... ....
....|..|--- .... ....|--- .... ....|--- .... ....
....|..|--- .... ....|--- .... ....|--- .... ....
....|..|--- .... ....|--- .... ....|--- .... ....
 G#3|..|G#1 2A.F ....|E-5 UF.A ....|--- .... ....
....|..|--- .... ....|R-- .... ....|--- .... ....
....|..|--- .... ....|--- .... ....|--- .... ....
....|..|--- .... ....|--- .... ....|--- .... ....
 G#3|..|G#1 2A.F ....|B-4 UF.F ....|--- .... ....
....|..|--- .... ....|--- .... ....|--- .... ....
....|..|--- .... ....|--- .... ....|--- .... ....
....|..|--- .... ....|R-- .... ....|--- .... ....
 G#3|..|G#1 2A.F ....|R-- .... ....|--- .... ....
....|..|--- .... ....|--- .... ....|--- .... ....
....|..|--- .... ....|--- .... ....|--- .... ....
....|..|--- .... ....|--- .... ....|--- .... ....
 G#3|..|G#1 2A.F ....|E-5 UF.7 ....|--- .... ....
....|..|--- .... ....|R-- .... ....|--- .... ....
....|..|--- .... ....|--- .... ....|--- .... ....
....|..|--- .... ....|--- .... ....|--- .... ....
 C#4|..|C#2 2A.F ....|F#5 UF.7 ....|--- .... ....
....|..|--- .... ....|--- .... ....|--- .... ....
....|..|--- .... ....|--- .... ....|--- .... ....
....|..|--- .... ....|--- .... ....|--- .... ....
 C#4|..|C#2 2A.F ....|R-- .... ....|--- .... ....
....|..|--- .... ....|--- .... ....|--- .... ....
....|..|--- .... ....|--- .... ....|--- .... ....
....|..|--- .... ....|--- .... ....|--- .... ....

[Pattern26]
 C#4|..|C#2 2A.F ....|--- .... ....|--- .... ....
....|..|--- .... ....|--- .... ....|--- .... ....
....|..|--- .... ....|--- .... ....|--- .... ....
....|..|--- .... ....|--- .... ....|--- .... ....
 C#4|..|C#2 2A.F ....|C#6 UF.F ....|--- .... ....
....|..|--- .... ....|--- .... ....|--- .... ....
....|..|--- .... ....|--- .... ....|--- .... ....
....|..|--- .... ....|--- .... ....|--- .... ....
 C#4|..|C#2 2A.F ....|R-- .... ....|--- .... ....
....|..|--- .... ....|--- .... ....|--- .... ....
....|..|--- .... ....|--- .... ....|--- .... ....
....|..|--- .... ....|--- .... ....|--- .... ....
 C#4|..|C#2 2A.F ....|--- .... ....|--- .... ....
....|..|--- .... ....|--- .... ....|--- .... ....
....|..|--- .... ....|--- .... ....|--- .... ....
....|..|--- .... ....|--- .... ....|--- .... ....
 C#4|..|C#2 2A.F ....|B-5 UF.F ....|--- .... ....
....|..|--- .... ....|--- .... ....|--- .... ....
....|..|--- .... ....|--- .... ....|--- .... ....
....|..|--- .... ....|--- .... ....|--- .... ....
 C#4|..|C#2 2A.F ....|R-- .... ....|--- .... ....
....|..|--- .... ....|--- .... ....|--- .... ....
....|..|--- .... ....|--- .... ....|--- .... ....
....|..|--- .... ....|--- .... ....|--- .... ....
 C#4|..|C#2 2A.F ....|--- .... ....|--- .... ....
....|..|--- .... ....|--- .... ....|--- .... ....
....|..|--- .... ....|--- .... ....|--- .... ....
....|..|--- .... ....|--- .... ....|--- .... ....
 C#4|..|C#2 2A.F ....|C#6 UF.7 ....|--- .... ....
....|..|--- .... ....|--- .... ....|--- .... ....
....|..|--- .... ....|--- .... ....|--- .... ....
....|..|--- .... ....|--- .... ....|--- .... ....
 C#4|..|C#2 2A.F ....|R-- .... ....|--- .... ....
....|..|--- .... ....|--- .... ....|--- .... ....
....|..|--- .... ....|--- .... ....|--- .... ....
....|..|--- .... ....|--- .... ....|--- .... ....
 C#4|..|C#2 2A.F ....|--- .... ....|--- .... ....
....|..|--- .... ....|--- .... ....|--- .... ....
....|..|--- .... ....|--- .... ....|--- .... ....
....|..|--- .... ....|C#6 UF.F ....|--- .... ....
 C#4|..|C#2 2A.F ....|B-5 UF.7 ....|--- .... ....
....|..|--- .... ....|R-- .... ....|--- .... ....
....|..|--- .... ....|--- .... ....|--- .... ....
....|..|--- .... ....|--- .... ....|--- .... ....
 C#4|..|C#2 2A.F ....|R-- .... ....|--- .... ....
....|..|--- .... ....|--- .... ....|--- .... ....
....|..|--- .... ....|--- .... ....|--- .... ....
....|..|--- .... ....|--- .... ....|--- .... ....
 C#4|..|C#2 2A.F ....|--- .... ....|--- .... ....
....|..|--- .... ....|--- .... ....|--- .... ....
....|..|--- .... ....|--- .... ....|--- .... ....
....|..|--- .... ....|C#6 UF.A ....|--- .... ....
 C#4|..|C#2 2A.F ....|--- .... ....|--- .... ....
....|..|--- .... ....|R-- .... ....|--- .... ....
....|..|--- .... ....|--- .... ....|--- .... ....
....|..|--- .... ....|--- .... ....|--- .... ....
 C#4|..|C#2 2A.F ....|--- .... ....|--- .... ....
....|..|--- .... ....|--- .... ....|--- .... ....
....|..|--- .... ....|--- .... ....|--- .... ....
....|..|--- .... ....|--- .... ....|--- .... ....
 C#4|..|C#2 2A.F ....|--- .... ....|--- .... ....
....|..|--- .... ....|--- .... ....|--- .... ....
....|..|--- .... ....|--- .... ....|--- .... ....
....|..|--- .... ....|C#6 UF.7 ....|--- .... ....

[Pattern27]
 C#4|..|C#2 2A.F ....|--- .... ....|--- .... ....
....|..|--- .... ....|R-- .... ....|--- .... ....
....|..|--- .... ....|--- .... ....|--- .... ....
....|..|--- .... ....|--- .... ....|--- .... ....
 C#4|..|C#2 2A.F ....|--- .... ....|--- .... ....
....|..|--- .... ....|--- .... ....|--- .... ....
....|..|--- .... ....|--- .... ....|--- .... ....
....|..|--- .... ....|--- .... ....|--- .... ....
 C#4|..|C#2 2A.F ....|--- .... ....|B-3 2F1F ....
....|..|--- .... ....|--- .... ....|--- .... ....
....|..|--- .... ....|--- .... ....|--- .... ....
....|..|--- .... ....|--- .... ....|--- .... ....
....|..|C-4 LF.F ....|--- .... ....|--- .... ....
 C#4|..|C#2 2A.F ....|--- .... ....|R-- .... ....
....|..|R-- .... ....|--- .... ....|--- .... ....
....|..|--- .... ....|--- .... ....|--- .... ....
....|..|D#4 9F.F ....|--- .... ....|G#3 2F7F ....
 C#4|..|C#2 2A.F ....|--- .... ....|--- .... ....
....|..|--- .... ....|--- .... ....|--- .... ....
....|..|--- .... ....|--- .... ....|--- .... ....
....|..|C-4 9F.F ....|--- .... ....|G#3 2F.F ....
 C#4|..|C#2 2A.F ....|--- .... ....|R-- .... ....
....|..|R-- .... ....|--- .... ....|--- .... ....
....|..|--- .... ....|--- .... ....|--- .... ....
....|..|C-4 AF.F ....|C#6 UF.F ....|C#4 2F.F ....
 F#4|..|F#2 2A.F ....|--- .... ....|R-- .... ....
....|..|R-- .... ....|--- .... ....|--- .... ....
....|..|R-- .... ....|R-- .... ....|--- .... ....
....|..|C-4 AF.F ....|--- .... ....|G#3 2F7A ....
....|..|C#2 2F.A ....|--- .... ....|F#4 2F2F ....
....|..|--- .... ....|--- .... ....|--- .... ....
....|..|R-- .... ....|--- .... ....|--- .... ....
....|..|C#2 2F.7 ....|--- .... ....|B-3 2F17 ....
....|..|C#2 2F.A ....|--- .... ....|R-- .... ....
....|..|R-- .... ....|--- .... ....|--- .... ....
....|..|--- .... ....|--- .... ....|--- .... ....
....|..|C-4 CF.F ....|C#6 UF.A ....|C#4 2F.A ....
....|..|C#2 2F.7 ....|--- .... ....|R-- .... ....
....|..|R-- .... ....|--- .... ....|--- .... ....
....|..|R-- .... ....|R-- .... ....|--- .... ....
....|..|D#4 9F.7 ....|--- .... ....|G#3 2F77 ....
....|..|C#2 2F.7 ....|--- .... ....|F#4 2F2A ....
....|..|--- .... ....|--- .... ....|--- .... ....
....|..|R-- .... ....|--- .... ....|--- .... ....
....|..|C-4 9F.7 ....|--- .... ....|G#3 2F.7 ....
....|..|C#2 2F.7 ....|--- .... ....|R-- .... ....
....|..|R-- .... ....|--- .... ....|--- .... ....
....|..|--- .... ....|C#6 UF.F ....|--- .... ....
....|..|C-4 AF.7 ....|C#6 UF.7 ....|C#4 2F.7 ....
....|..|F#2 2F.7 ....|--- .... ....|--- .... ....
....|..|--- .... ....|R-- .... ....|--- .... ....
....|..|R-- .... ....|R-- .... ....|--- .... ....
....|..|C-4 AF.7 ....|--- .... ....|--- .... ....
....|..|--- .... ....|--- .... ....|F#4 2F27 ....
....|..|--- .... ....|--- .... ....|--- .... ....
....|..|R-- .... ....|--- .... ....|--- .... ....
....|..|C-4 AF.F ....|--- .... ....|--- .... ....
....|..|--- .... ....|--- .... ....|--- .... ....
....|..|R-- .... ....|--- .... ....|--- .... ....
....|..|R-- .... ....|C#6 UF.F ....|--- .... ....
....|..|B-8 JF.F ....|--- .... ....|--- .... ....
 F#4|..|F#2 2A.F ....|--- .... ....|--- .... ....
....|..|--- .... ....|R-- .... ....|--- .... ....
....|..|R-- .... ....|--- .... ....|--- .... ....

[Pattern28]
....|..|--- .... ....|--- .... ....|--- .... ....
....|..|--- .... ....|--- .... ....|--- .... ....
....|..|--- .... ....|--- .... ....|--- .... ....
....|..|--- .... ....|--- .... ....|--- .... ....
....|..|C-4 AF.F ....|--- .... ....|--- .... ....
....|..|--- .... ....|--- .... ....|F#4 2F2F ....
....|..|R-- .... ....|--- .... ....|--- .... ....
....|..|R-- .... ....|C#6 UF.7 ....|--- .... ....
....|..|C-4 AF.F ....|--- .... ....|E-4 2F.F ....
 E-4|..|E-2 2A.F ....|--- .... ....|E-4 2F.F ....
....|..|--- .... ....|R-- .... ....|--- .... ....
....|..|R-- .... ....|--- .... ....|--- .... ....
....|..|C-4 AF.F ....|--- .... ....|--- .... ....
....|..|--- .... ....|--- .... ....|--- .... ....
....|..|--- .... ....|--- .... ....|--- .... ....
....|..|R-- .... ....|--- .... ....|--- .... ....
....|..|C-4 AF.7 ....|--- .... ....|--- .... ....
....|..|--- .... ....|--- .... ....|F#4 2F2A ....
....|..|R-- .... ....|--- .... ....|--- .... ....
....|..|R-- .... ....|C#6 UF.7 ....|--- .... ....
....|..|C-4 CF.F ....|--- .... ....|E-4 2F.A ....
....|..|F#2 2F.7 ....|--- .... ....|E-4 2F.A ....
....|..|--- .... ....|R-- .... ....|--- .... ....
....|..|R-- .... ....|B-5 UF.F ....|--- .... ....
....|..|C-4 AF.A ....|--- .... ....|--- .... ....
....|..|--- .... ....|R-- .... ....|--- .... ....
....|..|--- .... ....|--- .... ....|--- .... ....
....|..|R-- .... ....|A-5 UF.F ....|--- .... ....
....|..|C-4 AF.7 ....|--- .... ....|--- .... ....
....|..|--- .... ....|R-- .... ....|F#4 2F27 ....
....|..|--- .... ....|--- .... ....|--- .... ....
....|..|R-- .... ....|--- .... ....|--- .... ....
....|..|C-4 AF.7 ....|B-5 UF.F ....|E-4 2F.7 ....
....|..|E-2 2F.7 ....|--- .... ....|E-4 2F.7 ....
....|..|--- .... ....|--- .... ....|--- .... ....
....|..|R-- .... ....|B-5 UF.A ....|--- .... ....
....|..|C-4 AF.F ....|--- .... ....|--- .... ....
....|..|--- .... ....|R-- .... ....|--- .... ....
....|..|--- .... ....|--- .... ....|--- .... ....
....|..|R-- .... ....|A-5 UF.A ....|--- .... ....
....|..|C-4 AF.F ....|--- .... ....|--- .... ....
....|..|--- .... ....|R-- .... ....|--- .... ....
....|..|C-4 AF.F ....|--- .... ....|--- .... ....
....|..|C-4 LF.F ....|--- .... ....|--- .... ....
....|..|C-4 LF.F ....|B-5 UF.A ....|--- .... ....
....|..|--- .... ....|--- .... ....|--- .... ....
....|..|--- .... ....|--- .... ....|--- .... ....
....|..|R-- .... ....|B-5 UF.7 ....|--- .... ....
....|..|C-4 AF.A ....|--- .... ....|--- .... ....
....|..|--- .... ....|R-- .... ....|--- .... ....
....|..|R-- .... ....|--- .... ....|--- .... ....
....|..|R-- .... ....|A-5 UF.7 ....|--- .... ....
....|..|C-4 AF.A ....|--- .... ....|B-3 2F.F ....
....|..|--- .... ....|R-- .... ....|--- .... ....
....|..|C-4 AF.A ....|--- .... ....|--- .... ....
....|..|C-4 LF.A ....|A-5 UF.F ....|--- .... ....
....|..|C-4 AF.F ....|B-5 UF.7 ....|A-3 2F3F ....
 D-4|..|D-2 2A.F ....|--- .... ....|D-4 2F.F ....
....|..|--- .... ....|--- .... ....|A-3 2F.F ....
....|..|R-- .... ....|R-- .... ....|D-4 2F.F ....
....|..|C-4 AF.F ....|--- .... ....|--- .... ....
....|..|--- .... ....|R-- .... ....|--- .... ....
....|..|R-- .... ....|--- .... ....|--- .... ....
....|..|R-- .... ....|--- .... ....|--- .... ....

[Pattern29]
....|..|C-4 AF.7 ....|--- .... ....|B-3 2F.A ....
....|..|--- .... ....|--- .... ....|--- .... ....
....|..|C-4 AF.7 ....|--- .... ....|--- .... ....
....|..|C-4 LF.7 ....|A-5 UF.A ....|--- .... ....
....|..|C-4 CF.F ....|F#6 UF.F ....|A-3 2F3A ....
....|..|D-2 2F.A ....|--- .... ....|D-4 2F.A ....
....|..|--- .... ....|--- .... ....|A-3 2F.A ....
....|..|R-- .... ....|R-- .... ....|D-4 2F.A ....
....|..|C-4 AF.A ....|R-- .... ....|--- .... ....
....|..|--- .... ....|--- .... ....|--- .... ....
....|..|R-- .... ....|--- .... ....|--- .... ....
....|..|R-- .... ....|--- .... ....|--- .... ....
....|..|--- .... ....|--- .... ....|B-3 2F.7 ....
....|..|--- .... ....|--- .... ....|--- .... ....
....|..|--- .... ....|--- .... ....|--- .... ....
....|..|--- .... ....|A-5 UF.7 ....|--- .... ....
....|..|C-4 AF.7 ....|F#6 UF.A ....|A-3 2F37 ....
....|..|D-2 2F.7 ....|--- .... ....|D-4 2F.7 ....
....|..|--- .... ....|--- .... ....|A-3 2F.7 ....
....|..|R-- .... ....|R-- .... ....|D-4 2F.7 ....
....|..|C-4 AF.7 ....|R-- .... ....|--- .... ....
....|..|--- .... ....|--- .... ....|--- .... ....
....|..|--- .... ....|--- .... ....|--- .... ....
....|..|R-- .... ....|--- .... ....|--- .... ....
....|..|C-4 AF.F ....|--- .... ....|--- .... ....
....|..|--- .... ....|--- .... ....|--- .... ....
....|..|--- .... ....|--- .... ....|--- .... ....
....|..|R-- .... ....|--- .... ....|--- .... ....
....|..|B-8 JF.F ....|G#5 UF.F ....|--- .... ....
....|..|R-- .... ....|--- .... ....|--- .... ....
....|..|--- .... ....|--- .... ....|--- .... ....
....|..|R-- .... ....|R-- .... ....|--- .... ....
....|..|--- .... ....|R-- .... ....|--- .... ....
....|..|--- .... ....|--- .... ....|--- .... ....
....|..|--- .... ....|--- .... ....|D-4 2F.F ....
....|..|--- .... ....|A-5 UF.F ....|--- .... ....
....|..|C-4 AF.F ....|--- .... ....|--- .... ....
....|..|--- .... ....|R-- .... ....|--- .... ....
....|..|--- .... ....|--- .... ....|--- .... ....
....|..|R-- .... ....|D-5 UF.F ....|--- .... ....
....|..|C-4 AF.F ....|G#5 UF.A ....|B-3 2F2F ....
 D-4|..|D-2 2A.F ....|--- .... ....|B-3 2F2F ....
 B-3|..|B-1 2A.F ....|--- .... ....|--- .... ....
....|..|R-- .... ....|R-- .... ....|--- .... ....
....|..|C-4 AF.F ....|R-- .... ....|--- .... ....
....|..|--- .... ....|--- .... ....|--- .... ....
....|..|--- .... ....|--- .... ....|D-4 2F.A ....
....|..|R-- .... ....|A-5 UF.A ....|--- .... ....
....|..|C-4 AF.7 ....|--- .... ....|--- .... ....
....|..|--- .... ....|R-- .... ....|--- .... ....
....|..|--- .... ....|--- .... ....|--- .... ....
....|..|R-- .... ....|D-5 UF.A ....|--- .... ....
....|..|C-4 CF.F ....|G#5 UF.7 ....|B-3 2F2A ....
....|..|D-2 2F.A ....|--- .... ....|B-3 2F2A ....
....|..|B-1 2F.A ....|--- .... ....|--- .... ....
....|..|R-- .... ....|R-- .... ....|--- .... ....
....|..|C-4 AF.A ....|R-- .... ....|--- .... ....
....|..|--- .... ....|--- .... ....|--- .... ....
....|..|--- .... ....|--- .... ....|D-4 2F.7 ....
....|..|R-- .... ....|A-5 UF.7 ....|--- .... ....
....|..|C-4 AF.7 ....|--- .... ....|--- .... ....
....|..|--- .... ....|R-- .... ....|--- .... ....
....|..|R-- .... ....|--- .... ....|--- .... ....
....|..|R-- .... ....|D-5 UF.7 ....|--- .... ....

[Pattern30]
 E-4|..|E-2 2A.F ....|G#5 UF.F ....|E-4 2F.F ....
....|..|D-2 2F.7 ....|--- .... ....|B-3 2F27 ....
....|..|B-1 2F.7 ....|F#5 UF.F ....|--- .... ....
....|..|R-- .... ....|G#5 UF.F ....|--- .... ....
....|..|C-4 AF.F ....|R-- .... ....|--- .... ....
....|..|--- .... ....|R-- .... ....|--- .... ....
....|..|--- .... ....|--- .... ....|--- .... ....
....|..|R-- .... ....|--- .... ....|--- .... ....
....|..|C-4 AF.F ....|G#5 UF.F ....|--- .... ....
....|..|--- .... ....|F#5 UF.F ....|--- .... ....
....|..|C-4 AF.F ....|--- .... ....|--- .... ....
....|..|C-4 LF.F ....|G#5 UF.F ....|--- .... ....
....|..|C-4 LF.F ....|G#5 UF.A ....|E-4 2F.A ....
....|..|--- .... ....|--- .... ....|--- .... ....
....|..|--- .... ....|F#5 UF.A ....|--- .... ....
....|..|R-- .... ....|G#5 UF.F ....|--- .... ....
....|..|C-4 AF.A ....|G#5 UF.F ....|--- .... ....
....|..|--- .... ....|F#5 UF.F ....|--- .... ....
....|..|R-- .... ....|G#5 UF.F ....|--- .... ....
....|..|R-- .... ....|R-- .... ....|--- .... ....
....|..|C-4 AF.F ....|G#5 UF.A ....|--- .... ....
....|..|--- .... ....|F#5 UF.A ....|--- .... ....
....|..|C-4 AF.A ....|G#5 UF.F ....|--- .... ....
....|..|C-4 LF.A ....|G#5 UF.A ....|E-4 2F.F ....
....|..|C-4 AF.F ....|G#5 UF.7 ....|C#4 2F2F ....
 A-3|..|A-1 2A.F ....|--- .... ....|C#4 2F2F ....
....|..|--- .... ....|F#5 UF.7 ....|--- .... ....
....|..|R-- .... ....|G#5 UF.7 ....|--- .... ....
....|..|C-4 AF.F ....|G#5 UF.A ....|--- .... ....
....|..|--- .... ....|F#5 UF.A ....|--- .... ....
....|..|R-- .... ....|G#5 UF.A ....|--- .... ....
....|..|R-- .... ....|R-- .... ....|--- .... ....
....|..|C-4 AF.7 ....|G#5 UF.7 ....|--- .... ....
....|..|--- .... ....|F#5 UF.7 ....|--- .... ....
....|..|C-4 AF.7 ....|G#5 UF.A ....|--- .... ....
....|..|C-4 LF.7 ....|G#5 UF.7 ....|E-4 2F.A ....
....|..|C-4 CF.F ....|C#5 UF.F ....|C#4 2F2A ....
....|..|A-1 2F.A ....|--- .... ....|C#4 2F2A ....
....|..|--- .... ....|R-- .... ....|--- .... ....
....|..|R-- .... ....|G#5 UF.7 ....|--- .... ....
....|..|C-4 AF.A ....|G#5 UF.7 ....|--- .... ....
....|..|--- .... ....|F#5 UF.7 ....|--- .... ....
....|..|R-- .... ....|G#5 UF.7 ....|--- .... ....
....|..|R-- .... ....|R-- .... ....|--- .... ....
....|..|C-4 AF.7 ....|--- .... ....|--- .... ....
....|..|--- .... ....|--- .... ....|--- .... ....
....|..|--- .... ....|G#5 UF.7 ....|--- .... ....
....|..|R-- .... ....|--- .... ....|E-4 2F.7 ....
....|..|C-4 AF.7 ....|C#5 UF.A ....|C#4 2F27 ....
....|..|A-1 2F.7 ....|--- .... ....|C#4 2F27 ....
....|..|--- .... ....|R-- .... ....|--- .... ....
....|..|R-- .... ....|--- .... ....|--- .... ....
....|..|C-4 AF.7 ....|R-- .... ....|--- .... ....
....|..|--- .... ....|--- .... ....|--- .... ....
....|..|--- .... ....|--- .... ....|--- .... ....
....|..|R-- .... ....|--- .... ....|--- .... ....
....|..|C-4 AF.F ....|--- .... ....|--- .... ....
....|..|--- .... ....|--- .... ....|--- .... ....
....|..|--- .... ....|--- .... ....|--- .... ....
....|..|R-- .... ....|--- .... ....|--- .... ....
....|..|B-8 JF.F ....|C#5 UF.7 ....|--- .... ....
....|..|R-- .... ....|--- .... ....|--- .... ....
....|..|--- .... ....|--- .... ....|--- .... ....
....|..|R-- .... ....|--- .... ....|--- .... ....

[Pattern31]
....|..|--- .... ....|R-- .... ....|--- .... ....
....|..|--- .... ....|--- .... ....|--- .... ....
....|..|--- .... ....|--- .... ....|--- .... ....
....|..|--- .... ....|--- .... ....|--- .... ....
....|..|C-4 AF.F ....|--- .... ....|--- .... ....
....|..|--- .... ....|--- .... ....|--- .... ....
....|..|--- .... ....|--- .... ....|--- .... ....
....|..|R-- .... ....|--- .... ....|--- .... ....
....|..|C-4 AF.F ....|F#5 UF.F ....|C#4 2F4F ....
 D-4|..|D-2 2A.F ....|--- .... ....|D-4 2F1F ....
....|..|--- .... ....|--- .... ....|D-4 2F5F ....
....|..|R-- .... ....|--- .... ....|D-4 2F.F ....
....|..|C-4 AF.F ....|R-- .... ....|--- .... ....
....|..|--- .... ....|--- .... ....|--- .... ....
....|..|--- .... ....|--- .... ....|--- .... ....
....|..|R-- .... ....|--- .... ....|--- .... ....
....|..|C-4 AF.7 ....|--- .... ....|--- .... ....
....|..|--- .... ....|--- .... ....|--- .... ....
....|..|--- .... ....|--- .... ....|--- .... ....
....|..|R-- .... ....|--- .... ....|--- .... ....
....|..|C-4 CF.F ....|F#5 UF.A ....|C#4 2F4A ....
....|..|D-2 2F.A ....|--- .... ....|D-4 2F1A ....
....|..|--- .... ....|--- .... ....|D-4 2F5A ....
....|..|R-- .... ....|--- .... ....|D-4 2F.A ....
....|..|C-4 AF.A ....|R-- .... ....|--- .... ....
....|..|--- .... ....|--- .... ....|--- .... ....
....|..|--- .... ....|--- .... ....|--- .... ....
....|..|R-- .... ....|--- .... ....|--- .... ....
....|..|C-4 AF.7 ....|--- .... ....|--- .... ....
....|..|--- .... ....|--- .... ....|--- .... ....
....|..|--- .... ....|--- .... ....|--- .... ....
....|..|R-- .... ....|F#5 UF.F ....|--- .... ....
....|..|C-4 AF.7 ....|F#5 UF.7 ....|C#4 2F47 ....
....|..|D-2 2F.7 ....|E-5 UF.F ....|D-4 2F17 ....
....|..|--- .... ....|--- .... ....|D-4 2F57 ....
....|..|R-- .... ....|F#5 UF.F ....|D-4 2F.7 ....
....|..|C-4 AF.F ....|R-- .... ....|--- .... ....
....|..|--- .... ....|R-- .... ....|--- .... ....
....|..|--- .... ....|--- .... ....|--- .... ....
....|..|R-- .... ....|F#5 UF.F ....|--- .... ....
....|..|C-4 AF.F ....|--- .... ....|--- .... ....
....|..|--- .... ....|E-5 UF.F ....|--- .... ....
....|..|C-4 AF.F ....|--- .... ....|--- .... ....
....|..|C-4 LF.F ....|F#5 UF.F ....|--- .... ....
....|..|C-4 LF.F ....|--- .... ....|--- .... ....
....|..|--- .... ....|E-5 UF.A ....|--- .... ....
....|..|--- .... ....|--- .... ....|--- .... ....
....|..|R-- .... ....|F#5 UF.F ....|--- .... ....
....|..|C-4 AF.A ....|--- .... ....|--- .... ....
....|..|--- .... ....|E-5 UF.F ....|--- .... ....
....|..|R-- .... ....|--- .... ....|--- .... ....
....|..|R-- .... ....|F#5 UF.F ....|D-4 2F.F ....
....|..|C-4 AF.A ....|R-- .... ....|--- .... ....
....|..|--- .... ....|E-5 UF.A ....|--- .... ....
....|..|C-4 AF.A ....|--- .... ....|F#4 2F.F ....
....|..|C-4 LF.A ....|B-4 UF.F ....|--- .... ....
....|..|C-4 AF.F ....|--- .... ....|B-3 2F2F ....
 G#3|..|G#1 2A.F ....|E-5 UF.7 ....|--- .... ....
....|..|--- .... ....|--- .... ....|--- .... ....
....|..|R-- .... ....|F#5 UF.7 ....|--- .... ....
....|..|C-4 AF.F ....|R-- .... ....|--- .... ....
....|..|--- .... ....|E-5 UF.A ....|--- .... ....
....|..|R-- .... ....|--- .... ....|--- .... ....
....|..|R-- .... ....|F#5 UF.7 ....|D-4 2F.A ....

[Pattern32]
....|..|C-4 AF.7 ....|R-- .... ....|--- .... ....
....|..|--- .... ....|E-5 UF.7 ....|--- .... ....
....|..|C-4 AF.7 ....|--- .... ....|F#4 2F.A ....
....|..|C-4 LF.7 ....|B-4 UF.F ....|--- .... ....
....|..|C-4 CF.F ....|--- .... ....|B-3 2F2A ....
....|..|G#1 2F.A ....|R-- .... ....|--- .... ....
....|..|--- .... ....|--- .... ....|--- .... ....
....|..|R-- .... ....|F#5 UF.7 ....|--- .... ....
....|..|C-4 AF.A ....|R-- .... ....|--- .... ....
....|..|--- .... ....|E-5 UF.7 ....|--- .... ....
....|..|R-- .... ....|--- .... ....|--- .... ....
....|..|R-- .... ....|F#5 UF.7 ....|D-4 2F.7 ....
....|..|--- .... ....|R-- .... ....|--- .... ....
....|..|--- .... ....|--- .... ....|--- .... ....
....|..|--- .... ....|--- .... ....|F#4 2F.7 ....
....|..|--- .... ....|B-4 UF.7 ....|--- .... ....
....|..|C-4 AF.7 ....|--- .... ....|B-3 2F27 ....
....|..|G#1 2F.7 ....|--- .... ....|--- .... ....
....|..|--- .... ....|--- .... ....|--- .... ....
....|..|R-- .... ....|--- .... ....|--- .... ....
....|..|C-4 AF.7 ....|R-- .... ....|--- .... ....
....|..|--- .... ....|R-- .... ....|--- .... ....
....|..|--- .... ....|--- .... ....|--- .... ....
....|..|R-- .... ....|--- .... ....|--- .... ....
....|..|C-4 AF.F ....|--- .... ....|--- .... ....
....|..|--- .... ....|--- .... ....|--- .... ....
....|..|--- .... ....|--- .... ....|--- .... ....
....|..|R-- .... ....|B-4 UF.7 ....|--- .... ....
....|..|B-8 JF.F ....|--- .... ....|--- .... ....
....|..|R-- .... ....|--- .... ....|--- .... ....
....|..|--- .... ....|--- .... ....|--- .... ....
....|..|R-- .... ....|--- .... ....|--- .... ....
....|..|--- .... ....|--- .... ....|--- .... ....
....|..|--- .... ....|R-- .... ....|--- .... ....
....|..|--- .... ....|--- .... ....|--- .... ....
....|..|--- .... ....|--- .... ....|--- .... ....
....|..|C-4 AF.F ....|--- .... ....|--- .... ....
....|..|--- .... ....|--- .... ....|--- .... ....
....|..|--- .... ....|--- .... ....|B-3 2F.F ....
....|..|R-- .... ....|F-5 UF.F ....|G#2 2F.F ....
....|..|C-4 AF.F ....|--- .... ....|C#4 2F.F ....
 C#4|..|C#2 2A.F ....|--- .... ....|F-4 2F2F ....
....|..|--- .... ....|--- .... ....|--- .... ....
....|..|R-- .... ....|--- .... ....|--- .... ....
....|..|C-4 AF.F ....|--- .... ....|--- .... ....
....|..|--- .... ....|R-- .... ....|--- .... ....
....|..|--- .... ....|--- .... ....|--- .... ....
....|..|R-- .... ....|--- .... ....|--- .... ....
....|..|C-4 AF.7 ....|--- .... ....|--- .... ....
....|..|--- .... ....|--- .... ....|--- .... ....
....|..|--- .... ....|--- .... ....|B-3 2F.A ....
....|..|R-- .... ....|F-5 UF.A ....|G#2 2F.A ....
....|..|C-4 CF.F ....|--- .... ....|C#4 2F.A ....
....|..|C#2 2F.A ....|--- .... ....|F-4 2F2A ....
....|..|--- .... ....|--- .... ....|--- .... ....
....|..|R-- .... ....|--- .... ....|--- .... ....
....|..|C-4 AF.A ....|--- .... ....|--- .... ....
....|..|--- .... ....|R-- .... ....|--- .... ....
....|..|--- .... ....|--- .... ....|--- .... ....
....|..|R-- .... ....|--- .... ....|--- .... ....
....|..|C-4 AF.7 ....|--- .... ....|--- .... ....
....|..|--- .... ....|--- .... ....|--- .... ....
....|..|--- .... ....|--- .... ....|B-3 2F.7 ....
....|..|R-- .... ....|F-5 UF.7 ....|G#2 2F.7 ....

[Pattern33]
....|..|C-4 AF.7 ....|F-5 UF.F ....|C#4 2F.F ....
....|..|C#2 2F.7 ....|F-5 UF.F ....|F-4 2F27 ....
....|..|--- .... ....|D#5 UF.F ....|--- .... ....
....|..|R-- .... ....|F-5 UF.F ....|--- .... ....
....|..|C-4 AF.F ....|--- .... ....|--- .... ....
....|..|--- .... ....|R-- .... ....|--- .... ....
....|..|--- .... ....|--- .... ....|--- .... ....
....|..|R-- .... ....|F-5 UF.F ....|--- .... ....
....|..|C-4 AF.F ....|--- .... ....|--- .... ....
....|..|--- .... ....|D#5 UF.F ....|--- .... ....
....|..|C-4 AF.F ....|--- .... ....|--- .... ....
....|..|C-4 LF.F ....|F-5 UF.F ....|--- .... ....
....|..|C-4 LF.F ....|F-5 UF.F ....|C#4 2F.A ....
....|..|--- .... ....|F-5 UF.A ....|--- .... ....
....|..|--- .... ....|D#5 UF.A ....|--- .... ....
....|..|R-- .... ....|F-5 UF.F ....|--- .... ....
....|..|C-4 LF.F ....|--- .... ....|--- .... ....
....|..|D#4 9F.F ....|D#5 UF.F ....|--- .... ....
....|..|R-- .... ....|--- .... ....|--- .... ....
....|..|C-4 9F.F ....|F-5 UF.F ....|--- .... ....
....|..|C-4 AF.A ....|R-- .... ....|--- .... ....
....|..|--- .... ....|D#5 UF.A ....|--- .... ....
....|..|C-4 AF.A ....|--- .... ....|F-4 2F2F ....
....|..|C-4 LF.A ....|F-5 UF.F ....|--- .... ....
....|..|C-4 AF.F ....|F-5 UF.7 ....|C#4 2F.F ....
 F#3|..|F#1 2A.F ....|F-5 UF.7 ....|C#4 2F.F ....
....|..|--- .... ....|D#5 UF.7 ....|F#3 2F2F ....
....|..|R-- .... ....|F-5 UF.7 ....|C#4 2F.F ....
....|..|C-4 AF.F ....|--- .... ....|--- .... ....
....|..|D#4 9F.A ....|D#5 UF.A ....|--- .... ....
....|..|R-- .... ....|R-- .... ....|--- .... ....
....|..|C-4 9F.A ....|F-5 UF.7 ....|--- .... ....
....|..|C-4 AF.7 ....|R-- .... ....|--- .... ....
....|..|--- .... ....|D#5 UF.7 ....|--- .... ....
....|..|C-4 AF.7 ....|--- .... ....|F-4 2F2A ....
....|..|C-4 LF.7 ....|F-5 UF.7 ....|--- .... ....
....|..|C-4 CF.F ....|F#5 UF.F ....|C#4 2F.A ....
....|..|F#1 2F.A ....|R-- .... ....|C#4 2F.A ....
....|..|--- .... ....|--- .... ....|F#3 2F2A ....
....|..|R-- .... ....|F-5 UF.7 ....|C#4 2F.A ....
....|..|C-4 LF.7 ....|--- .... ....|--- .... ....
....|..|D#4 9F.7 ....|D#5 UF.7 ....|--- .... ....
....|..|R-- .... ....|R-- .... ....|--- .... ....
....|..|C-4 9F.7 ....|F-5 UF.7 ....|--- .... ....
....|..|R-- .... ....|R-- .... ....|--- .... ....
....|..|--- .... ....|--- .... ....|--- .... ....
....|..|--- .... ....|--- .... ....|F-4 2F27 ....
....|..|--- .... ....|F-5 UF.7 ....|--- .... ....
....|..|C-4 AF.F ....|F#5 UF.A ....|C#4 2F.7 ....
....|..|F#1 2F.7 ....|--- .... ....|C#4 2F.7 ....
....|..|--- .... ....|--- .... ....|F#3 2F27 ....
....|..|R-- .... ....|--- .... ....|C#4 2F.7 ....
....|..|C-4 AF.F ....|--- .... ....|--- .... ....
....|..|--- .... ....|--- .... ....|--- .... ....
....|..|--- .... ....|R-- .... ....|--- .... ....
....|..|R-- .... ....|--- .... ....|--- .... ....
....|..|--- .... ....|--- .... ....|--- .... ....
....|..|--- .... ....|--- .... ....|--- .... ....
....|..|C-4 LF.F ....|--- .... ....|--- .... ....
....|..|C-4 LF.F ....|--- .... ....|--- .... ....
....|..|C-4 LF.F ....|F#5 UF.7 ....|--- .... ....
 C#4|..|C#2 2A.F ....|--- .... ....|--- .... ....
....|..|--- .... ....|--- .... ....|--- .... ....
....|..|R-- .... ....|--- .... ....|--- .... ....

[Pattern34]
 F#4|..|F#2 2A.F ....|--- .... ....|--- .... ....
....|..|--- .... ....|--- .... ....|--- .... ....
....|..|--- .... ....|--- .... ....|--- .... ....
....|..|R-- .... ....|--- .... ....|--- .... ....
 C#4|..|C#2 2A.F ....|--- .... ....|--- .... ....
....|..|--- .... ....|--- .... ....|--- .... ....
....|..|C-4 LF.A ....|--- .... ....|--- .... ....
....|..|C-4 LF.A ....|--- .... ....|--- .... ....
....|..|C-4 AF.F ....|--- .... ....|F#4 2F2F ....
 F#3|..|F#1 2A.F ....|--- .... ....|--- .... ....
....|..|--- .... ....|--- .... ....|--- .... ....
....|..|R-- .... ....|--- .... ....|F#4 2F2F ....
....|..|C-4 AF.F ....|--- .... ....|C#4 2F.F ....
....|..|--- .... ....|--- .... ....|--- .... ....
....|..|--- .... ....|--- .... ....|--- .... ....
....|..|R-- .... ....|--- .... ....|--- .... ....
....|..|C#2 2F.A ....|--- .... ....|F#4 2F2F ....
....|..|--- .... ....|--- .... ....|--- .... ....
....|..|C-4 LF.7 ....|--- .... ....|--- .... ....
....|..|C-4 LF.7 ....|--- .... ....|--- .... ....
....|..|C-4 CF.F ....|--- .... ....|F#4 2F2A ....
....|..|C#2 2F.7 ....|--- .... ....|C#4 2F.F ....
....|..|--- .... ....|--- .... ....|--- .... ....
....|..|R-- .... ....|--- .... ....|F#4 2F2A ....
....|..|F#2 2F.7 ....|--- .... ....|F#4 2F2F ....
....|..|--- .... ....|--- .... ....|--- .... ....
....|..|--- .... ....|--- .... ....|--- .... ....
....|..|R-- .... ....|--- .... ....|--- .... ....
....|..|C#2 2F.7 ....|--- .... ....|F#4 2F2A ....
....|..|--- .... ....|--- .... ....|C#4 2F.F ....
....|..|--- .... ....|--- .... ....|--- .... ....
....|..|--- .... ....|R-- .... ....|--- .... ....
....|..|C-4 AF.F ....|--- .... ....|F#4 2F2F ....
....|..|F#1 2F.7 ....|--- .... ....|C#4 2F.A ....
....|..|--- .... ....|--- .... ....|--- .... ....
....|..|R-- .... ....|--- .... ....|F#4 2F2F ....
....|..|C-4 AF.F ....|--- .... ....|C#4 2F.F ....
....|..|--- .... ....|--- .... ....|C#4 2F.F ....
....|..|--- .... ....|--- .... ....|--- .... ....
....|..|R-- .... ....|--- .... ....|--- .... ....
....|..|--- .... ....|--- .... ....|C#4 2F.F ....
....|..|--- .... ....|--- .... ....|C#4 2F.A ....
....|..|--- .... ....|--- .... ....|--- .... ....
....|..|--- .... ....|R-- .... ....|C#4 2F.F ....
....|..|C-4 LF.F ....|--- .... ....|F#3 2F2F ....
....|..|--- .... ....|--- .... ....|C#4 2F.7 ....
....|..|--- .... ....|--- .... ....|--- .... ....
....|..|R-- .... ....|--- .... ....|F#3 2F2F ....
....|..|D#4 9F.F ....|--- .... ....|F#3 2F2F ....
....|..|--- .... ....|--- .... ....|C#4 2F.A ....
....|..|--- .... ....|--- .... ....|--- .... ....
....|..|R-- .... ....|--- .... ....|C#4 2F.F ....
....|..|C-4 9F.F ....|--- .... ....|F#3 2F.F ....
....|..|R-- .... ....|--- .... ....|C#4 2F.7 ....
....|..|--- .... ....|--- .... ....|--- .... ....
....|..|R-- .... ....|R-- .... ....|C#4 2F.A ....
....|..|C-4 AF.F ....|C#5 UF.F ....|C#4 2F2F ....
....|..|C-4 AF.F ....|--- .... ....|C#4 2F2F ....
 A-3|..|A-1 2A.F ....|--- .... ....|--- .... ....
....|..|C-4 LF.F ....|--- .... ....|F#4 2F27 ....
....|..|C-4 LF.F ....|--- .... ....|C#4 2F.7 ....
....|..|--- .... ....|--- .... ....|C#4 2F.7 ....
....|..|C-4 LF.F ....|--- .... ....|--- .... ....
....|..|R-- .... ....|--- .... ....|C#4 2F.A ....

[Pattern35]
....|..|C-4 LF.F ....|--- .... ....|C#4 2F.7 ....
....|..|C-4 LF.F ....|--- .... ....|--- .... ....
....|..|R-- .... ....|--- .... ....|--- .... ....
....|..|R-- .... ....|--- .... ....|C#4 2F.7 ....
....|..|C-4 CF.F ....|C#5 UF.A ....|F#3 2F27 ....
....|..|C-4 AF.A ....|--- .... ....|C#4 2F2A ....
....|..|A-1 2F.A ....|--- .... ....|--- .... ....
....|..|C-4 LF.A ....|--- .... ....|F#3 2F27 ....
....|..|C-4 LF.F ....|B-4 UF.F ....|F#3 2F27 ....
....|..|R-- .... ....|C#5 UF.F ....|--- .... ....
....|..|C-4 LF.A ....|C#5 UF.F ....|--- .... ....
....|..|R-- .... ....|D-5 UF.F ....|A-4 2F.F ....
....|..|C-4 AF.F ....|--- .... ....|F#3 2F.7 ....
 A-3|..|A-1 2A.F ....|C#5 UF.F ....|--- .... ....
....|..|C-4 AF.F ....|--- .... ....|--- .... ....
....|..|R-- .... ....|C#5 UF.F ....|A-4 2F.F ....
....|..|C-4 AF.F ....|B-4 UF.F ....|F-4 2F2F ....
....|..|C-4 AF.F ....|--- .... ....|C#4 2F27 ....
 G#3|..|G#1 2A.F ....|--- .... ....|--- .... ....
....|..|C-4 LF.7 ....|--- .... ....|--- .... ....
....|..|C-4 LF.F ....|B-4 UF.A ....|--- .... ....
....|..|R-- .... ....|C#5 UF.A ....|--- .... ....
....|..|C-4 LF.7 ....|C#5 UF.A ....|--- .... ....
....|..|--- .... ....|D-5 UF.A ....|A-4 2F.A ....
....|..|C-4 LF.F ....|--- .... ....|--- .... ....
....|..|C-4 LF.7 ....|C#5 UF.A ....|--- .... ....
....|..|C-4 AF.A ....|--- .... ....|--- .... ....
....|..|R-- .... ....|C#5 UF.A ....|A-4 2F.A ....
....|..|C-4 CF.F ....|B-4 UF.A ....|F-4 2F2A ....
....|..|C-4 AF.A ....|--- .... ....|--- .... ....
....|..|C-4 CF.F ....|--- .... ....|--- .... ....
....|..|R-- .... ....|--- .... ....|--- .... ....
....|..|C-4 AF.F ....|B-4 UF.7 ....|--- .... ....
....|..|C-4 AF.F ....|C#5 UF.7 ....|--- .... ....
....|..|R-- .... ....|C#5 UF.7 ....|--- .... ....
....|..|R-- .... ....|D-5 UF.7 ....|A-4 2F.7 ....
....|..|C-4 LF.F ....|A-4 UF.F ....|--- .... ....
....|..|A-1 2F.7 ....|A-4 UF.F ....|--- .... ....
....|..|C-4 AF.7 ....|G#4 UF.F ....|--- .... ....
....|..|R-- .... ....|A-4 UF.F ....|A-4 2F.7 ....
....|..|C-4 AF.F ....|B-4 UF.7 ....|F-4 2F6F ....
....|..|C-4 AF.F ....|--- .... ....|--- .... ....
 F#3|..|F#1 2A.F ....|--- .... ....|F#4 2F2F ....
....|..|R-- .... ....|--- .... ....|--- .... ....
....|..|C-4 LF.F ....|--- .... ....|F#4 2F2F ....
....|..|C-4 AF.A ....|--- .... ....|--- .... ....
....|..|--- .... ....|--- .... ....|--- .... ....
....|..|R-- .... ....|--- .... ....|--- .... ....
....|..|C-4 LF.F ....|A-4 UF.A ....|F#4 2F2F ....
....|..|R-- .... ....|A-4 UF.A ....|--- .... ....
....|..|R-- .... ....|G#4 UF.A ....|--- .... ....
....|..|--- .... ....|A-4 UF.A ....|--- .... ....
....|..|C-4 CF.F ....|--- .... ....|F-4 2F6A ....
....|..|C-4 CF.F ....|--- .... ....|F#4 2F2F ....
....|..|C-4 CF.7 ....|--- .... ....|F#4 2F2A ....
....|..|R-- .... ....|--- .... ....|--- .... ....
....|..|C-4 LF.F ....|--- .... ....|F#4 2F2A ....
....|..|C-4 AF.7 ....|--- .... ....|--- .... ....
....|..|R-- .... ....|--- .... ....|--- .... ....
....|..|R-- .... ....|--- .... ....|--- .... ....
....|..|C-4 AF.F ....|A-4 UF.7 ....|F#4 2F2A ....
....|..|C-4 AF.F ....|A-4 UF.7 ....|--- .... ....
 F#3|..|F#1 2A.F ....|G#4 UF.7 ....|--- .... ....
....|..|R-- .... ....|A-4 UF.7 ....|--- .... ....

[Pattern36]
....|..|C-4 AF.F ....|--- .... ....|C#4 2F.F ....
....|..|C-4 AF.F ....|--- .... ....|F#4 2F2F ....
 E-3|..|E-1 2A.F ....|--- .... ....|F#4 2F27 ....
....|..|R-- .... ....|--- .... ....|--- .... ....
....|..|C-4 LF.F ....|--- .... ....|F#4 2F27 ....
....|..|R-- .... ....|--- .... ....|C#4 2F.F ....
....|..|R-- .... ....|--- .... ....|--- .... ....
....|..|--- .... ....|--- .... ....|--- .... ....
....|..|C-4 LF.F ....|--- .... ....|C#4 2F.F ....
....|..|C-4 AF.A ....|--- .... ....|--- .... ....
....|..|F#1 2F.A ....|--- .... ....|--- .... ....
....|..|R-- .... ....|--- .... ....|C#4 2F.F ....
....|..|C-4 CF.F ....|--- .... ....|C#4 2F.A ....
....|..|C-4 CF.7 ....|--- .... ....|C#4 2F.F ....
....|..|C-4 CF.F ....|--- .... ....|--- .... ....
....|..|R-- .... ....|--- .... ....|--- .... ....
....|..|C-4 LF.F ....|--- .... ....|--- .... ....
....|..|R-- .... ....|R-- .... ....|C#4 2F.A ....
....|..|R-- .... ....|--- .... ....|--- .... ....
....|..|--- .... ....|--- .... ....|--- .... ....
....|..|C-4 LF.F ....|--- .... ....|C#4 2F.A ....
....|..|C-4 AF.7 ....|--- .... ....|--- .... ....
....|..|F#1 2F.7 ....|--- .... ....|--- .... ....
....|..|R-- .... ....|F#5 UF.F ....|C#4 2F.A ....
....|..|C-4 AF.F ....|--- .... ....|D-4 2F.F ....
....|..|C-4 AF.F ....|--- .... ....|D-4 2F.F ....
 D-4|..|D-2 2A.F ....|--- .... ....|--- .... ....
....|..|R-- .... ....|--- .... ....|--- .... ....
....|..|C-4 LF.F ....|--- .... ....|D-3 2F.F ....
....|..|R-- .... ....|R-- .... ....|C#4 2F.7 ....
....|..|--- .... ....|--- .... ....|--- .... ....
....|..|--- .... ....|--- .... ....|--- .... ....
....|..|C-4 LF.F ....|--- .... ....|C#4 2F.7 ....
....|..|R-- .... ....|--- .... ....|--- .... ....
....|..|--- .... ....|--- .... ....|--- .... ....
....|..|--- .... ....|F#5 UF.A ....|C#4 2F.7 ....
....|..|C-4 CF.F ....|--- .... ....|D-4 2F.A ....
....|..|C-4 AF.A ....|--- .... ....|C#4 2F.7 ....
....|..|C-4 CF.F ....|--- .... ....|--- .... ....
....|..|R-- .... ....|F#5 UF.F ....|--- .... ....
....|..|C-4 LF.F ....|E-5 UF.F ....|D-3 2F.A ....
....|..|R-- .... ....|F#5 UF.F ....|--- .... ....
....|..|R-- .... ....|F#5 UF.F ....|--- .... ....
....|..|--- .... ....|G-5 UF.F ....|--- .... ....
....|..|C-4 AF.F ....|--- .... ....|--- .... ....
....|..|C-4 AF.F ....|G-5 UF.F ....|--- .... ....
 D-4|..|D-2 2A.F ....|F#5 UF.F ....|--- .... ....
....|..|R-- .... ....|F#5 UF.7 ....|R-- .... ....
....|..|C-4 AF.F ....|E-5 UF.F ....|F#4 2F.F ....
 C#4|..|C#2 2A.F ....|--- .... ....|D-4 2F.7 ....
....|..|C-4 AF.F ....|--- .... ....|--- .... ....
....|..|R-- .... ....|F#5 UF.A ....|--- .... ....
....|..|C-4 LF.F ....|E-5 UF.A ....|D-3 2F.7 ....
....|..|R-- .... ....|F#5 UF.A ....|--- .... ....
....|..|R-- .... ....|F#5 UF.A ....|--- .... ....
....|..|--- .... ....|G-5 UF.A ....|--- .... ....
....|..|C-4 LF.F ....|--- .... ....|--- .... ....
....|..|C-4 AF.A ....|G-5 UF.A ....|--- .... ....
....|..|D-2 2F.A ....|F#5 UF.A ....|--- .... ....
....|..|R-- .... ....|--- .... ....|R-- .... ....
....|..|C-4 CF.F ....|E-5 UF.A ....|F#4 2F.A ....
....|..|C#2 2F.A ....|--- .... ....|--- .... ....
....|..|C-4 CF.F ....|--- .... ....|--- .... ....
....|..|R-- .... ....|F#5 UF.7 ....|--- .... ....

[Pattern37]
....|..|C-4 LF.F ....|E-5 UF.7 ....|--- .... ....
....|..|R-- .... ....|F#5 UF.7 ....|--- .... ....
....|..|R-- .... ....|F#5 UF.7 ....|--- .... ....
....|..|--- .... ....|G-5 UF.7 ....|--- .... ....
....|..|C-4 LF.F ....|E-5 UF.F ....|--- .... ....
....|..|C-4 AF.7 ....|D-5 UF.F ....|--- .... ....
....|..|D-2 2F.7 ....|C#5 UF.F ....|--- .... ....
....|..|R-- .... ....|D-5 UF.F ....|R-- .... ....
....|..|C-4 AF.F ....|D-5 UF.F ....|F#4 2F.F ....
 B-3|..|B-1 2A.F ....|--- .... ....|F#4 2F.F ....
....|..|C-4 AF.F ....|--- .... ....|--- .... ....
....|..|R-- .... ....|--- .... ....|--- .... ....
....|..|C-4 LF.F ....|--- .... ....|--- .... ....
....|..|R-- .... ....|--- .... ....|F#4 2F.F ....
....|..|R-- .... ....|--- .... ....|--- .... ....
....|..|--- .... ....|--- .... ....|--- .... ....
....|..|C-4 LF.F ....|E-5 UF.A ....|F#4 2F.F ....
....|..|R-- .... ....|D-5 UF.A ....|--- .... ....
....|..|--- .... ....|C#5 UF.A ....|--- .... ....
....|..|--- .... ....|D-5 UF.A ....|--- .... ....
....|..|C-4 CF.F ....|D-5 UF.A ....|F#4 2F.A ....
....|..|B-1 2F.A ....|--- .... ....|F#4 2F.F ....
....|..|C-4 CF.F ....|--- .... ....|--- .... ....
....|..|R-- .... ....|--- .... ....|--- .... ....
....|..|C-4 LF.F ....|--- .... ....|--- .... ....
....|..|--- .... ....|--- .... ....|F#4 2F.A ....
....|..|R-- .... ....|--- .... ....|--- .... ....
....|..|--- .... ....|--- .... ....|--- .... ....
....|..|C-4 AF.F ....|E-5 UF.7 ....|F#4 2F.A ....
....|..|C-4 AF.F ....|D-5 UF.7 ....|--- .... ....
 F#3|..|F#1 2A.F ....|C#5 UF.7 ....|--- .... ....
....|..|R-- .... ....|D-5 UF.7 ....|--- .... ....
....|..|C-4 AF.F ....|D-5 UF.7 ....|F#4 2F.F ....
....|..|C-4 AF.F ....|--- .... ....|F#4 2F.7 ....
 B-3|..|B-1 2A.F ....|--- .... ....|--- .... ....
....|..|R-- .... ....|--- .... ....|--- .... ....
....|..|C-4 LF.F ....|--- .... ....|--- .... ....
....|..|R-- .... ....|--- .... ....|D-4 2F.F ....
....|..|R-- .... ....|--- .... ....|--- .... ....
....|..|--- .... ....|--- .... ....|--- .... ....
....|..|C-4 LF.F ....|--- .... ....|D-4 2F.F ....
....|..|C-4 AF.A ....|--- .... ....|--- .... ....
....|..|F#1 2F.A ....|--- .... ....|--- .... ....
....|..|R-- .... ....|--- .... ....|--- .... ....
....|..|C-4 CF.F ....|--- .... ....|D-4 2F.F ....
....|..|C-4 AF.A ....|R-- .... ....|D-4 2F.F ....
....|..|C-4 CF.F ....|--- .... ....|--- .... ....
....|..|R-- .... ....|--- .... ....|--- .... ....
....|..|D#4 9F.F ....|--- .... ....|--- .... ....
....|..|D#4 9F.F ....|--- .... ....|D-4 2F.A ....
 B-3|..|B-1 2A.F ....|C#5 UF.F ....|--- .... ....
....|..|R-- .... ....|R-- .... ....|--- .... ....
....|..|C-4 9F.F ....|C#5 UF.F ....|D-4 2F.A ....
....|..|C-4 9F.F ....|B-4 UF.F ....|--- .... ....
....|..|F#1 2F.7 ....|--- .... ....|--- .... ....
....|..|R-- .... ....|--- .... ....|--- .... ....
....|..|C-4 AF.F ....|C#5 UF.F ....|C#4 2F.F ....
....|..|C-4 AF.F ....|R-- .... ....|C#4 2F.F ....
 A-3|..|A-1 2A.F ....|--- .... ....|--- .... ....
....|..|C-4 LF.F ....|--- .... ....|--- .... ....
....|..|C-4 LF.F ....|--- .... ....|--- .... ....
....|..|D#4 9F.A ....|--- .... ....|D-4 2F.7 ....
....|..|C-4 LF.F ....|C#5 UF.A ....|--- .... ....
....|..|R-- .... ....|R-- .... ....|--- .... ....

[Pattern38]
....|..|C-4 LF.F ....|C#5 UF.A ....|D-4 2F.7 ....
....|..|C-4 LF.F ....|B-4 UF.A ....|--- .... ....
....|..|R-- .... ....|--- .... ....|--- .... ....
....|..|R-- .... ....|--- .... ....|--- .... ....
....|..|C-4 CF.F ....|F#5 UF.F ....|D-4 2F.7 ....
....|..|C-4 AF.A ....|F#5 UF.F ....|D-4 2F.7 ....
....|..|C-4 CF.7 ....|--- .... ....|--- .... ....
....|..|C-4 LF.A ....|--- .... ....|--- .... ....
....|..|C-4 LF.F ....|--- .... ....|--- .... ....
....|..|D#4 9F.7 ....|--- .... ....|--- .... ....
....|..|B-1 2F.7 ....|C#5 UF.7 ....|--- .... ....
....|..|R-- .... ....|R-- .... ....|--- .... ....
....|..|C-4 AF.F ....|C#5 UF.7 ....|A-3 2F.F ....
 A-3|..|A-1 2A.F ....|B-4 UF.7 ....|A-3 2F.F ....
....|..|C-4 AF.F ....|--- .... ....|--- .... ....
....|..|R-- .... ....|--- .... ....|--- .... ....
....|..|C-4 AF.F ....|G#5 UF.F ....|C-4 2F2F ....
....|..|C-4 AF.F ....|G#5 UF.F ....|C#4 2F.7 ....
 A-3|..|A-1 2A.F ....|--- .... ....|--- .... ....
 G#3|..|G#1 2A.F ....|--- .... ....|--- .... ....
....|..|C-4 LF.F ....|--- .... ....|--- .... ....
....|..|R-- .... ....|--- .... ....|--- .... ....
....|..|C-4 LF.7 ....|--- .... ....|--- .... ....
....|..|--- .... ....|--- .... ....|--- .... ....
....|..|C-4 LF.F ....|--- .... ....|A-3 2F.A ....
....|..|C-4 LF.7 ....|--- .... ....|A-3 2F.A ....
....|..|C-4 AF.A ....|--- .... ....|--- .... ....
....|..|R-- .... ....|--- .... ....|--- .... ....
....|..|C-4 CF.F ....|F#5 UF.7 ....|C-4 2F2A ....
....|..|C-4 AF.A ....|F#5 UF.7 ....|--- .... ....
....|..|C-4 CF.F ....|--- .... ....|--- .... ....
....|..|G#1 2F.A ....|--- .... ....|--- .... ....
....|..|C-4 AF.F ....|--- .... ....|--- .... ....
....|..|C-4 AF.F ....|--- .... ....|--- .... ....
....|..|R-- .... ....|--- .... ....|--- .... ....
....|..|R-- .... ....|G#5 UF.F ....|--- .... ....
....|..|C-4 LF.F ....|D#5 UF.F ....|A-3 2F.7 ....
 G#3|..|G#1 2A.F ....|--- .... ....|A-3 2F.7 ....
....|..|C-4 AF.7 ....|--- .... ....|D#4 2F.F ....
....|..|R-- .... ....|--- .... ....|--- .... ....
....|..|C-4 AF.F ....|F-5 UF.F ....|D#4 2F3F ....
....|..|C-4 AF.F ....|G#5 UF.7 ....|F-4 2F2F ....
 C#4|..|C#2 2A.F ....|--- .... ....|F-4 2F2F ....
 C#4|..|C#2 2A.F ....|--- .... ....|--- .... ....
....|..|C-4 LF.F ....|--- .... ....|--- .... ....
....|..|C-4 AF.A ....|--- .... ....|--- .... ....
....|..|R-- .... ....|--- .... ....|--- .... ....
....|..|R-- .... ....|G#5 UF.A ....|--- .... ....
....|..|C-4 LF.F ....|D#5 UF.A ....|F-4 2F4F ....
....|..|G#1 2F.A ....|--- .... ....|--- .... ....
....|..|R-- .... ....|--- .... ....|D#4 2F.A ....
....|..|--- .... ....|--- .... ....|--- .... ....
....|..|C-4 CF.F ....|F-5 UF.A ....|D#4 2F3A ....
....|..|C-4 CF.F ....|--- .... ....|F-4 2F2A ....
....|..|C-4 CF.7 ....|--- .... ....|F-4 2F2A ....
....|..|C#2 2F.A ....|--- .... ....|--- .... ....
....|..|C-4 LF.F ....|--- .... ....|F-4 2F2F ....
....|..|C-4 AF.7 ....|--- .... ....|--- .... ....
....|..|R-- .... ....|--- .... ....|--- .... ....
....|..|R-- .... ....|G#5 UF.7 ....|F-4 2F2F ....
....|..|C-4 AF.F ....|D#5 UF.7 ....|F-4 2F4A ....
....|..|C-4 AF.F ....|--- .... ....|G#4 2F.F ....
....|..|R-- .... ....|--- .... ....|D#4 2F.7 ....
....|..|R-- .... ....|--- .... ....|--- .... ....

[Pattern39]
....|..|C-4 AF.F ....|F-5 UF.7 ....|G#4 2F.F ....
....|..|C-4 AF.F ....|--- .... ....|F-4 2F27 ....
 C#4|..|C#2 2A.F ....|--- .... ....|F-4 2F27 ....
....|..|C#2 2F.7 ....|--- .... ....|--- .... ....
....|..|C-4 LF.F ....|--- .... ....|F-4 2F2A ....
....|..|R-- .... ....|--- .... ....|--- .... ....
....|..|--- .... ....|--- .... ....|--- .... ....
....|..|--- .... ....|--- .... ....|F-4 2F2A ....
....|..|C-4 LF.F ....|--- .... ....|F-4 2F47 ....
....|..|C-4 AF.A ....|--- .... ....|G#4 2F.A ....
....|..|R-- .... ....|--- .... ....|--- .... ....
....|..|R-- .... ....|--- .... ....|--- .... ....
....|..|C-4 CF.F ....|--- .... ....|G#4 2F.A ....
....|..|C-4 CF.7 ....|--- .... ....|--- .... ....
....|..|C-4 CF.F ....|--- .... ....|--- .... ....
....|..|R-- .... ....|--- .... ....|C#4 2F.F ....
....|..|D#4 9F.F ....|F#5 UF.F ....|A-4 2F1F ....
 G#3|..|G#1 2A.F ....|F#5 UF.F ....|A-4 2F1F ....
....|..|--- .... ....|--- .... ....|--- .... ....
....|..|--- .... ....|--- .... ....|F-4 2F27 ....
....|..|C-4 9F.F ....|G#5 UF.F ....|--- .... ....
....|..|C-4 AF.7 ....|G#5 UF.F ....|C#4 2F.F ....
....|..|R-- .... ....|--- .... ....|--- .... ....
....|..|R-- .... ....|--- .... ....|--- .... ....
....|..|C-4 AF.F ....|A-5 UF.F ....|C#4 2F.F ....
....|..|C-4 AF.F ....|A-5 UF.F ....|--- .... ....
 F#3|..|F#1 2A.F ....|--- .... ....|F#4 2F.F ....
....|..|R-- .... ....|--- .... ....|C#4 2F.A ....
....|..|C-4 LF.F ....|F#5 UF.A ....|A-4 2F1A ....
....|..|G#1 2F.A ....|F#5 UF.A ....|A-4 2F1A ....
....|..|--- .... ....|--- .... ....|--- .... ....
....|..|--- .... ....|--- .... ....|--- .... ....
....|..|C-4 LF.F ....|G#5 UF.A ....|--- .... ....
....|..|R-- .... ....|G#5 UF.A ....|C#4 2F.A ....
....|..|--- .... ....|--- .... ....|--- .... ....
....|..|--- .... ....|--- .... ....|--- .... ....
....|..|C-4 CF.F ....|C#6 UF.F ....|C#4 2F.A ....
....|..|C-4 AF.A ....|C#6 UF.F ....|--- .... ....
....|..|C-4 CF.F ....|--- .... ....|F#4 2F.A ....
....|..|R-- .... ....|--- .... ....|C#4 2F.7 ....
....|..|C-4 LF.F ....|F#5 UF.7 ....|A-4 2F17 ....
....|..|G#1 2F.7 ....|F#5 UF.7 ....|A-4 2F17 ....
....|..|R-- .... ....|--- .... ....|--- .... ....
....|..|--- .... ....|--- .... ....|--- .... ....
....|..|C-4 AF.F ....|G#5 UF.7 ....|--- .... ....
....|..|C-4 AF.F ....|G#5 UF.7 ....|C#4 2F.7 ....
 F#3|..|F#1 2A.F ....|--- .... ....|C#5 2F.F ....
....|..|R-- .... ....|--- .... ....|--- .... ....
....|..|C-4 AF.F ....|B-5 UF.F ....|D#4 2F2F ....
 B-3|..|B-1 2A.F ....|A-5 UF.7 ....|B-3 2F.F ....
....|..|C-4 AF.F ....|--- .... ....|F#4 2F.F ....
....|..|R-- .... ....|--- .... ....|--- .... ....
....|..|C-4 LF.F ....|--- .... ....|--- .... ....
....|..|R-- .... ....|--- .... ....|--- .... ....
....|..|R-- .... ....|--- .... ....|--- .... ....
....|..|--- .... ....|--- .... ....|--- .... ....
....|..|C-4 LF.F ....|--- .... ....|--- .... ....
....|..|C-4 AF.A ....|--- .... ....|--- .... ....
....|..|F#1 2F.A ....|--- .... ....|C#5 2F.A ....
....|..|R-- .... ....|--- .... ....|--- .... ....
....|..|C-4 CF.F ....|C#6 UF.7 ....|D#4 2F2A ....
....|..|B-1 2F.A ....|C#6 UF.7 ....|B-3 2F.A ....
....|..|C-4 CF.F ....|--- .... ....|F#4 2F.A ....
....|..|R-- .... ....|--- .... ....|--- .... ....

[Pattern40]
....|..|C-4 LF.F ....|--- .... ....|--- .... ....
....|..|R-- .... ....|--- .... ....|--- .... ....
....|..|R-- .... ....|B-5 UF.F ....|--- .... ....
....|..|--- .... ....|F#5 UF.F ....|--- .... ....
....|..|C-4 LF.F ....|--- .... ....|--- .... ....
 B-3|..|B-1 2A.F ....|--- .... ....|--- .... ....
....|..|F#1 2F.7 ....|--- .... ....|C#5 2F.7 ....
....|..|R-- .... ....|--- .... ....|F#4 2F.F ....
....|..|C-4 AF.F ....|G#5 UF.F ....|F-4 2F4F ....
 C#4|..|C#2 2A.F ....|--- .... ....|F-4 2F2F ....
....|..|C-4 AF.F ....|--- .... ....|F#4 2F.7 ....
 C#4|..|C#2 2A.F ....|--- .... ....|--- .... ....
....|..|C-4 LF.F ....|--- .... ....|--- .... ....
....|..|R-- .... ....|--- .... ....|--- .... ....
....|..|B-8 JF.F ....|B-5 UF.A ....|--- .... ....
....|..|--- .... ....|F#5 UF.A ....|--- .... ....
....|..|C-4 LF.F ....|--- .... ....|--- .... ....
....|..|B-8 JF.F ....|--- .... ....|--- .... ....
....|..|--- .... ....|--- .... ....|--- .... ....
....|..|--- .... ....|--- .... ....|F#4 2F.A ....
....|..|C-4 CF.F ....|G#5 UF.A ....|F-4 2F4A ....
....|..|C#2 2F.A ....|--- .... ....|F-4 2F2A ....
....|..|C-4 CF.F ....|--- .... ....|--- .... ....
....|..|B-8 JF.F ....|--- .... ....|--- .... ....
....|..|C-4 LF.F ....|--- .... ....|--- .... ....
....|..|--- .... ....|--- .... ....|--- .... ....
....|..|B-8 JF.F ....|B-5 UF.7 ....|--- .... ....
....|..|--- .... ....|F#5 UF.7 ....|--- .... ....
....|..|C-4 AF.F ....|--- .... ....|--- .... ....
....|..|C-4 AF.F ....|--- .... ....|--- .... ....
....|..|--- .... ....|--- .... ....|--- .... ....
....|..|B-8 JF.F ....|--- .... ....|F#4 2F.7 ....
....|..|C-4 AF.F ....|G#5 UF.7 ....|F-4 2F47 ....
....|..|C#2 2F.7 ....|--- .... ....|F-4 2F27 ....
....|..|C-4 AF.F ....|--- .... ....|R-- .... ....
....|..|C#2 2F.7 ....|--- .... ....|--- .... ....
....|..|C-4 LF.7 ....|--- .... ....|--- .... ....
....|..|--- .... ....|--- .... ....|--- .... ....
....|..|B-8 JF.7 ....|R-- .... ....|--- .... ....
....|..|--- .... ....|--- .... ....|--- .... ....
....|..|C-4 LF.7 ....|--- .... ....|--- .... ....
....|..|B-8 JF.7 ....|--- .... ....|--- .... ....
....|..|--- .... ....|--- .... ....|--- .... ....
....|..|B-8 JF.A ....|--- .... ....|--- .... ....
....|..|C-4 CF.7 ....|--- .... ....|--- .... ....
....|..|--- .... ....|--- .... ....|--- .... ....
....|..|C-4 CF.7 ....|--- .... ....|R-- .... ....
....|..|B-8 JF.7 ....|--- .... ....|--- .... ....
....|..|C-4 LF.7 ....|--- .... ....|--- .... ....
....|..|--- .... ....|--- .... ....|--- .... ....
....|..|B-8 JF.7 ....|R-- .... ....|--- .... ....
....|..|--- .... ....|--- .... ....|--- .... ....
....|..|C-4 AF.7 ....|--- .... ....|--- .... ....
....|..|C-4 AF.7 ....|--- .... ....|--- .... ....
....|..|--- .... ....|--- .... ....|--- .... ....
....|..|B-8 JF.7 ....|--- .... ....|--- .... ....
 F#4|..|F#2 2A.F ....|C#6 UF.F ....|F#4 2F2F ....
....|..|--- .... ....|--- .... ....|--- .... ....
....|..|C-4 AF.7 ....|--- .... ....|R-- .... ....
....|..|--- .... ....|R-- .... ....|--- .... ....
 F#4|..|F#2 2A.F ....|--- .... ....|--- .... ....
....|..|--- .... ....|--- .... ....|--- .... ....
....|..|R-- .... ....|R-- .... ....|--- .... ....
....|..|--- .... ....|--- .... ....|--- .... ....

[Pattern41]
 F#4|..|F#2 2A.F ....|--- .... ....|--- .... ....
....|..|--- .... ....|--- .... ....|--- .... ....
....|..|R-- .... ....|--- .... ....|--- .... ....
....|..|--- .... ....|--- .... ....|--- .... ....
 F#4|..|F#2 2A.F ....|C#6 UF.A ....|F#4 2F2A ....
....|..|--- .... ....|--- .... ....|--- .... ....
....|..|R-- .... ....|--- .... ....|--- .... ....
....|..|--- .... ....|R-- .... ....|--- .... ....
 F#4|..|F#2 2A.F ....|--- .... ....|--- .... ....
....|..|--- .... ....|--- .... ....|--- .... ....
....|..|R-- .... ....|--- .... ....|--- .... ....
....|..|--- .... ....|--- .... ....|--- .... ....
 F#4|..|F#2 2A.F ....|--- .... ....|--- .... ....
....|..|--- .... ....|--- .... ....|--- .... ....
....|..|R-- .... ....|--- .... ....|--- .... ....
....|..|--- .... ....|--- .... ....|--- .... ....
 F#4|..|F#2 2A.F ....|C#6 UF.F ....|F#4 2F27 ....
....|..|--- .... ....|--- .... ....|--- .... ....
....|..|R-- .... ....|R-- .... ....|--- .... ....
....|..|--- .... ....|R-- .... ....|--- .... ....
 F#4|..|F#2 2A.F ....|--- .... ....|--- .... ....
....|..|--- .... ....|--- .... ....|--- .... ....
....|..|R-- .... ....|--- .... ....|--- .... ....
....|..|--- .... ....|--- .... ....|--- .... ....
 F#4|..|F#2 2A.F ....|--- .... ....|--- .... ....
....|..|--- .... ....|--- .... ....|--- .... ....
....|..|R-- .... ....|--- .... ....|--- .... ....
....|..|--- .... ....|--- .... ....|--- .... ....
 F#4|..|F#2 2A.F ....|C#6 UF.F ....|--- .... ....
....|..|--- .... ....|--- .... ....|--- .... ....
....|..|R-- .... ....|R-- .... ....|--- .... ....
....|..|--- .... ....|R-- .... ....|--- .... ....
 F#4|..|F#2 2A.F ....|--- .... ....|--- .... ....
....|..|--- .... ....|--- .... ....|--- .... ....
....|..|R-- .... ....|--- .... ....|--- .... ....
....|..|--- .... ....|--- .... ....|--- .... ....
 F#4|..|F#2 2A.F ....|--- .... ....|--- .... ....
....|..|--- .... ....|--- .... ....|--- .... ....
....|..|R-- .... ....|--- .... ....|--- .... ....
....|..|--- .... ....|--- .... ....|--- .... ....
 E-4|..|E-2 2A.F ....|C#6 UF.7 ....|G#4 2F4F ....
....|..|--- .... ....|--- .... ....|--- .... ....
....|..|R-- .... ....|R-- .... ....|G#4 2F2F ....
....|..|--- .... ....|R-- .... ....|--- .... ....
 E-4|..|E-2 2A.F ....|--- .... ....|--- .... ....
....|..|--- .... ....|--- .... ....|--- .... ....
....|..|--- .... ....|--- .... ....|--- .... ....
....|..|--- .... ....|--- .... ....|--- .... ....
 E-4|..|E-2 2A.F ....|--- .... ....|--- .... ....
....|..|--- .... ....|--- .... ....|--- .... ....
....|..|R-- .... ....|--- .... ....|--- .... ....
....|..|--- .... ....|--- .... ....|--- .... ....
 E-4|..|E-2 2A.F ....|C#6 UF.7 ....|G#4 2F4A ....
....|..|--- .... ....|--- .... ....|--- .... ....
....|..|R-- .... ....|--- .... ....|G#4 2F2A ....
....|..|--- .... ....|R-- .... ....|--- .... ....
 E-4|..|E-2 2A.F ....|B-5 UF.F ....|--- .... ....
....|..|--- .... ....|--- .... ....|--- .... ....
....|..|--- .... ....|R-- .... ....|--- .... ....
....|..|--- .... ....|--- .... ....|--- .... ....
 E-4|..|E-2 2A.F ....|A-5 UF.F ....|--- .... ....
....|..|--- .... ....|R-- .... ....|--- .... ....
....|..|R-- .... ....|--- .... ....|--- .... ....
....|..|--- .... ....|--- .... ....|--- .... ....

[Pattern42]
 E-4|..|E-2 2A.F ....|B-5 UF.F ....|G#4 2F47 ....
....|..|--- .... ....|--- .... ....|--- .... ....
....|..|R-- .... ....|R-- .... ....|G#4 2F27 ....
....|..|--- .... ....|--- .... ....|--- .... ....
 E-4|..|E-2 2A.F ....|B-5 UF.A ....|--- .... ....
....|..|--- .... ....|--- .... ....|--- .... ....
....|..|--- .... ....|R-- .... ....|--- .... ....
....|..|--- .... ....|--- .... ....|--- .... ....
 E-4|..|E-2 2A.F ....|A-5 UF.A ....|--- .... ....
....|..|--- .... ....|R-- .... ....|--- .... ....
....|..|R-- .... ....|--- .... ....|--- .... ....
....|..|--- .... ....|--- .... ....|--- .... ....
 E-4|..|E-2 2A.F ....|B-5 UF.A ....|--- .... ....
....|..|--- .... ....|--- .... ....|--- .... ....
....|..|--- .... ....|R-- .... ....|--- .... ....
....|..|--- .... ....|--- .... ....|--- .... ....
 E-4|..|E-2 2A.F ....|B-5 UF.7 ....|--- .... ....
....|..|--- .... ....|--- .... ....|--- .... ....
....|..|R-- .... ....|R-- .... ....|--- .... ....
....|..|--- .... ....|--- .... ....|--- .... ....
 E-4|..|E-2 2A.F ....|A-5 UF.7 ....|--- .... ....
....|..|--- .... ....|R-- .... ....|--- .... ....
....|..|R-- .... ....|--- .... ....|--- .... ....
....|..|--- .... ....|--- .... ....|--- .... ....
 D-4|..|D-2 2A.F ....|A-5 UF.F ....|F#4 2F8F ....
....|..|--- .... ....|--- .... ....|--- .... ....
....|..|--- .... ....|R-- .... ....|F#4 2F9F ....
....|..|--- .... ....|--- .... ....|F#4 2F9F ....
 D-4|..|D-2 2A.F ....|--- .... ....|F#4 2F2F ....
....|..|--- .... ....|--- .... ....|--- .... ....
....|..|R-- .... ....|--- .... ....|--- .... ....
....|..|--- .... ....|--- .... ....|--- .... ....
 D-4|..|D-2 2A.F ....|--- .... ....|--- .... ....
....|..|--- .... ....|--- .... ....|--- .... ....
....|..|R-- .... ....|--- .... ....|--- .... ....
....|..|--- .... ....|--- .... ....|--- .... ....
 D-4|..|D-2 2A.F ....|F#5 UF.F ....|F#4 2F8A ....
....|..|--- .... ....|--- .... ....|--- .... ....
....|..|--- .... ....|R-- .... ....|F#4 2F9A ....
....|..|--- .... ....|R-- .... ....|F#4 2F9A ....
 D-4|..|D-2 2A.F ....|--- .... ....|F#4 2F2A ....
....|..|--- .... ....|--- .... ....|--- .... ....
....|..|R-- .... ....|--- .... ....|--- .... ....
....|..|--- .... ....|--- .... ....|--- .... ....
 D-4|..|D-2 2A.F ....|--- .... ....|--- .... ....
....|..|--- .... ....|--- .... ....|--- .... ....
....|..|--- .... ....|--- .... ....|--- .... ....
....|..|--- .... ....|--- .... ....|--- .... ....
 D-4|..|D-2 2A.F ....|A-5 UF.7 ....|F#4 2F87 ....
....|..|--- .... ....|--- .... ....|--- .... ....
....|..|--- .... ....|R-- .... ....|F#4 2F97 ....
....|..|--- .... ....|R-- .... ....|F#4 2F97 ....
 D-4|..|D-2 2A.F ....|--- .... ....|F#4 2F27 ....
....|..|--- .... ....|--- .... ....|--- .... ....
....|..|R-- .... ....|--- .... ....|--- .... ....
....|..|--- .... ....|--- .... ....|--- .... ....
 D-4|..|D-2 2A.F ....|--- .... ....|--- .... ....
....|..|--- .... ....|--- .... ....|--- .... ....
....|..|--- .... ....|--- .... ....|--- .... ....
....|..|--- .... ....|--- .... ....|--- .... ....
 D-4|..|D-2 2A.F ....|G#5 UF.F ....|--- .... ....
....|..|--- .... ....|--- .... ....|--- .... ....
....|..|--- .... ....|--- .... ....|--- .... ....
....|..|--- .... ....|R-- .... ....|--- .... ....

[Pattern43]
 D-4|..|D-2 2A.F ....|--- .... ....|--- .... ....
....|..|--- .... ....|--- .... ....|--- .... ....
....|..|R-- .... ....|--- .... ....|--- .... ....
....|..|--- .... ....|--- .... ....|--- .... ....
 D-4|..|D-2 2A.F ....|A-5 UF.F ....|--- .... ....
....|..|--- .... ....|R-- .... ....|--- .... ....
....|..|--- .... ....|--- .... ....|--- .... ....
....|..|--- .... ....|--- .... ....|--- .... ....
 B-3|..|B-1 2A.F ....|A-5 UF.F ....|F#4 2F2F ....
....|..|--- .... ....|--- .... ....|--- .... ....
....|..|--- .... ....|--- .... ....|--- .... ....
....|..|--- .... ....|R-- .... ....|--- .... ....
 B-3|..|B-1 2A.F ....|--- .... ....|--- .... ....
....|..|--- .... ....|--- .... ....|--- .... ....
....|..|--- .... ....|--- .... ....|--- .... ....
....|..|--- .... ....|--- .... ....|--- .... ....
 B-3|..|B-1 2A.F ....|A-5 UF.A ....|F#4 2F2F ....
....|..|--- .... ....|R-- .... ....|--- .... ....
....|..|--- .... ....|--- .... ....|--- .... ....
....|..|--- .... ....|--- .... ....|--- .... ....
 B-3|..|B-1 2A.F ....|D-5 UF.F ....|F#4 2F2A ....
....|..|--- .... ....|--- .... ....|--- .... ....
....|..|--- .... ....|R-- .... ....|--- .... ....
....|..|--- .... ....|R-- .... ....|--- .... ....
 B-3|..|B-1 2A.F ....|--- .... ....|--- .... ....
....|..|--- .... ....|--- .... ....|--- .... ....
....|..|--- .... ....|--- .... ....|F#4 2F2F ....
....|..|--- .... ....|--- .... ....|--- .... ....
 B-3|..|B-1 2A.F ....|A-5 UF.7 ....|F#4 2F2A ....
....|..|--- .... ....|R-- .... ....|B-3 2F2F ....
....|..|--- .... ....|--- .... ....|--- .... ....
....|..|--- .... ....|--- .... ....|--- .... ....
 E-4|..|E-2 2A.F ....|A-5 UF.7 ....|G#4 2F4F ....
....|..|--- .... ....|--- .... ....|--- .... ....
....|..|--- .... ....|R-- .... ....|G#4 2F4F ....
....|..|--- .... ....|R-- .... ....|G#4 2F2F ....
 E-4|..|E-2 2A.F ....|--- .... ....|--- .... ....
....|..|--- .... ....|--- .... ....|--- .... ....
....|..|--- .... ....|--- .... ....|F#4 2F2A ....
....|..|--- .... ....|--- .... ....|--- .... ....
 E-4|..|E-2 2A.F ....|--- .... ....|F#4 2F27 ....
....|..|--- .... ....|--- .... ....|B-3 2F2A ....
....|..|--- .... ....|--- .... ....|--- .... ....
....|..|--- .... ....|--- .... ....|--- .... ....
 E-4|..|E-2 2A.F ....|G#5 UF.F ....|G#4 2F4A ....
....|..|--- .... ....|--- .... ....|--- .... ....
....|..|--- .... ....|R-- .... ....|G#4 2F4A ....
....|..|--- .... ....|R-- .... ....|G#4 2F2A ....
 E-4|..|E-2 2A.F ....|--- .... ....|--- .... ....
....|..|--- .... ....|--- .... ....|--- .... ....
....|..|--- .... ....|--- .... ....|F#4 2F27 ....
....|..|--- .... ....|--- .... ....|--- .... ....
 E-4|..|E-2 2A.F ....|F#5 UF.F ....|--- .... ....
....|..|--- .... ....|R-- .... ....|B-3 2F27 ....
....|..|--- .... ....|--- .... ....|--- .... ....
....|..|--- .... ....|--- .... ....|--- .... ....
 A-3|..|A-1 2A.F ....|G#5 UF.F ....|C#4 2F2F ....
....|..|--- .... ....|--- .... ....|--- .... ....
....|..|--- .... ....|--- .... ....|G#4 2F47 ....
....|..|--- .... ....|R-- .... ....|G#4 2F27 ....
 A-3|..|A-1 2A.F ....|--- .... ....|--- .... ....
....|..|--- .... ....|--- .... ....|--- .... ....
....|..|--- .... ....|--- .... ....|--- .... ....
....|..|--- .... ....|--- .... ....|--- .... ....

[Pattern44]
 A-3|..|A-1 2A.F ....|F#5 UF.A ....|--- .... ....
....|..|--- .... ....|R-- .... ....|--- .... ....
....|..|--- .... ....|--- .... ....|--- .... ....
....|..|--- .... ....|--- .... ....|--- .... ....
 A-3|..|A-1 2A.F ....|C#5 UF.F ....|C#4 2F2A ....
....|..|--- .... ....|--- .... ....|--- .... ....
....|..|--- .... ....|--- .... ....|--- .... ....
....|..|--- .... ....|R-- .... ....|--- .... ....
 A-3|..|A-1 2A.F ....|--- .... ....|--- .... ....
....|..|--- .... ....|--- .... ....|--- .... ....
....|..|--- .... ....|--- .... ....|--- .... ....
....|..|--- .... ....|--- .... ....|--- .... ....
 A-3|..|A-1 2A.F ....|F#5 UF.7 ....|--- .... ....
....|..|--- .... ....|R-- .... ....|--- .... ....
....|..|--- .... ....|--- .... ....|--- .... ....
....|..|--- .... ....|--- .... ....|--- .... ....
 A-3|..|A-1 2A.F ....|G#5 UF.7 ....|C#4 2F27 ....
....|..|--- .... ....|--- .... ....|--- .... ....
....|..|--- .... ....|--- .... ....|--- .... ....
....|..|--- .... ....|R-- .... ....|--- .... ....
 A-3|..|A-1 2A.F ....|--- .... ....|--- .... ....
....|..|--- .... ....|--- .... ....|--- .... ....
....|..|--- .... ....|--- .... ....|--- .... ....
....|..|--- .... ....|--- .... ....|C#4 2F2F ....
 A-3|..|A-1 2A.F ....|--- .... ....|C#4 2F2F ....
....|..|--- .... ....|--- .... ....|--- .... ....
....|..|--- .... ....|--- .... ....|C#4 2F2F ....
....|..|--- .... ....|--- .... ....|--- .... ....
 A-3|..|A-1 2A.F ....|C#5 UF.7 ....|--- .... ....
....|..|--- .... ....|--- .... ....|--- .... ....
....|..|--- .... ....|--- .... ....|--- .... ....
....|..|--- .... ....|R-- .... ....|--- .... ....
 A-3|..|A-1 2A.F ....|--- .... ....|C#4 2F2F ....
....|..|--- .... ....|--- .... ....|--- .... ....
....|..|--- .... ....|--- .... ....|--- .... ....
....|..|--- .... ....|--- .... ....|C#4 2F2F ....
 A-3|..|A-1 2A.F ....|--- .... ....|C#4 2F2A ....
....|..|--- .... ....|--- .... ....|E-4 2F.F ....
....|..|R-- .... ....|--- .... ....|C#4 2F2A ....
....|..|--- .... ....|--- .... ....|--- .... ....
 D-4|..|D-2 2A.F ....|--- .... ....|F#4 2F1F ....
....|..|--- .... ....|--- .... ....|--- .... ....
....|..|--- .... ....|--- .... ....|--- .... ....
....|..|--- .... ....|--- .... ....|C#4 2F.F ....
 D-4|..|D-2 2A.F ....|--- .... ....|C#4 2F2A ....
....|..|--- .... ....|--- .... ....|--- .... ....
....|..|--- .... ....|--- .... ....|--- .... ....
....|..|--- .... ....|--- .... ....|C#4 2F27 ....
 D-4|..|D-2 2A.F ....|--- .... ....|C#4 2F27 ....
....|..|--- .... ....|--- .... ....|E-4 2F.A ....
....|..|R-- .... ....|--- .... ....|C#4 2F27 ....
....|..|--- .... ....|--- .... ....|--- .... ....
 D-4|..|D-2 2A.F ....|F#5 UF.F ....|F#4 2F1A ....
....|..|--- .... ....|--- .... ....|--- .... ....
....|..|--- .... ....|--- .... ....|--- .... ....
....|..|--- .... ....|R-- .... ....|C#4 2F.A ....
 D-4|..|D-2 2A.F ....|--- .... ....|C#4 2F27 ....
....|..|--- .... ....|--- .... ....|--- .... ....
....|..|--- .... ....|--- .... ....|--- .... ....
....|..|--- .... ....|--- .... ....|C#4 2F27 ....
 D-4|..|D-2 2A.F ....|E-5 UF.F ....|--- .... ....
....|..|--- .... ....|R-- .... ....|E-4 2F.7 ....
....|..|R-- .... ....|--- .... ....|--- .... ....
....|..|--- .... ....|--- .... ....|--- .... ....

[Pattern45]
 G#3|..|G#1 2A.F ....|F#5 UF.F ....|F#4 2F.F ....
....|..|--- .... ....|--- .... ....|--- .... ....
....|..|--- .... ....|--- .... ....|--- .... ....
....|..|--- .... ....|R-- .... ....|C#4 2F.7 ....
 G#3|..|G#1 2A.F ....|R-- .... ....|--- .... ....
....|..|--- .... ....|--- .... ....|--- .... ....
....|..|--- .... ....|--- .... ....|--- .... ....
....|..|--- .... ....|--- .... ....|--- .... ....
 G#3|..|G#1 2A.F ....|E-5 UF.A ....|--- .... ....
....|..|--- .... ....|R-- .... ....|--- .... ....
....|..|--- .... ....|--- .... ....|--- .... ....
....|..|--- .... ....|--- .... ....|--- .... ....
 G#3|..|G#1 2A.F ....|B-4 UF.F ....|F#4 2F.A ....
....|..|--- .... ....|--- .... ....|--- .... ....
....|..|--- .... ....|--- .... ....|--- .... ....
....|..|--- .... ....|R-- .... ....|--- .... ....
 G#3|..|G#1 2A.F ....|R-- .... ....|--- .... ....
....|..|--- .... ....|--- .... ....|--- .... ....
....|..|--- .... ....|--- .... ....|--- .... ....
....|..|--- .... ....|--- .... ....|--- .... ....
 G#3|..|G#1 2A.F ....|E-5 UF.7 ....|--- .... ....
....|..|--- .... ....|R-- .... ....|--- .... ....
....|..|--- .... ....|--- .... ....|--- .... ....
....|..|--- .... ....|--- .... ....|--- .... ....
 C#4|..|C#2 2A.F ....|F#5 UF.7 ....|F#4 2F.7 ....
....|..|--- .... ....|--- .... ....|--- .... ....
....|..|--- .... ....|--- .... ....|--- .... ....
....|..|--- .... ....|--- .... ....|--- .... ....
 C#4|..|C#2 2A.F ....|R-- .... ....|--- .... ....
....|..|--- .... ....|--- .... ....|--- .... ....
....|..|--- .... ....|--- .... ....|--- .... ....
....|..|--- .... ....|--- .... ....|--- .... ....
 C#4|..|C#2 2A.F ....|--- .... ....|--- .... ....
....|..|--- .... ....|--- .... ....|--- .... ....
....|..|--- .... ....|--- .... ....|--- .... ....
....|..|--- .... ....|--- .... ....|--- .... ....
 C#4|..|C#2 2A.F ....|C#6 UF.F ....|--- .... ....
....|..|--- .... ....|--- .... ....|--- .... ....
....|..|--- .... ....|--- .... ....|--- .... ....
....|..|--- .... ....|--- .... ....|--- .... ....
 C#4|..|C#2 2A.F ....|R-- .... ....|--- .... ....
....|..|--- .... ....|--- .... ....|--- .... ....
....|..|--- .... ....|--- .... ....|--- .... ....
....|..|--- .... ....|--- .... ....|--- .... ....
 C#4|..|C#2 2A.F ....|--- .... ....|--- .... ....
....|..|--- .... ....|--- .... ....|--- .... ....
....|..|--- .... ....|--- .... ....|--- .... ....
....|..|--- .... ....|--- .... ....|--- .... ....
 C#4|..|C#2 2A.F ....|B-5 UF.F ....|--- .... ....
....|..|--- .... ....|--- .... ....|--- .... ....
....|..|--- .... ....|--- .... ....|--- .... ....
....|..|--- .... ....|--- .... ....|--- .... ....
 C#4|..|C#2 2A.F ....|R-- .... ....|--- .... ....
....|..|--- .... ....|--- .... ....|--- .... ....
....|..|--- .... ....|--- .... ....|--- .... ....
....|..|--- .... ....|--- .... ....|--- .... ....
 C#4|..|C#2 2A.F ....|--- .... ....|--- .... ....
....|..|--- .... ....|--- .... ....|--- .... ....
....|..|--- .... ....|--- .... ....|--- .... ....
....|..|--- .... ....|--- .... ....|--- .... ....
 C#4|..|C#2 2A.F ....|C#6 UF.7 ....|--- .... ....
....|..|--- .... ....|--- .... ....|--- .... ....
....|..|--- .... ....|--- .... ....|--- .... ....
....|..|--- .... ....|--- .... ....|--- .... ....

[Pattern46]
 C#4|..|C#2 2A.F ....|R-- .... ....|--- .... ....
....|..|--- .... ....|--- .... ....|--- .... ....
....|..|--- .... ....|--- .... ....|--- .... ....
....|..|--- .... ....|--- .... ....|--- .... ....
 C#4|..|C#2 2A.F ....|--- .... ....|--- .... ....
....|..|--- .... ....|--- .... ....|--- .... ....
....|..|--- .... ....|--- .... ....|--- .... ....
....|..|--- .... ....|C#6 UF.F ....|--- .... ....
 C#4|..|C#2 2A.F ....|B-5 UF.7 ....|F-4 2F7F ....
....|..|--- .... ....|R-- .... ....|F-4 2F.F ....
....|..|--- .... ....|--- .... ....|--- .... ....
....|..|--- .... ....|--- .... ....|--- .... ....
 C#4|..|C#2 2A.F ....|R-- .... ....|--- .... ....
....|..|--- .... ....|--- .... ....|--- .... ....
....|..|--- .... ....|--- .... ....|--- .... ....
....|..|--- .... ....|--- .... ....|--- .... ....
 C#4|..|C#2 2A.F ....|--- .... ....|--- .... ....
....|..|--- .... ....|--- .... ....|--- .... ....
....|..|--- .... ....|--- .... ....|--- .... ....
....|..|--- .... ....|C#6 UF.A ....|--- .... ....
 C#4|..|C#2 2A.F ....|--- .... ....|F-4 2F7A ....
....|..|--- .... ....|R-- .... ....|F-4 2F.A ....
....|..|--- .... ....|--- .... ....|--- .... ....
....|..|--- .... ....|--- .... ....|--- .... ....
 C#4|..|C#2 2A.F ....|--- .... ....|--- .... ....
....|..|--- .... ....|--- .... ....|--- .... ....
....|..|--- .... ....|--- .... ....|--- .... ....
....|..|--- .... ....|--- .... ....|--- .... ....
 C#4|..|C#2 2A.F ....|--- .... ....|--- .... ....
....|..|--- .... ....|--- .... ....|--- .... ....
....|..|--- .... ....|--- .... ....|--- .... ....
....|..|--- .... ....|C#6 UF.7 ....|--- .... ....
 C#4|..|C#2 2A.F ....|--- .... ....|F-4 2F2F ....
....|..|--- .... ....|R-- .... ....|F-4 2F.7 ....
....|..|--- .... ....|--- .... ....|--- .... ....
....|..|--- .... ....|--- .... ....|--- .... ....
 C#4|..|C#2 2A.F ....|--- .... ....|--- .... ....
....|..|--- .... ....|--- .... ....|--- .... ....
....|..|--- .... ....|--- .... ....|--- .... ....
....|..|--- .... ....|--- .... ....|F-4 2F2F ....
 C#4|..|C#2 2A.F ....|--- .... ....|F-4 2F2F ....
....|..|--- .... ....|--- .... ....|--- .... ....
....|..|--- .... ....|--- .... ....|--- .... ....
....|..|--- .... ....|--- .... ....|--- .... ....
....|..|C-4 LF.F ....|--- .... ....|F-4 2F2A ....
 C#4|..|C#2 2A.F ....|--- .... ....|F-4 2F2F ....
....|..|R-- .... ....|--- .... ....|--- .... ....
....|..|--- .... ....|--- .... ....|--- .... ....
....|..|D#4 9F.F ....|--- .... ....|F-4 2F2F ....
 C#4|..|C#2 2A.F ....|--- .... ....|--- .... ....
....|..|--- .... ....|--- .... ....|--- .... ....
....|..|--- .... ....|--- .... ....|F-4 2F2A ....
....|..|C-4 9F.F ....|--- .... ....|F-4 2F2F ....
 C#4|..|C#2 2A.F ....|--- .... ....|F-4 2F2F ....
....|..|R-- .... ....|--- .... ....|--- .... ....
....|..|--- .... ....|--- .... ....|--- .... ....
....|..|C-4 AF.F ....|C#6 UF.F ....|F-4 2F6F ....
 F#4|..|F#2 2A.F ....|--- .... ....|F#4 2FAF ....
....|..|R-- .... ....|--- .... ....|F#4 2F2F ....
....|..|R-- .... ....|R-- .... ....|--- .... ....
....|..|C-4 AF.F ....|--- .... ....|F-4 2F2A ....
....|..|C#2 2F.A ....|--- .... ....|F#4 2F2F ....
....|..|--- .... ....|--- .... ....|--- .... ....
....|..|R-- .... ....|--- .... ....|F-4 2F27 ....

[Pattern47]
....|..|C#2 2F.7 ....|--- .... ....|F-4 2F27 ....
....|..|C#2 2F.A ....|--- .... ....|F-4 2F2A ....
....|..|R-- .... ....|--- .... ....|--- .... ....
....|..|--- .... ....|--- .... ....|--- .... ....
....|..|C-4 CF.F ....|C#6 UF.A ....|F-4 2F6A ....
....|..|C#2 2F.7 ....|--- .... ....|F-4 2F27 ....
....|..|R-- .... ....|--- .... ....|F#4 2F2A ....
....|..|R-- .... ....|R-- .... ....|--- .... ....
....|..|D#4 9F.7 ....|--- .... ....|F-4 2F27 ....
....|..|C#2 2F.7 ....|--- .... ....|F#4 2F2A ....
....|..|--- .... ....|--- .... ....|--- .... ....
....|..|R-- .... ....|--- .... ....|--- .... ....
....|..|C-4 9F.7 ....|--- .... ....|F-4 2F27 ....
....|..|C#2 2F.7 ....|--- .... ....|F-4 2F27 ....
....|..|R-- .... ....|--- .... ....|--- .... ....
....|..|--- .... ....|C#6 UF.F ....|--- .... ....
....|..|C-4 AF.7 ....|C#6 UF.7 ....|F-4 2F67 ....
....|..|F#2 2F.7 ....|--- .... ....|F#4 2FA7 ....
....|..|--- .... ....|R-- .... ....|F#4 2F27 ....
....|..|R-- .... ....|R-- .... ....|--- .... ....
....|..|C-4 AF.7 ....|--- .... ....|--- .... ....
....|..|--- .... ....|--- .... ....|F#4 2F27 ....
....|..|--- .... ....|--- .... ....|--- .... ....
....|..|R-- .... ....|--- .... ....|--- .... ....
....|..|C-4 AF.F ....|--- .... ....|--- .... ....
....|..|--- .... ....|--- .... ....|--- .... ....
....|..|R-- .... ....|--- .... ....|--- .... ....
....|..|R-- .... ....|C#6 UF.F ....|--- .... ....
....|..|B-8 JF.F ....|--- .... ....|--- .... ....
 F#4|..|F#2 2A.F ....|--- .... ....|--- .... ....
....|..|--- .... ....|R-- .... ....|--- .... ....
....|..|R-- .... ....|--- .... ....|--- .... ....
....|..|--- .... ....|--- .... ....|--- .... ....
....|..|--- .... ....|--- .... ....|--- .... ....
....|..|--- .... ....|--- .... ....|--- .... ....
....|..|--- .... ....|--- .... ....|--- .... ....
....|..|C-4 AF.F ....|--- .... ....|--- .... ....
....|..|--- .... ....|--- .... ....|--- .... ....
....|..|R-- .... ....|--- .... ....|--- .... ....
....|..|R-- .... ....|C#6 UF.7 ....|--- .... ....
....|..|C-4 AF.F ....|--- .... ....|E-4 2F.F ....
 E-4|..|E-2 2A.F ....|--- .... ....|E-4 2F.F ....
....|..|--- .... ....|R-- .... ....|--- .... ....
....|..|R-- .... ....|--- .... ....|--- .... ....
....|..|C-4 AF.F ....|--- .... ....|--- .... ....
....|..|--- .... ....|--- .... ....|--- .... ....
....|..|--- .... ....|--- .... ....|--- .... ....
....|..|R-- .... ....|--- .... ....|--- .... ....
....|..|C-4 AF.7 ....|--- .... ....|--- .... ....
....|..|--- .... ....|--- .... ....|--- .... ....
....|..|R-- .... ....|--- .... ....|--- .... ....
....|..|R-- .... ....|C#6 UF.7 ....|--- .... ....
....|..|C-4 CF.F ....|--- .... ....|E-4 2F.A ....
....|..|F#2 2F.7 ....|--- .... ....|E-4 2F.A ....
....|..|--- .... ....|R-- .... ....|--- .... ....
....|..|R-- .... ....|B-5 UF.F ....|--- .... ....
....|..|C-4 AF.A ....|--- .... ....|--- .... ....
....|..|--- .... ....|R-- .... ....|--- .... ....
....|..|--- .... ....|--- .... ....|--- .... ....
....|..|R-- .... ....|A-5 UF.F ....|--- .... ....
....|..|C-4 AF.7 ....|--- .... ....|--- .... ....
....|..|--- .... ....|R-- .... ....|--- .... ....
....|..|--- .... ....|--- .... ....|--- .... ....
....|..|R-- .... ....|--- .... ....|--- .... ....

[Pattern52]
....|..|--- .... ....|--- .... ....|--- .... ....
....|..|--- .... ....|R-- .... ....|--- .... ....
....|..|--- .... ....|--- .... ....|--- .... ....
....|..|--- .... ....|--- .... ....|--- .... ....
....|..|C-4 AF.F ....|--- .... ....|--- .... ....
....|..|--- .... ....|--- .... ....|--- .... ....
....|..|--- .... ....|--- .... ....|B-3 2F.F ....
....|..|R-- .... ....|F-5 UF.F ....|G#2 2F.F ....
....|..|C-4 AF.F ....|--- .... ....|C#4 2F.F ....
 C#4|..|C#2 2A.F ....|--- .... ....|F-4 2F2F ....
....|..|--- .... ....|--- .... ....|--- .... ....
....|..|R-- .... ....|--- .... ....|--- .... ....
....|..|C-4 AF.F ....|--- .... ....|--- .... ....
....|..|--- .... ....|R-- .... ....|--- .... ....
....|..|--- .... ....|--- .... ....|--- .... ....
....|..|R-- .... ....|--- .... ....|--- .... ....
....|..|C-4 AF.7 ....|--- .... ....|--- .... ....
....|..|--- .... ....|--- .... ....|--- .... ....
....|..|--- .... ....|--- .... ....|B-3 2F.A ....
....|..|R-- .... ....|F-5 UF.A ....|G#2 2F.A ....
....|..|C-4 CF.F ....|--- .... ....|C#4 2F.A ....
....|..|C#2 2F.A ....|--- .... ....|F-4 2F2A ....
....|..|--- .... ....|--- .... ....|--- .... ....
....|..|R-- .... ....|--- .... ....|--- .... ....
....|..|C-4 AF.A ....|--- .... ....|--- .... ....
....|..|--- .... ....|R-- .... ....|--- .... ....
....|..|--- .... ....|--- .... ....|--- .... ....
....|..|R-- .... ....|--- .... ....|--- .... ....
....|..|C-4 AF.7 ....|--- .... ....|--- .... ....
....|..|--- .... ....|--- .... ....|--- .... ....
....|..|--- .... ....|--- .... ....|B-3 2F.7 ....
....|..|R-- .... ....|F-5 UF.7 ....|G#2 2F.7 ....
....|..|C-4 AF.7 ....|F-5 UF.F ....|C#4 2F.F ....
....|..|C#2 2F.7 ....|F-5 UF.F ....|F-4 2F27 ....
....|..|--- .... ....|D#5 UF.F ....|--- .... ....
....|..|R-- .... ....|F-5 UF.F ....|--- .... ....
....|..|C-4 AF.F ....|--- .... ....|--- .... ....
....|..|--- .... ....|R-- .... ....|--- .... ....
....|..|--- .... ....|--- .... ....|--- .... ....
....|..|R-- .... ....|F-5 UF.F ....|--- .... ....
....|..|C-4 AF.F ....|--- .... ....|--- .... ....
....|..|--- .... ....|D#5 UF.F ....|--- .... ....
....|..|C-4 AF.F ....|--- .... ....|--- .... ....
....|..|C-4 LF.F ....|F-5 UF.F ....|--- .... ....
....|..|C-4 LF.F ....|F-5 UF.F ....|C#4 2F.A ....
....|..|--- .... ....|F-5 UF.A ....|--- .... ....
....|..|--- .... ....|D#5 UF.A ....|--- .... ....
....|..|R-- .... ....|F-5 UF.F ....|--- .... ....
....|..|C-4 LF.F ....|--- .... ....|--- .... ....
....|..|D#4 9F.F ....|D#5 UF.F ....|--- .... ....
....|..|R-- .... ....|--- .... ....|--- .... ....
....|..|C-4 9F.F ....|F-5 UF.F ....|--- .... ....
....|..|C-4 AF.A ....|R-- .... ....|--- .... ....
....|..|--- .... ....|D#5 UF.A ....|--- .... ....
....|..|C-4 AF.A ....|--- .... ....|F-4 2F2F ....
....|..|C-4 LF.A ....|F-5 UF.F ....|--- .... ....
....|..|C-4 AF.F ....|F-5 UF.7 ....|C#4 2F.F ....
 F#3|..|F#1 2A.F ....|F-5 UF.7 ....|C#4 2F.F ....
....|..|--- .... ....|D#5 UF.7 ....|F#3 2F2F ....
....|..|C-4 LF.F ....|F-5 UF.7 ....|C#4 2F.F ....
....|..|C-4 AF.7 ....|F#5 UF.F ....|--- .... ....
....|..|D#4 9F.A ....|D#5 UF.A ....|--- .... ....
....|..|R-- .... ....|R-- .... ....|--- .... ....
....|..|C-4 9F.A ....|F-5 UF.7 ....|--- .... ....

[Pattern53]
....|..|C-4 AF.7 ....|R-- .... ....|--- .... ....
....|..|--- .... ....|D#5 UF.7 ....|--- .... ....
....|..|C-4 AF.7 ....|--- .... ....|F-4 2F2A ....
....|..|C-4 LF.7 ....|F-5 UF.7 ....|--- .... ....
....|..|C-4 LF.F ....|F#5 UF.F ....|C#4 2F.A ....
....|..|F#1 2F.A ....|R-- .... ....|C#4 2F.A ....
....|..|--- .... ....|--- .... ....|F#3 2F2A ....
....|..|C-4 LF.A ....|F-5 UF.7 ....|C#4 2F.A ....
....|..|C-4 LF.7 ....|F#5 UF.A ....|--- .... ....
....|..|D#4 9F.7 ....|D#5 UF.7 ....|--- .... ....
....|..|R-- .... ....|R-- .... ....|--- .... ....
....|..|C-4 9F.7 ....|F-5 UF.7 ....|--- .... ....
....|..|C-4 AF.F ....|R-- .... ....|--- .... ....
....|..|--- .... ....|--- .... ....|--- .... ....
....|..|--- .... ....|--- .... ....|F-4 2F27 ....
....|..|C-4 LF.F ....|F-5 UF.7 ....|--- .... ....
....|..|C-4 AF.F ....|F#5 UF.A ....|C#4 2F.7 ....
....|..|F#1 2F.7 ....|--- .... ....|C#4 2F.7 ....
....|..|--- .... ....|--- .... ....|F#3 2F27 ....
....|..|C-4 LF.7 ....|R-- .... ....|C#4 2F.7 ....
....|..|C-4 LF.F ....|F#5 UF.7 ....|--- .... ....
....|..|--- .... ....|--- .... ....|--- .... ....
....|..|--- .... ....|R-- .... ....|--- .... ....
....|..|R-- .... ....|--- .... ....|--- .... ....
....|..|C-4 AF.A ....|--- .... ....|--- .... ....
....|..|--- .... ....|--- .... ....|--- .... ....
....|..|--- .... ....|--- .... ....|--- .... ....
....|..|C-4 LF.A ....|--- .... ....|--- .... ....
 C#4|..|C#2 2A.F ....|F#5 UF.7 ....|--- .... ....
....|..|--- .... ....|--- .... ....|--- .... ....
....|..|--- .... ....|--- .... ....|--- .... ....
....|..|R-- .... ....|R-- .... ....|--- .... ....
 F#4|..|F#2 2A.F ....|--- .... ....|--- .... ....
....|..|R-- .... ....|--- .... ....|--- .... ....
....|..|--- .... ....|--- .... ....|--- .... ....
....|..|--- .... ....|--- .... ....|--- .... ....
....|..|C-4 LF.F ....|F#5 UF.F ....|--- .... ....
 C#4|..|C#2 2A.F ....|--- .... ....|--- .... ....
....|..|C-4 LF.F ....|R-- .... ....|--- .... ....
....|..|C-4 LF.7 ....|--- .... ....|--- .... ....
....|..|C-4 AF.F ....|--- .... ....|F#3 2F2F ....
 E-4|..|E-2 2A.F ....|--- .... ....|C#4 2F.F ....
....|..|--- .... ....|--- .... ....|--- .... ....
....|..|C-4 LF.F ....|--- .... ....|--- .... ....
....|..|C-4 LF.7 ....|--- .... ....|--- .... ....
....|..|R-- .... ....|--- .... ....|--- .... ....
....|..|--- .... ....|--- .... ....|--- .... ....
....|..|--- .... ....|--- .... ....|--- .... ....
....|..|C-4 LF.A ....|F#5 UF.A ....|--- .... ....
....|..|C#2 2F.A ....|--- .... ....|--- .... ....
....|..|C-4 LF.A ....|R-- .... ....|--- .... ....
....|..|R-- .... ....|--- .... ....|--- .... ....
....|..|C#2 2F.7 ....|F#5 UF.F ....|F#3 2F2A ....
....|..|C-4 LF.F ....|--- .... ....|C#4 2F.A ....
....|..|--- .... ....|--- .... ....|--- .... ....
....|..|C-4 LF.A ....|--- .... ....|--- .... ....
....|..|F#2 2F.7 ....|R-- .... ....|--- .... ....
....|..|R-- .... ....|--- .... ....|--- .... ....
....|..|--- .... ....|--- .... ....|--- .... ....
....|..|--- .... ....|--- .... ....|--- .... ....
....|..|C-4 AF.F ....|F#5 UF.7 ....|--- .... ....
....|..|C#2 2F.7 ....|--- .... ....|--- .... ....
....|..|C-4 LF.7 ....|R-- .... ....|--- .... ....
....|..|C-4 LF.F ....|--- .... ....|--- .... ....

[Pattern54]
....|..|C-4 AF.F ....|F#5 UF.A ....|F#3 2F27 ....
....|..|E-2 2F.7 ....|--- .... ....|C#4 2F.7 ....
....|..|--- .... ....|--- .... ....|--- .... ....
....|..|C-4 LF.7 ....|--- .... ....|--- .... ....
....|..|C-4 LF.F ....|R-- .... ....|--- .... ....
....|..|--- .... ....|--- .... ....|--- .... ....
....|..|--- .... ....|--- .... ....|--- .... ....
....|..|--- .... ....|--- .... ....|--- .... ....
....|..|C-4 AF.A ....|--- .... ....|--- .... ....
....|..|--- .... ....|--- .... ....|--- .... ....
....|..|R-- .... ....|--- .... ....|--- .... ....
....|..|C-4 LF.A ....|--- .... ....|--- .... ....
....|..|C-4 AF.A ....|F#5 UF.7 ....|--- .... ....
....|..|C-4 LF.7 ....|--- .... ....|--- .... ....
....|..|R-- .... ....|--- .... ....|--- .... ....
....|..|R-- .... ....|--- .... ....|--- .... ....
 E-4|..|E-2 2A.F ....|F#5 UF.F ....|--- .... ....
....|..|R-- .... ....|--- .... ....|--- .... ....
....|..|--- .... ....|R-- .... ....|--- .... ....
....|..|--- .... ....|--- .... ....|--- .... ....
....|..|C-4 LF.F ....|--- .... ....|--- .... ....
....|..|--- .... ....|--- .... ....|--- .... ....
....|..|--- .... ....|--- .... ....|--- .... ....
....|..|C-4 LF.7 ....|--- .... ....|--- .... ....
....|..|C-4 AF.F ....|F#5 UF.F ....|C#4 2F7F ....
 D-4|..|D-2 2A.F ....|--- .... ....|--- .... ....
....|..|R-- .... ....|--- .... ....|--- .... ....
....|..|C-4 LF.F ....|R-- .... ....|D-4 2F.F ....
....|..|C-4 LF.7 ....|F#5 UF.A ....|--- .... ....
....|..|R-- .... ....|--- .... ....|--- .... ....
....|..|--- .... ....|R-- .... ....|--- .... ....
....|..|R-- .... ....|--- .... ....|--- .... ....
....|..|C-4 LF.A ....|F#5 UF.F ....|--- .... ....
....|..|--- .... ....|--- .... ....|--- .... ....
....|..|--- .... ....|--- .... ....|--- .... ....
....|..|R-- .... ....|--- .... ....|--- .... ....
....|..|C-4 LF.F ....|F#5 UF.A ....|C#4 2F7A ....
....|..|D-2 2F.A ....|--- .... ....|--- .... ....
....|..|R-- .... ....|--- .... ....|--- .... ....
....|..|C-4 LF.A ....|R-- .... ....|D-4 2F.A ....
....|..|E-2 2F.7 ....|F#5 UF.7 ....|--- .... ....
....|..|R-- .... ....|--- .... ....|--- .... ....
....|..|--- .... ....|R-- .... ....|--- .... ....
....|..|R-- .... ....|--- .... ....|--- .... ....
....|..|C-4 AF.F ....|F#5 UF.A ....|--- .... ....
....|..|--- .... ....|--- .... ....|--- .... ....
....|..|--- .... ....|--- .... ....|--- .... ....
....|..|C-4 LF.F ....|--- .... ....|--- .... ....
....|..|C-4 AF.F ....|F#5 UF.F ....|C#4 2F77 ....
....|..|D-2 2F.7 ....|--- .... ....|--- .... ....
....|..|--- .... ....|--- .... ....|--- .... ....
....|..|C-4 LF.7 ....|R-- .... ....|D-4 2F.7 ....
....|..|C-4 LF.F ....|--- .... ....|--- .... ....
....|..|--- .... ....|--- .... ....|--- .... ....
....|..|--- .... ....|--- .... ....|--- .... ....
....|..|R-- .... ....|--- .... ....|--- .... ....
....|..|C-4 AF.A ....|F#5 UF.7 ....|--- .... ....
....|..|--- .... ....|--- .... ....|--- .... ....
....|..|--- .... ....|--- .... ....|--- .... ....
....|..|C-4 LF.A ....|--- .... ....|--- .... ....
....|..|C-4 LF.7 ....|F#5 UF.A ....|--- .... ....
....|..|--- .... ....|--- .... ....|--- .... ....
....|..|--- .... ....|--- .... ....|--- .... ....
....|..|R-- .... ....|R-- .... ....|--- .... ....

[Pattern55]
....|..|C-4 LF.A ....|--- .... ....|--- .... ....
....|..|R-- .... ....|--- .... ....|--- .... ....
....|..|--- .... ....|--- .... ....|--- .... ....
....|..|--- .... ....|--- .... ....|--- .... ....
....|..|C-4 LF.F ....|--- .... ....|--- .... ....
....|..|R-- .... ....|--- .... ....|--- .... ....
....|..|C-4 LF.F ....|--- .... ....|--- .... ....
....|..|C-4 LF.7 ....|--- .... ....|--- .... ....
....|..|C-4 AF.F ....|F#5 UF.7 ....|A-3 2F.F ....
 C#4|..|C#2 2A.F ....|--- .... ....|D-4 2F.F ....
....|..|--- .... ....|--- .... ....|--- .... ....
....|..|C-4 LF.F ....|R-- .... ....|--- .... ....
....|..|C-4 LF.7 ....|--- .... ....|--- .... ....
....|..|R-- .... ....|--- .... ....|--- .... ....
....|..|--- .... ....|--- .... ....|--- .... ....
....|..|--- .... ....|--- .... ....|--- .... ....
....|..|C-4 LF.A ....|--- .... ....|--- .... ....
....|..|R-- .... ....|--- .... ....|--- .... ....
....|..|C-4 LF.A ....|--- .... ....|--- .... ....
....|..|R-- .... ....|--- .... ....|--- .... ....
....|..|C-4 LF.F ....|F#5 UF.F ....|A-3 2F.A ....
....|..|C#2 2F.A ....|--- .... ....|D-4 2F.A ....
....|..|--- .... ....|--- .... ....|--- .... ....
....|..|C-4 LF.A ....|R-- .... ....|--- .... ....
....|..|--- .... ....|--- .... ....|--- .... ....
....|..|R-- .... ....|--- .... ....|--- .... ....
....|..|--- .... ....|--- .... ....|--- .... ....
....|..|--- .... ....|--- .... ....|--- .... ....
....|..|C-4 AF.F ....|--- .... ....|--- .... ....
....|..|R-- .... ....|--- .... ....|--- .... ....
....|..|C-4 LF.7 ....|--- .... ....|--- .... ....
....|..|C-4 LF.F ....|--- .... ....|--- .... ....
....|..|C-4 AF.F ....|F#5 UF.F ....|A-3 2F.7 ....
....|..|C#2 2F.7 ....|--- .... ....|D-4 2F.7 ....
....|..|C-4 AF.F ....|--- .... ....|--- .... ....
....|..|C-4 LF.7 ....|R-- .... ....|--- .... ....
....|..|C-4 LF.F ....|R-- .... ....|--- .... ....
....|..|--- .... ....|--- .... ....|--- .... ....
....|..|--- .... ....|--- .... ....|--- .... ....
....|..|--- .... ....|--- .... ....|--- .... ....
....|..|C-4 AF.A ....|--- .... ....|--- .... ....
....|..|--- .... ....|--- .... ....|--- .... ....
....|..|R-- .... ....|--- .... ....|--- .... ....
....|..|C-4 LF.A ....|--- .... ....|--- .... ....
....|..|C-4 LF.7 ....|F#5 UF.7 ....|--- .... ....
....|..|--- .... ....|--- .... ....|--- .... ....
....|..|C-4 AF.A ....|--- .... ....|--- .... ....
....|..|R-- .... ....|R-- .... ....|--- .... ....
 D-4|..|D-2 2A.F ....|R-- .... ....|--- .... ....
....|..|R-- .... ....|--- .... ....|--- .... ....
 D-4|..|D-2 2A.F ....|--- .... ....|--- .... ....
....|..|--- .... ....|--- .... ....|--- .... ....
....|..|C-4 LF.F ....|--- .... ....|--- .... ....
 C#4|..|C#2 2A.F ....|--- .... ....|--- .... ....
....|..|R-- .... ....|--- .... ....|--- .... ....
....|..|C-4 LF.7 ....|--- .... ....|--- .... ....
....|..|C-4 AF.F ....|F#5 UF.7 ....|A-3 2F3F ....
 B-3|..|B-1 2A.F ....|--- .... ....|--- .... ....
....|..|C-4 AF.7 ....|--- .... ....|A-3 2F3F ....
....|..|R-- .... ....|--- .... ....|--- .... ....
....|..|C-4 LF.7 ....|F#5 UF.F ....|--- .... ....
....|..|C-4 AF.F ....|--- .... ....|--- .... ....
....|..|D-2 2F.A ....|--- .... ....|--- .... ....
....|..|--- .... ....|R-- .... ....|--- .... ....

[Pattern56]
....|..|C-4 LF.F ....|--- .... ....|--- .... ....
....|..|C#2 2F.A ....|--- .... ....|--- .... ....
....|..|R-- .... ....|--- .... ....|--- .... ....
....|..|--- .... ....|--- .... ....|--- .... ....
....|..|C-4 LF.F ....|F#5 UF.F ....|A-3 2F3A ....
....|..|B-1 2F.A ....|--- .... ....|--- .... ....
....|..|--- .... ....|--- .... ....|A-3 2F3A ....
....|..|--- .... ....|--- .... ....|--- .... ....
....|..|D-2 2F.7 ....|F#5 UF.A ....|--- .... ....
....|..|C-4 AF.A ....|--- .... ....|--- .... ....
....|..|D-2 2F.7 ....|--- .... ....|--- .... ....
....|..|--- .... ....|R-- .... ....|--- .... ....
....|..|C-4 AF.F ....|--- .... ....|--- .... ....
....|..|C#2 2F.7 ....|--- .... ....|--- .... ....
....|..|C-4 AF.F ....|--- .... ....|--- .... ....
....|..|--- .... ....|--- .... ....|--- .... ....
....|..|C-4 AF.F ....|F#5 UF.A ....|A-3 2F37 ....
....|..|B-1 2F.7 ....|--- .... ....|--- .... ....
....|..|C-4 LF.F ....|--- .... ....|A-3 2F37 ....
....|..|--- .... ....|--- .... ....|--- .... ....
....|..|R-- .... ....|F#5 UF.7 ....|--- .... ....
....|..|C-4 AF.7 ....|--- .... ....|--- .... ....
....|..|R-- .... ....|--- .... ....|--- .... ....
....|..|--- .... ....|R-- .... ....|--- .... ....
....|..|C-4 LF.F ....|--- .... ....|--- .... ....
....|..|R-- .... ....|--- .... ....|--- .... ....
....|..|C-4 AF.A ....|--- .... ....|--- .... ....
....|..|--- .... ....|--- .... ....|--- .... ....
....|..|C-4 LF.F ....|F#5 UF.7 ....|--- .... ....
....|..|--- .... ....|--- .... ....|--- .... ....
....|..|C-4 LF.A ....|--- .... ....|--- .... ....
....|..|--- .... ....|--- .... ....|--- .... ....
....|..|R-- .... ....|F#5 UF.F ....|--- .... ....
....|..|R-- .... ....|--- .... ....|--- .... ....
....|..|R-- .... ....|--- .... ....|--- .... ....
....|..|C-4 LF.F ....|R-- .... ....|--- .... ....
 B-3|..|B-1 2A.F ....|--- .... ....|--- .... ....
....|..|R-- .... ....|--- .... ....|--- .... ....
....|..|C-4 AF.7 ....|--- .... ....|--- .... ....
....|..|--- .... ....|--- .... ....|B-3 2F2F ....
....|..|C-4 AF.F ....|--- .... ....|A-3 2F3F ....
 A-3|..|A-1 2A.F ....|--- .... ....|--- .... ....
....|..|C-4 LF.7 ....|--- .... ....|--- .... ....
....|..|--- .... ....|--- .... ....|--- .... ....
....|..|--- .... ....|F#5 UF.A ....|--- .... ....
....|..|C-4 AF.F ....|--- .... ....|--- .... ....
....|..|R-- .... ....|--- .... ....|--- .... ....
....|..|C-4 LF.A ....|R-- .... ....|--- .... ....
....|..|C-4 LF.F ....|--- .... ....|--- .... ....
....|..|R-- .... ....|--- .... ....|--- .... ....
....|..|R-- .... ....|--- .... ....|--- .... ....
....|..|--- .... ....|--- .... ....|B-3 2F2A ....
....|..|C-4 LF.F ....|F#5 UF.F ....|A-3 2F3A ....
....|..|A-1 2F.A ....|--- .... ....|--- .... ....
....|..|--- .... ....|--- .... ....|--- .... ....
....|..|--- .... ....|R-- .... ....|--- .... ....
....|..|--- .... ....|F#5 UF.7 ....|--- .... ....
....|..|C-4 AF.A ....|--- .... ....|--- .... ....
....|..|R-- .... ....|--- .... ....|--- .... ....
....|..|C-4 LF.7 ....|R-- .... ....|--- .... ....
....|..|C-4 AF.F ....|--- .... ....|--- .... ....
....|..|C-4 AF.F ....|--- .... ....|--- .... ....
....|..|R-- .... ....|--- .... ....|--- .... ....
....|..|--- .... ....|--- .... ....|B-3 2F27 ....

[Pattern57]
....|..|C-4 AF.F ....|F#5 UF.A ....|A-3 2F37 ....
....|..|A-1 2F.7 ....|--- .... ....|--- .... ....
....|..|C-4 LF.F ....|--- .... ....|--- .... ....
....|..|--- .... ....|R-- .... ....|--- .... ....
....|..|--- .... ....|--- .... ....|--- .... ....
....|..|C-4 AF.7 ....|--- .... ....|--- .... ....
....|..|R-- .... ....|--- .... ....|--- .... ....
....|..|--- .... ....|--- .... ....|--- .... ....
....|..|C-4 LF.F ....|--- .... ....|--- .... ....
....|..|C-4 AF.A ....|--- .... ....|--- .... ....
....|..|R-- .... ....|--- .... ....|--- .... ....
....|..|--- .... ....|--- .... ....|--- .... ....
....|..|C-4 LF.F ....|F#5 UF.7 ....|--- .... ....
....|..|--- .... ....|--- .... ....|--- .... ....
....|..|C-4 LF.A ....|--- .... ....|--- .... ....
....|..|--- .... ....|R-- .... ....|--- .... ....
....|..|--- .... ....|F#5 UF.F ....|--- .... ....
....|..|R-- .... ....|--- .... ....|--- .... ....
....|..|R-- .... ....|R-- .... ....|--- .... ....
....|..|--- .... ....|--- .... ....|B-3 2F2F ....
....|..|C-4 AF.7 ....|--- .... ....|--- .... ....
....|..|C-4 LF.F ....|--- .... ....|--- .... ....
....|..|R-- .... ....|--- .... ....|--- .... ....
....|..|R-- .... ....|--- .... ....|--- .... ....
 A-3|..|A-1 2A.F ....|F#5 UF.F ....|G#3 2FBF ....
....|..|C-4 LF.F ....|--- .... ....|G#3 2FBF ....
 G#3|..|G#1 2A.F ....|R-- .... ....|--- .... ....
....|..|--- .... ....|--- .... ....|--- .... ....
....|..|--- .... ....|F#5 UF.A ....|--- .... ....
....|..|R-- .... ....|--- .... ....|--- .... ....
....|..|R-- .... ....|R-- .... ....|--- .... ....
....|..|--- .... ....|--- .... ....|B-3 2F2A ....
....|..|C-4 LF.7 ....|F#5 UF.F ....|--- .... ....
....|..|C-4 LF.A ....|--- .... ....|--- .... ....
....|..|R-- .... ....|--- .... ....|--- .... ....
....|..|R-- .... ....|R-- .... ....|--- .... ....
....|..|C-4 LF.7 ....|F#5 UF.A ....|G#3 2FBA ....
....|..|C-4 LF.A ....|--- .... ....|G#3 2FBA ....
....|..|G#1 2F.A ....|R-- .... ....|--- .... ....
....|..|--- .... ....|--- .... ....|--- .... ....
....|..|--- .... ....|F#5 UF.7 ....|--- .... ....
....|..|--- .... ....|--- .... ....|--- .... ....
....|..|R-- .... ....|R-- .... ....|--- .... ....
....|..|--- .... ....|--- .... ....|B-3 2F27 ....
....|..|R-- .... ....|F#5 UF.A ....|--- .... ....
....|..|C-4 LF.7 ....|--- .... ....|--- .... ....
....|..|--- .... ....|--- .... ....|--- .... ....
....|..|R-- .... ....|R-- .... ....|--- .... ....
....|..|A-1 2F.7 ....|F#5 UF.F ....|G#3 2FB7 ....
....|..|C-4 LF.7 ....|--- .... ....|G#3 2FB7 ....
....|..|G#1 2F.7 ....|R-- .... ....|--- .... ....
....|..|--- .... ....|R-- .... ....|G#3 2F2F ....
....|..|--- .... ....|--- .... ....|--- .... ....
....|..|--- .... ....|--- .... ....|--- .... ....
....|..|--- .... ....|--- .... ....|--- .... ....
....|..|--- .... ....|--- .... ....|--- .... ....
....|..|R-- .... ....|F#5 UF.7 ....|G#3 2FBF ....
....|..|--- .... ....|--- .... ....|--- .... ....
....|..|--- .... ....|--- .... ....|--- .... ....
....|..|--- .... ....|R-- .... ....|--- .... ....
....|..|--- .... ....|F#5 UF.A ....|--- .... ....
....|..|--- .... ....|--- .... ....|--- .... ....
....|..|--- .... ....|--- .... ....|--- .... ....
....|..|--- .... ....|R-- .... ....|G#3 2F2A ....

[Pattern58]
....|..|--- .... ....|--- .... ....|--- .... ....
....|..|--- .... ....|--- .... ....|--- .... ....
....|..|--- .... ....|--- .... ....|--- .... ....
....|..|--- .... ....|--- .... ....|B-3 2F2F ....
....|..|R-- .... ....|--- .... ....|G#3 2FBA ....
....|..|--- .... ....|--- .... ....|--- .... ....
....|..|--- .... ....|--- .... ....|B-3 2F2F ....
....|..|--- .... ....|--- .... ....|--- .... ....
....|..|--- .... ....|F#5 UF.7 ....|B-3 2F2F ....
....|..|--- .... ....|--- .... ....|--- .... ....
 G#3|..|G#1 2A.F ....|--- .... ....|--- .... ....
....|..|--- .... ....|R-- .... ....|G#3 2F27 ....
 G-3|..|G-1 2A.F ....|--- .... ....|--- .... ....
....|..|--- .... ....|--- .... ....|--- .... ....
....|..|--- .... ....|--- .... ....|--- .... ....
....|..|--- .... ....|--- .... ....|B-3 2F2A ....
....|..|--- .... ....|--- .... ....|G#3 2FB7 ....
....|..|--- .... ....|--- .... ....|--- .... ....
....|..|--- .... ....|--- .... ....|B-3 2F2A ....
....|..|--- .... ....|--- .... ....|--- .... ....
....|..|--- .... ....|F#5 UF.F ....|B-3 2F2A ....
....|..|--- .... ....|--- .... ....|--- .... ....
....|..|G#1 2F.A ....|--- .... ....|--- .... ....
....|..|--- .... ....|--- .... ....|--- .... ....
....|..|G-1 2F.A ....|R-- .... ....|--- .... ....
....|..|--- .... ....|--- .... ....|--- .... ....
....|..|--- .... ....|--- .... ....|--- .... ....
....|..|--- .... ....|--- .... ....|B-3 2F27 ....
....|..|--- .... ....|--- .... ....|--- .... ....
....|..|--- .... ....|--- .... ....|--- .... ....
....|..|--- .... ....|--- .... ....|B-3 2F27 ....
....|..|--- .... ....|--- .... ....|--- .... ....
....|..|--- .... ....|F#5 UF.A ....|B-3 2F27 ....
....|..|--- .... ....|F#5 UF.F ....|--- .... ....
....|..|G#1 2F.7 ....|--- .... ....|--- .... ....
....|..|--- .... ....|--- .... ....|--- .... ....
....|..|G-1 2F.7 ....|R-- .... ....|--- .... ....
....|..|--- .... ....|--- .... ....|--- .... ....
....|..|--- .... ....|R-- .... ....|--- .... ....
....|..|--- .... ....|--- .... ....|--- .... ....
....|..|--- .... ....|--- .... ....|--- .... ....
....|..|--- .... ....|--- .... ....|--- .... ....
....|..|--- .... ....|--- .... ....|--- .... ....
....|..|--- .... ....|--- .... ....|--- .... ....
....|..|--- .... ....|F#5 UF.7 ....|--- .... ....
....|..|--- .... ....|F#5 UF.A ....|--- .... ....
....|..|--- .... ....|--- .... ....|--- .... ....
....|..|--- .... ....|--- .... ....|--- .... ....
....|..|--- .... ....|R-- .... ....|--- .... ....
....|..|--- .... ....|--- .... ....|--- .... ....
....|..|--- .... ....|R-- .... ....|--- .... ....
....|..|--- .... ....|--- .... ....|--- .... ....
....|..|--- .... ....|--- .... ....|--- .... ....
....|..|--- .... ....|--- .... ....|D-4 2F.F ....
....|..|--- .... ....|--- .... ....|--- .... ....
....|..|--- .... ....|--- .... ....|--- .... ....
....|..|--- .... ....|--- .... ....|--- .... ....
....|..|--- .... ....|F#5 UF.7 ....|--- .... ....
....|..|--- .... ....|--- .... ....|G-4 2F.F ....
....|..|--- .... ....|--- .... ....|--- .... ....
....|..|R-- .... ....|--- .... ....|R-- .... ....
....|..|--- .... ....|--- .... ....|--- .... ....
....|..|--- .... ....|R-- .... ....|--- .... ....
....|..|--- .... ....|--- .... ....|--- .... ....

[Pattern59]
....|..|--- .... ....|F#5 UF.F ....|F#3 2F2F ....
....|..|--- .... ....|--- .... ....|D-4 2F.A ....
 F#3|..|F#1 2A.F ....|--- .... ....|--- .... ....
....|..|--- .... ....|--- .... ....|--- .... ....
....|..|--- .... ....|--- .... ....|--- .... ....
....|..|--- .... ....|--- .... ....|--- .... ....
....|..|--- .... ....|--- .... ....|G-4 2F.A ....
....|..|--- .... ....|--- .... ....|--- .... ....
....|..|R-- .... ....|--- .... ....|R-- .... ....
....|..|--- .... ....|--- .... ....|--- .... ....
....|..|--- .... ....|--- .... ....|--- .... ....
....|..|--- .... ....|--- .... ....|--- .... ....
....|..|--- .... ....|F#5 UF.A ....|F#3 2F2A ....
....|..|--- .... ....|--- .... ....|D-4 2F.7 ....
....|..|F#1 2F.A ....|--- .... ....|--- .... ....
....|..|--- .... ....|--- .... ....|--- .... ....
....|..|--- .... ....|--- .... ....|--- .... ....
....|..|--- .... ....|--- .... ....|--- .... ....
....|..|--- .... ....|F#5 UF.F ....|G-4 2F.7 ....
....|..|--- .... ....|--- .... ....|--- .... ....
....|..|R-- .... ....|--- .... ....|R-- .... ....
....|..|--- .... ....|--- .... ....|--- .... ....
....|..|--- .... ....|--- .... ....|--- .... ....
....|..|--- .... ....|--- .... ....|--- .... ....
....|..|--- .... ....|F#5 UF.7 ....|F#3 2F27 ....
....|..|--- .... ....|--- .... ....|--- .... ....
....|..|F#1 2F.7 ....|--- .... ....|--- .... ....
....|..|--- .... ....|--- .... ....|--- .... ....
....|..|--- .... ....|--- .... ....|--- .... ....
....|..|--- .... ....|--- .... ....|--- .... ....
....|..|--- .... ....|F#5 UF.A ....|--- .... ....
....|..|--- .... ....|--- .... ....|--- .... ....
....|..|--- .... ....|F#5 UF.F ....|--- .... ....
....|..|--- .... ....|--- .... ....|--- .... ....
....|..|--- .... ....|--- .... ....|--- .... ....
....|..|--- .... ....|--- .... ....|--- .... ....
....|..|--- .... ....|--- .... ....|--- .... ....
....|..|--- .... ....|--- .... ....|--- .... ....
....|..|--- .... ....|--- .... ....|--- .... ....
....|..|--- .... ....|--- .... ....|--- .... ....
....|..|--- .... ....|--- .... ....|C#4 2F.F ....
....|..|--- .... ....|--- .... ....|--- .... ....
....|..|--- .... ....|F#5 UF.7 ....|--- .... ....
....|..|--- .... ....|--- .... ....|--- .... ....
....|..|--- .... ....|F#5 UF.A ....|--- .... ....
....|..|--- .... ....|--- .... ....|--- .... ....
....|..|--- .... ....|--- .... ....|--- .... ....
....|..|--- .... ....|--- .... ....|--- .... ....
....|..|--- .... ....|--- .... ....|C#4 2F.F ....
....|..|--- .... ....|--- .... ....|--- .... ....
....|..|--- .... ....|--- .... ....|--- .... ....
....|..|--- .... ....|--- .... ....|--- .... ....
....|..|--- .... ....|--- .... ....|C#4 2F.A ....
....|..|--- .... ....|--- .... ....|C#4 2F.F ....
....|..|--- .... ....|--- .... ....|--- .... ....
....|..|--- .... ....|--- .... ....|--- .... ....
....|..|--- .... ....|F#5 UF.7 ....|--- .... ....
....|..|--- .... ....|--- .... ....|--- .... ....
....|..|--- .... ....|--- .... ....|--- .... ....
....|..|--- .... ....|--- .... ....|--- .... ....
....|..|--- .... ....|--- .... ....|C#4 2F.A ....
....|..|--- .... ....|--- .... ....|--- .... ....
....|..|--- .... ....|--- .... ....|--- .... ....
....|..|--- .... ....|--- .... ....|--- .... ....

[Pattern60]
....|..|--- .... ....|--- .... ....|C#4 2F.F ....
....|..|--- .... ....|--- .... ....|C#4 2F.A ....
....|..|--- .... ....|--- .... ....|--- .... ....
....|..|--- .... ....|--- .... ....|--- .... ....
....|..|--- .... ....|--- .... ....|--- .... ....
....|..|--- .... ....|--- .... ....|--- .... ....
....|..|--- .... ....|--- .... ....|--- .... ....
....|..|--- .... ....|--- .... ....|--- .... ....
....|..|--- .... ....|--- .... ....|C#4 2F.7 ....
....|..|--- .... ....|--- .... ....|--- .... ....
....|..|--- .... ....|--- .... ....|--- .... ....
....|..|--- .... ....|--- .... ....|--- .... ....
....|..|--- .... ....|--- .... ....|C#4 2F.A ....
....|..|--- .... ....|--- .... ....|C#4 2F.7 ....
....|..|--- .... ....|--- .... ....|--- .... ....
....|..|--- .... ....|--- .... ....|--- .... ....
....|..|--- .... ....|--- .... ....|C#4 2F.F ....
....|..|--- .... ....|--- .... ....|--- .... ....
....|..|--- .... ....|--- .... ....|--- .... ....
....|..|--- .... ....|--- .... ....|--- .... ....
....|..|--- .... ....|--- .... ....|--- .... ....
....|..|--- .... ....|--- .... ....|--- .... ....
....|..|--- .... ....|--- .... ....|--- .... ....
....|..|--- .... ....|--- .... ....|--- .... ....
....|..|--- .... ....|--- .... ....|C#4 2F.7 ....
....|..|--- .... ....|--- .... ....|--- .... ....
....|..|--- .... ....|--- .... ....|--- .... ....
....|..|--- .... ....|--- .... ....|--- .... ....
....|..|--- .... ....|--- .... ....|C#4 2F.A ....
....|..|--- .... ....|--- .... ....|--- .... ....
....|..|--- .... ....|--- .... ....|--- .... ....
....|..|--- .... ....|--- .... ....|--- .... ....
....|..|--- .... ....|--- .... ....|--- .... ....
....|..|--- .... ....|--- .... ....|--- .... ....
....|..|--- .... ....|--- .... ....|--- .... ....
....|..|--- .... ....|--- .... ....|--- .... ....
....|..|--- .... ....|--- .... ....|--- .... ....
....|..|--- .... ....|--- .... ....|--- .... ....
....|..|--- .... ....|--- .... ....|--- .... ....
....|..|--- .... ....|--- .... ....|--- .... ....
....|..|--- .... ....|--- .... ....|C#4 2F.7 ....
....|..|--- .... ....|--- .... ....|--- .... ....
....|..|R-- .... ....|--- .... ....|--- .... ....
....|..|--- .... ....|R-- .... ....|--- .... ....
....|..|--- .... ....|--- .... ....|--- .... ....
....|..|--- .... ....|--- .... ....|--- .... ....
....|..|--- .... ....|--- .... ....|--- .... ....
....|..|--- .... ....|--- .... ....|--- .... ....
....|..|--- .... ....|--- .... ....|--- .... ....
....|..|--- .... ....|--- .... ....|--- .... ....
....|..|--- .... ....|--- .... ....|C#4 2F.F ....
....|..|--- .... ....|--- .... ....|--- .... ....
....|..|--- .... ....|--- .... ....|F#4 2F.F ....
....|..|--- .... ....|--- .... ....|F#4 2F.F ....
....|..|R-- .... ....|--- .... ....|--- .... ....
....|..|--- .... ....|R-- .... ....|C#6 2F.F ....
....|..|--- .... ....|--- .... ....|C#6 2F.F ....
....|..|--- .... ....|--- .... ....|--- .... ....
....|..|--- .... ....|--- .... ....|--- .... ....
....|..|--- .... ....|--- .... ....|--- .... ....
....|..|--- .... ....|--- .... ....|R-- .... ....
....|..|--- .... ....|--- .... ....|--- .... ....
....|..|--- .... ....|--- .... ....|C#4 2F.A ....
....|..|--- .... ....|--- .... ....|--- .... ....

[Pattern61]
....|..|--- .... ....|--- .... ....|F#4 2F.A ....
....|..|--- .... ....|--- .... ....|F#4 2F.A ....
....|..|R-- .... ....|--- .... ....|--- .... ....
....|..|--- .... ....|R-- .... ....|C#6 2F.A ....
....|..|--- .... ....|--- .... ....|C#6 2F.A ....
....|..|--- .... ....|--- .... ....|--- .... ....
....|..|--- .... ....|--- .... ....|--- .... ....
....|..|--- .... ....|--- .... ....|--- .... ....
....|..|--- .... ....|--- .... ....|R-- .... ....
....|..|--- .... ....|--- .... ....|--- .... ....
....|..|--- .... ....|--- .... ....|C#4 2F.7 ....
....|..|--- .... ....|--- .... ....|--- .... ....
....|..|--- .... ....|--- .... ....|F#4 2F.7 ....
....|..|--- .... ....|--- .... ....|F#4 2F.7 ....
....|..|--- .... ....|--- .... ....|--- .... ....
....|..|--- .... ....|--- .... ....|C#6 2F.7 ....
....|..|--- .... ....|--- .... ....|C#6 2F.7 ....
....|..|--- .... ....|--- .... ....|--- .... ....
....|..|--- .... ....|--- .... ....|--- .... ....
....|..|--- .... ....|--- .... ....|--- .... ....

