[Module]
VortexTrackerII=0
Version=3.5
Title=4me-2me+-9m+-3m+-18m+-13m+-6m+,7me-0p+-15me+-16m+-8m+-17m+-15me+-5m+,20m-0p+
Author=oisee ^ 4d 29.05.2010
NoteTable=4
ChipFreq=1750000
Speed=4
PlayOrder=L0,1,2,1,2,1,2,1,8,9,10,11,10,13,14,15,14,17,14,19,20,21,22,23,24,25,26,27,28,29,30,31,32,33,34,35,34,37,38,39,40,41,42,43,44,45,46,47,28,49,50,51,52,53,52,55,45,57


[Ornament1]
L0,5

[Ornament2]
L0,3,6

[Ornament3]
L0,3

[Ornament4]
L0,5,8

[Ornament5]
L0,5,10

[Ornament6]
L0,1

[Ornament7]
L0,2


[Sample1]
TnE +000_ +00_ F_
TnE +000_ +00_ F_
TnE +000_ +00_ F_
TnE +000_ +00_ D_
TnE +000_ +00_ B_
TnE +000_ +00_ B_ L

[Sample2]
TnE +000_ +00_ F_ L

[Sample3]
TnE +001_ +00_ F_
TnE +002_ +00_ F_
TnE +001_ +00_ E_
TnE +002_ +00_ E_
TnE +000_ +00_ E_ L
TnE -001_ +00_ E_
TnE -002_ +00_ E_
TnE -001_ +00_ E_
TnE +000_ +00_ E_
TnE +001_ +00_ E_
TnE +002_ +00_ E_
TnE +001_ +00_ E_

[Sample4]
TnE +002_ +00_ D_
TnE +002_ +00_ D_
TnE +002_ +00_ C_
TnE +002_ +00_ B_
TnE +002_ +00_ A_ L
TnE +002_ +00_ A_
TnE +002_ +00_ A_
TnE +002_ +00_ A_
TnE +002_ +00_ A_
TnE +002_ +00_ A_
TnE +002_ +00_ A_
TnE +002_ +00_ A_

[Sample5]
TnE +000_ +00_ F_
TnE +000_ +00_ F_
tne +000_ +00_ 0_ L

[Sample6]
TnE -001_ +00_ F_ L

[Sample7]
TnE +006_ +00_ F_ L

[Sample8]
tNe +000_ +00_ F_
tNe +000_ +00_ B_
tNe +000_ +00_ 7_
tNe +000_ +00_ 6- L

[Sample9]
TnE +080_ +00_ F_
TnE +100_ +00_ E_
TnE +180_ +00_ E_
TnE +200_ +00_ E_
TnE +240_ +00_ D_
TnE +280_ +00_ D_
TnE +2C0_ +00_ D_
TnE +300_ +00_ C_
TnE +300_ +00_ C_
TnE +340_ +00_ C_
TnE +340_ +00_ C_
TnE +380_ +00_ B_
TnE +380_ +00_ B_
TnE +400_ +00_ B_
TnE +400_ +00_ B_
TnE +480_ +00_ A_
TnE +500_ +00_ 9_
TnE +580_ +00_ 7_
TnE +600_ +00_ 4_
TnE +680_ +00_ 1_
TnE +000_ +00_ 0_ L

[Sample10]
Tne +1C0_ +00_ F_
Tne +280_ +00_ E_
Tne +380_ +00_ C_
Tne +440_ +00_ A_
Tne +480_ +00_ 8_
TnE +000_ +00_ 0_ L

[Sample11]
TNe +200_ -0A_ F_
tNe +000_ +0F_ A_
TNe +200_ -07_ E_
tNe +000_ +0E_ B- L

[Sample12]
TNE +0A0_ +05_ F_
TNE +140_ +02_ D_
TNE +140_ +02_ B_
TNE +100_ +00_ A_ L
TNE +140_ +00_ A_
TNE +200_ +00_ A-

[Sample13]
Tne +200_ +00_ F_
Tne +2C0_ +00_ F_
Tne +380_ +00_ E_
Tne +500_ +00_ C_
Tne +520_ +00_ 9_
tne +000_ +00_ 0_ L

[Sample14]
TNE -100_ +00_ F_
TNE -100_ +00_ D_
TNE -100_ +00_ A_
TNE -100_ +00_ 5_
tne +000_ +00_ 0_ L

[Sample15]
TNE -100_ +00_ 5_
TNE -100_ +00_ 8_
TNE -100_ +00_ B_
TNE -100_ +00_ F_
TNe -100_ +00_ 9- L

[Sample16]
TnE +000_ +00_ C_
TnE +000_ +00_ E_
TnE +000_ +00_ F_
TnE +000_ +00_ F_
TnE +000_ +00_ E_
TnE +000_ +00_ D_
TnE +000_ +00_ C_
TnE +000_ +00_ C_ L
TnE +001_ +00_ C_
TnE +002_ +00_ C_
TnE +003_ +00_ C_
TnE +001_ +00_ C_
TnE +000_ +00_ C_
TnE -001_ +00_ C_
TnE -002_ +00_ C_
TnE -003_ +00_ C_
TnE -001_ +00_ C_
TnE +000_ +00_ C_
TnE +000_ +00_ C_

[Sample17]
Tne +1C0_ +00_ F_
Tne +280_ +00_ D_
Tne +380_ +00_ 7_
TNE +000_ +00_ 0_ L

[Sample18]
TnE -00C_ +00_ 0_ L

[Sample19]
TNe +000_ +00_ F_
TNe +000_ +00_ C_
TNe +000_ +00_ 6_
TNe +000_ +01_ A- L

[Sample20]
TNE +140_ +00_ F_
tNE +000_ +00_ B- L

[Sample21]
tNE +000_ +00_ D_
tNE +000_ +00_ 8_
tNE +000_ +00_ 1_
TNE +000_ +00_ 0_ L

[Sample22]
TnE +000_ +00_ D_ L
TnE +000_ +00_ D_
tne +000_ +00_ 9_
tne +000_ +00_ 9_
TnE +000_ +00_ D_
TnE +000_ +00_ D_
tne +000_ +00_ 9_
tne +000_ +00_ 9_
TnE +000_ +00_ D_
TnE +000_ +00_ D_
TnE +000_ +00_ D_
TnE +000_ +00_ D_
TnE +000_ +00_ D_
TnE +000_ +00_ D_
tne +000_ +00_ 9_
tne +000_ +00_ 9_

[Sample23]
TnE +000_ +00_ F_ L
TnE +010_ +01_ F_
TnE +010_ +01_ F_
TnE +010_ +01_ F_
TnE +010_ +01_ F_
TnE +000_ +00_ F_
TnE +000_ +00_ F_
TnE -010_ -01_ F_
TnE -010_ -01_ F_
TnE -010_ -01_ F_
TnE -010_ -01_ F_
TnE +000_ +00_ F_

[Sample24]
TNe +000_ -01_ C_
TNe +000_ -01_ D_
TNe +000_ -01_ E_
TNe +000_ -01_ F_
TNe +000_ -01_ F_
TNe +000_ -01_ F_
TNe +000_ -01_ F_
TNe +000_ -01_ F_
TNe +000_ -01_ E_
TNe +000_ -01_ E_
TNe +000_ -01_ E_
TNe +000_ -01_ F_
TNe +000_ -01_ F_ L

[Sample25]
TNE +000_ +00_ F_
TNE +000_ +00_ F_ L
TNE +000_ +00_ F_
TNE +000_ +00_ F_
TNE +000_ +00_ F-

[Sample26]
tne +000_ +00_ 0_ L

[Sample27]
TnE +100_ +05_ F_
TnE +200_ +02_ A_
TnE +300_ +02_ 7_
TNE +400_ +00_ 3- L

[Sample28]
tne +000_ +00_ 0_ L

[Sample29]
tnE +000_ +00_ 0_ L

[Sample30]
TNE +000_ +00_ C+ L

[Sample31]
TNe +1C0_ +00_ F_
Tne +280_ +00_ E_
Tne +380_ +00_ C_
Tne +440_ +00_ A_
Tne +480_ +00_ 8_
TnE +000_ +00_ 0_ L

[Pattern0]
....|..|--- .... ....|--- .... ....|--- .... ....
....|..|--- .... ....|--- .... ....|--- .... ....
....|..|--- .... ....|--- .... ....|--- .... ....
....|..|--- .... ....|--- .... ....|--- .... ....
....|..|--- .... ....|--- .... ....|--- .... ....
....|..|--- .... ....|--- .... ....|--- .... ....
....|..|--- .... ....|--- .... ....|--- .... ....
....|..|--- .... ....|--- .... ....|--- .... ....
....|..|--- .... ....|--- .... ....|--- .... ....
....|..|--- .... ....|--- .... ....|--- .... ....
....|..|--- .... ....|--- .... ....|--- .... ....
....|..|--- .... ....|--- .... ....|--- .... ....
....|..|--- .... ....|--- .... ....|--- .... ....
....|..|--- .... ....|--- .... ....|--- .... ....
....|..|--- .... ....|--- .... ....|--- .... ....
....|..|--- .... ....|--- .... ....|--- .... ....
....|..|--- .... ....|--- .... ....|--- .... ....
....|..|--- .... ....|--- .... ....|--- .... ....
....|..|--- .... ....|--- .... ....|--- .... ....
....|..|--- .... ....|--- .... ....|--- .... ....
....|..|--- .... ....|--- .... ....|--- .... ....
....|..|--- .... ....|--- .... ....|--- .... ....
....|..|--- .... ....|--- .... ....|--- .... ....
....|..|--- .... ....|--- .... ....|--- .... ....
....|..|--- .... ....|--- .... ....|--- .... ....
....|..|--- .... ....|--- .... ....|--- .... ....
....|..|--- .... ....|--- .... ....|--- .... ....
....|..|--- .... ....|--- .... ....|--- .... ....
....|..|--- .... ....|--- .... ....|--- .... ....
....|..|--- .... ....|--- .... ....|--- .... ....
....|..|--- .... ....|--- .... ....|--- .... ....
....|..|--- .... ....|--- .... ....|--- .... ....
 A-3|..|A-3 2C.F ....|--- .... ....|--- .... ....
....|..|--- .... ....|--- .... ....|--- .... ....
....|..|--- .... ....|--- .... ....|--- .... ....
....|..|--- .... ....|--- .... ....|--- .... ....
 B-4|..|B-4 2C.F ....|--- .... ....|--- .... ....
....|..|--- .... ....|--- .... ....|--- .... ....
....|..|--- .... ....|--- .... ....|--- .... ....
....|..|--- .... ....|--- .... ....|--- .... ....
 C-4|..|C-5 2C.F ....|--- .... ....|--- .... ....
....|..|--- .... ....|--- .... ....|--- .... ....
....|..|--- .... ....|--- .... ....|--- .... ....
....|..|--- .... ....|--- .... ....|--- .... ....
 G-4|..|G-5 2C.F ....|--- .... ....|--- .... ....
....|..|--- .... ....|--- .... ....|--- .... ....
....|..|--- .... ....|--- .... ....|--- .... ....
....|..|--- .... ....|--- .... ....|--- .... ....
....|..|B-4 2F.A ....|--- .... ....|--- .... ....
....|..|--- .... ....|--- .... ....|--- .... ....
....|..|--- .... ....|--- .... ....|--- .... ....
....|..|--- .... ....|--- .... ....|--- .... ....
....|..|C-5 2F.A ....|--- .... ....|--- .... ....
....|..|--- .... ....|--- .... ....|--- .... ....
....|..|--- .... ....|--- .... ....|--- .... ....
....|..|--- .... ....|--- .... ....|--- .... ....
....|..|A-3 2F.7 ....|--- .... ....|--- .... ....
....|..|--- .... ....|--- .... ....|--- .... ....
....|..|--- .... ....|--- .... ....|--- .... ....
....|..|--- .... ....|--- .... ....|--- .... ....
....|..|B-4 2F.7 ....|--- .... ....|--- .... ....
....|..|--- .... ....|--- .... ....|--- .... ....
....|..|--- .... ....|--- .... ....|--- .... ....
....|..|--- .... ....|--- .... ....|--- .... ....
....|..|C-5 2F.7 ....|--- .... ....|--- .... ....
....|..|--- .... ....|--- .... ....|--- .... ....
....|..|--- .... ....|--- .... ....|--- .... ....
....|..|--- .... ....|--- .... ....|--- .... ....
....|..|G-5 2F.7 ....|--- .... ....|--- .... ....
....|..|--- .... ....|--- .... ....|--- .... ....
....|..|--- .... ....|--- .... ....|--- .... ....
....|..|--- .... ....|--- .... ....|--- .... ....
....|..|--- .... ....|--- .... ....|--- .... ....
....|..|--- .... ....|--- .... ....|--- .... ....
....|..|--- .... ....|--- .... ....|--- .... ....
....|..|--- .... ....|--- .... ....|--- .... ....
 A-3|..|A-3 2C.F ....|--- .... ....|--- .... ....
....|..|--- .... ....|--- .... ....|--- .... ....
....|..|--- .... ....|--- .... ....|--- .... ....
....|..|--- .... ....|--- .... ....|--- .... ....
 G-4|..|G-5 2C.F ....|--- .... ....|--- .... ....
....|..|--- .... ....|--- .... ....|--- .... ....
....|..|--- .... ....|--- .... ....|--- .... ....
....|..|--- .... ....|--- .... ....|--- .... ....
 C-4|..|C-5 2C.F ....|--- .... ....|--- .... ....
....|..|--- .... ....|--- .... ....|--- .... ....
....|..|--- .... ....|--- .... ....|--- .... ....
....|..|--- .... ....|--- .... ....|--- .... ....
 B-4|..|B-4 2C.F ....|--- .... ....|--- .... ....
....|..|--- .... ....|--- .... ....|--- .... ....
....|..|--- .... ....|--- .... ....|--- .... ....
....|..|--- .... ....|--- .... ....|--- .... ....
....|..|G-5 2F.A ....|--- .... ....|--- .... ....
....|..|--- .... ....|--- .... ....|--- .... ....
....|..|--- .... ....|--- .... ....|--- .... ....
....|..|--- .... ....|--- .... ....|--- .... ....
 A-3|..|A-3 2C.F ....|--- .... ....|--- .... ....
....|..|--- .... ....|--- .... ....|--- .... ....
....|..|--- .... ....|--- .... ....|--- .... ....
....|..|--- .... ....|--- .... ....|--- .... ....
 B-4|..|B-4 2C.F ....|--- .... ....|--- .... ....
....|..|--- .... ....|--- .... ....|--- .... ....
....|..|--- .... ....|--- .... ....|--- .... ....
....|..|--- .... ....|--- .... ....|--- .... ....
 C-4|..|C-5 2C.F ....|--- .... ....|--- .... ....
....|..|--- .... ....|--- .... ....|--- .... ....
....|..|--- .... ....|--- .... ....|--- .... ....
....|..|--- .... ....|--- .... ....|--- .... ....
 G-4|..|G-5 2C.F ....|--- .... ....|--- .... ....
....|..|--- .... ....|--- .... ....|--- .... ....
....|..|--- .... ....|--- .... ....|--- .... ....
....|..|--- .... ....|--- .... ....|--- .... ....
....|..|B-4 2F.7 ....|--- .... ....|--- .... ....
....|..|--- .... ....|--- .... ....|--- .... ....
....|..|--- .... ....|--- .... ....|--- .... ....
....|..|--- .... ....|--- .... ....|--- .... ....
....|..|C-5 2F.A ....|--- .... ....|--- .... ....
....|..|--- .... ....|--- .... ....|--- .... ....
....|..|--- .... ....|--- .... ....|--- .... ....
....|..|--- .... ....|--- .... ....|--- .... ....
....|..|A-3 2F.7 ....|--- .... ....|--- .... ....
....|..|--- .... ....|--- .... ....|--- .... ....
....|..|--- .... ....|--- .... ....|--- .... ....
....|..|--- .... ....|--- .... ....|--- .... ....
....|..|B-4 2F.7 ....|--- .... ....|--- .... ....
....|..|--- .... ....|--- .... ....|--- .... ....
....|..|--- .... ....|--- .... ....|--- .... ....
....|..|--- .... ....|--- .... ....|--- .... ....

[Pattern1]
....|..|C-5 2F.7 ....|--- .... ....|--- .... ....
....|..|--- .... ....|--- .... ....|--- .... ....
....|..|--- .... ....|--- .... ....|--- .... ....
....|..|--- .... ....|--- .... ....|--- .... ....
....|..|G-5 2F.7 ....|--- .... ....|--- .... ....
....|..|--- .... ....|--- .... ....|--- .... ....
....|..|--- .... ....|--- .... ....|--- .... ....
....|..|--- .... ....|--- .... ....|--- .... ....
....|..|--- .... ....|--- .... ....|--- .... ....
....|..|--- .... ....|--- .... ....|--- .... ....
....|..|--- .... ....|--- .... ....|--- .... ....
....|..|--- .... ....|--- .... ....|--- .... ....
 A-3|..|A-3 2C.F ....|--- .... ....|--- .... ....
....|..|--- .... ....|--- .... ....|--- .... ....
....|..|--- .... ....|--- .... ....|--- .... ....
....|..|--- .... ....|--- .... ....|--- .... ....
 G-4|..|G-5 2C.F ....|--- .... ....|--- .... ....
....|..|--- .... ....|--- .... ....|--- .... ....
....|..|--- .... ....|--- .... ....|--- .... ....
....|..|--- .... ....|--- .... ....|--- .... ....
 C-4|..|C-5 2C.F ....|--- .... ....|--- .... ....
....|..|--- .... ....|--- .... ....|--- .... ....
....|..|--- .... ....|--- .... ....|--- .... ....
....|..|--- .... ....|--- .... ....|--- .... ....
 B-4|..|B-4 2C.F ....|--- .... ....|--- .... ....
....|..|--- .... ....|--- .... ....|--- .... ....
....|..|--- .... ....|--- .... ....|--- .... ....
....|..|--- .... ....|--- .... ....|--- .... ....
....|..|G-5 2F.A ....|--- .... ....|--- .... ....
....|..|--- .... ....|--- .... ....|--- .... ....
....|..|--- .... ....|--- .... ....|--- .... ....
....|..|--- .... ....|--- .... ....|--- .... ....
 F-4|..|F-4 2C.F ....|--- .... ....|--- .... ....
....|..|--- .... ....|--- .... ....|--- .... ....
....|..|--- .... ....|--- .... ....|--- .... ....
....|..|--- .... ....|--- .... ....|--- .... ....
 B-4|..|B-4 2C.F ....|--- .... ....|--- .... ....
....|..|--- .... ....|--- .... ....|--- .... ....
....|..|--- .... ....|--- .... ....|--- .... ....
....|..|--- .... ....|--- .... ....|--- .... ....
 C-4|..|C-5 2C.F ....|--- .... ....|--- .... ....
....|..|--- .... ....|--- .... ....|--- .... ....
....|..|--- .... ....|--- .... ....|--- .... ....
....|..|--- .... ....|--- .... ....|--- .... ....
 G-4|..|G-5 2C.F ....|--- .... ....|--- .... ....
....|..|--- .... ....|--- .... ....|--- .... ....
....|..|--- .... ....|--- .... ....|--- .... ....
....|..|--- .... ....|--- .... ....|--- .... ....
....|..|B-4 2F.7 ....|--- .... ....|--- .... ....
....|..|--- .... ....|--- .... ....|--- .... ....
....|..|--- .... ....|--- .... ....|--- .... ....
....|..|--- .... ....|--- .... ....|--- .... ....
....|..|C-5 2F.A ....|--- .... ....|--- .... ....
....|..|--- .... ....|--- .... ....|--- .... ....
....|..|--- .... ....|--- .... ....|--- .... ....
....|..|--- .... ....|--- .... ....|--- .... ....
....|..|F-4 2F.7 ....|--- .... ....|--- .... ....
....|..|--- .... ....|--- .... ....|--- .... ....
....|..|--- .... ....|--- .... ....|--- .... ....
....|..|--- .... ....|--- .... ....|--- .... ....
....|..|B-4 2F.7 ....|--- .... ....|--- .... ....
....|..|--- .... ....|--- .... ....|--- .... ....
....|..|--- .... ....|--- .... ....|--- .... ....
....|..|--- .... ....|--- .... ....|--- .... ....
....|..|C-5 2F.7 ....|--- .... ....|--- .... ....
....|..|--- .... ....|--- .... ....|--- .... ....
....|..|--- .... ....|--- .... ....|--- .... ....
....|..|--- .... ....|--- .... ....|--- .... ....
....|..|G-5 2F.7 ....|--- .... ....|--- .... ....
....|..|--- .... ....|--- .... ....|--- .... ....
....|..|--- .... ....|--- .... ....|--- .... ....
....|..|--- .... ....|--- .... ....|--- .... ....
....|..|--- .... ....|--- .... ....|--- .... ....
....|..|--- .... ....|--- .... ....|--- .... ....
....|..|--- .... ....|--- .... ....|--- .... ....
....|..|--- .... ....|--- .... ....|--- .... ....
 F-4|..|F-4 2C.F ....|--- .... ....|--- .... ....
....|..|--- .... ....|--- .... ....|--- .... ....
....|..|--- .... ....|--- .... ....|--- .... ....
....|..|--- .... ....|--- .... ....|--- .... ....
 G-4|..|G-5 2C.F ....|--- .... ....|--- .... ....
....|..|--- .... ....|--- .... ....|--- .... ....
....|..|--- .... ....|--- .... ....|--- .... ....
....|..|--- .... ....|--- .... ....|--- .... ....
 C-4|..|C-5 2C.F ....|--- .... ....|--- .... ....
....|..|--- .... ....|--- .... ....|--- .... ....
....|..|--- .... ....|--- .... ....|--- .... ....
....|..|--- .... ....|--- .... ....|--- .... ....
 B-4|..|B-4 2C.F ....|--- .... ....|--- .... ....
....|..|--- .... ....|--- .... ....|--- .... ....
....|..|--- .... ....|--- .... ....|--- .... ....
....|..|--- .... ....|--- .... ....|--- .... ....
....|..|G-5 2F.A ....|--- .... ....|--- .... ....
....|..|--- .... ....|--- .... ....|--- .... ....
....|..|--- .... ....|--- .... ....|--- .... ....
....|..|--- .... ....|--- .... ....|--- .... ....
 D-4|..|D-4 2C.F ....|--- .... ....|--- .... ....
....|..|--- .... ....|--- .... ....|--- .... ....
....|..|--- .... ....|--- .... ....|--- .... ....
....|..|--- .... ....|--- .... ....|--- .... ....
 B-4|..|B-4 2C.F ....|--- .... ....|--- .... ....
....|..|--- .... ....|--- .... ....|--- .... ....
....|..|--- .... ....|--- .... ....|--- .... ....
....|..|--- .... ....|--- .... ....|--- .... ....
 C-4|..|C-5 2C.F ....|--- .... ....|--- .... ....
....|..|--- .... ....|--- .... ....|--- .... ....
....|..|--- .... ....|--- .... ....|--- .... ....
....|..|--- .... ....|--- .... ....|--- .... ....
 F-4|..|F-5 2C.F ....|--- .... ....|--- .... ....
....|..|--- .... ....|--- .... ....|--- .... ....
....|..|--- .... ....|--- .... ....|--- .... ....
....|..|--- .... ....|--- .... ....|--- .... ....
....|..|B-4 2F.7 ....|--- .... ....|--- .... ....
....|..|--- .... ....|--- .... ....|--- .... ....
....|..|--- .... ....|--- .... ....|--- .... ....
....|..|--- .... ....|--- .... ....|--- .... ....
....|..|C-5 2F.A ....|--- .... ....|--- .... ....
....|..|--- .... ....|--- .... ....|--- .... ....
....|..|--- .... ....|--- .... ....|--- .... ....
....|..|--- .... ....|--- .... ....|--- .... ....
....|..|D-4 2F.7 ....|--- .... ....|--- .... ....
....|..|--- .... ....|--- .... ....|--- .... ....
....|..|--- .... ....|--- .... ....|--- .... ....
....|..|--- .... ....|--- .... ....|--- .... ....
....|..|B-4 2F.7 ....|--- .... ....|--- .... ....
....|..|--- .... ....|--- .... ....|--- .... ....
....|..|--- .... ....|--- .... ....|--- .... ....
....|..|--- .... ....|--- .... ....|--- .... ....

[Pattern2]
 F-4|..|F-3 2C.F ....|--- .... ....|--- .... ....
....|..|--- .... ....|--- .... ....|--- .... ....
....|..|--- .... ....|--- .... ....|--- .... ....
....|..|--- .... ....|--- .... ....|--- .... ....
 B-4|..|B-4 2C.F ....|--- .... ....|--- .... ....
....|..|--- .... ....|--- .... ....|--- .... ....
....|..|--- .... ....|--- .... ....|--- .... ....
....|..|--- .... ....|--- .... ....|--- .... ....
 C-4|..|C-5 2C.F ....|--- .... ....|--- .... ....
....|..|--- .... ....|--- .... ....|--- .... ....
....|..|--- .... ....|--- .... ....|--- .... ....
....|..|--- .... ....|--- .... ....|--- .... ....
 B-4|..|B-4 2C.F ....|--- .... ....|--- .... ....
....|..|--- .... ....|--- .... ....|--- .... ....
....|..|--- .... ....|--- .... ....|--- .... ....
....|..|--- .... ....|--- .... ....|--- .... ....
 E-4|..|E-3 2C.F ....|--- .... ....|--- .... ....
....|..|--- .... ....|--- .... ....|--- .... ....
....|..|--- .... ....|--- .... ....|--- .... ....
....|..|--- .... ....|--- .... ....|--- .... ....
 B-4|..|B-4 2C.F ....|--- .... ....|--- .... ....
....|..|--- .... ....|--- .... ....|--- .... ....
....|..|--- .... ....|--- .... ....|--- .... ....
....|..|--- .... ....|--- .... ....|--- .... ....
 C-4|..|C-5 2C.F ....|--- .... ....|--- .... ....
....|..|--- .... ....|--- .... ....|--- .... ....
....|..|--- .... ....|--- .... ....|--- .... ....
....|..|--- .... ....|--- .... ....|--- .... ....
 B-4|..|B-4 2C.F ....|--- .... ....|--- .... ....
....|..|--- .... ....|--- .... ....|--- .... ....
....|..|--- .... ....|--- .... ....|--- .... ....
....|..|--- .... ....|--- .... ....|--- .... ....
 A-3|..|A-3 2C.F ....|--- .... ....|--- .... ....
....|..|--- .... ....|--- .... ....|--- .... ....
....|..|--- .... ....|--- .... ....|--- .... ....
....|..|--- .... ....|--- .... ....|--- .... ....
 B-4|..|B-4 2C.F ....|--- .... ....|--- .... ....
....|..|--- .... ....|--- .... ....|--- .... ....
....|..|--- .... ....|--- .... ....|--- .... ....
....|..|--- .... ....|--- .... ....|--- .... ....
 C-4|..|C-5 2C.F ....|--- .... ....|--- .... ....
....|..|--- .... ....|--- .... ....|--- .... ....
....|..|--- .... ....|--- .... ....|--- .... ....
....|..|--- .... ....|--- .... ....|--- .... ....
 G-4|..|G-5 2C.F ....|--- .... ....|--- .... ....
....|..|--- .... ....|--- .... ....|--- .... ....
....|..|--- .... ....|--- .... ....|--- .... ....
....|..|--- .... ....|--- .... ....|--- .... ....
....|..|C-5 2F.7 ....|--- .... ....|--- .... ....
....|..|--- .... ....|--- .... ....|--- .... ....
....|..|--- .... ....|--- .... ....|--- .... ....
....|..|--- .... ....|--- .... ....|--- .... ....
....|..|B-4 2F.7 ....|--- .... ....|--- .... ....
....|..|--- .... ....|--- .... ....|--- .... ....
....|..|--- .... ....|--- .... ....|--- .... ....
....|..|--- .... ....|--- .... ....|--- .... ....
....|..|A-3 2F.7 ....|--- .... ....|--- .... ....
....|..|--- .... ....|--- .... ....|--- .... ....
....|..|--- .... ....|--- .... ....|--- .... ....
....|..|--- .... ....|--- .... ....|--- .... ....
....|..|B-4 2F.7 ....|--- .... ....|--- .... ....
....|..|--- .... ....|--- .... ....|--- .... ....
....|..|--- .... ....|--- .... ....|--- .... ....
....|..|--- .... ....|--- .... ....|--- .... ....
....|..|C-5 2F.7 ....|--- .... ....|--- .... ....
....|..|--- .... ....|--- .... ....|--- .... ....
....|..|--- .... ....|--- .... ....|--- .... ....
....|..|--- .... ....|--- .... ....|--- .... ....
....|..|G-5 2F.7 ....|--- .... ....|--- .... ....
....|..|--- .... ....|--- .... ....|--- .... ....
....|..|--- .... ....|--- .... ....|--- .... ....
....|..|--- .... ....|--- .... ....|--- .... ....
....|..|--- .... ....|--- .... ....|--- .... ....
....|..|--- .... ....|--- .... ....|--- .... ....
....|..|--- .... ....|--- .... ....|--- .... ....
....|..|--- .... ....|--- .... ....|--- .... ....
 A-3|..|A-3 2C.F ....|--- .... ....|--- .... ....
....|..|--- .... ....|--- .... ....|--- .... ....
....|..|--- .... ....|--- .... ....|--- .... ....
....|..|--- .... ....|--- .... ....|--- .... ....
 G-4|..|G-5 2C.F ....|--- .... ....|--- .... ....
....|..|--- .... ....|--- .... ....|--- .... ....
....|..|--- .... ....|--- .... ....|--- .... ....
....|..|--- .... ....|--- .... ....|--- .... ....
 C-4|..|C-5 2C.F ....|--- .... ....|--- .... ....
....|..|--- .... ....|--- .... ....|--- .... ....
....|..|--- .... ....|--- .... ....|--- .... ....
....|..|--- .... ....|--- .... ....|--- .... ....
 B-4|..|B-4 2C.F ....|--- .... ....|--- .... ....
....|..|--- .... ....|--- .... ....|--- .... ....
....|..|--- .... ....|--- .... ....|--- .... ....
....|..|--- .... ....|--- .... ....|--- .... ....
....|..|G-5 2F.A ....|--- .... ....|--- .... ....
....|..|--- .... ....|--- .... ....|--- .... ....
....|..|--- .... ....|--- .... ....|--- .... ....
....|..|--- .... ....|--- .... ....|--- .... ....
 A-3|..|A-3 2C.F ....|--- .... ....|--- .... ....
....|..|--- .... ....|--- .... ....|--- .... ....
....|..|--- .... ....|--- .... ....|--- .... ....
....|..|--- .... ....|--- .... ....|--- .... ....
 B-4|..|B-4 2C.F ....|--- .... ....|--- .... ....
....|..|--- .... ....|--- .... ....|--- .... ....
....|..|--- .... ....|--- .... ....|--- .... ....
....|..|--- .... ....|--- .... ....|--- .... ....
 C-4|..|C-5 2C.F ....|--- .... ....|--- .... ....
....|..|--- .... ....|--- .... ....|--- .... ....
....|..|--- .... ....|--- .... ....|--- .... ....
....|..|--- .... ....|--- .... ....|--- .... ....
 G-4|..|G-5 2C.F ....|--- .... ....|--- .... ....
....|..|--- .... ....|--- .... ....|--- .... ....
....|..|--- .... ....|--- .... ....|--- .... ....
....|..|--- .... ....|--- .... ....|--- .... ....
....|..|B-4 2F.7 ....|--- .... ....|--- .... ....
....|..|--- .... ....|--- .... ....|--- .... ....
....|..|--- .... ....|--- .... ....|--- .... ....
....|..|--- .... ....|--- .... ....|--- .... ....
....|..|C-5 2F.A ....|--- .... ....|--- .... ....
....|..|--- .... ....|--- .... ....|--- .... ....
....|..|--- .... ....|--- .... ....|--- .... ....
....|..|--- .... ....|--- .... ....|--- .... ....
....|..|A-3 2F.7 ....|--- .... ....|--- .... ....
....|..|--- .... ....|--- .... ....|--- .... ....
....|..|--- .... ....|--- .... ....|--- .... ....
....|..|--- .... ....|--- .... ....|--- .... ....
....|..|B-4 2F.7 ....|--- .... ....|--- .... ....
....|..|--- .... ....|--- .... ....|--- .... ....
....|..|--- .... ....|--- .... ....|--- .... ....
....|..|--- .... ....|--- .... ....|--- .... ....

[Pattern8]
 F-4|..|F-3 2C.F ....|--- .... ....|--- .... ....
....|..|--- .... ....|--- .... ....|--- .... ....
....|..|--- .... ....|--- .... ....|--- .... ....
....|..|--- .... ....|--- .... ....|--- .... ....
 B-4|..|B-4 2C.F ....|--- .... ....|--- .... ....
....|..|--- .... ....|--- .... ....|--- .... ....
....|..|--- .... ....|--- .... ....|--- .... ....
....|..|--- .... ....|--- .... ....|--- .... ....
 C-4|..|C-5 2C.F ....|--- .... ....|--- .... ....
....|..|--- .... ....|--- .... ....|--- .... ....
....|..|--- .... ....|--- .... ....|--- .... ....
....|..|--- .... ....|--- .... ....|--- .... ....
 B-4|..|B-4 2C.F ....|--- .... ....|--- .... ....
....|..|--- .... ....|--- .... ....|--- .... ....
....|..|--- .... ....|--- .... ....|--- .... ....
....|..|--- .... ....|--- .... ....|--- .... ....
 E-4|..|E-3 2C.F ....|--- .... ....|--- .... ....
....|..|--- .... ....|--- .... ....|--- .... ....
....|..|--- .... ....|--- .... ....|--- .... ....
....|..|--- .... ....|--- .... ....|--- .... ....
 B-4|..|B-4 2C.F ....|--- .... ....|--- .... ....
....|..|--- .... ....|--- .... ....|--- .... ....
....|..|--- .... ....|--- .... ....|--- .... ....
....|..|--- .... ....|--- .... ....|--- .... ....
 C-4|..|C-5 2C.F ....|--- .... ....|--- .... ....
....|..|--- .... ....|--- .... ....|--- .... ....
....|..|--- .... ....|--- .... ....|--- .... ....
....|..|--- .... ....|--- .... ....|--- .... ....
 B-4|..|B-4 2C.F ....|--- .... ....|--- .... ....
....|..|--- .... ....|--- .... ....|--- .... ....
....|..|--- .... ....|--- .... ....|--- .... ....
....|..|--- .... ....|--- .... ....|--- .... ....
....|..|C-5 2F.7 ....|--- .... ....|--- .... ....
....|..|--- .... ....|--- .... ....|--- .... ....
....|..|--- .... ....|--- .... ....|--- .... ....
....|..|--- .... ....|--- .... ....|--- .... ....
....|..|B-4 2F.7 ....|--- .... ....|--- .... ....
....|..|--- .... ....|--- .... ....|--- .... ....
....|..|--- .... ....|--- .... ....|--- .... ....
....|..|--- .... ....|--- .... ....|--- .... ....
....|..|E-3 2F.7 ....|--- .... ....|--- .... ....
....|..|--- .... ....|--- .... ....|--- .... ....
....|..|--- .... ....|--- .... ....|--- .... ....
....|..|--- .... ....|--- .... ....|--- .... ....
....|..|B-4 2F.7 ....|--- .... ....|--- .... ....
....|..|--- .... ....|--- .... ....|--- .... ....
....|..|--- .... ....|--- .... ....|--- .... ....
....|..|--- .... ....|--- .... ....|--- .... ....
....|..|C-5 2F.7 ....|--- .... ....|--- .... ....
....|..|--- .... ....|--- .... ....|--- .... ....
....|..|--- .... ....|--- .... ....|--- .... ....
....|..|--- .... ....|--- .... ....|--- .... ....
....|..|B-4 2F.7 ....|--- .... ....|--- .... ....
....|..|--- .... ....|--- .... ....|--- .... ....
....|..|--- .... ....|--- .... ....|--- .... ....
....|..|--- .... ....|--- .... ....|--- .... ....
....|..|R-- .... ....|--- .... ....|--- .... ....
....|..|--- .... ....|--- .... ....|--- .... ....
....|..|--- .... ....|--- .... ....|--- .... ....
....|..|--- .... ....|--- .... ....|--- .... ....
....|..|--- .... ....|--- .... ....|--- .... ....
....|..|--- .... ....|--- .... ....|--- .... ....
....|..|--- .... ....|--- .... ....|--- .... ....
....|..|--- .... ....|--- .... ....|--- .... ....
....|..|--- .... ....|--- .... ....|--- .... ....
....|..|--- .... ....|--- .... ....|--- .... ....
....|..|--- .... ....|--- .... ....|--- .... ....
....|..|--- .... ....|--- .... ....|--- .... ....
....|..|--- .... ....|--- .... ....|--- .... ....
....|..|--- .... ....|--- .... ....|--- .... ....
....|..|--- .... ....|--- .... ....|--- .... ....
....|..|--- .... ....|--- .... ....|--- .... ....
....|..|--- .... ....|--- .... ....|--- .... ....
....|..|--- .... ....|--- .... ....|--- .... ....
....|..|--- .... ....|--- .... ....|--- .... ....
....|..|--- .... ....|--- .... ....|--- .... ....
....|..|--- .... ....|--- .... ....|--- .... ....
....|..|--- .... ....|--- .... ....|--- .... ....
....|..|--- .... ....|--- .... ....|--- .... ....
....|..|--- .... ....|--- .... ....|--- .... ....
....|..|--- .... ....|--- .... ....|--- .... ....
....|..|--- .... ....|--- .... ....|--- .... ....
....|..|--- .... ....|--- .... ....|--- .... ....
....|..|--- .... ....|--- .... ....|--- .... ....
....|..|--- .... ....|--- .... ....|--- .... ....
....|..|--- .... ....|--- .... ....|--- .... ....
....|..|--- .... ....|--- .... ....|--- .... ....
....|..|--- .... ....|--- .... ....|--- .... ....
....|..|--- .... ....|--- .... ....|--- .... ....
....|..|--- .... ....|--- .... ....|--- .... ....
....|..|--- .... ....|--- .... ....|--- .... ....
....|..|--- .... ....|--- .... ....|--- .... ....
....|..|--- .... ....|--- .... ....|--- .... ....
....|..|--- .... ....|--- .... ....|--- .... ....
....|..|--- .... ....|--- .... ....|--- .... ....
....|..|--- .... ....|--- .... ....|--- .... ....
....|..|--- .... ....|--- .... ....|--- .... ....
....|..|--- .... ....|--- .... ....|--- .... ....
....|..|--- .... ....|--- .... ....|--- .... ....
....|..|--- .... ....|--- .... ....|--- .... ....
....|..|--- .... ....|--- .... ....|--- .... ....
....|..|--- .... ....|--- .... ....|--- .... ....
....|..|--- .... ....|--- .... ....|--- .... ....
....|..|--- .... ....|--- .... ....|--- .... ....
....|..|--- .... ....|--- .... ....|--- .... ....
....|..|--- .... ....|--- .... ....|--- .... ....
....|..|--- .... ....|--- .... ....|--- .... ....
....|..|--- .... ....|--- .... ....|--- .... ....
....|..|--- .... ....|--- .... ....|--- .... ....
....|..|--- .... ....|--- .... ....|--- .... ....
....|..|--- .... ....|--- .... ....|--- .... ....
....|..|--- .... ....|--- .... ....|--- .... ....
....|..|--- .... ....|--- .... ....|--- .... ....
....|..|--- .... ....|--- .... ....|--- .... ....
....|..|--- .... ....|--- .... ....|--- .... ....
....|..|--- .... ....|--- .... ....|--- .... ....
....|..|--- .... ....|--- .... ....|--- .... ....
....|..|--- .... ....|--- .... ....|--- .... ....
....|..|--- .... ....|--- .... ....|--- .... ....
....|..|--- .... ....|--- .... ....|--- .... ....
....|..|--- .... ....|--- .... ....|--- .... ....
....|..|--- .... ....|--- .... ....|--- .... ....
....|..|--- .... ....|--- .... ....|--- .... ....
....|..|--- .... ....|--- .... ....|--- .... ....
....|..|--- .... ....|--- .... ....|--- .... ....
....|..|--- .... ....|--- .... ....|--- .... ....
....|..|--- .... ....|--- .... ....|--- .... ....
....|..|--- .... ....|--- .... ....|--- .... ....

[Pattern9]
....|..|--- .... ....|--- .... ....|--- .... ....
....|..|--- .... ....|--- .... ....|--- .... ....
....|..|--- .... ....|--- .... ....|--- .... ....
....|..|--- .... ....|--- .... ....|--- .... ....
....|..|--- .... ....|--- .... ....|--- .... ....
....|..|--- .... ....|--- .... ....|--- .... ....
....|..|--- .... ....|--- .... ....|--- .... ....
....|..|--- .... ....|--- .... ....|--- .... ....
....|..|--- .... ....|--- .... ....|--- .... ....
....|..|--- .... ....|--- .... ....|--- .... ....
....|..|--- .... ....|--- .... ....|--- .... ....
....|..|--- .... ....|--- .... ....|--- .... ....
....|..|--- .... ....|--- .... ....|--- .... ....
....|..|--- .... ....|--- .... ....|--- .... ....
....|..|--- .... ....|--- .... ....|--- .... ....
....|..|--- .... ....|--- .... ....|--- .... ....
....|..|--- .... ....|--- .... ....|--- .... ....
....|..|--- .... ....|--- .... ....|--- .... ....
....|..|--- .... ....|--- .... ....|--- .... ....
....|..|--- .... ....|--- .... ....|--- .... ....
....|..|--- .... ....|--- .... ....|--- .... ....
....|..|--- .... ....|--- .... ....|--- .... ....
....|..|--- .... ....|--- .... ....|--- .... ....
....|..|--- .... ....|--- .... ....|--- .... ....
....|..|--- .... ....|--- .... ....|--- .... ....
....|..|--- .... ....|--- .... ....|--- .... ....
....|..|--- .... ....|--- .... ....|--- .... ....
....|..|--- .... ....|--- .... ....|--- .... ....
....|..|--- .... ....|--- .... ....|--- .... ....
....|..|--- .... ....|--- .... ....|--- .... ....
....|..|--- .... ....|--- .... ....|--- .... ....
....|..|--- .... ....|--- .... ....|--- .... ....
 A-3|..|A-4 2C.F ....|A-4 2C.F ....|--- .... ....
....|..|--- .... ....|--- .... ....|--- .... ....
 B-4|..|B-4 2C.F ....|A-3 2F.F ....|--- .... ....
....|..|--- .... ....|--- .... ....|--- .... ....
 C-4|..|C-5 2C.F ....|--- .F.. ....|--- .... ....
....|..|--- .... ....|--- .... ....|--- .... ....
 G-4|..|G-5 2C.F ....|--- .F.. ....|--- .... ....
....|..|--- .... ....|--- .... ....|--- .... ....
 A-3|..|--- .F.. ....|A-3 2C.F ....|--- .... ....
....|..|--- .... ....|--- .... ....|--- .... ....
....|..|--- .... ....|--- .... ....|--- .... ....
....|..|--- .... ....|--- .... ....|--- .... ....
 A-3|..|A-4 2F.A ....|A-3 2C.F ....|--- .... ....
....|..|--- .... ....|--- .... ....|--- .... ....
 A-3|..|B-4 2F.A ....|A-3 2C.F ....|--- .... ....
....|..|--- .... ....|--- .... ....|--- .... ....
....|..|C-5 2F.A ....|--- .... ....|--- .... ....
....|..|--- .... ....|--- .... ....|--- .... ....
 A-3|..|G-5 2F.A ....|A-3 2C.F ....|--- .... ....
....|..|--- .... ....|--- .... ....|--- .... ....
....|..|--- .... ....|A-3 2F.A ....|--- .... ....
....|..|--- .... ....|--- .... ....|--- .... ....
 A-3|..|--- .... ....|A-3 2C.F ....|--- .... ....
....|..|--- .... ....|--- .... ....|--- .... ....
....|..|A-4 2F.7 ....|A-3 2F.7 ....|--- .... ....
....|..|--- .... ....|--- .... ....|--- .... ....
 A-3|..|B-4 2F.7 ....|A-3 2C.F ....|--- .... ....
....|..|--- .... ....|--- .... ....|--- .... ....
 C-4|..|C-5 2F.7 ....|C-4 2C.F ....|--- .... ....
....|..|--- .... ....|--- .... ....|--- .... ....
 A-3|..|G-5 2F.7 ....|A-3 2C.F ....|--- .... ....
....|..|--- .... ....|--- .... ....|--- .... ....
 A-3|..|--- .... ....|A-4 2C.F ....|--- .... ....
....|..|--- .... ....|--- .... ....|--- .... ....
 A-3|..|--- .... ....|A-3 2C.F ....|--- .... ....
....|..|--- .... ....|--- .... ....|--- .... ....
....|..|--- .... ....|A-3 2F.7 ....|--- .... ....
....|..|--- .... ....|--- .... ....|--- .... ....
....|..|--- .... ....|A-3 2F.7 ....|--- .... ....
....|..|--- .... ....|--- .... ....|--- .... ....
 A-3|..|--- .... ....|A-3 2C.F ....|--- .... ....
....|..|--- .... ....|--- .... ....|--- .... ....
....|..|--- .... ....|A-3 2F.7 ....|--- .... ....
....|..|--- .... ....|--- .... ....|--- .... ....
 A-3|..|--- .... ....|A-3 2C.F ....|--- .... ....
....|..|--- .... ....|--- .... ....|--- .... ....
 A-3|..|--- .... ....|A-3 2C.F ....|--- .... ....
....|..|--- .... ....|--- .... ....|--- .... ....
....|..|--- .... ....|--- .... ....|--- .... ....
....|..|--- .... ....|--- .... ....|--- .... ....
 A-3|..|--- .... ....|A-3 2C.F ....|--- .... ....
....|..|--- .... ....|--- .... ....|--- .... ....
....|..|--- .... ....|C-4 2F.7 ....|--- .... ....
....|..|--- .... ....|--- .... ....|--- .... ....
 A-3|..|--- .... ....|A-3 2C.F ....|--- .... ....
....|..|--- .... ....|--- .... ....|--- .... ....
....|..|--- .... ....|A-4 2F.7 ....|--- .... ....
....|..|--- .... ....|--- .... ....|--- .... ....
 C-4|..|--- .... ....|C-4 2C.F ....|--- .... ....
....|..|--- .... ....|--- .... ....|--- .... ....
....|..|--- .... ....|--- .... ....|--- .... ....
....|..|--- .... ....|--- .... ....|--- .... ....
....|..|--- .... ....|A-3 2F.A ....|--- .... ....
....|..|--- .... ....|--- .... ....|--- .... ....
 A-3|..|A-4 2C.F ....|A-4 2C.F ....|--- .... ....
....|..|--- .... ....|--- .... ....|--- .... ....
 B-4|..|B-4 2C.F ....|A-3 2F.F ....|--- .... ....
....|..|--- .... ....|--- .... ....|--- .... ....
 C-4|..|C-5 2C.F ....|A-3 2F.7 ....|--- .... ....
....|..|--- .... ....|--- .... ....|--- .... ....
 G-4|..|G-5 2C.F ....|A-3 2F.7 ....|--- .... ....
....|..|--- .... ....|--- .... ....|--- .... ....
 A-3|..|--- .F.. ....|A-3 2C.F ....|--- .... ....
....|..|--- .... ....|--- .... ....|--- .... ....
....|..|--- .... ....|A-3 2F.7 ....|--- .... ....
....|..|--- .... ....|--- .... ....|--- .... ....
 A-3|..|A-4 2F.A ....|A-3 2C.F ....|--- .... ....
....|..|--- .... ....|--- .... ....|--- .... ....
 A-3|..|B-4 2F.A ....|A-3 2C.F ....|--- .... ....
....|..|--- .... ....|--- .... ....|--- .... ....
....|..|C-5 2F.A ....|--- .... ....|--- .... ....
....|..|--- .... ....|--- .... ....|--- .... ....
 A-3|..|G-5 2F.A ....|A-3 2C.F ....|--- .... ....
....|..|--- .... ....|--- .... ....|--- .... ....
....|..|--- .... ....|A-3 2F.A ....|--- .... ....
....|..|--- .... ....|--- .... ....|--- .... ....
 A-3|..|--- .... ....|A-3 2C.F ....|--- .... ....
....|..|--- .... ....|--- .... ....|--- .... ....
....|..|A-4 2F.7 ....|A-3 2F.7 ....|--- .... ....
....|..|--- .... ....|--- .... ....|--- .... ....
 A-3|..|B-4 2F.7 ....|A-3 2C.F ....|--- .... ....
....|..|--- .... ....|--- .... ....|--- .... ....
 B-4|..|C-5 2F.7 ....|B-4 2C.F ....|--- .... ....
....|..|--- .... ....|--- .... ....|--- .... ....
....|..|G-5 2F.7 ....|A-3 2F.A ....|--- .... ....
....|..|--- .... ....|--- .... ....|--- .... ....

[Pattern10]
 A-3|..|--- .... ....|A-4 2C.F ....|--- .... ....
....|..|--- .... ....|--- .... ....|--- .... ....
 C-4|..|--- .... ....|C-4 2C.F ....|--- .... ....
....|..|--- .... ....|--- .... ....|--- .... ....
....|..|--- .... ....|A-3 2F.7 ....|--- .... ....
....|..|--- .... ....|--- .... ....|--- .... ....
....|..|--- .... ....|A-3 2F.7 ....|--- .... ....
....|..|--- .... ....|--- .... ....|--- .... ....
 A-3|..|--- .... ....|A-3 2C.F ....|--- .... ....
....|..|--- .... ....|--- .... ....|--- .... ....
....|..|--- .... ....|A-3 2F.7 ....|--- .... ....
....|..|--- .... ....|--- .... ....|--- .... ....
 A-3|..|--- .... ....|A-3 2C.F ....|--- .... ....
....|..|--- .... ....|--- .... ....|--- .... ....
 A-3|..|--- .... ....|A-3 2C.F ....|--- .... ....
....|..|--- .... ....|--- .... ....|--- .... ....
....|..|--- .... ....|--- .... ....|--- .... ....
....|..|--- .... ....|--- .... ....|--- .... ....
 A-3|..|--- .... ....|A-3 2C.F ....|--- .... ....
....|..|--- .... ....|--- .... ....|--- .... ....
....|..|--- .... ....|B-4 2F.7 ....|--- .... ....
....|..|--- .... ....|--- .... ....|--- .... ....
 A-3|..|--- .... ....|A-3 2C.F ....|--- .... ....
....|..|--- .... ....|--- .... ....|--- .... ....
....|..|--- .... ....|A-4 2F.7 ....|--- .... ....
....|..|--- .... ....|--- .... ....|--- .... ....
 A-3|..|--- .... ....|A-3 2C.F ....|--- .... ....
....|..|--- .... ....|--- .... ....|--- .... ....
 C-4|..|--- .... ....|C-4 2C.F ....|--- .... ....
....|..|--- .... ....|--- .... ....|--- .... ....
 A-3|..|--- .... ....|A-3 2C.F ....|--- .... ....
....|..|--- .... ....|--- .... ....|--- .... ....
 F-4|..|F-5 2C.F ....|F-4 2C.F ....|--- .... ....
....|..|--- .... ....|--- .... ....|--- .... ....
 E-4|..|E-5 2C.F ....|F-3 2F.F ....|--- .... ....
....|..|--- .... ....|--- .... ....|--- .... ....
 C-4|..|C-5 2C.F ....|A-3 2F.7 ....|--- .... ....
....|..|--- .... ....|--- .... ....|--- .... ....
 A-3|..|A-4 2C.F ....|A-3 2F.7 ....|--- .... ....
....|..|--- .... ....|--- .... ....|--- .... ....
 F-4|..|--- .F.. ....|F-3 2C.F ....|--- .... ....
....|..|--- .... ....|--- .... ....|--- .... ....
....|..|--- .... ....|A-3 2F.7 ....|--- .... ....
....|..|--- .... ....|--- .... ....|--- .... ....
 F-4|..|F-5 2F.A ....|F-3 2C.F ....|--- .... ....
....|..|--- .... ....|--- .... ....|--- .... ....
 F-4|..|E-5 2F.A ....|F-3 2C.F ....|--- .... ....
....|..|--- .... ....|--- .... ....|--- .... ....
....|..|C-5 2F.A ....|--- .... ....|--- .... ....
....|..|--- .... ....|--- .... ....|--- .... ....
 F-4|..|A-4 2F.A ....|F-3 2C.F ....|--- .... ....
....|..|--- .... ....|--- .... ....|--- .... ....
....|..|--- .... ....|C-4 2F.7 ....|--- .... ....
....|..|--- .... ....|--- .... ....|--- .... ....
 F-4|..|--- .... ....|F-3 2C.F ....|--- .... ....
....|..|--- .... ....|--- .... ....|--- .... ....
....|..|F-5 2F.7 ....|F-3 2F.7 ....|--- .... ....
....|..|--- .... ....|--- .... ....|--- .... ....
 F-4|..|E-5 2F.7 ....|F-3 2C.F ....|--- .... ....
....|..|--- .... ....|--- .... ....|--- .... ....
 C-4|..|C-5 2F.7 ....|C-4 2C.F ....|--- .... ....
....|..|--- .... ....|--- .... ....|--- .... ....
 F-4|..|A-4 2F.7 ....|F-3 2C.F ....|--- .... ....
....|..|--- .... ....|--- .... ....|--- .... ....
 F-4|..|--- .... ....|F-4 2C.F ....|--- .... ....
....|..|--- .... ....|--- .... ....|--- .... ....
 F-4|..|--- .... ....|F-3 2C.F ....|--- .... ....
....|..|--- .... ....|--- .... ....|--- .... ....
....|..|--- .... ....|F-3 2F.7 ....|--- .... ....
....|..|--- .... ....|--- .... ....|--- .... ....
....|..|--- .... ....|F-3 2F.7 ....|--- .... ....
....|..|--- .... ....|--- .... ....|--- .... ....
 F-4|..|--- .... ....|F-3 2C.F ....|--- .... ....
....|..|--- .... ....|--- .... ....|--- .... ....
....|..|--- .... ....|F-3 2F.7 ....|--- .... ....
....|..|--- .... ....|--- .... ....|--- .... ....
 F-4|..|--- .... ....|F-3 2C.F ....|--- .... ....
....|..|--- .... ....|--- .... ....|--- .... ....
 F-4|..|--- .... ....|F-3 2C.F ....|--- .... ....
....|..|--- .... ....|--- .... ....|--- .... ....
....|..|--- .... ....|--- .... ....|--- .... ....
....|..|--- .... ....|--- .... ....|--- .... ....
 F-4|..|--- .... ....|F-3 2C.F ....|--- .... ....
....|..|--- .... ....|--- .... ....|--- .... ....
....|..|--- .... ....|C-4 2F.7 ....|--- .... ....
....|..|--- .... ....|--- .... ....|--- .... ....
 F-4|..|--- .... ....|F-3 2C.F ....|--- .... ....
....|..|--- .... ....|--- .... ....|--- .... ....
....|..|--- .... ....|F-4 2F.7 ....|--- .... ....
....|..|--- .... ....|--- .... ....|--- .... ....
 F-4|..|--- .... ....|F-4 2C.F ....|--- .... ....
....|..|--- .... ....|--- .... ....|--- .... ....
....|..|--- .... ....|--- .... ....|--- .... ....
....|..|--- .... ....|--- .... ....|--- .... ....
....|..|--- .... ....|F-3 2F.A ....|--- .... ....
....|..|--- .... ....|--- .... ....|--- .... ....
 F-4|..|F-5 2C.F ....|D-3 2F.F ....|--- .... ....
....|..|--- .... ....|--- .... ....|--- .... ....
 E-4|..|E-5 2C.F ....|D-3 2F.F ....|--- .... ....
....|..|--- .... ....|--- .... ....|--- .... ....
 C-4|..|C-5 2C.F ....|F-3 2F.7 ....|--- .... ....
....|..|--- .... ....|--- .... ....|--- .... ....
 A-3|..|A-4 2C.F ....|F-3 2F.7 ....|--- .... ....
....|..|--- .... ....|--- .... ....|--- .... ....
 D-4|..|--- .F.. ....|D-3 2C.F ....|--- .... ....
....|..|--- .... ....|--- .... ....|--- .... ....
....|..|--- .... ....|F-3 2F.7 ....|--- .... ....
....|..|--- .... ....|--- .... ....|--- .... ....
 D-4|..|F-5 2F.A ....|D-3 2C.F ....|--- .... ....
....|..|--- .... ....|--- .... ....|--- .... ....
 D-4|..|E-5 2F.A ....|D-3 2C.F ....|--- .... ....
....|..|--- .... ....|--- .... ....|--- .... ....
....|..|C-5 2F.A ....|--- .... ....|--- .... ....
....|..|--- .... ....|--- .... ....|--- .... ....
 D-4|..|A-4 2F.A ....|D-3 2C.F ....|--- .... ....
....|..|--- .... ....|--- .... ....|--- .... ....
....|..|--- .... ....|D-3 2F.A ....|--- .... ....
....|..|--- .... ....|--- .... ....|--- .... ....
 D-4|..|--- .... ....|D-3 2C.F ....|--- .... ....
....|..|--- .... ....|--- .... ....|--- .... ....
 C-4|..|C-5 2C.F ....|D-3 2F.7 ....|--- .... ....
....|..|--- .... ....|--- .... ....|--- .... ....
 D-4|..|E-5 2F.7 ....|D-3 2C.F ....|--- .... ....
....|..|--- .... ....|--- .... ....|--- .... ....
 E-4|..|C-5 2F.7 ....|E-4 2C.F ....|--- .... ....
....|..|--- .... ....|--- .... ....|--- .... ....
....|..|A-4 2F.7 ....|D-3 2F.A ....|--- .... ....
....|..|--- .... ....|--- .... ....|--- .... ....

[Pattern11]
 F-4|..|--- .... ....|F-3 2C.F ....|--- .... ....
....|..|--- .... ....|--- .... ....|--- .... ....
 F-4|..|--- .... ....|F-3 2C.F ....|--- .... ....
....|..|--- .... ....|--- .... ....|--- .... ....
....|..|C-5 2F.A ....|D-3 2F.7 ....|--- .... ....
....|..|--- .... ....|--- .... ....|--- .... ....
....|..|--- .... ....|D-3 2F.7 ....|--- .... ....
....|..|--- .... ....|--- .... ....|--- .... ....
 F-4|..|--- .... ....|F-3 2C.F ....|--- .... ....
....|..|--- .... ....|--- .... ....|--- .... ....
....|..|--- .... ....|D-3 2F.7 ....|--- .... ....
....|..|--- .... ....|--- .... ....|--- .... ....
 F-4|..|--- .... ....|F-3 2C.F ....|--- .... ....
....|..|--- .... ....|--- .... ....|--- .... ....
 F-4|..|--- .... ....|F-3 2C.F ....|--- .... ....
....|..|--- .... ....|--- .... ....|--- .... ....
....|..|C-5 2F.7 ....|--- .... ....|--- .... ....
....|..|--- .... ....|--- .... ....|--- .... ....
 E-4|..|--- .... ....|E-3 2C.F ....|--- .... ....
....|..|--- .... ....|--- .... ....|--- .... ....
....|..|--- .... ....|E-4 2F.7 ....|--- .... ....
....|..|--- .... ....|--- .... ....|--- .... ....
 A-3|..|A-4 2C.F ....|E-3 2F.F ....|--- .... ....
....|..|--- .... ....|--- .... ....|--- .... ....
 B-4|..|B-4 2C.F ....|F-3 2F.7 ....|--- .... ....
....|..|--- .... ....|--- .... ....|--- .... ....
 C-4|..|C-5 2C.F ....|E-3 2F.F ....|--- .... ....
....|..|--- .... ....|--- .... ....|--- .... ....
 G#4|..|--- .F.. ....|G#3 2C.F ....|--- .... ....
....|..|--- .... ....|--- .... ....|--- .... ....
 E-4|..|--- .F.. ....|E-3 2C.F ....|--- .... ....
....|..|--- .... ....|--- .... ....|--- .... ....
 A-3|..|A-4 2C.F ....|A-4 2C.F ....|--- .... ....
....|..|--- .... ....|--- .... ....|--- .... ....
 B-4|..|B-4 2C.F ....|A-3 2F.F ....|--- .... ....
....|..|--- .... ....|--- .... ....|--- .... ....
 C-4|..|C-5 2C.F ....|F-3 2F.7 ....|--- .... ....
....|..|--- .... ....|--- .... ....|--- .... ....
 G-4|..|G-5 2C.F ....|F-3 2F.7 ....|--- .... ....
....|..|--- .... ....|--- .... ....|--- .... ....
 A-3|..|--- .F.. ....|A-3 2C.F ....|--- .... ....
....|..|--- .... ....|--- .... ....|--- .... ....
....|..|--- .... ....|E-3 2F.7 ....|--- .... ....
....|..|--- .... ....|--- .... ....|--- .... ....
 A-3|..|A-4 2F.A ....|A-3 2C.F ....|--- .... ....
....|..|--- .... ....|--- .... ....|--- .... ....
 A-3|..|A-4 2F.7 ....|A-3 2C.F ....|--- .... ....
....|..|--- .... ....|--- .... ....|--- .... ....
....|..|B-4 2F.7 ....|--- .... ....|--- .... ....
....|..|--- .... ....|--- .... ....|--- .... ....
 A-3|..|C-5 2F.7 ....|A-3 2C.F ....|--- .... ....
....|..|--- .... ....|--- .... ....|--- .... ....
....|..|--- .... ....|G#3 2F.7 ....|--- .... ....
....|..|--- .... ....|--- .... ....|--- .... ....
 A-3|..|--- .... ....|A-3 2C.F ....|--- .... ....
....|..|--- .... ....|--- .... ....|--- .... ....
....|..|A-4 2F.7 ....|A-3 2F.7 ....|--- .... ....
....|..|--- .... ....|--- .... ....|--- .... ....
 A-3|..|B-4 2F.7 ....|A-3 2C.F ....|--- .... ....
....|..|--- .... ....|--- .... ....|--- .... ....
 C-4|..|C-5 2F.7 ....|C-4 2C.F ....|--- .... ....
....|..|--- .... ....|--- .... ....|--- .... ....
 A-3|..|G-5 2F.7 ....|A-3 2C.F ....|--- .... ....
....|..|--- .... ....|--- .... ....|--- .... ....
 A-3|..|--- .... ....|A-4 2C.F ....|--- .... ....
....|..|--- .... ....|--- .... ....|--- .... ....
 A-3|..|--- .... ....|A-3 2C.F ....|--- .... ....
....|..|--- .... ....|--- .... ....|--- .... ....
....|..|--- .... ....|A-3 2F.7 ....|--- .... ....
....|..|--- .... ....|--- .... ....|--- .... ....
....|..|--- .... ....|A-3 2F.7 ....|--- .... ....
....|..|--- .... ....|--- .... ....|--- .... ....
 A-3|..|--- .... ....|A-3 2C.F ....|--- .... ....
....|..|--- .... ....|--- .... ....|--- .... ....
....|..|--- .... ....|A-3 2F.7 ....|--- .... ....
....|..|--- .... ....|--- .... ....|--- .... ....
 A-3|..|--- .... ....|A-3 2C.F ....|--- .... ....
....|..|--- .... ....|--- .... ....|--- .... ....
 A-3|..|--- .... ....|A-3 2C.F ....|--- .... ....
....|..|--- .... ....|--- .... ....|--- .... ....
....|..|--- .... ....|--- .... ....|--- .... ....
....|..|--- .... ....|--- .... ....|--- .... ....
 A-3|..|--- .... ....|A-3 2C.F ....|--- .... ....
....|..|--- .... ....|--- .... ....|--- .... ....
....|..|--- .... ....|C-4 2F.7 ....|--- .... ....
....|..|--- .... ....|--- .... ....|--- .... ....
 A-3|..|--- .... ....|A-3 2C.F ....|--- .... ....
....|..|--- .... ....|--- .... ....|--- .... ....
....|..|--- .... ....|A-4 2F.7 ....|--- .... ....
....|..|--- .... ....|--- .... ....|--- .... ....
 C-4|..|--- .... ....|C-4 2C.F ....|--- .... ....
....|..|--- .... ....|--- .... ....|--- .... ....
....|..|--- .... ....|--- .... ....|--- .... ....
....|..|--- .... ....|--- .... ....|--- .... ....
....|..|--- .... ....|A-3 2F.A ....|--- .... ....
....|..|--- .... ....|--- .... ....|--- .... ....
 A-3|..|A-4 2C.F ....|A-4 2C.F ....|--- .... ....
....|..|--- .... ....|--- .... ....|--- .... ....
 B-4|..|B-4 2C.F ....|A-3 2F.F ....|--- .... ....
....|..|--- .... ....|--- .... ....|--- .... ....
 C-4|..|C-5 2C.F ....|A-3 2F.7 ....|--- .... ....
....|..|--- .... ....|--- .... ....|--- .... ....
 G-4|..|G-5 2C.F ....|A-3 2F.7 ....|--- .... ....
....|..|--- .... ....|--- .... ....|--- .... ....
 A-3|..|--- .F.. ....|A-3 2C.F ....|--- .... ....
....|..|--- .... ....|--- .... ....|--- .... ....
....|..|--- .... ....|A-3 2F.7 ....|--- .... ....
....|..|--- .... ....|--- .... ....|--- .... ....
 A-3|..|A-4 2F.A ....|A-3 2C.F ....|--- .... ....
....|..|--- .... ....|--- .... ....|--- .... ....
 A-3|..|B-4 2F.A ....|A-3 2C.F ....|--- .... ....
....|..|--- .... ....|--- .... ....|--- .... ....
....|..|C-5 2F.A ....|--- .... ....|--- .... ....
....|..|--- .... ....|--- .... ....|--- .... ....
 A-3|..|G-5 2F.A ....|A-3 2C.F ....|--- .... ....
....|..|--- .... ....|--- .... ....|--- .... ....
....|..|--- .... ....|A-3 2F.A ....|--- .... ....
....|..|--- .... ....|--- .... ....|--- .... ....
 A-3|..|--- .... ....|A-3 2C.F ....|--- .... ....
....|..|--- .... ....|--- .... ....|--- .... ....
....|..|A-4 2F.7 ....|A-3 2F.7 ....|--- .... ....
....|..|--- .... ....|--- .... ....|--- .... ....
 A-3|..|B-4 2F.7 ....|A-3 2C.F ....|--- .... ....
....|..|--- .... ....|--- .... ....|--- .... ....
 B-4|..|C-5 2F.7 ....|B-4 2C.F ....|--- .... ....
....|..|--- .... ....|--- .... ....|--- .... ....
....|..|G-5 2F.7 ....|A-3 2F.A ....|--- .... ....
....|..|--- .... ....|--- .... ....|--- .... ....

[Pattern13]
 F-4|..|--- .... ....|F-3 2C.F ....|--- .... ....
....|..|--- .... ....|--- .... ....|--- .... ....
 F-4|..|--- .... ....|F-3 2C.F ....|--- .... ....
....|..|--- .... ....|--- .... ....|--- .... ....
....|..|C-5 2F.A ....|D-3 2F.7 ....|--- .... ....
....|..|--- .... ....|--- .... ....|--- .... ....
....|..|--- .... ....|D-3 2F.7 ....|--- .... ....
....|..|--- .... ....|--- .... ....|--- .... ....
 F-4|..|--- .... ....|F-3 2C.F ....|--- .... ....
....|..|--- .... ....|--- .... ....|--- .... ....
....|..|--- .... ....|D-3 2F.7 ....|--- .... ....
....|..|--- .... ....|--- .... ....|--- .... ....
 F-4|..|--- .... ....|F-3 2C.F ....|--- .... ....
....|..|--- .... ....|--- .... ....|--- .... ....
 F-4|..|--- .... ....|F-3 2C.F ....|--- .... ....
....|..|--- .... ....|--- .... ....|--- .... ....
....|..|C-5 2F.7 ....|--- .... ....|--- .... ....
....|..|--- .... ....|--- .... ....|--- .... ....
 E-4|..|--- .... ....|E-3 2C.F ....|--- .... ....
....|..|--- .... ....|--- .... ....|--- .... ....
....|..|--- .... ....|E-4 2F.7 ....|--- .... ....
....|..|--- .... ....|--- .... ....|--- .... ....
 A-3|..|A-4 2C.F ....|E-3 2F.F ....|--- .... ....
....|..|--- .... ....|--- .... ....|--- .... ....
 B-4|..|B-4 2C.F ....|F-3 2F.7 ....|--- .... ....
....|..|--- .... ....|--- .... ....|--- .... ....
 C-4|..|C-5 2C.F ....|E-3 2F.F ....|--- .... ....
....|..|--- .... ....|--- .... ....|--- .... ....
 G#4|..|--- .F.. ....|G#3 2C.F ....|--- .... ....
....|..|--- .... ....|--- .... ....|--- .... ....
 E-4|..|--- .F.. ....|E-3 2C.F ....|--- .... ....
....|..|--- .... ....|--- .... ....|--- .... ....
 A-3|..|F-4 2F.F ....|A-3 2C.F ....|--- .... ....
....|..|--- .... ....|--- .... ....|--- .... ....
 A-3|..|E-4 2F.F ....|A-3 2C.F ....|--- .... ....
....|..|--- .... ....|--- .... ....|--- .... ....
....|..|A-3 2F.F ....|F-3 2F.7 ....|--- .... ....
....|..|--- .... ....|--- .... ....|--- .... ....
....|..|F-4 2F.F ....|F-3 2F.7 ....|--- .... ....
....|..|--- .... ....|--- .... ....|--- .... ....
 A-3|..|E-4 2F.F ....|A-3 2C.F ....|--- .... ....
....|..|--- .... ....|--- .... ....|--- .... ....
....|..|A-3 2F.F ....|E-3 2F.7 ....|--- .... ....
....|..|--- .... ....|--- .... ....|--- .... ....
 A-3|..|F-4 2F.F ....|A-3 2C.F ....|--- .... ....
....|..|--- .... ....|--- .... ....|--- .... ....
 A-3|..|E-4 2F.F ....|A-3 2C.F ....|--- .... ....
....|..|--- .... ....|--- .... ....|--- .... ....
....|..|A-3 2F.F ....|--- .... ....|--- .... ....
....|..|--- .... ....|--- .... ....|--- .... ....
 A-3|..|F-4 2F.F ....|A-3 2C.F ....|--- .... ....
....|..|--- .... ....|--- .... ....|--- .... ....
....|..|E-4 2F.F ....|G#3 2F.7 ....|--- .... ....
....|..|--- .... ....|--- .... ....|--- .... ....
 A-3|..|A-3 2F.F ....|A-3 2C.F ....|--- .... ....
....|..|--- .... ....|--- .... ....|--- .... ....
....|..|F-4 2F.F ....|A-3 2F.7 ....|--- .... ....
....|..|--- .... ....|--- .... ....|--- .... ....
 A-3|..|E-4 2F.F ....|A-3 2C.F ....|--- .... ....
....|..|--- .... ....|--- .... ....|--- .... ....
 C-4|..|A-3 2F.F ....|C-4 2C.F ....|--- .... ....
....|..|--- .... ....|--- .... ....|--- .... ....
 A-3|..|F-4 2F.F ....|A-3 2C.F ....|--- .... ....
....|..|--- .... ....|--- .... ....|--- .... ....
 A-3|..|E-4 2F.F ....|A-4 2C.F ....|--- .... ....
....|..|--- .... ....|--- .... ....|--- .... ....
 A-3|..|A-3 2F.F ....|A-3 2C.F ....|--- .... ....
....|..|--- .... ....|--- .... ....|--- .... ....
....|..|F-4 2F.F ....|A-3 2F.7 ....|--- .... ....
....|..|--- .... ....|--- .... ....|--- .... ....
....|..|E-4 2F.F ....|A-3 2F.7 ....|--- .... ....
....|..|--- .... ....|--- .... ....|--- .... ....
 A-3|..|A-3 2F.F ....|A-3 2C.F ....|--- .... ....
....|..|--- .... ....|--- .... ....|--- .... ....
....|..|F-4 2F.F ....|A-3 2F.7 ....|--- .... ....
....|..|--- .... ....|--- .... ....|--- .... ....
 A-3|..|E-4 2F.F ....|A-3 2C.F ....|--- .... ....
....|..|--- .... ....|--- .... ....|--- .... ....
 A-3|..|A-3 2F.F ....|A-3 2C.F ....|--- .... ....
....|..|--- .... ....|--- .... ....|--- .... ....
....|..|F-4 2F.F ....|--- .... ....|--- .... ....
....|..|--- .... ....|--- .... ....|--- .... ....
 A-3|..|E-4 2F.F ....|A-3 2C.F ....|--- .... ....
....|..|--- .... ....|--- .... ....|--- .... ....
....|..|A-3 2F.F ....|C-4 2F.7 ....|--- .... ....
....|..|--- .... ....|--- .... ....|--- .... ....
 A-3|..|F-4 2F.F ....|A-3 2C.F ....|--- .... ....
....|..|--- .... ....|--- .... ....|--- .... ....
....|..|E-4 2F.F ....|A-4 2F.7 ....|--- .... ....
....|..|--- .... ....|--- .... ....|--- .... ....
 C-4|..|A-3 2F.F ....|C-4 2C.F ....|--- .... ....
....|..|--- .... ....|--- .... ....|--- .... ....
....|..|F-4 2F.F ....|--- .... ....|--- .... ....
....|..|--- .... ....|--- .... ....|--- .... ....
....|..|E-4 2F.F ....|A-3 2F.A ....|--- .... ....
....|..|--- .... ....|--- .... ....|--- .... ....
 A-3|..|A-3 2F.F ....|A-3 2C.F ....|--- .... ....
....|..|--- .... ....|--- .... ....|--- .... ....
 A-3|..|F-4 2F.F ....|A-3 2C.F ....|--- .... ....
....|..|--- .... ....|--- .... ....|--- .... ....
....|..|E-4 2F.F ....|A-3 2F.7 ....|--- .... ....
....|..|--- .... ....|--- .... ....|--- .... ....
....|..|A-3 2F.F ....|A-3 2F.7 ....|--- .... ....
....|..|--- .... ....|--- .... ....|--- .... ....
 A-3|..|F-4 2F.F ....|A-3 2C.F ....|--- .... ....
....|..|--- .... ....|--- .... ....|--- .... ....
....|..|E-4 2F.F ....|A-3 2F.7 ....|--- .... ....
....|..|--- .... ....|--- .... ....|--- .... ....
 A-3|..|A-3 2F.F ....|A-3 2C.F ....|--- .... ....
....|..|--- .... ....|--- .... ....|--- .... ....
 A-3|..|F-4 2F.F ....|A-3 2C.F ....|--- .... ....
....|..|--- .... ....|--- .... ....|--- .... ....
....|..|E-4 2F.F ....|--- .... ....|--- .... ....
....|..|--- .... ....|--- .... ....|--- .... ....
 A-3|..|A-3 2F.F ....|A-3 2C.F ....|--- .... ....
....|..|--- .... ....|--- .... ....|--- .... ....
....|..|F-4 2F.F ....|A-3 2F.A ....|--- .... ....
....|..|--- .... ....|--- .... ....|--- .... ....
 A-3|..|E-4 2F.F ....|A-3 2C.F ....|--- .... ....
....|..|--- .... ....|--- .... ....|--- .... ....
....|..|A-3 2F.F ....|A-3 2F.7 ....|--- .... ....
....|..|--- .... ....|--- .... ....|--- .... ....
 A-3|..|F-4 2F.F ....|A-3 2C.F ....|--- .... ....
....|..|--- .... ....|--- .... ....|--- .... ....
 B-4|..|E-4 2F.F ....|B-4 2C.F ....|--- .... ....
....|..|--- .... ....|--- .... ....|--- .... ....
....|..|A-3 2F.F ....|A-3 2F.A ....|--- .... ....
....|..|--- .... ....|--- .... ....|--- .... ....

[Pattern14]
 A-3|..|F-4 2F.F ....|A-4 2C.F ....|--- .... ....
....|..|--- .... ....|--- .... ....|--- .... ....
 C-4|..|E-4 2F.F ....|C-4 2C.F ....|--- .... ....
....|..|--- .... ....|--- .... ....|--- .... ....
....|..|A-3 2F.F ....|A-3 2F.7 ....|--- .... ....
....|..|--- .... ....|--- .... ....|--- .... ....
....|..|F-4 2F.F ....|A-3 2F.7 ....|--- .... ....
....|..|--- .... ....|--- .... ....|--- .... ....
 A-3|..|E-4 2F.F ....|A-3 2C.F ....|--- .... ....
....|..|--- .... ....|--- .... ....|--- .... ....
....|..|A-3 2F.F ....|A-3 2F.7 ....|--- .... ....
....|..|--- .... ....|--- .... ....|--- .... ....
 A-3|..|F-4 2F.F ....|A-3 2C.F ....|--- .... ....
....|..|--- .... ....|--- .... ....|--- .... ....
 A-3|..|E-4 2F.F ....|A-3 2C.F ....|--- .... ....
....|..|--- .... ....|--- .... ....|--- .... ....
....|..|A-3 2F.F ....|--- .... ....|--- .... ....
....|..|--- .... ....|--- .... ....|--- .... ....
 A-3|..|F-4 2F.F ....|A-3 2C.F ....|--- .... ....
....|..|--- .... ....|--- .... ....|--- .... ....
....|..|E-4 2F.F ....|B-4 2F.7 ....|--- .... ....
....|..|--- .... ....|--- .... ....|--- .... ....
 A-3|..|A-3 2F.F ....|A-3 2C.F ....|--- .... ....
....|..|--- .... ....|--- .... ....|--- .... ....
....|..|F-4 2F.F ....|A-4 2F.7 ....|--- .... ....
....|..|--- .... ....|--- .... ....|--- .... ....
 A-3|..|E-4 2F.F ....|A-3 2C.F ....|--- .... ....
....|..|--- .... ....|--- .... ....|--- .... ....
 C-4|..|A-3 2F.F ....|C-4 2C.F ....|--- .... ....
....|..|--- .... ....|--- .... ....|--- .... ....
 A-3|..|F-4 2F.F ....|A-3 2C.F ....|--- .... ....
....|..|--- .... ....|--- .... ....|--- .... ....
 F-4|..|E-4 2F.F ....|F-3 2C.F ....|--- .... ....
....|..|--- .... ....|--- .... ....|--- .... ....
 F-4|..|C-4 2F.F ....|F-3 2C.F ....|--- .... ....
....|..|--- .... ....|--- .... ....|--- .... ....
....|..|F-4 2F.F ....|A-3 2F.7 ....|--- .... ....
....|..|--- .... ....|--- .... ....|--- .... ....
....|..|E-4 2F.F ....|A-3 2F.7 ....|--- .... ....
....|..|--- .... ....|--- .... ....|--- .... ....
 F-4|..|C-4 2F.F ....|F-3 2C.F ....|--- .... ....
....|..|--- .... ....|--- .... ....|--- .... ....
....|..|F-4 2F.F ....|A-3 2F.7 ....|--- .... ....
....|..|--- .... ....|--- .... ....|--- .... ....
 F-4|..|E-4 2F.F ....|F-3 2C.F ....|--- .... ....
....|..|--- .... ....|--- .... ....|--- .... ....
 F-4|..|C-4 2F.F ....|F-3 2C.F ....|--- .... ....
....|..|--- .... ....|--- .... ....|--- .... ....
....|..|F-4 2F.F ....|--- .... ....|--- .... ....
....|..|--- .... ....|--- .... ....|--- .... ....
 F-4|..|E-4 2F.F ....|F-3 2C.F ....|--- .... ....
....|..|--- .... ....|--- .... ....|--- .... ....
....|..|C-4 2F.F ....|C-4 2F.7 ....|--- .... ....
....|..|--- .... ....|--- .... ....|--- .... ....
 F-4|..|F-4 2F.F ....|F-3 2C.F ....|--- .... ....
....|..|--- .... ....|--- .... ....|--- .... ....
....|..|E-4 2F.F ....|F-3 2F.7 ....|--- .... ....
....|..|--- .... ....|--- .... ....|--- .... ....
 F-4|..|C-4 2F.F ....|F-3 2C.F ....|--- .... ....
....|..|--- .... ....|--- .... ....|--- .... ....
 C-4|..|F-4 2F.F ....|C-4 2C.F ....|--- .... ....
....|..|--- .... ....|--- .... ....|--- .... ....
 F-4|..|E-4 2F.F ....|F-3 2C.F ....|--- .... ....
....|..|--- .... ....|--- .... ....|--- .... ....
 F-4|..|C-4 2F.F ....|F-4 2C.F ....|--- .... ....
....|..|--- .... ....|--- .... ....|--- .... ....
 F-4|..|F-4 2F.F ....|F-3 2C.F ....|--- .... ....
....|..|--- .... ....|--- .... ....|--- .... ....
....|..|E-4 2F.F ....|F-3 2F.7 ....|--- .... ....
....|..|--- .... ....|--- .... ....|--- .... ....
....|..|C-4 2F.F ....|F-3 2F.7 ....|--- .... ....
....|..|--- .... ....|--- .... ....|--- .... ....
 F-4|..|F-4 2F.F ....|F-3 2C.F ....|--- .... ....
....|..|--- .... ....|--- .... ....|--- .... ....
....|..|E-4 2F.F ....|F-3 2F.7 ....|--- .... ....
....|..|--- .... ....|--- .... ....|--- .... ....
 F-4|..|C-4 2F.F ....|F-3 2C.F ....|--- .... ....
....|..|--- .... ....|--- .... ....|--- .... ....
 F-4|..|F-4 2F.F ....|F-3 2C.F ....|--- .... ....
....|..|--- .... ....|--- .... ....|--- .... ....
....|..|E-4 2F.F ....|--- .... ....|--- .... ....
....|..|--- .... ....|--- .... ....|--- .... ....
 F-4|..|C-4 2F.F ....|F-3 2C.F ....|--- .... ....
....|..|--- .... ....|--- .... ....|--- .... ....
....|..|F-4 2F.F ....|C-4 2F.7 ....|--- .... ....
....|..|--- .... ....|--- .... ....|--- .... ....
 F-4|..|E-4 2F.F ....|F-3 2C.F ....|--- .... ....
....|..|--- .... ....|--- .... ....|--- .... ....
....|..|C-4 2F.F ....|F-4 2F.7 ....|--- .... ....
....|..|--- .... ....|--- .... ....|--- .... ....
 F-4|..|F-4 2F.F ....|F-4 2C.F ....|--- .... ....
....|..|--- .... ....|--- .... ....|--- .... ....
....|..|E-4 2F.F ....|--- .... ....|--- .... ....
....|..|--- .... ....|--- .... ....|--- .... ....
....|..|C-4 2F.F ....|F-3 2F.A ....|--- .... ....
....|..|--- .... ....|--- .... ....|--- .... ....
 D-4|..|F-4 2F.F ....|D-3 2C.F ....|--- .... ....
....|..|--- .... ....|--- .... ....|--- .... ....
 D-4|..|E-4 2F.F ....|D-3 2C.F ....|--- .... ....
....|..|--- .... ....|--- .... ....|--- .... ....
....|..|A-3 2F.F ....|F-3 2F.7 ....|--- .... ....
....|..|--- .... ....|--- .... ....|--- .... ....
....|..|F-4 2F.F ....|F-3 2F.7 ....|--- .... ....
....|..|--- .... ....|--- .... ....|--- .... ....
 D-4|..|E-4 2F.F ....|D-3 2C.F ....|--- .... ....
....|..|--- .... ....|--- .... ....|--- .... ....
....|..|A-3 2F.F ....|F-3 2F.7 ....|--- .... ....
....|..|--- .... ....|--- .... ....|--- .... ....
 D-4|..|F-4 2F.F ....|D-3 2C.F ....|--- .... ....
....|..|--- .... ....|--- .... ....|--- .... ....
 D-4|..|E-4 2F.F ....|D-3 2C.F ....|--- .... ....
....|..|--- .... ....|--- .... ....|--- .... ....
....|..|A-3 2F.F ....|--- .... ....|--- .... ....
....|..|--- .... ....|--- .... ....|--- .... ....
 D-4|..|F-4 2F.F ....|D-3 2C.F ....|--- .... ....
....|..|--- .... ....|--- .... ....|--- .... ....
....|..|E-4 2F.F ....|D-3 2F.A ....|--- .... ....
....|..|--- .... ....|--- .... ....|--- .... ....
 D-4|..|A-3 2F.F ....|D-3 2C.F ....|--- .... ....
....|..|--- .... ....|--- .... ....|--- .... ....
....|..|F-4 2F.F ....|D-3 2F.7 ....|--- .... ....
....|..|--- .... ....|--- .... ....|--- .... ....
 D-4|..|E-4 2F.F ....|D-3 2C.F ....|--- .... ....
....|..|--- .... ....|--- .... ....|--- .... ....
 E-4|..|A-3 2F.F ....|E-4 2C.F ....|--- .... ....
....|..|--- .... ....|--- .... ....|--- .... ....
....|..|F-4 2F.F ....|D-3 2F.A ....|--- .... ....
....|..|--- .... ....|--- .... ....|--- .... ....

[Pattern15]
 F-4|..|E-4 2F.F ....|F-3 2C.F ....|--- .... ....
....|..|--- .... ....|--- .... ....|--- .... ....
 F-4|..|G#3 2F.F ....|F-3 2C.F ....|--- .... ....
....|..|--- .... ....|--- .... ....|--- .... ....
....|..|F-4 2F.F ....|D-3 2F.7 ....|--- .... ....
....|..|--- .... ....|--- .... ....|--- .... ....
....|..|E-4 2F.F ....|D-3 2F.7 ....|--- .... ....
....|..|--- .... ....|--- .... ....|--- .... ....
 F-4|..|G#3 2F.F ....|F-3 2C.F ....|--- .... ....
....|..|--- .... ....|--- .... ....|--- .... ....
....|..|F-4 2F.F ....|D-3 2F.7 ....|--- .... ....
....|..|--- .... ....|--- .... ....|--- .... ....
 F-4|..|E-4 2F.F ....|F-3 2C.F ....|--- .... ....
....|..|--- .... ....|--- .... ....|--- .... ....
 F-4|..|G#3 2F.F ....|F-3 2C.F ....|--- .... ....
....|..|--- .... ....|--- .... ....|--- .... ....
....|..|F-4 2F.F ....|--- .... ....|--- .... ....
....|..|--- .... ....|--- .... ....|--- .... ....
 E-4|..|E-4 2F.F ....|E-3 2C.F ....|--- .... ....
....|..|--- .... ....|--- .... ....|--- .... ....
....|..|G#3 2F.F ....|E-4 2F.7 ....|--- .... ....
....|..|--- .... ....|--- .... ....|--- .... ....
 E-4|..|F-4 2F.F ....|E-3 2C.F ....|--- .... ....
....|..|--- .... ....|--- .... ....|--- .... ....
....|..|E-4 2F.F ....|F-3 2F.7 ....|--- .... ....
....|..|--- .... ....|--- .... ....|--- .... ....
 E-4|..|B-3 2F.F ....|E-3 2C.F ....|--- .... ....
....|..|--- .... ....|--- .... ....|--- .... ....
 G#4|..|F-4 2F.7 ....|G#3 2C.F ....|--- .... ....
....|..|G#3 2F.F ....|--- .... ....|--- .... ....
 E-4|..|E-4 2F.7 ....|E-3 2C.F ....|--- .... ....
....|..|--- .... ....|--- .... ....|--- .... ....
 A-3|..|F-4 2F.F ....|A-3 2C.F ....|--- .... ....
....|..|--- .... ....|--- .... ....|--- .... ....
 A-3|..|E-4 2F.F ....|A-3 2C.F ....|--- .... ....
....|..|--- .... ....|--- .... ....|--- .... ....
....|..|A-3 2F.F ....|F-3 2F.7 ....|--- .... ....
....|..|--- .... ....|--- .... ....|--- .... ....
....|..|F-4 2F.F ....|F-3 2F.7 ....|--- .... ....
....|..|--- .... ....|--- .... ....|--- .... ....
 A-3|..|E-4 2F.F ....|A-3 2C.F ....|--- .... ....
....|..|G#3 2F.A ....|--- .... ....|--- .... ....
....|..|A-3 2F.F ....|E-3 2F.7 ....|--- .... ....
....|..|--- .... ....|--- .... ....|--- .... ....
 A-3|..|F-4 2F.F ....|A-3 2C.F ....|--- .... ....
....|..|--- .... ....|--- .... ....|--- .... ....
 A-3|..|E-4 2F.F ....|A-3 2C.F ....|--- .... ....
....|..|--- .... ....|--- .... ....|--- .... ....
....|..|A-3 2F.F ....|--- .... ....|--- .... ....
....|..|--- .... ....|--- .... ....|--- .... ....
 A-3|..|F-4 2F.F ....|A-3 2C.F ....|--- .... ....
....|..|--- .... ....|--- .... ....|--- .... ....
....|..|E-4 2F.F ....|G#3 2F.7 ....|--- .... ....
....|..|G#3 2F.7 ....|--- .... ....|--- .... ....
 A-3|..|A-3 2F.F ....|A-3 2C.F ....|--- .... ....
....|..|--- .... ....|--- .... ....|--- .... ....
....|..|F-4 2F.F ....|A-3 2F.7 ....|--- .... ....
....|..|--- .... ....|--- .... ....|--- .... ....
 A-3|..|E-4 2F.F ....|A-3 2C.F ....|--- .... ....
....|..|--- .... ....|--- .... ....|--- .... ....
 C-4|..|A-3 2F.F ....|C-4 2C.F ....|--- .... ....
....|..|--- .... ....|--- .... ....|--- .... ....
 A-3|..|F-4 2F.F ....|A-3 2C.F ....|--- .... ....
....|..|--- .... ....|--- .... ....|--- .... ....
 A-3|..|E-4 2F.F ....|A-4 2C.F ....|--- .... ....
....|..|--- .... ....|--- .... ....|--- .... ....
 A-3|..|A-3 2F.F ....|A-3 2C.F ....|--- .... ....
....|..|--- .... ....|--- .... ....|--- .... ....
....|..|F-4 2F.F ....|A-3 2F.7 ....|--- .... ....
....|..|--- .... ....|--- .... ....|--- .... ....
....|..|E-4 2F.F ....|A-3 2F.7 ....|--- .... ....
....|..|--- .... ....|--- .... ....|--- .... ....
 A-3|..|A-3 2F.F ....|A-3 2C.F ....|--- .... ....
....|..|--- .... ....|--- .... ....|--- .... ....
....|..|F-4 2F.F ....|A-3 2F.7 ....|--- .... ....
....|..|--- .... ....|--- .... ....|--- .... ....
 A-3|..|E-4 2F.F ....|A-3 2C.F ....|--- .... ....
....|..|--- .... ....|--- .... ....|--- .... ....
 A-3|..|A-3 2F.F ....|A-3 2C.F ....|--- .... ....
....|..|--- .... ....|--- .... ....|--- .... ....
....|..|F-4 2F.F ....|--- .... ....|--- .... ....
....|..|--- .... ....|--- .... ....|--- .... ....
 A-3|..|E-4 2F.F ....|A-3 2C.F ....|--- .... ....
....|..|--- .... ....|--- .... ....|--- .... ....
....|..|A-3 2F.F ....|C-4 2F.7 ....|--- .... ....
....|..|--- .... ....|--- .... ....|--- .... ....
 A-3|..|F-4 2F.F ....|A-3 2C.F ....|--- .... ....
....|..|--- .... ....|--- .... ....|--- .... ....
....|..|E-4 2F.F ....|A-4 2F.7 ....|--- .... ....
....|..|--- .... ....|--- .... ....|--- .... ....
 C-4|..|A-3 2F.F ....|C-4 2C.F ....|--- .... ....
....|..|--- .... ....|--- .... ....|--- .... ....
....|..|F-4 2F.F ....|--- .... ....|--- .... ....
....|..|--- .... ....|--- .... ....|--- .... ....
....|..|E-4 2F.F ....|A-3 2F.A ....|--- .... ....
....|..|--- .... ....|--- .... ....|--- .... ....
 A-3|..|A-3 2F.F ....|A-3 2C.F ....|--- .... ....
....|..|--- .... ....|--- .... ....|--- .... ....
 A-3|..|F-4 2F.F ....|A-3 2C.F ....|--- .... ....
....|..|--- .... ....|--- .... ....|--- .... ....
....|..|E-4 2F.F ....|A-3 2F.7 ....|--- .... ....
....|..|--- .... ....|--- .... ....|--- .... ....
....|..|A-3 2F.F ....|A-3 2F.7 ....|--- .... ....
....|..|--- .... ....|--- .... ....|--- .... ....
 A-3|..|F-4 2F.F ....|A-3 2C.F ....|--- .... ....
....|..|--- .... ....|--- .... ....|--- .... ....
....|..|E-4 2F.F ....|A-3 2F.7 ....|--- .... ....
....|..|--- .... ....|--- .... ....|--- .... ....
 A-3|..|A-3 2F.F ....|A-3 2C.F ....|--- .... ....
....|..|--- .... ....|--- .... ....|--- .... ....
 A-3|..|F-4 2F.F ....|A-3 2C.F ....|--- .... ....
....|..|--- .... ....|--- .... ....|--- .... ....
....|..|E-4 2F.F ....|--- .... ....|--- .... ....
....|..|--- .... ....|--- .... ....|--- .... ....
 A-3|..|A-3 2F.F ....|A-3 2C.F ....|--- .... ....
....|..|--- .... ....|--- .... ....|--- .... ....
....|..|F-4 2F.F ....|A-3 2F.A ....|--- .... ....
....|..|--- .... ....|--- .... ....|--- .... ....
 A-3|..|E-4 2F.F ....|A-3 2C.F ....|--- .... ....
....|..|--- .... ....|--- .... ....|--- .... ....
....|..|A-3 2F.F ....|A-3 2F.7 ....|--- .... ....
....|..|--- .... ....|--- .... ....|--- .... ....
 A-3|..|F-4 2F.F ....|A-3 2C.F ....|--- .... ....
....|..|--- .... ....|--- .... ....|--- .... ....
 B-4|..|E-4 2F.F ....|B-4 2C.F ....|--- .... ....
....|..|--- .... ....|--- .... ....|--- .... ....
....|..|A-3 2F.F ....|A-3 2F.A ....|--- .... ....
....|..|--- .... ....|--- .... ....|--- .... ....

[Pattern17]
 F-4|..|E-4 2F.F ....|F-3 2C.F ....|--- .... ....
....|..|--- .... ....|--- .... ....|--- .... ....
 F-4|..|G#3 2F.F ....|F-3 2C.F ....|--- .... ....
....|..|--- .... ....|--- .... ....|--- .... ....
....|..|F-4 2F.F ....|D-3 2F.7 ....|--- .... ....
....|..|--- .... ....|--- .... ....|--- .... ....
....|..|E-4 2F.F ....|D-3 2F.7 ....|--- .... ....
....|..|--- .... ....|--- .... ....|--- .... ....
 F-4|..|G#3 2F.F ....|F-3 2C.F ....|--- .... ....
....|..|--- .... ....|--- .... ....|--- .... ....
....|..|F-4 2F.F ....|D-3 2F.7 ....|--- .... ....
....|..|--- .... ....|--- .... ....|--- .... ....
 F-4|..|E-4 2F.F ....|F-3 2C.F ....|--- .... ....
....|..|--- .... ....|--- .... ....|--- .... ....
 F-4|..|G#3 2F.F ....|F-3 2C.F ....|--- .... ....
....|..|--- .... ....|--- .... ....|--- .... ....
....|..|F-4 2F.F ....|--- .... ....|--- .... ....
....|..|--- .... ....|--- .... ....|--- .... ....
 E-4|..|E-4 2F.F ....|E-3 2C.F ....|--- .... ....
....|..|--- .... ....|--- .... ....|--- .... ....
....|..|G#3 2F.F ....|E-4 2F.7 ....|--- .... ....
....|..|--- .... ....|--- .... ....|--- .... ....
 E-4|..|F-4 2F.F ....|E-3 2C.F ....|--- .... ....
....|..|--- .... ....|--- .... ....|--- .... ....
....|..|E-4 2F.F ....|F-3 2F.7 ....|--- .... ....
....|..|--- .... ....|--- .... ....|--- .... ....
 E-4|..|B-3 2F.F ....|E-3 2C.F ....|--- .... ....
....|..|--- .... ....|--- .... ....|--- .... ....
 G#4|..|F-4 2F.7 ....|G#3 2C.F ....|--- .... ....
....|..|G#3 2F.F ....|--- .... ....|--- .... ....
 E-4|..|E-4 2F.7 ....|E-3 2C.F ....|--- .... ....
....|..|--- .... ....|--- .... ....|--- .... ....
 A-3|..|G#3 2F.7 ....|A-3 2C.F ....|--- .... ....
....|..|--- .... ....|--- .... ....|--- .... ....
 A-3|..|E-4 2F.F ....|A-3 2C.F ....|--- .... ....
....|..|--- .... ....|--- .... ....|--- .... ....
....|..|A-3 2F.F ....|F-3 2F.7 ....|--- .... ....
....|..|--- .... ....|--- .... ....|--- .... ....
....|..|F-4 2F.F ....|F-3 2F.7 ....|--- .... ....
....|..|--- .... ....|--- .... ....|--- .... ....
 A-3|..|E-4 2F.F ....|A-3 2C.F ....|--- .... ....
....|..|G#3 2F.A ....|--- .... ....|--- .... ....
....|..|A-3 2F.F ....|E-3 2F.7 ....|--- .... ....
....|..|--- .... ....|--- .... ....|--- .... ....
 A-3|..|F-4 2F.F ....|A-3 2C.F ....|--- .... ....
....|..|--- .... ....|--- .... ....|--- .... ....
 A-3|..|E-4 2F.F ....|A-3 2C.F ....|--- .... ....
....|..|--- .... ....|--- .... ....|--- .... ....
....|..|A-3 2F.F ....|--- .... ....|--- .... ....
....|..|--- .... ....|--- .... ....|--- .... ....
 A-3|..|F-4 2F.F ....|A-3 2C.F ....|--- .... ....
....|..|--- .... ....|--- .... ....|--- .... ....
....|..|E-4 2F.F ....|G#3 2F.7 ....|--- .... ....
....|..|G#3 2F.7 ....|--- .... ....|--- .... ....
 A-3|..|A-3 2F.F ....|A-3 2C.F ....|--- .... ....
....|..|--- .... ....|--- .... ....|--- .... ....
....|..|F-4 2F.F ....|A-3 2F.7 ....|--- .... ....
....|..|--- .... ....|--- .... ....|--- .... ....
 A-3|..|E-4 2F.F ....|A-3 2C.F ....|--- .... ....
....|..|--- .... ....|--- .... ....|--- .... ....
 C-4|..|A-3 2F.F ....|C-4 2C.F ....|--- .... ....
....|..|--- .... ....|--- .... ....|--- .... ....
 A-3|..|F-4 2F.F ....|A-3 2C.F ....|--- .... ....
....|..|--- .... ....|--- .... ....|--- .... ....
 A-3|..|E-4 2F.F ....|A-4 2C.F ....|--- .... ....
....|..|--- .... ....|--- .... ....|--- .... ....
 A-3|..|A-3 2F.F ....|A-3 2C.F ....|--- .... ....
....|..|--- .... ....|--- .... ....|--- .... ....
....|..|F-4 2F.F ....|A-3 2F.7 ....|--- .... ....
....|..|--- .... ....|--- .... ....|--- .... ....
....|..|E-4 2F.F ....|A-3 2F.7 ....|--- .... ....
....|..|--- .... ....|--- .... ....|--- .... ....
 A-3|..|A-3 2F.F ....|A-3 2C.F ....|--- .... ....
....|..|--- .... ....|--- .... ....|--- .... ....
....|..|F-4 2F.F ....|A-3 2F.7 ....|--- .... ....
....|..|--- .... ....|--- .... ....|--- .... ....
 A-3|..|E-4 2F.F ....|A-3 2C.F ....|--- .... ....
....|..|--- .... ....|--- .... ....|--- .... ....
 A-3|..|A-3 2F.F ....|A-3 2C.F ....|--- .... ....
....|..|--- .... ....|--- .... ....|--- .... ....
....|..|F-4 2F.F ....|--- .... ....|--- .... ....
....|..|--- .... ....|--- .... ....|--- .... ....
 A-3|..|E-4 2F.F ....|A-3 2C.F ....|--- .... ....
....|..|--- .... ....|--- .... ....|--- .... ....
....|..|A-3 2F.F ....|C-4 2F.7 ....|--- .... ....
....|..|--- .... ....|--- .... ....|--- .... ....
 A-3|..|F-4 2F.F ....|A-3 2C.F ....|--- .... ....
....|..|--- .... ....|--- .... ....|--- .... ....
....|..|E-4 2F.F ....|A-4 2F.7 ....|--- .... ....
....|..|--- .... ....|--- .... ....|--- .... ....
 C-4|..|A-3 2F.F ....|C-4 2C.F ....|--- .... ....
....|..|--- .... ....|--- .... ....|--- .... ....
....|..|F-4 2F.F ....|--- .... ....|--- .... ....
....|..|--- .... ....|--- .... ....|--- .... ....
....|..|E-4 2F.F ....|A-3 2F.A ....|--- .... ....
....|..|--- .... ....|--- .... ....|--- .... ....
 A-3|..|A-3 2F.F ....|A-3 2C.F ....|--- .... ....
....|..|--- .... ....|--- .... ....|--- .... ....
 A-3|..|F-4 2F.F ....|A-3 2C.F ....|--- .... ....
....|..|--- .... ....|--- .... ....|--- .... ....
....|..|E-4 2F.F ....|A-3 2F.7 ....|--- .... ....
....|..|--- .... ....|--- .... ....|--- .... ....
....|..|A-3 2F.F ....|A-3 2F.7 ....|--- .... ....
....|..|--- .... ....|--- .... ....|--- .... ....
 A-3|..|F-4 2F.F ....|A-3 2C.F ....|--- .... ....
....|..|--- .... ....|--- .... ....|--- .... ....
....|..|E-4 2F.F ....|A-3 2F.7 ....|--- .... ....
....|..|--- .... ....|--- .... ....|--- .... ....
 A-3|..|A-3 2F.F ....|A-3 2C.F ....|--- .... ....
....|..|--- .... ....|--- .... ....|--- .... ....
 A-3|..|F-4 2F.F ....|A-3 2C.F ....|--- .... ....
....|..|--- .... ....|--- .... ....|--- .... ....
....|..|E-4 2F.F ....|--- .... ....|--- .... ....
....|..|--- .... ....|--- .... ....|--- .... ....
 A-3|..|A-3 2F.F ....|A-3 2C.F ....|--- .... ....
....|..|--- .... ....|--- .... ....|--- .... ....
....|..|F-4 2F.F ....|A-3 2F.A ....|--- .... ....
....|..|--- .... ....|--- .... ....|--- .... ....
 A-3|..|E-4 2F.F ....|A-3 2C.F ....|--- .... ....
....|..|--- .... ....|--- .... ....|--- .... ....
....|..|A-3 2F.F ....|A-3 2F.7 ....|--- .... ....
....|..|--- .... ....|--- .... ....|--- .... ....
 A-3|..|F-4 2F.F ....|A-3 2C.F ....|--- .... ....
....|..|--- .... ....|--- .... ....|--- .... ....
 B-4|..|E-4 2F.F ....|B-4 2C.F ....|--- .... ....
....|..|--- .... ....|--- .... ....|--- .... ....
....|..|A-3 2F.F ....|A-3 2F.A ....|--- .... ....
....|..|--- .... ....|--- .... ....|--- .... ....

[Pattern19]
 F-4|..|E-4 2F.F ....|F-3 2C.F ....|--- .... ....
....|..|--- .... ....|--- .... ....|--- .... ....
 F-4|..|G#3 2F.F ....|F-3 2C.F ....|--- .... ....
....|..|--- .... ....|--- .... ....|--- .... ....
....|..|F-4 2F.F ....|D-3 2F.7 ....|--- .... ....
....|..|--- .... ....|--- .... ....|--- .... ....
....|..|E-4 2F.F ....|D-3 2F.7 ....|--- .... ....
....|..|--- .... ....|--- .... ....|--- .... ....
 F-4|..|G#3 2F.F ....|F-3 2C.F ....|--- .... ....
....|..|--- .... ....|--- .... ....|--- .... ....
....|..|F-4 2F.F ....|D-3 2F.7 ....|--- .... ....
....|..|--- .... ....|--- .... ....|--- .... ....
 F-4|..|E-4 2F.F ....|F-3 2C.F ....|--- .... ....
....|..|--- .... ....|--- .... ....|--- .... ....
 F-4|..|G#3 2F.F ....|F-3 2C.F ....|--- .... ....
....|..|--- .... ....|--- .... ....|--- .... ....
....|..|F-4 2F.F ....|--- .... ....|--- .... ....
....|..|--- .... ....|--- .... ....|--- .... ....
 E-4|..|E-4 2F.F ....|E-3 2C.F ....|--- .... ....
....|..|--- .... ....|--- .... ....|--- .... ....
....|..|G#3 2F.F ....|E-4 2F.7 ....|--- .... ....
....|..|--- .... ....|--- .... ....|--- .... ....
 E-4|..|F-4 2F.F ....|E-3 2C.F ....|--- .... ....
....|..|--- .... ....|--- .... ....|--- .... ....
....|..|E-4 2F.F ....|F-3 2F.7 ....|--- .... ....
....|..|--- .... ....|--- .... ....|--- .... ....
 E-4|..|B-3 2F.F ....|E-3 2C.F ....|--- .... ....
....|..|--- .... ....|--- .... ....|--- .... ....
 G#4|..|F-4 2F.7 ....|G#3 2C.F ....|--- .... ....
....|..|G#3 2F.F ....|--- .... ....|--- .... ....
 E-4|..|E-4 2F.7 ....|E-3 2C.F ....|--- .... ....
....|..|--- .... ....|--- .... ....|--- .... ....
....|..|G#3 2F.7 ....|F-3 2F.7 ....|--- .... ....
....|..|--- .... ....|--- .... ....|--- .... ....
....|..|F-4 2F.7 ....|E-3 2F.A ....|--- .... ....
....|..|--- .... ....|--- .... ....|--- .... ....
....|..|E-4 2F.7 ....|F-3 2F.7 ....|--- .... ....
....|..|--- .... ....|--- .... ....|--- .... ....
....|..|G#3 2F.7 ....|F-3 2F.7 ....|--- .... ....
....|..|--- .... ....|--- .... ....|--- .... ....
....|..|F-4 2F.7 ....|G#3 2F.A ....|--- .... ....
....|..|G#3 2F.A ....|--- .... ....|--- .... ....
....|..|E-4 2F.7 ....|E-3 2F.7 ....|--- .... ....
....|..|--- .... ....|--- .... ....|--- .... ....
....|..|G#3 2F.7 ....|--- .... ....|--- .... ....
....|..|--- .... ....|--- .... ....|--- .... ....
....|..|F-4 2F.7 ....|E-3 2F.7 ....|--- .... ....
....|..|--- .... ....|--- .... ....|--- .... ....
....|..|E-4 2F.7 ....|--- .... ....|--- .... ....
....|..|--- .... ....|--- .... ....|--- .... ....
....|..|B-3 2F.7 ....|E-3 2F.7 ....|--- .... ....
....|..|--- .... ....|--- .... ....|--- .... ....
....|..|--- .... ....|G#3 2F.7 ....|--- .... ....
....|..|G#3 2F.7 ....|--- .... ....|--- .... ....
....|..|--- .... ....|E-3 2F.7 ....|--- .... ....
....|..|--- .... ....|--- .... ....|--- .... ....
....|..|--- .... ....|--- .... ....|--- .... ....
....|..|--- .... ....|--- .... ....|--- .... ....
....|..|--- .... ....|--- .... ....|--- .... ....
....|..|--- .... ....|--- .... ....|--- .... ....
....|..|--- .... ....|--- .... ....|--- .... ....
....|..|--- .... ....|--- .... ....|--- .... ....
....|..|--- .... ....|--- .... ....|--- .... ....
....|..|--- .... ....|--- .... ....|--- .... ....
....|..|--- .... ....|C-3 2F.F ....|C-3 2F.F ....
....|..|--- .... ....|--- .... ....|--- .... ....
....|..|--- .... ....|--- .... ....|--- .... ....
....|..|--- .... ....|--- .... ....|--- .... ....
....|..|--- .... ....|D-4 2F.F ....|D-4 2F.F ....
....|..|--- .... ....|--- .... ....|--- .... ....
....|..|--- .... ....|--- .... ....|--- .... ....
....|..|--- .... ....|--- .... ....|--- .... ....
....|..|--- .... ....|C-4 2F.F ....|C-4 2F.F ....
....|..|--- .... ....|--- .... ....|--- .... ....
....|..|--- .... ....|--- .... ....|--- .... ....
....|..|--- .... ....|--- .... ....|--- .... ....
....|..|--- .... ....|G-4 2F.F ....|G-4 2F.F ....
....|..|--- .... ....|--- .... ....|--- .... ....
....|..|--- .... ....|--- .... ....|--- .... ....
....|..|--- .... ....|--- .... ....|--- .... ....
....|..|--- .... ....|E-4 2F.F ....|E-4 2F.F ....
....|..|--- .... ....|--- .... ....|--- .... ....
....|..|--- .... ....|--- .... ....|--- .... ....
....|..|--- .... ....|--- .... ....|--- .... ....
....|..|--- .... ....|D-4 2F.F ....|D-4 2F.F ....
....|..|--- .... ....|--- .... ....|--- .... ....
....|..|--- .... ....|--- .... ....|--- .... ....
....|..|--- .... ....|--- .... ....|--- .... ....
....|..|--- .... ....|C-4 2F.F ....|C-4 2F.F ....
....|..|--- .... ....|--- .... ....|--- .... ....
....|..|--- .... ....|--- .... ....|--- .... ....
....|..|--- .... ....|--- .... ....|--- .... ....
....|..|--- .... ....|G-4 2F.F ....|G-4 2F.F ....
....|..|--- .... ....|--- .... ....|--- .... ....
....|..|--- .... ....|--- .... ....|--- .... ....
....|..|--- .... ....|--- .... ....|--- .... ....
....|..|--- .... ....|E-4 2F.F ....|E-4 2F.F ....
....|..|--- .... ....|--- .... ....|--- .... ....
....|..|--- .... ....|--- .... ....|--- .... ....
....|..|--- .... ....|--- .... ....|--- .... ....
....|..|--- .... ....|D-4 2F.F ....|D-4 2F.F ....
....|..|--- .... ....|--- .... ....|--- .... ....
....|..|--- .... ....|--- .... ....|--- .... ....
....|..|--- .... ....|--- .... ....|--- .... ....
....|..|--- .... ....|C-4 2F.F ....|C-4 2F.F ....
....|..|--- .... ....|--- .... ....|--- .... ....
....|..|--- .... ....|--- .... ....|--- .... ....
....|..|--- .... ....|--- .... ....|--- .... ....
....|..|--- .... ....|G-4 2F.F ....|G-4 2F.F ....
....|..|--- .... ....|--- .... ....|--- .... ....
....|..|--- .... ....|--- .... ....|--- .... ....
....|..|--- .... ....|--- .... ....|--- .... ....
....|..|--- .... ....|E-4 2F.F ....|E-4 2F.F ....
....|..|--- .... ....|--- .... ....|--- .... ....
....|..|--- .... ....|--- .... ....|--- .... ....
....|..|--- .... ....|--- .... ....|--- .... ....
....|..|--- .... ....|C-4 2F.F ....|C-4 2F.F ....
....|..|--- .... ....|--- .... ....|--- .... ....
....|..|--- .... ....|--- .... ....|--- .... ....
....|..|--- .... ....|--- .... ....|--- .... ....
....|..|--- .... ....|C-5 2F.F ....|C-5 2F.F ....
....|..|--- .... ....|--- .... ....|--- .... ....
....|..|--- .... ....|--- .... ....|--- .... ....
....|..|--- .... ....|--- .... ....|--- .... ....
....|..|--- .... ....|C-4 2F.F ....|C-4 2F.F ....
....|..|--- .... ....|--- .... ....|--- .... ....
....|..|--- .... ....|--- .... ....|--- .... ....
....|..|--- .... ....|--- .... ....|--- .... ....

[Pattern20]
....|..|--- .... ....|A-2 2F.F ....|A-2 2F.F ....
....|..|--- .... ....|--- .... ....|--- .... ....
....|..|--- .... ....|--- .... ....|--- .... ....
....|..|--- .... ....|--- .... ....|--- .... ....
....|..|--- .... ....|A-4 2F.F ....|A-4 2F.F ....
....|..|--- .... ....|--- .... ....|--- .... ....
....|..|--- .... ....|--- .... ....|--- .... ....
....|..|--- .... ....|--- .... ....|--- .... ....
....|..|--- .... ....|E-4 2F.F ....|E-4 2F.F ....
....|..|--- .... ....|--- .... ....|--- .... ....
....|..|--- .... ....|--- .... ....|--- .... ....
....|..|--- .... ....|--- .... ....|--- .... ....
....|..|--- .... ....|C-4 2F.F ....|C-4 2F.F ....
....|..|--- .... ....|--- .... ....|--- .... ....
....|..|--- .... ....|--- .... ....|--- .... ....
....|..|--- .... ....|--- .... ....|--- .... ....
....|..|--- .... ....|C-5 2F.7 ....|C-5 2F.7 ....
....|..|--- .... ....|--- .... ....|--- .... ....
....|..|--- .... ....|--- .... ....|--- .... ....
....|..|--- .... ....|--- .... ....|--- .... ....
....|..|--- .... ....|B-3 2F.F ....|B-3 2F.F ....
....|..|--- .... ....|--- .... ....|--- .... ....
....|..|--- .... ....|--- .... ....|--- .... ....
....|..|--- .... ....|--- .... ....|--- .... ....
....|..|--- .... ....|A-2 2F.7 ....|A-2 2F.7 ....
....|..|--- .... ....|--- .... ....|--- .... ....
....|..|--- .... ....|--- .... ....|--- .... ....
....|..|--- .... ....|--- .... ....|--- .... ....
....|..|--- .... ....|A-3 2F.F ....|A-3 2F.F ....
....|..|--- .... ....|--- .... ....|--- .... ....
....|..|--- .... ....|--- .... ....|--- .... ....
....|..|--- .... ....|--- .... ....|--- .... ....
....|..|--- .... ....|A-2 2F.F ....|A-2 2F.F ....
....|..|--- .... ....|--- .... ....|--- .... ....
....|..|--- .... ....|--- .... ....|--- .... ....
....|..|--- .... ....|--- .... ....|--- .... ....
....|..|--- .... ....|A-3 2F.F ....|A-3 2F.F ....
....|..|--- .... ....|--- .... ....|--- .... ....
....|..|--- .... ....|--- .... ....|--- .... ....
....|..|--- .... ....|--- .... ....|--- .... ....
....|..|--- .... ....|E-3 2F.F ....|E-3 2F.F ....
....|..|--- .... ....|--- .... ....|--- .... ....
....|..|--- .... ....|--- .... ....|--- .... ....
....|..|--- .... ....|--- .... ....|--- .... ....
....|..|--- .... ....|A-3 2F.F ....|A-3 2F.F ....
....|..|--- .... ....|--- .... ....|--- .... ....
....|..|--- .... ....|--- .... ....|--- .... ....
....|..|--- .... ....|--- .... ....|--- .... ....
....|..|--- .... ....|E-3 2F.F ....|E-3 2F.F ....
....|..|--- .... ....|--- .... ....|--- .... ....
....|..|--- .... ....|--- .... ....|--- .... ....
....|..|--- .... ....|--- .... ....|--- .... ....
....|..|--- .... ....|C-4 2F.F ....|C-4 2F.F ....
....|..|--- .... ....|--- .... ....|--- .... ....
....|..|--- .... ....|--- .... ....|--- .... ....
....|..|--- .... ....|--- .... ....|--- .... ....
....|..|--- .... ....|A-2 2F.7 ....|A-2 2F.7 ....
....|..|--- .... ....|--- .... ....|--- .... ....
....|..|--- .... ....|--- .... ....|--- .... ....
....|..|--- .... ....|--- .... ....|--- .... ....
....|..|--- .... ....|E-3 2F.F ....|E-3 2F.F ....
....|..|--- .... ....|--- .... ....|--- .... ....
....|..|--- .... ....|--- .... ....|--- .... ....
....|..|--- .... ....|--- .... ....|--- .... ....
....|..|--- .... ....|F-2 2F.F ....|F-2 2F.F ....
....|..|--- .... ....|--- .... ....|--- .... ....
....|..|--- .... ....|--- .... ....|--- .... ....
....|..|--- .... ....|--- .... ....|--- .... ....
....|..|--- .... ....|F-3 2F.F ....|F-3 2F.F ....
....|..|--- .... ....|--- .... ....|--- .... ....
....|..|--- .... ....|--- .... ....|--- .... ....
....|..|--- .... ....|--- .... ....|--- .... ....
....|..|--- .... ....|A-3 2F.F ....|A-3 2F.F ....
....|..|--- .... ....|--- .... ....|--- .... ....
....|..|--- .... ....|--- .... ....|--- .... ....
....|..|--- .... ....|--- .... ....|--- .... ....
....|..|--- .... ....|C-4 2F.F ....|C-4 2F.F ....
....|..|--- .... ....|--- .... ....|--- .... ....
....|..|--- .... ....|--- .... ....|--- .... ....
....|..|--- .... ....|--- .... ....|--- .... ....
....|..|--- .... ....|F-3 2F.A ....|F-3 2F.A ....
....|..|--- .... ....|--- .... ....|--- .... ....
....|..|--- .... ....|--- .... ....|--- .... ....
....|..|--- .... ....|--- .... ....|--- .... ....
....|..|--- .... ....|E-4 2F.F ....|E-4 2F.F ....
....|..|--- .... ....|--- .... ....|--- .... ....
....|..|--- .... ....|--- .... ....|--- .... ....
....|..|--- .... ....|--- .... ....|--- .... ....
....|..|--- .... ....|F-2 2F.7 ....|F-2 2F.7 ....
....|..|--- .... ....|--- .... ....|--- .... ....
....|..|--- .... ....|--- .... ....|--- .... ....
....|..|--- .... ....|--- .... ....|--- .... ....
....|..|--- .... ....|F-3 2F.F ....|F-3 2F.F ....
....|..|--- .... ....|--- .... ....|--- .... ....
....|..|--- .... ....|--- .... ....|--- .... ....
....|..|--- .... ....|--- .... ....|--- .... ....
....|..|--- .... ....|G#2 2F.F ....|G#2 2F.F ....
....|..|--- .... ....|--- .... ....|--- .... ....
....|..|--- .... ....|--- .... ....|--- .... ....
....|..|--- .... ....|--- .... ....|--- .... ....
....|..|--- .... ....|F-3 2F.F ....|F-3 2F.F ....
....|..|--- .... ....|--- .... ....|--- .... ....
....|..|--- .... ....|--- .... ....|--- .... ....
....|..|--- .... ....|--- .... ....|--- .... ....
....|..|--- .... ....|G#3 2F.F ....|G#3 2F.F ....
....|..|--- .... ....|--- .... ....|--- .... ....
....|..|--- .... ....|--- .... ....|--- .... ....
....|..|--- .... ....|--- .... ....|--- .... ....
....|..|--- .... ....|B-3 2F.F ....|B-3 2F.F ....
....|..|--- .... ....|--- .... ....|--- .... ....
....|..|--- .... ....|--- .... ....|--- .... ....
....|..|--- .... ....|--- .... ....|--- .... ....
....|..|--- .... ....|G#3 2F.F ....|G#3 2F.F ....
....|..|--- .... ....|--- .... ....|--- .... ....
....|..|--- .... ....|--- .... ....|--- .... ....
....|..|--- .... ....|--- .... ....|--- .... ....
....|..|--- .... ....|D-4 2F.F ....|D-4 2F.F ....
....|..|--- .... ....|--- .... ....|--- .... ....
....|..|--- .... ....|--- .... ....|--- .... ....
....|..|--- .... ....|--- .... ....|--- .... ....
....|..|--- .... ....|G#2 2F.7 ....|G#2 2F.7 ....
....|..|--- .... ....|--- .... ....|--- .... ....
....|..|--- .... ....|--- .... ....|--- .... ....
....|..|--- .... ....|--- .... ....|--- .... ....
....|..|--- .... ....|C-4 2F.F ....|C-4 2F.F ....
....|..|--- .... ....|--- .... ....|--- .... ....
....|..|--- .... ....|--- .... ....|--- .... ....
....|..|--- .... ....|--- .... ....|--- .... ....

[Pattern21]
....|..|--- .... ....|A-2 2F.F ....|A-2 2F.F ....
....|..|--- .... ....|--- .... ....|--- .... ....
....|..|--- .... ....|--- .... ....|--- .... ....
....|..|--- .... ....|--- .... ....|--- .... ....
....|..|--- .... ....|E-3 2F.F ....|E-3 2F.F ....
....|..|--- .... ....|--- .... ....|--- .... ....
....|..|--- .... ....|--- .... ....|--- .... ....
....|..|--- .... ....|--- .... ....|--- .... ....
....|..|--- .... ....|A-3 2F.F ....|A-3 2F.F ....
....|..|--- .... ....|--- .... ....|--- .... ....
....|..|--- .... ....|--- .... ....|--- .... ....
....|..|--- .... ....|--- .... ....|--- .... ....
....|..|--- .... ....|B-3 2F.F ....|B-3 2F.F ....
....|..|--- .... ....|--- .... ....|--- .... ....
....|..|--- .... ....|--- .... ....|--- .... ....
....|..|--- .... ....|--- .... ....|--- .... ....
....|..|--- .... ....|E-3 2F.A ....|E-3 2F.A ....
....|..|--- .... ....|--- .... ....|--- .... ....
....|..|--- .... ....|--- .... ....|--- .... ....
....|..|--- .... ....|--- .... ....|--- .... ....
....|..|--- .... ....|E-3 2F.F ....|E-3 2F.F ....
....|..|--- .... ....|--- .... ....|--- .... ....
....|..|--- .... ....|--- .... ....|--- .... ....
....|..|--- .... ....|--- .... ....|--- .... ....
....|..|--- .... ....|A-3 2F.F ....|A-3 2F.F ....
....|..|--- .... ....|--- .... ....|--- .... ....
....|..|--- .... ....|--- .... ....|--- .... ....
....|..|--- .... ....|--- .... ....|--- .... ....
....|..|--- .... ....|C-4 2F.F ....|C-4 2F.F ....
....|..|--- .... ....|--- .... ....|--- .... ....
....|..|--- .... ....|--- .... ....|--- .... ....
....|..|--- .... ....|--- .... ....|--- .... ....
....|..|--- .... ....|A-2 2F.F ....|A-2 2F.F ....
....|..|--- .... ....|--- .... ....|--- .... ....
....|..|--- .... ....|--- .... ....|--- .... ....
....|..|--- .... ....|--- .... ....|--- .... ....
....|..|--- .... ....|E-3 2F.F ....|E-3 2F.F ....
....|..|--- .... ....|--- .... ....|--- .... ....
....|..|--- .... ....|--- .... ....|--- .... ....
....|..|--- .... ....|--- .... ....|--- .... ....
....|..|--- .... ....|A-3 2F.F ....|A-3 2F.F ....
....|..|--- .... ....|--- .... ....|--- .... ....
....|..|--- .... ....|--- .... ....|--- .... ....
....|..|--- .... ....|--- .... ....|--- .... ....
....|..|--- .... ....|B-3 2F.F ....|B-3 2F.F ....
....|..|--- .... ....|--- .... ....|--- .... ....
....|..|--- .... ....|--- .... ....|--- .... ....
....|..|--- .... ....|--- .... ....|--- .... ....
....|..|--- .... ....|C-4 2F.F ....|C-4 2F.F ....
....|..|--- .... ....|--- .... ....|--- .... ....
....|..|--- .... ....|--- .... ....|--- .... ....
....|..|--- .... ....|--- .... ....|--- .... ....
....|..|--- .... ....|B-3 2F.F ....|B-3 2F.F ....
....|..|--- .... ....|--- .... ....|--- .... ....
....|..|--- .... ....|--- .... ....|--- .... ....
....|..|--- .... ....|--- .... ....|--- .... ....
....|..|--- .... ....|A-3 2F.F ....|A-3 2F.F ....
....|..|--- .... ....|--- .... ....|--- .... ....
....|..|--- .... ....|--- .... ....|--- .... ....
....|..|--- .... ....|--- .... ....|--- .... ....
....|..|--- .... ....|E-3 2F.7 ....|E-3 2F.7 ....
....|..|--- .... ....|--- .... ....|--- .... ....
....|..|--- .... ....|--- .... ....|--- .... ....
....|..|--- .... ....|--- .... ....|--- .... ....
....|..|E-4 2F.F ....|C-3 2F.F ....|C-3 2F.F ....
....|..|--- .... ....|--- .... ....|--- .... ....
....|..|--- .... ....|--- .... ....|--- .... ....
....|..|--- .... ....|--- .... ....|--- .... ....
....|..|--- .... ....|D-4 2F.F ....|D-4 2F.F ....
....|..|--- .... ....|--- .... ....|--- .... ....
....|..|--- .... ....|--- .... ....|--- .... ....
....|..|--- .... ....|--- .... ....|--- .... ....
....|..|--- .... ....|C-4 2F.F ....|C-4 2F.F ....
....|..|--- .... ....|--- .... ....|--- .... ....
....|..|--- .... ....|--- .... ....|--- .... ....
....|..|--- .... ....|--- .... ....|--- .... ....
....|..|E-4 2F.A ....|G-4 2F.F ....|G-4 2F.F ....
....|..|--- .... ....|--- .... ....|--- .... ....
....|..|--- .... ....|--- .... ....|--- .... ....
....|..|--- .... ....|--- .... ....|--- .... ....
....|..|--- .... ....|E-4 2F.F ....|E-4 2F.F ....
....|..|--- .... ....|--- .... ....|--- .... ....
....|..|--- .... ....|--- .... ....|--- .... ....
....|..|--- .... ....|--- .... ....|--- .... ....
....|..|--- .... ....|D-4 2F.F ....|D-4 2F.F ....
....|..|--- .... ....|--- .... ....|--- .... ....
....|..|--- .... ....|--- .... ....|--- .... ....
....|..|--- .... ....|--- .... ....|--- .... ....
....|..|E-4 2F.7 ....|C-4 2F.F ....|C-4 2F.F ....
....|..|--- .... ....|--- .... ....|--- .... ....
....|..|--- .... ....|--- .... ....|--- .... ....
....|..|--- .... ....|--- .... ....|--- .... ....
....|..|--- .... ....|G-4 2F.F ....|G-4 2F.F ....
....|..|--- .... ....|--- .... ....|--- .... ....
....|..|--- .... ....|--- .... ....|--- .... ....
....|..|--- .... ....|--- .... ....|--- .... ....
....|..|G-4 2F.F ....|E-4 2F.F ....|E-4 2F.F ....
....|..|--- .... ....|--- .... ....|--- .... ....
....|..|--- .... ....|--- .... ....|--- .... ....
....|..|--- .... ....|--- .... ....|--- .... ....
....|..|--- .... ....|D-4 2F.F ....|D-4 2F.F ....
....|..|--- .... ....|--- .... ....|--- .... ....
....|..|--- .... ....|--- .... ....|--- .... ....
....|..|--- .... ....|--- .... ....|--- .... ....
....|..|--- .... ....|C-4 2F.F ....|C-4 2F.F ....
....|..|--- .... ....|--- .... ....|--- .... ....
....|..|--- .... ....|--- .... ....|--- .... ....
....|..|--- .... ....|--- .... ....|--- .... ....
....|..|G-4 2F.A ....|G-4 2F.F ....|G-4 2F.F ....
....|..|--- .... ....|--- .... ....|--- .... ....
....|..|--- .... ....|--- .... ....|--- .... ....
....|..|--- .... ....|--- .... ....|--- .... ....
....|..|C-5 2F.F ....|C-3 2F.F ....|C-3 2F.F ....
....|..|--- .... ....|--- .... ....|--- .... ....
....|..|--- .... ....|--- .... ....|--- .... ....
....|..|--- .... ....|--- .... ....|--- .... ....
....|..|--- .... ....|C-4 2F.F ....|C-4 2F.F ....
....|..|--- .... ....|--- .... ....|--- .... ....
....|..|--- .... ....|--- .... ....|--- .... ....
....|..|--- .... ....|--- .... ....|--- .... ....
....|..|G-4 2F.7 ....|C-5 2F.F ....|C-5 2F.F ....
....|..|--- .... ....|--- .... ....|--- .... ....
....|..|--- .... ....|--- .... ....|--- .... ....
....|..|--- .... ....|--- .... ....|--- .... ....
....|..|C-5 2F.A ....|C-4 2F.F ....|C-4 2F.F ....
....|..|--- .... ....|--- .... ....|--- .... ....
....|..|--- .... ....|--- .... ....|--- .... ....
....|..|--- .... ....|--- .... ....|--- .... ....

[Pattern22]
....|..|B-4 2F.F ....|A-2 2F.F ....|A-2 2F.F ....
....|..|--- .... ....|--- .... ....|--- .... ....
....|..|--- .... ....|--- .... ....|--- .... ....
....|..|A-4 2F.F ....|--- .... ....|--- .... ....
....|..|--- .... ....|A-4 2F.F ....|A-4 2F.F ....
....|..|--- .... ....|--- .... ....|--- .... ....
....|..|--- .... ....|--- .... ....|--- .... ....
....|..|E-4 2F.F ....|--- .... ....|--- .... ....
....|..|C-5 2F.7 ....|E-4 2F.F ....|E-4 2F.F ....
....|..|--- .... ....|--- .... ....|--- .... ....
....|..|--- .... ....|--- .... ....|--- .... ....
....|..|--- .... ....|--- .... ....|--- .... ....
....|..|B-4 2F.A ....|C-4 2F.F ....|C-4 2F.F ....
....|..|--- .... ....|--- .... ....|--- .... ....
....|..|--- .... ....|--- .... ....|--- .... ....
....|..|A-4 2F.A ....|--- .... ....|--- .... ....
....|..|--- .... ....|C-5 2F.7 ....|C-5 2F.7 ....
....|..|--- .... ....|--- .... ....|--- .... ....
....|..|--- .... ....|--- .... ....|--- .... ....
....|..|E-4 2F.A ....|--- .... ....|--- .... ....
....|..|--- .... ....|B-3 2F.F ....|B-3 2F.F ....
....|..|--- .... ....|--- .... ....|--- .... ....
....|..|--- .... ....|--- .... ....|--- .... ....
....|..|--- .... ....|--- .... ....|--- .... ....
....|..|B-4 2F.7 ....|A-2 2F.7 ....|A-2 2F.7 ....
....|..|--- .... ....|--- .... ....|--- .... ....
....|..|--- .... ....|--- .... ....|--- .... ....
....|..|A-4 2F.7 ....|--- .... ....|--- .... ....
....|..|--- .... ....|A-3 2F.F ....|A-3 2F.F ....
....|..|--- .... ....|--- .... ....|--- .... ....
....|..|--- .... ....|--- .... ....|--- .... ....
....|..|E-4 2F.7 ....|--- .... ....|--- .... ....
....|..|--- .... ....|A-2 2F.F ....|A-2 2F.F ....
....|..|--- .... ....|--- .... ....|--- .... ....
....|..|--- .... ....|--- .... ....|--- .... ....
....|..|--- .... ....|--- .... ....|--- .... ....
....|..|--- .... ....|E-3 2F.F ....|E-3 2F.F ....
....|..|--- .... ....|--- .... ....|--- .... ....
....|..|--- .... ....|--- .... ....|--- .... ....
....|..|--- .... ....|--- .... ....|--- .... ....
....|..|--- .... ....|A-3 2F.F ....|A-3 2F.F ....
....|..|--- .... ....|--- .... ....|--- .... ....
....|..|--- .... ....|--- .... ....|--- .... ....
....|..|--- .... ....|--- .... ....|--- .... ....
....|..|--- .... ....|E-3 2F.F ....|E-3 2F.F ....
....|..|--- .... ....|--- .... ....|--- .... ....
....|..|--- .... ....|--- .... ....|--- .... ....
....|..|--- .... ....|--- .... ....|--- .... ....
....|..|--- .... ....|B-3 2F.F ....|B-3 2F.F ....
....|..|--- .... ....|--- .... ....|--- .... ....
....|..|--- .... ....|--- .... ....|--- .... ....
....|..|--- .... ....|--- .... ....|--- .... ....
....|..|--- .... ....|E-3 2F.F ....|E-3 2F.F ....
....|..|--- .... ....|--- .... ....|--- .... ....
....|..|--- .... ....|--- .... ....|--- .... ....
....|..|--- .... ....|--- .... ....|--- .... ....
....|..|--- .... ....|C-4 2F.F ....|C-4 2F.F ....
....|..|--- .... ....|--- .... ....|--- .... ....
....|..|--- .... ....|--- .... ....|--- .... ....
....|..|--- .... ....|--- .... ....|--- .... ....
....|..|--- .... ....|E-3 2F.F ....|E-3 2F.F ....
....|..|--- .... ....|--- .... ....|--- .... ....
....|..|--- .... ....|--- .... ....|--- .... ....
....|..|--- .... ....|--- .... ....|--- .... ....
....|..|C-4 2F.F ....|F-2 2F.F ....|F-2 2F.F ....
....|..|--- .... ....|--- .... ....|--- .... ....
....|..|--- .... ....|--- .... ....|--- .... ....
....|..|--- .... ....|--- .... ....|--- .... ....
....|..|--- .... ....|C-4 2F.F ....|C-4 2F.F ....
....|..|--- .... ....|--- .... ....|--- .... ....
....|..|--- .... ....|--- .... ....|--- .... ....
....|..|--- .... ....|--- .... ....|--- .... ....
....|..|--- .... ....|F-3 2F.F ....|F-3 2F.F ....
....|..|--- .... ....|--- .... ....|--- .... ....
....|..|--- .... ....|--- .... ....|--- .... ....
....|..|--- .... ....|--- .... ....|--- .... ....
....|..|C-4 2F.A ....|A-3 2F.F ....|A-3 2F.F ....
....|..|--- .... ....|--- .... ....|--- .... ....
....|..|--- .... ....|--- .... ....|--- .... ....
....|..|--- .... ....|--- .... ....|--- .... ....
....|..|--- .... ....|B-3 2F.F ....|B-3 2F.F ....
....|..|--- .... ....|--- .... ....|--- .... ....
....|..|--- .... ....|--- .... ....|--- .... ....
....|..|--- .... ....|--- .... ....|--- .... ....
....|..|--- .... ....|C-4 2F.F ....|C-4 2F.F ....
....|..|--- .... ....|--- .... ....|--- .... ....
....|..|--- .... ....|--- .... ....|--- .... ....
....|..|--- .... ....|--- .... ....|--- .... ....
....|..|C-4 2F.7 ....|F-3 2F.F ....|F-3 2F.F ....
....|..|--- .... ....|--- .... ....|--- .... ....
....|..|--- .... ....|--- .... ....|--- .... ....
....|..|--- .... ....|--- .... ....|--- .... ....
....|..|--- .... ....|C-4 2F.F ....|C-4 2F.F ....
....|..|--- .... ....|--- .... ....|--- .... ....
....|..|--- .... ....|--- .... ....|--- .... ....
....|..|--- .... ....|--- .... ....|--- .... ....
....|..|F-3 2F.F ....|G#2 2F.F ....|G#2 2F.F ....
....|..|--- .... ....|--- .... ....|--- .... ....
....|..|--- .... ....|--- .... ....|--- .... ....
....|..|--- .... ....|--- .... ....|--- .... ....
....|..|--- .... ....|C-4 2F.F ....|C-4 2F.F ....
....|..|--- .... ....|--- .... ....|--- .... ....
....|..|--- .... ....|--- .... ....|--- .... ....
....|..|--- .... ....|--- .... ....|--- .... ....
....|..|--- .... ....|B-3 2F.7 ....|B-3 2F.7 ....
....|..|--- .... ....|--- .... ....|--- .... ....
....|..|--- .... ....|--- .... ....|--- .... ....
....|..|--- .... ....|--- .... ....|--- .... ....
....|..|F-3 2F.A ....|B-3 2F.F ....|B-3 2F.F ....
....|..|--- .... ....|--- .... ....|--- .... ....
....|..|--- .... ....|--- .... ....|--- .... ....
....|..|--- .... ....|--- .... ....|--- .... ....
....|..|--- .... ....|F-3 2F.7 ....|F-3 2F.7 ....
....|..|--- .... ....|--- .... ....|--- .... ....
....|..|--- .... ....|--- .... ....|--- .... ....
....|..|--- .... ....|--- .... ....|--- .... ....
....|..|--- .... ....|C-4 2F.F ....|C-4 2F.F ....
....|..|--- .... ....|--- .... ....|--- .... ....
....|..|--- .... ....|--- .... ....|--- .... ....
....|..|--- .... ....|--- .... ....|--- .... ....
....|..|F-3 2F.7 ....|G#2 2F.7 ....|G#2 2F.7 ....
....|..|--- .... ....|--- .... ....|--- .... ....
....|..|--- .... ....|--- .... ....|--- .... ....
....|..|--- .... ....|--- .... ....|--- .... ....
....|..|--- .... ....|E-3 2F.F ....|E-3 2F.F ....
....|..|--- .... ....|--- .... ....|--- .... ....
....|..|--- .... ....|--- .... ....|--- .... ....
....|..|--- .... ....|--- .... ....|--- .... ....

[Pattern23]
....|..|E-3 2F.F ....|A-2 2F.F ....|A-2 2F.F ....
....|..|--- .... ....|--- .... ....|--- .... ....
....|..|--- .... ....|--- .... ....|--- .... ....
....|..|--- .... ....|--- .... ....|--- .... ....
....|..|--- .... ....|E-3 2F.F ....|E-3 2F.F ....
....|..|--- .... ....|--- .... ....|--- .... ....
....|..|--- .... ....|--- .... ....|--- .... ....
....|..|--- .... ....|--- .... ....|--- .... ....
....|..|--- .... ....|A-3 2F.F ....|A-3 2F.F ....
....|..|--- .... ....|--- .... ....|--- .... ....
....|..|--- .... ....|--- .... ....|--- .... ....
....|..|--- .... ....|--- .... ....|--- .... ....
....|..|E-3 2F.A ....|B-3 2F.F ....|B-3 2F.F ....
....|..|--- .... ....|--- .... ....|--- .... ....
....|..|--- .... ....|--- .... ....|--- .... ....
....|..|--- .... ....|--- .... ....|--- .... ....
....|..|--- .... ....|A-2 2F.F ....|A-2 2F.F ....
....|..|--- .... ....|--- .... ....|--- .... ....
....|..|--- .... ....|A-1 2F.F ....|A-1 2F.F ....
....|..|--- .... ....|--- .... ....|--- .... ....
....|..|--- .... ....|E-3 2F.F ....|E-3 2F.F ....
....|..|--- .... ....|--- .... ....|--- .... ....
....|..|--- .... ....|--- .... ....|--- .... ....
....|..|--- .... ....|--- .... ....|--- .... ....
....|..|E-3 2F.7 ....|A-3 2F.F ....|A-3 2F.F ....
....|..|--- .... ....|--- .... ....|--- .... ....
....|..|--- .... ....|--- .... ....|--- .... ....
....|..|--- .... ....|--- .... ....|--- .... ....
....|..|--- .... ....|C-4 2F.F ....|C-4 2F.F ....
....|..|--- .... ....|--- .... ....|--- .... ....
....|..|--- .... ....|A-1 2F.A ....|A-1 2F.A ....
....|..|--- .... ....|--- .... ....|--- .... ....
....|..|--- .... ....|A-2 2F.F ....|A-2 2F.F ....
....|..|--- .... ....|--- .... ....|--- .... ....
....|..|--- .... ....|--- .... ....|--- .... ....
....|..|--- .... ....|--- .... ....|--- .... ....
....|..|--- .... ....|E-3 2F.F ....|E-3 2F.F ....
....|..|--- .... ....|--- .... ....|--- .... ....
....|..|--- .... ....|--- .... ....|--- .... ....
....|..|--- .... ....|--- .... ....|--- .... ....
....|..|--- .... ....|A-3 2F.F ....|A-3 2F.F ....
....|..|--- .... ....|--- .... ....|--- .... ....
....|..|--- .... ....|A-1 2F.7 ....|A-1 2F.7 ....
....|..|--- .... ....|--- .... ....|--- .... ....
....|..|--- .... ....|B-3 2F.F ....|B-3 2F.F ....
....|..|--- .... ....|--- .... ....|--- .... ....
....|..|--- .... ....|--- .... ....|--- .... ....
....|..|--- .... ....|--- .... ....|--- .... ....
....|..|--- .... ....|C-4 2F.F ....|C-4 2F.F ....
....|..|--- .... ....|--- .... ....|--- .... ....
....|..|--- .... ....|--- .... ....|--- .... ....
....|..|--- .... ....|--- .... ....|--- .... ....
....|..|--- .... ....|B-3 2F.F ....|B-3 2F.F ....
....|..|--- .... ....|--- .... ....|--- .... ....
....|..|--- .... ....|--- .... ....|--- .... ....
....|..|--- .... ....|--- .... ....|--- .... ....
....|..|--- .... ....|A-3 2F.F ....|A-3 2F.F ....
....|..|--- .... ....|--- .... ....|--- .... ....
....|..|--- .... ....|--- .... ....|--- .... ....
....|..|--- .... ....|--- .... ....|--- .... ....
....|..|--- .... ....|B-3 2F.F ....|B-3 2F.F ....
....|..|--- .... ....|--- .... ....|--- .... ....
....|..|--- .... ....|--- .... ....|--- .... ....
....|..|--- .... ....|--- .... ....|--- .... ....
....|..|C-3 2F.F ....|F-2 2F.F ....|F-2 2F.F ....
....|..|--- .... ....|--- .... ....|--- .... ....
....|..|--- .... ....|--- .... ....|--- .... ....
....|..|--- .... ....|--- .... ....|--- .... ....
....|..|--- .... ....|F-3 2F.F ....|F-3 2F.F ....
....|..|--- .... ....|--- .... ....|--- .... ....
....|..|--- .... ....|--- .... ....|--- .... ....
....|..|--- .... ....|--- .... ....|--- .... ....
....|..|--- .... ....|A-3 2F.F ....|A-3 2F.F ....
....|..|--- .... ....|--- .... ....|--- .... ....
....|..|--- .... ....|--- .... ....|--- .... ....
....|..|--- .... ....|--- .... ....|--- .... ....
....|..|C-3 2F.A ....|C-4 2F.F ....|C-4 2F.F ....
....|..|--- .... ....|--- .... ....|--- .... ....
....|..|--- .... ....|--- .... ....|--- .... ....
....|..|--- .... ....|--- .... ....|--- .... ....
....|..|--- .... ....|A-3 2F.7 ....|A-3 2F.7 ....
....|..|--- .... ....|--- .... ....|--- .... ....
....|..|--- .... ....|--- .... ....|--- .... ....
....|..|--- .... ....|--- .... ....|--- .... ....
....|..|--- .... ....|E-4 2F.F ....|E-4 2F.F ....
....|..|--- .... ....|--- .... ....|--- .... ....
....|..|--- .... ....|--- .... ....|--- .... ....
....|..|--- .... ....|--- .... ....|--- .... ....
....|..|C-3 2F.7 ....|F-2 2F.7 ....|F-2 2F.7 ....
....|..|--- .... ....|--- .... ....|--- .... ....
....|..|--- .... ....|--- .... ....|--- .... ....
....|..|--- .... ....|--- .... ....|--- .... ....
....|..|--- .... ....|F-3 2F.F ....|F-3 2F.F ....
....|..|--- .... ....|--- .... ....|--- .... ....
....|..|--- .... ....|--- .... ....|--- .... ....
....|..|--- .... ....|--- .... ....|--- .... ....
....|..|G#2 2F.F ....|G#2 2F.F ....|G#2 2F.F ....
....|..|--- .... ....|--- .... ....|--- .... ....
....|..|--- .... ....|--- .... ....|--- .... ....
....|..|--- .... ....|--- .... ....|--- .... ....
....|..|--- .... ....|F-3 2F.F ....|F-3 2F.F ....
....|..|--- .... ....|--- .... ....|--- .... ....
....|..|--- .... ....|--- .... ....|--- .... ....
....|..|--- .... ....|--- .... ....|--- .... ....
....|..|--- .... ....|G#3 2F.F ....|G#3 2F.F ....
....|..|--- .... ....|--- .... ....|--- .... ....
....|..|--- .... ....|--- .... ....|--- .... ....
....|..|--- .... ....|--- .... ....|--- .... ....
....|..|G#2 2F.A ....|B-3 2F.F ....|B-3 2F.F ....
....|..|--- .... ....|--- .... ....|--- .... ....
....|..|--- .... ....|--- .... ....|--- .... ....
....|..|--- .... ....|--- .... ....|--- .... ....
....|..|--- .... ....|F-4 2F.F ....|F-4 2F.F ....
....|..|--- .... ....|--- .... ....|--- .... ....
....|..|--- .... ....|--- .... ....|--- .... ....
....|..|--- .... ....|--- .... ....|--- .... ....
....|..|--- .... ....|D-4 2F.F ....|D-4 2F.F ....
....|..|--- .... ....|--- .... ....|--- .... ....
....|..|--- .... ....|--- .... ....|--- .... ....
....|..|--- .... ....|--- .... ....|--- .... ....
....|..|G#2 2F.7 ....|B-3 2F.F ....|B-3 2F.F ....
....|..|--- .... ....|--- .... ....|--- .... ....
....|..|--- .... ....|--- .... ....|--- .... ....
....|..|--- .... ....|--- .... ....|--- .... ....
....|..|--- .... ....|G#3 2F.F ....|G#3 2F.F ....
....|..|--- .... ....|--- .... ....|--- .... ....
....|..|--- .... ....|--- .... ....|--- .... ....
....|..|--- .... ....|--- .... ....|--- .... ....

[Pattern24]
....|..|E-3 2F.F ....|A-2 2F.F ....|A-2 2F.F ....
....|..|--- .... ....|--- .... ....|--- .... ....
....|..|--- .... ....|--- .... ....|--- .... ....
....|..|--- .... ....|--- .... ....|--- .... ....
....|..|--- .... ....|E-3 2F.F ....|E-3 2F.F ....
....|..|--- .... ....|--- .... ....|--- .... ....
....|..|--- .... ....|--- .... ....|--- .... ....
....|..|--- .... ....|--- .... ....|--- .... ....
....|..|--- .... ....|A-3 2F.F ....|A-3 2F.F ....
....|..|--- .... ....|--- .... ....|--- .... ....
....|..|--- .... ....|--- .... ....|--- .... ....
....|..|--- .... ....|--- .... ....|--- .... ....
....|..|E-3 2F.A ....|B-3 2F.F ....|B-3 2F.F ....
....|..|--- .... ....|--- .... ....|--- .... ....
....|..|--- .... ....|--- .... ....|--- .... ....
....|..|--- .... ....|--- .... ....|--- .... ....
....|..|--- .... ....|C-4 2F.F ....|C-4 2F.F ....
....|..|--- .... ....|--- .... ....|--- .... ....
....|..|--- .... ....|--- .... ....|--- .... ....
....|..|--- .... ....|--- .... ....|--- .... ....
....|..|--- .... ....|E-3 2F.F ....|E-3 2F.F ....
....|..|--- .... ....|--- .... ....|--- .... ....
....|..|--- .... ....|--- .... ....|--- .... ....
....|..|--- .... ....|--- .... ....|--- .... ....
....|..|E-3 2F.7 ....|C-4 2F.F ....|C-4 2F.F ....
....|..|--- .... ....|--- .... ....|--- .... ....
....|..|--- .... ....|--- .... ....|--- .... ....
....|..|--- .... ....|--- .... ....|--- .... ....
....|..|--- .... ....|D-4 2F.F ....|D-4 2F.F ....
....|..|--- .... ....|--- .... ....|--- .... ....
....|..|--- .... ....|--- .... ....|--- .... ....
....|..|--- .... ....|--- .... ....|--- .... ....
....|..|--- .... ....|A-3 2F.7 ....|A-3 2F.7 ....
....|..|--- .... ....|--- .... ....|--- .... ....
....|..|--- .... ....|--- .... ....|--- .... ....
....|..|--- .... ....|--- .... ....|--- .... ....
....|..|--- .... ....|C-4 2F.F ....|C-4 2F.F ....
....|..|--- .... ....|--- .... ....|--- .... ....
....|..|--- .... ....|--- .... ....|--- .... ....
....|..|--- .... ....|--- .... ....|--- .... ....
....|..|--- .... ....|C-4 2F.7 ....|C-4 2F.7 ....
....|..|--- .... ....|--- .... ....|--- .... ....
....|..|--- .... ....|--- .... ....|--- .... ....
....|..|--- .... ....|--- .... ....|--- .... ....
....|..|--- .... ....|B-3 2F.F ....|B-3 2F.F ....
....|..|--- .... ....|--- .... ....|--- .... ....
....|..|--- .... ....|--- .... ....|--- .... ....
....|..|--- .... ....|--- .... ....|--- .... ....
....|..|--- .... ....|C-4 2F.7 ....|C-4 2F.7 ....
....|..|--- .... ....|--- .... ....|--- .... ....
....|..|--- .... ....|--- .... ....|--- .... ....
....|..|--- .... ....|--- .... ....|--- .... ....
....|..|--- .... ....|C-4 2F.F ....|C-4 2F.F ....
....|..|--- .... ....|--- .... ....|--- .... ....
....|..|--- .... ....|--- .... ....|--- .... ....
....|..|--- .... ....|--- .... ....|--- .... ....
....|..|--- .... ....|B-3 2F.A ....|B-3 2F.A ....
....|..|--- .... ....|--- .... ....|--- .... ....
....|..|--- .... ....|--- .... ....|--- .... ....
....|..|--- .... ....|--- .... ....|--- .... ....
....|..|--- .... ....|C-4 2F.7 ....|C-4 2F.7 ....
....|..|--- .... ....|--- .... ....|--- .... ....
....|..|--- .... ....|--- .... ....|--- .... ....
....|..|C-4 2F.F ....|--- .... ....|--- .... ....
....|..|--- .... ....|G-3 2F1F ....|G-3 2F1F ....
....|..|D#4 2F.F ....|--- .... ....|--- .... ....
....|..|--- .... ....|--- .... ....|--- .... ....
....|..|G-4 2F.F ....|--- .... ....|--- .... ....
....|..|--- .... ....|B-3 2F.7 ....|B-3 2F.7 ....
....|..|C-5 2F.F ....|--- .... ....|--- .... ....
....|..|--- .... ....|--- .... ....|--- .... ....
....|..|D#5 2F.F ....|--- .... ....|--- .... ....
....|..|--- .... ....|--- .... ....|--- .... ....
....|..|--- .... ....|--- .... ....|--- .... ....
....|..|--- .... ....|--- .... ....|--- .... ....
....|..|C-5 2F.F ....|--- .... ....|--- .... ....
....|..|--- .... ....|C-2 2F.F ....|C-2 2F.F ....
....|..|D#4 2F.A ....|--- .... ....|--- .... ....
....|..|--- .... ....|--- .... ....|--- .... ....
....|..|G-4 2F.F ....|--- .... ....|--- .... ....
....|..|--- .... ....|D#4 2F.F ....|D#4 2F.F ....
....|..|C-5 2F.A ....|--- .... ....|--- .... ....
....|..|--- .... ....|--- .... ....|--- .... ....
....|..|D#4 2F.F ....|--- .... ....|--- .... ....
....|..|--- .... ....|C-4 2F.F ....|C-4 2F.F ....
....|..|--- .... ....|--- .... ....|--- .... ....
....|..|--- .... ....|--- .... ....|--- .... ....
....|..|G-4 2F.F ....|--- .... ....|--- .... ....
....|..|--- .... ....|G-3 2F.F ....|G-3 2F.F ....
....|..|D#4 2F.7 ....|--- .... ....|--- .... ....
....|..|--- .... ....|--- .... ....|--- .... ....
....|..|G-4 2F.7 ....|--- .... ....|--- .... ....
....|..|C-5 2F.F ....|C-3 2F.F ....|C-3 2F.F ....
....|..|C-5 2F.7 ....|--- .... ....|--- .... ....
....|..|--- .... ....|--- .... ....|--- .... ....
....|..|D#5 2F.7 ....|--- .... ....|--- .... ....
....|..|--- .... ....|C-2 2F.F ....|C-2 2F.F ....
....|..|--- .... ....|--- .... ....|--- .... ....
....|..|--- .... ....|--- .... ....|--- .... ....
....|..|C-5 2F.7 ....|--- .... ....|--- .... ....
....|..|--- .... ....|C-3 2F.F ....|C-3 2F.F ....
....|..|--- .... ....|--- .... ....|--- .... ....
....|..|--- .... ....|--- .... ....|--- .... ....
....|..|G-4 2F.7 ....|--- .... ....|--- .... ....
....|..|C-5 2F.F ....|G-3 2F.F ....|G-3 2F.F ....
....|..|--- .... ....|--- .... ....|--- .... ....
....|..|--- .... ....|--- .... ....|--- .... ....
....|..|D#4 2F.7 ....|--- .... ....|--- .... ....
....|..|--- .... ....|C-3 2F.F ....|C-3 2F.F ....
....|..|--- .... ....|--- .... ....|--- .... ....
....|..|--- .... ....|G-3 2F.F ....|G-3 2F.F ....
....|..|G-4 2F.7 ....|C-4 2F.F ....|C-4 2F.F ....
....|..|D#5 2F.F ....|D#4 2F.F ....|D#4 2F.F ....
....|..|--- .... ....|--- .... ....|--- .... ....
....|..|--- .... ....|--- .... ....|--- .... ....
....|..|--- .... ....|--- .... ....|--- .... ....
....|..|C-5 2F.7 ....|C-4 2F.F ....|C-4 2F.F ....
....|..|--- .... ....|--- .... ....|--- .... ....
....|..|--- .... ....|--- .... ....|--- .... ....
....|..|--- .... ....|--- .... ....|--- .... ....
....|..|C-5 2F.F ....|G-3 2F.F ....|G-3 2F.F ....
....|..|--- .... ....|--- .... ....|--- .... ....
....|..|--- .... ....|G-3 2F.A ....|G-3 2F.A ....
....|..|--- .... ....|C-4 2F.A ....|C-4 2F.A ....
....|..|D#5 2F.A ....|C-3 2F.7 ....|C-3 2F.7 ....
....|..|--- .... ....|--- .... ....|--- .... ....
....|..|--- .... ....|--- .... ....|--- .... ....
....|..|D#5 2F.F ....|--- .... ....|--- .... ....

[Pattern25]
....|..|C-5 2F.7 ....|F#3 2F2F ....|F#3 2F2F ....
....|..|--- .... ....|--- .... ....|--- .... ....
....|..|--- .... ....|--- .... ....|--- .... ....
....|..|--- .... ....|--- .... ....|--- .... ....
....|..|C-5 2F.A ....|C-3 2F.7 ....|C-3 2F.7 ....
....|..|--- .... ....|--- .... ....|--- .... ....
....|..|--- .... ....|G-3 2F.7 ....|G-3 2F.7 ....
....|..|--- .... ....|C-4 2F.7 ....|C-4 2F.7 ....
....|..|D#5 2F.7 ....|F#3 2F.F ....|F#3 2F.F ....
....|..|--- .... ....|--- .... ....|--- .... ....
....|..|--- .... ....|--- .... ....|--- .... ....
....|..|D#5 2F.A ....|--- .... ....|--- .... ....
....|..|--- .... ....|F#2 2F.F ....|F#2 2F.F ....
....|..|--- .... ....|--- .... ....|--- .... ....
....|..|--- .... ....|--- .... ....|--- .... ....
....|..|--- .... ....|--- .... ....|--- .... ....
....|..|C-5 2F.7 ....|F#3 2F3F ....|F#3 2F3F ....
....|..|--- .... ....|--- .... ....|--- .... ....
....|..|--- .... ....|--- .... ....|--- .... ....
....|..|--- .... ....|--- .... ....|--- .... ....
....|..|--- .... ....|F#3 2F.A ....|F#3 2F.A ....
....|..|--- .... ....|--- .... ....|--- .... ....
....|..|--- .... ....|--- .... ....|--- .... ....
....|..|D#5 2F.7 ....|--- .... ....|--- .... ....
....|..|C-5 2F.F ....|C-4 2F.F ....|C-4 2F.F ....
....|..|--- .... ....|--- .... ....|--- .... ....
....|..|--- .... ....|--- .... ....|--- .... ....
....|..|--- .... ....|--- .... ....|--- .... ....
....|..|--- .... ....|F#2 2F.F ....|F#2 2F.F ....
....|..|--- .... ....|--- .... ....|--- .... ....
....|..|--- .... ....|--- .... ....|--- .... ....
....|..|--- .... ....|--- .... ....|--- .... ....
....|..|A-4 2F.F ....|F#3 2F2F ....|F#3 2F2F ....
....|..|--- .... ....|--- .... ....|--- .... ....
....|..|--- .... ....|--- .... ....|--- .... ....
....|..|--- .... ....|--- .... ....|--- .... ....
....|..|C-5 2F.A ....|F#2 2F.7 ....|F#2 2F.7 ....
....|..|--- .... ....|--- .... ....|--- .... ....
....|..|--- .... ....|--- .... ....|--- .... ....
....|..|--- .... ....|--- .... ....|--- .... ....
....|..|--- .... ....|A-3 2F.F ....|A-3 2F.F ....
....|..|--- .... ....|--- .... ....|--- .... ....
....|..|--- .... ....|--- .... ....|--- .... ....
....|..|--- .... ....|--- .... ....|--- .... ....
....|..|A-4 2F.A ....|F#3 2F.F ....|F#3 2F.F ....
....|..|--- .... ....|--- .... ....|--- .... ....
....|..|--- .... ....|--- .... ....|--- .... ....
....|..|--- .... ....|--- .... ....|--- .... ....
....|..|C-5 2F.7 ....|D#3 2F.F ....|D#3 2F.F ....
....|..|--- .... ....|--- .... ....|--- .... ....
....|..|--- .... ....|--- .... ....|--- .... ....
....|..|--- .... ....|--- .... ....|--- .... ....
....|..|--- .... ....|F#2 2F.F ....|F#2 2F.F ....
....|..|--- .... ....|--- .... ....|--- .... ....
....|..|--- .... ....|--- .... ....|--- .... ....
....|..|--- .... ....|--- .... ....|--- .... ....
....|..|F#4 2F.F ....|D#3 2F2F ....|D#3 2F2F ....
....|..|--- .... ....|--- .... ....|--- .... ....
....|..|--- .... ....|--- .... ....|--- .... ....
....|..|--- .... ....|--- .... ....|--- .... ....
....|..|--- .... ....|F#2 2F.F ....|F#2 2F.F ....
....|..|--- .... ....|--- .... ....|--- .... ....
....|..|--- .... ....|--- .... ....|--- .... ....
....|..|G-3 2F.F ....|--- .... ....|--- .... ....
....|..|--- .... ....|D-3 2F4F ....|D-3 2F4F ....
....|..|A#3 2F.F ....|--- .... ....|--- .... ....
....|..|--- .... ....|G-1 2F.F ....|G-1 2F.F ....
....|..|D-4 2F.F ....|--- .... ....|--- .... ....
....|..|F#4 2F.A ....|G-2 2F.F ....|G-2 2F.F ....
....|..|G-4 2F.F ....|--- .... ....|--- .... ....
....|..|--- .... ....|D-3 2F.F ....|D-3 2F.F ....
....|..|--- .... ....|G-3 2F.F ....|G-3 2F.F ....
....|..|A#4 2F.F ....|A#3 2F.F ....|A#3 2F.F ....
....|..|--- .... ....|--- .... ....|--- .... ....
....|..|--- .... ....|--- .... ....|--- .... ....
....|..|G-3 2F.A ....|--- .... ....|--- .... ....
....|..|G-4 2F.F ....|F#2 2F.7 ....|F#2 2F.7 ....
....|..|A#3 2F.A ....|--- .... ....|--- .... ....
....|..|--- .... ....|D-4 2F.F ....|D-4 2F.F ....
....|..|D-4 2F.F ....|G-4 2F.F ....|G-4 2F.F ....
....|..|F#4 2F.7 ....|A#4 2F.F ....|A#4 2F.F ....
....|..|G-4 2F.A ....|--- .... ....|--- .... ....
....|..|--- .... ....|D-3 2F.A ....|D-3 2F.A ....
....|..|A#3 2F.F ....|G-3 2F.A ....|G-3 2F.A ....
....|..|A#4 2F.A ....|G-4 2F.F ....|G-4 2F.F ....
....|..|--- .... ....|--- .... ....|--- .... ....
....|..|--- .... ....|--- .... ....|--- .... ....
....|..|G-3 2F.F ....|--- .... ....|--- .... ....
....|..|G-4 2F.A ....|D-4 2F.F ....|D-4 2F.F ....
....|..|A#3 2F.7 ....|--- .... ....|--- .... ....
....|..|--- .... ....|G-1 2F.7 ....|G-1 2F.7 ....
....|..|A#3 2F.F ....|G-4 2F.A ....|G-4 2F.A ....
....|..|--- .... ....|A#3 2F.F ....|A#3 2F.F ....
....|..|G-4 2F.7 ....|--- .... ....|--- .... ....
....|..|--- .... ....|D-3 2F.7 ....|D-3 2F.7 ....
....|..|A#3 2F.A ....|G-3 2F.7 ....|G-3 2F.7 ....
....|..|A#4 2F.7 ....|G-3 2F.F ....|G-3 2F.F ....
....|..|--- .... ....|--- .... ....|--- .... ....
....|..|--- .... ....|--- .... ....|--- .... ....
....|..|G-3 2F.A ....|--- .... ....|--- .... ....
....|..|G-4 2F.7 ....|D-3 2F.F ....|D-3 2F.F ....
....|..|--- .... ....|--- .... ....|--- .... ....
....|..|--- .... ....|D-4 2F.7 ....|D-4 2F.7 ....
....|..|D-4 2F.F ....|G-4 2F.7 ....|G-4 2F.7 ....
....|..|--- .... ....|G-2 2F.F ....|G-2 2F.F ....
....|..|--- .... ....|--- .... ....|--- .... ....
....|..|--- .... ....|--- .... ....|--- .... ....
....|..|A#3 2F.7 ....|--- .... ....|--- .... ....
....|..|--- .... ....|D-3 2F.F ....|D-3 2F.F ....
....|..|--- .... ....|--- .... ....|--- .... ....
....|..|--- .... ....|--- .... ....|--- .... ....
....|..|G-4 2F.F ....|--- .... ....|--- .... ....
....|..|--- .... ....|G-3 2F.F ....|G-3 2F.F ....
....|..|--- .... ....|--- .... ....|--- .... ....
....|..|--- .... ....|--- .... ....|--- .... ....
....|..|A#3 2F.7 ....|--- .... ....|--- .... ....
....|..|--- .... ....|G-3 2F3F ....|G-3 2F3F ....
....|..|--- .... ....|--- .... ....|--- .... ....
....|..|--- .... ....|--- .... ....|--- .... ....
....|..|G-3 2F.F ....|--- .... ....|--- .... ....
....|..|--- .... ....|D-3 2F4F ....|D-3 2F4F ....
....|..|--- .... ....|--- .... ....|--- .... ....
....|..|--- .... ....|--- .... ....|--- .... ....
....|..|G-4 2F.A ....|--- .... ....|--- .... ....
....|..|--- .... ....|G-2 2F.F ....|G-2 2F.F ....
....|..|--- .... ....|--- .... ....|--- .... ....
....|..|--- .... ....|--- .... ....|--- .... ....
....|..|G#3 2F.F ....|--- .... ....|--- .... ....

[Pattern26]
....|..|--- .... ....|G#3 2F.F ....|G#3 2F.F ....
....|..|--- .... ....|--- .... ....|--- .... ....
....|..|--- .... ....|G#1 2F.F ....|G#1 2F.F ....
....|..|G-3 2F.A ....|--- .... ....|--- .... ....
....|..|--- .... ....|D-3 2F.7 ....|D-3 2F.7 ....
....|..|--- .... ....|--- .... ....|--- .... ....
....|..|--- .... ....|--- .... ....|--- .... ....
....|..|G-4 2F.7 ....|--- .... ....|--- .... ....
....|..|--- .... ....|G-3 2F.7 ....|G-3 2F.7 ....
....|..|--- .... ....|--- .... ....|--- .... ....
....|..|--- .... ....|--- .... ....|--- .... ....
....|..|G#3 2F.A ....|--- .... ....|--- .... ....
....|..|--- .... ....|G#2 2F.F ....|G#2 2F.F ....
....|..|--- .... ....|--- .... ....|--- .... ....
....|..|--- .... ....|G#3 2F.F ....|G#3 2F.F ....
....|..|G-3 2F.7 ....|--- .... ....|--- .... ....
....|..|--- .... ....|D-4 2F.F ....|D-4 2F.F ....
....|..|--- .... ....|--- .... ....|--- .... ....
....|..|--- .... ....|--- .... ....|--- .... ....
....|..|--- .... ....|--- .... ....|--- .... ....
....|..|--- .... ....|G-2 2F.7 ....|G-2 2F.7 ....
....|..|--- .... ....|--- .... ....|--- .... ....
....|..|--- .... ....|G#3 2F.F ....|G#3 2F.F ....
....|..|G#3 2F.7 ....|--- .... ....|--- .... ....
....|..|--- .... ....|G#3 2F.7 ....|G#3 2F.7 ....
....|..|--- .... ....|--- .... ....|--- .... ....
....|..|--- .... ....|G#1 2F.7 ....|G#1 2F.7 ....
....|..|D-4 2F.F ....|--- .... ....|--- .... ....
....|..|--- .... ....|D-3 2F.F ....|D-3 2F.F ....
....|..|--- .... ....|--- .... ....|--- .... ....
....|..|--- .... ....|--- .... ....|--- .... ....
....|..|--- .... ....|--- .... ....|--- .... ....
....|..|--- .... ....|G#2 2F.F ....|G#2 2F.F ....
....|..|--- .... ....|--- .... ....|--- .... ....
....|..|--- .... ....|G#3 2F.A ....|G#3 2F.A ....
....|..|--- .... ....|--- .... ....|--- .... ....
....|..|--- .... ....|G#2 2F.7 ....|G#2 2F.7 ....
....|..|--- .... ....|--- .... ....|--- .... ....
....|..|--- .... ....|G#3 2F.7 ....|G#3 2F.7 ....
....|..|D-4 2F.A ....|--- .... ....|--- .... ....
....|..|--- .... ....|D-4 2F.7 ....|D-4 2F.7 ....
....|..|--- .... ....|--- .... ....|--- .... ....
....|..|--- .... ....|--- .... ....|--- .... ....
....|..|--- .... ....|--- .... ....|--- .... ....
....|..|--- .... ....|G#2 2F.A ....|G#2 2F.A ....
....|..|--- .... ....|--- .... ....|--- .... ....
....|..|--- .... ....|G#3 2F.7 ....|G#3 2F.7 ....
....|..|--- .... ....|--- .... ....|--- .... ....
....|..|--- .... ....|--- .... ....|--- .... ....
....|..|--- .... ....|--- .... ....|--- .... ....
....|..|--- .... ....|--- .... ....|--- .... ....
....|..|D-4 2F.7 ....|--- .... ....|--- .... ....
....|..|--- .... ....|D-3 2F.7 ....|D-3 2F.7 ....
....|..|--- .... ....|--- .... ....|--- .... ....
....|..|--- .... ....|--- .... ....|--- .... ....
....|..|--- .... ....|--- .... ....|--- .... ....
....|..|--- .... ....|G#2 2F.7 ....|G#2 2F.7 ....
....|..|--- .... ....|--- .... ....|--- .... ....
....|..|--- .... ....|--- .... ....|--- .... ....
....|..|--- .... ....|--- .... ....|--- .... ....
....|..|--- .... ....|--- .... ....|--- .... ....
....|..|--- .... ....|--- .... ....|--- .... ....
....|..|--- .... ....|--- .... ....|--- .... ....
....|..|E-4 2F.F ....|--- .... ....|--- .... ....
....|..|--- .... ....|A-3 2F1F ....|A-3 2F1F ....
....|..|--- .... ....|--- .... ....|--- .... ....
....|..|--- .... ....|--- .... ....|--- .... ....
....|..|--- .... ....|--- .... ....|--- .... ....
....|..|--- .... ....|--- .... ....|--- .... ....
....|..|--- .... ....|--- .... ....|--- .... ....
....|..|--- .... ....|--- .... ....|--- .... ....
....|..|--- .... ....|--- .... ....|--- .... ....
....|..|--- .... ....|--- .... ....|--- .... ....
....|..|--- .... ....|--- .... ....|--- .... ....
....|..|--- .... ....|--- .... ....|--- .... ....
....|..|E-4 2F.A ....|--- .... ....|--- .... ....
....|..|F-4 2F.F ....|F-4 2F.F ....|F-4 2F.F ....
....|..|--- .... ....|--- .... ....|--- .... ....
....|..|--- .... ....|--- .... ....|--- .... ....
....|..|--- .... ....|--- .... ....|--- .... ....
....|..|E-4 2F.F ....|E-4 2F.F ....|E-4 2F.F ....
....|..|--- .... ....|--- .... ....|--- .... ....
....|..|--- .... ....|--- .... ....|--- .... ....
....|..|--- .... ....|--- .... ....|--- .... ....
....|..|--- .... ....|--- .... ....|--- .... ....
....|..|--- .... ....|--- .... ....|--- .... ....
....|..|--- .... ....|--- .... ....|--- .... ....
....|..|E-4 2F.7 ....|--- .... ....|--- .... ....
....|..|D-4 2F.F ....|D-4 2F.F ....|D-4 2F.F ....
....|..|--- .... ....|--- .... ....|--- .... ....
....|..|--- .... ....|--- .... ....|--- .... ....
....|..|--- .... ....|--- .... ....|--- .... ....
....|..|E-4 2F.A ....|E-4 2F.A ....|E-4 2F.A ....
....|..|--- .... ....|--- .... ....|--- .... ....
....|..|--- .... ....|--- .... ....|--- .... ....
....|..|--- .... ....|--- .... ....|--- .... ....
....|..|D-4 2F.F ....|E-3 2F5F ....|E-3 2F5F ....
....|..|--- .... ....|--- .... ....|--- .... ....
....|..|--- .... ....|A-1 2F.F ....|A-1 2F.F ....
....|..|--- .... ....|--- .... ....|--- .... ....
....|..|C#4 2F.F ....|C#4 2F.F ....|C#4 2F.F ....
....|..|--- .... ....|--- .... ....|--- .... ....
....|..|--- .... ....|--- .... ....|--- .... ....
....|..|D-4 2F.F ....|--- .... ....|--- .... ....
....|..|E-4 2F.7 ....|E-4 2F.7 ....|E-4 2F.7 ....
....|..|--- .... ....|--- .... ....|--- .... ....
....|..|C#4 2F.F ....|--- .... ....|--- .... ....
....|..|--- .... ....|--- .... ....|--- .... ....
....|..|D-4 2F.A ....|E-3 2F5A ....|E-3 2F5A ....
....|..|D-4 2F.F ....|--- .... ....|--- .... ....
....|..|--- .... ....|A-1 2F.A ....|A-1 2F.A ....
....|..|C#4 2F.F ....|--- .... ....|--- .... ....
....|..|D-4 2F.7 ....|D-4 2F.7 ....|D-4 2F.7 ....
....|..|D-4 2F.F ....|--- .... ....|--- .... ....
....|..|--- .... ....|--- .... ....|--- .... ....
....|..|C#4 2F.F ....|--- .... ....|--- .... ....
....|..|D-4 2F.F ....|--- .... ....|--- .... ....
....|..|--- .... ....|--- .... ....|--- .... ....
....|..|C#4 2F.F ....|--- .... ....|--- .... ....
....|..|D-4 2F.F ....|--- .... ....|--- .... ....
....|..|D-4 2F.7 ....|E-3 2F57 ....|E-3 2F57 ....
....|..|C#4 2F.F ....|--- .... ....|--- .... ....
....|..|D-4 2F.F ....|A-1 2F.7 ....|A-1 2F.7 ....
....|..|C#4 2F.A ....|--- .... ....|--- .... ....
....|..|C#4 2F.F ....|C#4 2F.7 ....|C#4 2F.7 ....
....|..|D-4 2F.A ....|--- .... ....|--- .... ....
....|..|--- .... ....|--- .... ....|--- .... ....
....|..|D-4 2F.7 ....|--- .... ....|--- .... ....

[Pattern27]
....|..|D-4 2F.A ....|D#4 2F.F ....|D#4 2F.F ....
....|..|--- .... ....|--- .... ....|--- .... ....
....|..|C#4 2F.7 ....|--- .... ....|--- .... ....
....|..|D-4 2F.A ....|--- .... ....|--- .... ....
....|..|--- .... ....|C-3 2F.F ....|C-3 2F.F ....
....|..|D-4 2F.7 ....|--- .... ....|--- .... ....
....|..|D-4 2F.A ....|--- .... ....|--- .... ....
....|..|C#4 2F.7 ....|--- .... ....|--- .... ....
....|..|C#4 2F.A ....|G-3 2F.F ....|G-3 2F.F ....
....|..|D-4 2F.7 ....|--- .... ....|--- .... ....
....|..|--- .... ....|--- .... ....|--- .... ....
....|..|C#4 2F.7 ....|--- .... ....|--- .... ....
....|..|D-4 2F.7 ....|C-4 2F.F ....|C-4 2F.F ....
....|..|--- .... ....|--- .... ....|--- .... ....
....|..|C#4 2F.7 ....|--- .... ....|--- .... ....
....|..|D-4 2F.7 ....|--- .... ....|--- .... ....
....|..|--- .... ....|G-3 2F.F ....|G-3 2F.F ....
....|..|C#4 2F.7 ....|--- .... ....|--- .... ....
....|..|D-4 2F.7 ....|--- .... ....|--- .... ....
....|..|--- .... ....|--- .... ....|--- .... ....
....|..|C#4 2F.7 ....|D-4 2F.F ....|D-4 2F.F ....
....|..|--- .... ....|--- .... ....|--- .... ....
....|..|--- .... ....|--- .... ....|--- .... ....
....|..|--- .... ....|--- .... ....|--- .... ....
....|..|--- .... ....|G-3 2F.F ....|G-3 2F.F ....
....|..|--- .... ....|--- .... ....|--- .... ....
....|..|--- .... ....|--- .... ....|--- .... ....
....|..|--- .... ....|--- .... ....|--- .... ....
....|..|--- .... ....|C-4 2F.F ....|C-4 2F.F ....
....|..|--- .... ....|--- .... ....|--- .... ....
....|..|--- .... ....|--- .... ....|--- .... ....
....|..|--- .... ....|--- .... ....|--- .... ....
....|..|--- .... ....|G-3 2F.7 ....|G-3 2F.7 ....
....|..|--- .... ....|--- .... ....|--- .... ....
....|..|--- .... ....|--- .... ....|--- .... ....
....|..|--- .... ....|--- .... ....|--- .... ....
....|..|--- .... ....|D#4 2F.F ....|D#4 2F.F ....
....|..|--- .... ....|--- .... ....|--- .... ....
....|..|--- .... ....|--- .... ....|--- .... ....
....|..|--- .... ....|--- .... ....|--- .... ....
....|..|--- .... ....|G-3 2F.7 ....|G-3 2F.7 ....
....|..|--- .... ....|--- .... ....|--- .... ....
....|..|--- .... ....|--- .... ....|--- .... ....
....|..|--- .... ....|--- .... ....|--- .... ....
....|..|--- .... ....|C-3 2F.F ....|C-3 2F.F ....
....|..|--- .... ....|--- .... ....|--- .... ....
....|..|--- .... ....|--- .... ....|--- .... ....
....|..|--- .... ....|--- .... ....|--- .... ....
....|..|--- .... ....|G-3 2F.7 ....|G-3 2F.7 ....
....|..|--- .... ....|--- .... ....|--- .... ....
....|..|--- .... ....|--- .... ....|--- .... ....
....|..|--- .... ....|--- .... ....|--- .... ....
....|..|G-4 2F.F ....|C-4 2F.7 ....|C-4 2F.7 ....
....|..|--- .... ....|--- .... ....|--- .... ....
....|..|--- .... ....|--- .... ....|--- .... ....
....|..|--- .... ....|--- .... ....|--- .... ....
....|..|A#4 2F.F ....|C-3 2F.A ....|C-3 2F.A ....
....|..|--- .... ....|--- .... ....|--- .... ....
....|..|G-4 2F.F ....|--- .... ....|--- .... ....
....|..|--- .... ....|--- .... ....|--- .... ....
....|..|D-5 2F.F ....|D#4 2F.7 ....|D#4 2F.7 ....
....|..|--- .... ....|--- .... ....|--- .... ....
....|..|G-4 2F.F ....|--- .... ....|--- .... ....
....|..|--- .... ....|--- .... ....|--- .... ....
....|..|A-4 2F.F ....|--- .... ....|--- .... ....
....|..|A#4 2F.F ....|--- .... ....|--- .... ....
....|..|A-4 2F.F ....|--- .... ....|--- .... ....
....|..|--- .... ....|--- .... ....|--- .... ....
....|..|A#4 2F.A ....|C-3 2F.7 ....|C-3 2F.7 ....
....|..|--- .... ....|--- .... ....|--- .... ....
....|..|G-4 2F.A ....|--- .... ....|--- .... ....
....|..|--- .... ....|--- .... ....|--- .... ....
....|..|G-4 2F.F ....|--- .... ....|--- .... ....
....|..|--- .... ....|--- .... ....|--- .... ....
....|..|G-4 2F.A ....|--- .... ....|--- .... ....
....|..|--- .... ....|--- .... ....|--- .... ....
....|..|G-4 2F.7 ....|--- .... ....|--- .... ....
....|..|A#4 2F.A ....|--- .... ....|--- .... ....
....|..|A-4 2F.A ....|--- .... ....|--- .... ....
....|..|--- .... ....|--- .... ....|--- .... ....
....|..|A#4 2F.7 ....|--- .... ....|--- .... ....
....|..|--- .... ....|--- .... ....|--- .... ....
....|..|G-4 2F.7 ....|--- .... ....|--- .... ....
....|..|--- .... ....|--- .... ....|--- .... ....
....|..|D-5 2F.7 ....|--- .... ....|--- .... ....
....|..|--- .... ....|--- .... ....|--- .... ....
....|..|G-4 2F.7 ....|--- .... ....|--- .... ....
....|..|--- .... ....|--- .... ....|--- .... ....
....|..|A-4 2F.7 ....|--- .... ....|--- .... ....
....|..|A#4 2F.7 ....|--- .... ....|--- .... ....
....|..|A-4 2F.7 ....|--- .... ....|--- .... ....
....|..|--- .... ....|--- .... ....|--- .... ....
....|..|--- .... ....|--- .... ....|--- .... ....
....|..|--- .... ....|--- .... ....|--- .... ....
....|..|--- .... ....|--- .... ....|--- .... ....
....|..|--- .... ....|--- .... ....|--- .... ....
....|..|G-4 2F.7 ....|--- .... ....|--- .... ....
....|..|--- .... ....|--- .... ....|--- .... ....
....|..|--- .... ....|--- .... ....|--- .... ....
....|..|--- .... ....|--- .... ....|--- .... ....
....|..|--- .... ....|--- .... ....|--- .... ....
....|..|--- .... ....|--- .... ....|--- .... ....
....|..|--- .... ....|--- .... ....|--- .... ....
....|..|--- .... ....|--- .... ....|--- .... ....
....|..|--- .... ....|--- .... ....|--- .... ....
....|..|--- .... ....|--- .... ....|--- .... ....
....|..|--- .... ....|--- .... ....|--- .... ....
....|..|--- .... ....|--- .... ....|--- .... ....
....|..|--- .... ....|--- .... ....|--- .... ....
....|..|--- .... ....|--- .... ....|--- .... ....
....|..|--- .... ....|--- .... ....|--- .... ....
....|..|--- .... ....|--- .... ....|--- .... ....
....|..|--- .... ....|--- .... ....|--- .... ....
....|..|--- .... ....|--- .... ....|--- .... ....
....|..|--- .... ....|--- .... ....|--- .... ....
....|..|--- .... ....|--- .... ....|--- .... ....
....|..|--- .... ....|--- .... ....|--- .... ....
....|..|--- .... ....|--- .... ....|--- .... ....
....|..|--- .... ....|--- .... ....|--- .... ....
....|..|--- .... ....|--- .... ....|--- .... ....
....|..|--- .... ....|--- .... ....|--- .... ....
....|..|--- .... ....|--- .... ....|--- .... ....
....|..|--- .... ....|--- .... ....|--- .... ....
....|..|--- .... ....|--- .... ....|--- .... ....
....|..|--- .... ....|--- .... ....|--- .... ....
....|..|--- .... ....|--- .... ....|--- .... ....
....|..|--- .... ....|--- .... ....|--- .... ....
....|..|--- .... ....|--- .... ....|--- .... ....

[Pattern28]
....|..|--- .... ....|--- .... ....|--- .... ....
....|..|--- .... ....|--- .... ....|--- .... ....
....|..|--- .... ....|--- .... ....|--- .... ....
....|..|--- .... ....|--- .... ....|--- .... ....
....|..|--- .... ....|--- .... ....|--- .... ....
....|..|--- .... ....|--- .... ....|--- .... ....
....|..|--- .... ....|--- .... ....|--- .... ....
....|..|--- .... ....|--- .... ....|--- .... ....
....|..|--- .... ....|--- .... ....|--- .... ....
....|..|--- .... ....|--- .... ....|--- .... ....
....|..|--- .... ....|--- .... ....|--- .... ....
....|..|--- .... ....|--- .... ....|--- .... ....
....|..|--- .... ....|--- .... ....|--- .... ....
....|..|--- .... ....|--- .... ....|--- .... ....
....|..|--- .... ....|--- .... ....|--- .... ....
....|..|--- .... ....|--- .... ....|--- .... ....
....|..|--- .... ....|--- .... ....|--- .... ....
....|..|--- .... ....|--- .... ....|--- .... ....
....|..|--- .... ....|--- .... ....|--- .... ....
....|..|--- .... ....|--- .... ....|--- .... ....
....|..|--- .... ....|--- .... ....|--- .... ....
....|..|--- .... ....|--- .... ....|--- .... ....
....|..|--- .... ....|--- .... ....|--- .... ....
....|..|--- .... ....|--- .... ....|--- .... ....
....|..|--- .... ....|--- .... ....|--- .... ....
....|..|--- .... ....|--- .... ....|--- .... ....
....|..|--- .... ....|--- .... ....|--- .... ....
....|..|--- .... ....|--- .... ....|--- .... ....
....|..|--- .... ....|--- .... ....|--- .... ....
....|..|--- .... ....|--- .... ....|--- .... ....
....|..|--- .... ....|--- .... ....|--- .... ....
....|..|--- .... ....|--- .... ....|--- .... ....
....|..|--- .... ....|--- .... ....|--- .... ....
....|..|--- .... ....|--- .... ....|--- .... ....
....|..|--- .... ....|--- .... ....|--- .... ....
....|..|--- .... ....|--- .... ....|--- .... ....
....|..|--- .... ....|--- .... ....|--- .... ....
....|..|--- .... ....|--- .... ....|--- .... ....
....|..|--- .... ....|--- .... ....|--- .... ....
....|..|--- .... ....|--- .... ....|--- .... ....
....|..|--- .... ....|--- .... ....|--- .... ....
....|..|--- .... ....|--- .... ....|--- .... ....
....|..|--- .... ....|--- .... ....|--- .... ....
....|..|--- .... ....|--- .... ....|--- .... ....
....|..|--- .... ....|--- .... ....|--- .... ....
....|..|--- .... ....|--- .... ....|--- .... ....
....|..|--- .... ....|--- .... ....|--- .... ....
....|..|--- .... ....|--- .... ....|--- .... ....
....|..|--- .... ....|--- .... ....|--- .... ....
....|..|--- .... ....|--- .... ....|--- .... ....
....|..|--- .... ....|--- .... ....|--- .... ....
....|..|--- .... ....|--- .... ....|--- .... ....
....|..|--- .... ....|--- .... ....|--- .... ....
....|..|--- .... ....|--- .... ....|--- .... ....
....|..|--- .... ....|--- .... ....|--- .... ....
....|..|--- .... ....|--- .... ....|--- .... ....
....|..|--- .... ....|--- .... ....|--- .... ....
....|..|--- .... ....|--- .... ....|--- .... ....
....|..|--- .... ....|--- .... ....|--- .... ....
....|..|--- .... ....|--- .... ....|--- .... ....
....|..|--- .... ....|--- .... ....|--- .... ....
....|..|--- .... ....|--- .... ....|--- .... ....
....|..|--- .... ....|--- .... ....|--- .... ....
....|..|--- .... ....|--- .... ....|--- .... ....
....|..|--- .... ....|--- .... ....|--- .... ....
....|..|--- .... ....|--- .... ....|--- .... ....
....|..|--- .... ....|--- .... ....|--- .... ....
....|..|--- .... ....|--- .... ....|--- .... ....
....|..|--- .... ....|--- .... ....|--- .... ....
....|..|--- .... ....|--- .... ....|--- .... ....
....|..|--- .... ....|--- .... ....|--- .... ....
....|..|--- .... ....|--- .... ....|--- .... ....
....|..|--- .... ....|--- .... ....|--- .... ....
....|..|--- .... ....|--- .... ....|--- .... ....
....|..|--- .... ....|--- .... ....|--- .... ....
....|..|--- .... ....|--- .... ....|--- .... ....
....|..|--- .... ....|--- .... ....|--- .... ....
....|..|--- .... ....|--- .... ....|--- .... ....
....|..|--- .... ....|--- .... ....|--- .... ....
....|..|--- .... ....|--- .... ....|--- .... ....
....|..|--- .... ....|--- .... ....|--- .... ....
....|..|--- .... ....|--- .... ....|--- .... ....
....|..|--- .... ....|--- .... ....|--- .... ....
....|..|--- .... ....|--- .... ....|--- .... ....
....|..|--- .... ....|--- .... ....|--- .... ....
....|..|--- .... ....|--- .... ....|--- .... ....
....|..|--- .... ....|--- .... ....|--- .... ....
....|..|--- .... ....|--- .... ....|--- .... ....
....|..|--- .... ....|--- .... ....|--- .... ....
....|..|--- .... ....|--- .... ....|--- .... ....
....|..|--- .... ....|--- .... ....|--- .... ....
....|..|--- .... ....|--- .... ....|--- .... ....
....|..|--- .... ....|--- .... ....|--- .... ....
....|..|--- .... ....|--- .... ....|--- .... ....
....|..|--- .... ....|--- .... ....|--- .... ....
....|..|--- .... ....|--- .... ....|--- .... ....
....|..|--- .... ....|--- .... ....|--- .... ....
....|..|--- .... ....|--- .... ....|--- .... ....
....|..|--- .... ....|--- .... ....|--- .... ....
....|..|--- .... ....|--- .... ....|--- .... ....
....|..|--- .... ....|--- .... ....|--- .... ....
....|..|--- .... ....|--- .... ....|--- .... ....
....|..|--- .... ....|--- .... ....|--- .... ....
....|..|--- .... ....|--- .... ....|--- .... ....
....|..|--- .... ....|--- .... ....|--- .... ....
....|..|--- .... ....|--- .... ....|--- .... ....
....|..|--- .... ....|--- .... ....|--- .... ....
....|..|--- .... ....|--- .... ....|--- .... ....
....|..|--- .... ....|--- .... ....|--- .... ....
....|..|--- .... ....|--- .... ....|--- .... ....
....|..|--- .... ....|--- .... ....|--- .... ....
....|..|--- .... ....|--- .... ....|--- .... ....
....|..|--- .... ....|--- .... ....|--- .... ....
....|..|--- .... ....|--- .... ....|--- .... ....
....|..|--- .... ....|--- .... ....|--- .... ....
....|..|--- .... ....|--- .... ....|--- .... ....
....|..|--- .... ....|--- .... ....|--- .... ....
....|..|--- .... ....|--- .... ....|--- .... ....
....|..|--- .... ....|--- .... ....|--- .... ....
....|..|--- .... ....|--- .... ....|--- .... ....
....|..|--- .... ....|--- .... ....|--- .... ....
....|..|--- .... ....|--- .... ....|--- .... ....
....|..|--- .... ....|--- .... ....|--- .... ....
....|..|--- .... ....|--- .... ....|--- .... ....
....|..|--- .... ....|--- .... ....|--- .... ....
....|..|--- .... ....|--- .... ....|--- .... ....
....|..|--- .... ....|--- .... ....|--- .... ....
....|..|--- .... ....|--- .... ....|--- .... ....

[Pattern29]
....|..|--- .... ....|--- .... ....|--- .... ....
....|..|--- .... ....|--- .... ....|--- .... ....
....|..|--- .... ....|--- .... ....|--- .... ....
....|..|--- .... ....|--- .... ....|--- .... ....
....|..|--- .... ....|--- .... ....|--- .... ....
....|..|--- .... ....|--- .... ....|--- .... ....
....|..|--- .... ....|--- .... ....|--- .... ....
....|..|--- .... ....|--- .... ....|--- .... ....
....|..|--- .... ....|--- .... ....|--- .... ....
....|..|--- .... ....|--- .... ....|--- .... ....
....|..|--- .... ....|--- .... ....|--- .... ....
....|..|--- .... ....|--- .... ....|--- .... ....
....|..|--- .... ....|--- .... ....|--- .... ....
....|..|--- .... ....|--- .... ....|--- .... ....
....|..|--- .... ....|--- .... ....|--- .... ....
....|..|--- .... ....|--- .... ....|--- .... ....
....|..|--- .... ....|--- .... ....|--- .... ....
....|..|--- .... ....|--- .... ....|--- .... ....
....|..|--- .... ....|--- .... ....|--- .... ....
....|..|--- .... ....|--- .... ....|--- .... ....
....|..|--- .... ....|--- .... ....|--- .... ....
....|..|--- .... ....|--- .... ....|--- .... ....
....|..|--- .... ....|--- .... ....|--- .... ....
....|..|--- .... ....|--- .... ....|--- .... ....
....|..|--- .... ....|--- .... ....|--- .... ....
....|..|--- .... ....|--- .... ....|--- .... ....
....|..|--- .... ....|--- .... ....|--- .... ....
....|..|--- .... ....|--- .... ....|--- .... ....
....|..|--- .... ....|--- .... ....|--- .... ....
....|..|--- .... ....|--- .... ....|--- .... ....
....|..|--- .... ....|--- .... ....|--- .... ....
....|..|--- .... ....|--- .... ....|--- .... ....
....|..|--- .... ....|--- .... ....|--- .... ....
....|..|--- .... ....|--- .... ....|--- .... ....
....|..|--- .... ....|--- .... ....|--- .... ....
....|..|--- .... ....|--- .... ....|--- .... ....
....|..|--- .... ....|--- .... ....|--- .... ....
....|..|--- .... ....|--- .... ....|--- .... ....
....|..|--- .... ....|--- .... ....|--- .... ....
....|..|--- .... ....|--- .... ....|--- .... ....
....|..|--- .... ....|--- .... ....|--- .... ....
....|..|--- .... ....|--- .... ....|--- .... ....
....|..|--- .... ....|--- .... ....|--- .... ....
....|..|--- .... ....|--- .... ....|--- .... ....
....|..|--- .... ....|--- .... ....|--- .... ....
....|..|--- .... ....|--- .... ....|--- .... ....
....|..|--- .... ....|--- .... ....|--- .... ....
....|..|--- .... ....|--- .... ....|--- .... ....
....|..|--- .... ....|--- .... ....|--- .... ....
....|..|--- .... ....|--- .... ....|--- .... ....
....|..|--- .... ....|--- .... ....|--- .... ....
....|..|--- .... ....|--- .... ....|--- .... ....
....|..|--- .... ....|--- .... ....|--- .... ....
....|..|--- .... ....|--- .... ....|--- .... ....
....|..|--- .... ....|--- .... ....|--- .... ....
....|..|--- .... ....|--- .... ....|--- .... ....
....|..|--- .... ....|--- .... ....|--- .... ....
....|..|--- .... ....|--- .... ....|--- .... ....
....|..|--- .... ....|--- .... ....|--- .... ....
....|..|--- .... ....|--- .... ....|--- .... ....
....|..|--- .... ....|--- .... ....|--- .... ....
....|..|--- .... ....|--- .... ....|--- .... ....
....|..|--- .... ....|--- .... ....|--- .... ....
....|..|--- .... ....|--- .... ....|--- .... ....
 G-4|..|--- .... ....|G-2 2A.F ....|--- .... ....
....|..|--- .... ....|--- .... ....|--- .... ....
 G-4|..|--- .... ....|G-2 2A.F ....|--- .... ....
....|..|--- .... ....|--- .... ....|--- .... ....
 G-4|..|--- .... ....|G-2 2A.F ....|--- .... ....
....|..|--- .... ....|--- .... ....|--- .... ....
 G-4|..|--- .... ....|G-2 2A.F ....|--- .... ....
....|..|--- .... ....|--- .... ....|--- .... ....
 G-4|..|--- .... ....|G-2 2A.F ....|--- .... ....
....|..|--- .... ....|--- .... ....|--- .... ....
 G-4|..|--- .... ....|G-3 2C.F ....|--- .... ....
....|..|--- .... ....|--- .... ....|--- .... ....
 G-4|..|--- .... ....|G-2 2A.F ....|--- .... ....
....|..|--- .... ....|--- .... ....|--- .... ....
 G-4|..|--- .... ....|G-2 2A.F ....|--- .... ....
....|..|--- .... ....|--- .... ....|--- .... ....
 G-4|..|--- .... ....|G-2 2A.F ....|--- .... ....
....|..|--- .... ....|--- .... ....|--- .... ....
 G-4|..|--- .... ....|G-2 2A.F ....|--- .... ....
....|..|--- .... ....|--- .... ....|--- .... ....
 G-4|..|--- .... ....|G-2 2A.F ....|--- .... ....
....|..|--- .... ....|--- .... ....|--- .... ....
 G-4|..|--- .... ....|G-2 2A.F ....|--- .... ....
....|..|--- .... ....|--- .... ....|--- .... ....
 G-4|..|--- .... ....|G-2 2A.F ....|--- .... ....
....|..|--- .... ....|--- .... ....|--- .... ....
 G-4|..|--- .... ....|G-3 2C.F ....|--- .... ....
....|..|--- .... ....|--- .... ....|--- .... ....
 G-4|..|--- .... ....|G-2 2A.F ....|--- .... ....
....|..|--- .... ....|--- .... ....|--- .... ....
 G-4|..|--- .... ....|G-2 2A.F ....|--- .... ....
....|..|--- .... ....|--- .... ....|--- .... ....
 G-4|..|--- .... ....|G-2 2A.F ....|--- .... ....
....|..|--- .... ....|--- .... ....|--- .... ....
 G-4|..|--- .... ....|G-2 2A.F ....|--- .... ....
....|..|--- .... ....|--- .... ....|--- .... ....
 G-4|..|--- .... ....|G-2 2A.F ....|--- .... ....
....|..|--- .... ....|--- .... ....|--- .... ....
 G-4|..|--- .... ....|G-2 2A.F ....|--- .... ....
....|..|--- .... ....|--- .... ....|--- .... ....
 G-4|..|--- .... ....|G-2 2A.F ....|--- .... ....
....|..|--- .... ....|--- .... ....|--- .... ....
 G-4|..|--- .... ....|G-3 2C.F ....|--- .... ....
....|..|--- .... ....|--- .... ....|--- .... ....
 G-4|..|--- .... ....|G-2 2A.F ....|--- .... ....
....|..|--- .... ....|--- .... ....|--- .... ....
 G-4|..|--- .... ....|G-2 2A.F ....|--- .... ....
....|..|--- .... ....|--- .... ....|--- .... ....
 G-4|..|--- .... ....|G-2 2A.F ....|--- .... ....
....|..|--- .... ....|--- .... ....|--- .... ....
 G-4|..|--- .... ....|G-2 2A.F ....|--- .... ....
....|..|--- .... ....|--- .... ....|--- .... ....
 G-4|..|--- .... ....|G-2 2A.F ....|--- .... ....
....|..|--- .... ....|--- .... ....|--- .... ....
 G-4|..|--- .... ....|G-2 2A.F ....|--- .... ....
....|..|--- .... ....|--- .... ....|--- .... ....
 G-4|..|--- .... ....|G-2 2A.F ....|--- .... ....
....|..|--- .... ....|--- .... ....|--- .... ....
 G-4|..|--- .... ....|G-3 2C.F ....|--- .... ....
....|..|--- .... ....|--- .... ....|--- .... ....
 G-4|..|--- .... ....|G-2 2A.F ....|--- .... ....
....|..|--- .... ....|--- .... ....|--- .... ....
 G-4|..|--- .... ....|G-2 2A.F ....|--- .... ....
....|..|--- .... ....|--- .... ....|--- .... ....

[Pattern30]
 G-4|..|--- .... ....|G-2 2A.F ....|--- .... ....
....|..|--- .... ....|--- .... ....|--- .... ....
 G-4|..|--- .... ....|G-2 2A.F ....|--- .... ....
....|..|--- .... ....|--- .... ....|--- .... ....
 G-4|..|--- .... ....|G-2 2A.F ....|--- .... ....
....|..|--- .... ....|--- .... ....|--- .... ....
 G-4|..|--- .... ....|G-2 2A.F ....|--- .... ....
....|..|--- .... ....|--- .... ....|--- .... ....
 G-4|..|--- .... ....|G-2 2A.F ....|--- .... ....
....|..|--- .... ....|--- .... ....|--- .... ....
 G-4|..|--- .... ....|G-3 2C.F ....|--- .... ....
....|..|--- .... ....|--- .... ....|--- .... ....
 G-4|..|--- .... ....|G-2 2A.F ....|--- .... ....
....|..|--- .... ....|--- .... ....|--- .... ....
 G-4|..|--- .... ....|G-2 2A.F ....|--- .... ....
....|..|--- .... ....|--- .... ....|--- .... ....
 G-4|..|--- .... ....|G-2 2A.F ....|--- .... ....
....|..|--- .... ....|--- .... ....|--- .... ....
 G-4|..|--- .... ....|G-2 2A.F ....|--- .... ....
....|..|--- .... ....|--- .... ....|--- .... ....
 G-4|..|--- .... ....|G-2 2A.F ....|--- .... ....
....|..|--- .... ....|--- .... ....|--- .... ....
 G-4|..|--- .... ....|G-2 2A.F ....|--- .... ....
....|..|--- .... ....|--- .... ....|--- .... ....
 G-4|..|--- .... ....|G-2 2A.F ....|--- .... ....
....|..|--- .... ....|--- .... ....|--- .... ....
 G-4|..|--- .... ....|G-3 2C.F ....|--- .... ....
....|..|--- .... ....|--- .... ....|--- .... ....
 G-4|..|--- .... ....|G-2 2A.F ....|--- .... ....
....|..|--- .... ....|--- .... ....|--- .... ....
 G-4|..|--- .... ....|G-2 2A.F ....|--- .... ....
....|..|--- .... ....|--- .... ....|--- .... ....
 G-4|..|--- .... ....|G-2 2A.F ....|--- .... ....
....|..|--- .... ....|--- .... ....|--- .... ....
 G-4|..|--- .... ....|G-2 2A.F ....|--- .... ....
....|..|--- .... ....|--- .... ....|--- .... ....
 G-4|..|--- .... ....|G-2 2A.F ....|--- .... ....
....|..|--- .... ....|--- .... ....|--- .... ....
 G-4|..|--- .... ....|G-2 2A.F ....|--- .... ....
....|..|--- .... ....|--- .... ....|--- .... ....
 G-4|..|--- .... ....|G-2 2A.F ....|--- .... ....
....|..|--- .... ....|--- .... ....|--- .... ....
 G-4|..|--- .... ....|G-3 2C.F ....|--- .... ....
....|..|--- .... ....|--- .... ....|--- .... ....
 G-4|..|--- .... ....|G-2 2A.F ....|--- .... ....
....|..|--- .... ....|--- .... ....|--- .... ....
 G-4|..|--- .... ....|G-2 2A.F ....|--- .... ....
....|..|--- .... ....|--- .... ....|--- .... ....
 G-4|..|--- .... ....|G-2 2A.F ....|--- .... ....
....|..|--- .... ....|--- .... ....|--- .... ....
 G-4|..|--- .... ....|G-2 2A.F ....|--- .... ....
....|..|--- .... ....|--- .... ....|--- .... ....
 G-4|..|G-4 2F.F ....|G-2 2A.F ....|--- .... ....
....|..|--- .... ....|--- .... ....|--- .... ....
 G-4|..|--- .... ....|G-2 2A.F ....|--- .... ....
....|..|--- .... ....|--- .... ....|--- .... ....
 G-4|..|A#4 2F.F ....|G-2 2A.F ....|--- .... ....
....|..|--- .... ....|--- .... ....|--- .... ....
 G-4|..|G-4 2F.F ....|G-3 2C.F ....|--- .... ....
....|..|--- .... ....|--- .... ....|--- .... ....
 G-4|..|D-5 2F.F ....|G-2 2A.F ....|--- .... ....
....|..|--- .... ....|--- .... ....|--- .... ....
 G-4|..|G-4 2F.F ....|G-2 2A.F ....|--- .... ....
....|..|--- .... ....|--- .... ....|--- .... ....
 G-4|..|A-4 2F.F ....|G-2 2A.F ....|--- .... ....
....|..|A#4 2F.F ....|--- .... ....|--- .... ....
 G-4|..|A-4 2F.F ....|G-2 2A.F ....|--- .... ....
....|..|--- .... ....|--- .... ....|--- .... ....
 G-4|..|A#4 2F.A ....|G-2 2A.F ....|--- .... ....
....|..|--- .... ....|--- .... ....|--- .... ....
 G-4|..|G-4 2F.A ....|G-2 2A.F ....|--- .... ....
....|..|--- .... ....|--- .... ....|--- .... ....
 G-4|..|G-4 2F.F ....|G-2 2A.F ....|--- .... ....
....|..|--- .... ....|--- .... ....|--- .... ....
 G-4|..|G-4 2F.A ....|G-3 2C.F ....|--- .... ....
....|..|--- .... ....|--- .... ....|--- .... ....
 G-4|..|G-4 2F.7 ....|G-2 2A.F ....|--- .... ....
....|..|A#4 2F.A ....|--- .... ....|--- .... ....
 G-4|..|A-4 2F.A ....|G-2 2A.F ....|--- .... ....
....|..|--- .... ....|--- .... ....|--- .... ....
 G-4|..|A#4 2F.7 ....|G-2 2A.F ....|--- .... ....
....|..|--- .... ....|--- .... ....|--- .... ....
 G-4|..|G-4 2F.7 ....|G-2 2A.F ....|--- .... ....
....|..|--- .... ....|--- .... ....|--- .... ....
 G-4|..|D-5 2F.7 ....|G-2 2A.F ....|--- .... ....
....|..|--- .... ....|--- .... ....|--- .... ....
 G-4|..|G-4 2F.7 ....|G-2 2A.F ....|--- .... ....
....|..|--- .... ....|--- .... ....|--- .... ....
 G-4|..|A-4 2F.7 ....|G-2 2A.F ....|--- .... ....
....|..|A#4 2F.7 ....|--- .... ....|--- .... ....
 G-4|..|A-4 2F.7 ....|G-3 2C.F ....|--- .... ....
....|..|--- .... ....|--- .... ....|--- .... ....
 G-4|..|--- .... ....|G-2 2A.F ....|--- .... ....
....|..|--- .... ....|--- .... ....|--- .... ....
 G-4|..|--- .... ....|G-2 2A.F ....|--- .... ....
....|..|--- .... ....|--- .... ....|--- .... ....
 G-4|..|G-4 2F.7 ....|G-2 2A.F ....|--- .... ....
....|..|--- .... ....|--- .... ....|--- .... ....
 G-4|..|--- .... ....|G-2 2A.F ....|--- .... ....
....|..|--- .... ....|--- .... ....|--- .... ....
 G-4|..|--- .... ....|G-2 2A.F ....|--- .... ....
....|..|--- .... ....|--- .... ....|--- .... ....
 G-4|..|--- .... ....|G-2 2A.F ....|--- .... ....
....|..|--- .... ....|--- .... ....|--- .... ....
 G-4|..|--- .... ....|G-2 2A.F ....|--- .... ....
....|..|--- .... ....|--- .... ....|--- .... ....
 G-4|..|--- .... ....|G-3 2C.F ....|--- .... ....
....|..|--- .... ....|--- .... ....|--- .... ....
 G-4|..|--- .... ....|G-2 2A.F ....|--- .... ....
....|..|--- .... ....|--- .... ....|--- .... ....
 G-4|..|--- .... ....|G-2 2A.F ....|--- .... ....
....|..|--- .... ....|--- .... ....|--- .... ....
 G-4|..|--- .... ....|G-2 2A.F ....|--- .... ....
....|..|--- .... ....|--- .... ....|--- .... ....
 G-4|..|--- .... ....|G-2 2A.F ....|--- .... ....
....|..|--- .... ....|--- .... ....|--- .... ....
 G-4|..|--- .... ....|G-2 2A.F ....|--- .... ....
....|..|--- .... ....|--- .... ....|--- .... ....
 G-4|..|--- .... ....|G-2 2A.F ....|--- .... ....
....|..|--- .... ....|--- .... ....|--- .... ....
 G-4|..|--- .... ....|G-2 2A.F ....|--- .... ....
....|..|--- .... ....|--- .... ....|--- .... ....
 G-4|..|--- .... ....|G-3 2C.F ....|--- .... ....
....|..|--- .... ....|--- .... ....|--- .... ....
 G-4|..|--- .... ....|G-2 2A.F ....|--- .... ....
....|..|--- .... ....|--- .... ....|--- .... ....
 G-4|..|--- .... ....|G-2 2A.F ....|--- .... ....
....|..|--- .... ....|--- .... ....|--- .... ....

[Pattern31]
 G-4|..|--- .... ....|G-2 2A.F ....|--- .... ....
....|..|--- .... ....|--- .... ....|--- .... ....
 G-4|..|--- .... ....|G-2 2A.F ....|--- .... ....
....|..|--- .... ....|--- .... ....|--- .... ....
 G-4|..|--- .... ....|G-2 2A.F ....|--- .... ....
....|..|--- .... ....|--- .... ....|--- .... ....
 G-4|..|--- .... ....|G-2 2A.F ....|--- .... ....
....|..|--- .... ....|--- .... ....|--- .... ....
 G-4|..|--- .... ....|G-2 2A.F ....|--- .... ....
....|..|--- .... ....|--- .... ....|--- .... ....
 G-4|..|--- .... ....|G-3 2C.F ....|--- .... ....
....|..|--- .... ....|--- .... ....|--- .... ....
 G-4|..|--- .... ....|G-2 2A.F ....|--- .... ....
....|..|--- .... ....|--- .... ....|--- .... ....
 G-4|..|--- .... ....|G-2 2A.F ....|--- .... ....
....|..|--- .... ....|--- .... ....|--- .... ....
 G-4|..|--- .... ....|G-2 2A.F ....|--- .... ....
....|..|--- .... ....|--- .... ....|--- .... ....
 G-4|..|--- .... ....|G-2 2A.F ....|--- .... ....
....|..|--- .... ....|--- .... ....|--- .... ....
 G-4|..|--- .... ....|G-2 2A.F ....|--- .... ....
....|..|--- .... ....|--- .... ....|--- .... ....
 G-4|..|--- .... ....|G-2 2A.F ....|--- .... ....
....|..|--- .... ....|--- .... ....|--- .... ....
 G-4|..|--- .... ....|G-2 2A.F ....|--- .... ....
....|..|--- .... ....|--- .... ....|--- .... ....
 G-4|..|--- .... ....|G-3 2C.F ....|--- .... ....
....|..|--- .... ....|--- .... ....|--- .... ....
 G-4|..|--- .... ....|G-2 2A.F ....|--- .... ....
....|..|--- .... ....|--- .... ....|--- .... ....
 G-4|..|--- .... ....|G-2 2A.F ....|--- .... ....
....|..|--- .... ....|--- .... ....|--- .... ....
 G-4|..|--- .... ....|G-2 2A.F ....|--- .... ....
....|..|--- .... ....|--- .... ....|--- .... ....
 G-4|..|--- .... ....|G-2 2A.F ....|--- .... ....
....|..|--- .... ....|--- .... ....|--- .... ....
 G-4|..|--- .... ....|G-2 2A.F ....|--- .... ....
....|..|--- .... ....|--- .... ....|--- .... ....
 G-4|..|--- .... ....|G-2 2A.F ....|--- .... ....
....|..|--- .... ....|--- .... ....|--- .... ....
 G-4|..|--- .... ....|G-2 2A.F ....|--- .... ....
....|..|--- .... ....|--- .... ....|--- .... ....
 G-4|..|--- .... ....|G-2 2A.F ....|--- .... ....
....|..|--- .... ....|--- .... ....|--- .... ....
 G-4|..|--- .... ....|G-2 2A.F ....|--- .... ....
....|..|--- .... ....|--- .... ....|--- .... ....
 G-4|..|--- .... ....|G-2 2A.F ....|--- .... ....
....|..|--- .... ....|--- .... ....|--- .... ....
 G-4|..|--- .... ....|G-2 2A.F ....|--- .... ....
....|..|--- .... ....|--- .... ....|--- .... ....
 G-4|..|--- .... ....|G-2 2A.F ....|--- .... ....
....|..|--- .... ....|--- .... ....|--- .... ....
 G-4|..|--- .... ....|G-2 2A.F ....|--- .... ....
....|..|--- .... ....|--- .... ....|--- .... ....
 G-4|..|--- .... ....|G-2 2A.F ....|--- .... ....
....|..|--- .... ....|--- .... ....|--- .... ....
 G-4|..|--- .... ....|G-2 2A.F ....|--- .... ....
 G-4|..|--- .... ....|G-2 2A.F ....|--- .... ....
 G-4|..|--- .... ....|G-2 2A.F ....|--- .... ....
 G-4|..|--- .... ....|G-2 2A.F ....|--- .... ....
 G-4|..|--- .... ....|G-2 2A.F ....|--- .... ....
 G-4|..|--- .... ....|G-2 2A.F ....|--- .... ....
 G-4|..|--- .... ....|G-2 2A.F ....|--- .... ....
 G-4|..|--- .... ....|G-2 2A.F ....|--- .... ....
 G-4|..|G-3 2F.F ....|G-2 2A.F ....|--- .... ....
....|..|--- .... ....|--- .... ....|--- .... ....
 G-4|..|A-3 2F.F ....|G-2 2A.F ....|--- .... ....
....|..|--- .... ....|--- .... ....|--- .... ....
 G-4|..|A#3 2F.F ....|G-2 2A.F ....|--- .... ....
....|..|--- .... ....|G-2 2F.A ....|--- .... ....
 G-4|..|C#4 2F.F ....|G-2 2A.F ....|--- .... ....
....|..|--- .... ....|G-2 2F.A ....|--- .... ....
 G-4|..|--- .... ....|G-2 2A.F ....|--- .... ....
....|..|--- .... ....|G-2 2F.A ....|--- .... ....
 G-4|..|--- .... ....|G-3 2C.F ....|--- .... ....
....|..|--- .... ....|G-2 2F.A ....|--- .... ....
 G-4|..|D-4 2F.F ....|G-2 2A.F ....|--- .... ....
....|..|--- .... ....|--- .... ....|--- .... ....
 G-4|..|A-3 2F.A ....|G-2 2A.F ....|--- .... ....
....|..|--- .... ....|--- .... ....|--- .... ....
 G-4|..|E-4 2F.F ....|G-2 2A.F ....|--- .... ....
....|..|--- .... ....|G-2 2F.7 ....|--- .... ....
 G-4|..|F-4 2F.F ....|G-2 2A.F ....|--- .... ....
....|..|--- .... ....|G-2 2F.7 ....|--- .... ....
 G-4|..|G-4 2F.F ....|G-2 2A.F ....|--- .... ....
....|..|--- .... ....|G-2 2F.7 ....|--- .... ....
 G-4|..|F-4 2F.F ....|G-2 2A.F ....|--- .... ....
....|..|--- .... ....|G-2 2F.7 ....|--- .... ....
 G-4|..|G-3 2F.7 ....|G-2 2A.F ....|--- .... ....
....|..|--- .... ....|--- .... ....|--- .... ....
 G-4|..|A-3 2F.7 ....|G-3 2C.F ....|--- .... ....
....|..|--- .... ....|--- .... ....|--- .... ....
 G-4|..|E-4 2F.F ....|G-2 2A.F ....|--- .... ....
....|..|--- .... ....|--- .... ....|--- .... ....
 G-4|..|C#4 2F.7 ....|G-2 2A.F ....|--- .... ....
....|..|--- .... ....|--- .... ....|--- .... ....
 G-4|..|D-4 2F.F ....|G-2 2A.F ....|--- .... ....
....|..|--- .... ....|--- .... ....|--- .... ....
 G-4|..|F-4 2F.A ....|G-2 2A.F ....|--- .... ....
....|..|--- .... ....|--- .... ....|--- .... ....
 G-4|..|E-4 2F.F ....|G-2 2A.F ....|--- .... ....
....|..|--- .... ....|--- .... ....|--- .... ....
 G-4|..|D-4 2F.F ....|G-2 2A.F ....|--- .... ....
....|..|--- .... ....|--- .... ....|--- .... ....
 G-4|..|E-4 2F.7 ....|G-2 2A.F ....|--- .... ....
....|..|--- .... ....|--- .... ....|--- .... ....
 G-4|..|C#4 2F.F ....|G-3 2C.F ....|--- .... ....
....|..|--- .... ....|--- .... ....|--- .... ....
 G-4|..|G-4 2F.7 ....|G-2 2A.F ....|--- .... ....
....|..|--- .... ....|--- .... ....|--- .... ....
 G-4|..|A#3 2F.F ....|G-2 2A.F ....|--- .... ....
....|..|--- .... ....|--- .... ....|--- .... ....
 G-4|..|C#4 2F.F ....|G-2 2A.F ....|--- .... ....
....|..|--- .... ....|--- .... ....|--- .... ....
 G-4|..|A#3 2F.F ....|G-2 2A.F ....|--- .... ....
....|..|--- .... ....|--- .... ....|--- .... ....
 G-4|..|A-3 2F.F ....|G-2 2A.F ....|--- .... ....
....|..|--- .... ....|--- .... ....|--- .... ....
 G-4|..|C#4 2F.A ....|G-2 2A.F ....|--- .... ....
....|..|--- .... ....|--- .... ....|--- .... ....
 G-4|..|G-3 2F.F ....|G-2 2A.F ....|--- .... ....
....|..|--- .... ....|--- .... ....|--- .... ....
 G-4|..|A#3 2F.A ....|G-3 2C.F ....|--- .... ....
....|..|--- .... ....|--- .... ....|--- .... ....
 G-4|..|E-4 2F.7 ....|G-2 2A.F ....|--- .... ....
....|..|--- .... ....|--- .... ....|--- .... ....
 G-4|..|D-4 2F.7 ....|G-2 2A.F ....|--- .... ....
....|..|--- .... ....|--- .... ....|--- .... ....

[Pattern32]
 G-4|..|G-3 2F.F ....|G-2 2A.F ....|--- .... ....
....|..|--- .... ....|--- .... ....|--- .... ....
 G-4|..|A-3 2F.F ....|G-2 2A.F ....|--- .... ....
....|..|--- .... ....|--- .... ....|--- .... ....
 G-4|..|A#3 2F.F ....|G-2 2A.F ....|--- .... ....
....|..|--- .... ....|--- .... ....|--- .... ....
 G-4|..|C#4 2F.F ....|G-2 2A.F ....|--- .... ....
....|..|--- .... ....|--- .... ....|--- .... ....
 G-4|..|C#4 2F.7 ....|G-2 2A.F ....|--- .... ....
....|..|--- .... ....|--- .... ....|--- .... ....
 G-4|..|D-4 2F.F ....|G-3 2C.F ....|--- .... ....
....|..|--- .... ....|--- .... ....|--- .... ....
 G-4|..|A-3 2F.7 ....|G-2 2A.F ....|--- .... ....
....|..|--- .... ....|--- .... ....|--- .... ....
 G-4|..|E-4 2F.F ....|G-2 2A.F ....|--- .... ....
....|..|--- .... ....|--- .... ....|--- .... ....
 G-4|..|F-4 2F.F ....|G-2 2A.F ....|--- .... ....
....|..|--- .... ....|--- .... ....|--- .... ....
 G-4|..|G-4 2F.F ....|G-2 2A.F ....|--- .... ....
....|..|--- .... ....|--- .... ....|--- .... ....
 G-4|..|A-4 2F.F ....|G-2 2A.F ....|--- .... ....
....|..|--- .... ....|--- .... ....|--- .... ....
 G-4|..|D-4 2F.A ....|G-2 2A.F ....|--- .... ....
....|..|--- .... ....|--- .... ....|--- .... ....
 G-4|..|G-4 2F.F ....|G-2 2A.F ....|--- .... ....
....|..|A-4 2F.F ....|--- .... ....|--- .... ....
 G-4|..|G-4 2F.F ....|G-3 2C.F ....|--- .... ....
....|..|--- .... ....|--- .... ....|--- .... ....
 G-4|..|F-4 2F.F ....|G-2 2A.F ....|--- .... ....
....|..|--- .... ....|--- .... ....|--- .... ....
 G-4|..|C#4 2F.7 ....|G-2 2A.F ....|--- .... ....
....|..|--- .... ....|--- .... ....|--- .... ....
 G-4|..|E-4 2F.F ....|G-2 2A.F ....|--- .... ....
....|..|--- .... ....|--- .... ....|--- .... ....
 G-4|..|D-4 2F.7 ....|G-2 2A.F ....|--- .... ....
....|..|--- .... ....|--- .... ....|--- .... ....
 G-4|..|D-4 2F.F ....|G-2 2A.F ....|--- .... ....
....|..|A-4 2F.A ....|--- .... ....|--- .... ....
 G-4|..|C#4 2F.F ....|G-2 2A.F ....|--- .... ....
....|..|--- .... ....|--- .... ....|--- .... ....
 G-4|..|A#3 2F.F ....|G-2 2A.F ....|--- .... ....
....|..|--- .... ....|--- .... ....|--- .... ....
 G-4|..|C#4 2F.F ....|G-3 2C.F ....|--- .... ....
....|..|--- .... ....|--- .... ....|--- .... ....
 G-4|..|A#3 2F.F ....|G-2 2A.F ....|--- .... ....
....|..|--- .... ....|--- .... ....|--- .... ....
 G-4|..|A-3 2F.F ....|G-2 2A.F ....|--- .... ....
....|..|--- .... ....|--- .... ....|--- .... ....
 G-4|..|A#3 2F.F ....|G-2 2A.F ....|--- .... ....
....|..|A-4 2F.7 ....|--- .... ....|--- .... ....
 G-4|..|G-3 2F.F ....|G-2 2A.F ....|--- .... ....
....|..|--- .... ....|--- .... ....|--- .... ....
 G-4|..|A-3 2F.F ....|G-2 2A.F ....|--- .... ....
....|..|--- .... ....|--- .... ....|--- .... ....
 G-4|..|A#3 2F.F ....|G-2 2A.F ....|--- .... ....
....|..|--- .... ....|--- .... ....|--- .... ....
 G-4|..|D-4 2F.F ....|G-2 2A.F ....|--- .... ....
....|..|--- .... ....|--- .... ....|--- .... ....
 G-4|..|A-3 2F.A ....|G-3 2C.F ....|--- .... ....
....|..|--- .... ....|--- .... ....|--- .... ....
 G-4|..|D-4 2F.7 ....|G-2 2A.F ....|--- .... ....
....|..|--- .... ....|--- .... ....|--- .... ....
 G-4|..|C#4 2F.7 ....|G-2 2A.F ....|--- .... ....
....|..|--- .... ....|--- .... ....|--- .... ....
 G-4|..|G-3 2F.F ....|G-2 2A.F ....|--- .... ....
....|..|--- .... ....|--- .... ....|--- .... ....
 G-4|..|A-3 2F.F ....|G-2 2A.F ....|--- .... ....
....|..|--- .... ....|--- .... ....|--- .... ....
 G-4|..|A#3 2F.F ....|G-2 2A.F ....|--- .... ....
....|..|--- .... ....|--- .... ....|--- .... ....
 G-4|..|C#4 2F.F ....|G-2 2A.F ....|--- .... ....
....|..|--- .... ....|--- .... ....|--- .... ....
 G-4|..|A#3 2F.7 ....|G-2 2A.F ....|--- .... ....
....|..|--- .... ....|--- .... ....|--- .... ....
 G-4|..|G-3 2F.7 ....|G-3 2C.F ....|--- .... ....
....|..|--- .... ....|--- .... ....|--- .... ....
 G-4|..|D-4 2F.F ....|G-2 2A.F ....|--- .... ....
....|..|--- .... ....|--- .... ....|--- .... ....
 G-4|..|A#3 2F.7 ....|G-2 2A.F ....|--- .... ....
....|..|--- .... ....|--- .... ....|--- .... ....
 G-4|..|E-4 2F.F ....|G-2 2A.F ....|--- .... ....
....|..|--- .... ....|--- .... ....|--- .... ....
 G-4|..|F-4 2F.F ....|G-2 2A.F ....|--- .... ....
....|..|--- .... ....|--- .... ....|--- .... ....
 G-4|..|G-4 2F.F ....|G-2 2A.F ....|--- .... ....
....|..|--- .... ....|--- .... ....|--- .... ....
 G-4|..|F-4 2F.F ....|G-2 2A.F ....|--- .... ....
....|..|--- .... ....|--- .... ....|--- .... ....
 G-4|..|G-3 2F.7 ....|G-2 2A.F ....|--- .... ....
....|..|--- .... ....|--- .... ....|--- .... ....
 G-4|..|A-3 2F.7 ....|G-3 2C.F ....|--- .... ....
....|..|--- .... ....|--- .... ....|--- .... ....
 G-4|..|E-4 2F.F ....|G-2 2A.F ....|--- .... ....
....|..|--- .... ....|--- .... ....|--- .... ....
 G-4|..|C#4 2F.7 ....|G-2 2A.F ....|--- .... ....
....|..|--- .... ....|--- .... ....|--- .... ....
 G-4|..|D-4 2F.F ....|G-2 2A.F ....|--- .... ....
....|..|--- .... ....|--- .... ....|--- .... ....
 G-4|..|F-4 2F.A ....|G-2 2A.F ....|--- .... ....
....|..|--- .... ....|--- .... ....|--- .... ....
 G-4|..|E-4 2F.F ....|G-2 2A.F ....|--- .... ....
....|..|--- .... ....|--- .... ....|--- .... ....
 G-4|..|D-4 2F.F ....|G-2 2A.F ....|--- .... ....
....|..|--- .... ....|--- .... ....|--- .... ....
 G-4|..|E-4 2F.7 ....|G-2 2A.F ....|--- .... ....
....|..|--- .... ....|--- .... ....|--- .... ....
 G-4|..|C#4 2F.F ....|G-3 2C.F ....|--- .... ....
....|..|--- .... ....|--- .... ....|--- .... ....
 G-4|..|G-4 2F.7 ....|G-2 2A.F ....|--- .... ....
....|..|--- .... ....|--- .... ....|--- .... ....
 G-4|..|A#3 2F.F ....|G-2 2A.F ....|--- .... ....
....|..|--- .... ....|--- .... ....|--- .... ....
 G-4|..|C#4 2F.F ....|G-2 2A.F ....|--- .... ....
....|..|--- .... ....|--- .... ....|--- .... ....
 G-4|..|A#3 2F.F ....|G-2 2A.F ....|--- .... ....
....|..|--- .... ....|--- .... ....|--- .... ....
 G-4|..|A-3 2F.F ....|G-2 2A.F ....|--- .... ....
....|..|--- .... ....|--- .... ....|--- .... ....
 G-4|..|C#4 2F.A ....|G-2 2A.F ....|--- .... ....
....|..|--- .... ....|--- .... ....|--- .... ....
 G-4|..|G-3 2F.F ....|G-2 2A.F ....|--- .... ....
....|..|--- .... ....|--- .... ....|--- .... ....
 G-4|..|A#3 2F.A ....|G-3 2C.F ....|--- .... ....
....|..|--- .... ....|--- .... ....|--- .... ....
 G-4|..|E-4 2F.7 ....|G-2 2A.F ....|--- .... ....
....|..|--- .... ....|--- .... ....|--- .... ....
 G-4|..|D-4 2F.7 ....|G-2 2A.F ....|--- .... ....
....|..|--- .... ....|--- .... ....|--- .... ....

[Pattern33]
 G-4|..|G-3 2F.F ....|G-2 2A.F ....|--- .... ....
....|..|--- .... ....|--- .... ....|--- .... ....
 G-4|..|A-3 2F.F ....|G-2 2A.F ....|--- .... ....
....|..|--- .... ....|--- .... ....|--- .... ....
 G-4|..|A#3 2F.F ....|G-2 2A.F ....|--- .... ....
....|..|--- .... ....|--- .... ....|--- .... ....
 G-4|..|C#4 2F.F ....|G-2 2A.F ....|--- .... ....
....|..|--- .... ....|--- .... ....|--- .... ....
 G-4|..|C#4 2F.7 ....|G-2 2A.F ....|--- .... ....
....|..|--- .... ....|--- .... ....|--- .... ....
 G-4|..|D-4 2F.F ....|G-3 2C.F ....|--- .... ....
....|..|--- .... ....|--- .... ....|--- .... ....
 G-4|..|A-3 2F.7 ....|G-2 2A.F ....|--- .... ....
....|..|--- .... ....|--- .... ....|--- .... ....
 G-4|..|E-4 2F.F ....|G-2 2A.F ....|--- .... ....
....|..|--- .... ....|--- .... ....|--- .... ....
 G-4|..|F-4 2F.F ....|G-2 2A.F ....|--- .... ....
....|..|--- .... ....|--- .... ....|--- .... ....
 G-4|..|G-4 2F.F ....|G-2 2A.F ....|--- .... ....
....|..|--- .... ....|--- .... ....|--- .... ....
 G-4|..|A-4 2F.F ....|G-2 2A.F ....|--- .... ....
....|..|--- .... ....|--- .... ....|--- .... ....
 G-4|..|D-4 2F.A ....|G-2 2A.F ....|--- .... ....
....|..|--- .... ....|--- .... ....|--- .... ....
 G-4|..|G-4 2F.F ....|G-2 2A.F ....|--- .... ....
....|..|A-4 2F.F ....|--- .... ....|--- .... ....
 G-4|..|G-4 2F.F ....|G-3 2C.F ....|--- .... ....
....|..|--- .... ....|--- .... ....|--- .... ....
 G-4|..|F-4 2F.F ....|G-2 2A.F ....|--- .... ....
....|..|--- .... ....|--- .... ....|--- .... ....
 G-4|..|C#4 2F.7 ....|G-2 2A.F ....|--- .... ....
....|..|--- .... ....|--- .... ....|--- .... ....
 G-4|..|E-4 2F.F ....|G-2 2A.F ....|--- .... ....
....|..|--- .... ....|--- .... ....|--- .... ....
 G-4|..|D-4 2F.7 ....|G-2 2A.F ....|--- .... ....
....|..|--- .... ....|--- .... ....|--- .... ....
 G-4|..|D-4 2F.F ....|G-2 2A.F ....|--- .... ....
....|..|A-4 2F.A ....|--- .... ....|--- .... ....
 G-4|..|C#4 2F.F ....|G-2 2A.F ....|--- .... ....
....|..|--- .... ....|--- .... ....|--- .... ....
 G-4|..|A#3 2F.F ....|G-2 2A.F ....|--- .... ....
....|..|--- .... ....|--- .... ....|--- .... ....
 G-4|..|C#4 2F.F ....|G-3 2C.F ....|--- .... ....
....|..|--- .... ....|--- .... ....|--- .... ....
 G-4|..|A#3 2F.F ....|G-2 2A.F ....|--- .... ....
....|..|--- .... ....|--- .... ....|--- .... ....
 G-4|..|A-3 2F.F ....|G-2 2A.F ....|--- .... ....
....|..|--- .... ....|--- .... ....|--- .... ....
 G-4|..|A#3 2F.F ....|G-2 2A.F ....|--- .... ....
....|..|A-4 2F.7 ....|--- .... ....|--- .... ....
 G-4|..|G-3 2F.F ....|G-2 2A.F ....|--- .... ....
....|..|--- .... ....|--- .... ....|--- .... ....
 G-4|..|A-3 2F.F ....|G-2 2A.F ....|--- .... ....
....|..|--- .... ....|--- .... ....|--- .... ....
 G-4|..|A#3 2F.F ....|G-2 2A.F ....|--- .... ....
....|..|--- .... ....|--- .... ....|--- .... ....
 G-4|..|D-4 2F.F ....|G-2 2A.F ....|--- .... ....
....|..|--- .... ....|--- .... ....|--- .... ....
 G-4|..|A-3 2F.A ....|G-3 2C.F ....|--- .... ....
....|..|--- .... ....|--- .... ....|--- .... ....
 G-4|..|D-4 2F.7 ....|G-2 2A.F ....|--- .... ....
....|..|--- .... ....|--- .... ....|--- .... ....
 G-4|..|C#4 2F.7 ....|G-2 2A.F ....|--- .... ....
....|..|--- .... ....|--- .... ....|--- .... ....
 G-4|..|G-3 2F.F ....|G-2 2A.F ....|A#4 2F.F ....
....|..|--- .... ....|--- .... ....|--- .... ....
 G-4|..|A-3 2F.F ....|G-2 2A.F ....|--- .... ....
....|..|--- .... ....|--- .... ....|--- .... ....
 G-4|..|A#3 2F.F ....|G-2 2A.F ....|A#4 2F.F ....
....|..|--- .... ....|--- .... ....|--- .... ....
 G-4|..|C#4 2F.F ....|G-2 2A.F ....|A-4 2F.F ....
....|..|--- .... ....|--- .... ....|--- .... ....
 G-4|..|A#3 2F.7 ....|G-2 2A.F ....|G-4 2F.F ....
....|..|--- .... ....|--- .... ....|--- .... ....
 G-4|..|G-3 2F.7 ....|G-3 2C.F ....|--- .... ....
....|..|--- .... ....|--- .... ....|--- .... ....
 G-4|..|D-4 2F.F ....|G-2 2A.F ....|G-4 2F.F ....
....|..|--- .... ....|--- .... ....|--- .... ....
 G-4|..|A#3 2F.7 ....|G-2 2A.F ....|F#4 2F.F ....
....|..|--- .... ....|--- .... ....|--- .... ....
 G-4|..|E-4 2F.F ....|G-2 2A.F ....|G-4 2F.F ....
....|..|--- .... ....|--- .... ....|--- .... ....
 G-4|..|F-4 2F.F ....|G-2 2A.F ....|A-4 2F.A ....
....|..|--- .... ....|--- .... ....|--- .... ....
 G-4|..|G-4 2F.F ....|G-2 2A.F ....|G-4 2F.A ....
....|..|--- .... ....|--- .... ....|--- .... ....
 G-4|..|F-4 2F.F ....|G-2 2A.F ....|F#4 2F.F ....
....|..|--- .... ....|--- .... ....|--- .... ....
 G-4|..|G-3 2F.7 ....|G-2 2A.F ....|G-4 2F.F ....
....|..|--- .... ....|--- .... ....|--- .... ....
 G-4|..|A-3 2F.7 ....|G-3 2C.F ....|F#4 2F.F ....
....|..|--- .... ....|--- .... ....|--- .... ....
 G-4|..|E-4 2F.F ....|G-2 2A.F ....|G-4 2F.F ....
....|..|--- .... ....|--- .... ....|--- .... ....
 G-4|..|C#4 2F.7 ....|G-2 2A.F ....|A-4 2F.7 ....
....|..|--- .... ....|--- .... ....|--- .... ....
 G-4|..|D-4 2F.F ....|G-2 2A.F ....|G-4 2F.7 ....
....|..|--- .... ....|--- .... ....|--- .... ....
 G-4|..|F-4 2F.A ....|G-2 2A.F ....|F#4 2F.F ....
....|..|--- .... ....|--- .... ....|--- .... ....
 G-4|..|E-4 2F.F ....|G-2 2A.F ....|G-4 2F.F ....
....|..|--- .... ....|--- .... ....|--- .... ....
 G-4|..|D-4 2F.F ....|G-2 2A.F ....|F#4 2F.F ....
....|..|--- .... ....|--- .... ....|--- .... ....
 G-4|..|E-4 2F.7 ....|G-2 2A.F ....|G-4 2F.F ....
....|..|--- .... ....|--- .... ....|--- .... ....
 G-4|..|C#4 2F.F ....|G-3 2C.F ....|F#4 2F.F ....
....|..|--- .... ....|--- .... ....|--- .... ....
 G-4|..|G-4 2F.7 ....|G-2 2A.F ....|G-4 2F.F ....
....|..|--- .... ....|--- .... ....|--- .... ....
 G-4|..|A#3 2F.F ....|G-2 2A.F ....|F#4 2F.F ....
....|..|--- .... ....|--- .... ....|--- .... ....
 G-4|..|C#4 2F.F ....|G-2 2A.F ....|D#4 2F.F ....
....|..|--- .... ....|--- .... ....|--- .... ....
 G-4|..|A#3 2F.F ....|G-2 2A.F ....|F#4 2F.7 ....
....|..|--- .... ....|--- .... ....|--- .... ....
 G-4|..|A-3 2F.F ....|G-2 2A.F ....|G-4 2F.7 ....
....|..|--- .... ....|--- .... ....|--- .... ....
 G-4|..|C#4 2F.A ....|G-2 2A.F ....|F#4 2F.F ....
....|..|--- .... ....|--- .... ....|--- .... ....
 G-4|..|G-3 2F.F ....|G-2 2A.F ....|D#4 2F.F ....
....|..|--- .... ....|--- .... ....|F#4 2F.F ....
 G-4|..|A#3 2F.A ....|G-3 2C.F ....|D#4 2F.F ....
....|..|--- .... ....|--- .... ....|--- .... ....
 G-4|..|E-4 2F.7 ....|G-2 2A.F ....|D-4 2F.F ....
....|..|--- .... ....|--- .... ....|--- .... ....
 G-4|..|D-4 2F.7 ....|G-2 2A.F ....|F#4 2F.7 ....
....|..|--- .... ....|--- .... ....|--- .... ....

[Pattern34]
 G-4|..|G-3 2F.F ....|G-2 2A.F ....|A#4 2F.F ....
....|..|--- .... ....|--- .... ....|--- .... ....
 G-4|..|A-3 2F.F ....|G-2 2A.F ....|F#4 2F.7 ....
....|..|--- .... ....|--- .... ....|--- .... ....
 G-4|..|A#3 2F.F ....|G-2 2A.F ....|A#4 2F.F ....
....|..|--- .... ....|--- .... ....|F#4 2F.A ....
 G-4|..|C#4 2F.F ....|G-2 2A.F ....|F#4 2F.7 ....
....|..|--- .... ....|--- .... ....|--- .... ....
 G-4|..|C#4 2F.7 ....|G-2 2A.F ....|A#4 2F.F ....
....|..|--- .... ....|--- .... ....|--- .... ....
 G-4|..|D-4 2F.F ....|G-3 2C.F ....|--- .... ....
....|..|--- .... ....|--- .... ....|--- .... ....
 G-4|..|A-3 2F.7 ....|G-2 2A.F ....|A#4 2F.F ....
....|..|--- .... ....|--- .... ....|--- .... ....
 G-4|..|E-4 2F.F ....|G-2 2A.F ....|A-4 2F.F ....
....|..|--- .... ....|--- .... ....|--- .... ....
 G-4|..|F-4 2F.F ....|G-2 2A.F ....|G-4 2F.F ....
....|..|--- .... ....|--- .... ....|F#4 2F.7 ....
 G-4|..|G-4 2F.F ....|G-2 2A.F ....|D#4 2F.7 ....
....|..|--- .... ....|--- .... ....|--- .... ....
 G-4|..|A-4 2F.F ....|G-2 2A.F ....|G-4 2F.F ....
....|..|--- .... ....|--- .... ....|--- .... ....
 G-4|..|D-4 2F.A ....|G-2 2A.F ....|F#4 2F.F ....
....|..|--- .... ....|--- .... ....|--- .... ....
 G-4|..|G-4 2F.F ....|G-2 2A.F ....|G-4 2F.F ....
....|..|A-4 2F.F ....|--- .... ....|--- .... ....
 G-4|..|G-4 2F.F ....|G-3 2C.F ....|F#4 2F.F ....
....|..|--- .... ....|--- .... ....|--- .... ....
 G-4|..|F-4 2F.F ....|G-2 2A.F ....|G-4 2F.F ....
....|..|--- .... ....|--- .... ....|--- .... ....
 G-4|..|C#4 2F.7 ....|G-2 2A.F ....|--- .... ....
....|..|--- .... ....|--- .... ....|--- .... ....
 G-4|..|E-4 2F.F ....|G-2 2A.F ....|A#4 2F.7 ....
....|..|--- .... ....|--- .... ....|--- .... ....
 G-4|..|D-4 2F.7 ....|G-2 2A.F ....|F#4 2F.F ....
....|..|--- .... ....|--- .... ....|--- .... ....
 G-4|..|D-4 2F.F ....|G-2 2A.F ....|G-4 2F.F ....
....|..|A-4 2F.A ....|--- .... ....|--- .... ....
 G-4|..|C#4 2F.F ....|G-2 2A.F ....|F#4 2F.F ....
....|..|--- .... ....|--- .... ....|--- .... ....
 G-4|..|A#3 2F.F ....|G-2 2A.F ....|A#4 2F.F ....
....|..|--- .... ....|--- .... ....|--- .... ....
 G-4|..|C#4 2F.F ....|G-3 2C.F ....|C#5 2F.F ....
....|..|--- .... ....|--- .... ....|--- .... ....
 G-4|..|A#3 2F.F ....|G-2 2A.F ....|D-5 2F.F ....
....|..|--- .... ....|--- .... ....|--- .... ....
 G-4|..|A-3 2F.F ....|G-2 2A.F ....|F#4 2F.7 ....
....|..|--- .... ....|--- .... ....|--- .... ....
 G-4|..|A#3 2F.F ....|G-2 2A.F ....|C#5 2F.F ....
....|..|A-4 2F.7 ....|--- .... ....|--- .... ....
 G-4|..|G-3 2F.F ....|G-2 2A.F ....|F#4 2F.7 ....
....|..|--- .... ....|--- .... ....|--- .... ....
 G-4|..|A-3 2F.F ....|G-2 2A.F ....|G-4 2F.7 ....
....|..|--- .... ....|--- .... ....|--- .... ....
 G-4|..|A#3 2F.F ....|G-2 2A.F ....|A#4 2F.F ....
....|..|--- .... ....|--- .... ....|--- .... ....
 G-4|..|D-4 2F.F ....|G-2 2A.F ....|C#5 2F.F ....
....|..|--- .... ....|--- .... ....|--- .... ....
 G-4|..|A-3 2F.A ....|G-3 2C.F ....|A#4 2F.F ....
....|..|--- .... ....|--- .... ....|--- .... ....
 G-4|..|D-4 2F.7 ....|G-2 2A.F ....|A-4 2F.F ....
....|..|--- .... ....|--- .... ....|--- .... ....
 G-4|..|C#4 2F.7 ....|G-2 2A.F ....|F#4 2F.7 ....
....|..|--- .... ....|--- .... ....|--- .... ....
 G-4|..|G-3 2F.F ....|G-2 2A.F ....|A#4 2F.F ....
....|..|--- .... ....|--- .... ....|--- .... ....
 G-4|..|A-3 2F.F ....|G-2 2A.F ....|C#5 2F.7 ....
....|..|--- .... ....|--- .... ....|--- .... ....
 G-4|..|A#3 2F.F ....|G-2 2A.F ....|A#4 2F.F ....
....|..|--- .... ....|--- .... ....|--- .... ....
 G-4|..|C#4 2F.F ....|G-2 2A.F ....|A-4 2F.F ....
....|..|--- .... ....|--- .... ....|--- .... ....
 G-4|..|A#3 2F.7 ....|G-2 2A.F ....|G-4 2F.F ....
....|..|--- .... ....|--- .... ....|--- .... ....
 G-4|..|G-3 2F.7 ....|G-3 2C.F ....|--- .... ....
....|..|--- .... ....|--- .... ....|--- .... ....
 G-4|..|D-4 2F.F ....|G-2 2A.F ....|G-4 2F.F ....
....|..|--- .... ....|--- .... ....|--- .... ....
 G-4|..|A#3 2F.7 ....|G-2 2A.F ....|F#4 2F.F ....
....|..|--- .... ....|--- .... ....|--- .... ....
 G-4|..|E-4 2F.F ....|G-2 2A.F ....|G-4 2F.F ....
....|..|--- .... ....|--- .... ....|--- .... ....
 G-4|..|F-4 2F.F ....|G-2 2A.F ....|A#4 2F.7 ....
....|..|--- .... ....|--- .... ....|--- .... ....
 G-4|..|G-4 2F.F ....|G-2 2A.F ....|A-4 2F.7 ....
....|..|--- .... ....|--- .... ....|--- .... ....
 G-4|..|F-4 2F.F ....|G-2 2A.F ....|F#4 2F.F ....
....|..|--- .... ....|--- .... ....|--- .... ....
 G-4|..|G-3 2F.7 ....|G-2 2A.F ....|G-4 2F.F ....
....|..|--- .... ....|--- .... ....|--- .... ....
 G-4|..|A-3 2F.7 ....|G-3 2C.F ....|F#4 2F.F ....
....|..|--- .... ....|--- .... ....|--- .... ....
 G-4|..|E-4 2F.F ....|G-2 2A.F ....|G-4 2F.F ....
....|..|--- .... ....|--- .... ....|--- .... ....
 G-4|..|C#4 2F.7 ....|G-2 2A.F ....|A-4 2F.7 ....
....|..|--- .... ....|--- .... ....|--- .... ....
 G-4|..|D-4 2F.F ....|G-2 2A.F ....|G-4 2F.7 ....
....|..|--- .... ....|--- .... ....|--- .... ....
 G-4|..|F-4 2F.A ....|G-2 2A.F ....|F#4 2F.F ....
....|..|--- .... ....|--- .... ....|--- .... ....
 G-4|..|E-4 2F.F ....|G-2 2A.F ....|G-4 2F.F ....
....|..|--- .... ....|--- .... ....|--- .... ....
 G-4|..|D-4 2F.F ....|G-2 2A.F ....|F#4 2F.F ....
....|..|--- .... ....|--- .... ....|--- .... ....
 G-4|..|E-4 2F.7 ....|G-2 2A.F ....|G-4 2F.F ....
....|..|--- .... ....|--- .... ....|--- .... ....
 G-4|..|C#4 2F.F ....|G-3 2C.F ....|F#4 2F.F ....
....|..|--- .... ....|--- .... ....|--- .... ....
 G-4|..|G-4 2F.7 ....|G-2 2A.F ....|G-4 2F.F ....
....|..|--- .... ....|--- .... ....|--- .... ....
 G-4|..|A#3 2F.F ....|G-2 2A.F ....|F#4 2F.F ....
....|..|--- .... ....|--- .... ....|--- .... ....
 G-4|..|C#4 2F.F ....|G-2 2A.F ....|D#4 2F.F ....
....|..|--- .... ....|--- .... ....|--- .... ....
 G-4|..|A#3 2F.F ....|G-2 2A.F ....|F#4 2F.7 ....
....|..|--- .... ....|--- .... ....|--- .... ....
 G-4|..|A-3 2F.F ....|G-2 2A.F ....|G-4 2F.7 ....
....|..|--- .... ....|--- .... ....|--- .... ....
 G-4|..|C#4 2F.A ....|G-2 2A.F ....|F#4 2F.F ....
....|..|--- .... ....|--- .... ....|--- .... ....
 G-4|..|G-3 2F.F ....|G-2 2A.F ....|D#4 2F.F ....
....|..|--- .... ....|--- .... ....|F#4 2F.F ....
 G-4|..|A#3 2F.A ....|G-3 2C.F ....|D#4 2F.F ....
....|..|--- .... ....|--- .... ....|--- .... ....
 G-4|..|E-4 2F.7 ....|G-2 2A.F ....|D-4 2F.F ....
....|..|--- .... ....|--- .... ....|--- .... ....
 G-4|..|D-4 2F.7 ....|G-2 2A.F ....|F#4 2F.7 ....
....|..|--- .... ....|--- .... ....|--- .... ....

[Pattern35]
 G-4|..|G-3 2F.F ....|G-2 2A.F ....|A#4 2F.F ....
....|..|--- .... ....|--- .... ....|--- .... ....
 G-4|..|A-3 2F.F ....|G-2 2A.F ....|F#4 2F.7 ....
....|..|--- .... ....|--- .... ....|--- .... ....
 G-4|..|A#3 2F.F ....|G-2 2A.F ....|A#4 2F.F ....
....|..|--- .... ....|--- .... ....|F#4 2F.A ....
 G-4|..|C#4 2F.F ....|G-2 2A.F ....|F#4 2F.7 ....
....|..|--- .... ....|--- .... ....|--- .... ....
 G-4|..|C#4 2F.7 ....|G-2 2A.F ....|A#4 2F.F ....
....|..|--- .... ....|--- .... ....|--- .... ....
 G-4|..|D-4 2F.F ....|G-3 2C.F ....|--- .... ....
....|..|--- .... ....|--- .... ....|--- .... ....
 G-4|..|A-3 2F.7 ....|G-2 2A.F ....|A#4 2F.F ....
....|..|--- .... ....|--- .... ....|--- .... ....
 G-4|..|E-4 2F.F ....|G-2 2A.F ....|A-4 2F.F ....
....|..|--- .... ....|--- .... ....|--- .... ....
 G-4|..|F-4 2F.F ....|G-2 2A.F ....|G-4 2F.F ....
....|..|--- .... ....|--- .... ....|F#4 2F.7 ....
 G-4|..|G-4 2F.F ....|G-2 2A.F ....|D#4 2F.7 ....
....|..|--- .... ....|--- .... ....|--- .... ....
 G-4|..|A-4 2F.F ....|G-2 2A.F ....|G-4 2F.F ....
....|..|--- .... ....|--- .... ....|--- .... ....
 G-4|..|D-4 2F.A ....|G-2 2A.F ....|F#4 2F.F ....
....|..|--- .... ....|--- .... ....|--- .... ....
 G-4|..|G-4 2F.F ....|G-2 2A.F ....|G-4 2F.F ....
....|..|A-4 2F.F ....|--- .... ....|--- .... ....
 G-4|..|G-4 2F.F ....|G-3 2C.F ....|F#4 2F.F ....
....|..|--- .... ....|--- .... ....|--- .... ....
 G-4|..|F-4 2F.F ....|G-2 2A.F ....|G-4 2F.F ....
....|..|--- .... ....|--- .... ....|--- .... ....
 G-4|..|C#4 2F.7 ....|G-2 2A.F ....|--- .... ....
....|..|--- .... ....|--- .... ....|--- .... ....
 G-4|..|E-4 2F.F ....|G-2 2A.F ....|D-4 2F.F ....
....|..|--- .... ....|--- .... ....|--- .... ....
 G-4|..|D-4 2F.7 ....|G-2 2A.F ....|D#4 2F.F ....
....|..|--- .... ....|--- .... ....|--- .... ....
 G-4|..|D-4 2F.F ....|G-2 2A.F ....|F#4 2F.F ....
....|..|A-4 2F.A ....|--- .... ....|--- .... ....
 G-4|..|C#4 2F.F ....|G-2 2A.F ....|G-4 2F.F ....
....|..|--- .... ....|--- .... ....|--- .... ....
 G-4|..|A#3 2F.F ....|G-2 2A.F ....|A-4 2F.F ....
....|..|--- .... ....|--- .... ....|--- .... ....
 G-4|..|C#4 2F.F ....|G-3 2C.F ....|--- .... ....
....|..|--- .... ....|--- .... ....|--- .... ....
 G-4|..|A#3 2F.F ....|G-2 2A.F ....|G-4 2F.F ....
....|..|--- .... ....|--- .... ....|--- .... ....
 G-4|..|A-3 2F.F ....|G-2 2A.F ....|F#4 2F.7 ....
....|..|--- .... ....|--- .... ....|--- .... ....
 G-4|..|A#3 2F.F ....|G-2 2A.F ....|F#4 2F.F ....
....|..|A-4 2F.7 ....|--- .... ....|--- .... ....
 G-4|..|G-3 2F.F ....|G-2 2A.F ....|F#4 2F.7 ....
....|..|--- .... ....|--- .... ....|--- .... ....
 G-4|..|A-3 2F.F ....|G-2 2A.F ....|G-4 2F.7 ....
....|..|--- .... ....|--- .... ....|--- .... ....
 G-4|..|A#3 2F.F ....|G-2 2A.F ....|--- .... ....
....|..|--- .... ....|--- .... ....|--- .... ....
 G-4|..|D-4 2F.F ....|G-2 2A.F ....|G-4 2F.F ....
....|..|--- .... ....|--- .... ....|--- .... ....
 G-4|..|A-3 2F.A ....|G-3 2C.F ....|D#4 2F.7 ....
....|..|--- .... ....|--- .... ....|--- .... ....
 G-4|..|D-4 2F.7 ....|G-2 2A.F ....|F#4 2F.7 ....
....|..|--- .... ....|--- .... ....|--- .... ....
 G-4|..|C#4 2F.7 ....|G-2 2A.F ....|G-4 2F.7 ....
....|..|--- .... ....|--- .... ....|--- .... ....
 G-4|..|G-3 2F.F ....|G-2 2A.F ....|A#4 2F.F ....
....|..|--- .... ....|--- .... ....|--- .... ....
 G-4|..|A-3 2F.F ....|G-2 2A.F ....|--- .... ....
....|..|--- .... ....|--- .... ....|--- .... ....
 G-4|..|A#3 2F.F ....|G-2 2A.F ....|A#4 2F.F ....
....|..|--- .... ....|--- .... ....|--- .... ....
 G-4|..|C#4 2F.F ....|G-2 2A.F ....|A-4 2F.F ....
....|..|--- .... ....|--- .... ....|--- .... ....
 G-4|..|A#3 2F.7 ....|G-2 2A.F ....|G-4 2F.F ....
....|..|--- .... ....|--- .... ....|--- .... ....
 G-4|..|G-3 2F.7 ....|G-3 2C.F ....|--- .... ....
....|..|--- .... ....|--- .... ....|--- .... ....
 G-4|..|D-4 2F.F ....|G-2 2A.F ....|G-4 2F.F ....
....|..|--- .... ....|--- .... ....|--- .... ....
 G-4|..|A#3 2F.7 ....|G-2 2A.F ....|F#4 2F.F ....
....|..|--- .... ....|--- .... ....|--- .... ....
 G-4|..|E-4 2F.F ....|G-2 2A.F ....|G-4 2F.F ....
....|..|--- .... ....|--- .... ....|--- .... ....
 G-4|..|F-4 2F.F ....|G-2 2A.F ....|A-4 2F.A ....
....|..|--- .... ....|--- .... ....|--- .... ....
 G-4|..|G-4 2F.F ....|G-2 2A.F ....|G-4 2F.A ....
....|..|--- .... ....|--- .... ....|--- .... ....
 G-4|..|F-4 2F.F ....|G-2 2A.F ....|F#4 2F.F ....
....|..|--- .... ....|--- .... ....|--- .... ....
 G-4|..|G-3 2F.7 ....|G-2 2A.F ....|G-4 2F.F ....
....|..|--- .... ....|--- .... ....|--- .... ....
 G-4|..|A-3 2F.7 ....|G-3 2C.F ....|F#4 2F.F ....
....|..|--- .... ....|--- .... ....|--- .... ....
 G-4|..|E-4 2F.F ....|G-2 2A.F ....|G-4 2F.F ....
....|..|--- .... ....|--- .... ....|--- .... ....
 G-4|..|C#4 2F.7 ....|G-2 2A.F ....|A-4 2F.7 ....
....|..|--- .... ....|--- .... ....|--- .... ....
 G-4|..|D-4 2F.F ....|G-2 2A.F ....|G-4 2F.7 ....
....|..|--- .... ....|--- .... ....|--- .... ....
 G-4|..|F-4 2F.A ....|G-2 2A.F ....|F#4 2F.F ....
....|..|--- .... ....|--- .... ....|--- .... ....
 G-4|..|E-4 2F.F ....|G-2 2A.F ....|G-4 2F.F ....
....|..|--- .... ....|--- .... ....|--- .... ....
 G-4|..|D-4 2F.F ....|G-2 2A.F ....|F#4 2F.F ....
....|..|--- .... ....|--- .... ....|--- .... ....
 G-4|..|E-4 2F.7 ....|G-2 2A.F ....|G-4 2F.F ....
....|..|--- .... ....|--- .... ....|--- .... ....
 G-4|..|C#4 2F.F ....|G-3 2C.F ....|F#4 2F.F ....
....|..|--- .... ....|--- .... ....|--- .... ....
 G-4|..|G-4 2F.7 ....|G-2 2A.F ....|G-4 2F.F ....
....|..|--- .... ....|--- .... ....|--- .... ....
 G-4|..|A#3 2F.F ....|G-2 2A.F ....|F#4 2F.F ....
....|..|--- .... ....|--- .... ....|--- .... ....
 G-4|..|C#4 2F.F ....|G-2 2A.F ....|D#4 2F.F ....
....|..|--- .... ....|--- .... ....|--- .... ....
 G-4|..|A#3 2F.F ....|G-2 2A.F ....|F#4 2F.7 ....
....|..|--- .... ....|--- .... ....|--- .... ....
 G-4|..|A-3 2F.F ....|G-2 2A.F ....|G-4 2F.7 ....
....|..|--- .... ....|--- .... ....|--- .... ....
 G-4|..|C#4 2F.A ....|G-2 2A.F ....|F#4 2F.F ....
....|..|--- .... ....|--- .... ....|--- .... ....
 G-4|..|G-3 2F.F ....|G-2 2A.F ....|D#4 2F.F ....
....|..|--- .... ....|--- .... ....|F#4 2F.F ....
 G-4|..|A#3 2F.A ....|G-3 2C.F ....|D#4 2F.F ....
....|..|--- .... ....|--- .... ....|--- .... ....
 G-4|..|E-4 2F.7 ....|G-2 2A.F ....|D-4 2F.F ....
....|..|--- .... ....|--- .... ....|--- .... ....
 G-4|..|D-4 2F.7 ....|G-2 2A.F ....|F#4 2F.7 ....
....|..|--- .... ....|--- .... ....|--- .... ....

[Pattern37]
 G-4|..|G-3 2F.F ....|G-2 2A.F ....|A#4 2F.F ....
....|..|--- .... ....|--- .... ....|--- .... ....
 G-4|..|A-3 2F.F ....|G-2 2A.F ....|F#4 2F.7 ....
....|..|--- .... ....|--- .... ....|--- .... ....
 G-4|..|A#3 2F.F ....|G-2 2A.F ....|A#4 2F.F ....
....|..|--- .... ....|--- .... ....|F#4 2F.A ....
 G-4|..|C#4 2F.F ....|G-2 2A.F ....|F#4 2F.7 ....
....|..|--- .... ....|--- .... ....|--- .... ....
 G-4|..|C#4 2F.7 ....|G-2 2A.F ....|A#4 2F.F ....
....|..|--- .... ....|--- .... ....|--- .... ....
 G-4|..|D-4 2F.F ....|G-3 2C.F ....|--- .... ....
....|..|--- .... ....|--- .... ....|--- .... ....
 G-4|..|A-3 2F.7 ....|G-2 2A.F ....|A#4 2F.F ....
....|..|--- .... ....|--- .... ....|--- .... ....
 G-4|..|E-4 2F.F ....|G-2 2A.F ....|A-4 2F.F ....
....|..|--- .... ....|--- .... ....|--- .... ....
 G-4|..|F-4 2F.F ....|G-2 2A.F ....|G-4 2F.F ....
....|..|--- .... ....|--- .... ....|F#4 2F.7 ....
 G-4|..|G-4 2F.F ....|G-2 2A.F ....|D#4 2F.7 ....
....|..|--- .... ....|--- .... ....|--- .... ....
 G-4|..|A-4 2F.F ....|G-2 2A.F ....|G-4 2F.F ....
....|..|--- .... ....|--- .... ....|--- .... ....
 G-4|..|D-4 2F.A ....|G-2 2A.F ....|F#4 2F.F ....
....|..|--- .... ....|--- .... ....|--- .... ....
 G-4|..|G-4 2F.F ....|G-2 2A.F ....|G-4 2F.F ....
....|..|A-4 2F.F ....|--- .... ....|--- .... ....
 G-4|..|G-4 2F.F ....|G-3 2C.F ....|F#4 2F.F ....
....|..|--- .... ....|--- .... ....|--- .... ....
 G-4|..|F-4 2F.F ....|G-2 2A.F ....|G-4 2F.F ....
....|..|--- .... ....|--- .... ....|--- .... ....
 G-4|..|C#4 2F.7 ....|G-2 2A.F ....|--- .... ....
....|..|--- .... ....|--- .... ....|--- .... ....
 G-4|..|E-4 2F.F ....|G-2 2A.F ....|D-4 2F.F ....
....|..|--- .... ....|--- .... ....|--- .... ....
 G-4|..|D-4 2F.7 ....|G-2 2A.F ....|D#4 2F.F ....
....|..|--- .... ....|--- .... ....|--- .... ....
 G-4|..|D-4 2F.F ....|G-2 2A.F ....|F#4 2F.F ....
....|..|A-4 2F.A ....|--- .... ....|--- .... ....
 G-4|..|C#4 2F.F ....|G-2 2A.F ....|G-4 2F.F ....
....|..|--- .... ....|--- .... ....|--- .... ....
 G-4|..|A#3 2F.F ....|G-2 2A.F ....|A-4 2F.F ....
....|..|--- .... ....|--- .... ....|--- .... ....
 G-4|..|C#4 2F.F ....|G-3 2C.F ....|--- .... ....
....|..|--- .... ....|--- .... ....|--- .... ....
 G-4|..|A#3 2F.F ....|G-2 2A.F ....|G-4 2F.F ....
....|..|--- .... ....|--- .... ....|--- .... ....
 G-4|..|A-3 2F.F ....|G-2 2A.F ....|F#4 2F.7 ....
....|..|--- .... ....|--- .... ....|--- .... ....
 G-4|..|A#3 2F.F ....|G-2 2A.F ....|F#4 2F.F ....
....|..|A-4 2F.7 ....|--- .... ....|--- .... ....
 G-4|..|G-3 2F.F ....|G-2 2A.F ....|F#4 2F.7 ....
....|..|--- .... ....|--- .... ....|--- .... ....
 G-4|..|A-3 2F.F ....|G-2 2A.F ....|G-4 2F.7 ....
....|..|--- .... ....|--- .... ....|--- .... ....
 G-4|..|A#3 2F.F ....|G-2 2A.F ....|--- .... ....
....|..|--- .... ....|--- .... ....|--- .... ....
 G-4|..|D-4 2F.F ....|G-2 2A.F ....|G-4 2F.F ....
....|..|--- .... ....|--- .... ....|--- .... ....
 G-4|..|A-3 2F.A ....|G-3 2C.F ....|D#4 2F.7 ....
....|..|--- .... ....|--- .... ....|--- .... ....
 G-4|..|D-4 2F.7 ....|G-2 2A.F ....|F#4 2F.7 ....
....|..|--- .... ....|--- .... ....|--- .... ....
 G-4|..|C#4 2F.7 ....|G-2 2A.F ....|G-4 2F.7 ....
....|..|--- .... ....|--- .... ....|--- .... ....
 G-4|..|A#3 2F.7 ....|G-2 2A.F ....|A-4 2F.7 ....
....|..|--- .... ....|--- .... ....|--- .... ....
 G-4|..|C#4 2F.7 ....|G-2 2A.F ....|--- .... ....
....|..|--- .... ....|--- .... ....|--- .... ....
 G-4|..|A#3 2F.7 ....|G-2 2A.F ....|G-4 2F.7 ....
....|..|--- .... ....|--- .... ....|--- .... ....
 G-4|..|A-3 2F.7 ....|G-2 2A.F ....|--- .... ....
....|..|--- .... ....|--- .... ....|--- .... ....
 G-4|..|A#3 2F.7 ....|G-2 2A.F ....|F#4 2F.7 ....
....|..|--- .... ....|--- .... ....|--- .... ....
 G-4|..|G-3 2F.7 ....|G-3 2C.F ....|--- .... ....
....|..|--- .... ....|--- .... ....|--- .... ....
 G-4|..|A-3 2F.7 ....|G-2 2A.F ....|R-- .... ....
....|..|--- .... ....|--- .... ....|--- .... ....
 G-4|..|A#3 2F.7 ....|G-2 2A.F ....|--- .... ....
....|..|--- .... ....|--- .... ....|--- .... ....
 G-4|..|D-4 2F.7 ....|G-2 2A.F ....|G-4 2F.7 ....
....|..|--- .... ....|--- .... ....|--- .... ....
 G-4|..|--- .... ....|G-2 2A.F ....|--- .... ....
....|..|--- .... ....|--- .... ....|--- .... ....
 G-4|..|--- .... ....|G-2 2A.F ....|--- .... ....
....|..|--- .... ....|--- .... ....|--- .... ....
 G-4|..|--- .... ....|G-2 2A.F ....|--- .... ....
....|..|--- .... ....|--- .... ....|--- .... ....
 G-4|..|R-- .... ....|G-2 2A.F ....|R-- .... ....
....|..|--- .... ....|--- .... ....|--- .... ....
 G-4|..|--- .... ....|G-3 2C.F ....|--- .... ....
....|..|--- .... ....|--- .... ....|--- .... ....
 G-4|..|--- .... ....|G-2 2A.F ....|--- .... ....
....|..|--- .... ....|--- .... ....|--- .... ....
 G-4|..|--- .... ....|G-2 2A.F ....|--- .... ....
....|..|--- .... ....|--- .... ....|--- .... ....
 G-4|..|--- .... ....|G-2 2A.F ....|--- .... ....
....|..|--- .... ....|--- .... ....|--- .... ....
 G-4|..|--- .... ....|G-2 2A.F ....|--- .... ....
....|..|--- .... ....|--- .... ....|--- .... ....
 G-4|..|--- .... ....|G-2 2A.F ....|--- .... ....
....|..|--- .... ....|--- .... ....|--- .... ....
 G-4|..|--- .... ....|G-2 2A.F ....|--- .... ....
....|..|--- .... ....|--- .... ....|--- .... ....
 G-4|..|--- .... ....|G-2 2A.F ....|--- .... ....
....|..|--- .... ....|--- .... ....|--- .... ....
 G-4|..|--- .... ....|G-3 2C.F ....|--- .... ....
....|..|--- .... ....|--- .... ....|--- .... ....
 G-4|..|--- .... ....|G-2 2A.F ....|--- .... ....
....|..|--- .... ....|--- .... ....|--- .... ....
 G-4|..|--- .... ....|G-2 2A.F ....|--- .... ....
....|..|--- .... ....|--- .... ....|--- .... ....
 G-4|..|--- .... ....|G-2 2A.F ....|--- .... ....
....|..|--- .... ....|--- .... ....|--- .... ....
 G-4|..|--- .... ....|G-2 2A.F ....|--- .... ....
....|..|--- .... ....|--- .... ....|--- .... ....
 G-4|..|--- .... ....|G-2 2A.F ....|--- .... ....
....|..|--- .... ....|--- .... ....|--- .... ....
 G-4|..|--- .... ....|G-2 2A.F ....|--- .... ....
....|..|--- .... ....|--- .... ....|--- .... ....
 G-4|..|--- .... ....|G-2 2A.F ....|--- .... ....
....|..|--- .... ....|--- .... ....|--- .... ....
 G-4|..|--- .... ....|G-3 2C.F ....|--- .... ....
....|..|--- .... ....|--- .... ....|--- .... ....
 G-4|..|--- .... ....|G-2 2A.F ....|--- .... ....
....|..|--- .... ....|--- .... ....|--- .... ....
 G-4|..|--- .... ....|G-2 2A.F ....|--- .... ....
....|..|--- .... ....|--- .... ....|--- .... ....

[Pattern38]
 G-4|..|--- .... ....|G-2 2A.F ....|--- .... ....
....|..|--- .... ....|--- .... ....|--- .... ....
 G-4|..|--- .... ....|G-2 2A.F ....|--- .... ....
....|..|--- .... ....|--- .... ....|--- .... ....
 G-4|..|--- .... ....|G-2 2A.F ....|--- .... ....
....|..|--- .... ....|--- .... ....|--- .... ....
 G-4|..|--- .... ....|G-2 2A.F ....|--- .... ....
....|..|--- .... ....|--- .... ....|--- .... ....
 G-4|..|--- .... ....|G-2 2A.F ....|--- .... ....
....|..|--- .... ....|--- .... ....|--- .... ....
 G-4|..|--- .... ....|G-3 2C.F ....|--- .... ....
....|..|--- .... ....|--- .... ....|--- .... ....
 G-4|..|--- .... ....|G-2 2A.F ....|--- .... ....
....|..|--- .... ....|--- .... ....|--- .... ....
 G-4|..|--- .... ....|G-2 2A.F ....|--- .... ....
....|..|--- .... ....|--- .... ....|--- .... ....
 G-4|..|--- .... ....|G-2 2A.F ....|--- .... ....
....|..|--- .... ....|--- .... ....|--- .... ....
 G-4|..|--- .... ....|G-2 2A.F ....|--- .... ....
....|..|--- .... ....|--- .... ....|--- .... ....
 G-4|..|--- .... ....|G-2 2A.F ....|--- .... ....
....|..|--- .... ....|--- .... ....|--- .... ....
 G-4|..|--- .... ....|G-2 2A.F ....|--- .... ....
....|..|--- .... ....|--- .... ....|--- .... ....
 G-4|..|--- .... ....|G-2 2A.F ....|--- .... ....
....|..|--- .... ....|--- .... ....|--- .... ....
 G-4|..|--- .... ....|G-3 2C.F ....|--- .... ....
....|..|--- .... ....|--- .... ....|--- .... ....
 G-4|..|--- .... ....|G-2 2A.F ....|--- .... ....
....|..|--- .... ....|--- .... ....|--- .... ....
 G-4|..|--- .... ....|G-2 2A.F ....|--- .... ....
....|..|--- .... ....|--- .... ....|--- .... ....
 G-4|..|--- .... ....|G-2 2A.F ....|--- .... ....
....|..|--- .... ....|--- .... ....|--- .... ....
 G-4|..|--- .... ....|G-2 2A.F ....|--- .... ....
....|..|--- .... ....|--- .... ....|--- .... ....
 G-4|..|--- .... ....|G-2 2A.F ....|--- .... ....
....|..|--- .... ....|--- .... ....|--- .... ....
 G-4|..|--- .... ....|G-2 2A.F ....|--- .... ....
....|..|--- .... ....|--- .... ....|--- .... ....
 G-4|..|--- .... ....|G-2 2A.F ....|--- .... ....
....|..|--- .... ....|--- .... ....|--- .... ....
 G-4|..|--- .... ....|G-3 2C.F ....|--- .... ....
....|..|--- .... ....|--- .... ....|--- .... ....
 G-4|..|--- .... ....|G-2 2A.F ....|--- .... ....
....|..|--- .... ....|--- .... ....|--- .... ....
 G-4|..|--- .... ....|G-2 2A.F ....|--- .... ....
....|..|--- .... ....|--- .... ....|--- .... ....
 G-4|..|--- .... ....|G-2 2A.F ....|--- .... ....
....|..|--- .... ....|--- .... ....|--- .... ....
 G-4|..|--- .... ....|G-2 2A.F ....|--- .... ....
....|..|--- .... ....|--- .... ....|--- .... ....
 G-4|..|--- .... ....|G-2 2A.F ....|--- .... ....
....|..|--- .... ....|--- .... ....|--- .... ....
 G-4|..|--- .... ....|G-2 2A.F ....|--- .... ....
....|..|--- .... ....|--- .... ....|--- .... ....
 G-4|..|--- .... ....|G-2 2A.F ....|--- .... ....
....|..|--- .... ....|--- .... ....|--- .... ....
 G-4|..|--- .... ....|G-3 2C.F ....|--- .... ....
....|..|--- .... ....|--- .... ....|--- .... ....
 G-4|..|--- .... ....|G-2 2A.F ....|--- .... ....
....|..|--- .... ....|--- .... ....|--- .... ....
 G-4|..|--- .... ....|G-2 2A.F ....|--- .... ....
....|..|--- .... ....|--- .... ....|--- .... ....
 G-4|..|--- .... ....|G-2 2A.F ....|--- .... ....
....|..|--- .... ....|--- .... ....|--- .... ....
 G-4|..|--- .... ....|G-2 2A.F ....|--- .... ....
....|..|--- .... ....|--- .... ....|--- .... ....
 G-4|..|--- .... ....|G-2 2A.F ....|--- .... ....
....|..|--- .... ....|--- .... ....|--- .... ....
 G-4|..|--- .... ....|G-2 2A.F ....|--- .... ....
....|..|--- .... ....|--- .... ....|--- .... ....
 G-4|..|--- .... ....|G-2 2A.F ....|--- .... ....
....|..|--- .... ....|--- .... ....|--- .... ....
 G-4|..|--- .... ....|G-3 2C.F ....|--- .... ....
....|..|--- .... ....|--- .... ....|--- .... ....
 G-4|..|--- .... ....|G-2 2A.F ....|--- .... ....
....|..|--- .... ....|--- .... ....|--- .... ....
 G-4|..|--- .... ....|G-2 2A.F ....|--- .... ....
....|..|--- .... ....|--- .... ....|--- .... ....
 G-4|..|--- .... ....|G-2 2A.F ....|--- .... ....
....|..|--- .... ....|--- .... ....|--- .... ....
 G-4|..|--- .... ....|G-2 2A.F ....|--- .... ....
....|..|--- .... ....|--- .... ....|--- .... ....
 G-4|..|--- .... ....|G-2 2A.F ....|--- .... ....
....|..|--- .... ....|--- .... ....|--- .... ....
 G-4|..|--- .... ....|G-2 2A.F ....|--- .... ....
....|..|--- .... ....|--- .... ....|--- .... ....
 G-4|..|--- .... ....|G-2 2A.F ....|--- .... ....
....|..|--- .... ....|--- .... ....|--- .... ....
 G-4|..|--- .... ....|G-3 2C.F ....|--- .... ....
....|..|--- .... ....|--- .... ....|--- .... ....
 G-4|..|--- .... ....|G-2 2A.F ....|--- .... ....
....|..|--- .... ....|--- .... ....|--- .... ....
 G-4|..|--- .... ....|G-2 2A.F ....|--- .... ....
....|..|--- .... ....|--- .... ....|--- .... ....
 G-4|..|--- .... ....|G-2 2A.F ....|--- .... ....
....|..|--- .... ....|--- .... ....|--- .... ....
 G-4|..|--- .... ....|G-2 2A.F ....|--- .... ....
....|..|--- .... ....|--- .... ....|--- .... ....
 G-4|..|--- .... ....|G-2 2A.F ....|--- .... ....
....|..|--- .... ....|--- .... ....|--- .... ....
 G-4|..|--- .... ....|G-2 2A.F ....|--- .... ....
....|..|--- .... ....|--- .... ....|--- .... ....
 G-4|..|--- .... ....|G-2 2A.F ....|--- .... ....
....|..|--- .... ....|--- .... ....|--- .... ....
 G-4|..|--- .... ....|G-3 2C.F ....|--- .... ....
....|..|--- .... ....|--- .... ....|--- .... ....
 G-4|..|--- .... ....|G-2 2A.F ....|--- .... ....
....|..|--- .... ....|--- .... ....|--- .... ....
 G-4|..|--- .... ....|G-2 2A.F ....|--- .... ....
....|..|--- .... ....|--- .... ....|--- .... ....
 G-4|..|--- .... ....|G-2 2A.F ....|--- .... ....
....|..|--- .... ....|--- .... ....|--- .... ....
 G-4|..|--- .... ....|G-2 2A.F ....|--- .... ....
....|..|--- .... ....|--- .... ....|--- .... ....
 G-4|..|--- .... ....|G-2 2A.F ....|--- .... ....
....|..|--- .... ....|--- .... ....|--- .... ....
 G-4|..|--- .... ....|G-2 2A.F ....|--- .... ....
....|..|--- .... ....|--- .... ....|--- .... ....
 G-4|..|--- .... ....|G-2 2A.F ....|--- .... ....
....|..|--- .... ....|--- .... ....|--- .... ....
 G-4|..|--- .... ....|G-3 2C.F ....|--- .... ....
....|..|--- .... ....|--- .... ....|--- .... ....
 G-4|..|--- .... ....|G-2 2A.F ....|--- .... ....
....|..|--- .... ....|--- .... ....|--- .... ....
 G-4|..|--- .... ....|G-2 2A.F ....|--- .... ....
....|..|--- .... ....|--- .... ....|--- .... ....

[Pattern39]
 G-4|..|--- .... ....|G-2 2A.F ....|--- .... ....
....|..|--- .... ....|--- .... ....|--- .... ....
 G-4|..|--- .... ....|G-2 2A.F ....|--- .... ....
....|..|--- .... ....|--- .... ....|--- .... ....
 G-4|..|--- .... ....|G-2 2A.F ....|--- .... ....
....|..|--- .... ....|--- .... ....|--- .... ....
 G-4|..|--- .... ....|G-2 2A.F ....|--- .... ....
....|..|--- .... ....|--- .... ....|--- .... ....
 G-4|..|--- .... ....|G-2 2A.F ....|--- .... ....
....|..|--- .... ....|--- .... ....|--- .... ....
 G-4|..|--- .... ....|G-3 2C.F ....|--- .... ....
....|..|--- .... ....|--- .... ....|--- .... ....
 G-4|..|--- .... ....|G-2 2A.F ....|--- .... ....
....|..|--- .... ....|--- .... ....|--- .... ....
 G-4|..|--- .... ....|G-2 2A.F ....|--- .... ....
....|..|--- .... ....|--- .... ....|--- .... ....
 G-4|..|--- .... ....|G-2 2A.F ....|--- .... ....
....|..|--- .... ....|--- .... ....|--- .... ....
 G-4|..|--- .... ....|G-2 2A.F ....|--- .... ....
....|..|--- .... ....|--- .... ....|--- .... ....
 G-4|..|--- .... ....|G-2 2A.F ....|--- .... ....
....|..|--- .... ....|--- .... ....|--- .... ....
 G-4|..|--- .... ....|G-2 2A.F ....|--- .... ....
....|..|--- .... ....|--- .... ....|--- .... ....
 G-4|..|--- .... ....|G-2 2A.F ....|--- .... ....
....|..|--- .... ....|--- .... ....|--- .... ....
 G-4|..|--- .... ....|G-3 2C.F ....|--- .... ....
....|..|--- .... ....|--- .... ....|--- .... ....
 G-4|..|--- .... ....|G-2 2A.F ....|--- .... ....
....|..|--- .... ....|--- .... ....|--- .... ....
 G-4|..|--- .... ....|G-2 2A.F ....|--- .... ....
....|..|--- .... ....|--- .... ....|--- .... ....
....|..|--- .... ....|G-2 2F.F ....|--- .... ....
....|..|--- .... ....|--- .... ....|--- .... ....
....|..|--- .... ....|G-3 2F.7 ....|--- .... ....
....|..|--- .... ....|--- .... ....|--- .... ....
....|..|--- .... ....|G-2 2F.7 ....|--- .... ....
....|..|--- .... ....|--- .... ....|--- .... ....
....|..|--- .... ....|G-2 2F.F ....|--- .... ....
....|..|--- .... ....|G-2 2F.F ....|--- .... ....
....|..|--- .... ....|G-2 2F.F ....|--- .... ....
....|..|--- .... ....|--- .... ....|--- .... ....
....|..|--- .... ....|G-2 2F.F ....|--- .... ....
....|..|--- .... ....|--- .... ....|--- .... ....
....|..|--- .... ....|G-2 2F.F ....|--- .... ....
....|..|--- .... ....|--- .... ....|--- .... ....
....|..|--- .... ....|G-2 2F.F ....|--- .... ....
....|..|--- .... ....|--- .... ....|--- .... ....
....|..|--- .... ....|G-2 2F.F ....|--- .... ....
....|..|--- .... ....|--- .... ....|--- .... ....
....|..|--- .... ....|G-2 2F.F ....|--- .... ....
....|..|--- .... ....|G-2 2F.A ....|--- .... ....
....|..|--- .... ....|G-2 2F.F ....|--- .... ....
....|..|--- .... ....|--- .... ....|--- .... ....
....|..|--- .... ....|G-2 2F.F ....|--- .... ....
....|..|--- .... ....|--- .... ....|--- .... ....
....|..|--- .... ....|G-2 2F.7 ....|--- .... ....
....|..|--- .... ....|--- .... ....|--- .... ....
....|..|--- .... ....|G-2 2F.F ....|--- .... ....
....|..|--- .... ....|A-4 2F.F ....|A-4 2F.F ....
....|..|--- .... ....|B-4 2F6F ....|B-4 2F6F ....
....|..|--- .... ....|D-4 2F7F ....|D-4 2F7F ....
....|..|--- .... ....|F-4 2F7F ....|F-4 2F7F ....
....|..|--- .... ....|A-4 2F7F ....|A-4 2F7F ....
 A-3|..|--- .... ....|A-3 2C.F ....|C-6 2F.F ....
....|..|--- .... ....|--- .... ....|--- .... ....
 A-3|..|--- .... ....|A-3 2C.F ....|--- .... ....
....|..|--- .... ....|--- .... ....|--- .... ....
....|..|--- .... ....|G-2 2F.7 ....|--- .... ....
....|..|--- .... ....|--- .... ....|--- .... ....
 A-3|..|--- .... ....|A-3 2C.F ....|--- .... ....
....|..|--- .... ....|A-4 2F.A ....|A-4 2F.A ....
....|..|--- .... ....|G-2 2F.7 ....|B-4 2F6A ....
....|..|--- .... ....|D-4 2F7A ....|D-4 2F7A ....
 A-3|..|--- .... ....|A-3 2C.F ....|F-4 2F7A ....
....|..|--- .... ....|A-4 2F7A ....|A-4 2F7A ....
 A-3|..|D#4 2F.F ....|A-3 2C.F ....|C-6 2F.A ....
....|..|--- .... ....|--- .... ....|--- .... ....
....|..|--- .... ....|G-2 2F.7 ....|--- .... ....
....|..|--- .... ....|--- .... ....|--- .... ....
 A-3|..|D-4 2F.F ....|A-3 2C.F ....|--- .... ....
....|..|--- .... ....|--- .... ....|--- .... ....
....|..|C-4 2F.F ....|C-4 2F.F ....|--- .... ....
....|..|--- .... ....|A-4 2F.7 ....|A-4 2F.7 ....
....|..|--- .... ....|B-4 2F67 ....|B-4 2F67 ....
....|..|--- .... ....|D-4 2F77 ....|D-4 2F77 ....
....|..|A-3 2F.F ....|A-3 2F.F ....|F-4 2F77 ....
....|..|--- .... ....|A-4 2F77 ....|A-4 2F77 ....
 A-3|..|D#4 2F.A ....|A-3 2C.F ....|C-6 2F.7 ....
....|..|--- .... ....|--- .... ....|--- .... ....
 A-3|..|--- .... ....|A-3 2C.F ....|--- .... ....
....|..|--- .... ....|--- .... ....|--- .... ....
....|..|D-4 2F.A ....|A-3 2F.A ....|--- .... ....
....|..|--- .... ....|--- .... ....|--- .... ....
....|..|C-4 2F.A ....|A-3 2F.7 ....|--- .... ....
....|..|--- .... ....|--- .... ....|--- .... ....
 A-3|..|--- .... ....|A-3 2C.F ....|R-- .... ....
....|..|--- .... ....|--- .... ....|--- .... ....
 A-3|..|A-3 2F.A ....|A-3 2C.F ....|--- .... ....
....|..|--- .... ....|--- .... ....|--- .... ....
....|..|D#4 2F.7 ....|A-3 2F.7 ....|--- .... ....
....|..|--- .... ....|--- .... ....|--- .... ....
 A-3|..|--- .... ....|A-3 2C.F ....|--- .... ....
....|..|--- .... ....|--- .... ....|--- .... ....
....|..|D-4 2F.7 ....|A-3 2F.7 ....|--- .... ....
....|..|--- .... ....|--- .... ....|--- .... ....
 A-3|..|C-4 2F.7 ....|A-3 2C.F ....|--- .... ....
....|..|--- .... ....|--- .... ....|--- .... ....
 A-3|..|D#4 2F.F ....|A-3 2C.F ....|R-- .... ....
....|..|--- .... ....|--- .... ....|--- .... ....
....|..|A-3 2F.7 ....|A-3 2F.7 ....|--- .... ....
....|..|--- .... ....|--- .... ....|--- .... ....
 A-3|..|D-4 2F.F ....|A-3 2C.F ....|--- .... ....
....|..|--- .... ....|--- .... ....|--- .... ....
....|..|C-4 2F.F ....|C-4 2F.F ....|--- .... ....
....|..|--- .... ....|--- .... ....|--- .... ....
....|..|--- .... ....|--- .... ....|--- .... ....
....|..|--- .... ....|--- .... ....|--- .... ....
....|..|A-3 2F.F ....|A-3 2F.F ....|--- .... ....
....|..|--- .... ....|--- .... ....|--- .... ....
 A-3|..|D#4 2F.A ....|A-3 2C.F ....|R-- .... ....
....|..|--- .... ....|--- .... ....|--- .... ....
 A-3|..|A-2 2F.F ....|A-3 2C.F ....|--- .... ....
....|..|--- .... ....|--- .... ....|--- .... ....
....|..|G-4 2F.F ....|G-4 2F.F ....|--- .... ....
....|..|--- .... ....|--- .... ....|--- .... ....
....|..|C-4 2F.A ....|A-3 2F.7 ....|--- .... ....
....|..|--- .... ....|--- .... ....|--- .... ....

[Pattern40]
 A-3|..|--- .... ....|A-3 2C.F ....|--- .... ....
....|..|--- .... ....|--- .... ....|--- .... ....
 A-3|..|A-3 2F.A ....|A-3 2C.F ....|--- .... ....
....|..|--- .... ....|--- .... ....|--- .... ....
....|..|D#4 2F.7 ....|A-3 2F.7 ....|--- .... ....
....|..|--- .... ....|--- .... ....|--- .... ....
 A-3|..|A-2 2F.A ....|A-3 2C.F ....|--- .... ....
....|..|--- .... ....|--- .... ....|--- .... ....
....|..|D-4 2F.7 ....|A-3 2F.7 ....|--- .... ....
....|..|--- .... ....|--- .... ....|--- .... ....
 A-3|..|C-4 2F.7 ....|A-3 2C.F ....|--- .... ....
....|..|--- .... ....|--- .... ....|--- .... ....
 A-3|..|D#4 2F.F ....|A-3 2C.F ....|--- .... ....
....|..|--- .... ....|--- .... ....|--- .... ....
....|..|A-3 2F.7 ....|A-3 2F.7 ....|--- .... ....
....|..|--- .... ....|--- .... ....|--- .... ....
 A-3|..|D-4 2F.F ....|A-3 2C.F ....|--- .... ....
....|..|--- .... ....|--- .... ....|--- .... ....
....|..|C-4 2F.F ....|C-4 2F.F ....|--- .... ....
....|..|--- .... ....|--- .... ....|--- .... ....
....|..|G-4 2F.7 ....|G-4 2F.7 ....|--- .... ....
....|..|--- .... ....|--- .... ....|--- .... ....
....|..|A-3 2F.F ....|A-3 2F.F ....|--- .... ....
....|..|--- .... ....|--- .... ....|--- .... ....
 A-3|..|D#4 2F.A ....|A-3 2C.F ....|--- .... ....
....|..|--- .... ....|--- .... ....|--- .... ....
 A-3|..|--- .... ....|A-3 2C.F ....|--- .... ....
....|..|--- .... ....|--- .... ....|--- .... ....
....|..|A-1 2F.F ....|A-1 2F.F ....|--- .... ....
....|..|--- .... ....|--- .... ....|--- .... ....
....|..|A-2 2F.F ....|A-2 2F.F ....|--- .... ....
....|..|--- .... ....|--- .... ....|--- .... ....
 A-3|..|--- .... ....|A-3 2C.F ....|--- .... ....
....|..|--- .... ....|--- .... ....|--- .... ....
 A-3|..|A-3 2F.A ....|A-3 2C.F ....|--- .... ....
....|..|--- .... ....|--- .... ....|--- .... ....
....|..|D#4 2F.7 ....|D-5 2F.F ....|--- .... ....
....|..|--- .... ....|--- .... ....|--- .... ....
 A-3|..|--- .... ....|A-3 2C.F ....|--- .... ....
....|..|--- .... ....|--- .... ....|--- .... ....
....|..|D-4 2F.7 ....|A-3 2F.7 ....|--- .... ....
....|..|--- .... ....|--- .... ....|--- .... ....
 A-3|..|C-4 2F.7 ....|A-3 2C.F ....|--- .... ....
....|..|--- .... ....|--- .... ....|--- .... ....
 A-3|..|D#4 2F.F ....|A-3 2C.F ....|--- .... ....
....|..|--- .... ....|--- .... ....|--- .... ....
....|..|A-3 2F.7 ....|A-3 2F.7 ....|--- .... ....
....|..|--- .... ....|--- .... ....|--- .... ....
 A-3|..|D-4 2F.F ....|A-3 2C.F ....|--- .... ....
....|..|--- .... ....|--- .... ....|--- .... ....
....|..|C-4 2F.F ....|C-4 2F.F ....|--- .... ....
....|..|--- .... ....|--- .... ....|--- .... ....
....|..|A-1 2F.7 ....|A-1 2F.7 ....|--- .... ....
....|..|--- .... ....|--- .... ....|--- .... ....
....|..|A-3 2F.F ....|A-3 2F.F ....|--- .... ....
....|..|--- .... ....|--- .... ....|--- .... ....
 A-3|..|D#4 2F.A ....|A-3 2C.F ....|--- .... ....
....|..|--- .... ....|--- .... ....|--- .... ....
 A-3|..|G-3 2F.F ....|A-3 2C.F ....|--- .... ....
....|..|--- .... ....|--- .... ....|--- .... ....
....|..|F#4 2F.F ....|F#4 2F.F ....|--- .... ....
....|..|--- .... ....|--- .... ....|--- .... ....
....|..|C-4 2F.F ....|C-4 2F.F ....|--- .... ....
....|..|--- .... ....|--- .... ....|--- .... ....
 A-3|..|--- .... ....|A-3 2C.F ....|--- .... ....
....|..|--- .... ....|--- .... ....|--- .... ....
 A-3|..|A-3 2F.A ....|A-3 2C.F ....|--- .... ....
....|..|--- .... ....|--- .... ....|--- .... ....
....|..|D#4 2F.7 ....|A-4 2F.F ....|--- .... ....
....|..|--- .... ....|--- .... ....|--- .... ....
 A-3|..|G-3 2F.A ....|A-3 2C.F ....|--- .... ....
....|..|--- .... ....|--- .... ....|--- .... ....
....|..|D-4 2F.7 ....|A-3 2F.7 ....|--- .... ....
....|..|--- .... ....|--- .... ....|--- .... ....
 A-3|..|C-4 2F.7 ....|A-3 2C.F ....|--- .... ....
....|..|--- .... ....|--- .... ....|--- .... ....
 A-3|..|D#4 2F.F ....|A-3 2C.F ....|--- .... ....
....|..|--- .... ....|--- .... ....|--- .... ....
....|..|A-3 2F.7 ....|A-3 2F.7 ....|--- .... ....
....|..|--- .... ....|--- .... ....|--- .... ....
 A-3|..|D-4 2F.F ....|A-3 2C.F ....|--- .... ....
....|..|--- .... ....|--- .... ....|--- .... ....
....|..|C-4 2F.F ....|C-4 2F.F ....|--- .... ....
....|..|--- .... ....|--- .... ....|--- .... ....
....|..|F#4 2F.7 ....|F#4 2F.7 ....|--- .... ....
....|..|--- .... ....|--- .... ....|--- .... ....
....|..|A-3 2F.F ....|A-3 2F.F ....|--- .... ....
....|..|--- .... ....|--- .... ....|--- .... ....
 A-3|..|D#4 2F.A ....|A-3 2C.F ....|--- .... ....
....|..|--- .... ....|--- .... ....|--- .... ....
 A-3|..|A-2 2F.F ....|A-3 2C.F ....|--- .... ....
....|..|--- .... ....|--- .... ....|--- .... ....
....|..|G-3 2F.F ....|G-3 2F.F ....|--- .... ....
....|..|--- .... ....|--- .... ....|--- .... ....
....|..|A-3 2F.F ....|A-3 2F.F ....|--- .... ....
....|..|--- .... ....|--- .... ....|--- .... ....
 A-3|..|--- .... ....|A-3 2C.F ....|--- .... ....
....|..|--- .... ....|--- .... ....|--- .... ....
 A-3|..|A-3 2F.A ....|A-3 2C.F ....|--- .... ....
....|..|--- .... ....|--- .... ....|--- .... ....
....|..|D#4 2F.7 ....|A-4 2F.F ....|--- .... ....
....|..|--- .... ....|--- .... ....|--- .... ....
 A-3|..|A-2 2F.A ....|A-3 2C.F ....|--- .... ....
....|..|--- .... ....|--- .... ....|--- .... ....
....|..|D-4 2F.7 ....|A-3 2F.7 ....|--- .... ....
....|..|--- .... ....|--- .... ....|--- .... ....
 A-3|..|C-4 2F.7 ....|A-3 2C.F ....|--- .... ....
....|..|--- .... ....|--- .... ....|--- .... ....
 A-3|..|D#4 2F.F ....|A-3 2C.F ....|--- .... ....
....|..|--- .... ....|--- .... ....|--- .... ....
....|..|A-3 2F.7 ....|A-3 2F.7 ....|--- .... ....
....|..|--- .... ....|--- .... ....|--- .... ....
 A-3|..|D-4 2F.F ....|A-3 2C.F ....|--- .... ....
....|..|--- .... ....|--- .... ....|--- .... ....
....|..|C-4 2F.F ....|C-4 2F.F ....|--- .... ....
....|..|--- .... ....|--- .... ....|--- .... ....
....|..|G-3 2F.7 ....|G-3 2F.7 ....|--- .... ....
....|..|--- .... ....|--- .... ....|--- .... ....
....|..|A-3 2F.F ....|A-3 2F.F ....|--- .... ....
....|..|--- .... ....|--- .... ....|--- .... ....
 A-3|..|D#4 2F.A ....|A-3 2C.F ....|--- .... ....
....|..|--- .... ....|--- .... ....|--- .... ....
 A-3|..|A-1 2F.F ....|A-3 2C.F ....|--- .... ....
....|..|--- .... ....|A-5 2F.F ....|--- .... ....
....|..|A-2 2F.F ....|A-2 2F.F ....|--- .... ....
....|..|--- .... ....|--- .... ....|--- .... ....
....|..|A-1 2F.F ....|A-1 2F.F ....|--- .... ....
....|..|--- .... ....|--- .... ....|--- .... ....

[Pattern41]
 A-3|..|--- .... ....|A-3 2C.F ....|--- .... ....
....|..|--- .... ....|--- .... ....|--- .... ....
 A-3|..|A-3 2F.A ....|A-3 2C.F ....|--- .... ....
....|..|--- .... ....|--- .... ....|--- .... ....
....|..|D#4 2F.7 ....|A-5 2F.F ....|--- .... ....
....|..|--- .... ....|--- .... ....|--- .... ....
 A-3|..|A-1 2F.A ....|A-3 2C.F ....|--- .... ....
....|..|--- .... ....|A-5 2F.A ....|--- .... ....
....|..|D-4 2F.7 ....|A-3 2F.7 ....|--- .... ....
....|..|--- .... ....|--- .... ....|--- .... ....
 A-3|..|C-4 2F.7 ....|A-3 2C.F ....|--- .... ....
....|..|--- .... ....|--- .... ....|--- .... ....
 A-3|..|D#4 2F.F ....|A-3 2C.F ....|--- .... ....
....|..|--- .... ....|--- .... ....|--- .... ....
....|..|A-3 2F.7 ....|A-5 2F.F ....|--- .... ....
....|..|--- .... ....|--- .... ....|--- .... ....
 A-3|..|D-4 2F.F ....|A-3 2C.F ....|--- .... ....
....|..|--- .... ....|--- .... ....|--- .... ....
....|..|C-4 2F.F ....|G-5 2F.F ....|--- .... ....
....|..|--- .... ....|A-5 2F.7 ....|--- .... ....
....|..|A-2 2F.7 ....|A-2 2F.7 ....|--- .... ....
....|..|--- .... ....|--- .... ....|--- .... ....
....|..|A-3 2F.F ....|A-3 2F.F ....|--- .... ....
....|..|--- .... ....|--- .... ....|--- .... ....
 A-3|..|D#4 2F.A ....|A-3 2C.F ....|--- .... ....
....|..|--- .... ....|--- .... ....|--- .... ....
 A-3|..|--- .... ....|A-3 2C.F ....|--- .... ....
....|..|--- .... ....|--- .... ....|--- .... ....
....|..|A-2 2F.F ....|A-2 2F.F ....|--- .... ....
....|..|--- .... ....|--- .... ....|--- .... ....
....|..|A-3 2F.F ....|A-3 2F.F ....|--- .... ....
....|..|--- .... ....|--- .... ....|--- .... ....
 A-3|..|--- .... ....|A-3 2C.F ....|--- .... ....
....|..|--- .... ....|--- .... ....|--- .... ....
 A-3|..|A-3 2F.A ....|A-3 2C.F ....|--- .... ....
....|..|--- .... ....|--- .... ....|--- .... ....
....|..|A-3 2F.F ....|A-3 2F.F ....|--- .... ....
....|..|--- .... ....|--- .... ....|--- .... ....
 A-3|..|--- .... ....|A-3 2C.F ....|--- .... ....
....|..|--- .... ....|--- .... ....|--- .... ....
....|..|D-4 2F.7 ....|A-3 2F.7 ....|--- .... ....
....|..|--- .... ....|--- .... ....|--- .... ....
 A-3|..|C-4 2F.7 ....|A-3 2C.F ....|--- .... ....
....|..|--- .... ....|--- .... ....|--- .... ....
 A-3|..|D#4 2F.F ....|A-3 2C.F ....|--- .... ....
....|..|--- .... ....|--- .... ....|--- .... ....
....|..|A-3 2F.7 ....|A-3 2F.7 ....|--- .... ....
....|..|--- .... ....|--- .... ....|--- .... ....
 A-3|..|D-4 2F.F ....|A-3 2C.F ....|--- .... ....
....|..|--- .... ....|--- .... ....|--- .... ....
....|..|C-4 2F.F ....|A-5 2F.F ....|--- .... ....
....|..|--- .... ....|--- .... ....|--- .... ....
....|..|A-2 2F.7 ....|A-2 2F.7 ....|--- .... ....
....|..|--- .... ....|--- .... ....|--- .... ....
....|..|A-2 2F.F ....|D#5 2F.F ....|--- .... ....
....|..|--- .... ....|--- .... ....|--- .... ....
 A-3|..|D#4 2F.A ....|A-3 2C.F ....|--- .... ....
....|..|--- .... ....|--- .... ....|--- .... ....
 A-3|..|A-3 2F.F ....|A-3 2C.F ....|--- .... ....
....|..|--- .... ....|--- .... ....|--- .... ....
....|..|A-4 2F.F ....|A-4 2F.F ....|--- .... ....
....|..|--- .... ....|--- .... ....|--- .... ....
....|..|C-4 2F.A ....|A-3 2F.7 ....|--- .... ....
....|..|--- .... ....|--- .... ....|--- .... ....
 A-3|..|--- .... ....|A-3 2C.F ....|--- .... ....
....|..|--- .... ....|--- .... ....|--- .... ....
 A-3|..|A-2 2F.A ....|A-3 2C.F ....|--- .... ....
....|..|--- .... ....|--- .... ....|--- .... ....
....|..|D#4 2F.7 ....|A-3 2F.7 ....|--- .... ....
....|..|--- .... ....|--- .... ....|--- .... ....
....|..|A-3 2F.A ....|A-3 2F.A ....|--- .... ....
....|..|--- .... ....|--- .... ....|--- .... ....
 A-3|..|D-4 2F.7 ....|A-3 2C.F ....|--- .... ....
....|..|--- .... ....|--- .... ....|--- .... ....
....|..|C-4 2F.7 ....|A-5 2F.7 ....|--- .... ....
....|..|--- .... ....|--- .... ....|--- .... ....
 A-3|..|D#4 2F.F ....|A-3 2C.F ....|--- .... ....
....|..|--- .... ....|--- .... ....|--- .... ....
 A-3|..|A-2 2F.7 ....|A-3 2C.F ....|--- .... ....
....|..|--- .... ....|--- .... ....|--- .... ....
....|..|D-4 2F.F ....|D-4 2F.F ....|--- .... ....
....|..|--- .... ....|--- .... ....|--- .... ....
 A-3|..|C-4 2F.F ....|A-3 2C.F ....|--- .... ....
....|..|--- .... ....|--- .... ....|--- .... ....
....|..|A-4 2F.7 ....|A-4 2F.7 ....|--- .... ....
....|..|--- .... ....|--- .... ....|--- .... ....
 A-3|..|A-3 2F.F ....|A-3 2C.F ....|--- .... ....
....|..|--- .... ....|--- .... ....|--- .... ....
....|..|D#4 2F.A ....|E-5 2F.F ....|--- .... ....
....|..|--- .... ....|--- .... ....|--- .... ....
 A-3|..|A-2 2F.F ....|A-3 2C.F ....|--- .... ....
....|..|--- .... ....|--- .... ....|--- .... ....
 C-4|..|G-3 2F.F ....|C-4 2C.F ....|--- .... ....
....|..|--- .... ....|--- .... ....|--- .... ....
 A-3|..|A-3 2F.F ....|A-3 2C.F ....|--- .... ....
....|..|--- .... ....|--- .... ....|--- .... ....
 A-3|..|--- .... ....|A-4 2C.F ....|--- .... ....
....|..|--- .... ....|--- .... ....|--- .... ....
 A-3|..|A-3 2F.A ....|A-3 2C.F ....|--- .... ....
....|..|--- .... ....|A-5 2F.F ....|--- .... ....
....|..|D#4 2F.7 ....|A-3 2F.7 ....|--- .... ....
....|..|--- .... ....|--- .... ....|--- .... ....
....|..|A-2 2F.A ....|A-3 2F.7 ....|--- .... ....
....|..|--- .... ....|--- .... ....|--- .... ....
 A-3|..|D-4 2F.7 ....|A-3 2C.F ....|--- .... ....
....|..|--- .... ....|--- .... ....|--- .... ....
....|..|C-4 2F.7 ....|A-3 2F.7 ....|--- .... ....
....|..|--- .... ....|--- .... ....|--- .... ....
 A-3|..|D#4 2F.F ....|A-3 2C.F ....|--- .... ....
....|..|--- .... ....|--- .... ....|--- .... ....
 A-3|..|A-3 2F.7 ....|A-3 2C.F ....|--- .... ....
....|..|--- .... ....|A-5 2F.A ....|--- .... ....
....|..|--- .... ....|E-5 2F.7 ....|--- .... ....
....|..|--- .... ....|--- .... ....|--- .... ....
 A-3|..|D-4 2F.F ....|A-3 2C.F ....|--- .... ....
....|..|--- .... ....|--- .... ....|--- .... ....
....|..|G-3 2F.7 ....|C-4 2F.7 ....|--- .... ....
....|..|--- .... ....|--- .... ....|--- .... ....
 A-3|..|C-4 2F.F ....|A-3 2C.F ....|--- .... ....
....|..|--- .... ....|--- .... ....|--- .... ....
....|..|D#4 2F.A ....|A-4 2F.7 ....|--- .... ....
....|..|--- .... ....|--- .... ....|--- .... ....
 C-4|..|--- .... ....|C-4 2C.F ....|--- .... ....
....|..|--- .... ....|A-5 2F.7 ....|--- .... ....
....|..|A-3 2F.F ....|C-6 2F.F ....|--- .... ....
....|..|--- .... ....|--- .... ....|--- .... ....
....|..|A-1 2F.F ....|A-5 2F.F ....|--- .... ....
....|..|--- .... ....|--- .... ....|--- .... ....

[Pattern42]
 A-3|..|--- .... ....|A-3 2C.F ....|--- .... ....
....|..|--- .... ....|--- .... ....|--- .... ....
 A-3|..|C-4 2F.A ....|A-3 2C.F ....|--- .... ....
....|..|--- .... ....|--- .... ....|--- .... ....
....|..|D#4 2F.7 ....|A-3 2F.7 ....|--- .... ....
....|..|--- .... ....|--- .... ....|--- .... ....
....|..|--- .... ....|A-3 2F.7 ....|--- .... ....
....|..|--- .... ....|--- .... ....|--- .... ....
 A-3|..|A-3 2F.A ....|A-3 2C.F ....|--- .... ....
....|..|--- .... ....|--- .... ....|--- .... ....
....|..|D-4 2F.7 ....|A-3 2F.7 ....|--- .... ....
....|..|--- .... ....|--- .... ....|--- .... ....
 A-3|..|D#4 2F.F ....|A-3 2C.F ....|--- .... ....
....|..|--- .... ....|--- .... ....|--- .... ....
 A-3|..|C-4 2F.7 ....|A-3 2C.F ....|--- .... ....
....|..|--- .... ....|--- .... ....|--- .... ....
....|..|D-4 2F.F ....|D-4 2F.F ....|--- .... ....
....|..|--- .... ....|--- .... ....|--- .... ....
 A-3|..|C-4 2F.F ....|A-3 2C.F ....|--- .... ....
....|..|--- .... ....|--- .... ....|--- .... ....
....|..|A-3 2F.7 ....|C-6 2F.7 ....|--- .... ....
....|..|--- .... ....|--- .... ....|--- .... ....
 A-3|..|A-3 2F.F ....|A-3 2C.F ....|--- .... ....
....|..|--- .... ....|--- .... ....|--- .... ....
....|..|D#4 2F.A ....|A-3 2F.7 ....|--- .... ....
....|..|--- .... ....|--- .... ....|--- .... ....
 A-3|..|A-2 2F.F ....|A-3 2C.F ....|--- .... ....
....|..|--- .... ....|--- .... ....|--- .... ....
 B-4|..|G-3 2F.F ....|B-4 2C.F ....|--- .... ....
....|..|--- .... ....|F-5 2F.F ....|--- .... ....
....|..|A-3 2F.F ....|A-5 2F.F ....|--- .... ....
....|..|--- .... ....|C-6 2F.F ....|--- .... ....
 A-3|..|--- .... ....|A-4 2C.F ....|--- .... ....
....|..|--- .... ....|--- .... ....|--- .... ....
 C-4|..|A-3 2F.A ....|C-4 2C.F ....|--- .... ....
....|..|--- .... ....|--- .... ....|--- .... ....
....|..|A-2 2F.F ....|A-2 2F.F ....|--- .... ....
....|..|--- .... ....|--- .... ....|--- .... ....
....|..|A-2 2F.A ....|A-3 2F.7 ....|--- .... ....
....|..|--- .... ....|--- .... ....|--- .... ....
 A-3|..|D-4 2F.7 ....|A-3 2C.F ....|--- .... ....
....|..|--- .... ....|F-5 2F.A ....|--- .... ....
....|..|C-4 2F.7 ....|A-3 2F.7 ....|--- .... ....
....|..|D#4 2F.F ....|D#4 2F.F ....|--- .... ....
 A-3|..|--- .... ....|A-3 2C.F ....|--- .... ....
....|..|--- .... ....|--- .... ....|--- .... ....
 A-3|..|D#4 2F.F ....|A-3 2C.F ....|--- .... ....
....|..|--- .... ....|--- .... ....|--- .... ....
....|..|D#4 2F.F ....|D#4 2F.F ....|--- .... ....
....|..|--- .... ....|--- .... ....|--- .... ....
 A-3|..|A-2 2F.7 ....|A-3 2C.F ....|--- .... ....
....|..|D-4 2F.F ....|D-4 2F.F ....|--- .... ....
....|..|G-3 2F.7 ....|B-4 2F.7 ....|--- .... ....
....|..|--- .... ....|F-5 2F.7 ....|--- .... ....
 A-3|..|D-4 2F.F ....|A-3 2C.F ....|--- .... ....
....|..|D#4 2F.A ....|C-6 2F.7 ....|--- .... ....
....|..|D-4 2F.F ....|D#6 2F.F ....|--- .... ....
....|..|--- .... ....|--- .... ....|--- .... ....
 A-3|..|D#4 2F.A ....|A-3 2C.F ....|--- .... ....
....|..|C-4 2F.F ....|C-4 2F.F ....|--- .... ....
 C-4|..|A-2 2F.7 ....|C-4 2C.F ....|--- .... ....
....|..|--- .... ....|--- .... ....|--- .... ....
 A-3|..|C-4 2F.F ....|A-3 2C.F ....|--- .... ....
....|..|D-4 2F.A ....|D-4 2F.A ....|--- .... ....
 F-4|..|--- .... ....|F-3 2C.F ....|--- .... ....
....|..|--- .... ....|--- .... ....|--- .... ....
 F-4|..|D-4 2F.A ....|F-3 2C.F ....|--- .... ....
....|..|D#4 2F.7 ....|D#4 2F.7 ....|--- .... ....
....|..|D-4 2F.A ....|A-5 2F.F ....|--- .... ....
....|..|--- .... ....|--- .... ....|--- .... ....
....|..|D#4 2F.7 ....|A-3 2F.7 ....|--- .... ....
....|..|C-4 2F.A ....|C-4 2F.A ....|--- .... ....
 F-4|..|D#4 2F.7 ....|F-3 2C.F ....|--- .... ....
....|..|--- .... ....|--- .... ....|--- .... ....
....|..|C-4 2F.A ....|A-3 2F.7 ....|--- .... ....
....|..|D-4 2F.7 ....|D-4 2F.7 ....|--- .... ....
 F-4|..|D#4 2F.F ....|F-3 2C.F ....|--- .... ....
....|..|--- .... ....|--- .... ....|--- .... ....
 F-4|..|D-4 2F.7 ....|F-3 2C.F ....|--- .... ....
....|..|--- .... ....|--- .... ....|--- .... ....
....|..|D-4 2F.F ....|D-4 2F.F ....|--- .... ....
....|..|--- .... ....|--- .... ....|--- .... ....
 F-4|..|C-4 2F.F ....|F-3 2C.F ....|--- .... ....
....|..|C-4 2F.7 ....|C-4 2F.7 ....|--- .... ....
....|..|--- .... ....|C-4 2F.7 ....|--- .... ....
....|..|--- .... ....|--- .... ....|--- .... ....
 F-4|..|A-3 2F.F ....|F-3 2C.F ....|--- .... ....
....|..|--- .... ....|--- .... ....|--- .... ....
....|..|D#4 2F.A ....|F-3 2F.7 ....|--- .... ....
....|..|--- .... ....|--- .... ....|--- .... ....
 F-4|..|--- .... ....|F-3 2C.F ....|--- .... ....
....|..|--- .... ....|--- .... ....|--- .... ....
 C-4|..|A-2 2F.F ....|C-4 2C.F ....|--- .... ....
....|..|--- .... ....|--- .... ....|--- .... ....
 F-4|..|A-3 2F.F ....|F-3 2C.F ....|--- .... ....
....|..|--- .... ....|--- .... ....|--- .... ....
 F-4|..|--- .... ....|F-4 2C.F ....|--- .... ....
....|..|--- .... ....|--- .... ....|--- .... ....
 F-4|..|A-3 2F.A ....|F-3 2C.F ....|--- .... ....
....|..|--- .... ....|--- .... ....|--- .... ....
....|..|A-3 2F.F ....|A-5 2F.F ....|--- .... ....
....|..|--- .... ....|--- .... ....|--- .... ....
....|..|--- .... ....|F-3 2F.7 ....|--- .... ....
....|..|--- .... ....|--- .... ....|--- .... ....
 F-4|..|D-4 2F.7 ....|F-3 2C.F ....|--- .... ....
....|..|--- .... ....|--- .... ....|--- .... ....
....|..|C-4 2F.7 ....|F-3 2F.7 ....|--- .... ....
....|..|--- .... ....|--- .... ....|--- .... ....
 F-4|..|D#4 2F.F ....|F-3 2C.F ....|--- .... ....
....|..|--- .... ....|--- .... ....|--- .... ....
 F-4|..|A-3 2F.7 ....|F-3 2C.F ....|--- .... ....
....|..|--- .... ....|--- .... ....|--- .... ....
....|..|D-4 2F.F ....|D-4 2F.F ....|--- .... ....
....|..|--- .... ....|--- .... ....|--- .... ....
 F-4|..|C-4 2F.F ....|F-3 2C.F ....|--- .... ....
....|..|--- .... ....|--- .... ....|--- .... ....
....|..|A-2 2F.7 ....|C-4 2F.7 ....|--- .... ....
....|..|--- .... ....|--- .... ....|--- .... ....
 F-4|..|A-3 2F.F ....|F-3 2C.F ....|--- .... ....
....|..|--- .... ....|--- .... ....|--- .... ....
....|..|D#4 2F.A ....|F-4 2F.7 ....|--- .... ....
....|..|--- .... ....|--- .... ....|--- .... ....
 F-4|..|--- .... ....|F-4 2C.F ....|--- .... ....
....|..|--- .... ....|--- .... ....|--- .... ....
....|..|G-4 2F.F ....|G-4 2F.F ....|--- .... ....
....|..|--- .... ....|--- .... ....|--- .... ....
....|..|C-4 2F.A ....|F-3 2F.A ....|--- .... ....
....|..|--- .... ....|--- .... ....|--- .... ....

[Pattern43]
 D-4|..|--- .... ....|D-3 2C.F ....|--- .... ....
....|..|--- .... ....|--- .... ....|--- .... ....
 D-4|..|A-3 2F.A ....|D-3 2C.F ....|--- .... ....
....|..|--- .... ....|--- .... ....|--- .... ....
....|..|D#4 2F.7 ....|A-5 2F.F ....|--- .... ....
....|..|--- .... ....|--- .... ....|--- .... ....
....|..|--- .... ....|F-3 2F.7 ....|--- .... ....
....|..|--- .... ....|--- .... ....|--- .... ....
 D-4|..|D-4 2F.7 ....|D-3 2C.F ....|--- .... ....
....|..|--- .... ....|--- .... ....|--- .... ....
....|..|C-4 2F.7 ....|F-3 2F.7 ....|--- .... ....
....|..|--- .... ....|--- .... ....|--- .... ....
 D-4|..|D#4 2F.F ....|D-3 2C.F ....|--- .... ....
....|..|--- .... ....|--- .... ....|--- .... ....
 D-4|..|A-3 2F.7 ....|D-3 2C.F ....|--- .... ....
....|..|--- .... ....|--- .... ....|--- .... ....
....|..|D-4 2F.F ....|D-4 2F.F ....|--- .... ....
....|..|--- .... ....|--- .... ....|--- .... ....
 D-4|..|C-4 2F.F ....|D-3 2C.F ....|--- .... ....
....|..|--- .... ....|--- .... ....|--- .... ....
....|..|G-4 2F.7 ....|G-4 2F.7 ....|--- .... ....
....|..|--- .... ....|--- .... ....|--- .... ....
 D-4|..|A-3 2F.F ....|D-3 2C.F ....|--- .... ....
....|..|--- .... ....|D-4 2F.F ....|--- .... ....
....|..|D#4 2F.A ....|D-3 2F.7 ....|--- .... ....
....|..|--- .... ....|--- .... ....|--- .... ....
 D-4|..|--- .... ....|D-3 2C.F ....|--- .... ....
....|..|--- .... ....|--- .... ....|--- .... ....
 E-4|..|D-4 2F.A ....|E-4 2C.F ....|--- .... ....
....|..|--- .... ....|--- .... ....|--- .... ....
....|..|C-4 2F.A ....|D-3 2F.A ....|--- .... ....
....|..|--- .... ....|--- .... ....|--- .... ....
 F-4|..|A-2 2F.F ....|F-3 2C.F ....|--- .... ....
....|..|--- .... ....|--- .... ....|--- .... ....
 F-4|..|G-3 2F.F ....|F-3 2C.F ....|--- .... ....
....|..|--- .... ....|D-4 2F.A ....|--- .... ....
....|..|D#4 2F.7 ....|A-5 2F.F ....|--- .... ....
....|..|--- .... ....|--- .... ....|--- .... ....
....|..|A-2 2F.F ....|A-2 2F.F ....|--- .... ....
....|..|--- .... ....|--- .... ....|--- .... ....
 F-4|..|A-3 2F.F ....|F-3 2C.F ....|--- .... ....
....|..|--- .... ....|--- .... ....|--- .... ....
....|..|C-4 2F.7 ....|A-5 2F.F ....|--- .... ....
....|..|--- .... ....|--- .... ....|--- .... ....
 F-4|..|A-2 2F.F ....|F-3 2C.F ....|--- .... ....
....|..|--- .... ....|--- .... ....|--- .... ....
 F-4|..|C-4 2F.F ....|F-3 2C.F ....|--- .... ....
....|..|--- .... ....|D-4 2F.7 ....|--- .... ....
....|..|--- .... ....|A-5 2F.A ....|--- .... ....
....|..|--- .... ....|--- .... ....|--- .... ....
 E-4|..|A-2 2F.F ....|E-3 2C.F ....|--- .... ....
....|..|--- .... ....|--- .... ....|--- .... ....
....|..|A-3 2F.F ....|A-3 2F.F ....|--- .... ....
....|..|--- .... ....|--- .... ....|--- .... ....
 E-4|..|A-2 2F.F ....|E-3 2C.F ....|--- .... ....
....|..|--- .... ....|--- .... ....|--- .... ....
....|..|G-3 2F.F ....|D-5 2F.F ....|--- .... ....
....|..|--- .... ....|--- .... ....|--- .... ....
 E-4|..|A-3 2F.F ....|E-3 2C.F ....|--- .... ....
....|..|--- .... ....|--- .... ....|--- .... ....
 G#4|..|A-3 2F.F ....|G#3 2C.F ....|--- .... ....
....|..|--- .... ....|--- .... ....|--- .... ....
 E-4|..|A-3 2F.F ....|E-3 2C.F ....|--- .... ....
....|..|--- .... ....|--- .... ....|--- .... ....
....|..|A-3 2F.7 ....|F-3 2F.7 ....|--- .... ....
....|..|--- .... ....|--- .... ....|--- .... ....
....|..|A-3 2F.F ....|A-5 2F.7 ....|--- .... ....
....|..|--- .... ....|--- .... ....|--- .... ....
....|..|A-2 2F.7 ....|F-3 2F.7 ....|--- .... ....
....|..|--- .... ....|--- .... ....|--- .... ....
....|..|C-4 2F.7 ....|F-3 2F.7 ....|--- .... ....
....|..|--- .... ....|--- .... ....|--- .... ....
....|..|A-3 2F.F ....|G#3 2F.A ....|--- .... ....
....|..|--- .... ....|--- .... ....|--- .... ....
....|..|A-2 2F.7 ....|E-3 2F.7 ....|--- .... ....
....|..|--- .... ....|--- .... ....|--- .... ....
....|..|A-3 2F.7 ....|A-3 2F.7 ....|--- .... ....
....|..|--- .... ....|--- .... ....|--- .... ....
....|..|A-3 2F.F ....|E-3 2F.7 ....|--- .... ....
....|..|--- .... ....|--- .... ....|--- .... ....
....|..|G-3 2F.7 ....|D-5 2F.7 ....|--- .... ....
....|..|--- .... ....|--- .... ....|--- .... ....
....|..|A-3 2F.7 ....|E-3 2F.7 ....|--- .... ....
....|..|--- .... ....|--- .... ....|--- .... ....
....|..|A-3 2F.F ....|G#3 2F.7 ....|--- .... ....
....|..|--- .... ....|--- .... ....|--- .... ....
....|..|A-3 2F.7 ....|E-3 2F.7 ....|--- .... ....
....|..|--- .... ....|--- .... ....|--- .... ....
....|..|--- .... ....|R-- .... ....|--- .... ....
....|..|--- .... ....|--- .... ....|--- .... ....
....|..|A-3 2F.F ....|--- .... ....|--- .... ....
....|..|--- .... ....|--- .... ....|--- .... ....
....|..|--- .... ....|--- .... ....|--- .... ....
....|..|--- .... ....|--- .... ....|--- .... ....
....|..|--- .... ....|--- .... ....|--- .... ....
....|..|--- .... ....|--- .... ....|--- .... ....
....|..|A-3 2F.F ....|--- .... ....|--- .... ....
....|..|--- .... ....|--- .... ....|--- .... ....
....|..|--- .... ....|--- .... ....|--- .... ....
....|..|--- .... ....|--- .... ....|--- .... ....
....|..|--- .... ....|--- .... ....|--- .... ....
....|..|--- .... ....|--- .... ....|--- .... ....
....|..|A-3 2F.F ....|--- .... ....|--- .... ....
....|..|--- .... ....|--- .... ....|--- .... ....
....|..|--- .... ....|--- .... ....|--- .... ....
....|..|--- .... ....|--- .... ....|--- .... ....
....|..|--- .... ....|--- .... ....|--- .... ....
....|..|--- .... ....|--- .... ....|--- .... ....
....|..|A-3 2F.F ....|--- .... ....|--- .... ....
....|..|--- .... ....|--- .... ....|--- .... ....
....|..|--- .... ....|--- .... ....|--- .... ....
....|..|--- .... ....|--- .... ....|--- .... ....
....|..|--- .... ....|--- .... ....|--- .... ....
....|..|--- .... ....|--- .... ....|--- .... ....
....|..|A-3 2F.F ....|--- .... ....|--- .... ....
....|..|--- .... ....|--- .... ....|--- .... ....
....|..|--- .... ....|--- .... ....|--- .... ....
....|..|--- .... ....|--- .... ....|--- .... ....
....|..|--- .... ....|--- .... ....|--- .... ....
....|..|--- .... ....|--- .... ....|--- .... ....
....|..|A-3 2F.F ....|--- .... ....|--- .... ....
....|..|--- .... ....|--- .... ....|--- .... ....
....|..|--- .... ....|--- .... ....|--- .... ....
....|..|--- .... ....|--- .... ....|--- .... ....
....|..|--- .... ....|--- .... ....|--- .... ....
....|..|--- .... ....|--- .... ....|--- .... ....
....|..|A-3 2F.F ....|--- .... ....|--- .... ....
....|..|--- .... ....|--- .... ....|--- .... ....

[Pattern44]
....|..|--- .... ....|--- .... ....|--- .... ....
....|..|--- .... ....|--- .... ....|--- .... ....
....|..|--- .... ....|--- .... ....|--- .... ....
....|..|--- .... ....|--- .... ....|--- .... ....
....|..|A-3 2F.F ....|--- .... ....|--- .... ....
....|..|--- .... ....|--- .... ....|--- .... ....
....|..|--- .... ....|--- .... ....|--- .... ....
....|..|--- .... ....|--- .... ....|--- .... ....
....|..|--- .... ....|--- .... ....|--- .... ....
....|..|--- .... ....|--- .... ....|--- .... ....
....|..|A-3 2F.F ....|--- .... ....|--- .... ....
....|..|--- .... ....|--- .... ....|--- .... ....
....|..|--- .... ....|--- .... ....|--- .... ....
....|..|--- .... ....|--- .... ....|--- .... ....
....|..|--- .... ....|--- .... ....|--- .... ....
....|..|--- .... ....|--- .... ....|--- .... ....
....|..|A-3 2F.F ....|--- .... ....|--- .... ....
....|..|--- .... ....|--- .... ....|--- .... ....
....|..|--- .... ....|--- .... ....|--- .... ....
....|..|--- .... ....|--- .... ....|--- .... ....
....|..|--- .... ....|--- .... ....|--- .... ....
....|..|--- .... ....|--- .... ....|--- .... ....
....|..|A-3 2F.F ....|--- .... ....|--- .... ....
....|..|--- .... ....|--- .... ....|--- .... ....
....|..|--- .... ....|--- .... ....|--- .... ....
....|..|--- .... ....|--- .... ....|--- .... ....
....|..|--- .... ....|--- .... ....|--- .... ....
....|..|--- .... ....|--- .... ....|--- .... ....
....|..|A-3 2F.F ....|--- .... ....|--- .... ....
....|..|--- .... ....|--- .... ....|--- .... ....
....|..|--- .... ....|--- .... ....|--- .... ....
....|..|--- .... ....|--- .... ....|--- .... ....
....|..|--- .... ....|--- .... ....|--- .... ....
....|..|--- .... ....|--- .... ....|--- .... ....
....|..|A-3 2F.7 ....|--- .... ....|--- .... ....
....|..|--- .... ....|--- .... ....|--- .... ....
....|..|--- .... ....|--- .... ....|--- .... ....
....|..|--- .... ....|--- .... ....|--- .... ....
....|..|--- .... ....|--- .... ....|--- .... ....
....|..|--- .... ....|--- .... ....|--- .... ....
....|..|A-3 2F.7 ....|--- .... ....|--- .... ....
....|..|--- .... ....|--- .... ....|--- .... ....
....|..|--- .... ....|--- .... ....|--- .... ....
....|..|--- .... ....|--- .... ....|--- .... ....
....|..|--- .... ....|--- .... ....|--- .... ....
....|..|--- .... ....|--- .... ....|--- .... ....
....|..|A-3 2F.7 ....|--- .... ....|--- .... ....
....|..|--- .... ....|--- .... ....|--- .... ....
....|..|--- .... ....|--- .... ....|--- .... ....
....|..|--- .... ....|--- .... ....|--- .... ....
....|..|--- .... ....|--- .... ....|--- .... ....
....|..|--- .... ....|--- .... ....|--- .... ....
....|..|A-3 2F.7 ....|--- .... ....|--- .... ....
....|..|--- .... ....|--- .... ....|--- .... ....
....|..|--- .... ....|--- .... ....|--- .... ....
....|..|--- .... ....|--- .... ....|--- .... ....
....|..|--- .... ....|--- .... ....|--- .... ....
....|..|--- .... ....|--- .... ....|--- .... ....
....|..|--- .... ....|--- .... ....|--- .... ....
....|..|--- .... ....|--- .... ....|--- .... ....
....|..|--- .... ....|--- .... ....|--- .... ....
....|..|--- .... ....|--- .... ....|--- .... ....
....|..|--- .... ....|--- .... ....|--- .... ....
....|..|--- .... ....|--- .... ....|--- .... ....
....|..|F#4 2F.F ....|--- .... ....|--- .... ....
....|..|--- .... ....|--- .... ....|--- .... ....
....|..|--- .... ....|--- .... ....|--- .... ....
....|..|--- .... ....|--- .... ....|--- .... ....
....|..|F#5 2F.F ....|--- .... ....|--- .... ....
....|..|--- .... ....|--- .... ....|--- .... ....
....|..|--- .... ....|--- .... ....|--- .... ....
....|..|--- .... ....|--- .... ....|--- .... ....
....|..|A#5 2F.F ....|--- .... ....|--- .... ....
....|..|--- .... ....|--- .... ....|--- .... ....
....|..|--- .... ....|--- .... ....|--- .... ....
....|..|--- .... ....|--- .... ....|--- .... ....
....|..|F#5 2F.F ....|--- .... ....|--- .... ....
....|..|--- .... ....|--- .... ....|--- .... ....
....|..|--- .... ....|--- .... ....|--- .... ....
....|..|--- .... ....|--- .... ....|--- .... ....
....|..|B-5 2F.F ....|--- .... ....|--- .... ....
....|..|--- .... ....|--- .... ....|--- .... ....
....|..|--- .... ....|--- .... ....|--- .... ....
....|..|--- .... ....|--- .... ....|--- .... ....
....|..|A#5 2F.F ....|--- .... ....|--- .... ....
....|..|--- .... ....|--- .... ....|--- .... ....
....|..|--- .... ....|--- .... ....|--- .... ....
....|..|--- .... ....|--- .... ....|--- .... ....
....|..|F#5 2F.F ....|--- .... ....|--- .... ....
....|..|--- .... ....|--- .... ....|--- .... ....
....|..|--- .... ....|--- .... ....|--- .... ....
....|..|--- .... ....|--- .... ....|--- .... ....
....|..|A#5 2F.F ....|--- .... ....|--- .... ....
....|..|--- .... ....|--- .... ....|--- .... ....
....|..|--- .... ....|--- .... ....|--- .... ....
....|..|--- .... ....|--- .... ....|--- .... ....
....|..|E-4 2F.F ....|--- .... ....|--- .... ....
....|..|--- .... ....|--- .... ....|--- .... ....
....|..|--- .... ....|--- .... ....|--- .... ....
....|..|--- .... ....|--- .... ....|--- .... ....
....|..|F#5 2F.F ....|--- .... ....|--- .... ....
....|..|--- .... ....|--- .... ....|--- .... ....
....|..|--- .... ....|--- .... ....|--- .... ....
....|..|--- .... ....|--- .... ....|--- .... ....
....|..|A#5 2F.F ....|--- .... ....|--- .... ....
....|..|--- .... ....|--- .... ....|--- .... ....
....|..|--- .... ....|--- .... ....|--- .... ....
....|..|--- .... ....|--- .... ....|--- .... ....
....|..|F#5 2F.F ....|--- .... ....|--- .... ....
....|..|--- .... ....|--- .... ....|--- .... ....
....|..|--- .... ....|--- .... ....|--- .... ....
....|..|--- .... ....|--- .... ....|--- .... ....
....|..|B-5 2F.F ....|--- .... ....|--- .... ....
....|..|--- .... ....|--- .... ....|--- .... ....
....|..|--- .... ....|--- .... ....|--- .... ....
....|..|--- .... ....|--- .... ....|--- .... ....
....|..|A#5 2F.F ....|--- .... ....|--- .... ....
....|..|--- .... ....|--- .... ....|--- .... ....
....|..|--- .... ....|--- .... ....|--- .... ....
....|..|--- .... ....|--- .... ....|--- .... ....
....|..|F#5 2F.F ....|--- .... ....|--- .... ....
....|..|--- .... ....|--- .... ....|--- .... ....
....|..|--- .... ....|--- .... ....|--- .... ....
....|..|--- .... ....|--- .... ....|--- .... ....
....|..|A#5 2F.F ....|--- .... ....|--- .... ....
....|..|--- .... ....|--- .... ....|--- .... ....
....|..|--- .... ....|--- .... ....|--- .... ....
....|..|--- .... ....|--- .... ....|--- .... ....

[Pattern45]
....|..|D#5 2F.F ....|--- .... ....|--- .... ....
....|..|--- .... ....|--- .... ....|--- .... ....
....|..|--- .... ....|--- .... ....|--- .... ....
....|..|--- .... ....|--- .... ....|--- .... ....
....|..|A#5 2F.F ....|--- .... ....|--- .... ....
....|..|--- .... ....|--- .... ....|--- .... ....
....|..|--- .... ....|--- .... ....|--- .... ....
....|..|--- .... ....|--- .... ....|--- .... ....
....|..|F-6 2F.F ....|--- .... ....|--- .... ....
....|..|--- .... ....|--- .... ....|--- .... ....
....|..|--- .... ....|--- .... ....|--- .... ....
....|..|--- .... ....|--- .... ....|--- .... ....
....|..|A#5 2F.F ....|--- .... ....|--- .... ....
....|..|--- .... ....|--- .... ....|--- .... ....
....|..|--- .... ....|--- .... ....|--- .... ....
....|..|--- .... ....|--- .... ....|--- .... ....
....|..|F#6 2F.F ....|--- .... ....|--- .... ....
....|..|--- .... ....|--- .... ....|--- .... ....
....|..|--- .... ....|--- .... ....|--- .... ....
....|..|--- .... ....|--- .... ....|--- .... ....
....|..|F-6 2F.F ....|--- .... ....|--- .... ....
....|..|--- .... ....|--- .... ....|--- .... ....
....|..|--- .... ....|--- .... ....|--- .... ....
....|..|--- .... ....|--- .... ....|--- .... ....
....|..|A#5 2F.F ....|--- .... ....|--- .... ....
....|..|--- .... ....|--- .... ....|--- .... ....
....|..|--- .... ....|--- .... ....|--- .... ....
....|..|--- .... ....|--- .... ....|--- .... ....
....|..|F-6 2F.F ....|--- .... ....|--- .... ....
....|..|--- .... ....|--- .... ....|--- .... ....
....|..|--- .... ....|--- .... ....|--- .... ....
....|..|--- .... ....|--- .... ....|--- .... ....
....|..|B-4 2F.F ....|--- .... ....|--- .... ....
....|..|--- .... ....|--- .... ....|--- .... ....
....|..|--- .... ....|--- .... ....|--- .... ....
....|..|--- .... ....|--- .... ....|--- .... ....
....|..|F#5 2F.F ....|--- .... ....|--- .... ....
....|..|--- .... ....|--- .... ....|--- .... ....
....|..|--- .... ....|--- .... ....|--- .... ....
....|..|--- .... ....|--- .... ....|--- .... ....
....|..|C#6 2F.F ....|--- .... ....|--- .... ....
....|..|--- .... ....|--- .... ....|--- .... ....
....|..|--- .... ....|--- .... ....|--- .... ....
....|..|--- .... ....|--- .... ....|--- .... ....
....|..|F#5 2F.F ....|--- .... ....|--- .... ....
....|..|--- .... ....|--- .... ....|--- .... ....
....|..|--- .... ....|--- .... ....|--- .... ....
....|..|--- .... ....|--- .... ....|--- .... ....
....|..|D#6 2F.F ....|--- .... ....|--- .... ....
....|..|--- .... ....|--- .... ....|--- .... ....
....|..|--- .... ....|--- .... ....|--- .... ....
....|..|--- .... ....|--- .... ....|--- .... ....
....|..|C#6 2F.F ....|--- .... ....|--- .... ....
....|..|--- .... ....|--- .... ....|--- .... ....
....|..|--- .... ....|--- .... ....|--- .... ....
....|..|--- .... ....|--- .... ....|--- .... ....
....|..|F#5 2F.F ....|--- .... ....|--- .... ....
....|..|--- .... ....|--- .... ....|--- .... ....
....|..|--- .... ....|--- .... ....|--- .... ....
....|..|--- .... ....|--- .... ....|--- .... ....
....|..|D#6 2F.F ....|--- .... ....|--- .... ....
....|..|--- .... ....|--- .... ....|--- .... ....
....|..|--- .... ....|--- .... ....|--- .... ....
....|..|--- .... ....|--- .... ....|--- .... ....
....|..|F#4 2F.F ....|--- .... ....|--- .... ....
....|..|--- .... ....|--- .... ....|--- .... ....
....|..|--- .... ....|--- .... ....|--- .... ....
....|..|--- .... ....|--- .... ....|--- .... ....
....|..|F#5 2F.F ....|--- .... ....|--- .... ....
....|..|--- .... ....|--- .... ....|--- .... ....
....|..|--- .... ....|--- .... ....|--- .... ....
....|..|--- .... ....|--- .... ....|--- .... ....
....|..|A#5 2F.F ....|--- .... ....|--- .... ....
....|..|--- .... ....|--- .... ....|--- .... ....
....|..|--- .... ....|--- .... ....|--- .... ....
....|..|--- .... ....|--- .... ....|--- .... ....
....|..|F#5 2F.F ....|--- .... ....|--- .... ....
....|..|--- .... ....|--- .... ....|--- .... ....
....|..|--- .... ....|--- .... ....|--- .... ....
....|..|--- .... ....|--- .... ....|--- .... ....
....|..|B-5 2F.F ....|--- .... ....|--- .... ....
....|..|--- .... ....|--- .... ....|--- .... ....
....|..|--- .... ....|--- .... ....|--- .... ....
....|..|--- .... ....|--- .... ....|--- .... ....
....|..|A#5 2F.F ....|--- .... ....|--- .... ....
....|..|--- .... ....|--- .... ....|--- .... ....
....|..|--- .... ....|--- .... ....|--- .... ....
....|..|--- .... ....|--- .... ....|--- .... ....
....|..|F#5 2F.F ....|--- .... ....|--- .... ....
....|..|--- .... ....|--- .... ....|--- .... ....
....|..|--- .... ....|--- .... ....|--- .... ....
....|..|--- .... ....|--- .... ....|--- .... ....
....|..|A#5 2F.F ....|--- .... ....|--- .... ....
....|..|--- .... ....|--- .... ....|--- .... ....
....|..|--- .... ....|--- .... ....|--- .... ....
....|..|--- .... ....|--- .... ....|--- .... ....
....|..|E-4 2F.F ....|--- .... ....|--- .... ....
....|..|--- .... ....|--- .... ....|--- .... ....
....|..|--- .... ....|--- .... ....|--- .... ....
....|..|--- .... ....|--- .... ....|--- .... ....
....|..|F#5 2F.F ....|--- .... ....|--- .... ....
....|..|--- .... ....|--- .... ....|--- .... ....
....|..|--- .... ....|--- .... ....|--- .... ....
....|..|--- .... ....|--- .... ....|--- .... ....
....|..|A#5 2F.F ....|--- .... ....|--- .... ....
....|..|--- .... ....|--- .... ....|--- .... ....
....|..|--- .... ....|--- .... ....|--- .... ....
....|..|--- .... ....|--- .... ....|--- .... ....
....|..|F#5 2F.F ....|--- .... ....|--- .... ....
....|..|--- .... ....|--- .... ....|--- .... ....
....|..|--- .... ....|--- .... ....|--- .... ....
....|..|--- .... ....|--- .... ....|--- .... ....
....|..|B-5 2F.F ....|--- .... ....|--- .... ....
....|..|--- .... ....|--- .... ....|--- .... ....
....|..|--- .... ....|--- .... ....|--- .... ....
....|..|--- .... ....|--- .... ....|--- .... ....
....|..|A#5 2F.F ....|--- .... ....|--- .... ....
....|..|--- .... ....|--- .... ....|--- .... ....
....|..|--- .... ....|--- .... ....|--- .... ....
....|..|--- .... ....|--- .... ....|--- .... ....
....|..|F#5 2F.F ....|--- .... ....|--- .... ....
....|..|--- .... ....|--- .... ....|--- .... ....
....|..|--- .... ....|--- .... ....|--- .... ....
....|..|--- .... ....|--- .... ....|--- .... ....
....|..|A#5 2F.F ....|--- .... ....|--- .... ....
....|..|--- .... ....|--- .... ....|--- .... ....
....|..|--- .... ....|--- .... ....|--- .... ....
....|..|--- .... ....|--- .... ....|--- .... ....

[Pattern46]
....|..|D#5 2F.F ....|--- .... ....|--- .... ....
....|..|--- .... ....|--- .... ....|--- .... ....
....|..|--- .... ....|--- .... ....|--- .... ....
....|..|--- .... ....|--- .... ....|--- .... ....
....|..|A#5 2F.F ....|--- .... ....|--- .... ....
....|..|--- .... ....|--- .... ....|--- .... ....
....|..|--- .... ....|--- .... ....|--- .... ....
....|..|--- .... ....|--- .... ....|--- .... ....
....|..|F-6 2F.F ....|--- .... ....|--- .... ....
....|..|--- .... ....|--- .... ....|--- .... ....
....|..|--- .... ....|--- .... ....|--- .... ....
....|..|--- .... ....|--- .... ....|--- .... ....
....|..|A#5 2F.F ....|--- .... ....|--- .... ....
....|..|--- .... ....|--- .... ....|--- .... ....
....|..|--- .... ....|--- .... ....|--- .... ....
....|..|--- .... ....|--- .... ....|--- .... ....
....|..|F#6 2F.F ....|--- .... ....|--- .... ....
....|..|--- .... ....|--- .... ....|--- .... ....
....|..|--- .... ....|--- .... ....|--- .... ....
....|..|--- .... ....|--- .... ....|--- .... ....
....|..|F-6 2F.F ....|--- .... ....|--- .... ....
....|..|--- .... ....|--- .... ....|--- .... ....
....|..|--- .... ....|--- .... ....|--- .... ....
....|..|--- .... ....|--- .... ....|--- .... ....
....|..|A#5 2F.F ....|--- .... ....|--- .... ....
....|..|--- .... ....|--- .... ....|--- .... ....
....|..|--- .... ....|--- .... ....|--- .... ....
....|..|--- .... ....|--- .... ....|--- .... ....
....|..|F-6 2F.F ....|--- .... ....|--- .... ....
....|..|--- .... ....|--- .... ....|--- .... ....
....|..|--- .... ....|--- .... ....|--- .... ....
....|..|--- .... ....|--- .... ....|--- .... ....
....|..|B-4 2F.F ....|--- .... ....|--- .... ....
....|..|--- .... ....|--- .... ....|--- .... ....
....|..|--- .... ....|--- .... ....|--- .... ....
....|..|--- .... ....|--- .... ....|--- .... ....
....|..|F#5 2F.F ....|--- .... ....|--- .... ....
....|..|--- .... ....|--- .... ....|--- .... ....
....|..|--- .... ....|--- .... ....|--- .... ....
....|..|--- .... ....|--- .... ....|--- .... ....
....|..|C#6 2F.F ....|--- .... ....|--- .... ....
....|..|--- .... ....|--- .... ....|--- .... ....
....|..|--- .... ....|--- .... ....|--- .... ....
....|..|--- .... ....|--- .... ....|--- .... ....
....|..|F#5 2F.F ....|--- .... ....|--- .... ....
....|..|--- .... ....|--- .... ....|--- .... ....
....|..|--- .... ....|--- .... ....|--- .... ....
....|..|--- .... ....|--- .... ....|--- .... ....
....|..|C#6 2F.F ....|--- .... ....|--- .... ....
....|..|--- .... ....|--- .... ....|--- .... ....
....|..|--- .... ....|--- .... ....|--- .... ....
....|..|--- .... ....|--- .... ....|--- .... ....
....|..|F#5 2F.F ....|--- .... ....|--- .... ....
....|..|--- .... ....|--- .... ....|--- .... ....
....|..|--- .... ....|--- .... ....|--- .... ....
....|..|--- .... ....|--- .... ....|--- .... ....
....|..|D#6 2F.F ....|--- .... ....|--- .... ....
....|..|--- .... ....|--- .... ....|--- .... ....
....|..|--- .... ....|--- .... ....|--- .... ....
....|..|--- .... ....|--- .... ....|--- .... ....
....|..|C#6 2F.F ....|--- .... ....|--- .... ....
....|..|--- .... ....|--- .... ....|--- .... ....
....|..|--- .... ....|--- .... ....|--- .... ....
....|..|--- .... ....|--- .... ....|--- .... ....
....|..|F#4 2F.F ....|--- .... ....|--- .... ....
....|..|--- .... ....|--- .... ....|--- .... ....
....|..|--- .... ....|--- .... ....|--- .... ....
....|..|--- .... ....|--- .... ....|--- .... ....
....|..|F#5 2F.F ....|--- .... ....|--- .... ....
....|..|--- .... ....|--- .... ....|--- .... ....
....|..|--- .... ....|--- .... ....|--- .... ....
....|..|--- .... ....|--- .... ....|--- .... ....
....|..|A#5 2F.F ....|--- .... ....|--- .... ....
....|..|--- .... ....|--- .... ....|--- .... ....
....|..|--- .... ....|--- .... ....|--- .... ....
....|..|--- .... ....|--- .... ....|--- .... ....
....|..|F#5 2F.F ....|--- .... ....|--- .... ....
....|..|--- .... ....|--- .... ....|--- .... ....
....|..|--- .... ....|--- .... ....|--- .... ....
....|..|--- .... ....|--- .... ....|--- .... ....
....|..|B-5 2F.F ....|--- .... ....|--- .... ....
....|..|--- .... ....|--- .... ....|--- .... ....
....|..|--- .... ....|--- .... ....|--- .... ....
....|..|--- .... ....|--- .... ....|--- .... ....
....|..|A#5 2F.F ....|--- .... ....|--- .... ....
....|..|--- .... ....|--- .... ....|--- .... ....
....|..|--- .... ....|--- .... ....|--- .... ....
....|..|--- .... ....|--- .... ....|--- .... ....
....|..|F#5 2F.F ....|--- .... ....|--- .... ....
....|..|--- .... ....|--- .... ....|--- .... ....
....|..|--- .... ....|--- .... ....|--- .... ....
....|..|--- .... ....|--- .... ....|--- .... ....
....|..|A#5 2F.F ....|--- .... ....|--- .... ....
....|..|--- .... ....|--- .... ....|--- .... ....
....|..|--- .... ....|--- .... ....|--- .... ....
....|..|--- .... ....|--- .... ....|--- .... ....
....|..|E-4 2F.F ....|--- .... ....|--- .... ....
....|..|--- .... ....|--- .... ....|--- .... ....
....|..|--- .... ....|--- .... ....|--- .... ....
....|..|--- .... ....|--- .... ....|--- .... ....
....|..|F#5 2F.F ....|--- .... ....|--- .... ....
....|..|--- .... ....|--- .... ....|--- .... ....
....|..|--- .... ....|--- .... ....|--- .... ....
....|..|--- .... ....|--- .... ....|--- .... ....
....|..|A#5 2F.F ....|--- .... ....|--- .... ....
....|..|--- .... ....|--- .... ....|--- .... ....
....|..|--- .... ....|--- .... ....|--- .... ....
....|..|--- .... ....|--- .... ....|--- .... ....
....|..|F#5 2F.F ....|--- .... ....|--- .... ....
....|..|--- .... ....|--- .... ....|--- .... ....
....|..|--- .... ....|--- .... ....|--- .... ....
....|..|--- .... ....|--- .... ....|--- .... ....
....|..|B-5 2F.F ....|--- .... ....|--- .... ....
....|..|--- .... ....|--- .... ....|--- .... ....
....|..|--- .... ....|--- .... ....|--- .... ....
....|..|--- .... ....|--- .... ....|--- .... ....
....|..|A#5 2F.F ....|--- .... ....|--- .... ....
....|..|--- .... ....|--- .... ....|--- .... ....
....|..|--- .... ....|--- .... ....|--- .... ....
....|..|--- .... ....|--- .... ....|--- .... ....
....|..|F#5 2F.F ....|--- .... ....|--- .... ....
....|..|--- .... ....|--- .... ....|--- .... ....
....|..|--- .... ....|--- .... ....|--- .... ....
....|..|--- .... ....|--- .... ....|--- .... ....
....|..|A#5 2F.F ....|--- .... ....|--- .... ....
....|..|--- .... ....|--- .... ....|--- .... ....
....|..|--- .... ....|--- .... ....|--- .... ....
....|..|--- .... ....|--- .... ....|--- .... ....

[Pattern47]
....|..|D#5 2F.F ....|--- .... ....|--- .... ....
....|..|--- .... ....|--- .... ....|--- .... ....
....|..|--- .... ....|--- .... ....|--- .... ....
....|..|--- .... ....|--- .... ....|--- .... ....
....|..|A#5 2F.F ....|--- .... ....|--- .... ....
....|..|--- .... ....|--- .... ....|--- .... ....
....|..|--- .... ....|--- .... ....|--- .... ....
....|..|--- .... ....|--- .... ....|--- .... ....
....|..|F-6 2F.F ....|--- .... ....|--- .... ....
....|..|--- .... ....|--- .... ....|--- .... ....
....|..|--- .... ....|--- .... ....|--- .... ....
....|..|--- .... ....|--- .... ....|--- .... ....
....|..|A#5 2F.F ....|--- .... ....|--- .... ....
....|..|--- .... ....|--- .... ....|--- .... ....
....|..|--- .... ....|--- .... ....|--- .... ....
....|..|--- .... ....|--- .... ....|--- .... ....
....|..|F#6 2F.F ....|--- .... ....|--- .... ....
....|..|--- .... ....|--- .... ....|--- .... ....
....|..|--- .... ....|--- .... ....|--- .... ....
....|..|--- .... ....|--- .... ....|--- .... ....
....|..|F-6 2F.F ....|--- .... ....|--- .... ....
....|..|--- .... ....|--- .... ....|--- .... ....
....|..|--- .... ....|--- .... ....|--- .... ....
....|..|--- .... ....|--- .... ....|--- .... ....
....|..|A#5 2F.F ....|--- .... ....|--- .... ....
....|..|--- .... ....|--- .... ....|--- .... ....
....|..|--- .... ....|--- .... ....|--- .... ....
....|..|--- .... ....|--- .... ....|--- .... ....
....|..|F-6 2F.F ....|--- .... ....|--- .... ....
....|..|--- .... ....|--- .... ....|--- .... ....
....|..|--- .... ....|--- .... ....|--- .... ....
....|..|--- .... ....|--- .... ....|--- .... ....
....|..|B-4 2F.F ....|--- .... ....|--- .... ....
....|..|--- .... ....|--- .... ....|--- .... ....
....|..|--- .... ....|--- .... ....|--- .... ....
....|..|--- .... ....|--- .... ....|--- .... ....
....|..|F#5 2F.F ....|--- .... ....|--- .... ....
....|..|--- .... ....|--- .... ....|--- .... ....
....|..|--- .... ....|--- .... ....|--- .... ....
....|..|--- .... ....|--- .... ....|--- .... ....
....|..|C#6 2F.F ....|--- .... ....|--- .... ....
....|..|--- .... ....|--- .... ....|--- .... ....
....|..|--- .... ....|--- .... ....|--- .... ....
....|..|--- .... ....|--- .... ....|--- .... ....
....|..|F#5 2F.F ....|--- .... ....|--- .... ....
....|..|--- .... ....|--- .... ....|--- .... ....
....|..|--- .... ....|--- .... ....|--- .... ....
....|..|--- .... ....|--- .... ....|--- .... ....
....|..|D#6 2F.F ....|--- .... ....|--- .... ....
....|..|--- .... ....|--- .... ....|--- .... ....
....|..|--- .... ....|--- .... ....|--- .... ....
....|..|--- .... ....|--- .... ....|--- .... ....
....|..|C#6 2F.F ....|--- .... ....|--- .... ....
....|..|--- .... ....|--- .... ....|--- .... ....
....|..|--- .... ....|--- .... ....|--- .... ....
....|..|--- .... ....|--- .... ....|--- .... ....
....|..|F#5 2F.F ....|--- .... ....|--- .... ....
....|..|--- .... ....|--- .... ....|--- .... ....
....|..|--- .... ....|--- .... ....|--- .... ....
....|..|--- .... ....|--- .... ....|--- .... ....
....|..|D#6 2F.F ....|--- .... ....|--- .... ....
....|..|--- .... ....|--- .... ....|--- .... ....
....|..|--- .... ....|--- .... ....|--- .... ....
....|..|--- .... ....|--- .... ....|--- .... ....
....|..|C#6 2F.7 ....|--- .... ....|--- .... ....
....|..|--- .... ....|--- .... ....|--- .... ....
....|..|--- .... ....|--- .... ....|--- .... ....
....|..|--- .... ....|--- .... ....|--- .... ....
....|..|F#5 2F.7 ....|--- .... ....|--- .... ....
....|..|--- .... ....|--- .... ....|--- .... ....
....|..|--- .... ....|--- .... ....|--- .... ....
....|..|--- .... ....|--- .... ....|--- .... ....
....|..|D#6 2F.7 ....|--- .... ....|--- .... ....
....|..|--- .... ....|--- .... ....|--- .... ....
....|..|--- .... ....|--- .... ....|--- .... ....
....|..|--- .... ....|--- .... ....|--- .... ....
....|..|C#6 2F.7 ....|--- .... ....|--- .... ....
....|..|--- .... ....|--- .... ....|--- .... ....
....|..|--- .... ....|--- .... ....|--- .... ....
....|..|--- .... ....|--- .... ....|--- .... ....
....|..|F#5 2F.7 ....|--- .... ....|--- .... ....
....|..|--- .... ....|--- .... ....|--- .... ....
....|..|--- .... ....|--- .... ....|--- .... ....
....|..|--- .... ....|--- .... ....|--- .... ....
....|..|D#6 2F.7 ....|--- .... ....|--- .... ....
....|..|--- .... ....|--- .... ....|--- .... ....
....|..|--- .... ....|--- .... ....|--- .... ....
....|..|--- .... ....|--- .... ....|--- .... ....
....|..|--- .... ....|--- .... ....|--- .... ....
....|..|--- .... ....|--- .... ....|--- .... ....
....|..|--- .... ....|--- .... ....|--- .... ....
....|..|--- .... ....|--- .... ....|--- .... ....
....|..|--- .... ....|--- .... ....|--- .... ....
....|..|--- .... ....|--- .... ....|--- .... ....
....|..|--- .... ....|--- .... ....|--- .... ....
....|..|--- .... ....|--- .... ....|--- .... ....
....|..|--- .... ....|--- .... ....|--- .... ....
....|..|--- .... ....|--- .... ....|--- .... ....
....|..|--- .... ....|--- .... ....|--- .... ....
....|..|--- .... ....|--- .... ....|--- .... ....
....|..|--- .... ....|--- .... ....|--- .... ....
....|..|--- .... ....|--- .... ....|--- .... ....
....|..|--- .... ....|--- .... ....|--- .... ....
....|..|--- .... ....|--- .... ....|--- .... ....
....|..|--- .... ....|--- .... ....|--- .... ....
....|..|--- .... ....|--- .... ....|--- .... ....
....|..|--- .... ....|--- .... ....|--- .... ....
....|..|--- .... ....|--- .... ....|--- .... ....
....|..|--- .... ....|--- .... ....|--- .... ....
....|..|--- .... ....|--- .... ....|--- .... ....
....|..|--- .... ....|--- .... ....|--- .... ....
....|..|--- .... ....|--- .... ....|--- .... ....
....|..|--- .... ....|--- .... ....|--- .... ....
....|..|--- .... ....|--- .... ....|--- .... ....
....|..|--- .... ....|--- .... ....|--- .... ....
....|..|--- .... ....|--- .... ....|--- .... ....
....|..|--- .... ....|--- .... ....|--- .... ....
....|..|--- .... ....|--- .... ....|--- .... ....
....|..|--- .... ....|--- .... ....|--- .... ....
....|..|--- .... ....|--- .... ....|--- .... ....
....|..|--- .... ....|--- .... ....|--- .... ....
....|..|--- .... ....|--- .... ....|--- .... ....
....|..|--- .... ....|--- .... ....|--- .... ....
....|..|--- .... ....|--- .... ....|--- .... ....
....|..|--- .... ....|--- .... ....|--- .... ....
....|..|--- .... ....|--- .... ....|--- .... ....
....|..|--- .... ....|--- .... ....|--- .... ....
....|..|--- .... ....|--- .... ....|--- .... ....

[Pattern49]
....|..|--- .... ....|--- .... ....|--- .... ....
....|..|--- .... ....|--- .... ....|--- .... ....
....|..|--- .... ....|--- .... ....|--- .... ....
....|..|--- .... ....|--- .... ....|--- .... ....
....|..|--- .... ....|--- .... ....|--- .... ....
....|..|--- .... ....|--- .... ....|--- .... ....
....|..|--- .... ....|--- .... ....|--- .... ....
....|..|--- .... ....|--- .... ....|--- .... ....
....|..|--- .... ....|--- .... ....|--- .... ....
....|..|--- .... ....|--- .... ....|--- .... ....
....|..|--- .... ....|--- .... ....|--- .... ....
....|..|--- .... ....|--- .... ....|--- .... ....
....|..|--- .... ....|--- .... ....|--- .... ....
....|..|--- .... ....|--- .... ....|--- .... ....
....|..|--- .... ....|--- .... ....|--- .... ....
....|..|--- .... ....|--- .... ....|--- .... ....
....|..|--- .... ....|--- .... ....|--- .... ....
....|..|--- .... ....|--- .... ....|--- .... ....
....|..|--- .... ....|--- .... ....|--- .... ....
....|..|--- .... ....|--- .... ....|--- .... ....
....|..|--- .... ....|--- .... ....|--- .... ....
....|..|--- .... ....|--- .... ....|--- .... ....
....|..|--- .... ....|--- .... ....|--- .... ....
....|..|--- .... ....|--- .... ....|--- .... ....
....|..|--- .... ....|--- .... ....|--- .... ....
....|..|--- .... ....|--- .... ....|--- .... ....
....|..|--- .... ....|--- .... ....|--- .... ....
....|..|--- .... ....|--- .... ....|--- .... ....
....|..|--- .... ....|--- .... ....|--- .... ....
....|..|--- .... ....|--- .... ....|--- .... ....
....|..|--- .... ....|--- .... ....|--- .... ....
....|..|--- .... ....|--- .... ....|--- .... ....
....|..|--- .... ....|--- .... ....|--- .... ....
....|..|--- .... ....|--- .... ....|--- .... ....
....|..|--- .... ....|--- .... ....|--- .... ....
....|..|--- .... ....|--- .... ....|--- .... ....
....|..|--- .... ....|--- .... ....|--- .... ....
....|..|--- .... ....|--- .... ....|--- .... ....
....|..|--- .... ....|--- .... ....|--- .... ....
....|..|--- .... ....|--- .... ....|--- .... ....
....|..|--- .... ....|--- .... ....|--- .... ....
....|..|--- .... ....|--- .... ....|--- .... ....
....|..|--- .... ....|--- .... ....|--- .... ....
....|..|--- .... ....|--- .... ....|--- .... ....
....|..|--- .... ....|--- .... ....|--- .... ....
....|..|--- .... ....|--- .... ....|--- .... ....
....|..|--- .... ....|--- .... ....|--- .... ....
....|..|--- .... ....|--- .... ....|--- .... ....
....|..|--- .... ....|--- .... ....|--- .... ....
....|..|--- .... ....|--- .... ....|--- .... ....
....|..|--- .... ....|--- .... ....|--- .... ....
....|..|--- .... ....|--- .... ....|--- .... ....
....|..|--- .... ....|--- .... ....|--- .... ....
....|..|--- .... ....|--- .... ....|--- .... ....
....|..|--- .... ....|--- .... ....|--- .... ....
....|..|--- .... ....|--- .... ....|--- .... ....
....|..|--- .... ....|--- .... ....|--- .... ....
....|..|--- .... ....|--- .... ....|--- .... ....
....|..|--- .... ....|--- .... ....|--- .... ....
....|..|--- .... ....|--- .... ....|--- .... ....
....|..|--- .... ....|--- .... ....|--- .... ....
....|..|--- .... ....|--- .... ....|--- .... ....
....|..|--- .... ....|--- .... ....|--- .... ....
....|..|--- .... ....|--- .... ....|--- .... ....
....|..|F#4 2F.F ....|--- .... ....|--- .... ....
....|..|--- .... ....|--- .... ....|--- .... ....
....|..|F#2 2F.F ....|--- .... ....|--- .... ....
....|..|--- .... ....|--- .... ....|--- .... ....
....|..|F#3 2F.F ....|--- .... ....|--- .... ....
....|..|--- .... ....|--- .... ....|--- .... ....
....|..|C#4 2F.F ....|--- .... ....|--- .... ....
....|..|--- .... ....|--- .... ....|--- .... ....
....|..|F#3 2F.F ....|--- .... ....|--- .... ....
....|..|--- .... ....|--- .... ....|--- .... ....
....|..|G#4 2F.F ....|--- .... ....|--- .... ....
....|..|--- .... ....|--- .... ....|--- .... ....
....|..|A#4 2F.F ....|--- .... ....|--- .... ....
....|..|--- .... ....|--- .... ....|--- .... ....
....|..|F#2 2F.F ....|--- .... ....|--- .... ....
....|..|F#2 2F.F ....|--- .... ....|--- .... ....
....|..|F#2 2F.F ....|--- .... ....|--- .... ....
....|..|--- .... ....|--- .... ....|--- .... ....
....|..|F#3 2F.F ....|--- .... ....|--- .... ....
....|..|--- .... ....|--- .... ....|--- .... ....
....|..|C#4 2F.F ....|--- .... ....|--- .... ....
....|..|--- .... ....|--- .... ....|--- .... ....
....|..|F#4 2F.F ....|--- .... ....|--- .... ....
....|..|--- .... ....|--- .... ....|--- .... ....
....|..|A#3 2F.F ....|--- .... ....|--- .... ....
....|..|--- .... ....|--- .... ....|--- .... ....
....|..|F#2 2F.F ....|--- .... ....|--- .... ....
....|..|F#2 2F.A ....|--- .... ....|--- .... ....
....|..|G#3 2F.F ....|--- .... ....|--- .... ....
....|..|--- .... ....|--- .... ....|--- .... ....
....|..|F#3 2F.F ....|--- .... ....|--- .... ....
....|..|--- .... ....|--- .... ....|--- .... ....
....|..|F#3 2F.7 ....|--- .... ....|--- .... ....
....|..|--- .... ....|--- .... ....|--- .... ....
....|..|E-3 2F.F ....|--- .... ....|--- .... ....
....|..|--- .... ....|--- .... ....|--- .... ....
....|..|E-2 2F.F ....|--- .... ....|--- .... ....
....|..|--- .... ....|--- .... ....|--- .... ....
....|..|E-2 2F.F ....|--- .... ....|--- .... ....
....|..|F#2 2F.7 ....|--- .... ....|--- .... ....
....|..|F#3 2F.F ....|--- .... ....|--- .... ....
....|..|--- .... ....|--- .... ....|--- .... ....
....|..|E-2 2F.F ....|--- .... ....|--- .... ....
....|..|--- .... ....|--- .... ....|--- .... ....
....|..|E-2 2F.F ....|--- .... ....|--- .... ....
....|..|--- .... ....|--- .... ....|--- .... ....
....|..|A#3 2F.F ....|--- .... ....|--- .... ....
....|..|--- .... ....|--- .... ....|--- .... ....
....|..|A#3 2F.7 ....|--- .... ....|--- .... ....
....|..|--- .... ....|--- .... ....|--- .... ....
....|..|B-3 2F.F ....|--- .... ....|--- .... ....
....|..|--- .... ....|--- .... ....|--- .... ....
....|..|E-2 2F.F ....|--- .... ....|--- .... ....
....|..|--- .... ....|--- .... ....|--- .... ....
....|..|A#4 2F.F ....|--- .... ....|--- .... ....
....|..|--- .... ....|--- .... ....|--- .... ....
....|..|B-4 2F.F ....|--- .... ....|--- .... ....
....|..|--- .... ....|--- .... ....|--- .... ....
....|..|E-2 2F.F ....|--- .... ....|--- .... ....
....|..|--- .... ....|--- .... ....|--- .... ....
....|..|B-4 2F.F ....|--- .... ....|--- .... ....
....|..|--- .... ....|--- .... ....|--- .... ....
....|..|A#4 2F.F ....|--- .... ....|--- .... ....
....|..|--- .... ....|--- .... ....|--- .... ....

[Pattern50]
....|..|F#3 2F.7 ....|--- .... ....|--- .... ....
....|..|--- .... ....|--- .... ....|--- .... ....
....|..|G#4 2F.F ....|--- .... ....|--- .... ....
....|..|--- .... ....|--- .... ....|--- .... ....
....|..|F#4 2F.F ....|--- .... ....|--- .... ....
....|..|--- .... ....|--- .... ....|--- .... ....
....|..|D#2 2F.F ....|--- .... ....|--- .... ....
....|..|D#2 2F.F ....|--- .... ....|--- .... ....
....|..|D#2 2F.F ....|--- .... ....|--- .... ....
....|..|--- .... ....|--- .... ....|--- .... ....
....|..|D#4 2F.F ....|--- .... ....|--- .... ....
....|..|--- .... ....|--- .... ....|--- .... ....
....|..|D#2 2F.F ....|--- .... ....|--- .... ....
....|..|--- .... ....|--- .... ....|--- .... ....
....|..|A#3 2F.F ....|--- .... ....|--- .... ....
....|..|--- .... ....|--- .... ....|--- .... ....
....|..|D#2 2F.F ....|--- .... ....|--- .... ....
....|..|--- .... ....|--- .... ....|--- .... ....
....|..|F#3 2F.F ....|--- .... ....|--- .... ....
....|..|F#3 2F.F ....|--- .... ....|--- .... ....
....|..|F#3 2F.F ....|--- .... ....|--- .... ....
....|..|--- .... ....|--- .... ....|--- .... ....
....|..|F#3 2F.F ....|--- .... ....|--- .... ....
....|..|--- .... ....|--- .... ....|--- .... ....
....|..|F-4 2F.F ....|--- .... ....|--- .... ....
....|..|--- .... ....|--- .... ....|--- .... ....
....|..|D#4 2F.F ....|--- .... ....|--- .... ....
....|..|--- .... ....|--- .... ....|--- .... ....
....|..|A#3 2F.F ....|--- .... ....|--- .... ....
....|..|--- .... ....|--- .... ....|--- .... ....
....|..|F#3 2F.F ....|--- .... ....|--- .... ....
....|..|D#2 2F.7 ....|--- .... ....|--- .... ....
....|..|B-1 2F.F ....|--- .... ....|--- .... ....
....|..|--- .... ....|--- .... ....|--- .... ....
....|..|B-2 2F.F ....|--- .... ....|--- .... ....
....|..|--- .... ....|--- .... ....|--- .... ....
....|..|B-3 2F.F ....|--- .... ....|--- .... ....
....|..|--- .... ....|--- .... ....|--- .... ....
....|..|B-1 2F.F ....|--- .... ....|--- .... ....
....|..|--- .... ....|--- .... ....|--- .... ....
....|..|C#4 2F.F ....|--- .... ....|--- .... ....
....|..|--- .... ....|--- .... ....|--- .... ....
....|..|D#4 2F.F ....|--- .... ....|--- .... ....
....|..|F#3 2F.7 ....|--- .... ....|--- .... ....
....|..|B-1 2F.F ....|--- .... ....|--- .... ....
....|..|--- .... ....|--- .... ....|--- .... ....
....|..|F#4 2F.F ....|--- .... ....|--- .... ....
....|..|--- .... ....|--- .... ....|--- .... ....
....|..|B-1 2F.F ....|--- .... ....|--- .... ....
....|..|B-1 2F.F ....|--- .... ....|--- .... ....
....|..|B-1 2F.F ....|--- .... ....|--- .... ....
....|..|--- .... ....|--- .... ....|--- .... ....
....|..|A#4 2F.F ....|--- .... ....|--- .... ....
....|..|--- .... ....|--- .... ....|--- .... ....
....|..|B-2 2F.F ....|--- .... ....|--- .... ....
....|..|--- .... ....|--- .... ....|--- .... ....
....|..|F#4 2F.F ....|--- .... ....|--- .... ....
....|..|--- .... ....|--- .... ....|--- .... ....
....|..|B-1 2F.F ....|--- .... ....|--- .... ....
....|..|--- .... ....|--- .... ....|--- .... ....
....|..|C#4 2F.F ....|--- .... ....|--- .... ....
....|..|B-1 2F.A ....|--- .... ....|--- .... ....
....|..|F#4 2F.F ....|--- .... ....|--- .... ....
....|..|--- .... ....|--- .... ....|--- .... ....
....|..|F#4 2F.F ....|F#4 2F.F ....|--- .... ....
....|..|--- .... ....|--- .... ....|--- .... ....
....|..|F#2 2F.F ....|F#2 2F.F ....|--- .... ....
....|..|--- .... ....|--- .... ....|--- .... ....
....|..|F#3 2F.F ....|F#3 2F.F ....|--- .... ....
....|..|--- .... ....|--- .... ....|--- .... ....
....|..|C#4 2F.F ....|C#4 2F.F ....|--- .... ....
....|..|--- .... ....|--- .... ....|--- .... ....
....|..|F#3 2F.F ....|F#3 2F.F ....|--- .... ....
....|..|B-1 2F.7 ....|--- .... ....|--- .... ....
....|..|G#4 2F.F ....|G#4 2F.F ....|--- .... ....
....|..|--- .... ....|--- .... ....|--- .... ....
....|..|A#4 2F.F ....|A#4 2F.F ....|--- .... ....
....|..|--- .... ....|--- .... ....|--- .... ....
....|..|F#2 2F.F ....|F#2 2F.F ....|--- .... ....
....|..|F#2 2F.F ....|F#2 2F.F ....|--- .... ....
....|..|F#2 2F.F ....|F#2 2F.F ....|--- .... ....
....|..|--- .... ....|--- .... ....|--- .... ....
....|..|F#3 2F.F ....|F#3 2F.F ....|--- .... ....
....|..|--- .... ....|--- .... ....|--- .... ....
....|..|C#4 2F.F ....|C#4 2F.F ....|--- .... ....
....|..|--- .... ....|--- .... ....|--- .... ....
....|..|F#4 2F.F ....|F#4 2F.F ....|--- .... ....
....|..|--- .... ....|--- .... ....|--- .... ....
....|..|A#3 2F.F ....|A#3 2F.F ....|--- .... ....
....|..|--- .... ....|--- .... ....|--- .... ....
....|..|F#2 2F.F ....|F#2 2F.F ....|--- .... ....
....|..|F#2 2F.A ....|F#2 2F.A ....|--- .... ....
....|..|G#3 2F.F ....|G#3 2F.F ....|--- .... ....
....|..|--- .... ....|--- .... ....|--- .... ....
....|..|F#3 2F.F ....|F#3 2F.F ....|--- .... ....
....|..|--- .... ....|--- .... ....|--- .... ....
....|..|F#3 2F.7 ....|F#3 2F.7 ....|--- .... ....
....|..|--- .... ....|--- .... ....|--- .... ....
....|..|E-3 2F.F ....|E-3 2F.F ....|--- .... ....
....|..|--- .... ....|--- .... ....|--- .... ....
....|..|E-2 2F.F ....|E-2 2F.F ....|--- .... ....
....|..|--- .... ....|--- .... ....|--- .... ....
....|..|E-2 2F.F ....|E-2 2F.F ....|--- .... ....
....|..|F#2 2F.7 ....|F#2 2F.7 ....|--- .... ....
....|..|F#3 2F.F ....|F#3 2F.F ....|--- .... ....
....|..|--- .... ....|--- .... ....|--- .... ....
....|..|E-2 2F.F ....|E-2 2F.F ....|--- .... ....
....|..|--- .... ....|--- .... ....|--- .... ....
....|..|E-2 2F.F ....|E-2 2F.F ....|--- .... ....
....|..|--- .... ....|--- .... ....|--- .... ....
....|..|A#3 2F.F ....|A#3 2F.F ....|--- .... ....
....|..|--- .... ....|--- .... ....|--- .... ....
....|..|A#3 2F.7 ....|A#3 2F.7 ....|--- .... ....
....|..|--- .... ....|--- .... ....|--- .... ....
....|..|B-3 2F.F ....|B-3 2F.F ....|--- .... ....
....|..|--- .... ....|--- .... ....|--- .... ....
....|..|E-2 2F.F ....|E-2 2F.F ....|--- .... ....
....|..|--- .... ....|--- .... ....|--- .... ....
....|..|A#4 2F.F ....|A#4 2F.F ....|--- .... ....
....|..|--- .... ....|--- .... ....|--- .... ....
....|..|B-4 2F.F ....|B-4 2F.F ....|--- .... ....
....|..|--- .... ....|--- .... ....|--- .... ....
....|..|E-2 2F.F ....|E-2 2F.F ....|--- .... ....
....|..|--- .... ....|--- .... ....|--- .... ....
....|..|B-4 2F.F ....|B-4 2F.F ....|--- .... ....
....|..|--- .... ....|--- .... ....|--- .... ....
....|..|A#4 2F.F ....|A#4 2F.F ....|--- .... ....
....|..|--- .... ....|--- .... ....|--- .... ....

[Pattern51]
....|..|F#3 2F.7 ....|F#3 2F.7 ....|--- .... ....
....|..|--- .... ....|--- .... ....|--- .... ....
....|..|G#4 2F.F ....|G#4 2F.F ....|--- .... ....
....|..|--- .... ....|--- .... ....|--- .... ....
....|..|F#4 2F.F ....|F#4 2F.F ....|--- .... ....
....|..|--- .... ....|--- .... ....|--- .... ....
....|..|D#2 2F.F ....|D#2 2F.F ....|--- .... ....
....|..|D#2 2F.F ....|D#2 2F.F ....|--- .... ....
....|..|D#2 2F.F ....|D#2 2F.F ....|--- .... ....
....|..|--- .... ....|--- .... ....|--- .... ....
....|..|D#4 2F.F ....|D#4 2F.F ....|--- .... ....
....|..|--- .... ....|--- .... ....|--- .... ....
....|..|D#2 2F.F ....|D#2 2F.F ....|--- .... ....
....|..|--- .... ....|--- .... ....|--- .... ....
....|..|A#3 2F.F ....|A#3 2F.F ....|--- .... ....
....|..|--- .... ....|--- .... ....|--- .... ....
....|..|D#2 2F.F ....|D#2 2F.F ....|--- .... ....
....|..|--- .... ....|--- .... ....|--- .... ....
....|..|F#3 2F.F ....|F#3 2F.F ....|--- .... ....
....|..|F#3 2F.F ....|F#3 2F.F ....|--- .... ....
....|..|F#3 2F.F ....|F#3 2F.F ....|--- .... ....
....|..|--- .... ....|--- .... ....|--- .... ....
....|..|F#5 2F.F ....|F#4 2F.F ....|--- .... ....
....|..|--- .... ....|--- .... ....|--- .... ....
....|..|F-5 2F.F ....|F-4 2F.F ....|--- .... ....
....|..|--- .... ....|--- .... ....|--- .... ....
....|..|D#5 2F.F ....|D#4 2F.F ....|--- .... ....
....|..|--- .... ....|--- .... ....|--- .... ....
....|..|A#4 2F.F ....|A#3 2F.F ....|--- .... ....
....|..|--- .... ....|--- .... ....|--- .... ....
....|..|F#4 2F.F ....|F#3 2F.F ....|--- .... ....
....|..|D#2 2F.7 ....|D#2 2F.7 ....|--- .... ....
....|..|B-1 2F.F ....|B-1 2F.F ....|--- .... ....
....|..|--- .... ....|--- .... ....|--- .... ....
....|..|B-2 2F.F ....|B-2 2F.F ....|--- .... ....
....|..|--- .... ....|--- .... ....|--- .... ....
....|..|B-3 2F.F ....|B-3 2F.F ....|--- .... ....
....|..|--- .... ....|--- .... ....|--- .... ....
....|..|B-1 2F.F ....|B-1 2F.F ....|--- .... ....
....|..|--- .... ....|--- .... ....|--- .... ....
....|..|C#4 2F.F ....|C#4 2F.F ....|--- .... ....
....|..|--- .... ....|--- .... ....|--- .... ....
....|..|D#4 2F.F ....|D#4 2F.F ....|--- .... ....
....|..|F#3 2F.7 ....|F#3 2F.7 ....|--- .... ....
....|..|B-1 2F.F ....|B-1 2F.F ....|--- .... ....
....|..|--- .... ....|--- .... ....|--- .... ....
....|..|F#4 2F.F ....|F#4 2F.F ....|--- .... ....
....|..|--- .... ....|--- .... ....|--- .... ....
....|..|B-1 2F.F ....|B-1 2F.F ....|--- .... ....
....|..|B-1 2F.F ....|B-1 2F.F ....|--- .... ....
....|..|B-1 2F.F ....|B-1 2F.F ....|--- .... ....
....|..|--- .... ....|--- .... ....|--- .... ....
....|..|A#4 2F.F ....|A#4 2F.F ....|--- .... ....
....|..|--- .... ....|--- .... ....|--- .... ....
....|..|B-2 2F.F ....|B-2 2F.F ....|--- .... ....
....|..|--- .... ....|--- .... ....|--- .... ....
....|..|F#4 2F.F ....|F#4 2F.F ....|--- .... ....
....|..|--- .... ....|--- .... ....|--- .... ....
....|..|B-1 2F.F ....|B-1 2F.F ....|--- .... ....
....|..|--- .... ....|--- .... ....|--- .... ....
....|..|C#4 2F.F ....|C#4 2F.F ....|--- .... ....
....|..|B-1 2F.A ....|B-1 2F.A ....|--- .... ....
....|..|F#4 2F.F ....|F#4 2F.F ....|--- .... ....
....|..|--- .... ....|--- .... ....|--- .... ....
....|..|F#4 2F.F ....|F#4 2F.F ....|--- .... ....
....|..|--- .... ....|--- .... ....|--- .... ....
....|..|F#2 2F.F ....|F#2 2F.F ....|--- .... ....
....|..|--- .... ....|--- .... ....|--- .... ....
....|..|F#5 2F.F ....|F#3 2F.F ....|--- .... ....
....|..|--- .... ....|--- .... ....|--- .... ....
....|..|C#4 2F.F ....|C#4 2F.F ....|--- .... ....
....|..|--- .... ....|--- .... ....|--- .... ....
....|..|A#5 2F.F ....|F#3 2F.F ....|--- .... ....
....|..|B-1 2F.7 ....|B-1 2F.7 ....|--- .... ....
....|..|G#4 2F.F ....|G#4 2F.F ....|--- .... ....
....|..|--- .... ....|--- .... ....|--- .... ....
....|..|F#5 2F.F ....|A#4 2F.F ....|--- .... ....
....|..|--- .... ....|--- .... ....|--- .... ....
....|..|F#2 2F.F ....|F#2 2F.F ....|--- .... ....
....|..|F#2 2F.F ....|F#2 2F.F ....|--- .... ....
....|..|B-5 2F.F ....|F#2 2F.F ....|--- .... ....
....|..|--- .... ....|--- .... ....|--- .... ....
....|..|F#3 2F.F ....|F#3 2F.F ....|--- .... ....
....|..|--- .... ....|--- .... ....|--- .... ....
....|..|A#5 2F.F ....|C#4 2F.F ....|--- .... ....
....|..|--- .... ....|--- .... ....|--- .... ....
....|..|F#4 2F.F ....|F#4 2F.F ....|--- .... ....
....|..|--- .... ....|--- .... ....|--- .... ....
....|..|F#5 2F.F ....|A#3 2F.F ....|--- .... ....
....|..|--- .... ....|--- .... ....|--- .... ....
....|..|F#2 2F.F ....|F#2 2F.F ....|--- .... ....
....|..|F#2 2F.A ....|F#2 2F.A ....|--- .... ....
....|..|A#5 2F.F ....|G#3 2F.F ....|--- .... ....
....|..|--- .... ....|--- .... ....|--- .... ....
....|..|F#3 2F.F ....|F#3 2F.F ....|--- .... ....
....|..|--- .... ....|--- .... ....|--- .... ....
....|..|E-4 2F.F ....|F#3 2F.7 ....|--- .... ....
....|..|--- .... ....|--- .... ....|--- .... ....
....|..|E-3 2F.F ....|E-3 2F.F ....|--- .... ....
....|..|--- .... ....|--- .... ....|--- .... ....
....|..|F#5 2F.F ....|E-2 2F.F ....|--- .... ....
....|..|--- .... ....|--- .... ....|--- .... ....
....|..|E-2 2F.F ....|E-2 2F.F ....|--- .... ....
....|..|F#2 2F.7 ....|F#2 2F.7 ....|--- .... ....
....|..|A#5 2F.F ....|F#3 2F.F ....|--- .... ....
....|..|--- .... ....|--- .... ....|--- .... ....
....|..|E-2 2F.F ....|E-2 2F.F ....|--- .... ....
....|..|--- .... ....|--- .... ....|--- .... ....
....|..|F#5 2F.F ....|E-2 2F.F ....|--- .... ....
....|..|--- .... ....|--- .... ....|--- .... ....
....|..|A#3 2F.F ....|A#3 2F.F ....|--- .... ....
....|..|--- .... ....|--- .... ....|--- .... ....
....|..|B-5 2F.F ....|A#3 2F.7 ....|--- .... ....
....|..|--- .... ....|--- .... ....|--- .... ....
....|..|B-3 2F.F ....|B-3 2F.F ....|--- .... ....
....|..|--- .... ....|--- .... ....|--- .... ....
....|..|A#5 2F.F ....|E-2 2F.F ....|--- .... ....
....|..|--- .... ....|--- .... ....|--- .... ....
....|..|A#4 2F.F ....|A#4 2F.F ....|--- .... ....
....|..|--- .... ....|--- .... ....|--- .... ....
....|..|F#5 2F.F ....|B-4 2F.F ....|--- .... ....
....|..|--- .... ....|--- .... ....|--- .... ....
....|..|E-2 2F.F ....|E-2 2F.F ....|--- .... ....
....|..|--- .... ....|--- .... ....|--- .... ....
....|..|A#5 2F.F ....|C#5 2F.F ....|--- .... ....
....|..|--- .... ....|--- .... ....|--- .... ....
....|..|A#4 2F.F ....|A#4 2F.F ....|--- .... ....
....|..|--- .... ....|--- .... ....|--- .... ....

[Pattern52]
....|..|D#5 2F.F ....|F#3 2F.7 ....|--- .... ....
....|..|--- .... ....|--- .... ....|--- .... ....
....|..|G#4 2F.F ....|G#4 2F.F ....|--- .... ....
....|..|--- .... ....|--- .... ....|--- .... ....
....|..|A#5 2F.F ....|F#4 2F.F ....|--- .... ....
....|..|--- .... ....|--- .... ....|--- .... ....
....|..|D#2 2F.F ....|D#2 2F.F ....|--- .... ....
....|..|D#2 2F.F ....|D#2 2F.F ....|--- .... ....
....|..|F-6 2F.F ....|D#2 2F.F ....|--- .... ....
....|..|--- .... ....|--- .... ....|--- .... ....
....|..|D#4 2F.F ....|D#4 2F.F ....|--- .... ....
....|..|--- .... ....|--- .... ....|--- .... ....
....|..|A#5 2F.F ....|D#2 2F.F ....|--- .... ....
....|..|--- .... ....|--- .... ....|--- .... ....
....|..|A#3 2F.F ....|A#3 2F.F ....|--- .... ....
....|..|--- .... ....|--- .... ....|--- .... ....
....|..|F#6 2F.F ....|D#2 2F.F ....|--- .... ....
....|..|--- .... ....|--- .... ....|--- .... ....
....|..|F#3 2F.F ....|F#3 2F.F ....|--- .... ....
....|..|F#3 2F.F ....|F#3 2F.F ....|--- .... ....
....|..|F-6 2F.F ....|F#3 2F.F ....|--- .... ....
....|..|--- .... ....|--- .... ....|--- .... ....
....|..|F#5 2F.F ....|F#5 2F.F ....|--- .... ....
....|..|--- .... ....|--- .... ....|--- .... ....
....|..|A#5 2F.F ....|F-5 2F.F ....|--- .... ....
....|..|--- .... ....|--- .... ....|--- .... ....
....|..|D#5 2F.F ....|D#5 2F.F ....|--- .... ....
....|..|--- .... ....|--- .... ....|--- .... ....
....|..|F-6 2F.F ....|A#4 2F.F ....|--- .... ....
....|..|--- .... ....|--- .... ....|--- .... ....
....|..|F#4 2F.F ....|F#4 2F.F ....|--- .... ....
....|..|D#2 2F.7 ....|D#2 2F.7 ....|--- .... ....
....|..|B-4 2F.F ....|B-1 2F.F ....|--- .... ....
....|..|--- .... ....|--- .... ....|--- .... ....
....|..|B-2 2F.F ....|B-2 2F.F ....|--- .... ....
....|..|--- .... ....|--- .... ....|--- .... ....
....|..|F#5 2F.F ....|B-3 2F.F ....|--- .... ....
....|..|--- .... ....|--- .... ....|--- .... ....
....|..|B-1 2F.F ....|B-1 2F.F ....|--- .... ....
....|..|--- .... ....|--- .... ....|--- .... ....
....|..|C#6 2F.F ....|C#4 2F.F ....|--- .... ....
....|..|--- .... ....|--- .... ....|--- .... ....
....|..|D#4 2F.F ....|D#4 2F.F ....|--- .... ....
....|..|F#3 2F.7 ....|F#3 2F.7 ....|--- .... ....
....|..|F#5 2F.F ....|B-1 2F.F ....|--- .... ....
....|..|--- .... ....|--- .... ....|--- .... ....
....|..|F#4 2F.F ....|F#4 2F.F ....|--- .... ....
....|..|--- .... ....|--- .... ....|--- .... ....
....|..|D#6 2F.F ....|B-1 2F.F ....|--- .... ....
....|..|B-1 2F.F ....|B-1 2F.F ....|--- .... ....
....|..|B-1 2F.F ....|B-1 2F.F ....|--- .... ....
....|..|--- .... ....|--- .... ....|--- .... ....
....|..|C#6 2F.F ....|A#4 2F.F ....|--- .... ....
....|..|--- .... ....|--- .... ....|--- .... ....
....|..|B-2 2F.F ....|B-2 2F.F ....|--- .... ....
....|..|--- .... ....|--- .... ....|--- .... ....
....|..|F#5 2F.F ....|F#4 2F.F ....|--- .... ....
....|..|--- .... ....|--- .... ....|--- .... ....
....|..|B-1 2F.F ....|B-1 2F.F ....|--- .... ....
....|..|--- .... ....|--- .... ....|--- .... ....
....|..|D#6 2F.F ....|C#4 2F.F ....|--- .... ....
....|..|B-1 2F.A ....|B-1 2F.A ....|--- .... ....
....|..|F#4 2F.F ....|F#4 2F.F ....|--- .... ....
....|..|--- .... ....|--- .... ....|--- .... ....
....|..|F#4 2F.F ....|F#4 2F.F ....|--- .... ....
....|..|--- .... ....|--- .... ....|--- .... ....
....|..|F#2 2F.F ....|F#2 2F.F ....|--- .... ....
....|..|--- .... ....|--- .... ....|--- .... ....
....|..|F#5 2F.F ....|F#3 2F.F ....|--- .... ....
....|..|--- .... ....|--- .... ....|--- .... ....
....|..|C#4 2F.F ....|C#4 2F.F ....|--- .... ....
....|..|--- .... ....|--- .... ....|--- .... ....
....|..|A#5 2F.F ....|F#3 2F.F ....|--- .... ....
....|..|B-1 2F.7 ....|B-1 2F.7 ....|--- .... ....
....|..|G#4 2F.F ....|G#4 2F.F ....|--- .... ....
....|..|--- .... ....|--- .... ....|--- .... ....
....|..|F#5 2F.F ....|A#4 2F.F ....|--- .... ....
....|..|--- .... ....|--- .... ....|--- .... ....
....|..|F#2 2F.F ....|F#2 2F.F ....|--- .... ....
....|..|F#2 2F.F ....|F#2 2F.F ....|--- .... ....
....|..|B-5 2F.F ....|F#2 2F.F ....|--- .... ....
....|..|--- .... ....|--- .... ....|--- .... ....
....|..|F#3 2F.F ....|F#3 2F.F ....|--- .... ....
....|..|--- .... ....|--- .... ....|--- .... ....
....|..|A#5 2F.F ....|C#4 2F.F ....|--- .... ....
....|..|--- .... ....|--- .... ....|--- .... ....
....|..|F#4 2F.F ....|F#4 2F.F ....|--- .... ....
....|..|--- .... ....|--- .... ....|--- .... ....
....|..|F#5 2F.F ....|A#3 2F.F ....|--- .... ....
....|..|--- .... ....|--- .... ....|--- .... ....
....|..|F#2 2F.F ....|F#2 2F.F ....|--- .... ....
....|..|F#2 2F.A ....|F#2 2F.A ....|--- .... ....
....|..|A#5 2F.F ....|G#3 2F.F ....|--- .... ....
....|..|--- .... ....|--- .... ....|--- .... ....
....|..|F#3 2F.F ....|F#3 2F.F ....|--- .... ....
....|..|--- .... ....|--- .... ....|--- .... ....
....|..|E-4 2F.F ....|F#3 2F.7 ....|--- .... ....
....|..|--- .... ....|--- .... ....|--- .... ....
....|..|E-3 2F.F ....|E-3 2F.F ....|--- .... ....
....|..|--- .... ....|--- .... ....|--- .... ....
....|..|F#5 2F.F ....|E-2 2F.F ....|--- .... ....
....|..|--- .... ....|--- .... ....|--- .... ....
....|..|E-2 2F.F ....|E-2 2F.F ....|--- .... ....
....|..|F#2 2F.7 ....|F#2 2F.7 ....|--- .... ....
....|..|A#5 2F.F ....|F#3 2F.F ....|--- .... ....
....|..|--- .... ....|--- .... ....|--- .... ....
....|..|E-2 2F.F ....|E-2 2F.F ....|--- .... ....
....|..|--- .... ....|--- .... ....|--- .... ....
....|..|F#5 2F.F ....|E-2 2F.F ....|--- .... ....
....|..|--- .... ....|--- .... ....|--- .... ....
....|..|A#3 2F.F ....|A#3 2F.F ....|--- .... ....
....|..|--- .... ....|--- .... ....|--- .... ....
....|..|B-5 2F.F ....|A#3 2F.7 ....|--- .... ....
....|..|--- .... ....|--- .... ....|--- .... ....
....|..|B-3 2F.F ....|B-3 2F.F ....|--- .... ....
....|..|--- .... ....|--- .... ....|--- .... ....
....|..|A#5 2F.F ....|E-2 2F.F ....|--- .... ....
....|..|--- .... ....|--- .... ....|--- .... ....
....|..|A#4 2F.F ....|A#4 2F.F ....|--- .... ....
....|..|--- .... ....|--- .... ....|--- .... ....
....|..|F#5 2F.F ....|B-4 2F.F ....|--- .... ....
....|..|--- .... ....|--- .... ....|--- .... ....
....|..|E-2 2F.F ....|E-2 2F.F ....|--- .... ....
....|..|--- .... ....|--- .... ....|--- .... ....
....|..|A#5 2F.F ....|C#5 2F.F ....|--- .... ....
....|..|--- .... ....|--- .... ....|--- .... ....
....|..|A#4 2F.F ....|A#4 2F.F ....|--- .... ....
....|..|--- .... ....|--- .... ....|--- .... ....

[Pattern53]
....|..|D#5 2F.F ....|F#3 2F.7 ....|--- .... ....
....|..|--- .... ....|--- .... ....|--- .... ....
....|..|G#4 2F.F ....|G#4 2F.F ....|--- .... ....
....|..|--- .... ....|--- .... ....|--- .... ....
....|..|A#5 2F.F ....|F#4 2F.F ....|--- .... ....
....|..|--- .... ....|--- .... ....|--- .... ....
....|..|D#2 2F.F ....|D#2 2F.F ....|--- .... ....
....|..|D#2 2F.F ....|D#2 2F.F ....|--- .... ....
....|..|F-6 2F.F ....|D#2 2F.F ....|--- .... ....
....|..|--- .... ....|--- .... ....|--- .... ....
....|..|D#4 2F.F ....|D#4 2F.F ....|--- .... ....
....|..|--- .... ....|--- .... ....|--- .... ....
....|..|A#5 2F.F ....|D#2 2F.F ....|--- .... ....
....|..|--- .... ....|--- .... ....|--- .... ....
....|..|A#3 2F.F ....|A#3 2F.F ....|--- .... ....
....|..|--- .... ....|--- .... ....|--- .... ....
....|..|F#6 2F.F ....|D#2 2F.F ....|--- .... ....
....|..|--- .... ....|--- .... ....|--- .... ....
....|..|F#3 2F.F ....|F#3 2F.F ....|--- .... ....
....|..|F#3 2F.F ....|F#3 2F.F ....|--- .... ....
....|..|F-6 2F.F ....|F#3 2F.F ....|--- .... ....
....|..|--- .... ....|--- .... ....|--- .... ....
....|..|F#5 2F.F ....|F#5 2F.F ....|--- .... ....
....|..|--- .... ....|--- .... ....|--- .... ....
....|..|A#5 2F.F ....|F-5 2F.F ....|--- .... ....
....|..|--- .... ....|--- .... ....|--- .... ....
....|..|D#5 2F.F ....|D#5 2F.F ....|--- .... ....
....|..|--- .... ....|--- .... ....|--- .... ....
....|..|F-6 2F.F ....|A#4 2F.F ....|--- .... ....
....|..|--- .... ....|--- .... ....|--- .... ....
....|..|F#4 2F.F ....|F#4 2F.F ....|--- .... ....
....|..|D#2 2F.7 ....|D#2 2F.7 ....|--- .... ....
....|..|B-4 2F.F ....|B-1 2F.F ....|--- .... ....
....|..|--- .... ....|--- .... ....|--- .... ....
....|..|B-2 2F.F ....|B-2 2F.F ....|--- .... ....
....|..|--- .... ....|--- .... ....|--- .... ....
....|..|F#5 2F.F ....|B-3 2F.F ....|--- .... ....
....|..|--- .... ....|--- .... ....|--- .... ....
....|..|B-1 2F.F ....|B-1 2F.F ....|--- .... ....
....|..|--- .... ....|--- .... ....|--- .... ....
....|..|C#6 2F.F ....|C#4 2F.F ....|--- .... ....
....|..|--- .... ....|--- .... ....|--- .... ....
....|..|D#4 2F.F ....|D#4 2F.F ....|--- .... ....
....|..|F#3 2F.7 ....|F#3 2F.7 ....|--- .... ....
....|..|F#5 2F.F ....|B-1 2F.F ....|--- .... ....
....|..|--- .... ....|--- .... ....|--- .... ....
....|..|F#4 2F.F ....|F#4 2F.F ....|--- .... ....
....|..|--- .... ....|--- .... ....|--- .... ....
....|..|C#6 2F.F ....|B-1 2F.F ....|--- .... ....
....|..|B-1 2F.F ....|B-1 2F.F ....|--- .... ....
....|..|B-1 2F.F ....|B-1 2F.F ....|--- .... ....
....|..|--- .... ....|--- .... ....|--- .... ....
....|..|F#5 2F.F ....|A#4 2F.F ....|--- .... ....
....|..|--- .... ....|--- .... ....|--- .... ....
....|..|B-2 2F.F ....|B-2 2F.F ....|--- .... ....
....|..|--- .... ....|--- .... ....|--- .... ....
....|..|D#6 2F.F ....|F#4 2F.F ....|--- .... ....
....|..|--- .... ....|--- .... ....|--- .... ....
....|..|B-1 2F.F ....|B-1 2F.F ....|--- .... ....
....|..|--- .... ....|--- .... ....|--- .... ....
....|..|C#6 2F.F ....|C#4 2F.F ....|--- .... ....
....|..|B-1 2F.A ....|B-1 2F.A ....|--- .... ....
....|..|F#4 2F.F ....|F#4 2F.F ....|--- .... ....
....|..|--- .... ....|--- .... ....|--- .... ....
....|..|F#4 2F.F ....|F#4 2F.F ....|--- .... ....
....|..|--- .... ....|--- .... ....|--- .... ....
....|..|F#2 2F.F ....|F#2 2F.F ....|--- .... ....
....|..|--- .... ....|--- .... ....|--- .... ....
....|..|F#5 2F.F ....|F#3 2F.F ....|--- .... ....
....|..|--- .... ....|--- .... ....|--- .... ....
....|..|C#4 2F.F ....|C#4 2F.F ....|--- .... ....
....|..|--- .... ....|--- .... ....|--- .... ....
....|..|A#5 2F.F ....|F#3 2F.F ....|--- .... ....
....|..|B-1 2F.7 ....|B-1 2F.7 ....|--- .... ....
....|..|G#4 2F.F ....|G#4 2F.F ....|--- .... ....
....|..|--- .... ....|--- .... ....|--- .... ....
....|..|F#5 2F.F ....|A#4 2F.F ....|--- .... ....
....|..|--- .... ....|--- .... ....|--- .... ....
....|..|F#2 2F.F ....|F#2 2F.F ....|--- .... ....
....|..|F#2 2F.F ....|F#2 2F.F ....|--- .... ....
....|..|B-5 2F.F ....|F#2 2F.F ....|--- .... ....
....|..|--- .... ....|--- .... ....|--- .... ....
....|..|F#3 2F.F ....|F#3 2F.F ....|--- .... ....
....|..|--- .... ....|--- .... ....|--- .... ....
....|..|A#5 2F.F ....|C#4 2F.F ....|--- .... ....
....|..|--- .... ....|--- .... ....|--- .... ....
....|..|F#4 2F.F ....|F#4 2F.F ....|--- .... ....
....|..|--- .... ....|--- .... ....|--- .... ....
....|..|F#5 2F.F ....|A#3 2F.F ....|--- .... ....
....|..|--- .... ....|--- .... ....|--- .... ....
....|..|F#2 2F.F ....|F#2 2F.F ....|--- .... ....
....|..|F#2 2F.A ....|F#2 2F.A ....|--- .... ....
....|..|A#5 2F.F ....|G#3 2F.F ....|--- .... ....
....|..|--- .... ....|--- .... ....|--- .... ....
....|..|F#3 2F.F ....|F#3 2F.F ....|--- .... ....
....|..|--- .... ....|--- .... ....|--- .... ....
....|..|E-4 2F.F ....|F#3 2F.7 ....|--- .... ....
....|..|--- .... ....|--- .... ....|--- .... ....
....|..|E-3 2F.F ....|E-3 2F.F ....|--- .... ....
....|..|--- .... ....|--- .... ....|--- .... ....
....|..|F#5 2F.F ....|E-2 2F.F ....|--- .... ....
....|..|--- .... ....|--- .... ....|--- .... ....
....|..|E-2 2F.F ....|E-2 2F.F ....|--- .... ....
....|..|F#2 2F.7 ....|F#2 2F.7 ....|--- .... ....
....|..|A#5 2F.F ....|F#3 2F.F ....|--- .... ....
....|..|--- .... ....|--- .... ....|--- .... ....
....|..|E-2 2F.F ....|E-2 2F.F ....|--- .... ....
....|..|--- .... ....|--- .... ....|--- .... ....
....|..|F#5 2F.F ....|E-2 2F.F ....|--- .... ....
....|..|--- .... ....|--- .... ....|--- .... ....
....|..|A#3 2F.F ....|A#3 2F.F ....|--- .... ....
....|..|--- .... ....|--- .... ....|--- .... ....
....|..|B-5 2F.F ....|A#3 2F.7 ....|--- .... ....
....|..|--- .... ....|--- .... ....|--- .... ....
....|..|B-3 2F.F ....|B-3 2F.F ....|--- .... ....
....|..|--- .... ....|--- .... ....|--- .... ....
....|..|A#5 2F.F ....|E-2 2F.F ....|--- .... ....
....|..|--- .... ....|--- .... ....|--- .... ....
....|..|A#4 2F.F ....|A#4 2F.F ....|--- .... ....
....|..|--- .... ....|--- .... ....|--- .... ....
....|..|F#5 2F.F ....|B-4 2F.F ....|--- .... ....
....|..|--- .... ....|--- .... ....|--- .... ....
....|..|E-2 2F.F ....|E-2 2F.F ....|--- .... ....
....|..|--- .... ....|--- .... ....|--- .... ....
....|..|A#5 2F.F ....|C#5 2F.F ....|--- .... ....
....|..|--- .... ....|--- .... ....|--- .... ....
....|..|A#4 2F.F ....|A#4 2F.F ....|--- .... ....
....|..|--- .... ....|--- .... ....|--- .... ....

[Pattern55]
....|..|D#5 2F.F ....|F#3 2F.7 ....|--- .... ....
....|..|--- .... ....|--- .... ....|--- .... ....
....|..|G#4 2F.F ....|G#4 2F.F ....|--- .... ....
....|..|--- .... ....|--- .... ....|--- .... ....
....|..|A#5 2F.F ....|F#4 2F.F ....|--- .... ....
....|..|--- .... ....|--- .... ....|--- .... ....
....|..|D#2 2F.F ....|D#2 2F.F ....|--- .... ....
....|..|D#2 2F.F ....|D#2 2F.F ....|--- .... ....
....|..|F-6 2F.F ....|D#2 2F.F ....|--- .... ....
....|..|--- .... ....|--- .... ....|--- .... ....
....|..|D#4 2F.F ....|D#4 2F.F ....|--- .... ....
....|..|--- .... ....|--- .... ....|--- .... ....
....|..|A#5 2F.F ....|D#2 2F.F ....|--- .... ....
....|..|--- .... ....|--- .... ....|--- .... ....
....|..|A#3 2F.F ....|A#3 2F.F ....|--- .... ....
....|..|--- .... ....|--- .... ....|--- .... ....
....|..|F#6 2F.F ....|D#2 2F.F ....|--- .... ....
....|..|--- .... ....|--- .... ....|--- .... ....
....|..|F#3 2F.F ....|F#3 2F.F ....|--- .... ....
....|..|F#3 2F.F ....|F#3 2F.F ....|--- .... ....
....|..|F-6 2F.F ....|F#3 2F.F ....|--- .... ....
....|..|--- .... ....|--- .... ....|--- .... ....
....|..|F#5 2F.F ....|F#5 2F.F ....|--- .... ....
....|..|--- .... ....|--- .... ....|--- .... ....
....|..|A#5 2F.F ....|F-5 2F.F ....|--- .... ....
....|..|--- .... ....|--- .... ....|--- .... ....
....|..|D#5 2F.F ....|D#5 2F.F ....|--- .... ....
....|..|--- .... ....|--- .... ....|--- .... ....
....|..|F-6 2F.F ....|A#4 2F.F ....|--- .... ....
....|..|--- .... ....|--- .... ....|--- .... ....
....|..|F#4 2F.F ....|F#4 2F.F ....|--- .... ....
....|..|D#2 2F.7 ....|D#2 2F.7 ....|--- .... ....
....|..|B-4 2F.F ....|B-1 2F.F ....|--- .... ....
....|..|--- .... ....|--- .... ....|--- .... ....
....|..|B-2 2F.F ....|B-2 2F.F ....|--- .... ....
....|..|--- .... ....|--- .... ....|--- .... ....
....|..|F#5 2F.F ....|B-3 2F.F ....|--- .... ....
....|..|--- .... ....|--- .... ....|--- .... ....
....|..|B-1 2F.F ....|B-1 2F.F ....|--- .... ....
....|..|--- .... ....|--- .... ....|--- .... ....
....|..|C#6 2F.F ....|C#4 2F.F ....|--- .... ....
....|..|--- .... ....|--- .... ....|--- .... ....
....|..|D#4 2F.F ....|D#4 2F.F ....|--- .... ....
....|..|F#3 2F.7 ....|F#3 2F.7 ....|--- .... ....
....|..|F#5 2F.F ....|B-1 2F.F ....|--- .... ....
....|..|--- .... ....|--- .... ....|--- .... ....
....|..|F#4 2F.F ....|F#4 2F.F ....|--- .... ....
....|..|--- .... ....|--- .... ....|--- .... ....
....|..|C#6 2F.F ....|B-1 2F.F ....|--- .... ....
....|..|B-1 2F.F ....|B-1 2F.F ....|--- .... ....
....|..|B-1 2F.F ....|B-1 2F.F ....|--- .... ....
....|..|--- .... ....|--- .... ....|--- .... ....
....|..|F#5 2F.F ....|A#4 2F.F ....|--- .... ....
....|..|--- .... ....|--- .... ....|--- .... ....
....|..|B-2 2F.F ....|B-2 2F.F ....|--- .... ....
....|..|--- .... ....|--- .... ....|--- .... ....
....|..|D#6 2F.F ....|F#4 2F.F ....|--- .... ....
....|..|--- .... ....|--- .... ....|--- .... ....
....|..|B-1 2F.F ....|B-1 2F.F ....|--- .... ....
....|..|--- .... ....|--- .... ....|--- .... ....
....|..|C#6 2F.F ....|C#4 2F.F ....|--- .... ....
....|..|B-1 2F.A ....|B-1 2F.A ....|--- .... ....
....|..|F#4 2F.F ....|F#4 2F.F ....|--- .... ....
....|..|--- .... ....|--- .... ....|--- .... ....
....|..|F#4 2F.F ....|C#4 2F.7 ....|--- .... ....
....|..|--- .... ....|--- .... ....|--- .... ....
....|..|D#4 2F.7 ....|D#4 2F.7 ....|--- .... ....
....|..|--- .... ....|--- .... ....|--- .... ....
....|..|F#5 2F.F ....|B-1 2F.7 ....|--- .... ....
....|..|--- .... ....|--- .... ....|--- .... ....
....|..|F#4 2F.7 ....|F#4 2F.7 ....|--- .... ....
....|..|--- .... ....|--- .... ....|--- .... ....
....|..|A#5 2F.F ....|B-1 2F.7 ....|--- .... ....
....|..|B-1 2F.7 ....|B-1 2F.7 ....|--- .... ....
....|..|B-1 2F.7 ....|B-1 2F.7 ....|--- .... ....
....|..|--- .... ....|--- .... ....|--- .... ....
....|..|F#5 2F.F ....|A#4 2F.7 ....|--- .... ....
....|..|--- .... ....|--- .... ....|--- .... ....
....|..|B-2 2F.7 ....|B-2 2F.7 ....|--- .... ....
....|..|--- .... ....|--- .... ....|--- .... ....
....|..|B-5 2F.F ....|F#4 2F.7 ....|--- .... ....
....|..|--- .... ....|--- .... ....|--- .... ....
....|..|B-1 2F.7 ....|B-1 2F.7 ....|--- .... ....
....|..|--- .... ....|--- .... ....|--- .... ....
....|..|A#5 2F.F ....|C#4 2F.7 ....|--- .... ....
....|..|--- .... ....|--- .... ....|--- .... ....
....|..|F#4 2F.7 ....|F#4 2F.7 ....|--- .... ....
....|..|--- .... ....|--- .... ....|--- .... ....
....|..|F#5 2F.F ....|R-- .... ....|--- .... ....
....|..|--- .... ....|--- .... ....|--- .... ....
....|..|--- .... ....|--- .... ....|--- .... ....
....|..|--- .... ....|--- .... ....|--- .... ....
....|..|A#5 2F.F ....|--- .... ....|--- .... ....
....|..|--- .... ....|--- .... ....|--- .... ....
....|..|--- .... ....|--- .... ....|--- .... ....
....|..|--- .... ....|--- .... ....|--- .... ....
....|..|E-4 2F.F ....|--- .... ....|--- .... ....
....|..|--- .... ....|--- .... ....|--- .... ....
....|..|--- .... ....|--- .... ....|--- .... ....
....|..|--- .... ....|--- .... ....|--- .... ....
....|..|F#5 2F.F ....|--- .... ....|--- .... ....
....|..|--- .... ....|--- .... ....|--- .... ....
....|..|--- .... ....|--- .... ....|--- .... ....
....|..|--- .... ....|--- .... ....|--- .... ....
....|..|A#5 2F.F ....|--- .... ....|--- .... ....
....|..|--- .... ....|--- .... ....|--- .... ....
....|..|--- .... ....|--- .... ....|--- .... ....
....|..|--- .... ....|--- .... ....|--- .... ....
....|..|F#5 2F.F ....|--- .... ....|--- .... ....
....|..|--- .... ....|--- .... ....|--- .... ....
....|..|--- .... ....|--- .... ....|--- .... ....
....|..|--- .... ....|--- .... ....|--- .... ....
....|..|B-5 2F.F ....|--- .... ....|--- .... ....
....|..|--- .... ....|--- .... ....|--- .... ....
....|..|--- .... ....|--- .... ....|--- .... ....
....|..|--- .... ....|--- .... ....|--- .... ....
....|..|A#5 2F.F ....|--- .... ....|--- .... ....
....|..|--- .... ....|--- .... ....|--- .... ....
....|..|--- .... ....|--- .... ....|--- .... ....
....|..|--- .... ....|--- .... ....|--- .... ....
....|..|F#5 2F.F ....|--- .... ....|--- .... ....
....|..|--- .... ....|--- .... ....|--- .... ....
....|..|--- .... ....|--- .... ....|--- .... ....
....|..|--- .... ....|--- .... ....|--- .... ....
....|..|A#5 2F.F ....|--- .... ....|--- .... ....
....|..|--- .... ....|--- .... ....|--- .... ....
....|..|--- .... ....|--- .... ....|--- .... ....
....|..|--- .... ....|--- .... ....|--- .... ....

[Pattern57]
....|..|D#5 2F.F ....|--- .... ....|--- .... ....
....|..|--- .... ....|--- .... ....|--- .... ....
....|..|--- .... ....|--- .... ....|--- .... ....
....|..|--- .... ....|--- .... ....|--- .... ....
....|..|A#5 2F.F ....|--- .... ....|--- .... ....
....|..|--- .... ....|--- .... ....|--- .... ....
....|..|--- .... ....|--- .... ....|--- .... ....
....|..|--- .... ....|--- .... ....|--- .... ....
....|..|F-6 2F.F ....|--- .... ....|--- .... ....
....|..|--- .... ....|--- .... ....|--- .... ....
....|..|--- .... ....|--- .... ....|--- .... ....
....|..|--- .... ....|--- .... ....|--- .... ....
....|..|A#5 2F.F ....|--- .... ....|--- .... ....
....|..|--- .... ....|--- .... ....|--- .... ....
....|..|--- .... ....|--- .... ....|--- .... ....
....|..|--- .... ....|--- .... ....|--- .... ....
....|..|F#6 2F.F ....|--- .... ....|--- .... ....
....|..|--- .... ....|--- .... ....|--- .... ....
....|..|--- .... ....|--- .... ....|--- .... ....
....|..|--- .... ....|--- .... ....|--- .... ....
....|..|F-6 2F.F ....|--- .... ....|--- .... ....
....|..|--- .... ....|--- .... ....|--- .... ....
....|..|--- .... ....|--- .... ....|--- .... ....
....|..|--- .... ....|--- .... ....|--- .... ....
....|..|A#5 2F.F ....|--- .... ....|--- .... ....
....|..|--- .... ....|--- .... ....|--- .... ....
....|..|--- .... ....|--- .... ....|--- .... ....
....|..|--- .... ....|--- .... ....|--- .... ....
....|..|F-6 2F.F ....|--- .... ....|--- .... ....
....|..|--- .... ....|--- .... ....|--- .... ....
....|..|--- .... ....|--- .... ....|--- .... ....
....|..|--- .... ....|--- .... ....|--- .... ....
....|..|B-4 2F.F ....|--- .... ....|--- .... ....
....|..|--- .... ....|--- .... ....|--- .... ....
....|..|--- .... ....|--- .... ....|--- .... ....
....|..|--- .... ....|--- .... ....|--- .... ....
....|..|F#5 2F.F ....|--- .... ....|--- .... ....
....|..|--- .... ....|--- .... ....|--- .... ....
....|..|--- .... ....|--- .... ....|--- .... ....
....|..|--- .... ....|--- .... ....|--- .... ....
....|..|C#6 2F.F ....|--- .... ....|--- .... ....
....|..|--- .... ....|--- .... ....|--- .... ....
....|..|--- .... ....|--- .... ....|--- .... ....
....|..|--- .... ....|--- .... ....|--- .... ....
....|..|F#5 2F.F ....|--- .... ....|--- .... ....
....|..|--- .... ....|--- .... ....|--- .... ....
....|..|--- .... ....|--- .... ....|--- .... ....
....|..|--- .... ....|--- .... ....|--- .... ....
....|..|C#6 2F.F ....|--- .... ....|--- .... ....
....|..|--- .... ....|--- .... ....|--- .... ....
....|..|--- .... ....|--- .... ....|--- .... ....
....|..|--- .... ....|--- .... ....|--- .... ....
....|..|F#5 2F.F ....|--- .... ....|--- .... ....
....|..|--- .... ....|--- .... ....|--- .... ....
....|..|--- .... ....|--- .... ....|--- .... ....
....|..|--- .... ....|--- .... ....|--- .... ....
....|..|D#6 2F.F ....|--- .... ....|--- .... ....
....|..|--- .... ....|--- .... ....|--- .... ....
....|..|--- .... ....|--- .... ....|--- .... ....
....|..|--- .... ....|--- .... ....|--- .... ....
....|..|C#6 2F.F ....|--- .... ....|--- .... ....
....|..|--- .... ....|--- .... ....|--- .... ....
....|..|--- .... ....|--- .... ....|--- .... ....
....|..|--- .... ....|--- .... ....|--- .... ....
....|..|C#6 2F.7 ....|--- .... ....|--- .... ....
....|..|--- .... ....|--- .... ....|--- .... ....
....|..|--- .... ....|--- .... ....|--- .... ....
....|..|--- .... ....|--- .... ....|--- .... ....
....|..|F#5 2F.7 ....|--- .... ....|--- .... ....
....|..|--- .... ....|--- .... ....|--- .... ....
....|..|--- .... ....|--- .... ....|--- .... ....
....|..|--- .... ....|--- .... ....|--- .... ....
....|..|C#6 2F.7 ....|--- .... ....|--- .... ....
....|..|--- .... ....|--- .... ....|--- .... ....
....|..|--- .... ....|--- .... ....|--- .... ....
....|..|--- .... ....|--- .... ....|--- .... ....
....|..|F#5 2F.7 ....|--- .... ....|--- .... ....
....|..|--- .... ....|--- .... ....|--- .... ....
....|..|--- .... ....|--- .... ....|--- .... ....
....|..|--- .... ....|--- .... ....|--- .... ....
....|..|D#6 2F.7 ....|--- .... ....|--- .... ....
....|..|--- .... ....|--- .... ....|--- .... ....
....|..|--- .... ....|--- .... ....|--- .... ....
....|..|--- .... ....|--- .... ....|--- .... ....
....|..|C#6 2F.7 ....|--- .... ....|--- .... ....
....|..|--- .... ....|--- .... ....|--- .... ....
....|..|--- .... ....|--- .... ....|--- .... ....
....|..|--- .... ....|--- .... ....|--- .... ....
