[Module]
VortexTrackerII=0
Version=3.5
Title=1d-3me[2],2me[3],3p[u]
Author=oisee ^ 4d 29.05.2010
NoteTable=4
ChipFreq=1750000
Speed=4
PlayOrder=L0,1,2,3,4,5,6,7,8,9,10,11,12,13,14,15,16,17,18,19,20,21,22,23,24,25,26,27,28,29,30,31,32,33,34,35,36,37,38,12,13,14,15,43,27,28,46,47,48,49


[Ornament1]
L0,0,3,3

[Ornament2]
L0,0,5,5

[Ornament3]
L0,0,4,4

[Ornament4]
L0,0,4,4,9,9

[Ornament5]
L0,0,3,3,7,7

[Ornament6]
L0,0,4,4,7,7

[Ornament7]
L0,0,4,4,5,5

[Ornament8]
L0,0,5,5,8,8

[Ornament9]
L0,0,5,5,10,10

[Ornament10]
L0,0,3,3,8,8

[Ornament11]
L0,0,5,5,9,9

[Ornament12]
L0,0,4,4,6,6

[Ornament13]
L0,0,2,2,4,4

[Ornament14]
L0,0,5,5,11,11

[Ornament15]
L0,0,3,3,5,5


[Sample1]
TnE +000_ +00_ F_
TnE +000_ +00_ F_
TnE +000_ +00_ F_
TnE +000_ +00_ D_
TnE +000_ +00_ B_
TnE +000_ +00_ B_ L

[Sample2]
TnE +000_ +00_ F_ L

[Sample3]
TnE +001_ +00_ F_
TnE +002_ +00_ F_
TnE +001_ +00_ E_
TnE +002_ +00_ E_
TnE +000_ +00_ E_ L
TnE -001_ +00_ E_
TnE -002_ +00_ E_
TnE -001_ +00_ E_
TnE +000_ +00_ E_
TnE +001_ +00_ E_
TnE +002_ +00_ E_
TnE +001_ +00_ E_

[Sample4]
TnE +002_ +00_ D_
TnE +002_ +00_ D_
TnE +002_ +00_ C_
TnE +002_ +00_ B_
TnE +002_ +00_ A_ L
TnE +002_ +00_ A_
TnE +002_ +00_ A_
TnE +002_ +00_ A_
TnE +002_ +00_ A_
TnE +002_ +00_ A_
TnE +002_ +00_ A_
TnE +002_ +00_ A_

[Sample5]
TnE +000_ +00_ F_
TnE +000_ +00_ F_
tne +000_ +00_ 0_ L

[Sample6]
TnE -001_ +00_ F_ L

[Sample7]
TnE +006_ +00_ F_ L

[Sample8]
tNe +000_ +00_ F_
tNe +000_ +00_ B_
tNe +000_ +00_ 7_
tNe +000_ +00_ 6- L

[Sample9]
TnE +080_ +00_ F_
TnE +100_ +00_ E_
TnE +180_ +00_ E_
TnE +200_ +00_ E_
TnE +240_ +00_ D_
TnE +280_ +00_ D_
TnE +2C0_ +00_ D_
TnE +300_ +00_ C_
TnE +300_ +00_ C_
TnE +340_ +00_ C_
TnE +340_ +00_ C_
TnE +380_ +00_ B_
TnE +380_ +00_ B_
TnE +400_ +00_ B_
TnE +400_ +00_ B_
TnE +480_ +00_ A_
TnE +500_ +00_ 9_
TnE +580_ +00_ 7_
TnE +600_ +00_ 4_
TnE +680_ +00_ 1_
TnE +000_ +00_ 0_ L

[Sample10]
Tne +1C0_ +00_ F_
Tne +280_ +00_ E_
Tne +380_ +00_ C_
Tne +440_ +00_ A_
Tne +480_ +00_ 8_
TnE +000_ +00_ 0_ L

[Sample11]
TNe +200_ -0A_ F_
tNe +000_ +0F_ A_
TNe +200_ -07_ E_
tNe +000_ +0E_ B- L

[Sample12]
TNE +0A0_ +05_ F_
TNE +140_ +02_ D_
TNE +140_ +02_ B_
TNE +100_ +00_ A_ L
TNE +140_ +00_ A_
TNE +200_ +00_ A-

[Sample13]
Tne +200_ +00_ F_
Tne +2C0_ +00_ F_
Tne +380_ +00_ E_
Tne +500_ +00_ C_
Tne +520_ +00_ 9_
tne +000_ +00_ 0_ L

[Sample14]
TNE -100_ +00_ F_
TNE -100_ +00_ D_
TNE -100_ +00_ A_
TNE -100_ +00_ 5_
tne +000_ +00_ 0_ L

[Sample15]
TNE -100_ +00_ 5_
TNE -100_ +00_ 8_
TNE -100_ +00_ B_
TNE -100_ +00_ F_
TNe -100_ +00_ 9- L

[Sample16]
TnE +000_ +00_ C_
TnE +000_ +00_ E_
TnE +000_ +00_ F_
TnE +000_ +00_ F_
TnE +000_ +00_ E_
TnE +000_ +00_ D_
TnE +000_ +00_ C_
TnE +000_ +00_ C_ L
TnE +001_ +00_ C_
TnE +002_ +00_ C_
TnE +003_ +00_ C_
TnE +001_ +00_ C_
TnE +000_ +00_ C_
TnE -001_ +00_ C_
TnE -002_ +00_ C_
TnE -003_ +00_ C_
TnE -001_ +00_ C_
TnE +000_ +00_ C_
TnE +000_ +00_ C_

[Sample17]
Tne +1C0_ +00_ F_
Tne +280_ +00_ D_
Tne +380_ +00_ 7_
TNE +000_ +00_ 0_ L

[Sample18]
TnE -00C_ +00_ 0_ L

[Sample19]
TNe +000_ +00_ F_
TNe +000_ +00_ C_
TNe +000_ +00_ 6_
TNe +000_ +01_ A- L

[Sample20]
TNE +140_ +00_ F_
tNE +000_ +00_ B- L

[Sample21]
tNE +000_ +00_ D_
tNE +000_ +00_ 8_
tNE +000_ +00_ 1_
TNE +000_ +00_ 0_ L

[Sample22]
TnE +000_ +00_ D_ L
TnE +000_ +00_ D_
tne +000_ +00_ 9_
tne +000_ +00_ 9_
TnE +000_ +00_ D_
TnE +000_ +00_ D_
tne +000_ +00_ 9_
tne +000_ +00_ 9_
TnE +000_ +00_ D_
TnE +000_ +00_ D_
TnE +000_ +00_ D_
TnE +000_ +00_ D_
TnE +000_ +00_ D_
TnE +000_ +00_ D_
tne +000_ +00_ 9_
tne +000_ +00_ 9_

[Sample23]
TnE +000_ +00_ F_ L
TnE +010_ +01_ F_
TnE +010_ +01_ F_
TnE +010_ +01_ F_
TnE +010_ +01_ F_
TnE +000_ +00_ F_
TnE +000_ +00_ F_
TnE -010_ -01_ F_
TnE -010_ -01_ F_
TnE -010_ -01_ F_
TnE -010_ -01_ F_
TnE +000_ +00_ F_

[Sample24]
TNe +000_ -01_ C_
TNe +000_ -01_ D_
TNe +000_ -01_ E_
TNe +000_ -01_ F_
TNe +000_ -01_ F_
TNe +000_ -01_ F_
TNe +000_ -01_ F_
TNe +000_ -01_ F_
TNe +000_ -01_ E_
TNe +000_ -01_ E_
TNe +000_ -01_ E_
TNe +000_ -01_ F_
TNe +000_ -01_ F_ L

[Sample25]
TNE +000_ +00_ F_
TNE +000_ +00_ F_ L
TNE +000_ +00_ F_
TNE +000_ +00_ F_
TNE +000_ +00_ F-

[Sample26]
tne +000_ +00_ 0_ L

[Sample27]
TnE +100_ +05_ F_
TnE +200_ +02_ A_
TnE +300_ +02_ 7_
TNE +400_ +00_ 3- L

[Sample28]
tne +000_ +00_ 0_ L

[Sample29]
tnE +000_ +00_ 0_ L

[Sample30]
TNE +000_ +00_ C+ L

[Sample31]
TNe +1C0_ +00_ F_
Tne +280_ +00_ E_
Tne +380_ +00_ C_
Tne +440_ +00_ A_
Tne +480_ +00_ 8_
TnE +000_ +00_ 0_ L

[Pattern0]
 D#4|..|A#4 2F.F ....|D#5 2C.F ....|G-4 UF1F ....
....|..|--- .... ....|--- .... ....|--- .... ....
....|..|--- .... ....|--- .... ....|--- .... ....
....|..|A#4 2F.A ....|D#5 2F.A ....|G-4 UF1A ....
....|..|--- .... ....|--- .... ....|--- .... ....
....|..|--- .... ....|--- .... ....|--- .... ....
....|..|A#4 2F.7 ....|D#5 2F.7 ....|G-4 UF17 ....
....|..|--- .... ....|--- .... ....|--- .... ....
....|..|--- .... ....|--- .... ....|--- .... ....
....|..|--- .... ....|--- .... ....|--- .... ....
....|..|--- .... ....|--- .... ....|--- .... ....
....|..|--- .... ....|--- .... ....|--- .... ....
 D-4|..|--- .... ....|D-5 2C.F ....|--- .... ....
....|..|--- .... ....|--- .... ....|--- .... ....
....|..|--- .... ....|--- .... ....|--- .... ....
....|..|--- .... ....|D-5 2F.A ....|--- .... ....
....|..|--- .... ....|--- .... ....|--- .... ....
....|..|--- .... ....|--- .... ....|--- .... ....
....|..|--- .... ....|D-5 2F.7 ....|--- .... ....
....|..|--- .... ....|--- .... ....|--- .... ....
....|..|--- .... ....|--- .... ....|--- .... ....
....|..|--- .... ....|--- .... ....|--- .... ....
....|..|--- .... ....|--- .... ....|--- .... ....
....|..|--- .... ....|--- .... ....|--- .... ....
....|..|--- .... ....|--- .... ....|--- .... ....
....|..|--- .... ....|--- .... ....|--- .... ....
....|..|--- .... ....|--- .... ....|--- .... ....
....|..|--- .... ....|--- .... ....|--- .... ....
....|..|--- .... ....|--- .... ....|--- .... ....
....|..|--- .... ....|--- .... ....|--- .... ....
....|..|--- .... ....|--- .... ....|--- .... ....
....|..|--- .... ....|--- .... ....|--- .... ....
 C-3|..|G-4 2F.F ....|C-5 2C.F ....|D-4 UF2F ....
....|..|--- .... ....|--- .... ....|--- .... ....
....|..|--- .... ....|--- .... ....|--- .... ....
....|..|G-4 2F.A ....|C-5 2F.A ....|D-4 UF2A ....
....|..|--- .... ....|--- .... ....|--- .... ....
....|..|--- .... ....|--- .... ....|--- .... ....
....|..|G-4 2F.7 ....|C-5 2F.7 ....|D-4 UF27 ....
....|..|--- .... ....|--- .... ....|--- .... ....
....|..|--- .... ....|--- .... ....|--- .... ....
....|..|--- .... ....|--- .... ....|--- .... ....
....|..|--- .... ....|--- .... ....|--- .... ....
....|..|--- .... ....|--- .... ....|--- .... ....
 A#3|..|--- .... ....|A#4 2C.F ....|--- .... ....
....|..|--- .... ....|--- .... ....|--- .... ....
....|..|--- .... ....|--- .... ....|--- .... ....
....|..|--- .... ....|A#4 2F.A ....|--- .... ....
....|..|--- .... ....|--- .... ....|--- .... ....
....|..|--- .... ....|--- .... ....|--- .... ....
....|..|--- .... ....|A#4 2F.7 ....|--- .... ....
....|..|--- .... ....|--- .... ....|--- .... ....
....|..|--- .... ....|--- .... ....|--- .... ....
....|..|--- .... ....|--- .... ....|--- .... ....
....|..|--- .... ....|--- .... ....|--- .... ....
....|..|--- .... ....|--- .... ....|--- .... ....
....|..|--- .... ....|--- .... ....|--- .... ....
....|..|--- .... ....|--- .... ....|--- .... ....
....|..|--- .... ....|--- .... ....|--- .... ....
....|..|--- .... ....|--- .... ....|--- .... ....
 C-3|..|--- .... ....|C-5 2C.F ....|--- .... ....
....|..|--- .... ....|--- .... ....|--- .... ....
 D-4|..|--- .... ....|D-5 2C.F ....|--- .... ....
....|..|--- .... ....|C-5 2F.A ....|--- .... ....

[Pattern1]
 D#4|..|A#4 2F.F ....|D#5 2C.F ....|G-4 UF1F ....
....|..|--- .... ....|D-5 2F.A ....|--- .... ....
....|..|--- .... ....|C-5 2F.7 ....|--- .... ....
....|..|A#4 2F.A ....|D#5 2F.A ....|G-4 UF1A ....
....|..|--- .... ....|D-5 2F.7 ....|--- .... ....
....|..|--- .... ....|--- .... ....|--- .... ....
....|..|A#4 2F.7 ....|D#5 2F.7 ....|G-4 UF17 ....
....|..|--- .... ....|R-- .... ....|--- .... ....
 D-4|..|--- .... ....|D-5 2C.F ....|--- .... ....
....|..|--- .... ....|--- .... ....|--- .... ....
....|..|--- .... ....|R-- .... ....|--- .... ....
....|..|--- .... ....|D-5 2F.A ....|--- .... ....
....|..|--- .... ....|--- .... ....|--- .... ....
....|..|--- .... ....|R-- .... ....|--- .... ....
....|..|--- .... ....|D-5 2F.7 ....|--- .... ....
....|..|--- .... ....|--- .... ....|--- .... ....
 D-4|..|--- .... ....|D-5 2C.F ....|--- .... ....
 C-3|..|--- .... ....|C-5 2C.F ....|--- .... ....
....|..|--- .... ....|--- .... ....|--- .... ....
....|..|--- .... ....|D-5 2F.A ....|--- .... ....
....|..|--- .... ....|C-5 2F.A ....|--- .... ....
....|..|--- .... ....|--- .... ....|--- .... ....
....|..|--- .... ....|D-5 2F.7 ....|--- .... ....
....|..|--- .... ....|C-5 2F.7 ....|--- .... ....
 C-3|..|--- .... ....|C-5 2C.F ....|--- .... ....
 A#3|..|--- .... ....|A#4 2C.F ....|--- .... ....
....|..|--- .... ....|--- .... ....|--- .... ....
....|..|--- .... ....|C-5 2F.A ....|--- .... ....
....|..|--- .... ....|A#4 2F.A ....|--- .... ....
....|..|--- .... ....|--- .... ....|--- .... ....
....|..|--- .... ....|C-5 2F.7 ....|--- .... ....
....|..|--- .... ....|A#4 2F.7 ....|--- .... ....
 D-4|..|G-4 2F.F ....|D-5 2C.F ....|D-4 UF2F ....
....|..|--- .... ....|--- .... ....|--- .... ....
....|..|--- .... ....|--- .... ....|--- .... ....
....|..|G-4 2F.A ....|D-5 2F.A ....|D-4 UF2A ....
....|..|--- .... ....|--- .... ....|--- .... ....
....|..|--- .... ....|--- .... ....|--- .... ....
....|..|G-4 2F.7 ....|D-5 2F.7 ....|D-4 UF27 ....
....|..|--- .... ....|--- .... ....|--- .... ....
....|..|--- .... ....|--- .... ....|--- .... ....
....|..|--- .... ....|--- .... ....|--- .... ....
....|..|--- .... ....|--- .... ....|--- .... ....
....|..|--- .... ....|--- .... ....|--- .... ....
....|..|--- .... ....|R-- .... ....|--- .... ....
....|..|--- .... ....|--- .... ....|--- .... ....
....|..|--- .... ....|--- .... ....|--- .... ....
....|..|--- .... ....|R-- .... ....|--- .... ....
....|..|--- .... ....|--- .... ....|--- .... ....
....|..|--- .... ....|--- .... ....|--- .... ....
....|..|--- .... ....|R-- .... ....|--- .... ....
....|..|--- .... ....|--- .... ....|--- .... ....
....|..|--- .... ....|--- .... ....|--- .... ....
....|..|--- .... ....|--- .... ....|--- .... ....
....|..|--- .... ....|--- .... ....|--- .... ....
....|..|--- .... ....|--- .... ....|--- .... ....
....|..|--- .... ....|--- .... ....|--- .... ....
....|..|--- .... ....|--- .... ....|--- .... ....
....|..|--- .... ....|--- .... ....|--- .... ....
....|..|--- .... ....|--- .... ....|--- .... ....
 C-3|..|--- .... ....|C-5 2C.F ....|--- .... ....
....|..|--- .... ....|--- .... ....|--- .... ....
 D-4|..|--- .... ....|D-5 2C.F ....|--- .... ....
....|..|--- .... ....|C-5 2F.A ....|--- .... ....

[Pattern2]
 D#4|..|A#4 2F.F ....|D#5 2C.F ....|G-4 UF1F ....
....|..|--- .... ....|D-5 2F.A ....|--- .... ....
....|..|--- .... ....|C-5 2F.7 ....|--- .... ....
....|..|A#4 2F.A ....|D#5 2F.A ....|G-4 UF1A ....
....|..|--- .... ....|D-5 2F.7 ....|--- .... ....
....|..|--- .... ....|--- .... ....|--- .... ....
....|..|A#4 2F.7 ....|D#5 2F.7 ....|G-4 UF17 ....
....|..|--- .... ....|--- .... ....|--- .... ....
 D-4|..|--- .... ....|D-5 2C.F ....|--- .... ....
....|..|--- .... ....|--- .... ....|--- .... ....
....|..|--- .... ....|--- .... ....|--- .... ....
....|..|--- .... ....|D-5 2F.A ....|--- .... ....
....|..|--- .... ....|--- .... ....|--- .... ....
....|..|--- .... ....|--- .... ....|--- .... ....
....|..|--- .... ....|D-5 2F.7 ....|--- .... ....
....|..|--- .... ....|--- .... ....|--- .... ....
 C-3|..|--- .... ....|C-5 2C.F ....|--- .... ....
....|..|--- .... ....|--- .... ....|--- .... ....
....|..|--- .... ....|--- .... ....|--- .... ....
....|..|--- .... ....|C-5 2F.A ....|--- .... ....
....|..|--- .... ....|--- .... ....|--- .... ....
....|..|--- .... ....|--- .... ....|--- .... ....
....|..|--- .... ....|C-5 2F.7 ....|--- .... ....
....|..|--- .... ....|--- .... ....|--- .... ....
....|..|--- .... ....|--- .... ....|--- .... ....
....|..|--- .... ....|--- .... ....|--- .... ....
....|..|--- .... ....|--- .... ....|--- .... ....
....|..|--- .... ....|R-- .... ....|--- .... ....
 C-3|..|--- .... ....|C-5 2C.F ....|--- .... ....
....|..|--- .... ....|--- .... ....|--- .... ....
 A#3|..|--- .... ....|A#4 2C.F ....|--- .... ....
....|..|--- .... ....|C-5 2F.A ....|--- .... ....
 D-4|..|G-4 2F.F ....|D-5 2C.F ....|D-4 UF2F ....
....|..|--- .... ....|A#4 2F.A ....|--- .... ....
....|..|--- .... ....|C-5 2F.7 ....|--- .... ....
....|..|G-4 2F.A ....|D-5 2F.A ....|D-4 UF2A ....
....|..|--- .... ....|A#4 2F.7 ....|--- .... ....
....|..|--- .... ....|--- .... ....|--- .... ....
....|..|G-4 2F.7 ....|D-5 2F.7 ....|D-4 UF27 ....
....|..|--- .... ....|R-- .... ....|--- .... ....
 A#3|..|--- .... ....|A#4 2C.F ....|--- .... ....
....|..|--- .... ....|--- .... ....|--- .... ....
....|..|--- .... ....|R-- .... ....|--- .... ....
....|..|--- .... ....|A#4 2F.A ....|--- .... ....
....|..|--- .... ....|--- .... ....|--- .... ....
....|..|--- .... ....|R-- .... ....|--- .... ....
....|..|--- .... ....|A#4 2F.7 ....|--- .... ....
....|..|--- .... ....|--- .... ....|--- .... ....
 G-4|..|--- .... ....|G-4 2C.F ....|--- .... ....
....|..|--- .... ....|--- .... ....|--- .... ....
....|..|--- .... ....|--- .... ....|--- .... ....
....|..|--- .... ....|G-4 2F.A ....|--- .... ....
....|..|--- .... ....|--- .... ....|--- .... ....
....|..|--- .... ....|--- .... ....|--- .... ....
....|..|--- .... ....|G-4 2F.7 ....|--- .... ....
....|..|--- .... ....|--- .... ....|--- .... ....
....|..|--- .... ....|--- .... ....|--- .... ....
....|..|--- .... ....|--- .... ....|--- .... ....
....|..|--- .... ....|--- .... ....|--- .... ....
....|..|--- .... ....|R-- .... ....|--- .... ....
 G-4|..|--- .... ....|G-4 2C.F ....|--- .... ....
....|..|--- .... ....|--- .... ....|--- .... ....
 A-3|..|--- .... ....|A-4 2C.F ....|--- .... ....
....|..|--- .... ....|G-4 2F.A ....|--- .... ....

[Pattern3]
 A#3|..|G-4 2F.F ....|A#4 2C.F ....|D#4 UF3F ....
....|..|--- .... ....|A-4 2F.A ....|--- .... ....
....|..|--- .... ....|G-4 2F.7 ....|--- .... ....
....|..|G-4 2F.A ....|A#4 2F.A ....|D#4 UF3A ....
....|..|--- .... ....|A-4 2F.7 ....|--- .... ....
....|..|--- .... ....|--- .... ....|--- .... ....
....|..|G-4 2F.7 ....|A#4 2F.7 ....|D#4 UF37 ....
....|..|--- .... ....|R-- .... ....|--- .... ....
 A-3|..|--- .... ....|A-4 2C.F ....|--- .... ....
....|..|--- .... ....|--- .... ....|--- .... ....
....|..|--- .... ....|R-- .... ....|--- .... ....
....|..|--- .... ....|A-4 2F.A ....|--- .... ....
....|..|--- .... ....|--- .... ....|--- .... ....
....|..|--- .... ....|R-- .... ....|--- .... ....
....|..|--- .... ....|A-4 2F.7 ....|--- .... ....
....|..|--- .... ....|--- .... ....|--- .... ....
 G-4|..|--- .... ....|G-4 2C.F ....|--- .... ....
....|..|--- .... ....|--- .... ....|--- .... ....
....|..|--- .... ....|--- .... ....|--- .... ....
....|..|--- .... ....|G-4 2F.A ....|--- .... ....
....|..|--- .... ....|--- .... ....|--- .... ....
....|..|--- .... ....|--- .... ....|--- .... ....
....|..|--- .... ....|G-4 2F.7 ....|--- .... ....
....|..|--- .... ....|R-- .... ....|--- .... ....
 F-4|..|--- .... ....|F-4 2C.F ....|--- .... ....
....|..|--- .... ....|--- .... ....|--- .... ....
....|..|--- .... ....|R-- .... ....|--- .... ....
....|..|--- .... ....|F-4 2F.A ....|--- .... ....
....|..|--- .... ....|--- .... ....|--- .... ....
....|..|--- .... ....|R-- .... ....|--- .... ....
....|..|--- .... ....|F-4 2F.7 ....|--- .... ....
....|..|--- .... ....|R-- .... ....|--- .... ....
 G-4|..|G-4 2C.F ....|G-4 2C.F ....|A#3 UF4F ....
....|..|--- .... ....|--- .... ....|--- .... ....
....|..|--- .... ....|R-- .... ....|--- .... ....
....|..|G-4 2F.A ....|G-4 2F.A ....|A#3 UF4A ....
....|..|--- .... ....|--- .... ....|--- .... ....
....|..|--- .... ....|R-- .... ....|--- .... ....
....|..|G-4 2F.7 ....|G-4 2F.7 ....|A#3 UF47 ....
....|..|--- .... ....|--- .... ....|--- .... ....
....|..|--- .... ....|--- .... ....|--- .... ....
....|..|--- .... ....|--- .... ....|--- .... ....
....|..|--- .... ....|--- .... ....|--- .... ....
....|..|--- .... ....|--- .... ....|--- .... ....
....|..|--- .... ....|--- .... ....|--- .... ....
....|..|--- .... ....|--- .... ....|--- .... ....
....|..|--- .... ....|--- .... ....|--- .... ....
....|..|--- .... ....|--- .... ....|--- .... ....
....|..|--- .... ....|--- .... ....|--- .... ....
....|..|--- .... ....|--- .... ....|--- .... ....
....|..|--- .... ....|--- .... ....|--- .... ....
....|..|--- .... ....|--- .... ....|--- .... ....
....|..|--- .... ....|--- .... ....|--- .... ....
....|..|--- .... ....|--- .... ....|--- .... ....
....|..|--- .... ....|--- .... ....|--- .... ....
....|..|--- .... ....|--- .... ....|--- .... ....
....|..|--- .... ....|--- .... ....|--- .... ....
....|..|--- .... ....|--- .... ....|--- .... ....
....|..|--- .... ....|--- .... ....|--- .... ....
....|..|--- .... ....|R-- .... ....|--- .... ....
....|..|--- .... ....|--- .... ....|--- .... ....
....|..|--- .... ....|--- .... ....|--- .... ....
....|..|--- .... ....|R-- .... ....|--- .... ....
....|..|--- .... ....|--- .... ....|--- .... ....

[Pattern4]
....|..|C-4 AF.F ....|--- .... ....|D-4 UF5F ....
 A-3|..|A-4 2C.F ....|R-- .... ....|--- .... ....
....|..|--- .... ....|--- .... ....|--- .... ....
....|..|C-4 AF.A ....|--- .... ....|D-4 UF5A ....
....|..|A-4 2F.A ....|--- .... ....|--- .... ....
....|..|--- .... ....|--- .... ....|--- .... ....
....|..|C-4 AF.7 ....|--- .... ....|D-4 UF57 ....
....|..|A-4 2F.7 ....|--- .... ....|--- .... ....
....|..|C-4 AF.F ....|--- .... ....|--- .... ....
....|..|--- .... ....|--- .... ....|--- .... ....
....|..|--- .... ....|--- .... ....|--- .... ....
....|..|C-4 AF.A ....|--- .... ....|--- .... ....
....|..|--- .... ....|--- .... ....|--- .... ....
....|..|--- .... ....|--- .... ....|--- .... ....
....|..|C-4 AF.7 ....|--- .... ....|--- .... ....
....|..|--- .... ....|--- .... ....|--- .... ....
 A-3|..|C-4 AF.F ....|A-4 2C.F ....|D-4 UF5F ....
 A-3|..|A-4 2C.F ....|--- .... ....|--- .... ....
....|..|--- .... ....|R-- .... ....|--- .... ....
....|..|C-4 AF.A ....|A-4 2F.A ....|D-4 UF5A ....
 A-3|..|A-4 2C.F ....|A-4 2C.F ....|D-4 UF5F ....
....|..|--- .... ....|R-- .... ....|--- .... ....
....|..|C-4 AF.7 ....|A-4 2F.7 ....|D-4 UF57 ....
....|..|A-4 2F.A ....|A-4 2F.A ....|D-4 UF5A ....
 G-4|..|C-4 AF.F ....|G-4 2C.F ....|C-4 UF6F ....
 G-4|..|G-4 2C.F ....|R-- .... ....|--- .... ....
....|..|A-4 2F.7 ....|A-4 2F.7 ....|D-4 UF57 ....
....|..|C-4 AF.A ....|G-4 2F.A ....|C-4 UF6A ....
 C-3|..|C-5 2C.F ....|C-5 2C.F ....|C-4 UF3F ....
....|..|--- .... ....|R-- .... ....|--- .... ....
....|..|C-4 AF.7 ....|G-4 2F.7 ....|C-4 UF67 ....
....|..|C-5 2F.A ....|C-5 2F.A ....|C-4 UF3A ....
....|..|C-4 AF.F ....|R-- .... ....|F-4 UF6F ....
 C-3|..|C-5 2C.F ....|--- .... ....|--- .... ....
 A#3|..|C-5 2F.7 ....|A#4 2C.F ....|C-4 UF37 ....
....|..|C-4 AF.A ....|--- .... ....|F-4 UF6A ....
 A-3|..|C-5 2F.A ....|A-4 2C.F ....|--- .... ....
....|..|--- .... ....|A#4 2F.A ....|--- .... ....
....|..|C-4 AF.7 ....|--- .... ....|F-4 UF67 ....
....|..|C-5 2F.7 ....|A-4 2F.A ....|--- .... ....
....|..|C-4 AF.F ....|A#4 2F.7 ....|--- .... ....
....|..|--- .... ....|--- .... ....|--- .... ....
....|..|--- .... ....|A-4 2F.7 ....|--- .... ....
....|..|C-4 AF.A ....|--- .... ....|--- .... ....
....|..|--- .... ....|--- .... ....|--- .... ....
....|..|--- .... ....|--- .... ....|--- .... ....
....|..|C-4 AF.7 ....|--- .... ....|--- .... ....
....|..|--- .... ....|--- .... ....|--- .... ....
....|..|C-4 AF.F ....|--- .... ....|F-4 UF3F ....
 A-3|..|A-4 2C.F ....|--- .... ....|--- .... ....
....|..|--- .... ....|R-- .... ....|--- .... ....
....|..|C-4 AF.A ....|--- .... ....|F-4 UF3A ....
 A-3|..|A-4 2C.F ....|A-4 2C.F ....|F-4 UF3F ....
....|..|--- .... ....|R-- .... ....|--- .... ....
....|..|C-4 AF.7 ....|--- .... ....|F-4 UF37 ....
....|..|A-4 2F.A ....|A-4 2F.A ....|F-4 UF3A ....
 G-4|..|C-4 AF.F ....|G-4 2C.F ....|C-4 UF6F ....
 G-4|..|G-4 2C.F ....|--- .... ....|--- .... ....
....|..|A-4 2F.7 ....|A-4 2F.7 ....|F-4 UF37 ....
....|..|C-4 AF.A ....|G-4 2F.A ....|C-4 UF6A ....
 F-4|..|F-4 2C.F ....|F-4 2C.F ....|C-4 UF7F ....
....|..|--- .... ....|--- .... ....|--- .... ....
....|..|C-4 AF.7 ....|G-4 2F.7 ....|C-4 UF67 ....
....|..|F-4 2F.A ....|F-4 2F.A ....|C-4 UF7A ....

[Pattern5]
....|..|C-4 AF.F ....|--- .... ....|A-3 UF8F ....
 F-4|..|F-4 2C.F ....|R-- .... ....|--- .... ....
....|..|F-4 2F.7 ....|F-4 2F.7 ....|C-4 UF77 ....
....|..|C-4 AF.A ....|--- .... ....|A-3 UF8A ....
....|..|F-4 2F.A ....|R-- .... ....|--- .... ....
....|..|--- .... ....|--- .... ....|--- .... ....
....|..|C-4 AF.7 ....|--- .... ....|A-3 UF87 ....
....|..|F-4 2F.7 ....|R-- .... ....|--- .... ....
....|..|C-4 AF.F ....|--- .... ....|--- .... ....
....|..|--- .... ....|--- .... ....|--- .... ....
....|..|--- .... ....|--- .... ....|--- .... ....
....|..|C-4 AF.A ....|--- .... ....|--- .... ....
....|..|--- .... ....|--- .... ....|--- .... ....
....|..|--- .... ....|--- .... ....|--- .... ....
....|..|C-4 AF.7 ....|--- .... ....|--- .... ....
....|..|--- .... ....|--- .... ....|--- .... ....
 F-4|..|C-4 AF.F ....|F-4 2C.F ....|A-3 UF8F ....
 F-4|..|F-4 2C.F ....|--- .... ....|--- .... ....
....|..|--- .... ....|--- .... ....|--- .... ....
....|..|C-4 AF.A ....|F-4 2F.A ....|A-3 UF8A ....
 G-4|..|G-4 2C.F ....|G-4 2C.F ....|A-3 UF9F ....
....|..|--- .... ....|--- .... ....|--- .... ....
....|..|C-4 AF.7 ....|F-4 2F.7 ....|A-3 UF87 ....
....|..|G-4 2F.A ....|G-4 2F.A ....|A-3 UF9A ....
 A-3|..|C-4 AF.F ....|A-4 2C.F ....|C-4 UF4F ....
 A-3|..|A-4 2C.F ....|R-- .... ....|--- .... ....
....|..|G-4 2F.7 ....|G-4 2F.7 ....|A-3 UF97 ....
....|..|C-4 AF.A ....|A-4 2F.A ....|C-4 UF4A ....
 G-4|..|G-4 2C.F ....|G-4 2C.F ....|C-4 UF6F ....
....|..|--- .... ....|--- .... ....|--- .... ....
....|..|C-4 AF.7 ....|A-4 2F.7 ....|C-4 UF47 ....
....|..|G-4 2F.A ....|G-4 2F.A ....|C-4 UF6A ....
 F-4|..|C-4 AF.F ....|F-4 2C.F ....|A-3 UFAF ....
 F-4|..|F-4 2C.F ....|--- .... ....|--- .... ....
....|..|G-4 2F.7 ....|G-4 2F.7 ....|C-4 UF67 ....
....|..|C-4 AF.A ....|F-4 2F.A ....|A-3 UFAA ....
....|..|F-4 2F.A ....|--- .... ....|--- .... ....
....|..|--- .... ....|--- .... ....|--- .... ....
....|..|C-4 AF.7 ....|F-4 2F.7 ....|A-3 UFA7 ....
....|..|F-4 2F.7 ....|--- .... ....|--- .... ....
....|..|C-4 AF.F ....|--- .... ....|--- .... ....
....|..|--- .... ....|R-- .... ....|--- .... ....
....|..|--- .... ....|--- .... ....|--- .... ....
....|..|C-4 AF.A ....|--- .... ....|--- .... ....
....|..|--- .... ....|R-- .... ....|--- .... ....
....|..|--- .... ....|--- .... ....|--- .... ....
....|..|C-4 AF.7 ....|--- .... ....|--- .... ....
....|..|--- .... ....|--- .... ....|--- .... ....
....|..|C-4 AF.F ....|--- .... ....|--- .... ....
....|..|--- .... ....|--- .... ....|--- .... ....
....|..|--- .... ....|--- .... ....|--- .... ....
....|..|C-4 AF.A ....|--- .... ....|--- .... ....
....|..|--- .... ....|--- .... ....|--- .... ....
....|..|--- .... ....|--- .... ....|--- .... ....
....|..|C-4 AF.7 ....|--- .... ....|--- .... ....
....|..|--- .... ....|--- .... ....|--- .... ....
....|..|C-4 AF.F ....|--- .... ....|C-4 UF6F ....
 G-4|..|G-4 2C.F ....|--- .... ....|--- .... ....
....|..|--- .... ....|--- .... ....|--- .... ....
....|..|C-4 AF.A ....|--- .... ....|C-4 UF6A ....
....|..|G-4 2F.A ....|--- .... ....|--- .... ....
....|..|--- .... ....|--- .... ....|--- .... ....
....|..|C-4 AF.7 ....|--- .... ....|C-4 UF67 ....
....|..|G-4 2F.7 ....|--- .... ....|--- .... ....

[Pattern6]
....|..|C-4 AF.F ....|--- .... ....|D-4 UF5F ....
 A-3|..|A-4 2C.F ....|--- .... ....|--- .... ....
....|..|--- .... ....|--- .... ....|--- .... ....
....|..|C-4 AF.A ....|--- .... ....|D-4 UF5A ....
....|..|A-4 2F.A ....|--- .... ....|--- .... ....
....|..|--- .... ....|--- .... ....|--- .... ....
....|..|C-4 AF.7 ....|--- .... ....|D-4 UF57 ....
....|..|A-4 2F.7 ....|--- .... ....|--- .... ....
....|..|C-4 AF.F ....|--- .... ....|--- .... ....
....|..|--- .... ....|--- .... ....|--- .... ....
....|..|--- .... ....|--- .... ....|--- .... ....
....|..|C-4 AF.A ....|--- .... ....|--- .... ....
....|..|--- .... ....|--- .... ....|--- .... ....
....|..|--- .... ....|--- .... ....|--- .... ....
....|..|C-4 AF.7 ....|--- .... ....|--- .... ....
....|..|--- .... ....|--- .... ....|--- .... ....
 A-3|..|C-4 AF.F ....|A-4 2C.F ....|D-4 UF5F ....
 A-3|..|A-4 2C.F ....|--- .... ....|--- .... ....
....|..|--- .... ....|R-- .... ....|--- .... ....
....|..|C-4 AF.A ....|A-4 2F.A ....|D-4 UF5A ....
 A-3|..|A-4 2C.F ....|A-4 2C.F ....|D-4 UF5F ....
....|..|--- .... ....|R-- .... ....|--- .... ....
....|..|C-4 AF.7 ....|A-4 2F.7 ....|D-4 UF57 ....
....|..|A-4 2F.A ....|A-4 2F.A ....|D-4 UF5A ....
 G-4|..|C-4 AF.F ....|G-4 2C.F ....|C-4 UF6F ....
 G-4|..|G-4 2C.F ....|--- .... ....|--- .... ....
....|..|A-4 2F.7 ....|A-4 2F.7 ....|D-4 UF57 ....
....|..|C-4 AF.A ....|G-4 2F.A ....|C-4 UF6A ....
 C-3|..|C-5 2C.F ....|C-5 2C.F ....|C-4 UF3F ....
....|..|--- .... ....|R-- .... ....|--- .... ....
....|..|C-4 AF.7 ....|G-4 2F.7 ....|C-4 UF67 ....
....|..|C-5 2F.A ....|C-5 2F.A ....|C-4 UF3A ....
....|..|C-4 AF.F ....|--- .... ....|F-4 UF6F ....
 C-3|..|C-5 2C.F ....|R-- .... ....|--- .... ....
 C-3|..|C-5 2F.7 ....|C-5 2C.F ....|C-4 UF37 ....
 A#3|..|C-4 AF.A ....|A#4 2C.F ....|F-4 UF6A ....
 A-3|..|C-5 2F.A ....|A-4 2C.F ....|--- .... ....
....|..|--- .... ....|C-5 2F.A ....|--- .... ....
....|..|C-4 AF.7 ....|A#4 2F.A ....|F-4 UF67 ....
....|..|C-5 2F.7 ....|A-4 2F.A ....|--- .... ....
....|..|C-4 AF.F ....|C-5 2F.7 ....|--- .... ....
....|..|--- .... ....|A#4 2F.7 ....|--- .... ....
....|..|--- .... ....|A-4 2F.7 ....|--- .... ....
....|..|C-4 AF.A ....|--- .... ....|--- .... ....
....|..|--- .... ....|--- .... ....|--- .... ....
....|..|--- .... ....|--- .... ....|--- .... ....
....|..|C-4 AF.7 ....|--- .... ....|--- .... ....
....|..|--- .... ....|--- .... ....|--- .... ....
....|..|C-4 AF.F ....|R-- .... ....|F-4 UF3F ....
 A-3|..|A-4 2C.F ....|--- .... ....|--- .... ....
....|..|--- .... ....|--- .... ....|--- .... ....
....|..|C-4 AF.A ....|R-- .... ....|F-4 UF3A ....
 A-3|..|A-4 2C.F ....|A-4 2C.F ....|F-4 UF3F ....
....|..|--- .... ....|--- .... ....|--- .... ....
....|..|C-4 AF.7 ....|R-- .... ....|F-4 UF37 ....
....|..|A-4 2F.A ....|A-4 2F.A ....|F-4 UF3A ....
 G-4|..|C-4 AF.F ....|G-4 2C.F ....|C-4 UF6F ....
 G-4|..|G-4 2C.F ....|--- .... ....|--- .... ....
....|..|A-4 2F.7 ....|A-4 2F.7 ....|F-4 UF37 ....
....|..|C-4 AF.A ....|G-4 2F.A ....|C-4 UF6A ....
 F-4|..|F-4 2C.F ....|F-4 2C.F ....|C-4 UF7F ....
....|..|--- .... ....|R-- .... ....|--- .... ....
....|..|C-4 AF.7 ....|G-4 2F.7 ....|C-4 UF67 ....
....|..|F-4 2F.A ....|F-4 2F.A ....|C-4 UF7A ....

[Pattern7]
....|..|C-4 AF.F ....|--- .... ....|A-3 UF8F ....
 F-4|..|F-4 2C.F ....|--- .... ....|--- .... ....
....|..|F-4 2F.7 ....|F-4 2F.7 ....|C-4 UF77 ....
....|..|C-4 AF.A ....|--- .... ....|A-3 UF8A ....
....|..|F-4 2F.A ....|--- .... ....|--- .... ....
....|..|--- .... ....|--- .... ....|--- .... ....
....|..|C-4 AF.7 ....|--- .... ....|A-3 UF87 ....
....|..|F-4 2F.7 ....|--- .... ....|--- .... ....
....|..|C-4 AF.F ....|R-- .... ....|--- .... ....
....|..|--- .... ....|--- .... ....|--- .... ....
....|..|--- .... ....|--- .... ....|--- .... ....
....|..|C-4 AF.A ....|R-- .... ....|--- .... ....
 D-4|..|D-4 2C.F ....|D-4 2C.F ....|A-3 UF2F ....
....|..|--- .... ....|--- .... ....|--- .... ....
....|..|C-4 AF.7 ....|R-- .... ....|--- .... ....
....|..|D-4 2F.A ....|D-4 2F.A ....|A-3 UF2A ....
 F-4|..|C-4 AF.F ....|F-4 2C.F ....|A-3 UF8F ....
 F-4|..|F-4 2C.F ....|--- .... ....|--- .... ....
....|..|D-4 2F.7 ....|D-4 2F.7 ....|A-3 UF27 ....
....|..|C-4 AF.A ....|F-4 2F.A ....|A-3 UF8A ....
 G-4|..|G-4 2C.F ....|G-4 2C.F ....|A-3 UF9F ....
....|..|--- .... ....|--- .... ....|--- .... ....
....|..|C-4 AF.7 ....|F-4 2F.7 ....|A-3 UF87 ....
....|..|G-4 2F.A ....|G-4 2F.A ....|A-3 UF9A ....
 A-3|..|C-4 AF.F ....|A-4 2C.F ....|C-4 UF4F ....
 A-3|..|A-4 2C.F ....|--- .... ....|--- .... ....
....|..|G-4 2F.7 ....|G-4 2F.7 ....|A-3 UF97 ....
....|..|C-4 AF.A ....|A-4 2F.A ....|C-4 UF4A ....
 G-4|..|G-4 2C.F ....|G-4 2C.F ....|C-4 UF6F ....
....|..|--- .... ....|--- .... ....|--- .... ....
....|..|C-4 AF.7 ....|A-4 2F.7 ....|C-4 UF47 ....
....|..|G-4 2F.A ....|G-4 2F.A ....|C-4 UF6A ....
 F-4|..|C-4 AF.F ....|F-4 2C.F ....|A-3 UFAF ....
 F-4|..|F-4 2C.F ....|--- .... ....|--- .... ....
....|..|G-4 2F.7 ....|G-4 2F.7 ....|C-4 UF67 ....
....|..|C-4 AF.A ....|F-4 2F.A ....|A-3 UFAA ....
....|..|F-4 2F.A ....|--- .... ....|--- .... ....
....|..|--- .... ....|R-- .... ....|--- .... ....
....|..|C-4 AF.7 ....|F-4 2F.7 ....|A-3 UFA7 ....
....|..|F-4 2F.7 ....|--- .... ....|--- .... ....
....|..|C-4 AF.F ....|R-- .... ....|--- .... ....
....|..|--- .... ....|--- .... ....|--- .... ....
....|..|--- .... ....|--- .... ....|--- .... ....
....|..|C-4 AF.A ....|R-- .... ....|--- .... ....
....|..|--- .... ....|--- .... ....|--- .... ....
....|..|--- .... ....|--- .... ....|--- .... ....
....|..|C-4 AF.7 ....|--- .... ....|--- .... ....
....|..|--- .... ....|--- .... ....|--- .... ....
....|..|C-4 AF.F ....|--- .... ....|A-3 UF1F ....
 C-3|..|C-4 2C.F ....|--- .... ....|--- .... ....
....|..|--- .... ....|--- .... ....|--- .... ....
....|..|C-4 AF.A ....|--- .... ....|A-3 UF1A ....
 A-3|..|A-4 2C.F ....|A-4 2C.F ....|A-3 UF1F ....
....|..|--- .... ....|--- .... ....|--- .... ....
....|..|C-4 AF.7 ....|--- .... ....|A-3 UF17 ....
....|..|A-4 2F.A ....|A-4 2F.A ....|A-3 UF1A ....
 A-3|..|C-4 AF.F ....|A-4 2C.F ....|C-4 UF6F ....
 G-4|..|G-4 2C.F ....|G-4 2C.F ....|--- .... ....
....|..|A-4 2F.7 ....|A-4 2F.7 ....|A-3 UF17 ....
....|..|C-4 AF.A ....|A-4 2F.A ....|C-4 UF6A ....
 D-4|..|D-5 2C.F ....|D-5 2C.F ....|C-4 UF3F ....
....|..|--- .... ....|--- .... ....|--- .... ....
....|..|C-4 AF.7 ....|A-4 2F.7 ....|C-4 UF67 ....
....|..|D-5 2F.A ....|G-4 2F.7 ....|C-4 UF3A ....

[Pattern8]
....|..|C-4 AF.F ....|--- .... ....|F-4 UF4F ....
 D-4|..|D-5 2C.F ....|--- .... ....|--- .... ....
....|..|D-5 2F.7 ....|D-5 2F.7 ....|C-4 UF37 ....
....|..|C-4 AF.A ....|--- .... ....|F-4 UF4A ....
....|..|D-5 2F.A ....|--- .... ....|--- .... ....
....|..|--- .... ....|--- .... ....|--- .... ....
....|..|C-4 AF.7 ....|--- .... ....|F-4 UF47 ....
....|..|D-5 2F.7 ....|--- .... ....|--- .... ....
....|..|C-4 AF.F ....|--- .... ....|--- .... ....
....|..|--- .... ....|--- .... ....|--- .... ....
....|..|--- .... ....|R-- .... ....|--- .... ....
....|..|C-4 AF.A ....|--- .... ....|--- .... ....
....|..|--- .... ....|--- .... ....|--- .... ....
....|..|--- .... ....|R-- .... ....|--- .... ....
....|..|C-4 AF.7 ....|--- .... ....|--- .... ....
....|..|--- .... ....|--- .... ....|--- .... ....
....|..|C-4 AF.F ....|R-- .... ....|--- .... ....
....|..|--- .... ....|--- .... ....|--- .... ....
....|..|--- .... ....|--- .... ....|--- .... ....
....|..|C-4 AF.A ....|--- .... ....|--- .... ....
 A-3|..|A-4 2C.F ....|A-4 2C.F ....|D-4 UF5F ....
....|..|--- .... ....|--- .... ....|--- .... ....
....|..|C-4 AF.7 ....|--- .... ....|--- .... ....
....|..|A-4 2F.A ....|A-4 2F.A ....|D-4 UF5A ....
....|..|C-4 AF.F ....|--- .... ....|D-4 UF5F ....
 A-3|..|A-4 2C.F ....|--- .... ....|--- .... ....
....|..|A-4 2F.7 ....|A-4 2F.7 ....|D-4 UF57 ....
....|..|C-4 AF.A ....|--- .... ....|D-4 UF5A ....
 E-4|..|E-5 2C.F ....|E-5 2C.F ....|A-4 UF5F ....
....|..|--- .... ....|--- .... ....|--- .... ....
....|..|C-4 AF.7 ....|--- .... ....|D-4 UF57 ....
....|..|E-5 2F.A ....|E-5 2F.A ....|A-4 UF5A ....
....|..|C-4 AF.F ....|--- .... ....|A-4 UF5F ....
 E-4|..|E-5 2C.F ....|--- .... ....|--- .... ....
....|..|E-5 2F.7 ....|E-5 2F.7 ....|A-4 UF57 ....
....|..|C-4 AF.A ....|--- .... ....|A-4 UF5A ....
....|..|E-5 2F.A ....|--- .... ....|--- .... ....
....|..|--- .... ....|--- .... ....|--- .... ....
....|..|C-4 AF.7 ....|--- .... ....|A-4 UF57 ....
....|..|E-5 2F.7 ....|--- .... ....|--- .... ....
....|..|C-4 AF.F ....|--- .... ....|--- .... ....
....|..|--- .... ....|--- .... ....|--- .... ....
....|..|--- .... ....|--- .... ....|--- .... ....
....|..|C-4 AF.A ....|--- .... ....|--- .... ....
....|..|--- .... ....|--- .... ....|--- .... ....
....|..|--- .... ....|--- .... ....|--- .... ....
....|..|C-4 AF.7 ....|--- .... ....|--- .... ....
....|..|--- .... ....|--- .... ....|--- .... ....
....|..|C-4 AF.F ....|R-- .... ....|E-4 UF8F ....
 C-3|..|C-5 2C.F ....|--- .... ....|--- .... ....
....|..|--- .... ....|--- .... ....|--- .... ....
....|..|C-4 AF.A ....|R-- .... ....|E-4 UF8A ....
 C-3|..|C-5 2C.F ....|C-5 2C.F ....|E-4 UF8F ....
....|..|--- .... ....|--- .... ....|--- .... ....
....|..|C-4 AF.7 ....|R-- .... ....|E-4 UF87 ....
....|..|C-5 2F.A ....|C-5 2F.A ....|E-4 UF8A ....
 C-3|..|C-4 AF.F ....|C-5 2C.F ....|E-4 UF8F ....
 C-3|..|C-5 2C.F ....|R-- .... ....|--- .... ....
....|..|C-5 2F.7 ....|C-5 2F.7 ....|E-4 UF87 ....
....|..|C-4 AF.A ....|C-5 2F.A ....|E-4 UF8A ....
 E-4|..|E-5 2C.F ....|E-5 2C.F ....|G-4 UFBF ....
....|..|--- .... ....|--- .... ....|--- .... ....
....|..|C-4 AF.7 ....|C-5 2F.7 ....|E-4 UF87 ....
....|..|E-5 2F.A ....|E-5 2F.A ....|G-4 UFBA ....

[Pattern9]
....|..|C-4 AF.F ....|--- .... ....|--- .... ....
....|..|--- .... ....|--- .... ....|--- .... ....
....|..|E-5 2F.7 ....|E-5 2F.7 ....|G-4 UFB7 ....
....|..|C-4 AF.A ....|--- .... ....|--- .... ....
....|..|--- .... ....|--- .... ....|--- .... ....
....|..|--- .... ....|--- .... ....|--- .... ....
....|..|C-4 AF.7 ....|--- .... ....|--- .... ....
....|..|--- .... ....|--- .... ....|--- .... ....
....|..|C-4 AF.F ....|--- .... ....|--- .... ....
....|..|--- .... ....|--- .... ....|--- .... ....
....|..|--- .... ....|--- .... ....|--- .... ....
....|..|C-4 AF.A ....|--- .... ....|--- .... ....
....|..|--- .... ....|--- .... ....|--- .... ....
....|..|--- .... ....|--- .... ....|--- .... ....
....|..|C-4 AF.7 ....|--- .... ....|--- .... ....
....|..|--- .... ....|--- .... ....|--- .... ....
....|..|C-4 AF.F ....|R-- .... ....|E-4 UFAF ....
 C-3|..|C-5 2C.F ....|--- .... ....|--- .... ....
....|..|--- .... ....|--- .... ....|--- .... ....
....|..|C-4 AF.A ....|R-- .... ....|E-4 UFAA ....
 C-3|..|C-5 2C.F ....|C-5 2C.F ....|E-4 UFAF ....
....|..|--- .... ....|--- .... ....|--- .... ....
....|..|C-4 AF.7 ....|R-- .... ....|E-4 UFA7 ....
....|..|C-5 2F.A ....|C-5 2F.A ....|E-4 UFAA ....
....|..|C-4 AF.F ....|--- .... ....|--- .... ....
....|..|--- .... ....|--- .... ....|--- .... ....
....|..|C-5 2F.7 ....|C-5 2F.7 ....|E-4 UFA7 ....
....|..|C-4 AF.A ....|--- .... ....|--- .... ....
 G-4|..|G-5 2C.F ....|G-5 2C.F ....|A#4 UF4F ....
....|..|--- .... ....|--- .... ....|--- .... ....
....|..|C-4 AF.7 ....|--- .... ....|--- .... ....
....|..|G-5 2F.A ....|G-5 2F.A ....|A#4 UF4A ....
....|..|C-4 AF.F ....|--- .... ....|--- .... ....
....|..|--- .... ....|--- .... ....|--- .... ....
 F-4|..|F-5 2C.F ....|F-5 2C.F ....|A#4 UF6F ....
....|..|C-4 AF.A ....|--- .... ....|--- .... ....
 E-4|..|E-5 2C.F ....|E-5 2C.F ....|A#4 UFCF ....
....|..|F-5 2F.A ....|F-5 2F.A ....|A#4 UF6A ....
....|..|C-4 AF.7 ....|--- .... ....|--- .... ....
....|..|E-5 2F.A ....|E-5 2F.A ....|A#4 UFCA ....
....|..|C-4 AF.F ....|F-5 2F.7 ....|A#4 UF67 ....
....|..|F-5 2F.7 ....|--- .... ....|--- .... ....
....|..|E-5 2F.7 ....|E-5 2F.7 ....|A#4 UFC7 ....
....|..|C-4 AF.A ....|--- .... ....|--- .... ....
 F-4|..|F-5 2C.F ....|F-5 2C.F ....|A#4 UF6F ....
....|..|--- .... ....|--- .... ....|--- .... ....
....|..|C-4 AF.7 ....|--- .... ....|--- .... ....
....|..|F-5 2F.A ....|F-5 2F.A ....|A#4 UF6A ....
....|..|C-4 AF.F ....|--- .... ....|--- .... ....
....|..|--- .... ....|--- .... ....|--- .... ....
....|..|F-5 2F.7 ....|F-5 2F.7 ....|A#4 UF67 ....
....|..|C-4 AF.A ....|--- .... ....|--- .... ....
....|..|--- .... ....|--- .... ....|--- .... ....
....|..|--- .... ....|--- .... ....|--- .... ....
....|..|C-4 AF.7 ....|--- .... ....|--- .... ....
....|..|--- .... ....|--- .... ....|--- .... ....
 C-3|..|C-4 AF.F ....|C-5 2C.F ....|A#4 UFDF ....
 D-4|..|D-5 2C.F ....|--- .F.. ....|--- .... ....
....|..|--- .... ....|--- .... ....|--- .... ....
....|..|C-4 AF.A ....|C-5 2F.A ....|A#4 UFDA ....
 F-4|..|F-5 2C.F ....|F-5 2C.F ....|A-4 UFAF ....
....|..|--- .... ....|--- .... ....|--- .... ....
....|..|C-4 AF.7 ....|C-5 2F.7 ....|A#4 UFD7 ....
....|..|F-5 2F.A ....|F-5 2F.A ....|A-4 UFAA ....

[Pattern10]
....|..|C-4 AF.F ....|--- .... ....|--- .... ....
....|..|--- .... ....|--- .... ....|--- .... ....
....|..|F-5 2F.7 ....|F-5 2F.7 ....|A-4 UFA7 ....
....|..|C-4 AF.A ....|--- .... ....|--- .... ....
....|..|--- .... ....|--- .... ....|--- .... ....
....|..|--- .... ....|--- .... ....|--- .... ....
....|..|C-4 AF.7 ....|--- .... ....|--- .... ....
....|..|--- .... ....|--- .... ....|--- .... ....
....|..|C-4 AF.F ....|--- .... ....|--- .... ....
....|..|--- .... ....|--- .... ....|--- .... ....
....|..|--- .... ....|--- .... ....|--- .... ....
....|..|C-4 AF.A ....|--- .... ....|--- .... ....
....|..|--- .... ....|--- .... ....|--- .... ....
....|..|--- .... ....|--- .... ....|--- .... ....
....|..|C-4 AF.7 ....|--- .... ....|--- .... ....
....|..|--- .... ....|--- .... ....|--- .... ....
....|..|C-4 AF.F ....|--- .... ....|--- .... ....
....|..|--- .... ....|--- .... ....|--- .... ....
....|..|--- .... ....|--- .... ....|--- .... ....
....|..|C-4 AF.A ....|--- .... ....|--- .... ....
 C-3|..|C-5 2C.F ....|C-5 2C.F ....|A-4 UF1F ....
....|..|--- .... ....|--- .... ....|--- .... ....
....|..|C-4 AF.7 ....|R-- .... ....|--- .... ....
....|..|C-5 2F.A ....|C-5 2F.A ....|A-4 UF1A ....
 C-3|..|C-4 AF.F ....|C-5 2C.F ....|A-4 UF1F ....
 C-3|..|C-5 2C.F ....|R-- .... ....|--- .... ....
....|..|C-5 2F.7 ....|C-5 2F.7 ....|A-4 UF17 ....
....|..|C-4 AF.A ....|C-5 2F.A ....|A-4 UF1A ....
 G-4|..|G-5 2C.F ....|G-5 2C.F ....|C-4 UF6F ....
....|..|--- .... ....|--- .... ....|--- .... ....
....|..|C-4 AF.7 ....|C-5 2F.7 ....|A-4 UF17 ....
....|..|G-5 2F.A ....|G-5 2F.A ....|C-4 UF6A ....
....|..|C-4 AF.F ....|--- .... ....|--- .... ....
....|..|--- .... ....|R-- .... ....|--- .... ....
....|..|G-5 2F.7 ....|G-5 2F.7 ....|C-4 UF67 ....
....|..|C-4 AF.A ....|--- .... ....|--- .... ....
....|..|--- .... ....|--- .... ....|--- .... ....
....|..|--- .... ....|--- .... ....|--- .... ....
....|..|C-4 AF.7 ....|--- .... ....|--- .... ....
....|..|--- .... ....|--- .... ....|--- .... ....
....|..|C-4 AF.F ....|--- .... ....|--- .... ....
....|..|--- .... ....|--- .... ....|--- .... ....
....|..|--- .... ....|--- .... ....|--- .... ....
....|..|C-4 AF.A ....|--- .... ....|--- .... ....
....|..|--- .... ....|--- .... ....|--- .... ....
....|..|--- .... ....|--- .... ....|--- .... ....
....|..|C-4 AF.7 ....|--- .... ....|--- .... ....
....|..|--- .... ....|--- .... ....|--- .... ....
....|..|C-4 AF.F ....|R-- .... ....|C-4 UF3F ....
 E-4|..|E-5 2C.F ....|--- .... ....|--- .... ....
....|..|--- .... ....|--- .... ....|--- .... ....
....|..|C-4 AF.A ....|R-- .... ....|C-4 UF3A ....
 F-4|..|F-5 2C.F ....|F-5 2C.F ....|C-4 UF7F ....
....|..|--- .... ....|--- .... ....|--- .... ....
....|..|C-4 AF.7 ....|R-- .... ....|C-4 UF37 ....
....|..|F-5 2F.A ....|F-5 2F.A ....|C-4 UF7A ....
 G-4|..|C-4 AF.F ....|G-5 2C.F ....|C-4 UF6F ....
 G-4|..|G-5 2C.F ....|--- .... ....|--- .... ....
....|..|F-5 2F.7 ....|F-5 2F.7 ....|C-4 UF77 ....
....|..|C-4 AF.A ....|G-5 2F.A ....|C-4 UF6A ....
 A-3|..|A-5 2C.F ....|A-5 2C.F ....|D-4 UF5F ....
....|..|--- .... ....|--- .... ....|--- .... ....
....|..|C-4 AF.7 ....|G-5 2F.7 ....|C-4 UF67 ....
....|..|A-5 2F.A ....|A-5 2F.A ....|D-4 UF5A ....

[Pattern11]
....|..|C-4 AF.F ....|--- .... ....|--- .... ....
....|..|--- .... ....|--- .... ....|--- .... ....
....|..|A-5 2F.7 ....|A-5 2F.7 ....|D-4 UF57 ....
....|..|C-4 AF.A ....|--- .... ....|--- .... ....
....|..|--- .... ....|--- .... ....|--- .... ....
....|..|--- .... ....|--- .... ....|--- .... ....
....|..|C-4 AF.7 ....|--- .... ....|--- .... ....
....|..|--- .... ....|--- .... ....|--- .... ....
....|..|C-4 AF.F ....|--- .... ....|--- .... ....
....|..|--- .... ....|--- .... ....|--- .... ....
....|..|--- .... ....|--- .... ....|--- .... ....
....|..|C-4 AF.A ....|--- .... ....|--- .... ....
 F-4|..|F-5 2C.F ....|F-5 2C.F ....|A-4 UF8F ....
....|..|--- .... ....|--- .... ....|--- .... ....
....|..|C-4 AF.7 ....|--- .... ....|--- .... ....
....|..|F-5 2F.A ....|F-5 2F.A ....|A-4 UF8A ....
....|..|C-4 AF.F ....|--- .... ....|--- .... ....
....|..|--- .... ....|--- .... ....|--- .... ....
....|..|F-5 2F.7 ....|F-5 2F.7 ....|A-4 UF87 ....
....|..|C-4 AF.A ....|--- .... ....|--- .... ....
....|..|--- .... ....|--- .... ....|--- .... ....
....|..|--- .... ....|--- .... ....|--- .... ....
....|..|C-4 AF.7 ....|--- .... ....|--- .... ....
....|..|--- .... ....|--- .... ....|--- .... ....
 D-4|..|C-4 AF.F ....|D-5 2C.F ....|D-5 UF.F ....
 D-4|..|D-5 2C.F ....|--- .... ....|--- .... ....
....|..|--- .... ....|--- .... ....|--- .... ....
....|..|C-4 AF.A ....|D-5 2F.A ....|D-5 UF.A ....
....|..|D-5 2F.A ....|--- .... ....|--- .... ....
....|..|--- .... ....|--- .... ....|--- .... ....
....|..|C-4 AF.7 ....|D-5 2F.7 ....|D-5 UF.7 ....
....|..|D-5 2F.7 ....|--- .... ....|--- .... ....
....|..|C-4 AF.F ....|--- .... ....|F-4 UFBF ....
 D-4|..|D-5 2C.F ....|--- .... ....|--- .... ....
....|..|--- .... ....|--- .... ....|--- .... ....
....|..|C-4 AF.A ....|--- .... ....|F-4 UFBA ....
....|..|D-5 2F.A ....|--- .... ....|--- .... ....
....|..|--- .... ....|--- .... ....|--- .... ....
....|..|C-4 AF.7 ....|--- .... ....|F-4 UFB7 ....
....|..|D-5 2F.7 ....|--- .... ....|--- .... ....
....|..|C-4 AF.F ....|--- .... ....|--- .... ....
....|..|--- .... ....|R-- .... ....|--- .... ....
....|..|--- .... ....|--- .... ....|--- .... ....
....|..|C-4 AF.A ....|--- .... ....|--- .... ....
....|..|--- .... ....|R-- .... ....|--- .... ....
....|..|--- .... ....|--- .... ....|--- .... ....
....|..|C-4 AF.7 ....|--- .... ....|--- .... ....
....|..|--- .... ....|R-- .... ....|--- .... ....
....|..|C-4 AF.F ....|--- .... ....|--- .... ....
....|..|--- .... ....|--- .... ....|--- .... ....
....|..|--- .... ....|--- .... ....|--- .... ....
....|..|C-4 AF.A ....|--- .... ....|--- .... ....
....|..|--- .... ....|--- .... ....|--- .... ....
....|..|--- .... ....|--- .... ....|--- .... ....
....|..|C-4 AF.7 ....|--- .... ....|--- .... ....
....|..|--- .... ....|--- .... ....|--- .... ....
....|..|C-4 AF.F ....|--- .... ....|--- .... ....
....|..|--- .... ....|--- .... ....|--- .... ....
....|..|--- .... ....|--- .... ....|--- .... ....
....|..|C-4 AF.A ....|--- .... ....|--- .... ....
....|..|--- .... ....|--- .... ....|--- .... ....
....|..|--- .... ....|--- .... ....|--- .... ....
....|..|C-4 AF.7 ....|--- .... ....|--- .... ....
....|..|--- .... ....|--- .... ....|--- .... ....

[Pattern12]
 F-4|..|C-4 AF.F ....|F-5 2C.F ....|A-4 UFAF ....
 F-4|..|F-5 2C.F ....|--- .... ....|--- .... ....
....|..|--- .... ....|--- .... ....|--- .... ....
....|..|C-4 AF.A ....|F-5 2F.A ....|A-4 UFAA ....
....|..|F-5 2F.A ....|--- .... ....|--- .... ....
....|..|--- .... ....|--- .... ....|--- .... ....
....|..|C-4 AF.7 ....|F-5 2F.7 ....|A-4 UFA7 ....
....|..|F-5 2F.7 ....|--- .... ....|--- .... ....
....|..|C-4 AF.F ....|--- .... ....|--- .... ....
....|..|--- .... ....|--- .... ....|--- .... ....
....|..|--- .... ....|--- .... ....|--- .... ....
....|..|C-4 AF.A ....|--- .... ....|--- .... ....
 C-3|..|C-5 2C.F ....|C-5 2C.F ....|F-4 UF6F ....
....|..|--- .... ....|--- .... ....|--- .... ....
....|..|C-4 AF.7 ....|--- .... ....|--- .... ....
....|..|C-5 2F.A ....|C-5 2F.A ....|F-4 UF6A ....
....|..|C-4 AF.F ....|--- .... ....|--- .... ....
....|..|--- .... ....|--- .... ....|--- .... ....
....|..|C-5 2F.7 ....|C-5 2F.7 ....|F-4 UF67 ....
....|..|C-4 AF.A ....|--- .... ....|--- .... ....
 F-4|..|F-5 2C.F ....|F-5 2C.F ....|F-4 UF3F ....
....|..|--- .... ....|--- .... ....|--- .... ....
....|..|C-4 AF.7 ....|--- .... ....|--- .... ....
....|..|F-5 2F.A ....|F-5 2F.A ....|F-4 UF3A ....
 C-3|..|C-4 AF.F ....|C-5 2C.F ....|F-4 UF6F ....
 C-3|..|C-5 2C.F ....|--- .... ....|--- .... ....
....|..|F-5 2F.7 ....|F-5 2F.7 ....|F-4 UF37 ....
....|..|C-4 AF.A ....|C-5 2F.A ....|F-4 UF6A ....
 F-4|..|F-5 2C.F ....|F-5 2C.F ....|F-4 UF3F ....
....|..|--- .... ....|--- .... ....|--- .... ....
....|..|C-4 AF.7 ....|C-5 2F.7 ....|F-4 UF67 ....
 A-3|..|A-4 2C.F ....|F-5 2F.A ....|F-4 UF3F ....
 G-4|..|C-4 AF.F ....|G-5 2C.F ....|A-4 UF1F ....
 G-4|..|G-5 2C.F ....|--- .... ....|--- .... ....
....|..|F-5 2F.7 ....|F-5 2F.7 ....|F-4 UF37 ....
....|..|C-4 AF.A ....|G-5 2F.A ....|A-4 UF1A ....
....|..|G-5 2F.A ....|--- .... ....|--- .... ....
....|..|A-4 2F.7 ....|R-- .... ....|F-4 UF37 ....
....|..|C-4 AF.7 ....|G-5 2F.7 ....|A-4 UF17 ....
....|..|G-5 2F.7 ....|--- .... ....|--- .... ....
 E-4|..|C-4 AF.F ....|E-5 2C.F ....|A-4 UF5F ....
 E-4|..|E-5 2C.F ....|--- .... ....|--- .... ....
....|..|--- .... ....|--- .... ....|--- .... ....
....|..|C-4 AF.A ....|E-5 2F.A ....|A-4 UF5A ....
 C-3|..|C-5 2C.F ....|C-5 2C.F ....|E-4 UFAF ....
....|..|--- .... ....|--- .... ....|--- .... ....
....|..|C-4 AF.7 ....|E-5 2F.7 ....|A-4 UF57 ....
....|..|C-5 2F.A ....|C-5 2F.A ....|E-4 UFAA ....
....|..|C-4 AF.F ....|--- .... ....|--- .... ....
....|..|--- .... ....|--- .... ....|--- .... ....
....|..|C-5 2F.7 ....|C-5 2F.7 ....|E-4 UFA7 ....
....|..|C-4 AF.A ....|--- .... ....|--- .... ....
 G-4|..|G-5 2C.F ....|G-5 2C.F ....|E-4 UF1F ....
....|..|--- .... ....|--- .... ....|--- .... ....
....|..|C-4 AF.7 ....|--- .... ....|--- .... ....
....|..|G-5 2F.A ....|G-5 2F.A ....|E-4 UF1A ....
 E-4|..|C-4 AF.F ....|E-5 2C.F ....|A-4 UF5F ....
 E-4|..|E-5 2C.F ....|--- .... ....|--- .... ....
....|..|G-5 2F.7 ....|G-5 2F.7 ....|E-4 UF17 ....
....|..|C-4 AF.A ....|E-5 2F.A ....|A-4 UF5A ....
 C-3|..|C-5 2C.F ....|C-5 2C.F ....|A-4 UF1F ....
....|..|--- .... ....|--- .... ....|--- .... ....
....|..|C-4 AF.7 ....|E-5 2F.7 ....|A-4 UF57 ....
....|..|C-5 2F.A ....|C-5 2F.A ....|A-4 UF1A ....

[Pattern13]
 G-4|..|C-4 AF.F ....|G-5 2C.F ....|C-4 UF6F ....
 G-4|..|G-5 2C.F ....|--- .... ....|--- .... ....
....|..|C-5 2F.7 ....|C-5 2F.7 ....|A-4 UF17 ....
....|..|C-4 AF.A ....|G-5 2F.A ....|C-4 UF6A ....
....|..|G-5 2F.A ....|--- .... ....|--- .... ....
....|..|--- .... ....|--- .... ....|--- .... ....
....|..|C-4 AF.7 ....|G-5 2F.7 ....|C-4 UF67 ....
....|..|G-5 2F.7 ....|--- .... ....|--- .... ....
 E-4|..|C-4 AF.F ....|E-5 2C.F ....|C-4 UF3F ....
 E-4|..|E-5 2C.F ....|--- .... ....|--- .... ....
....|..|--- .... ....|--- .... ....|--- .... ....
....|..|C-4 AF.A ....|E-5 2F.A ....|C-4 UF3A ....
 C-3|..|C-5 2C.F ....|C-5 2C.F ....|E-4 UFAF ....
....|..|--- .... ....|--- .... ....|--- .... ....
....|..|C-4 AF.7 ....|E-5 2F.7 ....|C-4 UF37 ....
....|..|C-5 2F.A ....|C-5 2F.A ....|E-4 UFAA ....
....|..|C-4 AF.F ....|--- .... ....|--- .... ....
....|..|--- .... ....|--- .... ....|--- .... ....
....|..|C-5 2F.7 ....|C-5 2F.7 ....|E-4 UFA7 ....
....|..|C-4 AF.A ....|--- .... ....|--- .... ....
 G-4|..|G-5 2C.F ....|G-5 2C.F ....|E-4 UF1F ....
....|..|--- .... ....|--- .... ....|--- .... ....
....|..|C-4 AF.7 ....|--- .... ....|--- .... ....
....|..|G-5 2F.A ....|G-5 2F.A ....|E-4 UF1A ....
 E-4|..|C-4 AF.F ....|E-5 2C.F ....|A-4 UF5F ....
 E-4|..|E-5 2C.F ....|--- .... ....|--- .... ....
....|..|G-5 2F.7 ....|G-5 2F.7 ....|E-4 UF17 ....
....|..|C-4 AF.A ....|E-5 2F.A ....|A-4 UF5A ....
 C-3|..|C-5 2C.F ....|C-5 2C.F ....|A-4 UF1F ....
....|..|--- .... ....|--- .... ....|--- .... ....
....|..|C-4 AF.7 ....|E-5 2F.7 ....|A-4 UF57 ....
....|..|C-5 2F.A ....|C-5 2F.A ....|A-4 UF1A ....
 D-4|..|C-4 AF.F ....|D-5 2C.F ....|F-4 UFBF ....
 D-4|..|D-5 2C.F ....|--- .... ....|--- .... ....
....|..|C-5 2F.7 ....|C-5 2F.7 ....|A-4 UF17 ....
....|..|C-4 AF.A ....|D-5 2F.A ....|F-4 UFBA ....
 E-4|..|E-5 2C.F ....|E-5 2C.F ....|A#4 UFCF ....
 E-4|..|E-5 2C.F ....|E-5 2C.F ....|F-4 UFEF ....
....|..|C-4 AF.7 ....|D-5 2F.7 ....|F-4 UFB7 ....
....|..|E-5 2F.A ....|E-5 2F.A ....|A#4 UFCA ....
 F-4|..|C-4 AF.F ....|F-5 2C.F ....|F-4 UF2F ....
 F-4|..|F-5 2C.F ....|--- .... ....|--- .... ....
....|..|E-5 2F.7 ....|E-5 2F.7 ....|A#4 UFC7 ....
....|..|C-4 AF.A ....|E-5 2F.7 ....|F-4 UFE7 ....
 F-4|..|F-5 2C.F ....|F-5 2C.F ....|A-4 UF8F ....
....|..|--- .... ....|R-- .... ....|--- .... ....
....|..|C-4 AF.7 ....|F-5 2F.7 ....|F-4 UF27 ....
....|..|F-5 2F.A ....|F-5 2F.A ....|A-4 UF8A ....
 G-4|..|C-4 AF.F ....|G-5 2C.F ....|A-4 UF9F ....
 G-4|..|G-5 2C.F ....|--- .... ....|--- .... ....
....|..|F-5 2F.7 ....|F-5 2F.7 ....|A-4 UF87 ....
....|..|C-4 AF.A ....|G-5 2F.A ....|A-4 UF9A ....
 A-3|..|A-5 2C.F ....|A-5 2C.F ....|A-4 UF2F ....
....|..|--- .... ....|--- .... ....|--- .... ....
 D-4|..|D-5 2C.F ....|G-5 2F.7 ....|A-4 UF2F ....
....|..|A-5 2F.A ....|A-5 2F.A ....|A-4 UF2A ....
 A-3|..|C-4 AF.F ....|A-5 2C.F ....|D-4 UF5F ....
 A-3|..|A-5 2C.F ....|R-- .... ....|A-4 UF2A ....
....|..|D-5 2F.A ....|A-5 2F.7 ....|A-4 UF27 ....
....|..|C-4 AF.A ....|A-5 2F.A ....|D-4 UF5A ....
....|..|A-5 2F.7 ....|R-- .... ....|A-4 UF27 ....
....|..|A-5 2F.A ....|--- .... ....|--- .... ....
....|..|C-4 AF.7 ....|A-5 2F.7 ....|D-4 UF57 ....
....|..|D-5 2F.7 ....|--- .... ....|--- .... ....

[Pattern14]
 G-4|..|C-4 AF.F ....|G-5 2C.F ....|C-4 UF6F ....
....|..|A-5 2F.7 ....|--- .... ....|--- .... ....
 G-4|..|G-5 2C.F ....|--- .... ....|--- .... ....
....|..|C-4 AF.A ....|G-5 2F.A ....|C-4 UF6A ....
 F-4|..|G-5 2F.A ....|F-5 2C.F ....|--- .... ....
....|..|--- .... ....|--- .... ....|--- .... ....
....|..|C-4 AF.7 ....|G-5 2F.7 ....|C-4 UF67 ....
....|..|G-5 2F.7 ....|F-5 2F.A ....|--- .... ....
 F-4|..|C-4 AF.F ....|F-5 2C.F ....|A-4 UFAF ....
 F-4|..|F-5 2C.F ....|--- .... ....|--- .... ....
....|..|--- .... ....|F-5 2F.7 ....|--- .... ....
....|..|C-4 AF.A ....|F-5 2F.A ....|A-4 UFAA ....
....|..|F-5 2F.A ....|--- .... ....|--- .... ....
....|..|--- .... ....|--- .... ....|--- .... ....
....|..|C-4 AF.7 ....|F-5 2F.7 ....|A-4 UFA7 ....
....|..|F-5 2F.7 ....|--- .... ....|--- .... ....
....|..|C-4 AF.F ....|--- .... ....|--- .... ....
....|..|--- .... ....|--- .... ....|--- .... ....
....|..|--- .... ....|--- .... ....|--- .... ....
....|..|C-4 AF.A ....|--- .... ....|--- .... ....
 C-3|..|C-5 2C.F ....|C-5 2C.F ....|F-4 UF6F ....
....|..|--- .... ....|--- .... ....|--- .... ....
....|..|C-4 AF.7 ....|--- .... ....|--- .... ....
....|..|C-5 2F.A ....|C-5 2F.A ....|F-4 UF6A ....
....|..|C-4 AF.F ....|--- .... ....|--- .... ....
....|..|--- .... ....|--- .... ....|--- .... ....
....|..|C-5 2F.7 ....|C-5 2F.7 ....|F-4 UF67 ....
....|..|C-4 AF.A ....|--- .... ....|--- .... ....
 F-4|..|F-5 2C.F ....|F-5 2C.F ....|F-4 UF3F ....
....|..|--- .... ....|--- .... ....|--- .... ....
....|..|C-4 AF.7 ....|--- .... ....|--- .... ....
....|..|F-5 2F.A ....|F-5 2F.A ....|F-4 UF3A ....
 C-3|..|C-4 AF.F ....|C-5 2C.F ....|F-4 UF6F ....
 C-3|..|C-5 2C.F ....|--- .... ....|--- .... ....
....|..|F-5 2F.7 ....|F-5 2F.7 ....|F-4 UF37 ....
....|..|C-4 AF.A ....|C-5 2F.A ....|F-4 UF6A ....
 F-4|..|F-5 2C.F ....|F-5 2C.F ....|F-4 UF3F ....
....|..|--- .... ....|--- .... ....|--- .... ....
....|..|C-4 AF.7 ....|C-5 2F.7 ....|F-4 UF67 ....
 A-3|..|A-4 2C.F ....|F-5 2F.A ....|F-4 UF3F ....
 G-4|..|C-4 AF.F ....|G-5 2C.F ....|A-4 UF1F ....
 G-4|..|G-5 2C.F ....|--- .... ....|--- .... ....
....|..|F-5 2F.7 ....|F-5 2F.7 ....|F-4 UF37 ....
....|..|C-4 AF.A ....|G-5 2F.A ....|A-4 UF1A ....
....|..|G-5 2F.A ....|--- .... ....|--- .... ....
....|..|A-4 2F.7 ....|R-- .... ....|F-4 UF37 ....
....|..|C-4 AF.7 ....|G-5 2F.7 ....|A-4 UF17 ....
....|..|G-5 2F.7 ....|--- .... ....|--- .... ....
 E-4|..|C-4 AF.F ....|E-5 2C.F ....|A-4 UF5F ....
 E-4|..|E-5 2C.F ....|--- .... ....|--- .... ....
....|..|--- .... ....|--- .... ....|--- .... ....
....|..|C-4 AF.A ....|E-5 2F.A ....|A-4 UF5A ....
 C-3|..|C-5 2C.F ....|C-5 2C.F ....|E-4 UFAF ....
....|..|--- .... ....|--- .... ....|--- .... ....
....|..|C-4 AF.7 ....|E-5 2F.7 ....|A-4 UF57 ....
....|..|C-5 2F.A ....|C-5 2F.A ....|E-4 UFAA ....
....|..|C-4 AF.F ....|--- .... ....|--- .... ....
....|..|--- .... ....|--- .... ....|--- .... ....
....|..|C-5 2F.7 ....|C-5 2F.7 ....|E-4 UFA7 ....
....|..|C-4 AF.A ....|--- .... ....|--- .... ....
 G-4|..|G-5 2C.F ....|G-5 2C.F ....|E-4 UF1F ....
....|..|--- .... ....|--- .... ....|--- .... ....
....|..|C-4 AF.7 ....|--- .... ....|--- .... ....
....|..|G-5 2F.A ....|G-5 2F.A ....|E-4 UF1A ....

[Pattern15]
 E-4|..|C-4 AF.F ....|E-5 2C.F ....|A-4 UF5F ....
 E-4|..|E-5 2C.F ....|--- .... ....|--- .... ....
....|..|G-5 2F.7 ....|G-5 2F.7 ....|E-4 UF17 ....
....|..|C-4 AF.A ....|E-5 2F.A ....|A-4 UF5A ....
 C-3|..|C-5 2C.F ....|C-5 2C.F ....|A-4 UF1F ....
....|..|--- .... ....|--- .... ....|--- .... ....
....|..|C-4 AF.7 ....|E-5 2F.7 ....|A-4 UF57 ....
....|..|C-5 2F.A ....|C-5 2F.A ....|A-4 UF1A ....
 G-4|..|C-4 AF.F ....|G-5 2C.F ....|C-4 UF6F ....
 G-4|..|G-5 2C.F ....|--- .... ....|--- .... ....
....|..|C-5 2F.7 ....|C-5 2F.7 ....|A-4 UF17 ....
....|..|C-4 AF.A ....|G-5 2F.A ....|C-4 UF6A ....
....|..|G-5 2F.A ....|--- .... ....|--- .... ....
....|..|--- .... ....|--- .... ....|--- .... ....
....|..|C-4 AF.7 ....|G-5 2F.7 ....|C-4 UF67 ....
....|..|G-5 2F.7 ....|--- .... ....|--- .... ....
 E-4|..|C-4 AF.F ....|E-5 2C.F ....|C-4 UF3F ....
 E-4|..|E-5 2C.F ....|--- .... ....|--- .... ....
....|..|--- .... ....|--- .... ....|--- .... ....
....|..|C-4 AF.A ....|E-5 2F.A ....|C-4 UF3A ....
 C-3|..|C-5 2C.F ....|C-5 2C.F ....|E-4 UFAF ....
....|..|--- .... ....|--- .... ....|--- .... ....
....|..|C-4 AF.7 ....|E-5 2F.7 ....|C-4 UF37 ....
....|..|C-5 2F.A ....|C-5 2F.A ....|E-4 UFAA ....
....|..|C-4 AF.F ....|--- .... ....|--- .... ....
....|..|--- .... ....|--- .... ....|--- .... ....
....|..|C-5 2F.7 ....|C-5 2F.7 ....|E-4 UFA7 ....
....|..|C-4 AF.A ....|--- .... ....|--- .... ....
 G-4|..|G-5 2C.F ....|G-5 2C.F ....|E-4 UF1F ....
....|..|--- .... ....|--- .... ....|--- .... ....
....|..|C-4 AF.7 ....|--- .... ....|--- .... ....
....|..|G-5 2F.A ....|G-5 2F.A ....|E-4 UF1A ....
 E-4|..|C-4 AF.F ....|E-5 2C.F ....|A-4 UF5F ....
 E-4|..|E-5 2C.F ....|--- .... ....|--- .... ....
....|..|G-5 2F.7 ....|G-5 2F.7 ....|E-4 UF17 ....
....|..|C-4 AF.A ....|E-5 2F.A ....|A-4 UF5A ....
 C-3|..|C-5 2C.F ....|C-5 2C.F ....|A-4 UF1F ....
....|..|--- .... ....|--- .... ....|--- .... ....
....|..|C-4 AF.7 ....|E-5 2F.7 ....|A-4 UF57 ....
....|..|C-5 2F.A ....|C-5 2F.A ....|A-4 UF1A ....
 D-4|..|C-4 AF.F ....|D-5 2C.F ....|F-4 UFBF ....
 D-4|..|D-5 2C.F ....|--- .... ....|--- .... ....
....|..|C-5 2F.7 ....|C-5 2F.7 ....|A-4 UF17 ....
....|..|C-4 AF.A ....|D-5 2F.A ....|F-4 UFBA ....
 E-4|..|E-5 2C.F ....|E-5 2C.F ....|A#4 UFCF ....
 E-4|..|E-5 2C.F ....|--- .... ....|F-4 UFEF ....
....|..|C-4 AF.7 ....|D-5 2F.7 ....|F-4 UFB7 ....
....|..|E-5 2F.A ....|E-5 2F.A ....|A#4 UFCA ....
 F-4|..|C-4 AF.F ....|F-5 2C.F ....|F-4 UF2F ....
 F-4|..|F-5 2C.F ....|--- .... ....|--- .... ....
....|..|E-5 2F.7 ....|E-5 2F.7 ....|A#4 UFC7 ....
....|..|C-4 AF.A ....|F-5 2F.A ....|F-4 UFE7 ....
 F-4|..|F-5 2C.F ....|F-5 2C.F ....|A-4 UF8F ....
....|..|--- .... ....|R-- .... ....|--- .... ....
....|..|C-4 AF.7 ....|F-5 2F.7 ....|F-4 UF27 ....
....|..|F-5 2F.A ....|F-5 2F.A ....|A-4 UF8A ....
 G-4|..|C-4 AF.F ....|G-5 2C.F ....|A-4 UF9F ....
 G-4|..|G-5 2C.F ....|--- .... ....|--- .... ....
....|..|F-5 2F.7 ....|F-5 2F.7 ....|A-4 UF87 ....
....|..|C-4 AF.A ....|G-5 2F.A ....|A-4 UF9A ....
 A-3|..|A-5 2C.F ....|A-5 2C.F ....|A-4 UF2F ....
....|..|--- .... ....|--- .... ....|--- .... ....
 D-4|..|D-5 2C.F ....|G-5 2F.7 ....|A-4 UF2F ....
....|..|A-5 2F.A ....|A-5 2F.A ....|A-4 UF2A ....

[Pattern16]
 A-3|..|C-4 AF.F ....|A-5 2C.F ....|D-4 UF5F ....
 A-3|..|A-5 2C.F ....|R-- .... ....|A-4 UF2A ....
....|..|D-5 2F.A ....|A-5 2F.7 ....|A-4 UF27 ....
....|..|C-4 AF.A ....|A-5 2F.A ....|D-4 UF5A ....
....|..|A-5 2F.7 ....|R-- .... ....|A-4 UF27 ....
....|..|A-5 2F.A ....|--- .... ....|--- .... ....
....|..|C-4 AF.7 ....|A-5 2F.7 ....|D-4 UF57 ....
....|..|D-5 2F.7 ....|--- .... ....|--- .... ....
 G-4|..|C-4 AF.F ....|G-5 2C.F ....|C-4 UF6F ....
....|..|A-5 2F.7 ....|--- .... ....|--- .... ....
 G-4|..|G-5 2C.F ....|--- .... ....|--- .... ....
....|..|C-4 AF.A ....|G-5 2F.A ....|C-4 UF6A ....
 F-4|..|G-5 2F.A ....|F-5 2C.F ....|--- .... ....
....|..|--- .... ....|--- .... ....|--- .... ....
....|..|C-4 AF.7 ....|G-5 2F.7 ....|C-4 UF67 ....
....|..|G-5 2F.7 ....|F-5 2F.A ....|--- .... ....
....|..|C-4 AF.F ....|R-- .... ....|F-4 UF3F ....
 A-3|..|A-4 2C.F ....|--- .... ....|--- .... ....
....|..|--- .... ....|F-5 2F.7 ....|--- .... ....
....|..|C-4 AF.A ....|R-- .... ....|F-4 UF3A ....
 F-4|..|F-5 2C.F ....|--- .... ....|F-4 UF3F ....
....|..|--- .... ....|--- .... ....|--- .... ....
....|..|C-4 AF.7 ....|R-- .... ....|F-4 UF37 ....
....|..|F-5 2F.A ....|--- .... ....|F-4 UF3A ....
....|..|C-4 AF.F ....|--- .... ....|F-4 UF3F ....
 F-4|..|F-5 2C.F ....|--- .... ....|--- .... ....
....|..|F-5 2F.7 ....|--- .... ....|F-4 UF37 ....
....|..|C-4 AF.A ....|--- .... ....|F-4 UF3A ....
 E-4|..|E-5 2C.F ....|--- .... ....|F-4 UF3F ....
....|..|--- .... ....|--- .... ....|--- .... ....
....|..|C-4 AF.7 ....|--- .... ....|F-4 UF37 ....
....|..|E-5 2F.A ....|--- .... ....|F-4 UF3A ....
....|..|C-4 AF.F ....|--- .... ....|F-4 UF3F ....
 E-4|..|E-5 2C.F ....|--- .... ....|--- .... ....
....|..|E-5 2F.7 ....|--- .... ....|F-4 UF37 ....
....|..|C-4 AF.A ....|--- .... ....|F-4 UF3A ....
 D-4|..|D-5 2C.F ....|--- .... ....|F-4 UF4F ....
....|..|--- .... ....|--- .... ....|--- .... ....
....|..|C-4 AF.7 ....|--- .... ....|F-4 UF37 ....
....|..|D-5 2F.A ....|--- .... ....|F-4 UF4A ....
....|..|C-4 AF.F ....|--- .... ....|E-4 UF1F ....
 D-4|..|D-5 2C.F ....|--- .... ....|--- .... ....
....|..|D-5 2F.7 ....|--- .... ....|F-4 UF47 ....
....|..|C-4 AF.A ....|--- .... ....|E-4 UF1A ....
 C-3|..|C-5 2C.F ....|--- .... ....|E-4 UFAF ....
....|..|--- .... ....|--- .... ....|--- .... ....
....|..|C-4 AF.7 ....|--- .... ....|E-4 UF17 ....
....|..|C-5 2F.A ....|--- .... ....|E-4 UFAA ....
....|..|C-4 AF.F ....|--- .... ....|A-4 UF1F ....
 C-3|..|C-5 2C.F ....|--- .... ....|--- .... ....
....|..|C-5 2F.7 ....|--- .... ....|E-4 UFA7 ....
....|..|C-4 AF.A ....|--- .... ....|A-4 UF1A ....
 F-4|..|F-5 2C.F ....|--- .... ....|A-4 UFAF ....
....|..|--- .... ....|--- .... ....|--- .... ....
....|..|C-4 AF.7 ....|--- .... ....|A-4 UF17 ....
....|..|F-5 2F.A ....|--- .... ....|A-4 UFAA ....
....|..|C-4 AF.F ....|--- .... ....|A-4 UFAF ....
 F-4|..|F-5 2C.F ....|--- .... ....|--- .... ....
....|..|F-5 2F.7 ....|--- .... ....|A-4 UFA7 ....
....|..|C-4 AF.A ....|--- .... ....|A-4 UFAA ....
 E-4|..|E-5 2C.F ....|--- .... ....|A-4 UF5F ....
....|..|--- .... ....|--- .... ....|--- .... ....
....|..|C-4 AF.7 ....|--- .... ....|A-4 UFA7 ....
....|..|E-5 2F.A ....|--- .... ....|A-4 UF5A ....

[Pattern17]
....|..|C-4 AF.F ....|--- .... ....|A-4 UF5F ....
 E-4|..|E-5 2C.F ....|--- .... ....|--- .... ....
....|..|E-5 2F.7 ....|--- .... ....|A-4 UF57 ....
....|..|C-4 AF.A ....|--- .... ....|A-4 UF5A ....
 D-4|..|D-5 2C.F ....|--- .... ....|A-4 UFFF ....
....|..|--- .... ....|--- .... ....|--- .... ....
....|..|C-4 AF.7 ....|--- .... ....|A-4 UF57 ....
....|..|D-5 2F.A ....|--- .... ....|A-4 UFFA ....
....|..|C-4 AF.F ....|--- .... ....|E-4 UFAF ....
 C-3|..|C-5 2C.F ....|--- .... ....|--- .... ....
....|..|D-5 2F.7 ....|--- .... ....|A-4 UFF7 ....
....|..|C-4 AF.A ....|--- .... ....|E-4 UFAA ....
 A-3|..|A-4 2C.F ....|--- .... ....|E-4 UFFF ....
....|..|--- .... ....|--- .... ....|--- .... ....
....|..|C-4 AF.7 ....|--- .... ....|E-4 UFA7 ....
....|..|A-4 2F.A ....|--- .... ....|E-4 UFFA ....
....|..|C-4 AF.F ....|--- .... ....|F-4 UF3F ....
 A-3|..|A-4 2C.F ....|--- .... ....|--- .... ....
....|..|A-4 2F.7 ....|--- .... ....|E-4 UFF7 ....
....|..|C-4 AF.A ....|--- .... ....|F-4 UF3A ....
 F-4|..|F-5 2C.F ....|--- .... ....|F-4 UF3F ....
....|..|--- .... ....|--- .... ....|--- .... ....
....|..|C-4 AF.7 ....|--- .... ....|F-4 UF37 ....
....|..|F-5 2F.A ....|--- .... ....|F-4 UF3A ....
....|..|C-4 AF.F ....|--- .... ....|F-4 UF3F ....
 F-4|..|F-5 2C.F ....|--- .... ....|--- .... ....
....|..|F-5 2F.7 ....|--- .... ....|F-4 UF37 ....
....|..|C-4 AF.A ....|--- .... ....|F-4 UF3A ....
 E-4|..|E-5 2C.F ....|--- .... ....|F-4 UF3F ....
....|..|--- .... ....|--- .... ....|--- .... ....
....|..|C-4 AF.7 ....|--- .... ....|F-4 UF37 ....
....|..|E-5 2F.A ....|--- .... ....|F-4 UF3A ....
....|..|C-4 AF.F ....|--- .... ....|F-4 UF3F ....
 E-4|..|E-5 2C.F ....|--- .... ....|--- .... ....
....|..|E-5 2F.7 ....|--- .... ....|F-4 UF37 ....
....|..|C-4 AF.A ....|--- .... ....|F-4 UF3A ....
 D-4|..|D-5 2C.F ....|--- .... ....|F-4 UF4F ....
....|..|--- .... ....|--- .... ....|--- .... ....
....|..|C-4 AF.7 ....|--- .... ....|F-4 UF37 ....
....|..|D-5 2F.A ....|--- .... ....|F-4 UF4A ....
....|..|C-4 AF.F ....|--- .... ....|E-4 UF1F ....
 D-4|..|D-5 2C.F ....|--- .... ....|--- .... ....
....|..|D-5 2F.7 ....|--- .... ....|F-4 UF47 ....
....|..|C-4 AF.A ....|--- .... ....|E-4 UF1A ....
 C-3|..|C-5 2C.F ....|--- .... ....|E-4 UFAF ....
....|..|--- .... ....|--- .... ....|--- .... ....
....|..|C-4 AF.7 ....|--- .... ....|E-4 UF17 ....
....|..|C-5 2F.A ....|--- .... ....|E-4 UFAA ....
....|..|C-4 AF.F ....|--- .... ....|A-3 UF1F ....
 C-3|..|C-4 2C.F ....|--- .... ....|--- .... ....
....|..|C-5 2F.7 ....|--- .... ....|E-4 UFA7 ....
....|..|C-4 AF.A ....|--- .... ....|A-3 UF1A ....
 F-4|..|F-4 2C.F ....|--- .... ....|A-3 UFAF ....
....|..|--- .... ....|--- .... ....|--- .... ....
....|..|C-4 AF.7 ....|--- .... ....|A-3 UF17 ....
....|..|F-4 2F.A ....|--- .... ....|A-3 UFAA ....
....|..|C-4 AF.F ....|--- .... ....|A-3 UFAF ....
 F-4|..|F-4 2C.F ....|--- .... ....|--- .... ....
....|..|F-4 2F.7 ....|--- .... ....|A-3 UFA7 ....
....|..|C-4 AF.A ....|--- .... ....|A-3 UFAA ....
 G-4|..|G-4 2C.F ....|--- .... ....|A-3 UF1F ....
....|..|--- .... ....|--- .... ....|--- .... ....
....|..|C-4 AF.7 ....|--- .... ....|A-3 UFA7 ....
....|..|G-4 2F.A ....|--- .... ....|A-3 UF1A ....

[Pattern18]
....|..|C-4 AF.F ....|--- .... ....|A-3 UF1F ....
 A-3|..|A-4 2C.F ....|--- .... ....|--- .... ....
....|..|G-4 2F.7 ....|--- .... ....|A-3 UF17 ....
....|..|C-4 AF.A ....|--- .... ....|A-3 UF1A ....
 C-3|..|C-5 2C.F ....|--- .... ....|A-3 UF1F ....
....|..|--- .... ....|--- .... ....|--- .... ....
....|..|C-4 AF.7 ....|--- .... ....|A-3 UF17 ....
....|..|C-5 2F.A ....|--- .... ....|A-3 UF1A ....
....|..|C-4 AF.F ....|--- .... ....|E-4 UF1F ....
 D-4|..|D-5 2C.F ....|--- .... ....|--- .... ....
....|..|C-5 2F.7 ....|--- .... ....|A-3 UF17 ....
....|..|C-4 AF.A ....|--- .... ....|E-4 UF1A ....
 C-3|..|C-5 2C.F ....|--- .... ....|E-4 UFAF ....
....|..|--- .... ....|--- .... ....|--- .... ....
....|..|C-4 AF.7 ....|--- .... ....|E-4 UF17 ....
....|..|C-5 2F.A ....|--- .... ....|E-4 UFAA ....
....|..|C-4 AF.F ....|--- .... ....|D-4 UF5F ....
 A-3|..|A-4 2C.F ....|--- .... ....|--- .... ....
....|..|C-5 2F.7 ....|--- .... ....|E-4 UFA7 ....
....|..|C-4 AF.A ....|--- .... ....|D-4 UF5A ....
....|..|A-4 2F.A ....|--- .... ....|--- .... ....
....|..|--- .... ....|--- .... ....|--- .... ....
....|..|C-4 AF.7 ....|--- .... ....|D-4 UF57 ....
....|..|A-4 2F.7 ....|--- .... ....|--- .... ....
....|..|C-4 AF.F ....|--- .... ....|--- .... ....
....|..|--- .... ....|--- .... ....|--- .... ....
....|..|--- .... ....|--- .... ....|--- .... ....
....|..|C-4 AF.A ....|--- .... ....|--- .... ....
....|..|--- .... ....|--- .... ....|--- .... ....
....|..|--- .... ....|--- .... ....|--- .... ....
....|..|C-4 AF.7 ....|--- .... ....|--- .... ....
....|..|--- .... ....|--- .... ....|--- .... ....
 A-3|..|C-4 AF.F ....|A-4 2C.F ....|D-4 UF5F ....
 A-3|..|A-4 2C.F ....|--- .... ....|--- .... ....
....|..|--- .... ....|R-- .... ....|--- .... ....
....|..|C-4 AF.A ....|A-4 2F.A ....|D-4 UF5A ....
 A-3|..|A-4 2C.F ....|A-4 2C.F ....|D-4 UF5F ....
....|..|--- .... ....|R-- .... ....|--- .... ....
....|..|C-4 AF.7 ....|A-4 2F.7 ....|D-4 UF57 ....
....|..|A-4 2F.A ....|A-4 2F.A ....|D-4 UF5A ....
 G-4|..|C-4 AF.F ....|G-4 2C.F ....|C-4 UF6F ....
 G-4|..|G-4 2C.F ....|R-- .... ....|--- .... ....
....|..|A-4 2F.7 ....|A-4 2F.7 ....|D-4 UF57 ....
....|..|C-4 AF.A ....|G-4 2F.A ....|C-4 UF6A ....
 C-3|..|C-5 2C.F ....|C-5 2C.F ....|C-4 UF3F ....
....|..|--- .... ....|R-- .... ....|--- .... ....
....|..|C-4 AF.7 ....|G-4 2F.7 ....|C-4 UF67 ....
....|..|C-5 2F.A ....|C-5 2F.A ....|C-4 UF3A ....
....|..|C-4 AF.F ....|R-- .... ....|F-4 UF6F ....
 C-3|..|C-5 2C.F ....|--- .... ....|--- .... ....
 A#3|..|C-5 2F.7 ....|A#4 2C.F ....|C-4 UF37 ....
....|..|C-4 AF.A ....|--- .... ....|F-4 UF6A ....
 A-3|..|C-5 2F.A ....|A-4 2C.F ....|--- .... ....
....|..|--- .... ....|A#4 2F.A ....|--- .... ....
....|..|C-4 AF.7 ....|--- .... ....|F-4 UF67 ....
....|..|C-5 2F.7 ....|A-4 2F.A ....|--- .... ....
....|..|C-4 AF.F ....|A#4 2F.7 ....|--- .... ....
....|..|--- .... ....|--- .... ....|--- .... ....
....|..|--- .... ....|A-4 2F.7 ....|--- .... ....
....|..|C-4 AF.A ....|--- .... ....|--- .... ....
....|..|--- .... ....|--- .... ....|--- .... ....
....|..|--- .... ....|--- .... ....|--- .... ....
....|..|C-4 AF.7 ....|--- .... ....|--- .... ....
....|..|--- .... ....|--- .... ....|--- .... ....

[Pattern19]
....|..|C-4 AF.F ....|--- .... ....|F-4 UF3F ....
 A-3|..|A-4 2C.F ....|--- .... ....|--- .... ....
....|..|--- .... ....|R-- .... ....|--- .... ....
....|..|C-4 AF.A ....|--- .... ....|F-4 UF3A ....
 A-3|..|A-4 2C.F ....|A-4 2C.F ....|F-4 UF3F ....
....|..|--- .... ....|R-- .... ....|--- .... ....
....|..|C-4 AF.7 ....|--- .... ....|F-4 UF37 ....
....|..|A-4 2F.A ....|A-4 2F.A ....|F-4 UF3A ....
 G-4|..|C-4 AF.F ....|G-4 2C.F ....|C-4 UF6F ....
 G-4|..|G-4 2C.F ....|--- .... ....|--- .... ....
....|..|A-4 2F.7 ....|A-4 2F.7 ....|F-4 UF37 ....
....|..|C-4 AF.A ....|G-4 2F.A ....|C-4 UF6A ....
 F-4|..|F-4 2C.F ....|F-4 2C.F ....|C-4 UF7F ....
....|..|--- .... ....|--- .... ....|--- .... ....
....|..|C-4 AF.7 ....|G-4 2F.7 ....|C-4 UF67 ....
....|..|F-4 2F.A ....|F-4 2F.A ....|C-4 UF7A ....
....|..|C-4 AF.F ....|--- .... ....|A-3 UF8F ....
 F-4|..|F-4 2C.F ....|R-- .... ....|--- .... ....
....|..|F-4 2F.7 ....|F-4 2F.7 ....|C-4 UF77 ....
....|..|C-4 AF.A ....|--- .... ....|A-3 UF8A ....
....|..|F-4 2F.A ....|R-- .... ....|--- .... ....
....|..|--- .... ....|--- .... ....|--- .... ....
....|..|C-4 AF.7 ....|--- .... ....|A-3 UF87 ....
....|..|F-4 2F.7 ....|R-- .... ....|--- .... ....
....|..|C-4 AF.F ....|--- .... ....|--- .... ....
....|..|--- .... ....|--- .... ....|--- .... ....
....|..|--- .... ....|--- .... ....|--- .... ....
....|..|C-4 AF.A ....|--- .... ....|--- .... ....
 D-4|..|--- .... ....|D-4 2C.F ....|--- .... ....
....|..|--- .... ....|--- .... ....|--- .... ....
....|..|C-4 AF.7 ....|--- .... ....|--- .... ....
....|..|--- .... ....|D-4 2F.A ....|--- .... ....
 F-4|..|C-4 AF.F ....|F-4 2C.F ....|A-3 UF8F ....
 F-4|..|F-4 2C.F ....|--- .... ....|--- .... ....
....|..|--- .... ....|D-4 2F.7 ....|--- .... ....
....|..|C-4 AF.A ....|F-4 2F.A ....|A-3 UF8A ....
 G-4|..|G-4 2C.F ....|G-4 2C.F ....|A-3 UF9F ....
....|..|--- .... ....|--- .... ....|--- .... ....
....|..|C-4 AF.7 ....|F-4 2F.7 ....|A-3 UF87 ....
....|..|G-4 2F.A ....|G-4 2F.A ....|A-3 UF9A ....
 A-3|..|C-4 AF.F ....|A-4 2C.F ....|C-4 UF4F ....
 A-3|..|A-4 2C.F ....|R-- .... ....|--- .... ....
....|..|G-4 2F.7 ....|G-4 2F.7 ....|A-3 UF97 ....
....|..|C-4 AF.A ....|A-4 2F.A ....|C-4 UF4A ....
 G-4|..|G-4 2C.F ....|G-4 2C.F ....|C-4 UF6F ....
....|..|--- .... ....|--- .... ....|--- .... ....
....|..|C-4 AF.7 ....|A-4 2F.7 ....|C-4 UF47 ....
....|..|G-4 2F.A ....|G-4 2F.A ....|C-4 UF6A ....
 F-4|..|C-4 AF.F ....|F-4 2C.F ....|A-3 UFAF ....
 F-4|..|F-4 2C.F ....|--- .... ....|--- .... ....
....|..|G-4 2F.7 ....|G-4 2F.7 ....|C-4 UF67 ....
....|..|C-4 AF.A ....|F-4 2F.A ....|A-3 UFAA ....
....|..|F-4 2F.A ....|--- .... ....|--- .... ....
....|..|--- .... ....|--- .... ....|--- .... ....
....|..|C-4 AF.7 ....|F-4 2F.7 ....|A-3 UFA7 ....
....|..|F-4 2F.7 ....|--- .... ....|--- .... ....
....|..|C-4 AF.F ....|--- .... ....|--- .... ....
....|..|--- .... ....|R-- .... ....|--- .... ....
....|..|--- .... ....|--- .... ....|--- .... ....
....|..|C-4 AF.A ....|--- .... ....|--- .... ....
....|..|--- .... ....|R-- .... ....|--- .... ....
....|..|--- .... ....|--- .... ....|--- .... ....
....|..|C-4 AF.7 ....|--- .... ....|--- .... ....
....|..|--- .... ....|--- .... ....|--- .... ....

[Pattern20]
....|..|C-4 AF.F ....|--- .... ....|--- .... ....
....|..|--- .... ....|--- .... ....|--- .... ....
....|..|--- .... ....|--- .... ....|--- .... ....
....|..|C-4 AF.A ....|--- .... ....|--- .... ....
....|..|--- .... ....|--- .... ....|--- .... ....
....|..|--- .... ....|--- .... ....|--- .... ....
....|..|C-4 AF.7 ....|--- .... ....|--- .... ....
....|..|--- .... ....|--- .... ....|--- .... ....
....|..|C-4 AF.F ....|--- .... ....|C-4 UF6F ....
 G-4|..|G-4 2C.F ....|--- .... ....|--- .... ....
....|..|--- .... ....|--- .... ....|--- .... ....
....|..|C-4 AF.A ....|--- .... ....|C-4 UF6A ....
....|..|G-4 2F.A ....|--- .... ....|--- .... ....
....|..|--- .... ....|--- .... ....|--- .... ....
....|..|C-4 AF.7 ....|--- .... ....|C-4 UF67 ....
....|..|G-4 2F.7 ....|--- .... ....|--- .... ....
....|..|C-4 AF.F ....|--- .... ....|D-4 UF5F ....
 A-3|..|A-4 2C.F ....|--- .... ....|--- .... ....
....|..|--- .... ....|--- .... ....|--- .... ....
....|..|C-4 AF.A ....|--- .... ....|D-4 UF5A ....
....|..|A-4 2F.A ....|--- .... ....|--- .... ....
....|..|--- .... ....|--- .... ....|--- .... ....
....|..|C-4 AF.7 ....|--- .... ....|D-4 UF57 ....
....|..|A-4 2F.7 ....|--- .... ....|--- .... ....
....|..|C-4 AF.F ....|--- .... ....|--- .... ....
....|..|--- .... ....|--- .... ....|--- .... ....
....|..|--- .... ....|--- .... ....|--- .... ....
....|..|C-4 AF.A ....|--- .... ....|--- .... ....
....|..|--- .... ....|--- .... ....|--- .... ....
....|..|--- .... ....|--- .... ....|--- .... ....
....|..|C-4 AF.7 ....|--- .... ....|--- .... ....
....|..|--- .... ....|--- .... ....|--- .... ....
 A-3|..|C-4 AF.F ....|A-4 2C.F ....|D-4 UF5F ....
 A-3|..|A-4 2C.F ....|--- .... ....|--- .... ....
....|..|--- .... ....|R-- .... ....|--- .... ....
....|..|C-4 AF.A ....|A-4 2F.A ....|D-4 UF5A ....
 A-3|..|A-4 2C.F ....|A-4 2C.F ....|D-4 UF5F ....
....|..|--- .... ....|R-- .... ....|--- .... ....
....|..|C-4 AF.7 ....|A-4 2F.7 ....|D-4 UF57 ....
....|..|A-4 2F.A ....|A-4 2F.A ....|D-4 UF5A ....
 G-4|..|C-4 AF.F ....|G-4 2C.F ....|C-4 UF6F ....
 G-4|..|G-4 2C.F ....|--- .... ....|--- .... ....
....|..|A-4 2F.7 ....|A-4 2F.7 ....|D-4 UF57 ....
....|..|C-4 AF.A ....|G-4 2F.A ....|C-4 UF6A ....
 C-3|..|C-5 2C.F ....|C-5 2C.F ....|C-4 UF3F ....
....|..|--- .... ....|R-- .... ....|--- .... ....
....|..|C-4 AF.7 ....|G-4 2F.7 ....|C-4 UF67 ....
....|..|C-5 2F.A ....|C-5 2F.A ....|C-4 UF3A ....
....|..|C-4 AF.F ....|--- .... ....|F-4 UF6F ....
 C-3|..|C-5 2C.F ....|R-- .... ....|--- .... ....
 C-3|..|C-5 2F.7 ....|C-5 2C.F ....|C-4 UF37 ....
 A#3|..|C-4 AF.A ....|A#4 2C.F ....|F-4 UF6A ....
 A-3|..|C-5 2F.A ....|A-4 2C.F ....|--- .... ....
....|..|--- .... ....|C-5 2F.A ....|--- .... ....
....|..|C-4 AF.7 ....|A#4 2F.A ....|F-4 UF67 ....
....|..|C-5 2F.7 ....|A-4 2F.A ....|--- .... ....
....|..|C-4 AF.F ....|C-5 2F.7 ....|--- .... ....
....|..|--- .... ....|A#4 2F.7 ....|--- .... ....
....|..|--- .... ....|A-4 2F.7 ....|--- .... ....
....|..|C-4 AF.A ....|--- .... ....|--- .... ....
....|..|--- .... ....|--- .... ....|--- .... ....
....|..|--- .... ....|--- .... ....|--- .... ....
....|..|C-4 AF.7 ....|--- .... ....|--- .... ....
....|..|--- .... ....|--- .... ....|--- .... ....

[Pattern21]
....|..|C-4 AF.F ....|R-- .... ....|F-4 UF3F ....
 A-3|..|A-4 2C.F ....|--- .... ....|--- .... ....
....|..|--- .... ....|--- .... ....|--- .... ....
....|..|C-4 AF.A ....|R-- .... ....|F-4 UF3A ....
 A-3|..|A-4 2C.F ....|A-4 2C.F ....|F-4 UF3F ....
....|..|--- .... ....|--- .... ....|--- .... ....
....|..|C-4 AF.7 ....|R-- .... ....|F-4 UF37 ....
....|..|A-4 2F.A ....|A-4 2F.A ....|F-4 UF3A ....
 G-4|..|C-4 AF.F ....|G-4 2C.F ....|C-4 UF6F ....
 G-4|..|G-4 2C.F ....|--- .... ....|--- .... ....
....|..|A-4 2F.7 ....|A-4 2F.7 ....|F-4 UF37 ....
....|..|C-4 AF.A ....|G-4 2F.A ....|C-4 UF6A ....
 F-4|..|F-4 2C.F ....|F-4 2C.F ....|C-4 UF7F ....
....|..|--- .... ....|R-- .... ....|--- .... ....
....|..|C-4 AF.7 ....|G-4 2F.7 ....|C-4 UF67 ....
....|..|F-4 2F.A ....|F-4 2F.A ....|C-4 UF7A ....
....|..|C-4 AF.F ....|--- .... ....|A-3 UF8F ....
 F-4|..|F-4 2C.F ....|--- .... ....|--- .... ....
....|..|F-4 2F.7 ....|F-4 2F.7 ....|C-4 UF77 ....
....|..|C-4 AF.A ....|--- .... ....|A-3 UF8A ....
....|..|F-4 2F.A ....|--- .... ....|--- .... ....
....|..|--- .... ....|--- .... ....|--- .... ....
....|..|C-4 AF.7 ....|--- .... ....|A-3 UF87 ....
....|..|F-4 2F.7 ....|--- .... ....|--- .... ....
....|..|C-4 AF.F ....|R-- .... ....|--- .... ....
....|..|--- .... ....|--- .... ....|--- .... ....
....|..|--- .... ....|--- .... ....|--- .... ....
....|..|C-4 AF.A ....|R-- .... ....|--- .... ....
 D-4|..|D-4 2C.F ....|--- .... ....|A-3 UF2F ....
....|..|--- .... ....|--- .... ....|--- .... ....
....|..|C-4 AF.7 ....|R-- .... ....|--- .... ....
....|..|D-4 2F.A ....|--- .... ....|A-3 UF2A ....
 F-4|..|C-4 AF.F ....|F-4 2C.F ....|A-3 UF8F ....
 F-4|..|F-4 2C.F ....|--- .... ....|--- .... ....
....|..|D-4 2F.7 ....|--- .... ....|A-3 UF27 ....
....|..|C-4 AF.A ....|F-4 2F.A ....|A-3 UF8A ....
 G-4|..|G-4 2C.F ....|G-4 2C.F ....|A-3 UF9F ....
....|..|--- .... ....|--- .... ....|--- .... ....
....|..|C-4 AF.7 ....|F-4 2F.7 ....|A-3 UF87 ....
....|..|G-4 2F.A ....|G-4 2F.A ....|A-3 UF9A ....
 A-3|..|C-4 AF.F ....|A-4 2C.F ....|C-4 UF4F ....
 A-3|..|A-4 2C.F ....|--- .... ....|--- .... ....
....|..|G-4 2F.7 ....|G-4 2F.7 ....|A-3 UF97 ....
....|..|C-4 AF.A ....|A-4 2F.A ....|C-4 UF4A ....
 G-4|..|G-4 2C.F ....|G-4 2C.F ....|C-4 UF6F ....
....|..|--- .... ....|--- .... ....|--- .... ....
....|..|C-4 AF.7 ....|A-4 2F.7 ....|C-4 UF47 ....
....|..|G-4 2F.A ....|G-4 2F.A ....|C-4 UF6A ....
 F-4|..|C-4 AF.F ....|F-4 2C.F ....|A-3 UFAF ....
 F-4|..|F-4 2C.F ....|--- .... ....|--- .... ....
....|..|G-4 2F.7 ....|G-4 2F.7 ....|C-4 UF67 ....
....|..|C-4 AF.A ....|F-4 2F.A ....|A-3 UFAA ....
....|..|F-4 2F.A ....|--- .... ....|--- .... ....
....|..|--- .... ....|R-- .... ....|--- .... ....
....|..|C-4 AF.7 ....|F-4 2F.7 ....|A-3 UFA7 ....
....|..|F-4 2F.7 ....|--- .... ....|--- .... ....
....|..|C-4 AF.F ....|R-- .... ....|--- .... ....
....|..|--- .... ....|--- .... ....|--- .... ....
....|..|--- .... ....|--- .... ....|--- .... ....
....|..|C-4 AF.A ....|R-- .... ....|--- .... ....
....|..|--- .... ....|--- .... ....|--- .... ....
....|..|--- .... ....|--- .... ....|--- .... ....
....|..|C-4 AF.7 ....|--- .... ....|--- .... ....
....|..|--- .... ....|--- .... ....|--- .... ....

[Pattern22]
....|..|C-4 AF.F ....|--- .... ....|A-3 UF1F ....
 C-3|..|C-4 2C.F ....|--- .... ....|--- .... ....
....|..|--- .... ....|--- .... ....|--- .... ....
....|..|C-4 AF.A ....|--- .... ....|A-3 UF1A ....
 A-3|..|A-4 2C.F ....|A-4 2C.F ....|A-3 UF1F ....
....|..|--- .... ....|--- .... ....|--- .... ....
....|..|C-4 AF.7 ....|--- .... ....|A-3 UF17 ....
....|..|A-4 2F.A ....|A-4 2F.A ....|A-3 UF1A ....
 A-3|..|C-4 AF.F ....|A-4 2C.F ....|C-4 UF6F ....
 G-4|..|G-4 2C.F ....|G-4 2C.F ....|--- .... ....
....|..|A-4 2F.7 ....|A-4 2F.7 ....|A-3 UF17 ....
....|..|C-4 AF.A ....|A-4 2F.A ....|C-4 UF6A ....
 D-4|..|D-5 2C.F ....|D-5 2C.F ....|C-4 UF3F ....
....|..|--- .... ....|--- .... ....|--- .... ....
....|..|C-4 AF.7 ....|A-4 2F.7 ....|C-4 UF67 ....
....|..|D-5 2F.A ....|G-4 2F.7 ....|C-4 UF3A ....
....|..|C-4 AF.F ....|--- .... ....|F-4 UF4F ....
 D-4|..|D-5 2C.F ....|--- .... ....|--- .... ....
....|..|D-5 2F.7 ....|D-5 2F.7 ....|C-4 UF37 ....
....|..|C-4 AF.A ....|--- .... ....|F-4 UF4A ....
....|..|D-5 2F.A ....|--- .... ....|--- .... ....
....|..|--- .... ....|--- .... ....|--- .... ....
....|..|C-4 AF.7 ....|--- .... ....|F-4 UF47 ....
....|..|D-5 2F.7 ....|--- .... ....|--- .... ....
....|..|C-4 AF.F ....|--- .... ....|--- .... ....
....|..|--- .... ....|--- .... ....|--- .... ....
....|..|--- .... ....|R-- .... ....|--- .... ....
....|..|C-4 AF.A ....|--- .... ....|--- .... ....
....|..|--- .... ....|--- .... ....|--- .... ....
....|..|--- .... ....|R-- .... ....|--- .... ....
....|..|C-4 AF.7 ....|--- .... ....|--- .... ....
....|..|--- .... ....|--- .... ....|--- .... ....
....|..|C-4 AF.F ....|R-- .... ....|--- .... ....
....|..|--- .... ....|--- .... ....|--- .... ....
....|..|--- .... ....|--- .... ....|--- .... ....
....|..|C-4 AF.A ....|--- .... ....|--- .... ....
 A-3|..|A-4 2C.F ....|A-4 2C.F ....|D-4 UF5F ....
....|..|--- .... ....|--- .... ....|--- .... ....
....|..|C-4 AF.7 ....|--- .... ....|--- .... ....
....|..|A-4 2F.A ....|A-4 2F.A ....|D-4 UF5A ....
....|..|C-4 AF.F ....|--- .... ....|D-4 UF5F ....
 A-3|..|A-4 2C.F ....|--- .... ....|--- .... ....
....|..|A-4 2F.7 ....|A-4 2F.7 ....|D-4 UF57 ....
....|..|C-4 AF.A ....|--- .... ....|D-4 UF5A ....
 E-4|..|E-5 2C.F ....|E-5 2C.F ....|A-4 UF5F ....
....|..|--- .... ....|--- .... ....|--- .... ....
....|..|C-4 AF.7 ....|--- .... ....|D-4 UF57 ....
....|..|E-5 2F.A ....|E-5 2F.A ....|A-4 UF5A ....
....|..|C-4 AF.F ....|--- .... ....|A-4 UF5F ....
 E-4|..|E-5 2C.F ....|--- .... ....|--- .... ....
....|..|E-5 2F.7 ....|E-5 2F.7 ....|A-4 UF57 ....
....|..|C-4 AF.A ....|--- .... ....|A-4 UF5A ....
....|..|E-5 2F.A ....|--- .... ....|--- .... ....
....|..|--- .... ....|--- .... ....|--- .... ....
....|..|C-4 AF.7 ....|--- .... ....|A-4 UF57 ....
....|..|E-5 2F.7 ....|--- .... ....|--- .... ....
....|..|C-4 AF.F ....|--- .... ....|--- .... ....
....|..|--- .... ....|--- .... ....|--- .... ....
....|..|--- .... ....|--- .... ....|--- .... ....
....|..|C-4 AF.A ....|--- .... ....|--- .... ....
....|..|--- .... ....|--- .... ....|--- .... ....
....|..|--- .... ....|--- .... ....|--- .... ....
....|..|C-4 AF.7 ....|--- .... ....|--- .... ....
....|..|--- .... ....|--- .... ....|--- .... ....

[Pattern23]
....|..|C-4 AF.F ....|R-- .... ....|E-4 UF8F ....
 C-3|..|C-5 2C.F ....|--- .... ....|--- .... ....
....|..|--- .... ....|--- .... ....|--- .... ....
....|..|C-4 AF.A ....|R-- .... ....|E-4 UF8A ....
 C-3|..|C-5 2C.F ....|C-5 2C.F ....|E-4 UF8F ....
....|..|--- .... ....|--- .... ....|--- .... ....
....|..|C-4 AF.7 ....|R-- .... ....|E-4 UF87 ....
....|..|C-5 2F.A ....|C-5 2F.A ....|E-4 UF8A ....
 C-3|..|C-4 AF.F ....|C-5 2C.F ....|E-4 UF8F ....
 C-3|..|C-5 2C.F ....|R-- .... ....|--- .... ....
....|..|C-5 2F.7 ....|C-5 2F.7 ....|E-4 UF87 ....
....|..|C-4 AF.A ....|C-5 2F.A ....|E-4 UF8A ....
 E-4|..|E-5 2C.F ....|E-5 2C.F ....|G-4 UFBF ....
....|..|--- .... ....|--- .... ....|--- .... ....
....|..|C-4 AF.7 ....|C-5 2F.7 ....|E-4 UF87 ....
....|..|E-5 2F.A ....|E-5 2F.A ....|G-4 UFBA ....
....|..|C-4 AF.F ....|--- .... ....|--- .... ....
....|..|--- .... ....|--- .... ....|--- .... ....
....|..|E-5 2F.7 ....|E-5 2F.7 ....|G-4 UFB7 ....
....|..|C-4 AF.A ....|--- .... ....|--- .... ....
....|..|--- .... ....|--- .... ....|--- .... ....
....|..|--- .... ....|--- .... ....|--- .... ....
....|..|C-4 AF.7 ....|--- .... ....|--- .... ....
....|..|--- .... ....|--- .... ....|--- .... ....
....|..|C-4 AF.F ....|--- .... ....|--- .... ....
....|..|--- .... ....|--- .... ....|--- .... ....
....|..|--- .... ....|--- .... ....|--- .... ....
....|..|C-4 AF.A ....|--- .... ....|--- .... ....
....|..|--- .... ....|--- .... ....|--- .... ....
....|..|--- .... ....|--- .... ....|--- .... ....
....|..|C-4 AF.7 ....|--- .... ....|--- .... ....
....|..|--- .... ....|--- .... ....|--- .... ....
....|..|C-4 AF.F ....|R-- .... ....|E-4 UFAF ....
 C-3|..|C-5 2C.F ....|--- .... ....|--- .... ....
....|..|--- .... ....|--- .... ....|--- .... ....
....|..|C-4 AF.A ....|R-- .... ....|E-4 UFAA ....
 C-3|..|C-5 2C.F ....|C-5 2C.F ....|E-4 UFAF ....
....|..|--- .... ....|--- .... ....|--- .... ....
....|..|C-4 AF.7 ....|R-- .... ....|E-4 UFA7 ....
....|..|C-5 2F.A ....|C-5 2F.A ....|E-4 UFAA ....
....|..|C-4 AF.F ....|--- .... ....|--- .... ....
....|..|--- .... ....|--- .... ....|--- .... ....
....|..|C-5 2F.7 ....|C-5 2F.7 ....|E-4 UFA7 ....
....|..|C-4 AF.A ....|--- .... ....|--- .... ....
 G-4|..|G-5 2C.F ....|G-5 2C.F ....|A#4 UF4F ....
....|..|--- .... ....|--- .... ....|--- .... ....
....|..|C-4 AF.7 ....|--- .... ....|--- .... ....
....|..|G-5 2F.A ....|G-5 2F.A ....|A#4 UF4A ....
....|..|C-4 AF.F ....|--- .... ....|--- .... ....
....|..|--- .... ....|--- .... ....|--- .... ....
 F-4|..|F-5 2C.F ....|F-5 2C.F ....|A#4 UF6F ....
....|..|C-4 AF.A ....|--- .... ....|--- .... ....
 E-4|..|E-5 2C.F ....|E-5 2C.F ....|A#4 UFCF ....
....|..|F-5 2F.A ....|F-5 2F.A ....|A#4 UF6A ....
....|..|C-4 AF.7 ....|--- .... ....|--- .... ....
....|..|E-5 2F.A ....|E-5 2F.A ....|A#4 UFCA ....
....|..|C-4 AF.F ....|F-5 2F.7 ....|A#4 UF67 ....
....|..|F-5 2F.7 ....|--- .... ....|--- .... ....
....|..|E-5 2F.7 ....|E-5 2F.7 ....|A#4 UFC7 ....
....|..|C-4 AF.A ....|--- .... ....|--- .... ....
 F-4|..|F-5 2C.F ....|F-5 2C.F ....|A#4 UF6F ....
....|..|--- .... ....|--- .... ....|--- .... ....
....|..|C-4 AF.7 ....|--- .... ....|--- .... ....
....|..|F-5 2F.A ....|F-5 2F.A ....|A#4 UF6A ....

[Pattern24]
....|..|C-4 AF.F ....|--- .... ....|--- .... ....
....|..|--- .... ....|--- .... ....|--- .... ....
....|..|F-5 2F.7 ....|F-5 2F.7 ....|A#4 UF67 ....
....|..|C-4 AF.A ....|--- .... ....|--- .... ....
....|..|--- .... ....|--- .... ....|--- .... ....
....|..|--- .... ....|--- .... ....|--- .... ....
....|..|C-4 AF.7 ....|--- .... ....|--- .... ....
....|..|--- .... ....|--- .... ....|--- .... ....
 C-3|..|C-4 AF.F ....|C-5 2C.F ....|A#4 UFDF ....
 D-4|..|D-5 2C.F ....|--- .F.. ....|--- .... ....
....|..|--- .... ....|--- .... ....|--- .... ....
....|..|C-4 AF.A ....|C-5 2F.A ....|A#4 UFDA ....
 F-4|..|F-5 2C.F ....|F-5 2C.F ....|A-4 UFAF ....
....|..|--- .... ....|--- .... ....|--- .... ....
....|..|C-4 AF.7 ....|C-5 2F.7 ....|A#4 UFD7 ....
....|..|F-5 2F.A ....|F-5 2F.A ....|A-4 UFAA ....
....|..|C-4 AF.F ....|--- .... ....|--- .... ....
....|..|--- .... ....|--- .... ....|--- .... ....
....|..|F-5 2F.7 ....|F-5 2F.7 ....|A-4 UFA7 ....
....|..|C-4 AF.A ....|--- .... ....|--- .... ....
....|..|--- .... ....|--- .... ....|--- .... ....
....|..|--- .... ....|--- .... ....|--- .... ....
....|..|C-4 AF.7 ....|--- .... ....|--- .... ....
....|..|--- .... ....|--- .... ....|--- .... ....
....|..|C-4 AF.F ....|--- .... ....|--- .... ....
....|..|--- .... ....|--- .... ....|--- .... ....
....|..|--- .... ....|--- .... ....|--- .... ....
....|..|C-4 AF.A ....|--- .... ....|--- .... ....
....|..|--- .... ....|--- .... ....|--- .... ....
....|..|--- .... ....|--- .... ....|--- .... ....
....|..|C-4 AF.7 ....|--- .... ....|--- .... ....
....|..|--- .... ....|--- .... ....|--- .... ....
....|..|C-4 AF.F ....|--- .... ....|--- .... ....
....|..|--- .... ....|--- .... ....|--- .... ....
....|..|--- .... ....|--- .... ....|--- .... ....
....|..|C-4 AF.A ....|--- .... ....|--- .... ....
 C-3|..|C-5 2C.F ....|C-5 2C.F ....|A-4 UF1F ....
....|..|--- .... ....|--- .... ....|--- .... ....
....|..|C-4 AF.7 ....|R-- .... ....|--- .... ....
....|..|C-5 2F.A ....|C-5 2F.A ....|A-4 UF1A ....
 C-3|..|C-4 AF.F ....|C-5 2C.F ....|A-4 UF1F ....
 C-3|..|C-5 2C.F ....|R-- .... ....|--- .... ....
....|..|C-5 2F.7 ....|C-5 2F.7 ....|A-4 UF17 ....
....|..|C-4 AF.A ....|C-5 2F.A ....|A-4 UF1A ....
 G-4|..|G-5 2C.F ....|G-5 2C.F ....|C-4 UF6F ....
....|..|--- .... ....|--- .... ....|--- .... ....
....|..|C-4 AF.7 ....|C-5 2F.7 ....|A-4 UF17 ....
....|..|G-5 2F.A ....|G-5 2F.A ....|C-4 UF6A ....
....|..|C-4 AF.F ....|--- .... ....|--- .... ....
....|..|--- .... ....|R-- .... ....|--- .... ....
....|..|G-5 2F.7 ....|G-5 2F.7 ....|C-4 UF67 ....
....|..|C-4 AF.A ....|--- .... ....|--- .... ....
....|..|--- .... ....|--- .... ....|--- .... ....
....|..|--- .... ....|--- .... ....|--- .... ....
....|..|C-4 AF.7 ....|--- .... ....|--- .... ....
....|..|--- .... ....|--- .... ....|--- .... ....
....|..|C-4 AF.F ....|--- .... ....|--- .... ....
....|..|--- .... ....|--- .... ....|--- .... ....
....|..|--- .... ....|--- .... ....|--- .... ....
....|..|C-4 AF.A ....|--- .... ....|--- .... ....
....|..|--- .... ....|--- .... ....|--- .... ....
....|..|--- .... ....|--- .... ....|--- .... ....
....|..|C-4 AF.7 ....|--- .... ....|--- .... ....
....|..|--- .... ....|--- .... ....|--- .... ....

[Pattern25]
....|..|C-4 AF.F ....|R-- .... ....|C-4 UF3F ....
 E-4|..|E-5 2C.F ....|--- .... ....|--- .... ....
....|..|--- .... ....|--- .... ....|--- .... ....
....|..|C-4 AF.A ....|R-- .... ....|C-4 UF3A ....
 F-4|..|F-5 2C.F ....|F-5 2C.F ....|C-4 UF7F ....
....|..|--- .... ....|--- .... ....|--- .... ....
....|..|C-4 AF.7 ....|R-- .... ....|C-4 UF37 ....
....|..|F-5 2F.A ....|F-5 2F.A ....|C-4 UF7A ....
 G-4|..|C-4 AF.F ....|G-5 2C.F ....|C-4 UF6F ....
 G-4|..|G-5 2C.F ....|--- .... ....|--- .... ....
....|..|F-5 2F.7 ....|F-5 2F.7 ....|C-4 UF77 ....
....|..|C-4 AF.A ....|G-5 2F.A ....|C-4 UF6A ....
 A-3|..|A-5 2C.F ....|A-5 2C.F ....|D-4 UF5F ....
....|..|--- .... ....|--- .... ....|--- .... ....
....|..|C-4 AF.7 ....|G-5 2F.7 ....|C-4 UF67 ....
....|..|A-5 2F.A ....|A-5 2F.A ....|D-4 UF5A ....
....|..|C-4 AF.F ....|--- .... ....|--- .... ....
....|..|--- .... ....|--- .... ....|--- .... ....
....|..|A-5 2F.7 ....|A-5 2F.7 ....|D-4 UF57 ....
....|..|C-4 AF.A ....|--- .... ....|--- .... ....
....|..|--- .... ....|--- .... ....|--- .... ....
....|..|--- .... ....|--- .... ....|--- .... ....
....|..|C-4 AF.7 ....|--- .... ....|--- .... ....
....|..|--- .... ....|--- .... ....|--- .... ....
....|..|C-4 AF.F ....|--- .... ....|--- .... ....
....|..|--- .... ....|--- .... ....|--- .... ....
....|..|--- .... ....|--- .... ....|--- .... ....
....|..|C-4 AF.A ....|--- .... ....|--- .... ....
 F-4|..|F-5 2C.F ....|F-5 2C.F ....|A-4 UF8F ....
....|..|--- .... ....|--- .... ....|--- .... ....
....|..|C-4 AF.7 ....|--- .... ....|--- .... ....
....|..|F-5 2F.A ....|F-5 2F.A ....|A-4 UF8A ....
....|..|C-4 AF.F ....|--- .... ....|--- .... ....
....|..|--- .... ....|--- .... ....|--- .... ....
....|..|F-5 2F.7 ....|F-5 2F.7 ....|A-4 UF87 ....
....|..|C-4 AF.A ....|--- .... ....|--- .... ....
....|..|--- .... ....|--- .... ....|--- .... ....
....|..|--- .... ....|--- .... ....|--- .... ....
....|..|C-4 AF.7 ....|--- .... ....|--- .... ....
....|..|--- .... ....|--- .... ....|--- .... ....
 D-4|..|C-4 AF.F ....|D-5 2C.F ....|D-5 UF.F ....
 D-4|..|D-5 2C.F ....|--- .... ....|--- .... ....
....|..|--- .... ....|--- .... ....|--- .... ....
....|..|C-4 AF.A ....|D-5 2F.A ....|D-5 UF.A ....
....|..|D-5 2F.A ....|--- .... ....|--- .... ....
....|..|--- .... ....|--- .... ....|--- .... ....
....|..|C-4 AF.7 ....|D-5 2F.7 ....|D-5 UF.7 ....
....|..|D-5 2F.7 ....|--- .... ....|--- .... ....
....|..|C-4 AF.F ....|--- .... ....|F-4 UFBF ....
 D-4|..|D-5 2C.F ....|--- .... ....|--- .... ....
....|..|--- .... ....|--- .... ....|--- .... ....
....|..|C-4 AF.A ....|--- .... ....|F-4 UFBA ....
....|..|D-5 2F.A ....|--- .... ....|--- .... ....
....|..|--- .... ....|--- .... ....|--- .... ....
....|..|C-4 AF.7 ....|--- .... ....|F-4 UFB7 ....
....|..|D-5 2F.7 ....|--- .... ....|--- .... ....
....|..|C-4 AF.F ....|--- .... ....|--- .... ....
....|..|--- .... ....|R-- .... ....|--- .... ....
....|..|--- .... ....|--- .... ....|--- .... ....
....|..|C-4 AF.A ....|--- .... ....|--- .... ....
....|..|--- .... ....|R-- .... ....|--- .... ....
....|..|--- .... ....|--- .... ....|--- .... ....
....|..|C-4 AF.7 ....|--- .... ....|--- .... ....
....|..|--- .... ....|R-- .... ....|--- .... ....

[Pattern26]
....|..|C-4 AF.F ....|--- .... ....|--- .... ....
....|..|--- .... ....|--- .... ....|--- .... ....
....|..|--- .... ....|--- .... ....|--- .... ....
....|..|C-4 AF.A ....|--- .... ....|--- .... ....
....|..|--- .... ....|--- .... ....|--- .... ....
....|..|--- .... ....|--- .... ....|--- .... ....
....|..|C-4 AF.7 ....|--- .... ....|--- .... ....
....|..|--- .... ....|--- .... ....|--- .... ....
....|..|C-4 AF.F ....|--- .... ....|--- .... ....
....|..|--- .... ....|--- .... ....|--- .... ....
....|..|--- .... ....|--- .... ....|--- .... ....
....|..|C-4 AF.A ....|--- .... ....|--- .... ....
....|..|--- .... ....|--- .... ....|--- .... ....
....|..|--- .... ....|--- .... ....|--- .... ....
....|..|C-4 AF.7 ....|--- .... ....|--- .... ....
....|..|--- .... ....|--- .... ....|--- .... ....
 F-4|..|C-4 AF.F ....|F-5 2C.F ....|A-4 UFAF ....
 F-4|..|F-5 2C.F ....|--- .... ....|--- .... ....
....|..|--- .... ....|--- .... ....|--- .... ....
....|..|C-4 AF.A ....|F-5 2F.A ....|A-4 UFAA ....
....|..|F-5 2F.A ....|--- .... ....|--- .... ....
....|..|--- .... ....|--- .... ....|--- .... ....
....|..|C-4 AF.7 ....|F-5 2F.7 ....|A-4 UFA7 ....
....|..|F-5 2F.7 ....|--- .... ....|--- .... ....
....|..|C-4 AF.F ....|--- .... ....|--- .... ....
....|..|--- .... ....|--- .... ....|--- .... ....
....|..|--- .... ....|--- .... ....|--- .... ....
....|..|C-4 AF.A ....|--- .... ....|--- .... ....
 C-3|..|C-5 2C.F ....|C-5 2C.F ....|F-4 UF6F ....
....|..|--- .... ....|--- .... ....|--- .... ....
....|..|C-4 AF.7 ....|--- .... ....|--- .... ....
....|..|C-5 2F.A ....|C-5 2F.A ....|F-4 UF6A ....
....|..|C-4 AF.F ....|--- .... ....|--- .... ....
....|..|--- .... ....|--- .... ....|--- .... ....
....|..|C-5 2F.7 ....|C-5 2F.7 ....|F-4 UF67 ....
....|..|C-4 AF.A ....|--- .... ....|--- .... ....
 F-4|..|F-5 2C.F ....|F-5 2C.F ....|F-4 UF3F ....
....|..|--- .... ....|--- .... ....|--- .... ....
....|..|C-4 AF.7 ....|--- .... ....|--- .... ....
....|..|F-5 2F.A ....|F-5 2F.A ....|F-4 UF3A ....
 C-3|..|C-4 AF.F ....|C-5 2C.F ....|F-4 UF6F ....
 C-3|..|C-5 2C.F ....|--- .... ....|--- .... ....
....|..|F-5 2F.7 ....|F-5 2F.7 ....|F-4 UF37 ....
....|..|C-4 AF.A ....|C-5 2F.A ....|F-4 UF6A ....
 F-4|..|F-5 2C.F ....|F-5 2C.F ....|F-4 UF3F ....
....|..|--- .... ....|--- .... ....|--- .... ....
....|..|C-4 AF.7 ....|C-5 2F.7 ....|F-4 UF67 ....
 A-3|..|A-4 2C.F ....|F-5 2F.A ....|F-4 UF3F ....
 G-4|..|C-4 AF.F ....|G-5 2C.F ....|A-4 UF1F ....
 G-4|..|G-5 2C.F ....|--- .... ....|--- .... ....
....|..|F-5 2F.7 ....|F-5 2F.7 ....|F-4 UF37 ....
....|..|C-4 AF.A ....|G-5 2F.A ....|A-4 UF1A ....
....|..|G-5 2F.A ....|--- .... ....|--- .... ....
....|..|A-4 2F.7 ....|R-- .... ....|F-4 UF37 ....
....|..|C-4 AF.7 ....|G-5 2F.7 ....|A-4 UF17 ....
....|..|G-5 2F.7 ....|--- .... ....|--- .... ....
 E-4|..|C-4 AF.F ....|E-5 2C.F ....|A-4 UF5F ....
 E-4|..|E-5 2C.F ....|--- .... ....|--- .... ....
....|..|--- .... ....|--- .... ....|--- .... ....
....|..|C-4 AF.A ....|E-5 2F.A ....|A-4 UF5A ....
 C-3|..|C-5 2C.F ....|C-5 2C.F ....|E-4 UFAF ....
....|..|--- .... ....|--- .... ....|--- .... ....
....|..|C-4 AF.7 ....|E-5 2F.7 ....|A-4 UF57 ....
....|..|C-5 2F.A ....|C-5 2F.A ....|E-4 UFAA ....

[Pattern27]
....|..|C-4 AF.F ....|--- .... ....|--- .... ....
....|..|--- .... ....|--- .... ....|--- .... ....
....|..|C-5 2F.7 ....|C-5 2F.7 ....|E-4 UFA7 ....
....|..|C-4 AF.A ....|--- .... ....|--- .... ....
 G-4|..|G-5 2C.F ....|G-5 2C.F ....|E-4 UF1F ....
....|..|--- .... ....|--- .... ....|--- .... ....
....|..|C-4 AF.7 ....|--- .... ....|--- .... ....
....|..|G-5 2F.A ....|G-5 2F.A ....|E-4 UF1A ....
 E-4|..|C-4 AF.F ....|E-5 2C.F ....|A-4 UF5F ....
 E-4|..|E-5 2C.F ....|--- .... ....|--- .... ....
....|..|G-5 2F.7 ....|G-5 2F.7 ....|E-4 UF17 ....
....|..|C-4 AF.A ....|E-5 2F.A ....|A-4 UF5A ....
 C-3|..|C-5 2C.F ....|C-5 2C.F ....|A-4 UF1F ....
....|..|--- .... ....|--- .... ....|--- .... ....
....|..|C-4 AF.7 ....|E-5 2F.7 ....|A-4 UF57 ....
....|..|C-5 2F.A ....|C-5 2F.A ....|A-4 UF1A ....
 G-4|..|C-4 AF.F ....|G-5 2C.F ....|C-4 UF6F ....
 G-4|..|G-5 2C.F ....|--- .... ....|--- .... ....
....|..|C-5 2F.7 ....|C-5 2F.7 ....|A-4 UF17 ....
....|..|C-4 AF.A ....|G-5 2F.A ....|C-4 UF6A ....
....|..|G-5 2F.A ....|--- .... ....|--- .... ....
....|..|--- .... ....|--- .... ....|--- .... ....
....|..|C-4 AF.7 ....|G-5 2F.7 ....|C-4 UF67 ....
....|..|G-5 2F.7 ....|--- .... ....|--- .... ....
 E-4|..|C-4 AF.F ....|E-5 2C.F ....|C-4 UF3F ....
 E-4|..|E-5 2C.F ....|--- .... ....|--- .... ....
....|..|--- .... ....|--- .... ....|--- .... ....
....|..|C-4 AF.A ....|E-5 2F.A ....|C-4 UF3A ....
 C-3|..|C-5 2C.F ....|C-5 2C.F ....|E-4 UFAF ....
....|..|--- .... ....|--- .... ....|--- .... ....
....|..|C-4 AF.7 ....|E-5 2F.7 ....|C-4 UF37 ....
....|..|C-5 2F.A ....|C-5 2F.A ....|E-4 UFAA ....
....|..|C-4 AF.F ....|--- .... ....|--- .... ....
....|..|--- .... ....|--- .... ....|--- .... ....
....|..|C-5 2F.7 ....|C-5 2F.7 ....|E-4 UFA7 ....
....|..|C-4 AF.A ....|--- .... ....|--- .... ....
 G-4|..|G-5 2C.F ....|G-5 2C.F ....|E-4 UF1F ....
....|..|--- .... ....|--- .... ....|--- .... ....
....|..|C-4 AF.7 ....|--- .... ....|--- .... ....
....|..|G-5 2F.A ....|G-5 2F.A ....|E-4 UF1A ....
 E-4|..|C-4 AF.F ....|E-5 2C.F ....|A-4 UF5F ....
 E-4|..|E-5 2C.F ....|--- .... ....|--- .... ....
....|..|G-5 2F.7 ....|G-5 2F.7 ....|E-4 UF17 ....
....|..|C-4 AF.A ....|E-5 2F.A ....|A-4 UF5A ....
 C-3|..|C-5 2C.F ....|C-5 2C.F ....|A-4 UF1F ....
....|..|--- .... ....|--- .... ....|--- .... ....
....|..|C-4 AF.7 ....|E-5 2F.7 ....|A-4 UF57 ....
....|..|C-5 2F.A ....|C-5 2F.A ....|A-4 UF1A ....
 D-4|..|C-4 AF.F ....|D-5 2C.F ....|F-4 UFBF ....
 D-4|..|D-5 2C.F ....|--- .... ....|--- .... ....
....|..|C-5 2F.7 ....|C-5 2F.7 ....|A-4 UF17 ....
....|..|C-4 AF.A ....|D-5 2F.A ....|F-4 UFBA ....
 E-4|..|E-5 2C.F ....|E-5 2C.F ....|A#4 UFCF ....
 E-4|..|E-5 2C.F ....|E-5 2C.F ....|F-4 UFEF ....
....|..|C-4 AF.7 ....|D-5 2F.7 ....|F-4 UFB7 ....
....|..|E-5 2F.A ....|E-5 2F.A ....|A#4 UFCA ....
 F-4|..|C-4 AF.F ....|F-5 2C.F ....|F-4 UF2F ....
 F-4|..|F-5 2C.F ....|--- .... ....|--- .... ....
....|..|E-5 2F.7 ....|E-5 2F.7 ....|A#4 UFC7 ....
....|..|C-4 AF.A ....|E-5 2F.7 ....|F-4 UFE7 ....
 F-4|..|F-5 2C.F ....|F-5 2C.F ....|A-4 UF8F ....
....|..|--- .... ....|R-- .... ....|--- .... ....
....|..|C-4 AF.7 ....|F-5 2F.7 ....|F-4 UF27 ....
....|..|F-5 2F.A ....|F-5 2F.A ....|A-4 UF8A ....

[Pattern28]
 G-4|..|C-4 AF.F ....|G-5 2C.F ....|A-4 UF9F ....
 G-4|..|G-5 2C.F ....|--- .... ....|--- .... ....
....|..|F-5 2F.7 ....|F-5 2F.7 ....|A-4 UF87 ....
....|..|C-4 AF.A ....|G-5 2F.A ....|A-4 UF9A ....
 A-3|..|A-5 2C.F ....|A-5 2C.F ....|A-4 UF2F ....
....|..|--- .... ....|--- .... ....|--- .... ....
 D-4|..|D-5 2C.F ....|G-5 2F.7 ....|A-4 UF2F ....
....|..|A-5 2F.A ....|A-5 2F.A ....|A-4 UF2A ....
 A-3|..|C-4 AF.F ....|A-5 2C.F ....|D-4 UF5F ....
 A-3|..|A-5 2C.F ....|R-- .... ....|A-4 UF2A ....
....|..|D-5 2F.A ....|A-5 2F.7 ....|A-4 UF27 ....
....|..|C-4 AF.A ....|A-5 2F.A ....|D-4 UF5A ....
....|..|A-5 2F.7 ....|R-- .... ....|A-4 UF27 ....
....|..|A-5 2F.A ....|--- .... ....|--- .... ....
....|..|C-4 AF.7 ....|A-5 2F.7 ....|D-4 UF57 ....
....|..|D-5 2F.7 ....|--- .... ....|--- .... ....
 G-4|..|C-4 AF.F ....|G-5 2C.F ....|C-4 UF6F ....
....|..|A-5 2F.7 ....|--- .... ....|--- .... ....
 G-4|..|G-5 2C.F ....|--- .... ....|--- .... ....
....|..|C-4 AF.A ....|G-5 2F.A ....|C-4 UF6A ....
 F-4|..|G-5 2F.A ....|F-5 2C.F ....|--- .... ....
....|..|--- .... ....|--- .... ....|--- .... ....
....|..|C-4 AF.7 ....|G-5 2F.7 ....|C-4 UF67 ....
....|..|G-5 2F.7 ....|F-5 2F.A ....|--- .... ....
 F-4|..|C-4 AF.F ....|F-5 2C.F ....|A-4 UFAF ....
 F-4|..|F-5 2C.F ....|--- .... ....|--- .... ....
....|..|--- .... ....|F-5 2F.7 ....|--- .... ....
....|..|C-4 AF.A ....|F-5 2F.A ....|A-4 UFAA ....
....|..|F-5 2F.A ....|--- .... ....|--- .... ....
....|..|--- .... ....|--- .... ....|--- .... ....
....|..|C-4 AF.7 ....|F-5 2F.7 ....|A-4 UFA7 ....
....|..|F-5 2F.7 ....|--- .... ....|--- .... ....
....|..|C-4 AF.F ....|--- .... ....|--- .... ....
....|..|--- .... ....|--- .... ....|--- .... ....
....|..|--- .... ....|--- .... ....|--- .... ....
....|..|C-4 AF.A ....|--- .... ....|--- .... ....
 C-3|..|C-5 2C.F ....|C-5 2C.F ....|F-4 UF6F ....
....|..|--- .... ....|--- .... ....|--- .... ....
....|..|C-4 AF.7 ....|--- .... ....|--- .... ....
....|..|C-5 2F.A ....|C-5 2F.A ....|F-4 UF6A ....
....|..|C-4 AF.F ....|--- .... ....|--- .... ....
....|..|--- .... ....|--- .... ....|--- .... ....
....|..|C-5 2F.7 ....|C-5 2F.7 ....|F-4 UF67 ....
....|..|C-4 AF.A ....|--- .... ....|--- .... ....
 F-4|..|F-5 2C.F ....|F-5 2C.F ....|F-4 UF3F ....
....|..|--- .... ....|--- .... ....|--- .... ....
....|..|C-4 AF.7 ....|--- .... ....|--- .... ....
....|..|F-5 2F.A ....|F-5 2F.A ....|F-4 UF3A ....
 C-3|..|C-4 AF.F ....|C-5 2C.F ....|F-4 UF6F ....
 C-3|..|C-5 2C.F ....|--- .... ....|--- .... ....
....|..|F-5 2F.7 ....|F-5 2F.7 ....|F-4 UF37 ....
....|..|C-4 AF.A ....|C-5 2F.A ....|F-4 UF6A ....
 F-4|..|F-5 2C.F ....|F-5 2C.F ....|F-4 UF3F ....
....|..|--- .... ....|--- .... ....|--- .... ....
....|..|C-4 AF.7 ....|C-5 2F.7 ....|F-4 UF67 ....
 A-3|..|A-4 2C.F ....|F-5 2F.A ....|F-4 UF3F ....
 G-4|..|C-4 AF.F ....|G-5 2C.F ....|A-4 UF1F ....
 G-4|..|G-5 2C.F ....|--- .... ....|--- .... ....
....|..|F-5 2F.7 ....|F-5 2F.7 ....|F-4 UF37 ....
....|..|C-4 AF.A ....|G-5 2F.A ....|A-4 UF1A ....
....|..|G-5 2F.A ....|--- .... ....|--- .... ....
....|..|A-4 2F.7 ....|R-- .... ....|F-4 UF37 ....
....|..|C-4 AF.7 ....|G-5 2F.7 ....|A-4 UF17 ....
....|..|G-5 2F.7 ....|--- .... ....|--- .... ....

[Pattern29]
 E-4|..|C-4 AF.F ....|E-5 2C.F ....|A-4 UF5F ....
 E-4|..|E-5 2C.F ....|--- .... ....|--- .... ....
....|..|--- .... ....|--- .... ....|--- .... ....
....|..|C-4 AF.A ....|E-5 2F.A ....|A-4 UF5A ....
 C-3|..|C-5 2C.F ....|C-5 2C.F ....|E-4 UFAF ....
....|..|--- .... ....|--- .... ....|--- .... ....
....|..|C-4 AF.7 ....|E-5 2F.7 ....|A-4 UF57 ....
....|..|C-5 2F.A ....|C-5 2F.A ....|E-4 UFAA ....
....|..|C-4 AF.F ....|--- .... ....|--- .... ....
....|..|--- .... ....|--- .... ....|--- .... ....
....|..|C-5 2F.7 ....|C-5 2F.7 ....|E-4 UFA7 ....
....|..|C-4 AF.A ....|--- .... ....|--- .... ....
 G-4|..|G-5 2C.F ....|G-5 2C.F ....|E-4 UF1F ....
....|..|--- .... ....|--- .... ....|--- .... ....
....|..|C-4 AF.7 ....|--- .... ....|--- .... ....
....|..|G-5 2F.A ....|G-5 2F.A ....|E-4 UF1A ....
 E-4|..|C-4 AF.F ....|E-5 2C.F ....|A-4 UF5F ....
 E-4|..|E-5 2C.F ....|--- .... ....|--- .... ....
....|..|G-5 2F.7 ....|G-5 2F.7 ....|E-4 UF17 ....
....|..|C-4 AF.A ....|E-5 2F.A ....|A-4 UF5A ....
 C-3|..|C-5 2C.F ....|C-5 2C.F ....|A-4 UF1F ....
....|..|--- .... ....|--- .... ....|--- .... ....
....|..|C-4 AF.7 ....|E-5 2F.7 ....|A-4 UF57 ....
....|..|C-5 2F.A ....|C-5 2F.A ....|A-4 UF1A ....
 G-4|..|C-4 AF.F ....|G-5 2C.F ....|C-4 UF6F ....
 G-4|..|G-5 2C.F ....|--- .... ....|--- .... ....
....|..|C-5 2F.7 ....|C-5 2F.7 ....|A-4 UF17 ....
....|..|C-4 AF.A ....|G-5 2F.A ....|C-4 UF6A ....
....|..|G-5 2F.A ....|--- .... ....|--- .... ....
....|..|--- .... ....|--- .... ....|--- .... ....
....|..|C-4 AF.7 ....|G-5 2F.7 ....|C-4 UF67 ....
....|..|G-5 2F.7 ....|--- .... ....|--- .... ....
 E-4|..|C-4 AF.F ....|E-5 2C.F ....|C-4 UF3F ....
 E-4|..|E-5 2C.F ....|--- .... ....|--- .... ....
....|..|--- .... ....|--- .... ....|--- .... ....
....|..|C-4 AF.A ....|E-5 2F.A ....|C-4 UF3A ....
 C-3|..|C-5 2C.F ....|C-5 2C.F ....|E-4 UFAF ....
....|..|--- .... ....|--- .... ....|--- .... ....
....|..|C-4 AF.7 ....|E-5 2F.7 ....|C-4 UF37 ....
....|..|C-5 2F.A ....|C-5 2F.A ....|E-4 UFAA ....
....|..|C-4 AF.F ....|--- .... ....|--- .... ....
....|..|--- .... ....|--- .... ....|--- .... ....
....|..|C-5 2F.7 ....|C-5 2F.7 ....|E-4 UFA7 ....
....|..|C-4 AF.A ....|--- .... ....|--- .... ....
 G-4|..|G-5 2C.F ....|G-5 2C.F ....|E-4 UF1F ....
....|..|--- .... ....|--- .... ....|--- .... ....
....|..|C-4 AF.7 ....|--- .... ....|--- .... ....
....|..|G-5 2F.A ....|G-5 2F.A ....|E-4 UF1A ....
 E-4|..|C-4 AF.F ....|E-5 2C.F ....|A-4 UF5F ....
 E-4|..|E-5 2C.F ....|--- .... ....|--- .... ....
....|..|G-5 2F.7 ....|G-5 2F.7 ....|E-4 UF17 ....
....|..|C-4 AF.A ....|E-5 2F.A ....|A-4 UF5A ....
 C-3|..|C-5 2C.F ....|C-5 2C.F ....|A-4 UF1F ....
....|..|--- .... ....|--- .... ....|--- .... ....
....|..|C-4 AF.7 ....|E-5 2F.7 ....|A-4 UF57 ....
....|..|C-5 2F.A ....|C-5 2F.A ....|A-4 UF1A ....
 D-4|..|C-4 AF.F ....|D-5 2C.F ....|F-4 UFBF ....
 D-4|..|D-5 2C.F ....|--- .... ....|--- .... ....
....|..|C-5 2F.7 ....|C-5 2F.7 ....|A-4 UF17 ....
....|..|C-4 AF.A ....|D-5 2F.A ....|F-4 UFBA ....
 E-4|..|E-5 2C.F ....|E-5 2C.F ....|A#4 UFCF ....
 E-4|..|E-5 2C.F ....|E-5 2C.F ....|F-4 UFEF ....
....|..|C-4 AF.7 ....|D-5 2F.7 ....|F-4 UFB7 ....
....|..|E-5 2F.A ....|E-5 2F.A ....|A#4 UFCA ....

[Pattern30]
 F-4|..|C-4 AF.F ....|F-5 2C.F ....|F-4 UF2F ....
 F-4|..|F-5 2C.F ....|--- .... ....|--- .... ....
....|..|E-5 2F.7 ....|E-5 2F.7 ....|A#4 UFC7 ....
....|..|C-4 AF.A ....|E-5 2F.7 ....|F-4 UFE7 ....
 F-4|..|F-5 2C.F ....|F-5 2C.F ....|A-4 UF8F ....
....|..|--- .... ....|R-- .... ....|--- .... ....
....|..|C-4 AF.7 ....|F-5 2F.7 ....|F-4 UF27 ....
....|..|F-5 2F.A ....|F-5 2F.A ....|A-4 UF8A ....
 G-4|..|C-4 AF.F ....|G-5 2C.F ....|A-4 UF9F ....
 G-4|..|G-5 2C.F ....|--- .... ....|--- .... ....
....|..|F-5 2F.7 ....|F-5 2F.7 ....|A-4 UF87 ....
....|..|C-4 AF.A ....|G-5 2F.A ....|A-4 UF9A ....
 A-3|..|A-5 2C.F ....|A-5 2C.F ....|A-4 UF2F ....
....|..|--- .... ....|--- .... ....|--- .... ....
 D-4|..|D-5 2C.F ....|G-5 2F.7 ....|A-4 UF2F ....
....|..|A-5 2F.A ....|A-5 2F.A ....|A-4 UF2A ....
 A-3|..|C-4 AF.F ....|A-5 2C.F ....|D-4 UF5F ....
 A-3|..|A-5 2C.F ....|R-- .... ....|A-4 UF2A ....
....|..|D-5 2F.A ....|A-5 2F.7 ....|A-4 UF27 ....
....|..|C-4 AF.A ....|A-5 2F.A ....|D-4 UF5A ....
....|..|A-5 2F.7 ....|R-- .... ....|A-4 UF27 ....
....|..|A-5 2F.A ....|--- .... ....|--- .... ....
....|..|C-4 AF.7 ....|A-5 2F.7 ....|D-4 UF57 ....
....|..|D-5 2F.7 ....|--- .... ....|--- .... ....
 G-4|..|C-4 AF.F ....|G-5 2C.F ....|C-4 UF6F ....
....|..|A-5 2F.7 ....|--- .... ....|--- .... ....
 G-4|..|G-5 2C.F ....|--- .... ....|--- .... ....
....|..|C-4 AF.A ....|G-5 2F.A ....|C-4 UF6A ....
 F-4|..|G-5 2F.A ....|F-5 2C.F ....|--- .... ....
....|..|--- .... ....|--- .... ....|--- .... ....
....|..|C-4 AF.7 ....|G-5 2F.7 ....|C-4 UF67 ....
....|..|G-5 2F.7 ....|F-5 2F.A ....|--- .... ....
....|..|C-4 AF.F ....|R-- .... ....|F-4 UF3F ....
 A-3|..|A-4 2C.F ....|--- .... ....|--- .... ....
....|..|--- .... ....|F-5 2F.7 ....|--- .... ....
....|..|C-4 AF.A ....|R-- .... ....|F-4 UF3A ....
 F-4|..|F-5 2C.F ....|--- .... ....|F-4 UF3F ....
....|..|--- .... ....|--- .... ....|--- .... ....
....|..|C-4 AF.7 ....|R-- .... ....|F-4 UF37 ....
....|..|F-5 2F.A ....|--- .... ....|F-4 UF3A ....
....|..|C-4 AF.F ....|--- .... ....|F-4 UF3F ....
 F-4|..|F-5 2C.F ....|--- .... ....|--- .... ....
....|..|F-5 2F.7 ....|--- .... ....|F-4 UF37 ....
....|..|C-4 AF.A ....|--- .... ....|F-4 UF3A ....
 E-4|..|E-5 2C.F ....|--- .... ....|F-4 UF3F ....
....|..|--- .... ....|--- .... ....|--- .... ....
....|..|C-4 AF.7 ....|--- .... ....|F-4 UF37 ....
....|..|E-5 2F.A ....|--- .... ....|F-4 UF3A ....
 E-4|..|E-5 2C.F ....|--- .... ....|F-4 UF3F ....
....|..|--- .... ....|--- .... ....|--- .... ....
....|..|E-5 2F.7 ....|--- .... ....|F-4 UF37 ....
....|..|E-5 2F.A ....|--- .... ....|F-4 UF3A ....
 D-4|..|D-5 2C.F ....|--- .... ....|F-4 UF4F ....
....|..|--- .... ....|--- .... ....|--- .... ....
....|..|E-5 2F.7 ....|--- .... ....|F-4 UF37 ....
....|..|D-5 2F.A ....|--- .... ....|F-4 UF4A ....
 D-4|..|D-5 2C.F ....|--- .... ....|E-4 UF1F ....
....|..|--- .... ....|--- .... ....|--- .... ....
....|..|D-5 2F.7 ....|--- .... ....|F-4 UF47 ....
....|..|D-5 2F.A ....|--- .... ....|E-4 UF1A ....
 C-3|..|C-5 2C.F ....|--- .... ....|E-4 UFAF ....
....|..|--- .... ....|--- .... ....|--- .... ....
....|..|D-5 2F.7 ....|--- .... ....|E-4 UF17 ....
....|..|C-5 2F.A ....|--- .... ....|E-4 UFAA ....

[Pattern31]
 C-3|..|C-5 2C.F ....|--- .... ....|A-4 UF1F ....
....|..|--- .... ....|--- .... ....|--- .... ....
....|..|C-5 2F.7 ....|--- .... ....|E-4 UFA7 ....
....|..|C-5 2F.A ....|--- .... ....|A-4 UF1A ....
 F-4|..|F-5 2C.F ....|--- .... ....|A-4 UFAF ....
....|..|--- .... ....|--- .... ....|--- .... ....
....|..|C-5 2F.7 ....|--- .... ....|A-4 UF17 ....
....|..|F-5 2F.A ....|--- .... ....|A-4 UFAA ....
 F-4|..|F-5 2C.F ....|--- .... ....|A-4 UFAF ....
....|..|--- .... ....|--- .... ....|--- .... ....
....|..|F-5 2F.7 ....|--- .... ....|A-4 UFA7 ....
....|..|F-5 2F.A ....|--- .... ....|A-4 UFAA ....
 E-4|..|E-5 2C.F ....|--- .... ....|A-4 UF5F ....
....|..|--- .... ....|--- .... ....|--- .... ....
....|..|F-5 2F.7 ....|--- .... ....|A-4 UFA7 ....
....|..|E-5 2F.A ....|--- .... ....|A-4 UF5A ....
 E-4|..|E-5 2C.F ....|--- .... ....|A-4 UF5F ....
....|..|--- .... ....|--- .... ....|--- .... ....
....|..|E-5 2F.7 ....|--- .... ....|A-4 UF57 ....
....|..|E-5 2F.A ....|--- .... ....|A-4 UF5A ....
 D-4|..|D-5 2C.F ....|--- .... ....|A-4 UFFF ....
....|..|--- .... ....|--- .... ....|--- .... ....
....|..|E-5 2F.7 ....|--- .... ....|A-4 UF57 ....
....|..|D-5 2F.A ....|--- .... ....|A-4 UFFA ....
 C-3|..|C-5 2C.F ....|--- .... ....|E-4 UFAF ....
....|..|--- .... ....|--- .... ....|--- .... ....
....|..|D-5 2F.7 ....|--- .... ....|A-4 UFF7 ....
....|..|C-5 2F.A ....|--- .... ....|E-4 UFAA ....
 A-3|..|A-4 2C.F ....|--- .... ....|E-4 UFFF ....
....|..|--- .... ....|--- .... ....|--- .... ....
....|..|C-5 2F.7 ....|--- .... ....|E-4 UFA7 ....
....|..|A-4 2F.A ....|--- .... ....|E-4 UFFA ....
 A-3|..|A-4 2C.F ....|--- .... ....|F-4 UF3F ....
....|..|--- .... ....|--- .... ....|--- .... ....
....|..|A-4 2F.7 ....|--- .... ....|E-4 UFF7 ....
....|..|A-4 2F.A ....|--- .... ....|F-4 UF3A ....
 F-4|..|F-5 2C.F ....|--- .... ....|F-4 UF3F ....
....|..|--- .... ....|--- .... ....|--- .... ....
....|..|A-4 2F.7 ....|--- .... ....|F-4 UF37 ....
....|..|F-5 2F.A ....|--- .... ....|F-4 UF3A ....
 F-4|..|F-5 2C.F ....|--- .... ....|F-4 UF3F ....
....|..|--- .... ....|--- .... ....|--- .... ....
....|..|F-5 2F.7 ....|--- .... ....|F-4 UF37 ....
....|..|F-5 2F.A ....|--- .... ....|F-4 UF3A ....
 E-4|..|E-5 2C.F ....|--- .... ....|F-4 UF3F ....
....|..|--- .... ....|--- .... ....|--- .... ....
....|..|F-5 2F.7 ....|--- .... ....|F-4 UF37 ....
....|..|E-5 2F.A ....|--- .... ....|F-4 UF3A ....
 E-4|..|E-5 2C.F ....|--- .... ....|F-4 UF3F ....
....|..|--- .... ....|--- .... ....|--- .... ....
....|..|E-5 2F.7 ....|--- .... ....|F-4 UF37 ....
....|..|E-5 2F.A ....|--- .... ....|F-4 UF3A ....
 D-4|..|D-5 2C.F ....|--- .... ....|F-4 UF4F ....
....|..|--- .... ....|--- .... ....|--- .... ....
....|..|E-5 2F.7 ....|--- .... ....|F-4 UF37 ....
....|..|D-5 2F.A ....|--- .... ....|F-4 UF4A ....
 D-4|..|D-5 2C.F ....|--- .... ....|E-4 UF1F ....
....|..|--- .... ....|--- .... ....|--- .... ....
....|..|D-5 2F.7 ....|--- .... ....|F-4 UF47 ....
....|..|D-5 2F.A ....|--- .... ....|E-4 UF1A ....
 C-3|..|C-5 2C.F ....|--- .... ....|E-4 UFAF ....
....|..|--- .... ....|--- .... ....|--- .... ....
....|..|D-5 2F.7 ....|--- .... ....|E-4 UF17 ....
....|..|C-5 2F.A ....|--- .... ....|E-4 UFAA ....

[Pattern32]
 C-3|..|C-4 2C.F ....|--- .... ....|A-3 UF1F ....
....|..|--- .... ....|--- .... ....|--- .... ....
....|..|C-5 2F.7 ....|--- .... ....|E-4 UFA7 ....
....|..|C-4 2F.A ....|--- .... ....|A-3 UF1A ....
 F-4|..|F-4 2C.F ....|--- .... ....|A-3 UFAF ....
....|..|--- .... ....|--- .... ....|--- .... ....
....|..|C-4 2F.7 ....|--- .... ....|A-3 UF17 ....
....|..|F-4 2F.A ....|--- .... ....|A-3 UFAA ....
 F-4|..|F-4 2C.F ....|--- .... ....|A-3 UFAF ....
....|..|--- .... ....|--- .... ....|--- .... ....
....|..|F-4 2F.7 ....|--- .... ....|A-3 UFA7 ....
....|..|F-4 2F.A ....|--- .... ....|A-3 UFAA ....
 G-4|..|G-4 2C.F ....|--- .... ....|A-3 UF1F ....
....|..|--- .... ....|--- .... ....|--- .... ....
....|..|F-4 2F.7 ....|--- .... ....|A-3 UFA7 ....
....|..|G-4 2F.A ....|--- .... ....|A-3 UF1A ....
 A-3|..|A-4 2C.F ....|--- .... ....|A-3 UF1F ....
....|..|--- .... ....|--- .... ....|--- .... ....
....|..|G-4 2F.7 ....|--- .... ....|A-3 UF17 ....
....|..|A-4 2F.A ....|--- .... ....|A-3 UF1A ....
 C-3|..|C-5 2C.F ....|--- .... ....|A-3 UF1F ....
....|..|--- .... ....|--- .... ....|--- .... ....
....|..|A-4 2F.7 ....|--- .... ....|A-3 UF17 ....
....|..|C-5 2F.A ....|--- .... ....|A-3 UF1A ....
 D-4|..|D-5 2C.F ....|--- .... ....|E-4 UF1F ....
....|..|--- .... ....|--- .... ....|--- .... ....
....|..|C-5 2F.7 ....|--- .... ....|A-3 UF17 ....
....|..|D-5 2F.A ....|--- .... ....|E-4 UF1A ....
 C-3|..|C-5 2C.F ....|--- .... ....|E-4 UFAF ....
....|..|--- .... ....|--- .... ....|--- .... ....
....|..|D-5 2F.7 ....|--- .... ....|E-4 UF17 ....
....|..|C-5 2F.A ....|--- .... ....|E-4 UFAA ....
....|..|C-4 AF.F ....|--- .... ....|F-4 UF3F ....
 A-3|..|A-4 2C.F ....|--- .... ....|--- .... ....
....|..|C-5 2F.7 ....|--- .... ....|E-4 UFA7 ....
....|..|C-4 AF.A ....|--- .... ....|F-4 UF3A ....
 F-4|..|F-5 2C.F ....|--- .... ....|F-4 UF3F ....
....|..|--- .... ....|--- .... ....|--- .... ....
....|..|C-4 AF.7 ....|--- .... ....|F-4 UF37 ....
....|..|F-5 2F.A ....|--- .... ....|F-4 UF3A ....
....|..|C-4 AF.F ....|--- .... ....|F-4 UF3F ....
 F-4|..|F-5 2C.F ....|--- .... ....|--- .... ....
....|..|F-5 2F.7 ....|--- .... ....|F-4 UF37 ....
....|..|C-4 AF.A ....|--- .... ....|F-4 UF3A ....
 E-4|..|E-5 2C.F ....|--- .... ....|F-4 UF3F ....
....|..|--- .... ....|--- .... ....|--- .... ....
....|..|C-4 AF.7 ....|--- .... ....|F-4 UF37 ....
....|..|E-5 2F.A ....|--- .... ....|F-4 UF3A ....
 E-4|..|E-5 2C.F ....|--- .... ....|F-4 UF3F ....
....|..|--- .... ....|--- .... ....|--- .... ....
....|..|E-5 2F.7 ....|--- .... ....|F-4 UF37 ....
....|..|E-5 2F.A ....|--- .... ....|F-4 UF3A ....
 D-4|..|D-5 2C.F ....|--- .... ....|F-4 UF4F ....
....|..|--- .... ....|--- .... ....|--- .... ....
....|..|E-5 2F.7 ....|--- .... ....|F-4 UF37 ....
....|..|D-5 2F.A ....|--- .... ....|F-4 UF4A ....
 D-4|..|D-5 2C.F ....|--- .... ....|E-4 UF1F ....
....|..|--- .... ....|--- .... ....|--- .... ....
....|..|D-5 2F.7 ....|--- .... ....|F-4 UF47 ....
....|..|D-5 2F.A ....|--- .... ....|E-4 UF1A ....
 C-3|..|C-5 2C.F ....|--- .... ....|E-4 UFAF ....
....|..|--- .... ....|--- .... ....|--- .... ....
....|..|D-5 2F.7 ....|--- .... ....|E-4 UF17 ....
....|..|C-5 2F.A ....|--- .... ....|E-4 UFAA ....

[Pattern33]
 C-3|..|C-5 2C.F ....|--- .... ....|A-4 UF1F ....
....|..|--- .... ....|--- .... ....|--- .... ....
....|..|C-5 2F.7 ....|--- .... ....|E-4 UFA7 ....
....|..|C-5 2F.A ....|--- .... ....|A-4 UF1A ....
 A-3|..|A-5 2C.F ....|--- .... ....|A-4 UF1F ....
....|..|--- .... ....|--- .... ....|--- .... ....
....|..|C-5 2F.7 ....|--- .... ....|A-4 UF17 ....
....|..|A-5 2F.A ....|--- .... ....|A-4 UF1A ....
 A-3|..|A-5 2C.F ....|--- .... ....|A-4 UF1F ....
....|..|--- .... ....|--- .... ....|--- .... ....
....|..|A-5 2F.7 ....|--- .... ....|A-4 UF17 ....
....|..|A-5 2F.A ....|--- .... ....|A-4 UF1A ....
 G-4|..|G-5 2C.F ....|--- .... ....|A-4 UF1F ....
....|..|--- .... ....|--- .... ....|--- .... ....
....|..|A-5 2F.7 ....|--- .... ....|A-4 UF17 ....
....|..|G-5 2F.A ....|--- .... ....|A-4 UF1A ....
 G-4|..|G-5 2C.F ....|--- .... ....|A-4 UF1F ....
....|..|--- .... ....|--- .... ....|--- .... ....
....|..|G-5 2F.7 ....|--- .... ....|A-4 UF17 ....
....|..|G-5 2F.A ....|--- .... ....|A-4 UF1A ....
 F-4|..|F-5 2C.F ....|--- .... ....|A-4 UFAF ....
....|..|--- .... ....|--- .... ....|--- .... ....
....|..|G-5 2F.7 ....|--- .... ....|A-4 UF17 ....
....|..|F-5 2F.A ....|--- .... ....|A-4 UFAA ....
 G-4|..|G-5 2C.F ....|--- .... ....|C-4 UF6F ....
....|..|--- .... ....|--- .... ....|--- .... ....
....|..|F-5 2F.7 ....|--- .... ....|A-4 UFA7 ....
....|..|G-5 2F.A ....|--- .... ....|C-4 UF6A ....
 A-3|..|A-5 2C.F ....|--- .... ....|C-4 UF4F ....
....|..|--- .... ....|--- .... ....|--- .... ....
....|..|G-5 2F.7 ....|--- .... ....|C-4 UF67 ....
....|..|A-5 2F.A ....|--- .... ....|C-4 UF4A ....
 D-4|..|D-4 2C.F ....|--- .... ....|A-3 UF2F ....
....|..|--- .... ....|--- .... ....|--- .... ....
....|..|A-5 2F.7 ....|--- .... ....|C-4 UF47 ....
....|..|D-4 2F.A ....|--- .... ....|A-3 UF2A ....
 F-4|..|F-4 2C.F ....|--- .... ....|A-3 UF8F ....
....|..|--- .... ....|--- .... ....|--- .... ....
....|..|D-4 2F.7 ....|--- .... ....|A-3 UF27 ....
....|..|F-4 2F.A ....|--- .... ....|A-3 UF8A ....
 F-4|..|F-4 2C.F ....|--- .... ....|A-3 UF8F ....
....|..|--- .... ....|--- .... ....|--- .... ....
....|..|F-4 2F.7 ....|--- .... ....|A-3 UF87 ....
....|..|F-4 2F.A ....|--- .... ....|A-3 UF8A ....
 G-4|..|G-4 2C.F ....|--- .... ....|A-3 UF9F ....
....|..|--- .... ....|--- .... ....|--- .... ....
....|..|F-4 2F.7 ....|--- .... ....|A-3 UF87 ....
....|..|G-4 2F.A ....|--- .... ....|A-3 UF9A ....
 G-4|..|G-4 2C.F ....|--- .... ....|A-3 UF9F ....
....|..|--- .... ....|--- .... ....|--- .... ....
....|..|G-4 2F.7 ....|--- .... ....|A-3 UF97 ....
....|..|G-4 2F.A ....|--- .... ....|A-3 UF9A ....
 A-3|..|A-4 2C.F ....|--- .... ....|A-3 UF2F ....
....|..|--- .... ....|--- .... ....|--- .... ....
....|..|G-4 2F.7 ....|--- .... ....|A-3 UF97 ....
....|..|A-4 2F.A ....|--- .... ....|A-3 UF2A ....
 A-3|..|A-4 2C.F ....|--- .... ....|C-4 UF4F ....
....|..|--- .... ....|--- .... ....|--- .... ....
....|..|A-4 2F.7 ....|--- .... ....|A-3 UF27 ....
....|..|A-4 2F.A ....|--- .... ....|C-4 UF4A ....
 C-3|..|C-5 2C.F ....|--- .... ....|C-4 UF3F ....
....|..|--- .... ....|--- .... ....|--- .... ....
....|..|A-4 2F.7 ....|--- .... ....|C-4 UF47 ....
....|..|C-5 2F.A ....|--- .... ....|C-4 UF3A ....

[Pattern34]
 C-3|..|C-5 2C.F ....|--- .... ....|F-4 UF6F ....
....|..|--- .... ....|--- .... ....|--- .... ....
....|..|C-5 2F.7 ....|--- .... ....|C-4 UF37 ....
....|..|C-5 2F.A ....|--- .... ....|F-4 UF6A ....
 D-4|..|D-5 2C.F ....|--- .... ....|F-4 UF4F ....
....|..|--- .... ....|--- .... ....|--- .... ....
....|..|C-5 2F.7 ....|--- .... ....|F-4 UF67 ....
....|..|D-5 2F.A ....|--- .... ....|F-4 UF4A ....
 D-4|..|D-5 2C.F ....|--- .... ....|F-4 UF4F ....
....|..|--- .... ....|--- .... ....|--- .... ....
....|..|D-5 2F.7 ....|--- .... ....|F-4 UF47 ....
....|..|D-5 2F.A ....|--- .... ....|F-4 UF4A ....
 F-4|..|F-5 2C.F ....|--- .... ....|F-4 UF3F ....
....|..|--- .... ....|--- .... ....|--- .... ....
....|..|D-5 2F.7 ....|--- .... ....|F-4 UF47 ....
....|..|F-5 2F.A ....|--- .... ....|F-4 UF3A ....
 F-4|..|F-5 2C.F ....|--- .... ....|F-4 UF3F ....
....|..|--- .... ....|--- .... ....|--- .... ....
....|..|F-5 2F.7 ....|--- .... ....|F-4 UF37 ....
....|..|F-5 2F.A ....|--- .... ....|F-4 UF3A ....
 G-4|..|G-5 2C.F ....|A-4 2F.F ....|F-4 UF3F ....
....|..|--- .... ....|--- .... ....|--- .... ....
....|..|F-5 2F.7 ....|--- .... ....|F-4 UF37 ....
....|..|G-5 2F.A ....|A-4 2F.A ....|F-4 UF3A ....
 G-4|..|G-5 2C.F ....|A-4 2F.F ....|C-4 UF6F ....
....|..|--- .... ....|--- .... ....|--- .... ....
....|..|G-5 2F.7 ....|A-4 2F.7 ....|F-4 UF37 ....
....|..|G-5 2F.A ....|A-4 2F.A ....|C-4 UF6A ....
 A-3|..|A-5 2C.F ....|D-5 2F.F ....|C-4 UF4F ....
....|..|--- .... ....|R-- .... ....|--- .... ....
....|..|G-5 2F.7 ....|A-4 2F.7 ....|C-4 UF67 ....
....|..|A-5 2F.A ....|D-5 2F.A ....|C-4 UF4A ....
....|..|C-4 AF.F ....|--- .... ....|D-4 UF5F ....
 A-3|..|A-4 2C.F ....|R-- .... ....|--- .... ....
....|..|A-5 2F.7 ....|D-5 2F.7 ....|C-4 UF47 ....
....|..|C-4 AF.A ....|--- .... ....|D-4 UF5A ....
....|..|A-4 2F.A ....|--- .... ....|--- .... ....
....|..|--- .... ....|--- .... ....|--- .... ....
....|..|C-4 AF.7 ....|--- .... ....|D-4 UF57 ....
....|..|A-4 2F.7 ....|--- .... ....|--- .... ....
....|..|C-4 AF.F ....|--- .... ....|--- .... ....
....|..|--- .... ....|--- .... ....|--- .... ....
....|..|--- .... ....|--- .... ....|--- .... ....
....|..|C-4 AF.A ....|--- .... ....|--- .... ....
....|..|--- .... ....|--- .... ....|--- .... ....
....|..|--- .... ....|--- .... ....|--- .... ....
....|..|C-4 AF.7 ....|--- .... ....|--- .... ....
....|..|--- .... ....|--- .... ....|--- .... ....
....|..|C-4 AF.F ....|R-- .... ....|--- .... ....
....|..|--- .... ....|--- .... ....|--- .... ....
....|..|--- .... ....|--- .... ....|--- .... ....
....|..|C-4 AF.A ....|R-- .... ....|--- .... ....
 A-3|..|--- .... ....|A-4 2C.F ....|--- .... ....
....|..|--- .... ....|--- .... ....|--- .... ....
....|..|C-4 AF.7 ....|R-- .... ....|--- .... ....
....|..|--- .... ....|A-4 2F.A ....|--- .... ....
....|..|C-4 AF.F ....|--- .... ....|D-4 UF5F ....
 A-3|..|A-4 2C.F ....|--- .... ....|--- .... ....
....|..|--- .... ....|A-4 2F.7 ....|--- .... ....
....|..|C-4 AF.A ....|--- .... ....|D-4 UF5A ....
 E-4|..|E-5 2C.F ....|E-5 2C.F ....|A-4 UF5F ....
....|..|--- .... ....|--- .... ....|--- .... ....
....|..|C-4 AF.7 ....|--- .... ....|D-4 UF57 ....
....|..|E-5 2F.A ....|E-5 2F.A ....|A-4 UF5A ....

[Pattern35]
....|..|C-4 AF.F ....|--- .... ....|A-4 UF5F ....
 E-4|..|E-5 2C.F ....|--- .... ....|--- .... ....
....|..|E-5 2F.7 ....|E-5 2F.7 ....|A-4 UF57 ....
....|..|C-4 AF.A ....|--- .... ....|A-4 UF5A ....
....|..|E-5 2F.A ....|--- .... ....|--- .... ....
....|..|--- .... ....|--- .... ....|--- .... ....
....|..|C-4 AF.7 ....|--- .... ....|A-4 UF57 ....
....|..|E-5 2F.7 ....|--- .... ....|--- .... ....
....|..|C-4 AF.F ....|--- .... ....|--- .... ....
....|..|--- .... ....|--- .... ....|--- .... ....
....|..|--- .... ....|--- .... ....|--- .... ....
....|..|C-4 AF.A ....|--- .... ....|--- .... ....
....|..|--- .... ....|--- .... ....|--- .... ....
....|..|--- .... ....|--- .... ....|--- .... ....
....|..|C-4 AF.7 ....|--- .... ....|--- .... ....
....|..|--- .... ....|--- .... ....|--- .... ....
....|..|C-4 AF.F ....|R-- .... ....|E-4 UF8F ....
 C-3|..|C-5 2C.F ....|--- .... ....|--- .... ....
....|..|--- .... ....|--- .... ....|--- .... ....
....|..|C-4 AF.A ....|R-- .... ....|E-4 UF8A ....
 C-3|..|C-5 2C.F ....|C-5 2C.F ....|E-4 UF8F ....
....|..|--- .... ....|--- .... ....|--- .... ....
....|..|C-4 AF.7 ....|R-- .... ....|E-4 UF87 ....
....|..|C-5 2F.A ....|C-5 2F.A ....|E-4 UF8A ....
 C-3|..|C-4 AF.F ....|C-5 2C.F ....|E-4 UF8F ....
 C-3|..|C-5 2C.F ....|R-- .... ....|--- .... ....
....|..|C-5 2F.7 ....|C-5 2F.7 ....|E-4 UF87 ....
....|..|C-4 AF.A ....|C-5 2F.A ....|E-4 UF8A ....
 E-4|..|E-5 2C.F ....|E-5 2C.F ....|G-4 UFBF ....
....|..|--- .... ....|--- .... ....|--- .... ....
....|..|C-4 AF.7 ....|C-5 2F.7 ....|E-4 UF87 ....
....|..|E-5 2F.A ....|E-5 2F.A ....|G-4 UFBA ....
....|..|C-4 AF.F ....|--- .... ....|--- .... ....
....|..|--- .... ....|--- .... ....|--- .... ....
....|..|E-5 2F.7 ....|E-5 2F.7 ....|G-4 UFB7 ....
....|..|C-4 AF.A ....|--- .... ....|--- .... ....
....|..|--- .... ....|--- .... ....|--- .... ....
....|..|--- .... ....|--- .... ....|--- .... ....
....|..|C-4 AF.7 ....|--- .... ....|--- .... ....
....|..|--- .... ....|--- .... ....|--- .... ....
....|..|C-4 AF.F ....|--- .... ....|--- .... ....
....|..|--- .... ....|--- .... ....|--- .... ....
....|..|--- .... ....|--- .... ....|--- .... ....
....|..|C-4 AF.A ....|--- .... ....|--- .... ....
....|..|--- .... ....|--- .... ....|--- .... ....
....|..|--- .... ....|--- .... ....|--- .... ....
....|..|C-4 AF.7 ....|--- .... ....|--- .... ....
....|..|--- .... ....|--- .... ....|--- .... ....
....|..|C-4 AF.F ....|R-- .... ....|E-4 UFAF ....
 C-3|..|C-5 2C.F ....|--- .... ....|--- .... ....
....|..|--- .... ....|--- .... ....|--- .... ....
....|..|C-4 AF.A ....|R-- .... ....|E-4 UFAA ....
 C-3|..|C-5 2C.F ....|C-5 2C.F ....|E-4 UFAF ....
....|..|--- .... ....|--- .... ....|--- .... ....
....|..|C-4 AF.7 ....|R-- .... ....|E-4 UFA7 ....
....|..|C-5 2F.A ....|C-5 2F.A ....|E-4 UFAA ....
....|..|C-4 AF.F ....|--- .... ....|--- .... ....
....|..|--- .... ....|--- .... ....|--- .... ....
....|..|C-5 2F.7 ....|C-5 2F.7 ....|E-4 UFA7 ....
....|..|C-4 AF.A ....|--- .... ....|--- .... ....
 G-4|..|G-5 2C.F ....|G-5 2C.F ....|A#4 UF4F ....
....|..|--- .... ....|--- .... ....|--- .... ....
....|..|C-4 AF.7 ....|--- .... ....|--- .... ....
....|..|G-5 2F.A ....|G-5 2F.A ....|A#4 UF4A ....

[Pattern36]
....|..|C-4 AF.F ....|--- .... ....|--- .... ....
....|..|--- .... ....|--- .... ....|--- .... ....
 F-4|..|F-5 2C.F ....|F-5 2C.F ....|A#4 UF6F ....
....|..|C-4 AF.A ....|--- .... ....|--- .... ....
 E-4|..|E-5 2C.F ....|E-5 2C.F ....|A#4 UFCF ....
....|..|F-5 2F.A ....|F-5 2F.A ....|A#4 UF6A ....
....|..|C-4 AF.7 ....|--- .... ....|--- .... ....
....|..|E-5 2F.A ....|E-5 2F.A ....|A#4 UFCA ....
....|..|C-4 AF.F ....|F-5 2F.7 ....|A#4 UF67 ....
....|..|F-5 2F.7 ....|--- .... ....|--- .... ....
....|..|E-5 2F.7 ....|E-5 2F.7 ....|A#4 UFC7 ....
....|..|C-4 AF.A ....|--- .... ....|--- .... ....
 F-4|..|F-5 2C.F ....|F-5 2C.F ....|A#4 UF6F ....
....|..|--- .... ....|--- .... ....|--- .... ....
....|..|C-4 AF.7 ....|--- .... ....|--- .... ....
....|..|F-5 2F.A ....|F-5 2F.A ....|A#4 UF6A ....
....|..|C-4 AF.F ....|--- .... ....|--- .... ....
....|..|--- .... ....|--- .... ....|--- .... ....
....|..|F-5 2F.7 ....|F-5 2F.7 ....|A#4 UF67 ....
....|..|C-4 AF.A ....|--- .... ....|--- .... ....
....|..|--- .... ....|--- .... ....|--- .... ....
....|..|--- .... ....|--- .... ....|--- .... ....
....|..|C-4 AF.7 ....|--- .... ....|--- .... ....
....|..|--- .... ....|--- .... ....|--- .... ....
 C-3|..|C-4 AF.F ....|C-5 2C.F ....|A#4 UFDF ....
 D-4|..|D-5 2C.F ....|--- .F.. ....|--- .... ....
....|..|--- .... ....|--- .... ....|--- .... ....
....|..|C-4 AF.A ....|C-5 2F.A ....|A#4 UFDA ....
 F-4|..|F-5 2C.F ....|F-5 2C.F ....|A-4 UFAF ....
....|..|--- .... ....|--- .... ....|--- .... ....
....|..|C-4 AF.7 ....|C-5 2F.7 ....|A#4 UFD7 ....
....|..|F-5 2F.A ....|F-5 2F.A ....|A-4 UFAA ....
....|..|C-4 AF.F ....|--- .... ....|--- .... ....
....|..|--- .... ....|--- .... ....|--- .... ....
....|..|F-5 2F.7 ....|F-5 2F.7 ....|A-4 UFA7 ....
....|..|C-4 AF.A ....|--- .... ....|--- .... ....
....|..|--- .... ....|--- .... ....|--- .... ....
....|..|--- .... ....|--- .... ....|--- .... ....
....|..|C-4 AF.7 ....|--- .... ....|--- .... ....
....|..|--- .... ....|--- .... ....|--- .... ....
....|..|C-4 AF.F ....|--- .... ....|--- .... ....
....|..|--- .... ....|--- .... ....|--- .... ....
....|..|--- .... ....|--- .... ....|--- .... ....
....|..|C-4 AF.A ....|--- .... ....|--- .... ....
....|..|--- .... ....|--- .... ....|--- .... ....
....|..|--- .... ....|--- .... ....|--- .... ....
....|..|C-4 AF.7 ....|--- .... ....|--- .... ....
....|..|--- .... ....|--- .... ....|--- .... ....
....|..|C-4 AF.F ....|--- .... ....|--- .... ....
....|..|--- .... ....|--- .... ....|--- .... ....
....|..|--- .... ....|--- .... ....|--- .... ....
....|..|C-4 AF.A ....|--- .... ....|--- .... ....
 C-3|..|C-5 2C.F ....|C-5 2C.F ....|A-4 UF1F ....
....|..|--- .... ....|--- .... ....|--- .... ....
....|..|C-4 AF.7 ....|R-- .... ....|--- .... ....
....|..|C-5 2F.A ....|C-5 2F.A ....|A-4 UF1A ....
 C-3|..|C-4 AF.F ....|C-5 2C.F ....|A-4 UF1F ....
 C-3|..|C-5 2C.F ....|R-- .... ....|--- .... ....
....|..|C-5 2F.7 ....|C-5 2F.7 ....|A-4 UF17 ....
....|..|C-4 AF.A ....|C-5 2F.A ....|A-4 UF1A ....
 G-4|..|G-5 2C.F ....|G-5 2C.F ....|C-4 UF6F ....
....|..|--- .... ....|--- .... ....|--- .... ....
....|..|C-4 AF.7 ....|C-5 2F.7 ....|A-4 UF17 ....
....|..|G-5 2F.A ....|G-5 2F.A ....|C-4 UF6A ....

[Pattern37]
....|..|C-4 AF.F ....|--- .... ....|--- .... ....
....|..|--- .... ....|R-- .... ....|--- .... ....
....|..|G-5 2F.7 ....|G-5 2F.7 ....|C-4 UF67 ....
....|..|C-4 AF.A ....|--- .... ....|--- .... ....
....|..|--- .... ....|--- .... ....|--- .... ....
....|..|--- .... ....|--- .... ....|--- .... ....
....|..|C-4 AF.7 ....|--- .... ....|--- .... ....
....|..|--- .... ....|--- .... ....|--- .... ....
....|..|C-4 AF.F ....|--- .... ....|--- .... ....
....|..|--- .... ....|--- .... ....|--- .... ....
....|..|--- .... ....|--- .... ....|--- .... ....
....|..|C-4 AF.A ....|--- .... ....|--- .... ....
....|..|--- .... ....|--- .... ....|--- .... ....
....|..|--- .... ....|--- .... ....|--- .... ....
....|..|C-4 AF.7 ....|--- .... ....|--- .... ....
....|..|--- .... ....|--- .... ....|--- .... ....
....|..|C-4 AF.F ....|R-- .... ....|C-4 UF3F ....
 E-4|..|E-5 2C.F ....|--- .... ....|--- .... ....
....|..|--- .... ....|--- .... ....|--- .... ....
....|..|C-4 AF.A ....|R-- .... ....|C-4 UF3A ....
 F-4|..|F-5 2C.F ....|F-5 2C.F ....|C-4 UF7F ....
....|..|--- .... ....|--- .... ....|--- .... ....
....|..|C-4 AF.7 ....|R-- .... ....|C-4 UF37 ....
....|..|F-5 2F.A ....|F-5 2F.A ....|C-4 UF7A ....
 G-4|..|C-4 AF.F ....|G-5 2C.F ....|C-4 UF6F ....
 G-4|..|G-5 2C.F ....|--- .... ....|--- .... ....
....|..|F-5 2F.7 ....|F-5 2F.7 ....|C-4 UF77 ....
....|..|C-4 AF.A ....|G-5 2F.A ....|C-4 UF6A ....
 A-3|..|A-5 2C.F ....|A-5 2C.F ....|D-4 UF5F ....
....|..|--- .... ....|--- .... ....|--- .... ....
....|..|C-4 AF.7 ....|G-5 2F.7 ....|C-4 UF67 ....
....|..|A-5 2F.A ....|A-5 2F.A ....|D-4 UF5A ....
....|..|C-4 AF.F ....|--- .... ....|--- .... ....
....|..|--- .... ....|--- .... ....|--- .... ....
....|..|A-5 2F.7 ....|A-5 2F.7 ....|D-4 UF57 ....
....|..|C-4 AF.A ....|--- .... ....|--- .... ....
....|..|--- .... ....|--- .... ....|--- .... ....
....|..|--- .... ....|--- .... ....|--- .... ....
....|..|C-4 AF.7 ....|--- .... ....|--- .... ....
....|..|--- .... ....|--- .... ....|--- .... ....
....|..|C-4 AF.F ....|--- .... ....|--- .... ....
....|..|--- .... ....|--- .... ....|--- .... ....
....|..|--- .... ....|--- .... ....|--- .... ....
....|..|C-4 AF.A ....|--- .... ....|--- .... ....
 F-4|..|F-5 2C.F ....|F-5 2C.F ....|A-4 UF8F ....
....|..|--- .... ....|--- .... ....|--- .... ....
....|..|C-4 AF.7 ....|--- .... ....|--- .... ....
....|..|F-5 2F.A ....|F-5 2F.A ....|A-4 UF8A ....
....|..|C-4 AF.F ....|--- .... ....|--- .... ....
....|..|--- .... ....|--- .... ....|--- .... ....
....|..|F-5 2F.7 ....|F-5 2F.7 ....|A-4 UF87 ....
....|..|C-4 AF.A ....|--- .... ....|--- .... ....
....|..|--- .... ....|--- .... ....|--- .... ....
....|..|--- .... ....|--- .... ....|--- .... ....
....|..|C-4 AF.7 ....|--- .... ....|--- .... ....
....|..|--- .... ....|--- .... ....|--- .... ....
 D-4|..|C-4 AF.F ....|D-5 2C.F ....|D-5 UF.F ....
 D-4|..|D-5 2C.F ....|--- .... ....|--- .... ....
....|..|--- .... ....|--- .... ....|--- .... ....
....|..|C-4 AF.A ....|D-5 2F.A ....|D-5 UF.A ....
....|..|D-5 2F.A ....|--- .... ....|--- .... ....
....|..|--- .... ....|--- .... ....|--- .... ....
....|..|C-4 AF.7 ....|D-5 2F.7 ....|D-5 UF.7 ....
....|..|D-5 2F.7 ....|--- .... ....|--- .... ....

[Pattern38]
....|..|C-4 AF.F ....|--- .... ....|F-4 UFBF ....
 D-4|..|D-5 2C.F ....|--- .... ....|--- .... ....
....|..|--- .... ....|--- .... ....|--- .... ....
....|..|C-4 AF.A ....|--- .... ....|F-4 UFBA ....
....|..|D-5 2F.A ....|--- .... ....|--- .... ....
....|..|--- .... ....|--- .... ....|--- .... ....
....|..|C-4 AF.7 ....|--- .... ....|F-4 UFB7 ....
....|..|D-5 2F.7 ....|--- .... ....|--- .... ....
....|..|C-4 AF.F ....|--- .... ....|--- .... ....
....|..|--- .... ....|R-- .... ....|--- .... ....
....|..|--- .... ....|--- .... ....|--- .... ....
....|..|C-4 AF.A ....|--- .... ....|--- .... ....
....|..|--- .... ....|R-- .... ....|--- .... ....
....|..|--- .... ....|--- .... ....|--- .... ....
....|..|C-4 AF.7 ....|--- .... ....|--- .... ....
....|..|--- .... ....|R-- .... ....|--- .... ....
....|..|C-4 AF.F ....|--- .... ....|--- .... ....
....|..|--- .... ....|--- .... ....|--- .... ....
....|..|--- .... ....|--- .... ....|--- .... ....
....|..|C-4 AF.A ....|--- .... ....|--- .... ....
....|..|--- .... ....|--- .... ....|--- .... ....
....|..|--- .... ....|--- .... ....|--- .... ....
....|..|C-4 AF.7 ....|--- .... ....|--- .... ....
....|..|--- .... ....|--- .... ....|--- .... ....
....|..|C-4 AF.F ....|--- .... ....|--- .... ....
....|..|--- .... ....|--- .... ....|--- .... ....
....|..|--- .... ....|--- .... ....|--- .... ....
....|..|C-4 AF.A ....|--- .... ....|--- .... ....
....|..|--- .... ....|--- .... ....|--- .... ....
....|..|--- .... ....|--- .... ....|--- .... ....
....|..|C-4 AF.7 ....|--- .... ....|--- .... ....
....|..|--- .... ....|--- .... ....|--- .... ....
....|..|R-- .... ....|--- .... ....|R-- .... ....
....|..|--- .... ....|--- .... ....|--- .... ....
....|..|--- .... ....|--- .... ....|--- .... ....
....|..|R-- .... ....|--- .... ....|R-- .... ....
....|..|--- .... ....|--- .... ....|--- .... ....
....|..|--- .... ....|--- .... ....|--- .... ....
....|..|R-- .... ....|--- .... ....|R-- .... ....
....|..|--- .... ....|--- .... ....|--- .... ....
....|..|--- .... ....|--- .... ....|--- .... ....
....|..|--- .... ....|--- .... ....|--- .... ....
....|..|--- .... ....|--- .... ....|--- .... ....
....|..|--- .... ....|--- .... ....|--- .... ....
....|..|--- .... ....|--- .... ....|--- .... ....
....|..|--- .... ....|--- .... ....|--- .... ....
....|..|--- .... ....|--- .... ....|--- .... ....
....|..|--- .... ....|--- .... ....|--- .... ....
....|..|--- .... ....|--- .... ....|--- .... ....
....|..|--- .... ....|--- .... ....|--- .... ....
....|..|--- .... ....|--- .... ....|--- .... ....
....|..|--- .... ....|--- .... ....|--- .... ....
....|..|--- .... ....|--- .... ....|--- .... ....
....|..|--- .... ....|--- .... ....|--- .... ....
....|..|--- .... ....|--- .... ....|--- .... ....
....|..|--- .... ....|--- .... ....|--- .... ....
....|..|--- .... ....|--- .... ....|--- .... ....
....|..|--- .... ....|--- .... ....|--- .... ....
....|..|--- .... ....|--- .... ....|--- .... ....
....|..|--- .... ....|--- .... ....|--- .... ....
....|..|--- .... ....|--- .... ....|--- .... ....
....|..|--- .... ....|--- .... ....|--- .... ....
....|..|--- .... ....|--- .... ....|--- .... ....
....|..|--- .... ....|--- .... ....|--- .... ....

[Pattern43]
 A-3|..|C-4 AF.F ....|A-5 2C.F ....|D-4 UF5F ....
 A-3|..|A-5 2C.F ....|R-- .... ....|A-4 UF2A ....
....|..|D-5 2F.A ....|A-5 2F.7 ....|A-4 UF27 ....
....|..|C-4 AF.A ....|A-5 2F.A ....|D-4 UF5A ....
....|..|A-5 2F.7 ....|R-- .... ....|A-4 UF27 ....
....|..|A-5 2F.A ....|--- .... ....|--- .... ....
....|..|C-4 AF.7 ....|A-5 2F.7 ....|D-4 UF57 ....
....|..|D-5 2F.7 ....|--- .... ....|--- .... ....
 G-4|..|C-4 AF.F ....|G-5 2C.F ....|C-4 UF6F ....
....|..|A-5 2F.7 ....|--- .... ....|--- .... ....
 G-4|..|G-5 2C.F ....|--- .... ....|--- .... ....
....|..|C-4 AF.A ....|G-5 2F.A ....|C-4 UF6A ....
 F-4|..|G-5 2F.A ....|F-5 2C.F ....|--- .... ....
....|..|--- .... ....|--- .... ....|--- .... ....
....|..|C-4 AF.7 ....|G-5 2F.7 ....|C-4 UF67 ....
....|..|G-5 2F.7 ....|F-5 2F.A ....|--- .... ....
 F-4|..|C-4 AF.F ....|F-5 2C.F ....|A-4 UFAF ....
 F-4|..|F-5 2C.F ....|--- .... ....|--- .... ....
....|..|--- .... ....|F-5 2F.7 ....|--- .... ....
....|..|C-4 AF.A ....|F-5 2F.A ....|A-4 UFAA ....
....|..|F-5 2F.A ....|--- .... ....|--- .... ....
....|..|--- .... ....|--- .... ....|--- .... ....
....|..|C-4 AF.7 ....|F-5 2F.7 ....|A-4 UFA7 ....
....|..|F-5 2F.7 ....|--- .... ....|--- .... ....
....|..|C-4 AF.F ....|--- .... ....|--- .... ....
....|..|--- .... ....|--- .... ....|--- .... ....
....|..|--- .... ....|--- .... ....|--- .... ....
....|..|C-4 AF.A ....|--- .... ....|--- .... ....
 C-3|..|C-5 2C.F ....|C-5 2C.F ....|F-4 UF6F ....
....|..|--- .... ....|--- .... ....|--- .... ....
....|..|C-4 AF.7 ....|--- .... ....|--- .... ....
....|..|C-5 2F.A ....|C-5 2F.A ....|F-4 UF6A ....
....|..|C-4 AF.F ....|--- .... ....|--- .... ....
....|..|--- .... ....|--- .... ....|--- .... ....
....|..|C-5 2F.7 ....|C-5 2F.7 ....|F-4 UF67 ....
....|..|C-4 AF.A ....|--- .... ....|--- .... ....
 F-4|..|F-5 2C.F ....|F-5 2C.F ....|F-4 UF3F ....
....|..|--- .... ....|--- .... ....|--- .... ....
....|..|C-4 AF.7 ....|--- .... ....|--- .... ....
....|..|F-5 2F.A ....|F-5 2F.A ....|F-4 UF3A ....
 C-3|..|C-4 AF.F ....|C-5 2C.F ....|F-4 UF6F ....
 C-3|..|C-5 2C.F ....|--- .... ....|--- .... ....
....|..|F-5 2F.7 ....|F-5 2F.7 ....|F-4 UF37 ....
....|..|C-4 AF.A ....|C-5 2F.A ....|F-4 UF6A ....
 F-4|..|F-5 2C.F ....|F-5 2C.F ....|F-4 UF3F ....
....|..|--- .... ....|--- .... ....|--- .... ....
....|..|C-4 AF.7 ....|C-5 2F.7 ....|F-4 UF67 ....
 A-3|..|A-4 2C.F ....|F-5 2F.A ....|F-4 UF3F ....
 G-4|..|C-4 AF.F ....|G-5 2C.F ....|A-4 UF1F ....
 G-4|..|G-5 2C.F ....|--- .... ....|--- .... ....
....|..|F-5 2F.7 ....|F-5 2F.7 ....|F-4 UF37 ....
....|..|C-4 AF.A ....|G-5 2F.A ....|A-4 UF1A ....
....|..|G-5 2F.A ....|--- .... ....|--- .... ....
....|..|A-4 2F.7 ....|R-- .... ....|F-4 UF37 ....
....|..|C-4 AF.7 ....|G-5 2F.7 ....|A-4 UF17 ....
....|..|G-5 2F.7 ....|--- .... ....|--- .... ....
 E-4|..|C-4 AF.F ....|E-5 2C.F ....|A-4 UF5F ....
 E-4|..|E-5 2C.F ....|--- .... ....|--- .... ....
....|..|--- .... ....|--- .... ....|--- .... ....
....|..|C-4 AF.A ....|E-5 2F.A ....|A-4 UF5A ....
 C-3|..|C-5 2C.F ....|C-5 2C.F ....|E-4 UFAF ....
....|..|--- .... ....|--- .... ....|--- .... ....
....|..|C-4 AF.7 ....|E-5 2F.7 ....|A-4 UF57 ....
....|..|C-5 2F.A ....|C-5 2F.A ....|E-4 UFAA ....

[Pattern46]
 E-4|..|C-4 AF.F ....|E-5 2C.F ....|A-4 UF5F ....
 E-4|..|E-5 2C.F ....|--- .... ....|--- .... ....
....|..|--- .... ....|--- .... ....|--- .... ....
....|..|C-4 AF.A ....|E-5 2F.A ....|A-4 UF5A ....
 C-3|..|C-5 2C.F ....|C-5 2C.F ....|E-4 UFAF ....
....|..|--- .... ....|--- .... ....|--- .... ....
....|..|C-4 AF.7 ....|E-5 2F.7 ....|A-4 UF57 ....
....|..|C-5 2F.A ....|C-5 2F.A ....|E-4 UFAA ....
....|..|C-4 AF.F ....|--- .... ....|--- .... ....
....|..|--- .... ....|--- .... ....|--- .... ....
....|..|C-5 2F.7 ....|C-5 2F.7 ....|E-4 UFA7 ....
....|..|C-4 AF.A ....|--- .... ....|--- .... ....
 G-4|..|G-5 2C.F ....|G-5 2C.F ....|E-4 UF1F ....
....|..|--- .... ....|--- .... ....|--- .... ....
....|..|C-4 AF.7 ....|--- .... ....|--- .... ....
....|..|G-5 2F.A ....|G-5 2F.A ....|E-4 UF1A ....
 E-4|..|C-4 AF.F ....|E-5 2C.F ....|A-4 UF5F ....
 E-4|..|E-5 2C.F ....|--- .... ....|--- .... ....
....|..|G-5 2F.7 ....|G-5 2F.7 ....|E-4 UF17 ....
....|..|C-4 AF.A ....|E-5 2F.A ....|A-4 UF5A ....
 C-3|..|C-5 2C.F ....|C-5 2C.F ....|A-4 UF1F ....
....|..|--- .... ....|--- .... ....|--- .... ....
....|..|C-4 AF.7 ....|E-5 2F.7 ....|A-4 UF57 ....
....|..|C-5 2F.A ....|C-5 2F.A ....|A-4 UF1A ....
 G-4|..|C-4 AF.F ....|G-5 2C.F ....|C-4 UF6F ....
 G-4|..|G-5 2C.F ....|--- .... ....|--- .... ....
....|..|C-5 2F.7 ....|C-5 2F.7 ....|A-4 UF17 ....
....|..|C-4 AF.A ....|G-5 2F.A ....|C-4 UF6A ....
....|..|G-5 2F.A ....|--- .... ....|--- .... ....
....|..|--- .... ....|--- .... ....|--- .... ....
....|..|C-4 AF.7 ....|G-5 2F.7 ....|C-4 UF67 ....
....|..|G-5 2F.7 ....|--- .... ....|--- .... ....
 E-4|..|C-4 AF.F ....|E-5 2C.F ....|C-4 UF3F ....
 E-4|..|E-5 2C.F ....|--- .... ....|--- .... ....
....|..|--- .... ....|--- .... ....|--- .... ....
....|..|C-4 AF.A ....|E-5 2F.A ....|C-4 UF3A ....
 C-3|..|C-5 2C.F ....|C-5 2C.F ....|E-4 UFAF ....
....|..|--- .... ....|--- .... ....|--- .... ....
....|..|C-4 AF.7 ....|E-5 2F.7 ....|C-4 UF37 ....
....|..|C-5 2F.A ....|C-5 2F.A ....|E-4 UFAA ....
....|..|C-4 AF.F ....|--- .... ....|--- .... ....
....|..|--- .... ....|--- .... ....|--- .... ....
....|..|C-5 2F.7 ....|C-5 2F.7 ....|E-4 UFA7 ....
....|..|C-4 AF.A ....|--- .... ....|--- .... ....
 G-4|..|G-5 2C.F ....|G-5 2C.F ....|E-4 UF1F ....
....|..|--- .... ....|--- .... ....|--- .... ....
....|..|C-4 AF.7 ....|--- .... ....|--- .... ....
....|..|G-5 2F.A ....|G-5 2F.A ....|E-4 UF1A ....
 E-4|..|C-4 AF.F ....|E-5 2C.F ....|A-4 UF5F ....
 E-4|..|E-5 2C.F ....|--- .... ....|--- .... ....
....|..|G-5 2F.7 ....|G-5 2F.7 ....|E-4 UF17 ....
....|..|C-4 AF.A ....|E-5 2F.A ....|A-4 UF5A ....
 C-3|..|C-5 2C.F ....|C-5 2C.F ....|A-4 UF1F ....
....|..|--- .... ....|--- .... ....|--- .... ....
....|..|C-4 AF.7 ....|E-5 2F.7 ....|A-4 UF57 ....
....|..|C-5 2F.A ....|C-5 2F.A ....|A-4 UF1A ....
 D-4|..|C-4 AF.F ....|D-5 2C.F ....|F-4 UFBF ....
 D-4|..|D-5 2C.F ....|--- .... ....|--- .... ....
....|..|C-5 2F.7 ....|C-5 2F.7 ....|A-4 UF17 ....
....|..|C-4 AF.A ....|D-5 2F.A ....|F-4 UFBA ....
 E-4|..|E-5 2C.F ....|E-5 2C.F ....|A#4 UFCF ....
 E-4|..|E-5 2C.F ....|--- .... ....|F-4 UFEF ....
....|..|C-4 AF.7 ....|D-5 2F.7 ....|F-4 UFB7 ....
....|..|E-5 2F.A ....|E-5 2F.A ....|A#4 UFCA ....

[Pattern47]
 F-4|..|C-4 AF.F ....|F-5 2C.F ....|F-4 UF2F ....
 F-4|..|F-5 2C.F ....|--- .... ....|--- .... ....
....|..|E-5 2F.7 ....|E-5 2F.7 ....|A#4 UFC7 ....
....|..|C-4 AF.A ....|F-5 2F.A ....|F-4 UFE7 ....
 F-4|..|F-5 2C.F ....|F-5 2C.F ....|A-4 UF8F ....
....|..|--- .... ....|R-- .... ....|--- .... ....
....|..|C-4 AF.7 ....|F-5 2F.7 ....|F-4 UF27 ....
....|..|F-5 2F.A ....|F-5 2F.A ....|A-4 UF8A ....
 G-4|..|C-4 AF.F ....|G-5 2C.F ....|A-4 UF9F ....
 G-4|..|G-5 2C.F ....|--- .... ....|--- .... ....
....|..|F-5 2F.7 ....|F-5 2F.7 ....|A-4 UF87 ....
....|..|C-4 AF.A ....|G-5 2F.A ....|A-4 UF9A ....
 A-3|..|A-5 2C.F ....|A-5 2C.F ....|A-4 UF2F ....
....|..|--- .... ....|--- .... ....|--- .... ....
 D-4|..|D-5 2C.F ....|G-5 2F.7 ....|A-4 UF2F ....
....|..|A-5 2F.A ....|A-5 2F.A ....|A-4 UF2A ....
 A-3|..|C-4 AF.F ....|A-5 2C.F ....|D-4 UF5F ....
 A-3|..|A-5 2C.F ....|R-- .... ....|A-4 UF2A ....
....|..|D-5 2F.A ....|A-5 2F.7 ....|A-4 UF27 ....
....|..|C-4 AF.A ....|A-5 2F.A ....|D-4 UF5A ....
....|..|A-5 2F.7 ....|R-- .... ....|A-4 UF27 ....
....|..|A-5 2F.A ....|--- .... ....|--- .... ....
....|..|C-4 AF.7 ....|A-5 2F.7 ....|D-4 UF57 ....
....|..|D-5 2F.7 ....|--- .... ....|--- .... ....
 G-4|..|C-4 AF.F ....|G-5 2C.F ....|C-4 UF6F ....
....|..|A-5 2F.7 ....|--- .... ....|--- .... ....
 G-4|..|G-5 2C.F ....|--- .... ....|--- .... ....
....|..|C-4 AF.A ....|G-5 2F.A ....|C-4 UF6A ....
 F-4|..|G-5 2F.A ....|F-5 2C.F ....|--- .... ....
....|..|--- .... ....|--- .... ....|--- .... ....
....|..|C-4 AF.7 ....|G-5 2F.7 ....|C-4 UF67 ....
....|..|G-5 2F.7 ....|F-5 2F.A ....|--- .... ....
 F-4|..|C-4 AF.F ....|F-5 2C.F ....|A-4 UFAF ....
 F-4|..|F-5 2C.F ....|--- .... ....|--- .... ....
....|..|--- .... ....|F-5 2F.7 ....|--- .... ....
....|..|C-4 AF.A ....|F-5 2F.A ....|A-4 UFAA ....
....|..|F-5 2F.A ....|--- .... ....|--- .... ....
....|..|--- .... ....|--- .... ....|--- .... ....
....|..|C-4 AF.7 ....|F-5 2F.7 ....|A-4 UFA7 ....
....|..|F-5 2F.7 ....|--- .... ....|--- .... ....
....|..|C-4 AF.F ....|--- .... ....|--- .... ....
....|..|--- .... ....|--- .... ....|--- .... ....
....|..|--- .... ....|--- .... ....|--- .... ....
....|..|C-4 AF.A ....|--- .... ....|--- .... ....
 C-3|..|C-5 2C.F ....|C-5 2C.F ....|F-4 UF6F ....
....|..|--- .... ....|--- .... ....|--- .... ....
....|..|C-4 AF.7 ....|--- .... ....|--- .... ....
....|..|C-5 2F.A ....|C-5 2F.A ....|F-4 UF6A ....
....|..|C-4 AF.F ....|--- .... ....|--- .... ....
....|..|--- .... ....|--- .... ....|--- .... ....
....|..|C-5 2F.7 ....|C-5 2F.7 ....|F-4 UF67 ....
....|..|C-4 AF.A ....|--- .... ....|--- .... ....
 F-4|..|F-5 2C.F ....|F-5 2C.F ....|F-4 UF3F ....
....|..|--- .... ....|--- .... ....|--- .... ....
....|..|C-4 AF.7 ....|--- .... ....|--- .... ....
....|..|F-5 2F.A ....|F-5 2F.A ....|F-4 UF3A ....
 C-3|..|C-4 AF.F ....|C-5 2C.F ....|F-4 UF6F ....
 C-3|..|C-5 2C.F ....|--- .... ....|--- .... ....
....|..|F-5 2F.7 ....|F-5 2F.7 ....|F-4 UF37 ....
....|..|C-4 AF.A ....|C-5 2F.A ....|F-4 UF6A ....
 F-4|..|F-5 2C.F ....|F-5 2C.F ....|F-4 UF3F ....
....|..|--- .... ....|--- .... ....|--- .... ....
....|..|C-4 AF.7 ....|C-5 2F.7 ....|F-4 UF67 ....
 A-3|..|A-4 2C.F ....|F-5 2F.A ....|F-4 UF3F ....

[Pattern48]
 G-4|..|C-4 AF.F ....|G-5 2C.F ....|A-4 UF1F ....
 G-4|..|G-5 2C.F ....|--- .... ....|--- .... ....
....|..|F-5 2F.7 ....|F-5 2F.7 ....|F-4 UF37 ....
....|..|C-4 AF.A ....|G-5 2F.A ....|A-4 UF1A ....
....|..|G-5 2F.A ....|--- .... ....|--- .... ....
....|..|A-4 2F.7 ....|R-- .... ....|F-4 UF37 ....
....|..|C-4 AF.7 ....|G-5 2F.7 ....|A-4 UF17 ....
....|..|G-5 2F.7 ....|--- .... ....|--- .... ....
 E-4|..|C-4 AF.F ....|E-5 2C.F ....|A-4 UF5F ....
 E-4|..|E-5 2C.F ....|--- .... ....|--- .... ....
....|..|--- .... ....|--- .... ....|--- .... ....
....|..|C-4 AF.A ....|E-5 2F.A ....|A-4 UF5A ....
 C-3|..|C-5 2C.F ....|C-5 2C.F ....|E-4 UFAF ....
....|..|--- .... ....|--- .... ....|--- .... ....
....|..|C-4 AF.7 ....|E-5 2F.7 ....|A-4 UF57 ....
....|..|C-5 2F.A ....|C-5 2F.A ....|E-4 UFAA ....
....|..|C-4 AF.F ....|--- .... ....|--- .... ....
....|..|--- .... ....|--- .... ....|--- .... ....
....|..|C-5 2F.7 ....|C-5 2F.7 ....|E-4 UFA7 ....
....|..|C-4 AF.A ....|--- .... ....|--- .... ....
 G-4|..|G-5 2C.F ....|G-5 2C.F ....|E-4 UF1F ....
....|..|--- .... ....|--- .... ....|--- .... ....
....|..|C-4 AF.7 ....|--- .... ....|--- .... ....
....|..|G-5 2F.A ....|G-5 2F.A ....|E-4 UF1A ....
 E-4|..|C-4 AF.F ....|E-5 2C.F ....|A-4 UF5F ....
 E-4|..|E-5 2C.F ....|--- .... ....|--- .... ....
....|..|G-5 2F.7 ....|G-5 2F.7 ....|E-4 UF17 ....
....|..|C-4 AF.A ....|E-5 2F.A ....|A-4 UF5A ....
 C-3|..|C-5 2C.F ....|C-5 2C.F ....|A-4 UF1F ....
....|..|--- .... ....|--- .... ....|--- .... ....
....|..|C-4 AF.7 ....|E-5 2F.7 ....|A-4 UF57 ....
....|..|C-5 2F.A ....|C-5 2F.A ....|A-4 UF1A ....
 G-4|..|C-4 AF.F ....|G-5 2C.F ....|C-4 UF6F ....
 G-4|..|G-5 2C.F ....|--- .... ....|--- .... ....
....|..|C-5 2F.7 ....|C-5 2F.7 ....|A-4 UF17 ....
....|..|C-4 AF.A ....|G-5 2F.A ....|C-4 UF6A ....
....|..|G-5 2F.A ....|--- .... ....|--- .... ....
....|..|--- .... ....|--- .... ....|--- .... ....
....|..|C-4 AF.7 ....|G-5 2F.7 ....|C-4 UF67 ....
....|..|G-5 2F.7 ....|--- .... ....|--- .... ....
 E-4|..|C-4 AF.F ....|E-5 2C.F ....|C-4 UF3F ....
 E-4|..|E-5 2C.F ....|--- .... ....|--- .... ....
....|..|--- .... ....|--- .... ....|--- .... ....
....|..|C-4 AF.A ....|E-5 2F.A ....|C-4 UF3A ....
 C-3|..|C-5 2C.F ....|C-5 2C.F ....|E-4 UFAF ....
....|..|--- .... ....|--- .... ....|--- .... ....
....|..|C-4 AF.7 ....|E-5 2F.7 ....|C-4 UF37 ....
....|..|C-5 2F.A ....|C-5 2F.A ....|E-4 UFAA ....
....|..|C-4 AF.F ....|--- .... ....|--- .... ....
....|..|--- .... ....|--- .... ....|--- .... ....
....|..|C-5 2F.7 ....|C-5 2F.7 ....|E-4 UFA7 ....
....|..|C-4 AF.A ....|--- .... ....|--- .... ....
 G-4|..|G-5 2C.F ....|G-5 2C.F ....|E-4 UF1F ....
....|..|--- .... ....|--- .... ....|--- .... ....
....|..|C-4 AF.7 ....|--- .... ....|--- .... ....
....|..|G-5 2F.A ....|G-5 2F.A ....|E-4 UF1A ....
 E-4|..|C-4 AF.F ....|E-5 2C.F ....|A-4 UF5F ....
 E-4|..|E-5 2C.F ....|--- .... ....|--- .... ....
....|..|G-5 2F.7 ....|G-5 2F.7 ....|E-4 UF17 ....
....|..|C-4 AF.A ....|E-5 2F.A ....|A-4 UF5A ....
 C-3|..|C-5 2C.F ....|C-5 2C.F ....|A-4 UF1F ....
....|..|--- .... ....|--- .... ....|--- .... ....
....|..|C-4 AF.7 ....|E-5 2F.7 ....|A-4 UF57 ....
....|..|C-5 2F.A ....|C-5 2F.A ....|A-4 UF1A ....

[Pattern49]
 D-4|..|C-4 AF.F ....|D-5 2C.F ....|F-4 UFBF ....
 D-4|..|D-5 2C.F ....|--- .... ....|--- .... ....
....|..|C-5 2F.7 ....|C-5 2F.7 ....|A-4 UF17 ....
....|..|C-4 AF.A ....|D-5 2F.A ....|F-4 UFBA ....
 E-4|..|D-5 2F.A ....|E-5 2C.F ....|--- .... ....
 E-4|..|A#4 2F.F ....|E-5 2C.F ....|F-4 UF2F ....
....|..|C-4 AF.7 ....|D-5 2F.7 ....|F-4 UFB7 ....
....|..|D-5 2F.7 ....|E-5 2F.A ....|--- .... ....
 F-4|..|C-4 AF.F ....|F-5 2C.F ....|F-4 UF2A ....
....|..|A#4 2F.A ....|--- .... ....|--- .... ....
....|..|--- .... ....|E-5 2F.7 ....|--- .... ....
....|..|C-4 AF.A ....|E-5 2F.7 ....|F-4 UF27 ....
 F-4|..|R-- .... ....|F-5 2C.F ....|R-- .... ....
....|..|--- .... ....|R-- .... ....|--- .... ....
....|..|C-4 AF.7 ....|F-5 2F.7 ....|--- .... ....
....|..|R-- .... ....|F-5 2F.A ....|R-- .... ....
 G-4|..|C-4 AF.F ....|G-5 2C.F ....|--- .... ....
....|..|--- .... ....|--- .... ....|--- .... ....
....|..|R-- .... ....|F-5 2F.7 ....|R-- .... ....
....|..|C-4 AF.A ....|G-5 2F.A ....|--- .... ....
 A-3|..|--- .... ....|A-5 2C.F ....|--- .... ....
....|..|--- .... ....|--- .... ....|--- .... ....
....|..|C-4 AF.7 ....|G-5 2F.7 ....|--- .... ....
....|..|--- .... ....|A-5 2F.A ....|--- .... ....
 A-3|..|C-4 AF.F ....|A-5 2C.F ....|--- .... ....
....|..|--- .... ....|R-- .... ....|--- .... ....
....|..|--- .... ....|A-5 2F.7 ....|--- .... ....
....|..|C-4 AF.A ....|A-5 2F.A ....|--- .... ....
....|..|--- .... ....|R-- .... ....|--- .... ....
....|..|--- .... ....|--- .... ....|--- .... ....
....|..|C-4 AF.7 ....|A-5 2F.7 ....|--- .... ....
....|..|--- .... ....|--- .... ....|--- .... ....
 G-4|..|C-4 AF.F ....|G-5 2C.F ....|--- .... ....
....|..|--- .... ....|--- .... ....|--- .... ....
....|..|--- .... ....|--- .... ....|--- .... ....
....|..|C-4 AF.A ....|G-5 2F.A ....|--- .... ....
 F-4|..|--- .... ....|F-5 2C.F ....|--- .... ....
....|..|--- .... ....|--- .... ....|--- .... ....
....|..|C-4 AF.7 ....|G-5 2F.7 ....|--- .... ....
....|..|--- .... ....|F-5 2F.A ....|--- .... ....
....|..|R-- .... ....|R-- .... ....|--- .... ....
....|..|--- .... ....|--- .... ....|--- .... ....
....|..|--- .... ....|F-5 2F.7 ....|--- .... ....
....|..|R-- .... ....|R-- .... ....|--- .... ....
....|..|--- .... ....|--- .... ....|--- .... ....
....|..|--- .... ....|--- .... ....|--- .... ....
