[Module]
VortexTrackerII=0
Version=3.5
Title=2m[3c]-1pw[ud],3m[4e]-4m[6f]-6me+,5m[2f]--6me+-7m+-5mw[2f]+
Author=oisee ^ 4d 29.05.2010
NoteTable=4
ChipFreq=1750000
Speed=4
PlayOrder=L0,1,2,1,4,5,6,5,8,9,10,11,12,13,14,15,16,15,18,19,20,21,22,21,24,25,26,25,28,29,30,31,32,31,34,35,36,37,38,39,40,41,42,43,44,45,46,45,48,49,50


[Ornament1]
L0,0,3,3,7,7

[Ornament2]
L0,0,2,2,4,4,5,5,7,7,9,9

[Ornament3]
L0,0,4,4,7,7

[Ornament4]
L0,0,3,3,7,7,8,8

[Ornament5]
L0,0,3,3,8,8

[Ornament6]
L0,0,2,2,4,4,5,5,7,7,10,10

[Ornament7]
L0,0,4,4,7,7,11,11

[Ornament8]
L0,0,2,2,4,4,6,6,7,7,9,9

[Ornament9]
L0,0,5,5,9,9

[Ornament10]
L0,0,4,4,5,5,7,7,9,9

[Ornament11]
L0,0,4,4,5,5,7,7,8,8,12,12


[Sample1]
TnE +000_ +00_ F_
TnE +000_ +00_ F_
TnE +000_ +00_ F_
TnE +000_ +00_ D_
TnE +000_ +00_ B_
TnE +000_ +00_ B_ L

[Sample2]
TnE +000_ +00_ F_ L

[Sample3]
TnE +001_ +00_ F_
TnE +002_ +00_ F_
TnE +001_ +00_ E_
TnE +002_ +00_ E_
TnE +000_ +00_ E_ L
TnE -001_ +00_ E_
TnE -002_ +00_ E_
TnE -001_ +00_ E_
TnE +000_ +00_ E_
TnE +001_ +00_ E_
TnE +002_ +00_ E_
TnE +001_ +00_ E_

[Sample4]
TnE +002_ +00_ D_
TnE +002_ +00_ D_
TnE +002_ +00_ C_
TnE +002_ +00_ B_
TnE +002_ +00_ A_ L
TnE +002_ +00_ A_
TnE +002_ +00_ A_
TnE +002_ +00_ A_
TnE +002_ +00_ A_
TnE +002_ +00_ A_
TnE +002_ +00_ A_
TnE +002_ +00_ A_

[Sample5]
TnE +000_ +00_ F_
TnE +000_ +00_ F_
tne +000_ +00_ 0_ L

[Sample6]
TnE -001_ +00_ F_ L

[Sample7]
TnE +006_ +00_ F_ L

[Sample8]
tNe +000_ +00_ F_
tNe +000_ +00_ B_
tNe +000_ +00_ 7_
tNe +000_ +00_ 6- L

[Sample9]
TnE +080_ +00_ F_
TnE +100_ +00_ E_
TnE +180_ +00_ E_
TnE +200_ +00_ E_
TnE +240_ +00_ D_
TnE +280_ +00_ D_
TnE +2C0_ +00_ D_
TnE +300_ +00_ C_
TnE +300_ +00_ C_
TnE +340_ +00_ C_
TnE +340_ +00_ C_
TnE +380_ +00_ B_
TnE +380_ +00_ B_
TnE +400_ +00_ B_
TnE +400_ +00_ B_
TnE +480_ +00_ A_
TnE +500_ +00_ 9_
TnE +580_ +00_ 7_
TnE +600_ +00_ 4_
TnE +680_ +00_ 1_
TnE +000_ +00_ 0_ L

[Sample10]
Tne +1C0_ +00_ F_
Tne +280_ +00_ E_
Tne +380_ +00_ C_
Tne +440_ +00_ A_
Tne +480_ +00_ 8_
TnE +000_ +00_ 0_ L

[Sample11]
TNe +200_ -0A_ F_
tNe +000_ +0F_ A_
TNe +200_ -07_ E_
tNe +000_ +0E_ B- L

[Sample12]
TNE +0A0_ +05_ F_
TNE +140_ +02_ D_
TNE +140_ +02_ B_
TNE +100_ +00_ A_ L
TNE +140_ +00_ A_
TNE +200_ +00_ A-

[Sample13]
Tne +200_ +00_ F_
Tne +2C0_ +00_ F_
Tne +380_ +00_ E_
Tne +500_ +00_ C_
Tne +520_ +00_ 9_
tne +000_ +00_ 0_ L

[Sample14]
TNE -100_ +00_ F_
TNE -100_ +00_ D_
TNE -100_ +00_ A_
TNE -100_ +00_ 5_
tne +000_ +00_ 0_ L

[Sample15]
TNE -100_ +00_ 5_
TNE -100_ +00_ 8_
TNE -100_ +00_ B_
TNE -100_ +00_ F_
TNe -100_ +00_ 9- L

[Sample16]
TnE +000_ +00_ C_
TnE +000_ +00_ E_
TnE +000_ +00_ F_
TnE +000_ +00_ F_
TnE +000_ +00_ E_
TnE +000_ +00_ D_
TnE +000_ +00_ C_
TnE +000_ +00_ C_ L
TnE +001_ +00_ C_
TnE +002_ +00_ C_
TnE +003_ +00_ C_
TnE +001_ +00_ C_
TnE +000_ +00_ C_
TnE -001_ +00_ C_
TnE -002_ +00_ C_
TnE -003_ +00_ C_
TnE -001_ +00_ C_
TnE +000_ +00_ C_
TnE +000_ +00_ C_

[Sample17]
Tne +1C0_ +00_ F_
Tne +280_ +00_ D_
Tne +380_ +00_ 7_
TNE +000_ +00_ 0_ L

[Sample18]
TnE -00C_ +00_ 0_ L

[Sample19]
TNe +000_ +00_ F_
TNe +000_ +00_ C_
TNe +000_ +00_ 6_
TNe +000_ +01_ A- L

[Sample20]
TNE +140_ +00_ F_
tNE +000_ +00_ B- L

[Sample21]
tNE +000_ +00_ D_
tNE +000_ +00_ 8_
tNE +000_ +00_ 1_
TNE +000_ +00_ 0_ L

[Sample22]
TnE +000_ +00_ D_ L
TnE +000_ +00_ D_
tne +000_ +00_ 9_
tne +000_ +00_ 9_
TnE +000_ +00_ D_
TnE +000_ +00_ D_
tne +000_ +00_ 9_
tne +000_ +00_ 9_
TnE +000_ +00_ D_
TnE +000_ +00_ D_
TnE +000_ +00_ D_
TnE +000_ +00_ D_
TnE +000_ +00_ D_
TnE +000_ +00_ D_
tne +000_ +00_ 9_
tne +000_ +00_ 9_

[Sample23]
TnE +000_ +00_ F_ L
TnE +010_ +01_ F_
TnE +010_ +01_ F_
TnE +010_ +01_ F_
TnE +010_ +01_ F_
TnE +000_ +00_ F_
TnE +000_ +00_ F_
TnE -010_ -01_ F_
TnE -010_ -01_ F_
TnE -010_ -01_ F_
TnE -010_ -01_ F_
TnE +000_ +00_ F_

[Sample24]
TNe +000_ -01_ C_
TNe +000_ -01_ D_
TNe +000_ -01_ E_
TNe +000_ -01_ F_
TNe +000_ -01_ F_
TNe +000_ -01_ F_
TNe +000_ -01_ F_
TNe +000_ -01_ F_
TNe +000_ -01_ E_
TNe +000_ -01_ E_
TNe +000_ -01_ E_
TNe +000_ -01_ F_
TNe +000_ -01_ F_ L

[Sample25]
TNE +000_ +00_ F_
TNE +000_ +00_ F_ L
TNE +000_ +00_ F_
TNE +000_ +00_ F_
TNE +000_ +00_ F-

[Sample26]
tne +000_ +00_ 0_ L

[Sample27]
TnE +100_ +05_ F_
TnE +200_ +02_ A_
TnE +300_ +02_ 7_
TNE +400_ +00_ 3- L

[Sample28]
tne +000_ +00_ 0_ L

[Sample29]
tnE +000_ +00_ 0_ L

[Sample30]
TNE +000_ +00_ C+ L

[Sample31]
TNe +1C0_ +00_ F_
Tne +280_ +00_ E_
Tne +380_ +00_ C_
Tne +440_ +00_ A_
Tne +480_ +00_ 8_
TnE +000_ +00_ 0_ L

[Pattern0]
....|..|--- .... ....|--- .... ....|--- .... ....
....|..|--- .... ....|--- .... ....|--- .... ....
....|..|--- .... ....|--- .... ....|--- .... ....
....|..|--- .... ....|--- .... ....|--- .... ....
 A-3|..|--- .... ....|A-2 2C.F ....|A-2 2C.F ....
....|..|--- .... ....|--- .... ....|--- .... ....
....|..|--- .... ....|R-- .... ....|R-- .... ....
....|..|--- .... ....|A-2 2F.A ....|A-2 2F.A ....
....|..|--- .... ....|--- .... ....|--- .... ....
....|..|--- .... ....|R-- .... ....|R-- .... ....
....|..|--- .... ....|A-2 2F.7 ....|A-2 2F.7 ....
....|..|--- .... ....|--- .... ....|--- .... ....
 A-3|..|--- .... ....|A-2 2C.F ....|A-2 2C.F ....
....|..|--- .... ....|--- .... ....|--- .... ....
....|..|--- .... ....|R-- .... ....|R-- .... ....
....|..|--- .... ....|A-2 2F.A ....|A-2 2F.A ....
....|..|--- .... ....|--- .... ....|--- .... ....
....|..|--- .... ....|R-- .... ....|R-- .... ....
....|..|--- .... ....|A-2 2F.7 ....|A-2 2F.7 ....
....|..|--- .... ....|--- .... ....|--- .... ....
 A-3|..|--- .... ....|A-2 2C.F ....|A-2 2C.F ....
....|..|--- .... ....|--- .... ....|--- .... ....
....|..|--- .... ....|R-- .... ....|R-- .... ....
....|..|--- .... ....|A-2 2F.A ....|A-2 2F.A ....
....|..|--- .... ....|--- .... ....|--- .... ....
....|..|--- .... ....|R-- .... ....|R-- .... ....
....|..|--- .... ....|A-2 2F.7 ....|A-2 2F.7 ....
....|..|--- .... ....|--- .... ....|--- .... ....
 A-3|..|--- .... ....|C-4 6FFF ....|A-2 2C.F ....
....|..|--- .... ....|--- .... ....|--- .... ....
....|..|--- .... ....|D-4 6FFF ....|R-- .... ....
....|..|--- .... ....|C-4 6FFA ....|A-2 2F.A ....
....|..|A-3 3FCF ....|E-4 6FFF ....|--- .... ....
....|..|A-3 UF1F ....|D-4 6FFA ....|R-- .... ....
....|..|B-3 3FCF ....|E-4 6FFF ....|A-2 2F.7 ....
....|..|A-3 3FCA ....|E-4 6FFA ....|--- .... ....
 A-3|..|C-4 3FCF ....|E-4 6FFF ....|A-2 2C.F ....
....|..|B-3 3FCA ....|E-4 6FFA ....|--- .... ....
....|..|E-4 3FCF ....|D-4 6FFF ....|R-- .... ....
....|..|C-4 3FCA ....|E-4 6FFA ....|A-2 2F.A ....
....|..|A-3 3FCF ....|E-4 6FF7 ....|--- .... ....
....|..|E-4 3FCA ....|D-4 6FFA ....|R-- .... ....
....|..|B-3 3FCF ....|D-4 6FFF ....|A-2 2F.7 ....
....|..|A-3 3FCA ....|--- .... ....|--- .... ....
 A-3|..|C-4 3FCF ....|G-4 6FFF ....|A-2 2C.F ....
....|..|B-3 3FCA ....|D-4 6FFA ....|--- .... ....
....|..|E-4 3FCF ....|R-- .... ....|R-- .... ....
....|..|C-4 3FCA ....|G-4 6FFA ....|A-2 2F.A ....
....|..|A-3 3FCF ....|G-4 6FFF ....|--- .... ....
....|..|E-4 3FCA ....|R-- .... ....|R-- .... ....
....|..|B-3 3FCF ....|E-4 6FFF ....|A-2 2F.7 ....
....|..|A-3 3FCA ....|G-4 6FFA ....|--- .... ....
 A-3|..|C-4 3FCF ....|E-4 6FFF ....|A-2 2C.F ....
....|..|B-3 3FCA ....|E-4 6FFA ....|--- .... ....
....|..|E-4 3FCF ....|D-4 6FFF ....|R-- .... ....
....|..|C-4 3FCA ....|E-4 6FFA ....|A-2 2F.A ....
....|..|A-3 3FCF ....|E-4 6FF7 ....|--- .... ....
....|..|E-4 3FCA ....|D-4 6FFA ....|R-- .... ....
....|..|B-3 3FCF ....|D-4 6FFF ....|A-2 2F.7 ....
....|..|A-3 3FCA ....|--- .... ....|--- .... ....
 A-3|..|C-4 3FCF ....|C-4 6FFF ....|A-2 2C.F ....
....|..|B-3 3FCA ....|D-4 6FFA ....|--- .... ....
....|..|E-4 3FCF ....|R-- .... ....|R-- .... ....
....|..|C-4 3FCA ....|C-4 6FFA ....|A-2 2F.A ....

[Pattern1]
....|..|G-3 3FCF ....|D-4 6FFF ....|--- .... ....
....|..|E-4 3FCA ....|R-- .... ....|R-- .... ....
....|..|A-3 3FCF ....|D-4 6FFF ....|A-2 2F.7 ....
....|..|G-3 3FCA ....|D-4 6FFA ....|--- .... ....
 G-4|..|B-3 3FCF ....|D-4 6FFF ....|G-2 2A.F ....
....|..|A-3 3FCA ....|D-4 6FFA ....|--- .... ....
....|..|D-4 3FCF ....|B-3 6FFF ....|R-- .... ....
....|..|B-3 3FCA ....|D-4 6FFA ....|G-2 2F.A ....
....|..|G-3 3FCF ....|D-4 6FF7 ....|--- .... ....
....|..|D-4 3FCA ....|B-3 6FFA ....|R-- .... ....
....|..|A-3 3FCF ....|B-3 6FFF ....|G-2 2F.7 ....
....|..|G-3 3FCA ....|--- .... ....|--- .... ....
 G-4|..|B-3 3FCF ....|G-3 6FFF ....|G-2 2A.F ....
....|..|A-3 3FCA ....|B-3 6FFA ....|--- .... ....
....|..|D-4 3FCF ....|R-- .... ....|R-- .... ....
....|..|B-3 3FCA ....|G-3 6FFA ....|G-2 2F.A ....
....|..|G-3 3FCF ....|G-3 6FFF ....|--- .... ....
....|..|D-4 3FCA ....|R-- .... ....|R-- .... ....
....|..|A-3 3FCF ....|G-3 6FFF ....|G-2 2F.7 ....
....|..|G-3 3FCA ....|G-3 6FFA ....|--- .... ....
 G-4|..|B-3 3FCF ....|G-2 2A.F ....|G-2 2A.F ....
....|..|A-3 3FCA ....|G-3 6FFA ....|--- .... ....
....|..|D-4 3FCF ....|R-- .... ....|R-- .... ....
....|..|B-3 3FCA ....|G-2 2F.A ....|G-2 2F.A ....
....|..|G-3 3FCF ....|G-3 6FF7 ....|--- .... ....
....|..|D-4 3FCA ....|R-- .... ....|R-- .... ....
....|..|A-3 3FCF ....|G-2 2F.7 ....|G-2 2F.7 ....
....|..|G-3 3FCA ....|--- .... ....|--- .... ....
 G-4|..|B-3 3FCF ....|G-2 2A.F ....|G-2 2A.F ....
....|..|A-3 3FCA ....|--- .... ....|--- .... ....
....|..|D-4 3FCF ....|R-- .... ....|R-- .... ....
....|..|B-3 3FCA ....|G-2 2F.A ....|G-2 2F.A ....
....|..|G-3 3FCF ....|C-4 6FFF ....|--- .... ....
....|..|D-4 3FCA ....|R-- .... ....|R-- .... ....
....|..|A-3 3FCF ....|G-2 2F.7 ....|G-2 2F.7 ....
....|..|G-3 3FCA ....|C-4 6FFA ....|--- .... ....
 G-4|..|B-3 3FCF ....|C-4 6FFF ....|G-2 2A.F ....
....|..|A-3 3FCA ....|--- .... ....|--- .... ....
....|..|D-4 3FCF ....|B-3 6FFF ....|R-- .... ....
....|..|B-3 3FCA ....|C-4 6FFA ....|G-2 2F.A ....
....|..|G-3 3FCF ....|--- .... ....|--- .... ....
....|..|D-4 3FCA ....|B-3 6FFA ....|R-- .... ....
....|..|A-3 3FCF ....|B-3 6FFF ....|G-2 2F.7 ....
....|..|G-3 3FCA ....|--- .... ....|--- .... ....
 G-4|..|B-3 3FCF ....|D-4 6FFF ....|G-2 2A.F ....
....|..|A-3 3FCA ....|B-3 6FFA ....|--- .... ....
....|..|D-4 3FCF ....|R-- .... ....|R-- .... ....
....|..|B-3 3FCA ....|D-4 6FFA ....|G-2 2F.A ....
....|..|G-3 3FCF ....|D-4 6FFF ....|--- .... ....
....|..|D-4 3FCA ....|R-- .... ....|R-- .... ....
....|..|A-3 3FCF ....|C-4 6FFF ....|G-2 2F.7 ....
....|..|G-3 3FCA ....|D-4 6FFA ....|--- .... ....
 G-4|..|B-3 3FCF ....|C-4 6FFF ....|G-2 2A.F ....
....|..|A-3 3FCA ....|C-4 6FFA ....|--- .... ....
....|..|D-4 3FCF ....|B-3 6FFF ....|R-- .... ....
....|..|B-3 3FCA ....|C-4 6FFA ....|G-2 2F.A ....
....|..|G-3 3FCF ....|C-4 6FF7 ....|--- .... ....
....|..|D-4 3FCA ....|B-3 6FFA ....|R-- .... ....
....|..|A-3 3FCF ....|B-3 6FFF ....|G-2 2F.7 ....
....|..|G-3 3FCA ....|--- .... ....|--- .... ....
 G-4|..|B-3 3FCF ....|E-3 6FFF ....|G-2 2A.F ....
....|..|A-3 3FCA ....|B-3 6FFA ....|--- .... ....
....|..|D-4 3FCF ....|R-- .... ....|R-- .... ....
....|..|B-3 3FCA ....|E-3 6FFA ....|G-2 2F.A ....

[Pattern2]
....|..|A-3 3FCF ....|A-3 6FFF ....|--- .... ....
....|..|D-4 3FCA ....|R-- .... ....|R-- .... ....
....|..|B-3 3FCF ....|A-3 6FFF ....|G-2 2F.7 ....
....|..|A-3 3FCA ....|A-3 6FFA ....|--- .... ....
 A-3|..|C-4 3FCF ....|B-3 6FFF ....|A-2 2C.F ....
....|..|B-3 3FCA ....|A-3 6FFA ....|--- .... ....
....|..|E-4 3FCF ....|A-3 6FFF ....|R-- .... ....
....|..|C-4 3FCA ....|B-3 6FFA ....|A-2 2F.A ....
....|..|A-3 3FCF ....|B-3 6FFF ....|--- .... ....
....|..|E-4 3FCA ....|A-3 6FFA ....|R-- .... ....
....|..|B-3 3FCF ....|A-3 6FFF ....|A-2 2F.7 ....
....|..|A-3 3FCA ....|B-3 6FFA ....|--- .... ....
 A-3|..|C-4 3FCF ....|A-3 6FFF ....|A-2 2C.F ....
....|..|B-3 3FCA ....|A-3 6FFA ....|--- .... ....
....|..|E-4 3FCF ....|R-- .... ....|R-- .... ....
....|..|C-4 3FCA ....|A-3 6FFA ....|A-2 2F.A ....
....|..|A-3 3FCF ....|A-3 6FF7 ....|--- .... ....
....|..|E-4 3FCA ....|R-- .... ....|R-- .... ....
....|..|B-3 3FCF ....|A-3 6FF7 ....|A-2 2F.7 ....
....|..|A-3 3FCA ....|--- .... ....|--- .... ....
 A-3|..|C-4 3FCF ....|A-2 2C.F ....|A-2 2C.F ....
....|..|B-3 3FCA ....|--- .... ....|--- .... ....
....|..|E-4 3FCF ....|R-- .... ....|R-- .... ....
....|..|C-4 3FCA ....|A-2 2F.A ....|A-2 2F.A ....
....|..|A-3 3FCF ....|--- .... ....|--- .... ....
....|..|E-4 3FCA ....|R-- .... ....|R-- .... ....
....|..|B-3 3FCF ....|A-2 2F.7 ....|A-2 2F.7 ....
....|..|A-3 3FCA ....|--- .... ....|--- .... ....
 A-3|..|C-4 3FCF ....|A-2 2C.F ....|A-2 2C.F ....
....|..|B-3 3FCA ....|--- .... ....|--- .... ....
....|..|E-4 3FCF ....|R-- .... ....|R-- .... ....
....|..|C-4 3FCA ....|A-2 2F.A ....|A-2 2F.A ....
....|..|E-4 3FCF ....|E-4 6FFF ....|--- .... ....
....|..|E-4 3FCA ....|R-- .... ....|R-- .... ....
....|..|E-4 3FCF ....|A-2 2F.7 ....|A-2 2F.7 ....
....|..|E-4 3FCA ....|E-4 6FFA ....|--- .... ....
 A-3|..|E-4 3FCF ....|E-4 6FFF ....|A-2 2C.F ....
....|..|E-4 3FCA ....|--- .... ....|--- .... ....
....|..|E-4 3FCF ....|D-4 6FFF ....|R-- .... ....
....|..|E-4 3FCA ....|E-4 6FFA ....|A-2 2F.A ....
....|..|A-3 3FCF ....|--- .... ....|--- .... ....
....|..|E-4 3FCA ....|D-4 6FFA ....|R-- .... ....
....|..|B-3 3FCF ....|D-4 6FFF ....|A-2 2F.7 ....
....|..|A-3 3FCA ....|--- .... ....|--- .... ....
 A-3|..|C-4 3FCF ....|G-4 6FFF ....|A-2 2C.F ....
....|..|B-3 3FCA ....|D-4 6FFA ....|--- .... ....
....|..|E-4 3FCF ....|R-- .... ....|R-- .... ....
....|..|C-4 3FCA ....|G-4 6FFA ....|A-2 2F.A ....
....|..|A-3 3FCF ....|G-4 6FFF ....|--- .... ....
....|..|E-4 3FCA ....|R-- .... ....|R-- .... ....
....|..|B-3 3FCF ....|E-4 6FFF ....|A-2 2F.7 ....
....|..|A-3 3FCA ....|G-4 6FFA ....|--- .... ....
 A-3|..|C-4 3FCF ....|E-4 6FFF ....|A-2 2C.F ....
....|..|B-3 3FCA ....|E-4 6FFA ....|--- .... ....
....|..|E-4 3FCF ....|D-4 6FFF ....|R-- .... ....
....|..|C-4 3FCA ....|E-4 6FFA ....|A-2 2F.A ....
....|..|A-3 3FCF ....|E-4 6FF7 ....|--- .... ....
....|..|E-4 3FCA ....|D-4 6FFA ....|R-- .... ....
....|..|B-3 3FCF ....|D-4 6FFF ....|A-2 2F.7 ....
....|..|A-3 3FCA ....|--- .... ....|--- .... ....
 A-3|..|C-4 3FCF ....|C-4 6FFF ....|A-2 2C.F ....
....|..|B-3 3FCA ....|D-4 6FFA ....|--- .... ....
....|..|E-4 3FCF ....|R-- .... ....|R-- .... ....
....|..|C-4 3FCA ....|C-4 6FFA ....|A-2 2F.A ....

[Pattern4]
....|..|A-3 3FCF ....|A-3 6FFF ....|--- .... ....
....|..|D-4 3FCA ....|R-- .... ....|R-- .... ....
....|..|B-3 3FCF ....|A-3 6FFF ....|G-2 2F.7 ....
....|..|A-3 3FCA ....|A-3 6FFA ....|--- .... ....
 A-3|..|C-4 3FCF ....|B-3 6FFF ....|A-2 2C.F ....
....|..|B-3 3FCA ....|A-3 6FFA ....|--- .... ....
....|..|E-4 3FCF ....|A-3 6FFF ....|R-- .... ....
....|..|C-4 3FCA ....|B-3 6FFA ....|A-2 2F.A ....
....|..|A-3 3FCF ....|B-3 6FFF ....|--- .... ....
....|..|E-4 3FCA ....|A-3 6FFA ....|R-- .... ....
....|..|B-3 3FCF ....|A-3 6FFF ....|A-2 2F.7 ....
....|..|A-3 3FCA ....|B-3 6FFA ....|--- .... ....
 A-3|..|C-4 3FCF ....|A-3 6FFF ....|A-2 2C.F ....
....|..|B-3 3FCA ....|A-3 6FFA ....|--- .... ....
....|..|E-4 3FCF ....|R-- .... ....|R-- .... ....
....|..|C-4 3FCA ....|A-3 6FFA ....|A-2 2F.A ....
....|..|A-3 3FCF ....|A-3 6FF7 ....|--- .... ....
....|..|E-4 3FCA ....|R-- .... ....|R-- .... ....
....|..|B-3 3FCF ....|A-3 6FF7 ....|A-2 2F.7 ....
....|..|A-3 3FCA ....|--- .... ....|--- .... ....
 A-3|..|C-4 3FCF ....|A-2 2C.F ....|A-2 2C.F ....
....|..|B-3 3FCA ....|--- .... ....|--- .... ....
....|..|E-4 3FCF ....|R-- .... ....|R-- .... ....
....|..|C-4 3FCA ....|A-2 2F.A ....|A-2 2F.A ....
....|..|A-3 3FCF ....|A-4 6FFF ....|--- .... ....
....|..|E-4 3FCA ....|R-- .... ....|R-- .... ....
....|..|B-3 3FCF ....|A-2 2F.7 ....|A-2 2F.7 ....
....|..|A-3 3FCA ....|A-4 6FFA ....|--- .... ....
 A-3|..|C-4 3FCF ....|A-4 6FFF ....|A-2 2C.F ....
....|..|B-3 3FCA ....|--- .... ....|--- .... ....
....|..|E-4 3FCF ....|A-4 6FFF ....|R-- .... ....
....|..|C-4 3FCA ....|A-4 6FFA ....|A-2 2F.A ....
....|..|E-4 3FCF ....|A-4 6FFF ....|--- .... ....
....|..|E-4 3FCA ....|A-4 6FFA ....|R-- .... ....
....|..|E-4 3FCF ....|A-4 6FF7 ....|A-2 2F.7 ....
....|..|E-4 3FCA ....|A-4 6FFA ....|--- .... ....
 F-4|..|E-4 3FCF ....|A-4 6FFF ....|F-2 2A.F ....
....|..|E-4 3FCA ....|--- .... ....|--- .... ....
....|..|C-4 3FCF ....|F-4 6FFF ....|R-- .... ....
....|..|E-4 3FCA ....|A-4 6FFA ....|F-2 2F.A ....
....|..|F-3 3FCF ....|--- .... ....|--- .... ....
....|..|C-4 3FCA ....|F-4 6FFA ....|R-- .... ....
....|..|G-3 3FCF ....|G-4 6FFF ....|F-2 2F.7 ....
....|..|F-3 3FCA ....|--- .... ....|--- .... ....
 F-4|..|A-3 3FCF ....|F-2 2A.F ....|F-2 2A.F ....
....|..|G-3 3FCA ....|G-4 6FFA ....|--- .... ....
....|..|C-4 3FCF ....|A-4 6FFF ....|R-- .... ....
....|..|A-3 3FCA ....|F-2 2F.A ....|F-2 2F.A ....
....|..|G-3 3FCF ....|G-4 6FFF ....|--- .... ....
....|..|C-4 3FCA ....|A-4 6FFA ....|R-- .... ....
....|..|A-3 3FCF ....|A-4 6FFF ....|F-2 2F.7 ....
....|..|G-3 3FCA ....|G-4 6FFA ....|--- .... ....
 G-4|..|B-3 3FCF ....|G-4 6FFF ....|G-2 2A.F ....
....|..|A-3 3FCA ....|A-4 6FFA ....|--- .... ....
....|..|D-4 3FCF ....|G-4 6FFF ....|R-- .... ....
....|..|B-3 3FCA ....|G-4 6FFA ....|G-2 2F.A ....
....|..|G-3 3FCF ....|F-4 6FFF ....|--- .... ....
....|..|D-4 3FCA ....|G-4 6FFA ....|R-- .... ....
....|..|A-3 3FCF ....|G-4 6FFF ....|G-2 2F.7 ....
....|..|G-3 3FCA ....|F-4 6FFA ....|--- .... ....
 G-4|..|B-3 3FCF ....|F-4 6FFF ....|G-2 2A.F ....
....|..|A-3 3FCA ....|G-4 6FFA ....|--- .... ....
....|..|D-4 3FCF ....|E-4 6FFF ....|R-- .... ....
....|..|B-3 3FCA ....|F-4 6FFA ....|G-2 2F.A ....

[Pattern5]
....|..|A-3 3FCF ....|E-4 6FFF ....|--- .... ....
....|..|D-4 3FCA ....|E-4 6FFA ....|R-- .... ....
....|..|B-3 3FCF ....|D-4 6FFF ....|G-2 2F.7 ....
....|..|A-3 3FCA ....|E-4 6FFA ....|--- .... ....
 A-3|..|C-4 3FCF ....|E-4 6FFF ....|A-2 2C.F ....
....|..|B-3 3FCA ....|D-4 6FFA ....|--- .... ....
....|..|E-4 3FCF ....|C-4 6FFF ....|R-- .... ....
....|..|C-4 3FCA ....|E-4 6FFA ....|A-2 2F.A ....
....|..|A-3 3FCF ....|E-4 6FFF ....|--- .... ....
....|..|E-4 3FCA ....|C-4 6FFA ....|R-- .... ....
....|..|B-3 3FCF ....|C-4 6FFF ....|A-2 2F.7 ....
....|..|A-3 3FCA ....|E-4 6FFA ....|--- .... ....
 A-3|..|C-4 3FCF ....|C-4 6FFF ....|A-2 2C.F ....
....|..|B-3 3FCA ....|C-4 6FFA ....|--- .... ....
....|..|E-4 3FCF ....|R-- .... ....|R-- .... ....
....|..|C-4 3FCA ....|C-4 6FFA ....|A-2 2F.A ....
....|..|A-3 3FCF ....|C-4 6FF7 ....|--- .... ....
....|..|E-4 3FCA ....|R-- .... ....|R-- .... ....
....|..|B-3 3FCF ....|C-4 6FF7 ....|A-2 2F.7 ....
....|..|A-3 3FCA ....|--- .... ....|--- .... ....
 A-3|..|C-4 3FCF ....|A-2 2C.F ....|A-2 2C.F ....
....|..|B-3 3FCA ....|--- .... ....|--- .... ....
....|..|E-4 3FCF ....|R-- .... ....|R-- .... ....
....|..|C-4 3FCA ....|A-2 2F.A ....|A-2 2F.A ....
....|..|D-4 3FCF ....|--- .... ....|--- .... ....
....|..|E-4 3FCA ....|R-- .... ....|R-- .... ....
....|..|C-4 3FCF ....|A-2 2F.7 ....|A-2 2F.7 ....
....|..|D-4 3FCA ....|--- .... ....|--- .... ....
 A-3|..|B-3 3FCF ....|D-4 6FFF ....|A-2 2C.F ....
....|..|C-4 3FCA ....|--- .... ....|--- .... ....
....|..|C-4 3FCF ....|E-4 6FFF ....|R-- .... ....
....|..|B-3 3FCA ....|D-4 6FFA ....|A-2 2F.A ....
....|..|F-3 3FCF ....|F-4 6FFF ....|--- .... ....
....|..|C-4 3FCA ....|E-4 6FFA ....|R-- .... ....
....|..|G-3 3FCF ....|F-4 6FFF ....|A-2 2F.7 ....
....|..|F-3 3FCA ....|F-4 6FFA ....|--- .... ....
 F-4|..|A-3 3FCF ....|F-4 6FFF ....|F-2 2A.F ....
....|..|G-3 3FCA ....|F-4 6FFA ....|--- .... ....
....|..|C-4 3FCF ....|F-4 6FFF ....|R-- .... ....
....|..|A-3 3FCA ....|F-4 6FFA ....|F-2 2F.A ....
....|..|F-3 3FCF ....|F-4 6FF7 ....|--- .... ....
....|..|C-4 3FCA ....|F-4 6FFA ....|R-- .... ....
....|..|G-3 3FCF ....|G-4 6FFF ....|F-2 2F.7 ....
....|..|F-3 3FCA ....|--- .... ....|--- .... ....
 F-4|..|A-3 3FCF ....|F-2 2A.F ....|F-2 2A.F ....
....|..|G-3 3FCA ....|G-4 6FFA ....|--- .... ....
....|..|C-4 3FCF ....|A-4 6FFF ....|R-- .... ....
....|..|A-3 3FCA ....|F-2 2F.A ....|F-2 2F.A ....
....|..|G-3 3FCF ....|G-4 6FFF ....|--- .... ....
....|..|C-4 3FCA ....|A-4 6FFA ....|R-- .... ....
....|..|A-3 3FCF ....|A-4 6FFF ....|F-2 2F.7 ....
....|..|G-3 3FCA ....|G-4 6FFA ....|--- .... ....
 G-4|..|B-3 3FCF ....|G-4 6FFF ....|G-2 2A.F ....
....|..|A-3 3FCA ....|A-4 6FFA ....|--- .... ....
....|..|D-4 3FCF ....|G-4 6FFF ....|R-- .... ....
....|..|B-3 3FCA ....|G-4 6FFA ....|G-2 2F.A ....
....|..|G-3 3FCF ....|E-4 6FFF ....|--- .... ....
....|..|D-4 3FCA ....|G-4 6FFA ....|R-- .... ....
....|..|A-3 3FCF ....|G-4 6FFF ....|G-2 2F.7 ....
....|..|G-3 3FCA ....|E-4 6FFA ....|--- .... ....
 G-4|..|B-3 3FCF ....|C-5 6FFF ....|G-2 2A.F ....
....|..|A-3 3FCA ....|G-4 6FFA ....|--- .... ....
....|..|D-4 3FCF ....|C-5 6FFF ....|R-- .... ....
....|..|B-3 3FCA ....|C-5 6FFA ....|G-2 2F.A ....

[Pattern6]
....|..|A-3 3FCF ....|C-5 6FFF ....|--- .... ....
....|..|D-4 3FCA ....|C-5 6FFA ....|R-- .... ....
....|..|B-3 3FCF ....|B-4 6FFF ....|G-2 2F.7 ....
....|..|A-3 3FCA ....|C-5 6FFA ....|--- .... ....
 A-3|..|C-4 3FCF ....|B-4 6FFF ....|A-2 2C.F ....
....|..|B-3 3FCA ....|B-4 6FFA ....|--- .... ....
....|..|E-4 3FCF ....|B-4 6FFF ....|R-- .... ....
....|..|C-4 3FCA ....|B-4 6FFA ....|A-2 2F.A ....
....|..|A-3 3FCF ....|A-4 6FFF ....|--- .... ....
....|..|E-4 3FCA ....|B-4 6FFA ....|R-- .... ....
....|..|B-3 3FCF ....|A-4 6FFF ....|A-2 2F.7 ....
....|..|A-3 3FCA ....|A-4 6FFA ....|--- .... ....
 A-3|..|C-4 3FCF ....|A-4 6FFF ....|A-2 2C.F ....
....|..|B-3 3FCA ....|A-4 6FFA ....|--- .... ....
....|..|E-4 3FCF ....|R-- .... ....|R-- .... ....
....|..|C-4 3FCA ....|A-4 6FFA ....|A-2 2F.A ....
....|..|A-3 3FCF ....|A-4 6FF7 ....|--- .... ....
....|..|E-4 3FCA ....|R-- .... ....|R-- .... ....
....|..|B-3 3FCF ....|A-4 6FF7 ....|A-2 2F.7 ....
....|..|A-3 3FCA ....|--- .... ....|--- .... ....
 A-3|..|C-4 3FCF ....|A-2 2C.F ....|A-2 2C.F ....
....|..|B-3 3FCA ....|--- .... ....|--- .... ....
....|..|E-4 3FCF ....|R-- .... ....|R-- .... ....
....|..|C-4 3FCA ....|A-2 2F.A ....|A-2 2F.A ....
....|..|D-4 3FCF ....|--- .... ....|--- .... ....
....|..|E-4 3FCA ....|R-- .... ....|R-- .... ....
....|..|C-4 3FCF ....|A-2 2F.7 ....|A-2 2F.7 ....
....|..|D-4 3FCA ....|--- .... ....|--- .... ....
 A-3|..|B-3 3FCF ....|G-4 6FFF ....|A-2 2C.F ....
....|..|C-4 3FCA ....|--- .... ....|--- .... ....
....|..|C-4 3FCF ....|R-- .... ....|R-- .... ....
....|..|B-3 3FCA ....|G-4 6FFA ....|A-2 2F.A ....
....|..|C-4 3FCF ....|G-4 6FFF ....|--- .... ....
....|..|C-4 3FCA ....|R-- .... ....|R-- .... ....
....|..|C-4 3FCF ....|G-4 6FF7 ....|A-2 2F.7 ....
....|..|C-4 3FCA ....|G-4 6FFA ....|--- .... ....
 F-4|..|C-4 3FCF ....|G-4 6FFF ....|F-2 2A.F ....
....|..|C-4 3FCA ....|--- .... ....|--- .... ....
....|..|C-4 3FCF ....|F-4 6FFF ....|R-- .... ....
....|..|C-4 3FCA ....|G-4 6FFA ....|F-2 2F.A ....
....|..|F-3 3FCF ....|--- .... ....|--- .... ....
....|..|C-4 3FCA ....|F-4 6FFA ....|R-- .... ....
....|..|G-3 3FCF ....|G-4 6FFF ....|F-2 2F.7 ....
....|..|F-3 3FCA ....|--- .... ....|--- .... ....
 F-4|..|A-3 3FCF ....|F-2 2A.F ....|F-2 2A.F ....
....|..|G-3 3FCA ....|G-4 6FFA ....|--- .... ....
....|..|C-4 3FCF ....|A-4 6FFF ....|R-- .... ....
....|..|A-3 3FCA ....|F-2 2F.A ....|F-2 2F.A ....
....|..|G-3 3FCF ....|G-4 6FFF ....|--- .... ....
....|..|C-4 3FCA ....|A-4 6FFA ....|R-- .... ....
....|..|A-3 3FCF ....|A-4 6FFF ....|F-2 2F.7 ....
....|..|G-3 3FCA ....|G-4 6FFA ....|--- .... ....
 G-4|..|B-3 3FCF ....|G-4 6FFF ....|G-2 2A.F ....
....|..|A-3 3FCA ....|A-4 6FFA ....|--- .... ....
....|..|D-4 3FCF ....|G-4 6FFF ....|R-- .... ....
....|..|B-3 3FCA ....|G-4 6FFA ....|G-2 2F.A ....
....|..|G-3 3FCF ....|F-4 6FFF ....|--- .... ....
....|..|D-4 3FCA ....|G-4 6FFA ....|R-- .... ....
....|..|A-3 3FCF ....|G-4 6FFF ....|G-2 2F.7 ....
....|..|G-3 3FCA ....|F-4 6FFA ....|--- .... ....
 G-4|..|B-3 3FCF ....|F-4 6FFF ....|G-2 2A.F ....
....|..|A-3 3FCA ....|G-4 6FFA ....|--- .... ....
....|..|D-4 3FCF ....|E-4 6FFF ....|R-- .... ....
....|..|B-3 3FCA ....|F-4 6FFA ....|G-2 2F.A ....

[Pattern8]
....|..|A-3 3FCF ....|C-5 6FFF ....|--- .... ....
....|..|D-4 3FCA ....|C-5 6FFA ....|R-- .... ....
....|..|B-3 3FCF ....|B-4 6FFF ....|G-2 2F.7 ....
....|..|A-3 3FCA ....|C-5 6FFA ....|--- .... ....
 A-3|..|C-4 3FCF ....|B-4 6FFF ....|A-2 2C.F ....
....|..|B-3 3FCA ....|B-4 6FFA ....|--- .... ....
....|..|E-4 3FCF ....|B-4 6FFF ....|R-- .... ....
....|..|C-4 3FCA ....|B-4 6FFA ....|A-2 2F.A ....
....|..|A-3 3FCF ....|A-4 6FFF ....|--- .... ....
....|..|E-4 3FCA ....|B-4 6FFA ....|R-- .... ....
....|..|B-3 3FCF ....|A-4 6FFF ....|A-2 2F.7 ....
....|..|A-3 3FCA ....|A-4 6FFA ....|--- .... ....
 A-3|..|C-4 3FCF ....|A-4 6FFF ....|A-2 2C.F ....
....|..|B-3 3FCA ....|A-4 6FFA ....|--- .... ....
....|..|E-4 3FCF ....|R-- .... ....|R-- .... ....
....|..|C-4 3FCA ....|A-4 6FFA ....|A-2 2F.A ....
....|..|A-3 3FCF ....|A-4 6FF7 ....|--- .... ....
....|..|E-4 3FCA ....|R-- .... ....|R-- .... ....
....|..|B-3 3FCF ....|A-4 6FF7 ....|A-2 2F.7 ....
....|..|A-3 3FCA ....|--- .... ....|--- .... ....
 A-3|..|C-4 3FCF ....|A-2 2C.F ....|A-2 2C.F ....
....|..|B-3 3FCA ....|--- .... ....|--- .... ....
....|..|E-4 3FCF ....|R-- .... ....|R-- .... ....
....|..|C-4 3FCA ....|A-2 2F.A ....|A-2 2F.A ....
....|..|D-4 3FCF ....|--- .... ....|--- .... ....
....|..|E-4 3FCA ....|R-- .... ....|R-- .... ....
....|..|C-4 3FCF ....|A-2 2F.7 ....|A-2 2F.7 ....
....|..|D-4 3FCA ....|--- .... ....|--- .... ....
 A-3|..|B-3 3FCF ....|A-2 2C.F ....|A-2 2C.F ....
....|..|C-4 3FCA ....|--- .... ....|--- .... ....
....|..|C-4 3FCF ....|R-- .... ....|R-- .... ....
....|..|B-3 3FCA ....|A-2 2F.A ....|A-2 2F.A ....
....|..|C-4 3FCF ....|E-4 4FEF ....|E-4 2FFF ....
....|..|C-4 3FCA ....|R-- .... ....|A-2 2F.F ....
....|..|C-4 3FCF ....|A-2 2F.7 ....|A-2 2F.7 ....
....|..|C-4 3FCA ....|E-4 4FEA ....|E-4 2FFA ....
 A-3|..|C-4 3FCF ....|A-2 2C.F ....|A-2 2C.F ....
....|..|C-4 3FCA ....|--- .... ....|--- .... ....
....|..|A-3 3FCF ....|R-- .... ....|E-4 2FFF ....
....|..|C-4 3FCA ....|A-2 2F.A ....|A-2 2F.A ....
....|..|B-3 3FCF ....|E-4 4FEF ....|--- .... ....
....|..|A-3 3FCA ....|R-- .... ....|E-4 2FFA ....
....|..|C-4 3FCF ....|A-2 2F.7 ....|R-- .... ....
....|..|B-3 3FCA ....|E-4 4FEA ....|--- .... ....
....|..|A-3 3FCF ....|A-3 4FEF ....|A-3 2FFF ....
....|..|C-4 3FCA ....|R-- .... ....|R-- .... ....
....|..|B-3 3FCF ....|R-- .... ....|R-- .... ....
....|..|A-3 3FCA ....|A-3 4FEA ....|A-3 2FFA ....
....|..|C-4 3FCF ....|--- .... ....|R-- .... ....
....|..|B-3 3FCA ....|R-- .... ....|R-- .... ....
....|..|A-3 3FCF ....|A-3 4FE7 ....|A-3 2FFF ....
....|..|C-4 3FCA ....|--- .... ....|--- .... ....
 A-3|..|B-3 3FCF ....|A-2 2C.F ....|A-3 2FFF ....
....|..|A-3 3FCA ....|--- .... ....|A-3 2FFA ....
....|..|C-4 3FCF ....|R-- .... ....|R-- .... ....
....|..|B-3 3FCA ....|A-2 2F.A ....|A-3 2FFA ....
....|..|A-3 3FCF ....|E-5 4FEF ....|A-3 2FF7 ....
....|..|C-4 3FCA ....|R-- .... ....|R-- .... ....
....|..|B-3 3FCF ....|C-5 4FEF ....|A-3 2FFA ....
....|..|A-3 3FCA ....|E-5 4FEA ....|--- .... ....
 A-3|..|C-4 3FCF ....|A-4 4FEF ....|A-2 2C.F ....
....|..|B-3 3FCA ....|C-5 4FEA ....|R-- .... ....
....|..|A-3 3FCF ....|E-6 4FEF ....|A-3 2FF7 ....
....|..|C-4 3FCA ....|A-4 4FEA ....|A-2 2F.A ....

[Pattern9]
....|..|C-4 3FCF ....|C-6 4FEF ....|A-3 2FF7 ....
....|..|A-3 3FCA ....|E-6 4FEA ....|R-- .... ....
....|..|D-4 3FCF ....|A-5 4FEF ....|A-2 2F.7 ....
....|..|C-4 3FCA ....|C-6 4FEA ....|--- .... ....
....|..|E-4 3FCF ....|E-5 4FEF ....|E-4 2FFF ....
....|..|D-4 3FCA ....|A-5 4FEA ....|--- .... ....
....|..|C-4 3FCF ....|C-5 4FEF ....|R-- .... ....
....|..|E-4 3FCA ....|E-5 4FEA ....|E-4 2FFA ....
....|..|D-4 3FCF ....|A-4 4FEF ....|D-4 2FFF ....
....|..|C-4 3FCA ....|C-5 4FEA ....|R-- .... ....
....|..|E-4 3FCF ....|E-4 4FEF ....|E-4 2FFF ....
....|..|D-4 3FCA ....|A-4 4FEA ....|D-4 2FFA ....
....|..|C-4 3FCF ....|C-4 4FEF ....|C-4 2FFF ....
....|..|E-4 3FCA ....|E-4 4FEA ....|E-4 2FFA ....
....|..|D-4 3FCF ....|A-3 4FEF ....|D-4 2FFF ....
....|..|C-4 3FCA ....|C-4 4FEA ....|C-4 2FFA ....
....|..|G-3 3FCF ....|E-3 4FEF ....|E-4 2FF7 ....
....|..|D-4 3FCA ....|A-3 4FEA ....|D-4 2FFA ....
....|..|A-3 3FCF ....|C-3 4FEF ....|D-4 2FFF ....
....|..|G-3 3FCA ....|E-3 4FEA ....|--- .... ....
....|..|B-3 3FCF ....|E-3 4FEF ....|D-4 2FFF ....
....|..|A-3 3FCA ....|C-3 4FEA ....|D-4 2FFA ....
....|..|G-3 3FCF ....|A-3 4FEF ....|E-4 2FF7 ....
....|..|B-3 3FCA ....|E-3 4FEA ....|D-4 2FFA ....
....|..|A-3 3FCF ....|C-4 4FEF ....|D-4 2FFF ....
....|..|G-3 3FCA ....|A-3 4FEA ....|R-- .... ....
....|..|B-3 3FCF ....|G-4 4FEF ....|D-4 2FF7 ....
....|..|A-3 3FCA ....|C-4 4FEA ....|D-4 2FFA ....
 G-4|..|A-3 3FCF ....|G-2 2A.F ....|G-2 2A.F ....
....|..|B-3 3FCA ....|G-4 4FEA ....|--- .... ....
....|..|G-3 3FCF ....|R-- .... ....|D-4 2FF7 ....
....|..|A-3 3FCA ....|G-2 2F.A ....|G-2 2F.A ....
....|..|A-3 3FCF ....|G-4 4FEF ....|E-4 2FFF ....
....|..|G-3 3FCA ....|R-- .... ....|R-- .... ....
....|..|B-3 3FCF ....|G-2 2F.7 ....|G-2 2F.7 ....
....|..|A-3 3FCA ....|G-4 4FEA ....|E-4 2FFA ....
 A-3|..|C-4 3FCF ....|A-2 2C.F ....|A-2 2C.F ....
....|..|B-3 3FCA ....|--- .... ....|--- .... ....
....|..|A-3 3FCF ....|R-- .... ....|E-4 2FFF ....
....|..|C-4 3FCA ....|A-2 2F.A ....|A-2 2F.A ....
....|..|B-3 3FCF ....|--- .... ....|--- .... ....
....|..|A-3 3FCA ....|R-- .... ....|E-4 2FFA ....
....|..|C-4 3FCF ....|A-2 2F.7 ....|R-- .... ....
....|..|B-3 3FCA ....|--- .... ....|--- .... ....
....|..|A-3 3FCF ....|G-4 4FEF ....|A-3 2FFF ....
....|..|C-4 3FCA ....|--- .... ....|R-- .... ....
....|..|B-3 3FCF ....|R-- .... ....|R-- .... ....
....|..|A-3 3FCA ....|G-4 4FEA ....|A-3 2FFA ....
....|..|C-4 3FCF ....|--- .... ....|R-- .... ....
....|..|B-3 3FCA ....|R-- .... ....|R-- .... ....
....|..|A-3 3FCF ....|G-4 4FE7 ....|A-3 2FFF ....
....|..|C-4 3FCA ....|--- .... ....|--- .... ....
 A-3|..|B-3 3FCF ....|A-2 2C.F ....|A-3 2FFF ....
....|..|A-3 3FCA ....|--- .... ....|A-3 2FFA ....
....|..|C-4 3FCF ....|R-- .... ....|R-- .... ....
....|..|B-3 3FCA ....|A-2 2F.A ....|A-3 2FFA ....
....|..|A-3 3FCF ....|--- .... ....|A-3 2FF7 ....
....|..|C-4 3FCA ....|R-- .... ....|R-- .... ....
....|..|B-3 3FCF ....|A-2 2F.7 ....|A-3 2FFA ....
....|..|A-3 3FCA ....|--- .... ....|--- .... ....
 A-3|..|C-4 3FCF ....|A-2 2C.F ....|A-2 2C.F ....
....|..|B-3 3FCA ....|--- .... ....|R-- .... ....
....|..|A-3 3FCF ....|R-- .... ....|A-3 2FF7 ....
....|..|C-4 3FCA ....|A-2 2F.A ....|A-2 2F.A ....

[Pattern10]
....|..|C-4 3FCF ....|G-4 4FEF ....|A-3 2FF7 ....
....|..|A-3 3FCA ....|R-- .... ....|R-- .... ....
....|..|D-4 3FCF ....|G-4 4FEF ....|A-2 2F.7 ....
....|..|C-4 3FCA ....|G-4 4FEA ....|--- .... ....
....|..|E-4 3FCF ....|G-4 4FEF ....|G-4 2FFF ....
....|..|D-4 3FCA ....|G-4 4FEA ....|--- .... ....
....|..|C-4 3FCF ....|G-4 4FEF ....|R-- .... ....
....|..|E-4 3FCA ....|G-4 4FEA ....|G-4 2FFA ....
....|..|D-4 3FCF ....|G-4 4FEF ....|G-4 2FFF ....
....|..|C-4 3FCA ....|G-4 4FEA ....|R-- .... ....
....|..|E-4 3FCF ....|G-4 4FEF ....|G-4 2FFF ....
....|..|D-4 3FCA ....|G-4 4FEA ....|G-4 2FFA ....
....|..|C-4 3FCF ....|C-5 4FEF ....|E-4 2FFF ....
....|..|E-4 3FCA ....|G-4 4FEA ....|G-4 2FFA ....
....|..|D-4 3FCF ....|D-5 4FEF ....|G-4 2FFF ....
....|..|C-4 3FCA ....|C-5 4FEA ....|E-4 2FFA ....
....|..|G-3 3FCF ....|G-4 4FE7 ....|G-4 2FF7 ....
....|..|D-4 3FCA ....|D-5 4FEA ....|G-4 2FFA ....
....|..|A-3 3FCF ....|C-5 4FE7 ....|E-4 2FFF ....
....|..|G-3 3FCA ....|--- .... ....|--- .... ....
 G-4|..|B-3 3FCF ....|G-2 2A.F ....|D-4 2FFF ....
....|..|A-3 3FCA ....|--- .... ....|E-4 2FFA ....
....|..|G-3 3FCF ....|R-- .... ....|G-4 2FF7 ....
....|..|B-3 3FCA ....|G-2 2F.A ....|D-4 2FFA ....
....|..|A-3 3FCF ....|--- .... ....|D-4 2FFF ....
....|..|G-3 3FCA ....|R-- .... ....|R-- .... ....
....|..|B-3 3FCF ....|G-2 2F.7 ....|D-4 2FF7 ....
....|..|A-3 3FCA ....|--- .... ....|D-4 2FFA ....
....|..|A-3 3FCF ....|G-4 4FEF ....|D-4 2FFF ....
....|..|B-3 3FCA ....|--- .... ....|--- .... ....
....|..|G-3 3FCF ....|G-4 4FEF ....|D-4 2FFF ....
....|..|A-3 3FCA ....|G-4 4FEA ....|D-4 2FFA ....
....|..|A-3 3FCF ....|G-4 4FEF ....|E-4 2FFF ....
....|..|G-3 3FCA ....|G-4 4FEA ....|D-4 2FFA ....
....|..|B-3 3FCF ....|G-4 4FE7 ....|D-4 2FFA ....
....|..|A-3 3FCA ....|G-4 4FEA ....|E-4 2FFA ....
 A-3|..|C-4 3FCF ....|A-2 2C.F ....|D-4 2FFF ....
....|..|B-3 3FCA ....|--- .... ....|--- .... ....
....|..|A-3 3FCF ....|E-4 4FEF ....|E-4 2FFF ....
....|..|C-4 3FCA ....|A-2 2F.A ....|D-4 2FFA ....
....|..|B-3 3FCF ....|E-4 4FEF ....|D-4 2FF7 ....
....|..|A-3 3FCA ....|E-4 4FEA ....|E-4 2FFA ....
....|..|C-4 3FCF ....|A-2 2F.7 ....|D-4 2FF7 ....
....|..|B-3 3FCA ....|E-4 4FEA ....|--- .... ....
....|..|A-3 3FCF ....|A-3 4FEF ....|A-3 2FFF ....
....|..|C-4 3FCA ....|--- .... ....|R-- .... ....
....|..|B-3 3FCF ....|R-- .... ....|R-- .... ....
....|..|A-3 3FCA ....|A-3 4FEA ....|A-3 2FFA ....
....|..|C-4 3FCF ....|--- .... ....|D-4 2FF7 ....
....|..|B-3 3FCA ....|R-- .... ....|R-- .... ....
....|..|A-3 3FCF ....|A-3 4FE7 ....|A-3 2FFF ....
....|..|C-4 3FCA ....|--- .... ....|--- .... ....
 A-3|..|B-3 3FCF ....|A-2 2C.F ....|A-3 2FFF ....
....|..|A-3 3FCA ....|--- .... ....|A-3 2FFA ....
....|..|C-4 3FCF ....|R-- .... ....|R-- .... ....
....|..|B-3 3FCA ....|A-2 2F.A ....|A-3 2FFA ....
....|..|A-3 3FCF ....|E-5 4FEF ....|A-3 2FF7 ....
....|..|C-4 3FCA ....|R-- .... ....|R-- .... ....
....|..|B-3 3FCF ....|C-5 4FEF ....|A-3 2FFA ....
....|..|A-3 3FCA ....|E-5 4FEA ....|--- .... ....
 A-3|..|C-4 3FCF ....|A-4 4FEF ....|A-2 2C.F ....
....|..|B-3 3FCA ....|C-5 4FEA ....|R-- .... ....
....|..|A-3 3FCF ....|E-6 4FEF ....|A-3 2FF7 ....
....|..|C-4 3FCA ....|A-4 4FEA ....|A-2 2F.A ....

[Pattern11]
....|..|C-4 3FCF ....|C-6 4FEF ....|A-3 2FF7 ....
....|..|A-3 3FCA ....|E-6 4FEA ....|R-- .... ....
....|..|D-4 3FCF ....|A-5 4FEF ....|A-2 2F.7 ....
....|..|C-4 3FCA ....|C-6 4FEA ....|--- .... ....
....|..|E-4 3FCF ....|E-5 4FEF ....|E-4 2FFF ....
....|..|D-4 3FCA ....|A-5 4FEA ....|--- .... ....
....|..|C-4 3FCF ....|C-5 4FEF ....|R-- .... ....
....|..|E-4 3FCA ....|E-5 4FEA ....|E-4 2FFA ....
....|..|D-4 3FCF ....|A-4 4FEF ....|D-4 2FFF ....
....|..|C-4 3FCA ....|C-5 4FEA ....|R-- .... ....
....|..|E-4 3FCF ....|E-4 4FEF ....|E-4 2FFF ....
....|..|D-4 3FCA ....|A-4 4FEA ....|D-4 2FFA ....
....|..|C-4 3FCF ....|C-4 4FEF ....|C-4 2FFF ....
....|..|E-4 3FCA ....|E-4 4FEA ....|E-4 2FFA ....
....|..|D-4 3FCF ....|A-3 4FEF ....|D-4 2FFF ....
....|..|C-4 3FCA ....|C-4 4FEA ....|C-4 2FFA ....
....|..|G-3 3FCF ....|E-3 4FEF ....|E-4 2FF7 ....
....|..|D-4 3FCA ....|A-3 4FEA ....|D-4 2FFA ....
....|..|A-3 3FCF ....|C-3 4FEF ....|D-4 2FFF ....
....|..|G-3 3FCA ....|E-3 4FEA ....|--- .... ....
....|..|B-3 3FCF ....|E-3 4FEF ....|D-4 2FFF ....
....|..|A-3 3FCA ....|C-3 4FEA ....|D-4 2FFA ....
....|..|G-3 3FCF ....|A-3 4FEF ....|E-4 2FF7 ....
....|..|B-3 3FCA ....|E-3 4FEA ....|D-4 2FFA ....
....|..|A-3 3FCF ....|C-4 4FEF ....|D-4 2FFF ....
....|..|G-3 3FCA ....|A-3 4FEA ....|R-- .... ....
....|..|B-3 3FCF ....|G-4 4FEF ....|D-4 2FF7 ....
....|..|A-3 3FCA ....|C-4 4FEA ....|D-4 2FFA ....
 G-4|..|A-3 3FCF ....|G-2 2A.F ....|G-2 2A.F ....
....|..|B-3 3FCA ....|G-4 4FEA ....|--- .... ....
....|..|G-3 3FCF ....|R-- .... ....|D-4 2FF7 ....
....|..|A-3 3FCA ....|G-2 2F.A ....|G-2 2F.A ....
....|..|A-3 3FCF ....|G-4 4FEF ....|E-4 2FFF ....
....|..|G-3 3FCA ....|R-- .... ....|R-- .... ....
....|..|B-3 3FCF ....|G-2 2F.7 ....|G-2 2F.7 ....
....|..|A-3 3FCA ....|G-4 4FEA ....|E-4 2FFA ....
 A-3|..|C-4 3FCF ....|A-2 2C.F ....|A-2 2C.F ....
....|..|B-3 3FCA ....|--- .... ....|--- .... ....
....|..|A-3 3FCF ....|R-- .... ....|E-4 2FFF ....
....|..|C-4 3FCA ....|A-2 2F.A ....|A-2 2F.A ....
....|..|B-3 3FCF ....|--- .... ....|--- .... ....
....|..|A-3 3FCA ....|R-- .... ....|E-4 2FFA ....
....|..|C-4 3FCF ....|A-2 2F.7 ....|R-- .... ....
....|..|B-3 3FCA ....|--- .... ....|--- .... ....
....|..|A-3 3FCF ....|G-4 4FEF ....|A-3 2FFF ....
....|..|C-4 3FCA ....|--- .... ....|R-- .... ....
....|..|B-3 3FCF ....|R-- .... ....|R-- .... ....
....|..|A-3 3FCA ....|G-4 4FEA ....|A-3 2FFA ....
....|..|C-4 3FCF ....|--- .... ....|R-- .... ....
....|..|B-3 3FCA ....|R-- .... ....|R-- .... ....
....|..|A-3 3FCF ....|G-4 4FE7 ....|A-3 2FFF ....
....|..|C-4 3FCA ....|--- .... ....|--- .... ....
 A-3|..|B-3 3FCF ....|A-2 2C.F ....|A-3 2FFF ....
....|..|A-3 3FCA ....|--- .... ....|A-3 2FFA ....
....|..|C-4 3FCF ....|R-- .... ....|R-- .... ....
....|..|B-3 3FCA ....|A-2 2F.A ....|A-3 2FFA ....
....|..|A-3 3FCF ....|A-3 4FEF ....|A-3 2FF7 ....
....|..|C-4 3FCA ....|R-- .... ....|R-- .... ....
....|..|B-3 3FCF ....|A-2 2F.7 ....|A-3 2FFA ....
....|..|A-3 3FCA ....|A-3 4FEA ....|--- .... ....
 A-3|..|C-4 3FCF ....|A-2 2C.F ....|A-2 2C.F ....
....|..|B-3 3FCA ....|--- .... ....|R-- .... ....
....|..|A-3 3FCF ....|R-- .... ....|A-3 2FF7 ....
....|..|C-4 3FCA ....|A-2 2F.A ....|A-2 2F.A ....

[Pattern12]
....|..|C-4 3FCF ....|C-3 4FEF ....|A-3 2FF7 ....
....|..|A-3 3FCA ....|R-- .... ....|R-- .... ....
....|..|D-4 3FCF ....|E-3 4FEF ....|A-2 2F.7 ....
....|..|C-4 3FCA ....|C-3 4FEA ....|--- .... ....
....|..|E-4 3FCF ....|G-3 4FEF ....|G-4 2FFF ....
....|..|D-4 3FCA ....|E-3 4FEA ....|--- .... ....
....|..|C-4 3FCF ....|C-4 4FEF ....|R-- .... ....
....|..|E-4 3FCA ....|G-3 4FEA ....|G-4 2FFA ....
....|..|D-4 3FCF ....|E-4 4FEF ....|G-4 2FFF ....
....|..|C-4 3FCA ....|C-4 4FEA ....|R-- .... ....
....|..|E-4 3FCF ....|G-4 4FEF ....|G-4 2FFF ....
....|..|D-4 3FCA ....|E-4 4FEA ....|G-4 2FFA ....
....|..|C-4 3FCF ....|C-5 4FEF ....|E-4 2FFF ....
....|..|E-4 3FCA ....|G-4 4FEA ....|G-4 2FFA ....
....|..|D-4 3FCF ....|D-5 4FEF ....|G-4 2FFF ....
....|..|C-4 3FCA ....|C-5 4FEA ....|E-4 2FFA ....
....|..|G-3 3FCF ....|G-4 4FE7 ....|G-4 2FF7 ....
....|..|D-4 3FCA ....|D-5 4FEA ....|G-4 2FFA ....
....|..|A-3 3FCF ....|C-5 4FE7 ....|E-4 2FFF ....
....|..|G-3 3FCA ....|--- .... ....|--- .... ....
 G-4|..|B-3 3FCF ....|G-2 2A.F ....|D-4 2FFF ....
....|..|A-3 3FCA ....|--- .... ....|E-4 2FFA ....
....|..|G-3 3FCF ....|R-- .... ....|G-4 2FF7 ....
....|..|B-3 3FCA ....|G-2 2F.A ....|D-4 2FFA ....
....|..|A-3 3FCF ....|--- .... ....|D-4 2FFF ....
....|..|G-3 3FCA ....|R-- .... ....|R-- .... ....
....|..|B-3 3FCF ....|G-2 2F.7 ....|D-4 2FF7 ....
....|..|A-3 3FCA ....|--- .... ....|D-4 2FFA ....
 G-4|..|A-3 3FCF ....|G-2 2A.F ....|G-2 2A.F ....
....|..|B-3 3FCA ....|--- .... ....|--- .... ....
....|..|G-3 3FCF ....|R-- .... ....|E-4 2FF7 ....
....|..|A-3 3FCA ....|G-2 2F.A ....|G-2 2F.A ....
....|..|B-3 3FC7 ....|A-4 6FFF ....|E-4 2FFF ....
....|..|G-3 3FCA ....|R-- .... ....|R-- .... ....
....|..|A-3 3FC7 ....|G-2 2F.7 ....|R-- .... ....
....|..|G-3 UF37 ....|A-4 6FFA ....|E-4 2FFA ....
 A-3|..|G-3 UF3A ....|A-4 6FFF ....|A-2 2C.F ....
....|..|G-3 UF37 ....|--- .... ....|R-- .... ....
....|..|R-- .... ....|A-3 6FFF ....|E-4 2FFA ....
....|..|--- .... ....|A-4 6FFA ....|A-2 2F.A ....
....|..|G-3 UF37 ....|E-4 6FFF ....|E-4 2FFF ....
....|..|R-- .... ....|A-3 6FFA ....|R-- .... ....
....|..|G-3 UF37 ....|D-4 6FFF ....|A-2 2F.7 ....
....|..|--- .... ....|E-4 6FFA ....|E-4 2FFA ....
....|..|R-- .... ....|E-4 6FFF ....|E-4 2FF7 ....
....|..|--- .... ....|D-4 6FFA ....|R-- .... ....
....|..|--- .... ....|D-4 6FFF ....|E-4 2FFA ....
....|..|--- .... ....|E-4 6FFA ....|--- .... ....
....|..|--- .... ....|C-4 6FFF ....|R-- .... ....
....|..|--- .... ....|D-4 6FFA ....|--- .... ....
....|..|R-- .... ....|C-4 6FFF ....|--- .... ....
....|..|--- .... ....|C-4 6FFA ....|--- .... ....
....|..|--- .... ....|C-4 6FFF ....|E-4 2FF7 ....
....|..|--- .... ....|C-4 6FFA ....|--- .... ....
....|..|--- .... ....|C-4 6FFF ....|R-- .... ....
....|..|--- .... ....|C-4 6FFA ....|--- .... ....
....|..|--- .... ....|E-4 6FFF ....|--- .... ....
....|..|--- .... ....|C-4 6FFA ....|--- .... ....
....|..|--- .... ....|E-4 6FFF ....|--- .... ....
....|..|--- .... ....|E-4 6FFA ....|--- .... ....
....|..|--- .... ....|E-4 6FFF ....|--- .... ....
....|..|--- .... ....|E-4 6FFA ....|--- .... ....
....|..|--- .... ....|D-4 6FFF ....|--- .... ....
....|..|--- .... ....|E-4 6FFA ....|--- .... ....

[Pattern13]
....|..|--- .... ....|E-4 6FFF ....|G-4 2FFF ....
....|..|--- .... ....|D-4 6FFA ....|--- .... ....
....|..|--- .... ....|D-4 6FFF ....|R-- .... ....
....|..|--- .... ....|E-4 6FFA ....|G-4 2FFA ....
 C-3|..|--- .... ....|G-4 6FFF ....|C-3 2C.F ....
....|..|--- .... ....|D-4 6FFA ....|R-- .... ....
....|..|--- .... ....|G-4 6FFF ....|G-4 2FFA ....
....|..|--- .... ....|G-4 6FFA ....|C-3 2F.A ....
....|..|--- .... ....|G-4 6FFF ....|G-4 2FFF ....
....|..|--- .... ....|G-4 6FFA ....|R-- .... ....
....|..|--- .... ....|E-4 6FFF ....|R-- .... ....
....|..|--- .... ....|G-4 6FFA ....|G-4 2FFA ....
....|..|--- .... ....|F-4 6FFF ....|G-4 2FF7 ....
....|..|--- .... ....|E-4 6FFA ....|R-- .... ....
....|..|--- .... ....|E-4 6FFF ....|G-4 2FFA ....
....|..|--- .... ....|F-4 6FFA ....|--- .... ....
....|..|--- .... ....|F-4 6FFF ....|D-4 2FFF ....
....|..|--- .... ....|E-4 6FFA ....|--- .... ....
....|..|--- .... ....|D-4 6FFF ....|R-- .... ....
....|..|--- .... ....|F-4 6FFA ....|D-4 2FFA ....
 G-4|..|--- .... ....|D-4 6FFF ....|G-2 2A.F ....
....|..|--- .... ....|D-4 6FFA ....|R-- .... ....
....|..|--- .... ....|D-4 6FFF ....|D-4 2FFA ....
....|..|--- .... ....|D-4 6FFA ....|G-2 2F.A ....
....|..|--- .... ....|C-4 6FFF ....|D-4 2FFF ....
....|..|--- .... ....|D-4 6FFA ....|R-- .... ....
....|..|--- .... ....|D-4 6FFF ....|R-- .... ....
....|..|--- .... ....|C-4 6FFA ....|D-4 2FFA ....
....|..|--- .... ....|C-4 6FFF ....|E-4 2FFF ....
....|..|--- .... ....|D-4 6FFA ....|R-- .... ....
....|..|--- .... ....|C-4 6FFF ....|D-4 2FFA ....
....|..|--- .... ....|C-4 6FFA ....|E-4 2FFA ....
....|..|--- .... ....|A-4 6FFF ....|E-4 2FFF ....
....|..|--- .... ....|C-4 6FFA ....|--- .... ....
....|..|--- .... ....|A-4 6FFF ....|E-4 2FFA ....
....|..|--- .... ....|A-4 6FFA ....|E-4 2FFA ....
....|..|--- .... ....|A-4 6FFF ....|E-4 2FFF ....
....|..|--- .... ....|A-4 6FFA ....|R-- .... ....
....|..|--- .... ....|A-3 6FFF ....|E-4 2FFA ....
....|..|--- .... ....|A-4 6FFA ....|E-4 2FFA ....
....|..|--- .... ....|A-3 6FFF ....|E-4 2FFF ....
....|..|--- .... ....|A-3 6FFA ....|R-- .... ....
....|..|--- .... ....|B-3 6FFF ....|E-4 2FFA ....
....|..|--- .... ....|A-3 6FFA ....|E-4 2FFA ....
....|..|--- .... ....|C-4 6FFF ....|E-4 2FF7 ....
....|..|--- .... ....|B-3 6FFA ....|R-- .... ....
....|..|--- .... ....|E-4 6FFF ....|E-4 2FFA ....
....|..|--- .... ....|C-4 6FFA ....|--- .... ....
....|..|--- .... ....|E-4 6FFF ....|E-4 2FF7 ....
....|..|--- .... ....|E-4 6FFA ....|--- .... ....
....|..|--- .... ....|A-4 6FFF ....|R-- .... ....
....|..|--- .... ....|E-4 6FFA ....|--- .... ....
....|..|--- .... ....|A-4 6FFF ....|E-4 2FF7 ....
....|..|--- .... ....|A-4 6FFA ....|--- .... ....
....|..|--- .... ....|A-4 6FFF ....|R-- .... ....
....|..|--- .... ....|A-4 6FFA ....|--- .... ....
....|..|--- .... ....|A-4 6FFF ....|--- .... ....
....|..|--- .... ....|A-4 6FFA ....|--- .... ....
....|..|--- .... ....|A-4 6FFF ....|--- .... ....
....|..|--- .... ....|A-4 6FFA ....|--- .... ....
....|..|--- .... ....|D-4 6FFF ....|--- .... ....
....|..|--- .... ....|A-4 6FFA ....|--- .... ....
....|..|--- .... ....|D-4 6FFF ....|--- .... ....
....|..|--- .... ....|D-4 6FFA ....|--- .... ....

[Pattern14]
....|..|--- .... ....|F-4 6FFF ....|F-4 2FFF ....
....|..|--- .... ....|D-4 6FFA ....|--- .... ....
....|..|--- .... ....|F-4 6FFF ....|R-- .... ....
....|..|--- .... ....|F-4 6FFA ....|F-4 2FFA ....
 F-4|..|--- .... ....|F-4 6FFF ....|F-2 2A.F ....
....|..|--- .... ....|F-4 6FFA ....|R-- .... ....
....|..|--- .... ....|F-4 6FFF ....|F-4 2FFA ....
....|..|--- .... ....|F-4 6FFA ....|F-2 2F.A ....
....|..|--- .... ....|F-4 6FFF ....|F-4 2FFF ....
....|..|--- .... ....|F-4 6FFA ....|R-- .... ....
....|..|--- .... ....|F-4 6FFF ....|R-- .... ....
....|..|--- .... ....|F-4 6FFA ....|F-4 2FFA ....
....|..|--- .... ....|C-5 6FFF ....|F-4 2FF7 ....
....|..|--- .... ....|F-4 6FFA ....|R-- .... ....
....|..|--- .... ....|B-4 6FFF ....|F-4 2FFA ....
....|..|--- .... ....|C-5 6FFA ....|--- .... ....
....|..|--- .... ....|C-5 6FFF ....|D-4 2FFF ....
....|..|--- .... ....|B-4 6FFA ....|--- .... ....
....|..|--- .... ....|B-4 6FFF ....|R-- .... ....
....|..|--- .... ....|C-5 6FFA ....|D-4 2FFA ....
 G-4|..|--- .... ....|G-4 6FFF ....|G-2 2A.F ....
....|..|--- .... ....|B-4 6FFA ....|R-- .... ....
....|..|--- .... ....|B-4 6FFF ....|D-4 2FFA ....
....|..|--- .... ....|G-4 6FFA ....|G-2 2F.A ....
....|..|--- .... ....|B-4 6FFF ....|D-4 2FFF ....
....|..|--- .... ....|B-4 6FFA ....|R-- .... ....
....|..|--- .... ....|C-5 6FFF ....|D-4 2FFF ....
....|..|--- .... ....|B-4 6FFA ....|D-4 2FFA ....
....|..|--- .... ....|C-5 6FFF ....|D-4 2FFF ....
....|..|--- .... ....|C-5 6FFA ....|D-4 2FFA ....
....|..|--- .... ....|D-5 6FFF ....|D-4 2FFA ....
....|..|--- .... ....|C-5 6FFA ....|D-4 2FFA ....
....|..|A-4 3FCF ....|D-5 6FFF ....|E-4 2FFF ....
....|..|--- .... ....|D-5 6FFA ....|--- .... ....
....|..|A-3 3FCF ....|C-5 6FF7 ....|D-4 2FFF ....
....|..|A-4 3FCA ....|D-5 6FFA ....|E-4 2FFA ....
 A-3|..|C-4 3FCF ....|D-5 6FFF ....|A-2 2C.F ....
....|..|A-3 3FCA ....|--- .... ....|D-4 2FFA ....
....|..|B-3 3FCF ....|A-3 6FFF ....|D-4 2FF7 ....
....|..|C-4 3FCA ....|D-5 6FFA ....|A-2 2F.A ....
....|..|A-4 3FCF ....|E-4 6FFF ....|E-4 2FFF ....
....|..|B-3 3FCA ....|A-3 6FFA ....|R-- .... ....
....|..|A-3 3FCF ....|D-4 6FFF ....|R-- .... ....
....|..|A-4 3FCA ....|E-4 6FFA ....|E-4 2FFA ....
 A-3|..|C-4 3FCF ....|E-4 6FFF ....|A-2 2C.F ....
....|..|A-3 3FCA ....|D-4 6FFA ....|R-- .... ....
....|..|B-3 3FCF ....|D-4 6FFF ....|D-4 2FF7 ....
....|..|C-4 3FCA ....|E-4 6FFA ....|A-2 2F.A ....
....|..|A-4 3FCF ....|C-4 6FFF ....|R-- .... ....
....|..|B-3 3FCA ....|D-4 6FFA ....|R-- .... ....
....|..|A-3 3FCF ....|C-4 6FFF ....|A-2 2F.7 ....
....|..|A-4 3FCA ....|C-4 6FFA ....|--- .... ....
 A-3|..|C-4 3FCF ....|C-4 6FFF ....|A-2 2C.F ....
....|..|A-3 3FCA ....|C-4 6FFA ....|--- .... ....
....|..|B-3 3FCF ....|C-4 6FFF ....|R-- .... ....
....|..|C-4 3FCA ....|C-4 6FFA ....|A-2 2F.A ....
....|..|A-4 3FCF ....|E-4 6FFF ....|--- .... ....
....|..|B-3 3FCA ....|C-4 6FFA ....|R-- .... ....
....|..|A-3 3FCF ....|E-4 6FFF ....|A-2 2F.7 ....
....|..|A-4 3FCA ....|E-4 6FFA ....|--- .... ....
 A-3|..|C-4 3FCF ....|E-4 6FFF ....|A-2 2C.F ....
....|..|A-3 3FCA ....|E-4 6FFA ....|--- .... ....
....|..|B-3 3FCF ....|D-4 6FFF ....|R-- .... ....
....|..|C-4 3FCA ....|E-4 6FFA ....|A-2 2F.A ....

[Pattern15]
....|..|C-5 3FCF ....|E-4 6FFF ....|G-4 2FFF ....
....|..|B-3 3FCA ....|D-4 6FFA ....|R-- .... ....
....|..|C-4 3FCF ....|D-4 6FFF ....|R-- .... ....
....|..|C-5 3FCA ....|E-4 6FFA ....|G-4 2FFA ....
 C-3|..|E-4 3FCF ....|G-4 6FFF ....|C-3 2C.F ....
....|..|C-4 3FCA ....|D-4 6FFA ....|R-- .... ....
....|..|D-4 3FCF ....|G-4 6FFF ....|G-4 2FFA ....
....|..|E-4 3FCA ....|G-4 6FFA ....|C-3 2F.A ....
....|..|C-5 3FCF ....|G-4 6FFF ....|G-4 2FFF ....
....|..|D-4 3FCA ....|G-4 6FFA ....|R-- .... ....
....|..|C-4 3FCF ....|E-4 6FFF ....|R-- .... ....
....|..|C-5 3FCA ....|G-4 6FFA ....|G-4 2FFA ....
 C-3|..|E-4 3FCF ....|F-4 6FFF ....|C-3 2C.F ....
....|..|C-4 3FCA ....|E-4 6FFA ....|R-- .... ....
....|..|D-4 3FCF ....|E-4 6FFF ....|G-4 2FFA ....
....|..|E-4 3FCA ....|F-4 6FFA ....|C-3 2F.A ....
....|..|G-4 3FCF ....|F-4 6FFF ....|D-4 2FFF ....
....|..|D-4 3FCA ....|E-4 6FFA ....|R-- .... ....
....|..|G-3 3FCF ....|D-4 6FFF ....|R-- .... ....
....|..|G-4 3FCA ....|F-4 6FFA ....|D-4 2FFA ....
 G-4|..|B-3 3FCF ....|D-4 6FFF ....|G-2 2A.F ....
....|..|G-3 3FCA ....|D-4 6FFA ....|R-- .... ....
....|..|A-3 3FCF ....|D-4 6FFF ....|D-4 2FFA ....
....|..|B-3 3FCA ....|D-4 6FFA ....|G-2 2F.A ....
....|..|G-4 3FCF ....|C-4 6FFF ....|D-4 2FFF ....
....|..|A-3 3FCA ....|D-4 6FFA ....|R-- .... ....
....|..|G-3 3FCF ....|D-4 6FFF ....|R-- .... ....
....|..|G-4 3FCA ....|C-4 6FFA ....|D-4 2FFA ....
....|..|A-3 3FCF ....|C-4 6FFF ....|E-4 2FFF ....
....|..|G-3 3FCA ....|D-4 6FFA ....|R-- .... ....
....|..|B-3 3FCF ....|C-4 6FFF ....|D-4 2FFA ....
....|..|A-3 3FCA ....|C-4 6FFA ....|E-4 2FFA ....
....|..|A-4 3FCF ....|A-4 6FFF ....|E-4 2FFF ....
....|..|B-3 3FCA ....|C-4 6FFA ....|R-- .... ....
....|..|A-3 3FCF ....|A-4 6FFF ....|E-4 2FFA ....
....|..|A-4 3FCA ....|A-4 6FFA ....|E-4 2FFA ....
....|..|C-4 3FCF ....|A-4 6FFF ....|E-4 2FFF ....
....|..|A-3 3FCA ....|A-4 6FFA ....|R-- .... ....
....|..|B-3 3FCF ....|A-3 6FFF ....|E-4 2FFA ....
....|..|C-4 3FCA ....|A-4 6FFA ....|E-4 2FFA ....
....|..|A-4 3FCF ....|A-3 6FFF ....|E-4 2FFF ....
....|..|B-3 3FCA ....|A-3 6FFA ....|R-- .... ....
....|..|A-3 3FCF ....|B-3 6FFF ....|E-4 2FFA ....
....|..|A-4 3FCA ....|A-3 6FFA ....|E-4 2FFA ....
 A-3|..|C-4 3FCF ....|C-4 6FFF ....|A-2 2C.F ....
....|..|A-3 3FCA ....|B-3 6FFA ....|R-- .... ....
....|..|B-3 3FCF ....|E-4 6FFF ....|E-4 2FFA ....
....|..|C-4 3FCA ....|C-4 6FFA ....|A-2 2F.A ....
....|..|A-4 3FCF ....|E-4 6FFF ....|E-4 2FF7 ....
....|..|B-3 3FCA ....|E-4 6FFA ....|R-- .... ....
....|..|A-3 3FCF ....|A-4 6FFF ....|A-2 2F.7 ....
....|..|A-4 3FCA ....|E-4 6FFA ....|--- .... ....
 A-3|..|C-4 3FCF ....|A-4 6FFF ....|A-2 2C.F ....
....|..|A-3 3FCA ....|A-4 6FFA ....|--- .... ....
....|..|B-3 3FCF ....|A-4 6FFF ....|R-- .... ....
....|..|C-4 3FCA ....|A-4 6FFA ....|A-2 2F.A ....
....|..|A-4 3FCF ....|A-4 6FFF ....|--- .... ....
....|..|B-3 3FCA ....|A-4 6FFA ....|R-- .... ....
....|..|A-3 3FCF ....|A-4 6FFF ....|A-2 2F.7 ....
....|..|A-4 3FCA ....|A-4 6FFA ....|--- .... ....
 A-3|..|C-4 3FCF ....|D-4 6FFF ....|A-2 2C.F ....
....|..|A-3 3FCA ....|A-4 6FFA ....|--- .... ....
....|..|B-3 3FCF ....|D-4 6FFF ....|R-- .... ....
....|..|C-4 3FCA ....|D-4 6FFA ....|A-2 2F.A ....

[Pattern16]
....|..|F-4 3FCF ....|F-4 6FFF ....|F-4 2FFF ....
....|..|B-3 3FCA ....|D-4 6FFA ....|R-- .... ....
....|..|F-3 3FCF ....|F-4 6FFF ....|R-- .... ....
....|..|F-4 3FCA ....|F-4 6FFA ....|F-4 2FFA ....
 F-4|..|A-3 3FCF ....|F-4 6FFF ....|F-2 2A.F ....
....|..|F-3 3FCA ....|F-4 6FFA ....|R-- .... ....
....|..|G-3 3FCF ....|F-4 6FFF ....|F-4 2FFA ....
....|..|A-3 3FCA ....|F-4 6FFA ....|F-2 2F.A ....
....|..|F-4 3FCF ....|F-4 6FFF ....|F-4 2FFF ....
....|..|G-3 3FCA ....|F-4 6FFA ....|R-- .... ....
....|..|F-3 3FCF ....|F-4 6FFF ....|R-- .... ....
....|..|F-4 3FCA ....|F-4 6FFA ....|F-4 2FFA ....
 F-4|..|A-3 3FCF ....|C-5 6FFF ....|F-2 2A.F ....
....|..|F-3 3FCA ....|F-4 6FFA ....|R-- .... ....
....|..|G-3 3FCF ....|B-4 6FFF ....|F-4 2FFA ....
....|..|A-3 3FCA ....|C-5 6FFA ....|F-2 2F.A ....
....|..|G-4 3FCF ....|C-5 6FFF ....|D-4 2FFF ....
....|..|G-3 3FCA ....|B-4 6FFA ....|R-- .... ....
....|..|G-3 3FCF ....|B-4 6FFF ....|R-- .... ....
....|..|G-4 3FCA ....|C-5 6FFA ....|D-4 2FFA ....
 G-4|..|B-3 3FCF ....|G-4 6FFF ....|G-2 2A.F ....
....|..|G-3 3FCA ....|B-4 6FFA ....|R-- .... ....
....|..|A-3 3FCF ....|B-4 6FFF ....|D-4 2FFA ....
....|..|B-3 3FCA ....|G-4 6FFA ....|G-2 2F.A ....
....|..|G-4 3FCF ....|B-4 6FFF ....|D-4 2FFF ....
....|..|A-3 3FCA ....|B-4 6FFA ....|R-- .... ....
....|..|G-3 3FCF ....|C-5 6FFF ....|D-4 2FFF ....
....|..|G-4 3FCA ....|B-4 6FFA ....|D-4 2FFA ....
....|..|A-3 3FCF ....|C-5 6FFF ....|D-4 2FFF ....
....|..|G-3 3FCA ....|C-5 6FFA ....|D-4 2FFA ....
....|..|B-3 3FCF ....|D-5 6FFF ....|D-4 2FFA ....
....|..|A-3 3FCA ....|C-5 6FFA ....|D-4 2FFA ....
....|..|A-4 3FCF ....|D-5 6FFF ....|E-4 2FFF ....
....|..|B-3 3FCA ....|D-5 6FFA ....|R-- .... ....
....|..|B-3 3FCF ....|C-5 6FF7 ....|D-4 2FFF ....
....|..|A-4 3FCA ....|D-5 6FFA ....|E-4 2FFA ....
 A-3|..|C-4 3FCF ....|D-5 6FFF ....|A-2 2C.F ....
....|..|B-3 3FCA ....|--- .... ....|D-4 2FFA ....
....|..|B-3 3FCF ....|A-3 6FFF ....|D-4 2FF7 ....
....|..|C-4 3FCA ....|D-5 6FFA ....|A-2 2F.A ....
....|..|A-4 3FCF ....|E-4 6FFF ....|E-4 2FFF ....
....|..|B-3 3FCA ....|A-3 6FFA ....|R-- .... ....
....|..|A-3 3FCF ....|D-4 6FFF ....|R-- .... ....
....|..|A-4 3FCA ....|E-4 6FFA ....|E-4 2FFA ....
 A-3|..|C-4 3FCF ....|E-4 6FFF ....|A-2 2C.F ....
....|..|A-3 3FCA ....|D-4 6FFA ....|R-- .... ....
....|..|B-3 3FCF ....|D-4 6FFF ....|D-4 2FF7 ....
....|..|C-4 3FCA ....|E-4 6FFA ....|A-2 2F.A ....
....|..|A-4 3FCF ....|C-4 6FFF ....|R-- .... ....
....|..|B-3 3FCA ....|D-4 6FFA ....|R-- .... ....
....|..|A-3 3FCF ....|C-4 6FFF ....|A-2 2F.7 ....
....|..|A-4 3FCA ....|C-4 6FFA ....|--- .... ....
 A-3|..|C-4 3FCF ....|C-4 6FFF ....|A-2 2C.F ....
....|..|A-3 3FCA ....|C-4 6FFA ....|--- .... ....
....|..|B-3 3FCF ....|C-4 6FFF ....|R-- .... ....
....|..|C-4 3FCA ....|C-4 6FFA ....|A-2 2F.A ....
....|..|A-4 3FCF ....|E-4 6FFF ....|--- .... ....
....|..|B-3 3FCA ....|C-4 6FFA ....|R-- .... ....
....|..|A-3 3FCF ....|E-4 6FFF ....|A-2 2F.7 ....
....|..|A-4 3FCA ....|E-4 6FFA ....|--- .... ....
 A-3|..|C-4 3FCF ....|E-4 6FFF ....|A-2 2C.F ....
....|..|A-3 3FCA ....|E-4 6FFA ....|--- .... ....
....|..|B-3 3FCF ....|D-4 6FFF ....|R-- .... ....
....|..|C-4 3FCA ....|E-4 6FFA ....|A-2 2F.A ....

[Pattern18]
....|..|F-4 3FCF ....|F-4 6FFF ....|F-4 2FFF ....
....|..|B-3 3FCA ....|D-4 6FFA ....|R-- .... ....
....|..|F-3 3FCF ....|F-4 6FFF ....|R-- .... ....
....|..|F-4 3FCA ....|F-4 6FFA ....|F-4 2FFA ....
 F-4|..|A-3 3FCF ....|F-4 6FFF ....|F-2 2A.F ....
....|..|F-3 3FCA ....|F-4 6FFA ....|R-- .... ....
....|..|G-3 3FCF ....|F-4 6FFF ....|F-4 2FFA ....
....|..|A-3 3FCA ....|F-4 6FFA ....|F-2 2F.A ....
....|..|F-4 3FCF ....|F-4 6FFF ....|F-4 2FFF ....
....|..|G-3 3FCA ....|F-4 6FFA ....|R-- .... ....
....|..|F-3 3FCF ....|F-4 6FFF ....|R-- .... ....
....|..|F-4 3FCA ....|F-4 6FFA ....|F-4 2FFA ....
 F-4|..|A-3 3FCF ....|C-5 6FFF ....|F-2 2A.F ....
....|..|F-3 3FCA ....|F-4 6FFA ....|R-- .... ....
....|..|G-3 3FCF ....|B-4 6FFF ....|F-4 2FFA ....
....|..|A-3 3FCA ....|C-5 6FFA ....|F-2 2F.A ....
....|..|G-4 3FCF ....|C-5 6FFF ....|D-4 2FFF ....
....|..|G-3 3FCA ....|B-4 6FFA ....|R-- .... ....
....|..|G-3 3FCF ....|B-4 6FFF ....|R-- .... ....
....|..|G-4 3FCA ....|C-5 6FFA ....|D-4 2FFA ....
 G-4|..|B-3 3FCF ....|G-4 6FFF ....|G-2 2A.F ....
....|..|G-3 3FCA ....|B-4 6FFA ....|R-- .... ....
....|..|A-3 3FCF ....|B-4 6FFF ....|D-4 2FFA ....
....|..|B-3 3FCA ....|G-4 6FFA ....|G-2 2F.A ....
....|..|G-4 3FCF ....|B-4 6FFF ....|D-4 2FFF ....
....|..|A-3 3FCA ....|B-4 6FFA ....|R-- .... ....
....|..|G-3 3FCF ....|C-5 6FFF ....|D-4 2FFF ....
....|..|G-4 3FCA ....|B-4 6FFA ....|D-4 2FFA ....
....|..|A-3 3FCF ....|C-5 6FFF ....|D-4 2FFF ....
....|..|G-3 3FCA ....|C-5 6FFA ....|D-4 2FFA ....
....|..|B-3 3FCF ....|D-5 6FFF ....|D-4 2FFA ....
....|..|A-3 3FCA ....|C-5 6FFA ....|D-4 2FFA ....
....|..|G-3 3FC7 ....|C-5 6FF7 ....|E-4 2FFF ....
....|..|B-3 3FCA ....|D-5 6FFA ....|R-- .... ....
....|..|A-3 3FC7 ....|C-5 6FF7 ....|D-4 2FFF ....
....|..|--- .... ....|--- .... ....|E-4 2FFA ....
 A-3|..|B-3 3FC7 ....|A-2 2C.F ....|A-2 2C.F ....
....|..|--- .... ....|--- .... ....|D-4 2FFA ....
....|..|R-- .... ....|R-- .... ....|D-4 2FF7 ....
....|..|--- .... ....|A-2 2F.A ....|A-2 2F.A ....
....|..|--- .... ....|--- .... ....|E-4 2FFF ....
....|..|R-- .... ....|R-- .... ....|R-- .... ....
....|..|--- .... ....|A-2 2F.7 ....|A-3 2FFF ....
....|..|--- .... ....|--- .... ....|E-4 2FFA ....
 A-3|..|R-- .... ....|A-2 2C.F ....|A-2 2C.F ....
....|..|--- .... ....|--- .... ....|A-3 2FFA ....
....|..|--- .... ....|R-- .... ....|D-4 2FF7 ....
....|..|--- .... ....|A-2 2F.A ....|A-2 2F.A ....
....|..|--- .... ....|--- .... ....|A-3 2FFA ....
....|..|--- .... ....|R-- .... ....|R-- .... ....
....|..|--- .... ....|A-2 2F.7 ....|R-- .... ....
....|..|--- .... ....|--- .... ....|--- .... ....
 A-3|..|--- .... ....|A-2 2C.F ....|A-2 2C.F ....
....|..|--- .... ....|--- .... ....|--- .... ....
....|..|--- .... ....|R-- .... ....|A-3 2FF7 ....
....|..|--- .... ....|A-2 2F.A ....|A-2 2F.A ....
....|..|--- .... ....|--- .... ....|R-- .... ....
....|..|--- .... ....|R-- .... ....|R-- .... ....
....|..|--- .... ....|A-2 2F.7 ....|A-2 2F.7 ....
....|..|--- .... ....|--- .... ....|--- .... ....
 A-3|..|--- .... ....|A-2 2C.F ....|A-2 2C.F ....
....|..|--- .... ....|--- .... ....|--- .... ....
....|..|--- .... ....|R-- .... ....|R-- .... ....
....|..|--- .... ....|A-2 2F.A ....|A-2 2F.A ....

[Pattern19]
....|..|--- .... ....|--- .... ....|C-4 2FFF ....
....|..|--- .... ....|R-- .... ....|R-- .... ....
....|..|--- .... ....|A-2 2F.7 ....|R-- .... ....
....|..|--- .... ....|--- .... ....|C-4 2FFA ....
 F-4|..|--- .... ....|F-2 2A.F ....|F-2 2A.F ....
....|..|--- .... ....|--- .... ....|R-- .... ....
....|..|--- .... ....|R-- .... ....|C-4 2FFF ....
....|..|--- .... ....|F-2 2F.A ....|F-2 2F.A ....
....|..|--- .... ....|--- .... ....|R-- .... ....
....|..|--- .... ....|R-- .... ....|C-4 2FFA ....
....|..|--- .... ....|F-2 2F.7 ....|F-2 2F.7 ....
....|..|--- .... ....|--- .... ....|R-- .... ....
 F-4|..|--- .... ....|F-2 2A.F ....|C-4 2FFF ....
....|..|--- .... ....|--- .... ....|--- .... ....
....|..|--- .... ....|R-- .... ....|R-- .... ....
....|..|--- .... ....|F-2 2F.A ....|C-4 2FFA ....
....|..|--- .... ....|--- .... ....|D-4 2FFF ....
....|..|--- .... ....|R-- .... ....|R-- .... ....
....|..|--- .... ....|F-2 2F.7 ....|C-4 2FF7 ....
....|..|--- .... ....|--- .... ....|D-4 2FFA ....
 G-4|..|--- .... ....|G-2 2A.F ....|G-2 2A.F ....
....|..|--- .... ....|--- .... ....|R-- .... ....
....|..|--- .... ....|R-- .... ....|D-4 2FFF ....
....|..|--- .... ....|G-2 2F.A ....|G-2 2F.A ....
....|..|--- .... ....|--- .... ....|C-4 2FF7 ....
....|..|--- .... ....|R-- .... ....|D-4 2FFA ....
....|..|--- .... ....|G-2 2F.7 ....|G-2 2F.7 ....
....|..|--- .... ....|--- .... ....|R-- .... ....
 G-4|..|--- .... ....|G-2 2A.F ....|D-4 2FFF ....
....|..|--- .... ....|--- .... ....|--- .... ....
....|..|--- .... ....|R-- .... ....|R-- .... ....
....|..|--- .... ....|G-2 2F.A ....|D-4 2FFA ....
....|..|--- .... ....|--- .... ....|--- .... ....
....|..|--- .... ....|R-- .... ....|R-- .... ....
....|..|--- .... ....|G-2 2F.7 ....|D-4 2FF7 ....
....|..|--- .... ....|--- .... ....|--- .... ....
....|..|--- .... ....|R-- .... ....|R-- .... ....
....|..|--- .... ....|--- .... ....|--- .... ....
....|..|--- .... ....|--- .... ....|--- .... ....
....|..|--- .... ....|--- .... ....|--- .... ....
....|..|--- .... ....|--- .... ....|D-4 2FF7 ....
....|..|--- .... ....|--- .... ....|--- .... ....
....|..|--- .... ....|--- .... ....|R-- .... ....
....|..|--- .... ....|--- .... ....|--- .... ....
....|..|--- .... ....|--- .... ....|--- .... ....
....|..|--- .... ....|--- .... ....|--- .... ....
....|..|--- .... ....|--- .... ....|--- .... ....
....|..|--- .... ....|--- .... ....|--- .... ....
....|..|--- .... ....|--- .... ....|--- .... ....
....|..|--- .... ....|--- .... ....|--- .... ....
....|..|--- .... ....|--- .... ....|--- .... ....
....|..|--- .... ....|--- .... ....|--- .... ....
....|..|--- .... ....|--- .... ....|--- .... ....
....|..|--- .... ....|--- .... ....|--- .... ....
....|..|--- .... ....|--- .... ....|--- .... ....
....|..|--- .... ....|--- .... ....|--- .... ....
....|..|--- .... ....|--- .... ....|--- .... ....
....|..|--- .... ....|--- .... ....|--- .... ....
....|..|--- .... ....|--- .... ....|--- .... ....
....|..|--- .... ....|--- .... ....|--- .... ....
....|..|--- .... ....|--- .... ....|--- .... ....
....|..|--- .... ....|--- .... ....|--- .... ....
....|..|--- .... ....|--- .... ....|--- .... ....
....|..|--- .... ....|--- .... ....|--- .... ....

[Pattern20]
....|..|--- .... ....|--- .... ....|--- .... ....
....|..|--- .... ....|--- .... ....|--- .... ....
....|..|--- .... ....|--- .... ....|--- .... ....
....|..|--- .... ....|--- .... ....|--- .... ....
....|..|--- .... ....|--- .... ....|--- .... ....
....|..|--- .... ....|--- .... ....|--- .... ....
....|..|--- .... ....|--- .... ....|--- .... ....
....|..|--- .... ....|--- .... ....|--- .... ....
....|..|--- .... ....|--- .... ....|--- .... ....
....|..|--- .... ....|--- .... ....|--- .... ....
....|..|--- .... ....|--- .... ....|--- .... ....
....|..|--- .... ....|--- .... ....|--- .... ....
....|..|--- .... ....|--- .... ....|--- .... ....
....|..|--- .... ....|--- .... ....|--- .... ....
....|..|--- .... ....|--- .... ....|--- .... ....
....|..|--- .... ....|--- .... ....|--- .... ....
....|..|--- .... ....|--- .... ....|--- .... ....
....|..|--- .... ....|--- .... ....|--- .... ....
....|..|--- .... ....|--- .... ....|--- .... ....
....|..|--- .... ....|--- .... ....|--- .... ....
....|..|--- .... ....|--- .... ....|--- .... ....
....|..|--- .... ....|--- .... ....|--- .... ....
....|..|--- .... ....|--- .... ....|--- .... ....
....|..|--- .... ....|--- .... ....|--- .... ....
....|..|--- .... ....|--- .... ....|--- .... ....
....|..|--- .... ....|--- .... ....|--- .... ....
....|..|--- .... ....|--- .... ....|--- .... ....
....|..|--- .... ....|--- .... ....|--- .... ....
....|..|--- .... ....|--- .... ....|--- .... ....
....|..|--- .... ....|--- .... ....|--- .... ....
....|..|--- .... ....|--- .... ....|--- .... ....
....|..|--- .... ....|--- .... ....|--- .... ....
....|..|A-3 3FCF ....|A-3 4FEF ....|A-3 2FFF ....
....|..|A-3 UF1F ....|--- .... ....|--- .... ....
....|..|B-3 3FCF ....|--- .... ....|R-- .... ....
....|..|A-3 3FCA ....|A-3 4FEA ....|A-3 2FFA ....
....|..|C-4 3FCF ....|E-4 4FEF ....|E-4 2FFF ....
....|..|B-3 3FCA ....|--- .... ....|R-- .... ....
....|..|A-3 3FCF ....|D-4 4FEF ....|D-4 2FFF ....
....|..|C-4 3FCA ....|E-4 4FEA ....|E-4 2FFA ....
....|..|B-3 3FCF ....|--- .... ....|E-4 2FFF ....
....|..|A-3 3FCA ....|D-4 4FEA ....|D-4 2FFA ....
....|..|C-4 3FCF ....|C-4 4FEF ....|D-4 2FFF ....
....|..|B-3 3FCA ....|--- .... ....|E-4 2FFA ....
 A-3|..|A-3 3FCF ....|A-2 2C.F ....|A-2 2C.F ....
....|..|C-4 3FCA ....|C-4 4FEA ....|D-4 2FFA ....
....|..|B-3 3FCF ....|R-- .... ....|C-4 2FFF ....
....|..|A-3 3FCA ....|A-2 2F.A ....|A-2 2F.A ....
....|..|C-4 3FCF ....|A-3 4FEF ....|A-3 2FFF ....
....|..|B-3 3FCA ....|R-- .... ....|C-4 2FFA ....
....|..|A-3 3FCF ....|A-2 2F.7 ....|A-2 2F.7 ....
....|..|C-4 3FCA ....|A-3 4FEA ....|A-3 2FFA ....
....|..|B-3 3FCF ....|E-4 4FEF ....|E-4 2FFF ....
....|..|A-3 3FCA ....|--- .... ....|R-- .... ....
....|..|C-4 3FCF ....|D-4 4FEF ....|D-4 2FFF ....
....|..|B-3 3FCA ....|E-4 4FEA ....|E-4 2FFA ....
....|..|A-3 3FCF ....|--- .... ....|E-4 2FFF ....
....|..|C-4 3FCA ....|D-4 4FEA ....|D-4 2FFA ....
....|..|B-3 3FCF ....|C-4 4FEF ....|D-4 2FFF ....
....|..|A-3 3FCA ....|--- .... ....|E-4 2FFA ....
 A-3|..|C-4 3FCF ....|A-2 2C.F ....|A-2 2C.F ....
....|..|B-3 3FCA ....|C-4 4FEA ....|D-4 2FFA ....
....|..|A-3 3FCF ....|R-- .... ....|C-4 2FFF ....
....|..|C-4 3FCA ....|A-2 2F.A ....|A-2 2F.A ....

[Pattern21]
....|..|C-4 3FCF ....|G-3 4FEF ....|G-3 2FFF ....
....|..|A-3 3FCA ....|R-- .... ....|C-4 2FFA ....
....|..|D-4 3FCF ....|A-2 2F.7 ....|A-2 2F.7 ....
....|..|C-4 3FCA ....|G-3 4FEA ....|G-3 2FFA ....
....|..|E-4 3FCF ....|E-4 4FEF ....|E-4 2FFF ....
....|..|D-4 3FCA ....|--- .... ....|R-- .... ....
....|..|C-4 3FCF ....|D-4 4FEF ....|D-4 2FFF ....
....|..|E-4 3FCA ....|E-4 4FEA ....|E-4 2FFA ....
....|..|D-4 3FCF ....|--- .... ....|E-4 2FFF ....
....|..|C-4 3FCA ....|D-4 4FEA ....|D-4 2FFA ....
....|..|E-4 3FCF ....|C-4 4FEF ....|D-4 2FFF ....
....|..|D-4 3FCA ....|--- .... ....|E-4 2FFA ....
 C-3|..|C-4 3FCF ....|C-3 2C.F ....|C-3 2C.F ....
....|..|E-4 3FCA ....|C-4 4FEA ....|D-4 2FFA ....
....|..|D-4 3FCF ....|D-4 4FEF ....|D-4 2FFF ....
....|..|C-4 3FCA ....|C-3 2F.A ....|C-3 2F.A ....
....|..|G-3 3FCF ....|C-4 4FE7 ....|D-4 2FF7 ....
....|..|D-4 3FCA ....|D-4 4FEA ....|D-4 2FFA ....
....|..|A-3 3FCF ....|C-3 2F.7 ....|D-4 2FFF ....
....|..|G-3 3FCA ....|--- .... ....|R-- .... ....
....|..|B-3 3FCF ....|B-3 4FEF ....|B-3 2FFF ....
....|..|A-3 3FCA ....|--- .... ....|D-4 2FFA ....
....|..|G-3 3FCF ....|R-- .... ....|D-4 2FF7 ....
....|..|B-3 3FCA ....|B-3 4FEA ....|B-3 2FFA ....
....|..|A-3 3FCF ....|A-3 4FEF ....|B-3 2FFF ....
....|..|G-3 3FCA ....|R-- .... ....|R-- .... ....
....|..|B-3 3FCF ....|B-3 4FE7 ....|B-3 2FF7 ....
....|..|A-3 3FCA ....|A-3 4FEA ....|B-3 2FFA ....
....|..|A-3 3FCF ....|G-3 4FEF ....|A-3 2FFF ....
....|..|B-3 3FCA ....|--- .... ....|R-- .... ....
....|..|G-3 3FCF ....|R-- .... ....|D-4 2FF7 ....
....|..|A-3 3FCA ....|G-3 4FEA ....|A-3 2FFA ....
....|..|A-3 3FCF ....|A-3 4FEF ....|A-3 2FFF ....
....|..|G-3 3FCA ....|R-- .... ....|R-- .... ....
....|..|B-3 3FCF ....|G-3 4FE7 ....|A-3 2FFA ....
....|..|A-3 3FCA ....|A-3 4FEA ....|A-3 2FFA ....
....|..|C-4 3FCF ....|E-4 4FEF ....|E-4 2FFF ....
....|..|B-3 3FCA ....|--- .... ....|R-- .... ....
....|..|A-3 3FCF ....|D-4 4FEF ....|D-4 2FFF ....
....|..|C-4 3FCA ....|E-4 4FEA ....|E-4 2FFA ....
....|..|B-3 3FCF ....|--- .... ....|E-4 2FFF ....
....|..|A-3 3FCA ....|D-4 4FEA ....|D-4 2FFA ....
....|..|C-4 3FCF ....|C-4 4FEF ....|D-4 2FFF ....
....|..|B-3 3FCA ....|--- .... ....|E-4 2FFA ....
 A-3|..|A-3 3FCF ....|A-2 2C.F ....|A-2 2C.F ....
....|..|C-4 3FCA ....|C-4 4FEA ....|D-4 2FFA ....
....|..|B-3 3FCF ....|R-- .... ....|C-4 2FFF ....
....|..|A-3 3FCA ....|A-2 2F.A ....|A-2 2F.A ....
....|..|C-4 3FCF ....|A-3 4FEF ....|A-3 2FFF ....
....|..|B-3 3FCA ....|R-- .... ....|C-4 2FFA ....
....|..|A-3 3FCF ....|A-2 2F.7 ....|A-2 2F.7 ....
....|..|C-4 3FCA ....|A-3 4FEA ....|A-3 2FFA ....
....|..|B-3 3FCF ....|E-4 4FEF ....|E-4 2FFF ....
....|..|A-3 3FCA ....|--- .... ....|R-- .... ....
....|..|C-4 3FCF ....|D-4 4FEF ....|D-4 2FFF ....
....|..|B-3 3FCA ....|E-4 4FEA ....|E-4 2FFA ....
....|..|A-3 3FCF ....|--- .... ....|E-4 2FFF ....
....|..|C-4 3FCA ....|D-4 4FEA ....|D-4 2FFA ....
....|..|B-3 3FCF ....|C-4 4FEF ....|D-4 2FFF ....
....|..|A-3 3FCA ....|--- .... ....|E-4 2FFA ....
 A-3|..|C-4 3FCF ....|A-2 2C.F ....|A-2 2C.F ....
....|..|B-3 3FCA ....|C-4 4FEA ....|D-4 2FFA ....
....|..|A-3 3FCF ....|R-- .... ....|C-4 2FFF ....
....|..|C-4 3FCA ....|A-2 2F.A ....|A-2 2F.A ....

[Pattern22]
....|..|C-4 3FCF ....|G-3 4FEF ....|G-3 2FFF ....
....|..|A-3 3FCA ....|R-- .... ....|C-4 2FFA ....
....|..|D-4 3FCF ....|A-2 2F.7 ....|A-2 2F.7 ....
....|..|C-4 3FCA ....|G-3 4FEA ....|G-3 2FFA ....
....|..|E-4 3FCF ....|E-4 4FEF ....|E-4 2FFF ....
....|..|D-4 3FCA ....|--- .... ....|R-- .... ....
....|..|C-4 3FCF ....|D-4 4FEF ....|D-4 2FFF ....
....|..|E-4 3FCA ....|E-4 4FEA ....|E-4 2FFA ....
....|..|D-4 3FCF ....|--- .... ....|E-4 2FFF ....
....|..|C-4 3FCA ....|D-4 4FEA ....|D-4 2FFA ....
....|..|E-4 3FCF ....|C-4 4FEF ....|D-4 2FFF ....
....|..|D-4 3FCA ....|--- .... ....|E-4 2FFA ....
 C-3|..|C-4 3FCF ....|C-3 2C.F ....|C-3 2C.F ....
....|..|E-4 3FCA ....|C-4 4FEA ....|D-4 2FFA ....
....|..|D-4 3FCF ....|D-4 4FEF ....|D-4 2FFF ....
....|..|C-4 3FCA ....|C-3 2F.A ....|C-3 2F.A ....
....|..|G-3 3FCF ....|C-4 4FE7 ....|D-4 2FFF ....
....|..|D-4 3FCA ....|D-4 4FEA ....|D-4 2FFA ....
....|..|A-3 3FCF ....|C-3 2F.7 ....|D-4 2FFF ....
....|..|G-3 3FCA ....|--- .... ....|D-4 2FFA ....
 G-4|..|B-3 3FCF ....|G-2 2A.F ....|G-2 2A.F ....
....|..|A-3 3FCA ....|--- .... ....|D-4 2FFA ....
....|..|G-3 3FCF ....|R-- .... ....|D-4 2FF7 ....
....|..|B-3 3FCA ....|G-2 2F.A ....|G-2 2F.A ....
....|..|A-3 3FCF ....|--- .... ....|D-4 2FFA ....
....|..|G-3 3FCA ....|R-- .... ....|R-- .... ....
....|..|B-3 3FCF ....|G-2 2F.7 ....|G-2 2F.7 ....
....|..|A-3 3FCA ....|--- .... ....|--- .... ....
 G-4|..|A-3 3FCF ....|G-2 2A.F ....|G-2 2A.F ....
....|..|B-3 3FCA ....|--- .... ....|--- .... ....
....|..|G-3 3FCF ....|R-- .... ....|D-4 2FF7 ....
....|..|A-3 3FCA ....|G-2 2F.A ....|G-2 2F.A ....
....|..|A-3 3FCF ....|D-4 4FEF ....|A-3 2FFF ....
....|..|G-3 3FCA ....|R-- .... ....|R-- .... ....
....|..|B-3 3FCF ....|G-2 2F.7 ....|R-- .... ....
....|..|A-3 3FCA ....|D-4 4FEA ....|A-3 2FFA ....
....|..|C-4 3FCF ....|E-4 4FEF ....|E-4 2FFF ....
....|..|B-3 3FCA ....|--- .... ....|R-- .... ....
....|..|A-3 3FCF ....|D-4 4FEF ....|D-4 2FFF ....
....|..|C-4 3FCA ....|E-4 4FEA ....|E-4 2FFA ....
....|..|B-3 3FCF ....|--- .... ....|E-4 2FFF ....
....|..|A-3 3FCA ....|D-4 4FEA ....|D-4 2FFA ....
....|..|C-4 3FCF ....|C-4 4FEF ....|D-4 2FFF ....
....|..|B-3 3FCA ....|--- .... ....|E-4 2FFA ....
 A-3|..|A-3 3FCF ....|A-2 2C.F ....|A-2 2C.F ....
....|..|C-4 3FCA ....|C-4 4FEA ....|D-4 2FFA ....
....|..|B-3 3FCF ....|R-- .... ....|C-4 2FFF ....
....|..|A-3 3FCA ....|A-2 2F.A ....|A-2 2F.A ....
....|..|C-4 3FCF ....|A-3 4FEF ....|A-3 2FFF ....
....|..|B-3 3FCA ....|R-- .... ....|C-4 2FFA ....
....|..|A-3 3FCF ....|A-2 2F.7 ....|A-2 2F.7 ....
....|..|C-4 3FCA ....|A-3 4FEA ....|A-3 2FFA ....
....|..|B-3 3FCF ....|E-4 4FEF ....|E-4 2FFF ....
....|..|A-3 3FCA ....|--- .... ....|R-- .... ....
....|..|C-4 3FCF ....|D-4 4FEF ....|D-4 2FFF ....
....|..|B-3 3FCA ....|E-4 4FEA ....|E-4 2FFA ....
....|..|A-3 3FCF ....|--- .... ....|E-4 2FFF ....
....|..|C-4 3FCA ....|D-4 4FEA ....|D-4 2FFA ....
....|..|B-3 3FCF ....|C-4 4FEF ....|D-4 2FFF ....
....|..|A-3 3FCA ....|--- .... ....|E-4 2FFA ....
 A-3|..|C-4 3FCF ....|A-2 2C.F ....|A-2 2C.F ....
....|..|B-3 3FCA ....|C-4 4FEA ....|D-4 2FFA ....
....|..|A-3 3FCF ....|R-- .... ....|C-4 2FFF ....
....|..|C-4 3FCA ....|A-2 2F.A ....|A-2 2F.A ....

[Pattern24]
....|..|C-4 3FCF ....|G-3 4FEF ....|G-3 2FFF ....
....|..|A-3 3FCA ....|R-- .... ....|C-4 2FFA ....
....|..|D-4 3FCF ....|A-2 2F.7 ....|A-2 2F.7 ....
....|..|C-4 3FCA ....|G-3 4FEA ....|G-3 2FFA ....
....|..|E-4 3FCF ....|E-4 4FEF ....|E-4 2FFF ....
....|..|D-4 3FCA ....|--- .... ....|R-- .... ....
....|..|C-4 3FCF ....|D-4 4FEF ....|D-4 2FFF ....
....|..|E-4 3FCA ....|E-4 4FEA ....|E-4 2FFA ....
....|..|D-4 3FCF ....|--- .... ....|E-4 2FFF ....
....|..|C-4 3FCA ....|D-4 4FEA ....|D-4 2FFA ....
....|..|E-4 3FCF ....|C-4 4FEF ....|D-4 2FFF ....
....|..|D-4 3FCA ....|--- .... ....|E-4 2FFA ....
 C-3|..|C-4 3FCF ....|C-3 2C.F ....|C-3 2C.F ....
....|..|E-4 3FCA ....|C-4 4FEA ....|D-4 2FFA ....
....|..|D-4 3FCF ....|D-4 4FEF ....|D-4 2FFF ....
....|..|C-4 3FCA ....|C-3 2F.A ....|C-3 2F.A ....
....|..|G-3 3FCF ....|C-4 4FE7 ....|D-4 2FFF ....
....|..|D-4 3FCA ....|D-4 4FEA ....|D-4 2FFA ....
....|..|A-3 3FCF ....|C-3 2F.7 ....|D-4 2FFF ....
....|..|G-3 3FCA ....|--- .... ....|D-4 2FFA ....
 G-4|..|B-3 3FCF ....|G-2 2A.F ....|G-2 2A.F ....
....|..|A-3 3FCA ....|--- .... ....|D-4 2FFA ....
....|..|G-3 3FCF ....|R-- .... ....|D-4 2FF7 ....
....|..|B-3 3FCA ....|G-2 2F.A ....|G-2 2F.A ....
....|..|A-3 3FCF ....|--- .... ....|A-3 2FFF ....
....|..|G-3 3FCA ....|R-- .... ....|R-- .... ....
....|..|B-3 3FCF ....|G-2 2F.7 ....|G-2 2F.7 ....
....|..|A-3 3FCA ....|--- .... ....|A-3 2FFA ....
 G-4|..|A-3 3FCF ....|G-2 2A.F ....|B-3 2FFF ....
....|..|B-3 3FCA ....|--- .... ....|--- .... ....
....|..|G-3 3FCF ....|R-- .... ....|D-4 2FF7 ....
....|..|A-3 3FCA ....|G-2 2F.A ....|B-3 2FFA ....
....|..|C-4 3FCF ....|D-4 4FEF ....|C-4 2FFF ....
....|..|G-3 3FCA ....|R-- .... ....|R-- .... ....
....|..|D-4 3FCF ....|G-2 2F.7 ....|B-3 2FFF ....
....|..|C-4 3FCA ....|D-4 4FEA ....|C-4 2FFA ....
....|..|D#4 3FCF ....|G-4 4FEF ....|G-4 2FFF ....
....|..|D-4 3FCA ....|--- .... ....|B-3 2FFA ....
....|..|C-4 3FCF ....|F-4 4FEF ....|F-4 2FFF ....
....|..|D#4 3FCA ....|G-4 4FEA ....|G-4 2FFA ....
....|..|D-4 3FCF ....|--- .... ....|G-4 2FFF ....
....|..|C-4 3FCA ....|F-4 4FEA ....|F-4 2FFA ....
....|..|D#4 3FCF ....|D#4 4FEF ....|F-4 2FFF ....
....|..|D-4 3FCA ....|--- .... ....|G-4 2FFA ....
 C-3|..|C-4 3FCF ....|C-3 2C.F ....|C-3 2C.F ....
....|..|D#4 3FCA ....|D#4 4FEA ....|F-4 2FFA ....
....|..|D-4 3FCF ....|R-- .... ....|D#4 2FFF ....
....|..|C-4 3FCA ....|C-3 2F.A ....|C-3 2F.A ....
....|..|D#4 3FCF ....|C-4 4FEF ....|C-4 2FFF ....
....|..|D-4 3FCA ....|R-- .... ....|D#4 2FFA ....
....|..|C-4 3FCF ....|C-3 2F.7 ....|C-3 2F.7 ....
....|..|D#4 3FCA ....|C-4 4FEA ....|C-4 2FFA ....
....|..|D-4 3FCF ....|G-4 4FEF ....|G-4 2FFF ....
....|..|C-4 3FCA ....|--- .... ....|R-- .... ....
....|..|D#4 3FCF ....|F-4 4FEF ....|F-4 2FFF ....
....|..|D-4 3FCA ....|G-4 4FEA ....|G-4 2FFA ....
....|..|C-4 3FCF ....|--- .... ....|G-4 2FFF ....
....|..|D#4 3FCA ....|F-4 4FEA ....|F-4 2FFA ....
....|..|D-4 3FCF ....|D#4 4FEF ....|F-4 2FFF ....
....|..|C-4 3FCA ....|--- .... ....|G-4 2FFA ....
 C-3|..|D#4 3FCF ....|C-3 2C.F ....|C-3 2C.F ....
....|..|D-4 3FCA ....|D#4 4FEA ....|F-4 2FFA ....
....|..|C-4 3FCF ....|R-- .... ....|D#4 2FFF ....
....|..|D#4 3FCA ....|C-3 2F.A ....|C-3 2F.A ....

[Pattern25]
....|..|D#4 3FCF ....|A#3 4FEF ....|A#3 2FFF ....
....|..|C-4 3FCA ....|R-- .... ....|D#4 2FFA ....
....|..|F-4 3FCF ....|C-3 2F.7 ....|C-3 2F.7 ....
....|..|D#4 3FCA ....|A#3 4FEA ....|A#3 2FFA ....
....|..|G-4 3FCF ....|G-4 4FEF ....|G-4 2FFF ....
....|..|F-4 3FCA ....|--- .... ....|R-- .... ....
....|..|D#4 3FCF ....|F-4 4FEF ....|F-4 2FFF ....
....|..|G-4 3FCA ....|G-4 4FEA ....|G-4 2FFA ....
....|..|F-4 3FCF ....|--- .... ....|G-4 2FFF ....
....|..|D#4 3FCA ....|F-4 4FEA ....|F-4 2FFA ....
....|..|G-4 3FCF ....|D#4 4FEF ....|F-4 2FFF ....
....|..|F-4 3FCA ....|--- .... ....|G-4 2FFA ....
 D#4|..|D#4 3FCF ....|D#3 2C.F ....|D#3 2C.F ....
....|..|G-4 3FCA ....|D#4 4FEA ....|F-4 2FFA ....
....|..|F-4 3FCF ....|F-4 4FEF ....|F-4 2FFF ....
....|..|D#4 3FCA ....|D#3 2F.A ....|D#3 2F.A ....
....|..|A#3 3FCF ....|D#4 4FE7 ....|F-4 2FF7 ....
....|..|F-4 3FCA ....|F-4 4FEA ....|F-4 2FFA ....
....|..|C-4 3FCF ....|D#3 2F.7 ....|F-4 2FFF ....
....|..|A#3 3FCA ....|--- .... ....|R-- .... ....
....|..|D-4 3FCF ....|D-4 4FEF ....|D-4 2FFF ....
....|..|C-4 3FCA ....|--- .... ....|F-4 2FFA ....
....|..|A#3 3FCF ....|R-- .... ....|F-4 2FF7 ....
....|..|D-4 3FCA ....|D-4 4FEA ....|D-4 2FFA ....
....|..|C-4 3FCF ....|C-4 4FEF ....|D-4 2FFF ....
....|..|A#3 3FCA ....|R-- .... ....|R-- .... ....
....|..|D-4 3FCF ....|D-4 4FE7 ....|D-4 2FF7 ....
....|..|C-4 3FCA ....|C-4 4FEA ....|D-4 2FFA ....
....|..|C-4 3FCF ....|A#3 4FEF ....|C-4 2FFF ....
....|..|D-4 3FCA ....|--- .... ....|R-- .... ....
....|..|A#3 3FCF ....|R-- .... ....|F-4 2FF7 ....
....|..|C-4 3FCA ....|A#3 4FEA ....|C-4 2FFA ....
....|..|C-4 3FCF ....|C-4 4FEF ....|C-4 2FFF ....
....|..|A#3 3FCA ....|R-- .... ....|R-- .... ....
....|..|D-4 3FCF ....|A#3 4FE7 ....|C-4 2FFA ....
....|..|C-4 3FCA ....|C-4 4FEA ....|C-4 2FFA ....
....|..|D#4 3FCF ....|G-4 4FEF ....|G-4 2FFF ....
....|..|D-4 3FCA ....|--- .... ....|R-- .... ....
....|..|C-4 3FCF ....|F-4 4FEF ....|F-4 2FFF ....
....|..|D#4 3FCA ....|G-4 4FEA ....|G-4 2FFA ....
....|..|D-4 3FCF ....|--- .... ....|G-4 2FFF ....
....|..|C-4 3FCA ....|F-4 4FEA ....|F-4 2FFA ....
....|..|D#4 3FCF ....|D#4 4FEF ....|F-4 2FFF ....
....|..|D-4 3FCA ....|--- .... ....|G-4 2FFA ....
 C-3|..|C-4 3FCF ....|C-3 2C.F ....|C-3 2C.F ....
....|..|D#4 3FCA ....|D#4 4FEA ....|F-4 2FFA ....
....|..|D-4 3FCF ....|R-- .... ....|D#4 2FFF ....
....|..|C-4 3FCA ....|C-3 2F.A ....|C-3 2F.A ....
....|..|D#4 3FCF ....|C-4 4FEF ....|C-4 2FFF ....
....|..|D-4 3FCA ....|R-- .... ....|D#4 2FFA ....
....|..|C-4 3FCF ....|C-3 2F.7 ....|C-3 2F.7 ....
....|..|D#4 3FCA ....|C-4 4FEA ....|C-4 2FFA ....
....|..|D-4 3FCF ....|G-4 4FEF ....|G-4 2FFF ....
....|..|C-4 3FCA ....|--- .... ....|R-- .... ....
....|..|D#4 3FCF ....|F-4 4FEF ....|F-4 2FFF ....
....|..|D-4 3FCA ....|G-4 4FEA ....|G-4 2FFA ....
....|..|C-4 3FCF ....|--- .... ....|G-4 2FFF ....
....|..|D#4 3FCA ....|F-4 4FEA ....|F-4 2FFA ....
....|..|D-4 3FCF ....|D#4 4FEF ....|F-4 2FFF ....
....|..|C-4 3FCA ....|--- .... ....|G-4 2FFA ....
 C-3|..|D#4 3FCF ....|C-3 2C.F ....|C-3 2C.F ....
....|..|D-4 3FCA ....|D#4 4FEA ....|F-4 2FFA ....
....|..|C-4 3FCF ....|R-- .... ....|D#4 2FFF ....
....|..|D#4 3FCA ....|C-3 2F.A ....|C-3 2F.A ....

[Pattern26]
....|..|D#4 3FCF ....|A#3 4FEF ....|A#3 2FFF ....
....|..|C-4 3FCA ....|R-- .... ....|D#4 2FFA ....
....|..|F-4 3FCF ....|C-3 2F.7 ....|C-3 2F.7 ....
....|..|D#4 3FCA ....|A#3 4FEA ....|A#3 2FFA ....
....|..|G-4 3FCF ....|G-4 4FEF ....|G-4 2FFF ....
....|..|F-4 3FCA ....|--- .... ....|R-- .... ....
....|..|D#4 3FCF ....|F-4 4FEF ....|F-4 2FFF ....
....|..|G-4 3FCA ....|G-4 4FEA ....|G-4 2FFA ....
....|..|F-4 3FCF ....|--- .... ....|G-4 2FFF ....
....|..|D#4 3FCA ....|F-4 4FEA ....|F-4 2FFA ....
....|..|G-4 3FCF ....|D#4 4FEF ....|F-4 2FFF ....
....|..|F-4 3FCA ....|--- .... ....|G-4 2FFA ....
 D#4|..|D#4 3FCF ....|D#3 2C.F ....|D#3 2C.F ....
....|..|G-4 3FCA ....|D#4 4FEA ....|F-4 2FFA ....
....|..|F-4 3FCF ....|F-4 4FEF ....|F-4 2FFF ....
....|..|D#4 3FCA ....|D#3 2F.A ....|D#3 2F.A ....
....|..|A#3 3FCF ....|D#4 4FE7 ....|F-4 2FFF ....
....|..|F-4 3FCA ....|F-4 4FEA ....|F-4 2FFA ....
....|..|C-4 3FCF ....|D#3 2F.7 ....|F-4 2FFF ....
....|..|A#3 3FCA ....|--- .... ....|F-4 2FFA ....
 A#3|..|D-4 3FCF ....|A#2 2C.F ....|A#2 2C.F ....
....|..|C-4 3FCA ....|--- .... ....|F-4 2FFA ....
....|..|A#3 3FCF ....|R-- .... ....|F-4 2FF7 ....
....|..|D-4 3FCA ....|A#2 2F.A ....|A#2 2F.A ....
....|..|C-4 3FCF ....|--- .... ....|F-4 2FFA ....
....|..|A#3 3FCA ....|R-- .... ....|R-- .... ....
....|..|D-4 3FCF ....|A#2 2F.7 ....|A#2 2F.7 ....
....|..|C-4 3FCA ....|--- .... ....|--- .... ....
 A#3|..|C-4 3FCF ....|A#2 2C.F ....|A#2 2C.F ....
....|..|D-4 3FCA ....|--- .... ....|--- .... ....
....|..|A#3 3FCF ....|R-- .... ....|F-4 2FF7 ....
....|..|C-4 3FCA ....|A#2 2F.A ....|A#2 2F.A ....
....|..|C-4 3FCF ....|F-4 4FEF ....|C-4 2FFF ....
....|..|A#3 3FCA ....|R-- .... ....|R-- .... ....
....|..|D-4 3FCF ....|A#2 2F.7 ....|R-- .... ....
....|..|C-4 3FCA ....|F-4 4FEA ....|C-4 2FFA ....
....|..|D#4 3FCF ....|G-4 4FEF ....|G-4 2FFF ....
....|..|D-4 3FCA ....|--- .... ....|R-- .... ....
....|..|C-4 3FCF ....|F-4 4FEF ....|F-4 2FFF ....
....|..|D#4 3FCA ....|G-4 4FEA ....|G-4 2FFA ....
....|..|D-4 3FCF ....|--- .... ....|G-4 2FFF ....
....|..|C-4 3FCA ....|F-4 4FEA ....|F-4 2FFA ....
....|..|D#4 3FCF ....|D#4 4FEF ....|F-4 2FFF ....
....|..|D-4 3FCA ....|--- .... ....|G-4 2FFA ....
 C-3|..|C-4 3FCF ....|C-3 2C.F ....|C-3 2C.F ....
....|..|D#4 3FCA ....|D#4 4FEA ....|F-4 2FFA ....
....|..|D-4 3FCF ....|R-- .... ....|D#4 2FFF ....
....|..|C-4 3FCA ....|C-3 2F.A ....|C-3 2F.A ....
....|..|D#4 3FCF ....|C-4 4FEF ....|C-4 2FFF ....
....|..|D-4 3FCA ....|R-- .... ....|D#4 2FFA ....
....|..|C-4 3FCF ....|C-3 2F.7 ....|C-3 2F.7 ....
....|..|D#4 3FCA ....|C-4 4FEA ....|C-4 2FFA ....
....|..|D-4 3FCF ....|G-4 4FEF ....|G-4 2FFF ....
....|..|C-4 3FCA ....|--- .... ....|R-- .... ....
....|..|D#4 3FCF ....|F-4 4FEF ....|F-4 2FFF ....
....|..|D-4 3FCA ....|G-4 4FEA ....|G-4 2FFA ....
....|..|C-4 3FCF ....|--- .... ....|G-4 2FFF ....
....|..|D#4 3FCA ....|F-4 4FEA ....|F-4 2FFA ....
....|..|D-4 3FCF ....|D#4 4FEF ....|F-4 2FFF ....
....|..|C-4 3FCA ....|--- .... ....|G-4 2FFA ....
 C-3|..|D#4 3FCF ....|C-3 2C.F ....|C-3 2C.F ....
....|..|D-4 3FCA ....|D#4 4FEA ....|F-4 2FFA ....
....|..|C-4 3FCF ....|R-- .... ....|D#4 2FFF ....
....|..|D#4 3FCA ....|C-3 2F.A ....|C-3 2F.A ....

[Pattern28]
....|..|D#4 3FCF ....|A#3 4FEF ....|A#3 2FFF ....
....|..|C-4 3FCA ....|R-- .... ....|D#4 2FFA ....
....|..|F-4 3FCF ....|C-3 2F.7 ....|C-3 2F.7 ....
....|..|D#4 3FCA ....|A#3 4FEA ....|A#3 2FFA ....
....|..|G-4 3FCF ....|G-4 4FEF ....|G-4 2FFF ....
....|..|F-4 3FCA ....|--- .... ....|R-- .... ....
....|..|D#4 3FCF ....|F-4 4FEF ....|F-4 2FFF ....
....|..|G-4 3FCA ....|G-4 4FEA ....|G-4 2FFA ....
....|..|F-4 3FCF ....|--- .... ....|G-4 2FFF ....
....|..|D#4 3FCA ....|F-4 4FEA ....|F-4 2FFA ....
....|..|G-4 3FCF ....|D#4 4FEF ....|F-4 2FFF ....
....|..|F-4 3FCA ....|--- .... ....|G-4 2FFA ....
 D#4|..|D#4 3FCF ....|D#3 2C.F ....|D#3 2C.F ....
....|..|G-4 3FCA ....|D#4 4FEA ....|F-4 2FFA ....
....|..|F-4 3FCF ....|F-4 4FEF ....|F-4 2FFF ....
....|..|D#4 3FCA ....|D#3 2F.A ....|D#3 2F.A ....
....|..|A#3 3FCF ....|D#4 4FE7 ....|F-4 2FFF ....
....|..|F-4 3FCA ....|F-4 4FEA ....|F-4 2FFA ....
....|..|C-4 3FCF ....|D#3 2F.7 ....|F-4 2FFF ....
....|..|A#3 3FCA ....|--- .... ....|F-4 2FFA ....
 A#3|..|D-4 3FCF ....|A#2 2C.F ....|A#2 2C.F ....
....|..|C-4 3FCA ....|--- .... ....|F-4 2FFA ....
....|..|A#3 3FCF ....|R-- .... ....|F-4 2FF7 ....
....|..|D-4 3FCA ....|A#2 2F.A ....|A#2 2F.A ....
....|..|C-4 3FCF ....|--- .... ....|F-4 2FFA ....
....|..|A#3 3FCA ....|R-- .... ....|R-- .... ....
....|..|D-4 3FCF ....|A#2 2F.7 ....|A#2 2F.7 ....
....|..|C-4 3FCA ....|--- .... ....|--- .... ....
 A#3|..|C-4 3FCF ....|A#2 2C.F ....|A#2 2C.F ....
....|..|D-4 3FCA ....|--- .... ....|--- .... ....
....|..|A#3 3FCF ....|R-- .... ....|F-4 2FF7 ....
....|..|C-4 3FCA ....|A#2 2F.A ....|A#2 2F.A ....
....|..|E-4 3FCF ....|--- .... ....|E-4 2FFF ....
....|..|A#3 3FCA ....|R-- .... ....|R-- .... ....
....|..|A-4 3FCF ....|A#2 2F.7 ....|R-- .... ....
....|..|E-4 3FCA ....|--- .... ....|E-4 2FFA ....
 A-3|..|A#3 3FCF ....|A-2 2C.F ....|A-3 2FFF ....
....|..|A-4 3FCA ....|--- .... ....|R-- .... ....
....|..|E-4 3FCF ....|R-- .... ....|E-4 2FFA ....
....|..|A#3 3FCA ....|A-2 2F.A ....|A-3 2FFA ....
....|..|A-4 3FCF ....|--- .... ....|E-4 2FFF ....
....|..|E-4 3FCA ....|R-- .... ....|R-- .... ....
....|..|A-3 3FCF ....|A-2 2F.7 ....|A-3 2FFA ....
....|..|A-4 3FCA ....|--- .... ....|E-4 2FFA ....
 A-3|..|E-4 3FCF ....|A-2 2C.F ....|A-3 2FFF ....
....|..|A-3 3FCA ....|--- .... ....|R-- .... ....
....|..|A-4 3FCF ....|R-- .... ....|E-4 2FFA ....
....|..|E-4 3FCA ....|A-2 2F.A ....|A-3 2FFA ....
....|..|C-4 3FCF ....|--- .... ....|A-3 2FF7 ....
....|..|A-4 3FCA ....|R-- .... ....|R-- .... ....
....|..|F-4 3FCF ....|A-2 2F.7 ....|A-3 2FFA ....
....|..|C-4 3FCA ....|--- .... ....|--- .... ....
 F-4|..|F-3 3FCF ....|F-2 2A.F ....|F-2 2A.F ....
....|..|F-4 3FCA ....|--- .... ....|--- .... ....
....|..|C-4 3FCF ....|R-- .... ....|R-- .... ....
....|..|F-3 3FCA ....|F-2 2F.A ....|F-2 2F.A ....
....|..|F-4 3FCF ....|--- .... ....|A-3 2FF7 ....
....|..|C-4 3FCA ....|R-- .... ....|R-- .... ....
....|..|F-3 3FCF ....|F-2 2F.7 ....|F-2 2F.7 ....
....|..|F-4 3FCA ....|--- .... ....|--- .... ....
 F-4|..|C-4 3FCF ....|E-4 6FFF ....|F-2 2A.F ....
....|..|F-3 3FCA ....|--- .... ....|--- .... ....
....|..|F-4 3FCF ....|F-4 6FFF ....|R-- .... ....
....|..|C-4 3FCA ....|E-4 6FFA ....|F-2 2F.A ....

[Pattern29]
....|..|G-4 3FCF ....|--- .... ....|--- .... ....
....|..|F-4 3FCA ....|F-4 6FFA ....|R-- .... ....
....|..|C-5 3FCF ....|E-4 6FF7 ....|F-2 2F.7 ....
....|..|G-4 3FCA ....|--- .... ....|--- .... ....
 C-3|..|C-4 3FCF ....|C-3 2C.F ....|C-3 2C.F ....
....|..|C-5 3FCA ....|--- .... ....|--- .... ....
....|..|G-4 3FCF ....|R-- .... ....|R-- .... ....
....|..|C-4 3FCA ....|C-3 2F.A ....|C-3 2F.A ....
....|..|C-5 3FCF ....|--- .... ....|--- .... ....
....|..|G-4 3FCA ....|R-- .... ....|R-- .... ....
....|..|C-4 3FCF ....|C-3 2F.7 ....|C-3 2F.7 ....
....|..|C-5 3FCA ....|--- .... ....|--- .... ....
 C-3|..|G-4 3FCF ....|C-3 2C.F ....|C-3 2C.F ....
....|..|C-4 3FCA ....|--- .... ....|--- .... ....
....|..|C-5 3FCF ....|R-- .... ....|R-- .... ....
....|..|G-4 3FCA ....|C-3 2F.A ....|C-3 2F.A ....
....|..|D-4 3FCF ....|--- .... ....|--- .... ....
....|..|C-5 3FCA ....|R-- .... ....|R-- .... ....
....|..|G-4 3FCF ....|C-3 2F.7 ....|C-3 2F.7 ....
....|..|D-4 3FCA ....|--- .... ....|--- .... ....
 G-4|..|G-3 3FCF ....|G-2 2A.F ....|G-2 2A.F ....
....|..|G-4 3FCA ....|--- .... ....|--- .... ....
....|..|D-4 3FCF ....|R-- .... ....|R-- .... ....
....|..|G-3 3FCA ....|G-2 2F.A ....|G-2 2F.A ....
....|..|G-4 3FCF ....|--- .... ....|--- .... ....
....|..|D-4 3FCA ....|R-- .... ....|R-- .... ....
....|..|G-3 3FCF ....|G-2 2F.7 ....|G-2 2F.7 ....
....|..|G-4 3FCA ....|--- .... ....|--- .... ....
 G-4|..|D-4 3FCF ....|G-2 2A.F ....|G-2 2A.F ....
....|..|G-3 3FCA ....|--- .... ....|--- .... ....
....|..|G-4 3FCF ....|R-- .... ....|R-- .... ....
....|..|D-4 3FCA ....|G-2 2F.A ....|G-2 2F.A ....
....|..|E-4 3FCF ....|--- .... ....|--- .... ....
....|..|G-4 3FCA ....|R-- .... ....|R-- .... ....
....|..|A-4 3FCF ....|G-2 2F.7 ....|G-2 2F.7 ....
....|..|E-4 3FCA ....|--- .... ....|--- .... ....
 A-3|..|A-3 3FCF ....|A-2 2C.F ....|A-2 2C.F ....
....|..|A-4 3FCA ....|--- .... ....|--- .... ....
....|..|E-4 3FCF ....|R-- .... ....|R-- .... ....
....|..|A-3 3FCA ....|A-2 2F.A ....|A-2 2F.A ....
....|..|A-4 3FCF ....|--- .... ....|--- .... ....
....|..|E-4 3FCA ....|R-- .... ....|R-- .... ....
....|..|A-3 3FCF ....|A-2 2F.7 ....|A-2 2F.7 ....
....|..|A-4 3FCA ....|--- .... ....|--- .... ....
 A-3|..|E-4 3FCF ....|A-2 2C.F ....|A-2 2C.F ....
....|..|A-3 3FCA ....|--- .... ....|--- .... ....
....|..|A-4 3FCF ....|R-- .... ....|R-- .... ....
....|..|E-4 3FCA ....|A-2 2F.A ....|A-2 2F.A ....
....|..|C-4 3FCF ....|--- .... ....|--- .... ....
....|..|A-4 3FCA ....|R-- .... ....|R-- .... ....
....|..|F-4 3FCF ....|A-2 2F.7 ....|A-2 2F.7 ....
....|..|C-4 3FCA ....|--- .... ....|--- .... ....
 F-4|..|F-3 3FCF ....|F-2 2A.F ....|F-2 2A.F ....
....|..|F-4 3FCA ....|--- .... ....|--- .... ....
....|..|C-4 3FCF ....|R-- .... ....|R-- .... ....
....|..|F-3 3FCA ....|F-2 2F.A ....|F-2 2F.A ....
....|..|F-4 3FCF ....|--- .... ....|--- .... ....
....|..|C-4 3FCA ....|R-- .... ....|R-- .... ....
....|..|F-3 3FCF ....|F-2 2F.7 ....|F-2 2F.7 ....
....|..|F-4 3FCA ....|--- .... ....|--- .... ....
 F-4|..|C-4 3FCF ....|F-2 2A.F ....|F-2 2A.F ....
....|..|F-3 3FCA ....|--- .... ....|--- .... ....
....|..|F-4 3FCF ....|R-- .... ....|R-- .... ....
....|..|C-4 3FCA ....|F-2 2F.A ....|F-2 2F.A ....

[Pattern30]
....|..|G-4 3FCF ....|--- .... ....|--- .... ....
....|..|F-4 3FCA ....|R-- .... ....|R-- .... ....
....|..|C-5 3FCF ....|F-2 2F.7 ....|F-2 2F.7 ....
....|..|G-4 3FCA ....|--- .... ....|--- .... ....
 C-3|..|C-4 3FCF ....|C-3 2C.F ....|C-3 2C.F ....
....|..|C-5 3FCA ....|--- .... ....|--- .... ....
....|..|G-4 3FCF ....|R-- .... ....|R-- .... ....
....|..|C-4 3FCA ....|C-3 2F.A ....|C-3 2F.A ....
....|..|C-5 3FCF ....|--- .... ....|--- .... ....
....|..|G-4 3FCA ....|R-- .... ....|R-- .... ....
....|..|C-4 3FCF ....|C-3 2F.7 ....|C-3 2F.7 ....
....|..|C-5 3FCA ....|--- .... ....|--- .... ....
 C-3|..|G-4 3FCF ....|C-3 2C.F ....|C-3 2C.F ....
....|..|C-4 3FCA ....|--- .... ....|--- .... ....
....|..|C-5 3FCF ....|R-- .... ....|R-- .... ....
....|..|G-4 3FCA ....|C-3 2F.A ....|C-3 2F.A ....
....|..|D-4 3FCF ....|--- .... ....|--- .... ....
....|..|C-5 3FCA ....|R-- .... ....|R-- .... ....
....|..|G-4 3FCF ....|C-3 2F.7 ....|C-3 2F.7 ....
....|..|D-4 3FCA ....|--- .... ....|--- .... ....
 G-4|..|G-3 3FCF ....|G-2 2A.F ....|G-2 2A.F ....
....|..|G-4 3FCA ....|--- .... ....|--- .... ....
....|..|D-4 3FCF ....|R-- .... ....|R-- .... ....
....|..|G-3 3FCA ....|G-2 2F.A ....|G-2 2F.A ....
....|..|G-4 3FCF ....|--- .... ....|--- .... ....
....|..|D-4 3FCA ....|R-- .... ....|R-- .... ....
....|..|G-3 3FCF ....|G-2 2F.7 ....|G-2 2F.7 ....
....|..|G-4 3FCA ....|--- .... ....|--- .... ....
 G-4|..|D-4 3FCF ....|G-2 2A.F ....|G-2 2A.F ....
....|..|G-3 3FCA ....|--- .... ....|--- .... ....
....|..|G-4 3FCF ....|R-- .... ....|R-- .... ....
....|..|D-4 3FCA ....|G-2 2F.A ....|G-2 2F.A ....
....|..|G-4 3FCF ....|G-4 6FFF ....|--- .... ....
....|..|G-4 3FCA ....|R-- .... ....|R-- .... ....
....|..|G-4 3FCF ....|G-2 2F.7 ....|G-2 2F.7 ....
....|..|G-4 3FCA ....|G-4 6FFA ....|--- .... ....
 C-3|..|G-4 3FCF ....|G-4 6FFF ....|C-3 2C.F ....
....|..|G-4 3FCA ....|--- .... ....|--- .... ....
....|..|G-4 3FCF ....|F-4 6FFF ....|R-- .... ....
....|..|G-4 3FCA ....|G-4 6FFA ....|C-3 2F.A ....
....|..|C-4 3FCF ....|--- .... ....|--- .... ....
....|..|G-4 3FCA ....|F-4 6FFA ....|R-- .... ....
....|..|D-4 3FCF ....|F-4 6FFF ....|C-3 2F.7 ....
....|..|C-4 3FCA ....|--- .... ....|--- .... ....
 C-3|..|D#4 3FCF ....|A#4 6FFF ....|C-3 2C.F ....
....|..|D-4 3FCA ....|F-4 6FFA ....|--- .... ....
....|..|G-4 3FCF ....|R-- .... ....|R-- .... ....
....|..|D#4 3FCA ....|A#4 6FFA ....|C-3 2F.A ....
....|..|C-4 3FCF ....|A#4 6FFF ....|--- .... ....
....|..|G-4 3FCA ....|R-- .... ....|R-- .... ....
....|..|D-4 3FCF ....|G-4 6FFF ....|C-3 2F.7 ....
....|..|C-4 3FCA ....|A#4 6FFA ....|--- .... ....
 C-3|..|D#4 3FCF ....|G-4 6FFF ....|C-3 2C.F ....
....|..|D-4 3FCA ....|G-4 6FFA ....|--- .... ....
....|..|G-4 3FCF ....|F-4 6FFF ....|R-- .... ....
....|..|D#4 3FCA ....|G-4 6FFA ....|C-3 2F.A ....
....|..|C-4 3FCF ....|G-4 6FF7 ....|--- .... ....
....|..|G-4 3FCA ....|F-4 6FFA ....|R-- .... ....
....|..|D-4 3FCF ....|F-4 6FFF ....|C-3 2F.7 ....
....|..|C-4 3FCA ....|--- .... ....|--- .... ....
 C-3|..|D#4 3FCF ....|D#4 6FFF ....|C-3 2C.F ....
....|..|D-4 3FCA ....|F-4 6FFA ....|--- .... ....
....|..|G-4 3FCF ....|R-- .... ....|R-- .... ....
....|..|D#4 3FCA ....|D#4 6FFA ....|C-3 2F.A ....

[Pattern31]
....|..|A#3 3FCF ....|F-4 6FFF ....|--- .... ....
....|..|G-4 3FCA ....|R-- .... ....|R-- .... ....
....|..|C-4 3FCF ....|F-4 6FFF ....|C-3 2F.7 ....
....|..|A#3 3FCA ....|F-4 6FFA ....|--- .... ....
 A#3|..|D-4 3FCF ....|F-4 6FFF ....|A#2 2C.F ....
....|..|C-4 3FCA ....|F-4 6FFA ....|--- .... ....
....|..|F-4 3FCF ....|D-4 6FFF ....|R-- .... ....
....|..|D-4 3FCA ....|F-4 6FFA ....|A#2 2F.A ....
....|..|A#3 3FCF ....|F-4 6FF7 ....|--- .... ....
....|..|F-4 3FCA ....|D-4 6FFA ....|R-- .... ....
....|..|C-4 3FCF ....|D-4 6FFF ....|A#2 2F.7 ....
....|..|A#3 3FCA ....|--- .... ....|--- .... ....
 A#3|..|D-4 3FCF ....|A#3 6FFF ....|A#2 2C.F ....
....|..|C-4 3FCA ....|D-4 6FFA ....|--- .... ....
....|..|F-4 3FCF ....|R-- .... ....|R-- .... ....
....|..|D-4 3FCA ....|A#3 6FFA ....|A#2 2F.A ....
....|..|A#3 3FCF ....|A#3 6FFF ....|--- .... ....
....|..|F-4 3FCA ....|R-- .... ....|R-- .... ....
....|..|C-4 3FCF ....|A#3 6FFF ....|A#2 2F.7 ....
....|..|A#3 3FCA ....|A#3 6FFA ....|--- .... ....
 A#3|..|D-4 3FCF ....|A#2 2C.F ....|A#2 2C.F ....
....|..|C-4 3FCA ....|A#3 6FFA ....|--- .... ....
....|..|F-4 3FCF ....|R-- .... ....|R-- .... ....
....|..|D-4 3FCA ....|A#2 2F.A ....|A#2 2F.A ....
....|..|A#3 3FCF ....|A#3 6FF7 ....|--- .... ....
....|..|F-4 3FCA ....|R-- .... ....|R-- .... ....
....|..|C-4 3FCF ....|A#2 2F.7 ....|A#2 2F.7 ....
....|..|A#3 3FCA ....|--- .... ....|--- .... ....
 A#3|..|D-4 3FCF ....|A#2 2C.F ....|A#2 2C.F ....
....|..|C-4 3FCA ....|--- .... ....|--- .... ....
....|..|F-4 3FCF ....|R-- .... ....|R-- .... ....
....|..|D-4 3FCA ....|A#2 2F.A ....|A#2 2F.A ....
....|..|A#3 3FCF ....|D#4 6FFF ....|--- .... ....
....|..|F-4 3FCA ....|R-- .... ....|R-- .... ....
....|..|C-4 3FCF ....|A#2 2F.7 ....|A#2 2F.7 ....
....|..|A#3 3FCA ....|D#4 6FFA ....|--- .... ....
 A#3|..|D-4 3FCF ....|D#4 6FFF ....|A#2 2C.F ....
....|..|C-4 3FCA ....|--- .... ....|--- .... ....
....|..|F-4 3FCF ....|D-4 6FFF ....|R-- .... ....
....|..|D-4 3FCA ....|D#4 6FFA ....|A#2 2F.A ....
....|..|A#3 3FCF ....|--- .... ....|--- .... ....
....|..|F-4 3FCA ....|D-4 6FFA ....|R-- .... ....
....|..|C-4 3FCF ....|D-4 6FFF ....|A#2 2F.7 ....
....|..|A#3 3FCA ....|--- .... ....|--- .... ....
 A#3|..|D-4 3FCF ....|F-4 6FFF ....|A#2 2C.F ....
....|..|C-4 3FCA ....|D-4 6FFA ....|--- .... ....
....|..|F-4 3FCF ....|R-- .... ....|R-- .... ....
....|..|D-4 3FCA ....|F-4 6FFA ....|A#2 2F.A ....
....|..|A#3 3FCF ....|F-4 6FFF ....|--- .... ....
....|..|F-4 3FCA ....|R-- .... ....|R-- .... ....
....|..|C-4 3FCF ....|D#4 6FFF ....|A#2 2F.7 ....
....|..|A#3 3FCA ....|F-4 6FFA ....|--- .... ....
 A#3|..|D-4 3FCF ....|D#4 6FFF ....|A#2 2C.F ....
....|..|C-4 3FCA ....|D#4 6FFA ....|--- .... ....
....|..|F-4 3FCF ....|D-4 6FFF ....|R-- .... ....
....|..|D-4 3FCA ....|D#4 6FFA ....|A#2 2F.A ....
....|..|A#3 3FCF ....|D#4 6FF7 ....|--- .... ....
....|..|F-4 3FCA ....|D-4 6FFA ....|R-- .... ....
....|..|C-4 3FCF ....|D-4 6FFF ....|A#2 2F.7 ....
....|..|A#3 3FCA ....|--- .... ....|--- .... ....
 A#3|..|D-4 3FCF ....|G-3 6FFF ....|A#2 2C.F ....
....|..|C-4 3FCA ....|D-4 6FFA ....|--- .... ....
....|..|F-4 3FCF ....|R-- .... ....|R-- .... ....
....|..|D-4 3FCA ....|G-3 6FFA ....|A#2 2F.A ....

[Pattern32]
....|..|C-4 3FCF ....|C-4 6FFF ....|--- .... ....
....|..|F-4 3FCA ....|R-- .... ....|R-- .... ....
....|..|D-4 3FCF ....|C-4 6FFF ....|A#2 2F.7 ....
....|..|C-4 3FCA ....|C-4 6FFA ....|--- .... ....
 C-3|..|D#4 3FCF ....|D-4 6FFF ....|C-3 2C.F ....
....|..|D-4 3FCA ....|C-4 6FFA ....|--- .... ....
....|..|G-4 3FCF ....|C-4 6FFF ....|R-- .... ....
....|..|D#4 3FCA ....|D-4 6FFA ....|C-3 2F.A ....
....|..|C-4 3FCF ....|D-4 6FFF ....|--- .... ....
....|..|G-4 3FCA ....|C-4 6FFA ....|R-- .... ....
....|..|D-4 3FCF ....|C-4 6FFF ....|C-3 2F.7 ....
....|..|C-4 3FCA ....|D-4 6FFA ....|--- .... ....
 C-3|..|D#4 3FCF ....|C-4 6FFF ....|C-3 2C.F ....
....|..|D-4 3FCA ....|C-4 6FFA ....|--- .... ....
....|..|G-4 3FCF ....|R-- .... ....|R-- .... ....
....|..|D#4 3FCA ....|C-4 6FFA ....|C-3 2F.A ....
....|..|C-4 3FCF ....|C-4 6FF7 ....|--- .... ....
....|..|G-4 3FCA ....|R-- .... ....|R-- .... ....
....|..|D-4 3FCF ....|C-4 6FF7 ....|C-3 2F.7 ....
....|..|C-4 3FCA ....|--- .... ....|--- .... ....
 C-3|..|D#4 3FCF ....|C-3 2C.F ....|C-3 2C.F ....
....|..|D-4 3FCA ....|--- .... ....|--- .... ....
....|..|G-4 3FCF ....|R-- .... ....|R-- .... ....
....|..|D#4 3FCA ....|C-3 2F.A ....|C-3 2F.A ....
....|..|C-4 3FCF ....|--- .... ....|--- .... ....
....|..|G-4 3FCA ....|R-- .... ....|R-- .... ....
....|..|D-4 3FCF ....|C-3 2F.7 ....|C-3 2F.7 ....
....|..|C-4 3FCA ....|--- .... ....|--- .... ....
 C-3|..|D#4 3FCF ....|C-3 2C.F ....|C-3 2C.F ....
....|..|D-4 3FCA ....|--- .... ....|--- .... ....
....|..|G-4 3FCF ....|R-- .... ....|R-- .... ....
....|..|D#4 3FCA ....|C-3 2F.A ....|C-3 2F.A ....
....|..|G-4 3FCF ....|G-4 6FFF ....|--- .... ....
....|..|G-4 3FCA ....|R-- .... ....|R-- .... ....
....|..|G-4 3FCF ....|C-3 2F.7 ....|C-3 2F.7 ....
....|..|G-4 3FCA ....|G-4 6FFA ....|--- .... ....
 C-3|..|G-4 3FCF ....|G-4 6FFF ....|C-3 2C.F ....
....|..|G-4 3FCA ....|--- .... ....|--- .... ....
....|..|G-4 3FCF ....|F-4 6FFF ....|R-- .... ....
....|..|G-4 3FCA ....|G-4 6FFA ....|C-3 2F.A ....
....|..|C-4 3FCF ....|--- .... ....|--- .... ....
....|..|G-4 3FCA ....|F-4 6FFA ....|R-- .... ....
....|..|D-4 3FCF ....|F-4 6FFF ....|C-3 2F.7 ....
....|..|C-4 3FCA ....|--- .... ....|--- .... ....
 C-3|..|D#4 3FCF ....|A#4 6FFF ....|C-3 2C.F ....
....|..|D-4 3FCA ....|F-4 6FFA ....|--- .... ....
....|..|G-4 3FCF ....|R-- .... ....|R-- .... ....
....|..|D#4 3FCA ....|A#4 6FFA ....|C-3 2F.A ....
....|..|C-4 3FCF ....|A#4 6FFF ....|--- .... ....
....|..|G-4 3FCA ....|R-- .... ....|R-- .... ....
....|..|D-4 3FCF ....|G-4 6FFF ....|C-3 2F.7 ....
....|..|C-4 3FCA ....|A#4 6FFA ....|--- .... ....
 C-3|..|D#4 3FCF ....|G-4 6FFF ....|C-3 2C.F ....
....|..|D-4 3FCA ....|G-4 6FFA ....|--- .... ....
....|..|G-4 3FCF ....|F-4 6FFF ....|R-- .... ....
....|..|D#4 3FCA ....|G-4 6FFA ....|C-3 2F.A ....
....|..|C-4 3FCF ....|G-4 6FF7 ....|--- .... ....
....|..|G-4 3FCA ....|F-4 6FFA ....|R-- .... ....
....|..|D-4 3FCF ....|F-4 6FFF ....|C-3 2F.7 ....
....|..|C-4 3FCA ....|--- .... ....|--- .... ....
 C-3|..|D#4 3FCF ....|D#4 6FFF ....|C-3 2C.F ....
....|..|D-4 3FCA ....|F-4 6FFA ....|--- .... ....
....|..|G-4 3FCF ....|R-- .... ....|R-- .... ....
....|..|D#4 3FCA ....|D#4 6FFA ....|C-3 2F.A ....

[Pattern34]
....|..|C-4 3FCF ....|C-4 6FFF ....|--- .... ....
....|..|F-4 3FCA ....|R-- .... ....|R-- .... ....
....|..|D-4 3FCF ....|C-4 6FFF ....|A#2 2F.7 ....
....|..|C-4 3FCA ....|C-4 6FFA ....|--- .... ....
 C-3|..|D#4 3FCF ....|D-4 6FFF ....|C-3 2C.F ....
....|..|D-4 3FCA ....|C-4 6FFA ....|--- .... ....
....|..|G-4 3FCF ....|C-4 6FFF ....|R-- .... ....
....|..|D#4 3FCA ....|D-4 6FFA ....|C-3 2F.A ....
....|..|C-4 3FCF ....|D-4 6FFF ....|--- .... ....
....|..|G-4 3FCA ....|C-4 6FFA ....|R-- .... ....
....|..|D-4 3FCF ....|C-4 6FFF ....|C-3 2F.7 ....
....|..|C-4 3FCA ....|D-4 6FFA ....|--- .... ....
 C-3|..|D#4 3FCF ....|C-4 6FFF ....|C-3 2C.F ....
....|..|D-4 3FCA ....|C-4 6FFA ....|--- .... ....
....|..|G-4 3FCF ....|R-- .... ....|R-- .... ....
....|..|D#4 3FCA ....|C-4 6FFA ....|C-3 2F.A ....
....|..|C-4 3FCF ....|C-4 6FF7 ....|--- .... ....
....|..|G-4 3FCA ....|R-- .... ....|R-- .... ....
....|..|D-4 3FCF ....|C-4 6FF7 ....|C-3 2F.7 ....
....|..|C-4 3FCA ....|--- .... ....|--- .... ....
 C-3|..|D#4 3FCF ....|C-3 2C.F ....|C-3 2C.F ....
....|..|D-4 3FCA ....|--- .... ....|--- .... ....
....|..|G-4 3FCF ....|R-- .... ....|R-- .... ....
....|..|D#4 3FCA ....|C-3 2F.A ....|C-3 2F.A ....
....|..|C-4 3FCF ....|C-5 6FFF ....|--- .... ....
....|..|G-4 3FCA ....|R-- .... ....|R-- .... ....
....|..|D-4 3FCF ....|C-3 2F.7 ....|C-3 2F.7 ....
....|..|C-4 3FCA ....|C-5 6FFA ....|--- .... ....
 C-3|..|D#4 3FCF ....|C-5 6FFF ....|C-3 2C.F ....
....|..|D-4 3FCA ....|--- .... ....|--- .... ....
....|..|G-4 3FCF ....|C-5 6FFF ....|R-- .... ....
....|..|D#4 3FCA ....|C-5 6FFA ....|C-3 2F.A ....
....|..|G-4 3FCF ....|C-5 6FFF ....|--- .... ....
....|..|G-4 3FCA ....|C-5 6FFA ....|R-- .... ....
....|..|G-4 3FCF ....|C-5 6FF7 ....|C-3 2F.7 ....
....|..|G-4 3FCA ....|C-5 6FFA ....|--- .... ....
 G#4|..|G-4 3FCF ....|C-5 6FFF ....|G#2 2A.F ....
....|..|G-4 3FCA ....|--- .... ....|--- .... ....
....|..|D#4 3FCF ....|G#4 6FFF ....|R-- .... ....
....|..|G-4 3FCA ....|C-5 6FFA ....|G#2 2F.A ....
....|..|G#3 3FCF ....|--- .... ....|--- .... ....
....|..|D#4 3FCA ....|G#4 6FFA ....|R-- .... ....
....|..|A#3 3FCF ....|A#4 6FFF ....|G#2 2F.7 ....
....|..|G#3 3FCA ....|--- .... ....|--- .... ....
 G#4|..|C-4 3FCF ....|G#2 2A.F ....|G#2 2A.F ....
....|..|A#3 3FCA ....|A#4 6FFA ....|--- .... ....
....|..|D#4 3FCF ....|C-5 6FFF ....|R-- .... ....
....|..|C-4 3FCA ....|G#2 2F.A ....|G#2 2F.A ....
....|..|A#3 3FCF ....|A#4 6FFF ....|--- .... ....
....|..|D#4 3FCA ....|C-5 6FFA ....|R-- .... ....
....|..|C-4 3FCF ....|C-5 6FFF ....|G#2 2F.7 ....
....|..|A#3 3FCA ....|A#4 6FFA ....|--- .... ....
 A#3|..|D-4 3FCF ....|A#4 6FFF ....|A#2 2C.F ....
....|..|C-4 3FCA ....|C-5 6FFA ....|--- .... ....
....|..|F-4 3FCF ....|A#4 6FFF ....|R-- .... ....
....|..|D-4 3FCA ....|A#4 6FFA ....|A#2 2F.A ....
....|..|A#3 3FCF ....|G#4 6FFF ....|--- .... ....
....|..|F-4 3FCA ....|A#4 6FFA ....|R-- .... ....
....|..|C-4 3FCF ....|A#4 6FFF ....|A#2 2F.7 ....
....|..|A#3 3FCA ....|G#4 6FFA ....|--- .... ....
 A#3|..|D-4 3FCF ....|G#4 6FFF ....|A#2 2C.F ....
....|..|C-4 3FCA ....|A#4 6FFA ....|--- .... ....
....|..|F-4 3FCF ....|G-4 6FFF ....|R-- .... ....
....|..|D-4 3FCA ....|G#4 6FFA ....|A#2 2F.A ....

[Pattern35]
....|..|C-4 3FCF ....|G-4 6FFF ....|--- .... ....
....|..|F-4 3FCA ....|G-4 6FFA ....|R-- .... ....
....|..|D-4 3FCF ....|F-4 6FFF ....|A#2 2F.7 ....
....|..|C-4 3FCA ....|G-4 6FFA ....|--- .... ....
 C-3|..|D#4 3FCF ....|G-4 6FFF ....|C-3 2C.F ....
....|..|D-4 3FCA ....|F-4 6FFA ....|--- .... ....
....|..|G-4 3FCF ....|D#4 6FFF ....|R-- .... ....
....|..|D#4 3FCA ....|G-4 6FFA ....|C-3 2F.A ....
....|..|C-4 3FCF ....|G-4 6FFF ....|G-4 2F.F ....
....|..|G-4 3FCA ....|D#4 6FFA ....|R-- .... ....
....|..|D-4 3FCF ....|D#4 6FFF ....|C-3 2F.7 ....
....|..|C-4 3FCA ....|G-4 6FFA ....|G-4 2F.A ....
 C-3|..|D#4 3FCF ....|D#4 6FFF ....|C-3 2C.F ....
....|..|D-4 3FCA ....|D#4 6FFA ....|--- .... ....
....|..|G-4 3FCF ....|R-- .... ....|G-4 2F.7 ....
....|..|D#4 3FCA ....|D#4 6FFA ....|C-3 2F.A ....
....|..|C-4 3FCF ....|D#4 6FF7 ....|F-4 2F.F ....
....|..|G-4 3FCA ....|R-- .... ....|R-- .... ....
....|..|D-4 3FCF ....|D#4 6FF7 ....|C-3 2F.7 ....
....|..|C-4 3FCA ....|--- .... ....|F-4 2F.A ....
 C-3|..|D#4 3FCF ....|C-3 2C.F ....|C-3 2C.F ....
....|..|D-4 3FCA ....|--- .... ....|--- .... ....
....|..|G-4 3FCF ....|R-- .... ....|F-4 2F.7 ....
....|..|D#4 3FCA ....|C-3 2F.A ....|C-3 2F.A ....
....|..|F-4 3FCF ....|--- .... ....|D#4 2F.F ....
....|..|G-4 3FCA ....|R-- .... ....|R-- .... ....
....|..|D#4 3FCF ....|C-3 2F.7 ....|C-3 2F.7 ....
....|..|F-4 3FCA ....|--- .... ....|D#4 2F.A ....
 C-3|..|D-4 3FCF ....|F-4 6FFF ....|C-3 2C.F ....
....|..|D#4 3FCA ....|--- .... ....|--- .... ....
....|..|D#4 3FCF ....|G-4 6FFF ....|D#4 2F.7 ....
....|..|D-4 3FCA ....|F-4 6FFA ....|C-3 2F.A ....
....|..|G#3 3FCF ....|G#4 6FFF ....|C-4 2F.F ....
....|..|D#4 3FCA ....|G-4 6FFA ....|R-- .... ....
....|..|A#3 3FCF ....|G#4 6FFF ....|C-3 2F.7 ....
....|..|G#3 3FCA ....|G#4 6FFA ....|C-4 2F.A ....
 G#4|..|C-4 3FCF ....|G#4 6FFF ....|G#2 2A.F ....
....|..|A#3 3FCA ....|G#4 6FFA ....|--- .... ....
....|..|D#4 3FCF ....|G#4 6FFF ....|C-4 2F.7 ....
....|..|C-4 3FCA ....|G#4 6FFA ....|G#2 2F.A ....
....|..|G#3 3FCF ....|G#4 6FF7 ....|--- .... ....
....|..|D#4 3FCA ....|G#4 6FFA ....|R-- .... ....
....|..|A#3 3FCF ....|A#4 6FFF ....|G#2 2F.7 ....
....|..|G#3 3FCA ....|--- .... ....|--- .... ....
 G#4|..|C-4 3FCF ....|G#2 2A.F ....|G#2 2A.F ....
....|..|A#3 3FCA ....|A#4 6FFA ....|--- .... ....
....|..|D#4 3FCF ....|C-5 6FFF ....|R-- .... ....
....|..|C-4 3FCA ....|G#2 2F.A ....|G#2 2F.A ....
....|..|A#3 3FCF ....|A#4 6FFF ....|--- .... ....
....|..|D#4 3FCA ....|C-5 6FFA ....|R-- .... ....
....|..|C-4 3FCF ....|C-5 6FFF ....|G#2 2F.7 ....
....|..|A#3 3FCA ....|A#4 6FFA ....|--- .... ....
 A#3|..|D-4 3FCF ....|A#4 6FFF ....|A#2 2C.F ....
....|..|C-4 3FCA ....|C-5 6FFA ....|--- .... ....
....|..|F-4 3FCF ....|A#4 6FFF ....|R-- .... ....
....|..|D-4 3FCA ....|A#4 6FFA ....|A#2 2F.A ....
....|..|A#3 3FCF ....|G-4 6FFF ....|--- .... ....
....|..|F-4 3FCA ....|A#4 6FFA ....|R-- .... ....
....|..|C-4 3FCF ....|A#4 6FFF ....|A#2 2F.7 ....
....|..|A#3 3FCA ....|G-4 6FFA ....|--- .... ....
 A#3|..|D-4 3FCF ....|D#5 6FFF ....|A#2 2C.F ....
....|..|C-4 3FCA ....|A#4 6FFA ....|--- .... ....
....|..|F-4 3FCF ....|D#5 6FFF ....|R-- .... ....
....|..|D-4 3FCA ....|D#5 6FFA ....|A#2 2F.A ....

[Pattern36]
....|..|C-4 3FCF ....|D#5 6FFF ....|--- .... ....
....|..|F-4 3FCA ....|D#5 6FFA ....|R-- .... ....
....|..|D-4 3FCF ....|D-5 6FFF ....|A#2 2F.7 ....
....|..|C-4 3FCA ....|D#5 6FFA ....|--- .... ....
 C-3|..|D#4 3FCF ....|D-5 6FFF ....|C-3 2C.F ....
....|..|D-4 3FCA ....|D-5 6FFA ....|--- .... ....
....|..|G-4 3FCF ....|D-5 6FFF ....|R-- .... ....
....|..|D#4 3FCA ....|D-5 6FFA ....|C-3 2F.A ....
....|..|C-4 3FCF ....|C-5 6FFF ....|C-4 2F.F ....
....|..|G-4 3FCA ....|D-5 6FFA ....|R-- .... ....
....|..|D-4 3FCF ....|C-5 6FFF ....|C-3 2F.7 ....
....|..|C-4 3FCA ....|C-5 6FFA ....|C-4 2F.A ....
 C-3|..|D#4 3FCF ....|C-5 6FFF ....|C-3 2C.F ....
....|..|D-4 3FCA ....|C-5 6FFA ....|--- .... ....
....|..|G-4 3FCF ....|R-- .... ....|C-4 2F.7 ....
....|..|D#4 3FCA ....|C-5 6FFA ....|C-3 2F.A ....
....|..|C-4 3FCF ....|C-5 6FF7 ....|D#4 2F.F ....
....|..|G-4 3FCA ....|R-- .... ....|R-- .... ....
....|..|D-4 3FCF ....|C-5 6FF7 ....|C-3 2F.7 ....
....|..|C-4 3FCA ....|--- .... ....|D#4 2F.A ....
 C-3|..|D#4 3FCF ....|C-3 2C.F ....|C-3 2C.F ....
....|..|D-4 3FCA ....|--- .... ....|--- .... ....
....|..|G-4 3FCF ....|R-- .... ....|D#4 2F.7 ....
....|..|D#4 3FCA ....|C-3 2F.A ....|C-3 2F.A ....
....|..|F-4 3FCF ....|--- .... ....|G-4 2F.F ....
....|..|G-4 3FCA ....|R-- .... ....|R-- .... ....
....|..|D#4 3FCF ....|C-3 2F.7 ....|C-3 2F.7 ....
....|..|F-4 3FCA ....|--- .... ....|G-4 2F.A ....
 C-3|..|D-4 3FCF ....|A#4 6FFF ....|C-3 2C.F ....
....|..|D#4 3FCA ....|--- .... ....|--- .... ....
....|..|D#4 3FCF ....|R-- .... ....|G-4 2F.7 ....
....|..|D-4 3FCA ....|A#4 6FFA ....|C-3 2F.A ....
....|..|D#4 3FCF ....|A#4 6FFF ....|C-5 2F.F ....
....|..|D#4 3FCA ....|R-- .... ....|R-- .... ....
....|..|D#4 3FCF ....|A#4 6FF7 ....|C-3 2F.7 ....
....|..|D#4 3FCA ....|A#4 6FFA ....|C-5 2F.A ....
 G#4|..|D#4 3FCF ....|A#4 6FFF ....|G#2 2A.F ....
....|..|D#4 3FCA ....|--- .... ....|--- .... ....
....|..|D#4 3FCF ....|G#4 6FFF ....|C-5 2F.F ....
....|..|D#4 3FCA ....|A#4 6FFA ....|G#2 2F.A ....
....|..|G#3 3FCF ....|--- .... ....|R-- .... ....
....|..|D#4 3FCA ....|G#4 6FFA ....|C-5 2F.A ....
....|..|A#3 3FCF ....|A#4 6FFF ....|G#2 2F.7 ....
....|..|G#3 3FCA ....|--- .... ....|R-- .... ....
 G#4|..|C-4 3FCF ....|G#2 2A.F ....|G#2 2A.F ....
....|..|A#3 3FCA ....|A#4 6FFA ....|--- .... ....
....|..|D#4 3FCF ....|C-5 6FFF ....|R-- .... ....
....|..|C-4 3FCA ....|G#2 2F.A ....|G#2 2F.A ....
....|..|A#3 3FCF ....|A#4 6FFF ....|A#4 2F.F ....
....|..|D#4 3FCA ....|C-5 6FFA ....|R-- .... ....
....|..|C-4 3FCF ....|C-5 6FFF ....|G#2 2F.7 ....
....|..|A#3 3FCA ....|A#4 6FFA ....|A#4 2F.A ....
 A#3|..|D-4 3FCF ....|A#4 6FFF ....|A#2 2C.F ....
....|..|C-4 3FCA ....|C-5 6FFA ....|--- .... ....
....|..|F-4 3FCF ....|A#4 6FFF ....|A#4 2F.7 ....
....|..|D-4 3FCA ....|A#4 6FFA ....|A#2 2F.A ....
....|..|A#3 3FCF ....|G#4 6FFF ....|R-- .... ....
....|..|F-4 3FCA ....|A#4 6FFA ....|R-- .... ....
....|..|C-4 3FCF ....|A#4 6FFF ....|A#2 2F.7 ....
....|..|A#3 3FCA ....|G#4 6FFA ....|R-- .... ....
 A#3|..|D-4 3FCF ....|G#4 6FFF ....|A#2 2C.F ....
....|..|C-4 3FCA ....|A#4 6FFA ....|--- .... ....
....|..|F-4 3FCF ....|G-4 6FFF ....|R-- .... ....
....|..|D-4 3FCA ....|G#4 6FFA ....|A#2 2F.A ....

[Pattern37]
....|..|C-4 3FCF ....|G-4 6FFF ....|D#4 2F.F ....
....|..|F-4 3FCA ....|G-4 6FFA ....|R-- .... ....
....|..|D-4 3FCF ....|F-4 6FFF ....|A#2 2F.7 ....
....|..|C-4 3FCA ....|G-4 6FFA ....|D#4 2F.A ....
 C-3|..|D#4 3FCF ....|G-4 6FFF ....|C-3 2C.F ....
....|..|D-4 3FCA ....|F-4 6FFA ....|--- .... ....
....|..|G-4 3FCF ....|D#4 6FFF ....|D#4 2F.7 ....
....|..|D#4 3FCA ....|G-4 6FFA ....|C-3 2F.A ....
....|..|C-4 3FCF ....|G-4 6FFF ....|G-4 2F.F ....
....|..|G-4 3FCA ....|D#4 6FFA ....|R-- .... ....
....|..|D-4 3FCF ....|D#4 6FFF ....|C-3 2F.7 ....
....|..|C-4 3FCA ....|G-4 6FFA ....|G-4 2F.A ....
 C-3|..|D#4 3FCF ....|D#4 6FFF ....|C-3 2C.F ....
....|..|D-4 3FCA ....|D#4 6FFA ....|--- .... ....
....|..|G-4 3FCF ....|R-- .... ....|G-4 2F.7 ....
....|..|D#4 3FCA ....|D#4 6FFA ....|C-3 2F.A ....
....|..|C-4 3FCF ....|D#4 6FF7 ....|F-4 2F.F ....
....|..|G-4 3FCA ....|R-- .... ....|R-- .... ....
....|..|D-4 3FCF ....|D#4 6FF7 ....|C-3 2F.7 ....
....|..|C-4 3FCA ....|--- .... ....|F-4 2F.A ....
 C-3|..|D#4 3FCF ....|C-3 2C.F ....|C-3 2C.F ....
....|..|D-4 3FCA ....|--- .... ....|--- .... ....
....|..|G-4 3FCF ....|R-- .... ....|F-4 2F.7 ....
....|..|D#4 3FCA ....|C-3 2F.A ....|C-3 2F.A ....
....|..|F-4 3FCF ....|--- .... ....|D#4 2F.F ....
....|..|G-4 3FCA ....|R-- .... ....|R-- .... ....
....|..|D#4 3FCF ....|C-3 2F.7 ....|C-3 2F.7 ....
....|..|F-4 3FCA ....|--- .... ....|D#4 2F.A ....
 C-3|..|D-4 3FCF ....|F-4 6FFF ....|C-3 2C.F ....
....|..|D#4 3FCA ....|--- .... ....|--- .... ....
....|..|D#4 3FCF ....|G-4 6FFF ....|D#4 2F.7 ....
....|..|D-4 3FCA ....|F-4 6FFA ....|C-3 2F.A ....
....|..|G#3 3FCF ....|G#4 6FFF ....|C-4 2F.F ....
....|..|D#4 3FCA ....|G-4 6FFA ....|R-- .... ....
....|..|A#3 3FCF ....|G#4 6FFF ....|C-3 2F.7 ....
....|..|G#3 3FCA ....|G#4 6FFA ....|C-4 2F.A ....
 G#4|..|C-4 3FCF ....|G#4 6FFF ....|G#2 2A.F ....
....|..|A#3 3FCA ....|G#4 6FFA ....|--- .... ....
....|..|D#4 3FCF ....|G#4 6FFF ....|C-4 2F.7 ....
....|..|C-4 3FCA ....|G#4 6FFA ....|G#2 2F.A ....
....|..|G#3 3FCF ....|G#4 6FF7 ....|--- .... ....
....|..|D#4 3FCA ....|G#4 6FFA ....|R-- .... ....
....|..|A#3 3FCF ....|A#4 6FFF ....|G#2 2F.7 ....
....|..|G#3 3FCA ....|--- .... ....|--- .... ....
 G#4|..|C-4 3FCF ....|G#2 2A.F ....|G#2 2A.F ....
....|..|A#3 3FCA ....|A#4 6FFA ....|--- .... ....
....|..|D#4 3FCF ....|C-5 6FFF ....|R-- .... ....
....|..|C-4 3FCA ....|G#2 2F.A ....|G#2 2F.A ....
....|..|A#3 3FCF ....|A#4 6FFF ....|--- .... ....
....|..|D#4 3FCA ....|C-5 6FFA ....|R-- .... ....
....|..|C-4 3FCF ....|C-5 6FFF ....|G#2 2F.7 ....
....|..|A#3 3FCA ....|A#4 6FFA ....|--- .... ....
 A#3|..|D-4 3FCF ....|A#4 6FFF ....|A#2 2C.F ....
....|..|C-4 3FCA ....|C-5 6FFA ....|--- .... ....
....|..|F-4 3FCF ....|A#4 6FFF ....|R-- .... ....
....|..|D-4 3FCA ....|A#4 6FFA ....|A#2 2F.A ....
....|..|A#3 3FCF ....|G-4 6FFF ....|--- .... ....
....|..|F-4 3FCA ....|A#4 6FFA ....|R-- .... ....
....|..|C-4 3FCF ....|A#4 6FFF ....|A#2 2F.7 ....
....|..|A#3 3FCA ....|G-4 6FFA ....|--- .... ....
 A#3|..|D-4 3FCF ....|D#5 6FFF ....|A#2 2C.F ....
....|..|C-4 3FCA ....|A#4 6FFA ....|--- .... ....
....|..|F-4 3FCF ....|D#5 6FFF ....|R-- .... ....
....|..|D-4 3FCA ....|D#5 6FFA ....|A#2 2F.A ....

[Pattern38]
....|..|C-4 3FCF ....|D#5 6FFF ....|--- .... ....
....|..|F-4 3FCA ....|D#5 6FFA ....|R-- .... ....
....|..|D-4 3FCF ....|D-5 6FFF ....|A#2 2F.7 ....
....|..|C-4 3FCA ....|D#5 6FFA ....|--- .... ....
 C-3|..|D#4 3FCF ....|D-5 6FFF ....|C-3 2C.F ....
....|..|D-4 3FCA ....|D-5 6FFA ....|--- .... ....
....|..|G-4 3FCF ....|D-5 6FFF ....|R-- .... ....
....|..|D#4 3FCA ....|D-5 6FFA ....|C-3 2F.A ....
....|..|C-4 3FCF ....|C-5 6FFF ....|C-4 2F.F ....
....|..|G-4 3FCA ....|D-5 6FFA ....|R-- .... ....
....|..|D-4 3FCF ....|C-5 6FFF ....|C-3 2F.7 ....
....|..|C-4 3FCA ....|C-5 6FFA ....|C-4 2F.A ....
 C-3|..|D#4 3FCF ....|C-5 6FFF ....|C-3 2C.F ....
....|..|D-4 3FCA ....|C-5 6FFA ....|--- .... ....
....|..|G-4 3FCF ....|R-- .... ....|C-4 2F.7 ....
....|..|D#4 3FCA ....|C-5 6FFA ....|C-3 2F.A ....
....|..|C-4 3FCF ....|C-5 6FF7 ....|G-3 2F.F ....
....|..|G-4 3FCA ....|R-- .... ....|R-- .... ....
....|..|D-4 3FCF ....|C-5 6FF7 ....|C-3 2F.7 ....
....|..|C-4 3FCA ....|--- .... ....|G-3 2F.A ....
 C-3|..|D#4 3FCF ....|C-3 2C.F ....|C-3 2C.F ....
....|..|D-4 3FCA ....|--- .... ....|--- .... ....
....|..|G-4 3FCF ....|R-- .... ....|G-3 2F.7 ....
....|..|D#4 3FCA ....|C-3 2F.A ....|C-3 2F.A ....
....|..|F-4 3FCF ....|--- .... ....|D#3 2F.F ....
....|..|G-4 3FCA ....|R-- .... ....|R-- .... ....
....|..|D#4 3FCF ....|C-3 2F.7 ....|C-3 2F.7 ....
....|..|F-4 3FCA ....|--- .... ....|D#3 2F.A ....
 C-3|..|D-4 3FCF ....|C-3 2C.F ....|C-3 2C.F ....
....|..|D#4 3FCA ....|--- .... ....|--- .... ....
....|..|D#4 3FCF ....|R-- .... ....|D#3 2F.7 ....
....|..|D-4 3FCA ....|C-3 2F.A ....|C-3 2F.A ....
....|..|D#4 3FCF ....|G-4 4FEF ....|G-4 2FFF ....
....|..|D#4 3FCA ....|R-- .... ....|D#3 2F.F ....
....|..|D#4 3FCF ....|C-3 2F.7 ....|C-3 2F.7 ....
....|..|D#4 3FCA ....|G-4 4FEA ....|G-4 2FFA ....
 C-3|..|D#4 3FCF ....|C-3 2C.F ....|D#3 2F.F ....
....|..|D#4 3FCA ....|--- .... ....|--- .... ....
....|..|C-4 3FCF ....|R-- .... ....|G-4 2FFF ....
....|..|D#4 3FCA ....|C-3 2F.A ....|D#3 2F.A ....
....|..|D-4 3FCF ....|G-4 4FEF ....|--- .... ....
....|..|C-4 3FCA ....|R-- .... ....|G-4 2FFA ....
....|..|D#4 3FCF ....|C-3 2F.7 ....|R-- .... ....
....|..|D-4 3FCA ....|G-4 4FEA ....|--- .... ....
....|..|C-4 3FCF ....|C-4 4FEF ....|C-4 2FFF ....
....|..|D#4 3FCA ....|R-- .... ....|R-- .... ....
....|..|D-4 3FCF ....|R-- .... ....|R-- .... ....
....|..|C-4 3FCA ....|C-4 4FEA ....|C-4 2FFA ....
....|..|D#4 3FCF ....|--- .... ....|R-- .... ....
....|..|D-4 3FCA ....|R-- .... ....|R-- .... ....
....|..|C-4 3FCF ....|C-4 4FE7 ....|C-4 2FFF ....
....|..|D#4 3FCA ....|--- .... ....|--- .... ....
 C-3|..|D-4 3FCF ....|C-3 2C.F ....|C-4 2FFF ....
....|..|C-4 3FCA ....|--- .... ....|C-4 2FFA ....
....|..|D#4 3FCF ....|R-- .... ....|R-- .... ....
....|..|D-4 3FCA ....|C-3 2F.A ....|C-4 2FFA ....
....|..|C-4 3FCF ....|G-5 4FEF ....|C-4 2FF7 ....
....|..|D#4 3FCA ....|R-- .... ....|R-- .... ....
....|..|D-4 3FCF ....|D#5 4FEF ....|C-4 2FFA ....
....|..|C-4 3FCA ....|G-5 4FEA ....|--- .... ....
 C-3|..|D#4 3FCF ....|C-5 4FEF ....|C-3 2C.F ....
....|..|D-4 3FCA ....|D#5 4FEA ....|R-- .... ....
....|..|C-4 3FCF ....|G-6 4FEF ....|C-4 2FF7 ....
....|..|D#4 3FCA ....|C-5 4FEA ....|C-3 2F.A ....

[Pattern39]
....|..|D#4 3FCF ....|D#6 4FEF ....|C-4 2FF7 ....
....|..|C-4 3FCA ....|G-6 4FEA ....|R-- .... ....
....|..|F-4 3FCF ....|C-6 4FEF ....|C-3 2F.7 ....
....|..|D#4 3FCA ....|D#6 4FEA ....|--- .... ....
....|..|G-4 3FCF ....|G-5 4FEF ....|G-4 2FFF ....
....|..|F-4 3FCA ....|C-6 4FEA ....|--- .... ....
....|..|D#4 3FCF ....|D#5 4FEF ....|R-- .... ....
....|..|G-4 3FCA ....|G-5 4FEA ....|G-4 2FFA ....
....|..|F-4 3FCF ....|C-5 4FEF ....|F-4 2FFF ....
....|..|D#4 3FCA ....|D#5 4FEA ....|R-- .... ....
....|..|G-4 3FCF ....|G-4 4FEF ....|G-4 2FFF ....
....|..|F-4 3FCA ....|C-5 4FEA ....|F-4 2FFA ....
....|..|D#4 3FCF ....|D#4 4FEF ....|D#4 2FFF ....
....|..|G-4 3FCA ....|G-4 4FEA ....|G-4 2FFA ....
....|..|F-4 3FCF ....|C-4 4FEF ....|F-4 2FFF ....
....|..|D#4 3FCA ....|D#4 4FEA ....|D#4 2FFA ....
....|..|A#3 3FCF ....|G-3 4FEF ....|G-4 2FF7 ....
....|..|F-4 3FCA ....|C-4 4FEA ....|F-4 2FFA ....
....|..|C-4 3FCF ....|D#3 4FEF ....|F-4 2FFF ....
....|..|A#3 3FCA ....|G-3 4FEA ....|--- .... ....
....|..|D-4 3FCF ....|G-3 4FEF ....|F-4 2FFF ....
....|..|C-4 3FCA ....|D#3 4FEA ....|F-4 2FFA ....
....|..|A#3 3FCF ....|C-4 4FEF ....|G-4 2FF7 ....
....|..|D-4 3FCA ....|G-3 4FEA ....|F-4 2FFA ....
....|..|C-4 3FCF ....|D#4 4FEF ....|F-4 2FFF ....
....|..|A#3 3FCA ....|C-4 4FEA ....|R-- .... ....
....|..|D-4 3FCF ....|A#4 4FEF ....|F-4 2FF7 ....
....|..|C-4 3FCA ....|D#4 4FEA ....|F-4 2FFA ....
 A#3|..|C-4 3FCF ....|A#2 2C.F ....|A#2 2C.F ....
....|..|D-4 3FCA ....|A#4 4FEA ....|--- .... ....
....|..|A#3 3FCF ....|R-- .... ....|F-4 2FF7 ....
....|..|C-4 3FCA ....|A#2 2F.A ....|A#2 2F.A ....
....|..|C-4 3FCF ....|A#4 4FEF ....|G-4 2FFF ....
....|..|A#3 3FCA ....|R-- .... ....|R-- .... ....
....|..|D-4 3FCF ....|A#2 2F.7 ....|A#2 2F.7 ....
....|..|C-4 3FCA ....|A#4 4FEA ....|G-4 2FFA ....
 C-3|..|D#4 3FCF ....|C-3 2C.F ....|C-3 2C.F ....
....|..|D-4 3FCA ....|--- .... ....|--- .... ....
....|..|C-4 3FCF ....|R-- .... ....|G-4 2FFF ....
....|..|D#4 3FCA ....|C-3 2F.A ....|C-3 2F.A ....
....|..|D-4 3FCF ....|--- .... ....|--- .... ....
....|..|C-4 3FCA ....|R-- .... ....|G-4 2FFA ....
....|..|D#4 3FCF ....|C-3 2F.7 ....|R-- .... ....
....|..|D-4 3FCA ....|--- .... ....|--- .... ....
....|..|C-4 3FCF ....|A#4 4FEF ....|C-4 2FFF ....
....|..|D#4 3FCA ....|--- .... ....|R-- .... ....
....|..|D-4 3FCF ....|R-- .... ....|R-- .... ....
....|..|C-4 3FCA ....|A#4 4FEA ....|C-4 2FFA ....
....|..|D#4 3FCF ....|--- .... ....|R-- .... ....
....|..|D-4 3FCA ....|R-- .... ....|R-- .... ....
....|..|C-4 3FCF ....|A#4 4FE7 ....|C-4 2FFF ....
....|..|D#4 3FCA ....|--- .... ....|--- .... ....
 C-3|..|D-4 3FCF ....|C-3 2C.F ....|C-4 2FFF ....
....|..|C-4 3FCA ....|--- .... ....|C-4 2FFA ....
....|..|D#4 3FCF ....|R-- .... ....|R-- .... ....
....|..|D-4 3FCA ....|C-3 2F.A ....|C-4 2FFA ....
....|..|C-4 3FCF ....|--- .... ....|C-4 2FF7 ....
....|..|D#4 3FCA ....|R-- .... ....|R-- .... ....
....|..|D-4 3FCF ....|C-3 2F.7 ....|C-4 2FFA ....
....|..|C-4 3FCA ....|--- .... ....|--- .... ....
 C-3|..|D#4 3FCF ....|C-3 2C.F ....|C-3 2C.F ....
....|..|D-4 3FCA ....|--- .... ....|R-- .... ....
....|..|C-4 3FCF ....|R-- .... ....|C-4 2FF7 ....
....|..|D#4 3FCA ....|C-3 2F.A ....|C-3 2F.A ....

[Pattern40]
....|..|D#4 3FCF ....|A#4 4FEF ....|C-4 2FF7 ....
....|..|C-4 3FCA ....|R-- .... ....|R-- .... ....
....|..|F-4 3FCF ....|A#4 4FEF ....|C-3 2F.7 ....
....|..|D#4 3FCA ....|A#4 4FEA ....|--- .... ....
....|..|G-4 3FCF ....|A#4 4FEF ....|A#4 2FFF ....
....|..|F-4 3FCA ....|A#4 4FEA ....|--- .... ....
....|..|D#4 3FCF ....|A#4 4FEF ....|R-- .... ....
....|..|G-4 3FCA ....|A#4 4FEA ....|A#4 2FFA ....
....|..|F-4 3FCF ....|A#4 4FEF ....|A#4 2FFF ....
....|..|D#4 3FCA ....|A#4 4FEA ....|R-- .... ....
....|..|G-4 3FCF ....|A#4 4FEF ....|A#4 2FFF ....
....|..|F-4 3FCA ....|A#4 4FEA ....|A#4 2FFA ....
....|..|D#4 3FCF ....|D#5 4FEF ....|G-4 2FFF ....
....|..|G-4 3FCA ....|A#4 4FEA ....|A#4 2FFA ....
....|..|F-4 3FCF ....|F-5 4FEF ....|A#4 2FFF ....
....|..|D#4 3FCA ....|D#5 4FEA ....|G-4 2FFA ....
....|..|A#3 3FCF ....|A#4 4FE7 ....|A#4 2FF7 ....
....|..|F-4 3FCA ....|F-5 4FEA ....|A#4 2FFA ....
....|..|C-4 3FCF ....|D#5 4FE7 ....|G-4 2FFF ....
....|..|A#3 3FCA ....|--- .... ....|--- .... ....
 A#3|..|D-4 3FCF ....|A#2 2C.F ....|F-4 2FFF ....
....|..|C-4 3FCA ....|--- .... ....|G-4 2FFA ....
....|..|A#3 3FCF ....|R-- .... ....|A#4 2FF7 ....
....|..|D-4 3FCA ....|A#2 2F.A ....|F-4 2FFA ....
....|..|C-4 3FCF ....|--- .... ....|F-4 2FFF ....
....|..|A#3 3FCA ....|R-- .... ....|R-- .... ....
....|..|D-4 3FCF ....|A#2 2F.7 ....|F-4 2FF7 ....
....|..|C-4 3FCA ....|--- .... ....|F-4 2FFA ....
....|..|C-4 3FCF ....|A#4 4FEF ....|F-4 2FFF ....
....|..|D-4 3FCA ....|--- .... ....|--- .... ....
....|..|A#3 3FCF ....|A#4 4FEF ....|F-4 2FFF ....
....|..|C-4 3FCA ....|A#4 4FEA ....|F-4 2FFA ....
....|..|C-4 3FCF ....|A#4 4FEF ....|G-4 2FFF ....
....|..|A#3 3FCA ....|A#4 4FEA ....|F-4 2FFA ....
....|..|D-4 3FCF ....|A#4 4FE7 ....|F-4 2FFA ....
....|..|C-4 3FCA ....|A#4 4FEA ....|G-4 2FFA ....
 C-3|..|D#4 3FCF ....|C-3 2C.F ....|F-4 2FFF ....
....|..|D-4 3FCA ....|--- .... ....|--- .... ....
....|..|C-4 3FCF ....|G-4 4FEF ....|G-4 2FFF ....
....|..|D#4 3FCA ....|C-3 2F.A ....|F-4 2FFA ....
....|..|D-4 3FCF ....|G-4 4FEF ....|F-4 2FF7 ....
....|..|C-4 3FCA ....|G-4 4FEA ....|G-4 2FFA ....
....|..|D#4 3FCF ....|C-3 2F.7 ....|F-4 2FF7 ....
....|..|D-4 3FCA ....|G-4 4FEA ....|--- .... ....
....|..|C-4 3FCF ....|C-4 4FEF ....|C-4 2FFF ....
....|..|D#4 3FCA ....|--- .... ....|R-- .... ....
....|..|D-4 3FCF ....|R-- .... ....|R-- .... ....
....|..|C-4 3FCA ....|C-4 4FEA ....|C-4 2FFA ....
....|..|D#4 3FCF ....|--- .... ....|F-4 2FF7 ....
....|..|D-4 3FCA ....|R-- .... ....|R-- .... ....
....|..|C-4 3FCF ....|C-4 4FE7 ....|C-4 2FFF ....
....|..|D#4 3FCA ....|--- .... ....|--- .... ....
 C-3|..|D-4 3FCF ....|C-3 2C.F ....|C-4 2FFF ....
....|..|C-4 3FCA ....|--- .... ....|C-4 2FFA ....
....|..|D#4 3FCF ....|R-- .... ....|R-- .... ....
....|..|D-4 3FCA ....|C-3 2F.A ....|C-4 2FFA ....
....|..|C-4 3FCF ....|G-5 4FEF ....|C-4 2FF7 ....
....|..|D#4 3FCA ....|R-- .... ....|R-- .... ....
....|..|D-4 3FCF ....|D#5 4FEF ....|C-4 2FFA ....
....|..|C-4 3FCA ....|G-5 4FEA ....|--- .... ....
 C-3|..|D#4 3FCF ....|C-5 4FEF ....|C-3 2C.F ....
....|..|D-4 3FCA ....|D#5 4FEA ....|R-- .... ....
....|..|C-4 3FCF ....|G-6 4FEF ....|C-4 2FF7 ....
....|..|D#4 3FCA ....|C-5 4FEA ....|C-3 2F.A ....

[Pattern41]
....|..|D#4 3FCF ....|D#6 4FEF ....|C-4 2FF7 ....
....|..|C-4 3FCA ....|G-6 4FEA ....|R-- .... ....
....|..|F-4 3FCF ....|C-6 4FEF ....|C-3 2F.7 ....
....|..|D#4 3FCA ....|D#6 4FEA ....|--- .... ....
....|..|G-4 3FCF ....|G-5 4FEF ....|G-4 2FFF ....
....|..|F-4 3FCA ....|C-6 4FEA ....|--- .... ....
....|..|D#4 3FCF ....|D#5 4FEF ....|R-- .... ....
....|..|G-4 3FCA ....|G-5 4FEA ....|G-4 2FFA ....
....|..|F-4 3FCF ....|C-5 4FEF ....|F-4 2FFF ....
....|..|D#4 3FCA ....|D#5 4FEA ....|R-- .... ....
....|..|G-4 3FCF ....|G-4 4FEF ....|G-4 2FFF ....
....|..|F-4 3FCA ....|C-5 4FEA ....|F-4 2FFA ....
....|..|D#4 3FCF ....|D#4 4FEF ....|D#4 2FFF ....
....|..|G-4 3FCA ....|G-4 4FEA ....|G-4 2FFA ....
....|..|F-4 3FCF ....|C-4 4FEF ....|F-4 2FFF ....
....|..|D#4 3FCA ....|D#4 4FEA ....|D#4 2FFA ....
....|..|A#3 3FCF ....|G-3 4FEF ....|G-4 2FF7 ....
....|..|F-4 3FCA ....|C-4 4FEA ....|F-4 2FFA ....
....|..|C-4 3FCF ....|D#3 4FEF ....|F-4 2FFF ....
....|..|A#3 3FCA ....|G-3 4FEA ....|--- .... ....
....|..|D-4 3FCF ....|G-3 4FEF ....|F-4 2FFF ....
....|..|C-4 3FCA ....|D#3 4FEA ....|F-4 2FFA ....
....|..|A#3 3FCF ....|C-4 4FEF ....|G-4 2FF7 ....
....|..|D-4 3FCA ....|G-3 4FEA ....|F-4 2FFA ....
....|..|C-4 3FCF ....|D#4 4FEF ....|F-4 2FFF ....
....|..|A#3 3FCA ....|C-4 4FEA ....|R-- .... ....
....|..|D-4 3FCF ....|A#4 4FEF ....|F-4 2FF7 ....
....|..|C-4 3FCA ....|D#4 4FEA ....|F-4 2FFA ....
 A#3|..|C-4 3FCF ....|A#2 2C.F ....|A#2 2C.F ....
....|..|D-4 3FCA ....|A#4 4FEA ....|--- .... ....
....|..|A#3 3FCF ....|R-- .... ....|F-4 2FF7 ....
....|..|C-4 3FCA ....|A#2 2F.A ....|A#2 2F.A ....
....|..|C-4 3FCF ....|A#4 4FEF ....|G-4 2FFF ....
....|..|A#3 3FCA ....|R-- .... ....|R-- .... ....
....|..|D-4 3FCF ....|A#2 2F.7 ....|A#2 2F.7 ....
....|..|C-4 3FCA ....|A#4 4FEA ....|G-4 2FFA ....
 C-3|..|D#4 3FCF ....|C-3 2C.F ....|C-3 2C.F ....
....|..|D-4 3FCA ....|--- .... ....|--- .... ....
....|..|C-4 3FCF ....|R-- .... ....|G-4 2FFF ....
....|..|D#4 3FCA ....|C-3 2F.A ....|C-3 2F.A ....
....|..|D-4 3FCF ....|--- .... ....|--- .... ....
....|..|C-4 3FCA ....|R-- .... ....|G-4 2FFA ....
....|..|D#4 3FCF ....|C-3 2F.7 ....|R-- .... ....
....|..|D-4 3FCA ....|--- .... ....|--- .... ....
....|..|C-4 3FCF ....|A#4 4FEF ....|C-4 2FFF ....
....|..|D#4 3FCA ....|--- .... ....|R-- .... ....
....|..|D-4 3FCF ....|R-- .... ....|R-- .... ....
....|..|C-4 3FCA ....|A#4 4FEA ....|C-4 2FFA ....
....|..|D#4 3FCF ....|--- .... ....|R-- .... ....
....|..|D-4 3FCA ....|R-- .... ....|R-- .... ....
....|..|C-4 3FCF ....|A#4 4FE7 ....|C-4 2FFF ....
....|..|D#4 3FCA ....|--- .... ....|--- .... ....
 C-3|..|D-4 3FCF ....|C-3 2C.F ....|C-4 2FFF ....
....|..|C-4 3FCA ....|--- .... ....|C-4 2FFA ....
....|..|D#4 3FCF ....|R-- .... ....|R-- .... ....
....|..|D-4 3FCA ....|C-3 2F.A ....|C-4 2FFA ....
....|..|C-4 3FCF ....|C-4 4FEF ....|C-4 2FF7 ....
....|..|D#4 3FCA ....|R-- .... ....|R-- .... ....
....|..|D-4 3FCF ....|C-3 2F.7 ....|C-4 2FFA ....
....|..|C-4 3FCA ....|C-4 4FEA ....|--- .... ....
 C-3|..|D#4 3FCF ....|C-3 2C.F ....|C-3 2C.F ....
....|..|D-4 3FCA ....|--- .... ....|R-- .... ....
....|..|C-4 3FCF ....|R-- .... ....|C-4 2FF7 ....
....|..|D#4 3FCA ....|C-3 2F.A ....|C-3 2F.A ....

[Pattern42]
....|..|D#4 3FCF ....|D#3 4FEF ....|C-4 2FF7 ....
....|..|C-4 3FCA ....|R-- .... ....|R-- .... ....
....|..|F-4 3FCF ....|G-3 4FEF ....|C-3 2F.7 ....
....|..|D#4 3FCA ....|D#3 4FEA ....|--- .... ....
....|..|G-4 3FCF ....|A#3 4FEF ....|A#4 2FFF ....
....|..|F-4 3FCA ....|G-3 4FEA ....|--- .... ....
....|..|D#4 3FCF ....|D#4 4FEF ....|R-- .... ....
....|..|G-4 3FCA ....|A#3 4FEA ....|A#4 2FFA ....
....|..|F-4 3FCF ....|G-4 4FEF ....|A#4 2FFF ....
....|..|D#4 3FCA ....|D#4 4FEA ....|R-- .... ....
....|..|G-4 3FCF ....|A#4 4FEF ....|A#4 2FFF ....
....|..|F-4 3FCA ....|G-4 4FEA ....|A#4 2FFA ....
....|..|D#4 3FCF ....|D#5 4FEF ....|G-4 2FFF ....
....|..|G-4 3FCA ....|A#4 4FEA ....|A#4 2FFA ....
....|..|F-4 3FCF ....|F-5 4FEF ....|A#4 2FFF ....
....|..|D#4 3FCA ....|D#5 4FEA ....|G-4 2FFA ....
....|..|A#3 3FCF ....|A#4 4FE7 ....|A#4 2FF7 ....
....|..|F-4 3FCA ....|F-5 4FEA ....|A#4 2FFA ....
....|..|C-4 3FCF ....|D#5 4FE7 ....|G-4 2FFF ....
....|..|A#3 3FCA ....|--- .... ....|--- .... ....
 A#3|..|D-4 3FCF ....|A#2 2C.F ....|F-4 2FFF ....
....|..|C-4 3FCA ....|--- .... ....|G-4 2FFA ....
....|..|A#3 3FCF ....|R-- .... ....|A#4 2FF7 ....
....|..|D-4 3FCA ....|A#2 2F.A ....|F-4 2FFA ....
....|..|C-4 3FCF ....|--- .... ....|F-4 2FFF ....
....|..|A#3 3FCA ....|R-- .... ....|R-- .... ....
....|..|D-4 3FCF ....|A#2 2F.7 ....|F-4 2FF7 ....
....|..|C-4 3FCA ....|--- .... ....|F-4 2FFA ....
 A#3|..|C-4 3FCF ....|A#2 2C.F ....|A#2 2C.F ....
....|..|D-4 3FCA ....|--- .... ....|--- .... ....
....|..|A#3 3FCF ....|R-- .... ....|G-4 2FF7 ....
....|..|C-4 3FCA ....|A#2 2F.A ....|A#2 2F.A ....
....|..|D-4 3FC7 ....|C-5 6FFF ....|G-4 2FFF ....
....|..|A#3 3FCA ....|R-- .... ....|R-- .... ....
....|..|C-4 3FC7 ....|A#2 2F.7 ....|R-- .... ....
....|..|A#3 UF37 ....|C-5 6FFA ....|G-4 2FFA ....
....|..|A#3 UF3A ....|C-5 6FFF ....|F-4 2FF7 ....
....|..|A#3 UF37 ....|--- .... ....|R-- .... ....
....|..|R-- .... ....|C-4 6FFF ....|G-4 2FFA ....
....|..|--- .... ....|C-5 6FFA ....|--- .... ....
....|..|A#3 UF37 ....|G-4 6FFF ....|G-4 2FFF ....
....|..|R-- .... ....|C-4 6FFA ....|--- .... ....
....|..|A#3 UF37 ....|F-4 6FFF ....|R-- .... ....
....|..|--- .... ....|G-4 6FFA ....|G-4 2FFA ....
....|..|R-- .... ....|G-4 6FFF ....|G-4 2FF7 ....
....|..|--- .... ....|F-4 6FFA ....|R-- .... ....
....|..|--- .... ....|F-4 6FFF ....|G-4 2FFA ....
....|..|--- .... ....|G-4 6FFA ....|--- .... ....
....|..|--- .... ....|D#4 6FFF ....|R-- .... ....
....|..|--- .... ....|F-4 6FFA ....|--- .... ....
....|..|R-- .... ....|D#4 6FFF ....|--- .... ....
....|..|--- .... ....|D#4 6FFA ....|--- .... ....
....|..|--- .... ....|D#4 6FFF ....|G-4 2FF7 ....
....|..|--- .... ....|D#4 6FFA ....|--- .... ....
....|..|--- .... ....|D#4 6FFF ....|R-- .... ....
....|..|--- .... ....|D#4 6FFA ....|--- .... ....
....|..|--- .... ....|G-4 6FFF ....|--- .... ....
....|..|--- .... ....|D#4 6FFA ....|--- .... ....
....|..|--- .... ....|G-4 6FFF ....|--- .... ....
....|..|--- .... ....|G-4 6FFA ....|--- .... ....
....|..|--- .... ....|G-4 6FFF ....|--- .... ....
....|..|--- .... ....|G-4 6FFA ....|--- .... ....
....|..|--- .... ....|F-4 6FFF ....|--- .... ....
....|..|--- .... ....|G-4 6FFA ....|--- .... ....

[Pattern43]
....|..|--- .... ....|G-4 6FFF ....|A#4 2FFF ....
....|..|--- .... ....|F-4 6FFA ....|--- .... ....
....|..|--- .... ....|F-4 6FFF ....|R-- .... ....
....|..|--- .... ....|G-4 6FFA ....|A#4 2FFA ....
....|..|--- .... ....|A#4 6FFF ....|--- .... ....
....|..|--- .... ....|F-4 6FFA ....|R-- .... ....
....|..|--- .... ....|A#4 6FFF ....|A#4 2FFA ....
....|..|--- .... ....|A#4 6FFA ....|--- .... ....
....|..|--- .... ....|A#4 6FFF ....|A#4 2FFF ....
....|..|--- .... ....|A#4 6FFA ....|--- .... ....
....|..|--- .... ....|G-4 6FFF ....|R-- .... ....
....|..|--- .... ....|A#4 6FFA ....|A#4 2FFA ....
....|..|--- .... ....|G#4 6FFF ....|A#4 2FF7 ....
....|..|--- .... ....|G-4 6FFA ....|R-- .... ....
....|..|--- .... ....|G-4 6FFF ....|A#4 2FFA ....
....|..|--- .... ....|G#4 6FFA ....|--- .... ....
....|..|--- .... ....|G#4 6FFF ....|F-4 2FFF ....
....|..|--- .... ....|G-4 6FFA ....|--- .... ....
....|..|--- .... ....|F-4 6FFF ....|R-- .... ....
....|..|--- .... ....|G#4 6FFA ....|F-4 2FFA ....
....|..|--- .... ....|F-4 6FFF ....|A#4 2FF7 ....
....|..|--- .... ....|F-4 6FFA ....|R-- .... ....
....|..|--- .... ....|F-4 6FFF ....|F-4 2FFA ....
....|..|--- .... ....|F-4 6FFA ....|--- .... ....
....|..|--- .... ....|D#4 6FFF ....|F-4 2FFF ....
....|..|--- .... ....|F-4 6FFA ....|--- .... ....
....|..|--- .... ....|F-4 6FFF ....|R-- .... ....
....|..|--- .... ....|D#4 6FFA ....|F-4 2FFA ....
....|..|--- .... ....|D#4 6FFF ....|G-4 2FFF ....
....|..|--- .... ....|F-4 6FFA ....|R-- .... ....
....|..|--- .... ....|D#4 6FFF ....|F-4 2FFA ....
....|..|--- .... ....|D#4 6FFA ....|G-4 2FFA ....
....|..|--- .... ....|C-5 6FFF ....|G-4 2FFF ....
....|..|--- .... ....|D#4 6FFA ....|--- .... ....
....|..|--- .... ....|C-5 6FFF ....|G-4 2FFA ....
....|..|--- .... ....|C-5 6FFA ....|G-4 2FFA ....
....|..|--- .... ....|C-5 6FFF ....|G-4 2FFF ....
....|..|--- .... ....|C-5 6FFA ....|R-- .... ....
....|..|--- .... ....|C-4 6FFF ....|G-4 2FFA ....
....|..|--- .... ....|C-5 6FFA ....|G-4 2FFA ....
....|..|--- .... ....|C-4 6FFF ....|G-4 2FFF ....
....|..|--- .... ....|C-4 6FFA ....|R-- .... ....
....|..|--- .... ....|D-4 6FFF ....|G-4 2FFA ....
....|..|--- .... ....|C-4 6FFA ....|G-4 2FFA ....
....|..|--- .... ....|D#4 6FFF ....|G-4 2FF7 ....
....|..|--- .... ....|D-4 6FFA ....|R-- .... ....
....|..|--- .... ....|G-4 6FFF ....|G-4 2FFA ....
....|..|--- .... ....|D#4 6FFA ....|--- .... ....
....|..|--- .... ....|G-4 6FFF ....|G-4 2FF7 ....
....|..|--- .... ....|G-4 6FFA ....|--- .... ....
....|..|--- .... ....|C-5 6FFF ....|R-- .... ....
....|..|--- .... ....|G-4 6FFA ....|--- .... ....
....|..|--- .... ....|C-5 6FFF ....|G-4 2FF7 ....
....|..|--- .... ....|C-5 6FFA ....|--- .... ....
....|..|--- .... ....|C-5 6FFF ....|R-- .... ....
....|..|--- .... ....|C-5 6FFA ....|--- .... ....
....|..|--- .... ....|C-5 6FFF ....|--- .... ....
....|..|--- .... ....|C-5 6FFA ....|--- .... ....
....|..|--- .... ....|C-5 6FFF ....|--- .... ....
....|..|--- .... ....|C-5 6FFA ....|--- .... ....
....|..|--- .... ....|F-4 6FFF ....|--- .... ....
....|..|--- .... ....|C-5 6FFA ....|--- .... ....
....|..|--- .... ....|F-4 6FFF ....|--- .... ....
....|..|--- .... ....|F-4 6FFA ....|--- .... ....

[Pattern44]
....|..|--- .... ....|G#4 6FFF ....|G#4 2FFF ....
....|..|--- .... ....|F-4 6FFA ....|--- .... ....
....|..|--- .... ....|G#4 6FFF ....|R-- .... ....
....|..|--- .... ....|G#4 6FFA ....|G#4 2FFA ....
....|..|--- .... ....|G#4 6FFF ....|--- .... ....
....|..|--- .... ....|G#4 6FFA ....|R-- .... ....
....|..|--- .... ....|G#4 6FFF ....|G#4 2FFA ....
....|..|--- .... ....|G#4 6FFA ....|--- .... ....
....|..|--- .... ....|G#4 6FFF ....|G#4 2FFF ....
....|..|--- .... ....|G#4 6FFA ....|--- .... ....
....|..|--- .... ....|G#4 6FFF ....|R-- .... ....
....|..|--- .... ....|G#4 6FFA ....|G#4 2FFA ....
....|..|--- .... ....|D#5 6FFF ....|G#4 2FF7 ....
....|..|--- .... ....|G#4 6FFA ....|R-- .... ....
....|..|--- .... ....|D-5 6FFF ....|G#4 2FFA ....
....|..|--- .... ....|D#5 6FFA ....|--- .... ....
....|..|--- .... ....|D#5 6FFF ....|F-4 2FFF ....
....|..|--- .... ....|D-5 6FFA ....|--- .... ....
....|..|--- .... ....|D-5 6FFF ....|R-- .... ....
....|..|--- .... ....|D#5 6FFA ....|F-4 2FFA ....
....|..|--- .... ....|A#4 6FFF ....|G#4 2FF7 ....
....|..|--- .... ....|D-5 6FFA ....|R-- .... ....
....|..|--- .... ....|D-5 6FFF ....|F-4 2FFA ....
....|..|--- .... ....|A#4 6FFA ....|--- .... ....
....|..|--- .... ....|D-5 6FFF ....|F-4 2FFF ....
....|..|--- .... ....|D-5 6FFA ....|--- .... ....
....|..|--- .... ....|D#5 6FFF ....|F-4 2FFF ....
....|..|--- .... ....|D-5 6FFA ....|F-4 2FFA ....
....|..|--- .... ....|D#5 6FFF ....|F-4 2FFF ....
....|..|--- .... ....|D#5 6FFA ....|F-4 2FFA ....
....|..|--- .... ....|F-5 6FFF ....|F-4 2FFA ....
....|..|--- .... ....|D#5 6FFA ....|F-4 2FFA ....
....|..|C-5 3FCF ....|C-5 4FEF ....|G-4 2FFF ....
....|..|--- .... ....|F-5 6FFF ....|--- .... ....
....|..|C-4 3FCF ....|F-5 6FFA ....|F-4 2FFF ....
....|..|C-5 3FCA ....|C-5 4FEA ....|G-4 2FFA ....
 C-3|..|D#4 3FCF ....|C-5 4FEF ....|C-3 2C.F ....
....|..|C-4 3FCA ....|D#5 6FF7 ....|F-4 2FFA ....
....|..|D-4 3FCF ....|C-4 6FFF ....|F-4 2FF7 ....
....|..|D#4 3FCA ....|C-5 4FEA ....|C-3 2F.A ....
....|..|C-5 3FCF ....|G-4 4FEF ....|G-4 2FFF ....
....|..|D-4 3FCA ....|F-5 6FFA ....|R-- .... ....
....|..|C-4 3FCF ....|F-4 6FFF ....|R-- .... ....
....|..|C-5 3FCA ....|G-4 4FEA ....|G-4 2FFA ....
 C-3|..|D#4 3FCF ....|C-5 4FEF ....|C-3 2C.F ....
....|..|C-4 3FCA ....|G-4 6FFA ....|R-- .... ....
....|..|D-4 3FCF ....|F-4 6FFF ....|F-4 2FF7 ....
....|..|D#4 3FCA ....|C-5 4FEA ....|C-3 2F.A ....
....|..|C-5 3FCF ....|C-5 4FEF ....|R-- .... ....
....|..|D-4 3FCA ....|G-4 6FFA ....|R-- .... ....
....|..|C-4 3FCF ....|D#4 6FFF ....|C-3 2F.7 ....
....|..|C-5 3FCA ....|C-5 4FEA ....|--- .... ....
 C-3|..|D#4 3FCF ....|C-5 4FEF ....|C-3 2C.F ....
....|..|C-4 3FCA ....|D#4 6FFA ....|--- .... ....
....|..|D-4 3FCF ....|D#4 6FFF ....|R-- .... ....
....|..|D#4 3FCA ....|C-5 4FEA ....|C-3 2F.A ....
....|..|C-5 3FCF ....|C-5 4FEF ....|--- .... ....
....|..|D-4 3FCA ....|D#4 6FFA ....|R-- .... ....
....|..|C-4 3FCF ....|G-4 6FFF ....|C-3 2F.7 ....
....|..|C-5 3FCA ....|C-5 4FEA ....|--- .... ....
 C-3|..|D#4 3FCF ....|C-5 4FEF ....|C-3 2C.F ....
....|..|C-4 3FCA ....|G-4 6FFA ....|--- .... ....
....|..|D-4 3FCF ....|F-4 6FFF ....|R-- .... ....
....|..|D#4 3FCA ....|C-5 4FEA ....|C-3 2F.A ....

[Pattern45]
....|..|D#5 3FCF ....|D#5 4FEF ....|A#4 2FFF ....
....|..|D-4 3FCA ....|G-4 6FFA ....|R-- .... ....
....|..|D#4 3FCF ....|F-4 6FFF ....|R-- .... ....
....|..|D#5 3FCA ....|D#5 4FEA ....|A#4 2FFA ....
 D#4|..|G-4 3FCF ....|D#5 4FEF ....|D#3 2C.F ....
....|..|D#4 3FCA ....|G-4 6FFA ....|R-- .... ....
....|..|F-4 3FCF ....|A#4 6FFF ....|A#4 2FFA ....
....|..|G-4 3FCA ....|D#5 4FEA ....|D#3 2F.A ....
....|..|D#5 3FCF ....|A#4 4FEF ....|A#4 2FFF ....
....|..|F-4 3FCA ....|A#4 6FFA ....|R-- .... ....
....|..|D#4 3FCF ....|G-4 6FFF ....|R-- .... ....
....|..|D#5 3FCA ....|A#4 4FEA ....|A#4 2FFA ....
 D#4|..|G-4 3FCF ....|D#5 4FEF ....|D#3 2C.F ....
....|..|D#4 3FCA ....|A#4 6FFA ....|R-- .... ....
....|..|F-4 3FCF ....|G-4 6FFF ....|A#4 2FFA ....
....|..|G-4 3FCA ....|D#5 4FEA ....|D#3 2F.A ....
....|..|A#4 3FCF ....|D#5 4FEF ....|F-4 2FFF ....
....|..|F-4 3FCA ....|G#4 6FFA ....|R-- .... ....
....|..|A#3 3FCF ....|F-4 6FFF ....|R-- .... ....
....|..|A#4 3FCA ....|D#5 4FEA ....|F-4 2FFA ....
 A#3|..|D-4 3FCF ....|A#4 4FEF ....|A#2 2C.F ....
....|..|A#3 3FCA ....|G#4 6FFA ....|R-- .... ....
....|..|C-4 3FCF ....|F-4 6FFF ....|F-4 2FFA ....
....|..|D-4 3FCA ....|A#4 4FEA ....|A#2 2F.A ....
....|..|A#4 3FCF ....|A#4 4FEF ....|F-4 2FFF ....
....|..|C-4 3FCA ....|F-4 6FFA ....|R-- .... ....
....|..|A#3 3FCF ....|F-4 6FFF ....|R-- .... ....
....|..|A#4 3FCA ....|A#4 4FEA ....|F-4 2FFA ....
....|..|C-4 3FCF ....|A#4 4FEF ....|G-4 2FFF ....
....|..|A#3 3FCA ....|D#4 6FFA ....|R-- .... ....
....|..|D-4 3FCF ....|D#4 6FFF ....|F-4 2FFA ....
....|..|C-4 3FCA ....|A#4 4FEA ....|G-4 2FFA ....
....|..|C-5 3FCF ....|C-5 4FEF ....|G-4 2FFF ....
....|..|D-4 3FCA ....|D#4 6FFA ....|R-- .... ....
....|..|C-4 3FCF ....|C-5 6FFF ....|G-4 2FFA ....
....|..|C-5 3FCA ....|C-5 4FEA ....|G-4 2FFA ....
....|..|D#4 3FCF ....|C-5 4FEF ....|G-4 2FFF ....
....|..|C-4 3FCA ....|C-5 6FFA ....|R-- .... ....
....|..|D-4 3FCF ....|C-4 6FFF ....|G-4 2FFA ....
....|..|D#4 3FCA ....|C-5 4FEA ....|G-4 2FFA ....
....|..|C-5 3FCF ....|G-4 4FEF ....|G-4 2FFF ....
....|..|D-4 3FCA ....|C-5 6FFA ....|R-- .... ....
....|..|C-4 3FCF ....|D-4 6FFF ....|G-4 2FFA ....
....|..|C-5 3FCA ....|G-4 4FEA ....|G-4 2FFA ....
 C-3|..|D#4 3FCF ....|C-5 4FEF ....|C-3 2C.F ....
....|..|C-4 3FCA ....|C-4 6FFA ....|R-- .... ....
....|..|D-4 3FCF ....|G-4 6FFF ....|G-4 2FFA ....
....|..|D#4 3FCA ....|C-5 4FEA ....|C-3 2F.A ....
....|..|C-5 3FCF ....|C-5 4FEF ....|G-4 2FF7 ....
....|..|D-4 3FCA ....|D#4 6FFA ....|R-- .... ....
....|..|C-4 3FCF ....|C-5 6FFF ....|C-3 2F.7 ....
....|..|C-5 3FCA ....|C-5 4FEA ....|--- .... ....
 C-3|..|D#4 3FCF ....|C-5 4FEF ....|C-3 2C.F ....
....|..|C-4 3FCA ....|G-4 6FFA ....|--- .... ....
....|..|D-4 3FCF ....|C-5 6FFF ....|R-- .... ....
....|..|D#4 3FCA ....|C-5 4FEA ....|C-3 2F.A ....
....|..|C-5 3FCF ....|C-5 4FEF ....|--- .... ....
....|..|D-4 3FCA ....|C-5 6FFA ....|R-- .... ....
....|..|C-4 3FCF ....|C-5 6FFF ....|C-3 2F.7 ....
....|..|C-5 3FCA ....|C-5 4FEA ....|--- .... ....
 C-3|..|D#4 3FCF ....|C-5 4FEF ....|C-3 2C.F ....
....|..|C-4 3FCA ....|C-5 6FFA ....|--- .... ....
....|..|D-4 3FCF ....|F-4 6FFF ....|R-- .... ....
....|..|D#4 3FCA ....|C-5 4FEA ....|C-3 2F.A ....

[Pattern46]
....|..|G#4 3FCF ....|C-5 4FEF ....|G#4 2FFF ....
....|..|D-4 3FCA ....|F-4 6FFA ....|R-- .... ....
....|..|G#3 3FCF ....|G#4 6FFF ....|R-- .... ....
....|..|G#4 3FCA ....|C-5 4FEA ....|G#4 2FFA ....
 G#4|..|C-4 3FCF ....|G#4 4FEF ....|G#2 2A.F ....
....|..|G#3 3FCA ....|G#4 6FFA ....|R-- .... ....
....|..|A#3 3FCF ....|G#4 6FFF ....|G#4 2FFA ....
....|..|C-4 3FCA ....|G#4 4FEA ....|G#2 2F.A ....
....|..|G#4 3FCF ....|D#4 4FEF ....|G#4 2FFF ....
....|..|A#3 3FCA ....|G#4 6FFA ....|R-- .... ....
....|..|G#3 3FCF ....|G#4 6FFF ....|R-- .... ....
....|..|G#4 3FCA ....|D#4 4FEA ....|G#4 2FFA ....
 G#4|..|C-4 3FCF ....|G#4 4FEF ....|G#2 2A.F ....
....|..|G#3 3FCA ....|G#4 6FFA ....|R-- .... ....
....|..|A#3 3FCF ....|D-5 6FFF ....|G#4 2FFA ....
....|..|C-4 3FCA ....|G#4 4FEA ....|G#2 2F.A ....
....|..|A#4 3FCF ....|A#4 4FEF ....|F-4 2FFF ....
....|..|A#3 3FCA ....|D#5 6FFA ....|R-- .... ....
....|..|A#3 3FCF ....|D-5 6FFF ....|R-- .... ....
....|..|A#4 3FCA ....|A#4 4FEA ....|F-4 2FFA ....
 A#3|..|D-4 3FCF ....|A#4 4FEF ....|A#2 2C.F ....
....|..|A#3 3FCA ....|D#5 6FFA ....|R-- .... ....
....|..|C-4 3FCF ....|D-5 6FFF ....|F-4 2FFA ....
....|..|D-4 3FCA ....|A#4 4FEA ....|A#2 2F.A ....
....|..|A#4 3FCF ....|F-4 4FEF ....|F-4 2FFF ....
....|..|C-4 3FCA ....|A#4 6FFA ....|R-- .... ....
....|..|A#3 3FCF ....|D#5 6FFF ....|F-4 2FFF ....
....|..|A#4 3FCA ....|F-4 4FEA ....|F-4 2FFA ....
....|..|C-4 3FCF ....|A#4 4FEF ....|F-4 2FFF ....
....|..|A#3 3FCA ....|D-5 6FFA ....|F-4 2FFA ....
....|..|D-4 3FCF ....|F-5 6FFF ....|F-4 2FFA ....
....|..|C-4 3FCA ....|A#4 4FEA ....|F-4 2FFA ....
....|..|C-5 3FCF ....|C-5 4FEF ....|G-4 2FFF ....
....|..|D-4 3FCA ....|D#5 6FFA ....|R-- .... ....
....|..|D-4 3FCF ....|A#4 4FE7 ....|F-4 2FFF ....
....|..|C-5 3FCA ....|C-5 4FEA ....|G-4 2FFA ....
 C-3|..|D#4 3FCF ....|C-5 4FEF ....|C-3 2C.F ....
....|..|D-4 3FCA ....|D#5 6FF7 ....|F-4 2FFA ....
....|..|D-4 3FCF ....|C-4 6FFF ....|F-4 2FF7 ....
....|..|D#4 3FCA ....|C-5 4FEA ....|C-3 2F.A ....
....|..|C-5 3FCF ....|G-4 4FEF ....|G-4 2FFF ....
....|..|D-4 3FCA ....|F-5 6FFA ....|R-- .... ....
....|..|C-4 3FCF ....|F-4 6FFF ....|R-- .... ....
....|..|C-5 3FCA ....|G-4 4FEA ....|G-4 2FFA ....
 C-3|..|D#4 3FCF ....|C-5 4FEF ....|C-3 2C.F ....
....|..|C-4 3FCA ....|G-4 6FFA ....|R-- .... ....
....|..|D-4 3FCF ....|F-4 6FFF ....|F-4 2FF7 ....
....|..|D#4 3FCA ....|C-5 4FEA ....|C-3 2F.A ....
....|..|C-5 3FCF ....|C-5 4FEF ....|R-- .... ....
....|..|D-4 3FCA ....|G-4 6FFA ....|R-- .... ....
....|..|C-4 3FCF ....|D#4 6FFF ....|C-3 2F.7 ....
....|..|C-5 3FCA ....|C-5 4FEA ....|--- .... ....
 C-3|..|D#4 3FCF ....|C-5 4FEF ....|C-3 2C.F ....
....|..|C-4 3FCA ....|D#4 6FFA ....|--- .... ....
....|..|D-4 3FCF ....|D#4 6FFF ....|R-- .... ....
....|..|D#4 3FCA ....|C-5 4FEA ....|C-3 2F.A ....
....|..|C-5 3FCF ....|C-5 4FEF ....|--- .... ....
....|..|D-4 3FCA ....|D#4 6FFA ....|R-- .... ....
....|..|C-4 3FCF ....|G-4 6FFF ....|C-3 2F.7 ....
....|..|C-5 3FCA ....|C-5 4FEA ....|--- .... ....
 C-3|..|D#4 3FCF ....|C-5 4FEF ....|C-3 2C.F ....
....|..|C-4 3FCA ....|G-4 6FFA ....|--- .... ....
....|..|D-4 3FCF ....|F-4 6FFF ....|R-- .... ....
....|..|D#4 3FCA ....|C-5 4FEA ....|C-3 2F.A ....

[Pattern48]
....|..|G#4 3FCF ....|C-5 4FEF ....|G#4 2FFF ....
....|..|D-4 3FCA ....|F-4 6FFA ....|R-- .... ....
....|..|G#3 3FCF ....|G#4 6FFF ....|G#3 2FFF ....
....|..|G#4 3FCA ....|C-5 4FEA ....|G#4 2FFA ....
....|..|C-4 3FCF ....|G#4 4FEF ....|C-4 2FFF ....
....|..|G#3 3FCA ....|G#4 6FFA ....|G#3 2FFA ....
....|..|A#3 3FCF ....|G#4 6FFF ....|G#4 2FFA ....
....|..|C-4 3FCA ....|G#4 4FEA ....|C-4 2FFA ....
....|..|G#4 3FCF ....|D#4 4FEF ....|G#4 2FFF ....
....|..|A#3 3FCA ....|G#4 6FFA ....|R-- .... ....
....|..|G#3 3FCF ....|G#4 6FFF ....|D#4 2FFF ....
....|..|G#4 3FCA ....|D#4 4FEA ....|G#4 2FFA ....
....|..|C-4 3FCF ....|G#4 4FEF ....|G#4 2FFF ....
....|..|G#3 3FCA ....|G#4 6FFA ....|D#4 2FFA ....
....|..|A#3 3FCF ....|D-5 6FFF ....|G#3 2FF7 ....
....|..|C-4 3FCA ....|G#4 4FEA ....|G#4 2FFA ....
....|..|A#4 3FCF ....|A#4 4FEF ....|F-5 2FFF ....
....|..|A#3 3FCA ....|D#5 6FFA ....|R-- .... ....
....|..|A#3 3FCF ....|D-5 6FFF ....|D-5 2FFF ....
....|..|A#4 3FCA ....|A#4 4FEA ....|F-5 2FFA ....
....|..|D-4 3FCF ....|A#4 4FEF ....|F-5 2FFF ....
....|..|A#3 3FCA ....|D#5 6FFA ....|D-5 2FFA ....
....|..|C-4 3FCF ....|D-5 6FFF ....|F-5 2FFF ....
....|..|D-4 3FCA ....|A#4 4FEA ....|F-5 2FFA ....
....|..|A#4 3FCF ....|F-4 4FEF ....|D-5 2FFF ....
....|..|C-4 3FCA ....|A#4 6FFA ....|F-5 2FFA ....
....|..|A#3 3FCF ....|D#5 6FFF ....|D-5 2FFF ....
....|..|A#4 3FCA ....|F-4 4FEA ....|D-5 2FFA ....
....|..|C-4 3FCF ....|A#4 4FEF ....|A#4 2FFF ....
....|..|A#3 3FCA ....|D-5 6FFA ....|D-5 2FFA ....
....|..|D-4 3FCF ....|F-5 6FFF ....|A#4 2FFF ....
....|..|C-4 3FCA ....|A#4 4FEA ....|A#4 2FFA ....
....|..|C-5 3FCF ....|C-5 4FEF ....|A#4 2FFF ....
....|..|D-4 3FCA ....|D#5 6FFA ....|A#4 2FFA ....
....|..|C-4 3FC7 ....|A#4 4FE7 ....|A#4 2FFF ....
....|..|C-5 3FCA ....|C-5 4FEA ....|A#4 2FFA ....
....|..|D-4 3FC7 ....|F-5 6FFA ....|A#4 2FF7 ....
....|..|--- .... ....|D#5 6FF7 ....|A#4 2FFA ....
....|..|C-5 3FCF ....|C-5 6FFF ....|A#4 2FF7 ....
....|..|--- .... ....|F-5 6FF7 ....|--- .... ....
....|..|--- .... ....|C-5 6FFF ....|A#4 2FF7 ....
....|..|C-5 3FCA ....|C-5 6FFA ....|R-- .... ....
....|..|--- .... ....|--- .... ....|A#4 2FF7 ....
....|..|--- .... ....|C-5 6FFA ....|--- .... ....
....|..|C-5 3FC7 ....|C-5 6FF7 ....|A#4 2FF7 ....
....|..|--- .... ....|--- .... ....|--- .... ....
....|..|--- .... ....|C-5 6FF7 ....|A#4 2FF7 ....
....|..|--- .... ....|--- .... ....|--- .... ....
....|..|--- .... ....|C-5 6FFF ....|--- .... ....
....|..|--- .... ....|--- .... ....|--- .... ....
....|..|--- .... ....|--- .... ....|R-- .... ....
....|..|--- .... ....|C-5 6FFA ....|--- .... ....
....|..|--- .... ....|--- .... ....|--- .... ....
....|..|--- .... ....|--- .... ....|--- .... ....
....|..|--- .... ....|C-5 6FF7 ....|--- .... ....
....|..|--- .... ....|--- .... ....|--- .... ....
....|..|--- .... ....|C-5 6FFF ....|--- .... ....
....|..|--- .... ....|--- .... ....|--- .... ....
....|..|--- .... ....|--- .... ....|--- .... ....
....|..|--- .... ....|C-5 6FFA ....|--- .... ....
....|..|--- .... ....|--- .... ....|--- .... ....
....|..|--- .... ....|--- .... ....|--- .... ....
....|..|--- .... ....|C-5 6FF7 ....|--- .... ....
....|..|--- .... ....|--- .... ....|--- .... ....

[Pattern49]
....|..|--- .... ....|C-5 6FFF ....|--- .... ....
....|..|--- .... ....|--- .... ....|--- .... ....
....|..|--- .... ....|--- .... ....|--- .... ....
....|..|--- .... ....|C-5 6FFA ....|--- .... ....
....|..|--- .... ....|--- .... ....|--- .... ....
....|..|--- .... ....|--- .... ....|--- .... ....
....|..|--- .... ....|C-5 6FF7 ....|--- .... ....
....|..|--- .... ....|--- .... ....|--- .... ....
....|..|--- .... ....|--- .... ....|--- .... ....
....|..|--- .... ....|--- .... ....|--- .... ....
....|..|--- .... ....|--- .... ....|--- .... ....
....|..|--- .... ....|--- .... ....|--- .... ....
....|..|--- .... ....|--- .... ....|--- .... ....
....|..|--- .... ....|--- .... ....|--- .... ....
....|..|--- .... ....|--- .... ....|--- .... ....
....|..|--- .... ....|--- .... ....|--- .... ....
....|..|--- .... ....|--- .... ....|--- .... ....
....|..|--- .... ....|--- .... ....|--- .... ....
....|..|--- .... ....|--- .... ....|--- .... ....
....|..|--- .... ....|--- .... ....|--- .... ....
....|..|--- .... ....|--- .... ....|--- .... ....
....|..|--- .... ....|--- .... ....|--- .... ....
....|..|--- .... ....|--- .... ....|--- .... ....
....|..|--- .... ....|--- .... ....|--- .... ....
....|..|--- .... ....|--- .... ....|--- .... ....
....|..|--- .... ....|--- .... ....|--- .... ....
....|..|--- .... ....|--- .... ....|--- .... ....
....|..|--- .... ....|--- .... ....|--- .... ....
....|..|--- .... ....|--- .... ....|--- .... ....
....|..|--- .... ....|--- .... ....|--- .... ....
....|..|--- .... ....|--- .... ....|--- .... ....
....|..|--- .... ....|--- .... ....|--- .... ....
....|..|--- .... ....|--- .... ....|--- .... ....
....|..|--- .... ....|--- .... ....|--- .... ....
....|..|--- .... ....|--- .... ....|--- .... ....
....|..|--- .... ....|--- .... ....|--- .... ....
....|..|--- .... ....|--- .... ....|--- .... ....
....|..|--- .... ....|--- .... ....|--- .... ....
....|..|--- .... ....|--- .... ....|--- .... ....
....|..|--- .... ....|--- .... ....|--- .... ....
....|..|--- .... ....|--- .... ....|--- .... ....
....|..|--- .... ....|--- .... ....|--- .... ....
....|..|--- .... ....|--- .... ....|--- .... ....
....|..|--- .... ....|--- .... ....|--- .... ....
....|..|--- .... ....|--- .... ....|--- .... ....
....|..|--- .... ....|--- .... ....|--- .... ....
....|..|--- .... ....|--- .... ....|--- .... ....
....|..|--- .... ....|--- .... ....|--- .... ....
....|..|--- .... ....|--- .... ....|--- .... ....
....|..|--- .... ....|--- .... ....|--- .... ....
....|..|--- .... ....|--- .... ....|--- .... ....
....|..|--- .... ....|--- .... ....|--- .... ....
....|..|--- .... ....|--- .... ....|--- .... ....
....|..|--- .... ....|--- .... ....|--- .... ....
....|..|--- .... ....|--- .... ....|--- .... ....
....|..|--- .... ....|--- .... ....|--- .... ....
....|..|--- .... ....|--- .... ....|--- .... ....
....|..|--- .... ....|--- .... ....|--- .... ....
....|..|--- .... ....|--- .... ....|--- .... ....
....|..|--- .... ....|--- .... ....|--- .... ....
....|..|--- .... ....|--- .... ....|--- .... ....
....|..|--- .... ....|--- .... ....|--- .... ....
....|..|--- .... ....|--- .... ....|--- .... ....
....|..|--- .... ....|--- .... ....|--- .... ....

[Pattern50]
....|..|--- .... ....|--- .... ....|--- .... ....
....|..|--- .... ....|--- .... ....|--- .... ....
....|..|--- .... ....|--- .... ....|--- .... ....
....|..|--- .... ....|--- .... ....|--- .... ....
....|..|--- .... ....|--- .... ....|--- .... ....
....|..|--- .... ....|--- .... ....|--- .... ....
....|..|--- .... ....|--- .... ....|--- .... ....
....|..|--- .... ....|--- .... ....|--- .... ....
....|..|--- .... ....|--- .... ....|--- .... ....
....|..|--- .... ....|--- .... ....|--- .... ....
....|..|--- .... ....|--- .... ....|--- .... ....
....|..|--- .... ....|--- .... ....|--- .... ....
....|..|--- .... ....|--- .... ....|--- .... ....
....|..|--- .... ....|--- .... ....|--- .... ....
....|..|--- .... ....|--- .... ....|--- .... ....
....|..|--- .... ....|--- .... ....|--- .... ....
....|..|--- .... ....|--- .... ....|--- .... ....
....|..|--- .... ....|--- .... ....|--- .... ....
....|..|--- .... ....|--- .... ....|--- .... ....
....|..|--- .... ....|--- .... ....|--- .... ....
....|..|--- .... ....|--- .... ....|--- .... ....
....|..|--- .... ....|--- .... ....|--- .... ....
....|..|--- .... ....|--- .... ....|--- .... ....
....|..|--- .... ....|--- .... ....|--- .... ....
....|..|--- .... ....|--- .... ....|--- .... ....
....|..|--- .... ....|--- .... ....|--- .... ....
....|..|--- .... ....|--- .... ....|--- .... ....
....|..|--- .... ....|--- .... ....|--- .... ....
....|..|--- .... ....|--- .... ....|--- .... ....
....|..|--- .... ....|--- .... ....|--- .... ....
....|..|--- .... ....|--- .... ....|--- .... ....
....|..|--- .... ....|--- .... ....|--- .... ....
....|..|--- .... ....|--- .... ....|--- .... ....
....|..|--- .... ....|--- .... ....|--- .... ....
....|..|--- .... ....|--- .... ....|--- .... ....
....|..|--- .... ....|--- .... ....|--- .... ....
....|..|--- .... ....|--- .... ....|--- .... ....
....|..|--- .... ....|--- .... ....|--- .... ....
....|..|R-- .... ....|R-- .... ....|--- .... ....
....|..|--- .... ....|--- .... ....|--- .... ....
....|..|--- .... ....|--- .... ....|--- .... ....
....|..|R-- .... ....|R-- .... ....|--- .... ....
....|..|--- .... ....|--- .... ....|--- .... ....
....|..|--- .... ....|--- .... ....|--- .... ....
