[Module]
VortexTrackerII=0
Version=3.5
Title=It's been a while EDGE music
Author=oisee ^ 4d 29.05.2010
NoteTable=4
ChipFreq=1520640
Speed=5
PlayOrder=L70,61,62,63,60,61,64,64,62,63,60,61,64,64

[Ornament1]
L0

[Ornament2]
L7,7,2,2,0,0

[Ornament3]
L0,0,3,3,7,7,12,12

[Ornament4]
L0,0,4,4,7,7,12,12

[Ornament5]
L0,0,5,5,8,8,12,12

[Ornament6]
L0,0,3,3,6,6,12,12

[Ornament7]
0,L0,3,3,7,7,10,10

[Ornament8]
0,L0,3,3,6,6,8,8

[Ornament9]
0,L0,4,4,7,7,10,10

[Ornament10]
0,L0,4,4,7,7,11,11

[Ornament11]
24,12,0,-12,-24,-36,L-36

[Ornament12]
L0,0,5,5,7,7,12,12

[Ornament13]
1,L0

[Ornament14]
L0,24,0,0,0

[Ornament15]
L0,36,0,0

[Sample1]
TnE +000_ +00_ F_ L
TnE +000_ +00_ F_
TnE +000_ +00_ F_
TnE +000_ +00_ F_

[Sample2]
TnE +000_ +00_ F_
TnE +000_ +00_ F_ L
TnE +000_ +00_ F-

[Sample3]
TnE +001_ +00_ F_
TnE +002_ +00_ F_
TnE +001_ +00_ E_
TnE +002_ +00_ E_
TnE +000_ +00_ E_ L
TnE -001_ +00_ E_
TnE -002_ +00_ E_
TnE -001_ +00_ E_
TnE +000_ +00_ E_
TnE +001_ +00_ E_
TnE +002_ +00_ E_
TnE +001_ +00_ E_

[Sample4]
TnE +002_ +00_ D_
TnE +002_ +00_ D_
TnE +002_ +00_ C_
TnE +002_ +00_ B_
TnE +002_ +00_ A_ L
TnE +002_ +00_ A_
TnE +002_ +00_ A_
TnE +002_ +00_ A_
TnE +002_ +00_ A_
TnE +002_ +00_ A_
TnE +002_ +00_ A_
TnE +002_ +00_ A_

[Sample5]
TnE +000_ +00_ F_
TnE +000_ +00_ F_
tne +000_ +00_ 0_ L

[Sample6]
TnE -001_ +00_ F_ L

[Sample7]
tnE +048_ +05_ F_ L
tnE +000_ +00_ F_
tnE -048_ -05_ F_
tnE -078_ -08_ F_

[Sample8]
tnE +084_ +08_ F_ L
tnE +000_ +00_ F_
tnE -080_ -08_ F_
tnE -0C0_ -0C_ F_

[Sample9]
TnE +080_ +00_ F_
TnE +100_ +00_ E_
TnE +180_ +00_ E_
TnE +200_ +00_ E_
TnE +240_ +00_ D_
TnE +280_ +00_ D_
TnE +2C0_ +00_ D_
TnE +300_ +00_ C_
TnE +300_ +00_ C_
TnE +340_ +00_ C_
TnE +340_ +00_ C_
TnE +380_ +00_ B_
TnE +380_ +00_ B_
TnE +400_ +00_ B_
TnE +400_ +00_ B_
TnE +480_ +00_ A_
TnE +500_ +00_ 9_
TnE +580_ +00_ 7_
TnE +600_ +00_ 4_
TnE +680_ +00_ 1_
TnE +000_ +00_ 0_ L

[Sample10]
Tne +1C0_ +00_ F_
Tne +280_ +00_ E_
Tne +380_ +00_ C_
Tne +440_ +00_ A_
Tne +480_ +00_ 8_
TnE +000_ +00_ 0_ L

[Sample11]
TNe +200_ -0A_ F_
tNe +000_ +0F_ A_
TNe +200_ -07_ E_
tNe +000_ +0E_ B- L

[Sample12]
TNE +0A0_ +05_ F_
TNE +140_ +02_ D_
TNE +140_ +02_ B_
TNE +100_ +00_ A_ L
TNE +140_ +00_ A_
TNE +200_ +00_ A-

[Sample13]
Tne +200_ +00_ F_
Tne +2C0_ +00_ F_
Tne +380_ +00_ E_
Tne +500_ +00_ C_
Tne +520_ +00_ 9_
tne +000_ +00_ 0_ L

[Sample14]
TNE -100_ +00_ F_
TNE -100_ +00_ D_
TNE -100_ +00_ A_
TNE -100_ +00_ 5_
tne +000_ +00_ 0_ L

[Sample15]
TNE -100_ +00_ 5_
TNE -100_ +00_ 8_
TNE -100_ +00_ B_
TNE -100_ +00_ F_
TNe -100_ +00_ 9- L

[Sample16]
TnE +000_ +00_ C_
TnE +000_ +00_ E_
TnE +000_ +00_ F_
TnE +000_ +00_ F_
TnE +000_ +00_ E_
TnE +000_ +00_ D_
TnE +000_ +00_ C_
TnE +000_ +00_ C_ L
TnE +001_ +00_ C_
TnE +002_ +00_ C_
TnE +003_ +00_ C_
TnE +001_ +00_ C_
TnE +000_ +00_ C_
TnE -001_ +00_ C_
TnE -002_ +00_ C_
TnE -003_ +00_ C_
TnE -001_ +00_ C_
TnE +000_ +00_ C_
TnE +000_ +00_ C_

[Sample17]
Tne +1C0_ +00_ F_
Tne +280_ +00_ D_
Tne +380_ +00_ 7_
TNE +000_ +00_ 0_ L

[Sample18]
tnE +000_ +00_ 0_ L

[Sample19]
TNe +000_ +00_ F_
TNe +000_ +00_ C_
TNe +000_ +00_ 6_
TNe +000_ +01_ A- L

[Sample20]
TNE +140_ +00_ F_
tNE +000_ +00_ B- L

[Sample21]
tNE +000_ +00_ D_
tNE +000_ +00_ 8_
tNE +000_ +00_ 1_
TNE +000_ +00_ 0_ L

[Sample22]
TnE +000_ +00_ D_ L
TnE +000_ +00_ D_
tne +000_ +00_ 9_
tne +000_ +00_ 9_
TnE +000_ +00_ D_
TnE +000_ +00_ D_
tne +000_ +00_ 9_
tne +000_ +00_ 9_
TnE +000_ +00_ D_
TnE +000_ +00_ D_
TnE +000_ +00_ D_
TnE +000_ +00_ D_
TnE +000_ +00_ D_
TnE +000_ +00_ D_
tne +000_ +00_ 9_
tne +000_ +00_ 9_

[Sample23]
TnE +000_ +00_ F_ L
TnE +010_ +01_ F_
TnE +010_ +01_ F_
TnE +010_ +01_ F_
TnE +010_ +01_ F_
TnE +000_ +00_ F_
TnE +000_ +00_ F_
TnE -010_ -01_ F_
TnE -010_ -01_ F_
TnE -010_ -01_ F_
TnE -010_ -01_ F_
TnE +000_ +00_ F_

[Sample24]
tnE +0C0_ +0C_ F_ L
tnE +000_ +00_ F_
tnE -080_ -08_ F_
tnE -0E4_ -0E_ F_

[Sample25]
tnE +084_ +08_ F_ L
tnE +000_ +00_ F_
tnE -080_ -08_ F_
tnE -0C0_ -0C_ F_

[Sample26]
tne +000_ +00_ 0_ L

[Sample27]
tne +000_ +00_ 0_ L

[Sample28]
tne +000_ +00_ 0_ L

[Sample29]
tne +000_ +00_ 0_ L

[Sample30]
TNE +000_ +00_ C+ L

[Sample31]
TNe +1C0_ +00_ F_
Tne +280_ +00_ E_
Tne +380_ +00_ C_
Tne +440_ +00_ A_
Tne +480_ +00_ 8_
TnE +000_ +00_ 0_ L

[Pattern0]
 A-3|..|A-2 DF.F ....|A-3 DF.F ....|A-3 DF.F ....
....|..|--- .... ....|--- .... ....|--- .... ....
 A-3|..|--- .... ....|--- .... ....|--- .... ....
....|..|--- .... ....|--- .... ....|--- .... ....
 A-3|..|A-2 L..B ....|A-3 L..B ....|A-3 L..F ....
....|..|--- .... ....|--- .... ....|--- .... ....
 A-3|..|--- .... ....|--- .... ....|--- .... ....
....|..|--- .... ....|--- .... ....|--- .... ....
 A-3|..|A-2 K..B ....|A-3 K..B ....|A-3 C..B ....
....|..|--- .... ....|--- .... ....|--- .... ....
 A-3|..|--- .... ....|--- .... ....|--- .... ....
....|..|--- .... ....|--- .... ....|--- .... ....
 A-3|..|A-2 D..F ....|A-3 D..F ....|A-3 K..B ....
....|..|--- .... ....|--- .... ....|--- .... ....
 A-3|..|--- .... ....|--- .... ....|A-3 L... ....
....|..|--- .... ....|--- .... ....|--- .... ....
 A-3|..|A-2 L..B ....|A-3 L..B ....|A-3 K..B ....
....|..|--- .... ....|--- .... ....|--- .... ....
 A-3|..|--- .... ....|--- .... ....|A-3 L... ....
....|..|--- .... ....|--- .... ....|--- .... ....
 A-3|..|--- ...F ....|--- ...F ....|A-3 L..F ....
....|..|--- .... ....|--- .... ....|--- .... ....
 A-3|..|--- .... ....|--- .... ....|--- .... ....
....|..|--- .... ....|--- .... ....|--- .... ....
 A-3|..|A-2 K..F ....|A-3 K..F ....|A-3 C..F ....
....|..|--- .... ....|--- .... ....|--- .... ....
....|..|A-2 L... ....|A-3 L... ....|--- .... ....
....|..|--- .... ....|--- .... ....|--- .... ....
 A-3|..|A-2 K..B ....|A-3 K..B ....|A-3 K..B ....
....|..|--- .... ....|--- .... ....|--- .... ....
 A-3|..|A-2 L... ....|A-3 L... ....|A-3 L... ....
....|..|--- .... ....|--- .... ....|--- .... ....
 A-3|..|A-2 D..B ....|A-3 D..B ....|A-3 D..B ....
....|..|--- .... ....|--- .... ....|--- .... ....
 A-3|..|--- .... ....|--- .... ....|--- .... ....
....|..|--- .... ....|--- .... ....|--- .... ....
 A-3|..|C#3 E..F ....|C#4 E..F ....|C#4 E..F ....
....|..|--- .... ....|--- .... ....|--- .... ....
 A-3|..|--- .... ....|--- .... ....|--- .... ....
....|..|--- .... ....|--- .... ....|--- .... ....
 A-3|..|A-2 A..B ....|A-3 A..B ....|A-3 A..B ....
....|..|--- .... ....|--- .... ....|--- .... ....
 A-3|..|--- .... ....|--- .... ....|--- .... ....
....|..|--- .... ....|--- .... ....|--- .... ....
 A-3|..|A-2 L..F ....|A-3 L..F ....|A-3 L..F ....
....|..|--- .... ....|--- .... ....|--- .... ....
 A-3|..|--- .... ....|--- .... ....|--- .... ....
....|..|--- .... ....|--- .... ....|--- .... ....
 A-3|..|C#3 E..F ....|C#4 E..F ....|C#4 E..F ....
....|..|--- .... ....|--- .... ....|--- .... ....
 A-3|..|--- .... ....|--- .... ....|--- .... ....
....|..|--- .... ....|--- .... ....|--- .... ....
 A-3|..|--- ...B ....|--- ...B ....|--- ...B ....
....|..|--- .... ....|--- .... ....|--- .... ....
 A-3|..|--- .... ....|--- .... ....|--- .... ....
....|..|--- .... ....|--- .... ....|--- .... ....
 A-3|..|A-2 K..B ....|A-3 K..B ....|A-3 K..B ....
....|..|--- .... ....|--- .... ....|--- .... ....
....|..|--- .... ....|--- .... ....|--- .... ....
....|..|--- .... ....|--- .... ....|--- .... ....
 A-3|..|A-2 L..F ....|A-3 L..F ....|A-3 L..F ....
....|..|--- .... ....|--- .... ....|--- .... ....
 A-3|..|--- .... ....|--- .... ....|--- .... ....
....|..|--- .... ....|--- .... ....|--- .... ....
 A-3|..|A-2 DF.F ....|A-3 DF.F ....|A-3 DF.F ....
....|..|--- .... ....|--- .... ....|--- .... ....
 A-3|..|--- .... ....|--- .... ....|--- .... ....
....|..|--- .... ....|--- .... ....|--- .... ....
 A-3|..|A-2 L..B ....|A-3 L..B ....|A-3 K..F ....
....|..|--- .... ....|--- .... ....|--- .... ....
 A-3|..|--- .... ....|--- .... ....|A-3 L... ....
....|..|--- .... ....|--- .... ....|--- .... ....
 A-3|..|A-2 K..B ....|A-3 K..B ....|A-3 K..B ....
....|..|--- .... ....|--- .... ....|--- .... ....
 A-3|..|--- .... ....|--- .... ....|A-3 L... ....
....|..|--- .... ....|--- .... ....|--- .... ....
 A-3|..|A-2 D..F ....|A-3 D..F ....|A-3 D..B ....
....|..|--- .... ....|--- .... ....|--- .... ....
 A-3|..|--- .... ....|--- .... ....|--- .... ....
....|..|--- .... ....|--- .... ....|--- .... ....
 A-3|..|A-2 L..B ....|A-3 L..B ....|A-3 L..B ....
....|..|--- .... ....|--- .... ....|--- .... ....
 A-3|..|--- .... ....|--- .... ....|--- .... ....
....|..|--- .... ....|--- .... ....|--- .... ....
 A-3|..|--- ...F ....|--- ...F ....|--- ...F ....
....|..|--- .... ....|--- .... ....|--- .... ....
 A-3|..|--- .... ....|--- .... ....|--- .... ....
....|..|--- .... ....|--- .... ....|--- .... ....
 A-3|..|A-2 K..F ....|A-3 K..F ....|A-3 K..F ....
....|..|--- .... ....|--- .... ....|--- .... ....
 A-3|..|A-2 L... ....|A-3 L... ....|A-3 L... ....
....|..|--- .... ....|--- .... ....|--- .... ....
 A-3|..|A-2 K..B ....|A-3 K..B ....|A-3 K..B ....
....|..|--- .... ....|--- .... ....|--- .... ....
 A-3|..|A-2 L... ....|A-3 L... ....|A-3 L... ....
....|..|--- .... ....|--- .... ....|--- .... ....
 A-3|..|A-2 D..B ....|A-3 D..B ....|A-3 D..B ....
....|..|--- .... ....|--- .... ....|--- .... ....
....|..|--- .... ....|--- .... ....|--- .... ....
....|..|--- .... ....|--- .... ....|--- .... ....
....|..|C#3 E..F ....|C#4 E..F ....|C#4 E..F ....
....|..|--- .... ....|--- .... ....|--- .... ....
....|..|--- .... ....|--- .... ....|--- .... ....
....|..|--- .... ....|--- .... ....|--- .... ....
....|..|A-2 A..B ....|A-3 A..B ....|A-3 A..B ....
....|..|--- .... ....|--- .... ....|--- .... ....
....|..|--- .... ....|--- .... ....|--- .... ....
....|..|--- .... ....|--- .... ....|--- .... ....
....|..|A-2 L..F ....|A-3 L..F ....|A-3 L..F ....
....|..|--- .... ....|--- .... ....|--- .... ....
....|..|--- .... ....|--- .... ....|--- .... ....
....|..|--- .... ....|--- .... ....|--- .... ....
....|..|C#3 E..F ....|C#4 E..F ....|C#4 E..F ....
....|..|--- .... ....|--- .... ....|--- .... ....
....|..|--- .... ....|--- .... ....|--- .... ....
....|..|--- .... ....|--- .... ....|--- .... ....
....|..|--- ...B ....|--- ...B ....|--- ...B ....
....|..|--- .... ....|--- .... ....|--- .... ....
....|..|--- .... ....|--- .... ....|--- .... ....
....|..|--- .... ....|--- .... ....|--- .... ....
....|..|A-2 K..B ....|A-3 K..B 11.4|A-3 K..B ....
....|..|--- .... ....|--- .... ....|--- .... ....
....|..|--- .... ....|--- .... ....|--- .... ....
....|..|--- .... ....|--- .... ....|--- .... ....
....|..|A-2 L..F ....|A-3 L..F ....|A-3 L..F ....
....|..|--- .... ....|--- .... ....|--- .... ....
....|..|--- .... ....|--- .... ....|--- .... ....
....|..|--- .... ....|--- .... ....|--- .... ....

[Pattern1]
....|..|C#3 2F9C ....|C#2 7F.C ....|A-3 DF.F ....
....|..|--- .... ....|--- .... ....|--- .... ....
....|..|--- ...B ....|--- ...B ....|A-3 L..B ....
....|..|--- .... ....|--- .... ....|--- .... ....
....|..|--- ...B ....|--- ...B ....|A-3 K..B ....
....|..|--- .... ....|--- .... ....|--- .... ....
....|..|--- ...C ....|--- ...C ....|A-3 D..F ....
....|..|--- .... ....|--- .... ....|--- .... ....
....|..|--- ...B ....|--- ...B ....|A-3 L..B ....
....|..|--- .... ....|--- .... ....|--- .... ....
....|..|--- ...B ....|--- ...B ....|--- ...F ....
....|..|--- .... ....|--- .... ....|--- .... ....
....|..|--- ...C ....|--- ...C ....|A-3 K..F ....
....|..|--- .... ....|--- .... ....|A-3 L... ....
 C#2|..|C#1 .C.B ....|C#1 7C.B ....|A-3 K..B ....
....|..|R-- .... ....|R-- .... ....|A-3 L... ....
 C#2|..|C#1 .C.B ....|C#1 .C.B ....|A-3 D..B ....
....|..|R-- .... ....|R-- .... ....|--- .... ....
....|..|--- ...C ....|--- ...C ....|C#4 E..F ....
....|..|--- .... ....|--- .... ....|--- .... ....
 C#3|..|C#1 .C.B ....|C#2 .C.B ....|A-3 A..B ....
....|..|R-- .... ....|R-- .... ....|--- .... ....
 C#4|..|C#1 .A.B ....|C#2 .A.B ....|A-3 L..F ....
....|..|R-- .... ....|R-- .... ....|--- .... ....
....|..|--- ...C ....|--- ...C ....|C#4 E..F ....
....|..|--- .... ....|--- .... ....|--- .... ....
....|..|--- ...B ....|--- ...B ....|--- ...B ....
....|..|--- .... ....|--- .... ....|--- .... ....
....|..|C#3 .F9C ....|C#2 MF.C ....|A-3 K..B ....
....|..|--- .... ....|--- .... ....|--- .... ....
....|..|--- ...B ....|--- ...B ....|A-3 L..F ....
....|..|--- .... ....|A-1 ...8 ....|--- .... ....
....|..|--- ...C ....|C#2 7F.C 3140|A-3 DF.F ....
....|..|--- .... ....|--- .... ....|--- .... ....
....|..|--- ...B ....|--- ...B ....|A-3 L..B ....
....|..|--- .... ....|--- .... ....|--- .... ....
....|..|--- ...B ....|--- ...B ....|A-3 K..B ....
....|..|--- .... ....|--- .... ....|--- .... ....
....|..|--- ...C ....|--- ...C ....|A-3 D..F ....
....|..|--- .... ....|--- .... ....|--- .... ....
....|..|--- ...B ....|--- ...B ....|A-3 L..B ....
....|..|--- .... ....|--- .... ....|--- .... ....
....|..|--- ...B ....|--- ...C ....|--- ...F ....
....|..|--- .... ....|--- .... ....|--- .... ....
....|..|--- ...C ....|--- ...C ....|A-3 K..F ....
....|..|--- .... ....|--- .... ....|A-3 L... ....
....|..|--- ...B ....|--- ...B ....|A-3 K..B ....
....|..|--- .... ....|--- .... ....|A-3 L... ....
....|..|--- ...B ....|--- ...B ....|A-3 D..B ....
....|..|--- .... ....|--- .... ....|--- .... ....
....|..|--- ...C ....|--- ...C ....|C#4 E..F ....
....|..|--- .... ....|--- .... ....|--- .... ....
....|..|--- ...B ....|--- ...B ....|A-3 A..B ....
....|..|--- .... ....|--- .... ....|--- .... ....
....|..|--- ...B ....|--- ...B ....|A-3 L..F ....
....|..|--- .... ....|--- .... ....|--- .... ....
....|..|--- ...C ....|--- ...C ....|C#4 E..F ....
....|..|--- .... ....|--- .... ....|--- .... ....
....|..|--- ...B ....|--- ...B ....|--- ...B ....
....|..|--- .... ....|--- .... ....|--- .... ....
....|..|--- ...C ....|--- ...C ....|A-3 K..B ....
....|..|--- .... ....|--- .... ....|--- .... ....
....|..|--- ...B ....|--- ...B ....|A-3 L..F ....
....|..|--- .... ....|--- .... ....|--- .... ....

[Pattern2]
....|..|C#1 2F.C ....|C#2 7F.C ....|A-3 DF.F ....
....|..|--- .... ....|--- .... ....|--- .... ....
....|..|--- ...B ....|--- ...B ....|A-3 L..B ....
....|..|--- .... ....|--- .... ....|--- .... ....
....|..|--- ...B ....|--- ...B ....|A-3 K..B ....
....|..|--- .... ....|--- .... ....|--- .... ....
....|..|--- ...C ....|--- ...C ....|A-3 D..F ....
....|..|--- .... ....|--- .... ....|--- .... ....
....|..|--- ...B ....|--- ...B ....|A-3 L..B ....
....|..|--- .... ....|--- .... ....|--- .... ....
....|..|--- ...B ....|--- ...B ....|--- ...F ....
....|..|--- .... ....|--- .... ....|--- .... ....
....|..|--- ...C ....|--- ...C ....|A-3 K..F ....
....|..|--- .... ....|--- .... ....|A-3 L... ....
 C#2|..|C#1 .C.B ....|C#1 7C.B ....|A-3 K..B ....
....|..|R-- .... ....|R-- .... ....|A-3 L... ....
 C#2|..|C#1 .C.B ....|C#1 .C.B ....|A-3 D..B ....
....|..|R-- .... ....|R-- .... ....|--- .... ....
....|..|--- ...C ....|--- ...C ....|C#4 E..F ....
....|..|--- .... ....|--- .... ....|--- .... ....
 C#3|..|C#1 .C.B ....|C#2 .C.B ....|A-3 A..B ....
....|..|R-- .... ....|R-- .... ....|--- .... ....
 C#4|..|C#1 .A.B ....|C#2 .A.B ....|A-3 L..F ....
....|..|R-- .... ....|R-- .... ....|--- .... ....
....|..|--- ...C ....|--- ...C ....|C#4 E..F ....
....|..|--- .... ....|--- .... ....|--- .... ....
....|..|--- ...B ....|--- ...B ....|--- ...B ....
....|..|--- .... ....|--- .... ....|--- .... ....
....|1F|R-- .F.C ....|C#3 PFFC ....|A-3 K..B ....
....|1F|--- .... ....|--- .... ....|--- .... ....
....|1F|--- ...B ....|--- ...B ....|A-3 L..F ....
....|..|--- .... ....|A-1 ...8 ....|--- .... ....
....|..|C#1 ...C ....|C#2 7F.C 3140|A-3 DF.F ....
....|..|--- .... ....|--- .... ....|--- .... ....
....|1F|--- ...B ....|C#3 PFFC ....|A-3 L..B ....
....|1F|--- .... ....|--- .... ....|--- .... ....
....|1F|--- ...B ....|--- ...B ....|A-3 K..B ....
....|..|--- .... ....|E-2 ...8 ....|--- .... ....
....|..|--- ...C ....|C#2 7F.C 3140|A-3 D..F ....
....|..|--- .... ....|--- .... ....|--- .... ....
....|1F|--- ...B ....|C#3 PFFC ....|A-3 L..B ....
....|1F|--- .... ....|--- .... ....|--- .... ....
....|1F|--- ...B ....|--- ...B ....|--- ...F ....
....|..|--- .... ....|A-1 ...8 ....|--- .... ....
....|..|--- ...C ....|C#2 7F.C 3140|A-3 K..F ....
....|..|--- .... ....|--- .... ....|A-3 L... ....
....|1F|--- ...B ....|C#3 PFFC ....|A-3 K..B ....
....|1F|--- .... ....|--- .... ....|A-3 L... ....
....|1F|--- ...B ....|--- ...B ....|A-3 D..B ....
....|..|--- .... ....|E-2 ...8 ....|--- .... ....
....|..|--- ...C ....|C#2 7F.C 3140|C#4 E..F ....
....|..|--- .... ....|--- .... ....|--- .... ....
....|1F|--- ...B ....|C#3 PFFC ....|A-3 A..B ....
....|1F|--- .... ....|--- .... ....|--- .... ....
....|1F|--- ...B ....|--- ...B ....|A-3 L..F ....
....|..|--- .... ....|A-1 ...8 ....|--- .... ....
....|..|--- ...C ....|C#2 7F.C 3140|C#4 E..F ....
....|..|--- .... ....|--- .... ....|--- .... ....
....|1F|--- ...B ....|C#3 PFFC ....|--- ...B ....
....|1F|--- .... ....|--- .... ....|--- .... ....
....|1F|--- ...C ....|--- ...B ....|A-3 K..B ....
....|..|--- .... ....|E-2 ...8 ....|--- .... ....
....|..|--- ...B ....|C#2 7F.C 3140|A-3 L..F ....
....|..|--- .... ....|--- .... ....|--- .... ....

[Pattern3]
....|..|C#1 2F.C ....|C#5 2F9C ....|A-3 DF.F ....
....|..|--- .... ....|--- .... ....|--- .... ....
....|..|--- ...B ....|C#4 ...B ....|A-3 L..B ....
....|..|--- .... ....|--- .... ....|--- .... ....
....|..|--- ...B ....|C#4 ...B ....|A-3 K..B ....
....|..|--- .... ....|--- .... ....|--- .... ....
....|..|--- ...C ....|C#5 ...C ....|A-3 D..F ....
....|..|--- .... ....|--- .... ....|--- .... ....
....|..|--- ...B ....|C#4 ...B ....|A-3 L..B ....
....|..|--- .... ....|--- .... ....|--- .... ....
....|..|--- ...B ....|C#4 ...B ....|--- ...F ....
....|..|--- .... ....|--- .... ....|--- .... ....
....|..|--- ...C ....|C#5 ...C ....|A-3 K..F ....
....|..|--- .... ....|--- .... ....|A-3 L... ....
 C#2|..|C#1 .C.B ....|C#1 7C.B ....|A-3 K..B ....
....|..|R-- .... ....|R-- .... ....|A-3 L... ....
 C#2|..|C#1 .C.B ....|C#1 .C.B ....|A-3 D..B ....
....|..|R-- .... ....|R-- .... ....|--- .... ....
....|..|--- ...C ....|--- ...C ....|C#4 E..F ....
....|..|--- .... ....|--- .... ....|--- .... ....
 C#3|..|C#1 .C.B ....|C#2 .C.B ....|A-3 A..B ....
....|..|R-- .... ....|R-- .... ....|--- .... ....
 C#4|..|C#1 .A.B ....|C#2 .A.B ....|A-3 L..F ....
....|..|R-- .... ....|R-- .... ....|--- .... ....
....|..|--- ...C ....|--- ...C ....|C#4 E..F ....
....|..|--- .... ....|--- .... ....|--- .... ....
....|..|--- ...B ....|--- ...B ....|--- ...B ....
....|..|--- .... ....|--- .... ....|--- .... ....
....|..|C#1 .F.C ....|C#2 ...C ....|A-3 K..B ....
....|..|--- .... ....|--- .... ....|--- .... ....
....|..|--- ...B ....|--- ...B ....|A-3 L..F ....
....|..|--- .... ....|--- .... ....|--- .... ....
....|..|--- ...C ....|C#2 .F.C 3140|A-3 DF.F ....
....|..|--- .... ....|--- .... ....|--- .... ....
....|..|--- ...B ....|--- ...B ....|A-3 L..B ....
....|..|--- .... ....|--- .... ....|--- .... ....
....|..|--- ...B ....|--- ...B ....|A-3 K..B ....
....|..|--- .... ....|--- .... ....|--- .... ....
....|..|--- ...C ....|--- ...C ....|A-3 D..F ....
....|..|--- .... ....|--- .... ....|--- .... ....
....|..|--- ...B ....|--- ...B ....|A-3 L..B ....
....|..|--- .... ....|--- .... ....|--- .... ....
....|..|--- ...B ....|--- ...C ....|--- ...F ....
....|..|--- .... ....|--- .... ....|--- .... ....
....|..|--- ...C ....|--- ...C ....|A-3 K..F ....
....|..|--- .... ....|--- .... ....|A-3 L... ....
....|..|--- ...B ....|--- ...B ....|A-3 K..B ....
....|..|--- .... ....|--- .... ....|A-3 L... ....
....|..|--- ...B ....|--- ...B ....|A-3 D..B ....
....|..|--- .... ....|--- .... ....|--- .... ....
....|..|--- ...C ....|--- ...C ....|C#4 E..F ....
....|..|--- .... ....|--- .... ....|--- .... ....
....|..|--- ...B ....|--- ...B ....|A-3 A..B ....
....|..|--- .... ....|--- .... ....|--- .... ....
....|..|--- ...B ....|--- ...B ....|A-3 L..F ....
....|..|--- .... ....|--- .... ....|--- .... ....
....|..|--- ...C ....|--- ...C ....|C#4 E..F ....
....|..|--- .... ....|--- .... ....|--- .... ....
....|..|--- ...B ....|--- ...B ....|--- ...B ....
....|..|--- .... ....|--- .... ....|--- .... ....
....|..|--- ...C ....|--- ...C ....|A-3 K..B ....
....|..|--- .... ....|--- .... ....|--- .... ....
....|..|--- ...B ....|--- ...B ....|A-3 L..F ....
....|..|--- .... ....|--- .... ....|--- .... ....

[Pattern4]
....|..|C#3 1FA8 ....|C#2 7F.C ....|A-3 DF.F ....
....|..|--- .... ....|--- .... ....|--- .... ....
....|..|F#3 ...6 ....|--- ...B ....|A-3 L..B ....
....|..|D-3 ...8 ....|--- .... ....|--- .... ....
....|..|--- .... ....|--- ...B ....|A-3 K..B ....
....|..|C#3 ...6 ....|--- .... ....|--- .... ....
....|..|F#3 ...8 ....|--- ...C ....|A-3 D..F ....
....|..|--- .... ....|--- .... ....|--- .... ....
....|..|D-3 ...6 ....|--- ...B ....|A-3 L..B ....
....|..|C#3 ...8 ....|--- .... ....|--- .... ....
....|..|--- .... ....|--- ...B ....|--- ...F ....
....|..|F#3 ...6 ....|--- .... ....|--- .... ....
....|..|D-3 ...8 ....|--- ...C ....|A-3 K..F ....
....|..|--- .... ....|--- .... ....|A-3 L... ....
 C#2|..|C#1 .C.B ....|C#1 7C.B ....|A-3 K..B ....
....|..|R-- .... ....|R-- .... ....|A-3 L... ....
 C#2|..|C#1 .C.B ....|C#1 .C.B ....|A-3 D..B ....
....|..|R-- .... ....|R-- .... ....|--- .... ....
....|..|--- ...C ....|--- ...C ....|C#4 E..F ....
....|..|--- .... ....|--- .... ....|--- .... ....
 C#3|..|C#1 .C.B ....|C#2 .C.B ....|A-3 A..B ....
....|..|R-- .... ....|R-- .... ....|--- .... ....
 C#4|..|C#1 .A.B ....|C#2 .A.B ....|A-3 L..F ....
....|..|R-- .... ....|R-- .... ....|--- .... ....
....|..|--- ...C ....|--- ...C ....|C#4 E..F ....
....|..|--- .... ....|--- .... ....|--- .... ....
....|..|--- ...B ....|--- ...B ....|--- ...B ....
....|..|--- .... ....|--- .... ....|--- .... ....
....|..|C#1 .F.C ....|C#2 ...C ....|A-3 K..B ....
....|..|--- .... ....|--- .... ....|--- .... ....
....|..|--- ...B ....|--- ...B ....|A-3 L..F ....
....|..|--- .... ....|--- .... ....|--- .... ....
....|..|C#3 1FA8 ....|C#2 .F.C 3140|A-3 DF.F ....
....|..|--- .... ....|--- .... ....|--- .... ....
....|..|--- ...6 ....|--- ...B ....|A-3 L..B ....
....|..|D-3 ...8 ....|--- .... ....|--- .... ....
....|..|--- .... ....|--- ...B ....|A-3 K..B ....
....|..|C#3 ...6 ....|--- .... ....|--- .... ....
....|..|F#3 ...8 ....|--- ...C ....|A-3 D..F ....
....|..|--- .... ....|--- .... ....|--- .... ....
....|..|D-3 ...6 ....|--- ...B ....|A-3 L..B ....
....|..|C#3 ...8 ....|--- .... ....|--- .... ....
....|..|--- .... ....|--- ...C ....|--- ...F ....
....|..|F#3 ...6 ....|--- .... ....|--- .... ....
....|..|D-3 ...8 ....|--- ...C ....|A-3 K..F ....
....|..|--- .... ....|--- .... ....|A-3 L... ....
....|..|C#3 ...6 ....|--- ...B ....|A-3 K..B ....
....|..|G#3 ...8 ....|--- .... ....|A-3 L... ....
....|..|--- .... ....|--- ...B ....|A-3 D..B ....
....|..|D-3 ...6 ....|--- .... ....|--- .... ....
....|..|C#3 ...8 ....|--- ...C ....|C#4 E..F ....
....|..|--- .... ....|--- .... ....|--- .... ....
....|..|G#3 ...6 ....|--- ...B ....|A-3 A..B ....
....|..|D-3 ...8 ....|--- .... ....|--- .... ....
....|..|--- .... ....|--- ...B ....|A-3 L..F ....
....|..|C#3 ...6 ....|--- .... ....|--- .... ....
....|..|F#3 ...8 ....|--- ...C ....|C#4 E..F ....
....|..|--- .... ....|--- .... ....|--- .... ....
....|..|D-3 ...6 ....|--- ...B ....|--- ...B ....
....|..|C#3 ...8 ....|--- .... ....|--- .... ....
....|..|--- .... ....|--- ...C ....|A-3 K..B ....
....|..|F#3 ...6 ....|--- .... ....|--- .... ....
....|..|D-3 ...8 ....|--- ...B ....|A-3 L..F ....
....|..|--- .... ....|--- .... ....|--- .... ....

[Pattern5]
....|..|C#3 1FA8 ....|C#2 7F.C ....|A-3 DF.F ....
....|..|--- .... ....|--- .... ....|--- .... ....
....|..|F#3 ...6 ....|--- ...B ....|A-3 L..B ....
....|..|D-3 ...8 ....|--- .... ....|--- .... ....
....|..|--- .... ....|--- ...B ....|A-3 K..B ....
....|..|C#3 ...6 ....|--- .... ....|--- .... ....
....|..|F#3 ...8 ....|--- ...C ....|A-3 D..F ....
....|..|--- .... ....|--- .... ....|--- .... ....
....|..|D-3 ...6 ....|--- ...B ....|A-3 L..B ....
....|..|C#3 ...8 ....|--- .... ....|--- .... ....
....|..|--- .... ....|--- ...B ....|--- ...F ....
....|..|F#3 ...6 ....|--- .... ....|--- .... ....
....|..|D-3 ...8 ....|--- ...C ....|A-3 K..F ....
....|..|--- .... ....|--- .... ....|A-3 L... ....
 C#2|..|C#1 .C.B ....|C#1 7C.B ....|A-3 K..B ....
....|..|R-- .... ....|R-- .... ....|A-3 L... ....
 C#2|..|C#1 .C.B ....|C#1 .C.B ....|A-3 D..B ....
....|..|R-- .... ....|R-- .... ....|--- .... ....
....|..|--- ...C ....|--- ...C ....|C#4 E..F ....
....|..|--- .... ....|--- .... ....|--- .... ....
 C#3|..|C#1 .C.B ....|C#2 .C.B ....|A-3 A..B ....
....|..|R-- .... ....|R-- .... ....|--- .... ....
 C#4|..|C#1 .A.B ....|C#2 .A.B ....|A-3 L..F ....
....|..|R-- .... ....|R-- .... ....|--- .... ....
....|..|--- ...C ....|--- ...C ....|C#4 E..F ....
....|..|--- .... ....|--- .... ....|--- .... ....
....|..|--- ...B ....|--- ...B ....|--- ...B ....
....|..|--- .... ....|--- .... ....|--- .... ....
....|..|C#1 .F.C ....|C#2 ...C ....|A-3 K..B ....
....|..|--- .... ....|--- .... ....|--- .... ....
....|..|--- ...B ....|--- ...B ....|A-3 L..F ....
....|..|--- .... ....|--- .... ....|--- .... ....
....|..|C#3 1FA8 ....|C#2 .F.C 3140|A-3 DF.F ....
....|..|--- .... ....|--- .... ....|--- .... ....
....|..|--- ...6 ....|--- ...B ....|A-3 L..B ....
....|..|D-3 ...8 ....|--- .... ....|--- .... ....
....|..|--- .... ....|--- ...B ....|A-3 K..B ....
....|..|C#3 ...6 ....|--- .... ....|--- .... ....
....|..|F#3 ...8 ....|--- ...C ....|A-3 D..F ....
....|..|--- .... ....|--- .... ....|--- .... ....
....|..|D-3 ...6 ....|--- ...B ....|A-3 L..B ....
....|..|C#3 ...8 ....|--- .... ....|--- .... ....
....|..|--- .... ....|--- ...C ....|--- ...F ....
....|..|F#3 ...6 ....|--- .... ....|--- .... ....
....|..|D-3 ...8 ....|--- ...C ....|A-3 K..F ....
....|..|--- .... ....|--- .... ....|A-3 L... ....
....|..|C#3 ...6 ....|--- ...B ....|A-3 K..B ....
....|..|F#3 OFA8 ....|--- .... ....|A-3 L... ....
....|..|--- .... ....|--- ...B ....|A-3 D..B ....
....|..|--- .... ....|--- .... ....|--- .... ....
....|..|--- ...8 ....|--- ...C ....|C#4 E..F ....
....|..|--- ...4 ....|F#4 OFA6 ....|--- .... ....
....|..|--- ...A ....|--- .... ....|A-3 A..B ....
....|..|--- ...6 ....|--- ...8 ....|--- .... ....
....|..|C#1 2F.7 ....|--- ...4 ....|A-3 L..F ....
....|..|--- ...8 ....|--- ...A ....|--- .... ....
....|..|--- ...9 ....|--- ...6 ....|C#4 E..F ....
....|..|--- ...5 ....|C#2 7F.. ....|--- .... ....
....|..|--- ...B ....|--- ...B ....|--- ...B ....
....|..|--- ...7 ....|--- .... ....|--- .... ....
....|..|--- ...8 ....|--- ...C ....|A-3 K..B ....
....|..|--- ...9 ....|--- .... ....|--- .... ....
....|..|--- ...B ....|--- ...B ....|A-3 L..F ....
....|..|--- ...6 ....|--- .... ....|--- .... ....

[Pattern6]
....|..|C#3 2F3C ....|C#2 7F.C ....|A-3 AF.F ....
....|..|--- .... ....|--- .... ....|--- .... ....
....|..|--- ...B ....|--- ...B ....|A-3 K..F ....
....|..|--- .... ....|--- .... ....|A-3 L... ....
....|..|--- ...B ....|--- ...B ....|A-3 K..B ....
....|..|--- .... ....|--- .... ....|A-3 L... ....
....|..|--- ...C ....|--- ...C ....|A-3 D..B ....
....|..|--- .... ....|--- .... ....|--- .... ....
....|..|--- ...B ....|--- ...B ....|A-3 L..B ....
....|..|--- .... ....|--- .... ....|--- .... ....
....|..|--- ...B ....|--- ...B ....|A-3 A..F ....
....|..|--- .... ....|--- .... ....|--- .... ....
....|..|--- ...C ....|--- ...C ....|G#8 8..F ....
....|..|--- .... ....|--- .... ....|--- .... ....
 C#2|..|C#1 .C.B ....|C#1 7C.B ....|G#8 8..B ....
....|..|R-- .... ....|R-- .... ....|--- .... ....
 C#2|..|C#1 .C.B ....|C#1 .C.B ....|G#8 B..F ....
....|..|R-- .... ....|R-- .... ....|--- .... ....
....|..|--- ...C ....|--- ...C ....|G#8 8..B ....
....|..|--- .... ....|--- .... ....|--- .... ....
 C#3|..|C#1 .C.B ....|C#2 .C.B ....|G#8 J..F ....
....|..|R-- .... ....|R-- .... ....|--- .... ....
 C#4|..|C#1 .A.B ....|C#2 .A.B ....|G#8 B..B ....
....|..|R-- .... ....|R-- .... ....|--- .... ....
....|..|C#3 2F3C ....|--- ...C ....|G#8 J..F ....
....|..|--- .... ....|--- .... ....|--- .... ....
....|..|--- ...B ....|--- ...B ....|G#8 J..B ....
....|..|--- .... ....|--- .... ....|--- .... ....
....|..|C#1 .F.C ....|C#2 ...C ....|G#8 U..F ....
....|..|--- .... ....|--- .... ....|--- .... ....
....|..|--- ...B ....|--- ...B ....|G#8 J..B ....
....|..|--- .... ....|--- .... ....|--- .... ....
....|..|C#3 2F5C ....|C#2 .F.C 3140|A-3 DF.F ....
....|..|--- .... ....|--- .... ....|--- .... ....
....|..|--- ...B ....|--- ...B ....|A-3 K..F ....
....|..|--- .... ....|--- .... ....|A-3 L... ....
....|..|--- ...B ....|--- ...B ....|A-3 K..B ....
....|..|--- .... ....|--- .... ....|A-3 L... ....
....|..|--- ...C ....|--- ...C ....|A-3 D..B ....
....|..|--- .... ....|--- .... ....|--- .... ....
....|..|--- ...B ....|--- ...B ....|A-3 L..B ....
....|..|--- .... ....|--- .... ....|--- .... ....
....|..|--- ...B ....|--- ...C ....|G#8 J..B ....
....|..|--- .... ....|--- .... ....|--- .... ....
....|..|--- ...C ....|--- ...C ....|F#3 A..F ....
....|..|--- .... ....|--- .... ....|--- .... ....
....|..|--- ...B ....|--- ...B ....|G#8 8..B ....
....|..|--- .... ....|--- .... ....|--- .... ....
....|..|G#7 UFAA ....|--- ...B ....|G#8 B..F ....
....|..|--- .... ....|--- .... ....|--- .... ....
....|..|R-- .... ....|--- ...C ....|F#3 A..B ....
....|..|G#7 ...8 ....|--- .... ....|--- .... ....
....|..|--- .... ....|--- ...B ....|G#8 J..F ....
....|..|R-- .... ....|--- .... ....|--- .... ....
....|..|G#7 ...6 ....|--- ...B ....|G#8 B..B ....
....|..|--- .... ....|--- .... ....|--- .... ....
....|..|C#3 2F5B ....|--- ...C ....|G#8 8..F ....
....|..|--- .... ....|--- .... ....|--- .... ....
....|..|--- .... ....|--- ...B ....|G#8 J..B ....
....|..|--- .... ....|--- .... ....|--- .... ....
....|..|--- .... ....|--- ...C ....|G#8 B..F ....
....|..|--- .... ....|--- .... ....|--- .... ....
....|..|--- .... ....|--- ...B ....|G#8 8..B ....
....|..|--- .... ....|--- .... ....|--- .... ....

[Pattern7]
....|..|C#3 2F8C ....|C#2 7F.C ....|A-3 AF.F ....
....|..|--- .... ....|--- .... ....|--- .... ....
....|..|--- ...B ....|--- ...B ....|A-3 K..F ....
....|..|--- .... ....|--- .... ....|A-3 L... ....
....|..|--- ...B ....|--- ...B ....|A-3 K..B ....
....|..|--- .... ....|--- .... ....|A-3 L... ....
....|..|--- ...C ....|--- ...C ....|A-3 D..B ....
....|..|--- .... ....|--- .... ....|--- .... ....
....|..|--- ...B ....|--- ...B ....|A-3 L..B ....
....|..|--- .... ....|--- .... ....|--- .... ....
....|..|--- ...B ....|--- ...B ....|A-3 A..F ....
....|..|--- .... ....|--- .... ....|--- .... ....
....|..|--- ...C ....|--- ...C ....|G#8 8..F ....
....|..|--- .... ....|--- .... ....|--- .... ....
 C#2|..|C#1 .C.B ....|C#1 7C.B ....|G#8 8..B ....
....|..|R-- .... ....|R-- .... ....|--- .... ....
 C#2|..|C#1 .C.B ....|C#1 .C.B ....|G#8 B..F ....
....|..|R-- .... ....|R-- .... ....|--- .... ....
....|..|--- ...C ....|--- ...C ....|G#8 8..B ....
....|..|--- .... ....|--- .... ....|--- .... ....
 C#3|..|C#1 .C.B ....|C#2 .C.B ....|G#8 J..F ....
....|..|R-- .... ....|R-- .... ....|--- .... ....
 C#4|..|C#1 .A.B ....|C#2 .A.B ....|G#8 B..B ....
....|..|R-- .... ....|R-- .... ....|--- .... ....
....|..|A-2 2F4C ....|--- ...C ....|G#8 J..F ....
....|..|--- .... ....|--- .... ....|--- .... ....
....|..|--- ...B ....|--- ...B ....|G#8 J..B ....
....|..|--- .... ....|--- .... ....|--- .... ....
....|..|C#1 .F.C ....|C#2 ...C ....|G#8 U..F ....
....|..|--- .... ....|--- .... ....|--- .... ....
....|..|--- ...B ....|--- ...B ....|G#8 J..B ....
....|..|--- .... ....|--- .... ....|--- .... ....
....|..|E-3 2F4C ....|C#2 .F.C 3140|A-3 DF.F ....
....|..|--- .... ....|--- .... ....|--- .... ....
....|..|--- ...B ....|--- ...B ....|A-3 K..F ....
....|..|--- .... ....|--- .... ....|A-3 L... ....
....|..|--- ...B ....|--- ...B ....|A-3 K..B ....
....|..|--- .... ....|--- .... ....|A-3 L... ....
....|..|--- ...C ....|--- ...C ....|A-3 D..B ....
....|..|--- .... ....|--- .... ....|--- .... ....
....|..|--- ...B ....|--- ...B ....|A-3 L..B ....
....|..|--- .... ....|--- .... ....|--- .... ....
....|..|--- ...B ....|--- ...C ....|G#8 J..B ....
....|..|--- .... ....|--- .... ....|--- .... ....
....|..|--- ...C ....|--- ...C ....|F#3 A..F ....
....|..|--- .... ....|--- .... ....|--- .... ....
....|..|--- ...B ....|--- ...B ....|G#8 8..B ....
....|..|--- .... ....|--- .... ....|--- .... ....
....|..|G#7 UFAA ....|--- ...B ....|G#8 B..F ....
....|..|--- .... ....|--- .... ....|--- .... ....
....|..|R-- .... ....|--- ...C ....|F#3 A..B ....
....|..|G#7 ...8 ....|--- .... ....|--- .... ....
....|..|--- .... ....|--- ...B ....|G#8 J..F ....
....|..|R-- .... ....|--- .... ....|--- .... ....
....|..|G#7 ...6 ....|--- ...B ....|G#8 B..B ....
....|..|--- .... ....|--- .... ....|--- .... ....
....|..|D-3 2F4B ....|--- ...C ....|G#8 8..F ....
....|..|--- .... ....|--- .... ....|--- .... ....
....|..|--- .... ....|--- ...B ....|G#8 J..B ....
....|..|--- .... ....|--- .... ....|--- .... ....
....|..|--- .... ....|--- ...C ....|G#8 B..F ....
....|..|--- .... ....|--- .... ....|--- .... ....
....|..|--- .... ....|--- ...B ....|G#8 8..B ....
....|..|--- .... ....|--- .... ....|--- .... ....

[Pattern8]
....|..|C#3 GF3B ....|E-3 9F.F ....|A-3 DF.F ....
 E-3|..|--- .... ....|E-1 2A.. ....|--- .... ....
....|..|--- .... ....|--- .... ....|A-3 K..F ....
....|..|--- .... ....|--- .... ....|A-3 L... ....
....|..|--- .... 31.A|E-2 .... ....|A-3 K..B ....
....|..|--- .... ....|--- .... ....|A-3 L... ....
....|..|--- .... ....|C#4 2F3D ....|A-3 D..B ....
....|..|--- .... ....|--- .... ....|--- .... ....
....|..|--- .... ....|E-3 9F.F ....|A-3 L..B ....
 E-3|..|--- .... ....|E-1 2A.. ....|--- .... ....
....|..|--- .... ....|--- .... ....|G#8 J..B ....
....|..|--- .... ....|--- .... ....|--- .... ....
....|..|--- .... 31.A|E-2 .... ....|G#8 8..F ....
....|..|--- .... ....|--- .... ....|--- .... ....
....|..|--- .... ....|C#4 2F5D ....|G#8 8..B ....
....|..|--- .... ....|--- .... ....|--- .... ....
....|..|--- .... ....|A-2 9F.F ....|G#8 B..F ....
 A-2|..|--- .... ....|C-1 2A.. ....|--- .... ....
....|..|--- .... ....|A-1 .... ....|G#8 8..B ....
....|..|--- .... ....|--- .... ....|--- .... ....
....|..|--- .... ....|C-1 .... ....|G#8 J..F ....
....|..|--- .... ....|--- .... ....|--- .... ....
....|..|--- .... ....|A-1 .... ....|G#8 B..B ....
....|..|--- .... ....|--- .... ....|--- .... ....
....|..|--- .... ....|E-4 2F4D ....|G#8 J..F ....
....|..|--- .... ....|--- .... ....|--- .... ....
....|..|--- .... ....|--- .... ....|G#8 J..B ....
....|..|--- .... ....|--- .... ....|--- .... ....
....|..|--- .... 11.1|C#3 9F.F ....|G#8 U..F ....
 C#3|..|--- .... ....|C#1 2A.. ....|--- .... ....
....|..|--- .... ....|--- .... ....|A-3 DF.F ....
....|..|--- .... ....|--- .... ....|--- .... ....
....|..|C#3 .F5. ....|D-3 9F.. ....|A-3 K..F ....
 D-3|..|--- .... ....|D-1 2A.. ....|A-3 L... ....
....|..|--- .... ....|--- .... ....|A-3 K..B ....
....|..|--- .... ....|--- .... ....|A-3 L... ....
....|..|--- .... 31.A|D-4 2F4D ....|A-3 D..B ....
....|..|--- .... ....|--- .... ....|--- .... ....
....|..|--- .... ....|D-3 9F.F ....|A-3 L..B ....
 D-3|..|--- .... ....|D-1 2A.. ....|--- .... ....
....|..|--- .... ....|D-2 .... ....|G#8 8..F ....
....|..|--- .... ....|D-2 .... ....|--- .... ....
....|..|--- .... ....|D-3 2F4D ....|G#8 1..B ....
....|..|--- .... ....|--- .... ....|--- .... ....
....|..|--- .... 31.A|D-3 9F.F ....|F#3 A..F ....
 D-3|..|--- .... ....|D-1 2A.. ....|--- .... ....
....|..|--- .... ....|--- .... ....|G#8 8..B ....
....|..|--- .... ....|--- .... ....|--- .... ....
....|..|--- .... ....|F#3 9F.. ....|G#8 B..F ....
 F#2|..|--- .... ....|F#2 28.. ....|--- .... ....
....|..|--- .... ....|--- .... ....|F#3 A..B ....
....|..|--- .... ....|--- .... ....|--- .... ....
....|..|--- .... 31.A|D-4 2F4D ....|G#8 J..F ....
....|..|--- .... ....|--- .... ....|--- .... ....
....|..|--- .... ....|F#3 9F.F ....|G#8 B..B ....
 F#2|..|--- .... ....|F#1 2A.. ....|--- .... ....
....|..|--- .... ....|--- .... ....|G#8 8..F ....
....|..|--- .... ....|--- .... ....|--- .... ....
....|..|--- .... ....|D-4 2F4D ....|G#8 J..B ....
....|..|--- .... ....|--- .... ....|--- .... ....
....|..|--- .... 31.A|F#3 9F.F ....|G#8 B..F ....
 F#3|..|--- .... ....|F#1 2A.. ....|--- .... ....
....|..|--- .... ....|--- .... ....|G#8 8..B ....
....|..|--- .... ....|--- .... ....|--- .... ....

[Pattern9]
....|..|C#3 GF8B ....|E-3 9F.F ....|A-3 DF.F ....
 E-3|..|--- .... ....|E-1 2A.. ....|--- .... ....
....|..|--- .... ....|--- .... ....|A-3 K..F ....
....|..|--- .... ....|--- .... ....|A-3 L... ....
....|..|--- .... 31.A|E-2 .... ....|A-3 K..B ....
....|..|--- .... ....|--- .... ....|A-3 L... ....
....|..|--- .... ....|C#4 2F3D ....|A-3 D..B ....
....|..|--- .... ....|--- .... ....|--- .... ....
....|..|--- .... ....|E-3 9F.F ....|A-3 L..B ....
 E-3|..|--- .... ....|E-1 2A.. ....|--- .... ....
....|..|--- .... ....|--- .... ....|G#8 J..B ....
....|..|--- .... ....|--- .... ....|--- .... ....
....|..|--- .... 31.A|E-2 .... ....|G#8 8..F ....
....|..|--- .... ....|--- .... ....|--- .... ....
....|..|--- .... ....|C#4 2F5D ....|G#8 8..B ....
....|..|--- .... ....|--- .... ....|--- .... ....
....|..|--- .... ....|A-2 9F.F ....|G#8 B..F ....
 A-2|..|--- .... ....|C-1 2A.. ....|--- .... ....
....|..|--- .... ....|A-1 .... ....|G#8 8..B ....
....|..|--- .... ....|--- .... ....|--- .... ....
....|..|--- .... ....|C-1 .... ....|G#8 J..F ....
....|..|--- .... ....|--- .... ....|--- .... ....
....|..|--- .... ....|A-1 .... ....|G#8 B..B ....
....|..|--- .... ....|--- .... ....|--- .... ....
....|..|--- .... ....|E-4 2F4D ....|G#8 J..F ....
....|..|--- .... ....|--- .... ....|--- .... ....
....|..|--- .... ....|--- .... ....|G#8 J..B ....
....|..|--- .... ....|--- .... ....|--- .... ....
....|..|--- .... 11.1|C#3 9F.F ....|G#8 U..F ....
 C#3|..|--- .... ....|C#1 2A.. ....|--- .... ....
....|..|--- .... ....|--- .... ....|A-3 DF.F ....
....|..|--- .... ....|--- .... ....|--- .... ....
....|..|C#3 .F5. ....|D-3 9F.. ....|A-3 K..F ....
 D-3|..|--- .... ....|D-1 2A.. ....|A-3 L... ....
....|..|--- .... ....|--- .... ....|A-3 K..B ....
....|..|--- .... ....|--- .... ....|A-3 L... ....
....|..|--- .... 31.A|D-4 2F4D ....|A-3 D..B ....
....|..|--- .... ....|--- .... ....|--- .... ....
....|..|--- .... ....|D-3 9F.F ....|A-3 L..B ....
 D-3|..|--- .... ....|D-1 2A.. ....|--- .... ....
....|..|--- .... ....|D-2 .... ....|G#8 8..F ....
....|..|--- .... ....|D-2 .... ....|--- .... ....
....|..|--- .... ....|D-3 2F4D ....|G#8 1..B ....
....|..|--- .... ....|--- .... ....|--- .... ....
....|..|--- .... 31.A|D-3 9F.F ....|F#3 A..F ....
 D-3|..|--- .... ....|D-1 2A.. ....|--- .... ....
....|..|--- .... ....|--- .... ....|G#8 8..B ....
....|..|--- .... ....|--- .... ....|--- .... ....
....|..|--- .... ....|F#3 9F.. ....|G#8 B..F ....
 F#2|..|--- .... ....|F#2 28.. ....|--- .... ....
....|..|--- .... ....|--- .... ....|F#3 A..B ....
....|..|--- .... ....|--- .... ....|--- .... ....
....|..|--- .... 31.A|D-4 2F4D ....|G#8 J..F ....
....|..|--- .... ....|--- .... ....|--- .... ....
....|..|--- .... ....|F#3 9F.F ....|G#8 B..B ....
 F#2|..|--- .... ....|F#1 2A.. ....|--- .... ....
....|..|--- .... ....|--- .... ....|G#8 8..F ....
....|..|--- .... ....|--- .... ....|--- .... ....
....|..|--- .... ....|D-4 2F4D ....|G#8 J..B ....
....|..|--- .... ....|--- .... ....|--- .... ....
....|..|--- .... 31.A|F#3 9F.F ....|G#8 B..F ....
 F#3|..|--- .... ....|F#1 2A.. ....|--- .... ....
....|..|--- .... ....|--- .... ....|G#8 8..B ....
....|..|--- .... ....|--- .... ....|--- .... ....

[Pattern10]
....|..|F#3 MFAF ....|A-3 9F.F ....|F#3 AF.F ....
 A-2|..|C#4 ...B ....|A-1 2A.. ....|--- .... ....
....|..|A-3 ...F ....|--- .... ....|G#8 B..B ....
....|..|F#3 ...B ....|--- .... ....|--- .... ....
....|..|C#4 ...F ....|--- .... ....|G#8 J..F ....
....|..|A-3 ...B ....|--- .... ....|--- .... ....
....|..|E-4 ...F ....|A-4 2F4C ....|F#3 A..B ....
....|..|C#4 ...B ....|--- .... ....|--- .... ....
....|..|G#4 ...F ....|A-3 9F.F ....|G#8 8..F ....
 A-2|..|E-4 ...B ....|A-1 2A.. ....|--- .... ....
....|..|E-4 ...F ....|--- .... ....|G#8 J..B ....
....|..|G#4 ...B ....|--- .... ....|--- .... ....
....|..|C#4 ...F ....|--- .... ....|G#8 8..F ....
....|..|E-4 ...B ....|--- .... ....|--- .... ....
....|..|A-3 ...F ....|A-4 2F4C ....|G#8 8..B ....
....|..|C#4 ...B ....|--- .... ....|--- .... ....
....|..|F#3 ...F ....|A-2 9F.F ....|G#8 B..F ....
 A-2|..|A-3 ...B ....|A-1 2A.. ....|--- .... ....
....|..|A-3 ...F ....|--- .... ....|G#8 8..B ....
....|..|F#3 ...B ....|--- .... ....|--- .... ....
....|..|C#4 ...F ....|--- .... ....|G#8 J..F ....
....|..|A-3 ...B ....|--- .... ....|--- .... ....
....|..|E-4 ...F ....|--- .... ....|G#8 B..B ....
....|..|C#4 ...B ....|--- .... ....|--- .... ....
....|..|G#4 ...F ....|A-4 2F4C ....|G#8 J..F ....
....|..|E-4 ...B ....|--- .... ....|--- .... ....
....|..|E-4 ...F ....|--- .... ....|G#8 J..B ....
....|..|G#4 ...B ....|--- .... ....|--- .... ....
....|..|C#4 ...F ....|A-3 9F.F ....|G#8 U..F ....
 A-2|..|E-4 ...B ....|A-1 2A.. ....|--- .... ....
....|..|A-3 ...F ....|--- .... ....|G#8 J..B ....
....|..|C#4 ...B ....|--- .... ....|--- .... ....
....|..|G#3 ...F ....|G#4 9F.. ....|F#3 AF.F ....
 G#2|..|A-3 ...B ....|G#1 2A.. ....|--- .... ....
....|..|C#4 ...F ....|--- .... ....|G#8 8..B ....
....|..|G#3 ...B ....|--- .... ....|--- .... ....
....|..|E-4 ...F ....|G#4 2F5C ....|G#8 J..F ....
....|..|C#4 ...B ....|--- .... ....|--- .... ....
....|..|G#4 ...F ....|D-3 9F.F ....|F#3 A..B ....
 G#2|..|E-4 ...B ....|G#1 2A.. ....|--- .... ....
....|..|A-4 ...F ....|--- .... ....|G#8 8..F ....
....|..|G#4 ...B ....|--- .... ....|--- .... ....
....|..|G#4 ...F ....|G#4 2F5C ....|G#8 J..B ....
....|..|A-4 ...B ....|--- .... ....|--- .... ....
....|..|E-4 ...F ....|D-3 9F.F ....|F#3 A..F ....
 G#3|..|G#4 ...B ....|G#2 2A.. ....|--- .... ....
....|..|C#4 ...F ....|--- .... ....|G#8 8..B ....
....|..|E-4 ...B ....|--- .... ....|--- .... ....
....|..|G#3 ...F ....|F#3 9F.. ....|G#8 B..F ....
 G#2|..|C#4 ...B ....|G#1 2A.. ....|--- .... ....
....|..|C#4 ...F ....|--- .... ....|F#3 A..B ....
....|..|G#3 ...B ....|--- .... ....|--- .... ....
....|..|E-4 ...F ....|G#4 2F5C ....|G#8 J..F ....
....|..|C#4 ...B ....|--- .... ....|--- .... ....
....|..|G#4 ...F ....|G#3 9F.F ....|G#8 B..B ....
 G#3|..|E-4 ...B ....|G#2 2A.. ....|--- .... ....
....|..|A-4 ...F ....|--- .... ....|G#8 8..F ....
....|..|G#4 ...B ....|--- .... ....|--- .... ....
....|..|G#4 ...F ....|G#4 2F5C ....|G#8 J..B ....
....|..|A-4 ...B ....|--- .... ....|--- .... ....
....|..|E-4 ...F ....|G#3 9F.F ....|G#8 B..F ....
 G#2|..|G#4 ...B ....|G#1 2A.. ....|--- .... ....
....|..|C#4 ...F ....|--- .... ....|G#8 8..B ....
....|..|E-4 ...B ....|--- .... ....|--- .... ....

[Pattern11]
....|..|G-3 MFAF ....|G-3 9F.F ....|F#3 AF.F ....
 G-3|..|A-4 ...B ....|G-1 2A.. ....|--- .... ....
....|..|B-3 ...F ....|--- .... ....|G#8 B..B ....
....|..|G-3 ...B ....|--- .... ....|--- .... ....
....|..|D-4 ...F ....|--- .... ....|G#8 J..F ....
....|..|B-3 ...B ....|--- .... ....|--- .... ....
....|..|F#4 ...F ....|G-4 2F4D ....|F#3 A..B ....
....|..|D-4 ...B ....|--- .... ....|--- .... ....
....|..|G-4 ...F ....|F#3 9F.F ....|G#8 8..F ....
 F#3|..|F#4 ...B ....|F#1 2A.. ....|--- .... ....
....|..|F#4 ...F ....|--- .... ....|G#8 J..B ....
....|..|G-4 ...B ....|--- .... ....|--- .... ....
....|..|D-4 ...F ....|--- .... ....|G#8 8..F ....
....|..|F#4 ...B ....|--- .... ....|--- .... ....
....|..|B-3 ...F ....|G-4 2F4D ....|G#8 8..B ....
....|..|D-4 ...B ....|--- .... ....|--- .... ....
....|..|G-3 ...F ....|G-3 9F.F ....|G#8 B..F ....
 G-3|..|B-3 ...B ....|G-1 2A.. ....|--- .... ....
....|..|B-3 ...F ....|--- .... ....|G#8 8..B ....
....|..|G-3 ...B ....|--- .... ....|--- .... ....
....|..|D-4 ...F ....|--- .... ....|G#8 J..F ....
....|..|B-3 ...B ....|--- .... ....|--- .... ....
....|..|F#4 ...F ....|--- .... ....|G#8 B..B ....
....|..|D-4 ...B ....|--- .... ....|--- .... ....
....|..|G-4 ...F ....|G-4 2F4D ....|G#8 J..F ....
....|..|F#4 ...B ....|--- .... ....|--- .... ....
....|..|F#4 ...F ....|--- .... ....|G#8 J..B ....
....|..|G-4 ...B ....|--- .... ....|--- .... ....
....|..|D-4 ...F ....|G-3 9F.F ....|G#8 U..F ....
 G-3|..|F#4 ...B ....|G-1 2A.. ....|--- .... ....
....|..|B-3 ...F ....|--- .... ....|G#8 J..B ....
....|..|D-4 ...B ....|--- .... ....|--- .... ....
....|..|F#3 ...F ....|F#3 9F.. ....|F#3 AF.F ....
 F#3|..|B-3 ...B ....|F#1 2A.. ....|--- .... ....
....|..|C#4 ...F ....|--- .... ....|G#8 8..B ....
....|..|F#3 ...B ....|--- .... ....|--- .... ....
....|..|E-4 ...F ....|F#4 2F5D ....|G#8 J..F ....
....|..|C#4 ...B ....|--- .... ....|--- .... ....
....|..|G-4 ...F ....|F#3 9F.F ....|F#3 A..B ....
 F#3|..|E-4 ...B ....|F#1 2A.. ....|--- .... ....
....|..|F#3 ...F ....|--- .... ....|G#8 8..F ....
....|..|G-4 ...B ....|--- .... ....|--- .... ....
....|..|C#4 ...F ....|F#4 2F5D ....|G#8 J..B ....
....|..|F#3 ...B ....|--- .... ....|--- .... ....
....|..|E-4 ...F ....|F#3 9F.F ....|F#3 A..F ....
 F#3|..|C#4 ...B ....|F#1 2A.. ....|--- .... ....
....|..|A-4 ...F ....|--- .... ....|G#8 8..B ....
....|..|E-4 ...B ....|--- .... ....|--- .... ....
....|..|F#3 ...F ....|F#3 9F.. ....|G#8 B..F ....
 F#3|..|A-4 ...B ....|F#1 2A.. ....|--- .... ....
....|..|C#4 ...F ....|--- .... ....|F#3 A..B ....
....|..|F#3 ...B ....|--- .... ....|--- .... ....
....|..|E-4 ...F ....|F#4 2F5D ....|G#8 J..F ....
....|..|C#4 ...B ....|--- .... ....|--- .... ....
....|..|G-4 ...F ....|F#3 9F.F ....|G#8 B..B ....
 F#3|..|E-4 ...B ....|F#1 2A.. ....|--- .... ....
....|..|F#3 ...F ....|--- .... ....|G#8 8..F ....
....|..|G-4 ...B ....|--- .... ....|--- .... ....
....|..|C#4 ...F ....|F#4 2F5D ....|G#8 J..B ....
....|..|F#3 ...B ....|--- .... ....|--- .... ....
....|..|E-4 ...F ....|F#3 9F.F ....|G#8 B..F ....
 F#3|..|C#4 ...B ....|F#1 2A.. ....|--- .... ....
....|..|A-4 ...F ....|--- .... ....|G#8 8..B ....
....|..|E-4 ...B ....|--- .... ....|--- .... ....

[Pattern12]
....|..|E-3 MFAF ....|E-3 9F.F ....|F#3 AF.F ....
 E-3|..|F#3 ...B ....|E-1 2A.. ....|--- .... ....
....|..|G#3 ...F ....|--- .... ....|G#8 U..B ....
....|..|E-3 ...B ....|--- .... ....|--- .... ....
....|..|B-3 ...F ....|E-2 .... ....|G#8 J..F ....
....|..|G#3 ...B ....|--- .... ....|--- .... ....
....|..|C#4 ...F ....|E-4 2F4D ....|F#3 A..B ....
....|..|B-3 ...B ....|--- .... ....|--- .... ....
....|..|E-4 ...F ....|E-3 9F.F ....|E-4 2FAF ....
 E-3|..|C#4 ...B ....|E-1 2A.. ....|--- .... ....
....|..|C#4 ...F ....|--- .... ....|G#8 J..B ....
....|..|E-4 ...B ....|--- .... ....|--- .... ....
....|..|B-3 ...F ....|E-2 .... ....|G#8 8..F ....
....|..|C#4 ...B ....|--- .... ....|--- .... ....
....|..|G#3 ...F ....|E-4 2F4D ....|F#3 B..B ....
....|..|B-3 ...B ....|--- .... ....|--- .... ....
....|..|E-3 ...F ....|A-2 9F.F ....|F#3 A..F ....
 A-2|..|G#3 ...B ....|C-1 2A.. ....|--- .... ....
....|..|G#3 ...F ....|A-1 .... ....|G#8 8..B ....
....|..|E-3 ...B ....|--- .... ....|--- .... ....
....|..|B-3 ...F ....|C-1 .... ....|G#8 J..F ....
....|..|G#3 ...B ....|--- .... ....|--- .... ....
....|..|C#4 ...F ....|A-1 .... ....|F#3 A..B ....
....|..|B-3 ...B ....|--- .... ....|--- .... ....
....|..|E-4 ...F ....|E-4 2F4D ....|G#8 J..F ....
....|..|C#4 ...B ....|--- .... ....|--- .... ....
....|..|C#4 ...F ....|--- .... ....|G#8 J..B ....
....|..|E-4 ...B ....|--- .... ....|--- .... ....
....|..|B-3 ...F ....|C#3 9F.F ....|G#8 U..F ....
 C#3|..|C#4 ...B ....|C#1 2A.. ....|G#8 J..C ....
....|..|G#3 ...F ....|--- .... ....|G#8 J..B ....
....|..|B-3 ...B ....|--- .... ....|G#8 J..D ....
....|..|D-3 ...F ....|D-3 9F.. ....|F#3 AF.F ....
 D-3|..|G#3 ...B ....|D-1 2A.. ....|--- .... ....
....|..|F#3 ...F ....|--- .... ....|G#8 U..B ....
....|..|D-3 ...B ....|--- .... ....|--- .... ....
....|..|A-3 ...F ....|D-4 2F4D ....|G#8 J..F ....
....|..|F#3 ...B ....|--- .... ....|--- .... ....
....|..|C#4 ...F ....|D-3 9F.F ....|F#3 A..B ....
 D-3|..|A-3 ...B ....|D-1 2A.. ....|--- .... ....
....|..|D-4 ...F ....|D-2 .... ....|D-4 2FAF ....
....|..|C#4 ...B ....|D-2 .... ....|--- .... ....
....|..|C#4 ...F ....|D-3 2F4D ....|G#8 J..B ....
....|..|D-4 ...B ....|--- .... ....|--- .... ....
....|..|A-3 ...F ....|D-3 9F.F ....|F#4 2FAF ....
 D-3|..|C#4 ...B ....|D-1 2A.. ....|--- .... ....
....|..|F#3 ...F ....|--- .... ....|F#3 B..B ....
....|..|A-3 ...B ....|--- .... ....|--- .... ....
....|..|D-3 ...F ....|F#3 9F.. ....|F#3 A..F ....
 F#2|..|F#3 ...B ....|F#2 28.. ....|--- .... ....
....|..|F#3 ...F ....|--- .... ....|G#8 8..B ....
....|..|D-3 ...B ....|--- .... ....|--- .... ....
....|..|A-3 ...F ....|D-4 2F4D ....|G#8 J..F ....
....|..|F#3 ...B ....|--- .... ....|--- .... ....
....|..|C#4 ...F ....|F#3 9F.F ....|F#3 A..B ....
 F#2|..|A-3 ...B ....|F#1 2A.. ....|--- .... ....
....|..|D-4 ...F ....|--- .... ....|G#8 J..F ....
....|..|C#4 ...B ....|--- .... ....|--- .... ....
....|..|C#4 ...F ....|D-4 2F4D ....|G#8 J..B ....
....|..|D-4 ...B ....|--- .... ....|--- .... ....
....|..|A-3 ...F ....|F#3 9F.F ....|G#8 U..F ....
 F#3|..|C#4 ...B ....|F#1 2A.. ....|--- .... ....
....|..|F#3 ...F ....|--- .... ....|G#8 J..B ....
....|..|A-3 ...B ....|--- .... ....|--- .... ....

[Pattern13]
....|..|C-1 2F1E ....|A-3 9F.F ....|F#3 AF.F ....
 A-3|..|--- .... ....|A-1 2A.. ....|--- .... ....
 A-3|..|C-1 .... ....|--- .... ....|A-2 2A.B ....
....|..|--- .... ....|--- .... ....|--- .... ....
 E-4|..|E-3 5A.. ....|E-2 .A.. ....|F#3 AF.F ....
....|..|E-3 .... ....|--- .... ....|--- .... ....
 E-2|..|E-1 NC.. ....|A-3 2F4D ....|E-1 2C.B ....
....|..|--- .... ....|--- .... ....|--- .... ....
....|..|--- .... ....|A-3 9F.F ....|F#3 AF.F ....
 C#4|..|G#2 MA.. ....|C#2 2A.. ....|--- .... ....
 C#4|..|--- .... ....|--- .... ....|C#2 2A.B ....
....|..|--- .... ....|--- .... ....|--- .... ....
 E-4|..|E-4 .A.. ....|E-2 .A.. ....|F#3 AF.F ....
....|..|--- .... ....|--- .... ....|--- .... ....
 E-4|..|C-1 .F.. ....|A-3 2F4D ....|E-2 2A.B ....
....|..|--- .... ....|--- .... ....|--- .... ....
....|..|C-1 .... ....|A-3 9F.F ....|F#3 AF.F ....
 A-3|..|C-1 2A.. ....|A-1 2A.. ....|--- .... ....
 A-3|..|--- .... ....|A-2 .... ....|A-1 2A.B ....
....|..|--- .... ....|--- .... ....|--- .... ....
....|..|--- .... ....|C-1 .... ....|F#3 AF.F ....
....|..|--- .... ....|--- .... ....|--- .... ....
 A-3|..|--- .... ....|A-1 .... ....|A-1 2A.B ....
....|..|--- .... ....|--- .... ....|--- .... ....
....|..|--- .... ....|A-3 2F4D ....|F#3 AF.F ....
....|..|--- .... ....|--- .... ....|--- .... ....
 A-3|..|--- .... ....|--- .... ....|A-1 2A.B ....
....|..|--- .... ....|--- .... ....|--- .... ....
....|..|E-1 .... ....|A-3 9F.F ....|F#3 AF.F ....
 E-2|..|B-1 MC.. ....|E-1 2C.. ....|G#8 J..C ....
 E-2|..|--- .... ....|--- .... ....|E-1 2C.B ....
....|..|--- .... ....|--- .... ....|G#8 J..D ....
 G-3|..|C-3 MC.. ....|E-3 9F.. ....|F#3 AF.F ....
 G-3|..|D-2 .A.. ....|G-1 2A.. ....|--- .... ....
 G-4|..|--- .... ....|--- .... ....|G-2 2A.B ....
....|..|--- .... ....|--- .... ....|--- .... ....
....|..|--- .... ....|E-4 2F3D ....|F#3 AF.F ....
....|..|--- .... ....|--- .... ....|--- .... ....
 B-2|..|D-1 2A.. ....|E-3 9F.F ....|D-1 2A.B ....
 B-3|..|B-1 .... ....|B-1 2A.. ....|--- .... ....
....|..|--- .... ....|B-3 .... ....|F#3 AF.F ....
....|..|--- .... ....|B-2 .... ....|--- .... ....
 B-2|..|--- .... ....|E-4 2F3D ....|D-1 2A.B ....
....|..|--- .... ....|--- .... ....|--- .... ....
 D-4|..|D-1 2A.. ....|E-3 9F.F ....|F#3 AF.F ....
 D-4|..|D-1 .... ....|D-2 2A.. ....|--- .... ....
 D-3|..|--- .... ....|--- .... ....|D-1 2A.B ....
....|..|--- .... ....|--- .... ....|--- .... ....
....|..|--- .... ....|E-3 9F.. ....|F#3 AF.F ....
 C#3|..|C#3 M8.. ....|C#2 28.. ....|--- .... ....
 C#2|..|G#5 .... ....|--- .... ....|C#1 28.B ....
....|..|--- .... ....|--- .... ....|--- .... ....
....|..|--- .... ....|E-4 2F3D ....|F#3 AF.F ....
....|..|C#2 2... ....|--- .... ....|--- .... ....
 C#2|..|--- .... ....|E-3 9F.F ....|C#1 28.B ....
 G-2|..|G-1 .... ....|G-1 28.. ....|--- .... ....
....|..|--- .... ....|--- .... ....|F#3 AF.F ....
....|..|--- .... ....|--- .... ....|--- .... ....
 G-2|..|--- .... ....|E-4 2F3D ....|G-1 28.B ....
....|..|--- .... ....|--- .... ....|--- .... ....
 E-3|..|E-1 .A.. ....|E-3 9F.F ....|F#3 AF.F ....
 E-3|..|E-1 .... ....|E-1 2A.. ....|--- .... ....
 E-3|..|--- .... ....|--- .... ....|E-1 2A.B ....
....|..|--- .... ....|--- .... ....|--- .... ....

[Pattern14]
....|..|F#3 MFAF ....|A-3 9F.F ....|F#3 AF.F ....
 A-2|..|C#4 ...B ....|A-1 2A.. ....|--- .... ....
....|..|A-3 ...F ....|--- .... ....|G#8 B..B ....
....|..|F#3 ...B ....|--- .... ....|--- .... ....
....|..|C#4 ...F ....|--- .... ....|G#8 J..F ....
....|..|A-3 ...B ....|--- .... ....|--- .... ....
....|..|E-4 ...F ....|A-4 2F4C ....|F#3 A..B ....
....|..|C#4 ...B ....|--- .... ....|--- .... ....
....|..|G#4 ...F ....|A-3 9F.F ....|G#8 8..F ....
 A-2|..|E-4 ...B ....|A-1 2A.. ....|--- .... ....
....|..|E-4 ...F ....|--- .... ....|G#8 J..B ....
....|..|G#4 ...B ....|--- .... ....|--- .... ....
....|..|C#4 ...F ....|--- .... ....|G#8 8..F ....
....|..|E-4 ...B ....|--- .... ....|--- .... ....
....|..|A-3 ...F ....|A-4 2F4C ....|G#8 8..B ....
....|..|C#4 ...B ....|--- .... ....|--- .... ....
....|..|F#3 ...F ....|A-2 9F.F ....|G#8 B..F ....
 A-2|..|A-3 ...B ....|A-1 2A.. ....|--- .... ....
....|..|A-3 ...F ....|--- .... ....|G#8 8..B ....
....|..|F#3 ...B ....|--- .... ....|--- .... ....
....|..|C#4 ...F ....|--- .... ....|G#8 J..F ....
....|..|A-3 ...B ....|--- .... ....|--- .... ....
....|..|E-4 ...F ....|--- .... ....|G#8 B..B ....
....|..|C#4 ...B ....|--- .... ....|--- .... ....
....|..|G#4 ...F ....|A-4 2F4C ....|G#8 J..F ....
....|..|E-4 ...B ....|--- .... ....|--- .... ....
....|..|E-4 ...F ....|--- .... ....|G#8 J..B ....
....|..|G#4 ...B ....|--- .... ....|--- .... ....
....|..|C#4 ...F ....|A-3 9F.F ....|G#8 U..F ....
 A-2|..|E-4 ...B ....|A-1 2A.. ....|--- .... ....
....|..|A-3 ...F ....|--- .... ....|G#8 J..B ....
....|..|C#4 ...B ....|--- .... ....|--- .... ....
....|..|G#3 ...F ....|G#4 9F.. ....|F#3 AF.F ....
 G#2|..|A-3 ...B ....|G#1 2A.. ....|--- .... ....
....|..|C#4 ...F ....|--- .... ....|G#8 8..B ....
....|..|G#3 ...B ....|--- .... ....|--- .... ....
....|..|E-4 ...F ....|G#4 2F5C ....|G#8 J..F ....
....|..|C#4 ...B ....|--- .... ....|--- .... ....
....|..|G#4 ...F ....|D-3 9F.F ....|F#3 A..B ....
 G#2|..|E-4 ...B ....|G#1 2A.. ....|--- .... ....
....|..|A-4 ...F ....|--- .... ....|G#8 8..F ....
....|..|G#4 ...B ....|--- .... ....|--- .... ....
....|..|G#4 ...F ....|G#4 2F5C ....|G#8 J..B ....
....|..|A-4 ...B ....|--- .... ....|--- .... ....
....|..|E-4 ...F ....|D-3 9F.F ....|F#3 A..F ....
 G#3|..|G#4 ...B ....|G#2 2A.. ....|--- .... ....
....|..|C#4 ...F ....|--- .... ....|G#8 8..B ....
....|..|E-4 ...B ....|--- .... ....|--- .... ....
....|..|G#3 ...F ....|F#3 9F.. ....|G#8 B..F ....
 G#2|..|C#4 ...B ....|G#1 2A.. ....|--- .... ....
....|..|C#4 ...F ....|--- .... ....|F#3 A..B ....
....|..|G#3 ...B ....|--- .... ....|--- .... ....
....|..|E-4 ...F ....|G#4 2F5C ....|G#8 J..F ....
....|..|C#4 ...B ....|--- .... ....|--- .... ....
....|..|G#4 ...F ....|G#3 9F.F ....|G#8 B..B ....
 G#3|..|E-4 ...B ....|G#2 2A.. ....|--- .... ....
....|..|A-4 ...F ....|--- .... ....|G#8 8..F ....
....|..|G#4 ...B ....|--- .... ....|--- .... ....
....|..|G#4 ...F ....|G#4 2F5C ....|G#8 J..B ....
....|..|A-4 ...B ....|--- .... ....|--- .... ....
....|..|E-4 ...F ....|G#3 9F.F ....|G#8 B..F ....
 G#2|..|G#4 ...B ....|G#1 2A.. ....|--- .... ....
....|..|C#4 ...F ....|--- .... ....|G#8 8..B ....
....|..|E-4 ...B ....|--- .... ....|--- .... ....

[Pattern15]
....|..|G-3 OFAF ....|G-3 9F.F ....|F#3 AF.F ....
 G-3|..|A-4 ...B ....|G-1 2A.. ....|--- .... ....
....|..|B-3 ...F ....|--- .... ....|G#8 B..B ....
....|..|G-3 ...B ....|--- .... ....|--- .... ....
....|..|D-4 ...F ....|--- .... ....|G#8 J..F ....
....|..|B-3 ...B ....|--- .... ....|--- .... ....
....|..|F#4 ...F ....|G-4 2F4D ....|F#3 A..B ....
....|..|D-4 ...B ....|--- .... ....|--- .... ....
....|..|R-- .... ....|F#3 9F.F ....|G#8 8..F ....
 B-3|..|--- .... ....|B-1 2A.. ....|--- .... ....
....|..|B-3 ...A ....|--- .... ....|G#8 J..B ....
....|..|G-3 ...8 ....|--- .... ....|--- .... ....
....|..|D-4 ...A ....|--- .... ....|G#8 8..F ....
....|..|B-3 ...8 ....|--- .... ....|--- .... ....
....|..|F#4 ...A ....|G-4 2F4D ....|G#8 8..B ....
....|..|D-4 ...8 ....|--- .... ....|--- .... ....
....|..|B-3 ...9 ....|G-3 9F.F ....|G#8 B..F ....
 D-4|..|G-3 ...6 ....|D-2 2A.. ....|--- .... ....
....|..|D-4 ...9 ....|--- .... ....|G#8 8..B ....
....|..|B-3 ...6 ....|--- .... ....|--- .... ....
....|..|G-4 MFAF 21.2|--- .... ....|G#8 J..F ....
....|..|--- ...D ....|--- .... ....|--- .... ....
....|..|--- ...B 21.1|--- .... ....|G#8 B..B ....
....|..|--- ...F ....|--- .... ....|--- .... ....
....|..|G-4 .FAD 21.2|G-4 2F4D ....|G#8 J..F ....
....|..|--- ...B ....|--- .... ....|--- .... ....
....|..|--- ...F 21.1|--- .... ....|G#8 J..B ....
....|..|--- ...D ....|--- .... ....|--- .... ....
....|..|G-4 MFA9 21.2|G-3 9F.F ....|G#8 U..F ....
 G-3|..|--- ...8 ....|G-1 2A.. ....|--- .... ....
....|..|--- ...7 21.1|--- .... ....|G#8 J..B ....
....|..|--- ...9 ....|--- .... ....|--- .... ....
....|..|F#3 OF.F ....|F#3 9F.. ....|F#3 AF.F ....
 F#3|..|B-3 ...B ....|F#1 2A.. ....|--- .... ....
....|..|C#4 ...F ....|--- .... ....|G#8 8..B ....
....|..|F#3 ...B ....|--- .... ....|--- .... ....
....|..|E-4 ...F ....|F#4 2F5D ....|G#8 J..F ....
....|..|C#4 ...B ....|--- .... ....|--- .... ....
....|..|G-4 ...F ....|F#3 9F.F ....|F#3 A..B ....
 G-3|..|E-4 ...B ....|G-1 2A.. ....|--- .... ....
....|..|F#3 ...F ....|--- .... ....|G#8 8..F ....
....|..|G-4 ...B ....|--- .... ....|--- .... ....
....|..|C#4 ...F ....|F#4 2F5D ....|G#8 J..B ....
....|..|F#3 ...B ....|--- .... ....|--- .... ....
....|..|C#4 MFAF 11.2|F#3 9F.F ....|F#3 A..F ....
 C#4|..|--- ...D ....|C#2 2A.. ....|--- .... ....
....|..|--- ...B 11.1|--- .... ....|G#8 8..B ....
....|..|--- ...F ....|--- .... ....|--- .... ....
....|..|F#3 OFAF ....|F#3 9F.. ....|G#8 B..F ....
 E-4|..|A-4 ...B ....|E-2 2A.. ....|--- .... ....
....|..|C#4 ...F ....|--- .... ....|F#3 A..B ....
....|..|F#3 ...B ....|--- .... ....|--- .... ....
....|..|C#4 MFAF 11.2|F#4 2F5D ....|G#8 J..F ....
....|..|--- ...D ....|--- .... ....|--- .... ....
....|..|--- ...B 11.1|F#3 9F.F ....|G#8 B..B ....
 F#3|..|--- ...F ....|F#1 2A.. ....|--- .... ....
....|..|F#3 O..F ....|--- .... ....|G#8 8..F ....
....|..|G-4 ...B ....|--- .... ....|--- .... ....
....|..|C#4 ...F ....|F#4 2F5D ....|G#8 J..B ....
....|..|F#3 ...B ....|--- .... ....|--- .... ....
....|..|E-4 ...F ....|F#3 9F.F ....|G#8 B..F ....
 D-3|..|C#4 ...B ....|D-1 2A.. ....|--- .... ....
....|..|A-4 ...F ....|--- .... ....|G#8 8..B ....
....|..|E-4 ...B ....|--- .... ....|--- .... ....

[Pattern16]
....|..|E-3 MFAF ....|E-3 9F.F ....|F#3 AF.F ....
 E-3|..|F#3 ...B ....|E-1 2A.. ....|--- .... ....
....|..|G#3 ...F ....|--- .... ....|G#8 U..B ....
....|..|E-3 ...B ....|--- .... ....|--- .... ....
....|..|B-3 ...F ....|E-2 .... ....|G#8 J..F ....
....|..|G#3 ...B ....|--- .... ....|--- .... ....
....|..|C#4 ...F ....|E-4 2F4D ....|F#3 A..B ....
....|..|B-3 ...B ....|--- .... ....|--- .... ....
....|..|E-4 ...F ....|E-3 9F.F ....|E-4 2FAF ....
 E-3|..|C#4 ...B ....|E-1 2A.. ....|--- .... ....
....|..|C#4 ...F ....|--- .... ....|G#8 J..B ....
....|..|E-4 ...B ....|--- .... ....|--- .... ....
....|..|B-3 ...F ....|E-2 .... ....|G#8 8..F ....
....|..|C#4 ...B ....|--- .... ....|--- .... ....
....|..|G#3 ...F ....|E-4 2F4D ....|F#3 B..B ....
....|..|B-3 ...B ....|--- .... ....|--- .... ....
....|..|E-3 ...F ....|A-2 9F.F ....|F#3 A..F ....
 A-2|..|G#3 ...B ....|C-1 2A.. ....|--- .... ....
....|..|G#3 ...F ....|A-1 .... ....|G#8 8..B ....
....|..|E-3 ...B ....|--- .... ....|--- .... ....
....|..|B-3 ...F ....|C-1 .... ....|G#8 J..F ....
....|..|G#3 ...B ....|--- .... ....|--- .... ....
....|..|C#4 ...F ....|A-1 .... ....|F#3 A..B ....
....|..|B-3 ...B ....|--- .... ....|--- .... ....
....|..|E-4 ...F ....|E-4 2F4D ....|G#8 J..F ....
....|..|C#4 ...B ....|--- .... ....|--- .... ....
....|..|C#4 ...F ....|--- .... ....|G#8 J..B ....
....|..|E-4 ...B ....|--- .... ....|--- .... ....
....|..|B-3 ...F ....|C#3 9F.F ....|G#8 U..F ....
 C#3|..|C#4 ...B ....|C#1 2A.. ....|G#8 J..C ....
....|..|G#3 ...F ....|--- .... ....|G#8 J..B ....
....|..|B-3 ...B ....|--- .... ....|G#8 J..D ....
....|..|D-3 ...F ....|D-3 9F.. ....|F#3 AF.F ....
 D-3|..|G#3 ...B ....|D-1 2A.. ....|--- .... ....
....|..|F#3 ...F ....|--- .... ....|G#8 U..B ....
....|..|D-3 ...B ....|--- .... ....|--- .... ....
....|..|A-3 ...F ....|D-4 2F4D ....|G#8 J..F ....
....|..|F#3 ...B ....|--- .... ....|--- .... ....
....|..|C#4 ...F ....|D-3 9F.F ....|F#3 A..B ....
 D-3|..|A-3 ...B ....|D-1 2A.. ....|--- .... ....
....|..|D-4 ...F ....|D-2 .... ....|D-4 2FAF ....
....|..|C#4 ...B ....|D-2 .... ....|--- .... ....
....|..|C#4 ...F ....|D-3 2F4D ....|G#8 J..B ....
....|..|D-4 ...B ....|--- .... ....|--- .... ....
....|..|A-3 ...F ....|D-3 9F.F ....|F#4 2FAF ....
 D-3|..|C#4 ...B ....|D-1 2A.. ....|--- .... ....
....|..|F#3 ...F ....|--- .... ....|F#3 B..B ....
....|..|A-3 ...B ....|--- .... ....|--- .... ....
....|..|D-3 ...F ....|F#3 9F.. ....|F#3 A..F ....
 F#2|..|F#3 ...B ....|F#2 28.. ....|--- .... ....
....|..|F#3 ...F ....|--- .... ....|G#8 8..B ....
....|..|D-3 ...B ....|--- .... ....|--- .... ....
....|..|A-3 ...F ....|D-4 2F4D ....|G#8 J..F ....
....|..|F#3 ...B ....|--- .... ....|--- .... ....
....|..|C#4 ...F ....|F#3 9F.F ....|F#3 A..B ....
 F#2|..|A-3 ...B ....|F#1 2A.. ....|--- .... ....
....|..|D-4 ...F ....|--- .... ....|G#8 J..F ....
....|..|C#4 ...B ....|--- .... ....|--- .... ....
....|..|C#4 ...F ....|D-4 2F4D ....|G#8 J..B ....
....|..|D-4 ...B ....|--- .... ....|--- .... ....
....|..|A-3 ...F ....|F#3 9F.F ....|G#8 U..F ....
 F#3|..|C#4 ...B ....|F#1 2A.. ....|--- .... ....
....|..|F#3 ...F ....|--- .... ....|G#8 J..B ....
....|..|A-3 ...B ....|--- .... ....|--- .... ....

[Pattern17]
....|..|A-2 2F.F ....|F#3 9F.F ....|F#3 AF.F ....
 F#3|..|--- .... ....|F#1 2A.. ....|--- .... ....
....|..|--- .... ....|--- .... ....|G#8 B..B ....
....|..|--- .... ....|--- .... ....|--- .... ....
....|..|B-2 ...F 31.A|F#2 .... ....|G#8 J..F ....
....|..|--- .... ....|--- .... ....|--- .... ....
....|..|--- .... ....|F#3 2F3D ....|F#3 A..B ....
....|..|--- .... ....|--- .... ....|--- .... ....
....|..|A-2 ...F ....|F#3 9F.F ....|G#8 8..F ....
 F#3|..|--- .... ....|F#1 2A.. ....|--- .... ....
....|..|--- .... ....|--- .... ....|G#8 J..B ....
....|..|--- .... ....|--- .... ....|--- .... ....
....|..|B-2 ...B 31.A|F#2 .... ....|G#8 8..F ....
....|..|--- .... ....|--- .... ....|--- .... ....
....|..|--- .... ....|F#3 2F3D ....|G#8 8..B ....
....|..|--- .... ....|--- .... ....|--- .... ....
....|..|A-1 ...F ....|A-2 9F.F ....|G#8 B..F ....
 A-2|..|--- .... ....|C-1 2A.. ....|--- .... ....
....|..|--- .... ....|A-1 .... ....|G#8 8..B ....
....|..|--- .... ....|--- .... ....|--- .... ....
....|..|A-4 MFAF 21.2|--- .... ....|G#8 J..F ....
....|..|--- ...D ....|--- .... ....|--- .... ....
....|..|--- ...B 21.1|--- .... ....|G#8 B..B ....
....|..|--- ...F ....|--- .... ....|--- .... ....
....|..|F#2 .F3D 21..|A-5 MFAB 21.2|G#8 J..F ....
....|..|--- ...B ....|--- ...A ....|--- .... ....
....|..|--- ...F ....|--- ...9 21.1|G#8 J..B ....
....|..|--- ...D ....|--- ...B ....|--- .... ....
....|..|A-4 MFA9 21.2|C#3 9F.F ....|G#8 U..F ....
 C#3|..|--- ...8 ....|C#1 2A.. ....|--- .... ....
....|..|--- ...7 21.1|--- .... ....|G#8 J..B ....
....|..|--- ...9 ....|--- .... ....|--- .... ....
....|..|F#2 2F.F 2...|D-3 9F.. ....|F#3 AF.F ....
 D-3|..|--- .... ....|D-1 2A.. ....|--- .... ....
....|..|--- .... ....|--- .... ....|G#8 8..B ....
....|..|--- .... ....|--- .... ....|--- .... ....
....|..|G#2 ...F 31.A|D-3 2F4D ....|G#8 1F.F ....
....|..|--- .... ....|--- .... ....|--- .... ....
....|..|--- .... ....|D-3 9F.F ....|F#3 A..B ....
 D-3|..|--- .... ....|D-1 2A.. ....|--- .... ....
....|..|F#2 ...F ....|D-2 .... ....|G#8 8..F ....
....|..|--- .... ....|D-2 .... ....|--- .... ....
....|..|--- .... ....|D-3 2F4D ....|G#8 1..B ....
....|..|--- .... ....|--- .... ....|--- .... ....
....|..|C#4 MFAF 11.2|D-3 9F.F ....|F#3 A..F ....
 D-3|..|--- ...D ....|D-1 2A.. ....|--- .... ....
....|..|--- ...B 11.1|--- .... ....|G#8 8..B ....
....|..|--- ...F ....|--- .... ....|--- .... ....
....|..|F#2 .F3D 21..|C#5 MFAB 11.2|G#8 B..F ....
 F#2|..|--- ...B ....|--- ...A ....|--- .... ....
....|..|--- ...F ....|--- ...9 11.1|F#3 A..B ....
....|..|--- ...D ....|--- ...B ....|--- .... ....
....|..|C#4 MFAF 11.2|E-3 2F4D ....|G#8 J..F ....
....|..|--- ...D ....|--- .... ....|--- .... ....
....|..|--- ...B 11.1|F#3 9F.F ....|G#8 B..B ....
 F#2|..|--- ...F ....|F#1 2A.. ....|--- .... ....
....|..|G#2 2F.F 2...|--- .... ....|G#8 8..F ....
....|..|--- .... ....|--- .... ....|--- .... ....
....|..|--- .... ....|E-3 2F4D ....|G#8 J..B ....
....|..|--- .... ....|--- .... ....|--- .... ....
....|..|F#2 ...B 31.A|F#3 9F.F ....|G#8 B..F ....
 F#3|..|--- .... ....|F#1 2A.. ....|--- .... ....
....|..|--- .... ....|--- .... ....|G#8 8..B ....
....|..|--- .... ....|--- .... ....|--- .... ....

[Pattern18]
....|..|A-2 2F.F ....|F#3 9F.F ....|F#3 AF.F ....
 F#3|..|--- .... ....|F#1 2A.. ....|--- .... ....
....|..|F#2 2F3D ....|--- .... ....|G#8 B..B ....
....|..|--- .... ....|--- .... ....|--- .... ....
....|..|B-2 2F.F 31.A|--- .... ....|G#8 J..F ....
....|..|--- .... ....|--- .... ....|--- .... ....
....|..|F#2 2F7D ....|F#3 2F3D ....|F#3 A..B ....
....|..|--- .... ....|--- .... ....|--- .... ....
....|..|A-2 2F.F ....|F#3 9F.F ....|G#8 8..F ....
 F#3|..|--- .... ....|F#1 2A.. ....|--- .... ....
....|..|F#2 2F7. ....|--- .... ....|G#8 J..B ....
....|..|--- .... ....|--- .... ....|--- .... ....
....|..|B-2 2F.B 31.A|--- .... ....|G#8 8..F ....
....|..|--- .... ....|--- .... ....|--- .... ....
....|..|--- .... ....|F#3 2F3D ....|G#8 8..B ....
....|..|--- .... ....|--- .... ....|--- .... ....
....|..|A-2 2F.F ....|A-2 9F.F ....|G#8 B..F ....
 A-2|..|--- .... ....|C-1 2A.. ....|--- .... ....
....|..|F#2 2F3D ....|--- .... ....|G#8 8..B ....
....|..|--- .... ....|--- .... ....|--- .... ....
....|..|B-2 2F.F 31.A|--- .... ....|G#8 J..F ....
....|..|--- .... ....|--- .... ....|--- .... ....
....|..|F#2 2F7D ....|--- .... ....|G#8 B..B ....
....|..|--- .... ....|--- .... ....|--- .... ....
....|..|A-2 2F.F ....|F#3 2F3D ....|G#8 J..F ....
....|..|--- .... ....|--- .... ....|--- .... ....
....|..|F#2 2F7. ....|--- .... ....|G#8 J..B ....
....|..|--- .... ....|--- .... ....|--- .... ....
....|..|B-2 2F.B 31.A|C#3 9F.F ....|G#8 U..F ....
 C#3|..|--- .... ....|C#1 2A.. ....|--- .... ....
....|..|--- .... ....|--- .... ....|G#8 J..B ....
....|..|--- .... ....|--- .... ....|--- .... ....
....|..|F#2 2F.F ....|D-3 9F.. ....|F#3 AF.F ....
 D-3|..|--- .... ....|D-1 2A.. ....|--- .... ....
....|..|D-2 2F8D ....|--- .... ....|G#8 8..B ....
....|..|F#2 .F.D ....|--- .... ....|--- .... ....
....|..|G#2 2F.F 31.A|D-3 2F4D ....|G#8 J..F ....
....|..|--- .... ....|--- .... ....|--- .... ....
....|..|D-2 2F4D ....|D-3 9F.F ....|F#3 A..B ....
 D-3|..|--- .... ....|D-1 2A.. ....|--- .... ....
....|..|F#2 2F.F ....|--- .... ....|G#8 8..F ....
....|..|--- .... ....|--- .... ....|--- .... ....
....|..|D-2 2F4D ....|D-3 2F4D ....|G#8 J..B ....
....|..|F#2 .F.D ....|--- .... ....|--- .... ....
....|..|G#2 2F.B 31.A|D-3 9F.F ....|F#3 A..F ....
 D-3|..|--- .... ....|D-1 2A.. ....|--- .... ....
....|..|--- .... ....|--- .... ....|G#8 8..B ....
....|..|--- .... ....|--- .... ....|--- .... ....
....|..|G#2 2F.F ....|F#3 9F.. ....|G#8 B..F ....
 F#3|..|--- .... ....|F#1 2A.. ....|--- .... ....
....|..|E-2 .F8D ....|--- .... ....|F#3 A..B ....
....|..|G#2 .F.D ....|--- .... ....|--- .... ....
....|..|F#2 2F.F 31.A|E-3 2F4D ....|G#8 J..F ....
....|..|--- .... ....|--- .... ....|--- .... ....
....|..|E-2 .F8D ....|F#3 9F.F ....|G#8 B..B ....
 F#3|..|--- .... ....|F#1 2A.. ....|--- .... ....
....|..|G#2 2F.F ....|--- .... ....|G#8 8..F ....
....|..|--- .... ....|--- .... ....|--- .... ....
....|..|E-2 .F8D ....|E-3 2F4D ....|G#8 J..B ....
....|..|--- .... ....|--- .... ....|--- .... ....
....|..|F#2 2F.B 31.A|F#3 9F.F ....|G#8 B..F ....
 F#3|..|--- .... ....|F#1 2A.. ....|--- .... ....
....|..|--- .... ....|--- .... ....|G#8 8..B ....
....|..|--- .... ....|--- .... ....|--- .... ....

[Pattern19]
 F#3|..|A-2 2F.F ....|F#1 2A.. ....|F#3 AF.F ....
....|..|--- .... ....|--- .... ....|--- .... ....
....|..|--- .... ....|--- .... ....|G#8 U..B ....
....|..|--- .... ....|--- ...1 ....|--- .... ....
....|..|B-2 ...F 31.A|--- .... ....|G#8 J..F ....
....|..|--- .... ....|F#3 2F31 ....|--- .... ....
....|..|--- .... ....|--- .... ....|F#3 A..B ....
....|..|--- .... ....|F#3 9F.1 ....|--- .... ....
 F#3|..|C#3 2FAF ....|F#1 2A.. ....|A-3 2F.F ....
....|..|R-- .... ....|--- .... ....|--- .... ....
....|..|C#3 ...F ....|--- .... ....|G#8 J..B ....
....|..|R-- .... ....|--- .... ....|--- .... ....
....|..|D-3 ...F ....|--- .... ....|G#8 8..F ....
....|..|--- .... ....|F#3 2F31 ....|--- .... ....
....|..|C#3 .F.B ....|--- .... ....|F#3 B..B ....
....|..|--- .... ....|A-2 9F.1 ....|--- .... ....
 A-2|..|D-3 .FAC ....|C-1 2A.. ....|F#3 A..C ....
....|..|--- .... ....|--- .... ....|--- .... ....
....|..|--- .... ....|--- .... ....|G#8 8..9 ....
....|..|--- .... ....|--- .... ....|--- .... ....
....|..|--- ...9 ....|--- .... ....|G#8 J..C ....
....|..|--- .... ....|--- .... ....|--- .... ....
....|..|R-- .... ....|--- .... ....|F#3 A..9 ....
....|..|--- .... ....|F#3 2F71 ....|--- .... ....
....|..|D-3 ...9 ....|--- .... ....|G#8 J..C ....
....|..|--- .... ....|--- .... ....|--- .... ....
....|..|--- .... ....|--- .... ....|G#8 J..9 ....
....|..|--- .... ....|C#3 9F.1 ....|--- .... ....
 C#3|..|--- ...9 11.1|C#1 2A.. ....|G#8 U..C ....
....|..|--- .... ....|--- .... ....|G#8 J..C ....
....|..|--- .... ....|--- .... ....|G#8 J..9 ....
....|..|--- .... ....|D-3 9F.. ....|G#8 J..D ....
 D-3|..|F#2 2F.A ....|D-1 2A.. ....|F#3 AF.A ....
....|..|--- .... ....|--- .... ....|--- .... ....
....|..|--- .... ....|--- .... ....|G#8 U..7 ....
....|..|--- .... ....|D-3 2F41 ....|--- .... ....
....|..|G#2 ...A 31.A|--- .... ....|G#8 J..A ....
....|..|--- .... ....|D-3 9F.1 ....|--- .... ....
 D-3|..|--- .... ....|D-1 2A.. ....|F#3 A..7 ....
....|..|--- .... ....|--- .... ....|--- .... ....
....|..|F#2 2FA7 ....|--- .... ....|F#3 2F.A ....
....|..|--- .... ....|D-3 2F41 ....|--- .... ....
....|..|--- .... ....|--- .... ....|G#8 J..7 ....
....|..|--- .... ....|D-3 9F.1 ....|--- .... ....
 D-3|..|G#2 .FA7 31.A|D-1 2A.. ....|G#3 2F.A ....
....|..|--- .... ....|--- .... ....|--- .... ....
....|..|--- .... ....|--- .... ....|F#3 B..7 ....
....|..|--- .... ....|F#3 9F.. ....|--- .... ....
 F#3|..|--- .... ....|F#1 2A.. ....|F#3 A..9 ....
....|..|--- .... ....|--- .... ....|--- .... ....
....|..|F#2 .... ....|--- .... ....|G#8 8..6 ....
....|..|--- .... ....|E-3 2F41 ....|--- .... ....
....|..|F#2 ...9 31.A|--- .... ....|G#8 J..9 ....
....|..|--- .... ....|F#3 9F.1 ....|--- .... ....
 F#3|..|--- ...6 ....|F#1 2A.. ....|F#3 A..6 ....
....|..|--- .... ....|--- .... ....|--- .... ....
....|..|C#2 ...9 ....|--- .... ....|G#8 J..9 ....
....|..|--- .... ....|E-3 2F41 ....|--- .... ....
....|..|F#2 .F.6 ....|--- .... ....|G#8 J..6 ....
....|..|--- .... ....|F#3 9F.1 ....|--- .... ....
 F#3|..|F#2 .F.9 31.A|F#1 2A.. ....|G#8 U..9 ....
....|..|--- .... ....|--- .... ....|--- .... ....
....|..|C#2 .FA6 ....|--- .... ....|G#8 J..6 ....
....|..|--- .... ....|--- .... ....|--- .... ....

[Pattern20]
 F#3|..|A-2 2F.7 ....|F#1 2A.. ....|F#3 AF.7 ....
....|..|--- .... ....|--- .... ....|--- .... ....
....|..|--- .... ....|--- .... ....|G#8 B..5 ....
....|..|--- .... ....|--- ...1 ....|--- .... ....
....|..|B-2 ...7 31.A|--- .... ....|G#8 J..7 ....
....|..|--- .... ....|F#3 2F31 ....|--- .... ....
....|..|--- .... ....|--- .... ....|F#3 A..5 ....
....|..|--- .... ....|F#3 9F.1 ....|--- .... ....
 F#3|..|A-2 ...7 ....|F#1 2A.. ....|A-3 2F.7 ....
....|..|--- .... ....|--- .... ....|--- .... ....
....|..|--- .... ....|--- .... ....|G#8 J..5 ....
....|..|--- .... ....|--- .... ....|--- .... ....
....|..|C#2 2FA7 ....|--- .... ....|G#8 8..7 ....
....|..|--- .... ....|F#3 2F31 ....|--- .... ....
....|..|--- .... 11.1|--- .... ....|G#8 8..5 ....
....|..|--- .... ....|A-2 9F.1 ....|--- .... ....
 A-2|..|C#2 ...6 ....|C-1 2A.. ....|G#8 B..6 ....
....|..|--- .... ....|--- .... ....|--- .... ....
....|..|C#2 ...4 ....|--- .... ....|G#8 8..4 ....
....|..|--- .... ....|--- .... ....|--- .... ....
....|..|D-2 ...6 ....|--- .... ....|G#8 J..6 ....
....|..|--- .... ....|--- .... ....|--- .... ....
....|..|C#2 ...4 ....|--- .... ....|G#8 B..4 ....
....|..|--- .... ....|F#3 2F71 ....|--- .... ....
....|..|C#2 ...6 ....|--- .... ....|G#8 J..6 ....
....|..|--- .... ....|--- .... ....|--- .... ....
....|..|--- .... ....|--- .... ....|G#8 J..4 ....
....|..|--- .... ....|C#3 9F.1 ....|--- .... ....
 C#3|..|--- ...4 11.1|C#1 2A.. ....|G#8 U..6 ....
....|..|--- .... ....|--- .... ....|--- .... ....
....|..|--- .... ....|--- .... ....|G#8 J..4 ....
....|..|--- .... ....|D-3 9F.. ....|--- .... ....
 D-3|..|F#2 ...5 ....|D-1 2A.. ....|F#3 AF.5 ....
....|..|--- .... ....|--- .... ....|--- .... ....
....|..|--- .... ....|--- .... ....|G#8 8..3 ....
....|..|--- .... ....|D-3 2F41 ....|--- .... ....
....|..|G#2 ...5 31.A|--- .... ....|G#8 1F.5 ....
....|..|--- .... ....|D-3 9F.1 ....|--- .... ....
 D-3|..|--- .... ....|D-1 2A.. ....|F#3 A..3 ....
....|..|--- .... ....|--- .... ....|--- .... ....
....|..|F#2 ...5 ....|--- .... ....|F#3 2F.5 ....
....|..|--- .... ....|D-3 2F41 ....|--- .... ....
....|..|--- .... ....|--- .... ....|G#8 1..3 ....
....|..|--- .... ....|D-3 9F.1 ....|--- .... ....
 D-3|..|C#2 2FA5 ....|D-1 2A.. ....|G#3 2F.5 ....
....|..|--- .... ....|--- .... ....|--- .... ....
....|..|--- .... 11.1|--- .... ....|G#8 8..3 ....
....|..|--- .... ....|F#3 9F.. ....|--- .... ....
 F#3|..|C#2 ...3 ....|F#1 2A.. ....|G#8 B..3 ....
....|..|--- .... ....|--- .... ....|--- .... ....
....|..|C#2 ...1 ....|--- .... ....|F#3 A..1 ....
....|..|--- .... ....|E-3 2F41 ....|--- .... ....
....|..|D-2 ...3 ....|--- .... ....|G#8 J..3 ....
....|..|--- .... ....|F#3 9F.1 ....|--- .... ....
 F#3|..|C#2 ...1 ....|F#1 2A.. ....|G#8 B..1 ....
....|..|--- .... ....|--- .... ....|--- .... ....
....|..|C#2 ...3 ....|--- .... ....|G#8 8..3 ....
....|..|--- .... ....|E-3 2F41 ....|--- .... ....
....|..|--- .... ....|--- .... ....|G#8 J..1 ....
....|..|--- .... ....|F#3 9F.1 ....|--- .... ....
 F#3|..|F#2 ...1 31.A|F#1 2A.. ....|G#8 B..3 ....
....|..|--- .... ....|--- .... ....|--- .... ....
....|..|--- .... ....|--- .... ....|G#8 8..1 ....
....|..|--- .... ....|--- .... ....|--- .... ....

[Pattern21]
 F#3|..|F#1 2A.. ....|R-- .... ....|R-- .... ....
....|..|--- .... ....|--- .... ....|--- .... ....
....|..|--- .... ....|--- .... ....|--- .... ....
....|..|--- ...1 ....|--- .... ....|--- .... ....
....|..|--- .... ....|--- .... ....|--- .... ....
....|..|F#2 2F31 ....|--- .... ....|--- .... ....
....|..|--- .... ....|--- .... ....|--- .... ....
....|..|F#2 9F.1 ....|--- .... ....|--- .... ....
 F#3|..|F#1 2A.. ....|--- .... ....|--- .... ....
....|..|--- .... ....|--- .... ....|--- .... ....
....|..|--- .... ....|--- .... ....|--- .... ....
....|..|--- .... ....|--- .... ....|--- .... ....
....|..|--- .... ....|--- .... ....|--- .... ....
....|..|F#2 2F31 ....|--- .... ....|--- .... ....
....|..|--- .... ....|--- .... ....|--- .... ....
....|..|A-1 9F.1 ....|--- .... ....|--- .... ....
 A-2|..|C-1 2A.. ....|--- .... ....|--- .... ....
....|..|--- .... ....|--- .... ....|--- .... ....
....|..|--- .... ....|--- .... ....|--- .... ....
....|..|--- .... ....|--- .... ....|--- .... ....
....|..|--- .... ....|--- .... ....|--- .... ....
....|..|--- .... ....|--- .... ....|--- .... ....
....|..|--- .... ....|--- .... ....|--- .... ....
....|..|F#2 2F71 ....|--- .... ....|--- .... ....
....|..|--- .... ....|--- .... ....|--- .... ....
....|..|--- .... ....|--- .... ....|--- .... ....
....|..|--- .... ....|--- .... ....|--- .... ....
....|..|C#2 9F.1 ....|--- .... ....|--- .... ....
 C#3|..|C#1 2A.. ....|--- .... ....|--- .... ....
....|..|--- .... ....|--- .... ....|--- .... ....
....|..|--- .... ....|--- .... ....|--- .... ....
....|..|D-2 9F.. ....|--- .... ....|--- .... ....
 D-3|..|D-1 2A.. ....|--- .... ....|--- .... ....
....|..|--- .... ....|--- .... ....|--- .... ....
....|..|--- .... ....|--- .... ....|--- .... ....
....|..|D-2 2F41 ....|--- .... ....|--- .... ....
....|..|--- .... ....|--- .... ....|--- .... ....
....|..|D-2 9F.1 ....|--- .... ....|--- .... ....
 D-3|..|D-1 2A.. ....|--- .... ....|--- .... ....
....|..|--- .... ....|--- .... ....|--- .... ....
....|..|--- .... ....|--- .... ....|--- .... ....
....|..|D-2 2F41 ....|--- .... ....|--- .... ....
....|..|--- .... ....|--- .... ....|--- .... ....
....|..|D-2 9F.1 ....|--- .... ....|--- .... ....
 D-3|..|D-1 2A.. ....|--- .... ....|--- .... ....
....|..|--- .... ....|--- .... ....|--- .... ....
....|..|--- .... ....|--- .... ....|--- .... ....
....|..|F#2 9F.. ....|--- .... ....|--- .... ....
 F#3|..|F#1 2A.. ....|--- .... ....|--- .... ....
....|..|--- .... ....|--- .... ....|--- .... ....
....|..|--- .... ....|--- .... ....|--- .... ....
....|..|E-2 2F41 ....|--- .... ....|--- .... ....
....|..|--- .... ....|--- .... ....|--- .... ....
....|..|F#2 9F.1 ....|--- .... ....|--- .... ....
 F#3|..|F#1 2A.. ....|--- .... ....|--- .... ....
....|..|--- .... ....|--- .... ....|--- .... ....
....|..|--- .... ....|--- .... ....|--- .... ....
....|..|E-2 2F41 ....|--- .... ....|--- .... ....
....|..|--- .... ....|--- .... ....|--- .... ....
....|..|F#2 9F.1 ....|--- .... ....|--- .... ....
 F#3|..|F#1 2A.. ....|--- .... ....|--- .... ....
....|..|--- .... ....|--- .... ....|--- .... ....
....|..|--- .... ....|--- .... ....|--- .... ....
....|..|--- .... ....|--- .... ....|--- .... ....

[Pattern22]
....|..|F#2 NF.F ....|F#3 MFAF ....|G#8 8F.F ....
....|..|C#2 .F.B ....|C#3 .F.B ....|--- .... ....
....|..|E-2 .F.F ....|E-3 .FAF ....|G#8 B..B ....
....|..|F#2 .F.B ....|F#3 .F.B ....|--- .... ....
....|..|D-2 .F.F ....|D-3 .FAF ....|G#8 J..F ....
....|..|E-2 .F.B ....|E-3 .F.B ....|--- .... ....
....|..|C#2 .F.F ....|C#3 .FAF ....|G#8 8..B ....
....|..|D-2 .F.B ....|D-3 .F.B ....|--- .... ....
....|..|F#2 .F.F ....|F#3 .FAF ....|G#8 8..F ....
....|..|C#2 .F.B ....|C#3 .F.B ....|--- .... ....
....|..|E-2 .F.F ....|E-3 .FAF ....|G#8 J..B ....
....|..|F#2 .F.B ....|F#3 .F.B ....|--- .... ....
....|..|D-2 .F.F ....|D-3 .FAF ....|G#8 8..F ....
....|..|E-2 .F.B ....|E-3 .F.B ....|--- .... ....
....|..|C#2 .F.F ....|C#3 .FAF ....|G#8 8..B ....
....|..|D-2 .F.B ....|D-3 .F.B ....|--- .... ....
....|..|F#2 .F.F ....|F#3 .FAF ....|G#8 U..F ....
....|..|C#2 .F.B ....|C#3 .F.B ....|--- .... ....
....|..|E-2 .F.F ....|E-3 .FAF ....|G#8 8..B ....
....|..|F#2 .F.B ....|F#3 .F.B ....|--- .... ....
....|..|D-2 .F.F ....|D-3 .FAF ....|G#8 J..F ....
....|..|E-2 .F.B ....|E-3 .F.B ....|--- .... ....
....|..|C#2 .F.F ....|C#3 .FAF ....|G#8 U..B ....
....|..|D-2 .F.B ....|D-3 .F.B ....|--- .... ....
....|..|F#2 .F.F ....|F#3 .FAF ....|G#8 8..F ....
....|..|C#2 .F.B ....|C#3 .F.B ....|--- .... ....
....|..|E-2 .F.F ....|E-3 .FAF ....|G#8 J..B ....
....|..|F#2 .F.B ....|F#3 .F.B ....|--- .... ....
....|..|D-2 .F.F ....|D-3 .FAF ....|G#8 U..F ....
....|..|E-2 .F.B ....|E-3 .F.B ....|--- .... ....
....|..|C#2 .F.F ....|C#3 .FAF ....|G#8 8..B ....
....|..|D-2 .F.B ....|D-3 .F.B ....|--- .... ....
....|..|F#2 .F.F ....|F#3 .FAF ....|G#8 8F.F ....
....|..|C#2 .F.B ....|C#3 .F.B ....|--- .... ....
....|..|E-2 .F.F ....|E-3 .FAF ....|G#8 8..B ....
....|..|F#2 .F.B ....|F#3 .F.B ....|--- .... ....
....|..|D-2 .F.F ....|D-3 .FAF ....|G#8 J..F ....
....|..|E-2 .F.B ....|E-3 .F.B ....|--- .... ....
....|..|C#2 .F.F ....|C#3 .FAF ....|G#8 8..B ....
....|..|D-2 .F.B ....|D-3 .F.B ....|--- .... ....
....|..|F#2 .F.F ....|F#3 .FAF ....|G#8 8..F ....
....|..|C#2 .F.B ....|C#3 .F.B ....|--- .... ....
....|..|E-2 .F.F ....|E-3 .FAF ....|G#8 J..B ....
....|..|F#2 .F.B ....|F#3 .F.B ....|--- .... ....
....|..|D-2 .F.F ....|D-3 .FAF ....|G#8 8..F ....
....|..|E-2 .F.B ....|E-3 .F.B ....|--- .... ....
....|..|C#2 .F.F ....|C#3 .FAF ....|G#8 8..B ....
....|..|D-2 .F.B ....|D-3 .F.B ....|--- .... ....
....|..|F#2 .F.F ....|F#3 .FAF ....|G#8 B..F ....
....|..|C#2 .F.B ....|C#3 .F.B ....|--- .... ....
....|..|E-2 .F.F ....|E-3 .FAF ....|G#8 8..B ....
....|..|F#2 .F.B ....|F#3 .F.B ....|--- .... ....
....|..|D-2 .F.F ....|D-3 .FAF ....|G#8 J..F ....
....|..|E-2 .F.B ....|E-3 .F.B ....|--- .... ....
....|..|C#2 .F.F ....|C#3 .FAF ....|G#8 B..B ....
....|..|D-2 .F.B ....|D-3 .F.B ....|--- .... ....
....|..|F#2 .F.F ....|F#3 .FAF ....|G#8 8..F ....
....|..|C#2 .F.B ....|C#3 .F.B ....|--- .... ....
....|..|E-2 .F.F ....|E-3 .FAF ....|G#8 J..B ....
....|..|F#2 .F.B ....|F#3 .F.B ....|--- .... ....
....|..|D-2 .F.F ....|D-3 .FAF ....|G#8 B..F ....
....|..|E-2 .F.B ....|E-3 .F.B ....|--- .... ....
....|..|C#2 .F.F ....|C#3 .FAF ....|G#8 8..B ....
....|..|D-2 .F.B ....|D-3 .F.B ....|--- .... ....

[Pattern23]
....|..|R-- .... ....|R-- .... ....|R-- .... ....
....|..|--- .... ....|--- .... ....|--- .... ....
....|..|--- .... ....|--- .... ....|--- .... ....
....|..|--- .... ....|--- .... ....|--- .... ....
....|..|--- .... ....|--- .... ....|--- .... ....
....|..|--- .... ....|--- .... ....|--- .... ....
....|..|--- .... ....|--- .... ....|--- .... ....
....|..|--- .... ....|--- .... ....|--- .... ....
....|..|--- .... ....|--- .... ....|--- .... ....
....|..|--- .... ....|--- .... ....|--- .... ....
....|..|--- .... ....|--- .... ....|--- .... ....
....|..|--- .... ....|--- .... ....|--- .... ....
....|..|--- .... ....|--- .... ....|--- .... ....
....|..|--- .... ....|--- .... ....|--- .... ....
....|..|--- .... ....|--- .... ....|--- .... ....
....|..|--- .... ....|--- .... ....|--- .... ....
....|..|--- .... ....|--- .... ....|--- .... ....
....|..|--- .... ....|--- .... ....|--- .... ....
....|..|--- .... ....|--- .... ....|--- .... ....
....|..|--- .... ....|--- .... ....|--- .... ....
....|..|--- .... ....|--- .... ....|--- .... ....
....|..|--- .... ....|--- .... ....|--- .... ....
....|..|--- .... ....|--- .... ....|--- .... ....
....|..|--- .... ....|--- .... ....|--- .... ....
....|..|--- .... ....|--- .... ....|--- .... ....
....|..|--- .... ....|--- .... ....|--- .... ....
....|..|--- .... ....|--- .... ....|--- .... ....
....|..|--- .... ....|--- .... ....|--- .... ....
....|..|--- .... ....|--- .... ....|--- .... ....
....|..|--- .... ....|--- .... ....|--- .... ....
....|..|--- .... ....|--- .... ....|--- .... ....
....|..|--- .... ....|--- .... ....|--- .... ....
....|..|--- .... ....|--- .... ....|--- .... ....
....|..|--- .... ....|--- .... ....|--- .... ....
....|..|--- .... ....|--- .... ....|--- .... ....
....|..|--- .... ....|--- .... ....|--- .... ....
....|..|--- .... ....|--- .... ....|--- .... ....
....|..|--- .... ....|--- .... ....|--- .... ....
....|..|--- .... ....|--- .... ....|--- .... ....
....|..|--- .... ....|--- .... ....|--- .... ....
....|..|--- .... ....|--- .... ....|--- .... ....
....|..|--- .... ....|--- .... ....|--- .... ....
....|..|--- .... ....|--- .... ....|--- .... ....
....|..|--- .... ....|--- .... ....|--- .... ....
....|..|--- .... ....|--- .... ....|--- .... ....
....|..|--- .... ....|--- .... ....|--- .... ....
....|..|--- .... ....|--- .... ....|--- .... ....
....|..|--- .... ....|--- .... ....|--- .... ....
....|..|--- .... ....|--- .... ....|--- .... ....
....|..|--- .... ....|--- .... ....|--- .... ....
....|..|--- .... ....|--- .... ....|--- .... ....
....|..|--- .... ....|--- .... ....|--- .... ....
....|..|--- .... ....|--- .... ....|--- .... ....
....|..|--- .... ....|--- .... ....|--- .... ....
....|..|--- .... ....|--- .... ....|--- .... ....
....|..|--- .... ....|--- .... ....|--- .... ....
....|..|--- .... ....|--- .... ....|--- .... ....
....|..|--- .... ....|--- .... ....|--- .... ....
....|..|--- .... ....|--- .... ....|--- .... ....
....|..|--- .... ....|--- .... ....|--- .... ....
....|..|--- .... ....|--- .... ....|--- .... ....
....|..|--- .... ....|--- .... ....|--- .... ....
....|..|--- .... ....|--- .... ....|--- .... ....
....|..|--- .... ....|--- .... ....|--- .... ....

[Pattern24]
 F-4|..|G-1 9F.F ....|A-3 DF.F ....|B-4 1F3. ....
 B-2|..|D-1 NA.. ....|--- ...B ....|--- .... ....
....|..|--- .... ....|A-3 L... ....|--- .... ....
....|..|--- .... ....|A-3 K... ....|--- .... ....
 B-3|..|D-1 2E.. ....|A-3 ...F ....|--- .... ....
....|..|--- .... ....|--- .... ....|--- .... ....
 B-1|..|D-1 NA.. ....|A-3 L..B ....|--- .... ....
....|..|--- .... ....|A-3 K... ....|--- .... ....
 B-3|..|D-1 MA.. ....|A-3 L... ....|--- .... ....
....|..|--- .... ....|A-3 K... ....|--- .... ....
 D-4|..|G-1 1A.. ....|A-3 ...F ....|--- .... ....
....|..|--- .... ....|--- .... ....|--- .... ....
....|..|--- .... ....|A-3 A..F ....|--- .... ....
....|..|--- .... ....|--- ...B ....|--- .... ....
....|..|--- .... ....|A-3 L... ....|--- .... ....
....|..|--- .... ....|A-3 K... ....|--- .... ....
 F-4|..|G-1 9F.F ....|A-3 .... ....|--- .... ....
 B-2|..|D-1 NA.. ....|--- .... ....|--- .... ....
....|..|--- .... ....|A-3 H..F ....|--- .... ....
....|..|--- .... ....|--- .... ....|--- .... ....
 B-3|..|D-1 2E.. ....|D-4 F..F ....|--- .... ....
....|..|--- .... ....|--- .... ....|--- .... ....
 B-1|..|D-1 NA.. ....|A-3 L..B ....|--- .... ....
....|..|--- .... ....|A-3 K... ....|--- .... ....
 B-3|..|D-1 MA.. ....|A-3 L... ....|--- .... ....
....|..|--- .... ....|A-3 K... ....|--- .... ....
 D-4|..|G-1 1A.. ....|A-3 ...F ....|--- .... ....
....|..|--- .... ....|--- .... ....|--- .... ....
....|..|--- .... ....|A-3 D..F ....|--- .... ....
....|..|--- .... ....|--- .... ....|--- .... ....
....|..|--- .... ....|A-3 B..B ....|--- .... ....
....|..|--- .... ....|--- .... ....|--- .... ....
 F-4|..|G-1 9F.F ....|C#4 E... ....|--- .... ....
 B-2|..|D-1 NA.. ....|--- ...B ....|--- .... ....
....|..|--- .... ....|D-4 ...F ....|--- .... ....
....|..|--- .... ....|--- .... ....|--- .... ....
 B-3|..|D-1 2E.. ....|A-3 H... ....|--- .... ....
....|..|--- .... ....|--- ...B ....|--- .... ....
 B-1|..|D-1 NA.. ....|A-3 L... ....|--- .... ....
....|..|--- .... ....|A-3 K... ....|--- .... ....
 B-3|..|D-1 MA.. ....|A-3 L... ....|--- .... ....
....|..|--- .... ....|A-3 K... ....|--- .... ....
....|..|--- .... ....|A-3 ...F ....|--- .... ....
....|..|--- .... ....|--- .... ....|--- .... ....
....|..|--- .... ....|A-3 H... ....|--- .... ....
....|..|--- .... ....|--- ...B ....|--- .... ....
....|..|--- .... ....|A-3 L... ....|--- .... ....
....|..|--- .... ....|A-3 K... ....|--- .... ....
 D-4|..|G-1 1A.. ....|D-4 E..F ....|--- .... ....
....|..|--- .... ....|--- ...B ....|--- .... ....
....|..|--- .... ....|A-3 L... ....|--- .... ....
....|..|--- .... ....|A-3 K... ....|--- .... ....
....|..|--- .... ....|D-4 E..F ....|--- .... ....
....|..|--- .... ....|--- .... ....|--- .... ....
....|..|--- .... ....|A-3 D... ....|--- .... ....
....|..|--- .... ....|--- .... ....|--- .... ....
....|..|--- .... ....|D-4 F... ....|--- .... ....
....|..|--- .... ....|--- ...B ....|--- .... ....
....|..|--- .... ....|A-3 K..F ....|--- .... ....
....|..|--- .... ....|A-3 L... ....|--- .... ....
 D-4|..|--- .... ....|A-3 K... ....|--- .... ....
....|..|--- .... ....|--- ...B ....|--- .... ....
 D-4|..|--- .... ....|A-3 ...F ....|--- .... ....
....|..|--- .... ....|A-3 L... ....|--- .... ....

[Pattern25]
....|..|A-2 2F.F ....|F#3 9F.F ....|A-3 DF.F ....
 F#3|..|--- .... ....|F#1 2A.. ....|--- ...B ....
....|..|B-2 ...F 31.A|--- .... ....|A-3 L... ....
....|..|--- .... ....|--- .... ....|A-3 K... ....
....|..|A-2 ...F ....|--- .... ....|A-3 ...F ....
....|..|--- .... ....|--- .... ....|--- .... ....
....|..|C#2 2FAF ....|F#3 2F3D ....|G-4 E... ....
....|..|--- .... 11.1|--- .... ....|--- .... ....
....|..|C#2 ...F ....|F#3 9F.F ....|G-4 F... ....
 F#3|..|C#2 ...B ....|F#1 2A.. ....|--- ...B ....
....|..|D-2 ...F ....|--- .... ....|G-4 C..F ....
....|..|C#2 ...B ....|--- .... ....|--- .... ....
....|..|C#2 ...F ....|--- .... ....|A-3 D... ....
....|..|--- .... ....|--- .... ....|--- ...B ....
....|..|--- ...B 11.1|F#3 2F3D ....|A-3 L... ....
....|..|--- .... ....|--- .... ....|A-3 K... ....
....|..|F#2 ...F ....|A-2 9F.F ....|A-3 .... ....
 A-2|..|--- .... ....|C-1 2A.. ....|--- .... ....
....|..|G#2 ...F 31.A|--- .... ....|A-3 H..F ....
....|..|--- .... ....|--- .... ....|--- ...B ....
....|..|F#2 ...F ....|--- .... ....|A-3 L... ....
....|..|--- .... ....|--- .... ....|A-3 K... ....
....|..|C#2 2FAF ....|--- .... ....|A-3 ...F ....
....|..|--- .... 11.1|--- .... ....|--- .... ....
....|..|C#2 ...F ....|F#3 2F7D ....|A-3 D... ....
....|..|C#2 ...B ....|--- .... ....|--- ...B ....
....|..|D-2 ...F ....|--- .... ....|A-3 L... ....
....|..|C#2 ...B ....|--- .... ....|A-3 K... ....
....|..|C#2 ...F ....|C#3 9F.F ....|A-3 ...F ....
 C#3|..|--- .... ....|C#1 2A.. ....|--- .... ....
....|..|F#2 ...B 31.A|--- .... ....|A-3 D... ....
....|..|--- .... ....|--- .... ....|--- .... ....
....|..|F#2 ...F ....|D-3 9F.. ....|A-3 C... ....
 D-3|..|--- .... ....|D-1 2A.. ....|--- ...B ....
....|..|--- .... ....|--- .... ....|--- ...F ....
....|..|--- .... ....|--- .... ....|--- .... ....
....|..|G#2 ...F 31.A|D-3 2F4D ....|A-3 H... ....
....|..|--- .... ....|--- .... ....|--- ...B ....
....|..|--- .... ....|D-3 9F.F ....|A-3 L... ....
 D-3|..|--- .... ....|D-1 2A.. ....|A-3 K... ....
....|..|F#2 ...F ....|--- .... ....|G-4 F... ....
....|..|--- .... ....|--- .... ....|--- .... ....
....|..|--- .... ....|D-3 2F4D ....|A-3 D..F ....
....|..|--- .... ....|--- .... ....|--- ...B ....
....|..|C#2 2FAF ....|D-3 9F.F ....|A-3 L... ....
 D-3|..|--- .... ....|D-1 2A.. ....|A-3 K... ....
....|..|--- .... 11.1|--- .... ....|A-3 ...F ....
....|..|--- .... ....|--- .... ....|--- .... ....
....|..|C#2 ...F ....|F#3 9F.. ....|A-3 H... ....
 F#3|..|--- .... ....|F#1 2A.. ....|--- ...B ....
....|..|C#2 ...B ....|--- .... ....|A-3 L... ....
....|..|--- .... ....|--- .... ....|A-3 K... ....
....|..|D-2 ...F ....|E-3 2F4D ....|G-4 E..F ....
....|..|--- .... ....|--- .... ....|--- .... ....
....|..|C#2 ...B ....|F#3 9F.F ....|A-3 D... ....
 F#3|..|--- .... ....|F#1 2A.. ....|--- .... ....
....|..|C#2 ...F ....|--- .... ....|G-4 F... ....
....|..|--- .... ....|--- .... ....|--- ...B ....
....|..|--- .... ....|E-3 2F4D ....|A-3 K..F ....
....|..|--- .... ....|--- .... ....|A-3 L... ....
....|..|F#2 ...B 31.A|F#3 9F.F ....|A-3 K... ....
 F#3|..|--- .... ....|F#1 2A.. ....|--- ...B ....
....|..|--- .... ....|--- .... ....|A-3 ...F ....
....|..|--- .... ....|--- .... ....|A-3 L... ....

[Pattern26]
 F#2|..|F#1 9F.F ....|A-3 DF.F ....|F#4 1F3D ....
....|..|--- .... ....|--- .... ....|A-3 ...A ....
 F#3|..|F#1 NA.. ....|A-3 ...B ....|F#3 ...D ....
....|..|--- .... ....|--- .... ....|F#4 ...A ....
....|..|--- .... ....|A-3 L... ....|F#2 ...D ....
....|..|--- .... ....|A-3 K... ....|F#3 ...A ....
....|..|--- .... ....|A-3 L... ....|F#4 ...D ....
....|..|--- .... ....|A-3 K... ....|F#2 ...A ....
 F#2|..|F#1 2E.. ....|A-3 ...F ....|F#3 ...D ....
....|..|--- .... ....|--- .... ....|F#4 ...A ....
....|..|--- .... ....|--- .... ....|F#2 ...D ....
....|..|--- .... ....|--- .... ....|F#3 ...A ....
 F#3|..|F#1 NA.. ....|A-3 L..B ....|F#4 ...D ....
....|..|--- .... ....|--- .... ....|F#2 ...A ....
....|..|--- .... ....|A-3 K... ....|F#3 ...D ....
....|..|--- .... ....|--- .... ....|F#4 ...A ....
 F#2|..|F#1 MA.. ....|A-3 L... ....|F#2 ...D ....
....|..|--- .... ....|--- .... ....|F#3 ...A ....
....|..|--- .... ....|A-3 K... ....|F#4 ...D ....
....|..|--- .... ....|--- .... ....|F#2 ...A ....
 F#2|..|F#1 1A.. ....|A-1 9..F ....|F#3 ...D ....
....|..|--- .... ....|--- .... ....|F#4 ...A ....
....|..|--- .... ....|R-- .... ....|F#2 ...D ....
....|..|--- .... ....|--- .... ....|F#3 ...A ....
....|..|--- .... ....|A-3 A..F ....|F#4 ...D ....
....|..|--- .... ....|--- .... ....|F#2 ...A ....
....|..|--- .... ....|--- ...B ....|F#3 ...D ....
....|..|--- .... ....|--- .... ....|F#4 ...A ....
....|..|--- .... ....|A-3 L... ....|F#4 ...D ....
....|..|--- .... ....|--- .... ....|F#3 ...A ....
....|..|--- .... ....|A-3 K... ....|F#3 ...D ....
....|..|--- .... ....|--- .... ....|F#4 ...A ....
 F-4|..|C#1 9F.F ....|A-3 DF.F ....|C#4 ...D ....
....|..|--- .... ....|--- .... ....|F#3 ...A ....
 C#3|..|C#1 NA.. ....|A-3 ...B ....|C#3 ...D ....
....|..|--- .... ....|--- .... ....|C#4 ...A ....
....|..|--- .... ....|A-3 L... ....|C#2 ...D ....
....|..|--- .... ....|A-3 K... ....|C#3 ...A ....
....|..|--- .... ....|A-3 L... ....|C#4 ...D ....
....|..|--- .... ....|A-3 K... ....|C#2 ...A ....
 C#3|..|C#1 2E.. ....|A-3 ...F ....|C#3 ...D ....
....|..|--- .... ....|--- .... ....|C#4 ...A ....
....|..|--- .... ....|--- .... ....|C#2 ...D ....
....|..|--- .... ....|--- .... ....|C#3 ...A ....
 C#3|..|C#1 NA.. ....|C#4 E..B ....|C#4 ...D ....
....|..|--- .... ....|--- .... ....|C#2 ...A ....
....|..|--- .... ....|C#4 C... ....|C#3 ...D ....
....|..|--- .... ....|--- .... ....|C#4 ...A ....
 C#4|..|C#1 MA.. ....|A-3 B... ....|C#2 ...D ....
....|..|--- .... ....|--- .... ....|C#3 ...A ....
....|..|--- .... ....|A-3 B... ....|C#4 ...D ....
....|..|--- .... ....|--- .... ....|C#2 ...A ....
 C#3|..|C#1 1A.. ....|A-1 9..F ....|C#3 ...D ....
....|..|--- .... ....|--- .... ....|C#4 ...A ....
....|..|--- .... ....|R-- .... ....|C#2 ...D ....
....|..|--- .... ....|--- .... ....|C#3 ...A ....
....|..|--- .... ....|A-3 A..F ....|C#4 ...D ....
....|..|--- .... ....|--- .... ....|C#2 ...A ....
....|..|--- .... ....|--- ...B ....|C#3 ...D ....
....|..|--- .... ....|--- .... ....|C#4 ...A ....
....|..|--- .... ....|A-3 L... ....|C#4 ...D ....
....|..|--- .... ....|--- .... ....|C#3 ...A ....
....|..|--- .... ....|A-3 K... ....|C#3 ...D ....
....|..|--- .... ....|--- .... ....|C#4 ...A ....
 F-4|..|D-1 9F.F ....|A-3 DF.F ....|D-4 .F4D ....
....|..|--- .... ....|--- .... ....|C#3 ...A ....
 D-3|..|D-1 NA.. ....|A-3 ...B ....|D-3 ...D ....
....|..|--- .... ....|--- .... ....|D-4 ...A ....
....|..|--- .... ....|A-3 L... ....|D-2 ...D ....
....|..|--- .... ....|A-3 K... ....|D-3 ...A ....
....|..|--- .... ....|A-3 L... ....|D-4 ...D ....
....|..|--- .... ....|A-3 K... ....|D-2 ...A ....
 D-3|..|D-1 2E.. ....|A-3 ...F ....|D-3 ...D ....
....|..|--- .... ....|--- .... ....|D-4 ...A ....
....|..|--- .... ....|--- .... ....|D-2 ...D ....
....|..|--- .... ....|--- .... ....|D-3 ...A ....
 D-4|..|D-1 NA.. ....|A-3 L..B ....|D-4 ...D ....
....|..|--- .... ....|--- .... ....|D-2 ...A ....
....|..|--- .... ....|A-3 K... ....|D-3 ...D ....
....|..|--- .... ....|--- .... ....|D-4 ...A ....
 D-4|..|D-1 MA.. ....|A-3 L... ....|D-2 ...D ....
....|..|--- .... ....|--- .... ....|D-3 ...A ....
....|..|--- .... ....|A-3 K... ....|D-4 ...D ....
....|..|--- .... ....|--- .... ....|D-2 ...A ....
....|..|--- .... ....|A-1 9..F ....|D-3 ...D ....
....|..|--- .... ....|--- .... ....|D-4 ...A ....
....|..|--- .... ....|R-- .... ....|D-2 ...D ....
....|..|--- .... ....|--- .... ....|D-3 ...A ....
....|..|--- .... ....|A-3 A..F ....|D-4 ...D ....
....|..|--- .... ....|--- .... ....|D-2 ...A ....
....|..|--- .... ....|--- ...B ....|D-3 ...D ....
....|..|--- .... ....|--- .... ....|D-4 ...A ....
....|..|--- .... ....|A-3 L... ....|D-4 ...D ....
....|..|--- .... ....|--- .... ....|D-3 ...A ....
....|..|--- .... ....|A-3 K... ....|D-3 ...D ....
....|..|--- .... ....|--- .... ....|D-4 ...A ....
 A-2|..|C-1 NA.. ....|A-3 DF.F ....|A-4 .F4D ....
....|..|--- .... ....|--- .... ....|D-3 ...A ....
....|..|--- .... ....|A-3 ...B ....|A-3 ...D ....
....|..|--- .... ....|--- .... ....|A-3 ...A ....
....|..|--- .... ....|A-3 L... ....|A-2 ...D ....
....|..|--- .... ....|A-3 K... ....|A-2 ...A ....
....|..|--- .... ....|A-3 L... ....|A-4 ...D ....
....|..|--- .... ....|A-3 K... ....|A-1 ...A ....
....|..|--- .... ....|A-3 ...F ....|A-3 ...D ....
....|..|--- .... ....|--- .... ....|A-3 ...A ....
....|..|--- .... ....|--- .... ....|A-2 ...D ....
....|..|--- .... ....|--- .... ....|A-2 ...A ....
....|..|--- .... ....|C#4 E..B ....|A-4 ...D ....
....|..|--- .... ....|--- .... ....|A-1 ...A ....
....|..|--- .... ....|C#4 C... ....|A-3 ...D ....
....|..|--- .... ....|--- .... ....|A-3 ...A ....
....|..|--- .... ....|A-3 B... ....|A-2 ...D ....
....|..|--- .... ....|--- .... ....|A-2 ...A ....
....|..|--- .... ....|A-3 B... ....|A-4 ...D ....
....|..|--- .... ....|--- .... ....|A-1 ...A ....
....|..|--- .... ....|A-1 9..F ....|A-3 ...D ....
....|..|--- .... ....|--- .... ....|A-3 ...A ....
....|..|--- .... ....|R-- .... ....|A-2 ...D ....
....|..|--- .... ....|--- .... ....|A-2 ...A ....
 D-4|..|--- .... ....|A-3 A..F ....|A-4 ...D ....
....|..|--- .... ....|--- .... ....|A-1 ...A ....
....|..|--- .... ....|--- ...B ....|A-3 ...D ....
....|..|--- .... ....|--- .... ....|A-3 ...A ....
 D-4|..|--- .... ....|A-3 L... ....|A-4 ...D ....
....|..|--- .... ....|--- .... ....|A-2 ...A ....
....|..|--- .... ....|A-3 K... ....|A-3 ...D ....
....|..|--- .... ....|--- .... ....|A-3 ...A ....

[Pattern27]
....|..|--- .... ....|--- .... ....|--- .... ....
....|..|--- .... ....|--- .... ....|--- .... ....
....|..|--- .... ....|--- .... ....|--- .... ....
....|..|--- .... ....|--- .... ....|--- .... ....
....|..|--- .... ....|--- .... ....|--- .... ....
....|..|--- .... ....|--- .... ....|--- .... ....
....|..|--- .... ....|--- .... ....|--- .... ....
....|..|--- .... ....|--- .... ....|--- .... ....
....|..|--- .... ....|--- .... ....|--- .... ....
....|..|--- .... ....|--- .... ....|--- .... ....
....|..|--- .... ....|--- .... ....|--- .... ....
....|..|--- .... ....|--- .... ....|--- .... ....
....|..|--- .... ....|--- .... ....|--- .... ....
....|..|--- .... ....|--- .... ....|--- .... ....
....|..|--- .... ....|--- .... ....|--- .... ....
....|..|--- .... ....|--- .... ....|--- .... ....
....|..|--- .... ....|--- .... ....|--- .... ....
....|..|--- .... ....|--- .... ....|--- .... ....
....|..|--- .... ....|--- .... ....|--- .... ....
....|..|--- .... ....|--- .... ....|--- .... ....
....|..|--- .... ....|--- .... ....|--- .... ....
....|..|--- .... ....|--- .... ....|--- .... ....
....|..|--- .... ....|--- .... ....|--- .... ....
....|..|--- .... ....|--- .... ....|--- .... ....
....|..|--- .... ....|--- .... ....|--- .... ....
....|..|--- .... ....|--- .... ....|--- .... ....
....|..|--- .... ....|--- .... ....|--- .... ....
....|..|--- .... ....|--- .... ....|--- .... ....
....|..|--- .... ....|--- .... ....|--- .... ....
....|..|--- .... ....|--- .... ....|--- .... ....
....|..|--- .... ....|--- .... ....|--- .... ....
....|..|--- .... ....|--- .... ....|--- .... ....
....|..|--- .... ....|--- .... ....|--- .... ....
....|..|--- .... ....|--- .... ....|--- .... ....
....|..|--- .... ....|--- .... ....|--- .... ....
....|..|--- .... ....|--- .... ....|--- .... ....
....|..|--- .... ....|--- .... ....|--- .... ....
....|..|--- .... ....|--- .... ....|--- .... ....
....|..|--- .... ....|--- .... ....|--- .... ....
....|..|--- .... ....|--- .... ....|--- .... ....
....|..|--- .... ....|--- .... ....|--- .... ....
....|..|--- .... ....|--- .... ....|--- .... ....
....|..|--- .... ....|--- .... ....|--- .... ....
....|..|--- .... ....|--- .... ....|--- .... ....
....|..|--- .... ....|--- .... ....|--- .... ....
....|..|--- .... ....|--- .... ....|--- .... ....
....|..|--- .... ....|--- .... ....|--- .... ....
....|..|--- .... ....|--- .... ....|--- .... ....
....|..|--- .... ....|--- .... ....|--- .... ....
....|..|--- .... ....|--- .... ....|--- .... ....
....|..|--- .... ....|--- .... ....|--- .... ....
....|..|--- .... ....|--- .... ....|--- .... ....
....|..|--- .... ....|--- .... ....|--- .... ....
....|..|--- .... ....|--- .... ....|--- .... ....
....|..|--- .... ....|--- .... ....|--- .... ....
....|..|--- .... ....|--- .... ....|--- .... ....
....|..|--- .... ....|--- .... ....|--- .... ....
....|..|--- .... ....|--- .... ....|--- .... ....
....|..|--- .... ....|--- .... ....|--- .... ....
....|..|--- .... ....|--- .... ....|--- .... ....
....|..|--- .... ....|--- .... ....|--- .... ....
....|..|--- .... ....|--- .... ....|--- .... ....
....|..|--- .... ....|--- .... ....|--- .... ....
....|..|--- .... ....|--- .... ....|--- .... ....
....|..|--- .... ....|--- .... ....|--- .... ....
....|..|--- .... ....|--- .... ....|--- .... ....
....|..|--- .... ....|--- .... ....|--- .... ....
....|..|--- .... ....|--- .... ....|--- .... ....
....|..|--- .... ....|--- .... ....|--- .... ....
....|..|--- .... ....|--- .... ....|--- .... ....
....|..|--- .... ....|--- .... ....|--- .... ....
....|..|--- .... ....|--- .... ....|--- .... ....
....|..|--- .... ....|--- .... ....|--- .... ....
....|..|--- .... ....|--- .... ....|--- .... ....
....|..|--- .... ....|--- .... ....|--- .... ....
....|..|--- .... ....|--- .... ....|--- .... ....
....|..|--- .... ....|--- .... ....|--- .... ....
....|..|--- .... ....|--- .... ....|--- .... ....
....|..|--- .... ....|--- .... ....|--- .... ....
....|..|--- .... ....|--- .... ....|--- .... ....
....|..|--- .... ....|--- .... ....|--- .... ....
....|..|--- .... ....|--- .... ....|--- .... ....
....|..|--- .... ....|--- .... ....|--- .... ....
....|..|--- .... ....|--- .... ....|--- .... ....
....|..|--- .... ....|--- .... ....|--- .... ....
....|..|--- .... ....|--- .... ....|--- .... ....
....|..|--- .... ....|--- .... ....|--- .... ....
....|..|--- .... ....|--- .... ....|--- .... ....
....|..|--- .... ....|--- .... ....|--- .... ....
....|..|--- .... ....|--- .... ....|--- .... ....
....|..|--- .... ....|--- .... ....|--- .... ....
....|..|--- .... ....|--- .... ....|--- .... ....
....|..|--- .... ....|--- .... ....|--- .... ....
....|..|--- .... ....|--- .... ....|--- .... ....
....|..|--- .... ....|--- .... ....|--- .... ....
....|..|--- .... ....|--- .... ....|--- .... ....
....|..|--- .... ....|--- .... ....|--- .... ....
....|..|--- .... ....|--- .... ....|--- .... ....
....|..|--- .... ....|--- .... ....|--- .... ....
....|..|--- .... ....|--- .... ....|--- .... ....
....|..|--- .... ....|--- .... ....|--- .... ....
....|..|--- .... ....|--- .... ....|--- .... ....
....|..|--- .... ....|--- .... ....|--- .... ....
....|..|--- .... ....|--- .... ....|--- .... ....
....|..|--- .... ....|--- .... ....|--- .... ....
....|..|--- .... ....|--- .... ....|--- .... ....
....|..|--- .... ....|--- .... ....|--- .... ....
....|..|--- .... ....|--- .... ....|--- .... ....
....|..|--- .... ....|--- .... ....|--- .... ....
....|..|--- .... ....|--- .... ....|--- .... ....
....|..|--- .... ....|--- .... ....|--- .... ....
....|..|--- .... ....|--- .... ....|--- .... ....
....|..|--- .... ....|--- .... ....|--- .... ....
....|..|--- .... ....|--- .... ....|--- .... ....
....|..|--- .... ....|--- .... ....|--- .... ....
....|..|--- .... ....|--- .... ....|--- .... ....
....|..|--- .... ....|--- .... ....|--- .... ....
....|..|--- .... ....|--- .... ....|--- .... ....
....|..|--- .... ....|--- .... ....|--- .... ....
....|..|--- .... ....|--- .... ....|--- .... ....
....|..|--- .... ....|--- .... ....|--- .... ....
....|..|--- .... ....|--- .... ....|--- .... ....
....|..|--- .... ....|--- .... ....|--- .... ....
....|..|--- .... ....|--- .... ....|--- .... ....
....|..|--- .... ....|--- .... ....|--- .... ....
....|..|--- .... ....|--- .... ....|--- .... ....
....|..|--- .... ....|--- .... ....|--- .... ....
....|..|--- .... ....|--- .... ....|--- .... ....

[Pattern30]
....|..|B-2 GF3B ....|B-4 7F9C ....|D-4 1FA8 ....
....|..|--- .... ....|--- .... ....|--- .... ....
....|..|--- .... ....|B-3 ...B ....|B-3 ...6 ....
....|..|--- .... ....|--- .... ....|C#4 ...8 ....
....|..|--- .... ....|B-3 ...B ....|--- .... ....
....|..|--- .... ....|--- .... ....|D-4 ...6 ....
....|..|--- .... ....|B-4 ...C ....|B-3 ...8 ....
....|..|--- .... ....|--- .... ....|--- .... ....
....|..|--- .... ....|B-3 ...B ....|C#4 ...6 ....
....|..|--- .... ....|--- .... ....|D-4 ...8 ....
....|..|--- .... ....|B-3 ...B ....|--- .... ....
....|..|--- .... ....|--- .... ....|B-3 ...6 ....
....|..|--- .... ....|B-4 ...C ....|C#4 ...8 ....
....|..|--- .... ....|--- .... ....|--- .... ....
 B-2|..|--- .... ....|B-1 .A.B ....|B-1 .A.B ....
....|..|--- .... ....|R-- .... ....|R-- .... ....
 B-2|..|--- .... ....|B-1 .A.B ....|B-1 .A.B ....
....|..|--- .... ....|R-- .... ....|R-- .... ....
....|..|--- .... ....|--- ...C ....|--- ...C ....
....|..|--- .... ....|--- .... ....|--- .... ....
 B-2|..|--- .... ....|B-2 .C.B ....|B-1 .C.B ....
....|..|--- .... ....|R-- .... ....|R-- .... ....
 B-3|..|--- .... ....|B-2 .A.B ....|B-1 .A.B ....
....|..|--- .... ....|R-- .... ....|R-- .... ....
....|..|--- .... ....|--- ...C ....|--- ...C ....
....|..|--- .... ....|--- .... ....|--- .... ....
....|..|--- .... ....|--- ...B ....|--- ...B ....
....|..|--- .... ....|--- .... ....|--- .... ....
....|..|--- .... ....|B-3 9F.C ....|B-3 .F9C ....
....|..|--- .... ....|--- .... ....|--- .... ....
....|..|--- .... ....|--- ...B ....|--- ...B ....
....|..|--- .... ....|--- .... ....|--- .... ....
....|..|--- .... ....|B-1 MF.C ....|D-4 1FA8 ....
....|..|--- .... ....|--- .... ....|--- .... ....
....|..|--- .... ....|--- ...B ....|B-3 ...6 ....
....|..|--- .... ....|--- .... ....|C#4 ...8 ....
....|..|--- .... ....|--- ...B ....|--- .... ....
....|..|--- .... ....|--- .... ....|D-4 ...6 ....
....|..|--- .... ....|--- ...C ....|B-3 ...8 ....
....|..|--- .... ....|--- .... ....|--- .... ....
....|..|--- .... ....|--- ...B ....|C#4 ...6 ....
....|..|--- .... ....|--- .... ....|D-4 ...8 ....
....|..|--- .... ....|--- ...C ....|--- .... ....
....|..|--- .... ....|--- .... ....|B-3 ...6 ....
....|..|--- .... ....|--- ...C ....|C#4 ...8 ....
....|..|--- .... ....|--- .... ....|--- .... ....
....|..|--- .... ....|--- ...B ....|D-4 ...6 ....
....|..|--- .... ....|--- .... ....|B-3 ...8 ....
....|..|--- .... ....|--- ...B ....|--- .... ....
....|..|--- .... ....|--- .... ....|C#4 ...6 ....
....|..|--- .... ....|--- ...C ....|D-4 ...8 ....
....|..|--- .... ....|--- .... ....|--- .... ....
....|..|--- .... ....|--- ...B ....|B-3 ...6 ....
....|..|--- .... ....|--- .... ....|C#4 ...8 ....
....|..|--- .... ....|--- ...B ....|--- .... ....
....|..|--- .... ....|--- .... ....|D-4 ...6 ....
....|..|--- .... ....|--- ...C ....|B-3 ...8 ....
....|..|--- .... ....|--- .... ....|--- .... ....
....|..|--- .... ....|--- ...B ....|C#4 ...6 ....
....|..|--- .... ....|--- .... ....|D-4 ...8 ....
....|..|--- .... ....|--- ...C ....|--- .... ....
....|..|--- .... ....|--- .... ....|B-3 ...6 ....
....|..|--- .... ....|--- ...B ....|C#4 ...8 ....
....|..|--- .... ....|--- .... ....|--- .... ....

[Pattern31]
....|..|B-2 GF8B ....|G-4 7F9C ....|D-4 1FA8 ....
....|..|--- .... ....|--- .... ....|--- .... ....
....|..|--- .... ....|G-3 ...B ....|A-3 ...6 ....
....|..|--- .... ....|--- .... ....|C#4 ...8 ....
....|..|--- .... ....|G-3 ...B ....|--- .... ....
....|..|--- .... ....|--- .... ....|D-4 ...6 ....
....|..|--- .... ....|G-4 ...C ....|A-3 ...8 ....
....|..|--- .... ....|--- .... ....|--- .... ....
....|..|--- .... ....|G-3 ...B ....|C#4 ...6 ....
....|..|--- .... ....|--- .... ....|D-4 ...8 ....
....|..|--- .... ....|G-3 ...B ....|--- .... ....
....|..|--- .... ....|--- .... ....|A-3 ...6 ....
....|..|--- .... ....|G-4 ...C ....|C#4 ...8 ....
....|..|--- .... ....|--- .... ....|--- .... ....
 G-3|..|--- .... ....|G-2 .A.B ....|G-2 .A.B ....
....|..|--- .... ....|R-- .... ....|R-- .... ....
 G-3|..|--- .... ....|G-2 .A.B ....|G-2 .A.B ....
....|..|--- .... ....|R-- .... ....|R-- .... ....
....|..|--- .... ....|--- ...C ....|--- ...C ....
....|..|--- .... ....|--- .... ....|--- .... ....
 G-2|..|--- .... ....|G-2 .C.B ....|G-2 .C.B ....
....|..|--- .... ....|R-- .... ....|R-- .... ....
 G-3|..|--- .... ....|G-2 .A.B ....|G-2 .A.B ....
....|..|--- .... ....|R-- .... ....|R-- .... ....
....|..|--- .... ....|--- ...C ....|--- ...C ....
....|..|--- .... ....|--- .... ....|--- .... ....
....|..|--- .... ....|--- ...B ....|--- ...B ....
....|..|--- .... ....|--- .... ....|--- .... ....
....|..|--- .... ....|G-1 .F.C ....|G-4 .F9C ....
....|..|--- .... ....|--- .... ....|--- .... ....
....|..|--- .... ....|--- ...B ....|--- ...B ....
....|..|--- .... ....|--- .... ....|--- .... ....
....|..|--- .... ....|G-1 MF.C ....|D-4 1FA8 ....
....|..|--- .... ....|--- .... ....|--- .... ....
....|..|--- .... ....|--- ...B ....|A-3 ...6 ....
....|..|--- .... ....|--- .... ....|C#4 ...8 ....
....|..|--- .... ....|--- ...B ....|--- .... ....
....|..|--- .... ....|--- .... ....|D-4 ...6 ....
....|..|--- .... ....|--- ...C ....|A-3 ...8 ....
....|..|--- .... ....|--- .... ....|--- .... ....
....|..|--- .... ....|--- ...B ....|C#4 ...6 ....
....|..|--- .... ....|--- .... ....|D-4 ...8 ....
....|..|--- .... ....|--- ...C ....|--- .... ....
....|..|--- .... ....|--- .... ....|A-3 ...6 ....
....|..|--- .... ....|--- ...C ....|C#4 ...8 ....
....|..|--- .... ....|--- .... ....|--- .... ....
....|..|--- .... ....|--- ...B ....|D-4 ...6 ....
....|..|--- .... ....|--- .... ....|A-3 ...8 ....
....|..|--- .... ....|--- ...B ....|--- .... ....
....|..|--- .... ....|--- .... ....|C#4 ...6 ....
....|..|--- .... ....|--- ...C ....|D-4 ...8 ....
....|..|--- .... ....|--- .... ....|--- .... ....
....|..|--- .... ....|--- ...B ....|A-3 ...6 ....
....|..|--- .... ....|--- .... ....|C#4 ...8 ....
....|..|--- .... ....|--- ...B ....|--- .... ....
....|..|--- .... ....|--- .... ....|D-4 ...6 ....
....|..|--- .... ....|--- ...C ....|A-3 ...8 ....
....|..|--- .... ....|--- .... ....|--- .... ....
....|..|--- .... ....|--- ...B ....|C#4 ...6 ....
....|..|--- .... ....|--- .... ....|D-4 ...8 ....
....|..|--- .... ....|--- ...C ....|--- .... ....
....|..|--- .... ....|--- .... ....|A-3 ...6 ....
....|..|--- .... ....|--- ...B ....|C#4 ...8 ....
....|..|--- .... ....|--- .... ....|--- .... ....

[Pattern32]
....|..|G-2 GF4B ....|E-3 2F.C ....|D-4 1FA8 ....
....|..|--- .... ....|--- .... ....|--- .... ....
....|..|--- .... ....|E-2 ...B ....|G-3 ...6 ....
....|..|--- .... ....|--- .... ....|C#4 ...8 ....
....|..|--- .... ....|E-1 ...B ....|--- .... ....
....|..|--- .... ....|--- .... ....|D-4 ...6 ....
....|..|--- .... ....|E-3 ...C ....|G-3 ...8 ....
....|..|--- .... ....|--- .... ....|--- .... ....
....|..|--- .... ....|E-2 ...B ....|C#4 ...6 ....
....|..|--- .... ....|--- .... ....|D-4 ...8 ....
....|..|--- .... ....|E-1 ...B ....|--- .... ....
....|..|--- .... ....|--- .... ....|G-3 ...6 ....
....|..|--- .... ....|E-3 ...C ....|C#4 ...8 ....
....|..|--- .... ....|--- .... ....|--- .... ....
 E-3|..|--- .... ....|E-2 .A.B ....|E-2 .A.B ....
....|..|--- .... ....|R-- .... ....|R-- .... ....
 E-3|..|--- .... ....|E-2 .A.B ....|E-2 .A.B ....
....|..|--- .... ....|R-- .... ....|R-- .... ....
....|..|--- .... ....|--- ...C ....|--- ...C ....
....|..|--- .... ....|--- .... ....|--- .... ....
 E-1|..|--- .... ....|E-1 .C.B ....|E-1 .C.B ....
....|..|--- .... ....|R-- .... ....|R-- .... ....
 E-3|..|--- .... ....|E-2 .A.B ....|E-2 .A.B ....
....|..|--- .... ....|R-- .... ....|R-- .... ....
....|..|--- .... ....|--- ...C ....|--- ...C ....
....|..|--- .... ....|--- .... ....|--- .... ....
....|..|--- .... ....|--- ...B ....|--- ...B ....
....|..|--- .... ....|--- .... ....|--- .... ....
....|..|--- .... ....|E-2 .F.C ....|E-4 .F9C ....
....|..|--- .... ....|--- .... ....|--- .... ....
....|..|--- .... ....|--- ...B ....|--- ...B ....
....|..|--- .... ....|--- .... ....|--- .... ....
....|..|--- .... ....|E-2 MF.C ....|D-4 1FA8 ....
....|..|--- .... ....|--- .... ....|--- .... ....
....|..|--- .... ....|--- ...B ....|G-3 ...6 ....
....|..|--- .... ....|--- .... ....|C#4 ...8 ....
....|..|--- .... ....|--- ...B ....|--- .... ....
....|..|--- .... ....|--- .... ....|D-4 ...6 ....
....|..|--- .... ....|--- ...C ....|G-3 ...8 ....
....|..|--- .... ....|--- .... ....|--- .... ....
....|..|--- .... ....|--- ...B ....|C#4 ...6 ....
....|..|--- .... ....|--- .... ....|D-4 ...8 ....
....|..|--- .... ....|--- ...C ....|--- .... ....
....|..|--- .... ....|--- .... ....|G-3 ...6 ....
....|..|--- .... ....|--- ...C ....|C#4 ...8 ....
....|..|--- .... ....|--- .... ....|--- .... ....
....|..|--- .... ....|--- ...B ....|D-4 ...6 ....
....|..|--- .... ....|--- .... ....|G-3 ...8 ....
....|..|--- .... ....|--- ...B ....|--- .... ....
....|..|--- .... ....|--- .... ....|C#4 ...6 ....
....|..|--- .... ....|--- ...C ....|D-4 ...8 ....
....|..|--- .... ....|--- .... ....|--- .... ....
....|..|--- .... ....|--- ...B ....|G-3 ...6 ....
....|..|--- .... ....|--- .... ....|C#4 ...8 ....
....|..|--- .... ....|--- ...B ....|--- .... ....
....|..|--- .... ....|--- .... ....|D-4 ...6 ....
....|..|--- .... ....|--- ...C ....|G-3 ...8 ....
....|..|--- .... ....|--- .... ....|--- .... ....
....|..|--- .... ....|--- ...B ....|C#4 ...6 ....
....|..|--- .... ....|--- .... ....|D-4 ...8 ....
....|..|--- .... ....|--- ...C ....|--- .... ....
....|..|--- .... ....|--- .... ....|G-3 ...6 ....
....|..|--- .... ....|--- ...B ....|C#4 ...8 ....
....|..|--- .... ....|--- .... ....|--- .... ....

[Pattern33]
....|..|F#2 GF5B ....|D-3 7F.C ....|D-4 1FA8 ....
....|..|--- .... ....|--- .... ....|--- .... ....
....|..|--- .... ....|D-2 ...B ....|F#3 ...6 ....
....|..|--- .... ....|--- .... ....|C#4 ...8 ....
....|..|--- .... ....|D-1 ...B ....|--- .... ....
....|..|--- .... ....|--- .... ....|D-4 ...6 ....
....|..|--- .... ....|D-3 ...C ....|F#3 ...8 ....
....|..|--- .... ....|--- .... ....|--- .... ....
....|..|--- .... ....|D-2 ...B ....|C#4 ...6 ....
....|..|--- .... ....|--- .... ....|D-4 ...8 ....
....|..|--- .... ....|D-1 ...B ....|--- .... ....
....|..|--- .... ....|--- .... ....|F#3 ...6 ....
....|..|--- .... ....|D-3 ...C ....|C#4 ...8 ....
....|..|--- .... ....|--- .... ....|--- .... ....
 D-4|..|--- .... ....|D-2 7A.B ....|D-3 .A.B ....
....|..|--- .... ....|R-- .... ....|R-- .... ....
 D-4|..|--- .... ....|D-3 .A.B ....|D-3 .A.B ....
....|..|--- .... ....|R-- .... ....|R-- .... ....
....|..|--- .... ....|--- ...C ....|--- ...C ....
....|..|--- .... ....|--- .... ....|--- .... ....
 D-1|..|--- .... ....|D-2 .C.B ....|D-1 .C.B ....
....|..|--- .... ....|R-- .... ....|R-- .... ....
 D-3|..|--- .... ....|D-2 .A.B ....|D-2 .A.B ....
....|..|--- .... ....|R-- .... ....|R-- .... ....
....|..|--- .... ....|--- ...C ....|--- ...C ....
....|..|--- .... ....|--- .... ....|--- .... ....
....|..|--- .... ....|--- ...B ....|--- ...B ....
....|..|--- .... ....|--- .... ....|--- .... ....
....|..|--- .... ....|D-2 ...C ....|D-4 .F9C ....
....|..|--- .... ....|--- .... ....|--- .... ....
....|..|--- .... ....|--- ...B ....|--- ...B ....
....|..|--- .... ....|--- .... ....|--- .... ....
....|..|--- .... ....|D-2 MF.C ....|D-4 1FA8 ....
....|..|--- .... ....|--- .... ....|--- .... ....
....|..|--- .... ....|--- ...B ....|F#3 ...6 ....
....|..|--- .... ....|--- .... ....|C#4 ...8 ....
....|..|--- .... ....|--- ...B ....|--- .... ....
....|..|--- .... ....|--- .... ....|D-4 ...6 ....
....|..|--- .... ....|--- ...C ....|F#3 ...8 ....
....|..|--- .... ....|--- .... ....|--- .... ....
....|..|--- .... ....|--- ...B ....|C#4 ...6 ....
....|..|--- .... ....|--- .... ....|D-4 ...8 ....
....|..|--- .... ....|--- ...C ....|--- .... ....
....|..|--- .... ....|--- .... ....|F#3 ...6 ....
....|..|--- .... ....|--- ...C ....|C#4 ...8 ....
....|..|--- .... ....|--- .... ....|--- .... ....
....|..|--- .... ....|--- ...B ....|D-4 ...6 ....
....|..|--- .... ....|--- .... ....|F#3 ...8 ....
....|..|--- .... ....|--- ...B ....|--- .... ....
....|..|--- .... ....|--- .... ....|C#4 ...6 ....
....|..|--- .... ....|--- ...C ....|D-4 ...8 ....
....|..|--- .... ....|--- .... ....|--- .... ....
....|..|--- .... ....|--- ...B ....|F#3 ...6 ....
....|..|--- .... ....|--- .... ....|C#4 ...8 ....
....|..|--- .... ....|--- ...B ....|--- .... ....
....|..|--- .... ....|--- .... ....|D-4 ...6 ....
....|..|--- .... ....|--- ...C ....|F#3 ...8 ....
....|..|--- .... ....|--- .... ....|--- .... ....
....|..|--- .... ....|--- ...B ....|C#4 ...6 ....
....|..|--- .... ....|--- .... ....|D-4 ...8 ....
....|..|--- .... ....|--- ...C ....|--- .... ....
....|..|--- .... ....|--- .... ....|F#3 ...6 ....
....|..|--- .... ....|--- ...B ....|C#4 ...8 ....
....|..|--- .... ....|--- .... ....|--- .... ....

[Pattern34]
....|..|B-2 2F3C ....|B-1 7F.C ....|A-3 AF.F ....
....|..|--- .... ....|--- .... ....|--- .... ....
....|..|--- ...B ....|--- ...B ....|A-3 K..F ....
....|..|--- .... ....|--- .... ....|A-3 L... ....
....|..|--- ...B ....|--- ...B ....|A-3 K..B ....
....|..|--- .... ....|--- .... ....|A-3 L... ....
....|..|--- ...C ....|--- ...C ....|A-3 D..B ....
....|..|--- .... ....|--- .... ....|--- .... ....
....|..|--- ...B ....|--- ...B ....|A-3 L..B ....
....|..|--- .... ....|--- .... ....|--- .... ....
....|..|--- ...B ....|--- ...B ....|A-3 A..F ....
....|..|--- .... ....|--- .... ....|--- .... ....
....|..|--- ...C ....|--- ...C ....|G#8 8..F ....
....|..|--- .... ....|--- .... ....|--- .... ....
 B-2|..|D-1 .A.B ....|B-1 7A.B ....|G#8 8..B ....
....|..|R-- .... ....|R-- .... ....|--- .... ....
 B-2|..|D-1 .A.B ....|B-1 .A.B ....|G#8 B..F ....
....|..|R-- .... ....|R-- .... ....|--- .... ....
....|..|--- ...C ....|--- ...C ....|G#8 8..B ....
....|..|--- .... ....|--- .... ....|--- .... ....
 B-2|..|D-1 .A.B ....|B-1 .A.B ....|G#8 J..F ....
....|..|R-- .... ....|R-- .... ....|--- .... ....
 B-3|..|D-1 .A.B ....|B-1 .A.B ....|G#8 B..B ....
....|..|R-- .... ....|R-- .... ....|--- .... ....
....|..|B-2 2F3C ....|--- ...C ....|G#8 J..F ....
....|..|--- .... ....|--- .... ....|--- .... ....
....|..|--- ...B ....|--- ...B ....|G#8 J..B ....
....|..|--- .... ....|--- .... ....|--- .... ....
....|..|D-1 .F.C ....|B-3 9F.C ....|G#8 U..F ....
....|..|--- .... ....|--- .... ....|--- .... ....
....|..|--- ...B ....|--- ...B ....|G#8 J..B ....
....|..|--- .... ....|--- .... ....|--- .... ....
....|..|B-2 2F8C ....|B-3 .F9C 3140|A-3 DF.F ....
....|..|--- .... ....|--- .... ....|--- .... ....
....|..|--- ...B ....|--- ...B ....|A-3 K..F ....
....|..|--- .... ....|--- .... ....|A-3 L... ....
....|..|--- ...B ....|--- ...B ....|A-3 K..B ....
....|..|--- .... ....|--- .... ....|A-3 L... ....
....|..|--- ...C ....|--- ...C ....|A-3 D..B ....
....|..|--- .... ....|--- .... ....|--- .... ....
....|..|--- ...B ....|--- ...B ....|A-3 L..B ....
....|..|--- .... ....|--- .... ....|--- .... ....
....|..|--- ...B ....|--- ...C ....|G#8 J..B ....
....|..|--- .... ....|--- .... ....|--- .... ....
....|..|--- ...C ....|--- ...C ....|F#3 A..F ....
....|..|--- .... ....|--- .... ....|--- .... ....
....|..|--- ...B ....|--- ...B ....|G#8 8..B ....
....|..|--- .... ....|--- .... ....|--- .... ....
....|..|G#7 UFAA ....|--- ...B ....|G#8 B..F ....
....|..|--- .... ....|--- .... ....|--- .... ....
....|..|R-- .... ....|--- ...C ....|F#3 A..B ....
....|..|G#7 ...8 ....|--- .... ....|--- .... ....
....|..|--- .... ....|--- ...B ....|G#8 J..F ....
....|..|R-- .... ....|--- .... ....|--- .... ....
....|..|G#7 ...6 ....|--- ...B ....|G#8 B..B ....
....|..|--- .... ....|--- .... ....|--- .... ....
....|..|C#3 2F5B ....|--- ...C ....|G#8 8..F ....
....|..|--- .... ....|--- .... ....|--- .... ....
....|..|--- .... ....|--- ...B ....|G#8 J..B ....
....|..|--- .... ....|--- .... ....|--- .... ....
....|..|--- .... ....|--- ...C ....|G#8 B..F ....
....|..|--- .... ....|--- .... ....|--- .... ....
....|..|--- .... ....|--- ...B ....|G#8 8..B ....
....|..|--- .... ....|--- .... ....|--- .... ....

[Pattern35]
....|..|G-2 2F4C ....|G-2 7F.C ....|A-3 AF.F ....
....|..|--- .... ....|--- .... ....|--- .... ....
....|..|--- ...B ....|--- ...B ....|A-3 K..F ....
....|..|--- .... ....|--- .... ....|A-3 L... ....
....|..|--- ...B ....|--- ...B ....|A-3 K..B ....
....|..|--- .... ....|--- .... ....|A-3 L... ....
....|..|--- ...C ....|--- ...C ....|A-3 D..B ....
....|..|--- .... ....|--- .... ....|--- .... ....
....|..|--- ...B ....|--- ...B ....|A-3 L..B ....
....|..|--- .... ....|--- .... ....|--- .... ....
....|..|--- ...B ....|--- ...B ....|A-3 A..F ....
....|..|--- .... ....|--- .... ....|--- .... ....
....|..|--- ...C ....|--- ...C ....|G#8 8..F ....
....|..|--- .... ....|--- .... ....|--- .... ....
 G-3|..|G-1 .A.B ....|G-2 7A.B ....|G#8 8..B ....
....|..|R-- .... ....|R-- .... ....|--- .... ....
 G-3|..|G-1 .A.B ....|G-2 .A.B ....|G#8 B..F ....
....|..|R-- .... ....|R-- .... ....|--- .... ....
....|..|--- ...C ....|--- ...C ....|G#8 8..B ....
....|..|--- .... ....|--- .... ....|--- .... ....
 G-3|..|G-1 .A.B ....|G-2 .A.B ....|G#8 J..F ....
....|..|R-- .... ....|R-- .... ....|--- .... ....
 G-3|..|G-1 .A.B ....|G-2 .A.B ....|G#8 B..B ....
....|..|R-- .... ....|R-- .... ....|--- .... ....
....|..|G-2 2F4C ....|--- ...C ....|G#8 J..F ....
....|..|--- .... ....|--- .... ....|--- .... ....
....|..|--- ...B ....|--- ...B ....|G#8 J..B ....
....|..|--- .... ....|--- .... ....|--- .... ....
....|..|G-1 .F.C ....|G-2 ...C ....|G#8 U..F ....
....|..|--- .... ....|--- .... ....|--- .... ....
....|..|--- ...B ....|--- ...B ....|G#8 J..B ....
....|..|--- .... ....|--- .... ....|--- .... ....
....|..|F#2 2F5C ....|F#3 .F9C 3140|A-3 DF.F ....
....|..|--- .... ....|--- .... ....|--- .... ....
....|..|--- ...B ....|--- ...B ....|A-3 K..F ....
....|..|--- .... ....|--- .... ....|A-3 L... ....
....|..|--- ...B ....|--- ...B ....|A-3 K..B ....
....|..|--- .... ....|--- .... ....|A-3 L... ....
....|..|--- ...C ....|--- ...C ....|A-3 D..B ....
....|..|--- .... ....|--- .... ....|--- .... ....
....|..|--- ...B ....|--- ...B ....|A-3 L..B ....
....|..|--- .... ....|--- .... ....|--- .... ....
....|..|--- ...B ....|--- ...C ....|G#8 J..B ....
....|..|--- .... ....|--- .... ....|--- .... ....
....|..|--- ...C ....|--- ...C ....|F#3 A..F ....
....|..|--- .... ....|--- .... ....|--- .... ....
....|..|--- ...B ....|--- ...B ....|G#8 8..B ....
....|..|--- .... ....|--- .... ....|--- .... ....
....|..|G#7 UFAA ....|--- ...B ....|G#8 B..F ....
....|..|--- .... ....|--- .... ....|--- .... ....
....|..|R-- .... ....|--- ...C ....|F#3 A..B ....
....|..|G#7 ...8 ....|--- .... ....|--- .... ....
....|..|--- .... ....|--- ...B ....|G#8 J..F ....
....|..|R-- .... ....|--- .... ....|--- .... ....
....|..|G#7 ...6 ....|--- ...B ....|G#8 B..B ....
....|..|--- .... ....|--- .... ....|--- .... ....
....|..|C#3 2F5B ....|--- ...C ....|G#8 8..F ....
....|..|--- .... ....|--- .... ....|--- .... ....
....|..|--- .... ....|--- ...B ....|G#8 J..B ....
....|..|--- .... ....|--- .... ....|--- .... ....
....|..|--- .... ....|--- ...C ....|G#8 B..F ....
....|..|--- .... ....|--- .... ....|--- .... ....
....|..|--- .... ....|--- ...B ....|G#8 8..B ....
....|..|--- .... ....|--- .... ....|--- .... ....

[Pattern36]
 B-3|..|B-2 2F3C ....|B-1 NA.C ....|A-3 AF.F ....
....|..|--- .... ....|--- .... ....|--- .... ....
....|..|--- ...B ....|--- ...B ....|A-3 K..F ....
....|..|--- .... ....|--- .... ....|A-3 L... ....
....|..|--- ...B ....|--- ...B ....|A-3 K..B ....
....|..|--- .... ....|--- .... ....|A-3 L... ....
 B-2|..|--- ...C ....|B-1 .C.C ....|A-3 D..B ....
....|..|--- .... ....|--- .... ....|--- .... ....
 G-2|..|--- ...B ....|G-1 .C.B ....|A-3 L..B ....
....|..|--- .... ....|--- .... ....|--- .... ....
 B-3|..|--- ...B ....|B-2 7C.B ....|A-3 A..F ....
....|..|--- .... ....|--- .... ....|--- .... ....
....|..|--- ...C ....|R-- ...C ....|G#8 8..F ....
....|..|--- .... ....|--- .... ....|--- .... ....
 B-2|..|D-1 .A.B ....|D-1 7A.B ....|G#8 8..B ....
....|..|R-- .... ....|R-- .... ....|--- .... ....
 B-3|..|D-1 .A.B ....|B-1 .A.B ....|G#8 B..F ....
....|..|R-- .... ....|R-- .... ....|--- .... ....
....|..|--- ...C ....|B-1 ...C ....|G#8 8..B ....
....|..|--- .... ....|--- .... ....|--- .... ....
 B-2|..|D-1 .A.B ....|B-1 .A.B ....|G#8 J..F ....
....|..|R-- .... ....|R-- .... ....|--- .... ....
 B-3|..|D-1 .A.B ....|B-1 .A.B ....|G#8 B..B ....
....|..|R-- .... ....|R-- .... ....|--- .... ....
....|..|B-2 2F3C ....|B-1 ...C ....|G#8 J..F ....
....|..|--- .... ....|--- .... ....|--- .... ....
....|..|--- ...B ....|E-1 ...B ....|G#8 J..B ....
....|..|--- .... ....|--- .... ....|--- .... ....
....|..|D-1 .F.C ....|B-1 ...C ....|G#8 U..F ....
....|..|--- .... ....|--- .... ....|--- .... ....
....|..|--- ...B ....|--- ...B ....|G#8 J..B ....
....|..|--- .... ....|--- .... ....|--- .... ....
 G-3|..|B-2 2F8C ....|G-1 NE.C 3140|A-3 DF.F ....
....|..|--- .... ....|--- .... ....|--- .... ....
....|..|--- ...B ....|G-2 ...B ....|A-3 K..F ....
....|..|--- .... ....|--- .... ....|A-3 L... ....
....|..|--- ...B ....|G-1 ...B ....|A-3 K..B ....
....|..|--- .... ....|--- .... ....|A-3 L... ....
 E-3|..|--- ...C ....|E-1 .A.C ....|A-3 D..B ....
....|..|--- .... ....|--- .... ....|--- .... ....
....|..|--- ...B ....|E-2 ...B ....|A-3 L..B ....
....|..|--- .... ....|--- .... ....|--- .... ....
....|..|--- ...B ....|--- ...C ....|G#8 J..B ....
....|..|--- .... ....|--- .... ....|--- .... ....
....|..|--- ...C ....|--- ...C ....|F#3 A..F ....
....|..|--- .... ....|--- .... ....|--- .... ....
....|..|--- ...B ....|--- ...B ....|G#8 8..B ....
....|..|--- .... ....|--- .... ....|--- .... ....
 F#3|..|G#7 UFAA ....|F#1 7A.B ....|G#8 B..F ....
....|..|--- .... ....|--- .... ....|--- .... ....
....|..|R-- .... ....|--- ...C ....|F#3 A..B ....
....|..|G#7 ...8 ....|--- .... ....|--- .... ....
....|..|--- .... ....|--- ...B ....|G#8 J..F ....
....|..|R-- .... ....|--- .... ....|--- .... ....
....|..|G#7 ...6 ....|--- ...B ....|G#8 B..B ....
....|..|--- .... ....|--- .... ....|--- .... ....
....|..|C#3 2F5B ....|--- ...C ....|G#8 8..F ....
....|..|--- .... ....|--- .... ....|--- .... ....
....|..|--- .... ....|--- ...B ....|G#8 J..B ....
....|..|--- .... ....|--- .... ....|--- .... ....
....|..|--- .... ....|--- ...C ....|G#8 B..F ....
....|..|--- .... ....|--- .... ....|--- .... ....
....|..|--- .... ....|--- ...B ....|G#8 8..B ....
....|..|--- .... ....|--- .... ....|--- .... ....

[Pattern37]
 E-3|..|G-2 2F4C ....|E-1 NA.C ....|A-3 AF.F ....
....|..|--- .... ....|--- .... ....|--- .... ....
....|..|--- ...B ....|E-2 ...B ....|A-3 K..F ....
....|..|--- .... ....|--- .... ....|A-3 L... ....
 G-3|..|--- ...B ....|G-1 .A.B ....|A-3 K..B ....
....|..|--- .... ....|--- .... ....|A-3 L... ....
....|..|--- ...C ....|--- ...C ....|A-3 D..B ....
....|..|--- .... ....|--- .... ....|--- .... ....
 E-3|..|--- ...B ....|E-1 .A.B ....|A-3 L..B ....
....|..|--- .... ....|--- .... ....|--- .... ....
....|..|--- ...B ....|--- ...B ....|A-3 A..F ....
....|..|--- .... ....|--- .... ....|--- .... ....
 C#3|..|--- ...C ....|C#1 .A.C ....|G#8 8..F ....
....|..|--- .... ....|--- .... ....|--- .... ....
 G-3|..|G-1 .A.B ....|G-2 7A.B ....|G#8 8..B ....
....|..|R-- .... ....|R-- .... ....|--- .... ....
 G-3|..|G-1 .A.B ....|G-2 .A.B ....|G#8 B..F ....
....|..|R-- .... ....|R-- .... ....|--- .... ....
....|..|--- ...C ....|G-1 ...C ....|G#8 8..B ....
....|..|--- .... ....|--- .... ....|--- .... ....
 G-3|..|G-1 .A.B ....|G-2 .A.B ....|G#8 J..F ....
....|..|R-- .... ....|R-- .... ....|--- .... ....
 G-3|..|G-1 .A.B ....|G-2 .A.B ....|G#8 B..B ....
....|..|R-- .... ....|R-- .... ....|--- .... ....
....|..|G-2 2F4C ....|G-1 ...C ....|G#8 J..F ....
....|..|--- .... ....|--- .... ....|--- .... ....
....|..|--- ...B ....|--- ...B ....|G#8 J..B ....
....|..|--- .... ....|--- .... ....|--- .... ....
....|..|G-1 .F.C ....|G-2 ...C ....|G#8 U..F ....
....|..|--- .... ....|--- .... ....|--- .... ....
....|..|--- ...B ....|--- ...B ....|G#8 J..B ....
....|..|--- .... ....|--- .... ....|--- .... ....
....|..|F#2 2F5C ....|F#3 9F.C 3140|A-3 DF.F ....
 F#3|..|--- .... ....|F#1 NA.. ....|--- .... ....
....|..|--- ...B ....|--- ...B ....|A-3 K..F ....
....|..|--- .... ....|--- .... ....|A-3 L... ....
....|..|--- ...B ....|--- ...B ....|A-3 K..B ....
....|..|--- .... ....|--- .... ....|A-3 L... ....
....|..|--- ...C ....|--- ...C ....|A-3 D..B ....
....|..|--- .... ....|--- .... ....|--- .... ....
....|..|--- ...B ....|--- ...B ....|A-3 L..B ....
....|..|--- .... ....|--- .... ....|--- .... ....
....|..|--- ...B ....|--- ...C ....|G#8 J..B ....
....|..|--- .... ....|--- .... ....|--- .... ....
....|..|--- ...C ....|--- ...C ....|F#3 A..F ....
....|..|--- .... ....|--- .... ....|--- .... ....
....|..|--- ...B ....|--- ...B ....|G#8 8..B ....
....|..|--- .... ....|--- .... ....|--- .... ....
 E-3|..|G#7 UFAA ....|D-4 9F.B ....|G#8 B..F ....
 D-3|..|--- .... ....|D-1 NA.. ....|--- .... ....
....|..|R-- .... ....|--- ...C ....|F#3 A..B ....
....|..|G#7 ...8 ....|--- .... ....|--- .... ....
....|..|--- .... ....|--- ...B ....|G#8 J..F ....
....|..|R-- .... ....|--- .... ....|--- .... ....
....|..|G#7 ...6 ....|--- ...B ....|G#8 B..B ....
....|..|--- .... ....|--- .... ....|--- .... ....
 C#4|..|C#3 2F5B ....|C#2 7A.C ....|G#8 8..F ....
....|..|--- .... ....|--- .... ....|--- .... ....
....|..|--- .... ....|--- ...B ....|G#8 J..B ....
....|..|--- .... ....|--- .... ....|--- .... ....
....|..|--- .... ....|--- ...C ....|G#8 B..F ....
....|..|--- .... ....|--- .... ....|--- .... ....
....|..|--- .... ....|--- ...B ....|G#8 8..B ....
....|..|--- .... ....|--- .... ....|--- .... ....

[Pattern38]
....|..|B-2 GF3B ....|A-3 AF.F ....|D-4 1FA8 ....
....|..|--- .... ....|--- .... ....|--- .... ....
....|..|--- .... ....|--- .... ....|B-3 ...6 ....
....|..|--- .... ....|--- .... ....|C#4 ...8 ....
 B-2|..|--- .... ....|B-1 7A.. ....|--- .... ....
....|..|--- .... ....|--- .... ....|D-4 ...6 ....
....|..|--- .... ....|--- .... ....|B-3 ...8 ....
....|..|--- .... ....|--- .... ....|--- .... ....
....|..|--- .... ....|A-3 AF.F ....|C#4 ...6 ....
....|..|--- .... ....|--- .... ....|D-4 ...8 ....
....|..|--- .... ....|--- .... ....|--- .... ....
....|..|--- .... ....|--- .... ....|B-3 ...6 ....
 B-2|..|--- .... ....|B-1 7A.. ....|C#4 ...8 ....
....|..|--- .... ....|--- .... ....|--- .... ....
 B-2|..|--- .... ....|--- .... ....|B-1 .A.B ....
....|..|--- .... ....|--- .... ....|R-- .... ....
 B-2|..|--- .... ....|A-3 AF.F ....|B-1 .A.B ....
....|..|--- .... ....|--- .... ....|R-- .... ....
....|..|--- .... ....|--- .... ....|--- ...C ....
....|..|--- .... ....|--- .... ....|--- .... ....
 B-2|..|--- .... ....|B-1 7A.. ....|B-1 .C.B ....
....|..|--- .... ....|--- .... ....|R-- .... ....
 B-3|..|--- .... ....|--- .... ....|B-1 .A.B ....
....|..|--- .... ....|--- .... ....|R-- .... ....
....|..|--- .... ....|A-3 AF.F ....|--- ...C ....
....|..|--- .... ....|--- .... ....|--- .... ....
....|..|--- .... ....|--- .... ....|--- ...B ....
....|..|--- .... ....|--- .... ....|--- .... ....
 B-2|..|--- .... 11.1|B-1 7A.. ....|B-3 .F9C ....
....|..|--- .... ....|--- .... ....|--- .... ....
....|..|--- .... ....|--- .... ....|--- ...B ....
....|..|--- .... ....|--- .... ....|--- .... ....
....|..|B-2 .... ....|A-3 AF.F ....|D-4 1FA8 ....
....|..|--- .... ....|--- .... ....|--- .... ....
....|..|--- .... ....|--- .... ....|B-3 ...6 ....
....|..|--- .... ....|--- .... ....|C#4 ...8 ....
 B-2|..|--- .... ....|B-1 7A.. ....|--- .... ....
....|..|--- .... ....|--- .... ....|D-4 ...6 ....
....|..|--- .... ....|--- .... ....|B-3 ...8 ....
....|..|--- .... ....|--- .... ....|--- .... ....
....|..|--- .... ....|A-3 AF.F ....|C#4 ...6 ....
....|..|--- .... ....|--- .... ....|D-4 ...8 ....
....|..|--- .... ....|--- .... ....|--- .... ....
....|..|--- .... ....|--- .... ....|B-3 ...6 ....
 B-2|..|--- .... ....|B-1 7A.. ....|C#4 ...8 ....
....|..|--- .... ....|--- .... ....|--- .... ....
....|..|--- .... ....|--- .... ....|D-4 ...6 ....
....|..|--- .... ....|--- .... ....|B-3 ...8 ....
....|..|--- .... ....|A-3 AF.F ....|--- .... ....
....|..|--- .... ....|--- .... ....|C#4 ...6 ....
....|..|--- .... ....|--- .... ....|D-4 ...8 ....
....|..|--- .... ....|--- .... ....|--- .... ....
 B-2|..|--- .... ....|B-1 7A.. ....|B-3 ...6 ....
....|..|--- .... ....|--- .... ....|C#4 ...8 ....
....|..|--- .... ....|--- .... ....|--- .... ....
....|..|--- .... ....|--- .... ....|D-4 ...6 ....
....|..|--- .... ....|A-3 AF.F ....|B-3 ...8 ....
....|..|--- .... ....|--- .... ....|--- .... ....
....|..|--- .... ....|--- .... ....|C#4 ...6 ....
....|..|--- .... ....|--- .... ....|D-4 ...8 ....
 B-2|..|--- .... 21.1|B-1 7A.. ....|--- .... ....
....|..|--- .... ....|--- .... ....|B-3 ...6 ....
....|..|--- .... ....|--- .... ....|C#4 ...8 ....
....|..|--- .... ....|--- .... ....|--- .... ....

[Pattern39]
....|..|B-2 GF8B ....|A-3 AF.F ....|D-4 1FA8 ....
....|..|--- .... ....|--- .... ....|--- .... ....
....|..|--- .... ....|--- .... ....|G-3 ...6 ....
....|..|--- .... ....|--- .... ....|C#4 ...8 ....
 G-2|..|--- .... ....|G-1 7A.. ....|--- .... ....
....|..|--- .... ....|--- .... ....|D-4 ...6 ....
....|..|--- .... ....|C#4 EF.. ....|G-3 ...8 ....
....|..|--- .... ....|--- .... ....|--- .... ....
....|..|--- .... ....|A-3 AF.F ....|C#4 ...6 ....
....|..|--- .... ....|--- .... ....|D-4 ...8 ....
....|..|--- .... ....|--- .... ....|--- .... ....
....|..|--- .... ....|--- .... ....|G-3 ...6 ....
 G-2|..|--- .... ....|G-1 7A.. ....|C#4 ...8 ....
....|..|--- .... ....|--- .... ....|--- .... ....
 G-3|..|--- .... ....|--- .... ....|G-2 .A.B ....
....|..|--- .... ....|--- .... ....|R-- .... ....
 G-3|..|--- .... ....|A-3 AF.F ....|G-2 .A.B ....
....|..|--- .... ....|--- .... ....|R-- .... ....
....|..|--- .... ....|--- .... ....|--- ...C ....
....|..|--- .... ....|--- .... ....|--- .... ....
 G-1|..|--- .... ....|G-1 7A.. ....|G-1 .C.B ....
....|..|--- .... ....|--- .... ....|R-- .... ....
 G-2|..|--- .... ....|--- .... ....|G-1 .A.B ....
....|..|--- .... ....|--- .... ....|R-- .... ....
....|..|--- .... ....|A-3 AF.F ....|--- ...C ....
....|..|--- .... ....|--- .... ....|--- .... ....
....|..|--- .... ....|--- .... ....|--- ...B ....
....|..|--- .... ....|--- .... ....|--- .... ....
 G-2|..|--- .... ....|G-1 7A.. ....|G-3 .F9C ....
....|..|--- .... ....|--- .... ....|--- .... ....
....|..|--- .... 11.1|--- .... ....|--- ...B ....
....|..|--- .... ....|--- .... ....|--- .... ....
....|..|B-2 .... ....|A-3 AF.F ....|D-4 1FA8 ....
....|..|--- .... ....|--- .... ....|--- .... ....
....|..|--- .... ....|--- .... ....|G-3 ...6 ....
....|..|--- .... ....|--- .... ....|C#4 ...8 ....
 G-2|..|--- .... ....|G-1 7A.. ....|--- .... ....
....|..|--- .... ....|--- .... ....|D-4 ...6 ....
....|..|--- .... ....|C#4 EF.. ....|G-3 ...8 ....
....|..|--- .... ....|--- .... ....|--- .... ....
....|..|--- .... ....|A-3 AF.F ....|C#4 ...6 ....
....|..|--- .... ....|--- .... ....|D-4 ...8 ....
....|..|--- .... ....|--- .... ....|--- .... ....
....|..|--- .... ....|--- .... ....|G-3 ...6 ....
 G-2|..|--- .... ....|G-1 7A.. ....|C#4 ...8 ....
....|..|--- .... ....|--- .... ....|--- .... ....
....|..|--- .... ....|--- .... ....|D-4 ...6 ....
....|..|--- .... ....|--- .... ....|G-3 ...8 ....
....|..|--- .... ....|A-3 AF.F ....|--- .... ....
....|..|--- .... ....|--- .... ....|C#4 ...6 ....
....|..|--- .... ....|--- .... ....|D-4 ...8 ....
....|..|--- .... ....|--- .... ....|--- .... ....
 G-2|..|--- .... ....|G-1 7A.. ....|G-3 ...6 ....
....|..|--- .... ....|--- .... ....|C#4 ...8 ....
....|..|--- .... ....|--- .... ....|--- .... ....
....|..|--- .... ....|--- .... ....|D-4 ...6 ....
....|..|--- .... ....|A-3 AF.F ....|G-3 ...8 ....
....|..|--- .... ....|--- .... ....|--- .... ....
....|..|--- .... ....|--- .... ....|C#4 ...6 ....
....|..|--- .... ....|--- .... ....|D-4 ...8 ....
 G-2|..|--- .... ....|G-1 7A.. ....|--- .... ....
....|..|--- .... ....|--- .... ....|G-3 ...6 ....
....|..|--- .... 21.1|--- .... ....|C#4 ...8 ....
....|..|--- .... ....|--- .... ....|--- .... ....

[Pattern40]
....|..|G-2 GF4B ....|A-3 AF.F ....|D-4 1FA8 ....
....|..|--- .... ....|--- .... ....|--- .... ....
....|..|--- .... ....|--- .... ....|G-3 ...6 ....
....|..|--- .... ....|--- .... ....|C#4 ...8 ....
 E-2|..|--- .... ....|E-1 7A.. ....|--- .... ....
....|..|--- .... ....|--- .... ....|D-4 ...6 ....
....|..|--- .... ....|C#4 EF.. ....|G-3 ...8 ....
....|..|--- .... ....|--- .... ....|--- .... ....
....|..|--- .... ....|A-3 AF.F ....|C#4 ...6 ....
....|..|--- .... ....|--- .... ....|D-4 ...8 ....
....|..|--- .... ....|--- .... ....|--- .... ....
....|..|--- .... ....|--- .... ....|G-3 ...6 ....
 E-2|..|--- .... ....|E-1 7A.. ....|C#4 ...8 ....
....|..|--- .... ....|--- .... ....|--- .... ....
 E-2|..|--- .... ....|--- .... ....|E-1 .A.B ....
....|..|--- .... ....|--- .... ....|R-- .... ....
 E-2|..|--- .... ....|A-3 AF.F ....|E-1 .A.B ....
....|..|--- .... ....|--- .... ....|R-- .... ....
....|..|--- .... ....|--- .... ....|--- ...C ....
....|..|--- .... ....|--- .... ....|--- .... ....
 E-1|..|--- .... ....|E-1 7A.. ....|E-1 .C.B ....
....|..|--- .... ....|--- .... ....|R-- .... ....
 E-2|..|--- .... ....|--- .... ....|E-1 .A.B ....
....|..|--- .... ....|--- .... ....|R-- .... ....
....|..|--- .... ....|A-3 AF.F ....|--- ...C ....
....|..|--- .... ....|--- .... ....|--- .... ....
....|..|--- .... ....|--- .... ....|--- ...B ....
....|..|--- .... ....|--- .... ....|--- .... ....
 E-2|..|--- .... ....|E-1 7A.. ....|E-4 .F9C ....
....|..|--- .... ....|--- .... ....|--- .... ....
....|..|--- .... 11.1|--- .... ....|--- ...B ....
....|..|--- .... ....|--- .... ....|--- .... ....
....|..|G-2 .... ....|A-3 AF.F ....|D-4 1FA8 ....
....|..|--- .... ....|--- .... ....|--- .... ....
....|..|--- .... ....|--- .... ....|G-3 ...6 ....
....|..|--- .... ....|--- .... ....|C#4 ...8 ....
 E-2|..|--- .... ....|E-1 7A.. ....|--- .... ....
....|..|--- .... ....|--- .... ....|D-4 ...6 ....
....|..|--- .... ....|C#4 EF.. ....|G-3 ...8 ....
....|..|--- .... ....|--- .... ....|--- .... ....
....|..|--- .... ....|A-3 AF.F ....|C#4 ...6 ....
....|..|--- .... ....|--- .... ....|D-4 ...8 ....
....|..|--- .... ....|--- .... ....|--- .... ....
....|..|--- .... ....|--- .... ....|G-3 ...6 ....
 E-2|..|--- .... ....|E-1 7A.. ....|C#4 ...8 ....
....|..|--- .... ....|--- .... ....|--- .... ....
....|..|--- .... ....|--- .... ....|D-4 ...6 ....
....|..|--- .... ....|--- .... ....|G-3 ...8 ....
....|..|--- .... ....|A-3 AF.F ....|--- .... ....
....|..|--- .... ....|--- .... ....|C#4 ...6 ....
....|..|--- .... ....|--- .... ....|D-4 ...8 ....
....|..|--- .... ....|--- .... ....|--- .... ....
 E-2|..|--- .... ....|E-1 7A.. ....|G-3 ...6 ....
....|..|--- .... ....|--- .... ....|C#4 ...8 ....
....|..|--- .... ....|--- .... ....|--- .... ....
....|..|--- .... ....|--- .... ....|D-4 ...6 ....
....|..|--- .... ....|A-3 AF.F ....|G-3 ...8 ....
....|..|--- .... ....|--- .... ....|--- .... ....
....|..|--- .... ....|--- .... ....|C#4 ...6 ....
....|..|--- .... ....|--- .... ....|D-4 ...8 ....
 E-2|..|--- .... 11.1|E-1 7A.. ....|--- .... ....
....|..|--- .... ....|--- .... ....|G-3 ...6 ....
....|..|--- .... ....|--- .... ....|C#4 ...8 ....
....|..|--- .... ....|--- .... ....|--- .... ....

[Pattern41]
....|..|F#2 GF5B ....|A-3 AF.F ....|D-4 1FA8 ....
....|..|--- .... ....|--- .... ....|--- .... ....
....|..|--- .... ....|--- .... ....|F#3 ...6 ....
....|..|--- .... ....|--- .... ....|C#4 ...8 ....
 D-3|..|--- .... ....|D-2 7A.. ....|--- .... ....
....|..|--- .... ....|--- .... ....|D-4 ...6 ....
....|..|--- .... ....|C#4 EF.. ....|F#3 ...8 ....
....|..|--- .... ....|--- .... ....|--- .... ....
....|..|--- .... ....|A-3 AF.F ....|C#4 ...6 ....
....|..|--- .... ....|--- .... ....|D-4 ...8 ....
....|..|--- .... ....|A-2 L... ....|--- .... ....
....|..|--- .... ....|--- .... ....|F#3 ...6 ....
 D-3|..|--- .... ....|D-2 7A.. ....|C#4 ...8 ....
....|..|--- .... ....|--- .... ....|--- .... ....
 D-3|..|--- .... ....|--- .... ....|D-2 .A.B ....
....|..|--- .... ....|--- .... ....|R-- .... ....
 D-3|..|--- .... ....|A-3 AF.F ....|D-2 .A.B ....
....|..|--- .... ....|--- .... ....|R-- .... ....
....|..|--- .... ....|A-3 V... ....|--- ...C ....
....|..|--- .... ....|--- .... ....|--- .... ....
 D-1|..|--- .... ....|D-2 7A.. ....|D-1 .C.B ....
....|..|--- .... ....|--- .... ....|R-- .... ....
 D-3|..|--- .... ....|--- .... ....|D-2 .A.B ....
....|..|--- .... ....|--- .... ....|R-- .... ....
....|..|--- .... ....|A-3 AF.F ....|--- ...C ....
....|..|--- .... ....|--- .... ....|--- .... ....
....|..|--- .... ....|--- .... ....|--- ...B ....
....|..|--- .... ....|--- .... ....|--- .... ....
 D-3|..|--- .... ....|D-2 7A.. ....|D-4 .F9C ....
....|..|--- .... ....|--- .... ....|--- .... ....
....|..|--- .... ....|--- .... ....|--- ...B ....
....|..|--- .... ....|--- .... ....|--- .... ....
....|..|--- .... ....|A-3 AF.F ....|D-4 1FA8 ....
....|..|--- .... ....|--- .... ....|--- .... ....
....|..|--- .... ....|--- .... ....|F#3 ...6 ....
....|..|--- .... ....|--- .... ....|C#4 ...8 ....
 D-3|..|--- .... ....|D-2 7A.. ....|--- .... ....
....|..|--- .... ....|--- .... ....|D-4 ...6 ....
....|..|--- .... ....|C#4 EF.. ....|F#3 ...8 ....
....|..|--- .... ....|--- .... ....|--- .... ....
....|..|--- .... ....|A-3 AF.F ....|C#4 ...6 ....
....|..|--- .... ....|--- .... ....|D-4 ...8 ....
....|..|--- .... ....|--- .... ....|--- .... ....
....|..|--- .... ....|--- .... ....|F#3 ...6 ....
 D-3|..|--- .... ....|D-2 7A.. ....|C#4 ...8 ....
....|..|--- .... ....|--- .... ....|--- .... ....
....|..|--- .... ....|--- .... ....|D-4 ...6 ....
....|..|--- .... ....|--- .... ....|F#3 ...8 ....
....|..|--- .... ....|A-3 AF.F ....|--- .... ....
....|..|--- .... ....|--- .... ....|C#4 ...6 ....
....|..|--- .... ....|G#8 J... ....|D-4 ...8 ....
....|..|--- .... ....|--- .... ....|--- .... ....
 D-3|..|--- .... ....|D-2 7A.. ....|F#3 ...6 ....
....|..|--- .... ....|--- .... ....|C#4 ...8 ....
....|..|--- .... ....|--- .... ....|--- .... ....
....|..|--- .... ....|--- .... ....|D-4 ...6 ....
....|..|--- .... ....|A-3 AF.F ....|F#3 ...8 ....
....|..|--- .... ....|--- .... ....|--- .... ....
....|..|--- .... ....|--- .... ....|C#4 ...6 ....
....|..|--- .... ....|--- .... ....|D-4 ...8 ....
 D-3|..|--- .... 21.1|D-2 7A.. ....|--- .... ....
....|..|--- .... ....|--- .... ....|F#3 ...6 ....
....|..|--- .... ....|--- .... ....|C#4 ...8 ....
....|..|--- .... ....|--- .... ....|--- .... ....

[Pattern42]
....|..|A-2 DF.F ....|A-3 AF.F ....|D-4 1FA8 ....
....|..|--- .... ....|--- .... ....|--- .... ....
....|..|A-2 L..B ....|B-3 GF3B ....|B-3 ...6 ....
....|..|--- .... ....|--- .... ....|C#4 ...8 ....
 B-2|..|A-2 K..B ....|B-1 7A.F ....|--- .... ....
....|..|--- .... ....|--- .... ....|D-4 ...6 ....
....|..|A-2 D..F ....|B-3 GF3B ....|B-3 ...8 ....
....|..|--- .... ....|--- .... ....|--- .... ....
....|..|A-2 L..B ....|A-3 AF.F ....|C#4 ...6 ....
....|..|--- .... ....|--- .... ....|D-4 ...8 ....
....|..|--- ...F ....|B-3 GF3B ....|--- .... ....
....|..|--- .... ....|--- .... ....|B-3 ...6 ....
 B-2|..|A-2 K..F ....|B-1 7A.F ....|C#4 ...8 ....
....|..|A-2 L... ....|--- .... ....|--- .... ....
 B-2|..|A-2 K..B ....|B-3 GF3B ....|B-1 .A.B ....
....|..|A-2 L... ....|--- .... ....|R-- .... ....
 B-2|..|A-2 D..B ....|A-3 AF.F ....|B-1 .A.B ....
....|..|--- .... ....|--- .... ....|R-- .... ....
....|..|C#3 E..F ....|B-3 GF3B ....|--- ...C ....
....|..|--- .... ....|--- .... ....|--- .... ....
 B-2|..|A-2 A..B ....|B-1 7A.F ....|B-1 .C.B ....
....|..|--- .... ....|--- .... ....|R-- .... ....
 B-3|..|A-2 L..F ....|B-3 GF3B ....|B-1 .A.B ....
....|..|--- .... ....|--- .... ....|R-- .... ....
....|..|C#3 E..F ....|A-3 AF.F ....|--- ...C ....
....|..|--- .... ....|--- .... ....|--- .... ....
....|..|--- ...B ....|B-3 GF3B ....|--- ...B ....
....|..|--- .... ....|--- .... ....|--- .... ....
 B-2|..|A-2 K..B ....|B-1 7A.F ....|B-3 .F9C ....
....|..|--- .... ....|--- .... ....|--- .... ....
....|..|A-2 L..F ....|B-3 GF3B ....|--- ...B ....
....|..|--- .... ....|--- .... ....|--- .... ....
....|..|A-2 DF.F ....|A-3 AF.F ....|D-4 1FA8 ....
....|..|--- .... ....|--- .... ....|--- .... ....
....|..|A-2 L..B ....|B-3 GF3B ....|B-3 ...6 ....
....|..|--- .... ....|--- .... ....|C#4 ...8 ....
 B-2|..|A-2 K..B ....|B-1 7A.F ....|--- .... ....
....|..|--- .... ....|--- .... ....|D-4 ...6 ....
....|..|A-2 D..F ....|B-3 GF3B ....|B-3 ...8 ....
....|..|--- .... ....|--- .... ....|--- .... ....
....|..|A-2 L..B ....|A-3 AF.F ....|C#4 ...6 ....
....|..|--- .... ....|--- .... ....|D-4 ...8 ....
....|..|--- ...F ....|B-3 GF3B ....|--- .... ....
....|..|--- .... ....|--- .... ....|B-3 ...6 ....
 B-2|..|A-2 K..F ....|B-1 7A.F ....|C#4 ...8 ....
....|..|A-2 L... ....|--- .... ....|--- .... ....
....|..|A-2 K..B ....|B-3 GF3B ....|D-4 ...6 ....
....|..|A-2 L... ....|--- .... ....|B-3 ...8 ....
....|..|A-2 D..B ....|A-3 AF.F ....|--- .... ....
....|..|--- .... ....|--- .... ....|C#4 ...6 ....
....|..|C#3 E..F ....|B-3 GF3B ....|D-4 ...8 ....
....|..|--- .... ....|--- .... ....|--- .... ....
 B-2|..|A-2 A..B ....|B-1 7A.F ....|B-3 ...6 ....
....|..|--- .... ....|--- .... ....|C#4 ...8 ....
....|..|A-2 L..F ....|B-3 GF3B ....|--- .... ....
....|..|--- .... ....|--- .... ....|D-4 ...6 ....
....|..|C#3 E..F ....|A-3 AF.F ....|B-3 ...8 ....
....|..|--- .... ....|--- .... ....|--- .... ....
....|..|--- ...B ....|B-3 GF3B ....|C#4 ...6 ....
....|..|--- .... ....|--- .... ....|D-4 ...8 ....
 B-2|..|A-2 K..B ....|B-1 7A.F ....|--- .... ....
....|..|--- .... ....|--- .... ....|B-3 ...6 ....
....|..|A-2 L..F ....|B-3 GF3B ....|C#4 ...8 ....
....|..|--- .... ....|--- .... ....|--- .... ....

[Pattern43]
....|..|A-2 DF.F ....|A-3 AF.F ....|D-4 1FA8 ....
....|..|--- .... ....|--- .... ....|--- .... ....
....|..|A-2 L..B ....|B-3 GF8B ....|G-3 ...6 ....
....|..|--- .... ....|--- .... ....|C#4 ...8 ....
 G-2|..|A-2 K..B ....|G-1 7A.F ....|--- .... ....
....|..|--- .... ....|--- .... ....|D-4 ...6 ....
....|..|A-2 D..F ....|B-3 GF8B ....|G-3 ...8 ....
....|..|--- .... ....|--- .... ....|--- .... ....
....|..|A-2 L..B ....|A-3 AF.F ....|C#4 ...6 ....
....|..|--- .... ....|--- .... ....|D-4 ...8 ....
....|..|--- ...F ....|B-3 GF8B ....|--- .... ....
....|..|--- .... ....|--- .... ....|G-3 ...6 ....
 G-2|..|A-2 K..F ....|G-1 7A.F ....|C#4 ...8 ....
....|..|A-2 L... ....|--- .... ....|--- .... ....
 G-3|..|A-2 K..B ....|B-3 GF8B ....|G-2 .A.B ....
....|..|A-2 L... ....|--- .... ....|R-- .... ....
 G-3|..|A-2 D..B ....|A-3 AF.F ....|G-2 .A.B ....
....|..|--- .... ....|--- .... ....|R-- .... ....
....|..|C#3 E..F ....|B-3 GF8B ....|--- ...C ....
....|..|--- .... ....|--- .... ....|--- .... ....
 G-1|..|A-2 A..B ....|G-1 7A.F ....|G-1 .C.B ....
....|..|--- .... ....|--- .... ....|R-- .... ....
 G-2|..|A-2 L..F ....|B-3 GF8B ....|G-1 .A.B ....
....|..|--- .... ....|--- .... ....|R-- .... ....
....|..|C#3 E..F ....|A-3 AF.F ....|--- ...C ....
....|..|--- .... ....|--- .... ....|--- .... ....
....|..|--- ...B ....|B-3 GF8B ....|--- ...B ....
....|..|--- .... ....|--- .... ....|--- .... ....
 G-2|..|A-2 K..B ....|G-1 7A.F ....|G-3 .F9C ....
....|..|--- .... ....|--- .... ....|--- .... ....
....|..|A-2 L..F ....|B-3 GF8B ....|--- ...B ....
....|..|--- .... ....|--- .... ....|--- .... ....
....|..|A-2 DF.F ....|A-3 AF.F ....|D-4 1FA8 ....
....|..|--- .... ....|--- .... ....|--- .... ....
....|..|A-2 L..B ....|B-3 GF8B ....|G-3 ...6 ....
....|..|--- .... ....|--- .... ....|C#4 ...8 ....
 G-2|..|A-2 K..B ....|G-1 7A.F ....|--- .... ....
....|..|--- .... ....|--- .... ....|D-4 ...6 ....
....|..|A-2 D..F ....|B-3 GF8B ....|G-3 ...8 ....
....|..|--- .... ....|--- .... ....|--- .... ....
....|..|A-2 L..B ....|A-3 AF.F ....|C#4 ...6 ....
....|..|--- .... ....|--- .... ....|D-4 ...8 ....
....|..|--- ...F ....|B-3 GF8B ....|--- .... ....
....|..|--- .... ....|--- .... ....|G-3 ...6 ....
 G-2|..|A-2 K..F ....|G-1 7A.F ....|C#4 ...8 ....
....|..|A-2 L... ....|--- .... ....|--- .... ....
....|..|A-2 K..B ....|B-3 GF8B ....|D-4 ...6 ....
....|..|A-2 L... ....|--- .... ....|G-3 ...8 ....
....|..|A-2 D..B ....|A-3 AF.F ....|--- .... ....
....|..|--- .... ....|--- .... ....|C#4 ...6 ....
....|..|C#3 E..F ....|B-3 GF8B ....|D-4 ...8 ....
....|..|--- .... ....|--- .... ....|--- .... ....
 G-2|..|A-2 A..B ....|G-1 7A.F ....|G-3 ...6 ....
....|..|--- .... ....|--- .... ....|C#4 ...8 ....
....|..|A-2 L..F ....|B-3 GF8B ....|--- .... ....
....|..|--- .... ....|--- .... ....|D-4 ...6 ....
....|..|C#3 E..F ....|A-3 AF.F ....|G-3 ...8 ....
....|..|--- .... ....|--- .... ....|--- .... ....
....|..|--- ...B ....|B-3 GF8B ....|C#4 ...6 ....
....|..|--- .... ....|--- .... ....|D-4 ...8 ....
 G-2|..|A-2 K..B ....|G-1 7A.F ....|--- .... ....
....|..|--- .... ....|--- .... ....|G-3 ...6 ....
....|..|A-2 L..F ....|B-3 GF8B ....|C#4 ...8 ....
....|..|--- .... ....|--- .... ....|--- .... ....

[Pattern44]
....|..|A-2 DF.F ....|A-3 AF.F ....|D-4 1FA8 ....
....|..|--- .... ....|--- .... ....|--- .... ....
....|..|A-2 L..B ....|G-3 GF4B ....|G-3 ...6 ....
....|..|--- .... ....|--- .... ....|C#4 ...8 ....
 E-2|..|A-2 K..B ....|E-1 7A.F ....|--- .... ....
....|..|--- .... ....|--- .... ....|D-4 ...6 ....
....|..|A-2 D..F ....|G-3 GF4B ....|G-3 ...8 ....
....|..|--- .... ....|--- .... ....|--- .... ....
....|..|A-2 L..B ....|A-3 AF.F ....|C#4 ...6 ....
....|..|--- .... ....|--- .... ....|D-4 ...8 ....
....|..|--- ...F ....|G-3 GF4B ....|--- .... ....
....|..|--- .... ....|--- .... ....|G-3 ...6 ....
 E-2|..|A-2 K..F ....|E-1 7A.F ....|C#4 ...8 ....
....|..|A-2 L... ....|--- .... ....|--- .... ....
 E-2|..|A-2 K..B ....|G-3 GF4B ....|E-1 .A.B ....
....|..|A-2 L... ....|--- .... ....|R-- .... ....
 E-2|..|A-2 D..B ....|A-3 AF.F ....|E-1 .A.B ....
....|..|--- .... ....|--- .... ....|R-- .... ....
....|..|C#3 E..F ....|G-3 GF4B ....|--- ...C ....
....|..|--- .... ....|--- .... ....|--- .... ....
 E-1|..|A-2 A..B ....|E-1 7A.F ....|E-1 .C.B ....
....|..|--- .... ....|--- .... ....|R-- .... ....
 E-2|..|A-2 L..F ....|G-3 GF4B ....|E-1 .A.B ....
....|..|--- .... ....|--- .... ....|R-- .... ....
....|..|C#3 E..F ....|A-3 AF.F ....|--- ...C ....
....|..|--- .... ....|--- .... ....|--- .... ....
....|..|--- ...B ....|G-3 GF4B ....|--- ...B ....
....|..|--- .... ....|--- .... ....|--- .... ....
 E-2|..|A-2 K..B ....|E-1 7A.F ....|E-4 .F9C ....
....|..|--- .... ....|--- .... ....|--- .... ....
....|..|A-2 L..F ....|G-3 GF4B ....|--- ...B ....
....|..|--- .... ....|--- .... ....|--- .... ....
....|..|A-2 DF.F ....|A-3 AF.F ....|D-4 1FA8 ....
....|..|--- .... ....|--- .... ....|--- .... ....
....|..|A-2 L..B ....|G-3 GF4B ....|G-3 ...6 ....
....|..|--- .... ....|--- .... ....|C#4 ...8 ....
 E-2|..|A-2 K..B ....|E-1 7A.F ....|--- .... ....
....|..|--- .... ....|--- .... ....|D-4 ...6 ....
....|..|A-2 D..F ....|G-3 GF4B ....|G-3 ...8 ....
....|..|--- .... ....|--- .... ....|--- .... ....
....|..|A-2 L..B ....|A-3 AF.F ....|C#4 ...6 ....
....|..|--- .... ....|--- .... ....|D-4 ...8 ....
....|..|--- ...F ....|G-3 GF4B ....|--- .... ....
....|..|--- .... ....|--- .... ....|G-3 ...6 ....
 E-2|..|A-2 K..F ....|E-1 7A.F ....|C#4 ...8 ....
....|..|A-2 L... ....|--- .... ....|--- .... ....
....|..|A-2 K..B ....|G-3 GF4B ....|D-4 ...6 ....
....|..|A-2 L... ....|--- .... ....|G-3 ...8 ....
....|..|A-2 D..B ....|A-3 AF.F ....|--- .... ....
....|..|--- .... ....|--- .... ....|C#4 ...6 ....
....|..|C#3 E..F ....|G-3 GF4B ....|D-4 ...8 ....
....|..|--- .... ....|--- .... ....|--- .... ....
 E-2|..|A-2 A..B ....|E-1 7A.F ....|G-3 ...6 ....
....|..|--- .... ....|--- .... ....|C#4 ...8 ....
....|..|A-2 L..F ....|G-3 GF4B ....|--- .... ....
....|..|--- .... ....|--- .... ....|D-4 ...6 ....
....|..|C#3 E..F ....|A-3 AF.F ....|G-3 ...8 ....
....|..|--- .... ....|--- .... ....|--- .... ....
....|..|--- ...B ....|G-3 GF4B ....|C#4 ...6 ....
....|..|--- .... ....|--- .... ....|D-4 ...8 ....
 E-2|..|A-2 K..B ....|E-1 7A.F ....|--- .... ....
....|..|--- .... ....|--- .... ....|G-3 ...6 ....
....|..|A-2 L..F ....|G-3 GF4B ....|C#4 ...8 ....
....|..|--- .... ....|--- .... ....|--- .... ....

[Pattern45]
....|..|A-2 DF.F ....|A-3 AF.F ....|D-4 1FA8 ....
....|..|--- .... ....|--- .... ....|--- .... ....
....|..|A-2 L..B ....|F#3 GF5B ....|F#3 ...6 ....
....|..|--- .... ....|--- .... ....|C#4 ...8 ....
 D-3|..|A-2 K..B ....|D-2 7A.F ....|--- .... ....
....|..|--- .... ....|--- .... ....|D-4 ...6 ....
....|..|A-2 D..F ....|F#3 GF5B ....|F#3 ...8 ....
....|..|--- .... ....|--- .... ....|--- .... ....
....|..|A-2 L..B ....|A-3 AF.F ....|C#4 ...6 ....
....|..|--- .... ....|--- .... ....|D-4 ...8 ....
....|..|--- ...F ....|F#3 GF5B ....|--- .... ....
....|..|--- .... ....|--- .... ....|F#3 ...6 ....
 D-3|..|A-2 K..F ....|D-2 7A.F ....|C#4 ...8 ....
....|..|A-2 L... ....|--- .... ....|--- .... ....
 D-3|..|A-2 K..B ....|F#3 GF5B ....|D-2 .A.B ....
....|..|A-2 L... ....|--- .... ....|R-- .... ....
 D-3|..|A-2 D..B ....|A-3 AF.F ....|D-2 .A.B ....
....|..|--- .... ....|--- .... ....|R-- .... ....
....|..|C#3 E..F ....|F#3 GF5B ....|--- ...C ....
....|..|--- .... ....|--- .... ....|--- .... ....
 D-1|..|A-2 A..B ....|D-2 7A.F ....|D-1 .C.B ....
....|..|--- .... ....|--- .... ....|R-- .... ....
 D-3|..|A-2 L..F ....|F#3 GF5B ....|D-2 .A.B ....
....|..|--- .... ....|--- .... ....|R-- .... ....
....|..|C#3 E..F ....|A-3 AF.F ....|--- ...C ....
....|..|--- .... ....|--- .... ....|--- .... ....
....|..|--- ...B ....|F#3 GF5B ....|--- ...B ....
....|..|--- .... ....|--- .... ....|--- .... ....
 D-3|..|A-2 K..B ....|D-2 7A.F ....|D-4 .F9C ....
....|..|--- .... ....|--- .... ....|--- .... ....
....|..|A-2 L..F ....|F#3 GF5B ....|--- ...B ....
....|..|--- .... ....|--- .... ....|--- .... ....
....|..|A-2 DF.F ....|A-3 AF.F ....|D-4 1FA8 ....
....|..|--- .... ....|--- .... ....|--- .... ....
....|..|A-2 L..B ....|F#3 GF5B ....|F#3 ...6 ....
....|..|--- .... ....|--- .... ....|C#4 ...8 ....
 D-3|..|A-2 K..B ....|D-2 7A.F ....|--- .... ....
....|..|--- .... ....|--- .... ....|D-4 ...6 ....
....|..|A-2 D..F ....|F#3 GF5B ....|F#3 ...8 ....
....|..|--- .... ....|--- .... ....|--- .... ....
....|..|A-2 L..B ....|A-3 AF.F ....|C#4 ...6 ....
....|..|--- .... ....|--- .... ....|D-4 ...8 ....
....|..|--- ...F ....|F#3 GF5B ....|--- .... ....
....|..|--- .... ....|--- .... ....|F#3 ...6 ....
 D-3|..|A-2 K..F ....|D-2 7A.F ....|C#4 ...8 ....
....|..|A-2 L... ....|--- .... ....|--- .... ....
....|..|A-2 K..B ....|F#3 GF5B ....|D-4 ...6 ....
....|..|A-2 L... ....|--- .... ....|F#3 ...8 ....
....|..|A-2 D..B ....|A-3 AF.F ....|--- .... ....
....|..|--- .... ....|--- .... ....|C#4 ...6 ....
....|..|C#3 E..F ....|F#3 GF5B ....|D-4 ...8 ....
....|..|--- .... ....|--- .... ....|--- .... ....
 D-3|..|A-2 A..B ....|D-2 7A.F ....|F#3 ...6 ....
....|..|--- .... ....|--- .... ....|C#4 ...8 ....
....|..|A-2 L..F ....|F#3 GF5B ....|--- .... ....
....|..|--- .... ....|--- .... ....|D-4 ...6 ....
....|..|C#3 E..F ....|A-3 AF.F ....|F#3 ...8 ....
....|..|--- .... ....|--- .... ....|--- .... ....
....|..|--- ...B ....|F#3 GF5B ....|C#4 ...6 ....
....|..|--- .... ....|--- .... ....|D-4 ...8 ....
 D-3|..|A-2 K..B ....|D-2 7A.F ....|--- .... ....
....|..|--- .... ....|--- .... ....|F#3 ...6 ....
....|..|A-2 L..F ....|F#3 GF5B ....|C#4 ...8 ....
....|..|--- .... ....|--- .... ....|--- .... ....

[Pattern46]
 B-3|..|B-2 DF.F ....|B-2 7A.. ....|A-3 DF.F ....
 B-2|..|D-1 7A.. ....|B-1 .... ....|--- .... ....
 B-3|..|B-1 9F.. ....|B-2 .A.. ....|A-3 D..F ....
 B-2|..|D-1 7A.. ....|B-1 .... ....|--- .... ....
 B-3|..|B-1 9F.. ....|B-2 .A.. ....|A-3 L..F ....
 B-2|..|D-1 7A.. ....|B-1 .... ....|--- .... ....
 B-3|..|B-1 9F.. ....|B-2 .A.. ....|A-3 D..F ....
 B-2|..|D-1 7A.. ....|B-1 .... ....|--- .... ....
 B-3|..|B-1 9F.. ....|B-2 .A.. ....|A-3 C..F ....
 B-2|..|D-1 7A.. ....|--- .... ....|--- .... ....
....|..|--- .... ....|--- .... ....|--- ...B ....
....|..|R-- .... ....|R-- .... ....|--- .... ....
....|..|--- .... ....|--- .... ....|A-3 K..F ....
....|..|--- .... ....|--- .... ....|--- .... ....
....|..|--- .... ....|--- .... ....|A-3 L..F ....
....|..|--- .... ....|--- .... ....|--- .... ....
....|..|B-2 2FBF ....|--- .... ....|A-3 K..F ....
....|..|--- .... ....|--- .... ....|--- .... ....
....|..|--- .... ....|--- .... ....|A-3 L..F ....
....|..|--- .... ....|--- .... ....|--- .... ....
....|..|--- .... ....|--- .... ....|A-3 L..F ....
....|..|--- .... ....|--- .... ....|--- .... ....
....|..|B-2 2FBB ....|--- .... ....|--- ...B ....
....|..|--- .... ....|--- .... ....|--- .... ....
....|..|--- .... ....|--- .... ....|A-3 C..F ....
....|..|--- .... ....|--- .... ....|--- .... ....
....|..|--- .... ....|--- .... ....|--- ...B ....
....|..|--- .... ....|--- .... ....|--- .... ....
....|..|B-2 ...C ....|--- .... ....|A-3 K..F ....
....|..|--- .... ....|--- .... ....|--- .... ....
....|..|--- .... ....|--- .... ....|A-3 L..F ....
....|..|--- .... ....|--- .... ....|--- .... ....
 B-3|..|B-2 DF.F ....|B-2 7A.F ....|A-3 DF.F ....
 B-2|..|D-1 7A.. ....|B-1 .... ....|--- .... ....
 B-3|..|B-1 9F.. ....|B-2 .A.. ....|A-3 D..F ....
 B-2|..|D-1 7A.. ....|B-1 .... ....|--- .... ....
 B-3|..|B-1 9F.. ....|B-2 .A.. ....|A-3 L..F ....
 B-2|..|D-1 7A.. ....|B-1 .... ....|--- .... ....
 B-3|..|B-1 9F.. ....|B-2 .A.. ....|A-3 D..F ....
 B-2|..|D-1 7A.. ....|B-1 .... ....|--- .... ....
 B-3|..|B-1 9F.. ....|B-2 .A.. ....|A-3 C..F ....
 B-2|..|D-1 7A.. ....|--- .... ....|--- .... ....
....|..|--- .... ....|--- .... ....|--- ...B ....
....|..|--- .... ....|R-- .... ....|--- .... ....
....|..|R-- .... ....|--- .... ....|A-3 K..F ....
....|..|--- .... ....|--- .... ....|--- .... ....
....|..|--- .... ....|--- .... ....|A-3 L..F ....
....|..|--- .... ....|--- .... ....|--- .... ....
....|..|B-2 2FB. ....|--- .... ....|A-3 K..F ....
....|..|--- .... ....|--- .... ....|--- .... ....
....|..|--- .... ....|--- .... ....|A-3 L..F ....
....|..|--- .... ....|--- .... ....|--- .... ....
....|..|--- .... ....|--- .... ....|A-3 L..F ....
....|..|--- .... ....|--- .... ....|--- .... ....
....|..|B-2 .... ....|--- .... ....|--- ...B ....
....|..|--- .... ....|--- .... ....|--- .... ....
....|..|--- .... ....|--- .... ....|A-3 C..F ....
....|..|--- .... ....|--- .... ....|--- .... ....
....|..|--- .... ....|--- .... ....|--- ...B ....
....|..|--- .... ....|--- .... ....|--- .... ....
....|..|B-2 .... ....|--- .... ....|A-3 K..F ....
....|..|--- .... ....|--- .... ....|--- .... ....
....|..|--- .... ....|--- .... ....|A-3 L..F ....
....|..|--- .... ....|--- .... ....|--- .... ....

[Pattern47]
 B-3|..|B-2 DF.F ....|B-2 7A.F ....|B-3 DF.F ....
 B-2|..|D-1 7A.. ....|B-1 .... ....|--- .... ....
 B-3|..|B-1 9F.. ....|B-2 .A.. ....|B-3 D..F ....
 B-2|..|D-1 7A.. ....|B-1 .... ....|--- .... ....
 B-3|..|B-1 9F.. ....|B-2 .A.. ....|B-3 L..F ....
 B-2|..|D-1 7A.. ....|B-1 .... ....|--- .... ....
 B-3|..|B-1 9F.. ....|B-2 .A.. ....|B-3 D..B ....
 B-2|..|D-1 7A.. ....|B-1 .... ....|--- .... ....
 B-3|..|B-1 9F.. ....|B-2 .A.. ....|C#4 E..F ....
 B-2|..|D-1 7A.. ....|--- .... ....|--- .... ....
....|..|--- .... ....|--- .... ....|B-3 L..B ....
....|..|R-- .... ....|R-- .... ....|--- .... ....
....|..|--- .... ....|B-3 GF3A ....|B-3 K..F ....
....|..|--- .... ....|--- .... ....|B-3 L..B ....
....|..|--- .... ....|--- .... ....|B-3 L..F ....
....|..|--- .... ....|--- .... ....|B-3 K..B ....
....|..|B-2 2FBF ....|--- .... ....|B-3 K..F ....
....|..|--- .... ....|--- .... ....|B-3 L..B ....
....|..|--- .... ....|--- .... ....|B-3 L..F ....
....|..|--- .... ....|--- .... ....|B-3 K..B ....
....|..|--- .... ....|--- .... ....|B-3 L..F ....
....|..|--- .... ....|--- .... ....|--- .... ....
....|..|B-2 2FBB ....|--- .... ....|B-3 L..B ....
....|..|--- .... ....|--- .... ....|--- .... ....
 D-4|..|D-2 7A.. ....|--- .... ....|B-3 C..F ....
....|..|--- .... ....|--- .... ....|--- .... ....
 C#4|..|C#2 .A.. ....|--- .... ....|B-3 L..B ....
....|..|--- .... ....|--- .... ....|--- .... ....
 B-3|..|B-1 .A.. ....|--- .... ....|B-3 K..F ....
....|..|--- .... ....|--- .... ....|B-3 C..B ....
....|..|--- .... ....|--- .... ....|B-3 L..F ....
....|..|--- .... ....|--- .... ....|B-3 K..B ....
 B-3|..|B-2 DF.F ....|B-2 7A.F ....|B-3 DF.F ....
 B-2|..|D-1 7A.. ....|B-1 .... ....|--- .... ....
 B-3|..|B-1 9F.. ....|B-2 .A.. ....|B-3 D..F ....
 B-2|..|D-1 7A.. ....|B-1 .... ....|--- .... ....
 B-3|..|B-1 9F.. ....|B-2 .A.. ....|B-3 L..F ....
 B-2|..|D-1 7A.. ....|B-1 .... ....|--- .... ....
 B-3|..|B-1 9F.. ....|B-2 .A.. ....|B-3 D..B ....
 B-2|..|D-1 7A.. ....|B-1 .... ....|--- .... ....
 B-3|..|B-1 9F.. ....|B-2 .A.. ....|B-3 E..F ....
 B-2|..|D-1 7A.. ....|--- .... ....|--- .... ....
....|..|--- .... ....|--- .... ....|B-3 L..B ....
....|..|--- .... ....|R-- .... ....|--- .... ....
....|..|R-- .... ....|B-3 GF8A ....|B-3 K..F ....
....|..|--- .... ....|--- .... ....|B-3 C..B ....
....|..|--- .... ....|--- .... ....|B-3 L..F ....
....|..|--- .... ....|--- .... ....|B-3 K..B ....
....|..|B-2 2FB. ....|--- .... ....|B-3 K..F ....
....|..|--- .... ....|--- .... ....|B-3 L..B ....
....|..|--- .... ....|--- .... ....|B-3 L..F ....
....|..|--- .... ....|--- .... ....|B-3 K..B ....
....|..|--- .... ....|--- .... ....|B-3 L..F ....
....|..|--- .... ....|--- .... ....|--- .... ....
....|..|B-2 .... ....|--- .... ....|B-3 L..B ....
....|..|--- .... ....|--- .... ....|--- .... ....
 D-4|..|D-2 7A.. ....|--- .... ....|B-3 B..F ....
....|..|--- .... ....|--- .... ....|--- .... ....
 C#4|..|C#2 .A.. ....|--- .... ....|B-3 L..B ....
....|..|--- .... ....|--- .... ....|--- .... ....
 G-3|..|G-1 .A.. ....|--- .... ....|B-3 K..F ....
....|..|--- .... ....|--- .... ....|B-3 B..B ....
....|..|--- .... ....|--- .... ....|B-3 L..F ....
....|..|--- .... ....|--- .... ....|B-3 K..B ....

[Pattern48]
 G-3|..|G-2 DF.F ....|G-2 7A.F ....|B-3 DF.F ....
 G-2|..|G-1 7A.. ....|G-1 .... ....|--- .... ....
 G-3|..|G-2 9F.. ....|G-2 .A.. ....|B-3 D..F ....
 G-2|..|G-1 7A.. ....|G-1 .... ....|--- .... ....
 G-3|..|G-2 9F.. ....|G-2 .A.. ....|B-3 L..F ....
 G-2|..|G-1 7A.. ....|G-1 .... ....|--- .... ....
 G-3|..|G-2 9F.. ....|G-2 .A.. ....|B-3 D..B ....
 G-2|..|G-1 7A.. ....|G-1 .... ....|--- .... ....
 G-3|..|G-2 9F.. ....|G-2 .A.. ....|C#4 E..F ....
 G-2|..|G-1 7A.. ....|--- .... ....|--- .... ....
....|..|--- .... ....|--- .... ....|B-3 L..B ....
....|..|R-- .... ....|R-- .... ....|--- .... ....
....|..|--- .... ....|G-3 GF4A ....|B-3 K..F ....
....|..|--- .... ....|--- .... ....|B-3 L..B ....
....|..|--- .... ....|--- .... ....|B-3 L..F ....
....|..|--- .... ....|--- .... ....|B-3 K..B ....
....|..|G-2 2FBF ....|--- .... ....|B-3 K..F ....
....|..|--- .... ....|--- .... ....|B-3 L..B ....
....|..|--- .... ....|--- .... ....|B-3 L..F ....
....|..|--- .... ....|--- .... ....|B-3 K..B ....
....|..|--- .... ....|--- .... ....|B-3 L..F ....
....|..|--- .... ....|--- .... ....|--- .... ....
....|..|G-2 2FBB ....|--- .... ....|B-3 L..B ....
....|..|--- .... ....|--- .... ....|--- .... ....
 C#4|..|C#2 7A.. ....|--- .... ....|B-3 C..F ....
....|..|--- .... ....|--- .... ....|--- .... ....
 B-3|..|B-1 .A.. ....|--- .... ....|B-3 L..B ....
....|..|--- .... ....|--- .... ....|--- .... ....
 G-3|..|G-1 .A.. ....|--- .... ....|B-3 K..F ....
....|..|--- .... ....|--- .... ....|B-3 C..B ....
....|..|--- .... ....|--- .... ....|B-3 L..F ....
....|..|--- .... ....|--- .... ....|B-3 K..B ....
 E-4|..|E-2 DF.F ....|E-3 7A.F ....|B-3 DF.F ....
 E-3|..|E-1 7A.. ....|E-2 .... ....|--- .... ....
 E-4|..|E-2 9F.. ....|E-3 .A.. ....|B-3 D..F ....
 E-3|..|E-1 7A.. ....|E-2 .... ....|--- .... ....
 E-4|..|E-2 9F.. ....|E-3 .A.. ....|B-3 L..F ....
 E-3|..|E-1 7A.. ....|E-2 .... ....|--- .... ....
 E-4|..|E-2 9F.. ....|E-3 .A.. ....|B-3 D..B ....
 E-3|..|E-1 7A.. ....|E-2 .... ....|--- .... ....
 E-4|..|E-2 9F.. ....|E-3 .A.. ....|B-3 E..F ....
 E-3|..|E-1 7A.. ....|--- .... ....|--- .... ....
....|..|--- .... ....|--- .... ....|B-3 L..B ....
....|..|--- .... ....|R-- .... ....|--- .... ....
....|..|R-- .... ....|F#3 GF5A ....|B-3 K..F ....
....|..|--- .... ....|--- .... ....|B-3 C..B ....
....|..|--- .... ....|--- .... ....|B-3 L..F ....
....|..|--- .... ....|--- .... ....|B-3 K..B ....
....|..|E-3 2FB. ....|--- .... ....|B-3 K..F ....
....|..|--- .... ....|--- .... ....|B-3 L..B ....
....|..|--- .... ....|--- .... ....|B-3 L..F ....
....|..|--- .... ....|--- .... ....|B-3 K..B ....
....|..|--- .... ....|--- .... ....|B-3 L..F ....
....|..|--- .... ....|--- .... ....|--- .... ....
....|..|E-3 .... ....|--- .... ....|B-3 L..B ....
....|..|--- .... ....|--- .... ....|--- .... ....
 G-4|..|G-2 7A.. ....|--- .... ....|B-3 B..F ....
....|..|--- .... ....|--- .... ....|--- .... ....
 F-4|..|F#2 .A.. ....|--- .... ....|B-3 L..B ....
....|..|--- .... ....|--- .... ....|--- .... ....
 E-4|..|E-2 .A.. ....|--- .... ....|B-3 K..F ....
....|..|--- .... ....|--- .... ....|B-3 B..B ....
....|..|--- .... ....|--- .... ....|B-3 L..F ....
....|..|--- .... ....|--- .... ....|B-3 K..B ....

[Pattern49]
 E-4|..|E-2 DF.F ....|E-3 7A.F ....|B-3 DF.F ....
 E-3|..|E-1 7A.. ....|E-2 .... ....|--- .... ....
 E-4|..|E-2 9F.. ....|E-3 .A.. ....|B-3 D..F ....
 E-3|..|E-1 7A.. ....|E-2 .... ....|--- .... ....
 E-4|..|E-2 9F.. ....|E-3 .A.. ....|B-3 L..F ....
 E-3|..|E-1 7A.. ....|E-2 .... ....|--- .... ....
 E-4|..|E-2 9F.. ....|E-3 .A.. ....|B-3 D..B ....
 E-3|..|E-1 7A.. ....|E-2 .... ....|--- .... ....
 E-4|..|E-2 9F.. ....|E-3 .A.. ....|C#4 E..F ....
 E-3|..|E-1 7A.. ....|--- .... ....|--- .... ....
....|..|--- .... ....|--- .... ....|B-3 L..B ....
....|..|R-- .... ....|R-- .... ....|--- .... ....
....|..|--- .... ....|E-4 GF3A ....|B-3 K..F ....
....|..|--- .... ....|--- .... ....|B-3 L..B ....
....|..|--- .... ....|--- .... ....|B-3 L..F ....
....|..|--- .... ....|--- .... ....|B-3 K..B ....
....|..|E-4 2FBF ....|--- .... ....|B-3 K..F ....
....|..|--- .... ....|--- .... ....|B-3 L..B ....
....|..|--- .... ....|--- .... ....|B-3 L..F ....
....|..|--- .... ....|--- .... ....|B-3 K..B ....
....|..|--- .... ....|--- .... ....|B-3 L..F ....
....|..|--- .... ....|--- .... ....|--- .... ....
....|..|E-4 2FBB ....|--- .... ....|B-3 L..B ....
....|..|--- .... ....|--- .... ....|--- .... ....
 C#4|..|C#2 7A.. ....|--- .... ....|B-3 C..F ....
....|..|--- .... ....|--- .... ....|--- .... ....
 D-4|..|D-2 .A.. ....|--- .... ....|B-3 L..B ....
....|..|--- .... ....|--- .... ....|--- .... ....
 E-4|..|E-2 .A.. ....|--- .... ....|B-3 K..F ....
....|..|--- .... ....|--- .... ....|B-3 C..B ....
....|..|--- .... ....|--- .... ....|B-3 L..F ....
....|..|--- .... ....|--- .... ....|B-3 K..B ....
 D-4|..|D-2 DF.F ....|D-3 7A.F ....|B-3 DF.F ....
 D-3|..|D-1 7A.. ....|D-2 .... ....|--- .... ....
 D-4|..|D-2 9F.. ....|D-3 .A.. ....|B-3 D..F ....
 D-3|..|D-1 7A.. ....|D-2 .... ....|--- .... ....
 D-4|..|D-2 9F.. ....|D-3 .A.. ....|B-3 L..F ....
 D-3|..|D-1 7A.. ....|D-2 .... ....|--- .... ....
 D-4|..|D-2 9F.. ....|D-3 .A.. ....|B-3 D..B ....
 D-3|..|D-1 7A.. ....|D-2 .... ....|--- .... ....
 D-4|..|D-2 9F.. ....|D-3 .A.. ....|B-3 E..F ....
 D-3|..|D-1 7A.. ....|--- .... ....|--- .... ....
....|..|--- .... ....|--- .... ....|B-3 L..B ....
....|..|--- .... ....|R-- .... ....|--- .... ....
....|..|R-- .... ....|B-3 GF3A ....|B-3 K..F ....
....|..|--- .... ....|--- .... ....|B-3 C..B ....
....|..|--- .... ....|--- .... ....|B-3 L..F ....
....|..|--- .... ....|--- .... ....|B-3 K..B ....
....|..|D-3 2FB. ....|--- .... ....|B-3 K..F ....
....|..|--- .... ....|--- .... ....|B-3 L..B ....
....|..|--- .... ....|--- .... ....|B-3 L..F ....
....|..|--- .... ....|--- .... ....|B-3 K..B ....
....|..|--- .... ....|--- .... ....|B-3 L..F ....
....|..|--- .... ....|--- .... ....|--- .... ....
....|..|D-3 .... ....|--- .... ....|B-3 L..B ....
....|..|--- .... ....|--- .... ....|--- .... ....
 G-3|..|G-1 7A.. ....|--- .... ....|B-3 B..F ....
....|..|--- .... ....|--- .... ....|--- .... ....
 C#4|..|C#2 .A.. ....|--- .... ....|B-3 L..B ....
....|..|--- .... ....|--- .... ....|--- .... ....
 D-4|..|D-2 .A.. ....|--- .... ....|B-3 K..F ....
....|..|--- .... ....|--- .... ....|B-3 B..B ....
....|..|--- .... ....|--- .... ....|B-3 L..F ....
....|..|--- .... ....|--- .... ....|B-3 K..B ....

[Pattern50]
 B-3|..|B-2 GF3B ....|B-3 DF.F ....|A-3 DF.F ....
....|..|--- .... ....|B-1 7F.. ....|B-1 2F.B ....
....|..|--- .... ....|B-2 9F.. ....|A-3 D..F ....
....|..|--- .... ....|B-1 7F.. ....|B-1 2F.B ....
....|..|--- .... ....|B-2 9F.. ....|A-3 L..F ....
....|..|--- .... ....|B-1 7F.. ....|B-1 2F.B ....
....|..|--- .... ....|B-2 9F.. ....|A-3 D..F ....
....|..|--- .... ....|B-1 7F.. ....|B-1 2F.B ....
 D-4|..|D-2 7A.. ....|B-2 9F.. ....|A-3 C..F ....
....|..|--- .... ....|B-1 7F.. ....|--- .... ....
....|..|--- .... ....|--- .... ....|--- ...B ....
....|..|--- .... ....|R-- .... ....|--- .... ....
....|..|--- .... ....|B-3 GF3A ....|A-3 9..F ....
....|..|--- .... ....|--- .... ....|--- .... ....
....|..|--- .... ....|--- .... ....|A-3 H..F ....
....|..|--- .... ....|--- .... ....|--- .... ....
....|..|--- .... ....|B-4 2FBB ....|A-3 K..F ....
....|..|--- .... ....|--- .... ....|--- .... ....
....|..|--- .... ....|B-3 .... ....|A-3 H..F ....
....|..|--- .... ....|--- .... ....|--- .... ....
 C#4|..|C#2 2A.. ....|B-2 .... ....|A-3 A..F ....
....|..|--- .... ....|--- .... ....|--- .... ....
....|..|--- .... ....|B-4 2FBB ....|--- ...B ....
....|..|--- .... ....|--- .... ....|--- .... ....
....|..|--- .... ....|B-3 .... ....|A-3 9..F ....
....|..|--- .... ....|--- .... ....|--- .... ....
....|..|--- .... ....|B-2 .... ....|--- ...B ....
....|..|--- .... ....|--- .... ....|--- .... ....
....|..|--- .... ....|B-4 ...C ....|A-3 K..F ....
....|..|--- .... ....|--- .... ....|--- .... ....
....|..|--- .... ....|--- .... ....|A-3 L..F ....
....|..|--- .... ....|--- .... ....|--- .... ....
 F#3|..|F#1 7A.. ....|F#4 DF.F ....|A-3 DF.F ....
....|..|--- .... ....|F#1 7F.. ....|F#2 2F.B ....
....|..|--- .... ....|F#3 9F.. ....|A-3 D..F ....
....|..|--- .... ....|F#1 7F.. ....|F#2 2F.B ....
....|..|--- .... ....|F#3 9F.. ....|A-3 L..F ....
....|..|--- .... ....|F#1 7F.. ....|F#2 2F.B ....
....|..|--- .... ....|F#3 9F.. ....|A-3 D..F ....
....|..|--- .... ....|F#1 7F.. ....|F#2 2F.B ....
....|..|--- .... ....|F#3 9F.. ....|A-3 C..F ....
....|..|--- .... ....|F#1 7F.. ....|--- .... ....
....|..|--- .... ....|--- .... ....|--- ...B ....
....|..|--- .... ....|R-- .... ....|--- .... ....
....|..|--- .... ....|B-3 GF3A ....|A-3 9..F ....
....|..|--- .... ....|--- .... ....|--- .... ....
....|..|--- .... ....|--- .... ....|A-3 H..F ....
....|..|--- .... ....|--- .... ....|--- .... ....
....|..|--- .... ....|G-4 2FBB ....|A-3 K..F ....
....|..|--- .... ....|--- .... ....|--- .... ....
....|..|--- .... ....|G-3 .... ....|A-3 H..F ....
....|..|--- .... ....|--- .... ....|--- .... ....
....|..|--- .... ....|G-2 .... ....|A-3 A..F ....
....|..|--- .... ....|--- .... ....|--- .... ....
....|..|--- .... ....|G-4 2FBB ....|--- ...B ....
....|..|--- .... ....|--- .... ....|--- .... ....
....|..|--- .... ....|G-3 .... ....|A-3 9..F ....
....|..|--- .... ....|--- .... ....|--- .... ....
....|..|--- .... ....|G-2 .... ....|--- ...B ....
....|..|--- .... ....|--- .... ....|--- .... ....
 D-4|..|D-2 .A.. ....|G-4 ...C ....|A-3 K..F ....
....|..|--- .... ....|--- .... ....|--- .... ....
 E-4|..|E-2 .A.. ....|--- .... ....|A-3 L..F ....
....|..|--- .... ....|--- .... ....|--- .... ....

[Pattern51]
 B-3|..|B-2 GF3B ....|B-3 DF.F ....|A-3 DF.F ....
....|..|--- .... ....|B-1 7F.. ....|B-1 2F.B ....
....|..|--- .... ....|B-2 9F.. ....|A-3 D..F ....
....|..|--- .... ....|B-1 7F.. ....|B-1 2F.B ....
....|..|--- .... ....|B-2 9F.. ....|A-3 L..F ....
....|..|--- .... ....|B-1 7F.. ....|B-1 2F.B ....
....|..|--- .... ....|B-2 9F.. ....|A-3 D..F ....
....|..|--- .... ....|B-1 7F.. ....|B-1 2F.B ....
 D-4|..|D-2 7A.. ....|B-2 9F.. ....|A-3 C..F ....
....|..|--- .... ....|B-1 7F.. ....|--- .... ....
....|..|--- .... ....|--- .... ....|--- ...B ....
....|..|--- .... ....|R-- .... ....|--- .... ....
....|..|--- .... ....|B-3 GF3A ....|A-3 9..F ....
....|..|--- .... ....|--- .... ....|--- .... ....
....|..|--- .... ....|--- .... ....|A-3 H..F ....
....|..|--- .... ....|--- .... ....|--- .... ....
....|..|--- .... ....|B-4 2FBB ....|A-3 K..F ....
....|..|--- .... ....|--- .... ....|--- .... ....
....|..|--- .... ....|B-3 .... ....|A-3 H..F ....
....|..|--- .... ....|--- .... ....|--- .... ....
 C#4|..|C#2 2A.. ....|B-2 .... ....|A-3 A..F ....
....|..|--- .... ....|--- .... ....|--- .... ....
....|..|--- .... ....|B-4 2FBB ....|--- ...B ....
....|..|--- .... ....|--- .... ....|--- .... ....
....|..|--- .... ....|B-3 .... ....|A-3 9..F ....
....|..|--- .... ....|--- .... ....|--- .... ....
....|..|--- .... ....|B-2 .... ....|--- ...B ....
....|..|--- .... ....|--- .... ....|--- .... ....
....|..|--- .... ....|B-4 ...C ....|A-3 K..F ....
....|..|--- .... ....|--- .... ....|--- .... ....
....|..|--- .... ....|--- .... ....|A-3 L..F ....
....|..|--- .... ....|--- .... ....|--- .... ....
 E-3|..|E-2 68.. ....|F#4 DF.F ....|A-3 DF.F ....
....|..|--- .... ....|F#1 7F.. ....|F#2 2F.B ....
....|..|--- .... ....|F#3 9F.. ....|A-3 D..F ....
....|..|--- .... ....|F#1 7F.. ....|F#2 2F.B ....
....|..|--- .... ....|F#3 9F.. ....|A-3 L..F ....
....|..|--- .... ....|F#1 7F.. ....|F#2 2F.B ....
....|..|--- .... ....|F#3 9F.. ....|A-3 D..F ....
....|..|--- .... ....|F#1 7F.. ....|F#2 2F.B ....
....|..|--- .... ....|F#3 9F.. ....|A-3 C..F ....
....|..|--- .... ....|F#1 7F.. ....|--- .... ....
....|..|--- .... ....|--- .... ....|--- ...B ....
....|..|--- .... ....|R-- .... ....|--- .... ....
....|..|--- .... ....|B-3 GF3A ....|A-3 9..F ....
....|..|--- .... ....|--- .... ....|--- .... ....
....|..|--- .... ....|--- .... ....|A-3 H..F ....
....|..|--- .... ....|--- .... ....|--- .... ....
....|..|E-1 5... ....|G-4 2FBB ....|A-3 K..F ....
....|..|--- .... ....|--- .... ....|--- .... ....
....|..|E-1 2... ....|G-3 .... ....|A-3 H..F ....
....|..|--- .... ....|--- .... ....|--- .... ....
....|..|E-2 M... ....|G-2 .... ....|A-3 A..F ....
....|..|--- .... ....|--- .... ....|--- .... ....
....|..|E-1 5... ....|G-4 2FBB ....|--- ...B ....
....|..|--- .... ....|--- .... ....|--- .... ....
....|..|E-2 4... ....|G-3 .... ....|A-3 9..F ....
....|..|--- .... ....|--- .... ....|--- .... ....
....|..|E-1 M... ....|G-2 .... ....|--- ...B ....
....|..|--- .... ....|--- .... ....|--- .... ....
 G-3|..|G-1 2A.. ....|G-4 ...C ....|A-3 K..F ....
....|..|--- .... ....|--- .... ....|--- .... ....
 G#3|..|G#1 4A.. ....|--- .... ....|A-3 L..F ....
....|..|--- .... ....|--- .... ....|--- .... ....

[Pattern52]
 B-3|..|B-2 GF3B ....|B-3 DF.F ....|A-3 DF.F ....
....|..|--- .... ....|B-1 7F.. ....|B-1 2F.B ....
....|..|--- .... ....|B-2 9F.. ....|A-3 D..F ....
....|..|--- .... ....|B-1 7F.. ....|B-1 2F.B ....
....|..|--- .... ....|B-2 9F.. ....|A-3 L..F ....
....|..|--- .... ....|B-1 7F.. ....|B-1 2F.B ....
....|..|--- .... ....|B-2 9F.. ....|A-3 D..F ....
....|..|--- .... ....|B-1 7F.. ....|B-1 2F.B ....
 D-4|..|D-2 7A.. ....|B-2 9F.. ....|A-3 C..F ....
....|..|--- .... ....|B-1 7F.. ....|--- .... ....
....|..|--- .... ....|--- .... ....|--- ...B ....
....|..|--- .... ....|R-- .... ....|--- .... ....
....|..|--- .... ....|B-3 GF3A ....|A-3 9..F ....
....|..|--- .... ....|--- .... ....|--- .... ....
....|..|--- .... ....|--- .... ....|A-3 H..F ....
....|..|--- .... ....|--- .... ....|--- .... ....
....|..|--- .... ....|B-4 2FBB ....|A-3 K..F ....
....|..|--- .... ....|--- .... ....|--- .... ....
....|..|--- .... ....|B-3 .... ....|A-3 H..F ....
....|..|--- .... ....|--- .... ....|--- .... ....
 C#4|..|C#2 2A.. ....|B-2 .... ....|A-3 A..F ....
....|..|--- .... ....|--- .... ....|--- .... ....
....|..|--- .... ....|B-4 2FBB ....|--- ...B ....
....|..|--- .... ....|--- .... ....|--- .... ....
....|..|--- .... ....|B-3 .... ....|A-3 9..F ....
....|..|--- .... ....|--- .... ....|--- .... ....
....|..|--- .... ....|B-2 .... ....|--- ...B ....
....|..|--- .... ....|--- .... ....|--- .... ....
....|..|--- .... ....|B-4 ...C ....|A-3 K..F ....
....|..|--- .... ....|--- .... ....|--- .... ....
....|..|--- .... ....|--- .... ....|A-3 L..F ....
....|..|--- .... ....|--- .... ....|--- .... ....
 A-2|..|A-1 2C.. ....|F#4 DF.F ....|A-3 DF.F ....
....|..|--- .... ....|F#1 7F.. ....|F#2 2F.B ....
....|..|--- .... ....|F#3 9F.. ....|A-3 D..F ....
....|..|--- .... ....|F#1 7F.. ....|F#2 2F.B ....
....|..|--- .... ....|F#3 9F.. ....|A-3 L..F ....
....|..|--- .... ....|F#1 7F.. ....|F#2 2F.B ....
....|..|--- .... ....|F#3 9F.. ....|A-3 D..F ....
....|..|--- .... ....|F#1 7F.. ....|F#2 2F.B ....
....|..|--- .... ....|F#3 9F.. ....|A-3 C..F ....
....|..|--- .... ....|F#1 7F.. ....|--- .... ....
....|..|--- .... ....|--- .... ....|--- ...B ....
....|..|--- .... ....|R-- .... ....|--- .... ....
....|..|--- .... ....|B-3 GF3A ....|A-3 9..F ....
....|..|--- .... ....|--- .... ....|--- .... ....
....|..|--- .... ....|--- .... ....|A-3 H..F ....
....|..|--- .... ....|--- .... ....|--- .... ....
....|..|--- .... ....|G-4 2FBB ....|A-3 K..F ....
....|..|--- .... ....|--- .... ....|--- .... ....
....|..|--- .... ....|G-3 .... ....|A-3 H..F ....
....|..|--- .... ....|--- .... ....|--- .... ....
....|..|--- .... ....|G-2 .... ....|A-3 A..F ....
....|..|--- .... ....|--- .... ....|--- .... ....
....|..|--- .... ....|G-4 2FBB ....|--- ...B ....
....|..|--- .... ....|--- .... ....|--- .... ....
....|..|--- .... ....|G-3 .... ....|A-3 9..F ....
....|..|--- .... ....|--- .... ....|--- .... ....
....|..|--- .... ....|G-2 .... ....|--- ...B ....
....|..|--- .... ....|--- .... ....|--- .... ....
 B-2|..|B-1 48.. ....|G-4 ...C ....|A-3 K..F ....
....|..|--- .... ....|--- .... ....|--- .... ....
 C#3|..|C#2 .8.. ....|--- .... ....|A-3 L..F ....
....|..|--- .... ....|--- .... ....|--- .... ....

[Pattern53]
 E-4|..|E-2 6A.F ....|E-3 DF.F ....|A-3 DF.F ....
....|..|--- .... ....|E-2 7F.. ....|E-2 2F.B ....
....|..|--- .... ....|E-3 9F.. ....|A-3 D..F ....
....|..|--- .... ....|E-2 7F.. ....|E-2 2F.B ....
....|..|--- .... ....|E-3 9F.. ....|A-3 L..F ....
....|..|--- .... ....|E-2 7F.. ....|E-2 2F.B ....
....|..|--- .... ....|E-3 9F.. ....|A-3 D..F ....
....|..|--- .... ....|E-2 7F.. ....|E-2 2F.B ....
 D-4|..|D-3 G8.. ....|E-3 9F.. ....|A-3 C..F ....
....|..|--- .... ....|E-2 7F.. ....|--- .... ....
....|..|--- .... ....|--- .... ....|--- ...B ....
....|..|--- .... ....|R-- .... ....|--- .... ....
....|..|--- .... ....|B-3 GF3A ....|A-3 9..F ....
....|..|--- .... ....|--- .... ....|--- .... ....
....|..|--- .... ....|--- .... ....|A-3 H..F ....
....|..|--- .... ....|--- .... ....|--- .... ....
....|..|--- .... ....|B-4 2FBB ....|A-3 V..F ....
....|..|--- .... ....|--- .... ....|--- .... ....
....|..|--- .... ....|B-3 .... ....|A-3 H..F ....
....|..|--- .... ....|--- .... ....|--- .... ....
 C#4|..|C#3 2C.. ....|B-2 .... ....|A-3 A..F ....
....|..|--- .... ....|--- .... ....|--- .... ....
....|..|--- .... ....|B-4 2FBB ....|--- ...B ....
....|..|--- .... ....|--- .... ....|--- .... ....
....|..|--- .... ....|B-3 .... ....|A-3 9..F ....
....|..|--- .... ....|--- .... ....|--- .... ....
....|..|--- .... ....|B-2 .... ....|--- ...B ....
....|..|--- .... ....|--- .... ....|--- .... ....
....|..|--- .... ....|B-4 ...C ....|A-3 K..F ....
....|..|--- .... ....|--- .... ....|--- .... ....
....|..|--- .... ....|--- .... ....|A-3 L..F ....
....|..|--- .... ....|--- .... ....|--- .... ....
 E-4|..|E-4 GF.C 3110|B-3 DF.F ....|A-3 DF.F ....
....|..|--- .... ....|B-1 7F.. ....|B-1 2F.B ....
....|..|--- .... ....|B-3 9F.. ....|A-3 D..F ....
....|..|--- .... ....|B-1 7F.. ....|B-1 2F.B ....
....|..|--- .... ....|B-3 9F.. ....|A-3 L..F ....
....|..|--- .... ....|B-1 7F.. ....|B-1 2F.B ....
....|..|--- .... ....|B-3 9F.. ....|A-3 D..F ....
....|..|--- .... ....|B-1 7F.. ....|B-1 2F.B ....
....|..|--- .... ....|B-3 9F.. ....|A-3 C..F ....
....|..|--- .... ....|B-1 7F.. ....|--- .... ....
....|..|--- .... ....|--- .... ....|--- ...B ....
....|..|--- .... ....|R-- .... ....|--- .... ....
....|..|--- .... ....|B-3 GF3A ....|A-3 9..F ....
....|..|--- .... ....|--- .... ....|G-1 2F.B ....
....|..|--- .... ....|--- .... ....|A-3 H..F ....
....|..|--- .... ....|--- .... ....|G-1 2F.B ....
....|..|G-4 .FAA ....|G-4 2FBB ....|A-3 V..F ....
....|..|--- .... ....|--- .... ....|G-1 2F.B ....
....|..|B-4 .... ....|G-3 .... ....|A-3 H..F ....
....|..|--- .... ....|--- .... ....|G-1 2F.B ....
....|..|C#5 .... ....|G-2 .... ....|A-3 A..F ....
....|..|--- .... ....|--- .... ....|--- .... ....
....|..|G-4 ...8 ....|G-4 2FBB ....|--- ...B ....
....|..|--- .... ....|--- .... ....|--- .... ....
....|..|B-4 .... ....|G-3 .... ....|G-2 9..F ....
....|..|--- .... ....|--- .... ....|--- .... ....
....|..|C#5 ...6 ....|G-2 .... ....|--- ...B ....
....|..|--- .... ....|--- .... ....|--- .... ....
....|..|G-4 .... ....|G-4 ...C ....|A-3 K..F ....
....|..|--- .... ....|--- .... ....|--- .... ....
....|..|B-4 .... ....|--- .... ....|A-3 L..F ....
....|..|--- .... ....|--- .... ....|--- .... ....

[Pattern54]
 B-3|..|B-2 DF.F ....|B-2 7A.F ....|A-3 DF.F ....
 B-2|..|D-1 7A.. ....|B-1 .... ....|E-2 2F.B ....
 B-3|..|B-1 9F.. ....|B-2 .A.. ....|A-3 D..F ....
 B-2|..|D-1 7A.. ....|B-1 .... ....|E-2 2F.B ....
 B-3|..|B-1 9F.. ....|B-2 .A.. ....|A-3 L..F ....
 B-2|..|D-1 7A.. ....|B-1 .... ....|E-2 2F.B ....
 B-3|..|B-1 9F.. ....|B-2 .A.. ....|A-3 D..F ....
 B-2|..|D-1 7A.. ....|B-1 .... ....|E-2 2F.B ....
 B-3|..|B-1 9F.. ....|B-2 .A.. ....|A-3 C..F ....
 B-2|..|D-1 7A.. ....|--- .... ....|--- .... ....
....|..|--- .... ....|--- .... ....|--- ...B ....
....|..|R-- .... ....|R-- .... ....|--- .... ....
....|..|--- .... ....|B-3 GF3A ....|A-3 9..F ....
....|..|--- .... ....|--- .... ....|--- .... ....
....|..|--- .... ....|C#4 EF.F ....|A-3 H..F ....
....|..|--- .... ....|--- .... ....|--- .... ....
....|..|B-2 2FBF ....|A-3 H..B ....|A-3 V..F ....
....|..|--- .... ....|--- .... ....|--- .... ....
....|..|--- .... ....|A-3 C..F ....|A-3 H..F ....
....|..|--- .... ....|--- .... ....|--- .... ....
....|..|--- .... ....|C#4 E..B ....|A-3 A..F ....
....|..|--- .... ....|--- .... ....|--- .... ....
....|..|B-2 2FBB ....|A-3 A..F ....|--- ...B ....
....|..|--- .... ....|--- .... ....|--- .... ....
 B-2|..|D-1 7A.. ....|B-1 .A.. ....|A-3 9..F ....
....|..|R-- .... ....|--- .... ....|--- .... ....
 B-2|..|D-1 .A.. ....|--- .... ....|--- ...B ....
....|..|--- .... ....|--- .... ....|--- .... ....
 B-2|..|D-1 .A.. ....|--- .... ....|A-3 K..F ....
....|..|--- .... ....|--- .... ....|--- .... ....
....|..|--- .... ....|--- .... ....|A-3 L..F ....
....|..|--- .... ....|--- .... ....|--- .... ....
 B-3|..|B-2 DF.F ....|B-2 7A.F ....|A-3 DF.F ....
 B-2|..|D-1 7A.. ....|B-1 .... ....|B-1 2F.B ....
 B-3|..|B-1 9F.. ....|B-2 .A.. ....|A-3 D..F ....
 B-2|..|D-1 7A.. ....|B-1 .... ....|B-1 2F.B ....
 B-3|..|B-1 9F.. ....|B-2 .A.. ....|A-3 L..F ....
 B-2|..|D-1 7A.. ....|B-1 .... ....|B-1 2F.B ....
 B-3|..|B-1 9F.. ....|B-2 .A.. ....|A-3 D..F ....
 B-2|..|D-1 7A.. ....|B-1 .... ....|B-1 2F.B ....
 B-3|..|B-1 9F.. ....|B-2 .A.. ....|A-3 C..F ....
 B-2|..|D-1 7A.. ....|--- .... ....|--- .... ....
....|..|--- .... ....|--- .... ....|--- ...B ....
....|..|--- .... ....|R-- .... ....|--- .... ....
....|..|R-- .... ....|B-3 GF8A ....|A-3 9..F ....
....|..|--- .... ....|--- .... ....|G-1 2F.B ....
....|..|--- .... ....|C#4 EF.F ....|A-3 H..F ....
....|..|--- .... ....|--- .... ....|G-1 2F.B ....
....|..|G-2 2FB. ....|A-3 H..B ....|A-3 V..F ....
....|..|--- .... ....|--- .... ....|G-1 2F.B ....
....|..|--- .... ....|A-3 C..F ....|A-3 H..F ....
....|..|--- .... ....|--- .... ....|G-1 2F.B ....
....|..|--- .... ....|C#4 E..B ....|A-3 A..F ....
....|..|--- .... ....|--- .... ....|--- .... ....
....|..|G-2 .... ....|A-3 A..F ....|--- ...B ....
....|..|--- .... ....|--- .... ....|--- .... ....
 G-3|..|G-1 7A.. ....|G-2 .A.. ....|G-2 9..F ....
....|..|R-- .... ....|--- .... ....|--- .... ....
 G-2|..|G-1 .A.. ....|--- .... ....|--- ...B ....
....|..|--- .... ....|--- .... ....|--- .... ....
 G-2|..|G-1 .A.. ....|--- .... ....|A-3 K..F ....
....|..|--- .... ....|--- .... ....|--- .... ....
....|..|--- .... ....|--- .... ....|A-3 L..F ....
....|..|--- .... ....|--- .... ....|--- .... ....

[Pattern55]
....|..|D-4 2F.A ....|B-3 DF.F ....|A-3 DF.F ....
 B-2|..|B-3 ...7 ....|B-1 7A.. ....|B-1 2F.B ....
....|..|C#4 ...A ....|B-2 9F.. ....|A-3 D..F ....
 B-2|..|D-4 ...7 ....|B-1 7A.. ....|B-1 2F.B ....
 B-2|..|B-3 ...A ....|B-2 9F.. ....|B-1 2A.F ....
 B-2|..|--- .... ....|B-1 7A.. ....|B-1 2F.B ....
....|..|--- .... ....|B-2 9F.. ....|A-3 D..F ....
 B-2|..|--- .... ....|B-1 7A.. ....|B-1 2F.B ....
....|..|D-4 2F.A 3110|B-2 9F.. ....|A-3 C..F ....
 B-2|..|B-3 ...7 ....|B-1 7A.. ....|--- .... ....
....|..|C#4 ...A ....|--- .... ....|--- ...B ....
....|..|D-4 ...7 ....|R-- .... ....|--- .... ....
 B-2|..|B-3 ...A ....|B-3 GF3A ....|B-1 2A.F ....
....|..|--- .... ....|--- .... ....|--- .... ....
 B-2|..|--- .... 11.1|C#4 EF.F ....|A-3 HF.F ....
....|..|--- .... ....|--- .... ....|--- .... ....
 B-2|..|D-4 2F.A 3110|A-3 H..B ....|A-3 V..F ....
....|..|B-3 ...7 ....|--- .... ....|--- .... ....
....|..|C#4 ...A ....|A-3 C..F ....|A-3 H..F ....
....|..|D-4 ...7 ....|--- .... ....|--- .... ....
 B-2|..|B-3 ...A ....|C#4 E..B ....|B-1 2A.F ....
....|..|--- .... ....|--- .... ....|--- .... ....
 B-3|..|--- .... 21.1|B-3 2FBB ....|--- ...B ....
....|..|--- .... ....|--- .... ....|--- .... ....
 B-2|..|D-4 2FAA 3110|B-1 7A.. ....|A-3 9F.F ....
....|..|B-3 ...7 ....|R-- .... ....|--- .... ....
 B-2|..|C#4 ...A ....|B-1 .A.. ....|--- ...B ....
....|..|D-4 ...7 ....|--- .... ....|--- .... ....
 B-2|..|B-3 ...A ....|B-1 .A.. 11.1|B-1 KA.F ....
....|..|--- .... ....|--- .... ....|--- .... ....
....|..|--- .... 21.1|--- .... ....|A-3 LF.F ....
....|..|--- .... ....|--- .... ....|--- .... ....
....|..|D-4 2F.A 3110|B-3 DF.F ....|A-3 DF.F ....
 B-2|..|B-3 ...7 ....|B-1 7A.. ....|B-1 2F.B ....
....|..|C#4 ...A ....|B-2 9F.. ....|A-3 D..F ....
 B-2|..|D-4 ...7 ....|B-1 7A.. ....|B-1 2F.B ....
 B-2|..|B-3 ...A ....|B-2 9F.. ....|B-1 2A.F ....
 B-2|..|--- .... ....|B-1 7A.. ....|B-1 2F.B ....
....|..|--- .... 21.2|B-2 9F.. ....|A-3 D..F ....
 B-2|..|--- .... ....|B-1 7A.. ....|B-1 2F.B ....
....|..|D-4 2F.A 3110|B-2 9F.. ....|A-3 C..F ....
 B-2|..|B-3 ...7 ....|B-1 7A.. ....|--- .... ....
....|..|C#4 ...A ....|--- .... ....|--- ...B ....
....|..|D-4 ...7 ....|R-- .... ....|--- .... ....
 B-2|..|B-3 ...A ....|B-3 GF3B ....|B-1 2A.F ....
....|..|--- .... ....|--- .... ....|--- .... ....
....|..|--- .... 11.1|--- .... ....|A-3 HF.F ....
....|..|--- .... ....|--- .... ....|--- .... ....
....|..|D-4 2F.A 3110|B-3 2FBF ....|A-3 V..F ....
....|..|B-3 ...7 ....|--- .... ....|--- .... ....
....|..|C#4 ...A ....|--- .... ....|A-3 H..F ....
....|..|D-4 ...7 ....|--- .... ....|--- .... ....
 B-2|..|B-3 ...A ....|--- .... ....|B-1 2A.F ....
....|..|--- .... ....|--- .... ....|--- .... ....
....|..|--- .... 11.2|B-3 2FBB ....|--- ...B ....
....|..|--- .... ....|--- .... ....|--- .... ....
 B-2|..|D-4 2F.A 3110|B-1 7A.. ....|A-3 9F.F ....
....|..|B-3 ...7 ....|R-- .... ....|--- .... ....
 B-2|..|C#4 ...A ....|B-1 .A.. ....|--- ...B ....
....|..|D-4 ...7 ....|--- .... ....|--- .... ....
 B-2|..|B-3 ...A ....|B-1 .A.. 21.1|B-1 KA.F ....
....|..|--- .... ....|--- .... ....|--- .... ....
....|..|--- .... 21.1|--- .... ....|A-3 LF.F ....
....|..|--- .... ....|--- .... ....|--- .... ....

[Pattern56]
....|..|D-4 2F.A ....|G-4 DF.F ....|A-3 DF.F ....
 G-2|..|A-3 ...7 ....|G-1 7A.. ....|G-1 2F.B ....
....|..|C#4 ...A ....|G-4 9F.. ....|A-3 D..F ....
 G-2|..|D-4 ...7 ....|G-1 7A.. ....|G-1 2F.B ....
 B-2|..|A-3 ...A ....|G-4 9F.. ....|B-1 2A.F ....
 G-2|..|--- .... ....|G-1 7A.. ....|G-1 2F.B ....
....|..|--- .... ....|G-4 9F.. ....|A-3 D..F ....
 G-2|..|--- .... ....|G-1 7A.. ....|G-1 2F.B ....
....|..|D-4 2FAA 3110|G-4 9F.. ....|A-3 C..F ....
 G-2|..|A-3 ...7 ....|G-1 7A.. ....|--- .... ....
....|..|C#4 ...A ....|--- .... ....|--- ...B ....
....|..|D-4 ...7 ....|R-- .... ....|--- .... ....
 G-2|..|A-3 ...A ....|B-3 GF8A ....|G-1 2A.F ....
....|..|--- .... ....|--- .... ....|--- .... ....
 B-2|..|--- .... 11.1|C#4 EF.F ....|A-3 HF.F ....
....|..|--- .... ....|--- .... ....|--- .... ....
 G-1|..|D-4 2F.A 3110|A-3 H..B ....|A-3 V..F ....
....|..|A-3 ...7 ....|--- .... ....|--- .... ....
....|..|C#4 ...A ....|A-3 C..F ....|A-3 H..F ....
....|..|D-4 ...7 ....|--- .... ....|--- .... ....
 G-2|..|A-3 ...A ....|C#4 E..B ....|G-1 2A.F ....
....|..|--- .... ....|--- .... ....|--- .... ....
 G-1|..|--- .... 21.1|G-3 2FBB ....|--- ...B ....
....|..|--- .... ....|--- .... ....|--- .... ....
 G-3|..|D-4 2F.A 3110|G-2 7A.. ....|A-3 9F.F ....
....|..|A-3 ...7 ....|R-- .... ....|--- .... ....
 G-3|..|C#4 ...A ....|G-2 .A.. ....|--- ...B ....
....|..|D-4 ...7 ....|--- .... ....|--- .... ....
 G-3|..|A-3 ...A ....|G-2 .A.. 11.1|G-1 KA.F ....
....|..|--- .... ....|--- .... ....|--- .... ....
....|..|--- .... 21.1|--- .... ....|A-3 LF.F ....
....|..|--- .... ....|--- .... ....|--- .... ....
....|..|D-4 2FAA 3110|G-3 DF.F ....|A-3 DF.F ....
 G-3|..|A-3 ...7 ....|G-2 7A.. ....|G-2 2F.B ....
....|..|C#4 ...A ....|G-3 9F.. ....|A-3 D..F ....
 G-3|..|D-4 ...7 ....|G-2 7A.. ....|G-2 2F.B ....
 G-2|..|A-3 ...A ....|G-3 9F.. ....|G-1 2A.F ....
 G-3|..|--- .... ....|G-2 7A.. ....|G-2 2F.B ....
....|..|--- .... 21.2|G-3 9F.. ....|A-3 D..F ....
 G-3|..|--- .... ....|G-2 7A.. ....|G-2 2F.B ....
....|..|D-4 2F.A 3110|G-3 9F.. ....|A-3 C..F ....
 G-2|..|A-3 ...7 ....|G-1 7A.. ....|--- .... ....
....|..|C#4 ...A ....|--- .... ....|--- ...B ....
....|..|D-4 ...7 ....|R-- .... ....|--- .... ....
 G-2|..|A-3 ...A ....|B-3 GF8B ....|G-1 2A.F ....
....|..|--- .... ....|--- .... ....|--- .... ....
....|..|--- .... 11.1|--- .... ....|A-3 HF.F ....
....|..|--- .... ....|--- .... ....|--- .... ....
....|..|D-4 2F.A 3110|G-4 2FBF ....|A-3 V..F ....
....|..|A-3 ...7 ....|--- .... ....|--- .... ....
....|..|C#4 ...A ....|--- .... ....|A-3 H..F ....
....|..|D-4 ...7 ....|--- .... ....|--- .... ....
 G-2|..|A-3 ...A ....|--- .... ....|G-1 2A.F ....
....|..|--- .... ....|--- .... ....|--- .... ....
....|..|--- .... 11.2|G-4 2FBB ....|--- ...B ....
....|..|--- .... ....|--- .... ....|--- .... ....
 G-3|..|D-4 2F.A 3110|G-2 7A.. ....|A-3 9F.F ....
....|..|A-3 ...7 ....|R-- .... ....|--- .... ....
 G-3|..|C#4 ...A ....|G-2 .A.. ....|--- ...B ....
....|..|D-4 ...7 ....|--- .... ....|--- .... ....
 G-3|..|A-3 ...A ....|G-2 .A.. 21.1|G-1 KA.F ....
....|..|--- .... ....|--- .... ....|--- .... ....
....|..|--- .... 21.1|--- .... ....|A-3 LF.F ....
....|..|--- .... ....|--- .... ....|--- .... ....

[Pattern57]
....|..|D-4 2F.A ....|G#4 DF.F ....|A-3 DF.F ....
 G#2|..|G#3 ...7 ....|G#1 7A.. ....|G#1 2F.B ....
....|..|C#4 ...A ....|G#3 9F.. ....|A-3 D..F ....
 G#2|..|D-4 ...7 ....|G#1 7A.. ....|G#1 2F.B ....
 G#2|..|G#3 ...A ....|G#3 9F.. ....|G#1 2A.F ....
 G#2|..|--- .... ....|G#1 7A.. ....|G#1 2F.B ....
....|..|--- .... ....|G#3 9F.. ....|A-3 D..F ....
 G#2|..|--- .... ....|G#1 7A.. ....|G#1 2F.B ....
....|..|D-4 2F.A 3110|G#3 9F.. ....|A-3 C..F ....
 G#2|..|G#3 ...7 ....|G#1 7A.. ....|--- .... ....
....|..|C#4 ...A ....|--- .... ....|--- ...B ....
....|..|D-4 ...7 ....|R-- .... ....|--- .... ....
 G#2|..|G#3 ...A ....|G#4 GF6A ....|G#1 2A.F ....
....|..|--- .... ....|--- .... ....|--- .... ....
 B-2|..|--- .... 11.1|C#4 EF.F ....|A-3 HF.F ....
....|..|--- .... ....|--- .... ....|--- .... ....
 B-2|..|D-4 2F.A 3110|A-3 H..B ....|A-3 V..F ....
....|..|G#3 ...7 ....|--- .... ....|--- .... ....
....|..|C#4 ...A ....|A-3 C..F ....|A-3 H..F ....
....|..|D-4 ...7 ....|--- .... ....|--- .... ....
 G#2|..|G#3 ...A ....|C#4 E..B ....|G#1 2A.F ....
....|..|--- .... ....|--- .... ....|--- .... ....
 B-3|..|--- .... 21.1|B-3 2FBB ....|--- ...B ....
....|..|--- .... ....|--- .... ....|--- .... ....
 G#3|..|D-4 2FAA 3110|G#2 7A.. ....|A-3 9F.F ....
....|..|G#3 ...7 ....|R-- .... ....|--- .... ....
 G#3|..|C#4 ...A ....|G#2 .A.. ....|--- ...B ....
....|..|D-4 ...7 ....|--- .... ....|--- .... ....
 G#3|..|G#3 ...A ....|G#2 .A.. 11.1|G#1 KA.F ....
....|..|--- .... ....|--- .... ....|--- .... ....
....|..|--- .... 21.1|--- .... ....|A-3 LF.F ....
....|..|--- .... ....|--- .... ....|--- .... ....
....|..|D-4 2F.A 3110|G#4 DF.F ....|A-3 DF.F ....
 G#2|..|G#3 ...7 ....|G#1 7A.. ....|G#1 2F.B ....
....|..|C#4 ...A ....|G#3 9F.. ....|A-3 D..F ....
 G#2|..|D-4 ...7 ....|G#1 7A.. ....|G#1 2F.B ....
 G#2|..|G#3 ...A ....|G#3 9F.. ....|G#1 2A.F ....
 G#2|..|--- .... ....|G#1 7A.. ....|G#1 2F.B ....
....|..|--- .... 21.2|G#3 9F.. ....|A-3 D..F ....
 G#2|..|--- .... ....|G#1 7A.. ....|G#1 2F.B ....
....|..|D-4 2F.A 3110|G#3 9F.. ....|A-3 C..F ....
 G#2|..|G#3 ...7 ....|G#1 7A.. ....|--- .... ....
....|..|C#4 ...A ....|--- .... ....|--- ...B ....
....|..|D-4 ...7 ....|R-- .... ....|--- .... ....
 G#2|..|G#3 ...A ....|G#3 GF6B ....|G#1 2A.F ....
....|..|--- .... ....|--- .... ....|--- .... ....
....|..|--- .... 11.1|--- .... ....|A-3 HF.F ....
....|..|--- .... ....|--- .... ....|--- .... ....
....|..|D-4 2F.A 3110|G#4 2FBF ....|A-3 V..F ....
....|..|G#3 ...7 ....|--- .... ....|--- .... ....
....|..|C#4 ...A ....|--- .... ....|A-3 H..F ....
....|..|D-4 ...7 ....|--- .... ....|--- .... ....
 G#2|..|G#3 ...A ....|--- .... ....|G#1 2A.F ....
....|..|--- .... ....|--- .... ....|--- .... ....
....|..|--- .... 11.2|G#4 2FBB ....|--- ...B ....
....|..|--- .... ....|--- .... ....|--- .... ....
 G#3|..|D-4 2F.A 3110|G#2 7A.. ....|A-3 9F.F ....
....|..|G#3 ...7 ....|R-- .... ....|--- .... ....
 G#3|..|C#4 ...A ....|G#2 .A.. ....|--- ...B ....
....|..|D-4 ...7 ....|--- .... ....|--- .... ....
 G#3|..|G#3 ...A ....|G#2 .A.. 21.1|G#1 KA.F ....
....|..|--- .... ....|--- .... ....|--- .... ....
....|..|--- .... 21.1|--- .... ....|A-3 LF.F ....
....|..|--- .... ....|--- .... ....|--- .... ....

[Pattern58]
....|..|D-4 2F.A ....|G-4 DF.F ....|A-3 DF.F ....
 G-2|..|G-3 ...7 ....|G-1 7A.. ....|G-2 2F.B ....
....|..|C#4 ...A ....|G-4 9F.. ....|A-3 D..F ....
 G-2|..|D-4 ...7 ....|G-1 7A.. ....|G-1 2F.B ....
 G-2|..|G-3 ...A ....|G-4 9F.. ....|G-1 2A.F ....
 G-2|..|--- .... ....|G-1 7A.. ....|G-1 2F.B ....
....|..|--- .... ....|G-4 9F.. ....|A-3 D..F ....
 G-2|..|--- .... ....|G-1 7A.. ....|G-1 2F.B ....
....|..|D-4 2F.A 3110|G-4 9F.. ....|A-3 C..F ....
 G-2|..|G-3 ...7 ....|G-1 7A.. ....|--- .... ....
....|..|C#4 ...A ....|--- .... ....|--- ...B ....
....|..|D-4 ...7 ....|R-- .... ....|--- .... ....
 G-2|..|G-3 ...A ....|G-4 GF4A ....|G-1 2A.F ....
....|..|--- .... ....|--- .... ....|--- .... ....
 B-2|..|--- .... 11.1|C#4 EF.F ....|A-3 HF.F ....
....|..|--- .... ....|--- .... ....|--- .... ....
 B-2|..|D-4 2F.A 3110|A-3 H..B ....|A-3 V..F ....
....|..|G-3 ...7 ....|--- .... ....|--- .... ....
....|..|C#4 ...A ....|A-3 C..F ....|A-3 H..F ....
....|..|D-4 ...7 ....|--- .... ....|--- .... ....
 G-2|..|G-3 ...A ....|C#4 E..B ....|G-1 2A.F ....
....|..|--- .... ....|--- .... ....|--- .... ....
 B-3|..|--- .... 21.1|G-4 2FBB ....|--- ...B ....
....|..|--- .... ....|--- .... ....|--- .... ....
 G-3|..|D-4 2F.A 3110|G-2 7A.. ....|A-3 9F.F ....
....|..|G-3 ...7 ....|R-- .... ....|--- .... ....
 G-4|..|C#4 ...A ....|G-3 .A.. ....|--- ...B ....
....|..|D-4 ...7 ....|--- .... ....|--- .... ....
 G-2|..|G-3 ...A ....|G-2 .A.. 11.1|G-1 KA.F ....
....|..|--- .... ....|--- .... ....|--- .... ....
....|..|--- .... 21.1|--- .... ....|A-3 LF.F ....
....|..|--- .... ....|--- .... ....|--- .... ....
....|..|D-4 2F.A 3110|B-3 DF.F ....|A-3 DF.F ....
 G-3|..|G-3 ...7 ....|G-2 7A.. ....|G-2 2F.B ....
....|..|C#4 ...A ....|B-2 9F.. ....|A-3 D..F ....
 G-3|..|D-4 ...7 ....|G-2 7A.. ....|G-1 2F.B ....
 G-2|..|G-3 ...A ....|B-2 9F.. ....|G-1 2A.F ....
 G-3|..|--- .... ....|G-2 7A.. ....|G-1 2F.B ....
....|..|--- .... 21.2|B-2 9F.. ....|A-3 D..F ....
 G-3|..|--- .... ....|G-2 7A.. ....|G-1 2F.B ....
....|..|D-4 2F.A 3110|B-2 9F.. ....|A-3 C..F ....
 G-3|..|G-3 ...7 ....|G-2 7A.. ....|--- .... ....
....|..|C#4 ...A ....|--- .... ....|--- ...B ....
....|..|D-4 ...7 ....|R-- .... ....|--- .... ....
 G-2|..|G-3 ...A ....|G-4 GF4B ....|G-1 2A.F ....
....|..|--- .... ....|--- .... ....|--- .... ....
....|..|--- .... 11.1|--- .... ....|A-3 HF.F ....
....|..|--- .... ....|--- .... ....|--- .... ....
....|..|D-4 2F.A 3110|G-4 2FBF ....|A-3 V..F ....
....|..|G-3 ...7 ....|--- .... ....|--- .... ....
....|..|C#4 ...A ....|--- .... ....|A-3 H..F ....
....|..|D-4 ...7 ....|--- .... ....|--- .... ....
 G-2|..|G-3 ...A ....|--- .... ....|G-1 2A.F ....
....|..|--- .... ....|--- .... ....|--- .... ....
....|..|--- .... 11.2|G-4 2FBB ....|--- ...B ....
....|..|--- .... ....|--- .... ....|--- .... ....
 G-2|..|D-4 2F.A 3110|G-1 7A.. ....|A-3 9F.F ....
....|..|G-3 ...7 ....|R-- .... ....|--- .... ....
 G-3|..|C#4 ...A ....|G-2 .A.. ....|--- ...B ....
....|..|D-4 ...7 ....|--- .... ....|--- .... ....
 G-2|..|G-3 ...A ....|G-1 .A.. 21.1|G-1 KA.F ....
....|..|--- .... ....|--- .... ....|--- .... ....
....|..|--- .... 21.1|--- .... ....|A-3 LF.F ....
....|..|--- .... ....|--- .... ....|--- .... ....

[Pattern59]
....|..|--- .... ....|--- .... ....|--- .... ....
....|..|--- .... ....|--- .... ....|--- .... ....
....|..|--- .... ....|--- .... ....|--- .... ....
....|..|--- .... ....|--- .... ....|--- .... ....
....|..|--- .... ....|--- .... ....|--- .... ....
....|..|--- .... ....|--- .... ....|--- .... ....
....|..|--- .... ....|--- .... ....|--- .... ....
....|..|--- .... ....|--- .... ....|--- .... ....
....|..|--- .... ....|--- .... ....|--- .... ....
....|..|--- .... ....|--- .... ....|--- .... ....
....|..|--- .... ....|--- .... ....|--- .... ....
....|..|--- .... ....|--- .... ....|--- .... ....
....|..|--- .... ....|--- .... ....|--- .... ....
....|..|--- .... ....|--- .... ....|--- .... ....
....|..|--- .... ....|--- .... ....|--- .... ....
....|..|--- .... ....|--- .... ....|--- .... ....

[Pattern60]
....|..|--- .... ....|A-3 1F3C ....|A-5 1F.F ....
....|..|--- .... ....|--- .... ....|--- .... ....
....|..|--- .... ....|--- .... ....|--- .... ....
....|..|A-5 1F.C ....|A-3 .... ....|--- .... 11.1
....|..|--- .... ....|--- .... ....|--- .... ....
....|..|--- .... ....|--- .... ....|A-5 ...A ....
....|..|--- .... 11.1|A-3 .... ....|--- .... 11.1
....|..|--- .... ....|--- .... ....|A-5 ...8 ....
....|..|A-5 .... ....|--- .... ....|--- .... ....
....|..|--- .... 11.1|--- .... ....|--- .... 11.1
....|..|A-5 .... ....|A-3 .... ....|--- .... ....
....|..|--- .... ....|--- .... ....|C-6 1..F ....
....|..|--- .... 11.1|--- .... ....|B-5 2... 31.1
....|..|--- .... ....|--- .... ....|--- .... ....
....|..|C-6 .... ....|--- .... ....|A-5 .... ....
....|..|B-5 .... 31.1|--- .... ....|--- .... ....
....|..|--- .... ....|A-3 .... ....|B-5 3... 31.2
....|..|A-5 .... ....|--- .... ....|--- .... ....
....|..|--- .... ....|--- .... ....|--- .... ....
....|..|B-5 3... 31.2|A-3 .... ....|--- .... ....
....|..|--- .... ....|--- .... ....|--- .... ....
....|..|--- .... ....|--- .... ....|--- .... ....
....|..|--- .... ....|A-3 .... ....|--- .... ....
....|..|--- .... ....|--- .... ....|--- .... ....
....|..|--- .... ....|--- .... ....|--- .... ....
....|..|--- .... ....|--- .... ....|--- .... ....
....|..|--- .... ....|A-3 .... ....|E-5 2... ....
....|..|--- .... ....|--- .... ....|--- .... ....
....|..|--- .... ....|--- .... ....|C-6 .... ....
....|..|E-5 2... ....|A-3 .... ....|--- .... ....
....|..|--- .... ....|--- .... ....|--- .... 11.1
....|..|C-6 .... ....|--- .... ....|--- .... ....
....|..|--- .... ....|E-3 1F4. ....|B-5 .... ....
....|..|--- .... 11.1|--- .... ....|--- .... ....
....|..|--- .... ....|--- .... ....|--- .... ....
....|..|B-5 .... ....|E-3 .... ....|G-5 1... ....
....|..|--- .... ....|--- .... ....|G-5 3... ....
....|..|--- .... ....|--- .... ....|--- .... ....
....|..|G-5 1... ....|E-3 .... ....|E-5 1... ....
....|..|G-5 3... ....|--- .... ....|--- .... ....
....|..|--- .... ....|--- .... ....|--- .... ....
....|..|E-5 1... ....|--- .... ....|--- .... ....
....|..|--- .... ....|E-3 .... ....|--- .... ....
....|..|--- .... ....|--- .... ....|--- .... ....
....|..|--- .... ....|--- .... ....|--- .... ....
....|..|--- .... ....|E-3 .... ....|--- .... ....
....|..|--- .... ....|--- .... ....|--- .... ....
....|..|--- .... ....|--- .... ....|--- .... ....
....|..|--- .... ....|E-3 .... ....|E-5 3... ....
....|..|--- .... ....|--- .... ....|--- .... ....
....|..|--- .... ....|--- .... ....|--- .... ....
....|..|--- .... ....|E-3 .... ....|--- .... ....
....|..|--- .... ....|--- .... ....|--- ...C ....
....|..|--- .... ....|--- .... ....|--- .... ....
....|..|--- .... ....|E-3 .... ....|--- .... ....
....|..|--- ...6 ....|--- .... ....|--- .... ....
....|..|--- .... ....|--- .... ....|--- .... ....
....|..|--- .... ....|--- .... ....|--- .... ....
....|..|--- .... ....|E-3 .... ....|--- .... 11.1
....|..|--- .... ....|--- .... ....|--- .... ....
....|..|--- .... ....|--- .... ....|--- .... ....
....|..|--- .... 11.1|E-3 .... ....|--- .... ....
....|..|--- .... ....|--- .... ....|--- .... ....
....|..|--- .... ....|--- .... ....|--- .... ....

[Pattern61]
....|..|--- .... ....|F-3 1F4. ....|F-5 1F.F ....
....|..|--- .... ....|--- .... ....|--- .... ....
....|..|--- .... ....|--- .... ....|--- .... ....
....|..|F-5 1F.C ....|F-3 .... ....|E-5 .... ....
....|..|--- .... ....|--- .... ....|--- .... ....
....|..|--- .... ....|--- .... ....|--- .... ....
....|..|E-5 .... ....|F-3 .... ....|C-5 .... ....
....|..|--- .... ....|--- .... ....|--- .... ....
....|..|--- .... ....|--- .... ....|--- .... ....
....|..|C-5 .... ....|--- .... ....|--- .... 11.1
....|..|--- .... ....|F-3 .... ....|--- .... ....
....|..|--- .... ....|--- .... ....|--- .... ....
....|..|--- .... 11.1|--- .... ....|C-5 3..B ....
....|..|--- .... ....|F-3 .... ....|--- .... ....
....|..|--- .... ....|--- .... ....|--- .... ....
....|..|C-5 3..8 ....|--- .... ....|--- .... ....
....|..|--- .... ....|F-3 .... ....|--- .... ....
....|..|--- .... ....|--- .... ....|--- .... ....
....|..|--- .... ....|--- .... ....|--- .... ....
....|..|--- .... ....|F-3 .... ....|--- .... ....
....|..|--- .... ....|--- .... ....|--- .... ....
....|..|--- .... ....|--- .... ....|--- .... ....
....|..|--- .... ....|F-3 .... ....|--- .... ....
....|..|--- .... ....|--- .... ....|--- .... ....
....|..|--- .... ....|--- .... ....|--- .... ....
....|..|--- .... ....|--- .... ....|--- .... ....
....|..|--- .... ....|F-3 .... ....|--- .... ....
....|..|--- .... ....|--- .... ....|--- .... ....
....|..|--- .... ....|--- .... ....|--- .... ....
....|..|--- .... ....|F-3 .... ....|--- .... ....
....|..|--- .... ....|--- .... ....|--- .... ....
....|..|--- .... ....|--- .... ....|--- .... ....
....|..|--- .... ....|G-3 1F4. ....|A-4 1..F ....
....|..|--- .... ....|--- .... ....|E-5 .... ....
....|..|--- .... ....|--- .... ....|F-5 .... ....
....|..|A-4 1..C ....|G-3 .... ....|--- .... 11.1
....|..|E-5 .... ....|--- .... ....|A-5 1... ....
....|..|F-5 .... ....|--- .... ....|E-6 2... 3113
....|..|--- .... 11.1|G-3 .... ....|--- .... 11.1
....|..|A-5 1... ....|--- .... ....|D-6 1... ....
....|..|E-6 2... 3113|--- .... ....|--- .... ....
....|..|--- .... 11.1|--- .... ....|--- .... ....
....|..|D-6 1... ....|G-3 .... ....|--- .... ....
....|..|--- .... ....|--- .... ....|--- .... ....
....|..|--- .... ....|--- .... ....|--- .... ....
....|..|--- .... ....|G-3 .... ....|--- .... ....
....|..|--- .... ....|--- .... ....|--- .... ....
....|..|--- .... ....|--- .... ....|--- .... ....
....|..|--- .... ....|G-3 .... ....|--- .... ....
....|..|--- .... ....|--- .... ....|--- .... ....
....|..|--- .... ....|--- .... ....|--- .... ....
....|..|--- .... ....|G-3 .... ....|--- .... ....
....|..|--- .... ....|--- .... ....|--- .... ....
....|..|--- .... ....|--- .... ....|--- .... ....
....|..|--- .... ....|G-3 .... ....|--- .... ....
....|..|--- .... ....|--- .... ....|--- .... ....
....|..|--- .... ....|--- .... ....|--- ...C 11.1
....|..|--- .... ....|--- .... ....|--- .... ....
....|..|--- .... ....|G-3 .... ....|--- .... ....
....|..|--- ...8 11.1|--- .... ....|--- .... ....
....|..|--- .... ....|--- .... ....|--- .... ....
....|..|--- .... ....|G-3 .... ....|--- .... ....
....|..|--- .... ....|--- .... ....|--- .... ....
....|..|--- .... ....|--- .... ....|R-- .... ....

[Pattern62]
....|..|--- .... ....|A-3 1F3. ....|A-4 2F.F ....
....|..|--- .... ....|--- .... ....|C-5 .... ....
....|..|--- .... ....|--- .... ....|E-5 .... ....
....|..|A-4 2F.C ....|A-3 .... ....|A-5 .... ....
....|..|C-5 .... ....|--- .... ....|A-4 .... ....
....|..|E-5 .... ....|--- .... ....|C-5 .... ....
....|..|A-5 .... ....|A-3 .... ....|E-5 .... ....
....|..|A-4 .... ....|--- .... ....|A-5 .... ....
....|..|C-5 .... ....|--- .... ....|A-5 .... ....
....|..|E-5 .... ....|--- .... ....|E-5 .... ....
....|..|A-5 .... ....|A-3 .... ....|C-5 .... ....
....|..|A-5 .... ....|--- .... ....|A-4 .... ....
....|..|E-5 .... ....|--- .... ....|A-5 .... ....
....|..|C-5 .... ....|--- .... ....|E-5 .... ....
....|..|A-4 .... ....|--- .... ....|C-5 .... ....
....|..|A-5 .... ....|--- .... ....|A-4 .... ....
....|..|E-5 .... ....|A-3 .... ....|A-4 .... ....
....|..|C-5 .... ....|--- .... ....|C-5 .... ....
....|..|A-4 .... ....|--- .... ....|E-5 .... ....
....|..|A-4 .... ....|A-3 .... ....|A-5 .... ....
....|..|C-5 .... ....|--- .... ....|A-4 .... ....
....|..|E-5 .... ....|--- .... ....|C-5 .... ....
....|..|A-5 .... ....|A-3 .... ....|E-5 .... ....
....|..|A-4 .... ....|--- .... ....|A-5 .... ....
....|..|C-5 .... ....|--- .... ....|A-5 .... ....
....|..|E-5 .... ....|--- .... ....|E-5 .... ....
....|..|A-5 .... ....|A-3 .... ....|C-5 .... ....
....|..|A-5 .... ....|--- .... ....|A-4 .... ....
....|..|E-5 .... ....|--- .... ....|E-6 .... ....
....|..|C-5 .... ....|A-3 .... ....|C-6 .... ....
....|..|A-4 .... ....|--- .... ....|A-5 .... ....
....|..|E-6 .... ....|--- .... ....|E-5 .... ....
....|..|C-6 .... ....|E-3 1F4. ....|E-4 .... ....
....|..|A-5 .... ....|--- .... ....|G#4 .... ....
....|..|E-5 .... ....|--- .... ....|B-4 .... ....
....|..|E-4 .... ....|E-3 .... ....|E-5 .... ....
....|..|G#4 .... ....|--- .... ....|E-4 .... ....
....|..|B-4 .... ....|--- .... ....|G#4 .... ....
....|..|E-5 .... ....|E-3 .... ....|B-4 .... ....
....|..|E-4 .... ....|--- .... ....|E-5 .... ....
....|..|G#4 .... ....|--- .... ....|E-5 .... ....
....|..|B-4 .... ....|--- .... ....|B-4 .... ....
....|..|E-5 .... ....|E-3 .... ....|G#4 .... ....
....|..|E-5 .... ....|--- .... ....|E-4 .... ....
....|..|B-4 .... ....|--- .... ....|E-5 .... ....
....|..|G#4 .... ....|E-3 .... ....|B-4 .... ....
....|..|E-4 .... ....|--- .... ....|G#4 .... ....
....|..|E-5 .... ....|--- .... ....|E-4 .... ....
....|..|B-4 .... ....|E-3 .... ....|E-4 .... ....
....|..|G#4 .... ....|--- .... ....|G#4 .... ....
....|..|E-4 .... ....|--- .... ....|B-4 .... ....
....|..|E-4 .... ....|E-3 .... ....|E-5 .... ....
....|..|G#4 .... ....|--- .... ....|E-4 .... ....
....|..|B-4 .... ....|--- .... ....|G#4 .... ....
....|..|E-5 .... ....|E-3 .... ....|B-4 .... ....
....|..|E-4 .... ....|--- .... ....|E-5 .... ....
....|..|G#4 .... ....|--- .... ....|E-5 .... ....
....|..|B-4 .... ....|--- .... ....|B-4 .... ....
....|..|E-5 .... ....|E-3 .... ....|G#4 .... ....
....|..|E-5 .... ....|--- .... ....|E-4 .... ....
....|..|B-4 .... ....|--- .... ....|E-6 .... ....
....|..|G#4 .... ....|E-3 .... ....|B-5 .... ....
....|..|E-4 .... ....|--- .... ....|G#5 .... ....
....|..|E-6 .... ....|--- .... ....|E-5 .... ....

[Pattern63]
....|..|--- .... ....|F-3 1F4. ....|F-4 2F.F ....
....|..|--- .... ....|--- .... ....|A-4 .... ....
....|..|--- .... ....|--- .... ....|C-5 .... ....
....|..|F-4 2F.C ....|F-3 .... ....|F-5 .... ....
....|..|A-4 .... ....|--- .... ....|F-4 .... ....
....|..|C-5 .... ....|--- .... ....|A-4 .... ....
....|..|F-5 .... ....|F-3 .... ....|C-5 .... ....
....|..|F-4 .... ....|--- .... ....|F-5 .... ....
....|..|A-4 .... ....|--- .... ....|F-5 .... ....
....|..|C-5 .... ....|--- .... ....|C-5 .... ....
....|..|F-5 .... ....|F-3 .... ....|A-4 .... ....
....|..|F-5 .... ....|--- .... ....|F-4 .... ....
....|..|C-5 .... ....|--- .... ....|F-5 .... ....
....|..|A-4 .... ....|F-3 .... ....|C-5 .... ....
....|..|F-4 .... ....|--- .... ....|A-4 .... ....
....|..|F-5 .... ....|--- .... ....|F-4 .... ....
....|..|C-5 .... ....|F-3 .... ....|F-4 .... ....
....|..|A-4 .... ....|--- .... ....|A-4 .... ....
....|..|F-4 .... ....|--- .... ....|C-5 .... ....
....|..|F-4 .... ....|F-3 .... ....|F-5 .... ....
....|..|A-4 .... ....|--- .... ....|F-4 .... ....
....|..|C-5 .... ....|--- .... ....|A-4 .... ....
....|..|F-5 .... ....|F-3 .... ....|C-5 .... ....
....|..|F-4 .... ....|--- .... ....|F-5 .... ....
....|..|A-4 .... ....|--- .... ....|F-5 .... ....
....|..|C-5 .... ....|--- .... ....|C-5 .... ....
....|..|F-5 .... ....|F-3 .... ....|A-4 .... ....
....|..|F-5 .... ....|--- .... ....|F-4 .... ....
....|..|C-5 .... ....|--- .... ....|F-6 .... ....
....|..|A-4 .... ....|F-3 .... ....|C-6 .... ....
....|..|F-4 .... ....|--- .... ....|A-5 .... ....
....|..|F-6 .... ....|--- .... ....|F-5 .... ....
....|..|C-6 .... ....|G-3 1F4. ....|G-4 .... ....
....|..|A-5 .... ....|--- .... ....|B-4 .... ....
....|..|F-5 .... ....|--- .... ....|D-5 .... ....
....|..|G-4 .... ....|G-3 .... ....|G-5 .... ....
....|..|B-4 .... ....|--- .... ....|G-4 .... ....
....|..|D-5 .... ....|--- .... ....|B-4 .... ....
....|..|G-5 .... ....|G-3 .... ....|D-5 .... ....
....|..|G-4 .... ....|--- .... ....|G-5 .... ....
....|..|B-4 .... ....|--- .... ....|G-5 .... ....
....|..|D-5 .... ....|--- .... ....|D-5 .... ....
....|..|G-5 .... ....|G-3 .... ....|B-4 .... ....
....|..|G-5 .... ....|--- .... ....|G-4 .... ....
....|..|D-5 .... ....|--- .... ....|G-5 .... ....
....|..|B-4 .... ....|G-3 .... ....|D-5 .... ....
....|..|G-4 .... ....|--- .... ....|B-4 .... ....
....|..|G-5 .... ....|--- .... ....|G-4 .... ....
....|..|D-5 .... ....|G-3 .... ....|G-4 .... ....
....|..|B-4 .... ....|--- .... ....|B-4 .... ....
....|..|G-4 .... ....|--- .... ....|D-5 .... ....
....|..|G-4 .... ....|G-3 .... ....|G-5 .... ....
....|..|B-4 .... ....|--- .... ....|G-4 .... ....
....|..|D-5 .... ....|--- .... ....|B-4 .... ....
....|..|G-5 .... ....|G-3 .... ....|D-5 .... ....
....|..|G-4 .... ....|--- .... ....|G-5 .... ....
....|..|B-4 .... ....|--- .... ....|G-5 .... ....
....|..|D-5 .... ....|--- .... ....|D-5 .... ....
....|..|G-5 .... ....|G-3 .... ....|B-4 .... ....
....|..|G-5 .... ....|--- .... ....|G-4 .... ....
....|..|D-5 .... ....|--- .... ....|G-6 .... ....
....|..|B-4 .... ....|G-3 .... ....|D-6 .... ....
....|..|G-4 .... ....|--- .... ....|B-5 .... ....
....|..|G-6 .... ....|--- .... ....|G-5 .... ....

[Pattern64]
....|..|--- .... ....|F-3 1F4. ....|E-5 1F.F ....
....|..|--- .... ....|--- .... ....|F-5 2... 31.2
....|..|--- .... ....|--- .... ....|--- .... ....
....|..|E-5 1F.C ....|F-3 .... ....|--- .... ....
....|..|F-5 2... 31.2|--- .... ....|--- .... ....
....|..|--- .... ....|--- .... ....|F-5 1... ....
....|..|--- .... ....|F-3 .... ....|G-5 2... 31.3
....|..|--- .... ....|--- .... ....|--- .... ....
....|..|F-5 1... ....|--- .... ....|--- .... ....
....|..|G-5 2... 31.3|--- .... ....|--- .... ....
....|..|--- .... ....|G-3 .... ....|--- .... ....
....|..|--- .... ....|--- .... ....|--- .... ....
....|..|--- .... ....|--- .... ....|G-5 1... ....
....|..|--- .... ....|G-3 .... ....|--- .... ....
....|..|--- .... ....|--- .... ....|F-5 .... ....
....|..|G-5 1... ....|--- .... ....|--- .... ....
....|..|--- .... ....|E-3 .FC. ....|D-5 1... ....
....|..|F-5 .... ....|--- .... ....|E-5 2... ....
....|..|--- .... ....|--- .... ....|--- .... ....
....|..|D-5 1... ....|E-3 .... ....|--- .... ....
....|..|E-5 2... ....|--- .... ....|--- .... ....
....|..|--- .... ....|--- .... ....|--- .... ....
....|..|--- .... ....|E-3 .... ....|G#5 1... ....
....|..|--- .... ....|--- .... ....|A-5 2... 31.2
....|..|--- .... ....|--- .... ....|--- .... ....
....|..|G#5 1... ....|--- .... ....|--- .... ....
....|..|A-5 2... 31.2|A-3 .F3. ....|--- .... ....
....|..|--- .... ....|--- .... ....|--- .... ....
....|..|--- .... ....|--- .... ....|G-5 1... ....
....|..|--- .... ....|A-3 .... ....|--- .... ....
....|..|--- .... ....|--- .... ....|A-5 .... ....
....|..|G-5 1... ....|--- .... ....|--- .... ....
....|..|--- .... ....|F-3 1F4. ....|E-5 1... ....
....|..|A-5 .... ....|--- .... ....|F-5 2... 31.3
....|..|--- .... ....|--- .... ....|--- .... ....
....|..|E-5 1... ....|F-3 .... ....|--- .... 1..1
....|..|F-5 2... 31.3|--- .... ....|--- .... ....
....|..|--- .... ....|--- .... ....|D-5 1... ....
....|..|--- .... 1..1|F-3 .... ....|E-5 2... 31.2
....|..|--- .... ....|--- .... ....|--- .... ....
....|..|D-5 1... ....|--- .... ....|--- .... ....
....|..|E-5 2... 31.2|--- .... ....|--- .... ....
....|..|--- .... ....|G-3 .... ....|--- .... 11.1
....|..|--- .... ....|--- .... ....|--- .... ....
....|..|--- .... ....|--- .... ....|E-5 1... ....
....|..|--- .... 11.1|G-3 .... ....|--- .... ....
....|..|--- .... ....|--- .... ....|D-5 .... ....
....|..|E-5 1... ....|--- .... ....|--- .... ....
....|..|--- .... ....|E-3 .... ....|B-4 1... ....
....|..|D-5 .... ....|--- .... ....|C-5 2... 31.2
....|..|--- .... ....|--- .... ....|--- .... ....
....|..|B-4 1... ....|E-3 .... ....|--- .... ....
....|..|C-5 2... 31.2|--- .... ....|--- .... ....
....|..|--- .... ....|--- .... ....|--- .... ....
....|..|--- .... ....|E-3 .... ....|C-5 1... ....
....|..|--- .... ....|--- .... ....|D-5 2... 31.1
....|..|--- .... ....|--- .... ....|--- .... ....
....|..|C-5 1... ....|--- .... ....|--- .... ....
....|..|D-5 2... 31.1|E-3 .... ....|--- .... ....
....|..|--- .... ....|--- .... ....|--- .... ....
....|..|--- .... ....|--- .... ....|C-5 1... ....
....|..|--- .... ....|E-3 .... ....|--- .... ....
....|..|--- .... ....|--- .... ....|--- .... ....
....|..|C-5 1... ....|--- .... ....|--- .... ....

[Pattern70]
 A-1|..|A-4 2F7C ....|C-5 1F.C ....|A-1 2C.. ....
....|..|--- .... ....|D-5 .... ....|--- .... ....
 A-1|..|--- .... ....|E-5 .... ....|--- .... ....
....|..|A-4 .... ....|C-5 ...A ....|--- .... ....
....|..|--- .... ....|D-5 .... ....|--- .... ....
....|..|--- .... ....|E-5 .... ....|--- .... ....
....|..|A-4 .... ....|C-5 ...7 11.1|--- .... ....
....|..|--- .... ....|D-5 .... ....|--- .... ....
....|..|--- .... ....|E-5 .... ....|--- .... ....
....|..|--- .... ....|--- .... ....|--- .... ....
....|..|A-4 .... ....|--- .... ....|--- .... ....
....|..|--- .... ....|--- .... ....|--- .... ....
....|..|A-4 .... ....|D-5 ...C 31.8|--- .... ....
....|..|--- .... ....|--- .... ....|--- .... ....
....|..|A-4 .... ....|C-5 .... ....|--- .... ....
....|..|--- .... ....|--- .... ....|--- .... ....
 G#1|..|G#4 .F8. ....|D-5 .... ....|G#1 .C.. ....
....|..|--- .... ....|--- .... ....|--- .... ....
....|..|--- .... ....|--- .... ....|--- .... ....
....|..|G#4 .... ....|G#5 .... ....|--- .... ....
....|..|--- .... ....|--- .... ....|--- .... ....
....|..|--- .... ....|--- .... ....|--- .... ....
....|..|G#4 .... ....|F-5 .... ....|--- .... ....
....|..|--- .... ....|--- .... ....|--- .... ....
....|..|--- .... ....|--- .... ....|--- .... ....
....|..|--- .... ....|--- .... ....|--- .... ....
....|..|G#4 .... ....|E-5 .... ....|--- .... ....
....|..|--- .... ....|--- .... ....|--- .... ....
....|..|G#4 .... ....|D-5 .... ....|--- .... ....
....|..|--- .... ....|--- .... ....|--- .... ....
....|..|G#4 .... ....|B-4 .... ....|--- .... ....
....|..|--- .... ....|--- .... ....|--- .... ....
 G-1|..|G-4 .F9. ....|C-5 ...C ....|G-1 .C.. ....
....|..|--- .... ....|--- .... ....|--- .... ....
....|..|--- .... ....|D-5 .... ....|--- .... ....
....|..|G-4 .... ....|--- .... ....|--- .... ....
....|..|--- .... ....|F-5 .... ....|--- .... ....
....|..|--- .... ....|--- .... ....|--- .... ....
....|..|G-4 .... ....|C-5 ...8 ....|--- .... ....
....|..|--- .... ....|--- .... ....|--- .... ....
....|..|--- .... ....|D-5 .... ....|--- .... ....
....|..|--- .... ....|--- .... ....|--- .... ....
....|..|G-4 .... ....|F-5 .... ....|--- .... ....
....|..|--- .... ....|--- .... ....|--- .... ....
....|..|G-4 .... ....|E-5 ...C ....|--- .... ....
....|..|--- .... ....|--- .... ....|--- .... ....
....|..|G-4 .... ....|--- .... ....|--- .... ....
....|..|--- .... ....|--- .... ....|--- .... ....
 F-1|..|F-4 .FA. ....|F-5 .... ....|F-1 .C.. ....
....|..|--- .... ....|--- .... ....|--- .... ....
....|..|--- .... ....|--- .... ....|--- .... ....
....|..|F-4 .... ....|--- .... 11.1|--- .... ....
....|..|--- .... ....|--- .... ....|--- .... ....
....|..|--- .... ....|--- .... ....|--- .... ....
....|..|F-4 .... ....|E-5 .... ....|--- .... ....
....|..|--- .... ....|D-5 .... ....|--- .... ....
....|..|--- .... ....|E-5 .... ....|--- .... ....
....|..|--- .... ....|--- .... ....|--- .... ....
....|..|F-4 .... ....|--- .... ....|--- .... ....
....|..|--- .... ....|--- .... ....|--- .... ....
....|..|F-4 .... ....|--- .... ....|--- .... ....
....|..|--- .... ....|--- .... ....|--- .... ....
....|..|F-4 .... ....|--- .... ....|--- .... ....
....|..|--- .... ....|--- .... ....|--- .... ....

