[Module]
VortexTrackerII=0
Version=3.5
Title=1me,2p,0m-1me+
Author=oisee ^ 4d 27.04.2011
NoteTable=4
ChipFreq=1750000
Speed=3
PlayOrder=L0,1,2,3,4,5,6,7,8,9,10,11,12,13,14,15,16,17,18,17,20,17,22,23,24,23,26,27,28,27,30,3,32,3,34,35,6,7,38,39,10,11,12,13,14,15,16,17,18,17,20,17,52,13,14,15,16,17,18,17,20,17,62

[Ornament1]
L0,0,5,5,9,9

[Ornament2]
L0,0,4,4,7,7

[Ornament3]
L0,0,3,3,7,7

[Ornament4]
L0,0,3,3,5,5

[Ornament5]
L0,0,5,5,7,7

[Ornament6]
L0,0,5,5,10,10

[Ornament7]
L0,0,2,2,7,7

[Ornament8]
L0,0,3,3,8,8

[Ornament9]
L0,0,3,3,6,6

[Ornament10]
L0,0,5,5,8,8

[Ornament11]
L0,0,4,4,9,9

[Ornament12]
L0,0,3,3

[Ornament13]
L0,0,2,2,5,5,9,9

[Ornament14]
L0,0,3,3,5,5,8,8

[Ornament15]
L0,0,4,4,5,5,9,9

[Sample1]
TnE +000_ +00_ F_
TnE +000_ +00_ F_
TnE +000_ +00_ F_
TnE +000_ +00_ D_
TnE +000_ +00_ B_
TnE +000_ +00_ B_ L

[Sample2]
TnE +000_ +00_ F_ L

[Sample3]
TnE +001_ +00_ F_
TnE +002_ +00_ F_
TnE +001_ +00_ E_
TnE +002_ +00_ E_
TnE +000_ +00_ E_ L
TnE -001_ +00_ E_
TnE -002_ +00_ E_
TnE -001_ +00_ E_
TnE +000_ +00_ E_
TnE +001_ +00_ E_
TnE +002_ +00_ E_
TnE +001_ +00_ E_

[Sample4]
TnE +002_ +00_ D_
TnE +002_ +00_ D_
TnE +002_ +00_ C_
TnE +002_ +00_ B_
TnE +002_ +00_ A_ L
TnE +002_ +00_ A_
TnE +002_ +00_ A_
TnE +002_ +00_ A_
TnE +002_ +00_ A_
TnE +002_ +00_ A_
TnE +002_ +00_ A_
TnE +002_ +00_ A_

[Sample5]
TnE +000_ +00_ F_
TnE +000_ +00_ F_
tne +000_ +00_ 0_ L

[Sample6]
TnE -001_ +00_ F_ L

[Sample7]
TnE +006_ +00_ F_ L

[Sample8]
tNe +000_ +00_ F_
tNe +000_ +00_ B_
tNe +000_ +00_ 7_
tNe +000_ +00_ 6- L

[Sample9]
TnE +080_ +00_ F_
TnE +100_ +00_ E_
TnE +180_ +00_ E_
TnE +200_ +00_ E_
TnE +240_ +00_ D_
TnE +280_ +00_ D_
TnE +2C0_ +00_ D_
TnE +300_ +00_ C_
TnE +300_ +00_ C_
TnE +340_ +00_ C_
TnE +340_ +00_ C_
TnE +380_ +00_ B_
TnE +380_ +00_ B_
TnE +400_ +00_ B_
TnE +400_ +00_ B_
TnE +480_ +00_ A_
TnE +500_ +00_ 9_
TnE +580_ +00_ 7_
TnE +600_ +00_ 4_
TnE +680_ +00_ 1_
TnE +000_ +00_ 0_ L

[Sample10]
Tne +1C0_ +00_ F_
Tne +280_ +00_ E_
Tne +380_ +00_ C_
Tne +440_ +00_ A_
Tne +480_ +00_ 8_
TnE +000_ +00_ 0_ L

[Sample11]
TNe +200_ -0A_ F_
tNe +000_ +0F_ A_
TNe +200_ -07_ E_
tNe +000_ +0E_ B- L

[Sample12]
TNE +0A0_ +05_ F_
TNE +140_ +02_ D_
TNE +140_ +02_ B_
TNE +100_ +00_ A_ L
TNE +140_ +00_ A_
TNE +200_ +00_ A-

[Sample13]
Tne +200_ +00_ F_
Tne +2C0_ +00_ F_
Tne +380_ +00_ E_
Tne +500_ +00_ C_
Tne +520_ +00_ 9_
tne +000_ +00_ 0_ L

[Sample14]
TNE -100_ +00_ F_
TNE -100_ +00_ D_
TNE -100_ +00_ A_
TNE -100_ +00_ 5_
tne +000_ +00_ 0_ L

[Sample15]
TNE -100_ +00_ 5_
TNE -100_ +00_ 8_
TNE -100_ +00_ B_
TNE -100_ +00_ F_
TNe -100_ +00_ 9- L

[Sample16]
TnE +000_ +00_ C_
TnE +000_ +00_ E_
TnE +000_ +00_ F_
TnE +000_ +00_ F_
TnE +000_ +00_ E_
TnE +000_ +00_ D_
TnE +000_ +00_ C_
TnE +000_ +00_ C_ L
TnE +001_ +00_ C_
TnE +002_ +00_ C_
TnE +003_ +00_ C_
TnE +001_ +00_ C_
TnE +000_ +00_ C_
TnE -001_ +00_ C_
TnE -002_ +00_ C_
TnE -003_ +00_ C_
TnE -001_ +00_ C_
TnE +000_ +00_ C_
TnE +000_ +00_ C_

[Sample17]
Tne +1C0_ +00_ F_
Tne +280_ +00_ D_
Tne +380_ +00_ 7_
TNE +000_ +00_ 0_ L

[Sample18]
TnE -00C_ +00_ 0_ L

[Sample19]
TNe +000_ +00_ F_
TNe +000_ +00_ C_
TNe +000_ +00_ 6_
TNe +000_ +01_ A- L

[Sample20]
TNE +140_ +00_ F_
tNE +000_ +00_ B- L

[Sample21]
tNE +000_ +00_ D_
tNE +000_ +00_ 8_
tNE +000_ +00_ 1_
TNE +000_ +00_ 0_ L

[Sample22]
TnE +000_ +00_ D_ L
TnE +000_ +00_ D_
tne +000_ +00_ 9_
tne +000_ +00_ 9_
TnE +000_ +00_ D_
TnE +000_ +00_ D_
tne +000_ +00_ 9_
tne +000_ +00_ 9_
TnE +000_ +00_ D_
TnE +000_ +00_ D_
TnE +000_ +00_ D_
TnE +000_ +00_ D_
TnE +000_ +00_ D_
TnE +000_ +00_ D_
tne +000_ +00_ 9_
tne +000_ +00_ 9_

[Sample23]
TnE +000_ +00_ F_ L
TnE +010_ +01_ F_
TnE +010_ +01_ F_
TnE +010_ +01_ F_
TnE +010_ +01_ F_
TnE +000_ +00_ F_
TnE +000_ +00_ F_
TnE -010_ -01_ F_
TnE -010_ -01_ F_
TnE -010_ -01_ F_
TnE -010_ -01_ F_
TnE +000_ +00_ F_

[Sample24]
TNe +000_ -01_ C_
TNe +000_ -01_ D_
TNe +000_ -01_ E_
TNe +000_ -01_ F_
TNe +000_ -01_ F_
TNe +000_ -01_ F_
TNe +000_ -01_ F_
TNe +000_ -01_ F_
TNe +000_ -01_ E_
TNe +000_ -01_ E_
TNe +000_ -01_ E_
TNe +000_ -01_ F_
TNe +000_ -01_ F_ L

[Sample25]
TNE +000_ +00_ F_
TNE +000_ +00_ F_ L
TNE +000_ +00_ F_
TNE +000_ +00_ F_
TNE +000_ +00_ F-

[Sample26]
tne +000_ +00_ 0_ L

[Sample27]
TnE +100_ +05_ F_
TnE +200_ +02_ A_
TnE +300_ +02_ 7_
TNE +400_ +00_ 3- L

[Sample28]
tne +000_ +00_ 0_ L

[Sample29]
tnE +000_ +00_ 0_ L

[Sample30]
TNE +000_ +00_ C+ L

[Sample31]
TNe +1C0_ +00_ F_
Tne +280_ +00_ E_
Tne +380_ +00_ C_
Tne +440_ +00_ A_
Tne +480_ +00_ 8_
TnE +000_ +00_ 0_ L

[Pattern0]
....|..|--- .... ....|--- .... ....|C-4 2F.F ....
....|..|--- .... ....|--- .... ....|--- .... ....
....|..|--- .... ....|--- .... ....|--- .... ....
....|..|--- .... ....|--- .... ....|--- .... ....
....|..|--- .... ....|--- .... ....|--- .... ....
....|..|--- .... ....|--- .... ....|--- .... ....
....|..|--- .... ....|--- .... ....|--- .... ....
....|..|--- .... ....|--- .... ....|--- .... ....
....|..|--- .... ....|--- .... ....|D#4 2F.F ....
....|..|--- .... ....|--- .... ....|--- .... ....
....|..|--- .... ....|--- .... ....|D#4 2F.F ....
....|..|--- .... ....|--- .... ....|--- .... ....
....|..|--- .... ....|--- .... ....|C-4 2F.A ....
....|..|--- .... ....|--- .... ....|--- .... ....
....|..|--- .... ....|--- .... ....|--- .... ....
....|..|--- .... ....|--- .... ....|--- .... ....
....|..|--- .... ....|--- .... ....|F-4 2F.F ....
....|..|--- .... ....|--- .... ....|--- .... ....
....|..|--- .... ....|--- .... ....|--- .... ....
....|..|--- .... ....|--- .... ....|--- .... ....
....|..|--- .... ....|--- .... ....|D#4 2F.A ....
....|..|--- .... ....|--- .... ....|--- .... ....
....|..|--- .... ....|--- .... ....|D#4 2F.F ....
....|..|--- .... ....|--- .... ....|--- .... ....
....|..|--- .... ....|--- .... ....|C-4 2F.7 ....
....|..|--- .... ....|--- .... ....|--- .... ....
....|..|--- .... ....|--- .... ....|--- .... ....
....|..|--- .... ....|--- .... ....|--- .... ....
....|..|--- .... ....|--- .... ....|F-4 2F.F ....
....|..|--- .... ....|--- .... ....|--- .... ....
....|..|--- .... ....|--- .... ....|--- .... ....
....|..|--- .... ....|--- .... ....|R-- .... ....
....|..|--- .... ....|--- .... ....|F-4 2F.F ....
....|..|--- .... ....|--- .... ....|--- .... ....
....|..|--- .... ....|--- .... ....|D#4 2F.7 ....
....|..|--- .... ....|--- .... ....|--- .... ....
....|..|--- .... ....|--- .... ....|F-4 2F.F ....
....|..|--- .... ....|--- .... ....|--- .... ....
....|..|--- .... ....|--- .... ....|--- .... ....
....|..|--- .... ....|--- .... ....|R-- .... ....
....|..|--- .... ....|--- .... ....|A#4 2F.F ....
....|..|--- .... ....|--- .... ....|--- .... ....
....|..|--- .... ....|--- .... ....|--- .... ....
....|..|--- .... ....|--- .... ....|R-- .... ....
....|..|--- .... ....|--- .... ....|G#4 2F.F ....
....|..|--- .... ....|--- .... ....|--- .... ....
....|..|--- .... ....|--- .... ....|D#4 2F.7 ....
....|..|--- .... ....|--- .... ....|--- .... ....
....|..|--- .... ....|--- .... ....|G-4 2F.F ....
....|..|--- .... ....|--- .... ....|--- .... ....
....|..|--- .... ....|--- .... ....|F-4 2F.F ....
....|..|--- .... ....|--- .... ....|R-- .... ....
....|..|--- .... ....|--- .... ....|F-4 2F.7 ....
....|..|--- .... ....|--- .... ....|--- .... ....
....|..|--- .... ....|--- .... ....|G-4 2F.F ....
....|..|--- .... ....|--- .... ....|R-- .... ....
....|..|--- .... ....|--- .... ....|F-4 2F.7 ....
....|..|--- .... ....|--- .... ....|--- .... ....
....|..|--- .... ....|--- .... ....|R-- .... ....
....|..|--- .... ....|--- .... ....|--- .... ....
....|..|--- .... ....|--- .... ....|F-4 2F.7 ....
....|..|--- .... ....|--- .... ....|--- .... ....
....|..|--- .... ....|--- .... ....|F-4 2F.A ....
....|..|--- .... ....|--- .... ....|R-- .... ....

[Pattern1]
....|..|--- .... ....|--- .... ....|G-4 2F.F ....
....|..|--- .... ....|--- .... ....|--- .... ....
....|..|--- .... ....|--- .... ....|G-4 2F.A ....
....|..|--- .... ....|--- .... ....|--- .... ....
....|..|--- .... ....|--- .... ....|G#4 2F.7 ....
....|..|--- .... ....|--- .... ....|--- .... ....
....|..|--- .... ....|--- .... ....|R-- .... ....
....|..|--- .... ....|--- .... ....|--- .... ....
....|..|--- .... ....|--- .... ....|A#4 2F.F ....
....|..|--- .... ....|--- .... ....|--- .... ....
....|..|--- .... ....|--- .... ....|F-4 2F.7 ....
....|..|--- .... ....|--- .... ....|--- .... ....
....|..|--- .... ....|--- .... ....|G-4 2F.A ....
....|..|--- .... ....|--- .... ....|--- .... ....
....|..|--- .... ....|--- .... ....|G-4 2F.7 ....
....|..|--- .... ....|--- .... ....|--- .... ....
....|..|--- .... ....|--- .... ....|C-5 2F.F ....
....|..|--- .... ....|--- .... ....|--- .... ....
....|..|--- .... ....|--- .... ....|R-- .... ....
....|..|--- .... ....|--- .... ....|--- .... ....
....|..|--- .... ....|--- .... ....|A#4 2F.A ....
....|..|--- .... ....|--- .... ....|--- .... ....
....|..|--- .... ....|--- .... ....|F-4 2F.F ....
....|..|--- .... ....|--- .... ....|--- .... ....
....|..|--- .... ....|--- .... ....|G-4 2F.7 ....
....|..|--- .... ....|--- .... ....|--- .... ....
....|..|--- .... ....|--- .... ....|--- .... ....
....|..|--- .... ....|--- .... ....|--- .... ....
....|..|--- .... ....|--- .... ....|D#4 2F.F ....
....|..|--- .... ....|--- .... ....|--- .... ....
....|..|--- .... ....|--- .... ....|--- .... ....
....|..|--- .... ....|--- .... ....|--- .... ....
....|..|--- .... ....|--- .... ....|A#4 2F.F ....
....|..|--- .... ....|--- .... ....|--- .... ....
....|..|--- .... ....|--- .... ....|F-4 2F.A ....
....|..|--- .... ....|--- .... ....|--- .... ....
....|..|--- .... ....|--- .... ....|A#4 2F.F ....
....|..|--- .... ....|--- .... ....|--- .... ....
....|..|--- .... ....|--- .... ....|--- .... ....
....|..|--- .... ....|--- .... ....|--- .... ....
....|..|--- .... ....|--- .... ....|G-4 2F.F ....
....|..|--- .... ....|--- .... ....|--- .... ....
....|..|--- .... ....|--- .... ....|--- .... ....
....|..|--- .... ....|--- .... ....|--- .... ....
....|..|--- .... ....|--- .... ....|A#4 2F.F ....
....|..|--- .... ....|--- .... ....|--- .... ....
....|..|--- .... ....|--- .... ....|F-4 2F.7 ....
....|..|--- .... ....|--- .... ....|--- .... ....
....|..|--- .... ....|--- .... ....|A#4 2F.F ....
....|..|--- .... ....|--- .... ....|--- .... ....
....|..|--- .... ....|--- .... ....|--- .... ....
....|..|--- .... ....|--- .... ....|--- .... ....
....|..|--- .... ....|--- .... ....|D#4 2F.7 ....
....|..|--- .... ....|--- .... ....|--- .... ....
....|..|--- .... ....|--- .... ....|C-5 2F.F ....
....|..|--- .... ....|--- .... ....|--- .... ....
....|..|--- .... ....|--- .... ....|A#4 2F.7 ....
....|..|--- .... ....|--- .... ....|--- .... ....
....|..|--- .... ....|--- .... ....|--- .... ....
....|..|--- .... ....|--- .... ....|--- .... ....
....|..|--- .... ....|--- .... ....|A#4 2F.7 ....
....|..|--- .... ....|--- .... ....|--- .... ....
....|..|--- .... ....|--- .... ....|--- .... ....
....|..|--- .... ....|--- .... ....|--- .... ....

[Pattern2]
....|..|--- .... ....|--- .... ....|G-4 2F.7 ....
....|..|--- .... ....|--- .... ....|--- .... ....
....|..|--- .... ....|--- .... ....|C-5 2F.A ....
....|..|--- .... ....|--- .... ....|--- .... ....
....|..|--- .... ....|--- .... ....|A#4 2F.7 ....
....|..|--- .... ....|--- .... ....|--- .... ....
....|..|--- .... ....|--- .... ....|--- .... ....
....|..|--- .... ....|--- .... ....|--- .... ....
....|..|--- .... ....|--- .... ....|A#4 2F.7 ....
....|..|--- .... ....|--- .... ....|--- .... ....
....|..|--- .... ....|--- .... ....|--- .... ....
....|..|--- .... ....|--- .... ....|--- .... ....
....|..|--- .... ....|--- .... ....|--- .... ....
....|..|--- .... ....|--- .... ....|--- .... ....
....|..|--- .... ....|--- .... ....|C-5 2F.7 ....
....|..|--- .... ....|--- .... ....|--- .... ....
....|..|--- .... ....|--- .... ....|--- .... ....
....|..|--- .... ....|--- .... ....|--- .... ....
....|..|--- .... ....|--- .... ....|--- .... ....
....|..|--- .... ....|--- .... ....|--- .... ....
....|..|--- .... ....|--- .... ....|--- .... ....
....|..|--- .... ....|--- .... ....|--- .... ....
....|..|--- .... ....|--- .... ....|--- .... ....
....|..|--- .... ....|--- .... ....|--- .... ....
....|..|--- .... ....|--- .... ....|--- .... ....
....|..|--- .... ....|--- .... ....|--- .... ....
....|..|--- .... ....|--- .... ....|--- .... ....
....|..|--- .... ....|--- .... ....|--- .... ....
....|..|--- .... ....|--- .... ....|--- .... ....
....|..|--- .... ....|--- .... ....|--- .... ....
....|..|--- .... ....|--- .... ....|--- .... ....
....|..|--- .... ....|--- .... ....|--- .... ....
 C-4|..|C-2 2A.F ....|--- .... ....|C-2 2A.F ....
....|..|--- .... ....|--- .... ....|--- .... ....
....|..|--- .... ....|--- .... ....|--- .... ....
....|..|R-- .... ....|--- .... ....|R-- .... ....
 C-4|..|C-2 2A.F ....|--- .... ....|C-2 2A.F ....
....|..|--- .... ....|--- .... ....|--- .... ....
....|..|--- .... ....|--- .... ....|--- .... ....
....|..|R-- .... ....|--- .... ....|R-- .... ....
 C-4|..|C-2 2A.F ....|--- .... ....|C-2 2A.F ....
....|..|--- .... ....|--- .... ....|--- .... ....
....|..|--- .... ....|--- .... ....|--- .... ....
....|..|R-- .... ....|--- .... ....|R-- .... ....
 D-4|..|D-2 2A.F ....|--- .... ....|D-2 2A.F ....
....|..|--- .... ....|--- .... ....|--- .... ....
 D#4|..|D#2 2A.F ....|--- .... ....|D#2 2A.F ....
....|..|R-- .... ....|--- .... ....|R-- .... ....
 F-4|..|F-2 2A.F ....|--- .... ....|F-2 2A.F ....
....|..|--- .... ....|--- .... ....|--- .... ....
 F-4|..|F-2 2A.F ....|--- .... ....|F-2 2A.F ....
....|..|R-- .... ....|--- .... ....|R-- .... ....
 C-4|..|C-2 2F.A ....|--- .... ....|C-2 2F.A ....
....|..|R-- .... ....|--- .... ....|R-- .... ....
 F-4|..|F-2 2A.F ....|--- .... ....|F-2 2A.F ....
....|..|R-- .... ....|--- .... ....|R-- .... ....
 D#4|..|D#2 2A.F ....|--- .... ....|D#2 2A.F ....
....|..|--- .... ....|--- .... ....|--- .... ....
 D#4|..|D#2 2F.A ....|--- .... ....|D#2 2F.A ....
....|..|R-- .... ....|--- .... ....|R-- .... ....
 C-4|..|C-2 2A.F ....|--- .... ....|C-2 2A.F ....
....|..|--- .... ....|--- .... ....|--- .... ....
 F-4|..|F-2 2F.A ....|--- .... ....|F-2 2F.A ....
....|..|R-- .... ....|--- .... ....|R-- .... ....

[Pattern3]
 A#3|..|A#1 2A.F ....|--- .... ....|A#1 2A.F ....
....|..|R-- .... ....|--- .... ....|R-- .... ....
 F-4|..|F-2 2F.A ....|--- .... ....|F-2 2F.A ....
....|..|R-- .... ....|--- .... ....|R-- .... ....
 A#3|..|A#1 2A.F ....|--- .... ....|A#1 2A.F ....
....|..|--- .... ....|--- .... ....|--- .... ....
 D#4|..|D#2 2F.7 ....|--- .... ....|D#2 2F.7 ....
....|..|R-- .... ....|--- .... ....|R-- .... ....
 A#3|..|A#1 2A.F ....|--- .... ....|A#1 2A.F ....
....|..|--- .... ....|--- .... ....|--- .... ....
 F-4|..|F-2 2F.7 ....|--- .... ....|F-2 2F.7 ....
....|..|R-- .... ....|--- .... ....|R-- .... ....
 D-4|..|D-2 2A.F ....|--- .... ....|D-2 2A.F ....
....|..|R-- .... ....|--- .... ....|R-- .... ....
 F-4|..|F-2 2F.7 ....|--- .... ....|F-2 2F.7 ....
....|..|R-- .... ....|--- .... ....|R-- .... ....
 D#4|..|D#2 2A.F ....|--- .... ....|D#2 2A.F ....
....|..|--- .... ....|--- .... ....|--- .... ....
 D#4|..|D#2 2A.F ....|--- .... ....|D#2 2A.F ....
....|..|R-- .... ....|--- .... ....|R-- .... ....
 C-4|..|C-2 2F.7 ....|--- .... ....|C-2 2F.7 ....
....|..|R-- .... ....|--- .... ....|R-- .... ....
 D#4|..|D#2 2A.F ....|--- .... ....|D#2 2A.F ....
....|..|R-- .... ....|--- .... ....|R-- .... ....
 D#4|..|D#2 2A.F ....|--- .... ....|D#2 2A.F ....
....|..|--- .... ....|--- .... ....|--- .... ....
....|..|--- .... ....|--- .... ....|--- .... ....
....|..|R-- .... ....|--- .... ....|R-- .... ....
 D-4|..|D-2 2A.F ....|--- .... ....|D-2 2A.F ....
....|..|--- .... ....|--- .... ....|--- .... ....
 D#4|..|D#2 2F.A ....|--- .... ....|D#2 2F.A ....
....|..|R-- .... ....|--- .... ....|R-- .... ....
 C-4|..|C-2 2A.F ....|--- .... ....|C-2 2A.F ....
....|..|R-- .... ....|--- .... ....|R-- .... ....
 D#4|..|D#2 2F.A ....|--- .... ....|D#2 2F.A ....
....|..|R-- .... ....|--- .... ....|R-- .... ....
 C-4|..|C-2 2A.F ....|--- .... ....|C-2 2A.F ....
....|..|--- .... ....|--- .... ....|--- .... ....
....|..|--- .... ....|--- .... ....|--- .... ....
....|..|R-- .... ....|--- .... ....|R-- .... ....
 C-4|..|C-2 2A.F ....|--- .... ....|C-2 2A.F ....
....|..|--- .... ....|--- .... ....|--- .... ....
 D#4|..|D#2 2F.7 ....|--- .... ....|D#2 2F.7 ....
....|..|R-- .... ....|--- .... ....|R-- .... ....
 D-4|..|D-2 2A.F ....|--- .... ....|D-2 2A.F ....
....|..|R-- .... ....|--- .... ....|R-- .... ....
 D#4|..|D#2 2A.F ....|--- .... ....|D#2 2A.F ....
....|..|R-- .... ....|--- .... ....|R-- .... ....
 F-4|..|F-2 2A.F ....|--- .... ....|F-2 2A.F ....
....|..|--- .... ....|--- .... ....|--- .... ....
 F-4|..|F-2 2A.F ....|--- .... ....|F-2 2A.F ....
....|..|R-- .... ....|--- .... ....|R-- .... ....
 D-4|..|D-2 2F.7 ....|--- .... ....|D-2 2F.7 ....
....|..|R-- .... ....|--- .... ....|R-- .... ....
 F-4|..|F-2 2A.F ....|--- .... ....|F-2 2A.F ....
....|..|R-- .... ....|--- .... ....|R-- .... ....
 D#4|..|D#2 2A.F ....|--- .... ....|D#2 2A.F ....
....|..|--- .... ....|--- .... ....|--- .... ....
 D#4|..|D#2 2F.A ....|--- .... ....|D#2 2F.A ....
....|..|R-- .... ....|--- .... ....|R-- .... ....
 C-4|..|C-2 2A.F ....|--- .... ....|C-2 2A.F ....
....|..|--- .... ....|--- .... ....|--- .... ....
 F-4|..|F-2 2F.A ....|--- .... ....|F-2 2F.A ....
....|..|R-- .... ....|--- .... ....|R-- .... ....

[Pattern4]
 A#3|..|A#1 2A.F ....|--- .... ....|A#1 2A.F ....
....|..|R-- .... ....|--- .... ....|R-- .... ....
 F-4|..|F-2 2F.A ....|--- .... ....|F-2 2F.A ....
....|..|R-- .... ....|--- .... ....|R-- .... ....
 A#3|..|A#1 2A.F ....|--- .... ....|A#1 2A.F ....
....|..|--- .... ....|--- .... ....|--- .... ....
 D#4|..|D#2 2F.7 ....|--- .... ....|D#2 2F.7 ....
....|..|R-- .... ....|--- .... ....|R-- .... ....
 A#3|..|A#1 2A.F ....|--- .... ....|A#1 2A.F ....
....|..|--- .... ....|--- .... ....|--- .... ....
 F-4|..|F-2 2F.7 ....|--- .... ....|F-2 2F.7 ....
....|..|R-- .... ....|--- .... ....|R-- .... ....
 A#3|..|A#1 2A.F ....|--- .... ....|A#1 2A.F ....
....|..|R-- .... ....|--- .... ....|R-- .... ....
 F-4|..|F-2 2F.7 ....|--- .... ....|F-2 2F.7 ....
....|..|R-- .... ....|--- .... ....|R-- .... ....
 C-4|..|C-2 2A.F ....|--- .... ....|C-2 2A.F ....
....|..|--- .... ....|--- .... ....|--- .... ....
....|..|--- .... ....|--- .... ....|--- .... ....
....|..|R-- .... ....|--- .... ....|R-- .... ....
 C-4|..|C-2 2A.F ....|--- .... ....|C-2 2A.F ....
....|..|--- .... ....|--- .... ....|--- .... ....
....|..|--- .... ....|--- .... ....|--- .... ....
....|..|R-- .... ....|--- .... ....|R-- .... ....
 C-4|..|C-2 2A.F ....|--- .... ....|C-2 2A.F ....
....|..|--- .... ....|--- .... ....|--- .... ....
....|..|--- .... ....|--- .... ....|--- .... ....
....|..|R-- .... ....|--- .... ....|R-- .... ....
 C-4|..|C-2 2A.F ....|--- .... ....|C-2 2A.F ....
....|..|--- .... ....|--- .... ....|--- .... ....
....|..|--- .... ....|--- .... ....|--- .... ....
....|..|R-- .... ....|--- .... ....|R-- .... ....
 D#4|..|D#2 2A.F ....|A#3 2F1F ....|D#2 2A.F ....
....|..|--- .... ....|--- .... ....|--- .... ....
....|..|--- .... ....|--- .... ....|--- .... ....
....|..|R-- .... ....|--- .... ....|R-- .... ....
 A#3|..|A#1 2F.7 ....|--- .... ....|A#1 2F.7 ....
....|..|--- .... ....|--- .... ....|--- .... ....
....|..|--- .... ....|--- .... ....|--- .... ....
....|..|R-- .... ....|--- .... ....|R-- .... ....
 C-4|..|C-2 2F.7 ....|--- .... ....|D#4 2F.F ....
....|..|--- .... ....|--- .... ....|--- .... ....
....|..|--- .... ....|--- .... ....|--- .... ....
....|..|R-- .... ....|--- .... ....|R-- .... ....
 C-4|..|C-2 2F.7 ....|A#3 2F1A ....|D#4 2F.F ....
....|..|--- .... ....|--- .... ....|A#3 2F.F ....
....|..|--- .... ....|--- .... ....|A#3 2F.F ....
....|..|R-- .... ....|--- .... ....|R-- .... ....
 C-4|..|C-2 2F.7 ....|--- .... ....|C-2 2F.7 ....
....|..|--- .... ....|--- .... ....|--- .... ....
....|..|--- .... ....|--- .... ....|--- .... ....
....|..|R-- .... ....|--- .... ....|R-- .... ....
 C-4|..|C-2 2F.7 ....|--- .... ....|C-2 2F.7 ....
....|..|--- .... ....|--- .... ....|--- .... ....
....|..|--- .... ....|--- .... ....|--- .... ....
....|..|R-- .... ....|--- .... ....|R-- .... ....
 D#4|..|D#2 2F.7 ....|A#3 2F17 ....|D#2 2F.7 ....
....|..|--- .... ....|--- .... ....|A#3 2F.A ....
....|..|--- .... ....|--- .... ....|A#3 2F.A ....
....|..|--- .... ....|--- .... ....|--- .... ....
....|..|--- .... ....|--- .... ....|D#4 2F.F ....
....|..|--- .... ....|--- .... ....|--- .... ....
....|..|--- .... ....|--- .... ....|--- .... ....
....|..|--- .... ....|--- .... ....|R-- .... ....

[Pattern5]
 A#3|..|A#1 2A.F ....|A#3 2F2F ....|D#4 2F.F ....
....|..|--- .... ....|--- .... ....|--- .... ....
....|..|--- .... ....|--- .... ....|--- .... ....
....|..|--- .... ....|--- .... ....|--- .... ....
....|..|--- .... ....|--- .... ....|D#4 2F.7 ....
....|..|--- .... ....|--- .... ....|A#3 2F.7 ....
....|..|--- .... ....|--- .... ....|F-4 2F.F ....
....|..|--- .... ....|--- .... ....|--- .... ....
....|..|--- .... ....|--- .... ....|D#4 2F.A ....
....|..|--- .... ....|--- .... ....|--- .... ....
....|..|--- .... ....|--- .... ....|--- .... ....
....|..|--- .... ....|--- .... ....|R-- .... ....
 A#3|..|A#1 2F.A ....|A#3 2F2A ....|A#3 2F.F ....
....|..|--- .... ....|--- .... ....|--- .... ....
....|..|--- .... ....|--- .... ....|--- .... ....
....|..|--- .... ....|--- .... ....|--- .... ....
....|..|--- .... ....|--- .... ....|A#3 2F.F ....
....|..|--- .... ....|--- .... ....|--- .... ....
....|..|--- .... ....|--- .... ....|F-4 2F.A ....
....|..|--- .... ....|--- .... ....|--- .... ....
....|..|--- .... ....|--- .... ....|D#4 2F.7 ....
....|..|--- .... ....|--- .... ....|--- .... ....
....|..|--- .... ....|--- .... ....|--- .... ....
....|..|--- .... ....|--- .... ....|R-- .... ....
 A#3|..|A#1 2F.7 ....|A#3 2F27 ....|D#4 2F.7 ....
....|..|--- .... ....|--- .... ....|--- .... ....
....|..|--- .... ....|--- .... ....|--- .... ....
....|..|--- .... ....|--- .... ....|--- .... ....
....|..|--- .... ....|--- .... ....|A#3 2F.F ....
....|..|--- .... ....|--- .... ....|--- .... ....
....|..|--- .... ....|--- .... ....|F-4 2F.7 ....
....|..|--- .... ....|--- .... ....|--- .... ....
 C-4|..|C-2 2A.F ....|C-4 2F3F ....|G-4 2F.F ....
....|..|--- .... ....|--- .... ....|--- .... ....
....|..|--- .... ....|--- .... ....|--- .... ....
....|..|--- .... ....|--- .... ....|--- .... ....
....|..|--- .... ....|--- .... ....|A#3 2F.7 ....
....|..|--- .... ....|--- .... ....|--- .... ....
....|..|--- .... ....|--- .... ....|G#4 2F.F ....
....|..|--- .... ....|--- .... ....|--- .... ....
....|..|--- .... ....|--- .... ....|A#3 2F.7 ....
....|..|--- .... ....|--- .... ....|--- .... ....
....|..|--- .... ....|--- .... ....|--- .... ....
....|..|--- .... ....|--- .... ....|--- .... ....
 C-4|..|C-2 2F.A ....|C-4 2F3A ....|G-4 2F.F ....
....|..|--- .... ....|--- .... ....|--- .... ....
....|..|--- .... ....|--- .... ....|--- .... ....
....|..|--- .... ....|--- .... ....|--- .... ....
 A#3|..|A#1 2A.F ....|D-4 2F4F ....|F-4 2F.F ....
....|..|--- .... ....|--- .... ....|--- .... ....
....|..|--- .... ....|--- .... ....|G#4 2F.A ....
....|..|--- .... ....|--- .... ....|--- .... ....
....|..|--- .... ....|--- .... ....|A#3 2F.7 ....
....|..|--- .... ....|--- .... ....|--- .... ....
....|..|--- .... ....|--- .... ....|D#4 2F.F ....
....|..|--- .... ....|--- .... ....|--- .... ....
 C-4|..|C-2 2F.7 ....|C-4 2F37 ....|G-4 2F.7 ....
....|..|--- .... ....|--- .... ....|--- .... ....
....|..|--- .... ....|--- .... ....|--- .... ....
....|..|--- .... ....|--- .... ....|--- .... ....
 A#3|..|A#1 2F.A ....|D-4 2F4A ....|F-4 2F.F ....
....|..|--- .... ....|--- .... ....|--- .... ....
....|..|--- .... ....|--- .... ....|G#4 2F.7 ....
....|..|--- .... ....|--- .... ....|--- .... ....

[Pattern6]
 G#3|..|G#1 2A.F ....|C-4 2F3F ....|G-4 2F.F ....
....|..|--- .... ....|--- .... ....|--- .... ....
....|..|--- .... ....|--- .... ....|D#4 2F.A ....
....|..|--- .... ....|--- .... ....|--- .... ....
....|..|--- .... ....|--- .... ....|G-4 2F.7 ....
....|..|--- .... ....|--- .... ....|--- .... ....
....|..|--- .... ....|--- .... ....|G#4 2F.F ....
....|..|--- .... ....|--- .... ....|--- .... ....
 A#3|..|A#1 2F.7 ....|D-4 2F47 ....|F-4 2F.7 ....
....|..|--- .... ....|--- .... ....|--- .... ....
....|..|--- .... ....|--- .... ....|--- .... ....
....|..|--- .... ....|--- .... ....|--- .... ....
 G#3|..|G#1 2F.A ....|C-4 2F3A ....|G-4 2F.F ....
....|..|--- .... ....|--- .... ....|--- .... ....
....|..|--- .... ....|--- .... ....|D#4 2F.7 ....
....|..|--- .... ....|--- .... ....|--- .... ....
....|..|--- .... ....|--- .... ....|C-4 2F.F ....
....|..|--- .... ....|--- .... ....|--- .... ....
....|..|--- .... ....|--- .... ....|G#4 2F.A ....
....|..|--- .... ....|--- .... ....|--- .... ....
....|..|--- .... ....|--- .... ....|F-4 2F.7 ....
....|..|--- .... ....|--- .... ....|R-- .... ....
....|..|--- .... ....|--- .... ....|--- .... ....
....|..|--- .... ....|--- .... ....|--- .... ....
 G#3|..|G#1 2F.7 ....|C-4 2F37 ....|G-4 2F.7 ....
....|..|--- .... ....|--- .... ....|--- .... ....
....|..|--- .... ....|--- .... ....|--- .... ....
....|..|--- .... ....|--- .... ....|--- .... ....
....|..|--- .... ....|--- .... ....|C-4 2F.F ....
....|..|--- .... ....|--- .... ....|--- .... ....
....|..|--- .... ....|--- .... ....|D-4 2F.F ....
....|..|--- .... ....|--- .... ....|--- .... ....
 A#3|..|A#1 2A.F ....|A#3 2F5F ....|D#4 2F.F ....
....|..|--- .... ....|--- .... ....|R-- .... ....
....|..|--- .... ....|--- .... ....|--- .... ....
....|..|--- .... ....|--- .... ....|--- .... ....
....|..|--- .... ....|--- .... ....|G-4 2F.7 ....
....|..|--- .... ....|--- .... ....|--- .... ....
....|..|--- .... ....|--- .... ....|D#4 2F.F ....
....|..|--- .... ....|--- .... ....|--- .... ....
....|..|--- .... ....|--- .... ....|C-4 2F.7 ....
....|..|--- .... ....|--- .... ....|--- .... ....
....|..|--- .... ....|--- .... ....|D-4 2F.A ....
....|..|--- .... ....|--- .... ....|--- .... ....
 A#3|..|A#1 2F.A ....|A#3 2F5A ....|D-4 2F.F ....
....|..|--- .... ....|--- .... ....|R-- .... ....
....|..|--- .... ....|--- .... ....|--- .... ....
....|..|--- .... ....|--- .... ....|--- .... ....
 A#3|..|A#1 2A.F ....|A#3 2F2F ....|D-4 2F.F ....
....|..|--- .... ....|--- .... ....|--- .... ....
....|..|--- .... ....|--- .... ....|D#4 2F.A ....
....|..|--- .... ....|--- .... ....|--- .... ....
....|..|--- .... ....|--- .... ....|C-4 2F.7 ....
....|..|--- .... ....|--- .... ....|--- .... ....
....|..|--- .... ....|--- .... ....|D-4 2F.7 ....
....|..|--- .... ....|--- .... ....|--- .... ....
 A#3|..|A#1 2F.7 ....|A#3 2F57 ....|D#4 2F.7 ....
....|..|--- .... ....|--- .... ....|--- .... ....
....|..|--- .... ....|--- .... ....|--- .... ....
....|..|--- .... ....|--- .... ....|--- .... ....
 A#3|..|A#1 2F.A ....|A#3 2F2A ....|D#4 2F.F ....
....|..|--- .... ....|--- .... ....|--- .... ....
....|..|--- .... ....|--- .... ....|F-4 2F.F ....
....|..|--- .... ....|--- .... ....|--- .... ....

[Pattern7]
 D#4|..|D#2 2A.F ....|A#3 2F6F ....|G#4 2F.F ....
....|..|--- .... ....|--- .... ....|--- .... ....
....|..|--- .... ....|--- .... ....|R-- .... ....
....|..|--- .... ....|--- .... ....|--- .... ....
....|..|--- .... ....|--- .... ....|D-4 2F.7 ....
....|..|--- .... ....|--- .... ....|--- .... ....
....|..|--- .... ....|--- .... ....|G-4 2F.F ....
....|..|--- .... ....|--- .... ....|--- .... ....
 A#3|..|A#1 2F.7 ....|A#3 2F27 ....|D-4 2F.7 ....
....|..|--- .... ....|--- .... ....|--- .... ....
....|..|--- .... ....|--- .... ....|F-4 2F.A ....
....|..|--- .... ....|--- .... ....|--- .... ....
 D#4|..|D#2 2F.A ....|A#3 2F6A ....|F-4 2F.F ....
....|..|--- .... ....|--- .... ....|--- .... ....
....|..|--- .... ....|--- .... ....|R-- .... ....
....|..|--- .... ....|--- .... ....|--- .... ....
 C-4|..|C-2 2A.F ....|C-4 2F3F ....|D#4 2F.F ....
....|..|--- .... ....|--- .... ....|--- .... ....
....|..|--- .... ....|--- .... ....|G-4 2F.A ....
....|..|--- .... ....|--- .... ....|--- .... ....
....|..|--- .... ....|--- .... ....|D#4 2F.7 ....
....|..|--- .... ....|--- .... ....|--- .... ....
....|..|--- .... ....|--- .... ....|F-4 2F.7 ....
....|..|--- .... ....|--- .... ....|--- .... ....
 D#4|..|D#2 2F.7 ....|A#3 2F67 ....|G#4 2F.7 ....
....|..|--- .... ....|--- .... ....|--- .... ....
....|..|--- .... ....|--- .... ....|--- .... ....
....|..|--- .... ....|--- .... ....|--- .... ....
 C-4|..|C-2 2F.A ....|C-4 2F3A ....|G-4 2F.F ....
....|..|--- .... ....|--- .... ....|--- .... ....
....|..|--- .... ....|--- .... ....|G-4 2F.7 ....
....|..|--- .... ....|--- .... ....|--- .... ....
 D-4|..|D-2 2A.F ....|A-3 2F6F ....|G-4 2F.F ....
....|..|--- .... ....|--- .... ....|--- .... ....
....|..|--- .... ....|--- .... ....|R-- .... ....
....|..|--- .... ....|--- .... ....|--- .... ....
....|..|--- .... ....|--- .... ....|F-4 2F.7 ....
....|..|--- .... ....|--- .... ....|--- .... ....
....|..|--- .... ....|--- .... ....|F-4 2F.F ....
....|..|--- .... ....|--- .... ....|--- .... ....
 C-4|..|C-2 2F.7 ....|C-4 2F37 ....|D#4 2F.7 ....
....|..|--- .... ....|--- .... ....|--- .... ....
....|..|--- .... ....|--- .... ....|--- .... ....
....|..|--- .... ....|--- .... ....|--- .... ....
 D-4|..|D-2 2F.A ....|A-3 2F6A ....|E-4 2F.F ....
....|..|--- .... ....|--- .... ....|--- .... ....
....|..|--- .... ....|--- .... ....|R-- .... ....
....|..|--- .... ....|--- .... ....|--- .... ....
....|..|--- .... ....|--- .... ....|F-4 2F.F ....
....|..|--- .... ....|--- .... ....|--- .... ....
....|..|--- .... ....|--- .... ....|F-4 2F.A ....
....|..|--- .... ....|--- .... ....|--- .... ....
....|..|--- .... ....|--- .... ....|G-4 2F.7 ....
....|..|--- .... ....|--- .... ....|--- .... ....
....|..|--- .... ....|--- .... ....|--- .... ....
....|..|--- .... ....|--- .... ....|--- .... ....
 D-4|..|D-2 2F.7 ....|A-3 2F67 ....|C-4 2F.F ....
....|..|--- .... ....|--- .... ....|--- .... ....
....|..|--- .... ....|--- .... ....|--- .... ....
....|..|--- .... ....|--- .... ....|--- .... ....
....|..|--- .... ....|--- .... ....|F-4 2F.A ....
....|..|--- .... ....|--- .... ....|--- .... ....
....|..|--- .... ....|--- .... ....|F-4 2F.7 ....
....|..|--- .... ....|--- .... ....|--- .... ....

[Pattern8]
 G-3|..|G-1 2A.F ....|C-4 2F7F ....|C-4 2F.F ....
....|..|--- .... ....|--- .... ....|--- .... ....
....|..|--- .... ....|--- .... ....|--- .... ....
....|..|--- .... ....|--- .... ....|--- .... ....
....|..|--- .... ....|--- .... ....|E-4 2F.7 ....
....|..|--- .... ....|--- .... ....|--- .... ....
....|..|--- .... ....|--- .... ....|--- .... ....
....|..|--- .... ....|--- .... ....|--- .... ....
....|..|--- .... ....|--- .... ....|F-4 2F.7 ....
....|..|--- .... ....|--- .... ....|--- .... ....
....|..|--- .... ....|--- .... ....|--- .... ....
....|..|--- .... ....|--- .... ....|--- .... ....
 G-3|..|G-1 2F.A ....|C-4 2F7A ....|D-4 2F.F ....
....|..|--- .... ....|--- .... ....|--- .... ....
....|..|--- .... ....|--- .... ....|--- .... ....
....|..|--- .... ....|--- .... ....|--- .... ....
 G-4|..|G-2 2A.F ....|B-3 2F8F ....|D-4 2F.F ....
....|..|--- .... ....|--- .... ....|--- .... ....
....|..|--- .... ....|--- .... ....|--- .... ....
....|..|--- .... ....|--- .... ....|--- .... ....
....|..|--- .... ....|--- .... ....|--- .... ....
....|..|--- .... ....|--- .... ....|--- .... ....
....|..|--- .... ....|--- .... ....|--- .... ....
....|..|--- .... ....|--- .... ....|--- .... ....
 G-3|..|G-1 2F.7 ....|C-4 2F77 ....|C-4 2F.7 ....
....|..|--- .... ....|--- .... ....|--- .... ....
....|..|--- .... ....|--- .... ....|--- .... ....
....|..|--- .... ....|--- .... ....|--- .... ....
 G-4|..|G-2 2F.A ....|B-3 2F8A ....|D-4 2F.A ....
....|..|--- .... ....|--- .... ....|--- .... ....
....|..|--- .... ....|--- .... ....|--- .... ....
....|..|--- .... ....|--- .... ....|--- .... ....
 D#4|..|D#2 2A.F ....|A#3 2F1F ....|D#2 2A.F ....
....|..|--- .... ....|--- .... ....|--- .... ....
....|..|--- .... ....|--- .... ....|--- .... ....
....|..|--- .... ....|--- .... ....|--- .... ....
....|..|--- .... ....|--- .... ....|D-4 2F.7 ....
....|..|--- .... ....|--- .... ....|--- .... ....
....|..|--- .... ....|--- .... ....|--- .... ....
....|..|--- .... ....|--- .... ....|--- .... ....
 G-4|..|G-2 2F.7 ....|B-3 2F87 ....|D#4 2F.F ....
....|..|--- .... ....|--- .... ....|--- .... ....
....|..|--- .... ....|--- .... ....|--- .... ....
....|..|--- .... ....|--- .... ....|--- .... ....
 D#4|..|D#2 2F.A ....|A#3 2F1A ....|R-- .... ....
....|..|--- .... ....|--- .... ....|--- .... ....
....|..|--- .... ....|--- .... ....|A#3 2F.F ....
....|..|--- .... ....|--- .... ....|--- .... ....
....|..|--- .... ....|--- .... ....|R-- .... ....
....|..|--- .... ....|--- .... ....|R-- .... ....
....|..|--- .... ....|--- .... ....|--- .... ....
....|..|--- .... ....|--- .... ....|--- .... ....
....|..|--- .... ....|--- .... ....|D#4 2F.A ....
....|..|--- .... ....|--- .... ....|--- .... ....
....|..|--- .... ....|--- .... ....|--- .... ....
....|..|--- .... ....|--- .... ....|--- .... ....
 D#4|..|D#2 2F.7 ....|A#3 2F17 ....|D#2 2F.7 ....
....|..|--- .... ....|--- .... ....|--- .... ....
....|..|--- .... ....|--- .... ....|A#3 2F.A ....
....|..|--- .... ....|--- .... ....|--- .... ....
....|..|--- .... ....|--- .... ....|D#4 2F.F ....
....|..|--- .... ....|--- .... ....|R-- .... ....
....|..|--- .... ....|--- .... ....|--- .... ....
....|..|--- .... ....|--- .... ....|R-- .... ....

[Pattern9]
 A#3|..|A#1 2A.F ....|A#3 2F2F ....|D#4 2F.F ....
....|..|--- .... ....|--- .... ....|--- .... ....
....|..|--- .... ....|--- .... ....|--- .... ....
....|..|--- .... ....|--- .... ....|--- .... ....
....|..|--- .... ....|--- .... ....|R-- .... ....
....|..|--- .... ....|--- .... ....|--- .... ....
....|..|--- .... ....|--- .... ....|F-4 2F.F ....
....|..|--- .... ....|--- .... ....|--- .... ....
....|..|--- .... ....|--- .... ....|D#4 2F.A ....
....|..|--- .... ....|--- .... ....|R-- .... ....
....|..|--- .... ....|--- .... ....|--- .... ....
....|..|--- .... ....|--- .... ....|R-- .... ....
 A#3|..|A#1 2F.A ....|A#3 2F2A ....|A#3 2F.F ....
....|..|--- .... ....|--- .... ....|--- .... ....
....|..|--- .... ....|--- .... ....|--- .... ....
....|..|--- .... ....|--- .... ....|--- .... ....
....|..|--- .... ....|--- .... ....|A#3 2F.F ....
....|..|--- .... ....|--- .... ....|--- .... ....
....|..|--- .... ....|--- .... ....|F-4 2F.A ....
....|..|--- .... ....|--- .... ....|--- .... ....
....|..|--- .... ....|--- .... ....|D#4 2F.7 ....
....|..|--- .... ....|--- .... ....|--- .... ....
....|..|--- .... ....|--- .... ....|--- .... ....
....|..|--- .... ....|--- .... ....|R-- .... ....
 A#3|..|A#1 2F.7 ....|A#3 2F27 ....|D#4 2F.7 ....
....|..|--- .... ....|--- .... ....|--- .... ....
....|..|--- .... ....|--- .... ....|--- .... ....
....|..|--- .... ....|--- .... ....|--- .... ....
....|..|--- .... ....|--- .... ....|A#3 2F.F ....
....|..|--- .... ....|--- .... ....|--- .... ....
....|..|--- .... ....|--- .... ....|F-4 2F.7 ....
....|..|--- .... ....|--- .... ....|--- .... ....
 C-4|..|C-2 2A.F ....|C-4 2F3F ....|G-4 2F.F ....
....|..|--- .... ....|--- .... ....|--- .... ....
....|..|--- .... ....|--- .... ....|--- .... ....
....|..|--- .... ....|--- .... ....|--- .... ....
....|..|--- .... ....|--- .... ....|A#3 2F.7 ....
....|..|--- .... ....|--- .... ....|--- .... ....
....|..|--- .... ....|--- .... ....|G#4 2F.F ....
....|..|--- .... ....|--- .... ....|--- .... ....
....|..|--- .... ....|--- .... ....|A#3 2F.7 ....
....|..|--- .... ....|--- .... ....|--- .... ....
....|..|--- .... ....|--- .... ....|--- .... ....
....|..|--- .... ....|--- .... ....|--- .... ....
 C-4|..|C-2 2F.A ....|C-4 2F3A ....|G-4 2F.F ....
....|..|--- .... ....|--- .... ....|--- .... ....
....|..|--- .... ....|--- .... ....|--- .... ....
....|..|--- .... ....|--- .... ....|--- .... ....
 A#3|..|A#1 2A.F ....|D-4 2F4F ....|F-4 2F.F ....
....|..|--- .... ....|--- .... ....|--- .... ....
....|..|--- .... ....|--- .... ....|G#4 2F.A ....
....|..|--- .... ....|--- .... ....|--- .... ....
....|..|--- .... ....|--- .... ....|A#3 2F.7 ....
....|..|--- .... ....|--- .... ....|--- .... ....
....|..|--- .... ....|--- .... ....|D#4 2F.F ....
....|..|--- .... ....|--- .... ....|--- .... ....
 C-4|..|C-2 2F.7 ....|C-4 2F37 ....|G-4 2F.7 ....
....|..|--- .... ....|--- .... ....|--- .... ....
....|..|--- .... ....|--- .... ....|--- .... ....
....|..|--- .... ....|--- .... ....|--- .... ....
 A#3|..|A#1 2F.A ....|D-4 2F4A ....|F-4 2F.F ....
....|..|--- .... ....|--- .... ....|--- .... ....
....|..|--- .... ....|--- .... ....|G#4 2F.7 ....
....|..|--- .... ....|--- .... ....|--- .... ....

[Pattern10]
 G#3|..|G#1 2A.F ....|C-4 2F3F ....|G-4 2F.F ....
....|..|--- .... ....|--- .... ....|--- .... ....
....|..|--- .... ....|--- .... ....|D#4 2F.A ....
....|..|--- .... ....|--- .... ....|--- .... ....
....|..|--- .... ....|--- .... ....|G-4 2F.7 ....
....|..|--- .... ....|--- .... ....|--- .... ....
....|..|--- .... ....|--- .... ....|G#4 2F.F ....
....|..|--- .... ....|--- .... ....|--- .... ....
 A#3|..|A#1 2F.7 ....|D-4 2F47 ....|F-4 2F.7 ....
....|..|--- .... ....|--- .... ....|--- .... ....
....|..|--- .... ....|--- .... ....|--- .... ....
....|..|--- .... ....|--- .... ....|--- .... ....
 G#3|..|G#1 2F.A ....|C-4 2F3A ....|G-4 2F.F ....
....|..|--- .... ....|--- .... ....|--- .... ....
....|..|--- .... ....|--- .... ....|D#4 2F.7 ....
....|..|--- .... ....|--- .... ....|--- .... ....
....|..|--- .... ....|--- .... ....|C-4 2F.F ....
....|..|--- .... ....|--- .... ....|--- .... ....
....|..|--- .... ....|--- .... ....|G#4 2F.A ....
....|..|--- .... ....|--- .... ....|--- .... ....
....|..|--- .... ....|--- .... ....|F-4 2F.7 ....
....|..|--- .... ....|--- .... ....|--- .... ....
....|..|--- .... ....|--- .... ....|R-- .... ....
....|..|--- .... ....|--- .... ....|--- .... ....
 G#3|..|G#1 2F.7 ....|C-4 2F37 ....|G-4 2F.7 ....
....|..|--- .... ....|--- .... ....|--- .... ....
....|..|--- .... ....|--- .... ....|--- .... ....
....|..|--- .... ....|--- .... ....|--- .... ....
....|..|--- .... ....|--- .... ....|C-4 2F.F ....
....|..|--- .... ....|--- .... ....|--- .... ....
....|..|--- .... ....|--- .... ....|D-4 2F.F ....
....|..|--- .... ....|--- .... ....|--- .... ....
 A#3|..|A#1 2A.F ....|A#3 2F5F ....|D#4 2F.F ....
....|..|--- .... ....|--- .... ....|--- .... ....
....|..|--- .... ....|--- .... ....|R-- .... ....
....|..|--- .... ....|--- .... ....|--- .... ....
....|..|--- .... ....|--- .... ....|G-4 2F.7 ....
....|..|--- .... ....|--- .... ....|--- .... ....
....|..|--- .... ....|--- .... ....|D#4 2F.F ....
....|..|--- .... ....|--- .... ....|--- .... ....
....|..|--- .... ....|--- .... ....|C-4 2F.7 ....
....|..|--- .... ....|--- .... ....|--- .... ....
....|..|--- .... ....|--- .... ....|D-4 2F.A ....
....|..|--- .... ....|--- .... ....|--- .... ....
 A#3|..|A#1 2F.A ....|A#3 2F5A ....|D-4 2F.F ....
....|..|--- .... ....|--- .... ....|--- .... ....
....|..|--- .... ....|--- .... ....|R-- .... ....
....|..|--- .... ....|--- .... ....|--- .... ....
 A#3|..|A#1 2A.F ....|A#3 2F2F ....|D-4 2F.F ....
....|..|--- .... ....|--- .... ....|--- .... ....
....|..|--- .... ....|--- .... ....|D#4 2F.A ....
....|..|--- .... ....|--- .... ....|--- .... ....
....|..|--- .... ....|--- .... ....|C-4 2F.7 ....
....|..|--- .... ....|--- .... ....|--- .... ....
....|..|--- .... ....|--- .... ....|D-4 2F.7 ....
....|..|--- .... ....|--- .... ....|--- .... ....
 A#3|..|A#1 2F.7 ....|A#3 2F57 ....|D#4 2F.7 ....
....|..|--- .... ....|--- .... ....|--- .... ....
....|..|--- .... ....|--- .... ....|--- .... ....
....|..|--- .... ....|--- .... ....|--- .... ....
 A#3|..|A#1 2F.A ....|A#3 2F2A ....|D#4 2F.F ....
....|..|--- .... ....|--- .... ....|--- .... ....
....|..|--- .... ....|--- .... ....|F-4 2F.F ....
....|..|--- .... ....|--- .... ....|--- .... ....

[Pattern11]
 D#4|..|D#2 2A.F ....|A#3 2F6F ....|G#4 2F.F ....
....|..|--- .... ....|--- .... ....|--- .... ....
....|..|--- .... ....|--- .... ....|R-- .... ....
....|..|--- .... ....|--- .... ....|--- .... ....
....|..|--- .... ....|--- .... ....|D-4 2F.7 ....
....|..|--- .... ....|--- .... ....|--- .... ....
....|..|--- .... ....|--- .... ....|G-4 2F.F ....
....|..|--- .... ....|--- .... ....|--- .... ....
 A#3|..|A#1 2F.7 ....|A#3 2F27 ....|D-4 2F.7 ....
....|..|--- .... ....|--- .... ....|--- .... ....
....|..|--- .... ....|--- .... ....|F-4 2F.A ....
....|..|--- .... ....|--- .... ....|--- .... ....
 D#4|..|D#2 2F.A ....|A#3 2F6A ....|F-4 2F.F ....
....|..|--- .... ....|--- .... ....|--- .... ....
....|..|--- .... ....|--- .... ....|R-- .... ....
....|..|--- .... ....|--- .... ....|--- .... ....
 C-4|..|C-2 2A.F ....|C-4 2F3F ....|D#4 2F.F ....
....|..|--- .... ....|--- .... ....|--- .... ....
....|..|--- .... ....|--- .... ....|G-4 2F.A ....
....|..|--- .... ....|--- .... ....|--- .... ....
....|..|--- .... ....|--- .... ....|D#4 2F.7 ....
....|..|--- .... ....|--- .... ....|--- .... ....
....|..|--- .... ....|--- .... ....|F-4 2F.7 ....
....|..|--- .... ....|--- .... ....|--- .... ....
 D#4|..|D#2 2F.7 ....|A#3 2F67 ....|G#4 2F.7 ....
....|..|--- .... ....|--- .... ....|--- .... ....
....|..|--- .... ....|--- .... ....|--- .... ....
....|..|--- .... ....|--- .... ....|--- .... ....
 C-4|..|C-2 2F.A ....|C-4 2F3A ....|G-4 2F.F ....
....|..|--- .... ....|--- .... ....|--- .... ....
....|..|--- .... ....|--- .... ....|G-4 2F.7 ....
....|..|--- .... ....|--- .... ....|--- .... ....
 D-4|..|D-2 2A.F ....|C-4 2F1F ....|G-4 2F.F ....
....|..|--- .... ....|--- .... ....|--- .... ....
....|..|--- .... ....|--- .... ....|R-- .... ....
....|..|--- .... ....|--- .... ....|--- .... ....
....|..|--- .... ....|--- .... ....|F-4 2F.7 ....
....|..|--- .... ....|--- .... ....|--- .... ....
....|..|--- .... ....|--- .... ....|F-4 2F.F ....
....|..|--- .... ....|--- .... ....|--- .... ....
 C-4|..|C-2 2F.7 ....|C-4 2F37 ....|D#4 2F.7 ....
....|..|--- .... ....|--- .... ....|--- .... ....
....|..|--- .... ....|--- .... ....|--- .... ....
....|..|--- .... ....|--- .... ....|--- .... ....
 D-4|..|D-2 2F.A ....|C-4 2F1A ....|E-4 2F.F ....
....|..|--- .... ....|--- .... ....|--- .... ....
....|..|--- .... ....|--- .... ....|R-- .... ....
....|..|--- .... ....|--- .... ....|--- .... ....
....|..|--- .... ....|D-4 2F9F ....|F-4 2F.F ....
....|..|--- .... ....|--- .... ....|--- .... ....
....|..|--- .... ....|--- .... ....|F-4 2F.A ....
....|..|--- .... ....|--- .... ....|--- .... ....
....|..|--- .... ....|--- .... ....|G-4 2F.7 ....
....|..|--- .... ....|--- .... ....|--- .... ....
....|..|--- .... ....|--- .... ....|G-4 2F.F ....
....|..|--- .... ....|--- .... ....|--- .... ....
 D-4|..|D-2 2F.7 ....|C-4 2F17 ....|G-4 2F.7 ....
....|..|--- .... ....|--- .... ....|--- .... ....
....|..|--- .... ....|--- .... ....|--- .... ....
....|..|--- .... ....|--- .... ....|--- .... ....
....|..|--- .... ....|D-4 2F9A ....|G#4 2F.F ....
....|..|--- .... ....|--- .... ....|--- .... ....
....|..|--- .... ....|--- .... ....|F-4 2F.7 ....
....|..|--- .... ....|--- .... ....|--- .... ....

[Pattern12]
 G-3|..|G-1 2A.F ....|D-4 2F6F ....|G-4 2F.F ....
....|..|--- .... ....|--- .... ....|--- .... ....
....|..|--- .... ....|--- .... ....|G-4 2F.A ....
....|..|--- .... ....|--- .... ....|--- .... ....
....|..|--- .... ....|--- .... ....|E-4 2F.7 ....
....|..|--- .... ....|--- .... ....|--- .... ....
....|..|--- .... ....|--- .... ....|--- .... ....
....|..|--- .... ....|--- .... ....|--- .... ....
 G-3|..|G-1 2A.F ....|D-4 2F1F ....|G-1 2A.F ....
....|..|--- .... ....|--- .... ....|--- .... ....
....|..|--- .... ....|--- .... ....|--- .... ....
....|..|--- .... ....|--- .... ....|--- .... ....
 G-3|..|G-1 2F.A ....|D-4 2F6A ....|G-4 2F.A ....
....|..|--- .... ....|--- .... ....|--- .... ....
....|..|--- .... ....|--- .... ....|G-4 2F.7 ....
....|..|--- .... ....|--- .... ....|--- .... ....
 G-4|..|G-2 2A.F ....|D-4 2F5F ....|G-2 2A.F ....
....|..|--- .... ....|--- .... ....|--- .... ....
....|..|--- .... ....|--- .... ....|--- .... ....
....|..|--- .... ....|--- .... ....|--- .... ....
 G-3|..|G-1 2F.A ....|D-4 2F1A ....|G#4 2F.7 ....
....|..|--- .... ....|--- .... ....|--- .... ....
....|..|--- .... ....|--- .... ....|--- .... ....
....|..|--- .... ....|--- .... ....|--- .... ....
 G-3|..|G-1 2A.F ....|D-4 2F1F ....|G-1 2A.F ....
....|..|--- .... ....|--- .... ....|--- .... ....
....|..|--- .... ....|--- .... ....|--- .... ....
....|..|--- .... ....|--- .... ....|--- .... ....
 G-4|..|G-2 2F.A ....|D-4 2F5A ....|G-2 2F.A ....
....|..|--- .... ....|--- .... ....|--- .... ....
....|..|--- .... ....|--- .... ....|--- .... ....
....|..|--- .... ....|--- .... ....|--- .... ....
 G#3|..|G#1 2A.F ....|G#4 2F2F ....|D#4 2F.F ....
....|..|--- .... ....|--- .... ....|--- .... ....
....|..|--- .... ....|--- .... ....|--- .... ....
....|..|R-- .... ....|--- .... ....|R-- .... ....
 G#3|..|G#1 2A.F ....|D-4 2F1A ....|G#1 2A.F ....
....|..|--- .... ....|--- .... ....|R-- .... ....
....|..|--- .... ....|--- .... ....|D#4 2F.F ....
....|..|R-- .... ....|--- .... ....|R-- .... ....
 G#3|..|G#1 2A.F ....|D-4 2F57 ....|G#1 2A.F ....
....|..|--- .... ....|--- .... ....|--- .... ....
 G#3|..|G#1 2A.F ....|--- .... ....|G#1 2A.F ....
....|..|--- .... ....|--- .... ....|R-- .... ....
 G#3|..|G#1 2F.A ....|G#4 2F2A ....|D-4 2F.F ....
....|..|--- .... ....|--- .... ....|--- .... ....
 G#3|..|G#1 2A.F ....|--- .... ....|G#1 2A.F ....
....|..|R-- .... ....|--- .... ....|R-- .... ....
 G#3|..|G#1 2A.F ....|D-4 2F17 ....|D#4 2F.F ....
....|..|R-- .... ....|--- .... ....|R-- .... ....
 G#3|..|G#1 2A.F ....|--- .... ....|G#1 2A.F ....
....|..|R-- .... ....|--- .... ....|R-- .... ....
 G#3|..|G#1 2F.A ....|--- .... ....|G#1 2F.A ....
....|..|R-- .... ....|--- .... ....|R-- .... ....
 G#3|..|G#1 2A.F ....|--- .... ....|D#4 2F.F ....
....|..|R-- .... ....|--- .... ....|R-- .... ....
 G#3|..|G#1 2A.F ....|G#4 2F27 ....|G#1 2A.F ....
....|..|--- .... ....|--- .... ....|--- .... ....
 G#3|..|G#1 2A.F ....|--- .... ....|G#1 2A.F ....
....|..|R-- .... ....|--- .... ....|R-- .... ....
 G#3|..|G#1 2F.7 ....|--- .... ....|D-4 2F.F ....
....|..|R-- .... ....|--- .... ....|R-- .... ....
 G#3|..|G#1 2A.F ....|--- .... ....|G#1 2A.F ....
....|..|R-- .... ....|--- .... ....|R-- .... ....

[Pattern13]
 G-3|..|G-1 2A.F ....|A#4 2F2F ....|F-4 2F.F ....
....|..|R-- .... ....|--- .... ....|R-- .... ....
 G#3|..|G#1 2F.7 ....|--- .... ....|G#1 2F.7 ....
....|..|R-- .... ....|--- .... ....|R-- .... ....
 G-3|..|G-1 2A.F ....|--- .... ....|G-1 2A.F ....
....|..|--- .... ....|--- .... ....|R-- .... ....
 G#3|..|G#1 2F.7 ....|--- .... ....|F-4 2F.F ....
....|..|R-- .... ....|--- .... ....|R-- .... ....
 G-3|..|G-1 2A.F ....|--- .... ....|G-1 2A.F ....
....|..|R-- .... ....|--- .... ....|R-- .... ....
 G-3|..|G-1 2A.F ....|--- .... ....|G-1 2A.F ....
....|..|R-- .... ....|--- .... ....|R-- .... ....
 F-3|..|F-1 2A.F ....|A#4 2F2A ....|D#4 2F.F ....
....|..|R-- .... ....|--- .... ....|R-- .... ....
 G-3|..|G-1 2A.F ....|--- .... ....|G-1 2A.F ....
....|..|R-- .... ....|--- .... ....|R-- .... ....
 C-4|..|C-2 2A.F ....|G-4 2FAF ....|D-4 2F.F ....
....|..|R-- .... ....|--- .... ....|R-- .... ....
 C-4|..|C-2 2A.F ....|--- .... ....|C-2 2A.F ....
....|..|R-- .... ....|--- .... ....|R-- .... ....
 G-3|..|G-1 2F.A ....|--- .... ....|D-4 2F.7 ....
....|..|R-- .... ....|--- .... ....|R-- .... ....
 C-4|..|C-2 2A.F ....|--- .... ....|C-4 2F.F ....
....|..|R-- .... ....|--- .... ....|R-- .... ....
 C-4|..|C-2 2A.F ....|A#4 2F27 ....|C-2 2A.F ....
....|..|--- .... ....|--- .... ....|--- .... ....
 C-4|..|C-2 2A.F ....|--- .... ....|C-2 2A.F ....
....|..|R-- .... ....|--- .... ....|R-- .... ....
 A#3|..|A#1 2A.F ....|G-4 2FAA ....|D-4 2F.F ....
....|..|R-- .... ....|--- .... ....|R-- .... ....
 C-4|..|C-2 2A.F ....|--- .... ....|C-2 2A.F ....
....|..|R-- .... ....|--- .... ....|R-- .... ....
 F-3|..|F-1 2A.F ....|F-4 2F3F ....|D#4 2F.F ....
....|..|R-- .... ....|--- .... ....|R-- .... ....
 G-3|..|G-1 2F.7 ....|--- .... ....|G-1 2F.7 ....
....|..|R-- .... ....|--- .... ....|R-- .... ....
 F-3|..|F-1 2A.F ....|--- .... ....|F-1 2A.F ....
....|..|--- .... ....|--- .... ....|R-- .... ....
 G-3|..|G-1 2F.7 ....|--- .... ....|D#4 2F.F ....
....|..|R-- .... ....|--- .... ....|R-- .... ....
 F-3|..|F-1 2A.F ....|G-4 2FA7 ....|F-1 2A.F ....
....|..|R-- .... ....|--- .... ....|R-- .... ....
 F-3|..|F-1 2A.F ....|--- .... ....|F-1 2A.F ....
....|..|R-- .... ....|--- .... ....|R-- .... ....
 F-3|..|F-1 2A.F ....|F-4 2F3A ....|D-4 2F.F ....
....|..|R-- .... ....|--- .... ....|R-- .... ....
 F-3|..|F-1 2A.F ....|--- .... ....|F-1 2A.F ....
....|..|R-- .... ....|--- .... ....|R-- .... ....
 A#3|..|A#1 2A.F ....|D-4 2F9F ....|F-4 2F.F ....
....|..|R-- .... ....|--- .... ....|R-- .... ....
 A#3|..|A#1 2A.F ....|--- .... ....|A#1 2A.F ....
....|..|R-- .... ....|--- .... ....|R-- .... ....
 A#3|..|A#1 2F.7 ....|--- .... ....|D-4 2F.7 ....
....|..|R-- .... ....|--- .... ....|R-- .... ....
 A#3|..|A#1 2A.F ....|--- .... ....|D-4 2F.F ....
....|..|R-- .... ....|--- .... ....|R-- .... ....
 A#3|..|A#1 2A.F ....|F-4 2F37 ....|A#1 2A.F ....
....|..|--- .... ....|--- .... ....|--- .... ....
 A#3|..|A#1 2A.F ....|--- .... ....|A#1 2A.F ....
....|..|R-- .... ....|--- .... ....|R-- .... ....
 A#3|..|A#1 2A.F ....|D-4 2F9A ....|C-4 2F.F ....
....|..|R-- .... ....|--- .... ....|R-- .... ....
 A#3|..|A#1 2A.F ....|--- .... ....|A#1 2A.F ....
....|..|R-- .... ....|--- .... ....|R-- .... ....

[Pattern14]
 A#3|..|A#1 2A.F ....|A#4 2F3F ....|A#3 2F.F ....
....|..|R-- .... ....|--- .... ....|R-- .... ....
 F-3|..|F-1 2F.7 ....|--- .... ....|F-1 2F.7 ....
....|..|R-- .... ....|--- .... ....|R-- .... ....
 A#3|..|A#1 2A.F ....|--- .... ....|A#1 2A.F ....
....|..|--- .... ....|--- .... ....|--- .... ....
 F-3|..|F-1 2F.7 ....|--- .... ....|F-1 2F.7 ....
....|..|R-- .... ....|--- .... ....|R-- .... ....
 A#3|..|A#1 2A.F ....|C-4 2F3F ....|A#1 2A.F ....
....|..|R-- .... ....|--- .... ....|R-- .... ....
 A#3|..|A#1 2A.F ....|--- .... ....|A#1 2A.F ....
....|..|R-- .... ....|--- .... ....|R-- .... ....
 F-3|..|F-1 2A.F ....|A#4 2F3A ....|F-1 2A.F ....
....|..|R-- .... ....|--- .... ....|R-- .... ....
 A#3|..|A#1 2A.F ....|--- .... ....|A#1 2A.F ....
....|..|R-- .... ....|--- .... ....|R-- .... ....
 D#4|..|D#2 2A.F ....|C#4 2F2F ....|D#2 2A.F ....
....|..|R-- .... ....|--- .... ....|R-- .... ....
 D#4|..|D#2 2A.F ....|--- .... ....|D#2 2A.F ....
....|..|R-- .... ....|--- .... ....|R-- .... ....
 A#3|..|A#1 2F.7 ....|C-4 2F3A ....|C-4 2F.7 ....
....|..|R-- .... ....|--- .... ....|R-- .... ....
 D#4|..|D#2 2A.F ....|--- .... ....|D#2 2A.F ....
....|..|R-- .... ....|--- .... ....|R-- .... ....
 D#4|..|D#2 2A.F ....|D#4 2F2F ....|D#2 2A.F ....
....|..|--- .... ....|--- .... ....|--- .... ....
 D#4|..|D#2 2A.F ....|--- .... ....|D#2 2A.F ....
....|..|R-- .... ....|--- .... ....|R-- .... ....
 A#3|..|A#1 2A.F ....|C#4 2F2A ....|A#1 2A.F ....
....|..|R-- .... ....|--- .... ....|R-- .... ....
 G-3|..|G-1 2A.F ....|--- .... ....|G-1 2A.F ....
....|..|R-- .... ....|--- .... ....|R-- .... ....
 G#3|..|G#1 2A.F ....|D#4 2F1F ....|D#4 2F.F ....
....|..|R-- .... ....|--- .... ....|R-- .... ....
 A#3|..|A#1 2F.7 ....|--- .... ....|A#1 2F.7 ....
....|..|R-- .... ....|--- .... ....|R-- .... ....
 G#3|..|G#1 2A.F ....|D#4 2F2A ....|G#1 2A.F ....
....|..|--- .... ....|--- .... ....|R-- .... ....
 A#3|..|A#1 2F.7 ....|--- .... ....|D#4 2F.F ....
....|..|R-- .... ....|--- .... ....|R-- .... ....
 G#3|..|G#1 2A.F ....|C#4 2F27 ....|G#1 2A.F ....
....|..|R-- .... ....|--- .... ....|R-- .... ....
 G#3|..|G#1 2A.F ....|--- .... ....|G#1 2A.F ....
....|..|R-- .... ....|--- .... ....|R-- .... ....
 G#3|..|G#1 2F.A ....|D#4 2F1A ....|D-4 2F.F ....
....|..|R-- .... ....|--- .... ....|R-- .... ....
 G#3|..|G#1 2A.F ....|--- .... ....|G#1 2A.F ....
....|..|R-- .... ....|--- .... ....|R-- .... ....
 G#3|..|G#1 2A.F ....|D#4 2F27 ....|D#4 2F.F ....
....|..|R-- .... ....|--- .... ....|R-- .... ....
 G#3|..|G#1 2A.F ....|--- .... ....|G#1 2A.F ....
....|..|R-- .... ....|--- .... ....|R-- .... ....
 A#3|..|A#1 2F.7 ....|--- .... ....|A#1 2F.7 ....
....|..|R-- .... ....|--- .... ....|R-- .... ....
 G#3|..|G#1 2A.F ....|--- .... ....|D#4 2F.F ....
....|..|R-- .... ....|--- .... ....|R-- .... ....
 G#3|..|G#1 2A.F ....|D#4 2F17 ....|G#1 2A.F ....
....|..|--- .... ....|--- .... ....|--- .... ....
 G#3|..|G#1 2A.F ....|--- .... ....|G#1 2A.F ....
....|..|R-- .... ....|--- .... ....|R-- .... ....
 G#3|..|G#1 2F.7 ....|--- .... ....|D-4 2F.F ....
....|..|R-- .... ....|--- .... ....|R-- .... ....
 G#3|..|G#1 2A.F ....|--- .... ....|G#1 2A.F ....
....|..|R-- .... ....|--- .... ....|R-- .... ....

[Pattern15]
 G-3|..|G-1 2A.F ....|D-4 2FAF ....|F-4 2F.F ....
....|..|R-- .... ....|--- .... ....|R-- .... ....
 G#3|..|G#1 2F.7 ....|--- .... ....|G#1 2F.7 ....
....|..|R-- .... ....|--- .... ....|R-- .... ....
 G-3|..|G-1 2A.F ....|--- .... ....|G-1 2A.F ....
....|..|--- .... ....|--- .... ....|R-- .... ....
 G#3|..|G#1 2F.7 ....|--- .... ....|F-4 2F.F ....
....|..|R-- .... ....|--- .... ....|R-- .... ....
 G-3|..|G-1 2A.F ....|--- .... ....|G-1 2A.F ....
....|..|R-- .... ....|--- .... ....|R-- .... ....
 G-3|..|G-1 2A.F ....|--- .... ....|G-1 2A.F ....
....|..|R-- .... ....|--- .... ....|R-- .... ....
 F-3|..|F-1 2A.F ....|D-4 2FAA ....|D#4 2F.F ....
....|..|R-- .... ....|--- .... ....|R-- .... ....
 G-3|..|G-1 2A.F ....|--- .... ....|G-1 2A.F ....
....|..|R-- .... ....|--- .... ....|R-- .... ....
 C-4|..|C-2 2A.F ....|D#4 2FBF ....|D-4 2F.F ....
....|..|R-- .... ....|--- .... ....|R-- .... ....
 C-4|..|C-2 2A.F ....|--- .... ....|C-2 2A.F ....
....|..|R-- .... ....|--- .... ....|R-- .... ....
 G-3|..|G-1 2F.A ....|--- .... ....|D-4 2F.7 ....
....|..|R-- .... ....|--- .... ....|R-- .... ....
 C-4|..|C-2 2A.F ....|--- .... ....|D#4 2F.F ....
....|..|R-- .... ....|--- .... ....|R-- .... ....
 C-4|..|C-2 2A.F ....|D-4 2FA7 ....|C-2 2A.F ....
....|..|--- .... ....|--- .... ....|--- .... ....
 C-4|..|C-2 2A.F ....|--- .... ....|C-2 2A.F ....
....|..|R-- .... ....|--- .... ....|R-- .... ....
 A#3|..|A#1 2A.F ....|D#4 2FBA ....|F-4 2F.F ....
....|..|R-- .... ....|--- .... ....|R-- .... ....
 C-4|..|C-2 2A.F ....|--- .... ....|C-2 2A.F ....
....|..|R-- .... ....|--- .... ....|R-- .... ....
 D-4|..|D-2 2A.F ....|F-4 2FCF ....|G-4 2F.F ....
....|..|R-- .... ....|--- .... ....|R-- .... ....
 G-3|..|G-1 2F.7 ....|--- .... ....|G-1 2F.7 ....
....|..|R-- .... ....|--- .... ....|R-- .... ....
 D-4|..|D-2 2A.F ....|--- .... ....|D-2 2A.F ....
....|..|--- .... ....|--- .... ....|R-- .... ....
 G-3|..|G-1 2F.7 ....|--- .... ....|G#4 2F.F ....
....|..|R-- .... ....|--- .... ....|R-- .... ....
 D-4|..|D-2 2A.F ....|D#4 2FB7 ....|D-2 2A.F ....
....|..|R-- .... ....|--- .... ....|R-- .... ....
 D-4|..|D-2 2A.F ....|--- .... ....|D-2 2A.F ....
....|..|R-- .... ....|--- .... ....|R-- .... ....
 D-4|..|D-2 2A.F ....|F-4 2FCA ....|G-4 2F.F ....
....|..|R-- .... ....|--- .... ....|R-- .... ....
 D-4|..|D-2 2A.F ....|--- .... ....|D-2 2A.F ....
....|..|R-- .... ....|--- .... ....|R-- .... ....
 D-4|..|D-2 2A.F ....|--- .... ....|F-4 2F.F ....
....|..|R-- .... ....|--- .... ....|R-- .... ....
 D-4|..|D-2 2A.F ....|--- .... ....|D-2 2A.F ....
....|..|R-- .... ....|--- .... ....|R-- .... ....
 A#3|..|A#1 2F.7 ....|--- .... ....|F-4 2F.7 ....
....|..|R-- .... ....|--- .... ....|R-- .... ....
 D-4|..|D-2 2A.F ....|--- .... ....|D#4 2F.F ....
....|..|R-- .... ....|--- .... ....|R-- .... ....
 D-4|..|D-2 2A.F ....|F-4 2FC7 ....|D-2 2A.F ....
....|..|--- .... ....|--- .... ....|--- .... ....
 D-4|..|D-2 2A.F ....|--- .... ....|D-2 2A.F ....
....|..|R-- .... ....|--- .... ....|R-- .... ....
 D-4|..|D-2 2A.F ....|--- .... ....|F-4 2F.F ....
....|..|R-- .... ....|--- .... ....|R-- .... ....
 D-4|..|D-2 2A.F ....|--- .... ....|D-2 2A.F ....
....|..|R-- .... ....|--- .... ....|R-- .... ....

[Pattern16]
 G-3|..|G-1 2A.F ....|R-- .... ....|G-4 2F.F ....
....|..|R-- .... ....|--- .... ....|R-- .... ....
 D-4|..|D-2 2F.7 ....|--- .... ....|D-2 2F.7 ....
....|..|R-- .... ....|--- .... ....|R-- .... ....
 G-3|..|G-1 2A.F ....|--- .... ....|G-1 2A.F ....
....|..|--- .... ....|--- .... ....|--- .... ....
 D-4|..|D-2 2F.7 ....|--- .... ....|D-2 2F.7 ....
....|..|R-- .... ....|--- .... ....|R-- .... ....
 G-3|..|G-1 2A.F ....|--- .... ....|G-1 2A.F ....
....|..|R-- .... ....|--- .... ....|R-- .... ....
 G-3|..|G-1 2A.F ....|--- .... ....|G-1 2A.F ....
....|..|R-- .... ....|--- .... ....|R-- .... ....
 G-3|..|G-1 2A.F ....|R-- .... ....|G-1 2A.F ....
....|..|R-- .... ....|--- .... ....|R-- .... ....
 G-3|..|G-1 2A.F ....|--- .... ....|G-1 2A.F ....
....|..|R-- .... ....|--- .... ....|R-- .... ....
 G-3|..|G-1 2A.F ....|--- .... ....|G-1 2A.F ....
....|..|R-- .... ....|--- .... ....|R-- .... ....
 G-3|..|G-1 2A.F ....|--- .... ....|G-1 2A.F ....
....|..|R-- .... ....|--- .... ....|R-- .... ....
 D-4|..|D-2 2F.7 ....|--- .... ....|F-4 2F.7 ....
....|..|R-- .... ....|--- .... ....|R-- .... ....
 G-3|..|G-1 2A.F ....|--- .... ....|G-1 2A.F ....
....|..|R-- .... ....|--- .... ....|R-- .... ....
 G-3|..|G-1 2A.F ....|R-- .... ....|G-1 2A.F ....
....|..|--- .... ....|--- .... ....|--- .... ....
 G-3|..|G-1 2A.F ....|--- .... ....|G-1 2A.F ....
....|..|R-- .... ....|--- .... ....|R-- .... ....
 G-3|..|G-1 2A.F ....|--- .... ....|G-1 2A.F ....
....|..|R-- .... ....|--- .... ....|R-- .... ....
 G-3|..|G-1 2A.F ....|--- .... ....|G-1 2A.F ....
....|..|R-- .... ....|--- .... ....|R-- .... ....
 C-4|..|C-2 2A.F ....|--- .... ....|C-4 2F.F ....
....|..|R-- .... ....|--- .... ....|R-- .... ....
 G-3|..|G-1 2F.7 ....|--- .... ....|G-1 2F.7 ....
....|..|R-- .... ....|--- .... ....|R-- .... ....
 C-4|..|C-2 2A.F ....|D#4 2FBF ....|C-2 2A.F ....
....|..|--- .... ....|--- .... ....|--- .... ....
 G-3|..|G-1 2F.7 ....|R-- .... ....|G-1 2F.7 ....
....|..|R-- .... ....|--- .... ....|R-- .... ....
 C-4|..|C-2 2A.F ....|--- .... ....|D#4 2F.F ....
....|..|R-- .... ....|--- .... ....|R-- .... ....
 G-3|..|G-1 2F.7 ....|D#4 2FBF ....|G-1 2F.7 ....
....|..|R-- .... ....|--- .... ....|R-- .... ....
 D-4|..|D-2 2A.F ....|--- .... ....|D-2 2A.F ....
....|..|R-- .... ....|--- .... ....|R-- .... ....
 D#4|..|D#2 2A.F ....|--- .... ....|D#2 2A.F ....
....|..|R-- .... ....|--- .... ....|R-- .... ....
 F-4|..|F-2 2A.F ....|F-4 2F3F ....|F-4 2F.F ....
....|..|--- .... ....|--- .... ....|--- .... ....
 F-4|..|F-2 2A.F ....|R-- .... ....|F-2 2A.F ....
....|..|R-- .... ....|--- .... ....|R-- .... ....
 G-3|..|G-1 2F.7 ....|--- .... ....|G-1 2F.7 ....
....|..|R-- .... ....|--- .... ....|R-- .... ....
 F-4|..|F-2 2A.F ....|F-4 2F3F ....|D#4 2F.F ....
....|..|R-- .... ....|--- .... ....|R-- .... ....
 D#4|..|D#2 2A.F ....|--- .... ....|D#2 2A.F ....
....|..|--- .... ....|--- .... ....|--- .... ....
 D#4|..|D#2 2F.A ....|--- .... ....|D#2 2F.A ....
....|..|R-- .... ....|--- .... ....|R-- .... ....
 C-4|..|C-2 2A.F ....|F-4 2F3F ....|F-4 2F.F ....
....|..|--- .... ....|--- .... ....|--- .... ....
 F-4|..|F-2 2F.A ....|R-- .... ....|F-2 2F.A ....
....|..|R-- .... ....|--- .... ....|R-- .... ....

[Pattern17]
 A#3|..|A#1 2A.F ....|R-- .... ....|F-4 2F.F ....
....|..|R-- .... ....|--- .... ....|R-- .... ....
 F-4|..|F-2 2F.A ....|D#4 2FB7 ....|D#4 2F.A ....
....|..|R-- .... ....|--- .... ....|R-- .... ....
 A#3|..|A#1 2A.F ....|F-4 2F1F ....|F-4 2F.F ....
....|..|--- .... ....|--- .... ....|--- .... ....
 D#4|..|D#2 2F.7 ....|R-- .... ....|D#2 2F.7 ....
....|..|R-- .... ....|--- .... ....|R-- .... ....
 A#3|..|A#1 2A.F ....|F-4 2F37 ....|A#4 2F.F ....
....|..|--- .... ....|--- .... ....|--- .... ....
 F-4|..|F-2 2F.7 ....|F-4 2F1F ....|F-2 2F.7 ....
....|..|R-- .... ....|--- .... ....|R-- .... ....
 D-4|..|D-2 2A.F ....|R-- .... ....|G#4 2F.F ....
....|..|R-- .... ....|--- .... ....|R-- .... ....
 F-4|..|F-2 2F.7 ....|F-4 2F37 ....|D#4 2F.7 ....
....|..|R-- .... ....|--- .... ....|R-- .... ....
 D#4|..|D#2 2A.F ....|G-4 2F8F ....|G-4 2F.F ....
....|..|--- .... ....|--- .... ....|--- .... ....
 D#4|..|D#2 2A.F ....|R-- .... ....|F-4 2F.F ....
....|..|R-- .... ....|--- .... ....|R-- .... ....
 C-4|..|C-2 2F.7 ....|F-4 2F37 ....|F-4 2F.7 ....
....|..|R-- .... ....|--- .... ....|R-- .... ....
 D#4|..|D#2 2A.F ....|G-4 2F8F ....|G-4 2F.F ....
....|..|R-- .... ....|--- .... ....|R-- .... ....
 D#4|..|D#2 2A.F ....|R-- .... ....|D#2 2A.F ....
....|..|--- .... ....|--- .... ....|--- .... ....
....|..|--- .... ....|--- .... ....|R-- .... ....
....|..|R-- .... ....|--- .... ....|R-- .... ....
 D-4|..|D-2 2A.F ....|G-4 2F8F ....|D-2 2A.F ....
....|..|--- .... ....|--- .... ....|--- .... ....
 D#4|..|D#2 2F.A ....|R-- .... ....|F-4 2F.A ....
....|..|R-- .... ....|--- .... ....|R-- .... ....
 C-4|..|C-2 2A.F ....|R-- .... ....|G-4 2F.F ....
....|..|R-- .... ....|--- .... ....|R-- .... ....
 D#4|..|D#2 2F.A ....|F-4 2F17 ....|G-4 2F.A ....
....|..|R-- .... ....|--- .... ....|R-- .... ....
 C-4|..|C-2 2A.F ....|D#4 2FBF ....|C-2 2A.F ....
....|..|--- .... ....|--- .... ....|--- .... ....
....|..|--- .... ....|R-- .... ....|R-- .... ....
....|..|R-- .... ....|--- .... ....|R-- .... ....
 C-4|..|C-2 2A.F ....|G-4 2F87 ....|A#4 2F.F ....
....|..|--- .... ....|--- .... ....|--- .... ....
 D#4|..|D#2 2F.7 ....|D#4 2FBF ....|F-4 2F.7 ....
....|..|R-- .... ....|--- .... ....|R-- .... ....
 D-4|..|D-2 2A.F ....|R-- .... ....|D-2 2A.F ....
....|..|R-- .... ....|--- .... ....|R-- .... ....
 D#4|..|D#2 2A.F ....|G-4 2F87 ....|D#2 2A.F ....
....|..|R-- .... ....|--- .... ....|R-- .... ....
 F-4|..|F-2 2A.F ....|F-4 2F3F ....|C-5 2F.F ....
....|..|--- .... ....|--- .... ....|--- .... ....
 F-4|..|F-2 2A.F ....|R-- .... ....|F-2 2A.F ....
....|..|R-- .... ....|--- .... ....|R-- .... ....
 D-4|..|D-2 2F.7 ....|G-4 2F87 ....|D-2 2F.7 ....
....|..|R-- .... ....|--- .... ....|R-- .... ....
 F-4|..|F-2 2A.F ....|F-4 2F3F ....|F-4 2F.F ....
....|..|R-- .... ....|--- .... ....|R-- .... ....
 D#4|..|D#2 2A.F ....|R-- .... ....|D#2 2A.F ....
....|..|--- .... ....|--- .... ....|--- .... ....
 D#4|..|D#2 2F.A ....|--- .... ....|D#2 2F.A ....
....|..|R-- .... ....|--- .... ....|R-- .... ....
 C-4|..|C-2 2A.F ....|F-4 2F3F ....|D#4 2F.F ....
....|..|--- .... ....|--- .... ....|--- .... ....
 F-4|..|F-2 2F.A ....|R-- .... ....|F-2 2F.A ....
....|..|R-- .... ....|--- .... ....|R-- .... ....

[Pattern18]
 A#3|..|A#1 2A.F ....|R-- .... ....|D-4 2F.F ....
....|..|R-- .... ....|--- .... ....|R-- .... ....
 F-4|..|F-2 2F.A ....|D#4 2FB7 ....|F-4 2F.A ....
....|..|R-- .... ....|--- .... ....|R-- .... ....
 A#3|..|A#1 2A.F ....|F-4 2F1F ....|D-4 2F.F ....
....|..|--- .... ....|--- .... ....|--- .... ....
 D#4|..|D#2 2F.7 ....|R-- .... ....|D#2 2F.7 ....
....|..|R-- .... ....|--- .... ....|R-- .... ....
 A#3|..|A#1 2A.F ....|F-4 2F37 ....|C-4 2F.F ....
....|..|--- .... ....|--- .... ....|--- .... ....
 F-4|..|F-2 2F.7 ....|F-4 2F1F ....|F-2 2F.7 ....
....|..|R-- .... ....|--- .... ....|R-- .... ....
 D-4|..|D-2 2A.F ....|R-- .... ....|D-4 2F.F ....
....|..|R-- .... ....|--- .... ....|R-- .... ....
 F-4|..|F-2 2F.7 ....|F-4 2F37 ....|F-4 2F.7 ....
....|..|R-- .... ....|--- .... ....|R-- .... ....
 D#4|..|D#2 2A.F ....|G-4 2F8F ....|F-4 2F.F ....
....|..|--- .... ....|--- .... ....|--- .... ....
 D#4|..|D#2 2A.F ....|R-- .... ....|D#4 2F.F ....
....|..|R-- .... ....|--- .... ....|R-- .... ....
 C-4|..|C-2 2F.7 ....|F-4 2F37 ....|D#4 2F.7 ....
....|..|R-- .... ....|--- .... ....|R-- .... ....
 D#4|..|D#2 2A.F ....|G-4 2F8F ....|D#4 2F.F ....
....|..|R-- .... ....|--- .... ....|R-- .... ....
 D#4|..|D#2 2A.F ....|R-- .... ....|D#2 2A.F ....
....|..|--- .... ....|--- .... ....|--- .... ....
....|..|--- .... ....|--- .... ....|R-- .... ....
....|..|R-- .... ....|--- .... ....|R-- .... ....
 D-4|..|D-2 2A.F ....|G-4 2F8F ....|D-2 2A.F ....
....|..|--- .... ....|--- .... ....|--- .... ....
 D#4|..|D#2 2F.A ....|R-- .... ....|D#4 2F.A ....
....|..|R-- .... ....|--- .... ....|R-- .... ....
 C-4|..|C-2 2A.F ....|R-- .... ....|C-4 2F.F ....
....|..|R-- .... ....|--- .... ....|R-- .... ....
 D#4|..|D#2 2F.A ....|F-4 2F17 ....|D#4 2F.A ....
....|..|R-- .... ....|--- .... ....|R-- .... ....
 C-4|..|C-2 2A.F ....|D#4 2FBF ....|C-2 2A.F ....
....|..|--- .... ....|--- .... ....|--- .... ....
....|..|--- .... ....|R-- .... ....|R-- .... ....
....|..|R-- .... ....|--- .... ....|R-- .... ....
 C-4|..|C-2 2A.F ....|G-4 2F87 ....|D#4 2F.F ....
....|..|--- .... ....|--- .... ....|--- .... ....
 D#4|..|D#2 2F.7 ....|D#4 2FBF ....|D#4 2F.7 ....
....|..|R-- .... ....|--- .... ....|R-- .... ....
 D-4|..|D-2 2A.F ....|R-- .... ....|D-2 2A.F ....
....|..|R-- .... ....|--- .... ....|R-- .... ....
 D#4|..|D#2 2A.F ....|G-4 2F87 ....|D#2 2A.F ....
....|..|R-- .... ....|--- .... ....|R-- .... ....
 F-4|..|F-2 2A.F ....|F-4 2F3F ....|F-4 2F.F ....
....|..|--- .... ....|--- .... ....|--- .... ....
 F-4|..|F-2 2A.F ....|R-- .... ....|F-2 2A.F ....
....|..|R-- .... ....|--- .... ....|R-- .... ....
 D-4|..|D-2 2F.7 ....|G-4 2F87 ....|D-2 2F.7 ....
....|..|R-- .... ....|--- .... ....|R-- .... ....
 F-4|..|F-2 2A.F ....|F-4 2F3F ....|D#4 2F.F ....
....|..|R-- .... ....|--- .... ....|R-- .... ....
 D#4|..|D#2 2A.F ....|R-- .... ....|D#2 2A.F ....
....|..|--- .... ....|--- .... ....|--- .... ....
 D#4|..|D#2 2F.A ....|--- .... ....|D#2 2F.A ....
....|..|R-- .... ....|--- .... ....|R-- .... ....
 C-4|..|C-2 2A.F ....|F-4 2F3F ....|F-4 2F.F ....
....|..|--- .... ....|--- .... ....|--- .... ....
 F-4|..|F-2 2F.A ....|R-- .... ....|F-2 2F.A ....
....|..|R-- .... ....|--- .... ....|R-- .... ....

[Pattern20]
 A#3|..|A#1 2A.F ....|R-- .... ....|A#4 2F.F ....
....|..|R-- .... ....|--- .... ....|R-- .... ....
 F-4|..|F-2 2F.A ....|D#4 2FB7 ....|F-4 2F.A ....
....|..|R-- .... ....|--- .... ....|R-- .... ....
 A#3|..|A#1 2A.F ....|F-4 2F1F ....|A#4 2F.F ....
....|..|--- .... ....|--- .... ....|--- .... ....
 D#4|..|D#2 2F.7 ....|R-- .... ....|D#2 2F.7 ....
....|..|R-- .... ....|--- .... ....|R-- .... ....
 A#3|..|A#1 2A.F ....|F-4 2F37 ....|G-4 2F.F ....
....|..|--- .... ....|--- .... ....|--- .... ....
 F-4|..|F-2 2F.7 ....|F-4 2F1F ....|F-2 2F.7 ....
....|..|R-- .... ....|--- .... ....|R-- .... ....
 A#3|..|A#1 2A.F ....|R-- .... ....|A#4 2F.F ....
....|..|R-- .... ....|--- .... ....|R-- .... ....
 A#3|..|A#1 2A.F ....|F-4 2F37 ....|A#1 2A.F ....
....|..|R-- .... ....|--- .... ....|R-- .... ....
 C-4|..|C-2 2A.F ....|D#4 2FBF ....|A#4 2F.F ....
....|..|--- .... ....|--- .... ....|--- .... ....
 C-4|..|C-2 2A.F ....|R-- .... ....|C-2 2A.F ....
....|..|R-- .... ....|--- .... ....|R-- .... ....
 C-4|..|C-2 2F.7 ....|F-4 2F37 ....|D#4 2F.7 ....
....|..|R-- .... ....|--- .... ....|R-- .... ....
 C-4|..|C-2 2A.F ....|D#4 2FBF ....|C-5 2F.F ....
....|..|R-- .... ....|--- .... ....|R-- .... ....
 C-4|..|C-2 2A.F ....|R-- .... ....|C-2 2A.F ....
....|..|--- .... ....|--- .... ....|R-- .... ....
 A#3|..|A#1 2F.A ....|--- .... ....|A#1 2F.A ....
....|..|R-- .... ....|--- .... ....|R-- .... ....
 C-4|..|C-2 2A.F ....|F-4 2F17 ....|C-2 2A.F ....
....|..|--- .... ....|--- .... ....|--- .... ....
 C-4|..|C-2 2F.A ....|R-- .... ....|C-2 2F.A ....
....|..|R-- .... ....|--- .... ....|R-- .... ....
 C-4|..|C-2 2A.F ....|R-- .... ....|C-4 2F.F ....
....|..|R-- .... ....|--- .... ....|R-- .... ....
 C-4|..|C-2 2F.A ....|F-4 2F17 ....|C-5 2F.A ....
....|..|R-- .... ....|--- .... ....|R-- .... ....
 C-4|..|C-2 2A.F ....|D#4 2FBF ....|C-2 2A.F ....
....|..|--- .... ....|--- .... ....|R-- .... ....
 A#3|..|A#1 2F.7 ....|R-- .... ....|A#1 2F.7 ....
....|..|R-- .... ....|--- .... ....|R-- .... ....
 C-4|..|C-2 2A.F ....|D#4 2FB7 ....|D#4 2F.F ....
....|..|--- .... ....|--- .... ....|--- .... ....
 C-4|..|C-2 2F.7 ....|D#4 2FBF ....|C-2 2F.7 ....
....|..|R-- .... ....|--- .... ....|R-- .... ....
 D-4|..|D-2 2A.F ....|R-- .... ....|D-2 2A.F ....
....|..|R-- .... ....|--- .... ....|R-- .... ....
 D#4|..|D#2 2A.F ....|D#4 2FB7 ....|D#2 2A.F ....
....|..|R-- .... ....|--- .... ....|R-- .... ....
 F-4|..|F-2 2A.F ....|F-4 2F3F ....|F-4 2F.F ....
....|..|--- .... ....|--- .... ....|R-- .... ....
 F-4|..|F-2 2A.F ....|R-- .... ....|F-2 2A.F ....
....|..|R-- .... ....|--- .... ....|R-- .... ....
 C-4|..|C-2 2F.7 ....|--- .... ....|C-2 2F.7 ....
....|..|R-- .... ....|--- .... ....|R-- .... ....
 F-4|..|F-2 2A.F ....|F-4 2F3F ....|D#4 2F.F ....
....|..|R-- .... ....|--- .... ....|R-- .... ....
 D#4|..|D#2 2A.F ....|R-- .... ....|D#2 2A.F ....
....|..|--- .... ....|--- .... ....|--- .... ....
 D#4|..|D#2 2F.A ....|--- .... ....|D#2 2F.A ....
....|..|R-- .... ....|--- .... ....|R-- .... ....
 C-4|..|C-2 2A.F ....|F-4 2F3F ....|F-4 2F.F ....
....|..|--- .... ....|--- .... ....|--- .... ....
 F-4|..|F-2 2F.A ....|R-- .... ....|F-2 2F.A ....
....|..|R-- .... ....|--- .... ....|R-- .... ....

[Pattern22]
 A#3|..|A#1 2A.F ....|R-- .... ....|A#4 2F.F ....
....|..|R-- .... ....|--- .... ....|R-- .... ....
 F-4|..|F-2 2F.A ....|D#4 2FB7 ....|F-4 2F.A ....
....|..|R-- .... ....|--- .... ....|R-- .... ....
 A#3|..|A#1 2A.F ....|F-4 2F1F ....|A#4 2F.F ....
....|..|--- .... ....|--- .... ....|--- .... ....
 D#4|..|D#2 2F.7 ....|R-- .... ....|D#2 2F.7 ....
....|..|R-- .... ....|--- .... ....|R-- .... ....
 G-3|..|G-1 2A.F ....|F-4 2F37 ....|G-4 2F.F ....
....|..|--- .... ....|--- .... ....|--- .... ....
 F-4|..|F-2 2F.7 ....|F-4 2F1F ....|F-2 2F.7 ....
....|..|R-- .... ....|--- .... ....|R-- .... ....
 A#3|..|A#1 2A.F ....|R-- .... ....|A#4 2F.F ....
....|..|R-- .... ....|--- .... ....|R-- .... ....
 F-4|..|F-2 2F.7 ....|F-4 2F37 ....|F-4 2F.7 ....
....|..|R-- .... ....|--- .... ....|R-- .... ....
 A#3|..|A#1 2A.F ....|D#4 2FBF ....|A#4 2F.F ....
....|..|--- .... ....|--- .... ....|--- .... ....
....|..|--- .... ....|R-- .... ....|--- .... ....
....|..|R-- .... ....|--- .... ....|R-- .... ....
 C-4|..|C-2 2F.7 ....|F-4 2F37 ....|D#4 2F.7 ....
....|..|--- .... ....|--- .... ....|--- .... ....
 C-4|..|C-2 2A.F ....|D#4 2FBF ....|C-5 2F.F ....
....|..|R-- .... ....|--- .... ....|R-- .... ....
 A#3|..|A#1 2F.7 ....|R-- .... ....|A#4 2F.7 ....
....|..|R-- .... ....|--- .... ....|R-- .... ....
....|..|--- .... ....|--- .... ....|--- .... ....
....|..|R-- .... ....|--- .... ....|R-- .... ....
 A#3|..|A#1 2F.7 ....|F-4 2F17 ....|A#4 2F.7 ....
....|..|--- .... ....|--- .... ....|--- .... ....
....|..|--- .... ....|R-- .... ....|--- .... ....
....|..|R-- .... ....|--- .... ....|R-- .... ....
 C-3|..|C-1 2A.F ....|R-- .... ....|C-1 2A.F ....
....|..|--- .... ....|--- .... ....|--- .... ....
 A#3|..|A#1 2A.F ....|F-4 2F17 ....|A#1 2A.F ....
....|..|R-- .... ....|--- .... ....|R-- .... ....
 C-4|..|C-2 2A.F ....|--- .... ....|C-2 2A.F ....
....|..|R-- .... ....|--- .... ....|R-- .... ....
 G-3|..|G-1 2A.F ....|--- .... ....|G-1 2A.F ....
....|..|R-- .... ....|--- .... ....|R-- .... ....
 A#2|..|A#1 2A.F ....|D#4 2FB7 ....|A#1 2A.F ....
....|..|--- .... ....|--- .... ....|--- .... ....
 C-3|..|C-1 2A.F ....|--- .... ....|C-1 2A.F ....
....|..|--- .... ....|--- .... ....|--- .... ....
 D#3|..|D#1 2A.F ....|R-- .... ....|D#1 2A.F ....
....|..|--- .... ....|--- .... ....|--- .... ....
 G-3|..|G-1 2A.F ....|D#4 2FB7 ....|G-1 2A.F ....
....|..|--- .... ....|--- .... ....|--- .... ....
 C-3|..|C-1 2A.F ....|--- .... ....|C-1 2A.F ....
....|..|R-- .... ....|--- .... ....|R-- .... ....
 A#3|..|A#1 2A.F ....|--- .... ....|A#1 2A.F ....
....|..|--- .... ....|--- .... ....|--- .... ....
 C-4|..|C-2 2A.F ....|--- .... ....|C-2 2A.F ....
....|..|--- .... ....|--- .... ....|--- .... ....
 G-3|..|G-1 2A.F ....|--- .... ....|G-1 2A.F ....
....|..|--- .... ....|--- .... ....|--- .... ....
 A#2|..|A#1 2A.F ....|R-- .... ....|A#1 2A.F ....
....|..|--- .... ....|--- .... ....|--- .... ....
 C-3|..|C-1 2A.F ....|--- .... ....|C-1 2A.F ....
....|..|--- .... ....|--- .... ....|--- .... ....
 D#3|..|D#1 2A.F ....|--- .... ....|D#1 2A.F ....
....|..|--- .... ....|--- .... ....|--- .... ....
 G-3|..|G-1 2A.F ....|--- .... ....|G-1 2A.F ....
....|..|--- .... ....|--- .... ....|--- .... ....

[Pattern23]
 C-3|..|C-1 2A.F ....|--- .... ....|C-1 2A.F ....
....|..|--- .... ....|--- .... ....|--- .... ....
 A#3|..|A#1 2A.F ....|--- .... ....|A#1 2A.F ....
....|..|--- .... ....|--- .... ....|--- .... ....
 C-4|..|C-2 2A.F ....|--- .... ....|C-2 2A.F ....
....|..|--- .... ....|--- .... ....|--- .... ....
 G-3|..|G-1 2A.F ....|--- .... ....|G-1 2A.F ....
....|..|--- .... ....|--- .... ....|--- .... ....
 A#2|..|A#1 2A.F ....|--- .... ....|A#1 2A.F ....
....|..|--- .... ....|--- .... ....|--- .... ....
 C-3|..|C-1 2A.F ....|--- .... ....|C-1 2A.F ....
....|..|--- .... ....|--- .... ....|--- .... ....
 D#3|..|D#1 2A.F ....|--- .... ....|D#1 2A.F ....
....|..|--- .... ....|--- .... ....|--- .... ....
 G-3|..|G-1 2A.F ....|--- .... ....|G-1 2A.F ....
....|..|--- .... ....|--- .... ....|--- .... ....
 C-3|..|C-1 2A.F ....|--- .... ....|C-1 2A.F ....
....|..|--- .... ....|--- .... ....|--- .... ....
 A#3|..|A#1 2A.F ....|--- .... ....|A#1 2A.F ....
....|..|--- .... ....|--- .... ....|--- .... ....
 C-4|..|C-2 2A.F ....|--- .... ....|C-2 2A.F ....
....|..|--- .... ....|--- .... ....|--- .... ....
 G-3|..|G-1 2A.F ....|--- .... ....|G-1 2A.F ....
....|..|--- .... ....|--- .... ....|--- .... ....
 A#2|..|A#1 2A.F ....|--- .... ....|A#1 2A.F ....
....|..|--- .... ....|--- .... ....|--- .... ....
 C-3|..|C-1 2A.F ....|--- .... ....|C-1 2A.F ....
....|..|--- .... ....|--- .... ....|--- .... ....
 D#3|..|D#1 2A.F ....|--- .... ....|D#1 2A.F ....
....|..|--- .... ....|--- .... ....|--- .... ....
 G-3|..|G-1 2A.F ....|--- .... ....|G-1 2A.F ....
....|..|--- .... ....|--- .... ....|--- .... ....
 G#2|..|G#1 2A.F ....|--- .... ....|G#1 2A.F ....
....|..|--- .... ....|--- .... ....|--- .... ....
 G-3|..|G-1 2A.F ....|--- .... ....|G-1 2A.F ....
....|..|--- .... ....|--- .... ....|--- .... ....
 G#3|..|G#1 2A.F ....|--- .... ....|G#1 2A.F ....
....|..|--- .... ....|--- .... ....|--- .... ....
 D#3|..|D#1 2A.F ....|--- .... ....|D#1 2A.F ....
....|..|--- .... ....|--- .... ....|--- .... ....
 C-3|..|C-1 2A.F ....|--- .... ....|C-1 2A.F ....
....|..|--- .... ....|--- .... ....|--- .... ....
 D#3|..|D#1 2A.F ....|--- .... ....|D#1 2A.F ....
....|..|--- .... ....|--- .... ....|--- .... ....
 G-3|..|G-1 2A.F ....|--- .... ....|G-1 2A.F ....
....|..|--- .... ....|--- .... ....|--- .... ....
 G#3|..|G#1 2A.F ....|--- .... ....|G#1 2A.F ....
....|..|--- .... ....|--- .... ....|--- .... ....
 G#2|..|G#1 2A.F ....|--- .... ....|G#1 2A.F ....
....|..|--- .... ....|--- .... ....|--- .... ....
 G-3|..|G-1 2A.F ....|--- .... ....|G-1 2A.F ....
....|..|--- .... ....|--- .... ....|--- .... ....
 G#3|..|G#1 2A.F ....|--- .... ....|G#1 2A.F ....
....|..|--- .... ....|--- .... ....|--- .... ....
 D#3|..|D#1 2A.F ....|--- .... ....|D#1 2A.F ....
....|..|--- .... ....|--- .... ....|--- .... ....
 C-3|..|C-1 2A.F ....|--- .... ....|C-1 2A.F ....
....|..|--- .... ....|--- .... ....|--- .... ....
 D#3|..|D#1 2A.F ....|--- .... ....|D#1 2A.F ....
....|..|--- .... ....|--- .... ....|--- .... ....
 G-3|..|G-1 2A.F ....|--- .... ....|G-1 2A.F ....
....|..|--- .... ....|--- .... ....|--- .... ....
 G#3|..|G#1 2A.F ....|--- .... ....|G#1 2A.F ....
....|..|--- .... ....|--- .... ....|--- .... ....

[Pattern24]
 A#2|..|A#1 2A.F ....|--- .... ....|A#1 2A.F ....
....|..|--- .... ....|--- .... ....|--- .... ....
 G#3|..|G#1 2A.F ....|--- .... ....|G#1 2A.F ....
....|..|--- .... ....|--- .... ....|--- .... ....
 A#3|..|A#1 2A.F ....|--- .... ....|A#1 2A.F ....
....|..|--- .... ....|--- .... ....|--- .... ....
 F-3|..|F-1 2A.F ....|--- .... ....|F-1 2A.F ....
....|..|--- .... ....|--- .... ....|--- .... ....
 D-3|..|D-1 2A.F ....|--- .... ....|D-1 2A.F ....
....|..|--- .... ....|--- .... ....|--- .... ....
 F-3|..|F-1 2A.F ....|--- .... ....|F-1 2A.F ....
....|..|--- .... ....|--- .... ....|--- .... ....
 G#3|..|G#1 2A.F ....|--- .... ....|G#1 2A.F ....
....|..|--- .... ....|--- .... ....|--- .... ....
 A#3|..|A#1 2A.F ....|--- .... ....|A#1 2A.F ....
....|..|--- .... ....|--- .... ....|--- .... ....
 A#2|..|A#1 2A.F ....|--- .... ....|A#1 2A.F ....
....|..|--- .... ....|--- .... ....|--- .... ....
 G#3|..|G#1 2A.F ....|--- .... ....|G#1 2A.F ....
....|..|--- .... ....|--- .... ....|--- .... ....
 A#3|..|A#1 2A.F ....|--- .... ....|A#1 2A.F ....
....|..|--- .... ....|--- .... ....|--- .... ....
 F-3|..|F-1 2A.F ....|--- .... ....|F-1 2A.F ....
....|..|--- .... ....|--- .... ....|--- .... ....
 D-3|..|D-1 2A.F ....|--- .... ....|D-1 2A.F ....
....|..|--- .... ....|--- .... ....|--- .... ....
 F-3|..|F-1 2A.F ....|--- .... ....|F-1 2A.F ....
....|..|--- .... ....|--- .... ....|--- .... ....
 G#3|..|G#1 2A.F ....|--- .... ....|G#1 2A.F ....
....|..|--- .... ....|--- .... ....|--- .... ....
 A#3|..|A#1 2A.F ....|--- .... ....|A#1 2A.F ....
....|..|--- .... ....|--- .... ....|--- .... ....
 C-3|..|C-1 2A.F ....|--- .... ....|C-1 2A.F ....
....|..|--- .... ....|--- .... ....|--- .... ....
 A#3|..|A#1 2A.F ....|--- .... ....|A#1 2A.F ....
....|..|--- .... ....|--- .... ....|--- .... ....
 C-4|..|C-2 2A.F ....|--- .... ....|C-2 2A.F ....
....|..|--- .... ....|--- .... ....|--- .... ....
 G-3|..|G-1 2A.F ....|--- .... ....|G-1 2A.F ....
....|..|--- .... ....|--- .... ....|--- .... ....
 A#2|..|A#1 2A.F ....|--- .... ....|A#1 2A.F ....
....|..|--- .... ....|--- .... ....|--- .... ....
 C-3|..|C-1 2A.F ....|--- .... ....|C-1 2A.F ....
....|..|--- .... ....|--- .... ....|--- .... ....
 D#3|..|D#1 2A.F ....|--- .... ....|D#1 2A.F ....
....|..|--- .... ....|--- .... ....|--- .... ....
 G-3|..|G-1 2A.F ....|--- .... ....|G-1 2A.F ....
....|..|--- .... ....|--- .... ....|--- .... ....
 C-3|..|C-1 2A.F ....|--- .... ....|C-1 2A.F ....
....|..|--- .... ....|--- .... ....|--- .... ....
 A#3|..|A#1 2A.F ....|--- .... ....|A#1 2A.F ....
....|..|--- .... ....|--- .... ....|--- .... ....
 C-4|..|C-2 2A.F ....|--- .... ....|C-2 2A.F ....
....|..|--- .... ....|--- .... ....|--- .... ....
 G-3|..|G-1 2A.F ....|--- .... ....|G-1 2A.F ....
....|..|--- .... ....|--- .... ....|--- .... ....
 A#2|..|A#1 2A.F ....|--- .... ....|A#1 2A.F ....
....|..|--- .... ....|--- .... ....|--- .... ....
 C-3|..|C-1 2A.F ....|--- .... ....|C-1 2A.F ....
....|..|--- .... ....|--- .... ....|--- .... ....
 D#3|..|D#1 2A.F ....|--- .... ....|D#1 2A.F ....
....|..|--- .... ....|--- .... ....|--- .... ....
 G-3|..|G-1 2A.F ....|--- .... ....|G-1 2A.F ....
....|..|--- .... ....|--- .... ....|--- .... ....

[Pattern26]
 A#2|..|A#1 2A.F ....|--- .... ....|A#1 2A.F ....
....|..|--- .... ....|--- .... ....|--- .... ....
 G#3|..|G#1 2A.F ....|--- .... ....|G#1 2A.F ....
....|..|--- .... ....|--- .... ....|--- .... ....
 A#3|..|A#1 2A.F ....|--- .... ....|A#1 2A.F ....
....|..|--- .... ....|--- .... ....|--- .... ....
 F-3|..|F-1 2A.F ....|--- .... ....|F-1 2A.F ....
....|..|--- .... ....|--- .... ....|--- .... ....
 D-3|..|D-1 2A.F ....|--- .... ....|D-1 2A.F ....
....|..|--- .... ....|--- .... ....|--- .... ....
 F-3|..|F-1 2A.F ....|--- .... ....|F-1 2A.F ....
....|..|--- .... ....|--- .... ....|--- .... ....
 G#3|..|G#1 2A.F ....|--- .... ....|G#1 2A.F ....
....|..|--- .... ....|--- .... ....|--- .... ....
 A#3|..|A#1 2A.F ....|--- .... ....|A#1 2A.F ....
....|..|--- .... ....|--- .... ....|--- .... ....
 A#2|..|A#1 2A.F ....|--- .... ....|A#1 2A.F ....
....|..|--- .... ....|--- .... ....|--- .... ....
 G#3|..|G#1 2A.F ....|--- .... ....|G#1 2A.F ....
....|..|--- .... ....|--- .... ....|--- .... ....
 A#3|..|A#1 2A.F ....|--- .... ....|A#1 2A.F ....
....|..|--- .... ....|--- .... ....|--- .... ....
 F-3|..|F-1 2A.F ....|--- .... ....|F-1 2A.F ....
....|..|--- .... ....|--- .... ....|--- .... ....
 D-3|..|D-1 2A.F ....|--- .... ....|D-1 2A.F ....
....|..|--- .... ....|--- .... ....|--- .... ....
 F-3|..|F-1 2A.F ....|--- .... ....|F-1 2A.F ....
....|..|--- .... ....|--- .... ....|--- .... ....
 G#3|..|G#1 2A.F ....|--- .... ....|G#1 2A.F ....
....|..|--- .... ....|--- .... ....|--- .... ....
 A#3|..|A#1 2A.F ....|--- .... ....|A#1 2A.F ....
....|..|--- .... ....|--- .... ....|--- .... ....
 F-3|..|F-1 2A.F ....|D#4 2FDF ....|F-1 2A.F ....
....|..|--- .... ....|--- .... ....|--- .... ....
 F-3|..|F-1 2F.7 ....|--- .... ....|F-1 2F.7 ....
....|..|--- .... ....|--- .... ....|--- .... ....
 F-3|..|F-1 2A.F ....|D#4 2FDF ....|F-1 2A.F ....
....|..|--- .... ....|--- .... ....|--- .... ....
 A#3|..|A#1 2F.7 ....|--- .... ....|A#1 2F.7 ....
....|..|--- .... ....|--- .... ....|--- .... ....
 A#2|..|A#1 2F.7 ....|--- .... ....|A#1 2F.7 ....
....|..|R-- .... ....|--- .... ....|R-- .... ....
 F-3|..|F-1 2A.F ....|D#4 2FDF ....|F-1 2A.F ....
....|..|R-- .... ....|--- .... ....|R-- .... ....
 F-3|..|F-1 2A.F ....|D#4 2FDA ....|F-1 2A.F ....
....|..|R-- .... ....|--- .... ....|R-- .... ....
 F-3|..|F-1 2A.F ....|--- .... ....|F-1 2A.F ....
....|..|R-- .... ....|--- .... ....|R-- .... ....
 F-3|..|F-1 2A.F ....|D#4 2FDF ....|F-1 2A.F ....
....|..|--- .... ....|--- .... ....|--- .... ....
 F-3|..|F-1 2F.7 ....|--- .... ....|F-1 2F.7 ....
....|..|--- .... ....|--- .... ....|--- .... ....
 F-3|..|F-1 2A.F ....|--- .... ....|F-1 2A.F ....
....|..|R-- .... ....|--- .... ....|R-- .... ....
 A#3|..|A#1 2F.7 ....|D#4 2FDF ....|A#1 2F.7 ....
....|..|R-- .... ....|--- .... ....|R-- .... ....
 F-3|..|F-1 2F.7 ....|D#4 2FD7 ....|F-1 2F.7 ....
....|..|R-- .... ....|--- .... ....|R-- .... ....
 F-3|..|F-1 2A.F ....|--- .... ....|F-1 2A.F ....
....|..|R-- .... ....|--- .... ....|R-- .... ....
 F-3|..|F-1 2A.F ....|D#4 2FDF ....|F-1 2A.F ....
....|..|R-- .... ....|--- .... ....|R-- .... ....
 F-3|..|F-1 2A.F ....|--- .... ....|F-1 2A.F ....
....|..|R-- .... ....|--- .... ....|R-- .... ....

[Pattern27]
 G-3|..|G-1 2A.F ....|D-4 2FEF ....|G-1 2A.F ....
....|..|R-- .... ....|--- .... ....|R-- .... ....
 F-3|..|F-1 2F.7 ....|D#4 2FD7 ....|F-1 2F.7 ....
....|..|R-- .... ....|--- .... ....|R-- .... ....
 G-3|..|G-1 2A.F ....|D-4 2FEF ....|G-1 2A.F ....
....|..|R-- .... ....|--- .... ....|R-- .... ....
 F-3|..|F-1 2F.7 ....|--- .... ....|F-1 2F.7 ....
....|..|R-- .... ....|--- .... ....|R-- .... ....
 F-3|..|F-1 2F.7 ....|D#4 2FD7 ....|F-1 2F.7 ....
....|..|R-- .... ....|--- .... ....|R-- .... ....
 G-3|..|G-1 2A.F ....|D-4 2FEF ....|G-1 2A.F ....
....|..|R-- .... ....|--- .... ....|R-- .... ....
 G-3|..|G-1 2A.F ....|D-4 2FEA ....|G-1 2A.F ....
....|..|R-- .... ....|--- .... ....|R-- .... ....
 G-3|..|G-1 2A.F ....|D#4 2FD7 ....|G-1 2A.F ....
....|..|R-- .... ....|--- .... ....|R-- .... ....
 G-3|..|G-1 2A.F ....|D-4 2FEF ....|G-1 2A.F ....
....|..|R-- .... ....|--- .... ....|R-- .... ....
 F-3|..|F-1 2F.7 ....|--- .... ....|F-1 2F.7 ....
....|..|R-- .... ....|--- .... ....|R-- .... ....
 G-3|..|G-1 2A.F ....|D#4 2FD7 ....|G-1 2A.F ....
....|..|R-- .... ....|--- .... ....|R-- .... ....
 F-3|..|F-1 2F.7 ....|D-4 2FEF ....|F-1 2F.7 ....
....|..|R-- .... ....|--- .... ....|R-- .... ....
 G-3|..|G-1 2F.7 ....|D-4 2FE7 ....|G-1 2F.7 ....
....|..|R-- .... ....|--- .... ....|R-- .... ....
 G-3|..|G-1 2A.F ....|--- .... ....|G-1 2A.F ....
....|..|R-- .... ....|--- .... ....|R-- .... ....
 G-3|..|G-1 2A.F ....|D-4 2FEF ....|G-1 2A.F ....
....|..|R-- .... ....|--- .... ....|R-- .... ....
 G-3|..|G-1 2A.F ....|--- .... ....|G-1 2A.F ....
....|..|R-- .... ....|--- .... ....|R-- .... ....
 G#3|..|G#1 2A.F ....|D#4 2FFF ....|G#1 2A.F ....
....|..|R-- .... ....|--- .... ....|R-- .... ....
 G-3|..|G-1 2F.7 ....|D-4 2FE7 ....|G-1 2F.7 ....
....|..|R-- .... ....|--- .... ....|R-- .... ....
 G#3|..|G#1 2A.F ....|D#4 2FFF ....|G#1 2A.F ....
....|..|R-- .... ....|--- .... ....|R-- .... ....
 G-3|..|G-1 2F.7 ....|--- .... ....|G-1 2F.7 ....
....|..|R-- .... ....|--- .... ....|R-- .... ....
 G-3|..|G-1 2F.7 ....|D-4 2FE7 ....|G-1 2F.7 ....
....|..|R-- .... ....|--- .... ....|R-- .... ....
 G#3|..|G#1 2A.F ....|D#4 2FFF ....|G#1 2A.F ....
....|..|R-- .... ....|--- .... ....|R-- .... ....
 G#3|..|G#1 2A.F ....|D#4 2FFA ....|G#1 2A.F ....
....|..|R-- .... ....|--- .... ....|R-- .... ....
 G#3|..|G#1 2A.F ....|D-4 2FE7 ....|G#1 2A.F ....
....|..|R-- .... ....|--- .... ....|R-- .... ....
 G#3|..|G#1 2A.F ....|D#4 2FFF ....|G#1 2A.F ....
....|..|R-- .... ....|--- .... ....|R-- .... ....
 G-3|..|G-1 2F.7 ....|--- .... ....|G-1 2F.7 ....
....|..|R-- .... ....|--- .... ....|R-- .... ....
 G#3|..|G#1 2A.F ....|D-4 2FE7 ....|G#1 2A.F ....
....|..|R-- .... ....|--- .... ....|R-- .... ....
 G-3|..|G-1 2F.7 ....|D#4 2FFF ....|G-1 2F.7 ....
....|..|R-- .... ....|--- .... ....|R-- .... ....
 G#3|..|G#1 2F.7 ....|D#4 2FF7 ....|G#1 2F.7 ....
....|..|R-- .... ....|--- .... ....|R-- .... ....
 G#3|..|G#1 2A.F ....|--- .... ....|G#1 2A.F ....
....|..|R-- .... ....|--- .... ....|R-- .... ....
 G#3|..|G#1 2A.F ....|D#4 2FFF ....|G#1 2A.F ....
....|..|R-- .... ....|--- .... ....|R-- .... ....
 G#3|..|G#1 2A.F ....|--- .... ....|G#1 2A.F ....
....|..|R-- .... ....|--- .... ....|R-- .... ....

[Pattern28]
 G-3|..|G-1 2A.F ....|D-4 2FEF ....|G-1 2A.F ....
....|..|R-- .... ....|--- .... ....|R-- .... ....
 G#3|..|G#1 2F.7 ....|D#4 2FF7 ....|G#1 2F.7 ....
....|..|R-- .... ....|--- .... ....|R-- .... ....
 G-3|..|G-1 2A.F ....|D-4 2FEF ....|G-1 2A.F ....
....|..|R-- .... ....|--- .... ....|R-- .... ....
 G#3|..|G#1 2F.7 ....|--- .... ....|G#1 2F.7 ....
....|..|R-- .... ....|--- .... ....|R-- .... ....
 G#3|..|G#1 2F.7 ....|D#4 2FF7 ....|G#1 2F.7 ....
....|..|R-- .... ....|--- .... ....|R-- .... ....
 G-3|..|G-1 2A.F ....|D-4 2FEF ....|G-1 2A.F ....
....|..|R-- .... ....|--- .... ....|R-- .... ....
 G-3|..|G-1 2A.F ....|D-4 2FEA ....|G-1 2A.F ....
....|..|R-- .... ....|--- .... ....|R-- .... ....
 G-3|..|G-1 2A.F ....|D#4 2FF7 ....|G-1 2A.F ....
....|..|R-- .... ....|--- .... ....|R-- .... ....
 G-3|..|G-1 2A.F ....|D-4 2FEF ....|G-1 2A.F ....
....|..|R-- .... ....|--- .... ....|R-- .... ....
 G#3|..|G#1 2F.7 ....|--- .... ....|G#1 2F.7 ....
....|..|R-- .... ....|--- .... ....|R-- .... ....
 G-3|..|G-1 2A.F ....|D#4 2FF7 ....|G-1 2A.F ....
....|..|R-- .... ....|--- .... ....|R-- .... ....
 G#3|..|G#1 2F.7 ....|D-4 2FEF ....|G#1 2F.7 ....
....|..|R-- .... ....|--- .... ....|R-- .... ....
 G-3|..|G-1 2F.7 ....|D-4 2FE7 ....|G-1 2F.7 ....
....|..|R-- .... ....|--- .... ....|R-- .... ....
 G-3|..|G-1 2A.F ....|--- .... ....|G-1 2A.F ....
....|..|R-- .... ....|--- .... ....|R-- .... ....
 G-3|..|G-1 2A.F ....|D-4 2FEF ....|G-1 2A.F ....
....|..|R-- .... ....|--- .... ....|R-- .... ....
 G-3|..|G-1 2A.F ....|--- .... ....|G-1 2A.F ....
....|..|R-- .... ....|--- .... ....|R-- .... ....
 F-3|..|F-1 2A.F ....|D#4 2FDF ....|F-1 2A.F ....
....|..|R-- .... ....|--- .... ....|R-- .... ....
 G-3|..|G-1 2F.7 ....|D-4 2FE7 ....|G-1 2F.7 ....
....|..|R-- .... ....|--- .... ....|R-- .... ....
 F-3|..|F-1 2A.F ....|D#4 2FDF ....|F-1 2A.F ....
....|..|R-- .... ....|--- .... ....|R-- .... ....
 G-3|..|G-1 2F.7 ....|--- .... ....|G-1 2F.7 ....
....|..|R-- .... ....|--- .... ....|R-- .... ....
 G-3|..|G-1 2F.7 ....|D-4 2FE7 ....|G-1 2F.7 ....
....|..|R-- .... ....|--- .... ....|R-- .... ....
 F-3|..|F-1 2A.F ....|D#4 2FDF ....|F-1 2A.F ....
....|..|R-- .... ....|--- .... ....|R-- .... ....
 F-3|..|F-1 2A.F ....|D#4 2FDA ....|F-1 2A.F ....
....|..|R-- .... ....|--- .... ....|R-- .... ....
 F-3|..|F-1 2A.F ....|D-4 2FE7 ....|F-1 2A.F ....
....|..|R-- .... ....|--- .... ....|R-- .... ....
 F-3|..|F-1 2A.F ....|D#4 2FDF ....|F-1 2A.F ....
....|..|R-- .... ....|--- .... ....|R-- .... ....
 G-3|..|G-1 2F.7 ....|--- .... ....|G-1 2F.7 ....
....|..|R-- .... ....|--- .... ....|R-- .... ....
 F-3|..|F-1 2A.F ....|D-4 2FE7 ....|F-1 2A.F ....
....|..|R-- .... ....|--- .... ....|R-- .... ....
 G-3|..|G-1 2F.7 ....|D#4 2FDF ....|G-1 2F.7 ....
....|..|R-- .... ....|--- .... ....|R-- .... ....
 F-3|..|F-1 2F.7 ....|D#4 2FD7 ....|F-1 2F.7 ....
....|..|R-- .... ....|--- .... ....|R-- .... ....
 F-3|..|F-1 2A.F ....|--- .... ....|F-1 2A.F ....
....|..|R-- .... ....|--- .... ....|R-- .... ....
 F-3|..|F-1 2A.F ....|D#4 2FDF ....|F-1 2A.F ....
....|..|R-- .... ....|--- .... ....|R-- .... ....
 F-3|..|F-1 2A.F ....|--- .... ....|F-1 2A.F ....
....|..|R-- .... ....|--- .... ....|R-- .... ....

[Pattern30]
 A#3|..|A#1 2A.F ....|F-4 2F1F ....|A#1 2A.F ....
....|..|R-- .... ....|--- .... ....|R-- .... ....
 G#3|..|G#1 2F.7 ....|D#4 2FF7 ....|G#1 2F.7 ....
....|..|R-- .... ....|--- .... ....|R-- .... ....
 A#3|..|A#1 2A.F ....|F-4 2F1F ....|A#1 2A.F ....
....|..|R-- .... ....|--- .... ....|R-- .... ....
 G#3|..|G#1 2F.7 ....|--- .... ....|G#1 2F.7 ....
....|..|R-- .... ....|--- .... ....|R-- .... ....
 G#3|..|G#1 2F.7 ....|D#4 2FF7 ....|G#1 2F.7 ....
....|..|R-- .... ....|--- .... ....|R-- .... ....
 A#3|..|A#1 2A.F ....|F-4 2F1F ....|A#1 2A.F ....
....|..|R-- .... ....|--- .... ....|R-- .... ....
 A#3|..|A#1 2A.F ....|F-4 2F1A ....|A#1 2A.F ....
....|..|R-- .... ....|--- .... ....|R-- .... ....
 A#3|..|A#1 2A.F ....|D#4 2FF7 ....|A#1 2A.F ....
....|..|R-- .... ....|--- .... ....|R-- .... ....
 A#3|..|A#1 2A.F ....|B-4 2FCF ....|A#1 2A.F ....
....|..|R-- .... ....|--- .... ....|R-- .... ....
 G#3|..|G#1 2F.7 ....|--- .... ....|G#1 2F.7 ....
....|..|R-- .... ....|--- .... ....|R-- .... ....
 G#3|..|G#1 2F.7 ....|D#4 2FF7 ....|G#1 2F.7 ....
....|..|R-- .... ....|--- .... ....|R-- .... ....
 G#3|..|G#1 2F.7 ....|B-4 2FCF ....|G#1 2F.7 ....
....|..|R-- .... ....|--- .... ....|R-- .... ....
 B-3|..|B-1 2A.F ....|F-4 2F17 ....|B-1 2A.F ....
....|..|R-- .... ....|--- .... ....|R-- .... ....
....|..|R-- .... ....|--- .... ....|R-- .... ....
....|..|R-- .... ....|--- .... ....|R-- .... ....
 A#3|..|A#1 2F.7 ....|B-4 2FCF ....|A#1 2F.7 ....
....|..|--- .... ....|--- .... ....|--- .... ....
....|..|--- .... ....|--- .... ....|--- .... ....
....|..|--- .... ....|--- .... ....|--- .... ....
 C-4|..|C-2 2A.F ....|R-- .... ....|C-2 2A.F ....
....|..|R-- .... ....|--- .... ....|R-- .... ....
 A#3|..|A#1 2F.7 ....|F-4 2F17 ....|A#1 2F.7 ....
....|..|R-- .... ....|--- .... ....|R-- .... ....
 C-4|..|C-2 2A.F ....|--- .... ....|C-2 2A.F ....
....|..|R-- .... ....|--- .... ....|R-- .... ....
 A#3|..|A#1 2F.7 ....|--- .... ....|A#1 2F.7 ....
....|..|R-- .... ....|--- .... ....|R-- .... ....
 C-4|..|C-2 2A.F ....|B-4 2FC7 ....|C-2 2A.F ....
....|..|--- .... ....|--- .... ....|--- .... ....
....|..|--- .... ....|--- .... ....|--- .... ....
....|..|R-- .... ....|--- .... ....|R-- .... ....
 D-4|..|D-2 2A.F ....|R-- .... ....|D-2 2A.F ....
....|..|--- .... ....|--- .... ....|--- .... ....
 D#4|..|D#2 2A.F ....|B-4 2FC7 ....|D#2 2A.F ....
....|..|R-- .... ....|--- .... ....|R-- .... ....
 F-4|..|F-2 2A.F ....|--- .... ....|F-2 2A.F ....
....|..|--- .... ....|--- .... ....|--- .... ....
 F-4|..|F-2 2A.F ....|--- .... ....|F-2 2A.F ....
....|..|R-- .... ....|--- .... ....|R-- .... ....
 C-4|..|C-2 2F.A ....|B-4 2FC7 ....|C-2 2F.A ....
....|..|R-- .... ....|--- .... ....|R-- .... ....
 F-4|..|F-2 2A.F ....|--- .... ....|F-2 2A.F ....
....|..|R-- .... ....|--- .... ....|R-- .... ....
 D#4|..|D#2 2A.F ....|R-- .... ....|D#2 2A.F ....
....|..|--- .... ....|--- .... ....|--- .... ....
 D#4|..|D#2 2F.A ....|--- .... ....|D#2 2F.A ....
....|..|R-- .... ....|--- .... ....|R-- .... ....
 C-4|..|C-2 2A.F ....|--- .... ....|C-2 2A.F ....
....|..|--- .... ....|--- .... ....|--- .... ....
 F-4|..|F-2 2F.A ....|--- .... ....|F-2 2F.A ....
....|..|R-- .... ....|--- .... ....|R-- .... ....

[Pattern32]
 A#3|..|A#1 2A.F ....|--- .... ....|A#1 2A.F ....
....|..|R-- .... ....|--- .... ....|R-- .... ....
 F-4|..|F-2 2F.A ....|--- .... ....|F-2 2F.A ....
....|..|R-- .... ....|--- .... ....|R-- .... ....
 A#3|..|A#1 2A.F ....|--- .... ....|A#1 2A.F ....
....|..|--- .... ....|--- .... ....|--- .... ....
 D#4|..|D#2 2F.7 ....|--- .... ....|D#2 2F.7 ....
....|..|R-- .... ....|--- .... ....|R-- .... ....
 A#3|..|A#1 2A.F ....|--- .... ....|A#1 2A.F ....
....|..|--- .... ....|--- .... ....|--- .... ....
 F-4|..|F-2 2F.7 ....|--- .... ....|F-2 2F.7 ....
....|..|R-- .... ....|--- .... ....|R-- .... ....
 A#3|..|A#1 2A.F ....|--- .... ....|A#1 2A.F ....
....|..|R-- .... ....|--- .... ....|R-- .... ....
 F-4|..|F-2 2F.7 ....|--- .... ....|F-2 2F.7 ....
....|..|R-- .... ....|--- .... ....|R-- .... ....
 C-4|..|C-2 2A.F ....|--- .... ....|C-2 2A.F ....
....|..|--- .... ....|--- .... ....|--- .... ....
 C-4|..|C-2 2A.F ....|--- .... ....|C-2 2A.F ....
....|..|R-- .... ....|--- .... ....|R-- .... ....
 C-4|..|C-2 2F.7 ....|--- .... ....|C-2 2F.7 ....
....|..|R-- .... ....|--- .... ....|R-- .... ....
 C-4|..|C-2 2A.F ....|--- .... ....|C-2 2A.F ....
....|..|R-- .... ....|--- .... ....|R-- .... ....
 A#3|..|A#1 2A.F ....|--- .... ....|A#1 2A.F ....
....|..|--- .... ....|--- .... ....|--- .... ....
....|..|--- .... ....|--- .... ....|--- .... ....
....|..|R-- .... ....|--- .... ....|R-- .... ....
 C-4|..|C-2 2A.F ....|--- .... ....|C-2 2A.F ....
....|..|--- .... ....|--- .... ....|--- .... ....
 C-4|..|C-2 2F.A ....|--- .... ....|C-2 2F.A ....
....|..|R-- .... ....|--- .... ....|R-- .... ....
 C-4|..|C-2 2A.F ....|--- .... ....|C-2 2A.F ....
....|..|R-- .... ....|--- .... ....|R-- .... ....
 C-4|..|C-2 2F.A ....|--- .... ....|C-2 2F.A ....
....|..|R-- .... ....|--- .... ....|R-- .... ....
 C-4|..|C-2 2A.F ....|--- .... ....|C-2 2A.F ....
....|..|--- .... ....|--- .... ....|--- .... ....
....|..|--- .... ....|--- .... ....|--- .... ....
....|..|R-- .... ....|--- .... ....|R-- .... ....
 C-4|..|C-2 2A.F ....|--- .... ....|C-2 2A.F ....
....|..|--- .... ....|--- .... ....|--- .... ....
 C-4|..|C-2 2F.7 ....|--- .... ....|C-2 2F.7 ....
....|..|R-- .... ....|--- .... ....|R-- .... ....
 D-4|..|D-2 2A.F ....|--- .... ....|D-2 2A.F ....
....|..|R-- .... ....|--- .... ....|R-- .... ....
 D#4|..|D#2 2A.F ....|--- .... ....|D#2 2A.F ....
....|..|R-- .... ....|--- .... ....|R-- .... ....
 F-4|..|F-2 2A.F ....|--- .... ....|F-2 2A.F ....
....|..|--- .... ....|--- .... ....|--- .... ....
 F-4|..|F-2 2A.F ....|--- .... ....|F-2 2A.F ....
....|..|R-- .... ....|--- .... ....|R-- .... ....
 C-4|..|C-2 2F.7 ....|--- .... ....|C-2 2F.7 ....
....|..|R-- .... ....|--- .... ....|R-- .... ....
 F-4|..|F-2 2A.F ....|--- .... ....|F-2 2A.F ....
....|..|R-- .... ....|--- .... ....|R-- .... ....
 D#4|..|D#2 2A.F ....|--- .... ....|D#2 2A.F ....
....|..|--- .... ....|--- .... ....|--- .... ....
 D#4|..|D#2 2F.A ....|--- .... ....|D#2 2F.A ....
....|..|R-- .... ....|--- .... ....|R-- .... ....
 C-4|..|C-2 2A.F ....|--- .... ....|C-2 2A.F ....
....|..|--- .... ....|--- .... ....|--- .... ....
 F-4|..|F-2 2F.A ....|--- .... ....|F-2 2F.A ....
....|..|R-- .... ....|--- .... ....|R-- .... ....

[Pattern34]
 A#3|..|A#1 2A.F ....|--- .... ....|A#1 2A.F ....
....|..|R-- .... ....|--- .... ....|R-- .... ....
 F-4|..|F-2 2F.A ....|--- .... ....|F-2 2F.A ....
....|..|R-- .... ....|--- .... ....|R-- .... ....
 A#3|..|A#1 2A.F ....|--- .... ....|A#1 2A.F ....
....|..|--- .... ....|--- .... ....|--- .... ....
 D#4|..|D#2 2F.7 ....|--- .... ....|D#2 2F.7 ....
....|..|R-- .... ....|--- .... ....|R-- .... ....
 A#3|..|A#1 2A.F ....|--- .... ....|A#1 2A.F ....
....|..|--- .... ....|--- .... ....|--- .... ....
 F-4|..|F-2 2F.7 ....|--- .... ....|F-2 2F.7 ....
....|..|R-- .... ....|--- .... ....|R-- .... ....
 A#3|..|A#1 2A.F ....|--- .... ....|A#1 2A.F ....
....|..|R-- .... ....|--- .... ....|R-- .... ....
 F-4|..|F-2 2F.7 ....|--- .... ....|F-2 2F.7 ....
....|..|R-- .... ....|--- .... ....|R-- .... ....
 C-4|..|C-2 2A.F ....|--- .... ....|C-2 2A.F ....
....|..|--- .... ....|--- .... ....|--- .... ....
....|..|--- .... ....|--- .... ....|--- .... ....
....|..|R-- .... ....|--- .... ....|R-- .... ....
 C-4|..|C-2 2A.F ....|--- .... ....|C-2 2A.F ....
....|..|--- .... ....|--- .... ....|--- .... ....
....|..|--- .... ....|--- .... ....|--- .... ....
....|..|R-- .... ....|--- .... ....|R-- .... ....
 C-4|..|C-2 2A.F ....|--- .... ....|C-2 2A.F ....
....|..|--- .... ....|--- .... ....|--- .... ....
....|..|--- .... ....|--- .... ....|--- .... ....
....|..|R-- .... ....|--- .... ....|R-- .... ....
 C-4|..|C-2 2A.F ....|--- .... ....|C-2 2A.F ....
....|..|--- .... ....|--- .... ....|--- .... ....
....|..|--- .... ....|--- .... ....|--- .... ....
....|..|R-- .... ....|--- .... ....|R-- .... ....
 D#4|..|D#2 2A.F ....|A#3 2F1F ....|D#2 2A.F ....
....|..|--- .... ....|--- .... ....|--- .... ....
....|..|--- .... ....|--- .... ....|--- .... ....
....|..|R-- .... ....|--- .... ....|R-- .... ....
 A#3|..|A#1 2F.7 ....|--- .... ....|A#1 2F.7 ....
....|..|--- .... ....|--- .... ....|--- .... ....
....|..|--- .... ....|--- .... ....|--- .... ....
....|..|R-- .... ....|--- .... ....|R-- .... ....
 C-4|..|C-2 2F.7 ....|--- .... ....|D#4 2F.F ....
....|..|--- .... ....|--- .... ....|--- .... ....
....|..|--- .... ....|--- .... ....|--- .... ....
....|..|R-- .... ....|--- .... ....|R-- .... ....
 C-4|..|C-2 2F.7 ....|A#3 2F1A ....|C-2 2F.7 ....
....|..|--- .... ....|--- .... ....|--- .... ....
....|..|--- .... ....|--- .... ....|A#3 2F.F ....
....|..|R-- .... ....|--- .... ....|R-- .... ....
 C-4|..|C-2 2F.7 ....|--- .... ....|C-2 2F.7 ....
....|..|--- .... ....|--- .... ....|--- .... ....
....|..|--- .... ....|--- .... ....|--- .... ....
....|..|R-- .... ....|--- .... ....|R-- .... ....
 C-4|..|C-2 2F.7 ....|--- .... ....|C-2 2F.7 ....
....|..|--- .... ....|--- .... ....|--- .... ....
....|..|--- .... ....|--- .... ....|--- .... ....
....|..|R-- .... ....|--- .... ....|R-- .... ....
 D#4|..|D#2 2F.7 ....|A#3 2F17 ....|D#2 2F.7 ....
....|..|--- .... ....|--- .... ....|--- .... ....
....|..|--- .... ....|--- .... ....|A#3 2F.A ....
....|..|--- .... ....|--- .... ....|--- .... ....
....|..|--- .... ....|--- .... ....|D#4 2F.F ....
....|..|--- .... ....|--- .... ....|--- .... ....
....|..|--- .... ....|--- .... ....|--- .... ....
....|..|--- .... ....|--- .... ....|R-- .... ....

[Pattern35]
 A#3|..|A#1 2A.F ....|A#3 2F2F ....|D#4 2F.F ....
....|..|--- .... ....|--- .... ....|--- .... ....
....|..|--- .... ....|--- .... ....|--- .... ....
....|..|--- .... ....|--- .... ....|--- .... ....
....|..|--- .... ....|--- .... ....|R-- .... ....
....|..|--- .... ....|--- .... ....|--- .... ....
....|..|--- .... ....|--- .... ....|F-4 2F.F ....
....|..|--- .... ....|--- .... ....|--- .... ....
....|..|--- .... ....|--- .... ....|D#4 2F.A ....
....|..|--- .... ....|--- .... ....|--- .... ....
....|..|--- .... ....|--- .... ....|--- .... ....
....|..|--- .... ....|--- .... ....|R-- .... ....
 A#3|..|A#1 2F.A ....|A#3 2F2A ....|A#3 2F.F ....
....|..|--- .... ....|--- .... ....|--- .... ....
....|..|--- .... ....|--- .... ....|--- .... ....
....|..|--- .... ....|--- .... ....|--- .... ....
....|..|--- .... ....|--- .... ....|A#3 2F.F ....
....|..|--- .... ....|--- .... ....|--- .... ....
....|..|--- .... ....|--- .... ....|F-4 2F.A ....
....|..|--- .... ....|--- .... ....|--- .... ....
....|..|--- .... ....|--- .... ....|D#4 2F.7 ....
....|..|--- .... ....|--- .... ....|--- .... ....
....|..|--- .... ....|--- .... ....|--- .... ....
....|..|--- .... ....|--- .... ....|R-- .... ....
 A#3|..|A#1 2F.7 ....|A#3 2F27 ....|D#4 2F.7 ....
....|..|--- .... ....|--- .... ....|--- .... ....
....|..|--- .... ....|--- .... ....|--- .... ....
....|..|--- .... ....|--- .... ....|--- .... ....
....|..|--- .... ....|--- .... ....|A#3 2F.F ....
....|..|--- .... ....|--- .... ....|--- .... ....
....|..|--- .... ....|--- .... ....|F-4 2F.7 ....
....|..|--- .... ....|--- .... ....|--- .... ....
 C-4|..|C-2 2A.F ....|C-4 2F3F ....|G-4 2F.F ....
....|..|--- .... ....|--- .... ....|--- .... ....
....|..|--- .... ....|--- .... ....|--- .... ....
....|..|--- .... ....|--- .... ....|--- .... ....
....|..|--- .... ....|--- .... ....|A#3 2F.7 ....
....|..|--- .... ....|--- .... ....|--- .... ....
....|..|--- .... ....|--- .... ....|G#4 2F.F ....
....|..|--- .... ....|--- .... ....|--- .... ....
....|..|--- .... ....|--- .... ....|A#3 2F.7 ....
....|..|--- .... ....|--- .... ....|--- .... ....
....|..|--- .... ....|--- .... ....|--- .... ....
....|..|--- .... ....|--- .... ....|--- .... ....
 C-4|..|C-2 2F.A ....|C-4 2F3A ....|G-4 2F.F ....
....|..|--- .... ....|--- .... ....|--- .... ....
....|..|--- .... ....|--- .... ....|--- .... ....
....|..|--- .... ....|--- .... ....|--- .... ....
 A#3|..|A#1 2A.F ....|D-4 2F4F ....|F-4 2F.F ....
....|..|--- .... ....|--- .... ....|--- .... ....
....|..|--- .... ....|--- .... ....|G#4 2F.A ....
....|..|--- .... ....|--- .... ....|--- .... ....
....|..|--- .... ....|--- .... ....|A#3 2F.7 ....
....|..|--- .... ....|--- .... ....|--- .... ....
....|..|--- .... ....|--- .... ....|D#4 2F.F ....
....|..|--- .... ....|--- .... ....|--- .... ....
 C-4|..|C-2 2F.7 ....|C-4 2F37 ....|G-4 2F.7 ....
....|..|--- .... ....|--- .... ....|--- .... ....
....|..|--- .... ....|--- .... ....|--- .... ....
....|..|--- .... ....|--- .... ....|--- .... ....
 A#3|..|A#1 2F.A ....|D-4 2F4A ....|F-4 2F.F ....
....|..|--- .... ....|--- .... ....|--- .... ....
....|..|--- .... ....|--- .... ....|G#4 2F.7 ....
....|..|--- .... ....|--- .... ....|--- .... ....

[Pattern38]
 G-3|..|G-1 2A.F ....|C-4 2F7F ....|C-4 2F.F ....
....|..|--- .... ....|--- .... ....|--- .... ....
....|..|--- .... ....|--- .... ....|--- .... ....
....|..|--- .... ....|--- .... ....|--- .... ....
....|..|--- .... ....|--- .... ....|E-4 2F.7 ....
....|..|--- .... ....|--- .... ....|--- .... ....
....|..|--- .... ....|--- .... ....|--- .... ....
....|..|--- .... ....|--- .... ....|--- .... ....
....|..|--- .... ....|--- .... ....|F-4 2F.7 ....
....|..|--- .... ....|--- .... ....|--- .... ....
....|..|--- .... ....|--- .... ....|--- .... ....
....|..|--- .... ....|--- .... ....|--- .... ....
 G-3|..|G-1 2F.A ....|C-4 2F7A ....|D-4 2F.F ....
....|..|--- .... ....|--- .... ....|--- .... ....
....|..|--- .... ....|--- .... ....|--- .... ....
....|..|--- .... ....|--- .... ....|--- .... ....
 G-4|..|G-2 2A.F ....|B-3 2F8F ....|D-4 2F.F ....
....|..|--- .... ....|--- .... ....|--- .... ....
....|..|--- .... ....|--- .... ....|--- .... ....
....|..|--- .... ....|--- .... ....|--- .... ....
....|..|--- .... ....|--- .... ....|--- .... ....
....|..|--- .... ....|--- .... ....|--- .... ....
....|..|--- .... ....|--- .... ....|--- .... ....
....|..|--- .... ....|--- .... ....|--- .... ....
 G-3|..|G-1 2F.7 ....|C-4 2F77 ....|C-4 2F.7 ....
....|..|--- .... ....|--- .... ....|--- .... ....
....|..|--- .... ....|--- .... ....|--- .... ....
....|..|--- .... ....|--- .... ....|--- .... ....
 G-4|..|G-2 2F.A ....|B-3 2F8A ....|D-4 2F.A ....
....|..|--- .... ....|--- .... ....|--- .... ....
....|..|--- .... ....|--- .... ....|--- .... ....
....|..|--- .... ....|--- .... ....|--- .... ....
 D#4|..|D#2 2A.F ....|A#3 2F1F ....|D#2 2A.F ....
....|..|--- .... ....|--- .... ....|--- .... ....
....|..|--- .... ....|--- .... ....|--- .... ....
....|..|--- .... ....|--- .... ....|--- .... ....
....|..|--- .... ....|--- .... ....|D-4 2F.7 ....
....|..|--- .... ....|--- .... ....|--- .... ....
....|..|--- .... ....|--- .... ....|--- .... ....
....|..|--- .... ....|--- .... ....|--- .... ....
 G-4|..|G-2 2F.7 ....|B-3 2F87 ....|D#4 2F.F ....
....|..|--- .... ....|--- .... ....|--- .... ....
....|..|--- .... ....|--- .... ....|--- .... ....
....|..|--- .... ....|--- .... ....|--- .... ....
 D#4|..|D#2 2F.A ....|A#3 2F1A ....|A#3 2F.F ....
....|..|--- .... ....|--- .... ....|--- .... ....
....|..|--- .... ....|--- .... ....|A#3 2F.F ....
....|..|--- .... ....|--- .... ....|--- .... ....
....|..|--- .... ....|--- .... ....|R-- .... ....
....|..|--- .... ....|--- .... ....|--- .... ....
....|..|--- .... ....|--- .... ....|--- .... ....
....|..|--- .... ....|--- .... ....|--- .... ....
....|..|--- .... ....|--- .... ....|R-- .... ....
....|..|--- .... ....|--- .... ....|--- .... ....
....|..|--- .... ....|--- .... ....|--- .... ....
....|..|--- .... ....|--- .... ....|--- .... ....
 D#4|..|D#2 2F.7 ....|A#3 2F17 ....|D#2 2F.7 ....
....|..|--- .... ....|--- .... ....|--- .... ....
....|..|--- .... ....|--- .... ....|A#3 2F.A ....
....|..|--- .... ....|--- .... ....|--- .... ....
....|..|--- .... ....|--- .... ....|D#4 2F.F ....
....|..|--- .... ....|--- .... ....|--- .... ....
....|..|--- .... ....|--- .... ....|--- .... ....
....|..|--- .... ....|--- .... ....|R-- .... ....

[Pattern39]
 A#3|..|A#1 2A.F ....|A#3 2F2F ....|D#4 2F.F ....
....|..|--- .... ....|--- .... ....|--- .... ....
....|..|--- .... ....|--- .... ....|--- .... ....
....|..|--- .... ....|--- .... ....|--- .... ....
....|..|--- .... ....|--- .... ....|A#3 2F.7 ....
....|..|--- .... ....|--- .... ....|--- .... ....
....|..|--- .... ....|--- .... ....|F-4 2F.F ....
....|..|--- .... ....|--- .... ....|--- .... ....
....|..|--- .... ....|--- .... ....|D#4 2F.A ....
....|..|--- .... ....|--- .... ....|--- .... ....
....|..|--- .... ....|--- .... ....|--- .... ....
....|..|--- .... ....|--- .... ....|R-- .... ....
 A#3|..|A#1 2F.A ....|A#3 2F2A ....|A#3 2F.F ....
....|..|--- .... ....|--- .... ....|--- .... ....
....|..|--- .... ....|--- .... ....|--- .... ....
....|..|--- .... ....|--- .... ....|--- .... ....
....|..|--- .... ....|--- .... ....|A#3 2F.F ....
....|..|--- .... ....|--- .... ....|--- .... ....
....|..|--- .... ....|--- .... ....|F-4 2F.A ....
....|..|--- .... ....|--- .... ....|--- .... ....
....|..|--- .... ....|--- .... ....|D#4 2F.7 ....
....|..|--- .... ....|--- .... ....|--- .... ....
....|..|--- .... ....|--- .... ....|--- .... ....
....|..|--- .... ....|--- .... ....|R-- .... ....
 A#3|..|A#1 2F.7 ....|A#3 2F27 ....|D#4 2F.7 ....
....|..|--- .... ....|--- .... ....|--- .... ....
....|..|--- .... ....|--- .... ....|--- .... ....
....|..|--- .... ....|--- .... ....|--- .... ....
....|..|--- .... ....|--- .... ....|A#3 2F.F ....
....|..|--- .... ....|--- .... ....|--- .... ....
....|..|--- .... ....|--- .... ....|F-4 2F.7 ....
....|..|--- .... ....|--- .... ....|--- .... ....
 C-4|..|C-2 2A.F ....|C-4 2F3F ....|G-4 2F.F ....
....|..|--- .... ....|--- .... ....|--- .... ....
....|..|--- .... ....|--- .... ....|--- .... ....
....|..|--- .... ....|--- .... ....|--- .... ....
....|..|--- .... ....|--- .... ....|A#3 2F.7 ....
....|..|--- .... ....|--- .... ....|--- .... ....
....|..|--- .... ....|--- .... ....|G#4 2F.F ....
....|..|--- .... ....|--- .... ....|--- .... ....
....|..|--- .... ....|--- .... ....|A#3 2F.7 ....
....|..|--- .... ....|--- .... ....|--- .... ....
....|..|--- .... ....|--- .... ....|--- .... ....
....|..|--- .... ....|--- .... ....|--- .... ....
 C-4|..|C-2 2F.A ....|C-4 2F3A ....|G-4 2F.F ....
....|..|--- .... ....|--- .... ....|--- .... ....
....|..|--- .... ....|--- .... ....|--- .... ....
....|..|--- .... ....|--- .... ....|--- .... ....
 A#3|..|A#1 2A.F ....|D-4 2F4F ....|F-4 2F.F ....
....|..|--- .... ....|--- .... ....|--- .... ....
....|..|--- .... ....|--- .... ....|G#4 2F.A ....
....|..|--- .... ....|--- .... ....|--- .... ....
....|..|--- .... ....|--- .... ....|A#3 2F.7 ....
....|..|--- .... ....|--- .... ....|--- .... ....
....|..|--- .... ....|--- .... ....|D#4 2F.F ....
....|..|--- .... ....|--- .... ....|--- .... ....
 C-4|..|C-2 2F.7 ....|C-4 2F37 ....|G-4 2F.7 ....
....|..|--- .... ....|--- .... ....|--- .... ....
....|..|--- .... ....|--- .... ....|--- .... ....
....|..|--- .... ....|--- .... ....|--- .... ....
 A#3|..|A#1 2F.A ....|D-4 2F4A ....|F-4 2F.F ....
....|..|--- .... ....|--- .... ....|--- .... ....
....|..|--- .... ....|--- .... ....|G#4 2F.7 ....
....|..|--- .... ....|--- .... ....|--- .... ....

[Pattern52]
 F-3|..|F-1 2A.F ....|R-- .... ....|A#4 2F.F ....
....|..|R-- .... ....|--- .... ....|R-- .... ....
 F-4|..|F-2 2F.A ....|D#4 2FB7 ....|F-4 2F.A ....
....|..|R-- .... ....|--- .... ....|R-- .... ....
 F-3|..|F-1 2A.F ....|F-4 2F1F ....|A#4 2F.F ....
....|..|--- .... ....|--- .... ....|--- .... ....
 D#4|..|D#2 2F.7 ....|R-- .... ....|D#2 2F.7 ....
....|..|R-- .... ....|--- .... ....|R-- .... ....
 G-3|..|G-1 2A.F ....|F-4 2F37 ....|G-4 2F.F ....
....|..|--- .... ....|--- .... ....|--- .... ....
 F-4|..|F-2 2F.7 ....|F-4 2F1F ....|F-2 2F.7 ....
....|..|R-- .... ....|--- .... ....|R-- .... ....
 G-3|..|G-1 2A.F ....|R-- .... ....|A#4 2F.F ....
....|..|R-- .... ....|--- .... ....|R-- .... ....
 F-4|..|F-2 2F.7 ....|F-4 2F37 ....|F-4 2F.7 ....
....|..|R-- .... ....|--- .... ....|R-- .... ....
 G#3|..|G#1 2A.F ....|D#4 2FBF ....|A#4 2F.F ....
....|..|--- .... ....|--- .... ....|--- .... ....
....|..|--- .... ....|R-- .... ....|--- .... ....
....|..|R-- .... ....|--- .... ....|R-- .... ....
 G#3|..|G#1 2A.F ....|F-4 2F37 ....|G#1 2A.F ....
....|..|--- .... ....|--- .... ....|--- .... ....
....|..|--- .... ....|D#4 2FBF ....|C-5 2F.F ....
....|..|R-- .... ....|--- .... ....|R-- .... ....
 A#3|..|A#1 2A.F ....|R-- .... ....|A#1 2A.F ....
....|..|--- .... ....|--- .... ....|R-- .... ....
....|..|--- .... ....|--- .... ....|--- .... ....
....|..|R-- .... ....|--- .... ....|R-- .... ....
 A#3|..|A#1 2A.F ....|F-4 2F17 ....|A#1 2A.F ....
....|..|--- .... ....|--- .... ....|--- .... ....
....|..|--- .... ....|R-- .... ....|--- .... ....
....|..|R-- .... ....|--- .... ....|R-- .... ....
 G#3|..|G#1 2A.F ....|G#4 2F2F ....|D#4 2F.F ....
....|..|--- .... ....|--- .... ....|--- .... ....
....|..|--- .... ....|F-4 2F17 ....|C-5 2F.A ....
....|..|R-- .... ....|--- .... ....|R-- .... ....
 G#3|..|G#1 2A.F ....|--- .... ....|G#1 2A.F ....
....|..|--- .... ....|--- .... ....|R-- .... ....
....|..|--- .... ....|--- .... ....|D#4 2F.F ....
....|..|R-- .... ....|--- .... ....|R-- .... ....
 G#3|..|G#1 2A.F ....|D#4 2FB7 ....|G#1 2A.F ....
....|..|--- .... ....|--- .... ....|--- .... ....
 G#3|..|G#1 2A.F ....|--- .... ....|G#1 2A.F ....
....|..|R-- .... ....|--- .... ....|R-- .... ....
 G#3|..|G#1 2F.7 ....|G#4 2F2A ....|D-4 2F.F ....
....|..|--- .... ....|--- .... ....|--- .... ....
 G#3|..|G#1 2A.F ....|D#4 2FB7 ....|G#1 2A.F ....
....|..|R-- .... ....|--- .... ....|R-- .... ....
 G#3|..|G#1 2A.F ....|--- .... ....|D#4 2F.F ....
....|..|R-- .... ....|--- .... ....|R-- .... ....
 G#3|..|G#1 2A.F ....|--- .... ....|G#1 2A.F ....
....|..|R-- .... ....|--- .... ....|R-- .... ....
 A#3|..|A#1 2F.7 ....|--- .... ....|A#1 2F.7 ....
....|..|R-- .... ....|--- .... ....|R-- .... ....
 G#3|..|G#1 2A.F ....|--- .... ....|D#4 2F.F ....
....|..|R-- .... ....|--- .... ....|R-- .... ....
 G#3|..|G#1 2A.F ....|G#4 2F27 ....|G#1 2A.F ....
....|..|--- .... ....|--- .... ....|--- .... ....
 G#3|..|G#1 2A.F ....|--- .... ....|G#1 2A.F ....
....|..|R-- .... ....|--- .... ....|R-- .... ....
 G#3|..|G#1 2F.7 ....|--- .... ....|D-4 2F.F ....
....|..|R-- .... ....|--- .... ....|R-- .... ....
 G#3|..|G#1 2A.F ....|--- .... ....|G#1 2A.F ....
....|..|R-- .... ....|--- .... ....|R-- .... ....

[Pattern62]
 A#3|..|A#1 2A.F ....|R-- .... ....|A#4 2F.F ....
....|..|R-- .... ....|--- .... ....|R-- .... ....
 F-4|..|F-2 2F.A ....|D#4 2FB7 ....|F-4 2F.A ....
....|..|R-- .... ....|--- .... ....|R-- .... ....
 A#3|..|A#1 2A.F ....|F-4 2F1F ....|A#4 2F.F ....
....|..|--- .... ....|--- .... ....|--- .... ....
 D#4|..|D#2 2F.7 ....|R-- .... ....|D#2 2F.7 ....
....|..|R-- .... ....|--- .... ....|R-- .... ....
 G-3|..|G-1 2A.F ....|F-4 2F37 ....|G-4 2F.F ....
....|..|--- .... ....|--- .... ....|--- .... ....
 F-4|..|F-2 2F.7 ....|F-4 2F1F ....|F-2 2F.7 ....
....|..|R-- .... ....|--- .... ....|R-- .... ....
 A#3|..|A#1 2A.F ....|R-- .... ....|A#4 2F.F ....
....|..|R-- .... ....|--- .... ....|R-- .... ....
 F-4|..|F-2 2F.7 ....|F-4 2F37 ....|F-4 2F.7 ....
....|..|R-- .... ....|--- .... ....|R-- .... ....
 A#3|..|A#1 2A.F ....|D#4 2FBF ....|A#4 2F.F ....
....|..|--- .... ....|--- .... ....|--- .... ....
....|..|--- .... ....|R-- .... ....|--- .... ....
....|..|R-- .... ....|--- .... ....|R-- .... ....
 C-4|..|C-2 2F.7 ....|F-4 2F37 ....|D#4 2F.7 ....
....|..|--- .... ....|--- .... ....|--- .... ....
 C-4|..|C-2 2A.F ....|D#4 2FBF ....|C-5 2F.F ....
....|..|R-- .... ....|--- .... ....|R-- .... ....
 A#3|..|A#1 2F.7 ....|R-- .... ....|A#4 2F.7 ....
....|..|R-- .... ....|--- .... ....|R-- .... ....
....|..|--- .... ....|--- .... ....|--- .... ....
....|..|R-- .... ....|--- .... ....|R-- .... ....
 A#3|..|A#1 2F.7 ....|F-4 2F17 ....|A#4 2F.7 ....
....|..|--- .... ....|--- .... ....|--- .... ....
....|..|--- .... ....|R-- .... ....|--- .... ....
....|..|R-- .... ....|--- .... ....|R-- .... ....
 G-3|..|G-1 2F.7 ....|R-- .... ....|G-4 2F.7 ....
....|..|--- .... ....|--- .... ....|--- .... ....
 C-4|..|C-2 2F.A ....|F-4 2F17 ....|C-5 2F.A ....
....|..|R-- .... ....|--- .... ....|R-- .... ....
 A#3|..|A#1 2F.7 ....|--- .... ....|A#4 2F.7 ....
....|..|R-- .... ....|--- .... ....|R-- .... ....
....|..|--- .... ....|--- .... ....|--- .... ....
....|..|R-- .... ....|--- .... ....|R-- .... ....
 A#3|..|A#1 2F.7 ....|D#4 2FB7 ....|A#4 2F.7 ....
....|..|--- .... ....|--- .... ....|--- .... ....
....|..|--- .... ....|--- .... ....|--- .... ....
....|..|--- .... ....|--- .... ....|--- .... ....
....|..|--- .... ....|R-- .... ....|--- .... ....
....|..|--- .... ....|--- .... ....|--- .... ....
 C-4|..|C-2 2F.7 ....|D#4 2FB7 ....|C-5 2F.7 ....
....|..|--- .... ....|--- .... ....|--- .... ....
....|..|--- .... ....|--- .... ....|--- .... ....
....|..|R-- .... ....|--- .... ....|R-- .... ....
....|..|--- .... ....|--- .... ....|--- .... ....
....|..|--- .... ....|--- .... ....|--- .... ....
....|..|--- .... ....|--- .... ....|--- .... ....
....|..|--- .... ....|--- .... ....|--- .... ....
....|..|--- .... ....|--- .... ....|--- .... ....
....|..|--- .... ....|--- .... ....|--- .... ....

