[Module]
VortexTrackerII=0
Version=3.5
Title=8me-9me,3m[5],11d-2me+
Author=oisee/siril^4d 2012.10.06
NoteTable=4
ChipFreq=1750000
Speed=4
PlayOrder=L0,1,2,2,4,5,5,5,8,9,10,11,12,13,14,15,16,17,18,19,20,21,22,23,20,21,22,27,28,29,30,31,32,33,34,35,36,37,38,37,40,37,38,37,44,45,46,47,48,49,9,51,20,21,22,23,20,21,22,59,60,60,60,63,64

[Ornament1]
L0

[Ornament2]
L0

[Ornament3]
L0

[Ornament4]
L0

[Ornament5]
L0

[Ornament6]
L0

[Ornament7]
L0

[Ornament8]
L0

[Ornament9]
L0

[Ornament10]
L0

[Ornament11]
L0

[Ornament12]
L0

[Ornament13]
L0

[Ornament14]
L0

[Ornament15]
L0

[Sample1]
TnE +000_ +00_ F_
TnE +000_ +00_ F_
TnE +000_ +00_ F_
TnE +000_ +00_ D_
TnE +000_ +00_ B_
TnE +000_ +00_ B_ L

[Sample2]
TnE +000_ +00_ F_ L

[Sample3]
TnE +001_ +00_ F_
TnE +002_ +00_ F_
TnE +001_ +00_ E_
TnE +002_ +00_ E_
TnE +000_ +00_ E_ L
TnE -001_ +00_ E_
TnE -002_ +00_ E_
TnE -001_ +00_ E_
TnE +000_ +00_ E_
TnE +001_ +00_ E_
TnE +002_ +00_ E_
TnE +001_ +00_ E_

[Sample4]
TnE +002_ +00_ D_
TnE +002_ +00_ D_
TnE +002_ +00_ C_
TnE +002_ +00_ B_
TnE +002_ +00_ A_ L
TnE +002_ +00_ A_
TnE +002_ +00_ A_
TnE +002_ +00_ A_
TnE +002_ +00_ A_
TnE +002_ +00_ A_
TnE +002_ +00_ A_
TnE +002_ +00_ A_

[Sample5]
TnE +000_ +00_ F_
TnE +000_ +00_ F_
tne +000_ +00_ 0_ L

[Sample6]
TnE -001_ +00_ F_ L

[Sample7]
TnE +006_ +00_ F_ L

[Sample8]
tNe +000_ +00_ F_
tNe +000_ +00_ B_
tNe +000_ +00_ 7_
tNe +000_ +00_ 6- L

[Sample9]
TnE +080_ +00_ F_
TnE +100_ +00_ E_
TnE +180_ +00_ E_
TnE +200_ +00_ E_
TnE +240_ +00_ D_
TnE +280_ +00_ D_
TnE +2C0_ +00_ D_
TnE +300_ +00_ C_
TnE +300_ +00_ C_
TnE +340_ +00_ C_
TnE +340_ +00_ C_
TnE +380_ +00_ B_
TnE +380_ +00_ B_
TnE +400_ +00_ B_
TnE +400_ +00_ B_
TnE +480_ +00_ A_
TnE +500_ +00_ 9_
TnE +580_ +00_ 7_
TnE +600_ +00_ 4_
TnE +680_ +00_ 1_
TnE +000_ +00_ 0_ L

[Sample10]
Tne +1C0_ +00_ F_
Tne +280_ +00_ E_
Tne +380_ +00_ C_
Tne +440_ +00_ A_
Tne +480_ +00_ 8_
TnE +000_ +00_ 0_ L

[Sample11]
TNe +200_ -0A_ F_
tNe +000_ +0F_ A_
TNe +200_ -07_ E_
tNe +000_ +0E_ B- L

[Sample12]
TNE +0A0_ +05_ F_
TNE +140_ +02_ D_
TNE +140_ +02_ B_
TNE +100_ +00_ A_ L
TNE +140_ +00_ A_
TNE +200_ +00_ A-

[Sample13]
Tne +200_ +00_ F_
Tne +2C0_ +00_ F_
Tne +380_ +00_ E_
Tne +500_ +00_ C_
Tne +520_ +00_ 9_
tne +000_ +00_ 0_ L

[Sample14]
TNE -100_ +00_ F_
TNE -100_ +00_ D_
TNE -100_ +00_ A_
TNE -100_ +00_ 5_
tne +000_ +00_ 0_ L

[Sample15]
TNE -100_ +00_ 5_
TNE -100_ +00_ 8_
TNE -100_ +00_ B_
TNE -100_ +00_ F_
TNe -100_ +00_ 9- L

[Sample16]
TnE +000_ +00_ C_
TnE +000_ +00_ E_
TnE +000_ +00_ F_
TnE +000_ +00_ F_
TnE +000_ +00_ E_
TnE +000_ +00_ D_
TnE +000_ +00_ C_
TnE +000_ +00_ C_ L
TnE +001_ +00_ C_
TnE +002_ +00_ C_
TnE +003_ +00_ C_
TnE +001_ +00_ C_
TnE +000_ +00_ C_
TnE -001_ +00_ C_
TnE -002_ +00_ C_
TnE -003_ +00_ C_
TnE -001_ +00_ C_
TnE +000_ +00_ C_
TnE +000_ +00_ C_

[Sample17]
Tne +1C0_ +00_ F_
Tne +280_ +00_ D_
Tne +380_ +00_ 7_
TNE +000_ +00_ 0_ L

[Sample18]
TnE -00C_ +00_ 0_ L

[Sample19]
TNe +000_ +00_ F_
TNe +000_ +00_ C_
TNe +000_ +00_ 6_
TNe +000_ +01_ A- L

[Sample20]
TNE +140_ +00_ F_
tNE +000_ +00_ B- L

[Sample21]
tNE +000_ +00_ D_
tNE +000_ +00_ 8_
tNE +000_ +00_ 1_
TNE +000_ +00_ 0_ L

[Sample22]
TnE +000_ +00_ D_ L
TnE +000_ +00_ D_
tne +000_ +00_ 9_
tne +000_ +00_ 9_
TnE +000_ +00_ D_
TnE +000_ +00_ D_
tne +000_ +00_ 9_
tne +000_ +00_ 9_
TnE +000_ +00_ D_
TnE +000_ +00_ D_
TnE +000_ +00_ D_
TnE +000_ +00_ D_
TnE +000_ +00_ D_
TnE +000_ +00_ D_
tne +000_ +00_ 9_
tne +000_ +00_ 9_

[Sample23]
TnE +000_ +00_ F_ L
TnE +010_ +01_ F_
TnE +010_ +01_ F_
TnE +010_ +01_ F_
TnE +010_ +01_ F_
TnE +000_ +00_ F_
TnE +000_ +00_ F_
TnE -010_ -01_ F_
TnE -010_ -01_ F_
TnE -010_ -01_ F_
TnE -010_ -01_ F_
TnE +000_ +00_ F_

[Sample24]
TNe +000_ -01_ C_
TNe +000_ -01_ D_
TNe +000_ -01_ E_
TNe +000_ -01_ F_
TNe +000_ -01_ F_
TNe +000_ -01_ F_
TNe +000_ -01_ F_
TNe +000_ -01_ F_
TNe +000_ -01_ E_
TNe +000_ -01_ E_
TNe +000_ -01_ E_
TNe +000_ -01_ F_
TNe +000_ -01_ F_ L

[Sample25]
TNE +000_ +00_ F_
TNE +000_ +00_ F_ L
TNE +000_ +00_ F_
TNE +000_ +00_ F_
TNE +000_ +00_ F-

[Sample26]
tne +000_ +00_ 0_ L

[Sample27]
TnE +100_ +05_ F_
TnE +200_ +02_ A_
TnE +300_ +02_ 7_
TNE +400_ +00_ 3- L

[Sample28]
tne +000_ +00_ 0_ L

[Sample29]
tnE +000_ +00_ 0_ L

[Sample30]
TNE +000_ +00_ C+ L

[Sample31]
TNe +1C0_ +00_ F_
Tne +280_ +00_ E_
Tne +380_ +00_ C_
Tne +440_ +00_ A_
Tne +480_ +00_ 8_
TnE +000_ +00_ 0_ L

[Pattern0]
....|..|--- .... ....|D-4 5F.F ....|--- .... ....
....|..|--- .... ....|--- .... ....|--- .... ....
....|..|--- .... ....|--- .... ....|--- .... ....
....|..|--- .... ....|--- .... ....|--- .... ....
....|..|--- .... ....|--- .... ....|--- .... ....
....|..|--- .... ....|--- .... ....|--- .... ....
....|..|--- .... ....|D-4 5F.A ....|--- .... ....
....|..|--- .... ....|--- .... ....|--- .... ....
....|..|--- .... ....|D-4 5F.F ....|--- .... ....
....|..|--- .... ....|--- .... ....|--- .... ....
....|..|--- .... ....|--- .... ....|--- .... ....
....|..|--- .... ....|--- .... ....|--- .... ....
....|..|--- .... ....|D-4 5F.7 ....|--- .... ....
....|..|--- .... ....|--- .... ....|--- .... ....
....|..|--- .... ....|D-4 5F.F ....|--- .... ....
....|..|--- .... ....|--- .... ....|--- .... ....
....|..|--- .... ....|R-- .... ....|--- .... ....
....|..|--- .... ....|--- .... ....|--- .... ....
....|..|--- .... ....|R-- .... ....|--- .... ....
....|..|--- .... ....|--- .... ....|--- .... ....
....|..|--- .... ....|D-4 5F.F ....|--- .... ....
....|..|--- .... ....|--- .... ....|--- .... ....
....|..|--- .... ....|R-- .... ....|--- .... ....
....|..|--- .... ....|R-- .... ....|--- .... ....
....|..|--- .... ....|R-- .... ....|--- .... ....
....|..|--- .... ....|--- .... ....|--- .... ....
....|..|--- .... ....|D-4 5F.7 ....|--- .... ....
....|..|--- .... ....|--- .... ....|--- .... ....
....|..|--- .... ....|D-4 5F.F ....|--- .... ....
....|..|--- .... ....|R-- .... ....|--- .... ....
....|..|--- .... ....|--- .... ....|--- .... ....
....|..|--- .... ....|--- .... ....|--- .... ....
....|..|--- .... ....|D-4 5F.7 ....|--- .... ....
....|..|--- .... ....|--- .... ....|--- .... ....
....|..|--- .... ....|G-3 5F.F ....|--- .... ....
....|..|--- .... ....|R-- .... ....|--- .... ....
....|..|--- .... ....|--- .... ....|--- .... ....
....|..|--- .... ....|R-- .... ....|--- .... ....
....|..|--- .... ....|R-- .... ....|--- .... ....
....|..|--- .... ....|--- .... ....|--- .... ....
....|..|--- .... ....|G-3 5F.F ....|--- .... ....
....|..|--- .... ....|--- .... ....|--- .... ....
....|..|--- .... ....|--- .... ....|--- .... ....
....|..|--- .... ....|R-- .... ....|--- .... ....
....|..|--- .... ....|R-- .... ....|--- .... ....
....|..|--- .... ....|--- .... ....|--- .... ....
....|..|--- .... ....|G-3 5F.F ....|--- .... ....
....|..|--- .... ....|--- .... ....|--- .... ....
....|..|--- .... ....|R-- .... ....|--- .... ....
....|..|--- .... ....|R-- .... ....|--- .... ....
....|..|--- .... ....|R-- .... ....|--- .... ....
....|..|--- .... ....|--- .... ....|--- .... ....
....|..|--- .... ....|G-3 5F.F ....|--- .... ....
....|..|--- .... ....|--- .... ....|--- .... ....
....|..|--- .... ....|R-- .... ....|--- .... ....
....|..|--- .... ....|--- .... ....|--- .... ....
....|..|--- .... ....|R-- .... ....|--- .... ....
....|..|--- .... ....|--- .... ....|--- .... ....
....|..|--- .... ....|G-3 5F.7 ....|--- .... ....
....|..|--- .... ....|--- .... ....|--- .... ....
....|..|--- .... ....|G-3 5F.F ....|--- .... ....
....|..|--- .... ....|--- .... ....|--- .... ....
....|..|--- .... ....|R-- .... ....|--- .... ....
....|..|--- .... ....|--- .... ....|--- .... ....

[Pattern1]
....|..|--- .... ....|D-4 5F.F ....|--- .... ....
....|..|--- .... ....|--- .... ....|--- .... ....
....|..|--- .... ....|G-3 5F.A ....|--- .... ....
....|..|--- .... ....|--- .... ....|--- .... ....
....|..|--- .... ....|R-- .... ....|--- .... ....
....|..|--- .... ....|--- .... ....|--- .... ....
....|..|--- .... ....|D-4 5F.A ....|--- .... ....
....|..|--- .... ....|--- .... ....|--- .... ....
....|..|--- .... ....|D-4 5F.F ....|--- .... ....
....|..|--- .... ....|--- .... ....|--- .... ....
....|..|--- .... ....|--- .... ....|--- .... ....
....|..|--- .... ....|--- .... ....|--- .... ....
....|..|--- .... ....|D-4 5F.7 ....|--- .... ....
....|..|--- .... ....|--- .... ....|--- .... ....
....|..|--- .... ....|D-4 5F.F ....|--- .... ....
....|..|--- .... ....|--- .... ....|--- .... ....
....|..|--- .... ....|R-- .... ....|--- .... ....
....|..|--- .... ....|--- .... ....|--- .... ....
....|..|--- .... ....|R-- .... ....|--- .... ....
....|..|--- .... ....|--- .... ....|--- .... ....
....|..|--- .... ....|D-4 5F.F ....|--- .... ....
....|..|--- .... ....|--- .... ....|--- .... ....
....|..|--- .... ....|R-- .... ....|--- .... ....
....|..|--- .... ....|R-- .... ....|--- .... ....
....|..|--- .... ....|R-- .... ....|--- .... ....
....|..|--- .... ....|--- .... ....|--- .... ....
....|..|--- .... ....|D-4 5F.7 ....|--- .... ....
....|..|--- .... ....|--- .... ....|--- .... ....
....|..|--- .... ....|D-4 5F.F ....|--- .... ....
....|..|--- .... ....|R-- .... ....|--- .... ....
....|..|--- .... ....|--- .... ....|--- .... ....
....|..|--- .... ....|--- .... ....|--- .... ....
....|..|--- .... ....|D-4 5F.7 ....|--- .... ....
....|..|--- .... ....|--- .... ....|--- .... ....
....|..|--- .... ....|G-3 5F.F ....|--- .... ....
....|..|--- .... ....|R-- .... ....|--- .... ....
....|..|--- .... ....|--- .... ....|--- .... ....
....|..|--- .... ....|R-- .... ....|--- .... ....
....|..|--- .... ....|R-- .... ....|--- .... ....
....|..|--- .... ....|--- .... ....|--- .... ....
....|..|--- .... ....|G-3 5F.F ....|--- .... ....
....|..|--- .... ....|--- .... ....|--- .... ....
....|..|--- .... ....|--- .... ....|--- .... ....
....|..|--- .... ....|R-- .... ....|--- .... ....
....|..|--- .... ....|R-- .... ....|--- .... ....
....|..|--- .... ....|--- .... ....|--- .... ....
....|..|--- .... ....|G-3 5F.F ....|--- .... ....
....|..|--- .... ....|--- .... ....|--- .... ....
....|..|--- .... ....|R-- .... ....|--- .... ....
....|..|--- .... ....|R-- .... ....|--- .... ....
....|..|--- .... ....|R-- .... ....|--- .... ....
....|..|--- .... ....|--- .... ....|--- .... ....
....|..|--- .... ....|G-3 5F.F ....|--- .... ....
....|..|--- .... ....|--- .... ....|--- .... ....
....|..|--- .... ....|R-- .... ....|--- .... ....
....|..|--- .... ....|--- .... ....|--- .... ....
....|..|--- .... ....|R-- .... ....|--- .... ....
....|..|--- .... ....|--- .... ....|--- .... ....
....|..|--- .... ....|G-3 5F.7 ....|--- .... ....
....|..|--- .... ....|--- .... ....|--- .... ....
....|..|--- .... ....|G-3 5F.F ....|--- .... ....
....|..|--- .... ....|--- .... ....|--- .... ....
....|..|--- .... ....|R-- .... ....|--- .... ....
....|..|--- .... ....|--- .... ....|--- .... ....

[Pattern2]
 D-4|..|D-3 2C.F ....|D-4 5F.F ....|--- .... ....
....|..|--- .... ....|--- .... ....|--- .... ....
 D-4|..|D-3 2C.F ....|G-3 5F.A ....|--- .... ....
....|..|--- .... ....|--- .... ....|--- .... ....
 F-4|..|F-3 2C.F ....|R-- .... ....|--- .... ....
....|..|--- .... ....|--- .... ....|--- .... ....
 G-4|..|G-3 2C.F ....|D-4 5F.A ....|--- .... ....
....|..|--- .... ....|--- .... ....|--- .... ....
 A-3|..|A-3 2C.F ....|D-4 5F.F ....|--- .... ....
....|..|--- .... ....|--- .... ....|--- .... ....
 G-4|..|G-3 2C.F ....|--- .... ....|--- .... ....
....|..|--- .... ....|--- .... ....|--- .... ....
 F-4|..|F-3 2C.F ....|D-4 5F.7 ....|--- .... ....
....|..|--- .... ....|--- .... ....|--- .... ....
 E-4|..|E-3 2C.F ....|D-4 5F.F ....|--- .... ....
....|..|--- .... ....|--- .... ....|--- .... ....
 D-4|..|D-3 2C.F ....|R-- .... ....|--- .... ....
....|..|--- .... ....|--- .... ....|--- .... ....
 D-4|..|D-3 2C.F ....|R-- .... ....|--- .... ....
....|..|--- .... ....|--- .... ....|--- .... ....
 F-4|..|F-3 2C.F ....|D-4 5F.F ....|--- .... ....
....|..|--- .... ....|--- .... ....|--- .... ....
 G-4|..|G-3 2C.F ....|R-- .... ....|--- .... ....
....|..|--- .... ....|R-- .... ....|--- .... ....
 D-4|..|D-4 2C.F ....|R-- .... ....|--- .... ....
....|..|--- .... ....|--- .... ....|--- .... ....
 A-3|..|A-3 2C.F ....|D-4 5F.7 ....|--- .... ....
....|..|--- .... ....|--- .... ....|--- .... ....
 G-4|..|G-3 2C.F ....|D-4 5F.F ....|--- .... ....
....|..|--- .... ....|R-- .... ....|--- .... ....
 F-4|..|F-3 2C.F ....|--- .... ....|--- .... ....
....|..|--- .... ....|--- .... ....|--- .... ....
 D-4|..|D-3 2C.F ....|D-4 5F.7 ....|--- .... ....
....|..|--- .... ....|--- .... ....|--- .... ....
 D-4|..|D-3 2C.F ....|G-3 5F.F ....|--- .... ....
....|..|--- .... ....|R-- .... ....|--- .... ....
 F-4|..|F-3 2C.F ....|--- .... ....|--- .... ....
....|..|--- .... ....|R-- .... ....|--- .... ....
 G-4|..|G-3 2C.F ....|R-- .... ....|--- .... ....
....|..|--- .... ....|--- .... ....|--- .... ....
 A-3|..|A-3 2C.F ....|G-3 5F.F ....|--- .... ....
....|..|--- .... ....|--- .... ....|--- .... ....
 G-4|..|G-3 2C.F ....|--- .... ....|--- .... ....
....|..|--- .... ....|R-- .... ....|--- .... ....
 F-4|..|F-3 2C.F ....|R-- .... ....|--- .... ....
....|..|--- .... ....|--- .... ....|--- .... ....
 E-4|..|E-3 2C.F ....|G-3 5F.F ....|--- .... ....
....|..|--- .... ....|--- .... ....|--- .... ....
 D-4|..|D-3 2C.F ....|R-- .... ....|--- .... ....
....|..|--- .... ....|R-- .... ....|--- .... ....
 D-4|..|D-3 2C.F ....|R-- .... ....|--- .... ....
....|..|--- .... ....|--- .... ....|--- .... ....
 F-4|..|F-3 2C.F ....|G-3 5F.F ....|--- .... ....
....|..|--- .... ....|--- .... ....|--- .... ....
 G-4|..|G-3 2C.F ....|R-- .... ....|--- .... ....
....|..|--- .... ....|--- .... ....|--- .... ....
 D-4|..|D-4 2C.F ....|R-- .... ....|--- .... ....
....|..|--- .... ....|--- .... ....|--- .... ....
 A-3|..|A-3 2C.F ....|G-3 5F.7 ....|--- .... ....
....|..|--- .... ....|--- .... ....|--- .... ....
 G-4|..|G-3 2C.F ....|G-3 5F.F ....|--- .... ....
....|..|--- .... ....|--- .... ....|--- .... ....
 F-4|..|F-3 2C.F ....|R-- .... ....|--- .... ....
....|..|--- .... ....|--- .... ....|--- .... ....

[Pattern4]
 D-4|..|D-3 2C.F ....|D-4 5F.F ....|D-3 2C.F ....
....|..|--- .... ....|--- .... ....|--- .... ....
 D-4|..|D-3 2C.F ....|G-3 5F.A ....|--- .... ....
....|..|--- .... ....|--- .... ....|--- .... ....
 F-4|..|F-3 2C.F ....|R-- .... ....|--- .F.. ....
....|..|--- .... ....|--- .... ....|--- .... ....
 G-4|..|G-3 2C.F ....|D-4 5F.A ....|D-2 2F.A ....
....|..|--- .... ....|--- .... ....|--- .... ....
 A-3|..|A-3 2C.F ....|D-4 5F.F ....|C-4 BF.F ....
....|..|--- .... ....|--- .... ....|R-- .... ....
 G-4|..|G-3 2C.F ....|--- .... ....|--- .... ....
....|..|--- .... ....|--- .... ....|--- .... ....
 F-4|..|F-3 2C.F ....|D-4 5F.7 ....|D-2 2F.F ....
....|..|--- .... ....|--- .... ....|--- .... ....
 E-4|..|E-3 2C.F ....|D-4 5F.F ....|C-4 BF.A ....
....|..|--- .... ....|--- .... ....|R-- .... ....
 D-4|..|D-3 2C.F ....|R-- .... ....|R-- .... ....
....|..|--- .... ....|--- .... ....|--- .... ....
 D-4|..|D-3 2C.F ....|R-- .... ....|D-2 2F.A ....
....|..|--- .... ....|--- .... ....|--- .... ....
 F-4|..|F-3 2C.F ....|D-4 5F.F ....|C-4 BF.7 ....
....|..|--- .... ....|--- .... ....|R-- .... ....
 G-4|..|G-3 2C.F ....|R-- .... ....|D-2 2F.F ....
....|..|--- .... ....|R-- .... ....|--- .... ....
 D-4|..|D-4 2C.F ....|R-- .... ....|C-4 BF.F ....
....|..|--- .... ....|--- .... ....|R-- .... ....
 A-3|..|A-3 2C.F ....|D-4 5F.7 ....|--- .... ....
....|..|--- .... ....|--- .... ....|--- .... ....
 G-4|..|G-3 2C.F ....|D-4 5F.F ....|D-2 2F.F ....
....|..|--- .... ....|R-- .... ....|--- .... ....
 F-4|..|F-3 2C.F ....|--- .... ....|C-4 BF.A ....
....|..|--- .... ....|--- .... ....|R-- .... ....
 D-4|..|D-3 2C.F ....|D-4 5F.7 ....|G-1 2F.F ....
....|..|--- .... ....|--- .... ....|--- .... ....
 D-4|..|D-3 2C.F ....|G-3 5F.F ....|D-2 2F.7 ....
....|..|--- .... ....|R-- .... ....|--- .... ....
 F-4|..|F-3 2C.F ....|--- .... ....|R-- .... ....
....|..|--- .... ....|R-- .... ....|R-- .... ....
 G-4|..|G-3 2C.F ....|R-- .... ....|G-1 2F.A ....
....|..|--- .... ....|--- .... ....|--- .... ....
 A-3|..|A-3 2C.F ....|G-3 5F.F ....|C-4 BF.F ....
....|..|--- .... ....|--- .... ....|R-- .... ....
 G-4|..|G-3 2C.F ....|--- .... ....|R-- .... ....
....|..|--- .... ....|R-- .... ....|--- .... ....
 F-4|..|F-3 2C.F ....|R-- .... ....|G-1 2F.F ....
....|..|--- .... ....|--- .... ....|--- .... ....
 E-4|..|E-3 2C.F ....|G-3 5F.F ....|C-4 BF.A ....
....|..|--- .... ....|--- .... ....|R-- .... ....
 D-4|..|D-3 2C.F ....|R-- .... ....|R-- .... ....
....|..|--- .... ....|R-- .... ....|--- .... ....
 D-4|..|D-3 2C.F ....|R-- .... ....|G-1 2F.A ....
....|..|--- .... ....|--- .... ....|--- .... ....
 F-4|..|F-3 2C.F ....|G-3 5F.F ....|C-4 BF.7 ....
....|..|--- .... ....|--- .... ....|R-- .... ....
 G-4|..|G-3 2C.F ....|R-- .... ....|G-2 2A.F ....
....|..|--- .... ....|--- .... ....|--- .... ....
 D-4|..|D-4 2C.F ....|R-- .... ....|C-4 BF.F ....
....|..|--- .... ....|--- .... ....|R-- .... ....
 A-3|..|A-3 2C.F ....|G-3 5F.7 ....|--- .... ....
....|..|--- .... ....|--- .... ....|--- .... ....
 G-4|..|G-3 2C.F ....|G-3 5F.F ....|G-2 2A.F ....
....|..|--- .... ....|--- .... ....|--- .... ....
 F-4|..|F-3 2C.F ....|R-- .... ....|C-4 BF.A ....
....|..|--- .... ....|--- .... ....|R-- .... ....

[Pattern5]
 D-4|..|D-3 2C.F ....|D-4 5F.F ....|D-3 2C.F ....
....|..|--- .... ....|--- .... ....|--- .... ....
 D-4|..|D-3 2C.F ....|G-3 5F.A ....|G-1 2F.7 ....
....|..|--- .... ....|--- .... ....|--- .... ....
 F-4|..|F-3 2C.F ....|R-- .... ....|R-- .... ....
....|..|--- .... ....|--- .... ....|R-- .... ....
 G-4|..|G-3 2C.F ....|D-4 5F.A ....|D-2 2F.A ....
....|..|--- .... ....|--- .... ....|--- .... ....
 A-3|..|A-3 2C.F ....|D-4 5F.F ....|C-4 BF.F ....
....|..|--- .... ....|--- .... ....|R-- .... ....
 G-4|..|G-3 2C.F ....|--- .... ....|R-- .... ....
....|..|--- .... ....|--- .... ....|--- .... ....
 F-4|..|F-3 2C.F ....|D-4 5F.7 ....|D-2 2F.F ....
....|..|--- .... ....|--- .... ....|--- .... ....
 E-4|..|E-3 2C.F ....|D-4 5F.F ....|C-4 BF.A ....
....|..|--- .... ....|--- .... ....|R-- .... ....
 D-4|..|D-3 2C.F ....|R-- .... ....|R-- .... ....
....|..|--- .... ....|--- .... ....|--- .... ....
 D-4|..|D-3 2C.F ....|R-- .... ....|D-2 2F.A ....
....|..|--- .... ....|--- .... ....|--- .... ....
 F-4|..|F-3 2C.F ....|D-4 5F.F ....|C-4 BF.7 ....
....|..|--- .... ....|--- .... ....|R-- .... ....
 G-4|..|G-3 2C.F ....|R-- .... ....|D-2 2F.F ....
....|..|--- .... ....|R-- .... ....|--- .... ....
 D-4|..|D-4 2C.F ....|R-- .... ....|C-4 BF.F ....
....|..|--- .... ....|--- .... ....|R-- .... ....
 A-3|..|A-3 2C.F ....|D-4 5F.7 ....|--- .... ....
....|..|--- .... ....|--- .... ....|--- .... ....
 G-4|..|G-3 2C.F ....|D-4 5F.F ....|D-2 2F.F ....
....|..|--- .... ....|R-- .... ....|--- .... ....
 F-4|..|F-3 2C.F ....|--- .... ....|C-4 BF.A ....
....|..|--- .... ....|--- .... ....|R-- .... ....
 D-4|..|D-3 2C.F ....|D-4 5F.7 ....|G-1 2F.F ....
....|..|--- .... ....|--- .... ....|--- .... ....
 D-4|..|D-3 2C.F ....|G-3 5F.F ....|D-2 2F.7 ....
....|..|--- .... ....|R-- .... ....|--- .... ....
 F-4|..|F-3 2C.F ....|--- .... ....|R-- .... ....
....|..|--- .... ....|R-- .... ....|R-- .... ....
 G-4|..|G-3 2C.F ....|R-- .... ....|G-1 2F.A ....
....|..|--- .... ....|--- .... ....|--- .... ....
 A-3|..|A-3 2C.F ....|G-3 5F.F ....|C-4 BF.F ....
....|..|--- .... ....|--- .... ....|R-- .... ....
 G-4|..|G-3 2C.F ....|--- .... ....|R-- .... ....
....|..|--- .... ....|R-- .... ....|--- .... ....
 F-4|..|F-3 2C.F ....|R-- .... ....|G-1 2F.F ....
....|..|--- .... ....|--- .... ....|--- .... ....
 E-4|..|E-3 2C.F ....|G-3 5F.F ....|C-4 BF.A ....
....|..|--- .... ....|--- .... ....|R-- .... ....
 D-4|..|D-3 2C.F ....|R-- .... ....|R-- .... ....
....|..|--- .... ....|R-- .... ....|--- .... ....
 D-4|..|D-3 2C.F ....|R-- .... ....|G-1 2F.A ....
....|..|--- .... ....|--- .... ....|--- .... ....
 F-4|..|F-3 2C.F ....|G-3 5F.F ....|C-4 BF.7 ....
....|..|--- .... ....|--- .... ....|R-- .... ....
 G-4|..|G-3 2C.F ....|R-- .... ....|G-2 2A.F ....
....|..|--- .... ....|--- .... ....|--- .... ....
 D-4|..|D-4 2C.F ....|R-- .... ....|C-4 BF.F ....
....|..|--- .... ....|--- .... ....|R-- .... ....
 A-3|..|A-3 2C.F ....|G-3 5F.7 ....|--- .... ....
....|..|--- .... ....|--- .... ....|--- .... ....
 G-4|..|G-3 2C.F ....|G-3 5F.F ....|G-2 2A.F ....
....|..|--- .... ....|--- .... ....|--- .... ....
 F-4|..|F-3 2C.F ....|R-- .... ....|C-4 BF.A ....
....|..|--- .... ....|--- .... ....|R-- .... ....

[Pattern8]
 D-4|..|F-3 2F.7 ....|G-3 5F.7 ....|D-2 2A.F ....
....|..|--- .... ....|--- .... ....|--- .... ....
....|..|G-3 2F.7 ....|G-3 5F.A ....|G-1 2F.7 ....
....|..|--- .... ....|--- .... ....|--- .... ....
....|..|D-4 2F.7 ....|R-- .... ....|R-- .... ....
....|..|--- .... ....|--- .... ....|R-- .... ....
....|..|A-3 2F.7 ....|R-- .... ....|D-2 2F.A ....
....|..|--- .... ....|--- .... ....|--- .... ....
....|..|G-3 2F.7 ....|G-3 5F.7 ....|G-1 2F.7 ....
....|..|--- .... ....|--- .... ....|--- .... ....
....|..|F-3 2F.7 ....|--- .... ....|R-- .... ....
....|..|--- .... ....|--- .... ....|--- .... ....
 D-4|..|R-- .... ....|R-- .... ....|D-2 2A.F ....
....|..|--- .... ....|--- .... ....|--- .... ....
....|..|--- .... ....|--- .... ....|R-- .... ....
....|..|--- .... ....|--- .... ....|--- .... ....
....|..|--- .... ....|--- .... ....|--- .... ....
....|..|--- .... ....|--- .... ....|--- .... ....
....|..|--- .... ....|--- .... ....|D-2 2F.A ....
....|..|--- .... ....|--- .... ....|--- .... ....
....|..|--- .... ....|--- .... ....|R-- .... ....
....|..|--- .... ....|--- .... ....|--- .... ....
 D-4|..|--- .... ....|--- .... ....|D-2 2A.F ....
....|..|--- .... ....|--- .... ....|--- .... ....
....|..|--- .... ....|--- .... ....|D-2 2F.7 ....
....|..|--- .... ....|--- .... ....|--- .... ....
....|..|--- .... ....|--- .... ....|R-- .... ....
....|..|--- .... ....|--- .... ....|--- .... ....
 D-4|..|--- .... ....|--- .... ....|D-2 2A.F ....
....|..|--- .... ....|--- .... ....|--- .... ....
....|..|--- .... ....|--- .... ....|R-- .... ....
....|..|--- .... ....|--- .... ....|--- .... ....
 D-4|..|--- .... ....|--- .... ....|D-2 2A.F ....
....|..|--- .... ....|--- .... ....|--- .... ....
....|..|--- .... ....|--- .... ....|D-2 2F.7 ....
....|..|--- .... ....|--- .... ....|--- .... ....
....|..|--- .... ....|--- .... ....|R-- .... ....
....|..|--- .... ....|--- .... ....|--- .... ....
....|..|--- .... ....|--- .... ....|D-2 2F.A ....
....|..|--- .... ....|--- .... ....|--- .... ....
....|..|--- .... ....|--- .... ....|D-2 2F.7 ....
....|..|--- .... ....|--- .... ....|--- .... ....
....|..|--- .... ....|--- .... ....|R-- .... ....
....|..|--- .... ....|--- .... ....|--- .... ....
 D-4|..|--- .... ....|--- .... ....|D-2 2A.F ....
....|..|--- .... ....|--- .... ....|--- .... ....
....|..|--- .... ....|--- .... ....|R-- .... ....
....|..|--- .... ....|--- .... ....|--- .... ....
....|..|--- .... ....|--- .... ....|--- .... ....
....|..|--- .... ....|--- .... ....|--- .... ....
....|..|--- .... ....|--- .... ....|D-2 2F.A ....
....|..|--- .... ....|--- .... ....|--- .... ....
....|..|--- .... ....|--- .... ....|R-- .... ....
....|..|--- .... ....|--- .... ....|--- .... ....
 D-4|..|--- .... ....|--- .... ....|D-2 2A.F ....
....|..|--- .... ....|--- .... ....|--- .... ....
....|..|--- .... ....|--- .... ....|D-2 2F.7 ....
....|..|--- .... ....|--- .... ....|--- .... ....
....|..|--- .... ....|--- .... ....|R-- .... ....
....|..|--- .... ....|--- .... ....|--- .... ....
 D-4|..|--- .... ....|--- .... ....|D-2 2A.F ....
....|..|--- .... ....|--- .... ....|--- .... ....
....|..|--- .... ....|--- .... ....|R-- .... ....
....|..|--- .... ....|--- .... ....|--- .... ....

[Pattern9]
 D-4|..|--- .... ....|--- .... ....|D-2 2A.F ....
....|..|--- .... ....|--- .... ....|--- .... ....
....|..|--- .... ....|--- .... ....|D-2 2F.7 ....
....|..|--- .... ....|--- .... ....|--- .... ....
....|..|--- .... ....|--- .... ....|R-- .... ....
....|..|--- .... ....|--- .... ....|--- .... ....
....|..|--- .... ....|--- .... ....|D-2 2F.A ....
....|..|--- .... ....|--- .... ....|--- .... ....
....|..|--- .... ....|--- .... ....|D-2 2F.7 ....
....|..|--- .... ....|--- .... ....|--- .... ....
....|..|--- .... ....|--- .... ....|R-- .... ....
....|..|--- .... ....|--- .... ....|--- .... ....
 D-4|..|--- .... ....|--- .... ....|D-2 2A.F ....
....|..|--- .... ....|--- .... ....|--- .... ....
....|..|--- .... ....|--- .... ....|R-- .... ....
....|..|--- .... ....|--- .... ....|--- .... ....
....|..|--- .... ....|--- .... ....|--- .... ....
....|..|--- .... ....|--- .... ....|--- .... ....
....|..|--- .... ....|--- .... ....|D-2 2F.A ....
....|..|--- .... ....|--- .... ....|--- .... ....
....|..|--- .... ....|--- .... ....|R-- .... ....
....|..|--- .... ....|--- .... ....|--- .... ....
 D-4|..|--- .... ....|--- .... ....|D-2 2A.F ....
....|..|--- .... ....|--- .... ....|--- .... ....
....|..|--- .... ....|--- .... ....|D-2 2F.7 ....
....|..|--- .... ....|--- .... ....|--- .... ....
....|..|--- .... ....|--- .... ....|R-- .... ....
....|..|--- .... ....|--- .... ....|--- .... ....
 D-4|..|--- .... ....|--- .... ....|D-2 2A.F ....
....|..|--- .... ....|--- .... ....|--- .... ....
....|..|--- .... ....|--- .... ....|R-- .... ....
....|..|--- .... ....|--- .... ....|--- .... ....
 D-4|..|--- .... ....|--- .... ....|D-2 2A.F ....
....|..|--- .... ....|--- .... ....|--- .... ....
....|..|--- .... ....|--- .... ....|D-2 2F.7 ....
....|..|--- .... ....|--- .... ....|--- .... ....
....|..|--- .... ....|--- .... ....|R-- .... ....
....|..|--- .... ....|--- .... ....|--- .... ....
....|..|--- .... ....|--- .... ....|D-2 2F.A ....
....|..|--- .... ....|--- .... ....|--- .... ....
....|..|--- .... ....|--- .... ....|D-2 2F.7 ....
....|..|--- .... ....|--- .... ....|--- .... ....
....|..|--- .... ....|--- .... ....|R-- .... ....
....|..|--- .... ....|--- .... ....|--- .... ....
 D-4|..|--- .... ....|--- .... ....|D-2 2A.F ....
....|..|--- .... ....|--- .... ....|--- .... ....
....|..|--- .... ....|--- .... ....|R-- .... ....
....|..|--- .... ....|--- .... ....|--- .... ....
....|..|--- .... ....|--- .... ....|--- .... ....
....|..|--- .... ....|--- .... ....|--- .... ....
....|..|--- .... ....|--- .... ....|D-2 2F.A ....
....|..|--- .... ....|--- .... ....|--- .... ....
....|..|--- .... ....|--- .... ....|R-- .... ....
....|..|--- .... ....|--- .... ....|--- .... ....
 D-4|..|--- .... ....|--- .... ....|D-2 2A.F ....
....|..|--- .... ....|--- .... ....|--- .... ....
....|..|--- .... ....|--- .... ....|D-2 2F.7 ....
....|..|--- .... ....|--- .... ....|--- .... ....
....|..|--- .... ....|--- .... ....|R-- .... ....
....|..|--- .... ....|--- .... ....|--- .... ....
 D-4|..|--- .... ....|--- .... ....|D-2 2A.F ....
....|..|--- .... ....|--- .... ....|--- .... ....
....|..|--- .... ....|--- .... ....|R-- .... ....
....|..|--- .... ....|--- .... ....|--- .... ....

[Pattern10]
....|..|--- .... ....|--- .... ....|--- .... ....
....|..|--- .... ....|--- .... ....|--- .... ....
....|..|--- .... ....|--- .... ....|D-2 2F.7 ....
....|..|--- .... ....|--- .... ....|--- .... ....
....|..|--- .... ....|--- .... ....|R-- .... ....
....|..|--- .... ....|--- .... ....|--- .... ....
....|..|--- .... ....|--- .... ....|--- .... ....
....|..|--- .... ....|--- .... ....|--- .... ....
....|..|--- .... ....|--- .... ....|D-2 2F.7 ....
....|..|--- .... ....|--- .... ....|--- .... ....
....|..|--- .... ....|--- .... ....|R-- .... ....
....|..|--- .... ....|--- .... ....|--- .... ....
....|..|--- .... ....|--- .... ....|--- .... ....
....|..|--- .... ....|--- .... ....|--- .... ....
....|..|--- .... ....|--- .... ....|--- .... ....
....|..|--- .... ....|--- .... ....|--- .... ....
....|..|--- .... ....|--- .... ....|--- .... ....
....|..|--- .... ....|--- .... ....|--- .... ....
....|..|--- .... ....|--- .... ....|--- .... ....
....|..|--- .... ....|--- .... ....|--- .... ....
....|..|--- .... ....|--- .... ....|--- .... ....
....|..|--- .... ....|--- .... ....|--- .... ....
....|..|--- .... ....|--- .... ....|--- .... ....
....|..|--- .... ....|--- .... ....|--- .... ....
....|..|--- .... ....|--- .... ....|--- .... ....
....|..|--- .... ....|--- .... ....|--- .... ....
....|..|--- .... ....|--- .... ....|--- .... ....
....|..|--- .... ....|--- .... ....|--- .... ....
....|..|--- .... ....|--- .... ....|--- .... ....
....|..|--- .... ....|--- .... ....|--- .... ....
....|..|--- .... ....|--- .... ....|--- .... ....
....|..|--- .... ....|--- .... ....|--- .... ....
....|..|--- .... ....|D-4 5F.F ....|--- .... ....
....|..|--- .... ....|--- .... ....|--- .... ....
....|..|--- .... ....|--- .... ....|--- .... ....
....|..|--- .... ....|--- .... ....|--- .... ....
 D-4|..|--- .... ....|--- .... ....|D-2 2A.F ....
....|..|--- .... ....|--- .... ....|--- .... ....
....|..|--- .... ....|D-4 5F.A ....|--- .... ....
....|..|--- .... ....|--- .... ....|--- .... ....
....|..|--- .... ....|D-4 5F.F ....|C-4 BF.F ....
....|..|--- .... ....|--- .... ....|R-- .... ....
....|..|--- .... ....|--- .... ....|D-2 2F.A ....
....|..|--- .... ....|--- .... ....|--- .... ....
 D-4|..|--- .... ....|D-4 5F.7 ....|D-2 2A.F ....
....|..|--- .... ....|--- .... ....|--- .... ....
....|..|--- .... ....|D-4 5F.F ....|C-4 BF.A ....
....|..|--- .... ....|--- .... ....|R-- .... ....
....|..|--- .... ....|R-- .... ....|D-2 2F.7 ....
....|..|--- .... ....|--- .... ....|--- .... ....
....|..|--- .... ....|R-- .... ....|D-2 2F.A ....
....|..|--- .... ....|--- .... ....|--- .... ....
 D-4|..|--- .... ....|D-4 5F.F ....|D-2 2A.F ....
....|..|--- .... ....|--- .... ....|R-- .... ....
....|..|--- .... ....|R-- .... ....|R-- .... ....
....|..|--- .... ....|--- .... ....|--- .... ....
....|..|--- .... ....|R-- .... ....|C-4 BF.F ....
....|..|--- .... ....|--- .... ....|R-- .... ....
....|..|--- .... ....|D-4 5F.7 ....|D-2 2F.A ....
....|..|--- .... ....|--- .... ....|--- .... ....
 D-4|..|--- .... ....|D-4 5F.F ....|D-2 2A.F ....
....|..|--- .... ....|--- .... ....|--- .... ....
....|..|--- .... ....|--- .... ....|C-4 BF.A ....
....|..|--- .... ....|--- .... ....|R-- .... ....

[Pattern11]
....|..|--- .... ....|D-4 5F.7 ....|D-2 2F.7 ....
....|..|--- .... ....|--- .... ....|--- .... ....
....|..|--- .... ....|D-4 5F.F ....|D-2 2F.A ....
....|..|--- .... ....|--- .... ....|--- .... ....
 G-3|..|--- .... ....|--- .... ....|G-1 2A.F ....
....|..|--- .... ....|--- .... ....|R-- .... ....
....|..|--- .... ....|R-- .... ....|R-- .... ....
....|..|--- .... ....|--- .... ....|--- .... ....
....|..|--- .... ....|D-4 5F.F ....|C-4 BF.F ....
....|..|--- .... ....|--- .... ....|R-- .... ....
....|..|--- .... ....|--- .... ....|G-1 2F.A ....
....|..|--- .... ....|--- .... ....|--- .... ....
 G-3|..|--- .... ....|R-- .... ....|G-1 2A.F ....
....|..|--- .... ....|--- .... ....|--- .... ....
....|..|--- .... ....|D-4 5F.F ....|C-4 BF.A ....
....|..|--- .... ....|--- .... ....|R-- .... ....
....|..|--- .... ....|R-- .... ....|G-1 2F.7 ....
....|..|--- .... ....|--- .... ....|--- .... ....
....|..|--- .... ....|R-- .... ....|G-1 2F.A ....
....|..|--- .... ....|--- .... ....|--- .... ....
 G-3|..|--- .... ....|D-4 5F.F ....|G-1 2A.F ....
....|..|--- .... ....|--- .... ....|R-- .... ....
....|..|--- .... ....|R-- .... ....|R-- .... ....
....|..|--- .... ....|--- .... ....|--- .... ....
....|..|--- .... ....|R-- .... ....|C-4 BF.F ....
....|..|--- .... ....|--- .... ....|R-- .... ....
....|..|--- .... ....|D-4 5F.7 ....|G-1 2F.A ....
....|..|--- .... ....|--- .... ....|--- .... ....
 G-3|..|--- .... ....|D-4 5F.F ....|G-1 2A.F ....
....|..|--- .... ....|--- .... ....|--- .... ....
....|..|--- .... ....|--- .... ....|C-4 BF.A ....
....|..|--- .... ....|--- .... ....|R-- .... ....
....|..|--- .... ....|C-4 5F.F ....|G-1 2F.7 ....
....|..|--- .... ....|--- .... ....|--- .... ....
....|..|--- .... ....|D-4 5F.A ....|G-1 2F.A ....
....|..|--- .... ....|--- .... ....|--- .... ....
 C-4|..|--- .... ....|--- .... ....|C-2 2A.F ....
....|..|--- .... ....|--- .... ....|R-- .... ....
....|..|--- .... ....|C-4 5F.A ....|R-- .... ....
....|..|--- .... ....|--- .... ....|--- .... ....
....|..|--- .... ....|C-4 5F.F ....|C-4 BF.F ....
....|..|--- .... ....|--- .... ....|R-- .... ....
....|..|--- .... ....|--- .... ....|C-2 2F.A ....
....|..|--- .... ....|--- .... ....|--- .... ....
 C-4|..|--- .... ....|C-4 5F.7 ....|C-2 2A.F ....
....|..|--- .... ....|--- .... ....|--- .... ....
....|..|--- .... ....|C-4 5F.F ....|C-4 BF.A ....
....|..|--- .... ....|--- .... ....|R-- .... ....
....|..|--- .... ....|R-- .... ....|C-2 2F.7 ....
....|..|--- .... ....|--- .... ....|--- .... ....
....|..|--- .... ....|R-- .... ....|C-2 2F.A ....
....|..|--- .... ....|--- .... ....|--- .... ....
 C-4|..|--- .... ....|C-4 5F.F ....|C-2 2A.F ....
....|..|--- .... ....|--- .... ....|R-- .... ....
....|..|--- .... ....|R-- .... ....|R-- .... ....
....|..|--- .... ....|--- .... ....|--- .... ....
....|..|--- .... ....|R-- .... ....|C-4 BF.F ....
....|..|--- .... ....|--- .... ....|R-- .... ....
....|..|--- .... ....|C-4 5F.7 ....|C-2 2F.A ....
....|..|--- .... ....|--- .... ....|--- .... ....
 C-4|..|--- .... ....|C-4 5F.F ....|C-2 2A.F ....
....|..|--- .... ....|--- .... ....|--- .... ....
....|..|--- .... ....|--- .... ....|C-4 BF.A ....
....|..|--- .... ....|--- .... ....|R-- .... ....

[Pattern12]
....|..|--- .... ....|C-4 5F.7 ....|C-2 2F.7 ....
....|..|--- .... ....|--- .... ....|--- .... ....
....|..|--- .... ....|C-4 5F.F ....|C-2 2F.A ....
....|..|--- .... ....|--- .... ....|--- .... ....
 F-3|..|--- .... ....|--- .... ....|F-1 2A.F ....
....|..|--- .... ....|--- .... ....|R-- .... ....
....|..|--- .... ....|R-- .... ....|R-- .... ....
....|..|--- .... ....|--- .... ....|--- .... ....
....|..|--- .... ....|C-4 5F.F ....|C-4 BF.F ....
....|..|--- .... ....|--- .... ....|R-- .... ....
....|..|--- .... ....|--- .... ....|F-1 2F.A ....
....|..|--- .... ....|--- .... ....|--- .... ....
 F-3|..|--- .... ....|R-- .... ....|F-1 2A.F ....
....|..|--- .... ....|--- .... ....|--- .... ....
....|..|--- .... ....|C-4 5F.F ....|C-4 BF.A ....
....|..|--- .... ....|--- .... ....|R-- .... ....
....|..|--- .... ....|R-- .... ....|F-1 2F.7 ....
....|..|--- .... ....|--- .... ....|--- .... ....
....|..|--- .... ....|R-- .... ....|F-1 2F.A ....
....|..|--- .... ....|--- .... ....|--- .... ....
 F-3|..|--- .... ....|C-4 5F.F ....|F-1 2A.F ....
....|..|--- .... ....|--- .... ....|R-- .... ....
....|..|--- .... ....|R-- .... ....|R-- .... ....
....|..|--- .... ....|--- .... ....|--- .... ....
....|..|--- .... ....|R-- .... ....|C-4 BF.F ....
....|..|--- .... ....|--- .... ....|R-- .... ....
....|..|--- .... ....|C-4 5F.7 ....|F-1 2F.A ....
....|..|--- .... ....|--- .... ....|--- .... ....
 F-3|..|--- .... ....|C-4 5F.F ....|F-1 2A.F ....
....|..|--- .... ....|--- .... ....|--- .... ....
....|..|--- .... ....|--- .... ....|C-4 BF.A ....
....|..|--- .... ....|--- .... ....|R-- .... ....
....|..|--- .... ....|D-4 5F.F ....|F-1 2F.7 ....
....|..|--- .... ....|--- .... ....|--- .... ....
....|..|--- .... ....|C-4 5F.A ....|F-1 2F.A ....
....|..|--- .... ....|--- .... ....|--- .... ....
 A#3|..|--- .... ....|--- .... ....|A#1 2A.F ....
....|..|--- .... ....|--- .... ....|R-- .... ....
....|..|--- .... ....|D-4 5F.A ....|R-- .... ....
....|..|--- .... ....|--- .... ....|--- .... ....
....|..|--- .... ....|D-4 5F.F ....|C-4 BF.F ....
....|..|--- .... ....|--- .... ....|R-- .... ....
....|..|--- .... ....|--- .... ....|A#1 2F.A ....
....|..|--- .... ....|--- .... ....|--- .... ....
 A#3|..|--- .... ....|D-4 5F.7 ....|A#1 2A.F ....
....|..|--- .... ....|--- .... ....|--- .... ....
....|..|--- .... ....|D-4 5F.F ....|C-4 BF.A ....
....|..|--- .... ....|--- .... ....|R-- .... ....
....|..|--- .... ....|R-- .... ....|A#1 2F.7 ....
....|..|--- .... ....|--- .... ....|--- .... ....
....|..|--- .... ....|R-- .... ....|A#1 2F.A ....
....|..|--- .... ....|--- .... ....|--- .... ....
 A#3|..|--- .... ....|D-4 5F.F ....|A#1 2A.F ....
....|..|--- .... ....|--- .... ....|R-- .... ....
....|..|--- .... ....|R-- .... ....|R-- .... ....
....|..|--- .... ....|--- .... ....|--- .... ....
....|..|--- .... ....|R-- .... ....|C-4 BF.F ....
....|..|--- .... ....|--- .... ....|R-- .... ....
....|..|--- .... ....|D-4 5F.7 ....|A#1 2F.A ....
....|..|--- .... ....|--- .... ....|--- .... ....
 A#3|..|--- .... ....|D-4 5F.F ....|A#1 2A.F ....
....|..|--- .... ....|--- .... ....|--- .... ....
....|..|--- .... ....|--- .... ....|C-4 BF.A ....
....|..|--- .... ....|--- .... ....|R-- .... ....

[Pattern13]
....|..|--- .... ....|D-4 5F.7 ....|A#1 2F.7 ....
....|..|--- .... ....|--- .... ....|--- .... ....
....|..|--- .... ....|D-4 5F.F ....|A#1 2F.A ....
....|..|--- .... ....|--- .... ....|--- .... ....
 G-3|..|--- .... ....|--- .... ....|G-1 2A.F ....
....|..|--- .... ....|--- .... ....|R-- .... ....
....|..|--- .... ....|R-- .... ....|R-- .... ....
....|..|--- .... ....|--- .... ....|--- .... ....
....|..|--- .... ....|D-4 5F.F ....|C-4 BF.F ....
....|..|--- .... ....|--- .... ....|R-- .... ....
....|..|--- .... ....|--- .... ....|G-1 2F.A ....
....|..|--- .... ....|--- .... ....|--- .... ....
 G-3|..|--- .... ....|R-- .... ....|G-1 2A.F ....
....|..|--- .... ....|--- .... ....|--- .... ....
....|..|--- .... ....|D-4 5F.F ....|C-4 BF.A ....
....|..|--- .... ....|--- .... ....|R-- .... ....
....|..|--- .... ....|R-- .... ....|G-1 2F.7 ....
....|..|--- .... ....|--- .... ....|--- .... ....
....|..|--- .... ....|R-- .... ....|G-1 2F.A ....
....|..|--- .... ....|--- .... ....|--- .... ....
 G-3|..|--- .... ....|D-4 5F.F ....|G-1 2A.F ....
....|..|--- .... ....|--- .... ....|R-- .... ....
....|..|--- .... ....|R-- .... ....|R-- .... ....
....|..|--- .... ....|--- .... ....|--- .... ....
....|..|--- .... ....|R-- .... ....|C-4 BF.F ....
....|..|--- .... ....|--- .... ....|R-- .... ....
....|..|--- .... ....|D-4 5F.7 ....|G-1 2F.A ....
....|..|--- .... ....|--- .... ....|--- .... ....
 G-3|..|--- .... ....|D-4 5F.F ....|G-1 2A.F ....
....|..|--- .... ....|--- .... ....|--- .... ....
....|..|--- .... ....|--- .... ....|C-4 BF.A ....
....|..|--- .... ....|--- .... ....|R-- .... ....
....|..|--- .... ....|D-4 5F.F ....|G-1 2F.7 ....
....|..|--- .... ....|--- .... ....|--- .... ....
....|..|--- .... ....|D-4 5F.A ....|G-1 2F.A ....
....|..|--- .... ....|--- .... ....|--- .... ....
 A#3|..|--- .... ....|--- .... ....|A#1 2A.F ....
....|..|--- .... ....|--- .... ....|R-- .... ....
....|..|--- .... ....|D-4 5F.A ....|R-- .... ....
....|..|--- .... ....|--- .... ....|--- .... ....
....|..|--- .... ....|D-4 5F.F ....|C-4 BF.F ....
....|..|--- .... ....|--- .... ....|R-- .... ....
....|..|--- .... ....|--- .... ....|A#1 2F.A ....
....|..|--- .... ....|--- .... ....|--- .... ....
 A#3|..|--- .... ....|D-4 5F.7 ....|A#1 2A.F ....
....|..|--- .... ....|--- .... ....|--- .... ....
....|..|--- .... ....|D-4 5F.F ....|C-4 BF.A ....
....|..|--- .... ....|--- .... ....|R-- .... ....
....|..|--- .... ....|R-- .... ....|A#1 2F.7 ....
....|..|--- .... ....|--- .... ....|--- .... ....
....|..|--- .... ....|R-- .... ....|A#1 2F.A ....
....|..|--- .... ....|--- .... ....|--- .... ....
 A#3|..|--- .... ....|D-4 5F.F ....|A#1 2A.F ....
....|..|--- .... ....|--- .... ....|R-- .... ....
....|..|--- .... ....|R-- .... ....|R-- .... ....
....|..|--- .... ....|--- .... ....|--- .... ....
....|..|--- .... ....|R-- .... ....|C-4 BF.F ....
....|..|--- .... ....|--- .... ....|R-- .... ....
....|..|--- .... ....|D-4 5F.7 ....|A#1 2F.A ....
....|..|--- .... ....|--- .... ....|--- .... ....
 A#3|..|--- .... ....|D-4 5F.F ....|A#1 2A.F ....
....|..|--- .... ....|--- .... ....|--- .... ....
....|..|--- .... ....|--- .... ....|C-4 BF.A ....
....|..|--- .... ....|--- .... ....|R-- .... ....

[Pattern14]
....|..|--- .... ....|D-4 5F.7 ....|A#1 2F.7 ....
....|..|--- .... ....|--- .... ....|--- .... ....
....|..|--- .... ....|C-4 5F.F ....|A#1 2F.A ....
....|..|--- .... ....|--- .... ....|--- .... ....
 C-4|..|--- .... ....|--- .... ....|C-2 2A.F ....
....|..|--- .... ....|--- .... ....|R-- .... ....
....|..|--- .... ....|R-- .... ....|R-- .... ....
....|..|--- .... ....|--- .... ....|--- .... ....
....|..|--- .... ....|C-4 5F.F ....|C-4 BF.F ....
....|..|--- .... ....|--- .... ....|R-- .... ....
....|..|--- .... ....|--- .... ....|C-2 2F.A ....
....|..|--- .... ....|--- .... ....|--- .... ....
 C-4|..|--- .... ....|R-- .... ....|C-2 2A.F ....
....|..|--- .... ....|--- .... ....|--- .... ....
....|..|--- .... ....|C-4 5F.F ....|C-4 BF.A ....
....|..|--- .... ....|--- .... ....|R-- .... ....
....|..|--- .... ....|R-- .... ....|C-2 2F.7 ....
....|..|--- .... ....|--- .... ....|--- .... ....
....|..|--- .... ....|R-- .... ....|C-2 2F.A ....
....|..|--- .... ....|--- .... ....|--- .... ....
 C-4|..|--- .... ....|C-4 5F.F ....|C-2 2A.F ....
....|..|--- .... ....|--- .... ....|R-- .... ....
....|..|--- .... ....|R-- .... ....|R-- .... ....
....|..|--- .... ....|--- .... ....|--- .... ....
....|..|--- .... ....|R-- .... ....|C-4 BF.F ....
....|..|--- .... ....|--- .... ....|R-- .... ....
....|..|--- .... ....|C-4 5F.7 ....|C-2 2F.A ....
....|..|--- .... ....|--- .... ....|--- .... ....
 C-4|..|--- .... ....|C-4 5F.F ....|C-2 2A.F ....
....|..|--- .... ....|--- .... ....|--- .... ....
....|..|--- .... ....|--- .... ....|C-4 BF.A ....
....|..|--- .... ....|--- .... ....|R-- .... ....
 F-4|..|F-2 2A.F ....|C-4 5F.7 ....|C-2 2F.7 ....
....|..|--- .... ....|--- .... ....|--- .... ....
 C-3|..|C-3 2C.F ....|C-4 5F.F ....|C-2 2F.A ....
....|..|--- .... ....|--- .... ....|--- .... ....
 A-3|..|A-3 2C.F ....|--- .... ....|F-1 2F.F ....
....|..|--- .... ....|--- .... ....|R-- .... ....
 C-3|..|C-4 2C.F ....|R-- .... ....|R-- .... ....
....|..|--- .... ....|--- .... ....|--- .... ....
 F-4|..|F-3 2C.F ....|C-4 5F.F ....|C-4 BF.F ....
....|..|--- .... ....|--- .... ....|R-- .... ....
 C-3|..|C-4 2C.F ....|--- .... ....|F-1 2F.A ....
....|..|--- .... ....|--- .... ....|--- .... ....
 A-3|..|A-3 2C.F ....|R-- .... ....|F-1 2F.F ....
....|..|--- .... ....|--- .... ....|--- .... ....
 F-4|..|F-4 2C.F ....|C-4 5F.F ....|C-4 BF.A ....
....|..|--- .... ....|--- .... ....|R-- .... ....
 C-3|..|C-3 2C.F ....|R-- .... ....|F-1 2F.7 ....
....|..|--- .... ....|--- .... ....|--- .... ....
 F-4|..|F-3 2C.F ....|R-- .... ....|F-1 2F.A ....
....|..|--- .... ....|--- .... ....|--- .... ....
 A-3|..|A-3 2C.F ....|C-4 5F.F ....|F-1 2F.F ....
....|..|--- .... ....|--- .... ....|R-- .... ....
 C-3|..|C-4 2C.F ....|R-- .... ....|R-- .... ....
....|..|--- .... ....|--- .... ....|--- .... ....
 A-3|..|A-3 2C.F ....|R-- .... ....|C-4 BF.F ....
....|..|--- .... ....|--- .... ....|R-- .... ....
 F-4|..|F-3 2C.F ....|C-4 5F.7 ....|F-1 2F.A ....
....|..|--- .... ....|--- .... ....|--- .... ....
 C-3|..|C-3 2C.F ....|C-4 5F.F ....|F-1 2F.F ....
....|..|--- .... ....|--- .... ....|--- .... ....
 F-4|..|F-2 2A.F ....|--- .... ....|C-4 BF.A ....
....|..|--- .... ....|--- .... ....|R-- .... ....

[Pattern15]
 A#3|..|A#2 2C.F ....|C-4 5F.7 ....|F-1 2F.7 ....
....|..|--- .... ....|--- .... ....|--- .... ....
 A#3|..|A#3 2C.F ....|A#3 5F.F ....|F-1 2F.A ....
....|..|--- .... ....|--- .... ....|--- .... ....
 D-4|..|D-4 2C.F ....|--- .... ....|A#1 2F.F ....
....|..|--- .... ....|--- .... ....|R-- .... ....
 F-4|..|F-4 2C.F ....|R-- .... ....|R-- .... ....
....|..|--- .... ....|--- .... ....|--- .... ....
 F-4|..|F-3 2C.F ....|A#3 5F.F ....|C-4 BF.F ....
....|..|--- .... ....|--- .... ....|R-- .... ....
 F-4|..|F-4 2C.F ....|--- .... ....|A#1 2F.A ....
....|..|--- .... ....|--- .... ....|--- .... ....
 D-4|..|D-4 2C.F ....|R-- .... ....|A#1 2F.F ....
....|..|--- .... ....|--- .... ....|--- .... ....
 A#3|..|A#3 2C.F ....|A#3 5F.F ....|C-4 BF.A ....
....|..|--- .... ....|--- .... ....|R-- .... ....
 A#3|..|A#2 2C.F ....|R-- .... ....|A#1 2F.7 ....
....|..|--- .... ....|--- .... ....|--- .... ....
 A#3|..|A#3 2C.F ....|R-- .... ....|A#1 2F.A ....
....|..|--- .... ....|--- .... ....|--- .... ....
 D-4|..|D-4 2C.F ....|A#3 5F.F ....|A#1 2F.F ....
....|..|--- .... ....|--- .... ....|R-- .... ....
 F-4|..|F-4 2C.F ....|R-- .... ....|R-- .... ....
....|..|--- .... ....|--- .... ....|--- .... ....
 A#3|..|A#3 2C.F ....|R-- .... ....|C-4 BF.F ....
....|..|--- .... ....|--- .... ....|R-- .... ....
 D-4|..|D-4 2C.F ....|A#3 5F.7 ....|A#1 2F.A ....
....|..|--- .... ....|--- .... ....|--- .... ....
 F-4|..|F-4 2C.F ....|A#3 5F.F ....|A#1 2F.F ....
....|..|--- .... ....|--- .... ....|--- .... ....
 A#3|..|A#4 2C.F ....|--- .... ....|C-4 BF.A ....
....|..|--- .... ....|--- .... ....|R-- .... ....
 G-4|..|G-2 2A.F ....|A#3 5F.7 ....|A#1 2F.7 ....
....|..|--- .... ....|--- .... ....|--- .... ....
 D-4|..|D-3 2C.F ....|G-3 5F.F ....|A#1 2F.A ....
....|..|--- .... ....|--- .... ....|--- .... ....
 C-3|..|C-4 2C.F ....|--- .... ....|G-1 2F.F ....
....|..|--- .... ....|--- .... ....|R-- .... ....
 D-4|..|D-4 2C.F ....|R-- .... ....|R-- .... ....
....|..|--- .... ....|--- .... ....|--- .... ....
 G-4|..|G-3 2C.F ....|G-3 5F.F ....|C-4 BF.F ....
....|..|--- .... ....|--- .... ....|R-- .... ....
 D-4|..|D-4 2C.F ....|--- .... ....|G-1 2F.A ....
....|..|--- .... ....|--- .... ....|--- .... ....
 C-3|..|C-4 2C.F ....|R-- .... ....|G-1 2F.F ....
....|..|--- .... ....|--- .... ....|--- .... ....
 G-4|..|G-4 2C.F ....|G-3 5F.F ....|C-4 BF.A ....
....|..|--- .... ....|--- .... ....|R-- .... ....
 D-4|..|D-3 2C.F ....|R-- .... ....|G-1 2F.7 ....
....|..|--- .... ....|--- .... ....|--- .... ....
 G-4|..|G-3 2C.F ....|R-- .... ....|G-1 2F.A ....
....|..|--- .... ....|--- .... ....|--- .... ....
 C-3|..|C-4 2C.F ....|G-3 5F.F ....|G-1 2F.F ....
....|..|--- .... ....|--- .... ....|R-- .... ....
 D-4|..|D-4 2C.F ....|R-- .... ....|R-- .... ....
....|..|--- .... ....|--- .... ....|--- .... ....
 C-3|..|C-4 2C.F ....|R-- .... ....|C-4 BF.F ....
....|..|--- .... ....|--- .... ....|R-- .... ....
 G-4|..|G-3 2C.F ....|G-3 5F.7 ....|G-1 2F.A ....
....|..|--- .... ....|--- .... ....|--- .... ....
 D-4|..|D-3 2C.F ....|G-3 5F.F ....|G-1 2F.F ....
....|..|--- .... ....|--- .... ....|--- .... ....
 G-4|..|G-2 2A.F ....|--- .... ....|C-4 BF.A ....
....|..|--- .... ....|--- .... ....|R-- .... ....

[Pattern16]
 A-3|..|A-2 2C.F ....|A-3 5F.F ....|G-1 2F.7 ....
....|..|--- .... ....|--- .... ....|--- .... ....
 A-3|..|A-3 2C.F ....|G-3 5F.A ....|G-1 2F.A ....
....|..|--- .... ....|--- .... ....|--- .... ....
 C-3|..|C-4 2C.F ....|R-- .... ....|A-1 2F.F ....
....|..|--- .... ....|--- .... ....|R-- .... ....
 A-3|..|A-4 2C.F ....|A-3 5F.F ....|R-- .... ....
....|..|--- .... ....|--- .... ....|--- .... ....
 E-4|..|E-3 2C.F ....|G-3 5F.7 ....|C-4 BF.F ....
....|..|--- .... ....|--- .... ....|R-- .... ....
 A-3|..|A-4 2C.F ....|R-- .... ....|A-1 2F.A ....
....|..|--- .... ....|--- .... ....|--- .... ....
 E-4|..|E-4 2C.F ....|A-3 5F.F ....|A-1 2F.F ....
....|..|--- .... ....|--- .... ....|--- .... ....
 A-3|..|A-3 2C.F ....|--- .... ....|C-4 BF.A ....
....|..|--- .... ....|--- .... ....|R-- .... ....
 C-3|..|C-3 2C.F ....|C-4 5F.F ....|A-1 2F.7 ....
....|..|--- .... ....|--- .... ....|--- .... ....
 C-3|..|C-4 2C.F ....|A-3 5F.7 ....|A-1 2F.A ....
....|..|--- .... ....|--- .... ....|--- .... ....
 E-4|..|E-4 2C.F ....|R-- .... ....|C-2 2F.F ....
....|..|--- .... ....|--- .... ....|R-- .... ....
 G-4|..|G-4 2C.F ....|C-4 5F.F ....|R-- .... ....
....|..|--- .... ....|--- .... ....|--- .... ....
 C-3|..|C-4 2C.F ....|A-3 5F.7 ....|C-4 BF.F ....
....|..|--- .... ....|--- .... ....|R-- .... ....
 E-4|..|E-4 2C.F ....|R-- .... ....|C-2 2F.A ....
....|..|--- .... ....|--- .... ....|--- .... ....
 G-4|..|G-4 2C.F ....|C-4 5F.F ....|C-2 2F.F ....
....|..|--- .... ....|--- .... ....|--- .... ....
 C-3|..|C-5 2C.F ....|--- .... ....|C-4 BF.A ....
....|..|--- .... ....|--- .... ....|R-- .... ....
 D-4|..|D-3 2C.F ....|R-- .... ....|C-2 2F.7 ....
....|..|--- .... ....|--- .... ....|--- .... ....
 D-4|..|D-4 2C.F ....|D-4 5F.F ....|C-2 2F.A ....
....|..|--- .... ....|--- .... ....|--- .... ....
 G-4|..|G-4 2C.F ....|--- .... ....|D-2 2F.F ....
....|..|--- .... ....|--- .... ....|R-- .... ....
 A-3|..|A-4 2C.F ....|R-- .... ....|R-- .... ....
....|..|--- .... ....|--- .... ....|--- .... ....
 A-3|..|A-3 2C.F ....|D-4 5F.F ....|C-4 BF.F ....
....|..|--- .... ....|--- .... ....|R-- .... ....
 A-3|..|A-4 2C.F ....|--- .... ....|D-2 2F.A ....
....|..|--- .... ....|--- .... ....|--- .... ....
 G-4|..|G-4 2C.F ....|R-- .... ....|D-2 2F.F ....
....|..|--- .... ....|--- .... ....|--- .... ....
 D-4|..|D-4 2C.F ....|D-4 5F.F ....|C-4 BF.A ....
....|..|--- .... ....|--- .... ....|R-- .... ....
 D-4|..|D-3 2C.F ....|R-- .... ....|D-2 2F.7 ....
....|..|--- .... ....|--- .... ....|--- .... ....
 D-4|..|D-4 2C.F ....|R-- .... ....|D-2 2F.A ....
....|..|--- .... ....|--- .... ....|--- .... ....
 G-4|..|G-4 2C.F ....|D-4 5F.F ....|D-2 2F.F ....
....|..|--- .... ....|--- .... ....|R-- .... ....
 A-3|..|A-4 2C.F ....|R-- .... ....|R-- .... ....
....|..|--- .... ....|--- .... ....|--- .... ....
 D-4|..|D-4 2C.F ....|R-- .... ....|C-4 BF.F ....
....|..|--- .... ....|--- .... ....|R-- .... ....
 G-4|..|G-4 2C.F ....|D-4 5F.7 ....|D-2 2F.A ....
....|..|--- .... ....|--- .... ....|--- .... ....
 A-3|..|A-4 2C.F ....|D-4 5F.F ....|D-2 2F.F ....
....|..|--- .... ....|--- .... ....|--- .... ....
 D-4|..|D-5 2C.F ....|--- .... ....|C-4 BF.A ....
....|..|--- .... ....|--- .... ....|R-- .... ....

[Pattern17]
 G-4|..|G-2 2A.F ....|D-4 5F.7 ....|D-2 2F.7 ....
....|..|--- .... ....|--- .... ....|--- .... ....
 D-4|..|D-3 2C.F ....|G-3 5F.F ....|D-2 2F.A ....
....|..|--- .... ....|--- .... ....|--- .... ....
 C-3|..|C-4 2C.F ....|--- .... ....|G-1 2F.F ....
....|..|--- .... ....|--- .... ....|R-- .... ....
 D-4|..|D-4 2C.F ....|R-- .... ....|R-- .... ....
....|..|--- .... ....|--- .... ....|--- .... ....
 G-4|..|G-3 2C.F ....|G-3 5F.F ....|C-4 BF.F ....
....|..|--- .... ....|--- .... ....|R-- .... ....
 D-4|..|D-4 2C.F ....|--- .... ....|G-1 2F.A ....
....|..|--- .... ....|--- .... ....|--- .... ....
 C-3|..|C-4 2C.F ....|R-- .... ....|G-1 2F.F ....
....|..|--- .... ....|--- .... ....|--- .... ....
 G-4|..|G-4 2C.F ....|G-3 5F.F ....|C-4 BF.A ....
....|..|--- .... ....|--- .... ....|R-- .... ....
 D-4|..|D-3 2C.F ....|R-- .... ....|G-1 2F.7 ....
....|..|--- .... ....|--- .... ....|--- .... ....
 G-4|..|G-3 2C.F ....|R-- .... ....|G-1 2F.A ....
....|..|--- .... ....|--- .... ....|--- .... ....
 C-3|..|C-4 2C.F ....|G-3 5F.F ....|G-1 2F.F ....
....|..|--- .... ....|--- .... ....|R-- .... ....
 D-4|..|D-4 2C.F ....|R-- .... ....|R-- .... ....
....|..|--- .... ....|--- .... ....|--- .... ....
 C-3|..|C-4 2C.F ....|R-- .... ....|C-4 BF.F ....
....|..|--- .... ....|--- .... ....|R-- .... ....
 G-4|..|G-3 2C.F ....|G-3 5F.7 ....|G-1 2F.A ....
....|..|--- .... ....|--- .... ....|--- .... ....
 C-3|..|C-4 2C.F ....|G-3 5F.F ....|G-1 2F.F ....
....|..|--- .... ....|--- .... ....|--- .... ....
 G-4|..|G-4 2C.F ....|--- .... ....|C-4 BF.A ....
....|..|--- .... ....|--- .... ....|R-- .... ....
 A#3|..|A#2 2C.F ....|G-3 5F.7 ....|G-1 2F.7 ....
....|..|--- .... ....|--- .... ....|--- .... ....
 A#3|..|A#3 2C.F ....|A#3 5F.F ....|G-1 2F.A ....
....|..|--- .... ....|--- .... ....|--- .... ....
 D-4|..|D-4 2C.F ....|--- .... ....|A#1 2F.F ....
....|..|--- .... ....|--- .... ....|R-- .... ....
 F-4|..|F-4 2C.F ....|R-- .... ....|R-- .... ....
....|..|--- .... ....|--- .... ....|--- .... ....
 F-4|..|F-3 2C.F ....|A#3 5F.F ....|C-4 BF.F ....
....|..|--- .... ....|--- .... ....|R-- .... ....
 F-4|..|F-4 2C.F ....|--- .... ....|A#1 2F.A ....
....|..|--- .... ....|--- .... ....|--- .... ....
 D-4|..|D-4 2C.F ....|R-- .... ....|A#1 2F.F ....
....|..|--- .... ....|--- .... ....|--- .... ....
 A#3|..|A#3 2C.F ....|A#3 5F.F ....|C-4 BF.A ....
....|..|--- .... ....|--- .... ....|R-- .... ....
 A#3|..|A#2 2C.F ....|R-- .... ....|A#1 2F.7 ....
....|..|--- .... ....|--- .... ....|--- .... ....
 A#3|..|A#3 2C.F ....|R-- .... ....|A#1 2F.A ....
....|..|--- .... ....|--- .... ....|--- .... ....
 D-4|..|D-4 2C.F ....|A#3 5F.F ....|A#1 2F.F ....
....|..|--- .... ....|--- .... ....|R-- .... ....
 F-4|..|F-4 2C.F ....|R-- .... ....|R-- .... ....
....|..|--- .... ....|--- .... ....|--- .... ....
 A#3|..|A#3 2C.F ....|R-- .... ....|C-4 BF.F ....
....|..|--- .... ....|--- .... ....|R-- .... ....
 D-4|..|D-4 2C.F ....|A#3 5F.7 ....|A#1 2F.A ....
....|..|--- .... ....|--- .... ....|--- .... ....
 F-4|..|F-4 2C.F ....|A#3 5F.F ....|A#1 2F.F ....
....|..|--- .... ....|--- .... ....|--- .... ....
 A#3|..|A#4 2C.F ....|--- .... ....|C-4 BF.A ....
....|..|--- .... ....|--- .... ....|R-- .... ....

[Pattern18]
 C-3|..|C-3 2C.F ....|A#3 5F.7 ....|C-3 2C.F ....
....|..|--- .... ....|--- .... ....|--- .... ....
 G-4|..|G-3 2C.F ....|C-4 5F.F ....|A#1 2F.A ....
....|..|--- .... ....|--- .... ....|--- .... ....
 F-4|..|F-4 2C.F ....|--- .... ....|C-4 BF.7 ....
....|..|--- .... ....|--- .... ....|R-- .... ....
 G-4|..|G-4 2C.F ....|R-- .... ....|C-2 2F.A ....
....|..|--- .... ....|--- .... ....|--- .... ....
 C-3|..|C-4 2C.F ....|C-4 5F.F ....|C-4 BF.F ....
....|..|--- .... ....|--- .... ....|R-- .... ....
 G-4|..|G-4 2C.F ....|--- .... ....|--- .... ....
....|..|--- .... ....|--- .... ....|--- .... ....
 F-4|..|F-4 2C.F ....|R-- .... ....|C-2 2F.F ....
....|..|--- .... ....|--- .... ....|--- .... ....
 C-3|..|C-5 2C.F ....|C-4 5F.F ....|C-4 BF.A ....
....|..|--- .... ....|--- .... ....|R-- .... ....
 G-4|..|G-3 2C.F ....|R-- .... ....|C-2 2F.F ....
....|..|--- .... ....|--- .... ....|--- .... ....
 C-3|..|C-4 2C.F ....|R-- .... ....|C-2 2F.A ....
....|..|--- .... ....|--- .... ....|--- .... ....
 F-4|..|F-4 2C.F ....|C-4 5F.F ....|R-- .... ....
....|..|--- .... ....|--- .... ....|R-- .... ....
 G-4|..|G-4 2C.F ....|R-- .... ....|C-2 2F.F ....
....|..|--- .... ....|--- .... ....|--- .... ....
 F-4|..|F-4 2C.F ....|R-- .... ....|C-4 BF.F ....
....|..|--- .... ....|--- .... ....|R-- .... ....
 C-3|..|C-4 2C.F ....|C-4 5F.7 ....|R-- .... ....
....|..|--- .... ....|--- .... ....|--- .... ....
 G-4|..|G-3 2C.F ....|C-4 5F.F ....|C-2 2F.F ....
....|..|--- .... ....|--- .... ....|--- .... ....
 C-3|..|C-3 2C.F ....|C-4 5F.F ....|C-4 BF.A ....
....|..|--- .... ....|--- .... ....|R-- .... ....
....|..|F-4 2F.7 ....|C-4 5F.7 ....|--- .... ....
....|..|--- .... ....|--- .... ....|--- .... ....
....|..|G-4 2F.7 ....|C-4 5F.A ....|C-2 2F.7 ....
....|..|--- .... ....|--- .... ....|--- .... ....
....|..|F-4 2F.7 ....|C-4 5F.A ....|R-- .... ....
....|..|--- .... ....|--- .... ....|R-- .... ....
....|..|C-4 2F.7 ....|R-- .... ....|--- .... ....
....|..|--- .... ....|--- .... ....|--- .... ....
....|..|G-3 2F.7 ....|C-4 5F.7 ....|C-2 2F.7 ....
....|..|--- .... ....|--- .... ....|--- .... ....
....|..|C-3 2F.7 ....|C-4 5F.7 ....|R-- .... ....
....|..|--- .... ....|--- .... ....|--- .... ....
....|..|R-- .... ....|R-- .... ....|--- .... ....
....|..|--- .... ....|--- .... ....|--- .... ....
....|..|--- .... ....|--- .... ....|--- .... ....
....|..|--- .... ....|--- .... ....|--- .... ....
....|..|--- .... ....|--- .... ....|--- .... ....
....|..|--- .... ....|--- .... ....|--- .... ....
....|..|--- .... ....|--- .... ....|--- .... ....
....|..|--- .... ....|--- .... ....|--- .... ....
....|..|--- .... ....|--- .... ....|--- .... ....
....|..|--- .... ....|--- .... ....|--- .... ....
....|..|--- .... ....|--- .... ....|--- .... ....
....|..|--- .... ....|--- .... ....|--- .... ....
....|..|--- .... ....|--- .... ....|--- .... ....
....|..|--- .... ....|--- .... ....|--- .... ....
....|..|--- .... ....|--- .... ....|--- .... ....
....|..|--- .... ....|--- .... ....|--- .... ....
....|..|--- .... ....|--- .... ....|--- .... ....
....|..|--- .... ....|--- .... ....|--- .... ....
....|..|--- .... ....|--- .... ....|--- .... ....
....|..|--- .... ....|--- .... ....|--- .... ....

[Pattern19]
 D-4|..|D-4 2C.F ....|D-4 5F.F ....|--- .... ....
....|..|R-- .... ....|--- .... ....|--- .... ....
 D-4|..|D-4 2C.F ....|--- .... ....|--- .... ....
....|..|R-- .... ....|--- .... ....|--- .... ....
 D-4|..|D-4 2C.F ....|--- .... ....|D-3 2C.F ....
....|..|R-- .... ....|--- .... ....|--- .... ....
 D-4|..|D-4 2C.F ....|D-4 5F.A ....|--- .... ....
....|..|R-- .... ....|--- .... ....|--- .... ....
 D-4|..|D-4 2C.F ....|D-4 5F.F ....|C-4 BF.F ....
....|..|R-- .... ....|--- .... ....|R-- .... ....
 D-4|..|D-4 2C.F ....|--- .... ....|D-2 2F.A ....
....|..|R-- .... ....|--- .... ....|--- .... ....
 D-4|..|D-4 2C.F ....|D-4 5F.7 ....|D-3 2C.F ....
....|..|R-- .... ....|--- .... ....|--- .... ....
 D-4|..|D-4 2C.F ....|D-4 5F.F ....|C-4 BF.A ....
....|..|R-- .... ....|--- .... ....|R-- .... ....
 D-4|..|D-4 2C.F ....|R-- .... ....|D-2 2F.7 ....
....|..|R-- .... ....|--- .... ....|--- .... ....
 D-4|..|D-4 2C.F ....|R-- .... ....|D-2 2F.A ....
....|..|R-- .... ....|--- .... ....|--- .... ....
 D-4|..|D-4 2C.F ....|D-4 5F.F ....|D-3 2C.F ....
....|..|R-- .... ....|--- .... ....|R-- .... ....
 D-4|..|D-4 2C.F ....|R-- .... ....|R-- .... ....
....|..|R-- .... ....|--- .... ....|--- .... ....
 D-4|..|D-4 2C.F ....|R-- .... ....|C-4 BF.F ....
....|..|R-- .... ....|--- .... ....|R-- .... ....
 D-4|..|D-4 2C.F ....|D-4 5F.7 ....|D-2 2F.A ....
....|..|R-- .... ....|--- .... ....|--- .... ....
 D-4|..|D-4 2C.F ....|D-4 5F.F ....|D-3 2C.F ....
....|..|R-- .... ....|--- .... ....|--- .... ....
 D-4|..|D-4 2C.F ....|--- .... ....|C-4 BF.A ....
....|..|R-- .... ....|--- .... ....|R-- .... ....
 A#3|..|A#3 2C.F ....|D-4 5F.7 ....|D-2 2F.7 ....
....|..|R-- .... ....|--- .... ....|--- .... ....
 A#3|..|A#3 2C.F ....|A#3 5F.F ....|D-2 2F.A ....
....|..|R-- .... ....|--- .... ....|--- .... ....
 A#3|..|A#3 2C.F ....|--- .... ....|A#2 2C.F ....
....|..|R-- .... ....|--- .... ....|R-- .... ....
 A#3|..|A#3 2C.F ....|R-- .... ....|R-- .... ....
....|..|R-- .... ....|--- .... ....|--- .... ....
 A#3|..|A#3 2C.F ....|A#3 5F.F ....|C-4 BF.F ....
....|..|R-- .... ....|--- .... ....|R-- .... ....
 A#3|..|A#3 2C.F ....|--- .... ....|A#1 2F.A ....
....|..|R-- .... ....|--- .... ....|--- .... ....
 A#3|..|A#3 2C.F ....|R-- .... ....|A#2 2C.F ....
....|..|R-- .... ....|--- .... ....|--- .... ....
 A#3|..|A#3 2C.F ....|A#3 5F.F ....|C-4 BF.A ....
....|..|R-- .... ....|--- .... ....|R-- .... ....
 A#3|..|A#3 2C.F ....|R-- .... ....|A#1 2F.7 ....
....|..|R-- .... ....|--- .... ....|--- .... ....
 A#3|..|A#3 2C.F ....|R-- .... ....|A#1 2F.A ....
....|..|R-- .... ....|--- .... ....|--- .... ....
 A#3|..|A#3 2C.F ....|A#3 5F.F ....|A#2 2C.F ....
....|..|R-- .... ....|--- .... ....|R-- .... ....
 A#3|..|A#3 2C.F ....|R-- .... ....|R-- .... ....
....|..|R-- .... ....|--- .... ....|--- .... ....
 A#3|..|A#3 2C.F ....|R-- .... ....|C-4 BF.F ....
....|..|R-- .... ....|--- .... ....|R-- .... ....
 A#3|..|A#3 2C.F ....|A#3 5F.7 ....|A#1 2F.A ....
....|..|R-- .... ....|--- .... ....|--- .... ....
 A#3|..|A#3 2C.F ....|A#3 5F.F ....|A#2 2C.F ....
....|..|R-- .... ....|--- .... ....|--- .... ....
 A#3|..|A#3 2C.F ....|--- .... ....|C-4 BF.A ....
....|..|R-- .... ....|--- .... ....|R-- .... ....

[Pattern20]
 G-4|..|G-3 2C.F ....|G-3 5F.F ....|A#1 2F.7 ....
....|..|R-- .... ....|--- .... ....|--- .... ....
 G-4|..|G-3 2C.F ....|A#3 5F.A ....|A#1 2F.A ....
....|..|R-- .... ....|--- .... ....|--- .... ....
 G-4|..|G-3 2C.F ....|--- .... ....|G-2 2A.F ....
....|..|R-- .... ....|--- .... ....|R-- .... ....
 G-4|..|G-3 2C.F ....|G-3 5F.A ....|R-- .... ....
....|..|R-- .... ....|--- .... ....|--- .... ....
 G-4|..|G-3 2C.F ....|G-3 5F.F ....|C-4 BF.F ....
....|..|R-- .... ....|--- .... ....|R-- .... ....
 G-4|..|G-3 2C.F ....|--- .... ....|G-1 2F.A ....
....|..|R-- .... ....|--- .... ....|--- .... ....
 G-4|..|G-3 2C.F ....|G-3 5F.7 ....|G-2 2A.F ....
....|..|R-- .... ....|--- .... ....|--- .... ....
 G-4|..|G-3 2C.F ....|G-3 5F.F ....|C-4 BF.A ....
....|..|R-- .... ....|--- .... ....|R-- .... ....
 G-4|..|G-3 2C.F ....|R-- .... ....|G-1 2F.7 ....
....|..|R-- .... ....|--- .... ....|--- .... ....
 G-4|..|G-3 2C.F ....|R-- .... ....|G-1 2F.A ....
....|..|R-- .... ....|--- .... ....|--- .... ....
 G-4|..|G-3 2C.F ....|G-3 5F.F ....|G-2 2A.F ....
....|..|R-- .... ....|--- .... ....|R-- .... ....
 G-4|..|G-3 2C.F ....|R-- .... ....|R-- .... ....
....|..|R-- .... ....|--- .... ....|--- .... ....
 G-4|..|G-3 2C.F ....|R-- .... ....|C-4 BF.F ....
....|..|R-- .... ....|--- .... ....|R-- .... ....
 G-4|..|G-3 2C.F ....|G-3 5F.7 ....|G-1 2F.A ....
....|..|R-- .... ....|--- .... ....|--- .... ....
 G-4|..|G-3 2C.F ....|G-3 5F.F ....|G-2 2A.F ....
....|..|R-- .... ....|--- .... ....|--- .... ....
 G-4|..|G-3 2C.F ....|--- .... ....|C-4 BF.A ....
....|..|R-- .... ....|--- .... ....|R-- .... ....
 C-3|..|C-4 2C.F ....|G-3 5F.7 ....|G-1 2F.7 ....
....|..|R-- .... ....|--- .... ....|--- .... ....
 C-3|..|C-4 2C.F ....|A-3 5F.F ....|G-1 2F.A ....
....|..|R-- .... ....|--- .... ....|--- .... ....
 C-3|..|C-4 2C.F ....|--- .... ....|C-3 2C.F ....
....|..|R-- .... ....|--- .... ....|R-- .... ....
 C-3|..|C-4 2C.F ....|R-- .... ....|R-- .... ....
....|..|R-- .... ....|--- .... ....|--- .... ....
 C-3|..|C-4 2C.F ....|A-3 5F.F ....|C-4 BF.F ....
....|..|R-- .... ....|--- .... ....|R-- .... ....
 C-3|..|C-4 2C.F ....|--- .... ....|C-2 2F.A ....
....|..|R-- .... ....|--- .... ....|--- .... ....
 C-3|..|C-4 2C.F ....|R-- .... ....|C-3 2C.F ....
....|..|R-- .... ....|--- .... ....|--- .... ....
 C-3|..|C-4 2C.F ....|A-3 5F.F ....|C-4 BF.A ....
....|..|R-- .... ....|--- .... ....|R-- .... ....
 C-3|..|C-4 2C.F ....|R-- .... ....|C-2 2F.7 ....
....|..|R-- .... ....|--- .... ....|--- .... ....
 C-3|..|C-4 2C.F ....|R-- .... ....|C-2 2F.A ....
....|..|R-- .... ....|--- .... ....|--- .... ....
 C-3|..|C-4 2C.F ....|A-3 5F.F ....|C-3 2C.F ....
....|..|R-- .... ....|--- .... ....|R-- .... ....
 C-3|..|C-4 2C.F ....|R-- .... ....|R-- .... ....
....|..|R-- .... ....|--- .... ....|--- .... ....
 C-3|..|C-4 2C.F ....|R-- .... ....|C-4 BF.F ....
....|..|R-- .... ....|--- .... ....|R-- .... ....
 C-3|..|C-4 2C.F ....|A-3 5F.7 ....|C-2 2F.A ....
....|..|R-- .... ....|--- .... ....|--- .... ....
 C-3|..|C-4 2C.F ....|A-3 5F.F ....|C-3 2C.F ....
....|..|R-- .... ....|--- .... ....|--- .... ....
 C-3|..|C-4 2C.F ....|--- .... ....|C-4 BF.A ....
....|..|R-- .... ....|--- .... ....|R-- .... ....

[Pattern21]
 D-4|..|D-4 2C.F ....|D-4 5F.F ....|C-2 2F.7 ....
....|..|R-- .... ....|--- .... ....|--- .... ....
 D-4|..|D-4 2C.F ....|A-3 5F.A ....|C-2 2F.A ....
....|..|R-- .... ....|--- .... ....|--- .... ....
 D-4|..|D-4 2C.F ....|--- .... ....|D-3 2C.F ....
....|..|R-- .... ....|--- .... ....|R-- .... ....
 D-4|..|D-4 2C.F ....|D-4 5F.A ....|R-- .... ....
....|..|R-- .... ....|--- .... ....|--- .... ....
 D-4|..|D-4 2C.F ....|D-4 5F.F ....|C-4 BF.F ....
....|..|R-- .... ....|--- .... ....|R-- .... ....
 D-4|..|D-4 2C.F ....|--- .... ....|D-2 2F.A ....
....|..|R-- .... ....|--- .... ....|--- .... ....
 D-4|..|D-4 2C.F ....|D-4 5F.7 ....|D-3 2C.F ....
....|..|R-- .... ....|--- .... ....|--- .... ....
 D-4|..|D-4 2C.F ....|D-4 5F.F ....|C-4 BF.A ....
....|..|R-- .... ....|--- .... ....|R-- .... ....
 D-4|..|D-4 2C.F ....|R-- .... ....|D-2 2F.7 ....
....|..|R-- .... ....|--- .... ....|--- .... ....
 D-4|..|D-4 2C.F ....|R-- .... ....|D-2 2F.A ....
....|..|R-- .... ....|--- .... ....|--- .... ....
 D-4|..|D-4 2C.F ....|D-4 5F.F ....|D-3 2C.F ....
....|..|R-- .... ....|--- .... ....|R-- .... ....
 D-4|..|D-4 2C.F ....|R-- .... ....|R-- .... ....
....|..|R-- .... ....|--- .... ....|--- .... ....
 D-4|..|D-4 2C.F ....|R-- .... ....|C-4 BF.F ....
....|..|R-- .... ....|--- .... ....|R-- .... ....
 D-4|..|D-4 2C.F ....|D-4 5F.7 ....|D-2 2F.A ....
....|..|R-- .... ....|--- .... ....|--- .... ....
 D-4|..|D-4 2C.F ....|D-4 5F.F ....|D-3 2C.F ....
....|..|R-- .... ....|--- .... ....|--- .... ....
 D-4|..|D-4 2C.F ....|--- .... ....|C-4 BF.A ....
....|..|R-- .... ....|--- .... ....|R-- .... ....
 A#3|..|A#3 2C.F ....|D-4 5F.7 ....|D-2 2F.7 ....
....|..|R-- .... ....|--- .... ....|--- .... ....
 A#3|..|A#3 2C.F ....|A#3 5F.F ....|D-2 2F.A ....
....|..|R-- .... ....|--- .... ....|--- .... ....
 A#3|..|A#3 2C.F ....|--- .... ....|A#2 2C.F ....
....|..|R-- .... ....|--- .... ....|R-- .... ....
 A#3|..|A#3 2C.F ....|R-- .... ....|R-- .... ....
....|..|R-- .... ....|--- .... ....|--- .... ....
 A#3|..|A#3 2C.F ....|A#3 5F.F ....|C-4 BF.F ....
....|..|R-- .... ....|--- .... ....|R-- .... ....
 A#3|..|A#3 2C.F ....|--- .... ....|A#1 2F.A ....
....|..|R-- .... ....|--- .... ....|--- .... ....
 A#3|..|A#3 2C.F ....|R-- .... ....|A#2 2C.F ....
....|..|R-- .... ....|--- .... ....|--- .... ....
 A#3|..|A#3 2C.F ....|A#3 5F.F ....|C-4 BF.A ....
....|..|R-- .... ....|--- .... ....|R-- .... ....
 A#3|..|A#3 2C.F ....|R-- .... ....|A#1 2F.7 ....
....|..|R-- .... ....|--- .... ....|--- .... ....
 A#3|..|A#3 2C.F ....|R-- .... ....|A#1 2F.A ....
....|..|R-- .... ....|--- .... ....|--- .... ....
 A#3|..|A#3 2C.F ....|A#3 5F.F ....|A#2 2C.F ....
....|..|R-- .... ....|--- .... ....|R-- .... ....
 A#3|..|A#3 2C.F ....|R-- .... ....|R-- .... ....
....|..|R-- .... ....|--- .... ....|--- .... ....
 A#3|..|A#3 2C.F ....|R-- .... ....|C-4 BF.F ....
....|..|R-- .... ....|--- .... ....|R-- .... ....
 A#3|..|A#3 2C.F ....|A#3 5F.7 ....|A#1 2F.A ....
....|..|R-- .... ....|--- .... ....|--- .... ....
 A#3|..|A#3 2C.F ....|A#3 5F.F ....|A#2 2C.F ....
....|..|R-- .... ....|--- .... ....|--- .... ....
 A#3|..|A#3 2C.F ....|--- .... ....|C-4 BF.A ....
....|..|R-- .... ....|--- .... ....|R-- .... ....

[Pattern22]
 G-4|..|G-3 2C.F ....|G-3 5F.F ....|A#1 2F.7 ....
....|..|R-- .... ....|--- .... ....|--- .... ....
 G-4|..|G-3 2C.F ....|A#3 5F.A ....|A#1 2F.A ....
....|..|R-- .... ....|--- .... ....|--- .... ....
 G-4|..|G-3 2C.F ....|--- .... ....|G-2 2A.F ....
....|..|R-- .... ....|--- .... ....|R-- .... ....
 G-4|..|G-3 2C.F ....|G-3 5F.A ....|R-- .... ....
....|..|R-- .... ....|--- .... ....|--- .... ....
 G-4|..|G-3 2C.F ....|G-3 5F.F ....|C-4 BF.F ....
....|..|R-- .... ....|--- .... ....|R-- .... ....
 G-4|..|G-3 2C.F ....|--- .... ....|G-1 2F.A ....
....|..|R-- .... ....|--- .... ....|--- .... ....
 G-4|..|G-3 2C.F ....|G-3 5F.7 ....|G-2 2A.F ....
....|..|R-- .... ....|--- .... ....|--- .... ....
 G-4|..|G-3 2C.F ....|G-3 5F.F ....|C-4 BF.A ....
....|..|R-- .... ....|--- .... ....|R-- .... ....
 G-4|..|G-3 2C.F ....|R-- .... ....|G-1 2F.7 ....
....|..|R-- .... ....|--- .... ....|--- .... ....
 G-4|..|G-3 2C.F ....|R-- .... ....|G-1 2F.A ....
....|..|R-- .... ....|--- .... ....|--- .... ....
 G-4|..|G-3 2C.F ....|G-3 5F.F ....|G-2 2A.F ....
....|..|R-- .... ....|--- .... ....|R-- .... ....
 G-4|..|G-3 2C.F ....|R-- .... ....|R-- .... ....
....|..|R-- .... ....|--- .... ....|--- .... ....
 G-4|..|G-3 2C.F ....|R-- .... ....|C-4 BF.F ....
....|..|R-- .... ....|--- .... ....|R-- .... ....
 G-4|..|G-3 2C.F ....|G-3 5F.7 ....|G-1 2F.A ....
....|..|R-- .... ....|--- .... ....|--- .... ....
 G-4|..|G-3 2C.F ....|G-3 5F.F ....|G-2 2A.F ....
....|..|R-- .... ....|--- .... ....|--- .... ....
 G-4|..|G-3 2C.F ....|--- .... ....|C-4 BF.A ....
....|..|R-- .... ....|--- .... ....|R-- .... ....
 C-3|..|C-4 2C.F ....|G-3 5F.7 ....|G-1 2F.7 ....
....|..|R-- .... ....|--- .... ....|--- .... ....
 C-3|..|C-4 2C.F ....|C-4 5F.F ....|G-1 2F.A ....
....|..|R-- .... ....|--- .... ....|--- .... ....
 C-3|..|C-4 2C.F ....|--- .... ....|C-3 2C.F ....
....|..|R-- .... ....|--- .... ....|R-- .... ....
 C-3|..|C-4 2C.F ....|R-- .... ....|R-- .... ....
....|..|R-- .... ....|--- .... ....|--- .... ....
 C-3|..|C-4 2C.F ....|C-4 5F.F ....|C-4 BF.F ....
....|..|R-- .... ....|--- .... ....|R-- .... ....
 C-3|..|C-4 2C.F ....|--- .... ....|C-2 2F.A ....
....|..|R-- .... ....|--- .... ....|--- .... ....
 C-3|..|C-4 2C.F ....|R-- .... ....|C-3 2C.F ....
....|..|R-- .... ....|--- .... ....|--- .... ....
 C-3|..|C-4 2C.F ....|C-4 5F.F ....|C-4 BF.A ....
....|..|R-- .... ....|--- .... ....|R-- .... ....
 C-3|..|C-4 2C.F ....|R-- .... ....|C-2 2F.7 ....
....|..|R-- .... ....|--- .... ....|--- .... ....
 C-3|..|C-4 2C.F ....|R-- .... ....|C-2 2F.A ....
....|..|R-- .... ....|--- .... ....|--- .... ....
 C-3|..|C-4 2C.F ....|C-4 5F.F ....|C-3 2C.F ....
....|..|R-- .... ....|--- .... ....|R-- .... ....
 C-3|..|C-4 2C.F ....|R-- .... ....|R-- .... ....
....|..|R-- .... ....|--- .... ....|--- .... ....
 C-3|..|C-4 2C.F ....|R-- .... ....|C-4 BF.F ....
....|..|R-- .... ....|--- .... ....|R-- .... ....
 C-3|..|C-4 2C.F ....|C-4 5F.7 ....|C-2 2F.A ....
....|..|R-- .... ....|--- .... ....|--- .... ....
 C-3|..|C-4 2C.F ....|C-4 5F.F ....|C-3 2C.F ....
....|..|R-- .... ....|--- .... ....|--- .... ....
 C-3|..|C-4 2C.F ....|--- .... ....|C-4 BF.A ....
....|..|R-- .... ....|--- .... ....|R-- .... ....

[Pattern23]
 D-4|..|D-4 2C.F ....|D-4 5F.F ....|C-2 2F.7 ....
....|..|R-- .... ....|--- .... ....|--- .... ....
 D-4|..|D-4 2C.F ....|C-4 5F.A ....|C-2 2F.A ....
....|..|R-- .... ....|--- .... ....|--- .... ....
 D-4|..|D-4 2C.F ....|--- .... ....|D-3 2C.F ....
....|..|R-- .... ....|--- .... ....|R-- .... ....
 D-4|..|D-4 2C.F ....|D-4 5F.A ....|R-- .... ....
....|..|R-- .... ....|--- .... ....|--- .... ....
 D-4|..|D-4 2C.F ....|D-4 5F.F ....|C-4 BF.F ....
....|..|R-- .... ....|--- .... ....|R-- .... ....
 D-4|..|D-4 2C.F ....|--- .... ....|D-2 2F.A ....
....|..|R-- .... ....|--- .... ....|--- .... ....
 D-4|..|D-4 2C.F ....|D-4 5F.7 ....|D-3 2C.F ....
....|..|R-- .... ....|--- .... ....|--- .... ....
 D-4|..|D-4 2C.F ....|D-4 5F.F ....|C-4 BF.A ....
....|..|R-- .... ....|--- .... ....|R-- .... ....
 D-4|..|D-4 2C.F ....|R-- .... ....|D-2 2F.7 ....
....|..|R-- .... ....|--- .... ....|--- .... ....
 D-4|..|D-4 2C.F ....|R-- .... ....|D-2 2F.A ....
....|..|R-- .... ....|--- .... ....|--- .... ....
 D-4|..|D-4 2C.F ....|D-4 5F.F ....|D-3 2C.F ....
....|..|R-- .... ....|--- .... ....|R-- .... ....
 D-4|..|D-4 2C.F ....|R-- .... ....|R-- .... ....
....|..|R-- .... ....|--- .... ....|--- .... ....
 D-4|..|D-4 2C.F ....|R-- .... ....|C-4 BF.F ....
....|..|R-- .... ....|--- .... ....|R-- .... ....
 D-4|..|D-4 2C.F ....|D-4 5F.7 ....|D-2 2F.A ....
....|..|R-- .... ....|--- .... ....|--- .... ....
 D-4|..|D-4 2C.F ....|D-4 5F.F ....|D-3 2C.F ....
....|..|R-- .... ....|--- .... ....|--- .... ....
 D-4|..|D-4 2C.F ....|--- .... ....|C-4 BF.A ....
....|..|R-- .... ....|--- .... ....|R-- .... ....
 A#3|..|A#3 2C.F ....|D-4 5F.7 ....|D-2 2F.7 ....
....|..|R-- .... ....|--- .... ....|--- .... ....
 A#3|..|A#3 2C.F ....|A#3 5F.F ....|D-2 2F.A ....
....|..|R-- .... ....|--- .... ....|--- .... ....
 A#3|..|A#3 2C.F ....|--- .... ....|A#2 2C.F ....
....|..|R-- .... ....|--- .... ....|R-- .... ....
 A#3|..|A#3 2C.F ....|R-- .... ....|R-- .... ....
....|..|R-- .... ....|--- .... ....|--- .... ....
 A#3|..|A#3 2C.F ....|A#3 5F.F ....|C-4 BF.F ....
....|..|R-- .... ....|--- .... ....|R-- .... ....
 A#3|..|A#3 2C.F ....|--- .... ....|A#1 2F.A ....
....|..|R-- .... ....|--- .... ....|--- .... ....
 A#3|..|A#3 2C.F ....|R-- .... ....|A#2 2C.F ....
....|..|R-- .... ....|--- .... ....|--- .... ....
 A#3|..|A#3 2C.F ....|A#3 5F.F ....|C-4 BF.A ....
....|..|R-- .... ....|--- .... ....|R-- .... ....
 A#3|..|A#3 2C.F ....|R-- .... ....|A#1 2F.7 ....
....|..|R-- .... ....|--- .... ....|--- .... ....
 A#3|..|A#3 2C.F ....|R-- .... ....|A#1 2F.A ....
....|..|R-- .... ....|--- .... ....|--- .... ....
 A#3|..|A#3 2C.F ....|A#3 5F.F ....|A#2 2C.F ....
....|..|R-- .... ....|--- .... ....|R-- .... ....
 A#3|..|A#3 2C.F ....|R-- .... ....|R-- .... ....
....|..|R-- .... ....|--- .... ....|--- .... ....
 A#3|..|A#3 2C.F ....|R-- .... ....|C-4 BF.F ....
....|..|R-- .... ....|--- .... ....|R-- .... ....
 A#3|..|A#3 2C.F ....|A#3 5F.7 ....|A#1 2F.A ....
....|..|R-- .... ....|--- .... ....|--- .... ....
 A#3|..|A#3 2C.F ....|A#3 5F.F ....|A#2 2C.F ....
....|..|R-- .... ....|--- .... ....|--- .... ....
 A#3|..|A#3 2C.F ....|--- .... ....|C-4 BF.A ....
....|..|R-- .... ....|--- .... ....|R-- .... ....

[Pattern27]
....|..|C-4 2F.7 ....|C-4 5F.7 ....|C-2 2F.7 ....
....|..|R-- .... ....|--- .... ....|--- .... ....
....|..|C-4 2F.7 ....|C-4 5F.A ....|C-2 2F.A ....
....|..|R-- .... ....|--- .... ....|--- .... ....
....|..|C-4 2F.7 ....|--- .... ....|C-4 BF.7 ....
....|..|R-- .... ....|--- .... ....|R-- .... ....
....|..|C-4 2F.7 ....|R-- .... ....|R-- .... ....
....|..|R-- .... ....|--- .... ....|--- .... ....
....|..|C-4 2F.7 ....|C-4 5F.7 ....|C-2 2F.7 ....
....|..|R-- .... ....|--- .... ....|--- .... ....
....|..|C-4 2F.7 ....|--- .... ....|--- .... ....
....|..|R-- .... ....|--- .... ....|--- .... ....
 C-4|..|--- .... ....|R-- .... ....|C-2 2A.F ....
....|..|--- .... ....|--- .... ....|--- .... ....
....|..|--- .... ....|--- .... ....|R-- .... ....
....|..|--- .... ....|--- .... ....|--- .... ....
 C-4|..|--- .... ....|--- .... ....|C-2 2A.F ....
....|..|--- .... ....|--- .... ....|--- .... ....
 C-4|..|--- .... ....|--- .... ....|C-2 2A.F ....
....|..|--- .... ....|--- .... ....|--- .... ....
....|..|--- .... ....|--- .... ....|R-- .... ....
....|..|--- .... ....|--- .... ....|--- .... ....
 C-4|..|--- .... ....|--- .... ....|C-2 2A.F ....
....|..|--- .... ....|--- .... ....|--- .... ....
 C-4|..|--- .... ....|--- .... ....|C-2 2A.F ....
....|..|--- .... ....|--- .... ....|--- .... ....
....|..|--- .... ....|--- .... ....|R-- .... ....
....|..|--- .... ....|--- .... ....|--- .... ....
 C-4|..|--- .... ....|--- .... ....|C-2 2A.F ....
....|..|--- .... ....|--- .... ....|--- .... ....
....|..|--- .... ....|--- .... ....|C-2 2F.7 ....
....|..|--- .... ....|--- .... ....|--- .... ....
....|..|--- .... ....|--- .... ....|R-- .... ....
....|..|--- .... ....|--- .... ....|--- .... ....
....|..|--- .... ....|--- .... ....|C-2 2F.7 ....
....|..|--- .... ....|--- .... ....|--- .... ....
....|..|--- .... ....|--- .... ....|C-2 2F.7 ....
....|..|--- .... ....|--- .... ....|--- .... ....
....|..|--- .... ....|--- .... ....|R-- .... ....
....|..|--- .... ....|--- .... ....|--- .... ....
....|..|--- .... ....|--- .... ....|C-2 2F.7 ....
....|..|--- .... ....|--- .... ....|--- .... ....
....|..|--- .... ....|--- .... ....|R-- .... ....
....|..|--- .... ....|--- .... ....|--- .... ....
....|..|--- .... ....|--- .... ....|--- .... ....
....|..|--- .... ....|--- .... ....|--- .... ....
....|..|--- .... ....|--- .... ....|--- .... ....
....|..|--- .... ....|--- .... ....|--- .... ....
....|..|--- .... ....|--- .... ....|--- .... ....
....|..|--- .... ....|--- .... ....|--- .... ....
....|..|--- .... ....|--- .... ....|--- .... ....
....|..|--- .... ....|--- .... ....|--- .... ....
....|..|--- .... ....|--- .... ....|--- .... ....
....|..|--- .... ....|--- .... ....|--- .... ....
....|..|--- .... ....|--- .... ....|--- .... ....
....|..|--- .... ....|--- .... ....|--- .... ....
....|..|--- .... ....|--- .... ....|--- .... ....
....|..|--- .... ....|--- .... ....|--- .... ....
....|..|--- .... ....|--- .... ....|--- .... ....
....|..|--- .... ....|--- .... ....|--- .... ....
....|..|--- .... ....|--- .... ....|--- .... ....
....|..|--- .... ....|--- .... ....|--- .... ....
....|..|--- .... ....|--- .... ....|--- .... ....
....|..|--- .... ....|--- .... ....|--- .... ....

[Pattern28]
 D-4|..|D-3 2C.F ....|D-4 5F.F ....|--- .... ....
....|..|--- .... ....|--- .... ....|--- .... ....
 D-4|..|D-4 2C.F ....|--- .... ....|--- .... ....
....|..|--- .... ....|--- .... ....|--- .... ....
 G-4|..|G-4 2C.F ....|--- .... ....|D-2 2F.F ....
....|..|--- .... ....|--- .... ....|--- .... ....
 A-3|..|A-4 2C.F ....|D-4 5F.A ....|--- .F.. ....
....|..|--- .... ....|--- .... ....|--- .... ....
 A-3|..|A-3 2C.F ....|D-4 5F.F ....|C-4 BF.F ....
....|..|--- .... ....|--- .... ....|R-- .... ....
 A-3|..|A-4 2C.F ....|--- .... ....|D-2 2F.A ....
....|..|--- .... ....|--- .... ....|--- .... ....
 G-4|..|G-4 2C.F ....|D-4 5F.7 ....|D-2 2F.F ....
....|..|--- .... ....|--- .... ....|--- .... ....
 D-4|..|D-4 2C.F ....|D-4 5F.F ....|C-4 BF.A ....
....|..|--- .... ....|--- .... ....|R-- .... ....
 D-4|..|D-3 2C.F ....|R-- .... ....|D-2 2F.7 ....
....|..|--- .... ....|--- .... ....|--- .... ....
 D-4|..|D-4 2C.F ....|R-- .... ....|D-2 2F.A ....
....|..|--- .... ....|--- .... ....|--- .... ....
 G-4|..|G-4 2C.F ....|D-4 5F.F ....|D-2 2F.F ....
....|..|--- .... ....|--- .... ....|R-- .... ....
 A-3|..|A-4 2C.F ....|R-- .... ....|R-- .... ....
....|..|--- .... ....|--- .... ....|--- .... ....
 D-4|..|D-4 2C.F ....|R-- .... ....|C-4 BF.F ....
....|..|--- .... ....|--- .... ....|R-- .... ....
 G-4|..|G-4 2C.F ....|D-4 5F.7 ....|D-2 2F.A ....
....|..|--- .... ....|--- .... ....|--- .... ....
 A-3|..|A-4 2C.F ....|D-4 5F.F ....|D-2 2F.F ....
....|..|--- .... ....|--- .... ....|--- .... ....
 D-4|..|D-5 2C.F ....|--- .... ....|C-4 BF.A ....
....|..|--- .... ....|--- .... ....|R-- .... ....
 G-4|..|G-2 2A.F ....|D-4 5F.7 ....|D-2 2F.7 ....
....|..|--- .... ....|--- .... ....|--- .... ....
 D-4|..|D-3 2C.F ....|D-4 5F.F ....|D-2 2F.A ....
....|..|--- .... ....|--- .... ....|--- .... ....
 C-3|..|C-4 2C.F ....|--- .... ....|G-1 2F.F ....
....|..|--- .... ....|--- .... ....|R-- .... ....
 D-4|..|D-4 2C.F ....|R-- .... ....|R-- .... ....
....|..|--- .... ....|--- .... ....|--- .... ....
 G-4|..|G-3 2C.F ....|D-4 5F.F ....|C-4 BF.F ....
....|..|--- .... ....|--- .... ....|R-- .... ....
 D-4|..|D-4 2C.F ....|--- .... ....|G-1 2F.A ....
....|..|--- .... ....|--- .... ....|--- .... ....
 C-3|..|C-4 2C.F ....|R-- .... ....|G-1 2F.F ....
....|..|--- .... ....|--- .... ....|--- .... ....
 G-4|..|G-4 2C.F ....|D-4 5F.F ....|C-4 BF.A ....
....|..|--- .... ....|--- .... ....|R-- .... ....
 D-4|..|D-3 2C.F ....|R-- .... ....|G-1 2F.7 ....
....|..|--- .... ....|--- .... ....|--- .... ....
 G-4|..|G-3 2C.F ....|R-- .... ....|G-1 2F.A ....
....|..|--- .... ....|--- .... ....|--- .... ....
 C-3|..|C-4 2C.F ....|D-4 5F.F ....|G-1 2F.F ....
....|..|--- .... ....|--- .... ....|R-- .... ....
 D-4|..|D-4 2C.F ....|R-- .... ....|R-- .... ....
....|..|--- .... ....|--- .... ....|--- .... ....
 C-3|..|C-4 2C.F ....|R-- .... ....|C-4 BF.F ....
....|..|--- .... ....|--- .... ....|R-- .... ....
 G-4|..|G-3 2C.F ....|D-4 5F.7 ....|G-1 2F.A ....
....|..|--- .... ....|--- .... ....|--- .... ....
 C-3|..|C-4 2C.F ....|D-4 5F.F ....|G-1 2F.F ....
....|..|--- .... ....|--- .... ....|--- .... ....
 G-4|..|G-4 2C.F ....|--- .... ....|C-4 BF.A ....
....|..|--- .... ....|--- .... ....|R-- .... ....

[Pattern29]
 C-3|..|C-3 2C.F ....|C-4 5F.F ....|G-1 2F.7 ....
....|..|--- .... ....|--- .... ....|--- .... ....
 C-3|..|C-4 2C.F ....|D-4 5F.A ....|G-1 2F.A ....
....|..|--- .... ....|--- .... ....|--- .... ....
 F-4|..|F-4 2C.F ....|--- .... ....|C-2 2F.F ....
....|..|--- .... ....|--- .... ....|R-- .... ....
 G-4|..|G-4 2C.F ....|C-4 5F.A ....|R-- .... ....
....|..|--- .... ....|--- .... ....|--- .... ....
 G-4|..|G-3 2C.F ....|C-4 5F.F ....|C-4 BF.F ....
....|..|--- .... ....|--- .... ....|R-- .... ....
 G-4|..|G-4 2C.F ....|--- .... ....|C-2 2F.A ....
....|..|--- .... ....|--- .... ....|--- .... ....
 F-4|..|F-4 2C.F ....|C-4 5F.7 ....|C-2 2F.F ....
....|..|--- .... ....|--- .... ....|--- .... ....
 C-3|..|C-4 2C.F ....|C-4 5F.F ....|C-4 BF.A ....
....|..|--- .... ....|--- .... ....|R-- .... ....
 C-3|..|C-3 2C.F ....|R-- .... ....|C-2 2F.7 ....
....|..|--- .... ....|--- .... ....|--- .... ....
 C-3|..|C-4 2C.F ....|R-- .... ....|C-2 2F.A ....
....|..|--- .... ....|--- .... ....|--- .... ....
 F-4|..|F-4 2C.F ....|C-4 5F.F ....|C-2 2F.F ....
....|..|--- .... ....|--- .... ....|R-- .... ....
 G-4|..|G-4 2C.F ....|R-- .... ....|R-- .... ....
....|..|--- .... ....|--- .... ....|--- .... ....
 C-3|..|C-4 2C.F ....|R-- .... ....|C-4 BF.F ....
....|..|--- .... ....|--- .... ....|R-- .... ....
 F-4|..|F-4 2C.F ....|C-4 5F.7 ....|C-2 2F.A ....
....|..|--- .... ....|--- .... ....|--- .... ....
 G-4|..|G-4 2C.F ....|C-4 5F.F ....|C-2 2F.F ....
....|..|--- .... ....|--- .... ....|--- .... ....
 C-3|..|C-5 2C.F ....|--- .... ....|C-4 BF.A ....
....|..|--- .... ....|--- .... ....|R-- .... ....
 F-4|..|F-2 2A.F ....|C-4 5F.7 ....|C-2 2F.7 ....
....|..|--- .... ....|--- .... ....|--- .... ....
 C-3|..|C-3 2C.F ....|C-4 5F.F ....|C-2 2F.A ....
....|..|--- .... ....|--- .... ....|--- .... ....
 A-3|..|A-3 2C.F ....|--- .... ....|F-1 2F.F ....
....|..|--- .... ....|--- .... ....|R-- .... ....
 C-3|..|C-4 2C.F ....|R-- .... ....|R-- .... ....
....|..|--- .... ....|--- .... ....|--- .... ....
 F-4|..|F-3 2C.F ....|C-4 5F.F ....|C-4 BF.F ....
....|..|--- .... ....|--- .... ....|R-- .... ....
 C-3|..|C-4 2C.F ....|--- .... ....|F-1 2F.A ....
....|..|--- .... ....|--- .... ....|--- .... ....
 A-3|..|A-3 2C.F ....|R-- .... ....|F-1 2F.F ....
....|..|--- .... ....|--- .... ....|--- .... ....
 F-4|..|F-4 2C.F ....|C-4 5F.F ....|C-4 BF.A ....
....|..|--- .... ....|--- .... ....|R-- .... ....
 C-3|..|C-3 2C.F ....|R-- .... ....|F-1 2F.7 ....
....|..|--- .... ....|--- .... ....|--- .... ....
 F-4|..|F-3 2C.F ....|R-- .... ....|F-1 2F.A ....
....|..|--- .... ....|--- .... ....|--- .... ....
 A-3|..|A-3 2C.F ....|C-4 5F.F ....|F-1 2F.F ....
....|..|--- .... ....|--- .... ....|R-- .... ....
 C-3|..|C-4 2C.F ....|R-- .... ....|R-- .... ....
....|..|--- .... ....|--- .... ....|--- .... ....
 A-3|..|A-3 2C.F ....|R-- .... ....|C-4 BF.F ....
....|..|--- .... ....|--- .... ....|R-- .... ....
 F-4|..|F-3 2C.F ....|C-4 5F.7 ....|F-1 2F.A ....
....|..|--- .... ....|--- .... ....|--- .... ....
 C-3|..|C-3 2C.F ....|C-4 5F.F ....|F-1 2F.F ....
....|..|--- .... ....|--- .... ....|--- .... ....
 F-4|..|F-2 2A.F ....|--- .... ....|C-4 BF.A ....
....|..|--- .... ....|--- .... ....|R-- .... ....

[Pattern30]
 A#3|..|A#2 2C.F ....|D-4 5F.F ....|F-1 2F.7 ....
....|..|--- .... ....|--- .... ....|--- .... ....
 A#3|..|A#3 2C.F ....|C-4 5F.A ....|F-1 2F.A ....
....|..|--- .... ....|--- .... ....|--- .... ....
 D-4|..|D-4 2C.F ....|--- .... ....|A#1 2F.F ....
....|..|--- .... ....|--- .... ....|R-- .... ....
 F-4|..|F-4 2C.F ....|D-4 5F.A ....|R-- .... ....
....|..|--- .... ....|--- .... ....|--- .... ....
 F-4|..|F-3 2C.F ....|D-4 5F.F ....|C-4 BF.F ....
....|..|--- .... ....|--- .... ....|R-- .... ....
 F-4|..|F-4 2C.F ....|--- .... ....|A#1 2F.A ....
....|..|--- .... ....|--- .... ....|--- .... ....
 D-4|..|D-4 2C.F ....|D-4 5F.7 ....|A#1 2F.F ....
....|..|--- .... ....|--- .... ....|--- .... ....
 A#3|..|A#3 2C.F ....|D-4 5F.F ....|C-4 BF.A ....
....|..|--- .... ....|--- .... ....|R-- .... ....
 A#3|..|A#2 2C.F ....|R-- .... ....|A#1 2F.7 ....
....|..|--- .... ....|--- .... ....|--- .... ....
 A#3|..|A#3 2C.F ....|R-- .... ....|A#1 2F.A ....
....|..|--- .... ....|--- .... ....|--- .... ....
 D-4|..|D-4 2C.F ....|D-4 5F.F ....|A#1 2F.F ....
....|..|--- .... ....|--- .... ....|R-- .... ....
 F-4|..|F-4 2C.F ....|R-- .... ....|R-- .... ....
....|..|--- .... ....|--- .... ....|--- .... ....
 A#3|..|A#3 2C.F ....|R-- .... ....|C-4 BF.F ....
....|..|--- .... ....|--- .... ....|R-- .... ....
 D-4|..|D-4 2C.F ....|D-4 5F.7 ....|A#1 2F.A ....
....|..|--- .... ....|--- .... ....|--- .... ....
 F-4|..|F-4 2C.F ....|D-4 5F.F ....|A#1 2F.F ....
....|..|--- .... ....|--- .... ....|--- .... ....
 A#3|..|A#4 2C.F ....|--- .... ....|C-4 BF.A ....
....|..|--- .... ....|--- .... ....|R-- .... ....
 G-4|..|G-2 2A.F ....|D-4 5F.7 ....|A#1 2F.7 ....
....|..|--- .... ....|--- .... ....|--- .... ....
 D-4|..|D-3 2C.F ....|D-4 5F.F ....|A#1 2F.A ....
....|..|--- .... ....|--- .... ....|--- .... ....
 C-3|..|C-4 2C.F ....|--- .... ....|G-1 2F.F ....
....|..|--- .... ....|--- .... ....|R-- .... ....
 D-4|..|D-4 2C.F ....|R-- .... ....|R-- .... ....
....|..|--- .... ....|--- .... ....|--- .... ....
 G-4|..|G-3 2C.F ....|D-4 5F.F ....|C-4 BF.F ....
....|..|--- .... ....|--- .... ....|R-- .... ....
 D-4|..|D-4 2C.F ....|--- .... ....|G-1 2F.A ....
....|..|--- .... ....|--- .... ....|--- .... ....
 C-3|..|C-4 2C.F ....|R-- .... ....|G-1 2F.F ....
....|..|--- .... ....|--- .... ....|--- .... ....
 G-4|..|G-4 2C.F ....|D-4 5F.F ....|C-4 BF.A ....
....|..|--- .... ....|--- .... ....|R-- .... ....
 D-4|..|D-3 2C.F ....|R-- .... ....|G-1 2F.7 ....
....|..|--- .... ....|--- .... ....|--- .... ....
 G-4|..|G-3 2C.F ....|R-- .... ....|G-1 2F.A ....
....|..|--- .... ....|--- .... ....|--- .... ....
 C-3|..|C-4 2C.F ....|D-4 5F.F ....|G-1 2F.F ....
....|..|--- .... ....|--- .... ....|R-- .... ....
 D-4|..|D-4 2C.F ....|R-- .... ....|R-- .... ....
....|..|--- .... ....|--- .... ....|--- .... ....
 C-3|..|C-4 2C.F ....|R-- .... ....|C-4 BF.F ....
....|..|--- .... ....|--- .... ....|R-- .... ....
 G-4|..|G-3 2C.F ....|D-4 5F.7 ....|G-1 2F.A ....
....|..|--- .... ....|--- .... ....|--- .... ....
 D-4|..|D-3 2C.F ....|D-4 5F.F ....|G-1 2F.F ....
....|..|--- .... ....|--- .... ....|--- .... ....
 G-4|..|G-2 2A.F ....|--- .... ....|C-4 BF.A ....
....|..|--- .... ....|--- .... ....|R-- .... ....

[Pattern31]
 A#3|..|A#2 2C.F ....|D-4 5F.F ....|G-1 2F.7 ....
....|..|--- .... ....|--- .... ....|--- .... ....
 A#3|..|A#3 2C.F ....|D-4 5F.A ....|G-1 2F.A ....
....|..|--- .... ....|--- .... ....|--- .... ....
 D-4|..|D-4 2C.F ....|--- .... ....|A#1 2F.F ....
....|..|--- .... ....|--- .... ....|R-- .... ....
 F-4|..|F-4 2C.F ....|D-4 5F.A ....|R-- .... ....
....|..|--- .... ....|--- .... ....|--- .... ....
 F-4|..|F-3 2C.F ....|D-4 5F.F ....|C-4 BF.F ....
....|..|--- .... ....|--- .... ....|R-- .... ....
 F-4|..|F-4 2C.F ....|--- .... ....|A#1 2F.A ....
....|..|--- .... ....|--- .... ....|--- .... ....
 D-4|..|D-4 2C.F ....|D-4 5F.7 ....|A#1 2F.F ....
....|..|--- .... ....|--- .... ....|--- .... ....
 A#3|..|A#3 2C.F ....|D-4 5F.F ....|C-4 BF.A ....
....|..|--- .... ....|--- .... ....|R-- .... ....
 A#3|..|A#2 2C.F ....|R-- .... ....|A#1 2F.7 ....
....|..|--- .... ....|--- .... ....|--- .... ....
 A#3|..|A#3 2C.F ....|R-- .... ....|A#1 2F.A ....
....|..|--- .... ....|--- .... ....|--- .... ....
 D-4|..|D-4 2C.F ....|D-4 5F.F ....|A#1 2F.F ....
....|..|--- .... ....|--- .... ....|R-- .... ....
 F-4|..|F-4 2C.F ....|R-- .... ....|R-- .... ....
....|..|--- .... ....|--- .... ....|--- .... ....
 A#3|..|A#3 2C.F ....|R-- .... ....|C-4 BF.F ....
....|..|--- .... ....|--- .... ....|R-- .... ....
 D-4|..|D-4 2C.F ....|D-4 5F.7 ....|A#1 2F.A ....
....|..|--- .... ....|--- .... ....|--- .... ....
 F-4|..|F-4 2C.F ....|D-4 5F.F ....|A#1 2F.F ....
....|..|--- .... ....|--- .... ....|--- .... ....
 A#3|..|A#4 2C.F ....|--- .... ....|C-4 BF.A ....
....|..|--- .... ....|--- .... ....|R-- .... ....
 C-3|..|C-3 2C.F ....|D-4 5F.7 ....|A#1 2F.7 ....
....|..|--- .... ....|--- .... ....|--- .... ....
 G-4|..|G-3 2C.F ....|C-4 5F.F ....|A#1 2F.A ....
....|..|--- .... ....|--- .... ....|--- .... ....
 F-4|..|F-4 2C.F ....|--- .... ....|C-2 2F.F ....
....|..|--- .... ....|--- .... ....|R-- .... ....
 G-4|..|G-4 2C.F ....|R-- .... ....|R-- .... ....
....|..|--- .... ....|--- .... ....|--- .... ....
 C-3|..|C-4 2C.F ....|C-4 5F.F ....|C-4 BF.F ....
....|..|--- .... ....|--- .... ....|R-- .... ....
 G-4|..|G-4 2C.F ....|--- .... ....|C-2 2F.A ....
....|..|--- .... ....|--- .... ....|--- .... ....
 F-4|..|F-4 2C.F ....|R-- .... ....|C-2 2F.F ....
....|..|--- .... ....|--- .... ....|--- .... ....
 C-3|..|C-5 2C.F ....|C-4 5F.F ....|C-4 BF.A ....
....|..|--- .... ....|--- .... ....|R-- .... ....
 G-4|..|G-3 2C.F ....|R-- .... ....|C-2 2F.7 ....
....|..|--- .... ....|--- .... ....|--- .... ....
 C-3|..|C-4 2C.F ....|R-- .... ....|C-2 2F.A ....
....|..|--- .... ....|--- .... ....|--- .... ....
 F-4|..|F-4 2C.F ....|C-4 5F.F ....|C-2 2F.F ....
....|..|--- .... ....|--- .... ....|R-- .... ....
 G-4|..|G-4 2C.F ....|R-- .... ....|R-- .... ....
....|..|--- .... ....|--- .... ....|--- .... ....
 F-4|..|F-4 2C.F ....|R-- .... ....|C-4 BF.F ....
....|..|--- .... ....|--- .... ....|R-- .... ....
 C-3|..|C-4 2C.F ....|C-4 5F.7 ....|C-2 2F.A ....
....|..|--- .... ....|--- .... ....|--- .... ....
 G-4|..|G-3 2C.F ....|C-4 5F.F ....|C-2 2F.F ....
....|..|--- .... ....|--- .... ....|--- .... ....
 C-3|..|C-3 2C.F ....|--- .... ....|C-4 BF.A ....
....|..|--- .... ....|--- .... ....|R-- .... ....

[Pattern32]
 F-4|..|F-2 2A.F ....|C-4 5F.7 ....|C-2 2F.7 ....
....|..|--- .... ....|--- .... ....|--- .... ....
 C-3|..|C-3 2C.F ....|C-4 5F.F ....|C-2 2F.A ....
....|..|--- .... ....|--- .... ....|--- .... ....
 A-3|..|A-3 2C.F ....|--- .... ....|F-1 2F.F ....
....|..|--- .... ....|--- .... ....|R-- .... ....
 C-3|..|C-4 2C.F ....|R-- .... ....|R-- .... ....
....|..|--- .... ....|--- .... ....|--- .... ....
 F-4|..|F-3 2C.F ....|C-4 5F.F ....|C-4 BF.F ....
....|..|--- .... ....|--- .... ....|R-- .... ....
 C-3|..|C-4 2C.F ....|--- .... ....|F-1 2F.A ....
....|..|--- .... ....|--- .... ....|--- .... ....
 A-3|..|A-3 2C.F ....|R-- .... ....|F-1 2F.F ....
....|..|--- .... ....|--- .... ....|--- .... ....
 F-4|..|F-4 2C.F ....|C-4 5F.F ....|C-4 BF.A ....
....|..|--- .... ....|--- .... ....|R-- .... ....
 C-3|..|C-3 2C.F ....|R-- .... ....|F-1 2F.7 ....
....|..|--- .... ....|--- .... ....|--- .... ....
 F-4|..|F-3 2C.F ....|R-- .... ....|F-1 2F.A ....
....|..|--- .... ....|--- .... ....|--- .... ....
 A-3|..|A-3 2C.F ....|C-4 5F.F ....|F-1 2F.F ....
....|..|--- .... ....|--- .... ....|R-- .... ....
 C-3|..|C-4 2C.F ....|R-- .... ....|R-- .... ....
....|..|--- .... ....|--- .... ....|--- .... ....
 A-3|..|A-3 2C.F ....|R-- .... ....|C-4 BF.F ....
....|..|--- .... ....|--- .... ....|R-- .... ....
 F-4|..|F-3 2C.F ....|C-4 5F.7 ....|F-1 2F.A ....
....|..|--- .... ....|--- .... ....|--- .... ....
 C-3|..|C-3 2C.F ....|C-4 5F.F ....|F-1 2F.F ....
....|..|--- .... ....|--- .... ....|--- .... ....
 F-4|..|F-2 2A.F ....|--- .... ....|C-4 BF.A ....
....|..|--- .... ....|--- .... ....|R-- .... ....
 A#3|..|A#2 2C.F ....|C-4 5F.7 ....|F-1 2F.7 ....
....|..|--- .... ....|--- .... ....|--- .... ....
 A#3|..|A#3 2C.F ....|A#3 5F.F ....|F-1 2F.A ....
....|..|--- .... ....|--- .... ....|--- .... ....
 D-4|..|D-4 2C.F ....|--- .... ....|A#1 2F.F ....
....|..|--- .... ....|--- .... ....|R-- .... ....
 F-4|..|F-4 2C.F ....|R-- .... ....|R-- .... ....
....|..|--- .... ....|--- .... ....|--- .... ....
 F-4|..|F-3 2C.F ....|A#3 5F.F ....|C-4 BF.F ....
....|..|--- .... ....|--- .... ....|R-- .... ....
 F-4|..|F-4 2C.F ....|--- .... ....|A#1 2F.A ....
....|..|--- .... ....|--- .... ....|--- .... ....
 D-4|..|D-4 2C.F ....|R-- .... ....|A#1 2F.F ....
....|..|--- .... ....|--- .... ....|--- .... ....
 A#3|..|A#3 2C.F ....|A#3 5F.F ....|C-4 BF.A ....
....|..|--- .... ....|--- .... ....|R-- .... ....
 A#3|..|A#2 2C.F ....|R-- .... ....|A#1 2F.7 ....
....|..|--- .... ....|--- .... ....|--- .... ....
 A#3|..|A#3 2C.F ....|R-- .... ....|A#1 2F.A ....
....|..|--- .... ....|--- .... ....|--- .... ....
 D-4|..|D-4 2C.F ....|A#3 5F.F ....|A#1 2F.F ....
....|..|--- .... ....|--- .... ....|R-- .... ....
 F-4|..|F-4 2C.F ....|R-- .... ....|R-- .... ....
....|..|--- .... ....|--- .... ....|--- .... ....
 A#3|..|A#3 2C.F ....|R-- .... ....|C-4 BF.F ....
....|..|--- .... ....|--- .... ....|R-- .... ....
 D-4|..|D-4 2C.F ....|A#3 5F.7 ....|A#1 2F.A ....
....|..|--- .... ....|--- .... ....|--- .... ....
 F-4|..|F-4 2C.F ....|A#3 5F.F ....|A#1 2F.F ....
....|..|--- .... ....|--- .... ....|--- .... ....
 A#3|..|A#4 2C.F ....|--- .... ....|C-4 BF.A ....
....|..|--- .... ....|--- .... ....|R-- .... ....

[Pattern33]
 G-4|..|G-2 2A.F ....|A#3 5F.7 ....|A#1 2F.7 ....
....|..|--- .... ....|--- .... ....|--- .... ....
 D-4|..|D-3 2C.F ....|G-3 5F.F ....|A#1 2F.A ....
....|..|--- .... ....|--- .... ....|--- .... ....
 C-3|..|C-4 2C.F ....|--- .... ....|G-1 2F.F ....
....|..|--- .... ....|--- .... ....|R-- .... ....
 D-4|..|D-4 2C.F ....|R-- .... ....|R-- .... ....
....|..|--- .... ....|--- .... ....|--- .... ....
 G-4|..|G-3 2C.F ....|G-3 5F.F ....|C-4 BF.F ....
....|..|--- .... ....|--- .... ....|R-- .... ....
 D-4|..|D-4 2C.F ....|--- .... ....|G-1 2F.A ....
....|..|--- .... ....|--- .... ....|--- .... ....
 C-3|..|C-4 2C.F ....|R-- .... ....|G-1 2F.F ....
....|..|--- .... ....|--- .... ....|--- .... ....
 G-4|..|G-4 2C.F ....|G-3 5F.F ....|C-4 BF.A ....
....|..|--- .... ....|--- .... ....|R-- .... ....
 D-4|..|D-3 2C.F ....|R-- .... ....|G-1 2F.7 ....
....|..|--- .... ....|--- .... ....|--- .... ....
 G-4|..|G-3 2C.F ....|R-- .... ....|G-1 2F.A ....
....|..|--- .... ....|--- .... ....|--- .... ....
 C-3|..|C-4 2C.F ....|G-3 5F.F ....|G-1 2F.F ....
....|..|--- .... ....|--- .... ....|R-- .... ....
 D-4|..|D-4 2C.F ....|R-- .... ....|R-- .... ....
....|..|--- .... ....|--- .... ....|--- .... ....
 C-3|..|C-4 2C.F ....|R-- .... ....|C-4 BF.F ....
....|..|--- .... ....|--- .... ....|R-- .... ....
 G-4|..|G-3 2C.F ....|G-3 5F.7 ....|G-1 2F.A ....
....|..|--- .... ....|--- .... ....|--- .... ....
 D-4|..|D-3 2C.F ....|G-3 5F.F ....|G-1 2F.F ....
....|..|--- .... ....|--- .... ....|--- .... ....
 G-4|..|G-2 2A.F ....|--- .... ....|C-4 BF.A ....
....|..|--- .... ....|--- .... ....|R-- .... ....
 A-3|..|A-2 2C.F ....|A-3 5F.F ....|G-1 2F.7 ....
....|..|--- .... ....|--- .... ....|--- .... ....
 A-3|..|A-3 2C.F ....|G-3 5F.A ....|G-1 2F.A ....
....|..|--- .... ....|--- .... ....|--- .... ....
 C-3|..|C-4 2C.F ....|R-- .... ....|A-1 2F.F ....
....|..|--- .... ....|--- .... ....|R-- .... ....
 A-3|..|A-4 2C.F ....|A-3 5F.F ....|R-- .... ....
....|..|--- .... ....|--- .... ....|--- .... ....
 E-4|..|E-3 2C.F ....|G-3 5F.7 ....|C-4 BF.F ....
....|..|--- .... ....|--- .... ....|R-- .... ....
 A-3|..|A-4 2C.F ....|R-- .... ....|A-1 2F.A ....
....|..|--- .... ....|--- .... ....|--- .... ....
 E-4|..|E-4 2C.F ....|A-3 5F.F ....|A-1 2F.F ....
....|..|--- .... ....|--- .... ....|--- .... ....
 A-3|..|A-3 2C.F ....|--- .... ....|C-4 BF.A ....
....|..|--- .... ....|--- .... ....|R-- .... ....
 C-3|..|C-3 2C.F ....|C-4 5F.F ....|A-1 2F.7 ....
....|..|--- .... ....|--- .... ....|--- .... ....
 C-3|..|C-4 2C.F ....|A-3 5F.7 ....|A-1 2F.A ....
....|..|--- .... ....|--- .... ....|--- .... ....
 E-4|..|E-4 2C.F ....|R-- .... ....|C-2 2F.F ....
....|..|--- .... ....|--- .... ....|R-- .... ....
 G-4|..|G-4 2C.F ....|C-4 5F.F ....|R-- .... ....
....|..|--- .... ....|--- .... ....|--- .... ....
 C-3|..|C-4 2C.F ....|A-3 5F.7 ....|C-4 BF.F ....
....|..|--- .... ....|--- .... ....|R-- .... ....
 E-4|..|E-4 2C.F ....|R-- .... ....|C-2 2F.A ....
....|..|--- .... ....|--- .... ....|--- .... ....
 G-4|..|G-4 2C.F ....|C-4 5F.F ....|C-2 2F.F ....
....|..|--- .... ....|--- .... ....|--- .... ....
 C-3|..|C-5 2C.F ....|--- .... ....|C-4 BF.A ....
....|..|--- .... ....|--- .... ....|R-- .... ....

[Pattern34]
 D-4|..|D-3 2C.F ....|R-- .... ....|C-2 2F.7 ....
....|..|--- .... ....|--- .... ....|--- .... ....
 D-4|..|D-4 2C.F ....|D-4 5F.F ....|C-2 2F.A ....
....|..|--- .... ....|--- .... ....|--- .... ....
 G-4|..|G-4 2C.F ....|--- .... ....|D-2 2F.F ....
....|..|--- .... ....|--- .... ....|R-- .... ....
 A-3|..|A-4 2C.F ....|R-- .... ....|R-- .... ....
....|..|--- .... ....|--- .... ....|--- .... ....
 A-3|..|A-3 2C.F ....|D-4 5F.F ....|C-4 BF.F ....
....|..|--- .... ....|--- .... ....|R-- .... ....
 A-3|..|A-4 2C.F ....|--- .... ....|D-2 2F.A ....
....|..|--- .... ....|--- .... ....|--- .... ....
 G-4|..|G-4 2C.F ....|R-- .... ....|D-2 2F.F ....
....|..|--- .... ....|--- .... ....|--- .... ....
 D-4|..|D-4 2C.F ....|D-4 5F.F ....|C-4 BF.A ....
....|..|--- .... ....|--- .... ....|R-- .... ....
 D-4|..|D-3 2C.F ....|R-- .... ....|D-2 2F.7 ....
....|..|--- .... ....|--- .... ....|--- .... ....
 D-4|..|D-4 2C.F ....|R-- .... ....|D-2 2F.A ....
....|..|--- .... ....|--- .... ....|--- .... ....
 G-4|..|G-4 2C.F ....|D-4 5F.F ....|D-2 2F.F ....
....|..|--- .... ....|--- .... ....|R-- .... ....
 A-3|..|A-4 2C.F ....|R-- .... ....|R-- .... ....
....|..|--- .... ....|--- .... ....|--- .... ....
 D-4|..|D-4 2C.F ....|R-- .... ....|C-4 BF.F ....
....|..|--- .... ....|--- .... ....|R-- .... ....
 G-4|..|G-4 2C.F ....|D-4 5F.7 ....|D-2 2F.A ....
....|..|--- .... ....|--- .... ....|--- .... ....
 A-3|..|A-4 2C.F ....|D-4 5F.F ....|D-2 2F.F ....
....|..|--- .... ....|--- .... ....|--- .... ....
 D-4|..|D-5 2C.F ....|--- .... ....|C-4 BF.A ....
....|..|--- .... ....|--- .... ....|R-- .... ....
 G-4|..|G-2 2A.F ....|D-4 5F.7 ....|D-2 2F.7 ....
....|..|--- .... ....|--- .... ....|--- .... ....
 D-4|..|D-3 2C.F ....|G-3 5F.F ....|D-2 2F.A ....
....|..|--- .... ....|--- .... ....|--- .... ....
 C-3|..|C-4 2C.F ....|--- .... ....|G-1 2F.F ....
....|..|--- .... ....|--- .... ....|R-- .... ....
 D-4|..|D-4 2C.F ....|R-- .... ....|R-- .... ....
....|..|--- .... ....|--- .... ....|--- .... ....
 G-4|..|G-3 2C.F ....|G-3 5F.F ....|C-4 BF.F ....
....|..|--- .... ....|--- .... ....|R-- .... ....
 D-4|..|D-4 2C.F ....|--- .... ....|G-1 2F.A ....
....|..|--- .... ....|--- .... ....|--- .... ....
 C-3|..|C-4 2C.F ....|R-- .... ....|G-1 2F.F ....
....|..|--- .... ....|--- .... ....|--- .... ....
 G-4|..|G-4 2C.F ....|G-3 5F.F ....|C-4 BF.A ....
....|..|--- .... ....|--- .... ....|R-- .... ....
 D-4|..|D-3 2C.F ....|R-- .... ....|G-1 2F.7 ....
....|..|--- .... ....|--- .... ....|--- .... ....
 G-4|..|G-3 2C.F ....|R-- .... ....|G-1 2F.A ....
....|..|--- .... ....|--- .... ....|--- .... ....
 C-3|..|C-4 2C.F ....|G-3 5F.F ....|G-1 2F.F ....
....|..|--- .... ....|--- .... ....|R-- .... ....
 D-4|..|D-4 2C.F ....|R-- .... ....|R-- .... ....
....|..|--- .... ....|--- .... ....|--- .... ....
 C-3|..|C-4 2C.F ....|R-- .... ....|C-4 BF.F ....
....|..|--- .... ....|--- .... ....|R-- .... ....
 G-4|..|G-3 2C.F ....|G-3 5F.7 ....|G-1 2F.A ....
....|..|--- .... ....|--- .... ....|--- .... ....
 C-3|..|C-4 2C.F ....|G-3 5F.F ....|G-1 2F.F ....
....|..|--- .... ....|--- .... ....|--- .... ....
 G-4|..|G-4 2C.F ....|--- .... ....|C-4 BF.A ....
....|..|--- .... ....|--- .... ....|R-- .... ....

[Pattern35]
 A#3|..|A#2 2C.F ....|G-3 5F.7 ....|G-1 2F.7 ....
....|..|--- .... ....|--- .... ....|--- .... ....
 A#3|..|A#3 2C.F ....|A#3 5F.F ....|G-1 2F.A ....
....|..|--- .... ....|--- .... ....|--- .... ....
 D-4|..|D-4 2C.F ....|--- .... ....|A#1 2F.F ....
....|..|--- .... ....|--- .... ....|R-- .... ....
 F-4|..|F-4 2C.F ....|R-- .... ....|R-- .... ....
....|..|--- .... ....|--- .... ....|--- .... ....
 F-4|..|F-3 2C.F ....|A#3 5F.F ....|C-4 BF.F ....
....|..|--- .... ....|--- .... ....|R-- .... ....
 F-4|..|F-4 2C.F ....|--- .... ....|A#1 2F.A ....
....|..|--- .... ....|--- .... ....|--- .... ....
 D-4|..|D-4 2C.F ....|R-- .... ....|A#1 2F.F ....
....|..|--- .... ....|--- .... ....|--- .... ....
 A#3|..|A#3 2C.F ....|A#3 5F.F ....|C-4 BF.A ....
....|..|--- .... ....|--- .... ....|R-- .... ....
 A#3|..|A#2 2C.F ....|R-- .... ....|A#1 2F.7 ....
....|..|--- .... ....|--- .... ....|--- .... ....
 A#3|..|A#3 2C.F ....|R-- .... ....|A#1 2F.A ....
....|..|--- .... ....|--- .... ....|--- .... ....
 D-4|..|D-4 2C.F ....|A#3 5F.F ....|A#1 2F.F ....
....|..|--- .... ....|--- .... ....|R-- .... ....
 F-4|..|F-4 2C.F ....|R-- .... ....|R-- .... ....
....|..|--- .... ....|--- .... ....|--- .... ....
 A#3|..|A#3 2C.F ....|R-- .... ....|C-4 BF.F ....
....|..|--- .... ....|--- .... ....|R-- .... ....
 D-4|..|D-4 2C.F ....|A#3 5F.7 ....|A#1 2F.A ....
....|..|--- .... ....|--- .... ....|--- .... ....
 F-4|..|F-4 2C.F ....|A#3 5F.F ....|A#1 2F.F ....
....|..|--- .... ....|--- .... ....|--- .... ....
 A#3|..|A#4 2C.F ....|--- .... ....|C-4 BF.A ....
....|..|--- .... ....|--- .... ....|R-- .... ....
 C-3|..|C-3 2C.F ....|A#3 5F.7 ....|C-3 2C.F ....
....|..|--- .... ....|--- .... ....|--- .... ....
 G-4|..|G-3 2C.F ....|C-4 5F.F ....|A#1 2F.A ....
....|..|--- .... ....|--- .... ....|--- .... ....
 F-4|..|F-4 2C.F ....|--- .... ....|C-4 BF.7 ....
....|..|--- .... ....|--- .... ....|R-- .... ....
 G-4|..|G-4 2C.F ....|R-- .... ....|C-2 2F.A ....
....|..|--- .... ....|--- .... ....|--- .... ....
 C-3|..|C-4 2C.F ....|C-4 5F.F ....|C-4 BF.F ....
....|..|--- .... ....|--- .... ....|R-- .... ....
 G-4|..|G-4 2C.F ....|--- .... ....|--- .... ....
....|..|--- .... ....|--- .... ....|--- .... ....
 F-4|..|F-4 2C.F ....|R-- .... ....|C-2 2F.F ....
....|..|--- .... ....|--- .... ....|--- .... ....
 C-3|..|C-5 2C.F ....|C-4 5F.F ....|C-4 BF.A ....
....|..|--- .... ....|--- .... ....|R-- .... ....
 G-4|..|G-3 2C.F ....|R-- .... ....|C-2 2F.F ....
....|..|--- .... ....|--- .... ....|--- .... ....
 C-3|..|C-4 2C.F ....|R-- .... ....|C-2 2F.A ....
....|..|--- .... ....|--- .... ....|--- .... ....
 F-4|..|F-4 2C.F ....|C-4 5F.F ....|R-- .... ....
....|..|--- .... ....|--- .... ....|R-- .... ....
 G-4|..|G-4 2C.F ....|R-- .... ....|C-2 2F.F ....
....|..|--- .... ....|--- .... ....|--- .... ....
 F-4|..|F-4 2C.F ....|R-- .... ....|C-4 BF.F ....
....|..|--- .... ....|--- .... ....|R-- .... ....
 C-3|..|C-4 2C.F ....|C-4 5F.7 ....|R-- .... ....
....|..|--- .... ....|--- .... ....|--- .... ....
 G-4|..|G-3 2C.F ....|C-4 5F.F ....|C-2 2F.F ....
....|..|--- .... ....|--- .... ....|--- .... ....
 C-3|..|C-3 2C.F ....|C-4 5F.F ....|C-4 BF.A ....
....|..|--- .... ....|--- .... ....|R-- .... ....

[Pattern36]
 C-4|..|F-4 2F.7 ....|C-4 5F.7 ....|C-2 2A.F ....
....|..|--- .... ....|--- .... ....|--- .... ....
....|..|G-4 2F.7 ....|C-4 5F.A ....|C-2 2F.7 ....
....|..|--- .... ....|--- .... ....|--- .... ....
....|..|F-4 2F.7 ....|C-4 5F.A ....|R-- .... ....
....|..|--- .... ....|--- .... ....|R-- .... ....
....|..|C-4 2F.7 ....|R-- .... ....|C-2 2F.A ....
....|..|--- .... ....|--- .... ....|--- .... ....
....|..|G-3 2F.7 ....|C-4 5F.7 ....|C-2 2F.7 ....
....|..|--- .... ....|--- .... ....|--- .... ....
....|..|C-3 2F.7 ....|C-4 5F.7 ....|R-- .... ....
....|..|--- .... ....|--- .... ....|--- .... ....
....|..|R-- .... ....|R-- .... ....|C-2 2F.7 ....
....|..|--- .... ....|--- .... ....|--- .... ....
....|..|--- .... ....|--- .... ....|R-- .... ....
....|..|--- .... ....|--- .... ....|--- .... ....
....|..|--- .... ....|--- .... ....|--- .... ....
....|..|--- .... ....|--- .... ....|--- .... ....
....|..|--- .... ....|--- .... ....|--- .... ....
....|..|--- .... ....|--- .... ....|--- .... ....
....|..|--- .... ....|--- .... ....|--- .... ....
....|..|--- .... ....|--- .... ....|--- .... ....
....|..|--- .... ....|--- .... ....|--- .... ....
....|..|--- .... ....|--- .... ....|--- .... ....
....|..|--- .... ....|--- .... ....|--- .... ....
....|..|--- .... ....|--- .... ....|--- .... ....
....|..|--- .... ....|--- .... ....|--- .... ....
....|..|--- .... ....|--- .... ....|--- .... ....
....|..|--- .... ....|--- .... ....|--- .... ....
....|..|--- .... ....|--- .... ....|--- .... ....
....|..|--- .... ....|--- .... ....|--- .... ....
....|..|--- .... ....|--- .... ....|--- .... ....
 D-4|..|D-4 2C.F ....|D-4 5F.F ....|--- .... ....
....|..|R-- .... ....|--- .... ....|--- .... ....
 D-4|..|D-4 2C.F ....|--- .... ....|--- .... ....
....|..|R-- .... ....|--- .... ....|--- .... ....
 D-4|..|D-4 2C.F ....|--- .... ....|D-3 2C.F ....
....|..|R-- .... ....|--- .... ....|--- .... ....
 D-4|..|D-4 2C.F ....|D-4 5F.A ....|--- .... ....
....|..|R-- .... ....|--- .... ....|--- .... ....
 D-4|..|D-4 2C.F ....|D-4 5F.F ....|C-4 BF.F ....
....|..|R-- .... ....|--- .... ....|R-- .... ....
 D-4|..|D-4 2C.F ....|--- .... ....|D-2 2F.A ....
....|..|R-- .... ....|--- .... ....|--- .... ....
 D-4|..|D-4 2C.F ....|D-4 5F.7 ....|D-3 2C.F ....
....|..|R-- .... ....|--- .... ....|--- .... ....
 D-4|..|D-4 2C.F ....|D-4 5F.F ....|C-4 BF.A ....
....|..|R-- .... ....|--- .... ....|R-- .... ....
 D-4|..|D-4 2C.F ....|R-- .... ....|D-2 2F.7 ....
....|..|R-- .... ....|--- .... ....|--- .... ....
 D-4|..|D-4 2C.F ....|R-- .... ....|D-2 2F.A ....
....|..|R-- .... ....|--- .... ....|--- .... ....
 D-4|..|D-4 2C.F ....|D-4 5F.F ....|D-3 2C.F ....
....|..|R-- .... ....|--- .... ....|R-- .... ....
 D-4|..|D-4 2C.F ....|R-- .... ....|R-- .... ....
....|..|R-- .... ....|--- .... ....|--- .... ....
 D-4|..|D-4 2C.F ....|R-- .... ....|C-4 BF.F ....
....|..|R-- .... ....|--- .... ....|R-- .... ....
 D-4|..|D-4 2C.F ....|D-4 5F.7 ....|D-2 2F.A ....
....|..|R-- .... ....|--- .... ....|--- .... ....
 D-4|..|D-4 2C.F ....|D-4 5F.F ....|D-3 2C.F ....
....|..|R-- .... ....|--- .... ....|--- .... ....
 D-4|..|D-4 2C.F ....|--- .... ....|C-4 BF.A ....
....|..|R-- .... ....|--- .... ....|R-- .... ....

[Pattern37]
 A#3|..|A#3 2C.F ....|D-4 5F.7 ....|D-2 2F.7 ....
....|..|R-- .... ....|--- .... ....|--- .... ....
 A#3|..|A#3 2C.F ....|A#3 5F.F ....|D-2 2F.A ....
....|..|R-- .... ....|--- .... ....|--- .... ....
 A#3|..|A#3 2C.F ....|--- .... ....|A#2 2C.F ....
....|..|R-- .... ....|--- .... ....|R-- .... ....
 A#3|..|A#3 2C.F ....|R-- .... ....|R-- .... ....
....|..|R-- .... ....|--- .... ....|--- .... ....
 A#3|..|A#3 2C.F ....|A#3 5F.F ....|C-4 BF.F ....
....|..|R-- .... ....|--- .... ....|R-- .... ....
 A#3|..|A#3 2C.F ....|--- .... ....|A#1 2F.A ....
....|..|R-- .... ....|--- .... ....|--- .... ....
 A#3|..|A#3 2C.F ....|R-- .... ....|A#2 2C.F ....
....|..|R-- .... ....|--- .... ....|--- .... ....
 A#3|..|A#3 2C.F ....|A#3 5F.F ....|C-4 BF.A ....
....|..|R-- .... ....|--- .... ....|R-- .... ....
 A#3|..|A#3 2C.F ....|R-- .... ....|A#1 2F.7 ....
....|..|R-- .... ....|--- .... ....|--- .... ....
 A#3|..|A#3 2C.F ....|R-- .... ....|A#1 2F.A ....
....|..|R-- .... ....|--- .... ....|--- .... ....
 A#3|..|A#3 2C.F ....|A#3 5F.F ....|A#2 2C.F ....
....|..|R-- .... ....|--- .... ....|R-- .... ....
 A#3|..|A#3 2C.F ....|R-- .... ....|R-- .... ....
....|..|R-- .... ....|--- .... ....|--- .... ....
 A#3|..|A#3 2C.F ....|R-- .... ....|C-4 BF.F ....
....|..|R-- .... ....|--- .... ....|R-- .... ....
 A#3|..|A#3 2C.F ....|A#3 5F.7 ....|A#1 2F.A ....
....|..|R-- .... ....|--- .... ....|--- .... ....
 A#3|..|A#3 2C.F ....|A#3 5F.F ....|A#2 2C.F ....
....|..|R-- .... ....|--- .... ....|--- .... ....
 A#3|..|A#3 2C.F ....|--- .... ....|C-4 BF.A ....
....|..|R-- .... ....|--- .... ....|R-- .... ....
 G-4|..|G-3 2C.F ....|G-3 5F.F ....|A#1 2F.7 ....
....|..|R-- .... ....|--- .... ....|--- .... ....
 G-4|..|G-3 2C.F ....|A#3 5F.A ....|A#1 2F.A ....
....|..|R-- .... ....|--- .... ....|--- .... ....
 G-4|..|G-3 2C.F ....|--- .... ....|G-2 2A.F ....
....|..|R-- .... ....|--- .... ....|R-- .... ....
 G-4|..|G-3 2C.F ....|G-3 5F.A ....|R-- .... ....
....|..|R-- .... ....|--- .... ....|--- .... ....
 G-4|..|G-3 2C.F ....|G-3 5F.F ....|C-4 BF.F ....
....|..|R-- .... ....|--- .... ....|R-- .... ....
 G-4|..|G-3 2C.F ....|--- .... ....|G-1 2F.A ....
....|..|R-- .... ....|--- .... ....|--- .... ....
 G-4|..|G-3 2C.F ....|G-3 5F.7 ....|G-2 2A.F ....
....|..|R-- .... ....|--- .... ....|--- .... ....
 G-4|..|G-3 2C.F ....|G-3 5F.F ....|C-4 BF.A ....
....|..|R-- .... ....|--- .... ....|R-- .... ....
 G-4|..|G-3 2C.F ....|R-- .... ....|G-1 2F.7 ....
....|..|R-- .... ....|--- .... ....|--- .... ....
 G-4|..|G-3 2C.F ....|R-- .... ....|G-1 2F.A ....
....|..|R-- .... ....|--- .... ....|--- .... ....
 G-4|..|G-3 2C.F ....|G-3 5F.F ....|G-2 2A.F ....
....|..|R-- .... ....|--- .... ....|R-- .... ....
 G-4|..|G-3 2C.F ....|R-- .... ....|R-- .... ....
....|..|R-- .... ....|--- .... ....|--- .... ....
 G-4|..|G-3 2C.F ....|R-- .... ....|C-4 BF.F ....
....|..|R-- .... ....|--- .... ....|R-- .... ....
 G-4|..|G-3 2C.F ....|G-3 5F.7 ....|G-1 2F.A ....
....|..|R-- .... ....|--- .... ....|--- .... ....
 G-4|..|G-3 2C.F ....|G-3 5F.F ....|G-2 2A.F ....
....|..|R-- .... ....|--- .... ....|--- .... ....
 G-4|..|G-3 2C.F ....|--- .... ....|C-4 BF.A ....
....|..|R-- .... ....|--- .... ....|R-- .... ....

[Pattern38]
 C-3|..|C-4 2C.F ....|G-3 5F.7 ....|G-1 2F.7 ....
....|..|R-- .... ....|--- .... ....|--- .... ....
 C-3|..|C-4 2C.F ....|A-3 5F.F ....|G-1 2F.A ....
....|..|R-- .... ....|--- .... ....|--- .... ....
 C-3|..|C-4 2C.F ....|--- .... ....|C-3 2C.F ....
....|..|R-- .... ....|--- .... ....|R-- .... ....
 C-3|..|C-4 2C.F ....|R-- .... ....|R-- .... ....
....|..|R-- .... ....|--- .... ....|--- .... ....
 C-3|..|C-4 2C.F ....|A-3 5F.F ....|C-4 BF.F ....
....|..|R-- .... ....|--- .... ....|R-- .... ....
 C-3|..|C-4 2C.F ....|--- .... ....|C-2 2F.A ....
....|..|R-- .... ....|--- .... ....|--- .... ....
 C-3|..|C-4 2C.F ....|R-- .... ....|C-3 2C.F ....
....|..|R-- .... ....|--- .... ....|--- .... ....
 C-3|..|C-4 2C.F ....|A-3 5F.F ....|C-4 BF.A ....
....|..|R-- .... ....|--- .... ....|R-- .... ....
 C-3|..|C-4 2C.F ....|R-- .... ....|C-2 2F.7 ....
....|..|R-- .... ....|--- .... ....|--- .... ....
 C-3|..|C-4 2C.F ....|R-- .... ....|C-2 2F.A ....
....|..|R-- .... ....|--- .... ....|--- .... ....
 C-3|..|C-4 2C.F ....|A-3 5F.F ....|C-3 2C.F ....
....|..|R-- .... ....|--- .... ....|R-- .... ....
 C-3|..|C-4 2C.F ....|R-- .... ....|R-- .... ....
....|..|R-- .... ....|--- .... ....|--- .... ....
 C-3|..|C-4 2C.F ....|R-- .... ....|C-4 BF.F ....
....|..|R-- .... ....|--- .... ....|R-- .... ....
 C-3|..|C-4 2C.F ....|A-3 5F.7 ....|C-2 2F.A ....
....|..|R-- .... ....|--- .... ....|--- .... ....
 C-3|..|C-4 2C.F ....|A-3 5F.F ....|C-3 2C.F ....
....|..|R-- .... ....|--- .... ....|--- .... ....
 C-3|..|C-4 2C.F ....|--- .... ....|C-4 BF.A ....
....|..|R-- .... ....|--- .... ....|R-- .... ....
 D-4|..|D-4 2C.F ....|D-4 5F.F ....|C-2 2F.7 ....
....|..|R-- .... ....|--- .... ....|--- .... ....
 D-4|..|D-4 2C.F ....|A-3 5F.A ....|C-2 2F.A ....
....|..|R-- .... ....|--- .... ....|--- .... ....
 D-4|..|D-4 2C.F ....|--- .... ....|D-3 2C.F ....
....|..|R-- .... ....|--- .... ....|R-- .... ....
 D-4|..|D-4 2C.F ....|D-4 5F.A ....|R-- .... ....
....|..|R-- .... ....|--- .... ....|--- .... ....
 D-4|..|D-4 2C.F ....|D-4 5F.F ....|C-4 BF.F ....
....|..|R-- .... ....|--- .... ....|R-- .... ....
 D-4|..|D-4 2C.F ....|--- .... ....|D-2 2F.A ....
....|..|R-- .... ....|--- .... ....|--- .... ....
 D-4|..|D-4 2C.F ....|D-4 5F.7 ....|D-3 2C.F ....
....|..|R-- .... ....|--- .... ....|--- .... ....
 D-4|..|D-4 2C.F ....|D-4 5F.F ....|C-4 BF.A ....
....|..|R-- .... ....|--- .... ....|R-- .... ....
 D-4|..|D-4 2C.F ....|R-- .... ....|D-2 2F.7 ....
....|..|R-- .... ....|--- .... ....|--- .... ....
 D-4|..|D-4 2C.F ....|R-- .... ....|D-2 2F.A ....
....|..|R-- .... ....|--- .... ....|--- .... ....
 D-4|..|D-4 2C.F ....|D-4 5F.F ....|D-3 2C.F ....
....|..|R-- .... ....|--- .... ....|R-- .... ....
 D-4|..|D-4 2C.F ....|R-- .... ....|R-- .... ....
....|..|R-- .... ....|--- .... ....|--- .... ....
 D-4|..|D-4 2C.F ....|R-- .... ....|C-4 BF.F ....
....|..|R-- .... ....|--- .... ....|R-- .... ....
 D-4|..|D-4 2C.F ....|D-4 5F.7 ....|D-2 2F.A ....
....|..|R-- .... ....|--- .... ....|--- .... ....
 D-4|..|D-4 2C.F ....|D-4 5F.F ....|D-3 2C.F ....
....|..|R-- .... ....|--- .... ....|--- .... ....
 D-4|..|D-4 2C.F ....|--- .... ....|C-4 BF.A ....
....|..|R-- .... ....|--- .... ....|R-- .... ....

[Pattern40]
 C-3|..|C-4 2C.F ....|G-3 5F.7 ....|G-1 2F.7 ....
....|..|R-- .... ....|--- .... ....|--- .... ....
 C-3|..|C-4 2C.F ....|C-4 5F.F ....|G-1 2F.A ....
....|..|R-- .... ....|--- .... ....|--- .... ....
 C-3|..|C-4 2C.F ....|--- .... ....|C-3 2C.F ....
....|..|R-- .... ....|--- .... ....|R-- .... ....
 C-3|..|C-4 2C.F ....|R-- .... ....|R-- .... ....
....|..|R-- .... ....|--- .... ....|--- .... ....
 C-3|..|C-4 2C.F ....|C-4 5F.F ....|C-4 BF.F ....
....|..|R-- .... ....|--- .... ....|R-- .... ....
 C-3|..|C-4 2C.F ....|--- .... ....|C-2 2F.A ....
....|..|R-- .... ....|--- .... ....|--- .... ....
 C-3|..|C-4 2C.F ....|R-- .... ....|C-3 2C.F ....
....|..|R-- .... ....|--- .... ....|--- .... ....
 C-3|..|C-4 2C.F ....|C-4 5F.F ....|C-4 BF.A ....
....|..|R-- .... ....|--- .... ....|R-- .... ....
 C-3|..|C-4 2C.F ....|R-- .... ....|C-2 2F.7 ....
....|..|R-- .... ....|--- .... ....|--- .... ....
 C-3|..|C-4 2C.F ....|R-- .... ....|C-2 2F.A ....
....|..|R-- .... ....|--- .... ....|--- .... ....
 C-3|..|C-4 2C.F ....|C-4 5F.F ....|C-3 2C.F ....
....|..|R-- .... ....|--- .... ....|R-- .... ....
 C-3|..|C-4 2C.F ....|R-- .... ....|R-- .... ....
....|..|R-- .... ....|--- .... ....|--- .... ....
 C-3|..|C-4 2C.F ....|R-- .... ....|C-4 BF.F ....
....|..|R-- .... ....|--- .... ....|R-- .... ....
 C-3|..|C-4 2C.F ....|C-4 5F.7 ....|C-2 2F.A ....
....|..|R-- .... ....|--- .... ....|--- .... ....
 C-3|..|C-4 2C.F ....|C-4 5F.F ....|C-3 2C.F ....
....|..|R-- .... ....|--- .... ....|--- .... ....
 C-3|..|C-4 2C.F ....|--- .... ....|C-4 BF.A ....
....|..|R-- .... ....|--- .... ....|R-- .... ....
 D-4|..|D-4 2C.F ....|D-4 5F.F ....|C-2 2F.7 ....
....|..|R-- .... ....|--- .... ....|--- .... ....
 D-4|..|D-4 2C.F ....|C-4 5F.A ....|C-2 2F.A ....
....|..|R-- .... ....|--- .... ....|--- .... ....
 D-4|..|D-4 2C.F ....|--- .... ....|D-3 2C.F ....
....|..|R-- .... ....|--- .... ....|R-- .... ....
 D-4|..|D-4 2C.F ....|D-4 5F.A ....|R-- .... ....
....|..|R-- .... ....|--- .... ....|--- .... ....
 D-4|..|D-4 2C.F ....|D-4 5F.F ....|C-4 BF.F ....
....|..|R-- .... ....|--- .... ....|R-- .... ....
 D-4|..|D-4 2C.F ....|--- .... ....|D-2 2F.A ....
....|..|R-- .... ....|--- .... ....|--- .... ....
 D-4|..|D-4 2C.F ....|D-4 5F.7 ....|D-3 2C.F ....
....|..|R-- .... ....|--- .... ....|--- .... ....
 D-4|..|D-4 2C.F ....|D-4 5F.F ....|C-4 BF.A ....
....|..|R-- .... ....|--- .... ....|R-- .... ....
 D-4|..|D-4 2C.F ....|R-- .... ....|D-2 2F.7 ....
....|..|R-- .... ....|--- .... ....|--- .... ....
 D-4|..|D-4 2C.F ....|R-- .... ....|D-2 2F.A ....
....|..|R-- .... ....|--- .... ....|--- .... ....
 D-4|..|D-4 2C.F ....|D-4 5F.F ....|D-3 2C.F ....
....|..|R-- .... ....|--- .... ....|R-- .... ....
 D-4|..|D-4 2C.F ....|R-- .... ....|R-- .... ....
....|..|R-- .... ....|--- .... ....|--- .... ....
 D-4|..|D-4 2C.F ....|R-- .... ....|C-4 BF.F ....
....|..|R-- .... ....|--- .... ....|R-- .... ....
 D-4|..|D-4 2C.F ....|D-4 5F.7 ....|D-2 2F.A ....
....|..|R-- .... ....|--- .... ....|--- .... ....
 D-4|..|D-4 2C.F ....|D-4 5F.F ....|D-3 2C.F ....
....|..|R-- .... ....|--- .... ....|--- .... ....
 D-4|..|D-4 2C.F ....|--- .... ....|C-4 BF.A ....
....|..|R-- .... ....|--- .... ....|R-- .... ....

[Pattern44]
 C-3|..|C-4 2C.F ....|G-3 5F.7 ....|G-1 2F.7 ....
....|..|R-- .... ....|--- .... ....|--- .... ....
 C-3|..|C-4 2C.F ....|C-4 5F.F ....|G-1 2F.A ....
....|..|R-- .... ....|--- .... ....|--- .... ....
 C-3|..|C-4 2C.F ....|--- .... ....|C-3 2C.F ....
....|..|R-- .... ....|--- .... ....|R-- .... ....
 C-3|..|C-4 2C.F ....|R-- .... ....|R-- .... ....
....|..|R-- .... ....|--- .... ....|--- .... ....
 C-3|..|C-4 2C.F ....|C-4 5F.F ....|C-4 BF.F ....
....|..|R-- .... ....|--- .... ....|R-- .... ....
 C-3|..|C-4 2C.F ....|--- .... ....|C-2 2F.A ....
....|..|R-- .... ....|--- .... ....|--- .... ....
 C-3|..|C-4 2C.F ....|R-- .... ....|C-3 2C.F ....
....|..|R-- .... ....|--- .... ....|--- .... ....
 C-3|..|C-4 2C.F ....|C-4 5F.F ....|C-4 BF.A ....
....|..|R-- .... ....|--- .... ....|R-- .... ....
 C-3|..|C-4 2C.F ....|R-- .... ....|C-2 2F.7 ....
....|..|R-- .... ....|--- .... ....|--- .... ....
 C-3|..|C-4 2C.F ....|R-- .... ....|C-2 2F.A ....
....|..|R-- .... ....|--- .... ....|--- .... ....
 C-3|..|C-4 2C.F ....|C-4 5F.F ....|C-3 2C.F ....
....|..|R-- .... ....|--- .... ....|R-- .... ....
 C-3|..|C-4 2C.F ....|R-- .... ....|R-- .... ....
....|..|R-- .... ....|--- .... ....|--- .... ....
 C-3|..|C-4 2C.F ....|R-- .... ....|C-4 BF.F ....
....|..|R-- .... ....|--- .... ....|R-- .... ....
 C-3|..|C-4 2C.F ....|C-4 5F.7 ....|C-2 2F.A ....
....|..|R-- .... ....|--- .... ....|--- .... ....
 C-3|..|C-4 2C.F ....|C-4 5F.F ....|C-3 2C.F ....
....|..|R-- .... ....|--- .... ....|--- .... ....
 C-3|..|C-4 2C.F ....|--- .... ....|C-4 BF.A ....
....|..|R-- .... ....|--- .... ....|R-- .... ....
....|..|C-4 2F.7 ....|C-4 5F.7 ....|C-2 2F.7 ....
....|..|R-- .... ....|--- .... ....|--- .... ....
....|..|C-4 2F.7 ....|C-4 5F.A ....|C-2 2F.A ....
....|..|R-- .... ....|--- .... ....|--- .... ....
....|..|C-4 2F.7 ....|--- .... ....|C-4 BF.7 ....
....|..|R-- .... ....|--- .... ....|R-- .... ....
....|..|C-4 2F.7 ....|R-- .... ....|R-- .... ....
....|..|R-- .... ....|--- .... ....|--- .... ....
....|..|C-4 2F.7 ....|C-4 5F.7 ....|C-2 2F.7 ....
....|..|R-- .... ....|--- .... ....|--- .... ....
....|..|C-4 2F.7 ....|--- .... ....|--- .... ....
....|..|R-- .... ....|--- .... ....|--- .... ....
....|..|--- .... ....|R-- .... ....|R-- .... ....
....|..|--- .... ....|--- .... ....|--- .... ....
....|..|--- .... ....|--- .... ....|--- .... ....
....|..|--- .... ....|--- .... ....|--- .... ....
....|..|--- .... ....|--- .... ....|--- .... ....
....|..|--- .... ....|--- .... ....|--- .... ....
....|..|--- .... ....|--- .... ....|--- .... ....
....|..|--- .... ....|--- .... ....|--- .... ....
....|..|--- .... ....|--- .... ....|--- .... ....
....|..|--- .... ....|--- .... ....|--- .... ....
....|..|--- .... ....|--- .... ....|--- .... ....
....|..|--- .... ....|--- .... ....|--- .... ....
....|..|--- .... ....|--- .... ....|--- .... ....
....|..|--- .... ....|--- .... ....|--- .... ....
....|..|--- .... ....|--- .... ....|--- .... ....
....|..|--- .... ....|--- .... ....|--- .... ....
....|..|--- .... ....|--- .... ....|--- .... ....
....|..|--- .... ....|--- .... ....|--- .... ....
....|..|--- .... ....|--- .... ....|--- .... ....
....|..|--- .... ....|--- .... ....|--- .... ....

[Pattern45]
 A#3|..|A#2 2C.F ....|--- .... ....|--- .... ....
....|..|--- .... ....|--- .... ....|--- .... ....
....|..|--- .... ....|--- .... ....|--- .... ....
....|..|--- .... ....|--- .... ....|--- .... ....
 F-4|..|F-3 2C.F ....|--- .... ....|--- .... ....
....|..|--- .... ....|--- .... ....|--- .... ....
 G-4|..|G-3 2C.F ....|--- .... ....|--- .... ....
....|..|--- .... ....|--- .... ....|--- .... ....
 A-3|..|A-3 2C.F ....|--- .... ....|--- .... ....
....|..|--- .... ....|--- .... ....|--- .... ....
 G-4|..|G-3 2C.F ....|--- .... ....|--- .... ....
....|..|--- .... ....|--- .... ....|--- .... ....
 F-4|..|F-3 2C.F ....|--- .... ....|--- .... ....
....|..|--- .... ....|--- .... ....|--- .... ....
 D-4|..|D-3 2C.F ....|--- .... ....|--- .... ....
....|..|--- .... ....|--- .... ....|--- .... ....
 D-4|..|D-3 2C.F ....|--- .... ....|--- .... ....
....|..|--- .... ....|--- .... ....|--- .... ....
....|..|G-3 2F.7 ....|--- .... ....|--- .... ....
....|..|--- .... ....|--- .... ....|--- .... ....
 F-4|..|F-3 2C.F ....|--- .... ....|--- .... ....
....|..|--- .... ....|--- .... ....|--- .... ....
 G-4|..|G-3 2C.F ....|--- .... ....|--- .... ....
....|..|--- .... ....|--- .... ....|--- .... ....
 A-3|..|A-3 2C.F ....|--- .... ....|--- .... ....
....|..|--- .... ....|--- .... ....|--- .... ....
 G-4|..|G-3 2C.F ....|--- .... ....|--- .... ....
....|..|--- .... ....|--- .... ....|--- .... ....
 F-4|..|F-3 2C.F ....|--- .... ....|--- .... ....
....|..|--- .... ....|--- .... ....|--- .... ....
 D-4|..|D-3 2C.F ....|--- .... ....|--- .... ....
....|..|--- .... ....|--- .... ....|--- .... ....
 D-4|..|D-3 2C.F ....|--- .... ....|--- .... ....
....|..|--- .... ....|--- .... ....|--- .... ....
....|..|G-3 2F.7 ....|--- .... ....|--- .... ....
....|..|--- .... ....|--- .... ....|--- .... ....
 F-4|..|F-3 2C.F ....|--- .... ....|--- .... ....
....|..|--- .... ....|--- .... ....|--- .... ....
 G-4|..|G-3 2C.F ....|--- .... ....|--- .... ....
....|..|--- .... ....|--- .... ....|--- .... ....
 A-3|..|A-3 2C.F ....|--- .... ....|--- .... ....
....|..|--- .... ....|--- .... ....|--- .... ....
 G-4|..|G-3 2C.F ....|--- .... ....|--- .... ....
....|..|--- .... ....|--- .... ....|--- .... ....
 F-4|..|F-3 2C.F ....|--- .... ....|--- .... ....
....|..|--- .... ....|--- .... ....|--- .... ....
 D-4|..|D-3 2C.F ....|--- .... ....|--- .... ....
....|..|--- .... ....|--- .... ....|--- .... ....
 D-4|..|D-3 2C.F ....|--- .... ....|--- .... ....
....|..|--- .... ....|--- .... ....|--- .... ....
....|..|G-3 2F.7 ....|--- .... ....|--- .... ....
....|..|--- .... ....|--- .... ....|--- .... ....
 F-4|..|F-3 2C.F ....|--- .... ....|--- .... ....
....|..|--- .... ....|--- .... ....|--- .... ....
 G-4|..|G-3 2C.F ....|--- .... ....|--- .... ....
....|..|--- .... ....|--- .... ....|--- .... ....
 A-3|..|A-3 2C.F ....|--- .... ....|--- .... ....
....|..|--- .... ....|--- .... ....|--- .... ....
 G-4|..|G-3 2C.F ....|--- .... ....|--- .... ....
....|..|--- .... ....|--- .... ....|--- .... ....
 F-4|..|F-3 2C.F ....|--- .... ....|--- .... ....
....|..|--- .... ....|--- .... ....|--- .... ....
 D-4|..|D-3 2C.F ....|--- .... ....|--- .... ....
....|..|--- .... ....|--- .... ....|--- .... ....

[Pattern46]
 A-3|..|A-2 2C.F ....|--- .... ....|--- .... ....
....|..|--- .... ....|--- .... ....|--- .... ....
....|..|G-3 2F.7 ....|--- .... ....|--- .... ....
....|..|--- .... ....|--- .... ....|--- .... ....
 C-3|..|C-3 2C.F ....|--- .... ....|--- .... ....
....|..|--- .... ....|--- .... ....|--- .... ....
 D-4|..|D-3 2C.F ....|--- .... ....|--- .... ....
....|..|--- .... ....|--- .... ....|--- .... ....
 E-4|..|E-3 2C.F ....|--- .... ....|--- .... ....
....|..|--- .... ....|--- .... ....|--- .... ....
 D-4|..|D-3 2C.F ....|--- .... ....|--- .... ....
....|..|--- .... ....|--- .... ....|--- .... ....
 C-3|..|C-3 2C.F ....|--- .... ....|--- .... ....
....|..|--- .... ....|--- .... ....|--- .... ....
 A-3|..|A-2 2C.F ....|--- .... ....|--- .... ....
....|..|--- .... ....|--- .... ....|--- .... ....
 A-3|..|A-2 2C.F ....|--- .... ....|--- .... ....
....|..|--- .... ....|--- .... ....|--- .... ....
....|..|D-3 2F.7 ....|--- .... ....|--- .... ....
....|..|--- .... ....|--- .... ....|--- .... ....
 C-3|..|C-3 2C.F ....|--- .... ....|--- .... ....
....|..|--- .... ....|--- .... ....|--- .... ....
 D-4|..|D-3 2C.F ....|--- .... ....|--- .... ....
....|..|--- .... ....|--- .... ....|--- .... ....
 E-4|..|E-3 2C.F ....|--- .... ....|--- .... ....
....|..|--- .... ....|--- .... ....|--- .... ....
 D-4|..|D-3 2C.F ....|--- .... ....|--- .... ....
....|..|--- .... ....|--- .... ....|--- .... ....
 C-3|..|C-3 2C.F ....|--- .... ....|--- .... ....
....|..|--- .... ....|--- .... ....|--- .... ....
 A-3|..|A-2 2C.F ....|--- .... ....|--- .... ....
....|..|--- .... ....|--- .... ....|--- .... ....
 A-3|..|A-2 2C.F ....|--- .... ....|--- .... ....
....|..|--- .... ....|--- .... ....|--- .... ....
....|..|D-3 2F.7 ....|--- .... ....|--- .... ....
....|..|--- .... ....|--- .... ....|--- .... ....
 C-3|..|C-3 2C.F ....|--- .... ....|--- .... ....
....|..|--- .... ....|--- .... ....|--- .... ....
 D-4|..|D-3 2C.F ....|--- .... ....|--- .... ....
....|..|--- .... ....|--- .... ....|--- .... ....
 E-4|..|E-3 2C.F ....|--- .... ....|--- .... ....
....|..|--- .... ....|--- .... ....|--- .... ....
 D-4|..|D-3 2C.F ....|--- .... ....|--- .... ....
....|..|--- .... ....|--- .... ....|--- .... ....
 C-3|..|C-3 2C.F ....|--- .... ....|--- .... ....
....|..|--- .... ....|--- .... ....|--- .... ....
 A-3|..|A-2 2C.F ....|--- .... ....|--- .... ....
....|..|--- .... ....|--- .... ....|--- .... ....
 A-3|..|A-2 2C.F ....|--- .... ....|--- .... ....
....|..|--- .... ....|--- .... ....|--- .... ....
....|..|D-3 2F.7 ....|--- .... ....|--- .... ....
....|..|--- .... ....|--- .... ....|--- .... ....
 C-3|..|C-3 2C.F ....|--- .... ....|--- .... ....
....|..|--- .... ....|--- .... ....|--- .... ....
 D-4|..|D-3 2C.F ....|--- .... ....|--- .... ....
....|..|--- .... ....|--- .... ....|--- .... ....
 E-4|..|E-3 2C.F ....|--- .... ....|--- .... ....
....|..|--- .... ....|--- .... ....|--- .... ....
 D-4|..|D-3 2C.F ....|--- .... ....|--- .... ....
....|..|--- .... ....|--- .... ....|--- .... ....
 C-3|..|C-3 2C.F ....|--- .... ....|--- .... ....
....|..|--- .... ....|--- .... ....|--- .... ....
 A-3|..|A-2 2C.F ....|--- .... ....|--- .... ....
....|..|--- .... ....|--- .... ....|--- .... ....

[Pattern47]
 G-4|..|G-2 2A.F ....|--- .... ....|--- .... ....
....|..|--- .... ....|--- .... ....|--- .... ....
....|..|D-3 2F.7 ....|--- .... ....|--- .... ....
....|..|--- .... ....|--- .... ....|--- .... ....
 B-4|..|B-2 2A.F ....|--- .... ....|--- .... ....
....|..|--- .... ....|--- .... ....|--- .... ....
 C-3|..|C-3 2C.F ....|--- .... ....|--- .... ....
....|..|--- .... ....|--- .... ....|--- .... ....
 D-4|..|D-3 2C.F ....|--- .... ....|--- .... ....
....|..|--- .... ....|--- .... ....|--- .... ....
 C-3|..|C-3 2C.F ....|--- .... ....|--- .... ....
....|..|--- .... ....|--- .... ....|--- .... ....
 B-4|..|B-2 2A.F ....|--- .... ....|--- .... ....
....|..|--- .... ....|--- .... ....|--- .... ....
 G-4|..|G-2 2A.F ....|--- .... ....|--- .... ....
....|..|--- .... ....|--- .... ....|--- .... ....
 G-4|..|G-2 2A.F ....|--- .... ....|--- .... ....
....|..|--- .... ....|--- .... ....|--- .... ....
....|..|C-3 2F.7 ....|--- .... ....|--- .... ....
....|..|--- .... ....|--- .... ....|--- .... ....
 B-4|..|B-2 2A.F ....|--- .... ....|--- .... ....
....|..|--- .... ....|--- .... ....|--- .... ....
 C-3|..|C-3 2C.F ....|--- .... ....|--- .... ....
....|..|--- .... ....|--- .... ....|--- .... ....
 D-4|..|D-3 2C.F ....|--- .... ....|--- .... ....
....|..|--- .... ....|--- .... ....|--- .... ....
 C-3|..|C-3 2C.F ....|--- .... ....|--- .... ....
....|..|--- .... ....|--- .... ....|--- .... ....
 B-4|..|B-2 2A.F ....|--- .... ....|--- .... ....
....|..|--- .... ....|--- .... ....|--- .... ....
 G-4|..|G-2 2A.F ....|--- .... ....|--- .... ....
....|..|--- .... ....|--- .... ....|--- .... ....
 G-4|..|G-2 2A.F ....|--- .... ....|--- .... ....
....|..|--- .... ....|--- .... ....|--- .... ....
....|..|C-3 2F.7 ....|--- .... ....|--- .... ....
....|..|--- .... ....|--- .... ....|--- .... ....
 B-4|..|B-2 2A.F ....|--- .... ....|--- .... ....
....|..|--- .... ....|--- .... ....|--- .... ....
 C-3|..|C-3 2C.F ....|--- .... ....|--- .... ....
....|..|--- .... ....|--- .... ....|--- .... ....
 D-4|..|D-3 2C.F ....|--- .... ....|--- .... ....
....|..|--- .... ....|--- .... ....|--- .... ....
 C-3|..|C-3 2C.F ....|--- .... ....|--- .... ....
....|..|--- .... ....|--- .... ....|--- .... ....
 B-4|..|B-2 2A.F ....|--- .... ....|--- .... ....
....|..|--- .... ....|--- .... ....|--- .... ....
 G-4|..|G-2 2A.F ....|--- .... ....|--- .... ....
....|..|--- .... ....|--- .... ....|--- .... ....
 G-4|..|G-2 2A.F ....|--- .... ....|--- .... ....
....|..|--- .... ....|--- .... ....|--- .... ....
....|..|C-3 2F.7 ....|--- .... ....|--- .... ....
....|..|--- .... ....|--- .... ....|--- .... ....
 B-4|..|B-2 2A.F ....|--- .... ....|--- .... ....
....|..|--- .... ....|--- .... ....|--- .... ....
 C-3|..|C-3 2C.F ....|--- .... ....|--- .... ....
....|..|--- .... ....|--- .... ....|--- .... ....
 D-4|..|D-3 2C.F ....|--- .... ....|--- .... ....
....|..|--- .... ....|--- .... ....|--- .... ....
 C-3|..|C-3 2C.F ....|--- .... ....|--- .... ....
....|..|--- .... ....|--- .... ....|--- .... ....
 B-4|..|B-2 2A.F ....|--- .... ....|--- .... ....
....|..|--- .... ....|--- .... ....|--- .... ....
 G-4|..|G-2 2A.F ....|--- .... ....|--- .... ....
....|..|--- .... ....|--- .... ....|--- .... ....

[Pattern48]
 G-4|..|G-2 2A.F ....|--- .... ....|--- .... ....
....|..|--- .... ....|--- .... ....|--- .... ....
....|..|C-3 2F.7 ....|--- .... ....|--- .... ....
....|..|--- .... ....|--- .... ....|--- .... ....
 A#3|..|A#2 2C.F ....|--- .... ....|--- .... ....
....|..|--- .... ....|--- .... ....|--- .... ....
 C-3|..|C-3 2C.F ....|--- .... ....|--- .... ....
....|..|--- .... ....|--- .... ....|--- .... ....
 D-4|..|D-3 2C.F ....|--- .... ....|--- .... ....
....|..|--- .... ....|--- .... ....|--- .... ....
 C-3|..|C-3 2C.F ....|--- .... ....|--- .... ....
....|..|--- .... ....|--- .... ....|--- .... ....
 A#3|..|A#2 2C.F ....|--- .... ....|--- .... ....
....|..|--- .... ....|--- .... ....|--- .... ....
 G-4|..|G-2 2A.F ....|--- .... ....|--- .... ....
....|..|--- .... ....|--- .... ....|--- .... ....
 G-4|..|G-2 2A.F ....|--- .... ....|--- .... ....
....|..|--- .... ....|--- .... ....|--- .... ....
....|..|C-3 2F.7 ....|--- .... ....|--- .... ....
....|..|--- .... ....|--- .... ....|--- .... ....
 A#3|..|A#2 2C.F ....|--- .... ....|--- .... ....
....|..|--- .... ....|--- .... ....|--- .... ....
 C-3|..|C-3 2C.F ....|--- .... ....|--- .... ....
....|..|--- .... ....|--- .... ....|--- .... ....
 D-4|..|D-3 2C.F ....|--- .... ....|--- .... ....
....|..|--- .... ....|--- .... ....|--- .... ....
 C-3|..|C-3 2C.F ....|--- .... ....|--- .... ....
....|..|--- .... ....|--- .... ....|--- .... ....
 A#3|..|A#2 2C.F ....|--- .... ....|--- .... ....
....|..|--- .... ....|--- .... ....|--- .... ....
 G-4|..|G-2 2A.F ....|--- .... ....|--- .... ....
....|..|--- .... ....|--- .... ....|--- .... ....
 G-4|..|G-2 2A.F ....|--- .... ....|--- .... ....
....|..|--- .... ....|--- .... ....|--- .... ....
....|..|C-3 2F.7 ....|--- .... ....|--- .... ....
....|..|--- .... ....|--- .... ....|--- .... ....
 A#3|..|A#2 2C.F ....|--- .... ....|--- .... ....
....|..|--- .... ....|--- .... ....|--- .... ....
 C-3|..|C-3 2C.F ....|--- .... ....|--- .... ....
....|..|--- .... ....|--- .... ....|--- .... ....
 D-4|..|D-3 2C.F ....|--- .... ....|--- .... ....
....|..|--- .... ....|--- .... ....|--- .... ....
 C-3|..|C-3 2C.F ....|--- .... ....|--- .... ....
....|..|--- .... ....|--- .... ....|--- .... ....
 A#3|..|A#2 2C.F ....|--- .... ....|--- .... ....
....|..|--- .... ....|--- .... ....|--- .... ....
 G-4|..|G-2 2A.F ....|--- .... ....|--- .... ....
....|..|--- .... ....|--- .... ....|--- .... ....
 G-4|..|G-2 2A.F ....|--- .... ....|--- .... ....
....|..|--- .... ....|--- .... ....|--- .... ....
....|..|C-3 2F.7 ....|--- .... ....|--- .... ....
....|..|--- .... ....|--- .... ....|--- .... ....
 A#3|..|A#2 2C.F ....|--- .... ....|--- .... ....
....|..|--- .... ....|--- .... ....|--- .... ....
 C-3|..|C-3 2C.F ....|--- .... ....|--- .... ....
....|..|--- .... ....|--- .... ....|--- .... ....
 D-4|..|D-3 2C.F ....|--- .... ....|--- .... ....
....|..|--- .... ....|--- .... ....|--- .... ....
 C-3|..|C-3 2C.F ....|--- .... ....|--- .... ....
....|..|--- .... ....|--- .... ....|--- .... ....
 A#3|..|A#2 2C.F ....|--- .... ....|--- .... ....
....|..|--- .... ....|--- .... ....|--- .... ....
 G-4|..|G-2 2A.F ....|--- .... ....|--- .... ....
....|..|--- .... ....|--- .... ....|--- .... ....

[Pattern49]
 D-4|..|A#2 2F.7 ....|--- .... ....|D-2 2A.F ....
....|..|--- .... ....|--- .... ....|--- .... ....
....|..|C-3 2F.7 ....|--- .... ....|R-- .... ....
....|..|--- .... ....|--- .... ....|--- .... ....
....|..|D-3 2F.7 ....|--- .... ....|--- .... ....
....|..|--- .... ....|--- .... ....|--- .... ....
....|..|C-3 2F.7 ....|--- .... ....|D-2 2F.A ....
....|..|--- .... ....|--- .... ....|--- .... ....
....|..|A#2 2F.7 ....|--- .... ....|R-- .... ....
....|..|--- .... ....|--- .... ....|--- .... ....
....|..|G-2 2F.7 ....|--- .... ....|--- .... ....
....|..|--- .... ....|--- .... ....|--- .... ....
 D-4|..|R-- .... ....|--- .... ....|D-2 2A.F ....
....|..|--- .... ....|--- .... ....|--- .... ....
....|..|--- .... ....|--- .... ....|R-- .... ....
....|..|--- .... ....|--- .... ....|--- .... ....
....|..|--- .... ....|--- .... ....|--- .... ....
....|..|--- .... ....|--- .... ....|--- .... ....
....|..|--- .... ....|--- .... ....|D-2 2F.A ....
....|..|--- .... ....|--- .... ....|--- .... ....
....|..|--- .... ....|--- .... ....|R-- .... ....
....|..|--- .... ....|--- .... ....|--- .... ....
 D-4|..|--- .... ....|--- .... ....|D-2 2A.F ....
....|..|--- .... ....|--- .... ....|--- .... ....
....|..|--- .... ....|--- .... ....|D-2 2F.7 ....
....|..|--- .... ....|--- .... ....|--- .... ....
....|..|--- .... ....|--- .... ....|R-- .... ....
....|..|--- .... ....|--- .... ....|--- .... ....
 D-4|..|--- .... ....|--- .... ....|D-2 2A.F ....
....|..|--- .... ....|--- .... ....|--- .... ....
....|..|--- .... ....|--- .... ....|R-- .... ....
....|..|--- .... ....|--- .... ....|--- .... ....
 D-4|..|--- .... ....|--- .... ....|D-2 2A.F ....
....|..|--- .... ....|--- .... ....|--- .... ....
....|..|--- .... ....|--- .... ....|D-2 2F.7 ....
....|..|--- .... ....|--- .... ....|--- .... ....
....|..|--- .... ....|--- .... ....|R-- .... ....
....|..|--- .... ....|--- .... ....|--- .... ....
....|..|--- .... ....|--- .... ....|D-2 2F.A ....
....|..|--- .... ....|--- .... ....|--- .... ....
....|..|--- .... ....|--- .... ....|D-2 2F.7 ....
....|..|--- .... ....|--- .... ....|--- .... ....
....|..|--- .... ....|--- .... ....|R-- .... ....
....|..|--- .... ....|--- .... ....|--- .... ....
 D-4|..|--- .... ....|--- .... ....|D-2 2A.F ....
....|..|--- .... ....|--- .... ....|--- .... ....
....|..|--- .... ....|--- .... ....|R-- .... ....
....|..|--- .... ....|--- .... ....|--- .... ....
....|..|--- .... ....|--- .... ....|--- .... ....
....|..|--- .... ....|--- .... ....|--- .... ....
....|..|--- .... ....|--- .... ....|D-2 2F.A ....
....|..|--- .... ....|--- .... ....|--- .... ....
....|..|--- .... ....|--- .... ....|R-- .... ....
....|..|--- .... ....|--- .... ....|--- .... ....
 D-4|..|--- .... ....|--- .... ....|D-2 2A.F ....
....|..|--- .... ....|--- .... ....|--- .... ....
....|..|--- .... ....|--- .... ....|D-2 2F.7 ....
....|..|--- .... ....|--- .... ....|--- .... ....
....|..|--- .... ....|--- .... ....|R-- .... ....
....|..|--- .... ....|--- .... ....|--- .... ....
 D-4|..|--- .... ....|--- .... ....|D-2 2A.F ....
....|..|--- .... ....|--- .... ....|--- .... ....
....|..|--- .... ....|--- .... ....|R-- .... ....
....|..|--- .... ....|--- .... ....|--- .... ....

[Pattern51]
 D-4|..|D-4 2C.F ....|D-4 5F.F ....|--- .... ....
....|..|R-- .... ....|--- .... ....|--- .... ....
 D-4|..|D-4 2C.F ....|--- .... ....|D-2 2F.7 ....
....|..|R-- .... ....|--- .... ....|--- .... ....
 D-4|..|D-4 2C.F ....|--- .... ....|D-3 2C.F ....
....|..|R-- .... ....|--- .... ....|--- .... ....
 D-4|..|D-4 2C.F ....|D-4 5F.A ....|--- .... ....
....|..|R-- .... ....|--- .... ....|--- .... ....
 D-4|..|D-4 2C.F ....|D-4 5F.F ....|C-4 BF.F ....
....|..|R-- .... ....|--- .... ....|R-- .... ....
 D-4|..|D-4 2C.F ....|--- .... ....|D-2 2F.A ....
....|..|R-- .... ....|--- .... ....|--- .... ....
 D-4|..|D-4 2C.F ....|D-4 5F.7 ....|D-3 2C.F ....
....|..|R-- .... ....|--- .... ....|--- .... ....
 D-4|..|D-4 2C.F ....|D-4 5F.F ....|C-4 BF.A ....
....|..|R-- .... ....|--- .... ....|R-- .... ....
 D-4|..|D-4 2C.F ....|R-- .... ....|D-2 2F.7 ....
....|..|R-- .... ....|--- .... ....|--- .... ....
 D-4|..|D-4 2C.F ....|R-- .... ....|D-2 2F.A ....
....|..|R-- .... ....|--- .... ....|--- .... ....
 D-4|..|D-4 2C.F ....|D-4 5F.F ....|D-3 2C.F ....
....|..|R-- .... ....|--- .... ....|R-- .... ....
 D-4|..|D-4 2C.F ....|R-- .... ....|R-- .... ....
....|..|R-- .... ....|--- .... ....|--- .... ....
 D-4|..|D-4 2C.F ....|R-- .... ....|C-4 BF.F ....
....|..|R-- .... ....|--- .... ....|R-- .... ....
 D-4|..|D-4 2C.F ....|D-4 5F.7 ....|D-2 2F.A ....
....|..|R-- .... ....|--- .... ....|--- .... ....
 D-4|..|D-4 2C.F ....|D-4 5F.F ....|D-3 2C.F ....
....|..|R-- .... ....|--- .... ....|--- .... ....
 D-4|..|D-4 2C.F ....|--- .... ....|C-4 BF.A ....
....|..|R-- .... ....|--- .... ....|R-- .... ....
 A#3|..|A#3 2C.F ....|D-4 5F.7 ....|D-2 2F.7 ....
....|..|R-- .... ....|--- .... ....|--- .... ....
 A#3|..|A#3 2C.F ....|A#3 5F.F ....|D-2 2F.A ....
....|..|R-- .... ....|--- .... ....|--- .... ....
 A#3|..|A#3 2C.F ....|--- .... ....|A#2 2C.F ....
....|..|R-- .... ....|--- .... ....|R-- .... ....
 A#3|..|A#3 2C.F ....|R-- .... ....|R-- .... ....
....|..|R-- .... ....|--- .... ....|--- .... ....
 A#3|..|A#3 2C.F ....|A#3 5F.F ....|C-4 BF.F ....
....|..|R-- .... ....|--- .... ....|R-- .... ....
 A#3|..|A#3 2C.F ....|--- .... ....|A#1 2F.A ....
....|..|R-- .... ....|--- .... ....|--- .... ....
 A#3|..|A#3 2C.F ....|R-- .... ....|A#2 2C.F ....
....|..|R-- .... ....|--- .... ....|--- .... ....
 A#3|..|A#3 2C.F ....|A#3 5F.F ....|C-4 BF.A ....
....|..|R-- .... ....|--- .... ....|R-- .... ....
 A#3|..|A#3 2C.F ....|R-- .... ....|A#1 2F.7 ....
....|..|R-- .... ....|--- .... ....|--- .... ....
 A#3|..|A#3 2C.F ....|R-- .... ....|A#1 2F.A ....
....|..|R-- .... ....|--- .... ....|--- .... ....
 A#3|..|A#3 2C.F ....|A#3 5F.F ....|A#2 2C.F ....
....|..|R-- .... ....|--- .... ....|R-- .... ....
 A#3|..|A#3 2C.F ....|R-- .... ....|R-- .... ....
....|..|R-- .... ....|--- .... ....|--- .... ....
 A#3|..|A#3 2C.F ....|R-- .... ....|C-4 BF.F ....
....|..|R-- .... ....|--- .... ....|R-- .... ....
 A#3|..|A#3 2C.F ....|A#3 5F.7 ....|A#1 2F.A ....
....|..|R-- .... ....|--- .... ....|--- .... ....
 A#3|..|A#3 2C.F ....|A#3 5F.F ....|A#2 2C.F ....
....|..|R-- .... ....|--- .... ....|--- .... ....
 A#3|..|A#3 2C.F ....|--- .... ....|C-4 BF.A ....
....|..|R-- .... ....|--- .... ....|R-- .... ....

[Pattern59]
....|..|C-4 2F.7 ....|C-4 5F.7 ....|C-2 2F.7 ....
....|..|R-- .... ....|--- .... ....|--- .... ....
....|..|C-4 2F.7 ....|C-4 5F.A ....|C-2 2F.A ....
....|..|R-- .... ....|--- .... ....|--- .... ....
 D-4|..|C-4 2F.7 ....|--- .... ....|D-2 2A.F ....
....|..|R-- .... ....|--- .... ....|R-- .... ....
....|..|C-4 2F.7 ....|R-- .... ....|R-- .... ....
....|..|R-- .... ....|--- .... ....|--- .... ....
....|..|C-4 2F.7 ....|C-4 5F.7 ....|C-4 BF.F ....
....|..|R-- .... ....|--- .... ....|R-- .... ....
....|..|C-4 2F.7 ....|--- .... ....|D-2 2F.A ....
....|..|R-- .... ....|--- .... ....|--- .... ....
 D-4|..|--- .... ....|R-- .... ....|D-2 2A.F ....
....|..|--- .... ....|--- .... ....|--- .... ....
....|..|--- .... ....|--- .... ....|C-4 BF.A ....
....|..|--- .... ....|--- .... ....|R-- .... ....
....|..|--- .... ....|--- .... ....|D-2 2F.7 ....
....|..|--- .... ....|--- .... ....|--- .... ....
....|..|--- .... ....|--- .... ....|D-2 2F.A ....
....|..|--- .... ....|--- .... ....|--- .... ....
 D-4|..|--- .... ....|--- .... ....|D-2 2A.F ....
....|..|--- .... ....|--- .... ....|R-- .... ....
....|..|--- .... ....|--- .... ....|R-- .... ....
....|..|--- .... ....|--- .... ....|--- .... ....
....|..|--- .... ....|--- .... ....|C-4 BF.F ....
....|..|--- .... ....|--- .... ....|R-- .... ....
....|..|--- .... ....|--- .... ....|D-2 2F.A ....
....|..|--- .... ....|--- .... ....|--- .... ....
 D-4|..|--- .... ....|--- .... ....|D-2 2A.F ....
....|..|--- .... ....|--- .... ....|--- .... ....
....|..|--- .... ....|--- .... ....|C-4 BF.A ....
....|..|--- .... ....|--- .... ....|R-- .... ....
....|..|--- .... ....|--- .... ....|D-2 2F.7 ....
....|..|--- .... ....|--- .... ....|--- .... ....
....|..|--- .... ....|--- .... ....|D-2 2F.A ....
....|..|--- .... ....|--- .... ....|--- .... ....
 G-3|..|--- .... ....|--- .... ....|G-1 2A.F ....
....|..|--- .... ....|--- .... ....|R-- .... ....
....|..|--- .... ....|--- .... ....|R-- .... ....
....|..|--- .... ....|--- .... ....|--- .... ....
....|..|--- .... ....|--- .... ....|C-4 BF.F ....
....|..|--- .... ....|--- .... ....|R-- .... ....
....|..|--- .... ....|--- .... ....|G-1 2F.A ....
....|..|--- .... ....|--- .... ....|--- .... ....
 G-3|..|--- .... ....|--- .... ....|G-1 2A.F ....
....|..|--- .... ....|--- .... ....|--- .... ....
....|..|--- .... ....|--- .... ....|C-4 BF.A ....
....|..|--- .... ....|--- .... ....|R-- .... ....
....|..|--- .... ....|--- .... ....|G-1 2F.7 ....
....|..|--- .... ....|--- .... ....|--- .... ....
....|..|--- .... ....|--- .... ....|G-1 2F.A ....
....|..|--- .... ....|--- .... ....|--- .... ....
 G-3|..|--- .... ....|--- .... ....|G-1 2A.F ....
....|..|--- .... ....|--- .... ....|R-- .... ....
....|..|--- .... ....|--- .... ....|R-- .... ....
....|..|--- .... ....|--- .... ....|--- .... ....
....|..|--- .... ....|--- .... ....|C-4 BF.F ....
....|..|--- .... ....|--- .... ....|R-- .... ....
....|..|--- .... ....|--- .... ....|G-1 2F.A ....
....|..|--- .... ....|--- .... ....|--- .... ....
 G-3|..|--- .... ....|--- .... ....|G-1 2A.F ....
....|..|--- .... ....|--- .... ....|--- .... ....
....|..|--- .... ....|--- .... ....|C-4 BF.A ....
....|..|--- .... ....|--- .... ....|R-- .... ....

[Pattern60]
....|..|--- .... ....|--- .... ....|G-1 2F.7 ....
....|..|--- .... ....|--- .... ....|--- .... ....
....|..|--- .... ....|--- .... ....|G-1 2F.A ....
....|..|--- .... ....|--- .... ....|--- .... ....
 D-4|..|--- .... ....|--- .... ....|D-2 2A.F ....
....|..|--- .... ....|--- .... ....|R-- .... ....
....|..|--- .... ....|--- .... ....|R-- .... ....
....|..|--- .... ....|--- .... ....|--- .... ....
....|..|--- .... ....|--- .... ....|C-4 BF.F ....
....|..|--- .... ....|--- .... ....|R-- .... ....
....|..|--- .... ....|--- .... ....|D-2 2F.A ....
....|..|--- .... ....|--- .... ....|--- .... ....
 D-4|..|--- .... ....|--- .... ....|D-2 2A.F ....
....|..|--- .... ....|--- .... ....|--- .... ....
....|..|--- .... ....|--- .... ....|C-4 BF.A ....
....|..|--- .... ....|--- .... ....|R-- .... ....
....|..|--- .... ....|--- .... ....|D-2 2F.7 ....
....|..|--- .... ....|--- .... ....|--- .... ....
....|..|--- .... ....|--- .... ....|D-2 2F.A ....
....|..|--- .... ....|--- .... ....|--- .... ....
 D-4|..|--- .... ....|--- .... ....|D-2 2A.F ....
....|..|--- .... ....|--- .... ....|R-- .... ....
....|..|--- .... ....|--- .... ....|R-- .... ....
....|..|--- .... ....|--- .... ....|--- .... ....
....|..|--- .... ....|--- .... ....|C-4 BF.F ....
....|..|--- .... ....|--- .... ....|R-- .... ....
....|..|--- .... ....|--- .... ....|D-2 2F.A ....
....|..|--- .... ....|--- .... ....|--- .... ....
 D-4|..|--- .... ....|--- .... ....|D-2 2A.F ....
....|..|--- .... ....|--- .... ....|--- .... ....
....|..|--- .... ....|--- .... ....|C-4 BF.A ....
....|..|--- .... ....|--- .... ....|R-- .... ....
....|..|--- .... ....|--- .... ....|D-2 2F.7 ....
....|..|--- .... ....|--- .... ....|--- .... ....
....|..|--- .... ....|--- .... ....|D-2 2F.A ....
....|..|--- .... ....|--- .... ....|--- .... ....
 G-3|..|--- .... ....|--- .... ....|G-1 2A.F ....
....|..|--- .... ....|--- .... ....|R-- .... ....
....|..|--- .... ....|--- .... ....|R-- .... ....
....|..|--- .... ....|--- .... ....|--- .... ....
....|..|--- .... ....|--- .... ....|C-4 BF.F ....
....|..|--- .... ....|--- .... ....|R-- .... ....
....|..|--- .... ....|--- .... ....|G-1 2F.A ....
....|..|--- .... ....|--- .... ....|--- .... ....
 G-3|..|--- .... ....|--- .... ....|G-1 2A.F ....
....|..|--- .... ....|--- .... ....|--- .... ....
....|..|--- .... ....|--- .... ....|C-4 BF.A ....
....|..|--- .... ....|--- .... ....|R-- .... ....
....|..|--- .... ....|--- .... ....|G-1 2F.7 ....
....|..|--- .... ....|--- .... ....|--- .... ....
....|..|--- .... ....|--- .... ....|G-1 2F.A ....
....|..|--- .... ....|--- .... ....|--- .... ....
 G-3|..|--- .... ....|--- .... ....|G-1 2A.F ....
....|..|--- .... ....|--- .... ....|R-- .... ....
....|..|--- .... ....|--- .... ....|R-- .... ....
....|..|--- .... ....|--- .... ....|--- .... ....
....|..|--- .... ....|--- .... ....|C-4 BF.F ....
....|..|--- .... ....|--- .... ....|R-- .... ....
....|..|--- .... ....|--- .... ....|G-1 2F.A ....
....|..|--- .... ....|--- .... ....|--- .... ....
 G-3|..|--- .... ....|--- .... ....|G-1 2A.F ....
....|..|--- .... ....|--- .... ....|--- .... ....
....|..|--- .... ....|--- .... ....|C-4 BF.A ....
....|..|--- .... ....|--- .... ....|R-- .... ....

[Pattern63]
....|..|--- .... ....|--- .... ....|G-1 2F.7 ....
....|..|--- .... ....|--- .... ....|--- .... ....
....|..|--- .... ....|--- .... ....|G-1 2F.A ....
....|..|--- .... ....|--- .... ....|--- .... ....
....|..|--- .... ....|--- .... ....|C-4 BF.7 ....
....|..|--- .... ....|--- .... ....|R-- .... ....
....|..|--- .... ....|--- .... ....|R-- .... ....
....|..|--- .... ....|--- .... ....|--- .... ....
....|..|--- .... ....|--- .... ....|G-1 2F.7 ....
....|..|--- .... ....|--- .... ....|--- .... ....
....|..|--- .... ....|--- .... ....|--- .... ....
....|..|--- .... ....|--- .... ....|--- .... ....
....|..|--- .... ....|--- .... ....|R-- .... ....
....|..|--- .... ....|--- .... ....|--- .... ....
....|..|--- .... ....|--- .... ....|--- .... ....
....|..|--- .... ....|--- .... ....|--- .... ....
....|..|--- .... ....|--- .... ....|--- .... ....
....|..|--- .... ....|--- .... ....|--- .... ....
....|..|--- .... ....|--- .... ....|--- .... ....
....|..|--- .... ....|--- .... ....|--- .... ....
....|..|--- .... ....|--- .... ....|--- .... ....
....|..|--- .... ....|--- .... ....|--- .... ....
....|..|--- .... ....|--- .... ....|--- .... ....
....|..|--- .... ....|--- .... ....|--- .... ....
....|..|--- .... ....|--- .... ....|--- .... ....
....|..|--- .... ....|--- .... ....|--- .... ....
....|..|--- .... ....|--- .... ....|--- .... ....
....|..|--- .... ....|--- .... ....|--- .... ....
....|..|--- .... ....|--- .... ....|--- .... ....
....|..|--- .... ....|--- .... ....|--- .... ....
....|..|--- .... ....|--- .... ....|--- .... ....
....|..|--- .... ....|--- .... ....|--- .... ....
....|..|--- .... ....|--- .... ....|--- .... ....
....|..|--- .... ....|--- .... ....|--- .... ....
....|..|--- .... ....|--- .... ....|--- .... ....
....|..|--- .... ....|--- .... ....|--- .... ....
....|..|--- .... ....|--- .... ....|--- .... ....
....|..|--- .... ....|--- .... ....|--- .... ....
....|..|--- .... ....|--- .... ....|--- .... ....
....|..|--- .... ....|--- .... ....|--- .... ....
....|..|--- .... ....|--- .... ....|--- .... ....
....|..|--- .... ....|--- .... ....|--- .... ....
....|..|--- .... ....|--- .... ....|--- .... ....
....|..|--- .... ....|--- .... ....|--- .... ....
....|..|--- .... ....|--- .... ....|--- .... ....
....|..|--- .... ....|--- .... ....|--- .... ....
....|..|--- .... ....|--- .... ....|--- .... ....
....|..|--- .... ....|--- .... ....|--- .... ....
....|..|--- .... ....|--- .... ....|--- .... ....
....|..|--- .... ....|--- .... ....|--- .... ....
....|..|--- .... ....|--- .... ....|--- .... ....
....|..|--- .... ....|--- .... ....|--- .... ....
....|..|--- .... ....|--- .... ....|--- .... ....
....|..|--- .... ....|--- .... ....|--- .... ....
....|..|--- .... ....|--- .... ....|--- .... ....
....|..|--- .... ....|--- .... ....|--- .... ....
....|..|--- .... ....|--- .... ....|--- .... ....
....|..|--- .... ....|--- .... ....|--- .... ....
....|..|--- .... ....|--- .... ....|--- .... ....
....|..|--- .... ....|--- .... ....|--- .... ....
....|..|--- .... ....|--- .... ....|--- .... ....
....|..|--- .... ....|--- .... ....|--- .... ....
....|..|--- .... ....|--- .... ....|--- .... ....
....|..|--- .... ....|--- .... ....|--- .... ....

[Pattern64]
....|..|--- .... ....|--- .... ....|--- .... ....
....|..|--- .... ....|--- .... ....|--- .... ....
....|..|--- .... ....|--- .... ....|--- .... ....
....|..|--- .... ....|--- .... ....|--- .... ....
....|..|--- .... ....|--- .... ....|--- .... ....
....|..|--- .... ....|--- .... ....|--- .... ....
....|..|--- .... ....|--- .... ....|--- .... ....
....|..|--- .... ....|--- .... ....|--- .... ....
....|..|--- .... ....|--- .... ....|--- .... ....
....|..|--- .... ....|--- .... ....|--- .... ....
....|..|--- .... ....|--- .... ....|--- .... ....
....|..|--- .... ....|--- .... ....|--- .... ....
....|..|--- .... ....|--- .... ....|--- .... ....
....|..|--- .... ....|--- .... ....|--- .... ....
....|..|--- .... ....|--- .... ....|--- .... ....
....|..|--- .... ....|--- .... ....|--- .... ....
....|..|--- .... ....|--- .... ....|--- .... ....
....|..|--- .... ....|--- .... ....|--- .... ....
....|..|--- .... ....|--- .... ....|--- .... ....
....|..|--- .... ....|--- .... ....|--- .... ....
....|..|--- .... ....|--- .... ....|--- .... ....
....|..|--- .... ....|--- .... ....|--- .... ....
....|..|--- .... ....|--- .... ....|--- .... ....
....|..|--- .... ....|--- .... ....|--- .... ....
....|..|--- .... ....|--- .... ....|--- .... ....
....|..|--- .... ....|--- .... ....|--- .... ....
....|..|--- .... ....|--- .... ....|--- .... ....
....|..|--- .... ....|--- .... ....|--- .... ....
....|..|--- .... ....|--- .... ....|--- .... ....
....|..|--- .... ....|--- .... ....|--- .... ....
....|..|--- .... ....|--- .... ....|--- .... ....
....|..|--- .... ....|--- .... ....|--- .... ....
....|..|--- .... ....|--- .... ....|--- .... ....
....|..|--- .... ....|--- .... ....|--- .... ....

