[Module]
VortexTrackerII=0
Version=3.5
Title=1du-2me-3me-9me,7mw-11m[3f]-12p[3]-10p+-8p+-4p,5m[2f]-6m[ue]-7m-11mw[2f]+15m[u]
Author=oisee ^ 4d 29.05.2010
NoteTable=4
ChipFreq=1520640
Speed=6
PlayOrder=L0,1,2,3,4,5,6,7,8,9,10,11,12,13,14,15,16,17,18,19,20,21,22,23,24,25,26,27,28,29,30,31,32,33

[Ornament1]
L0,0,8,8

[Ornament2]
L0,0,4,4

[Ornament3]
L0,0,3,3

[Ornament4]
L0,0,5,5,8,8

[Ornament5]
L0,0,5,5,9,9

[Ornament6]
L0,0,3,3,7,7

[Ornament7]
L0,0,3,3,8,8

[Ornament8]
L0,0,4,4,9,9

[Ornament9]
L0,0,4,4,7,7

[Ornament10]
L0

[Ornament11]
L0

[Ornament12]
L0

[Ornament13]
L0

[Ornament14]
12,L0

[Ornament15]
12,L0

[Sample1]
TnE +000_ +00_ F_
TnE +000_ +00_ F_
TnE +000_ +00_ F_
TnE +000_ +00_ D_
TnE +000_ +00_ B_
TnE +000_ +00_ B_ L

[Sample2]
TnE +000_ +00_ F_ L

[Sample3]
TnE +001_ +00_ F_
TnE +002_ +00_ F_
TnE +001_ +00_ E_
TnE +002_ +00_ E_
TnE +000_ +00_ E_ L
TnE -001_ +00_ E_
TnE -002_ +00_ E_
TnE -001_ +00_ E_
TnE +000_ +00_ E_
TnE +001_ +00_ E_
TnE +002_ +00_ E_
TnE +001_ +00_ E_

[Sample4]
TnE +002_ +00_ D_
TnE +002_ +00_ D_
TnE +002_ +00_ C_
TnE +002_ +00_ B_
TnE +002_ +00_ A_ L
TnE +002_ +00_ A_
TnE +002_ +00_ A_
TnE +002_ +00_ A_
TnE +002_ +00_ A_
TnE +002_ +00_ A_
TnE +002_ +00_ A_
TnE +002_ +00_ A_

[Sample5]
TnE +000_ +00_ F_
TnE +000_ +00_ F_
tne +000_ +00_ 0_ L

[Sample6]
TnE -001_ +00_ F_ L

[Sample7]
TnE +006_ +00_ F_ L

[Sample8]
tNe +000_ +00_ F_
tNe +000_ +00_ B_
tNe +000_ +00_ 7_
tNe +000_ +00_ 6- L

[Sample9]
TnE +080_ +00_ F_
TnE +100_ +00_ E_
TnE +180_ +00_ E_
TnE +200_ +00_ E_
TnE +240_ +00_ D_
TnE +280_ +00_ D_
TnE +2C0_ +00_ D_
TnE +300_ +00_ C_
TnE +300_ +00_ C_
TnE +340_ +00_ C_
TnE +340_ +00_ C_
TnE +380_ +00_ B_
TnE +380_ +00_ B_
TnE +400_ +00_ B_
TnE +400_ +00_ B_
TnE +480_ +00_ A_
TnE +500_ +00_ 9_
TnE +580_ +00_ 7_
TnE +600_ +00_ 4_
TnE +680_ +00_ 1_
TnE +000_ +00_ 0_ L

[Sample10]
Tne +1C0_ +00_ F_
Tne +280_ +00_ E_
Tne +380_ +00_ C_
Tne +440_ +00_ A_
Tne +480_ +00_ 8_
TnE +000_ +00_ 0_ L

[Sample11]
TNe +200_ -0A_ F_
tNe +000_ +0F_ A_
TNe +200_ -07_ E_
tNe +000_ +0E_ B- L

[Sample12]
TNE +0A0_ +05_ F_
TNE +140_ +02_ D_
TNE +140_ +02_ B_
TNE +100_ +00_ A_ L
TNE +140_ +00_ A_
TNE +200_ +00_ A-

[Sample13]
Tne +200_ +00_ F_
Tne +2C0_ +00_ F_
Tne +380_ +00_ E_
Tne +500_ +00_ C_
Tne +520_ +00_ 9_
tne +000_ +00_ 0_ L

[Sample14]
TNE -100_ +00_ F_
TNE -100_ +00_ D_
TNE -100_ +00_ A_
TNE -100_ +00_ 5_
tne +000_ +00_ 0_ L

[Sample15]
TNE -100_ +00_ 5_
TNE -100_ +00_ 8_
TNE -100_ +00_ B_
TNE -100_ +00_ F_
TNe -100_ +00_ 9- L

[Sample16]
TnE +000_ +00_ C_
TnE +000_ +00_ E_
TnE +000_ +00_ F_
TnE +000_ +00_ F_
TnE +000_ +00_ E_
TnE +000_ +00_ D_
TnE +000_ +00_ C_
TnE +000_ +00_ C_ L
TnE +001_ +00_ C_
TnE +002_ +00_ C_
TnE +003_ +00_ C_
TnE +001_ +00_ C_
TnE +000_ +00_ C_
TnE -001_ +00_ C_
TnE -002_ +00_ C_
TnE -003_ +00_ C_
TnE -001_ +00_ C_
TnE +000_ +00_ C_
TnE +000_ +00_ C_

[Sample17]
Tne +1C0_ +00_ F_
Tne +280_ +00_ D_
Tne +380_ +00_ 7_
TNE +000_ +00_ 0_ L

[Sample18]
TnE -00C_ +00_ 0_ L

[Sample19]
TNe +000_ +00_ F_
TNe +000_ +00_ C_
TNe +000_ +00_ 6_
TNe +000_ +01_ A- L

[Sample20]
TNE +140_ +00_ F_
tNE +000_ +00_ B- L

[Sample21]
tNE +000_ +00_ D_
tNE +000_ +00_ 8_
tNE +000_ +00_ 1_
TNE +000_ +00_ 0_ L

[Sample22]
TnE +000_ +00_ D_ L
TnE +000_ +00_ D_
tne +000_ +00_ 9_
tne +000_ +00_ 9_
TnE +000_ +00_ D_
TnE +000_ +00_ D_
tne +000_ +00_ 9_
tne +000_ +00_ 9_
TnE +000_ +00_ D_
TnE +000_ +00_ D_
TnE +000_ +00_ D_
TnE +000_ +00_ D_
TnE +000_ +00_ D_
TnE +000_ +00_ D_
tne +000_ +00_ 9_
tne +000_ +00_ 9_

[Sample23]
TnE +000_ +00_ F_ L
TnE +010_ +01_ F_
TnE +010_ +01_ F_
TnE +010_ +01_ F_
TnE +010_ +01_ F_
TnE +000_ +00_ F_
TnE +000_ +00_ F_
TnE -010_ -01_ F_
TnE -010_ -01_ F_
TnE -010_ -01_ F_
TnE -010_ -01_ F_
TnE +000_ +00_ F_

[Sample24]
TNe +000_ -01_ C_
TNe +000_ -01_ D_
TNe +000_ -01_ E_
TNe +000_ -01_ F_
TNe +000_ -01_ F_
TNe +000_ -01_ F_
TNe +000_ -01_ F_
TNe +000_ -01_ F_
TNe +000_ -01_ E_
TNe +000_ -01_ E_
TNe +000_ -01_ E_
TNe +000_ -01_ F_
TNe +000_ -01_ F_ L

[Sample25]
TNE +000_ +00_ F_
TNE +000_ +00_ F_ L
TNE +000_ +00_ F_
TNE +000_ +00_ F_
TNE +000_ +00_ F-

[Sample26]
tne +000_ +00_ 0_ L

[Sample27]
TnE +100_ +05_ F_
TnE +200_ +02_ A_
TnE +300_ +02_ 7_
TNE +400_ +00_ 3- L

[Sample28]
tne +000_ +00_ 0_ L

[Sample29]
tnE +000_ +00_ 0_ L

[Sample30]
TNE +000_ +00_ D+ L

[Sample31]
TNe +1C0_ +00_ F_
Tne +280_ +00_ E_
Tne +380_ +00_ C_
Tne +440_ +00_ A_
Tne +480_ +00_ 8_
TnE +000_ +00_ 0_ L

[Pattern0]
....|..|--- .... ....|--- .... ....|--- .... ....
....|..|--- .... ....|--- .... ....|--- .... ....
....|..|--- .... ....|--- .... ....|--- .... ....
....|..|--- .... ....|--- .... ....|--- .... ....
....|..|--- .... ....|--- .... ....|--- .... ....
....|..|--- .... ....|--- .... ....|--- .... ....
....|..|--- .... ....|--- .... ....|--- .... ....
....|..|--- .... ....|--- .... ....|--- .... ....
....|..|--- .... ....|--- .... ....|--- .... ....
....|..|--- .... ....|--- .... ....|--- .... ....
....|..|--- .... ....|--- .... ....|--- .... ....
....|..|--- .... ....|--- .... ....|--- .... ....
....|..|--- .... ....|--- .... ....|--- .... ....
....|..|--- .... ....|--- .... ....|--- .... ....
....|..|--- .... ....|--- .... ....|--- .... ....
....|..|--- .... ....|--- .... ....|--- .... ....
....|..|B-8 JF.F ....|--- .... ....|--- .... ....
....|..|--- .... ....|--- .... ....|--- .... ....
....|..|--- .... ....|--- .... ....|--- .... ....
....|..|--- .... ....|--- .... ....|--- .... ....
....|..|B-8 JF.F ....|--- .... ....|--- .... ....
....|..|--- .... ....|--- .... ....|--- .... ....
....|..|--- .... ....|--- .... ....|--- .... ....
....|..|--- .... ....|--- .... ....|--- .... ....
....|..|B-8 JF.F ....|--- .... ....|--- .... ....
....|..|--- .... ....|--- .... ....|--- .... ....
....|..|--- .... ....|--- .... ....|--- .... ....
....|..|--- .... ....|--- .... ....|--- .... ....
....|..|B-8 JF.F ....|--- .... ....|--- .... ....
....|..|--- .... ....|--- .... ....|--- .... ....
....|..|--- .... ....|--- .... ....|--- .... ....
....|..|--- .... ....|--- .... ....|--- .... ....
 D-4|..|D-4 2C.F ....|--- .... ....|--- .... ....
....|..|--- .... ....|--- .... ....|--- .... ....
....|..|--- .... ....|--- .... ....|--- .... ....
....|..|D-4 2F.A ....|--- .... ....|--- .... ....
 F-4|..|F-5 2C.F ....|--- .... ....|--- .... ....
....|..|--- .... ....|--- .... ....|--- .... ....
 D-4|..|D-4 2C.F ....|--- .... ....|--- .... ....
....|..|F-5 2F.A ....|--- .... ....|--- .... ....
 C-3|..|C-4 2C.F ....|--- .... ....|--- .... ....
....|..|D-4 2F.A ....|--- .... ....|--- .... ....
....|..|F-5 2F.7 ....|--- .... ....|--- .... ....
....|..|C-4 2F.A ....|--- .... ....|--- .... ....
 E-4|..|E-5 2C.F ....|--- .... ....|--- .... ....
....|..|--- .... ....|--- .... ....|--- .... ....
 C-3|..|C-4 2C.F ....|--- .... ....|--- .... ....
....|..|E-5 2F.A ....|--- .... ....|--- .... ....
 D-4|..|D-4 2C.F ....|--- .... ....|--- .... ....
....|..|C-4 2F.A ....|--- .... ....|--- .... ....
....|..|E-5 2F.7 ....|--- .... ....|--- .... ....
....|..|D-4 2F.A ....|--- .... ....|--- .... ....
 F-4|..|F-5 2C.F ....|--- .... ....|--- .... ....
....|..|--- .... ....|--- .... ....|--- .... ....
 D-4|..|D-4 2C.F ....|--- .... ....|--- .... ....
....|..|F-5 2F.A ....|--- .... ....|--- .... ....
 C-3|..|C-4 2C.F ....|--- .... ....|--- .... ....
....|..|D-4 2F.A ....|--- .... ....|--- .... ....
....|..|F-5 2F.7 ....|--- .... ....|--- .... ....
....|..|C-4 2F.A ....|--- .... ....|--- .... ....
 E-4|..|E-5 2C.F ....|--- .... ....|--- .... ....
....|..|--- .... ....|--- .... ....|--- .... ....
 C-3|..|C-4 2C.F ....|--- .... ....|--- .... ....
....|..|E-5 2F.A ....|--- .... ....|--- .... ....

[Pattern1]
....|..|C-4 AF.F ....|A-3 2F4F ....|C-6 2FFF ....
 D-4|..|D-4 2C.F ....|R-- .... ....|R-- .... ....
....|..|C-4 2F.A ....|--- .... ....|--- .... ....
....|..|D-4 2F.A ....|A-3 2F4A ....|C-6 2FFA ....
....|..|C-4 CF.F ....|A-3 2F4F ....|C-6 2FFF ....
 F-4|..|F-5 2C.F ....|R-- .... ....|--- .... ....
....|..|C-4 AF.F ....|A-3 2F47 ....|C-6 2FF7 ....
 D-4|..|D-4 2C.F ....|A-3 2F4A ....|C-6 2FFA ....
....|..|C-4 AF.F ....|R-- .... ....|G-6 2FFF ....
....|..|F-5 2F.A ....|--- .... ....|R-- .... ....
....|..|C-4 LF.F ....|A-3 2F47 ....|C-6 2FF7 ....
 C-3|..|C-4 2C.F ....|R-- .... ....|G-6 2FFA ....
....|..|C-4 CF.F ....|C-4 2F9F ....|G-6 2FFF ....
....|..|C-3 2F.A ....|R-- .... ....|R-- .... ....
....|..|C-4 AF.F ....|--- .... ....|G-6 2FF7 ....
 E-4|..|E-5 2C.F ....|C-4 2F9A ....|G-6 2FFA ....
....|..|C-4 AF.F ....|A-3 2F4F ....|A-6 2FFF ....
 C-3|..|C-4 2C.F ....|R-- .... ....|R-- .... ....
....|..|E-5 2F.A ....|C-4 2F97 ....|A#6 2FFF ....
 D-4|..|D-4 2C.F ....|A-3 2F4A ....|A-6 2FFA ....
....|..|C-4 CF.F ....|A-3 2F4F ....|R-- .... ....
....|..|E-5 2F.7 ....|R-- .... ....|A#6 2FFA ....
....|..|C-4 AF.F ....|A-3 2F47 ....|A-6 2FFF ....
 F-4|..|F-5 2C.F ....|A-3 2F4A ....|R-- .... ....
....|..|C-4 AF.F ....|R-- .... ....|G-6 2FFF ....
 D-4|..|D-4 2C.F ....|--- .... ....|A-6 2FFA ....
....|..|C-4 LF.F ....|A-3 2F47 ....|R-- .... ....
 C-3|..|C-4 2C.F ....|R-- .... ....|G-6 2FFA ....
....|..|C-4 CF.F ....|G-3 2F5F ....|A-6 2FF7 ....
....|..|C-3 2F.A ....|R-- .... ....|R-- .... ....
....|..|C-4 AF.F ....|--- .... ....|G-6 2FF7 ....
 E-4|..|E-5 2C.F ....|G-3 2F5A ....|R-- .... ....
....|..|C-4 AF.F ....|A-3 2F4F ....|F-6 2FFF ....
 C-3|..|C-4 2C.F ....|R-- .... ....|R-- .... ....
....|..|E-5 2F.A ....|G-3 2F57 ....|--- .... ....
 D-4|..|D-4 2C.F ....|A-3 2F4A ....|F-6 2FFA ....
....|..|C-4 CF.F ....|A-3 2F4F ....|F-6 2FFF ....
....|..|E-5 2F.7 ....|R-- .... ....|R-- .... ....
....|..|C-4 AF.F ....|A-3 2F47 ....|F-6 2FF7 ....
 F-4|..|F-5 2C.F ....|A-3 2F4A ....|F-6 2FFA ....
....|..|C-4 AF.F ....|R-- .... ....|E-6 2FFF ....
 D-4|..|D-4 2C.F ....|--- .... ....|R-- .... ....
....|..|C-4 LF.F ....|A-3 2F47 ....|F-6 2FF7 ....
 C-3|..|C-4 2C.F ....|R-- .... ....|E-6 2FFA ....
....|..|C-4 CF.F ....|C-4 2F9F ....|G-6 2FFF ....
....|..|C-3 2F.A ....|R-- .... ....|R-- .... ....
....|..|C-4 AF.F ....|--- .... ....|E-6 2FF7 ....
 E-4|..|E-5 2C.F ....|C-4 2F9A ....|G-6 2FFA ....
....|..|C-4 AF.F ....|A-3 2F4F ....|D-6 2FFF ....
 C-3|..|C-4 2C.F ....|R-- .... ....|R-- .... ....
....|..|E-5 2F.A ....|C-4 2F97 ....|G-6 2FF7 ....
 D-4|..|D-4 2C.F ....|A-3 2F4A ....|D-6 2FFA ....
....|..|C-4 CF.F ....|A-3 2F4F ....|D-6 2FFF ....
....|..|E-5 2F.7 ....|R-- .... ....|--- .... ....
....|..|C-4 AF.F ....|A-3 2F47 ....|D-6 2FF7 ....
 F-4|..|F-5 2C.F ....|A-3 2F4A ....|D-6 2FFA ....
....|..|C-4 AF.F ....|R-- .... ....|C-6 2FFF ....
 D-4|..|D-4 2C.F ....|--- .... ....|--- .... ....
....|..|C-4 LF.F ....|A-3 2F47 ....|D-6 2FF7 ....
 C-3|..|C-4 2C.F ....|R-- .... ....|C-6 2FFA ....
....|..|C-4 CF.F ....|G-3 2F5F ....|--- .... ....
....|..|C-3 2F.A ....|R-- .... ....|--- .... ....
....|..|C-4 AF.F ....|--- .... ....|C-6 2FF7 ....
 E-4|..|E-5 2C.F ....|G-3 2F5A ....|--- .... ....

[Pattern2]
....|..|C-4 AF.F ....|A-3 2F4F ....|C-6 2FFF ....
 C-3|..|C-4 2C.F ....|R-- .... ....|R-- .... ....
....|..|E-5 2F.A ....|G-3 2F57 ....|--- .... ....
 D-4|..|D-4 2C.F ....|A-3 2F4A ....|C-6 2FFA ....
....|..|C-4 CF.F ....|A-3 2F4F ....|C-6 2FFF ....
....|..|E-5 2F.7 ....|R-- .... ....|--- .... ....
....|..|C-4 AF.F ....|A-3 2F47 ....|C-6 2FF7 ....
 F-4|..|F-5 2C.F ....|A-3 2F4A ....|C-6 2FFA ....
....|..|C-4 AF.F ....|R-- .... ....|G-6 2FFF ....
 D-4|..|D-4 2C.F ....|--- .... ....|R-- .... ....
....|..|C-4 LF.F ....|A-3 2F47 ....|C-6 2FF7 ....
 C-3|..|C-4 2C.F ....|R-- .... ....|G-6 2FFA ....
....|..|C-4 CF.F ....|C-4 2F9F ....|G-6 2FFF ....
....|..|C-3 2F.A ....|R-- .... ....|R-- .... ....
....|..|C-4 AF.F ....|--- .... ....|G-6 2FF7 ....
 E-4|..|E-5 2C.F ....|C-4 2F9A ....|G-6 2FFA ....
....|..|C-4 AF.F ....|A-3 2F4F ....|A-6 2FFF ....
 C-3|..|C-4 2C.F ....|R-- .... ....|R-- .... ....
....|..|E-5 2F.A ....|C-4 2F97 ....|A#6 2FFF ....
 D-4|..|D-4 2C.F ....|A-3 2F4A ....|A-6 2FFA ....
....|..|C-4 CF.F ....|A-3 2F4F ....|R-- .... ....
....|..|E-5 2F.7 ....|R-- .... ....|A#6 2FFA ....
....|..|C-4 AF.F ....|A-3 2F47 ....|A-6 2FFF ....
 F-4|..|F-5 2C.F ....|A-3 2F4A ....|R-- .... ....
....|..|C-4 AF.F ....|R-- .... ....|G-6 2FFF ....
 D-4|..|D-4 2C.F ....|--- .... ....|A-6 2FFA ....
....|..|C-4 LF.F ....|A-3 2F47 ....|R-- .... ....
 C-3|..|C-4 2C.F ....|R-- .... ....|G-6 2FFA ....
....|..|C-4 CF.F ....|G-3 2F5F ....|A-6 2FF7 ....
....|..|C-3 2F.A ....|R-- .... ....|R-- .... ....
....|..|C-4 AF.F ....|--- .... ....|G-6 2FF7 ....
 E-4|..|E-5 2C.F ....|G-3 2F5A ....|R-- .... ....
....|..|C-4 AF.F ....|A-3 2F4F ....|D-6 2FFF ....
 C-3|..|C-4 2C.F ....|R-- .... ....|R-- .... ....
....|..|E-5 2F.A ....|G-3 2F57 ....|--- .... ....
 D-4|..|D-4 2C.F ....|A-3 2F4A ....|D-6 2FFA ....
....|..|C-4 CF.F ....|A-3 2F4F ....|D-6 2FFF ....
....|..|E-5 2F.7 ....|R-- .... ....|R-- .... ....
....|..|C-4 AF.F ....|A-3 2F47 ....|D-6 2FF7 ....
 F-4|..|F-5 2C.F ....|A-3 2F4A ....|D-6 2FFA ....
....|..|C-4 AF.F ....|R-- .... ....|R-- .... ....
 D-4|..|D-4 2C.F ....|--- .... ....|--- .... ....
....|..|C-4 LF.F ....|A-3 2F47 ....|D-6 2FF7 ....
 C-3|..|C-4 2C.F ....|R-- .... ....|R-- .... ....
....|..|C-4 CF.F ....|C-4 2F9F ....|E-6 2FFF ....
....|..|C-3 2F.A ....|R-- .... ....|R-- .... ....
....|..|C-4 AF.F ....|--- .... ....|--- .... ....
 E-4|..|E-5 2C.F ....|C-4 2F9A ....|E-6 2FFA ....
....|..|C-4 AF.F ....|A-3 2F4F ....|D-6 2FFF ....
 C-3|..|C-4 2C.F ....|R-- .... ....|R-- .... ....
....|..|E-5 2F.A ....|C-4 2F97 ....|E-6 2FF7 ....
 D-4|..|D-4 2C.F ....|A-3 2F4A ....|D-6 2FFA ....
....|..|C-4 CF.F ....|A-3 2F4F ....|D-6 2FFF ....
....|..|E-5 2F.7 ....|R-- .... ....|R-- .... ....
....|..|C-4 AF.F ....|A-3 2F47 ....|D-6 2FF7 ....
 F-4|..|F-5 2C.F ....|A-3 2F4A ....|D-6 2FFA ....
....|..|C-4 AF.F ....|R-- .... ....|R-- .... ....
 D-4|..|D-4 2C.F ....|--- .... ....|--- .... ....
....|..|C-4 LF.F ....|A-3 2F47 ....|A-5 2FFF ....
 C-3|..|C-4 2C.F ....|R-- .... ....|E-6 2FFF ....
....|..|C-4 CF.F ....|G-3 2F5F ....|A-6 2FFF ....
....|..|C-3 2F.A ....|R-- .... ....|A-5 2FFA ....
....|..|C-4 AF.F ....|--- .... ....|E-6 2FFA ....
 E-4|..|E-5 2C.F ....|G-3 2F5A ....|A-6 2FFA ....

[Pattern3]
....|..|C-4 AF.F ....|R-- .... ....|A-5 2FF7 ....
 C-3|..|C-4 2C.F ....|--- .... ....|E-6 2FF7 ....
....|..|E-5 2F.A ....|G-3 2F57 ....|A-6 2FF7 ....
 D-4|..|D-4 2C.F ....|R-- .... ....|R-- .... ....
....|..|C-4 CF.F ....|A-3 2F4F ....|A-3 UFEF ....
....|..|E-5 2F.7 ....|R-- .... ....|--- .... ....
....|..|C-4 AF.F ....|--- .... ....|A-3 UFEF ....
 F-4|..|F-5 2C.F ....|A-3 2F4A ....|A-3 UFEA ....
....|..|C-4 AF.F ....|R-- .... ....|G-3 UFEF ....
 D-4|..|D-4 2C.F ....|--- .... ....|A-3 UFEA ....
....|..|C-4 LF.F ....|A-3 2F47 ....|G-3 UFEF ....
 C-3|..|C-4 2C.F ....|R-- .... ....|G-3 UFEA ....
....|..|C-4 CF.F ....|G-3 2F5F ....|G-3 UFEF ....
....|..|C-3 2F.A ....|R-- .... ....|G-3 UFEA ....
....|..|C-4 AF.F ....|--- .... ....|G-3 UFEF ....
 E-4|..|E-5 2C.F ....|G-3 2F5A ....|G-3 UFEA ....
....|..|C-4 AF.F ....|R-- .... ....|C-4 UFEF ....
 C-3|..|C-4 2C.F ....|--- .... ....|G-3 UFEA ....
....|..|E-5 2F.A ....|G-3 2F57 ....|G-3 UFE7 ....
 D-4|..|D-4 2C.F ....|R-- .... ....|C-4 UFEA ....
....|..|C-4 CF.F ....|A-3 2F4F ....|G-3 UFEF ....
....|..|E-5 2F.7 ....|R-- .... ....|R-- .... ....
....|..|C-4 AF.F ....|--- .... ....|C-4 UFE7 ....
 F-4|..|F-5 2C.F ....|A-3 2F4A ....|G-3 UFEA ....
....|..|C-4 AF.F ....|R-- .... ....|F-3 UFEF ....
 D-4|..|D-4 2C.F ....|--- .... ....|--- .... ....
....|..|C-4 LF.F ....|A-3 2F47 ....|G-3 UFE7 ....
 C-3|..|C-4 2C.F ....|R-- .... ....|F-3 UFEA ....
....|..|C-4 CF.F ....|G-3 2F5F ....|E-3 UFEF ....
....|..|C-3 2F.A ....|R-- .... ....|R-- .... ....
....|..|C-4 AF.F ....|--- .... ....|E-3 UFEF ....
 E-4|..|E-5 2C.F ....|G-3 2F5A ....|E-3 UFEA ....
....|..|C-4 AF.F ....|R-- .... ....|D-3 UFEF ....
 C-3|..|C-4 2C.F ....|--- .... ....|E-3 UFEA ....
....|..|E-5 2F.A ....|G-3 2F57 ....|E-3 UFE7 ....
 D-4|..|D-4 2C.F ....|R-- .... ....|D-3 UFEA ....
....|..|C-4 CF.F ....|A-3 2F4F ....|E-3 UFE7 ....
....|..|E-5 2F.7 ....|R-- .... ....|--- .... ....
....|..|C-4 AF.F ....|--- .... ....|D-3 UFE7 ....
 F-4|..|F-5 2C.F ....|A-3 2F4A ....|--- .... ....
....|..|C-4 AF.F ....|R-- .... ....|--- .... ....
 D-4|..|D-4 2C.F ....|--- .... ....|--- .... ....
....|..|C-4 LF.F ....|A-3 2F47 ....|R-- .... ....
 C-3|..|C-4 2C.F ....|R-- .... ....|--- .... ....
....|..|C-4 CF.F ....|G-3 2F5F ....|--- .... ....
....|..|C-3 2F.A ....|R-- .... ....|R-- .... ....
....|..|C-4 AF.F ....|--- .... ....|--- .... ....
 E-4|..|E-5 2C.F ....|G-3 2F5A ....|--- .... ....
....|..|C-4 AF.F ....|R-- .... ....|R-- .... ....
 C-3|..|C-4 2C.F ....|--- .... ....|--- .... ....
....|..|E-5 2F.A ....|G-3 2F57 ....|--- .... ....
 D-4|..|D-4 2C.F ....|R-- .... ....|--- .... ....
....|..|C-4 CF.F ....|A-3 2F4F ....|--- .... ....
....|..|E-5 2F.7 ....|R-- .... ....|--- .... ....
....|..|C-4 AF.F ....|--- .... ....|--- .... ....
 F-4|..|F-5 2C.F ....|A-3 2F4A ....|--- .... ....
....|..|C-4 AF.F ....|R-- .... ....|--- .... ....
 D-4|..|D-4 2C.F ....|--- .... ....|--- .... ....
....|..|C-4 LF.F ....|A-3 2F47 ....|--- .... ....
 C-3|..|C-4 2C.F ....|R-- .... ....|--- .... ....
....|..|C-4 CF.F ....|G-3 2F5F ....|--- .... ....
....|..|C-3 2F.A ....|R-- .... ....|--- .... ....
....|..|C-4 AF.F ....|--- .... ....|--- .... ....
 E-4|..|E-5 2C.F ....|G-3 2F5A ....|--- .... ....

[Pattern4]
....|..|C-4 AF.F ....|R-- .... ....|--- .... ....
 C-3|..|C-4 2C.F ....|--- .... ....|--- .... ....
....|..|E-5 2F.A ....|G-3 2F57 ....|D-3 UFEF ....
 D-4|..|D-4 2C.F ....|R-- .... ....|R-- .... ....
....|..|C-4 CF.F ....|A-3 2F4F ....|A-3 UFEF ....
....|..|E-5 2F.7 ....|R-- .... ....|D-3 UFEA ....
....|..|C-4 AF.F ....|--- .... ....|A-3 UFEF ....
 F-4|..|F-5 2C.F ....|A-3 2F4A ....|A-3 UFEA ....
....|..|C-4 AF.F ....|R-- .... ....|G-3 UFEF ....
 D-4|..|D-4 2C.F ....|--- .... ....|A-3 UFEA ....
....|..|C-4 LF.F ....|A-3 2F47 ....|G-3 UFEF ....
 C-3|..|C-4 2C.F ....|R-- .... ....|G-3 UFEA ....
....|..|C-4 CF.F ....|G-3 2F5F ....|G-3 UFEF ....
....|..|C-3 2F.A ....|R-- .... ....|G-3 UFEA ....
....|..|C-4 AF.F ....|--- .... ....|G-3 UFEF ....
 E-4|..|E-5 2C.F ....|G-3 2F5A ....|G-3 UFEA ....
....|..|C-4 AF.F ....|R-- .... ....|C-4 UFEF ....
 C-3|..|C-4 2C.F ....|--- .... ....|G-3 UFEA ....
....|..|E-5 2F.A ....|G-3 2F57 ....|G-3 UFE7 ....
 D-4|..|D-4 2C.F ....|R-- .... ....|C-4 UFEA ....
....|..|C-4 CF.F ....|A-3 2F4F ....|A-3 UFEF ....
....|..|E-5 2F.7 ....|R-- .... ....|R-- .... ....
....|..|C-4 AF.F ....|--- .... ....|C-4 UFE7 ....
 F-4|..|F-5 2C.F ....|A-3 2F4A ....|A-3 UFEA ....
....|..|C-4 AF.F ....|R-- .... ....|G-3 UFEF ....
 D-4|..|D-4 2C.F ....|--- .... ....|R-- .... ....
....|..|C-4 LF.F ....|A-3 2F47 ....|A-3 UFE7 ....
 C-3|..|C-4 2C.F ....|R-- .... ....|G-3 UFEA ....
....|..|C-4 CF.F ....|G-3 2F5F ....|F-3 UFEF ....
....|..|C-3 2F.A ....|R-- .... ....|R-- .... ....
....|..|C-4 AF.F ....|--- .... ....|A-3 UFEF ....
 E-4|..|E-5 2C.F ....|G-3 2F5A ....|F-3 UFEA ....
....|..|C-4 AF.F ....|R-- .... ....|R-- .... ....
 C-3|..|C-4 2C.F ....|--- .... ....|A-3 UFEA ....
....|..|E-5 2F.A ....|G-3 2F57 ....|F-3 UFE7 ....
 D-4|..|D-4 2C.F ....|R-- .... ....|R-- .... ....
....|..|C-4 CF.F ....|A-3 2F4F ....|A-3 UFE7 ....
....|..|E-5 2F.7 ....|R-- .... ....|--- .... ....
....|..|C-4 AF.F ....|--- .... ....|--- .... ....
 F-4|..|F-5 2C.F ....|A-3 2F4A ....|--- .... ....
....|..|C-4 AF.F ....|R-- .... ....|--- .... ....
 D-4|..|D-4 2C.F ....|--- .... ....|R-- .... ....
....|..|C-4 LF.F ....|A-3 2F47 ....|--- .... ....
 C-3|..|C-4 2C.F ....|R-- .... ....|--- .... ....
....|..|C-4 CF.F ....|G-3 2F5F ....|R-- .... ....
....|..|C-3 2F.A ....|R-- .... ....|--- .... ....
....|..|C-4 AF.F ....|--- .... ....|--- .... ....
 E-4|..|E-5 2C.F ....|G-3 2F5A ....|R-- .... ....
....|..|C-4 AF.F ....|R-- .... ....|--- .... ....
 C-3|..|C-4 2C.F ....|--- .... ....|--- .... ....
....|..|E-5 2F.A ....|G-3 2F57 ....|--- .... ....
 D-4|..|D-4 2C.F ....|R-- .... ....|--- .... ....
....|..|C-4 CF.F ....|A-3 2F4F ....|--- .... ....
....|..|E-5 2F.7 ....|R-- .... ....|--- .... ....
....|..|C-4 AF.F ....|--- .... ....|--- .... ....
 F-4|..|F-5 2C.F ....|A-3 2F4A ....|--- .... ....
....|..|C-4 AF.F ....|R-- .... ....|--- .... ....
 D-4|..|D-4 2C.F ....|--- .... ....|--- .... ....
....|..|C-4 LF.F ....|A-3 2F47 ....|--- .... ....
 C-3|..|C-4 2C.F ....|R-- .... ....|--- .... ....
....|..|C-4 CF.F ....|G-3 2F5F ....|--- .... ....
....|..|C-3 2F.A ....|R-- .... ....|--- .... ....
....|..|C-4 AF.F ....|--- .... ....|--- .... ....
 E-4|..|E-5 2C.F ....|G-3 2F5A ....|--- .... ....

[Pattern5]
....|..|C-4 AF.F ....|A-3 2F4F ....|--- .... ....
 C-3|..|C-4 2C.F ....|R-- .... ....|--- .... ....
....|..|E-5 2F.A ....|G-3 2F57 ....|--- .... ....
 D-4|..|D-4 2C.F ....|A-3 2F4A ....|--- .... ....
....|..|C-4 CF.F ....|A-3 2F4F ....|A-3 UFEF ....
....|..|E-5 2F.7 ....|R-- .... ....|--- .... ....
....|..|C-4 AF.F ....|A-3 2F47 ....|A-3 UFEF ....
 F-4|..|F-5 2C.F ....|A-3 2F4A ....|A-3 UFEA ....
....|..|C-4 AF.F ....|R-- .... ....|G-3 UFEF ....
 D-4|..|D-4 2C.F ....|--- .... ....|A-3 UFEA ....
....|..|C-4 LF.F ....|A-3 2F47 ....|G-3 UFEF ....
 C-3|..|C-4 2C.F ....|R-- .... ....|G-3 UFEA ....
....|..|C-4 CF.F ....|G-3 2F5F ....|G-3 UFEF ....
....|..|C-3 2F.A ....|R-- .... ....|G-3 UFEA ....
....|..|C-4 AF.F ....|--- .... ....|G-3 UFEF ....
 E-4|..|E-5 2C.F ....|G-3 2F5A ....|G-3 UFEA ....
....|..|C-4 AF.F ....|R-- .... ....|C-4 UFEF ....
 C-3|..|C-4 2C.F ....|--- .... ....|G-3 UFEA ....
....|..|E-5 2F.A ....|G-3 2F57 ....|G-3 UFE7 ....
 D-4|..|D-4 2C.F ....|R-- .... ....|C-4 UFEA ....
....|..|C-4 CF.F ....|A-3 2F4F ....|A-3 UFEF ....
....|..|E-5 2F.7 ....|R-- .... ....|R-- .... ....
....|..|C-4 AF.F ....|--- .... ....|C-4 UFE7 ....
 F-4|..|F-5 2C.F ....|A-3 2F4A ....|A-3 UFEA ....
....|..|C-4 AF.F ....|R-- .... ....|G-3 UFEF ....
 D-4|..|D-4 2C.F ....|--- .... ....|R-- .... ....
....|..|C-4 LF.F ....|A-3 2F47 ....|A-3 UFE7 ....
 C-3|..|C-4 2C.F ....|R-- .... ....|G-3 UFEA ....
....|..|C-4 CF.F ....|G-3 2F5F ....|--- .... ....
....|..|C-3 2F.A ....|R-- .... ....|R-- .... ....
....|..|C-4 AF.F ....|--- .... ....|G-3 UFE7 ....
 E-4|..|E-5 2C.F ....|G-3 2F5A ....|R-- .... ....
....|..|C-4 AF.F ....|A-3 2F4F ....|--- .... ....
 C-3|..|C-4 2C.F ....|R-- .... ....|--- .... ....
....|..|E-5 2F.A ....|G-3 2F57 ....|F-3 UFEF ....
 D-4|..|D-4 2C.F ....|A-3 2F4A ....|R-- .... ....
....|..|C-4 CF.F ....|A-3 2F4F ....|F-3 UFEF ....
....|..|E-5 2F.7 ....|R-- .... ....|F-3 UFEA ....
....|..|C-4 AF.F ....|A-3 2F47 ....|F-3 UFEF ....
 F-4|..|F-5 2C.F ....|A-3 2F4A ....|F-3 UFEA ....
....|..|C-4 AF.F ....|R-- .... ....|G-3 UFEF ....
 D-4|..|D-4 2C.F ....|--- .... ....|F-3 UFEA ....
....|..|C-4 LF.F ....|A-3 2F47 ....|F-3 UFEF ....
 C-3|..|C-4 2C.F ....|R-- .... ....|G-3 UFEA ....
....|..|C-4 CF.F ....|G-3 2F5F ....|F-3 UFEF ....
....|..|C-3 2F.A ....|R-- .... ....|F-3 UFEA ....
....|..|C-4 AF.F ....|--- .... ....|E-3 UFEF ....
 E-4|..|E-5 2C.F ....|G-3 2F5A ....|F-3 UFEA ....
....|..|C-4 AF.F ....|R-- .... ....|E-3 UFEF ....
 C-3|..|C-4 2C.F ....|--- .... ....|E-3 UFEA ....
....|..|E-5 2F.A ....|G-3 2F57 ....|F-3 UFE7 ....
 D-4|..|D-4 2C.F ....|R-- .... ....|E-3 UFEA ....
....|..|C-4 CF.F ....|A-3 2F4F ....|D-3 UFEF ....
....|..|E-5 2F.7 ....|R-- .... ....|R-- .... ....
....|..|C-4 AF.F ....|--- .... ....|D-3 UFEF ....
 F-4|..|F-5 2C.F ....|A-3 2F4A ....|D-3 UFEA ....
....|..|C-4 AF.F ....|R-- .... ....|R-- .... ....
 D-4|..|D-4 2C.F ....|--- .... ....|D-3 UFEA ....
....|..|C-4 LF.F ....|A-3 2F47 ....|D-3 UFE7 ....
 C-3|..|C-4 2C.F ....|R-- .... ....|R-- .... ....
....|..|C-4 CF.F ....|G-3 2F5F ....|D-3 UFE7 ....
....|..|C-3 2F.A ....|R-- .... ....|R-- .... ....
....|..|C-4 AF.F ....|--- .... ....|--- .... ....
 E-4|..|E-5 2C.F ....|G-3 2F5A ....|--- .... ....

[Pattern6]
....|..|C-4 AF.F ....|A-3 2F4F ....|R-- .... ....
 C-3|..|C-4 2C.F ....|R-- .... ....|--- .... ....
....|..|E-5 2F.A ....|G-3 2F57 ....|D-3 UFEF ....
 D-4|..|D-4 2C.F ....|A-3 2F4A ....|R-- .... ....
....|..|C-4 CF.F ....|A-3 2F4F ....|A-3 UFEF ....
....|..|E-5 2F.7 ....|R-- .... ....|D-3 UFEA ....
....|..|C-4 AF.F ....|A-3 2F47 ....|A-3 UFEF ....
 F-4|..|F-5 2C.F ....|A-3 2F4A ....|A-3 UFEA ....
....|..|C-4 AF.F ....|R-- .... ....|G-3 UFEF ....
 D-4|..|D-4 2C.F ....|--- .... ....|A-3 UFEA ....
....|..|C-4 LF.F ....|A-3 2F47 ....|G-3 UFEF ....
 C-3|..|C-4 2C.F ....|R-- .... ....|G-3 UFEA ....
....|..|C-4 CF.F ....|C-4 2F9F ....|G-3 UFEF ....
....|..|C-3 2F.A ....|R-- .... ....|G-3 UFEA ....
....|..|C-4 AF.F ....|--- .... ....|G-3 UFEF ....
 E-4|..|E-5 2C.F ....|C-4 2F9A ....|G-3 UFEA ....
....|..|C-4 AF.F ....|A-3 2F4F ....|C-4 UFEF ....
 C-3|..|C-4 2C.F ....|R-- .... ....|G-3 UFEA ....
....|..|E-5 2F.A ....|C-4 2F97 ....|G-3 UFE7 ....
 D-4|..|D-4 2C.F ....|A-3 2F4A ....|C-4 UFEA ....
....|..|C-4 CF.F ....|A-3 2F4F ....|G-3 UFEF ....
....|..|E-5 2F.7 ....|R-- .... ....|R-- .... ....
....|..|C-4 AF.F ....|A-3 2F47 ....|C-4 UFE7 ....
 F-4|..|F-5 2C.F ....|A-3 2F4A ....|G-3 UFEA ....
....|..|C-4 AF.F ....|R-- .... ....|F-3 UFEF ....
 D-4|..|D-4 2C.F ....|--- .... ....|R-- .... ....
....|..|C-4 LF.F ....|A-3 2F47 ....|G-3 UFE7 ....
 C-3|..|C-4 2C.F ....|R-- .... ....|F-3 UFEA ....
....|..|C-4 CF.F ....|G-3 2F5F ....|E-3 UFEF ....
....|..|C-3 2F.A ....|R-- .... ....|R-- .... ....
....|..|C-4 AF.F ....|--- .... ....|E-3 UFEF ....
 E-4|..|E-5 2C.F ....|G-3 2F5A ....|E-3 UFEA ....
....|..|C-4 AF.F ....|A-3 2F4F ....|D-3 UFEF ....
 C-3|..|C-4 2C.F ....|R-- .... ....|E-3 UFEA ....
....|..|E-5 2F.A ....|G-3 2F57 ....|E-3 UFE7 ....
 D-4|..|D-4 2C.F ....|A-3 2F4A ....|D-3 UFEA ....
....|..|C-4 CF.F ....|A-3 2F4F ....|E-3 UFE7 ....
....|..|E-5 2F.7 ....|R-- .... ....|--- .... ....
....|..|C-4 AF.F ....|A-3 2F47 ....|D-3 UFE7 ....
 F-4|..|F-5 2C.F ....|A-3 2F4A ....|--- .... ....
....|..|C-4 AF.F ....|R-- .... ....|--- .... ....
 D-4|..|D-4 2C.F ....|--- .... ....|--- .... ....
....|..|C-4 LF.F ....|A-3 2F47 ....|--- .... ....
 C-3|..|C-4 2C.F ....|R-- .... ....|R-- .... ....
....|..|C-4 CF.F ....|C-4 2F9F ....|--- .... ....
....|..|C-3 2F.A ....|R-- .... ....|--- .... ....
....|..|C-4 AF.F ....|--- .... ....|R-- .... ....
 E-4|..|E-5 2C.F ....|C-4 2F9A ....|--- .... ....
....|..|C-4 AF.F ....|A-3 2F4F ....|--- .... ....
 C-3|..|C-4 2C.F ....|R-- .... ....|R-- .... ....
....|..|E-5 2F.A ....|C-4 2F97 ....|--- .... ....
 D-4|..|D-4 2C.F ....|A-3 2F4A ....|--- .... ....
....|..|C-4 CF.F ....|A-3 2F4F ....|--- .... ....
....|..|E-5 2F.7 ....|R-- .... ....|--- .... ....
....|..|C-4 AF.F ....|A-3 2F47 ....|--- .... ....
 F-4|..|F-5 2C.F ....|A-3 2F4A ....|--- .... ....
....|..|C-4 AF.F ....|R-- .... ....|--- .... ....
 D-4|..|D-4 2C.F ....|--- .... ....|--- .... ....
....|..|C-4 LF.F ....|A-3 2F47 ....|--- .... ....
 C-3|..|C-4 2C.F ....|R-- .... ....|--- .... ....
....|..|C-4 CF.F ....|G-3 2F5F ....|--- .... ....
....|..|C-3 2F.A ....|R-- .... ....|--- .... ....
....|..|C-4 AF.F ....|--- .... ....|--- .... ....
 E-4|..|E-5 2C.F ....|G-3 2F5A ....|--- .... ....

[Pattern7]
....|..|C-4 AF.F ....|A-5 2F.F ....|A-5 2F.F ....
 C-3|..|C-4 2C.F ....|A-3 2F4F ....|--- .... ....
....|..|C-4 CF.F ....|G-3 2F57 ....|--- .... ....
....|..|C-4 CF.F ....|A-3 2F4A ....|A-5 2F.A ....
....|..|C-4 CF.F ....|D-4 2F6F ....|--- .... ....
....|..|E-5 2F.7 ....|A-3 2F4F ....|--- .... ....
....|..|C-4 AF.F ....|A-5 2F.A ....|A-5 2F.7 ....
 F-4|..|F-5 2C.F ....|D-4 2F6A ....|--- .... ....
....|..|C-4 AF.F ....|R-- .... ....|--- .... ....
 D-4|..|D-4 2C.F ....|A-3 2F4A ....|R-- .... ....
....|..|C-4 CF.F ....|E-4 2F7F ....|--- .... ....
 C-3|..|C-4 2C.F ....|A-3 2F47 ....|--- .... ....
....|..|C-4 CF.F ....|C-4 2F9F ....|--- .... ....
....|..|C-3 2F.A ....|R-- .... ....|--- .... ....
....|..|C-4 AF.F ....|R-- .... ....|--- .... ....
 E-4|..|E-5 2C.F ....|C-4 2F9A ....|--- .... ....
....|..|C-4 AF.F ....|F-4 2F8F ....|--- .... ....
 C-3|..|C-4 2C.F ....|A-3 2F4F ....|--- .... ....
....|..|C-4 CF.F ....|C-4 2F97 ....|--- .... ....
....|..|C-4 CF.F ....|F-4 2F8A ....|--- .... ....
....|..|C-4 CF.F ....|A-3 2F4F ....|--- .... ....
....|..|E-5 2F.7 ....|R-- .... ....|--- .... ....
....|..|C-4 AF.F ....|F-4 2F87 ....|--- .... ....
 F-4|..|F-5 2C.F ....|A-3 2F4A ....|--- .... ....
....|..|C-4 AF.F ....|C-6 2F.F ....|C-6 2F.F ....
 D-4|..|D-4 2C.F ....|R-- .... ....|--- .... ....
....|..|C-4 CF.F ....|A-3 2F47 ....|R-- .... ....
 C-3|..|C-4 2C.F ....|R-- .... ....|C-6 2F.A ....
....|..|C-4 CF.F ....|C-4 2F9F ....|--- .... ....
....|..|C-3 2F.A ....|G-3 2F5F ....|R-- .... ....
....|..|C-4 AF.F ....|A-5 2F.F ....|A-5 2F.F ....
 E-4|..|E-5 2C.F ....|C-4 2F9A ....|R-- .... ....
....|..|C-4 AF.F ....|G-5 2F.F ....|G-5 2F.F ....
 C-3|..|C-4 2C.F ....|R-- .... ....|A-5 2F.A ....
....|..|C-4 CF.F ....|C-4 2F97 ....|R-- .... ....
....|..|C-4 CF.F ....|A-3 2F4F ....|G-5 2F.A ....
....|..|C-4 CF.F ....|D-4 2F6F ....|A-5 2F.7 ....
....|..|E-5 2F.7 ....|R-- .... ....|R-- .... ....
....|..|C-4 AF.F ....|D-5 2F.F ....|D-5 2F.F ....
 F-4|..|F-5 2C.F ....|D-4 2F6A ....|R-- .... ....
....|..|C-4 AF.F ....|R-- .... ....|--- .... ....
 D-4|..|D-4 2C.F ....|A-3 2F4A ....|D-5 2F.A ....
....|..|C-4 CF.F ....|E-4 2F7F ....|--- .... ....
 C-3|..|C-4 2C.F ....|A-3 2F47 ....|--- .... ....
....|..|C-4 CF.F ....|C-4 2F9F ....|D-5 2F.7 ....
....|..|C-3 2F.A ....|R-- .... ....|--- .... ....
....|..|C-4 AF.F ....|R-- .... ....|--- .... ....
 E-4|..|E-5 2C.F ....|C-4 2F9A ....|R-- .... ....
....|..|C-4 AF.F ....|F-4 2F8F ....|--- .... ....
 C-3|..|C-4 2C.F ....|A-3 2F4F ....|--- .... ....
....|..|C-4 CF.F ....|D-5 2F.7 ....|--- .... ....
....|..|C-4 CF.F ....|F-4 2F8A ....|--- .... ....
....|..|C-4 CF.F ....|A-3 2F4F ....|--- .... ....
....|..|E-5 2F.7 ....|R-- .... ....|--- .... ....
....|..|C-4 AF.F ....|E-4 2F7F ....|--- .... ....
 F-4|..|F-5 2C.F ....|A-3 2F4A ....|--- .... ....
....|..|C-4 AF.F ....|E-5 2F.F ....|E-5 2F.F ....
 D-4|..|D-4 2C.F ....|E-4 2F7A ....|R-- .... ....
....|..|C-4 CF.F ....|A-3 2F47 ....|--- .... ....
 C-3|..|C-4 2C.F ....|R-- .... ....|E-5 2F.A ....
....|..|C-4 CF.F ....|C-4 2F9F ....|R-- .... ....
....|..|C-3 2F.A ....|G-3 2F5F ....|--- .... ....
....|..|C-4 AF.F ....|C-5 2F.F ....|C-5 2F.F ....
 E-4|..|E-5 2C.F ....|C-4 2F9A ....|R-- .... ....

[Pattern8]
....|..|C-4 AF.F ....|A-5 2F.F ....|A-5 2F.F ....
 C-3|..|C-4 2C.F ....|R-- .... ....|C-5 2F.A ....
....|..|C-4 CF.F ....|C-4 2F97 ....|R-- .... ....
....|..|C-4 CF.F ....|A-3 2F4F ....|A-5 2F.A ....
....|..|C-4 CF.F ....|D-4 2F6F ....|C-5 2F.7 ....
....|..|E-5 2F.7 ....|R-- .... ....|R-- .... ....
....|..|C-4 AF.F ....|A-5 2F.A ....|A-5 2F.7 ....
 F-4|..|F-5 2C.F ....|D-4 2F6A ....|--- .... ....
....|..|C-4 AF.F ....|R-- .... ....|--- .... ....
 D-4|..|D-4 2C.F ....|A-3 2F4A ....|R-- .... ....
....|..|C-4 CF.F ....|E-4 2F7F ....|--- .... ....
 C-3|..|C-4 2C.F ....|A-3 2F47 ....|--- .... ....
....|..|C-4 CF.F ....|C-4 2F9F ....|--- .... ....
....|..|C-3 2F.A ....|R-- .... ....|--- .... ....
....|..|C-4 AF.F ....|R-- .... ....|--- .... ....
 E-4|..|E-5 2C.F ....|C-4 2F9A ....|--- .... ....
....|..|C-4 AF.F ....|F-4 2F8F ....|--- .... ....
 C-3|..|C-4 2C.F ....|A-3 2F4F ....|--- .... ....
....|..|C-4 CF.F ....|C-4 2F97 ....|--- .... ....
....|..|C-4 CF.F ....|F-4 2F8A ....|--- .... ....
....|..|C-4 CF.F ....|A-3 2F4F ....|--- .... ....
....|..|E-5 2F.7 ....|R-- .... ....|--- .... ....
....|..|C-4 AF.F ....|F-4 2F87 ....|--- .... ....
 F-4|..|F-5 2C.F ....|A-3 2F4A ....|--- .... ....
....|..|C-4 AF.F ....|C-6 2F.F ....|C-6 2F.F ....
 D-4|..|D-4 2C.F ....|R-- .... ....|--- .... ....
....|..|C-4 CF.F ....|A-3 2F47 ....|R-- .... ....
 C-3|..|C-4 2C.F ....|R-- .... ....|C-6 2F.A ....
....|..|C-4 CF.F ....|C-4 2F9F ....|--- .... ....
....|..|C-3 2F.A ....|G-3 2F5F ....|R-- .... ....
....|..|C-4 AF.F ....|A-5 2F.F ....|A-5 2F.F ....
 E-4|..|E-5 2C.F ....|C-4 2F9A ....|R-- .... ....
....|..|C-4 AF.F ....|G-5 2F.F ....|G-5 2F.F ....
 C-3|..|C-4 2C.F ....|R-- .... ....|A-5 2F.A ....
....|..|C-4 CF.F ....|C-4 2F97 ....|R-- .... ....
....|..|C-4 CF.F ....|A-3 2F4F ....|G-5 2F.A ....
....|..|C-4 CF.F ....|D-4 2F6F ....|A-5 2F.7 ....
....|..|E-5 2F.7 ....|R-- .... ....|R-- .... ....
....|..|C-4 AF.F ....|D-5 2F.F ....|D-5 2F.F ....
 F-4|..|F-5 2C.F ....|D-4 2F6A ....|R-- .... ....
....|..|C-4 AF.F ....|R-- .... ....|--- .... ....
 D-4|..|D-4 2C.F ....|A-3 2F4A ....|D-5 2F.A ....
....|..|C-4 CF.F ....|E-4 2F7F ....|--- .... ....
 C-3|..|C-4 2C.F ....|A-3 2F47 ....|--- .... ....
....|..|C-4 CF.F ....|D-5 2F.F ....|D-5 2F.F ....
....|..|C-3 2F.A ....|R-- .... ....|--- .... ....
....|..|C-4 AF.F ....|C-4 2F9F ....|R-- .... ....
 E-4|..|E-5 2C.F ....|C-4 2F9A ....|D-5 2F.A ....
....|..|C-4 AF.F ....|F-4 2F8F ....|--- .... ....
 C-3|..|C-4 2C.F ....|A-3 2F4F ....|R-- .... ....
....|..|C-4 CF.F ....|D-5 2F.7 ....|D-5 2F.7 ....
....|..|C-4 CF.F ....|F-4 2F8A ....|--- .... ....
....|..|C-4 CF.F ....|A-3 2F4F ....|R-- .... ....
....|..|E-5 2F.7 ....|R-- .... ....|--- .... ....
....|..|C-4 AF.F ....|E-4 2F7F ....|--- .... ....
 F-4|..|F-5 2C.F ....|A-3 2F4A ....|--- .... ....
....|..|C-4 AF.F ....|R-- .... ....|--- .... ....
 D-4|..|D-4 2C.F ....|E-4 2F7A ....|--- .... ....
....|..|C-4 CF.F ....|A-3 2F47 ....|--- .... ....
 C-3|..|C-4 2C.F ....|R-- .... ....|--- .... ....
....|..|C-4 CF.F ....|C-4 2F9F ....|--- .... ....
....|..|C-3 2F.A ....|G-3 2F5F ....|--- .... ....
....|..|C-4 AF.F ....|R-- .... ....|--- .... ....
 E-4|..|E-5 2C.F ....|C-4 2F9A ....|--- .... ....

[Pattern9]
....|..|C-4 AF.F ....|A-3 2F4F ....|A-3 UFEF ....
 C-3|..|C-4 2C.F ....|R-- .... ....|R-- .... ....
....|..|C-4 CF.F ....|C-4 2F97 ....|A-3 UFEF ....
....|..|C-4 CF.F ....|A-3 2F4A ....|A-3 UFEA ....
....|..|C-4 CF.F ....|A-3 2F4F ....|A-3 UFEF ....
....|..|E-5 2F.7 ....|R-- .... ....|A-3 UFEA ....
....|..|C-4 AF.F ....|A-3 2F47 ....|A-3 UFEF ....
 F-4|..|F-5 2C.F ....|A-3 2F4A ....|A-3 UFEA ....
....|..|C-4 AF.F ....|R-- .... ....|G-3 UFEF ....
 D-4|..|D-4 2C.F ....|--- .... ....|A-3 UFEA ....
....|..|C-4 CF.F ....|A-3 2F47 ....|G-3 UFEF ....
 C-3|..|C-4 2C.F ....|R-- .... ....|G-3 UFEA ....
....|..|C-4 CF.F ....|C-4 2F9F ....|G-3 UFEF ....
....|..|C-3 2F.A ....|R-- .... ....|G-3 UFEA ....
....|..|C-4 AF.F ....|--- .... ....|G-3 UFEF ....
 E-4|..|E-5 2C.F ....|C-4 2F9A ....|G-3 UFEA ....
....|..|C-4 AF.F ....|A-3 2F4F ....|C-4 UFEF ....
 C-3|..|C-4 2C.F ....|R-- .... ....|G-3 UFEA ....
....|..|C-4 CF.F ....|C-4 2F97 ....|G-3 UFE7 ....
....|..|C-4 CF.F ....|A-3 2F4A ....|C-4 UFEA ....
....|..|C-4 CF.F ....|A-3 2F4F ....|G-3 UFEF ....
....|..|E-5 2F.7 ....|R-- .... ....|R-- .... ....
....|..|C-4 AF.F ....|A-3 2F47 ....|C-4 UFE7 ....
 F-4|..|F-5 2C.F ....|A-3 2F4A ....|G-3 UFEA ....
....|..|C-4 AF.F ....|R-- .... ....|F-3 UFEF ....
 D-4|..|D-4 2C.F ....|--- .... ....|R-- .... ....
....|..|C-4 CF.F ....|A-3 2F47 ....|G-3 UFE7 ....
 C-3|..|C-4 2C.F ....|R-- .... ....|F-3 UFEA ....
....|..|C-4 CF.F ....|G-3 2F5F ....|E-3 UFEF ....
....|..|C-3 2F.A ....|R-- .... ....|R-- .... ....
....|..|C-4 AF.F ....|--- .... ....|E-3 UFEF ....
 E-4|..|E-5 2C.F ....|G-3 2F5A ....|E-3 UFEA ....
....|..|C-4 AF.F ....|A-3 2F4F ....|D-3 UFEF ....
 C-3|..|C-4 2C.F ....|R-- .... ....|E-3 UFEA ....
....|..|C-4 CF.F ....|G-3 2F57 ....|E-3 UFE7 ....
....|..|C-4 CF.F ....|A-3 2F4A ....|D-3 UFEA ....
....|..|C-4 CF.F ....|A-3 2F4F ....|E-3 UFE7 ....
....|..|E-5 2F.7 ....|R-- .... ....|--- .... ....
....|..|C-4 AF.F ....|A-3 2F47 ....|D-3 UFE7 ....
 F-4|..|F-5 2C.F ....|A-3 2F4A ....|--- .... ....
....|..|C-4 AF.F ....|R-- .... ....|--- .... ....
 D-4|..|D-4 2C.F ....|--- .... ....|--- .... ....
....|..|C-4 CF.F ....|A-3 2F47 ....|R-- .... ....
 C-3|..|C-4 2C.F ....|R-- .... ....|--- .... ....
....|..|C-4 CF.F ....|C-4 2F9F ....|--- .... ....
....|..|C-3 2F.A ....|R-- .... ....|R-- .... ....
....|..|C-4 AF.F ....|--- .... ....|--- .... ....
 E-4|..|E-5 2C.F ....|C-4 2F9A ....|--- .... ....
....|..|C-4 AF.F ....|A-3 2F4F ....|R-- .... ....
 C-3|..|C-4 2C.F ....|R-- .... ....|--- .... ....
....|..|C-4 CF.F ....|C-4 2F97 ....|--- .... ....
....|..|C-4 CF.F ....|A-3 2F4A ....|--- .... ....
....|..|C-4 CF.F ....|A-3 2F4F ....|--- .... ....
....|..|E-5 2F.7 ....|R-- .... ....|--- .... ....
....|..|C-4 AF.F ....|A-3 2F47 ....|--- .... ....
 F-4|..|F-5 2C.F ....|A-3 2F4A ....|--- .... ....
....|..|C-4 AF.F ....|R-- .... ....|--- .... ....
 D-4|..|D-4 2C.F ....|--- .... ....|--- .... ....
....|..|C-4 CF.F ....|A-3 2F47 ....|--- .... ....
 C-3|..|C-4 2C.F ....|R-- .... ....|--- .... ....
....|..|C-4 CF.F ....|G-3 2F5F ....|--- .... ....
....|..|C-3 2F.A ....|R-- .... ....|--- .... ....
....|..|C-4 AF.F ....|--- .... ....|--- .... ....
 E-4|..|E-5 2C.F ....|G-3 2F5A ....|--- .... ....

[Pattern10]
....|..|C-4 AF.F ....|A-3 2F4F ....|--- .... ....
 C-3|..|C-4 2C.F ....|R-- .... ....|--- .... ....
....|..|C-4 CF.F ....|G-3 2F57 ....|D-3 UFEF ....
....|..|C-4 CF.F ....|A-3 2F4A ....|R-- .... ....
....|..|C-4 CF.F ....|A-3 2F4F ....|A-3 UFEF ....
....|..|E-5 2F.7 ....|R-- .... ....|D-3 UFEA ....
....|..|C-4 AF.F ....|A-3 2F47 ....|A-3 UFEF ....
 F-4|..|F-5 2C.F ....|A-3 2F4A ....|A-3 UFEA ....
....|..|C-4 AF.F ....|R-- .... ....|G-3 UFEF ....
 D-4|..|D-4 2C.F ....|--- .... ....|A-3 UFEA ....
....|..|C-4 CF.F ....|A-3 2F47 ....|G-3 UFEF ....
 C-3|..|C-4 2C.F ....|R-- .... ....|G-3 UFEA ....
....|..|C-4 CF.F ....|C-4 2F9F ....|G-3 UFEF ....
....|..|C-3 2F.A ....|R-- .... ....|G-3 UFEA ....
....|..|C-4 AF.F ....|--- .... ....|F-3 UFEF ....
 E-4|..|E-5 2C.F ....|C-4 2F9A ....|G-3 UFEA ....
....|..|C-4 AF.F ....|A-3 2F4F ....|A-3 UFEF ....
 C-3|..|C-4 2C.F ....|R-- .... ....|F-3 UFEA ....
....|..|C-4 CF.F ....|C-4 2F97 ....|G-3 UFE7 ....
....|..|C-4 CF.F ....|A-3 2F4A ....|A-3 UFEA ....
....|..|C-4 CF.F ....|A-3 2F4F ....|F-3 UFE7 ....
....|..|E-5 2F.7 ....|R-- .... ....|R-- .... ....
....|..|C-4 AF.F ....|A-3 2F47 ....|A-3 UFE7 ....
 F-4|..|F-5 2C.F ....|A-3 2F4A ....|R-- .... ....
....|..|C-4 AF.F ....|R-- .... ....|E-3 UFEF ....
 D-4|..|D-4 2C.F ....|--- .... ....|--- .... ....
....|..|C-4 CF.F ....|A-3 2F47 ....|R-- .... ....
 C-3|..|C-4 2C.F ....|R-- .... ....|D-3 UFEF ....
....|..|C-4 CF.F ....|G-3 2F5F ....|--- .... ....
....|..|C-3 2F.A ....|R-- .... ....|R-- .... ....
....|..|C-4 AF.F ....|--- .... ....|C-3 UFEF ....
 E-4|..|E-5 2C.F ....|G-3 2F5A ....|--- .... ....
....|..|C-4 AF.F ....|A-3 2F4F ....|D-3 UFEF ....
 C-3|..|C-4 2C.F ....|R-- .... ....|D-3 UFE7 ....
....|..|C-4 CF.F ....|G-3 2F57 ....|--- .... ....
....|..|C-4 CF.F ....|A-3 2F4A ....|D-3 UFEA ....
....|..|C-4 CF.F ....|A-3 2F4F ....|C-3 UFE7 ....
....|..|E-5 2F.7 ....|R-- .... ....|--- .... ....
....|..|C-4 AF.F ....|A-3 2F47 ....|D-3 UFE7 ....
 F-4|..|F-5 2C.F ....|A-3 2F4A ....|R-- .... ....
....|..|C-4 AF.F ....|R-- .... ....|--- .... ....
 D-4|..|D-4 2C.F ....|--- .... ....|--- .... ....
....|..|C-4 CF.F ....|A-3 2F47 ....|R-- .... ....
 C-3|..|C-4 2C.F ....|R-- .... ....|--- .... ....
....|..|C-4 CF.F ....|C-4 2F9F ....|--- .... ....
....|..|C-3 2F.A ....|R-- .... ....|R-- .... ....
....|..|C-4 AF.F ....|--- .... ....|--- .... ....
 E-4|..|E-5 2C.F ....|C-4 2F9A ....|--- .... ....
....|..|C-4 AF.F ....|A-3 2F4F ....|--- .... ....
 C-3|..|C-4 2C.F ....|R-- .... ....|--- .... ....
....|..|C-4 CF.F ....|C-4 2F97 ....|--- .... ....
....|..|C-4 CF.F ....|A-3 2F4A ....|--- .... ....
....|..|C-4 CF.F ....|A-3 2F4F ....|--- .... ....
....|..|E-5 2F.7 ....|R-- .... ....|--- .... ....
....|..|C-4 AF.F ....|A-3 2F47 ....|--- .... ....
 F-4|..|F-5 2C.F ....|A-3 2F4A ....|--- .... ....
....|..|C-4 AF.F ....|R-- .... ....|--- .... ....
 D-4|..|D-4 2C.F ....|--- .... ....|--- .... ....
....|..|C-4 CF.F ....|A-3 2F47 ....|--- .... ....
 C-3|..|C-4 2C.F ....|R-- .... ....|--- .... ....
....|..|C-4 CF.F ....|G-3 2F5F ....|--- .... ....
....|..|C-3 2F.A ....|R-- .... ....|--- .... ....
....|..|C-4 AF.F ....|--- .... ....|--- .... ....
 E-4|..|E-5 2C.F ....|G-3 2F5A ....|--- .... ....

[Pattern11]
....|..|C-4 AF.F ....|A-3 2F4F ....|--- .... ....
 C-3|..|C-4 2C.F ....|R-- .... ....|--- .... ....
....|..|C-4 CF.F ....|G-3 2F57 ....|D-3 UFEF ....
....|..|C-4 CF.F ....|A-3 2F4A ....|R-- .... ....
....|..|C-4 CF.F ....|A-3 2F4F ....|A-3 UFEF ....
....|..|E-5 2F.7 ....|R-- .... ....|D-3 UFEA ....
....|..|C-4 AF.F ....|A-3 2F47 ....|A-3 UFEF ....
 F-4|..|F-5 2C.F ....|A-3 2F4A ....|A-3 UFEA ....
....|..|C-4 AF.F ....|R-- .... ....|G-3 UFEF ....
 D-4|..|D-4 2C.F ....|--- .... ....|A-3 UFEA ....
....|..|C-4 CF.F ....|A-3 2F47 ....|G-3 UFEF ....
 C-3|..|C-4 2C.F ....|R-- .... ....|G-3 UFEA ....
....|..|C-4 CF.F ....|C-4 2F9F ....|G-3 UFEF ....
....|..|C-3 2F.A ....|R-- .... ....|G-3 UFEA ....
....|..|C-4 AF.F ....|--- .... ....|G-3 UFEF ....
 E-4|..|E-5 2C.F ....|C-4 2F9A ....|G-3 UFEA ....
....|..|C-4 AF.F ....|A-3 2F4F ....|C-4 UFEF ....
 C-3|..|C-4 2C.F ....|R-- .... ....|G-3 UFEA ....
....|..|C-4 CF.F ....|C-4 2F97 ....|G-3 UFE7 ....
....|..|C-4 CF.F ....|A-3 2F4A ....|C-4 UFEA ....
....|..|C-4 CF.F ....|A-3 2F4F ....|A-3 UFEF ....
....|..|E-5 2F.7 ....|R-- .... ....|R-- .... ....
....|..|C-4 AF.F ....|A-3 2F47 ....|C-4 UFE7 ....
 F-4|..|F-5 2C.F ....|A-3 2F4A ....|A-3 UFEA ....
....|..|C-4 AF.F ....|R-- .... ....|G-3 UFEF ....
 D-4|..|D-4 2C.F ....|--- .... ....|R-- .... ....
....|..|C-4 CF.F ....|A-3 2F47 ....|A-3 UFE7 ....
 C-3|..|C-4 2C.F ....|R-- .... ....|G-3 UFEA ....
....|..|C-4 CF.F ....|G-3 2F5F ....|R-- .... ....
....|..|C-3 2F.A ....|R-- .... ....|--- .... ....
....|..|C-4 AF.F ....|--- .... ....|G-3 UFE7 ....
 E-4|..|E-5 2C.F ....|G-3 2F5A ....|R-- .... ....
....|..|C-4 AF.F ....|A-3 2F4F ....|--- .... ....
 C-3|..|C-4 2C.F ....|R-- .... ....|--- .... ....
....|..|C-4 CF.F ....|G-3 2F57 ....|R-- .... ....
....|..|C-4 CF.F ....|A-3 2F4A ....|--- .... ....
....|..|C-4 CF.F ....|A-3 2F4F ....|F-3 UFEF ....
....|..|E-5 2F.7 ....|R-- .... ....|--- .... ....
....|..|C-4 AF.F ....|A-3 2F47 ....|F-3 UFEF ....
 F-4|..|F-5 2C.F ....|A-3 2F4A ....|F-3 UFEA ....
....|..|C-4 AF.F ....|R-- .... ....|E-3 UFEF ....
 D-4|..|D-4 2C.F ....|--- .... ....|F-3 UFEA ....
....|..|C-4 CF.F ....|A-3 2F47 ....|E-3 UFEF ....
 C-3|..|C-4 2C.F ....|R-- .... ....|E-3 UFEA ....
....|..|C-4 CF.F ....|C-4 2F9F ....|E-3 UFEF ....
....|..|C-3 2F.A ....|R-- .... ....|E-3 UFEA ....
....|..|C-4 AF.F ....|--- .... ....|F-3 UFEF ....
 E-4|..|E-5 2C.F ....|C-4 2F9A ....|E-3 UFEA ....
....|..|C-4 AF.F ....|A-3 2F4F ....|E-3 UFEF ....
 C-3|..|C-4 2C.F ....|R-- .... ....|F-3 UFEA ....
....|..|C-4 CF.F ....|C-4 2F97 ....|E-3 UFE7 ....
....|..|C-4 CF.F ....|A-3 2F4A ....|E-3 UFEA ....
....|..|C-4 CF.F ....|A-3 2F4F ....|D-3 UFEF ....
....|..|E-5 2F.7 ....|R-- .... ....|R-- .... ....
....|..|C-4 AF.F ....|A-3 2F47 ....|D-3 UFEF ....
 F-4|..|F-5 2C.F ....|A-3 2F4A ....|D-3 UFEA ....
....|..|C-4 AF.F ....|R-- .... ....|R-- .... ....
 D-4|..|D-4 2C.F ....|--- .... ....|D-3 UFEA ....
....|..|C-4 CF.F ....|A-3 2F47 ....|D-3 UFE7 ....
 C-3|..|C-4 2C.F ....|R-- .... ....|R-- .... ....
....|..|C-4 CF.F ....|G-3 2F5F ....|D-3 UFE7 ....
....|..|C-3 2F.A ....|R-- .... ....|--- .... ....
....|..|C-4 AF.F ....|--- .... ....|R-- .... ....
 E-4|..|E-5 2C.F ....|G-3 2F5A ....|--- .... ....

[Pattern12]
....|..|C-4 AF.F ....|A-3 2F4F ....|--- .... ....
 C-3|..|C-4 2C.F ....|R-- .... ....|R-- .... ....
....|..|C-4 CF.F ....|G-3 2F57 ....|D-3 UFEF ....
....|..|C-4 CF.F ....|A-3 2F4A ....|R-- .... ....
....|..|C-4 CF.F ....|A-3 2F4F ....|A-3 UFEF ....
....|..|E-5 2F.7 ....|R-- .... ....|D-3 UFEA ....
....|..|C-4 AF.F ....|A-3 2F47 ....|A-3 UFEF ....
 F-4|..|F-5 2C.F ....|A-3 2F4A ....|A-3 UFEA ....
....|..|C-4 AF.F ....|R-- .... ....|G-3 UFEF ....
 D-4|..|D-4 2C.F ....|--- .... ....|A-3 UFEA ....
....|..|C-4 CF.F ....|A-3 2F47 ....|G-3 UFEF ....
 C-3|..|C-4 2C.F ....|R-- .... ....|G-3 UFEA ....
....|..|C-4 CF.F ....|C-4 2F9F ....|G-3 UFEF ....
....|..|C-3 2F.A ....|R-- .... ....|G-3 UFEA ....
....|..|C-4 AF.F ....|--- .... ....|G-3 UFEF ....
 E-4|..|E-5 2C.F ....|C-4 2F9A ....|G-3 UFEA ....
....|..|C-4 AF.F ....|A-3 2F4F ....|C-4 UFEF ....
 C-3|..|C-4 2C.F ....|R-- .... ....|G-3 UFEA ....
....|..|C-4 CF.F ....|C-4 2F97 ....|G-3 UFE7 ....
....|..|C-4 CF.F ....|A-3 2F4A ....|C-4 UFEA ....
....|..|C-4 CF.F ....|A-3 2F4F ....|G-3 UFE7 ....
....|..|E-5 2F.7 ....|R-- .... ....|R-- .... ....
....|..|C-4 AF.F ....|A-3 2F47 ....|G-3 UFEF ....
 F-4|..|F-5 2C.F ....|A-3 2F4A ....|R-- .... ....
....|..|C-4 AF.F ....|R-- .... ....|F-3 UFEF ....
 D-4|..|D-4 2C.F ....|--- .... ....|G-3 UFEA ....
....|..|C-4 CF.F ....|A-3 2F47 ....|R-- .... ....
 C-3|..|C-4 2C.F ....|R-- .... ....|F-3 UFEA ....
....|..|C-4 CF.F ....|G-3 2F5F ....|E-3 UFEF ....
....|..|C-3 2F.A ....|R-- .... ....|R-- .... ....
....|..|C-4 AF.F ....|--- .... ....|F-3 UFE7 ....
 E-4|..|E-5 2C.F ....|G-3 2F5A ....|E-3 UFEA ....
 C-3|..|C-4 2C.F ....|R-- .... ....|E-3 UFEF ....
....|..|E-5 2F.A ....|--- .... ....|--- .... ....
 D-4|..|D-4 2C.F ....|G-3 2F57 ....|D-3 UFEF ....
....|..|C-4 2F.A ....|R-- .... ....|E-3 UFEA ....
 F-4|..|F-5 2C.F ....|A-3 2F4F ....|--- .... ....
....|..|D-4 2F.A ....|--- .... ....|D-3 UFEA ....
 D-4|..|D-4 2C.F ....|--- .... ....|E-3 UFE7 ....
....|..|F-5 2F.A ....|A-3 2F4A ....|--- .... ....
 C-3|..|C-4 2C.F ....|--- .... ....|D-3 UFE7 ....
....|..|D-4 2F.A ....|--- .... ....|--- .... ....
....|..|F-5 2F.7 ....|A-3 2F47 ....|--- .... ....
....|..|C-4 2F.A ....|--- .... ....|--- .... ....
 E-4|..|E-5 2C.F ....|G-3 2F5F ....|--- .... ....
....|..|--- .... ....|--- .... ....|R-- .... ....
 C-3|..|C-4 2C.F ....|--- .... ....|--- .... ....
....|..|E-5 2F.A ....|G-3 2F5A ....|--- .... ....
 D-4|..|D-4 2C.F ....|--- .... ....|R-- .... ....
....|..|C-4 2F.A ....|--- .... ....|--- .... ....
....|..|E-5 2F.7 ....|G-3 2F57 ....|--- .... ....
....|..|D-4 2F.A ....|--- .... ....|R-- .... ....
 F-4|..|F-5 2C.F ....|A-3 2F4F ....|--- .... ....
....|..|--- .... ....|--- .... ....|--- .... ....
 D-4|..|D-4 2C.F ....|--- .... ....|--- .... ....
....|..|F-5 2F.A ....|A-3 2F4A ....|--- .... ....
 C-3|..|C-4 2C.F ....|--- .... ....|--- .... ....
....|..|D-4 2F.A ....|--- .... ....|--- .... ....
....|..|F-5 2F.7 ....|A-3 2F47 ....|--- .... ....
....|..|C-4 2F.A ....|--- .... ....|--- .... ....
 E-4|..|E-5 2C.F ....|G-3 2F5F ....|--- .... ....
....|..|--- .... ....|--- .... ....|--- .... ....
 C-3|..|C-4 2C.F ....|--- .... ....|--- .... ....
....|..|E-5 2F.A ....|G-3 2F5A ....|--- .... ....

[Pattern13]
....|..|C-4 AF.F ....|A-6 2F.F ....|A-6 2F.F ....
 D-4|..|D-4 2C.F ....|A-3 2F4F ....|--- .... ....
....|..|C-4 LF.F ....|G-3 2F57 ....|R-- .... ....
....|..|C-4 2F.A ....|A-3 2F4A ....|A-6 2F.A ....
....|..|C-4 CF.F ....|D-4 2F6F ....|D-4 UFEF ....
....|..|E-5 2F.7 ....|R-- .... ....|R-- .... ....
....|..|C-4 AF.F ....|A-6 2F.A ....|F-4 UFEF ....
 F-4|..|F-5 2C.F ....|D-4 2F6A ....|D-4 UFEA ....
....|..|C-4 AF.F ....|G-3 2F5F ....|F-4 UFEF ....
 D-4|..|D-4 2C.F ....|A-3 2F47 ....|F-4 UFEA ....
....|..|C-4 LF.F ....|E-4 2F7F ....|F-4 UFEF ....
 C-3|..|C-4 2C.F ....|G-3 2F5A ....|F-4 UFEA ....
....|..|C-4 CF.F ....|C-4 2F9F ....|F-4 UFEF ....
....|..|F-5 2F.7 ....|R-- .... ....|F-4 UFEA ....
....|..|C-4 AF.F ....|R-- .... ....|D-4 UFEF ....
 E-4|..|E-5 2C.F ....|C-4 2F9A ....|F-4 UFEA ....
....|..|C-4 AF.F ....|F-3 2F5F ....|A#4 UFEF ....
 C-3|..|C-4 2C.F ....|A#3 2F9F ....|D-4 UFEA ....
....|..|E-5 2F.A ....|C-4 2F97 ....|F-4 UFE7 ....
....|..|C-4 LF.F ....|F-3 2F5A ....|A#4 UFEA ....
....|..|C-4 CF.F ....|A#3 2F9F ....|D-4 UFE7 ....
....|..|E-5 2F.7 ....|R-- .... ....|R-- .... ....
....|..|C-4 AF.F ....|F-3 2F57 ....|A-4 UFEF ....
 D-4|..|D-5 2C.F ....|A#3 2F9A ....|--- .... ....
....|..|C-4 AF.F ....|C-7 2F.F ....|A-4 UFEF ....
 A#3|..|A#3 2C.F ....|R-- .... ....|R-- .... ....
....|..|C-4 LF.F ....|A#3 2F97 ....|C-7 2F.F ....
 C-3|..|C-4 2C.F ....|G-3 2F5A ....|A-4 UFEA ....
....|..|C-4 CF.F ....|C-4 2F9F ....|R-- .... ....
....|..|D-5 2F.7 ....|G-3 2F5F ....|C-7 2F.A ....
....|..|C-4 AF.F ....|G-6 2F.F ....|G-6 2F.F ....
 E-4|..|E-5 2C.F ....|C-4 2F9A ....|R-- .... ....
....|..|C-4 AF.F ....|A-3 2F4F ....|--- .... ....
 C-3|..|C-4 2C.F ....|R-- .... ....|G-6 2F.A ....
....|..|C-4 LF.F ....|A-6 2F.F ....|A-6 2F.F ....
 D-4|..|D-4 2C.F ....|A-3 2F4A ....|--- .... ....
....|..|C-4 CF.F ....|D-4 2F6F ....|A-4 UFEF ....
....|..|E-5 2F.7 ....|R-- .... ....|A-6 2F.A ....
....|..|C-4 AF.F ....|A-3 2F47 ....|A-4 UFEF ....
 F-4|..|F-5 2C.F ....|D-4 2F6A ....|A-4 UFEA ....
....|..|C-4 AF.F ....|G-3 2F5F ....|G-4 UFEF ....
 D-4|..|D-4 2C.F ....|A-3 2F47 ....|A-4 UFEA ....
....|..|C-4 LF.F ....|E-4 2F7F ....|G-4 UFEF ....
 C-3|..|C-4 2C.F ....|G-3 2F5A ....|G-4 UFEA ....
....|..|C-4 CF.F ....|C-4 2F9F ....|G-4 UFEF ....
....|..|C-3 2F.A ....|R-- .... ....|G-4 UFEA ....
....|..|C-4 AF.F ....|R-- .... ....|G-4 UFEF ....
 E-4|..|E-5 2C.F ....|C-4 2F9A ....|G-4 UFEA ....
....|..|C-4 AF.F ....|F-6 2F.F ....|C-5 UFEF ....
 C-3|..|C-4 2C.F ....|A#3 2F9F ....|R-- .... ....
....|..|E-5 2F.A ....|C-4 2F97 ....|C-5 UFEF ....
....|..|C-4 LF.F ....|F-3 2F5A ....|C-5 UFEA ....
....|..|C-4 CF.F ....|A#3 2F9F ....|C-5 UFEF ....
....|..|E-5 2F.7 ....|R-- .... ....|C-5 UFEA ....
....|..|C-4 AF.F ....|D-4 2F7F ....|C-5 UFEF ....
 D-4|..|D-5 2C.F ....|A#3 2F9A ....|C-5 UFEA ....
....|..|C-4 AF.F ....|C-6 2F.F ....|C-6 2F.F ....
 A#3|..|A#3 2C.F ....|D-4 2F7A ....|R-- .... ....
....|..|C-4 LF.F ....|A#3 2F97 ....|A#4 UFEF ....
 C-3|..|C-4 2C.F ....|G-3 2F5A ....|C-6 2F.A ....
....|..|C-4 CF.F ....|C-4 2F9F ....|A-4 UFEF ....
....|..|C-3 2F.A ....|G-3 2F5F ....|A#4 UFEA ....
....|..|C-4 AF.F ....|G-6 2F.F ....|G-4 UFEF ....
 E-4|..|E-5 2C.F ....|C-4 2F9A ....|A-4 UFEA ....

[Pattern14]
....|..|C-4 AF.F ....|A-3 2F4F ....|F-4 UFEF ....
 C-3|..|C-4 2C.F ....|R-- .... ....|G-4 UFEA ....
....|..|C-4 LF.F ....|A-6 2F.F ....|A-6 2F.F ....
 D-4|..|D-4 2C.F ....|A-3 2F4A ....|F-4 UFEA ....
....|..|C-4 CF.F ....|D-4 2F6F ....|G-4 UFE7 ....
....|..|E-5 2F.7 ....|R-- .... ....|A-6 2F.A ....
....|..|C-4 AF.F ....|A-3 2F47 ....|D-4 UFEF ....
 F-4|..|F-5 2C.F ....|D-4 2F6A ....|R-- .... ....
....|..|C-4 AF.F ....|G-3 2F5F ....|D-4 UFEF ....
 D-4|..|D-4 2C.F ....|A-3 2F47 ....|D-4 UFEA ....
....|..|C-4 LF.F ....|E-4 2F7F ....|F-4 UFEF ....
 C-3|..|C-4 2C.F ....|G-3 2F5A ....|D-4 UFEA ....
....|..|C-4 CF.F ....|C-4 2F9F ....|F-4 UFEF ....
....|..|F-5 2F.7 ....|R-- .... ....|F-4 UFEA ....
....|..|C-4 AF.F ....|R-- .... ....|D-4 UFEF ....
 E-4|..|E-5 2C.F ....|C-4 2F9A ....|F-4 UFEA ....
....|..|C-4 AF.F ....|F-3 2F5F ....|A#4 UFEF ....
 C-3|..|C-4 2C.F ....|A#3 2F9F ....|D-4 UFEA ....
....|..|E-5 2F.A ....|C-4 2F97 ....|F-4 UFE7 ....
....|..|C-4 LF.F ....|F-3 2F5A ....|A#4 UFEA ....
....|..|C-4 CF.F ....|A#3 2F9F ....|D-4 UFE7 ....
....|..|E-5 2F.7 ....|R-- .... ....|--- .... ....
....|..|C-4 AF.F ....|F-3 2F57 ....|A-4 UFEF ....
 D-4|..|D-5 2C.F ....|A#3 2F9A ....|R-- .... ....
....|..|C-4 AF.F ....|C-7 2F.F ....|A-4 UFEF ....
 A#3|..|A#3 2C.F ....|R-- .... ....|R-- .... ....
....|..|C-4 LF.F ....|A#3 2F97 ....|C-7 2F.F ....
 C-3|..|C-4 2C.F ....|G-3 2F5A ....|A-4 UFEA ....
....|..|C-4 CF.F ....|C-4 2F9F ....|D-4 UFEF ....
....|..|D-5 2F.7 ....|G-3 2F5F ....|C-7 2F.A ....
....|..|C-4 AF.F ....|G-6 2F.F ....|D-4 UFEF ....
 E-4|..|E-5 2C.F ....|C-4 2F9A ....|D-4 UFEA ....
....|..|C-4 AF.F ....|A-3 2F4F ....|A-4 UFEF ....
 C-3|..|C-4 2C.F ....|R-- .... ....|D-4 UFEA ....
....|..|C-4 LF.F ....|A-6 2F.F ....|A-4 UFEF ....
 D-4|..|D-4 2C.F ....|A-3 2F4A ....|A-4 UFEA ....
....|..|C-4 CF.F ....|D-4 2F6F ....|A-4 UFEF ....
....|..|E-5 2F.7 ....|R-- .... ....|A-4 UFEA ....
....|..|C-4 AF.F ....|A-3 2F47 ....|G-4 UFEF ....
 F-4|..|F-5 2C.F ....|D-4 2F6A ....|A-4 UFEA ....
....|..|C-4 AF.F ....|G-3 2F5F ....|G-4 UFEF ....
 D-4|..|D-4 2C.F ....|A-3 2F47 ....|G-4 UFEA ....
....|..|C-4 LF.F ....|E-4 2F7F ....|D-4 UFEF ....
 C-3|..|C-4 2C.F ....|G-3 2F5A ....|G-4 UFEA ....
....|..|C-4 CF.F ....|C-4 2F9F ....|D-4 UFEF ....
....|..|C-3 2F.A ....|R-- .... ....|D-4 UFEA ....
....|..|C-4 AF.F ....|G-6 2F.F ....|D-4 UFEF ....
 E-4|..|E-5 2C.F ....|C-4 2F9A ....|R-- .... ....
....|..|C-4 AF.F ....|F-3 2F5F ....|D-4 UFEF ....
 C-3|..|C-4 2C.F ....|A#3 2F9F ....|D-4 UFEA ....
....|..|E-5 2F.A ....|F-6 2F.F ....|F-6 2F.F ....
....|..|C-4 LF.F ....|F-3 2F5A ....|D-4 UFEA ....
....|..|C-4 CF.F ....|A#3 2F9F ....|C-4 UFEF ....
....|..|E-5 2F.7 ....|R-- .... ....|F-6 2F.A ....
....|..|C-4 AF.F ....|D-4 2F7F ....|D-4 UFE7 ....
 D-4|..|D-5 2C.F ....|A#3 2F9A ....|C-4 UFEA ....
....|..|C-4 AF.F ....|G-3 2F5F ....|C-4 UFEF ....
 A#3|..|A#3 2C.F ....|D-4 2F7A ....|F-6 2F.7 ....
....|..|C-4 LF.F ....|A#3 2F97 ....|C-4 UFE7 ....
 C-3|..|C-4 2C.F ....|G-3 2F5A ....|C-4 UFEA ....
....|..|C-4 CF.F ....|C-4 2F9F ....|R-- .... ....
....|..|C-3 2F.A ....|G-3 2F5F ....|R-- .... ....
....|..|C-4 AF.F ....|G-6 2F.F ....|G-6 2F.F ....
 E-4|..|E-5 2C.F ....|C-4 2F9A ....|R-- .... ....

[Pattern15]
....|..|C-4 AF.F ....|A-3 2F4F ....|--- .... ....
 C-3|..|C-4 2C.F ....|R-- .... ....|G-6 2F.A ....
....|..|C-4 LF.F ....|A-6 2F.F ....|A-6 2F.F ....
 D-4|..|D-4 2C.F ....|A-3 2F4A ....|--- .... ....
....|..|C-4 CF.F ....|D-4 2F6F ....|D-4 UFEF ....
....|..|E-5 2F.7 ....|R-- .... ....|A-6 2F.A ....
....|..|C-4 AF.F ....|A-3 2F47 ....|F-4 UFEF ....
 F-4|..|F-5 2C.F ....|D-4 2F6A ....|D-4 UFEA ....
....|..|C-4 AF.F ....|G-3 2F5F ....|F-4 UFEF ....
 D-4|..|D-4 2C.F ....|A-3 2F47 ....|F-4 UFEA ....
....|..|C-4 LF.F ....|E-4 2F7F ....|F-4 UFEF ....
 C-3|..|C-4 2C.F ....|G-3 2F5A ....|F-4 UFEA ....
....|..|C-4 CF.F ....|C-4 2F9F ....|F-4 UFEF ....
....|..|F-5 2F.7 ....|R-- .... ....|F-4 UFEA ....
....|..|C-4 AF.F ....|R-- .... ....|D-4 UFEF ....
 E-4|..|E-5 2C.F ....|C-4 2F9A ....|F-4 UFEA ....
....|..|C-4 AF.F ....|F-3 2F5F ....|A#4 UFEF ....
 C-3|..|C-4 2C.F ....|A#3 2F9F ....|D-4 UFEA ....
....|..|E-5 2F.A ....|C-4 2F97 ....|F-4 UFE7 ....
....|..|C-4 LF.F ....|F-3 2F5A ....|A#4 UFEA ....
....|..|C-4 CF.F ....|A#3 2F9F ....|D-4 UFE7 ....
....|..|E-5 2F.7 ....|R-- .... ....|R-- .... ....
....|..|C-4 AF.F ....|F-3 2F57 ....|A-4 UFEF ....
 D-4|..|D-5 2C.F ....|A#3 2F9A ....|--- .... ....
....|..|C-4 AF.F ....|C-7 2F.F ....|A-4 UFEF ....
 A#3|..|A#3 2C.F ....|R-- .... ....|R-- .... ....
....|..|C-4 LF.F ....|A#3 2F97 ....|C-7 2F.F ....
 C-3|..|C-4 2C.F ....|G-3 2F5A ....|A-4 UFEA ....
....|..|C-4 CF.F ....|C-4 2F9F ....|R-- .... ....
....|..|D-5 2F.7 ....|G-3 2F5F ....|C-7 2F.A ....
....|..|C-4 AF.F ....|G-6 2F.F ....|G-6 2F.F ....
 E-4|..|E-5 2C.F ....|C-4 2F9A ....|R-- .... ....
....|..|C-4 AF.F ....|A-3 2F4F ....|--- .... ....
 C-3|..|C-4 2C.F ....|R-- .... ....|G-6 2F.A ....
....|..|C-4 LF.F ....|A-6 2F.F ....|A-6 2F.F ....
 D-4|..|D-4 2C.F ....|A-3 2F4A ....|--- .... ....
....|..|C-4 CF.F ....|D-4 2F6F ....|A-4 UFEF ....
....|..|E-5 2F.7 ....|R-- .... ....|A-6 2F.A ....
....|..|C-4 AF.F ....|A-3 2F47 ....|A-4 UFEF ....
 F-4|..|F-5 2C.F ....|D-4 2F6A ....|A-4 UFEA ....
....|..|C-4 AF.F ....|G-3 2F5F ....|G-4 UFEF ....
 D-4|..|D-4 2C.F ....|A-3 2F47 ....|A-4 UFEA ....
....|..|C-4 LF.F ....|E-4 2F7F ....|A-4 UFE7 ....
 C-3|..|C-4 2C.F ....|G-3 2F5A ....|G-4 UFEF ....
....|..|C-4 CF.F ....|C-4 2F9F ....|G-4 UFEF ....
....|..|C-3 2F.A ....|R-- .... ....|R-- .... ....
....|..|C-4 AF.F ....|R-- .... ....|G-4 UFEF ....
 E-4|..|E-5 2C.F ....|C-4 2F9A ....|G-4 UFEA ....
....|..|C-4 AF.F ....|F-6 2F.F ....|C-5 UFEF ....
 C-3|..|C-4 2C.F ....|A#3 2F9F ....|R-- .... ....
....|..|E-5 2F.A ....|C-4 2F97 ....|C-5 UFEF ....
....|..|C-4 LF.F ....|F-3 2F5A ....|C-5 UFEA ....
....|..|C-4 CF.F ....|A#3 2F9F ....|C-5 UFEF ....
....|..|E-5 2F.7 ....|R-- .... ....|C-5 UFEA ....
....|..|C-4 AF.F ....|D-4 2F7F ....|C-5 UFEF ....
 D-4|..|D-5 2C.F ....|A#3 2F9A ....|C-5 UFEA ....
....|..|C-4 AF.F ....|C-6 2F.F ....|A#4 UFEF ....
 A#3|..|A#3 2C.F ....|D-4 2F7A ....|R-- .... ....
....|..|C-4 LF.F ....|A#3 2F97 ....|C-5 UFE7 ....
 C-3|..|C-4 2C.F ....|G-3 2F5A ....|A#4 UFEA ....
....|..|C-4 CF.F ....|C-4 2F9F ....|A-4 UFEF ....
....|..|C-3 2F.A ....|G-3 2F5F ....|C-6 2F.A ....
....|..|C-4 AF.F ....|G-6 2F.F ....|G-4 UFEF ....
 E-4|..|E-5 2C.F ....|C-4 2F9A ....|A-4 UFEA ....

[Pattern16]
....|..|C-4 AF.F ....|A-3 2F4F ....|F-4 UFEF ....
 C-3|..|C-4 2C.F ....|R-- .... ....|G-4 UFEA ....
....|..|C-4 LF.F ....|A-6 2F.F ....|A-6 2F.F ....
 D-4|..|D-4 2C.F ....|A-3 2F4A ....|F-4 UFEA ....
....|..|C-4 CF.F ....|D-4 2F6F ....|G-4 UFE7 ....
....|..|E-5 2F.7 ....|R-- .... ....|A-6 2F.A ....
....|..|C-4 AF.F ....|A-3 2F47 ....|D-4 UFEF ....
 F-4|..|F-5 2C.F ....|D-4 2F6A ....|R-- .... ....
....|..|C-4 AF.F ....|G-3 2F5F ....|D-4 UFEF ....
 D-4|..|D-4 2C.F ....|A-3 2F47 ....|D-4 UFEA ....
....|..|C-4 LF.F ....|E-4 2F7F ....|F-4 UFEF ....
 C-3|..|C-4 2C.F ....|G-3 2F5A ....|D-4 UFEA ....
....|..|C-4 CF.F ....|C-4 2F9F ....|F-4 UFEF ....
....|..|F-5 2F.7 ....|R-- .... ....|F-4 UFEA ....
....|..|C-4 AF.F ....|R-- .... ....|D-4 UFEF ....
 E-4|..|E-5 2C.F ....|C-4 2F9A ....|F-4 UFEA ....
....|..|C-4 AF.F ....|F-3 2F5F ....|A-4 UFEF ....
 C-3|..|C-4 2C.F ....|A#3 2F9F ....|D-4 UFEA ....
....|..|E-5 2F.A ....|C-4 2F97 ....|F-4 UFE7 ....
....|..|C-4 LF.F ....|F-3 2F5A ....|A-4 UFEA ....
....|..|C-4 CF.F ....|A#3 2F9F ....|D-4 UFE7 ....
....|..|E-5 2F.7 ....|R-- .... ....|--- .... ....
....|..|C-4 AF.F ....|F-3 2F57 ....|G-4 UFEF ....
 D-4|..|D-5 2C.F ....|A#3 2F9A ....|R-- .... ....
....|..|C-4 AF.F ....|C-7 2F.F ....|G-4 UFEF ....
 A#3|..|A#3 2C.F ....|R-- .... ....|R-- .... ....
....|..|C-4 LF.F ....|A#3 2F97 ....|C-7 2F.F ....
 C-3|..|C-4 2C.F ....|G-3 2F5A ....|G-4 UFEA ....
....|..|C-4 CF.F ....|C-4 2F9F ....|R-- .... ....
....|..|D-5 2F.7 ....|G-3 2F5F ....|C-7 2F.A ....
....|..|C-4 AF.F ....|G-6 2F.F ....|G-6 2F.F ....
 E-4|..|E-5 2C.F ....|C-4 2F9A ....|R-- .... ....
....|..|C-4 AF.F ....|A-3 2F4F ....|G-4 UFEF ....
 C-3|..|C-4 2C.F ....|R-- .... ....|G-6 2F.A ....
....|..|C-4 LF.F ....|A-6 2F.F ....|A-4 UFEF ....
 D-4|..|D-4 2C.F ....|A-3 2F4A ....|G-4 UFEA ....
....|..|C-4 CF.F ....|D-4 2F6F ....|A-4 UFEF ....
....|..|E-5 2F.7 ....|R-- .... ....|A-4 UFEA ....
....|..|C-4 AF.F ....|A-3 2F47 ....|A-4 UFEF ....
 F-4|..|F-5 2C.F ....|D-4 2F6A ....|A-4 UFEA ....
....|..|C-4 AF.F ....|G-3 2F5F ....|F-4 UFEF ....
 D-4|..|D-4 2C.F ....|A-3 2F47 ....|A-4 UFEA ....
....|..|C-4 LF.F ....|E-4 2F7F ....|G-4 UFEF ....
 C-3|..|C-4 2C.F ....|G-3 2F5A ....|F-4 UFEA ....
....|..|C-4 CF.F ....|C-4 2F9F ....|G-4 UFEF ....
....|..|C-3 2F.A ....|R-- .... ....|G-4 UFEA ....
....|..|C-4 AF.F ....|G-6 2F.F ....|G-4 UFEF ....
 E-4|..|E-5 2C.F ....|C-4 2F9A ....|R-- .... ....
....|..|C-4 AF.F ....|F-3 2F5F ....|G-4 UFEF ....
 C-3|..|C-4 2C.F ....|A#3 2F9F ....|G-4 UFEA ....
....|..|E-5 2F.A ....|F-6 2F.F ....|F-6 2F.F ....
....|..|C-4 LF.F ....|F-3 2F5A ....|G-4 UFEA ....
....|..|C-4 CF.F ....|A#3 2F9F ....|F-4 UFEF ....
....|..|E-5 2F.7 ....|R-- .... ....|F-6 2F.A ....
....|..|C-4 AF.F ....|D-4 2F7F ....|G-4 UFE7 ....
 D-4|..|D-5 2C.F ....|A#3 2F9A ....|F-4 UFEA ....
....|..|C-4 AF.F ....|G-3 2F5F ....|F-4 UFEF ....
 A#3|..|A#3 2C.F ....|D-4 2F7A ....|F-6 2F.7 ....
....|..|C-4 LF.F ....|A#3 2F97 ....|F-4 UFE7 ....
 C-3|..|C-4 2C.F ....|G-3 2F5A ....|F-4 UFEA ....
....|..|C-4 CF.F ....|C-4 2F9F ....|R-- .... ....
....|..|C-3 2F.A ....|G-3 2F5F ....|--- .... ....
....|..|C-4 AF.F ....|G-6 2F.F ....|G-6 2F.F ....
 E-4|..|E-5 2C.F ....|C-4 2F9A ....|R-- .... ....

[Pattern17]
....|..|C-4 AF.F ....|A-3 2F4F ....|C-6 2FFF ....
 C-3|..|C-4 2C.F ....|R-- .... ....|G-6 2F.A ....
....|..|C-4 LF.F ....|A-6 2F.F ....|A-6 2F.F ....
 D-4|..|D-4 2C.F ....|A-3 2F4A ....|C-6 2FFA ....
....|..|C-4 CF.F ....|D-4 2F6F ....|C-6 2FFF ....
....|..|E-5 2F.7 ....|R-- .... ....|A-6 2F.A ....
....|..|C-4 AF.F ....|A-3 2F47 ....|C-6 2FF7 ....
 F-4|..|F-5 2C.F ....|D-4 2F6A ....|C-6 2FFA ....
....|..|C-4 AF.F ....|G-3 2F5F ....|G-6 2FFF ....
 D-4|..|D-4 2C.F ....|A-3 2F47 ....|A-6 2F.7 ....
....|..|C-4 LF.F ....|E-4 2F7F ....|C-6 2FF7 ....
 C-3|..|C-4 2C.F ....|G-3 2F5A ....|G-6 2FFA ....
....|..|C-4 CF.F ....|C-4 2F9F ....|G-6 2FFF ....
....|..|F-5 2F.7 ....|R-- .... ....|R-- .... ....
....|..|C-4 AF.F ....|R-- .... ....|G-6 2FF7 ....
 E-4|..|E-5 2C.F ....|C-4 2F9A ....|G-6 2FFA ....
....|..|C-4 AF.F ....|F-3 2F5F ....|A-6 2FFF ....
 C-3|..|C-4 2C.F ....|A#3 2F9F ....|R-- .... ....
....|..|E-5 2F.A ....|C-4 2F97 ....|A#6 2FFF ....
....|..|C-4 LF.F ....|F-3 2F5A ....|A-6 2FFA ....
....|..|C-4 CF.F ....|A#3 2F9F ....|C-7 2FFF ....
....|..|E-5 2F.7 ....|R-- .... ....|A#6 2FFA ....
....|..|C-4 AF.F ....|F-3 2F57 ....|A-6 2FFF ....
 D-4|..|D-5 2C.F ....|A#3 2F9A ....|C-7 2FFA ....
....|..|C-4 AF.F ....|C-7 2F.F ....|C-7 2F.F ....
 A#3|..|A#3 2C.F ....|R-- .... ....|R-- .... ....
....|..|C-4 LF.F ....|A#3 2F97 ....|C-7 2FF7 ....
 C-3|..|C-4 2C.F ....|G-3 2F5A ....|C-7 2F.A ....
....|..|C-4 CF.F ....|C-4 2F9F ....|R-- .... ....
....|..|D-5 2F.7 ....|G-3 2F5F ....|R-- .... ....
....|..|C-4 AF.F ....|G-6 2F.F ....|G-6 2F.F ....
 E-4|..|E-5 2C.F ....|C-4 2F9A ....|R-- .... ....
....|..|C-4 AF.F ....|A-3 2F4F ....|F-6 2FFF ....
 C-3|..|C-4 2C.F ....|R-- .... ....|G-4 UFEF ....
....|..|C-4 LF.F ....|A-6 2F.F ....|A-4 UFEF ....
 D-4|..|D-4 2C.F ....|A-3 2F4A ....|F-6 2FFA ....
....|..|C-4 CF.F ....|D-4 2F6F ....|F-6 2FFF ....
....|..|E-5 2F.7 ....|R-- .... ....|G-4 UFEA ....
....|..|C-4 AF.F ....|A-3 2F47 ....|A-4 UFEF ....
 F-4|..|F-5 2C.F ....|D-4 2F6A ....|F-6 2FFA ....
....|..|C-4 AF.F ....|G-3 2F5F ....|E-6 2FFF ....
 D-4|..|D-4 2C.F ....|A-3 2F47 ....|A-4 UFEA ....
....|..|C-4 LF.F ....|E-4 2F7F ....|G-4 UFEF ....
 C-3|..|C-4 2C.F ....|G-3 2F5A ....|E-6 2FFA ....
....|..|C-4 CF.F ....|C-4 2F9F ....|E-6 2FFF ....
....|..|C-3 2F.A ....|R-- .... ....|F-4 UFEA ....
....|..|C-4 AF.F ....|R-- .... ....|G-4 UFEF ....
 E-4|..|E-5 2C.F ....|C-4 2F9A ....|E-6 2FFA ....
....|..|C-4 AF.F ....|F-6 2F.F ....|D-6 2FFF ....
 C-3|..|C-4 2C.F ....|A#3 2F9F ....|R-- .... ....
....|..|E-5 2F.A ....|C-4 2F97 ....|E-6 2FF7 ....
....|..|C-4 LF.F ....|F-3 2F5A ....|D-6 2FFA ....
....|..|C-4 CF.F ....|A#3 2F9F ....|D-6 2FFF ....
....|..|E-5 2F.7 ....|R-- .... ....|G-4 UFE7 ....
....|..|C-4 AF.F ....|D-4 2F7F ....|D-6 2FF7 ....
 D-4|..|D-5 2C.F ....|A#3 2F9A ....|D-6 2FFA ....
....|..|C-4 AF.F ....|C-6 2F.F ....|C-6 2FFF ....
 A#3|..|A#3 2C.F ....|D-4 2F7A ....|R-- .... ....
....|..|C-4 LF.F ....|A#3 2F97 ....|D-6 2FF7 ....
 C-3|..|C-4 2C.F ....|G-3 2F5A ....|C-6 2FFA ....
....|..|C-4 CF.F ....|C-4 2F9F ....|R-- .... ....
....|..|C-3 2F.A ....|G-3 2F5F ....|F-4 UFEA ....
....|..|C-4 AF.F ....|G-6 2F.F ....|G-6 2F.F ....
 E-4|..|E-5 2C.F ....|C-4 2F9A ....|F-4 UFE7 ....

[Pattern18]
....|..|C-4 AF.F ....|A-3 2F4F ....|C-6 2FFF ....
 C-3|..|C-4 2C.F ....|R-- .... ....|G-6 2F.A ....
....|..|C-4 LF.F ....|A-6 2F.F ....|A-6 2F.F ....
 D-4|..|D-4 2C.F ....|A-3 2F4A ....|C-6 2FFA ....
....|..|C-4 CF.F ....|D-4 2F6F ....|C-6 2FFF ....
....|..|E-5 2F.7 ....|R-- .... ....|A-6 2F.A ....
....|..|C-4 AF.F ....|A-3 2F47 ....|C-6 2FF7 ....
 F-4|..|F-5 2C.F ....|D-4 2F6A ....|C-6 2FFA ....
....|..|C-4 AF.F ....|G-3 2F5F ....|G-6 2FFF ....
 D-4|..|D-4 2C.F ....|A-3 2F47 ....|A-6 2F.7 ....
....|..|C-4 LF.F ....|E-4 2F7F ....|C-6 2FF7 ....
 C-3|..|C-4 2C.F ....|G-3 2F5A ....|G-6 2FFA ....
....|..|C-4 CF.F ....|C-4 2F9F ....|G-6 2FFF ....
....|..|F-5 2F.7 ....|R-- .... ....|R-- .... ....
....|..|C-4 AF.F ....|R-- .... ....|G-6 2FF7 ....
 E-4|..|E-5 2C.F ....|C-4 2F9A ....|G-6 2FFA ....
....|..|C-4 AF.F ....|F-3 2F5F ....|A-6 2FFF ....
 C-3|..|C-4 2C.F ....|A#3 2F9F ....|R-- .... ....
....|..|E-5 2F.A ....|C-4 2F97 ....|A#6 2FFF ....
....|..|C-4 LF.F ....|F-3 2F5A ....|A-6 2FFA ....
....|..|C-4 CF.F ....|A#3 2F9F ....|C-7 2FFF ....
....|..|E-5 2F.7 ....|R-- .... ....|A#6 2FFA ....
....|..|C-4 AF.F ....|F-3 2F57 ....|A-6 2FFF ....
 D-4|..|D-5 2C.F ....|A#3 2F9A ....|C-7 2FFA ....
....|..|C-4 AF.F ....|C-7 2F.F ....|C-7 2F.F ....
 A#3|..|A#3 2C.F ....|R-- .... ....|R-- .... ....
....|..|C-4 LF.F ....|A#3 2F97 ....|C-7 2FF7 ....
 C-3|..|C-4 2C.F ....|G-3 2F5A ....|C-7 2F.A ....
....|..|C-4 CF.F ....|C-4 2F9F ....|R-- .... ....
....|..|D-5 2F.7 ....|G-3 2F5F ....|R-- .... ....
....|..|C-4 AF.F ....|G-6 2F.F ....|G-6 2F.F ....
 E-4|..|E-5 2C.F ....|C-4 2F9A ....|R-- .... ....
....|..|C-4 AF.F ....|A-3 2F4F ....|D-6 2FFF ....
 C-3|..|C-4 2C.F ....|R-- .... ....|G-4 UFEF ....
....|..|C-4 LF.F ....|A-6 2F.F ....|A-4 UFEF ....
 D-4|..|D-4 2C.F ....|A-3 2F4A ....|D-6 2FFA ....
....|..|C-4 CF.F ....|D-4 2F6F ....|D-6 2FFF ....
....|..|E-5 2F.7 ....|R-- .... ....|G-4 UFEA ....
....|..|C-4 AF.F ....|A-3 2F47 ....|A-4 UFEF ....
 F-4|..|F-5 2C.F ....|D-4 2F6A ....|D-6 2FFA ....
....|..|C-4 AF.F ....|G-3 2F5F ....|F-4 UFEF ....
 D-4|..|D-4 2C.F ....|A-3 2F47 ....|A-4 UFEA ....
....|..|C-4 LF.F ....|E-4 2F7F ....|G-4 UFEF ....
 C-3|..|C-4 2C.F ....|G-3 2F5A ....|A-4 UFEA ....
....|..|C-4 CF.F ....|C-4 2F9F ....|E-6 2FFF ....
....|..|C-3 2F.A ....|R-- .... ....|F-4 UFEA ....
....|..|C-4 AF.F ....|G-6 2F.F ....|G-4 UFEF ....
 E-4|..|E-5 2C.F ....|C-4 2F9A ....|R-- .... ....
....|..|C-4 AF.F ....|F-3 2F5F ....|D-6 2FFF ....
 C-3|..|C-4 2C.F ....|A#3 2F9F ....|G-4 UFEF ....
....|..|E-5 2F.A ....|F-6 2F.F ....|F-6 2F.F ....
....|..|C-4 LF.F ....|F-3 2F5A ....|D-6 2FFA ....
....|..|C-4 CF.F ....|A#3 2F9F ....|D-6 2FFF ....
....|..|E-5 2F.7 ....|R-- .... ....|F-6 2F.A ....
....|..|C-4 AF.F ....|D-4 2F7F ....|D-6 2FF7 ....
 D-4|..|D-5 2C.F ....|A#3 2F9A ....|D-6 2FFA ....
....|..|C-4 AF.F ....|G-3 2F5F ....|F-4 UFEF ....
 A#3|..|A#3 2C.F ....|D-4 2F7A ....|F-4 UFEA ....
....|..|C-4 LF.F ....|A#3 2F97 ....|A-5 2FFF ....
 C-3|..|C-4 2C.F ....|G-3 2F5A ....|E-6 2FFF ....
....|..|C-4 CF.F ....|C-4 2F9F ....|A-6 2FFF ....
....|..|C-3 2F.A ....|G-3 2F5F ....|A-5 2FFA ....
....|..|C-4 AF.F ....|G-6 2F.F ....|G-6 2F.F ....
 E-4|..|E-5 2C.F ....|C-4 2F9A ....|R-- .... ....

[Pattern19]
....|..|C-4 AF.F ....|A-5 2F.F ....|A-5 2F.F ....
 C-3|..|C-4 2C.F ....|G-3 2F5A ....|G-6 2F.A ....
....|..|E-5 2F.A ....|C-4 2F97 ....|R-- .... ....
 D-4|..|D-4 2C.F ....|G-3 2F57 ....|A-5 2F.A ....
....|..|C-4 CF.F ....|A-3 2F4F ....|G-6 2F.7 ....
....|..|E-5 2F.7 ....|R-- .... ....|R-- .... ....
....|..|C-4 AF.F ....|A-5 2F.A ....|A-5 2F.7 ....
 F-4|..|F-5 2C.F ....|A-3 2F4A ....|--- .... ....
....|..|C-4 AF.F ....|R-- .... ....|--- .... ....
 D-4|..|D-4 2C.F ....|R-- .... ....|R-- .... ....
....|..|C-4 LF.F ....|G-6 2F.7 ....|--- .... ....
 C-3|..|C-4 2C.F ....|A-3 2F47 ....|--- .... ....
....|..|C-4 CF.F ....|G-3 2F5F ....|--- .... ....
....|..|C-3 2F.A ....|R-- .... ....|--- .... ....
....|..|C-4 AF.F ....|--- .... ....|--- .... ....
 E-4|..|E-5 2C.F ....|G-3 2F5A ....|--- .... ....
....|..|C-4 AF.F ....|R-- .... ....|--- .... ....
 C-3|..|C-4 2C.F ....|--- .... ....|--- .... ....
....|..|E-5 2F.A ....|G-3 2F57 ....|--- .... ....
 D-4|..|D-4 2C.F ....|R-- .... ....|--- .... ....
....|..|C-4 CF.F ....|A-3 2F4F ....|--- .... ....
....|..|E-5 2F.7 ....|R-- .... ....|--- .... ....
....|..|C-4 AF.F ....|--- .... ....|--- .... ....
 F-4|..|F-5 2C.F ....|A-3 2F4A ....|--- .... ....
....|..|C-4 AF.F ....|C-6 2F.F ....|C-6 2F.F ....
 D-4|..|D-4 2C.F ....|R-- .... ....|--- .... ....
....|..|C-4 LF.F ....|A-3 2F47 ....|R-- .... ....
 C-3|..|C-4 2C.F ....|R-- .... ....|C-6 2F.A ....
....|..|C-4 CF.F ....|G-3 2F5F ....|--- .... ....
....|..|C-3 2F.A ....|R-- .... ....|R-- .... ....
....|..|C-4 AF.F ....|A-5 2F.F ....|A-5 2F.F ....
 E-4|..|E-5 2C.F ....|G-3 2F5A ....|R-- .... ....
....|..|C-4 AF.F ....|G-5 2F.F ....|G-5 2F.F ....
 C-3|..|C-4 2C.F ....|R-- .... ....|A-5 2F.A ....
....|..|E-5 2F.A ....|G-3 2F57 ....|R-- .... ....
 D-4|..|D-4 2C.F ....|R-- .... ....|G-5 2F.A ....
....|..|C-4 CF.F ....|A-3 2F4F ....|A-5 2F.7 ....
....|..|E-5 2F.7 ....|R-- .... ....|R-- .... ....
....|..|C-4 AF.F ....|D-5 2F.F ....|D-5 2F.F ....
 F-4|..|F-5 2C.F ....|A-3 2F4A ....|R-- .... ....
....|..|C-4 AF.F ....|R-- .... ....|--- .... ....
 D-4|..|D-4 2C.F ....|R-- .... ....|D-5 2F.A ....
....|..|C-4 LF.F ....|A-5 2F.7 ....|--- .... ....
 C-3|..|C-4 2C.F ....|A-3 2F47 ....|--- .... ....
....|..|C-4 CF.F ....|G-3 2F5F ....|D-5 2F.7 ....
....|..|C-3 2F.A ....|R-- .... ....|--- .... ....
....|..|C-4 AF.F ....|--- .... ....|--- .... ....
 E-4|..|E-5 2C.F ....|G-3 2F5A ....|R-- .... ....
....|..|C-4 AF.F ....|R-- .... ....|--- .... ....
 C-3|..|C-4 2C.F ....|--- .... ....|--- .... ....
....|..|E-5 2F.A ....|D-5 2F.7 ....|--- .... ....
 D-4|..|D-4 2C.F ....|G-3 2F57 ....|--- .... ....
....|..|C-4 CF.F ....|A-3 2F4F ....|--- .... ....
....|..|E-5 2F.7 ....|R-- .... ....|--- .... ....
....|..|C-4 AF.F ....|--- .... ....|--- .... ....
 F-4|..|F-5 2C.F ....|A-3 2F4A ....|--- .... ....
....|..|C-4 AF.F ....|E-5 2F.F ....|E-5 2F.F ....
 D-4|..|D-4 2C.F ....|R-- .... ....|R-- .... ....
....|..|C-4 LF.F ....|A-3 2F47 ....|--- .... ....
 C-3|..|C-4 2C.F ....|R-- .... ....|E-5 2F.A ....
....|..|C-4 CF.F ....|G-3 2F5F ....|R-- .... ....
....|..|C-3 2F.A ....|R-- .... ....|--- .... ....
....|..|C-4 AF.F ....|C-5 2F.F ....|C-5 2F.F ....
 E-4|..|E-5 2C.F ....|G-3 2F5A ....|R-- .... ....

[Pattern20]
....|..|C-4 AF.F ....|A-5 2F.F ....|A-5 2F.F ....
 C-3|..|C-4 2C.F ....|R-- .... ....|C-5 2F.A ....
....|..|E-5 2F.A ....|G-3 2F57 ....|R-- .... ....
 D-4|..|D-4 2C.F ....|R-- .... ....|A-5 2F.A ....
....|..|C-4 CF.F ....|A-3 2F4F ....|C-5 2F.7 ....
....|..|E-5 2F.7 ....|R-- .... ....|R-- .... ....
....|..|C-4 AF.F ....|A-5 2F.A ....|A-5 2F.7 ....
 F-4|..|F-5 2C.F ....|A-3 2F4A ....|--- .... ....
....|..|C-4 AF.F ....|R-- .... ....|--- .... ....
 D-4|..|D-4 2C.F ....|R-- .... ....|R-- .... ....
....|..|C-4 LF.F ....|C-5 2F.7 ....|--- .... ....
 C-3|..|C-4 2C.F ....|A-3 2F47 ....|--- .... ....
....|..|C-4 CF.F ....|G-3 2F5F ....|--- .... ....
....|..|C-3 2F.A ....|R-- .... ....|--- .... ....
....|..|C-4 AF.F ....|--- .... ....|--- .... ....
 E-4|..|E-5 2C.F ....|G-3 2F5A ....|--- .... ....
....|..|C-4 AF.F ....|R-- .... ....|--- .... ....
 C-3|..|C-4 2C.F ....|--- .... ....|--- .... ....
....|..|E-5 2F.A ....|G-3 2F57 ....|--- .... ....
 D-4|..|D-4 2C.F ....|R-- .... ....|--- .... ....
....|..|C-4 CF.F ....|A-3 2F4F ....|--- .... ....
....|..|E-5 2F.7 ....|R-- .... ....|--- .... ....
....|..|C-4 AF.F ....|--- .... ....|--- .... ....
 F-4|..|F-5 2C.F ....|A-3 2F4A ....|--- .... ....
....|..|C-4 AF.F ....|C-6 2F.F ....|C-6 2F.F ....
 D-4|..|D-4 2C.F ....|R-- .... ....|--- .... ....
....|..|C-4 LF.F ....|A-3 2F47 ....|R-- .... ....
 C-3|..|C-4 2C.F ....|R-- .... ....|C-6 2F.A ....
....|..|C-4 CF.F ....|G-3 2F5F ....|--- .... ....
....|..|C-3 2F.A ....|R-- .... ....|R-- .... ....
....|..|C-4 AF.F ....|A-5 2F.F ....|A-5 2F.F ....
 E-4|..|E-5 2C.F ....|G-3 2F5A ....|R-- .... ....
....|..|C-4 AF.F ....|G-5 2F.F ....|G-5 2F.F ....
 C-3|..|C-4 2C.F ....|R-- .... ....|A-5 2F.A ....
....|..|E-5 2F.A ....|G-3 2F57 ....|R-- .... ....
 D-4|..|D-4 2C.F ....|R-- .... ....|G-5 2F.A ....
....|..|C-4 CF.F ....|A-3 2F4F ....|A-5 2F.7 ....
....|..|E-5 2F.7 ....|R-- .... ....|R-- .... ....
....|..|C-4 AF.F ....|D-5 2F.F ....|D-5 2F.F ....
 F-4|..|F-5 2C.F ....|A-3 2F4A ....|R-- .... ....
....|..|C-4 AF.F ....|R-- .... ....|--- .... ....
 D-4|..|D-4 2C.F ....|R-- .... ....|D-5 2F.A ....
....|..|C-4 LF.F ....|A-5 2F.7 ....|--- .... ....
 C-3|..|C-4 2C.F ....|A-3 2F47 ....|--- .... ....
....|..|C-4 CF.F ....|D-5 2F.F ....|D-5 2F.F ....
....|..|C-3 2F.A ....|G-3 2F5F ....|--- .... ....
....|..|C-4 AF.F ....|R-- .... ....|R-- .... ....
 E-4|..|E-5 2C.F ....|G-3 2F5A ....|D-5 2F.A ....
....|..|C-4 AF.F ....|R-- .... ....|--- .... ....
 C-3|..|C-4 2C.F ....|--- .... ....|R-- .... ....
....|..|E-5 2F.A ....|D-5 2F.7 ....|D-5 2F.7 ....
 D-4|..|D-4 2C.F ....|G-3 2F57 ....|--- .... ....
....|..|C-4 CF.F ....|A-3 2F4F ....|R-- .... ....
....|..|E-5 2F.7 ....|R-- .... ....|--- .... ....
....|..|C-4 AF.F ....|--- .... ....|--- .... ....
 F-4|..|F-5 2C.F ....|A-3 2F4A ....|--- .... ....
....|..|C-4 AF.F ....|R-- .... ....|--- .... ....
 D-4|..|D-4 2C.F ....|--- .... ....|--- .... ....
....|..|C-4 LF.F ....|A-3 2F47 ....|--- .... ....
 C-3|..|C-4 2C.F ....|R-- .... ....|--- .... ....
....|..|C-4 CF.F ....|G-3 2F5F ....|--- .... ....
....|..|C-3 2F.A ....|R-- .... ....|--- .... ....
....|..|C-4 AF.F ....|--- .... ....|--- .... ....
 E-4|..|E-5 2C.F ....|G-3 2F5A ....|--- .... ....

[Pattern21]
....|..|C-4 AF.F ....|R-- .... ....|--- .... ....
 C-3|..|C-4 2C.F ....|--- .... ....|--- .... ....
....|..|E-5 2F.A ....|G-3 2F57 ....|--- .... ....
 D-4|..|D-4 2C.F ....|R-- .... ....|--- .... ....
....|..|C-4 CF.F ....|A-5 3FFF ....|A-5 2FFF ....
....|..|E-5 2F.7 ....|A-3 2F4F ....|--- .... ....
....|..|C-4 AF.F ....|A-5 3FFF ....|A-5 2FFF ....
 F-4|..|F-5 2C.F ....|A-5 3FFA ....|R-- .... ....
....|..|C-4 AF.F ....|G-5 3FFF ....|G-5 2FFF ....
 D-4|..|D-4 2C.F ....|A-5 3FFA ....|--- .... ....
....|..|C-4 LF.F ....|G-5 3FFF ....|G-5 2FFF ....
 C-3|..|C-4 2C.F ....|G-5 3FFA ....|R-- .... ....
....|..|C-4 CF.F ....|G-5 3FFF ....|G-5 2FFF ....
....|..|C-3 2F.A ....|R-- .... ....|R-- .... ....
....|..|C-4 AF.F ....|G-5 3FFF ....|G-5 2FFF ....
 E-4|..|E-5 2C.F ....|G-5 3FFA ....|R-- .... ....
....|..|C-4 AF.F ....|C-6 3FFF ....|C-6 2FFF ....
 C-3|..|C-4 2C.F ....|G-5 3FFA ....|R-- .... ....
....|..|E-5 2F.A ....|C-6 3FFF ....|C-6 2FFF ....
 D-4|..|D-4 2C.F ....|C-6 3FFA ....|R-- .... ....
....|..|C-4 CF.F ....|A#5 3FFF ....|A#5 2FFF ....
....|..|E-5 2F.7 ....|R-- .... ....|R-- .... ....
....|..|C-4 AF.F ....|A-5 3FFF ....|A-5 2FFF ....
 F-4|..|F-5 2C.F ....|A#5 3FFA ....|R-- .... ....
....|..|C-4 AF.F ....|G-5 3FFF ....|G-5 2FFF ....
 D-4|..|D-4 2C.F ....|A-5 3FFA ....|R-- .... ....
....|..|C-4 LF.F ....|A#5 3FF7 ....|G-5 2FF7 ....
 C-3|..|C-4 2C.F ....|G-5 3FFA ....|R-- .... ....
....|..|C-4 CF.F ....|D-5 3FFF ....|D-5 2FFF ....
....|..|C-3 2F.A ....|R-- .... ....|--- .... ....
....|..|C-4 AF.F ....|E-5 3FFF ....|E-5 2FFF ....
 E-4|..|E-5 2C.F ....|D-5 3FFA ....|--- .... ....
....|..|C-4 AF.F ....|G-3 2F5A ....|A#5 2FF7 ....
 C-3|..|C-4 2C.F ....|E-5 3FFA ....|--- .... ....
....|..|E-5 2F.A ....|D-5 3FFF ....|D-5 2FFF ....
 D-4|..|D-4 2C.F ....|G-3 2F57 ....|--- .... ....
....|..|C-4 CF.F ....|A-3 2F4F ....|G-5 2FF7 ....
....|..|E-5 2F.7 ....|R-- .... ....|--- .... ....
....|..|C-4 AF.F ....|R-- .... ....|--- .... ....
 F-4|..|F-5 2C.F ....|A-3 2F4A ....|--- .... ....
....|..|C-4 AF.F ....|R-- .... ....|D-5 2FF7 ....
 D-4|..|D-4 2C.F ....|--- .... ....|--- .... ....
....|..|C-4 LF.F ....|A-3 2F47 ....|E-5 2FF7 ....
 C-3|..|C-4 2C.F ....|R-- .... ....|--- .... ....
....|..|C-4 CF.F ....|G-3 2F5F ....|R-- .... ....
....|..|C-3 2F.A ....|R-- .... ....|--- .... ....
....|..|C-4 AF.F ....|--- .... ....|D-5 2FF7 ....
 E-4|..|E-5 2C.F ....|G-3 2F5A ....|--- .... ....
....|..|C-4 AF.F ....|R-- .... ....|--- .... ....
 C-3|..|C-4 2C.F ....|--- .... ....|--- .... ....
....|..|E-5 2F.A ....|G-3 2F57 ....|R-- .... ....
 D-4|..|D-4 2C.F ....|R-- .... ....|--- .... ....
....|..|C-4 CF.F ....|A-3 2F4F ....|--- .... ....
....|..|E-5 2F.7 ....|R-- .... ....|--- .... ....
....|..|C-4 AF.F ....|--- .... ....|--- .... ....
 F-4|..|F-5 2C.F ....|A-3 2F4A ....|--- .... ....
....|..|C-4 AF.F ....|R-- .... ....|R-- .... ....
 D-4|..|D-4 2C.F ....|--- .... ....|--- .... ....
....|..|C-4 LF.F ....|A-3 2F47 ....|--- .... ....
 C-3|..|C-4 2C.F ....|R-- .... ....|--- .... ....
....|..|C-4 CF.F ....|G-3 2F5F ....|--- .... ....
....|..|C-3 2F.A ....|R-- .... ....|--- .... ....
....|..|C-4 AF.F ....|--- .... ....|--- .... ....
 E-4|..|E-5 2C.F ....|G-3 2F5A ....|--- .... ....

[Pattern22]
....|..|C-4 AF.F ....|A-5 3FFF ....|A-5 2FFF ....
 C-3|..|C-4 2C.F ....|R-- .... ....|--- .... ....
....|..|E-5 2F.A ....|A-5 3FFF ....|A-5 2FFF ....
 D-4|..|D-4 2C.F ....|A-5 3FFA ....|R-- .... ....
....|..|C-4 CF.F ....|A-5 3FFF ....|A-5 2FFF ....
....|..|E-5 2F.7 ....|R-- .... ....|R-- .... ....
....|..|C-4 AF.F ....|A-5 3FFF ....|A-5 2FFF ....
 F-4|..|F-5 2C.F ....|A-5 3FFA ....|R-- .... ....
....|..|C-4 AF.F ....|G-5 3FFF ....|G-5 2FFF ....
 D-4|..|D-4 2C.F ....|A-5 3FFA ....|R-- .... ....
....|..|C-4 LF.F ....|G-5 3FFF ....|G-5 2FFF ....
 C-3|..|C-4 2C.F ....|G-5 3FFA ....|R-- .... ....
....|..|C-4 CF.F ....|G-5 3FFF ....|G-5 2FFF ....
....|..|C-3 2F.A ....|R-- .... ....|R-- .... ....
....|..|C-4 AF.F ....|G-5 3FFF ....|G-5 2FFF ....
 E-4|..|E-5 2C.F ....|G-5 3FFA ....|R-- .... ....
....|..|C-4 AF.F ....|A#5 3FFF ....|A#5 2FFF ....
 C-3|..|C-4 2C.F ....|G-5 3FFA ....|R-- .... ....
....|..|E-5 2F.A ....|A#5 3FFF ....|A#5 2FFF ....
 D-4|..|D-4 2C.F ....|A#5 3FFA ....|R-- .... ....
....|..|C-4 CF.F ....|A-5 3FFF ....|A-5 2FFF ....
....|..|E-5 2F.7 ....|R-- .... ....|R-- .... ....
....|..|C-4 AF.F ....|A-5 3FFF ....|A-5 2FFF ....
 F-4|..|F-5 2C.F ....|A-5 3FFA ....|R-- .... ....
....|..|C-4 AF.F ....|G-5 3FFF ....|G-5 2FFF ....
 D-4|..|D-4 2C.F ....|A-5 3FFA ....|R-- .... ....
....|..|C-4 LF.F ....|A#5 3FFF ....|A#5 2FFF ....
 C-3|..|C-4 2C.F ....|G-5 3FFA ....|R-- .... ....
....|..|C-4 CF.F ....|G-3 2F5F ....|A#5 2FF7 ....
....|..|C-3 2F.A ....|R-- .... ....|--- .... ....
....|..|C-4 AF.F ....|A-5 3FFF ....|A-5 2FFF ....
 E-4|..|E-5 2C.F ....|G-3 2F5A ....|--- .... ....
....|..|C-4 AF.F ....|R-- .... ....|A-5 2FF7 ....
 C-3|..|C-4 2C.F ....|A-5 3FFA ....|--- .... ....
....|..|E-5 2F.A ....|G-3 2F57 ....|A-5 2FF7 ....
 D-4|..|D-4 2C.F ....|R-- .... ....|--- .... ....
....|..|C-4 CF.F ....|A-3 2F4F ....|G-5 2FF7 ....
....|..|E-5 2F.7 ....|R-- .... ....|--- .... ....
....|..|C-4 AF.F ....|--- .... ....|A#5 2FF7 ....
 F-4|..|F-5 2C.F ....|A-3 2F4A ....|--- .... ....
....|..|C-4 AF.F ....|R-- .... ....|--- .... ....
 D-4|..|D-4 2C.F ....|R-- .... ....|R-- .... ....
....|..|C-4 LF.F ....|A-3 2F47 ....|A-5 2FF7 ....
 C-3|..|C-4 2C.F ....|R-- .... ....|--- .... ....
....|..|C-4 CF.F ....|G-3 2F5F ....|--- .... ....
....|..|C-3 2F.A ....|R-- .... ....|--- .... ....
....|..|C-4 AF.F ....|--- .... ....|--- .... ....
 E-4|..|E-5 2C.F ....|G-3 2F5A ....|R-- .... ....
....|..|C-4 AF.F ....|R-- .... ....|--- .... ....
 C-3|..|C-4 2C.F ....|--- .... ....|--- .... ....
....|..|E-5 2F.A ....|G-3 2F57 ....|--- .... ....
 D-4|..|D-4 2C.F ....|R-- .... ....|--- .... ....
....|..|C-4 CF.F ....|A-3 2F4F ....|--- .... ....
....|..|E-5 2F.7 ....|R-- .... ....|R-- .... ....
....|..|C-4 AF.F ....|--- .... ....|--- .... ....
 F-4|..|F-5 2C.F ....|A-3 2F4A ....|--- .... ....
....|..|C-4 AF.F ....|D-5 2F.F ....|D-5 2F.F ....
 D-4|..|D-4 2C.F ....|R-- .... ....|R-- .... ....
....|..|C-4 LF.F ....|A-3 2F47 ....|--- .... ....
 C-3|..|C-4 2C.F ....|R-- .... ....|D-5 2F.A ....
....|..|C-4 CF.F ....|G-3 2F5F ....|R-- .... ....
....|..|C-3 2F.A ....|R-- .... ....|--- .... ....
....|..|C-4 AF.F ....|C-5 2F.F ....|C-5 2F.F ....
 E-4|..|E-5 2C.F ....|G-3 2F5A ....|R-- .... ....

[Pattern23]
....|..|C-4 AF.F ....|A-5 2F.F ....|A-5 2F.F ....
 C-3|..|C-4 2C.F ....|G-3 2F5F ....|C-5 2F.A ....
....|..|C-4 CF.F ....|G-3 2F57 ....|R-- .... ....
....|..|C-4 CF.F ....|G-3 2F5A ....|A-5 2F.A ....
....|..|C-4 CF.F ....|G-3 2F5F ....|C-5 2F.7 ....
....|..|E-5 2F.7 ....|R-- .... ....|R-- .... ....
....|..|C-4 AF.F ....|G-5 2F.F ....|G-5 2F.F ....
 E-4|..|E-5 2C.F ....|F-5 3FFF ....|R-- .... ....
....|..|C-4 AF.F ....|F-5 3FFF ....|F-5 2FFF ....
 C-3|..|C-4 2C.F ....|F-5 3FFA ....|G-5 2F.A ....
....|..|C-4 CF.F ....|F-5 3FFF ....|F-5 2FFF ....
 C-3|..|C-4 2C.F ....|F-5 3FFA ....|R-- .... ....
....|..|C-4 CF.F ....|F-5 3FFF ....|F-5 2FFF ....
 C-3|..|C-4 2C.F ....|R-- .... ....|R-- .... ....
....|..|C-4 AF.F ....|F-5 3FFF ....|F-5 2FFF ....
 E-4|..|E-5 2C.F ....|F-5 3FFA ....|R-- .... ....
....|..|C-4 AF.F ....|F-5 3FFF ....|F-5 2FFF ....
 C-3|..|C-4 2C.F ....|R-- .... ....|R-- .... ....
....|..|C-4 CF.F ....|G-5 2F.7 ....|F-5 2FF7 ....
....|..|C-4 CF.F ....|F-5 3FFA ....|R-- .... ....
....|..|C-4 CF.F ....|G-5 3FFF ....|G-5 2FFF ....
....|..|E-5 2F.7 ....|R-- .... ....|R-- .... ....
....|..|C-4 AF.F ....|F-5 3FF7 ....|F-5 2FF7 ....
 E-4|..|E-5 2C.F ....|G-5 3FFA ....|R-- .... ....
....|..|C-4 AF.F ....|C-6 2F.F ....|C-6 2F.F ....
 C-3|..|C-4 2C.F ....|G-5 3FFF ....|R-- .... ....
....|..|C-4 CF.F ....|G-5 3FF7 ....|F-5 2FF7 ....
 C-3|..|C-4 2C.F ....|G-5 3FFA ....|C-6 2F.A ....
....|..|C-4 CF.F ....|G-3 2F5F ....|F-5 2FF7 ....
 C-3|..|C-4 2C.F ....|R-- .... ....|--- .... ....
....|..|C-4 AF.F ....|A-5 2F.F ....|A-5 2F.F ....
 E-4|..|E-5 2C.F ....|G-3 2F5A ....|R-- .... ....
....|..|C-4 AF.F ....|G-3 2F5F ....|G-5 2FF7 ....
 C-3|..|C-4 2C.F ....|G-3 2F5F ....|A-5 2F.A ....
....|..|C-4 CF.F ....|G-3 2F57 ....|R-- .... ....
....|..|C-4 CF.F ....|G-3 2F5A ....|R-- .... ....
....|..|C-4 CF.F ....|F-5 3FFF ....|F-5 2FFF ....
....|..|E-5 2F.7 ....|R-- .... ....|R-- .... ....
....|..|C-4 AF.F ....|G-5 2F.F ....|G-5 2F.F ....
 E-4|..|E-5 2C.F ....|F-5 3FFF ....|R-- .... ....
....|..|C-4 AF.F ....|F-5 3FFF ....|F-5 2FFF ....
 C-3|..|C-4 2C.F ....|F-5 3FFA ....|R-- .... ....
....|..|C-4 CF.F ....|F-5 3FFF ....|F-5 2FFF ....
 C-3|..|C-4 2C.F ....|F-5 3FFA ....|R-- .... ....
....|..|C-4 CF.F ....|F-5 3FFF ....|F-5 2FFF ....
 C-3|..|C-4 2C.F ....|R-- .... ....|R-- .... ....
....|..|C-4 AF.F ....|F-5 3FFF ....|F-5 2FFF ....
 E-4|..|E-5 2C.F ....|F-5 3FFA ....|R-- .... ....
....|..|C-4 AF.F ....|F-5 3FFF ....|F-5 2FFF ....
 C-3|..|C-4 2C.F ....|R-- .... ....|R-- .... ....
....|..|C-4 CF.F ....|G-5 2F.7 ....|F-5 2FF7 ....
....|..|C-4 CF.F ....|F-5 3FFA ....|R-- .... ....
....|..|C-4 CF.F ....|G-5 3FFF ....|G-5 2FFF ....
....|..|E-5 2F.7 ....|R-- .... ....|R-- .... ....
....|..|C-4 AF.F ....|F-5 3FF7 ....|F-5 2FF7 ....
 E-4|..|E-5 2C.F ....|G-5 3FFA ....|R-- .... ....
....|..|C-4 AF.F ....|D-5 2F.F ....|D-5 2F.F ....
 C-3|..|C-4 2C.F ....|G-5 3FFF ....|R-- .... ....
....|..|C-4 CF.F ....|G-5 3FF7 ....|F-5 2FF7 ....
 C-3|..|C-4 2C.F ....|G-5 3FFA ....|D-5 2F.A ....
....|..|C-4 CF.F ....|G-3 2F5F ....|F-5 2FF7 ....
 C-3|..|C-4 2C.F ....|R-- .... ....|--- .... ....
....|..|C-4 AF.F ....|A-5 2F.F ....|A-5 2F.F ....
 E-4|..|E-5 2C.F ....|G-3 2F5A ....|R-- .... ....

[Pattern24]
....|..|C-4 AF.F ....|G-3 2F5F ....|G-5 2FF7 ....
 C-3|..|C-4 2C.F ....|G-3 2F5F ....|A-5 2F.A ....
....|..|C-4 CF.F ....|G-3 2F57 ....|R-- .... ....
....|..|C-4 CF.F ....|G-3 2F5A ....|--- .... ....
....|..|C-4 CF.F ....|G-3 2F5F ....|A-5 2F.7 ....
....|..|E-5 2F.7 ....|R-- .... ....|R-- .... ....
....|..|C-4 AF.F ....|G-5 2F.F ....|G-5 2F.F ....
 E-4|..|E-5 2C.F ....|F-5 3FFF ....|R-- .... ....
....|..|C-4 AF.F ....|F-5 3FFF ....|F-5 2FFF ....
 C-3|..|C-4 2C.F ....|F-5 3FFA ....|R-- .... ....
....|..|C-4 CF.F ....|F-5 3FFF ....|F-5 2FFF ....
 C-3|..|C-4 2C.F ....|F-5 3FFA ....|R-- .... ....
....|..|C-4 CF.F ....|F-5 3FFF ....|F-5 2FFF ....
 C-3|..|C-4 2C.F ....|R-- .... ....|R-- .... ....
....|..|C-4 AF.F ....|F-5 3FFF ....|F-5 2FFF ....
 E-4|..|E-5 2C.F ....|F-5 3FFA ....|R-- .... ....
....|..|C-4 AF.F ....|F-5 3FFF ....|F-5 2FFF ....
 C-3|..|C-4 2C.F ....|R-- .... ....|R-- .... ....
....|..|C-4 CF.F ....|G-5 3FFF ....|G-5 2FFF ....
....|..|C-4 CF.F ....|F-5 3FFA ....|R-- .... ....
....|..|C-4 CF.F ....|G-3 2F5F ....|F-5 2FF7 ....
....|..|E-5 2F.7 ....|R-- .... ....|R-- .... ....
....|..|C-4 AF.F ....|G-5 3FFF ....|G-5 2FFF ....
 E-4|..|E-5 2C.F ....|G-3 2F5A ....|R-- .... ....
....|..|C-4 AF.F ....|C-6 2F.F ....|C-6 2F.F ....
 C-3|..|C-4 2C.F ....|G-5 3FFA ....|R-- .... ....
....|..|C-4 CF.F ....|G-3 2F57 ....|F-5 2FF7 ....
 C-3|..|C-4 2C.F ....|R-- .... ....|C-6 2F.A ....
....|..|C-4 CF.F ....|F-5 3FFF ....|F-5 2FFF ....
 C-3|..|C-4 2C.F ....|G-3 2F5F ....|R-- .... ....
....|..|C-4 AF.F ....|A-5 2F.F ....|A-5 2F.F ....
 E-4|..|E-5 2C.F ....|F-5 3FFF ....|R-- .... ....
....|..|C-4 AF.F ....|F-5 3FFF ....|F-5 2FFF ....
 C-3|..|C-4 2C.F ....|R-- .... ....|A-5 2F.A ....
....|..|C-4 CF.F ....|F-5 3FFF ....|F-5 2FFF ....
....|..|C-4 CF.F ....|F-5 3FFA ....|R-- .... ....
....|..|C-4 CF.F ....|F-5 3FFF ....|F-5 2FFF ....
....|..|E-5 2F.7 ....|R-- .... ....|R-- .... ....
....|..|C-4 AF.F ....|G-5 2F.F ....|G-5 2F.F ....
 E-4|..|E-5 2C.F ....|E-5 3FFF ....|R-- .... ....
....|..|C-4 AF.F ....|F-5 3FFF ....|F-5 2FFF ....
 C-3|..|C-4 2C.F ....|E-5 3FFA ....|G-5 2F.A ....
....|..|C-4 CF.F ....|F-5 3FFF ....|F-5 2FFF ....
 C-3|..|C-4 2C.F ....|F-5 3FFA ....|R-- .... ....
....|..|C-4 CF.F ....|F-5 3FFF ....|F-5 2FFF ....
 C-3|..|C-4 2C.F ....|R-- .... ....|R-- .... ....
....|..|C-4 AF.F ....|E-5 3FFF ....|E-5 2FFF ....
 E-4|..|E-5 2C.F ....|F-5 3FFA ....|R-- .... ....
....|..|C-4 AF.F ....|F-5 3FFF ....|F-5 2FFF ....
 C-3|..|C-4 2C.F ....|R-- .... ....|R-- .... ....
....|..|E-5 2F.A ....|G-5 3FFF ....|G-5 2FFF ....
 C-3|..|C-4 2C.F ....|F-5 3FFA ....|R-- .... ....
....|..|C-4 2F.A ....|G-5 3FFF ....|G-5 2FFF ....
....|..|E-5 2F.7 ....|G-5 3FFA ....|R-- .... ....
....|..|C-4 2F.A ....|F-5 3FFF ....|F-5 2FFF ....
....|..|C-4 2F.7 ....|G-5 3FFA ....|R-- .... ....
....|..|C-4 2F.7 ....|C-6 3FFF ....|C-6 2FFF ....
....|..|C-3 2F.7 ....|F-5 3FFA ....|R-- .... ....
....|..|R-- .... ....|G-5 3FF7 ....|E-5 2FF7 ....
....|..|--- .... ....|C-6 3FFA ....|R-- .... ....
....|..|--- .... ....|A#5 3FFF ....|A#5 2FFF ....
....|..|--- .... ....|R-- .... ....|R-- .... ....
....|..|--- .... ....|A#5 3FFF ....|A#5 2FFF ....
....|..|--- .... ....|A#5 3FFA ....|R-- .... ....

[Pattern25]
....|..|C-4 AF.F ....|A-6 2F.F ....|A-6 2F.F ....
....|..|C-4 LF.F ....|R-- .... ....|R-- .... ....
....|..|C-4 LF.F ....|A-5 3FFF ....|A-5 2FFF ....
....|..|C-4 LF.F ....|A-3 2F4A ....|A-6 2F.A ....
....|..|C-4 CF.F ....|D-4 2F6F ....|D-4 UFEF ....
....|..|C-4 LF.F ....|R-- .... ....|R-- .... ....
....|..|C-4 AF.F ....|A-6 2F.A ....|F-4 UFEF ....
....|..|C-4 LF.F ....|D-4 2F6A ....|D-4 UFEA ....
....|..|C-4 AF.F ....|G-3 2F5F ....|F-4 UFEF ....
....|..|C-4 LF.F ....|A-3 2F47 ....|F-4 UFEA ....
....|..|C-4 LF.F ....|E-4 2F7F ....|F-4 UFEF ....
....|..|C-4 LF.F ....|G-3 2F5A ....|F-4 UFEA ....
....|..|C-4 CF.F ....|C-4 2F9F ....|F-4 UFEF ....
....|..|C-4 LF.F ....|R-- .... ....|F-4 UFEA ....
....|..|C-4 AF.F ....|R-- .... ....|D-4 UFEF ....
....|..|C-4 LF.F ....|C-4 2F9A ....|F-4 UFEA ....
....|..|C-4 AF.F ....|F-3 2F5F ....|A#4 UFEF ....
....|..|C-4 LF.F ....|A#3 2F9F ....|D-4 UFEA ....
....|..|C-4 LF.F ....|C-4 2F97 ....|F-4 UFE7 ....
....|..|C-4 LF.F ....|F-3 2F5A ....|A#4 UFEA ....
....|..|C-4 CF.F ....|A#3 2F9F ....|D-4 UFE7 ....
....|..|C-4 LF.F ....|R-- .... ....|R-- .... ....
....|..|C-4 AF.F ....|F-3 2F57 ....|A-4 UFEF ....
....|..|C-4 LF.F ....|A#3 2F9A ....|--- .... ....
....|..|C-4 AF.F ....|C-7 2F.F ....|A-4 UFEF ....
....|..|C-4 LF.F ....|R-- .... ....|R-- .... ....
....|..|C-4 LF.F ....|A#3 2F97 ....|C-7 2F.F ....
....|..|C-4 LF.F ....|G-3 2F5A ....|A-4 UFEA ....
....|..|C-4 CF.F ....|C-4 2F9F ....|R-- .... ....
....|..|C-4 LF.F ....|G-3 2F5F ....|C-7 2F.A ....
....|..|C-4 AF.F ....|G-6 2F.F ....|G-6 2F.F ....
....|..|C-4 LF.F ....|C-4 2F9A ....|R-- .... ....
....|..|C-4 AF.F ....|A-3 3F1F ....|--- .... ....
....|..|C-4 LF.F ....|R-- .... ....|G-6 2F.A ....
....|..|C-4 LF.F ....|A-6 2F.F ....|A-6 2F.F ....
....|..|C-4 LF.F ....|A-3 3F1A ....|--- .... ....
....|..|C-4 CF.F ....|D-4 2F6F ....|A-4 UFEF ....
....|..|C-4 LF.F ....|R-- .... ....|A-6 2F.A ....
....|..|C-4 AF.F ....|A-3 3F17 ....|A-4 UFEF ....
....|..|C-4 LF.F ....|D-4 2F6A ....|A-4 UFEA ....
....|..|C-4 AF.F ....|C-4 3F2F ....|G-4 UFEF ....
....|..|C-4 LF.F ....|A-3 2F47 ....|A-4 UFEA ....
....|..|C-4 LF.F ....|E-4 2F7F ....|G-4 UFEF ....
....|..|C-4 LF.F ....|C-4 3F2A ....|G-4 UFEA ....
....|..|C-4 CF.F ....|C-4 2F9F ....|G-4 UFEF ....
....|..|C-4 LF.F ....|R-- .... ....|G-4 UFEA ....
....|..|C-4 AF.F ....|R-- .... ....|G-4 UFEF ....
....|..|C-4 LF.F ....|C-4 2F9A ....|G-4 UFEA ....
....|..|C-4 AF.F ....|F-6 2F.F ....|C-5 UFEF ....
....|..|C-4 LF.F ....|D-4 3F3F ....|R-- .... ....
....|..|C-4 LF.F ....|A#3 2F9F ....|C-5 UFEF ....
....|..|C-4 LF.F ....|D-4 3F3A ....|C-5 UFEA ....
....|..|C-4 CF.F ....|A#3 2F9F ....|C-5 UFEF ....
....|..|C-4 LF.F ....|R-- .... ....|C-5 UFEA ....
....|..|C-4 AF.F ....|D-4 2F7F ....|C-5 UFEF ....
....|..|C-4 LF.F ....|A#3 2F9A ....|C-5 UFEA ....
....|..|C-4 AF.F ....|C-6 2F.F ....|C-6 2F.F ....
....|..|C-4 LF.F ....|D-4 2F7A ....|R-- .... ....
....|..|C-4 LF.F ....|A#3 2F97 ....|A#4 UFEF ....
....|..|C-4 LF.F ....|G-3 2F5A ....|C-6 2F.A ....
....|..|C-4 CF.F ....|C-4 2F9F ....|A-4 UFEF ....
....|..|C-4 LF.F ....|G-3 2F5F ....|A#4 UFEA ....
....|..|C-4 AF.F ....|G-6 2F.F ....|G-4 UFEF ....
....|..|C-4 LF.F ....|C-4 2F9A ....|A-4 UFEA ....

[Pattern26]
....|..|C-4 AF.F ....|A-3 3F1F ....|F-4 UFEF ....
....|..|C-4 LF.F ....|R-- .... ....|G-4 UFEA ....
....|..|C-4 LF.F ....|A-6 2F.F ....|A-6 2F.F ....
....|..|C-4 LF.F ....|A-3 3F1A ....|F-4 UFEA ....
....|..|C-4 CF.F ....|D-4 2F6F ....|G-4 UFE7 ....
....|..|C-4 LF.F ....|R-- .... ....|A-6 2F.A ....
....|..|C-4 AF.F ....|A-3 3F17 ....|D-4 UFEF ....
....|..|C-4 LF.F ....|D-4 2F6A ....|R-- .... ....
....|..|C-4 AF.F ....|C-4 3F2F ....|D-4 UFEF ....
....|..|C-4 LF.F ....|A-3 2F47 ....|D-4 UFEA ....
....|..|C-4 LF.F ....|E-4 2F7F ....|F-4 UFEF ....
....|..|C-4 LF.F ....|C-4 3F2A ....|D-4 UFEA ....
....|..|C-4 CF.F ....|C-4 2F9F ....|F-4 UFEF ....
....|..|C-4 LF.F ....|R-- .... ....|F-4 UFEA ....
....|..|C-4 AF.F ....|R-- .... ....|D-4 UFEF ....
....|..|C-4 LF.F ....|C-4 2F9A ....|F-4 UFEA ....
....|..|C-4 AF.F ....|D-4 3F3F ....|A#4 UFEF ....
....|..|C-4 LF.F ....|A#3 2F9F ....|D-4 UFEA ....
....|..|C-4 LF.F ....|C-4 2F97 ....|F-4 UFE7 ....
....|..|C-4 LF.F ....|D-4 3F3A ....|A#4 UFEA ....
....|..|C-4 CF.F ....|A#3 2F9F ....|D-4 UFE7 ....
....|..|C-4 LF.F ....|R-- .... ....|--- .... ....
....|..|C-4 AF.F ....|D-4 3F37 ....|A-4 UFEF ....
....|..|C-4 LF.F ....|A#3 2F9A ....|R-- .... ....
....|..|C-4 AF.F ....|C-7 2F.F ....|A-4 UFEF ....
....|..|C-4 LF.F ....|R-- .... ....|R-- .... ....
....|..|C-4 LF.F ....|A#3 2F97 ....|C-7 2F.F ....
....|..|C-4 LF.F ....|G-3 2F5A ....|A-4 UFEA ....
....|..|C-4 CF.F ....|C-4 2F9F ....|D-4 UFEF ....
....|..|C-4 LF.F ....|G-3 2F5F ....|C-7 2F.A ....
....|..|C-4 AF.F ....|G-6 2F.F ....|D-4 UFEF ....
....|..|C-4 LF.F ....|C-4 2F9A ....|D-4 UFEA ....
....|..|C-4 AF.F ....|A-3 3F1F ....|A-4 UFEF ....
....|..|C-4 LF.F ....|R-- .... ....|D-4 UFEA ....
....|..|C-4 LF.F ....|A-6 2F.F ....|A-4 UFEF ....
....|..|C-4 LF.F ....|A-3 3F1A ....|A-4 UFEA ....
....|..|C-4 CF.F ....|D-4 2F6F ....|A-4 UFEF ....
....|..|C-4 LF.F ....|R-- .... ....|A-4 UFEA ....
....|..|C-4 AF.F ....|A-3 3F17 ....|G-4 UFEF ....
....|..|C-4 LF.F ....|D-4 2F6A ....|A-4 UFEA ....
....|..|C-4 AF.F ....|C-4 3F2F ....|G-4 UFEF ....
....|..|C-4 LF.F ....|A-3 2F47 ....|G-4 UFEA ....
....|..|C-4 LF.F ....|E-4 2F7F ....|D-4 UFEF ....
....|..|C-4 LF.F ....|C-4 3F2A ....|G-4 UFEA ....
....|..|C-4 CF.F ....|C-4 2F9F ....|D-4 UFEF ....
....|..|C-4 LF.F ....|R-- .... ....|D-4 UFEA ....
....|..|C-4 AF.F ....|G-6 2F.F ....|D-4 UFEF ....
....|..|C-4 LF.F ....|C-4 2F9A ....|R-- .... ....
....|..|C-4 AF.F ....|D-4 3F3F ....|D-4 UFEF ....
....|..|C-4 LF.F ....|A#3 2F9F ....|D-4 UFEA ....
....|..|C-4 LF.F ....|F-6 2F.F ....|F-6 2F.F ....
....|..|C-4 LF.F ....|D-4 3F3A ....|D-4 UFEA ....
....|..|C-4 CF.F ....|A#3 2F9F ....|C-4 UFEF ....
....|..|C-4 LF.F ....|R-- .... ....|F-6 2F.A ....
....|..|C-4 AF.F ....|D-4 2F7F ....|D-4 UFE7 ....
....|..|C-4 LF.F ....|A#3 2F9A ....|C-4 UFEA ....
....|..|C-4 AF.F ....|G-3 2F5F ....|C-4 UFEF ....
....|..|C-4 LF.F ....|D-4 2F7A ....|F-6 2F.7 ....
....|..|C-4 LF.F ....|A#3 2F97 ....|C-4 UFE7 ....
....|..|C-4 LF.F ....|G-3 2F5A ....|C-4 UFEA ....
....|..|C-4 CF.F ....|C-4 2F9F ....|R-- .... ....
....|..|C-4 LF.F ....|G-3 2F5F ....|R-- .... ....
....|..|C-4 AF.F ....|G-6 2F.F ....|G-6 2F.F ....
....|..|C-4 LF.F ....|C-4 2F9A ....|R-- .... ....

[Pattern27]
....|..|C-4 AF.F ....|A-3 3F1F ....|--- .... ....
....|..|C-4 LF.F ....|R-- .... ....|G-6 2F.A ....
....|..|C-4 LF.F ....|A-6 2F.F ....|A-6 2F.F ....
....|..|C-4 LF.F ....|A-3 3F1A ....|--- .... ....
....|..|C-4 CF.F ....|D-4 2F6F ....|D-4 UFEF ....
....|..|C-4 LF.F ....|R-- .... ....|A-6 2F.A ....
....|..|C-4 AF.F ....|A-3 3F17 ....|F-4 UFEF ....
....|..|C-4 LF.F ....|D-4 2F6A ....|D-4 UFEA ....
....|..|C-4 AF.F ....|C-4 3F2F ....|F-4 UFEF ....
....|..|C-4 LF.F ....|A-3 2F47 ....|F-4 UFEA ....
....|..|C-4 LF.F ....|E-4 2F7F ....|F-4 UFEF ....
....|..|C-4 LF.F ....|C-4 3F2A ....|F-4 UFEA ....
....|..|C-4 CF.F ....|C-4 2F9F ....|F-4 UFEF ....
....|..|C-4 LF.F ....|R-- .... ....|F-4 UFEA ....
....|..|C-4 AF.F ....|R-- .... ....|D-4 UFEF ....
....|..|C-4 LF.F ....|C-4 2F9A ....|F-4 UFEA ....
....|..|C-4 AF.F ....|D-4 3F3F ....|A#4 UFEF ....
....|..|C-4 LF.F ....|A#3 2F9F ....|D-4 UFEA ....
....|..|C-4 LF.F ....|C-4 2F97 ....|F-4 UFE7 ....
....|..|C-4 LF.F ....|D-4 3F3A ....|A#4 UFEA ....
....|..|C-4 CF.F ....|A#3 2F9F ....|D-4 UFE7 ....
....|..|C-4 LF.F ....|R-- .... ....|R-- .... ....
....|..|C-4 AF.F ....|D-4 3F37 ....|A-4 UFEF ....
....|..|C-4 LF.F ....|A#3 2F9A ....|--- .... ....
....|..|C-4 AF.F ....|C-7 2F.F ....|A-4 UFEF ....
....|..|C-4 LF.F ....|R-- .... ....|R-- .... ....
....|..|C-4 LF.F ....|A#3 2F97 ....|C-7 2F.F ....
....|..|C-4 LF.F ....|G-3 2F5A ....|A-4 UFEA ....
....|..|C-4 CF.F ....|C-4 2F9F ....|R-- .... ....
....|..|C-4 LF.F ....|G-3 2F5F ....|C-7 2F.A ....
....|..|C-4 AF.F ....|G-6 2F.F ....|G-6 2F.F ....
....|..|C-4 LF.F ....|C-4 2F9A ....|R-- .... ....
....|..|C-4 AF.F ....|A-3 3F1F ....|--- .... ....
....|..|C-4 LF.F ....|R-- .... ....|G-6 2F.A ....
....|..|C-4 LF.F ....|A-6 2F.F ....|A-6 2F.F ....
....|..|C-4 LF.F ....|A-3 3F1A ....|--- .... ....
....|..|C-4 CF.F ....|D-4 2F6F ....|A-4 UFEF ....
....|..|C-4 LF.F ....|R-- .... ....|A-6 2F.A ....
....|..|C-4 AF.F ....|A-3 3F17 ....|A-4 UFEF ....
....|..|C-4 LF.F ....|D-4 2F6A ....|A-4 UFEA ....
....|..|C-4 AF.F ....|C-4 3F2F ....|G-4 UFEF ....
....|..|C-4 LF.F ....|A-3 2F47 ....|A-4 UFEA ....
....|..|C-4 LF.F ....|E-4 2F7F ....|A-4 UFE7 ....
....|..|C-4 LF.F ....|C-4 3F2A ....|G-4 UFEF ....
....|..|C-4 CF.F ....|C-4 2F9F ....|G-4 UFEF ....
....|..|C-4 LF.F ....|R-- .... ....|R-- .... ....
....|..|C-4 AF.F ....|R-- .... ....|G-4 UFEF ....
....|..|C-4 LF.F ....|C-4 2F9A ....|G-4 UFEA ....
....|..|C-4 AF.F ....|F-6 2F.F ....|C-5 UFEF ....
....|..|C-4 LF.F ....|D-4 3F3F ....|R-- .... ....
....|..|C-4 LF.F ....|A#3 2F9F ....|C-5 UFEF ....
....|..|C-4 LF.F ....|D-4 3F3A ....|C-5 UFEA ....
....|..|C-4 CF.F ....|A#3 2F9F ....|C-5 UFEF ....
....|..|C-4 LF.F ....|R-- .... ....|C-5 UFEA ....
....|..|C-4 AF.F ....|D-4 2F7F ....|C-5 UFEF ....
....|..|C-4 LF.F ....|A#3 2F9A ....|C-5 UFEA ....
....|..|C-4 AF.F ....|C-6 2F.F ....|A#4 UFEF ....
....|..|C-4 LF.F ....|D-4 2F7A ....|R-- .... ....
....|..|C-4 LF.F ....|A#3 2F97 ....|C-5 UFE7 ....
....|..|C-4 LF.F ....|G-3 2F5A ....|A#4 UFEA ....
....|..|C-4 CF.F ....|C-4 2F9F ....|A-4 UFEF ....
....|..|C-4 LF.F ....|G-3 2F5F ....|C-6 2F.A ....
....|..|C-4 AF.F ....|G-6 2F.F ....|G-4 UFEF ....
....|..|C-4 LF.F ....|C-4 2F9A ....|A-4 UFEA ....

[Pattern28]
....|..|C-4 AF.F ....|A-3 3F1F ....|F-4 UFEF ....
....|..|C-4 LF.F ....|R-- .... ....|G-4 UFEA ....
....|..|C-4 LF.F ....|A-6 2F.F ....|A-6 2F.F ....
....|..|C-4 LF.F ....|A-3 3F1A ....|F-4 UFEA ....
....|..|C-4 CF.F ....|D-4 2F6F ....|G-4 UFE7 ....
....|..|C-4 LF.F ....|R-- .... ....|A-6 2F.A ....
....|..|C-4 AF.F ....|A-3 3F17 ....|D-4 UFEF ....
....|..|C-4 LF.F ....|D-4 2F6A ....|R-- .... ....
....|..|C-4 AF.F ....|C-4 3F2F ....|D-4 UFEF ....
....|..|C-4 LF.F ....|A-3 2F47 ....|D-4 UFEA ....
....|..|C-4 LF.F ....|E-4 2F7F ....|F-4 UFEF ....
....|..|C-4 LF.F ....|C-4 3F2A ....|D-4 UFEA ....
....|..|C-4 CF.F ....|C-4 2F9F ....|F-4 UFEF ....
....|..|C-4 LF.F ....|R-- .... ....|F-4 UFEA ....
....|..|C-4 AF.F ....|R-- .... ....|D-4 UFEF ....
....|..|C-4 LF.F ....|C-4 2F9A ....|F-4 UFEA ....
....|..|C-4 AF.F ....|D-4 3F3F ....|A-4 UFEF ....
....|..|C-4 LF.F ....|A#3 2F9F ....|D-4 UFEA ....
....|..|C-4 LF.F ....|C-4 2F97 ....|F-4 UFE7 ....
....|..|C-4 LF.F ....|D-4 3F3A ....|A-4 UFEA ....
....|..|C-4 CF.F ....|A#3 2F9F ....|D-4 UFE7 ....
....|..|C-4 LF.F ....|R-- .... ....|--- .... ....
....|..|C-4 AF.F ....|D-4 3F37 ....|G-4 UFEF ....
....|..|C-4 LF.F ....|A#3 2F9A ....|R-- .... ....
....|..|C-4 AF.F ....|C-7 2F.F ....|G-4 UFEF ....
....|..|C-4 LF.F ....|R-- .... ....|R-- .... ....
....|..|C-4 LF.F ....|A#3 2F97 ....|C-7 2F.F ....
....|..|C-4 LF.F ....|G-3 2F5A ....|G-4 UFEA ....
....|..|C-4 CF.F ....|C-4 2F9F ....|R-- .... ....
....|..|C-4 LF.F ....|G-3 2F5F ....|C-7 2F.A ....
....|..|C-4 AF.F ....|G-6 2F.F ....|G-6 2F.F ....
....|..|C-4 LF.F ....|C-4 2F9A ....|R-- .... ....
....|..|C-4 AF.F ....|A-3 2F4F ....|G-4 UFEF ....
....|..|C-4 LF.F ....|R-- .... ....|G-6 2F.A ....
....|..|C-4 LF.F ....|A-6 2F.F ....|A-4 UFEF ....
....|..|C-4 LF.F ....|A-3 2F4A ....|G-4 UFEA ....
....|..|C-4 CF.F ....|D-4 2F6F ....|A-4 UFEF ....
....|..|C-4 LF.F ....|R-- .... ....|A-4 UFEA ....
....|..|C-4 AF.F ....|A-3 2F47 ....|A-4 UFEF ....
....|..|C-4 LF.F ....|D-4 2F6A ....|A-4 UFEA ....
....|..|C-4 AF.F ....|G-3 2F5F ....|F-4 UFEF ....
....|..|C-4 LF.F ....|A-3 2F47 ....|A-4 UFEA ....
....|..|C-4 LF.F ....|E-4 2F7F ....|G-4 UFEF ....
....|..|C-4 LF.F ....|G-3 2F5A ....|F-4 UFEA ....
....|..|C-4 CF.F ....|C-4 2F9F ....|G-4 UFEF ....
....|..|C-4 LF.F ....|R-- .... ....|G-4 UFEA ....
....|..|C-4 AF.F ....|G-6 2F.F ....|G-4 UFEF ....
....|..|C-4 LF.F ....|C-4 2F9A ....|R-- .... ....
....|..|C-4 AF.F ....|F-3 2F5F ....|G-4 UFEF ....
....|..|C-4 LF.F ....|A#3 2F9F ....|G-4 UFEA ....
....|..|C-4 LF.F ....|F-6 2F.F ....|F-6 2F.F ....
....|..|C-4 LF.F ....|F-3 2F5A ....|G-4 UFEA ....
....|..|C-4 CF.F ....|A#3 2F9F ....|F-4 UFEF ....
....|..|C-4 LF.F ....|R-- .... ....|F-6 2F.A ....
....|..|C-4 AF.F ....|D-4 2F7F ....|G-4 UFE7 ....
....|..|C-4 LF.F ....|A#3 2F9A ....|F-4 UFEA ....
....|..|C-4 AF.F ....|G-3 2F5F ....|F-4 UFEF ....
....|..|C-4 LF.F ....|D-4 2F7A ....|F-6 2F.7 ....
....|..|C-4 LF.F ....|A#3 2F97 ....|F-4 UFE7 ....
....|..|C-4 LF.F ....|G-3 2F5A ....|F-4 UFEA ....
....|..|C-4 CF.F ....|C-4 2F9F ....|R-- .... ....
....|..|C-4 LF.F ....|G-3 2F5F ....|--- .... ....
....|..|C-4 AF.F ....|G-6 2F.F ....|D-4 UFEF ....
....|..|C-4 LF.F ....|D-4 3F.F ....|G-6 2F.F ....

[Pattern29]
....|..|C-4 AF.F ....|A#4 3F.F ....|C-6 2FFF ....
....|..|C-4 LF.F ....|R-- .... ....|A#4 UFEF ....
....|..|C-4 LF.F ....|A-6 2F.F ....|A-4 UFEF ....
....|..|C-4 LF.F ....|A-4 3F.F ....|C-6 2FFA ....
....|..|C-4 CF.F ....|D-4 2F6F ....|C-6 2FFF ....
....|..|C-4 LF.F ....|R-- .... ....|A#4 UFEA ....
....|..|C-4 AF.F ....|D-4 3F.7 ....|C-6 2FF7 ....
....|..|C-4 LF.F ....|A-4 3F.A ....|C-6 2FFA ....
....|..|C-4 AF.F ....|G-3 2F5F ....|G-6 2FFF ....
....|..|C-4 LF.F ....|A#4 3F.7 ....|A#4 UFE7 ....
....|..|C-4 LF.F ....|E-4 2F7F ....|C-6 2FF7 ....
....|..|C-4 LF.F ....|G-3 2F5A ....|G-6 2FFA ....
....|..|C-4 CF.F ....|C-4 2F9F ....|G-6 2FFF ....
....|..|C-4 LF.F ....|R-- .... ....|R-- .... ....
....|..|C-4 AF.F ....|A#3 3F.F ....|G-6 2FF7 ....
....|..|C-4 LF.F ....|C-4 2F9A ....|G-6 2FFA ....
....|..|C-4 AF.F ....|C-4 3F.F ....|A-6 2FFF ....
....|..|C-4 LF.F ....|R-- .... ....|A-4 UFEF ....
....|..|C-4 LF.F ....|A#3 2F9F ....|A#6 2FFF ....
....|..|C-4 LF.F ....|C-4 3F.A ....|A-6 2FFA ....
....|..|C-4 CF.F ....|C-4 3F.F ....|C-7 2FFF ....
....|..|C-4 LF.F ....|R-- .... ....|A#6 2FFA ....
....|..|C-4 AF.F ....|C-4 3F.7 ....|A-6 2FFF ....
....|..|C-4 LF.F ....|C-4 3F.A ....|C-7 2FFA ....
....|..|C-4 AF.F ....|C-7 2F.F ....|C-7 2F.F ....
....|..|C-4 LF.F ....|C-4 3F.F ....|R-- .... ....
....|..|C-4 LF.F ....|C-4 3F.7 ....|F-4 UFEF ....
....|..|C-4 LF.F ....|C-4 3F.A ....|C-7 2F.A ....
....|..|C-4 CF.F ....|C-4 2F9F ....|R-- .... ....
....|..|C-4 LF.F ....|R-- .... ....|F-4 UFEA ....
....|..|C-4 AF.F ....|G-6 2F.F ....|G-6 2F.F ....
....|..|C-4 LF.F ....|C-4 2F9A ....|R-- .... ....
....|..|C-4 AF.F ....|A-3 2F4F ....|F-6 2FFF ....
....|..|C-4 LF.F ....|R-- .... ....|G-4 UFEF ....
....|..|C-4 LF.F ....|A-6 2F.F ....|A-4 UFEF ....
....|..|C-4 LF.F ....|A-3 2F4A ....|F-6 2FFA ....
....|..|C-4 CF.F ....|D-4 2F6F ....|F-6 2FFF ....
....|..|C-4 LF.F ....|R-- .... ....|G-4 UFEA ....
....|..|C-4 AF.F ....|A-3 2F47 ....|A-4 UFEF ....
....|..|C-4 LF.F ....|D-4 2F6A ....|F-6 2FFA ....
....|..|C-4 AF.F ....|G-3 2F5F ....|E-6 2FFF ....
....|..|C-4 LF.F ....|A-3 2F47 ....|A-4 UFEA ....
....|..|C-4 LF.F ....|E-4 2F7F ....|G-4 UFEF ....
....|..|C-4 LF.F ....|G-3 2F5A ....|E-6 2FFA ....
....|..|C-4 CF.F ....|C-4 2F9F ....|E-6 2FFF ....
....|..|C-4 LF.F ....|R-- .... ....|F-4 UFEA ....
....|..|C-4 AF.F ....|R-- .... ....|G-4 UFEF ....
....|..|C-4 LF.F ....|C-4 2F9A ....|E-6 2FFA ....
....|..|C-4 AF.F ....|F-6 2F.F ....|D-6 2FFF ....
....|..|C-4 LF.F ....|A#3 2F9F ....|R-- .... ....
....|..|C-4 LF.F ....|C-4 2F97 ....|E-6 2FF7 ....
....|..|C-4 LF.F ....|F-3 2F5A ....|D-6 2FFA ....
....|..|C-4 CF.F ....|A#3 2F9F ....|D-6 2FFF ....
....|..|C-4 LF.F ....|R-- .... ....|G-4 UFE7 ....
....|..|C-4 AF.F ....|D-4 2F7F ....|D-6 2FF7 ....
....|..|C-4 LF.F ....|A#3 2F9A ....|D-6 2FFA ....
....|..|C-4 AF.F ....|C-6 2F.F ....|C-6 2FFF ....
....|..|C-4 LF.F ....|D-4 2F7A ....|R-- .... ....
....|..|C-4 LF.F ....|A#3 2F97 ....|D-6 2FF7 ....
....|..|C-4 LF.F ....|G-3 2F5A ....|C-6 2FFA ....
....|..|C-4 CF.F ....|C-4 2F9F ....|F-4 UFEF ....
....|..|C-4 LF.F ....|G-3 2F5F ....|F-4 UFEA ....
....|..|C-4 AF.F ....|G-6 2F.F ....|A#4 UFEF ....
....|..|C-4 LF.F ....|D-4 3F.F ....|F-4 UFEA ....

[Pattern30]
....|..|C-4 AF.F ....|A#4 3F.F ....|C-6 2FFF ....
....|..|C-4 LF.F ....|R-- .... ....|A-4 UFEF ....
....|..|C-4 LF.F ....|A-6 2F.F ....|A-6 2F.F ....
....|..|C-4 LF.F ....|A-4 3F.F ....|C-6 2FFA ....
....|..|C-4 CF.F ....|D-4 2F6F ....|C-6 2FFF ....
....|..|C-4 LF.F ....|R-- .... ....|A-6 2F.A ....
....|..|C-4 AF.F ....|D-4 3F.7 ....|C-6 2FF7 ....
....|..|C-4 LF.F ....|A-4 3F.A ....|C-6 2FFA ....
....|..|C-4 AF.F ....|G-3 2F5F ....|G-6 2FFF ....
....|..|C-4 LF.F ....|A#4 3F.7 ....|A-4 UFE7 ....
....|..|C-4 LF.F ....|E-4 2F7F ....|C-6 2FF7 ....
....|..|C-4 LF.F ....|G-3 2F5A ....|G-6 2FFA ....
....|..|C-4 CF.F ....|C-4 2F9F ....|G-6 2FFF ....
....|..|C-4 LF.F ....|R-- .... ....|R-- .... ....
....|..|C-4 AF.F ....|A#3 3F.F ....|F-4 UFEF ....
....|..|C-4 LF.F ....|C-4 2F9A ....|G-6 2FFA ....
....|..|C-4 AF.F ....|C-4 3F.F ....|A-6 2FFF ....
....|..|C-4 LF.F ....|R-- .... ....|G-4 UFEF ....
....|..|C-4 LF.F ....|A#3 2F9F ....|A#6 2FFF ....
....|..|C-4 LF.F ....|C-4 3F.A ....|A-6 2FFA ....
....|..|C-4 CF.F ....|C-4 3F.F ....|C-7 2FFF ....
....|..|C-4 LF.F ....|R-- .... ....|A#6 2FFA ....
....|..|C-4 AF.F ....|C-4 3F.7 ....|A-6 2FFF ....
....|..|C-4 LF.F ....|C-4 3F.A ....|C-7 2FFA ....
....|..|C-4 AF.F ....|C-7 2F.F ....|F-4 UFEF ....
....|..|C-4 LF.F ....|C-4 3F.F ....|R-- .... ....
....|..|C-4 LF.F ....|C-4 3F.7 ....|C-7 2FF7 ....
....|..|C-4 LF.F ....|C-4 3F.A ....|F-4 UFEA ....
....|..|C-4 CF.F ....|C-4 2F9F ....|R-- .... ....
....|..|C-4 LF.F ....|R-- .... ....|C-7 2F.A ....
....|..|C-4 AF.F ....|G-6 2F.F ....|G-6 2F.F ....
....|..|C-4 LF.F ....|C-4 2F9A ....|R-- .... ....
....|..|C-4 AF.F ....|A-3 2F4F ....|D-6 2FFF ....
....|..|C-4 LF.F ....|R-- .... ....|G-4 UFEF ....
....|..|C-4 LF.F ....|A-6 2F.F ....|A-4 UFEF ....
....|..|C-4 LF.F ....|A-3 2F4A ....|D-6 2FFA ....
....|..|C-4 CF.F ....|D-4 2F6F ....|D-6 2FFF ....
....|..|C-4 LF.F ....|R-- .... ....|G-4 UFEA ....
....|..|C-4 AF.F ....|A-3 2F47 ....|A-4 UFEF ....
....|..|C-4 LF.F ....|D-4 2F6A ....|D-6 2FFA ....
....|..|C-4 AF.F ....|G-3 2F5F ....|F-4 UFEF ....
....|..|C-4 LF.F ....|A-3 2F47 ....|A-4 UFEA ....
....|..|C-4 LF.F ....|E-4 2F7F ....|G-4 UFEF ....
....|..|C-4 LF.F ....|G-3 2F5A ....|A-4 UFEA ....
....|..|C-4 CF.F ....|C-4 2F9F ....|E-6 2FFF ....
....|..|C-4 LF.F ....|R-- .... ....|F-4 UFEA ....
....|..|C-4 AF.F ....|G-6 2F.F ....|G-4 UFEF ....
....|..|C-4 LF.F ....|C-4 2F9A ....|R-- .... ....
....|..|C-4 AF.F ....|F-3 2F5F ....|D-6 2FFF ....
....|..|C-4 LF.F ....|A#3 2F9F ....|G-4 UFEF ....
....|..|C-4 LF.F ....|F-6 2F.F ....|F-6 2F.F ....
....|..|C-4 LF.F ....|F-3 2F5A ....|D-6 2FFA ....
....|..|C-4 CF.F ....|A#3 2F9F ....|D-6 2FFF ....
....|..|C-4 LF.F ....|R-- .... ....|F-6 2F.A ....
....|..|C-4 AF.F ....|D-4 2F7F ....|D-6 2FF7 ....
....|..|C-4 LF.F ....|A#3 2F9A ....|D-6 2FFA ....
....|..|C-4 AF.F ....|G-3 2F5F ....|F-4 UFEF ....
....|..|C-4 LF.F ....|D-4 2F7A ....|F-4 UFEA ....
....|..|C-4 LF.F ....|A#3 2F97 ....|A-5 2FFF ....
....|..|C-4 LF.F ....|G-3 2F5A ....|E-6 2FFF ....
....|..|C-4 CF.F ....|C-4 2F9F ....|A-6 2FFF ....
....|..|C-4 LF.F ....|G-3 2F5F ....|A-5 2FFA ....
....|..|C-4 AF.F ....|G-6 2F.F ....|A#4 UFEF ....
....|..|C-4 LF.F ....|D-4 3F.F ....|R-- .... ....

[Pattern31]
....|..|C-4 AF.F ....|A-5 2F.F ....|C-6 2FFF ....
....|..|C-4 LF.F ....|A#4 3F.F ....|A#4 UFEA ....
....|..|C-4 LF.F ....|A-4 3F.F ....|R-- .... ....
....|..|C-4 LF.F ....|A#4 3F.A ....|C-6 2FFA ....
....|..|C-4 CF.F ....|D-4 2F6F ....|C-6 2FFF ....
....|..|C-4 LF.F ....|R-- .... ....|F-4 UFE7 ....
....|..|C-4 AF.F ....|A-5 2F.A ....|C-6 2FF7 ....
....|..|C-4 LF.F ....|D-4 2F6A ....|C-6 2FFA ....
....|..|C-4 AF.F ....|G-3 2F5F ....|G-6 2FFF ....
....|..|C-4 LF.F ....|A-3 2F47 ....|A-4 UFE7 ....
....|..|C-4 LF.F ....|E-4 2F7F ....|C-6 2FF7 ....
....|..|C-4 LF.F ....|G-3 2F5A ....|G-6 2FFA ....
....|..|C-4 CF.F ....|C-4 2F9F ....|G-6 2FFF ....
....|..|C-4 LF.F ....|R-- .... ....|R-- .... ....
....|..|C-4 AF.F ....|A#3 3F.F ....|G-4 UFEF ....
....|..|C-4 LF.F ....|C-4 2F9A ....|R-- .... ....
....|..|C-4 AF.F ....|C-4 3F.F ....|A-6 2FFF ....
....|..|C-4 LF.F ....|R-- .... ....|G-4 UFEF ....
....|..|C-4 LF.F ....|A#3 2F9F ....|A#6 2FFF ....
....|..|C-4 LF.F ....|C-4 3F.A ....|A-6 2FFA ....
....|..|C-4 CF.F ....|C-4 3F.F ....|C-7 2FFF ....
....|..|C-4 LF.F ....|R-- .... ....|A#6 2FFA ....
....|..|C-4 AF.F ....|C-4 3F.7 ....|A-6 2FFF ....
....|..|C-4 LF.F ....|C-4 3F.A ....|C-7 2FFA ....
....|..|C-4 AF.F ....|C-6 2F.F ....|F-4 UFEF ....
....|..|C-4 LF.F ....|C-4 3F.F ....|A-6 2FFA ....
....|..|C-4 LF.F ....|C-4 3F.7 ....|R-- .... ....
....|..|C-4 LF.F ....|C-4 3F.A ....|F-4 UFEA ....
....|..|C-4 CF.F ....|C-4 2F9F ....|C-6 2F.A ....
....|..|C-4 LF.F ....|R-- .... ....|R-- .... ....
....|..|C-4 AF.F ....|A-5 2F.F ....|A-5 2F.F ....
....|..|C-4 LF.F ....|C-4 2F9A ....|R-- .... ....
....|..|C-4 AF.F ....|G-5 2F.F ....|F-6 2FFF ....
....|..|C-4 LF.F ....|R-- .... ....|G-4 UFEF ....
....|..|C-4 LF.F ....|C-4 2F97 ....|A-4 UFEF ....
....|..|C-4 LF.F ....|A-3 2F4A ....|F-6 2FFA ....
....|..|C-4 CF.F ....|D-4 2F6F ....|F-6 2FFF ....
....|..|C-4 LF.F ....|R-- .... ....|G-4 UFEA ....
....|..|C-4 AF.F ....|D-5 2F.F ....|A-4 UFEF ....
....|..|C-4 LF.F ....|D-4 2F6A ....|F-6 2FFA ....
....|..|C-4 AF.F ....|G-3 2F5F ....|E-6 2FFF ....
....|..|C-4 LF.F ....|A-3 2F47 ....|A-4 UFEA ....
....|..|C-4 LF.F ....|E-4 2F7F ....|G-4 UFEF ....
....|..|C-4 LF.F ....|G-3 2F5A ....|E-6 2FFA ....
....|..|C-4 CF.F ....|C-4 2F9F ....|E-6 2FFF ....
....|..|C-4 LF.F ....|R-- .... ....|F-4 UFEA ....
....|..|C-4 AF.F ....|R-- .... ....|G-4 UFEF ....
....|..|C-4 LF.F ....|C-4 2F9A ....|E-6 2FFA ....
....|..|C-4 AF.F ....|F-3 2F5F ....|D-6 2FFF ....
....|..|C-4 LF.F ....|A#3 2F9F ....|G-4 UFEA ....
....|..|C-4 LF.F ....|D-5 2F.7 ....|E-6 2FF7 ....
....|..|C-4 LF.F ....|F-3 2F5A ....|D-6 2FFA ....
....|..|C-4 CF.F ....|A#3 2F9F ....|D-6 2FFF ....
....|..|C-4 LF.F ....|R-- .... ....|G-4 UFE7 ....
....|..|C-4 AF.F ....|D-4 2F7F ....|D-6 2FF7 ....
....|..|C-4 LF.F ....|A#3 2F9A ....|D-6 2FFA ....
....|..|C-4 AF.F ....|E-5 2F.F ....|C-6 2FFF ....
....|..|C-4 LF.F ....|D-4 2F7A ....|R-- .... ....
....|..|C-4 LF.F ....|A#3 2F97 ....|D-6 2FF7 ....
....|..|C-4 LF.F ....|G-3 2F5A ....|C-6 2FFA ....
....|..|C-4 CF.F ....|C-4 2F9F ....|F-4 UFEF ....
....|..|C-4 LF.F ....|G-3 2F5F ....|F-4 UFEA ....
....|..|C-4 AF.F ....|C-5 2F.F ....|A#4 UFEF ....
....|..|C-4 LF.F ....|D-4 3F.F ....|F-4 UFEA ....

[Pattern32]
....|..|C-4 AF.F ....|A-5 2F.F ....|C-6 2FFF ....
....|..|C-4 LF.F ....|A#4 3F.F ....|A-4 UFEF ....
....|..|C-4 LF.F ....|A-4 3F.F ....|A#4 UFEA ....
....|..|C-4 LF.F ....|A#4 3F.A ....|C-6 2FFA ....
....|..|C-4 CF.F ....|D-4 2F6F ....|C-6 2FFF ....
....|..|C-4 LF.F ....|R-- .... ....|F-4 UFE7 ....
....|..|C-4 AF.F ....|A-5 2F.A ....|C-6 2FF7 ....
....|..|C-4 LF.F ....|D-4 2F6A ....|C-6 2FFA ....
....|..|C-4 AF.F ....|G-3 2F5F ....|G-6 2FFF ....
....|..|C-4 LF.F ....|A-3 2F47 ....|A-4 UFE7 ....
....|..|C-4 LF.F ....|E-4 2F7F ....|C-6 2FF7 ....
....|..|C-4 LF.F ....|G-3 2F5A ....|G-6 2FFA ....
....|..|C-4 CF.F ....|C-4 2F9F ....|G-6 2FFF ....
....|..|C-4 LF.F ....|R-- .... ....|R-- .... ....
....|..|C-4 AF.F ....|A#3 3F.F ....|G-4 UFEF ....
....|..|C-4 LF.F ....|C-4 2F9A ....|R-- .... ....
....|..|C-4 AF.F ....|C-4 3F.F ....|A-6 2FFF ....
....|..|C-4 LF.F ....|R-- .... ....|G-4 UFEF ....
....|..|C-4 LF.F ....|A#3 2F9F ....|A#6 2FFF ....
....|..|C-4 LF.F ....|C-4 3F.A ....|A-6 2FFA ....
....|..|C-4 CF.F ....|C-4 3F.F ....|C-7 2FFF ....
....|..|C-4 LF.F ....|R-- .... ....|A#6 2FFA ....
....|..|C-4 AF.F ....|C-4 3F.7 ....|A-6 2FFF ....
....|..|C-4 LF.F ....|C-4 3F.A ....|C-7 2FFA ....
....|..|C-4 AF.F ....|C-6 2F.F ....|F-4 UFEF ....
....|..|C-4 LF.F ....|C-4 3F.F ....|A-6 2FFA ....
....|..|C-4 LF.F ....|C-4 3F.7 ....|R-- .... ....
....|..|C-4 LF.F ....|C-4 3F.A ....|F-4 UFEA ....
....|..|C-4 CF.F ....|C-4 2F9F ....|A-6 2FF7 ....
....|..|C-4 LF.F ....|R-- .... ....|C-6 2F.A ....
....|..|C-4 AF.F ....|A-5 2F.F ....|A-5 2F.F ....
....|..|C-4 LF.F ....|C-4 2F9A ....|R-- .... ....
....|..|C-4 AF.F ....|G-5 2F.F ....|D-6 2FFF ....
....|..|C-4 LF.F ....|R-- .... ....|G-4 UFEF ....
....|..|C-4 LF.F ....|C-4 2F97 ....|A-4 UFEF ....
....|..|C-4 LF.F ....|A-3 2F4A ....|D-6 2FFA ....
....|..|C-4 CF.F ....|D-4 2F6F ....|D-6 2FFF ....
....|..|C-4 LF.F ....|R-- .... ....|G-4 UFEA ....
....|..|C-4 AF.F ....|D-5 2F.F ....|A-4 UFEF ....
....|..|C-4 LF.F ....|D-4 2F6A ....|D-6 2FFA ....
....|..|C-4 AF.F ....|G-3 2F5F ....|F-4 UFEF ....
....|..|C-4 LF.F ....|A-3 2F47 ....|A-4 UFEA ....
....|..|C-4 LF.F ....|E-4 2F7F ....|G-4 UFEF ....
....|..|C-4 LF.F ....|G-3 2F5A ....|A-4 UFEA ....
....|..|C-4 CF.F ....|D-5 2F.F ....|E-6 2FFF ....
....|..|C-4 LF.F ....|R-- .... ....|F-4 UFEA ....
....|..|C-4 AF.F ....|C-4 2F9F ....|G-4 UFEF ....
....|..|C-4 LF.F ....|C-4 2F9A ....|E-6 2FFA ....
....|..|C-4 AF.F ....|F-3 2F5F ....|D-6 2FFF ....
....|..|C-4 LF.F ....|A#3 2F9F ....|G-4 UFEF ....
....|..|C-4 LF.F ....|D-5 2F.7 ....|E-6 2FF7 ....
....|..|C-4 LF.F ....|F-3 2F5A ....|D-6 2FFA ....
....|..|C-4 CF.F ....|A#3 2F9F ....|D-6 2FFF ....
....|..|C-4 LF.F ....|R-- .... ....|G-4 UFE7 ....
....|..|C-4 AF.F ....|D-4 2F7F ....|D-6 2FF7 ....
....|..|C-4 LF.F ....|A#3 2F9A ....|D-6 2FFA ....
....|..|C-4 AF.F ....|G-3 2F5F ....|F-4 UFEF ....
....|..|C-4 LF.F ....|D-4 2F7A ....|F-4 UFEA ....
....|..|C-4 LF.F ....|A#3 2F97 ....|A-5 2FFF ....
....|..|C-4 LF.F ....|G-3 2F5A ....|E-6 2FFF ....
....|..|C-4 CF.F ....|C-4 2F9F ....|A-6 2FFF ....
....|..|C-4 LF.F ....|G-3 2F5F ....|A-5 2FFA ....
....|..|C-4 AF.F ....|G-3 2F57 ....|E-6 2FFA ....
....|..|C-4 LF.F ....|C-4 2F9A ....|A-6 2FFA ....

[Pattern33]
 C-3|..|C-4 2C.F ....|G-3 2F5A ....|A-5 2FF7 ....
....|..|E-5 2F.A ....|R-- .... ....|R-- .... ....
....|..|C-4 2F.A ....|C-4 2F97 ....|A-6 2FF7 ....
....|..|R-- .... ....|G-3 2F57 ....|R-- .... ....
....|..|C-4 2F.7 ....|R-- .... ....|R-- .... ....
....|..|E-3 2F.7 ....|--- .... ....|--- .... ....

