[Module]
VortexTrackerII=0
Version=3.5
Title=1d-3me,4p-5p+-6p+-3me,7p-2me-5p+-4p+
Author=oisee ^ 4d 29.05.2010
NoteTable=4
ChipFreq=1750000
Speed=4
PlayOrder=L0,1,2,3,4,5,6,7,8,9,10,11,12,13,14,13,16,3,18,3,20,5,22,23,24,3,18,3,28,29,30,31,32,33,34,35,8,9,10,11,40,41,42,43,44,3,46,47,18,3,18,3,52,53,10,55,56,57,58,59,8,9,10,11,64,65,66,67,68


[Ornament1]
L0,0,12,12

[Ornament2]
L0,0,2,2,12,12

[Ornament3]
L0,0,2,2,14,14

[Ornament4]
L0,0,14,14

[Ornament5]
L0,0,10,10

[Ornament6]
L0,0,9,9

[Ornament7]
L0,0,13,13

[Ornament8]
L0,0,3,3,7,7,12,12

[Ornament9]
L0,0,4,4,7,7,12,12

[Ornament10]
L0,0,5,5,8,8

[Ornament11]
L0,0,5,5,9,9

[Ornament12]
L0,0,5,5,7,7


[Sample1]
TnE +000_ +00_ F_
TnE +000_ +00_ F_
TnE +000_ +00_ F_
TnE +000_ +00_ D_
TnE +000_ +00_ B_
TnE +000_ +00_ B_ L

[Sample2]
TnE +000_ +00_ F_ L

[Sample3]
TnE +001_ +00_ F_
TnE +002_ +00_ F_
TnE +001_ +00_ E_
TnE +002_ +00_ E_
TnE +000_ +00_ E_ L
TnE -001_ +00_ E_
TnE -002_ +00_ E_
TnE -001_ +00_ E_
TnE +000_ +00_ E_
TnE +001_ +00_ E_
TnE +002_ +00_ E_
TnE +001_ +00_ E_

[Sample4]
TnE +002_ +00_ D_
TnE +002_ +00_ D_
TnE +002_ +00_ C_
TnE +002_ +00_ B_
TnE +002_ +00_ A_ L
TnE +002_ +00_ A_
TnE +002_ +00_ A_
TnE +002_ +00_ A_
TnE +002_ +00_ A_
TnE +002_ +00_ A_
TnE +002_ +00_ A_
TnE +002_ +00_ A_

[Sample5]
TnE +000_ +00_ F_
TnE +000_ +00_ F_
tne +000_ +00_ 0_ L

[Sample6]
TnE -001_ +00_ F_ L

[Sample7]
TnE +006_ +00_ F_ L

[Sample8]
tNe +000_ +00_ F_
tNe +000_ +00_ B_
tNe +000_ +00_ 7_
tNe +000_ +00_ 6- L

[Sample9]
TnE +080_ +00_ F_
TnE +100_ +00_ E_
TnE +180_ +00_ E_
TnE +200_ +00_ E_
TnE +240_ +00_ D_
TnE +280_ +00_ D_
TnE +2C0_ +00_ D_
TnE +300_ +00_ C_
TnE +300_ +00_ C_
TnE +340_ +00_ C_
TnE +340_ +00_ C_
TnE +380_ +00_ B_
TnE +380_ +00_ B_
TnE +400_ +00_ B_
TnE +400_ +00_ B_
TnE +480_ +00_ A_
TnE +500_ +00_ 9_
TnE +580_ +00_ 7_
TnE +600_ +00_ 4_
TnE +680_ +00_ 1_
TnE +000_ +00_ 0_ L

[Sample10]
Tne +1C0_ +00_ F_
Tne +280_ +00_ E_
Tne +380_ +00_ C_
Tne +440_ +00_ A_
Tne +480_ +00_ 8_
TnE +000_ +00_ 0_ L

[Sample11]
TNe +200_ -0A_ F_
tNe +000_ +0F_ A_
TNe +200_ -07_ E_
tNe +000_ +0E_ B- L

[Sample12]
TNE +0A0_ +05_ F_
TNE +140_ +02_ D_
TNE +140_ +02_ B_
TNE +100_ +00_ A_ L
TNE +140_ +00_ A_
TNE +200_ +00_ A-

[Sample13]
Tne +200_ +00_ F_
Tne +2C0_ +00_ F_
Tne +380_ +00_ E_
Tne +500_ +00_ C_
Tne +520_ +00_ 9_
tne +000_ +00_ 0_ L

[Sample14]
TNE -100_ +00_ F_
TNE -100_ +00_ D_
TNE -100_ +00_ A_
TNE -100_ +00_ 5_
tne +000_ +00_ 0_ L

[Sample15]
TNE -100_ +00_ 5_
TNE -100_ +00_ 8_
TNE -100_ +00_ B_
TNE -100_ +00_ F_
TNe -100_ +00_ 9- L

[Sample16]
TnE +000_ +00_ C_
TnE +000_ +00_ E_
TnE +000_ +00_ F_
TnE +000_ +00_ F_
TnE +000_ +00_ E_
TnE +000_ +00_ D_
TnE +000_ +00_ C_
TnE +000_ +00_ C_ L
TnE +001_ +00_ C_
TnE +002_ +00_ C_
TnE +003_ +00_ C_
TnE +001_ +00_ C_
TnE +000_ +00_ C_
TnE -001_ +00_ C_
TnE -002_ +00_ C_
TnE -003_ +00_ C_
TnE -001_ +00_ C_
TnE +000_ +00_ C_
TnE +000_ +00_ C_

[Sample17]
Tne +1C0_ +00_ F_
Tne +280_ +00_ D_
Tne +380_ +00_ 7_
TNE +000_ +00_ 0_ L

[Sample18]
TnE -00C_ +00_ 0_ L

[Sample19]
TNe +000_ +00_ F_
TNe +000_ +00_ C_
TNe +000_ +00_ 6_
TNe +000_ +01_ A- L

[Sample20]
TNE +140_ +00_ F_
tNE +000_ +00_ B- L

[Sample21]
tNE +000_ +00_ D_
tNE +000_ +00_ 8_
tNE +000_ +00_ 1_
TNE +000_ +00_ 0_ L

[Sample22]
TnE +000_ +00_ D_ L
TnE +000_ +00_ D_
tne +000_ +00_ 9_
tne +000_ +00_ 9_
TnE +000_ +00_ D_
TnE +000_ +00_ D_
tne +000_ +00_ 9_
tne +000_ +00_ 9_
TnE +000_ +00_ D_
TnE +000_ +00_ D_
TnE +000_ +00_ D_
TnE +000_ +00_ D_
TnE +000_ +00_ D_
TnE +000_ +00_ D_
tne +000_ +00_ 9_
tne +000_ +00_ 9_

[Sample23]
TnE +000_ +00_ F_ L
TnE +010_ +01_ F_
TnE +010_ +01_ F_
TnE +010_ +01_ F_
TnE +010_ +01_ F_
TnE +000_ +00_ F_
TnE +000_ +00_ F_
TnE -010_ -01_ F_
TnE -010_ -01_ F_
TnE -010_ -01_ F_
TnE -010_ -01_ F_
TnE +000_ +00_ F_

[Sample24]
TNe +000_ -01_ C_
TNe +000_ -01_ D_
TNe +000_ -01_ E_
TNe +000_ -01_ F_
TNe +000_ -01_ F_
TNe +000_ -01_ F_
TNe +000_ -01_ F_
TNe +000_ -01_ F_
TNe +000_ -01_ E_
TNe +000_ -01_ E_
TNe +000_ -01_ E_
TNe +000_ -01_ F_
TNe +000_ -01_ F_ L

[Sample25]
TNE +000_ +00_ F_
TNE +000_ +00_ F_ L
TNE +000_ +00_ F_
TNE +000_ +00_ F_
TNE +000_ +00_ F-

[Sample26]
tne +000_ +00_ 0_ L

[Sample27]
TnE +100_ +05_ F_
TnE +200_ +02_ A_
TnE +300_ +02_ 7_
TNE +400_ +00_ 3- L

[Sample28]
tne +000_ +00_ 0_ L

[Sample29]
tnE +000_ +00_ 0_ L

[Sample30]
TNE +000_ +00_ C+ L

[Sample31]
TNe +1C0_ +00_ F_
Tne +280_ +00_ E_
Tne +380_ +00_ C_
Tne +440_ +00_ A_
Tne +480_ +00_ 8_
TnE +000_ +00_ 0_ L

[Pattern0]
....|..|C-4 AF.F ....|--- .... ....|--- .... ....
....|..|R-- .... ....|--- .... ....|--- .... ....
....|..|B-8 JF.F ....|--- .... ....|--- .... ....
....|..|C-4 AF.A ....|--- .... ....|--- .... ....
....|..|B-8 JF.F ....|--- .... ....|--- .... ....
....|..|B-8 JF.A ....|--- .... ....|--- .... ....
....|..|B-8 JF.F ....|--- .... ....|--- .... ....
....|..|B-8 JF.A ....|--- .... ....|--- .... ....
....|..|C-4 CF.F ....|--- .... ....|--- .... ....
....|..|B-8 JF.A ....|--- .... ....|--- .... ....
....|..|B-8 JF.F ....|--- .... ....|--- .... ....
....|..|C-4 CF.A ....|--- .... ....|--- .... ....
....|..|C-4 AF.F ....|--- .... ....|--- .... ....
....|..|B-8 JF.A ....|--- .... ....|--- .... ....
....|..|C-4 CF.F ....|--- .... ....|--- .... ....
....|..|C-4 AF.A ....|--- .... ....|--- .... ....
....|..|C-4 BF.F ....|--- .... ....|--- .... ....
....|..|C-4 CF.A ....|--- .... ....|--- .... ....
....|..|C-4 CF.F ....|--- .... ....|--- .... ....
....|..|C-4 BF.A ....|--- .... ....|--- .... ....
....|..|B-8 JF.F ....|--- .... ....|--- .... ....
....|..|C-4 CF.A ....|--- .... ....|--- .... ....
....|..|C-4 BF.F ....|--- .... ....|--- .... ....
....|..|B-8 JF.A ....|--- .... ....|--- .... ....
....|..|C-4 CF.F ....|--- .... ....|--- .... ....
....|..|C-4 BF.A ....|--- .... ....|--- .... ....
....|..|B-8 JF.F ....|--- .... ....|--- .... ....
....|..|C-4 CF.A ....|--- .... ....|--- .... ....
....|..|C-3 RF.F ....|--- .... ....|--- .... ....
....|..|B-8 JF.A ....|--- .... ....|--- .... ....
....|..|C-4 CF.F ....|--- .... ....|--- .... ....
....|..|C-3 RF.A ....|--- .... ....|--- .... ....
....|..|C-4 AF.F ....|--- .... ....|--- .... ....
....|..|C-4 CF.A ....|--- .... ....|--- .... ....
....|..|B-8 JF.F ....|--- .... ....|--- .... ....
....|..|C-4 AF.A ....|--- .... ....|--- .... ....
....|..|B-8 JF.F ....|--- .... ....|--- .... ....
....|..|B-8 JF.A ....|--- .... ....|--- .... ....
....|..|B-8 JF.F ....|--- .... ....|--- .... ....
....|..|B-8 JF.A ....|--- .... ....|--- .... ....
....|..|C-4 CF.F ....|--- .... ....|--- .... ....
....|..|B-8 JF.A ....|--- .... ....|--- .... ....
....|..|B-8 JF.F ....|--- .... ....|--- .... ....
....|..|C-4 CF.A ....|--- .... ....|--- .... ....
....|..|C-4 AF.F ....|--- .... ....|--- .... ....
....|..|B-8 JF.A ....|--- .... ....|--- .... ....
....|..|C-4 CF.F ....|--- .... ....|--- .... ....
....|..|C-4 AF.A ....|--- .... ....|--- .... ....
....|..|B-8 JF.F ....|--- .... ....|--- .... ....
....|..|C-4 CF.A ....|--- .... ....|--- .... ....
....|..|C-5 VF.F ....|--- .... ....|--- .... ....
....|..|B-8 JF.A ....|--- .... ....|--- .... ....
....|..|C-4 AF.F ....|--- .... ....|--- .... ....
....|..|C-5 VF.A ....|--- .... ....|--- .... ....
....|..|B-8 JF.F ....|--- .... ....|--- .... ....
....|..|C-4 AF.A ....|--- .... ....|--- .... ....
....|..|C-4 CF.F ....|--- .... ....|--- .... ....
....|..|B-8 JF.A ....|--- .... ....|--- .... ....
....|..|B-8 JF.F ....|--- .... ....|--- .... ....
....|..|C-4 CF.A ....|--- .... ....|--- .... ....
....|..|C-4 AF.F ....|--- .... ....|--- .... ....
....|..|B-8 JF.A ....|--- .... ....|--- .... ....
....|..|C-4 CF.F ....|--- .... ....|--- .... ....
....|..|C-4 AF.A ....|--- .... ....|--- .... ....

[Pattern1]
....|..|C-4 AF.F ....|--- .... ....|--- .... ....
....|..|C-4 CF.A ....|--- .... ....|--- .... ....
....|..|B-8 JF.F ....|--- .... ....|--- .... ....
....|..|C-4 AF.A ....|--- .... ....|--- .... ....
....|..|B-8 JF.F ....|--- .... ....|--- .... ....
....|..|B-8 JF.A ....|--- .... ....|--- .... ....
....|..|B-8 JF.F ....|--- .... ....|--- .... ....
....|..|B-8 JF.A ....|--- .... ....|--- .... ....
....|..|C-4 CF.F ....|--- .... ....|--- .... ....
....|..|B-8 JF.A ....|--- .... ....|--- .... ....
....|..|B-8 JF.F ....|--- .... ....|--- .... ....
....|..|C-4 CF.A ....|--- .... ....|--- .... ....
....|..|C-4 AF.F ....|--- .... ....|--- .... ....
....|..|B-8 JF.A ....|--- .... ....|--- .... ....
....|..|C-4 CF.F ....|--- .... ....|--- .... ....
....|..|C-4 AF.A ....|--- .... ....|--- .... ....
....|..|B-8 JF.F ....|--- .... ....|--- .... ....
....|..|C-4 CF.A ....|--- .... ....|--- .... ....
....|..|C-4 CF.F ....|--- .... ....|--- .... ....
....|..|B-8 JF.A ....|--- .... ....|--- .... ....
....|..|B-8 JF.F ....|--- .... ....|--- .... ....
....|..|C-4 CF.A ....|--- .... ....|--- .... ....
....|..|B-8 JF.F ....|--- .... ....|--- .... ....
....|..|B-8 JF.A ....|--- .... ....|--- .... ....
....|..|C-4 CF.F ....|--- .... ....|--- .... ....
....|..|B-8 JF.A ....|--- .... ....|--- .... ....
....|..|B-8 JF.F ....|--- .... ....|--- .... ....
....|..|C-4 CF.A ....|--- .... ....|--- .... ....
....|..|C-3 RF.F ....|--- .... ....|--- .... ....
....|..|B-8 JF.A ....|--- .... ....|--- .... ....
....|..|C-4 CF.F ....|--- .... ....|--- .... ....
....|..|C-3 RF.A ....|--- .... ....|--- .... ....
....|..|C-4 AF.F ....|--- .... ....|--- .... ....
....|..|C-4 CF.A ....|--- .... ....|--- .... ....
....|..|B-8 JF.F ....|--- .... ....|--- .... ....
....|..|C-4 AF.A ....|--- .... ....|--- .... ....
....|..|B-8 JF.F ....|--- .... ....|--- .... ....
....|..|B-8 JF.A ....|--- .... ....|--- .... ....
....|..|B-8 JF.F ....|--- .... ....|--- .... ....
....|..|B-8 JF.A ....|--- .... ....|--- .... ....
....|..|C-4 CF.F ....|--- .... ....|--- .... ....
....|..|B-8 JF.A ....|--- .... ....|--- .... ....
....|..|B-8 JF.F ....|--- .... ....|--- .... ....
....|..|C-4 CF.A ....|--- .... ....|--- .... ....
....|..|C-4 AF.F ....|--- .... ....|--- .... ....
....|..|B-8 JF.A ....|--- .... ....|--- .... ....
....|..|C-4 CF.F ....|--- .... ....|--- .... ....
....|..|C-4 AF.A ....|--- .... ....|--- .... ....
....|..|B-8 JF.F ....|--- .... ....|--- .... ....
....|..|C-4 CF.A ....|--- .... ....|--- .... ....
....|..|B-8 JF.F ....|--- .... ....|--- .... ....
....|..|B-8 JF.A ....|--- .... ....|--- .... ....
....|..|C-4 AF.F ....|--- .... ....|--- .... ....
....|..|B-8 JF.A ....|--- .... ....|--- .... ....
....|..|B-8 JF.F ....|--- .... ....|--- .... ....
....|..|C-4 AF.A ....|--- .... ....|--- .... ....
....|..|C-4 CF.F ....|--- .... ....|--- .... ....
....|..|B-8 JF.A ....|--- .... ....|--- .... ....
....|..|C-4 AF.F ....|--- .... ....|--- .... ....
....|..|C-4 CF.A ....|--- .... ....|--- .... ....
....|..|C-3 RF.F ....|--- .... ....|--- .... ....
....|..|C-4 AF.A ....|--- .... ....|--- .... ....
....|..|C-4 CF.F ....|--- .... ....|--- .... ....
....|..|C-3 RF.A ....|--- .... ....|--- .... ....

[Pattern2]
 C#4|..|C-4 AF.F ....|--- .... ....|C#2 2A.F ....
....|..|C-4 CF.A ....|--- .... ....|--- .... ....
 C#4|..|B-8 JF.F ....|--- .... ....|C#2 2A.F ....
....|..|C-4 AF.A ....|--- .... ....|C#2 2F.A ....
 C#4|..|B-8 JF.F ....|--- .... ....|C#2 2A.F ....
....|..|B-8 JF.A ....|--- .... ....|C#2 2F.A ....
 C#4|..|B-8 JF.F ....|--- .... ....|C#2 2A.F ....
....|..|B-8 JF.A ....|--- .... ....|C#2 2F.A ....
....|..|C-4 CF.F ....|--- .... ....|C#2 2F.7 ....
....|..|B-8 JF.A ....|--- .... ....|C#2 2F.A ....
 C#4|..|B-8 JF.F ....|--- .... ....|C#2 2A.F ....
....|..|C-4 CF.A ....|--- .... ....|R-- .... ....
 C#4|..|C-4 AF.F ....|--- .... ....|C#2 2A.F ....
....|..|B-8 JF.A ....|--- .... ....|C#2 2F.A ....
 C#4|..|C-4 CF.F ....|--- .... ....|C#2 2A.F ....
....|..|C-4 AF.A ....|--- .... ....|C#2 2F.A ....
 C#4|..|C-4 BF.F ....|--- .... ....|C#2 2A.F ....
....|..|C-4 CF.A ....|--- .... ....|C#2 2F.A ....
 C#4|..|C-4 CF.F ....|--- .... ....|C#2 2A.F ....
....|..|C-4 BF.A ....|--- .... ....|C#2 2F.A ....
 C#4|..|B-8 JF.F ....|--- .... ....|C#2 2A.F ....
....|..|C-4 CF.A ....|--- .... ....|C#2 2F.A ....
 C#4|..|C-4 BF.F ....|--- .... ....|C#2 2A.F ....
....|..|B-8 JF.A ....|--- .... ....|C#2 2F.A ....
....|..|C-4 CF.F ....|--- .... ....|C#2 2F.7 ....
....|..|C-4 BF.A ....|--- .... ....|C#2 2F.A ....
....|..|B-8 JF.F ....|--- .... ....|C#2 2F.7 ....
....|..|C-4 CF.A ....|--- .... ....|R-- .... ....
 C#4|..|C-3 RF.F ....|--- .... ....|C#2 2A.F ....
....|..|B-8 JF.A ....|--- .... ....|--- .... ....
 C#4|..|C-4 CF.F ....|--- .... ....|C#2 2A.F ....
....|..|C-3 RF.A ....|--- .... ....|C#2 2F.A ....
 C#4|..|C-4 AF.F ....|--- .... ....|C#2 2A.F ....
....|..|C-4 CF.A ....|--- .... ....|C#2 2F.A ....
 C#4|..|B-8 JF.F ....|--- .... ....|C#2 2A.F ....
....|..|C-4 AF.A ....|--- .... ....|C#2 2F.A ....
 C#4|..|B-8 JF.F ....|--- .... ....|C#2 2A.F ....
....|..|B-8 JF.A ....|--- .... ....|C#2 2F.A ....
 C#4|..|B-8 JF.F ....|--- .... ....|C#2 2A.F ....
....|..|B-8 JF.A ....|--- .... ....|C#2 2F.A ....
....|..|C-4 CF.F ....|--- .... ....|C#2 2F.7 ....
....|..|B-8 JF.A ....|--- .... ....|C#2 2F.A ....
 C#4|..|B-8 JF.F ....|--- .... ....|C#2 2A.F ....
....|..|C-4 CF.A ....|--- .... ....|R-- .... ....
 C#4|..|C-4 AF.F ....|--- .... ....|C#2 2A.F ....
....|..|B-8 JF.A ....|--- .... ....|C#2 2F.A ....
 C#4|..|C-4 CF.F ....|--- .... ....|C#2 2A.F ....
....|..|C-4 AF.A ....|--- .... ....|C#2 2F.A ....
 C#4|..|B-8 JF.F ....|--- .... ....|C#2 2A.F ....
....|..|C-4 CF.A ....|--- .... ....|C#2 2F.A ....
 C#4|..|C-5 VF.F ....|--- .... ....|C#2 2A.F ....
....|..|B-8 JF.A ....|--- .... ....|C#2 2F.A ....
 C#4|..|C-4 AF.F ....|--- .... ....|C#2 2A.F ....
....|..|C-5 VF.A ....|--- .... ....|C#2 2F.A ....
 C#4|..|B-8 JF.F ....|--- .... ....|C#2 2A.F ....
....|..|C-4 AF.A ....|--- .... ....|C#2 2F.A ....
....|..|C-4 CF.F ....|--- .... ....|C#2 2F.7 ....
....|..|B-8 JF.A ....|--- .... ....|C#2 2F.A ....
....|..|B-8 JF.F ....|--- .... ....|C#2 2F.7 ....
....|..|C-4 CF.A ....|--- .... ....|R-- .... ....
....|..|C-4 AF.F ....|--- .... ....|C#2 2F.7 ....
....|..|B-8 JF.A ....|--- .... ....|--- .... ....
....|..|C-4 CF.F ....|--- .... ....|R-- .... ....
....|..|C-4 AF.A ....|--- .... ....|--- .... ....

[Pattern3]
 C#4|..|C-4 AF.F ....|--- .... ....|C#2 2A.F ....
....|..|C-4 CF.A ....|--- .... ....|--- .... ....
 C#4|..|B-8 JF.F ....|--- .... ....|C#2 2A.F ....
....|..|C-4 AF.A ....|--- .... ....|C#2 2F.A ....
 C#4|..|B-8 JF.F ....|--- .... ....|C#2 2A.F ....
....|..|B-8 JF.A ....|--- .... ....|C#2 2F.A ....
 C#4|..|B-8 JF.F ....|--- .... ....|C#2 2A.F ....
....|..|B-8 JF.A ....|--- .... ....|C#2 2F.A ....
....|..|C-4 CF.F ....|--- .... ....|C#2 2F.7 ....
....|..|B-8 JF.A ....|--- .... ....|C#2 2F.A ....
 C#4|..|B-8 JF.F ....|--- .... ....|C#2 2A.F ....
....|..|C-4 CF.A ....|--- .... ....|R-- .... ....
 C#4|..|C-4 AF.F ....|--- .... ....|C#2 2A.F ....
....|..|B-8 JF.A ....|--- .... ....|C#2 2F.A ....
 C#4|..|C-4 CF.F ....|--- .... ....|C#2 2A.F ....
....|..|C-4 AF.A ....|--- .... ....|C#2 2F.A ....
 C#4|..|B-8 JF.F ....|--- .... ....|C#2 2A.F ....
....|..|C-4 CF.A ....|--- .... ....|C#2 2F.A ....
 C#4|..|C-4 CF.F ....|--- .... ....|C#2 2A.F ....
....|..|B-8 JF.A ....|--- .... ....|C#2 2F.A ....
 C#4|..|B-8 JF.F ....|--- .... ....|C#2 2A.F ....
....|..|C-4 CF.A ....|--- .... ....|C#2 2F.A ....
 C#4|..|B-8 JF.F ....|--- .... ....|C#2 2A.F ....
....|..|B-8 JF.A ....|--- .... ....|C#2 2F.A ....
....|..|C-4 CF.F ....|--- .... ....|C#2 2F.7 ....
....|..|B-8 JF.A ....|--- .... ....|C#2 2F.A ....
....|..|B-8 JF.F ....|--- .... ....|C#2 2F.7 ....
....|..|C-4 CF.A ....|--- .... ....|R-- .... ....
....|..|C-3 RF.F ....|--- .... ....|C#2 2F.7 ....
....|..|B-8 JF.A ....|--- .... ....|--- .... ....
....|..|C-4 CF.F ....|--- .... ....|R-- .... ....
....|..|C-3 RF.A ....|--- .... ....|--- .... ....
 C#4|..|C-4 AF.F ....|--- .... ....|C#2 2A.F ....
....|..|C-4 CF.A ....|--- .... ....|--- .... ....
 C#4|..|B-8 JF.F ....|--- .... ....|C#2 2A.F ....
....|..|C-4 AF.A ....|--- .... ....|C#2 2F.A ....
 C#4|..|B-8 JF.F ....|--- .... ....|C#2 2A.F ....
....|..|B-8 JF.A ....|--- .... ....|C#2 2F.A ....
 C#4|..|B-8 JF.F ....|--- .... ....|C#2 2A.F ....
....|..|B-8 JF.A ....|--- .... ....|C#2 2F.A ....
....|..|C-4 CF.F ....|--- .... ....|C#2 2F.7 ....
....|..|B-8 JF.A ....|--- .... ....|C#2 2F.A ....
 C#4|..|B-8 JF.F ....|--- .... ....|C#2 2A.F ....
....|..|C-4 CF.A ....|--- .... ....|R-- .... ....
 C#4|..|C-4 AF.F ....|--- .... ....|C#2 2A.F ....
....|..|B-8 JF.A ....|--- .... ....|C#2 2F.A ....
 C#4|..|C-4 CF.F ....|--- .... ....|C#2 2A.F ....
....|..|C-4 AF.A ....|--- .... ....|C#2 2F.A ....
 C#4|..|B-8 JF.F ....|--- .... ....|C#2 2A.F ....
....|..|C-4 CF.A ....|--- .... ....|C#2 2F.A ....
 C#4|..|B-8 JF.F ....|--- .... ....|C#2 2A.F ....
....|..|B-8 JF.A ....|--- .... ....|C#2 2F.A ....
 C#4|..|C-4 AF.F ....|--- .... ....|C#2 2A.F ....
....|..|B-8 JF.A ....|--- .... ....|C#2 2F.A ....
 C#4|..|B-8 JF.F ....|--- .... ....|C#2 2A.F ....
....|..|C-4 AF.A ....|--- .... ....|C#2 2F.A ....
....|..|C-4 CF.F ....|--- .... ....|C#2 2F.7 ....
....|..|B-8 JF.A ....|--- .... ....|C#2 2F.A ....
....|..|C-4 AF.F ....|--- .... ....|C#2 2F.7 ....
....|..|C-4 CF.A ....|--- .... ....|R-- .... ....
....|..|C-3 RF.F ....|--- .... ....|C#2 2F.7 ....
....|..|C-4 AF.A ....|--- .... ....|--- .... ....
....|..|C-4 CF.F ....|--- .... ....|R-- .... ....
....|..|C-3 RF.A ....|--- .... ....|--- .... ....

[Pattern4]
 C#4|..|C-4 AF.F ....|C#4 2F8F ....|C#2 2A.F ....
....|..|C-4 CF.A ....|--- .... ....|--- .... ....
 C#4|..|B-8 JF.F ....|--- .... ....|C#2 2A.F ....
....|..|C-4 AF.A ....|C#4 2F8A ....|C#2 2F.A ....
 C#4|..|B-8 JF.F ....|--- .... ....|C#2 2A.F ....
....|..|B-8 JF.A ....|--- .... ....|C#2 2F.A ....
 C#4|..|B-8 JF.F ....|C#4 2F8F ....|C#2 2A.F ....
....|..|B-8 JF.A ....|--- .... ....|C#2 2F.A ....
....|..|C-4 CF.F ....|R-- .... ....|C#2 2F.7 ....
....|..|B-8 JF.A ....|C#4 2F8A ....|C#2 2F.A ....
 C#4|..|B-8 JF.F ....|--- .... ....|C#2 2A.F ....
....|..|C-4 CF.A ....|R-- .... ....|R-- .... ....
 C#4|..|C-4 AF.F ....|C#4 2F87 ....|C#2 2A.F ....
....|..|B-8 JF.A ....|--- .... ....|C#2 2F.A ....
 C#4|..|C-4 CF.F ....|R-- .... ....|C#2 2A.F ....
....|..|C-4 AF.A ....|--- .... ....|C#2 2F.A ....
 C#4|..|C-4 BF.F ....|--- .... ....|C#2 2A.F ....
....|..|C-4 CF.A ....|--- .... ....|C#2 2F.A ....
 C#4|..|C-4 CF.F ....|--- .... ....|C#2 2A.F ....
....|..|C-4 BF.A ....|--- .... ....|C#2 2F.A ....
 C#4|..|B-8 JF.F ....|C#4 2F8F ....|C#2 2A.F ....
....|..|C-4 CF.A ....|--- .... ....|C#2 2F.A ....
 C#4|..|C-4 BF.F ....|R-- .... ....|C#2 2A.F ....
....|..|B-8 JF.A ....|C#4 2F8A ....|C#2 2F.A ....
....|..|C-4 CF.F ....|--- .... ....|C#2 2F.7 ....
....|..|C-4 BF.A ....|R-- .... ....|C#2 2F.A ....
....|..|B-8 JF.F ....|C#4 2F8F ....|C#2 2F.7 ....
....|..|C-4 CF.A ....|--- .... ....|R-- .... ....
....|..|C-3 RF.F ....|R-- .... ....|C#2 2F.7 ....
....|..|B-8 JF.A ....|C#4 2F8A ....|--- .... ....
....|..|C-4 CF.F ....|--- .... ....|R-- .... ....
....|..|C-3 RF.A ....|R-- .... ....|--- .... ....
 C#4|..|C-4 AF.F ....|A-4 2F9F ....|C#2 2A.F ....
....|..|C-4 CF.A ....|--- .... ....|--- .... ....
 C#4|..|B-8 JF.F ....|R-- .... ....|C#2 2A.F ....
....|..|C-4 AF.A ....|A-4 2F9A ....|C#2 2F.A ....
 C#4|..|B-8 JF.F ....|--- .... ....|C#2 2A.F ....
....|..|B-8 JF.A ....|--- .... ....|C#2 2F.A ....
 C#4|..|B-8 JF.F ....|A-4 2F9F ....|C#2 2A.F ....
....|..|B-8 JF.A ....|--- .... ....|C#2 2F.A ....
....|..|C-4 CF.F ....|R-- .... ....|C#2 2F.7 ....
....|..|B-8 JF.A ....|A-4 2F9A ....|C#2 2F.A ....
 C#4|..|B-8 JF.F ....|--- .... ....|C#2 2A.F ....
....|..|C-4 CF.A ....|R-- .... ....|R-- .... ....
 C#4|..|C-4 AF.F ....|A-4 2F97 ....|C#2 2A.F ....
....|..|B-8 JF.A ....|--- .... ....|C#2 2F.A ....
 C#4|..|C-4 CF.F ....|R-- .... ....|C#2 2A.F ....
....|..|C-4 AF.A ....|--- .... ....|C#2 2F.A ....
 C#4|..|B-8 JF.F ....|B-4 2F9F ....|C#2 2A.F ....
....|..|C-4 CF.A ....|--- .... ....|C#2 2F.A ....
 C#4|..|C-5 VF.F ....|--- .... ....|C#2 2A.F ....
....|..|B-8 JF.A ....|B-4 2F9A ....|C#2 2F.A ....
 C#4|..|C-4 AF.F ....|--- .... ....|C#2 2A.F ....
....|..|C-5 VF.A ....|--- .... ....|C#2 2F.A ....
 C#4|..|B-8 JF.F ....|B-4 2F9F ....|C#2 2A.F ....
....|..|C-4 AF.A ....|--- .... ....|C#2 2F.A ....
....|..|C-4 CF.F ....|R-- .... ....|C#2 2F.7 ....
....|..|B-8 JF.A ....|B-4 2F9A ....|C#2 2F.A ....
....|..|B-8 JF.F ....|--- .... ....|C#2 2F.7 ....
....|..|C-4 CF.A ....|R-- .... ....|R-- .... ....
....|..|C-4 AF.F ....|B-4 2F97 ....|C#2 2F.7 ....
....|..|B-8 JF.A ....|--- .... ....|--- .... ....
....|..|C-4 CF.F ....|R-- .... ....|R-- .... ....
....|..|C-4 AF.A ....|--- .... ....|--- .... ....

[Pattern5]
 C#4|..|C-4 AF.F ....|C#4 2F8F ....|C#2 2A.F ....
....|..|C-4 CF.A ....|--- .... ....|--- .... ....
 C#4|..|B-8 JF.F ....|R-- .... ....|C#2 2A.F ....
....|..|C-4 AF.A ....|C#4 2F8A ....|C#2 2F.A ....
 C#4|..|B-8 JF.F ....|--- .... ....|C#2 2A.F ....
....|..|B-8 JF.A ....|R-- .... ....|C#2 2F.A ....
 C#4|..|B-8 JF.F ....|C#4 2F87 ....|C#2 2A.F ....
....|..|B-8 JF.A ....|--- .... ....|C#2 2F.A ....
....|..|C-4 CF.F ....|R-- .... ....|C#2 2F.7 ....
....|..|B-8 JF.A ....|--- .... ....|C#2 2F.A ....
 C#4|..|B-8 JF.F ....|--- .... ....|C#2 2A.F ....
....|..|C-4 CF.A ....|--- .... ....|R-- .... ....
 C#4|..|C-4 AF.F ....|--- .... ....|C#2 2A.F ....
....|..|B-8 JF.A ....|--- .... ....|C#2 2F.A ....
 C#4|..|C-4 CF.F ....|--- .... ....|C#2 2A.F ....
....|..|C-4 AF.A ....|--- .... ....|C#2 2F.A ....
 C#4|..|B-8 JF.F ....|--- .... ....|C#2 2A.F ....
....|..|C-4 CF.A ....|--- .... ....|C#2 2F.A ....
 C#4|..|C-4 CF.F ....|--- .... ....|C#2 2A.F ....
....|..|B-8 JF.A ....|--- .... ....|C#2 2F.A ....
 C#4|..|B-8 JF.F ....|C#4 2F8F ....|C#2 2A.F ....
....|..|C-4 CF.A ....|--- .... ....|C#2 2F.A ....
 C#4|..|B-8 JF.F ....|R-- .... ....|C#2 2A.F ....
....|..|B-8 JF.A ....|C#4 2F8A ....|C#2 2F.A ....
....|..|C-4 CF.F ....|--- .... ....|C#2 2F.7 ....
....|..|B-8 JF.A ....|R-- .... ....|C#2 2F.A ....
....|..|B-8 JF.F ....|C#4 2F8F ....|C#2 2F.7 ....
....|..|C-4 CF.A ....|--- .... ....|R-- .... ....
....|..|C-3 RF.F ....|R-- .... ....|C#2 2F.7 ....
....|..|B-8 JF.A ....|C#4 2F8A ....|--- .... ....
....|..|C-4 CF.F ....|--- .... ....|R-- .... ....
....|..|C-3 RF.A ....|R-- .... ....|--- .... ....
 C#4|..|C-4 AF.F ....|A-4 2F9F ....|C#2 2A.F ....
....|..|C-4 CF.A ....|--- .... ....|--- .... ....
 C#4|..|B-8 JF.F ....|R-- .... ....|C#2 2A.F ....
....|..|C-4 AF.A ....|A-4 2F9A ....|C#2 2F.A ....
 C#4|..|B-8 JF.F ....|--- .... ....|C#2 2A.F ....
....|..|B-8 JF.A ....|--- .... ....|C#2 2F.A ....
 C#4|..|B-8 JF.F ....|A-4 2F9F ....|C#2 2A.F ....
....|..|B-8 JF.A ....|--- .... ....|C#2 2F.A ....
....|..|C-4 CF.F ....|R-- .... ....|C#2 2F.7 ....
....|..|B-8 JF.A ....|A-4 2F9A ....|C#2 2F.A ....
 C#4|..|B-8 JF.F ....|--- .... ....|C#2 2A.F ....
....|..|C-4 CF.A ....|R-- .... ....|R-- .... ....
 C#4|..|C-4 AF.F ....|A-4 2F97 ....|C#2 2A.F ....
....|..|B-8 JF.A ....|--- .... ....|C#2 2F.A ....
 C#4|..|C-4 CF.F ....|R-- .... ....|C#2 2A.F ....
....|..|C-4 AF.A ....|--- .... ....|C#2 2F.A ....
 C#4|..|B-8 JF.F ....|B-4 2F9F ....|C#2 2A.F ....
....|..|C-4 CF.A ....|--- .... ....|C#2 2F.A ....
 C#4|..|B-8 JF.F ....|--- .... ....|C#2 2A.F ....
....|..|B-8 JF.A ....|B-4 2F9A ....|C#2 2F.A ....
 C#4|..|C-4 AF.F ....|--- .... ....|C#2 2A.F ....
....|..|B-8 JF.A ....|--- .... ....|C#2 2F.A ....
 C#4|..|B-8 JF.F ....|B-4 2F9F ....|C#2 2A.F ....
....|..|C-4 AF.A ....|--- .... ....|C#2 2F.A ....
....|..|C-4 CF.F ....|R-- .... ....|C#2 2F.7 ....
....|..|B-8 JF.A ....|B-4 2F9A ....|C#2 2F.A ....
....|..|C-4 AF.F ....|--- .... ....|C#2 2F.7 ....
....|..|C-4 CF.A ....|R-- .... ....|R-- .... ....
....|..|C-3 RF.F ....|B-4 2F97 ....|C#2 2F.7 ....
....|..|C-4 AF.A ....|--- .... ....|--- .... ....
....|..|C-4 CF.F ....|R-- .... ....|R-- .... ....
....|..|C-3 RF.A ....|--- .... ....|--- .... ....

[Pattern6]
 C#4|..|C-4 AF.F ....|C#4 2F8F ....|C#2 2A.F ....
....|..|C-4 CF.A ....|--- .... ....|--- .... ....
 C#4|..|B-8 JF.F ....|--- .... ....|C#2 2A.F ....
....|..|C-4 AF.A ....|C#4 2F8A ....|C#2 2F.A ....
 C#4|..|B-8 JF.F ....|--- .... ....|C#2 2A.F ....
....|..|B-8 JF.A ....|--- .... ....|C#2 2F.A ....
 C#4|..|B-8 JF.F ....|C#4 2F8F ....|C#2 2A.F ....
....|..|B-8 JF.A ....|--- .... ....|C#2 2F.A ....
....|..|C-4 CF.F ....|R-- .... ....|C#2 2F.7 ....
....|..|B-8 JF.A ....|C#4 2F8A ....|C#2 2F.A ....
 C#4|..|B-8 JF.F ....|--- .... ....|C#2 2A.F ....
....|..|C-4 CF.A ....|R-- .... ....|R-- .... ....
 C#4|..|C-4 AF.F ....|C#4 2F87 ....|C#2 2A.F ....
....|..|B-8 JF.A ....|--- .... ....|C#2 2F.A ....
 C#4|..|C-4 CF.F ....|R-- .... ....|C#2 2A.F ....
....|..|C-4 AF.A ....|--- .... ....|C#2 2F.A ....
 C#4|..|C-4 BF.F ....|--- .... ....|C#2 2A.F ....
....|..|C-4 CF.A ....|--- .... ....|C#2 2F.A ....
 C#4|..|C-4 CF.F ....|--- .... ....|C#2 2A.F ....
....|..|C-4 BF.A ....|--- .... ....|C#2 2F.A ....
 C#4|..|B-8 JF.F ....|C#4 2F8F ....|C#2 2A.F ....
....|..|C-4 CF.A ....|--- .... ....|C#2 2F.A ....
 C#4|..|C-4 BF.F ....|R-- .... ....|C#2 2A.F ....
....|..|B-8 JF.A ....|C#4 2F8A ....|C#2 2F.A ....
....|..|C-4 CF.F ....|--- .... ....|C#2 2F.7 ....
....|..|C-4 BF.A ....|R-- .... ....|C#2 2F.A ....
....|..|B-8 JF.F ....|C#4 2F8F ....|C#2 2F.7 ....
....|..|C-4 CF.A ....|--- .... ....|R-- .... ....
....|..|C-3 RF.F ....|R-- .... ....|C#2 2F.7 ....
....|..|B-8 JF.A ....|C#4 2F8A ....|--- .... ....
....|..|C-4 CF.F ....|--- .... ....|R-- .... ....
....|..|C-3 RF.A ....|R-- .... ....|--- .... ....
 A-3|..|C-4 AF.F ....|A-4 2F9F ....|A-1 2A.F ....
....|..|C-4 CF.A ....|--- .... ....|--- .... ....
 A-3|..|B-8 JF.F ....|R-- .... ....|A-1 2A.F ....
....|..|C-4 AF.A ....|A-4 2F9A ....|A-1 2F.A ....
 A-3|..|B-8 JF.F ....|--- .... ....|A-1 2A.F ....
....|..|B-8 JF.A ....|--- .... ....|A-1 2F.A ....
 A-3|..|B-8 JF.F ....|A-4 2F9F ....|A-1 2A.F ....
....|..|B-8 JF.A ....|--- .... ....|A-1 2F.A ....
....|..|C-4 CF.F ....|R-- .... ....|A-1 2F.7 ....
....|..|B-8 JF.A ....|A-4 2F9A ....|A-1 2F.A ....
 A-3|..|B-8 JF.F ....|--- .... ....|A-1 2A.F ....
....|..|C-4 CF.A ....|R-- .... ....|R-- .... ....
 A-3|..|C-4 AF.F ....|A-4 2F97 ....|A-1 2A.F ....
....|..|B-8 JF.A ....|--- .... ....|A-1 2F.A ....
 A-3|..|C-4 CF.F ....|R-- .... ....|A-1 2A.F ....
....|..|C-4 AF.A ....|--- .... ....|A-1 2F.A ....
 B-3|..|B-8 JF.F ....|B-4 2F9F ....|B-1 2A.F ....
....|..|C-4 CF.A ....|--- .... ....|A-1 2F.A ....
 B-3|..|C-5 VF.F ....|--- .... ....|B-1 2A.F ....
....|..|B-8 JF.A ....|B-4 2F9A ....|B-1 2F.A ....
 B-3|..|C-4 AF.F ....|--- .... ....|B-1 2A.F ....
....|..|C-5 VF.A ....|--- .... ....|B-1 2F.A ....
 B-3|..|B-8 JF.F ....|B-4 2F9F ....|B-1 2A.F ....
....|..|C-4 AF.A ....|--- .... ....|B-1 2F.A ....
....|..|C-4 CF.F ....|R-- .... ....|B-1 2F.7 ....
....|..|B-8 JF.A ....|B-4 2F9A ....|B-1 2F.A ....
....|..|B-8 JF.F ....|--- .... ....|B-1 2F.7 ....
....|..|C-4 CF.A ....|R-- .... ....|R-- .... ....
....|..|C-4 AF.F ....|B-4 2F97 ....|B-1 2F.7 ....
....|..|B-8 JF.A ....|--- .... ....|--- .... ....
....|..|C-4 CF.F ....|R-- .... ....|R-- .... ....
....|..|C-4 AF.A ....|--- .... ....|--- .... ....

[Pattern7]
 C#4|..|C-4 AF.F ....|C#4 2F8F ....|C#2 2A.F ....
....|..|C-4 CF.A ....|--- .... ....|--- .... ....
 C#4|..|B-8 JF.F ....|R-- .... ....|C#2 2A.F ....
....|..|C-4 AF.A ....|C#4 2F8A ....|C#2 2F.A ....
 C#4|..|B-8 JF.F ....|--- .... ....|C#2 2A.F ....
....|..|B-8 JF.A ....|R-- .... ....|C#2 2F.A ....
 C#4|..|B-8 JF.F ....|C#4 2F87 ....|C#2 2A.F ....
....|..|B-8 JF.A ....|--- .... ....|C#2 2F.A ....
....|..|C-4 CF.F ....|R-- .... ....|C#2 2F.7 ....
....|..|B-8 JF.A ....|--- .... ....|C#2 2F.A ....
 C#4|..|B-8 JF.F ....|--- .... ....|C#2 2A.F ....
....|..|C-4 CF.A ....|--- .... ....|R-- .... ....
 C#4|..|C-4 AF.F ....|--- .... ....|C#2 2A.F ....
....|..|B-8 JF.A ....|--- .... ....|C#2 2F.A ....
 C#4|..|C-4 CF.F ....|--- .... ....|C#2 2A.F ....
....|..|C-4 AF.A ....|--- .... ....|C#2 2F.A ....
 C#4|..|B-8 JF.F ....|--- .... ....|C#2 2A.F ....
....|..|C-4 CF.A ....|--- .... ....|C#2 2F.A ....
 C#4|..|C-4 CF.F ....|--- .... ....|C#2 2A.F ....
....|..|B-8 JF.A ....|--- .... ....|C#2 2F.A ....
 C#4|..|B-8 JF.F ....|C#4 2F8F ....|C#2 2A.F ....
....|..|C-4 CF.A ....|--- .... ....|C#2 2F.A ....
 C#4|..|B-8 JF.F ....|R-- .... ....|C#2 2A.F ....
....|..|B-8 JF.A ....|C#4 2F8A ....|C#2 2F.A ....
....|..|C-4 CF.F ....|--- .... ....|C#2 2F.7 ....
....|..|B-8 JF.A ....|R-- .... ....|C#2 2F.A ....
....|..|B-8 JF.F ....|C#4 2F8F ....|C#2 2F.7 ....
....|..|C-4 CF.A ....|--- .... ....|R-- .... ....
....|..|C-3 RF.F ....|R-- .... ....|C#2 2F.7 ....
....|..|B-8 JF.A ....|C#4 2F8A ....|--- .... ....
....|..|C-4 CF.F ....|--- .... ....|R-- .... ....
....|..|C-3 RF.A ....|R-- .... ....|--- .... ....
 A-3|..|C-4 AF.F ....|A-4 2F9F ....|A-1 2A.F ....
....|..|C-4 CF.A ....|--- .... ....|--- .... ....
 A-3|..|B-8 JF.F ....|R-- .... ....|A-1 2A.F ....
....|..|C-4 AF.A ....|A-4 2F9A ....|A-1 2F.A ....
 A-3|..|B-8 JF.F ....|--- .... ....|A-1 2A.F ....
....|..|B-8 JF.A ....|--- .... ....|A-1 2F.A ....
 A-3|..|B-8 JF.F ....|A-4 2F9F ....|A-1 2A.F ....
....|..|B-8 JF.A ....|--- .... ....|A-1 2F.A ....
....|..|C-4 CF.F ....|R-- .... ....|A-1 2F.7 ....
....|..|B-8 JF.A ....|A-4 2F9A ....|A-1 2F.A ....
 B-3|..|B-8 JF.F ....|--- .... ....|B-1 2A.F ....
....|..|C-4 CF.A ....|R-- .... ....|R-- .... ....
 B-3|..|C-4 AF.F ....|A-4 2F97 ....|B-1 2A.F ....
....|..|B-8 JF.A ....|--- .... ....|B-1 2F.A ....
 B-3|..|C-4 CF.F ....|R-- .... ....|B-1 2A.F ....
....|..|C-4 AF.A ....|--- .... ....|B-1 2F.A ....
 B-3|..|B-8 JF.F ....|B-4 2F9F ....|B-1 2A.F ....
....|..|C-4 CF.A ....|--- .... ....|B-1 2F.A ....
 B-3|..|B-8 JF.F ....|--- .... ....|B-1 2A.F ....
....|..|B-8 JF.A ....|B-4 2F9A ....|B-1 2F.A ....
 B-3|..|C-4 AF.F ....|--- .... ....|B-1 2A.F ....
....|..|B-8 JF.A ....|--- .... ....|B-1 2F.A ....
 B-3|..|B-8 JF.F ....|B-4 2F9F ....|B-1 2A.F ....
....|..|C-4 AF.A ....|--- .... ....|B-1 2F.A ....
....|..|C-4 CF.F ....|R-- .... ....|B-1 2F.7 ....
....|..|B-8 JF.A ....|B-4 2F9A ....|B-1 2F.A ....
....|..|C-4 AF.F ....|--- .... ....|B-1 2F.7 ....
....|..|C-4 CF.A ....|R-- .... ....|R-- .... ....
....|..|C-4 AF.F ....|B-4 2F97 ....|B-1 2F.7 ....
....|..|C-4 AF.A ....|--- .... ....|--- .... ....
....|..|C-4 AF.F ....|R-- .... ....|R-- .... ....
....|..|C-4 AF.A ....|--- .... ....|--- .... ....

[Pattern8]
 C#4|..|C-4 AF.F ....|C#2 2A.F ....|C#2 2A.F ....
....|..|C-4 AF.A ....|--- .... ....|--- .... ....
 C#4|..|B-8 JF.F ....|--- .... ....|C#2 2A.F ....
....|..|C-4 AF.A ....|C#2 2F.A ....|C#2 2F.A ....
 C#4|..|B-8 JF.F ....|C#5 2F.F ....|C#2 2A.F ....
....|..|B-8 JF.A ....|C#4 2F1F ....|C#5 2F.F ....
 C#4|..|B-8 JF.F ....|C#4 2F1F ....|C#2 2A.F ....
....|..|B-8 JF.A ....|C#5 2F.A ....|C#2 2F.A ....
....|..|C-4 CF.F ....|C#4 2F1A ....|C#5 2F.A ....
....|..|B-8 JF.A ....|C#4 2F1A ....|C#2 2F.A ....
 C#4|..|B-8 JF.F ....|C#5 2F.7 ....|C#2 2A.F ....
....|..|C-4 CF.A ....|C#4 2F17 ....|C#5 2F.7 ....
 C#4|..|C-4 AF.F ....|B-3 2F2F ....|C#2 2A.F ....
....|..|B-8 JF.A ....|B-3 2F1F ....|B-3 2F2F ....
 C#4|..|C-4 CF.F ....|B-3 2F1F ....|C#2 2A.F ....
....|..|C-4 AF.A ....|B-3 2F2A ....|C#2 2F.A ....
 C#4|..|C-4 BF.F ....|B-3 2F1A ....|C#2 2A.F ....
....|..|C-4 CF.A ....|B-3 2F1A ....|C#2 2F.A ....
 C#4|..|C-4 CF.F ....|B-3 2F27 ....|C#2 2A.F ....
....|..|C-4 BF.A ....|B-3 2F2F ....|B-3 2F2F ....
 C#4|..|B-8 JF.F ....|C#4 2F1F ....|C#2 2A.F ....
....|..|C-4 CF.A ....|C#4 2F1F ....|C#4 2F1F ....
 C#4|..|C-4 BF.F ....|B-3 2F2A ....|C#2 2A.F ....
....|..|B-8 JF.A ....|C#4 2F1A ....|C#2 2F.A ....
....|..|C-4 CF.F ....|C#4 2F1A ....|C#4 2F1A ....
....|..|C-4 BF.A ....|B-3 2F27 ....|C#2 2F.A ....
....|..|B-8 JF.F ....|B-3 2F3F ....|B-3 2F3F ....
....|..|C-4 CF.A ....|B-3 2F4F ....|B-3 2F3F ....
....|..|C-3 RF.F ....|B-3 2F1F ....|B-3 2F4F ....
....|..|B-8 JF.A ....|B-3 2F1F ....|B-3 2F1F ....
....|..|C-4 CF.F ....|B-3 2F4A ....|B-3 2F3A ....
....|..|C-3 RF.A ....|B-3 2F1A ....|B-3 2F4A ....
 C#4|..|C-4 AF.F ....|B-3 2F1A ....|C#2 2A.F ....
....|..|C-4 CF.A ....|B-3 2F2F ....|B-3 2F2F ....
 C#4|..|B-8 JF.F ....|C#4 2F5F ....|C#2 2A.F ....
....|..|C-4 AF.A ....|C#4 2F5F ....|C#4 2F5F ....
 C#4|..|B-8 JF.F ....|C#4 2F1F ....|C#2 2A.F ....
....|..|B-8 JF.A ....|C#4 2F1F ....|C#4 2F1F ....
 C#4|..|B-8 JF.F ....|C#4 2F5A ....|C#2 2A.F ....
....|..|B-8 JF.A ....|B-3 2F27 ....|C#2 2F.A ....
....|..|C-4 CF.F ....|C#4 2F57 ....|C#2 2F.7 ....
....|..|B-8 JF.A ....|C#5 2F.F ....|C#5 2F.F ....
 C#4|..|B-8 JF.F ....|C#5 2F.F ....|C#2 2A.F ....
....|..|C-4 CF.A ....|E-4 2F6F ....|E-4 2F6F ....
 C#4|..|C-4 AF.F ....|E-4 2F1F ....|C#2 2A.F ....
....|..|B-8 JF.A ....|E-4 2F1F ....|E-4 2F1F ....
 C#4|..|C-4 CF.F ....|E-4 2F6A ....|C#2 2A.F ....
....|..|C-4 AF.A ....|E-4 2F6A ....|C#2 2F.A ....
 C#4|..|B-8 JF.F ....|C#5 2F.7 ....|C#2 2A.F ....
....|..|C-4 CF.A ....|E-4 2F67 ....|C#2 2F.A ....
 C#4|..|C-5 VF.F ....|E-4 2F17 ....|C#2 2A.F ....
....|..|B-8 JF.A ....|D#4 2F7F ....|D#4 2F7F ....
 C#4|..|C-4 AF.F ....|D#4 2F1F ....|C#2 2A.F ....
....|..|C-5 VF.A ....|D#4 2F1F ....|D#4 2F1F ....
 C#4|..|B-8 JF.F ....|D#4 2F7A ....|C#2 2A.F ....
....|..|C-4 AF.A ....|D#4 2F1A ....|C#2 2F.A ....
....|..|C-4 CF.F ....|D#4 2F1A ....|D#4 2F1A ....
....|..|B-8 JF.A ....|D#4 2F77 ....|C#2 2F.A ....
....|..|B-8 JF.F ....|D#4 2F17 ....|C#2 2F.7 ....
....|..|C-4 CF.A ....|D#5 2F.F ....|D#5 2F.F ....
....|..|C-4 AF.F ....|C#4 2F1F ....|D#5 2F.F ....
....|..|B-8 JF.A ....|C#4 2F1F ....|C#4 2F1F ....
....|..|C-4 CF.F ....|D#5 2F.A ....|D#5 2F.A ....
....|..|C-4 AF.A ....|C#4 2F1A ....|D#5 2F.A ....

[Pattern9]
 A-3|..|C-4 AF.F ....|A-1 2A.F ....|A-1 2A.F ....
....|..|C-4 CF.A ....|D#5 2F.7 ....|D#5 2F.7 ....
 A-3|..|B-8 JF.F ....|C#4 2F17 ....|A-1 2A.F ....
....|..|C-4 AF.A ....|A-1 2F.A ....|A-1 2F.A ....
 A-3|..|B-8 JF.F ....|C#4 2F1F ....|A-1 2A.F ....
....|..|B-8 JF.A ....|C#4 2F1F ....|C#4 2F1F ....
 A-3|..|B-8 JF.F ....|A-1 2F.7 ....|A-1 2A.F ....
....|..|B-8 JF.A ....|C#4 2F1A ....|A-1 2F.A ....
....|..|C-4 CF.F ....|C#4 2F1A ....|C#4 2F1A ....
....|..|B-8 JF.A ....|--- .... ....|A-1 2F.A ....
 A-3|..|B-8 JF.F ....|C#4 2F17 ....|A-1 2A.F ....
....|..|C-4 CF.A ....|C#4 2F17 ....|C#4 2F17 ....
 A-3|..|C-4 AF.F ....|B-3 2F1F ....|A-1 2A.F ....
....|..|B-8 JF.A ....|B-3 2F1F ....|B-3 2F1F ....
 A-3|..|C-4 CF.F ....|--- .... ....|A-1 2A.F ....
....|..|C-4 AF.A ....|B-3 2F1A ....|A-1 2F.A ....
 A-3|..|B-8 JF.F ....|B-3 2F1A ....|A-1 2A.F ....
....|..|C-4 CF.A ....|--- .... ....|A-1 2F.A ....
 A-3|..|C-4 CF.F ....|B-3 2F17 ....|A-1 2A.F ....
....|..|B-8 JF.A ....|B-3 2F17 ....|A-1 2F.A ....
 A-3|..|B-8 JF.F ....|C#4 2F1F ....|A-1 2A.F ....
....|..|C-4 CF.A ....|C#4 2F1F ....|C#4 2F1F ....
 A-3|..|B-8 JF.F ....|--- .... ....|A-1 2A.F ....
....|..|B-8 JF.A ....|C#4 2F1A ....|A-1 2F.A ....
....|..|C-4 CF.F ....|C#4 2F1A ....|C#4 2F1A ....
....|..|B-8 JF.A ....|--- .... ....|A-1 2F.A ....
....|..|B-8 JF.F ....|C#4 2F17 ....|A-1 2F.7 ....
....|..|C-4 CF.A ....|C#4 2F17 ....|C#4 2F17 ....
....|..|C-3 RF.F ....|B-3 2F1F ....|B-3 2F1F ....
....|..|B-8 JF.A ....|B-3 2F1F ....|B-3 2F1F ....
....|..|C-4 CF.F ....|--- .... ....|R-- .... ....
....|..|C-3 RF.A ....|B-3 2F1A ....|B-3 2F1A ....
 A-3|..|C-4 AF.F ....|B-3 2F1A ....|A-1 2A.F ....
....|..|C-4 CF.A ....|--- .... ....|--- .... ....
 A-3|..|B-8 JF.F ....|B-3 2F17 ....|A-1 2A.F ....
....|..|C-4 AF.A ....|B-3 2F17 ....|A-1 2F.A ....
 A-3|..|B-8 JF.F ....|C#4 2F1F ....|A-1 2A.F ....
....|..|B-8 JF.A ....|C#4 2F1F ....|C#4 2F1F ....
 A-3|..|B-8 JF.F ....|--- .... ....|A-1 2A.F ....
....|..|B-8 JF.A ....|C#4 2F1A ....|A-1 2F.A ....
....|..|C-4 CF.F ....|C#4 2F1A ....|C#4 2F1A ....
....|..|B-8 JF.A ....|--- .... ....|A-1 2F.A ....
 A-3|..|B-8 JF.F ....|C#4 2F17 ....|A-1 2A.F ....
....|..|C-4 CF.A ....|C#4 2F17 ....|C#4 2F17 ....
 A-3|..|C-4 AF.F ....|E-4 2F1F ....|A-1 2A.F ....
....|..|B-8 JF.A ....|E-4 2F1F ....|E-4 2F1F ....
 A-3|..|C-4 CF.F ....|--- .... ....|A-1 2A.F ....
....|..|C-4 AF.A ....|E-4 2F1A ....|A-1 2F.A ....
 A-3|..|B-8 JF.F ....|E-4 2F1A ....|A-1 2A.F ....
....|..|C-4 CF.A ....|--- .... ....|A-1 2F.A ....
 A-3|..|B-8 JF.F ....|E-4 2F17 ....|A-1 2A.F ....
....|..|B-8 JF.A ....|E-4 2F17 ....|A-1 2F.A ....
 A-3|..|C-4 AF.F ....|D#4 2F1F ....|A-1 2A.F ....
....|..|B-8 JF.A ....|D#4 2F1F ....|D#4 2F1F ....
 A-3|..|B-8 JF.F ....|--- .... ....|A-1 2A.F ....
....|..|C-4 AF.A ....|D#4 2F1A ....|A-1 2F.A ....
....|..|C-4 CF.F ....|D#4 2F1A ....|D#4 2F1A ....
....|..|B-8 JF.A ....|--- .... ....|A-1 2F.A ....
....|..|C-4 AF.F ....|D#4 2F17 ....|A-1 2F.7 ....
....|..|C-4 CF.A ....|D#4 2F17 ....|D#4 2F17 ....
....|..|C-3 RF.F ....|C#4 2F1F ....|C#4 2F1F ....
....|..|C-4 AF.A ....|C#4 2F1F ....|C#4 2F1F ....
....|..|C-4 CF.F ....|--- .... ....|R-- .... ....
....|..|C-3 RF.A ....|C#4 2F1A ....|C#4 2F1A ....

[Pattern10]
 C#4|..|C-4 AF.F ....|C#2 2A.F ....|C#2 2A.F ....
....|..|C-4 CF.A ....|--- .... ....|--- .... ....
 C#4|..|B-8 JF.F ....|C#4 2F17 ....|C#2 2A.F ....
....|..|C-4 AF.A ....|C#2 2F.A ....|C#2 2F.A ....
 C#4|..|B-8 JF.F ....|C#4 2F1F ....|C#2 2A.F ....
....|..|B-8 JF.A ....|C#4 2F1F ....|C#4 2F1F ....
 C#4|..|B-8 JF.F ....|C#2 2F.7 ....|C#2 2A.F ....
....|..|B-8 JF.A ....|C#4 2F1A ....|C#2 2F.A ....
....|..|C-4 CF.F ....|C#4 2F1A ....|C#4 2F1A ....
....|..|B-8 JF.A ....|--- .... ....|C#2 2F.A ....
 C#4|..|B-8 JF.F ....|C#4 2F17 ....|C#2 2A.F ....
....|..|C-4 CF.A ....|C#4 2F17 ....|C#4 2F17 ....
 C#4|..|C-4 AF.F ....|B-3 2F1F ....|C#2 2A.F ....
....|..|B-8 JF.A ....|B-3 2F1F ....|B-3 2F1F ....
 C#4|..|C-4 CF.F ....|--- .... ....|C#2 2A.F ....
....|..|C-4 AF.A ....|B-3 2F1A ....|C#2 2F.A ....
 C#4|..|C-4 BF.F ....|B-3 2F1A ....|C#2 2A.F ....
....|..|C-4 CF.A ....|--- .... ....|C#2 2F.A ....
 C#4|..|C-4 CF.F ....|B-3 2F17 ....|C#2 2A.F ....
....|..|C-4 BF.A ....|B-3 2F17 ....|C#2 2F.A ....
 C#4|..|B-8 JF.F ....|C#4 2F1F ....|C#2 2A.F ....
....|..|C-4 CF.A ....|C#4 2F1F ....|C#4 2F1F ....
 C#4|..|C-4 BF.F ....|--- .... ....|C#2 2A.F ....
....|..|B-8 JF.A ....|C#4 2F1A ....|C#2 2F.A ....
....|..|C-4 CF.F ....|C#4 2F1A ....|C#4 2F1A ....
....|..|C-4 BF.A ....|--- .... ....|C#2 2F.A ....
....|..|B-8 JF.F ....|C#4 2F17 ....|C#2 2F.7 ....
....|..|C-4 CF.A ....|C#4 2F17 ....|C#4 2F17 ....
....|..|C-3 RF.F ....|B-3 2F1F ....|B-3 2F1F ....
....|..|B-8 JF.A ....|B-3 2F1F ....|B-3 2F1F ....
....|..|C-4 CF.F ....|--- .... ....|R-- .... ....
....|..|C-3 RF.A ....|B-3 2F1A ....|B-3 2F1A ....
 C#4|..|C-4 AF.F ....|B-3 2F1A ....|C#2 2A.F ....
....|..|C-4 CF.A ....|--- .... ....|--- .... ....
 C#4|..|B-8 JF.F ....|B-3 2F17 ....|C#2 2A.F ....
....|..|C-4 AF.A ....|B-3 2F17 ....|C#2 2F.A ....
 C#4|..|B-8 JF.F ....|C#4 2F1F ....|C#2 2A.F ....
....|..|B-8 JF.A ....|C#4 2F1F ....|C#4 2F1F ....
 C#4|..|B-8 JF.F ....|--- .... ....|C#2 2A.F ....
....|..|B-8 JF.A ....|C#4 2F1A ....|C#2 2F.A ....
....|..|C-4 CF.F ....|C#4 2F1A ....|C#4 2F1A ....
....|..|B-8 JF.A ....|--- .... ....|C#2 2F.A ....
 C#4|..|B-8 JF.F ....|C#4 2F17 ....|C#2 2A.F ....
....|..|C-4 CF.A ....|C#4 2F17 ....|C#4 2F17 ....
 C#4|..|C-4 AF.F ....|E-4 2F1F ....|C#2 2A.F ....
....|..|B-8 JF.A ....|E-4 2F1F ....|E-4 2F1F ....
 C#4|..|C-4 CF.F ....|--- .... ....|C#2 2A.F ....
....|..|C-4 AF.A ....|E-4 2F1A ....|C#2 2F.A ....
 C#4|..|B-8 JF.F ....|E-4 2F1A ....|C#2 2A.F ....
....|..|C-4 CF.A ....|--- .... ....|C#2 2F.A ....
 C#4|..|C-5 VF.F ....|E-4 2F17 ....|C#2 2A.F ....
....|..|B-8 JF.A ....|E-4 2F17 ....|C#2 2F.A ....
 C#4|..|C-4 AF.F ....|D#4 2F1F ....|C#2 2A.F ....
....|..|C-5 VF.A ....|D#4 2F1F ....|D#4 2F1F ....
 C#4|..|B-8 JF.F ....|--- .... ....|C#2 2A.F ....
....|..|C-4 AF.A ....|D#4 2F1A ....|C#2 2F.A ....
....|..|C-4 CF.F ....|D#4 2F1A ....|D#4 2F1A ....
....|..|B-8 JF.A ....|--- .... ....|C#2 2F.A ....
....|..|B-8 JF.F ....|D#4 2F17 ....|C#2 2F.7 ....
....|..|C-4 CF.A ....|D#4 2F17 ....|D#4 2F17 ....
....|..|C-4 AF.F ....|C#4 2F1F ....|C#4 2F1F ....
....|..|B-8 JF.A ....|C#4 2F1F ....|C#4 2F1F ....
....|..|C-4 CF.F ....|--- .... ....|R-- .... ....
....|..|C-4 AF.A ....|C#4 2F1A ....|C#4 2F1A ....

[Pattern11]
 A-3|..|C-4 AF.F ....|A-1 2A.F ....|A-1 2A.F ....
....|..|C-4 CF.A ....|--- .... ....|--- .... ....
 A-3|..|B-8 JF.F ....|C#4 2F17 ....|A-1 2A.F ....
....|..|C-4 AF.A ....|A-1 2F.A ....|A-1 2F.A ....
 A-3|..|B-8 JF.F ....|C#4 2F1F ....|A-1 2A.F ....
....|..|B-8 JF.A ....|C#4 2F1F ....|C#4 2F1F ....
 A-3|..|B-8 JF.F ....|A-1 2F.7 ....|A-1 2A.F ....
....|..|B-8 JF.A ....|C#4 2F1A ....|A-1 2F.A ....
....|..|C-4 CF.F ....|C#4 2F1A ....|C#4 2F1A ....
....|..|B-8 JF.A ....|--- .... ....|A-1 2F.A ....
 A-3|..|B-8 JF.F ....|C#4 2F17 ....|A-1 2A.F ....
....|..|C-4 CF.A ....|C#4 2F17 ....|C#4 2F17 ....
 A-3|..|C-4 AF.F ....|B-3 2F1F ....|A-1 2A.F ....
....|..|B-8 JF.A ....|B-3 2F1F ....|B-3 2F1F ....
 A-3|..|C-4 CF.F ....|--- .... ....|A-1 2A.F ....
....|..|C-4 AF.A ....|B-3 2F1A ....|A-1 2F.A ....
 A-3|..|B-8 JF.F ....|B-3 2F1A ....|A-1 2A.F ....
....|..|C-4 CF.A ....|--- .... ....|A-1 2F.A ....
 A-3|..|C-4 CF.F ....|B-3 2F17 ....|A-1 2A.F ....
....|..|B-8 JF.A ....|B-3 2F17 ....|A-1 2F.A ....
 A-3|..|B-8 JF.F ....|C#4 2F1F ....|A-1 2A.F ....
....|..|C-4 CF.A ....|C#4 2F1F ....|C#4 2F1F ....
 A-3|..|B-8 JF.F ....|--- .... ....|A-1 2A.F ....
....|..|B-8 JF.A ....|C#4 2F1A ....|A-1 2F.A ....
....|..|C-4 CF.F ....|C#4 2F1A ....|C#4 2F1A ....
....|..|B-8 JF.A ....|--- .... ....|A-1 2F.A ....
....|..|B-8 JF.F ....|C#4 2F17 ....|A-1 2F.7 ....
....|..|C-4 CF.A ....|C#4 2F17 ....|C#4 2F17 ....
....|..|C-3 RF.F ....|B-3 2F1F ....|B-3 2F1F ....
....|..|B-8 JF.A ....|B-3 2F1F ....|B-3 2F1F ....
....|..|C-4 CF.F ....|--- .... ....|R-- .... ....
....|..|C-3 RF.A ....|B-3 2F1A ....|B-3 2F1A ....
 A-3|..|C-4 AF.F ....|B-3 2F1A ....|A-1 2A.F ....
....|..|C-4 CF.A ....|--- .... ....|--- .... ....
 A-3|..|B-8 JF.F ....|B-3 2F17 ....|A-1 2A.F ....
....|..|C-4 AF.A ....|B-3 2F17 ....|A-1 2F.A ....
 A-3|..|B-8 JF.F ....|C#4 2F1F ....|A-1 2A.F ....
....|..|B-8 JF.A ....|C#4 2F1F ....|C#4 2F1F ....
 A-3|..|B-8 JF.F ....|--- .... ....|A-1 2A.F ....
....|..|B-8 JF.A ....|C#4 2F1A ....|A-1 2F.A ....
....|..|C-4 CF.F ....|C#4 2F1A ....|C#4 2F1A ....
....|..|B-8 JF.A ....|--- .... ....|A-1 2F.A ....
 A-3|..|B-8 JF.F ....|C#4 2F17 ....|A-1 2A.F ....
....|..|C-4 CF.A ....|C#4 2F17 ....|C#4 2F17 ....
 A-3|..|C-4 AF.F ....|E-4 2F1F ....|A-1 2A.F ....
....|..|B-8 JF.A ....|E-4 2F1F ....|E-4 2F1F ....
 A-3|..|C-4 CF.F ....|--- .... ....|A-1 2A.F ....
....|..|C-4 AF.A ....|E-4 2F1A ....|A-1 2F.A ....
 A-3|..|B-8 JF.F ....|E-4 2F1A ....|A-1 2A.F ....
....|..|C-4 CF.A ....|--- .... ....|A-1 2F.A ....
 A-3|..|B-8 JF.F ....|E-4 2F17 ....|A-1 2A.F ....
....|..|B-8 JF.A ....|E-4 2F17 ....|A-1 2F.A ....
 A-3|..|C-4 AF.F ....|D#4 2F1F ....|A-1 2A.F ....
....|..|B-8 JF.A ....|D#4 2F1F ....|D#4 2F1F ....
 A-3|..|B-8 JF.F ....|--- .... ....|A-1 2A.F ....
....|..|C-4 AF.A ....|D#4 2F1A ....|A-1 2F.A ....
....|..|C-4 CF.F ....|D#4 2F1A ....|D#4 2F1A ....
....|..|B-8 JF.A ....|--- .... ....|A-1 2F.A ....
....|..|C-4 AF.F ....|D#4 2F17 ....|A-1 2F.7 ....
....|..|C-4 CF.A ....|D#4 2F17 ....|D#4 2F17 ....
....|..|C-4 AF.F ....|C#4 2F1F ....|C#4 2F1F ....
....|..|C-4 AF.A ....|C#4 2F1F ....|C#4 2F1F ....
....|..|C-4 AF.F ....|--- .... ....|R-- .... ....
....|..|C-4 AF.A ....|C#4 2F1A ....|C#4 2F1A ....

[Pattern12]
 C#4|..|C#2 2A.F ....|C#2 2A.F ....|C#4 2F1A ....
....|..|C-4 AF.A ....|--- .... ....|--- .... ....
....|..|C-4 AF.7 ....|C#4 2F17 ....|C#4 2F17 ....
....|..|C#2 2F.A ....|C#2 2F.A ....|C#4 2F17 ....
....|..|C-4 AF.7 ....|C#4 2F1F ....|C#4 2F1F ....
....|..|R-- .... ....|C#4 2F1F ....|C#4 2F1F ....
....|..|C#2 2F.7 ....|C#2 2F.7 ....|--- .... ....
....|..|--- .... ....|C#4 2F1A ....|C#4 2F1A ....
....|..|--- .... ....|C#4 2F1A ....|C#4 2F1A ....
....|..|--- .... ....|--- .... ....|--- .... ....
....|..|--- .... ....|C#4 2F17 ....|C#4 2F17 ....
....|..|--- .... ....|C#4 2F17 ....|C#4 2F17 ....
....|..|--- .... ....|B-3 2F1F ....|B-3 2F1F ....
....|..|--- .... ....|B-3 2F1F ....|B-3 2F1F ....
....|..|--- .... ....|R-- .... ....|R-- .... ....
....|..|--- .... ....|B-3 2F1A ....|B-3 2F1A ....
....|..|--- .... ....|B-3 2F1A ....|B-3 2F1A ....
....|..|--- .... ....|R-- .... ....|R-- .... ....
....|..|--- .... ....|B-3 2F17 ....|B-3 2F17 ....
....|..|--- .... ....|B-3 2F17 ....|B-3 2F17 ....
....|..|--- .... ....|C#4 2F1F ....|C#4 2F1F ....
....|..|--- .... ....|C#4 2F1F ....|C#4 2F1F ....
....|..|--- .... ....|R-- .... ....|R-- .... ....
....|..|--- .... ....|C#4 2F1A ....|C#4 2F1A ....
....|..|--- .... ....|C#4 2F1A ....|C#4 2F1A ....
....|..|--- .... ....|R-- .... ....|R-- .... ....
....|..|--- .... ....|C#4 2F17 ....|C#4 2F17 ....
....|..|--- .... ....|C#4 2F17 ....|C#4 2F17 ....
....|..|--- .... ....|B-3 2F1F ....|B-3 2F1F ....
....|..|--- .... ....|B-3 2F1F ....|B-3 2F1F ....
....|..|--- .... ....|R-- .... ....|R-- .... ....
....|..|--- .... ....|B-3 2F1A ....|B-3 2F1A ....
....|..|--- .... ....|B-3 2F1A ....|B-3 2F1A ....
....|..|--- .... ....|R-- .... ....|R-- .... ....
....|..|--- .... ....|B-3 2F17 ....|B-3 2F17 ....
....|..|--- .... ....|B-3 2F17 ....|B-3 2F17 ....
....|..|--- .... ....|C#4 2F1F ....|C#4 2F1F ....
....|..|--- .... ....|C#4 2F1F ....|C#4 2F1F ....
....|..|--- .... ....|R-- .... ....|R-- .... ....
....|..|--- .... ....|C#4 2F1A ....|C#4 2F1A ....
....|..|--- .... ....|C#4 2F1A ....|C#4 2F1A ....
....|..|--- .... ....|R-- .... ....|R-- .... ....
....|..|--- .... ....|C#4 2F17 ....|C#4 2F17 ....
....|..|--- .... ....|C#4 2F17 ....|C#4 2F17 ....
....|..|--- .... ....|E-4 2F1F ....|E-4 2F1F ....
....|..|--- .... ....|E-4 2F1F ....|E-4 2F1F ....
....|..|--- .... ....|R-- .... ....|R-- .... ....
....|..|--- .... ....|E-4 2F1A ....|E-4 2F1A ....
....|..|--- .... ....|E-4 2F1A ....|E-4 2F1A ....
....|..|--- .... ....|R-- .... ....|R-- .... ....
....|..|--- .... ....|E-4 2F17 ....|E-4 2F17 ....
....|..|--- .... ....|E-4 2F17 ....|E-4 2F17 ....
....|..|--- .... ....|D#4 2F1F ....|D#4 2F1F ....
....|..|--- .... ....|D#4 2F1F ....|D#4 2F1F ....
....|..|--- .... ....|R-- .... ....|R-- .... ....
....|..|--- .... ....|D#4 2F1A ....|D#4 2F1A ....
....|..|--- .... ....|D#4 2F1A ....|D#4 2F1A ....
....|..|--- .... ....|R-- .... ....|R-- .... ....
....|..|--- .... ....|D#4 2F17 ....|D#4 2F17 ....
....|..|--- .... ....|D#4 2F17 ....|D#4 2F17 ....
....|..|--- .... ....|C#4 2F1F ....|C#4 2F1F ....
....|..|--- .... ....|C#4 2F1F ....|C#4 2F1F ....
....|..|--- .... ....|R-- .... ....|R-- .... ....
....|..|--- .... ....|C#4 2F1A ....|C#4 2F1A ....

[Pattern13]
 A-3|..|A-1 2A.F ....|A-1 2A.F ....|C#4 2F1A ....
....|..|--- .... ....|R-- .... ....|R-- .... ....
....|..|--- .... ....|C#4 2F17 ....|C#4 2F17 ....
....|..|A-1 2F.A ....|A-1 2F.A ....|C#4 2F17 ....
....|..|--- .... ....|C#4 2F1F ....|C#4 2F1F ....
....|..|--- .... ....|C#4 2F1F ....|C#4 2F1F ....
....|..|A-1 2F.7 ....|A-1 2F.7 ....|R-- .... ....
....|..|--- .... ....|C#4 2F1A ....|C#4 2F1A ....
....|..|--- .... ....|C#4 2F1A ....|C#4 2F1A ....
....|..|--- .... ....|R-- .... ....|R-- .... ....
....|..|--- .... ....|C#4 2F17 ....|C#4 2F17 ....
....|..|--- .... ....|C#4 2F17 ....|C#4 2F17 ....
....|..|--- .... ....|B-3 2F1F ....|B-3 2F1F ....
....|..|--- .... ....|B-3 2F1F ....|B-3 2F1F ....
....|..|--- .... ....|R-- .... ....|R-- .... ....
....|..|--- .... ....|B-3 2F1A ....|B-3 2F1A ....
....|..|--- .... ....|B-3 2F1A ....|B-3 2F1A ....
....|..|--- .... ....|R-- .... ....|R-- .... ....
....|..|--- .... ....|B-3 2F17 ....|B-3 2F17 ....
....|..|--- .... ....|B-3 2F17 ....|B-3 2F17 ....
....|..|--- .... ....|C#4 2F1F ....|C#4 2F1F ....
....|..|--- .... ....|C#4 2F1F ....|C#4 2F1F ....
....|..|--- .... ....|R-- .... ....|R-- .... ....
....|..|--- .... ....|C#4 2F1A ....|C#4 2F1A ....
....|..|--- .... ....|C#4 2F1A ....|C#4 2F1A ....
....|..|--- .... ....|R-- .... ....|R-- .... ....
....|..|--- .... ....|C#4 2F17 ....|C#4 2F17 ....
....|..|--- .... ....|C#4 2F17 ....|C#4 2F17 ....
....|..|--- .... ....|B-3 2F1F ....|B-3 2F1F ....
....|..|--- .... ....|B-3 2F1F ....|B-3 2F1F ....
....|..|--- .... ....|R-- .... ....|R-- .... ....
....|..|--- .... ....|B-3 2F1A ....|B-3 2F1A ....
....|..|--- .... ....|B-3 2F1A ....|B-3 2F1A ....
....|..|--- .... ....|R-- .... ....|R-- .... ....
....|..|--- .... ....|B-3 2F17 ....|B-3 2F17 ....
....|..|--- .... ....|B-3 2F17 ....|B-3 2F17 ....
....|..|--- .... ....|C#4 2F1F ....|C#4 2F1F ....
....|..|--- .... ....|C#4 2F1F ....|C#4 2F1F ....
....|..|--- .... ....|R-- .... ....|R-- .... ....
....|..|--- .... ....|C#4 2F1A ....|C#4 2F1A ....
....|..|--- .... ....|C#4 2F1A ....|C#4 2F1A ....
....|..|--- .... ....|R-- .... ....|R-- .... ....
....|..|--- .... ....|C#4 2F17 ....|C#4 2F17 ....
....|..|--- .... ....|C#4 2F17 ....|C#4 2F17 ....
....|..|--- .... ....|E-4 2F1F ....|E-4 2F1F ....
....|..|--- .... ....|E-4 2F1F ....|E-4 2F1F ....
....|..|--- .... ....|R-- .... ....|R-- .... ....
....|..|--- .... ....|E-4 2F1A ....|E-4 2F1A ....
....|..|--- .... ....|E-4 2F1A ....|E-4 2F1A ....
....|..|--- .... ....|R-- .... ....|R-- .... ....
....|..|--- .... ....|E-4 2F17 ....|E-4 2F17 ....
....|..|--- .... ....|E-4 2F17 ....|E-4 2F17 ....
....|..|--- .... ....|D#4 2F1F ....|D#4 2F1F ....
....|..|--- .... ....|D#4 2F1F ....|D#4 2F1F ....
....|..|--- .... ....|R-- .... ....|R-- .... ....
....|..|--- .... ....|D#4 2F1A ....|D#4 2F1A ....
....|..|--- .... ....|D#4 2F1A ....|D#4 2F1A ....
....|..|--- .... ....|R-- .... ....|R-- .... ....
....|..|--- .... ....|D#4 2F17 ....|D#4 2F17 ....
....|..|--- .... ....|D#4 2F17 ....|D#4 2F17 ....
....|..|--- .... ....|C#4 2F1F ....|C#4 2F1F ....
....|..|--- .... ....|C#4 2F1F ....|C#4 2F1F ....
....|..|--- .... ....|R-- .... ....|R-- .... ....
....|..|--- .... ....|C#4 2F1A ....|C#4 2F1A ....

[Pattern14]
 C#4|..|C#2 2A.F ....|C#2 2A.F ....|C#4 2F1A ....
....|..|--- .... ....|R-- .... ....|R-- .... ....
....|..|--- .... ....|C#4 2F17 ....|C#4 2F17 ....
....|..|C#2 2F.A ....|C#2 2F.A ....|C#4 2F17 ....
....|..|--- .... ....|C#4 2F1F ....|C#4 2F1F ....
....|..|--- .... ....|C#4 2F1F ....|C#4 2F1F ....
....|..|C#2 2F.7 ....|C#2 2F.7 ....|R-- .... ....
....|..|--- .... ....|C#4 2F1A ....|C#4 2F1A ....
....|..|--- .... ....|C#4 2F1A ....|C#4 2F1A ....
....|..|--- .... ....|R-- .... ....|R-- .... ....
....|..|--- .... ....|C#4 2F17 ....|C#4 2F17 ....
....|..|--- .... ....|C#4 2F17 ....|C#4 2F17 ....
....|..|--- .... ....|B-3 2F1F ....|B-3 2F1F ....
....|..|--- .... ....|B-3 2F1F ....|B-3 2F1F ....
....|..|--- .... ....|R-- .... ....|R-- .... ....
....|..|--- .... ....|B-3 2F1A ....|B-3 2F1A ....
....|..|--- .... ....|B-3 2F1A ....|B-3 2F1A ....
....|..|--- .... ....|R-- .... ....|R-- .... ....
....|..|--- .... ....|B-3 2F17 ....|B-3 2F17 ....
....|..|--- .... ....|B-3 2F17 ....|B-3 2F17 ....
....|..|--- .... ....|C#4 2F1F ....|C#4 2F1F ....
....|..|--- .... ....|C#4 2F1F ....|C#4 2F1F ....
....|..|--- .... ....|R-- .... ....|R-- .... ....
....|..|--- .... ....|C#4 2F1A ....|C#4 2F1A ....
....|..|--- .... ....|C#4 2F1A ....|C#4 2F1A ....
....|..|--- .... ....|R-- .... ....|R-- .... ....
....|..|--- .... ....|C#4 2F17 ....|C#4 2F17 ....
....|..|--- .... ....|C#4 2F17 ....|C#4 2F17 ....
....|..|--- .... ....|B-3 2F1F ....|B-3 2F1F ....
....|..|--- .... ....|B-3 2F1F ....|B-3 2F1F ....
....|..|--- .... ....|R-- .... ....|R-- .... ....
....|..|--- .... ....|B-3 2F1A ....|B-3 2F1A ....
....|..|--- .... ....|B-3 2F1A ....|B-3 2F1A ....
....|..|--- .... ....|R-- .... ....|R-- .... ....
....|..|--- .... ....|B-3 2F17 ....|B-3 2F17 ....
....|..|--- .... ....|B-3 2F17 ....|B-3 2F17 ....
....|..|--- .... ....|C#4 2F1F ....|C#4 2F1F ....
....|..|--- .... ....|C#4 2F1F ....|C#4 2F1F ....
....|..|--- .... ....|R-- .... ....|R-- .... ....
....|..|--- .... ....|C#4 2F1A ....|C#4 2F1A ....
....|..|--- .... ....|C#4 2F1A ....|C#4 2F1A ....
....|..|--- .... ....|R-- .... ....|R-- .... ....
....|..|--- .... ....|C#4 2F17 ....|C#4 2F17 ....
....|..|--- .... ....|C#4 2F17 ....|C#4 2F17 ....
....|..|--- .... ....|E-4 2F1F ....|E-4 2F1F ....
....|..|--- .... ....|E-4 2F1F ....|E-4 2F1F ....
....|..|--- .... ....|R-- .... ....|R-- .... ....
....|..|--- .... ....|E-4 2F1A ....|E-4 2F1A ....
....|..|--- .... ....|E-4 2F1A ....|E-4 2F1A ....
....|..|--- .... ....|R-- .... ....|R-- .... ....
....|..|--- .... ....|E-4 2F17 ....|E-4 2F17 ....
....|..|--- .... ....|E-4 2F17 ....|E-4 2F17 ....
....|..|--- .... ....|D#4 2F1F ....|D#4 2F1F ....
....|..|--- .... ....|D#4 2F1F ....|D#4 2F1F ....
....|..|--- .... ....|R-- .... ....|R-- .... ....
....|..|--- .... ....|D#4 2F1A ....|D#4 2F1A ....
....|..|--- .... ....|D#4 2F1A ....|D#4 2F1A ....
....|..|--- .... ....|R-- .... ....|R-- .... ....
....|..|--- .... ....|D#4 2F17 ....|D#4 2F17 ....
....|..|--- .... ....|D#4 2F17 ....|D#4 2F17 ....
....|..|--- .... ....|C#4 2F1F ....|C#4 2F1F ....
....|..|--- .... ....|C#4 2F1F ....|C#4 2F1F ....
....|..|--- .... ....|R-- .... ....|R-- .... ....
....|..|--- .... ....|C#4 2F1A ....|C#4 2F1A ....

[Pattern16]
 C#4|..|C-4 AF.F ....|C#2 2A.F ....|C#2 2A.F ....
 C#4|..|C#2 2A.F ....|R-- .... ....|R-- .... ....
 C#4|..|B-8 JF.F ....|C#4 2F17 ....|C#2 2A.F ....
....|..|C-4 AF.A ....|C#2 2F.A ....|C#2 2F.A ....
 C#4|..|B-8 JF.F ....|--- .... ....|C#2 2A.F ....
....|..|B-8 JF.A ....|R-- .... ....|C#2 2F.A ....
 C#4|..|B-8 JF.F ....|C#2 2F.7 ....|C#2 2A.F ....
....|..|B-8 JF.A ....|--- .... ....|C#2 2F.A ....
....|..|C-4 CF.F ....|R-- .... ....|C#2 2F.7 ....
....|..|B-8 JF.A ....|R-- .... ....|C#2 2F.A ....
 C#4|..|B-8 JF.F ....|--- .... ....|C#2 2A.F ....
....|..|C-4 CF.A ....|--- .... ....|R-- .... ....
 C#4|..|C-4 AF.F ....|--- .... ....|C#2 2A.F ....
....|..|B-8 JF.A ....|--- .... ....|C#2 2F.A ....
 C#4|..|C-4 CF.F ....|--- .... ....|C#2 2A.F ....
....|..|C-4 AF.A ....|--- .... ....|C#2 2F.A ....
 C#4|..|C-4 BF.F ....|--- .... ....|C#2 2A.F ....
....|..|C-4 CF.A ....|--- .... ....|C#2 2F.A ....
 C#4|..|C-4 CF.F ....|--- .... ....|C#2 2A.F ....
....|..|C-4 BF.A ....|--- .... ....|C#2 2F.A ....
 C#4|..|B-8 JF.F ....|--- .... ....|C#2 2A.F ....
....|..|C-4 CF.A ....|--- .... ....|C#2 2F.A ....
 C#4|..|C-4 BF.F ....|--- .... ....|C#2 2A.F ....
....|..|B-8 JF.A ....|--- .... ....|C#2 2F.A ....
....|..|C-4 CF.F ....|--- .... ....|C#2 2F.7 ....
....|..|C-4 BF.A ....|--- .... ....|C#2 2F.A ....
....|..|B-8 JF.F ....|--- .... ....|C#2 2F.7 ....
....|..|C-4 CF.A ....|--- .... ....|R-- .... ....
....|..|C-3 RF.F ....|--- .... ....|C#2 2F.7 ....
....|..|B-8 JF.A ....|--- .... ....|--- .... ....
....|..|C-4 CF.F ....|--- .... ....|R-- .... ....
....|..|C-3 RF.A ....|--- .... ....|--- .... ....
 C#4|..|C-4 AF.F ....|--- .... ....|C#2 2A.F ....
....|..|C-4 CF.A ....|--- .... ....|--- .... ....
 C#4|..|B-8 JF.F ....|--- .... ....|C#2 2A.F ....
....|..|C-4 AF.A ....|--- .... ....|C#2 2F.A ....
 C#4|..|B-8 JF.F ....|--- .... ....|C#2 2A.F ....
....|..|B-8 JF.A ....|--- .... ....|C#2 2F.A ....
 C#4|..|B-8 JF.F ....|--- .... ....|C#2 2A.F ....
....|..|B-8 JF.A ....|--- .... ....|C#2 2F.A ....
....|..|C-4 CF.F ....|--- .... ....|C#2 2F.7 ....
....|..|B-8 JF.A ....|--- .... ....|C#2 2F.A ....
 C#4|..|B-8 JF.F ....|--- .... ....|C#2 2A.F ....
....|..|C-4 CF.A ....|--- .... ....|R-- .... ....
 C#4|..|C-4 AF.F ....|--- .... ....|C#2 2A.F ....
....|..|B-8 JF.A ....|--- .... ....|C#2 2F.A ....
 C#4|..|C-4 CF.F ....|--- .... ....|C#2 2A.F ....
....|..|C-4 AF.A ....|--- .... ....|C#2 2F.A ....
 C#4|..|B-8 JF.F ....|--- .... ....|C#2 2A.F ....
....|..|C-4 CF.A ....|--- .... ....|C#2 2F.A ....
 C#4|..|C-5 VF.F ....|--- .... ....|C#2 2A.F ....
....|..|B-8 JF.A ....|--- .... ....|C#2 2F.A ....
 C#4|..|C-4 AF.F ....|--- .... ....|C#2 2A.F ....
....|..|C-5 VF.A ....|--- .... ....|C#2 2F.A ....
 C#4|..|B-8 JF.F ....|--- .... ....|C#2 2A.F ....
....|..|C-4 AF.A ....|--- .... ....|C#2 2F.A ....
....|..|C-4 CF.F ....|--- .... ....|C#2 2F.7 ....
....|..|B-8 JF.A ....|--- .... ....|C#2 2F.A ....
....|..|B-8 JF.F ....|--- .... ....|C#2 2F.7 ....
....|..|C-4 CF.A ....|--- .... ....|R-- .... ....
....|..|C-4 AF.F ....|--- .... ....|C#2 2F.7 ....
....|..|B-8 JF.A ....|--- .... ....|--- .... ....
....|..|C-4 CF.F ....|--- .... ....|R-- .... ....
....|..|C-4 AF.A ....|--- .... ....|--- .... ....

[Pattern18]
 C#4|..|C-4 AF.F ....|C#2 2A.F ....|C#2 2A.F ....
....|..|C-4 CF.A ....|--- .... ....|--- .... ....
 C#4|..|B-8 JF.F ....|--- .... ....|C#2 2A.F ....
....|..|C-4 AF.A ....|C#2 2F.A ....|C#2 2F.A ....
 C#4|..|B-8 JF.F ....|--- .... ....|C#2 2A.F ....
....|..|B-8 JF.A ....|--- .... ....|C#2 2F.A ....
 C#4|..|B-8 JF.F ....|C#2 2F.7 ....|C#2 2A.F ....
....|..|B-8 JF.A ....|--- .... ....|C#2 2F.A ....
....|..|C-4 CF.F ....|--- .... ....|C#2 2F.7 ....
....|..|B-8 JF.A ....|--- .... ....|C#2 2F.A ....
 C#4|..|B-8 JF.F ....|--- .... ....|C#2 2A.F ....
....|..|C-4 CF.A ....|--- .... ....|R-- .... ....
 C#4|..|C-4 AF.F ....|--- .... ....|C#2 2A.F ....
....|..|B-8 JF.A ....|--- .... ....|C#2 2F.A ....
 C#4|..|C-4 CF.F ....|--- .... ....|C#2 2A.F ....
....|..|C-4 AF.A ....|--- .... ....|C#2 2F.A ....
 C#4|..|C-4 BF.F ....|--- .... ....|C#2 2A.F ....
....|..|C-4 CF.A ....|--- .... ....|C#2 2F.A ....
 C#4|..|C-4 CF.F ....|--- .... ....|C#2 2A.F ....
....|..|C-4 BF.A ....|--- .... ....|C#2 2F.A ....
 C#4|..|B-8 JF.F ....|--- .... ....|C#2 2A.F ....
....|..|C-4 CF.A ....|--- .... ....|C#2 2F.A ....
 C#4|..|C-4 BF.F ....|--- .... ....|C#2 2A.F ....
....|..|B-8 JF.A ....|--- .... ....|C#2 2F.A ....
....|..|C-4 CF.F ....|--- .... ....|C#2 2F.7 ....
....|..|C-4 BF.A ....|--- .... ....|C#2 2F.A ....
....|..|B-8 JF.F ....|--- .... ....|C#2 2F.7 ....
....|..|C-4 CF.A ....|--- .... ....|R-- .... ....
....|..|C-3 RF.F ....|--- .... ....|C#2 2F.7 ....
....|..|B-8 JF.A ....|--- .... ....|--- .... ....
....|..|C-4 CF.F ....|--- .... ....|R-- .... ....
....|..|C-3 RF.A ....|--- .... ....|--- .... ....
 C#4|..|C-4 AF.F ....|--- .... ....|C#2 2A.F ....
....|..|C-4 CF.A ....|--- .... ....|--- .... ....
 C#4|..|B-8 JF.F ....|--- .... ....|C#2 2A.F ....
....|..|C-4 AF.A ....|--- .... ....|C#2 2F.A ....
 C#4|..|B-8 JF.F ....|--- .... ....|C#2 2A.F ....
....|..|B-8 JF.A ....|--- .... ....|C#2 2F.A ....
 C#4|..|B-8 JF.F ....|--- .... ....|C#2 2A.F ....
....|..|B-8 JF.A ....|--- .... ....|C#2 2F.A ....
....|..|C-4 CF.F ....|--- .... ....|C#2 2F.7 ....
....|..|B-8 JF.A ....|--- .... ....|C#2 2F.A ....
 C#4|..|B-8 JF.F ....|--- .... ....|C#2 2A.F ....
....|..|C-4 CF.A ....|--- .... ....|R-- .... ....
 C#4|..|C-4 AF.F ....|--- .... ....|C#2 2A.F ....
....|..|B-8 JF.A ....|--- .... ....|C#2 2F.A ....
 C#4|..|C-4 CF.F ....|--- .... ....|C#2 2A.F ....
....|..|C-4 AF.A ....|--- .... ....|C#2 2F.A ....
 C#4|..|B-8 JF.F ....|--- .... ....|C#2 2A.F ....
....|..|C-4 CF.A ....|--- .... ....|C#2 2F.A ....
 C#4|..|C-5 VF.F ....|--- .... ....|C#2 2A.F ....
....|..|B-8 JF.A ....|--- .... ....|C#2 2F.A ....
 C#4|..|C-4 AF.F ....|--- .... ....|C#2 2A.F ....
....|..|C-5 VF.A ....|--- .... ....|C#2 2F.A ....
 C#4|..|B-8 JF.F ....|--- .... ....|C#2 2A.F ....
....|..|C-4 AF.A ....|--- .... ....|C#2 2F.A ....
....|..|C-4 CF.F ....|--- .... ....|C#2 2F.7 ....
....|..|B-8 JF.A ....|--- .... ....|C#2 2F.A ....
....|..|B-8 JF.F ....|--- .... ....|C#2 2F.7 ....
....|..|C-4 CF.A ....|--- .... ....|R-- .... ....
....|..|C-4 AF.F ....|--- .... ....|C#2 2F.7 ....
....|..|B-8 JF.A ....|--- .... ....|--- .... ....
....|..|C-4 CF.F ....|--- .... ....|R-- .... ....
....|..|C-4 AF.A ....|--- .... ....|--- .... ....

[Pattern20]
 C#4|..|C-4 AF.F ....|C#4 2F8F ....|C#2 2A.F ....
 C#4|..|C-4 CF.A ....|C#2 2A.F ....|--- .... ....
 C#4|..|B-8 JF.F ....|--- .... ....|C#2 2A.F ....
....|..|C-4 AF.A ....|C#4 2F8A ....|C#2 2F.A ....
 C#4|..|B-8 JF.F ....|C#2 2F.A ....|C#2 2A.F ....
....|..|B-8 JF.A ....|--- .... ....|C#2 2F.A ....
 C#4|..|B-8 JF.F ....|C#4 2F8F ....|C#2 2A.F ....
....|..|B-8 JF.A ....|C#2 2F.7 ....|C#2 2F.A ....
....|..|C-4 CF.F ....|R-- .... ....|C#2 2F.7 ....
....|..|B-8 JF.A ....|C#4 2F8A ....|C#2 2F.A ....
 C#4|..|B-8 JF.F ....|--- .... ....|C#2 2A.F ....
....|..|C-4 CF.A ....|R-- .... ....|R-- .... ....
 C#4|..|C-4 AF.F ....|C#4 2F87 ....|C#2 2A.F ....
....|..|B-8 JF.A ....|--- .... ....|C#2 2F.A ....
 C#4|..|C-4 CF.F ....|R-- .... ....|C#2 2A.F ....
....|..|C-4 AF.A ....|--- .... ....|C#2 2F.A ....
 C#4|..|C-4 BF.F ....|--- .... ....|C#2 2A.F ....
....|..|C-4 CF.A ....|--- .... ....|C#2 2F.A ....
 C#4|..|C-4 CF.F ....|--- .... ....|C#2 2A.F ....
....|..|C-4 BF.A ....|--- .... ....|C#2 2F.A ....
 C#4|..|B-8 JF.F ....|C#4 2F8F ....|C#2 2A.F ....
....|..|C-4 CF.A ....|--- .... ....|C#2 2F.A ....
 C#4|..|C-4 BF.F ....|R-- .... ....|C#2 2A.F ....
....|..|B-8 JF.A ....|C#4 2F8A ....|C#2 2F.A ....
....|..|C-4 CF.F ....|--- .... ....|C#2 2F.7 ....
....|..|C-4 BF.A ....|R-- .... ....|C#2 2F.A ....
....|..|B-8 JF.F ....|C#4 2F8F ....|C#2 2F.7 ....
....|..|C-4 CF.A ....|--- .... ....|R-- .... ....
....|..|C-3 RF.F ....|R-- .... ....|C#2 2F.7 ....
....|..|B-8 JF.A ....|C#4 2F8A ....|--- .... ....
....|..|C-4 CF.F ....|--- .... ....|R-- .... ....
....|..|C-3 RF.A ....|R-- .... ....|--- .... ....
 C#4|..|C-4 AF.F ....|A-4 2F9F ....|C#2 2A.F ....
....|..|C-4 CF.A ....|--- .... ....|--- .... ....
 C#4|..|B-8 JF.F ....|R-- .... ....|C#2 2A.F ....
....|..|C-4 AF.A ....|A-4 2F9A ....|C#2 2F.A ....
 C#4|..|B-8 JF.F ....|--- .... ....|C#2 2A.F ....
....|..|B-8 JF.A ....|--- .... ....|C#2 2F.A ....
 C#4|..|B-8 JF.F ....|A-4 2F9F ....|C#2 2A.F ....
....|..|B-8 JF.A ....|--- .... ....|C#2 2F.A ....
....|..|C-4 CF.F ....|R-- .... ....|C#2 2F.7 ....
....|..|B-8 JF.A ....|A-4 2F9A ....|C#2 2F.A ....
 C#4|..|B-8 JF.F ....|--- .... ....|C#2 2A.F ....
....|..|C-4 CF.A ....|R-- .... ....|R-- .... ....
 C#4|..|C-4 AF.F ....|A-4 2F97 ....|C#2 2A.F ....
....|..|B-8 JF.A ....|--- .... ....|C#2 2F.A ....
 C#4|..|C-4 CF.F ....|R-- .... ....|C#2 2A.F ....
....|..|C-4 AF.A ....|--- .... ....|C#2 2F.A ....
 C#4|..|B-8 JF.F ....|B-4 2F9F ....|C#2 2A.F ....
....|..|C-4 CF.A ....|--- .... ....|C#2 2F.A ....
 C#4|..|C-5 VF.F ....|--- .... ....|C#2 2A.F ....
....|..|B-8 JF.A ....|B-4 2F9A ....|C#2 2F.A ....
 C#4|..|C-4 AF.F ....|--- .... ....|C#2 2A.F ....
....|..|C-5 VF.A ....|--- .... ....|C#2 2F.A ....
 C#4|..|B-8 JF.F ....|B-4 2F9F ....|C#2 2A.F ....
....|..|C-4 AF.A ....|--- .... ....|C#2 2F.A ....
....|..|C-4 CF.F ....|R-- .... ....|C#2 2F.7 ....
....|..|B-8 JF.A ....|B-4 2F9A ....|C#2 2F.A ....
....|..|B-8 JF.F ....|--- .... ....|C#2 2F.7 ....
....|..|C-4 CF.A ....|R-- .... ....|R-- .... ....
....|..|C-4 AF.F ....|B-4 2F97 ....|C#2 2F.7 ....
....|..|B-8 JF.A ....|--- .... ....|--- .... ....
....|..|C-4 CF.F ....|R-- .... ....|R-- .... ....
....|..|C-4 AF.A ....|--- .... ....|--- .... ....

[Pattern22]
 C#4|..|C-4 AF.F ....|C#4 2F8F ....|C#2 2A.F ....
 C#4|..|C-4 CF.A ....|C#2 2A.F ....|--- .... ....
 C#4|..|B-8 JF.F ....|--- .... ....|C#2 2A.F ....
....|..|C-4 AF.A ....|C#4 2F8A ....|C#2 2F.A ....
 C#4|..|B-8 JF.F ....|C#2 2F.A ....|C#2 2A.F ....
....|..|B-8 JF.A ....|--- .... ....|C#2 2F.A ....
 C#4|..|B-8 JF.F ....|C#4 2F8F ....|C#2 2A.F ....
....|..|B-8 JF.A ....|C#2 2F.7 ....|C#2 2F.A ....
....|..|C-4 CF.F ....|R-- .... ....|C#2 2F.7 ....
....|..|B-8 JF.A ....|C#4 2F8A ....|C#2 2F.A ....
 C#4|..|B-8 JF.F ....|--- .... ....|C#2 2A.F ....
....|..|C-4 CF.A ....|R-- .... ....|R-- .... ....
 C#4|..|C-4 AF.F ....|C#4 2F87 ....|C#2 2A.F ....
....|..|B-8 JF.A ....|--- .... ....|C#2 2F.A ....
 C#4|..|C-4 CF.F ....|R-- .... ....|C#2 2A.F ....
....|..|C-4 AF.A ....|--- .... ....|C#2 2F.A ....
 C#4|..|C-4 BF.F ....|--- .... ....|C#2 2A.F ....
....|..|C-4 CF.A ....|--- .... ....|C#2 2F.A ....
 C#4|..|C-4 CF.F ....|--- .... ....|C#2 2A.F ....
....|..|C-4 BF.A ....|--- .... ....|C#2 2F.A ....
 C#4|..|B-8 JF.F ....|C#4 2F8F ....|C#2 2A.F ....
....|..|C-4 CF.A ....|--- .... ....|C#2 2F.A ....
 C#4|..|C-4 BF.F ....|R-- .... ....|C#2 2A.F ....
....|..|B-8 JF.A ....|C#4 2F8A ....|C#2 2F.A ....
....|..|C-4 CF.F ....|--- .... ....|C#2 2F.7 ....
....|..|C-4 BF.A ....|R-- .... ....|C#2 2F.A ....
....|..|B-8 JF.F ....|C#4 2F8F ....|C#2 2F.7 ....
....|..|C-4 CF.A ....|--- .... ....|R-- .... ....
....|..|C-3 RF.F ....|R-- .... ....|C#2 2F.7 ....
....|..|B-8 JF.A ....|C#4 2F8A ....|--- .... ....
....|..|C-4 CF.F ....|--- .... ....|R-- .... ....
....|..|C-3 RF.A ....|R-- .... ....|--- .... ....
 A-3|..|C-4 AF.F ....|A-4 2F9F ....|A-1 2A.F ....
 A-3|..|C-4 CF.A ....|A-1 2A.F ....|--- .... ....
 A-3|..|B-8 JF.F ....|R-- .... ....|A-1 2A.F ....
....|..|C-4 AF.A ....|A-4 2F9A ....|A-1 2F.A ....
 A-3|..|B-8 JF.F ....|A-1 2F.A ....|A-1 2A.F ....
....|..|B-8 JF.A ....|--- .... ....|A-1 2F.A ....
 A-3|..|B-8 JF.F ....|A-4 2F9F ....|A-1 2A.F ....
....|..|B-8 JF.A ....|A-1 2F.7 ....|A-1 2F.A ....
....|..|C-4 CF.F ....|R-- .... ....|A-1 2F.7 ....
....|..|B-8 JF.A ....|A-4 2F9A ....|A-1 2F.A ....
 A-3|..|B-8 JF.F ....|--- .... ....|A-1 2A.F ....
....|..|C-4 CF.A ....|R-- .... ....|R-- .... ....
 A-3|..|C-4 AF.F ....|A-4 2F97 ....|A-1 2A.F ....
....|..|B-8 JF.A ....|--- .... ....|A-1 2F.A ....
 A-3|..|C-4 CF.F ....|R-- .... ....|A-1 2A.F ....
....|..|C-4 AF.A ....|--- .... ....|A-1 2F.A ....
 B-3|..|B-8 JF.F ....|B-4 2F9F ....|B-1 2A.F ....
 B-3|..|C-4 CF.A ....|B-1 2A.F ....|A-1 2F.A ....
 B-3|..|C-5 VF.F ....|--- .... ....|B-1 2A.F ....
....|..|B-8 JF.A ....|B-4 2F9A ....|B-1 2F.A ....
 B-3|..|C-4 AF.F ....|B-1 2F.A ....|B-1 2A.F ....
....|..|C-5 VF.A ....|--- .... ....|B-1 2F.A ....
 B-3|..|B-8 JF.F ....|B-4 2F9F ....|B-1 2A.F ....
....|..|C-4 AF.A ....|B-1 2F.7 ....|B-1 2F.A ....
....|..|C-4 CF.F ....|R-- .... ....|B-1 2F.7 ....
....|..|B-8 JF.A ....|B-4 2F9A ....|B-1 2F.A ....
....|..|B-8 JF.F ....|--- .... ....|B-1 2F.7 ....
....|..|C-4 CF.A ....|R-- .... ....|R-- .... ....
....|..|C-4 AF.F ....|B-4 2F97 ....|B-1 2F.7 ....
....|..|B-8 JF.A ....|--- .... ....|--- .... ....
....|..|C-4 CF.F ....|R-- .... ....|R-- .... ....
....|..|C-4 AF.A ....|--- .... ....|--- .... ....

[Pattern23]
 C#4|..|C-4 AF.F ....|C#4 2F8F ....|C#2 2A.F ....
 C#4|..|C-4 CF.A ....|C#2 2A.F ....|--- .... ....
 C#4|..|B-8 JF.F ....|R-- .... ....|C#2 2A.F ....
....|..|C-4 AF.A ....|C#4 2F8A ....|C#2 2F.A ....
 C#4|..|B-8 JF.F ....|C#2 2F.A ....|C#2 2A.F ....
....|..|B-8 JF.A ....|R-- .... ....|C#2 2F.A ....
 C#4|..|B-8 JF.F ....|C#4 2F87 ....|C#2 2A.F ....
....|..|B-8 JF.A ....|C#2 2F.7 ....|C#2 2F.A ....
....|..|C-4 CF.F ....|R-- .... ....|C#2 2F.7 ....
....|..|B-8 JF.A ....|--- .... ....|C#2 2F.A ....
 C#4|..|B-8 JF.F ....|--- .... ....|C#2 2A.F ....
....|..|C-4 CF.A ....|--- .... ....|R-- .... ....
 C#4|..|C-4 AF.F ....|--- .... ....|C#2 2A.F ....
....|..|B-8 JF.A ....|--- .... ....|C#2 2F.A ....
 C#4|..|C-4 CF.F ....|--- .... ....|C#2 2A.F ....
....|..|C-4 AF.A ....|--- .... ....|C#2 2F.A ....
 C#4|..|B-8 JF.F ....|--- .... ....|C#2 2A.F ....
....|..|C-4 CF.A ....|--- .... ....|C#2 2F.A ....
 C#4|..|C-4 CF.F ....|--- .... ....|C#2 2A.F ....
....|..|B-8 JF.A ....|--- .... ....|C#2 2F.A ....
 C#4|..|B-8 JF.F ....|C#4 2F8F ....|C#2 2A.F ....
....|..|C-4 CF.A ....|--- .... ....|C#2 2F.A ....
 C#4|..|B-8 JF.F ....|R-- .... ....|C#2 2A.F ....
....|..|B-8 JF.A ....|C#4 2F8A ....|C#2 2F.A ....
....|..|C-4 CF.F ....|--- .... ....|C#2 2F.7 ....
....|..|B-8 JF.A ....|R-- .... ....|C#2 2F.A ....
....|..|B-8 JF.F ....|C#4 2F8F ....|C#2 2F.7 ....
....|..|C-4 CF.A ....|--- .... ....|R-- .... ....
....|..|C-3 RF.F ....|R-- .... ....|C#2 2F.7 ....
....|..|B-8 JF.A ....|C#4 2F8A ....|--- .... ....
....|..|C-4 CF.F ....|--- .... ....|R-- .... ....
....|..|C-3 RF.A ....|R-- .... ....|--- .... ....
 A-3|..|C-4 AF.F ....|A-4 2F9F ....|A-1 2A.F ....
 A-3|..|C-4 CF.A ....|A-1 2A.F ....|--- .... ....
 A-3|..|B-8 JF.F ....|R-- .... ....|A-1 2A.F ....
....|..|C-4 AF.A ....|A-4 2F9A ....|A-1 2F.A ....
 A-3|..|B-8 JF.F ....|A-1 2F.A ....|A-1 2A.F ....
....|..|B-8 JF.A ....|--- .... ....|A-1 2F.A ....
 A-3|..|B-8 JF.F ....|A-4 2F9F ....|A-1 2A.F ....
....|..|B-8 JF.A ....|A-1 2F.7 ....|A-1 2F.A ....
....|..|C-4 CF.F ....|R-- .... ....|A-1 2F.7 ....
....|..|B-8 JF.A ....|A-4 2F9A ....|A-1 2F.A ....
 B-3|..|B-8 JF.F ....|--- .... ....|B-1 2A.F ....
....|..|C-4 CF.A ....|R-- .... ....|R-- .... ....
 B-3|..|C-4 AF.F ....|A-4 2F97 ....|B-1 2A.F ....
....|..|B-8 JF.A ....|--- .... ....|B-1 2F.A ....
 B-3|..|C-4 CF.F ....|R-- .... ....|B-1 2A.F ....
....|..|C-4 AF.A ....|--- .... ....|B-1 2F.A ....
 B-3|..|B-8 JF.F ....|B-4 2F9F ....|B-1 2A.F ....
 B-3|..|C-4 CF.A ....|B-1 2A.F ....|B-1 2F.A ....
 B-3|..|B-8 JF.F ....|--- .... ....|B-1 2A.F ....
....|..|B-8 JF.A ....|B-4 2F9A ....|B-1 2F.A ....
 B-3|..|C-4 AF.F ....|B-1 2F.A ....|B-1 2A.F ....
....|..|B-8 JF.A ....|--- .... ....|B-1 2F.A ....
 B-3|..|B-8 JF.F ....|B-4 2F9F ....|B-1 2A.F ....
....|..|C-4 AF.A ....|B-1 2F.7 ....|B-1 2F.A ....
....|..|C-4 CF.F ....|R-- .... ....|B-1 2F.7 ....
....|..|B-8 JF.A ....|B-4 2F9A ....|B-1 2F.A ....
....|..|C-4 AF.F ....|--- .... ....|B-1 2F.7 ....
....|..|C-4 CF.A ....|R-- .... ....|R-- .... ....
....|..|C-4 AF.F ....|B-4 2F97 ....|B-1 2F.7 ....
....|..|C-4 AF.A ....|--- .... ....|--- .... ....
....|..|C-4 AF.F ....|R-- .... ....|R-- .... ....
....|..|C-4 AF.A ....|--- .... ....|--- .... ....

[Pattern24]
 C#4|..|C-4 AF.F ....|C#2 2A.F ....|C#2 2A.F ....
....|..|C-4 AF.A ....|--- .... ....|--- .... ....
 C#4|..|B-8 JF.F ....|--- .... ....|C#2 2A.F ....
....|..|C-4 AF.A ....|C#2 2F.A ....|C#2 2F.A ....
 C#4|..|B-8 JF.F ....|--- .... ....|C#2 2A.F ....
....|..|B-8 JF.A ....|--- .... ....|C#2 2F.A ....
 C#4|..|B-8 JF.F ....|C#2 2F.7 ....|C#2 2A.F ....
....|..|B-8 JF.A ....|--- .... ....|C#2 2F.A ....
....|..|C-4 CF.F ....|--- .... ....|C#2 2F.7 ....
....|..|B-8 JF.A ....|--- .... ....|C#2 2F.A ....
 C#4|..|B-8 JF.F ....|--- .... ....|C#2 2A.F ....
....|..|C-4 CF.A ....|--- .... ....|R-- .... ....
 C#4|..|C-4 AF.F ....|--- .... ....|C#2 2A.F ....
....|..|B-8 JF.A ....|--- .... ....|C#2 2F.A ....
 C#4|..|C-4 CF.F ....|--- .... ....|C#2 2A.F ....
....|..|C-4 AF.A ....|--- .... ....|C#2 2F.A ....
 C#4|..|C-4 BF.F ....|--- .... ....|C#2 2A.F ....
....|..|C-4 CF.A ....|--- .... ....|C#2 2F.A ....
 C#4|..|C-4 CF.F ....|--- .... ....|C#2 2A.F ....
....|..|C-4 BF.A ....|--- .... ....|C#2 2F.A ....
 C#4|..|B-8 JF.F ....|--- .... ....|C#2 2A.F ....
....|..|C-4 CF.A ....|--- .... ....|C#2 2F.A ....
 C#4|..|C-4 BF.F ....|--- .... ....|C#2 2A.F ....
....|..|B-8 JF.A ....|--- .... ....|C#2 2F.A ....
....|..|C-4 CF.F ....|--- .... ....|C#2 2F.7 ....
....|..|C-4 BF.A ....|--- .... ....|C#2 2F.A ....
....|..|B-8 JF.F ....|--- .... ....|C#2 2F.7 ....
....|..|C-4 CF.A ....|--- .... ....|R-- .... ....
....|..|C-3 RF.F ....|--- .... ....|C#2 2F.7 ....
....|..|B-8 JF.A ....|--- .... ....|--- .... ....
....|..|C-4 CF.F ....|--- .... ....|R-- .... ....
....|..|C-3 RF.A ....|--- .... ....|--- .... ....
 C#4|..|C-4 AF.F ....|--- .... ....|C#2 2A.F ....
....|..|C-4 CF.A ....|--- .... ....|--- .... ....
 C#4|..|B-8 JF.F ....|--- .... ....|C#2 2A.F ....
....|..|C-4 AF.A ....|--- .... ....|C#2 2F.A ....
 C#4|..|B-8 JF.F ....|--- .... ....|C#2 2A.F ....
....|..|B-8 JF.A ....|--- .... ....|C#2 2F.A ....
 C#4|..|B-8 JF.F ....|--- .... ....|C#2 2A.F ....
....|..|B-8 JF.A ....|--- .... ....|C#2 2F.A ....
....|..|C-4 CF.F ....|--- .... ....|C#2 2F.7 ....
....|..|B-8 JF.A ....|--- .... ....|C#2 2F.A ....
 C#4|..|B-8 JF.F ....|--- .... ....|C#2 2A.F ....
....|..|C-4 CF.A ....|--- .... ....|R-- .... ....
 C#4|..|C-4 AF.F ....|--- .... ....|C#2 2A.F ....
....|..|B-8 JF.A ....|--- .... ....|C#2 2F.A ....
 C#4|..|C-4 CF.F ....|--- .... ....|C#2 2A.F ....
....|..|C-4 AF.A ....|--- .... ....|C#2 2F.A ....
 C#4|..|B-8 JF.F ....|--- .... ....|C#2 2A.F ....
....|..|C-4 CF.A ....|--- .... ....|C#2 2F.A ....
 C#4|..|C-5 VF.F ....|--- .... ....|C#2 2A.F ....
....|..|B-8 JF.A ....|--- .... ....|C#2 2F.A ....
 C#4|..|C-4 AF.F ....|--- .... ....|C#2 2A.F ....
....|..|C-5 VF.A ....|--- .... ....|C#2 2F.A ....
 C#4|..|B-8 JF.F ....|--- .... ....|C#2 2A.F ....
....|..|C-4 AF.A ....|--- .... ....|C#2 2F.A ....
....|..|C-4 CF.F ....|--- .... ....|C#2 2F.7 ....
....|..|B-8 JF.A ....|--- .... ....|C#2 2F.A ....
....|..|B-8 JF.F ....|--- .... ....|C#2 2F.7 ....
....|..|C-4 CF.A ....|--- .... ....|R-- .... ....
....|..|C-4 AF.F ....|--- .... ....|C#2 2F.7 ....
....|..|B-8 JF.A ....|--- .... ....|--- .... ....
....|..|C-4 CF.F ....|--- .... ....|R-- .... ....
....|..|C-4 AF.A ....|--- .... ....|--- .... ....

[Pattern28]
 C#4|..|C-4 AF.F ....|G#4 2FAF ....|C#2 2A.F ....
 C#4|..|C-4 CF.A ....|C#2 2A.F ....|--- .... ....
 C#4|..|B-8 JF.F ....|G#4 2FAF ....|C#2 2A.F ....
....|..|C-4 AF.A ....|G#4 2FAA ....|C#2 2F.A ....
 C#4|..|B-8 JF.F ....|G#4 2FAF ....|C#2 2A.F ....
....|..|B-8 JF.A ....|G#4 2FAA ....|C#2 2F.A ....
 C#4|..|B-8 JF.F ....|G#4 2FAF ....|C#2 2A.F ....
....|..|B-8 JF.A ....|G#4 2FAA ....|C#2 2F.A ....
....|..|C-4 CF.F ....|G#4 2FAF ....|C#2 2F.7 ....
....|..|B-8 JF.A ....|G#4 2FAA ....|C#2 2F.A ....
 C#4|..|B-8 JF.F ....|G#4 2FAF ....|C#2 2A.F ....
....|..|C-4 CF.A ....|G#4 2FAA ....|R-- .... ....
 C#4|..|C-4 AF.F ....|G#4 2FAF ....|C#2 2A.F ....
....|..|B-8 JF.A ....|G#4 2FAA ....|C#2 2F.A ....
 C#4|..|C-4 CF.F ....|G#4 2FAF ....|C#2 2A.F ....
....|..|C-4 AF.A ....|G#4 2FAA ....|C#2 2F.A ....
 C#4|..|C-4 BF.F ....|G#4 2FAF ....|C#2 2A.F ....
....|..|C-4 CF.A ....|G#4 2FAA ....|C#2 2F.A ....
 C#4|..|C-4 CF.F ....|G#4 2FAF ....|C#2 2A.F ....
....|..|C-4 BF.A ....|G#4 2FAA ....|C#2 2F.A ....
 C#4|..|B-8 JF.F ....|G#4 2FAF ....|C#2 2A.F ....
....|..|C-4 CF.A ....|G#4 2FAA ....|C#2 2F.A ....
 C#4|..|C-4 BF.F ....|G#4 2FAF ....|C#2 2A.F ....
....|..|B-8 JF.A ....|G#4 2FAA ....|C#2 2F.A ....
....|..|C-4 CF.F ....|G#4 2FAF ....|C#2 2F.7 ....
....|..|C-4 BF.A ....|G#4 2FAA ....|C#2 2F.A ....
....|..|B-8 JF.F ....|G#4 2FAF ....|C#2 2F.7 ....
....|..|C-4 CF.A ....|G#4 2FAA ....|R-- .... ....
....|..|C-3 RF.F ....|G#4 2FAF ....|C#2 2F.7 ....
....|..|B-8 JF.A ....|G#4 2FAA ....|--- .... ....
....|..|C-4 CF.F ....|G#4 2FAF ....|R-- .... ....
....|..|C-3 RF.A ....|G#4 2FAA ....|--- .... ....
 C#4|..|C-4 AF.F ....|G#4 2FAF ....|C#2 2A.F ....
....|..|C-4 CF.A ....|G#4 2FAA ....|--- .... ....
 C#4|..|B-8 JF.F ....|G#4 2FAF ....|C#2 2A.F ....
....|..|C-4 AF.A ....|G#4 2FAA ....|C#2 2F.A ....
 C#4|..|B-8 JF.F ....|G#4 2FAF ....|C#2 2A.F ....
....|..|B-8 JF.A ....|G#4 2FAA ....|C#2 2F.A ....
 C#4|..|B-8 JF.F ....|G#4 2FAF ....|C#2 2A.F ....
....|..|B-8 JF.A ....|G#4 2FAA ....|C#2 2F.A ....
....|..|C-4 CF.F ....|G#4 2FAF ....|C#2 2F.7 ....
....|..|B-8 JF.A ....|G#4 2FAA ....|C#2 2F.A ....
 C#4|..|B-8 JF.F ....|G#4 2FAF ....|C#2 2A.F ....
....|..|C-4 CF.A ....|G#4 2FAA ....|R-- .... ....
 C#4|..|C-4 AF.F ....|G#4 2FAF ....|C#2 2A.F ....
....|..|B-8 JF.A ....|G#4 2FAA ....|C#2 2F.A ....
 C#4|..|C-4 CF.F ....|G#4 2FAF ....|C#2 2A.F ....
....|..|C-4 AF.A ....|G#4 2FAA ....|C#2 2F.A ....
 C#4|..|B-8 JF.F ....|G#4 2FAF ....|C#2 2A.F ....
....|..|C-4 CF.A ....|G#4 2FAA ....|C#2 2F.A ....
 C#4|..|C-5 VF.F ....|G#4 2FAF ....|C#2 2A.F ....
....|..|B-8 JF.A ....|G#4 2FAA ....|C#2 2F.A ....
 C#4|..|C-4 AF.F ....|G#4 2FAF ....|C#2 2A.F ....
....|..|C-5 VF.A ....|G#4 2FAA ....|C#2 2F.A ....
 C#4|..|B-8 JF.F ....|G#4 2FAF ....|C#2 2A.F ....
....|..|C-4 AF.A ....|G#4 2FAA ....|C#2 2F.A ....
....|..|C-4 CF.F ....|G#4 2FAF ....|C#2 2F.7 ....
....|..|B-8 JF.A ....|G#4 2FAA ....|C#2 2F.A ....
....|..|B-8 JF.F ....|G#4 2FAF ....|C#2 2F.7 ....
....|..|C-4 CF.A ....|G#4 2FAA ....|R-- .... ....
....|..|C-4 AF.F ....|G#4 2FAF ....|C#2 2F.7 ....
....|..|B-8 JF.A ....|G#4 2FAA ....|--- .... ....
....|..|C-4 CF.F ....|G#4 2FAF ....|R-- .... ....
....|..|C-4 AF.A ....|G#4 2FAA ....|--- .... ....

[Pattern29]
 C#4|..|C-4 AF.F ....|F#4 2FBF ....|C#2 2A.F ....
....|..|C-4 CF.A ....|G#4 2FAA ....|--- .... ....
 C#4|..|B-8 JF.F ....|F#4 2FBF ....|C#2 2A.F ....
....|..|C-4 AF.A ....|F#4 2FBA ....|C#2 2F.A ....
 C#4|..|B-8 JF.F ....|F#4 2FBF ....|C#2 2A.F ....
....|..|B-8 JF.A ....|F#4 2FBA ....|C#2 2F.A ....
 C#4|..|B-8 JF.F ....|F#4 2FBF ....|C#2 2A.F ....
....|..|B-8 JF.A ....|F#4 2FBA ....|C#2 2F.A ....
....|..|C-4 CF.F ....|F#4 2FBF ....|C#2 2F.7 ....
....|..|B-8 JF.A ....|F#4 2FBA ....|C#2 2F.A ....
 C#4|..|B-8 JF.F ....|F#4 2FBF ....|C#2 2A.F ....
....|..|C-4 CF.A ....|F#4 2FBA ....|R-- .... ....
 C#4|..|C-4 AF.F ....|F#4 2FBF ....|C#2 2A.F ....
....|..|B-8 JF.A ....|F#4 2FBA ....|C#2 2F.A ....
 C#4|..|C-4 CF.F ....|F#4 2FBF ....|C#2 2A.F ....
....|..|C-4 AF.A ....|F#4 2FBA ....|C#2 2F.A ....
 C#4|..|B-8 JF.F ....|F#4 2FBF ....|C#2 2A.F ....
....|..|C-4 CF.A ....|F#4 2FBA ....|C#2 2F.A ....
 C#4|..|C-4 CF.F ....|F#4 2FBF ....|C#2 2A.F ....
....|..|B-8 JF.A ....|F#4 2FBA ....|C#2 2F.A ....
 C#4|..|B-8 JF.F ....|F#4 2FBF ....|C#2 2A.F ....
....|..|C-4 CF.A ....|F#4 2FBA ....|C#2 2F.A ....
 C#4|..|B-8 JF.F ....|F#4 2FBF ....|C#2 2A.F ....
....|..|B-8 JF.A ....|F#4 2FBA ....|C#2 2F.A ....
....|..|C-4 CF.F ....|F#4 2FBF ....|C#2 2F.7 ....
....|..|B-8 JF.A ....|F#4 2FBA ....|C#2 2F.A ....
....|..|B-8 JF.F ....|F#4 2FBF ....|C#2 2F.7 ....
....|..|C-4 CF.A ....|F#4 2FBA ....|R-- .... ....
....|..|C-3 RF.F ....|F#4 2FBF ....|C#2 2F.7 ....
....|..|B-8 JF.A ....|F#4 2FBA ....|--- .... ....
....|..|C-4 CF.F ....|F#4 2FBF ....|R-- .... ....
....|..|C-3 RF.A ....|F#4 2FBA ....|--- .... ....
 C#4|..|C-4 AF.F ....|F#4 2FCF ....|C#2 2A.F ....
....|..|C-4 CF.A ....|F#4 2FBA ....|--- .... ....
 C#4|..|B-8 JF.F ....|F#4 2FCF ....|C#2 2A.F ....
....|..|C-4 AF.A ....|F#4 2FCA ....|C#2 2F.A ....
 C#4|..|B-8 JF.F ....|F#4 2FCF ....|C#2 2A.F ....
....|..|B-8 JF.A ....|F#4 2FCA ....|C#2 2F.A ....
 C#4|..|B-8 JF.F ....|F#4 2FCF ....|C#2 2A.F ....
....|..|B-8 JF.A ....|F#4 2FCA ....|C#2 2F.A ....
....|..|C-4 CF.F ....|F#4 2FCF ....|C#2 2F.7 ....
....|..|B-8 JF.A ....|F#4 2FCA ....|C#2 2F.A ....
 C#4|..|B-8 JF.F ....|F#4 2FCF ....|C#2 2A.F ....
....|..|C-4 CF.A ....|F#4 2FCA ....|R-- .... ....
 C#4|..|C-4 AF.F ....|F#4 2FCF ....|C#2 2A.F ....
....|..|B-8 JF.A ....|F#4 2FCA ....|C#2 2F.A ....
 C#4|..|C-4 CF.F ....|F#4 2FCF ....|C#2 2A.F ....
....|..|C-4 AF.A ....|F#4 2FCA ....|C#2 2F.A ....
 C#4|..|B-8 JF.F ....|F#4 2FCF ....|C#2 2A.F ....
....|..|C-4 CF.A ....|F#4 2FCA ....|C#2 2F.A ....
 C#4|..|B-8 JF.F ....|F#4 2FCF ....|C#2 2A.F ....
....|..|B-8 JF.A ....|F#4 2FCA ....|C#2 2F.A ....
 C#4|..|C-4 AF.F ....|F#4 2FCF ....|C#2 2A.F ....
....|..|B-8 JF.A ....|F#4 2FCA ....|C#2 2F.A ....
 C#4|..|B-8 JF.F ....|F#4 2FCF ....|C#2 2A.F ....
....|..|C-4 AF.A ....|F#4 2FCA ....|C#2 2F.A ....
....|..|C-4 CF.F ....|F#4 2FCF ....|C#2 2F.7 ....
....|..|B-8 JF.A ....|F#4 2FCA ....|C#2 2F.A ....
....|..|C-4 AF.F ....|F#4 2FCF ....|C#2 2F.7 ....
....|..|C-4 CF.A ....|F#4 2FCA ....|R-- .... ....
....|..|C-3 RF.F ....|F#4 2FCF ....|C#2 2F.7 ....
....|..|C-4 AF.A ....|F#4 2FCA ....|--- .... ....
....|..|C-4 CF.F ....|F#4 2FCF ....|R-- .... ....
....|..|C-3 RF.A ....|F#4 2FCA ....|--- .... ....

[Pattern30]
 C#4|..|C-4 AF.F ....|G#4 2FAF ....|C#2 2A.F ....
....|..|C-4 CF.A ....|F#4 2FCA ....|--- .... ....
 C#4|..|B-8 JF.F ....|G#4 2FAF ....|C#2 2A.F ....
....|..|C-4 AF.A ....|G#4 2FAA ....|C#2 2F.A ....
 C#4|..|B-8 JF.F ....|G#4 2FAF ....|C#2 2A.F ....
....|..|B-8 JF.A ....|G#4 2FAA ....|C#2 2F.A ....
 C#4|..|B-8 JF.F ....|G#4 2FAF ....|C#2 2A.F ....
....|..|B-8 JF.A ....|G#4 2FAA ....|C#2 2F.A ....
....|..|C-4 CF.F ....|G#4 2FAF ....|C#2 2F.7 ....
....|..|B-8 JF.A ....|G#4 2FAA ....|C#2 2F.A ....
 C#4|..|B-8 JF.F ....|G#4 2FAF ....|C#2 2A.F ....
....|..|C-4 CF.A ....|G#4 2FAA ....|R-- .... ....
 C#4|..|C-4 AF.F ....|G#4 2FAF ....|C#2 2A.F ....
....|..|B-8 JF.A ....|G#4 2FAA ....|C#2 2F.A ....
 C#4|..|C-4 CF.F ....|G#4 2FAF ....|C#2 2A.F ....
....|..|C-4 AF.A ....|G#4 2FAA ....|C#2 2F.A ....
 C#4|..|C-4 BF.F ....|G#4 2FAF ....|C#2 2A.F ....
....|..|C-4 CF.A ....|G#4 2FAA ....|C#2 2F.A ....
 C#4|..|C-4 CF.F ....|G#4 2FAF ....|C#2 2A.F ....
....|..|C-4 BF.A ....|G#4 2FAA ....|C#2 2F.A ....
 C#4|..|B-8 JF.F ....|G#4 2FAF ....|C#2 2A.F ....
....|..|C-4 CF.A ....|G#4 2FAA ....|C#2 2F.A ....
 C#4|..|C-4 BF.F ....|G#4 2FAF ....|C#2 2A.F ....
....|..|B-8 JF.A ....|G#4 2FAA ....|C#2 2F.A ....
....|..|C-4 CF.F ....|G#4 2FAF ....|C#2 2F.7 ....
....|..|C-4 BF.A ....|G#4 2FAA ....|C#2 2F.A ....
....|..|B-8 JF.F ....|G#4 2FAF ....|C#2 2F.7 ....
....|..|C-4 CF.A ....|G#4 2FAA ....|R-- .... ....
....|..|C-3 RF.F ....|G#4 2FAF ....|C#2 2F.7 ....
....|..|B-8 JF.A ....|G#4 2FAA ....|--- .... ....
....|..|C-4 CF.F ....|G#4 2FAF ....|R-- .... ....
....|..|C-3 RF.A ....|G#4 2FAA ....|--- .... ....
 C#4|..|C-4 AF.F ....|G#4 2FAF ....|C#2 2A.F ....
....|..|C-4 CF.A ....|G#4 2FAA ....|--- .... ....
 C#4|..|B-8 JF.F ....|G#4 2FAF ....|C#2 2A.F ....
....|..|C-4 AF.A ....|G#4 2FAA ....|C#2 2F.A ....
 C#4|..|B-8 JF.F ....|G#4 2FAF ....|C#2 2A.F ....
....|..|B-8 JF.A ....|G#4 2FAA ....|C#2 2F.A ....
 C#4|..|B-8 JF.F ....|G#4 2FAF ....|C#2 2A.F ....
....|..|B-8 JF.A ....|G#4 2FAA ....|C#2 2F.A ....
....|..|C-4 CF.F ....|G#4 2FAF ....|C#2 2F.7 ....
....|..|B-8 JF.A ....|G#4 2FAA ....|C#2 2F.A ....
 C#4|..|B-8 JF.F ....|G#4 2FAF ....|C#2 2A.F ....
....|..|C-4 CF.A ....|G#4 2FAA ....|R-- .... ....
 C#4|..|C-4 AF.F ....|G#4 2FAF ....|C#2 2A.F ....
....|..|B-8 JF.A ....|G#4 2FAA ....|C#2 2F.A ....
 C#4|..|C-4 CF.F ....|G#4 2FAF ....|C#2 2A.F ....
....|..|C-4 AF.A ....|G#4 2FAA ....|C#2 2F.A ....
 C#4|..|B-8 JF.F ....|G#4 2FAF ....|C#2 2A.F ....
....|..|C-4 CF.A ....|G#4 2FAA ....|C#2 2F.A ....
 C#4|..|C-5 VF.F ....|G#4 2FAF ....|C#2 2A.F ....
....|..|B-8 JF.A ....|G#4 2FAA ....|C#2 2F.A ....
 C#4|..|C-4 AF.F ....|G#4 2FAF ....|C#2 2A.F ....
....|..|C-5 VF.A ....|G#4 2FAA ....|C#2 2F.A ....
 C#4|..|B-8 JF.F ....|G#4 2FAF ....|C#2 2A.F ....
....|..|C-4 AF.A ....|G#4 2FAA ....|C#2 2F.A ....
....|..|C-4 CF.F ....|G#4 2FAF ....|C#2 2F.7 ....
....|..|B-8 JF.A ....|G#4 2FAA ....|C#2 2F.A ....
....|..|B-8 JF.F ....|G#4 2FAF ....|C#2 2F.7 ....
....|..|C-4 CF.A ....|G#4 2FAA ....|R-- .... ....
....|..|C-4 AF.F ....|G#4 2FAF ....|C#2 2F.7 ....
....|..|B-8 JF.A ....|G#4 2FAA ....|--- .... ....
....|..|C-4 CF.F ....|G#4 2FAF ....|R-- .... ....
....|..|C-4 AF.A ....|G#4 2FAA ....|--- .... ....

[Pattern31]
 C#4|..|C-4 AF.F ....|F#4 2FBF ....|C#2 2A.F ....
....|..|C-4 CF.A ....|G#4 2FAA ....|--- .... ....
 C#4|..|B-8 JF.F ....|F#4 2FBF ....|C#2 2A.F ....
....|..|C-4 AF.A ....|F#4 2FBA ....|C#2 2F.A ....
 C#4|..|B-8 JF.F ....|F#4 2FBF ....|C#2 2A.F ....
....|..|B-8 JF.A ....|F#4 2FBA ....|C#2 2F.A ....
 C#4|..|B-8 JF.F ....|F#4 2FBF ....|C#2 2A.F ....
....|..|B-8 JF.A ....|F#4 2FBA ....|C#2 2F.A ....
....|..|C-4 CF.F ....|F#4 2FBF ....|C#2 2F.7 ....
....|..|B-8 JF.A ....|F#4 2FBA ....|C#2 2F.A ....
 C#4|..|B-8 JF.F ....|F#4 2FBF ....|C#2 2A.F ....
....|..|C-4 CF.A ....|F#4 2FBA ....|R-- .... ....
 C#4|..|C-4 AF.F ....|F#4 2FBF ....|C#2 2A.F ....
....|..|B-8 JF.A ....|F#4 2FBA ....|C#2 2F.A ....
 C#4|..|C-4 CF.F ....|F#4 2FBF ....|C#2 2A.F ....
....|..|C-4 AF.A ....|F#4 2FBA ....|C#2 2F.A ....
 C#4|..|B-8 JF.F ....|F#4 2FBF ....|C#2 2A.F ....
....|..|C-4 CF.A ....|F#4 2FBA ....|C#2 2F.A ....
 C#4|..|C-4 CF.F ....|F#4 2FBF ....|C#2 2A.F ....
....|..|B-8 JF.A ....|F#4 2FBA ....|C#2 2F.A ....
 C#4|..|B-8 JF.F ....|F#4 2FBF ....|C#2 2A.F ....
....|..|C-4 CF.A ....|F#4 2FBA ....|C#2 2F.A ....
 C#4|..|B-8 JF.F ....|F#4 2FBF ....|C#2 2A.F ....
....|..|B-8 JF.A ....|F#4 2FBA ....|C#2 2F.A ....
....|..|C-4 CF.F ....|F#4 2FBF ....|C#2 2F.7 ....
....|..|B-8 JF.A ....|F#4 2FBA ....|C#2 2F.A ....
....|..|B-8 JF.F ....|F#4 2FBF ....|C#2 2F.7 ....
....|..|C-4 CF.A ....|F#4 2FBA ....|R-- .... ....
....|..|C-3 RF.F ....|F#4 2FBF ....|C#2 2F.7 ....
....|..|B-8 JF.A ....|F#4 2FBA ....|--- .... ....
....|..|C-4 CF.F ....|F#4 2FBF ....|R-- .... ....
....|..|C-3 RF.A ....|F#4 2FBA ....|--- .... ....
 C#4|..|C-4 AF.F ....|G#4 2FAF ....|C#2 2A.F ....
....|..|C-4 CF.A ....|F#4 2FBA ....|--- .... ....
 C#4|..|B-8 JF.F ....|G#4 2FAF ....|C#2 2A.F ....
....|..|C-4 AF.A ....|G#4 2FAA ....|C#2 2F.A ....
 C#4|..|B-8 JF.F ....|G#4 2FAF ....|C#2 2A.F ....
....|..|B-8 JF.A ....|G#4 2FAA ....|C#2 2F.A ....
 C#4|..|B-8 JF.F ....|G#4 2FAF ....|C#2 2A.F ....
....|..|B-8 JF.A ....|G#4 2FAA ....|C#2 2F.A ....
....|..|C-4 CF.F ....|G#4 2FAF ....|C#2 2F.7 ....
....|..|B-8 JF.A ....|G#4 2FAA ....|C#2 2F.A ....
 C#4|..|B-8 JF.F ....|G#4 2FAF ....|C#2 2A.F ....
....|..|C-4 CF.A ....|G#4 2FAA ....|R-- .... ....
 C#4|..|C-4 AF.F ....|G#4 2FAF ....|C#2 2A.F ....
....|..|B-8 JF.A ....|G#4 2FAA ....|C#2 2F.A ....
 C#4|..|C-4 CF.F ....|G#4 2FAF ....|C#2 2A.F ....
....|..|C-4 AF.A ....|G#4 2FAA ....|C#2 2F.A ....
 C#4|..|B-8 JF.F ....|G#4 2FAF ....|C#2 2A.F ....
....|..|C-4 CF.A ....|G#4 2FAA ....|C#2 2F.A ....
 C#4|..|B-8 JF.F ....|G#4 2FAF ....|C#2 2A.F ....
....|..|B-8 JF.A ....|G#4 2FAA ....|C#2 2F.A ....
 C#4|..|C-4 AF.F ....|G#4 2FAF ....|C#2 2A.F ....
....|..|B-8 JF.A ....|G#4 2FAA ....|C#2 2F.A ....
 C#4|..|B-8 JF.F ....|G#4 2FAF ....|C#2 2A.F ....
....|..|C-4 AF.A ....|G#4 2FAA ....|C#2 2F.A ....
....|..|C-4 CF.F ....|G#4 2FAF ....|C#2 2F.7 ....
....|..|B-8 JF.A ....|G#4 2FAA ....|C#2 2F.A ....
....|..|C-4 AF.F ....|G#4 2FAF ....|C#2 2F.7 ....
....|..|C-4 CF.A ....|G#4 2FAA ....|R-- .... ....
....|..|C-3 RF.F ....|G#4 2FAF ....|C#2 2F.7 ....
....|..|C-4 AF.A ....|G#4 2FAA ....|--- .... ....
....|..|C-4 CF.F ....|G#4 2FAF ....|R-- .... ....
....|..|C-3 RF.A ....|G#4 2FAA ....|--- .... ....

[Pattern32]
....|..|C-4 AF.F ....|C#4 2F8F ....|C#3 2F1F ....
 C#4|..|C-4 CF.A ....|G#4 2FAA ....|C#2 2A.F ....
 C#4|..|B-8 JF.F ....|G#4 2FA7 ....|C#2 2A.F ....
....|..|C-4 AF.A ....|C#4 2F8A ....|C#3 2F1A ....
....|..|B-8 JF.F ....|G#4 2FA7 ....|C#3 2F1F ....
....|..|B-8 JF.A ....|C#2 2F.A ....|C#2 2F.A ....
 C#4|..|B-8 JF.F ....|C#4 2F8F ....|C#2 2A.F ....
....|..|B-8 JF.A ....|C#2 2F.7 ....|C#3 2F1A ....
....|..|C-4 CF.F ....|R-- .... ....|G#3 2F1F ....
....|..|B-8 JF.A ....|C#4 2F8A ....|C#2 2F.A ....
 C#4|..|B-8 JF.F ....|--- .... ....|C#2 2A.F ....
....|..|C-4 CF.A ....|R-- .... ....|G#3 2F1A ....
 C#4|..|C-4 AF.F ....|C#4 2F87 ....|C#2 2A.F ....
....|..|B-8 JF.A ....|--- .... ....|C#2 2F.A ....
....|..|C-4 CF.F ....|R-- .... ....|C#3 2F1F ....
 C#4|..|C-4 AF.A ....|--- .... ....|C#2 2A.F ....
 C#4|..|C-4 BF.F ....|--- .... ....|C#2 2A.F ....
....|..|C-4 CF.A ....|--- .... ....|C#3 2F1A ....
....|..|C-4 CF.F ....|--- .... ....|G#3 2F1F ....
....|..|C-4 BF.A ....|--- .... ....|C#2 2F.A ....
 C#4|..|B-8 JF.F ....|C#4 2F8F ....|C#2 2A.F ....
....|..|C-4 CF.A ....|--- .... ....|G#3 2F1A ....
....|..|C-4 BF.F ....|R-- .... ....|C#3 2F1F ....
....|..|B-8 JF.A ....|C#4 2F8A ....|C#2 2F.A ....
....|..|C-4 CF.F ....|--- .... ....|G#3 2F1F ....
....|..|C-4 BF.A ....|R-- .... ....|C#3 2F1A ....
....|..|B-8 JF.F ....|C#4 2F8F ....|C#2 2F.A ....
....|..|C-4 CF.A ....|--- .... ....|G#3 2F1A ....
....|..|C-3 RF.F ....|R-- .... ....|G#3 2F1F ....
....|..|B-8 JF.A ....|C#4 2F8A ....|C#2 2F.7 ....
....|..|C-4 CF.F ....|--- .... ....|G#3 2F17 ....
....|..|C-3 RF.A ....|R-- .... ....|G#3 2F1A ....
....|..|C-4 AF.F ....|A-4 2F9F ....|A-3 2F1F ....
 A-3|..|C-4 CF.A ....|A-1 2A.F ....|A-1 2A.F ....
 A-3|..|B-8 JF.F ....|R-- .... ....|A-1 2A.F ....
....|..|C-4 AF.A ....|A-4 2F9A ....|A-3 2F1A ....
....|..|B-8 JF.F ....|A-1 2F.A ....|A-3 2F1F ....
....|..|B-8 JF.A ....|--- .... ....|A-1 2F.A ....
 A-3|..|B-8 JF.F ....|A-4 2F9F ....|A-1 2A.F ....
....|..|B-8 JF.A ....|A-1 2F.7 ....|A-3 2F1A ....
....|..|C-4 CF.F ....|R-- .... ....|E-3 2F1F ....
....|..|B-8 JF.A ....|A-4 2F9A ....|A-1 2F.A ....
 A-3|..|B-8 JF.F ....|--- .... ....|A-1 2A.F ....
....|..|C-4 CF.A ....|R-- .... ....|E-3 2F1A ....
 B-3|..|C-4 AF.F ....|A-4 2F97 ....|B-1 2A.F ....
....|..|B-8 JF.A ....|--- .... ....|A-1 2F.A ....
....|..|C-4 CF.F ....|R-- .... ....|B-3 2F1F ....
 B-3|..|C-4 AF.A ....|--- .... ....|B-1 2A.F ....
 B-3|..|B-8 JF.F ....|B-4 2F9F ....|B-1 2A.F ....
 B-3|..|C-4 CF.A ....|B-1 2A.F ....|B-3 2F1A ....
....|..|C-5 VF.F ....|--- .... ....|F#3 2F1F ....
....|..|B-8 JF.A ....|B-4 2F9A ....|B-1 2F.A ....
 B-3|..|C-4 AF.F ....|B-1 2F.A ....|B-1 2A.F ....
....|..|C-5 VF.A ....|--- .... ....|F#3 2F1A ....
....|..|B-8 JF.F ....|B-4 2F9F ....|B-3 2F1F ....
....|..|C-4 AF.A ....|B-1 2F.7 ....|B-1 2F.A ....
....|..|C-4 CF.F ....|R-- .... ....|E-3 2F1F ....
....|..|B-8 JF.A ....|B-4 2F9A ....|B-3 2F1A ....
....|..|B-8 JF.F ....|--- .... ....|B-1 2F.A ....
....|..|C-4 CF.A ....|R-- .... ....|E-3 2F1A ....
....|..|C-4 AF.F ....|B-4 2F97 ....|D#3 2F1F ....
....|..|B-8 JF.A ....|--- .... ....|B-1 2F.7 ....
....|..|C-4 CF.F ....|R-- .... ....|E-3 2F17 ....
....|..|C-4 AF.A ....|--- .... ....|D#3 2F1A ....

[Pattern33]
....|..|C-4 AF.F ....|C#4 2F8F ....|C#3 2F1F ....
 C#4|..|C-4 CF.A ....|C#2 2A.F ....|C#2 2A.F ....
 C#4|..|B-8 JF.F ....|R-- .... ....|C#2 2A.F ....
....|..|C-4 AF.A ....|C#4 2F8A ....|C#3 2F1A ....
....|..|B-8 JF.F ....|C#2 2F.A ....|C#3 2F1F ....
....|..|B-8 JF.A ....|R-- .... ....|C#2 2F.A ....
 C#4|..|B-8 JF.F ....|C#4 2F87 ....|C#2 2A.F ....
....|..|B-8 JF.A ....|C#2 2F.7 ....|C#3 2F1A ....
....|..|C-4 CF.F ....|R-- .... ....|G#3 2F1F ....
....|..|B-8 JF.A ....|--- .... ....|C#2 2F.A ....
 C#4|..|B-8 JF.F ....|--- .... ....|C#2 2A.F ....
....|..|C-4 CF.A ....|--- .... ....|G#3 2F1A ....
 C#4|..|C-4 AF.F ....|--- .... ....|C#2 2A.F ....
....|..|B-8 JF.A ....|--- .... ....|C#2 2F.A ....
....|..|C-4 CF.F ....|--- .... ....|C#3 2F1F ....
 C#4|..|C-4 AF.A ....|--- .... ....|C#2 2A.F ....
 C#4|..|B-8 JF.F ....|--- .... ....|C#2 2A.F ....
....|..|C-4 CF.A ....|--- .... ....|C#3 2F1A ....
....|..|C-4 CF.F ....|--- .... ....|G#3 2F1F ....
....|..|B-8 JF.A ....|--- .... ....|C#2 2F.A ....
 C#4|..|B-8 JF.F ....|C#4 2F8F ....|C#2 2A.F ....
....|..|C-4 CF.A ....|--- .... ....|G#3 2F1A ....
....|..|B-8 JF.F ....|R-- .... ....|C#3 2F1F ....
....|..|B-8 JF.A ....|C#4 2F8A ....|C#2 2F.A ....
....|..|C-4 CF.F ....|--- .... ....|G#3 2F1F ....
....|..|B-8 JF.A ....|R-- .... ....|C#3 2F1A ....
....|..|B-8 JF.F ....|C#4 2F8F ....|C#2 2F.A ....
....|..|C-4 CF.A ....|--- .... ....|G#3 2F1A ....
....|..|C-3 RF.F ....|R-- .... ....|G#3 2F1F ....
....|..|B-8 JF.A ....|C#4 2F8A ....|C#2 2F.7 ....
....|..|C-4 CF.F ....|--- .... ....|G#3 2F17 ....
....|..|C-3 RF.A ....|R-- .... ....|G#3 2F1A ....
....|..|C-4 AF.F ....|A-4 2F9F ....|A-3 2F1F ....
 A-3|..|C-4 CF.A ....|A-1 2A.F ....|A-1 2A.F ....
 A-3|..|B-8 JF.F ....|R-- .... ....|A-1 2A.F ....
....|..|C-4 AF.A ....|A-4 2F9A ....|A-3 2F1A ....
....|..|B-8 JF.F ....|A-1 2F.A ....|A-3 2F1F ....
....|..|B-8 JF.A ....|--- .... ....|A-1 2F.A ....
 A-3|..|B-8 JF.F ....|A-4 2F9F ....|A-1 2A.F ....
....|..|B-8 JF.A ....|A-1 2F.7 ....|A-3 2F1A ....
....|..|C-4 CF.F ....|R-- .... ....|E-3 2F1F ....
....|..|B-8 JF.A ....|A-4 2F9A ....|A-1 2F.A ....
 A-3|..|B-8 JF.F ....|--- .... ....|A-1 2A.F ....
....|..|C-4 CF.A ....|R-- .... ....|E-3 2F1A ....
 B-3|..|C-4 AF.F ....|A-4 2F97 ....|B-1 2A.F ....
....|..|B-8 JF.A ....|--- .... ....|A-1 2F.A ....
....|..|C-4 CF.F ....|R-- .... ....|B-3 2F1F ....
 B-3|..|C-4 AF.A ....|--- .... ....|B-1 2A.F ....
 B-3|..|B-8 JF.F ....|B-4 2F9F ....|B-1 2A.F ....
 B-3|..|C-4 CF.A ....|B-1 2A.F ....|B-3 2F1A ....
....|..|B-8 JF.F ....|--- .... ....|F#3 2F1F ....
....|..|B-8 JF.A ....|B-4 2F9A ....|B-1 2F.A ....
 B-3|..|C-4 AF.F ....|B-1 2F.A ....|B-1 2A.F ....
....|..|B-8 JF.A ....|--- .... ....|F#3 2F1A ....
....|..|B-8 JF.F ....|B-4 2F9F ....|B-3 2F1F ....
....|..|C-4 AF.A ....|B-1 2F.7 ....|B-1 2F.A ....
....|..|C-4 CF.F ....|R-- .... ....|E-3 2F1F ....
....|..|B-8 JF.A ....|B-4 2F9A ....|B-3 2F1A ....
....|..|C-4 AF.F ....|--- .... ....|B-1 2F.A ....
....|..|C-4 CF.A ....|R-- .... ....|E-3 2F1A ....
....|..|C-3 RF.F ....|B-4 2F97 ....|D#3 2F1F ....
....|..|C-4 AF.A ....|--- .... ....|B-1 2F.7 ....
....|..|C-4 CF.F ....|R-- .... ....|E-3 2F17 ....
....|..|C-3 RF.A ....|--- .... ....|D#3 2F1A ....

[Pattern34]
....|..|C-4 AF.F ....|C#4 2F8F ....|C#3 2F1F ....
 C#4|..|C-4 CF.A ....|C#2 2A.F ....|C#2 2A.F ....
 C#4|..|B-8 JF.F ....|--- .... ....|C#2 2A.F ....
....|..|C-4 AF.A ....|C#4 2F8A ....|C#3 2F1A ....
....|..|B-8 JF.F ....|C#2 2F.A ....|C#3 2F1F ....
....|..|B-8 JF.A ....|--- .... ....|C#2 2F.A ....
 C#4|..|B-8 JF.F ....|C#4 2F8F ....|C#2 2A.F ....
....|..|B-8 JF.A ....|C#2 2F.7 ....|C#3 2F1A ....
....|..|C-4 CF.F ....|R-- .... ....|G#3 2F1F ....
....|..|B-8 JF.A ....|C#4 2F8A ....|C#2 2F.A ....
 C#4|..|B-8 JF.F ....|--- .... ....|C#2 2A.F ....
....|..|C-4 CF.A ....|R-- .... ....|G#3 2F1A ....
 C#4|..|C-4 AF.F ....|C#4 2F87 ....|C#2 2A.F ....
....|..|B-8 JF.A ....|--- .... ....|C#2 2F.A ....
....|..|C-4 CF.F ....|R-- .... ....|C#3 2F1F ....
 C#4|..|C-4 AF.A ....|--- .... ....|C#2 2A.F ....
 C#4|..|C-4 BF.F ....|--- .... ....|C#2 2A.F ....
....|..|C-4 CF.A ....|--- .... ....|C#3 2F1A ....
....|..|C-4 CF.F ....|--- .... ....|G#3 2F1F ....
....|..|C-4 BF.A ....|--- .... ....|C#2 2F.A ....
 C#4|..|B-8 JF.F ....|C#4 2F8F ....|C#2 2A.F ....
....|..|C-4 CF.A ....|--- .... ....|G#3 2F1A ....
....|..|C-4 BF.F ....|R-- .... ....|C#3 2F1F ....
....|..|B-8 JF.A ....|C#4 2F8A ....|C#2 2F.A ....
....|..|C-4 CF.F ....|--- .... ....|G#3 2F1F ....
....|..|C-4 BF.A ....|R-- .... ....|C#3 2F1A ....
....|..|B-8 JF.F ....|C#4 2F8F ....|C#2 2F.A ....
....|..|C-4 CF.A ....|--- .... ....|G#3 2F1A ....
....|..|C-3 RF.F ....|R-- .... ....|G#3 2F1F ....
....|..|B-8 JF.A ....|C#4 2F8A ....|C#2 2F.7 ....
....|..|C-4 CF.F ....|--- .... ....|G#3 2F17 ....
....|..|C-3 RF.A ....|R-- .... ....|G#3 2F1A ....
....|..|C-4 AF.F ....|A-4 2F9F ....|A-3 2F1F ....
 A-3|..|C-4 CF.A ....|A-1 2A.F ....|A-1 2A.F ....
 A-3|..|B-8 JF.F ....|R-- .... ....|A-1 2A.F ....
....|..|C-4 AF.A ....|A-4 2F9A ....|A-3 2F1A ....
....|..|B-8 JF.F ....|A-1 2F.A ....|A-3 2F1F ....
....|..|B-8 JF.A ....|--- .... ....|A-1 2F.A ....
 A-3|..|B-8 JF.F ....|A-4 2F9F ....|A-1 2A.F ....
....|..|B-8 JF.A ....|A-1 2F.7 ....|A-3 2F1A ....
....|..|C-4 CF.F ....|R-- .... ....|E-3 2F1F ....
....|..|B-8 JF.A ....|A-4 2F9A ....|A-1 2F.A ....
 A-3|..|B-8 JF.F ....|--- .... ....|A-1 2A.F ....
....|..|C-4 CF.A ....|R-- .... ....|E-3 2F1A ....
 B-3|..|C-4 AF.F ....|A-4 2F97 ....|B-1 2A.F ....
....|..|B-8 JF.A ....|--- .... ....|A-1 2F.A ....
....|..|C-4 CF.F ....|R-- .... ....|B-3 2F1F ....
 B-3|..|C-4 AF.A ....|--- .... ....|B-1 2A.F ....
 B-3|..|B-8 JF.F ....|B-4 2F9F ....|B-1 2A.F ....
 B-3|..|C-4 CF.A ....|B-1 2A.F ....|B-3 2F1A ....
....|..|C-5 VF.F ....|--- .... ....|F#3 2F1F ....
....|..|B-8 JF.A ....|B-4 2F9A ....|B-1 2F.A ....
 B-3|..|C-4 AF.F ....|B-1 2F.A ....|B-1 2A.F ....
....|..|C-5 VF.A ....|--- .... ....|F#3 2F1A ....
....|..|B-8 JF.F ....|B-4 2F9F ....|B-3 2F1F ....
....|..|C-4 AF.A ....|B-1 2F.7 ....|B-1 2F.A ....
....|..|C-4 CF.F ....|R-- .... ....|E-3 2F1F ....
....|..|B-8 JF.A ....|B-4 2F9A ....|B-3 2F1A ....
....|..|B-8 JF.F ....|--- .... ....|B-1 2F.A ....
....|..|C-4 CF.A ....|R-- .... ....|E-3 2F1A ....
....|..|C-4 AF.F ....|B-4 2F97 ....|D#3 2F1F ....
....|..|B-8 JF.A ....|--- .... ....|B-1 2F.7 ....
....|..|C-4 CF.F ....|R-- .... ....|E-3 2F17 ....
....|..|C-4 AF.A ....|--- .... ....|D#3 2F1A ....

[Pattern35]
....|..|C-4 AF.F ....|C#4 2F8F ....|C#3 2F1F ....
 C#4|..|C-4 CF.A ....|C#2 2A.F ....|C#2 2A.F ....
 C#4|..|B-8 JF.F ....|R-- .... ....|C#2 2A.F ....
....|..|C-4 AF.A ....|C#4 2F8A ....|C#3 2F1A ....
....|..|B-8 JF.F ....|C#2 2F.A ....|C#3 2F1F ....
....|..|B-8 JF.A ....|R-- .... ....|C#2 2F.A ....
 C#4|..|B-8 JF.F ....|C#4 2F87 ....|C#2 2A.F ....
....|..|B-8 JF.A ....|C#2 2F.7 ....|C#3 2F1A ....
....|..|C-4 CF.F ....|R-- .... ....|G#3 2F1F ....
....|..|B-8 JF.A ....|--- .... ....|C#2 2F.A ....
 C#4|..|B-8 JF.F ....|--- .... ....|C#2 2A.F ....
....|..|C-4 CF.A ....|--- .... ....|G#3 2F1A ....
 C#4|..|C-4 AF.F ....|--- .... ....|C#2 2A.F ....
....|..|B-8 JF.A ....|--- .... ....|C#2 2F.A ....
....|..|C-4 CF.F ....|--- .... ....|C#3 2F1F ....
 C#4|..|C-4 AF.A ....|--- .... ....|C#2 2A.F ....
 C#4|..|B-8 JF.F ....|--- .... ....|C#2 2A.F ....
....|..|C-4 CF.A ....|--- .... ....|C#3 2F1A ....
....|..|C-4 CF.F ....|--- .... ....|G#3 2F1F ....
....|..|B-8 JF.A ....|--- .... ....|C#2 2F.A ....
 C#4|..|B-8 JF.F ....|C#4 2F8F ....|C#2 2A.F ....
....|..|C-4 CF.A ....|--- .... ....|G#3 2F1A ....
....|..|B-8 JF.F ....|R-- .... ....|C#3 2F1F ....
....|..|B-8 JF.A ....|C#4 2F8A ....|C#2 2F.A ....
....|..|C-4 CF.F ....|--- .... ....|G#3 2F1F ....
....|..|B-8 JF.A ....|R-- .... ....|C#3 2F1A ....
....|..|B-8 JF.F ....|C#4 2F8F ....|C#2 2F.A ....
....|..|C-4 CF.A ....|--- .... ....|G#3 2F1A ....
....|..|C-3 RF.F ....|R-- .... ....|G#3 2F1F ....
....|..|B-8 JF.A ....|C#4 2F8A ....|C#2 2F.7 ....
....|..|C-4 CF.F ....|--- .... ....|G#3 2F17 ....
....|..|C-3 RF.A ....|R-- .... ....|G#3 2F1A ....
....|..|C-4 AF.F ....|A-4 2F9F ....|A-3 2F1F ....
 A-3|..|C-4 CF.A ....|A-1 2A.F ....|A-1 2A.F ....
 A-3|..|B-8 JF.F ....|R-- .... ....|A-1 2A.F ....
....|..|C-4 AF.A ....|A-4 2F9A ....|A-3 2F1A ....
....|..|B-8 JF.F ....|A-1 2F.A ....|A-3 2F1F ....
....|..|B-8 JF.A ....|--- .... ....|A-1 2F.A ....
 A-3|..|B-8 JF.F ....|A-4 2F9F ....|A-1 2A.F ....
....|..|B-8 JF.A ....|A-1 2F.7 ....|A-3 2F1A ....
....|..|C-4 CF.F ....|R-- .... ....|E-3 2F1F ....
....|..|B-8 JF.A ....|A-4 2F9A ....|A-1 2F.A ....
 A-3|..|B-8 JF.F ....|--- .... ....|A-1 2A.F ....
....|..|C-4 CF.A ....|R-- .... ....|E-3 2F1A ....
 B-3|..|C-4 AF.F ....|A-4 2F97 ....|B-1 2A.F ....
....|..|B-8 JF.A ....|--- .... ....|A-1 2F.A ....
....|..|C-4 CF.F ....|R-- .... ....|B-3 2F1F ....
 B-3|..|C-4 AF.A ....|--- .... ....|B-1 2A.F ....
 B-3|..|B-8 JF.F ....|B-4 2F9F ....|B-1 2A.F ....
 B-3|..|C-4 CF.A ....|B-1 2A.F ....|B-3 2F1A ....
....|..|B-8 JF.F ....|--- .... ....|F#3 2F1F ....
....|..|B-8 JF.A ....|B-4 2F9A ....|B-1 2F.A ....
 B-3|..|C-4 AF.F ....|B-1 2F.A ....|B-1 2A.F ....
....|..|B-8 JF.A ....|--- .... ....|F#3 2F1A ....
....|..|B-8 JF.F ....|B-4 2F9F ....|B-3 2F1F ....
....|..|C-4 AF.A ....|B-1 2F.7 ....|B-1 2F.A ....
....|..|C-4 CF.F ....|R-- .... ....|E-3 2F1F ....
....|..|B-8 JF.A ....|B-4 2F9A ....|B-3 2F1A ....
....|..|C-4 AF.F ....|--- .... ....|B-1 2F.A ....
....|..|C-4 CF.A ....|R-- .... ....|E-3 2F1A ....
....|..|C-4 AF.F ....|B-4 2F97 ....|D#3 2F1F ....
....|..|C-4 AF.A ....|--- .... ....|B-1 2F.7 ....
....|..|C-4 AF.F ....|R-- .... ....|E-3 2F17 ....
....|..|C-4 AF.A ....|--- .... ....|D#3 2F1A ....

[Pattern40]
 C#4|..|C-4 LF.F ....|C#2 2A.F ....|C#4 2F1A ....
....|..|C-4 AF.A ....|--- .... ....|--- .... ....
....|..|C-4 LF.F ....|C#4 2F17 ....|C#4 2F17 ....
....|..|C-4 LF.A ....|C#2 2F.A ....|C#4 2F17 ....
....|..|C-4 LF.F ....|C#4 2F1F ....|C#4 2F1F ....
....|..|C-4 LF.A ....|C#4 2F1F ....|C#4 2F1F ....
....|..|C-4 LF.F ....|C#2 2F.7 ....|--- .... ....
....|..|C-4 LF.A ....|C#4 2F1A ....|C#4 2F1A ....
....|..|C-4 CF.F ....|C#4 2F1A ....|C#4 2F1A ....
....|..|C-4 LF.A ....|--- .... ....|--- .... ....
....|..|C-4 LF.F ....|C#4 2F17 ....|C#4 2F17 ....
....|..|C-4 CF.A ....|C#4 2F17 ....|C#4 2F17 ....
....|..|C-4 LF.F ....|B-3 2F1F ....|B-3 2F1F ....
....|..|C-4 LF.A ....|B-3 2F1F ....|B-3 2F1F ....
....|..|C-4 CF.F ....|R-- .... ....|R-- .... ....
....|..|C-4 LF.A ....|B-3 2F1A ....|B-3 2F1A ....
....|..|C-4 BF.F ....|B-3 2F1A ....|B-3 2F1A ....
....|..|C-4 CF.A ....|R-- .... ....|R-- .... ....
....|..|C-4 CF.F ....|B-3 2F17 ....|B-3 2F17 ....
....|..|C-4 BF.A ....|B-3 2F17 ....|B-3 2F17 ....
....|..|C-4 CF.7 ....|C#4 2F1F ....|C#4 2F1F ....
....|..|C-4 CF.A ....|C#4 2F1F ....|C#4 2F1F ....
....|..|C-4 BF.F ....|R-- .... ....|R-- .... ....
....|..|R-- .... ....|C#4 2F1A ....|C#4 2F1A ....
....|..|C-4 CF.F ....|C#4 2F1A ....|C#4 2F1A ....
....|..|C-4 BF.A ....|R-- .... ....|R-- .... ....
....|..|C-4 LF.F ....|C#4 2F17 ....|C#4 2F17 ....
....|..|C-4 CF.A ....|C#4 2F17 ....|C#4 2F17 ....
....|..|C-4 LF.F ....|B-3 2F1F ....|B-3 2F1F ....
....|..|C-4 LF.A ....|B-3 2F1F ....|B-3 2F1F ....
....|..|C-4 CF.F ....|R-- .... ....|R-- .... ....
....|..|C-4 LF.A ....|B-3 2F1A ....|B-3 2F1A ....
....|..|C-4 LF.F ....|B-3 2F1A ....|B-3 2F1A ....
....|..|C-4 CF.A ....|R-- .... ....|R-- .... ....
....|..|C-4 LF.F ....|B-3 2F17 ....|B-3 2F17 ....
....|..|C-4 LF.A ....|B-3 2F17 ....|B-3 2F17 ....
....|..|C-4 LF.F ....|C#4 2F1F ....|C#4 2F1F ....
....|..|C-4 LF.A ....|C#4 2F1F ....|C#4 2F1F ....
....|..|C-4 LF.F ....|R-- .... ....|R-- .... ....
....|..|C-4 LF.A ....|C#4 2F1A ....|C#4 2F1A ....
....|..|C-4 CF.F ....|C#4 2F1A ....|C#4 2F1A ....
....|..|C-4 LF.A ....|R-- .... ....|R-- .... ....
....|..|C-4 LF.F ....|C#4 2F17 ....|C#4 2F17 ....
....|..|C-4 CF.A ....|C#4 2F17 ....|C#4 2F17 ....
....|..|C-4 LF.F ....|E-4 2F1F ....|E-4 2F1F ....
....|..|C-4 LF.A ....|E-4 2F1F ....|E-4 2F1F ....
....|..|C-4 CF.F ....|R-- .... ....|R-- .... ....
....|..|C-4 LF.A ....|E-4 2F1A ....|E-4 2F1A ....
....|..|C-4 LF.7 ....|E-4 2F1A ....|E-4 2F1A ....
....|..|C-4 CF.A ....|R-- .... ....|R-- .... ....
....|..|C-4 LF.F ....|E-4 2F17 ....|E-4 2F17 ....
....|..|R-- .... ....|E-4 2F17 ....|E-4 2F17 ....
....|..|C-4 CF.7 ....|D#4 2F1F ....|D#4 2F1F ....
....|..|C-4 LF.A ....|D#4 2F1F ....|D#4 2F1F ....
....|..|C-4 LF.F ....|R-- .... ....|R-- .... ....
....|..|R-- .... ....|D#4 2F1A ....|D#4 2F1A ....
....|..|C-4 CF.F ....|D#4 2F1A ....|D#4 2F1A ....
....|..|C-4 LF.A ....|R-- .... ....|R-- .... ....
....|..|C-4 LF.F ....|D#4 2F17 ....|D#4 2F17 ....
....|..|C-4 CF.A ....|D#4 2F17 ....|D#4 2F17 ....
....|..|C-4 LF.F ....|C#4 2F1F ....|C#4 2F1F ....
....|..|C-4 LF.A ....|C#4 2F1F ....|C#4 2F1F ....
....|..|C-4 CF.F ....|R-- .... ....|R-- .... ....
....|..|C-4 LF.A ....|C#4 2F1A ....|C#4 2F1A ....

[Pattern41]
 A-3|..|C-4 LF.F ....|A-1 2A.F ....|C#4 2F1A ....
....|..|C-4 CF.A ....|R-- .... ....|R-- .... ....
....|..|C-4 LF.F ....|C#4 2F17 ....|C#4 2F17 ....
....|..|C-4 LF.A ....|A-1 2F.A ....|C#4 2F17 ....
....|..|C-4 LF.F ....|C#4 2F1F ....|C#4 2F1F ....
....|..|C-4 LF.A ....|C#4 2F1F ....|C#4 2F1F ....
....|..|C-4 LF.F ....|A-1 2F.7 ....|R-- .... ....
....|..|C-4 LF.A ....|C#4 2F1A ....|C#4 2F1A ....
....|..|C-4 CF.F ....|C#4 2F1A ....|C#4 2F1A ....
....|..|C-4 LF.A ....|R-- .... ....|R-- .... ....
....|..|C-4 LF.F ....|C#4 2F17 ....|C#4 2F17 ....
....|..|C-4 CF.A ....|C#4 2F17 ....|C#4 2F17 ....
....|..|C-4 LF.F ....|B-3 2F1F ....|B-3 2F1F ....
....|..|C-4 LF.A ....|B-3 2F1F ....|B-3 2F1F ....
....|..|C-4 CF.F ....|R-- .... ....|R-- .... ....
....|..|C-4 LF.A ....|B-3 2F1A ....|B-3 2F1A ....
....|..|C-4 LF.7 ....|B-3 2F1A ....|B-3 2F1A ....
....|..|C-4 CF.A ....|R-- .... ....|R-- .... ....
....|..|C-4 CF.F ....|B-3 2F17 ....|B-3 2F17 ....
....|..|R-- .... ....|B-3 2F17 ....|B-3 2F17 ....
....|..|C-4 CF.7 ....|C#4 2F1F ....|C#4 2F1F ....
....|..|C-4 CF.A ....|C#4 2F1F ....|C#4 2F1F ....
....|..|C-4 LF.F ....|R-- .... ....|R-- .... ....
....|..|R-- .... ....|C#4 2F1A ....|C#4 2F1A ....
....|..|C-4 CF.F ....|C#4 2F1A ....|C#4 2F1A ....
....|..|C-4 LF.A ....|R-- .... ....|R-- .... ....
....|..|C-4 LF.F ....|C#4 2F17 ....|C#4 2F17 ....
....|..|C-4 CF.A ....|C#4 2F17 ....|C#4 2F17 ....
....|..|C-4 LF.F ....|B-3 2F1F ....|B-3 2F1F ....
....|..|C-4 LF.A ....|B-3 2F1F ....|B-3 2F1F ....
....|..|C-4 CF.F ....|R-- .... ....|R-- .... ....
....|..|C-4 LF.A ....|B-3 2F1A ....|B-3 2F1A ....
....|..|C-4 LF.F ....|B-3 2F1A ....|B-3 2F1A ....
....|..|C-4 CF.A ....|R-- .... ....|R-- .... ....
....|..|C-4 LF.F ....|B-3 2F17 ....|B-3 2F17 ....
....|..|C-4 LF.A ....|B-3 2F17 ....|B-3 2F17 ....
....|..|C-4 LF.F ....|C#4 2F1F ....|C#4 2F1F ....
....|..|C-4 LF.A ....|C#4 2F1F ....|C#4 2F1F ....
....|..|C-4 LF.F ....|R-- .... ....|R-- .... ....
....|..|C-4 LF.A ....|C#4 2F1A ....|C#4 2F1A ....
....|..|C-4 CF.F ....|C#4 2F1A ....|C#4 2F1A ....
....|..|C-4 LF.A ....|R-- .... ....|R-- .... ....
....|..|C-4 LF.F ....|C#4 2F17 ....|C#4 2F17 ....
....|..|C-4 CF.A ....|C#4 2F17 ....|C#4 2F17 ....
....|..|C-4 LF.F ....|E-4 2F1F ....|E-4 2F1F ....
....|..|C-4 LF.A ....|E-4 2F1F ....|E-4 2F1F ....
....|..|C-4 CF.F ....|R-- .... ....|R-- .... ....
....|..|C-4 LF.A ....|E-4 2F1A ....|E-4 2F1A ....
....|..|C-4 LF.7 ....|E-4 2F1A ....|E-4 2F1A ....
....|..|C-4 CF.A ....|R-- .... ....|R-- .... ....
....|..|C-4 LF.F ....|E-4 2F17 ....|E-4 2F17 ....
....|..|R-- .... ....|E-4 2F17 ....|E-4 2F17 ....
....|..|C-4 CF.7 ....|D#4 2F1F ....|D#4 2F1F ....
....|..|C-4 LF.A ....|D#4 2F1F ....|D#4 2F1F ....
....|..|C-4 LF.F ....|R-- .... ....|R-- .... ....
....|..|R-- .... ....|D#4 2F1A ....|D#4 2F1A ....
....|..|C-4 CF.F ....|D#4 2F1A ....|D#4 2F1A ....
....|..|C-4 LF.A ....|R-- .... ....|R-- .... ....
....|..|C-4 LF.F ....|D#4 2F17 ....|D#4 2F17 ....
....|..|C-4 CF.A ....|D#4 2F17 ....|D#4 2F17 ....
....|..|C-4 LF.F ....|C#4 2F1F ....|C#4 2F1F ....
....|..|C-4 LF.A ....|C#4 2F1F ....|C#4 2F1F ....
....|..|C-4 CF.F ....|R-- .... ....|R-- .... ....
....|..|C-4 LF.A ....|C#4 2F1A ....|C#4 2F1A ....

[Pattern42]
 C#4|..|C-4 LF.F ....|C#2 2A.F ....|C#4 2F1A ....
....|..|C-4 CF.A ....|R-- .... ....|R-- .... ....
....|..|C-4 LF.F ....|C#4 2F17 ....|C#4 2F17 ....
....|..|C-4 LF.A ....|C#2 2F.A ....|C#4 2F17 ....
....|..|C-4 LF.F ....|C#4 2F1F ....|C#4 2F1F ....
....|..|C-4 LF.A ....|C#4 2F1F ....|C#4 2F1F ....
....|..|C-4 LF.F ....|C#2 2F.7 ....|R-- .... ....
....|..|C-4 LF.A ....|C#4 2F1A ....|C#4 2F1A ....
....|..|C-4 CF.F ....|C#4 2F1A ....|C#4 2F1A ....
....|..|C-4 LF.A ....|R-- .... ....|R-- .... ....
....|..|C-4 LF.F ....|C#4 2F17 ....|C#4 2F17 ....
....|..|C-4 CF.A ....|C#4 2F17 ....|C#4 2F17 ....
....|..|C-4 LF.F ....|B-3 2F1F ....|B-3 2F1F ....
....|..|C-4 LF.A ....|B-3 2F1F ....|B-3 2F1F ....
....|..|C-4 CF.F ....|R-- .... ....|R-- .... ....
....|..|C-4 LF.A ....|B-3 2F1A ....|B-3 2F1A ....
....|..|C-4 BF.F ....|B-3 2F1A ....|B-3 2F1A ....
....|..|C-4 CF.A ....|R-- .... ....|R-- .... ....
....|..|C-4 CF.F ....|B-3 2F17 ....|B-3 2F17 ....
....|..|C-4 BF.A ....|B-3 2F17 ....|B-3 2F17 ....
....|..|C-4 CF.7 ....|C#4 2F1F ....|C#4 2F1F ....
....|..|C-4 CF.A ....|C#4 2F1F ....|C#4 2F1F ....
....|..|C-4 BF.F ....|R-- .... ....|R-- .... ....
....|..|R-- .... ....|C#4 2F1A ....|C#4 2F1A ....
....|..|C-4 CF.F ....|C#4 2F1A ....|C#4 2F1A ....
....|..|C-4 BF.A ....|R-- .... ....|R-- .... ....
....|..|C-4 LF.F ....|C#4 2F17 ....|C#4 2F17 ....
....|..|C-4 CF.A ....|C#4 2F17 ....|C#4 2F17 ....
....|..|C-4 LF.F ....|B-3 2F1F ....|B-3 2F1F ....
....|..|C-4 LF.A ....|B-3 2F1F ....|B-3 2F1F ....
....|..|C-4 CF.F ....|R-- .... ....|R-- .... ....
....|..|C-4 LF.A ....|B-3 2F1A ....|B-3 2F1A ....
....|..|C-4 LF.F ....|B-3 2F1A ....|B-3 2F1A ....
....|..|C-4 CF.A ....|R-- .... ....|R-- .... ....
....|..|C-4 LF.F ....|B-3 2F17 ....|B-3 2F17 ....
....|..|C-4 LF.A ....|B-3 2F17 ....|B-3 2F17 ....
....|..|C-4 LF.F ....|C#4 2F1F ....|C#4 2F1F ....
....|..|C-4 LF.A ....|C#4 2F1F ....|C#4 2F1F ....
....|..|C-4 LF.F ....|R-- .... ....|R-- .... ....
....|..|C-4 LF.A ....|C#4 2F1A ....|C#4 2F1A ....
....|..|C-4 CF.F ....|C#4 2F1A ....|C#4 2F1A ....
....|..|C-4 LF.A ....|R-- .... ....|R-- .... ....
....|..|C-4 LF.F ....|C#4 2F17 ....|C#4 2F17 ....
....|..|C-4 CF.A ....|C#4 2F17 ....|C#4 2F17 ....
....|..|C-4 LF.F ....|E-4 2F1F ....|E-4 2F1F ....
....|..|C-4 LF.A ....|E-4 2F1F ....|E-4 2F1F ....
....|..|C-4 CF.F ....|R-- .... ....|R-- .... ....
....|..|C-4 LF.A ....|E-4 2F1A ....|E-4 2F1A ....
....|..|C-4 LF.7 ....|E-4 2F1A ....|E-4 2F1A ....
....|..|C-4 CF.A ....|R-- .... ....|R-- .... ....
....|..|C-4 LF.F ....|E-4 2F17 ....|E-4 2F17 ....
....|..|R-- .... ....|E-4 2F17 ....|E-4 2F17 ....
....|..|C-4 CF.7 ....|D#4 2F1F ....|D#4 2F1F ....
....|..|C-4 LF.A ....|D#4 2F1F ....|D#4 2F1F ....
....|..|C-4 LF.F ....|R-- .... ....|R-- .... ....
....|..|R-- .... ....|D#4 2F1A ....|D#4 2F1A ....
....|..|C-4 CF.F ....|D#4 2F1A ....|D#4 2F1A ....
....|..|C-4 LF.A ....|R-- .... ....|R-- .... ....
....|..|C-4 LF.F ....|D#4 2F17 ....|D#4 2F17 ....
....|..|C-4 CF.A ....|D#4 2F17 ....|D#4 2F17 ....
....|..|C-4 LF.F ....|C#4 2F1F ....|C#4 2F1F ....
....|..|C-4 LF.A ....|C#4 2F1F ....|C#4 2F1F ....
....|..|C-4 CF.F ....|R-- .... ....|R-- .... ....
....|..|C-4 LF.A ....|C#4 2F1A ....|C#4 2F1A ....

[Pattern43]
 A-3|..|C-4 LF.F ....|A-1 2A.F ....|C#4 2F1A ....
....|..|C-4 CF.A ....|R-- .... ....|R-- .... ....
....|..|C-4 LF.F ....|C#4 2F17 ....|C#4 2F17 ....
....|..|C-4 LF.A ....|A-1 2F.A ....|C#4 2F17 ....
....|..|C-4 LF.F ....|C#4 2F1F ....|C#4 2F1F ....
....|..|C-4 LF.A ....|C#4 2F1F ....|C#4 2F1F ....
....|..|C-4 LF.F ....|A-1 2F.7 ....|R-- .... ....
....|..|C-4 LF.A ....|C#4 2F1A ....|C#4 2F1A ....
....|..|C-4 CF.F ....|C#4 2F1A ....|C#4 2F1A ....
....|..|C-4 LF.A ....|R-- .... ....|R-- .... ....
....|..|C-4 LF.F ....|C#4 2F17 ....|C#4 2F17 ....
....|..|C-4 CF.A ....|C#4 2F17 ....|C#4 2F17 ....
....|..|C-4 LF.F ....|B-3 2F1F ....|B-3 2F1F ....
....|..|C-4 LF.A ....|B-3 2F1F ....|B-3 2F1F ....
....|..|C-4 CF.F ....|R-- .... ....|R-- .... ....
....|..|C-4 LF.A ....|B-3 2F1A ....|B-3 2F1A ....
....|..|C-4 LF.7 ....|B-3 2F1A ....|B-3 2F1A ....
....|..|C-4 CF.A ....|R-- .... ....|R-- .... ....
....|..|C-4 CF.F ....|B-3 2F17 ....|B-3 2F17 ....
....|..|R-- .... ....|B-3 2F17 ....|B-3 2F17 ....
....|..|C-4 CF.7 ....|C#4 2F1F ....|C#4 2F1F ....
....|..|C-4 CF.A ....|C#4 2F1F ....|C#4 2F1F ....
....|..|C-4 LF.F ....|R-- .... ....|R-- .... ....
....|..|R-- .... ....|C#4 2F1A ....|C#4 2F1A ....
....|..|C-4 CF.F ....|C#4 2F1A ....|C#4 2F1A ....
....|..|C-4 LF.A ....|R-- .... ....|R-- .... ....
....|..|C-4 LF.F ....|C#4 2F17 ....|C#4 2F17 ....
....|..|C-4 CF.A ....|C#4 2F17 ....|C#4 2F17 ....
....|..|C-4 LF.F ....|B-3 2F1F ....|B-3 2F1F ....
....|..|C-4 LF.A ....|B-3 2F1F ....|B-3 2F1F ....
....|..|C-4 CF.F ....|R-- .... ....|R-- .... ....
....|..|C-4 LF.A ....|B-3 2F1A ....|B-3 2F1A ....
....|..|C-4 LF.F ....|B-3 2F1A ....|B-3 2F1A ....
....|..|C-4 CF.A ....|R-- .... ....|R-- .... ....
....|..|C-4 LF.F ....|B-3 2F17 ....|B-3 2F17 ....
....|..|C-4 LF.A ....|B-3 2F17 ....|B-3 2F17 ....
....|..|C-4 LF.F ....|C#4 2F1F ....|C#4 2F1F ....
....|..|C-4 LF.A ....|C#4 2F1F ....|C#4 2F1F ....
....|..|C-4 LF.F ....|R-- .... ....|R-- .... ....
....|..|C-4 LF.A ....|C#4 2F1A ....|C#4 2F1A ....
....|..|C-4 CF.F ....|C#4 2F1A ....|C#4 2F1A ....
....|..|C-4 LF.A ....|R-- .... ....|R-- .... ....
....|..|C-4 LF.F ....|C#4 2F17 ....|C#4 2F17 ....
....|..|C-4 CF.A ....|C#4 2F17 ....|C#4 2F17 ....
....|..|C-4 LF.F ....|F#4 2F1F ....|F#4 2F1F ....
....|..|C-4 LF.A ....|F#4 2F1F ....|F#4 2F1F ....
....|..|C-4 CF.F ....|R-- .... ....|R-- .... ....
....|..|C-4 LF.A ....|F#4 2F1A ....|F#4 2F1A ....
....|..|C-4 LF.7 ....|F#4 2F1A ....|F#4 2F1A ....
....|..|C-4 CF.A ....|R-- .... ....|R-- .... ....
....|..|C-4 LF.F ....|F#4 2F17 ....|F#4 2F17 ....
....|..|R-- .... ....|F#4 2F17 ....|F#4 2F17 ....
....|..|C-4 CF.7 ....|E-4 2F1F ....|E-4 2F1F ....
....|..|C-4 LF.A ....|E-4 2F1F ....|E-4 2F1F ....
....|..|C-4 LF.F ....|R-- .... ....|R-- .... ....
....|..|R-- .... ....|E-4 2F1A ....|E-4 2F1A ....
....|..|C-4 CF.F ....|E-4 2F1A ....|E-4 2F1A ....
....|..|C-4 LF.A ....|R-- .... ....|R-- .... ....
....|..|C-4 AF.F ....|E-4 2F17 ....|E-4 2F17 ....
....|..|C-4 CF.A ....|E-4 2F17 ....|E-4 2F17 ....
....|..|C-4 AF.F ....|C#4 2F1F ....|C#4 2F1F ....
....|..|C-4 AF.A ....|C#4 2F1F ....|C#4 2F1F ....
....|..|C-4 AF.F ....|R-- .... ....|R-- .... ....
....|..|C-4 AF.A ....|C#4 2F1A ....|C#4 2F1A ....

[Pattern44]
 C#4|..|C-4 AF.F ....|C#2 2A.F ....|C#2 2A.F ....
....|..|C-4 AF.A ....|R-- .... ....|R-- .... ....
 C#4|..|B-8 JF.F ....|C#4 2F17 ....|C#2 2A.F ....
....|..|C-4 AF.A ....|C#2 2F.A ....|C#2 2F.A ....
 C#4|..|B-8 JF.F ....|--- .... ....|C#2 2A.F ....
....|..|B-8 JF.A ....|R-- .... ....|C#2 2F.A ....
 C#4|..|B-8 JF.F ....|C#2 2F.7 ....|C#2 2A.F ....
....|..|B-8 JF.A ....|--- .... ....|C#2 2F.A ....
....|..|C-4 CF.F ....|R-- .... ....|C#2 2F.7 ....
....|..|B-8 JF.A ....|R-- .... ....|C#2 2F.A ....
 C#4|..|B-8 JF.F ....|--- .... ....|C#2 2A.F ....
....|..|C-4 CF.A ....|--- .... ....|R-- .... ....
 C#4|..|C-4 AF.F ....|--- .... ....|C#2 2A.F ....
....|..|B-8 JF.A ....|--- .... ....|C#2 2F.A ....
 C#4|..|C-4 CF.F ....|--- .... ....|C#2 2A.F ....
....|..|C-4 AF.A ....|--- .... ....|C#2 2F.A ....
 C#4|..|C-4 BF.F ....|--- .... ....|C#2 2A.F ....
....|..|C-4 CF.A ....|--- .... ....|C#2 2F.A ....
 C#4|..|C-4 CF.F ....|--- .... ....|C#2 2A.F ....
....|..|C-4 BF.A ....|--- .... ....|C#2 2F.A ....
 C#4|..|B-8 JF.F ....|--- .... ....|C#2 2A.F ....
....|..|C-4 CF.A ....|--- .... ....|C#2 2F.A ....
 C#4|..|C-4 BF.F ....|--- .... ....|C#2 2A.F ....
....|..|B-8 JF.A ....|--- .... ....|C#2 2F.A ....
....|..|C-4 CF.F ....|--- .... ....|C#2 2F.7 ....
....|..|C-4 BF.A ....|--- .... ....|C#2 2F.A ....
....|..|B-8 JF.F ....|--- .... ....|C#2 2F.7 ....
....|..|C-4 CF.A ....|--- .... ....|R-- .... ....
....|..|C-3 RF.F ....|--- .... ....|C#2 2F.7 ....
....|..|B-8 JF.A ....|--- .... ....|--- .... ....
....|..|C-4 CF.F ....|--- .... ....|R-- .... ....
....|..|C-3 RF.A ....|--- .... ....|--- .... ....
 C#4|..|C-4 AF.F ....|--- .... ....|C#2 2A.F ....
....|..|C-4 CF.A ....|--- .... ....|--- .... ....
 C#4|..|B-8 JF.F ....|--- .... ....|C#2 2A.F ....
....|..|C-4 AF.A ....|--- .... ....|C#2 2F.A ....
 C#4|..|B-8 JF.F ....|--- .... ....|C#2 2A.F ....
....|..|B-8 JF.A ....|--- .... ....|C#2 2F.A ....
 C#4|..|B-8 JF.F ....|--- .... ....|C#2 2A.F ....
....|..|B-8 JF.A ....|--- .... ....|C#2 2F.A ....
....|..|C-4 CF.F ....|--- .... ....|C#2 2F.7 ....
....|..|B-8 JF.A ....|--- .... ....|C#2 2F.A ....
 C#4|..|B-8 JF.F ....|--- .... ....|C#2 2A.F ....
....|..|C-4 CF.A ....|--- .... ....|R-- .... ....
 C#4|..|C-4 AF.F ....|--- .... ....|C#2 2A.F ....
....|..|B-8 JF.A ....|--- .... ....|C#2 2F.A ....
 C#4|..|C-4 CF.F ....|--- .... ....|C#2 2A.F ....
....|..|C-4 AF.A ....|--- .... ....|C#2 2F.A ....
 C#4|..|B-8 JF.F ....|--- .... ....|C#2 2A.F ....
....|..|C-4 CF.A ....|--- .... ....|C#2 2F.A ....
 C#4|..|C-5 VF.F ....|--- .... ....|C#2 2A.F ....
....|..|B-8 JF.A ....|--- .... ....|C#2 2F.A ....
 C#4|..|C-4 AF.F ....|--- .... ....|C#2 2A.F ....
....|..|C-5 VF.A ....|--- .... ....|C#2 2F.A ....
 C#4|..|B-8 JF.F ....|--- .... ....|C#2 2A.F ....
....|..|C-4 AF.A ....|--- .... ....|C#2 2F.A ....
....|..|C-4 CF.F ....|--- .... ....|C#2 2F.7 ....
....|..|B-8 JF.A ....|--- .... ....|C#2 2F.A ....
....|..|B-8 JF.F ....|--- .... ....|C#2 2F.7 ....
....|..|C-4 CF.A ....|--- .... ....|R-- .... ....
....|..|C-4 AF.F ....|--- .... ....|C#2 2F.7 ....
....|..|B-8 JF.A ....|--- .... ....|--- .... ....
....|..|C-4 CF.F ....|--- .... ....|R-- .... ....
....|..|C-4 AF.A ....|--- .... ....|--- .... ....

[Pattern46]
 C#4|..|C-4 AF.F ....|C#2 2A.F ....|C#2 2A.F ....
....|..|C-4 CF.A ....|--- .... ....|--- .... ....
 C#4|..|B-8 JF.F ....|--- .... ....|C#2 2A.F ....
....|..|C-4 AF.A ....|C#2 2F.A ....|C#2 2F.A ....
 C#4|..|B-8 JF.F ....|--- .... ....|C#2 2A.F ....
....|..|B-8 JF.A ....|--- .... ....|C#2 2F.A ....
 C#4|..|B-8 JF.F ....|C#2 2F.7 ....|C#2 2A.F ....
....|..|B-8 JF.A ....|--- .... ....|C#2 2F.A ....
....|..|C-4 CF.F ....|--- .... ....|C#2 2F.7 ....
....|..|B-8 JF.A ....|--- .... ....|C#2 2F.A ....
 C#4|..|B-8 JF.F ....|--- .... ....|C#2 2A.F ....
....|..|C-4 CF.A ....|--- .... ....|R-- .... ....
 C#4|..|C-4 AF.F ....|--- .... ....|C#2 2A.F ....
....|..|B-8 JF.A ....|--- .... ....|C#2 2F.A ....
 C#4|..|C-4 CF.F ....|--- .... ....|C#2 2A.F ....
....|..|C-4 AF.A ....|--- .... ....|C#2 2F.A ....
 C#4|..|C-4 BF.F ....|--- .... ....|C#2 2A.F ....
....|..|C-4 CF.A ....|--- .... ....|C#2 2F.A ....
 C#4|..|C-4 CF.F ....|--- .... ....|C#2 2A.F ....
....|..|C-4 BF.A ....|--- .... ....|C#2 2F.A ....
 C#4|..|B-8 JF.F ....|--- .... ....|C#2 2A.F ....
....|..|C-4 CF.A ....|--- .... ....|C#2 2F.A ....
 C#4|..|C-4 BF.F ....|--- .... ....|C#2 2A.F ....
....|..|B-8 JF.A ....|--- .... ....|C#2 2F.A ....
....|..|C-4 CF.F ....|--- .... ....|C#2 2F.7 ....
....|..|C-4 BF.A ....|--- .... ....|C#2 2F.A ....
....|..|B-8 JF.F ....|--- .... ....|C#2 2F.7 ....
....|..|C-4 CF.A ....|--- .... ....|R-- .... ....
....|..|C-3 RF.F ....|--- .... ....|C#2 2F.7 ....
....|..|B-8 JF.A ....|--- .... ....|--- .... ....
....|..|C-4 CF.F ....|--- .... ....|R-- .... ....
....|..|C-3 RF.A ....|--- .... ....|--- .... ....
 A-3|..|C-4 AF.F ....|A-1 2A.F ....|A-1 2A.F ....
....|..|C-4 CF.A ....|--- .... ....|--- .... ....
 A-3|..|B-8 JF.F ....|--- .... ....|A-1 2A.F ....
....|..|C-4 AF.A ....|A-1 2F.A ....|A-1 2F.A ....
 A-3|..|B-8 JF.F ....|--- .... ....|A-1 2A.F ....
....|..|B-8 JF.A ....|--- .... ....|A-1 2F.A ....
 A-3|..|B-8 JF.F ....|A-1 2F.7 ....|A-1 2A.F ....
....|..|B-8 JF.A ....|--- .... ....|A-1 2F.A ....
....|..|C-4 CF.F ....|--- .... ....|A-1 2F.7 ....
....|..|B-8 JF.A ....|--- .... ....|A-1 2F.A ....
 A-3|..|B-8 JF.F ....|--- .... ....|A-1 2A.F ....
....|..|C-4 CF.A ....|--- .... ....|R-- .... ....
 A-3|..|C-4 AF.F ....|--- .... ....|A-1 2A.F ....
....|..|B-8 JF.A ....|--- .... ....|A-1 2F.A ....
 A-3|..|C-4 CF.F ....|--- .... ....|A-1 2A.F ....
....|..|C-4 AF.A ....|--- .... ....|A-1 2F.A ....
 B-3|..|B-8 JF.F ....|B-1 2A.F ....|B-1 2A.F ....
....|..|C-4 CF.A ....|--- .... ....|A-1 2F.A ....
 B-3|..|C-5 VF.F ....|--- .... ....|B-1 2A.F ....
....|..|B-8 JF.A ....|B-1 2F.A ....|B-1 2F.A ....
 B-3|..|C-4 AF.F ....|--- .... ....|B-1 2A.F ....
....|..|C-5 VF.A ....|--- .... ....|B-1 2F.A ....
 B-3|..|B-8 JF.F ....|B-1 2F.7 ....|B-1 2A.F ....
....|..|C-4 AF.A ....|--- .... ....|B-1 2F.A ....
....|..|C-4 CF.F ....|--- .... ....|B-1 2F.7 ....
....|..|B-8 JF.A ....|--- .... ....|B-1 2F.A ....
....|..|B-8 JF.F ....|--- .... ....|B-1 2F.7 ....
....|..|C-4 CF.A ....|--- .... ....|R-- .... ....
....|..|C-4 AF.F ....|--- .... ....|B-1 2F.7 ....
....|..|B-8 JF.A ....|--- .... ....|--- .... ....
....|..|C-4 CF.F ....|--- .... ....|R-- .... ....
....|..|C-4 AF.A ....|--- .... ....|--- .... ....

[Pattern47]
 C#4|..|C-4 AF.F ....|C#2 2A.F ....|C#2 2A.F ....
....|..|C-4 CF.A ....|--- .... ....|--- .... ....
 C#4|..|B-8 JF.F ....|--- .... ....|C#2 2A.F ....
....|..|C-4 AF.A ....|C#2 2F.A ....|C#2 2F.A ....
 C#4|..|B-8 JF.F ....|--- .... ....|C#2 2A.F ....
....|..|B-8 JF.A ....|--- .... ....|C#2 2F.A ....
 C#4|..|B-8 JF.F ....|C#2 2F.7 ....|C#2 2A.F ....
....|..|B-8 JF.A ....|--- .... ....|C#2 2F.A ....
....|..|C-4 CF.F ....|--- .... ....|C#2 2F.7 ....
....|..|B-8 JF.A ....|--- .... ....|C#2 2F.A ....
 C#4|..|B-8 JF.F ....|--- .... ....|C#2 2A.F ....
....|..|C-4 CF.A ....|--- .... ....|R-- .... ....
 C#4|..|C-4 AF.F ....|--- .... ....|C#2 2A.F ....
....|..|B-8 JF.A ....|--- .... ....|C#2 2F.A ....
 C#4|..|C-4 CF.F ....|--- .... ....|C#2 2A.F ....
....|..|C-4 AF.A ....|--- .... ....|C#2 2F.A ....
 C#4|..|B-8 JF.F ....|--- .... ....|C#2 2A.F ....
....|..|C-4 CF.A ....|--- .... ....|C#2 2F.A ....
 C#4|..|C-4 CF.F ....|--- .... ....|C#2 2A.F ....
....|..|B-8 JF.A ....|--- .... ....|C#2 2F.A ....
 C#4|..|B-8 JF.F ....|--- .... ....|C#2 2A.F ....
....|..|C-4 CF.A ....|--- .... ....|C#2 2F.A ....
 C#4|..|B-8 JF.F ....|--- .... ....|C#2 2A.F ....
....|..|B-8 JF.A ....|--- .... ....|C#2 2F.A ....
....|..|C-4 CF.F ....|--- .... ....|C#2 2F.7 ....
....|..|B-8 JF.A ....|--- .... ....|C#2 2F.A ....
....|..|B-8 JF.F ....|--- .... ....|C#2 2F.7 ....
....|..|C-4 CF.A ....|--- .... ....|R-- .... ....
....|..|C-3 RF.F ....|--- .... ....|C#2 2F.7 ....
....|..|B-8 JF.A ....|--- .... ....|--- .... ....
....|..|C-4 CF.F ....|--- .... ....|R-- .... ....
....|..|C-3 RF.A ....|--- .... ....|--- .... ....
 A-3|..|C-4 AF.F ....|A-1 2A.F ....|A-1 2A.F ....
....|..|C-4 CF.A ....|--- .... ....|--- .... ....
 A-3|..|B-8 JF.F ....|--- .... ....|A-1 2A.F ....
....|..|C-4 AF.A ....|A-1 2F.A ....|A-1 2F.A ....
 A-3|..|B-8 JF.F ....|--- .... ....|A-1 2A.F ....
....|..|B-8 JF.A ....|--- .... ....|A-1 2F.A ....
 A-3|..|B-8 JF.F ....|A-1 2F.7 ....|A-1 2A.F ....
....|..|B-8 JF.A ....|--- .... ....|A-1 2F.A ....
....|..|C-4 CF.F ....|--- .... ....|A-1 2F.7 ....
....|..|B-8 JF.A ....|--- .... ....|A-1 2F.A ....
 B-3|..|B-8 JF.F ....|--- .... ....|B-1 2A.F ....
....|..|C-4 CF.A ....|--- .... ....|R-- .... ....
 B-3|..|C-4 AF.F ....|--- .... ....|B-1 2A.F ....
....|..|B-8 JF.A ....|--- .... ....|B-1 2F.A ....
 B-3|..|C-4 CF.F ....|--- .... ....|B-1 2A.F ....
....|..|C-4 AF.A ....|--- .... ....|B-1 2F.A ....
 B-3|..|B-8 JF.F ....|B-1 2A.F ....|B-1 2A.F ....
....|..|C-4 CF.A ....|--- .... ....|B-1 2F.A ....
 B-3|..|B-8 JF.F ....|--- .... ....|B-1 2A.F ....
....|..|B-8 JF.A ....|B-1 2F.A ....|B-1 2F.A ....
 B-3|..|C-4 AF.F ....|--- .... ....|B-1 2A.F ....
....|..|B-8 JF.A ....|--- .... ....|B-1 2F.A ....
 B-3|..|B-8 JF.F ....|B-1 2F.7 ....|B-1 2A.F ....
....|..|C-4 AF.A ....|--- .... ....|B-1 2F.A ....
....|..|C-4 CF.F ....|--- .... ....|B-1 2F.7 ....
....|..|B-8 JF.A ....|--- .... ....|B-1 2F.A ....
....|..|C-4 AF.F ....|--- .... ....|B-1 2F.7 ....
....|..|C-4 CF.A ....|--- .... ....|R-- .... ....
....|..|C-3 RF.F ....|--- .... ....|B-1 2F.7 ....
....|..|C-4 AF.A ....|--- .... ....|--- .... ....
....|..|C-4 CF.F ....|--- .... ....|R-- .... ....
....|..|C-3 RF.A ....|--- .... ....|--- .... ....

[Pattern52]
 C#4|..|C-4 AF.F ....|C#2 2A.F ....|C#2 2A.F ....
....|..|C-4 CF.A ....|--- .... ....|--- .... ....
 C#4|..|B-8 JF.F ....|--- .... ....|C#2 2A.F ....
....|..|C-4 AF.A ....|C#2 2F.A ....|C#2 2F.A ....
 C#4|..|B-8 JF.F ....|C#5 2F.F ....|C#2 2A.F ....
....|..|B-8 JF.A ....|C#4 2F1F ....|C#5 2F.F ....
 C#4|..|B-8 JF.F ....|C#4 2F1F ....|C#2 2A.F ....
....|..|B-8 JF.A ....|C#5 2F.A ....|C#2 2F.A ....
....|..|C-4 CF.F ....|C#4 2F1A ....|C#5 2F.A ....
....|..|B-8 JF.A ....|C#4 2F1A ....|C#2 2F.A ....
 C#4|..|B-8 JF.F ....|C#5 2F.7 ....|C#2 2A.F ....
....|..|C-4 CF.A ....|C#4 2F17 ....|C#5 2F.7 ....
 C#4|..|C-4 AF.F ....|B-3 2F2F ....|C#2 2A.F ....
....|..|B-8 JF.A ....|B-3 2F1F ....|B-3 2F2F ....
 C#4|..|C-4 CF.F ....|B-3 2F1F ....|C#2 2A.F ....
....|..|C-4 AF.A ....|B-3 2F2A ....|C#2 2F.A ....
 C#4|..|C-4 BF.F ....|B-3 2F1A ....|C#2 2A.F ....
....|..|C-4 CF.A ....|B-3 2F1A ....|C#2 2F.A ....
 C#4|..|C-4 CF.F ....|B-3 2F27 ....|C#2 2A.F ....
....|..|C-4 BF.A ....|B-3 2F2F ....|B-3 2F2F ....
 C#4|..|B-8 JF.F ....|C#4 2F1F ....|C#2 2A.F ....
....|..|C-4 CF.A ....|C#4 2F1F ....|C#4 2F1F ....
 C#4|..|C-4 BF.F ....|B-3 2F2A ....|C#2 2A.F ....
....|..|B-8 JF.A ....|C#4 2F1A ....|C#2 2F.A ....
....|..|C-4 CF.F ....|C#4 2F1A ....|C#4 2F1A ....
....|..|C-4 BF.A ....|B-3 2F27 ....|C#2 2F.A ....
....|..|B-8 JF.F ....|B-3 2F3F ....|B-3 2F3F ....
....|..|C-4 CF.A ....|B-3 2F4F ....|B-3 2F3F ....
....|..|C-3 RF.F ....|B-3 2F1F ....|B-3 2F4F ....
....|..|B-8 JF.A ....|B-3 2F1F ....|B-3 2F1F ....
....|..|C-4 CF.F ....|B-3 2F4A ....|B-3 2F3A ....
....|..|C-3 RF.A ....|B-3 2F1A ....|B-3 2F4A ....
 C#4|..|C-4 AF.F ....|B-3 2F1A ....|C#2 2A.F ....
....|..|C-4 CF.A ....|B-3 2F2F ....|B-3 2F2F ....
 C#4|..|B-8 JF.F ....|C#4 2F5F ....|C#2 2A.F ....
....|..|C-4 AF.A ....|C#4 2F5F ....|C#4 2F5F ....
 C#4|..|B-8 JF.F ....|C#4 2F1F ....|C#2 2A.F ....
....|..|B-8 JF.A ....|C#4 2F1F ....|C#4 2F1F ....
 C#4|..|B-8 JF.F ....|C#4 2F5A ....|C#2 2A.F ....
....|..|B-8 JF.A ....|B-3 2F27 ....|C#2 2F.A ....
....|..|C-4 CF.F ....|C#4 2F57 ....|C#2 2F.7 ....
....|..|B-8 JF.A ....|C#5 2F.F ....|C#5 2F.F ....
 C#4|..|B-8 JF.F ....|C#5 2F.F ....|C#2 2A.F ....
....|..|C-4 CF.A ....|E-4 2F6F ....|E-4 2F6F ....
 C#4|..|C-4 AF.F ....|E-4 2F1F ....|C#2 2A.F ....
....|..|B-8 JF.A ....|E-4 2F1F ....|E-4 2F1F ....
 C#4|..|C-4 CF.F ....|E-4 2F6A ....|C#2 2A.F ....
....|..|C-4 AF.A ....|E-4 2F6A ....|C#2 2F.A ....
 C#4|..|B-8 JF.F ....|C#5 2F.7 ....|C#2 2A.F ....
....|..|C-4 CF.A ....|E-4 2F67 ....|C#2 2F.A ....
 C#4|..|C-5 VF.F ....|E-4 2F17 ....|C#2 2A.F ....
....|..|B-8 JF.A ....|D#4 2F7F ....|D#4 2F7F ....
 C#4|..|C-4 AF.F ....|D#4 2F1F ....|C#2 2A.F ....
....|..|C-5 VF.A ....|D#4 2F1F ....|D#4 2F1F ....
 C#4|..|B-8 JF.F ....|D#4 2F7A ....|C#2 2A.F ....
....|..|C-4 AF.A ....|D#4 2F1A ....|C#2 2F.A ....
....|..|C-4 CF.F ....|D#4 2F1A ....|D#4 2F1A ....
....|..|B-8 JF.A ....|D#4 2F77 ....|C#2 2F.A ....
....|..|B-8 JF.F ....|D#4 2F17 ....|C#2 2F.7 ....
....|..|C-4 CF.A ....|D#5 2F.F ....|D#5 2F.F ....
....|..|C-4 AF.F ....|C#4 2F1F ....|D#5 2F.F ....
....|..|B-8 JF.A ....|C#4 2F1F ....|C#4 2F1F ....
....|..|C-4 CF.F ....|D#5 2F.A ....|D#5 2F.A ....
....|..|C-4 AF.A ....|C#4 2F1A ....|D#5 2F.A ....

[Pattern53]
 C#4|..|C-4 AF.F ....|A-1 2F.F ....|C#2 2A.F ....
....|..|C-4 CF.A ....|D#5 2F.7 ....|D#5 2F.7 ....
 C#4|..|B-8 JF.F ....|C#4 2F17 ....|C#2 2A.F ....
....|..|C-4 AF.A ....|A-1 2F.A ....|C#2 2F.A ....
 C#4|..|B-8 JF.F ....|C#4 2F1F ....|C#2 2A.F ....
....|..|B-8 JF.A ....|C#4 2F1F ....|C#4 2F1F ....
 C#4|..|B-8 JF.F ....|A-1 2F.7 ....|C#2 2A.F ....
....|..|B-8 JF.A ....|C#4 2F1A ....|C#2 2F.A ....
....|..|C-4 CF.F ....|C#4 2F1A ....|C#4 2F1A ....
....|..|B-8 JF.A ....|--- .... ....|C#2 2F.A ....
 C#4|..|B-8 JF.F ....|C#4 2F17 ....|C#2 2A.F ....
....|..|C-4 CF.A ....|C#4 2F17 ....|C#4 2F17 ....
 C#4|..|C-4 AF.F ....|B-3 2F1F ....|C#2 2A.F ....
....|..|B-8 JF.A ....|B-3 2F1F ....|B-3 2F1F ....
 C#4|..|C-4 CF.F ....|--- .... ....|C#2 2A.F ....
....|..|C-4 AF.A ....|B-3 2F1A ....|C#2 2F.A ....
 C#4|..|B-8 JF.F ....|B-3 2F1A ....|C#2 2A.F ....
....|..|C-4 CF.A ....|--- .... ....|C#2 2F.A ....
 C#4|..|C-4 CF.F ....|B-3 2F17 ....|C#2 2A.F ....
....|..|B-8 JF.A ....|B-3 2F17 ....|C#2 2F.A ....
 C#4|..|B-8 JF.F ....|C#4 2F1F ....|C#2 2A.F ....
....|..|C-4 CF.A ....|C#4 2F1F ....|C#4 2F1F ....
 C#4|..|B-8 JF.F ....|--- .... ....|C#2 2A.F ....
....|..|B-8 JF.A ....|C#4 2F1A ....|C#2 2F.A ....
....|..|C-4 CF.F ....|C#4 2F1A ....|C#4 2F1A ....
....|..|B-8 JF.A ....|--- .... ....|C#2 2F.A ....
....|..|B-8 JF.F ....|C#4 2F17 ....|C#2 2F.7 ....
....|..|C-4 CF.A ....|C#4 2F17 ....|C#4 2F17 ....
....|..|C-3 RF.F ....|B-3 2F1F ....|B-3 2F1F ....
....|..|B-8 JF.A ....|B-3 2F1F ....|B-3 2F1F ....
....|..|C-4 CF.F ....|--- .... ....|R-- .... ....
....|..|C-3 RF.A ....|B-3 2F1A ....|B-3 2F1A ....
 C#4|..|C-4 AF.F ....|B-3 2F1A ....|C#2 2A.F ....
....|..|C-4 CF.A ....|--- .... ....|--- .... ....
 C#4|..|B-8 JF.F ....|B-3 2F17 ....|C#2 2A.F ....
....|..|C-4 AF.A ....|B-3 2F17 ....|C#2 2F.A ....
 C#4|..|B-8 JF.F ....|C#4 2F1F ....|C#2 2A.F ....
....|..|B-8 JF.A ....|C#4 2F1F ....|C#4 2F1F ....
 C#4|..|B-8 JF.F ....|--- .... ....|C#2 2A.F ....
....|..|B-8 JF.A ....|C#4 2F1A ....|C#2 2F.A ....
....|..|C-4 CF.F ....|C#4 2F1A ....|C#4 2F1A ....
....|..|B-8 JF.A ....|--- .... ....|C#2 2F.A ....
 C#4|..|B-8 JF.F ....|C#4 2F17 ....|C#2 2A.F ....
....|..|C-4 CF.A ....|C#4 2F17 ....|C#4 2F17 ....
 C#4|..|C-4 AF.F ....|E-4 2F1F ....|C#2 2A.F ....
....|..|B-8 JF.A ....|E-4 2F1F ....|E-4 2F1F ....
 C#4|..|C-4 CF.F ....|--- .... ....|C#2 2A.F ....
....|..|C-4 AF.A ....|E-4 2F1A ....|C#2 2F.A ....
 C#4|..|B-8 JF.F ....|E-4 2F1A ....|C#2 2A.F ....
....|..|C-4 CF.A ....|--- .... ....|C#2 2F.A ....
 C#4|..|B-8 JF.F ....|E-4 2F17 ....|C#2 2A.F ....
....|..|B-8 JF.A ....|E-4 2F17 ....|C#2 2F.A ....
 C#4|..|C-4 AF.F ....|D#4 2F1F ....|C#2 2A.F ....
....|..|B-8 JF.A ....|D#4 2F1F ....|D#4 2F1F ....
 C#4|..|B-8 JF.F ....|--- .... ....|C#2 2A.F ....
....|..|C-4 AF.A ....|D#4 2F1A ....|C#2 2F.A ....
....|..|C-4 CF.F ....|D#4 2F1A ....|D#4 2F1A ....
....|..|B-8 JF.A ....|--- .... ....|C#2 2F.A ....
....|..|C-4 AF.F ....|D#4 2F17 ....|C#2 2F.7 ....
....|..|C-4 CF.A ....|D#4 2F17 ....|D#4 2F17 ....
....|..|C-3 RF.F ....|C#4 2F1F ....|C#4 2F1F ....
....|..|C-4 AF.A ....|C#4 2F1F ....|C#4 2F1F ....
....|..|C-4 CF.F ....|--- .... ....|R-- .... ....
....|..|C-3 RF.A ....|C#4 2F1A ....|C#4 2F1A ....

[Pattern55]
 C#4|..|C-4 AF.F ....|A-1 2F.F ....|C#2 2A.F ....
....|..|C-4 CF.A ....|--- .... ....|--- .... ....
 C#4|..|B-8 JF.F ....|C#4 2F17 ....|C#2 2A.F ....
....|..|C-4 AF.A ....|A-1 2F.A ....|C#2 2F.A ....
 C#4|..|B-8 JF.F ....|C#4 2F1F ....|C#2 2A.F ....
....|..|B-8 JF.A ....|C#4 2F1F ....|C#4 2F1F ....
 C#4|..|B-8 JF.F ....|A-1 2F.7 ....|C#2 2A.F ....
....|..|B-8 JF.A ....|C#4 2F1A ....|C#2 2F.A ....
....|..|C-4 CF.F ....|C#4 2F1A ....|C#4 2F1A ....
....|..|B-8 JF.A ....|--- .... ....|C#2 2F.A ....
 C#4|..|B-8 JF.F ....|C#4 2F17 ....|C#2 2A.F ....
....|..|C-4 CF.A ....|C#4 2F17 ....|C#4 2F17 ....
 C#4|..|C-4 AF.F ....|B-3 2F1F ....|C#2 2A.F ....
....|..|B-8 JF.A ....|B-3 2F1F ....|B-3 2F1F ....
 C#4|..|C-4 CF.F ....|--- .... ....|C#2 2A.F ....
....|..|C-4 AF.A ....|B-3 2F1A ....|C#2 2F.A ....
 C#4|..|B-8 JF.F ....|B-3 2F1A ....|C#2 2A.F ....
....|..|C-4 CF.A ....|--- .... ....|C#2 2F.A ....
 C#4|..|C-4 CF.F ....|B-3 2F17 ....|C#2 2A.F ....
....|..|B-8 JF.A ....|B-3 2F17 ....|C#2 2F.A ....
 C#4|..|B-8 JF.F ....|C#4 2F1F ....|C#2 2A.F ....
....|..|C-4 CF.A ....|C#4 2F1F ....|C#4 2F1F ....
 C#4|..|B-8 JF.F ....|--- .... ....|C#2 2A.F ....
....|..|B-8 JF.A ....|C#4 2F1A ....|C#2 2F.A ....
....|..|C-4 CF.F ....|C#4 2F1A ....|C#4 2F1A ....
....|..|B-8 JF.A ....|--- .... ....|C#2 2F.A ....
....|..|B-8 JF.F ....|C#4 2F17 ....|C#2 2F.7 ....
....|..|C-4 CF.A ....|C#4 2F17 ....|C#4 2F17 ....
....|..|C-3 RF.F ....|B-3 2F1F ....|B-3 2F1F ....
....|..|B-8 JF.A ....|B-3 2F1F ....|B-3 2F1F ....
....|..|C-4 CF.F ....|--- .... ....|R-- .... ....
....|..|C-3 RF.A ....|B-3 2F1A ....|B-3 2F1A ....
 C#4|..|C-4 AF.F ....|B-3 2F1A ....|C#2 2A.F ....
....|..|C-4 CF.A ....|--- .... ....|--- .... ....
 C#4|..|B-8 JF.F ....|B-3 2F17 ....|C#2 2A.F ....
....|..|C-4 AF.A ....|B-3 2F17 ....|C#2 2F.A ....
 C#4|..|B-8 JF.F ....|C#4 2F1F ....|C#2 2A.F ....
....|..|B-8 JF.A ....|C#4 2F1F ....|C#4 2F1F ....
 C#4|..|B-8 JF.F ....|--- .... ....|C#2 2A.F ....
....|..|B-8 JF.A ....|C#4 2F1A ....|C#2 2F.A ....
....|..|C-4 CF.F ....|C#4 2F1A ....|C#4 2F1A ....
....|..|B-8 JF.A ....|--- .... ....|C#2 2F.A ....
 C#4|..|B-8 JF.F ....|C#4 2F17 ....|C#2 2A.F ....
....|..|C-4 CF.A ....|C#4 2F17 ....|C#4 2F17 ....
 C#4|..|C-4 AF.F ....|E-4 2F1F ....|C#2 2A.F ....
....|..|B-8 JF.A ....|E-4 2F1F ....|E-4 2F1F ....
 C#4|..|C-4 CF.F ....|--- .... ....|C#2 2A.F ....
....|..|C-4 AF.A ....|E-4 2F1A ....|C#2 2F.A ....
 C#4|..|B-8 JF.F ....|E-4 2F1A ....|C#2 2A.F ....
....|..|C-4 CF.A ....|--- .... ....|C#2 2F.A ....
 C#4|..|B-8 JF.F ....|E-4 2F17 ....|C#2 2A.F ....
....|..|B-8 JF.A ....|E-4 2F17 ....|C#2 2F.A ....
 C#4|..|C-4 AF.F ....|D#4 2F1F ....|C#2 2A.F ....
....|..|B-8 JF.A ....|D#4 2F1F ....|D#4 2F1F ....
 C#4|..|B-8 JF.F ....|--- .... ....|C#2 2A.F ....
....|..|C-4 AF.A ....|D#4 2F1A ....|C#2 2F.A ....
....|..|C-4 CF.F ....|D#4 2F1A ....|D#4 2F1A ....
....|..|B-8 JF.A ....|--- .... ....|C#2 2F.A ....
....|..|C-4 AF.F ....|D#4 2F17 ....|C#2 2F.7 ....
....|..|C-4 CF.A ....|D#4 2F17 ....|D#4 2F17 ....
....|..|C-3 RF.F ....|C#4 2F1F ....|C#4 2F1F ....
....|..|C-4 AF.A ....|C#4 2F1F ....|C#4 2F1F ....
....|..|C-4 CF.F ....|--- .... ....|R-- .... ....
....|..|C-3 RF.A ....|C#4 2F1A ....|C#4 2F1A ....

[Pattern56]
....|..|C-4 AF.F ....|R-- .... ....|C#3 2F1F ....
 C#4|..|C-4 CF.A ....|--- .... ....|C#2 2A.F ....
 C#4|..|B-8 JF.F ....|C#4 2F17 ....|C#2 2A.F ....
....|..|C-4 AF.A ....|R-- .... ....|C#3 2F1A ....
....|..|B-8 JF.F ....|R-- .... ....|C#3 2F1F ....
....|..|B-8 JF.A ....|R-- .... ....|R-- .... ....
 C#4|..|B-8 JF.F ....|R-- .... ....|C#2 2A.F ....
....|..|B-8 JF.A ....|R-- .... ....|C#3 2F1A ....
....|..|C-4 CF.F ....|R-- .... ....|G#3 2F1F ....
....|..|B-8 JF.A ....|--- .... ....|C#2 2F.A ....
 C#4|..|B-8 JF.F ....|R-- .... ....|C#2 2A.F ....
....|..|C-4 CF.A ....|R-- .... ....|G#3 2F1A ....
 C#4|..|C-4 AF.F ....|--- .... ....|C#2 2A.F ....
....|..|B-8 JF.A ....|--- .... ....|C#2 2F.A ....
....|..|C-4 CF.F ....|--- .... ....|C#3 2F1F ....
 C#4|..|C-4 AF.A ....|--- .... ....|C#2 2A.F ....
 C#4|..|C-4 BF.F ....|--- .... ....|C#2 2A.F ....
....|..|C-4 CF.A ....|--- .... ....|C#3 2F1A ....
....|..|C-4 CF.F ....|--- .... ....|G#3 2F1F ....
....|..|C-4 BF.A ....|--- .... ....|C#2 2F.A ....
 C#4|..|B-8 JF.F ....|--- .... ....|C#2 2A.F ....
....|..|C-4 CF.A ....|--- .... ....|G#3 2F1A ....
....|..|C-4 BF.F ....|--- .... ....|C#3 2F1F ....
....|..|B-8 JF.A ....|--- .... ....|C#2 2F.A ....
....|..|C-4 CF.F ....|--- .... ....|G#3 2F1F ....
....|..|C-4 BF.A ....|--- .... ....|C#3 2F1A ....
....|..|B-8 JF.F ....|--- .... ....|C#2 2F.A ....
....|..|C-4 CF.A ....|--- .... ....|G#3 2F1A ....
....|..|C-3 RF.F ....|--- .... ....|G#3 2F1F ....
....|..|B-8 JF.A ....|--- .... ....|C#2 2F.7 ....
....|..|C-4 CF.F ....|--- .... ....|G#3 2F17 ....
....|..|C-3 RF.A ....|--- .... ....|G#3 2F1A ....
....|..|C-4 AF.F ....|--- .... ....|A-3 2F1F ....
 A-3|..|C-4 CF.A ....|--- .... ....|A-1 2A.F ....
 A-3|..|B-8 JF.F ....|--- .... ....|A-1 2A.F ....
....|..|C-4 AF.A ....|--- .... ....|A-3 2F1A ....
....|..|B-8 JF.F ....|--- .... ....|A-3 2F1F ....
....|..|B-8 JF.A ....|--- .... ....|A-1 2F.A ....
 A-3|..|B-8 JF.F ....|--- .... ....|A-1 2A.F ....
....|..|B-8 JF.A ....|--- .... ....|A-3 2F1A ....
....|..|C-4 CF.F ....|--- .... ....|E-3 2F1F ....
....|..|B-8 JF.A ....|--- .... ....|A-1 2F.A ....
 A-3|..|B-8 JF.F ....|--- .... ....|A-1 2A.F ....
....|..|C-4 CF.A ....|--- .... ....|E-3 2F1A ....
 B-3|..|C-4 AF.F ....|--- .... ....|B-1 2A.F ....
....|..|B-8 JF.A ....|--- .... ....|A-1 2F.A ....
....|..|C-4 CF.F ....|--- .... ....|B-3 2F1F ....
 B-3|..|C-4 AF.A ....|--- .... ....|B-1 2A.F ....
 B-3|..|B-8 JF.F ....|--- .... ....|B-1 2A.F ....
....|..|C-4 CF.A ....|--- .... ....|B-3 2F1A ....
....|..|C-5 VF.F ....|--- .... ....|F#3 2F1F ....
....|..|B-8 JF.A ....|--- .... ....|B-1 2F.A ....
 B-3|..|C-4 AF.F ....|--- .... ....|B-1 2A.F ....
....|..|C-5 VF.A ....|--- .... ....|F#3 2F1A ....
....|..|B-8 JF.F ....|--- .... ....|B-3 2F1F ....
....|..|C-4 AF.A ....|--- .... ....|B-1 2F.A ....
....|..|C-4 CF.F ....|--- .... ....|E-3 2F1F ....
....|..|B-8 JF.A ....|--- .... ....|B-3 2F1A ....
....|..|B-8 JF.F ....|--- .... ....|B-1 2F.A ....
....|..|C-4 CF.A ....|--- .... ....|E-3 2F1A ....
....|..|C-4 AF.F ....|--- .... ....|D#3 2F1F ....
....|..|B-8 JF.A ....|--- .... ....|B-1 2F.7 ....
....|..|C-4 CF.F ....|--- .... ....|E-3 2F17 ....
....|..|C-4 AF.A ....|--- .... ....|D#3 2F1A ....

[Pattern57]
....|..|C-4 AF.F ....|--- .... ....|C#3 2F1F ....
 C#4|..|C-4 CF.A ....|--- .... ....|C#2 2A.F ....
 C#4|..|B-8 JF.F ....|--- .... ....|C#2 2A.F ....
....|..|C-4 AF.A ....|--- .... ....|C#3 2F1A ....
....|..|B-8 JF.F ....|--- .... ....|C#3 2F1F ....
....|..|B-8 JF.A ....|--- .... ....|C#2 2F.A ....
 C#4|..|B-8 JF.F ....|--- .... ....|C#2 2A.F ....
....|..|B-8 JF.A ....|--- .... ....|C#3 2F1A ....
....|..|C-4 CF.F ....|--- .... ....|G#3 2F1F ....
....|..|B-8 JF.A ....|--- .... ....|C#2 2F.A ....
 C#4|..|B-8 JF.F ....|--- .... ....|C#2 2A.F ....
....|..|C-4 CF.A ....|--- .... ....|G#3 2F1A ....
 C#4|..|C-4 AF.F ....|--- .... ....|C#2 2A.F ....
....|..|B-8 JF.A ....|--- .... ....|C#2 2F.A ....
....|..|C-4 CF.F ....|--- .... ....|C#3 2F1F ....
 C#4|..|C-4 AF.A ....|--- .... ....|C#2 2A.F ....
 C#4|..|B-8 JF.F ....|--- .... ....|C#2 2A.F ....
....|..|C-4 CF.A ....|--- .... ....|C#3 2F1A ....
....|..|C-4 CF.F ....|--- .... ....|G#3 2F1F ....
....|..|B-8 JF.A ....|--- .... ....|C#2 2F.A ....
 C#4|..|B-8 JF.F ....|--- .... ....|C#2 2A.F ....
....|..|C-4 CF.A ....|--- .... ....|G#3 2F1A ....
....|..|B-8 JF.F ....|--- .... ....|C#3 2F1F ....
....|..|B-8 JF.A ....|--- .... ....|C#2 2F.A ....
....|..|C-4 CF.F ....|--- .... ....|G#3 2F1F ....
....|..|B-8 JF.A ....|--- .... ....|C#3 2F1A ....
....|..|B-8 JF.F ....|--- .... ....|C#2 2F.A ....
....|..|C-4 CF.A ....|--- .... ....|G#3 2F1A ....
....|..|C-3 RF.F ....|--- .... ....|G#3 2F1F ....
....|..|B-8 JF.A ....|--- .... ....|C#2 2F.7 ....
....|..|C-4 CF.F ....|--- .... ....|G#3 2F17 ....
....|..|C-3 RF.A ....|--- .... ....|G#3 2F1A ....
....|..|C-4 AF.F ....|--- .... ....|A-3 2F1F ....
 A-3|..|C-4 CF.A ....|--- .... ....|A-1 2A.F ....
 A-3|..|B-8 JF.F ....|--- .... ....|A-1 2A.F ....
....|..|C-4 AF.A ....|--- .... ....|A-3 2F1A ....
....|..|B-8 JF.F ....|--- .... ....|A-3 2F1F ....
....|..|B-8 JF.A ....|--- .... ....|A-1 2F.A ....
 A-3|..|B-8 JF.F ....|--- .... ....|A-1 2A.F ....
....|..|B-8 JF.A ....|--- .... ....|A-3 2F1A ....
....|..|C-4 CF.F ....|--- .... ....|E-3 2F1F ....
....|..|B-8 JF.A ....|--- .... ....|A-1 2F.A ....
 A-3|..|B-8 JF.F ....|--- .... ....|A-1 2A.F ....
....|..|C-4 CF.A ....|--- .... ....|E-3 2F1A ....
 B-3|..|C-4 AF.F ....|--- .... ....|B-1 2A.F ....
....|..|B-8 JF.A ....|--- .... ....|A-1 2F.A ....
....|..|C-4 CF.F ....|--- .... ....|B-3 2F1F ....
 B-3|..|C-4 AF.A ....|--- .... ....|B-1 2A.F ....
 B-3|..|B-8 JF.F ....|--- .... ....|B-1 2A.F ....
....|..|C-4 CF.A ....|--- .... ....|B-3 2F1A ....
....|..|B-8 JF.F ....|--- .... ....|F#3 2F1F ....
....|..|B-8 JF.A ....|--- .... ....|B-1 2F.A ....
 B-3|..|C-4 AF.F ....|--- .... ....|B-1 2A.F ....
....|..|B-8 JF.A ....|--- .... ....|F#3 2F1A ....
....|..|B-8 JF.F ....|--- .... ....|B-3 2F1F ....
....|..|C-4 AF.A ....|--- .... ....|B-1 2F.A ....
....|..|C-4 CF.F ....|--- .... ....|E-3 2F1F ....
....|..|B-8 JF.A ....|--- .... ....|B-3 2F1A ....
....|..|C-4 AF.F ....|--- .... ....|B-1 2F.A ....
....|..|C-4 CF.A ....|--- .... ....|E-3 2F1A ....
....|..|C-3 RF.F ....|--- .... ....|D#3 2F1F ....
....|..|C-4 AF.A ....|--- .... ....|B-1 2F.7 ....
....|..|C-4 CF.F ....|--- .... ....|E-3 2F17 ....
....|..|C-3 RF.A ....|--- .... ....|D#3 2F1A ....

[Pattern58]
....|..|C-4 AF.F ....|--- .... ....|C#3 2F1F ....
 C#4|..|C-4 CF.A ....|--- .... ....|C#2 2A.F ....
 C#4|..|B-8 JF.F ....|--- .... ....|C#2 2A.F ....
....|..|C-4 AF.A ....|--- .... ....|C#3 2F1A ....
....|..|B-8 JF.F ....|--- .... ....|C#3 2F1F ....
....|..|B-8 JF.A ....|--- .... ....|C#2 2F.A ....
 C#4|..|B-8 JF.F ....|--- .... ....|C#2 2A.F ....
....|..|B-8 JF.A ....|--- .... ....|C#3 2F1A ....
....|..|C-4 CF.F ....|--- .... ....|G#3 2F1F ....
....|..|B-8 JF.A ....|--- .... ....|C#2 2F.A ....
 C#4|..|B-8 JF.F ....|--- .... ....|C#2 2A.F ....
....|..|C-4 CF.A ....|--- .... ....|G#3 2F1A ....
 C#4|..|C-4 AF.F ....|--- .... ....|C#2 2A.F ....
....|..|B-8 JF.A ....|--- .... ....|C#2 2F.A ....
....|..|C-4 CF.F ....|--- .... ....|C#3 2F1F ....
 C#4|..|C-4 AF.A ....|--- .... ....|C#2 2A.F ....
 C#4|..|C-4 BF.F ....|--- .... ....|C#2 2A.F ....
....|..|C-4 CF.A ....|--- .... ....|C#3 2F1A ....
....|..|C-4 CF.F ....|--- .... ....|G#3 2F1F ....
....|..|C-4 BF.A ....|--- .... ....|C#2 2F.A ....
 C#4|..|B-8 JF.F ....|--- .... ....|C#2 2A.F ....
....|..|C-4 CF.A ....|--- .... ....|G#3 2F1A ....
....|..|C-4 BF.F ....|--- .... ....|C#3 2F1F ....
....|..|B-8 JF.A ....|--- .... ....|C#2 2F.A ....
....|..|C-4 CF.F ....|--- .... ....|G#3 2F1F ....
....|..|C-4 BF.A ....|--- .... ....|C#3 2F1A ....
....|..|B-8 JF.F ....|--- .... ....|C#2 2F.A ....
....|..|C-4 CF.A ....|--- .... ....|G#3 2F1A ....
....|..|C-3 RF.F ....|--- .... ....|G#3 2F1F ....
....|..|B-8 JF.A ....|--- .... ....|C#2 2F.7 ....
....|..|C-4 CF.F ....|--- .... ....|G#3 2F17 ....
....|..|C-3 RF.A ....|--- .... ....|G#3 2F1A ....
....|..|C-4 AF.F ....|--- .... ....|A-3 2F1F ....
 A-3|..|C-4 CF.A ....|--- .... ....|A-1 2A.F ....
 A-3|..|B-8 JF.F ....|--- .... ....|A-1 2A.F ....
....|..|C-4 AF.A ....|--- .... ....|A-3 2F1A ....
....|..|B-8 JF.F ....|--- .... ....|A-3 2F1F ....
....|..|B-8 JF.A ....|--- .... ....|A-1 2F.A ....
 A-3|..|B-8 JF.F ....|--- .... ....|A-1 2A.F ....
....|..|B-8 JF.A ....|--- .... ....|A-3 2F1A ....
....|..|C-4 CF.F ....|--- .... ....|E-3 2F1F ....
....|..|B-8 JF.A ....|--- .... ....|A-1 2F.A ....
 A-3|..|B-8 JF.F ....|--- .... ....|A-1 2A.F ....
....|..|C-4 CF.A ....|--- .... ....|E-3 2F1A ....
 B-3|..|C-4 AF.F ....|--- .... ....|B-1 2A.F ....
....|..|B-8 JF.A ....|--- .... ....|A-1 2F.A ....
....|..|C-4 CF.F ....|--- .... ....|B-3 2F1F ....
 B-3|..|C-4 AF.A ....|--- .... ....|B-1 2A.F ....
 B-3|..|B-8 JF.F ....|--- .... ....|B-1 2A.F ....
....|..|C-4 CF.A ....|--- .... ....|B-3 2F1A ....
....|..|C-5 VF.F ....|--- .... ....|F#3 2F1F ....
....|..|B-8 JF.A ....|--- .... ....|B-1 2F.A ....
 B-3|..|C-4 AF.F ....|--- .... ....|B-1 2A.F ....
....|..|C-5 VF.A ....|--- .... ....|F#3 2F1A ....
....|..|B-8 JF.F ....|--- .... ....|B-3 2F1F ....
....|..|C-4 AF.A ....|--- .... ....|B-1 2F.A ....
....|..|C-4 CF.F ....|--- .... ....|E-3 2F1F ....
....|..|B-8 JF.A ....|--- .... ....|B-3 2F1A ....
....|..|B-8 JF.F ....|--- .... ....|B-1 2F.A ....
....|..|C-4 CF.A ....|--- .... ....|E-3 2F1A ....
....|..|C-4 AF.F ....|--- .... ....|D#3 2F1F ....
....|..|B-8 JF.A ....|--- .... ....|B-1 2F.7 ....
....|..|C-4 CF.F ....|--- .... ....|E-3 2F17 ....
....|..|C-4 AF.A ....|--- .... ....|D#3 2F1A ....

[Pattern59]
....|..|C-4 AF.F ....|--- .... ....|C#3 2F1F ....
 C#4|..|C-4 CF.A ....|--- .... ....|C#2 2A.F ....
 C#4|..|B-8 JF.F ....|--- .... ....|C#2 2A.F ....
....|..|C-4 AF.A ....|--- .... ....|C#3 2F1A ....
....|..|B-8 JF.F ....|--- .... ....|C#3 2F1F ....
....|..|B-8 JF.A ....|--- .... ....|C#2 2F.A ....
 C#4|..|B-8 JF.F ....|--- .... ....|C#2 2A.F ....
....|..|B-8 JF.A ....|--- .... ....|C#3 2F1A ....
....|..|C-4 CF.F ....|--- .... ....|G#3 2F1F ....
....|..|B-8 JF.A ....|--- .... ....|C#2 2F.A ....
 C#4|..|B-8 JF.F ....|--- .... ....|C#2 2A.F ....
....|..|C-4 CF.A ....|--- .... ....|G#3 2F1A ....
 C#4|..|C-4 AF.F ....|--- .... ....|C#2 2A.F ....
....|..|B-8 JF.A ....|--- .... ....|C#2 2F.A ....
....|..|C-4 CF.F ....|--- .... ....|C#3 2F1F ....
 C#4|..|C-4 AF.A ....|--- .... ....|C#2 2A.F ....
 C#4|..|B-8 JF.F ....|--- .... ....|C#2 2A.F ....
....|..|C-4 CF.A ....|--- .... ....|C#3 2F1A ....
....|..|C-4 CF.F ....|--- .... ....|G#3 2F1F ....
....|..|B-8 JF.A ....|--- .... ....|C#2 2F.A ....
 C#4|..|B-8 JF.F ....|--- .... ....|C#2 2A.F ....
....|..|C-4 CF.A ....|--- .... ....|G#3 2F1A ....
....|..|B-8 JF.F ....|--- .... ....|C#3 2F1F ....
....|..|B-8 JF.A ....|--- .... ....|C#2 2F.A ....
....|..|C-4 CF.F ....|--- .... ....|G#3 2F1F ....
....|..|B-8 JF.A ....|--- .... ....|C#3 2F1A ....
....|..|B-8 JF.F ....|--- .... ....|C#2 2F.A ....
....|..|C-4 CF.A ....|--- .... ....|G#3 2F1A ....
....|..|C-3 RF.F ....|--- .... ....|G#3 2F1F ....
....|..|B-8 JF.A ....|--- .... ....|C#2 2F.7 ....
....|..|C-4 CF.F ....|--- .... ....|G#3 2F17 ....
....|..|C-3 RF.A ....|--- .... ....|G#3 2F1A ....
....|..|C-4 AF.F ....|--- .... ....|A-3 2F1F ....
 A-3|..|C-4 CF.A ....|--- .... ....|A-1 2A.F ....
 A-3|..|B-8 JF.F ....|--- .... ....|A-1 2A.F ....
....|..|C-4 AF.A ....|--- .... ....|A-3 2F1A ....
....|..|B-8 JF.F ....|--- .... ....|A-3 2F1F ....
....|..|B-8 JF.A ....|--- .... ....|A-1 2F.A ....
 A-3|..|B-8 JF.F ....|--- .... ....|A-1 2A.F ....
....|..|B-8 JF.A ....|--- .... ....|A-3 2F1A ....
....|..|C-4 CF.F ....|--- .... ....|E-3 2F1F ....
....|..|B-8 JF.A ....|--- .... ....|A-1 2F.A ....
 A-3|..|B-8 JF.F ....|--- .... ....|A-1 2A.F ....
....|..|C-4 CF.A ....|--- .... ....|E-3 2F1A ....
 B-3|..|C-4 AF.F ....|--- .... ....|B-1 2A.F ....
....|..|B-8 JF.A ....|--- .... ....|A-1 2F.A ....
....|..|C-4 CF.F ....|--- .... ....|B-3 2F1F ....
 B-3|..|C-4 AF.A ....|--- .... ....|B-1 2A.F ....
 B-3|..|B-8 JF.F ....|--- .... ....|B-1 2A.F ....
....|..|C-4 CF.A ....|--- .... ....|B-3 2F1A ....
....|..|B-8 JF.F ....|--- .... ....|F#3 2F1F ....
....|..|B-8 JF.A ....|--- .... ....|B-1 2F.A ....
 B-3|..|C-4 AF.F ....|--- .... ....|B-1 2A.F ....
....|..|B-8 JF.A ....|--- .... ....|F#3 2F1A ....
....|..|B-8 JF.F ....|--- .... ....|B-3 2F1F ....
....|..|C-4 AF.A ....|--- .... ....|B-1 2F.A ....
....|..|C-4 CF.F ....|--- .... ....|E-3 2F1F ....
....|..|B-8 JF.A ....|--- .... ....|B-3 2F1A ....
....|..|C-4 AF.F ....|--- .... ....|B-1 2F.A ....
....|..|C-4 CF.A ....|--- .... ....|E-3 2F1A ....
....|..|C-4 AF.F ....|--- .... ....|D#3 2F1F ....
....|..|C-4 AF.A ....|--- .... ....|B-1 2F.7 ....
....|..|C-4 AF.F ....|--- .... ....|E-3 2F17 ....
....|..|C-4 AF.A ....|--- .... ....|D#3 2F1A ....

[Pattern64]
 C#4|..|C-4 LF.F ....|C#2 2A.F ....|C#4 2F1A ....
....|..|C-4 AF.A ....|--- .... ....|--- .... ....
....|..|C-4 LF.F ....|C#4 2F17 ....|C#4 2F17 ....
....|..|C-4 LF.A ....|C#2 2F.A ....|C#4 2F17 ....
....|..|C-4 LF.F ....|C#4 2F1F ....|C#4 2F1F ....
....|..|C-4 LF.A ....|C#4 2F1F ....|C#4 2F1F ....
....|..|C-4 LF.F ....|C#2 2F.7 ....|--- .... ....
....|..|C-4 LF.A ....|C#4 2F1A ....|C#4 2F1A ....
....|..|C-4 LF.F ....|C#4 2F1A ....|C#4 2F1A ....
....|..|C-4 LF.A ....|--- .... ....|--- .... ....
....|..|C-4 LF.F ....|C#4 2F17 ....|C#4 2F17 ....
....|..|C-4 LF.A ....|C#4 2F17 ....|C#4 2F17 ....
....|..|C-4 LF.F ....|B-3 2F1F ....|B-3 2F1F ....
....|..|C-4 LF.A ....|B-3 2F1F ....|B-3 2F1F ....
....|..|C-4 LF.F ....|R-- .... ....|R-- .... ....
....|..|C-4 LF.A ....|B-3 2F1A ....|B-3 2F1A ....
....|..|C-4 LF.7 ....|B-3 2F1A ....|B-3 2F1A ....
....|..|C-4 LF.A ....|R-- .... ....|R-- .... ....
....|..|C-4 LF.F ....|B-3 2F17 ....|B-3 2F17 ....
....|..|R-- .... ....|B-3 2F17 ....|B-3 2F17 ....
....|..|C-4 LF.7 ....|C#4 2F1F ....|C#4 2F1F ....
....|..|C-4 LF.A ....|C#4 2F1F ....|C#4 2F1F ....
....|..|C-4 LF.F ....|R-- .... ....|R-- .... ....
....|..|R-- .... ....|C#4 2F1A ....|C#4 2F1A ....
....|..|C-4 LF.F ....|C#4 2F1A ....|C#4 2F1A ....
....|..|C-4 LF.A ....|R-- .... ....|R-- .... ....
....|..|C-4 LF.F ....|C#4 2F17 ....|C#4 2F17 ....
....|..|C-4 LF.A ....|C#4 2F17 ....|C#4 2F17 ....
....|..|C-4 LF.F ....|B-3 2F1F ....|B-3 2F1F ....
....|..|C-4 LF.A ....|B-3 2F1F ....|B-3 2F1F ....
....|..|C-4 LF.F ....|R-- .... ....|R-- .... ....
....|..|C-4 LF.A ....|B-3 2F1A ....|B-3 2F1A ....
....|..|C-4 LF.F ....|B-3 2F1A ....|B-3 2F1A ....
....|..|C-4 LF.A ....|R-- .... ....|R-- .... ....
....|..|C-4 LF.F ....|B-3 2F17 ....|B-3 2F17 ....
....|..|C-4 LF.A ....|B-3 2F17 ....|B-3 2F17 ....
....|..|C-4 LF.F ....|C#4 2F1F ....|C#4 2F1F ....
....|..|C-4 LF.A ....|C#4 2F1F ....|C#4 2F1F ....
....|..|C-4 LF.F ....|R-- .... ....|R-- .... ....
....|..|C-4 LF.A ....|C#4 2F1A ....|C#4 2F1A ....
....|..|C-4 LF.F ....|C#4 2F1A ....|C#4 2F1A ....
....|..|C-4 LF.A ....|R-- .... ....|R-- .... ....
....|..|C-4 LF.F ....|C#4 2F17 ....|C#4 2F17 ....
....|..|C-4 LF.A ....|C#4 2F17 ....|C#4 2F17 ....
....|..|C-4 LF.F ....|E-4 2F1F ....|E-4 2F1F ....
....|..|C-4 LF.A ....|E-4 2F1F ....|E-4 2F1F ....
....|..|C-4 LF.F ....|R-- .... ....|R-- .... ....
....|..|C-4 LF.A ....|E-4 2F1A ....|E-4 2F1A ....
....|..|C-4 LF.7 ....|E-4 2F1A ....|E-4 2F1A ....
....|..|C-4 LF.A ....|R-- .... ....|R-- .... ....
....|..|C-4 LF.F ....|E-4 2F17 ....|E-4 2F17 ....
....|..|R-- .... ....|E-4 2F17 ....|E-4 2F17 ....
....|..|C-4 LF.7 ....|D#4 2F1F ....|D#4 2F1F ....
....|..|C-4 LF.A ....|D#4 2F1F ....|D#4 2F1F ....
....|..|C-4 LF.F ....|R-- .... ....|R-- .... ....
....|..|R-- .... ....|D#4 2F1A ....|D#4 2F1A ....
....|..|C-4 LF.F ....|D#4 2F1A ....|D#4 2F1A ....
....|..|C-4 LF.A ....|R-- .... ....|R-- .... ....
....|..|C-4 LF.F ....|D#4 2F17 ....|D#4 2F17 ....
....|..|C-4 LF.A ....|D#4 2F17 ....|D#4 2F17 ....
....|..|C-4 LF.F ....|C#4 2F1F ....|C#4 2F1F ....
....|..|C-4 LF.A ....|C#4 2F1F ....|C#4 2F1F ....
....|..|C-4 LF.F ....|R-- .... ....|R-- .... ....
....|..|C-4 LF.A ....|C#4 2F1A ....|C#4 2F1A ....

[Pattern65]
 A-3|..|C-4 LF.F ....|A-1 2A.F ....|C#4 2F1A ....
....|..|C-4 LF.A ....|R-- .... ....|R-- .... ....
....|..|C-4 LF.F ....|C#4 2F17 ....|C#4 2F17 ....
....|..|C-4 LF.A ....|A-1 2F.A ....|C#4 2F17 ....
....|..|C-4 LF.F ....|C#4 2F1F ....|C#4 2F1F ....
....|..|C-4 LF.A ....|C#4 2F1F ....|C#4 2F1F ....
....|..|C-4 LF.F ....|A-1 2F.7 ....|R-- .... ....
....|..|C-4 LF.A ....|C#4 2F1A ....|C#4 2F1A ....
....|..|C-4 LF.F ....|C#4 2F1A ....|C#4 2F1A ....
....|..|C-4 LF.A ....|R-- .... ....|R-- .... ....
....|..|C-4 LF.F ....|C#4 2F17 ....|C#4 2F17 ....
....|..|C-4 LF.A ....|C#4 2F17 ....|C#4 2F17 ....
....|..|C-4 LF.F ....|B-3 2F1F ....|B-3 2F1F ....
....|..|C-4 LF.A ....|B-3 2F1F ....|B-3 2F1F ....
....|..|C-4 LF.F ....|R-- .... ....|R-- .... ....
....|..|C-4 LF.A ....|B-3 2F1A ....|B-3 2F1A ....
....|..|C-4 LF.7 ....|B-3 2F1A ....|B-3 2F1A ....
....|..|C-4 LF.A ....|R-- .... ....|R-- .... ....
....|..|C-4 LF.F ....|B-3 2F17 ....|B-3 2F17 ....
....|..|R-- .... ....|B-3 2F17 ....|B-3 2F17 ....
....|..|C-4 LF.7 ....|C#4 2F1F ....|C#4 2F1F ....
....|..|C-4 LF.A ....|C#4 2F1F ....|C#4 2F1F ....
....|..|C-4 LF.F ....|R-- .... ....|R-- .... ....
....|..|R-- .... ....|C#4 2F1A ....|C#4 2F1A ....
....|..|C-4 LF.F ....|C#4 2F1A ....|C#4 2F1A ....
....|..|C-4 LF.A ....|R-- .... ....|R-- .... ....
....|..|C-4 LF.F ....|C#4 2F17 ....|C#4 2F17 ....
....|..|C-4 LF.A ....|C#4 2F17 ....|C#4 2F17 ....
....|..|C-4 LF.F ....|B-3 2F1F ....|B-3 2F1F ....
....|..|C-4 LF.A ....|B-3 2F1F ....|B-3 2F1F ....
....|..|C-4 LF.F ....|R-- .... ....|R-- .... ....
....|..|C-4 LF.A ....|B-3 2F1A ....|B-3 2F1A ....
....|..|C-4 LF.F ....|B-3 2F1A ....|B-3 2F1A ....
....|..|C-4 LF.A ....|R-- .... ....|R-- .... ....
....|..|C-4 LF.F ....|B-3 2F17 ....|B-3 2F17 ....
....|..|C-4 LF.A ....|B-3 2F17 ....|B-3 2F17 ....
....|..|C-4 LF.F ....|C#4 2F1F ....|C#4 2F1F ....
....|..|C-4 LF.A ....|C#4 2F1F ....|C#4 2F1F ....
....|..|C-4 LF.F ....|R-- .... ....|R-- .... ....
....|..|C-4 LF.A ....|C#4 2F1A ....|C#4 2F1A ....
....|..|C-4 LF.F ....|C#4 2F1A ....|C#4 2F1A ....
....|..|C-4 LF.A ....|R-- .... ....|R-- .... ....
....|..|C-4 LF.F ....|C#4 2F17 ....|C#4 2F17 ....
....|..|C-4 LF.A ....|C#4 2F17 ....|C#4 2F17 ....
....|..|C-4 LF.F ....|E-4 2F1F ....|E-4 2F1F ....
....|..|C-4 LF.A ....|E-4 2F1F ....|E-4 2F1F ....
....|..|C-4 LF.F ....|R-- .... ....|R-- .... ....
....|..|C-4 LF.A ....|E-4 2F1A ....|E-4 2F1A ....
....|..|C-4 LF.7 ....|E-4 2F1A ....|E-4 2F1A ....
....|..|C-4 LF.A ....|R-- .... ....|R-- .... ....
....|..|C-4 LF.F ....|E-4 2F17 ....|E-4 2F17 ....
....|..|R-- .... ....|E-4 2F17 ....|E-4 2F17 ....
....|..|C-4 LF.7 ....|D#4 2F1F ....|D#4 2F1F ....
....|..|C-4 LF.A ....|D#4 2F1F ....|D#4 2F1F ....
....|..|C-4 LF.F ....|R-- .... ....|R-- .... ....
....|..|R-- .... ....|D#4 2F1A ....|D#4 2F1A ....
....|..|C-4 LF.F ....|D#4 2F1A ....|D#4 2F1A ....
....|..|C-4 LF.A ....|R-- .... ....|R-- .... ....
....|..|C-4 LF.F ....|D#4 2F17 ....|D#4 2F17 ....
....|..|C-4 LF.A ....|D#4 2F17 ....|D#4 2F17 ....
....|..|C-4 LF.F ....|C#4 2F1F ....|C#4 2F1F ....
....|..|C-4 LF.A ....|C#4 2F1F ....|C#4 2F1F ....
....|..|C-4 LF.F ....|R-- .... ....|R-- .... ....
....|..|C-4 LF.A ....|C#4 2F1A ....|C#4 2F1A ....

[Pattern66]
 C#4|..|C-4 LF.F ....|C#2 2A.F ....|C#4 2F1A ....
....|..|C-4 LF.A ....|R-- .... ....|R-- .... ....
....|..|C-4 LF.F ....|C#4 2F17 ....|C#4 2F17 ....
....|..|C-4 LF.A ....|C#2 2F.A ....|C#4 2F17 ....
....|..|C-4 LF.F ....|C#4 2F1F ....|C#4 2F1F ....
....|..|C-4 LF.A ....|C#4 2F1F ....|C#4 2F1F ....
....|..|C-4 LF.F ....|C#2 2F.7 ....|R-- .... ....
....|..|C-4 LF.A ....|C#4 2F1A ....|C#4 2F1A ....
....|..|C-4 LF.F ....|C#4 2F1A ....|C#4 2F1A ....
....|..|C-4 LF.A ....|R-- .... ....|R-- .... ....
....|..|C-4 LF.F ....|C#4 2F17 ....|C#4 2F17 ....
....|..|C-4 LF.A ....|C#4 2F17 ....|C#4 2F17 ....
....|..|C-4 LF.F ....|B-3 2F1F ....|B-3 2F1F ....
....|..|C-4 LF.A ....|B-3 2F1F ....|B-3 2F1F ....
....|..|C-4 LF.F ....|R-- .... ....|R-- .... ....
....|..|C-4 LF.A ....|B-3 2F1A ....|B-3 2F1A ....
....|..|C-4 LF.7 ....|B-3 2F1A ....|B-3 2F1A ....
....|..|C-4 LF.A ....|R-- .... ....|R-- .... ....
....|..|C-4 LF.F ....|B-3 2F17 ....|B-3 2F17 ....
....|..|R-- .... ....|B-3 2F17 ....|B-3 2F17 ....
....|..|C-4 LF.7 ....|C#4 2F1F ....|C#4 2F1F ....
....|..|C-4 LF.A ....|C#4 2F1F ....|C#4 2F1F ....
....|..|C-4 LF.F ....|R-- .... ....|R-- .... ....
....|..|R-- .... ....|C#4 2F1A ....|C#4 2F1A ....
....|..|C-4 LF.F ....|C#4 2F1A ....|C#4 2F1A ....
....|..|C-4 LF.A ....|R-- .... ....|R-- .... ....
....|..|C-4 LF.F ....|C#4 2F17 ....|C#4 2F17 ....
....|..|C-4 LF.A ....|C#4 2F17 ....|C#4 2F17 ....
....|..|C-4 LF.F ....|B-3 2F1F ....|B-3 2F1F ....
....|..|C-4 LF.A ....|B-3 2F1F ....|B-3 2F1F ....
....|..|C-4 LF.F ....|R-- .... ....|R-- .... ....
....|..|C-4 LF.A ....|B-3 2F1A ....|B-3 2F1A ....
....|..|C-4 LF.F ....|B-3 2F1A ....|B-3 2F1A ....
....|..|C-4 LF.A ....|R-- .... ....|R-- .... ....
....|..|C-4 LF.F ....|B-3 2F17 ....|B-3 2F17 ....
....|..|C-4 LF.A ....|B-3 2F17 ....|B-3 2F17 ....
....|..|C-4 LF.F ....|C#4 2F1F ....|C#4 2F1F ....
....|..|C-4 LF.A ....|C#4 2F1F ....|C#4 2F1F ....
....|..|C-4 LF.F ....|R-- .... ....|R-- .... ....
....|..|C-4 LF.A ....|C#4 2F1A ....|C#4 2F1A ....
....|..|C-4 LF.F ....|C#4 2F1A ....|C#4 2F1A ....
....|..|C-4 LF.A ....|R-- .... ....|R-- .... ....
....|..|C-4 LF.F ....|C#4 2F17 ....|C#4 2F17 ....
....|..|C-4 LF.A ....|C#4 2F17 ....|C#4 2F17 ....
....|..|C-4 LF.F ....|E-4 2F1F ....|E-4 2F1F ....
....|..|C-4 LF.A ....|E-4 2F1F ....|E-4 2F1F ....
....|..|C-4 LF.F ....|R-- .... ....|R-- .... ....
....|..|C-4 LF.A ....|E-4 2F1A ....|E-4 2F1A ....
....|..|C-4 LF.7 ....|E-4 2F1A ....|E-4 2F1A ....
....|..|C-4 LF.A ....|R-- .... ....|R-- .... ....
....|..|C-4 LF.F ....|E-4 2F17 ....|E-4 2F17 ....
....|..|R-- .... ....|E-4 2F17 ....|E-4 2F17 ....
....|..|C-4 LF.7 ....|D#4 2F1F ....|D#4 2F1F ....
....|..|C-4 LF.A ....|D#4 2F1F ....|D#4 2F1F ....
....|..|C-4 LF.F ....|R-- .... ....|R-- .... ....
....|..|R-- .... ....|D#4 2F1A ....|D#4 2F1A ....
....|..|C-4 LF.F ....|D#4 2F1A ....|D#4 2F1A ....
....|..|C-4 LF.A ....|R-- .... ....|R-- .... ....
....|..|C-4 LF.F ....|D#4 2F17 ....|D#4 2F17 ....
....|..|C-4 LF.A ....|D#4 2F17 ....|D#4 2F17 ....
....|..|C-4 LF.F ....|C#4 2F1F ....|C#4 2F1F ....
....|..|C-4 LF.A ....|C#4 2F1F ....|C#4 2F1F ....
....|..|C-4 LF.F ....|R-- .... ....|R-- .... ....
....|..|C-4 LF.A ....|C#4 2F1A ....|C#4 2F1A ....

[Pattern67]
 A-3|..|C-4 LF.F ....|A-1 2A.F ....|C#4 2F1A ....
....|..|C-4 LF.A ....|R-- .... ....|R-- .... ....
....|..|C-4 LF.F ....|C#4 2F17 ....|C#4 2F17 ....
....|..|C-4 LF.A ....|A-1 2F.A ....|C#4 2F17 ....
....|..|C-4 LF.F ....|C#4 2F1F ....|C#4 2F1F ....
....|..|C-4 LF.A ....|C#4 2F1F ....|C#4 2F1F ....
....|..|C-4 LF.F ....|A-1 2F.7 ....|R-- .... ....
....|..|C-4 LF.A ....|C#4 2F1A ....|C#4 2F1A ....
....|..|C-4 LF.F ....|C#4 2F1A ....|C#4 2F1A ....
....|..|C-4 LF.A ....|R-- .... ....|R-- .... ....
....|..|C-4 LF.F ....|C#4 2F17 ....|C#4 2F17 ....
....|..|C-4 LF.A ....|C#4 2F17 ....|C#4 2F17 ....
....|..|C-4 LF.F ....|B-3 2F1F ....|B-3 2F1F ....
....|..|C-4 LF.A ....|B-3 2F1F ....|B-3 2F1F ....
....|..|C-4 LF.F ....|R-- .... ....|R-- .... ....
....|..|C-4 LF.A ....|B-3 2F1A ....|B-3 2F1A ....
....|..|C-4 LF.7 ....|B-3 2F1A ....|B-3 2F1A ....
....|..|C-4 LF.A ....|R-- .... ....|R-- .... ....
....|..|C-4 LF.F ....|B-3 2F17 ....|B-3 2F17 ....
....|..|R-- .... ....|B-3 2F17 ....|B-3 2F17 ....
....|..|C-4 LF.7 ....|C#4 2F1F ....|C#4 2F1F ....
....|..|C-4 LF.A ....|C#4 2F1F ....|C#4 2F1F ....
....|..|C-4 LF.F ....|R-- .... ....|R-- .... ....
....|..|R-- .... ....|C#4 2F1A ....|C#4 2F1A ....
....|..|C-4 LF.F ....|C#4 2F1A ....|C#4 2F1A ....
....|..|C-4 LF.A ....|R-- .... ....|R-- .... ....
....|..|C-4 LF.F ....|C#4 2F17 ....|C#4 2F17 ....
....|..|C-4 LF.A ....|C#4 2F17 ....|C#4 2F17 ....
....|..|C-4 LF.F ....|B-3 2F1F ....|B-3 2F1F ....
....|..|C-4 LF.A ....|B-3 2F1F ....|B-3 2F1F ....
....|..|C-4 LF.F ....|R-- .... ....|R-- .... ....
....|..|C-4 LF.A ....|B-3 2F1A ....|B-3 2F1A ....
....|..|C-4 LF.F ....|B-3 2F1A ....|B-3 2F1A ....
....|..|C-4 LF.A ....|R-- .... ....|R-- .... ....
....|..|C-4 LF.F ....|B-3 2F17 ....|B-3 2F17 ....
....|..|C-4 LF.A ....|B-3 2F17 ....|B-3 2F17 ....
....|..|C-4 LF.F ....|C#4 2F1F ....|C#4 2F1F ....
....|..|C-4 LF.A ....|C#4 2F1F ....|C#4 2F1F ....
....|..|C-4 LF.F ....|R-- .... ....|R-- .... ....
....|..|C-4 LF.A ....|C#4 2F1A ....|C#4 2F1A ....
....|..|C-4 LF.F ....|C#4 2F1A ....|C#4 2F1A ....
....|..|C-4 LF.A ....|R-- .... ....|R-- .... ....
....|..|C-4 LF.F ....|C#4 2F17 ....|C#4 2F17 ....
....|..|C-4 LF.A ....|C#4 2F17 ....|C#4 2F17 ....
....|..|C-4 LF.F ....|F#4 2F1F ....|F#4 2F1F ....
....|..|C-4 LF.A ....|F#4 2F1F ....|F#4 2F1F ....
....|..|C-4 LF.F ....|R-- .... ....|R-- .... ....
....|..|C-4 LF.A ....|F#4 2F1A ....|F#4 2F1A ....
....|..|C-4 LF.7 ....|F#4 2F1A ....|F#4 2F1A ....
....|..|C-4 LF.A ....|R-- .... ....|R-- .... ....
....|..|C-4 LF.F ....|F#4 2F17 ....|F#4 2F17 ....
....|..|R-- .... ....|F#4 2F17 ....|F#4 2F17 ....
....|..|C-4 LF.7 ....|E-4 2F1F ....|E-4 2F1F ....
....|..|C-4 LF.A ....|E-4 2F1F ....|E-4 2F1F ....
....|..|C-4 LF.F ....|R-- .... ....|R-- .... ....
....|..|R-- .... ....|E-4 2F1A ....|E-4 2F1A ....
....|..|C-4 LF.F ....|E-4 2F1A ....|E-4 2F1A ....
....|..|C-4 LF.A ....|R-- .... ....|R-- .... ....
....|..|C-4 AF.F ....|E-4 2F17 ....|E-4 2F17 ....
....|..|C-4 LF.A ....|E-4 2F17 ....|E-4 2F17 ....
....|..|C-4 AF.F ....|C#4 2F1F ....|C#4 2F1F ....
....|..|C-4 AF.A ....|C#4 2F1F ....|C#4 2F1F ....
....|..|C-4 AF.F ....|R-- .... ....|R-- .... ....
....|..|C-4 AF.A ....|C#4 2F1A ....|C#4 2F1A ....

[Pattern68]
....|..|R-- .... ....|R-- .... ....|C#4 2F1A ....
....|..|C-4 AF.A ....|R-- .... ....|R-- .... ....
....|..|C-4 AF.7 ....|C#4 2F17 ....|C#4 2F17 ....
....|..|R-- .... ....|R-- .... ....|C#4 2F17 ....
....|..|C-4 AF.7 ....|--- .... ....|--- .... ....
....|..|R-- .... ....|R-- .... ....|R-- .... ....
....|..|R-- .... ....|R-- .... ....|R-- .... ....
....|..|--- .... ....|--- .... ....|--- .... ....
....|..|--- .... ....|R-- .... ....|R-- .... ....
