[Module]
VortexTrackerII=0
Version=3.5
Title=scrolleqs
Author=siril^4d 17.08.2012
NoteTable=4
ChipFreq=1750000
Speed=4
PlayOrder=L7,6,7,6,8,8,9,9,11,0,1,1,5,5,3,2,10,10,12,13,4,14,21,21,15,16,14,17,18,22,19,19,12,12,10,10,5,1,20

[Ornament1]
L0,0,7,7

[Ornament2]
L0,0,12,12

[Ornament3]
L0,5,9

[Ornament4]
L0

[Ornament5]
L0

[Ornament6]
L0

[Ornament7]
L0

[Ornament8]
L0

[Ornament9]
L0

[Ornament10]
L0,0,12,12,0,0,12,12,0,0

[Ornament11]
L0

[Ornament12]
L-12

[Ornament13]
L12

[Ornament14]
L12,12,0,0

[Ornament15]
L0

[Sample1]
tne +000_ +00_ 0_ L

[Sample2]
TnE +000_ +00_ F_ L

[Sample3]
TnE +001_ +00_ F_
TnE +002_ +00_ F_
TnE +001_ +00_ E_
TnE +002_ +00_ E_
TnE +000_ +00_ E_ L
TnE -001_ +00_ E_
TnE -002_ +00_ E_
TnE -001_ +00_ E_
TnE +000_ +00_ E_
TnE +001_ +00_ E_
TnE +002_ +00_ E_
TnE +001_ +00_ E_

[Sample4]
tne +000_ +00_ 0_ L

[Sample5]
tne +000_ +00_ 0_ L

[Sample6]
TnE -001_ +00_ F_ L

[Sample7]
TnE -006_ +00_ F_ L

[Sample8]
tne +000_ +00_ 0_ L

[Sample9]
TnE +080_ +00_ F_
TnE +100_ +00_ E_
TnE +180_ +00_ E_
TnE +200_ +00_ E_
TnE +240_ +00_ D_
TnE +280_ +00_ D_
TnE +2C0_ +00_ D_
TnE +300_ +00_ C_
TnE +300_ +00_ C_
TnE +340_ +00_ C_
TnE +340_ +00_ C_
TnE +380_ +00_ B_
TnE +380_ +00_ B_
TnE +400_ +00_ B_
TnE +400_ +00_ B_
TnE +480_ +00_ A_
TnE +500_ +00_ 9_
TnE +580_ +00_ 7_
TnE +600_ +00_ 4_
TnE +680_ +00_ 1_
TnE +000_ +00_ 0_ L

[Sample10]
TnE +1C0_ +00_ F_
TnE +280_ +00_ E_
TnE +380_ +00_ C_
TnE +440_ +00_ A_
TnE +480_ +00_ 8_
TnE +000_ +00_ 0_ L

[Sample11]
TNe +200_ -0A_ F_
tNe +000_ +0F_ A_
TNe +200_ -07_ E_
tNe +000_ +0E_ B- L

[Sample12]
TNE +0A0_ +05_ F_
TNE +140_ +02_ D_
TNE +140_ +02_ B_
TNE +100_ +00_ A_ L
TNE +140_ +00_ A_
TNE +200_ +00_ A-

[Sample13]
tne +000_ +00_ 0_ L

[Sample14]
tne +000_ +00_ 0_ L

[Sample15]
TNE -100_ +00_ 5_
TNE -100_ +00_ 8_
TNE -100_ +00_ B_
TNE -100_ +00_ F_
TNe -100_ +00_ 9- L

[Sample16]
TnE +000_ +00_ C_
TnE +000_ +00_ E_
TnE +000_ +00_ F_
TnE +000_ +00_ F_
TnE +000_ +00_ E_
TnE +000_ +00_ D_
TnE +000_ +00_ C_
TnE +000_ +00_ C_ L
TnE +001_ +00_ C_
TnE +002_ +00_ C_
TnE +003_ +00_ C_
TnE +001_ +00_ C_
TnE +000_ +00_ C_
TnE -001_ +00_ C_
TnE -002_ +00_ C_
TnE -003_ +00_ C_
TnE -001_ +00_ C_
TnE +000_ +00_ C_
TnE +000_ +00_ C_

[Sample17]
tne +000_ +00_ 0_ L

[Sample18]
tne +000_ +00_ 0_ L

[Sample19]
tne +000_ +00_ 0_ L

[Sample20]
TNE +140_ +00_ F_
tNE +000_ +00_ B- L

[Sample21]
tne +000_ +00_ 0_ L

[Sample22]
TnE +000_ +00_ D_ L
TnE +000_ +00_ D_
tne +000_ +00_ 9_
tne +000_ +00_ 9_
TnE +000_ +00_ D_
TnE +000_ +00_ D_
tne +000_ +00_ 9_
tne +000_ +00_ 9_
TnE +000_ +00_ D_
TnE +000_ +00_ D_
TnE +000_ +00_ D_
TnE +000_ +00_ D_
TnE +000_ +00_ D_
TnE +000_ +00_ D_
tne +000_ +00_ 9_
tne +000_ +00_ 9_

[Sample23]
tne +000_ +00_ 0_ L

[Sample24]
TNe +000_ -01_ C_
TNe +000_ -01_ D_
TNe +000_ -01_ E_
TNe +000_ -01_ F_
TNe +000_ -01_ F_
TNe +000_ -01_ F_
TNe +000_ -01_ F_
TNe +000_ -01_ F_
TNe +000_ -01_ E_
TNe +000_ -01_ E_
TNe +000_ -01_ E_
TNe +000_ -01_ F_
TNe +000_ -01_ F_ L

[Sample25]
tne +000_ +00_ 0_ L

[Sample26]
tne +000_ +00_ 0_ L

[Sample27]
tne +000_ +00_ 0_ L

[Sample28]
tne +000_ +00_ 0_ L

[Sample29]
tnE +000_ +00_ 0_ L

[Sample30]
TNE +000_ +00_ C+ L

[Sample31]
TNe +1C0_ +00_ F_
Tne +280_ +00_ E_
Tne +380_ +00_ C_
Tne +440_ +00_ A_
Tne +480_ +00_ 8_
TnE +000_ +00_ 0_ L

[Pattern0]
 D-3|..|D-2 2C.F ....|D-3 2CFF B..5|D-3 3F2F ....
....|..|--- .... ....|D-3 .F2. ....|D-5 .F.A ....
....|..|--- .... ....|C-5 .F.A B..3|C-4 2... ....
....|..|--- .... ....|D-3 .... ....|D-3 3.2. ....
....|..|--- .... ....|D-5 ...F B..5|D-5 .F.F ....
....|..|--- .... ....|R-- .... ....|R-- .... ....
.200|..|D-4 .8.. ....|D-5 ...7 B..3|D-3 ..27 ....
....|..|--- .... ....|D-4 ...A ....|D-5 .F.A ....
 D-4|..|D-3 .C.. ....|D-3 .CFF B..5|D-3 ..2F ....
....|..|--- .... ....|D-3 .F2. ....|R-- .... ....
....|..|--- .... ....|D-5 .F.7 B..3|D-5 .F.7 ....
....|..|--- .... ....|D-3 ...A ....|D-3 ..2A ....
 D-1|..|D-1 .C.. ....|E-5 ...F B..5|E-5 .F.F ....
....|..|--- .... ....|R-- .... ....|R-- .... ....
 D-2|..|D-2 .C.. ....|D-3 ..2A B..3|D-3 2..A ....
....|..|--- .... ....|E-4 .F.. ....|E-5 3... ....
 C-3|..|C-3 .C.. ....|C-3 .CFF B..5|C-3 ...F ....
....|..|--- .... ....|C-3 .F.. ....|R-- .... ....
....|..|--- .... ....|E-5 ...A B..3|E-4 2..A ....
....|..|--- .... ....|C-4 .... ....|C-3 3... ....
....|..|--- .... ....|G-5 ...F B..5|G-5 ...F ....
....|..|--- .... ....|R-- .... ....|R-- .... ....
....|..|--- .... ....|C-3 ...A B..3|C-4 2..A ....
....|..|--- .... ....|G-4 .... ....|G-5 3... ....
 C-2|..|C-2 .8.. 11.2|G-5 ...F B..5|G-5 ...F ....
....|..|--- .... 1...|R-- .... ....|R-- .... ....
....|..|--- .... ....|F-5 .... B..3|F-5 .... ....
....|..|--- .... ....|G-4 ...A ....|G-5 ...A ....
....|..|--- .... ....|E-5 ...F B..5|E-5 ...F ....
....|..|--- .... ....|F-4 ...A ....|F-5 ...A ....
.32D|..|C-3 .8.. 21.1|D-5 ...F B..3|D-5 ...F ....
....|..|--- .... ....|E-4 ...A ....|E-5 ...A ....
 F-2|..|F-1 .A.. ....|F-3 .CFF B..5|F-3 ...F ....
....|..|--- .... ....|F-3 .F.. ....|D-5 ...A ....
....|..|--- .... ....|E-5 ...A B..3|E-4 2... ....
....|..|--- .... ....|F-4 .... ....|F-3 3... ....
....|..|E-2 .... ....|C-5 ...F B..5|C-5 ...F ....
....|..|--- .... ....|R-- .... ....|R-- .... ....
....|..|--- .... ....|F-5 ...7 B..3|F-3 ...7 ....
....|..|--- .... ....|C-4 ...A ....|C-5 ...A ....
 F-4|..|F-3 .C.. ....|F-3 .CFF B..5|F-3 ...F ....
....|..|--- .... ....|F-3 .F.. ....|R-- .... ....
 F-2|..|F-1 .A.. 11.6|D-5 ...7 B..3|C-5 ...7 ....
....|..|--- .... ....|F-4 ...A ....|F-3 ...A ....
....|..|--- .... 1...|D-5 ...F B..5|D-5 ...F ....
....|..|--- .... ....|R-- .... ....|R-- .... ....
....|..|--- .... ....|F-3 ...A B..3|F-4 2..A ....
....|..|--- .... ....|D-4 .... ....|D-5 3... ....
 F-4|..|F-3 .C.. ....|F-3 .CFF B..5|F-3 ...F ....
....|..|--- .... ....|F-3 .F.. ....|R-- .... ....
....|..|--- .... ....|D-5 ...A B..3|D-4 2..A ....
....|..|--- .... ....|F-4 .... ....|F-3 3... ....
....|..|--- .... ....|F-5 ...F B..5|F-5 ...F ....
....|..|--- .... ....|R-- .... ....|R-- .... ....
....|..|--- .... ....|F-3 ...A B..3|F-4 2..A ....
....|..|--- .... ....|F-4 .... ....|F-5 3... ....
 F-1|..|F-1 .C.. 11.3|E-5 ...F B..5|E-5 ...F ....
....|..|--- .... ....|R-- .... ....|R-- .... ....
....|..|--- .... 1...|D-5 .... B..3|D-5 .... ....
....|..|--- .... ....|E-4 ...A ....|E-5 ...A ....
.344|..|F-2 .C.. ....|C-5 ...F B..5|C-5 ...F ....
....|..|--- .... ....|D-4 ...A ....|D-5 ...A ....
....|..|--- .... ....|D-5 ...F B..3|D-5 ...F ....
....|..|--- .... ....|C-4 ...A ....|C-5 ...A ....

[Pattern1]
 D-3|..|D-1 2C.F ....|C-4 9F.F B..5|D-3 3F2F ....
....|..|--- .... ....|--- .... ....|D-5 .F.A ....
....|..|D-2 .... ....|C-4 .... B..3|C-4 2... ....
....|..|--- .... ....|--- .... ....|D-3 3.2. ....
....|..|D-1 .... ....|C-4 ...D B..5|D-5 .F.F ....
....|..|--- .... ....|--- .... ....|R-- .... ....
.200|..|D-4 .8.. ....|C-4 .... B..3|D-3 ..27 ....
....|..|--- .... ....|--- .... ....|D-5 .F.A ....
 D-4|..|D-3 .C.. ....|C-4 K..A B..5|D-3 ..2F ....
....|..|--- .... ....|--- .... ....|R-- .... ....
 D-3|..|D-1 .C.. ....|C-4 ...B B..3|D-5 .F.7 ....
....|..|--- .... ....|--- .... ....|D-3 ..2A ....
 D-1|..|D-1 .C.. ....|C-4 C..F B..5|E-5 .F.F ....
....|..|--- .... ....|--- .... ....|R-- .... ....
 D-2|..|D-2 .C.. ....|D-1 2C.B B..3|D-3 2..A ....
....|..|--- .... ....|--- .... ....|E-5 3... ....
 C-3|..|C-3 .C.. ....|C-4 VF.F B..5|C-3 ...F ....
....|..|--- .... ....|--- .... ....|R-- .... ....
....|..|--- .... ....|C-3 9..6 B..3|E-4 2..A ....
....|..|--- .... ....|--- .... ....|C-3 3... ....
.300|..|--- .... ....|C-3 2C.B B..5|G-5 ...F ....
....|..|--- .... ....|--- .... ....|R-- .... ....
....|..|--- .... ....|C-4 VF.C B..3|C-4 2..A ....
....|..|--- .... ....|--- .... ....|G-5 3... ....
.35A|..|C-2 .8.. 11.2|C-4 K..A B..5|G-5 ...F ....
....|..|--- .... 1...|--- .... ....|R-- .... ....
....|..|--- .... ....|C-4 ...B B..3|F-5 .... ....
....|..|--- .... ....|--- .... ....|G-5 ...A ....
....|..|--- .... ....|C-4 9..A B..5|E-5 ...F ....
....|..|--- .... ....|--- .... ....|F-5 ...A ....
 C-3|..|C-3 .8.. 21.1|C-2 2.2B B..3|D-5 ...F ....
....|..|--- .... ....|--- .... ....|E-5 ...A ....
 F-2|..|F-1 .A.. ....|C-4 9F.F B..5|F-3 ...F ....
....|..|--- .... ....|--- .... ....|D-5 ...A ....
....|..|--- .... ....|C-4 .... B..3|E-4 2... ....
....|..|--- .... ....|--- .... ....|F-3 3... ....
....|..|E-2 .... ....|C-4 ...D B..5|C-5 ...F ....
....|..|--- .... ....|--- .... ....|R-- .... ....
....|..|--- .... ....|C-4 .... B..3|F-3 ...7 ....
....|..|--- .... ....|--- .... ....|C-5 ...A ....
 F-4|..|F-3 .C.. ....|F-2 7C.. B..5|F-3 ...F ....
....|..|--- .... ....|--- .... ....|R-- .... ....
 F-2|..|F-1 .A.. 11.6|C-4 9F.C B..3|C-5 ...7 ....
....|..|--- .... ....|--- .... ....|F-3 ...A ....
....|..|--- .... 1...|F-2 2.2B B..5|D-5 ...F ....
....|..|--- .... ....|--- .... ....|R-- .... ....
....|..|--- .... ....|--- .... B..3|F-4 2..A ....
....|..|--- .... ....|--- .... ....|D-5 3... ....
 F-4|..|F-3 .C.. ....|C-4 VF.F B..5|F-3 ...F ....
....|..|--- .... ....|--- .... ....|R-- .... ....
....|..|--- .... ....|F-4 2.2B B..3|D-4 2..A ....
....|..|--- .... ....|--- .... ....|F-3 3... ....
....|..|--- .... ....|--- .... B..5|F-5 ...F ....
....|..|--- .... ....|--- .... ....|R-- .... ....
....|..|--- .... ....|C-4 VF.C B..3|F-4 2..A ....
....|..|--- .... ....|--- .... ....|F-5 3... ....
.287|..|F-1 .8.. 11.3|F-3 2.2B B..5|E-5 ...F ....
....|..|--- .... ....|--- .... ....|R-- .... ....
....|..|--- .... 1...|--- .... B..3|D-5 .... ....
....|..|--- .... ....|--- .... ....|E-5 ...A ....
 F-3|..|F-2 .C.. ....|C-4 VF.9 B..5|C-5 ...F ....
....|..|--- .... ....|--- .... ....|D-5 ...A ....
....|..|--- .... ....|--- .... B..3|D-5 ...F ....
....|..|--- .... ....|--- .... ....|C-5 ...A ....

[Pattern2]
 D-2|..|D-1 2A.F ....|D-3 9FFF B..5|F-4 3F.F ....
....|..|--- .... ....|F-4 2F.. ....|D-5 ...A ....
....|..|--- .... ....|C-5 ...A B..3|C-4 2... ....
....|..|--- .... ....|R-- .... ....|F-4 3... ....
.200|..|D-1 .EE. ....|D-4 K..F B..5|D-5 ...7 ....
....|..|--- .... ....|--- .... ....|--- .... ....
....|..|--- .... ....|D-5 2..7 B..3|F-4 .... ....
....|..|--- .... ....|D-4 K..F ....|--- .... ....
....|..|--- .... ....|C-5 2..7 B..5|C-4 2... ....
....|..|--- .... ....|--- .... ....|--- .... ....
....|..|--- .... ....|D-4 A..F B..3|D-4 .... ....
....|..|--- .... ....|--- .... ....|--- .... ....
....|..|--- .... ....|G-4 2... B..5|G-4 3..F ....
 D-3|..|D-2 .A.. ....|--- .... ....|--- .... ....
....|..|--- .... ....|--- .... B..3|--- .... ....
....|..|--- .... ....|--- .... ....|G-4 ...A ....
 F-3|..|F-2 .A.. ....|F-5 O.F. B..5|A-4 ...F ....
....|..|--- .... ....|D-5 KF.A ....|--- .... ....
....|..|--- .... ....|G-4 2... B..3|G-4 ...7 ....
....|..|--- .... ....|--- .... ....|A-4 ...A ....
.100|..|F-6 .9.. ....|--- .... B..5|--- .... ....
.100|..|F-5 .9.. ....|--- .... ....|--- .... ....
.100|..|F-4 .9.. ....|D-5 9..F B..3|A-4 ...7 ....
.100|..|F-3 .9.. ....|--- .... ....|--- .... ....
.400|..|F-2 .A.. ....|C-5 2... B..5|C-5 ...F ....
....|..|--- .... ....|D-4 9..E ....|--- .... ....
....|..|--- .... ....|--- .... B..3|--- .... ....
....|..|--- .... ....|--- .... ....|C-5 ...A ....
....|..|--- .... ....|D-3 ...D B..5|--- .... ....
....|..|--- .... ....|--- .... ....|--- .... ....
....|..|--- .... ....|C-5 2..A B..3|C-5 ...7 ....
....|..|--- .... ....|--- .... ....|--- .... ....
 A#3|..|A#1 .A.. ....|D-3 9.FF B..5|F-4 ...F ....
....|..|--- .... ....|F-4 2F.. ....|--- .... ....
....|..|--- .... ....|--- .... B..3|--- .... ....
....|..|--- .... ....|--- .... ....|F-4 ...A ....
.133|..|A#5 .9.. ....|D-4 K... B..5|--- .... ....
....|..|A#1 .F.. ....|--- .... ....|--- .... ....
....|..|A#1 .... ....|F-4 2..A B..3|F-4 ...7 ....
.100|..|A#5 .9.. ....|D-4 B..D ....|--- .... ....
....|..|A#1 .F.. ....|--- .... B..5|--- .... ....
....|..|A#1 .... ....|--- .... ....|--- .... ....
.200|..|A#5 .9.. ....|D-4 ...C B..3|--- .... ....
....|..|--- .... ....|--- .... ....|--- .... ....
 A#3|..|A#3 .C.. ....|F-4 2..7 B..5|--- .... ....
....|..|--- .... ....|--- .... ....|--- .... ....
....|..|--- .... ....|--- .... B..3|--- .... ....
....|..|--- .... ....|--- .... ....|--- .... ....
 A#2|..|A#1 .C.. ....|A#3 A..D B..5|--- .... ....
....|..|--- .... ....|--- .... ....|--- .... ....
....|..|--- .... ....|A#3 .... B..3|--- .... ....
....|..|--- .... ....|A#3 K... ....|--- .... ....
....|..|--- .... ....|A#3 A... B..5|--- .... ....
....|..|--- .... ....|--- .... ....|--- .... ....
....|..|--- .... ....|A#3 F... B..3|R-- .... ....
....|..|--- .... ....|--- .... ....|--- .... ....
.300|..|A-4 .9.. ....|A-4 A..F B..5|A-4 ...F ....
 A-3|..|A-2 .A.. ....|--- .... ....|R-- .... ....
....|..|--- .... ....|G-4 2... B..3|G-4 .... ....
.300|..|A-4 .9.. ....|--- .... ....|A-4 ...A ....
 A-3|..|A-2 .A.. ....|F-4 .... B..5|F-4 ...F ....
....|..|--- .... ....|--- .... ....|G-4 ...A ....
.100|..|A-2 .A.. ....|E-4 .... B..3|E-4 ...F ....
....|..|--- .... ....|--- .... ....|F-4 ...A ....

[Pattern3]
 D-2|..|D-1 2A.F ....|D-2 2AFF B..5|F-4 3F.F ....
....|..|--- .... ....|F-4 .F.. ....|E-4 ...A ....
....|..|--- .... ....|F-4 ...A B..3|F-4 ...7 ....
....|..|--- .... ....|--- .... ....|F-4 ...A ....
.200|..|D-1 .EE. ....|A-4 ...7 B..5|E-4 .8.7 ....
....|..|--- .... ....|--- .... ....|--- .... ....
.100|..|--- .... ....|G-4 .... B..3|F-4 .E.. ....
....|..|--- .... ....|--- .... ....|--- .... ....
....|..|--- .... ....|F-4 .... B..5|--- .... ....
....|..|--- .... ....|--- .... ....|--- .... ....
....|..|--- .... ....|E-4 .... B..3|--- .... ....
....|..|--- .... ....|--- .... ....|--- .... ....
....|..|--- .... ....|G-4 ...F B..5|G-4 .F.F ....
 D-3|..|D-2 .A.. ....|D-2 .A.. ....|--- .... ....
....|..|--- .... ....|--- .... B..3|--- .... ....
....|..|--- .... ....|--- .... ....|G-4 ...A ....
 F-3|..|F-2 .A.. ....|F-2 .AF. B..5|A-4 ...F ....
....|..|--- .... ....|A-4 .F.. ....|--- .... ....
....|..|--- .... ....|G-4 ...A B..3|G-4 ...7 ....
....|..|--- .... ....|--- .... ....|A-4 ...A ....
.100|..|A-6 .9.. ....|--- .... B..5|--- .... ....
.100|..|A-5 .9.. ....|--- .... ....|--- .... ....
.100|..|A-4 .9.. ....|A-4 .... B..3|A-4 ...7 ....
.100|..|A-3 .9.. ....|--- .... ....|--- .... ....
.400|..|A-2 .82. ....|C-5 .8.F B..5|C-5 .8.F ....
....|..|--- .... ....|--- .... ....|--- .... ....
....|..|--- .... ....|--- .... B..3|--- .... ....
....|..|--- .... ....|--- .... ....|C-5 ...A ....
....|..|--- .... ....|A-4 .F.7 B..5|--- .... ....
....|..|--- .... ....|--- .... ....|--- .... ....
....|..|--- .... ....|C-5 ...A B..3|C-5 .F.7 ....
....|..|--- .... ....|--- .... ....|--- .... ....
 A#3|..|A#1 .A.. ....|A#1 .AFF B..5|F-4 ...F ....
....|..|--- .... ....|F-4 .F.. ....|--- .... ....
....|..|--- .... ....|--- .... B..3|--- .... ....
....|..|--- .... ....|--- .... ....|F-4 ...A ....
.133|..|C-6 .9.. ....|C-5 ...7 B..5|--- .... ....
....|..|C-1 .F.. ....|--- .... ....|--- .... ....
....|..|C-1 .... ....|F-4 ...A B..3|F-4 .A.7 ....
.100|..|C-6 .9.. ....|--- .... ....|--- .... ....
....|..|C-1 .F.. ....|--- .... B..5|--- .... ....
....|..|C-1 .... ....|--- .... ....|--- .... ....
.200|..|F-6 .9.. ....|--- .... B..3|--- .... ....
....|..|--- .... ....|--- .... ....|--- .... ....
 A#3|..|A#3 .C.. ....|F-4 ...7 B..5|--- .... ....
....|..|--- .... ....|--- .... ....|--- .... ....
....|..|--- .... ....|--- .... B..3|--- .... ....
....|..|--- .... ....|--- .... ....|--- .... ....
 A#2|..|A#1 .C.. ....|A#1 .C.. B..5|--- .... ....
....|..|--- .... ....|--- .... ....|--- .... ....
....|..|--- .... ....|--- .... B..3|--- .... ....
....|..|--- .... ....|--- .... ....|--- .... ....
....|..|--- .... ....|--- .... B..5|--- .... ....
....|..|--- .... ....|--- .... ....|--- .... ....
....|..|--- .... ....|R-- .... B..3|R-- .... ....
....|..|--- .... ....|--- .... ....|--- .... ....
.300|..|A-4 .8.. ....|A-4 .8.F B..5|A-4 .8.F ....
 A-3|..|A-2 .A.. ....|--- .... ....|R-- .... ....
....|..|--- .... ....|G-4 .F.. B..3|G-4 .F.. ....
.300|..|A-4 .9.. ....|--- .... ....|A-4 ...A ....
 A-3|..|A-2 .A.. ....|F-4 .... B..5|F-4 ...F ....
....|..|--- .... ....|--- .... ....|G-4 ...A ....
.100|..|A-2 .A.. ....|E-4 .... B..3|E-4 ...F ....
....|..|--- .... ....|--- .... ....|F-4 ...A ....

[Pattern4]
 D#4|..|D#2 2AFF ....|A#4 2FF7 B..5|D#2 7A.F ....
....|..|--- .... ....|--- .... ....|--- .... ....
....|..|--- .... ....|G-4 ...F B..3|--- .... 11.2
....|..|--- .... ....|--- .... ....|--- .... ....
....|..|--- .... ....|F-4 .... B..5|F-2 .F.A ....
....|..|--- .... ....|--- .... ....|--- .... ....
 D#4|..|D#2 .A.. ....|G-4 .... B..3|--- .... ....
....|..|--- .... ....|--- .... ....|--- .... ....
 D#2|..|D#2 .C.. ....|A#4 .... B..5|G-2 ...7 ....
....|..|--- .... ....|--- .... ....|--- .... ....
....|..|--- .... ....|F-4 ...7 B..3|--- .... ....
....|..|--- .... ....|--- .... ....|--- .... ....
 F-4|..|F-2 .AF. ....|G-4 ...F B..5|F-2 .A.F ....
....|..|--- .... ....|--- .... ....|--- .... ....
 G-4|..|G-2 .... ....|D-5 .... B..3|G-2 .A.. ....
....|..|--- .... ....|--- .... ....|--- .... ....
 F-4|..|F-2 .AF. ....|C-5 .... B..5|F-2 .A.. ....
....|..|--- .... ....|--- .... ....|--- .... ....
....|..|C-2 7F2B ....|A#4 .... B..3|C-3 .... ....
....|..|--- .... ....|--- .... ....|--- .... ....
....|..|--- .... ....|F-4 .... B..5|F-2 .... ....
....|..|--- .... ....|--- .... ....|--- .... ....
....|..|C-3 2.FA ....|C-5 ...A B..3|C-3 .... ....
....|..|--- .... ....|--- .... ....|--- .... ....
 D#4|..|D#1 .AFF ....|A#4 ...F B..5|D#2 .F.7 ....
....|..|--- .... ....|--- .... ....|--- .... ....
....|..|--- .... ....|A-4 .... B..3|G-2 ...A ....
....|..|--- .... ....|--- .... ....|--- .... ....
....|..|F-3 .F27 ....|F-4 .... B..5|F-2 .... ....
....|..|--- .... ....|--- .... ....|--- .... ....
....|..|D#2 ...A ....|D#4 .... B..3|--- .... ....
....|..|--- .... ....|--- .... ....|--- .... ....
 G-4|..|G-2 .A.F ....|D-4 .... B..5|G-2 .A.F ....
....|..|--- .... ....|--- .... ....|--- .... ....
....|..|--- .... ....|C-4 .... B..3|--- .... ....
....|..|--- .... ....|--- .... ....|--- .... ....
....|..|F-2 .FF7 ....|A#3 .... B..5|F-2 .F.7 ....
....|..|--- .... ....|--- .... ....|--- .... ....
....|..|G-2 ...A ....|F-4 .... B..3|G-2 .... ....
....|..|--- .... ....|--- .... ....|--- .... ....
.100|..|F-4 F9.F ....|A#3 .... B..5|F-2 .... ....
....|..|--- .... ....|--- .... ....|--- .... ....
.200|..|F-4 .9.. ....|G-3 .... B..3|--- .... ....
....|..|--- .... ....|--- .... ....|--- .... ....
 G-4|..|G-2 2AF. ....|A#3 .... B..5|G-2 ...A ....
....|..|--- .... ....|--- .... ....|--- .... ....
.100|..|F-4 F9.. ....|D-4 .... B..3|--- .... ....
....|..|--- .... ....|--- .... ....|--- .... ....
 G-4|..|G-2 2AF. ....|G-5 .... B..5|G-2 .A.F ....
....|..|--- .... ....|--- .... ....|--- .... ....
....|..|F-2 .FFA ....|D-5 .... B..3|--- .... ....
....|..|R-- .... ....|--- .... ....|--- .... ....
....|..|--- .... ....|A#4 .... B..5|--- .... ....
....|..|R-- .... ....|--- .... ....|--- .... ....
....|..|F-2 .... ....|G-4 .... B..3|--- .... ....
....|..|--- .... ....|--- .... ....|--- .... ....
 F-4|..|F-2 .A.F ....|F-5 .... B..5|F-2 .A.. ....
.100|..|F-5 .9.. ....|--- .... ....|--- .... ....
.200|..|F-5 .9.. ....|A#4 .... B..3|--- .... ....
.300|..|F-5 .9.. ....|--- .... ....|--- .... ....
....|..|F-2 .AF. ....|G-4 .... B..5|G-2 .F.A ....
....|..|R-- .... ....|--- .... ....|--- .... ....
....|..|--- .... ....|F-4 .... B..3|--- .... ....
....|..|R-- .... ....|--- .... ....|--- .... ....

[Pattern5]
 D-2|..|D-1 2A.F ....|C-4 9F.F B..5|F-4 3F.F ....
....|..|--- .... ....|--- .... ....|E-4 ...A ....
....|..|--- .... ....|C-4 .... B..3|F-4 ...7 ....
....|..|--- .... ....|--- .... ....|F-4 ...A ....
.200|..|D-1 .EE. ....|C-4 ...D B..5|E-4 .8.7 ....
....|..|--- .... ....|--- .... ....|--- .... ....
.100|..|--- .... ....|C-4 .... B..3|F-4 .E.. ....
....|..|--- .... ....|--- .... ....|--- .... ....
....|..|--- .... ....|C-4 K..A B..5|--- .... ....
....|..|--- .... ....|--- .... ....|--- .... ....
....|..|--- .... ....|C-4 ...B B..3|--- .... ....
....|..|--- .... ....|--- .... ....|--- .... ....
....|..|--- .... ....|C-4 C..F B..5|G-4 .F.F ....
 D-3|..|D-2 .A.. ....|D-1 2C.B ....|--- .... ....
....|..|--- .... ....|--- .... B..3|--- .... ....
....|..|--- .... ....|--- .... ....|G-4 ...A ....
 F-3|..|F-2 .A.. ....|C-4 VF.F B..5|A-4 ...F ....
....|..|--- .... ....|--- .... ....|--- .... ....
....|..|--- .... ....|C-3 9..6 B..3|G-4 ...7 ....
....|..|--- .... ....|--- .... ....|A-4 ...A ....
.100|..|F-6 .9.. ....|F-3 2C.B B..5|--- .... ....
.100|..|F-5 .9.. ....|--- .... ....|--- .... ....
.100|..|F-4 .9.. ....|C-4 VF.C B..3|A-4 ...7 ....
.100|..|F-3 .9.. ....|--- .... ....|--- .... ....
.300|..|F-2 .8.. ....|C-4 K..A B..5|C-5 .8.F ....
....|..|--- .... ....|--- .... ....|--- .... ....
....|..|--- .... ....|C-4 ...B B..3|--- .... ....
....|..|--- .... ....|--- .... ....|C-5 ...A ....
....|..|--- .... ....|C-4 9..A B..5|--- .... ....
....|..|--- .... ....|--- .... ....|--- .... ....
....|..|--- .... ....|C-2 2.2B B..3|C-5 ...7 ....
....|..|--- .... ....|--- .... ....|--- .... ....
 A#3|..|A#1 .A.. ....|C-4 9F.F B..5|F-4 .F.F ....
....|..|--- .... ....|--- .... ....|--- .... ....
....|..|--- .... ....|C-4 .... B..3|--- .... ....
....|..|--- .... ....|--- .... ....|F-4 ...A ....
.133|..|A#5 .9.. ....|C-4 ...D B..5|--- .... ....
....|..|A#1 .F.. ....|--- .... ....|--- .... ....
....|..|A#1 .... ....|C-4 .... B..3|F-4 .A.7 ....
.100|..|A#5 .9.. ....|A#3 7C.. ....|--- .... ....
....|..|A#1 .F.. ....|--- .... B..5|--- .... ....
....|..|A#1 .... ....|--- .... ....|--- .... ....
.200|..|A#5 .9.. ....|C-4 9F.C B..3|--- .... ....
....|..|--- .... ....|--- .... ....|--- .... ....
 A#3|..|A#3 .C.. ....|F-2 2.2B B..5|--- .... ....
....|..|--- .... ....|--- .... ....|--- .... ....
....|..|--- .... ....|--- .... B..3|--- .... ....
....|..|--- .... ....|--- .... ....|--- .... ....
 A#2|..|A#1 .C.. ....|C-4 VF.F B..5|--- .... ....
....|..|--- .... ....|--- .... ....|--- .... ....
....|..|--- .... ....|A#4 2.2B B..3|--- .... ....
....|..|--- .... ....|--- .... ....|--- .... ....
....|..|--- .... ....|--- .... B..5|--- .... ....
....|..|--- .... ....|--- .... ....|--- .... ....
....|..|--- .... ....|C-4 VF.C B..3|R-- .... ....
....|..|--- .... ....|--- .... ....|--- .... ....
.300|..|A-4 .8.. ....|A-3 2.2B B..5|A-4 .8.F ....
 A-3|..|A-2 .A.. ....|--- .... ....|R-- .... ....
....|..|--- .... ....|--- .... B..3|G-4 .F.. ....
.300|..|A-4 .9.. ....|--- .... ....|A-4 ...A ....
 A-3|..|A-2 .A.. ....|C-4 VF.9 B..5|F-4 ...F ....
....|..|--- .... ....|--- .... ....|G-4 ...A ....
.100|..|A-2 .A.. ....|--- .... B..3|E-4 ...F ....
....|..|--- .... ....|--- .... ....|F-4 ...A ....

[Pattern6]
 A#3|..|A#1 2AFF B..4|C-4 9F.F B...|--- .... ....
....|..|--- .... ....|--- .... ....|--- .... ....
 A-3|..|A-1 .A.. ....|C-4 .... B...|--- .... ....
....|..|--- .... ....|--- .... ....|--- .... ....
 D-3|..|D-1 .A.. ....|C-4 ...D B...|--- .... ....
....|..|--- .... ....|--- .... ....|--- .... ....
 A#3|..|A#1 .A.. ....|C-4 .... B...|--- .... ....
....|..|--- .... ....|--- .... ....|--- .... ....
 A-3|..|A-1 .A.. ....|C-4 K..A B...|--- .... ....
....|..|--- .... ....|--- .... ....|--- .... ....
 D-3|..|D-1 .A.. ....|E-5 2..B B...|--- .... ....
....|..|--- .... ....|--- .... ....|--- .... ....
 D-4|..|D-2 .AF. ....|A-4 .... B...|--- .... ....
....|..|--- .... ....|A-4 ..1. ....|--- .... ....
....|..|--- .... ....|F-5 .F.. B...|--- .... ....
....|..|--- .... ....|--- .... ....|--- .... ....
 G-4|..|G-2 .AF. ....|C-4 9..F B...|--- .... ....
....|..|--- .... ....|--- .... ....|--- .... ....
.200|..|G-3 7... ....|C-4 .... B...|--- .... ....
....|..|--- .... ....|--- .... ....|--- .... ....
....|..|--- .... ....|C-4 ...D B...|--- .... ....
....|..|--- .... ....|--- .... ....|--- .... ....
....|..|G-1 2FFA ....|C-4 .... B...|--- .... ....
....|..|--- .... ....|--- .... ....|--- .... ....
 G#4|..|G#2 .AFF ....|C-4 K..A B...|--- .... ....
....|..|--- .... ....|--- .... ....|--- .... ....
 G-4|..|G-2 .A.. ....|A-4 2..C B...|--- .... ....
....|..|--- .... ....|C-5 .... ....|--- .... ....
 D-4|..|D-2 .A27 ....|A-4 .... B...|--- .... ....
....|..|--- .... ....|E-5 .... ....|--- .... ....
 G#4|..|G#2 .A.A ....|F-5 .... B...|--- .... ....
....|..|--- .... ....|A-4 ..14 ....|--- .... ....
 G-4|..|G-2 .A2F ....|C-4 9F.F B...|--- .... ....
....|..|--- .... ....|--- .... ....|--- .... ....
 D-4|..|D-2 .A.. ....|C-4 .... B...|--- .... ....
....|..|--- .... ....|--- .... ....|--- .... ....
....|..|G-2 .FF7 ....|C-4 ...D B...|--- .... ....
....|..|--- .... ....|--- .... ....|--- .... ....
....|..|G-2 ...A ....|C-4 .... B...|--- .... ....
....|..|--- .... ....|--- .... ....|--- .... ....
.100|..|G-2 F9.. ....|C-4 K..A B...|--- .... ....
.100|..|--- .... ....|--- .... ....|--- .... ....
.100|..|G-2 .9.. ....|E-5 2..D B...|--- .... ....
....|..|--- .... ....|--- .... ....|--- .... ....
 F-3|..|G-2 2AFF ....|A-4 .... B...|--- .... ....
....|..|--- .... ....|A-4 ..1. ....|--- .... ....
.200|..|G-2 F9.. ....|F-5 .F.. B...|--- .... ....
....|..|--- .... ....|--- .... ....|--- .... ....

[Pattern7]
 C-4|..|C-2 2AFF B..4|C-4 9F.F ....|R-- .... ....
....|..|--- .... ....|--- .... ....|--- .... ....
....|..|--- .... ....|C-4 .... ....|--- .... ....
....|..|--- .... ....|--- .... ....|--- .... ....
....|..|--- .... ....|C-4 ...D ....|--- .... ....
....|..|--- .... ....|--- .... ....|--- .... ....
....|..|C-3 .... ....|C-4 .... ....|--- .... ....
....|..|--- .... ....|--- .... ....|--- .... ....
....|..|--- .... ....|C-4 K..A ....|--- .... ....
....|..|--- .... ....|--- .... ....|--- .... ....
....|..|--- .... ....|E-5 2..B ....|--- .... ....
....|..|--- .... ....|--- .... ....|--- .... ....
 E-4|..|E-2 .AF. ....|A-4 .... ....|--- .... ....
....|..|--- .... ....|A-4 ..1. ....|--- .... ....
....|..|--- .... ....|F-5 .F.. ....|--- .... ....
....|..|--- .... ....|--- .... ....|--- .... ....
 F-4|..|F-2 .AF. ....|C-4 9..F ....|--- .... ....
....|..|--- .... ....|--- .... ....|--- .... ....
....|..|F-1 7... ....|C-4 .... ....|--- .... ....
....|..|--- .... ....|--- .... ....|--- .... ....
....|..|--- .... ....|C-4 ...D ....|--- .... ....
....|..|--- .... ....|--- .... ....|--- .... ....
....|..|F-3 2FFA ....|C-4 .... ....|--- .... ....
....|..|--- .... ....|--- .... ....|--- .... ....
 G-3|..|G-1 .AFF ....|C-4 K..A ....|--- .... ....
....|..|--- .... ....|--- .... ....|--- .... ....
....|..|--- .... ....|A-4 2..C ....|--- .... ....
....|..|--- .... ....|C-5 .... ....|--- .... ....
....|..|F-1 .F27 ....|A-4 .... ....|--- .... ....
....|..|--- .... ....|E-5 .... ....|--- .... ....
....|..|G-1 ...A ....|F-5 .... ....|--- .... ....
....|..|--- .... ....|A-4 ..14 ....|--- .... ....
 G-4|..|G-2 .A2F ....|C-4 9F.F ....|--- .... ....
....|..|--- .... ....|--- .... ....|--- .... ....
....|..|--- .... ....|C-4 .... ....|--- .... ....
....|..|--- .... ....|--- .... ....|--- .... ....
....|..|G-2 .FF7 ....|C-4 ...D ....|--- .... ....
....|..|--- .... ....|--- .... ....|--- .... ....
....|..|G-2 ...A ....|C-4 .... ....|--- .... ....
....|..|--- .... ....|--- .... ....|--- .... ....
.100|..|G-2 F9.. ....|C-4 K..A ....|--- .... ....
....|..|--- .... ....|--- .... ....|--- .... ....
.100|..|G-2 .9.. ....|E-5 2..D ....|--- .... ....
....|..|--- .... ....|--- .... ....|--- .... ....
 G-4|..|G-2 2AFF ....|A-4 .... ....|--- .... ....
....|..|--- .... ....|A-4 ..1. ....|--- .... ....
.200|..|G-2 F9.. ....|F-5 .F.. ....|--- .... ....
....|..|--- .... ....|--- .... ....|--- .... ....

[Pattern8]
 A-3|..|A-1 2AFF B..4|C-4 9F.F B..5|F-5 2F5D ....
....|..|--- .... ....|--- .... ....|--- .... ....
....|..|--- .... ....|C-4 .... B..3|E-5 .... ....
....|..|--- .... ....|--- .... ....|--- .... ....
....|..|--- .... ....|C-4 ...D B..5|C-5 .... ....
....|..|--- .... ....|--- .... ....|--- .... ....
....|..|A-2 .... ....|C-4 .... B..3|A-4 3... ....
....|..|--- .... ....|--- .... ....|--- .... ....
....|..|--- .... ....|C-4 K..A B..5|F-3 ..A9 ....
....|..|--- .... ....|--- .... ....|--- .... ....
....|..|--- .... ....|E-5 2..B B..3|E-3 .... ....
....|..|--- .... ....|--- .... ....|--- .... ....
 A-3|..|A-2 .AF. ....|A-4 .... B..5|C-3 G... ....
....|..|--- .... ....|A-4 ..1. ....|--- .... ....
....|..|--- .... ....|F-5 .F.. B..3|A-2 .... ....
....|..|--- .... ....|--- .... ....|--- .... ....
.100|..|F-4 F9.. ....|C-4 9..F B..5|F-3 M.CD ....
....|..|--- .... ....|--- .... ....|--- .... ....
.200|..|F-4 .9.. ....|C-4 .... B..3|E-3 .... ....
....|..|--- .... ....|--- .... ....|--- .... ....
....|..|--- .... ....|C-4 ...D B..5|C-3 2... ....
....|..|--- .... ....|--- .... ....|--- .... ....
....|..|A-2 2FFA ....|C-4 .... B..3|A-2 .... ....
....|..|--- .... ....|--- .... ....|--- .... ....
 G-2|..|G-2 .AFF ....|C-4 K..A B..5|F-3 U.D9 ....
....|..|--- .... ....|--- .... ....|--- .... ....
....|..|--- .... ....|A-4 2..C B..3|E-3 .... ....
....|..|--- .... ....|C-5 .... ....|--- .... ....
....|..|A-2 .F27 ....|A-4 .... B..5|C-3 .... ....
....|..|--- .... ....|E-5 .... ....|--- .... ....
....|..|G-2 ...A ....|F-5 .... B..3|A-2 6... ....
....|..|--- .... ....|A-4 ..14 ....|--- .... ....
 F-4|..|F-2 .A2F ....|C-4 9F.F B..5|F-3 .F.D ....
....|..|--- .... ....|--- .... ....|--- .... ....
....|..|--- .... ....|C-4 .... B..3|E-3 .... ....
....|..|--- .... ....|--- .... ....|--- .... ....
....|..|G-2 .FF7 ....|C-4 ...D B..5|C-3 .... ....
....|..|--- .... ....|--- .... ....|--- .... ....
....|..|F-2 ...A ....|C-4 .... B..3|A-2 G... ....
....|..|--- .... ....|--- .... ....|--- .... ....
.100|..|F-4 F9.. ....|C-4 K..A B..5|C-3 .... ....
.100|..|E-4 .9.. ....|--- .... ....|--- .... ....
.100|..|D-4 .9.. ....|E-5 2..D B..3|E-3 ...5 ....
....|..|C-4 .... ....|--- .... ....|--- .... ....
 F-3|..|F-2 2AFF ....|A-4 .... B..5|C-3 .... ....
....|..|--- .... ....|A-4 ..1. ....|--- .... ....
.200|..|C-4 F9.. ....|F-5 .F.. B..3|A-2 3... ....
....|..|--- .... ....|--- .... ....|--- .... ....
 F-4|..|F-2 2AF. ....|C-4 9..F B..5|C-3 ...D ....
....|..|--- .... ....|--- .... ....|--- .... ....
.200|..|C-4 F93. ....|C-4 .... B..3|E-3 ...5 ....
....|..|--- .... ....|--- .... ....|--- .... ....
....|..|--- .... ....|C-4 ...D B..5|C-3 ...D ....
....|..|R-- .... ....|--- .... ....|--- .... ....
....|..|F-2 2FFA ....|C-4 .... B..3|A-2 2..5 ....
....|..|--- .... ....|--- .... ....|--- .... ....
.100|..|F-5 T9.. ....|C-4 K..A B..5|C-3 ...D ....
.100|..|F-5 .9.. ....|--- .... ....|--- .... ....
.100|..|F-5 .9.. ....|A-4 2..E B..3|C-3 .... ....
.100|..|F-5 .9.. ....|C-5 .... ....|--- .... ....
 F-4|..|F-2 2AFF ....|A-4 .... B..5|C-3 .... ....
....|..|R-- .... ....|C-5 .... ....|--- .... ....
....|..|--- .... ....|D-5 .... B..3|A-2 ...5 ....
....|..|R-- .... ....|A-4 ..16 ....|--- .... ....

[Pattern9]
 D-3|..|D-2 2AFF B..4|C-4 9F.F B..5|D-4 2FAC ....
....|..|--- .... ....|--- .... ....|--- .... ....
....|..|--- .... ....|C-4 .... B..3|G-4 .F.. ....
....|..|--- .... ....|--- .... ....|--- .... ....
....|..|--- .... ....|C-4 ...D B..5|D-4 .... ....
....|..|--- .... ....|--- .... ....|--- .... ....
.200|..|D-3 .A.. ....|C-4 .... B..3|A-4 ...4 ....
....|..|--- .... ....|--- .... ....|--- .... ....
 D-4|..|D-3 .C.. ....|C-4 K..A B..5|D#3 ..2. ....
....|..|--- .... ....|D-3 2.2F ....|--- .... ....
....|..|--- .... ....|D-5 .F.7 B..3|D-5 .F.C ....
....|..|--- .... ....|D-3 ...A ....|--- .... ....
 D-3|..|D-2 .AF. ....|E-5 ...F B..5|R-- .... ....
....|..|--- .... ....|R-- .... ....|--- .... ....
....|..|--- .... ....|D-3 ..2A B..3|A-3 .... ....
....|..|--- .... ....|E-4 .F.. ....|--- .... ....
 C-3|..|C-2 .AF. ....|C-4 9..F B..5|A-3 .... ....
....|..|--- .... ....|--- .... ....|A-3 .... ....
....|..|C-2 7F2B ....|C-4 .... B..3|G-4 ..A. ....
....|..|--- .... ....|--- .... ....|--- .... ....
....|..|--- .... ....|C-4 ...D B..5|D-4 .... ....
....|..|--- .... ....|--- .... ....|--- .... ....
....|..|C-3 2.FA ....|C-4 .... B..3|A-4 ...4 ....
....|..|--- .... ....|--- .... ....|--- .... ....
 C-2|..|C-2 .AFF ....|C-4 K..A B..5|D#3 ..2. ....
....|..|--- .... ....|R-- .... ....|--- .... ....
....|..|--- .... ....|F-5 2..F B..3|D-5 .F.C ....
....|..|--- .... ....|G-4 ...A ....|--- .... ....
....|..|A-2 .F27 ....|E-5 ...F B..5|R-- .... ....
....|..|--- .... ....|F-4 ...A ....|--- .... ....
....|..|D-3 ...A ....|D-5 ...F B..3|A-3 .... ....
....|..|--- .... ....|E-4 ...A ....|--- .... ....
 F-2|..|F-2 .A.F ....|F-3 .CFF B..5|A-3 .... ....
....|..|--- .... ....|F-3 .F.. ....|A-3 .... ....
....|..|--- .... ....|E-5 ...A B..3|A#2 .... ....
....|..|--- .... ....|F-4 .... ....|R-- .... ....
....|..|G-2 .FF7 ....|C-5 ...F B..5|A#3 .... ....
....|..|--- .... ....|R-- .... ....|--- .... ....
....|..|F-2 ...A ....|F-5 ...7 B..3|D-5 ..A. ....
....|..|--- .... ....|C-4 ...A ....|--- .... ....
.111|..|F-4 F9.. ....|C-4 9..F B..5|R-- .... ....
....|..|--- .... ....|--- .... ....|--- .... ....
.144|..|F-4 .9.. ....|C-4 .... B..3|A-3 .... ....
....|..|--- .... ....|--- .... ....|--- .... ....
 F-4|..|F-2 2AFF ....|C-4 ...D B..5|A-3 .... ....
....|..|--- .... ....|--- .... ....|A-3 .... ....
.100|..|F-4 F9.. ....|C-4 .... B..3|A#2 .... ....
....|..|--- .... ....|--- .... ....|R-- .... ....
 F-4|..|F-3 2AF. ....|C-4 ...F B..5|A#3 .F.. ....
....|..|--- .... ....|--- .... ....|--- .... ....
....|..|F-2 .FFA ....|C-4 .... B..3|A-3 ...4 ....
....|..|R-- .... ....|--- .... ....|--- .... ....
....|..|--- .... ....|C-4 ...D B..5|C-4 ...C ....
....|..|R-- .... ....|--- .... ....|A-3 ...4 ....
....|..|F-2 .... ....|C-4 .... B..3|D-4 ...C ....
....|..|--- .... ....|--- .... ....|--- .... ....
 F-1|..|F-5 T9.. ....|C-4 K..A B..5|D-4 ..2. ....
....|..|F-5 .9.. ....|R-- .... ....|--- ...4 ....
....|..|F-5 .9.. ....|D-5 2..F B..3|F-4 ...C ....
....|..|F-5 .9.. ....|E-4 ...A ....|--- .... ....
.344|..|F-2 2AFF ....|C-5 ...F B..5|F-6 .... ....
....|..|R-- .... ....|D-4 ...A ....|--- .... ....
....|..|--- .... ....|D-5 ...F B..3|E-6 .... ....
....|..|R-- .... ....|C-4 ...A ....|--- .... ....

[Pattern10]
 D-3|..|D-2 2AFF B..4|C-4 9F.F B..5|D-3 9FFF ....
....|..|--- .... ....|--- .... ....|F-4 2F.. ....
....|..|--- .... ....|C-4 .... B..3|C-5 ...A ....
....|..|--- .... ....|--- .... ....|R-- .... ....
....|..|--- .... ....|C-4 ...D B..5|D-4 K..F ....
....|..|--- .... ....|--- .... ....|--- .... ....
.200|..|D-3 .A.. ....|C-4 .... B..3|D-5 2..7 ....
....|..|--- .... ....|--- .... ....|D-4 K..F ....
 D-4|..|D-3 .C.. ....|C-4 K..A B..5|C-5 2..7 ....
....|..|--- .... ....|D-3 2.2F ....|--- .... ....
....|..|--- .... ....|D-5 .F.7 B..3|D-4 A..F ....
....|..|--- .... ....|D-3 ...A ....|--- .... ....
 D-3|..|D-2 .AF. ....|E-5 ...F B..5|G-4 2... ....
....|..|--- .... ....|R-- .... ....|--- .... ....
....|..|--- .... ....|D-3 ..2A B..3|--- .... ....
....|..|--- .... ....|E-4 .F.. ....|--- .... ....
 C-3|..|C-2 .AF. ....|C-4 9..F B..5|F-5 O.F. ....
....|..|--- .... ....|--- .... ....|D-5 KF.A ....
....|..|C-2 7F2B ....|C-4 .... B..3|G-4 2... ....
....|..|--- .... ....|--- .... ....|--- .... ....
....|..|--- .... ....|C-4 ...D B..5|--- .... ....
....|..|--- .... ....|--- .... ....|--- .... ....
....|..|C-3 2.FA ....|C-4 .... B..3|D-5 9..F ....
....|..|--- .... ....|--- .... ....|--- .... ....
 C-2|..|C-2 .AFF ....|C-4 K..A B..5|C-5 2... ....
....|..|--- .... ....|R-- .... ....|D-4 9..E ....
....|..|--- .... ....|F-5 2..F B..3|--- .... ....
....|..|--- .... ....|G-4 ...A ....|--- .... ....
....|..|A-2 .F27 ....|E-5 ...F B..5|D-3 ...D ....
....|..|--- .... ....|F-4 ...A ....|--- .... ....
....|..|D-3 ...A ....|D-5 ...F B..3|C-5 2..A ....
....|..|--- .... ....|E-4 ...A ....|--- .... ....
 F-2|..|F-2 .A.F ....|F-3 .CFF B..5|D-3 9.FF ....
....|..|--- .... ....|F-3 .F.. ....|F-4 2F.. ....
....|..|--- .... ....|E-5 ...A B..3|--- .... ....
....|..|--- .... ....|F-4 .... ....|--- .... ....
....|..|G-2 .FF7 ....|C-5 ...F B..5|D-4 K... ....
....|..|--- .... ....|R-- .... ....|--- .... ....
....|..|F-2 ...A ....|F-5 ...7 B..3|F-4 2..A ....
....|..|--- .... ....|C-4 ...A ....|D-4 B..D ....
.111|..|F-4 F9.. ....|C-4 9..F B..5|--- .... ....
....|..|--- .... ....|--- .... ....|--- .... ....
.144|..|F-4 .9.. ....|C-4 .... B..3|D-4 ...C ....
....|..|--- .... ....|--- .... ....|--- .... ....
 F-4|..|F-2 2AFF ....|C-4 ...D B..5|F-4 2..7 ....
....|..|--- .... ....|--- .... ....|--- .... ....
.100|..|F-4 F9.. ....|C-4 .... B..3|--- .... ....
....|..|--- .... ....|--- .... ....|--- .... ....
 F-4|..|F-3 2AF. ....|C-4 ...F B..5|A#3 A..D ....
....|..|--- .... ....|--- .... ....|--- .... ....
....|..|F-2 .FFA ....|C-4 .... B..3|A#3 .... ....
....|..|R-- .... ....|--- .... ....|A#3 K... ....
....|..|--- .... ....|C-4 ...D B..5|A#3 A... ....
....|..|R-- .... ....|--- .... ....|--- .... ....
....|..|F-2 .... ....|C-4 .... B..3|A#3 F... ....
....|..|--- .... ....|--- .... ....|--- .... ....
 F-1|..|F-5 T9.. ....|C-4 K..A B..5|A-4 A..F ....
....|..|F-5 .9.. ....|R-- .... ....|--- .... ....
....|..|F-5 .9.. ....|D-5 2..F B..3|G-4 2... ....
....|..|F-5 .9.. ....|E-4 ...A ....|--- .... ....
.344|..|F-2 2AFF ....|C-5 ...F B..5|F-4 .... ....
....|..|R-- .... ....|D-4 ...A ....|--- .... ....
....|..|--- .... ....|D-5 ...F B..3|E-4 .... ....
....|..|R-- .... ....|C-4 ...A ....|--- .... ....

[Pattern11]
 D-3|..|D-2 2AFF B..4|D-3 2CFF B..5|D-3 3F2F ....
....|..|--- .... ....|D-3 .F2. ....|D-5 .F.A ....
....|..|--- .... ....|C-5 .F.A B..3|C-4 2... ....
....|..|--- .... ....|D-3 .... ....|D-3 3.2. ....
....|..|--- .... ....|D-5 ...F B..5|D-5 .F.F ....
....|..|--- .... ....|R-- .... ....|R-- .... ....
.200|..|D-3 .A.. ....|D-5 ...7 B..3|D-3 ..27 ....
....|..|--- .... ....|D-4 ...A ....|D-5 .F.A ....
 D-4|..|D-3 .C.. ....|D-3 .CFF B..5|D-3 ..2F ....
....|..|--- .... ....|D-3 .F2. ....|R-- .... ....
....|..|--- .... ....|D-5 .F.7 B..3|D-5 .F.7 ....
....|..|--- .... ....|D-3 ...A ....|D-3 ..2A ....
 D-3|..|D-2 .AF. ....|E-5 ...F B..5|E-5 .F.F ....
....|..|--- .... ....|R-- .... ....|R-- .... ....
....|..|--- .... ....|D-3 ..2A B..3|D-3 2..A ....
....|..|--- .... ....|E-4 .F.. ....|E-5 3... ....
 C-3|..|C-2 .AF. ....|C-3 .CFF B..5|C-3 ...F ....
....|..|--- .... ....|C-3 .F.. ....|R-- .... ....
....|..|C-2 7F2B ....|E-5 ...A B..3|E-4 2..A ....
....|..|--- .... ....|C-4 .... ....|C-3 3... ....
....|..|--- .... ....|G-5 ...F B..5|G-5 ...F ....
....|..|--- .... ....|R-- .... ....|R-- .... ....
....|..|C-3 2.FA ....|C-3 ...A B..3|C-4 2..A ....
....|..|--- .... ....|G-4 .... ....|G-5 3... ....
 C-2|..|C-2 .AFF ....|G-5 ...F B..5|G-5 ...F ....
....|..|--- .... ....|R-- .... ....|R-- .... ....
....|..|--- .... ....|F-5 .... B..3|F-5 .... ....
....|..|--- .... ....|G-4 ...A ....|G-5 ...A ....
....|..|A-2 .F27 ....|E-5 ...F B..5|E-5 ...F ....
....|..|--- .... ....|F-4 ...A ....|F-5 ...A ....
....|..|D-3 ...A ....|D-5 ...F B..3|D-5 ...F ....
....|..|--- .... ....|E-4 ...A ....|E-5 ...A ....
 F-2|..|F-2 .A.F ....|F-3 .CFF B..5|F-3 ...F ....
....|..|--- .... ....|F-3 .F.. ....|D-5 ...A ....
....|..|--- .... ....|E-5 ...A B..3|E-4 2... ....
....|..|--- .... ....|F-4 .... ....|F-3 3... ....
....|..|G-2 .FF7 ....|C-5 ...F B..5|C-5 ...F ....
....|..|--- .... ....|R-- .... ....|R-- .... ....
....|..|F-2 ...A ....|F-5 ...7 B..3|F-3 ...7 ....
....|..|--- .... ....|C-4 ...A ....|C-5 ...A ....
.111|..|F-4 F9.. ....|F-3 .CFF B..5|F-3 ...F ....
....|..|--- .... ....|F-3 .F.. ....|R-- .... ....
.144|..|F-4 .9.. ....|D-5 ...7 B..3|C-5 ...7 ....
....|..|--- .... ....|F-4 ...A ....|F-3 ...A ....
....|..|F-2 2AFF ....|D-5 ...F B..5|D-5 ...F ....
....|..|--- .... ....|R-- .... ....|R-- .... ....
.100|..|F-4 F9.. ....|F-3 ...A B..3|F-4 2..A ....
....|..|--- .... ....|D-4 .... ....|D-5 3... ....
 F-4|..|F-3 2AF. ....|F-3 .CFF B..5|F-3 ...F ....
....|..|--- .... ....|F-3 .F.. ....|R-- .... ....
....|..|F-2 .FFA ....|D-5 ...A B..3|D-4 2..A ....
....|..|R-- .... ....|F-4 .... ....|F-3 3... ....
....|..|--- .... ....|F-5 ...F B..5|F-5 ...F ....
....|..|R-- .... ....|R-- .... ....|R-- .... ....
....|..|F-2 .... ....|F-3 ...A B..3|F-4 2..A ....
....|..|--- .... ....|F-4 .... ....|F-5 3... ....
 F-1|..|F-5 T9.. ....|E-5 ...F B..5|E-5 ...F ....
....|..|F-5 .9.. ....|R-- .... ....|R-- .... ....
....|..|F-5 .9.. ....|D-5 .... B..3|D-5 .... ....
....|..|F-5 .9.. ....|E-4 ...A ....|E-5 ...A ....
.344|..|F-2 2AFF ....|C-5 ...F B..5|C-5 ...F ....
....|..|R-- .... ....|D-4 ...A ....|D-5 ...A ....
....|..|--- .... ....|D-5 ...F B..3|D-5 ...F ....
....|..|R-- .... ....|C-4 ...A ....|C-5 ...A ....

[Pattern12]
..80|..|F-3 T9.F ....|F-4 F9.F B..5|F-4 AF.F ....
.100|..|F-3 .9.. ....|F-4 .9.. ....|F-4 .... ....
.200|..|F-3 .9.. ....|F-4 .9.. B..3|F-4 .... ....
.400|..|F-3 .9.. ....|F-4 .9.. ....|F-4 .... ....
....|..|--- .... ....|--- .... B..5|--- .... ....
....|..|--- .... ....|--- .... ....|--- .... ....
....|..|--- .... ....|--- .... B..3|--- .... ....
....|..|--- .... ....|--- .... ....|--- .... ....

[Pattern13]
..80|..|A#4 29.F ....|A#4 2FF7 B..5|F-4 AF.F ....
.100|..|A#4 .9.. ....|--- .... ....|F-4 .... ....
.200|..|A#4 .9.. ....|G-4 ...F B..3|F-4 .... ....
.400|..|A#4 .9.. ....|--- .... ....|F-4 .... ....
....|..|--- .... ....|F-4 .... B..5|--- .... ....
....|..|--- .... ....|--- .... ....|--- .... ....
....|..|--- .... ....|G-4 .... B..3|--- .... ....
....|..|--- .... ....|--- .... ....|--- .... ....
..80|..|A#4 .9.. ....|A#4 .... B..5|F-4 .... ....
.100|..|A#4 .9.. ....|--- .... ....|F-4 .... ....
.200|..|A#4 .9.. ....|G-4 .... B..3|F-4 .... ....
.400|..|A#4 .9.. ....|--- .... ....|F-4 .... ....
....|..|--- .... ....|F-4 .... B..5|--- .... ....
....|..|--- .... ....|--- .... ....|--- .... ....
....|..|--- .... ....|G-4 .... B..3|--- .... ....
....|..|--- .... ....|--- .... ....|--- .... ....
....|..|--- .... ....|A#4 .... B..5|--- .... ....
....|..|--- .... ....|--- .... ....|--- .... ....
....|..|--- .... ....|A#4 .... B..3|--- .... ....
....|..|--- .... ....|--- .... ....|--- .... ....
..80|..|F-4 .9.. ....|F-4 .... B..5|--- .... ....
.100|..|F-4 .9.. ....|--- .... ....|--- .... ....
.200|..|F-4 .9.. ....|C-5 ...A B..3|--- .... ....
.400|..|F-4 .9.. ....|--- .... ....|--- .... ....
....|..|--- .... ....|A#4 ...F B..5|--- .... ....
....|..|--- .... ....|--- .... ....|--- .... ....
....|..|--- .... ....|A-4 .... B..3|--- .... ....
....|..|--- .... ....|--- .... ....|--- .... ....
..80|..|F-4 .9.. ....|F-4 .... B..5|--- .... ....
.100|..|F-4 .9.. ....|--- .... ....|--- .... ....
.200|..|F-4 .9.. ....|D#4 .... B..3|--- .... ....
.400|..|F-4 .9.. ....|--- .... ....|--- .... ....

[Pattern14]
 D#4|..|D#2 2AFF ....|A#5 2FF7 B..5|D#2 7A.F ....
....|..|--- .... ....|F-5 ...A ....|--- .... ....
....|..|G-4 3FE. ....|G-5 ...F B..3|--- .... ....
....|..|D#1 2F.A ....|R-- .... ....|--- .... ....
....|..|F-4 3.EF ....|F-5 .... B..5|F-2 .F.7 ....
....|..|--- .... ....|G-5 ...A ....|--- .... ....
....|..|G-4 .... ....|G-5 ...F B..3|D#2 ...A ....
....|..|--- .... ....|F-5 ...A ....|--- .... ....
 D#2|..|D#2 .C.. ....|A#5 ...F B..5|--- .... ....
....|..|--- .... ....|G-5 ...A ....|--- .... ....
....|..|--- .... ....|F-5 ...7 B..3|--- .... ....
....|..|--- .... ....|A#5 ...A ....|--- .... ....
 F-4|..|F-2 2AF. ....|G-5 ...F B..5|F-2 .A.F ....
....|..|--- .... ....|R-- .... ....|--- .... ....
 G-4|..|G-2 .... ....|D-6 .... B..3|G-2 .A.. ....
....|..|--- .... ....|G-5 ...A ....|--- .... ....
 F-4|..|F-2 .AF. ....|C-6 ...F B..5|F-2 .A.. ....
....|..|--- .... ....|D-6 ...A ....|--- .... ....
....|..|A#4 3FE. ....|A#5 ...F B..3|F-2 .F.A ....
....|..|F-1 2F.A ....|C-6 ...A ....|--- .... ....
....|..|F-4 3.EF ....|F-5 ...F B..5|G-2 .... ....
....|..|--- .... ....|A#5 ...A ....|--- .... ....
....|..|C-5 ...A ....|C-6 ...7 B..3|F-2 .... ....
....|..|--- .... ....|F-5 ...A ....|--- .... ....
....|..|A#4 ...F ....|A#5 ...F B..5|F-2 ...7 ....
....|..|--- .... ....|R-- .... ....|--- .... ....
....|..|A-4 .... ....|A-5 .... B..3|G-2 .... ....
....|..|--- .... ....|A#5 ...A ....|--- .... ....
....|..|F-3 2.27 ....|F-5 ...F B..5|F-2 .... ....
....|..|--- .... ....|A-5 ...A ....|--- .... ....
....|..|D#2 ...A ....|D#5 ...F B..3|--- .... ....
....|..|--- .... ....|F-5 ...A ....|--- .... ....
 G-4|..|G-2 .A.F ....|D-5 ...F B..5|G-2 .A.F ....
....|..|--- .... ....|D#5 ...A ....|--- .... ....
....|..|--- .... ....|C-5 ...F B..3|--- .... ....
....|..|--- .... ....|D-5 ...A ....|--- .... ....
....|..|F-2 .FF7 ....|A#4 ...F B..5|--- .... ....
....|..|--- .... ....|C-5 ...A ....|--- .... ....
....|..|G-2 ...A ....|F-5 ...F B..3|G-2 .F.A ....
....|..|--- .... ....|A#4 ...A ....|--- .... ....
.100|..|F-4 F9.F ....|A#4 ...F B..5|--- .... ....
....|..|--- .... ....|F-5 ...A ....|--- .... ....
.200|..|F-4 .9.. ....|G-4 ...F B..3|--- .... ....
....|..|--- .... ....|A#4 ...A ....|--- .... ....
 G-4|..|G-2 2AF. ....|A#4 ...F B..5|G-2 ...7 ....
....|..|--- .... ....|G-4 ...A ....|--- .... ....
.100|..|F-4 F9.. ....|D-5 ...F B..3|--- .... ....
....|..|--- .... ....|A#4 ...A ....|--- .... ....
 G-4|..|G-2 2AF. ....|G-6 ...F B..5|G-2 .A.F ....
....|..|--- .... ....|D-5 ...A ....|--- .... ....
....|..|D-5 3FE. ....|D-6 ...F B..3|--- .... ....
....|..|G-1 2F.A ....|G-6 ...A ....|--- .... ....
....|..|A#4 3.EF ....|A#5 ...F B..5|--- .... ....
....|..|--- .... ....|D-6 ...A ....|--- .... ....
....|..|G-4 .... ....|G-5 ...F B..3|G-2 .F.A ....
....|..|--- .... ....|A#5 ...A ....|--- .... ....
 F-4|..|F-2 2A.. ....|F-6 ...F B..5|F-2 .A.F ....
.100|..|F-5 .9.. ....|G-5 ...A ....|--- .... ....
.200|..|F-5 .9.. ....|A#5 ...F B..3|--- .... ....
.300|..|F-5 .9.. ....|F-6 ...A ....|--- .... ....
....|..|F-2 .AF. ....|G-5 ...F B..5|G-2 .F.7 ....
....|..|R-- .... ....|A#5 ...A ....|--- .... ....
....|..|--- .... ....|F-5 ...F B..3|F-2 ...A ....
....|..|R-- .... ....|G-5 ...A ....|--- .... ....

[Pattern15]
....|..|C-4 AF.F ....|A#4 2FFF B..5|C-4 9F.F ....
 D#3|..|D#1 2A.. ....|F-5 ...A ....|D#2 7A.. ....
....|..|G-4 3FE7 ....|G-5 ...7 B..3|--- .... ....
....|..|D#1 2F.A ....|A#4 ...A ....|--- .... ....
....|..|A#3 3.EF ....|A#4 ...F B..5|F-2 .F.7 ....
....|..|--- .... ....|--- .... ....|--- .... ....
....|..|D#1 2F.7 ....|A#4 ...7 B..3|D#2 ...A ....
....|..|--- .... ....|A#4 ...A ....|--- .... ....
....|..|F-4 3.EF ....|F-5 ...F B..5|--- .... ....
....|..|--- .... ....|--- .... ....|--- .... ....
....|..|F-4 ...7 ....|A#4 ...7 B..3|--- .... ....
....|..|--- .... ....|F-5 ...A ....|--- .... ....
 F-3|..|F-1 2A.F ....|--- .... B..5|F-2 .A.F ....
....|..|--- .... ....|--- .... ....|--- .... ....
 G-3|..|G-1 .A.. ....|F-5 ...7 B..3|G-2 .A.. ....
....|..|F-1 .F.A ....|--- .... ....|--- .... ....
....|..|C-4 A..F ....|D-5 ...F B..5|C-4 9F.. ....
 F-3|..|F-1 2A.. ....|--- .... ....|F-3 TA.. ....
 F-4|..|G-1 .F.A ....|R-- .... B..3|F-2 7A.A ....
....|..|F-1 .... ....|D-5 ...A ....|--- .... ....
....|..|D-4 3.EF ....|D-5 ...F B..5|G-2 .F.. ....
....|..|--- .... ....|R-- .... ....|--- .... ....
....|..|D-4 ...A ....|D-5 ...7 B..3|F-2 .... ....
....|..|D-4 ...F ....|D-5 ...F ....|--- .... ....
....|..|C-4 .... ....|C-5 .... B..5|F-2 ...7 ....
....|..|--- .... ....|R-- .... ....|--- .... ....
....|..|A#3 .... ....|A#4 .... B..3|G-2 .... ....
....|..|--- .... ....|C-5 ...A ....|--- .... ....
....|..|A#3 .... ....|A#4 ...F B..5|F-2 .... ....
....|..|C-4 .... ....|C-5 .... ....|--- .... ....
....|..|D-4 .... ....|D-5 .... B..3|--- .... ....
....|..|D#4 .... ....|D#5 .... ....|--- .... ....
....|..|C-4 AF.. ....|D-5 .... B..5|C-4 9..F ....
 G-2|..|G-1 2A.. ....|D-5 ...A ....|G-1 7C.. ....
....|..|G-3 3FE. ....|G-4 ...F B..3|--- .... ....
....|..|G-1 2F.A ....|C-5 ...7 ....|--- .... ....
....|..|A#3 3.EF ....|A#4 ...F B..5|--- .... ....
....|..|D#4 ...A ....|D#5 ...7 ....|--- .... ....
....|..|A#3 ...F ....|A#4 ...F B..3|G-2 .F.A ....
....|..|--- .... ....|A#4 ...A ....|--- .... ....
....|..|A#3 .... ....|A#4 ...F B..5|--- .... ....
....|..|C-4 ...7 ....|A#4 ...A ....|--- .... ....
....|..|G-3 ...F ....|G-4 ...F B..3|--- .... ....
....|..|D#4 ...7 ....|A#4 ...A ....|--- .... ....
....|..|A#3 ...F ....|A#4 ...F B..5|G-2 ...7 ....
....|..|--- .... ....|G-4 ...A ....|--- .... ....
....|..|A#3 .... ....|A#4 ...F B..3|--- .... ....
....|..|--- .... ....|A#4 ...A ....|--- .... ....
....|..|C-5 AF.. ....|F-5 ...F B..5|C-4 9..F ....
 G-3|..|G-1 2A.. ....|A#4 ...A ....|G-2 7A.. ....
....|..|A#3 3FE. ....|A#4 ...F B..3|--- .... ....
....|..|A#3 .... ....|A#4 .... ....|--- .... ....
....|..|A#3 .... ....|A#4 .... B..5|--- .... ....
....|..|--- .... ....|A#4 ...A ....|--- .... ....
....|..|C-4 .... ....|C-5 ...F B..3|G-2 .F.A ....
....|..|--- .... ....|A#4 ...A ....|--- .... ....
 F-3|..|F-1 2A.. ....|A#4 ...F B..5|F-2 .A.F ....
....|..|A#3 3FEA ....|A#4 ...7 ....|--- .... ....
....|..|A-3 ...F ....|A-4 ...F B..3|--- .... ....
....|..|F-1 2F.A ....|A#4 ...A ....|--- .... ....
....|..|G-3 3.EF ....|G-4 ...F B..5|G-2 .F.7 ....
....|..|--- .... ....|A-4 ...A ....|--- .... ....
....|..|F-3 .... ....|F-4 ...F B..3|F-2 ...A ....
....|..|A#3 ...7 ....|G-4 ...A ....|--- .... ....

[Pattern16]
 D#3|..|D#2 TA.F ....|A#4 2FFF B..5|C-4 9F.F ....
....|..|--- .... ....|F-4 ...A ....|--- .... ....
 D#4|..|C-4 3FE7 ....|G-4 ...7 B..3|D#2 7A.. ....
....|..|D#1 2F.A ....|A#4 ...A ....|--- .... ....
....|..|A#3 3.EF ....|A#4 ...F B..5|F-2 .F.7 ....
....|..|--- .... ....|--- .... ....|--- .... ....
....|..|D#1 2F.7 ....|A#4 ...7 B..3|D#2 ...A ....
....|..|--- .... ....|A#4 ...A ....|--- .... ....
....|..|F-4 3.EF ....|F-5 ...F B..5|--- .... ....
....|..|--- .... ....|--- .... ....|--- .... ....
....|..|F-3 ...7 ....|A#4 ...7 B..3|--- .... ....
....|..|--- .... ....|F-5 ...A ....|--- .... ....
 F-4|..|F-1 TA.F ....|--- .... B..5|F-2 .A.F ....
....|..|--- .... ....|--- .... ....|--- .... ....
 G-4|..|G-1 .A.. ....|F-5 ...7 B..3|G-2 .A.. ....
....|..|F-1 2F.A ....|--- .... ....|--- .... ....
 F-4|..|F-1 TA.F ....|D-5 ...F B..5|C-4 9F.. ....
....|..|G-1 2F.A ....|--- .... ....|--- .... ....
 F-4|..|R-- .... ....|R-- .... B..3|F-2 7A.A ....
....|..|F-1 .... ....|D-5 ...A ....|--- .... ....
....|..|D-4 3.EF ....|D-5 ...F B..5|G-2 .F.. ....
....|..|--- .... ....|R-- .... ....|--- .... ....
....|..|D-4 ...A ....|D-5 ...7 B..3|F-2 .... ....
....|..|D-4 ...F ....|D-5 ...F ....|--- .... ....
....|..|C-4 .... ....|C-5 .... B..5|F-2 ...7 ....
....|..|--- .... ....|R-- .... ....|--- .... ....
....|..|A#3 .... ....|A#4 .... B..3|G-2 .... ....
....|..|--- .... ....|C-5 ...A ....|--- .... ....
....|..|A#3 .... ....|A#4 ...F B..5|F-2 .... ....
....|..|C-4 .... ....|C-5 .... ....|--- .... ....
....|..|D-4 .... ....|D-5 .... B..3|--- .... ....
....|..|D#4 .... ....|D#5 .... ....|--- .... ....
 G-2|..|G-1 TC.. ....|F-5 .... B..5|C-4 9..F ....
 G-2|..|--- .... ....|D-5 ...A ....|G-1 7C.. ....
....|..|G-3 3FE. ....|G-4 ...F B..3|--- .... ....
....|..|G-1 2F.A ....|C-5 ...7 ....|--- .... ....
....|..|A#3 3.EF ....|A#4 ...F B..5|--- .... ....
....|..|D#4 ...A ....|D#5 ...7 ....|--- .... ....
....|..|A#3 ...F ....|A#4 ...F B..3|G-2 .F.A ....
....|..|--- .... ....|A#4 ...A ....|--- .... ....
....|..|A#3 .... ....|A#4 ...F B..5|--- .... ....
....|..|C-4 ...7 ....|A#4 ...A ....|--- .... ....
....|..|G-3 ...F ....|G-4 ...F B..3|--- .... ....
....|..|D#4 ...7 ....|A#4 ...A ....|--- .... ....
....|..|A#3 ...F ....|A#4 ...F B..5|G-2 ...7 ....
....|..|--- .... ....|G-4 ...A ....|--- .... ....
....|..|A#3 .... ....|A#4 ...F B..3|--- .... ....
....|..|A#3 .... ....|A#4 .... ....|--- .... ....
 G-3|..|G-1 TA.. ....|F-5 .... B..5|C-4 9..F ....
 G-4|..|--- .... ....|A#4 ...A ....|G-2 7A.. ....
....|..|A#3 3FE. ....|A#4 ...F B..3|--- .... ....
....|..|G-1 2F.A ....|F-5 ...A ....|--- .... ....
....|..|A#3 3.EF ....|A#4 ...F B..5|--- .... ....
....|..|A#3 .... ....|A#4 .... ....|--- .... ....
....|..|C-4 .... ....|C-5 .... B..3|G-2 .F.A ....
....|..|--- .... ....|A#4 ...A ....|--- .... ....
 F-4|..|F-1 TA.. ....|A#4 ...F B..5|F-2 .A.F ....
....|..|--- .... ....|C-5 ...A ....|--- .... ....
....|..|A-3 3FE. ....|A-4 ...F B..3|--- .... ....
....|..|F-1 2F.A ....|A#4 ...7 ....|--- .... ....
....|..|G-3 3.EF ....|G-4 ...F B..5|G-2 .F.7 ....
....|..|--- .... ....|A-4 ...A ....|--- .... ....
....|..|F-3 .... ....|F-4 ...F B..3|F-2 ...A ....
....|..|--- .... ....|G-4 ...A ....|--- .... ....

[Pattern17]
 D#3|..|D#1 2A.F ....|G-4 2FFF B..5|D#2 7A.F ....
....|..|--- .... ....|F-5 ...A ....|--- .... ....
....|..|A-3 3FE. ....|A-4 ...F B..3|--- .... ....
....|..|D#1 2F.A ....|G-4 ...A ....|--- .... ....
....|..|F-5 3.E7 ....|F-5 ...7 B..5|F-2 .F.7 ....
....|..|--- .... ....|A-4 ...A ....|--- .... ....
....|..|A#3 ...F ....|A#4 ...F B..3|D#2 ...A ....
....|..|--- .... ....|--- .... ....|--- .... ....
....|..|G-4 ...7 ....|A-4 ...7 B..5|--- .... ....
....|..|--- .... ....|A#4 ...A ....|--- .... ....
....|..|F-3 ...F ....|F-4 ...F B..3|--- .... ....
....|..|--- .... ....|--- .... ....|--- .... ....
....|..|G-3 ...7 ....|A#4 ...7 B..5|D#2 ...7 ....
....|..|--- .... ....|F-4 ...A ....|--- .... ....
....|..|F-3 ...F ....|F-4 ...F B..3|--- .... ....
....|..|--- .... ....|--- .... ....|--- .... ....
 F-3|..|F-1 2A.. ....|F-4 ...7 B..5|F-2 .A.F ....
....|..|--- .... ....|F-4 ...A ....|--- .... ....
....|..|A#3 3FE7 ....|--- .... B..3|--- .... ....
....|..|F-1 2F.A ....|--- .... ....|--- .... ....
....|..|F-3 3.E. ....|F-4 ...7 B..5|--- .... ....
....|..|--- .... ....|--- .... ....|--- .... ....
....|..|F-1 2F.7 ....|--- .... B..3|F-2 .F.A ....
....|..|--- .... ....|--- .... ....|--- .... ....
....|..|--- .... ....|--- .... B..5|--- .... ....
....|..|--- .... ....|--- .... ....|--- .... ....
....|..|F-3 3.E. ....|--- .... B..3|--- .... ....
....|..|--- .... ....|--- .... ....|--- .... ....
....|..|--- .... ....|--- .... B..5|F-2 ...7 ....
....|..|--- .... ....|--- .... ....|--- .... ....
....|..|--- .... ....|--- .... B..3|--- .... ....
....|..|--- .... ....|--- .... ....|--- .... ....
 G-3|..|G-1 2A.F ....|G-4 ...F B..5|G-2 .A.F ....
....|..|--- .... ....|--- .... ....|--- .... ....
....|..|A#3 3FE. ....|A#4 .... B..3|--- .... ....
....|..|G-1 2F.A ....|G-4 ...A ....|--- .... ....
....|..|--- .... ....|--- .... B..5|--- .... ....
....|..|--- .... ....|A#4 .... ....|--- .... ....
....|..|D-4 3.EF ....|D-5 ...F B..3|G-2 .F.A ....
....|..|--- .... ....|--- .... ....|--- .... ....
....|..|A#3 ...A ....|A#4 ...7 B..5|--- .... ....
....|..|--- .... ....|D-5 ...A ....|--- .... ....
....|..|A#3 ...F ....|A#4 ...F B..3|--- .... ....
....|..|--- .... ....|--- .... ....|--- .... ....
....|..|G-3 ...7 ....|D-5 ...7 B..5|G-2 ...7 ....
....|..|--- .... ....|A#4 ...A ....|--- .... ....
....|..|A#3 .... ....|--- .... B..3|--- .... ....
....|..|--- .... ....|--- .... ....|--- .... ....
 A#2|..|A#1 2C.F ....|A#4 ...F B..5|A#2 .C.F ....
....|..|--- .... ....|--- .... ....|--- .... ....
....|..|D-4 3FE7 ....|--- .... B..3|--- .... ....
....|..|A#1 2F.A ....|A#4 ...A ....|--- .... ....
....|..|--- .... ....|--- .... B..5|--- .... ....
....|..|--- .... ....|--- .... ....|--- .... ....
....|..|A#1 ...7 ....|A#4 ...7 B..3|A#2 .F.A ....
....|..|--- .... ....|--- .... ....|--- .... ....
....|..|--- .... ....|--- .... B..5|--- .... ....
....|..|--- .... ....|--- .... ....|--- .... ....
....|..|--- .... ....|--- .... B..3|--- .... ....
....|..|--- .... ....|--- .... ....|--- .... ....
....|..|A#3 3.E. ....|--- .... B..5|A#2 ...7 ....
....|..|--- .... ....|--- .... ....|--- .... ....
....|..|--- .... ....|--- .... B..3|--- .... ....
....|..|--- .... ....|--- .... ....|--- .... ....

[Pattern18]
 D#3|..|D#1 2A.F ....|G-4 2FFF B..5|D#2 7A.F ....
....|..|--- .... ....|--- .... ....|--- .... ....
....|..|A-3 3FE. ....|A-4 .... B..3|--- .... ....
....|..|D#1 2F.A ....|G-4 ...A ....|--- .... ....
....|..|--- .... ....|--- .... B..5|--- .... ....
....|..|--- .... ....|A-4 .... ....|--- .... ....
....|..|A#3 3.EF ....|A#4 ...F B..3|D#2 .F.A ....
....|..|--- .... ....|--- .... ....|--- .... ....
....|..|A-3 ...A ....|A-4 ...7 B..5|--- .... ....
....|..|--- .... ....|A#4 ...A ....|--- .... ....
....|..|F-3 ...F ....|F-4 ...F B..3|--- .... ....
....|..|--- .... ....|--- .... ....|--- .... ....
....|..|G-3 ...7 ....|A#4 ...7 B..5|D#2 ...7 ....
....|..|--- .... ....|F-4 ...A ....|--- .... ....
....|..|F-3 ...F ....|F-4 ...F B..3|--- .... ....
....|..|--- .... ....|--- .... ....|--- .... ....
 F-3|..|F-1 2A.. ....|F-4 ...7 B..5|F-2 .A.F ....
....|..|--- .... ....|F-4 ...A ....|--- .... ....
....|..|C-4 3FE. ....|C-5 ...F B..3|--- .... ....
....|..|F-1 2F.A ....|--- .... ....|--- .... ....
....|..|F-3 3.E. ....|F-4 ...7 B..5|--- .... ....
....|..|--- .... ....|C-5 ...A ....|--- .... ....
....|..|A#3 ...F ....|A#4 ...F B..3|F-2 .F.A ....
....|..|--- .... ....|--- .... ....|--- .... ....
....|..|C-4 ...A ....|C-5 ...7 B..5|--- .... ....
....|..|--- .... ....|A#4 ...A ....|--- .... ....
....|..|F-3 ...7 ....|R-- .... B..3|--- .... ....
....|..|--- .... ....|--- .... ....|--- .... ....
....|..|A#3 ...A ....|A#4 ...7 B..5|F-2 ...7 ....
....|..|--- .... ....|R-- .... ....|--- .... ....
....|..|C-4 ...F ....|C-5 ...F B..3|--- .... ....
....|..|--- .... ....|--- .... ....|--- .... ....
 G-3|..|G-1 2A.. ....|D-5 .... B..5|G-2 .A.F ....
....|..|--- .... ....|C-5 ...A ....|--- .... ....
....|..|A#3 3FE7 ....|--- .... B..3|--- .... ....
....|..|G-1 2F.A ....|D-5 .... ....|--- .... ....
....|..|C-4 3.EF ....|C-5 ...F B..5|--- .... ....
....|..|--- .... ....|--- .... ....|--- .... ....
....|..|D-4 .... ....|D-5 .... B..3|G-2 .F.A ....
....|..|--- .... ....|C-5 ...A ....|--- .... ....
....|..|--- .... ....|--- .... B..5|--- .... ....
....|..|--- .... ....|D-5 .... ....|--- .... ....
....|..|D-4 .... ....|D-5 ...F B..3|--- .... ....
....|..|--- .... ....|--- .... ....|--- .... ....
....|..|F-4 .... ....|F-5 .... B..5|G-2 ...7 ....
....|..|--- .... ....|D-5 ...A ....|--- .... ....
....|..|--- .... ....|--- .... B..3|--- .... ....
....|..|--- .... ....|F-5 .... ....|--- .... ....
 A#2|..|A#1 2C.. ....|D-5 ...7 B..5|A#2 .C.F ....
....|..|--- .... ....|--- .... ....|--- .... ....
....|..|D-4 3FE7 ....|F-5 .... B..3|--- .... ....
....|..|A#1 2F.A ....|--- .... ....|--- .... ....
....|..|A#3 3.EF ....|A#4 ...F B..5|--- .... ....
....|..|--- .... ....|--- .... ....|--- .... ....
....|..|A#1 2F.7 ....|--- .... B..3|A#2 .F.A ....
....|..|--- .... ....|A#4 ...A ....|--- .... ....
....|..|F-4 3.E. ....|--- .... B..5|--- .... ....
....|..|--- .... ....|--- .... ....|--- .... ....
....|..|A#3 ...A ....|A#4 ...7 B..3|--- .... ....
....|..|--- .... ....|--- .... ....|--- .... ....
....|..|--- .... ....|--- .... B..5|A#2 ...7 ....
....|..|--- .... ....|--- .... ....|--- .... ....
....|..|--- .... ....|--- .... B..3|--- .... ....
....|..|--- .... ....|--- .... ....|--- .... ....

[Pattern19]
 D#3|..|C-4 AF.F ....|G-4 2FFF B..5|D#2 GA.F ....
 D#4|..|D#1 GA.. ....|A#4 ...A ....|--- .A.. ....
....|..|A#3 3FE. ....|A#4 ...F B..3|--- .... ....
....|..|D#1 2F.A ....|G-4 ...A ....|D#1 .... ....
....|..|A-3 3.EF ....|A-4 ...F B..5|--- .... ....
....|..|--- .... ....|A#4 ...A ....|--- .... ....
....|..|A#3 .... ....|A#4 ...F B..3|D#2 .F.A ....
....|..|--- .... ....|A-4 ...A ....|--- .... ....
....|..|A#3 .... ....|A#4 ...F B..5|--- .... ....
....|..|--- .... ....|A#4 ...A ....|D#2 .... ....
....|..|A#3 .... ....|A#4 ...F B..3|--- .... ....
....|..|--- .... ....|A#4 ...A ....|--- .... ....
....|..|C-4 .... ....|C-5 ...F B..5|D#2 ...7 ....
....|..|--- .... ....|A#4 ...A ....|--- .... ....
....|..|A#3 .... ....|A#4 ...F B..3|--- .... ....
....|..|--- .... ....|C-5 ...A ....|--- .... ....
 F-3|..|C-4 AF.. ....|C-5 ...F B..5|F-2 .A.F ....
 F-4|..|F-1 2A.. ....|A#4 ...A ....|F-4 .A.. ....
....|..|A#3 3FE. ....|A#4 ...F B..3|--- .... ....
....|..|F-1 2F.A ....|C-5 ...A ....|F-1 .... ....
....|..|C-4 3.EF ....|C-5 ...F B..5|--- .... ....
....|..|--- .... ....|A#4 ...A ....|--- .... ....
....|..|A#3 .... ....|A#4 ...F B..3|F-2 .F.A ....
....|..|--- .... ....|C-5 ...A ....|--- .... ....
....|..|D-4 .... ....|D-5 ...F B..5|--- .... ....
....|..|--- .... ....|A#4 ...A ....|F-1 .... ....
....|..|A#3 .... ....|A#4 ...F B..3|--- .... ....
....|..|--- .... ....|D-5 ...A ....|--- .... ....
....|..|C-4 .... ....|C-5 ...F B..5|F-2 ...7 ....
....|..|--- .... ....|A#4 ...A ....|--- .... ....
....|..|D-4 .... ....|D-5 ...F B..3|--- .... ....
....|..|--- .... ....|C-5 ...A ....|--- .... ....
 G-3|..|C-4 AF.. ....|F-4 ...F B..5|G-2 .A.F ....
 G-4|..|G-1 2A.. ....|D-5 ...A ....|G-2 .A.. ....
....|..|A-3 3FE. ....|A-4 ...F B..3|G-1 .... ....
....|..|G-1 2F.A ....|F-4 ...A ....|--- .... ....
....|..|A#3 3.EF ....|A#4 ...F B..5|G-2 .... ....
....|..|--- .... ....|A-4 ...A ....|--- .... ....
....|..|F-3 .... ....|F-4 ...F B..3|G-2 .F.A ....
....|..|--- .... ....|A#4 ...A ....|--- .... ....
....|..|A#3 .... ....|A#4 ...F B..5|--- .... ....
....|..|--- .... ....|F-4 ...A ....|G-1 .... ....
....|..|F-3 .... ....|F-4 ...F B..3|--- .... ....
....|..|--- .... ....|A#4 ...A ....|--- .... ....
....|..|D#3 .... ....|D#4 ...F B..5|G-2 ...7 ....
....|..|--- .... ....|F-4 ...A ....|--- .... ....
....|..|D-3 .... ....|D-4 ...F B..3|--- .... ....
....|..|--- .... ....|D#4 ...A ....|--- .... ....
 A#2|..|C-4 AF.. ....|C-4 ...F B..5|A#2 .C.F ....
 A#3|..|A#1 2A.. ....|D-4 ...A ....|A#1 .A.. ....
....|..|A#2 3FE. ....|A#3 ...F B..3|--- .... ....
....|..|A#1 2F.A ....|C-4 ...A ....|A#1 .... ....
....|..|C-4 3.EF ....|C-5 ...F B..5|--- .... ....
....|..|--- .... ....|A#3 ...A ....|--- .... ....
....|..|A#3 .... ....|A#4 ...F B..3|A#2 .F.A ....
....|..|--- .... ....|C-5 ...A ....|--- .... ....
....|..|D-4 .... ....|D-5 ...F B..5|--- .... ....
....|..|--- .... ....|A#4 ...A ....|--- .... ....
....|..|A#3 .... ....|A#4 ...F B..3|--- .... ....
....|..|--- .... ....|D-5 ...A ....|--- .... ....
....|..|C-4 .... ....|C-5 ...F B..5|A#2 ...7 ....
....|..|--- .... ....|A#4 ...A ....|--- .... ....
....|..|A#3 .... ....|A#4 ...F B..3|--- .... ....
....|..|--- .... ....|C-5 ...A ....|--- .... ....

[Pattern20]
....|..|--- .... ....|--- .... ....|--- .... ....
....|..|--- .... ....|--- .... ....|--- .... ....
....|..|--- .... ....|--- .... ....|--- .... ....
....|..|--- .... ....|--- .... ....|--- .... ....
....|..|R-- .... ....|R-- .... ....|R-- .... ....
....|..|--- .... ....|--- .... ....|--- .... ....
....|..|--- .... ....|--- .... ....|--- .... ....
....|..|--- .... ....|--- .... ....|--- .... ....
....|..|--- .... ....|--- .... ....|--- .... ....
....|..|--- .... ....|--- .... ....|--- .... ....
....|..|--- .... ....|--- .... ....|--- .... ....
....|..|--- .... ....|--- .... ....|--- .... ....
....|..|--- .... ....|--- .... ....|--- .... ....
....|..|--- .... ....|--- .... ....|--- .... ....
....|..|--- .... ....|--- .... ....|--- .... ....
....|..|--- .... ....|--- .... ....|--- .... ....
....|..|--- .... ....|--- .... ....|--- .... ....
....|..|--- .... ....|--- .... ....|--- .... ....
....|..|--- .... ....|--- .... ....|--- .... ....
....|..|--- .... ....|--- .... ....|--- .... ....
....|..|--- .... ....|--- .... ....|--- .... ....
....|..|--- .... ....|--- .... ....|--- .... ....
....|..|--- .... ....|--- .... ....|--- .... ....
....|..|--- .... ....|--- .... ....|--- .... ....
....|..|--- .... ....|--- .... ....|--- .... ....
....|..|--- .... ....|--- .... ....|--- .... ....
....|..|--- .... ....|--- .... ....|--- .... ....
....|..|--- .... ....|--- .... ....|--- .... ....
....|..|--- .... ....|--- .... ....|--- .... ....
....|..|--- .... ....|--- .... ....|--- .... ....
....|..|--- .... ....|--- .... ....|--- .... ....
....|..|--- .... ....|--- .... ....|--- .... ....
....|..|--- .... ....|--- .... ....|--- .... ....
....|..|--- .... ....|--- .... ....|--- .... ....
....|..|--- .... ....|--- .... ....|--- .... ....
....|..|--- .... ....|--- .... ....|--- .... ....
....|..|--- .... ....|--- .... ....|--- .... ....
....|..|--- .... ....|--- .... ....|--- .... ....
....|..|--- .... ....|--- .... ....|--- .... ....
....|..|--- .... ....|--- .... ....|--- .... ....
....|..|--- .... ....|--- .... ....|--- .... ....
....|..|--- .... ....|--- .... ....|--- .... ....
....|..|--- .... ....|--- .... ....|--- .... ....
....|..|--- .... ....|--- .... ....|--- .... ....
....|..|--- .... ....|--- .... ....|--- .... ....
....|..|--- .... ....|--- .... ....|--- .... ....
....|..|--- .... ....|--- .... ....|--- .... ....
....|..|--- .... ....|--- .... ....|--- .... ....
....|..|--- .... ....|--- .... ....|--- .... ....
....|..|--- .... ....|--- .... ....|--- .... ....
....|..|--- .... ....|--- .... ....|--- .... ....
....|..|--- .... ....|--- .... ....|--- .... ....
....|..|--- .... ....|--- .... ....|--- .... ....
....|..|--- .... ....|--- .... ....|--- .... ....
....|..|--- .... ....|--- .... ....|--- .... ....
....|..|--- .... ....|--- .... ....|--- .... ....
....|..|--- .... ....|--- .... ....|--- .... ....
....|..|--- .... ....|--- .... ....|--- .... ....
....|..|--- .... ....|--- .... ....|--- .... ....
....|..|--- .... ....|--- .... ....|--- .... ....
....|..|--- .... ....|--- .... ....|--- .... ....
....|..|--- .... ....|--- .... ....|--- .... ....
....|..|--- .... ....|--- .... ....|--- .... ....
....|..|--- .... ....|--- .... ....|--- .... ....

[Pattern21]
 D#4|..|D#2 2AFF ....|A#5 2FF7 B..5|C-4 9F.F B..5
....|..|--- .... ....|F-5 ...A ....|--- .... ....
....|..|G-4 3FE. ....|G-5 ...F B..3|C-4 .... B..3
....|..|D#1 2F.A ....|R-- .... ....|--- .... ....
....|..|F-4 3.EF ....|F-5 .... B..5|C-4 ...D B..5
....|..|--- .... ....|G-5 ...A ....|--- .... ....
....|..|G-4 .... ....|G-5 ...F B..3|C-4 .... B..3
....|..|--- .... ....|F-5 ...A ....|--- .... ....
 D#2|..|D#2 .C.. ....|A#5 ...F B..5|D#1 7A.A B..5
....|..|--- .... ....|G-5 ...A ....|--- .... ....
....|..|--- .... ....|F-5 ...7 B..3|C-4 KF.B B..3
....|..|--- .... ....|A#5 ...A ....|--- .... ....
 F-4|..|F-2 2AF. ....|G-5 ...F B..5|C-4 C..F B..5
....|..|--- .... ....|R-- .... ....|--- .... ....
 G-4|..|G-2 .... ....|D-6 .... B..3|G-2 7A.. ....
....|..|--- .... ....|G-5 ...A ....|--- .... ....
 F-4|..|F-2 .AF. ....|C-6 ...F B..5|F-2 .A.. ....
....|..|--- .... ....|D-6 ...A ....|--- .... ....
....|..|A#4 3FE. ....|A#5 ...F B..3|F-2 .F.A ....
....|..|F-1 2F.A ....|C-6 ...A ....|--- .... ....
....|..|F-4 3.EF ....|F-5 ...F B..5|G-2 .... ....
....|..|--- .... ....|A#5 ...A ....|--- .... ....
....|..|C-5 ...A ....|C-6 ...7 B..3|F-2 .... ....
....|..|--- .... ....|F-5 ...A ....|--- .... ....
....|..|A#4 ...F ....|A#5 ...F B..5|F-2 ...7 ....
....|..|--- .... ....|R-- .... ....|--- .... ....
....|..|A-4 .... ....|A-5 .... B..3|G-2 .... ....
....|..|--- .... ....|A#5 ...A ....|--- .... ....
....|..|F-3 2.27 ....|F-5 ...F B..5|F-2 .... ....
....|..|--- .... ....|A-5 ...A ....|--- .... ....
....|..|D#2 ...A ....|D#5 ...F B..3|--- .... ....
....|..|--- .... ....|F-5 ...A ....|--- .... ....
 G-4|..|G-2 .A.F ....|D-5 ...F B..5|C-4 9..F B..5
....|..|--- .... ....|D#5 ...A ....|--- .... ....
....|..|--- .... ....|C-5 ...F B..3|C-4 .... B..3
....|..|--- .... ....|D-5 ...A ....|--- .... ....
....|..|F-2 .FF7 ....|A#4 ...F B..5|C-4 ...D B..5
....|..|--- .... ....|C-5 ...A ....|--- .... ....
....|..|G-2 ...A ....|F-5 ...F B..3|C-4 .... B..3
....|..|--- .... ....|A#4 ...A ....|--- .... ....
.100|..|F-4 F9.F ....|A#4 ...F B..5|D-4 F9.F B..5
....|..|--- .... ....|F-5 ...A ....|--- .... ....
.200|..|F-4 .9.. ....|G-4 ...F B..3|C-4 KF.B B..3
....|..|--- .... ....|A#4 ...A ....|--- .... ....
 G-4|..|G-2 2AF. ....|A#4 ...F B..5|C-4 C..F B..5
....|..|--- .... ....|G-4 ...A ....|--- .... ....
.100|..|F-4 F9.. ....|D-5 ...F B..3|F-6 29.. ....
....|..|--- .... ....|A#4 ...A ....|--- .... ....
 G-4|..|G-2 2AF. ....|G-6 ...F B..5|G-2 7A.. ....
....|..|--- .... ....|D-5 ...A ....|--- .... ....
....|..|D-5 3FE. ....|D-6 ...F B..3|--- .... ....
....|..|G-1 2F.A ....|G-6 ...A ....|--- .... ....
....|..|A#4 3.EF ....|A#5 ...F B..5|--- .... ....
....|..|--- .... ....|D-6 ...A ....|--- .... ....
....|..|G-4 .... ....|G-5 ...F B..3|G-2 .F.A ....
....|..|--- .... ....|A#5 ...A ....|--- .... ....
 F-4|..|F-2 2A.. ....|F-6 ...F B..5|F-2 .A.F ....
.100|..|F-5 .9.. ....|G-5 ...A ....|--- .... ....
.200|..|F-5 .9.. ....|A#5 ...F B..3|--- .... ....
.300|..|F-5 .9.. ....|F-6 ...A ....|--- .... ....
....|..|F-2 .AF. ....|G-5 ...F B..5|G-2 .F.7 ....
....|..|R-- .... ....|A#5 ...A ....|--- .... ....
....|..|--- .... ....|F-5 ...F B..3|F-2 ...A ....
....|..|R-- .... ....|G-5 ...A ....|--- .... ....

[Pattern22]
 D#3|..|D#1 2A.F ....|C-4 9F.F B..5|D#2 7A.F ....
....|..|A#3 3FE7 ....|--- .... ....|--- .... ....
....|..|G-4 ...F ....|C-4 .... B..3|--- .... ....
....|..|D#1 2F.A ....|--- .... ....|--- .... ....
....|..|F-4 3.EF ....|C-4 ...D B..5|F-2 .F.7 ....
....|..|--- .... ....|--- .... ....|--- .... ....
 D#3|..|G-4 .... ....|C-4 .... B..3|D#1 2A.F ....
....|..|--- .... ....|--- .... ....|A#3 3FE7 ....
....|..|A#4 .... ....|C-4 K..A B..5|G-4 ...F ....
....|..|--- .... ....|G-5 2.F. ....|D#1 2F.A ....
....|..|F-3 ...7 ....|F-5 ...7 B..3|F-4 3.EF ....
....|..|--- .... ....|A#5 ...A ....|--- .... ....
 F-3|..|F-1 2A.F ....|G-5 ...F B..5|F-2 .A.. ....
....|..|--- .... ....|R-- .... ....|--- .... ....
 G-3|..|G-1 .A.. ....|D-6 .... B..3|G-2 .A.. ....
....|..|F-1 .F.A ....|G-5 ...A ....|--- .... ....
 F-3|..|F-1 .A.F ....|C-4 9F.F B..5|F-2 .A.. ....
....|..|G-1 .F.A ....|--- .... ....|--- .... ....
....|..|A#4 3.EF ....|C-4 .... B..3|F-2 .F.A ....
....|..|F-1 2F.A ....|--- .... ....|--- .... ....
....|..|F-4 3.EF ....|C-4 ...D B..5|G-2 .... ....
....|..|--- .... ....|--- .... ....|--- .... ....
....|..|C-5 ...A ....|C-4 .... B..3|F-2 .... ....
....|..|--- .... ....|--- .... ....|--- .... ....
....|..|A#4 ...F ....|C-4 K..A B..5|F-2 ...7 ....
....|..|--- .... ....|R-- .... ....|--- .... ....
....|..|A-4 .... ....|A-5 2.FF B..3|G-2 .... ....
....|..|--- .... ....|A#5 ...A ....|--- .... ....
....|..|F-4 .... ....|F-5 ...F B..5|F-2 .... ....
....|..|--- .... ....|A-5 ...A ....|--- .... ....
....|..|D#4 .... ....|D#5 ...F B..3|--- .... ....
....|..|--- .... ....|F-5 ...A ....|--- .... ....
....|..|A#4 .... ....|C-4 K... B..5|F-2 .... ....
....|..|--- .... ....|R-- .... ....|--- .... ....
....|..|A-4 .... ....|A-5 2..F B..3|G-2 .... ....
....|..|--- .... ....|A#5 ...A ....|--- .... ....
....|..|F-4 .... ....|F-5 ...F B..5|F-2 .... ....
....|..|--- .... ....|A-5 ...A ....|--- .... ....
....|..|D#4 .... ....|D#5 ...F B..3|--- .... ....
....|..|--- .... ....|F-5 ...A ....|--- .... ....
 G-3|..|G-1 2A.. ....|C-4 9F.F B..5|G-2 .A.F ....
....|..|--- .... ....|F-5 2.FA ....|--- .... ....
....|..|G-3 3FE. ....|G-4 ...F B..3|--- .... ....
....|..|--- .... ....|A#4 ...A ....|--- .... ....
....|..|A#3 .... ....|A#4 ...F B..5|G-2 .F.7 ....
....|..|--- .... ....|G-4 ...A ....|--- .... ....
....|..|D-4 .... ....|D-5 ...F B..3|--- .... ....
....|..|--- .... ....|A#4 ...A ....|--- .... ....
....|..|A#3 .... ....|A#4 ...F B..5|--- .... ....
....|..|--- .... ....|G-4 ...A ....|--- .... ....
....|..|D-4 .... ....|D-5 ...F B..3|--- .... ....
....|..|--- .... ....|A#4 ...A ....|--- .... ....
....|..|A#3 .... ....|A#4 ...F B..5|--- .... ....
....|..|--- .... ....|G-4 ...A ....|--- .... ....
....|..|D-4 .... ....|D-5 ...F B..3|--- .... ....
....|..|--- .... ....|A#4 ...A ....|--- .... ....
 F-3|..|G-1 2A.. ....|C-4 9F.F B..5|G-3 ..EF ....
....|..|--- .... ....|--- .... ....|--- .... ....
....|..|D-5 3FE. ....|C-4 .... B..3|A#3 .... ....
....|..|G-1 2F.A ....|--- .... ....|--- .... ....
....|..|A#4 3.EF ....|C-4 ...D B..5|D-4 .... ....
....|..|--- .... ....|--- .... ....|--- .... ....
....|..|G-4 .... ....|C-4 .... B..3|G-3 .... ....
....|..|--- .... ....|--- .... ....|--- .... ....
 F-3|..|F-1 2A.. ....|C-4 K..A B..5|A#3 .... ....
....|..|--- .... ....|G-5 2.F. ....|--- .... ....
....|..|A#4 3FE. ....|A#5 ...F B..3|D-4 .... ....
....|..|F-1 2F.A ....|F-6 ...A ....|--- .... ....
....|..|G-4 3.EF ....|G-5 ...F B..5|G-3 .... ....
....|..|--- .... ....|A#5 ...A ....|--- .... ....
....|..|F-4 .... ....|F-5 ...F B..3|A#3 .... ....
....|..|--- .... ....|G-5 ...A ....|--- .... ....

