[Module]
VortexTrackerII=0
Version=3.5
Title=2me,3m[2d]-6p[3]+-8p[4]+-7p[4]+,4m[ue]-5m[uf]+
Author=oisee ^ 4d 29.05.2010
NoteTable=4
ChipFreq=1750000
Speed=4
PlayOrder=L0,1,2,3,4,5,6,7,8,9,10,11,12,13,14,15,16,17,18,19,20,21,22,3,4,5,6,7,8,9,10,11,12,13,34,35,36,37,38,39,40,41,15,16,17,45,46,47,48,49,1,51,52,53,54,55,56,57,58,59


[Ornament1]
L0,0,4,4,7,7

[Ornament2]
L0,0,3,3

[Ornament3]
L0,0,5,5,9,9

[Ornament4]
L0,0,9,9

[Ornament5]
L0,0,7,7

[Ornament6]
L0,0,2,2,7,7

[Ornament7]
L0,0,4,4

[Ornament8]
L0,0,12,12

[Ornament9]
L0,0,5,5

[Ornament10]
L0,0,4,4,7,7,12,12

[Ornament11]
L0,0,5,5,7,7,12,12

[Ornament12]
L0,0,2,2


[Sample1]
TnE +000_ +00_ F_
TnE +000_ +00_ F_
TnE +000_ +00_ F_
TnE +000_ +00_ D_
TnE +000_ +00_ B_
TnE +000_ +00_ B_ L

[Sample2]
TnE +000_ +00_ F_ L

[Sample3]
TnE +001_ +00_ F_
TnE +002_ +00_ F_
TnE +001_ +00_ E_
TnE +002_ +00_ E_
TnE +000_ +00_ E_ L
TnE -001_ +00_ E_
TnE -002_ +00_ E_
TnE -001_ +00_ E_
TnE +000_ +00_ E_
TnE +001_ +00_ E_
TnE +002_ +00_ E_
TnE +001_ +00_ E_

[Sample4]
TnE +002_ +00_ D_
TnE +002_ +00_ D_
TnE +002_ +00_ C_
TnE +002_ +00_ B_
TnE +002_ +00_ A_ L
TnE +002_ +00_ A_
TnE +002_ +00_ A_
TnE +002_ +00_ A_
TnE +002_ +00_ A_
TnE +002_ +00_ A_
TnE +002_ +00_ A_
TnE +002_ +00_ A_

[Sample5]
TnE +000_ +00_ F_
TnE +000_ +00_ F_
tne +000_ +00_ 0_ L

[Sample6]
TnE -001_ +00_ F_ L

[Sample7]
TnE +006_ +00_ F_ L

[Sample8]
tNe +000_ +00_ F_
tNe +000_ +00_ B_
tNe +000_ +00_ 7_
tNe +000_ +00_ 6- L

[Sample9]
TnE +080_ +00_ F_
TnE +100_ +00_ E_
TnE +180_ +00_ E_
TnE +200_ +00_ E_
TnE +240_ +00_ D_
TnE +280_ +00_ D_
TnE +2C0_ +00_ D_
TnE +300_ +00_ C_
TnE +300_ +00_ C_
TnE +340_ +00_ C_
TnE +340_ +00_ C_
TnE +380_ +00_ B_
TnE +380_ +00_ B_
TnE +400_ +00_ B_
TnE +400_ +00_ B_
TnE +480_ +00_ A_
TnE +500_ +00_ 9_
TnE +580_ +00_ 7_
TnE +600_ +00_ 4_
TnE +680_ +00_ 1_
TnE +000_ +00_ 0_ L

[Sample10]
Tne +1C0_ +00_ F_
Tne +280_ +00_ E_
Tne +380_ +00_ C_
Tne +440_ +00_ A_
Tne +480_ +00_ 8_
TnE +000_ +00_ 0_ L

[Sample11]
TNe +200_ -0A_ F_
tNe +000_ +0F_ A_
TNe +200_ -07_ E_
tNe +000_ +0E_ B- L

[Sample12]
TNE +0A0_ +05_ F_
TNE +140_ +02_ D_
TNE +140_ +02_ B_
TNE +100_ +00_ A_ L
TNE +140_ +00_ A_
TNE +200_ +00_ A-

[Sample13]
Tne +200_ +00_ F_
Tne +2C0_ +00_ F_
Tne +380_ +00_ E_
Tne +500_ +00_ C_
Tne +520_ +00_ 9_
tne +000_ +00_ 0_ L

[Sample14]
TNE -100_ +00_ F_
TNE -100_ +00_ D_
TNE -100_ +00_ A_
TNE -100_ +00_ 5_
tne +000_ +00_ 0_ L

[Sample15]
TNE -100_ +00_ 5_
TNE -100_ +00_ 8_
TNE -100_ +00_ B_
TNE -100_ +00_ F_
TNe -100_ +00_ 9- L

[Sample16]
TnE +000_ +00_ C_
TnE +000_ +00_ E_
TnE +000_ +00_ F_
TnE +000_ +00_ F_
TnE +000_ +00_ E_
TnE +000_ +00_ D_
TnE +000_ +00_ C_
TnE +000_ +00_ C_ L
TnE +001_ +00_ C_
TnE +002_ +00_ C_
TnE +003_ +00_ C_
TnE +001_ +00_ C_
TnE +000_ +00_ C_
TnE -001_ +00_ C_
TnE -002_ +00_ C_
TnE -003_ +00_ C_
TnE -001_ +00_ C_
TnE +000_ +00_ C_
TnE +000_ +00_ C_

[Sample17]
Tne +1C0_ +00_ F_
Tne +280_ +00_ D_
Tne +380_ +00_ 7_
TNE +000_ +00_ 0_ L

[Sample18]
TnE -00C_ +00_ 0_ L

[Sample19]
TNe +000_ +00_ F_
TNe +000_ +00_ C_
TNe +000_ +00_ 6_
TNe +000_ +01_ A- L

[Sample20]
TNE +140_ +00_ F_
tNE +000_ +00_ B- L

[Sample21]
tNE +000_ +00_ D_
tNE +000_ +00_ 8_
tNE +000_ +00_ 1_
TNE +000_ +00_ 0_ L

[Sample22]
TnE +000_ +00_ D_ L
TnE +000_ +00_ D_
tne +000_ +00_ 9_
tne +000_ +00_ 9_
TnE +000_ +00_ D_
TnE +000_ +00_ D_
tne +000_ +00_ 9_
tne +000_ +00_ 9_
TnE +000_ +00_ D_
TnE +000_ +00_ D_
TnE +000_ +00_ D_
TnE +000_ +00_ D_
TnE +000_ +00_ D_
TnE +000_ +00_ D_
tne +000_ +00_ 9_
tne +000_ +00_ 9_

[Sample23]
TnE +000_ +00_ F_ L
TnE +010_ +01_ F_
TnE +010_ +01_ F_
TnE +010_ +01_ F_
TnE +010_ +01_ F_
TnE +000_ +00_ F_
TnE +000_ +00_ F_
TnE -010_ -01_ F_
TnE -010_ -01_ F_
TnE -010_ -01_ F_
TnE -010_ -01_ F_
TnE +000_ +00_ F_

[Sample24]
TNe +000_ -01_ C_
TNe +000_ -01_ D_
TNe +000_ -01_ E_
TNe +000_ -01_ F_
TNe +000_ -01_ F_
TNe +000_ -01_ F_
TNe +000_ -01_ F_
TNe +000_ -01_ F_
TNe +000_ -01_ E_
TNe +000_ -01_ E_
TNe +000_ -01_ E_
TNe +000_ -01_ F_
TNe +000_ -01_ F_ L

[Sample25]
TNE +000_ +00_ F_
TNE +000_ +00_ F_ L
TNE +000_ +00_ F_
TNE +000_ +00_ F_
TNE +000_ +00_ F-

[Sample26]
tne +000_ +00_ 0_ L

[Sample27]
TnE +100_ +05_ F_
TnE +200_ +02_ A_
TnE +300_ +02_ 7_
TNE +400_ +00_ 3- L

[Sample28]
tne +000_ +00_ 0_ L

[Sample29]
tnE +000_ +00_ 0_ L

[Sample30]
TNE +000_ +00_ C+ L

[Sample31]
TNe +1C0_ +00_ F_
Tne +280_ +00_ E_
Tne +380_ +00_ C_
Tne +440_ +00_ A_
Tne +480_ +00_ 8_
TnE +000_ +00_ 0_ L

[Pattern0]
....|..|--- .... ....|--- .... ....|--- .... ....
....|..|--- .... ....|--- .... ....|--- .... ....
....|..|--- .... ....|--- .... ....|--- .... ....
....|..|--- .... ....|--- .... ....|--- .... ....
....|..|--- .... ....|--- .... ....|--- .... ....
....|..|--- .... ....|--- .... ....|--- .... ....
....|..|--- .... ....|--- .... ....|--- .... ....
....|..|--- .... ....|--- .... ....|--- .... ....
....|..|--- .... ....|--- .... ....|--- .... ....
....|..|--- .... ....|--- .... ....|--- .... ....
....|..|--- .... ....|--- .... ....|--- .... ....
....|..|--- .... ....|--- .... ....|--- .... ....
....|..|--- .... ....|--- .... ....|--- .... ....
....|..|--- .... ....|--- .... ....|--- .... ....
....|..|--- .... ....|--- .... ....|--- .... ....
....|..|--- .... ....|--- .... ....|--- .... ....
....|..|--- .... ....|--- .... ....|--- .... ....
....|..|--- .... ....|--- .... ....|--- .... ....
....|..|--- .... ....|--- .... ....|--- .... ....
....|..|--- .... ....|--- .... ....|--- .... ....
....|..|--- .... ....|--- .... ....|--- .... ....
....|..|--- .... ....|--- .... ....|--- .... ....
....|..|--- .... ....|--- .... ....|--- .... ....
....|..|--- .... ....|--- .... ....|--- .... ....
....|..|--- .... ....|--- .... ....|--- .... ....
....|..|--- .... ....|--- .... ....|--- .... ....
....|..|--- .... ....|--- .... ....|--- .... ....
....|..|--- .... ....|--- .... ....|--- .... ....
....|..|--- .... ....|D#4 2FDF ....|--- .... ....
....|..|--- .... ....|--- .... ....|--- .... ....
....|..|--- .... ....|--- .... ....|--- .... ....
....|..|--- .... ....|--- .... ....|--- .... ....
....|..|--- .... ....|G-4 2FDF ....|--- .... ....
....|..|--- .... ....|--- .... ....|--- .... ....
....|..|--- .... ....|D#4 2FDA ....|--- .... ....
....|..|--- .... ....|--- .... ....|--- .... ....
....|..|--- .... ....|D#5 2FDF ....|--- .... ....
....|..|--- .... ....|--- .... ....|--- .... ....
....|..|--- .... ....|G-4 2FDA ....|--- .... ....
....|..|--- .... ....|--- .... ....|--- .... ....
....|..|--- .... ....|A#5 2FDF ....|--- .... ....
....|..|--- .... ....|A#5 2FDF ....|--- .... ....
....|..|--- .... ....|D#5 2FDA ....|--- .... ....
....|..|--- .... ....|--- .... ....|--- .... ....
....|..|--- .... ....|F-4 2FDF ....|--- .... ....
....|..|--- .... ....|--- .... ....|--- .... ....
....|..|--- .... ....|A#5 2FDA ....|--- .... ....
....|..|--- .... ....|A#5 2FDA ....|--- .... ....
....|..|--- .... ....|A-4 2FDF ....|--- .... ....
....|..|--- .... ....|--- .... ....|--- .... ....
....|..|--- .... ....|F-4 2FDA ....|--- .... ....
....|..|--- .... ....|--- .... ....|--- .... ....
....|..|--- .... ....|F-5 2FDF ....|--- .... ....
....|..|--- .... ....|A#5 2FD7 ....|--- .... ....
....|..|--- .... ....|A-4 2FDA ....|--- .... ....
....|..|--- .... ....|--- .... ....|--- .... ....
....|..|--- .... ....|C-6 2FDF ....|--- .... ....
....|..|--- .... ....|A-4 2FDF ....|--- .... ....
....|..|--- .... ....|F-5 2FDA ....|--- .... ....
....|..|--- .... ....|--- .... ....|--- .... ....
....|..|--- .... ....|A#3 2FDF ....|--- .... ....
....|..|--- .... ....|--- .... ....|--- .... ....
....|..|--- .... ....|C-6 2FDA ....|--- .... ....
....|..|--- .... ....|A-4 2FDA ....|--- .... ....

[Pattern1]
....|..|--- .... ....|F-4 2FDF ....|--- .... ....
....|..|--- .... ....|--- .... ....|--- .... ....
....|..|--- .... ....|A#3 2FDA ....|--- .... ....
....|..|--- .... ....|--- .... ....|--- .... ....
....|..|--- .... ....|D-5 2FDF ....|--- .... ....
....|..|--- .... ....|A-4 2FD7 ....|--- .... ....
....|..|--- .... ....|F-4 2FDA ....|--- .... ....
....|..|--- .... ....|--- .... ....|--- .... ....
....|..|--- .... ....|A#5 2FDF ....|--- .... ....
....|..|--- .... ....|A#5 2FDF ....|--- .... ....
....|..|--- .... ....|D-5 2FDA ....|--- .... ....
....|..|--- .... ....|--- .... ....|--- .... ....
....|..|--- .... ....|G-3 2FDF ....|--- .... ....
....|..|--- .... ....|--- .... ....|--- .... ....
....|..|--- .... ....|A#5 2FDA ....|--- .... ....
....|..|--- .... ....|A#5 2FDA ....|--- .... ....
....|..|--- .... ....|D-4 2FDF ....|--- .... ....
....|..|--- .... ....|--- .... ....|--- .... ....
....|..|--- .... ....|G-3 2FDA ....|--- .... ....
....|..|--- .... ....|--- .... ....|--- .... ....
....|..|--- .... ....|D-5 2FDF ....|--- .... ....
....|..|--- .... ....|A#5 2FD7 ....|--- .... ....
....|..|--- .... ....|D-4 2FDA ....|--- .... ....
....|..|--- .... ....|--- .... ....|--- .... ....
....|..|--- .... ....|A#5 2FDF ....|--- .... ....
....|..|--- .... ....|A#5 2FDF ....|--- .... ....
....|..|--- .... ....|D-4 2FDF ....|--- .... ....
....|..|--- .... ....|R-- .... ....|--- .... ....
....|..|--- .... ....|D#4 2FDF ....|--- .... ....
....|..|--- .... ....|--- .... ....|--- .... ....
....|..|--- .... ....|A#5 2FDA ....|--- .... ....
....|..|--- .... ....|A#5 2FDA ....|--- .... ....
....|..|--- .... ....|G-4 2FDF ....|--- .... ....
....|..|--- .... ....|R-- .... ....|--- .... ....
....|..|--- .... ....|D#4 2FDA ....|--- .... ....
....|..|--- .... ....|--- .... ....|--- .... ....
....|..|--- .... ....|D#5 2FDF ....|--- .... ....
....|..|--- .... ....|A#5 2FD7 ....|--- .... ....
....|..|--- .... ....|D-4 2FD7 ....|--- .... ....
....|..|--- .... ....|R-- .... ....|--- .... ....
....|..|--- .... ....|A#5 2FDF ....|--- .... ....
....|..|--- .... ....|A#5 2FDF ....|--- .... ....
....|..|--- .... ....|D#5 2FDA ....|--- .... ....
....|..|--- .... ....|--- .... ....|--- .... ....
....|..|--- .... ....|F-4 2FDF ....|--- .... ....
....|..|--- .... ....|--- .... ....|--- .... ....
....|..|--- .... ....|A#5 2FDA ....|--- .... ....
....|..|--- .... ....|A#5 2FDA ....|--- .... ....
....|..|--- .... ....|A-4 2FDF ....|--- .... ....
....|..|--- .... ....|--- .... ....|--- .... ....
....|..|--- .... ....|F-4 2FDA ....|--- .... ....
....|..|--- .... ....|--- .... ....|--- .... ....
....|..|--- .... ....|F-5 2FDF ....|--- .... ....
....|..|--- .... ....|A#5 2FD7 ....|--- .... ....
....|..|--- .... ....|A-4 2FDA ....|--- .... ....
....|..|--- .... ....|--- .... ....|--- .... ....
....|..|--- .... ....|C-6 2FDF ....|--- .... ....
....|..|--- .... ....|A-4 2FDF ....|--- .... ....
....|..|--- .... ....|F-5 2FDA ....|--- .... ....
....|..|--- .... ....|--- .... ....|--- .... ....
....|..|--- .... ....|A#3 2FDF ....|--- .... ....
....|..|--- .... ....|--- .... ....|--- .... ....
....|..|--- .... ....|C-6 2FDA ....|--- .... ....
....|..|--- .... ....|A-4 2FDA ....|--- .... ....

[Pattern2]
....|..|--- .... ....|F-4 2FDF ....|--- .... ....
....|..|--- .... ....|--- .... ....|--- .... ....
....|..|--- .... ....|A#3 2FDA ....|--- .... ....
....|..|--- .... ....|--- .... ....|--- .... ....
....|..|--- .... ....|D-5 2FDF ....|--- .... ....
....|..|--- .... ....|A-4 2FD7 ....|--- .... ....
....|..|--- .... ....|F-4 2FDA ....|--- .... ....
....|..|--- .... ....|--- .... ....|--- .... ....
....|..|--- .... ....|A#5 2FDF ....|--- .... ....
....|..|--- .... ....|A#5 2FDF ....|--- .... ....
....|..|--- .... ....|D-5 2FDA ....|--- .... ....
....|..|--- .... ....|--- .... ....|--- .... ....
....|..|--- .... ....|G-3 2FDF ....|--- .... ....
....|..|--- .... ....|--- .... ....|--- .... ....
....|..|--- .... ....|A#5 2FDA ....|--- .... ....
....|..|--- .... ....|A#5 2FDA ....|--- .... ....
....|..|--- .... ....|D-4 2FDF ....|--- .... ....
....|..|--- .... ....|--- .... ....|--- .... ....
....|..|--- .... ....|G-3 2FDA ....|--- .... ....
....|..|--- .... ....|--- .... ....|--- .... ....
....|..|--- .... ....|D-5 2FDF ....|--- .... ....
....|..|--- .... ....|A#5 2FD7 ....|--- .... ....
....|..|--- .... ....|D-4 2FDA ....|--- .... ....
....|..|--- .... ....|--- .... ....|--- .... ....
....|..|--- .... ....|A#5 2FDF ....|--- .... ....
....|..|--- .... ....|A#5 2FDF ....|--- .... ....
....|..|--- .... ....|D-4 2FDF ....|--- .... ....
....|..|--- .... ....|R-- .... ....|--- .... ....
....|..|--- .... ....|D#4 2FDF ....|--- .... ....
....|..|--- .... ....|--- .... ....|--- .... ....
....|..|--- .... ....|A#5 2FDA ....|--- .... ....
....|..|--- .... ....|A#5 2FDA ....|--- .... ....
....|..|--- .... ....|G-4 2FDF ....|--- .... ....
....|..|--- .... ....|R-- .... ....|--- .... ....
....|..|--- .... ....|D#4 2FDA ....|--- .... ....
....|..|--- .... ....|--- .... ....|--- .... ....
....|..|--- .... ....|D#5 2FDF ....|--- .... ....
....|..|--- .... ....|A#5 2FD7 ....|--- .... ....
....|..|--- .... ....|D-4 2FD7 ....|--- .... ....
....|..|--- .... ....|R-- .... ....|--- .... ....
....|..|--- .... ....|A#5 2FDF ....|A#3 UFEF ....
....|..|--- .... ....|A#5 2FDF ....|--- .... ....
....|..|--- .... ....|D#5 2FDA ....|--- .... ....
....|..|--- .... ....|--- .... ....|R-- .... ....
....|..|--- .... ....|F-4 2FDF ....|A-3 UFEF ....
....|..|--- .... ....|--- .... ....|--- .... ....
....|..|--- .... ....|A#5 2FDA ....|A#3 UFEA ....
....|..|--- .... ....|A#5 2FDA ....|--- .... ....
....|..|--- .... ....|A-4 2FDF ....|--- .... ....
....|..|--- .... ....|--- .... ....|R-- .... ....
....|..|--- .... ....|F-4 2FDA ....|A-3 UFEA ....
....|..|--- .... ....|--- .... ....|--- .... ....
....|..|--- .... ....|F-5 2FDF ....|A#3 UFEF ....
....|..|--- .... ....|A#5 2FD7 ....|--- .... ....
....|..|--- .... ....|A-4 2FDA ....|--- .... ....
....|..|--- .... ....|--- .... ....|R-- .... ....
....|..|--- .... ....|C-6 2FDF ....|A-3 UFE7 ....
....|..|--- .... ....|A-4 2FDF ....|--- .... ....
....|..|--- .... ....|F-5 2FDA ....|A#3 UFEA ....
....|..|--- .... ....|--- .... ....|--- .... ....
....|..|--- .... ....|A#3 2FDF ....|C-4 UFEF ....
....|..|--- .... ....|--- .... ....|R-- .... ....
....|..|--- .... ....|C-6 2FDA ....|--- .... ....
....|..|--- .... ....|A-4 2FDA ....|--- .... ....

[Pattern3]
....|..|--- .... ....|F-4 2FDF ....|A#3 UFE7 ....
....|..|--- .... ....|--- .... ....|--- .... ....
....|..|--- .... ....|A#3 2FDA ....|C-4 UFEA ....
....|..|--- .... ....|--- .... ....|--- .... ....
....|..|--- .... ....|D-5 2FDF ....|A#3 UFEF ....
....|..|--- .... ....|A-4 2FD7 ....|--- .... ....
....|..|--- .... ....|F-4 2FDA ....|R-- .... ....
....|..|--- .... ....|--- .... ....|--- .... ....
....|..|--- .... ....|A#5 2FDF ....|C-4 UFE7 ....
....|..|--- .... ....|A#5 2FDF ....|--- .... ....
....|..|--- .... ....|D-5 2FDA ....|A#3 UFEA ....
....|..|--- .... ....|--- .... ....|--- .... ....
....|..|--- .... ....|G-3 2FDF ....|A#3 UFEF ....
....|..|--- .... ....|--- .... ....|--- .... ....
....|..|--- .... ....|A#5 2FDA ....|R-- .... ....
....|..|--- .... ....|A#5 2FDA ....|--- .... ....
....|..|--- .... ....|D-4 2FDF ....|A#3 UFE7 ....
....|..|--- .... ....|--- .... ....|--- .... ....
....|..|--- .... ....|G-3 2FDA ....|A#3 UFEA ....
....|..|--- .... ....|--- .... ....|--- .... ....
....|..|--- .... ....|D-5 2FDF ....|--- .... ....
....|..|--- .... ....|A#5 2FD7 ....|--- .... ....
....|..|--- .... ....|D-4 2FDA ....|R-- .... ....
....|..|--- .... ....|--- .... ....|--- .... ....
....|..|--- .... ....|A#5 2FDF ....|G-3 UFEF ....
....|..|--- .... ....|A#5 2FDF ....|--- .... ....
....|..|--- .... ....|D-4 2FDF ....|--- .... ....
....|..|--- .... ....|R-- .... ....|--- .... ....
....|..|--- .... ....|D#4 2FDF ....|F-3 UFEF ....
....|..|--- .... ....|--- .... ....|--- .... ....
....|..|--- .... ....|A#5 2FDA ....|G-3 UFEA ....
....|..|--- .... ....|A#5 2FDA ....|R-- .... ....
....|..|--- .... ....|G-4 2FDF ....|--- .... ....
....|..|--- .... ....|R-- .... ....|--- .... ....
....|..|--- .... ....|D#4 2FDA ....|F-3 UFEA ....
....|..|--- .... ....|--- .... ....|--- .... ....
....|..|--- .... ....|D#5 2FDF ....|G-3 UFE7 ....
....|..|--- .... ....|A#5 2FD7 ....|R-- .... ....
....|..|--- .... ....|D-4 2FD7 ....|--- .... ....
....|..|--- .... ....|R-- .... ....|--- .... ....
....|..|--- .... ....|A#5 2FDF ....|F-3 UFE7 ....
....|..|--- .... ....|A#5 2FDF ....|--- .... ....
....|..|--- .... ....|D#5 2FDA ....|--- .... ....
....|..|--- .... ....|--- .... ....|R-- .... ....
....|..|--- .... ....|F-4 2FDF ....|--- .... ....
....|..|--- .... ....|--- .... ....|--- .... ....
....|..|--- .... ....|A#5 2FDA ....|--- .... ....
....|..|--- .... ....|A#5 2FDA ....|--- .... ....
....|..|--- .... ....|A-4 2FDF ....|A-3 UFEF ....
....|..|--- .... ....|--- .... ....|--- .... ....
....|..|--- .... ....|F-4 2FDA ....|--- .... ....
....|..|--- .... ....|--- .... ....|--- .... ....
....|..|--- .... ....|F-5 2FDF ....|A#3 UFEF ....
....|..|--- .... ....|A#5 2FD7 ....|R-- .... ....
....|..|--- .... ....|A-4 2FDA ....|A-3 UFEA ....
....|..|--- .... ....|--- .... ....|--- .... ....
....|..|--- .... ....|C-6 2FDF ....|A-3 UFEF ....
....|..|--- .... ....|A-4 2FDF ....|R-- .... ....
....|..|--- .... ....|F-5 2FDA ....|A#3 UFEA ....
....|..|--- .... ....|--- .... ....|R-- .... ....
....|..|--- .... ....|A#3 2FDF ....|A#3 UFEF ....
....|..|--- .... ....|--- .... ....|--- .... ....
....|..|--- .... ....|C-6 2FDA ....|A-3 UFEA ....
....|..|--- .... ....|A-4 2FDA ....|R-- .... ....

[Pattern4]
....|..|--- .... ....|F-4 2FDF ....|A#3 UFE7 ....
....|..|--- .... ....|--- .... ....|R-- .... ....
....|..|--- .... ....|A#3 2FDA ....|A#3 UFEA ....
....|..|--- .... ....|--- .... ....|--- .... ....
....|..|--- .... ....|D-5 2FDF ....|A-3 UFE7 ....
....|..|--- .... ....|A-4 2FD7 ....|R-- .... ....
....|..|--- .... ....|F-4 2FDA ....|--- .... ....
....|..|--- .... ....|--- .... ....|--- .... ....
....|..|--- .... ....|A#5 2FDF ....|A#3 UFE7 ....
....|..|--- .... ....|A#5 2FDF ....|--- .... ....
....|..|--- .... ....|D-5 2FDA ....|--- .... ....
....|..|--- .... ....|--- .... ....|--- .... ....
....|..|--- .... ....|G-3 2FDF ....|--- .... ....
....|..|--- .... ....|--- .... ....|R-- .... ....
....|..|--- .... ....|A#5 2FDA ....|--- .... ....
....|..|--- .... ....|A#5 2FDA ....|--- .... ....
....|..|--- .... ....|D-4 2FDF ....|--- .... ....
....|..|--- .... ....|--- .... ....|--- .... ....
....|..|--- .... ....|G-3 2FDA ....|--- .... ....
....|..|--- .... ....|--- .... ....|R-- .... ....
....|..|--- .... ....|D-5 2FDF ....|D-4 UFEF ....
....|..|--- .... ....|A#5 2FD7 ....|--- .... ....
....|..|--- .... ....|D-4 2FDA ....|--- .... ....
....|..|--- .... ....|--- .... ....|--- .... ....
....|..|--- .... ....|A#5 2FDF ....|--- .... ....
....|..|--- .... ....|A#5 2FDF ....|R-- .... ....
....|..|--- .... ....|D-4 2FDF ....|D-4 UFEA ....
....|..|--- .... ....|R-- .... ....|--- .... ....
....|..|--- .... ....|D#4 2FDF ....|A#3 UFEF ....
....|..|--- .... ....|--- .... ....|--- .... ....
....|..|--- .... ....|A#5 2FDA ....|--- .... ....
....|..|--- .... ....|A#5 2FDA ....|--- .... ....
....|..|--- .... ....|G-4 2FDF ....|D-4 UFE7 ....
....|..|--- .... ....|R-- .... ....|--- .... ....
....|..|--- .... ....|D#4 2FDA ....|A#3 UFEA ....
....|..|--- .... ....|--- .... ....|--- .... ....
....|..|--- .... ....|D#5 2FDF ....|--- .... ....
....|..|--- .... ....|A#5 2FD7 ....|--- .... ....
....|..|--- .... ....|D-4 2FD7 ....|R-- .... ....
....|..|--- .... ....|R-- .... ....|--- .... ....
....|..|--- .... ....|A#5 2FDF ....|G-3 UFEF ....
....|..|--- .... ....|A#5 2FDF ....|--- .... ....
....|..|--- .... ....|D#5 2FDA ....|--- .... ....
....|..|--- .... ....|--- .... ....|R-- .... ....
....|..|--- .... ....|F-4 2FDF ....|F-3 UFEF ....
....|..|--- .... ....|--- .... ....|--- .... ....
....|..|--- .... ....|A#5 2FDA ....|G-3 UFEA ....
....|..|--- .... ....|A#5 2FDA ....|--- .... ....
....|..|--- .... ....|A-4 2FDF ....|A#3 UFEF ....
....|..|--- .... ....|--- .... ....|R-- .... ....
....|..|--- .... ....|F-4 2FDA ....|F-3 UFEA ....
....|..|--- .... ....|--- .... ....|--- .... ....
....|..|--- .... ....|F-5 2FDF ....|G-3 UFE7 ....
....|..|--- .... ....|A#5 2FD7 ....|--- .... ....
....|..|--- .... ....|A-4 2FDA ....|A#3 UFEA ....
....|..|--- .... ....|--- .... ....|R-- .... ....
....|..|--- .... ....|C-6 2FDF ....|G-3 UFEF ....
....|..|--- .... ....|A-4 2FDF ....|--- .... ....
....|..|--- .... ....|F-5 2FDA ....|R-- .... ....
....|..|--- .... ....|--- .... ....|R-- .... ....
....|..|--- .... ....|A#3 2FDF ....|F-3 UFEF ....
....|..|--- .... ....|--- .... ....|R-- .... ....
....|..|--- .... ....|C-6 2FDA ....|G-3 UFEA ....
....|..|--- .... ....|A-4 2FDA ....|--- .... ....

[Pattern5]
....|..|--- .... ....|F-4 2FDF ....|C-4 UFEF ....
....|..|--- .... ....|--- .... ....|R-- .... ....
....|..|--- .... ....|A#3 2FDA ....|F-3 UFEA ....
....|..|--- .... ....|--- .... ....|R-- .... ....
....|..|--- .... ....|D-5 2FDF ....|C-4 UFEF ....
....|..|--- .... ....|A-4 2FD7 ....|A#3 UFEF ....
....|..|--- .... ....|F-4 2FDA ....|C-4 UFEA ....
....|..|--- .... ....|--- .... ....|R-- .... ....
....|..|--- .... ....|A#5 2FDF ....|F-3 UFE7 ....
....|..|--- .... ....|A#5 2FDF ....|R-- .... ....
....|..|--- .... ....|D-5 2FDA ....|C-4 UFEA ....
....|..|--- .... ....|--- .... ....|A#3 UFEA ....
....|..|--- .... ....|G-3 2FDF ....|A#3 UFEF ....
....|..|--- .... ....|--- .... ....|--- .... ....
....|..|--- .... ....|A#5 2FDA ....|--- .... ....
....|..|--- .... ....|A#5 2FDA ....|--- .... ....
....|..|--- .... ....|D-4 2FDF ....|C-4 UFE7 ....
....|..|--- .... ....|--- .... ....|A#3 UFE7 ....
....|..|--- .... ....|G-3 2FDA ....|A#3 UFEA ....
....|..|--- .... ....|--- .... ....|--- .... ....
....|..|--- .... ....|D-5 2FDF ....|--- .... ....
....|..|--- .... ....|A#5 2FD7 ....|--- .... ....
....|..|--- .... ....|D-4 2FDA ....|R-- .... ....
....|..|--- .... ....|--- .... ....|--- .... ....
....|..|--- .... ....|A#5 2FDF ....|A#3 UFE7 ....
....|..|--- .... ....|A#5 2FDF ....|--- .... ....
....|..|--- .... ....|D-4 2FDF ....|R-- .... ....
....|..|--- .... ....|R-- .... ....|--- .... ....
....|..|--- .... ....|D#4 2FDF ....|A#3 UFEF ....
....|..|--- .... ....|--- .... ....|R-- .... ....
....|..|--- .... ....|A#5 2FDA ....|A#3 UFEF ....
....|..|--- .... ....|A#5 2FDA ....|R-- .... ....
....|..|--- .... ....|G-4 2FDF ....|A#3 UFEF ....
....|..|--- .... ....|R-- .... ....|R-- .... ....
....|..|--- .... ....|D#4 2FDA ....|A#3 UFEF ....
....|..|--- .... ....|--- .... ....|R-- .... ....
....|..|--- .... ....|D#5 2FDF ....|A#3 UFEF ....
....|..|--- .... ....|A#5 2FD7 ....|R-- .... ....
....|..|--- .... ....|D-4 2FD7 ....|A#3 UFEA ....
....|..|--- .... ....|R-- .... ....|R-- .... ....
....|..|--- .... ....|A#5 2FDF ....|A#3 UFEF ....
....|..|--- .... ....|A#5 2FDF ....|R-- .... ....
....|..|--- .... ....|D#5 2FDA ....|A#3 UFE7 ....
....|..|--- .... ....|--- .... ....|R-- .... ....
....|..|--- .... ....|F-4 2FDF ....|A#3 UFEF ....
....|..|--- .... ....|--- .... ....|R-- .... ....
....|..|--- .... ....|A#5 2FDA ....|A#3 UFE7 ....
....|..|--- .... ....|A#5 2FDA ....|R-- .... ....
....|..|--- .... ....|A-4 2FDF ....|A#3 UFE7 ....
....|..|--- .... ....|--- .... ....|--- .... ....
....|..|--- .... ....|F-4 2FDA ....|A#3 UFEA ....
....|..|--- .... ....|--- .... ....|R-- .... ....
....|..|--- .... ....|F-5 2FDF ....|A-3 UFEF ....
....|..|--- .... ....|A#5 2FD7 ....|R-- .... ....
....|..|--- .... ....|A-4 2FDA ....|--- .... ....
....|..|--- .... ....|--- .... ....|--- .... ....
....|..|--- .... ....|C-6 2FDF ....|A#3 UFE7 ....
....|..|--- .... ....|A-4 2FDF ....|--- .... ....
....|..|--- .... ....|F-5 2FDA ....|A-3 UFEA ....
....|..|--- .... ....|--- .... ....|R-- .... ....
....|..|--- .... ....|A#3 2FDF ....|A#3 UFEF ....
....|..|--- .... ....|--- .... ....|--- .... ....
....|..|--- .... ....|C-6 2FDA ....|R-- .... ....
....|..|--- .... ....|A-4 2FDA ....|--- .... ....

[Pattern6]
....|..|--- .... ....|F-4 2FDF ....|A-3 UFE7 ....
....|..|--- .... ....|--- .... ....|R-- .... ....
....|..|--- .... ....|A#3 2FDA ....|A#3 UFEA ....
....|..|--- .... ....|--- .... ....|--- .... ....
....|..|--- .... ....|D-5 2FDF ....|--- .... ....
....|..|--- .... ....|A-4 2FD7 ....|--- .... ....
....|..|--- .... ....|F-4 2FDA ....|--- .... ....
....|..|--- .... ....|--- .... ....|R-- .... ....
....|..|--- .... ....|A#5 2FDF ....|A#3 UFE7 ....
....|..|--- .... ....|A#5 2FDF ....|--- .... ....
....|..|--- .... ....|D-5 2FDA ....|--- .... ....
....|..|--- .... ....|--- .... ....|--- .... ....
....|..|--- .... ....|G-3 2FDF ....|--- .... ....
....|..|--- .... ....|--- .... ....|--- .... ....
....|..|--- .... ....|A#5 2FDA ....|--- .... ....
....|..|--- .... ....|A#5 2FDA ....|R-- .... ....
....|..|--- .... ....|D-4 2FDF ....|--- .... ....
....|..|--- .... ....|--- .... ....|--- .... ....
....|..|--- .... ....|G-3 2FDA ....|--- .... ....
....|..|--- .... ....|--- .... ....|--- .... ....
....|..|--- .... ....|D-5 2FDF ....|--- .... ....
....|..|--- .... ....|A#5 2FD7 ....|R-- .... ....
....|..|--- .... ....|D-4 2FDA ....|--- .... ....
....|..|--- .... ....|--- .... ....|--- .... ....
....|..|--- .... ....|A#5 2FDF ....|--- .... ....
....|..|--- .... ....|A#5 2FDF ....|--- .... ....
....|..|--- .... ....|D-4 2FDF ....|--- .... ....
....|..|--- .... ....|R-- .... ....|R-- .... ....
....|..|--- .... ....|D#4 2FDF ....|--- .... ....
....|..|--- .... ....|--- .... ....|--- .... ....
....|..|--- .... ....|A#5 2FDA ....|--- .... ....
....|..|--- .... ....|A#5 2FDA ....|--- .... ....
....|..|--- .... ....|G-4 2FDF ....|--- .... ....
....|..|--- .... ....|R-- .... ....|--- .... ....
....|..|--- .... ....|D#4 2FDA ....|--- .... ....
....|..|--- .... ....|--- .... ....|--- .... ....
....|..|--- .... ....|D#5 2FDF ....|--- .... ....
....|..|--- .... ....|A#5 2FD7 ....|--- .... ....
....|..|--- .... ....|D-4 2FD7 ....|--- .... ....
....|..|--- .... ....|R-- .... ....|--- .... ....
....|..|--- .... ....|A#5 2FDF ....|D-4 UFEF ....
....|..|--- .... ....|A#5 2FDF ....|--- .... ....
....|..|--- .... ....|D#5 2FDA ....|--- .... ....
....|..|--- .... ....|--- .... ....|--- .... ....
....|..|--- .... ....|F-4 2FDF ....|D-4 UFEF ....
....|..|--- .... ....|--- .... ....|C-4 UFEF ....
....|..|--- .... ....|A#5 2FDA ....|D-4 UFEA ....
....|..|--- .... ....|A#5 2FDA ....|--- .... ....
....|..|--- .... ....|A-4 2FDF ....|A#3 UFEF ....
....|..|--- .... ....|--- .... ....|--- .... ....
....|..|--- .... ....|F-4 2FDA ....|D-4 UFEA ....
....|..|--- .... ....|--- .... ....|C-4 UFEA ....
....|..|--- .... ....|F-5 2FDF ....|A#3 UFEF ....
....|..|--- .... ....|A#5 2FD7 ....|--- .... ....
....|..|--- .... ....|A-4 2FDA ....|A#3 UFEA ....
....|..|--- .... ....|--- .... ....|--- .... ....
....|..|--- .... ....|C-6 2FDF ....|G-3 UFEF ....
....|..|--- .... ....|A-4 2FDF ....|C-4 UFE7 ....
....|..|--- .... ....|F-5 2FDA ....|A#3 UFEA ....
....|..|--- .... ....|--- .... ....|--- .... ....
....|..|--- .... ....|A#3 2FDF ....|A#3 UFEF ....
....|..|--- .... ....|--- .... ....|--- .... ....
....|..|--- .... ....|C-6 2FDA ....|G-3 UFEA ....
....|..|--- .... ....|A-4 2FDA ....|R-- .... ....

[Pattern7]
....|..|--- .... ....|F-4 2FDF ....|A#3 UFE7 ....
....|..|--- .... ....|--- .... ....|--- .... ....
....|..|--- .... ....|A#3 2FDA ....|A#3 UFEA ....
....|..|--- .... ....|--- .... ....|R-- .... ....
....|..|--- .... ....|D-5 2FDF ....|G-3 UFEF ....
....|..|--- .... ....|A-4 2FD7 ....|--- .... ....
....|..|--- .... ....|F-4 2FDA ....|R-- .... ....
....|..|--- .... ....|--- .... ....|--- .... ....
....|..|--- .... ....|A#5 2FDF ....|A#3 UFE7 ....
....|..|--- .... ....|A#5 2FDF ....|R-- .... ....
....|..|--- .... ....|D-5 2FDA ....|G-3 UFEA ....
....|..|--- .... ....|--- .... ....|--- .... ....
....|..|--- .... ....|G-3 2FDF ....|--- .... ....
....|..|--- .... ....|--- .... ....|--- .... ....
....|..|--- .... ....|A#5 2FDA ....|--- .... ....
....|..|--- .... ....|A#5 2FDA ....|R-- .... ....
....|..|--- .... ....|D-4 2FDF ....|G-3 UFE7 ....
....|..|--- .... ....|--- .... ....|--- .... ....
....|..|--- .... ....|G-3 2FDA ....|--- .... ....
....|..|--- .... ....|--- .... ....|--- .... ....
....|..|--- .... ....|D-5 2FDF ....|G-3 UFEF ....
....|..|--- .... ....|A#5 2FD7 ....|R-- .... ....
....|..|--- .... ....|D-4 2FDA ....|--- .... ....
....|..|--- .... ....|--- .... ....|--- .... ....
....|..|--- .... ....|A#5 2FDF ....|A#3 UFEF ....
....|..|--- .... ....|A#5 2FDF ....|--- .... ....
....|..|--- .... ....|D-4 2FDF ....|G-3 UFEA ....
....|..|--- .... ....|R-- .... ....|--- .... ....
....|..|--- .... ....|D#4 2FDF ....|D-4 UFEF ....
....|..|--- .... ....|--- .... ....|--- .... ....
....|..|--- .... ....|A#5 2FDA ....|A#3 UFEA ....
....|..|--- .... ....|A#5 2FDA ....|--- .... ....
....|..|--- .... ....|G-4 2FDF ....|G-3 UFE7 ....
....|..|--- .... ....|R-- .... ....|--- .... ....
....|..|--- .... ....|D#4 2FDA ....|D-4 UFEA ....
....|..|--- .... ....|--- .... ....|--- .... ....
....|..|--- .... ....|D#5 2FDF ....|A#3 UFE7 ....
....|..|--- .... ....|A#5 2FD7 ....|--- .... ....
....|..|--- .... ....|D-4 2FD7 ....|R-- .... ....
....|..|--- .... ....|R-- .... ....|--- .... ....
....|..|--- .... ....|A#5 2FDF ....|C-4 UFEF ....
....|..|--- .... ....|A#5 2FDF ....|--- .... ....
....|..|--- .... ....|D#5 2FDA ....|--- .... ....
....|..|--- .... ....|--- .... ....|--- .... ....
....|..|--- .... ....|F-4 2FDF ....|A#3 UFEF ....
....|..|--- .... ....|--- .... ....|R-- .... ....
....|..|--- .... ....|A#5 2FDA ....|C-4 UFEA ....
....|..|--- .... ....|A#5 2FDA ....|--- .... ....
....|..|--- .... ....|A-4 2FDF ....|C-4 UFEF ....
....|..|--- .... ....|--- .... ....|R-- .... ....
....|..|--- .... ....|F-4 2FDA ....|A#3 UFEA ....
....|..|--- .... ....|--- .... ....|R-- .... ....
....|..|--- .... ....|F-5 2FDF ....|A#3 UFEF ....
....|..|--- .... ....|A#5 2FD7 ....|--- .... ....
....|..|--- .... ....|A-4 2FDA ....|C-4 UFEA ....
....|..|--- .... ....|--- .... ....|R-- .... ....
....|..|--- .... ....|C-6 2FDF ....|A#3 UFE7 ....
....|..|--- .... ....|A-4 2FDF ....|R-- .... ....
....|..|--- .... ....|F-5 2FDA ....|A#3 UFEA ....
....|..|--- .... ....|--- .... ....|--- .... ....
....|..|--- .... ....|A#3 2FDF ....|A#3 UFEF ....
....|..|--- .... ....|--- .... ....|R-- .... ....
....|..|--- .... ....|C-6 2FDA ....|--- .... ....
....|..|--- .... ....|A-4 2FDA ....|--- .... ....

[Pattern8]
....|..|--- .... ....|F-4 2FDF ....|A#3 UFE7 ....
....|..|--- .... ....|--- .... ....|--- .... ....
....|..|--- .... ....|A#3 2FDA ....|A#3 UFEA ....
....|..|--- .... ....|--- .... ....|--- .... ....
....|..|--- .... ....|D-5 2FDF ....|--- .... ....
....|..|--- .... ....|A-4 2FD7 ....|--- .... ....
....|..|--- .... ....|F-4 2FDA ....|R-- .... ....
....|..|--- .... ....|--- .... ....|--- .... ....
....|..|--- .... ....|A#5 2FDF ....|A#3 UFE7 ....
....|..|--- .... ....|A#5 2FDF ....|R-- .... ....
....|..|--- .... ....|D-5 2FDA ....|--- .... ....
....|..|--- .... ....|--- .... ....|--- .... ....
....|..|--- .... ....|G-3 2FDF ....|--- .... ....
....|..|--- .... ....|--- .... ....|--- .... ....
....|..|--- .... ....|A#5 2FDA ....|--- .... ....
....|..|--- .... ....|A#5 2FDA ....|R-- .... ....
....|..|--- .... ....|D-4 2FDF ....|--- .... ....
....|..|--- .... ....|--- .... ....|--- .... ....
....|..|--- .... ....|G-3 2FDA ....|--- .... ....
....|..|--- .... ....|--- .... ....|--- .... ....
....|..|--- .... ....|D-5 2FDF ....|--- .... ....
....|..|--- .... ....|A#5 2FD7 ....|R-- .... ....
....|..|--- .... ....|D-4 2FDA ....|--- .... ....
....|..|--- .... ....|--- .... ....|--- .... ....
....|..|--- .... ....|A#5 2FDF ....|--- .... ....
....|..|--- .... ....|A#5 2FDF ....|--- .... ....
....|..|--- .... ....|D-4 2FDF ....|--- .... ....
....|..|--- .... ....|R-- .... ....|--- .... ....
....|..|--- .... ....|D#4 2FDF ....|D-4 UFEF ....
....|..|--- .... ....|--- .... ....|--- .... ....
....|..|--- .... ....|A#5 2FDA ....|--- .... ....
....|..|--- .... ....|A#5 2FDA ....|--- .... ....
....|..|--- .... ....|G-4 2FDF ....|--- .... ....
....|..|--- .... ....|R-- .... ....|--- .... ....
....|..|--- .... ....|D#4 2FDA ....|D-4 UFEA ....
....|..|--- .... ....|--- .... ....|R-- .... ....
....|..|--- .... ....|D#5 2FDF ....|C-4 UFEF ....
....|..|--- .... ....|A#5 2FD7 ....|R-- .... ....
....|..|--- .... ....|D-4 2FD7 ....|--- .... ....
....|..|--- .... ....|R-- .... ....|--- .... ....
....|..|--- .... ....|A#5 2FDF ....|C-4 UFEF ....
....|..|--- .... ....|A#5 2FDF ....|R-- .... ....
....|..|--- .... ....|D#5 2FDA ....|C-4 UFEA ....
....|..|--- .... ....|--- .... ....|R-- .... ....
....|..|--- .... ....|F-4 2FDF ....|C-4 UFEF ....
....|..|--- .... ....|--- .... ....|R-- .... ....
....|..|--- .... ....|A#5 2FDA ....|C-4 UFEA ....
....|..|--- .... ....|A#5 2FDA ....|R-- .... ....
....|..|--- .... ....|A-4 2FDF ....|D-4 UFEF ....
....|..|--- .... ....|--- .... ....|R-- .... ....
....|..|--- .... ....|F-4 2FDA ....|C-4 UFEA ....
....|..|--- .... ....|--- .... ....|R-- .... ....
....|..|--- .... ....|F-5 2FDF ....|C-4 UFEF ....
....|..|--- .... ....|A#5 2FD7 ....|--- .... ....
....|..|--- .... ....|A-4 2FDA ....|D-4 UFEA ....
....|..|--- .... ....|--- .... ....|--- .... ....
....|..|--- .... ....|C-6 2FDF ....|C-4 UFE7 ....
....|..|--- .... ....|A-4 2FDF ....|R-- .... ....
....|..|--- .... ....|F-5 2FDA ....|C-4 UFEA ....
....|..|--- .... ....|--- .... ....|--- .... ....
....|..|--- .... ....|A#3 2FDF ....|A#3 UFEF ....
....|..|--- .... ....|--- .... ....|--- .... ....
....|..|--- .... ....|C-6 2FDA ....|R-- .... ....
....|..|--- .... ....|A-4 2FDA ....|--- .... ....

[Pattern9]
....|..|--- .... ....|F-4 2FDF ....|C-4 UFE7 ....
....|..|--- .... ....|--- .... ....|--- .... ....
....|..|--- .... ....|A#3 2FDA ....|A#3 UFEA ....
....|..|--- .... ....|--- .... ....|R-- .... ....
....|..|--- .... ....|D-5 2FDF ....|G-3 UFEF ....
....|..|--- .... ....|A-4 2FD7 ....|--- .... ....
....|..|--- .... ....|F-4 2FDA ....|R-- .... ....
....|..|--- .... ....|--- .... ....|--- .... ....
....|..|--- .... ....|A#5 2FDF ....|A#3 UFE7 ....
....|..|--- .... ....|A#5 2FDF ....|R-- .... ....
....|..|--- .... ....|D-5 2FDA ....|G-3 UFEA ....
....|..|--- .... ....|--- .... ....|--- .... ....
....|..|--- .... ....|G-3 2FDF ....|--- .... ....
....|..|--- .... ....|--- .... ....|--- .... ....
....|..|--- .... ....|A#5 2FDA ....|--- .... ....
....|..|--- .... ....|A#5 2FDA ....|R-- .... ....
....|..|--- .... ....|D-4 2FDF ....|G-3 UFE7 ....
....|..|--- .... ....|--- .... ....|--- .... ....
....|..|--- .... ....|G-3 2FDA ....|--- .... ....
....|..|--- .... ....|--- .... ....|--- .... ....
....|..|--- .... ....|D-5 2FDF ....|G-3 UFEF ....
....|..|--- .... ....|A#5 2FD7 ....|--- .... ....
....|..|--- .... ....|D-4 2FDA ....|R-- .... ....
....|..|--- .... ....|--- .... ....|--- .... ....
....|..|--- .... ....|A#5 2FDF ....|A#3 UFEF ....
....|..|--- .... ....|A#5 2FDF ....|--- .... ....
....|..|--- .... ....|D-4 2FDF ....|G-3 UFEA ....
....|..|--- .... ....|R-- .... ....|--- .... ....
....|..|--- .... ....|D#4 2FDF ....|D-4 UFEF ....
....|..|--- .... ....|--- .... ....|--- .... ....
....|..|--- .... ....|A#5 2FDA ....|A#3 UFEA ....
....|..|--- .... ....|A#5 2FDA ....|--- .... ....
....|..|--- .... ....|G-4 2FDF ....|G-3 UFE7 ....
....|..|--- .... ....|R-- .... ....|--- .... ....
....|..|--- .... ....|D#4 2FDA ....|D-4 UFEA ....
....|..|--- .... ....|--- .... ....|--- .... ....
....|..|--- .... ....|D#5 2FDF ....|C-4 UFEF ....
....|..|--- .... ....|A#5 2FD7 ....|--- .... ....
....|..|--- .... ....|D-4 2FD7 ....|R-- .... ....
....|..|--- .... ....|R-- .... ....|--- .... ....
....|..|--- .... ....|A#5 2FDF ....|A#3 UFEF ....
....|..|--- .... ....|A#5 2FDF ....|R-- .... ....
....|..|--- .... ....|D#5 2FDA ....|C-4 UFEA ....
....|..|--- .... ....|--- .... ....|--- .... ....
....|..|--- .... ....|F-4 2FDF ....|C-4 UFEF ....
....|..|--- .... ....|--- .... ....|--- .... ....
....|..|--- .... ....|A#5 2FDA ....|A#3 UFEA ....
....|..|--- .... ....|A#5 2FDA ....|R-- .... ....
....|..|--- .... ....|A-4 2FDF ....|C-4 UFE7 ....
....|..|--- .... ....|--- .... ....|--- .... ....
....|..|--- .... ....|F-4 2FDA ....|C-4 UFEA ....
....|..|--- .... ....|--- .... ....|--- .... ....
....|..|--- .... ....|F-5 2FDF ....|A#3 UFEF ....
....|..|--- .... ....|A#5 2FD7 ....|R-- .... ....
....|..|--- .... ....|A-4 2FDA ....|--- .... ....
....|..|--- .... ....|--- .... ....|--- .... ....
....|..|--- .... ....|C-6 2FDF ....|C-4 UFE7 ....
....|..|--- .... ....|A-4 2FDF ....|--- .... ....
....|..|--- .... ....|F-5 2FDA ....|A#3 UFEA ....
....|..|--- .... ....|--- .... ....|--- .... ....
....|..|--- .... ....|A#3 2FDF ....|A#3 UFEF ....
....|..|--- .... ....|--- .... ....|--- .... ....
....|..|--- .... ....|C-6 2FDA ....|R-- .... ....
....|..|--- .... ....|A-4 2FDA ....|--- .... ....

[Pattern10]
....|..|--- .... ....|F-4 2FDF ....|A#3 UFE7 ....
....|..|--- .... ....|--- .... ....|--- .... ....
....|..|--- .... ....|A#3 2FDA ....|A#3 UFEA ....
....|..|--- .... ....|--- .... ....|--- .... ....
....|..|--- .... ....|D-5 2FDF ....|--- .... ....
....|..|--- .... ....|A-4 2FD7 ....|--- .... ....
....|..|--- .... ....|F-4 2FDA ....|R-- .... ....
....|..|--- .... ....|--- .... ....|R-- .... ....
....|..|--- .... ....|A#5 2FDF ....|A#3 UFE7 ....
....|..|--- .... ....|A#5 2FDF ....|--- .... ....
....|..|--- .... ....|D-5 2FDA ....|--- .... ....
....|..|--- .... ....|--- .... ....|--- .... ....
....|..|--- .... ....|G-3 2FDF ....|A#3 UFEF ....
....|..|--- .... ....|--- .... ....|R-- .... ....
....|..|--- .... ....|A#5 2FDA ....|R-- .... ....
....|..|--- .... ....|A#5 2FDA ....|--- .... ....
....|..|--- .... ....|D-4 2FDF ....|D-4 UFEF ....
....|..|--- .... ....|--- .... ....|--- .... ....
....|..|--- .... ....|G-3 2FDA ....|A#3 UFEA ....
....|..|--- .... ....|--- .... ....|R-- .... ....
....|..|--- .... ....|D-5 2FDF ....|D#4 UFEF ....
....|..|--- .... ....|A#5 2FD7 ....|R-- .... ....
....|..|--- .... ....|D-4 2FDA ....|D-4 UFEA ....
....|..|--- .... ....|--- .... ....|--- .... ....
....|..|--- .... ....|A#5 2FDF ....|D-4 UFEF ....
....|..|--- .... ....|A#5 2FDF ....|R-- .... ....
....|..|--- .... ....|D-4 2FDF ....|D#4 UFEA ....
....|..|--- .... ....|R-- .... ....|R-- .... ....
....|..|--- .... ....|D#4 2FDF ....|C-4 UFEF ....
....|..|--- .... ....|--- .... ....|--- .... ....
....|..|--- .... ....|A#5 2FDA ....|D-4 UFEA ....
....|..|--- .... ....|A#5 2FDA ....|R-- .... ....
....|..|--- .... ....|G-4 2FDF ....|D#4 UFE7 ....
....|..|--- .... ....|R-- .... ....|R-- .... ....
....|..|--- .... ....|D#4 2FDA ....|C-4 UFEA ....
....|..|--- .... ....|--- .... ....|R-- .... ....
....|..|--- .... ....|D#5 2FDF ....|A#3 UFEF ....
....|..|--- .... ....|A#5 2FD7 ....|R-- .... ....
....|..|--- .... ....|D-4 2FD7 ....|--- .... ....
....|..|--- .... ....|R-- .... ....|--- .... ....
....|..|--- .... ....|A#5 2FDF ....|C-4 UFE7 ....
....|..|--- .... ....|A#5 2FDF ....|R-- .... ....
....|..|--- .... ....|D#5 2FDA ....|A#3 UFEA ....
....|..|--- .... ....|--- .... ....|--- .... ....
....|..|--- .... ....|F-4 2FDF ....|--- .... ....
....|..|--- .... ....|--- .... ....|--- .... ....
....|..|--- .... ....|A#5 2FDA ....|--- .... ....
....|..|--- .... ....|A#5 2FDA ....|R-- .... ....
....|..|--- .... ....|A-4 2FDF ....|A#3 UFE7 ....
....|..|--- .... ....|--- .... ....|--- .... ....
....|..|--- .... ....|F-4 2FDA ....|--- .... ....
....|..|--- .... ....|--- .... ....|--- .... ....
....|..|--- .... ....|F-5 2FDF ....|--- .... ....
....|..|--- .... ....|A#5 2FD7 ....|--- .... ....
....|..|--- .... ....|A-4 2FDA ....|R-- .... ....
....|..|--- .... ....|--- .... ....|--- .... ....
....|..|--- .... ....|C-6 2FDF ....|--- .... ....
....|..|--- .... ....|A-4 2FDF ....|--- .... ....
....|..|--- .... ....|F-5 2FDA ....|--- .... ....
....|..|--- .... ....|--- .... ....|--- .... ....
....|..|--- .... ....|A#3 2FDF ....|R-- .... ....
....|..|--- .... ....|--- .... ....|--- .... ....
....|..|--- .... ....|C-6 2FDA ....|--- .... ....
....|..|--- .... ....|A-4 2FDA ....|--- .... ....

[Pattern11]
....|..|--- .... ....|F-4 2FDF ....|--- .... ....
....|..|--- .... ....|--- .... ....|--- .... ....
....|..|--- .... ....|A#3 2FDA ....|--- .... ....
....|..|--- .... ....|--- .... ....|--- .... ....
....|..|--- .... ....|D-5 2FDF ....|--- .... ....
....|..|--- .... ....|A-4 2FD7 ....|--- .... ....
....|..|--- .... ....|F-4 2FDA ....|--- .... ....
....|..|--- .... ....|--- .... ....|--- .... ....
....|..|--- .... ....|A#5 2FDF ....|--- .... ....
....|..|--- .... ....|A#5 2FDF ....|--- .... ....
....|..|--- .... ....|D-5 2FDA ....|--- .... ....
....|..|--- .... ....|--- .... ....|--- .... ....
....|..|--- .... ....|G-3 2FDF ....|A#3 UFEF ....
....|..|--- .... ....|--- .... ....|--- .... ....
....|..|--- .... ....|A#5 2FDA ....|R-- .... ....
....|..|--- .... ....|A#5 2FDA ....|--- .... ....
....|..|--- .... ....|D-4 2FDF ....|D-4 UFEF ....
....|..|--- .... ....|--- .... ....|--- .... ....
....|..|--- .... ....|G-3 2FDA ....|A#3 UFEA ....
....|..|--- .... ....|--- .... ....|--- .... ....
....|..|--- .... ....|D-5 2FDF ....|D#4 UFEF ....
....|..|--- .... ....|A#5 2FD7 ....|--- .... ....
....|..|--- .... ....|D-4 2FDA ....|D-4 UFEA ....
....|..|--- .... ....|--- .... ....|R-- .... ....
....|..|--- .... ....|A#5 2FDF ....|D-4 UFEF ....
....|..|--- .... ....|A#5 2FDF ....|--- .... ....
....|..|--- .... ....|D-4 2FDF ....|D#4 UFEA ....
....|..|--- .... ....|R-- .... ....|--- .... ....
....|..|--- .... ....|D#4 2FDF ....|C-4 UFEF ....
....|..|--- .... ....|--- .... ....|R-- .... ....
....|..|--- .... ....|A#5 2FDA ....|D-4 UFEA ....
....|..|--- .... ....|A#5 2FDA ....|--- .... ....
....|..|--- .... ....|G-4 2FDF ....|C-4 UFEF ....
....|..|--- .... ....|R-- .... ....|--- .... ....
....|..|--- .... ....|D#4 2FDA ....|C-4 UFEA ....
....|..|--- .... ....|--- .... ....|R-- .... ....
....|..|--- .... ....|D#5 2FDF ....|A#3 UFEF ....
....|..|--- .... ....|A#5 2FD7 ....|--- .... ....
....|..|--- .... ....|D-4 2FD7 ....|C-4 UFEA ....
....|..|--- .... ....|R-- .... ....|--- .... ....
....|..|--- .... ....|A#5 2FDF ....|C-4 UFE7 ....
....|..|--- .... ....|A#5 2FDF ....|R-- .... ....
....|..|--- .... ....|D#5 2FDA ....|A#3 UFEA ....
....|..|--- .... ....|--- .... ....|--- .... ....
....|..|--- .... ....|F-4 2FDF ....|A#3 UFEF ....
....|..|--- .... ....|--- .... ....|--- .... ....
....|..|--- .... ....|A#5 2FDA ....|R-- .... ....
....|..|--- .... ....|A#5 2FDA ....|--- .... ....
....|..|--- .... ....|A-4 2FDF ....|A#3 UFE7 ....
....|..|--- .... ....|--- .... ....|--- .... ....
....|..|--- .... ....|F-4 2FDA ....|A#3 UFEA ....
....|..|--- .... ....|--- .... ....|R-- .... ....
....|..|--- .... ....|F-5 2FDF ....|G-3 UFEF ....
....|..|--- .... ....|A#5 2FD7 ....|--- .... ....
....|..|--- .... ....|A-4 2FDA ....|R-- .... ....
....|..|--- .... ....|--- .... ....|--- .... ....
....|..|--- .... ....|C-6 2FDF ....|F-3 UFEF ....
....|..|--- .... ....|A-4 2FDF ....|R-- .... ....
....|..|--- .... ....|F-5 2FDA ....|G-3 UFEA ....
....|..|--- .... ....|--- .... ....|--- .... ....
....|..|--- .... ....|A#3 2FDF ....|A#3 UFEF ....
....|..|--- .... ....|--- .... ....|--- .... ....
....|..|--- .... ....|C-6 2FDA ....|F-3 UFEA ....
....|..|--- .... ....|A-4 2FDA ....|R-- .... ....

[Pattern12]
....|..|--- .... ....|F-4 2FDF ....|G-3 UFE7 ....
....|..|--- .... ....|--- .... ....|--- .... ....
....|..|--- .... ....|A#3 2FDA ....|A#3 UFEA ....
....|..|--- .... ....|--- .... ....|--- .... ....
....|..|--- .... ....|D-5 2FDF ....|F-3 UFE7 ....
....|..|--- .... ....|A-4 2FD7 ....|R-- .... ....
....|..|--- .... ....|F-4 2FDA ....|R-- .... ....
....|..|--- .... ....|--- .... ....|--- .... ....
....|..|--- .... ....|A#5 2FDF ....|A#3 UFE7 ....
....|..|--- .... ....|A#5 2FDF ....|--- .... ....
....|..|--- .... ....|D-5 2FDA ....|--- .... ....
....|..|--- .... ....|--- .... ....|R-- .... ....
....|..|--- .... ....|G-3 2FDF ....|A#3 UFEF ....
....|..|--- .... ....|--- .... ....|--- .... ....
....|..|--- .... ....|A#5 2FDA ....|R-- .... ....
....|..|--- .... ....|A#5 2FDA ....|--- .... ....
....|..|--- .... ....|D-4 2FDF ....|D-4 UFEF ....
....|..|--- .... ....|--- .... ....|R-- .... ....
....|..|--- .... ....|G-3 2FDA ....|A#3 UFEA ....
....|..|--- .... ....|--- .... ....|--- .... ....
....|..|--- .... ....|D-5 2FDF ....|D#4 UFEF ....
....|..|--- .... ....|A#5 2FD7 ....|D#4 UFEF ....
....|..|--- .... ....|D-4 2FDA ....|D-4 UFEA ....
....|..|--- .... ....|--- .... ....|--- .... ....
....|..|--- .... ....|A#5 2FDF ....|D-4 UFEF ....
....|..|--- .... ....|A#5 2FDF ....|--- .... ....
....|..|--- .... ....|D-4 2FDF ....|D#4 UFEA ....
....|..|--- .... ....|R-- .... ....|D#4 UFEA ....
....|..|--- .... ....|D#4 2FDF ....|C-4 UFEF ....
....|..|--- .... ....|--- .... ....|--- .... ....
....|..|--- .... ....|A#5 2FDA ....|D-4 UFEA ....
....|..|--- .... ....|A#5 2FDA ....|--- .... ....
....|..|--- .... ....|G-4 2FDF ....|D#4 UFE7 ....
....|..|--- .... ....|R-- .... ....|D#4 UFE7 ....
....|..|--- .... ....|D#4 2FDA ....|C-4 UFEA ....
....|..|--- .... ....|--- .... ....|R-- .... ....
....|..|--- .... ....|D#5 2FDF ....|A#3 UFEF ....
....|..|--- .... ....|A#5 2FD7 ....|--- .... ....
....|..|--- .... ....|D-4 2FD7 ....|R-- .... ....
....|..|--- .... ....|R-- .... ....|--- .... ....
....|..|--- .... ....|A#5 2FDF ....|C-4 UFE7 ....
....|..|--- .... ....|A#5 2FDF ....|R-- .... ....
....|..|--- .... ....|D#5 2FDA ....|A#3 UFEA ....
....|..|--- .... ....|--- .... ....|--- .... ....
....|..|--- .... ....|F-4 2FDF ....|C-4 UFEF ....
....|..|--- .... ....|--- .... ....|--- .... ....
....|..|--- .... ....|A#5 2FDA ....|--- .... ....
....|..|--- .... ....|A#5 2FDA ....|R-- .... ....
....|..|--- .... ....|A-4 2FDF ....|A#3 UFE7 ....
....|..|--- .... ....|--- .... ....|--- .... ....
....|..|--- .... ....|F-4 2FDA ....|C-4 UFEA ....
....|..|--- .... ....|--- .... ....|--- .... ....
....|..|--- .... ....|F-5 2FDF ....|R-- .... ....
....|..|--- .... ....|A#5 2FD7 ....|--- .... ....
....|..|--- .... ....|A-4 2FDA ....|--- .... ....
....|..|--- .... ....|--- .... ....|--- .... ....
....|..|--- .... ....|C-6 2FDF ....|C-4 UFE7 ....
....|..|--- .... ....|A-4 2FDF ....|--- .... ....
....|..|--- .... ....|F-5 2FDA ....|R-- .... ....
....|..|--- .... ....|--- .... ....|--- .... ....
....|..|--- .... ....|A#3 2FDF ....|--- .... ....
....|..|--- .... ....|--- .... ....|--- .... ....
....|..|--- .... ....|C-6 2FDA ....|--- .... ....
....|..|--- .... ....|A-4 2FDA ....|--- .... ....

[Pattern13]
....|..|--- .... ....|F-4 2FDF ....|R-- .... ....
....|..|--- .... ....|--- .... ....|--- .... ....
....|..|--- .... ....|A#3 2FDA ....|--- .... ....
....|..|--- .... ....|--- .... ....|--- .... ....
....|..|--- .... ....|D-5 2FDF ....|--- .... ....
....|..|--- .... ....|A-4 2FD7 ....|--- .... ....
....|..|--- .... ....|F-4 2FDA ....|--- .... ....
....|..|--- .... ....|--- .... ....|--- .... ....
....|..|--- .... ....|A#5 2FDF ....|--- .... ....
....|..|--- .... ....|A#5 2FDF ....|--- .... ....
....|..|--- .... ....|D-5 2FDA ....|--- .... ....
....|..|--- .... ....|--- .... ....|--- .... ....
....|..|--- .... ....|G-3 2FDF ....|D-4 UFEF ....
....|..|--- .... ....|--- .... ....|--- .... ....
....|..|--- .... ....|A#5 2FDA ....|--- .... ....
....|..|--- .... ....|A#5 2FDA ....|--- .... ....
....|..|--- .... ....|D-4 2FDF ....|--- .... ....
....|..|--- .... ....|--- .... ....|--- .... ....
....|..|--- .... ....|G-3 2FDA ....|D-4 UFEA ....
....|..|--- .... ....|--- .... ....|R-- .... ....
....|..|--- .... ....|D-5 2FDF ....|C-4 UFEF ....
....|..|--- .... ....|A#5 2FD7 ....|--- .... ....
....|..|--- .... ....|D-4 2FDA ....|R-- .... ....
....|..|--- .... ....|--- .... ....|--- .... ....
....|..|--- .... ....|A#5 2FDF ....|C-4 UFEF ....
....|..|--- .... ....|A#5 2FDF ....|R-- .... ....
....|..|--- .... ....|D-4 2FDF ....|C-4 UFEA ....
....|..|--- .... ....|R-- .... ....|--- .... ....
....|..|--- .... ....|D#4 2FDF ....|A#3 UFEF ....
....|..|--- .... ....|--- .... ....|R-- .... ....
....|..|--- .... ....|A#5 2FDA ....|C-4 UFEA ....
....|..|--- .... ....|A#5 2FDA ....|R-- .... ....
....|..|--- .... ....|G-4 2FDF ....|D-4 UFEF ....
....|..|--- .... ....|R-- .... ....|--- .... ....
....|..|--- .... ....|D#4 2FDA ....|A#3 UFEA ....
....|..|--- .... ....|--- .... ....|R-- .... ....
....|..|--- .... ....|D#5 2FDF ....|D-4 UFEF ....
....|..|--- .... ....|A#5 2FD7 ....|C-4 UFEF ....
....|..|--- .... ....|D-4 2FD7 ....|D-4 UFEA ....
....|..|--- .... ....|R-- .... ....|--- .... ....
....|..|--- .... ....|A#5 2FDF ....|A#3 UFEF ....
....|..|--- .... ....|A#5 2FDF ....|R-- .... ....
....|..|--- .... ....|D#5 2FDA ....|D-4 UFEA ....
....|..|--- .... ....|--- .... ....|C-4 UFEA ....
....|..|--- .... ....|F-4 2FDF ....|C-4 UFEF ....
....|..|--- .... ....|--- .... ....|--- .... ....
....|..|--- .... ....|A#5 2FDA ....|A#3 UFEA ....
....|..|--- .... ....|A#5 2FDA ....|R-- .... ....
....|..|--- .... ....|A-4 2FDF ....|D-4 UFE7 ....
....|..|--- .... ....|--- .... ....|C-4 UFE7 ....
....|..|--- .... ....|F-4 2FDA ....|C-4 UFEA ....
....|..|--- .... ....|--- .... ....|--- .... ....
....|..|--- .... ....|F-5 2FDF ....|A#3 UFEF ....
....|..|--- .... ....|A#5 2FD7 ....|R-- .... ....
....|..|--- .... ....|A-4 2FDA ....|--- .... ....
....|..|--- .... ....|--- .... ....|--- .... ....
....|..|--- .... ....|C-6 2FDF ....|C-4 UFE7 ....
....|..|--- .... ....|A-4 2FDF ....|--- .... ....
....|..|--- .... ....|F-5 2FDA ....|A#3 UFEA ....
....|..|--- .... ....|--- .... ....|--- .... ....
....|..|--- .... ....|A#3 2FDF ....|A#3 UFEF ....
....|..|--- .... ....|--- .... ....|--- .... ....
....|..|--- .... ....|C-6 2FDA ....|R-- .... ....
....|..|--- .... ....|A-4 2FDA ....|--- .... ....

[Pattern14]
....|..|--- .... ....|F-4 2FDF ....|A#3 UFE7 ....
....|..|--- .... ....|--- .... ....|--- .... ....
....|..|--- .... ....|A#3 2FDA ....|A#3 UFEA ....
....|..|--- .... ....|--- .... ....|--- .... ....
....|..|--- .... ....|D-5 2FDF ....|--- .... ....
....|..|--- .... ....|A-4 2FD7 ....|--- .... ....
....|..|--- .... ....|F-4 2FDA ....|R-- .... ....
....|..|--- .... ....|--- .... ....|--- .... ....
....|..|--- .... ....|A#5 2FDF ....|A#3 UFE7 ....
....|..|--- .... ....|A#5 2FDF ....|--- .... ....
....|..|--- .... ....|D-5 2FDA ....|--- .... ....
....|..|--- .... ....|--- .... ....|--- .... ....
....|..|--- .... ....|G-3 2FDF ....|--- .... ....
....|..|--- .... ....|--- .... ....|--- .... ....
....|..|--- .... ....|A#5 2FDA ....|R-- .... ....
....|..|--- .... ....|A#5 2FDA ....|--- .... ....
....|..|--- .... ....|D-4 2FDF ....|--- .... ....
....|..|--- .... ....|--- .... ....|--- .... ....
....|..|--- .... ....|G-3 2FDA ....|--- .... ....
....|..|--- .... ....|--- .... ....|--- .... ....
....|..|--- .... ....|D-5 2FDF ....|R-- .... ....
....|..|--- .... ....|A#5 2FD7 ....|--- .... ....
....|..|--- .... ....|D-4 2FDA ....|--- .... ....
....|..|--- .... ....|--- .... ....|--- .... ....
....|..|--- .... ....|A#5 2FDF ....|--- .... ....
....|..|--- .... ....|A#5 2FDF ....|--- .... ....
....|..|--- .... ....|D-4 2FDF ....|R-- .... ....
....|..|--- .... ....|R-- .... ....|--- .... ....
....|..|--- .... ....|D#4 2FDF ....|A#4 UFEF ....
....|..|--- .... ....|--- .... ....|--- .... ....
....|..|--- .... ....|A#5 2FDA ....|--- .... ....
....|..|--- .... ....|A#5 2FDA ....|R-- .... ....
 A#3|..|A#1 2A.F ....|D-5 2FD7 ....|A#3 UFFF ....
....|..|--- .... ....|R-- .... ....|--- .... ....
....|..|--- .... ....|D#4 2FDA ....|A#4 UFEA ....
....|..|--- .... ....|--- .... ....|--- .... ....
 A#3|..|A#2 2C.F ....|A#5 2FD7 ....|--- .... ....
....|..|--- .... ....|A#5 2FD7 ....|R-- .... ....
....|..|A#1 2F.A ....|D-4 2FD7 ....|A#3 UFFA ....
....|..|--- .... ....|R-- .... ....|R-- .... ....
 A#3|..|A#1 2A.F ....|D#4 2FD7 ....|A#3 UFFF ....
....|..|--- .... ....|--- .... ....|--- .... ....
....|..|A#2 2F.A ....|--- .... ....|--- .... ....
....|..|--- .... ....|--- .... ....|R-- .... ....
 A#3|..|A#2 2C.F ....|--- .... ....|A#3 UFF7 ....
....|..|--- .... ....|--- .... ....|R-- .... ....
....|..|A#1 2F.A ....|R-- .... ....|A#3 UFFF ....
....|..|--- .... ....|--- .... ....|R-- .... ....
 A#3|..|A#1 2A.F ....|--- .... ....|D-4 UFFF ....
....|..|--- .... ....|--- .... ....|--- .... ....
....|..|A#2 2F.A ....|--- .... ....|--- .... ....
....|..|--- .... ....|--- .... ....|R-- .... ....
 A#3|..|A#2 2C.F ....|R-- .... ....|A#3 UFFF ....
....|..|--- .... ....|--- .... ....|R-- .... ....
....|..|A#1 2F.A ....|--- .... ....|D-4 UFFA ....
....|..|--- .... ....|--- .... ....|R-- .... ....
 A#3|..|A#1 2A.F ....|--- .... ....|D-4 UFFF ....
....|..|--- .... ....|--- .... ....|R-- .... ....
....|..|A#2 2F.A ....|--- .... ....|A#3 UFF7 ....
....|..|--- .... ....|--- .... ....|R-- .... ....
 A#3|..|A#2 2C.F ....|--- .... ....|F-4 UFFF ....
....|..|--- .... ....|--- .... ....|R-- .... ....
....|..|A#1 2F.A ....|--- .... ....|D-4 UFFA ....
....|..|--- .... ....|--- .... ....|--- .... ....

[Pattern15]
 A#3|..|A#1 2A.F ....|--- .... ....|A#4 UFFF ....
....|..|--- .... ....|--- .... ....|R-- .... ....
....|..|A#2 2F.A ....|--- .... ....|F-4 UFFA ....
....|..|--- .... ....|--- .... ....|R-- .... ....
 A#3|..|A#2 2C.F ....|--- .... ....|D-4 UFF7 ....
....|..|--- .... ....|--- .... ....|--- .... ....
....|..|A#1 2F.A ....|--- .... ....|A#4 UFFA ....
....|..|--- .... ....|--- .... ....|R-- .... ....
 A#3|..|A#1 2A.F ....|--- .... ....|A#4 UFFF ....
....|..|--- .... ....|--- .... ....|--- .... ....
....|..|A#2 2F.A ....|--- .... ....|R-- .... ....
....|..|--- .... ....|--- .... ....|--- .... ....
 A#3|..|A#2 2C.F ....|--- .... ....|A#4 UFF7 ....
....|..|--- .... ....|--- .... ....|R-- .... ....
....|..|A#1 2F.A ....|--- .... ....|A#4 UFFF ....
....|..|--- .... ....|--- .... ....|R-- .... ....
 A#3|..|A#1 2A.F ....|--- .... ....|A#4 UFFF ....
....|..|--- .... ....|--- .... ....|--- .... ....
....|..|A#2 2F.A ....|--- .... ....|R-- .... ....
....|..|--- .... ....|--- .... ....|R-- .... ....
 A#3|..|A#2 2C.F ....|--- .... ....|F-4 UFFF ....
....|..|--- .... ....|--- .... ....|R-- .... ....
....|..|A#1 2F.A ....|--- .... ....|A#4 UFFA ....
....|..|--- .... ....|--- .... ....|--- .... ....
 A#3|..|A#1 2A.F ....|--- .... ....|D-4 UFFF ....
....|..|--- .... ....|--- .... ....|R-- .... ....
....|..|A#2 2F.A ....|--- .... ....|A#4 UFF7 ....
....|..|--- .... ....|--- .... ....|R-- .... ....
 A#3|..|A#2 2C.F ....|--- .... ....|A#3 UFFF ....
....|..|--- .... ....|--- .... ....|--- .... ....
....|..|A#1 2F.A ....|--- .... ....|D-4 UFFA ....
....|..|--- .... ....|--- .... ....|R-- .... ....
 A#3|..|A#1 2A.F ....|--- .... ....|D#4 UFFF ....
....|..|--- .... ....|--- .... ....|--- .... ....
....|..|A#2 2F.A ....|--- .... ....|A#3 UFFA ....
....|..|--- .... ....|--- .... ....|--- .... ....
 A#3|..|A#2 2C.F ....|--- .... ....|D-4 UFF7 ....
....|..|--- .... ....|--- .... ....|R-- .... ....
....|..|A#1 2F.A ....|--- .... ....|D#4 UFFA ....
....|..|--- .... ....|--- .... ....|--- .... ....
 A#3|..|A#1 2A.F ....|--- .... ....|G-4 UFFF ....
....|..|--- .... ....|--- .... ....|--- .... ....
....|..|A#2 2F.A ....|--- .... ....|R-- .... ....
....|..|--- .... ....|--- .... ....|--- .... ....
 A#3|..|A#2 2C.F ....|--- .... ....|D#4 UFF7 ....
....|..|--- .... ....|--- .... ....|--- .... ....
....|..|A#1 2F.A ....|--- .... ....|A#3 UFFF ....
....|..|--- .... ....|--- .... ....|R-- .... ....
 A#3|..|A#1 2A.F ....|--- .... ....|D-4 UFFF ....
....|..|--- .... ....|--- .... ....|--- .... ....
....|..|A#2 2F.A ....|--- .... ....|R-- .... ....
....|..|R-- .... ....|--- .... ....|--- .... ....
 A#3|..|A#2 2C.F ....|--- .... ....|F-4 UFFF ....
....|..|--- .... ....|--- .... ....|R-- .... ....
....|..|A#1 2F.A ....|--- .... ....|D-4 UFFA ....
....|..|--- .... ....|--- .... ....|--- .... ....
 A#3|..|A#1 2A.F ....|--- .... ....|D-4 UFFF ....
....|..|R-- .... ....|--- .... ....|R-- .... ....
....|..|A#2 2F.A ....|--- .... ....|A#3 UFF7 ....
....|..|--- .... ....|--- .... ....|R-- .... ....
 A#3|..|A#2 2C.F ....|--- .... ....|A#3 UFFF ....
....|..|--- .... ....|--- .... ....|--- .... ....
....|..|A#1 2F.A ....|--- .... ....|D-4 UFFA ....
....|..|R-- .... ....|--- .... ....|R-- .... ....

[Pattern16]
 A#3|..|A#1 2A.F ....|--- .... ....|C-4 UFFF ....
....|..|--- .... ....|--- .... ....|--- .... ....
....|..|A#2 2F.A ....|--- .... ....|A#3 UFFA ....
....|..|--- .... ....|--- .... ....|--- .... ....
 A#3|..|A#2 2C.F ....|--- .... ....|D-4 UFF7 ....
....|..|--- .... ....|--- .... ....|R-- .... ....
....|..|A#1 2F.A ....|--- .... ....|C-4 UFFA ....
....|..|--- .... ....|--- .... ....|--- .... ....
 A#3|..|A#1 2A.F ....|--- .... ....|C-4 UFFF ....
....|..|--- .... ....|--- .... ....|--- .... ....
....|..|A#2 2F.A ....|--- .... ....|R-- .... ....
....|..|--- .... ....|--- .... ....|--- .... ....
 A#3|..|A#2 2C.F ....|--- .... ....|C-4 UFF7 ....
....|..|--- .... ....|--- .... ....|R-- .... ....
....|..|A#1 2F.A ....|--- .... ....|C-4 UFFF ....
....|..|--- .... ....|--- .... ....|R-- .... ....
 A#3|..|A#1 2A.F ....|--- .... ....|F-4 UFFF ....
....|..|--- .... ....|--- .... ....|--- .... ....
....|..|A#2 2F.A ....|--- .... ....|R-- .... ....
....|..|--- .... ....|--- .... ....|R-- .... ....
 A#3|..|A#2 2C.F ....|--- .... ....|F-4 UFFF ....
....|..|--- .... ....|--- .... ....|R-- .... ....
....|..|A#1 2F.A ....|--- .... ....|F-4 UFFA ....
....|..|--- .... ....|--- .... ....|--- .... ....
 A#3|..|A#1 2A.F ....|--- .... ....|D-4 UFFF ....
....|..|--- .... ....|--- .... ....|R-- .... ....
....|..|A#2 2F.A ....|--- .... ....|C-4 UFF7 ....
....|..|--- .... ....|--- .... ....|R-- .... ....
 A#3|..|A#2 2C.F ....|--- .... ....|C-4 UFFF ....
....|..|--- .... ....|--- .... ....|--- .... ....
....|..|A#1 2F.A ....|--- .... ....|D-4 UFFA ....
....|..|--- .... ....|--- .... ....|R-- .... ....
 A#3|..|A#1 2A.F ....|A#3 3F1F ....|A#3 UFFF ....
....|..|--- .... ....|--- .... ....|R-- .... ....
....|..|A#2 2F.A ....|--- .... ....|C-4 UFFA ....
....|..|--- .... ....|--- .... ....|--- .... ....
 A#3|..|A#2 2C.F ....|--- .... ....|D-4 UFF7 ....
....|..|--- .... ....|--- .... ....|R-- .... ....
....|..|A#1 2F.A ....|A#3 3F1A ....|A#3 UFFA ....
....|..|--- .... ....|--- .... ....|R-- .... ....
 A#3|..|A#1 2A.F ....|A#3 3F1F ....|A#3 UFFF ....
....|..|--- .... ....|--- .... ....|--- .... ....
....|..|A#2 2F.A ....|--- .... ....|R-- .... ....
....|..|--- .... ....|--- .... ....|--- .... ....
 A#3|..|A#2 2C.F ....|D-4 3F2F ....|A#3 UFF7 ....
....|..|--- .... ....|R-- .... ....|R-- .... ....
....|..|A#1 2F.A ....|A#3 3F1F ....|A#3 UFFF ....
....|..|--- .... ....|R-- .... ....|R-- .... ....
 A#3|..|A#1 2A.F ....|A#3 3F1F ....|D-4 UFFF ....
....|..|--- .... ....|D-4 3F2F ....|--- .... ....
....|..|A#2 2F.A ....|D-4 3F2A ....|--- .... ....
....|..|R-- .... ....|R-- .... ....|R-- .... ....
 A#3|..|A#2 2C.F ....|A#3 3F1F ....|A#3 UFFF ....
....|..|--- .... ....|R-- .... ....|R-- .... ....
....|..|A#1 2F.A ....|A#3 3F1A ....|D-4 UFFA ....
....|..|--- .... ....|D-4 3F2A ....|R-- .... ....
 A#3|..|A#1 2A.F ....|D-4 3F27 ....|D-4 UFFF ....
....|..|R-- .... ....|R-- .... ....|R-- .... ....
....|..|A#2 2F.A ....|A#3 3F17 ....|A#3 UFF7 ....
....|..|--- .... ....|R-- .... ....|R-- .... ....
 A#3|..|A#2 2C.F ....|A#3 3F1F ....|F-4 UFFF ....
....|..|--- .... ....|D-4 3F27 ....|R-- .... ....
....|..|A#1 2F.A ....|R-- .... ....|D-4 UFFA ....
....|..|R-- .... ....|--- .... ....|--- .... ....

[Pattern17]
 A#3|..|A#1 2A.F ....|A#3 3F1F ....|A#4 UFFF ....
....|..|--- .... ....|R-- .... ....|R-- .... ....
....|..|A#2 2F.A ....|A#3 3F1A ....|F-4 UFFA ....
....|..|R-- .... ....|R-- .... ....|R-- .... ....
 A#3|..|A#2 2C.F ....|--- .... ....|D-4 UFF7 ....
....|..|--- .... ....|--- .... ....|--- .... ....
....|..|A#1 2F.A ....|A#3 3F1A ....|A#4 UFFA ....
....|..|--- .... ....|--- .... ....|R-- .... ....
 A#3|..|A#1 2A.F ....|A#3 3F1F ....|A#4 UFFF ....
....|..|R-- .... ....|R-- .... ....|--- .... ....
....|..|A#2 2F.A ....|--- .... ....|R-- .... ....
....|..|--- .... ....|--- .... ....|--- .... ....
 A#3|..|A#2 2C.F ....|A#3 3F17 ....|A#4 UFF7 ....
....|..|--- .... ....|--- .... ....|R-- .... ....
....|..|A#1 2F.A ....|A#3 3F1F ....|A#4 UFFF ....
....|..|R-- .... ....|R-- .... ....|R-- .... ....
 A#3|..|A#1 2A.F ....|A#3 3F1F ....|A#4 UFFF ....
....|..|--- .... ....|--- .... ....|--- .... ....
....|..|A#2 2F.A ....|R-- .... ....|R-- .... ....
....|..|--- .... ....|--- .... ....|R-- .... ....
 A#3|..|A#2 2C.F ....|A#3 3F1F ....|F-4 UFFF ....
....|..|--- .... ....|A#3 3F.F ....|R-- .... ....
....|..|A#1 2F.A ....|A#3 3F1A ....|A#4 UFFA ....
....|..|--- .... ....|--- .... ....|--- .... ....
 A#3|..|A#1 2A.F ....|R-- .... ....|D-4 UFFF ....
....|..|--- .... ....|--- .... ....|R-- .... ....
....|..|A#2 2F.A ....|A#3 3F17 ....|A#4 UFF7 ....
....|..|--- .... ....|A#3 3F.A ....|R-- .... ....
 A#3|..|A#2 2C.F ....|A#3 3F1F ....|A#3 UFFF ....
....|..|--- .... ....|D-4 3F2F ....|--- .... ....
....|..|A#1 2F.A ....|R-- .... ....|D-4 UFFA ....
....|..|--- .... ....|--- .... ....|R-- .... ....
 A#3|..|A#1 2A.F ....|A#3 3F3F ....|D#4 UFFF ....
....|..|--- .... ....|A#3 3F.7 ....|--- .... ....
....|..|A#2 2F.A ....|A#3 3F1A ....|A#3 UFFA ....
....|..|--- .... ....|D-4 3F2A ....|--- .... ....
 A#3|..|A#2 2C.F ....|R-- .... ....|D-4 UFF7 ....
....|..|--- .... ....|A#3 3F4F ....|R-- .... ....
....|..|A#1 2F.A ....|A#3 3F3A ....|D#4 UFFA ....
....|..|--- .... ....|--- .... ....|--- .... ....
 A#3|..|A#1 2A.F ....|A#3 3F3F ....|G-4 UFFF ....
....|..|--- .... ....|D-4 3F27 ....|--- .... ....
....|..|A#2 2F.A ....|R-- .... ....|R-- .... ....
....|..|R-- .... ....|A#3 3F4A ....|--- .... ....
 A#3|..|A#2 2C.F ....|A#3 3F37 ....|D#4 UFF7 ....
....|..|--- .... ....|--- .... ....|--- .... ....
....|..|A#1 2F.A ....|A#3 3F3F ....|A#3 UFFF ....
....|..|--- .... ....|R-- .... ....|R-- .... ....
 A#3|..|A#1 2A.F ....|A#3 3F1F ....|D-4 UFFF ....
....|..|R-- .... ....|A#3 3F47 ....|--- .... ....
....|..|A#2 2F.A ....|R-- .... ....|R-- .... ....
....|..|--- .... ....|--- .... ....|--- .... ....
 A#3|..|A#2 2C.F ....|A#3 3F1F ....|F-4 UFFF ....
....|..|--- .... ....|A#3 3F5F ....|R-- .... ....
....|..|A#1 2F.A ....|A#3 3F1A ....|D-4 UFFA ....
....|..|R-- .... ....|--- .... ....|--- .... ....
 A#3|..|A#1 2A.F ....|R-- .... ....|D-4 UFFF ....
....|..|--- .... ....|--- .... ....|R-- .... ....
....|..|A#2 2F.A ....|A#3 3F37 ....|A#3 UFF7 ....
....|..|--- .... ....|A#3 3F5A ....|R-- .... ....
 A#3|..|A#2 2C.F ....|A#3 3F1F ....|A#3 UFFF ....
....|..|--- .... ....|R-- .... ....|--- .... ....
....|..|A#1 2F.A ....|R-- .... ....|D-4 UFFA ....
....|..|--- .... ....|--- .... ....|R-- .... ....

[Pattern18]
 A#3|..|A#1 2A.F ....|A#3 3F6F ....|C-4 UFFF ....
....|..|--- .... ....|A#3 3F57 ....|--- .... ....
....|..|A#2 2F.A ....|A#3 3F1A ....|A#3 UFFA ....
....|..|--- .... ....|R-- .... ....|--- .... ....
 A#3|..|A#2 2C.F ....|--- .... ....|D-4 UFF7 ....
....|..|--- .... ....|--- .... ....|R-- .... ....
....|..|A#1 2F.A ....|A#3 3F6A ....|C-4 UFFA ....
....|..|--- .... ....|--- .... ....|--- .... ....
 A#3|..|A#1 2A.F ....|A#3 3F6F ....|C-4 UFFF ....
....|..|--- .... ....|R-- .... ....|--- .... ....
....|..|A#2 2F.A ....|--- .... ....|R-- .... ....
....|..|--- .... ....|--- .... ....|--- .... ....
 A#3|..|A#2 2C.F ....|A#3 3F67 ....|C-4 UFF7 ....
....|..|--- .... ....|R-- .... ....|R-- .... ....
....|..|A#1 2F.A ....|A#3 3F6F ....|C-4 UFFF ....
....|..|--- .... ....|R-- .... ....|R-- .... ....
 A#3|..|A#1 2A.F ....|A#3 3F6F ....|F-4 UFFF ....
....|..|--- .... ....|--- .... ....|--- .... ....
....|..|A#2 2F.A ....|R-- .... ....|R-- .... ....
....|..|--- .... ....|R-- .... ....|R-- .... ....
 A#3|..|A#2 2C.F ....|A#3 3F6F ....|A#3 UFEF ....
....|..|--- .... ....|R-- .... ....|R-- .... ....
....|..|A#1 2F.A ....|A#3 3F6A ....|F-4 UFFA ....
....|..|--- .... ....|--- .... ....|R-- .... ....
 A#3|..|A#1 2A.F ....|R-- .... ....|A#3 UFEF ....
....|..|--- .... ....|R-- .... ....|R-- .... ....
....|..|A#2 2F.A ....|A#3 3F67 ....|C-4 UFF7 ....
....|..|--- .... ....|R-- .... ....|R-- .... ....
 A#3|..|A#2 2C.F ....|A#3 3F6F ....|C-4 UFFF ....
....|..|--- .... ....|R-- .... ....|R-- .... ....
....|..|A#1 2F.A ....|A#4 4F.F ....|A#3 UFEA ....
....|..|--- .... ....|R-- .... ....|R-- .... ....
 A#3|..|A#1 2A.F ....|A#3 3F1F ....|A#3 UFFF ....
....|..|--- .... ....|--- .... ....|R-- .... ....
....|..|A#2 2F.A ....|A#3 4F7F ....|C-4 UFFA ....
....|..|--- .... ....|R-- .... ....|R-- .... ....
 A#3|..|A#2 2C.F ....|F-4 4F9F ....|A#3 UFE7 ....
....|..|--- .... ....|A#4 4F.F ....|R-- .... ....
....|..|A#1 2F.A ....|A#3 4F7F ....|A#3 UFFA ....
....|..|--- .... ....|R-- .... ....|R-- .... ....
 A#3|..|A#1 2A.F ....|A#3 3F1F ....|A#3 UFFF ....
....|..|--- .... ....|R-- .... ....|--- .... ....
....|..|A#2 2F.A ....|A#3 4F7F ....|R-- .... ....
....|..|--- .... ....|A#4 4F.A ....|R-- .... ....
 A#3|..|A#2 2C.F ....|D-4 3F2F ....|A#3 UFF7 ....
....|..|--- .... ....|R-- .... ....|R-- .... ....
....|..|A#1 2F.A ....|A#3 3F1F ....|A#3 UFFF ....
....|..|--- .... ....|R-- .... ....|R-- .... ....
 A#3|..|A#1 2A.F ....|A#3 3F1F ....|D-4 UFFF ....
....|..|--- .... ....|D-4 3F2F ....|--- .... ....
....|..|A#2 2F.A ....|F-4 4F9F ....|--- .... ....
....|..|--- .... ....|R-- .... ....|R-- .... ....
 A#3|..|A#2 2C.F ....|A#3 3F1F ....|A#3 UFFF ....
....|..|--- .... ....|R-- .... ....|R-- .... ....
....|..|A#1 2F.A ....|A#3 4F77 ....|D-4 UFFA ....
....|..|--- .... ....|D-4 3F2A ....|R-- .... ....
 A#3|..|A#1 2A.F ....|A#3 4F7F ....|D-4 UFFF ....
....|..|--- .... ....|A#3 4F.F ....|R-- .... ....
....|..|A#2 2F.A ....|A#3 3F17 ....|A#3 UFF7 ....
....|..|--- .... ....|R-- .... ....|R-- .... ....
 A#3|..|A#2 2C.F ....|A#3 3F1F ....|F-4 UFFF ....
....|..|--- .... ....|D-4 3F27 ....|R-- .... ....
....|..|A#1 2F.A ....|F-4 4F9F ....|D-4 UFFA ....
....|..|--- .... ....|A#4 4F.F ....|--- .... ....

[Pattern19]
 A#3|..|A#1 2A.F ....|A#3 3F1F ....|A#4 UFFF ....
....|..|--- .... ....|R-- .... ....|R-- .... ....
....|..|A#2 2F.A ....|F-4 4F9F ....|F-4 UFFA ....
....|..|--- .... ....|R-- .... ....|R-- .... ....
 A#3|..|A#2 2C.F ....|A#3 4F7F ....|D-4 UFF7 ....
....|..|--- .... ....|A#3 4F.7 ....|--- .... ....
....|..|A#1 2F.A ....|A#3 3F1A ....|A#4 UFFA ....
....|..|--- .... ....|R-- .... ....|R-- .... ....
 A#3|..|A#1 2A.F ....|A#3 3F1F ....|A#4 UFFF ....
....|..|--- .... ....|R-- .... ....|--- .... ....
....|..|A#2 2F.A ....|F-4 4F97 ....|R-- .... ....
....|..|--- .... ....|A#4 4F.7 ....|--- .... ....
 A#3|..|A#2 2C.F ....|A#3 3F17 ....|A#4 UFF7 ....
....|..|--- .... ....|R-- .... ....|R-- .... ....
....|..|A#1 2F.A ....|A#3 3F1F ....|A#4 UFFF ....
....|..|--- .... ....|R-- .... ....|R-- .... ....
 A#3|..|A#1 2A.F ....|A#3 3F1F ....|A#4 UFFF ....
....|..|--- .... ....|R-- .... ....|--- .... ....
....|..|A#2 2F.A ....|F-4 4F9F ....|R-- .... ....
....|..|--- .... ....|--- .... ....|R-- .... ....
 A#3|..|A#2 2C.F ....|A#3 3F1F ....|F-4 UFFF ....
....|..|--- .... ....|A#3 3F.F ....|R-- .... ....
....|..|A#1 2F.A ....|A#3 3F1A ....|A#4 UFFA ....
....|..|--- .... ....|R-- .... ....|--- .... ....
 A#3|..|A#1 2A.F ....|F-4 4F9F ....|D-4 UFFF ....
....|..|--- .... ....|--- .... ....|R-- .... ....
....|..|A#2 2F.A ....|A#3 3F17 ....|A#4 UFF7 ....
....|..|--- .... ....|A#3 3F.A ....|R-- .... ....
 A#3|..|A#2 2C.F ....|A#3 3F1F ....|A#3 UFFF ....
....|..|--- .... ....|D-4 3F2F ....|--- .... ....
....|..|A#1 2F.A ....|F-4 4F9F ....|D-4 UFFA ....
....|..|--- .... ....|--- .... ....|R-- .... ....
 A#3|..|A#1 2A.F ....|A#3 3F3F ....|D#4 UFFF ....
....|..|--- .... ....|A#3 3F.7 ....|--- .... ....
....|..|A#2 2F.A ....|G-4 4F2F ....|A#3 UFFA ....
....|..|--- .... ....|D-4 3F2A ....|--- .... ....
 A#3|..|A#2 2C.F ....|A#3 4F9F ....|D-4 UFF7 ....
....|..|--- .... ....|A#3 3F4F ....|R-- .... ....
....|..|A#1 2F.A ....|A#3 3F3A ....|D#4 UFFA ....
....|..|--- .... ....|R-- .... ....|--- .... ....
 A#3|..|A#1 2A.F ....|A#3 3F3F ....|G-4 UFFF ....
....|..|--- .... ....|D-4 3F27 ....|--- .... ....
....|..|A#2 2F.A ....|F-4 4F97 ....|R-- .... ....
....|..|--- .... ....|G-4 4F.F ....|--- .... ....
 A#3|..|A#2 2C.F ....|A#3 4F9F ....|D#4 UFF7 ....
....|..|--- .... ....|R-- .... ....|--- .... ....
....|..|A#1 2F.A ....|A#3 3F3F ....|A#3 UFFF ....
....|..|--- .... ....|R-- .... ....|R-- .... ....
 A#3|..|A#1 2A.F ....|A#3 3F1F ....|D-4 UFFF ....
....|..|--- .... ....|A#3 3F47 ....|--- .... ....
....|..|A#2 2F.A ....|F-4 4F9F ....|R-- .... ....
....|..|R-- .... ....|R-- .... ....|--- .... ....
 A#3|..|A#2 2C.F ....|A#3 3F1F ....|F-4 UFFF ....
....|..|--- .... ....|A#3 3F5F ....|R-- .... ....
....|..|A#1 2F.A ....|A#3 3F1A ....|D-4 UFFA ....
....|..|--- .... ....|G-4 4F.7 ....|--- .... ....
 A#3|..|A#1 2A.F ....|F-4 4F9F ....|D-4 UFFF ....
....|..|R-- .... ....|R-- .... ....|R-- .... ....
....|..|A#2 2F.A ....|A#3 3F37 ....|A#3 UFF7 ....
....|..|--- .... ....|A#3 3F5A ....|R-- .... ....
 A#3|..|A#2 2C.F ....|A#3 3F1F ....|A#3 UFFF ....
....|..|--- .... ....|R-- .... ....|--- .... ....
....|..|A#1 2F.A ....|F-4 4F9F ....|D-4 UFFA ....
....|..|R-- .... ....|R-- .... ....|R-- .... ....

[Pattern20]
 A#3|..|A#1 2A.F ....|A#3 3F6F ....|C-4 UFFF ....
....|..|--- .... ....|A#3 3F57 ....|--- .... ....
....|..|A#2 2F.A ....|F-4 4F9F ....|A#3 UFFA ....
....|..|--- .... ....|R-- .... ....|--- .... ....
 A#3|..|A#2 2C.F ....|C-4 4F2F ....|D-4 UFF7 ....
....|..|--- .... ....|R-- .... ....|R-- .... ....
....|..|A#1 2F.A ....|A#3 3F6A ....|C-4 UFFA ....
....|..|--- .... ....|R-- .... ....|--- .... ....
 A#3|..|A#1 2A.F ....|A#3 3F6F ....|C-4 UFFF ....
....|..|--- .... ....|R-- .... ....|--- .... ....
....|..|A#2 2F.A ....|F-4 4F97 ....|R-- .... ....
....|..|--- .... ....|R-- .... ....|--- .... ....
 A#3|..|A#2 2C.F ....|D#4 4F6F ....|C-4 UFF7 ....
....|..|--- .... ....|R-- .... ....|R-- .... ....
....|..|A#1 2F.A ....|A#3 3F6F ....|C-4 UFFF ....
....|..|--- .... ....|A#4 4F.F ....|R-- .... ....
 A#3|..|A#1 2A.F ....|A#3 3F6F ....|F-4 UFFF ....
....|..|--- .... ....|R-- .... ....|--- .... ....
....|..|A#2 2F.A ....|F-4 4F9F ....|R-- .... ....
....|..|--- .... ....|R-- .... ....|R-- .... ....
 A#3|..|A#2 2C.F ....|A#3 3F6F ....|F-4 UFFF ....
....|..|--- .... ....|A#4 4F.A ....|R-- .... ....
....|..|A#1 2F.A ....|A#3 3F6A ....|F-4 UFFA ....
....|..|--- .... ....|R-- .... ....|--- .... ....
 A#3|..|A#1 2A.F ....|F-4 4F9F ....|D-4 UFFF ....
....|..|--- .... ....|R-- .... ....|R-- .... ....
....|..|A#2 2F.A ....|A#3 3F67 ....|C-4 UFF7 ....
....|..|--- .... ....|A#4 4F.7 ....|R-- .... ....
 A#3|..|A#2 2C.F ....|A#3 3F6F ....|C-4 UFFF ....
....|..|--- .... ....|R-- .... ....|--- .... ....
....|..|A#1 2F.A ....|F-4 4F9F ....|D-4 UFFA ....
....|..|--- .... ....|A#4 4F.F ....|R-- .... ....
 A#3|..|A#1 2A.F ....|A#3 3F1F ....|A#3 UFFF ....
....|..|--- .... ....|R-- .... ....|R-- .... ....
....|..|A#2 2F.A ....|F-4 4F9F ....|C-4 UFFA ....
....|..|--- .... ....|A#4 4F.F ....|--- .... ....
 A#3|..|A#2 2C.F ....|A#3 4F7F ....|D-4 UFF7 ....
....|..|--- .... ....|D-4 4F.F ....|R-- .... ....
....|..|A#1 2F.A ....|A#3 3F1A ....|A#3 UFFA ....
....|..|--- .... ....|R-- .... ....|R-- .... ....
 A#3|..|A#1 2A.F ....|A#3 3F1F ....|A#3 UFFF ....
....|..|--- .... ....|A#4 4F.A ....|--- .... ....
....|..|A#2 2F.A ....|F-4 4F97 ....|R-- .... ....
....|..|--- .... ....|A#4 4F.7 ....|--- .... ....
 A#3|..|A#2 2C.F ....|D-4 3F2F ....|A#3 UFF7 ....
....|..|--- .... ....|D-4 4F.F ....|R-- .... ....
....|..|A#1 2F.A ....|A#3 3F1F ....|A#3 UFFF ....
....|..|--- .... ....|A#4 4F.7 ....|R-- .... ....
 A#3|..|A#1 2A.F ....|A#3 3F1F ....|D-4 UFFF ....
....|..|--- .... ....|D-4 3F2F ....|--- .... ....
....|..|A#2 2F.A ....|F-4 4F9F ....|--- .... ....
....|..|R-- .... ....|A#4 4F.F ....|R-- .... ....
 A#3|..|A#2 2C.F ....|A#3 3F1F ....|A#3 UFFF ....
....|..|--- .... ....|R-- .... ....|R-- .... ....
....|..|A#1 2F.A ....|A#3 3F1A ....|D-4 UFFA ....
....|..|--- .... ....|D-4 3F2A ....|R-- .... ....
 A#3|..|A#1 2A.F ....|F-4 4F9F ....|D-4 UFFF ....
....|..|R-- .... ....|D-4 4F.7 ....|R-- .... ....
....|..|A#2 2F.A ....|A#3 3F17 ....|A#3 UFF7 ....
....|..|--- .... ....|R-- .... ....|R-- .... ....
 A#3|..|A#2 2C.F ....|A#3 3F1F ....|F-4 UFFF ....
....|..|--- .... ....|D-4 3F27 ....|R-- .... ....
....|..|A#1 2F.A ....|F-4 4F9F ....|D-4 UFFA ....
....|..|R-- .... ....|A#4 4F.F ....|--- .... ....

[Pattern21]
 A#3|..|A#1 2A.F ....|A#3 3F1F ....|A#4 UFFF ....
....|..|--- .... ....|R-- .... ....|R-- .... ....
....|..|A#2 2F.A ....|F-4 4F9F ....|F-4 UFFA ....
....|..|R-- .... ....|R-- .... ....|R-- .... ....
 A#3|..|A#2 2C.F ....|A#3 4F7F ....|D-4 UFF7 ....
....|..|--- .... ....|A#4 4F.A ....|--- .... ....
....|..|A#1 2F.A ....|A#3 3F1A ....|A#4 UFFA ....
....|..|--- .... ....|R-- .... ....|R-- .... ....
 A#3|..|A#1 2A.F ....|A#3 3F1F ....|A#4 UFFF ....
....|..|R-- .... ....|A#4 4F.F ....|--- .... ....
....|..|A#2 2F.A ....|F-4 4F97 ....|R-- .... ....
....|..|--- .... ....|A#4 4F.7 ....|--- .... ....
 A#3|..|A#2 2C.F ....|F-4 4F9F ....|A#4 UFF7 ....
....|..|--- .... ....|R-- .... ....|R-- .... ....
....|..|A#1 2F.A ....|A#3 3F1F ....|A#4 UFFF ....
....|..|R-- .... ....|A#4 4F.A ....|R-- .... ....
 A#3|..|A#1 2A.F ....|A#3 3F1F ....|A#4 UFFF ....
....|..|--- .... ....|R-- .... ....|--- .... ....
....|..|A#2 2F.A ....|F-4 4F9F ....|R-- .... ....
....|..|--- .... ....|--- .... ....|R-- .... ....
 A#3|..|A#2 2C.F ....|A#3 3F1F ....|F-4 UFFF ....
....|..|--- .... ....|A#3 3F.F ....|R-- .... ....
....|..|A#1 2F.A ....|A#3 3F1A ....|A#4 UFFA ....
....|..|--- .... ....|R-- .... ....|--- .... ....
 A#3|..|A#1 2A.F ....|F-4 4F9F ....|D-4 UFFF ....
....|..|--- .... ....|--- .... ....|R-- .... ....
....|..|A#2 2F.A ....|A#3 3F17 ....|A#4 UFF7 ....
....|..|--- .... ....|A#3 3F.A ....|R-- .... ....
 A#3|..|A#2 2C.F ....|A#3 3F1F ....|A#3 UFFF ....
....|..|--- .... ....|D-4 3F2F ....|--- .... ....
....|..|A#1 2F.A ....|F-4 4F9F ....|D-4 UFFA ....
....|..|--- .... ....|--- .... ....|R-- .... ....
 A#3|..|A#1 2A.F ....|A#3 3F3F ....|D#4 UFFF ....
....|..|--- .... ....|D#4 4F.F ....|--- .... ....
....|..|A#2 2F.A ....|A#3 3F1A ....|A#3 UFFA ....
....|..|--- .... ....|D-4 3F2A ....|--- .... ....
 A#3|..|A#2 2C.F ....|A#3 4F9F ....|D-4 UFF7 ....
....|..|--- .... ....|A#3 3F4F ....|R-- .... ....
....|..|A#1 2F.A ....|A#3 3F3A ....|D#4 UFFA ....
....|..|--- .... ....|D#4 4F.A ....|--- .... ....
 A#3|..|A#1 2A.F ....|A#3 3F3F ....|G-4 UFFF ....
....|..|--- .... ....|D-4 3F27 ....|--- .... ....
....|..|A#2 2F.A ....|F-4 4F97 ....|A#4 UFEF ....
....|..|R-- .... ....|A#3 3F4A ....|--- .... ....
 A#3|..|A#2 2C.F ....|A#3 4FBF ....|D#4 UFF7 ....
....|..|--- .... ....|D#4 4F.7 ....|--- .... ....
....|..|A#1 2F.A ....|A#3 3F3F ....|A#3 UFFF ....
....|..|--- .... ....|R-- .... ....|R-- .... ....
 A#3|..|A#1 2A.F ....|A#3 3F1F ....|D-4 UFFF ....
....|..|R-- .... ....|D-4 4F.F ....|--- .... ....
....|..|A#2 2F.A ....|F-4 4F9F ....|R-- .... ....
....|..|--- .... ....|A#4 4F.F ....|--- .... ....
 A#3|..|A#2 2C.F ....|A#3 3F1F ....|F-4 UFFF ....
....|..|--- .... ....|A#3 3F5F ....|R-- .... ....
....|..|A#1 2F.A ....|A#3 3F1A ....|A#4 UFE7 ....
....|..|R-- .... ....|D-4 4F.A ....|--- .... ....
 A#3|..|A#1 2A.F ....|F-4 4F9F ....|D-4 UFFF ....
....|..|--- .... ....|A#4 4F.A ....|R-- .... ....
....|..|A#2 2F.A ....|A#3 3F37 ....|A#3 UFF7 ....
....|..|--- .... ....|A#3 3F5A ....|R-- .... ....
 A#3|..|A#2 2C.F ....|A#3 3F1F ....|A#3 UFFF ....
....|..|--- .... ....|D-4 4F.7 ....|--- .... ....
....|..|A#1 2F.A ....|F-4 4F9F ....|D-4 UFFA ....
....|..|--- .... ....|A#4 4F.7 ....|R-- .... ....

[Pattern22]
 A#3|..|A#1 2A.F ....|A#3 3F6F ....|C-4 UFFF ....
....|..|--- .... ....|D#4 4F.F ....|--- .... ....
....|..|A#2 2F.A ....|F-4 4F9F ....|A#3 UFFA ....
....|..|--- .... ....|R-- .... ....|--- .... ....
 A#3|..|A#2 2C.F ....|A#3 4F9F ....|D-4 UFF7 ....
....|..|--- .... ....|--- .... ....|R-- .... ....
....|..|A#1 2F.A ....|A#3 3F6A ....|C-4 UFFA ....
....|..|--- .... ....|D#4 4F.A ....|--- .... ....
 A#3|..|A#1 2A.F ....|A#3 3F6F ....|C-4 UFFF ....
....|..|--- .... ....|R-- .... ....|--- .... ....
....|..|A#2 2F.A ....|F-4 4F97 ....|R-- .... ....
....|..|--- .... ....|--- .... ....|--- .... ....
 A#3|..|A#2 2C.F ....|A#3 4F9F ....|C-4 UFF7 ....
....|..|--- .... ....|D#4 4F.F ....|R-- .... ....
....|..|A#1 2F.A ....|A#3 3F6F ....|C-4 UFFF ....
....|..|--- .... ....|R-- .... ....|R-- .... ....
 A#3|..|A#1 2A.F ....|A#3 3F6F ....|F-4 UFFF ....
....|..|--- .... ....|D#4 4F.F ....|--- .... ....
....|..|A#2 2F.A ....|F-4 4F9F ....|R-- .... ....
....|..|--- .... ....|D#4 4F.A ....|R-- .... ....
 A#3|..|A#2 2C.F ....|A#3 3F6F ....|A#4 UFEF ....
....|..|--- .... ....|R-- .... ....|R-- .... ....
....|..|A#1 2F.A ....|F-4 4F9F ....|F-4 UFFA ....
....|..|--- .... ....|A#4 4F.F ....|A#4 UFEF ....
 A#3|..|A#1 2A.F ....|A#3 4F9F ....|A#4 UFEF ....
....|..|--- .... ....|D#4 4F.F ....|R-- .... ....
....|..|A#2 2F.A ....|F-4 4F9F ....|A#4 UFEF ....
....|..|--- .... ....|R-- .... ....|R-- .... ....
 A#3|..|A#2 2C.F ....|A#3 3F6F ....|C-4 UFFF ....
....|..|--- .... ....|D#4 4F.7 ....|A#3 UFEF ....
....|..|A#1 2F.A ....|F-4 4F9F ....|A#4 UFEA ....
....|..|--- .... ....|A#4 4F.F ....|A#1 UFEF ....
 A#3|..|A#1 2A.F ....|G-4 2FDF ....|A#4 UFE7 ....
....|..|--- .... ....|R-- .... ....|R-- .... ....
....|..|A#2 2F.A ....|F-4 4F97 ....|C-4 UFFA ....
....|..|--- .... ....|A#4 4F.7 ....|A#4 UFE7 ....
....|..|A#1 2F.7 ....|D#5 2FDF ....|A#4 UFE7 ....
....|..|R-- .... ....|D#4 4F.7 ....|A#1 UFEA ....
....|..|A#1 2F.A ....|F-4 4F97 ....|A#4 UFE7 ....
....|..|--- .... ....|R-- .... ....|--- .... ....
....|..|A#2 2F.7 ....|A#5 2FDF ....|A#3 UFEF ....
....|..|--- .... ....|A#5 2FDF ....|A#3 UFE7 ....
....|..|R-- .... ....|F-4 4F97 ....|R-- .... ....
....|..|R-- .... ....|A#4 4F.7 ....|A#1 UFE7 ....
....|..|A#1 2F.7 ....|F-4 2FDF ....|A-3 UFEF ....
....|..|--- .... ....|--- .... ....|--- .... ....
....|..|--- .... ....|A#5 2FDA ....|A#3 UFEA ....
....|..|--- .... ....|A#5 2FDA ....|--- .... ....
....|..|--- .... ....|A-4 2FDF ....|--- .... ....
....|..|R-- .... ....|--- .... ....|R-- .... ....
....|..|--- .... ....|F-4 2FDA ....|A-3 UFEA ....
....|..|--- .... ....|--- .... ....|--- .... ....
....|..|--- .... ....|F-5 2FDF ....|A#3 UFEF ....
....|..|--- .... ....|A#5 2FD7 ....|--- .... ....
....|..|--- .... ....|A-4 2FDA ....|--- .... ....
....|..|--- .... ....|--- .... ....|R-- .... ....
....|..|--- .... ....|C-6 2FDF ....|A-3 UFE7 ....
....|..|--- .... ....|A-4 2FDF ....|--- .... ....
....|..|--- .... ....|F-5 2FDA ....|A#3 UFEA ....
....|..|--- .... ....|--- .... ....|--- .... ....
....|..|--- .... ....|A#3 2FDF ....|C-4 UFEF ....
....|..|--- .... ....|--- .... ....|R-- .... ....
....|..|--- .... ....|C-6 2FDA ....|--- .... ....
....|..|--- .... ....|A-4 2FDA ....|--- .... ....

[Pattern34]
....|..|--- .... ....|F-4 2FDF ....|A#3 UFE7 ....
....|..|--- .... ....|--- .... ....|--- .... ....
....|..|--- .... ....|A#3 2FDA ....|A#3 UFEA ....
....|..|--- .... ....|--- .... ....|--- .... ....
....|..|--- .... ....|D-5 2FDF ....|--- .... ....
....|..|--- .... ....|A-4 2FD7 ....|--- .... ....
....|..|--- .... ....|F-4 2FDA ....|R-- .... ....
....|..|--- .... ....|--- .... ....|--- .... ....
....|..|--- .... ....|A#5 2FDF ....|A#3 UFE7 ....
....|..|--- .... ....|A#5 2FDF ....|--- .... ....
....|..|--- .... ....|D-5 2FDA ....|--- .... ....
....|..|--- .... ....|--- .... ....|--- .... ....
....|..|--- .... ....|G-3 2FDF ....|--- .... ....
....|..|--- .... ....|--- .... ....|--- .... ....
....|..|--- .... ....|A#5 2FDA ....|R-- .... ....
....|..|--- .... ....|A#5 2FDA ....|--- .... ....
....|..|--- .... ....|D-4 2FDF ....|--- .... ....
....|..|--- .... ....|--- .... ....|--- .... ....
....|..|--- .... ....|G-3 2FDA ....|--- .... ....
....|..|--- .... ....|--- .... ....|--- .... ....
....|..|--- .... ....|D-5 2FDF ....|R-- .... ....
....|..|--- .... ....|A#5 2FD7 ....|--- .... ....
....|..|--- .... ....|D-4 2FDA ....|--- .... ....
....|..|--- .... ....|--- .... ....|--- .... ....
....|..|--- .... ....|A#5 2FDF ....|--- .... ....
....|..|--- .... ....|A#5 2FDF ....|--- .... ....
....|..|--- .... ....|D-4 2FDF ....|R-- .... ....
....|..|--- .... ....|R-- .... ....|--- .... ....
....|..|--- .... ....|D#4 2FDF ....|A#4 UFEF ....
....|..|--- .... ....|--- .... ....|--- .... ....
....|..|--- .... ....|A#5 2FDA ....|--- .... ....
....|..|--- .... ....|A#5 2FDA ....|R-- .... ....
 A#3|..|A#1 2A.F ....|A#3 3F2F ....|--- .... ....
....|..|--- .... ....|R-- .... ....|--- .... ....
....|..|--- .... ....|D#4 2FDA ....|A#4 UFEA ....
....|..|--- .... ....|--- .... ....|--- .... ....
....|..|--- .... ....|A#3 3F2F ....|--- .... ....
....|..|--- .... ....|A#5 2FD7 ....|R-- .... ....
 A#3|..|A#2 2C.F ....|D-4 2FD7 ....|--- .... ....
....|..|R-- .... ....|R-- .... ....|--- .... ....
 A#3|..|A#1 2A.F ....|A#3 3F2F ....|A#4 UFE7 ....
....|..|--- .... ....|A#3 3F.F ....|--- .... ....
....|..|--- .... ....|A#3 3F2A ....|--- .... ....
....|..|--- .... ....|R-- .... ....|R-- .... ....
 A#3|..|A#2 2C.F ....|A#3 3F2F ....|--- .... ....
 A#3|..|A#2 2C.F ....|A#3 3F.F ....|--- .... ....
....|..|A#1 2F.A ....|C-4 3F2F ....|--- .... ....
....|..|--- .... ....|A#3 3F.A ....|--- .... ....
 A#3|..|A#1 2A.F ....|A#3 3F27 ....|--- .... ....
....|..|--- .... ....|R-- .... ....|--- .... ....
....|..|A#2 2F.7 ....|C-4 3F2F ....|--- .... ....
....|..|A#2 2F.A ....|A#3 3F.A ....|--- .... ....
 A#3|..|A#2 2C.F ....|A#3 3F27 ....|--- .... ....
 A#3|..|A#2 2C.F ....|A#3 3F.7 ....|--- .... ....
....|..|A#1 2F.A ....|C-4 3F2F ....|--- .... ....
....|..|--- .... ....|R-- .... ....|--- .... ....
 A#3|..|A#1 2A.F ....|C-4 3F2F ....|--- .... ....
....|..|A#2 2F.7 ....|A#3 3F.7 ....|--- .... ....
....|..|A#2 2F.A ....|C-4 3F27 ....|--- .... ....
....|..|A#2 2F.A ....|--- .... ....|--- .... ....
 A#3|..|A#2 2C.F ....|C-4 3F2F ....|--- .... ....
 A#3|..|A#2 2C.F ....|C-4 3F.F ....|--- .... ....
....|..|A#1 2F.A ....|C-4 3F27 ....|--- .... ....
....|..|--- .... ....|R-- .... ....|--- .... ....

[Pattern35]
 A#3|..|A#1 2A.F ....|G#3 3F7F ....|--- .... ....
....|..|A#2 2F.7 ....|R-- .... ....|--- .... ....
....|..|A#2 2F.A ....|C-4 3F27 ....|--- .... ....
....|..|A#2 2F.A ....|C-4 3F.A ....|--- .... ....
....|..|A#1 2F.7 ....|G#3 3F7F ....|--- .... ....
....|..|--- .... ....|R-- .... ....|--- .... ....
 A#3|..|A#2 2C.F ....|G#3 3F7A ....|--- .... ....
....|..|R-- .... ....|R-- .... ....|--- .... ....
 A#3|..|A#1 2A.F ....|G#3 3F7F ....|--- .... ....
....|..|A#2 2F.7 ....|G#3 3F.F ....|--- .... ....
....|..|R-- .... ....|G#3 3F7A ....|--- .... ....
....|..|--- .... ....|R-- .... ....|--- .... ....
 A#3|..|A#2 2C.F ....|G#3 3F7F ....|--- .... ....
 A#3|..|A#2 2C.F ....|R-- .... ....|--- .... ....
....|..|A#1 2F.A ....|A#3 3F2F ....|--- .... ....
....|..|--- .... ....|G#3 3F.A ....|--- .... ....
 A#3|..|A#1 2A.F ....|G#3 3F77 ....|--- .... ....
....|..|--- .... ....|R-- .... ....|--- .... ....
....|..|A#2 2F.7 ....|A#3 3F2F ....|--- .... ....
....|..|A#2 2F.A ....|A#3 3F.F ....|--- .... ....
 A#3|..|A#2 2C.F ....|G#3 3F77 ....|--- .... ....
....|..|R-- .... ....|G#3 3F.7 ....|--- .... ....
....|..|A#1 2F.A ....|A#3 3F2F ....|--- .... ....
....|..|--- .... ....|R-- .... ....|--- .... ....
 A#3|..|A#1 2A.F ....|A#3 3F2F ....|--- .... ....
....|..|A#2 2F.7 ....|A#3 3F.A ....|--- .... ....
....|..|A#2 2F.A ....|A#3 3F27 ....|--- .... ....
....|..|R-- .... ....|--- .... ....|--- .... ....
 A#3|..|A#2 2C.F ....|A#3 3F2F ....|--- .... ....
....|..|R-- .... ....|R-- .... ....|--- .... ....
....|..|A#1 2F.A ....|A#3 3F27 ....|--- .... ....
....|..|--- .... ....|A#3 3F.7 ....|--- .... ....
 A#3|..|A#1 2A.F ....|A#3 3F2F ....|--- .... ....
....|..|R-- .... ....|R-- .... ....|--- .... ....
....|..|A#2 2F.A ....|A#3 3F27 ....|--- .... ....
....|..|R-- .... ....|R-- .... ....|--- .... ....
....|..|A#1 2F.7 ....|A#3 3F2F ....|--- .... ....
....|..|--- .... ....|R-- .... ....|--- .... ....
 A#3|..|A#2 2C.F ....|A#3 3F2A ....|--- .... ....
....|..|R-- .... ....|R-- .... ....|--- .... ....
 A#3|..|A#1 2A.F ....|A#3 3F2F ....|--- .... ....
....|..|R-- .... ....|A#3 3F.F ....|--- .... ....
....|..|--- .... ....|A#3 3F2A ....|--- .... ....
....|..|--- .... ....|R-- .... ....|--- .... ....
 A#3|..|A#2 2C.F ....|A#3 3F2F ....|--- .... ....
 A#3|..|A#1 2A.F ....|A#3 3F.F ....|--- .... ....
....|..|A#1 2F.A ....|C-4 3F2F ....|--- .... ....
....|..|--- .... ....|A#3 3F.A ....|--- .... ....
 A#3|..|A#1 2A.F ....|A#3 3F27 ....|--- .... ....
....|..|--- .... ....|R-- .... ....|--- .... ....
....|..|A#2 2F.7 ....|C-4 3F2F ....|--- .... ....
....|..|A#1 2F.A ....|A#3 3F.A ....|--- .... ....
 A#3|..|A#2 2C.F ....|A#3 3F27 ....|--- .... ....
....|..|R-- .... ....|A#3 3F.7 ....|--- .... ....
....|..|A#1 2F.A ....|C-4 3F2F ....|--- .... ....
....|..|--- .... ....|R-- .... ....|--- .... ....
 A#3|..|A#1 2A.F ....|C-4 3F2F ....|--- .... ....
....|..|A#1 2F.7 ....|A#3 3F.7 ....|--- .... ....
....|..|A#2 2F.A ....|C-4 3F27 ....|--- .... ....
....|..|R-- .... ....|--- .... ....|--- .... ....
 A#3|..|A#2 2C.F ....|C-4 3F2F ....|--- .... ....
....|..|R-- .... ....|C-4 3F.F ....|--- .... ....
....|..|A#1 2F.A ....|C-4 3F27 ....|--- .... ....
....|..|--- .... ....|R-- .... ....|--- .... ....

[Pattern36]
 A#3|..|A#1 2A.F ....|G#3 3F7F ....|--- .... ....
....|..|R-- .... ....|R-- .... ....|--- .... ....
....|..|A#2 2F.A ....|C-4 3F27 ....|--- .... ....
....|..|R-- .... ....|C-4 3F.A ....|--- .... ....
....|..|A#1 2F.7 ....|G#3 3F7F ....|--- .... ....
....|..|--- .... ....|R-- .... ....|--- .... ....
 A#3|..|A#2 2C.F ....|G#3 3F7A ....|--- .... ....
....|..|R-- .... ....|R-- .... ....|--- .... ....
 A#3|..|A#1 2A.F ....|G#3 3F7F ....|--- .... ....
....|..|R-- .... ....|G#3 3F.F ....|--- .... ....
....|..|--- .... ....|G#3 3F7A ....|--- .... ....
....|..|--- .... ....|R-- .... ....|--- .... ....
 A#3|..|A#2 2C.F ....|G#3 3F7F ....|--- .... ....
 A#3|..|A#1 2A.F ....|R-- .... ....|--- .... ....
....|..|A#1 2F.A ....|A#3 3F2F ....|--- .... ....
....|..|--- .... ....|G#3 3F.A ....|--- .... ....
 A#3|..|A#1 2A.F ....|G#3 3F77 ....|--- .... ....
....|..|--- .... ....|R-- .... ....|--- .... ....
....|..|A#2 2F.7 ....|A#3 3F2F ....|--- .... ....
....|..|A#1 2F.A ....|A#3 3F.F ....|--- .... ....
 A#3|..|A#2 2C.F ....|G#3 3F77 ....|--- .... ....
 A#3|..|A#1 2A.F ....|G#3 3F.7 ....|--- .... ....
....|..|A#1 2F.A ....|A#3 3F2F ....|--- .... ....
....|..|--- .... ....|R-- .... ....|--- .... ....
 A#3|..|A#1 2A.F ....|A#3 3F2F ....|--- .... ....
....|..|A#1 2F.7 ....|A#3 3F.A ....|--- .... ....
....|..|A#2 2F.A ....|A#3 3F27 ....|--- .... ....
....|..|A#1 2F.A ....|--- .... ....|--- .... ....
 A#3|..|A#2 2C.F ....|A#3 3F2F ....|--- .... ....
 A#3|..|A#1 2A.F ....|R-- .... ....|--- .... ....
....|..|A#1 2F.A ....|A#3 3F27 ....|--- .... ....
....|..|--- .... ....|A#3 3F.7 ....|--- .... ....
 A#3|..|A#1 2A.F ....|A#3 3F2F ....|--- .... ....
....|..|A#1 2F.7 ....|R-- .... ....|--- .... ....
....|..|A#2 2F.A ....|A#3 3F27 ....|--- .... ....
....|..|A#1 2F.A ....|R-- .... ....|--- .... ....
....|..|A#1 2F.7 ....|A#3 3F2F ....|--- .... ....
....|..|--- .... ....|R-- .... ....|--- .... ....
 A#3|..|A#2 2C.F ....|A#3 3F2A ....|--- .... ....
....|..|R-- .... ....|R-- .... ....|--- .... ....
 A#3|..|A#1 2A.F ....|A#3 3F2F ....|--- .... ....
....|..|A#1 2F.7 ....|A#3 3F.F ....|--- .... ....
....|..|R-- .... ....|A#3 3F2A ....|--- .... ....
....|..|--- .... ....|R-- .... ....|--- .... ....
 A#3|..|A#2 2C.F ....|A#3 3F2F ....|--- .... ....
 A#3|..|A#1 2A.F ....|A#3 3F.F ....|--- .... ....
....|..|A#1 2F.A ....|C-4 3F2F ....|--- .... ....
....|..|--- .... ....|A#3 3F.A ....|--- .... ....
 A#3|..|A#1 2A.F ....|A#3 3F27 ....|--- .... ....
....|..|--- .... ....|R-- .... ....|--- .... ....
....|..|A#2 2F.7 ....|C-4 3F2F ....|--- .... ....
....|..|A#1 2F.A ....|A#3 3F.A ....|--- .... ....
 A#3|..|A#2 2C.F ....|A#3 3F27 ....|--- .... ....
 A#3|..|A#1 2A.F ....|A#3 3F.7 ....|--- .... ....
....|..|A#1 2F.A ....|C-4 3F2F ....|--- .... ....
....|..|--- .... ....|R-- .... ....|--- .... ....
 A#3|..|A#1 2A.F ....|C-4 3F2F ....|--- .... ....
....|..|A#1 2F.7 ....|A#3 3F.7 ....|--- .... ....
....|..|A#2 2F.A ....|C-4 3F27 ....|--- .... ....
....|..|A#1 2F.A ....|--- .... ....|--- .... ....
 A#3|..|A#2 2C.F ....|C-4 3F2F ....|--- .... ....
 A#3|..|A#1 2A.F ....|C-4 3F.F ....|--- .... ....
....|..|A#1 2F.A ....|C-4 3F27 ....|--- .... ....
....|..|--- .... ....|R-- .... ....|--- .... ....

[Pattern37]
 A#3|..|A#1 2A.F ....|G#3 3F7F ....|--- .... ....
....|..|A#1 2F.7 ....|R-- .... ....|--- .... ....
....|..|A#2 2F.A ....|C-4 3F27 ....|--- .... ....
....|..|A#1 2F.A ....|C-4 3F.A ....|--- .... ....
....|..|A#1 2F.7 ....|G#3 3F7F ....|--- .... ....
....|..|--- .... ....|R-- .... ....|--- .... ....
 A#3|..|A#2 2C.F ....|G#3 3F7A ....|--- .... ....
....|..|R-- .... ....|R-- .... ....|--- .... ....
 A#3|..|A#1 2A.F ....|G#3 3F7F ....|--- .... ....
....|..|A#1 2F.7 ....|G#3 3F.F ....|--- .... ....
....|..|R-- .... ....|G#3 3F7A ....|--- .... ....
....|..|--- .... ....|R-- .... ....|--- .... ....
 A#3|..|A#2 2C.F ....|G#3 3F7F ....|--- .... ....
 A#3|..|A#1 2A.F ....|R-- .... ....|--- .... ....
....|..|A#1 2F.A ....|A#3 3F2F ....|--- .... ....
....|..|--- .... ....|G#3 3F.A ....|--- .... ....
 A#3|..|A#1 2A.F ....|G#3 3F77 ....|--- .... ....
....|..|--- .... ....|R-- .... ....|--- .... ....
....|..|A#2 2F.7 ....|A#3 3F2F ....|--- .... ....
....|..|A#1 2F.A ....|A#3 3F.F ....|--- .... ....
 A#3|..|A#2 2C.F ....|G#3 3F77 ....|--- .... ....
 A#3|..|A#1 2A.F ....|G#3 3F.7 ....|--- .... ....
....|..|A#1 2F.A ....|A#3 3F2F ....|--- .... ....
....|..|--- .... ....|R-- .... ....|--- .... ....
 A#3|..|A#1 2A.F ....|A#3 3F2F ....|--- .... ....
....|..|A#1 2F.7 ....|A#3 3F.A ....|--- .... ....
....|..|A#2 2F.A ....|A#3 3F27 ....|--- .... ....
....|..|A#1 2F.A ....|--- .... ....|--- .... ....
 A#3|..|A#2 2C.F ....|A#3 3F2F ....|--- .... ....
....|..|R-- .... ....|R-- .... ....|--- .... ....
....|..|A#1 2F.A ....|A#3 3F27 ....|--- .... ....
....|..|--- .... ....|A#3 3F.7 ....|--- .... ....
 A#3|..|A#1 2A.F ....|A#3 3F2F ....|A#4 UFEF ....
....|..|A#1 2F.7 ....|R-- .... ....|--- .... ....
....|..|A#2 2F.A ....|A#3 4F.F ....|--- .... ....
....|..|R-- .... ....|R-- .... ....|--- .... ....
....|..|A#1 2F.7 ....|A#3 3F2F ....|--- .... ....
....|..|--- .... ....|R-- .... ....|R-- .... ....
 A#3|..|A#2 2C.F ....|A#3 4F.F ....|A#4 UFEA ....
....|..|R-- .... ....|R-- .... ....|--- .... ....
 A#3|..|A#1 2A.F ....|A#3 3F2F ....|--- .... ....
....|..|R-- .... ....|A#3 3F.F ....|--- .... ....
....|..|--- .... ....|A#3 4F.F ....|--- .... ....
....|..|--- .... ....|R-- .... ....|R-- .... ....
 A#3|..|A#2 2C.F ....|A#3 3F2F ....|A#4 UFE7 ....
 A#3|..|A#1 2A.F ....|A#3 3F.F ....|--- .... ....
....|..|A#1 2F.A ....|C-4 3F2F ....|--- .... ....
....|..|--- .... ....|D#4 4F.F ....|--- .... ....
 A#3|..|A#1 2A.F ....|A#2 4F.F ....|--- .... ....
....|..|--- .... ....|R-- .... ....|R-- .... ....
....|..|A#2 2F.7 ....|C-4 3F2F ....|--- .... ....
....|..|A#1 2F.A ....|A#3 3F.A ....|--- .... ....
 A#3|..|A#2 2C.F ....|A#2 4F.F ....|--- .... ....
 A#3|..|A#1 2A.F ....|A#3 3F.7 ....|--- .... ....
....|..|A#1 2F.A ....|C-4 3F2F ....|--- .... ....
....|..|--- .... ....|R-- .... ....|--- .... ....
 A#3|..|A#1 2A.F ....|C-4 3F2F ....|--- .... ....
....|..|A#1 2F.7 ....|A#3 3F.7 ....|--- .... ....
....|..|A#2 2F.A ....|A#3 4F.F ....|--- .... ....
....|..|A#1 2F.A ....|D#4 4F.7 ....|--- .... ....
 A#3|..|A#2 2C.F ....|C-4 3F2F ....|--- .... ....
 A#3|..|A#1 2A.F ....|C-4 3F.F ....|--- .... ....
....|..|A#1 2F.A ....|A#3 4F.F ....|--- .... ....
....|..|--- .... ....|R-- .... ....|--- .... ....

[Pattern38]
 A#3|..|A#1 2A.F ....|G#3 3F7F ....|--- .... ....
....|..|A#1 2F.7 ....|A#2 4F.F ....|--- .... ....
....|..|A#2 2F.A ....|A#3 4F.F ....|--- .... ....
....|..|A#1 2F.A ....|C-4 3F.A ....|--- .... ....
....|..|A#1 2F.7 ....|G#3 3F7F ....|--- .... ....
....|..|--- .... ....|R-- .... ....|--- .... ....
 A#3|..|A#2 2C.F ....|A#3 4F.F ....|--- .... ....
....|..|R-- .... ....|A#2 4F.A ....|--- .... ....
 A#3|..|A#1 2A.F ....|G#3 3F7F ....|--- .... ....
....|..|A#1 2F.7 ....|G#3 3F.F ....|--- .... ....
....|..|R-- .... ....|A#3 4F.F ....|--- .... ....
....|..|--- .... ....|R-- .... ....|--- .... ....
 A#3|..|A#2 2C.F ....|G#3 3F7F ....|--- .... ....
 A#3|..|A#1 2A.F ....|A#2 4F.7 ....|--- .... ....
....|..|A#1 2F.A ....|A#3 3F2F ....|--- .... ....
....|..|--- .... ....|G#3 3F.A ....|--- .... ....
 A#3|..|A#1 2A.F ....|A#2 4F.F ....|--- .... ....
....|..|--- .... ....|R-- .... ....|--- .... ....
....|..|A#2 2F.7 ....|A#3 3F2F ....|--- .... ....
....|..|A#1 2F.A ....|A#3 3F.F ....|--- .... ....
 A#3|..|A#2 2C.F ....|A#2 4F.F ....|A#4 UFEF ....
 A#3|..|A#1 2A.F ....|G#3 3F.7 ....|R-- .... ....
....|..|A#1 2F.A ....|A#3 3F2F ....|--- .... ....
....|..|--- .... ....|R-- .... ....|--- .... ....
 A#3|..|A#1 2A.F ....|A#3 3F2F ....|F-4 UFEF ....
....|..|A#1 2F.7 ....|A#3 3F.A ....|--- .... ....
....|..|A#2 2F.A ....|A#3 4F.F ....|A#4 UFEA ....
....|..|A#1 2F.A ....|R-- .... ....|R-- .... ....
 A#3|..|A#2 2C.F ....|A#3 3F2F ....|G#4 UFEF ....
 A#3|..|A#1 2A.F ....|R-- .... ....|R-- .... ....
....|..|A#1 2F.A ....|A#3 4F.F ....|A#4 UFEF ....
....|..|--- .... ....|A#3 3F.7 ....|--- .... ....
 A#3|..|A#1 2A.F ....|A#3 3F2F ....|A#4 UFE7 ....
....|..|A#1 2F.7 ....|R-- .... ....|R-- .... ....
....|..|A#2 2F.A ....|A#3 4F.F ....|G#4 UFEA ....
....|..|A#1 2F.A ....|R-- .... ....|R-- .... ....
....|..|A#1 2F.7 ....|A#3 3F2F ....|F-4 UFE7 ....
....|..|--- .... ....|R-- .... ....|--- .... ....
 A#3|..|A#2 2C.F ....|A#3 4F.F ....|R-- .... ....
....|..|R-- .... ....|R-- .... ....|--- .... ....
 A#3|..|A#1 2A.F ....|A#3 3F2F ....|G#4 UFE7 ....
....|..|A#1 2F.7 ....|A#3 3F.F ....|R-- .... ....
....|..|R-- .... ....|A#3 4F.F ....|A#4 UFE7 ....
....|..|--- .... ....|R-- .... ....|--- .... ....
 A#3|..|A#2 2C.F ....|A#3 3F2F ....|--- .... ....
 A#3|..|A#1 2A.F ....|A#3 3F.F ....|--- .... ....
....|..|A#1 2F.A ....|C-4 3F2F ....|R-- .... ....
....|..|--- .... ....|A#3 3F.A ....|--- .... ....
 A#3|..|A#1 2A.F ....|A#2 4F.F ....|A#4 UFEF ....
....|..|--- .... ....|R-- .... ....|--- .... ....
....|..|A#2 2F.7 ....|C-4 3F2F ....|--- .... ....
....|..|A#1 2F.A ....|A#3 3F.A ....|--- .... ....
 A#3|..|A#2 2C.F ....|A#2 4F.F ....|--- .... ....
....|..|R-- .... ....|A#3 3F.7 ....|--- .... ....
....|..|A#1 2F.A ....|C-4 3F2F ....|A#4 UFEA ....
....|..|--- .... ....|R-- .... ....|--- .... ....
 A#3|..|A#1 2A.F ....|C-4 3F2F ....|--- .... ....
....|..|A#1 2F.7 ....|A#3 3F.7 ....|--- .... ....
....|..|A#2 2F.A ....|A#3 4F.F ....|--- .... ....
....|..|R-- .... ....|R-- .... ....|--- .... ....
 A#3|..|A#2 2C.F ....|C-4 3F2F ....|A#4 UFE7 ....
....|..|R-- .... ....|C-4 3F.F ....|--- .... ....
....|..|A#1 2F.A ....|A#3 4F.F ....|--- .... ....
....|..|--- .... ....|R-- .... ....|--- .... ....

[Pattern39]
 A#3|..|A#1 2A.F ....|G#3 3F7F ....|--- .... ....
....|..|R-- .... ....|A#2 4F.F ....|--- .... ....
....|..|A#2 2F.A ....|A#3 4F.F ....|R-- .... ....
....|..|R-- .... ....|C-4 3F.A ....|--- .... ....
....|..|A#1 2F.7 ....|G#3 3F7F ....|--- .... ....
....|..|--- .... ....|A#2 4F.F ....|--- .... ....
 A#3|..|A#2 2C.F ....|A#3 4F8F ....|--- .... ....
....|..|R-- .... ....|A#3 4F.F ....|--- .... ....
 A#3|..|A#1 2A.F ....|G#3 3F7F ....|--- .... ....
....|..|R-- .... ....|G#3 3F.F ....|--- .... ....
....|..|--- .... ....|A#3 4F8F ....|--- .... ....
....|..|--- .... ....|A#3 4F.F ....|--- .... ....
 A#3|..|A#2 2C.F ....|G#3 3F7F ....|--- .... ....
 A#3|..|A#1 2A.F ....|A#2 4F.F ....|--- .... ....
....|..|A#1 2F.A ....|A#3 3F2F ....|--- .... ....
....|..|--- .... ....|A#3 4F.F ....|--- .... ....
 A#3|..|A#1 2A.F ....|A#3 4F8F ....|A#4 UFEF ....
....|..|--- .... ....|A#2 4F.F ....|--- .... ....
....|..|A#2 2F.7 ....|A#3 3F2F ....|--- .... ....
....|..|A#1 2F.A ....|A#3 3F.F ....|R-- .... ....
 A#3|..|A#2 2C.F ....|A#2 4F.F ....|--- .... ....
....|..|R-- .... ....|G#3 3F.7 ....|--- .... ....
....|..|A#1 2F.A ....|A#3 3F2F ....|A#4 UFEA ....
....|..|--- .... ....|A#3 4F.7 ....|--- .... ....
 A#3|..|A#1 2A.F ....|A#3 3F2F ....|--- .... ....
....|..|A#1 2F.7 ....|A#2 4F.F ....|R-- .... ....
....|..|A#2 2F.A ....|A#3 4F.F ....|--- .... ....
....|..|R-- .... ....|A#3 4F.7 ....|--- .... ....
 A#3|..|A#2 2C.F ....|A#3 3F2F ....|A#4 UFE7 ....
 A#3|..|A#1 2A.F ....|A#2 4F.7 ....|--- .... ....
....|..|A#1 2F.A ....|A#3 4F.F ....|--- .... ....
....|..|--- .... ....|A#3 3F.7 ....|R-- .... ....
 A#3|..|A#1 2A.F ....|A#3 3F2F ....|--- .... ....
....|..|R-- .... ....|R-- .... ....|--- .... ....
....|..|A#2 2F.A ....|A#3 4F.F ....|--- .... ....
....|..|A#1 2F.A ....|R-- .... ....|--- .... ....
....|..|A#1 2F.7 ....|A#3 3F2F ....|A#4 UFEF ....
....|..|--- .... ....|A#2 4F.7 ....|R-- .... ....
 A#3|..|A#2 2C.F ....|A#3 4F.F ....|--- .... ....
....|..|R-- .... ....|R-- .... ....|--- .... ....
 A#3|..|A#1 2A.F ....|A#3 3F2F ....|F-4 UFEF ....
....|..|A#1 2F.7 ....|A#3 3F.F ....|R-- .... ....
....|..|R-- .... ....|A#3 4F.F ....|G#4 UFEF ....
....|..|--- .... ....|R-- .... ....|R-- .... ....
 A#3|..|A#2 2C.F ....|A#3 3F2F ....|R-- .... ....
 A#3|..|A#1 2A.F ....|A#3 3F.F ....|--- .... ....
....|..|A#1 2F.A ....|C-4 3F2F ....|A#4 UFEF ....
....|..|--- .... ....|C-4 4F.F ....|R-- .... ....
 A#3|..|A#1 2A.F ....|A#2 4F.F ....|A#4 UFE7 ....
....|..|--- .... ....|R-- .... ....|R-- .... ....
....|..|A#2 2F.7 ....|C-4 3F2F ....|R-- .... ....
....|..|A#1 2F.A ....|A#3 3F.A ....|--- .... ....
 A#3|..|A#2 2C.F ....|A#2 4F.F ....|F-4 UFE7 ....
 A#3|..|A#1 2A.F ....|A#3 3F.7 ....|R-- .... ....
....|..|A#1 2F.A ....|C-4 3F2F ....|G#4 UFE7 ....
....|..|--- .... ....|R-- .... ....|R-- .... ....
 A#3|..|A#1 2A.F ....|C-4 3F2F ....|R-- .... ....
....|..|A#1 2F.7 ....|A#2 4F.F ....|--- .... ....
....|..|A#2 2F.A ....|A#3 4F.F ....|A#4 UFE7 ....
....|..|A#1 2F.A ....|C-4 4F.7 ....|--- .... ....
 A#3|..|A#2 2C.F ....|C-4 3F2F ....|--- .... ....
....|..|R-- .... ....|C-4 3F.F ....|R-- .... ....
....|..|A#1 2F.A ....|A#3 4F.F ....|--- .... ....
....|..|--- .... ....|A#2 4F.A ....|--- .... ....

[Pattern40]
 A#3|..|A#1 2A.F ....|G#3 3F7F ....|C#5 UFEF ....
....|..|A#1 2F.7 ....|R-- .... ....|--- .... ....
....|..|A#2 2F.A ....|A#3 4F.F ....|--- .... ....
....|..|R-- .... ....|C-4 3F.A ....|--- .... ....
....|..|A#1 2F.7 ....|G#3 3F7F ....|--- .... ....
....|..|--- .... ....|A#2 4F.F ....|--- .... ....
 A#3|..|A#2 2C.F ....|A#3 4F.F ....|C#5 UFEA ....
....|..|R-- .... ....|R-- .... ....|--- .... ....
 A#3|..|A#1 2A.F ....|G#3 3F7F ....|--- .... ....
....|..|R-- .... ....|G#3 3F.F ....|--- .... ....
....|..|--- .... ....|A#3 4F.F ....|--- .... ....
....|..|--- .... ....|A#2 4F.A ....|--- .... ....
 A#3|..|A#2 2C.F ....|G#3 3F7F ....|C#5 UFE7 ....
 A#3|..|A#1 2A.F ....|A#2 4F.F ....|--- .... ....
....|..|A#1 2F.A ....|A#3 3F2F ....|--- .... ....
....|..|--- .... ....|G#3 3F.A ....|--- .... ....
 A#3|..|A#1 2A.F ....|A#3 4F8F ....|--- .... ....
....|..|--- .... ....|A#2 4F.F ....|--- .... ....
....|..|A#2 2F.7 ....|A#3 3F2F ....|--- .... ....
....|..|A#1 2F.A ....|A#3 3F.F ....|--- .... ....
....|..|A#1 2F.7 ....|A#3 4F8F ....|--- .... ....
....|..|--- .... ....|A#2 4F.F ....|--- .... ....
 A#3|..|A#2 2C.F ....|A#3 3F2F ....|--- .... ....
....|..|R-- .... ....|A#3 4F.F ....|--- .... ....
 A#3|..|A#1 2A.F ....|A#3 3F2F ....|--- .... ....
....|..|A#1 2F.7 ....|A#2 4F.F ....|--- .... ....
....|..|R-- .... ....|A#3 4F.F ....|--- .... ....
....|..|--- .... ....|A#2 4F.A ....|--- .... ....
 A#3|..|A#2 2C.F ....|A#3 3F2F ....|--- .... ....
....|..|R-- .... ....|A#2 4F.F ....|--- .... ....
....|..|A#1 2F.A ....|A#3 4F.F ....|--- .... ....
....|..|--- .... ....|A#3 3F.7 ....|--- .... ....
 A#3|..|A#1 2A.F ....|A#3 3F2F ....|--- .... ....
....|..|--- .... ....|A#2 4F.F ....|--- .... ....
....|..|A#2 2F.7 ....|A#3 4F.F ....|--- .... ....
....|..|R-- .... ....|A#3 4F.7 ....|--- .... ....
....|..|A#1 2F.7 ....|A#3 3F2F ....|--- .... ....
....|..|--- .... ....|A#2 4F.7 ....|--- .... ....
 A#3|..|A#2 2C.F ....|A#3 4F.F ....|--- .... ....
....|..|R-- .... ....|A#2 4F.A ....|--- .... ....
 A#3|..|A#1 2A.F ....|A#3 3F2F ....|--- .... ....
....|..|R-- .... ....|A#3 3F.F ....|--- .... ....
....|..|--- .... ....|A#3 4F.F ....|--- .... ....
....|..|--- .... ....|R-- .... ....|--- .... ....
 A#3|..|A#2 2C.F ....|A#3 3F2F ....|--- .... ....
....|..|R-- .... ....|A#3 3F.F ....|--- .... ....
....|..|A#1 2F.A ....|C-4 3F2F ....|--- .... ....
....|..|--- .... ....|A#3 3F.A ....|--- .... ....
 A#3|..|A#1 2A.F ....|A#3 4F8F ....|--- .... ....
....|..|--- .... ....|A#2 4F.F ....|--- .... ....
....|..|A#2 2F.7 ....|C-4 3F2F ....|--- .... ....
....|..|R-- .... ....|C-4 4F.F ....|--- .... ....
....|..|A#1 2F.7 ....|A#3 4F8F ....|--- .... ....
....|..|--- .... ....|A#2 4F.F ....|--- .... ....
 A#3|..|A#2 2C.F ....|C-4 3F2F ....|--- .... ....
....|..|R-- .... ....|A#2 4F.A ....|--- .... ....
 A#3|..|A#1 2A.F ....|C-4 3F2F ....|--- .... ....
....|..|R-- .... ....|A#3 3F.7 ....|--- .... ....
....|..|--- .... ....|A#3 4F.F ....|--- .... ....
....|..|--- .... ....|A#2 4F.A ....|--- .... ....
 A#3|..|A#2 2C.F ....|C-4 3F2F ....|--- .... ....
 A#3|..|A#1 2A.F ....|C-4 3F.F ....|--- .... ....
....|..|A#1 2F.A ....|A#3 4F8F ....|--- .... ....
....|..|--- .... ....|A#3 4F.F ....|--- .... ....

[Pattern41]
 A#3|..|A#1 2A.F ....|G#3 3F7F ....|--- .... ....
....|..|--- .... ....|A#2 4F.F ....|--- .... ....
....|..|A#2 2F.7 ....|A#3 4F.F ....|--- .... ....
....|..|A#1 2F.A ....|C-4 3F.A ....|--- .... ....
....|..|A#1 2F.7 ....|G#3 3F7F ....|--- .... ....
....|..|--- .... ....|A#2 4F.F ....|--- .... ....
 A#3|..|A#2 2C.F ....|A#3 4F.F ....|--- .... ....
....|..|R-- .... ....|A#2 4F.A ....|--- .... ....
 A#3|..|A#1 2A.F ....|G#3 3F7F ....|--- .... ....
....|..|A#1 2F.7 ....|G#3 3F.F ....|--- .... ....
....|..|R-- .... ....|A#3 4F8F ....|--- .... ....
....|..|--- .... ....|A#3 4F.F ....|--- .... ....
 A#3|..|A#2 2C.F ....|G#3 3F7F ....|--- .... ....
 A#3|..|A#1 2A.F ....|A#2 4F.7 ....|--- .... ....
....|..|A#1 2F.A ....|A#3 3F2F ....|--- .... ....
....|..|--- .... ....|G#3 3F.A ....|--- .... ....
 A#3|..|A#1 2A.F ....|A#2 4F.F ....|--- .... ....
....|..|--- .... ....|A#2 4F.7 ....|--- .... ....
 A#3|..|A#2 2C.F ....|A#3 3F2F ....|--- .... ....
....|..|A#1 2F.A ....|A#3 3F.F ....|--- .... ....
 A#3|..|A#1 2A.F ....|A#2 4F.F ....|--- .... ....
....|..|--- .... ....|G#3 3F.7 ....|--- .... ....
 A#3|..|A#2 2C.F ....|A#3 3F2F ....|--- .... ....
....|..|R-- .... ....|A#3 4F.7 ....|R-- .... ....
 A#3|..|A#1 2A.F ....|A#3 3F2F ....|--- .... ....
....|..|A#1 2F.7 ....|A#3 3F.A ....|--- .... ....
 A#3|..|A#2 2C.F ....|A#3 4F.F ....|--- .... ....
....|..|R-- .... ....|R-- .... ....|--- .... ....
 A#3|..|A#1 2A.F ....|A#3 3F2F ....|--- .... ....
....|..|R-- .... ....|R-- .... ....|R-- .... ....
 A#3|..|A#2 2C.F ....|A#3 4F.F ....|--- .... ....
....|..|R-- .... ....|A#3 3F.7 ....|--- .... ....
 A#3|..|A#1 2A.F ....|A#2 4F.7 ....|A#3 UFFF ....
....|..|R-- .... ....|--- .... ....|--- .... ....
....|..|A#2 2F.7 ....|A#3 3F27 ....|--- .... ....
....|..|R-- .... ....|R-- .... ....|R-- .... ....
 A#3|..|A#2 2C.F ....|A#3 3F27 ....|--- .... ....
....|..|R-- .... ....|R-- .... ....|--- .... ....
....|..|A#2 2F.7 ....|A#3 4F.7 ....|A#3 UFFA ....
....|..|R-- .... ....|--- .... ....|R-- .... ....
 A#3|..|A#1 2A.F ....|A#3 3F27 ....|A#3 UFFF ....
....|..|--- .... ....|R-- .... ....|--- .... ....
....|..|A#2 2F.7 ....|A#3 4F.7 ....|--- .... ....
....|..|R-- .... ....|R-- .... ....|--- .... ....
 A#3|..|A#2 2C.F ....|--- .... ....|A#3 UFF7 ....
....|..|--- .... ....|--- .... ....|R-- .... ....
....|..|A#1 2F.A ....|--- .... ....|A#3 UFFF ....
....|..|--- .... ....|--- .... ....|R-- .... ....
 A#3|..|A#1 2A.F ....|--- .... ....|D-4 UFFF ....
....|..|--- .... ....|--- .... ....|--- .... ....
....|..|A#2 2F.A ....|--- .... ....|--- .... ....
....|..|--- .... ....|--- .... ....|R-- .... ....
 A#3|..|A#2 2C.F ....|--- .... ....|A#3 UFFF ....
....|..|--- .... ....|--- .... ....|R-- .... ....
....|..|A#1 2F.A ....|--- .... ....|D-4 UFFA ....
....|..|--- .... ....|--- .... ....|R-- .... ....
 A#3|..|A#1 2A.F ....|--- .... ....|D-4 UFFF ....
....|..|--- .... ....|--- .... ....|R-- .... ....
....|..|A#2 2F.A ....|--- .... ....|A#3 UFF7 ....
....|..|--- .... ....|--- .... ....|R-- .... ....
 A#3|..|A#2 2C.F ....|--- .... ....|F-4 UFFF ....
....|..|--- .... ....|--- .... ....|R-- .... ....
....|..|A#1 2F.A ....|--- .... ....|D-4 UFFA ....
....|..|--- .... ....|--- .... ....|--- .... ....

[Pattern45]
 A#3|..|A#1 2A.F ....|A#3 3F6F ....|C-4 UFFF ....
....|..|--- .... ....|A#3 3F57 ....|--- .... ....
....|..|A#2 2F.A ....|A#3 3F1A ....|A#3 UFFA ....
....|..|--- .... ....|R-- .... ....|--- .... ....
 A#3|..|A#2 2C.F ....|--- .... ....|D-4 UFF7 ....
....|..|--- .... ....|--- .... ....|R-- .... ....
....|..|A#1 2F.A ....|A#3 3F6A ....|C-4 UFFA ....
....|..|--- .... ....|--- .... ....|--- .... ....
 A#3|..|A#1 2A.F ....|A#3 3F6F ....|C-4 UFFF ....
....|..|--- .... ....|R-- .... ....|--- .... ....
....|..|A#2 2F.A ....|--- .... ....|R-- .... ....
....|..|--- .... ....|--- .... ....|--- .... ....
 A#3|..|A#2 2C.F ....|A#3 3F67 ....|C-4 UFF7 ....
....|..|--- .... ....|R-- .... ....|R-- .... ....
....|..|A#1 2F.A ....|A#3 3F6F ....|C-4 UFFF ....
....|..|--- .... ....|R-- .... ....|R-- .... ....
 A#3|..|A#1 2A.F ....|A#3 3F6F ....|F-4 UFFF ....
....|..|--- .... ....|--- .... ....|--- .... ....
....|..|A#2 2F.A ....|R-- .... ....|R-- .... ....
....|..|--- .... ....|R-- .... ....|R-- .... ....
 A#3|..|A#2 2C.F ....|A#3 3F6F ....|F-4 UFEF ....
....|..|--- .... ....|R-- .... ....|R-- .... ....
....|..|A#1 2F.A ....|A#3 3F6A ....|C-4 UFEF ....
....|..|--- .... ....|--- .... ....|R-- .... ....
 A#3|..|A#1 2A.F ....|R-- .... ....|D#4 UFEF ....
....|..|--- .... ....|R-- .... ....|R-- .... ....
....|..|A#2 2F.A ....|A#3 3F67 ....|C-4 UFF7 ....
....|..|--- .... ....|R-- .... ....|R-- .... ....
 A#3|..|A#2 2C.F ....|A#3 3F6F ....|F-4 UFEF ....
....|..|--- .... ....|R-- .... ....|R-- .... ....
....|..|A#1 2F.A ....|A#4 4F.F ....|D#4 UFEA ....
....|..|--- .... ....|R-- .... ....|R-- .... ....
 A#3|..|A#1 2A.F ....|A#3 3F1F ....|A#3 UFFF ....
....|..|--- .... ....|--- .... ....|R-- .... ....
....|..|A#2 2F.A ....|A#3 4F7F ....|C-4 UFE7 ....
....|..|--- .... ....|R-- .... ....|R-- .... ....
 A#3|..|A#2 2C.F ....|F-4 4F9F ....|D#4 UFE7 ....
....|..|--- .... ....|A#4 4F.F ....|R-- .... ....
....|..|A#1 2F.A ....|A#3 4F7F ....|A#3 UFFA ....
....|..|--- .... ....|R-- .... ....|R-- .... ....
 A#3|..|A#1 2A.F ....|A#3 3F1F ....|A#3 UFFF ....
....|..|--- .... ....|R-- .... ....|--- .... ....
....|..|A#2 2F.A ....|A#3 4F7F ....|R-- .... ....
....|..|--- .... ....|A#4 4F.A ....|R-- .... ....
 A#3|..|A#2 2C.F ....|D-4 3F2F ....|A#3 UFF7 ....
....|..|--- .... ....|R-- .... ....|R-- .... ....
....|..|A#1 2F.A ....|A#3 3F1F ....|A#3 UFFF ....
....|..|--- .... ....|R-- .... ....|R-- .... ....
 A#3|..|A#1 2A.F ....|A#3 3F1F ....|D-4 UFFF ....
....|..|--- .... ....|D-4 3F2F ....|--- .... ....
....|..|A#2 2F.A ....|F-4 4F9F ....|--- .... ....
....|..|--- .... ....|R-- .... ....|R-- .... ....
 A#3|..|A#2 2C.F ....|A#3 3F1F ....|A#3 UFFF ....
....|..|--- .... ....|R-- .... ....|R-- .... ....
....|..|A#1 2F.A ....|A#3 4F77 ....|D-4 UFFA ....
....|..|--- .... ....|D-4 3F2A ....|R-- .... ....
 A#3|..|A#1 2A.F ....|A#3 4F7F ....|D-4 UFFF ....
....|..|--- .... ....|A#3 4F.F ....|R-- .... ....
....|..|A#2 2F.A ....|A#3 3F17 ....|A#3 UFF7 ....
....|..|--- .... ....|R-- .... ....|R-- .... ....
 A#3|..|A#2 2C.F ....|A#3 3F1F ....|F-4 UFFF ....
....|..|--- .... ....|D-4 3F27 ....|R-- .... ....
....|..|A#1 2F.A ....|F-4 4F9F ....|D-4 UFFA ....
....|..|--- .... ....|A#4 4F.F ....|--- .... ....

[Pattern46]
 A#3|..|A#1 2A.F ....|A#3 3F1F ....|A#4 UFFF ....
....|..|--- .... ....|R-- .... ....|R-- .... ....
....|..|A#2 2F.A ....|F-4 4F9F ....|F-4 UFFA ....
....|..|--- .... ....|R-- .... ....|R-- .... ....
 A#3|..|A#2 2C.F ....|A#3 4F7F ....|D-4 UFF7 ....
....|..|--- .... ....|A#3 4F.7 ....|--- .... ....
....|..|A#1 2F.A ....|A#3 3F1A ....|A#4 UFFA ....
....|..|--- .... ....|R-- .... ....|R-- .... ....
 A#3|..|A#1 2A.F ....|A#3 3F1F ....|A#4 UFFF ....
....|..|--- .... ....|R-- .... ....|--- .... ....
....|..|A#2 2F.A ....|F-4 4F97 ....|R-- .... ....
....|..|--- .... ....|A#4 4F.7 ....|--- .... ....
 A#3|..|A#2 2C.F ....|A#3 3F17 ....|A#4 UFF7 ....
....|..|--- .... ....|R-- .... ....|R-- .... ....
....|..|A#1 2F.A ....|A#3 3F1F ....|A#4 UFFF ....
....|..|--- .... ....|R-- .... ....|R-- .... ....
 A#3|..|A#1 2A.F ....|A#3 3F1F ....|A#4 UFFF ....
....|..|--- .... ....|R-- .... ....|--- .... ....
....|..|A#2 2F.A ....|F-4 4F9F ....|R-- .... ....
....|..|--- .... ....|--- .... ....|R-- .... ....
 A#3|..|A#2 2C.F ....|A#3 3F1F ....|F-4 UFEF ....
....|..|--- .... ....|A#3 3F.F ....|R-- .... ....
....|..|A#1 2F.A ....|A#3 3F1A ....|C-4 UFEF ....
....|..|--- .... ....|R-- .... ....|--- .... ....
 A#3|..|A#1 2A.F ....|F-4 4F9F ....|D#4 UFEF ....
....|..|--- .... ....|--- .... ....|R-- .... ....
....|..|A#2 2F.A ....|A#3 3F17 ....|A#4 UFF7 ....
....|..|--- .... ....|A#3 3F.A ....|R-- .... ....
 A#3|..|A#2 2C.F ....|A#3 3F1F ....|F-4 UFEF ....
....|..|--- .... ....|D-4 3F2F ....|--- .... ....
....|..|A#1 2F.A ....|F-4 4F9F ....|D#4 UFEA ....
....|..|--- .... ....|--- .... ....|R-- .... ....
 A#3|..|A#1 2A.F ....|A#3 3F3F ....|D#4 UFFF ....
....|..|--- .... ....|A#3 3F.7 ....|R-- .... ....
....|..|A#2 2F.A ....|G-4 4F2F ....|C-4 UFE7 ....
....|..|--- .... ....|D-4 3F2A ....|--- .... ....
 A#3|..|A#2 2C.F ....|A#3 4F9F ....|D#4 UFE7 ....
....|..|--- .... ....|A#3 3F4F ....|R-- .... ....
....|..|A#1 2F.A ....|A#3 3F3A ....|D#4 UFFA ....
....|..|--- .... ....|R-- .... ....|R-- .... ....
 A#3|..|A#1 2A.F ....|A#3 3F3F ....|G-4 UFFF ....
....|..|--- .... ....|D-4 3F27 ....|--- .... ....
....|..|A#2 2F.A ....|F-4 4F97 ....|R-- .... ....
....|..|--- .... ....|G-4 4F.F ....|--- .... ....
 A#3|..|A#2 2C.F ....|A#3 4F9F ....|D#4 UFF7 ....
....|..|--- .... ....|R-- .... ....|--- .... ....
....|..|A#1 2F.A ....|A#3 3F3F ....|A#3 UFFF ....
....|..|--- .... ....|R-- .... ....|R-- .... ....
 A#3|..|A#1 2A.F ....|A#3 3F1F ....|D-4 UFFF ....
....|..|--- .... ....|A#3 3F47 ....|--- .... ....
....|..|A#2 2F.A ....|F-4 4F9F ....|R-- .... ....
....|..|R-- .... ....|R-- .... ....|--- .... ....
 A#3|..|A#2 2C.F ....|A#3 3F1F ....|F-4 UFFF ....
....|..|--- .... ....|A#3 3F5F ....|R-- .... ....
....|..|A#1 2F.A ....|A#3 3F1A ....|D-4 UFFA ....
....|..|--- .... ....|G-4 4F.7 ....|--- .... ....
 A#3|..|A#1 2A.F ....|F-4 4F9F ....|D-4 UFFF ....
....|..|R-- .... ....|R-- .... ....|R-- .... ....
....|..|A#2 2F.A ....|A#3 3F37 ....|A#3 UFF7 ....
....|..|--- .... ....|A#3 3F5A ....|R-- .... ....
 A#3|..|A#2 2C.F ....|A#3 3F1F ....|A#3 UFFF ....
....|..|--- .... ....|R-- .... ....|--- .... ....
....|..|A#1 2F.A ....|F-4 4F9F ....|D-4 UFFA ....
....|..|R-- .... ....|R-- .... ....|R-- .... ....

[Pattern47]
 A#3|..|A#1 2A.F ....|A#3 3F6F ....|C-4 UFFF ....
....|..|--- .... ....|A#3 3F57 ....|--- .... ....
....|..|A#2 2F.A ....|F-4 4F9F ....|A#3 UFFA ....
....|..|--- .... ....|R-- .... ....|--- .... ....
 A#3|..|A#2 2C.F ....|C-4 4F2F ....|D-4 UFF7 ....
....|..|--- .... ....|R-- .... ....|R-- .... ....
....|..|A#1 2F.A ....|A#3 3F6A ....|C-4 UFFA ....
....|..|--- .... ....|R-- .... ....|--- .... ....
 A#3|..|A#1 2A.F ....|A#3 3F6F ....|C-4 UFFF ....
....|..|--- .... ....|R-- .... ....|--- .... ....
....|..|A#2 2F.A ....|F-4 4F97 ....|R-- .... ....
....|..|--- .... ....|R-- .... ....|--- .... ....
 A#3|..|A#2 2C.F ....|D#4 4F6F ....|C-4 UFF7 ....
....|..|--- .... ....|R-- .... ....|R-- .... ....
....|..|A#1 2F.A ....|A#3 3F6F ....|C-4 UFFF ....
....|..|--- .... ....|A#4 4F.F ....|R-- .... ....
 A#3|..|A#1 2A.F ....|A#3 3F6F ....|F-4 UFFF ....
....|..|--- .... ....|R-- .... ....|--- .... ....
....|..|A#2 2F.A ....|F-4 4F9F ....|R-- .... ....
....|..|--- .... ....|R-- .... ....|R-- .... ....
 A#3|..|A#2 2C.F ....|A#3 3F6F ....|F-4 UFEF ....
....|..|--- .... ....|A#4 4F.A ....|R-- .... ....
....|..|A#1 2F.A ....|A#3 3F6A ....|C-4 UFEF ....
....|..|--- .... ....|R-- .... ....|--- .... ....
 A#3|..|A#1 2A.F ....|F-4 4F9F ....|D#4 UFEF ....
....|..|--- .... ....|R-- .... ....|R-- .... ....
....|..|A#2 2F.A ....|A#3 3F67 ....|C-4 UFF7 ....
....|..|--- .... ....|A#4 4F.7 ....|R-- .... ....
 A#3|..|A#2 2C.F ....|A#3 3F6F ....|F-4 UFEF ....
....|..|--- .... ....|R-- .... ....|--- .... ....
....|..|A#1 2F.A ....|F-4 4F9F ....|D#4 UFEA ....
....|..|--- .... ....|A#4 4F.F ....|R-- .... ....
 A#3|..|A#1 2A.F ....|A#3 3F1F ....|A#3 UFFF ....
....|..|--- .... ....|R-- .... ....|R-- .... ....
....|..|A#2 2F.A ....|F-4 4F9F ....|C-4 UFE7 ....
....|..|--- .... ....|A#4 4F.F ....|--- .... ....
 A#3|..|A#2 2C.F ....|A#3 4F7F ....|D#4 UFE7 ....
....|..|--- .... ....|D-4 4F.F ....|R-- .... ....
....|..|A#1 2F.A ....|A#3 3F1A ....|A#3 UFFA ....
....|..|--- .... ....|R-- .... ....|R-- .... ....
 A#3|..|A#1 2A.F ....|A#3 3F1F ....|A#3 UFFF ....
....|..|--- .... ....|A#4 4F.A ....|--- .... ....
....|..|A#2 2F.A ....|F-4 4F97 ....|R-- .... ....
....|..|--- .... ....|A#4 4F.7 ....|R-- .... ....
 A#3|..|A#2 2C.F ....|D-4 3F2F ....|A#3 UFF7 ....
....|..|--- .... ....|D-4 4F.F ....|R-- .... ....
....|..|A#1 2F.A ....|A#3 3F1F ....|A#3 UFFF ....
....|..|--- .... ....|A#4 4F.7 ....|R-- .... ....
 A#3|..|A#1 2A.F ....|A#3 3F1F ....|D-4 UFFF ....
....|..|--- .... ....|D-4 3F2F ....|--- .... ....
....|..|A#2 2F.A ....|F-4 4F9F ....|--- .... ....
....|..|R-- .... ....|A#4 4F.F ....|R-- .... ....
 A#3|..|A#2 2C.F ....|A#3 3F1F ....|A#3 UFFF ....
....|..|--- .... ....|R-- .... ....|R-- .... ....
....|..|A#1 2F.A ....|A#3 3F1A ....|D-4 UFFA ....
....|..|--- .... ....|D-4 3F2A ....|R-- .... ....
 A#3|..|A#1 2A.F ....|F-4 4F9F ....|D-4 UFFF ....
....|..|R-- .... ....|D-4 4F.7 ....|R-- .... ....
....|..|A#2 2F.A ....|A#3 3F17 ....|A#3 UFF7 ....
....|..|--- .... ....|R-- .... ....|R-- .... ....
 A#3|..|A#2 2C.F ....|A#3 3F1F ....|F-4 UFFF ....
....|..|--- .... ....|D-4 3F27 ....|R-- .... ....
....|..|A#1 2F.A ....|F-4 4F9F ....|D-4 UFFA ....
....|..|R-- .... ....|A#4 4F.F ....|--- .... ....

[Pattern48]
 A#3|..|A#1 2A.F ....|A#3 3F1F ....|A#4 UFFF ....
....|..|--- .... ....|R-- .... ....|R-- .... ....
....|..|A#2 2F.A ....|F-4 4F9F ....|F-4 UFFA ....
....|..|R-- .... ....|R-- .... ....|R-- .... ....
 A#3|..|A#2 2C.F ....|A#3 4F7F ....|D-4 UFF7 ....
....|..|--- .... ....|A#4 4F.A ....|--- .... ....
....|..|A#1 2F.A ....|A#3 3F1A ....|A#4 UFFA ....
....|..|--- .... ....|R-- .... ....|R-- .... ....
 A#3|..|A#1 2A.F ....|A#3 3F1F ....|A#4 UFFF ....
....|..|R-- .... ....|A#4 4F.F ....|--- .... ....
....|..|A#2 2F.A ....|F-4 4F97 ....|R-- .... ....
....|..|--- .... ....|A#4 4F.7 ....|--- .... ....
 A#3|..|A#2 2C.F ....|F-4 4F9F ....|A#4 UFF7 ....
....|..|--- .... ....|R-- .... ....|R-- .... ....
....|..|A#1 2F.A ....|A#3 3F1F ....|A#4 UFFF ....
....|..|R-- .... ....|A#4 4F.A ....|R-- .... ....
 A#3|..|A#1 2A.F ....|A#3 3F1F ....|A#4 UFFF ....
....|..|--- .... ....|R-- .... ....|--- .... ....
....|..|A#2 2F.A ....|F-4 4F9F ....|R-- .... ....
....|..|--- .... ....|--- .... ....|R-- .... ....
 A#3|..|A#2 2C.F ....|A#3 3F1F ....|F-4 UFFF ....
....|..|--- .... ....|A#3 3F.F ....|R-- .... ....
....|..|A#1 2F.A ....|A#3 3F1A ....|A#4 UFFA ....
....|..|--- .... ....|R-- .... ....|--- .... ....
 A#3|..|A#1 2A.F ....|F-4 4F9F ....|D-4 UFFF ....
....|..|--- .... ....|--- .... ....|R-- .... ....
....|..|A#2 2F.A ....|A#3 3F17 ....|A#4 UFF7 ....
....|..|--- .... ....|A#3 3F.A ....|R-- .... ....
 A#3|..|A#2 2C.F ....|A#3 3F1F ....|A#4 UFEF ....
....|..|--- .... ....|D-4 3F2F ....|--- .... ....
....|..|A#1 2F.A ....|F-4 4F9F ....|D-4 UFFA ....
....|..|--- .... ....|--- .... ....|R-- .... ....
 A#3|..|A#1 2A.F ....|A#3 3F3F ....|D#4 UFFF ....
....|..|--- .... ....|D#4 4F.F ....|--- .... ....
....|..|A#2 2F.A ....|A#3 3F1A ....|A#4 UFEA ....
....|..|--- .... ....|D-4 3F2A ....|--- .... ....
 A#3|..|A#2 2C.F ....|A#3 4F9F ....|D-4 UFF7 ....
....|..|--- .... ....|A#3 3F4F ....|R-- .... ....
....|..|A#1 2F.A ....|A#3 3F3A ....|D#4 UFFA ....
....|..|--- .... ....|D#4 4F.A ....|--- .... ....
 A#3|..|A#1 2A.F ....|A#3 3F3F ....|G-4 UFFF ....
....|..|--- .... ....|D-4 3F27 ....|--- .... ....
....|..|A#2 2F.A ....|F-4 4F97 ....|R-- .... ....
....|..|R-- .... ....|A#3 3F4A ....|--- .... ....
 A#3|..|A#2 2C.F ....|A#3 4FBF ....|D#4 UFF7 ....
....|..|--- .... ....|D#4 4F.7 ....|--- .... ....
....|..|A#1 2F.A ....|A#3 3F3F ....|A#3 UFFF ....
....|..|--- .... ....|R-- .... ....|R-- .... ....
 A#3|..|A#1 2A.F ....|A#3 3F1F ....|D-4 UFFF ....
....|..|R-- .... ....|D-4 4F.F ....|--- .... ....
....|..|A#2 2F.A ....|F-4 4F9F ....|R-- .... ....
....|..|--- .... ....|A#4 4F.F ....|--- .... ....
 A#3|..|A#2 2C.F ....|A#3 3F1F ....|F-4 UFFF ....
....|..|--- .... ....|A#3 3F5F ....|R-- .... ....
....|..|A#1 2F.A ....|A#3 3F1A ....|D-4 UFFA ....
....|..|R-- .... ....|D-4 4F.A ....|--- .... ....
 A#3|..|A#1 2A.F ....|F-4 4F9F ....|D-4 UFFF ....
....|..|--- .... ....|A#4 4F.A ....|R-- .... ....
....|..|A#2 2F.A ....|A#3 3F37 ....|A#3 UFF7 ....
....|..|--- .... ....|A#3 3F5A ....|R-- .... ....
 A#3|..|A#2 2C.F ....|A#3 3F1F ....|A#3 UFFF ....
....|..|--- .... ....|D-4 4F.7 ....|--- .... ....
....|..|A#1 2F.A ....|F-4 4F9F ....|D-4 UFFA ....
....|..|--- .... ....|A#4 4F.7 ....|R-- .... ....

[Pattern49]
 A#3|..|A#1 2A.F ....|A#3 3F6F ....|C-4 UFFF ....
....|..|--- .... ....|D#4 4F.F ....|--- .... ....
....|..|A#2 2F.A ....|F-4 4F9F ....|A#3 UFFA ....
....|..|--- .... ....|R-- .... ....|--- .... ....
 A#3|..|A#2 2C.F ....|A#3 4F9F ....|D-4 UFF7 ....
....|..|--- .... ....|--- .... ....|R-- .... ....
....|..|A#1 2F.A ....|A#3 3F6A ....|C-4 UFFA ....
....|..|--- .... ....|D#4 4F.A ....|--- .... ....
 A#3|..|A#1 2A.F ....|A#3 3F6F ....|C-4 UFFF ....
....|..|--- .... ....|R-- .... ....|--- .... ....
....|..|A#2 2F.A ....|F-4 4F97 ....|R-- .... ....
....|..|--- .... ....|--- .... ....|--- .... ....
 A#3|..|A#2 2C.F ....|A#3 4F9F ....|C-4 UFF7 ....
....|..|--- .... ....|D#4 4F.F ....|R-- .... ....
....|..|A#1 2F.A ....|A#3 3F6F ....|C-4 UFFF ....
....|..|--- .... ....|R-- .... ....|R-- .... ....
 A#3|..|A#1 2A.F ....|A#3 3F6F ....|F-4 UFFF ....
....|..|--- .... ....|D#4 4F.F ....|R-- .... ....
....|..|A#2 2F.A ....|F-4 4F9F ....|R-- .... ....
....|..|--- .... ....|D#4 4F.A ....|R-- .... ....
 A#3|..|A#2 2C.F ....|A#3 3F6F ....|F-4 UFFF ....
....|..|--- .... ....|R-- .... ....|R-- .... ....
....|..|A#1 2F.A ....|F-4 4F9F ....|F-4 UFFA ....
....|..|--- .... ....|A#4 4F.F ....|R-- .... ....
 A#3|..|A#1 2A.F ....|A#3 4F9F ....|D-4 UFFF ....
....|..|--- .... ....|D#4 4F.F ....|R-- .... ....
....|..|A#2 2F.A ....|F-4 4F9F ....|C-4 UFF7 ....
....|..|--- .... ....|R-- .... ....|R-- .... ....
 A#3|..|A#2 2C.F ....|A#3 3F6F ....|C-4 UFFF ....
....|..|--- .... ....|D#4 4F.7 ....|R-- .... ....
....|..|A#1 2F.A ....|F-4 4F9F ....|D-4 UFFA ....
....|..|--- .... ....|A#4 4F.F ....|R-- .... ....
 A#3|..|A#1 2A.F ....|G-4 2FDF ....|F-4 UFF7 ....
....|..|--- .... ....|R-- .... ....|R-- .... ....
....|..|A#2 2F.A ....|F-4 4F97 ....|C-4 UFFA ....
....|..|--- .... ....|A#4 4F.7 ....|--- .... ....
....|..|A#1 2F.7 ....|D#5 2FDF ....|D-4 UFF7 ....
....|..|R-- .... ....|D#4 4F.7 ....|R-- .... ....
....|..|A#1 2F.A ....|F-4 4F97 ....|--- .... ....
....|..|--- .... ....|R-- .... ....|--- .... ....
....|..|A#2 2F.7 ....|A#5 2FDF ....|C-4 UFF7 ....
....|..|--- .... ....|A#5 2FDF ....|--- .... ....
....|..|R-- .... ....|F-4 4F97 ....|R-- .... ....
....|..|R-- .... ....|A#4 4F.7 ....|--- .... ....
....|..|A#1 2F.7 ....|F-4 2FDF ....|--- .... ....
....|..|--- .... ....|--- .... ....|--- .... ....
....|..|--- .... ....|A#5 2FDA ....|--- .... ....
....|..|--- .... ....|A#5 2FDA ....|--- .... ....
....|..|--- .... ....|A-4 2FDF ....|--- .... ....
....|..|R-- .... ....|--- .... ....|--- .... ....
....|..|--- .... ....|F-4 2FDA ....|--- .... ....
....|..|--- .... ....|--- .... ....|--- .... ....
....|..|--- .... ....|F-5 2FDF ....|--- .... ....
....|..|--- .... ....|A#5 2FD7 ....|--- .... ....
....|..|--- .... ....|A-4 2FDA ....|--- .... ....
....|..|--- .... ....|--- .... ....|--- .... ....
....|..|--- .... ....|C-6 2FDF ....|--- .... ....
....|..|--- .... ....|A-4 2FDF ....|--- .... ....
....|..|--- .... ....|F-5 2FDA ....|--- .... ....
....|..|--- .... ....|--- .... ....|--- .... ....
....|..|--- .... ....|A#3 2FDF ....|--- .... ....
....|..|--- .... ....|--- .... ....|--- .... ....
....|..|--- .... ....|C-6 2FDA ....|--- .... ....
....|..|--- .... ....|A-4 2FDA ....|--- .... ....

[Pattern51]
....|..|--- .... ....|F-4 2FDF ....|--- .... ....
....|..|--- .... ....|--- .... ....|--- .... ....
....|..|--- .... ....|A#3 2FDA ....|--- .... ....
....|..|--- .... ....|--- .... ....|--- .... ....
....|..|--- .... ....|D-5 2FDF ....|--- .... ....
....|..|--- .... ....|A-4 2FD7 ....|--- .... ....
....|..|--- .... ....|F-4 2FDA ....|--- .... ....
....|..|--- .... ....|--- .... ....|--- .... ....
....|..|--- .... ....|A#5 2FDF ....|--- .... ....
....|..|--- .... ....|A#5 2FDF ....|--- .... ....
....|..|--- .... ....|D-5 2FDA ....|--- .... ....
....|..|--- .... ....|--- .... ....|--- .... ....
....|..|--- .... ....|G-3 2FDF ....|A#3 UFEF ....
....|..|--- .... ....|--- .... ....|--- .... ....
....|..|--- .... ....|A#5 2FDA ....|R-- .... ....
....|..|--- .... ....|A#5 2FDA ....|--- .... ....
....|..|--- .... ....|D-4 2FDF ....|D-4 UFEF ....
....|..|--- .... ....|--- .... ....|--- .... ....
....|..|--- .... ....|G-3 2FDA ....|A#3 UFEA ....
....|..|--- .... ....|--- .... ....|--- .... ....
....|..|--- .... ....|D-5 2FDF ....|D#4 UFEF ....
....|..|--- .... ....|A#5 2FD7 ....|R-- .... ....
....|..|--- .... ....|D-4 2FDA ....|D-4 UFEA ....
....|..|--- .... ....|--- .... ....|--- .... ....
....|..|--- .... ....|A#5 2FDF ....|D-4 UFEF ....
....|..|--- .... ....|A#5 2FDF ....|--- .... ....
....|..|--- .... ....|D-4 2FDF ....|D#4 UFEA ....
....|..|--- .... ....|R-- .... ....|R-- .... ....
....|..|--- .... ....|D#4 2FDF ....|C-4 UFEF ....
....|..|--- .... ....|--- .... ....|--- .... ....
....|..|--- .... ....|A#5 2FDA ....|D-4 UFEA ....
....|..|--- .... ....|A#5 2FDA ....|--- .... ....
....|..|--- .... ....|G-4 2FDF ....|D#4 UFE7 ....
....|..|--- .... ....|R-- .... ....|R-- .... ....
....|..|--- .... ....|D#4 2FDA ....|C-4 UFEA ....
....|..|--- .... ....|--- .... ....|R-- .... ....
....|..|--- .... ....|D#5 2FDF ....|A#3 UFEF ....
....|..|--- .... ....|A#5 2FD7 ....|--- .... ....
....|..|--- .... ....|D-4 2FD7 ....|R-- .... ....
....|..|--- .... ....|R-- .... ....|--- .... ....
....|..|--- .... ....|A#5 2FDF ....|C-4 UFE7 ....
....|..|--- .... ....|A#5 2FDF ....|R-- .... ....
....|..|--- .... ....|D#5 2FDA ....|A#3 UFEA ....
....|..|--- .... ....|--- .... ....|R-- .... ....
....|..|--- .... ....|F-4 2FDF ....|C-4 UFEF ....
....|..|--- .... ....|--- .... ....|--- .... ....
....|..|--- .... ....|A#5 2FDA ....|--- .... ....
....|..|--- .... ....|A#5 2FDA ....|R-- .... ....
....|..|--- .... ....|A-4 2FDF ....|A#3 UFE7 ....
....|..|--- .... ....|--- .... ....|R-- .... ....
....|..|--- .... ....|F-4 2FDA ....|C-4 UFEA ....
....|..|--- .... ....|--- .... ....|--- .... ....
....|..|--- .... ....|F-5 2FDF ....|--- .... ....
....|..|--- .... ....|A#5 2FD7 ....|--- .... ....
....|..|--- .... ....|A-4 2FDA ....|--- .... ....
....|..|--- .... ....|--- .... ....|R-- .... ....
....|..|--- .... ....|C-6 2FDF ....|C-4 UFE7 ....
....|..|--- .... ....|A-4 2FDF ....|--- .... ....
....|..|--- .... ....|F-5 2FDA ....|--- .... ....
....|..|--- .... ....|--- .... ....|--- .... ....
....|..|--- .... ....|A#3 2FDF ....|--- .... ....
....|..|--- .... ....|--- .... ....|R-- .... ....
....|..|--- .... ....|C-6 2FDA ....|--- .... ....
....|..|--- .... ....|A-4 2FDA ....|--- .... ....

[Pattern52]
....|..|--- .... ....|F-4 2FDF ....|--- .... ....
....|..|--- .... ....|--- .... ....|--- .... ....
....|..|--- .... ....|A#3 2FDA ....|--- .... ....
....|..|--- .... ....|--- .... ....|--- .... ....
....|..|--- .... ....|D-5 2FDF ....|--- .... ....
....|..|--- .... ....|A-4 2FD7 ....|--- .... ....
....|..|--- .... ....|F-4 2FDA ....|--- .... ....
....|..|--- .... ....|--- .... ....|--- .... ....
....|..|--- .... ....|A#5 2FDF ....|--- .... ....
....|..|--- .... ....|A#5 2FDF ....|--- .... ....
....|..|--- .... ....|D-5 2FDA ....|--- .... ....
....|..|--- .... ....|--- .... ....|--- .... ....
....|..|--- .... ....|G-3 2FDF ....|A#3 UFEF ....
....|..|--- .... ....|--- .... ....|--- .... ....
....|..|--- .... ....|A#5 2FDA ....|R-- .... ....
....|..|--- .... ....|A#5 2FDA ....|--- .... ....
....|..|--- .... ....|D-4 2FDF ....|D-4 UFEF ....
....|..|--- .... ....|--- .... ....|--- .... ....
....|..|--- .... ....|G-3 2FDA ....|A#3 UFEA ....
....|..|--- .... ....|--- .... ....|--- .... ....
....|..|--- .... ....|D-5 2FDF ....|D#4 UFEF ....
....|..|--- .... ....|A#5 2FD7 ....|--- .... ....
....|..|--- .... ....|D-4 2FDA ....|D-4 UFEA ....
....|..|--- .... ....|--- .... ....|--- .... ....
....|..|--- .... ....|A#5 2FDF ....|D-4 UFEF ....
....|..|--- .... ....|A#5 2FDF ....|--- .... ....
....|..|--- .... ....|D-4 2FDF ....|D#4 UFEA ....
....|..|--- .... ....|R-- .... ....|--- .... ....
....|..|--- .... ....|D#4 2FDF ....|C-4 UFEF ....
....|..|--- .... ....|--- .... ....|R-- .... ....
....|..|--- .... ....|A#5 2FDA ....|D-4 UFEA ....
....|..|--- .... ....|A#5 2FDA ....|--- .... ....
....|..|--- .... ....|G-4 2FDF ....|C-4 UFEF ....
....|..|--- .... ....|R-- .... ....|--- .... ....
....|..|--- .... ....|D#4 2FDA ....|C-4 UFEA ....
....|..|--- .... ....|--- .... ....|R-- .... ....
....|..|--- .... ....|D#5 2FDF ....|A#3 UFEF ....
....|..|--- .... ....|A#5 2FD7 ....|R-- .... ....
....|..|--- .... ....|D-4 2FD7 ....|C-4 UFEA ....
....|..|--- .... ....|R-- .... ....|--- .... ....
....|..|--- .... ....|A#5 2FDF ....|A#3 UFEF ....
....|..|--- .... ....|A#5 2FDF ....|R-- .... ....
....|..|--- .... ....|D#5 2FDA ....|A#3 UFEA ....
....|..|--- .... ....|--- .... ....|R-- .... ....
....|..|--- .... ....|F-4 2FDF ....|A#3 UFEF ....
....|..|--- .... ....|--- .... ....|--- .... ....
....|..|--- .... ....|A#5 2FDA ....|A#3 UFEA ....
....|..|--- .... ....|A#5 2FDA ....|R-- .... ....
....|..|--- .... ....|A-4 2FDF ....|A#3 UFE7 ....
....|..|--- .... ....|--- .... ....|R-- .... ....
....|..|--- .... ....|F-4 2FDA ....|A#3 UFEA ....
....|..|--- .... ....|--- .... ....|R-- .... ....
....|..|--- .... ....|F-5 2FDF ....|G-3 UFEF ....
....|..|--- .... ....|A#5 2FD7 ....|R-- .... ....
....|..|--- .... ....|A-4 2FDA ....|--- .... ....
....|..|--- .... ....|--- .... ....|--- .... ....
....|..|--- .... ....|C-6 2FDF ....|A#3 UFE7 ....
....|..|--- .... ....|A-4 2FDF ....|R-- .... ....
....|..|--- .... ....|F-5 2FDA ....|G-3 UFEA ....
....|..|--- .... ....|--- .... ....|--- .... ....
....|..|--- .... ....|A#3 2FDF ....|G-3 UFEF ....
....|..|--- .... ....|--- .... ....|--- .... ....
....|..|--- .... ....|C-6 2FDA ....|--- .... ....
....|..|--- .... ....|A-4 2FDA ....|R-- .... ....

[Pattern53]
....|..|--- .... ....|F-4 2FDF ....|G-3 UFE7 ....
....|..|--- .... ....|--- .... ....|--- .... ....
....|..|--- .... ....|A#3 2FDA ....|G-3 UFEA ....
....|..|--- .... ....|--- .... ....|R-- .... ....
....|..|--- .... ....|D-5 2FDF ....|F-3 UFEF ....
....|..|--- .... ....|A-4 2FD7 ....|--- .... ....
....|..|--- .... ....|F-4 2FDA ....|R-- .... ....
....|..|--- .... ....|--- .... ....|--- .... ....
....|..|--- .... ....|A#5 2FDF ....|G-3 UFE7 ....
....|..|--- .... ....|A#5 2FDF ....|R-- .... ....
....|..|--- .... ....|D-5 2FDA ....|F-3 UFEA ....
....|..|--- .... ....|--- .... ....|--- .... ....
....|..|--- .... ....|G-3 2FDF ....|A#3 UFEF ....
....|..|--- .... ....|--- .... ....|--- .... ....
....|..|--- .... ....|A#5 2FDA ....|R-- .... ....
....|..|--- .... ....|A#5 2FDA ....|R-- .... ....
....|..|--- .... ....|D-4 2FDF ....|D-4 UFEF ....
....|..|--- .... ....|--- .... ....|--- .... ....
....|..|--- .... ....|G-3 2FDA ....|A#3 UFEA ....
....|..|--- .... ....|--- .... ....|--- .... ....
....|..|--- .... ....|D-5 2FDF ....|D#4 UFEF ....
....|..|--- .... ....|A#5 2FD7 ....|R-- .... ....
....|..|--- .... ....|D-4 2FDA ....|D-4 UFEA ....
....|..|--- .... ....|--- .... ....|R-- .... ....
....|..|--- .... ....|A#5 2FDF ....|D-4 UFEF ....
....|..|--- .... ....|A#5 2FDF ....|--- .... ....
....|..|--- .... ....|D-4 2FDF ....|D#4 UFEA ....
....|..|--- .... ....|R-- .... ....|R-- .... ....
....|..|--- .... ....|D#4 2FDF ....|C-4 UFEF ....
....|..|--- .... ....|--- .... ....|R-- .... ....
....|..|--- .... ....|A#5 2FDA ....|D-4 UFEA ....
....|..|--- .... ....|A#5 2FDA ....|--- .... ....
....|..|--- .... ....|G-4 2FDF ....|D#4 UFE7 ....
....|..|--- .... ....|R-- .... ....|R-- .... ....
....|..|--- .... ....|D#4 2FDA ....|C-4 UFEA ....
....|..|--- .... ....|--- .... ....|R-- .... ....
....|..|--- .... ....|D#5 2FDF ....|A#3 UFEF ....
....|..|--- .... ....|A#5 2FD7 ....|--- .... ....
....|..|--- .... ....|D-4 2FD7 ....|--- .... ....
....|..|--- .... ....|R-- .... ....|R-- .... ....
....|..|--- .... ....|A#5 2FDF ....|C-4 UFE7 ....
....|..|--- .... ....|A#5 2FDF ....|R-- .... ....
....|..|--- .... ....|D#5 2FDA ....|A#3 UFEA ....
....|..|--- .... ....|--- .... ....|R-- .... ....
....|..|--- .... ....|F-4 2FDF ....|C-4 UFEF ....
....|..|--- .... ....|--- .... ....|--- .... ....
....|..|--- .... ....|A#5 2FDA ....|--- .... ....
....|..|--- .... ....|A#5 2FDA ....|R-- .... ....
....|..|--- .... ....|A-4 2FDF ....|A#3 UFE7 ....
....|..|--- .... ....|--- .... ....|R-- .... ....
....|..|--- .... ....|F-4 2FDA ....|C-4 UFEA ....
....|..|--- .... ....|--- .... ....|--- .... ....
....|..|--- .... ....|F-5 2FDF ....|--- .... ....
....|..|--- .... ....|A#5 2FD7 ....|--- .... ....
....|..|--- .... ....|A-4 2FDA ....|--- .... ....
....|..|--- .... ....|--- .... ....|R-- .... ....
....|..|--- .... ....|C-6 2FDF ....|C-4 UFE7 ....
....|..|--- .... ....|A-4 2FDF ....|--- .... ....
....|..|--- .... ....|F-5 2FDA ....|--- .... ....
....|..|--- .... ....|--- .... ....|--- .... ....
....|..|--- .... ....|A#3 2FDF ....|--- .... ....
....|..|--- .... ....|--- .... ....|R-- .... ....
....|..|--- .... ....|C-6 2FDA ....|--- .... ....
....|..|--- .... ....|A-4 2FDA ....|--- .... ....

[Pattern54]
....|..|--- .... ....|F-4 2FDF ....|--- .... ....
....|..|--- .... ....|--- .... ....|--- .... ....
....|..|--- .... ....|A#3 2FDA ....|--- .... ....
....|..|--- .... ....|--- .... ....|--- .... ....
....|..|--- .... ....|D-5 2FDF ....|--- .... ....
....|..|--- .... ....|A-4 2FD7 ....|--- .... ....
....|..|--- .... ....|F-4 2FDA ....|--- .... ....
....|..|--- .... ....|--- .... ....|--- .... ....
....|..|--- .... ....|A#5 2FDF ....|--- .... ....
....|..|--- .... ....|A#5 2FDF ....|--- .... ....
....|..|--- .... ....|D-5 2FDA ....|--- .... ....
....|..|--- .... ....|--- .... ....|--- .... ....
....|..|--- .... ....|G-3 2FDF ....|A#3 UFEF ....
....|..|--- .... ....|--- .... ....|--- .... ....
....|..|--- .... ....|A#5 2FDA ....|R-- .... ....
....|..|--- .... ....|A#5 2FDA ....|--- .... ....
....|..|--- .... ....|D-4 2FDF ....|D-4 UFEF ....
....|..|--- .... ....|--- .... ....|--- .... ....
....|..|--- .... ....|G-3 2FDA ....|A#3 UFEA ....
....|..|--- .... ....|--- .... ....|--- .... ....
....|..|--- .... ....|D-5 2FDF ....|D#4 UFEF ....
....|..|--- .... ....|A#5 2FD7 ....|--- .... ....
....|..|--- .... ....|D-4 2FDA ....|D-4 UFEA ....
....|..|--- .... ....|--- .... ....|--- .... ....
....|..|--- .... ....|A#5 2FDF ....|D-4 UFEF ....
....|..|--- .... ....|A#5 2FDF ....|--- .... ....
....|..|--- .... ....|D-4 2FDF ....|D#4 UFEA ....
....|..|--- .... ....|R-- .... ....|--- .... ....
....|..|--- .... ....|D#4 2FDF ....|C-4 UFEF ....
....|..|--- .... ....|--- .... ....|R-- .... ....
....|..|--- .... ....|A#5 2FDA ....|D-4 UFEA ....
....|..|--- .... ....|A#5 2FDA ....|--- .... ....
....|..|--- .... ....|G-4 2FDF ....|C-4 UFEF ....
....|..|--- .... ....|R-- .... ....|--- .... ....
....|..|--- .... ....|D#4 2FDA ....|C-4 UFEA ....
....|..|--- .... ....|--- .... ....|R-- .... ....
....|..|--- .... ....|D#5 2FDF ....|A#3 UFEF ....
....|..|--- .... ....|A#5 2FD7 ....|--- .... ....
....|..|--- .... ....|D-4 2FD7 ....|C-4 UFEA ....
....|..|--- .... ....|R-- .... ....|--- .... ....
....|..|--- .... ....|A#5 2FDF ....|A-3 UFEF ....
....|..|--- .... ....|A#5 2FDF ....|R-- .... ....
....|..|--- .... ....|D#5 2FDA ....|A#3 UFEA ....
....|..|--- .... ....|--- .... ....|R-- .... ....
....|..|--- .... ....|F-4 2FDF ....|C-4 UFEF ....
....|..|--- .... ....|--- .... ....|--- .... ....
....|..|--- .... ....|A#5 2FDA ....|A-3 UFEA ....
....|..|--- .... ....|A#5 2FDA ....|--- .... ....
....|..|--- .... ....|A-4 2FDF ....|A#3 UFEF ....
....|..|--- .... ....|--- .... ....|R-- .... ....
....|..|--- .... ....|F-4 2FDA ....|C-4 UFEA ....
....|..|--- .... ....|--- .... ....|--- .... ....
....|..|--- .... ....|F-5 2FDF ....|A-3 UFE7 ....
....|..|--- .... ....|A#5 2FD7 ....|--- .... ....
....|..|--- .... ....|A-4 2FDA ....|A#3 UFEA ....
....|..|--- .... ....|--- .... ....|R-- .... ....
....|..|--- .... ....|C-6 2FDF ....|A-3 UFEF ....
....|..|--- .... ....|A-4 2FDF ....|--- .... ....
....|..|--- .... ....|F-5 2FDA ....|--- .... ....
....|..|--- .... ....|--- .... ....|R-- .... ....
....|..|--- .... ....|A#3 2FDF ....|A#3 UFEF ....
....|..|--- .... ....|--- .... ....|--- .... ....
....|..|--- .... ....|C-6 2FDA ....|A-3 UFEA ....
....|..|--- .... ....|A-4 2FDA ....|--- .... ....

[Pattern55]
....|..|--- .... ....|F-4 2FDF ....|--- .... ....
....|..|--- .... ....|--- .... ....|R-- .... ....
....|..|--- .... ....|A#3 2FDA ....|A#3 UFEA ....
....|..|--- .... ....|--- .... ....|--- .... ....
....|..|--- .... ....|D-5 2FDF ....|A-3 UFE7 ....
....|..|--- .... ....|A-4 2FD7 ....|--- .... ....
....|..|--- .... ....|F-4 2FDA ....|--- .... ....
....|..|--- .... ....|--- .... ....|R-- .... ....
....|..|--- .... ....|A#5 2FDF ....|A#3 UFE7 ....
....|..|--- .... ....|A#5 2FDF ....|--- .... ....
....|..|--- .... ....|D-5 2FDA ....|--- .... ....
....|..|--- .... ....|--- .... ....|--- .... ....
....|..|--- .... ....|G-3 2FDF ....|--- .... ....
....|..|--- .... ....|--- .... ....|--- .... ....
....|..|--- .... ....|A#5 2FDA ....|--- .... ....
....|..|--- .... ....|A#5 2FDA ....|--- .... ....
....|..|--- .... ....|D-4 2FDF ....|--- .... ....
....|..|--- .... ....|--- .... ....|--- .... ....
....|..|--- .... ....|G-3 2FDA ....|--- .... ....
....|..|--- .... ....|--- .... ....|--- .... ....
....|..|--- .... ....|D-5 2FDF ....|--- .... ....
....|..|--- .... ....|A#5 2FD7 ....|--- .... ....
....|..|--- .... ....|D-4 2FDA ....|R-- .... ....
....|..|--- .... ....|--- .... ....|--- .... ....
....|..|--- .... ....|A#5 2FDF ....|--- .... ....
....|..|--- .... ....|A#5 2FDF ....|--- .... ....
....|..|--- .... ....|D-4 2FDF ....|--- .... ....
....|..|--- .... ....|R-- .... ....|--- .... ....
....|..|--- .... ....|D#4 2FDF ....|R-- .... ....
....|..|--- .... ....|--- .... ....|--- .... ....
....|..|--- .... ....|A#5 2FDA ....|--- .... ....
....|..|--- .... ....|A#5 2FDA ....|--- .... ....
....|..|--- .... ....|G-4 2FDF ....|--- .... ....
....|..|--- .... ....|R-- .... ....|--- .... ....
....|..|--- .... ....|D#4 2FDA ....|R-- .... ....
....|..|--- .... ....|--- .... ....|--- .... ....
....|..|--- .... ....|D#5 2FDF ....|--- .... ....
....|..|--- .... ....|A#5 2FD7 ....|--- .... ....
....|..|--- .... ....|D-4 2FD7 ....|--- .... ....
....|..|--- .... ....|R-- .... ....|--- .... ....
....|..|--- .... ....|A#5 2FDF ....|--- .... ....
....|..|--- .... ....|A#5 2FDF ....|--- .... ....
....|..|--- .... ....|D#5 2FDA ....|--- .... ....
....|..|--- .... ....|--- .... ....|--- .... ....
....|..|--- .... ....|F-4 2FDF ....|--- .... ....
....|..|--- .... ....|--- .... ....|--- .... ....
....|..|--- .... ....|A#5 2FDA ....|--- .... ....
....|..|--- .... ....|A#5 2FDA ....|--- .... ....
....|..|--- .... ....|A-4 2FDF ....|--- .... ....
....|..|--- .... ....|--- .... ....|--- .... ....
....|..|--- .... ....|F-4 2FDA ....|--- .... ....
....|..|--- .... ....|--- .... ....|--- .... ....
....|..|--- .... ....|F-5 2FDF ....|--- .... ....
....|..|--- .... ....|A#5 2FD7 ....|--- .... ....
....|..|--- .... ....|A-4 2FDA ....|--- .... ....
....|..|--- .... ....|--- .... ....|--- .... ....
....|..|--- .... ....|C-6 2FDF ....|--- .... ....
....|..|--- .... ....|A-4 2FDF ....|--- .... ....
....|..|--- .... ....|F-5 2FDA ....|--- .... ....
....|..|--- .... ....|--- .... ....|--- .... ....
....|..|--- .... ....|A#3 2FDF ....|--- .... ....
....|..|--- .... ....|--- .... ....|--- .... ....
....|..|--- .... ....|C-6 2FDA ....|--- .... ....
....|..|--- .... ....|A-4 2FDA ....|--- .... ....

[Pattern56]
....|..|--- .... ....|F-4 2FDF ....|--- .... ....
....|..|--- .... ....|--- .... ....|--- .... ....
....|..|--- .... ....|A#3 2FDA ....|--- .... ....
....|..|--- .... ....|--- .... ....|--- .... ....
....|..|--- .... ....|D-5 2FDF ....|--- .... ....
....|..|--- .... ....|A-4 2FD7 ....|--- .... ....
....|..|--- .... ....|F-4 2FDA ....|--- .... ....
....|..|--- .... ....|--- .... ....|--- .... ....
....|..|--- .... ....|A#5 2FDF ....|--- .... ....
....|..|--- .... ....|A#5 2FDF ....|--- .... ....
....|..|--- .... ....|D-5 2FDA ....|--- .... ....
....|..|--- .... ....|--- .... ....|--- .... ....
....|..|--- .... ....|G-3 2FDF ....|A#3 UFEF ....
....|..|--- .... ....|--- .... ....|R-- .... ....
....|..|--- .... ....|A#5 2FDA ....|--- .... ....
....|..|--- .... ....|A#5 2FDA ....|--- .... ....
....|..|--- .... ....|D-4 2FDF ....|D-4 UFEF ....
....|..|--- .... ....|--- .... ....|--- .... ....
....|..|--- .... ....|G-3 2FDA ....|A#3 UFEA ....
....|..|--- .... ....|--- .... ....|R-- .... ....
....|..|--- .... ....|D-5 2FDF ....|D#4 UFEF ....
....|..|--- .... ....|A#5 2FD7 ....|--- .... ....
....|..|--- .... ....|D-4 2FDA ....|D-4 UFEA ....
....|..|--- .... ....|--- .... ....|--- .... ....
....|..|--- .... ....|A#5 2FDF ....|D-4 UFEF ....
....|..|--- .... ....|A#5 2FDF ....|R-- .... ....
....|..|--- .... ....|D-4 2FDF ....|D#4 UFEA ....
....|..|--- .... ....|R-- .... ....|--- .... ....
....|..|--- .... ....|D#4 2FDF ....|C-4 UFEF ....
....|..|--- .... ....|--- .... ....|R-- .... ....
....|..|--- .... ....|A#5 2FDA ....|D-4 UFEA ....
....|..|--- .... ....|A#5 2FDA ....|--- .... ....
....|..|--- .... ....|G-4 2FDF ....|C-4 UFEF ....
....|..|--- .... ....|R-- .... ....|--- .... ....
....|..|--- .... ....|D#4 2FDA ....|C-4 UFEA ....
....|..|--- .... ....|--- .... ....|R-- .... ....
....|..|--- .... ....|D#5 2FDF ....|A#3 UFEF ....
....|..|--- .... ....|A#5 2FD7 ....|--- .... ....
....|..|--- .... ....|D-4 2FD7 ....|C-4 UFEA ....
....|..|--- .... ....|R-- .... ....|--- .... ....
....|..|--- .... ....|A#5 2FDF ....|A-3 UFEF ....
....|..|--- .... ....|A#5 2FDF ....|R-- .... ....
....|..|--- .... ....|D#5 2FDA ....|A#3 UFEA ....
....|..|--- .... ....|--- .... ....|--- .... ....
....|..|--- .... ....|F-4 2FDF ....|C-4 UFEF ....
....|..|--- .... ....|--- .... ....|--- .... ....
....|..|--- .... ....|A#5 2FDA ....|A-3 UFEA ....
....|..|--- .... ....|A#5 2FDA ....|R-- .... ....
....|..|--- .... ....|A-4 2FDF ....|A#3 UFEF ....
....|..|--- .... ....|--- .... ....|--- .... ....
....|..|--- .... ....|F-4 2FDA ....|C-4 UFEA ....
....|..|--- .... ....|--- .... ....|--- .... ....
....|..|--- .... ....|F-5 2FDF ....|A-3 UFEF ....
....|..|--- .... ....|A#5 2FD7 ....|R-- .... ....
....|..|--- .... ....|A-4 2FDA ....|A#3 UFEA ....
....|..|--- .... ....|--- .... ....|--- .... ....
....|..|--- .... ....|C-6 2FDF ....|C-4 UFE7 ....
....|..|--- .... ....|A-4 2FDF ....|--- .... ....
....|..|--- .... ....|F-5 2FDA ....|A-3 UFEA ....
....|..|--- .... ....|--- .... ....|--- .... ....
....|..|--- .... ....|A#3 2FDF ....|C-4 UFEF ....
....|..|--- .... ....|--- .... ....|--- .... ....
....|..|--- .... ....|C-6 2FDA ....|--- .... ....
....|..|--- .... ....|A-4 2FDA ....|--- .... ....

[Pattern57]
....|..|--- .... ....|F-4 2FDF ....|A#3 UFEF ....
....|..|--- .... ....|--- .... ....|--- .... ....
....|..|--- .... ....|A#3 2FDA ....|C-4 UFEA ....
....|..|--- .... ....|--- .... ....|--- .... ....
....|..|--- .... ....|D-5 2FDF ....|--- .... ....
....|..|--- .... ....|A-4 2FD7 ....|--- .... ....
....|..|--- .... ....|F-4 2FDA ....|A#3 UFEA ....
....|..|--- .... ....|--- .... ....|--- .... ....
....|..|--- .... ....|A#5 2FDF ....|C-4 UFE7 ....
....|..|--- .... ....|A#5 2FDF ....|--- .... ....
....|..|--- .... ....|D-5 2FDA ....|--- .... ....
....|..|--- .... ....|--- .... ....|--- .... ....
....|..|--- .... ....|G-3 2FDF ....|A#3 UFE7 ....
....|..|--- .... ....|--- .... ....|--- .... ....
....|..|--- .... ....|A#5 2FDA ....|--- .... ....
....|..|--- .... ....|A#5 2FDA ....|--- .... ....
....|..|--- .... ....|D-4 2FDF ....|--- .... ....
....|..|--- .... ....|--- .... ....|--- .... ....
....|..|--- .... ....|G-3 2FDA ....|--- .... ....
....|..|--- .... ....|--- .... ....|--- .... ....
....|..|--- .... ....|D-5 2FDF ....|--- .... ....
....|..|--- .... ....|A#5 2FD7 ....|--- .... ....
....|..|--- .... ....|D-4 2FDA ....|--- .... ....
....|..|--- .... ....|--- .... ....|--- .... ....
....|..|--- .... ....|A#5 2FDF ....|--- .... ....
....|..|--- .... ....|A#5 2FDF ....|R-- .... ....
....|..|--- .... ....|D-4 2FDF ....|--- .... ....
....|..|--- .... ....|R-- .... ....|--- .... ....
....|..|--- .... ....|D#4 2FDF ....|--- .... ....
....|..|--- .... ....|--- .... ....|--- .... ....
....|..|--- .... ....|A#5 2FDA ....|--- .... ....
....|..|--- .... ....|A#5 2FDA ....|R-- .... ....
....|..|--- .... ....|G-4 2FDF ....|--- .... ....
....|..|--- .... ....|R-- .... ....|--- .... ....
....|..|--- .... ....|D#4 2FDA ....|--- .... ....
....|..|--- .... ....|--- .... ....|--- .... ....
....|..|--- .... ....|D#5 2FDF ....|--- .... ....
....|..|--- .... ....|A#5 2FD7 ....|R-- .... ....
....|..|--- .... ....|D-4 2FD7 ....|--- .... ....
....|..|--- .... ....|R-- .... ....|--- .... ....
....|..|--- .... ....|A#5 2FDF ....|--- .... ....
....|..|--- .... ....|A#5 2FDF ....|--- .... ....
....|..|--- .... ....|D#5 2FDA ....|--- .... ....
....|..|--- .... ....|--- .... ....|--- .... ....
....|..|--- .... ....|F-4 2FDF ....|--- .... ....
....|..|--- .... ....|--- .... ....|--- .... ....
....|..|--- .... ....|A#5 2FDA ....|--- .... ....
....|..|--- .... ....|A#5 2FDA ....|--- .... ....
....|..|--- .... ....|A-4 2FDF ....|--- .... ....
....|..|--- .... ....|--- .... ....|--- .... ....
....|..|--- .... ....|F-4 2FDA ....|--- .... ....
....|..|--- .... ....|--- .... ....|--- .... ....
....|..|--- .... ....|F-5 2FDF ....|--- .... ....
....|..|--- .... ....|A#5 2FD7 ....|--- .... ....
....|..|--- .... ....|A-4 2FDA ....|--- .... ....
....|..|--- .... ....|--- .... ....|--- .... ....
....|..|--- .... ....|C-6 2FDF ....|--- .... ....
....|..|--- .... ....|A-4 2FDF ....|--- .... ....
....|..|--- .... ....|F-5 2FDA ....|--- .... ....
....|..|--- .... ....|--- .... ....|--- .... ....
....|..|--- .... ....|A#3 2FDF ....|--- .... ....
....|..|--- .... ....|--- .... ....|--- .... ....
....|..|--- .... ....|C-6 2FDA ....|--- .... ....
....|..|--- .... ....|A-4 2FDA ....|--- .... ....

[Pattern58]
....|..|--- .... ....|F-4 2FDF ....|--- .... ....
....|..|--- .... ....|--- .... ....|--- .... ....
....|..|--- .... ....|A#3 2FDA ....|--- .... ....
....|..|--- .... ....|--- .... ....|--- .... ....
....|..|--- .... ....|D-5 2FDF ....|--- .... ....
....|..|--- .... ....|A-4 2FD7 ....|--- .... ....
....|..|--- .... ....|F-4 2FDA ....|--- .... ....
....|..|--- .... ....|--- .... ....|--- .... ....
....|..|--- .... ....|A#5 2FDF ....|--- .... ....
....|..|--- .... ....|A#5 2FDF ....|--- .... ....
....|..|--- .... ....|D-5 2FDA ....|--- .... ....
....|..|--- .... ....|--- .... ....|--- .... ....
....|..|--- .... ....|G-3 2FDF ....|A#3 UFEF ....
....|..|--- .... ....|--- .... ....|--- .... ....
....|..|--- .... ....|A#5 2FDA ....|R-- .... ....
....|..|--- .... ....|A#5 2FDA ....|--- .... ....
....|..|--- .... ....|D-4 2FDF ....|D-4 UFEF ....
....|..|--- .... ....|--- .... ....|--- .... ....
....|..|--- .... ....|G-3 2FDA ....|A#3 UFEA ....
....|..|--- .... ....|--- .... ....|--- .... ....
....|..|--- .... ....|D-5 2FDF ....|D#4 UFEF ....
....|..|--- .... ....|A#5 2FD7 ....|--- .... ....
....|..|--- .... ....|D-4 2FDA ....|D-4 UFEA ....
....|..|--- .... ....|--- .... ....|--- .... ....
....|..|--- .... ....|A#5 2FDF ....|D-4 UFEF ....
....|..|--- .... ....|A#5 2FDF ....|--- .... ....
....|..|--- .... ....|D-4 2FDF ....|D#4 UFEA ....
....|..|--- .... ....|R-- .... ....|--- .... ....
....|..|--- .... ....|D#4 2FDF ....|C-4 UFEF ....
....|..|--- .... ....|--- .... ....|R-- .... ....
....|..|--- .... ....|A#5 2FDA ....|D-4 UFEA ....
....|..|--- .... ....|A#5 2FDA ....|--- .... ....
....|..|--- .... ....|G-4 2FDF ....|C-4 UFEF ....
....|..|--- .... ....|R-- .... ....|--- .... ....
....|..|--- .... ....|D#4 2FDA ....|C-4 UFEA ....
....|..|--- .... ....|--- .... ....|R-- .... ....
....|..|--- .... ....|D#5 2FDF ....|A#3 UFEF ....
....|..|--- .... ....|A#5 2FD7 ....|--- .... ....
....|..|--- .... ....|D-4 2FD7 ....|C-4 UFEA ....
....|..|--- .... ....|R-- .... ....|--- .... ....
....|..|--- .... ....|A#5 2FDF ....|A#3 UFEF ....
....|..|--- .... ....|A#5 2FDF ....|R-- .... ....
....|..|--- .... ....|D#5 2FDA ....|A#3 UFEA ....
....|..|--- .... ....|--- .... ....|--- .... ....
....|..|--- .... ....|F-4 2FDF ....|A-3 UFEF ....
....|..|--- .... ....|--- .... ....|R-- .... ....
....|..|--- .... ....|A#5 2FDA ....|A#3 UFEA ....
....|..|--- .... ....|A#5 2FDA ....|--- .... ....
....|..|--- .... ....|A-4 2FDF ....|C-4 UFEF ....
....|..|--- .... ....|--- .... ....|--- .... ....
....|..|--- .... ....|F-4 2FDA ....|A-3 UFEA ....
....|..|--- .... ....|--- .... ....|R-- .... ....
....|..|--- .... ....|F-5 2FDF ....|A#3 UFEF ....
....|..|--- .... ....|A#5 2FD7 ....|--- .... ....
....|..|--- .... ....|A-4 2FDA ....|C-4 UFEA ....
....|..|--- .... ....|--- .... ....|--- .... ....
....|..|--- .... ....|C-6 2FDF ....|A-3 UFEF ....
....|..|--- .... ....|A-4 2FDF ....|R-- .... ....
....|..|--- .... ....|F-5 2FDA ....|A#3 UFEA ....
....|..|--- .... ....|--- .... ....|--- .... ....
....|..|--- .... ....|A#3 2FDF ....|A#3 UFEF ....
....|..|--- .... ....|--- .... ....|--- .... ....
....|..|--- .... ....|C-6 2FDA ....|A-3 UFEA ....
....|..|--- .... ....|A-4 2FDA ....|R-- .... ....

[Pattern59]
....|..|--- .... ....|F-5 2FD7 ....|A#3 UFE7 ....
....|..|--- .... ....|--- .... ....|--- .... ....
....|..|--- .... ....|A#3 2FDA ....|A#3 UFEA ....
....|..|--- .... ....|--- .... ....|R-- .... ....
....|..|--- .... ....|C-6 2FD7 ....|A-3 UFE7 ....
....|..|--- .... ....|A-4 2FD7 ....|R-- .... ....
....|..|--- .... ....|R-- .... ....|--- .... ....
....|..|--- .... ....|--- .... ....|--- .... ....
....|..|--- .... ....|A#3 2FD7 ....|A#3 UFE7 ....
....|..|--- .... ....|--- .... ....|R-- .... ....
....|..|--- .... ....|--- .... ....|--- .... ....
....|..|--- .... ....|--- .... ....|--- .... ....
....|..|--- .... ....|R-- .... ....|--- .... ....
....|..|--- .... ....|--- .... ....|--- .... ....
....|..|--- .... ....|R-- .... ....|--- .... ....
....|..|--- .... ....|--- .... ....|R-- .... ....
....|..|--- .... ....|--- .... ....|--- .... ....
....|..|--- .... ....|--- .... ....|--- .... ....
