[Module]
VortexTrackerII=0
Version=3.5
Title=1d-2me,3p,5m[2]-9m[3]+
Author=oisee ^ 4d 29.05.2010
NoteTable=4
ChipFreq=1750000
Speed=4
PlayOrder=L0,1,2,3,4,5,6,7,8,9,10,11,12,13,14,15,16,17,18,19,20,21,22,23,24,25,26,27,28,29,30


[Ornament1]
L0,0,2,2,5,5

[Ornament2]
L0,0,2,2

[Ornament3]
L0,0,1,1,5,5

[Ornament4]
L0,0,4,4

[Ornament5]
L0,0,2,2,4,4

[Ornament6]
L0,0,4,4,6,6

[Ornament7]
L0,0,2,2,6,6

[Ornament8]
L0,0,3,3,5,5

[Ornament9]
L0,0,4,4,7,7

[Ornament10]
L0,0,3,3,7,7

[Ornament11]
L0,0,4,4,5,5

[Ornament12]
L0,0,3,3

[Ornament13]
L0,0,3,3,6,6

[Ornament14]
L0,0,4,4,8,8

[Ornament15]
L0,0,1,1



[Sample1]
TnE +000_ +00_ F_
TnE +000_ +00_ F_
TnE +000_ +00_ F_
TnE +000_ +00_ D_
TnE +000_ +00_ B_
TnE +000_ +00_ B_ L

[Sample2]
TnE +000_ +00_ F_ L

[Sample3]
TnE +001_ +00_ F_
TnE +002_ +00_ F_
TnE +001_ +00_ E_
TnE +002_ +00_ E_
TnE +000_ +00_ E_ L
TnE -001_ +00_ E_
TnE -002_ +00_ E_
TnE -001_ +00_ E_
TnE +000_ +00_ E_
TnE +001_ +00_ E_
TnE +002_ +00_ E_
TnE +001_ +00_ E_

[Sample4]
TnE +002_ +00_ D_
TnE +002_ +00_ D_
TnE +002_ +00_ C_
TnE +002_ +00_ B_
TnE +002_ +00_ A_ L
TnE +002_ +00_ A_
TnE +002_ +00_ A_
TnE +002_ +00_ A_
TnE +002_ +00_ A_
TnE +002_ +00_ A_
TnE +002_ +00_ A_
TnE +002_ +00_ A_

[Sample5]
TnE +000_ +00_ F_
TnE +000_ +00_ F_
tne +000_ +00_ 0_ L

[Sample6]
TnE -001_ +00_ F_ L

[Sample7]
TnE +006_ +00_ F_ L

[Sample8]
tNe +000_ +00_ F_
tNe +000_ +00_ B_
tNe +000_ +00_ 7_
tNe +000_ +00_ 6- L

[Sample9]
TnE +080_ +00_ F_
TnE +100_ +00_ E_
TnE +180_ +00_ E_
TnE +200_ +00_ E_
TnE +240_ +00_ D_
TnE +280_ +00_ D_
TnE +2C0_ +00_ D_
TnE +300_ +00_ C_
TnE +300_ +00_ C_
TnE +340_ +00_ C_
TnE +340_ +00_ C_
TnE +380_ +00_ B_
TnE +380_ +00_ B_
TnE +400_ +00_ B_
TnE +400_ +00_ B_
TnE +480_ +00_ A_
TnE +500_ +00_ 9_
TnE +580_ +00_ 7_
TnE +600_ +00_ 4_
TnE +680_ +00_ 1_
TnE +000_ +00_ 0_ L

[Sample10]
Tne +1C0_ +00_ F_
Tne +280_ +00_ E_
Tne +380_ +00_ C_
Tne +440_ +00_ A_
Tne +480_ +00_ 8_
TnE +000_ +00_ 0_ L

[Sample11]
TNe +200_ -0A_ F_
tNe +000_ +0F_ A_
TNe +200_ -07_ E_
tNe +000_ +0E_ B- L

[Sample12]
TNE +0A0_ +05_ F_
TNE +140_ +02_ D_
TNE +140_ +02_ B_
TNE +100_ +00_ A_ L
TNE +140_ +00_ A_
TNE +200_ +00_ A-

[Sample13]
Tne +200_ +00_ F_
Tne +2C0_ +00_ F_
Tne +380_ +00_ E_
Tne +500_ +00_ C_
Tne +520_ +00_ 9_
tne +000_ +00_ 0_ L

[Sample14]
TNE -100_ +00_ F_
TNE -100_ +00_ D_
TNE -100_ +00_ A_
TNE -100_ +00_ 5_
tne +000_ +00_ 0_ L

[Sample15]
TNE -100_ +00_ 5_
TNE -100_ +00_ 8_
TNE -100_ +00_ B_
TNE -100_ +00_ F_
TNe -100_ +00_ 9- L

[Sample16]
TnE +000_ +00_ C_
TnE +000_ +00_ E_
TnE +000_ +00_ F_
TnE +000_ +00_ F_
TnE +000_ +00_ E_
TnE +000_ +00_ D_
TnE +000_ +00_ C_
TnE +000_ +00_ C_ L
TnE +001_ +00_ C_
TnE +002_ +00_ C_
TnE +003_ +00_ C_
TnE +001_ +00_ C_
TnE +000_ +00_ C_
TnE -001_ +00_ C_
TnE -002_ +00_ C_
TnE -003_ +00_ C_
TnE -001_ +00_ C_
TnE +000_ +00_ C_
TnE +000_ +00_ C_

[Sample17]
Tne +1C0_ +00_ F_
Tne +280_ +00_ D_
Tne +380_ +00_ 7_
TNE +000_ +00_ 0_ L

[Sample18]
TnE -00C_ +00_ 0_ L

[Sample19]
TNe +000_ +00_ F_
TNe +000_ +00_ C_
TNe +000_ +00_ 6_
TNe +000_ +01_ A- L

[Sample20]
TNE +140_ +00_ F_
tNE +000_ +00_ B- L

[Sample21]
tNE +000_ +00_ D_
tNE +000_ +00_ 8_
tNE +000_ +00_ 1_
TNE +000_ +00_ 0_ L

[Sample22]
TnE +000_ +00_ D_ L
TnE +000_ +00_ D_
tne +000_ +00_ 9_
tne +000_ +00_ 9_
TnE +000_ +00_ D_
TnE +000_ +00_ D_
tne +000_ +00_ 9_
tne +000_ +00_ 9_
TnE +000_ +00_ D_
TnE +000_ +00_ D_
TnE +000_ +00_ D_
TnE +000_ +00_ D_
TnE +000_ +00_ D_
TnE +000_ +00_ D_
tne +000_ +00_ 9_
tne +000_ +00_ 9_

[Sample23]
TnE +000_ +00_ F_ L
TnE +010_ +01_ F_
TnE +010_ +01_ F_
TnE +010_ +01_ F_
TnE +010_ +01_ F_
TnE +000_ +00_ F_
TnE +000_ +00_ F_
TnE -010_ -01_ F_
TnE -010_ -01_ F_
TnE -010_ -01_ F_
TnE -010_ -01_ F_
TnE +000_ +00_ F_

[Sample24]
TNe +000_ -01_ C_
TNe +000_ -01_ D_
TNe +000_ -01_ E_
TNe +000_ -01_ F_
TNe +000_ -01_ F_
TNe +000_ -01_ F_
TNe +000_ -01_ F_
TNe +000_ -01_ F_
TNe +000_ -01_ E_
TNe +000_ -01_ E_
TNe +000_ -01_ E_
TNe +000_ -01_ F_
TNe +000_ -01_ F_ L

[Sample25]
TNE +000_ +00_ F_
TNE +000_ +00_ F_ L
TNE +000_ +00_ F_
TNE +000_ +00_ F_
TNE +000_ +00_ F-

[Sample26]
tne +000_ +00_ 0_ L

[Sample27]
TnE +100_ +05_ F_
TnE +200_ +02_ A_
TnE +300_ +02_ 7_
TNE +400_ +00_ 3- L

[Sample28]
tne +000_ +00_ 0_ L

[Sample29]
tnE +000_ +00_ 0_ L

[Sample30]
TNE +000_ +00_ C+ L

[Sample31]
TNe +1C0_ +00_ F_
Tne +280_ +00_ E_
Tne +380_ +00_ C_
Tne +440_ +00_ A_
Tne +480_ +00_ 8_
TnE +000_ +00_ 0_ L

[Pattern0]
....|..|--- .... ....|--- .... ....|--- .... ....
....|..|--- .... ....|--- .... ....|--- .... ....
....|..|--- .... ....|--- .... ....|--- .... ....
....|..|--- .... ....|--- .... ....|--- .... ....
....|..|--- .... ....|--- .... ....|--- .... ....
....|..|--- .... ....|--- .... ....|--- .... ....
....|..|--- .... ....|--- .... ....|--- .... ....
....|..|--- .... ....|--- .... ....|--- .... ....
....|..|--- .... ....|--- .... ....|--- .... ....
....|..|--- .... ....|--- .... ....|--- .... ....
....|..|--- .... ....|--- .... ....|--- .... ....
....|..|--- .... ....|--- .... ....|--- .... ....
....|..|--- .... ....|--- .... ....|--- .... ....
....|..|--- .... ....|--- .... ....|--- .... ....
....|..|--- .... ....|--- .... ....|--- .... ....
....|..|--- .... ....|--- .... ....|--- .... ....
....|..|--- .... ....|C#4 2F1F ....|--- .... ....
....|..|--- .... ....|--- .... ....|--- .... ....
....|..|--- .... ....|--- .... ....|--- .... ....
....|..|--- .... ....|--- .... ....|--- .... ....
....|..|--- .... ....|--- .... ....|--- .... ....
....|..|--- .... ....|--- .... ....|--- .... ....
....|..|--- .... ....|--- .... ....|--- .... ....
....|..|--- .... ....|--- .... ....|--- .... ....
....|..|--- .... ....|C#4 2F1F ....|--- .... ....
....|..|--- .... ....|--- .... ....|--- .... ....
....|..|--- .... ....|--- .... ....|--- .... ....
....|..|--- .... ....|--- .... ....|--- .... ....
....|..|--- .... ....|--- .... ....|--- .... ....
....|..|--- .... ....|--- .... ....|--- .... ....
....|..|--- .... ....|--- .... ....|--- .... ....
....|..|--- .... ....|C#4 2F.F ....|--- .... ....
....|..|--- .... ....|D#4 2F1F ....|--- .... ....
....|..|--- .... ....|--- .... ....|--- .... ....
....|..|--- .... ....|C#4 2F1A ....|--- .... ....
....|..|--- .... ....|--- .... ....|--- .... ....
....|..|--- .... ....|--- .... ....|--- .... ....
....|..|--- .... ....|--- .... ....|--- .... ....
....|..|--- .... ....|--- .... ....|--- .... ....
....|..|--- .... ....|--- .... ....|--- .... ....
....|..|--- .... ....|D#4 2F1F ....|--- .... ....
....|..|--- .... ....|--- .... ....|--- .... ....
....|..|--- .... ....|C#4 2F1A ....|--- .... ....
....|..|--- .... ....|--- .... ....|--- .... ....
....|..|--- .... ....|--- .... ....|--- .... ....
....|..|--- .... ....|--- .... ....|--- .... ....
....|..|--- .... ....|D#4 2F2F ....|--- .... ....
....|..|--- .... ....|R-- .... ....|--- .... ....
....|..|--- .... ....|D#4 2F3F ....|--- .... ....
....|..|--- .... ....|C#4 2F.A ....|--- .... ....
....|..|--- .... ....|D#4 2F1A ....|--- .... ....
....|..|--- .... ....|--- .... ....|--- .... ....
....|..|--- .... ....|C#4 2F17 ....|--- .... ....
....|..|--- .... ....|--- .... ....|--- .... ....
....|..|--- .... ....|--- .... ....|--- .... ....
....|..|--- .... ....|F#4 2F4F ....|--- .... ....
....|..|--- .... ....|--- .... ....|--- .... ....
....|..|--- .... ....|--- .... ....|--- .... ....
....|..|--- .... ....|D#4 2F1A ....|--- .... ....
....|..|--- .... ....|--- .... ....|--- .... ....
....|..|--- .... ....|C#4 2F17 ....|--- .... ....
....|..|--- .... ....|--- .... ....|--- .... ....
....|..|--- .... ....|--- .... ....|--- .... ....
....|..|--- .... ....|C#4 2F2F ....|--- .... ....
....|..|--- .... ....|D#4 2F2A ....|--- .... ....
....|..|--- .... ....|R-- .... ....|--- .... ....
....|..|--- .... ....|D#4 2F3A ....|--- .... ....
....|..|--- .... ....|C#4 2F.7 ....|--- .... ....
....|..|--- .... ....|D#4 2F17 ....|--- .... ....
....|..|--- .... ....|--- .... ....|--- .... ....
....|..|--- .... ....|--- .... ....|--- .... ....
....|..|--- .... ....|B-3 2F5F ....|--- .... ....
....|..|--- .... ....|--- .... ....|--- .... ....
....|..|--- .... ....|F#4 2F4A ....|--- .... ....
....|..|--- .... ....|--- .... ....|--- .... ....
....|..|--- .... ....|--- .... ....|--- .... ....
....|..|--- .... ....|D#4 2F17 ....|--- .... ....
....|..|--- .... ....|--- .... ....|--- .... ....
....|..|--- .... ....|F#4 2F.F ....|--- .... ....
....|..|--- .... ....|F#3 2F6F ....|--- .... ....
....|..|--- .... ....|--- .... ....|--- .... ....
....|..|--- .... ....|C#4 2F2A ....|--- .... ....
....|..|--- .... ....|D#4 2F27 ....|--- .... ....
....|..|--- .... ....|R-- .... ....|--- .... ....
....|..|--- .... ....|D#4 2F37 ....|--- .... ....
....|..|--- .... ....|--- .... ....|--- .... ....
....|..|--- .... ....|--- .... ....|--- .... ....
....|..|--- .... ....|--- .... ....|--- .... ....
....|..|--- .... ....|--- .... ....|--- .... ....
....|..|--- .... ....|B-3 2F5A ....|--- .... ....
....|..|--- .... ....|--- .... ....|--- .... ....
....|..|--- .... ....|F#4 2F47 ....|--- .... ....
....|..|--- .... ....|--- .... ....|--- .... ....
....|..|--- .... ....|--- .... ....|--- .... ....
....|..|--- .... ....|--- .... ....|--- .... ....
....|..|--- .... ....|F#3 2F4F ....|--- .... ....

[Pattern1]
....|..|--- .... ....|F#4 2F.A ....|--- .... ....
....|..|--- .... ....|F#3 2F6A ....|--- .... ....
....|..|--- .... ....|--- .... ....|--- .... ....
....|..|--- .... ....|C#4 2F27 ....|--- .... ....
....|..|--- .... ....|--- .... ....|--- .... ....
....|..|--- .... ....|--- .... ....|--- .... ....
....|..|--- .... ....|--- .... ....|--- .... ....
....|..|--- .... ....|--- .... ....|--- .... ....
....|..|--- .... ....|--- .... ....|--- .... ....
....|..|--- .... ....|--- .... ....|--- .... ....
....|..|--- .... ....|--- .... ....|--- .... ....
....|..|--- .... ....|B-3 2F57 ....|--- .... ....
....|..|--- .... ....|--- .... ....|--- .... ....
....|..|--- .... ....|--- .... ....|--- .... ....
....|..|--- .... ....|F#3 2F5F ....|--- .... ....
....|..|--- .... ....|G#3 2F2F ....|A#4 3F.F ....
....|..|--- .... ....|G#3 2F2F ....|--- .... ....
....|..|--- .... ....|G#3 2F7F ....|--- .... ....
....|..|--- .... ....|F#4 2F.7 ....|--- .... ....
....|..|--- .... ....|F#3 2F67 ....|--- .... ....
....|..|--- .... ....|--- .... ....|--- .... ....
....|..|--- .... ....|--- .... ....|--- .... ....
....|..|--- .... ....|--- .... ....|--- .... ....
....|..|--- .... ....|--- .... ....|--- .... ....
....|..|--- .... ....|--- .... ....|--- .... ....
....|..|--- .... ....|--- .... ....|--- .... ....
....|..|--- .... ....|--- .... ....|--- .... ....
....|..|--- .... ....|--- .... ....|--- .... ....
....|..|--- .... ....|--- .... ....|--- .... ....
....|..|--- .... ....|--- .... ....|--- .... ....
....|..|--- .... ....|--- .... ....|--- .... ....
....|..|--- .... ....|--- .... ....|--- .... ....
....|..|--- .... ....|F#3 2F5A ....|--- .... ....
....|..|--- .... ....|G#3 2F2A ....|A#4 3F.A ....
....|..|--- .... ....|G#3 2F2A ....|--- .... ....
....|..|--- .... ....|F#3 2F47 ....|--- .... ....
....|..|--- .... ....|--- .... ....|--- .... ....
....|..|--- .... ....|--- .... ....|--- .... ....
....|..|--- .... ....|--- .... ....|--- .... ....
....|..|--- .... ....|--- .... ....|--- .... ....
....|..|--- .... ....|--- .... ....|--- .... ....
....|..|--- .... ....|--- .... ....|--- .... ....
....|..|--- .... ....|--- .... ....|--- .... ....
....|..|--- .... ....|--- .... ....|--- .... ....
....|..|--- .... ....|--- .... ....|--- .... ....
....|..|--- .... ....|--- .... ....|--- .... ....
....|..|--- .... ....|--- .... ....|--- .... ....
....|..|--- .... ....|--- .... ....|--- .... ....
....|..|--- .... ....|--- .... ....|--- .... ....
....|..|--- .... ....|--- .... ....|--- .... ....
....|..|--- .... ....|F#3 2F57 ....|--- .... ....
....|..|--- .... ....|G#3 2F27 ....|A#4 3F.7 ....
....|..|--- .... ....|G#3 2F27 ....|--- .... ....
....|..|--- .... ....|G#3 2F77 ....|--- .... ....
....|..|--- .... ....|--- .... ....|--- .... ....
....|..|--- .... ....|--- .... ....|--- .... ....
....|..|--- .... ....|--- .... ....|--- .... ....
....|..|--- .... ....|--- .... ....|--- .... ....
....|..|--- .... ....|--- .... ....|--- .... ....
....|..|--- .... ....|--- .... ....|--- .... ....
....|..|--- .... ....|--- .... ....|--- .... ....
....|..|--- .... ....|--- .... ....|--- .... ....
....|..|--- .... ....|--- .... ....|--- .... ....
....|..|--- .... ....|--- .... ....|--- .... ....
....|..|--- .... ....|--- .... ....|--- .... ....
....|..|--- .... ....|--- .... ....|--- .... ....
....|..|--- .... ....|--- .... ....|--- .... ....
....|..|--- .... ....|--- .... ....|--- .... ....
....|..|--- .... ....|--- .... ....|--- .... ....
....|..|--- .... ....|--- .... ....|--- .... ....
....|..|--- .... ....|--- .... ....|--- .... ....
....|..|--- .... ....|--- .... ....|--- .... ....
....|..|--- .... ....|--- .... ....|--- .... ....
....|..|--- .... ....|--- .... ....|--- .... ....
....|..|--- .... ....|--- .... ....|--- .... ....
....|..|--- .... ....|--- .... ....|--- .... ....
....|..|--- .... ....|--- .... ....|--- .... ....
....|..|B-8 JF.F ....|G#3 2F2F ....|A#4 3F.F ....
....|..|B-8 JF.F ....|D#2 2F.F ....|R-- .... ....
....|..|--- .... ....|--- .... ....|--- .... ....
....|..|--- .... ....|--- .... ....|--- .... ....
....|..|B-8 JF.F ....|A#3 2F8F ....|--- .... ....
....|..|B-8 JF.F ....|--- .... ....|--- .... ....
....|..|--- .... ....|--- .... ....|--- .... ....
....|..|--- .... ....|--- .... ....|--- .... ....
....|..|B-8 JF.F ....|--- .... ....|--- .... ....
....|..|B-8 JF.F ....|--- .... ....|--- .... ....
....|..|--- .... ....|--- .... ....|--- .... ....
....|..|--- .... ....|--- .... ....|--- .... ....
....|..|B-8 JF.F ....|--- .... ....|--- .... ....
....|..|B-8 JF.F ....|--- .... ....|--- .... ....
....|..|--- .... ....|C#4 2F1F ....|--- .... ....
....|..|--- .... ....|--- .... ....|--- .... ....
....|..|C-3 RF.F ....|D#2 2F.F ....|A-5 2F.F ....
....|..|B-8 JF.F ....|G#2 2F.F ....|--- .... ....
....|..|B-8 JF.A ....|G#3 2F2A ....|A#4 3F.A ....

[Pattern2]
....|..|B-8 JF.A ....|D#2 2F.A ....|R-- .... ....
....|..|B-8 JF.F ....|G#3 2F9F ....|G#5 2F.F ....
....|..|B-8 JF.F ....|--- .... ....|--- .... ....
....|..|B-8 JF.A ....|A#3 2F8A ....|--- .... ....
....|..|B-8 JF.A ....|--- .... ....|--- .... ....
....|..|B-8 JF.F ....|--- .... ....|--- .... ....
....|..|B-8 JF.F ....|--- .... ....|--- .... ....
....|..|B-8 JF.A ....|G#3 2F9F ....|--- .... ....
....|..|B-8 JF.F ....|--- .... ....|--- .... ....
....|..|R-- .... ....|--- .... ....|--- .... ....
....|..|B-8 JF.F ....|--- .... ....|--- .... ....
....|..|B-8 JF.F ....|--- .... ....|--- .... ....
....|..|B-8 JF.F ....|F#4 2F.F ....|R-- .... ....
....|..|--- .... ....|R-- .... ....|F#5 2F.F ....
....|..|B-8 JF.F ....|C#3 2F.F ....|R-- .... ....
....|..|C-3 RF.A ....|D#2 2F.A ....|A-5 2F.A ....
....|..|B-8 JF.F ....|B-3 2F6F ....|D#5 2F.F ....
....|..|B-8 JF.7 ....|G#3 2F27 ....|A#4 3F.7 ....
....|..|B-8 JF.F ....|D#2 2F.7 ....|R-- .... ....
....|..|B-8 JF.A ....|G#3 2F9A ....|G#5 2F.A ....
....|..|B-8 JF.F ....|--- .... ....|--- .... ....
....|..|B-8 JF.7 ....|A#3 2F87 ....|--- .... ....
....|..|B-8 JF.F ....|--- .... ....|--- .... ....
....|..|B-8 JF.A ....|--- .... ....|--- .... ....
....|..|B-8 JF.F ....|--- .... ....|R-- .... ....
....|..|B-8 JF.7 ....|G#3 2F9A ....|--- .... ....
....|..|B-8 JF.F ....|--- .... ....|--- .... ....
....|..|R-- .... ....|B-3 2F6F ....|--- .... ....
....|..|C-3 RF.F ....|C#3 2F.F ....|--- .... ....
....|..|B-8 JF.7 ....|--- .... ....|--- .... ....
....|..|B-8 JF.F ....|F#2 2F.F ....|R-- .... ....
....|..|--- .... ....|C#4 2F17 ....|F#5 2F.A ....
....|..|B-8 JF.F ....|A#3 2FAF ....|R-- .... ....
....|..|C-3 RF.7 ....|D#2 2F.7 ....|A-5 2F.7 ....
....|..|B-8 JF.F ....|G#2 2F.7 ....|D#5 2F.A ....
....|..|--- .... ....|--- .... ....|--- .... ....
....|..|B-8 JF.F ....|--- .... ....|--- .... ....
....|..|B-8 JF.F ....|G#3 2F97 ....|G#5 2F.7 ....
....|..|B-8 JF.7 ....|--- .... ....|--- .... ....
....|..|--- .... ....|--- .... ....|--- .... ....
....|..|B-8 JF.F ....|--- .... ....|--- .... ....
....|..|B-8 JF.F ....|--- .... ....|--- .... ....
....|..|B-8 JF.7 ....|--- .... ....|R-- .... ....
....|..|--- .... ....|C#4 2FBF ....|--- .... ....
....|..|C-3 RF.F ....|G-2 2F.F ....|--- .... ....
....|..|B-8 JF.F ....|C-3 2F.F ....|--- .... ....
....|..|B-8 JF.7 ....|C#3 2F.A ....|C#5 2F.F ....
....|..|B-8 JF.7 ....|--- .... ....|R-- .... ....
....|..|B-8 JF.F ....|A#3 2F1F ....|D#5 2F.F ....
....|..|B-8 JF.F ....|R-- .... ....|F#5 2F.7 ....
....|..|B-8 JF.7 ....|C#3 2F.7 ....|D#5 2F.F ....
....|..|--- .... ....|--- .... ....|--- .... ....
....|..|B-8 JF.F ....|B-3 2F67 ....|C#5 2F.F ....
....|..|B-8 JF.F ....|--- .... ....|D#5 2F.F ....
....|..|B-8 JF.7 ....|--- .... ....|D#6 3F.F ....
....|..|B-8 JF.A ....|--- .... ....|--- .... ....
....|..|B-8 JF.F ....|--- .... ....|--- .... ....
....|..|B-8 JF.F ....|--- .... ....|--- .... ....
....|..|B-8 JF.7 ....|--- .... ....|R-- .... ....
....|..|B-8 JF.A ....|A#3 2F1F ....|--- .... ....
....|..|C-3 RF.F ....|F#2 2F.F ....|R-- .... ....
....|..|B-8 JF.F ....|B-2 2F.F ....|--- .... ....
....|..|B-8 JF.7 ....|G-2 2F.A ....|--- .... ....
....|..|B-8 JF.A ....|B-3 2F67 ....|--- .... ....
....|..|B-8 JF.F ....|A#3 2F3F ....|C#5 2F.A ....
....|..|B-8 JF.F ....|--- .... ....|R-- .... ....
....|..|B-8 JF.7 ....|F#2 2F.7 ....|D#5 2F.A ....
....|..|B-8 JF.A ....|--- .... ....|R-- .... ....
....|..|B-8 JF.F ....|A#3 2FA7 ....|D#5 2F.A ....
....|..|B-8 JF.F ....|--- .... ....|--- .... ....
....|..|B-8 JF.7 ....|--- .... ....|C#5 2F.A ....
....|..|B-8 JF.A ....|--- .... ....|D#5 2F.A ....
....|..|B-8 JF.F ....|--- .... ....|D#6 3F.A ....
....|..|B-8 JF.F ....|--- .... ....|--- .... ....
....|..|R-- .... ....|--- .... ....|--- .... ....
....|..|B-8 JF.A ....|--- .... ....|--- .... ....
....|..|C-3 RF.F ....|F#2 2F.F ....|R-- .... ....
....|..|B-8 JF.F ....|A#2 2F.F ....|--- .... ....
....|..|C-3 RF.A ....|F#2 2F.A ....|--- .... ....
....|..|B-8 JF.A ....|C#4 2FB7 ....|R-- .... ....
....|..|C-5 VF.F ....|G#3 2F7F ....|--- .... ....
....|..|C-3 RF.F ....|C-3 2F.7 ....|--- .... ....
....|..|B-8 JF.A ....|A#3 2F3A ....|C#5 2F.7 ....
....|..|B-8 JF.A ....|--- .... ....|R-- .... ....
....|..|B-8 JF.7 ....|A#3 2F17 ....|D#5 2F.7 ....
....|..|C-5 VF.F ....|--- .... ....|F#5 2F.F ....
....|..|B-8 JF.A ....|--- .... ....|D#5 2F.7 ....
....|..|B-8 JF.A ....|--- .... ....|G#5 2F.F ....
....|..|C-5 VF.F ....|--- .... ....|C#5 2F.7 ....
....|..|C-4 AF.F ....|--- .... ....|A#5 2F.F ....
....|..|B-8 JF.A ....|G#3 2F7F ....|D#6 3F.7 ....
....|..|B-8 JF.A ....|R-- .... ....|A#5 2F.F ....
....|..|C-5 VF.F ....|A#2 2F.F ....|--- .... ....
....|..|C-4 AF.F ....|D#2 2F.F ....|--- .... ....
 A#3|..|A#1 2A.F ....|F#2 2F.A ....|R-- .... ....
 D#4|..|D#2 2A.F ....|A#3 2F17 ....|--- .... ....

[Pattern3]
....|..|C-4 AF.F ....|A#3 2F8F ....|R-- .... ....
....|..|B-8 JF.F ....|B-2 2F.7 ....|G#5 2F.F ....
....|..|C-5 VF.A ....|G#3 2F7A ....|R-- .... ....
....|..|C-3 RF.A ....|--- .... ....|--- .... ....
....|..|B-8 JF.7 ....|A#3 2F37 ....|--- .... ....
....|..|C-5 VF.F ....|--- .... ....|F#5 2F.F ....
....|..|--- .... ....|--- .... ....|--- .... ....
....|..|C-5 VF.A ....|--- .... ....|R-- .... ....
....|..|B-8 JF.7 ....|--- .... ....|--- .... ....
....|..|B-8 JF.F ....|--- .... ....|C#5 2F.F ....
....|..|R-- .... ....|C#4 2F1F ....|R-- .... ....
....|..|C-4 AF.F ....|A#3 2F8F ....|D#5 2F.F ....
 D#4|..|D#2 2A.F ....|R-- .... ....|--- .... ....
....|..|C-4 AF.F ....|G#2 2F.F ....|R-- .... ....
 G#3|..|G#1 2A.F ....|A#2 2F.A ....|--- .... ....
....|..|C-4 AF.F ....|G#3 2F9F ....|D#5 2F.F ....
....|..|C-3 RF.7 ....|F#2 2F.7 ....|--- .... ....
....|..|B-8 JF.F ....|A#2 2F.7 ....|R-- .... ....
....|..|C-4 AF.A ....|A#3 2F8A ....|R-- .... ....
....|..|B-8 JF.A ....|--- .... ....|F#5 2F.F ....
....|..|C-5 VF.7 ....|G#3 2F77 ....|R-- .... ....
....|..|C-5 VF.F ....|--- .... ....|--- .... ....
....|..|R-- .... ....|G#3 2F9F ....|--- .... ....
....|..|C-5 VF.A ....|--- .... ....|R-- .... ....
....|..|--- .... ....|--- .... ....|--- .... ....
....|..|B-8 JF.F ....|--- .... ....|F#5 2F.7 ....
....|..|--- .... ....|--- .... ....|--- .... ....
....|..|C-4 AF.F ....|F#4 2F.F ....|C#5 2F.F ....
 G#4|..|G#2 2A.F ....|R-- .... ....|R-- .... ....
....|..|C-4 AF.F ....|C#3 2F.F ....|G#5 2F.F ....
 C#4|..|C#3 2C.F ....|G#3 2F77 ....|--- .... ....
....|..|C-4 AF.F ....|B-3 2F6F ....|A#5 2F.7 ....
....|..|B-8 JF.F ....|A#2 2F.7 ....|G#5 2F.F ....
....|..|C-4 AF.7 ....|D#2 2F.7 ....|D#5 2F.A ....
....|..|A#1 2F.7 ....|--- .... ....|R-- .... ....
....|..|D#2 2F.7 ....|--- .... ....|F#5 2F.F ....
....|..|C-5 VF.F ....|A#3 2F87 ....|R-- .... ....
....|..|B-8 JF.7 ....|--- .... ....|G#5 2F.7 ....
....|..|--- .... ....|--- .... ....|R-- .... ....
....|..|C-5 VF.A ....|--- .... ....|C#5 2F.F ....
....|..|B-8 JF.F ....|G#3 2F9A ....|R-- .... ....
....|..|C-5 VF.7 ....|--- .... ....|F#5 2F.7 ....
....|..|R-- .... ....|B-3 2F6F ....|D#5 2F.F ....
....|..|C-4 AF.F ....|C#3 2F.F ....|R-- .... ....
....|..|C-4 AF.F ....|F#2 2F.F ....|R-- .... ....
 C#4|..|C#3 2C.F ....|F#4 2F.A ....|C#5 2F.7 ....
 F#4|..|F#2 2A.F ....|C#4 2F17 ....|D#5 2F.F ....
....|..|C-4 AF.F ....|A#3 2FAF ....|D#5 2F.7 ....
....|..|B-8 JF.F ....|R-- .... ....|R-- .... ....
....|..|C-4 AF.7 ....|G#2 2F.7 ....|R-- .... ....
....|..|G#1 2F.7 ....|--- .... ....|D#5 2F.F ....
....|..|C-4 AF.7 ....|G#3 2F97 ....|D#5 2F.7 ....
....|..|C-5 VF.F ....|--- .... ....|R-- .... ....
....|..|B-8 JF.7 ....|--- .... ....|R-- .... ....
....|..|C-5 VF.A ....|--- .... ....|--- .... ....
....|..|--- .... ....|--- .... ....|F#5 2F.7 ....
....|..|B-8 JF.F ....|--- .... ....|--- .... ....
....|..|C-5 VF.7 ....|--- .... ....|C#5 2F.A ....
....|..|R-- .... ....|C#4 2F.F ....|R-- .... ....
....|..|C-4 AF.F ....|G-2 2F.F ....|R-- .... ....
....|..|C-4 AF.F ....|C-3 2F.F ....|C#5 2F.F ....
 G-4|..|G-2 2A.F ....|C#3 2F.A ....|--- .... ....
 C-4|..|C-3 2C.F ....|F#2 2F.A ....|D#5 2F.F ....
....|..|C-4 AF.F ....|A#3 2F1F ....|C#5 2F.7 ....
....|..|B-8 JF.F ....|R-- .... ....|R-- .... ....
....|..|C-4 AF.7 ....|C#3 2F.7 ....|G#5 2F.7 ....
....|..|C#3 2F.7 ....|--- .... ....|F#5 2F.F ....
....|..|C-4 AF.7 ....|B-3 2F67 ....|--- .... ....
....|..|C-5 VF.F ....|--- .... ....|G#5 2F.7 ....
....|..|R-- .... ....|--- .... ....|--- .... ....
....|..|C-5 VF.A ....|--- .... ....|R-- .... ....
....|..|--- .... ....|--- .... ....|F#5 2F.7 ....
....|..|B-8 JF.F ....|--- .... ....|--- .... ....
....|..|--- .... ....|--- .... ....|R-- .... ....
....|..|R-- .... ....|D#4 2FCF ....|A#4 2F.F ....
....|..|C-4 AF.F ....|F#2 2F.F ....|C#5 2F.7 ....
....|..|C-4 AF.F ....|B-2 2F.F ....|C#5 2F.F ....
 F#4|..|F#2 2A.F ....|G-2 2F.A ....|--- .... ....
 B-3|..|B-1 2A.F ....|B-3 2F67 ....|D#5 2F.F ....
....|..|C-4 AF.F ....|A#3 2F3F ....|--- .... ....
....|..|B-8 JF.F ....|F#2 2F.7 ....|R-- .... ....
....|..|C#3 2F.7 ....|A#3 2F1A ....|--- .... ....
....|..|F#2 2F.7 ....|--- .... ....|F#5 2F.F ....
....|..|C-4 AF.7 ....|A#3 2FA7 ....|--- .... ....
....|..|C-5 VF.F ....|--- .... ....|R-- .... ....
....|..|--- .... ....|--- .... ....|--- .... ....
....|..|C-5 VF.A ....|--- .... ....|D#5 2F.7 ....
....|..|--- .... ....|--- .... ....|--- .... ....
....|..|B-8 JF.F ....|--- .... ....|--- .... ....
....|..|--- .... ....|--- .... ....|R-- .... ....
....|..|C-4 AF.F ....|A#3 2F3F ....|F#5 2F.F ....
 B-4|..|B-2 2A.F ....|B-2 2F.F ....|R-- .... ....
....|..|C-4 AF.F ....|A#2 2F.F ....|A#4 2F.A ....
 A#3|..|A#2 2C.F ....|F#2 2F.A ....|R-- .... ....
....|..|C-4 AF.F ....|G#3 2F7F ....|D#5 2F.F ....
....|..|C-4 AF.7 ....|G-2 2F.7 ....|--- .... ....

[Pattern4]
....|..|B-8 JF.F ....|C-3 2F.7 ....|C#5 2F.F ....
....|..|G-2 2F.7 ....|A#3 2F3A ....|R-- .... ....
....|..|C-3 2F.7 ....|--- .... ....|D#5 2F.F ....
....|..|C-4 AF.7 ....|A#3 2F17 ....|--- .... ....
....|..|C-5 VF.F ....|--- .... ....|R-- .... ....
....|..|--- .... ....|--- .... ....|--- .... ....
....|..|C-5 VF.A ....|--- .... ....|C#5 2F.F ....
....|..|--- .... ....|--- .... ....|--- .... ....
....|..|B-8 JF.F ....|--- .... ....|R-- .... ....
....|..|R-- .... ....|G#3 2F7F ....|--- .... ....
....|..|C-4 AF.F ....|A#2 2F.F ....|F#5 2F.F ....
 A#3|..|A#2 2C.F ....|--- .... ....|R-- .... ....
....|..|C-4 AF.F ....|D#3 2F.F ....|F#5 2F.A ....
 D#4|..|D#2 2A.F ....|B-2 2F.A ....|--- .... ....
....|..|C-4 AF.F ....|A#3 2F8F ....|F#5 2F.F ....
....|..|C-4 AF.7 ....|F#2 2F.7 ....|D#5 2F.F ....
....|..|B-8 JF.F ....|B-2 2F.7 ....|C#5 2F.7 ....
....|..|F#2 2F.7 ....|--- .... ....|--- .... ....
....|..|B-1 2F.7 ....|--- .... ....|D#5 2F.7 ....
....|..|C-4 AF.7 ....|A#3 2F37 ....|R-- .... ....
....|..|C-5 VF.F ....|--- .... ....|D#5 2F.F ....
....|..|--- .... ....|--- .... ....|--- .... ....
....|..|C-5 VF.A ....|--- .... ....|D#5 2F.F ....
....|..|--- .... ....|--- .... ....|--- .... ....
....|..|B-8 JF.F ....|--- .... ....|R-- .... ....
....|..|R-- .... ....|C#4 2F1F ....|--- .... ....
....|..|C-5 VF.F ....|C#4 2F.F ....|A-5 2F.F ....
....|..|C-4 AF.F ....|D#2 2F.F ....|--- .... ....
 A#3|..|A#1 2A.F ....|A#2 2F.A ....|F#5 2F.A ....
 D#4|..|D#2 2A.F ....|--- .... ....|--- .... ....
....|..|C-4 AF.F ....|C#4 2F1F ....|F#5 2F.7 ....
....|..|B-8 JF.F ....|B-2 2F.7 ....|R-- .... ....
....|..|C-4 AF.7 ....|A#2 2F.7 ....|G#5 2F.F ....
....|..|A#2 2F.7 ....|--- .... ....|D#5 2F.A ....
....|..|C-4 AF.7 ....|G#3 2F77 ....|G#5 2F.F ....
....|..|C-5 VF.F ....|--- .... ....|--- .... ....
....|..|B-8 JF.7 ....|--- .... ....|C#5 2F.7 ....
....|..|--- .... ....|--- .... ....|R-- .... ....
....|..|C-5 VF.A ....|--- .... ....|G#5 2F.F ....
....|..|B-8 JF.F ....|--- .... ....|--- .... ....
....|..|C-5 VF.7 ....|--- .... ....|R-- .... ....
....|..|R-- .... ....|D#4 2FAF ....|--- .... ....
....|..|C-4 AF.F ....|D#2 2F.F ....|D#5 2F.F ....
....|..|C-4 AF.F ....|G#2 2F.F ....|--- .... ....
 D#4|..|D#2 2A.F ....|C#4 2F.A ....|R-- .... ....
 G#3|..|G#1 2A.F ....|G#3 2F77 ....|D#5 2F.F ....
....|..|C-4 AF.F ....|C-4 2FDF ....|F#5 2F.7 ....
....|..|B-8 JF.F ....|--- .... ....|R-- .... ....
....|..|C-4 AF.7 ....|D#3 2F.7 ....|--- .... ....
....|..|D#2 2F.7 ....|--- .... ....|F#5 2F.F ....
....|..|C-4 AF.7 ....|A#3 2F87 ....|F#5 2F.7 ....
....|..|C-5 VF.F ....|--- .... ....|D#5 2F.7 ....
....|..|B-8 JF.7 ....|C-4 2FDF ....|R-- .... ....
....|..|C-5 VF.A ....|--- .... ....|--- .... ....
....|..|--- .... ....|--- .... ....|G#5 2F.F ....
....|..|B-8 JF.F ....|--- .... ....|--- .... ....
....|..|C-5 VF.7 ....|--- .... ....|D#5 2F.7 ....
....|..|B-8 JF.A ....|D#4 2FAF ....|--- .... ....
....|..|C-4 AF.F ....|G#2 2F.F ....|D#5 2F.7 ....
....|..|C-4 AF.F ....|C#3 2F.F ....|--- .... ....
 G#4|..|G#2 2A.F ....|D#2 2F.A ....|R-- .... ....
 C#4|..|C#3 2C.F ....|C#4 2F17 ....|--- .... ....
....|..|C-4 AF.F ....|B-3 2F6F ....|A-5 2F.7 ....
....|..|B-8 JF.F ....|D#2 2F.7 ....|R-- .... ....
....|..|A#1 2F.7 ....|C-4 2FDA ....|--- .... ....
....|..|D#2 2F.7 ....|--- .... ....|C#5 2F.F ....
....|..|C-4 AF.7 ....|C#4 2F17 ....|--- .... ....
....|..|C-5 VF.F ....|--- .... ....|R-- .... ....
....|..|--- .... ....|--- .... ....|G#5 2F.7 ....
....|..|C-5 VF.A ....|--- .... ....|D#5 2F.F ....
....|..|R-- .... ....|C-4 2FDA ....|G#5 2F.7 ....
....|..|B-8 JF.F ....|--- .... ....|R-- .... ....
....|..|R-- .... ....|B-3 2F6F ....|R-- .... ....
....|..|B-8 JF.A ....|D#4 2F.F ....|F#5 2F.F ....
....|..|C-4 AF.F ....|C#3 2F.F ....|G#5 2F.7 ....
....|..|C-4 AF.F ....|F#2 2F.F ....|D#5 2F.F ....
 C#4|..|C#3 2C.F ....|G#2 2F.A ....|F#5 2F.F ....
 F#4|..|F#2 2A.F ....|D#4 2FA7 ....|F#5 2F.F ....
....|..|C-4 AF.F ....|A#3 2FAF ....|D#5 2F.7 ....
....|..|B-8 JF.F ....|G#2 2F.7 ....|--- .... ....
....|..|D#2 2F.7 ....|B-3 2F6A ....|R-- .... ....
....|..|G#1 2F.7 ....|--- .... ....|D#5 2F.7 ....
....|..|C-4 AF.7 ....|C-4 2FD7 ....|R-- .... ....
....|..|C-5 VF.F ....|--- .... ....|R-- .... ....
....|..|--- .... ....|--- .... ....|--- .... ....
....|..|C-5 VF.A ....|--- .... ....|F#5 2F.7 ....
....|..|--- .... ....|--- .... ....|--- .... ....
....|..|B-8 JF.F ....|--- .... ....|D#5 2F.A ....
....|..|R-- .... ....|C-4 2FD7 ....|R-- .... ....
....|..|C-4 AF.F ....|G-2 2F.F ....|R-- .... ....
 G-4|..|G-2 2A.F ....|B-3 2F6A ....|G#5 2F.7 ....
....|..|C-4 AF.F ....|C-3 2F.F ....|C#5 2F.F ....
 C-4|..|C-3 2C.F ....|C#3 2F.A ....|R-- .... ....
....|..|C-4 AF.F ....|F#3 2F6F ....|D#5 2F.F ....
....|..|C-4 AF.7 ....|G#2 2F.7 ....|F#5 2F.A ....
....|..|B-8 JF.F ....|C#3 2F.7 ....|R-- .... ....

[Pattern5]
....|..|G#2 2F.7 ....|A#3 2FAA ....|--- .... ....
....|..|C#3 2F.7 ....|--- .... ....|F#5 2F.F ....
....|..|C-4 AF.7 ....|B-3 2F67 ....|--- .... ....
....|..|C-5 VF.F ....|--- .... ....|R-- .... ....
....|..|--- .... ....|--- .... ....|R-- .... ....
....|..|C-5 VF.A ....|--- .... ....|C#5 2F.7 ....
....|..|--- .... ....|--- .... ....|R-- .... ....
....|..|B-8 JF.F ....|--- .... ....|R-- .... ....
....|..|--- .... ....|--- .... ....|--- .... ....
....|..|C-4 AF.F ....|F#3 2F.F ....|D#5 2F.7 ....
 F#4|..|F#2 2A.F ....|R-- .... ....|--- .... ....
....|..|C-4 AF.F ....|B-2 2F.F ....|C#5 2F.F ....
 B-3|..|B-1 2A.F ....|B-3 2F67 ....|R-- .... ....
....|..|C-4 AF.F ....|F#3 2FBF ....|D#5 2F.F ....
....|..|C-4 AF.7 ....|C#3 2F.7 ....|R-- .... ....
....|..|B-8 JF.F ....|F#2 2F.7 ....|D#5 2F.7 ....
....|..|C#3 2F.7 ....|--- .... ....|F#5 2F.7 ....
....|..|F#2 2F.7 ....|--- .... ....|F#5 2F.F ....
....|..|C-5 VF.F ....|A#3 2FA7 ....|--- .... ....
....|..|B-8 JF.7 ....|--- .... ....|F#5 2F.A ....
....|..|--- .... ....|--- .... ....|--- .... ....
....|..|C-5 VF.A ....|--- .... ....|R-- .... ....
....|..|B-8 JF.F ....|--- .... ....|R-- .... ....
....|..|C-5 VF.7 ....|--- .... ....|--- .... ....
....|..|--- .... ....|--- .... ....|R-- .... ....
....|..|C-4 AF.F ....|F#3 2F4F ....|F#5 2F.F ....
....|..|C-4 AF.F ....|A#2 2F.F ....|--- .... ....
 B-4|..|B-2 2A.F ....|F#3 2F.A ....|--- .... ....
 A#3|..|A#2 2C.F ....|R-- .... ....|--- .... ....
....|..|C-4 AF.F ....|G#3 2F7F ....|C#5 2F.A ....
....|..|B-8 JF.F ....|--- .... ....|F#5 2F.F ....
....|..|C-4 AF.7 ....|C-3 2F.7 ....|D#5 2F.F ....
....|..|C-3 2F.7 ....|--- .... ....|R-- .... ....
....|..|C-4 AF.7 ....|F#3 2F67 ....|D#5 2F.7 ....
....|..|C-5 VF.F ....|--- .... ....|C#5 2F.F ....
....|..|B-8 JF.7 ....|--- .... ....|R-- .... ....
....|..|C-5 VF.A ....|--- .... ....|R-- .... ....
....|..|R-- .... ....|--- .... ....|D#5 2F.F ....
....|..|B-8 JF.F ....|--- .... ....|R-- .... ....
....|..|C-5 VF.7 ....|--- .... ....|R-- .... ....
....|..|R-- .... ....|F#4 2F.F ....|F#5 2F.F ....
....|..|C-4 AF.F ....|A#2 2F.F ....|--- .... ....
....|..|C-4 AF.F ....|D#3 2F.F ....|R-- .... ....
 A#3|..|A#2 2C.F ....|F#3 2F4A ....|F#5 2F.A ....
 D#4|..|D#2 2A.F ....|A#2 2F.A ....|--- .... ....
....|..|C-4 AF.F ....|A#3 2F8F ....|D#5 2F.F ....
....|..|B-8 JF.F ....|R-- .... ....|--- .... ....
....|..|C-4 AF.7 ....|B-2 2F.7 ....|C#5 2F.7 ....
....|..|B-1 2F.7 ....|--- .... ....|R-- .... ....
....|..|C-4 AF.7 ....|F#3 2FB7 ....|D#5 2F.7 ....
....|..|C-4 BF.F ....|A#3 2F8F ....|R-- .... ....
....|..|B-8 JF.7 ....|--- .... ....|R-- .... ....
....|..|C-5 VF.A ....|--- .... ....|C#5 2F.A ....
....|..|--- .... ....|A#3 2F8F ....|F#5 2F.7 ....
....|..|B-8 JF.F ....|A#3 2F8F ....|R-- .... ....
....|..|R-- .... ....|--- .... ....|D#5 2F.A ....
....|..|B-8 JF.A ....|--- .... ....|R-- .... ....
....|..|C-5 VF.F ....|G-2 2F.F ....|C#5 2F.F ....
....|..|C-4 AF.F ....|G#2 2F.F ....|D#5 2F.F ....
 G#3|..|G#1 2A.F ....|A#2 2F.A ....|--- .... ....
....|..|C-4 AF.A ....|D#3 2F.A ....|F#5 2F.F ....
....|..|C-4 AF.F ....|F#3 2F6F ....|F#5 2F.7 ....
....|..|B-8 JF.F ....|A#2 2F.7 ....|D#5 2F.F ....
....|..|B-2 2F.7 ....|A#3 2F8A ....|D#5 2F.A ....
....|..|A#2 2F.7 ....|--- .... ....|C#5 2F.F ....
....|..|C-4 AF.7 ....|G#3 2F77 ....|R-- .... ....
....|..|C-4 BF.F ....|--- .... ....|A#4 2F.F ....
....|..|R-- .... ....|F#3 2F6F ....|D#5 2F.7 ....
....|..|C-4 BF.A ....|A#3 2F8A ....|R-- .... ....
....|..|R-- .... ....|--- .... ....|A#4 2F.F ....
....|..|B-8 JF.F ....|--- .... ....|C#5 2F.7 ....
....|..|--- .... ....|A#3 2F8A ....|--- .... ....
....|..|B-8 JF.A ....|D#4 2F.F ....|G#4 2F.F ....
....|..|C-4 AF.F ....|G#2 2F.F ....|D#5 2F.7 ....
....|..|C-4 AF.F ....|C#3 2F.F ....|R-- .... ....
 G#3|..|G#1 2A.F ....|G-2 2F.A ....|C#5 2F.A ....
 C#4|..|C#2 2A.F ....|B-3 2F6F ....|F#4 2F.F ....
....|..|C-4 AF.F ....|A#2 2F.7 ....|R-- .... ....
....|..|B-8 JF.F ....|D#3 2F.7 ....|F#4 2F.F ....
....|..|A#2 2F.7 ....|F#3 2F6A ....|--- .... ....
....|..|D#2 2F.7 ....|--- .... ....|D#5 2F.A ....
....|..|C-4 AF.7 ....|A#3 2F87 ....|D#5 2F.7 ....
....|..|C-4 BF.F ....|--- .... ....|R-- .... ....
....|..|--- .... ....|--- .... ....|R-- .... ....
....|..|C-4 BF.A ....|--- .... ....|A#4 2F.A ....
....|..|R-- .... ....|F#3 2F6A ....|--- .... ....
....|..|B-8 JF.F ....|A#3 2F87 ....|--- .... ....
....|..|R-- .... ....|B-3 2F6F ....|R-- .... ....
....|..|C-4 AF.F ....|C#2 2F.F ....|C#5 2F.F ....
 C#4|..|C#2 2A.F ....|A#3 2F87 ....|--- .... ....
....|..|C-4 AF.F ....|F#2 2F.F ....|D#5 2F.F ....
 F#3|..|F#1 2A.F ....|G#2 2F.A ....|--- .... ....
....|..|C-4 AF.F ....|A#3 2FAF ....|F#5 2F.F ....
....|..|C-5 VF.7 ....|G-2 2F.7 ....|F#5 2F.F ....
....|..|B-8 JF.F ....|G#2 2F.7 ....|D#5 2F.F ....
....|..|G#1 2F.7 ....|--- .... ....|R-- .... ....

[Pattern6]
....|..|B-8 JF.A ....|--- .... ....|C#5 2F.F ....
....|..|C-4 AF.7 ....|F#3 2F67 ....|R-- .... ....
....|..|C-4 BF.F ....|--- .... ....|A#4 2F.F ....
....|..|--- .... ....|--- .... ....|--- .... ....
....|..|C-4 BF.A ....|--- .... ....|C#5 2F.7 ....
....|..|--- .... ....|--- .... ....|A#4 2F.F ....
....|..|B-8 JF.F ....|A#3 2FAF ....|A#4 2F.7 ....
....|..|R-- .... ....|C#4 2FBF ....|--- .... ....
....|..|C-4 AF.F ....|A#3 2F.F ....|G#4 2F.F ....
 G-3|..|G-1 2A.F ....|G-2 2F.F ....|A#4 2F.7 ....
....|..|C-4 AF.F ....|C-3 2F.F ....|C#5 2F.A ....
 C-4|..|C-2 2A.F ....|--- .... ....|R-- .... ....
....|..|C-4 AF.F ....|A#3 2F1F ....|A#4 2F.F ....
....|..|B-8 JF.F ....|G#2 2F.7 ....|R-- .... ....
....|..|C-4 AF.7 ....|C#3 2F.7 ....|A#4 2F.F ....
....|..|G#1 2F.7 ....|--- .... ....|F#5 2F.A ....
....|..|C#2 2F.7 ....|B-3 2F67 ....|F#4 2F.7 ....
....|..|C-4 BF.F ....|--- .... ....|R-- .... ....
....|..|B-8 JF.7 ....|--- .... ....|F#4 2F.7 ....
....|..|--- .... ....|--- .... ....|R-- .... ....
....|..|C-4 BF.A ....|--- .... ....|A#4 2F.A ....
....|..|B-8 JF.F ....|--- .... ....|--- .... ....
....|..|C-4 BF.7 ....|A#3 2F1F ....|R-- .... ....
....|..|--- .... ....|C-4 2FDF ....|A#4 2F.A ....
....|..|C-4 AF.F ....|C-2 2F.F ....|C#5 2F.F ....
....|..|C-4 AF.F ....|B-2 2F.F ....|D#5 2F.F ....
 C-4|..|C-2 2A.F ....|A#3 2F.A ....|G#4 2F.A ....
 B-3|..|B-1 2A.F ....|B-3 2F67 ....|F#5 2F.F ....
....|..|C-4 AF.F ....|A#3 2F3F ....|C#5 2F.7 ....
....|..|B-8 JF.F ....|--- .... ....|D#5 2F.F ....
....|..|C-4 AF.7 ....|F#2 2F.7 ....|D#5 2F.7 ....
....|..|F#1 2F.7 ....|--- .... ....|C#5 2F.F ....
....|..|C-4 AF.7 ....|A#3 2FA7 ....|F#5 2F.7 ....
....|..|C-4 BF.F ....|--- .... ....|A#4 2F.F ....
....|..|B-8 JF.7 ....|--- .... ....|D#5 2F.7 ....
....|..|C-4 BF.A ....|--- .... ....|R-- .... ....
....|..|R-- .... ....|--- .... ....|C#5 2F.7 ....
....|..|B-8 JF.F ....|--- .... ....|A#4 2F.F ....
....|..|C-4 BF.7 ....|--- .... ....|A#4 2F.7 ....
....|..|R-- .... ....|B-3 2F9F ....|G#4 2F.F ....
....|..|C-4 AF.F ....|B-1 2F.F ....|R-- .... ....
....|..|C-4 AF.F ....|A#2 2F.F ....|A#4 2F.7 ....
 B-3|..|B-1 2A.F ....|A#3 2FA7 ....|C#5 2F.A ....
 A#3|..|A#1 2A.F ....|C#4 2FB7 ....|D#5 2F.A ....
....|..|C-4 AF.F ....|G#3 2F7F ....|G#4 2F.7 ....
....|..|B-8 JF.F ....|G-2 2F.7 ....|A#4 2F.F ....
....|..|C-4 AF.7 ....|C-3 2F.7 ....|--- .... ....
....|..|C-2 2F.7 ....|--- .... ....|R-- .... ....
....|..|C-4 AF.7 ....|A#3 2F17 ....|C#5 2F.F ....
....|..|C-4 BF.F ....|--- .... ....|R-- .... ....
....|..|R-- .... ....|--- .... ....|A#4 2F.7 ....
....|..|C-4 BF.A ....|--- .... ....|D#5 2F.F ....
....|..|--- .... ....|--- .... ....|--- .... ....
....|..|B-8 JF.F ....|G#3 2F7F ....|R-- .... ....
....|..|R-- .... ....|--- .... ....|R-- .... ....
....|..|B-8 JF.A ....|D-4 2F4F ....|A#4 2F.A ....
....|..|C-4 AF.F ....|A#2 2F.F ....|--- .... ....
....|..|C-4 AF.F ....|D#3 2F.F ....|G#4 2F.A ....
 A#3|..|A#1 2A.F ....|A#3 2F17 ....|--- .... ....
 D#4|..|D#2 2A.F ....|C-4 2FD7 ....|--- .... ....
....|..|C-4 AF.F ....|A#3 2F8F ....|C#5 2F.7 ....
....|..|B-8 JF.F ....|B-2 2F.7 ....|A#5 2F.F ....
....|..|C-2 2F.7 ....|G#3 2F7A ....|--- .... ....
....|..|B-1 2F.7 ....|--- .... ....|F#5 2F.7 ....
....|..|C-4 AF.7 ....|A#3 2F37 ....|--- .... ....
....|..|C-4 BF.F ....|--- .... ....|D#5 2F.7 ....
....|..|--- .... ....|--- .... ....|C#5 2F.A ....
....|..|C-4 BF.A ....|--- .... ....|C#5 2F.7 ....
....|..|--- .... ....|--- .... ....|R-- .... ....
....|..|B-8 JF.F ....|--- .... ....|A#4 2F.7 ....
....|..|R-- .... ....|A#3 2F8F ....|--- .... ....
....|..|B-8 JF.A ....|R-- .... ....|--- .... ....
....|..|C-4 AF.F ....|A#2 2F.F ....|R-- .... ....
....|..|C-4 AF.F ....|D#3 2F.F ....|A#4 2F.7 ....
 A#3|..|A#1 2A.F ....|A#2 2F.A ....|R-- .... ....
....|..|C-4 AF.F ....|A#3 2F8F ....|G#5 2F.F ....
 D#4|..|D#2 2A.F ....|B-1 2F.7 ....|--- .... ....
....|..|B-8 JF.F ....|A#2 2F.7 ....|R-- .... ....
....|..|B-1 2F.7 ....|A#3 2F8A ....|F#5 2F.F ....
....|..|A#1 2F.7 ....|--- .... ....|A#5 2F.A ....
....|..|C-4 AF.7 ....|G#3 2F77 ....|G#5 2F.F ....
....|..|C-4 BF.F ....|--- .... ....|A#4 2F.7 ....
....|..|--- .... ....|A#3 2F8F ....|F#5 2F.F ....
....|..|C-4 BF.A ....|--- .... ....|R-- .... ....
....|..|--- .... ....|--- .... ....|C#5 2F.7 ....
....|..|B-8 JF.F ....|--- .... ....|G#5 2F.F ....
....|..|R-- .... ....|C#4 2F1F ....|R-- .... ....
....|..|C-4 AF.F ....|D#4 2FCF ....|D#5 2F.7 ....
 D#4|..|D#2 2A.F ....|D#2 2F.F ....|--- .... ....
....|..|C-4 AF.F ....|G#2 2F.F ....|--- .... ....
 G#3|..|G#1 2A.F ....|A#2 2F.A ....|R-- .... ....
....|..|C-4 AF.F ....|F#3 2F6F ....|--- .... ....
....|..|C-4 AF.7 ....|A#2 2F.7 ....|R-- .... ....
....|..|B-8 JF.F ....|D#3 2F.7 ....|F#5 2F.F ....
....|..|A#1 2F.7 ....|--- .... ....|R-- .... ....
....|..|D#2 2F.7 ....|--- .... ....|G#5 2F.F ....

[Pattern7]
....|..|C-4 AF.7 ....|A#3 2F87 ....|F#5 2F.F ....
....|..|C-4 BF.F ....|--- .... ....|F#5 2F.F ....
....|..|R-- .... ....|F#3 2F6F ....|G#5 2F.A ....
....|..|C-4 BF.A ....|--- .... ....|R-- .... ....
....|..|--- .... ....|A#3 2F8A ....|F#5 2F.A ....
....|..|B-8 JF.F ....|--- .... ....|--- .... ....
....|..|--- .... ....|A#3 2F1F ....|R-- .... ....
....|..|C-4 AF.F ....|G#2 2F.F ....|G#5 2F.A ....
....|..|C-4 AF.F ....|R-- .... ....|--- .... ....
 G#3|..|G#1 2A.F ....|C#3 2F.F ....|--- .... ....
 C#4|..|C#2 2A.F ....|A#3 2F87 ....|--- .... ....
....|..|C-4 AF.F ....|B-3 2F6F ....|D#5 2F.F ....
....|..|B-8 JF.F ....|A#2 2F.7 ....|D#5 2F.F ....
....|..|C-4 AF.7 ....|D#3 2F.7 ....|--- .... ....
....|..|A#1 2F.7 ....|--- .... ....|R-- .... ....
....|..|C-4 AF.7 ....|A#3 2F87 ....|F#5 2F.F ....
....|..|C-4 BF.F ....|--- .... ....|R-- .... ....
....|..|B-8 JF.7 ....|--- .... ....|R-- .... ....
....|..|--- .... ....|--- .... ....|F#5 2F.F ....
....|..|C-4 BF.A ....|--- .... ....|F#5 2F.A ....
....|..|B-8 JF.F ....|F#3 2F6A ....|G#5 2F.7 ....
....|..|C-4 BF.7 ....|--- .... ....|R-- .... ....
....|..|R-- .... ....|D#4 2F1F ....|G#5 2F.F ....
....|..|C-4 AF.F ....|C#2 2F.F ....|--- .... ....
....|..|C-4 AF.F ....|F#2 2F.F ....|R-- .... ....
 C#4|..|C#2 2A.F ....|G#2 2F.A ....|G#5 2F.7 ....
 F#3|..|F#1 2A.F ....|C#4 2F17 ....|--- .... ....
....|..|C-4 AF.F ....|A#3 2FAF ....|--- .... ....
....|..|B-8 JF.F ....|D#2 2F.7 ....|D#5 2F.F ....
....|..|C-4 AF.7 ....|G#2 2F.7 ....|D#5 2F.A ....
....|..|G#1 2F.7 ....|--- .... ....|D#5 2F.A ....
....|..|C-4 AF.7 ....|F#3 2F67 ....|F#5 2F.F ....
....|..|C-4 BF.F ....|--- .... ....|R-- .... ....
....|..|B-8 JF.7 ....|--- .... ....|F#5 2F.7 ....
....|..|C-4 BF.A ....|--- .... ....|R-- .... ....
....|..|--- .... ....|--- .... ....|D#5 2F.F ....
....|..|B-8 JF.F ....|--- .... ....|F#5 2F.7 ....
....|..|C-4 BF.7 ....|C#4 2FBF ....|F#5 2F.7 ....
....|..|R-- .... ....|F#3 2F67 ....|R-- .... ....
....|..|C-4 AF.F ....|G-2 2F.F ....|F#5 2F.F ....
....|..|C-4 AF.F ....|C-3 2F.F ....|R-- .... ....
 G-4|..|G-2 2A.F ....|C#2 2F.A ....|--- .... ....
 C-4|..|C-2 2A.F ....|A#3 2F17 ....|D#5 2F.F ....
....|..|C-4 AF.F ....|A#3 2F1F ....|--- .... ....
....|..|B-8 JF.F ....|R-- .... ....|R-- .... ....
....|..|G#1 2F.7 ....|C#3 2F.7 ....|--- .... ....
....|..|C#2 2F.7 ....|--- .... ....|F#5 2F.F ....
....|..|C-4 AF.7 ....|B-3 2F67 ....|D#5 2F.7 ....
....|..|C-4 BF.F ....|--- .... ....|D#5 2F.7 ....
....|..|--- .... ....|--- .... ....|F#5 2F.A ....
....|..|C-4 BF.A ....|--- .... ....|D#5 2F.F ....
....|..|--- .... ....|--- .... ....|F#5 2F.7 ....
....|..|B-8 JF.F ....|--- .... ....|R-- .... ....
....|..|--- .... ....|--- .... ....|D#5 2F.A ....
....|..|R-- .... ....|R-- .... ....|F#5 2F.F ....
....|..|C-4 AF.F ....|F#2 2F.F ....|--- .... ....
....|..|C-4 AF.F ....|B-2 2F.F ....|R-- .... ....
 F#4|..|F#2 2A.F ....|G-2 2F.A ....|F#5 2F.A ....
 B-3|..|B-1 2A.F ....|D#4 2F17 ....|G#5 2F.7 ....
....|..|C-4 AF.F ....|A#3 2F3F ....|D#5 2F.F ....
....|..|B-8 JF.F ....|F#2 2F.7 ....|R-- .... ....
....|..|C#2 2F.7 ....|A#3 2F1A ....|--- .... ....
....|..|F#1 2F.7 ....|--- .... ....|F#5 2F.F ....
....|..|C-4 AF.7 ....|A#3 2FA7 ....|--- .... ....
....|..|C-4 BF.F ....|--- .... ....|D#5 2F.7 ....
....|..|--- .... ....|--- .... ....|--- .... ....
....|..|C-4 BF.A ....|--- .... ....|G#5 2F.F ....
....|..|--- .... ....|--- .... ....|F#5 2F.7 ....
....|..|B-8 JF.F ....|--- .... ....|R-- .... ....
....|..|--- .... ....|--- .... ....|--- .... ....
....|..|C-4 AF.F ....|F#4 2F.F ....|G#5 2F.F ....
 B-3|..|B-1 2A.F ....|B-1 2F.F ....|D#5 2F.7 ....
....|..|C-4 AF.F ....|A#2 2F.F ....|R-- .... ....
 A#3|..|A#1 2A.F ....|C#4 2FB7 ....|--- .... ....
....|..|C-5 VF.F ....|G#3 2F7F ....|R-- .... ....
....|..|C-4 AF.7 ....|G-2 2F.7 ....|F#5 2F.7 ....
....|..|C-4 AF.F ....|C-3 2F.7 ....|F#5 2F.F ....
....|..|G-2 2F.7 ....|A#3 2F3A ....|D#5 2F.A ....
....|..|C-2 2F.7 ....|--- .... ....|F#5 2F.F ....
....|..|C-4 AF.7 ....|A#3 2FEF ....|--- .... ....
....|..|C-4 BF.F ....|G#3 2F.F ....|R-- .... ....
 A#3|..|A#1 2A.F ....|A#2 2F.F ....|--- .... ....
....|..|C-5 VF.F ....|G#3 2F7F ....|D#5 2F.F ....
 A#3|..|A#1 2A.F ....|--- .... ....|--- .... ....
....|..|C-4 AF.F ....|--- .... ....|R-- .... ....
 A#3|..|A#1 2A.F ....|--- .... ....|R-- .... ....
....|..|B-8 JF.A ....|G#3 2F7F ....|D#5 2F.7 ....
....|..|R-- .... ....|R-- .... ....|R-- .... ....
....|..|C-4 AF.F ....|B-1 2F.F ....|F#5 2F.F ....
 B-3|..|B-1 2A.F ....|B-1 2F.A ....|--- .... ....
....|..|C-4 LF.F ....|A#3 2F3F ....|F#5 2F.7 ....
 B-3|..|B-1 2A.F ....|F#2 2F.7 ....|--- .... ....
....|..|C-4 AF.F ....|B-2 2F.7 ....|D#5 2F.F ....
....|..|F#2 2F.7 ....|--- .... ....|--- .... ....
....|..|C-4 LF.F ....|--- .... ....|R-- .... ....
....|..|C-4 BF.F ....|A#3 2F37 ....|D#5 2F.7 ....

[Pattern8]
....|..|C-5 VF.F ....|--- .... ....|R-- .... ....
....|..|R-- .... ....|A#3 2FEA ....|--- .... ....
....|..|C-4 LF.F ....|G#3 2F.A ....|F#5 2F.7 ....
....|..|B-8 JF.F ....|A#2 2F.A ....|--- .... ....
....|..|C-4 BF.7 ....|B-3 2F9F ....|R-- .... ....
....|..|A#1 2F.A ....|--- .... ....|--- .... ....
....|..|C-4 AF.F ....|B-1 2F.F ....|G#5 2F.7 ....
....|..|C-4 AF.F ....|B-2 2FCF ....|F-5 2F.F ....
 B-3|..|B-1 2A.F ....|D-2 2F.F ....|--- .... ....
 D-4|..|D-2 2A.F ....|R-- .... ....|R-- .... ....
....|..|C-4 LF.F ....|G#3 2F7F ....|G#5 2F.7 ....
....|..|C-4 AF.F ....|G#3 2F7F ....|D-5 2F.F ....
 D-4|..|D-2 2A.F ....|G#3 2F7F ....|--- .... ....
 F-4|..|F-2 2A.F ....|--- .... ....|--- .... ....
....|..|C-4 LF.F ....|G#3 2F77 ....|R-- .... ....
....|..|C-4 BF.F ....|G#3 2F7F ....|B-4 2F.F ....
 F-4|..|F-2 2A.F ....|--- .... ....|F#5 2F.7 ....
 D-4|..|D-2 2A.F ....|--- .... ....|R-- .... ....
....|..|C-4 LF.F ....|--- .... ....|F#5 2F.7 ....
....|..|B-8 JF.F ....|A#3 2FEF ....|R-- .... ....
....|..|C-4 BF.7 ....|G#3 2F.7 ....|R-- .... ....
....|..|C-4 LF.F ....|A#2 2F.7 ....|--- .... ....
 A#3|..|A#1 2A.F ....|G#3 2F77 ....|D#5 2F.7 ....
....|..|C-4 AF.F ....|D#2 2F.F ....|--- .... ....
 D#4|..|D#2 2A.F ....|B-1 2F.A ....|C#5 2F.F ....
....|..|C-4 LF.F ....|B-2 2FCA ....|F-5 2F.A ....
....|..|C-4 LF.F ....|A#3 2F8F ....|R-- .... ....
....|..|C-4 AF.F ....|R-- .... ....|R-- .... ....
 D#4|..|D#2 2A.F ....|B-1 2F.7 ....|C#5 2F.F ....
....|..|C-4 LF.F ....|G#3 2F7A ....|D-5 2F.A ....
....|..|C-4 LF.F ....|A#3 2F37 ....|D#5 2F.F ....
....|..|C-4 BF.F ....|--- .... ....|--- .... ....
 F#3|..|F#1 2A.F ....|--- .... ....|D#5 2F.7 ....
....|..|C-4 LF.F ....|G#3 2F7A ....|F-5 2F.F ....
 F#3|..|F#1 2A.F ....|--- .... ....|--- .... ....
....|..|B-8 JF.F ....|--- .... ....|R-- .... ....
 G-3|..|G-1 2A.F ....|C#4 2F1F ....|--- .... ....
....|..|C-4 LF.F ....|A#3 2FEA ....|F#5 2F.F ....
....|..|C-4 AF.F ....|D#2 2F.F ....|--- .... ....
....|..|C-4 AF.F ....|G#1 2F.F ....|--- .... ....
 G-3|..|G-1 2A.F ....|B-3 2F97 ....|--- .... ....
....|..|C-4 LF.F ....|D#2 2F.A ....|--- .... ....
....|..|C-4 LF.F ....|G#3 2FAF ....|C#5 2F.A ....
....|..|C-4 AF.F ....|B-2 2FC7 ....|D#5 2F.F ....
 G#3|..|G#1 2A.F ....|D-2 2F.7 ....|R-- .... ....
....|..|C-4 LF.F ....|--- .... ....|D#5 2F.F ....
....|..|C-4 LF.F ....|D#4 2FCF ....|C#5 2F.A ....
....|..|C-4 BF.F ....|G#3 2F7F ....|D-5 2F.7 ....
....|..|D-2 2F.7 ....|G#3 2F77 ....|D#5 2F.A ....
....|..|C-4 LF.F ....|--- .... ....|D#5 2F.F ....
 A#3|..|A#1 2A.F ....|--- .... ....|R-- .... ....
....|..|C-3 RF.F ....|G#3 2F77 ....|B-4 2F.7 ....
....|..|F-2 2F.7 ....|--- .... ....|--- .... ....
....|..|C-4 LF.F ....|--- .... ....|R-- .... ....
....|..|C-4 LF.F ....|R-- .... ....|--- .... ....
....|..|C-4 AF.F ....|B-1 2F.F ....|G#5 2F.F ....
 B-3|..|B-1 2A.F ....|R-- .... ....|--- .... ....
....|..|C-4 LF.F ....|G#1 2F.A ....|--- .... ....
....|..|C-4 LF.F ....|A#3 2F3F ....|--- .... ....
....|..|C-4 AF.F ....|D#2 2F.7 ....|F#5 2F.F ....
 B-3|..|B-1 2A.F ....|G#3 2FAA ....|C#5 2F.7 ....
....|..|C-4 LF.F ....|--- .... ....|D#5 2F.A ....
 B-3|..|B-1 2A.F ....|A#3 2F87 ....|R-- .... ....
....|..|C-4 BF.F ....|--- .... ....|D#5 2F.A ....
....|..|D#2 2F.7 ....|D#4 2FCA ....|C#5 2F.7 ....
....|..|C-4 LF.F ....|G#3 2F7A ....|--- .... ....
....|..|C-4 LF.7 ....|--- .... ....|D#5 2F.7 ....
....|..|B-8 JF.F ....|B-3 2F9F ....|D#5 2F.A ....
....|..|F#1 2F.7 ....|--- .... ....|R-- .... ....
....|..|C-4 AF.F ....|F#4 2F.F ....|F-5 2F.7 ....
....|..|C-4 LF.F ....|B-1 2F.F ....|--- .... ....
....|..|C-4 AF.F ....|D-2 2F.F ....|F-5 2F.F ....
 B-3|..|B-1 2A.F ....|C#4 2F17 ....|--- .... ....
....|..|C-4 LF.F ....|G#3 2F7F ....|F#5 2F.7 ....
 D-4|..|D-2 2A.F ....|D#2 2F.7 ....|R-- .... ....
....|..|C-4 AF.F ....|G#3 2F7F ....|D-5 2F.F ....
 D-4|..|D-2 2A.F ....|A#3 2F3A ....|--- .... ....
....|..|C-4 LF.F ....|--- .... ....|F#5 2F.A ....
....|..|C-4 LF.F ....|A#3 2FEF ....|B-4 2F.F ....
....|..|C-4 BF.F ....|G#3 2F7F ....|D#5 2F.7 ....
 D-4|..|D-2 2A.F ....|--- .... ....|R-- .... ....
....|..|C-4 LF.F ....|--- .... ....|D#5 2F.7 ....
....|..|C-4 LF.F ....|D#4 2FC7 ....|R-- .... ....
....|..|B-8 JF.F ....|G#3 2F77 ....|--- .... ....
....|..|--- .... ....|--- .... ....|--- .... ....
....|..|C-4 LF.F ....|B-3 2F9A ....|G#4 2F.F ....
....|..|C-4 LF.F ....|--- .... ....|R-- .... ....
....|..|C-4 AF.F ....|D#2 2F.F ....|F#5 2F.F ....
 D-4|..|D-2 2A.F ....|B-1 2F.A ....|--- .... ....
....|..|C-4 LF.F ....|A#3 2F8F ....|F-5 2F.F ....
....|..|C-4 AF.F ....|R-- .... ....|--- .... ....
 D#4|..|D#2 2A.F ....|B-1 2F.7 ....|G#5 2F.7 ....
 D#4|..|D#2 2A.F ....|--- .... ....|R-- .... ....
....|..|C-4 LF.F ....|G#3 2F7A ....|D#5 2F.F ....
....|..|C-4 BF.F ....|A#3 2F37 ....|--- .... ....
 F#3|..|F#1 2A.F ....|--- .... ....|F#5 2F.7 ....

[Pattern9]
....|..|B-1 2F.7 ....|A#3 2FEA ....|B-4 2F.A ....
....|..|C-4 LF.F ....|G#3 2F7A ....|F-5 2F.F ....
....|..|B-8 JF.F ....|C#4 2F1F ....|R-- .... ....
 F#3|..|F#1 2A.F ....|--- .... ....|--- .... ....
 G-3|..|G-1 2A.F ....|--- .... ....|R-- .... ....
....|..|C-4 AF.F ....|D#2 2F.F ....|F#5 2F.F ....
....|..|C-4 AF.F ....|G#1 2F.F ....|--- .... ....
 G-3|..|G-1 2A.F ....|B-3 2F97 ....|G#4 2F.A ....
 G#3|..|G#1 2A.F ....|--- .... ....|R-- .... ....
....|..|C-4 LF.F ....|G#3 2FAF ....|F-5 2F.F ....
....|..|C-4 AF.F ....|B-1 2F.7 ....|--- .... ....
 G#3|..|G#1 2A.F ....|G#1 2F.F ....|D#5 2F.F ....
 G#3|..|G#1 2A.F ....|--- .... ....|--- .... ....
....|..|C-4 LF.F ....|A#3 2F4F ....|F-5 2F.F ....
....|..|C-4 BF.F ....|A#3 2FEF ....|R-- .... ....
 A#3|..|A#1 2A.F ....|A#3 2FEF ....|D-5 2F.7 ....
....|..|C-4 LF.F ....|--- .... ....|--- .... ....
 A#3|..|A#1 2A.F ....|--- .... ....|R-- .... ....
....|..|C-3 RF.F ....|A#3 2F4F ....|D#5 2F.F ....
....|..|C-4 BF.7 ....|G#3 2F77 ....|F-5 2F.A ....
....|..|C-4 LF.F ....|C#4 2F1A ....|R-- .... ....
....|..|C-4 LF.7 ....|--- .... ....|R-- .... ....
....|..|C-4 AF.F ....|B-1 2F.F ....|F#5 2F.F ....
 B-3|..|B-1 2A.F ....|R-- .... ....|F#5 2F.A ....
....|..|R-- .... ....|G#1 2F.A ....|--- .... ....
....|..|C-4 LF.F ....|A#3 2F3F ....|G#4 2F.7 ....
....|..|C-4 AF.F ....|--- .... ....|D#5 2F.F ....
 B-3|..|B-1 2A.F ....|D#2 2F.7 ....|F#5 2F.7 ....
....|..|D-2 2F.7 ....|--- .... ....|--- .... ....
....|..|C-4 LF.F ....|A#3 2F87 ....|F-5 2F.7 ....
....|..|C-4 BF.F ....|--- .... ....|--- .... ....
....|..|D#2 2F.7 ....|A#3 2F4A ....|R-- .... ....
....|..|C-4 LF.F ....|A#3 2FEA ....|--- .... ....
....|..|C-4 LF.7 ....|A#3 2FEA ....|D#5 2F.7 ....
....|..|B-8 JF.F ....|--- .... ....|--- .... ....
....|..|F#1 2F.7 ....|B-3 2F9F ....|R-- .... ....
....|..|C-4 LF.F ....|A#3 2F4A ....|D#5 2F.A ....
....|..|C-4 AF.F ....|B-1 2F.F ....|F-5 2F.7 ....
....|..|C-4 AF.F ....|D-2 2F.F ....|F-5 2F.F ....
 B-3|..|B-1 2A.F ....|--- .... ....|R-- .... ....
....|..|C-4 LF.F ....|B-1 2F.A ....|F#5 2F.A ....
....|..|C-4 LF.F ....|G#3 2F7F ....|F#5 2F.7 ....
....|..|C-4 AF.F ....|G#3 2F7F ....|D-5 2F.F ....
 D-4|..|D-2 2A.F ....|A#3 2F3A ....|--- .... ....
....|..|C-4 LF.F ....|--- .... ....|D#5 2F.A ....
....|..|C-4 LF.F ....|G#3 2FA7 ....|F-5 2F.7 ....
....|..|C-4 BF.F ....|G#3 2F7F ....|B-4 2F.F ....
 F-4|..|F-2 2A.F ....|G#1 2F.7 ....|D#5 2F.7 ....
....|..|C-4 LF.F ....|--- .... ....|--- .... ....
 D-4|..|D-2 2A.F ....|A#3 2F47 ....|F-5 2F.7 ....
....|..|B-8 JF.F ....|F#4 2F.F ....|R-- .... ....
....|..|A#1 2F.7 ....|A#3 2FE7 ....|--- .... ....
....|..|C-4 LF.F ....|--- .... ....|--- .... ....
 A#3|..|A#1 2A.F ....|B-3 2F9A ....|--- .... ....
....|..|C-4 AF.F ....|D#2 2F.F ....|C#5 2F.F ....
 D#4|..|D#2 2A.F ....|B-1 2F.A ....|--- .... ....
....|..|C-4 LF.F ....|A#3 2F8F ....|C#5 2F.F ....
 D#4|..|D#2 2A.F ....|--- .... ....|R-- .... ....
....|..|C-4 AF.F ....|B-1 2F.7 ....|F#5 2F.7 ....
 D#4|..|D#2 2A.F ....|G#3 2F7A ....|--- .... ....
....|..|C-4 LF.F ....|G#3 2F7A ....|D#5 2F.F ....
....|..|C-4 LF.F ....|A#3 2F37 ....|--- .... ....
....|..|C-4 BF.F ....|--- .... ....|D#5 2F.7 ....
 F#3|..|F#1 2A.F ....|--- .... ....|--- .... ....
....|..|C-4 LF.F ....|G#3 2F7A ....|F-5 2F.F ....
....|..|C-4 LF.F ....|--- .... ....|R-- .... ....
....|..|B-8 JF.F ....|--- .... ....|R-- .... ....
 F#3|..|F#1 2A.F ....|C#4 2F1F ....|--- .... ....
....|..|C-4 AF.F ....|F#4 2F.F ....|F#5 2F.F ....
....|..|C-4 LF.F ....|D#2 2F.F ....|--- .... ....
....|..|C-4 AF.F ....|G#1 2F.F ....|--- .... ....
 G-3|..|G-1 2A.F ....|B-3 2F97 ....|--- .... ....
....|..|C-4 LF.F ....|G#3 2FAF ....|C#5 2F.A ....
....|..|C-4 LF.F ....|B-1 2F.7 ....|R-- .... ....
....|..|C-4 AF.F ....|D-2 2F.7 ....|D#5 2F.F ....
 G#3|..|G#1 2A.F ....|--- .... ....|R-- .... ....
....|..|C-4 LF.F ....|--- .... ....|D#5 2F.F ....
....|..|C-4 LF.F ....|G#3 2F77 ....|--- .... ....
....|..|C-4 BF.F ....|G#3 2F7F ....|D-5 2F.7 ....
....|..|D-2 2F.7 ....|--- .... ....|--- .... ....
....|..|C-4 LF.F ....|--- .... ....|D#5 2F.F ....
....|..|C-3 RF.F ....|--- .... ....|--- .... ....
 A#3|..|A#1 2A.F ....|G#3 2F77 ....|B-4 2F.7 ....
....|..|F-2 2F.7 ....|--- .... ....|R-- .... ....
....|..|C-4 LF.F ....|D-4 2FCF ....|D#5 2F.F ....
....|..|C-4 AF.F ....|B-1 2F.F ....|--- .... ....
 B-3|..|B-1 2A.F ....|F#4 2F.7 ....|R-- .... ....
....|..|R-- .... ....|R-- .... ....|--- .... ....
....|..|C-4 LF.F ....|B-3 2F9F ....|R-- .... ....
....|..|C-4 AF.F ....|--- .... ....|A#4 2F.F ....
 B-3|..|B-1 2A.F ....|D#2 2F.7 ....|C#5 2F.7 ....
 B-3|..|B-1 2A.F ....|--- .... ....|R-- .... ....
....|..|C-4 LF.F ....|A#3 2F87 ....|G#4 2F.F ....
....|..|C-4 BF.F ....|B-3 2F9F ....|R-- .... ....
....|..|C-4 AF.7 ....|B-3 2F9F ....|R-- .... ....
....|..|D#2 2F.7 ....|R-- .... ....|A#4 2F.F ....

[Pattern10]
....|..|C-4 LF.F ....|G#3 2F7A ....|D#5 2F.7 ....
....|..|B-8 JF.F ....|--- .... ....|R-- .... ....
....|..|C-4 BF.7 ....|--- .... ....|R-- .... ....
....|..|F#1 2F.7 ....|B-3 2F9F ....|C#5 2F.F ....
....|..|C-4 AF.F ....|B-1 2F.F ....|F-5 2F.7 ....
....|..|C-4 AF.F ....|A#2 2FFF ....|R-- .... ....
 B-3|..|B-1 2A.F ....|A#1 2F.F ....|A#4 2F.F ....
 D-4|..|D-2 2A.F ....|C#4 2F17 ....|--- .... ....
....|..|C-4 LF.F ....|A#3 2F9F ....|F#5 2F.7 ....
....|..|C-4 AF.F ....|D#2 2F.7 ....|--- .... ....
 D-4|..|D-2 2A.F ....|G#1 2F.7 ....|R-- .... ....
....|..|C-4 LF.F ....|--- .... ....|A#4 2F.A ....
....|..|C-4 LF.F ....|G#3 2FA7 ....|--- .... ....
....|..|C-4 BF.F ....|--- .... ....|R-- .... ....
 D-4|..|D-2 2A.F ....|--- .... ....|D#5 2F.7 ....
....|..|G#1 2F.7 ....|B-3 2F9A ....|R-- .... ....
....|..|C-4 LF.F ....|B-3 2F9A ....|G#4 2F.F ....
....|..|B-8 JF.F ....|R-- .... ....|F#4 2F.F ....
....|..|C-4 BF.7 ....|D-4 2FDF ....|R-- .... ....
....|..|C-4 LF.F ....|R-- .... ....|R-- .... ....
 D-4|..|D-2 2A.F ....|--- .... ....|G#4 2F.F ....
....|..|C-4 AF.F ....|D#2 2F.F ....|R-- .... ....
 D#4|..|D#2 2A.F ....|B-1 2F.A ....|--- .... ....
....|..|R-- .... ....|A#2 2FFA ....|A#4 2F.F ....
....|..|C-4 LF.F ....|A#3 2F8F ....|D#5 2F.7 ....
....|..|C-4 AF.F ....|B-1 2F.7 ....|R-- .... ....
 D#4|..|D#2 2A.F ....|A#3 2F9A ....|--- .... ....
....|..|C-4 LF.F ....|--- .... ....|C#5 2F.F ....
....|..|C-4 LF.F ....|B-3 2F97 ....|R-- .... ....
....|..|C-4 BF.F ....|--- .... ....|A#4 2F.7 ....
 F#3|..|F#1 2A.F ....|--- .... ....|--- .... ....
....|..|C-4 LF.F ....|--- .... ....|D#5 2F.F ....
 F#3|..|F#1 2A.F ....|--- .... ....|G#4 2F.7 ....
....|..|B-8 JF.F ....|B-3 2F97 ....|R-- .... ....
 G-3|..|G-1 2A.F ....|C#4 2F1F ....|G#4 2F.A ....
....|..|C-4 LF.F ....|F#4 2F.F ....|F#5 2F.F ....
....|..|C-4 AF.F ....|D#2 2F.F ....|--- .... ....
....|..|C-4 AF.F ....|G#1 2F.F ....|R-- .... ....
 G-3|..|G-1 2A.F ....|--- .... ....|G#4 2F.A ....
....|..|C-4 LF.F ....|B-3 2F97 ....|C#5 2F.7 ....
....|..|C-4 LF.F ....|G#3 2FAF ....|R-- .... ....
....|..|C-4 AF.F ....|A#2 2FF7 ....|A#4 2F.A ....
 G#3|..|G#1 2A.F ....|A#1 2F.7 ....|A#4 2F.7 ....
....|..|C-4 LF.F ....|--- .... ....|R-- .... ....
....|..|C-4 LF.F ....|D#4 2FCF ....|--- .... ....
....|..|C-4 BF.F ....|A#1 2F.F ....|D#5 2F.F ....
 A#3|..|A#1 2A.F ....|--- .... ....|R-- .... ....
....|..|C-4 LF.F ....|--- .... ....|D#5 2F.F ....
 A#3|..|A#1 2A.F ....|A#3 2F4F ....|R-- .... ....
....|..|C-3 RF.F ....|--- .... ....|D#5 2F.A ....
....|..|D-2 2F.7 ....|--- .... ....|--- .... ....
....|..|C-4 LF.F ....|--- .... ....|G#5 2F.F ....
....|..|C-4 LF.7 ....|R-- .... ....|G#4 2F.7 ....
....|..|C-4 AF.F ....|D#2 2F.F ....|F#4 2F.7 ....
 D#3|..|D#1 2A.F ....|D-4 2FD7 ....|--- .... ....
....|..|C-4 AF.F ....|C#4 2F1F ....|R-- .... ....
 D#3|..|D#1 2A.F ....|--- .... ....|G#4 2F.7 ....
....|..|B-8 JF.F ....|D#2 2F.7 ....|G#5 2F.F ....
 D#4|..|D#2 2A.F ....|G#3 2FAA ....|R-- .... ....
....|..|R-- .... ....|--- .... ....|A#4 2F.7 ....
....|..|C-4 LF.7 ....|A#3 2F87 ....|G#5 2F.F ....
....|..|C-4 BF.F ....|--- .... ....|R-- .... ....
 F#3|..|F#1 2A.F ....|D#4 2FCA ....|--- .... ....
 F#4|..|F#2 2A.F ....|A#1 2F.A ....|F#5 2F.F ....
 F#4|..|F#2 2A.F ....|--- .... ....|R-- .... ....
....|..|B-8 JF.F ....|--- .... ....|R-- .... ....
 G-3|..|G-1 2A.F ....|D#4 2FAF ....|R-- .... ....
....|..|C-4 AF.F ....|C#4 2F1F ....|G#5 2F.F ....
 G-4|..|G-2 2A.F ....|R-- .... ....|--- .... ....
....|..|C-4 AF.F ....|G#2 2F.F ....|R-- .... ....
 G-4|..|G-2 2A.F ....|C#4 2F17 ....|--- .... ....
....|..|C-4 AF.F ....|C-4 2FDF ....|A#5 2F.F ....
 G#3|..|G#1 2A.F ....|D#2 2F.7 ....|--- .... ....
....|..|B-8 JF.F ....|G#1 2F.7 ....|R-- .... ....
 G#4|..|G#2 2A.F ....|--- .... ....|--- .... ....
....|..|C-4 LF.7 ....|--- .... ....|F#5 2F.F ....
....|..|C-4 LF.7 ....|G#3 2FA7 ....|R-- .... ....
....|..|C-4 BF.F ....|--- .... ....|R-- .... ....
....|..|G#1 2F.7 ....|C-4 2FDF ....|G#5 2F.A ....
....|..|C-4 LF.7 ....|--- .... ....|R-- .... ....
....|..|B-8 JF.F ....|D#4 2FC7 ....|R-- .... ....
....|..|C-4 BF.7 ....|A#1 2F.7 ....|D#5 2F.7 ....
....|..|A#1 2F.7 ....|--- .... ....|R-- .... ....
....|..|C-4 AF.F ....|G#2 2F.F ....|D#5 2F.7 ....
....|..|C-4 AF.F ....|C#3 2F.F ....|R-- .... ....
 G#4|..|G#2 2A.F ....|C#4 2F1A ....|G#5 2F.F ....
 C#4|..|C#2 2A.F ....|R-- .... ....|--- .... ....
....|..|C-4 AF.F ....|B-3 2F6F ....|G#5 2F.7 ....
....|..|B-8 JF.F ....|R-- .... ....|G#5 2F.F ....
 C#4|..|C#3 2C.F ....|D#2 2F.7 ....|D#5 2F.F ....
....|..|D#1 2F.7 ....|--- .... ....|R-- .... ....
....|..|C-4 AF.7 ....|C#4 2F17 ....|F#5 2F.F ....
....|..|C-4 BF.F ....|--- .... ....|--- .... ....
 E-3|..|E-1 2A.F ....|--- .... ....|G#5 2F.7 ....
....|..|D#2 2F.7 ....|--- .... ....|--- .... ....
 E-4|..|E-2 2A.F ....|--- .... ....|D#5 2F.F ....

[Pattern11]
....|..|B-8 JF.F ....|C-4 2FDA ....|G#5 2F.7 ....
 F-3|..|F-1 2A.F ....|--- .... ....|R-- .... ....
....|..|F#1 2F.7 ....|D#4 2F1F ....|F#5 2F.F ....
....|..|C-4 AF.F ....|C#3 2F.F ....|F#5 2F.7 ....
....|..|C-4 AF.F ....|F#2 2F.F ....|F#5 2F.F ....
 F-4|..|F-2 2A.F ....|G#2 2F.A ....|R-- .... ....
 F#3|..|F#1 2A.F ....|D#4 2FA7 ....|F#5 2F.F ....
....|..|C-4 AF.F ....|A#3 2FAF ....|G#5 2F.7 ....
....|..|B-8 JF.F ....|R-- .... ....|--- .... ....
 F#4|..|F#2 2A.F ....|G#2 2F.7 ....|R-- .... ....
....|..|G-2 2F.7 ....|--- .... ....|G#5 2F.A ....
....|..|C-4 AF.7 ....|C-4 2FD7 ....|A#5 2F.7 ....
....|..|C-4 BF.F ....|--- .... ....|R-- .... ....
....|..|B-8 JF.7 ....|--- .... ....|R-- .... ....
....|..|G#2 2F.7 ....|--- .... ....|--- .... ....
....|..|R-- .... ....|--- .... ....|F#5 2F.7 ....
....|..|B-8 JF.F ....|--- .... ....|--- .... ....
....|..|C-4 BF.7 ....|--- .... ....|D#5 2F.A ....
....|..|B-8 JF.A ....|C-4 2FD7 ....|R-- .... ....
....|..|C-4 AF.F ....|G-2 2F.F ....|--- .... ....
....|..|C-4 AF.F ....|C-3 2F.F ....|C#5 2F.F ....
 F#3|..|F#1 2A.F ....|C#3 2F.A ....|--- .... ....
 C-4|..|C-2 2A.F ....|F#2 2F.A ....|D#5 2F.F ....
....|..|C-4 AF.F ....|A#3 2F1F ....|--- .... ....
....|..|B-8 JF.F ....|C#3 2F.7 ....|R-- .... ....
 C-4|..|C-3 2C.F ....|A#3 2FAA ....|G#5 2F.7 ....
....|..|C#2 2F.7 ....|--- .... ....|F#5 2F.F ....
....|..|C-4 AF.7 ....|B-3 2F67 ....|--- .... ....
....|..|C-4 BF.F ....|--- .... ....|G#5 2F.7 ....
....|..|C#3 2F.7 ....|--- .... ....|D#5 2F.7 ....
....|..|R-- .... ....|--- .... ....|R-- .... ....
....|..|--- .... ....|--- .... ....|F#5 2F.7 ....
....|..|B-8 JF.F ....|--- .... ....|--- .... ....
....|..|E-1 2F.7 ....|--- .... ....|R-- .... ....
....|..|B-8 JF.A ....|D#4 2FCF ....|A#4 2F.F ....
....|..|C-4 AF.F ....|F#2 2F.F ....|C#5 2F.F ....
....|..|C-4 AF.F ....|B-2 2F.F ....|R-- .... ....
 C-4|..|C-2 2A.F ....|G-2 2F.A ....|R-- .... ....
 B-3|..|B-1 2A.F ....|D#4 2F17 ....|D#5 2F.F ....
....|..|C-4 AF.F ....|A#3 2F3F ....|--- .... ....
....|..|B-8 JF.F ....|F#2 2F.7 ....|F#5 2F.7 ....
 B-4|..|B-2 2A.F ....|A#3 2F1A ....|--- .... ....
....|..|F#1 2F.7 ....|--- .... ....|F#5 2F.F ....
....|..|C-4 AF.7 ....|A#3 2FA7 ....|--- .... ....
....|..|C-4 BF.F ....|--- .... ....|F#5 2F.A ....
....|..|F#2 2F.7 ....|--- .... ....|--- .... ....
....|..|R-- .... ....|--- .... ....|R-- .... ....
....|..|--- .... ....|--- .... ....|--- .... ....
....|..|B-8 JF.F ....|--- .... ....|R-- .... ....
....|..|--- .... ....|--- .... ....|R-- .... ....
....|..|C-4 AF.F ....|A#3 2F3F ....|F#5 2F.F ....
 B-3|..|B-1 2A.F ....|B-2 2F.F ....|--- .... ....
....|..|C-4 AF.F ....|A#2 2F.F ....|A#4 2F.A ....
 A#3|..|A#1 2A.F ....|F#2 2F.A ....|C#5 2F.A ....
....|..|C-4 AF.F ....|G#3 2F7F ....|D#5 2F.F ....
 A#3|..|A#2 2C.F ....|G-2 2F.7 ....|R-- .... ....
....|..|B-8 JF.F ....|C-3 2F.7 ....|C#5 2F.F ....
....|..|F#1 2F.7 ....|A#3 2F3A ....|R-- .... ....
 A#3|..|A#1 2A.F ....|--- .... ....|D#5 2F.F ....
....|..|C-4 AF.7 ....|A#3 2F17 ....|--- .... ....
....|..|C-4 BF.F ....|--- .... ....|R-- .... ....
 C#4|..|C#2 2A.F ....|--- .... ....|--- .... ....
 C#4|..|C#3 2C.F ....|--- .... ....|C#5 2F.F ....
....|..|R-- .... ....|--- .... ....|--- .... ....
....|..|B-8 JF.F ....|--- .... ....|R-- .... ....
....|..|--- .... ....|G#3 2F7F ....|--- .... ....
....|..|C-4 AF.F ....|A#2 2F.F ....|F#5 2F.F ....
 C#4|..|C#2 2A.F ....|--- .... ....|R-- .... ....
....|..|C-4 AF.F ....|D#3 2F.F ....|F#5 2F.A ....
 D#4|..|D#2 2A.F ....|B-2 2F.A ....|--- .... ....
....|..|C-4 AF.F ....|A#3 2F8F ....|F#5 2F.F ....
 D#4|..|D#2 2A.F ....|F#2 2F.7 ....|D#5 2F.F ....
....|..|B-8 JF.F ....|B-2 2F.7 ....|D#5 2F.A ....
 D#4|..|D#3 2C.F ....|--- .... ....|R-- .... ....
....|..|B-1 2F.7 ....|--- .... ....|D#5 2F.7 ....
....|..|C-5 VF.F ....|A#3 2F8F ....|R-- .... ....
 F#3|..|F#1 2A.F ....|--- .... ....|D#5 2F.F ....
....|..|B-2 2F.7 ....|--- .... ....|--- .... ....
 F#4|..|F#2 2A.F ....|A#3 2F8F ....|D#5 2F.F ....
....|..|B-8 JF.F ....|A#3 2F8F ....|--- .... ....
 G-3|..|G-1 2A.F ....|--- .... ....|R-- .... ....
....|..|R-- .... ....|--- .... ....|--- .... ....
....|..|C-5 VF.F ....|G-2 2F.F ....|A-5 2F.F ....
....|..|C-4 AF.F ....|G#2 2F.F ....|--- .... ....
 G-4|..|G-2 2A.F ....|A#2 2F.A ....|F#5 2F.A ....
 G#3|..|G#1 2A.F ....|--- .... ....|--- .... ....
....|..|C-4 AF.F ....|F#3 2F6F ....|F#5 2F.7 ....
....|..|B-8 JF.F ....|B-2 2F.7 ....|G#5 2F.F ....
 G#4|..|G#2 2A.F ....|A#2 2F.7 ....|F#5 2F.A ....
....|..|A#1 2F.7 ....|--- .... ....|D#5 2F.A ....
....|..|C-4 AF.7 ....|G#3 2F77 ....|G#5 2F.F ....
....|..|C-4 BF.F ....|--- .... ....|--- .... ....
....|..|B-8 JF.7 ....|--- .... ....|C#5 2F.7 ....
....|..|R-- .... ....|F#3 2F6F ....|R-- .... ....
....|..|A#1 2F.7 ....|--- .... ....|G#5 2F.F ....
....|..|B-8 JF.F ....|--- .... ....|--- .... ....

[Pattern12]
....|..|C-4 BF.7 ....|A#3 2F8A ....|R-- .... ....
....|..|C#2 2F.7 ....|D#4 2F.F ....|D#5 2F.F ....
....|..|C-4 AF.F ....|G#2 2F.F ....|C#5 2F.7 ....
....|..|C-4 AF.F ....|C#3 2F.F ....|R-- .... ....
 G#3|..|G#1 2A.F ....|G-2 2F.A ....|R-- .... ....
 C#4|..|C#2 2A.F ....|G#3 2F77 ....|D#5 2F.F ....
....|..|C-4 AF.F ....|D#4 2F1F ....|F#5 2F.7 ....
....|..|B-8 JF.F ....|--- .... ....|R-- .... ....
 C#4|..|C#3 2C.F ....|D#3 2F.7 ....|--- .... ....
....|..|D#2 2F.7 ....|--- .... ....|F#5 2F.F ....
....|..|C-4 AF.7 ....|A#3 2F87 ....|F#5 2F.7 ....
....|..|C-4 BF.F ....|--- .... ....|D#5 2F.7 ....
 E-3|..|E-1 2A.F ....|--- .... ....|R-- .... ....
....|..|D#3 2F.7 ....|--- .... ....|--- .... ....
 E-4|..|E-2 2A.F ....|--- .... ....|G#5 2F.F ....
....|..|B-8 JF.F ....|A#3 2F87 ....|--- .... ....
 F-3|..|F-1 2A.F ....|--- .... ....|D#5 2F.7 ....
....|..|B-8 JF.A ....|D#4 2F1F ....|--- .... ....
....|..|C-4 AF.F ....|C#2 2F.F ....|D#5 2F.7 ....
....|..|C-4 AF.F ....|F#2 2F.F ....|D#5 2F.A ....
 F-4|..|F-2 2A.F ....|G#2 2F.A ....|R-- .... ....
 F#3|..|F#1 2A.F ....|C#3 2F.A ....|R-- .... ....
....|..|C-4 AF.F ....|A#3 2FAF ....|A-5 2F.7 ....
....|..|B-8 JF.F ....|G#2 2F.7 ....|R-- .... ....
 F#4|..|F#2 2A.F ....|D#4 2F1A ....|--- .... ....
....|..|G#1 2F.7 ....|--- .... ....|C#5 2F.F ....
....|..|C-4 AF.7 ....|F#3 2F67 ....|--- .... ....
....|..|C-4 BF.F ....|--- .... ....|G#5 2F.7 ....
....|..|G#2 2F.7 ....|--- .... ....|--- .... ....
....|..|R-- .... ....|--- .... ....|D#5 2F.F ....
....|..|E-1 2F.A ....|--- .... ....|G#5 2F.7 ....
....|..|B-8 JF.F ....|A#3 2FAF ....|R-- .... ....
....|..|E-2 2F.A ....|C#4 2FBF ....|R-- .... ....
....|..|B-8 JF.A ....|F#3 2F67 ....|F#5 2F.F ....
....|..|C-4 AF.F ....|G-2 2F.F ....|G#5 2F.7 ....
....|..|C-4 AF.F ....|C-3 2F.F ....|D#5 2F.F ....
 G-3|..|G-1 2A.F ....|C#2 2F.A ....|F#5 2F.F ....
....|..|C-4 AF.F ....|A#3 2F1F ....|F#5 2F.F ....
 C-4|..|C-2 2A.F ....|G#2 2F.7 ....|--- .... ....
....|..|B-8 JF.F ....|C#3 2F.7 ....|R-- .... ....
 C-4|..|C-3 2C.F ....|A#3 2FAA ....|--- .... ....
....|..|C#2 2F.7 ....|--- .... ....|D#5 2F.7 ....
....|..|C-4 AF.7 ....|D#4 2F17 ....|R-- .... ....
....|..|C-4 BF.F ....|--- .... ....|R-- .... ....
....|..|C#3 2F.7 ....|--- .... ....|--- .... ....
....|..|R-- .... ....|--- .... ....|F#5 2F.7 ....
....|..|--- .... ....|--- .... ....|--- .... ....
....|..|B-8 JF.F ....|A#3 2F1F ....|D#5 2F.A ....
....|..|E-1 2F.7 ....|--- .... ....|R-- .... ....
....|..|C-4 AF.F ....|D#4 2FCF ....|R-- .... ....
 C-4|..|C-2 2A.F ....|R-- .... ....|G#5 2F.7 ....
....|..|C-4 AF.F ....|B-2 2F.F ....|C#5 2F.F ....
 B-3|..|B-1 2A.F ....|G-2 2F.A ....|R-- .... ....
....|..|C-4 AF.F ....|A#3 2F3F ....|D#5 2F.F ....
 B-4|..|B-2 2A.F ....|C#2 2F.7 ....|F#5 2F.A ....
....|..|B-8 JF.F ....|F#2 2F.7 ....|R-- .... ....
....|..|F-2 2F.7 ....|--- .... ....|--- .... ....
....|..|F#1 2F.7 ....|--- .... ....|F#5 2F.F ....
....|..|C-4 AF.7 ....|A#3 2FA7 ....|--- .... ....
....|..|C-4 BF.F ....|--- .... ....|R-- .... ....
....|..|F#2 2F.7 ....|--- .... ....|R-- .... ....
....|..|R-- .... ....|--- .... ....|C#5 2F.7 ....
....|..|--- .... ....|--- .... ....|R-- .... ....
....|..|B-8 JF.F ....|--- .... ....|R-- .... ....
....|..|--- .... ....|B-3 2F9F ....|--- .... ....
....|..|C-4 AF.F ....|B-1 2F.F ....|D#5 2F.7 ....
....|..|C-4 AF.F ....|A#2 2FFF ....|C#5 2F.F ....
 B-3|..|B-1 2A.F ....|A#2 2F.F ....|R-- .... ....
 A#3|..|A#1 2A.F ....|C#4 2FB7 ....|R-- .... ....
....|..|C-4 AF.F ....|G#3 2F7F ....|D#5 2F.F ....
....|..|B-8 JF.F ....|G-2 2F.7 ....|R-- .... ....
 A#3|..|A#2 2C.F ....|C-3 2F.7 ....|D#5 2F.7 ....
....|..|G-1 2F.7 ....|--- .... ....|F#5 2F.7 ....
 A#3|..|A#1 2A.F ....|A#3 2F17 ....|F#5 2F.F ....
....|..|C-4 BF.F ....|--- .... ....|--- .... ....
 C#4|..|C#2 2A.F ....|--- .... ....|F#5 2F.A ....
....|..|C-3 2F.7 ....|--- .... ....|--- .... ....
 C#4|..|C#3 2C.F ....|--- .... ....|R-- .... ....
....|..|B-8 JF.F ....|G#3 2F7F ....|R-- .... ....
....|..|C-4 BF.7 ....|--- .... ....|--- .... ....
....|..|--- .... ....|A#3 2FEF ....|R-- .... ....
....|..|C-4 AF.F ....|A#2 2F.F ....|F#5 2F.F ....
....|..|C-4 AF.F ....|D#3 2F.F ....|--- .... ....
 C#4|..|C#2 2A.F ....|A#3 2F17 ....|--- .... ....
 D#4|..|D#2 2A.F ....|A#2 2FFA ....|C#5 2F.A ....
....|..|C-4 AF.F ....|A#3 2F8F ....|--- .... ....
....|..|B-8 JF.F ....|R-- .... ....|F#5 2F.F ....
 D#4|..|D#2 2A.F ....|B-2 2F.7 ....|D#5 2F.F ....
 D#4|..|D#3 2C.F ....|--- .... ....|R-- .... ....
....|..|C-4 AF.7 ....|A#3 2F37 ....|D#5 2F.7 ....
....|..|C-4 BF.F ....|--- .... ....|C#5 2F.F ....
 F#3|..|F#1 2A.F ....|--- .... ....|R-- .... ....
....|..|R-- .... ....|--- .... ....|R-- .... ....
 F#4|..|F#2 2A.F ....|--- .... ....|D#5 2F.F ....
....|..|B-8 JF.F ....|--- .... ....|R-- .... ....
 G-3|..|G-1 2A.F ....|A#3 2F8F ....|R-- .... ....

[Pattern13]
....|..|B-8 JF.A ....|R-- .... ....|--- .... ....
....|..|C-4 AF.F ....|A#2 2F.F ....|C#5 2F.F ....
....|..|C-4 AF.F ....|G#2 2F.F ....|D#5 2F.F ....
 G-4|..|G-2 2A.F ....|A#2 2F.A ....|F#5 2F.A ....
 G#3|..|G#1 2A.F ....|B-3 2F97 ....|F#5 2F.F ....
....|..|C-4 AF.F ....|F#3 2F6F ....|--- .... ....
....|..|B-8 JF.F ....|A#2 2FF7 ....|D#5 2F.F ....
 G#4|..|G#2 2A.F ....|A#2 2F.7 ....|--- .... ....
....|..|A#1 2F.7 ....|--- .... ....|C#5 2F.F ....
....|..|C-4 AF.7 ....|G#3 2F77 ....|D#5 2F.7 ....
....|..|C-4 BF.F ....|--- .... ....|A#4 2F.F ....
....|..|A#2 2F.7 ....|F#3 2F6F ....|R-- .... ....
....|..|R-- .... ....|--- .... ....|C#5 2F.A ....
....|..|A#1 2F.7 ....|--- .... ....|F#5 2F.7 ....
....|..|B-8 JF.F ....|--- .... ....|A#4 2F.F ....
....|..|C#2 2F.7 ....|--- .... ....|D#5 2F.A ....
....|..|B-8 JF.A ....|D#4 2F.F ....|G#4 2F.F ....
....|..|C-4 AF.F ....|G#2 2F.F ....|R-- .... ....
....|..|C-4 AF.F ....|C#3 2F.F ....|--- .... ....
 G#3|..|G#1 2A.F ....|A#2 2F.A ....|C#5 2F.A ....
 C#4|..|C#2 2A.F ....|C#3 2F.F ....|F#4 2F.F ....
....|..|C-4 AF.F ....|B-3 2F6F ....|F#5 2F.7 ....
....|..|B-8 JF.F ....|D#3 2F.7 ....|F#4 2F.F ....
 C#4|..|C#3 2C.F ....|F#3 2F6A ....|--- .... ....
....|..|D#2 2F.7 ....|--- .... ....|D#5 2F.A ....
....|..|C-4 AF.7 ....|A#3 2F87 ....|--- .... ....
....|..|C-4 BF.F ....|--- .... ....|F#5 2F.7 ....
 E-3|..|E-1 2A.F ....|--- .... ....|D#5 2F.7 ....
....|..|D#3 2F.7 ....|--- .... ....|R-- .... ....
 E-4|..|E-2 2A.F ....|F#3 2F6A ....|--- .... ....
....|..|B-8 JF.F ....|--- .... ....|C#5 2F.7 ....
 F-3|..|F-1 2A.F ....|B-3 2F6F ....|R-- .... ....
....|..|C-5 VF.F ....|G#4 2F.F ....|C#5 2F.F ....
 F-4|..|F-2 2A.F ....|C#2 2F.F ....|D#5 2F.7 ....
....|..|C-4 AF.F ....|F#2 2F.F ....|D#5 2F.F ....
 F#3|..|F#1 2A.F ....|A#3 2F87 ....|--- .... ....
....|..|C-4 AF.F ....|A#3 2FAF ....|F#5 2F.F ....
 F#4|..|F#2 2A.F ....|A#2 2F.7 ....|C#5 2F.7 ....
....|..|B-8 JF.F ....|G#2 2F.7 ....|D#5 2F.F ....
....|..|G-2 2F.7 ....|B-3 2F6A ....|--- .... ....
....|..|G#1 2F.7 ....|--- .... ....|C#5 2F.F ....
....|..|C-4 AF.7 ....|F#3 2F67 ....|--- .... ....
....|..|C-4 BF.F ....|--- .... ....|A#4 2F.F ....
....|..|G#2 2F.7 ....|--- .... ....|--- .... ....
....|..|R-- .... ....|--- .... ....|C#5 2F.7 ....
....|..|E-1 2F.A ....|--- .... ....|R-- .... ....
....|..|B-8 JF.F ....|A#3 2FAF ....|A#4 2F.F ....
....|..|E-2 2F.A ....|C#4 2FBF ....|--- .... ....
....|..|C-4 AF.F ....|A#3 2FCF ....|G#4 2F.F ....
 G-3|..|G-1 2A.F ....|G-2 2F.F ....|R-- .... ....
....|..|C-4 AF.F ....|C-3 2F.F ....|A#4 2F.7 ....
 C-4|..|C-2 2A.F ....|C#2 2F.A ....|--- .... ....
....|..|C-4 AF.F ....|A#3 2F1F ....|A#4 2F.F ....
 C-4|..|C-3 2C.F ....|G#2 2F.7 ....|R-- .... ....
....|..|B-8 JF.F ....|C#3 2F.7 ....|A#4 2F.F ....
....|..|G#1 2F.7 ....|--- .... ....|--- .... ....
....|..|C#2 2F.7 ....|C#3 2F.7 ....|F#4 2F.7 ....
....|..|C-4 AF.7 ....|B-3 2F67 ....|R-- .... ....
....|..|C-4 BF.F ....|--- .... ....|F#4 2F.7 ....
....|..|C#3 2F.7 ....|--- .... ....|--- .... ....
....|..|R-- .... ....|--- .... ....|A#4 2F.A ....
....|..|B-8 JF.F ....|--- .... ....|--- .... ....
....|..|C-4 BF.7 ....|A#3 2F1F ....|R-- .... ....
....|..|E-1 2F.7 ....|C-4 2FDF ....|R-- .... ....
....|..|C-4 AF.F ....|C-2 2F.F ....|C#5 2F.F ....
....|..|C-4 AF.F ....|B-2 2F.F ....|D#5 2F.F ....
 C-4|..|C-2 2A.F ....|A#3 2FCA ....|G#4 2F.A ....
 B-3|..|B-1 2A.F ....|B-3 2F67 ....|F#5 2F.F ....
....|..|C-4 AF.F ....|A#3 2F3F ....|C#5 2F.7 ....
....|..|B-8 JF.F ....|C#2 2F.7 ....|F#5 2F.F ....
 B-4|..|B-2 2A.F ....|F#2 2F.7 ....|D#5 2F.F ....
....|..|F#1 2F.7 ....|--- .... ....|C#5 2F.F ....
....|..|C-4 AF.7 ....|A#3 2FA7 ....|F#5 2F.7 ....
....|..|C-4 BF.F ....|--- .... ....|A#4 2F.F ....
....|..|B-8 JF.7 ....|--- .... ....|D#5 2F.7 ....
....|..|R-- .... ....|--- .... ....|R-- .... ....
....|..|C-4 BF.A ....|--- .... ....|C#5 2F.7 ....
....|..|B-8 JF.F ....|--- .... ....|A#4 2F.F ....
....|..|C-4 BF.7 ....|--- .... ....|A#4 2F.7 ....
....|..|B-8 JF.A ....|B-3 2F9F ....|R-- .... ....
....|..|C-4 AF.F ....|B-1 2F.F ....|G#4 2F.F ....
....|..|C-4 AF.F ....|A#2 2F.F ....|R-- .... ....
 B-3|..|B-1 2A.F ....|A#3 2FA7 ....|A#4 2F.7 ....
 A#3|..|A#1 2A.F ....|C#4 2FB7 ....|D#5 2F.A ....
....|..|C-4 AF.F ....|G#3 2F7F ....|G#4 2F.7 ....
....|..|B-8 JF.F ....|G-2 2F.7 ....|A#4 2F.F ....
 A#3|..|A#2 2C.F ....|C-3 2F.7 ....|--- .... ....
....|..|C-2 2F.7 ....|--- .... ....|R-- .... ....
 A#3|..|A#1 2A.F ....|A#3 2F17 ....|C#5 2F.F ....
....|..|C-4 BF.F ....|G#3 2F7F ....|R-- .... ....
 C#4|..|C#2 2A.F ....|--- .... ....|A#4 2F.7 ....
....|..|R-- .... ....|--- .... ....|D#5 2F.F ....
 C#4|..|C#3 2C.F ....|G#3 2F7F ....|--- .... ....
....|..|B-8 JF.F ....|G#3 2F7F ....|R-- .... ....
....|..|C-4 BF.7 ....|--- .... ....|R-- .... ....
....|..|B-8 JF.A ....|--- .... ....|R-- .... ....

[Pattern14]
....|..|C-5 VF.F ....|A#2 2F.F ....|--- .... ....
....|..|C-4 AF.F ....|D#2 2F.F ....|R-- .... ....
 C#4|..|C#2 2A.F ....|A#3 2F17 ....|G#4 2F.A ....
 D#4|..|D#2 2A.F ....|C-4 2FD7 ....|--- .... ....
....|..|C-4 AF.F ....|C#4 2F1F ....|C#5 2F.7 ....
....|..|B-8 JF.F ....|B-2 2F.7 ....|A#5 2F.F ....
 D#4|..|D#2 2A.F ....|G#3 2F7A ....|--- .... ....
 D#4|..|D#3 2C.F ....|--- .... ....|F#5 2F.7 ....
....|..|C-4 AF.7 ....|D#4 2FCF ....|--- .... ....
....|..|C-4 BF.F ....|F#1 2F.F ....|F#5 2F.7 ....
 F#3|..|F#1 2A.F ....|--- .... ....|D#5 2F.7 ....
....|..|R-- .... ....|G#3 2F7A ....|C#5 2F.7 ....
 F#4|..|F#2 2A.F ....|F#2 2F.F ....|R-- .... ....
....|..|B-8 JF.F ....|G-1 2F.F ....|A#4 2F.7 ....
 G-3|..|G-1 2A.F ....|G#3 2F7A ....|--- .... ....
....|..|B-8 JF.A ....|G#3 2F7A ....|--- .... ....
....|..|C-4 AF.F ....|G-2 2F.F ....|R-- .... ....
....|..|C-4 AF.F ....|G#2 2F.F ....|A#4 2F.7 ....
 G-4|..|G-2 2A.F ....|A#2 2F.A ....|R-- .... ....
 G#3|..|G#1 2A.F ....|B-3 2F97 ....|G#5 2F.F ....
....|..|C-4 AF.F ....|F#3 2F6F ....|G#4 2F.7 ....
....|..|B-8 JF.F ....|A#2 2F.7 ....|R-- .... ....
 G#4|..|G#2 2A.F ....|C#4 2F1A ....|F#5 2F.F ....
....|..|A#1 2F.7 ....|--- .... ....|R-- .... ....
....|..|C-4 AF.7 ....|G#3 2F77 ....|G#5 2F.F ....
....|..|C-5 VF.F ....|--- .... ....|A#4 2F.7 ....
....|..|A#2 2F.7 ....|F#3 2F6F ....|F#5 2F.F ....
....|..|R-- .... ....|F#1 2F.A ....|R-- .... ....
....|..|A#1 2F.7 ....|--- .... ....|C#5 2F.7 ....
....|..|B-8 JF.F ....|G#3 2F77 ....|--- .... ....
....|..|C#2 2F.7 ....|A#3 2F1F ....|G#5 2F.F ....
....|..|C-4 AF.F ....|D#4 2F.F ....|D#5 2F.7 ....
 G#3|..|G#1 2A.F ....|G#2 2F.F ....|--- .... ....
....|..|C-4 AF.F ....|C#3 2F.F ....|--- .... ....
 C#4|..|C#2 2A.F ....|G-2 2F.A ....|--- .... ....
....|..|C-4 AF.F ....|B-3 2F6F ....|R-- .... ....
 C#4|..|C#3 2C.F ....|A#2 2F.7 ....|R-- .... ....
....|..|B-8 JF.F ....|D#2 2F.7 ....|F#5 2F.F ....
....|..|C#2 2F.7 ....|F#3 2F6A ....|R-- .... ....
....|..|D#2 2F.7 ....|--- .... ....|G#5 2F.F ....
....|..|C-4 AF.7 ....|C#4 2F17 ....|F#5 2F.F ....
....|..|C-4 BF.F ....|--- .... ....|F#5 2F.F ....
 E-3|..|E-1 2A.F ....|--- .... ....|G#5 2F.A ....
 E-4|..|E-2 2A.F ....|--- .... ....|R-- .... ....
....|..|R-- .... ....|D#4 2FC7 ....|F#5 2F.A ....
....|..|B-8 JF.F ....|F#1 2F.7 ....|--- .... ....
 F-3|..|F-1 2A.F ....|B-3 2F6F ....|R-- .... ....
....|..|C-4 AF.F ....|C#2 2F.F ....|--- .... ....
 F-4|..|F-2 2A.F ....|F#2 2F.7 ....|G#5 2F.A ....
....|..|C-4 AF.F ....|F#2 2F.F ....|--- .... ....
 F#3|..|F#1 2A.F ....|G#2 2F.A ....|--- .... ....
....|..|C-4 AF.F ....|A#3 2FAF ....|D#5 2F.F ....
 F#4|..|F#2 2A.F ....|G-2 2F.7 ....|D#5 2F.F ....
....|..|B-8 JF.F ....|G#2 2F.7 ....|--- .... ....
....|..|G-2 2F.7 ....|--- .... ....|R-- .... ....
....|..|G#1 2F.7 ....|--- .... ....|F#5 2F.F ....
....|..|C-4 BF.F ....|F#3 2F67 ....|R-- .... ....
....|..|B-8 JF.7 ....|--- .... ....|R-- .... ....
....|..|G#2 2F.7 ....|--- .... ....|F#5 2F.F ....
....|..|R-- .... ....|--- .... ....|R-- .... ....
....|..|B-8 JF.F ....|--- .... ....|G#5 2F.7 ....
....|..|C-5 VF.7 ....|C#4 2FBF ....|R-- .... ....
....|..|R-- .... ....|F#3 2F67 ....|G#5 2F.F ....
....|..|C-4 AF.F ....|A#3 2F.F ....|--- .... ....
....|..|C-4 AF.F ....|C-3 2F.F ....|R-- .... ....
 G-3|..|G-1 2A.F ....|C#2 2F.A ....|--- .... ....
 C-4|..|C-2 2A.F ....|A#3 2F17 ....|G#5 2F.7 ....
....|..|C-4 AF.F ....|A#3 2F1F ....|--- .... ....
 C-4|..|C-3 2C.F ....|G#2 2F.7 ....|G#5 2F.F ....
....|..|C-4 AF.7 ....|C#3 2F.7 ....|D#5 2F.F ....
....|..|C#2 2F.7 ....|--- .... ....|D#5 2F.A ....
....|..|C-4 AF.7 ....|B-3 2F67 ....|F#5 2F.F ....
....|..|C-4 BF.F ....|--- .... ....|R-- .... ....
....|..|B-8 JF.7 ....|--- .... ....|F#5 2F.7 ....
....|..|R-- .... ....|--- .... ....|R-- .... ....
....|..|R-- .... ....|--- .... ....|D#5 2F.F ....
....|..|--- .... ....|--- .... ....|F#5 2F.7 ....
....|..|C-4 BF.7 ....|A#3 2F1F ....|F#5 2F.7 ....
....|..|E-1 2F.7 ....|C-4 2FDF ....|R-- .... ....
....|..|C-4 AF.F ....|C-2 2F.F ....|F#5 2F.F ....
....|..|C-4 AF.F ....|B-2 2F.F ....|R-- .... ....
 C-4|..|C-2 2A.F ....|A#3 2F.A ....|--- .... ....
 B-3|..|B-1 2A.F ....|B-3 2F67 ....|D#5 2F.F ....
....|..|C-4 AF.F ....|A#3 2F3F ....|--- .... ....
 B-4|..|B-2 2A.F ....|--- .... ....|R-- .... ....
....|..|C-4 AF.7 ....|F#2 2F.7 ....|--- .... ....
....|..|F#1 2F.7 ....|--- .... ....|G#5 2F.A ....
....|..|C-4 AF.7 ....|A#3 2FA7 ....|F#5 2F.F ....
....|..|C-4 BF.F ....|--- .... ....|D#5 2F.7 ....
....|..|B-8 JF.7 ....|--- .... ....|F#5 2F.A ....
....|..|R-- .... ....|--- .... ....|D#5 2F.F ....
....|..|--- .... ....|--- .... ....|F#5 2F.7 ....
....|..|C-4 BF.7 ....|--- .... ....|R-- .... ....
....|..|R-- .... ....|--- .... ....|R-- .... ....
....|..|--- .... ....|D#4 2FCF ....|F#5 2F.F ....
....|..|C-4 AF.F ....|B-1 2F.F ....|--- .... ....

[Pattern15]
....|..|C-4 AF.F ....|A#2 2F.F ....|R-- .... ....
 B-3|..|B-1 2A.F ....|C#4 2FB7 ....|F#5 2F.A ....
 A#3|..|A#1 2A.F ....|B-2 2F.A ....|G#5 2F.7 ....
....|..|C-5 VF.F ....|G#3 2F7F ....|D#5 2F.F ....
....|..|C-4 AF.F ....|C-3 2F.7 ....|R-- .... ....
 A#3|..|A#2 2C.F ....|A#3 2F3A ....|--- .... ....
....|..|C-2 2F.7 ....|--- .... ....|F#5 2F.F ....
....|..|C-4 AF.F ....|A#3 2F17 ....|--- .... ....
....|..|C-4 BF.F ....|--- .... ....|G#5 2F.7 ....
 A#3|..|A#1 2A.F ....|--- .... ....|D#5 2F.7 ....
 A#3|..|A#1 2A.F ....|--- .... ....|G#5 2F.F ....
....|..|C-5 VF.F ....|--- .... ....|F#5 2F.7 ....
....|..|C-4 AF.F ....|G#3 2F7F ....|R-- .... ....
 A#3|..|A#2 2C.F ....|--- .... ....|--- .... ....
....|..|--- .... ....|F#4 2F.F ....|R-- .... ....
 A#3|..|A#2 2C.F ....|A#2 2F.F ....|D#5 2F.7 ....
....|..|C-4 AF.F ....|B-1 2F.F ....|F#5 2F.F ....
 B-3|..|B-1 2A.F ....|A#3 2F17 ....|--- .... ....
....|..|C-4 LF.F ....|A#3 2F3F ....|--- .... ....
....|..|C-4 LF.F ....|C-2 2F.7 ....|F#5 2F.7 ....
....|..|C-4 AF.F ....|B-2 2F.7 ....|D#5 2F.F ....
 B-3|..|B-1 2A.F ....|G#3 2F7A ....|D#5 2F.A ....
....|..|C-4 LF.F ....|--- .... ....|D#5 2F.7 ....
....|..|C-4 AF.7 ....|A#3 2F37 ....|R-- .... ....
....|..|C-4 BF.F ....|--- .... ....|R-- .... ....
....|..|R-- .... ....|--- .... ....|--- .... ....
....|..|C-4 LF.F ....|--- .... ....|R-- .... ....
....|..|A#1 2F.A ....|--- .... ....|F#5 2F.7 ....
....|..|B-8 JF.F ....|B-3 2F9F ....|R-- .... ....
....|..|C-5 VF.A ....|--- .... ....|--- .... ....
....|..|C-4 AF.F ....|F#4 2F.F ....|D#5 2F.7 ....
 B-3|..|B-1 2A.F ....|B-1 2F.F ....|--- .... ....
....|..|C-4 AF.F ....|D-2 2F.F ....|F-5 2F.F ....
 D-4|..|D-2 2A.F ....|A#2 2F.A ....|--- .... ....
....|..|C-4 LF.F ....|G#3 2F7F ....|F#5 2F.7 ....
 D-4|..|D-2 2A.F ....|B-1 2F.7 ....|R-- .... ....
....|..|C-4 AF.F ....|G#3 2F7F ....|D-5 2F.F ....
 F-4|..|F-2 2A.F ....|--- .... ....|--- .... ....
....|..|C-4 LF.F ....|--- .... ....|R-- .... ....
 F-4|..|F-2 2A.F ....|A#3 2FEF ....|D#5 2F.7 ....
....|..|C-4 BF.F ....|G#3 2F7F ....|B-4 2F.F ....
 D-4|..|D-2 2A.F ....|--- .... ....|R-- .... ....
....|..|C-4 LF.F ....|--- .... ....|F#5 2F.7 ....
....|..|C-4 LF.F ....|--- .... ....|--- .... ....
....|..|B-8 JF.F ....|R-- .... ....|R-- .... ....
....|..|A#1 2F.7 ....|--- .... ....|--- .... ....
....|..|C-4 LF.F ....|B-3 2F9A ....|G#5 2F.7 ....
....|..|C-4 LF.F ....|--- .... ....|--- .... ....
....|..|C-4 AF.F ....|D#2 2F.F ....|C#5 2F.F ....
 A#3|..|A#1 2A.F ....|B-1 2F.A ....|--- .... ....
....|..|C-4 LF.F ....|A#3 2F8F ....|R-- .... ....
....|..|C-4 AF.F ....|A#2 2F.7 ....|--- .... ....
 D#4|..|D#2 2A.F ....|B-1 2F.7 ....|C#5 2F.F ....
 D#4|..|D#2 2A.F ....|--- .... ....|R-- .... ....
....|..|C-4 LF.F ....|A#3 2F37 ....|D#5 2F.F ....
....|..|C-4 BF.F ....|--- .... ....|--- .... ....
 F#3|..|F#1 2A.F ....|--- .... ....|D#5 2F.7 ....
....|..|B-1 2F.7 ....|A#3 2FEA ....|R-- .... ....
....|..|C-4 LF.F ....|G#3 2F7A ....|F-5 2F.F ....
....|..|B-8 JF.F ....|--- .... ....|R-- .... ....
 F#3|..|F#1 2A.F ....|C#4 2F1F ....|--- .... ....
 G-3|..|G-1 2A.F ....|--- .... ....|F#5 2F.F ....
....|..|C-4 AF.F ....|D#2 2F.F ....|R-- .... ....
....|..|C-4 AF.F ....|G#1 2F.F ....|--- .... ....
 G-3|..|G-1 2A.F ....|B-3 2F97 ....|--- .... ....
 G#3|..|G#1 2A.F ....|--- .... ....|--- .... ....
....|..|C-4 LF.F ....|G#3 2FAF ....|C#5 2F.A ....
....|..|C-4 AF.F ....|B-1 2F.7 ....|D#5 2F.F ....
 G#3|..|G#1 2A.F ....|D-2 2F.7 ....|F-5 2F.7 ....
 G#3|..|G#1 2A.F ....|--- .... ....|D#5 2F.F ....
....|..|C-4 LF.F ....|D#4 2FCF ....|C#5 2F.A ....
....|..|C-4 BF.F ....|G#3 2F7F ....|R-- .... ....
....|..|C-4 AF.7 ....|G#3 2F77 ....|D-5 2F.7 ....
....|..|C-4 LF.F ....|--- .... ....|D#5 2F.F ....
 A#3|..|A#1 2A.F ....|--- .... ....|R-- .... ....
....|..|C-3 RF.F ....|A#3 2FE7 ....|R-- .... ....
....|..|C-4 BF.7 ....|G#3 2F77 ....|B-4 2F.7 ....
....|..|C-4 LF.F ....|--- .... ....|R-- .... ....
....|..|C-4 LF.7 ....|F-4 2F.F ....|--- .... ....
....|..|C-4 AF.F ....|B-1 2F.F ....|G#5 2F.F ....
 B-3|..|B-1 2A.F ....|R-- .... ....|R-- .... ....
....|..|C-4 LF.F ....|G#1 2F.A ....|--- .... ....
....|..|C-4 LF.F ....|A#3 2F3F ....|--- .... ....
....|..|C-4 AF.F ....|--- .... ....|F#5 2F.F ....
 B-3|..|B-1 2A.F ....|D#2 2F.7 ....|C#5 2F.7 ....
....|..|C-4 LF.F ....|--- .... ....|D#5 2F.A ....
....|..|C-4 LF.F ....|A#3 2F87 ....|R-- .... ....
....|..|C-4 BF.F ....|--- .... ....|D#5 2F.A ....
....|..|D#2 2F.7 ....|D#4 2FCA ....|C#5 2F.7 ....
....|..|C-4 LF.F ....|G#3 2F7A ....|--- .... ....
....|..|C-4 LF.7 ....|--- .... ....|D#5 2F.7 ....
....|..|B-8 JF.F ....|--- .... ....|D#5 2F.A ....
....|..|F#1 2F.7 ....|B-3 2F9F ....|R-- .... ....
....|..|C-4 LF.F ....|--- .... ....|R-- .... ....
....|..|C-4 AF.F ....|B-1 2F.F ....|F-5 2F.7 ....
....|..|C-4 AF.F ....|D-2 2F.F ....|F-5 2F.F ....

[Pattern16]
 B-3|..|B-1 2A.F ....|C#4 2F17 ....|--- .... ....
....|..|C-4 LF.F ....|B-1 2F.A ....|F#5 2F.7 ....
....|..|C-4 LF.F ....|G#3 2F7F ....|R-- .... ....
....|..|C-4 AF.F ....|G#3 2F7F ....|D-5 2F.F ....
 D-4|..|D-2 2A.F ....|A#3 2F3A ....|--- .... ....
....|..|C-4 LF.F ....|--- .... ....|F#5 2F.A ....
....|..|C-4 LF.F ....|G#3 2FA7 ....|--- .... ....
....|..|C-4 BF.F ....|G#3 2F7F ....|B-4 2F.F ....
 D-4|..|D-2 2A.F ....|--- .... ....|R-- .... ....
....|..|C-4 LF.F ....|--- .... ....|D#5 2F.7 ....
....|..|C-4 LF.7 ....|D#4 2FC7 ....|R-- .... ....
....|..|B-8 JF.F ....|F#4 2F.F ....|--- .... ....
....|..|R-- .... ....|R-- .... ....|--- .... ....
....|..|C-4 LF.F ....|--- .... ....|G#4 2F.F ....
 D-4|..|D-2 2A.F ....|B-3 2F9A ....|--- .... ....
....|..|C-4 AF.F ....|D#2 2F.F ....|F#5 2F.F ....
 D#4|..|D#2 2A.F ....|B-1 2F.A ....|--- .... ....
....|..|C-4 LF.F ....|A#3 2F8F ....|F-5 2F.F ....
 D#4|..|D#2 2A.F ....|F-4 2F.7 ....|--- .... ....
....|..|C-4 AF.F ....|B-1 2F.7 ....|G#5 2F.7 ....
 D#4|..|D#2 2A.F ....|G#3 2F7A ....|R-- .... ....
....|..|C-4 LF.F ....|G#3 2F7A ....|D#5 2F.F ....
....|..|C-4 LF.F ....|A#3 2F37 ....|--- .... ....
....|..|C-4 BF.F ....|--- .... ....|F#5 2F.7 ....
 F#3|..|F#1 2A.F ....|--- .... ....|--- .... ....
....|..|C-4 LF.F ....|G#3 2F7A ....|F-5 2F.F ....
....|..|C-4 LF.F ....|--- .... ....|R-- .... ....
....|..|B-8 JF.F ....|C#4 2F1F ....|R-- .... ....
 F#3|..|F#1 2A.F ....|--- .... ....|R-- .... ....
....|..|C-4 AF.F ....|D#2 2F.F ....|F#5 2F.F ....
....|..|C-4 LF.F ....|R-- .... ....|--- .... ....
....|..|C-4 AF.F ....|G#1 2F.F ....|G#4 2F.A ....
 G-3|..|G-1 2A.F ....|B-3 2F97 ....|--- .... ....
....|..|C-4 LF.F ....|G#3 2FAF ....|F-5 2F.F ....
....|..|C-4 LF.F ....|B-1 2F.7 ....|--- .... ....
....|..|C-4 AF.F ....|F#4 2F.F ....|D#5 2F.F ....
 G#3|..|G#1 2A.F ....|G#1 2F.F ....|--- .... ....
....|..|C-4 LF.F ....|A#3 2F4F ....|F-5 2F.F ....
....|..|C-4 LF.F ....|G#3 2F77 ....|R-- .... ....
....|..|C-4 BF.F ....|A#3 2FEF ....|D-5 2F.7 ....
 A#3|..|A#1 2A.F ....|A#3 2FEF ....|--- .... ....
....|..|C-4 LF.F ....|--- .... ....|R-- .... ....
....|..|C-3 RF.F ....|A#3 2F4F ....|R-- .... ....
 A#3|..|A#1 2A.F ....|G#3 2F77 ....|D#5 2F.F ....
....|..|D-2 2F.7 ....|--- .... ....|--- .... ....
....|..|C-4 LF.F ....|C#4 2F1A ....|R-- .... ....
....|..|C-4 AF.F ....|B-1 2F.F ....|F#5 2F.F ....
....|..|C-4 LF.F ....|F#4 2F.7 ....|F#5 2F.A ....
 B-3|..|B-1 2A.F ....|R-- .... ....|--- .... ....
....|..|C-4 LF.F ....|A#3 2F3F ....|G#4 2F.7 ....
....|..|C-4 AF.F ....|--- .... ....|D#5 2F.F ....
 B-3|..|B-1 2A.F ....|D#2 2F.7 ....|F#5 2F.7 ....
....|..|D#2 2F.7 ....|--- .... ....|--- .... ....
....|..|C-4 LF.F ....|A#3 2F87 ....|F-5 2F.7 ....
....|..|C-4 BF.F ....|G#1 2F.A ....|R-- .... ....
....|..|C-4 AF.7 ....|A#3 2F4A ....|R-- .... ....
....|..|D#2 2F.7 ....|--- .... ....|--- .... ....
....|..|C-4 LF.F ....|A#3 2FEA ....|D#5 2F.7 ....
....|..|B-8 JF.F ....|A#3 2FEA ....|--- .... ....
....|..|C-4 BF.7 ....|B-3 2F9F ....|R-- .... ....
....|..|F#1 2F.7 ....|A#3 2F4A ....|R-- .... ....
....|..|C-4 AF.F ....|B-1 2F.F ....|F-5 2F.7 ....
....|..|C-4 AF.F ....|B-2 2FCF ....|F-5 2F.F ....
 B-3|..|B-1 2A.F ....|D-2 2F.F ....|R-- .... ....
 D-4|..|D-2 2A.F ....|B-1 2F.A ....|F#5 2F.A ....
....|..|C-4 LF.F ....|G#3 2F7F ....|F#5 2F.7 ....
....|..|C-4 AF.F ....|G#3 2F7F ....|D-5 2F.F ....
 D-4|..|D-2 2A.F ....|G#1 2F.7 ....|--- .... ....
 F-4|..|F-2 2A.F ....|--- .... ....|D#5 2F.A ....
....|..|C-4 LF.F ....|G#3 2FA7 ....|F-5 2F.7 ....
....|..|C-4 BF.F ....|G#3 2F7F ....|B-4 2F.F ....
 F-4|..|F-2 2A.F ....|F#4 2F.7 ....|D#5 2F.7 ....
 D-4|..|D-2 2A.F ....|G#1 2F.7 ....|R-- .... ....
....|..|C-4 LF.F ....|A#3 2F47 ....|F-5 2F.7 ....
....|..|B-8 JF.F ....|F#4 2F.F ....|R-- .... ....
....|..|C-4 BF.7 ....|A#3 2FE7 ....|--- .... ....
....|..|C-4 LF.F ....|A#3 2FE7 ....|--- .... ....
 A#3|..|A#1 2A.F ....|B-3 2F9A ....|--- .... ....
....|..|C-4 AF.F ....|D#2 2F.F ....|C#5 2F.F ....
 D#4|..|D#2 2A.F ....|B-1 2F.A ....|D#5 2F.7 ....
....|..|C-4 LF.F ....|B-2 2FCA ....|R-- .... ....
....|..|C-4 LF.F ....|A#3 2F8F ....|C#5 2F.F ....
....|..|C-4 AF.F ....|B-1 2F.7 ....|F#5 2F.7 ....
 D#4|..|D#2 2A.F ....|G#3 2F7A ....|--- .... ....
....|..|C-4 LF.F ....|G#3 2F7A ....|D-5 2F.A ....
....|..|C-4 LF.F ....|A#3 2F37 ....|D#5 2F.F ....
....|..|C-4 BF.F ....|--- .... ....|D#5 2F.7 ....
 F#3|..|F#1 2A.F ....|--- .... ....|R-- .... ....
....|..|C-4 LF.F ....|G#3 2F7A ....|F-5 2F.F ....
 F#3|..|F#1 2A.F ....|--- .... ....|--- .... ....
....|..|B-8 JF.F ....|--- .... ....|R-- .... ....
 G-3|..|G-1 2A.F ....|C#4 2F1F ....|--- .... ....
....|..|C-4 LF.F ....|F#4 2F.F ....|F#5 2F.F ....
....|..|C-4 AF.F ....|D#2 2F.F ....|--- .... ....
....|..|C-4 AF.F ....|G#1 2F.F ....|--- .... ....
 G-3|..|G-1 2A.F ....|B-3 2F97 ....|--- .... ....

[Pattern17]
....|..|C-4 LF.F ....|D#2 2F.A ....|C#5 2F.A ....
....|..|C-4 LF.F ....|G#3 2FAF ....|R-- .... ....
....|..|C-4 AF.F ....|B-2 2FC7 ....|D#5 2F.F ....
 G#3|..|G#1 2A.F ....|D-2 2F.7 ....|C#5 2F.A ....
....|..|C-4 LF.F ....|--- .... ....|D#5 2F.F ....
....|..|C-4 LF.F ....|F#4 2F.F ....|--- .... ....
....|..|C-4 BF.F ....|G#3 2F7F ....|D-5 2F.7 ....
....|..|D-2 2F.7 ....|--- .... ....|D#5 2F.A ....
....|..|C-4 LF.F ....|--- .... ....|D#5 2F.F ....
....|..|C-4 LF.F ....|--- .... ....|R-- .... ....
....|..|C-3 RF.F ....|G#3 2F77 ....|B-4 2F.7 ....
 A#3|..|A#1 2A.F ....|--- .... ....|--- .... ....
....|..|C-4 LF.F ....|D-4 2FCF ....|D#5 2F.F ....
....|..|C-4 LF.F ....|R-- .... ....|--- .... ....
....|..|C-4 AF.F ....|B-1 2F.F ....|R-- .... ....
 B-3|..|B-1 2A.F ....|R-- .... ....|--- .... ....
....|..|C-4 LF.F ....|B-3 2F9F ....|R-- .... ....
....|..|C-4 LF.F ....|--- .... ....|--- .... ....
....|..|C-4 AF.F ....|D#2 2F.7 ....|A#4 2F.F ....
 B-3|..|B-1 2A.F ....|G#3 2FAA ....|R-- .... ....
....|..|C-4 LF.F ....|--- .... ....|G#4 2F.F ....
....|..|C-4 LF.F ....|D#4 2FAF ....|C#5 2F.7 ....
....|..|C-4 BF.F ....|B-3 2F9F ....|R-- .... ....
....|..|D#2 2F.7 ....|F#4 2F.A ....|--- .... ....
....|..|C-4 LF.F ....|G#3 2F7A ....|A#4 2F.F ....
....|..|C-4 LF.F ....|--- .... ....|D#5 2F.7 ....
....|..|B-8 JF.F ....|--- .... ....|D#5 2F.A ....
....|..|F#1 2F.7 ....|--- .... ....|C#5 2F.F ....
....|..|C-4 AF.F ....|F#4 2F4F ....|F-5 2F.7 ....
....|..|C-4 LF.F ....|B-1 2F.F ....|--- .... ....
....|..|C-4 AF.F ....|A#1 2F.F ....|A#4 2F.F ....
 B-3|..|B-1 2A.F ....|C#4 2F17 ....|--- .... ....
....|..|C-4 LF.F ....|A#3 2F9F ....|F#5 2F.7 ....
....|..|C-4 LF.F ....|D#2 2F.7 ....|--- .... ....
....|..|C-4 AF.F ....|G#1 2F.7 ....|R-- .... ....
 D-4|..|D-2 2A.F ....|--- .... ....|--- .... ....
....|..|C-4 LF.F ....|--- .... ....|A#4 2F.A ....
....|..|C-4 BF.F ....|G#3 2FA7 ....|R-- .... ....
 D-4|..|D-2 2A.F ....|--- .... ....|D#5 2F.7 ....
....|..|G#1 2F.7 ....|D#4 2FAA ....|--- .... ....
....|..|C-4 LF.F ....|B-3 2F9A ....|G#4 2F.F ....
....|..|B-8 JF.F ....|F#4 2F.7 ....|F#4 2F.F ....
....|..|C-4 BF.7 ....|D-4 2FDF ....|R-- .... ....
....|..|C-4 LF.A ....|R-- .... ....|R-- .... ....
....|..|C-4 LF.F ....|--- .... ....|G#4 2F.F ....
....|..|C-4 AF.F ....|D#2 2F.F ....|C#5 2F.A ....
 D-4|..|D-2 2A.F ....|F#4 2F4A ....|R-- .... ....
 D#4|..|D#2 2A.F ....|B-1 2F.A ....|--- .... ....
....|..|C-4 LF.F ....|A#3 2F8F ....|A#4 2F.F ....
....|..|C-4 AF.F ....|R-- .... ....|R-- .... ....
 D#4|..|D#2 2A.F ....|B-1 2F.7 ....|--- .... ....
 D#4|..|D#2 2A.F ....|--- .... ....|--- .... ....
....|..|C-4 LF.F ....|B-3 2F97 ....|C#5 2F.F ....
....|..|C-4 BF.F ....|--- .... ....|R-- .... ....
 F#3|..|F#1 2A.F ....|--- .... ....|A#4 2F.7 ....
....|..|B-1 2F.7 ....|--- .... ....|D#5 2F.F ....
....|..|C-4 LF.F ....|--- .... ....|G#4 2F.7 ....
....|..|B-8 JF.F ....|D#4 2FA7 ....|R-- .... ....
 F#3|..|F#1 2A.F ....|C#4 2F1F ....|R-- .... ....
 G-3|..|G-1 2A.F ....|--- .... ....|F#4 2F.A ....
....|..|C-4 AF.F ....|D#2 2F.F ....|F#5 2F.F ....
....|..|C-4 AF.F ....|G#1 2F.F ....|R-- .... ....
 G-3|..|G-1 2A.F ....|--- .... ....|G#4 2F.A ....
....|..|C-4 LF.F ....|D#2 2F.A ....|C#5 2F.7 ....
....|..|C-4 LF.F ....|G#3 2FAF ....|R-- .... ....
....|..|C-4 AF.F ....|B-1 2F.7 ....|--- .... ....
 G#3|..|G#1 2A.F ....|A#1 2F.7 ....|A#4 2F.7 ....
....|..|C-4 LF.F ....|--- .... ....|R-- .... ....
....|..|C-4 LF.F ....|A#3 2F97 ....|--- .... ....
....|..|C-4 BF.F ....|A#1 2F.F ....|--- .... ....
 A#3|..|A#1 2A.F ....|--- .... ....|R-- .... ....
....|..|C-4 LF.F ....|--- .... ....|R-- .... ....
 A#3|..|A#1 2A.F ....|A#3 2F4F ....|--- .... ....
....|..|C-3 RF.F ....|--- .... ....|D#5 2F.A ....
....|..|D-2 2F.7 ....|--- .... ....|--- .... ....
....|..|C-4 LF.F ....|--- .... ....|R-- .... ....
....|..|C-4 LF.7 ....|G#4 2F.F ....|G#4 2F.7 ....
....|..|C-4 AF.F ....|B-1 2F.F ....|F#5 2F.F ....
 B-3|..|B-1 2A.F ....|D-4 2FD7 ....|F#5 2F.A ....
....|..|R-- .... ....|R-- .... ....|--- .... ....
....|..|C-4 LF.F ....|A#3 2F3F ....|G#4 2F.7 ....
....|..|C-4 AF.F ....|D#2 2F.7 ....|D#5 2F.F ....
 B-3|..|B-1 2A.F ....|G#3 2FAA ....|R-- .... ....
....|..|C-4 LF.F ....|--- .... ....|--- .... ....
....|..|C-4 LF.F ....|A#3 2F87 ....|A#4 2F.7 ....
....|..|C-4 BF.F ....|--- .... ....|R-- .... ....
....|..|D#2 2F.7 ....|--- .... ....|--- .... ....
....|..|C-4 LF.F ....|A#1 2F.A ....|--- .... ....
....|..|C-4 LF.7 ....|--- .... ....|C#5 2F.7 ....
....|..|B-8 JF.F ....|--- .... ....|R-- .... ....
....|..|F#1 2F.7 ....|B-3 2F9F ....|--- .... ....
....|..|C-4 LF.F ....|D#4 2FCF ....|D#5 2F.7 ....
....|..|C-4 AF.F ....|B-1 2F.F ....|--- .... ....
....|..|C-4 AF.F ....|D-2 2F.F ....|F-5 2F.F ....
 B-3|..|B-1 2A.F ....|C#4 2F17 ....|--- .... ....
....|..|C-4 LF.F ....|B-1 2F.A ....|F#5 2F.A ....

[Pattern18]
....|..|C-4 LF.F ....|G#3 2F7F ....|F#5 2F.7 ....
....|..|C-4 AF.F ....|G#3 2F7F ....|D-5 2F.F ....
 D-4|..|D-2 2A.F ....|A#3 2F3A ....|--- .... ....
....|..|C-4 LF.F ....|--- .... ....|D#5 2F.A ....
 F-4|..|F-2 2A.F ....|A#3 2FEF ....|R-- .... ....
....|..|C-4 BF.F ....|G#3 2F7F ....|B-4 2F.F ....
 F-4|..|F-2 2A.F ....|--- .... ....|R-- .... ....
....|..|C-4 LF.F ....|--- .... ....|--- .... ....
 D-4|..|D-2 2A.F ....|--- .... ....|--- .... ....
....|..|B-8 JF.F ....|A#1 2F.7 ....|R-- .... ....
....|..|A#1 2F.7 ....|--- .... ....|--- .... ....
....|..|C-4 LF.F ....|--- .... ....|--- .... ....
....|..|C-4 LF.F ....|A#3 2F47 ....|--- .... ....
....|..|C-4 AF.F ....|D#2 2F.F ....|C#5 2F.F ....
 A#3|..|A#1 2A.F ....|B-1 2F.A ....|--- .... ....
....|..|C-4 LF.F ....|A#3 2F8F ....|F-5 2F.A ....
....|..|C-4 LF.F ....|G#4 2F.7 ....|R-- .... ....
....|..|C-4 AF.F ....|B-1 2F.7 ....|C#5 2F.F ....
 D#4|..|D#2 2A.F ....|G#3 2F7A ....|--- .... ....
....|..|C-4 LF.F ....|G#3 2F7A ....|D#5 2F.F ....
....|..|C-4 LF.F ....|A#3 2F37 ....|--- .... ....
....|..|C-4 BF.F ....|--- .... ....|D#5 2F.7 ....
 F#3|..|F#1 2A.F ....|A#3 2FEA ....|--- .... ....
....|..|C-4 LF.F ....|G#3 2F7A ....|F-5 2F.F ....
....|..|C-4 LF.F ....|--- .... ....|R-- .... ....
....|..|B-8 JF.F ....|--- .... ....|R-- .... ....
 F#3|..|F#1 2A.F ....|C#4 2F1F ....|--- .... ....
....|..|C-4 AF.F ....|D#2 2F.F ....|F#5 2F.F ....
....|..|C-4 LF.F ....|R-- .... ....|--- .... ....
....|..|C-4 AF.F ....|G#1 2F.F ....|--- .... ....
 G-3|..|G-1 2A.F ....|B-3 2F97 ....|--- .... ....
....|..|C-4 LF.F ....|G#3 2FAF ....|C#5 2F.A ....
....|..|C-4 AF.F ....|B-1 2F.7 ....|D#5 2F.F ....
 G#3|..|G#1 2A.F ....|D-2 2F.7 ....|F-5 2F.7 ....
 G#3|..|G#1 2A.F ....|--- .... ....|R-- .... ....
....|..|C-4 LF.F ....|D#4 2FCF ....|D#5 2F.F ....
....|..|C-4 BF.F ....|G#3 2F7F ....|--- .... ....
....|..|C-4 AF.7 ....|G#3 2F77 ....|D-5 2F.7 ....
....|..|D-2 2F.7 ....|--- .... ....|R-- .... ....
....|..|C-4 LF.F ....|--- .... ....|D#5 2F.F ....
....|..|C-3 RF.F ....|A#3 2FE7 ....|--- .... ....
 A#3|..|A#1 2A.F ....|G#3 2F77 ....|B-4 2F.7 ....
....|..|C-4 LF.F ....|--- .... ....|--- .... ....
....|..|C-4 LF.7 ....|F-4 2F.F ....|R-- .... ....
....|..|C-4 AF.F ....|B-1 2F.F ....|G#5 2F.F ....
 B-3|..|B-1 2A.F ....|R-- .... ....|R-- .... ....
....|..|C-4 LF.F ....|R-- .... ....|--- .... ....
....|..|C-4 LF.F ....|A#3 2F3F ....|--- .... ....
....|..|C-4 AF.F ....|--- .... ....|F#5 2F.F ....
 B-3|..|B-1 2A.F ....|D#2 2F.7 ....|C#5 2F.7 ....
 B-3|..|B-1 2A.F ....|--- .... ....|D#5 2F.A ....
....|..|C-4 LF.F ....|A#3 2F87 ....|R-- .... ....
....|..|C-4 BF.F ....|--- .... ....|R-- .... ....
....|..|C-4 AF.7 ....|D#4 2FCA ....|C#5 2F.7 ....
....|..|D#2 2F.7 ....|G#3 2F7A ....|--- .... ....
....|..|C-4 LF.F ....|--- .... ....|D#5 2F.7 ....
....|..|B-8 JF.F ....|--- .... ....|R-- .... ....
....|..|C-4 BF.7 ....|B-3 2F9F ....|R-- .... ....
....|..|F#1 2F.7 ....|--- .... ....|--- .... ....
....|..|C-4 AF.F ....|B-1 2F.F ....|F-5 2F.7 ....
....|..|C-4 AF.F ....|D-2 2F.F ....|F-5 2F.F ....
 B-3|..|B-1 2A.F ....|F-4 2F.A ....|R-- .... ....
....|..|C-4 LF.F ....|C#4 2F17 ....|G#5 2F.A ....
....|..|C-4 LF.F ....|G#3 2F7F ....|F#5 2F.7 ....
....|..|C-4 AF.F ....|G#3 2F7F ....|D-5 2F.F ....
 D-4|..|D-2 2A.F ....|G#1 2F.7 ....|--- .... ....
....|..|C-4 LF.F ....|--- .... ....|F#5 2F.A ....
....|..|C-4 LF.F ....|G#3 2FA7 ....|--- .... ....
....|..|C-4 BF.F ....|G#3 2F7F ....|B-4 2F.F ....
 D-4|..|D-2 2A.F ....|--- .... ....|R-- .... ....
....|..|C-4 LF.F ....|--- .... ....|R-- .... ....
....|..|C-4 LF.7 ....|D#4 2FC7 ....|D#5 2F.7 ....
....|..|B-8 JF.F ....|F#4 2F.F ....|--- .... ....
....|..|R-- .... ....|R-- .... ....|--- .... ....
....|..|C-4 LF.F ....|--- .... ....|R-- .... ....
 D-4|..|D-2 2A.F ....|B-3 2F9A ....|G#4 2F.F ....
....|..|C-4 AF.F ....|D#2 2F.F ....|F#5 2F.F ....
 D#4|..|D#2 2A.F ....|B-1 2F.A ....|R-- .... ....
....|..|C-4 LF.F ....|D-2 2F.A ....|R-- .... ....
....|..|C-4 LF.F ....|A#3 2F8F ....|F-5 2F.F ....
....|..|C-4 AF.F ....|B-1 2F.7 ....|G#5 2F.7 ....
 D#4|..|D#2 2A.F ....|G#3 2F7A ....|--- .... ....
....|..|C-4 LF.F ....|G#3 2F7A ....|D-5 2F.A ....
....|..|C-4 LF.F ....|A#3 2F37 ....|D#5 2F.F ....
....|..|C-4 BF.F ....|--- .... ....|F#5 2F.7 ....
 F#3|..|F#1 2A.F ....|--- .... ....|--- .... ....
....|..|C-4 LF.F ....|G#3 2F7A ....|F-5 2F.F ....
 F#3|..|F#1 2A.F ....|--- .... ....|R-- .... ....
....|..|B-8 JF.F ....|C#4 2F1F ....|R-- .... ....
 G-3|..|G-1 2A.F ....|--- .... ....|R-- .... ....
....|..|C-4 AF.F ....|D#2 2F.F ....|F#5 2F.F ....
 G-3|..|G-1 2A.F ....|R-- .... ....|--- .... ....
....|..|C-4 AF.F ....|G#1 2F.F ....|--- .... ....
 G#3|..|G#1 2A.F ....|B-3 2F97 ....|G#4 2F.A ....
....|..|C-4 LF.F ....|G#3 2FAF ....|F#5 2F.F ....
 G#3|..|G#1 2A.F ....|B-1 2F.7 ....|F-5 2F.F ....

[Pattern19]
....|..|C-4 AF.F ....|F#4 2F.F ....|D#5 2F.F ....
 G#3|..|G#1 2A.F ....|G#1 2F.F ....|F-5 2F.A ....
....|..|C-4 LF.F ....|A#3 2F4F ....|R-- .... ....
....|..|C-4 LF.F ....|G#3 2F77 ....|F-5 2F.F ....
....|..|C-4 BF.F ....|A#3 2FEF ....|D-5 2F.7 ....
 A#3|..|A#1 2A.F ....|A#3 2FEF ....|D#5 2F.A ....
....|..|C-4 LF.F ....|--- .... ....|R-- .... ....
....|..|C-4 LF.F ....|A#1 2F.F ....|--- .... ....
....|..|C-3 RF.F ....|A#3 2F4F ....|D#5 2F.F ....
 A#3|..|A#1 2A.F ....|--- .... ....|--- .... ....
....|..|C-4 LF.F ....|C#4 2F1A ....|R-- .... ....
....|..|R-- .... ....|G#4 2F.F ....|R-- .... ....
....|..|C-4 AF.F ....|B-1 2F.F ....|F#5 2F.F ....
 B-3|..|B-1 2A.F ....|R-- .... ....|--- .... ....
....|..|C-4 LF.F ....|A#3 2F3F ....|--- .... ....
 B-3|..|B-1 2A.F ....|--- .... ....|G#4 2F.7 ....
....|..|C-4 AF.F ....|D#2 2F.7 ....|D#5 2F.F ....
....|..|D#2 2F.7 ....|--- .... ....|F-5 2F.A ....
....|..|C-4 LF.F ....|F#4 2F.A ....|R-- .... ....
....|..|C-4 LF.F ....|A#3 2F87 ....|F-5 2F.7 ....
....|..|C-4 BF.F ....|A#3 2F4A ....|R-- .... ....
....|..|D#2 2F.7 ....|--- .... ....|F-5 2F.A ....
....|..|C-4 LF.F ....|A#3 2FEA ....|--- .... ....
....|..|C-4 LF.F ....|A#3 2FEA ....|D#5 2F.7 ....
....|..|B-8 JF.F ....|B-3 2F9F ....|R-- .... ....
....|..|F#1 2F.7 ....|A#1 2F.A ....|--- .... ....
....|..|C-4 AF.F ....|B-1 2F.F ....|F-5 2F.7 ....
....|..|C-4 AF.F ....|B-2 2FCF ....|F-5 2F.F ....
 B-3|..|B-1 2A.F ....|D-2 2F.F ....|R-- .... ....
 D-4|..|D-2 2A.F ....|G#4 2F.A ....|--- .... ....
....|..|C-4 LF.F ....|G#3 2F7F ....|F#5 2F.7 ....
....|..|C-4 AF.F ....|G#3 2F7F ....|D-5 2F.F ....
 D-4|..|D-2 2A.F ....|G#3 2F7F ....|--- .... ....
 F-4|..|F-2 2A.F ....|--- .... ....|--- .... ....
....|..|C-4 LF.F ....|G#3 2FA7 ....|F#5 2F.7 ....
....|..|C-4 BF.F ....|G#3 2F7F ....|B-4 2F.F ....
 F-4|..|F-2 2A.F ....|F#4 2F.7 ....|D#5 2F.7 ....
 D-4|..|D-2 2A.F ....|G#1 2F.7 ....|R-- .... ....
....|..|C-4 LF.F ....|A#3 2F47 ....|R-- .... ....
....|..|B-8 JF.F ....|--- .... ....|F-5 2F.7 ....
....|..|C-4 BF.7 ....|A#3 2FE7 ....|--- .... ....
....|..|C-4 LF.F ....|A#3 2FE7 ....|--- .... ....
 A#3|..|A#1 2A.F ....|B-3 2F9A ....|--- .... ....
....|..|C-4 AF.F ....|D#2 2F.F ....|C#5 2F.F ....
 D#4|..|D#2 2A.F ....|A#3 2F47 ....|D#5 2F.7 ....
....|..|A#1 2F.7 ....|B-2 2FCA ....|R-- .... ....
....|..|C-4 LF.F ....|A#3 2F8F ....|C#5 2F.F ....
....|..|C-4 AF.F ....|G#4 2F.7 ....|R-- .... ....
 D#4|..|D#2 2A.F ....|B-1 2F.7 ....|F#5 2F.7 ....
....|..|C-4 LF.F ....|G#3 2F7A ....|D-5 2F.A ....
....|..|C-4 LF.F ....|A#3 2F37 ....|D#5 2F.F ....
....|..|C-4 BF.F ....|--- .... ....|--- .... ....
 F#3|..|F#1 2A.F ....|--- .... ....|D#5 2F.7 ....
....|..|C-4 LF.F ....|G#3 2F7A ....|F-5 2F.F ....
 F#3|..|F#1 2A.F ....|--- .... ....|--- .... ....
....|..|B-8 JF.F ....|--- .... ....|R-- .... ....
 G-3|..|G-1 2A.F ....|C#4 2F1F ....|--- .... ....
....|..|C-4 LF.F ....|--- .... ....|F#5 2F.F ....
....|..|C-4 AF.F ....|D#2 2F.F ....|--- .... ....
....|..|C-4 AF.F ....|G#1 2F.F ....|--- .... ....
 G-3|..|G-1 2A.F ....|B-3 2F97 ....|--- .... ....
....|..|C-4 LF.F ....|D#2 2F.A ....|C#5 2F.A ....
....|..|C-4 LF.F ....|G#3 2FAF ....|--- .... ....
....|..|C-4 AF.F ....|B-2 2FC7 ....|D#5 2F.F ....
 G#3|..|G#1 2A.F ....|D-2 2F.7 ....|C#5 2F.A ....
....|..|C-4 LF.F ....|--- .... ....|D#5 2F.F ....
....|..|C-4 LF.F ....|D#4 2FCF ....|--- .... ....
....|..|C-4 BF.F ....|G#3 2F7F ....|D-5 2F.7 ....
....|..|D-2 2F.7 ....|G#3 2F77 ....|D#5 2F.A ....
....|..|C-4 LF.F ....|--- .... ....|D#5 2F.F ....
 A#3|..|A#1 2A.F ....|--- .... ....|R-- .... ....
....|..|C-3 RF.F ....|G#3 2F77 ....|B-4 2F.7 ....
....|..|F-2 2F.7 ....|--- .... ....|--- .... ....
....|..|C-4 LF.F ....|--- .... ....|D#5 2F.F ....
....|..|C-4 LF.F ....|R-- .... ....|--- .... ....
....|..|C-4 AF.F ....|B-1 2F.F ....|R-- .... ....
 B-3|..|B-1 2A.F ....|R-- .... ....|--- .... ....
....|..|C-4 LF.F ....|G#1 2F.A ....|R-- .... ....
....|..|C-4 LF.F ....|B-3 2F9F ....|--- .... ....
....|..|C-4 AF.F ....|D#2 2F.7 ....|A#4 2F.F ....
 B-3|..|B-1 2A.F ....|G#3 2FAA ....|--- .... ....
....|..|C-4 LF.F ....|--- .... ....|G#4 2F.F ....
....|..|C-4 LF.F ....|A#3 2F87 ....|C#5 2F.7 ....
....|..|C-4 BF.F ....|B-3 2F9F ....|R-- .... ....
....|..|D#2 2F.7 ....|D#4 2FCA ....|--- .... ....
....|..|C-4 LF.F ....|G#3 2F7A ....|A#4 2F.F ....
....|..|C-4 LF.7 ....|--- .... ....|D#5 2F.7 ....
....|..|B-8 JF.F ....|--- .... ....|D#5 2F.A ....
....|..|F#1 2F.7 ....|--- .... ....|R-- .... ....
....|..|C-4 AF.F ....|D#4 2FAF ....|C#5 2F.F ....
 B-3|..|B-1 2A.F ....|B-1 2F.F ....|--- .... ....
....|..|C-4 AF.F ....|A#1 2F.F ....|A#4 2F.F ....
 D-4|..|D-2 2A.F ....|C#4 2F17 ....|--- .... ....
....|..|C-4 LF.F ....|A#3 2F9F ....|F#5 2F.7 ....
 D-4|..|D-2 2A.F ....|D#2 2F.7 ....|--- .... ....
....|..|C-4 AF.F ....|G#1 2F.7 ....|R-- .... ....

[Pattern20]
 F-4|..|F-2 2A.F ....|B-3 2F9A ....|--- .... ....
....|..|C-4 LF.F ....|--- .... ....|A#4 2F.A ....
....|..|C-4 LF.F ....|G#3 2FA7 ....|--- .... ....
....|..|C-4 BF.F ....|--- .... ....|D#5 2F.7 ....
 D-4|..|D-2 2A.F ....|--- .... ....|--- .... ....
....|..|C-4 LF.F ....|B-3 2F9A ....|G#4 2F.F ....
....|..|C-4 LF.F ....|D#4 2FC7 ....|R-- .... ....
....|..|B-8 JF.F ....|G#3 2F77 ....|F#4 2F.F ....
....|..|--- .... ....|R-- .... ....|R-- .... ....
....|..|C-4 LF.F ....|--- .... ....|G#4 2F.F ....
....|..|C-4 LF.F ....|--- .... ....|--- .... ....
....|..|C-4 AF.F ....|D#2 2F.F ....|R-- .... ....
 D-4|..|D-2 2A.F ....|B-1 2F.A ....|--- .... ....
....|..|C-4 LF.F ....|A#3 2F8F ....|A#4 2F.F ....
....|..|C-4 LF.F ....|R-- .... ....|R-- .... ....
....|..|C-4 AF.F ....|B-1 2F.7 ....|--- .... ....
 D#4|..|D#2 2A.F ....|--- .... ....|--- .... ....
....|..|C-4 LF.F ....|--- .... ....|C#5 2F.F ....
....|..|C-5 VF.F ....|B-3 2F97 ....|R-- .... ....
....|..|C-4 BF.F ....|--- .... ....|A#4 2F.7 ....
 F#3|..|F#1 2A.F ....|--- .... ....|--- .... ....
....|..|C-4 LF.F ....|--- .... ....|D#5 2F.F ....
....|..|B-8 JF.F ....|--- .... ....|R-- .... ....
 F#3|..|F#1 2A.F ....|C#4 2F1F ....|R-- .... ....
 G-3|..|G-1 2A.F ....|--- .... ....|R-- .... ....
....|..|C-4 AF.F ....|D#2 2F.F ....|F#5 2F.F ....
....|..|C-4 AF.F ....|G#1 2F.F ....|R-- .... ....
 G-3|..|G-1 2A.F ....|--- .... ....|G#4 2F.A ....
 G#3|..|G#1 2A.F ....|--- .... ....|--- .... ....
....|..|C-5 VF.F ....|G#3 2FAF ....|C#5 2F.7 ....
....|..|C-4 AF.F ....|B-1 2F.7 ....|--- .... ....
 G#3|..|G#1 2A.F ....|A#1 2F.7 ....|A#4 2F.7 ....
....|..|C-5 VF.F ....|--- .... ....|R-- .... ....
....|..|C-5 VF.F ....|A#3 2F97 ....|--- .... ....
....|..|C-4 BF.F ....|G#2 2F2F ....|--- .... ....
 A#3|..|A#1 2A.F ....|A#1 2F.F ....|R-- .... ....
....|..|F-2 2F.7 ....|--- .... ....|R-- .... ....
....|..|C-5 VF.F ....|A#3 2F4F ....|--- .... ....
....|..|C-4 AF.F ....|--- .... ....|--- .... ....
 A#3|..|A#1 2A.F ....|--- .... ....|D#5 2F.A ....
....|..|C-4 LF.F ....|--- .... ....|R-- .... ....
....|..|C-4 LF.7 ....|G#4 2F.F ....|G#4 2F.7 ....
....|..|C-4 LF.7 ....|D#2 2F.F ....|R-- .... ....
....|..|B-8 JF.7 ....|D#2 2F.A ....|F#4 2F.7 ....
....|..|C-4 AF.A ....|R-- .... ....|--- .... ....
....|..|C-4 LF.7 ....|A#3 2F8F ....|G#4 2F.7 ....
....|..|C-4 LF.7 ....|--- .... ....|--- .... ....
....|..|C-4 AF.7 ....|D#2 2F.7 ....|R-- .... ....
....|..|D-2 2F.7 ....|--- .... ....|--- .... ....
....|..|C-4 LF.7 ....|A#3 2F87 ....|A#4 2F.7 ....
....|..|C-4 LF.7 ....|--- .... ....|R-- .... ....
....|..|C-4 AF.7 ....|--- .... ....|--- .... ....
....|..|D#2 2F.7 ....|G#2 2F2A ....|--- .... ....
....|..|C-4 LF.7 ....|A#1 2F.A ....|C#5 2F.7 ....
....|..|C-5 VF.7 ....|--- .... ....|R-- .... ....
....|..|C-4 BF.7 ....|A#3 2F4A ....|--- .... ....
....|..|F#1 2F.7 ....|C#4 2F1F ....|--- .... ....
....|..|C-4 LF.7 ....|D#2 2F.F ....|D#5 2F.7 ....
....|..|B-8 JF.7 ....|G#2 2F.F ....|R-- .... ....
....|..|F#1 2F.7 ....|C#4 2F17 ....|--- .... ....
....|..|G-1 2F.7 ....|D#2 2F.A ....|--- .... ....
....|..|C-4 AF.7 ....|G#3 2F9F ....|F#5 2F.7 ....
....|..|C-4 AF.7 ....|G#1 2F.7 ....|--- .... ....
....|..|G-1 2F.7 ....|A#3 2F8A ....|--- .... ....
....|..|G#1 2F.7 ....|--- .... ....|--- .... ....
....|..|C-5 VF.7 ....|G#3 2FA7 ....|R-- .... ....
....|..|C-4 AF.7 ....|--- .... ....|--- .... ....
....|..|G#1 2F.7 ....|G#3 2F9F ....|--- .... ....
....|..|C-5 VF.7 ....|--- .... ....|--- .... ....
....|..|C-5 VF.7 ....|--- .... ....|--- .... ....
....|..|C-4 BF.7 ....|G#2 2F27 ....|--- .... ....
....|..|A#1 2F.7 ....|A#1 2F.7 ....|--- .... ....
....|..|R-- .... ....|D#4 2FCF ....|--- .... ....
....|..|C-5 VF.7 ....|G#2 2F.F ....|--- .... ....
....|..|C-4 AF.7 ....|C#3 2F.F ....|--- .... ....
....|..|A#1 2F.7 ....|D#2 2F.A ....|--- .... ....
....|..|C-4 LF.7 ....|G#2 2F.A ....|--- .... ....
....|..|R-- .... ....|B-3 2F6F ....|--- .... ....
....|..|--- .... ....|D#2 2F.7 ....|--- .... ....
....|..|--- .... ....|G#3 2F9A ....|--- .... ....
....|..|--- .... ....|--- .... ....|--- .... ....
....|..|--- .... ....|A#3 2F87 ....|--- .... ....
....|..|--- .... ....|--- .... ....|--- .... ....
....|..|--- .... ....|--- .... ....|--- .... ....
....|..|--- .... ....|--- .... ....|--- .... ....
....|..|--- .... ....|G#3 2F9A ....|--- .... ....
....|..|--- .... ....|--- .... ....|--- .... ....
....|..|--- .... ....|B-3 2F6F ....|--- .... ....
....|..|--- .... ....|C#3 2F.F ....|--- .... ....
....|..|--- .... ....|--- .... ....|--- .... ....
....|..|--- .... ....|F#2 2F.F ....|--- .... ....
....|..|--- .... ....|G#2 2F.A ....|--- .... ....
....|..|--- .... ....|A#3 2FAF ....|--- .... ....
....|..|--- .... ....|D#2 2F.7 ....|--- .... ....
....|..|--- .... ....|G#2 2F.7 ....|--- .... ....
....|..|--- .... ....|B-3 2F6A ....|--- .... ....

[Pattern21]
....|..|--- .... ....|--- .... ....|--- .... ....
....|..|--- .... ....|G#3 2F97 ....|--- .... ....
....|..|--- .... ....|--- .... ....|--- .... ....
....|..|--- .... ....|--- .... ....|--- .... ....
....|..|--- .... ....|--- .... ....|--- .... ....
....|..|--- .... ....|--- .... ....|--- .... ....
....|..|--- .... ....|--- .... ....|--- .... ....
....|..|--- .... ....|G#3 2F97 ....|--- .... ....
....|..|B-8 JF.F ....|G-2 2F.F ....|--- .... ....
....|..|--- .... ....|B-3 2F6A ....|--- .... ....
....|..|B-8 JF.F ....|C-3 2F.F ....|--- .... ....
....|..|--- .... ....|--- .... ....|--- .... ....
....|..|B-8 JF.F ....|A#3 2F1F ....|--- .... ....
....|..|B-8 JF.F ....|G#2 2F.7 ....|--- .... ....
....|..|R-- .... ....|C#3 2F.7 ....|--- .... ....
....|..|--- .... ....|--- .... ....|--- .... ....
....|..|B-8 JF.F ....|--- .... ....|--- .... ....
....|..|B-8 JF.F ....|B-3 2F67 ....|--- .... ....
....|..|--- .... ....|--- .... ....|--- .... ....
....|..|--- .... ....|--- .... ....|--- .... ....
....|..|B-8 JF.F ....|--- .... ....|--- .... ....
....|..|B-8 JF.F ....|--- .... ....|--- .... ....
....|..|--- .... ....|--- .... ....|--- .... ....
....|..|--- .... ....|A#3 2F1F ....|--- .... ....
....|..|B-8 JF.F ....|F#2 2F.F ....|--- .... ....
....|..|B-8 JF.F ....|B-2 2F.F ....|--- .... ....
....|..|B-8 JF.A ....|G-2 2F.A ....|--- .... ....
....|..|--- .... ....|B-3 2F67 ....|--- .... ....
....|..|B-8 JF.F ....|A#3 2F3F ....|--- .... ....
....|..|B-8 JF.F ....|--- .... ....|--- .... ....
....|..|B-8 JF.A ....|F#2 2F.7 ....|--- .... ....
....|..|B-8 JF.A ....|--- .... ....|--- .... ....
....|..|B-8 JF.F ....|A#3 2FA7 ....|--- .... ....
....|..|B-8 JF.F ....|--- .... ....|--- .... ....
....|..|B-8 JF.A ....|--- .... ....|--- .... ....
....|..|B-8 JF.A ....|--- .... ....|--- .... ....
....|..|B-8 JF.F ....|--- .... ....|--- .... ....
....|..|B-8 JF.F ....|--- .... ....|--- .... ....
....|..|B-8 JF.A ....|--- .... ....|--- .... ....
....|..|B-8 JF.A ....|--- .... ....|--- .... ....
....|..|B-8 JF.F ....|F#4 2F.F ....|--- .... ....
....|..|B-8 JF.F ....|A#2 2F.F ....|--- .... ....
....|..|B-8 JF.A ....|F#2 2F.A ....|--- .... ....
....|..|B-8 JF.A ....|B-2 2F.A ....|--- .... ....
....|..|B-8 JF.F ....|G#3 2F7F ....|--- .... ....
....|..|B-8 JF.F ....|--- .... ....|--- .... ....
....|..|B-8 JF.7 ....|C-3 2F.7 ....|--- .... ....
....|..|B-8 JF.A ....|--- .... ....|--- .... ....
....|..|B-8 JF.F ....|A#3 2F17 ....|--- .... ....
....|..|B-8 JF.F ....|G#3 2F7F ....|--- .... ....
....|..|R-- .... ....|--- .... ....|--- .... ....
....|..|B-8 JF.A ....|A#3 2FEF ....|--- .... ....
....|..|B-8 JF.F ....|--- .... ....|--- .... ....
....|..|B-8 JF.F ....|G#3 2F7F ....|--- .... ....
....|..|B-8 JF.A ....|--- .... ....|--- .... ....
....|..|B-8 JF.A ....|R-- .... ....|--- .... ....
....|..|C-3 RF.F ....|A#1 2F.F ....|--- .... ....
....|..|B-8 JF.F ....|D#2 2F.F ....|--- .... ....
....|..|B-8 JF.A ....|F#4 2F.A ....|--- .... ....
....|..|B-8 JF.A ....|A#3 2F17 ....|--- .... ....
....|..|B-8 JF.F ....|A#3 2F8F ....|--- .... ....
....|..|B-8 JF.F ....|B-2 2F.7 ....|--- .... ....
....|..|B-8 JF.A ....|G#3 2F7A ....|--- .... ....
....|..|B-8 JF.A ....|--- .... ....|--- .... ....
....|..|B-8 JF.F ....|A#3 2F37 ....|--- .... ....
....|..|B-8 JF.F ....|--- .... ....|--- .... ....
....|..|B-8 JF.A ....|--- .... ....|--- .... ....
....|..|B-8 JF.A ....|G#3 2F7A ....|--- .... ....
....|..|B-8 JF.F ....|--- .... ....|--- .... ....
....|..|B-8 JF.F ....|A#3 2FEA ....|--- .... ....
....|..|B-8 JF.A ....|C#4 2F1F ....|--- .... ....
....|..|B-8 JF.A ....|G#3 2F7A ....|--- .... ....
....|..|C-3 RF.F ....|D#2 2F.F ....|--- .... ....
....|..|B-8 JF.F ....|G#2 2F.F ....|--- .... ....
....|..|C-3 RF.A ....|A#1 2F.A ....|--- .... ....
....|..|B-8 JF.F ....|G#3 2F9F ....|--- .... ....
....|..|B-8 JF.7 ....|F#4 2F.7 ....|--- .... ....
....|..|B-8 JF.F ....|A#2 2F.7 ....|--- .... ....
....|..|B-8 JF.A ....|A#3 2F8A ....|--- .... ....
....|..|B-8 JF.F ....|--- .... ....|--- .... ....
....|..|B-8 JF.7 ....|G#3 2F77 ....|--- .... ....
....|..|B-8 JF.F ....|--- .... ....|--- .... ....
....|..|B-8 JF.A ....|G#3 2F9F ....|--- .... ....
....|..|B-8 JF.F ....|--- .... ....|--- .... ....
....|..|B-8 JF.7 ....|--- .... ....|--- .... ....
....|..|B-8 JF.F ....|G#3 2F77 ....|--- .... ....
....|..|B-8 JF.A ....|--- .... ....|--- .... ....
....|..|C-3 RF.F ....|F#4 2F.F ....|--- .... ....
....|..|B-8 JF.7 ....|R-- .... ....|--- .... ....
....|..|B-8 JF.F ....|C#3 2F.F ....|--- .... ....
....|..|C-3 RF.A ....|D#2 2F.A ....|--- .... ....
....|..|B-8 JF.F ....|B-3 2F6F ....|--- .... ....
....|..|C-3 RF.7 ....|A#1 2F.7 ....|--- .... ....
....|..|B-8 JF.F ....|D#2 2F.7 ....|--- .... ....
....|..|--- .... ....|--- .... ....|--- .... ....
....|..|B-8 JF.F ....|--- .... ....|--- .... ....

[Pattern22]
....|..|B-8 JF.7 ....|A#3 2F87 ....|--- .... ....
....|..|B-8 JF.F ....|--- .... ....|--- .... ....
....|..|--- .... ....|--- .... ....|--- .... ....
....|..|B-8 JF.F ....|--- .... ....|--- .... ....
....|..|B-8 JF.7 ....|G#3 2F9A ....|--- .... ....
....|..|B-8 JF.F ....|--- .... ....|--- .... ....
....|..|--- .... ....|B-3 2F6F ....|--- .... ....
....|..|C-3 RF.F ....|C#3 2F.F ....|--- .... ....
....|..|B-8 JF.F ....|C#3 2F.F ....|--- .... ....
....|..|B-8 JF.7 ....|F#2 2F.F ....|--- .... ....
....|..|--- .... ....|C#4 2F17 ....|--- .... ....
....|..|B-8 JF.F ....|A#3 2FAF ....|--- .... ....
....|..|B-8 JF.F ....|D#2 2F.7 ....|--- .... ....
....|..|B-8 JF.7 ....|G#2 2F.7 ....|--- .... ....
....|..|--- .... ....|--- .... ....|--- .... ....
....|..|B-8 JF.F ....|G#3 2F97 ....|--- .... ....
....|..|B-8 JF.F ....|--- .... ....|--- .... ....
....|..|B-8 JF.7 ....|--- .... ....|--- .... ....
....|..|--- .... ....|--- .... ....|--- .... ....
....|..|B-8 JF.F ....|--- .... ....|--- .... ....
....|..|B-8 JF.F ....|--- .... ....|--- .... ....
....|..|B-8 JF.7 ....|--- .... ....|--- .... ....
....|..|B-8 JF.F ....|C#4 2F4F ....|--- .... ....
....|..|B-8 JF.F ....|G-2 2F.F ....|--- .... ....
....|..|B-8 JF.F ....|C-3 2F.F ....|--- .... ....
....|..|B-8 JF.7 ....|C#3 2F.A ....|--- .... ....
....|..|B-8 JF.A ....|C#3 2F.A ....|--- .... ....
....|..|B-8 JF.F ....|A#3 2F1F ....|--- .... ....
....|..|B-8 JF.F ....|R-- .... ....|--- .... ....
....|..|B-8 JF.7 ....|C#3 2F.7 ....|--- .... ....
....|..|B-8 JF.A ....|--- .... ....|--- .... ....
....|..|B-8 JF.F ....|B-3 2F67 ....|--- .... ....
....|..|B-8 JF.F ....|--- .... ....|--- .... ....
 G#4|..|G#3 2C.F ....|--- .... ....|--- .... ....
 F#4|..|F#3 2C.F ....|--- .... ....|--- .... ....
....|..|B-8 JF.F ....|--- .... ....|--- .... ....
....|..|B-8 JF.F ....|--- .... ....|--- .... ....
 D#4|..|D#3 2C.F ....|--- .... ....|--- .... ....
 C#4|..|C#3 2C.F ....|A#3 2F1F ....|--- .... ....
....|..|C-3 RF.F ....|F#2 2F.F ....|--- .... ....
....|..|B-8 JF.F ....|B-2 2F.F ....|--- .... ....
 F#4|..|F#3 2C.F ....|G-2 2F.A ....|--- .... ....
 D#4|..|D#3 2C.F ....|B-3 2F67 ....|--- .... ....
....|..|B-8 JF.F ....|A#3 2F3F ....|--- .... ....
....|..|B-8 JF.F ....|C#3 2F.7 ....|--- .... ....
 C#4|..|C#3 2C.F ....|F#2 2F.7 ....|--- .... ....
 A#3|..|A#2 2C.F ....|--- .... ....|--- .... ....
....|..|B-8 JF.F ....|A#3 2FA7 ....|--- .... ....
....|..|B-8 JF.F ....|--- .... ....|--- .... ....
....|..|R-- .... ....|--- .... ....|--- .... ....
....|..|B-8 JF.A ....|--- .... ....|--- .... ....
....|..|B-8 JF.F ....|--- .... ....|--- .... ....
....|..|B-8 JF.F ....|--- .... ....|--- .... ....
....|..|B-8 JF.A ....|--- .... ....|--- .... ....
....|..|B-8 JF.A ....|--- .... ....|--- .... ....
....|..|C-3 RF.F ....|F#2 2F.F ....|--- .... ....
....|..|B-8 JF.F ....|A#2 2F.F ....|--- .... ....
....|..|C-3 RF.A ....|F#2 2F.A ....|--- .... ....
....|..|B-8 JF.7 ....|C#4 2F47 ....|--- .... ....
....|..|C-5 VF.F ....|G#3 2F7F ....|--- .... ....
....|..|C-3 RF.F ....|C-3 2F.7 ....|--- .... ....
 D#4|..|D#3 2C.F ....|A#3 2F3A ....|--- .... ....
 C#4|..|C#3 2C.F ....|--- .... ....|--- .... ....
....|..|C-4 AF.F ....|G#3 2F7F ....|--- .... ....
....|..|C-5 VF.F ....|G#3 2F7F ....|--- .... ....
 A#3|..|A#2 2C.F ....|--- .... ....|--- .... ....
....|..|C-5 VF.F ....|--- .... ....|--- .... ....
 C#4|..|C#3 2C.F ....|--- .... ....|--- .... ....
....|..|C-4 AF.F ....|--- .... ....|--- .... ....
 A#3|..|A#2 2C.F ....|--- .... ....|--- .... ....
....|..|C-4 AF.F ....|A#1 2F.F ....|--- .... ....
 G#4|..|G#2 2A.F ....|--- .... ....|--- .... ....
....|..|C-4 AF.F ....|B-1 2F.F ....|F#5 2F.F ....
 F#4|..|F#2 2A.F ....|F#2 2F.A ....|--- .... ....
....|..|C-4 LF.F ....|A#3 2F3F ....|--- .... ....
 B-3|..|B-1 2A.F ....|F#2 2F.7 ....|--- .... ....
....|..|C-4 AF.F ....|B-2 2F.7 ....|D#5 2F.F ....
 B-3|..|B-1 2A.F ....|G#3 2F7A ....|--- .... ....
....|..|C-4 LF.F ....|--- .... ....|--- .... ....
....|..|B-8 JF.7 ....|A#3 2F37 ....|R-- .... ....
....|..|C-4 BF.F ....|--- .... ....|--- .... ....
....|..|C#3 2F.7 ....|G#3 2F7A ....|--- .... ....
....|..|C-4 LF.F ....|G#3 2F7A ....|--- .... ....
....|..|C-4 LF.F ....|--- .... ....|--- .... ....
....|..|B-8 JF.F ....|B-3 2F9F ....|--- .... ....
....|..|R-- .... ....|--- .... ....|--- .... ....
....|..|C-4 AF.F ....|F#4 2F.F ....|--- .... ....
....|..|C-4 LF.F ....|B-1 2F.F ....|--- .... ....
....|..|C-4 AF.F ....|D-2 2F.F ....|F-5 2F.F ....
 B-3|..|B-1 2A.F ....|--- .... ....|--- .... ....
....|..|C-4 LF.F ....|G#3 2F7F ....|F#5 2F.A ....
....|..|C-4 LF.F ....|F#2 2F.7 ....|R-- .... ....
....|..|C-4 AF.F ....|G#3 2F7F ....|D-5 2F.F ....
 D-4|..|D-2 2A.F ....|--- .... ....|--- .... ....
....|..|C-4 LF.F ....|--- .... ....|D#5 2F.A ....
....|..|C-4 LF.F ....|A#3 2FEF ....|R-- .... ....

[Pattern23]
....|..|C-4 BF.F ....|G#3 2F7F ....|B-4 2F.F ....
 F-4|..|F-2 2A.F ....|--- .... ....|R-- .... ....
....|..|C-4 LF.F ....|--- .... ....|--- .... ....
....|..|B-8 JF.F ....|G#3 2F77 ....|R-- .... ....
....|..|C-5 VF.7 ....|G#3 2F77 ....|--- .... ....
....|..|A#2 2F.7 ....|--- .... ....|--- .... ....
....|..|C-4 LF.F ....|B-3 2F9A ....|--- .... ....
....|..|C-4 AF.F ....|D#2 2F.F ....|--- .... ....
 A#3|..|A#1 2A.F ....|F#4 2F.A ....|C#5 2F.F ....
 D#4|..|D#2 2A.F ....|B-1 2F.A ....|--- .... ....
....|..|C-4 LF.F ....|A#3 2F8F ....|R-- .... ....
....|..|C-4 AF.F ....|--- .... ....|--- .... ....
 D#4|..|D#2 2A.F ....|B-1 2F.7 ....|C#5 2F.F ....
 D#4|..|D#2 2A.F ....|--- .... ....|R-- .... ....
....|..|C-4 LF.F ....|A#3 2F37 ....|D#5 2F.F ....
....|..|C-4 BF.F ....|--- .... ....|--- .... ....
 F#3|..|F#1 2A.F ....|--- .... ....|D#5 2F.7 ....
....|..|B-1 2F.7 ....|A#3 2FEA ....|F-5 2F.F ....
....|..|C-4 LF.F ....|G#3 2F7A ....|B-4 2F.A ....
....|..|B-8 JF.F ....|--- .... ....|R-- .... ....
 F#3|..|F#1 2A.F ....|C#4 2F1F ....|--- .... ....
 G-3|..|G-1 2A.F ....|--- .... ....|F#5 2F.F ....
....|..|C-4 AF.F ....|D#2 2F.F ....|--- .... ....
....|..|C-4 AF.F ....|G#1 2F.F ....|--- .... ....
 G-3|..|G-1 2A.F ....|B-3 2F97 ....|--- .... ....
 G#3|..|G#1 2A.F ....|D#2 2F.A ....|--- .... ....
....|..|C-4 LF.F ....|G#3 2FAF ....|C#5 2F.A ....
....|..|C-4 AF.F ....|B-1 2F.7 ....|D#5 2F.F ....
 G#3|..|G#1 2A.F ....|D-2 2F.7 ....|F-5 2F.7 ....
 G#3|..|G#1 2A.F ....|--- .... ....|D#5 2F.F ....
....|..|C-4 LF.F ....|D#4 2FCF ....|C#5 2F.A ....
....|..|C-4 BF.F ....|G#3 2F7F ....|R-- .... ....
....|..|C-4 AF.7 ....|G#3 2F77 ....|D-5 2F.7 ....
....|..|C-4 LF.F ....|--- .... ....|D#5 2F.F ....
 A#3|..|A#1 2A.F ....|--- .... ....|R-- .... ....
....|..|C-3 RF.F ....|A#3 2FE7 ....|R-- .... ....
....|..|C-4 BF.7 ....|G#3 2F77 ....|B-4 2F.7 ....
....|..|C-4 LF.F ....|--- .... ....|R-- .... ....
....|..|C-4 LF.7 ....|R-- .... ....|--- .... ....
....|..|C-4 AF.F ....|B-1 2F.F ....|G#5 2F.F ....
 B-3|..|B-1 2A.F ....|R-- .... ....|--- .... ....
....|..|C-4 LF.F ....|G#1 2F.A ....|--- .... ....
....|..|C-4 LF.F ....|A#3 2F3F ....|--- .... ....
....|..|C-4 AF.F ....|D#2 2F.7 ....|F#5 2F.F ....
 B-3|..|B-1 2A.F ....|G#3 2FAA ....|C#5 2F.7 ....
....|..|C-4 LF.F ....|--- .... ....|D#5 2F.A ....
....|..|C-4 LF.F ....|A#3 2F87 ....|R-- .... ....
....|..|C-4 BF.F ....|--- .... ....|D#5 2F.A ....
....|..|D#2 2F.7 ....|D#4 2FCA ....|C#5 2F.7 ....
....|..|C-4 LF.F ....|G#3 2F7A ....|--- .... ....
....|..|C-4 LF.7 ....|--- .... ....|D#5 2F.7 ....
....|..|B-8 JF.F ....|--- .... ....|D#5 2F.A ....
....|..|F#1 2F.7 ....|B-3 2F9F ....|R-- .... ....
....|..|C-4 LF.F ....|D#4 2FCF ....|F-5 2F.7 ....
....|..|C-4 AF.F ....|B-1 2F.F ....|--- .... ....
....|..|C-4 AF.F ....|D-2 2F.F ....|F-5 2F.F ....
 B-3|..|B-1 2A.F ....|C#4 2F17 ....|--- .... ....
....|..|C-4 LF.F ....|B-1 2F.A ....|F#5 2F.7 ....
....|..|C-4 LF.F ....|G#3 2F7F ....|R-- .... ....
....|..|C-4 AF.F ....|G#3 2F7F ....|D-5 2F.F ....
 D-4|..|D-2 2A.F ....|A#3 2F3A ....|--- .... ....
....|..|C-4 LF.F ....|--- .... ....|F#5 2F.A ....
 F-4|..|F-2 2A.F ....|A#3 2FEF ....|R-- .... ....
....|..|C-4 BF.F ....|G#3 2F7F ....|B-4 2F.F ....
 D-4|..|D-2 2A.F ....|--- .... ....|R-- .... ....
....|..|C-4 LF.F ....|--- .... ....|D#5 2F.7 ....
....|..|C-4 LF.7 ....|D#4 2FC7 ....|R-- .... ....
....|..|B-8 JF.F ....|F#4 2F.F ....|--- .... ....
....|..|R-- .... ....|R-- .... ....|--- .... ....
....|..|C-4 LF.F ....|--- .... ....|G#4 2F.F ....
 D-4|..|D-2 2A.F ....|B-3 2F9A ....|R-- .... ....
....|..|C-4 AF.F ....|D#2 2F.F ....|F#5 2F.F ....
 D#4|..|D#2 2A.F ....|B-1 2F.A ....|--- .... ....
....|..|C-4 LF.F ....|A#3 2F8F ....|F-5 2F.F ....
 D#4|..|D#2 2A.F ....|R-- .... ....|--- .... ....
....|..|C-4 AF.F ....|B-1 2F.7 ....|G#5 2F.7 ....
 D#4|..|D#2 2A.F ....|G#3 2F7A ....|R-- .... ....
....|..|C-4 LF.F ....|G#3 2F7A ....|D#5 2F.F ....
....|..|C-4 LF.F ....|A#3 2F37 ....|--- .... ....
....|..|C-4 BF.F ....|--- .... ....|F#5 2F.7 ....
 F#3|..|F#1 2A.F ....|A#3 2FEA ....|R-- .... ....
....|..|C-4 LF.F ....|G#3 2F7A ....|F-5 2F.F ....
....|..|C-4 LF.F ....|--- .... ....|R-- .... ....
....|..|B-8 JF.F ....|C#4 2F1F ....|R-- .... ....
 F#3|..|F#1 2A.F ....|--- .... ....|R-- .... ....
....|..|C-4 AF.F ....|D#2 2F.F ....|F#5 2F.F ....
....|..|C-4 LF.F ....|R-- .... ....|--- .... ....
....|..|C-4 AF.F ....|G#1 2F.F ....|G#4 2F.A ....
 G-3|..|G-1 2A.F ....|B-3 2F97 ....|R-- .... ....
....|..|C-4 LF.F ....|G#3 2FAF ....|F-5 2F.F ....
....|..|C-4 AF.F ....|B-1 2F.7 ....|--- .... ....
 G#3|..|G#1 2A.F ....|G#1 2F.F ....|D#5 2F.F ....
 G#3|..|G#1 2A.F ....|--- .... ....|--- .... ....
....|..|C-4 LF.F ....|A#3 2F4F ....|F-5 2F.F ....
....|..|C-4 BF.F ....|A#3 2FEF ....|R-- .... ....
 A#3|..|A#1 2A.F ....|G#3 2F77 ....|D-5 2F.7 ....

[Pattern24]
....|..|D-2 2F.7 ....|A#3 2FEF ....|--- .... ....
....|..|C-4 LF.F ....|--- .... ....|R-- .... ....
....|..|C-3 RF.F ....|A#3 2F4F ....|D#5 2F.F ....
 A#3|..|A#1 2A.F ....|G#3 2F77 ....|B-4 2F.7 ....
....|..|D-2 2F.7 ....|--- .... ....|--- .... ....
....|..|C-4 LF.F ....|C#4 2F1A ....|R-- .... ....
....|..|C-4 AF.F ....|B-1 2F.F ....|F#5 2F.F ....
....|..|C-4 LF.F ....|F#4 2F.7 ....|F#5 2F.A ....
 B-3|..|B-1 2A.F ....|R-- .... ....|--- .... ....
....|..|C-4 LF.F ....|A#3 2F3F ....|G#4 2F.7 ....
....|..|C-4 AF.F ....|--- .... ....|D#5 2F.F ....
 B-3|..|B-1 2A.F ....|D#2 2F.7 ....|F#5 2F.7 ....
....|..|D#2 2F.7 ....|--- .... ....|--- .... ....
....|..|C-4 LF.F ....|A#3 2F87 ....|F-5 2F.7 ....
....|..|C-4 BF.F ....|--- .... ....|--- .... ....
....|..|C-4 AF.7 ....|A#3 2F4A ....|R-- .... ....
....|..|D#2 2F.7 ....|A#3 2FEA ....|--- .... ....
....|..|C-4 LF.F ....|--- .... ....|D#5 2F.7 ....
....|..|B-8 JF.F ....|A#3 2FEA ....|--- .... ....
....|..|C-4 BF.7 ....|B-3 2F9F ....|R-- .... ....
....|..|F#1 2F.7 ....|A#3 2F4A ....|D#5 2F.A ....
....|..|C-4 AF.F ....|B-1 2F.F ....|F-5 2F.7 ....
....|..|C-4 AF.F ....|D-2 2F.F ....|F-5 2F.F ....
 B-3|..|B-1 2A.F ....|C#4 2F17 ....|R-- .... ....
 D-4|..|D-2 2A.F ....|B-1 2F.A ....|F#5 2F.A ....
....|..|C-4 LF.F ....|G#3 2F7F ....|F#5 2F.7 ....
....|..|C-4 AF.F ....|G#3 2F7F ....|D-5 2F.F ....
 D-4|..|D-2 2A.F ....|G#1 2F.7 ....|--- .... ....
....|..|C-4 LF.F ....|--- .... ....|D#5 2F.A ....
....|..|C-4 LF.F ....|G#3 2FA7 ....|F-5 2F.7 ....
....|..|C-4 BF.F ....|G#3 2F7F ....|B-4 2F.F ....
 F-4|..|F-2 2A.F ....|G#1 2F.7 ....|D#5 2F.7 ....
....|..|C-4 LF.F ....|--- .... ....|--- .... ....
 D-4|..|D-2 2A.F ....|A#3 2F47 ....|F-5 2F.7 ....
....|..|B-8 JF.F ....|F#4 2F.F ....|R-- .... ....
....|..|A#1 2F.7 ....|R-- .... ....|--- .... ....
....|..|C-4 LF.F ....|A#3 2FE7 ....|--- .... ....
 A#3|..|A#1 2A.F ....|B-3 2F9A ....|--- .... ....
....|..|C-4 AF.F ....|D#2 2F.F ....|C#5 2F.F ....
 D#4|..|D#2 2A.F ....|B-1 2F.A ....|--- .... ....
....|..|C-4 LF.F ....|D-2 2F.A ....|R-- .... ....
....|..|C-4 LF.F ....|A#3 2F8F ....|C#5 2F.F ....
....|..|C-4 AF.F ....|B-1 2F.7 ....|F#5 2F.7 ....
 D#4|..|D#2 2A.F ....|G#3 2F7A ....|--- .... ....
....|..|C-4 LF.F ....|G#3 2F7A ....|D-5 2F.A ....
....|..|C-4 LF.F ....|A#3 2F37 ....|D#5 2F.F ....
....|..|C-4 BF.F ....|--- .... ....|D#5 2F.7 ....
 F#3|..|F#1 2A.F ....|--- .... ....|R-- .... ....
....|..|C-4 LF.F ....|G#3 2F7A ....|F-5 2F.F ....
 F#3|..|F#1 2A.F ....|--- .... ....|R-- .... ....
....|..|B-8 JF.F ....|--- .... ....|R-- .... ....
 G-3|..|G-1 2A.F ....|C#4 2F1F ....|--- .... ....
....|..|C-4 LF.F ....|F#4 2F.F ....|F#5 2F.F ....
....|..|C-4 AF.F ....|D#2 2F.F ....|--- .... ....
....|..|C-4 AF.F ....|G#1 2F.F ....|--- .... ....
 G-3|..|G-1 2A.F ....|B-3 2F97 ....|--- .... ....
....|..|C-4 LF.F ....|G#3 2FAF ....|C#5 2F.A ....
 G#3|..|G#1 2A.F ....|B-1 2F.7 ....|R-- .... ....
....|..|C-4 AF.F ....|D-2 2F.7 ....|D#5 2F.F ....
 G#3|..|G#1 2A.F ....|A#3 2F8A ....|R-- .... ....
....|..|C-4 LF.F ....|--- .... ....|D#5 2F.F ....
 G#3|..|G#1 2A.F ....|F#4 2F.F ....|--- .... ....
....|..|C-4 BF.F ....|G#3 2F7F ....|D-5 2F.7 ....
....|..|D-2 2F.7 ....|--- .... ....|D#5 2F.A ....
....|..|C-4 LF.F ....|--- .... ....|D#5 2F.F ....
....|..|C-4 LF.F ....|--- .... ....|R-- .... ....
....|..|C-3 RF.F ....|G#3 2F77 ....|B-4 2F.7 ....
 A#3|..|A#1 2A.F ....|--- .... ....|--- .... ....
....|..|C-4 LF.F ....|D-4 2FCF ....|D#5 2F.F ....
....|..|C-4 LF.F ....|R-- .... ....|--- .... ....
....|..|C-4 AF.F ....|B-1 2F.F ....|R-- .... ....
 B-3|..|B-1 2A.F ....|R-- .... ....|--- .... ....
....|..|C-4 LF.F ....|B-3 2F9F ....|R-- .... ....
....|..|C-4 LF.F ....|--- .... ....|--- .... ....
....|..|C-4 AF.F ....|D#2 2F.7 ....|A#4 2F.F ....
 B-3|..|B-1 2A.F ....|--- .... ....|R-- .... ....
....|..|C-4 LF.F ....|--- .... ....|G#4 2F.F ....
....|..|C-4 LF.F ....|D#4 2F.F ....|C#5 2F.7 ....
....|..|C-4 BF.F ....|B-3 2F9F ....|R-- .... ....
....|..|D#2 2F.7 ....|F#4 2F.A ....|A#4 2F.F ....
....|..|C-4 LF.F ....|G#3 2F7A ....|R-- .... ....
....|..|C-4 LF.F ....|--- .... ....|D#5 2F.7 ....
....|..|B-8 JF.F ....|--- .... ....|D#5 2F.A ....
....|..|F#1 2F.7 ....|D#4 2FAF ....|C#5 2F.F ....
....|..|C-4 AF.F ....|F#4 2F.F ....|F-5 2F.7 ....
....|..|C-4 AF.F ....|A#2 2FFF ....|--- .... ....
 B-3|..|B-1 2A.F ....|A#1 2F.F ....|A#4 2F.F ....
 D-4|..|D-2 2A.F ....|C#4 2F17 ....|--- .... ....
....|..|C-4 LF.F ....|A#3 2F9F ....|F#5 2F.7 ....
....|..|C-4 AF.F ....|D#2 2F.7 ....|--- .... ....
 D-4|..|D-2 2A.F ....|G#1 2F.7 ....|R-- .... ....
 F-4|..|F-2 2A.F ....|--- .... ....|--- .... ....
....|..|C-4 LF.F ....|G#3 2FA7 ....|A#4 2F.A ....
....|..|C-4 BF.F ....|--- .... ....|R-- .... ....
 D-4|..|D-2 2A.F ....|--- .... ....|D#5 2F.7 ....
....|..|G#1 2F.7 ....|D#4 2F.A ....|R-- .... ....

[Pattern25]
....|..|C-4 LF.F ....|B-3 2F9A ....|G#4 2F.F ....
....|..|B-8 JF.F ....|F#4 2F.7 ....|F#4 2F.F ....
....|..|C-4 BF.7 ....|D-4 2FDF ....|R-- .... ....
....|..|C-4 LF.A ....|R-- .... ....|R-- .... ....
....|..|C-4 LF.F ....|--- .... ....|G#4 2F.F ....
....|..|C-4 AF.F ....|D#2 2F.F ....|R-- .... ....
 D-4|..|D-2 2A.F ....|F#4 2F.A ....|--- .... ....
 D#4|..|D#2 2A.F ....|A#2 2FFA ....|A#4 2F.F ....
....|..|C-4 LF.F ....|A#3 2F8F ....|D#5 2F.7 ....
....|..|C-4 AF.F ....|R-- .... ....|R-- .... ....
 D#4|..|D#2 2A.F ....|B-1 2F.7 ....|--- .... ....
 D#4|..|D#2 2A.F ....|--- .... ....|C#5 2F.F ....
....|..|C-4 LF.F ....|B-3 2F97 ....|R-- .... ....
....|..|C-4 BF.F ....|--- .... ....|R-- .... ....
 F#3|..|F#1 2A.F ....|--- .... ....|A#4 2F.7 ....
....|..|B-1 2F.7 ....|--- .... ....|D#5 2F.F ....
....|..|C-4 LF.F ....|--- .... ....|G#4 2F.7 ....
....|..|B-8 JF.F ....|D#4 2F.7 ....|R-- .... ....
 F#3|..|F#1 2A.F ....|C#4 2F1F ....|R-- .... ....
....|..|C-4 LF.F ....|--- .... ....|A#4 2F.7 ....
....|..|C-4 AF.F ....|D#2 2F.F ....|F#5 2F.F ....
....|..|C-4 AF.F ....|G#1 2F.F ....|R-- .... ....
....|..|B-8 JF.F ....|--- .... ....|G#4 2F.A ....
....|..|C-4 LF.F ....|D#4 2FA7 ....|C#5 2F.7 ....
....|..|B-8 JF.F ....|G#3 2FAF ....|R-- .... ....
....|..|C-4 AF.F ....|A#2 2FF7 ....|A#4 2F.A ....
....|..|B-8 JF.F ....|A#1 2F.7 ....|A#4 2F.7 ....
....|..|C-4 LF.F ....|--- .... ....|R-- .... ....
....|..|B-8 JF.F ....|A#3 2F97 ....|--- .... ....
....|..|C-4 BF.F ....|A#1 2F.F ....|C#5 2F.A ....
....|..|B-8 JF.F ....|--- .... ....|R-- .... ....
....|..|C-4 LF.F ....|--- .... ....|R-- .... ....
....|..|B-8 JF.F ....|A#3 2F4F ....|--- .... ....
....|..|B-8 JF.F ....|--- .... ....|D#5 2F.A ....
....|..|B-8 JF.F ....|--- .... ....|--- .... ....
....|..|C-4 LF.F ....|--- .... ....|R-- .... ....
....|..|B-8 JF.F ....|R-- .... ....|G#4 2F.7 ....
....|..|C-4 AF.F ....|B-1 2F.F ....|F#4 2F.7 ....
 B-3|..|B-1 2A.F ....|D-4 2FD7 ....|F#5 2F.A ....
....|..|R-- .... ....|R-- .... ....|--- .... ....
....|..|C-4 LF.F ....|A#3 2F3F ....|G#4 2F.7 ....
....|..|C-4 AF.F ....|D#2 2F.7 ....|R-- .... ....
 B-3|..|B-1 2A.F ....|G#3 2FAA ....|R-- .... ....
....|..|C-4 LF.F ....|--- .... ....|A#4 2F.7 ....
....|..|C-4 LF.F ....|A#3 2F87 ....|--- .... ....
....|..|C-4 BF.F ....|--- .... ....|R-- .... ....
....|..|D#2 2F.7 ....|--- .... ....|--- .... ....
....|..|C-4 LF.F ....|A#1 2F.A ....|C#5 2F.7 ....
....|..|C-4 LF.7 ....|--- .... ....|--- .... ....
....|..|B-8 JF.F ....|B-3 2F9F ....|R-- .... ....
....|..|F#1 2F.7 ....|A#3 2F4A ....|--- .... ....
....|..|C-4 AF.F ....|A#3 2F.F ....|D#5 2F.7 ....
 B-3|..|B-1 2A.F ....|B-1 2F.F ....|--- .... ....
....|..|C-4 AF.F ....|D-2 2F.F ....|R-- .... ....
 D-4|..|D-2 2A.F ....|C#4 2F17 ....|--- .... ....
....|..|C-4 LF.F ....|G#3 2F7F ....|--- .... ....
 D-4|..|D-2 2A.F ....|D#2 2F.7 ....|F#5 2F.7 ....
....|..|C-4 AF.F ....|G#3 2F7F ....|--- .... ....
 F-4|..|F-2 2A.F ....|A#3 2F3A ....|--- .... ....
....|..|C-4 LF.F ....|--- .... ....|--- .... ....
 F-4|..|F-2 2A.F ....|A#3 2FEF ....|R-- .... ....
....|..|C-4 BF.F ....|G#3 2F7F ....|--- .... ....
 D-4|..|D-2 2A.F ....|--- .... ....|--- .... ....
....|..|C-4 LF.F ....|--- .... ....|--- .... ....
....|..|C-4 LF.F ....|--- .... ....|--- .... ....
....|..|B-8 JF.F ....|A#1 2F.7 ....|--- .... ....
....|..|B-8 JF.7 ....|--- .... ....|--- .... ....
....|..|C-4 LF.F ....|B-3 2F9A ....|--- .... ....
....|..|C-4 LF.F ....|A#3 2F47 ....|--- .... ....
....|..|C-4 AF.F ....|D#2 2F.F ....|--- .... ....
 A#3|..|A#1 2A.F ....|B-1 2F.A ....|--- .... ....
....|..|C-4 LF.F ....|A#3 2F8F ....|--- .... ....
....|..|C-4 LF.F ....|R-- .... ....|--- .... ....
....|..|C-4 AF.F ....|B-1 2F.7 ....|--- .... ....
 D#4|..|D#2 2A.F ....|--- .... ....|--- .... ....
....|..|C-4 LF.F ....|G#3 2F7A ....|--- .... ....
....|..|C-4 BF.F ....|A#3 2F37 ....|--- .... ....
....|..|C-5 VF.F ....|--- .... ....|--- .... ....
 F#3|..|F#1 2A.F ....|A#3 2FEA ....|--- .... ....
....|..|C-4 LF.F ....|G#3 2F7A ....|--- .... ....
....|..|B-8 JF.F ....|--- .... ....|--- .... ....
 F#3|..|F#1 2A.F ....|--- .... ....|--- .... ....
 G-3|..|G-1 2A.F ....|C#4 2F1F ....|--- .... ....
....|..|C-4 AF.F ....|D#2 2F.F ....|--- .... ....
....|..|C-4 AF.F ....|G#1 2F.F ....|--- .... ....
 G-3|..|G-1 2A.F ....|B-3 2F97 ....|--- .... ....
 G#3|..|G#1 2A.F ....|--- .... ....|--- .... ....
....|..|C-4 LF.F ....|G#3 2FAF ....|--- .... ....
....|..|C-4 AF.F ....|B-1 2F.7 ....|--- .... ....
 G#3|..|G#1 2A.F ....|D-2 2F.7 ....|--- .... ....
 G#3|..|G#1 2A.F ....|--- .... ....|--- .... ....
....|..|C-4 LF.F ....|D#4 2FCF ....|--- .... ....
....|..|C-4 BF.F ....|G#3 2F7F ....|--- .... ....
....|..|C-4 AF.7 ....|G#3 2F77 ....|--- .... ....
....|..|C-4 LF.F ....|--- .... ....|--- .... ....
 A#3|..|A#1 2A.F ....|--- .... ....|--- .... ....

[Pattern26]
....|..|C-3 RF.F ....|A#3 2FE7 ....|--- .... ....
....|..|C-4 BF.7 ....|G#3 2F77 ....|--- .... ....
....|..|C-4 LF.F ....|--- .... ....|--- .... ....
....|..|C-4 LF.7 ....|F-4 2F.F ....|--- .... ....
....|..|C-4 AF.F ....|B-1 2F.F ....|--- .... ....
 B-3|..|B-1 2A.F ....|R-- .... ....|--- .... ....
....|..|C-4 LF.F ....|G#1 2F.A ....|--- .... ....
....|..|C-4 LF.F ....|A#3 2F3F ....|--- .... ....
....|..|C-4 AF.F ....|--- .... ....|--- .... ....
 B-3|..|B-1 2A.F ....|D#2 2F.7 ....|--- .... ....
....|..|C-4 LF.F ....|--- .... ....|--- .... ....
....|..|C-4 LF.F ....|A#3 2F87 ....|--- .... ....
....|..|C-4 BF.F ....|--- .... ....|--- .... ....
....|..|C-4 AF.7 ....|D#4 2FCA ....|--- .... ....
....|..|D#2 2F.7 ....|G#3 2F7A ....|--- .... ....
....|..|C-4 LF.F ....|--- .... ....|--- .... ....
....|..|B-8 JF.F ....|--- .... ....|--- .... ....
....|..|C-5 VF.7 ....|B-3 2F9F ....|--- .... ....
....|..|C-4 LF.F ....|--- .... ....|--- .... ....
....|..|C-4 AF.F ....|B-1 2F.F ....|--- .... ....
....|..|C-4 AF.F ....|D-2 2F.F ....|--- .... ....
 B-3|..|B-1 2A.F ....|F-4 2F.A ....|--- .... ....
....|..|C-4 LF.F ....|C#4 2F17 ....|--- .... ....
....|..|C-4 LF.F ....|G#3 2F7F ....|--- .... ....
....|..|C-4 AF.F ....|G#3 2F7F ....|--- .... ....
 D-4|..|D-2 2A.F ....|A#3 2F3A ....|--- .... ....
....|..|C-4 LF.F ....|--- .... ....|--- .... ....
....|..|C-4 LF.F ....|G#3 2FA7 ....|--- .... ....
....|..|C-4 BF.F ....|G#3 2F7F ....|--- .... ....
 D-4|..|D-2 2A.F ....|--- .... ....|--- .... ....
....|..|C-4 LF.F ....|--- .... ....|--- .... ....
....|..|C-4 LF.7 ....|D#4 2FC7 ....|--- .... ....
....|..|B-8 JF.F ....|F#4 2F.F ....|--- .... ....
....|..|R-- .... ....|R-- .... ....|--- .... ....
....|..|C-4 LF.F ....|--- .... ....|--- .... ....
 D-4|..|D-2 2A.F ....|B-3 2F9A ....|--- .... ....
....|..|C-4 AF.F ....|D#2 2F.F ....|--- .... ....
 D#4|..|D#2 2A.F ....|B-1 2F.A ....|--- .... ....
....|..|C-4 LF.F ....|D-2 2F.A ....|--- .... ....
....|..|C-4 LF.F ....|A#3 2F8F ....|--- .... ....
....|..|C-4 AF.F ....|B-1 2F.7 ....|--- .... ....
 D#4|..|D#2 2A.F ....|G#3 2F7A ....|--- .... ....
....|..|C-4 LF.F ....|G#3 2F7A ....|--- .... ....
 D#4|..|D#2 2A.F ....|A#3 2F37 ....|--- .... ....
....|..|C-4 BF.F ....|--- .... ....|--- .... ....
 F#3|..|F#1 2A.F ....|--- .... ....|--- .... ....
....|..|C-4 LF.F ....|G#3 2F7A ....|--- .... ....
....|..|C-4 LF.F ....|--- .... ....|--- .... ....
....|..|B-8 JF.F ....|C#4 2F1F ....|--- .... ....
 F#3|..|F#1 2A.F ....|--- .... ....|--- .... ....
....|..|C-4 AF.F ....|D#2 2F.F ....|--- .... ....
....|..|C-4 LF.F ....|R-- .... ....|--- .... ....
....|..|C-4 AF.F ....|G#1 2F.F ....|--- .... ....
 G-3|..|G-1 2A.F ....|B-3 2F97 ....|--- .... ....
....|..|C-4 LF.F ....|G#3 2FAF ....|--- .... ....
....|..|C-4 LF.F ....|B-1 2F.7 ....|--- .... ....
....|..|C-4 AF.F ....|F#4 2F.F ....|--- .... ....
 G#3|..|G#1 2A.F ....|G#1 2F.F ....|--- .... ....
....|..|C-4 LF.F ....|A#3 2F4F ....|--- .... ....
....|..|C-4 LF.F ....|G#3 2F77 ....|--- .... ....
....|..|C-4 BF.F ....|A#3 2FEF ....|--- .... ....
 A#3|..|A#1 2A.F ....|A#3 2FEF ....|--- .... ....
....|..|C-4 LF.F ....|--- .... ....|--- .... ....
....|..|C-4 LF.F ....|A#1 2F.F ....|--- .... ....
....|..|C-3 RF.F ....|A#3 2F4F ....|--- .... ....
 A#3|..|A#1 2A.F ....|--- .... ....|--- .... ....
....|..|C-4 LF.F ....|C#4 2F1A ....|--- .... ....
....|..|R-- .... ....|G#4 2F.F ....|--- .... ....
....|..|C-4 AF.F ....|B-1 2F.F ....|--- .... ....
 B-3|..|B-1 2A.F ....|R-- .... ....|--- .... ....
....|..|C-4 LF.F ....|A#3 2F3F ....|--- .... ....
....|..|C-4 AF.F ....|--- .... ....|--- .... ....
 B-3|..|B-1 2A.F ....|D#2 2F.7 ....|--- .... ....
....|..|D#2 2F.7 ....|--- .... ....|--- .... ....
....|..|C-4 LF.F ....|F#4 2F.A ....|--- .... ....
....|..|C-4 BF.F ....|A#3 2F87 ....|--- .... ....
....|..|C-4 AF.7 ....|A#3 2F4A ....|--- .... ....
....|..|D#2 2F.7 ....|--- .... ....|--- .... ....
....|..|C-4 LF.F ....|A#3 2FEA ....|--- .... ....
....|..|B-8 JF.F ....|A#3 2FEA ....|--- .... ....
....|..|C-4 BF.7 ....|B-3 2F9F ....|--- .... ....
....|..|F#1 2F.7 ....|A#1 2F.A ....|--- .... ....
....|..|C-4 AF.F ....|B-1 2F.F ....|--- .... ....
....|..|C-4 AF.F ....|B-2 2FCF ....|--- .... ....
 B-3|..|B-1 2A.F ....|D-2 2F.F ....|--- .... ....
 D-4|..|D-2 2A.F ....|G#4 2F.A ....|--- .... ....
....|..|C-4 LF.F ....|G#3 2F7F ....|--- .... ....
....|..|C-4 AF.F ....|G#3 2F7F ....|--- .... ....
 D-4|..|D-2 2A.F ....|G#3 2F7F ....|--- .... ....
 F-4|..|F-2 2A.F ....|--- .... ....|--- .... ....
....|..|C-4 LF.F ....|G#3 2FA7 ....|--- .... ....
....|..|C-4 BF.F ....|G#3 2F7F ....|--- .... ....
 F-4|..|F-2 2A.F ....|F#4 2F.7 ....|--- .... ....
 D-4|..|D-2 2A.F ....|G#1 2F.7 ....|--- .... ....
....|..|C-4 LF.F ....|A#3 2F47 ....|--- .... ....
....|..|B-8 JF.F ....|D-4 2F4F ....|--- .... ....

[Pattern27]
....|..|C-4 BF.7 ....|A#3 2FE7 ....|--- .... ....
....|..|C-4 LF.F ....|A#3 2FE7 ....|--- .... ....
 A#3|..|A#1 2A.F ....|B-3 2F9A ....|--- .... ....
....|..|C-4 AF.F ....|D#2 2F.F ....|--- .... ....
 D#4|..|D#2 2A.F ....|A#3 2F47 ....|--- .... ....
....|..|C-4 LF.F ....|B-2 2FCA ....|--- .... ....
....|..|C-4 LF.F ....|A#3 2F8F ....|--- .... ....
....|..|C-4 AF.F ....|G#4 2F.7 ....|--- .... ....
 D#4|..|D#2 2A.F ....|B-1 2F.7 ....|--- .... ....
....|..|C-4 LF.F ....|G#3 2F7A ....|--- .... ....
....|..|C-4 LF.F ....|A#3 2F37 ....|--- .... ....
....|..|C-4 BF.F ....|--- .... ....|--- .... ....
 F#3|..|F#1 2A.F ....|--- .... ....|--- .... ....
....|..|C-4 LF.F ....|G#3 2F7A ....|--- .... ....
 F#3|..|F#1 2A.F ....|--- .... ....|--- .... ....
....|..|B-8 JF.F ....|--- .... ....|--- .... ....
 G-3|..|G-1 2A.F ....|C#4 2F1F ....|--- .... ....
....|..|C-4 LF.F ....|D-4 2F4A ....|--- .... ....
....|..|C-4 AF.F ....|D#2 2F.F ....|--- .... ....
....|..|C-4 AF.F ....|G#1 2F.F ....|--- .... ....
 G-3|..|G-1 2A.F ....|B-3 2F97 ....|--- .... ....
....|..|C-4 LF.F ....|D#2 2F.A ....|--- .... ....
....|..|C-4 LF.F ....|G#3 2FAF ....|--- .... ....
....|..|C-4 AF.F ....|B-2 2FC7 ....|--- .... ....
 G#3|..|G#1 2A.F ....|D-2 2F.7 ....|--- .... ....
....|..|C-4 LF.F ....|--- .... ....|--- .... ....
....|..|C-4 LF.F ....|D#4 2FCF ....|--- .... ....
....|..|C-4 BF.F ....|G#3 2F7F ....|--- .... ....
....|..|D-2 2F.7 ....|G#3 2F77 ....|--- .... ....
....|..|C-4 LF.F ....|--- .... ....|--- .... ....
....|..|C-4 LF.F ....|--- .... ....|--- .... ....
....|..|C-3 RF.F ....|G#3 2F77 ....|--- .... ....
 A#3|..|A#1 2A.F ....|--- .... ....|--- .... ....
....|..|C-4 LF.F ....|--- .... ....|--- .... ....
....|..|C-4 LF.F ....|R-- .... ....|--- .... ....
....|..|C-4 AF.F ....|B-1 2F.F ....|--- .... ....
 B-3|..|B-1 2A.F ....|R-- .... ....|--- .... ....
....|..|C-4 LF.F ....|B-3 2F9F ....|--- .... ....
....|..|C-4 LF.F ....|--- .... ....|--- .... ....
....|..|C-4 AF.F ....|D#2 2F.7 ....|--- .... ....
 B-3|..|B-1 2A.F ....|G#3 2FAA ....|--- .... ....
....|..|C-4 LF.F ....|--- .... ....|--- .... ....
 B-3|..|B-1 2A.F ....|A#3 2F87 ....|--- .... ....
....|..|C-4 BF.F ....|B-3 2F9F ....|--- .... ....
....|..|D#2 2F.7 ....|D#4 2FCA ....|--- .... ....
....|..|C-4 LF.F ....|G#3 2F7A ....|--- .... ....
....|..|C-4 LF.7 ....|--- .... ....|--- .... ....
....|..|B-8 JF.F ....|--- .... ....|--- .... ....
....|..|F#1 2F.7 ....|--- .... ....|--- .... ....
....|..|C-4 AF.F ....|D#4 2FAF ....|--- .... ....
....|..|C-4 LF.F ....|B-1 2F.F ....|--- .... ....
....|..|C-4 AF.F ....|A#1 2F.F ....|--- .... ....
 B-3|..|B-1 2A.F ....|C#4 2F17 ....|--- .... ....
....|..|C-4 LF.F ....|A#3 2F9F ....|--- .... ....
....|..|C-4 LF.F ....|D#2 2F.7 ....|--- .... ....
....|..|C-4 AF.F ....|G#1 2F.7 ....|--- .... ....
 D-4|..|D-2 2A.F ....|--- .... ....|--- .... ....
....|..|C-4 LF.F ....|--- .... ....|--- .... ....
....|..|C-4 LF.F ....|G#3 2FA7 ....|--- .... ....
....|..|C-4 BF.F ....|--- .... ....|--- .... ....
 D-4|..|D-2 2A.F ....|--- .... ....|--- .... ....
....|..|C-4 LF.F ....|B-3 2F9A ....|--- .... ....
....|..|C-4 LF.F ....|D#4 2FC7 ....|--- .... ....
....|..|B-8 JF.F ....|G#3 2F77 ....|--- .... ....
....|..|--- .... ....|R-- .... ....|--- .... ....
....|..|C-4 LF.F ....|--- .... ....|--- .... ....
....|..|C-4 AF.F ....|D#2 2F.F ....|--- .... ....
 D-4|..|D-2 2A.F ....|D#4 2FAA ....|--- .... ....
 D#4|..|D#2 2A.F ....|B-1 2F.A ....|--- .... ....
....|..|C-4 LF.F ....|A#3 2F8F ....|--- .... ....
....|..|C-4 AF.F ....|R-- .... ....|--- .... ....
 D#4|..|D#2 2A.F ....|B-1 2F.7 ....|--- .... ....
 D#4|..|D#2 2A.F ....|--- .... ....|--- .... ....
....|..|C-4 LF.F ....|B-3 2F97 ....|--- .... ....
....|..|C-4 BF.F ....|--- .... ....|--- .... ....
 F#3|..|F#1 2A.F ....|--- .... ....|--- .... ....
....|..|B-1 2F.7 ....|--- .... ....|--- .... ....
....|..|C-4 LF.F ....|--- .... ....|--- .... ....
....|..|B-8 JF.F ....|--- .... ....|--- .... ....
 F#3|..|F#1 2A.F ....|C#4 2F1F ....|--- .... ....
 G-3|..|G-1 2A.F ....|--- .... ....|--- .... ....
....|..|C-4 AF.F ....|D#2 2F.F ....|--- .... ....
....|..|C-4 AF.F ....|G#1 2F.F ....|--- .... ....
 G-3|..|G-1 2A.F ....|--- .... ....|--- .... ....
 G#3|..|G#1 2A.F ....|D#2 2F.A ....|--- .... ....
....|..|C-4 AF.F ....|G#3 2FAF ....|--- .... ....
 G#3|..|G#1 2A.F ....|B-1 2F.7 ....|--- .... ....
....|..|C-4 AF.7 ....|A#1 2F.7 ....|--- .... ....
....|..|C-4 AF.F ....|--- .... ....|--- .... ....
 G#3|..|G#1 2A.F ....|A#3 2F97 ....|--- .... ....
....|..|C-4 BF.F ....|G#2 2F2F ....|--- .... ....
 A#3|..|A#1 2A.F ....|A#1 2F.F ....|--- .... ....
....|..|D-2 2F.7 ....|--- .... ....|--- .... ....
....|..|C-4 AF.F ....|A#3 2F4F ....|--- .... ....
 G#3|..|G#1 2A.F ....|--- .... ....|--- .... ....
....|..|C-4 AF.F ....|--- .... ....|--- .... ....

[Pattern28]
 A#3|..|A#1 2A.F ....|--- .... ....|--- .... ....
....|..|C-4 LF.7 ....|G#4 2F.F ....|--- .... ....
 B-3|..|B-1 2A.F ....|B-1 2F.F ....|--- .... ....
....|..|B-8 JF.7 ....|D#2 2F.A ....|--- .... ....
....|..|C-4 AF.A ....|R-- .... ....|--- .... ....
....|..|C-4 LF.7 ....|A#3 2F3F ....|--- .... ....
....|..|C-4 AF.7 ....|D#2 2F.7 ....|--- .... ....
....|..|D-2 2F.7 ....|G#3 2FAA ....|--- .... ....
....|..|D#2 2F.7 ....|--- .... ....|--- .... ....
....|..|C-4 LF.7 ....|A#3 2F87 ....|--- .... ....
....|..|C-4 AF.7 ....|--- .... ....|--- .... ....
....|..|D#2 2F.7 ....|--- .... ....|--- .... ....
....|..|D#2 2F.7 ....|G#2 2F2A ....|--- .... ....
....|..|C-4 LF.7 ....|A#1 2F.A ....|--- .... ....
....|..|C-4 BF.7 ....|--- .... ....|--- .... ....
....|..|F#1 2F.7 ....|B-3 2F9F ....|--- .... ....
....|..|R-- .... ....|--- .... ....|--- .... ....
....|..|C-4 LF.7 ....|A-2 2F.F ....|--- .... ....
....|..|B-8 JF.7 ....|D-3 2F.F ....|--- .... ....
....|..|F#1 2F.7 ....|C#4 2F17 ....|--- .... ....
....|..|G-1 2F.7 ....|B-1 2F.A ....|--- .... ....
....|..|C-4 AF.7 ....|D-4 2FCF ....|--- .... ....
....|..|C-4 AF.7 ....|G#1 2F.7 ....|--- .... ....
....|..|G-1 2F.7 ....|A#3 2F3A ....|--- .... ....
....|..|G#1 2F.7 ....|--- .... ....|--- .... ....
....|..|C-4 AF.7 ....|G#3 2FA7 ....|--- .... ....
....|..|G#1 2F.7 ....|--- .... ....|--- .... ....
....|..|R-- .... ....|--- .... ....|--- .... ....
....|..|C-4 AF.7 ....|--- .... ....|--- .... ....
....|..|G#1 2F.7 ....|--- .... ....|--- .... ....
....|..|C-4 BF.7 ....|G#2 2F27 ....|--- .... ....
....|..|A#1 2F.7 ....|A#1 2F.7 ....|--- .... ....
....|..|--- .... ....|--- .... ....|--- .... ....
....|..|C-4 AF.7 ....|A#3 2F47 ....|--- .... ....
....|..|G#1 2F.7 ....|F-4 2FFF ....|A#5 2F.F ....
....|..|C-4 AF.7 ....|A-2 2F.A ....|--- .... ....
....|..|A#1 2F.7 ....|D-3 2F.A ....|R-- .... ....
....|..|--- .... ....|G#4 2F.7 ....|--- .... ....
....|..|B-1 2F.7 ....|B-1 2F.7 ....|G#5 2F.F ....
....|..|--- .... ....|D-4 2FCA ....|--- .... ....
....|..|--- .... ....|--- .... ....|A#5 2F.F ....
....|..|R-- .... ....|A#3 2F37 ....|--- .... ....
....|..|--- .... ....|D#4 2F.F ....|--- .... ....
....|..|--- .... ....|--- .... ....|--- .... ....
....|..|--- .... ....|--- .... ....|--- .... ....
....|..|--- .... ....|--- .... ....|--- .... ....
....|..|--- .... ....|--- .... ....|B-5 2F.F ....
....|..|--- .... ....|--- .... ....|--- .... ....
....|..|--- .... ....|F-4 2FFF ....|--- .... ....
....|..|--- .... ....|R-- .... ....|--- .... ....
....|..|--- .... ....|C#4 2F4F ....|C#6 2F.F ....
....|..|--- .... ....|B-3 2F97 ....|--- .... ....
....|..|--- .... ....|F-4 2FFA ....|A#5 2F.A ....
....|..|--- .... ....|A-2 2F.7 ....|--- .... ....
....|..|--- .... ....|D-3 2F.7 ....|R-- .... ....
....|..|--- .... ....|--- .... ....|A#5 2F.F ....
....|..|--- .... ....|--- .... ....|G#5 2F.A ....
....|..|--- .... ....|D-4 2FC7 ....|--- .... ....
....|..|--- .... ....|C#4 2F9F ....|A#5 2F.A ....
....|..|--- .... ....|--- .... ....|--- .... ....
....|..|--- .... ....|D#4 2F.A ....|--- .... ....
....|..|--- .... ....|--- .... ....|R-- .... ....
....|..|--- .... ....|--- .... ....|A#5 2F.F ....
....|..|--- .... ....|--- .... ....|--- .... ....
....|..|--- .... ....|B-4 2F.F ....|R-- .... ....
....|..|--- .... ....|D#4 2F3F ....|--- .... ....
....|..|--- .... ....|F-4 2FFA ....|B-5 2F.F ....
....|..|--- .... ....|R-- .... ....|--- .... ....
....|..|--- .... ....|C#4 2F4A ....|C#6 2F.A ....
....|..|--- .... ....|--- .... ....|--- .... ....
....|..|--- .... ....|F-4 2FF7 ....|A#5 2F.F ....
....|..|--- .... ....|--- .... ....|--- .... ....
....|..|--- .... ....|--- .... ....|R-- .... ....
....|..|--- .... ....|C#4 2FAF ....|A#5 2F.A ....
....|..|--- .... ....|C#4 2FAF ....|G#5 2F.7 ....
....|..|--- .... ....|--- .... ....|--- .... ....
....|..|--- .... ....|C#4 2F9A ....|A#5 2F.7 ....
....|..|--- .... ....|--- .... ....|F#5 2F.F ....
....|..|--- .... ....|D#4 2F.7 ....|--- .... ....
....|..|--- .... ....|--- .... ....|D#5 2F.F ....
....|..|--- .... ....|G#4 2F2F ....|A#5 2F.A ....
....|..|--- .... ....|C#4 2F1F ....|--- .... ....
....|..|--- .... ....|B-4 2F.A ....|F#5 2F.F ....
....|..|--- .... ....|D#4 2F3A ....|F#5 2F.F ....
....|..|--- .... ....|F-4 2FF7 ....|B-5 2F.A ....
....|..|--- .... ....|R-- .... ....|--- .... ....
....|..|--- .... ....|C#4 2F47 ....|C#6 2F.7 ....
....|..|--- .... ....|--- .... ....|--- .... ....
....|..|--- .... ....|--- .... ....|A#5 2F.A ....
....|..|--- .... ....|--- .... ....|--- .... ....
....|..|--- .... ....|B-3 2F5F ....|--- .... ....
....|..|--- .... ....|C#4 2FAA ....|A#5 2F.7 ....
....|..|--- .... ....|C#4 2FAA ....|--- .... ....
....|..|--- .... ....|--- .... ....|--- .... ....
....|..|--- .... ....|C#4 2F97 ....|--- .... ....
....|..|--- .... ....|--- .... ....|F#5 2F.A ....

[Pattern29]
....|..|--- .... ....|--- .... ....|--- .... ....
....|..|--- .... ....|--- .... ....|R-- .... ....
....|..|--- .... ....|B-3 2F1F ....|A#5 2F.7 ....
....|..|--- .... ....|R-- .... ....|--- .... ....
....|..|--- .... ....|F#3 2F6F ....|R-- .... ....
....|..|--- .... ....|D#4 2F37 ....|F#5 2F.A ....
....|..|--- .... ....|--- .... ....|B-5 2F.7 ....
....|..|--- .... ....|--- .... ....|--- .... ....
....|..|--- .... ....|--- .... ....|A#4 2F.F ....
....|..|--- .... ....|--- .... ....|--- .... ....
....|..|--- .... ....|--- .... ....|A#5 2F.7 ....
....|..|--- .... ....|--- .... ....|G#4 2F.F ....
....|..|--- .... ....|B-3 2F5A ....|--- .... ....
....|..|--- .... ....|C#4 2FA7 ....|R-- .... ....
....|..|--- .... ....|C#4 2FA7 ....|F#4 2F.F ....
....|..|--- .... ....|--- .... ....|--- .... ....
....|..|--- .... ....|--- .... ....|G#4 2F.F ....
....|..|--- .... ....|--- .... ....|F#5 2F.7 ....
....|..|--- .... ....|--- .... ....|--- .... ....
....|..|--- .... ....|--- .... ....|D#5 2F.7 ....
....|..|--- .... ....|G#4 2F27 ....|G#4 2F.F ....
....|..|--- .... ....|A#3 2F.F ....|--- .... ....
....|..|--- .... ....|D#4 2F.F ....|F#5 2F.7 ....
....|..|--- .... ....|F#3 2FBF ....|F#5 2F.7 ....
....|..|--- .... ....|--- .... ....|--- .... ....
....|..|--- .... ....|--- .... ....|--- .... ....
....|..|--- .... ....|--- .... ....|A#4 2F.A ....
....|..|--- .... ....|--- .... ....|--- .... ....
....|..|--- .... ....|--- .... ....|F#4 2F.F ....
....|..|--- .... ....|--- .... ....|G#4 2F.A ....
....|..|--- .... ....|B-3 2F57 ....|G#4 2F.F ....
....|..|--- .... ....|--- .... ....|G#4 2F.F ....
....|..|--- .... ....|--- .... ....|F#4 2F.A ....
....|..|--- .... ....|--- .... ....|F#4 2F.F ....
....|..|--- .... ....|--- .... ....|G#4 2F.A ....
....|..|--- .... ....|--- .... ....|--- .... ....
....|..|--- .... ....|--- .... ....|--- .... ....
....|..|--- .... ....|--- .... ....|R-- .... ....
....|..|--- .... ....|B-3 2F17 ....|G#4 2F.A ....
....|..|--- .... ....|R-- .... ....|--- .... ....
....|..|--- .... ....|F#3 2F67 ....|R-- .... ....
....|..|--- .... ....|D#4 2F.F ....|--- .... ....
....|..|--- .... ....|R-- .... ....|R-- .... ....
....|..|--- .... ....|A#1 2F.F ....|--- .... ....
....|..|--- .... ....|G#3 2F.F ....|A#4 2F.7 ....
....|..|--- .... ....|--- .... ....|D-4 2F.F ....
....|..|--- .... ....|G#3 2F2F ....|R-- .... ....
....|..|--- .... ....|G#3 2F7F ....|G#4 2F.7 ....
....|..|--- .... ....|G#3 2F7F ....|R-- .... ....
....|..|--- .... ....|--- .... ....|R-- .... ....
....|..|--- .... ....|--- .... ....|D-4 2F.F ....
....|..|--- .... ....|--- .... ....|F#4 2F.A ....
....|..|--- .... ....|--- .... ....|G#4 2F.7 ....
....|..|--- .... ....|--- .... ....|--- .... ....
....|..|--- .... ....|--- .... ....|D-4 2F.F ....
....|..|--- .... ....|--- .... ....|R-- .... ....
....|..|--- .... ....|--- .... ....|G#4 2F.7 ....
....|..|--- .... ....|A#3 2F.7 ....|D#4 2F.F ....
....|..|--- .... ....|D#4 2F.7 ....|--- .... ....
....|..|--- .... ....|F#3 2FB7 ....|--- .... ....
....|..|--- .... ....|R-- .... ....|F-4 2F.F ....
....|..|--- .... ....|A#1 2F.A ....|F-4 2F.F ....
....|..|--- .... ....|G#3 2F2F ....|--- .... ....
....|..|--- .... ....|--- .... ....|D-4 2F.A ....
....|..|--- .... ....|G#3 2F7F ....|F#4 2F.7 ....
....|..|--- .... ....|G#3 2F7A ....|--- .... ....
....|..|--- .... ....|G#3 2F7A ....|G#4 2F.7 ....
....|..|--- .... ....|--- .... ....|G#4 2F.7 ....
....|..|--- .... ....|--- .... ....|D-4 2F.A ....
....|..|--- .... ....|--- .... ....|F#4 2F.7 ....
....|..|--- .... ....|--- .... ....|R-- .... ....
....|..|--- .... ....|--- .... ....|--- .... ....
....|..|--- .... ....|--- .... ....|D-4 2F.A ....
....|..|--- .... ....|--- .... ....|--- .... ....
....|..|--- .... ....|A#3 2FEF ....|--- .... ....
....|..|--- .... ....|--- .... ....|D#4 2F.A ....
....|..|--- .... ....|--- .... ....|--- .... ....
....|..|--- .... ....|D#4 2F.7 ....|--- .... ....
....|..|--- .... ....|R-- .... ....|R-- .... ....
....|..|--- .... ....|A#1 2F.7 ....|F-4 2F.A ....
....|..|--- .... ....|G#3 2F.7 ....|--- .... ....
....|..|--- .... ....|--- .... ....|D-4 2F.7 ....
....|..|--- .... ....|G#3 2F27 ....|--- .... ....
....|..|--- .... ....|D-7 2F.F ....|R-- .... ....
....|..|--- .... ....|G#3 2F77 ....|R-- .... ....
....|..|--- .... ....|--- .... ....|--- .... ....
....|..|--- .... ....|D-6 2F.F ....|D-4 2F.7 ....
....|..|--- .... ....|R-- .... ....|--- .... ....
....|..|--- .... ....|--- .... ....|R-- .... ....
....|..|--- .... ....|--- .... ....|--- .... ....
....|..|--- .... ....|--- .... ....|D-4 2F.7 ....
....|..|--- .... ....|--- .... ....|--- .... ....
....|..|--- .... ....|A#3 2FEA ....|--- .... ....
....|..|--- .... ....|--- .... ....|D#4 2F.7 ....
....|..|--- .... ....|--- .... ....|--- .... ....
....|..|--- .... ....|--- .... ....|--- .... ....

[Pattern30]
....|..|--- .... ....|--- .... ....|F-4 2F.7 ....
....|..|--- .... ....|--- .... ....|F-4 2F.7 ....
....|..|--- .... ....|G#3 2F27 ....|--- .... ....
....|..|--- .... ....|--- .... ....|--- .... ....
....|..|--- .... ....|G#3 2F77 ....|--- .... ....
....|..|--- .... ....|D-7 2F.A ....|R-- .... ....
....|..|--- .... ....|--- .... ....|--- .... ....
....|..|--- .... ....|--- .... ....|--- .... ....
....|..|--- .... ....|D-6 2F.A ....|--- .... ....
....|..|--- .... ....|R-- .... ....|--- .... ....
....|..|--- .... ....|--- .... ....|--- .... ....
....|..|--- .... ....|--- .... ....|--- .... ....
....|..|--- .... ....|--- .... ....|--- .... ....
....|..|--- .... ....|--- .... ....|--- .... ....
....|..|--- .... ....|A#3 2FE7 ....|--- .... ....
....|..|--- .... ....|--- .... ....|--- .... ....
....|..|--- .... ....|--- .... ....|--- .... ....
....|..|--- .... ....|--- .... ....|--- .... ....
....|..|--- .... ....|--- .... ....|--- .... ....
....|..|--- .... ....|--- .... ....|--- .... ....
....|..|--- .... ....|--- .... ....|--- .... ....
....|..|--- .... ....|--- .... ....|--- .... ....
....|..|--- .... ....|--- .... ....|--- .... ....
....|..|--- .... ....|D-7 2F.7 ....|R-- .... ....
....|..|--- .... ....|--- .... ....|--- .... ....
....|..|--- .... ....|--- .... ....|--- .... ....
....|..|--- .... ....|D-6 2F.7 ....|--- .... ....
....|..|--- .... ....|R-- .... ....|--- .... ....
....|..|--- .... ....|--- .... ....|--- .... ....
....|..|--- .... ....|--- .... ....|--- .... ....
....|..|--- .... ....|--- .... ....|--- .... ....
....|..|--- .... ....|--- .... ....|--- .... ....
....|..|--- .... ....|--- .... ....|--- .... ....
