[Module]
VortexTrackerII=0
Version=3.5
Title=2d-1d+-3p,4p-5p+,7m-5me-4me+-6p+
Author=oisee ^ 4d 29.05.2010
NoteTable=4
ChipFreq=1750000
Speed=4
PlayOrder=L0,1,2,3,4,5,6,7,7,9,10,11,11,13,14,14,14,17,18,19,20,21,7,7,7,9,26,27,27,29,30,30,30,33,34,35,36,37,38,39,39,41,14,14,14,45,14,14,14,49,50,51


[Ornament1]
L0,0,15,15

[Ornament2]
L0,0,16,16

[Ornament3]
L0,0,15,15,27,27

[Ornament4]
L0,0,16,16,28,28


[Sample1]
TnE +000_ +00_ F_
TnE +000_ +00_ F_
TnE +000_ +00_ F_
TnE +000_ +00_ D_
TnE +000_ +00_ B_
TnE +000_ +00_ B_ L

[Sample2]
TnE +000_ +00_ F_ L

[Sample3]
TnE +001_ +00_ F_
TnE +002_ +00_ F_
TnE +001_ +00_ E_
TnE +002_ +00_ E_
TnE +000_ +00_ E_ L
TnE -001_ +00_ E_
TnE -002_ +00_ E_
TnE -001_ +00_ E_
TnE +000_ +00_ E_
TnE +001_ +00_ E_
TnE +002_ +00_ E_
TnE +001_ +00_ E_

[Sample4]
TnE +002_ +00_ D_
TnE +002_ +00_ D_
TnE +002_ +00_ C_
TnE +002_ +00_ B_
TnE +002_ +00_ A_ L
TnE +002_ +00_ A_
TnE +002_ +00_ A_
TnE +002_ +00_ A_
TnE +002_ +00_ A_
TnE +002_ +00_ A_
TnE +002_ +00_ A_
TnE +002_ +00_ A_

[Sample5]
TnE +000_ +00_ F_
TnE +000_ +00_ F_
tne +000_ +00_ 0_ L

[Sample6]
TnE -001_ +00_ F_ L

[Sample7]
TnE +006_ +00_ F_ L

[Sample8]
tNe +000_ +00_ F_
tNe +000_ +00_ B_
tNe +000_ +00_ 7_
tNe +000_ +00_ 6- L

[Sample9]
TnE +080_ +00_ F_
TnE +100_ +00_ E_
TnE +180_ +00_ E_
TnE +200_ +00_ E_
TnE +240_ +00_ D_
TnE +280_ +00_ D_
TnE +2C0_ +00_ D_
TnE +300_ +00_ C_
TnE +300_ +00_ C_
TnE +340_ +00_ C_
TnE +340_ +00_ C_
TnE +380_ +00_ B_
TnE +380_ +00_ B_
TnE +400_ +00_ B_
TnE +400_ +00_ B_
TnE +480_ +00_ A_
TnE +500_ +00_ 9_
TnE +580_ +00_ 7_
TnE +600_ +00_ 4_
TnE +680_ +00_ 1_
TnE +000_ +00_ 0_ L

[Sample10]
Tne +1C0_ +00_ F_
Tne +280_ +00_ E_
Tne +380_ +00_ C_
Tne +440_ +00_ A_
Tne +480_ +00_ 8_
TnE +000_ +00_ 0_ L

[Sample11]
TNe +200_ -0A_ F_
tNe +000_ +0F_ A_
TNe +200_ -07_ E_
tNe +000_ +0E_ B- L

[Sample12]
TNE +0A0_ +05_ F_
TNE +140_ +02_ D_
TNE +140_ +02_ B_
TNE +100_ +00_ A_ L
TNE +140_ +00_ A_
TNE +200_ +00_ A-

[Sample13]
Tne +200_ +00_ F_
Tne +2C0_ +00_ F_
Tne +380_ +00_ E_
Tne +500_ +00_ C_
Tne +520_ +00_ 9_
tne +000_ +00_ 0_ L

[Sample14]
TNE -100_ +00_ F_
TNE -100_ +00_ D_
TNE -100_ +00_ A_
TNE -100_ +00_ 5_
tne +000_ +00_ 0_ L

[Sample15]
TNE -100_ +00_ 5_
TNE -100_ +00_ 8_
TNE -100_ +00_ B_
TNE -100_ +00_ F_
TNe -100_ +00_ 9- L

[Sample16]
TnE +000_ +00_ C_
TnE +000_ +00_ E_
TnE +000_ +00_ F_
TnE +000_ +00_ F_
TnE +000_ +00_ E_
TnE +000_ +00_ D_
TnE +000_ +00_ C_
TnE +000_ +00_ C_ L
TnE +001_ +00_ C_
TnE +002_ +00_ C_
TnE +003_ +00_ C_
TnE +001_ +00_ C_
TnE +000_ +00_ C_
TnE -001_ +00_ C_
TnE -002_ +00_ C_
TnE -003_ +00_ C_
TnE -001_ +00_ C_
TnE +000_ +00_ C_
TnE +000_ +00_ C_

[Sample17]
Tne +1C0_ +00_ F_
Tne +280_ +00_ D_
Tne +380_ +00_ 7_
TNE +000_ +00_ 0_ L

[Sample18]
TnE -00C_ +00_ 0_ L

[Sample19]
TNe +000_ +00_ F_
TNe +000_ +00_ C_
TNe +000_ +00_ 6_
TNe +000_ +01_ A- L

[Sample20]
TNE +140_ +00_ F_
tNE +000_ +00_ B- L

[Sample21]
tNE +000_ +00_ D_
tNE +000_ +00_ 8_
tNE +000_ +00_ 1_
TNE +000_ +00_ 0_ L

[Sample22]
TnE +000_ +00_ D_ L
TnE +000_ +00_ D_
tne +000_ +00_ 9_
tne +000_ +00_ 9_
TnE +000_ +00_ D_
TnE +000_ +00_ D_
tne +000_ +00_ 9_
tne +000_ +00_ 9_
TnE +000_ +00_ D_
TnE +000_ +00_ D_
TnE +000_ +00_ D_
TnE +000_ +00_ D_
TnE +000_ +00_ D_
TnE +000_ +00_ D_
tne +000_ +00_ 9_
tne +000_ +00_ 9_

[Sample23]
TnE +000_ +00_ F_ L
TnE +010_ +01_ F_
TnE +010_ +01_ F_
TnE +010_ +01_ F_
TnE +010_ +01_ F_
TnE +000_ +00_ F_
TnE +000_ +00_ F_
TnE -010_ -01_ F_
TnE -010_ -01_ F_
TnE -010_ -01_ F_
TnE -010_ -01_ F_
TnE +000_ +00_ F_

[Sample24]
TNe +000_ -01_ C_
TNe +000_ -01_ D_
TNe +000_ -01_ E_
TNe +000_ -01_ F_
TNe +000_ -01_ F_
TNe +000_ -01_ F_
TNe +000_ -01_ F_
TNe +000_ -01_ F_
TNe +000_ -01_ E_
TNe +000_ -01_ E_
TNe +000_ -01_ E_
TNe +000_ -01_ F_
TNe +000_ -01_ F_ L

[Sample25]
TNE +000_ +00_ F_
TNE +000_ +00_ F_ L
TNE +000_ +00_ F_
TNE +000_ +00_ F_
TNE +000_ +00_ F-

[Sample26]
tne +000_ +00_ 0_ L

[Sample27]
TnE +100_ +05_ F_
TnE +200_ +02_ A_
TnE +300_ +02_ 7_
TNE +400_ +00_ 3- L

[Sample28]
tne +000_ +00_ 0_ L

[Sample29]
tnE +000_ +00_ 0_ L

[Sample30]
TNE +000_ +00_ C+ L

[Sample31]
TNe +1C0_ +00_ F_
Tne +280_ +00_ E_
Tne +380_ +00_ C_
Tne +440_ +00_ A_
Tne +480_ +00_ 8_
TnE +000_ +00_ 0_ L

[Pattern0]
....|..|C-4 2F1F ....|--- .... ....|--- .... ....
....|..|--- .... ....|--- .... ....|--- .... ....
....|..|--- .... ....|--- .... ....|--- .... ....
....|..|--- .... ....|--- .... ....|--- .... ....
....|..|R-- .... ....|--- .... ....|--- .... ....
....|..|--- .... ....|--- .... ....|--- .... ....
....|..|C-4 2F1F ....|--- .... ....|--- .... ....
....|..|--- .... ....|--- .... ....|--- .... ....
....|..|--- .... ....|--- .... ....|--- .... ....
....|..|--- .... ....|--- .... ....|--- .... ....
....|..|R-- .... ....|--- .... ....|--- .... ....
....|..|--- .... ....|--- .... ....|--- .... ....
....|..|F-3 2F1F ....|--- .... ....|--- .... ....
....|..|--- .... ....|--- .... ....|--- .... ....
....|..|--- .... ....|--- .... ....|--- .... ....
....|..|--- .... ....|--- .... ....|--- .... ....
....|..|R-- .... ....|--- .... ....|--- .... ....
....|..|--- .... ....|--- .... ....|--- .... ....
....|..|F-3 2F1F ....|--- .... ....|--- .... ....
....|..|--- .... ....|--- .... ....|--- .... ....
....|..|--- .... ....|--- .... ....|--- .... ....
....|..|--- .... ....|--- .... ....|--- .... ....
....|..|R-- .... ....|--- .... ....|--- .... ....
....|..|--- .... ....|--- .... ....|--- .... ....
....|..|D#3 2F2F ....|--- .... ....|--- .... ....
....|..|--- .... ....|--- .... ....|--- .... ....
....|..|--- .... ....|--- .... ....|--- .... ....
....|..|--- .... ....|--- .... ....|--- .... ....
....|..|R-- .... ....|--- .... ....|--- .... ....
....|..|--- .... ....|--- .... ....|--- .... ....
....|..|D#3 2F2F ....|--- .... ....|--- .... ....
....|..|--- .... ....|--- .... ....|--- .... ....
....|..|--- .... ....|--- .... ....|--- .... ....
....|..|--- .... ....|--- .... ....|--- .... ....
....|..|R-- .... ....|--- .... ....|--- .... ....
....|..|--- .... ....|--- .... ....|--- .... ....
....|..|G#3 2F2F ....|--- .... ....|--- .... ....
....|..|--- .... ....|--- .... ....|--- .... ....
....|..|--- .... ....|--- .... ....|--- .... ....
....|..|--- .... ....|--- .... ....|--- .... ....
....|..|R-- .... ....|--- .... ....|--- .... ....
....|..|--- .... ....|--- .... ....|--- .... ....
....|..|F-3 2F17 ....|--- .... ....|--- .... ....
....|..|--- .... ....|--- .... ....|--- .... ....
....|..|--- .... ....|--- .... ....|--- .... ....
....|..|--- .... ....|--- .... ....|--- .... ....
....|..|R-- .... ....|--- .... ....|--- .... ....
....|..|--- .... ....|--- .... ....|--- .... ....
....|..|D#3 2F27 ....|--- .... ....|--- .... ....
....|..|--- .... ....|--- .... ....|--- .... ....
....|..|--- .... ....|--- .... ....|--- .... ....
....|..|--- .... ....|--- .... ....|--- .... ....
....|..|R-- .... ....|--- .... ....|--- .... ....
....|..|--- .... ....|--- .... ....|--- .... ....
....|..|D#3 2F27 ....|--- .... ....|--- .... ....
....|..|--- .... ....|--- .... ....|--- .... ....
....|..|--- .... ....|--- .... ....|--- .... ....
....|..|--- .... ....|--- .... ....|--- .... ....
....|..|R-- .... ....|--- .... ....|--- .... ....
....|..|--- .... ....|--- .... ....|--- .... ....
....|..|G#3 2F27 ....|--- .... ....|--- .... ....
....|..|--- .... ....|--- .... ....|--- .... ....
....|..|--- .... ....|--- .... ....|--- .... ....
....|..|--- .... ....|--- .... ....|--- .... ....

[Pattern1]
....|..|C-4 2F1F ....|--- .... ....|--- .... ....
....|..|--- .... ....|--- .... ....|--- .... ....
....|..|--- .... ....|--- .... ....|--- .... ....
....|..|--- .... ....|--- .... ....|--- .... ....
....|..|R-- .... ....|--- .... ....|--- .... ....
....|..|--- .... ....|--- .... ....|--- .... ....
....|..|C-4 2F1F ....|--- .... ....|--- .... ....
....|..|--- .... ....|--- .... ....|--- .... ....
....|..|R-- .... ....|--- .... ....|--- .... ....
....|..|--- .... ....|--- .... ....|--- .... ....
....|..|R-- .... ....|--- .... ....|--- .... ....
....|..|--- .... ....|--- .... ....|--- .... ....
....|..|F-3 2F1F ....|--- .... ....|--- .... ....
....|..|--- .... ....|--- .... ....|--- .... ....
....|..|--- .... ....|--- .... ....|--- .... ....
....|..|--- .... ....|--- .... ....|--- .... ....
....|..|R-- .... ....|--- .... ....|--- .... ....
....|..|--- .... ....|--- .... ....|--- .... ....
....|..|F-3 2F1F ....|--- .... ....|--- .... ....
....|..|--- .... ....|--- .... ....|--- .... ....
....|..|R-- .... ....|--- .... ....|--- .... ....
....|..|--- .... ....|--- .... ....|--- .... ....
....|..|R-- .... ....|--- .... ....|--- .... ....
....|..|--- .... ....|--- .... ....|--- .... ....
....|..|D#3 2F2F ....|--- .... ....|--- .... ....
....|..|--- .... ....|--- .... ....|--- .... ....
....|..|--- .... ....|--- .... ....|--- .... ....
....|..|--- .... ....|--- .... ....|--- .... ....
....|..|R-- .... ....|--- .... ....|--- .... ....
....|..|--- .... ....|--- .... ....|--- .... ....
....|..|D#3 2F2F ....|--- .... ....|--- .... ....
....|..|--- .... ....|--- .... ....|--- .... ....
....|..|--- .... ....|--- .... ....|--- .... ....
....|..|--- .... ....|--- .... ....|--- .... ....
....|..|R-- .... ....|--- .... ....|--- .... ....
....|..|--- .... ....|--- .... ....|--- .... ....
....|..|G#3 2F2F ....|--- .... ....|--- .... ....
....|..|--- .... ....|--- .... ....|--- .... ....
....|..|--- .... ....|--- .... ....|--- .... ....
....|..|--- .... ....|--- .... ....|--- .... ....
....|..|R-- .... ....|--- .... ....|--- .... ....
....|..|--- .... ....|--- .... ....|--- .... ....
....|..|F-3 2F17 ....|--- .... ....|--- .... ....
....|..|--- .... ....|--- .... ....|--- .... ....
....|..|--- .... ....|--- .... ....|--- .... ....
....|..|--- .... ....|--- .... ....|--- .... ....
....|..|R-- .... ....|--- .... ....|--- .... ....
....|..|--- .... ....|--- .... ....|--- .... ....
 A#3|..|D#3 2F27 ....|A#3 2F.F ....|A#3 2C.F ....
....|..|--- .... ....|--- .... ....|--- .... ....
....|..|--- .... ....|--- .... ....|--- .... ....
....|..|--- .... ....|--- .... ....|--- .... ....
....|..|R-- .... ....|--- .... ....|--- .... ....
....|..|--- .... ....|--- .... ....|--- .... ....
....|..|D#3 2F27 ....|--- .... ....|--- .... ....
....|..|--- .... ....|--- .... ....|--- .... ....
 A#3|..|--- .... ....|A#3 2F.F ....|A#3 2C.F ....
....|..|--- .... ....|--- .... ....|--- .... ....
....|..|R-- .... ....|--- .... ....|--- .... ....
....|..|--- .... ....|--- .... ....|--- .... ....
....|..|G#3 2F27 ....|A#3 2F.A ....|A#3 2F.A ....
....|..|--- .... ....|--- .... ....|--- .... ....
....|..|--- .... ....|--- .... ....|--- .... ....
....|..|--- .... ....|--- .... ....|--- .... ....

[Pattern2]
 A#3|..|C-4 BF.F ....|A#3 2F.F ....|A#3 2C.F ....
....|..|C-4 2F1F ....|--- .... ....|--- .... ....
....|..|--- .... ....|--- .... ....|--- .... ....
....|..|--- .... ....|--- .... ....|--- .... ....
 A#3|..|R-- .... ....|A#3 2F.F ....|A#3 2C.F ....
....|..|--- .... ....|--- .... ....|--- .... ....
 A#3|..|C-4 2F1F ....|A#3 2F.F ....|A#3 2C.F ....
....|..|--- .... ....|--- .... ....|--- .... ....
....|..|C-4 BF.F ....|A#3 2F.7 ....|A#3 2F.7 ....
....|..|--- .... ....|--- .... ....|--- .... ....
....|..|R-- .... ....|--- .... ....|--- .... ....
....|..|--- .... ....|--- .... ....|--- .... ....
 A#3|..|F-3 2F1F ....|A#3 2F.F ....|A#3 2C.F ....
....|..|C-4 2F1A ....|--- .... ....|--- .... ....
....|..|--- .... ....|--- .... ....|--- .... ....
....|..|--- .... ....|--- .... ....|--- .... ....
 A#3|..|C-4 BF.F ....|A#3 2F.F ....|A#3 2C.F ....
....|..|R-- .... ....|--- .... ....|--- .... ....
....|..|F-3 2F1F ....|A#3 2F.A ....|A#3 2F.A ....
....|..|--- .... ....|--- .... ....|--- .... ....
 A#3|..|R-- .... ....|A#3 2F.F ....|A#3 2C.F ....
....|..|--- .... ....|--- .... ....|--- .... ....
 A#3|..|R-- .... ....|A#3 2F.F ....|A#3 2C.F ....
....|..|--- .... ....|--- .... ....|--- .... ....
 A#3|..|C-4 BF.F ....|A#3 2F.F ....|A#3 2C.F ....
....|..|D#3 2F2F ....|--- .... ....|--- .... ....
....|..|--- .... ....|--- .... ....|--- .... ....
....|..|--- .... ....|--- .... ....|--- .... ....
 A#3|..|R-- .... ....|A#3 2F.F ....|A#3 2C.F ....
....|..|R-- .... ....|--- .... ....|--- .... ....
....|..|D#3 2F2F ....|A#3 2F.7 ....|A#3 2F.7 ....
....|..|--- .... ....|--- .... ....|--- .... ....
 A#3|..|C-4 BF.F ....|A#3 2F.F ....|A#3 2C.F ....
....|..|--- .... ....|--- .... ....|--- .... ....
....|..|R-- .... ....|A#3 2F.A ....|A#3 2F.A ....
....|..|--- .... ....|--- .... ....|--- .... ....
 A#3|..|G#3 2F2F ....|A#3 2F.F ....|A#3 2C.F ....
....|..|D#3 2F2A ....|--- .... ....|--- .... ....
 A#3|..|--- .... ....|A#3 2F.F ....|A#3 2C.F ....
....|..|--- .... ....|--- .... ....|--- .... ....
....|..|C-4 BF.F ....|A#3 2F.7 ....|A#3 2F.7 ....
....|..|R-- .... ....|--- .... ....|--- .... ....
....|..|F-3 2F17 ....|--- .... ....|--- .... ....
....|..|--- .... ....|--- .... ....|--- .... ....
 A#3|..|R-- .... ....|A#3 2F.F ....|A#3 2C.F ....
....|..|--- .... ....|--- .... ....|--- .... ....
....|..|R-- .... ....|A#3 2F.7 ....|A#3 2F.7 ....
....|..|--- .... ....|--- .... ....|--- .... ....
 A#3|..|C-4 BF.F ....|A#3 2F.F ....|A#3 2C.F ....
....|..|D#3 2F27 ....|--- .... ....|--- .... ....
....|..|--- .... ....|A#3 2F.A ....|A#3 2F.A ....
....|..|--- .... ....|--- .... ....|--- .... ....
 A#3|..|R-- .... ....|A#3 2F.F ....|A#3 2C.F ....
....|..|--- .... ....|--- .... ....|--- .... ....
 A#3|..|D#3 2F27 ....|A#3 2F.F ....|A#3 2C.F ....
....|..|--- .... ....|--- .... ....|--- .... ....
 A#3|..|C-4 BF.F ....|A#3 2F.F ....|A#3 2C.F ....
....|..|--- .... ....|--- .... ....|--- .... ....
....|..|R-- .... ....|--- .... ....|--- .... ....
....|..|--- .... ....|--- .... ....|--- .... ....
 A#3|..|G#3 2F27 ....|A#3 2F.F ....|A#3 2C.F ....
....|..|--- .... ....|--- .... ....|--- .... ....
....|..|--- .... ....|A#3 2F.7 ....|A#3 2F.7 ....
....|..|--- .... ....|--- .... ....|--- .... ....

[Pattern3]
 A#3|..|C-4 BF.F ....|A#3 2F.F ....|A#3 2C.F ....
....|..|C-4 2F1F ....|--- .... ....|--- .... ....
....|..|--- .... ....|A#3 2F.A ....|A#3 2F.A ....
....|..|--- .... ....|--- .... ....|--- .... ....
 A#3|..|R-- .... ....|A#3 2F.F ....|A#3 2C.F ....
....|..|--- .... ....|--- .... ....|--- .... ....
 A#3|..|C-4 2F1F ....|A#3 2F.F ....|A#3 2C.F ....
....|..|--- .... ....|--- .... ....|--- .... ....
....|..|C-4 BF.F ....|A#3 2F.7 ....|A#3 2F.7 ....
....|..|--- .... ....|--- .... ....|--- .... ....
....|..|R-- .... ....|--- .... ....|--- .... ....
....|..|--- .... ....|--- .... ....|--- .... ....
 A#3|..|F-3 2F1F ....|A#3 2F.F ....|A#3 2C.F ....
....|..|C-4 2F1A ....|--- .... ....|--- .... ....
....|..|--- .... ....|A#3 2F.7 ....|A#3 2F.7 ....
....|..|--- .... ....|--- .... ....|--- .... ....
 A#3|..|C-4 BF.F ....|A#3 2F.F ....|A#3 2C.F ....
....|..|R-- .... ....|--- .... ....|--- .... ....
....|..|F-3 2F1F ....|A#3 2F.A ....|A#3 2F.A ....
....|..|--- .... ....|--- .... ....|--- .... ....
 A#3|..|R-- .... ....|A#3 2F.F ....|A#3 2C.F ....
....|..|--- .... ....|--- .... ....|--- .... ....
 A#3|..|R-- .... ....|A#3 2F.F ....|A#3 2C.F ....
....|..|--- .... ....|--- .... ....|--- .... ....
 A#3|..|C-4 BF.F ....|A#3 2F.F ....|A#3 2C.F ....
....|..|D#3 2F2F ....|--- .... ....|--- .... ....
....|..|--- .... ....|--- .... ....|--- .... ....
....|..|--- .... ....|--- .... ....|--- .... ....
 A#3|..|R-- .... ....|A#3 2F.F ....|A#3 2C.F ....
....|..|R-- .... ....|--- .... ....|--- .... ....
....|..|D#3 2F2F ....|A#3 2F.7 ....|A#3 2F.7 ....
....|..|--- .... ....|--- .... ....|--- .... ....
 A#3|..|C-4 BF.F ....|A#3 2F.F ....|A#3 2C.F ....
....|..|--- .... ....|--- .... ....|--- .... ....
....|..|R-- .... ....|A#3 2F.A ....|A#3 2F.A ....
....|..|--- .... ....|--- .... ....|--- .... ....
 A#3|..|G#3 2F2F ....|A#3 2F.F ....|A#3 2C.F ....
....|..|D#3 2F2A ....|--- .... ....|--- .... ....
 A#3|..|--- .... ....|A#3 2F.F ....|A#3 2C.F ....
....|..|--- .... ....|--- .... ....|--- .... ....
....|..|C-4 BF.F ....|A#3 2F.7 ....|A#3 2F.7 ....
....|..|R-- .... ....|--- .... ....|--- .... ....
....|..|F-3 2F17 ....|--- .... ....|--- .... ....
....|..|--- .... ....|--- .... ....|--- .... ....
 A#3|..|R-- .... ....|A#3 2F.F ....|A#3 2C.F ....
....|..|--- .... ....|--- .... ....|--- .... ....
....|..|R-- .... ....|A#3 2F.7 ....|A#3 2F.7 ....
....|..|--- .... ....|--- .... ....|--- .... ....
 A#3|..|C-4 BF.F ....|A#3 2F.F ....|A#3 2C.F ....
....|..|D#3 2F27 ....|--- .... ....|--- .... ....
....|..|--- .... ....|A#3 2F.A ....|A#3 2F.A ....
....|..|--- .... ....|--- .... ....|--- .... ....
....|..|R-- .... ....|A#3 2F.7 ....|A#3 2F.7 ....
....|..|--- .... ....|--- .... ....|--- .... ....
....|..|D#3 2F27 ....|--- .... ....|--- .... ....
....|..|--- .... ....|--- .... ....|--- .... ....
 A#3|..|C-4 BF.F ....|A#3 2F.F ....|A#3 2C.F ....
....|..|--- .... ....|--- .... ....|--- .... ....
....|..|R-- .... ....|--- .... ....|--- .... ....
....|..|--- .... ....|--- .... ....|--- .... ....
....|..|G#3 2F27 ....|A#3 2F.7 ....|A#3 2F.7 ....
....|..|--- .... ....|--- .... ....|--- .... ....
....|..|--- .... ....|A#3 2F.7 ....|A#3 2F.7 ....
....|..|--- .... ....|--- .... ....|--- .... ....

[Pattern4]
 A#3|..|C-4 AF.F ....|A#3 2F.F ....|A#3 2C.F ....
....|..|C-4 2F1F ....|--- .... ....|--- .... ....
....|..|--- .... ....|--- .... ....|--- .... ....
....|..|--- .... ....|--- .... ....|--- .... ....
 A#3|..|R-- .... ....|A#3 2F.F ....|A#3 2C.F ....
....|..|--- .... ....|--- .... ....|--- .... ....
 A#3|..|C-4 2F1F ....|A#3 2F.F ....|A#3 2C.F ....
....|..|--- .... ....|--- .... ....|--- .... ....
....|..|C-4 AF.F ....|A#3 2F.7 ....|A#3 2F.7 ....
....|..|--- .... ....|--- .... ....|--- .... ....
....|..|R-- .... ....|--- .... ....|--- .... ....
....|..|--- .... ....|--- .... ....|--- .... ....
 A#3|..|F-3 2F1F ....|A#3 2F.F ....|A#3 2C.F ....
....|..|C-4 2F1A ....|--- .... ....|--- .... ....
....|..|--- .... ....|--- .... ....|--- .... ....
....|..|--- .... ....|--- .... ....|--- .... ....
 A#3|..|C-4 AF.F ....|A#3 2F.F ....|A#3 2C.F ....
....|..|R-- .... ....|--- .... ....|--- .... ....
 A#3|..|F-3 2F1F ....|A#3 2F.F ....|A#3 2C.F ....
....|..|--- .... ....|--- .... ....|--- .... ....
 A#3|..|R-- .... ....|A#3 2F.F ....|A#3 2C.F ....
....|..|--- .... ....|--- .... ....|--- .... ....
....|..|R-- .... ....|--- .... ....|--- .... ....
....|..|--- .... ....|--- .... ....|--- .... ....
 A#3|..|C-4 AF.F ....|A#3 2F.F ....|A#3 2C.F ....
....|..|D#3 2F2F ....|--- .... ....|--- .... ....
....|..|--- .... ....|--- .... ....|--- .... ....
....|..|--- .... ....|--- .... ....|--- .... ....
 A#3|..|R-- .... ....|A#3 2F.F ....|A#3 2C.F ....
....|..|R-- .... ....|--- .... ....|--- .... ....
....|..|D#3 2F2F ....|A#3 2F.7 ....|A#3 2F.7 ....
....|..|--- .... ....|--- .... ....|--- .... ....
 A#3|..|C-4 AF.F ....|A#3 2F.F ....|A#3 2C.F ....
....|..|--- .... ....|--- .... ....|--- .... ....
....|..|R-- .... ....|--- .... ....|--- .... ....
....|..|--- .... ....|--- .... ....|--- .... ....
 A#3|..|G#3 2F2F ....|A#3 2F.F ....|A#3 2C.F ....
....|..|D#3 2F2A ....|--- .... ....|--- .... ....
 A#3|..|--- .... ....|A#3 2F.F ....|A#3 2C.F ....
....|..|--- .... ....|--- .... ....|--- .... ....
....|..|C-4 AF.F ....|A#3 2F.7 ....|A#3 2F.7 ....
....|..|R-- .... ....|--- .... ....|--- .... ....
....|..|F-3 2F17 ....|A#3 2F.7 ....|A#3 2F.7 ....
....|..|--- .... ....|--- .... ....|--- .... ....
 A#3|..|R-- .... ....|A#3 2F.F ....|A#3 2C.F ....
....|..|--- .... ....|--- .... ....|--- .... ....
....|..|R-- .... ....|--- .... ....|--- .... ....
....|..|--- .... ....|--- .... ....|--- .... ....
 A#3|..|C-4 AF.F ....|A#3 2F.F ....|A#3 2C.F ....
....|..|D#3 2F27 ....|--- .... ....|--- .... ....
....|..|--- .... ....|A#3 2F.A ....|A#3 2F.A ....
....|..|--- .... ....|--- .... ....|--- .... ....
 A#3|..|R-- .... ....|A#3 2F.F ....|A#3 2C.F ....
....|..|--- .... ....|--- .... ....|--- .... ....
....|..|D#3 2F27 ....|--- .... ....|--- .... ....
....|..|--- .... ....|--- .... ....|--- .... ....
 A#3|..|C-4 AF.F ....|A#3 2F.F ....|A#3 2C.F ....
....|..|--- .... ....|--- .... ....|--- .... ....
....|..|R-- .... ....|--- .... ....|--- .... ....
....|..|--- .... ....|--- .... ....|--- .... ....
 A#3|..|G#3 2F27 ....|A#3 2F.F ....|A#3 2C.F ....
....|..|--- .... ....|--- .... ....|--- .... ....
 A#3|..|--- .... ....|A#3 2F.F ....|A#3 2C.F ....
....|..|--- .... ....|--- .... ....|--- .... ....

[Pattern5]
 A#3|..|C-4 AF.F ....|A#3 2F.F ....|A#3 2C.F ....
....|..|C-4 2F1F ....|--- .... ....|--- .... ....
....|..|--- .... ....|--- .... ....|--- .... ....
....|..|--- .... ....|--- .... ....|--- .... ....
 A#3|..|R-- .... ....|A#3 2F.F ....|A#3 2C.F ....
....|..|--- .... ....|--- .... ....|--- .... ....
 A#3|..|C-4 2F1F ....|A#3 2F.F ....|A#3 2C.F ....
....|..|--- .... ....|--- .... ....|--- .... ....
....|..|C-4 AF.F ....|A#3 2F.7 ....|A#3 2F.7 ....
....|..|--- .... ....|--- .... ....|--- .... ....
....|..|R-- .... ....|A#3 2F.A ....|A#3 2F.A ....
....|..|--- .... ....|--- .... ....|--- .... ....
 A#3|..|F-3 2F1F ....|A#3 2F.F ....|A#3 2C.F ....
....|..|C-4 2F1A ....|--- .... ....|--- .... ....
....|..|--- .... ....|--- .... ....|--- .... ....
....|..|--- .... ....|--- .... ....|--- .... ....
 A#3|..|C-4 AF.F ....|A#3 2F.F ....|A#3 2C.F ....
....|..|R-- .... ....|--- .... ....|--- .... ....
....|..|F-3 2F1F ....|A#3 2F.A ....|A#3 2F.A ....
....|..|--- .... ....|--- .... ....|--- .... ....
 A#3|..|R-- .... ....|A#3 2F.F ....|A#3 2C.F ....
....|..|--- .... ....|--- .... ....|--- .... ....
....|..|R-- .... ....|A#3 2F.7 ....|A#3 2F.7 ....
....|..|--- .... ....|--- .... ....|--- .... ....
 A#3|..|C-4 AF.F ....|A#3 2F.F ....|A#3 2C.F ....
....|..|D#3 2F2F ....|--- .... ....|--- .... ....
....|..|--- .... ....|--- .... ....|--- .... ....
....|..|--- .... ....|--- .... ....|--- .... ....
 A#3|..|R-- .... ....|A#3 2F.F ....|A#3 2C.F ....
....|..|R-- .... ....|--- .... ....|--- .... ....
....|..|D#3 2F2F ....|A#3 2F.7 ....|A#3 2F.7 ....
....|..|--- .... ....|--- .... ....|--- .... ....
 A#3|..|C-4 AF.F ....|A#3 2F.F ....|A#3 2C.F ....
....|..|--- .... ....|--- .... ....|--- .... ....
....|..|R-- .... ....|--- .... ....|--- .... ....
....|..|--- .... ....|--- .... ....|--- .... ....
 A#3|..|G#3 2F2F ....|A#3 2F.F ....|A#3 2C.F ....
....|..|D#3 2F2A ....|--- .... ....|--- .... ....
 A#3|..|--- .... ....|A#3 2F.F ....|A#3 2C.F ....
....|..|--- .... ....|--- .... ....|--- .... ....
....|..|C-4 AF.F ....|A#3 2F.7 ....|A#3 2F.7 ....
....|..|R-- .... ....|--- .... ....|--- .... ....
....|..|F-3 2F17 ....|--- .... ....|--- .... ....
....|..|--- .... ....|--- .... ....|--- .... ....
 G-4|..|R-- .... ....|G-3 2F.F ....|G-3 2C.F ....
....|..|--- .... ....|--- .... ....|--- .... ....
....|..|R-- .... ....|--- .... ....|--- .... ....
....|..|--- .... ....|--- .... ....|--- .... ....
....|..|C-4 AF.F ....|A#3 2F.7 ....|A#3 2F.7 ....
....|..|D#3 2F27 ....|--- .... ....|--- .... ....
 F-4|..|--- .... ....|F-3 2F.F ....|F-3 2C.F ....
....|..|--- .... ....|--- .... ....|--- .... ....
....|..|R-- .... ....|A#3 2F.7 ....|A#3 2F.7 ....
....|..|--- .... ....|--- .... ....|--- .... ....
....|..|D#3 2F27 ....|R-- .... ....|R-- .... ....
....|..|--- .... ....|--- .... ....|--- .... ....
 D#4|..|C-4 AF.F ....|D#4 2F.F ....|D#3 2C.F ....
....|..|--- .... ....|--- .... ....|--- .... ....
....|..|R-- .... ....|--- .... ....|--- .... ....
....|..|--- .... ....|--- .... ....|--- .... ....
 F-4|..|G#3 2F27 ....|F-4 2F.F ....|F-4 2C.F ....
....|..|--- .... ....|--- .... ....|--- .... ....
....|..|--- .... ....|A#3 2F.7 ....|A#3 2F.7 ....
....|..|--- .... ....|--- .... ....|--- .... ....

[Pattern6]
 G-4|..|C-4 AF.F ....|G-4 2F.F ....|G-4 2C.F ....
....|..|C-4 2F3F ....|--- .... ....|--- .... ....
....|..|--- .... ....|R-- .... ....|R-- .... ....
....|..|--- .... ....|--- .... ....|--- .... ....
....|..|R-- .... ....|G-3 2F.7 ....|G-3 2F.7 ....
....|..|--- .... ....|--- .... ....|--- .... ....
 G-4|..|C-4 2F3F ....|G-4 2F.F ....|G-4 2C.F ....
....|..|--- .... ....|--- .... ....|--- .... ....
....|..|C-4 CF.F ....|R-- .... ....|R-- .... ....
....|..|--- .... ....|--- .... ....|--- .... ....
....|..|R-- .... ....|F-3 2F.7 ....|F-3 2F.7 ....
....|..|--- .... ....|--- .... ....|--- .... ....
 G#4|..|F-3 2F3F ....|G#4 2F.F ....|G#4 2C.F ....
....|..|C-4 2F3A ....|--- .... ....|--- .... ....
....|..|--- .... ....|R-- .... ....|R-- .... ....
....|..|--- .... ....|--- .... ....|--- .... ....
....|..|C-4 AF.F ....|D#4 2F.7 ....|D#3 2F.7 ....
....|..|R-- .... ....|--- .... ....|--- .... ....
 G#4|..|F-3 2F3F ....|G#4 2F.F ....|G#4 2C.F ....
....|..|--- .... ....|--- .... ....|--- .... ....
....|..|R-- .... ....|F-4 2F.7 ....|F-4 2F.7 ....
....|..|--- .... ....|--- .... ....|--- .... ....
....|..|R-- .... ....|R-- .... ....|R-- .... ....
....|..|--- .... ....|--- .... ....|--- .... ....
 G-4|..|C-4 CF.F ....|G-4 2F.F ....|G-4 2C.F ....
....|..|D#3 2F4F ....|--- .... ....|--- .... ....
....|..|--- .... ....|--- .... ....|--- .... ....
....|..|--- .... ....|--- .... ....|--- .... ....
....|..|R-- .... ....|R-- .... ....|R-- .... ....
....|..|R-- .... ....|--- .... ....|--- .... ....
....|..|D#3 2F4F ....|G-4 2F.7 ....|G-4 2F.7 ....
....|..|--- .... ....|--- .... ....|--- .... ....
....|..|C-4 AF.F ....|--- .... ....|--- .... ....
....|..|--- .... ....|--- .... ....|--- .... ....
....|..|R-- .... ....|R-- .... ....|R-- .... ....
....|..|--- .... ....|--- .... ....|--- .... ....
....|..|G#3 2F4F ....|G#4 2F.7 ....|G#4 2F.7 ....
....|..|D#3 2F4A ....|--- .... ....|--- .... ....
....|..|--- .... ....|--- .... ....|--- .... ....
....|..|--- .... ....|--- .... ....|--- .... ....
....|..|C-4 CF.F ....|R-- .... ....|R-- .... ....
....|..|R-- .... ....|--- .... ....|--- .... ....
....|..|F-3 2F37 ....|G#4 2F.7 ....|G#4 2F.7 ....
....|..|--- .... ....|--- .... ....|--- .... ....
....|..|R-- .... ....|--- .... ....|--- .... ....
....|..|--- .... ....|--- .... ....|--- .... ....
....|..|R-- .... ....|R-- .... ....|R-- .... ....
....|..|--- .... ....|--- .... ....|--- .... ....
....|..|C-4 AF.F ....|G-4 2F.7 ....|G-4 2F.7 ....
....|..|D#3 2F47 ....|--- .... ....|--- .... ....
....|..|--- .... ....|--- .... ....|--- .... ....
....|..|--- .... ....|--- .... ....|--- .... ....
....|..|R-- .... ....|R-- .... ....|R-- .... ....
....|..|--- .... ....|--- .... ....|--- .... ....
....|..|D#3 2F47 ....|--- .... ....|--- .... ....
....|..|--- .... ....|--- .... ....|--- .... ....
 D#4|..|C-4 CF.F ....|D#4 2F.F ....|D#4 2C.F ....
....|..|--- .... ....|--- .... ....|--- .... ....
....|..|R-- .... ....|--- .... ....|--- .... ....
....|..|--- .... ....|--- .... ....|--- .... ....
 F-4|..|G#3 2F47 ....|F-4 2F.F ....|F-4 2C.F ....
....|..|--- .... ....|--- .... ....|--- .... ....
....|..|--- .... ....|--- .... ....|--- .... ....
....|..|--- .... ....|--- .... ....|--- .... ....

[Pattern7]
 G-4|..|C-4 AF.F ....|G-4 2F.F ....|G-4 2C.F ....
....|..|C-4 2F3F ....|--- .... ....|--- .... ....
....|..|--- .... ....|--- .... ....|--- .... ....
....|..|--- .... ....|--- .... ....|--- .... ....
....|..|R-- .... ....|R-- .... ....|R-- .... ....
....|..|--- .... ....|--- .... ....|--- .... ....
 G-4|..|C-4 2F3F ....|G-4 2F.F ....|G-4 2C.F ....
....|..|--- .... ....|--- .... ....|--- .... ....
....|..|C-4 CF.F ....|F-4 2F.A ....|F-4 2F.A ....
....|..|--- .... ....|--- .... ....|--- .... ....
....|..|R-- .... ....|R-- .... ....|R-- .... ....
....|..|--- .... ....|--- .... ....|--- .... ....
 G#4|..|F-3 2F3F ....|G#4 2F.F ....|G#4 2C.F ....
....|..|C-4 2F3A ....|--- .... ....|--- .... ....
....|..|--- .... ....|--- .... ....|--- .... ....
....|..|--- .... ....|--- .... ....|--- .... ....
....|..|C-4 AF.F ....|D#4 2F.7 ....|D#4 2F.7 ....
....|..|R-- .... ....|--- .... ....|--- .... ....
 G#4|..|F-3 2F3F ....|G#4 2F.F ....|G#4 2C.F ....
....|..|--- .... ....|--- .... ....|--- .... ....
....|..|R-- .... ....|F-4 2F.7 ....|F-4 2F.7 ....
....|..|--- .... ....|--- .... ....|--- .... ....
....|..|R-- .... ....|R-- .... ....|R-- .... ....
....|..|--- .... ....|--- .... ....|--- .... ....
 G-4|..|C-4 CF.F ....|G-4 2F.F ....|G-4 2C.F ....
....|..|D#3 2F4F ....|--- .... ....|--- .... ....
....|..|--- .... ....|--- .... ....|--- .... ....
....|..|--- .... ....|--- .... ....|--- .... ....
....|..|R-- .... ....|R-- .... ....|R-- .... ....
....|..|R-- .... ....|--- .... ....|--- .... ....
....|..|D#3 2F4F ....|G-4 2F.7 ....|G-4 2F.7 ....
....|..|--- .... ....|--- .... ....|--- .... ....
....|..|C-4 AF.F ....|--- .... ....|--- .... ....
....|..|--- .... ....|--- .... ....|--- .... ....
....|..|R-- .... ....|R-- .... ....|R-- .... ....
....|..|--- .... ....|--- .... ....|--- .... ....
....|..|G#3 2F4F ....|G#4 2F.7 ....|G#4 2F.7 ....
....|..|D#3 2F4A ....|--- .... ....|--- .... ....
....|..|--- .... ....|--- .... ....|--- .... ....
....|..|--- .... ....|--- .... ....|--- .... ....
....|..|C-4 CF.F ....|R-- .... ....|R-- .... ....
....|..|R-- .... ....|--- .... ....|--- .... ....
....|..|F-3 2F37 ....|G#4 2F.7 ....|G#4 2F.7 ....
....|..|--- .... ....|--- .... ....|--- .... ....
....|..|R-- .... ....|--- .... ....|--- .... ....
....|..|--- .... ....|--- .... ....|--- .... ....
....|..|R-- .... ....|R-- .... ....|R-- .... ....
....|..|--- .... ....|--- .... ....|--- .... ....
....|..|C-4 AF.F ....|G-4 2F.7 ....|G-4 2F.7 ....
....|..|D#3 2F47 ....|--- .... ....|--- .... ....
....|..|--- .... ....|--- .... ....|--- .... ....
....|..|--- .... ....|--- .... ....|--- .... ....
....|..|R-- .... ....|R-- .... ....|R-- .... ....
....|..|--- .... ....|--- .... ....|--- .... ....
....|..|D#3 2F47 ....|--- .... ....|--- .... ....
....|..|--- .... ....|--- .... ....|--- .... ....
 D#4|..|C-4 CF.F ....|D#4 2F.F ....|D#4 2C.F ....
....|..|--- .... ....|--- .... ....|--- .... ....
....|..|R-- .... ....|--- .... ....|--- .... ....
....|..|--- .... ....|--- .... ....|--- .... ....
 F-4|..|G#3 2F47 ....|F-4 2F.F ....|F-4 2C.F ....
....|..|--- .... ....|--- .... ....|--- .... ....
....|..|--- .... ....|--- .... ....|--- .... ....
....|..|--- .... ....|--- .... ....|--- .... ....

[Pattern9]
 G-4|..|C-4 AF.F ....|G-4 2F.F ....|G-4 2C.F ....
....|..|C-4 2F3F ....|--- .... ....|--- .... ....
....|..|--- .... ....|--- .... ....|--- .... ....
....|..|--- .... ....|--- .... ....|--- .... ....
....|..|R-- .... ....|R-- .... ....|R-- .... ....
....|..|--- .... ....|--- .... ....|--- .... ....
 F-4|..|C-4 2F3F ....|F-4 2F.F ....|F-4 2C.F ....
....|..|--- .... ....|--- .... ....|--- .... ....
....|..|C-4 CF.F ....|F-4 2F.A ....|F-4 2F.A ....
....|..|--- .... ....|--- .... ....|--- .... ....
....|..|R-- .... ....|R-- .... ....|R-- .... ....
....|..|--- .... ....|--- .... ....|--- .... ....
 D#4|..|F-3 2F3F ....|D#4 2F.F ....|D#4 2C.F ....
....|..|C-4 2F3A ....|--- .... ....|--- .... ....
....|..|--- .... ....|--- .... ....|--- .... ....
....|..|--- .... ....|--- .... ....|--- .... ....
....|..|C-4 AF.F ....|D#4 2F.7 ....|D#4 2F.7 ....
....|..|R-- .... ....|--- .... ....|--- .... ....
....|..|F-3 2F3F ....|F-4 2F.A ....|F-4 2F.A ....
....|..|--- .... ....|--- .... ....|--- .... ....
....|..|R-- .... ....|F-4 2F.7 ....|F-4 2F.7 ....
....|..|--- .... ....|--- .... ....|--- .... ....
....|..|R-- .... ....|R-- .... ....|R-- .... ....
....|..|--- .... ....|--- .... ....|--- .... ....
....|..|C-4 CF.F ....|G-4 2F.7 ....|G-4 2F.7 ....
....|..|D#3 2F4F ....|--- .... ....|--- .... ....
....|..|--- .... ....|--- .... ....|--- .... ....
....|..|--- .... ....|--- .... ....|--- .... ....
 A#3|..|R-- .... ....|A#4 2F.F ....|A#4 2C.F ....
....|..|R-- .... ....|--- .... ....|--- .... ....
....|..|D#3 2F4F ....|F-4 2F.7 ....|F-4 2F.7 ....
....|..|--- .... ....|--- .... ....|--- .... ....
 A#3|..|C-4 AF.F ....|A#4 2F.F ....|A#4 2C.F ....
....|..|--- .... ....|--- .... ....|--- .... ....
....|..|R-- .... ....|R-- .... ....|R-- .... ....
....|..|--- .... ....|--- .... ....|--- .... ....
....|..|G#3 2F4F ....|D#4 2F.7 ....|D#4 2F.7 ....
....|..|D#3 2F4A ....|--- .... ....|--- .... ....
....|..|--- .... ....|--- .... ....|--- .... ....
....|..|--- .... ....|--- .... ....|--- .... ....
....|..|C-4 CF.F ....|R-- .... ....|R-- .... ....
....|..|R-- .... ....|--- .... ....|--- .... ....
....|..|F-3 2F37 ....|--- .... ....|--- .... ....
....|..|--- .... ....|--- .... ....|--- .... ....
 D#4|..|R-- .... ....|D#4 2F.F ....|D#4 2C.F ....
....|..|--- .... ....|--- .... ....|--- .... ....
....|..|R-- .... ....|--- .... ....|--- .... ....
....|..|--- .... ....|--- .... ....|--- .... ....
 F-4|..|C-4 AF.F ....|F-4 2F.F ....|F-4 2C.F ....
....|..|D#3 2F47 ....|--- .... ....|--- .... ....
....|..|--- .... ....|--- .... ....|--- .... ....
....|..|--- .... ....|--- .... ....|--- .... ....
 G-4|..|R-- .... ....|G-4 2F.F ....|G-4 2C.F ....
....|..|--- .... ....|--- .... ....|--- .... ....
....|..|D#3 2F47 ....|--- .... ....|--- .... ....
....|..|--- .... ....|--- .... ....|--- .... ....
 F-4|..|C-4 CF.F ....|F-4 2F.F ....|F-4 2C.F ....
....|..|--- .... ....|--- .... ....|--- .... ....
....|..|R-- .... ....|--- .... ....|--- .... ....
....|..|--- .... ....|--- .... ....|--- .... ....
 D#4|..|G#3 2F47 ....|D#4 2F.F ....|D#4 2C.F ....
....|..|--- .... ....|--- .... ....|--- .... ....
....|..|--- .... ....|--- .... ....|--- .... ....
....|..|--- .... ....|--- .... ....|--- .... ....

[Pattern10]
 D#4|..|C-4 2F1F ....|D#4 2F.F ....|D#4 2C.F ....
....|..|--- .... ....|--- .... ....|--- .... ....
....|..|--- .... ....|--- .... ....|--- .... ....
....|..|--- .... ....|--- .... ....|--- .... ....
....|..|R-- .... ....|D#4 2F.7 ....|D#4 2F.7 ....
....|..|--- .... ....|--- .... ....|--- .... ....
....|..|C-4 2F1F ....|--- .... ....|C-4 2F3F ....
....|..|--- .... ....|--- .... ....|--- .... ....
 D#4|..|C-4 AF.7 ....|D#4 2F.F ....|D#4 2C.F ....
....|..|--- .... ....|--- .... ....|--- .... ....
....|..|R-- .... ....|--- .... ....|R-- .... ....
....|..|--- .... ....|--- .... ....|--- .... ....
....|..|F-3 2F1F ....|G-4 2F.7 ....|F-3 2F3F ....
....|..|--- .... ....|--- .... ....|--- .... ....
....|..|--- .... ....|--- .... ....|--- .... ....
....|..|--- .... ....|--- .... ....|--- .... ....
 D#4|..|C-4 CF.7 ....|D#4 2F.F ....|D#4 2C.F ....
....|..|--- .... ....|--- .... ....|--- .... ....
....|..|F-3 2F1F ....|--- .... ....|F-3 2F3F ....
....|..|--- .... ....|--- .... ....|--- .... ....
....|..|R-- .... ....|D#4 2F.7 ....|D#4 2F.7 ....
....|..|--- .... ....|--- .... ....|--- .... ....
 D#4|..|R-- .... ....|D#4 2F.F ....|D#4 2C.F ....
....|..|--- .... ....|--- .... ....|--- .... ....
....|..|D#3 2F2F ....|D#4 2F.7 ....|D#3 2F4F ....
....|..|--- .... ....|--- .... ....|--- .... ....
....|..|--- .... ....|R-- .... ....|R-- .... ....
....|..|--- .... ....|--- .... ....|--- .... ....
 D#4|..|R-- .... ....|D#4 2F.F ....|D#4 2C.F ....
....|..|--- .... ....|--- .... ....|--- .... ....
....|..|D#3 2F2F ....|--- .... ....|D#3 2F4F ....
....|..|--- .... ....|--- .... ....|--- .... ....
 D#4|..|--- .... ....|D#4 2F.F ....|D#4 2C.F ....
....|..|--- .... ....|--- .... ....|--- .... ....
....|..|R-- .... ....|D#4 2F.A ....|R-- .... ....
....|..|--- .... ....|--- .... ....|--- .... ....
....|..|G#3 2F2F ....|R-- .... ....|G#3 2F4F ....
....|..|--- .... ....|--- .... ....|--- .... ....
....|..|--- .... ....|R-- .... ....|R-- .... ....
....|..|--- .... ....|--- .... ....|--- .... ....
....|..|R-- .... ....|D#4 2F.7 ....|D#4 2F.7 ....
....|..|--- .... ....|--- .... ....|--- .... ....
....|..|F-3 2F17 ....|--- .... ....|F-3 2F37 ....
....|..|--- .... ....|--- .... ....|--- .... ....
 D#4|..|--- .... ....|D#4 2F.F ....|D#4 2C.F ....
....|..|--- .... ....|--- .... ....|--- .... ....
....|..|R-- .... ....|D#4 2F.7 ....|D#4 2F.7 ....
....|..|--- .... ....|--- .... ....|--- .... ....
 F-4|..|D#3 2F27 ....|F-4 2F.F ....|F-4 2C.F ....
....|..|--- .... ....|--- .... ....|--- .... ....
....|..|--- .... ....|R-- .... ....|R-- .... ....
....|..|--- .... ....|--- .... ....|--- .... ....
 G-4|..|R-- .... ....|G-4 2F.F ....|G-4 2C.F ....
....|..|--- .... ....|--- .... ....|--- .... ....
....|..|D#3 2F27 ....|--- .... ....|D#3 2F47 ....
....|..|--- .... ....|--- .... ....|--- .... ....
 F-4|..|--- .... ....|F-4 2F.F ....|F-4 2C.F ....
....|..|--- .... ....|--- .... ....|--- .... ....
....|..|R-- .... ....|--- .... ....|R-- .... ....
....|..|--- .... ....|--- .... ....|--- .... ....
 D#4|..|G#3 2F27 ....|D#4 2F.F ....|D#4 2C.F ....
....|..|--- .... ....|--- .... ....|--- .... ....
....|..|--- .... ....|--- .... ....|--- .... ....
....|..|--- .... ....|--- .... ....|--- .... ....

[Pattern11]
 D#4|..|C-4 2F1F ....|D#4 2F.F ....|D#4 2C.F ....
....|..|--- .... ....|--- .... ....|--- .... ....
....|..|--- .... ....|--- .... ....|--- .... ....
....|..|--- .... ....|--- .... ....|--- .... ....
....|..|R-- .... ....|D#4 2F.7 ....|D#4 2F.7 ....
....|..|--- .... ....|--- .... ....|--- .... ....
....|..|C-4 2F1F ....|--- .... ....|C-4 2F3F ....
....|..|--- .... ....|--- .... ....|--- .... ....
 D#4|..|R-- .... ....|D#4 2F.F ....|D#4 2C.F ....
....|..|--- .... ....|--- .... ....|--- .... ....
....|..|R-- .... ....|--- .... ....|R-- .... ....
....|..|--- .... ....|--- .... ....|--- .... ....
....|..|F-3 2F1F ....|G-4 2F.7 ....|F-3 2F3F ....
....|..|--- .... ....|--- .... ....|--- .... ....
....|..|--- .... ....|--- .... ....|--- .... ....
....|..|--- .... ....|--- .... ....|--- .... ....
 D#4|..|R-- .... ....|D#4 2F.F ....|D#4 2C.F ....
....|..|--- .... ....|--- .... ....|--- .... ....
....|..|F-3 2F1F ....|--- .... ....|F-3 2F3F ....
....|..|--- .... ....|--- .... ....|--- .... ....
....|..|R-- .... ....|D#4 2F.7 ....|D#4 2F.7 ....
....|..|--- .... ....|--- .... ....|--- .... ....
 D#4|..|R-- .... ....|D#4 2F.F ....|D#4 2C.F ....
....|..|--- .... ....|--- .... ....|--- .... ....
....|..|D#3 2F2F ....|D#4 2F.7 ....|D#3 2F4F ....
....|..|--- .... ....|--- .... ....|--- .... ....
....|..|--- .... ....|R-- .... ....|R-- .... ....
....|..|--- .... ....|--- .... ....|--- .... ....
 D#4|..|R-- .... ....|D#4 2F.F ....|D#4 2C.F ....
....|..|--- .... ....|--- .... ....|--- .... ....
....|..|D#3 2F2F ....|--- .... ....|D#3 2F4F ....
....|..|--- .... ....|--- .... ....|--- .... ....
 D#4|..|--- .... ....|D#4 2F.F ....|D#4 2C.F ....
....|..|--- .... ....|--- .... ....|--- .... ....
....|..|R-- .... ....|D#4 2F.A ....|R-- .... ....
....|..|--- .... ....|--- .... ....|--- .... ....
....|..|G#3 2F2F ....|R-- .... ....|G#3 2F4F ....
....|..|--- .... ....|--- .... ....|--- .... ....
....|..|--- .... ....|R-- .... ....|R-- .... ....
....|..|--- .... ....|--- .... ....|--- .... ....
....|..|R-- .... ....|D#4 2F.7 ....|D#4 2F.7 ....
....|..|--- .... ....|--- .... ....|--- .... ....
....|..|F-3 2F17 ....|--- .... ....|F-3 2F37 ....
....|..|--- .... ....|--- .... ....|--- .... ....
 D#4|..|--- .... ....|D#4 2F.F ....|D#4 2C.F ....
....|..|--- .... ....|--- .... ....|--- .... ....
....|..|R-- .... ....|D#4 2F.7 ....|D#4 2F.7 ....
....|..|--- .... ....|--- .... ....|--- .... ....
 F-4|..|D#3 2F27 ....|F-4 2F.F ....|F-4 2C.F ....
....|..|--- .... ....|--- .... ....|--- .... ....
....|..|--- .... ....|R-- .... ....|R-- .... ....
....|..|--- .... ....|--- .... ....|--- .... ....
 G-4|..|R-- .... ....|G-4 2F.F ....|G-4 2C.F ....
....|..|--- .... ....|--- .... ....|--- .... ....
....|..|D#3 2F27 ....|--- .... ....|D#3 2F47 ....
....|..|--- .... ....|--- .... ....|--- .... ....
 F-4|..|--- .... ....|F-4 2F.F ....|F-4 2C.F ....
....|..|--- .... ....|--- .... ....|--- .... ....
....|..|R-- .... ....|--- .... ....|R-- .... ....
....|..|--- .... ....|--- .... ....|--- .... ....
 D#4|..|G#3 2F27 ....|D#4 2F.F ....|D#4 2C.F ....
....|..|--- .... ....|--- .... ....|--- .... ....
....|..|--- .... ....|--- .... ....|--- .... ....
....|..|--- .... ....|--- .... ....|--- .... ....

[Pattern13]
 D#4|..|C-4 2F1F ....|D#4 2F.F ....|D#4 2C.F ....
....|..|--- .... ....|--- .... ....|--- .... ....
....|..|--- .... ....|--- .... ....|--- .... ....
....|..|--- .... ....|--- .... ....|--- .... ....
....|..|R-- .... ....|D#4 2F.7 ....|D#4 2F.7 ....
....|..|--- .... ....|--- .... ....|--- .... ....
....|..|C-4 2F1F ....|--- .... ....|C-4 2F3F ....
....|..|--- .... ....|--- .... ....|--- .... ....
 A#3|..|R-- .... ....|A#4 2F.F ....|A#4 2C.F ....
....|..|--- .... ....|--- .... ....|--- .... ....
....|..|R-- .... ....|--- .... ....|R-- .... ....
....|..|--- .... ....|--- .... ....|--- .... ....
 A#3|..|F-3 2F1F ....|A#4 2F.F ....|A#4 2C.F ....
....|..|--- .... ....|--- .... ....|--- .... ....
....|..|--- .... ....|--- .... ....|--- .... ....
....|..|--- .... ....|--- .... ....|--- .... ....
....|..|R-- .... ....|F-4 2F.7 ....|F-4 2F.7 ....
....|..|--- .... ....|--- .... ....|--- .... ....
....|..|F-3 2F1F ....|--- .... ....|F-3 2F3F ....
....|..|--- .... ....|--- .... ....|--- .... ....
 F-4|..|R-- .... ....|F-4 2F.F ....|F-4 2C.F ....
....|..|--- .... ....|--- .... ....|--- .... ....
....|..|R-- .... ....|--- .... ....|R-- .... ....
....|..|--- .... ....|--- .... ....|--- .... ....
 F-4|..|D#3 2F2F ....|F-4 2F.F ....|F-4 2C.F ....
....|..|--- .... ....|--- .... ....|--- .... ....
....|..|--- .... ....|--- .... ....|--- .... ....
....|..|--- .... ....|--- .... ....|--- .... ....
 F-4|..|R-- .... ....|F-4 2F.F ....|F-4 2C.F ....
....|..|--- .... ....|--- .... ....|--- .... ....
....|..|D#3 2F2F ....|--- .... ....|D#3 2F4F ....
....|..|--- .... ....|--- .... ....|--- .... ....
 D#4|..|--- .... ....|D#4 2F.F ....|D#4 2C.F ....
....|..|--- .... ....|--- .... ....|--- .... ....
....|..|R-- .... ....|--- .... ....|R-- .... ....
....|..|--- .... ....|--- .... ....|--- .... ....
....|..|G#3 2F2F ....|A#4 2F.7 ....|G#3 2F4F ....
....|..|--- .... ....|--- .... ....|--- .... ....
....|..|--- .... ....|--- .... ....|--- .... ....
....|..|--- .... ....|--- .... ....|--- .... ....
....|..|R-- .... ....|F-4 2F.A ....|R-- .... ....
....|..|--- .... ....|--- .... ....|--- .... ....
....|..|F-3 2F17 ....|--- .... ....|F-3 2F37 ....
....|..|--- .... ....|--- .... ....|--- .... ....
 G-4|..|--- .... ....|D#4 2F.F ....|G-4 2C.F ....
....|..|--- .... ....|--- .... ....|--- .... ....
....|..|R-- .... ....|--- .... ....|R-- .... ....
....|..|--- .... ....|--- .... ....|--- .... ....
 G#4|..|D#3 2F27 ....|F-4 2F.F ....|G#4 2C.F ....
....|..|--- .... ....|--- .... ....|--- .... ....
....|..|--- .... ....|--- .... ....|--- .... ....
....|..|--- .... ....|--- .... ....|--- .... ....
 A#3|..|R-- .... ....|G-4 2F.F ....|A#4 2C.F ....
....|..|--- .... ....|--- .... ....|--- .... ....
....|..|D#3 2F27 ....|--- .... ....|D#3 2F47 ....
....|..|--- .... ....|--- .... ....|--- .... ....
 G#4|..|--- .... ....|F-4 2F.F ....|G#4 2C.F ....
....|..|--- .... ....|--- .... ....|--- .... ....
....|..|R-- .... ....|--- .... ....|R-- .... ....
....|..|--- .... ....|--- .... ....|--- .... ....
 G-4|..|G#3 2F27 ....|D#4 2F.F ....|G-4 2C.F ....
....|..|--- .... ....|--- .... ....|--- .... ....
....|..|--- .... ....|--- .... ....|--- .... ....
....|..|--- .... ....|--- .... ....|--- .... ....

[Pattern14]
 G-4|..|C-4 AF.F ....|D#4 2F.F ....|G-4 2C.F ....
....|..|C-4 2F1F ....|--- .... ....|--- .... ....
....|..|--- .... ....|--- .... ....|--- .... ....
....|..|--- .... ....|--- .... ....|--- .... ....
....|..|R-- .... ....|D#4 2F.7 ....|G-4 2F.7 ....
....|..|--- .... ....|--- .... ....|--- .... ....
....|..|C-4 2F1F ....|--- .... ....|C-4 2F3F ....
....|..|--- .... ....|--- .... ....|--- .... ....
 G-4|..|C-4 CF.F ....|D#4 2F.F ....|G-4 2C.F ....
....|..|--- .... ....|--- .... ....|--- .... ....
....|..|R-- .... ....|--- .... ....|R-- .... ....
....|..|--- .... ....|--- .... ....|--- .... ....
....|..|F-3 2F1F ....|G-4 2F.7 ....|F-3 2F3F ....
....|..|C-4 2F1A ....|--- .... ....|--- .... ....
....|..|--- .... ....|--- .... ....|--- .... ....
....|..|--- .... ....|--- .... ....|--- .... ....
 G#4|..|C-4 AF.F ....|D#4 2F.F ....|G#4 2C.F ....
....|..|R-- .... ....|--- .... ....|--- .... ....
....|..|F-3 2F1F ....|--- .... ....|F-3 2F3F ....
....|..|--- .... ....|--- .... ....|--- .... ....
....|..|R-- .... ....|D#4 2F.7 ....|G-4 2F.7 ....
....|..|--- .... ....|--- .... ....|--- .... ....
 G#4|..|R-- .... ....|D#4 2F.F ....|G#4 2C.F ....
....|..|--- .... ....|--- .... ....|--- .... ....
....|..|C-4 CF.F ....|D#4 2F.7 ....|D#3 2F4F ....
....|..|D#3 2F2F ....|--- .... ....|--- .... ....
....|..|--- .... ....|R-- .... ....|R-- .... ....
....|..|--- .... ....|--- .... ....|--- .... ....
 G#4|..|R-- .... ....|D#4 2F.F ....|G#4 2C.F ....
....|..|R-- .... ....|--- .... ....|--- .... ....
....|..|D#3 2F2F ....|--- .... ....|D#3 2F4F ....
....|..|--- .... ....|--- .... ....|--- .... ....
 G-4|..|C-4 AF.F ....|D#4 2F.F ....|G-4 2C.F ....
....|..|--- .... ....|--- .... ....|--- .... ....
....|..|R-- .... ....|D#4 2F.A ....|R-- .... ....
....|..|--- .... ....|--- .... ....|--- .... ....
....|..|G#3 2F2F ....|R-- .... ....|G#3 2F4F ....
....|..|D#3 2F2A ....|--- .... ....|--- .... ....
....|..|--- .... ....|R-- .... ....|R-- .... ....
....|..|--- .... ....|--- .... ....|--- .... ....
....|..|C-4 CF.F ....|D#4 2F.7 ....|G#4 2F.7 ....
....|..|R-- .... ....|--- .... ....|--- .... ....
....|..|F-3 2F17 ....|--- .... ....|F-3 2F37 ....
....|..|--- .... ....|--- .... ....|--- .... ....
 G-4|..|R-- .... ....|D#4 2F.F ....|G-4 2C.F ....
....|..|--- .... ....|--- .... ....|--- .... ....
....|..|R-- .... ....|D#4 2F.7 ....|G#4 2F.7 ....
....|..|--- .... ....|--- .... ....|--- .... ....
 G#4|..|C-4 AF.F ....|F-4 2F.F ....|G#4 2C.F ....
....|..|D#3 2F27 ....|--- .... ....|--- .... ....
....|..|--- .... ....|R-- .... ....|R-- .... ....
....|..|--- .... ....|--- .... ....|--- .... ....
 A#3|..|R-- .... ....|G-4 2F.F ....|A#4 2C.F ....
....|..|--- .... ....|--- .... ....|--- .... ....
....|..|D#3 2F27 ....|--- .... ....|D#3 2F47 ....
....|..|--- .... ....|--- .... ....|--- .... ....
 G#4|..|C-4 CF.F ....|F-4 2F.F ....|G#4 2C.F ....
....|..|--- .... ....|--- .... ....|--- .... ....
....|..|R-- .... ....|--- .... ....|R-- .... ....
....|..|--- .... ....|--- .... ....|--- .... ....
 G-4|..|G#3 2F27 ....|D#4 2F.F ....|G-4 2C.F ....
....|..|--- .... ....|--- .... ....|--- .... ....
....|..|--- .... ....|--- .... ....|--- .... ....
....|..|--- .... ....|--- .... ....|--- .... ....

[Pattern17]
 G-4|..|C-4 AF.F ....|D#4 2F.F ....|G-4 2C.F ....
....|..|C-4 2F1F ....|--- .... ....|--- .... ....
....|..|--- .... ....|--- .... ....|--- .... ....
....|..|--- .... ....|--- .... ....|--- .... ....
....|..|R-- .... ....|D#4 2F.7 ....|G-4 2F.7 ....
....|..|--- .... ....|--- .... ....|--- .... ....
....|..|C-4 2F1F ....|--- .... ....|C-4 2F3F ....
....|..|--- .... ....|--- .... ....|--- .... ....
 D#4|..|C-4 CF.F ....|A#4 2F.F ....|D#5 2C.F ....
....|..|--- .... ....|--- .... ....|--- .... ....
....|..|R-- .... ....|--- .... ....|R-- .... ....
....|..|--- .... ....|--- .... ....|--- .... ....
 D#4|..|F-3 2F1F ....|A#4 2F.F ....|D#5 2C.F ....
....|..|C-4 2F1A ....|--- .... ....|--- .... ....
....|..|--- .... ....|--- .... ....|--- .... ....
....|..|--- .... ....|--- .... ....|--- .... ....
....|..|C-4 AF.F ....|F-4 2F.7 ....|G#4 2F.7 ....
....|..|R-- .... ....|--- .... ....|--- .... ....
....|..|F-3 2F1F ....|--- .... ....|F-3 2F3F ....
....|..|--- .... ....|--- .... ....|--- .... ....
 A#3|..|R-- .... ....|F-4 2F.F ....|A#4 2C.F ....
....|..|--- .... ....|--- .... ....|--- .... ....
....|..|R-- .... ....|--- .... ....|R-- .... ....
....|..|--- .... ....|--- .... ....|--- .... ....
 A#3|..|C-4 CF.F ....|F-4 2F.F ....|A#4 2C.F ....
....|..|D#3 2F2F ....|--- .... ....|--- .... ....
....|..|--- .... ....|--- .... ....|--- .... ....
....|..|--- .... ....|--- .... ....|--- .... ....
 A#3|..|R-- .... ....|F-4 2F.F ....|A#4 2C.F ....
....|..|R-- .... ....|--- .... ....|--- .... ....
....|..|D#3 2F2F ....|--- .... ....|D#3 2F4F ....
....|..|--- .... ....|--- .... ....|--- .... ....
 C-4|..|C-4 AF.F ....|D#4 2F.F ....|C-5 2C.F ....
....|..|--- .... ....|--- .... ....|--- .... ....
....|..|R-- .... ....|--- .... ....|R-- .... ....
....|..|--- .... ....|--- .... ....|--- .... ....
....|..|G#3 2F2F ....|A#4 2F.7 ....|G#3 2F4F ....
....|..|D#3 2F2A ....|--- .... ....|--- .... ....
....|..|--- .... ....|--- .... ....|--- .... ....
....|..|--- .... ....|--- .... ....|--- .... ....
....|..|C-4 CF.F ....|F-4 2F.A ....|R-- .... ....
....|..|R-- .... ....|--- .... ....|--- .... ....
....|..|F-3 2F17 ....|--- .... ....|F-3 2F37 ....
....|..|--- .... ....|--- .... ....|--- .... ....
....|..|R-- .... ....|F-4 2F.7 ....|A#4 2F.7 ....
....|..|--- .... ....|--- .... ....|--- .... ....
....|..|R-- .... ....|--- .... ....|R-- .... ....
....|..|--- .... ....|--- .... ....|--- .... ....
 A#3|..|C-4 CF.7 ....|A#3 2F.F ....|A#3 2C.F ....
....|..|D#3 2F27 ....|--- .... ....|--- .... ....
....|..|--- .... ....|--- .... ....|--- .... ....
....|..|--- .... ....|--- .... ....|--- .... ....
....|..|R-- .... ....|F-4 2F.7 ....|A#4 2F.7 ....
....|..|--- .... ....|--- .... ....|--- .... ....
....|..|D#3 2F27 ....|--- .... ....|D#3 2F47 ....
....|..|--- .... ....|--- .... ....|--- .... ....
 A#3|..|C-4 AF.7 ....|A#3 2F.F ....|A#3 2C.F ....
....|..|--- .... ....|--- .... ....|--- .... ....
....|..|R-- .... ....|--- .... ....|R-- .... ....
....|..|--- .... ....|--- .... ....|--- .... ....
....|..|G#3 2F27 ....|R-- .... ....|G#3 2F47 ....
....|..|--- .... ....|--- .... ....|--- .... ....
....|..|--- .... ....|--- .... ....|--- .... ....
....|..|--- .... ....|--- .... ....|--- .... ....

[Pattern18]
 A#3|..|C-4 2F3F ....|A#3 2F.F ....|A#3 2C.F ....
....|..|--- .... ....|--- .... ....|--- .... ....
....|..|--- .... ....|--- .... ....|--- .... ....
....|..|--- .... ....|--- .... ....|--- .... ....
 A#3|..|R-- .... ....|A#3 2F.F ....|A#3 2C.F ....
....|..|--- .... ....|--- .... ....|--- .... ....
 A#3|..|--- .... ....|A#3 2F.F ....|A#3 2C.F ....
....|..|--- .... ....|--- .... ....|--- .... ....
....|..|R-- .... ....|A#3 2F.7 ....|A#3 2F.7 ....
....|..|--- .... ....|--- .... ....|--- .... ....
....|..|--- .... ....|--- .... ....|--- .... ....
....|..|--- .... ....|--- .... ....|--- .... ....
 A#3|..|F-3 2F3F ....|A#3 2F.F ....|A#3 2C.F ....
....|..|--- .... ....|--- .... ....|--- .... ....
 A#3|..|--- .... ....|A#3 2F.F ....|A#3 2C.F ....
....|..|--- .... ....|--- .... ....|--- .... ....
 A#3|..|R-- .... ....|A#3 2F.F ....|A#3 2C.F ....
....|..|--- .... ....|--- .... ....|--- .... ....
....|..|--- .... ....|A#3 2F.A ....|A#3 2F.A ....
....|..|--- .... ....|--- .... ....|--- .... ....
 A#3|..|R-- .... ....|A#3 2F.F ....|A#3 2C.F ....
....|..|--- .... ....|--- .... ....|--- .... ....
....|..|--- .... ....|--- .... ....|--- .... ....
....|..|--- .... ....|--- .... ....|--- .... ....
 A#3|..|D#3 2F4F ....|A#3 2F.F ....|A#3 2C.F ....
....|..|--- .... ....|--- .... ....|--- .... ....
....|..|--- .... ....|A#3 2F.A ....|A#3 2F.A ....
....|..|--- .... ....|--- .... ....|--- .... ....
 A#3|..|R-- .... ....|A#3 2F.F ....|A#3 2C.F ....
....|..|--- .... ....|--- .... ....|--- .... ....
....|..|--- .... ....|A#3 2F.7 ....|A#3 2F.7 ....
....|..|--- .... ....|--- .... ....|--- .... ....
 A#3|..|--- .... ....|A#3 2F.F ....|A#3 2C.F ....
....|..|--- .... ....|--- .... ....|--- .... ....
....|..|--- .... ....|--- .... ....|--- .... ....
....|..|--- .... ....|--- .... ....|--- .... ....
 A#3|..|G#3 2F4F ....|A#3 2F.F ....|A#3 2C.F ....
....|..|--- .... ....|--- .... ....|--- .... ....
 A#3|..|--- .... ....|A#3 2F.F ....|A#3 2C.F ....
....|..|--- .... ....|--- .... ....|--- .... ....
....|..|R-- .... ....|A#3 2F.7 ....|A#3 2F.7 ....
....|..|--- .... ....|--- .... ....|--- .... ....
....|..|--- .... ....|--- .... ....|--- .... ....
....|..|--- .... ....|--- .... ....|--- .... ....
 A#3|..|--- .... ....|A#3 2F.F ....|A#3 2C.F ....
....|..|--- .... ....|--- .... ....|--- .... ....
....|..|--- .... ....|--- .... ....|--- .... ....
....|..|--- .... ....|--- .... ....|--- .... ....
 A#3|..|D#3 2F47 ....|A#3 2F.F ....|A#3 2C.F ....
....|..|--- .... ....|--- .... ....|--- .... ....
....|..|--- .... ....|A#3 2F.A ....|A#3 2F.A ....
....|..|--- .... ....|--- .... ....|--- .... ....
 A#3|..|R-- .... ....|A#3 2F.F ....|A#3 2C.F ....
....|..|--- .... ....|--- .... ....|--- .... ....
 A#3|..|--- .... ....|A#3 2F.F ....|A#3 2C.F ....
....|..|--- .... ....|--- .... ....|--- .... ....
 A#3|..|--- .... ....|A#3 2F.F ....|A#3 2C.F ....
....|..|--- .... ....|--- .... ....|--- .... ....
 A#3|..|--- .... ....|A#3 2F.F ....|A#3 2C.F ....
....|..|--- .... ....|--- .... ....|--- .... ....
 A#3|..|G#3 2F47 ....|A#3 2F.F ....|A#3 2C.F ....
....|..|--- .... ....|--- .... ....|--- .... ....
....|..|--- .... ....|A#3 2F.7 ....|A#3 2F.7 ....
....|..|--- .... ....|--- .... ....|--- .... ....

[Pattern19]
 A#3|..|C-4 BF.F ....|A#3 2F.F ....|A#3 2C.F ....
....|..|C-4 2F3F ....|--- .... ....|--- .... ....
....|..|--- .... ....|A#3 2F.A ....|A#3 2F.A ....
....|..|--- .... ....|--- .... ....|--- .... ....
 A#3|..|R-- .... ....|A#3 2F.F ....|A#3 2C.F ....
....|..|--- .... ....|--- .... ....|--- .... ....
 A#3|..|C-4 2F3F ....|A#3 2F.F ....|A#3 2C.F ....
....|..|--- .... ....|--- .... ....|--- .... ....
....|..|C-4 BF.F ....|A#3 2F.7 ....|A#3 2F.7 ....
....|..|--- .... ....|--- .... ....|--- .... ....
....|..|R-- .... ....|--- .... ....|--- .... ....
....|..|--- .... ....|--- .... ....|--- .... ....
 A#3|..|F-3 2F3F ....|A#3 2F.F ....|A#3 2C.F ....
....|..|C-4 2F3A ....|--- .... ....|--- .... ....
....|..|--- .... ....|A#3 2F.7 ....|A#3 2F.7 ....
....|..|--- .... ....|--- .... ....|--- .... ....
 A#3|..|C-4 BF.F ....|A#3 2F.F ....|A#3 2C.F ....
....|..|R-- .... ....|--- .... ....|--- .... ....
 A#3|..|F-3 2F3F ....|A#3 2F.F ....|A#3 2C.F ....
....|..|--- .... ....|--- .... ....|--- .... ....
 A#3|..|R-- .... ....|A#3 2F.F ....|A#3 2C.F ....
....|..|--- .... ....|--- .... ....|--- .... ....
....|..|R-- .... ....|--- .... ....|--- .... ....
....|..|--- .... ....|--- .... ....|--- .... ....
 A#3|..|C-4 BF.F ....|A#3 2F.F ....|A#3 2C.F ....
....|..|D#3 2F4F ....|--- .... ....|--- .... ....
....|..|--- .... ....|--- .... ....|--- .... ....
....|..|--- .... ....|--- .... ....|--- .... ....
 A#3|..|R-- .... ....|A#3 2F.F ....|A#3 2C.F ....
....|..|R-- .... ....|--- .... ....|--- .... ....
....|..|D#3 2F4F ....|A#3 2F.7 ....|A#3 2F.7 ....
....|..|--- .... ....|--- .... ....|--- .... ....
 A#3|..|C-4 BF.F ....|A#3 2F.F ....|A#3 2C.F ....
....|..|--- .... ....|--- .... ....|--- .... ....
....|..|R-- .... ....|--- .... ....|--- .... ....
....|..|--- .... ....|--- .... ....|--- .... ....
 A#3|..|G#3 2F4F ....|A#3 2F.F ....|A#3 2C.F ....
....|..|D#3 2F4A ....|--- .... ....|--- .... ....
 A#3|..|--- .... ....|A#3 2F.F ....|A#3 2C.F ....
....|..|--- .... ....|--- .... ....|--- .... ....
....|..|C-4 BF.F ....|A#3 2F.7 ....|A#3 2F.7 ....
....|..|R-- .... ....|--- .... ....|--- .... ....
....|..|F-3 2F37 ....|A#3 2F.7 ....|A#3 2F.7 ....
....|..|--- .... ....|--- .... ....|--- .... ....
....|..|R-- .... ....|A#3 2F.7 ....|A#3 2F.7 ....
....|..|--- .... ....|--- .... ....|--- .... ....
....|..|R-- .... ....|--- .... ....|--- .... ....
....|..|--- .... ....|--- .... ....|--- .... ....
 A#3|..|C-4 BF.F ....|A#3 2F.F ....|A#3 2C.F ....
....|..|D#3 2F47 ....|--- .... ....|--- .... ....
....|..|--- .... ....|A#3 2F.A ....|A#3 2F.A ....
....|..|--- .... ....|--- .... ....|--- .... ....
....|..|R-- .... ....|A#3 2F.7 ....|A#3 2F.7 ....
....|..|--- .... ....|--- .... ....|--- .... ....
....|..|D#3 2F47 ....|--- .... ....|--- .... ....
....|..|--- .... ....|--- .... ....|--- .... ....
 A#3|..|C-4 BF.F ....|A#3 2F.F ....|A#3 2C.F ....
....|..|--- .... ....|--- .... ....|--- .... ....
....|..|R-- .... ....|--- .... ....|--- .... ....
....|..|--- .... ....|--- .... ....|--- .... ....
....|..|G#3 2F47 ....|A#3 2F.7 ....|A#3 2F.7 ....
....|..|--- .... ....|--- .... ....|--- .... ....
....|..|--- .... ....|A#3 2F.7 ....|A#3 2F.7 ....
....|..|--- .... ....|--- .... ....|--- .... ....

[Pattern20]
 A#3|..|C-4 AF.F ....|A#3 2F.F ....|A#3 2C.F ....
....|..|C-4 2F3F ....|--- .... ....|--- .... ....
....|..|--- .... ....|--- .... ....|--- .... ....
....|..|--- .... ....|--- .... ....|--- .... ....
 A#3|..|R-- .... ....|A#3 2F.F ....|A#3 2C.F ....
....|..|--- .... ....|--- .... ....|--- .... ....
 A#3|..|C-4 2F3F ....|A#3 2F.F ....|A#3 2C.F ....
....|..|--- .... ....|--- .... ....|--- .... ....
....|..|C-4 AF.F ....|A#3 2F.7 ....|A#3 2F.7 ....
....|..|--- .... ....|--- .... ....|--- .... ....
....|..|R-- .... ....|--- .... ....|--- .... ....
....|..|--- .... ....|--- .... ....|--- .... ....
 A#3|..|F-3 2F3F ....|A#3 2F.F ....|A#3 2C.F ....
....|..|C-4 2F3A ....|--- .... ....|--- .... ....
....|..|--- .... ....|--- .... ....|--- .... ....
....|..|--- .... ....|--- .... ....|--- .... ....
 A#3|..|C-4 AF.F ....|A#3 2F.F ....|A#3 2C.F ....
....|..|R-- .... ....|--- .... ....|--- .... ....
 A#3|..|F-3 2F3F ....|A#3 2F.F ....|A#3 2C.F ....
....|..|--- .... ....|--- .... ....|--- .... ....
 A#3|..|R-- .... ....|A#3 2F.F ....|A#3 2C.F ....
....|..|--- .... ....|--- .... ....|--- .... ....
....|..|R-- .... ....|--- .... ....|--- .... ....
....|..|--- .... ....|--- .... ....|--- .... ....
 A#3|..|C-4 AF.F ....|A#3 2F.F ....|A#3 2C.F ....
....|..|D#3 2F4F ....|--- .... ....|--- .... ....
....|..|--- .... ....|--- .... ....|--- .... ....
....|..|--- .... ....|--- .... ....|--- .... ....
 A#3|..|R-- .... ....|A#3 2F.F ....|A#3 2C.F ....
....|..|R-- .... ....|--- .... ....|--- .... ....
....|..|D#3 2F4F ....|A#3 2F.7 ....|A#3 2F.7 ....
....|..|--- .... ....|--- .... ....|--- .... ....
 A#3|..|C-4 AF.F ....|A#3 2F.F ....|A#3 2C.F ....
....|..|--- .... ....|--- .... ....|--- .... ....
....|..|R-- .... ....|--- .... ....|--- .... ....
....|..|--- .... ....|--- .... ....|--- .... ....
 A#3|..|G#3 2F4F ....|A#3 2F.F ....|A#3 2C.F ....
....|..|D#3 2F4A ....|--- .... ....|--- .... ....
 A#3|..|--- .... ....|A#3 2F.F ....|A#3 2C.F ....
....|..|--- .... ....|--- .... ....|--- .... ....
....|..|C-4 AF.F ....|A#3 2F.7 ....|A#3 2F.7 ....
....|..|R-- .... ....|--- .... ....|--- .... ....
....|..|F-3 2F37 ....|A#3 2F.7 ....|A#3 2F.7 ....
....|..|--- .... ....|--- .... ....|--- .... ....
 A#3|..|R-- .... ....|A#3 2F.F ....|A#3 2C.F ....
....|..|--- .... ....|--- .... ....|--- .... ....
....|..|R-- .... ....|--- .... ....|--- .... ....
....|..|--- .... ....|--- .... ....|--- .... ....
 A#3|..|C-4 AF.F ....|A#3 2F.F ....|A#3 2C.F ....
....|..|D#3 2F47 ....|--- .... ....|--- .... ....
 A#3|..|--- .... ....|A#3 2F.F ....|A#3 2C.F ....
....|..|--- .... ....|--- .... ....|--- .... ....
 A#3|..|R-- .... ....|A#3 2F.F ....|A#3 2C.F ....
....|..|--- .... ....|--- .... ....|--- .... ....
....|..|D#3 2F47 ....|--- .... ....|--- .... ....
....|..|--- .... ....|--- .... ....|--- .... ....
 A#3|..|C-4 AF.F ....|A#3 2F.F ....|A#3 2C.F ....
....|..|--- .... ....|--- .... ....|--- .... ....
....|..|R-- .... ....|--- .... ....|--- .... ....
....|..|--- .... ....|--- .... ....|--- .... ....
....|..|G#3 2F47 ....|A#3 2F.7 ....|A#3 2F.7 ....
....|..|--- .... ....|--- .... ....|--- .... ....
....|..|--- .... ....|A#3 2F.7 ....|A#3 2F.7 ....
....|..|--- .... ....|--- .... ....|--- .... ....

[Pattern21]
 A#3|..|C-4 AF.F ....|A#3 2F.F ....|A#3 2C.F ....
....|..|C-4 2F3F ....|--- .... ....|--- .... ....
 A#3|..|--- .... ....|A#3 2F.F ....|A#3 2C.F ....
....|..|--- .... ....|--- .... ....|--- .... ....
 A#3|..|R-- .... ....|A#3 2F.F ....|A#3 2C.F ....
....|..|--- .... ....|--- .... ....|--- .... ....
....|..|C-4 2F3F ....|--- .... ....|--- .... ....
....|..|--- .... ....|--- .... ....|--- .... ....
 A#3|..|C-4 AF.F ....|A#3 2F.F ....|A#3 2C.F ....
....|..|--- .... ....|--- .... ....|--- .... ....
....|..|R-- .... ....|A#3 2F.7 ....|A#3 2F.7 ....
....|..|--- .... ....|--- .... ....|--- .... ....
....|..|F-3 2F3F ....|A#3 2F.7 ....|A#3 2F.7 ....
....|..|C-4 2F3A ....|--- .... ....|--- .... ....
....|..|--- .... ....|A#3 2F.A ....|A#3 2F.A ....
....|..|--- .... ....|--- .... ....|--- .... ....
 A#3|..|C-4 AF.F ....|A#3 2F.F ....|A#3 2C.F ....
....|..|R-- .... ....|--- .... ....|--- .... ....
 A#3|..|F-3 2F3F ....|A#3 2F.F ....|A#3 2C.F ....
....|..|--- .... ....|--- .... ....|--- .... ....
 A#3|..|R-- .... ....|A#3 2F.F ....|A#3 2C.F ....
....|..|--- .... ....|--- .... ....|--- .... ....
....|..|R-- .... ....|--- .... ....|--- .... ....
....|..|--- .... ....|--- .... ....|--- .... ....
 A#3|..|C-4 AF.F ....|A#3 2F.F ....|A#3 2C.F ....
....|..|D#3 2F4F ....|--- .... ....|--- .... ....
....|..|--- .... ....|A#3 2F.7 ....|A#3 2F.7 ....
....|..|--- .... ....|--- .... ....|--- .... ....
....|..|R-- .... ....|A#3 2F.7 ....|A#3 2F.7 ....
....|..|R-- .... ....|--- .... ....|--- .... ....
....|..|D#3 2F4F ....|A#3 2F.A ....|A#3 2F.A ....
....|..|--- .... ....|--- .... ....|--- .... ....
 A#3|..|C-4 AF.F ....|A#3 2F.F ....|A#3 2C.F ....
....|..|--- .... ....|--- .... ....|--- .... ....
 A#3|..|R-- .... ....|A#3 2F.F ....|A#3 2C.F ....
....|..|--- .... ....|--- .... ....|--- .... ....
 A#3|..|G#3 2F4F ....|A#3 2F.F ....|A#3 2C.F ....
....|..|D#3 2F4A ....|--- .... ....|--- .... ....
....|..|--- .... ....|--- .... ....|--- .... ....
....|..|--- .... ....|--- .... ....|--- .... ....
 A#3|..|C-4 AF.F ....|A#3 2F.F ....|A#3 2C.F ....
....|..|R-- .... ....|--- .... ....|--- .... ....
....|..|F-3 2F37 ....|A#3 2F.7 ....|A#3 2F.7 ....
....|..|--- .... ....|--- .... ....|--- .... ....
....|..|R-- .... ....|A#3 2F.7 ....|A#3 2F.7 ....
....|..|--- .... ....|--- .... ....|--- .... ....
....|..|R-- .... ....|A#3 2F.A ....|A#3 2F.A ....
....|..|--- .... ....|--- .... ....|--- .... ....
....|..|C-4 AF.F ....|A#3 2F.7 ....|A#3 2F.7 ....
....|..|D#3 2F47 ....|--- .... ....|--- .... ....
....|..|--- .... ....|--- .... ....|--- .... ....
....|..|--- .... ....|--- .... ....|--- .... ....
 A#3|..|R-- .... ....|A#3 2F.F ....|A#3 2C.F ....
....|..|--- .... ....|--- .... ....|--- .... ....
....|..|D#3 2F47 ....|--- .... ....|--- .... ....
....|..|--- .... ....|--- .... ....|--- .... ....
 D#4|..|C-4 AF.F ....|D#4 2F.F ....|D#4 2C.F ....
....|..|--- .... ....|--- .... ....|--- .... ....
....|..|R-- .... ....|A#3 2F.7 ....|A#3 2F.7 ....
....|..|--- .... ....|--- .... ....|--- .... ....
 F-4|..|G#3 2F47 ....|F-4 2F.F ....|F-4 2C.F ....
....|..|--- .... ....|--- .... ....|--- .... ....
....|..|--- .... ....|--- .... ....|--- .... ....
....|..|--- .... ....|--- .... ....|--- .... ....

[Pattern26]
....|..|C-4 2F1F ....|D#4 2F.F ....|G#4 2F.F ....
....|..|--- .... ....|--- .... ....|--- .... ....
....|..|--- .... ....|--- .... ....|C-5 2F.F ....
....|..|--- .... ....|--- .... ....|--- .... ....
....|..|R-- .... ....|D#4 2F.7 ....|D#5 2F.F ....
....|..|--- .... ....|--- .... ....|--- .... ....
....|..|C-4 2F1F ....|--- .... ....|G#5 2F.F ....
....|..|--- .... ....|--- .... ....|--- .... ....
....|..|C-4 AF.7 ....|D#4 2F.F ....|G#4 2F.F ....
....|..|--- .... ....|--- .... ....|--- .... ....
....|..|R-- .... ....|--- .... ....|C-5 2F.F ....
....|..|--- .... ....|--- .... ....|--- .... ....
....|..|F-3 2F1F ....|G-4 2F.7 ....|D#5 2F.F ....
....|..|--- .... ....|--- .... ....|--- .... ....
....|..|--- .... ....|--- .... ....|G#5 2F.F ....
....|..|--- .... ....|--- .... ....|--- .... ....
....|..|C-4 CF.7 ....|D#4 2F.F ....|G#4 2F.F ....
....|..|--- .... ....|--- .... ....|--- .... ....
....|..|F-3 2F1F ....|--- .... ....|C-5 2F.F ....
....|..|--- .... ....|--- .... ....|--- .... ....
....|..|R-- .... ....|D#4 2F.7 ....|D#5 2F.F ....
....|..|--- .... ....|--- .... ....|--- .... ....
....|..|R-- .... ....|D#4 2F.F ....|G#5 2F.F ....
....|..|--- .... ....|--- .... ....|--- .... ....
....|..|D#3 2F2F ....|D#4 2F.7 ....|G#4 2F.F ....
....|..|--- .... ....|--- .... ....|--- .... ....
....|..|--- .... ....|R-- .... ....|C-5 2F.F ....
....|..|--- .... ....|--- .... ....|--- .... ....
....|..|R-- .... ....|D#4 2F.F ....|D#5 2F.F ....
....|..|--- .... ....|--- .... ....|--- .... ....
....|..|D#3 2F2F ....|--- .... ....|G#5 2F.F ....
....|..|--- .... ....|--- .... ....|--- .... ....
....|..|--- .... ....|D#4 2F.F ....|G#4 2F.F ....
....|..|--- .... ....|--- .... ....|--- .... ....
....|..|R-- .... ....|D#4 2F.A ....|D#5 2F.F ....
....|..|--- .... ....|--- .... ....|--- .... ....
....|..|G#3 2F2F ....|R-- .... ....|G#5 2F.F ....
....|..|--- .... ....|--- .... ....|--- .... ....
....|..|--- .... ....|R-- .... ....|C-6 2F.F ....
....|..|--- .... ....|--- .... ....|--- .... ....
....|..|R-- .... ....|D#4 2F.7 ....|G#4 2F.F ....
....|..|--- .... ....|--- .... ....|--- .... ....
....|..|F-3 2F17 ....|--- .... ....|D#5 2F.F ....
....|..|--- .... ....|--- .... ....|--- .... ....
....|..|--- .... ....|D#4 2F.F ....|G#5 2F.F ....
....|..|--- .... ....|--- .... ....|--- .... ....
....|..|R-- .... ....|D#4 2F.7 ....|C-6 2F.F ....
....|..|--- .... ....|--- .... ....|--- .... ....
....|..|D#3 2F27 ....|F-4 2F.F ....|G#4 2F.F ....
....|..|--- .... ....|--- .... ....|--- .... ....
....|..|--- .... ....|R-- .... ....|D#5 2F.F ....
....|..|--- .... ....|--- .... ....|--- .... ....
....|..|R-- .... ....|G-4 2F.F ....|G#5 2F.F ....
....|..|--- .... ....|--- .... ....|--- .... ....
....|..|D#3 2F27 ....|--- .... ....|C-6 2F.F ....
....|..|--- .... ....|--- .... ....|--- .... ....
....|..|--- .... ....|F-4 2F.F ....|G#4 2F.F ....
....|..|--- .... ....|--- .... ....|--- .... ....
....|..|R-- .... ....|--- .... ....|D#5 2F.F ....
....|..|--- .... ....|--- .... ....|--- .... ....
....|..|G#3 2F27 ....|D#4 2F.F ....|G#5 2F.F ....
....|..|--- .... ....|--- .... ....|--- .... ....
....|..|--- .... ....|--- .... ....|C-6 2F.F ....
....|..|--- .... ....|--- .... ....|--- .... ....

[Pattern27]
....|..|C-4 2F1F ....|D#4 2F.F ....|G#4 2F.F ....
....|..|--- .... ....|--- .... ....|--- .... ....
....|..|--- .... ....|--- .... ....|C-5 2F.F ....
....|..|--- .... ....|--- .... ....|--- .... ....
....|..|R-- .... ....|D#4 2F.7 ....|D#5 2F.F ....
....|..|--- .... ....|--- .... ....|--- .... ....
....|..|C-4 2F1F ....|--- .... ....|G#5 2F.F ....
....|..|--- .... ....|--- .... ....|--- .... ....
....|..|R-- .... ....|D#4 2F.F ....|G#4 2F.F ....
....|..|--- .... ....|--- .... ....|--- .... ....
....|..|R-- .... ....|--- .... ....|C-5 2F.F ....
....|..|--- .... ....|--- .... ....|--- .... ....
....|..|F-3 2F1F ....|G-4 2F.7 ....|D#5 2F.F ....
....|..|--- .... ....|--- .... ....|--- .... ....
....|..|--- .... ....|--- .... ....|G#5 2F.F ....
....|..|--- .... ....|--- .... ....|--- .... ....
....|..|R-- .... ....|D#4 2F.F ....|G#4 2F.F ....
....|..|--- .... ....|--- .... ....|--- .... ....
....|..|F-3 2F1F ....|--- .... ....|C-5 2F.F ....
....|..|--- .... ....|--- .... ....|--- .... ....
....|..|R-- .... ....|D#4 2F.7 ....|D#5 2F.F ....
....|..|--- .... ....|--- .... ....|--- .... ....
....|..|R-- .... ....|D#4 2F.F ....|G#5 2F.F ....
....|..|--- .... ....|--- .... ....|--- .... ....
....|..|D#3 2F2F ....|D#4 2F.7 ....|G#4 2F.F ....
....|..|--- .... ....|--- .... ....|--- .... ....
....|..|--- .... ....|R-- .... ....|C-5 2F.F ....
....|..|--- .... ....|--- .... ....|--- .... ....
....|..|R-- .... ....|D#4 2F.F ....|D#5 2F.F ....
....|..|--- .... ....|--- .... ....|--- .... ....
....|..|D#3 2F2F ....|--- .... ....|G#5 2F.F ....
....|..|--- .... ....|--- .... ....|--- .... ....
....|..|--- .... ....|D#4 2F.F ....|G#4 2F.F ....
....|..|--- .... ....|--- .... ....|--- .... ....
....|..|R-- .... ....|D#4 2F.A ....|D#5 2F.F ....
....|..|--- .... ....|--- .... ....|--- .... ....
....|..|G#3 2F2F ....|R-- .... ....|G#5 2F.F ....
....|..|--- .... ....|--- .... ....|--- .... ....
....|..|--- .... ....|R-- .... ....|C-6 2F.F ....
....|..|--- .... ....|--- .... ....|--- .... ....
....|..|R-- .... ....|D#4 2F.7 ....|G#4 2F.F ....
....|..|--- .... ....|--- .... ....|--- .... ....
....|..|F-3 2F17 ....|--- .... ....|D#5 2F.F ....
....|..|--- .... ....|--- .... ....|--- .... ....
....|..|--- .... ....|D#4 2F.F ....|G#5 2F.F ....
....|..|--- .... ....|--- .... ....|--- .... ....
....|..|R-- .... ....|D#4 2F.7 ....|C-6 2F.F ....
....|..|--- .... ....|--- .... ....|--- .... ....
....|..|D#3 2F27 ....|F-4 2F.F ....|G#4 2F.F ....
....|..|--- .... ....|--- .... ....|--- .... ....
....|..|--- .... ....|R-- .... ....|D#5 2F.F ....
....|..|--- .... ....|--- .... ....|--- .... ....
....|..|R-- .... ....|G-4 2F.F ....|G#5 2F.F ....
....|..|--- .... ....|--- .... ....|--- .... ....
....|..|D#3 2F27 ....|--- .... ....|C-6 2F.F ....
....|..|--- .... ....|--- .... ....|--- .... ....
....|..|--- .... ....|F-4 2F.F ....|G#4 2F.F ....
....|..|--- .... ....|--- .... ....|--- .... ....
....|..|R-- .... ....|--- .... ....|D#5 2F.F ....
....|..|--- .... ....|--- .... ....|--- .... ....
....|..|G#3 2F27 ....|D#4 2F.F ....|G#5 2F.F ....
....|..|--- .... ....|--- .... ....|--- .... ....
....|..|--- .... ....|--- .... ....|C-6 2F.F ....
....|..|--- .... ....|--- .... ....|--- .... ....

[Pattern29]
....|..|C-4 2F1F ....|D#4 2F.F ....|G#4 2F.F ....
....|..|--- .... ....|--- .... ....|--- .... ....
....|..|--- .... ....|--- .... ....|C-5 2F.F ....
....|..|--- .... ....|--- .... ....|--- .... ....
....|..|R-- .... ....|D#4 2F.7 ....|D#5 2F.F ....
....|..|--- .... ....|--- .... ....|--- .... ....
....|..|C-4 2F1F ....|--- .... ....|G#5 2F.F ....
....|..|--- .... ....|--- .... ....|--- .... ....
....|..|R-- .... ....|A#4 2F.F ....|G#4 2F.F ....
....|..|--- .... ....|--- .... ....|--- .... ....
....|..|R-- .... ....|--- .... ....|C-5 2F.F ....
....|..|--- .... ....|--- .... ....|--- .... ....
....|..|F-3 2F1F ....|A#4 2F.F ....|D#5 2F.F ....
....|..|--- .... ....|--- .... ....|--- .... ....
....|..|--- .... ....|--- .... ....|G#5 2F.F ....
....|..|--- .... ....|--- .... ....|--- .... ....
....|..|R-- .... ....|F-4 2F.7 ....|G#4 2F.F ....
....|..|--- .... ....|--- .... ....|--- .... ....
....|..|F-3 2F1F ....|--- .... ....|C-5 2F.F ....
....|..|--- .... ....|--- .... ....|--- .... ....
....|..|R-- .... ....|F-4 2F.F ....|D#5 2F.F ....
....|..|--- .... ....|--- .... ....|--- .... ....
....|..|R-- .... ....|--- .... ....|G#5 2F.F ....
....|..|--- .... ....|--- .... ....|--- .... ....
....|..|D#3 2F2F ....|F-4 2F.F ....|G#4 2F.F ....
....|..|--- .... ....|--- .... ....|--- .... ....
....|..|--- .... ....|--- .... ....|C-5 2F.F ....
....|..|--- .... ....|--- .... ....|--- .... ....
....|..|R-- .... ....|F-4 2F.F ....|D#5 2F.F ....
....|..|--- .... ....|--- .... ....|--- .... ....
....|..|D#3 2F2F ....|--- .... ....|G#5 2F.F ....
....|..|--- .... ....|--- .... ....|--- .... ....
....|..|--- .... ....|D#4 2F.F ....|G#4 2F.F ....
....|..|--- .... ....|--- .... ....|--- .... ....
....|..|R-- .... ....|--- .... ....|D#5 2F.F ....
....|..|--- .... ....|--- .... ....|--- .... ....
....|..|G#3 2F2F ....|A#4 2F.7 ....|G#5 2F.F ....
....|..|--- .... ....|--- .... ....|--- .... ....
....|..|--- .... ....|--- .... ....|C-6 2F.F ....
....|..|--- .... ....|--- .... ....|--- .... ....
....|..|R-- .... ....|F-4 2F.A ....|G#4 2F.F ....
....|..|--- .... ....|--- .... ....|--- .... ....
....|..|F-3 2F17 ....|--- .... ....|D#5 2F.F ....
....|..|--- .... ....|--- .... ....|--- .... ....
....|..|--- .... ....|D#4 2F.F ....|G#5 2F.F ....
 G-4|..|--- .... ....|--- .... ....|G-4 2C.F ....
....|..|R-- .... ....|--- .... ....|C-6 2F.F ....
....|..|--- .... ....|--- .... ....|--- .... ....
....|..|D#3 2F27 ....|F-4 2F.F ....|G#4 2F.F ....
 G#4|..|--- .... ....|--- .... ....|G#4 2C.F ....
....|..|--- .... ....|--- .... ....|D#5 2F.F ....
....|..|--- .... ....|--- .... ....|--- .... ....
....|..|R-- .... ....|G-4 2F.F ....|G#5 2F.F ....
 A#3|..|--- .... ....|--- .... ....|A#4 2C.F ....
....|..|D#3 2F27 ....|--- .... ....|C-6 2F.F ....
....|..|--- .... ....|--- .... ....|--- .... ....
....|..|--- .... ....|F-4 2F.F ....|G#4 2F.F ....
 G#4|..|--- .... ....|--- .... ....|G#4 2C.F ....
....|..|R-- .... ....|--- .... ....|D#5 2F.F ....
....|..|--- .... ....|--- .... ....|--- .... ....
....|..|G#3 2F27 ....|D#4 2F.F ....|G#5 2F.F ....
 G-4|..|--- .... ....|--- .... ....|G-4 2C.F ....
....|..|--- .... ....|--- .... ....|C-6 2F.F ....
....|..|--- .... ....|--- .... ....|--- .... ....

[Pattern30]
....|..|C-4 AF.F ....|D#4 2F.F ....|G#4 2F.F ....
 G-4|..|C-4 2F1F ....|--- .... ....|G-4 2C.F ....
....|..|--- .... ....|--- .... ....|C-5 2F.F ....
....|..|--- .... ....|--- .... ....|--- .... ....
....|..|R-- .... ....|D#4 2F.7 ....|D#5 2F.F ....
....|..|--- .... ....|--- .... ....|G-4 2F.7 ....
....|..|C-4 2F1F ....|--- .... ....|G#5 2F.F ....
....|..|--- .... ....|--- .... ....|--- .... ....
....|..|C-4 CF.F ....|D#4 2F.F ....|G#4 2F.F ....
 G-4|..|--- .... ....|--- .... ....|G-4 2C.F ....
....|..|R-- .... ....|--- .... ....|C-5 2F.F ....
....|..|--- .... ....|--- .... ....|--- .... ....
....|..|F-3 2F1F ....|G-4 2F.7 ....|D#5 2F.F ....
....|..|C-4 2F1A ....|--- .... ....|A#4 2F.7 ....
....|..|--- .... ....|--- .... ....|G#5 2F.F ....
....|..|--- .... ....|--- .... ....|--- .... ....
....|..|C-4 AF.F ....|D#4 2F.F ....|G#4 2F.F ....
 G#4|..|R-- .... ....|--- .... ....|G#4 2C.F ....
....|..|F-3 2F1F ....|--- .... ....|C-5 2F.F ....
....|..|--- .... ....|--- .... ....|--- .... ....
....|..|R-- .... ....|D#4 2F.7 ....|D#5 2F.F ....
....|..|--- .... ....|--- .... ....|G-4 2F.7 ....
....|..|R-- .... ....|D#4 2F.F ....|G#5 2F.F ....
 G#4|..|--- .... ....|--- .... ....|G#4 2C.F ....
....|..|C-4 CF.F ....|D#4 2F.7 ....|G#4 2F.F ....
....|..|D#3 2F2F ....|--- .... ....|G-4 2F.7 ....
....|..|--- .... ....|R-- .... ....|C-5 2F.F ....
....|..|--- .... ....|--- .... ....|R-- .... ....
....|..|R-- .... ....|D#4 2F.F ....|D#5 2F.F ....
 G#4|..|R-- .... ....|--- .... ....|G#4 2C.F ....
....|..|D#3 2F2F ....|--- .... ....|G#5 2F.F ....
....|..|--- .... ....|--- .... ....|--- .... ....
....|..|C-4 AF.F ....|D#4 2F.F ....|G#4 2F.F ....
 G-4|..|--- .... ....|--- .... ....|G-4 2C.F ....
....|..|R-- .... ....|D#4 2F.A ....|D#5 2F.F ....
....|..|--- .... ....|--- .... ....|G#4 2F.A ....
....|..|G#3 2F2F ....|R-- .... ....|G#5 2F.F ....
....|..|D#3 2F2A ....|--- .... ....|R-- .... ....
....|..|--- .... ....|R-- .... ....|C-6 2F.F ....
....|..|--- .... ....|--- .... ....|R-- .... ....
....|..|C-4 CF.F ....|D#4 2F.7 ....|G#4 2F.F ....
....|..|R-- .... ....|--- .... ....|G#4 2F.7 ....
....|..|F-3 2F17 ....|--- .... ....|D#5 2F.F ....
....|..|--- .... ....|--- .... ....|--- .... ....
....|..|R-- .... ....|D#4 2F.F ....|G#5 2F.F ....
 G-4|..|--- .... ....|--- .... ....|G-4 2C.F ....
....|..|R-- .... ....|D#4 2F.7 ....|C-6 2F.F ....
....|..|--- .... ....|--- .... ....|G#4 2F.7 ....
....|..|C-4 AF.F ....|F-4 2F.F ....|G#4 2F.F ....
 G#4|..|D#3 2F27 ....|--- .... ....|G#4 2C.F ....
....|..|--- .... ....|R-- .... ....|D#5 2F.F ....
....|..|--- .... ....|--- .... ....|R-- .... ....
....|..|R-- .... ....|G-4 2F.F ....|G#5 2F.F ....
 A#3|..|--- .... ....|--- .... ....|A#4 2C.F ....
....|..|D#3 2F27 ....|--- .... ....|C-6 2F.F ....
....|..|--- .... ....|--- .... ....|--- .... ....
....|..|C-4 CF.F ....|F-4 2F.F ....|G#4 2F.F ....
 G#4|..|--- .... ....|--- .... ....|G#4 2C.F ....
....|..|R-- .... ....|--- .... ....|D#5 2F.F ....
....|..|--- .... ....|--- .... ....|--- .... ....
....|..|G#3 2F27 ....|D#4 2F.F ....|G#5 2F.F ....
 G-4|..|--- .... ....|--- .... ....|G-4 2C.F ....
....|..|--- .... ....|--- .... ....|C-6 2F.F ....
....|..|--- .... ....|--- .... ....|--- .... ....

[Pattern33]
....|..|C-4 AF.F ....|D#4 2F.F ....|D#6 2F.F ....
 G-4|..|C-4 2F1F ....|--- .... ....|G-4 2C.F ....
....|..|--- .... ....|--- .... ....|G#5 2F.F ....
....|..|--- .... ....|--- .... ....|--- .... ....
....|..|R-- .... ....|D#4 2F.7 ....|D#5 2F.F ....
....|..|--- .... ....|--- .... ....|G-4 2F.7 ....
....|..|C-4 2F1F ....|--- .... ....|G#4 2F.F ....
....|..|--- .... ....|--- .... ....|--- .... ....
....|..|C-4 CF.F ....|A#4 2F.F ....|D#6 2F.F ....
 D#4|..|--- .... ....|--- .... ....|D#5 2C.F ....
....|..|R-- .... ....|--- .... ....|G#5 2F.F ....
....|..|--- .... ....|--- .... ....|--- .... ....
....|..|F-3 2F1F ....|A#4 2F.F ....|D#5 2F.F ....
 D#4|..|C-4 2F1A ....|--- .... ....|D#5 2C.F ....
....|..|--- .... ....|--- .... ....|G#4 2F.F ....
....|..|--- .... ....|--- .... ....|--- .... ....
....|..|C-4 AF.F ....|F-4 2F.7 ....|D#6 2F.F ....
....|..|R-- .... ....|--- .... ....|G#4 2F.7 ....
....|..|F-3 2F1F ....|--- .... ....|G#5 2F.F ....
....|..|--- .... ....|--- .... ....|--- .... ....
....|..|R-- .... ....|F-4 2F.F ....|D#5 2F.F ....
 A#3|..|--- .... ....|--- .... ....|A#4 2C.F ....
....|..|R-- .... ....|--- .... ....|G#4 2F.F ....
....|..|--- .... ....|--- .... ....|--- .... ....
....|..|C-4 CF.F ....|F-4 2F.F ....|D#6 2F.F ....
 A#3|..|D#3 2F2F ....|--- .... ....|A#4 2C.F ....
....|..|--- .... ....|--- .... ....|G#5 2F.F ....
....|..|--- .... ....|--- .... ....|--- .... ....
....|..|R-- .... ....|F-4 2F.F ....|D#5 2F.F ....
 A#3|..|R-- .... ....|--- .... ....|A#4 2C.F ....
....|..|D#3 2F2F ....|--- .... ....|G#4 2F.F ....
....|..|--- .... ....|--- .... ....|--- .... ....
 C-4|..|C-4 AF.F ....|D#4 2F.F ....|C-5 2C.F ....
....|..|--- .... ....|--- .... ....|D#5 2F.7 ....
....|..|R-- .... ....|--- .... ....|G#5 2F.7 ....
....|..|--- .... ....|--- .... ....|--- .... ....
....|..|G#3 2F2F ....|A#4 2F.7 ....|G#3 2F4F ....
....|..|D#3 2F2A ....|--- .... ....|D#5 2F.7 ....
....|..|--- .... ....|--- .... ....|G#4 2F.7 ....
....|..|--- .... ....|--- .... ....|--- .... ....
....|..|C-4 CF.F ....|F-4 2F.A ....|D#6 2F.7 ....
....|..|R-- .... ....|--- .... ....|A#4 2F.A ....
....|..|F-3 2F17 ....|--- .... ....|G#5 2F.7 ....
....|..|--- .... ....|--- .... ....|--- .... ....
....|..|R-- .... ....|F-4 2F.7 ....|D#5 2F.7 ....
....|..|--- .... ....|--- .... ....|A#4 2F.7 ....
....|..|R-- .... ....|--- .... ....|G#4 2F.7 ....
....|..|--- .... ....|--- .... ....|--- .... ....
 G-4|..|C-4 CF.7 ....|G-4 2F.F ....|G-4 2C.F ....
....|..|D#3 2F27 ....|--- .... ....|A#4 2F.7 ....
....|..|--- .... ....|--- .... ....|G#5 2F.7 ....
....|..|--- .... ....|--- .... ....|--- .... ....
....|..|R-- .... ....|F-4 2F.7 ....|D#5 2F.7 ....
....|..|--- .... ....|--- .... ....|A#4 2F.7 ....
....|..|D#3 2F27 ....|--- .... ....|G#4 2F.7 ....
....|..|--- .... ....|--- .... ....|--- .... ....
 D#4|..|C-4 AF.7 ....|D#4 2F.F ....|D#4 2C.F ....
....|..|--- .... ....|--- .... ....|--- .... ....
....|..|R-- .... ....|--- .... ....|R-- .... ....
....|..|--- .... ....|--- .... ....|--- .... ....
....|..|G#3 2F27 ....|R-- .... ....|G#3 2F47 ....
....|..|--- .... ....|--- .... ....|--- .... ....
....|..|--- .... ....|--- .... ....|--- .... ....
....|..|--- .... ....|--- .... ....|--- .... ....

[Pattern34]
 A#3|..|C-4 2F1F ....|A#3 2F.F ....|A#3 2C.F ....
....|..|--- .... ....|--- .... ....|--- .... ....
....|..|--- .... ....|--- .... ....|--- .... ....
....|..|--- .... ....|--- .... ....|--- .... ....
 C-4|..|R-- .... ....|C-4 2F.F ....|C-4 2C.F ....
....|..|--- .... ....|--- .... ....|--- .... ....
 D#4|..|C-4 2F1F ....|D#4 2F.F ....|D#4 2C.F ....
....|..|--- .... ....|--- .... ....|--- .... ....
....|..|R-- .... ....|G-4 2F.7 ....|G-4 2F.7 ....
....|..|--- .... ....|--- .... ....|--- .... ....
....|..|R-- .... ....|--- .... ....|--- .... ....
....|..|--- .... ....|--- .... ....|--- .... ....
 D#4|..|F-4 2F1F ....|D#4 2F.F ....|D#4 2C.F ....
....|..|--- .... ....|--- .... ....|--- .... ....
....|..|--- .... ....|R-- .... ....|R-- .... ....
....|..|--- .... ....|--- .... ....|--- .... ....
....|..|R-- .... ....|D#4 2F.7 ....|D#4 2F.7 ....
....|..|--- .... ....|--- .... ....|--- .... ....
 D#4|..|F-4 2F1F ....|D#4 2F.F ....|D#4 2C.F ....
....|..|--- .... ....|--- .... ....|--- .... ....
....|..|R-- .... ....|R-- .... ....|R-- .... ....
....|..|--- .... ....|--- .... ....|--- .... ....
....|..|R-- .... ....|--- .... ....|--- .... ....
....|..|--- .... ....|--- .... ....|--- .... ....
 D#4|..|D#4 2F2F ....|D#4 2F.F ....|D#4 2C.F ....
....|..|--- .... ....|--- .... ....|--- .... ....
....|..|--- .... ....|R-- .... ....|R-- .... ....
....|..|--- .... ....|--- .... ....|--- .... ....
....|..|R-- .... ....|C-4 2F.7 ....|C-4 2F.7 ....
....|..|--- .... ....|--- .... ....|--- .... ....
 D#4|..|D#4 2F2F ....|D#4 2F.F ....|D#4 2C.F ....
....|..|--- .... ....|--- .... ....|--- .... ....
....|..|C-4 AF.F ....|R-- .... ....|R-- .... ....
....|..|--- .... ....|--- .... ....|--- .... ....
....|..|R-- .... ....|--- .... ....|--- .... ....
....|..|--- .... ....|--- .... ....|--- .... ....
 D#4|..|G#4 2F2F ....|D#4 2F.F ....|D#4 2C.F ....
....|..|--- .... ....|--- .... ....|--- .... ....
....|..|--- .... ....|R-- .... ....|R-- .... ....
....|..|--- .... ....|--- .... ....|--- .... ....
....|..|C-4 AF.F ....|--- .... ....|--- .... ....
....|..|--- .... ....|--- .... ....|--- .... ....
 D#4|..|F-4 2F17 ....|D#4 2F.F ....|D#4 2C.F ....
....|..|--- .... ....|--- .... ....|--- .... ....
....|..|R-- .... ....|R-- .... ....|R-- .... ....
....|..|--- .... ....|--- .... ....|--- .... ....
....|..|R-- .... ....|--- .... ....|--- .... ....
....|..|--- .... ....|--- .... ....|--- .... ....
 G-4|..|C-4 AF.F ....|G-4 2F.F ....|G-4 2C.F ....
....|..|--- .... ....|--- .... ....|--- .... ....
....|..|--- .... ....|R-- .... ....|R-- .... ....
....|..|--- .... ....|--- .... ....|--- .... ....
....|..|R-- .... ....|--- .... ....|--- .... ....
....|..|--- .... ....|--- .... ....|--- .... ....
....|..|D#4 2F27 ....|D#4 2F.7 ....|D#4 2F.7 ....
....|..|--- .... ....|--- .... ....|--- .... ....
 D#4|..|C-4 AF.F ....|D#4 2F.F ....|D#4 2C.F ....
....|..|--- .... ....|--- .... ....|--- .... ....
....|..|R-- .... ....|--- .... ....|--- .... ....
....|..|--- .... ....|--- .... ....|--- .... ....
....|..|G#4 2F27 ....|D#4 2F.7 ....|D#4 2F.7 ....
....|..|--- .... ....|--- .... ....|--- .... ....
....|..|--- .... ....|R-- .... ....|R-- .... ....
....|..|--- .... ....|--- .... ....|--- .... ....

[Pattern35]
 A#3|..|C-4 AF.F ....|A#3 2F.F ....|A#3 2C.F ....
....|..|C-4 2F1F ....|--- .... ....|--- .... ....
....|..|--- .... ....|D#4 2F.7 ....|D#4 2F.7 ....
....|..|--- .... ....|--- .... ....|--- .... ....
 C-4|..|R-- .... ....|C-4 2F.F ....|C-4 2C.F ....
....|..|--- .... ....|--- .... ....|--- .... ....
 D#4|..|C-4 2F1F ....|D#4 2F.F ....|D#4 2C.F ....
....|..|--- .... ....|--- .... ....|--- .... ....
....|..|C-4 AF.F ....|G-4 2F.7 ....|G-4 2F.7 ....
....|..|--- .... ....|--- .... ....|--- .... ....
....|..|R-- .... ....|--- .... ....|--- .... ....
....|..|--- .... ....|--- .... ....|--- .... ....
 D#4|..|F-4 2F1F ....|D#4 2F.F ....|D#4 2C.F ....
....|..|C-4 2F1A ....|--- .... ....|--- .... ....
....|..|--- .... ....|R-- .... ....|R-- .... ....
....|..|--- .... ....|--- .... ....|--- .... ....
....|..|C-4 AF.F ....|D#4 2F.7 ....|D#4 2F.7 ....
....|..|R-- .... ....|--- .... ....|--- .... ....
 D#4|..|F-4 2F1F ....|D#4 2F.F ....|D#4 2C.F ....
....|..|--- .... ....|--- .... ....|--- .... ....
....|..|R-- .... ....|R-- .... ....|R-- .... ....
....|..|--- .... ....|--- .... ....|--- .... ....
....|..|R-- .... ....|--- .... ....|--- .... ....
....|..|--- .... ....|--- .... ....|--- .... ....
 D#4|..|C-4 AF.F ....|D#4 2F.F ....|D#4 2C.F ....
....|..|D#4 2F2F ....|--- .... ....|--- .... ....
....|..|--- .... ....|R-- .... ....|R-- .... ....
....|..|--- .... ....|--- .... ....|--- .... ....
....|..|R-- .... ....|C-4 2F.7 ....|C-4 2F.7 ....
....|..|R-- .... ....|--- .... ....|--- .... ....
 D#4|..|D#4 2F2F ....|D#4 2F.F ....|D#4 2C.F ....
....|..|--- .... ....|--- .... ....|--- .... ....
....|..|C-4 AF.F ....|R-- .... ....|R-- .... ....
....|..|--- .... ....|--- .... ....|--- .... ....
....|..|R-- .... ....|--- .... ....|--- .... ....
....|..|--- .... ....|--- .... ....|--- .... ....
 D#4|..|G#4 2F2F ....|D#4 2F.F ....|D#4 2C.F ....
....|..|D#4 2F2A ....|--- .... ....|--- .... ....
....|..|--- .... ....|R-- .... ....|R-- .... ....
....|..|--- .... ....|--- .... ....|--- .... ....
....|..|C-4 AF.F ....|--- .... ....|--- .... ....
....|..|R-- .... ....|--- .... ....|--- .... ....
 D#4|..|F-4 2F17 ....|D#4 2F.F ....|D#4 2C.F ....
....|..|--- .... ....|--- .... ....|--- .... ....
....|..|R-- .... ....|R-- .... ....|R-- .... ....
....|..|--- .... ....|--- .... ....|--- .... ....
....|..|R-- .... ....|--- .... ....|--- .... ....
....|..|--- .... ....|--- .... ....|--- .... ....
 G-4|..|C-4 AF.F ....|G-3 2F.F ....|G-3 2C.F ....
....|..|D#4 2F27 ....|--- .... ....|--- .... ....
....|..|--- .... ....|R-- .... ....|R-- .... ....
....|..|--- .... ....|--- .... ....|--- .... ....
....|..|R-- .... ....|--- .... ....|--- .... ....
....|..|--- .... ....|--- .... ....|--- .... ....
....|..|D#4 2F27 ....|D#4 2F.7 ....|D#4 2F.7 ....
....|..|--- .... ....|--- .... ....|--- .... ....
 D#4|..|C-4 AF.F ....|D#3 2F.F ....|D#3 2C.F ....
....|..|--- .... ....|--- .... ....|--- .... ....
....|..|R-- .... ....|--- .... ....|--- .... ....
....|..|--- .... ....|--- .... ....|--- .... ....
....|..|G#4 2F27 ....|D#4 2F.7 ....|D#4 2F.7 ....
....|..|--- .... ....|--- .... ....|--- .... ....
....|..|--- .... ....|R-- .... ....|R-- .... ....
....|..|--- .... ....|--- .... ....|--- .... ....

[Pattern36]
 A#3|..|C-4 AF.F ....|A#2 2F.F ....|A#2 2C.F ....
....|..|C-4 2F1F ....|--- .... ....|--- .... ....
....|..|--- .... ....|D#4 2F.7 ....|D#4 2F.7 ....
....|..|--- .... ....|--- .... ....|--- .... ....
 C-4|..|R-- .... ....|C-3 2F.F ....|C-3 2C.F ....
....|..|--- .... ....|--- .... ....|--- .... ....
 D#4|..|C-4 2F1F ....|D#3 2F.F ....|D#3 2C.F ....
....|..|--- .... ....|--- .... ....|--- .... ....
....|..|C-4 AF.F ....|G-3 2F.7 ....|G-3 2F.7 ....
....|..|--- .... ....|--- .... ....|--- .... ....
....|..|R-- .... ....|--- .... ....|--- .... ....
....|..|--- .... ....|--- .... ....|--- .... ....
 D#4|..|F-4 2F1F ....|D#3 2F.F ....|D#3 2C.F ....
....|..|C-4 2F1A ....|--- .... ....|--- .... ....
....|..|--- .... ....|R-- .... ....|R-- .... ....
....|..|--- .... ....|--- .... ....|--- .... ....
....|..|C-4 AF.F ....|D#3 2F.7 ....|D#3 2F.7 ....
....|..|R-- .... ....|--- .... ....|--- .... ....
 D#4|..|F-4 2F1F ....|D#3 2F.F ....|D#3 2C.F ....
....|..|--- .... ....|--- .... ....|--- .... ....
....|..|R-- .... ....|R-- .... ....|R-- .... ....
....|..|--- .... ....|--- .... ....|--- .... ....
....|..|R-- .... ....|--- .... ....|--- .... ....
....|..|--- .... ....|--- .... ....|--- .... ....
 D#4|..|C-4 AF.F ....|D#3 2F.F ....|D#3 2C.F ....
....|..|D#4 2F2F ....|--- .... ....|--- .... ....
....|..|--- .... ....|R-- .... ....|R-- .... ....
....|..|--- .... ....|--- .... ....|--- .... ....
....|..|R-- .... ....|C-3 2F.7 ....|C-3 2F.7 ....
....|..|R-- .... ....|--- .... ....|--- .... ....
 D#4|..|D#4 2F2F ....|D#3 2F.F ....|D#3 2C.F ....
....|..|--- .... ....|--- .... ....|--- .... ....
....|..|C-4 AF.F ....|R-- .... ....|R-- .... ....
....|..|--- .... ....|--- .... ....|--- .... ....
....|..|R-- .... ....|--- .... ....|--- .... ....
....|..|--- .... ....|--- .... ....|--- .... ....
 D#4|..|G#4 2F2F ....|D#3 2F.F ....|D#3 2C.F ....
....|..|D#4 2F2A ....|--- .... ....|--- .... ....
....|..|--- .... ....|R-- .... ....|R-- .... ....
....|..|--- .... ....|--- .... ....|--- .... ....
....|..|C-4 AF.F ....|--- .... ....|--- .... ....
....|..|R-- .... ....|--- .... ....|--- .... ....
 D#4|..|F-4 2F17 ....|D#3 2F.F ....|D#3 2C.F ....
....|..|--- .... ....|--- .... ....|--- .... ....
....|..|R-- .... ....|R-- .... ....|R-- .... ....
....|..|--- .... ....|--- .... ....|--- .... ....
....|..|R-- .... ....|--- .... ....|--- .... ....
....|..|--- .... ....|--- .... ....|--- .... ....
 G-4|..|C-4 AF.F ....|G-4 2F.F ....|G-4 2C.F ....
....|..|D#4 2F27 ....|--- .... ....|--- .... ....
....|..|--- .... ....|R-- .... ....|R-- .... ....
....|..|--- .... ....|--- .... ....|--- .... ....
....|..|R-- .... ....|--- .... ....|--- .... ....
....|..|--- .... ....|--- .... ....|--- .... ....
....|..|D#4 2F27 ....|D#3 2F.7 ....|D#3 2F.7 ....
....|..|--- .... ....|--- .... ....|--- .... ....
 D#4|..|C-4 AF.F ....|D#4 2F.F ....|D#4 2C.F ....
....|..|--- .... ....|--- .... ....|--- .... ....
....|..|R-- .... ....|--- .... ....|--- .... ....
....|..|--- .... ....|--- .... ....|--- .... ....
....|..|G#4 2F27 ....|D#3 2F.7 ....|D#3 2F.7 ....
....|..|--- .... ....|--- .... ....|--- .... ....
....|..|--- .... ....|R-- .... ....|R-- .... ....
....|..|--- .... ....|--- .... ....|--- .... ....

[Pattern37]
 A#3|..|C-4 AF.F ....|A#3 2F.F ....|A#3 2C.F ....
....|..|C-4 2F1F ....|--- .... ....|--- .... ....
....|..|--- .... ....|D#3 2F.7 ....|D#3 2F.7 ....
....|..|--- .... ....|--- .... ....|--- .... ....
 C-4|..|R-- .... ....|C-4 2F.F ....|C-4 2C.F ....
....|..|--- .... ....|--- .... ....|--- .... ....
 D#4|..|C-4 2F1F ....|D#4 2F.F ....|D#4 2C.F ....
....|..|--- .... ....|--- .... ....|--- .... ....
....|..|C-4 AF.F ....|G-4 2F.7 ....|G-4 2F.7 ....
....|..|--- .... ....|--- .... ....|--- .... ....
....|..|R-- .... ....|--- .... ....|--- .... ....
....|..|--- .... ....|--- .... ....|--- .... ....
 E-4|..|F-4 2F1F ....|E-4 2F.F ....|E-4 2C.F ....
....|..|C-4 2F1A ....|--- .... ....|--- .... ....
....|..|--- .... ....|R-- .... ....|R-- .... ....
....|..|--- .... ....|--- .... ....|--- .... ....
....|..|C-4 AF.F ....|D#4 2F.7 ....|D#4 2F.7 ....
....|..|R-- .... ....|--- .... ....|--- .... ....
 F#3|..|F-4 2F1F ....|F#4 2F.F ....|F#4 2C.F ....
....|..|--- .... ....|--- .... ....|--- .... ....
....|..|R-- .... ....|R-- .... ....|R-- .... ....
....|..|--- .... ....|--- .... ....|--- .... ....
....|..|R-- .... ....|--- .... ....|--- .... ....
....|..|--- .... ....|--- .... ....|--- .... ....
 A-3|..|C-4 AF.F ....|A-4 2F.F ....|A-4 2C.F ....
....|..|D#4 2F2F ....|--- .... ....|--- .... ....
....|..|--- .... ....|R-- .... ....|R-- .... ....
....|..|--- .... ....|--- .... ....|--- .... ....
....|..|R-- .... ....|C-4 2F.7 ....|C-4 2F.7 ....
....|..|R-- .... ....|--- .... ....|--- .... ....
 B-4|..|D#4 2F2F ....|B-4 2F.F ....|B-4 2C.F ....
....|..|--- .... ....|--- .... ....|--- .... ....
....|..|C-4 AF.F ....|R-- .... ....|R-- .... ....
....|..|--- .... ....|--- .... ....|--- .... ....
....|..|R-- .... ....|--- .... ....|--- .... ....
....|..|--- .... ....|--- .... ....|--- .... ....
 C-4|..|G#4 2F2F ....|C-5 2F.F ....|C-5 2C.F ....
....|..|D#4 2F2A ....|--- .... ....|--- .... ....
....|..|--- .... ....|R-- .... ....|R-- .... ....
....|..|--- .... ....|--- .... ....|--- .... ....
....|..|C-4 AF.F ....|--- .... ....|--- .... ....
....|..|R-- .... ....|--- .... ....|--- .... ....
 C#4|..|F-4 2F17 ....|C#5 2F.F ....|C#5 2C.F ....
....|..|--- .... ....|--- .... ....|--- .... ....
....|..|R-- .... ....|R-- .... ....|R-- .... ....
....|..|--- .... ....|--- .... ....|--- .... ....
....|..|R-- .... ....|--- .... ....|--- .... ....
....|..|--- .... ....|--- .... ....|--- .... ....
 D-4|..|C-4 AF.F ....|D-5 2F.F ....|D-5 2C.F ....
 D#4|..|D#4 2F27 ....|D#5 2F.F ....|D#5 2C.F ....
 E-4|..|--- .... ....|E-5 2F.F ....|E-5 2C.F ....
 E-4|..|--- .... ....|E-5 2F.F ....|E-5 2C.F ....
 F-4|..|R-- .... ....|F-5 2F.F ....|F-5 2C.F ....
 F#3|..|--- .... ....|F#5 2F.F ....|F#5 2C.F ....
 G-4|..|D#4 2F27 ....|G-5 2F.F ....|G-5 2C.F ....
 G#4|..|--- .... ....|G#5 2F.F ....|G#5 2C.F ....
 A-3|..|C-4 AF.F ....|A-5 2F.F ....|A-5 2C.F ....
 A#3|..|--- .... ....|A#5 2F.F ....|A#5 2C.F ....
 B-4|..|R-- .... ....|B-5 2F.F ....|B-5 2C.F ....
 B-4|..|--- .... ....|B-5 2F.F ....|B-5 2C.F ....
 C-4|..|G#4 2F27 ....|C-6 2F.F ....|C-6 2C.F ....
 C#4|..|--- .... ....|C#6 2F.F ....|C#6 2C.F ....
 D-4|..|--- .... ....|D-6 2F.F ....|D-6 2C.F ....
 D#4|..|--- .... ....|D#6 2F.F ....|D#6 2C.F ....

[Pattern38]
....|..|C-4 AF.F ....|R-- .... ....|R-- .... ....
....|..|C-4 2F3F ....|F#5 2F.A ....|F#5 2F.A ....
....|..|--- .... ....|C#5 2F.7 ....|C#5 2F.7 ....
....|..|--- .... ....|G#5 2F.A ....|G#5 2F.A ....
....|..|R-- .... ....|R-- .... ....|R-- .... ....
....|..|--- .... ....|A#5 2F.A ....|A#5 2F.A ....
....|..|C-4 2F3F ....|B-5 2F.A ....|B-5 2F.A ....
....|..|--- .... ....|B-5 2F.A ....|B-5 2F.A ....
....|..|C-4 AF.F ....|D-5 2F.7 ....|D-5 2F.7 ....
....|..|--- .... ....|D#5 2F.7 ....|D#5 2F.7 ....
....|..|R-- .... ....|E-5 2F.7 ....|E-5 2F.7 ....
....|..|--- .... ....|E-5 2F.7 ....|E-5 2F.7 ....
....|..|F-3 2F3F ....|F-5 2F.7 ....|F-5 2F.7 ....
....|..|C-4 2F3A ....|F#5 2F.7 ....|F#5 2F.7 ....
....|..|--- .... ....|G-5 2F.7 ....|G-5 2F.7 ....
....|..|--- .... ....|G#5 2F.7 ....|G#5 2F.7 ....
....|..|C-4 AF.F ....|A-5 2F.7 ....|A-5 2F.7 ....
....|..|R-- .... ....|A#5 2F.7 ....|A#5 2F.7 ....
....|..|F-3 2F3F ....|B-5 2F.7 ....|B-5 2F.7 ....
....|..|--- .... ....|B-5 2F.7 ....|B-5 2F.7 ....
....|..|R-- .... ....|C-6 2F.7 ....|C-6 2F.7 ....
....|..|--- .... ....|C#6 2F.7 ....|C#6 2F.7 ....
....|..|R-- .... ....|D-6 2F.7 ....|D-6 2F.7 ....
....|..|--- .... ....|D#6 2F.7 ....|D#6 2F.7 ....
....|..|C-4 AF.F ....|R-- .... ....|R-- .... ....
....|..|D#3 2F4F ....|--- .... ....|--- .... ....
....|..|--- .... ....|--- .... ....|--- .... ....
....|..|--- .... ....|--- .... ....|--- .... ....
....|..|R-- .... ....|--- .... ....|--- .... ....
....|..|R-- .... ....|--- .... ....|--- .... ....
....|..|D#3 2F4F ....|--- .... ....|--- .... ....
....|..|--- .... ....|--- .... ....|--- .... ....
....|..|C-4 AF.F ....|--- .... ....|--- .... ....
....|..|--- .... ....|--- .... ....|--- .... ....
....|..|R-- .... ....|--- .... ....|--- .... ....
....|..|--- .... ....|--- .... ....|--- .... ....
....|..|G#3 2F4F ....|--- .... ....|--- .... ....
....|..|D#3 2F4A ....|--- .... ....|--- .... ....
....|..|--- .... ....|--- .... ....|--- .... ....
....|..|--- .... ....|--- .... ....|--- .... ....
....|..|C-4 AF.F ....|--- .... ....|--- .... ....
....|..|R-- .... ....|--- .... ....|--- .... ....
....|..|F-3 2F37 ....|--- .... ....|--- .... ....
....|..|--- .... ....|--- .... ....|--- .... ....
....|..|R-- .... ....|--- .... ....|--- .... ....
....|..|--- .... ....|--- .... ....|--- .... ....
....|..|R-- .... ....|--- .... ....|--- .... ....
....|..|--- .... ....|--- .... ....|--- .... ....
....|..|C-4 AF.F ....|--- .... ....|--- .... ....
....|..|D#3 2F47 ....|--- .... ....|--- .... ....
....|..|--- .... ....|--- .... ....|--- .... ....
....|..|--- .... ....|--- .... ....|--- .... ....
....|..|R-- .... ....|--- .... ....|--- .... ....
....|..|--- .... ....|--- .... ....|--- .... ....
....|..|D#3 2F47 ....|--- .... ....|--- .... ....
....|..|--- .... ....|--- .... ....|--- .... ....
....|..|C-4 AF.F ....|--- .... ....|--- .... ....
....|..|--- .... ....|--- .... ....|--- .... ....
....|..|R-- .... ....|--- .... ....|--- .... ....
....|..|--- .... ....|--- .... ....|--- .... ....
....|..|G#3 2F47 ....|--- .... ....|--- .... ....
....|..|--- .... ....|--- .... ....|--- .... ....
....|..|--- .... ....|--- .... ....|--- .... ....
....|..|--- .... ....|--- .... ....|--- .... ....

[Pattern39]
....|..|C-4 AF.F ....|--- .... ....|--- .... ....
....|..|C-4 2F3F ....|--- .... ....|--- .... ....
....|..|--- .... ....|--- .... ....|--- .... ....
....|..|--- .... ....|--- .... ....|--- .... ....
....|..|R-- .... ....|--- .... ....|--- .... ....
....|..|--- .... ....|--- .... ....|--- .... ....
....|..|C-4 2F3F ....|--- .... ....|--- .... ....
....|..|--- .... ....|--- .... ....|--- .... ....
....|..|C-4 AF.F ....|--- .... ....|--- .... ....
....|..|--- .... ....|--- .... ....|--- .... ....
....|..|R-- .... ....|--- .... ....|--- .... ....
....|..|--- .... ....|--- .... ....|--- .... ....
....|..|F-3 2F3F ....|--- .... ....|--- .... ....
....|..|C-4 2F3A ....|--- .... ....|--- .... ....
....|..|--- .... ....|--- .... ....|--- .... ....
....|..|--- .... ....|--- .... ....|--- .... ....
....|..|C-4 AF.F ....|--- .... ....|--- .... ....
....|..|R-- .... ....|--- .... ....|--- .... ....
....|..|F-3 2F3F ....|--- .... ....|--- .... ....
....|..|--- .... ....|--- .... ....|--- .... ....
....|..|R-- .... ....|--- .... ....|--- .... ....
....|..|--- .... ....|--- .... ....|--- .... ....
....|..|R-- .... ....|--- .... ....|--- .... ....
....|..|--- .... ....|--- .... ....|--- .... ....
....|..|C-4 AF.F ....|--- .... ....|--- .... ....
....|..|D#3 2F4F ....|--- .... ....|--- .... ....
....|..|--- .... ....|--- .... ....|--- .... ....
....|..|--- .... ....|--- .... ....|--- .... ....
....|..|R-- .... ....|--- .... ....|--- .... ....
....|..|R-- .... ....|--- .... ....|--- .... ....
....|..|D#3 2F4F ....|--- .... ....|--- .... ....
....|..|--- .... ....|--- .... ....|--- .... ....
....|..|C-4 AF.F ....|--- .... ....|--- .... ....
....|..|--- .... ....|--- .... ....|--- .... ....
....|..|R-- .... ....|--- .... ....|--- .... ....
....|..|--- .... ....|--- .... ....|--- .... ....
....|..|G#3 2F4F ....|--- .... ....|--- .... ....
....|..|D#3 2F4A ....|--- .... ....|--- .... ....
....|..|--- .... ....|--- .... ....|--- .... ....
....|..|--- .... ....|--- .... ....|--- .... ....
....|..|C-4 AF.F ....|--- .... ....|--- .... ....
....|..|R-- .... ....|--- .... ....|--- .... ....
....|..|F-3 2F37 ....|--- .... ....|--- .... ....
....|..|--- .... ....|--- .... ....|--- .... ....
....|..|R-- .... ....|--- .... ....|--- .... ....
....|..|--- .... ....|--- .... ....|--- .... ....
....|..|R-- .... ....|--- .... ....|--- .... ....
....|..|--- .... ....|--- .... ....|--- .... ....
....|..|C-4 AF.F ....|--- .... ....|--- .... ....
....|..|D#3 2F47 ....|--- .... ....|--- .... ....
....|..|--- .... ....|--- .... ....|--- .... ....
....|..|--- .... ....|--- .... ....|--- .... ....
....|..|R-- .... ....|--- .... ....|--- .... ....
....|..|--- .... ....|--- .... ....|--- .... ....
....|..|D#3 2F47 ....|--- .... ....|--- .... ....
....|..|--- .... ....|--- .... ....|--- .... ....
....|..|C-4 AF.F ....|--- .... ....|--- .... ....
....|..|--- .... ....|--- .... ....|--- .... ....
....|..|R-- .... ....|--- .... ....|--- .... ....
....|..|--- .... ....|--- .... ....|--- .... ....
....|..|G#3 2F47 ....|--- .... ....|--- .... ....
....|..|--- .... ....|--- .... ....|--- .... ....
....|..|--- .... ....|--- .... ....|--- .... ....
....|..|--- .... ....|--- .... ....|--- .... ....

[Pattern41]
....|..|C-4 AF.F ....|--- .... ....|--- .... ....
....|..|C-4 2F3F ....|--- .... ....|--- .... ....
....|..|--- .... ....|--- .... ....|--- .... ....
....|..|--- .... ....|--- .... ....|--- .... ....
....|..|R-- .... ....|--- .... ....|--- .... ....
....|..|--- .... ....|--- .... ....|--- .... ....
....|..|C-4 2F3F ....|--- .... ....|--- .... ....
....|..|--- .... ....|--- .... ....|--- .... ....
....|..|C-4 AF.F ....|--- .... ....|--- .... ....
....|..|--- .... ....|--- .... ....|--- .... ....
....|..|R-- .... ....|--- .... ....|--- .... ....
....|..|--- .... ....|--- .... ....|--- .... ....
....|..|F-3 2F3F ....|--- .... ....|--- .... ....
....|..|C-4 2F3A ....|--- .... ....|--- .... ....
....|..|--- .... ....|--- .... ....|--- .... ....
....|..|--- .... ....|--- .... ....|--- .... ....
....|..|C-4 AF.F ....|--- .... ....|--- .... ....
....|..|R-- .... ....|--- .... ....|--- .... ....
....|..|F-3 2F3F ....|--- .... ....|--- .... ....
....|..|--- .... ....|--- .... ....|--- .... ....
....|..|R-- .... ....|--- .... ....|--- .... ....
....|..|--- .... ....|--- .... ....|--- .... ....
....|..|R-- .... ....|--- .... ....|--- .... ....
....|..|--- .... ....|--- .... ....|--- .... ....
....|..|C-4 AF.F ....|--- .... ....|--- .... ....
....|..|D#3 2F4F ....|--- .... ....|--- .... ....
....|..|--- .... ....|--- .... ....|--- .... ....
....|..|--- .... ....|--- .... ....|--- .... ....
....|..|R-- .... ....|--- .... ....|--- .... ....
....|..|R-- .... ....|--- .... ....|--- .... ....
....|..|D#3 2F4F ....|--- .... ....|--- .... ....
....|..|--- .... ....|--- .... ....|--- .... ....
....|..|C-4 AF.F ....|--- .... ....|--- .... ....
....|..|--- .... ....|--- .... ....|--- .... ....
....|..|R-- .... ....|--- .... ....|--- .... ....
....|..|--- .... ....|--- .... ....|--- .... ....
....|..|G#3 2F4F ....|--- .... ....|--- .... ....
....|..|D#3 2F4A ....|--- .... ....|--- .... ....
....|..|--- .... ....|--- .... ....|--- .... ....
....|..|--- .... ....|--- .... ....|--- .... ....
....|..|C-4 AF.F ....|--- .... ....|--- .... ....
....|..|R-- .... ....|--- .... ....|--- .... ....
....|..|F-3 2F37 ....|--- .... ....|--- .... ....
....|..|--- .... ....|--- .... ....|--- .... ....
 G-4|..|R-- .... ....|D#4 2F.F ....|G-4 2C.F ....
....|..|--- .... ....|--- .... ....|--- .... ....
....|..|R-- .... ....|--- .... ....|--- .... ....
....|..|--- .... ....|--- .... ....|--- .... ....
 G#4|..|C-4 AF.F ....|F-4 2F.F ....|G#4 2C.F ....
....|..|D#3 2F47 ....|--- .... ....|--- .... ....
....|..|--- .... ....|--- .... ....|--- .... ....
....|..|--- .... ....|--- .... ....|--- .... ....
 A#3|..|R-- .... ....|G-4 2F.F ....|A#4 2C.F ....
....|..|--- .... ....|--- .... ....|--- .... ....
....|..|D#3 2F47 ....|--- .... ....|--- .... ....
....|..|--- .... ....|--- .... ....|--- .... ....
 G#4|..|C-4 AF.F ....|F-4 2F.F ....|G#4 2C.F ....
....|..|--- .... ....|--- .... ....|--- .... ....
....|..|R-- .... ....|--- .... ....|--- .... ....
....|..|--- .... ....|--- .... ....|--- .... ....
 G-4|..|G#3 2F47 ....|D#4 2F.F ....|G-4 2C.F ....
....|..|--- .... ....|--- .... ....|--- .... ....
....|..|--- .... ....|--- .... ....|--- .... ....
....|..|--- .... ....|--- .... ....|--- .... ....

[Pattern45]
 G-4|..|C-4 AF.F ....|D#4 2F.F ....|G-4 2C.F ....
....|..|C-4 2F1F ....|--- .... ....|--- .... ....
....|..|--- .... ....|--- .... ....|--- .... ....
....|..|--- .... ....|--- .... ....|--- .... ....
....|..|R-- .... ....|D#4 2F.7 ....|G-4 2F.7 ....
....|..|--- .... ....|--- .... ....|--- .... ....
....|..|C-4 2F1F ....|--- .... ....|C-4 2F3F ....
....|..|--- .... ....|--- .... ....|--- .... ....
 D#4|..|C-4 CF.F ....|A#4 2F.F ....|D#5 2C.F ....
....|..|--- .... ....|--- .... ....|--- .... ....
....|..|R-- .... ....|--- .... ....|R-- .... ....
....|..|--- .... ....|--- .... ....|--- .... ....
 D#4|..|F-3 2F1F ....|A#4 2F.F ....|D#5 2C.F ....
....|..|C-4 2F1A ....|--- .... ....|--- .... ....
....|..|--- .... ....|--- .... ....|--- .... ....
....|..|--- .... ....|--- .... ....|--- .... ....
....|..|C-4 AF.F ....|F-4 2F.7 ....|G#4 2F.7 ....
....|..|R-- .... ....|--- .... ....|--- .... ....
....|..|F-3 2F1F ....|--- .... ....|F-3 2F3F ....
....|..|--- .... ....|--- .... ....|--- .... ....
 A#3|..|R-- .... ....|F-4 2F.F ....|A#4 2C.F ....
....|..|--- .... ....|--- .... ....|--- .... ....
....|..|R-- .... ....|--- .... ....|R-- .... ....
....|..|--- .... ....|--- .... ....|--- .... ....
 A#3|..|C-4 CF.F ....|F-4 2F.F ....|A#4 2C.F ....
....|..|D#3 2F2F ....|--- .... ....|--- .... ....
....|..|--- .... ....|--- .... ....|--- .... ....
....|..|--- .... ....|--- .... ....|--- .... ....
 A#3|..|R-- .... ....|F-4 2F.F ....|A#4 2C.F ....
....|..|R-- .... ....|--- .... ....|--- .... ....
....|..|D#3 2F2F ....|--- .... ....|D#3 2F4F ....
....|..|--- .... ....|--- .... ....|--- .... ....
 C-4|..|C-4 AF.F ....|D#4 2F.F ....|C-5 2C.F ....
....|..|--- .... ....|--- .... ....|--- .... ....
....|..|R-- .... ....|--- .... ....|R-- .... ....
....|..|--- .... ....|--- .... ....|--- .... ....
....|..|G#3 2F2F ....|A#4 2F.7 ....|G#3 2F4F ....
....|..|D#3 2F2A ....|--- .... ....|--- .... ....
....|..|--- .... ....|--- .... ....|--- .... ....
....|..|--- .... ....|--- .... ....|--- .... ....
....|..|C-4 CF.F ....|F-4 2F.A ....|R-- .... ....
....|..|R-- .... ....|--- .... ....|--- .... ....
....|..|F-3 2F17 ....|--- .... ....|F-3 2F37 ....
....|..|--- .... ....|--- .... ....|--- .... ....
 G-4|..|R-- .... ....|D#4 2F.F ....|G-4 2C.F ....
....|..|--- .... ....|--- .... ....|--- .... ....
....|..|R-- .... ....|--- .... ....|R-- .... ....
....|..|--- .... ....|--- .... ....|--- .... ....
 G#4|..|C-4 AF.F ....|F-4 2F.F ....|G#4 2C.F ....
....|..|D#3 2F27 ....|--- .... ....|--- .... ....
....|..|--- .... ....|--- .... ....|--- .... ....
....|..|--- .... ....|--- .... ....|--- .... ....
 A#3|..|R-- .... ....|G-4 2F.F ....|A#4 2C.F ....
....|..|--- .... ....|--- .... ....|--- .... ....
....|..|D#3 2F27 ....|--- .... ....|D#3 2F47 ....
....|..|--- .... ....|--- .... ....|--- .... ....
 G#4|..|C-4 CF.F ....|F-4 2F.F ....|G#4 2C.F ....
....|..|--- .... ....|--- .... ....|--- .... ....
....|..|R-- .... ....|--- .... ....|R-- .... ....
....|..|--- .... ....|--- .... ....|--- .... ....
 G-4|..|G#3 2F27 ....|D#4 2F.F ....|G-4 2C.F ....
....|..|--- .... ....|--- .... ....|--- .... ....
....|..|--- .... ....|--- .... ....|--- .... ....
....|..|--- .... ....|--- .... ....|--- .... ....

[Pattern49]
 G-4|..|C-4 AF.F ....|D#4 2F.F ....|G-4 2C.F ....
....|..|C-4 2F1F ....|--- .... ....|--- .... ....
....|..|--- .... ....|--- .... ....|--- .... ....
....|..|--- .... ....|--- .... ....|--- .... ....
....|..|R-- .... ....|D#4 2F.7 ....|G-4 2F.7 ....
....|..|--- .... ....|--- .... ....|--- .... ....
....|..|C-4 2F1F ....|--- .... ....|C-4 2F3F ....
....|..|--- .... ....|--- .... ....|--- .... ....
 D#4|..|C-4 CF.F ....|A#4 2F.F ....|D#5 2C.F ....
....|..|--- .... ....|--- .... ....|--- .... ....
....|..|R-- .... ....|--- .... ....|R-- .... ....
....|..|--- .... ....|--- .... ....|--- .... ....
 D#4|..|F-3 2F1F ....|A#4 2F.F ....|D#5 2C.F ....
....|..|C-4 2F1A ....|--- .... ....|--- .... ....
....|..|--- .... ....|--- .... ....|--- .... ....
....|..|--- .... ....|--- .... ....|--- .... ....
....|..|C-4 AF.F ....|F-4 2F.7 ....|G#4 2F.7 ....
....|..|R-- .... ....|--- .... ....|--- .... ....
....|..|F-3 2F1F ....|--- .... ....|F-3 2F3F ....
....|..|--- .... ....|--- .... ....|--- .... ....
 A#3|..|R-- .... ....|F-4 2F.F ....|A#4 2C.F ....
....|..|--- .... ....|--- .... ....|--- .... ....
....|..|R-- .... ....|--- .... ....|R-- .... ....
....|..|--- .... ....|--- .... ....|--- .... ....
 A#3|..|C-4 CF.F ....|F-4 2F.F ....|A#4 2C.F ....
....|..|D#3 2F2F ....|--- .... ....|--- .... ....
....|..|--- .... ....|--- .... ....|--- .... ....
....|..|--- .... ....|--- .... ....|--- .... ....
 A#3|..|R-- .... ....|F-4 2F.F ....|A#4 2C.F ....
....|..|R-- .... ....|--- .... ....|--- .... ....
....|..|D#3 2F2F ....|--- .... ....|D#3 2F4F ....
....|..|--- .... ....|--- .... ....|--- .... ....
 C-4|..|C-4 AF.F ....|D#4 2F.F ....|C-5 2C.F ....
....|..|--- .... ....|--- .... ....|--- .... ....
....|..|R-- .... ....|--- .... ....|R-- .... ....
....|..|--- .... ....|--- .... ....|--- .... ....
....|..|G#3 2F2F ....|A#4 2F.7 ....|G#3 2F4F ....
....|..|D#3 2F2A ....|--- .... ....|--- .... ....
....|..|--- .... ....|--- .... ....|--- .... ....
....|..|--- .... ....|--- .... ....|--- .... ....
....|..|C-4 CF.F ....|F-4 2F.A ....|R-- .... ....
....|..|R-- .... ....|--- .... ....|--- .... ....
....|..|F-3 2F17 ....|--- .... ....|F-3 2F37 ....
....|..|--- .... ....|--- .... ....|--- .... ....
....|..|R-- .... ....|F-4 2F.7 ....|A#4 2F.7 ....
....|..|--- .... ....|--- .... ....|--- .... ....
....|..|R-- .... ....|--- .... ....|R-- .... ....
....|..|--- .... ....|--- .... ....|--- .... ....
....|..|C-4 AF.F ....|F-4 2F.7 ....|A#4 2F.7 ....
....|..|D#3 2F27 ....|--- .... ....|--- .... ....
....|..|--- .... ....|--- .... ....|--- .... ....
....|..|--- .... ....|--- .... ....|--- .... ....
....|..|R-- .... ....|F-4 2F.7 ....|A#4 2F.7 ....
....|..|--- .... ....|--- .... ....|--- .... ....
....|..|D#3 2F27 ....|--- .... ....|D#3 2F47 ....
....|..|--- .... ....|--- .... ....|--- .... ....
....|..|C-4 CF.F ....|D#4 2F.7 ....|C-5 2F.7 ....
....|..|--- .... ....|--- .... ....|--- .... ....
....|..|R-- .... ....|--- .... ....|R-- .... ....
....|..|--- .... ....|--- .... ....|--- .... ....
....|..|G#3 2F27 ....|R-- .... ....|G#3 2F47 ....
....|..|--- .... ....|--- .... ....|--- .... ....
....|..|--- .... ....|--- .... ....|--- .... ....
....|..|--- .... ....|--- .... ....|--- .... ....

[Pattern50]
....|..|C-4 2F1F ....|--- .... ....|--- .... ....
....|..|--- .... ....|--- .... ....|--- .... ....
....|..|--- .... ....|--- .... ....|--- .... ....
....|..|--- .... ....|--- .... ....|--- .... ....
....|..|R-- .... ....|--- .... ....|--- .... ....
....|..|--- .... ....|--- .... ....|--- .... ....
....|..|C-4 2F1F ....|--- .... ....|--- .... ....
....|..|--- .... ....|--- .... ....|--- .... ....
....|..|C-4 AF.7 ....|--- .... ....|R-- .... ....
....|..|--- .... ....|--- .... ....|--- .... ....
....|..|R-- .... ....|--- .... ....|--- .... ....
....|..|--- .... ....|--- .... ....|--- .... ....
....|..|F-3 2F1F ....|--- .... ....|--- .... ....
....|..|--- .... ....|--- .... ....|--- .... ....
....|..|--- .... ....|--- .... ....|--- .... ....
....|..|--- .... ....|--- .... ....|--- .... ....
....|..|C-4 CF.7 ....|--- .... ....|--- .... ....
....|..|--- .... ....|--- .... ....|--- .... ....
....|..|F-3 2F1F ....|--- .... ....|--- .... ....
....|..|--- .... ....|--- .... ....|--- .... ....
....|..|R-- .... ....|--- .... ....|R-- .... ....
....|..|--- .... ....|--- .... ....|--- .... ....
....|..|R-- .... ....|--- .... ....|--- .... ....
....|..|--- .... ....|--- .... ....|--- .... ....
....|..|D#3 2F2F ....|--- .... ....|--- .... ....
....|..|--- .... ....|--- .... ....|--- .... ....
....|..|--- .... ....|--- .... ....|--- .... ....
....|..|--- .... ....|--- .... ....|--- .... ....
....|..|R-- .... ....|--- .... ....|--- .... ....
....|..|--- .... ....|--- .... ....|--- .... ....
....|..|D#3 2F2F ....|--- .... ....|--- .... ....
....|..|--- .... ....|--- .... ....|--- .... ....
....|..|--- .... ....|--- .... ....|--- .... ....
....|..|--- .... ....|--- .... ....|--- .... ....
....|..|R-- .... ....|--- .... ....|--- .... ....
....|..|--- .... ....|--- .... ....|--- .... ....
....|..|G#3 2F2F ....|--- .... ....|--- .... ....
....|..|--- .... ....|--- .... ....|--- .... ....
....|..|--- .... ....|--- .... ....|--- .... ....
....|..|--- .... ....|--- .... ....|--- .... ....
....|..|R-- .... ....|--- .... ....|--- .... ....
....|..|--- .... ....|--- .... ....|--- .... ....
....|..|F-3 2F17 ....|--- .... ....|--- .... ....
....|..|--- .... ....|--- .... ....|--- .... ....
....|..|--- .... ....|--- .... ....|--- .... ....
....|..|--- .... ....|--- .... ....|--- .... ....
....|..|R-- .... ....|--- .... ....|--- .... ....
....|..|--- .... ....|--- .... ....|--- .... ....
....|..|D#3 2F27 ....|--- .... ....|--- .... ....
....|..|--- .... ....|--- .... ....|--- .... ....
....|..|--- .... ....|--- .... ....|--- .... ....
....|..|--- .... ....|--- .... ....|--- .... ....
....|..|R-- .... ....|--- .... ....|--- .... ....
....|..|--- .... ....|--- .... ....|--- .... ....
....|..|D#3 2F27 ....|--- .... ....|--- .... ....
....|..|--- .... ....|--- .... ....|--- .... ....
....|..|--- .... ....|--- .... ....|--- .... ....
....|..|--- .... ....|--- .... ....|--- .... ....
....|..|R-- .... ....|--- .... ....|--- .... ....
....|..|--- .... ....|--- .... ....|--- .... ....
....|..|G#3 2F27 ....|--- .... ....|--- .... ....
....|..|--- .... ....|--- .... ....|--- .... ....
....|..|--- .... ....|--- .... ....|--- .... ....
....|..|--- .... ....|--- .... ....|--- .... ....

[Pattern51]
....|..|--- .... ....|--- .... ....|--- .... ....
....|..|--- .... ....|--- .... ....|--- .... ....
....|..|--- .... ....|--- .... ....|--- .... ....
....|..|--- .... ....|--- .... ....|--- .... ....
....|..|--- .... ....|--- .... ....|--- .... ....
....|..|--- .... ....|--- .... ....|--- .... ....
....|..|--- .... ....|--- .... ....|--- .... ....
....|..|--- .... ....|--- .... ....|--- .... ....
....|..|R-- .... ....|--- .... ....|--- .... ....
....|..|--- .... ....|--- .... ....|--- .... ....
....|..|--- .... ....|--- .... ....|--- .... ....
....|..|--- .... ....|--- .... ....|--- .... ....
....|..|--- .... ....|--- .... ....|--- .... ....
....|..|--- .... ....|--- .... ....|--- .... ....
....|..|--- .... ....|--- .... ....|--- .... ....
....|..|--- .... ....|--- .... ....|--- .... ....
....|..|--- .... ....|--- .... ....|--- .... ....
....|..|--- .... ....|--- .... ....|--- .... ....
....|..|--- .... ....|--- .... ....|--- .... ....
....|..|--- .... ....|--- .... ....|--- .... ....
