[Module]
VortexTrackerII=0
Version=3.5
Title=1ps,2m,3p,
Author=oisee ^ 4d 29.05.2010
NoteTable=4
ChipFreq=1750000
Speed=4
PlayOrder=L0,1,2,3,4,5,6,7,8,9,10,11,12,13,14,15,16,17,18,19,20,21,22,23,24,25,26,27,28,29,30,31,32,33,34,35,36,37,38,39,40,41


[Ornament1]
L0,0,3,3,7,7

[Ornament2]
L0,0,4,4

[Ornament3]
L0,0,2,2

[Ornament4]
L0,0,3,3

[Ornament5]
L0,0,4,4,8,8

[Ornament6]
L0,0,4,4,7,7

[Ornament7]
L0,0,3,3,6,6

[Ornament8]
L0,0,1,1

[Ornament9]
L0,0,2,2,3,3

[Ornament10]
L0,0,4,4,6,6

[Ornament11]
L0,0,1,1,5,5

[Ornament12]
L0,0,3,3,5,5


[Sample1]
TnE +000_ +00_ F_
TnE +000_ +00_ F_
TnE +000_ +00_ F_
TnE +000_ +00_ D_
TnE +000_ +00_ B_
TnE +000_ +00_ B_ L

[Sample2]
TnE +000_ +00_ F_ L

[Sample3]
TnE +001_ +00_ F_
TnE +002_ +00_ F_
TnE +001_ +00_ E_
TnE +002_ +00_ E_
TnE +000_ +00_ E_ L
TnE -001_ +00_ E_
TnE -002_ +00_ E_
TnE -001_ +00_ E_
TnE +000_ +00_ E_
TnE +001_ +00_ E_
TnE +002_ +00_ E_
TnE +001_ +00_ E_

[Sample4]
TnE +002_ +00_ D_
TnE +002_ +00_ D_
TnE +002_ +00_ C_
TnE +002_ +00_ B_
TnE +002_ +00_ A_ L
TnE +002_ +00_ A_
TnE +002_ +00_ A_
TnE +002_ +00_ A_
TnE +002_ +00_ A_
TnE +002_ +00_ A_
TnE +002_ +00_ A_
TnE +002_ +00_ A_

[Sample5]
TnE +000_ +00_ F_
TnE +000_ +00_ F_
tne +000_ +00_ 0_ L

[Sample6]
TnE -001_ +00_ F_ L

[Sample7]
TnE +006_ +00_ F_ L

[Sample8]
tNe +000_ +00_ F_
tNe +000_ +00_ B_
tNe +000_ +00_ 7_
tNe +000_ +00_ 6- L

[Sample9]
TnE +080_ +00_ F_
TnE +100_ +00_ E_
TnE +180_ +00_ E_
TnE +200_ +00_ E_
TnE +240_ +00_ D_
TnE +280_ +00_ D_
TnE +2C0_ +00_ D_
TnE +300_ +00_ C_
TnE +300_ +00_ C_
TnE +340_ +00_ C_
TnE +340_ +00_ C_
TnE +380_ +00_ B_
TnE +380_ +00_ B_
TnE +400_ +00_ B_
TnE +400_ +00_ B_
TnE +480_ +00_ A_
TnE +500_ +00_ 9_
TnE +580_ +00_ 7_
TnE +600_ +00_ 4_
TnE +680_ +00_ 1_
TnE +000_ +00_ 0_ L

[Sample10]
Tne +1C0_ +00_ F_
Tne +280_ +00_ E_
Tne +380_ +00_ C_
Tne +440_ +00_ A_
Tne +480_ +00_ 8_
TnE +000_ +00_ 0_ L

[Sample11]
TNe +200_ -0A_ F_
tNe +000_ +0F_ A_
TNe +200_ -07_ E_
tNe +000_ +0E_ B- L

[Sample12]
TNE +0A0_ +05_ F_
TNE +140_ +02_ D_
TNE +140_ +02_ B_
TNE +100_ +00_ A_ L
TNE +140_ +00_ A_
TNE +200_ +00_ A-

[Sample13]
Tne +200_ +00_ F_
Tne +2C0_ +00_ F_
Tne +380_ +00_ E_
Tne +500_ +00_ C_
Tne +520_ +00_ 9_
tne +000_ +00_ 0_ L

[Sample14]
TNE -100_ +00_ F_
TNE -100_ +00_ D_
TNE -100_ +00_ A_
TNE -100_ +00_ 5_
tne +000_ +00_ 0_ L

[Sample15]
TNE -100_ +00_ 5_
TNE -100_ +00_ 8_
TNE -100_ +00_ B_
TNE -100_ +00_ F_
TNe -100_ +00_ 9- L

[Sample16]
TnE +000_ +00_ C_
TnE +000_ +00_ E_
TnE +000_ +00_ F_
TnE +000_ +00_ F_
TnE +000_ +00_ E_
TnE +000_ +00_ D_
TnE +000_ +00_ C_
TnE +000_ +00_ C_ L
TnE +001_ +00_ C_
TnE +002_ +00_ C_
TnE +003_ +00_ C_
TnE +001_ +00_ C_
TnE +000_ +00_ C_
TnE -001_ +00_ C_
TnE -002_ +00_ C_
TnE -003_ +00_ C_
TnE -001_ +00_ C_
TnE +000_ +00_ C_
TnE +000_ +00_ C_

[Sample17]
Tne +1C0_ +00_ F_
Tne +280_ +00_ D_
Tne +380_ +00_ 7_
TNE +000_ +00_ 0_ L

[Sample18]
TnE -00C_ +00_ 0_ L

[Sample19]
TNe +000_ +00_ F_
TNe +000_ +00_ C_
TNe +000_ +00_ 6_
TNe +000_ +01_ A- L

[Sample20]
TNE +140_ +00_ F_
tNE +000_ +00_ B- L

[Sample21]
tNE +000_ +00_ D_
tNE +000_ +00_ 8_
tNE +000_ +00_ 1_
TNE +000_ +00_ 0_ L

[Sample22]
TnE +000_ +00_ D_ L
TnE +000_ +00_ D_
tne +000_ +00_ 9_
tne +000_ +00_ 9_
TnE +000_ +00_ D_
TnE +000_ +00_ D_
tne +000_ +00_ 9_
tne +000_ +00_ 9_
TnE +000_ +00_ D_
TnE +000_ +00_ D_
TnE +000_ +00_ D_
TnE +000_ +00_ D_
TnE +000_ +00_ D_
TnE +000_ +00_ D_
tne +000_ +00_ 9_
tne +000_ +00_ 9_

[Sample23]
TnE +000_ +00_ F_ L
TnE +010_ +01_ F_
TnE +010_ +01_ F_
TnE +010_ +01_ F_
TnE +010_ +01_ F_
TnE +000_ +00_ F_
TnE +000_ +00_ F_
TnE -010_ -01_ F_
TnE -010_ -01_ F_
TnE -010_ -01_ F_
TnE -010_ -01_ F_
TnE +000_ +00_ F_

[Sample24]
TNe +000_ -01_ C_
TNe +000_ -01_ D_
TNe +000_ -01_ E_
TNe +000_ -01_ F_
TNe +000_ -01_ F_
TNe +000_ -01_ F_
TNe +000_ -01_ F_
TNe +000_ -01_ F_
TNe +000_ -01_ E_
TNe +000_ -01_ E_
TNe +000_ -01_ E_
TNe +000_ -01_ F_
TNe +000_ -01_ F_ L

[Sample25]
TNE +000_ +00_ F_
TNE +000_ +00_ F_ L
TNE +000_ +00_ F_
TNE +000_ +00_ F_
TNE +000_ +00_ F-

[Sample26]
tne +000_ +00_ 0_ L

[Sample27]
TnE +100_ +05_ F_
TnE +200_ +02_ A_
TnE +300_ +02_ 7_
TNE +400_ +00_ 3- L

[Sample28]
tne +000_ +00_ 0_ L

[Sample29]
tnE +000_ +00_ 0_ L

[Sample30]
TNE +000_ +00_ C+ L

[Sample31]
TNe +1C0_ +00_ F_
Tne +280_ +00_ E_
Tne +380_ +00_ C_
Tne +440_ +00_ A_
Tne +480_ +00_ 8_
TnE +000_ +00_ 0_ L

[Pattern0]
....|..|--- .... ....|--- .... ....|--- .... ....
....|..|--- .... ....|--- .... ....|--- .... ....
....|..|--- .... ....|--- .... ....|--- .... ....
....|..|--- .... ....|--- .... ....|--- .... ....
....|..|--- .... ....|--- .... ....|--- .... ....
....|..|--- .... ....|--- .... ....|--- .... ....
....|..|--- .... ....|--- .... ....|--- .... ....
....|..|--- .... ....|--- .... ....|--- .... ....
....|..|--- .... ....|--- .... ....|--- .... ....
....|..|--- .... ....|--- .... ....|--- .... ....
....|..|--- .... ....|--- .... ....|--- .... ....
....|..|--- .... ....|--- .... ....|--- .... ....
....|..|--- .... ....|--- .... ....|--- .... ....
....|..|--- .... ....|--- .... ....|--- .... ....
....|..|--- .... ....|--- .... ....|--- .... ....
....|..|--- .... ....|--- .... ....|--- .... ....
....|..|--- .... ....|--- .... ....|--- .... ....
....|..|--- .... ....|--- .... ....|--- .... ....
....|..|--- .... ....|--- .... ....|--- .... ....
....|..|--- .... ....|--- .... ....|--- .... ....
....|..|--- .... ....|--- .... ....|--- .... ....
....|..|--- .... ....|--- .... ....|--- .... ....
....|..|--- .... ....|--- .... ....|--- .... ....
....|..|--- .... ....|--- .... ....|--- .... ....
....|..|--- .... ....|--- .... ....|--- .... ....
....|..|--- .... ....|--- .... ....|--- .... ....
....|..|--- .... ....|--- .... ....|--- .... ....
....|..|--- .... ....|--- .... ....|--- .... ....
....|..|--- .... ....|--- .... ....|--- .... ....
....|..|--- .... ....|--- .... ....|--- .... ....
....|..|--- .... ....|--- .... ....|--- .... ....
....|..|--- .... ....|--- .... ....|--- .... ....
....|..|--- .... ....|--- .... ....|--- .... ....
....|..|--- .... ....|--- .... ....|--- .... ....
....|..|--- .... ....|--- .... ....|--- .... ....
....|..|--- .... ....|--- .... ....|--- .... ....
....|..|--- .... ....|--- .... ....|--- .... ....
....|..|--- .... ....|--- .... ....|--- .... ....
....|..|--- .... ....|--- .... ....|--- .... ....
....|..|--- .... ....|--- .... ....|--- .... ....
....|..|--- .... ....|--- .... ....|--- .... ....
....|..|--- .... ....|--- .... ....|--- .... ....
....|..|--- .... ....|--- .... ....|--- .... ....
....|..|--- .... ....|--- .... ....|--- .... ....
....|..|--- .... ....|--- .... ....|--- .... ....
....|..|--- .... ....|--- .... ....|--- .... ....
....|..|--- .... ....|--- .... ....|--- .... ....
....|..|--- .... ....|--- .... ....|--- .... ....
....|..|--- .... ....|--- .... ....|--- .... ....
....|..|--- .... ....|--- .... ....|--- .... ....
....|..|--- .... ....|--- .... ....|--- .... ....
....|..|--- .... ....|--- .... ....|--- .... ....
....|..|--- .... ....|--- .... ....|--- .... ....
....|..|--- .... ....|--- .... ....|--- .... ....
....|..|--- .... ....|--- .... ....|--- .... ....
....|..|--- .... ....|--- .... ....|--- .... ....
....|..|--- .... ....|--- .... ....|--- .... ....
....|..|--- .... ....|--- .... ....|--- .... ....
....|..|--- .... ....|--- .... ....|--- .... ....
....|..|--- .... ....|--- .... ....|--- .... ....
....|..|--- .... ....|--- .... ....|--- .... ....
....|..|--- .... ....|--- .... ....|--- .... ....
....|..|--- .... ....|--- .... ....|--- .... ....
....|..|--- .... ....|--- .... ....|--- .... ....

[Pattern1]
....|..|--- .... ....|--- .... ....|--- .... ....
....|..|--- .... ....|--- .... ....|--- .... ....
....|..|--- .... ....|--- .... ....|--- .... ....
....|..|--- .... ....|--- .... ....|--- .... ....
....|..|--- .... ....|--- .... ....|--- .... ....
....|..|--- .... ....|--- .... ....|--- .... ....
....|..|--- .... ....|--- .... ....|--- .... ....
....|..|--- .... ....|--- .... ....|--- .... ....
....|..|--- .... ....|--- .... ....|--- .... ....
....|..|--- .... ....|--- .... ....|--- .... ....
....|..|--- .... ....|--- .... ....|--- .... ....
....|..|--- .... ....|--- .... ....|--- .... ....
....|..|--- .... ....|--- .... ....|--- .... ....
....|..|--- .... ....|--- .... ....|--- .... ....
....|..|--- .... ....|--- .... ....|--- .... ....
....|..|--- .... ....|--- .... ....|--- .... ....
....|..|--- .... ....|--- .... ....|--- .... ....
....|..|--- .... ....|--- .... ....|--- .... ....
....|..|--- .... ....|--- .... ....|--- .... ....
....|..|--- .... ....|--- .... ....|--- .... ....
....|..|--- .... ....|--- .... ....|--- .... ....
....|..|--- .... ....|--- .... ....|--- .... ....
....|..|--- .... ....|--- .... ....|--- .... ....
....|..|--- .... ....|--- .... ....|--- .... ....
....|..|--- .... ....|--- .... ....|--- .... ....
....|..|--- .... ....|--- .... ....|--- .... ....
....|..|--- .... ....|--- .... ....|E-4 2F.F ....
....|..|--- .... ....|--- .... ....|--- .... ....
....|..|--- .... ....|--- .... ....|E-4 2F2F ....
....|..|--- .... ....|--- .... ....|--- .... ....
....|..|G#5 2F.F ....|--- .... ....|E-4 2FAF ....
....|..|B-5 2F.F ....|--- .... ....|A#4 2F.F ....
....|..|G#4 2F1F ....|--- .... ....|G#4 2F.F ....
....|..|--- .... ....|--- .... ....|--- .... ....
....|..|--- .... ....|--- .... ....|E-4 2F2F ....
....|..|--- .... ....|--- .... ....|--- .... ....
....|..|G#5 2F.A ....|--- .... ....|E-4 2F2F ....
....|..|B-5 2F.A ....|--- .... ....|D#5 2F.F ....
....|..|G#4 2F1A ....|--- .... ....|B-4 2F2F ....
....|..|--- .... ....|--- .... ....|B-4 2F2F ....
....|..|--- .... ....|--- .... ....|G#4 2F.F ....
....|..|--- .... ....|--- .... ....|--- .... ....
....|..|G#5 2F.7 ....|--- .... ....|E-4 2F2F ....
....|..|B-5 2F.7 ....|--- .... ....|A#4 2F.7 ....
....|..|G#4 2F17 ....|--- .... ....|E-4 2F2F ....
....|..|--- .... ....|--- .... ....|D#5 2F.F ....
....|..|--- .... ....|--- .... ....|B-4 2F2F ....
....|..|--- .... ....|--- .... ....|B-4 2F2F ....
....|..|--- .... ....|--- .... ....|G#4 2F.F ....
....|..|--- .... ....|--- .... ....|D#5 2F.7 ....
....|..|--- .... ....|--- .... ....|G#4 2F.F ....
....|..|--- .... ....|--- .... ....|B-4 2F27 ....
....|..|--- .... ....|--- .... ....|D#4 2FBF ....
....|..|--- .... ....|--- .... ....|E-4 2F.F ....
....|..|--- .... ....|--- .... ....|E-4 2F2F ....
....|..|--- .... ....|--- .... ....|G#4 2F.F ....
....|..|--- .... ....|--- .... ....|G#4 2F3F ....
....|..|--- .... ....|--- .... ....|A#4 2F.F ....
....|..|--- .... ....|--- .... ....|A#4 2F8F ....
....|..|--- .... ....|--- .... ....|B-4 2F27 ....
....|..|--- .... ....|--- .... ....|B-4 2F2F ....
....|..|--- .... ....|--- .... ....|G#4 2F.A ....
....|..|--- .... ....|--- .... ....|B-4 2F2F ....
....|..|--- .... ....|--- .... ....|B-4 2F.F ....

[Pattern2]
....|..|--- .... ....|--- .... ....|G#4 2F.F ....
....|..|--- .... ....|--- .... ....|E-4 2F.7 ....
....|..|--- .... ....|--- .... ....|E-4 2F2F ....
....|..|--- .... ....|--- .... ....|G#4 2F.7 ....
....|..|--- .... ....|--- .... ....|E-4 2FAF ....
....|..|--- .... ....|--- .... ....|A#4 2F.F ....
....|..|--- .... ....|--- .... ....|A#4 2F4F ....
....|..|--- .... ....|--- .... ....|A#4 2F4F ....
....|..|--- .... ....|--- .... ....|D#5 2F.F ....
....|..|--- .... ....|--- .... ....|--- .... ....
....|..|--- .... ....|--- .... ....|C#4 2F3F ....
....|..|--- .... ....|--- .... ....|B-4 2F.7 ....
....|..|--- .... ....|--- .... ....|A#4 2FCF ....
....|..|--- .... ....|--- .... ....|A#4 2F.F ....
....|..|--- .... ....|--- .... ....|A#4 2F4F ....
....|..|--- .... ....|--- .... ....|C#5 2F.F ....
....|..|--- .... ....|--- .... ....|D#5 2F.F ....
....|..|--- .... ....|--- .... ....|A#4 2F.7 ....
....|..|--- .... ....|--- .... ....|C#4 2F3F ....
....|..|--- .... ....|--- .... ....|A#4 2F47 ....
....|..|--- .... ....|--- .... ....|A#4 2FCF ....
....|..|--- .... ....|--- .... ....|A#4 2F.F ....
....|..|--- .... ....|--- .... ....|A#4 2F.F ....
....|..|--- .... ....|--- .... ....|E-4 2F.F ....
....|..|--- .... ....|--- .... ....|D#5 2F.F ....
....|..|--- .... ....|--- .... ....|D#5 2F.F ....
....|..|--- .... ....|--- .... ....|C#4 2F3F ....
....|..|--- .... ....|--- .... ....|C#5 2F.7 ....
....|..|--- .... ....|--- .... ....|A#4 2F4F ....
....|..|--- .... ....|--- .... ....|E-4 2F.A ....
....|..|R-- .... ....|--- .... ....|A#4 2F.F ....
....|..|--- .... ....|--- .... ....|E-4 2F.F ....
....|..|B-4 2F2F ....|G#4 2F.F ....|G#4 2F1F ....
....|..|G#4 2F1F ....|--- .... ....|A#4 2F.7 ....
....|..|--- .... ....|--- .... ....|A#4 2F.7 ....
....|..|--- .... ....|--- .... ....|E-4 2F.7 ....
....|..|R-- .... ....|--- .... ....|G#4 2F1F ....
....|..|--- .... ....|--- .... ....|D#5 2F.7 ....
....|..|B-4 2F2A ....|G#4 2F.A ....|G#4 2F1F ....
....|..|G#4 2F1A ....|--- .... ....|--- .... ....
....|..|--- .... ....|--- .... ....|B-4 2F2F ....
....|..|--- .... ....|R-- .... ....|--- .... ....
....|..|R-- .... ....|--- .... ....|G#4 2F1F ....
....|..|--- .... ....|--- .... ....|E-4 2F.7 ....
....|..|B-4 2F27 ....|G#5 2F.F ....|G#4 2F1F ....
....|..|G#4 2F17 ....|--- .... ....|--- .... ....
....|..|--- .... ....|R-- .... ....|G#4 2F1F ....
....|..|--- .... ....|R-- .... ....|--- .... ....
....|..|--- .... ....|G-5 2F.F ....|B-4 2F2F ....
....|..|--- .... ....|--- .... ....|--- .... ....
....|..|--- .... ....|G#5 2F.A ....|G#4 2F1F ....
....|..|--- .... ....|--- .... ....|--- .... ....
....|..|--- .... ....|R-- .... ....|G#4 2F1F ....
....|..|--- .... ....|R-- .... ....|--- .... ....
....|..|--- .... ....|D#5 2F.F ....|G#4 2F1F ....
....|..|--- .... ....|--- .... ....|--- .... ....
....|..|--- .... ....|G#5 2F.7 ....|G#4 2F1F ....
....|..|--- .... ....|--- .... ....|--- .... ....
....|..|--- .... ....|R-- .... ....|G#4 2F1F ....
....|..|--- .... ....|R-- .... ....|--- .... ....
....|..|--- .... ....|B-4 2F.F ....|G#4 2F1F ....
....|..|R-- .... ....|R-- .... ....|--- .... ....
....|..|--- .... ....|--- .... ....|G#4 2F1F ....
....|..|--- .... ....|--- .... ....|--- .... ....

[Pattern3]
....|..|A#4 2F.F ....|E-5 2F.F ....|A#4 2FAF ....
....|..|D-4 2F3F ....|R-- .... ....|--- .... ....
....|..|--- .... ....|D#5 2F.7 ....|G#4 2F17 ....
....|..|R-- .... ....|R-- .... ....|--- .... ....
....|..|--- .... ....|--- .... ....|A#4 2FAF ....
....|..|--- .... ....|--- .... ....|--- .... ....
....|..|A#4 2F.A ....|E-5 2F.A ....|A#4 2FAF ....
....|..|D-4 2F3A ....|--- .... ....|--- .... ....
....|..|--- .... ....|B-4 2F.7 ....|D-4 2F3F ....
....|..|R-- .... ....|R-- .... ....|--- .... ....
....|..|--- .... ....|--- .... ....|A#4 2FAF ....
....|..|--- .... ....|--- .... ....|--- .... ....
....|..|A#4 2F.7 ....|E-5 2F.7 ....|A#4 2FAF ....
....|..|D-4 2F37 ....|--- .... ....|--- .... ....
....|..|--- .... ....|--- .... ....|A#4 2FAF ....
....|..|--- .... ....|R-- .... ....|--- .... ....
....|..|--- .... ....|A#4 2F.F ....|D-4 2F3F ....
....|..|--- .... ....|--- .... ....|--- .... ....
....|..|--- .... ....|--- .... ....|A#4 2FAF ....
....|..|--- .... ....|--- .... ....|--- .... ....
....|..|--- .... ....|--- .... ....|A#4 2FAF ....
....|..|--- .... ....|R-- .... ....|--- .... ....
....|..|--- .... ....|A#4 2F.A ....|A#4 2FAF ....
....|..|--- .... ....|--- .... ....|--- .... ....
....|..|--- .... ....|--- .... ....|A#4 2FAF ....
....|..|--- .... ....|--- .... ....|--- .... ....
....|..|--- .... ....|--- .... ....|A#4 2FAF ....
....|..|--- .... ....|G#4 2F.F ....|--- .... ....
....|..|--- .... ....|G-4 2F.F ....|A#4 2FAF ....
....|..|R-- .... ....|C#4 2F.F ....|--- .... ....
....|..|--- .... ....|R-- .... ....|A#4 2FAF ....
....|..|--- .... ....|--- .... ....|--- .... ....
....|..|G-4 2F4F ....|A#4 2F.F ....|G-4 2F1F ....
....|..|G-4 2F4F ....|G#4 2F.A ....|--- .... ....
....|..|--- .... ....|G-4 2F.A ....|A#4 2FA7 ....
....|..|R-- .... ....|C#4 2F.A ....|--- .... ....
....|..|--- .... ....|R-- .... ....|G-4 2F1F ....
....|..|--- .... ....|--- .... ....|--- .... ....
....|..|G-4 2F4A ....|A#4 2F.A ....|G-4 2F1F ....
....|..|G-4 2F4A ....|G#4 2F.7 ....|--- .... ....
....|..|--- .... ....|G-4 2F.7 ....|A#4 2F2F ....
....|..|R-- .... ....|C#4 2F.7 ....|--- .... ....
....|..|--- .... ....|R-- .... ....|G-4 2F1F ....
....|..|--- .... ....|--- .... ....|--- .... ....
....|..|G-4 2F47 ....|B-4 2F.F ....|G-4 2F1F ....
....|..|G-4 2F47 ....|--- .... ....|--- .... ....
....|..|G-4 2F.F ....|R-- .... ....|G-4 2F1F ....
....|..|R-- .... ....|--- .... ....|--- .... ....
....|..|D#4 2F2F ....|D#5 2F.F ....|G-4 2F2F ....
....|..|D#4 2F5F ....|--- .... ....|--- .... ....
....|..|--- .... ....|B-4 2F.A ....|D#4 2F5F ....
....|..|--- .... ....|--- .... ....|--- .... ....
....|..|G-4 2F.A ....|A#4 2F.F ....|D#4 2F5F ....
....|..|R-- .... ....|R-- .... ....|--- .... ....
....|..|D#4 2F2A ....|D#5 2F.A ....|D#4 2F5F ....
....|..|D#4 2F5A ....|--- .... ....|--- .... ....
....|..|--- .... ....|G-4 2F.F ....|D#4 2F5F ....
....|..|--- .... ....|--- .... ....|--- .... ....
....|..|G-4 2F.7 ....|A#4 2F.A ....|D#4 2F5F ....
....|..|R-- .... ....|R-- .... ....|--- .... ....
....|..|D#4 2F27 ....|A#4 2F.F ....|D#4 2F5F ....
....|..|D#4 2F57 ....|--- .... ....|--- .... ....
....|..|G-4 2F2F ....|G-4 2F.A ....|D#4 2F5F ....
....|..|R-- .... ....|--- .... ....|--- .... ....

[Pattern4]
....|..|G#4 2F4F ....|A#4 2F.7 ....|E-4 2F6F ....
....|..|E-4 2F6F ....|R-- .... ....|--- .... ....
....|..|--- .... ....|G#4 2F.F ....|D#4 2F57 ....
....|..|--- .... ....|--- .... ....|--- .... ....
....|..|G-4 2F2A ....|G-4 2F.7 ....|E-4 2F6F ....
....|..|R-- .... ....|--- .... ....|--- .... ....
....|..|G#4 2F4A ....|--- .... ....|E-4 2F6F ....
....|..|E-4 2F6A ....|R-- .... ....|--- .... ....
....|..|--- .... ....|A#4 2F.7 ....|G#4 2F4F ....
....|..|--- .... ....|--- .... ....|--- .... ....
....|..|G-4 2F27 ....|--- .... ....|E-4 2F6F ....
....|..|R-- .... ....|--- .... ....|--- .... ....
....|..|G#4 2F47 ....|--- .... ....|E-4 2F6F ....
....|..|E-4 2F67 ....|R-- .... ....|--- .... ....
....|..|--- .... ....|G#4 2F.7 ....|E-4 2F6F ....
....|..|--- .... ....|--- .... ....|--- .... ....
....|..|--- .... ....|--- .... ....|G#4 2F4F ....
....|..|--- .... ....|--- .... ....|--- .... ....
....|..|--- .... ....|--- .... ....|E-4 2F6F ....
....|..|--- .... ....|--- .... ....|--- .... ....
....|..|--- .... ....|--- .... ....|E-4 2F6F ....
....|..|--- .... ....|--- .... ....|--- .... ....
....|..|--- .... ....|--- .... ....|E-4 2F6F ....
....|..|--- .... ....|--- .... ....|--- .... ....
....|..|--- .... ....|--- .... ....|E-4 2F6F ....
....|..|--- .... ....|--- .... ....|--- .... ....
....|..|--- .... ....|--- .... ....|E-4 2F6F ....
....|..|--- .... ....|--- .... ....|--- .... ....
....|..|--- .... ....|--- .... ....|E-4 2F6F ....
....|..|R-- .... ....|R-- .... ....|--- .... ....
....|..|--- .... ....|--- .... ....|E-4 2F6F ....
....|..|--- .... ....|--- .... ....|--- .... ....
....|..|E-4 2F2F ....|G#4 2F.F ....|E-4 2F2F ....
....|..|C#4 2F1F ....|--- .... ....|--- .... ....
....|..|--- .... ....|--- .... ....|E-4 2F67 ....
....|..|R-- .... ....|R-- .... ....|--- .... ....
....|..|--- .... ....|--- .... ....|E-4 2F2F ....
....|..|--- .... ....|--- .... ....|--- .... ....
....|..|E-4 2F2A ....|G#4 2F.A ....|E-4 2F2F ....
....|..|C#4 2F1A ....|--- .... ....|--- .... ....
....|..|--- .... ....|--- .... ....|C#5 2F.F ....
....|..|R-- .... ....|R-- .... ....|--- .... ....
....|..|--- .... ....|R-- .... ....|E-4 2F2F ....
....|..|--- .... ....|--- .... ....|--- .... ....
....|..|E-4 2F27 ....|G#4 2F.F ....|E-4 2F2F ....
....|..|C#4 2F17 ....|R-- .... ....|--- .... ....
....|..|--- .... ....|--- .... ....|E-4 2F2F ....
....|..|--- .... ....|--- .... ....|--- .... ....
....|..|--- .... ....|E-5 2F.F ....|C#5 2F.F ....
....|..|--- .... ....|--- .... ....|--- .... ....
....|..|--- .... ....|G#4 2F.A ....|E-4 2F2F ....
....|..|--- .... ....|R-- .... ....|--- .... ....
....|..|--- .... ....|D#5 2F.F ....|E-4 2F2F ....
....|..|--- .... ....|--- .... ....|--- .... ....
....|..|--- .... ....|E-5 2F.A ....|E-4 2F2F ....
....|..|--- .... ....|R-- .... ....|--- .... ....
....|..|--- .... ....|B-4 2F.F ....|E-4 2F2F ....
....|..|--- .... ....|R-- .... ....|--- .... ....
....|..|--- .... ....|A#4 2F.F ....|E-4 2F2F ....
....|..|--- .... ....|--- .... ....|--- .... ....
....|..|--- .... ....|E-5 2F.7 ....|E-4 2F2F ....
....|..|R-- .... ....|R-- .... ....|--- .... ....
....|..|--- .... ....|G#4 2F.F ....|E-4 2F2F ....
....|..|--- .... ....|R-- .... ....|--- .... ....

[Pattern5]
....|..|A#4 2F.F ....|A#4 2F.F ....|A#4 2F4F ....
....|..|C#4 2F4F ....|--- .... ....|--- .... ....
....|..|--- .... ....|--- .... ....|E-4 2F27 ....
....|..|R-- .... ....|R-- .... ....|--- .... ....
....|..|--- .... ....|B-4 2F.7 ....|A#4 2F4F ....
....|..|--- .... ....|R-- .... ....|--- .... ....
....|..|A#4 2F.A ....|A#4 2F.7 ....|A#4 2F4F ....
....|..|C#4 2F4A ....|--- .... ....|--- .... ....
....|..|--- .... ....|--- .... ....|A#4 2F4F ....
....|..|R-- .... ....|R-- .... ....|--- .... ....
....|..|--- .... ....|G#4 2F.7 ....|A#4 2F4F ....
....|..|--- .... ....|R-- .... ....|--- .... ....
....|..|A#4 2F.7 ....|A#4 2F.7 ....|A#4 2F4F ....
....|..|C#4 2F47 ....|--- .... ....|--- .... ....
....|..|--- .... ....|--- .... ....|A#4 2F4F ....
....|..|--- .... ....|--- .... ....|--- .... ....
....|..|--- .... ....|--- .... ....|A#4 2F4F ....
....|..|--- .... ....|--- .... ....|--- .... ....
....|..|--- .... ....|R-- .... ....|A#4 2F4F ....
....|..|--- .... ....|--- .... ....|--- .... ....
....|..|--- .... ....|--- .... ....|A#4 2F4F ....
....|..|--- .... ....|--- .... ....|--- .... ....
....|..|--- .... ....|--- .... ....|A#4 2F4F ....
....|..|--- .... ....|--- .... ....|--- .... ....
....|..|--- .... ....|A#4 2F.F ....|A#4 2F4F ....
....|..|--- .... ....|R-- .... ....|--- .... ....
....|..|--- .... ....|B-4 2F.F ....|A#4 2F4F ....
....|..|--- .... ....|--- .... ....|--- .... ....
....|..|--- .... ....|--- .... ....|A#4 2F4F ....
....|..|R-- .... ....|--- .... ....|--- .... ....
....|..|--- .... ....|A#4 2F.A ....|A#4 2F4F ....
....|..|--- .... ....|R-- .... ....|--- .... ....
....|..|G-4 2F4F ....|D#5 2F.F ....|A#4 2F7F ....
....|..|D#4 2F6F ....|--- .... ....|--- .... ....
....|..|--- .... ....|--- .... ....|A#4 2F47 ....
....|..|R-- .... ....|--- .... ....|--- .... ....
....|..|--- .... ....|A#4 2F.7 ....|A#4 2F7F ....
....|..|--- .... ....|R-- .... ....|--- .... ....
....|..|G-4 2F4A ....|B-4 2F.7 ....|A#4 2F7F ....
....|..|D#4 2F6A ....|--- .... ....|--- .... ....
....|..|--- .... ....|--- .... ....|C#4 2F4F ....
....|..|R-- .... ....|D-5 2F.F ....|--- .... ....
....|..|--- .... ....|B-4 2F.F ....|A#4 2F7F ....
....|..|--- .... ....|G#4 2F.F ....|--- .... ....
....|..|G-4 2F47 ....|E-4 2F.F ....|A#4 2F7F ....
....|..|D#4 2F67 ....|R-- .... ....|--- .... ....
....|..|--- .... ....|--- .... ....|A#4 2F7F ....
....|..|--- .... ....|D-5 2F.A ....|--- .... ....
....|..|--- .... ....|B-4 2F.A ....|C#4 2F4F ....
....|..|--- .... ....|G#4 2F.A ....|--- .... ....
....|..|--- .... ....|E-4 2F.A ....|A#4 2F7F ....
....|..|--- .... ....|R-- .... ....|--- .... ....
....|..|--- .... ....|E-5 2F.F ....|A#4 2F7F ....
....|..|--- .... ....|D-5 2F.7 ....|--- .... ....
....|..|--- .... ....|B-4 2F.7 ....|A#4 2F7F ....
....|..|--- .... ....|G#4 2F.7 ....|--- .... ....
....|..|--- .... ....|G#5 2F.F ....|A#4 2F7F ....
....|..|--- .... ....|R-- .... ....|--- .... ....
....|..|--- .... ....|E-5 2F.A ....|A#4 2F7F ....
....|..|--- .... ....|R-- .... ....|--- .... ....
....|..|--- .... ....|E-5 2F.F ....|A#4 2F7F ....
....|..|R-- .... ....|--- .... ....|--- .... ....
....|..|--- .... ....|G#5 2F.A ....|A#4 2F7F ....
....|..|--- .... ....|--- .... ....|--- .... ....

[Pattern6]
....|..|A#4 2F.F ....|E-5 2F.7 ....|G-4 2F4F ....
....|..|--- .... ....|R-- .... ....|--- .... ....
....|..|--- .... ....|D#5 2F.F ....|A#4 2F77 ....
....|..|R-- .... ....|--- .... ....|--- .... ....
....|..|A#4 2F4F ....|G#5 2F.7 ....|G-4 2F4F ....
....|..|--- .... ....|--- .... ....|--- .... ....
....|..|A#4 2F.A ....|--- .... ....|G-4 2F4F ....
....|..|--- .... ....|R-- .... ....|--- .... ....
....|..|A#4 2F7F ....|E-5 2F.7 ....|D#5 2F.F ....
....|..|R-- .... ....|--- .... ....|--- .... ....
....|..|A#4 2F4A ....|--- .... ....|G-4 2F4F ....
....|..|--- .... ....|--- .... ....|--- .... ....
....|..|C#4 2F1F ....|--- .... ....|G-4 2F4F ....
....|..|--- .... ....|R-- .... ....|--- .... ....
....|..|A#4 2F7A ....|D#5 2F.7 ....|G-4 2F4F ....
....|..|--- .... ....|--- .... ....|--- .... ....
....|..|C#4 2F4F ....|--- .... ....|D#5 2F.F ....
....|..|--- .... ....|--- .... ....|--- .... ....
....|..|C#4 2F1A ....|--- .... ....|G-4 2F4F ....
....|..|--- .... ....|--- .... ....|--- .... ....
....|..|C#4 2F1F ....|--- .... ....|G-4 2F4F ....
....|..|--- .... ....|--- .... ....|--- .... ....
....|..|C#4 2F4A ....|--- .... ....|G-4 2F4F ....
....|..|--- .... ....|--- .... ....|--- .... ....
....|..|C#4 2F4F ....|--- .... ....|G-4 2F4F ....
....|..|--- .... ....|R-- .... ....|--- .... ....
....|..|C#4 2F1A ....|--- .... ....|G-4 2F4F ....
....|..|--- .... ....|--- .... ....|--- .... ....
....|..|A#4 2F4F ....|--- .... ....|G-4 2F4F ....
....|..|--- .... ....|--- .... ....|--- .... ....
....|..|G#5 2F.F ....|--- .... ....|G-4 2F4F ....
....|..|G#5 2F.F ....|R-- .... ....|--- .... ....
....|..|G#4 2F1F ....|G#4 2F.F ....|G#4 2F1F ....
....|..|--- .... ....|--- .... ....|--- .... ....
....|..|A#4 2F4A ....|--- .... ....|G-4 2F47 ....
....|..|--- .... ....|--- .... ....|--- .... ....
....|..|C#4 2F47 ....|--- .... ....|G#4 2F1F ....
....|..|G#5 2F.A ....|R-- .... ....|--- .... ....
....|..|G#4 2F1A ....|G#4 2F.A ....|G#4 2F1F ....
....|..|--- .... ....|--- .... ....|--- .... ....
....|..|A#4 2F47 ....|--- .... ....|B-4 2F2F ....
....|..|--- .... ....|R-- .... ....|--- .... ....
....|..|G#5 2F.7 ....|--- .... ....|G#4 2F1F ....
....|..|G#5 2F.7 ....|--- .... ....|--- .... ....
....|..|G#4 2F17 ....|G#5 2F.F ....|G#4 2F1F ....
....|..|--- .... ....|R-- .... ....|--- .... ....
....|..|--- .... ....|--- .... ....|G#4 2F1F ....
....|..|--- .... ....|R-- .... ....|--- .... ....
....|..|--- .... ....|G-5 2F.F ....|B-4 2F2F ....
....|..|--- .... ....|--- .... ....|--- .... ....
....|..|--- .... ....|G#5 2F.A ....|G#4 2F1F ....
....|..|--- .... ....|R-- .... ....|--- .... ....
....|..|--- .... ....|--- .... ....|G#4 2F1F ....
....|..|--- .... ....|R-- .... ....|--- .... ....
....|..|--- .... ....|G-5 2F.A ....|G#4 2F1F ....
....|..|--- .... ....|--- .... ....|--- .... ....
....|..|--- .... ....|D#5 2F.F ....|G#4 2F1F ....
....|..|--- .... ....|R-- .... ....|--- .... ....
....|..|--- .... ....|B-4 2F.F ....|G#4 2F1F ....
....|..|--- .... ....|R-- .... ....|--- .... ....
....|..|G#4 2F4F ....|G-5 2F.7 ....|G#4 2F1F ....
....|..|R-- .... ....|--- .... ....|--- .... ....
....|..|--- .... ....|D#5 2F.A ....|G#4 2F1F ....
....|..|--- .... ....|R-- .... ....|--- .... ....

[Pattern7]
....|..|A#4 2F.F ....|E-5 2F.F ....|A#4 2FAF ....
....|..|D-4 2F3F ....|R-- .... ....|--- .... ....
....|..|G#4 2F4A ....|--- .... ....|G#4 2F17 ....
....|..|R-- .... ....|--- .... ....|--- .... ....
....|..|--- .... ....|D#5 2F.7 ....|A#4 2FAF ....
....|..|--- .... ....|R-- .... ....|--- .... ....
....|..|A#4 2F.A ....|B-4 2F.7 ....|A#4 2FAF ....
....|..|D-4 2F3A ....|--- .... ....|--- .... ....
....|..|G#4 2F47 ....|--- .... ....|D-4 2F3F ....
....|..|R-- .... ....|--- .... ....|--- .... ....
....|..|--- .... ....|--- .... ....|A#4 2FAF ....
....|..|--- .... ....|R-- .... ....|--- .... ....
....|..|A#4 2F.7 ....|E-5 2F.7 ....|A#4 2FAF ....
....|..|D-4 2F37 ....|--- .... ....|--- .... ....
....|..|--- .... ....|--- .... ....|A#4 2FAF ....
....|..|--- .... ....|R-- .... ....|--- .... ....
....|..|--- .... ....|A#4 2F.F ....|D-4 2F3F ....
....|..|--- .... ....|--- .... ....|--- .... ....
....|..|--- .... ....|--- .... ....|A#4 2FAF ....
....|..|--- .... ....|--- .... ....|--- .... ....
....|..|--- .... ....|--- .... ....|A#4 2FAF ....
....|..|--- .... ....|R-- .... ....|--- .... ....
....|..|--- .... ....|A#4 2F.A ....|A#4 2FAF ....
....|..|--- .... ....|--- .... ....|--- .... ....
....|..|--- .... ....|--- .... ....|A#4 2FAF ....
....|..|--- .... ....|--- .... ....|--- .... ....
....|..|--- .... ....|--- .... ....|A#4 2FAF ....
....|..|--- .... ....|R-- .... ....|--- .... ....
....|..|--- .... ....|A#4 2F.7 ....|A#4 2FAF ....
....|..|R-- .... ....|--- .... ....|--- .... ....
....|..|--- .... ....|--- .... ....|A#4 2FAF ....
....|..|--- .... ....|R-- .... ....|--- .... ....
....|..|G-4 2F4F ....|A#4 2F.F ....|G-4 2F1F ....
....|..|G-4 2F4F ....|--- .... ....|--- .... ....
....|..|--- .... ....|--- .... ....|A#4 2FA7 ....
....|..|R-- .... ....|--- .... ....|--- .... ....
....|..|--- .... ....|--- .... ....|G-4 2F1F ....
....|..|--- .... ....|R-- .... ....|--- .... ....
....|..|G-4 2F4A ....|A#4 2F.A ....|G-4 2F1F ....
....|..|G-4 2F4A ....|--- .... ....|--- .... ....
....|..|--- .... ....|--- .... ....|A#4 2F2F ....
....|..|R-- .... ....|R-- .... ....|--- .... ....
....|..|--- .... ....|--- .... ....|G-4 2F1F ....
....|..|--- .... ....|R-- .... ....|--- .... ....
....|..|G-4 2F47 ....|B-4 2F.F ....|G-4 2F1F ....
....|..|G-4 2F47 ....|--- .... ....|--- .... ....
....|..|G-4 2F.F ....|R-- .... ....|G-4 2F1F ....
....|..|R-- .... ....|R-- .... ....|--- .... ....
....|..|G-4 2F2F ....|D#5 2F.F ....|G-4 2F2F ....
....|..|D#4 2F5F ....|R-- .... ....|--- .... ....
....|..|--- .... ....|A#4 2F.F ....|D#4 2F5F ....
....|..|--- .... ....|--- .... ....|--- .... ....
....|..|G-4 2F.A ....|R-- .... ....|D#4 2F5F ....
....|..|R-- .... ....|R-- .... ....|--- .... ....
....|..|G-4 2F2A ....|D#5 2F.A ....|D#4 2F5F ....
....|..|D#4 2F5A ....|R-- .... ....|--- .... ....
....|..|--- .... ....|G-4 2F.F ....|D#4 2F5F ....
....|..|--- .... ....|--- .... ....|--- .... ....
....|..|G-4 2F.7 ....|R-- .... ....|D#4 2F5F ....
....|..|R-- .... ....|R-- .... ....|--- .... ....
....|..|G-4 2F27 ....|A#4 2F.F ....|D#4 2F5F ....
....|..|D#4 2F57 ....|R-- .... ....|--- .... ....
....|..|D#4 2F2F ....|A#4 2F.7 ....|D#4 2F5F ....
....|..|R-- .... ....|--- .... ....|--- .... ....

[Pattern8]
....|..|G#4 2F4F ....|--- .... ....|E-4 2F6F ....
....|..|E-4 2F6F ....|R-- .... ....|--- .... ....
....|..|--- .... ....|A#4 2F.A ....|D#4 2F57 ....
....|..|--- .... ....|R-- .... ....|--- .... ....
....|..|D#4 2F2A ....|G#4 2F.F ....|E-4 2F6F ....
....|..|R-- .... ....|--- .... ....|--- .... ....
....|..|G#4 2F4A ....|--- .... ....|E-4 2F6F ....
....|..|E-4 2F6A ....|R-- .... ....|--- .... ....
....|..|--- .... ....|A#4 2F.7 ....|G#4 2F4F ....
....|..|--- .... ....|--- .... ....|--- .... ....
....|..|D#4 2F27 ....|G#4 2F.A ....|E-4 2F6F ....
....|..|R-- .... ....|--- .... ....|--- .... ....
....|..|G#4 2F47 ....|--- .... ....|E-4 2F6F ....
....|..|E-4 2F67 ....|R-- .... ....|--- .... ....
....|..|--- .... ....|--- .... ....|E-4 2F6F ....
....|..|--- .... ....|--- .... ....|--- .... ....
....|..|--- .... ....|G#4 2F.7 ....|G#4 2F4F ....
....|..|--- .... ....|--- .... ....|--- .... ....
....|..|--- .... ....|--- .... ....|E-4 2F6F ....
....|..|--- .... ....|--- .... ....|--- .... ....
....|..|--- .... ....|--- .... ....|E-4 2F6F ....
....|..|--- .... ....|--- .... ....|--- .... ....
....|..|--- .... ....|--- .... ....|E-4 2F6F ....
....|..|--- .... ....|--- .... ....|--- .... ....
....|..|--- .... ....|--- .... ....|E-4 2F6F ....
....|..|--- .... ....|--- .... ....|--- .... ....
....|..|--- .... ....|--- .... ....|E-4 2F6F ....
....|..|--- .... ....|--- .... ....|--- .... ....
....|..|--- .... ....|--- .... ....|E-4 2F6F ....
....|..|R-- .... ....|--- .... ....|--- .... ....
....|..|--- .... ....|--- .... ....|E-4 2F6F ....
....|..|--- .... ....|R-- .... ....|--- .... ....
....|..|E-4 2F2F ....|G#4 2F.F ....|E-4 2F2F ....
....|..|C#4 2F1F ....|--- .... ....|--- .... ....
....|..|--- .... ....|--- .... ....|E-4 2F67 ....
....|..|R-- .... ....|--- .... ....|--- .... ....
....|..|--- .... ....|--- .... ....|E-4 2F2F ....
....|..|--- .... ....|R-- .... ....|--- .... ....
....|..|E-4 2F2A ....|G#4 2F.A ....|E-4 2F2F ....
....|..|C#4 2F1A ....|--- .... ....|--- .... ....
....|..|--- .... ....|--- .... ....|C#5 2F.F ....
....|..|R-- .... ....|--- .... ....|--- .... ....
....|..|--- .... ....|R-- .... ....|E-4 2F2F ....
....|..|--- .... ....|R-- .... ....|--- .... ....
....|..|E-4 2F27 ....|G#4 2F.F ....|E-4 2F2F ....
....|..|C#4 2F17 ....|--- .... ....|--- .... ....
....|..|--- .... ....|R-- .... ....|E-4 2F2F ....
....|..|--- .... ....|--- .... ....|--- .... ....
....|..|--- .... ....|E-5 2F.F ....|C#5 2F.F ....
....|..|--- .... ....|--- .... ....|--- .... ....
....|..|--- .... ....|G#4 2F.A ....|E-4 2F2F ....
....|..|--- .... ....|R-- .... ....|--- .... ....
....|..|--- .... ....|D#5 2F.F ....|E-4 2F2F ....
....|..|--- .... ....|--- .... ....|--- .... ....
....|..|--- .... ....|E-5 2F.A ....|E-4 2F2F ....
....|..|--- .... ....|R-- .... ....|--- .... ....
....|..|--- .... ....|B-4 2F.F ....|E-4 2F2F ....
....|..|--- .... ....|R-- .... ....|--- .... ....
....|..|--- .... ....|A#4 2F.F ....|E-4 2F2F ....
....|..|--- .... ....|--- .... ....|--- .... ....
....|..|--- .... ....|E-5 2F.7 ....|E-4 2F2F ....
....|..|R-- .... ....|R-- .... ....|--- .... ....
....|..|--- .... ....|G#4 2F.F ....|E-4 2F2F ....
....|..|--- .... ....|R-- .... ....|--- .... ....

[Pattern9]
....|..|A#4 2F.F ....|A#4 2F.F ....|A#4 2F4F ....
....|..|C#4 2F4F ....|--- .... ....|--- .... ....
....|..|--- .... ....|--- .... ....|E-4 2F27 ....
....|..|R-- .... ....|R-- .... ....|--- .... ....
....|..|--- .... ....|B-4 2F.7 ....|A#4 2F4F ....
....|..|--- .... ....|R-- .... ....|--- .... ....
....|..|A#4 2F.A ....|A#4 2F.7 ....|A#4 2F4F ....
....|..|C#4 2F4A ....|--- .... ....|--- .... ....
....|..|--- .... ....|--- .... ....|A#4 2F4F ....
....|..|R-- .... ....|--- .... ....|--- .... ....
....|..|--- .... ....|G#4 2F.7 ....|A#4 2F4F ....
....|..|--- .... ....|R-- .... ....|--- .... ....
....|..|A#4 2F.7 ....|A#4 2F.7 ....|A#4 2F4F ....
....|..|C#4 2F47 ....|--- .... ....|--- .... ....
....|..|--- .... ....|--- .... ....|A#4 2F4F ....
....|..|--- .... ....|--- .... ....|--- .... ....
....|..|--- .... ....|--- .... ....|A#4 2F4F ....
....|..|--- .... ....|--- .... ....|--- .... ....
....|..|--- .... ....|--- .... ....|A#4 2F4F ....
....|..|--- .... ....|R-- .... ....|--- .... ....
....|..|--- .... ....|--- .... ....|A#4 2F4F ....
....|..|--- .... ....|--- .... ....|--- .... ....
....|..|--- .... ....|--- .... ....|A#4 2F4F ....
....|..|--- .... ....|--- .... ....|--- .... ....
....|..|--- .... ....|A#4 2F.F ....|A#4 2F4F ....
....|..|--- .... ....|R-- .... ....|--- .... ....
....|..|--- .... ....|B-4 2F.F ....|A#4 2F4F ....
....|..|--- .... ....|--- .... ....|--- .... ....
....|..|--- .... ....|--- .... ....|A#4 2F4F ....
....|..|R-- .... ....|--- .... ....|--- .... ....
....|..|--- .... ....|A#4 2F.A ....|A#4 2F4F ....
....|..|--- .... ....|R-- .... ....|--- .... ....
....|..|G-4 2F4F ....|D#5 2F.F ....|G-4 2F4F ....
....|..|D#4 2F6F ....|--- .... ....|--- .... ....
....|..|--- .... ....|--- .... ....|A#4 2F47 ....
....|..|R-- .... ....|--- .... ....|--- .... ....
....|..|--- .... ....|A#4 2F.7 ....|G-4 2F4F ....
....|..|--- .... ....|R-- .... ....|--- .... ....
....|..|G-4 2F4A ....|B-4 2F.7 ....|G-4 2F4F ....
....|..|D#4 2F6A ....|--- .... ....|--- .... ....
....|..|--- .... ....|--- .... ....|D#5 2F.F ....
....|..|R-- .... ....|--- .... ....|--- .... ....
....|..|--- .... ....|--- .... ....|G-4 2F4F ....
....|..|--- .... ....|R-- .... ....|--- .... ....
....|..|G-4 2F47 ....|D#5 2F.7 ....|G-4 2F4F ....
....|..|D#4 2F67 ....|--- .... ....|--- .... ....
....|..|--- .... ....|--- .... ....|G-4 2F4F ....
....|..|--- .... ....|--- .... ....|--- .... ....
....|..|--- .... ....|--- .... ....|D#5 2F.F ....
....|..|--- .... ....|--- .... ....|--- .... ....
....|..|--- .... ....|R-- .... ....|G-4 2F4F ....
....|..|--- .... ....|--- .... ....|--- .... ....
....|..|--- .... ....|E-5 2F.F ....|G-4 2F4F ....
....|..|--- .... ....|R-- .... ....|--- .... ....
....|..|--- .... ....|--- .... ....|G-4 2F4F ....
....|..|--- .... ....|--- .... ....|--- .... ....
....|..|--- .... ....|G#5 2F.F ....|G-4 2F4F ....
....|..|--- .... ....|--- .... ....|--- .... ....
....|..|--- .... ....|E-5 2F.A ....|G-4 2F4F ....
....|..|--- .... ....|R-- .... ....|--- .... ....
....|..|--- .... ....|E-5 2F.F ....|G-4 2F4F ....
....|..|R-- .... ....|--- .... ....|--- .... ....
....|..|--- .... ....|G#5 2F.A ....|G-4 2F4F ....
....|..|--- .... ....|R-- .... ....|--- .... ....

[Pattern10]
....|..|G-4 2F2F ....|D#5 2F.F ....|D#4 2F5F ....
....|..|D#4 2F5F ....|R-- .... ....|--- .... ....
....|..|--- .... ....|E-5 2F.A ....|G-4 2F47 ....
....|..|R-- .... ....|--- .... ....|--- .... ....
....|..|--- .... ....|G#5 2F.7 ....|D#4 2F5F ....
....|..|--- .... ....|R-- .... ....|--- .... ....
....|..|G-4 2F2A ....|D#5 2F.A ....|D#4 2F5F ....
....|..|D#4 2F5A ....|R-- .... ....|--- .... ....
....|..|--- .... ....|E-5 2F.7 ....|G-4 2F2F ....
....|..|R-- .... ....|--- .... ....|--- .... ....
....|..|--- .... ....|--- .... ....|D#4 2F5F ....
....|..|--- .... ....|R-- .... ....|--- .... ....
....|..|G-4 2F27 ....|D#5 2F.7 ....|D#4 2F5F ....
....|..|D#4 2F57 ....|--- .... ....|--- .... ....
....|..|D#4 2F2F ....|--- .... ....|D#4 2F5F ....
....|..|R-- .... ....|R-- .... ....|--- .... ....
....|..|G-4 2F2F ....|E-5 2F.F ....|G-4 2F2F ....
....|..|E-4 2F1F ....|--- .... ....|--- .... ....
....|..|--- .... ....|--- .... ....|E-4 2F1F ....
....|..|--- .... ....|--- .... ....|--- .... ....
....|..|D#4 2F2A ....|--- .... ....|E-4 2F1F ....
....|..|R-- .... ....|R-- .... ....|--- .... ....
....|..|G-4 2F2A ....|E-5 2F.A ....|E-4 2F1F ....
....|..|E-4 2F1A ....|--- .... ....|--- .... ....
....|..|--- .... ....|--- .... ....|E-4 2F1F ....
....|..|--- .... ....|--- .... ....|--- .... ....
....|..|D#4 2F27 ....|--- .... ....|E-4 2F1F ....
....|..|R-- .... ....|R-- .... ....|--- .... ....
....|..|G-4 2F27 ....|E-5 2F.7 ....|E-4 2F1F ....
....|..|E-4 2F17 ....|--- .... ....|--- .... ....
....|..|E-4 2F4F ....|--- .... ....|E-4 2F1F ....
....|..|R-- .... ....|R-- .... ....|--- .... ....
....|..|G#4 2F4F ....|E-5 2F.F ....|B-3 2F.F ....
....|..|E-4 2F6F ....|--- .... ....|E-4 2F2F ....
....|..|--- .... ....|--- .... ....|E-4 2F6F ....
....|..|--- .... ....|--- .... ....|--- .... ....
....|..|E-4 2F4A ....|D#5 2F.F ....|E-4 2F17 ....
....|..|R-- .... ....|B-4 2F.F ....|--- .... ....
....|..|G#4 2F4A ....|G#4 2F.F ....|E-4 2F17 ....
....|..|E-4 2F6A ....|E-4 2F.F ....|E-4 2F2A ....
....|..|--- .... ....|G#5 2F.F ....|E-4 2F17 ....
....|..|--- .... ....|--- .... ....|--- .... ....
....|..|E-4 2F47 ....|D#5 2F.A ....|E-4 2F17 ....
....|..|R-- .... ....|B-4 2F.A ....|--- .... ....
....|..|G#4 2F47 ....|G-5 2F.F ....|B-3 2F.7 ....
....|..|E-4 2F67 ....|E-4 2F.A ....|E-4 2F27 ....
....|..|--- .... ....|G#5 2F.A ....|E-4 2F67 ....
....|..|--- .... ....|R-- .... ....|--- .... ....
....|..|--- .... ....|G#5 2F.F ....|--- .... ....
....|..|--- .... ....|B-4 2F.7 ....|--- .... ....
....|..|--- .... ....|G#4 2F.7 ....|--- .... ....
....|..|--- .... ....|E-4 2F.7 ....|--- .... ....
....|..|--- .... ....|G-5 2F.F ....|--- .... ....
....|..|--- .... ....|R-- .... ....|--- .... ....
....|..|--- .... ....|G#5 2F.A ....|--- .... ....
....|..|--- .... ....|R-- .... ....|--- .... ....
....|..|--- .... ....|D#5 2F.F ....|--- .... ....
....|..|--- .... ....|R-- .... ....|--- .... ....
....|..|--- .... ....|G-5 2F.A ....|--- .... ....
....|..|--- .... ....|R-- .... ....|--- .... ....
....|..|--- .... ....|B-4 2F.F ....|--- .... ....
....|..|R-- .... ....|R-- .... ....|--- .... ....
....|..|--- .... ....|D#5 2F.A ....|E-4 2F.F ....
....|..|--- .... ....|R-- .... ....|R-- .... ....

[Pattern11]
....|..|E-4 2F2F ....|D#5 2F.F ....|C#4 2F4F ....
....|..|E-4 2F2F ....|R-- .... ....|E-4 2F2F ....
....|..|--- .... ....|B-4 2F.A ....|--- .... ....
....|..|R-- .... ....|R-- .... ....|--- .... ....
....|..|--- .... ....|E-5 2F.F ....|E-4 2F.A ....
....|..|--- .... ....|R-- .... ....|R-- .... ....
....|..|E-4 2F2A ....|D#5 2F.A ....|C#4 2F4A ....
....|..|E-4 2F2A ....|R-- .... ....|E-4 2F2A ....
....|..|--- .... ....|B-4 2F.7 ....|--- .... ....
....|..|R-- .... ....|R-- .... ....|--- .... ....
....|..|--- .... ....|E-5 2F.A ....|E-4 2F.7 ....
....|..|--- .... ....|R-- .... ....|R-- .... ....
....|..|E-4 2F27 ....|E-5 2F.F ....|C#4 2F47 ....
....|..|E-4 2F27 ....|--- .... ....|E-4 2F27 ....
....|..|--- .... ....|--- .... ....|--- .... ....
....|..|--- .... ....|R-- .... ....|--- .... ....
....|..|--- .... ....|E-5 2F.7 ....|--- .... ....
....|..|--- .... ....|--- .... ....|--- .... ....
....|..|--- .... ....|E-5 2F.A ....|--- .... ....
....|..|--- .... ....|--- .... ....|--- .... ....
....|..|--- .... ....|--- .... ....|--- .... ....
....|..|--- .... ....|--- .... ....|--- .... ....
....|..|--- .... ....|R-- .... ....|--- .... ....
....|..|--- .... ....|--- .... ....|--- .... ....
....|..|--- .... ....|E-5 2F.7 ....|--- .... ....
....|..|--- .... ....|--- .... ....|--- .... ....
....|..|--- .... ....|--- .... ....|--- .... ....
....|..|--- .... ....|--- .... ....|--- .... ....
....|..|--- .... ....|--- .... ....|--- .... ....
....|..|R-- .... ....|R-- .... ....|--- .... ....
....|..|--- .... ....|--- .... ....|C#4 2F.F ....
....|..|--- .... ....|--- .... ....|R-- .... ....
....|..|E-4 2F2F ....|--- .... ....|B-3 2F.F ....
....|..|E-4 2F6F ....|--- .... ....|E-4 2F2F ....
....|..|--- .... ....|--- .... ....|E-4 2F6F ....
....|..|R-- .... ....|R-- .... ....|--- .... ....
....|..|--- .... ....|--- .... ....|C#4 2F.A ....
....|..|--- .... ....|--- .... ....|R-- .... ....
....|..|E-4 2F2A ....|--- .... ....|B-3 2F.A ....
....|..|E-4 2F6A ....|--- .... ....|E-4 2F2A ....
....|..|--- .... ....|G#5 2F.F ....|E-4 2F6A ....
....|..|R-- .... ....|R-- .... ....|--- .... ....
....|..|--- .... ....|--- .... ....|C#4 2F.7 ....
....|..|--- .... ....|R-- .... ....|R-- .... ....
....|..|E-4 2F27 ....|G-5 2F.F ....|B-3 2F.7 ....
....|..|E-4 2F67 ....|R-- .... ....|E-4 2F27 ....
....|..|--- .... ....|G#5 2F.F ....|E-4 2F67 ....
....|..|--- .... ....|--- .... ....|--- .... ....
....|..|--- .... ....|--- .... ....|--- .... ....
....|..|--- .... ....|R-- .... ....|--- .... ....
....|..|--- .... ....|G-5 2F.A ....|--- .... ....
....|..|--- .... ....|R-- .... ....|--- .... ....
....|..|--- .... ....|G-5 2F.F ....|--- .... ....
....|..|--- .... ....|--- .... ....|--- .... ....
....|..|--- .... ....|--- .... ....|--- .... ....
....|..|--- .... ....|R-- .... ....|--- .... ....
....|..|--- .... ....|D#5 2F.F ....|--- .... ....
....|..|--- .... ....|R-- .... ....|--- .... ....
....|..|--- .... ....|G#5 2F.7 ....|--- .... ....
....|..|--- .... ....|R-- .... ....|--- .... ....
....|..|--- .... ....|B-4 2F.F ....|--- .... ....
....|..|R-- .... ....|R-- .... ....|--- .... ....
....|..|--- .... ....|D#5 2F.A ....|E-4 2F.F ....
....|..|--- .... ....|R-- .... ....|R-- .... ....

[Pattern12]
....|..|E-4 2F2F ....|D#5 2F.F ....|C#4 2F4F ....
....|..|E-4 2F2F ....|R-- .... ....|E-4 2F2F ....
....|..|--- .... ....|B-4 2F.A ....|--- .... ....
....|..|R-- .... ....|R-- .... ....|--- .... ....
....|..|--- .... ....|E-5 2F.F ....|E-4 2F.A ....
....|..|--- .... ....|R-- .... ....|R-- .... ....
....|..|E-4 2F2A ....|D#5 2F.A ....|C#4 2F4A ....
....|..|E-4 2F2A ....|R-- .... ....|E-4 2F2A ....
....|..|--- .... ....|B-4 2F.7 ....|--- .... ....
....|..|R-- .... ....|R-- .... ....|--- .... ....
....|..|--- .... ....|E-5 2F.A ....|E-4 2F.7 ....
....|..|--- .... ....|R-- .... ....|R-- .... ....
....|..|E-4 2F27 ....|E-5 2F.F ....|C#4 2F47 ....
....|..|E-4 2F27 ....|--- .... ....|E-4 2F27 ....
....|..|--- .... ....|--- .... ....|--- .... ....
....|..|--- .... ....|R-- .... ....|--- .... ....
....|..|--- .... ....|E-5 2F.7 ....|--- .... ....
....|..|--- .... ....|--- .... ....|--- .... ....
....|..|--- .... ....|E-5 2F.A ....|--- .... ....
....|..|--- .... ....|--- .... ....|--- .... ....
....|..|--- .... ....|--- .... ....|--- .... ....
....|..|--- .... ....|--- .... ....|--- .... ....
....|..|--- .... ....|R-- .... ....|--- .... ....
....|..|--- .... ....|--- .... ....|--- .... ....
....|..|--- .... ....|E-5 2F.7 ....|--- .... ....
....|..|--- .... ....|--- .... ....|--- .... ....
....|..|--- .... ....|--- .... ....|--- .... ....
....|..|--- .... ....|--- .... ....|--- .... ....
....|..|--- .... ....|--- .... ....|--- .... ....
....|..|R-- .... ....|R-- .... ....|--- .... ....
....|..|--- .... ....|--- .... ....|C#4 2F.F ....
....|..|--- .... ....|--- .... ....|R-- .... ....
....|..|C#5 2F.F ....|--- .... ....|C#4 2F4F ....
....|..|E-4 2F2F ....|--- .... ....|--- .... ....
....|..|--- .... ....|--- .... ....|--- .... ....
....|..|R-- .... ....|R-- .... ....|--- .... ....
....|..|--- .... ....|--- .... ....|C#4 2F4F ....
....|..|--- .... ....|--- .... ....|R-- .... ....
....|..|C#5 2F.A ....|--- .... ....|C#4 2F4F ....
....|..|E-4 2F2A ....|--- .... ....|--- .... ....
....|..|--- .... ....|E-5 2F.F ....|C#4 2F4F ....
....|..|R-- .... ....|R-- .... ....|--- .... ....
....|..|--- .... ....|--- .... ....|C#4 2F4F ....
....|..|--- .... ....|R-- .... ....|R-- .... ....
....|..|C#5 2F.7 ....|G-5 2F.F ....|C#4 2F4F ....
....|..|E-4 2F27 ....|--- .... ....|--- .... ....
....|..|--- .... ....|E-5 2F.A ....|C#4 2F4F ....
....|..|--- .... ....|R-- .... ....|--- .... ....
....|..|--- .... ....|G#5 2F.F ....|C#4 2F4F ....
....|..|--- .... ....|R-- .... ....|--- .... ....
....|..|--- .... ....|G-5 2F.A ....|C#4 2F4F ....
....|..|--- .... ....|--- .... ....|--- .... ....
....|..|--- .... ....|G-5 2F.F ....|C#4 2F4F ....
....|..|--- .... ....|R-- .... ....|--- .... ....
....|..|--- .... ....|E-5 2F.F ....|C#4 2F4F ....
....|..|--- .... ....|R-- .... ....|--- .... ....
....|..|--- .... ....|G-5 2F.7 ....|C#4 2F4F ....
....|..|--- .... ....|--- .... ....|--- .... ....
....|..|--- .... ....|G-5 2F.A ....|C#4 2F4F ....
....|..|--- .... ....|R-- .... ....|--- .... ....
....|..|--- .... ....|G#5 2F.7 ....|C#4 2F4F ....
....|..|R-- .... ....|--- .... ....|--- .... ....
....|..|--- .... ....|--- .... ....|C#4 2F4F ....
....|..|--- .... ....|--- .... ....|--- .... ....

[Pattern13]
....|..|A#4 2F4F ....|G-5 2F.7 ....|A#4 2F7F ....
....|..|A#4 2F4F ....|R-- .... ....|--- .... ....
....|..|--- .... ....|E-5 2F.7 ....|C#4 2F47 ....
....|..|R-- .... ....|--- .... ....|--- .... ....
....|..|--- .... ....|--- .... ....|A#4 2F7F ....
....|..|--- .... ....|--- .... ....|--- .... ....
....|..|A#4 2F4A ....|R-- .... ....|A#4 2F7F ....
....|..|A#4 2F4A ....|--- .... ....|--- .... ....
....|..|--- .... ....|E-5 2F.F ....|C#4 2F4F ....
....|..|R-- .... ....|G-5 2F.F ....|--- .... ....
....|..|--- .... ....|--- .... ....|A#4 2F7F ....
....|..|--- .... ....|--- .... ....|--- .... ....
....|..|A#4 2F47 ....|R-- .... ....|A#4 2F7F ....
....|..|A#4 2F47 ....|G#5 2F.F ....|--- .... ....
....|..|--- .... ....|E-5 2F.A ....|A#4 2F7F ....
....|..|--- .... ....|A#5 2F.F ....|--- .... ....
....|..|--- .... ....|--- .... ....|C#4 2F4F ....
....|..|--- .... ....|--- .... ....|--- .... ....
....|..|--- .... ....|R-- .... ....|A#4 2F7F ....
....|..|--- .... ....|G#5 2F.A ....|--- .... ....
....|..|--- .... ....|G#5 2F.F ....|A#4 2F7F ....
....|..|--- .... ....|G-5 2F.7 ....|--- .... ....
....|..|--- .... ....|--- .... ....|A#4 2F7F ....
....|..|--- .... ....|--- .... ....|--- .... ....
....|..|--- .... ....|G-5 2F.F ....|A#4 2F7F ....
....|..|--- .... ....|G#5 2F.7 ....|--- .... ....
....|..|--- .... ....|G#5 2F.A ....|A#4 2F7F ....
....|..|--- .... ....|A#5 2F.7 ....|--- .... ....
....|..|--- .... ....|E-5 2F.F ....|A#4 2F7F ....
....|..|R-- .... ....|--- .... ....|--- .... ....
....|..|--- .... ....|G-5 2F.A ....|A#4 2F7F ....
....|..|--- .... ....|--- .... ....|--- .... ....
....|..|G-4 2F2F ....|G#5 2F.7 ....|G-4 2F5F ....
....|..|D#4 2F5F ....|R-- .... ....|--- .... ....
....|..|--- .... ....|E-5 2F.A ....|A#4 2F77 ....
....|..|R-- .... ....|--- .... ....|--- .... ....
....|..|--- .... ....|D#5 2F.F ....|G-4 2F5F ....
....|..|--- .... ....|--- .... ....|--- .... ....
....|..|G-4 2F2A ....|--- .... ....|G-4 2F5F ....
....|..|D#4 2F5A ....|R-- .... ....|--- .... ....
....|..|--- .... ....|E-5 2F.7 ....|B-4 2F2F ....
....|..|R-- .... ....|--- .... ....|--- .... ....
....|..|--- .... ....|D#5 2F.A ....|G-4 2F5F ....
....|..|--- .... ....|--- .... ....|--- .... ....
....|..|G-4 2F27 ....|--- .... ....|G-4 2F5F ....
....|..|D#4 2F57 ....|--- .... ....|--- .... ....
....|..|--- .... ....|R-- .... ....|G-4 2F5F ....
....|..|--- .... ....|--- .... ....|--- .... ....
....|..|--- .... ....|D#5 2F.7 ....|B-4 2F2F ....
....|..|--- .... ....|--- .... ....|--- .... ....
....|..|--- .... ....|--- .... ....|G-4 2F5F ....
....|..|--- .... ....|--- .... ....|--- .... ....
....|..|--- .... ....|--- .... ....|G-4 2F5F ....
....|..|--- .... ....|--- .... ....|--- .... ....
....|..|--- .... ....|R-- .... ....|G-4 2F5F ....
....|..|--- .... ....|--- .... ....|--- .... ....
....|..|--- .... ....|B-4 2F.F ....|G-4 2F5F ....
....|..|--- .... ....|R-- .... ....|--- .... ....
....|..|--- .... ....|D#5 2F.F ....|G-4 2F5F ....
....|..|--- .... ....|--- .... ....|--- .... ....
....|..|--- .... ....|R-- .... ....|G-4 2F5F ....
....|..|R-- .... ....|--- .... ....|--- .... ....
....|..|--- .... ....|B-4 2F.A ....|G-4 2F5F ....
....|..|--- .... ....|R-- .... ....|--- .... ....

[Pattern14]
....|..|G#4 2F4F ....|E-5 2F.F ....|G#4 2F4F ....
....|..|E-4 2F6F ....|--- .... ....|--- .... ....
....|..|--- .... ....|R-- .... ....|G-4 2F57 ....
....|..|R-- .... ....|--- .... ....|--- .... ....
....|..|--- .... ....|B-4 2F.7 ....|G#4 2F4F ....
....|..|--- .... ....|R-- .... ....|--- .... ....
....|..|G#4 2F4A ....|D#5 2F.7 ....|G#4 2F4F ....
....|..|E-4 2F6A ....|--- .... ....|--- .... ....
....|..|--- .... ....|--- .... ....|E-5 2F.F ....
....|..|R-- .... ....|--- .... ....|--- .... ....
....|..|--- .... ....|--- .... ....|G#4 2F4F ....
....|..|--- .... ....|--- .... ....|--- .... ....
....|..|G#4 2F47 ....|E-5 2F.7 ....|G#4 2F4F ....
....|..|E-4 2F67 ....|--- .... ....|--- .... ....
....|..|--- .... ....|--- .... ....|G#4 2F4F ....
....|..|--- .... ....|--- .... ....|--- .... ....
....|..|--- .... ....|--- .... ....|E-5 2F.F ....
....|..|--- .... ....|--- .... ....|--- .... ....
....|..|--- .... ....|--- .... ....|G#4 2F4F ....
....|..|--- .... ....|--- .... ....|--- .... ....
....|..|--- .... ....|--- .... ....|G#4 2F4F ....
....|..|--- .... ....|--- .... ....|--- .... ....
....|..|--- .... ....|--- .... ....|G#4 2F4F ....
....|..|--- .... ....|--- .... ....|--- .... ....
....|..|--- .... ....|--- .... ....|G#4 2F4F ....
....|..|--- .... ....|R-- .... ....|--- .... ....
....|..|--- .... ....|--- .... ....|G#4 2F4F ....
....|..|--- .... ....|--- .... ....|--- .... ....
....|..|--- .... ....|D#5 2F.F ....|G#4 2F4F ....
....|..|R-- .... ....|R-- .... ....|--- .... ....
....|..|--- .... ....|D#5 2F.F ....|G#4 2F4F ....
....|..|--- .... ....|R-- .... ....|--- .... ....
....|..|E-4 2F2F ....|D#5 2F.F ....|C#4 2F4F ....
....|..|C#4 2F1F ....|--- .... ....|--- .... ....
....|..|--- .... ....|D#5 2F.A ....|G#4 2F47 ....
....|..|R-- .... ....|R-- .... ....|--- .... ....
....|..|--- .... ....|C#5 2F.F ....|C#4 2F4F ....
....|..|--- .... ....|R-- .... ....|--- .... ....
....|..|E-4 2F2A ....|D#5 2F.A ....|C#4 2F4F ....
....|..|C#4 2F1A ....|--- .... ....|--- .... ....
....|..|--- .... ....|D#5 2F.7 ....|C#4 2F4F ....
....|..|R-- .... ....|R-- .... ....|--- .... ....
....|..|--- .... ....|D#5 2F.7 ....|C#4 2F4F ....
....|..|--- .... ....|R-- .... ....|--- .... ....
....|..|E-4 2F27 ....|D#5 2F.7 ....|C#4 2F4F ....
....|..|C#4 2F17 ....|--- .... ....|--- .... ....
....|..|--- .... ....|--- .... ....|C#4 2F4F ....
....|..|--- .... ....|R-- .... ....|--- .... ....
....|..|E-4 2F2F ....|C#5 2F.7 ....|C#4 2F4F ....
....|..|--- .... ....|--- .... ....|--- .... ....
....|..|--- .... ....|--- .... ....|C#4 2F4F ....
....|..|--- .... ....|--- .... ....|--- .... ....
....|..|--- .... ....|--- .... ....|C#4 2F4F ....
....|..|--- .... ....|--- .... ....|--- .... ....
....|..|E-4 2F2A ....|--- .... ....|C#4 2F4F ....
....|..|--- .... ....|--- .... ....|--- .... ....
....|..|E-4 2F2F ....|--- .... ....|C#4 2F4F ....
....|..|--- .... ....|--- .... ....|--- .... ....
....|..|--- .... ....|R-- .... ....|C#4 2F4F ....
....|..|--- .... ....|--- .... ....|--- .... ....
....|..|E-4 2F27 ....|--- .... ....|C#4 2F4F ....
....|..|G#5 2F.F ....|--- .... ....|--- .... ....
....|..|E-4 2F2A ....|--- .... ....|C#4 2F4F ....
....|..|--- .... ....|--- .... ....|--- .... ....

[Pattern15]
....|..|A#4 2F.F ....|R-- .... ....|A#4 2F7F ....
....|..|A#4 2F.F ....|--- .... ....|--- .... ....
....|..|--- .... ....|--- .... ....|C#4 2F47 ....
....|..|G#5 2F.A ....|--- .... ....|--- .... ....
....|..|E-4 2F27 ....|--- .... ....|A#4 2F7F ....
....|..|--- .... ....|--- .... ....|--- .... ....
....|..|A#4 2F.A ....|R-- .... ....|A#4 2F7F ....
....|..|A#4 2F.A ....|--- .... ....|--- .... ....
....|..|--- .... ....|B-4 2F.F ....|C#4 2F4F ....
....|..|G#5 2F.7 ....|--- .... ....|--- .... ....
....|..|--- .... ....|--- .... ....|A#4 2F7F ....
....|..|--- .... ....|R-- .... ....|--- .... ....
....|..|A#4 2F.7 ....|C#5 2F.F ....|A#4 2F7F ....
....|..|A#4 2F.7 ....|--- .... ....|--- .... ....
....|..|--- .... ....|B-4 2F.A ....|A#4 2F7F ....
....|..|C#4 2F4F ....|R-- .... ....|--- .... ....
....|..|A#4 2F.F ....|B-5 2F.F ....|C#4 2F4F ....
....|..|--- .... ....|R-- .... ....|--- .... ....
....|..|--- .... ....|C#5 2F.A ....|A#4 2F7F ....
....|..|--- .... ....|--- .... ....|--- .... ....
....|..|--- .... ....|B-5 2F.F ....|A#4 2F7F ....
....|..|C#4 2F4A ....|R-- .... ....|--- .... ....
....|..|A#4 2F.A ....|B-5 2F.A ....|A#4 2F7F ....
....|..|--- .... ....|R-- .... ....|--- .... ....
....|..|A#4 2F.F ....|A#5 2F.F ....|A#4 2F7F ....
....|..|--- .... ....|R-- .... ....|--- .... ....
....|..|--- .... ....|G#5 2F.F ....|A#4 2F7F ....
....|..|C#4 2F47 ....|R-- .... ....|--- .... ....
....|..|A#4 2F.7 ....|B-5 2F.7 ....|A#4 2F7F ....
....|..|G#5 2F.F ....|R-- .... ....|--- .... ....
....|..|A#4 2F.A ....|A#5 2F.A ....|A#4 2F7F ....
....|..|--- .... ....|A#5 2F.F ....|--- .... ....
....|..|G-4 2F4F ....|B-5 2F.7 ....|G-4 2F4F ....
....|..|G-4 2F4F ....|--- .... ....|--- .... ....
....|..|--- .... ....|R-- .... ....|A#4 2F77 ....
....|..|G#5 2F.A ....|--- .... ....|--- .... ....
....|..|A#4 2F.7 ....|A#5 2F.7 ....|G-4 2F4F ....
....|..|--- .... ....|A#5 2F.A ....|--- .... ....
....|..|G-4 2F4A ....|G#5 2F.7 ....|G-4 2F4F ....
....|..|G-4 2F4A ....|--- .... ....|--- .... ....
....|..|--- .... ....|--- .... ....|D#5 2F.F ....
....|..|G#5 2F.7 ....|--- .... ....|--- .... ....
....|..|--- .... ....|R-- .... ....|G-4 2F4F ....
....|..|--- .... ....|A#5 2F.7 ....|--- .... ....
....|..|G-4 2F47 ....|--- .... ....|G-4 2F4F ....
....|..|G-4 2F47 ....|--- .... ....|--- .... ....
....|..|--- .... ....|R-- .... ....|G-4 2F4F ....
....|..|--- .... ....|--- .... ....|--- .... ....
....|..|--- .... ....|--- .... ....|D#5 2F.F ....
....|..|--- .... ....|--- .... ....|--- .... ....
....|..|--- .... ....|--- .... ....|G-4 2F4F ....
....|..|--- .... ....|--- .... ....|--- .... ....
....|..|--- .... ....|E-5 2F.F ....|G-4 2F4F ....
....|..|--- .... ....|--- .... ....|--- .... ....
....|..|--- .... ....|--- .... ....|G-4 2F4F ....
....|..|--- .... ....|R-- .... ....|--- .... ....
....|..|--- .... ....|G#5 2F.F ....|G-4 2F4F ....
....|..|--- .... ....|R-- .... ....|--- .... ....
....|..|--- .... ....|A#5 2F.F ....|G-4 2F4F ....
....|..|--- .... ....|--- .... ....|--- .... ....
....|..|--- .... ....|--- .... ....|G-4 2F4F ....
....|..|A#5 2F.F ....|R-- .... ....|--- .... ....
....|..|--- .... ....|G#5 2F.A ....|G-4 2F4F ....
....|..|--- .... ....|R-- .... ....|--- .... ....

[Pattern16]
....|..|G-4 2F4F ....|B-5 2F.F ....|G-4 2F4F ....
....|..|G-4 2F4F ....|--- .... ....|--- .... ....
....|..|--- .... ....|--- .... ....|G-4 2F47 ....
....|..|A#5 2F.A ....|R-- .... ....|--- .... ....
....|..|--- .... ....|G#5 2F.7 ....|G-4 2F4F ....
....|..|D#4 2F6F ....|R-- .... ....|--- .... ....
....|..|G-4 2F4F ....|A#5 2F.7 ....|G-4 2F4F ....
....|..|G-4 2F4A ....|--- .... ....|--- .... ....
....|..|--- .... ....|--- .... ....|D#5 2F.F ....
....|..|A#5 2F.7 ....|--- .... ....|--- .... ....
....|..|--- .... ....|R-- .... ....|G-4 2F4F ....
....|..|D#4 2F6F ....|R-- .... ....|--- .... ....
....|..|G-4 2F4F ....|A#5 2F.F ....|G-4 2F4F ....
....|..|G-4 2F47 ....|--- .... ....|--- .... ....
....|..|--- .... ....|--- .... ....|G-4 2F4F ....
....|..|--- .... ....|--- .... ....|--- .... ....
....|..|--- .... ....|R-- .... ....|D#5 2F.F ....
....|..|D#4 2F6F ....|--- .... ....|--- .... ....
....|..|G-4 2F4F ....|A#5 2F.A ....|G-4 2F4F ....
....|..|--- .... ....|--- .... ....|--- .... ....
....|..|--- .... ....|--- .... ....|G-4 2F4F ....
....|..|--- .... ....|--- .... ....|--- .... ....
....|..|--- .... ....|R-- .... ....|G-4 2F4F ....
....|..|D#4 2F6F ....|--- .... ....|--- .... ....
....|..|G-4 2F4F ....|A#5 2F.7 ....|G-4 2F4F ....
....|..|--- .... ....|--- .... ....|--- .... ....
....|..|--- .... ....|--- .... ....|G-4 2F4F ....
....|..|--- .... ....|--- .... ....|--- .... ....
....|..|--- .... ....|--- .... ....|G-4 2F4F ....
....|..|A#5 2F.F ....|G#5 2F.F ....|--- .... ....
....|..|G-4 2F47 ....|E-5 2F.F ....|G-4 2F4F ....
....|..|--- .... ....|C#5 2F.F ....|--- .... ....
....|..|B-4 2F2F ....|A#4 2F.F ....|G#4 2F1F ....
....|..|G#4 2F1F ....|--- .... ....|--- .... ....
....|..|--- .... ....|--- .... ....|G-4 2F47 ....
....|..|D#4 2F67 ....|G#5 2F.A ....|--- .... ....
....|..|G-4 2F47 ....|E-5 2F.A ....|G#4 2F1F ....
....|..|--- .... ....|C#5 2F.A ....|--- .... ....
....|..|B-4 2F2A ....|A#4 2F.A ....|G#4 2F1F ....
....|..|G#4 2F1A ....|--- .... ....|--- .... ....
....|..|--- .... ....|--- .... ....|B-4 2F2F ....
....|..|A#5 2F.7 ....|G#5 2F.7 ....|--- .... ....
....|..|--- .... ....|E-5 2F.7 ....|G#4 2F1F ....
....|..|--- .... ....|C#5 2F.7 ....|--- .... ....
....|..|B-4 2F27 ....|A#4 2F.7 ....|G#4 2F1F ....
....|..|G#4 2F17 ....|--- .... ....|--- .... ....
....|..|--- .... ....|--- .... ....|G#4 2F1F ....
....|..|--- .... ....|--- .... ....|--- .... ....
....|..|--- .... ....|--- .... ....|B-4 2F2F ....
....|..|--- .... ....|--- .... ....|--- .... ....
....|..|--- .... ....|--- .... ....|G#4 2F1F ....
....|..|--- .... ....|--- .... ....|--- .... ....
....|..|--- .... ....|--- .... ....|G#4 2F1F ....
....|..|--- .... ....|--- .... ....|--- .... ....
....|..|--- .... ....|--- .... ....|G#4 2F1F ....
....|..|--- .... ....|--- .... ....|--- .... ....
....|..|--- .... ....|--- .... ....|G#4 2F1F ....
....|..|--- .... ....|--- .... ....|--- .... ....
....|..|--- .... ....|--- .... ....|G#4 2F1F ....
....|..|--- .... ....|--- .... ....|--- .... ....
....|..|--- .... ....|--- .... ....|G#4 2F1F ....
....|..|R-- .... ....|--- .... ....|--- .... ....
....|..|--- .... ....|--- .... ....|G#4 2F1F ....
....|..|--- .... ....|--- .... ....|--- .... ....

[Pattern17]
....|..|D#5 2F.F ....|--- .... ....|C#4 2F4F ....
....|..|A#4 2F.F ....|--- .... ....|--- .... ....
....|..|--- .... ....|--- .... ....|G#4 2F17 ....
....|..|R-- .... ....|--- .... ....|--- .... ....
....|..|--- .... ....|--- .... ....|C#4 2F4F ....
....|..|--- .... ....|--- .... ....|--- .... ....
....|..|D#5 2F.A ....|--- .... ....|C#4 2F4F ....
....|..|A#4 2F.A ....|--- .... ....|--- .... ....
....|..|--- .... ....|--- .... ....|C#4 2F4F ....
....|..|R-- .... ....|--- .... ....|--- .... ....
....|..|--- .... ....|--- .... ....|C#4 2F4F ....
....|..|--- .... ....|--- .... ....|--- .... ....
....|..|D#5 2F.7 ....|--- .... ....|C#4 2F4F ....
....|..|A#4 2F.7 ....|--- .... ....|--- .... ....
....|..|--- .... ....|--- .... ....|C#4 2F4F ....
....|..|--- .... ....|--- .... ....|--- .... ....
....|..|--- .... ....|--- .... ....|C#4 2F4F ....
....|..|--- .... ....|--- .... ....|--- .... ....
....|..|--- .... ....|--- .... ....|C#4 2F4F ....
....|..|--- .... ....|--- .... ....|--- .... ....
....|..|--- .... ....|--- .... ....|C#4 2F4F ....
....|..|--- .... ....|--- .... ....|--- .... ....
....|..|--- .... ....|--- .... ....|C#4 2F4F ....
....|..|--- .... ....|--- .... ....|--- .... ....
....|..|--- .... ....|--- .... ....|C#4 2F4F ....
....|..|--- .... ....|--- .... ....|--- .... ....
....|..|--- .... ....|--- .... ....|C#4 2F4F ....
....|..|--- .... ....|--- .... ....|--- .... ....
....|..|--- .... ....|--- .... ....|C#4 2F4F ....
....|..|R-- .... ....|--- .... ....|--- .... ....
....|..|--- .... ....|--- .... ....|C#4 2F4F ....
....|..|--- .... ....|--- .... ....|--- .... ....
....|..|B-4 2F2F ....|--- .... ....|G#4 2F1F ....
....|..|G#4 2F1F ....|--- .... ....|--- .... ....
....|..|--- .... ....|--- .... ....|C#4 2F47 ....
....|..|R-- .... ....|--- .... ....|--- .... ....
....|..|--- .... ....|--- .... ....|G#4 2F1F ....
....|..|--- .... ....|--- .... ....|--- .... ....
....|..|B-4 2F2A ....|--- .... ....|G#4 2F1F ....
....|..|G#4 2F1A ....|--- .... ....|--- .... ....
....|..|--- .... ....|--- .... ....|B-4 2F2F ....
....|..|R-- .... ....|--- .... ....|--- .... ....
....|..|--- .... ....|--- .... ....|G#4 2F1F ....
....|..|--- .... ....|--- .... ....|--- .... ....
....|..|B-4 2F27 ....|--- .... ....|G#4 2F1F ....
....|..|G#4 2F17 ....|--- .... ....|--- .... ....
....|..|--- .... ....|--- .... ....|G#4 2F1F ....
....|..|--- .... ....|--- .... ....|--- .... ....
....|..|--- .... ....|--- .... ....|B-4 2F2F ....
....|..|--- .... ....|--- .... ....|--- .... ....
....|..|--- .... ....|--- .... ....|G#4 2F1F ....
....|..|--- .... ....|--- .... ....|--- .... ....
....|..|--- .... ....|--- .... ....|G#4 2F1F ....
....|..|--- .... ....|--- .... ....|--- .... ....
....|..|--- .... ....|--- .... ....|G#4 2F1F ....
....|..|--- .... ....|--- .... ....|--- .... ....
....|..|--- .... ....|--- .... ....|G#4 2F1F ....
....|..|--- .... ....|--- .... ....|--- .... ....
....|..|--- .... ....|--- .... ....|G#4 2F1F ....
....|..|--- .... ....|--- .... ....|--- .... ....
....|..|--- .... ....|--- .... ....|G#4 2F1F ....
....|..|R-- .... ....|--- .... ....|--- .... ....
....|..|--- .... ....|--- .... ....|G#4 2F1F ....
....|..|--- .... ....|--- .... ....|--- .... ....

[Pattern18]
....|..|D#5 2F.F ....|--- .... ....|C#4 2F4F ....
....|..|A#4 2F.F ....|--- .... ....|--- .... ....
....|..|--- .... ....|--- .... ....|G#4 2F17 ....
....|..|R-- .... ....|--- .... ....|--- .... ....
....|..|--- .... ....|--- .... ....|C#4 2F4F ....
....|..|--- .... ....|--- .... ....|--- .... ....
....|..|D#5 2F.A ....|--- .... ....|C#4 2F4F ....
....|..|A#4 2F.A ....|--- .... ....|--- .... ....
....|..|--- .... ....|--- .... ....|C#4 2F4F ....
....|..|R-- .... ....|--- .... ....|--- .... ....
....|..|--- .... ....|--- .... ....|C#4 2F4F ....
....|..|--- .... ....|--- .... ....|--- .... ....
....|..|D#5 2F.7 ....|--- .... ....|C#4 2F4F ....
....|..|A#4 2F.7 ....|--- .... ....|--- .... ....
....|..|--- .... ....|--- .... ....|C#4 2F4F ....
....|..|--- .... ....|--- .... ....|--- .... ....
....|..|--- .... ....|--- .... ....|C#4 2F4F ....
....|..|--- .... ....|--- .... ....|--- .... ....
....|..|--- .... ....|--- .... ....|C#4 2F4F ....
....|..|--- .... ....|--- .... ....|--- .... ....
....|..|--- .... ....|--- .... ....|C#4 2F4F ....
....|..|--- .... ....|--- .... ....|--- .... ....
....|..|--- .... ....|--- .... ....|C#4 2F4F ....
....|..|--- .... ....|--- .... ....|--- .... ....
....|..|--- .... ....|--- .... ....|C#4 2F4F ....
....|..|--- .... ....|--- .... ....|--- .... ....
....|..|--- .... ....|--- .... ....|C#4 2F4F ....
....|..|--- .... ....|--- .... ....|--- .... ....
....|..|--- .... ....|--- .... ....|C#4 2F4F ....
....|..|R-- .... ....|--- .... ....|--- .... ....
....|..|--- .... ....|--- .... ....|C#4 2F4F ....
....|..|--- .... ....|--- .... ....|--- .... ....
....|..|B-4 2F2F ....|G-5 2F.F ....|G#4 2F1F ....
....|..|G#4 2F1F ....|G#5 2F.F ....|--- .... ....
....|..|--- .... ....|--- .... ....|C#4 2F47 ....
....|..|R-- .... ....|--- .... ....|--- .... ....
....|..|--- .... ....|--- .... ....|G#4 2F1F ....
....|..|--- .... ....|--- .... ....|--- .... ....
....|..|B-4 2F2A ....|G-5 2F.A ....|G#4 2F1F ....
....|..|G#4 2F1A ....|G#5 2F.A ....|--- .... ....
....|..|--- .... ....|--- .... ....|B-4 2F2F ....
....|..|R-- .... ....|R-- .... ....|--- .... ....
....|..|--- .... ....|--- .... ....|G#4 2F1F ....
....|..|--- .... ....|--- .... ....|--- .... ....
....|..|B-4 2F27 ....|G-6 2F.F ....|G#4 2F1F ....
....|..|G#4 2F17 ....|G#6 2F.F ....|--- .... ....
....|..|--- .... ....|R-- .... ....|G#4 2F1F ....
....|..|--- .... ....|R-- .... ....|--- .... ....
....|..|--- .... ....|G-6 2F.F ....|B-4 2F2F ....
....|..|--- .... ....|--- .... ....|--- .... ....
....|..|--- .... ....|G-6 2F.A ....|G#4 2F1F ....
....|..|--- .... ....|G#6 2F.A ....|--- .... ....
....|..|--- .... ....|R-- .... ....|G#4 2F1F ....
....|..|--- .... ....|R-- .... ....|--- .... ....
....|..|--- .... ....|D#6 2F.F ....|G#4 2F1F ....
....|..|--- .... ....|--- .... ....|--- .... ....
....|..|--- .... ....|G-6 2F.7 ....|G#4 2F1F ....
....|..|--- .... ....|G#6 2F.7 ....|--- .... ....
....|..|--- .... ....|R-- .... ....|G#4 2F1F ....
....|..|--- .... ....|D-6 2F.F ....|--- .... ....
....|..|--- .... ....|C#6 2F.F ....|G#4 2F1F ....
....|..|R-- .... ....|B-5 2F.F ....|--- .... ....
....|..|--- .... ....|R-- .... ....|G#4 2F1F ....
....|..|--- .... ....|--- .... ....|--- .... ....

[Pattern19]
....|..|A#4 2F.F ....|E-6 2F.F ....|A#4 2FAF ....
....|..|D-4 2F3F ....|D-6 2F.A ....|--- .... ....
....|..|--- .... ....|D#6 2F.7 ....|G#4 2F17 ....
....|..|R-- .... ....|B-5 2F.A ....|--- .... ....
....|..|--- .... ....|R-- .... ....|A#4 2FAF ....
....|..|--- .... ....|--- .... ....|--- .... ....
....|..|A#4 2F.A ....|E-6 2F.A ....|A#4 2FAF ....
....|..|D-4 2F3A ....|D-6 2F.7 ....|--- .... ....
....|..|--- .... ....|C#6 2F.7 ....|D-4 2F3F ....
....|..|R-- .... ....|B-5 2F.7 ....|--- .... ....
....|..|--- .... ....|R-- .... ....|A#4 2FAF ....
....|..|--- .... ....|--- .... ....|--- .... ....
....|..|A#4 2F.7 ....|E-6 2F.7 ....|A#4 2FAF ....
....|..|D-4 2F37 ....|--- .... ....|--- .... ....
....|..|--- .... ....|--- .... ....|A#4 2FAF ....
....|..|--- .... ....|R-- .... ....|--- .... ....
....|..|--- .... ....|A#5 2F.F ....|D-4 2F3F ....
....|..|--- .... ....|--- .... ....|--- .... ....
....|..|--- .... ....|--- .... ....|A#4 2FAF ....
....|..|--- .... ....|--- .... ....|--- .... ....
....|..|--- .... ....|--- .... ....|A#4 2FAF ....
....|..|--- .... ....|R-- .... ....|--- .... ....
....|..|--- .... ....|A#5 2F.A ....|A#4 2FAF ....
....|..|--- .... ....|--- .... ....|--- .... ....
....|..|--- .... ....|--- .... ....|A#4 2FAF ....
....|..|--- .... ....|--- .... ....|--- .... ....
....|..|--- .... ....|--- .... ....|A#4 2FAF ....
....|..|--- .... ....|R-- .... ....|--- .... ....
....|..|--- .... ....|G#5 2F.F ....|A#4 2FAF ....
....|..|R-- .... ....|G-5 2F.F ....|--- .... ....
....|..|--- .... ....|C#5 2F.F ....|A#4 2FAF ....
....|..|--- .... ....|R-- .... ....|--- .... ....
....|..|G-4 2F4F ....|A-5 2F.F ....|G-4 2F1F ....
....|..|G-4 2F4F ....|A#5 2F.F ....|--- .... ....
....|..|--- .... ....|G#5 2F.A ....|A#4 2FA7 ....
....|..|R-- .... ....|G-5 2F.A ....|--- .... ....
....|..|--- .... ....|C#5 2F.A ....|G-4 2F1F ....
....|..|--- .... ....|R-- .... ....|--- .... ....
....|..|G-4 2F4A ....|A-5 2F.A ....|G-4 2F1F ....
....|..|G-4 2F4A ....|A#5 2F.A ....|--- .... ....
....|..|--- .... ....|G#5 2F.7 ....|A#4 2F2F ....
....|..|R-- .... ....|G-5 2F.7 ....|--- .... ....
....|..|--- .... ....|C#5 2F.7 ....|G-4 2F1F ....
....|..|--- .... ....|R-- .... ....|--- .... ....
....|..|G-4 2F47 ....|B-5 2F.F ....|G-4 2F1F ....
....|..|G-4 2F47 ....|A#5 2F.7 ....|--- .... ....
....|..|G-4 2F.F ....|--- .... ....|G-4 2F1F ....
....|..|R-- .... ....|--- .... ....|--- .... ....
....|..|D#4 2F2F ....|D#6 2F.F ....|G-4 2F2F ....
....|..|D#4 2F5F ....|R-- .... ....|--- .... ....
....|..|--- .... ....|B-5 2F.A ....|D#4 2F5F ....
....|..|--- .... ....|R-- .... ....|--- .... ....
....|..|G-4 2F.A ....|A#5 2F.F ....|D#4 2F5F ....
....|..|R-- .... ....|R-- .... ....|--- .... ....
....|..|D#4 2F2A ....|D#6 2F.A ....|D#4 2F5F ....
....|..|D#4 2F5A ....|R-- .... ....|--- .... ....
....|..|--- .... ....|G-5 2F.F ....|D#4 2F5F ....
....|..|--- .... ....|R-- .... ....|--- .... ....
....|..|G-4 2F.7 ....|A#5 2F.A ....|D#4 2F5F ....
....|..|R-- .... ....|R-- .... ....|--- .... ....
....|..|D#4 2F27 ....|A#5 2F.F ....|D#4 2F5F ....
....|..|D#4 2F57 ....|R-- .... ....|--- .... ....
....|..|G-4 2F2F ....|G-5 2F.A ....|D#4 2F5F ....
....|..|R-- .... ....|A-5 2F.F ....|--- .... ....

[Pattern20]
....|..|G#4 2F4F ....|G#5 2F.F ....|E-4 2F6F ....
....|..|E-4 2F6F ....|R-- .... ....|--- .... ....
....|..|--- .... ....|A#5 2F.A ....|D#4 2F57 ....
....|..|--- .... ....|--- .... ....|--- .... ....
....|..|G-4 2F2A ....|G-5 2F.7 ....|E-4 2F6F ....
....|..|R-- .... ....|A-5 2F.A ....|--- .... ....
....|..|G#4 2F4A ....|G#5 2F.A ....|E-4 2F6F ....
....|..|E-4 2F6A ....|--- .... ....|--- .... ....
....|..|--- .... ....|A#5 2F.7 ....|G#4 2F4F ....
....|..|--- .... ....|--- .... ....|--- .... ....
....|..|G-4 2F27 ....|--- .... ....|E-4 2F6F ....
....|..|R-- .... ....|A-5 2F.7 ....|--- .... ....
....|..|G#4 2F47 ....|G#5 2F.7 ....|E-4 2F6F ....
....|..|E-4 2F67 ....|--- .... ....|--- .... ....
....|..|--- .... ....|--- .... ....|E-4 2F6F ....
....|..|--- .... ....|--- .... ....|--- .... ....
....|..|G#4 2F4F ....|--- .... ....|G#4 2F4F ....
....|..|--- .... ....|--- .... ....|--- .... ....
....|..|--- .... ....|--- .... ....|E-4 2F6F ....
....|..|--- .... ....|--- .... ....|--- .... ....
....|..|--- .... ....|R-- .... ....|E-4 2F6F ....
....|..|--- .... ....|--- .... ....|--- .... ....
....|..|G#4 2F4A ....|--- .... ....|E-4 2F6F ....
....|..|--- .... ....|--- .... ....|--- .... ....
....|..|G#4 2F4F ....|--- .... ....|E-4 2F6F ....
....|..|--- .... ....|--- .... ....|--- .... ....
....|..|--- .... ....|R-- .... ....|E-4 2F6F ....
....|..|--- .... ....|--- .... ....|--- .... ....
....|..|G#4 2F47 ....|--- .... ....|E-4 2F6F ....
....|..|E-5 2F.F ....|--- .... ....|--- .... ....
....|..|G#4 2F4A ....|--- .... ....|E-4 2F6F ....
....|..|--- .... ....|--- .... ....|--- .... ....
....|..|E-4 2F2F ....|E-5 2F.F ....|E-4 2F2F ....
....|..|E-4 2F2F ....|--- .... ....|--- .... ....
....|..|--- .... ....|--- .... ....|E-4 2F67 ....
....|..|E-5 2F.A ....|--- .... ....|--- .... ....
....|..|G#4 2F47 ....|--- .... ....|E-4 2F2F ....
....|..|--- .... ....|--- .... ....|--- .... ....
....|..|E-4 2F2A ....|E-5 2F.A ....|E-4 2F2F ....
....|..|E-4 2F2A ....|--- .... ....|--- .... ....
....|..|--- .... ....|--- .... ....|C#5 2F.F ....
....|..|E-5 2F.7 ....|--- .... ....|--- .... ....
....|..|--- .... ....|R-- .... ....|E-4 2F2F ....
....|..|--- .... ....|--- .... ....|--- .... ....
....|..|E-4 2F27 ....|G#5 2F.F ....|E-4 2F2F ....
....|..|E-4 2F27 ....|--- .... ....|--- .... ....
....|..|--- .... ....|R-- .... ....|E-4 2F2F ....
....|..|--- .... ....|--- .... ....|--- .... ....
....|..|--- .... ....|E-6 2F.F ....|C#5 2F.F ....
....|..|--- .... ....|--- .... ....|--- .... ....
....|..|--- .... ....|G#5 2F.A ....|E-4 2F2F ....
....|..|--- .... ....|R-- .... ....|--- .... ....
....|..|--- .... ....|D#6 2F.F ....|E-4 2F2F ....
....|..|--- .... ....|--- .... ....|--- .... ....
....|..|--- .... ....|E-6 2F.A ....|E-4 2F2F ....
....|..|--- .... ....|R-- .... ....|--- .... ....
....|..|C#4 2F1F ....|B-5 2F.F ....|E-4 2F2F ....
....|..|--- .... ....|R-- .... ....|--- .... ....
....|..|--- .... ....|A#5 2F.F ....|E-4 2F2F ....
....|..|--- .... ....|--- .... ....|--- .... ....
....|..|--- .... ....|E-6 2F.7 ....|E-4 2F2F ....
....|..|R-- .... ....|R-- .... ....|--- .... ....
....|..|C#4 2F1A ....|G#5 2F.F ....|E-4 2F2F ....
....|..|--- .... ....|R-- .... ....|--- .... ....

[Pattern21]
....|..|A#4 2F.F ....|A#5 2F.F ....|A#4 2F4F ....
....|..|C#4 2F4F ....|--- .... ....|--- .... ....
....|..|--- .... ....|--- .... ....|E-4 2F27 ....
....|..|R-- .... ....|R-- .... ....|--- .... ....
....|..|C#4 2F17 ....|B-5 2F.7 ....|A#4 2F4F ....
....|..|--- .... ....|R-- .... ....|--- .... ....
....|..|A#4 2F.A ....|A#5 2F.7 ....|A#4 2F4F ....
....|..|C#4 2F4A ....|--- .... ....|--- .... ....
....|..|--- .... ....|--- .... ....|A#4 2F4F ....
....|..|R-- .... ....|--- .... ....|--- .... ....
....|..|--- .... ....|G#5 2F.7 ....|A#4 2F4F ....
....|..|--- .... ....|R-- .... ....|--- .... ....
....|..|A#4 2F.7 ....|A#5 2F.7 ....|A#4 2F4F ....
....|..|C#4 2F47 ....|--- .... ....|--- .... ....
....|..|--- .... ....|--- .... ....|A#4 2F4F ....
....|..|--- .... ....|--- .... ....|--- .... ....
....|..|--- .... ....|--- .... ....|A#4 2F4F ....
....|..|--- .... ....|--- .... ....|--- .... ....
....|..|--- .... ....|--- .... ....|A#4 2F4F ....
....|..|--- .... ....|R-- .... ....|--- .... ....
....|..|--- .... ....|--- .... ....|A#4 2F4F ....
....|..|--- .... ....|--- .... ....|--- .... ....
....|..|--- .... ....|--- .... ....|A#4 2F4F ....
....|..|--- .... ....|--- .... ....|--- .... ....
....|..|--- .... ....|A#5 2F.F ....|A#4 2F4F ....
....|..|--- .... ....|R-- .... ....|--- .... ....
....|..|--- .... ....|B-5 2F.F ....|A#4 2F4F ....
....|..|--- .... ....|--- .... ....|--- .... ....
....|..|--- .... ....|--- .... ....|A#4 2F4F ....
....|..|R-- .... ....|--- .... ....|--- .... ....
....|..|--- .... ....|A#5 2F.A ....|A#4 2F4F ....
....|..|--- .... ....|R-- .... ....|--- .... ....
....|..|G-4 2F4F ....|D#6 2F.F ....|A#4 2F7F ....
....|..|D#4 2F6F ....|--- .... ....|--- .... ....
....|..|--- .... ....|--- .... ....|A#4 2F47 ....
....|..|R-- .... ....|--- .... ....|--- .... ....
....|..|--- .... ....|A#5 2F.7 ....|A#4 2F7F ....
....|..|--- .... ....|R-- .... ....|--- .... ....
....|..|G-4 2F4A ....|B-5 2F.7 ....|A#4 2F7F ....
....|..|D#4 2F6A ....|--- .... ....|--- .... ....
....|..|--- .... ....|--- .... ....|C#4 2F4F ....
....|..|R-- .... ....|--- .... ....|--- .... ....
....|..|--- .... ....|--- .... ....|A#4 2F7F ....
....|..|--- .... ....|--- .... ....|--- .... ....
....|..|G-4 2F47 ....|D#6 2F.7 ....|A#4 2F7F ....
....|..|D#4 2F67 ....|--- .... ....|--- .... ....
....|..|--- .... ....|--- .... ....|A#4 2F7F ....
....|..|--- .... ....|--- .... ....|--- .... ....
....|..|--- .... ....|R-- .... ....|C#4 2F4F ....
....|..|--- .... ....|--- .... ....|--- .... ....
....|..|--- .... ....|--- .... ....|A#4 2F7F ....
....|..|--- .... ....|--- .... ....|--- .... ....
....|..|--- .... ....|E-6 2F.F ....|A#4 2F7F ....
....|..|--- .... ....|E-6 2F.F ....|--- .... ....
....|..|--- .... ....|R-- .... ....|A#4 2F7F ....
....|..|--- .... ....|--- .... ....|--- .... ....
....|..|--- .... ....|G#6 2F.F ....|A#4 2F7F ....
....|..|--- .... ....|--- .... ....|--- .... ....
....|..|--- .... ....|E-6 2F.A ....|A#4 2F7F ....
....|..|--- .... ....|E-6 2F.A ....|--- .... ....
....|..|--- .... ....|E-6 2F.F ....|A#4 2F7F ....
....|..|R-- .... ....|--- .... ....|--- .... ....
....|..|--- .... ....|G#6 2F.A ....|A#4 2F7F ....
....|..|--- .... ....|--- .... ....|--- .... ....

[Pattern22]
....|..|A#4 2F.F ....|D#6 2F.F ....|G-4 2F4F ....
....|..|--- .... ....|E-6 2F.7 ....|--- .... ....
....|..|--- .... ....|E-6 2F.A ....|A#4 2F77 ....
....|..|R-- .... ....|--- .... ....|--- .... ....
....|..|A#4 2F4F ....|G#6 2F.7 ....|G-4 2F4F ....
....|..|--- .... ....|--- .... ....|--- .... ....
....|..|A#4 2F.A ....|D#6 2F.A ....|G-4 2F4F ....
....|..|--- .... ....|--- .... ....|--- .... ....
....|..|A#4 2F7F ....|E-6 2F.7 ....|D#5 2F.F ....
....|..|R-- .... ....|--- .... ....|--- .... ....
....|..|A#4 2F4A ....|R-- .... ....|G-4 2F4F ....
....|..|--- .... ....|--- .... ....|--- .... ....
....|..|C#4 2F1F ....|D#6 2F.7 ....|G-4 2F4F ....
....|..|--- .... ....|D-6 2F.F ....|--- .... ....
....|..|A#4 2F7A ....|B-5 2F.F ....|G-4 2F4F ....
....|..|--- .... ....|G#5 2F.F ....|--- .... ....
....|..|C#4 2F4F ....|E-5 2F.F ....|D#5 2F.F ....
....|..|--- .... ....|D-5 2F.F ....|--- .... ....
....|..|C#4 2F1A ....|A#4 2F.F ....|G-4 2F4F ....
....|..|--- .... ....|G-4 2F.F ....|--- .... ....
....|..|C#4 2F4F ....|D#4 2F.F ....|G-4 2F4F ....
....|..|--- .... ....|G#5 2F.A ....|--- .... ....
....|..|C#4 2F4A ....|E-5 2F.A ....|G-4 2F4F ....
....|..|--- .... ....|D-5 2F.A ....|--- .... ....
....|..|C#4 2F4F ....|A#4 2F.A ....|G-4 2F4F ....
....|..|--- .... ....|D-6 2F.7 ....|--- .... ....
....|..|C#4 2F4A ....|B-5 2F.7 ....|G-4 2F4F ....
....|..|--- .... ....|G#5 2F.7 ....|--- .... ....
....|..|A#4 2F4F ....|E-5 2F.7 ....|G-4 2F4F ....
....|..|--- .... ....|D-5 2F.7 ....|--- .... ....
....|..|E-6 2F.F ....|A#4 2F.7 ....|G-4 2F4F ....
....|..|E-6 2F.F ....|G-4 2F.7 ....|--- .... ....
....|..|G#4 2F4F ....|G#5 2F.F ....|G#4 2F1F ....
....|..|--- .... ....|--- .... ....|--- .... ....
....|..|A#4 2F4A ....|--- .... ....|G-4 2F47 ....
....|..|--- .... ....|--- .... ....|--- .... ....
....|..|C#4 2F47 ....|--- .... ....|G#4 2F1F ....
....|..|E-6 2F.A ....|--- .... ....|--- .... ....
....|..|G#4 2F4A ....|G#5 2F.A ....|G#4 2F1F ....
....|..|--- .... ....|--- .... ....|--- .... ....
....|..|A#4 2F47 ....|--- .... ....|B-4 2F2F ....
....|..|--- .... ....|R-- .... ....|--- .... ....
....|..|E-6 2F.7 ....|--- .... ....|G#4 2F1F ....
....|..|E-6 2F.7 ....|--- .... ....|--- .... ....
....|..|G#4 2F47 ....|G-6 2F.F ....|G#4 2F1F ....
....|..|--- .... ....|G#6 2F.F ....|--- .... ....
....|..|--- .... ....|--- .... ....|G#4 2F1F ....
....|..|--- .... ....|R-- .... ....|--- .... ....
....|..|--- .... ....|G-6 2F.F ....|B-4 2F2F ....
....|..|--- .... ....|--- .... ....|--- .... ....
....|..|--- .... ....|G-6 2F.A ....|G#4 2F1F ....
....|..|--- .... ....|G#6 2F.A ....|--- .... ....
....|..|--- .... ....|R-- .... ....|G#4 2F1F ....
....|..|--- .... ....|R-- .... ....|--- .... ....
....|..|--- .... ....|D#6 2F.F ....|G#4 2F1F ....
....|..|--- .... ....|--- .... ....|--- .... ....
....|..|--- .... ....|G-6 2F.7 ....|G#4 2F1F ....
....|..|--- .... ....|G#6 2F.7 ....|--- .... ....
....|..|--- .... ....|R-- .... ....|G#4 2F1F ....
....|..|--- .... ....|R-- .... ....|--- .... ....
....|..|--- .... ....|D-6 2F.F ....|G#4 2F1F ....
....|..|R-- .... ....|--- .... ....|--- .... ....
....|..|--- .... ....|R-- .... ....|G#4 2F1F ....
....|..|--- .... ....|--- .... ....|--- .... ....

[Pattern23]
....|..|A#5 2F.F ....|E-6 2F.F ....|A#4 2FAF ....
....|..|A#4 2F2F ....|--- .... ....|--- .... ....
....|..|--- .... ....|D#6 2F.7 ....|G#4 2F17 ....
....|..|R-- .... ....|--- .... ....|--- .... ....
....|..|--- .... ....|R-- .... ....|A#4 2FAF ....
....|..|--- .... ....|--- .... ....|--- .... ....
....|..|A#5 2F.A ....|E-6 2F.A ....|A#4 2FAF ....
....|..|A#4 2F2A ....|--- .... ....|--- .... ....
....|..|--- .... ....|D-6 2F.7 ....|D-4 2F3F ....
....|..|R-- .... ....|--- .... ....|--- .... ....
....|..|--- .... ....|R-- .... ....|A#4 2FAF ....
....|..|--- .... ....|--- .... ....|--- .... ....
....|..|A#5 2F.7 ....|E-6 2F.7 ....|A#4 2FAF ....
....|..|A#4 2F27 ....|--- .... ....|--- .... ....
....|..|--- .... ....|--- .... ....|A#4 2FAF ....
....|..|D-6 2F.F ....|R-- .... ....|--- .... ....
....|..|A#4 2F2F ....|A#5 2F.F ....|D-4 2F3F ....
....|..|--- .... ....|--- .... ....|--- .... ....
....|..|--- .... ....|--- .... ....|A#4 2FAF ....
....|..|--- .... ....|--- .... ....|--- .... ....
....|..|--- .... ....|--- .... ....|A#4 2FAF ....
....|..|D-6 2F.A ....|R-- .... ....|--- .... ....
....|..|A#4 2F2A ....|A#5 2F.A ....|A#4 2FAF ....
....|..|--- .... ....|--- .... ....|--- .... ....
....|..|--- .... ....|--- .... ....|A#4 2FAF ....
....|..|--- .... ....|--- .... ....|--- .... ....
....|..|--- .... ....|--- .... ....|A#4 2FAF ....
....|..|D-6 2F.7 ....|R-- .... ....|--- .... ....
....|..|A#4 2F27 ....|A#5 2F.7 ....|A#4 2FAF ....
....|..|A#5 2F.F ....|--- .... ....|--- .... ....
....|..|--- .... ....|--- .... ....|A#4 2FAF ....
....|..|R-- .... ....|R-- .... ....|--- .... ....
....|..|G-5 2F.F ....|A-5 2F.F ....|G-4 2F1F ....
....|..|G-4 2F4F ....|A#5 2F.F ....|--- .... ....
....|..|--- .... ....|--- .... ....|A#4 2FA7 ....
....|..|A#5 2F.A ....|--- .... ....|--- .... ....
....|..|--- .... ....|--- .... ....|G-4 2F1F ....
....|..|R-- .... ....|R-- .... ....|--- .... ....
....|..|G-5 2F.A ....|A-5 2F.A ....|G-4 2F1F ....
....|..|G-4 2F4A ....|A#5 2F.A ....|--- .... ....
....|..|--- .... ....|--- .... ....|A#4 2F2F ....
....|..|A#5 2F.7 ....|--- .... ....|--- .... ....
....|..|--- .... ....|--- .... ....|G-4 2F1F ....
....|..|R-- .... ....|R-- .... ....|--- .... ....
....|..|G-5 2F.7 ....|B-5 2F.F ....|G-4 2F1F ....
....|..|G-4 2F47 ....|A#5 2F.7 ....|--- .... ....
....|..|G-4 2F4F ....|R-- .... ....|G-4 2F1F ....
....|..|R-- .... ....|--- .... ....|--- .... ....
....|..|D#5 2F.F ....|D#6 2F.F ....|G-4 2F2F ....
....|..|D#4 2F2F ....|R-- .... ....|--- .... ....
....|..|--- .... ....|A#5 2F.F ....|D#4 2F5F ....
....|..|--- .... ....|--- .... ....|--- .... ....
....|..|G-4 2F4A ....|R-- .... ....|D#4 2F5F ....
....|..|R-- .... ....|R-- .... ....|--- .... ....
....|..|D#5 2F.A ....|G-5 2F.F ....|D#4 2F5F ....
....|..|D#4 2F2A ....|R-- .... ....|--- .... ....
....|..|--- .... ....|B-5 2F.7 ....|D#4 2F5F ....
....|..|--- .... ....|R-- .... ....|--- .... ....
....|..|G-4 2F47 ....|A#5 2F.F ....|D#4 2F5F ....
....|..|R-- .... ....|R-- .... ....|--- .... ....
....|..|D#5 2F.7 ....|D#6 2F.7 ....|D#4 2F5F ....
....|..|D#4 2F27 ....|R-- .... ....|--- .... ....
....|..|D#4 2F2F ....|A#5 2F.7 ....|D#4 2F5F ....
....|..|R-- .... ....|A-5 2F.F ....|--- .... ....

[Pattern24]
....|..|E-5 2F.F ....|G#5 2F.F ....|E-4 2F6F ....
....|..|E-4 2F2F ....|R-- .... ....|--- .... ....
....|..|--- .... ....|G-5 2F.7 ....|D#4 2F57 ....
....|..|--- .... ....|--- .... ....|--- .... ....
....|..|D#4 2F2A ....|--- .... ....|E-4 2F6F ....
....|..|R-- .... ....|A-5 2F.A ....|--- .... ....
....|..|E-5 2F.A ....|A#5 2F.7 ....|E-4 2F6F ....
....|..|E-4 2F2A ....|--- .... ....|--- .... ....
....|..|--- .... ....|--- .... ....|G#4 2F4F ....
....|..|--- .... ....|--- .... ....|--- .... ....
....|..|D#4 2F27 ....|--- .... ....|E-4 2F6F ....
....|..|R-- .... ....|A-5 2F.7 ....|--- .... ....
....|..|E-5 2F.7 ....|G#5 2F.7 ....|E-4 2F6F ....
....|..|E-4 2F27 ....|--- .... ....|--- .... ....
....|..|--- .... ....|--- .... ....|E-4 2F6F ....
....|..|--- .... ....|--- .... ....|--- .... ....
....|..|E-5 2F.F ....|--- .... ....|G#4 2F4F ....
....|..|--- .... ....|--- .... ....|--- .... ....
....|..|--- .... ....|--- .... ....|E-4 2F6F ....
....|..|--- .... ....|--- .... ....|--- .... ....
....|..|E-4 2F4F ....|--- .... ....|E-4 2F6F ....
....|..|--- .... ....|--- .... ....|--- .... ....
....|..|E-5 2F.A ....|R-- .... ....|E-4 2F6F ....
....|..|--- .... ....|--- .... ....|--- .... ....
....|..|E-4 2F2F ....|--- .... ....|E-4 2F6F ....
....|..|--- .... ....|--- .... ....|--- .... ....
....|..|E-4 2F4A ....|--- .... ....|E-4 2F6F ....
....|..|G#5 2F.F ....|--- .... ....|--- .... ....
....|..|E-5 2F.F ....|R-- .... ....|E-4 2F6F ....
....|..|--- .... ....|--- .... ....|--- .... ....
....|..|E-4 2F2A ....|--- .... ....|E-4 2F6F ....
....|..|--- .... ....|--- .... ....|--- .... ....
....|..|C#4 2F4F ....|E-5 2F.F ....|E-4 2F2F ....
....|..|C#4 2F1F ....|--- .... ....|--- .... ....
....|..|E-5 2F.A ....|R-- .... ....|E-4 2F67 ....
....|..|--- .... ....|--- .... ....|--- .... ....
....|..|E-4 2F27 ....|--- .... ....|E-4 2F2F ....
....|..|--- .... ....|--- .... ....|--- .... ....
....|..|C#4 2F4A ....|E-5 2F.A ....|E-4 2F2F ....
....|..|G#5 2F.7 ....|--- .... ....|--- .... ....
....|..|E-5 2F.7 ....|--- .... ....|C#5 2F.F ....
....|..|--- .... ....|--- .... ....|--- .... ....
....|..|--- .... ....|R-- .... ....|E-4 2F2F ....
....|..|--- .... ....|--- .... ....|--- .... ....
....|..|C#4 2F47 ....|G#5 2F.F ....|E-4 2F2F ....
....|..|C#4 2F17 ....|--- .... ....|--- .... ....
....|..|--- .... ....|--- .... ....|E-4 2F2F ....
....|..|--- .... ....|R-- .... ....|--- .... ....
....|..|C#4 2F1F ....|E-6 2F.F ....|C#5 2F.F ....
....|..|--- .... ....|--- .... ....|--- .... ....
....|..|--- .... ....|G#5 2F.A ....|E-4 2F2F ....
....|..|--- .... ....|R-- .... ....|--- .... ....
....|..|--- .... ....|D#6 2F.F ....|E-4 2F2F ....
....|..|--- .... ....|R-- .... ....|--- .... ....
....|..|C#4 2F1A ....|E-6 2F.A ....|E-4 2F2F ....
....|..|--- .... ....|R-- .... ....|--- .... ....
....|..|--- .... ....|B-5 2F.F ....|E-4 2F2F ....
....|..|--- .... ....|R-- .... ....|--- .... ....
....|..|--- .... ....|A#5 2F.F ....|E-4 2F2F ....
....|..|--- .... ....|R-- .... ....|--- .... ....
....|..|C#4 2F17 ....|E-6 2F.7 ....|E-4 2F2F ....
....|..|G#4 2F.F ....|R-- .... ....|--- .... ....
....|..|--- .... ....|G#5 2F.F ....|E-4 2F2F ....
....|..|R-- .... ....|R-- .... ....|--- .... ....

[Pattern25]
....|..|A#4 2F.F ....|A#5 2F.F ....|A#4 2F4F ....
....|..|C#4 2F4F ....|--- .... ....|--- .... ....
....|..|--- .... ....|--- .... ....|E-4 2F27 ....
....|..|G#4 2F.A ....|R-- .... ....|--- .... ....
....|..|--- .... ....|B-5 2F.7 ....|A#4 2F4F ....
....|..|R-- .... ....|R-- .... ....|--- .... ....
....|..|A#4 2F.A ....|A#5 2F.7 ....|A#4 2F4F ....
....|..|C#4 2F4A ....|--- .... ....|--- .... ....
....|..|--- .... ....|--- .... ....|A#4 2F4F ....
....|..|G#4 2F.7 ....|--- .... ....|--- .... ....
....|..|--- .... ....|G#5 2F.7 ....|A#4 2F4F ....
....|..|R-- .... ....|R-- .... ....|--- .... ....
....|..|A#4 2F.7 ....|A#5 2F.7 ....|A#4 2F4F ....
....|..|C#4 2F47 ....|--- .... ....|--- .... ....
....|..|--- .... ....|--- .... ....|A#4 2F4F ....
....|..|C#4 2F4F ....|--- .... ....|--- .... ....
....|..|C#4 2F4F ....|--- .... ....|A#4 2F4F ....
....|..|--- .... ....|--- .... ....|--- .... ....
....|..|--- .... ....|--- .... ....|A#4 2F4F ....
....|..|--- .... ....|R-- .... ....|--- .... ....
....|..|C#4 2F1F ....|--- .... ....|A#4 2F4F ....
....|..|C#4 2F4A ....|--- .... ....|--- .... ....
....|..|C#4 2F4A ....|--- .... ....|A#4 2F4F ....
....|..|--- .... ....|--- .... ....|--- .... ....
....|..|C#4 2F4F ....|A#5 2F.F ....|A#4 2F4F ....
....|..|--- .... ....|R-- .... ....|--- .... ....
....|..|C#4 2F1A ....|B-5 2F.F ....|A#4 2F4F ....
....|..|C#4 2F47 ....|--- .... ....|--- .... ....
....|..|G#4 2F.F ....|--- .... ....|A#4 2F4F ....
....|..|--- .... ....|--- .... ....|--- .... ....
....|..|C#4 2F4A ....|A#5 2F.A ....|A#4 2F4F ....
....|..|--- .... ....|R-- .... ....|--- .... ....
....|..|G-4 2F4F ....|D#6 2F.F ....|G-4 2F4F ....
....|..|D#4 2F6F ....|--- .... ....|--- .... ....
....|..|G#4 2F.A ....|--- .... ....|A#4 2F47 ....
....|..|--- .... ....|--- .... ....|--- .... ....
....|..|D#4 2F8F ....|A#5 2F.7 ....|G-4 2F4F ....
....|..|--- .... ....|R-- .... ....|--- .... ....
....|..|G-4 2F4A ....|B-5 2F.7 ....|G-4 2F4F ....
....|..|D#4 2F6A ....|--- .... ....|--- .... ....
....|..|D#4 2F6F ....|--- .... ....|D#5 2F.F ....
....|..|--- .... ....|--- .... ....|--- .... ....
....|..|D#4 2F8A ....|--- .... ....|G-4 2F4F ....
....|..|--- .... ....|--- .... ....|--- .... ....
....|..|G#4 2F3F ....|D#6 2F.7 ....|G-4 2F4F ....
....|..|D#4 2F67 ....|--- .... ....|--- .... ....
....|..|D#4 2F6A ....|--- .... ....|G-4 2F4F ....
....|..|--- .... ....|--- .... ....|--- .... ....
....|..|D#4 2F87 ....|--- .... ....|D#5 2F.F ....
....|..|--- .... ....|--- .... ....|--- .... ....
....|..|G#4 2F3A ....|R-- .... ....|G-4 2F4F ....
....|..|--- .... ....|--- .... ....|--- .... ....
....|..|D#4 2F67 ....|E-6 2F.F ....|G-4 2F4F ....
....|..|--- .... ....|--- .... ....|--- .... ....
....|..|--- .... ....|--- .... ....|G-4 2F4F ....
....|..|D#4 2F.F ....|--- .... ....|--- .... ....
....|..|A#4 2F.F ....|G#6 2F.F ....|G-4 2F4F ....
....|..|--- .... ....|--- .... ....|--- .... ....
....|..|--- .... ....|E-6 2F.A ....|G-4 2F4F ....
....|..|--- .... ....|--- .... ....|--- .... ....
....|..|--- .... ....|G#6 2F.F ....|G-4 2F4F ....
....|..|D#4 2F.F ....|E-6 2F.F ....|--- .... ....
....|..|A#4 2F.A ....|G#6 2F.A ....|G-4 2F4F ....
....|..|R-- .... ....|R-- .... ....|--- .... ....

[Pattern26]
....|..|G-4 2F2F ....|G#6 2F.F ....|D#4 2F5F ....
....|..|D#4 2F5F ....|--- .... ....|--- .... ....
....|..|--- .... ....|G#6 2F.A ....|G-4 2F47 ....
....|..|D#4 2F.7 ....|E-6 2F.A ....|--- .... ....
....|..|A#4 2F.7 ....|G#6 2F.7 ....|D#4 2F5F ....
....|..|R-- .... ....|R-- .... ....|--- .... ....
....|..|G-4 2F2A ....|G#6 2F.A ....|D#4 2F5F ....
....|..|D#4 2F5A ....|--- .... ....|--- .... ....
....|..|--- .... ....|G#6 2F.7 ....|G-4 2F2F ....
....|..|D#4 2F.7 ....|E-6 2F.7 ....|--- .... ....
....|..|--- .... ....|--- .... ....|D#4 2F5F ....
....|..|R-- .... ....|R-- .... ....|--- .... ....
....|..|G-4 2F27 ....|G#6 2F.7 ....|D#4 2F5F ....
....|..|D#4 2F57 ....|--- .... ....|--- .... ....
....|..|--- .... ....|--- .... ....|D#4 2F5F ....
....|..|G-4 2F2F ....|R-- .... ....|--- .... ....
....|..|E-4 2F1F ....|A#6 2F.F ....|G-4 2F2F ....
....|..|--- .... ....|--- .... ....|--- .... ....
....|..|--- .... ....|--- .... ....|E-4 2F1F ....
....|..|--- .... ....|--- .... ....|--- .... ....
....|..|--- .... ....|--- .... ....|E-4 2F1F ....
....|..|G-4 2F2A ....|R-- .... ....|--- .... ....
....|..|E-4 2F1A ....|A#6 2F.A ....|E-4 2F1F ....
....|..|--- .... ....|--- .... ....|--- .... ....
....|..|G-4 2F2F ....|--- .... ....|E-4 2F1F ....
....|..|--- .... ....|--- .... ....|--- .... ....
....|..|--- .... ....|--- .... ....|E-4 2F1F ....
....|..|G-4 2F27 ....|R-- .... ....|--- .... ....
....|..|E-4 2F17 ....|A#6 2F.7 ....|E-4 2F1F ....
....|..|--- .... ....|--- .... ....|--- .... ....
....|..|G-4 2F2A ....|--- .... ....|E-4 2F1F ....
....|..|--- .... ....|R-- .... ....|--- .... ....
....|..|E-5 2F.F ....|B-6 2F.F ....|B-3 2F.F ....
....|..|G#4 2F4F ....|--- .... ....|E-4 2F2F ....
....|..|--- .... ....|--- .... ....|E-4 2F6F ....
....|..|--- .... ....|--- .... ....|--- .... ....
....|..|G-4 2F27 ....|E-6 2F.F ....|E-4 2F17 ....
....|..|--- .... ....|B-5 2F.F ....|--- .... ....
....|..|E-5 2F.A ....|A-5 2F.F ....|E-4 2F17 ....
....|..|G#4 2F4A ....|E-5 2F.F ....|E-4 2F2A ....
....|..|--- .... ....|G#5 2F.F ....|E-4 2F17 ....
....|..|--- .... ....|--- .... ....|--- .... ....
....|..|--- .... ....|E-6 2F.A ....|E-4 2F17 ....
....|..|--- .... ....|B-5 2F.A ....|--- .... ....
....|..|E-5 2F.7 ....|G-5 2F.F ....|B-3 2F.7 ....
....|..|G#4 2F47 ....|E-5 2F.A ....|E-4 2F27 ....
....|..|--- .... ....|G#5 2F.F ....|E-4 2F67 ....
....|..|--- .... ....|--- .... ....|--- .... ....
....|..|--- .... ....|E-6 2F.7 ....|--- .... ....
....|..|--- .... ....|B-5 2F.7 ....|--- .... ....
....|..|--- .... ....|A-5 2F.7 ....|--- .... ....
....|..|--- .... ....|E-5 2F.7 ....|--- .... ....
....|..|--- .... ....|G-5 2F.F ....|--- .... ....
....|..|--- .... ....|--- .... ....|--- .... ....
....|..|--- .... ....|--- .... ....|--- .... ....
....|..|--- .... ....|R-- .... ....|--- .... ....
....|..|--- .... ....|D#5 2F.F ....|--- .... ....
....|..|--- .... ....|R-- .... ....|--- .... ....
....|..|--- .... ....|G#5 2F.7 ....|--- .... ....
....|..|--- .... ....|R-- .... ....|--- .... ....
....|..|--- .... ....|B-4 2F.F ....|--- .... ....
....|..|R-- .... ....|R-- .... ....|--- .... ....
....|..|--- .... ....|D#5 2F.A ....|E-4 2F.F ....
....|..|--- .... ....|R-- .... ....|R-- .... ....

[Pattern27]
....|..|E-4 2F2F ....|D#5 2F.F ....|C#4 2F4F ....
....|..|E-4 2F2F ....|R-- .... ....|E-4 2F2F ....
....|..|--- .... ....|B-4 2F.A ....|--- .... ....
....|..|R-- .... ....|R-- .... ....|--- .... ....
....|..|--- .... ....|E-5 2F.F ....|E-4 2F.A ....
....|..|--- .... ....|R-- .... ....|R-- .... ....
....|..|E-4 2F2A ....|D#5 2F.A ....|C#4 2F4A ....
....|..|E-4 2F2A ....|R-- .... ....|E-4 2F2A ....
....|..|--- .... ....|B-4 2F.7 ....|--- .... ....
....|..|R-- .... ....|--- .... ....|--- .... ....
....|..|--- .... ....|E-5 2F.A ....|E-4 2F.7 ....
....|..|--- .... ....|R-- .... ....|R-- .... ....
....|..|E-4 2F27 ....|E-5 2F.F ....|C#4 2F47 ....
....|..|E-4 2F27 ....|R-- .... ....|E-4 2F27 ....
....|..|--- .... ....|--- .... ....|--- .... ....
....|..|--- .... ....|--- .... ....|--- .... ....
....|..|--- .... ....|E-5 2F.7 ....|--- .... ....
....|..|--- .... ....|R-- .... ....|--- .... ....
....|..|--- .... ....|E-5 2F.A ....|--- .... ....
....|..|--- .... ....|--- .... ....|--- .... ....
....|..|--- .... ....|--- .... ....|--- .... ....
....|..|--- .... ....|--- .... ....|--- .... ....
....|..|--- .... ....|--- .... ....|--- .... ....
....|..|--- .... ....|R-- .... ....|--- .... ....
....|..|--- .... ....|E-5 2F.7 ....|--- .... ....
....|..|--- .... ....|--- .... ....|--- .... ....
....|..|--- .... ....|--- .... ....|--- .... ....
....|..|--- .... ....|--- .... ....|--- .... ....
....|..|--- .... ....|--- .... ....|--- .... ....
....|..|R-- .... ....|R-- .... ....|--- .... ....
....|..|--- .... ....|--- .... ....|C#4 2F.F ....
....|..|--- .... ....|--- .... ....|R-- .... ....
....|..|E-4 2F2F ....|--- .... ....|B-3 2F.F ....
....|..|E-4 2F6F ....|--- .... ....|E-4 2F2F ....
....|..|--- .... ....|--- .... ....|E-4 2F6F ....
....|..|R-- .... ....|R-- .... ....|--- .... ....
....|..|--- .... ....|--- .... ....|C#4 2F.A ....
....|..|--- .... ....|--- .... ....|R-- .... ....
....|..|E-4 2F2A ....|--- .... ....|B-3 2F.A ....
....|..|E-4 2F6A ....|--- .... ....|E-4 2F2A ....
....|..|--- .... ....|G#5 2F.F ....|E-4 2F6A ....
....|..|R-- .... ....|R-- .... ....|--- .... ....
....|..|--- .... ....|--- .... ....|C#4 2F.7 ....
....|..|--- .... ....|--- .... ....|R-- .... ....
....|..|E-4 2F27 ....|G-5 2F.F ....|B-3 2F.7 ....
....|..|E-4 2F67 ....|R-- .... ....|E-4 2F27 ....
....|..|--- .... ....|G#5 2F.F ....|E-4 2F67 ....
....|..|--- .... ....|--- .... ....|--- .... ....
....|..|--- .... ....|--- .... ....|--- .... ....
....|..|--- .... ....|--- .... ....|--- .... ....
....|..|--- .... ....|G-5 2F.A ....|--- .... ....
....|..|--- .... ....|R-- .... ....|--- .... ....
....|..|--- .... ....|G-5 2F.F ....|--- .... ....
....|..|--- .... ....|--- .... ....|--- .... ....
....|..|--- .... ....|--- .... ....|--- .... ....
....|..|--- .... ....|R-- .... ....|--- .... ....
....|..|--- .... ....|D#5 2F.F ....|--- .... ....
....|..|--- .... ....|R-- .... ....|--- .... ....
....|..|--- .... ....|G#5 2F.7 ....|--- .... ....
....|..|--- .... ....|R-- .... ....|--- .... ....
....|..|--- .... ....|B-4 2F.F ....|--- .... ....
....|..|R-- .... ....|R-- .... ....|--- .... ....
....|..|--- .... ....|D#5 2F.A ....|E-4 2F.F ....
....|..|--- .... ....|R-- .... ....|R-- .... ....

[Pattern28]
....|..|E-4 2F2F ....|D#5 2F.F ....|C#4 2F4F ....
....|..|E-4 2F2F ....|R-- .... ....|E-4 2F2F ....
....|..|--- .... ....|B-4 2F.A ....|--- .... ....
....|..|R-- .... ....|R-- .... ....|--- .... ....
....|..|--- .... ....|E-5 2F.F ....|E-4 2F.A ....
....|..|--- .... ....|R-- .... ....|R-- .... ....
....|..|E-4 2F2A ....|D#5 2F.A ....|C#4 2F4A ....
....|..|E-4 2F2A ....|R-- .... ....|E-4 2F2A ....
....|..|--- .... ....|B-4 2F.7 ....|--- .... ....
....|..|R-- .... ....|--- .... ....|--- .... ....
....|..|--- .... ....|E-5 2F.A ....|E-4 2F.7 ....
....|..|--- .... ....|R-- .... ....|R-- .... ....
....|..|E-4 2F27 ....|E-5 2F.F ....|C#4 2F47 ....
....|..|E-4 2F27 ....|R-- .... ....|E-4 2F27 ....
....|..|--- .... ....|--- .... ....|--- .... ....
....|..|--- .... ....|--- .... ....|--- .... ....
....|..|--- .... ....|E-5 2F.7 ....|--- .... ....
....|..|--- .... ....|R-- .... ....|--- .... ....
....|..|--- .... ....|E-5 2F.A ....|--- .... ....
....|..|--- .... ....|--- .... ....|--- .... ....
....|..|--- .... ....|--- .... ....|--- .... ....
....|..|--- .... ....|--- .... ....|--- .... ....
....|..|--- .... ....|--- .... ....|--- .... ....
....|..|--- .... ....|R-- .... ....|--- .... ....
....|..|--- .... ....|E-5 2F.7 ....|--- .... ....
....|..|--- .... ....|--- .... ....|--- .... ....
....|..|--- .... ....|--- .... ....|--- .... ....
....|..|--- .... ....|--- .... ....|--- .... ....
....|..|--- .... ....|--- .... ....|--- .... ....
....|..|R-- .... ....|R-- .... ....|--- .... ....
....|..|--- .... ....|--- .... ....|C#4 2F.F ....
....|..|--- .... ....|--- .... ....|R-- .... ....
....|..|C#5 2F.F ....|--- .... ....|C#4 2F4F ....
....|..|E-4 2F2F ....|--- .... ....|--- .... ....
....|..|--- .... ....|--- .... ....|--- .... ....
....|..|R-- .... ....|R-- .... ....|--- .... ....
....|..|--- .... ....|--- .... ....|C#4 2F4F ....
....|..|--- .... ....|--- .... ....|R-- .... ....
....|..|C#5 2F.A ....|--- .... ....|C#4 2F4F ....
....|..|E-4 2F2A ....|--- .... ....|--- .... ....
....|..|--- .... ....|E-5 2F.F ....|C#4 2F4F ....
....|..|R-- .... ....|R-- .... ....|--- .... ....
....|..|--- .... ....|--- .... ....|C#4 2F4F ....
....|..|--- .... ....|R-- .... ....|R-- .... ....
....|..|C#5 2F.7 ....|G-5 2F.F ....|C#4 2F4F ....
....|..|E-4 2F27 ....|--- .... ....|--- .... ....
....|..|--- .... ....|E-5 2F.A ....|C#4 2F4F ....
....|..|--- .... ....|R-- .... ....|--- .... ....
....|..|--- .... ....|G#5 2F.F ....|C#4 2F4F ....
....|..|--- .... ....|R-- .... ....|--- .... ....
....|..|--- .... ....|G-5 2F.A ....|C#4 2F4F ....
....|..|--- .... ....|--- .... ....|--- .... ....
....|..|--- .... ....|G-5 2F.F ....|C#4 2F4F ....
....|..|--- .... ....|R-- .... ....|--- .... ....
....|..|--- .... ....|E-5 2F.F ....|C#4 2F4F ....
....|..|--- .... ....|R-- .... ....|--- .... ....
....|..|--- .... ....|G-5 2F.7 ....|C#4 2F4F ....
....|..|--- .... ....|--- .... ....|--- .... ....
....|..|--- .... ....|G-5 2F.A ....|C#4 2F4F ....
....|..|--- .... ....|R-- .... ....|--- .... ....
....|..|--- .... ....|G#5 2F.7 ....|C#4 2F4F ....
....|..|R-- .... ....|--- .... ....|--- .... ....
....|..|--- .... ....|--- .... ....|C#4 2F4F ....
....|..|--- .... ....|--- .... ....|--- .... ....

[Pattern29]
....|..|A#4 2F4F ....|G-5 2F.7 ....|A#4 2F7F ....
....|..|A#4 2F4F ....|R-- .... ....|--- .... ....
....|..|--- .... ....|E-5 2F.7 ....|C#4 2F47 ....
....|..|R-- .... ....|--- .... ....|--- .... ....
....|..|--- .... ....|--- .... ....|A#4 2F7F ....
....|..|--- .... ....|--- .... ....|--- .... ....
....|..|A#4 2F4A ....|R-- .... ....|A#4 2F7F ....
....|..|A#4 2F4A ....|--- .... ....|--- .... ....
....|..|--- .... ....|G-5 2F.F ....|C#4 2F4F ....
....|..|R-- .... ....|--- .... ....|--- .... ....
....|..|--- .... ....|--- .... ....|A#4 2F7F ....
....|..|--- .... ....|--- .... ....|--- .... ....
....|..|A#4 2F47 ....|G#5 2F.F ....|A#4 2F7F ....
....|..|A#4 2F47 ....|R-- .... ....|--- .... ....
....|..|--- .... ....|A#5 2F.F ....|A#4 2F7F ....
....|..|--- .... ....|--- .... ....|--- .... ....
....|..|--- .... ....|--- .... ....|C#4 2F4F ....
....|..|--- .... ....|--- .... ....|--- .... ....
....|..|--- .... ....|G#5 2F.A ....|A#4 2F7F ....
....|..|--- .... ....|R-- .... ....|--- .... ....
....|..|--- .... ....|G#5 2F.F ....|A#4 2F7F ....
....|..|--- .... ....|--- .... ....|--- .... ....
....|..|--- .... ....|--- .... ....|A#4 2F7F ....
....|..|--- .... ....|R-- .... ....|--- .... ....
....|..|--- .... ....|G-5 2F.F ....|A#4 2F7F ....
....|..|--- .... ....|R-- .... ....|--- .... ....
....|..|--- .... ....|E-5 2F.F ....|A#4 2F7F ....
....|..|--- .... ....|--- .... ....|--- .... ....
....|..|--- .... ....|--- .... ....|A#4 2F7F ....
....|..|R-- .... ....|R-- .... ....|--- .... ....
....|..|--- .... ....|D#5 2F.F ....|A#4 2F7F ....
....|..|--- .... ....|R-- .... ....|--- .... ....
....|..|G-4 2F2F ....|G#5 2F.7 ....|G-4 2F5F ....
....|..|D#4 2F5F ....|--- .... ....|--- .... ....
....|..|--- .... ....|--- .... ....|A#4 2F77 ....
....|..|R-- .... ....|R-- .... ....|--- .... ....
....|..|--- .... ....|G-5 2F.7 ....|G-4 2F5F ....
....|..|--- .... ....|R-- .... ....|--- .... ....
....|..|G-4 2F2A ....|E-5 2F.7 ....|G-4 2F5F ....
....|..|D#4 2F5A ....|--- .... ....|--- .... ....
....|..|--- .... ....|--- .... ....|B-4 2F2F ....
....|..|R-- .... ....|R-- .... ....|--- .... ....
....|..|--- .... ....|D#5 2F.7 ....|G-4 2F5F ....
....|..|--- .... ....|--- .... ....|--- .... ....
....|..|G-4 2F27 ....|--- .... ....|G-4 2F5F ....
....|..|D#4 2F57 ....|--- .... ....|--- .... ....
....|..|--- .... ....|--- .... ....|G-4 2F5F ....
....|..|--- .... ....|--- .... ....|--- .... ....
....|..|--- .... ....|--- .... ....|B-4 2F2F ....
....|..|--- .... ....|--- .... ....|--- .... ....
....|..|--- .... ....|--- .... ....|G-4 2F5F ....
....|..|--- .... ....|--- .... ....|--- .... ....
....|..|--- .... ....|R-- .... ....|G-4 2F5F ....
....|..|--- .... ....|--- .... ....|--- .... ....
....|..|--- .... ....|--- .... ....|G-4 2F5F ....
....|..|--- .... ....|--- .... ....|--- .... ....
....|..|--- .... ....|B-4 2F.F ....|G-4 2F5F ....
....|..|--- .... ....|R-- .... ....|--- .... ....
....|..|--- .... ....|D#5 2F.F ....|G-4 2F5F ....
....|..|--- .... ....|--- .... ....|--- .... ....
....|..|--- .... ....|--- .... ....|G-4 2F5F ....
....|..|R-- .... ....|--- .... ....|--- .... ....
....|..|--- .... ....|B-4 2F.A ....|G-4 2F5F ....
....|..|--- .... ....|R-- .... ....|--- .... ....

[Pattern30]
....|..|G#4 2F4F ....|E-5 2F.F ....|G#4 2F4F ....
....|..|E-4 2F6F ....|--- .... ....|--- .... ....
....|..|--- .... ....|--- .... ....|G-4 2F57 ....
....|..|R-- .... ....|--- .... ....|--- .... ....
....|..|--- .... ....|B-4 2F.7 ....|G#4 2F4F ....
....|..|--- .... ....|R-- .... ....|--- .... ....
....|..|G#4 2F4A ....|D#5 2F.7 ....|G#4 2F4F ....
....|..|E-4 2F6A ....|--- .... ....|--- .... ....
....|..|--- .... ....|--- .... ....|E-5 2F.F ....
....|..|R-- .... ....|--- .... ....|--- .... ....
....|..|--- .... ....|--- .... ....|G#4 2F4F ....
....|..|--- .... ....|--- .... ....|--- .... ....
....|..|G#4 2F47 ....|E-5 2F.7 ....|G#4 2F4F ....
....|..|E-4 2F67 ....|--- .... ....|--- .... ....
....|..|--- .... ....|--- .... ....|G#4 2F4F ....
....|..|--- .... ....|--- .... ....|--- .... ....
....|..|--- .... ....|--- .... ....|E-5 2F.F ....
....|..|--- .... ....|--- .... ....|--- .... ....
....|..|--- .... ....|--- .... ....|G#4 2F4F ....
....|..|--- .... ....|--- .... ....|--- .... ....
....|..|--- .... ....|--- .... ....|G#4 2F4F ....
....|..|--- .... ....|--- .... ....|--- .... ....
....|..|--- .... ....|--- .... ....|G#4 2F4F ....
....|..|--- .... ....|--- .... ....|--- .... ....
....|..|--- .... ....|--- .... ....|G#4 2F4F ....
....|..|--- .... ....|--- .... ....|--- .... ....
....|..|--- .... ....|--- .... ....|G#4 2F4F ....
....|..|--- .... ....|R-- .... ....|--- .... ....
....|..|--- .... ....|D#5 2F.F ....|G#4 2F4F ....
....|..|R-- .... ....|R-- .... ....|--- .... ....
....|..|--- .... ....|D#5 2F.F ....|G#4 2F4F ....
....|..|--- .... ....|R-- .... ....|--- .... ....
....|..|E-4 2F2F ....|D#5 2F.F ....|C#4 2F4F ....
....|..|C#4 2F1F ....|R-- .... ....|--- .... ....
....|..|--- .... ....|C#5 2F.F ....|G#4 2F47 ....
....|..|R-- .... ....|R-- .... ....|--- .... ....
....|..|--- .... ....|C#5 2F.F ....|C#4 2F4F ....
....|..|--- .... ....|R-- .... ....|--- .... ....
....|..|E-4 2F2A ....|D#5 2F.A ....|C#4 2F4F ....
....|..|C#4 2F1A ....|R-- .... ....|--- .... ....
....|..|--- .... ....|D#5 2F.7 ....|C#4 2F4F ....
....|..|R-- .... ....|R-- .... ....|--- .... ....
....|..|--- .... ....|D#5 2F.7 ....|C#4 2F4F ....
....|..|--- .... ....|R-- .... ....|--- .... ....
....|..|E-4 2F27 ....|D#5 2F.7 ....|C#4 2F4F ....
....|..|C#4 2F17 ....|--- .... ....|--- .... ....
....|..|--- .... ....|C#5 2F.7 ....|C#4 2F4F ....
....|..|--- .... ....|R-- .... ....|--- .... ....
....|..|--- .... ....|C#5 2F.7 ....|C#4 2F4F ....
....|..|--- .... ....|--- .... ....|--- .... ....
....|..|--- .... ....|--- .... ....|C#4 2F4F ....
....|..|--- .... ....|--- .... ....|--- .... ....
....|..|--- .... ....|--- .... ....|C#4 2F4F ....
....|..|--- .... ....|--- .... ....|--- .... ....
....|..|--- .... ....|--- .... ....|C#4 2F4F ....
....|..|--- .... ....|--- .... ....|--- .... ....
....|..|--- .... ....|--- .... ....|C#4 2F4F ....
....|..|--- .... ....|--- .... ....|--- .... ....
....|..|--- .... ....|--- .... ....|C#4 2F4F ....
....|..|--- .... ....|--- .... ....|--- .... ....
....|..|--- .... ....|--- .... ....|C#4 2F4F ....
....|..|R-- .... ....|--- .... ....|--- .... ....
....|..|--- .... ....|--- .... ....|C#4 2F4F ....
....|..|--- .... ....|--- .... ....|--- .... ....

[Pattern31]
....|..|A#4 2F.F ....|--- .... ....|A#4 2F7F ....
....|..|C#4 2F4F ....|--- .... ....|--- .... ....
....|..|--- .... ....|R-- .... ....|C#4 2F47 ....
....|..|R-- .... ....|--- .... ....|--- .... ....
....|..|--- .... ....|--- .... ....|A#4 2F7F ....
....|..|--- .... ....|--- .... ....|--- .... ....
....|..|A#4 2F.A ....|--- .... ....|A#4 2F7F ....
....|..|C#4 2F4A ....|--- .... ....|--- .... ....
....|..|--- .... ....|B-4 2F.F ....|C#4 2F4F ....
....|..|R-- .... ....|--- .... ....|--- .... ....
....|..|--- .... ....|--- .... ....|A#4 2F7F ....
....|..|--- .... ....|R-- .... ....|--- .... ....
....|..|A#4 2F.7 ....|C#5 2F.F ....|A#4 2F7F ....
....|..|C#4 2F47 ....|--- .... ....|--- .... ....
....|..|--- .... ....|B-4 2F.A ....|A#4 2F7F ....
....|..|--- .... ....|R-- .... ....|--- .... ....
....|..|--- .... ....|B-5 2F.F ....|C#4 2F4F ....
....|..|--- .... ....|R-- .... ....|--- .... ....
....|..|--- .... ....|C#5 2F.A ....|A#4 2F7F ....
....|..|--- .... ....|--- .... ....|--- .... ....
....|..|--- .... ....|B-5 2F.F ....|A#4 2F7F ....
....|..|--- .... ....|R-- .... ....|--- .... ....
....|..|--- .... ....|B-5 2F.A ....|A#4 2F7F ....
....|..|--- .... ....|R-- .... ....|--- .... ....
....|..|--- .... ....|A#5 2F.F ....|A#4 2F7F ....
....|..|--- .... ....|R-- .... ....|--- .... ....
....|..|--- .... ....|G#5 2F.F ....|A#4 2F7F ....
....|..|--- .... ....|R-- .... ....|--- .... ....
....|..|--- .... ....|B-5 2F.7 ....|A#4 2F7F ....
....|..|R-- .... ....|--- .... ....|--- .... ....
....|..|--- .... ....|A#5 2F.A ....|A#4 2F7F ....
....|..|--- .... ....|R-- .... ....|--- .... ....
....|..|G-4 2F4F ....|A#5 2F.F ....|G-4 2F4F ....
....|..|D#4 2F6F ....|--- .... ....|--- .... ....
....|..|--- .... ....|R-- .... ....|A#4 2F77 ....
....|..|R-- .... ....|--- .... ....|--- .... ....
....|..|--- .... ....|A#5 2F.7 ....|G-4 2F4F ....
....|..|--- .... ....|R-- .... ....|--- .... ....
....|..|G-4 2F4A ....|G#5 2F.7 ....|G-4 2F4F ....
....|..|D#4 2F6A ....|--- .... ....|--- .... ....
....|..|--- .... ....|--- .... ....|D#5 2F.F ....
....|..|R-- .... ....|--- .... ....|--- .... ....
....|..|--- .... ....|--- .... ....|G-4 2F4F ....
....|..|--- .... ....|R-- .... ....|--- .... ....
....|..|G-4 2F47 ....|A#5 2F.7 ....|G-4 2F4F ....
....|..|D#4 2F67 ....|--- .... ....|--- .... ....
....|..|--- .... ....|--- .... ....|G-4 2F4F ....
....|..|--- .... ....|R-- .... ....|--- .... ....
....|..|--- .... ....|--- .... ....|D#5 2F.F ....
....|..|--- .... ....|--- .... ....|--- .... ....
....|..|--- .... ....|--- .... ....|G-4 2F4F ....
....|..|--- .... ....|--- .... ....|--- .... ....
....|..|--- .... ....|E-5 2F.F ....|G-4 2F4F ....
....|..|--- .... ....|R-- .... ....|--- .... ....
....|..|--- .... ....|--- .... ....|G-4 2F4F ....
....|..|--- .... ....|R-- .... ....|--- .... ....
....|..|--- .... ....|G#5 2F.F ....|G-4 2F4F ....
....|..|--- .... ....|--- .... ....|--- .... ....
....|..|--- .... ....|E-5 2F.A ....|G-4 2F4F ....
....|..|--- .... ....|R-- .... ....|--- .... ....
....|..|--- .... ....|A#5 2F.F ....|G-4 2F4F ....
....|..|R-- .... ....|R-- .... ....|--- .... ....
....|..|--- .... ....|G#5 2F.A ....|G-4 2F4F ....
....|..|--- .... ....|--- .... ....|--- .... ....

[Pattern32]
....|..|D#4 2F.F ....|E-5 2F.7 ....|G-4 2F4F ....
....|..|--- .... ....|R-- .... ....|--- .... ....
....|..|--- .... ....|A#5 2F.A ....|G-4 2F47 ....
....|..|R-- .... ....|R-- .... ....|--- .... ....
....|..|--- .... ....|B-5 2F.F ....|G-4 2F4F ....
....|..|--- .... ....|--- .... ....|--- .... ....
....|..|E-4 2F.F ....|--- .... ....|G-4 2F4F ....
....|..|--- .... ....|R-- .... ....|--- .... ....
....|..|--- .... ....|A#5 2F.7 ....|D#5 2F.F ....
....|..|R-- .... ....|R-- .... ....|--- .... ....
....|..|--- .... ....|B-5 2F.A ....|G-4 2F4F ....
....|..|--- .... ....|R-- .... ....|--- .... ....
....|..|G#4 2F.F ....|A#5 2F.F ....|G-4 2F4F ....
....|..|--- .... ....|--- .... ....|--- .... ....
....|..|--- .... ....|--- .... ....|G-4 2F4F ....
....|..|--- .... ....|R-- .... ....|--- .... ....
....|..|--- .... ....|B-5 2F.7 ....|D#5 2F.F ....
....|..|--- .... ....|R-- .... ....|--- .... ....
....|..|A#4 2F.F ....|A#5 2F.A ....|G-4 2F4F ....
....|..|--- .... ....|--- .... ....|--- .... ....
....|..|--- .... ....|--- .... ....|G-4 2F4F ....
....|..|--- .... ....|--- .... ....|--- .... ....
....|..|--- .... ....|--- .... ....|G-4 2F4F ....
....|..|--- .... ....|R-- .... ....|--- .... ....
....|..|B-4 2F.F ....|A#5 2F.7 ....|G-4 2F4F ....
....|..|--- .... ....|--- .... ....|--- .... ....
....|..|R-- .... ....|--- .... ....|G-4 2F4F ....
....|..|--- .... ....|--- .... ....|--- .... ....
....|..|D#5 2F.F ....|--- .... ....|G-4 2F4F ....
....|..|--- .... ....|--- .... ....|--- .... ....
....|..|A#4 2F.7 ....|--- .... ....|G-4 2F4F ....
....|..|--- .... ....|--- .... ....|--- .... ....
....|..|E-5 2F.F ....|--- .... ....|G-4 2F4F ....
....|..|--- .... ....|--- .... ....|--- .... ....
....|..|D#5 2F.A ....|--- .... ....|G-4 2F47 ....
....|..|--- .... ....|--- .... ....|--- .... ....
....|..|B-4 2F.7 ....|--- .... ....|G-4 2F4F ....
....|..|--- .... ....|--- .... ....|--- .... ....
....|..|G#5 2F.F ....|--- .... ....|G-4 2F4F ....
....|..|--- .... ....|--- .... ....|--- .... ....
....|..|D#5 2F.7 ....|--- .... ....|D#5 2F.F ....
....|..|--- .... ....|--- .... ....|--- .... ....
....|..|R-- .... ....|--- .... ....|G-4 2F4F ....
....|..|--- .... ....|--- .... ....|--- .... ....
....|..|A#5 2F.F ....|--- .... ....|G-4 2F4F ....
....|..|--- .... ....|--- .... ....|--- .... ....
....|..|--- .... ....|--- .... ....|G-4 2F4F ....
....|..|--- .... ....|--- .... ....|--- .... ....
....|..|--- .... ....|--- .... ....|D#5 2F.F ....
....|..|--- .... ....|--- .... ....|--- .... ....
....|..|B-5 2F.F ....|R-- .... ....|G-4 2F4F ....
....|..|--- .... ....|--- .... ....|--- .... ....
....|..|--- .... ....|--- .... ....|G-4 2F4F ....
....|..|--- .... ....|--- .... ....|--- .... ....
....|..|--- .... ....|--- .... ....|G-4 2F4F ....
....|..|--- .... ....|--- .... ....|--- .... ....
....|..|D#6 2F.F ....|R-- .... ....|G-4 2F4F ....
....|..|--- .... ....|--- .... ....|--- .... ....
....|..|R-- .... ....|--- .... ....|G-4 2F4F ....
....|..|--- .... ....|--- .... ....|--- .... ....
....|..|E-6 2F.F ....|--- .... ....|G-4 2F4F ....
....|..|--- .... ....|--- .... ....|--- .... ....
....|..|B-5 2F.7 ....|R-- .... ....|G-4 2F4F ....
....|..|--- .... ....|--- .... ....|--- .... ....

[Pattern33]
....|..|E-6 2F.F ....|--- .... ....|B-3 2F.F ....
....|..|--- .... ....|--- .... ....|E-4 2F2F ....
....|..|E-6 2F.A ....|--- .... ....|E-4 2F6F ....
....|..|--- .... ....|--- .... ....|--- .... ....
....|..|D#6 2F.7 ....|--- .... ....|G-4 2F47 ....
....|..|--- .... ....|--- .... ....|--- .... ....
....|..|E-6 2F.A ....|--- .... ....|G-4 2F47 ....
....|..|--- .... ....|--- .... ....|E-4 2F2A ....
....|..|E-6 2F.7 ....|G#5 2F.F ....|G-4 2F47 ....
....|..|--- .... ....|--- .... ....|--- .... ....
....|..|R-- .... ....|--- .... ....|G-4 2F47 ....
....|..|--- .... ....|--- .... ....|--- .... ....
....|..|E-6 2F.7 ....|G-5 2F.F ....|B-3 2F.7 ....
....|..|--- .... ....|--- .... ....|E-4 2F27 ....
....|..|--- .... ....|G#5 2F.A ....|E-4 2F67 ....
....|..|--- .... ....|R-- .... ....|--- .... ....
....|..|--- .... ....|G#5 2F.F ....|--- .... ....
....|..|--- .... ....|--- .... ....|--- .... ....
....|..|--- .... ....|G-5 2F.A ....|--- .... ....
....|..|--- .... ....|--- .... ....|--- .... ....
....|..|--- .... ....|G-5 2F.F ....|--- .... ....
....|..|--- .... ....|R-- .... ....|--- .... ....
....|..|--- .... ....|G#5 2F.A ....|--- .... ....
....|..|--- .... ....|--- .... ....|--- .... ....
....|..|--- .... ....|D#5 2F.F ....|--- .... ....
....|..|--- .... ....|--- .... ....|--- .... ....
....|..|--- .... ....|G-5 2F.A ....|--- .... ....
....|..|--- .... ....|R-- .... ....|--- .... ....
....|..|--- .... ....|B-4 2F.F ....|--- .... ....
....|..|--- .... ....|--- .... ....|--- .... ....
....|..|--- .... ....|D#5 2F.A ....|E-4 2F.F ....
....|..|--- .... ....|--- .... ....|R-- .... ....
....|..|E-4 2F2F ....|D#5 2F.F ....|C#4 2F4F ....
....|..|E-4 2F2F ....|--- .... ....|E-4 2F2F ....
....|..|--- .... ....|B-4 2F.A ....|--- .... ....
....|..|--- .... ....|--- .... ....|--- .... ....
....|..|--- .... ....|E-5 2F.F ....|E-4 2F.A ....
....|..|--- .... ....|--- .... ....|R-- .... ....
....|..|E-4 2F2A ....|D#5 2F.A ....|C#4 2F4A ....
....|..|E-4 2F2A ....|--- .... ....|E-4 2F2A ....
....|..|--- .... ....|B-4 2F.7 ....|--- .... ....
....|..|--- .... ....|--- .... ....|--- .... ....
....|..|--- .... ....|E-5 2F.A ....|E-4 2F.7 ....
....|..|--- .... ....|R-- .... ....|R-- .... ....
....|..|E-4 2F27 ....|E-5 2F.F ....|C#4 2F47 ....
....|..|E-4 2F27 ....|--- .... ....|E-4 2F27 ....
....|..|--- .... ....|--- .... ....|--- .... ....
....|..|--- .... ....|--- .... ....|--- .... ....
....|..|--- .... ....|E-5 2F.7 ....|--- .... ....
....|..|--- .... ....|R-- .... ....|--- .... ....
....|..|--- .... ....|E-5 2F.A ....|--- .... ....
....|..|--- .... ....|--- .... ....|--- .... ....
....|..|--- .... ....|--- .... ....|--- .... ....
....|..|--- .... ....|--- .... ....|--- .... ....
....|..|--- .... ....|--- .... ....|--- .... ....
....|..|--- .... ....|R-- .... ....|--- .... ....
....|..|--- .... ....|E-5 2F.7 ....|--- .... ....
....|..|--- .... ....|--- .... ....|--- .... ....
....|..|--- .... ....|--- .... ....|--- .... ....
....|..|--- .... ....|--- .... ....|--- .... ....
....|..|--- .... ....|--- .... ....|--- .... ....
....|..|R-- .... ....|R-- .... ....|--- .... ....
....|..|--- .... ....|--- .... ....|C#4 2F.F ....
....|..|--- .... ....|--- .... ....|R-- .... ....

[Pattern34]
....|..|E-4 2F2F ....|--- .... ....|B-3 2F.F ....
....|..|E-4 2F6F ....|--- .... ....|E-4 2F2F ....
....|..|--- .... ....|--- .... ....|E-4 2F6F ....
....|..|R-- .... ....|R-- .... ....|--- .... ....
....|..|--- .... ....|--- .... ....|C#4 2F.A ....
....|..|--- .... ....|--- .... ....|R-- .... ....
....|..|E-4 2F2A ....|--- .... ....|B-3 2F.A ....
....|..|E-4 2F6A ....|--- .... ....|E-4 2F2A ....
....|..|--- .... ....|G#5 2F.F ....|E-4 2F6A ....
....|..|R-- .... ....|R-- .... ....|--- .... ....
....|..|--- .... ....|--- .... ....|C#4 2F.7 ....
....|..|--- .... ....|--- .... ....|R-- .... ....
....|..|E-4 2F27 ....|G-5 2F.F ....|B-3 2F.7 ....
....|..|E-4 2F67 ....|R-- .... ....|E-4 2F27 ....
....|..|--- .... ....|G#5 2F.F ....|E-4 2F67 ....
....|..|--- .... ....|--- .... ....|--- .... ....
....|..|--- .... ....|--- .... ....|--- .... ....
....|..|--- .... ....|--- .... ....|--- .... ....
....|..|--- .... ....|G-5 2F.A ....|--- .... ....
....|..|--- .... ....|R-- .... ....|--- .... ....
....|..|--- .... ....|G-5 2F.F ....|--- .... ....
....|..|--- .... ....|--- .... ....|--- .... ....
....|..|--- .... ....|--- .... ....|--- .... ....
....|..|--- .... ....|--- .... ....|--- .... ....
....|..|--- .... ....|D#5 2F.F ....|--- .... ....
....|..|--- .... ....|R-- .... ....|--- .... ....
....|..|--- .... ....|G#5 2F.7 ....|--- .... ....
....|..|--- .... ....|--- .... ....|--- .... ....
....|..|--- .... ....|B-4 2F.F ....|--- .... ....
....|..|R-- .... ....|--- .... ....|--- .... ....
....|..|--- .... ....|D#5 2F.A ....|E-4 2F.F ....
....|..|--- .... ....|R-- .... ....|R-- .... ....
....|..|E-4 2F2F ....|D#5 2F.F ....|C#4 2F4F ....
....|..|E-4 2F2F ....|--- .... ....|E-4 2F2F ....
....|..|--- .... ....|B-4 2F.A ....|--- .... ....
....|..|R-- .... ....|--- .... ....|--- .... ....
....|..|--- .... ....|E-5 2F.F ....|E-4 2F.A ....
....|..|--- .... ....|R-- .... ....|R-- .... ....
....|..|E-4 2F2A ....|D#5 2F.A ....|C#4 2F4A ....
....|..|E-4 2F2A ....|--- .... ....|E-4 2F2A ....
....|..|--- .... ....|B-4 2F.7 ....|--- .... ....
....|..|R-- .... ....|--- .... ....|--- .... ....
....|..|--- .... ....|E-5 2F.A ....|E-4 2F.7 ....
....|..|--- .... ....|R-- .... ....|R-- .... ....
....|..|E-4 2F27 ....|E-5 2F.F ....|C#4 2F47 ....
....|..|E-4 2F27 ....|--- .... ....|E-4 2F27 ....
....|..|--- .... ....|--- .... ....|--- .... ....
....|..|--- .... ....|--- .... ....|--- .... ....
....|..|--- .... ....|E-5 2F.7 ....|--- .... ....
....|..|--- .... ....|R-- .... ....|--- .... ....
....|..|--- .... ....|E-5 2F.A ....|--- .... ....
....|..|--- .... ....|--- .... ....|--- .... ....
....|..|--- .... ....|--- .... ....|--- .... ....
....|..|--- .... ....|--- .... ....|--- .... ....
....|..|--- .... ....|--- .... ....|--- .... ....
....|..|--- .... ....|R-- .... ....|--- .... ....
....|..|--- .... ....|E-5 2F.7 ....|--- .... ....
....|..|--- .... ....|--- .... ....|--- .... ....
....|..|--- .... ....|--- .... ....|--- .... ....
....|..|--- .... ....|--- .... ....|--- .... ....
....|..|--- .... ....|--- .... ....|--- .... ....
....|..|R-- .... ....|R-- .... ....|--- .... ....
....|..|--- .... ....|--- .... ....|C#4 2F.F ....
....|..|--- .... ....|--- .... ....|R-- .... ....

[Pattern35]
....|..|C#5 2F.F ....|--- .... ....|C#4 2F4F ....
....|..|E-4 2F2F ....|--- .... ....|--- .... ....
....|..|--- .... ....|--- .... ....|--- .... ....
....|..|R-- .... ....|R-- .... ....|--- .... ....
....|..|--- .... ....|--- .... ....|C#4 2F4F ....
....|..|--- .... ....|--- .... ....|R-- .... ....
....|..|C#5 2F.A ....|--- .... ....|C#4 2F4F ....
....|..|E-4 2F2A ....|--- .... ....|--- .... ....
....|..|--- .... ....|E-5 2F.F ....|C#4 2F4F ....
....|..|R-- .... ....|R-- .... ....|--- .... ....
....|..|--- .... ....|--- .... ....|C#4 2F4F ....
....|..|--- .... ....|R-- .... ....|R-- .... ....
....|..|C#5 2F.7 ....|G-5 2F.F ....|C#4 2F4F ....
....|..|E-4 2F27 ....|--- .... ....|--- .... ....
....|..|--- .... ....|E-5 2F.A ....|C#4 2F4F ....
....|..|--- .... ....|R-- .... ....|--- .... ....
....|..|--- .... ....|G#5 2F.F ....|C#4 2F4F ....
....|..|--- .... ....|R-- .... ....|--- .... ....
....|..|--- .... ....|G-5 2F.A ....|C#4 2F4F ....
....|..|--- .... ....|--- .... ....|--- .... ....
....|..|--- .... ....|G-5 2F.F ....|C#4 2F4F ....
....|..|--- .... ....|R-- .... ....|--- .... ....
....|..|--- .... ....|E-5 2F.F ....|C#4 2F4F ....
....|..|--- .... ....|R-- .... ....|--- .... ....
....|..|--- .... ....|G-5 2F.7 ....|C#4 2F4F ....
....|..|--- .... ....|--- .... ....|--- .... ....
....|..|--- .... ....|G-5 2F.A ....|C#4 2F4F ....
....|..|--- .... ....|R-- .... ....|--- .... ....
....|..|--- .... ....|G#5 2F.7 ....|C#4 2F4F ....
....|..|R-- .... ....|--- .... ....|--- .... ....
....|..|--- .... ....|R-- .... ....|C#4 2F4F ....
....|..|--- .... ....|--- .... ....|--- .... ....
....|..|A#4 2F4F ....|G-5 2F.7 ....|A#4 2F7F ....
....|..|A#4 2F4F ....|R-- .... ....|--- .... ....
....|..|--- .... ....|E-5 2F.7 ....|C#4 2F47 ....
....|..|R-- .... ....|--- .... ....|--- .... ....
....|..|--- .... ....|R-- .... ....|A#4 2F7F ....
....|..|--- .... ....|--- .... ....|--- .... ....
....|..|A#4 2F4A ....|--- .... ....|A#4 2F7F ....
....|..|A#4 2F4A ....|--- .... ....|--- .... ....
....|..|--- .... ....|G-5 2F.F ....|C#4 2F4F ....
....|..|R-- .... ....|--- .... ....|--- .... ....
....|..|--- .... ....|R-- .... ....|A#4 2F7F ....
....|..|--- .... ....|--- .... ....|--- .... ....
....|..|A#4 2F47 ....|G#5 2F.F ....|A#4 2F7F ....
....|..|A#4 2F47 ....|R-- .... ....|--- .... ....
....|..|--- .... ....|A#5 2F.F ....|A#4 2F7F ....
....|..|--- .... ....|--- .... ....|--- .... ....
....|..|--- .... ....|--- .... ....|C#4 2F4F ....
....|..|--- .... ....|--- .... ....|--- .... ....
....|..|--- .... ....|G#5 2F.A ....|A#4 2F7F ....
....|..|--- .... ....|R-- .... ....|--- .... ....
....|..|--- .... ....|G#5 2F.F ....|A#4 2F7F ....
....|..|--- .... ....|--- .... ....|--- .... ....
....|..|--- .... ....|--- .... ....|A#4 2F7F ....
....|..|--- .... ....|--- .... ....|--- .... ....
....|..|--- .... ....|G-5 2F.F ....|A#4 2F7F ....
....|..|--- .... ....|R-- .... ....|--- .... ....
....|..|--- .... ....|E-5 2F.F ....|A#4 2F7F ....
....|..|--- .... ....|--- .... ....|--- .... ....
....|..|--- .... ....|--- .... ....|A#4 2F7F ....
....|..|R-- .... ....|R-- .... ....|--- .... ....
....|..|--- .... ....|D#5 2F.F ....|A#4 2F7F ....
....|..|--- .... ....|R-- .... ....|--- .... ....

[Pattern36]
....|..|G-4 2F2F ....|G#5 2F.7 ....|G-4 2F5F ....
....|..|D#4 2F5F ....|--- .... ....|--- .... ....
....|..|--- .... ....|--- .... ....|A#4 2F77 ....
....|..|R-- .... ....|R-- .... ....|--- .... ....
....|..|--- .... ....|G-5 2F.7 ....|G-4 2F5F ....
....|..|--- .... ....|R-- .... ....|--- .... ....
....|..|G-4 2F2A ....|E-5 2F.7 ....|G-4 2F5F ....
....|..|D#4 2F5A ....|--- .... ....|--- .... ....
....|..|--- .... ....|--- .... ....|B-4 2F2F ....
....|..|R-- .... ....|R-- .... ....|--- .... ....
....|..|--- .... ....|D#5 2F.7 ....|G-4 2F5F ....
....|..|--- .... ....|--- .... ....|--- .... ....
....|..|G-4 2F27 ....|--- .... ....|G-4 2F5F ....
....|..|D#4 2F57 ....|--- .... ....|--- .... ....
....|..|--- .... ....|--- .... ....|G-4 2F5F ....
....|..|--- .... ....|--- .... ....|--- .... ....
....|..|--- .... ....|--- .... ....|B-4 2F2F ....
....|..|--- .... ....|--- .... ....|--- .... ....
....|..|--- .... ....|--- .... ....|G-4 2F5F ....
....|..|--- .... ....|R-- .... ....|--- .... ....
....|..|--- .... ....|--- .... ....|G-4 2F5F ....
....|..|--- .... ....|--- .... ....|--- .... ....
....|..|--- .... ....|--- .... ....|G-4 2F5F ....
....|..|--- .... ....|--- .... ....|--- .... ....
....|..|--- .... ....|B-4 2F.F ....|G-4 2F5F ....
....|..|--- .... ....|R-- .... ....|--- .... ....
....|..|--- .... ....|D#5 2F.F ....|G-4 2F5F ....
....|..|--- .... ....|--- .... ....|--- .... ....
....|..|--- .... ....|--- .... ....|G-4 2F5F ....
....|..|R-- .... ....|--- .... ....|--- .... ....
....|..|--- .... ....|B-4 2F.A ....|G-4 2F5F ....
....|..|--- .... ....|R-- .... ....|--- .... ....
....|..|G#4 2F4F ....|E-5 2F.F ....|G#4 2F4F ....
....|..|E-4 2F6F ....|--- .... ....|--- .... ....
....|..|--- .... ....|--- .... ....|G-4 2F57 ....
....|..|R-- .... ....|--- .... ....|--- .... ....
....|..|--- .... ....|B-4 2F.7 ....|G#4 2F4F ....
....|..|--- .... ....|R-- .... ....|--- .... ....
....|..|G#4 2F4A ....|D#5 2F.7 ....|G#4 2F4F ....
....|..|E-4 2F6A ....|--- .... ....|--- .... ....
....|..|--- .... ....|--- .... ....|E-5 2F.F ....
....|..|R-- .... ....|--- .... ....|--- .... ....
....|..|--- .... ....|R-- .... ....|G#4 2F4F ....
....|..|--- .... ....|--- .... ....|--- .... ....
....|..|G#4 2F47 ....|E-5 2F.7 ....|G#4 2F4F ....
....|..|E-4 2F67 ....|--- .... ....|--- .... ....
....|..|--- .... ....|--- .... ....|G#4 2F4F ....
....|..|--- .... ....|--- .... ....|--- .... ....
....|..|--- .... ....|--- .... ....|E-5 2F.F ....
....|..|--- .... ....|--- .... ....|--- .... ....
....|..|--- .... ....|--- .... ....|G#4 2F4F ....
....|..|--- .... ....|--- .... ....|--- .... ....
....|..|--- .... ....|--- .... ....|G#4 2F4F ....
....|..|--- .... ....|--- .... ....|--- .... ....
....|..|--- .... ....|--- .... ....|G#4 2F4F ....
....|..|--- .... ....|R-- .... ....|--- .... ....
....|..|--- .... ....|--- .... ....|G#4 2F4F ....
....|..|--- .... ....|--- .... ....|--- .... ....
....|..|--- .... ....|--- .... ....|G#4 2F4F ....
....|..|--- .... ....|--- .... ....|--- .... ....
....|..|--- .... ....|D#5 2F.F ....|G#4 2F4F ....
....|..|R-- .... ....|R-- .... ....|--- .... ....
....|..|--- .... ....|D#5 2F.F ....|G#4 2F4F ....
....|..|--- .... ....|R-- .... ....|--- .... ....

[Pattern37]
....|..|E-4 2F2F ....|D#5 2F.F ....|C#4 2F4F ....
....|..|C#4 2F1F ....|--- .... ....|--- .... ....
....|..|--- .... ....|C#5 2F.F ....|G#4 2F47 ....
....|..|R-- .... ....|R-- .... ....|--- .... ....
....|..|--- .... ....|C#5 2F.F ....|C#4 2F4F ....
....|..|--- .... ....|R-- .... ....|--- .... ....
....|..|E-4 2F2A ....|D#5 2F.A ....|C#4 2F4F ....
....|..|C#4 2F1A ....|--- .... ....|--- .... ....
....|..|--- .... ....|D#5 2F.7 ....|C#4 2F4F ....
....|..|R-- .... ....|R-- .... ....|--- .... ....
....|..|--- .... ....|D#5 2F.7 ....|C#4 2F4F ....
....|..|--- .... ....|R-- .... ....|--- .... ....
....|..|E-4 2F27 ....|D#5 2F.7 ....|C#4 2F4F ....
....|..|C#4 2F17 ....|--- .... ....|--- .... ....
....|..|--- .... ....|C#5 2F.7 ....|C#4 2F4F ....
....|..|--- .... ....|R-- .... ....|--- .... ....
....|..|--- .... ....|C#5 2F.7 ....|C#4 2F4F ....
....|..|--- .... ....|--- .... ....|--- .... ....
....|..|--- .... ....|--- .... ....|C#4 2F4F ....
....|..|--- .... ....|--- .... ....|--- .... ....
....|..|--- .... ....|--- .... ....|C#4 2F4F ....
....|..|--- .... ....|--- .... ....|--- .... ....
....|..|--- .... ....|--- .... ....|C#4 2F4F ....
....|..|--- .... ....|--- .... ....|--- .... ....
....|..|--- .... ....|--- .... ....|C#4 2F4F ....
....|..|--- .... ....|--- .... ....|--- .... ....
....|..|--- .... ....|--- .... ....|C#4 2F4F ....
....|..|--- .... ....|--- .... ....|--- .... ....
....|..|--- .... ....|--- .... ....|C#4 2F4F ....
....|..|R-- .... ....|--- .... ....|--- .... ....
....|..|--- .... ....|--- .... ....|C#4 2F4F ....
....|..|--- .... ....|R-- .... ....|--- .... ....
....|..|A#4 2F.F ....|--- .... ....|A#4 2F7F ....
....|..|C#4 2F4F ....|--- .... ....|--- .... ....
....|..|--- .... ....|--- .... ....|C#4 2F47 ....
....|..|R-- .... ....|--- .... ....|--- .... ....
....|..|--- .... ....|--- .... ....|A#4 2F7F ....
....|..|--- .... ....|R-- .... ....|--- .... ....
....|..|A#4 2F.A ....|--- .... ....|A#4 2F7F ....
....|..|C#4 2F4A ....|--- .... ....|--- .... ....
....|..|--- .... ....|B-4 2F.F ....|C#4 2F4F ....
....|..|R-- .... ....|--- .... ....|--- .... ....
....|..|--- .... ....|--- .... ....|A#4 2F7F ....
....|..|--- .... ....|R-- .... ....|--- .... ....
....|..|A#4 2F.7 ....|C#5 2F.F ....|A#4 2F7F ....
....|..|C#4 2F47 ....|--- .... ....|--- .... ....
....|..|--- .... ....|B-4 2F.A ....|A#4 2F7F ....
....|..|--- .... ....|R-- .... ....|--- .... ....
....|..|--- .... ....|B-5 2F.F ....|C#4 2F4F ....
....|..|--- .... ....|R-- .... ....|--- .... ....
....|..|--- .... ....|C#5 2F.A ....|A#4 2F7F ....
....|..|--- .... ....|--- .... ....|--- .... ....
....|..|--- .... ....|B-5 2F.F ....|A#4 2F7F ....
....|..|--- .... ....|R-- .... ....|--- .... ....
....|..|--- .... ....|B-5 2F.A ....|A#4 2F7F ....
....|..|--- .... ....|R-- .... ....|--- .... ....
....|..|--- .... ....|A#5 2F.F ....|A#4 2F7F ....
....|..|--- .... ....|R-- .... ....|--- .... ....
....|..|--- .... ....|G#5 2F.F ....|A#4 2F7F ....
....|..|--- .... ....|R-- .... ....|--- .... ....
....|..|--- .... ....|B-5 2F.7 ....|A#4 2F7F ....
....|..|R-- .... ....|--- .... ....|--- .... ....
....|..|--- .... ....|A#5 2F.A ....|A#4 2F7F ....
....|..|--- .... ....|R-- .... ....|--- .... ....

[Pattern38]
....|..|A#4 2F.F ....|A#5 2F.F ....|G-4 2F4F ....
....|..|--- .... ....|R-- .... ....|--- .... ....
....|..|--- .... ....|--- .... ....|A#4 2F77 ....
....|..|R-- .... ....|--- .... ....|--- .... ....
....|..|A#4 2F4F ....|A#5 2F.7 ....|G-4 2F4F ....
....|..|--- .... ....|R-- .... ....|--- .... ....
....|..|A#4 2F.A ....|G#5 2F.7 ....|G-4 2F4F ....
....|..|--- .... ....|--- .... ....|--- .... ....
....|..|A#4 2F7F ....|--- .... ....|D#5 2F.F ....
....|..|R-- .... ....|--- .... ....|--- .... ....
....|..|A#4 2F4A ....|--- .... ....|G-4 2F4F ....
....|..|--- .... ....|R-- .... ....|--- .... ....
....|..|C#4 2F9F ....|A#5 2F.7 ....|G-4 2F4F ....
....|..|--- .... ....|--- .... ....|--- .... ....
....|..|A#4 2F7A ....|--- .... ....|G-4 2F4F ....
....|..|R-- .... ....|--- .... ....|--- .... ....
....|..|D#5 2F.F ....|B-5 2F.F ....|G-4 2F4F ....
....|..|--- .... ....|--- .... ....|--- .... ....
....|..|C#4 2F9A ....|R-- .... ....|G-4 2F4F ....
....|..|--- .... ....|R-- .... ....|G-4 2F.F ....
....|..|A#4 2F4F ....|A#5 2F.F ....|G-4 2F4F ....
....|..|R-- .... ....|--- .... ....|--- .... ....
....|..|D#5 2F.A ....|B-5 2F.A ....|G-4 2F47 ....
....|..|--- .... ....|R-- .... ....|--- .... ....
....|..|C#4 2F97 ....|G#5 2F.F ....|G-4 2F47 ....
....|..|--- .... ....|R-- .... ....|G-4 2F.A ....
....|..|A#4 2F4A ....|A#5 2F.A ....|G-4 2F47 ....
....|..|R-- .... ....|R-- .... ....|--- .... ....
....|..|D#5 2F.7 ....|A#5 2F.F ....|G-4 2F47 ....
....|..|--- .... ....|R-- .... ....|--- .... ....
....|..|R-- .... ....|G#5 2F.A ....|G-4 2F47 ....
....|..|G#5 2F.F ....|R-- .... ....|G-4 2F.7 ....
....|..|A#4 2F47 ....|A#5 2F.7 ....|G#4 2F.F ....
....|..|--- .... ....|R-- .... ....|--- .... ....
....|..|--- .... ....|A#5 2F.A ....|E-4 2F2F ....
....|..|--- .... ....|R-- .... ....|--- .... ....
....|..|--- .... ....|G#5 2F.7 ....|E-4 2F2F ....
....|..|G#5 2F.A ....|G#5 2F.F ....|D#5 2F.F ....
....|..|R-- .... ....|--- .... ....|B-4 2F2F ....
....|..|--- .... ....|R-- .... ....|B-4 2F2F ....
....|..|--- .... ....|A#5 2F.7 ....|G#4 2F.F ....
....|..|--- .... ....|--- .... ....|--- .... ....
....|..|--- .... ....|--- .... ....|E-4 2F2F ....
....|..|G#5 2F.7 ....|G#5 2F.A ....|D#5 2F.A ....
....|..|R-- .... ....|--- .... ....|E-4 2F2F ....
....|..|--- .... ....|--- .... ....|D#5 2F.F ....
....|..|--- .... ....|--- .... ....|B-4 2F2F ....
....|..|--- .... ....|--- .... ....|B-4 2F2F ....
....|..|--- .... ....|--- .... ....|G#4 2F.F ....
....|..|--- .... ....|G#5 2F.7 ....|D#5 2F.7 ....
....|..|--- .... ....|--- .... ....|G#4 2F.F ....
....|..|--- .... ....|--- .... ....|B-4 2F27 ....
....|..|--- .... ....|--- .... ....|D#4 2FBF ....
....|..|--- .... ....|--- .... ....|E-4 2F.F ....
....|..|--- .... ....|--- .... ....|E-4 2F2F ....
....|..|--- .... ....|--- .... ....|G#4 2F.F ....
....|..|--- .... ....|--- .... ....|G#4 2F3F ....
....|..|--- .... ....|--- .... ....|A#4 2F.F ....
....|..|--- .... ....|--- .... ....|A#4 2F8F ....
....|..|--- .... ....|--- .... ....|B-4 2F27 ....
....|..|--- .... ....|--- .... ....|B-4 2F2F ....
....|..|--- .... ....|--- .... ....|G#4 2F.A ....
....|..|--- .... ....|--- .... ....|B-4 2F2F ....
....|..|--- .... ....|--- .... ....|B-4 2F.F ....

[Pattern39]
....|..|--- .... ....|--- .... ....|G#4 2F.F ....
....|..|--- .... ....|--- .... ....|E-4 2F.7 ....
....|..|--- .... ....|--- .... ....|E-4 2F2F ....
....|..|--- .... ....|--- .... ....|G#4 2F.7 ....
....|..|--- .... ....|--- .... ....|E-4 2FAF ....
....|..|--- .... ....|--- .... ....|A#4 2F.F ....
....|..|--- .... ....|--- .... ....|A#4 2F4F ....
....|..|--- .... ....|--- .... ....|A#4 2F4F ....
....|..|--- .... ....|--- .... ....|D#5 2F.F ....
....|..|--- .... ....|--- .... ....|--- .... ....
....|..|--- .... ....|--- .... ....|C#4 2F3F ....
....|..|--- .... ....|--- .... ....|B-4 2F.7 ....
....|..|--- .... ....|--- .... ....|A#4 2FCF ....
....|..|--- .... ....|--- .... ....|A#4 2F.F ....
....|..|--- .... ....|--- .... ....|A#4 2F4F ....
....|..|--- .... ....|--- .... ....|C#5 2F.F ....
....|..|--- .... ....|--- .... ....|D#5 2F.F ....
....|..|--- .... ....|--- .... ....|A#4 2F.7 ....
....|..|--- .... ....|--- .... ....|C#4 2F3F ....
....|..|--- .... ....|--- .... ....|A#4 2F47 ....
....|..|--- .... ....|--- .... ....|A#4 2FCF ....
....|..|--- .... ....|--- .... ....|A#4 2F.F ....
....|..|--- .... ....|--- .... ....|A#4 2F.F ....
....|..|--- .... ....|--- .... ....|E-4 2F.F ....
....|..|--- .... ....|--- .... ....|D#5 2F.F ....
....|..|--- .... ....|--- .... ....|D#5 2F.F ....
....|..|--- .... ....|--- .... ....|C#4 2F3F ....
....|..|--- .... ....|--- .... ....|C#5 2F.7 ....
....|..|--- .... ....|--- .... ....|A#4 2F4F ....
....|..|--- .... ....|--- .... ....|E-4 2F.A ....
....|..|G#5 2F.F ....|--- .... ....|A#4 2F.F ....
....|..|B-5 2F.F ....|--- .... ....|E-4 2F.F ....
....|..|G#4 2F1F ....|--- .... ....|G#4 2F.F ....
....|..|--- .... ....|--- .... ....|A#4 2F.7 ....
....|..|--- .... ....|--- .... ....|E-4 2F2F ....
....|..|--- .... ....|--- .... ....|E-4 2F.7 ....
....|..|G#5 2F.A ....|--- .... ....|E-4 2F2F ....
....|..|B-5 2F.A ....|--- .... ....|D#5 2F.F ....
....|..|G#4 2F1A ....|--- .... ....|B-4 2F2F ....
....|..|--- .... ....|--- .... ....|B-4 2F2F ....
....|..|--- .... ....|--- .... ....|G#4 2F.F ....
....|..|--- .... ....|--- .... ....|--- .... ....
....|..|G#5 2F.7 ....|--- .... ....|E-4 2F2F ....
....|..|B-5 2F.7 ....|--- .... ....|E-4 2F.7 ....
....|..|G#4 2F17 ....|--- .... ....|E-4 2F2F ....
....|..|--- .... ....|--- .... ....|D#5 2F.F ....
....|..|--- .... ....|--- .... ....|B-4 2F2F ....
....|..|--- .... ....|--- .... ....|B-4 2F2F ....
....|..|--- .... ....|--- .... ....|G#4 2F.F ....
....|..|--- .... ....|--- .... ....|D#5 2F.7 ....
....|..|--- .... ....|--- .... ....|G#4 2F.F ....
....|..|--- .... ....|--- .... ....|B-4 2F27 ....
....|..|--- .... ....|R-- .... ....|D#4 2FBF ....
....|..|--- .... ....|--- .... ....|E-4 2F.F ....
....|..|--- .... ....|--- .... ....|E-4 2F2F ....
....|..|--- .... ....|--- .... ....|G#4 2F.F ....
....|..|--- .... ....|--- .... ....|G#4 2F3F ....
....|..|--- .... ....|--- .... ....|A#4 2F.F ....
....|..|--- .... ....|R-- .... ....|A#4 2F8F ....
....|..|--- .... ....|--- .... ....|B-4 2F27 ....
....|..|--- .... ....|--- .... ....|B-4 2F2F ....
....|..|--- .... ....|--- .... ....|G#4 2F.A ....
....|..|--- .... ....|--- .... ....|B-4 2F2F ....
....|..|--- .... ....|--- .... ....|B-4 2F.F ....

[Pattern40]
....|..|--- .... ....|R-- .... ....|G#4 2F.F ....
....|..|--- .... ....|--- .... ....|E-4 2F.7 ....
....|..|--- .... ....|--- .... ....|E-4 2F2F ....
....|..|--- .... ....|--- .... ....|G#4 2F.7 ....
....|..|--- .... ....|--- .... ....|E-4 2FAF ....
....|..|--- .... ....|--- .... ....|A#4 2F.F ....
....|..|--- .... ....|--- .... ....|A#4 2F4F ....
....|..|--- .... ....|--- .... ....|A#4 2F4F ....
....|..|--- .... ....|--- .... ....|D#5 2F.F ....
....|..|--- .... ....|--- .... ....|--- .... ....
....|..|--- .... ....|--- .... ....|C#4 2F3F ....
....|..|--- .... ....|--- .... ....|B-4 2F.7 ....
....|..|--- .... ....|--- .... ....|A#4 2FCF ....
....|..|--- .... ....|--- .... ....|A#4 2F.F ....
....|..|--- .... ....|--- .... ....|A#4 2F4F ....
....|..|--- .... ....|--- .... ....|C#5 2F.F ....
....|..|--- .... ....|--- .... ....|D#5 2F.F ....
....|..|--- .... ....|--- .... ....|A#4 2F.7 ....
....|..|--- .... ....|--- .... ....|C#4 2F3F ....
....|..|--- .... ....|--- .... ....|A#4 2F47 ....
....|..|--- .... ....|--- .... ....|A#4 2FCF ....
....|..|--- .... ....|--- .... ....|A#4 2F.F ....
....|..|--- .... ....|--- .... ....|A#4 2F.F ....
....|..|--- .... ....|--- .... ....|E-4 2F.F ....
....|..|--- .... ....|--- .... ....|D#5 2F.F ....
....|..|--- .... ....|--- .... ....|D#5 2F.F ....
....|..|--- .... ....|--- .... ....|C#4 2F3F ....
....|..|--- .... ....|--- .... ....|C#5 2F.7 ....
....|..|--- .... ....|--- .... ....|A#4 2F4F ....
....|..|--- .... ....|--- .... ....|E-4 2F.A ....
....|..|R-- .... ....|--- .... ....|A#4 2F.F ....
....|..|--- .... ....|--- .... ....|E-4 2F.F ....
....|..|B-4 2F2F ....|--- .... ....|B-3 2F.F ....
....|..|G#4 2F1F ....|--- .... ....|G#4 2F4F ....
....|..|--- .... ....|--- .... ....|A#4 2F.7 ....
....|..|--- .... ....|--- .... ....|E-4 2F.7 ....
....|..|R-- .... ....|--- .... ....|D#5 2F.7 ....
....|..|--- .... ....|--- .... ....|D#5 2F.7 ....
....|..|B-4 2F2A ....|--- .... ....|C#4 2F37 ....
....|..|G#4 2F1A ....|--- .... ....|G#4 2F4A ....
....|..|--- .... ....|--- .... ....|A#4 2F47 ....
....|..|--- .... ....|--- .... ....|--- .... ....
....|..|R-- .... ....|--- .... ....|A#4 2F.7 ....
....|..|--- .... ....|--- .... ....|E-4 2F.7 ....
....|..|B-4 2F27 ....|--- .... ....|B-3 2F.7 ....
....|..|G#4 2F17 ....|--- .... ....|G#4 2F47 ....
....|..|--- .... ....|--- .... ....|--- .... ....
....|..|--- .... ....|--- .... ....|--- .... ....
....|..|--- .... ....|--- .... ....|--- .... ....
....|..|--- .... ....|--- .... ....|--- .... ....
....|..|--- .... ....|--- .... ....|--- .... ....
....|..|--- .... ....|--- .... ....|--- .... ....
....|..|--- .... ....|--- .... ....|--- .... ....
....|..|--- .... ....|--- .... ....|--- .... ....
....|..|--- .... ....|--- .... ....|--- .... ....
....|..|--- .... ....|--- .... ....|--- .... ....
....|..|--- .... ....|--- .... ....|--- .... ....
....|..|--- .... ....|--- .... ....|--- .... ....
....|..|--- .... ....|--- .... ....|--- .... ....
....|..|--- .... ....|--- .... ....|--- .... ....
....|..|--- .... ....|--- .... ....|--- .... ....
....|..|R-- .... ....|--- .... ....|--- .... ....
....|..|--- .... ....|--- .... ....|--- .... ....
....|..|--- .... ....|--- .... ....|G#4 2F4F ....

[Pattern41]
....|..|--- .... ....|--- .... ....|R-- .... ....
....|..|--- .... ....|--- .... ....|--- .... ....
....|..|--- .... ....|--- .... ....|--- .... ....
....|..|R-- .... ....|--- .... ....|--- .... ....
....|..|--- .... ....|--- .... ....|--- .... ....
....|..|--- .... ....|--- .... ....|G#4 2F4A ....
....|..|--- .... ....|--- .... ....|R-- .... ....
....|..|--- .... ....|--- .... ....|--- .... ....
....|..|--- .... ....|--- .... ....|--- .... ....
....|..|R-- .... ....|--- .... ....|--- .... ....
....|..|--- .... ....|--- .... ....|--- .... ....
....|..|--- .... ....|--- .... ....|G#4 2F47 ....
