[Module]
VortexTrackerII=0
Version=3.5
Title=2me,7p[6]-6p[3]+,9p-3p+
Author=oisee ^ 4d 29.05.2010
NoteTable=4
ChipFreq=1750000
Speed=4
PlayOrder=L0,1,2,3,4,5,6,7,8,9,10,11,12,13,14,15,16,17,18,19,20,21,22,23,24,25,26,27,28,29,30,31,32,33,34,35,36,37,38,39,40,41


[Ornament1]
L0,0,4,4

[Ornament2]
L0,0,3,3

[Ornament3]
L0,0,2,2,4,4

[Ornament4]
L0,0,2,2,3,3

[Ornament5]
L0,0,2,2

[Ornament6]
L0,0,1,1

[Ornament7]
L0,0,1,1,2,2

[Ornament8]
L0,0,1,1,4,4

[Ornament9]
L0,0,4,4,7,7

[Ornament10]
L0,0,3,3,7,7


[Sample1]
TnE +000_ +00_ F_
TnE +000_ +00_ F_
TnE +000_ +00_ F_
TnE +000_ +00_ D_
TnE +000_ +00_ B_
TnE +000_ +00_ B_ L

[Sample2]
TnE +000_ +00_ F_ L

[Sample3]
TnE +001_ +00_ F_
TnE +002_ +00_ F_
TnE +001_ +00_ E_
TnE +002_ +00_ E_
TnE +000_ +00_ E_ L
TnE -001_ +00_ E_
TnE -002_ +00_ E_
TnE -001_ +00_ E_
TnE +000_ +00_ E_
TnE +001_ +00_ E_
TnE +002_ +00_ E_
TnE +001_ +00_ E_

[Sample4]
TnE +002_ +00_ D_
TnE +002_ +00_ D_
TnE +002_ +00_ C_
TnE +002_ +00_ B_
TnE +002_ +00_ A_ L
TnE +002_ +00_ A_
TnE +002_ +00_ A_
TnE +002_ +00_ A_
TnE +002_ +00_ A_
TnE +002_ +00_ A_
TnE +002_ +00_ A_
TnE +002_ +00_ A_

[Sample5]
TnE +000_ +00_ F_
TnE +000_ +00_ F_
tne +000_ +00_ 0_ L

[Sample6]
TnE -001_ +00_ F_ L

[Sample7]
TnE +006_ +00_ F_ L

[Sample8]
tNe +000_ +00_ F_
tNe +000_ +00_ B_
tNe +000_ +00_ 7_
tNe +000_ +00_ 6- L

[Sample9]
TnE +080_ +00_ F_
TnE +100_ +00_ E_
TnE +180_ +00_ E_
TnE +200_ +00_ E_
TnE +240_ +00_ D_
TnE +280_ +00_ D_
TnE +2C0_ +00_ D_
TnE +300_ +00_ C_
TnE +300_ +00_ C_
TnE +340_ +00_ C_
TnE +340_ +00_ C_
TnE +380_ +00_ B_
TnE +380_ +00_ B_
TnE +400_ +00_ B_
TnE +400_ +00_ B_
TnE +480_ +00_ A_
TnE +500_ +00_ 9_
TnE +580_ +00_ 7_
TnE +600_ +00_ 4_
TnE +680_ +00_ 1_
TnE +000_ +00_ 0_ L

[Sample10]
Tne +1C0_ +00_ F_
Tne +280_ +00_ E_
Tne +380_ +00_ C_
Tne +440_ +00_ A_
Tne +480_ +00_ 8_
TnE +000_ +00_ 0_ L

[Sample11]
TNe +200_ -0A_ F_
tNe +000_ +0F_ A_
TNe +200_ -07_ E_
tNe +000_ +0E_ B- L

[Sample12]
TNE +0A0_ +05_ F_
TNE +140_ +02_ D_
TNE +140_ +02_ B_
TNE +100_ +00_ A_ L
TNE +140_ +00_ A_
TNE +200_ +00_ A-

[Sample13]
Tne +200_ +00_ F_
Tne +2C0_ +00_ F_
Tne +380_ +00_ E_
Tne +500_ +00_ C_
Tne +520_ +00_ 9_
tne +000_ +00_ 0_ L

[Sample14]
TNE -100_ +00_ F_
TNE -100_ +00_ D_
TNE -100_ +00_ A_
TNE -100_ +00_ 5_
tne +000_ +00_ 0_ L

[Sample15]
TNE -100_ +00_ 5_
TNE -100_ +00_ 8_
TNE -100_ +00_ B_
TNE -100_ +00_ F_
TNe -100_ +00_ 9- L

[Sample16]
TnE +000_ +00_ C_
TnE +000_ +00_ E_
TnE +000_ +00_ F_
TnE +000_ +00_ F_
TnE +000_ +00_ E_
TnE +000_ +00_ D_
TnE +000_ +00_ C_
TnE +000_ +00_ C_ L
TnE +001_ +00_ C_
TnE +002_ +00_ C_
TnE +003_ +00_ C_
TnE +001_ +00_ C_
TnE +000_ +00_ C_
TnE -001_ +00_ C_
TnE -002_ +00_ C_
TnE -003_ +00_ C_
TnE -001_ +00_ C_
TnE +000_ +00_ C_
TnE +000_ +00_ C_

[Sample17]
Tne +1C0_ +00_ F_
Tne +280_ +00_ D_
Tne +380_ +00_ 7_
TNE +000_ +00_ 0_ L

[Sample18]
TnE -00C_ +00_ 0_ L

[Sample19]
TNe +000_ +00_ F_
TNe +000_ +00_ C_
TNe +000_ +00_ 6_
TNe +000_ +01_ A- L

[Sample20]
TNE +140_ +00_ F_
tNE +000_ +00_ B- L

[Sample21]
tNE +000_ +00_ D_
tNE +000_ +00_ 8_
tNE +000_ +00_ 1_
TNE +000_ +00_ 0_ L

[Sample22]
TnE +000_ +00_ D_ L
TnE +000_ +00_ D_
tne +000_ +00_ 9_
tne +000_ +00_ 9_
TnE +000_ +00_ D_
TnE +000_ +00_ D_
tne +000_ +00_ 9_
tne +000_ +00_ 9_
TnE +000_ +00_ D_
TnE +000_ +00_ D_
TnE +000_ +00_ D_
TnE +000_ +00_ D_
TnE +000_ +00_ D_
TnE +000_ +00_ D_
tne +000_ +00_ 9_
tne +000_ +00_ 9_

[Sample23]
TnE +000_ +00_ F_ L
TnE +010_ +01_ F_
TnE +010_ +01_ F_
TnE +010_ +01_ F_
TnE +010_ +01_ F_
TnE +000_ +00_ F_
TnE +000_ +00_ F_
TnE -010_ -01_ F_
TnE -010_ -01_ F_
TnE -010_ -01_ F_
TnE -010_ -01_ F_
TnE +000_ +00_ F_

[Sample24]
TNe +000_ -01_ C_
TNe +000_ -01_ D_
TNe +000_ -01_ E_
TNe +000_ -01_ F_
TNe +000_ -01_ F_
TNe +000_ -01_ F_
TNe +000_ -01_ F_
TNe +000_ -01_ F_
TNe +000_ -01_ E_
TNe +000_ -01_ E_
TNe +000_ -01_ E_
TNe +000_ -01_ F_
TNe +000_ -01_ F_ L

[Sample25]
TNE +000_ +00_ F_
TNE +000_ +00_ F_ L
TNE +000_ +00_ F_
TNE +000_ +00_ F_
TNE +000_ +00_ F-

[Sample26]
tne +000_ +00_ 0_ L

[Sample27]
TnE +100_ +05_ F_
TnE +200_ +02_ A_
TnE +300_ +02_ 7_
TNE +400_ +00_ 3- L

[Sample28]
tne +000_ +00_ 0_ L

[Sample29]
tnE +000_ +00_ 0_ L

[Sample30]
TNE +000_ +00_ C+ L

[Sample31]
TNe +1C0_ +00_ F_
Tne +280_ +00_ E_
Tne +380_ +00_ C_
Tne +440_ +00_ A_
Tne +480_ +00_ 8_
TnE +000_ +00_ 0_ L

[Pattern0]
....|..|--- .... ....|--- .... ....|--- .... ....
....|..|--- .... ....|--- .... ....|--- .... ....
....|..|--- .... ....|--- .... ....|--- .... ....
....|..|--- .... ....|--- .... ....|--- .... ....
....|..|--- .... ....|--- .... ....|--- .... ....
....|..|--- .... ....|--- .... ....|--- .... ....
....|..|--- .... ....|--- .... ....|--- .... ....
....|..|--- .... ....|--- .... ....|--- .... ....
....|..|--- .... ....|--- .... ....|--- .... ....
....|..|--- .... ....|--- .... ....|--- .... ....
....|..|--- .... ....|--- .... ....|--- .... ....
....|..|--- .... ....|--- .... ....|--- .... ....
....|..|--- .... ....|--- .... ....|--- .... ....
....|..|--- .... ....|--- .... ....|--- .... ....
....|..|--- .... ....|--- .... ....|--- .... ....
....|..|--- .... ....|--- .... ....|--- .... ....
....|..|--- .... ....|--- .... ....|--- .... ....
....|..|--- .... ....|--- .... ....|--- .... ....
....|..|--- .... ....|--- .... ....|--- .... ....
....|..|--- .... ....|--- .... ....|--- .... ....
....|..|--- .... ....|--- .... ....|--- .... ....
....|..|--- .... ....|--- .... ....|--- .... ....
....|..|--- .... ....|--- .... ....|--- .... ....
....|..|--- .... ....|--- .... ....|--- .... ....
....|..|--- .... ....|--- .... ....|--- .... ....
....|..|--- .... ....|--- .... ....|--- .... ....
....|..|--- .... ....|--- .... ....|--- .... ....
....|..|--- .... ....|--- .... ....|--- .... ....
....|..|--- .... ....|--- .... ....|--- .... ....
....|..|--- .... ....|--- .... ....|--- .... ....
....|..|--- .... ....|--- .... ....|--- .... ....
....|..|--- .... ....|--- .... ....|--- .... ....
....|..|--- .... ....|--- .... ....|F#3 2F9F ....
....|..|--- .... ....|--- .... ....|--- .... ....
....|..|--- .... ....|--- .... ....|--- .... ....
....|..|--- .... ....|--- .... ....|--- .... ....
....|..|--- .... ....|--- .... ....|--- .... ....
....|..|--- .... ....|--- .... ....|--- .... ....
....|..|--- .... ....|--- .... ....|F#3 2F9F ....
....|..|--- .... ....|--- .... ....|--- .... ....
....|..|--- .... ....|--- .... ....|--- .... ....
....|..|--- .... ....|--- .... ....|--- .... ....
....|..|--- .... ....|--- .... ....|F#3 2F9F ....
....|..|--- .... ....|--- .... ....|--- .... ....
....|..|--- .... ....|--- .... ....|F#3 2F9F ....
....|..|--- .... ....|--- .... ....|--- .... ....
....|..|--- .... ....|--- .... ....|--- .... ....
....|..|--- .... ....|--- .... ....|--- .... ....
....|..|--- .... ....|--- .... ....|--- .... ....
....|..|--- .... ....|--- .... ....|--- .... ....
....|..|--- .... ....|--- .... ....|F#3 2F9F ....
....|..|--- .... ....|--- .... ....|--- .... ....
....|..|--- .... ....|--- .... ....|--- .... ....
....|..|--- .... ....|--- .... ....|--- .... ....
....|..|--- .... ....|--- .... ....|F#3 2F9F ....
....|..|--- .... ....|--- .... ....|--- .... ....
....|..|--- .... ....|--- .... ....|F#3 2F9F ....
....|..|--- .... ....|--- .... ....|--- .... ....
....|..|--- .... ....|--- .... ....|F#3 2F9F ....
....|..|--- .... ....|--- .... ....|--- .... ....
....|..|--- .... ....|--- .... ....|F#3 2F9F ....
....|..|--- .... ....|--- .... ....|--- .... ....
....|..|--- .... ....|--- .... ....|F#3 2F97 ....
....|..|--- .... ....|--- .... ....|--- .... ....

[Pattern1]
....|..|--- .... ....|--- .... ....|B-3 2F1F ....
....|..|--- .... ....|--- .... ....|--- .... ....
....|..|--- .... ....|--- .... ....|F#3 2F97 ....
....|..|--- .... ....|--- .... ....|--- .... ....
....|..|--- .... ....|--- .... ....|F#3 2F97 ....
....|..|--- .... ....|--- .... ....|--- .... ....
....|..|--- .... ....|--- .... ....|B-3 2F1F ....
....|..|--- .... ....|--- .... ....|--- .... ....
....|..|--- .... ....|--- .... ....|F#3 2F9A ....
....|..|--- .... ....|--- .... ....|--- .... ....
....|..|--- .... ....|--- .... ....|B-3 2F1F ....
....|..|--- .... ....|--- .... ....|--- .... ....
....|..|--- .... ....|--- .... ....|B-3 2F1F ....
....|..|--- .... ....|--- .... ....|--- .... ....
....|..|--- .... ....|--- .... ....|F#3 2F97 ....
....|..|--- .... ....|--- .... ....|--- .... ....
....|..|--- .... ....|--- .... ....|F#3 2F97 ....
....|..|--- .... ....|--- .... ....|--- .... ....
....|..|--- .... ....|--- .... ....|B-3 2F1F ....
....|..|--- .... ....|--- .... ....|--- .... ....
....|..|--- .... ....|--- .... ....|F#3 2F97 ....
....|..|--- .... ....|--- .... ....|--- .... ....
....|..|--- .... ....|--- .... ....|B-3 2F1F ....
....|..|--- .... ....|--- .... ....|--- .... ....
....|..|--- .... ....|--- .... ....|B-3 2F1F ....
....|..|--- .... ....|--- .... ....|--- .... ....
....|..|--- .... ....|--- .... ....|B-3 2F1F ....
....|..|--- .... ....|--- .... ....|--- .... ....
....|..|--- .... ....|--- .... ....|B-3 2F1F ....
....|..|--- .... ....|--- .... ....|--- .... ....
....|..|--- .... ....|--- .... ....|F#4 2F1F ....
....|..|--- .... ....|--- .... ....|R-- .... ....
....|..|--- .... ....|--- .... ....|F#3 2F9F ....
....|..|--- .... ....|--- .... ....|--- .... ....
....|..|--- .... ....|--- .... ....|B-3 2F17 ....
....|..|--- .... ....|--- .... ....|--- .... ....
....|..|--- .... ....|--- .... ....|B-3 2F17 ....
....|..|--- .... ....|--- .... ....|--- .... ....
....|..|--- .... ....|--- .... ....|F#3 2F9F ....
....|..|--- .... ....|--- .... ....|--- .... ....
....|..|--- .... ....|--- .... ....|B-3 2F1A ....
....|..|--- .... ....|--- .... ....|--- .... ....
....|..|--- .... ....|--- .... ....|F#3 2F9F ....
....|..|--- .... ....|--- .... ....|R-- .... ....
....|..|--- .... ....|--- .... ....|F#3 2F9F ....
....|..|--- .... ....|--- .... ....|--- .... ....
....|..|--- .... ....|--- .... ....|B-3 2F17 ....
....|..|--- .... ....|--- .... ....|--- .... ....
....|..|--- .... ....|--- .... ....|B-3 2F17 ....
....|..|--- .... ....|--- .... ....|--- .... ....
....|..|--- .... ....|--- .... ....|F#3 2F9F ....
....|..|--- .... ....|--- .... ....|--- .... ....
....|..|--- .... ....|--- .... ....|B-3 2F17 ....
....|..|--- .... ....|--- .... ....|--- .... ....
....|..|--- .... ....|--- .... ....|F#3 2F9F ....
....|..|--- .... ....|--- .... ....|R-- .... ....
....|..|--- .... ....|--- .... ....|F#3 2F9F ....
....|..|--- .... ....|--- .... ....|--- .... ....
....|..|--- .... ....|--- .... ....|F#3 2F9F ....
....|..|--- .... ....|--- .... ....|--- .... ....
....|..|--- .... ....|--- .... ....|F#3 2F9F ....
....|..|--- .... ....|--- .... ....|--- .... ....
....|..|--- .... ....|--- .... ....|F#3 2F97 ....
....|..|--- .... ....|--- .... ....|--- .... ....

[Pattern2]
....|..|--- .... ....|--- .... ....|B-3 2F1F ....
....|..|--- .... ....|--- .... ....|--- .... ....
....|..|--- .... ....|--- .... ....|F#3 2F97 ....
....|..|--- .... ....|--- .... ....|--- .... ....
....|..|--- .... ....|--- .... ....|F#3 2F97 ....
....|..|--- .... ....|--- .... ....|--- .... ....
....|..|--- .... ....|--- .... ....|B-3 2F1F ....
....|..|--- .... ....|--- .... ....|--- .... ....
....|..|--- .... ....|--- .... ....|F#3 2F9A ....
....|..|--- .... ....|--- .... ....|--- .... ....
....|..|--- .... ....|--- .... ....|B-3 2F1F ....
....|..|--- .... ....|--- .... ....|--- .... ....
....|..|--- .... ....|--- .... ....|B-3 2F1F ....
....|..|--- .... ....|--- .... ....|--- .... ....
....|..|--- .... ....|--- .... ....|F#3 2F97 ....
....|..|--- .... ....|--- .... ....|--- .... ....
....|..|--- .... ....|--- .... ....|F#3 2F97 ....
....|..|--- .... ....|--- .... ....|--- .... ....
....|..|--- .... ....|--- .... ....|B-3 2F1F ....
....|..|--- .... ....|--- .... ....|--- .... ....
....|..|--- .... ....|--- .... ....|F#3 2F97 ....
....|..|--- .... ....|--- .... ....|--- .... ....
....|..|--- .... ....|--- .... ....|B-3 2F1F ....
....|..|--- .... ....|--- .... ....|--- .... ....
....|..|--- .... ....|--- .... ....|B-3 2F1F ....
....|..|--- .... ....|--- .... ....|--- .... ....
....|..|--- .... ....|--- .... ....|B-3 2F1F ....
....|..|--- .... ....|--- .... ....|--- .... ....
....|..|--- .... ....|--- .... ....|B-3 2F1F ....
....|..|--- .... ....|--- .... ....|--- .... ....
....|..|--- .... ....|--- .... ....|B-3 2F17 ....
....|..|--- .... ....|--- .... ....|--- .... ....
 F#3|..|F#1 2A.F ....|F#4 3F.F ....|F#4 2F9F ....
....|..|--- .... ....|--- .... ....|--- .... ....
....|..|--- .... ....|--- .... ....|B-3 2F17 ....
....|..|R-- .... ....|--- .... ....|--- .... ....
....|..|--- .... ....|--- .... ....|B-3 2F17 ....
....|..|--- .... ....|--- .... ....|--- .... ....
 F#4|..|F#2 2A.F ....|--- .... ....|B-3 2F1A ....
....|..|R-- .... ....|--- .... ....|--- .... ....
 F#4|..|F#2 2A.F ....|--- .... ....|B-3 2F1A ....
....|..|--- .... ....|R-- .... ....|--- .... ....
....|..|--- .... ....|--- .... ....|B-3 2F17 ....
....|..|R-- .... ....|--- .... ....|--- .... ....
....|..|F#1 2F.A ....|F#5 3F.F ....|F#4 2F9A ....
....|..|--- .... ....|--- .... ....|--- .... ....
....|..|--- .... ....|R-- .... ....|B-3 2F17 ....
....|..|R-- .... ....|--- .... ....|--- .... ....
 F#3|..|F#1 2A.F ....|F-5 3F.F ....|B-3 2F17 ....
....|..|--- .... ....|--- .... ....|--- .... ....
....|..|F#2 2F.A ....|--- .... ....|B-3 2F17 ....
....|..|R-- .... ....|--- .... ....|--- .... ....
....|..|F#2 2F.A ....|--- .... ....|B-3 2F17 ....
....|..|--- .... ....|R-- .... ....|--- .... ....
....|..|--- .... ....|C#5 3F.F ....|R-- .... ....
....|..|R-- .... ....|--- .... ....|--- .... ....
 F#4|..|F#2 2A.F ....|F#4 3F.7 ....|F#4 2F97 ....
....|..|--- .... ....|--- .... ....|--- .... ....
....|..|--- .... ....|R-- .... ....|--- .... ....
....|..|R-- .... ....|--- .... ....|--- .... ....
....|..|F#1 2F.A ....|A#4 3F.F ....|--- .... ....
....|..|--- .... ....|R-- .... ....|R-- .... ....
....|..|F#2 2F.7 ....|--- .... ....|--- .... ....
....|..|R-- .... ....|--- .... ....|--- .... ....

[Pattern3]
 G#3|..|G#1 2A.F ....|D#5 3F.F ....|C-4 2F2F ....
....|..|--- .... ....|R-- .... ....|--- .... ....
....|..|--- .... ....|C#5 3F.A ....|--- .... ....
....|..|R-- .... ....|--- .... ....|--- .... ....
....|..|F#2 2F.A ....|F#5 3F.7 ....|--- .... ....
....|..|--- .... ....|--- .... ....|--- .... ....
 G#4|..|G#2 2A.F ....|R-- .... ....|--- .... ....
....|..|R-- .... ....|--- .... ....|--- .... ....
 G#4|..|G#2 2A.F ....|F-5 3F.7 ....|--- .... ....
....|..|--- .... ....|R-- .... ....|R-- .... ....
....|..|--- .... ....|--- .... ....|--- .... ....
....|..|R-- .... ....|--- .... ....|--- .... ....
....|..|G#1 2F.A ....|D#5 3F.A ....|C-4 2F2A ....
....|..|--- .... ....|R-- .... ....|--- .... ....
....|..|--- .... ....|C#5 3F.7 ....|--- .... ....
....|..|R-- .... ....|R-- .... ....|--- .... ....
 G#3|..|G#1 2A.F ....|G#4 3F.F ....|--- .... ....
....|..|--- .... ....|--- .... ....|--- .... ....
....|..|G#2 2F.A ....|R-- .... ....|--- .... ....
....|..|R-- .... ....|--- .... ....|--- .... ....
....|..|G#2 2F.A ....|A#4 3F.7 ....|--- .... ....
....|..|--- .... ....|R-- .... ....|R-- .... ....
....|..|--- .... ....|--- .... ....|--- .... ....
....|..|R-- .... ....|--- .... ....|--- .... ....
 G#4|..|G#2 2A.F ....|D#5 3F.7 ....|C-4 2F27 ....
....|..|--- .... ....|--- .... ....|--- .... ....
....|..|--- .... ....|--- .... ....|--- .... ....
....|..|R-- .... ....|F#4 3F.F ....|--- .... ....
....|..|G#1 2F.A ....|C#4 3F3F ....|--- .... ....
....|..|--- .... ....|G#3 3F4F ....|R-- .... ....
....|..|G#2 2F.7 ....|--- .... ....|--- .... ....
....|..|R-- .... ....|--- .... ....|--- .... ....
 F-3|..|F-1 2A.F ....|G#4 3F.F ....|F-4 2F2F ....
....|..|--- .... ....|--- .... ....|--- .... ....
....|..|--- .... ....|--- .... ....|--- .... ....
....|..|R-- .... ....|--- .... ....|--- .... ....
....|..|G#2 2F.A ....|--- .... ....|--- .... ....
....|..|--- .... ....|--- .... ....|--- .... ....
 F-4|..|F-2 2A.F ....|--- .... ....|--- .... ....
....|..|R-- .... ....|F#4 3F.A ....|--- .... ....
 F-4|..|F-2 2A.F ....|G#4 3F.7 ....|--- .... ....
....|..|--- .... ....|G#3 3F4A ....|R-- .... ....
....|..|--- .... ....|R-- .... ....|--- .... ....
....|..|R-- .... ....|--- .... ....|--- .... ....
....|..|F-1 2F.A ....|A#4 3F.F ....|F-4 2F2A ....
....|..|--- .... ....|--- .... ....|--- .... ....
....|..|--- .... ....|R-- .... ....|R-- .... ....
....|..|R-- .... ....|--- .... ....|--- .... ....
 A#3|..|A#1 2A.F ....|C#5 3F.F ....|C#4 2F1F ....
....|..|--- .... ....|--- .... ....|--- .... ....
....|..|F-2 2F.A ....|--- .... ....|--- .... ....
....|..|R-- .... ....|F#4 3F.7 ....|--- .... ....
....|..|F-2 2F.A ....|G#4 3F.F ....|--- .... ....
....|..|--- .... ....|G#3 3F47 ....|R-- .... ....
....|..|--- .... ....|R-- .... ....|--- .... ....
....|..|R-- .... ....|--- .... ....|--- .... ....
 A#3|..|A#2 2C.F ....|F-4 3F.F ....|F-4 2F27 ....
....|..|--- .... ....|--- .... ....|--- .... ....
....|..|--- .... ....|R-- .... ....|R-- .... ....
....|..|R-- .... ....|--- .... ....|--- .... ....
....|..|A#1 2F.A ....|G#4 3F.F ....|C#4 2F1A ....
....|..|--- .... ....|--- .... ....|--- .... ....
....|..|F-2 2F.7 ....|--- .... ....|R-- .... ....
....|..|R-- .... ....|--- .... ....|--- .... ....

[Pattern4]
 D#4|..|D#2 2A.F ....|G#4 3F.A ....|D#4 2FAF ....
....|..|--- .... ....|R-- .... ....|--- .... ....
....|..|--- .... ....|F#4 3F.F ....|--- .... ....
....|..|R-- .... ....|--- .... ....|--- .... ....
....|..|A#2 2F.A ....|A#4 3F.7 ....|--- .... ....
....|..|--- .... ....|--- .... ....|--- .... ....
 D#4|..|D#3 2C.F ....|R-- .... ....|R-- .... ....
....|..|R-- .... ....|--- .... ....|--- .... ....
 D#4|..|D#3 2C.F ....|C#5 3F.7 ....|C#4 2F17 ....
....|..|--- .... ....|--- .... ....|--- .... ....
....|..|--- .... ....|--- .... ....|R-- .... ....
....|..|R-- .... ....|--- .... ....|--- .... ....
....|..|D#2 2F.A ....|G#4 3F.7 ....|D#4 2FAA ....
....|..|--- .... ....|R-- .... ....|--- .... ....
....|..|--- .... ....|F#4 3F.A ....|--- .... ....
....|..|R-- .... ....|--- .... ....|--- .... ....
 D#4|..|D#2 2A.F ....|F-4 3F.7 ....|--- .... ....
....|..|--- .... ....|--- .... ....|--- .... ....
....|..|D#3 2F.A ....|--- .... ....|--- .... ....
....|..|R-- .... ....|--- .... ....|--- .... ....
....|..|D#3 2F.A ....|G#4 3F.7 ....|--- .... ....
....|..|--- .... ....|--- .... ....|--- .... ....
....|..|--- .... ....|--- .... ....|R-- .... ....
....|..|R-- .... ....|--- .... ....|--- .... ....
 D#4|..|D#3 2C.F ....|--- .... ....|D#4 2FA7 ....
....|..|--- .... ....|R-- .... ....|--- .... ....
....|..|--- .... ....|F#4 3F.7 ....|--- .... ....
....|..|R-- .... ....|--- .... ....|--- .... ....
....|..|D#2 2F.A ....|--- .... ....|--- .... ....
....|..|--- .... ....|R-- .... ....|R-- .... ....
....|..|D#3 2F.7 ....|--- .... ....|--- .... ....
....|..|R-- .... ....|--- .... ....|--- .... ....
 B-3|..|B-1 2A.F ....|F#4 3F.F ....|B-3 2F9F ....
....|..|--- .... ....|--- .... ....|--- .... ....
....|..|--- .... ....|--- .... ....|--- .... ....
....|..|R-- .... ....|--- .... ....|--- .... ....
....|..|D#3 2F.A ....|--- .... ....|--- .... ....
....|..|--- .... ....|--- .... ....|--- .... ....
 B-4|..|B-2 2A.F ....|--- .... ....|--- .... ....
....|..|R-- .... ....|--- .... ....|--- .... ....
 B-4|..|B-2 2A.F ....|--- .... ....|--- .... ....
....|..|--- .... ....|R-- .... ....|R-- .... ....
....|..|--- .... ....|R-- .... ....|--- .... ....
....|..|R-- .... ....|--- .... ....|--- .... ....
....|..|B-1 2F.A ....|F#4 3F.F ....|B-3 2F9A ....
....|..|--- .... ....|R-- .... ....|--- .... ....
....|..|--- .... ....|--- .... ....|--- .... ....
....|..|R-- .... ....|--- .... ....|--- .... ....
 B-3|..|B-1 2A.F ....|D#5 3F.F ....|--- .... ....
....|..|--- .... ....|--- .... ....|--- .... ....
....|..|B-2 2F.A ....|--- .... ....|--- .... ....
....|..|R-- .... ....|R-- .... ....|--- .... ....
....|..|B-2 2F.A ....|C#5 3F.F ....|--- .... ....
....|..|--- .... ....|R-- .... ....|R-- .... ....
 B-4|..|B-2 2A.F ....|R-- .... ....|--- .... ....
....|..|R-- .... ....|R-- .... ....|--- .... ....
 B-4|..|B-2 2A.F ....|A#4 3F.F ....|B-3 2F97 ....
....|..|--- .... ....|R-- .... ....|--- .... ....
....|..|--- .... ....|G#4 3F.F ....|--- .... ....
....|..|R-- .... ....|--- .... ....|--- .... ....
....|..|B-1 2F.A ....|D#5 3F.A ....|--- .... ....
....|..|--- .... ....|R-- .... ....|R-- .... ....
....|..|B-2 2F.7 ....|F#4 3F.F ....|--- .... ....
....|..|R-- .... ....|R-- .... ....|--- .... ....

[Pattern5]
 G#3|..|G#1 2A.F ....|G#4 3F.F ....|B-3 2F1F ....
....|..|--- .... ....|--- .... ....|--- .... ....
....|..|B-2 2F.A ....|R-- .... ....|--- .... ....
....|..|R-- .... ....|R-- .... ....|--- .... ....
....|..|B-2 2F.A ....|F#4 3F.7 ....|--- .... ....
....|..|--- .... ....|R-- .... ....|--- .... ....
 G#4|..|G#2 2A.F ....|G#4 3F.A ....|--- .... ....
....|..|R-- .... ....|--- .... ....|--- .... ....
 G#4|..|G#2 2A.F ....|D#5 3F.7 ....|--- .... ....
....|..|--- .... ....|R-- .... ....|R-- .... ....
....|..|--- .... ....|F#4 3F.A ....|--- .... ....
....|..|R-- .... ....|R-- .... ....|--- .... ....
....|..|G#1 2F.A ....|C#5 3F.7 ....|B-3 2F1A ....
....|..|--- .... ....|--- .... ....|--- .... ....
....|..|B-2 2F.7 ....|--- .... ....|--- .... ....
....|..|R-- .... ....|R-- .... ....|--- .... ....
 G#3|..|G#1 2A.F ....|A#4 3F.7 ....|--- .... ....
....|..|--- .... ....|--- .... ....|--- .... ....
....|..|G#2 2F.A ....|G#4 3F.7 ....|--- .... ....
....|..|R-- .... ....|--- .... ....|--- .... ....
....|..|G#2 2F.A ....|--- .... ....|--- .... ....
....|..|--- .... ....|R-- .... ....|R-- .... ....
....|..|--- .... ....|F#4 3F.7 ....|--- .... ....
....|..|R-- .... ....|R-- .... ....|--- .... ....
 G#3|..|G#1 2A.F ....|G#4 3F.F ....|B-3 2F17 ....
....|..|--- .... ....|R-- .... ....|--- .... ....
....|..|--- .... ....|A#4 3F.F ....|--- .... ....
....|..|R-- .... ....|--- .... ....|--- .... ....
....|..|G#1 2F.A ....|--- .... ....|--- .... ....
....|..|--- .... ....|--- .... ....|R-- .... ....
....|..|G#2 2F.7 ....|R-- .... ....|--- .... ....
....|..|R-- .... ....|R-- .... ....|--- .... ....
 C#4|..|C#2 2A.F ....|C#5 3F.F ....|C#4 2F9F ....
....|..|--- .... ....|--- .... ....|--- .... ....
....|..|--- .... ....|--- .... ....|--- .... ....
....|..|R-- .... ....|--- .... ....|--- .... ....
....|..|G#1 2F.A ....|G#4 3F.A ....|--- .... ....
....|..|--- .... ....|R-- .... ....|--- .... ....
 C#4|..|C#2 2A.F ....|A#4 3F.A ....|--- .... ....
....|..|R-- .... ....|--- .... ....|--- .... ....
 C#4|..|C#2 2A.F ....|--- .... ....|--- .... ....
....|..|--- .... ....|A#4 3F5F ....|R-- .... ....
....|..|--- .... ....|F#4 3F5F ....|--- .... ....
....|..|R-- .... ....|D#4 3F5F ....|--- .... ....
....|..|C#2 2F.A ....|C#4 3F.F ....|C#4 2F9A ....
....|..|--- .... ....|R-- .... ....|--- .... ....
....|..|--- .... ....|--- .... ....|--- .... ....
....|..|R-- .... ....|--- .... ....|--- .... ....
 C#4|..|C#2 2A.F ....|G#4 3F.7 ....|--- .... ....
....|..|--- .... ....|R-- .... ....|--- .... ....
....|..|C#2 2F.A ....|A#4 3F.7 ....|--- .... ....
....|..|R-- .... ....|--- .... ....|--- .... ....
....|..|C#2 2F.A ....|D#5 3F.F ....|--- .... ....
....|..|--- .... ....|A#4 3F5A ....|R-- .... ....
 C#4|..|C#2 2A.F ....|F#4 3F5A ....|--- .... ....
....|..|R-- .... ....|D#4 3F5A ....|--- .... ....
 C#4|..|C#2 2A.F ....|F#5 3F.F ....|C#4 2F97 ....
....|..|--- .... ....|R-- .... ....|--- .... ....
....|..|--- .... ....|--- .... ....|--- .... ....
....|..|R-- .... ....|R-- .... ....|--- .... ....
....|..|C#2 2F.A ....|D#5 3F.F ....|--- .... ....
....|..|--- .... ....|--- .... ....|R-- .... ....
....|..|C#2 2F.7 ....|--- .... ....|--- .... ....
....|..|R-- .... ....|--- .... ....|--- .... ....

[Pattern6]
 C#4|..|C#2 2A.F ....|D#5 3F.A ....|G#4 2F.F ....
....|..|--- .... ....|A#4 3F57 ....|--- .... ....
....|..|C#2 2F.A ....|C#5 3F.F ....|--- .... ....
....|..|R-- .... ....|D#4 3F57 ....|--- .... ....
....|..|C#2 2F.A ....|C#4 3F.7 ....|G#4 2F2F ....
....|..|--- .... ....|R-- .... ....|--- .... ....
 C#4|..|C#2 2A.F ....|--- .... ....|--- .... ....
....|..|R-- .... ....|R-- .... ....|--- .... ....
 C#4|..|C#2 2A.F ....|D#5 3F.A ....|G#4 2FAF ....
....|..|--- .... ....|--- .... ....|R-- .... ....
....|..|--- .... ....|--- .... ....|--- .... ....
....|..|R-- .... ....|--- .... ....|--- .... ....
....|..|C#2 2F.A ....|D#5 3F.7 ....|B-4 2F9F ....
....|..|--- .... ....|R-- .... ....|--- .... ....
....|..|C#2 2F.7 ....|C#5 3F.A ....|--- .... ....
....|..|R-- .... ....|--- .... ....|--- .... ....
 C#4|..|C#2 2A.F ....|F#5 3F.7 ....|B-4 2F1F ....
....|..|--- .... ....|--- .... ....|--- .... ....
....|..|C#2 2F.A ....|--- .... ....|--- .... ....
....|..|R-- .... ....|R-- .... ....|--- .... ....
....|..|C#2 2F.A ....|D#5 3F.7 ....|B-4 2F9F ....
....|..|--- .... ....|--- .... ....|R-- .... ....
....|..|--- .... ....|--- .... ....|--- .... ....
....|..|R-- .... ....|--- .... ....|--- .... ....
 C#4|..|C#2 2A.F ....|--- .... ....|B-4 2F1F ....
....|..|--- .... ....|R-- .... ....|--- .... ....
....|..|--- .... ....|C#5 3F.7 ....|--- .... ....
....|..|R-- .... ....|--- .... ....|--- .... ....
....|..|C#2 2F.A ....|--- .... ....|G#4 2F2F ....
....|..|--- .... ....|--- .... ....|--- .... ....
....|..|C#2 2F.7 ....|--- .... ....|F#5 2F.F ....
....|..|R-- .... ....|--- .... ....|F#5 2F.F ....
 F#3|..|F#1 2A.F ....|F#4 3F.F ....|F#4 2F9F ....
....|..|--- .... ....|--- .... ....|--- .... ....
....|..|--- .... ....|--- .... ....|--- .... ....
....|..|R-- .... ....|--- .... ....|--- .... ....
....|..|C#2 2F.A ....|--- .... ....|B-4 2F97 ....
....|..|--- .... ....|R-- .... ....|--- .... ....
 F#4|..|F#2 2A.F ....|--- .... ....|--- .... ....
....|..|R-- .... ....|--- .... ....|--- .... ....
 F#4|..|F#2 2A.F ....|--- .... ....|B-4 2F17 ....
....|..|--- .... ....|R-- .... ....|--- .... ....
....|..|--- .... ....|--- .... ....|F#5 2F.A ....
....|..|R-- .... ....|--- .... ....|F#5 2F.A ....
....|..|F#1 2F.A ....|F-4 3F6F ....|B-4 2F97 ....
....|..|--- .... ....|R-- .... ....|--- .... ....
....|..|--- .... ....|--- .... ....|--- .... ....
....|..|R-- .... ....|--- .... ....|--- .... ....
 F#3|..|F#1 2A.F ....|F-5 3F.F ....|B-4 2F17 ....
....|..|--- .... ....|R-- .... ....|--- .... ....
....|..|F#2 2F.A ....|--- .... ....|--- .... ....
....|..|R-- .... ....|--- .... ....|--- .... ....
....|..|F#2 2F.A ....|--- .... ....|G#4 2F27 ....
....|..|--- .... ....|R-- .... ....|--- .... ....
....|..|--- .... ....|--- .... ....|F#5 2F.7 ....
....|..|R-- .... ....|--- .... ....|F#5 2F.7 ....
 F#4|..|F#2 2A.F ....|C#5 3F.F ....|F#4 2F97 ....
....|..|--- .... ....|R-- .... ....|--- .... ....
....|..|--- .... ....|A#4 3F.F ....|--- .... ....
....|..|R-- .... ....|--- .... ....|--- .... ....
....|..|F#1 2F.A ....|F-5 3F.A ....|--- .... ....
....|..|--- .... ....|--- .... ....|R-- .... ....
....|..|F#2 2F.7 ....|--- .... ....|--- .... ....
....|..|R-- .... ....|R-- .... ....|--- .... ....

[Pattern7]
 G#3|..|G#1 2A.F ....|D#5 3F.F ....|C-4 2F2F ....
....|..|--- .... ....|R-- .... ....|--- .... ....
....|..|--- .... ....|--- .... ....|--- .... ....
....|..|R-- .... ....|--- .... ....|--- .... ....
....|..|F#2 2F.A ....|F-4 3F67 ....|--- .... ....
....|..|--- .... ....|R-- .... ....|--- .... ....
 G#4|..|G#2 2A.F ....|A#4 3F.A ....|--- .... ....
....|..|R-- .... ....|--- .... ....|--- .... ....
 G#4|..|G#2 2A.F ....|F-5 3F.7 ....|--- .... ....
....|..|--- .... ....|--- .... ....|R-- .... ....
....|..|--- .... ....|--- .... ....|--- .... ....
....|..|R-- .... ....|R-- .... ....|--- .... ....
....|..|G#1 2F.A ....|D#5 3F.A ....|C-4 2F2A ....
....|..|--- .... ....|R-- .... ....|--- .... ....
....|..|--- .... ....|--- .... ....|--- .... ....
....|..|R-- .... ....|R-- .... ....|--- .... ....
 G#3|..|G#1 2A.F ....|G#4 3F.F ....|--- .... ....
....|..|--- .... ....|R-- .... ....|--- .... ....
....|..|G#2 2F.A ....|A#4 3F.7 ....|--- .... ....
....|..|R-- .... ....|--- .... ....|--- .... ....
....|..|G#2 2F.A ....|--- .... ....|--- .... ....
....|..|--- .... ....|--- .... ....|R-- .... ....
....|..|--- .... ....|--- .... ....|--- .... ....
....|..|R-- .... ....|R-- .... ....|--- .... ....
 G#4|..|G#2 2A.F ....|D#5 3F.7 ....|C-4 2F27 ....
....|..|--- .... ....|--- .... ....|--- .... ....
....|..|--- .... ....|--- .... ....|--- .... ....
....|..|R-- .... ....|R-- .... ....|--- .... ....
....|..|G#1 2F.A ....|G#4 3F.A ....|--- .... ....
....|..|--- .... ....|--- .... ....|R-- .... ....
....|..|G#2 2F.7 ....|--- .... ....|--- .... ....
....|..|R-- .... ....|R-- .... ....|--- .... ....
 F-3|..|F-1 2A.F ....|G#4 3F.F ....|F-4 2F2F ....
....|..|--- .... ....|--- .... ....|--- .... ....
....|..|--- .... ....|--- .... ....|--- .... ....
....|..|R-- .... ....|--- .... ....|--- .... ....
....|..|G#2 2F.A ....|--- .... ....|--- .... ....
....|..|--- .... ....|--- .... ....|--- .... ....
 F-4|..|F-2 2A.F ....|--- .... ....|--- .... ....
....|..|R-- .... ....|R-- .... ....|--- .... ....
 F-4|..|F-2 2A.F ....|G#4 3F.7 ....|--- .... ....
....|..|--- .... ....|R-- .... ....|R-- .... ....
....|..|--- .... ....|--- .... ....|--- .... ....
....|..|R-- .... ....|R-- .... ....|--- .... ....
....|..|F-1 2F.A ....|A#4 3F.F ....|F-4 2F2A ....
....|..|--- .... ....|--- .... ....|--- .... ....
....|..|--- .... ....|R-- .... ....|R-- .... ....
....|..|R-- .... ....|--- .... ....|--- .... ....
 A#3|..|A#1 2A.F ....|C#5 3F.F ....|C#4 2F1F ....
....|..|--- .... ....|R-- .... ....|--- .... ....
....|..|F-2 2F.A ....|G#4 3F.F ....|--- .... ....
....|..|R-- .... ....|--- .... ....|--- .... ....
....|..|F-2 2F.A ....|--- .... ....|--- .... ....
....|..|--- .... ....|R-- .... ....|R-- .... ....
....|..|--- .... ....|--- .... ....|--- .... ....
....|..|R-- .... ....|R-- .... ....|--- .... ....
 A#3|..|A#2 2C.F ....|F-4 3F.F ....|F-4 2F27 ....
....|..|--- .... ....|--- .... ....|--- .... ....
....|..|--- .... ....|R-- .... ....|R-- .... ....
....|..|R-- .... ....|R-- .... ....|--- .... ....
....|..|A#1 2F.A ....|G#4 3F.F ....|C#4 2F1A ....
....|..|--- .... ....|R-- .... ....|--- .... ....
....|..|F-2 2F.7 ....|G#4 3F.A ....|R-- .... ....
....|..|R-- .... ....|--- .... ....|--- .... ....

[Pattern8]
 D#4|..|D#2 2A.F ....|--- .... ....|D#4 2FAF ....
....|..|--- .... ....|R-- .... ....|--- .... ....
....|..|--- .... ....|--- .... ....|--- .... ....
....|..|R-- .... ....|R-- .... ....|--- .... ....
....|..|A#2 2F.A ....|F#4 3F.F ....|--- .... ....
....|..|--- .... ....|--- .... ....|--- .... ....
 D#4|..|D#3 2C.F ....|R-- .... ....|R-- .... ....
....|..|R-- .... ....|R-- .... ....|--- .... ....
 D#4|..|D#3 2C.F ....|C#5 3F.7 ....|C#4 2F17 ....
....|..|--- .... ....|R-- .... ....|--- .... ....
....|..|--- .... ....|G#4 3F.7 ....|R-- .... ....
....|..|R-- .... ....|--- .... ....|--- .... ....
....|..|D#2 2F.A ....|--- .... ....|D#4 2FAA ....
....|..|--- .... ....|R-- .... ....|--- .... ....
....|..|--- .... ....|--- .... ....|--- .... ....
....|..|R-- .... ....|R-- .... ....|--- .... ....
 D#4|..|D#2 2A.F ....|F-4 3F.7 ....|--- .... ....
....|..|--- .... ....|--- .... ....|--- .... ....
....|..|D#3 2F.A ....|--- .... ....|--- .... ....
....|..|R-- .... ....|R-- .... ....|--- .... ....
....|..|D#3 2F.A ....|G#4 3F.7 ....|--- .... ....
....|..|--- .... ....|--- .... ....|--- .... ....
 D#4|..|D#3 2C.F ....|--- .... ....|R-- .... ....
....|..|R-- .... ....|--- .... ....|--- .... ....
 D#4|..|D#3 2C.F ....|--- .... ....|D#4 2FA7 ....
....|..|--- .... ....|R-- .... ....|--- .... ....
....|..|--- .... ....|--- .... ....|--- .... ....
....|..|R-- .... ....|--- .... ....|--- .... ....
....|..|D#2 2F.A ....|F#4 3F.7 ....|--- .... ....
....|..|--- .... ....|--- .... ....|R-- .... ....
....|..|D#3 2F.7 ....|--- .... ....|--- .... ....
....|..|R-- .... ....|R-- .... ....|--- .... ....
 B-3|..|B-1 2A.F ....|F#4 3F.F ....|B-3 2F9F ....
....|..|--- .... ....|--- .... ....|--- .... ....
....|..|D#3 2F.A ....|--- .... ....|--- .... ....
....|..|R-- .... ....|--- .... ....|--- .... ....
....|..|D#3 2F.A ....|--- .... ....|--- .... ....
....|..|--- .... ....|--- .... ....|--- .... ....
 B-4|..|B-2 2A.F ....|--- .... ....|--- .... ....
....|..|R-- .... ....|--- .... ....|--- .... ....
 B-4|..|B-2 2A.F ....|--- .... ....|--- .... ....
....|..|--- .... ....|--- .... ....|R-- .... ....
....|..|--- .... ....|R-- .... ....|--- .... ....
....|..|R-- .... ....|R-- .... ....|--- .... ....
....|..|B-1 2F.A ....|F#4 3F.F ....|B-3 2F9A ....
....|..|--- .... ....|--- .... ....|--- .... ....
 B-3|..|B-1 2A.F ....|R-- .... ....|--- .... ....
....|..|R-- .... ....|--- .... ....|--- .... ....
 B-3|..|B-1 2A.F ....|D#5 3F.F ....|--- .... ....
....|..|--- .... ....|--- .... ....|--- .... ....
....|..|B-2 2F.A ....|--- .... ....|--- .... ....
....|..|R-- .... ....|R-- .... ....|--- .... ....
....|..|B-2 2F.A ....|C#5 3F.F ....|--- .... ....
....|..|--- .... ....|--- .... ....|R-- .... ....
....|..|--- .... ....|R-- .... ....|--- .... ....
....|..|R-- .... ....|R-- .... ....|--- .... ....
 B-4|..|B-2 2A.F ....|A#4 3F.F ....|B-3 2F97 ....
....|..|--- .... ....|R-- .... ....|--- .... ....
....|..|B-1 2F.A ....|G#4 3F.F ....|--- .... ....
....|..|R-- .... ....|--- .... ....|--- .... ....
....|..|B-1 2F.A ....|D#5 3F.A ....|--- .... ....
....|..|--- .... ....|--- .... ....|R-- .... ....
....|..|B-2 2F.7 ....|F#4 3F.F ....|--- .... ....
....|..|R-- .... ....|R-- .... ....|--- .... ....

[Pattern9]
 G#3|..|G#1 2A.F ....|G#4 3F.F ....|B-3 2F1F ....
....|..|--- .... ....|--- .... ....|--- .... ....
....|..|--- .... ....|R-- .... ....|--- .... ....
....|..|R-- .... ....|R-- .... ....|--- .... ....
....|..|B-2 2F.A ....|F#4 3F.7 ....|--- .... ....
....|..|--- .... ....|R-- .... ....|--- .... ....
 G#4|..|G#2 2A.F ....|G#4 3F.A ....|--- .... ....
....|..|R-- .... ....|--- .... ....|--- .... ....
 G#4|..|G#2 2A.F ....|D#5 3F.7 ....|--- .... ....
....|..|--- .... ....|--- .... ....|R-- .... ....
....|..|--- .... ....|F#4 3F.A ....|--- .... ....
....|..|R-- .... ....|R-- .... ....|--- .... ....
....|..|G#1 2F.A ....|C#5 3F.7 ....|B-3 2F1A ....
....|..|--- .... ....|--- .... ....|--- .... ....
....|..|--- .... ....|--- .... ....|--- .... ....
....|..|R-- .... ....|R-- .... ....|--- .... ....
 G#3|..|G#1 2A.F ....|A#4 3F.7 ....|--- .... ....
....|..|--- .... ....|R-- .... ....|--- .... ....
....|..|G#2 2F.A ....|G#4 3F.7 ....|--- .... ....
....|..|R-- .... ....|R-- .... ....|--- .... ....
....|..|G#2 2F.A ....|--- .... ....|--- .... ....
....|..|--- .... ....|--- .... ....|R-- .... ....
 G#4|..|G#2 2A.F ....|F#4 3F.7 ....|--- .... ....
....|..|R-- .... ....|R-- .... ....|--- .... ....
 G#4|..|G#2 2A.F ....|G#4 3F.F ....|B-3 2F17 ....
....|..|--- .... ....|R-- .... ....|--- .... ....
....|..|--- .... ....|A#4 3F.F ....|--- .... ....
....|..|R-- .... ....|--- .... ....|--- .... ....
....|..|G#1 2F.A ....|--- .... ....|--- .... ....
....|..|--- .... ....|--- .... ....|R-- .... ....
....|..|G#2 2F.7 ....|--- .... ....|--- .... ....
....|..|R-- .... ....|R-- .... ....|--- .... ....
 C#4|..|C#2 2A.F ....|C#5 3F.F ....|C#4 2F9F ....
....|..|--- .... ....|--- .... ....|--- .... ....
....|..|G#2 2F.A ....|--- .... ....|--- .... ....
....|..|R-- .... ....|--- .... ....|--- .... ....
....|..|G#2 2F.A ....|G#4 3F.A ....|--- .... ....
....|..|--- .... ....|R-- .... ....|--- .... ....
 C#4|..|C#3 2C.F ....|A#4 3F.A ....|--- .... ....
....|..|R-- .... ....|--- .... ....|--- .... ....
 C#4|..|C#3 2C.F ....|--- .... ....|--- .... ....
....|..|--- .... ....|--- .... ....|R-- .... ....
....|..|--- .... ....|--- .... ....|--- .... ....
....|..|R-- .... ....|R-- .... ....|--- .... ....
....|..|C#2 2F.A ....|C#5 3F.A ....|C#4 2F9A ....
....|..|--- .... ....|--- .... ....|--- .... ....
 C#4|..|C#2 2A.F ....|--- .... ....|--- .... ....
....|..|R-- .... ....|--- .... ....|--- .... ....
 C#4|..|C#2 2A.F ....|G#4 3F.7 ....|--- .... ....
....|..|--- .... ....|R-- .... ....|--- .... ....
....|..|C#3 2F.A ....|A#4 3F.7 ....|--- .... ....
....|..|R-- .... ....|--- .... ....|--- .... ....
....|..|C#3 2F.A ....|D#5 3F.F ....|--- .... ....
....|..|--- .... ....|R-- .... ....|R-- .... ....
....|..|--- .... ....|--- .... ....|--- .... ....
....|..|R-- .... ....|R-- .... ....|--- .... ....
 C#4|..|C#3 2C.F ....|F#5 3F.F ....|C#4 2F97 ....
....|..|--- .... ....|--- .... ....|--- .... ....
....|..|C#2 2F.A ....|--- .... ....|--- .... ....
....|..|R-- .... ....|R-- .... ....|--- .... ....
....|..|C#2 2F.A ....|D#5 3F.F ....|--- .... ....
....|..|--- .... ....|--- .... ....|R-- .... ....
....|..|C#3 2F.7 ....|R-- .... ....|--- .... ....
....|..|R-- .... ....|R-- .... ....|--- .... ....

[Pattern10]
 A#3|..|A#1 2A.F ....|A#4 3F2F ....|C#4 2F1F ....
....|..|--- .... ....|R-- .... ....|--- .... ....
....|..|--- .... ....|--- .... ....|--- .... ....
....|..|R-- .... ....|--- .... ....|--- .... ....
....|..|C#3 2F.A ....|F#5 3F.A ....|--- .... ....
....|..|--- .... ....|--- .... ....|--- .... ....
 A#3|..|A#2 2C.F ....|--- .... ....|--- .... ....
....|..|R-- .... ....|R-- .... ....|--- .... ....
 A#3|..|A#2 2C.F ....|F-5 6F.F ....|--- .... ....
....|..|--- .... ....|--- .... ....|R-- .... ....
....|..|--- .... ....|R-- .... ....|--- .... ....
....|..|R-- .... ....|R-- .... ....|--- .... ....
....|..|A#1 2F.A ....|D#5 3F.7 ....|C#4 2F1A ....
....|..|--- .... ....|R-- .... ....|--- .... ....
 A#3|..|A#1 2A.F ....|--- .... ....|R-- .... ....
....|..|R-- .... ....|R-- .... ....|--- .... ....
 A#3|..|A#1 2A.F ....|F#5 6F.F ....|D-4 2F2F ....
....|..|--- .... ....|--- .... ....|--- .... ....
....|..|A#2 2F.A ....|--- .... ....|--- .... ....
....|..|R-- .... ....|R-- .... ....|--- .... ....
....|..|A#2 2F.A ....|D#5 3F.7 ....|--- .... ....
....|..|--- .... ....|--- .... ....|R-- .... ....
 A#3|..|A#1 2A.F ....|--- .... ....|--- .... ....
....|..|R-- .... ....|R-- .... ....|--- .... ....
 A#3|..|A#2 2C.F ....|G#5 6F.F ....|C#4 2F17 ....
....|..|--- .... ....|--- .... ....|--- .... ....
....|..|A#1 2F.A ....|--- .... ....|R-- .... ....
....|..|R-- .... ....|R-- .... ....|--- .... ....
 F-4|..|F-2 2A.F ....|F#5 6F.A ....|D-4 2F2A ....
....|..|--- .... ....|--- .... ....|--- .... ....
....|..|A#2 2F.7 ....|--- .... ....|R-- .... ....
....|..|R-- .... ....|R-- .... ....|--- .... ....
 D#4|..|D#2 2A.F ....|F#4 6F1F ....|D#4 2FAF ....
....|..|--- .... ....|--- .... ....|--- .... ....
....|..|A#1 2F.A ....|--- .... ....|--- .... ....
....|..|R-- .... ....|--- .... ....|--- .... ....
....|..|A#2 2F.A ....|C-4 3F6F ....|--- .... ....
....|..|R-- .... ....|G#4 3F5F ....|--- .... ....
 A#3|..|A#2 2C.F ....|F-4 3F6F ....|R-- .... ....
....|..|R-- .... ....|D#4 3F.F ....|--- .... ....
....|..|A#1 2F.7 ....|F#5 3F.F ....|D-4 2F27 ....
....|..|--- .... ....|--- .... ....|--- .... ....
....|..|--- .... ....|--- .... ....|R-- .... ....
....|..|R-- .... ....|R-- .... ....|--- .... ....
 A#3|..|A#1 2A.F ....|F-5 3F.F ....|D#4 2FAA ....
....|..|--- .... ....|--- .... ....|--- .... ....
....|..|A#1 2F.7 ....|--- .... ....|--- .... ....
....|..|R-- .... ....|R-- .... ....|--- .... ....
 D#4|..|D#2 2A.F ....|F#5 3F.F ....|--- .... ....
....|..|R-- .... ....|G#4 3F5A ....|--- .... ....
....|..|A#2 2F.A ....|F-4 3F6A ....|--- .... ....
....|..|R-- .... ....|D#4 3F.A ....|--- .... ....
....|..|F-2 2F.7 ....|F-5 3F.F ....|--- .... ....
....|..|R-- .... ....|--- .... ....|--- .... ....
 A#3|..|A#2 2C.F ....|--- .... ....|R-- .... ....
....|..|R-- .... ....|R-- .... ....|--- .... ....
....|..|D#2 2F.7 ....|F#5 6F.F ....|D#4 2FA7 ....
....|..|--- .... ....|--- .... ....|--- .... ....
....|..|--- .... ....|--- .... ....|--- .... ....
....|..|R-- .... ....|R-- .... ....|--- .... ....
 A#3|..|A#1 2A.F ....|A#4 3F.F ....|--- .... ....
....|..|R-- .... ....|G#4 3F57 ....|R-- .... ....
....|..|A#2 2F.7 ....|F-4 3F67 ....|--- .... ....
....|..|R-- .... ....|D#4 3F.7 ....|--- .... ....

[Pattern11]
 B-4|..|B-2 2A.F ....|B-4 6F1F ....|D#4 2F2F ....
....|..|R-- .... ....|--- .... ....|--- .... ....
....|..|A#2 2F.A ....|--- .... ....|--- .... ....
....|..|--- .... ....|R-- .... ....|--- .... ....
....|..|A#1 2F.7 ....|D#5 3F.F ....|--- .... ....
....|..|R-- .... ....|--- .... ....|--- .... ....
 F#4|..|F#2 2A.F ....|--- .... ....|--- .... ....
....|..|R-- .... ....|R-- .... ....|--- .... ....
....|..|D#2 2F.7 ....|F#5 3F.7 ....|--- .... ....
....|..|--- .... ....|--- .... ....|R-- .... ....
....|..|--- .... ....|R-- .... ....|--- .... ....
....|..|R-- .... ....|R-- .... ....|--- .... ....
 F#4|..|F#2 2A.F ....|D#5 3F.F ....|D#4 2F2A ....
....|..|R-- .... ....|--- .... ....|--- .... ....
....|..|A#2 2F.7 ....|--- .... ....|--- .... ....
....|..|--- .... ....|R-- .... ....|--- .... ....
 B-4|..|B-2 2A.F ....|F#5 6F.7 ....|--- .... ....
....|..|R-- .... ....|--- .... ....|--- .... ....
....|..|F#2 2F.A ....|--- .... ....|--- .... ....
....|..|--- .... ....|R-- .... ....|--- .... ....
....|..|A#1 2F.7 ....|F-5 6F.F ....|--- .... ....
....|..|R-- .... ....|--- .... ....|R-- .... ....
 F#4|..|F#2 2A.F ....|R-- .... ....|--- .... ....
....|..|R-- .... ....|R-- .... ....|--- .... ....
....|..|B-2 2F.7 ....|F#5 6F.F ....|D#4 2F27 ....
....|..|--- .... ....|--- .... ....|--- .... ....
....|..|--- .... ....|--- .... ....|--- .... ....
....|..|R-- .... ....|R-- .... ....|--- .... ....
 F#4|..|F#2 2A.F ....|D#5 3F.7 ....|--- .... ....
....|..|R-- .... ....|R-- .... ....|R-- .... ....
....|..|F#2 2F.7 ....|--- .... ....|--- .... ....
....|..|--- .... ....|--- .... ....|--- .... ....
 D#4|..|D#2 2A.F ....|F#4 6F1F ....|D#4 2FAF ....
....|..|R-- .... ....|--- .... ....|--- .... ....
....|..|F#2 2F.A ....|R-- .... ....|--- .... ....
....|..|--- .... ....|--- .... ....|--- .... ....
....|..|F#2 2F.7 ....|D#5 3F.7 ....|--- .... ....
....|..|R-- .... ....|--- .... ....|--- .... ....
 A#3|..|A#2 2C.F ....|--- .... ....|--- .... ....
....|..|R-- .... ....|--- .... ....|--- .... ....
....|..|B-2 2F.7 ....|F#5 3F.F ....|--- .... ....
....|..|--- .... ....|R-- .... ....|R-- .... ....
....|..|--- .... ....|--- .... ....|--- .... ....
....|..|--- .... ....|R-- .... ....|--- .... ....
 A#3|..|A#1 2A.F ....|F-5 3F.F ....|D#4 2FAA ....
....|..|R-- .... ....|R-- .... ....|--- .... ....
....|..|F#2 2F.7 ....|F#5 3F.F ....|--- .... ....
....|..|R-- .... ....|--- .... ....|--- .... ....
 D#4|..|D#2 2A.F ....|F#5 6F.7 ....|--- .... ....
....|..|R-- .... ....|--- .... ....|--- .... ....
....|..|A#2 2F.A ....|--- .... ....|--- .... ....
....|..|R-- .... ....|R-- .... ....|--- .... ....
....|..|F#2 2F.7 ....|G#5 6F.F ....|--- .... ....
....|..|R-- .... ....|R-- .... ....|R-- .... ....
 A#3|..|A#2 2C.F ....|--- .... ....|--- .... ....
....|..|--- .... ....|R-- .... ....|--- .... ....
....|..|D#2 2F.7 ....|F#5 6F.F ....|D#4 2FA7 ....
....|..|--- .... ....|R-- .... ....|--- .... ....
....|..|--- .... ....|F#5 3F.A ....|--- .... ....
....|..|R-- .... ....|R-- .... ....|--- .... ....
 A#3|..|A#1 2A.F ....|D#4 6F2F ....|--- .... ....
....|..|R-- .... ....|--- .... ....|R-- .... ....
....|..|A#2 2F.7 ....|--- .... ....|--- .... ....
....|..|R-- .... ....|R-- .... ....|--- .... ....

[Pattern12]
 B-4|..|B-2 2A.F ....|B-4 6F1F ....|D#4 2F2F ....
....|..|R-- .... ....|--- .... ....|--- .... ....
....|..|A#2 2F.A ....|--- .... ....|--- .... ....
....|..|--- .... ....|R-- .... ....|--- .... ....
....|..|A#1 2F.7 ....|D#5 3F.F ....|--- .... ....
....|..|R-- .... ....|R-- .... ....|--- .... ....
 F#4|..|F#2 2A.F ....|F#5 3F.7 ....|--- .... ....
....|..|R-- .... ....|R-- .... ....|--- .... ....
....|..|D#2 2F.7 ....|D#4 6F2A ....|--- .... ....
....|..|--- .... ....|--- .... ....|R-- .... ....
....|..|--- .... ....|R-- .... ....|--- .... ....
....|..|R-- .... ....|R-- .... ....|--- .... ....
 F#4|..|F#2 2A.F ....|D#5 3F.F ....|D#4 2F2A ....
....|..|R-- .... ....|--- .... ....|--- .... ....
....|..|A#2 2F.7 ....|--- .... ....|--- .... ....
....|..|--- .... ....|R-- .... ....|--- .... ....
 B-4|..|B-2 2A.F ....|F#5 6F.7 ....|--- .... ....
....|..|R-- .... ....|--- .... ....|--- .... ....
....|..|F#2 2F.A ....|--- .... ....|--- .... ....
....|..|--- .... ....|R-- .... ....|--- .... ....
....|..|A#1 2F.7 ....|F-5 6F.F ....|--- .... ....
....|..|R-- .... ....|--- .... ....|R-- .... ....
 F#4|..|F#2 2A.F ....|R-- .... ....|--- .... ....
....|..|R-- .... ....|R-- .... ....|--- .... ....
....|..|B-2 2F.7 ....|F#5 6F.F ....|D#4 2F27 ....
....|..|--- .... ....|--- .... ....|--- .... ....
....|..|--- .... ....|--- .... ....|--- .... ....
....|..|R-- .... ....|R-- .... ....|--- .... ....
 F#4|..|F#2 2A.F ....|D#5 3F.7 ....|--- .... ....
....|..|R-- .... ....|R-- .... ....|R-- .... ....
....|..|F#2 2F.7 ....|--- .... ....|--- .... ....
....|..|--- .... ....|--- .... ....|--- .... ....
 B-4|..|B-2 2A.F ....|B-4 6F1F ....|D#4 2F2F ....
....|..|R-- .... ....|--- .... ....|--- .... ....
....|..|F#2 2F.A ....|R-- .... ....|--- .... ....
....|..|R-- .... ....|--- .... ....|--- .... ....
....|..|F#2 2F.7 ....|D#5 3F.7 ....|--- .... ....
....|..|--- .... ....|--- .... ....|--- .... ....
 B-4|..|B-2 2A.F ....|--- .... ....|--- .... ....
....|..|R-- .... ....|--- .... ....|--- .... ....
 F#4|..|F#2 2A.F ....|D-4 3F6F ....|--- .... ....
....|..|--- .... ....|D#5 3F.F ....|R-- .... ....
....|..|--- .... ....|--- .... ....|--- .... ....
....|..|R-- .... ....|R-- .... ....|--- .... ....
....|..|B-2 2F.A ....|F-5 3F.F ....|D#4 2F2A ....
....|..|R-- .... ....|--- .... ....|--- .... ....
....|..|F#2 2F.7 ....|--- .... ....|--- .... ....
....|..|R-- .... ....|R-- .... ....|--- .... ....
 B-4|..|B-2 2A.F ....|F#5 3F.F ....|--- .... ....
....|..|--- .... ....|--- .... ....|--- .... ....
....|..|B-2 2F.A ....|--- .... ....|--- .... ....
....|..|R-- .... ....|--- .... ....|--- .... ....
....|..|F#2 2F.7 ....|F#5 6F.F ....|--- .... ....
....|..|--- .... ....|D#5 3F.A ....|R-- .... ....
 B-4|..|B-2 2A.F ....|D#5 3F.F ....|--- .... ....
....|..|R-- .... ....|R-- .... ....|--- .... ....
 F#4|..|F#2 2A.F ....|B-4 6F17 ....|D#4 2F27 ....
....|..|--- .... ....|--- .... ....|--- .... ....
....|..|--- .... ....|--- .... ....|--- .... ....
....|..|R-- .... ....|R-- .... ....|--- .... ....
....|..|B-2 2F.A ....|F#5 6F.F ....|--- .... ....
....|..|--- .... ....|--- .... ....|R-- .... ....
....|..|B-2 2F.7 ....|--- .... ....|--- .... ....
....|..|R-- .... ....|R-- .... ....|--- .... ....

[Pattern13]
 G#4|..|G#2 2A.F ....|B-4 6F1F ....|G#4 2F2F ....
....|..|--- .... ....|D#5 3F.7 ....|--- .... ....
....|..|B-2 2F.A ....|D#5 3F.A ....|--- .... ....
....|..|R-- .... ....|R-- .... ....|--- .... ....
....|..|F#2 2F.A ....|F-5 3F.7 ....|--- .... ....
....|..|--- .... ....|--- .... ....|--- .... ....
 G#4|..|G#2 2A.F ....|--- .... ....|--- .... ....
....|..|R-- .... ....|R-- .... ....|--- .... ....
 D#4|..|D#2 2A.F ....|D#5 3F.F ....|--- .... ....
....|..|--- .... ....|F-5 3F.F ....|R-- .... ....
....|..|--- .... ....|--- .... ....|--- .... ....
....|..|R-- .... ....|R-- .... ....|--- .... ....
....|..|G#2 2F.A ....|F#5 6F.7 ....|G#4 2F2A ....
....|..|--- .... ....|F#5 3F.F ....|--- .... ....
....|..|B-2 2F.7 ....|D#5 3F.7 ....|--- .... ....
....|..|R-- .... ....|G#5 3F.F ....|--- .... ....
 G#4|..|G#2 2A.F ....|--- .... ....|--- .... ....
....|..|--- .... ....|--- .... ....|--- .... ....
....|..|G#2 2F.A ....|--- .... ....|--- .... ....
....|..|R-- .... ....|--- .... ....|--- .... ....
....|..|D#2 2F.A ....|F#5 6F.F ....|--- .... ....
....|..|--- .... ....|F-5 3F.A ....|R-- .... ....
 G#4|..|G#2 2A.F ....|--- .... ....|--- .... ....
....|..|R-- .... ....|R-- .... ....|--- .... ....
 D#4|..|D#2 2A.F ....|F-5 3F.F ....|G#4 2F27 ....
....|..|--- .... ....|F#5 3F.A ....|--- .... ....
....|..|--- .... ....|R-- .... ....|--- .... ....
....|..|R-- .... ....|G#5 3F.A ....|--- .... ....
....|..|G#2 2F.A ....|F#5 6F.F ....|--- .... ....
....|..|--- .... ....|--- .... ....|R-- .... ....
....|..|G#2 2F.7 ....|--- .... ....|--- .... ....
....|..|R-- .... ....|R-- .... ....|--- .... ....
 A#3|..|A#2 2C.F ....|A#4 6F2F ....|C#4 2F1F ....
....|..|--- .... ....|F-5 3F.7 ....|--- .... ....
....|..|G#2 2F.A ....|R-- .... ....|--- .... ....
....|..|R-- .... ....|--- .... ....|--- .... ....
....|..|D#2 2F.A ....|C#5 3F.F ....|--- .... ....
....|..|--- .... ....|F#5 3F.7 ....|--- .... ....
 A#3|..|A#2 2C.F ....|R-- .... ....|--- .... ....
....|..|R-- .... ....|G#5 3F.7 ....|--- .... ....
 F-4|..|F-2 2A.F ....|F#5 6F.A ....|--- .... ....
....|..|--- .... ....|--- .... ....|R-- .... ....
....|..|--- .... ....|--- .... ....|--- .... ....
....|..|R-- .... ....|R-- .... ....|--- .... ....
....|..|A#2 2F.A ....|F#5 6F.7 ....|C#4 2F1A ....
....|..|--- .... ....|R-- .... ....|--- .... ....
....|..|G#2 2F.7 ....|R-- .... ....|--- .... ....
....|..|R-- .... ....|--- .... ....|--- .... ....
 A#3|..|A#2 2C.F ....|F-5 3F.7 ....|--- .... ....
....|..|--- .... ....|--- .... ....|--- .... ....
....|..|A#2 2F.A ....|--- .... ....|--- .... ....
....|..|R-- .... ....|R-- .... ....|--- .... ....
....|..|F-2 2F.A ....|F#5 6F.7 ....|--- .... ....
....|..|--- .... ....|--- .... ....|R-- .... ....
 A#3|..|A#2 2C.F ....|R-- .... ....|--- .... ....
....|..|R-- .... ....|R-- .... ....|--- .... ....
 F-4|..|F-2 2A.F ....|A#4 3F.F ....|C#4 2F17 ....
....|..|--- .... ....|R-- .... ....|--- .... ....
....|..|--- .... ....|C#5 3F.F ....|--- .... ....
....|..|R-- .... ....|--- .... ....|--- .... ....
....|..|A#2 2F.A ....|C#5 3F.7 ....|--- .... ....
....|..|--- .... ....|--- .... ....|R-- .... ....
....|..|A#2 2F.7 ....|--- .... ....|--- .... ....
....|..|R-- .... ....|R-- .... ....|--- .... ....

[Pattern14]
 D#4|..|D#2 2A.F ....|D#5 6F.F ....|D#4 2FAF ....
....|..|--- .... ....|--- .... ....|--- .... ....
....|..|A#2 2F.A ....|R-- .... ....|--- .... ....
....|..|R-- .... ....|--- .... ....|--- .... ....
....|..|F-2 2F.A ....|A#4 3F.A ....|--- .... ....
....|..|--- .... ....|R-- .... ....|--- .... ....
 D#4|..|D#2 2A.F ....|C#5 3F.A ....|--- .... ....
....|..|R-- .... ....|--- .... ....|--- .... ....
 A#3|..|A#1 2A.F ....|--- .... ....|--- .... ....
....|..|--- .... ....|--- .... ....|R-- .... ....
....|..|--- .... ....|--- .... ....|--- .... ....
....|..|R-- .... ....|R-- .... ....|--- .... ....
....|..|D#2 2F.A ....|D#5 6F.A ....|D#4 2FAA ....
....|..|--- .... ....|--- .... ....|--- .... ....
....|..|A#2 2F.7 ....|R-- .... ....|--- .... ....
....|..|R-- .... ....|--- .... ....|--- .... ....
 D#4|..|D#2 2A.F ....|A#4 3F.7 ....|--- .... ....
....|..|--- .... ....|R-- .... ....|--- .... ....
....|..|D#2 2F.A ....|C#5 3F.7 ....|--- .... ....
....|..|R-- .... ....|--- .... ....|--- .... ....
....|..|A#1 2F.A ....|--- .... ....|--- .... ....
....|..|--- .... ....|R-- .... ....|R-- .... ....
 D#4|..|D#2 2A.F ....|--- .... ....|--- .... ....
....|..|R-- .... ....|R-- .... ....|--- .... ....
 A#3|..|A#1 2A.F ....|D#4 6F2F ....|D#4 2FA7 ....
....|..|--- .... ....|R-- .... ....|--- .... ....
....|..|--- .... ....|--- .... ....|--- .... ....
....|..|R-- .... ....|--- .... ....|--- .... ....
....|..|D#2 2F.A ....|C#5 3F.F ....|--- .... ....
....|..|--- .... ....|R-- .... ....|R-- .... ....
....|..|D#2 2F.7 ....|C#5 3F.F ....|--- .... ....
....|..|R-- .... ....|R-- .... ....|--- .... ....
 B-4|..|B-2 2A.F ....|D#4 6F2F ....|B-3 2F9F ....
....|..|--- .... ....|R-- .... ....|--- .... ....
....|..|D#2 2F.A ....|--- .... ....|--- .... ....
....|..|R-- .... ....|R-- .... ....|--- .... ....
....|..|A#1 2F.A ....|B-4 3F.F ....|--- .... ....
....|..|--- .... ....|R-- .... ....|--- .... ....
 B-4|..|B-2 2A.F ....|--- .... ....|--- .... ....
....|..|R-- .... ....|--- .... ....|--- .... ....
 F#4|..|F#2 2A.F ....|C#5 3F.A ....|--- .... ....
....|..|--- .... ....|R-- .... ....|R-- .... ....
....|..|--- .... ....|C#5 3F.A ....|--- .... ....
....|..|R-- .... ....|R-- .... ....|--- .... ....
....|..|B-2 2F.A ....|D#4 6F2A ....|B-3 2F9A ....
....|..|--- .... ....|R-- .... ....|--- .... ....
....|..|D#2 2F.7 ....|--- .... ....|--- .... ....
....|..|R-- .... ....|R-- .... ....|--- .... ....
 B-4|..|B-2 2A.F ....|D#4 6F27 ....|D#4 2F2F ....
....|..|--- .... ....|R-- .... ....|--- .... ....
....|..|B-2 2F.A ....|--- .... ....|--- .... ....
....|..|R-- .... ....|--- .... ....|--- .... ....
....|..|F#2 2F.A ....|F-4 6F.F ....|--- .... ....
....|..|--- .... ....|R-- .... ....|R-- .... ....
 B-4|..|B-2 2A.F ....|C#5 3F.7 ....|--- .... ....
....|..|R-- .... ....|R-- .... ....|--- .... ....
 A#3|..|A#2 2C.F ....|F#4 6F.F ....|D#4 2F2F ....
....|..|--- .... ....|--- .... ....|--- .... ....
....|..|--- .... ....|R-- .... ....|--- .... ....
....|..|R-- .... ....|R-- .... ....|--- .... ....
....|..|B-2 2F.A ....|B-4 3F.7 ....|D#4 2F2A ....
....|..|--- .... ....|--- .... ....|F#5 2F.F ....
....|..|B-2 2F.7 ....|--- .... ....|--- .... ....
....|..|R-- .... ....|R-- .... ....|--- .... ....

[Pattern15]
 G#4|..|G#2 2A.F ....|B-4 6F.F ....|G#4 2F.F ....
....|..|--- .... ....|--- .... ....|--- .... ....
....|..|B-2 2F.A ....|--- .... ....|--- .... ....
....|..|R-- .... ....|--- .... ....|--- .... ....
....|..|A#2 2F.A ....|F#4 6F.A ....|D#4 2F2A ....
....|..|--- .... ....|--- .... ....|--- .... ....
 G#4|..|G#2 2A.F ....|R-- .... ....|--- .... ....
....|..|R-- .... ....|--- .... ....|--- .... ....
 D#4|..|D#2 2A.F ....|A#4 3F.F ....|D#4 2F27 ....
....|..|--- .... ....|--- .... ....|F#5 2F.A ....
....|..|--- .... ....|--- .... ....|--- .... ....
....|..|R-- .... ....|R-- .... ....|--- .... ....
....|..|G#2 2F.A ....|B-4 3F.F ....|G#4 2F.A ....
....|..|--- .... ....|--- .... ....|--- .... ....
....|..|B-2 2F.7 ....|--- .... ....|--- .... ....
....|..|R-- .... ....|R-- .... ....|B-3 2F1F ....
 G#4|..|G#2 2A.F ....|A#5 3F.F ....|G#4 2F.F ....
....|..|--- .... ....|R-- .... ....|--- .... ....
....|..|G#2 2F.A ....|R-- .... ....|--- .... ....
....|..|R-- .... ....|--- .... ....|--- .... ....
....|..|D#2 2F.A ....|A#5 3F.F ....|--- .... ....
....|..|--- .... ....|--- .... ....|F#5 2F.7 ....
 G#4|..|G#2 2A.F ....|R-- .... ....|--- .... ....
....|..|R-- .... ....|R-- .... ....|--- .... ....
 D#4|..|D#2 2A.F ....|F#4 6F.F ....|G#4 2F.F ....
....|..|--- .... ....|R-- .... ....|--- .... ....
....|..|--- .... ....|F#5 3F.F ....|--- .... ....
....|..|R-- .... ....|R-- .... ....|B-3 2F1A ....
....|..|G#2 2F.A ....|A#5 3F.A ....|G#4 2F.A ....
....|..|--- .... ....|R-- .... ....|F#5 2F.F ....
....|..|G#2 2F.7 ....|R-- .... ....|--- .... ....
....|..|R-- .... ....|G#5 3F.F ....|--- .... ....
 C#4|..|C#2 2A.F ....|C#5 6F.F ....|F-4 2F2F ....
....|..|--- .... ....|--- .... ....|--- .... ....
....|..|G#2 2F.A ....|R-- .... ....|--- .... ....
....|..|R-- .... ....|R-- .... ....|--- .... ....
....|..|D#2 2F.A ....|B-4 3F.7 ....|G#4 2F.A ....
....|..|--- .... ....|R-- .... ....|--- .... ....
 C#4|..|C#2 2A.F ....|F#5 3F.A ....|--- .... ....
....|..|R-- .... ....|R-- .... ....|B-3 2F17 ....
 G#3|..|G#1 2A.F ....|A#5 3F.7 ....|G#4 2F.7 ....
....|..|--- .... ....|R-- .... ....|F#5 2F.A ....
....|..|--- .... ....|R-- .... ....|--- .... ....
....|..|R-- .... ....|G#5 3F.A ....|--- .... ....
....|..|C#2 2F.A ....|A#5 3F.7 ....|F-4 2F2A ....
....|..|--- .... ....|--- .... ....|--- .... ....
....|..|G#2 2F.7 ....|R-- .... ....|--- .... ....
....|..|R-- .... ....|--- .... ....|--- .... ....
 C#4|..|C#2 2A.F ....|F#4 6F.7 ....|G#4 2F.7 ....
....|..|--- .... ....|R-- .... ....|--- .... ....
....|..|C#2 2F.A ....|F#5 3F.7 ....|--- .... ....
....|..|R-- .... ....|--- .... ....|--- .... ....
....|..|G#1 2F.A ....|D#5 3F.F ....|--- .... ....
....|..|--- .... ....|--- .... ....|F#5 2F.7 ....
 C#4|..|C#2 2A.F ....|R-- .... ....|--- .... ....
....|..|R-- .... ....|G#5 3F.7 ....|--- .... ....
 G#3|..|G#1 2A.F ....|F#5 3F.F ....|F-4 2F27 ....
....|..|--- .... ....|R-- .... ....|--- .... ....
....|..|--- .... ....|G#5 3F.F ....|--- .... ....
....|..|R-- .... ....|--- .... ....|--- .... ....
....|..|C#2 2F.A ....|--- .... ....|--- .... ....
....|..|--- .... ....|--- .... ....|G#5 2F.F ....
....|..|C#2 2F.7 ....|--- .... ....|--- .... ....
....|..|R-- .... ....|R-- .... ....|--- .... ....

[Pattern16]
 C#4|..|C#2 2A.F ....|A#5 3F.F ....|F-4 2F2F ....
....|..|--- .... ....|--- .... ....|--- .... ....
....|..|C#2 2F.A ....|--- .... ....|--- .... ....
....|..|R-- .... ....|R-- .... ....|--- .... ....
....|..|G#1 2F.A ....|F#5 3F.A ....|--- .... ....
....|..|--- .... ....|R-- .... ....|C#4 2F9F ....
 C#4|..|C#2 2A.F ....|G#5 3F.A ....|F-4 2F2F ....
....|..|R-- .... ....|--- .... ....|--- .... ....
 G#3|..|G#1 2A.F ....|--- .... ....|--- .... ....
....|..|--- .... ....|--- .... ....|G#5 2F.A ....
....|..|--- .... ....|R-- .... ....|--- .... ....
....|..|R-- .... ....|R-- .... ....|C#4 2F9F ....
....|..|C#2 2F.A ....|G#5 3F.F ....|F-4 2F2F ....
....|..|--- .... ....|--- .... ....|--- .... ....
....|..|C#2 2F.7 ....|--- .... ....|--- .... ....
....|..|R-- .... ....|R-- .... ....|--- .... ....
 C#4|..|C#2 2A.F ....|F#5 3F.7 ....|--- .... ....
....|..|--- .... ....|R-- .... ....|C#4 2F9F ....
....|..|C#2 2F.A ....|G#5 3F.7 ....|F-4 2F2F ....
....|..|R-- .... ....|--- .... ....|--- .... ....
....|..|G#1 2F.A ....|--- .... ....|--- .... ....
....|..|--- .... ....|--- .... ....|G#5 2F.7 ....
 C#4|..|C#2 2A.F ....|R-- .... ....|--- .... ....
....|..|R-- .... ....|R-- .... ....|C#4 2F9F ....
 G#3|..|G#1 2A.F ....|A#5 3F.7 ....|F-4 2F2F ....
....|..|--- .... ....|--- .... ....|--- .... ....
....|..|--- .... ....|--- .... ....|--- .... ....
....|..|R-- .... ....|--- .... ....|--- .... ....
....|..|C#2 2F.A ....|--- .... ....|--- .... ....
....|..|--- .... ....|F-4 3F6F ....|G#5 2F.F ....
....|..|C#2 2F.7 ....|C#4 3F5F ....|F-4 2F27 ....
....|..|R-- .... ....|A#4 3F6F ....|--- .... ....
 F#4|..|F#2 2A.F ....|F#5 6F.F ....|F#4 2F9F ....
....|..|--- .... ....|R-- .... ....|--- .... ....
....|..|C#2 2F.A ....|R-- .... ....|--- .... ....
....|..|R-- .... ....|F#5 6F.F ....|C#4 2F97 ....
....|..|G#1 2F.A ....|G#5 3F.7 ....|F-4 2F27 ....
....|..|--- .... ....|--- .... ....|--- .... ....
 F#4|..|F#2 2A.F ....|--- .... ....|--- .... ....
....|..|R-- .... ....|--- .... ....|--- .... ....
 F#4|..|F#2 2A.F ....|R-- .... ....|--- .... ....
....|..|--- .... ....|F-4 3F6A ....|C#4 2F97 ....
....|..|--- .... ....|C#4 3F5A ....|F-4 2F27 ....
....|..|R-- .... ....|A#4 3F6A ....|--- .... ....
....|..|F#2 2F.A ....|F#5 6F.A ....|F#4 2F9A ....
....|..|--- .... ....|R-- .... ....|--- .... ....
....|..|C#2 2F.7 ....|--- .... ....|--- .... ....
....|..|R-- .... ....|F#5 6F.A ....|C#4 2F97 ....
 F#4|..|F#2 2A.F ....|--- .... ....|F-4 2F27 ....
....|..|--- .... ....|--- .... ....|--- .... ....
....|..|F#2 2F.A ....|D#5 6F.F ....|--- .... ....
....|..|R-- .... ....|--- .... ....|--- .... ....
....|..|F#2 2F.A ....|R-- .... ....|--- .... ....
....|..|--- .... ....|F-4 3F67 ....|G#5 2F.7 ....
 F#4|..|F#2 2A.F ....|C#4 3F57 ....|--- .... ....
....|..|R-- .... ....|A#4 3F67 ....|--- .... ....
 F#4|..|F#2 2A.F ....|C#5 6F.F ....|F#4 2F97 ....
....|..|--- .... ....|R-- .... ....|--- .... ....
....|..|--- .... ....|--- .... ....|--- .... ....
....|..|R-- .... ....|F#5 6F.7 ....|--- .... ....
....|..|F#2 2F.A ....|A#4 6F.F ....|--- .... ....
....|..|--- .... ....|--- .... ....|R-- .... ....
....|..|F#2 2F.7 ....|D#5 6F.A ....|--- .... ....
....|..|R-- .... ....|--- .... ....|--- .... ....

[Pattern17]
 F#4|..|F#2 2A.F ....|D#4 6F.F ....|G#4 2F.F ....
....|..|--- .... ....|--- .... ....|--- .... ....
....|..|F#2 2F.A ....|--- .... ....|--- .... ....
....|..|R-- .... ....|R-- .... ....|--- .... ....
....|..|F#2 2F.A ....|C#4 6F.F ....|--- .... ....
....|..|--- .... ....|--- .... ....|--- .... ....
 F#4|..|F#2 2A.F ....|--- .... ....|--- .... ....
....|..|R-- .... ....|R-- .... ....|--- .... ....
 F#4|..|F#2 2A.F ....|A#4 6F.A ....|--- .... ....
....|..|--- .... ....|--- .... ....|R-- .... ....
....|..|--- .... ....|D#5 6F.7 ....|--- .... ....
....|..|R-- .... ....|--- .... ....|--- .... ....
....|..|F#2 2F.A ....|D#4 6F.A ....|G#4 2F.A ....
....|..|--- .... ....|R-- .... ....|--- .... ....
....|..|F#2 2F.7 ....|--- .... ....|--- .... ....
....|..|R-- .... ....|R-- .... ....|--- .... ....
 F#4|..|F#2 2A.F ....|C#5 6F.7 ....|--- .... ....
....|..|--- .... ....|--- .... ....|--- .... ....
....|..|F#2 2F.A ....|A-4 6F.F ....|--- .... ....
....|..|R-- .... ....|R-- .... ....|--- .... ....
....|..|F#2 2F.A ....|G#4 6F.F ....|--- .... ....
....|..|--- .... ....|--- .... ....|R-- .... ....
 F#4|..|F#2 2A.F ....|R-- .... ....|--- .... ....
....|..|R-- .... ....|--- .... ....|--- .... ....
 F#4|..|F#2 2A.F ....|F#4 6F.F ....|G#4 2F.7 ....
....|..|--- .... ....|R-- .... ....|--- .... ....
....|..|--- .... ....|--- .... ....|--- .... ....
....|..|R-- .... ....|R-- .... ....|--- .... ....
....|..|F#2 2F.A ....|C#4 6F.7 ....|--- .... ....
....|..|--- .... ....|--- .... ....|R-- .... ....
....|..|F#2 2F.7 ....|A-4 6F.A ....|--- .... ....
....|..|R-- .... ....|--- .... ....|--- .... ....
 F#4|..|F#2 2A.F ....|F#5 6F.F ....|F#4 2F9F ....
....|..|--- .... ....|--- .... ....|--- .... ....
....|..|F#2 2F.A ....|--- .... ....|--- .... ....
....|..|R-- .... ....|--- .... ....|--- .... ....
....|..|F#2 2F.A ....|F#4 6F.A ....|--- .... ....
....|..|--- .... ....|R-- .... ....|--- .... ....
 F#4|..|F#2 2A.F ....|--- .... ....|--- .... ....
....|..|R-- .... ....|R-- .... ....|--- .... ....
 F#4|..|F#2 2A.F ....|R-- .... ....|--- .... ....
....|..|--- .... ....|--- .... ....|R-- .... ....
....|..|--- .... ....|A-4 6F.7 ....|--- .... ....
....|..|R-- .... ....|--- .... ....|--- .... ....
....|..|F#2 2F.A ....|G#4 6F.7 ....|F#4 2F9A ....
....|..|--- .... ....|--- .... ....|--- .... ....
....|..|F#2 2F.7 ....|--- .... ....|--- .... ....
....|..|R-- .... ....|--- .... ....|--- .... ....
 F#4|..|F#2 2A.F ....|F#4 6F.7 ....|--- .... ....
....|..|--- .... ....|--- .... ....|--- .... ....
....|..|F#2 2F.A ....|--- .... ....|--- .... ....
....|..|R-- .... ....|R-- .... ....|--- .... ....
....|..|F#2 2F.A ....|R-- .... ....|--- .... ....
....|..|--- .... ....|--- .... ....|R-- .... ....
 F#4|..|F#2 2A.F ....|F#4 6F1F ....|--- .... ....
....|..|R-- .... ....|--- .... ....|--- .... ....
 F#4|..|F#2 2A.F ....|F#4 6F1F ....|F#4 2F97 ....
....|..|--- .... ....|--- .... ....|--- .... ....
....|..|--- .... ....|F#4 6F1F ....|--- .... ....
....|..|R-- .... ....|--- .... ....|--- .... ....
....|..|F#2 2F.A ....|F#4 6F1F ....|--- .... ....
....|..|--- .... ....|--- .... ....|R-- .... ....
....|..|F#2 2F.7 ....|F#4 6F1F ....|--- .... ....
....|..|R-- .... ....|--- .... ....|--- .... ....

[Pattern18]
 F#4|..|F#2 2A.F ....|F#4 6F1F ....|G#4 2F.F ....
....|..|--- .... ....|--- .... ....|--- .... ....
....|..|F#2 2F.A ....|F-4 6F2F ....|--- .... ....
....|..|R-- .... ....|F-5 6F.F ....|--- .... ....
....|..|F#2 2F.A ....|F-4 6F2F ....|--- .... ....
....|..|--- .... ....|F-5 6F.F ....|--- .... ....
 F#4|..|F#2 2A.F ....|F-4 6F2F ....|--- .... ....
....|..|R-- .... ....|R-- .... ....|--- .... ....
 F#4|..|F#2 2A.F ....|F-4 6F2F ....|--- .... ....
....|..|--- .... ....|R-- .... ....|R-- .... ....
....|..|--- .... ....|D#4 6F2F ....|--- .... ....
....|..|R-- .... ....|D#5 6F.F ....|--- .... ....
....|..|F#2 2F.A ....|D#4 6F2F ....|G#4 2F.A ....
....|..|--- .... ....|D#5 6F.F ....|--- .... ....
....|..|F#2 2F.7 ....|D#4 6F2F ....|--- .... ....
....|..|R-- .... ....|D#5 6F.F ....|--- .... ....
....|..|F#2 2F.7 ....|D#4 6F2F ....|--- .... ....
....|..|--- .... ....|D#5 6F.F ....|--- .... ....
 C#4|..|C#2 2A.F ....|D#4 6F2F ....|--- .... ....
....|..|R-- .... ....|D#5 6F.F ....|--- .... ....
....|..|F#2 2F.A ....|D#4 6F2F ....|--- .... ....
....|..|R-- .... ....|R-- .... ....|R-- .... ....
....|..|--- .... ....|F-4 6F2F ....|--- .... ....
....|..|R-- .... ....|D#5 6F.A ....|--- .... ....
 D#4|..|D#2 2A.F ....|F#4 6F17 ....|G#4 2F.7 ....
....|..|--- .... ....|D#5 6F.A ....|--- .... ....
....|..|--- .... ....|F-4 6F27 ....|--- .... ....
....|..|R-- .... ....|F-5 6F.7 ....|--- .... ....
 C#4|..|C#2 2A.F ....|F-4 6F27 ....|--- .... ....
....|..|--- .... ....|F-5 6F.7 ....|R-- .... ....
....|..|F#2 2F.7 ....|F-4 6F27 ....|--- .... ....
....|..|R-- .... ....|D#5 6F.A ....|--- .... ....
 F#3|..|F#1 2A.F ....|F-5 3F.F ....|F#4 2F9F ....
....|..|R-- .... ....|F#5 3F.F ....|--- .... ....
....|..|--- .... ....|D#4 6F27 ....|--- .... ....
....|..|R-- .... ....|D#5 6F.7 ....|--- .... ....
....|..|D#2 2F.A ....|D#4 6F27 ....|--- .... ....
....|..|--- .... ....|D#5 6F.7 ....|--- .... ....
 F#4|..|F#2 2A.F ....|D#4 6F27 ....|--- .... ....
....|..|R-- .... ....|D#5 6F.7 ....|--- .... ....
 F#4|..|F#2 2A.F ....|D#4 6F27 ....|--- .... ....
....|..|--- .... ....|D#5 6F.7 ....|R-- .... ....
....|..|C#2 2F.7 ....|D#4 6F27 ....|--- .... ....
....|..|R-- .... ....|D#5 6F.7 ....|--- .... ....
....|..|F#1 2F.A ....|F-6 3F.F ....|F#4 2F9A ....
....|..|R-- .... ....|F#6 3F.F ....|--- .... ....
....|..|--- .... ....|F-4 6F27 ....|--- .... ....
....|..|R-- .... ....|R-- .... ....|--- .... ....
 F#3|..|F#1 2A.F ....|F-6 3F.F ....|--- .... ....
....|..|--- .... ....|--- .... ....|--- .... ....
....|..|F#2 2F.A ....|--- .... ....|--- .... ....
....|..|R-- .... ....|--- .... ....|--- .... ....
....|..|C#2 2F.7 ....|R-- .... ....|--- .... ....
....|..|--- .... ....|R-- .... ....|R-- .... ....
 F#4|..|F#2 2A.F ....|C#6 3F.F ....|--- .... ....
....|..|R-- .... ....|--- .... ....|--- .... ....
 F#4|..|F#2 2A.F ....|F-5 3F.7 ....|F#4 2F97 ....
....|..|--- .... ....|F#5 3F.7 ....|--- .... ....
....|..|--- .... ....|--- .... ....|--- .... ....
....|..|R-- .... ....|C-6 3F.F ....|--- .... ....
....|..|F#1 2F.A ....|B-5 3F.F ....|--- .... ....
....|..|--- .... ....|A#5 3F.F ....|R-- .... ....
....|..|F#2 2F.7 ....|R-- .... ....|--- .... ....
....|..|R-- .... ....|--- .... ....|--- .... ....

[Pattern19]
 G#3|..|G#1 2A.F ....|D-5 3F6F ....|C-4 2F2F ....
....|..|--- .... ....|R-- .... ....|--- .... ....
....|..|F#2 2F.A ....|C#6 3F.A ....|--- .... ....
....|..|R-- .... ....|--- .... ....|--- .... ....
....|..|F#2 2F.A ....|F-6 3F.7 ....|--- .... ....
....|..|--- .... ....|F#6 3F.7 ....|--- .... ....
 G#4|..|G#2 2A.F ....|--- .... ....|--- .... ....
....|..|R-- .... ....|C-6 3F.A ....|--- .... ....
 G#4|..|G#2 2A.F ....|F-6 3F.7 ....|--- .... ....
....|..|--- .... ....|A#5 3F.A ....|R-- .... ....
....|..|--- .... ....|R-- .... ....|--- .... ....
....|..|R-- .... ....|--- .... ....|--- .... ....
....|..|G#1 2F.A ....|D-5 3F6A ....|C-4 2F2A ....
....|..|--- .... ....|--- .... ....|--- .... ....
 G#3|..|G#1 2A.F ....|C#6 3F.7 ....|--- .... ....
....|..|R-- .... ....|R-- .... ....|--- .... ....
 G#3|..|G#1 2A.F ....|G#5 3F.F ....|--- .... ....
....|..|--- .... ....|--- .... ....|--- .... ....
....|..|G#2 2F.A ....|--- .... ....|--- .... ....
....|..|R-- .... ....|C-6 3F.7 ....|--- .... ....
....|..|G#2 2F.A ....|B-5 3F.7 ....|--- .... ....
....|..|--- .... ....|A#5 3F.7 ....|R-- .... ....
....|..|--- .... ....|R-- .... ....|--- .... ....
....|..|R-- .... ....|--- .... ....|--- .... ....
 G#4|..|G#2 2A.F ....|D-5 3F67 ....|C-4 2F27 ....
....|..|--- .... ....|--- .... ....|--- .... ....
....|..|G#1 2F.A ....|--- .... ....|--- .... ....
....|..|R-- .... ....|R-- .... ....|--- .... ....
....|..|G#1 2F.A ....|F#5 3F.F ....|--- .... ....
....|..|--- .... ....|C#4 3F3F ....|R-- .... ....
....|..|G#2 2F.7 ....|G#4 3F4F ....|--- .... ....
....|..|R-- .... ....|--- .... ....|--- .... ....
 F-3|..|F-1 2A.F ....|G-4 3F6F ....|F-4 2F2F ....
....|..|--- .... ....|G#5 3F.F ....|--- .... ....
....|..|--- .... ....|--- .... ....|--- .... ....
....|..|R-- .... ....|--- .... ....|--- .... ....
....|..|G#2 2F.A ....|--- .... ....|--- .... ....
....|..|--- .... ....|--- .... ....|--- .... ....
....|..|G#1 2F.7 ....|--- .... ....|--- .... ....
....|..|R-- .... ....|R-- .... ....|--- .... ....
 F-4|..|F-2 2A.F ....|G#5 3F.7 ....|--- .... ....
....|..|--- .... ....|C#4 3F3A ....|R-- .... ....
....|..|--- .... ....|G#4 3F4A ....|--- .... ....
....|..|R-- .... ....|--- .... ....|--- .... ....
....|..|F-1 2F.A ....|A#5 3F.F ....|F-4 2F2A ....
....|..|--- .... ....|G#5 3F.A ....|--- .... ....
....|..|--- .... ....|--- .... ....|R-- .... ....
....|..|R-- .... ....|--- .... ....|--- .... ....
 A#3|..|A#1 2A.F ....|C#6 3F.F ....|C#4 2F1F ....
....|..|--- .... ....|R-- .... ....|--- .... ....
....|..|--- .... ....|--- .... ....|--- .... ....
....|..|R-- .... ....|--- .... ....|--- .... ....
....|..|F-2 2F.A ....|G#5 3F.F ....|--- .... ....
....|..|--- .... ....|C#4 3F37 ....|R-- .... ....
....|..|--- .... ....|G#4 3F47 ....|--- .... ....
....|..|R-- .... ....|--- .... ....|--- .... ....
 A#3|..|A#2 2C.F ....|F-5 3F.F ....|F-4 2F27 ....
....|..|--- .... ....|G#5 3F.7 ....|--- .... ....
....|..|--- .... ....|--- .... ....|R-- .... ....
....|..|R-- .... ....|--- .... ....|--- .... ....
 A#3|..|A#1 2A.F ....|G#5 3F.F ....|C#4 2F1A ....
....|..|--- .... ....|R-- .... ....|--- .... ....
....|..|R-- .... ....|--- .... ....|R-- .... ....
....|..|R-- .... ....|G-5 3F.F ....|--- .... ....

[Pattern20]
 D#4|..|D#2 2A.F ....|F#5 3F.F ....|D#4 2FAF ....
....|..|--- .... ....|R-- .... ....|--- .... ....
....|..|--- .... ....|--- .... ....|--- .... ....
....|..|R-- .... ....|--- .... ....|--- .... ....
....|..|A#2 2F.A ....|A#5 3F.7 ....|--- .... ....
....|..|--- .... ....|R-- .... ....|--- .... ....
 D#4|..|D#3 2C.F ....|--- .... ....|R-- .... ....
....|..|R-- .... ....|--- .... ....|--- .... ....
 D#4|..|D#3 2C.F ....|C#6 3F.7 ....|C#4 2F17 ....
....|..|--- .... ....|R-- .... ....|--- .... ....
....|..|R-- .... ....|--- .... ....|R-- .... ....
....|..|R-- .... ....|G-5 3F.A ....|--- .... ....
....|..|D#2 2F.A ....|G#5 3F.7 ....|D#4 2FAA ....
....|..|--- .... ....|R-- .... ....|--- .... ....
....|..|--- .... ....|--- .... ....|--- .... ....
....|..|R-- .... ....|--- .... ....|--- .... ....
 D#4|..|D#2 2A.F ....|F-5 3F.7 ....|F#4 2F1F ....
....|..|--- .... ....|R-- .... ....|--- .... ....
....|..|D#3 2F.A ....|--- .... ....|--- .... ....
....|..|R-- .... ....|--- .... ....|--- .... ....
....|..|A#1 2F.7 ....|G#5 3F.7 ....|--- .... ....
....|..|--- .... ....|--- .... ....|--- .... ....
 D#4|..|D#3 2C.F ....|--- .... ....|R-- .... ....
....|..|R-- .... ....|G-5 3F.7 ....|--- .... ....
 D#4|..|D#3 2C.F ....|F#5 3F.7 ....|F#4 2F1F ....
....|..|--- .... ....|--- .... ....|--- .... ....
....|..|--- .... ....|--- .... ....|--- .... ....
....|..|R-- .... ....|--- .... ....|--- .... ....
 D#4|..|D#3 2C.F ....|--- .... ....|F#4 2F1A ....
....|..|--- .... ....|--- .... ....|D#5 2F.F ....
....|..|D#3 2F.7 ....|--- .... ....|--- .... ....
....|..|R-- .... ....|--- .... ....|--- .... ....
 B-3|..|B-1 2A.F ....|D#5 3F.F ....|D#4 2F2F ....
....|..|--- .... ....|--- .... ....|--- .... ....
....|..|D#3 2F.A ....|--- .... ....|--- .... ....
....|..|R-- .... ....|--- .... ....|--- .... ....
....|..|D#3 2F.A ....|--- .... ....|F#4 2F1A ....
....|..|R-- .... ....|--- .... ....|--- .... ....
 B-4|..|B-2 2A.F ....|--- .... ....|--- .... ....
....|..|R-- .... ....|--- .... ....|--- .... ....
 B-4|..|B-2 2A.F ....|--- .... ....|F#4 2F17 ....
....|..|--- .... ....|--- .... ....|D#5 2F.A ....
....|..|--- .... ....|R-- .... ....|--- .... ....
....|..|R-- .... ....|--- .... ....|--- .... ....
....|..|B-1 2F.A ....|F-4 3F6F ....|D#4 2F2A ....
....|..|--- .... ....|R-- .... ....|--- .... ....
....|..|D#3 2F.7 ....|--- .... ....|--- .... ....
....|..|R-- .... ....|--- .... ....|--- .... ....
 B-3|..|B-1 2A.F ....|D#6 3F.F ....|F#4 2F17 ....
....|..|R-- .... ....|--- .... ....|--- .... ....
....|..|B-2 2F.A ....|--- .... ....|--- .... ....
....|..|R-- .... ....|R-- .... ....|--- .... ....
....|..|D#3 2F.7 ....|C#6 3F.F ....|--- .... ....
....|..|--- .... ....|--- .... ....|D#5 2F.7 ....
 B-4|..|B-2 2A.F ....|R-- .... ....|--- .... ....
....|..|R-- .... ....|R-- .... ....|--- .... ....
 B-4|..|B-2 2A.F ....|A#5 3F.F ....|B-3 2F9F ....
....|..|--- .... ....|R-- .... ....|--- .... ....
....|..|--- .... ....|G#5 3F.F ....|--- .... ....
....|..|R-- .... ....|--- .... ....|--- .... ....
....|..|B-1 2F.A ....|D#6 3F.A ....|--- .... ....
....|..|R-- .... ....|--- .... ....|R-- .... ....
....|..|B-2 2F.7 ....|F#5 3F.F ....|--- .... ....
....|..|R-- .... ....|R-- .... ....|--- .... ....

[Pattern21]
 G#3|..|G#1 2A.F ....|G#5 3F.F ....|B-3 2F1F ....
....|..|--- .... ....|--- .... ....|--- .... ....
....|..|B-2 2F.A ....|R-- .... ....|--- .... ....
....|..|R-- .... ....|R-- .... ....|--- .... ....
....|..|B-2 2F.A ....|F-4 3F67 ....|B-3 2F9A ....
....|..|--- .... ....|R-- .... ....|--- .... ....
 G#4|..|G#2 2A.F ....|G#5 3F.A ....|--- .... ....
....|..|R-- .... ....|--- .... ....|--- .... ....
 G#4|..|G#2 2A.F ....|D#6 3F.7 ....|--- .... ....
....|..|--- .... ....|--- .... ....|R-- .... ....
....|..|--- .... ....|F#5 3F.A ....|--- .... ....
....|..|R-- .... ....|R-- .... ....|--- .... ....
....|..|G#1 2F.A ....|C#6 3F.7 ....|B-3 2F1A ....
....|..|--- .... ....|--- .... ....|--- .... ....
....|..|B-2 2F.7 ....|--- .... ....|--- .... ....
....|..|R-- .... ....|R-- .... ....|--- .... ....
 G#3|..|G#1 2A.F ....|A#5 3F.7 ....|B-3 2F97 ....
....|..|--- .... ....|R-- .... ....|--- .... ....
....|..|G#2 2F.A ....|G#5 3F.7 ....|--- .... ....
....|..|R-- .... ....|R-- .... ....|--- .... ....
....|..|G#2 2F.A ....|--- .... ....|--- .... ....
....|..|--- .... ....|--- .... ....|R-- .... ....
....|..|--- .... ....|F#5 3F.7 ....|--- .... ....
....|..|R-- .... ....|R-- .... ....|--- .... ....
 G#4|..|G#2 2A.F ....|G#5 3F.F ....|B-3 2F17 ....
....|..|--- .... ....|R-- .... ....|--- .... ....
....|..|--- .... ....|A#5 3F.F ....|--- .... ....
....|..|R-- .... ....|--- .... ....|--- .... ....
....|..|G#1 2F.A ....|--- .... ....|--- .... ....
....|..|--- .... ....|--- .... ....|R-- .... ....
....|..|G#2 2F.7 ....|--- .... ....|--- .... ....
....|..|R-- .... ....|R-- .... ....|--- .... ....
 C#4|..|C#2 2A.F ....|C#6 3F.F ....|C#4 2F9F ....
....|..|--- .... ....|--- .... ....|--- .... ....
....|..|--- .... ....|--- .... ....|--- .... ....
....|..|R-- .... ....|--- .... ....|--- .... ....
....|..|G#2 2F.A ....|G#5 3F.A ....|--- .... ....
....|..|--- .... ....|R-- .... ....|--- .... ....
 C#4|..|C#2 2A.F ....|A#5 3F.A ....|--- .... ....
....|..|R-- .... ....|--- .... ....|--- .... ....
 C#4|..|C#3 2C.F ....|--- .... ....|--- .... ....
....|..|--- .... ....|--- .... ....|R-- .... ....
....|..|--- .... ....|--- .... ....|--- .... ....
....|..|R-- .... ....|R-- .... ....|--- .... ....
....|..|C#2 2F.A ....|C#6 3F.A ....|C#4 2F9A ....
....|..|--- .... ....|--- .... ....|--- .... ....
 C#4|..|C#2 2A.F ....|--- .... ....|--- .... ....
....|..|R-- .... ....|--- .... ....|--- .... ....
 C#4|..|C#2 2A.F ....|G#5 3F.7 ....|--- .... ....
....|..|--- .... ....|R-- .... ....|--- .... ....
....|..|C#2 2F.A ....|A#5 3F.7 ....|--- .... ....
....|..|R-- .... ....|--- .... ....|--- .... ....
....|..|C#3 2F.A ....|D-6 3F.F ....|--- .... ....
....|..|--- .... ....|D#6 3F.F ....|R-- .... ....
 C#4|..|C#2 2A.F ....|--- .... ....|--- .... ....
....|..|R-- .... ....|R-- .... ....|--- .... ....
 C#4|..|C#3 2C.F ....|F#6 3F.F ....|C#4 2F97 ....
....|..|--- .... ....|--- .... ....|--- .... ....
....|..|C#2 2F.A ....|R-- .... ....|--- .... ....
....|..|R-- .... ....|--- .... ....|--- .... ....
....|..|C#2 2F.A ....|D#6 3F.F ....|--- .... ....
....|..|--- .... ....|--- .... ....|R-- .... ....
 C#4|..|C#2 2A.F ....|R-- .... ....|--- .... ....
....|..|R-- .... ....|--- .... ....|--- .... ....

[Pattern22]
 C#4|..|C#2 2A.F ....|C#6 3F.F ....|G#4 2F.F ....
....|..|--- .... ....|D#6 3F.A ....|--- .... ....
....|..|C#2 2F.A ....|--- .... ....|--- .... ....
....|..|R-- .... ....|R-- .... ....|--- .... ....
....|..|C#3 2F.A ....|F#6 3F.A ....|G#4 2F2F ....
....|..|--- .... ....|--- .... ....|--- .... ....
 C#4|..|C#2 2A.F ....|R-- .... ....|--- .... ....
....|..|R-- .... ....|--- .... ....|--- .... ....
 C#4|..|C#3 2C.F ....|D#6 3F.A ....|G#4 2FAF ....
....|..|--- .... ....|--- .... ....|R-- .... ....
....|..|C#2 2F.A ....|R-- .... ....|--- .... ....
....|..|R-- .... ....|--- .... ....|--- .... ....
....|..|C#2 2F.A ....|D-6 3F.7 ....|B-4 2F9F ....
....|..|--- .... ....|C-6 3F.F ....|--- .... ....
 C#4|..|C#2 2A.F ....|G#4 3F5F ....|--- .... ....
....|..|R-- .... ....|F-4 3F6F ....|--- .... ....
 C#4|..|C#2 2A.F ....|C#4 3F5F ....|B-4 2F1F ....
....|..|--- .... ....|A#4 3F5F ....|--- .... ....
....|..|C#2 2F.A ....|F#4 3F5F ....|--- .... ....
....|..|R-- .... ....|D#4 3F5F ....|--- .... ....
....|..|C#3 2F.A ....|C#5 6F.F ....|B-4 2F1F ....
....|..|--- .... ....|R-- .... ....|R-- .... ....
 C#4|..|C#2 2A.F ....|R-- .... ....|--- .... ....
....|..|R-- .... ....|--- .... ....|--- .... ....
 C#4|..|C#2 2A.F ....|C#6 3F.7 ....|B-4 2F1F ....
....|..|--- .... ....|C-6 3F.A ....|--- .... ....
....|..|C#2 2F.A ....|G#4 3F5A ....|--- .... ....
....|..|R-- .... ....|F-4 3F6A ....|--- .... ....
....|..|C#2 2F.A ....|C#4 3F5A ....|G#4 2F2F ....
....|..|--- .... ....|A#4 3F5A ....|--- .... ....
....|..|C#2 2F.7 ....|F#4 3F5A ....|D#6 2F.F ....
....|..|R-- .... ....|D#4 3F5A ....|D#6 2F.F ....
 F#3|..|F#1 2A.F ....|F#4 6F1F ....|F#4 2F1F ....
....|..|--- .... ....|R-- .... ....|--- .... ....
....|..|C#2 2F.A ....|--- .... ....|--- .... ....
....|..|R-- .... ....|--- .... ....|--- .... ....
....|..|C#2 2F.A ....|--- .... ....|B-4 2F97 ....
....|..|--- .... ....|C-6 3F.7 ....|--- .... ....
 F#4|..|F#2 2A.F ....|G#4 3F57 ....|--- .... ....
....|..|R-- .... ....|F-4 3F67 ....|--- .... ....
 F#4|..|F#2 2A.F ....|C#4 3F57 ....|B-4 2F17 ....
....|..|--- .... ....|A#4 3F57 ....|--- .... ....
....|..|--- .... ....|F#4 3F57 ....|D#6 2F.A ....
....|..|R-- .... ....|D#4 3F57 ....|D#6 2F.A ....
....|..|F#1 2F.A ....|F-6 3F.F ....|B-4 2F17 ....
....|..|--- .... ....|F#6 3F.F ....|--- .... ....
 F#3|..|F#1 2A.F ....|--- .... ....|--- .... ....
....|..|R-- .... ....|R-- .... ....|--- .... ....
 F#3|..|F#1 2A.F ....|F-6 3F.F ....|B-4 2F17 ....
....|..|--- .... ....|--- .... ....|--- .... ....
....|..|F#2 2F.A ....|--- .... ....|--- .... ....
....|..|R-- .... ....|--- .... ....|--- .... ....
....|..|F#2 2F.A ....|R-- .... ....|G#4 2F27 ....
....|..|--- .... ....|R-- .... ....|--- .... ....
 F#4|..|F#2 2A.F ....|C#6 3F.F ....|D#6 2F.7 ....
....|..|R-- .... ....|R-- .... ....|D#6 2F.7 ....
 F#4|..|F#2 2A.F ....|F#4 6F17 ....|F#4 2F17 ....
....|..|--- .... ....|F#6 3F.A ....|--- .... ....
....|..|F#1 2F.A ....|--- .... ....|--- .... ....
....|..|R-- .... ....|R-- .... ....|--- .... ....
....|..|F#1 2F.A ....|A#4 3F7F ....|--- .... ....
....|..|--- .... ....|--- .... ....|R-- .... ....
....|..|F#2 2F.7 ....|R-- .... ....|--- .... ....
....|..|R-- .... ....|R-- .... ....|--- .... ....

[Pattern23]
 G#3|..|G#1 2A.F ....|G#4 6F1F ....|G#4 2F1F ....
....|..|--- .... ....|R-- .... ....|--- .... ....
....|..|F#2 2F.A ....|C#6 3F.A ....|--- .... ....
....|..|R-- .... ....|--- .... ....|--- .... ....
....|..|F#2 2F.A ....|F-6 3F.7 ....|--- .... ....
....|..|--- .... ....|F#6 3F.7 ....|--- .... ....
 G#4|..|G#2 2A.F ....|--- .... ....|--- .... ....
....|..|R-- .... ....|R-- .... ....|--- .... ....
 G#4|..|G#2 2A.F ....|F-6 3F.7 ....|--- .... ....
....|..|--- .... ....|--- .... ....|R-- .... ....
....|..|--- .... ....|R-- .... ....|--- .... ....
....|..|R-- .... ....|R-- .... ....|--- .... ....
....|..|G#1 2F.A ....|G#4 6F1A ....|G#4 2F1A ....
....|..|--- .... ....|--- .... ....|--- .... ....
....|..|F#2 2F.7 ....|C#6 3F.7 ....|--- .... ....
....|..|R-- .... ....|R-- .... ....|C-6 2F.F ....
 G#3|..|G#1 2A.F ....|G#5 6F.F ....|G#4 2F1F ....
....|..|--- .... ....|--- .... ....|--- .... ....
....|..|G#2 2F.A ....|--- .... ....|--- .... ....
....|..|R-- .... ....|--- .... ....|--- .... ....
....|..|G#2 2F.A ....|A#4 3F77 ....|--- .... ....
....|..|--- .... ....|--- .... ....|R-- .... ....
 G#4|..|G#2 2A.F ....|R-- .... ....|--- .... ....
....|..|R-- .... ....|R-- .... ....|--- .... ....
 G#4|..|G#2 2A.F ....|G#4 6F17 ....|G#4 2F17 ....
....|..|--- .... ....|--- .... ....|--- .... ....
....|..|--- .... ....|--- .... ....|--- .... ....
....|..|R-- .... ....|R-- .... ....|C-6 2F.A ....
....|..|G#1 2F.A ....|G#5 6F.A ....|G#4 2F1A ....
....|..|--- .... ....|--- .... ....|G#5 2F.F ....
....|..|G#2 2F.7 ....|--- .... ....|--- .... ....
....|..|R-- .... ....|R-- .... ....|R-- .... ....
 F-3|..|F-1 2A.F ....|F-5 6F.F ....|F-4 2F2F ....
....|..|--- .... ....|G#5 3F.F ....|--- .... ....
....|..|G#2 2F.A ....|--- .... ....|--- .... ....
....|..|R-- .... ....|--- .... ....|--- .... ....
....|..|G#2 2F.A ....|--- .... ....|--- .... ....
....|..|--- .... ....|--- .... ....|--- .... ....
 F-4|..|F-2 2A.F ....|--- .... ....|--- .... ....
....|..|R-- .... ....|R-- .... ....|C-6 2F.7 ....
 F-4|..|F-2 2A.F ....|G#5 6F.7 ....|G#4 2F17 ....
....|..|--- .... ....|--- .... ....|G#5 2F.A ....
....|..|--- .... ....|--- .... ....|--- .... ....
....|..|R-- .... ....|R-- .... ....|R-- .... ....
....|..|F-1 2F.A ....|A#5 3F.F ....|F-4 2F2A ....
....|..|--- .... ....|G#5 3F.A ....|--- .... ....
....|..|G#2 2F.7 ....|R-- .... ....|R-- .... ....
....|..|R-- .... ....|--- .... ....|--- .... ....
 A#3|..|A#1 2A.F ....|A#4 6F2F ....|C#4 2F1F ....
....|..|--- .... ....|R-- .... ....|--- .... ....
....|..|F-2 2F.A ....|G#5 3F.F ....|--- .... ....
....|..|R-- .... ....|--- .... ....|--- .... ....
....|..|F-2 2F.A ....|--- .... ....|--- .... ....
....|..|--- .... ....|R-- .... ....|G#5 2F.7 ....
 A#3|..|A#2 2C.F ....|F-5 3F.F ....|--- .... ....
....|..|R-- .... ....|R-- .... ....|R-- .... ....
 A#3|..|A#2 2C.F ....|F-5 6F.7 ....|F-4 2F27 ....
....|..|--- .... ....|G#5 3F.7 ....|--- .... ....
....|..|--- .... ....|G#5 3F.F ....|R-- .... ....
....|..|R-- .... ....|--- .... ....|--- .... ....
 A#3|..|A#1 2A.F ....|A#4 6F2A ....|C#4 2F1A ....
....|..|--- .... ....|R-- .... ....|--- .... ....
....|..|F-2 2F.7 ....|G#5 3F.A ....|R-- .... ....
....|..|R-- .... ....|G-5 3F.F ....|--- .... ....

[Pattern24]
 D#4|..|D#2 2A.F ....|D#5 6F.F ....|D#4 2F2F ....
....|..|--- .... ....|R-- .... ....|--- .... ....
....|..|A#2 2F.A ....|F-5 3F.A ....|--- .... ....
....|..|R-- .... ....|--- .... ....|--- .... ....
....|..|A#2 2F.A ....|A#5 3F.7 ....|--- .... ....
....|..|R-- .... ....|R-- .... ....|--- .... ....
 D#4|..|D#3 2C.F ....|G#5 3F.A ....|R-- .... ....
....|..|R-- .... ....|--- .... ....|--- .... ....
 D#4|..|D#3 2C.F ....|A#4 6F27 ....|C#4 2F17 ....
....|..|--- .... ....|R-- .... ....|--- .... ....
....|..|--- .... ....|G#5 3F.7 ....|R-- .... ....
....|..|R-- .... ....|G-5 3F.A ....|--- .... ....
....|..|D#2 2F.A ....|D#5 6F.A ....|D#4 2F2A ....
....|..|--- .... ....|R-- .... ....|--- .... ....
....|..|A#2 2F.7 ....|F-5 3F.7 ....|--- .... ....
....|..|R-- .... ....|--- .... ....|D#5 2F.F ....
 D#4|..|D#2 2A.F ....|--- .... ....|--- .... ....
....|..|R-- .... ....|R-- .... ....|--- .... ....
....|..|D#3 2F.A ....|G#5 3F.7 ....|--- .... ....
....|..|R-- .... ....|--- .... ....|--- .... ....
....|..|A#1 2F.7 ....|F#5 6F.F ....|D#4 2F5F ....
....|..|--- .... ....|--- .... ....|--- .... ....
....|..|--- .... ....|R-- .... ....|R-- .... ....
....|..|R-- .... ....|G-5 3F.7 ....|--- .... ....
 D#4|..|D#3 2C.F ....|D#5 6F.7 ....|D#4 2F2F ....
....|..|--- .... ....|--- .... ....|--- .... ....
....|..|--- .... ....|--- .... ....|--- .... ....
....|..|--- .... ....|--- .... ....|F#5 2F.F ....
 D#4|..|D#3 2C.F ....|D#5 6F.F ....|D#5 2F.F ....
....|..|R-- .... ....|--- .... ....|--- .... ....
....|..|D#3 2F.7 ....|--- .... ....|--- .... ....
....|..|R-- .... ....|R-- .... ....|--- .... ....
 B-3|..|B-1 2A.F ....|B-4 6F1F ....|B-4 2F9F ....
....|..|--- .... ....|--- .... ....|--- .... ....
....|..|--- .... ....|R-- .... ....|--- .... ....
....|..|R-- .... ....|--- .... ....|--- .... ....
....|..|D#3 2F.A ....|--- .... ....|D#4 2F2A ....
....|..|--- .... ....|--- .... ....|--- .... ....
 B-4|..|B-2 2A.F ....|--- .... ....|--- .... ....
....|..|R-- .... ....|--- .... ....|D#5 2F.7 ....
 B-4|..|B-2 2A.F ....|D#5 6F.A ....|D#5 2F.A ....
....|..|--- .... ....|--- .... ....|--- .... ....
....|..|--- .... ....|R-- .... ....|--- .... ....
....|..|R-- .... ....|R-- .... ....|--- .... ....
....|..|B-1 2F.A ....|F#5 3F.F ....|D#4 2F57 ....
....|..|--- .... ....|--- .... ....|--- .... ....
....|..|--- .... ....|R-- .... ....|--- .... ....
....|..|R-- .... ....|R-- .... ....|--- .... ....
 B-3|..|B-1 2A.F ....|F#4 6F.F ....|B-4 2F9F ....
....|..|--- .... ....|--- .... ....|--- .... ....
....|..|B-2 2F.A ....|--- .... ....|--- .... ....
....|..|R-- .... ....|R-- .... ....|F#5 2F.7 ....
....|..|D#3 2F.7 ....|C#6 3F.F ....|D#5 2F.7 ....
....|..|--- .... ....|--- .... ....|--- .... ....
 B-4|..|B-2 2A.F ....|R-- .... ....|--- .... ....
....|..|R-- .... ....|R-- .... ....|--- .... ....
 B-4|..|B-2 2A.F ....|A#5 3F.F ....|B-4 2F97 ....
....|..|--- .... ....|R-- .... ....|--- .... ....
....|..|--- .... ....|G#5 3F.F ....|--- .... ....
....|..|R-- .... ....|R-- .... ....|--- .... ....
....|..|B-1 2F.A ....|F#4 6F.A ....|B-4 2F9A ....
....|..|--- .... ....|--- .... ....|F#4 2F.F ....
....|..|B-2 2F.7 ....|F#5 3F.F ....|--- .... ....
....|..|R-- .... ....|R-- .... ....|R-- .... ....

[Pattern25]
 G#3|..|G#1 2A.F ....|G#4 6F.F ....|B-3 2F1F ....
....|..|--- .... ....|--- .... ....|--- .... ....
....|..|B-2 2F.A ....|R-- .... ....|--- .... ....
....|..|R-- .... ....|R-- .... ....|--- .... ....
....|..|B-2 2F.A ....|F#5 3F.7 ....|--- .... ....
....|..|--- .... ....|R-- .... ....|--- .... ....
 G#4|..|G#2 2A.F ....|G#5 3F.A ....|--- .... ....
....|..|R-- .... ....|R-- .... ....|--- .... ....
 G#4|..|G#2 2A.F ....|F#4 6F.7 ....|B-4 2F97 ....
....|..|--- .... ....|--- .... ....|F#4 2F.A ....
....|..|--- .... ....|F#5 3F.A ....|--- .... ....
....|..|R-- .... ....|R-- .... ....|R-- .... ....
....|..|G#1 2F.A ....|C#6 3F.7 ....|B-3 2F1A ....
....|..|--- .... ....|--- .... ....|--- .... ....
....|..|B-2 2F.7 ....|--- .... ....|--- .... ....
....|..|R-- .... ....|R-- .... ....|B-3 2F1F ....
 G#3|..|G#1 2A.F ....|G#4 6F.F ....|B-3 2F1F ....
....|..|--- .... ....|R-- .... ....|--- .... ....
....|..|G#2 2F.A ....|G#5 3F.7 ....|--- .... ....
....|..|R-- .... ....|R-- .... ....|--- .... ....
....|..|G#2 2F.A ....|--- .... ....|B-3 2F9F ....
....|..|--- .... ....|--- .... ....|F#4 2F.7 ....
....|..|--- .... ....|F#5 3F.7 ....|--- .... ....
....|..|R-- .... ....|R-- .... ....|F#4 2F.F ....
 G#4|..|G#2 2A.F ....|D#4 6F.F ....|B-3 2F1F ....
....|..|--- .... ....|R-- .... ....|--- .... ....
....|..|--- .... ....|A#5 3F.F ....|--- .... ....
....|..|R-- .... ....|R-- .... ....|B-3 2F1A ....
....|..|G#1 2F.A ....|F#4 6F.F ....|F#4 2F.F ....
....|..|--- .... ....|--- .... ....|--- .... ....
....|..|G#2 2F.7 ....|--- .... ....|--- .... ....
....|..|R-- .... ....|R-- .... ....|--- .... ....
 C#4|..|C#2 2A.F ....|C#6 3F.F ....|C#4 2F9F ....
....|..|--- .... ....|--- .... ....|--- .... ....
....|..|--- .... ....|--- .... ....|--- .... ....
....|..|R-- .... ....|--- .... ....|F#4 2F.A ....
....|..|G#2 2F.A ....|D#4 6F.A ....|C#4 2F5F ....
....|..|--- .... ....|R-- .... ....|--- .... ....
 C#4|..|C#3 2C.F ....|A#5 3F.A ....|--- .... ....
....|..|R-- .... ....|R-- .... ....|B-3 2F17 ....
 C#4|..|C#3 2C.F ....|G#4 6F.7 ....|C#4 2F9F ....
....|..|--- .... ....|--- .... ....|--- .... ....
....|..|--- .... ....|--- .... ....|--- .... ....
....|..|R-- .... ....|R-- .... ....|--- .... ....
....|..|C#2 2F.A ....|C#6 3F.A ....|F#4 2F5F ....
....|..|--- .... ....|--- .... ....|--- .... ....
....|..|--- .... ....|--- .... ....|--- .... ....
....|..|R-- .... ....|--- .... ....|F#4 2F.7 ....
 C#4|..|C#2 2A.F ....|D#4 6F.7 ....|B-3 2F17 ....
....|..|--- .... ....|R-- .... ....|--- .... ....
....|..|C#3 2F.A ....|A#5 3F.7 ....|--- .... ....
....|..|R-- .... ....|--- .... ....|--- .... ....
....|..|C#3 2F.A ....|D-5 3F6F ....|F#4 2F.7 ....
....|..|--- .... ....|--- .... ....|--- .... ....
 C#4|..|C#3 2C.F ....|--- .... ....|--- .... ....
....|..|R-- .... ....|R-- .... ....|C#4 2F.F ....
 C#4|..|C#3 2C.F ....|F#6 3F.F ....|G#4 2F.F ....
....|..|--- .... ....|--- .... ....|--- .... ....
....|..|--- .... ....|--- .... ....|--- .... ....
....|..|R-- .... ....|--- .... ....|--- .... ....
....|..|C#2 2F.A ....|D-5 3F8F ....|C#4 2F57 ....
....|..|--- .... ....|D#6 3F.F ....|C#4 2F.F ....
....|..|C#3 2F.7 ....|R-- .... ....|--- .... ....
....|..|R-- .... ....|R-- .... ....|R-- .... ....

[Pattern26]
 A#3|..|A#1 2A.F ....|F#4 6F1F ....|C#4 2F1F ....
....|..|--- .... ....|--- .... ....|--- .... ....
....|..|C#3 2F.A ....|--- .... ....|--- .... ....
....|..|R-- .... ....|--- .... ....|C#4 2F.A ....
....|..|C#3 2F.A ....|F#6 3F.A ....|F#4 2F57 ....
....|..|--- .... ....|--- .... ....|--- .... ....
 A#3|..|A#2 2C.F ....|--- .... ....|--- .... ....
....|..|R-- .... ....|--- .... ....|--- .... ....
 A#3|..|A#2 2C.F ....|D-5 3F8A ....|--- .... ....
....|..|--- .... ....|D#6 3F.A ....|C#4 2F.A ....
....|..|--- .... ....|R-- .... ....|--- .... ....
....|..|R-- .... ....|R-- .... ....|R-- .... ....
....|..|A#1 2F.A ....|D-5 3F67 ....|C#4 2F1A ....
....|..|--- .... ....|--- .... ....|--- .... ....
....|..|C#3 2F.7 ....|--- .... ....|A#5 2F.F ....
....|..|R-- .... ....|R-- .... ....|C#4 2F.7 ....
 A#3|..|A#1 2A.F ....|G#6 3F.F ....|D-4 2F2F ....
....|..|--- .... ....|--- .... ....|--- .... ....
....|..|A#2 2F.A ....|--- .... ....|--- .... ....
....|..|R-- .... ....|--- .... ....|--- .... ....
....|..|A#2 2F.A ....|D-5 3F87 ....|--- .... ....
....|..|--- .... ....|D#6 3F.7 ....|C#4 2F.7 ....
....|..|--- .... ....|--- .... ....|--- .... ....
....|..|R-- .... ....|R-- .... ....|A#5 2F.F ....
 A#3|..|A#2 2C.F ....|F#4 6F17 ....|A#5 2F.F ....
....|..|--- .... ....|--- .... ....|--- .... ....
....|..|--- .... ....|--- .... ....|A#5 2F.A ....
....|..|R-- .... ....|R-- .... ....|--- .... ....
 F-4|..|F-2 2A.F ....|G#6 3F.A ....|D-4 2F2A ....
....|..|--- .... ....|--- .... ....|--- .... ....
....|..|A#2 2F.7 ....|--- .... ....|--- .... ....
....|..|R-- .... ....|R-- .... ....|--- .... ....
 D#4|..|D#2 2A.F ....|D#5 6F.F ....|F#4 2F1F ....
....|..|--- .... ....|--- .... ....|--- .... ....
....|..|--- .... ....|--- .... ....|--- .... ....
....|..|R-- .... ....|--- .... ....|A#5 2F.A ....
....|..|A#2 2F.A ....|C-5 3F5F ....|A#5 2F.A ....
....|..|R-- .... ....|G#4 3F5F ....|--- .... ....
 A#3|..|A#2 2C.F ....|F-4 3F5F ....|A#5 2F.7 ....
....|..|R-- .... ....|D#5 3F.F ....|--- .... ....
....|..|A#1 2F.7 ....|F#5 3F.F ....|D-4 2F27 ....
....|..|--- .... ....|--- .... ....|--- .... ....
....|..|--- .... ....|--- .... ....|--- .... ....
....|..|R-- .... ....|R-- .... ....|--- .... ....
 A#3|..|A#1 2A.F ....|F-5 3F.F ....|F#4 2F1A ....
....|..|--- .... ....|R-- .... ....|--- .... ....
....|..|--- .... ....|F#5 3F.F ....|--- .... ....
....|..|R-- .... ....|--- .... ....|A#5 2F.7 ....
 D#4|..|D#2 2A.F ....|C-5 3F5A ....|A#5 2F.7 ....
....|..|R-- .... ....|G#4 3F5A ....|--- .... ....
....|..|A#2 2F.A ....|F-4 3F5A ....|--- .... ....
....|..|R-- .... ....|D#5 3F.A ....|--- .... ....
....|..|F-2 2F.7 ....|F-5 6F.F ....|--- .... ....
....|..|R-- .... ....|--- .... ....|--- .... ....
 A#3|..|A#2 2C.F ....|--- .... ....|--- .... ....
....|..|R-- .... ....|R-- .... ....|--- .... ....
....|..|D#2 2F.7 ....|F#5 6F.F ....|F#4 2F17 ....
....|..|--- .... ....|R-- .... ....|--- .... ....
....|..|--- .... ....|F#5 3F.A ....|--- .... ....
....|..|R-- .... ....|R-- .... ....|--- .... ....
 A#3|..|A#1 2A.F ....|A#4 3F.F ....|--- .... ....
....|..|R-- .... ....|G#4 3F57 ....|R-- .... ....
....|..|A#2 2F.7 ....|F-4 3F57 ....|--- .... ....
....|..|R-- .... ....|D#5 3F.7 ....|--- .... ....

[Pattern27]
 B-4|..|B-2 2A.F ....|F#4 6F1F ....|D#4 2F2F ....
....|..|R-- .... ....|R-- .... ....|--- .... ....
....|..|A#2 2F.A ....|--- .... ....|--- .... ....
....|..|--- .... ....|R-- .... ....|--- .... ....
....|..|A#1 2F.7 ....|D#5 3F.F ....|--- .... ....
....|..|R-- .... ....|R-- .... ....|--- .... ....
 F#4|..|F#2 2A.F ....|F#5 3F.7 ....|--- .... ....
....|..|R-- .... ....|R-- .... ....|--- .... ....
....|..|D#2 2F.7 ....|A#4 3F.A ....|--- .... ....
....|..|--- .... ....|--- .... ....|R-- .... ....
....|..|--- .... ....|--- .... ....|--- .... ....
....|..|R-- .... ....|R-- .... ....|--- .... ....
 F#4|..|F#2 2A.F ....|D#5 3F.F ....|D#4 2F2A ....
....|..|R-- .... ....|R-- .... ....|--- .... ....
....|..|A#2 2F.7 ....|--- .... ....|--- .... ....
....|..|--- .... ....|R-- .... ....|--- .... ....
 B-4|..|B-2 2A.F ....|F#5 6F.7 ....|--- .... ....
....|..|R-- .... ....|--- .... ....|--- .... ....
....|..|F#2 2F.A ....|--- .... ....|--- .... ....
....|..|--- .... ....|R-- .... ....|--- .... ....
....|..|A#1 2F.7 ....|A#4 3F.7 ....|--- .... ....
....|..|R-- .... ....|--- .... ....|R-- .... ....
 F#4|..|F#2 2A.F ....|--- .... ....|--- .... ....
....|..|R-- .... ....|R-- .... ....|--- .... ....
....|..|B-2 2F.7 ....|F#4 6F17 ....|D#4 2F27 ....
....|..|--- .... ....|R-- .... ....|--- .... ....
....|..|--- .... ....|--- .... ....|--- .... ....
....|..|R-- .... ....|--- .... ....|--- .... ....
 F#4|..|F#2 2A.F ....|D#5 3F.7 ....|--- .... ....
....|..|R-- .... ....|R-- .... ....|R-- .... ....
....|..|F#2 2F.7 ....|--- .... ....|--- .... ....
....|..|--- .... ....|R-- .... ....|--- .... ....
 D#4|..|D#2 2A.F ....|D#5 6F.F ....|D#4 2FAF ....
....|..|R-- .... ....|--- .... ....|--- .... ....
....|..|F#2 2F.A ....|--- .... ....|--- .... ....
....|..|--- .... ....|R-- .... ....|--- .... ....
....|..|F#2 2F.7 ....|D#5 3F.7 ....|--- .... ....
....|..|R-- .... ....|--- .... ....|--- .... ....
 A#3|..|A#2 2C.F ....|--- .... ....|--- .... ....
....|..|R-- .... ....|--- .... ....|--- .... ....
....|..|B-2 2F.7 ....|F#5 3F.F ....|--- .... ....
....|..|--- .... ....|R-- .... ....|R-- .... ....
....|..|--- .... ....|--- .... ....|--- .... ....
....|..|--- .... ....|R-- .... ....|--- .... ....
 A#3|..|A#1 2A.F ....|F-5 3F.F ....|D#4 2FAA ....
....|..|R-- .... ....|R-- .... ....|--- .... ....
....|..|F#2 2F.7 ....|F#5 3F.F ....|--- .... ....
....|..|R-- .... ....|--- .... ....|--- .... ....
 D#4|..|D#2 2A.F ....|--- .... ....|--- .... ....
....|..|R-- .... ....|--- .... ....|--- .... ....
....|..|A#2 2F.A ....|--- .... ....|--- .... ....
....|..|R-- .... ....|R-- .... ....|--- .... ....
....|..|F#2 2F.7 ....|F-5 6F.F ....|--- .... ....
....|..|R-- .... ....|R-- .... ....|R-- .... ....
 A#3|..|A#2 2C.F ....|--- .... ....|--- .... ....
....|..|--- .... ....|R-- .... ....|--- .... ....
....|..|D#2 2F.7 ....|F#5 6F.F ....|D#4 2FA7 ....
....|..|--- .... ....|R-- .... ....|--- .... ....
....|..|--- .... ....|F#5 3F.A ....|--- .... ....
....|..|R-- .... ....|R-- .... ....|--- .... ....
 A#3|..|A#1 2A.F ....|A#4 3F.F ....|--- .... ....
....|..|R-- .... ....|--- .... ....|R-- .... ....
....|..|A#2 2F.7 ....|--- .... ....|--- .... ....
....|..|R-- .... ....|R-- .... ....|--- .... ....

[Pattern28]
 B-4|..|B-2 2A.F ....|F#4 6F1F ....|D#4 2F2F ....
....|..|R-- .... ....|R-- .... ....|--- .... ....
....|..|A#2 2F.A ....|--- .... ....|--- .... ....
....|..|--- .... ....|R-- .... ....|--- .... ....
....|..|A#1 2F.7 ....|D#5 3F.F ....|--- .... ....
....|..|R-- .... ....|R-- .... ....|--- .... ....
 F#4|..|F#2 2A.F ....|F#5 3F.7 ....|--- .... ....
....|..|R-- .... ....|R-- .... ....|--- .... ....
....|..|D#2 2F.7 ....|A#4 3F.A ....|--- .... ....
....|..|--- .... ....|--- .... ....|R-- .... ....
....|..|--- .... ....|--- .... ....|--- .... ....
....|..|R-- .... ....|R-- .... ....|--- .... ....
 F#4|..|F#2 2A.F ....|D#5 3F.F ....|D#4 2F2A ....
....|..|R-- .... ....|R-- .... ....|--- .... ....
....|..|A#2 2F.7 ....|--- .... ....|--- .... ....
....|..|--- .... ....|R-- .... ....|--- .... ....
 B-4|..|B-2 2A.F ....|F#5 6F.7 ....|--- .... ....
....|..|R-- .... ....|--- .... ....|--- .... ....
....|..|F#2 2F.A ....|--- .... ....|--- .... ....
....|..|--- .... ....|R-- .... ....|--- .... ....
....|..|A#1 2F.7 ....|A#4 3F.7 ....|--- .... ....
....|..|R-- .... ....|--- .... ....|R-- .... ....
 F#4|..|F#2 2A.F ....|--- .... ....|--- .... ....
....|..|R-- .... ....|R-- .... ....|--- .... ....
....|..|B-2 2F.7 ....|F#5 6F.F ....|D#4 2F27 ....
....|..|--- .... ....|R-- .... ....|--- .... ....
....|..|--- .... ....|--- .... ....|--- .... ....
....|..|R-- .... ....|--- .... ....|--- .... ....
 F#4|..|F#2 2A.F ....|D#5 3F.7 ....|--- .... ....
....|..|R-- .... ....|R-- .... ....|R-- .... ....
....|..|F#2 2F.7 ....|--- .... ....|--- .... ....
....|..|--- .... ....|--- .... ....|--- .... ....
 B-4|..|B-2 2A.F ....|--- .... ....|D#4 2F2F ....
....|..|R-- .... ....|--- .... ....|--- .... ....
....|..|F#2 2F.A ....|--- .... ....|--- .... ....
....|..|R-- .... ....|R-- .... ....|--- .... ....
....|..|F#2 2F.7 ....|D#5 3F.7 ....|--- .... ....
....|..|--- .... ....|--- .... ....|--- .... ....
 B-4|..|B-2 2A.F ....|--- .... ....|--- .... ....
....|..|R-- .... ....|--- .... ....|--- .... ....
 F#4|..|F#2 2A.F ....|D#5 3F.F ....|--- .... ....
....|..|--- .... ....|R-- .... ....|R-- .... ....
....|..|--- .... ....|--- .... ....|--- .... ....
....|..|R-- .... ....|R-- .... ....|--- .... ....
....|..|B-2 2F.A ....|F-5 3F.F ....|D#4 2F2A ....
....|..|R-- .... ....|--- .... ....|--- .... ....
....|..|F#2 2F.7 ....|--- .... ....|--- .... ....
....|..|R-- .... ....|R-- .... ....|--- .... ....
 B-4|..|B-2 2A.F ....|F#5 3F.F ....|--- .... ....
....|..|--- .... ....|--- .... ....|--- .... ....
....|..|B-2 2F.A ....|R-- .... ....|--- .... ....
....|..|R-- .... ....|--- .... ....|--- .... ....
....|..|F#2 2F.7 ....|F#5 6F.F ....|--- .... ....
....|..|--- .... ....|R-- .... ....|R-- .... ....
 B-4|..|B-2 2A.F ....|D#5 3F.F ....|--- .... ....
....|..|R-- .... ....|R-- .... ....|--- .... ....
 A#3|..|A#2 2C.F ....|F-5 6F.F ....|D#4 2F27 ....
....|..|--- .... ....|--- .... ....|--- .... ....
....|..|--- .... ....|--- .... ....|--- .... ....
....|..|R-- .... ....|R-- .... ....|--- .... ....
....|..|B-2 2F.A ....|F#5 3F.A ....|--- .... ....
....|..|--- .... ....|--- .... ....|R-- .... ....
....|..|B-2 2F.7 ....|R-- .... ....|--- .... ....
....|..|R-- .... ....|R-- .... ....|--- .... ....

[Pattern29]
 G#4|..|G#2 2A.F ....|B-4 6F1F ....|G#4 2F2F ....
....|..|--- .... ....|R-- .... ....|--- .... ....
....|..|B-2 2F.A ....|D#5 3F.A ....|--- .... ....
....|..|R-- .... ....|R-- .... ....|--- .... ....
....|..|A#2 2F.A ....|F-5 3F.7 ....|--- .... ....
....|..|--- .... ....|--- .... ....|--- .... ....
 G#4|..|G#2 2A.F ....|--- .... ....|--- .... ....
....|..|R-- .... ....|R-- .... ....|--- .... ....
 D#4|..|D#2 2A.F ....|F-5 3F.F ....|--- .... ....
....|..|--- .... ....|--- .... ....|R-- .... ....
....|..|--- .... ....|R-- .... ....|--- .... ....
....|..|R-- .... ....|R-- .... ....|--- .... ....
....|..|G#2 2F.A ....|F#5 3F.F ....|G#4 2F2A ....
....|..|--- .... ....|R-- .... ....|--- .... ....
....|..|B-2 2F.7 ....|G#5 3F.F ....|--- .... ....
....|..|R-- .... ....|--- .... ....|--- .... ....
 G#4|..|G#2 2A.F ....|F-5 6F.7 ....|--- .... ....
....|..|--- .... ....|--- .... ....|--- .... ....
....|..|G#2 2F.A ....|--- .... ....|--- .... ....
....|..|R-- .... ....|R-- .... ....|--- .... ....
....|..|D#2 2F.A ....|F#5 6F.F ....|--- .... ....
....|..|--- .... ....|--- .... ....|R-- .... ....
 G#4|..|G#2 2A.F ....|--- .... ....|--- .... ....
....|..|R-- .... ....|R-- .... ....|--- .... ....
 D#4|..|D#2 2A.F ....|F-5 3F.F ....|G#4 2F27 ....
....|..|--- .... ....|R-- .... ....|--- .... ....
....|..|--- .... ....|D#5 3F.F ....|--- .... ....
....|..|R-- .... ....|--- .... ....|--- .... ....
....|..|G#2 2F.A ....|F#5 6F.F ....|--- .... ....
....|..|--- .... ....|R-- .... ....|R-- .... ....
....|..|G#2 2F.7 ....|C#5 3F.F ....|--- .... ....
....|..|R-- .... ....|R-- .... ....|--- .... ....
 A#3|..|A#2 2C.F ....|A#4 6F2F ....|C#4 2F1F ....
....|..|--- .... ....|--- .... ....|--- .... ....
....|..|G#2 2F.A ....|--- .... ....|--- .... ....
....|..|R-- .... ....|R-- .... ....|--- .... ....
....|..|D#2 2F.A ....|F#5 3F.7 ....|--- .... ....
....|..|--- .... ....|R-- .... ....|--- .... ....
 A#3|..|A#2 2C.F ....|G#5 3F.7 ....|--- .... ....
....|..|R-- .... ....|--- .... ....|--- .... ....
 F-4|..|F-2 2A.F ....|F#5 6F.A ....|--- .... ....
....|..|--- .... ....|R-- .... ....|R-- .... ....
....|..|--- .... ....|C#5 3F.A ....|--- .... ....
....|..|R-- .... ....|R-- .... ....|--- .... ....
....|..|A#2 2F.A ....|F#5 6F.7 ....|C#4 2F1A ....
....|..|--- .... ....|--- .... ....|--- .... ....
....|..|G#2 2F.7 ....|--- .... ....|--- .... ....
....|..|R-- .... ....|R-- .... ....|--- .... ....
 A#3|..|A#2 2C.F ....|F-5 3F.7 ....|--- .... ....
....|..|--- .... ....|R-- .... ....|--- .... ....
....|..|A#2 2F.A ....|D#5 3F.7 ....|--- .... ....
....|..|R-- .... ....|--- .... ....|--- .... ....
....|..|F-2 2F.A ....|F#5 6F.7 ....|--- .... ....
....|..|--- .... ....|R-- .... ....|R-- .... ....
 A#3|..|A#2 2C.F ....|C#5 3F.7 ....|--- .... ....
....|..|R-- .... ....|R-- .... ....|--- .... ....
 F-4|..|F-2 2A.F ....|A#4 3F.F ....|C#4 2F17 ....
....|..|--- .... ....|R-- .... ....|--- .... ....
....|..|--- .... ....|C#5 3F.F ....|--- .... ....
....|..|R-- .... ....|--- .... ....|--- .... ....
....|..|A#2 2F.A ....|--- .... ....|--- .... ....
....|..|--- .... ....|--- .... ....|R-- .... ....
....|..|A#2 2F.7 ....|--- .... ....|--- .... ....
....|..|R-- .... ....|R-- .... ....|--- .... ....

[Pattern30]
 D#4|..|D#2 2A.F ....|D#5 6F.F ....|D#4 2FAF ....
....|..|--- .... ....|--- .... ....|--- .... ....
....|..|A#2 2F.A ....|--- .... ....|--- .... ....
....|..|R-- .... ....|--- .... ....|--- .... ....
....|..|F-2 2F.A ....|A#4 3F.A ....|--- .... ....
....|..|--- .... ....|R-- .... ....|--- .... ....
 D#4|..|D#2 2A.F ....|C#5 3F.A ....|--- .... ....
....|..|R-- .... ....|--- .... ....|--- .... ....
 A#3|..|A#1 2A.F ....|--- .... ....|--- .... ....
....|..|--- .... ....|--- .... ....|R-- .... ....
....|..|--- .... ....|--- .... ....|--- .... ....
....|..|R-- .... ....|R-- .... ....|--- .... ....
....|..|D#2 2F.A ....|D#5 6F.A ....|D#4 2FAA ....
....|..|--- .... ....|--- .... ....|--- .... ....
....|..|A#2 2F.7 ....|--- .... ....|--- .... ....
....|..|R-- .... ....|--- .... ....|--- .... ....
 D#4|..|D#2 2A.F ....|A#4 3F.7 ....|--- .... ....
....|..|--- .... ....|R-- .... ....|--- .... ....
....|..|D#2 2F.A ....|C#5 3F.7 ....|--- .... ....
....|..|R-- .... ....|--- .... ....|--- .... ....
....|..|A#1 2F.A ....|--- .... ....|--- .... ....
....|..|--- .... ....|--- .... ....|R-- .... ....
 D#4|..|D#2 2A.F ....|--- .... ....|--- .... ....
....|..|R-- .... ....|R-- .... ....|--- .... ....
 A#3|..|A#1 2A.F ....|D#5 6F.7 ....|D#4 2FA7 ....
....|..|--- .... ....|--- .... ....|--- .... ....
....|..|--- .... ....|--- .... ....|--- .... ....
....|..|R-- .... ....|R-- .... ....|--- .... ....
....|..|D#2 2F.A ....|C#5 3F.F ....|--- .... ....
....|..|--- .... ....|R-- .... ....|R-- .... ....
....|..|D#2 2F.7 ....|C#5 3F.F ....|--- .... ....
....|..|R-- .... ....|R-- .... ....|--- .... ....
 B-4|..|B-2 2A.F ....|D#4 6F2F ....|B-3 2F9F ....
....|..|--- .... ....|--- .... ....|--- .... ....
....|..|D#2 2F.A ....|B-4 3F.F ....|--- .... ....
....|..|R-- .... ....|R-- .... ....|--- .... ....
....|..|A#1 2F.A ....|B-4 3F.F ....|--- .... ....
....|..|--- .... ....|--- .... ....|--- .... ....
 B-4|..|B-2 2A.F ....|--- .... ....|--- .... ....
....|..|R-- .... ....|R-- .... ....|--- .... ....
 F#4|..|F#2 2A.F ....|C#5 3F.A ....|--- .... ....
....|..|--- .... ....|R-- .... ....|R-- .... ....
....|..|--- .... ....|C#5 3F.A ....|--- .... ....
....|..|R-- .... ....|R-- .... ....|--- .... ....
....|..|B-2 2F.A ....|D#4 6F2A ....|B-3 2F9A ....
....|..|--- .... ....|--- .... ....|--- .... ....
....|..|D#2 2F.7 ....|B-4 3F.A ....|--- .... ....
....|..|R-- .... ....|R-- .... ....|--- .... ....
 B-4|..|B-2 2A.F ....|B-4 3F.A ....|--- .... ....
....|..|--- .... ....|--- .... ....|--- .... ....
....|..|B-2 2F.A ....|--- .... ....|--- .... ....
....|..|R-- .... ....|R-- .... ....|--- .... ....
....|..|F#2 2F.A ....|F-4 6F.F ....|--- .... ....
....|..|--- .... ....|R-- .... ....|R-- .... ....
 B-4|..|B-2 2A.F ....|C#5 3F.7 ....|--- .... ....
....|..|R-- .... ....|R-- .... ....|--- .... ....
 A#3|..|A#2 2C.F ....|F#4 6F.F ....|B-3 2F97 ....
....|..|--- .... ....|--- .... ....|--- .... ....
....|..|--- .... ....|B-4 3F.7 ....|--- .... ....
....|..|R-- .... ....|R-- .... ....|--- .... ....
....|..|B-2 2F.A ....|B-4 3F.7 ....|--- .... ....
....|..|--- .... ....|--- .... ....|R-- .... ....
....|..|B-2 2F.7 ....|--- .... ....|--- .... ....
....|..|R-- .... ....|R-- .... ....|--- .... ....

[Pattern31]
 G#4|..|G#2 2A.F ....|G#4 6F.F ....|B-3 2F1F ....
....|..|--- .... ....|--- .... ....|--- .... ....
....|..|B-2 2F.A ....|R-- .... ....|--- .... ....
....|..|R-- .... ....|--- .... ....|--- .... ....
....|..|A#2 2F.A ....|F#4 6F.A ....|--- .... ....
....|..|--- .... ....|--- .... ....|--- .... ....
 G#4|..|G#2 2A.F ....|--- .... ....|--- .... ....
....|..|R-- .... ....|--- .... ....|--- .... ....
 D#4|..|D#2 2A.F ....|F#4 6F.F ....|--- .... ....
....|..|--- .... ....|--- .... ....|R-- .... ....
....|..|--- .... ....|--- .... ....|--- .... ....
....|..|R-- .... ....|R-- .... ....|--- .... ....
....|..|G#2 2F.A ....|B-4 3F.F ....|B-3 2F1A ....
....|..|--- .... ....|--- .... ....|--- .... ....
....|..|B-2 2F.7 ....|R-- .... ....|--- .... ....
....|..|R-- .... ....|R-- .... ....|--- .... ....
 G#4|..|G#2 2A.F ....|A#5 3F.F ....|--- .... ....
....|..|--- .... ....|--- .... ....|--- .... ....
....|..|G#2 2F.A ....|R-- .... ....|--- .... ....
....|..|R-- .... ....|--- .... ....|--- .... ....
....|..|D#2 2F.A ....|A#5 3F.F ....|--- .... ....
....|..|--- .... ....|--- .... ....|R-- .... ....
 G#4|..|G#2 2A.F ....|R-- .... ....|--- .... ....
....|..|R-- .... ....|R-- .... ....|--- .... ....
 D#4|..|D#2 2A.F ....|G#5 3F.F ....|B-3 2F17 ....
....|..|--- .... ....|R-- .... ....|--- .... ....
....|..|--- .... ....|F#5 3F.F ....|--- .... ....
....|..|R-- .... ....|R-- .... ....|--- .... ....
....|..|G#2 2F.A ....|A#5 3F.A ....|--- .... ....
....|..|--- .... ....|--- .... ....|R-- .... ....
....|..|G#2 2F.7 ....|R-- .... ....|--- .... ....
....|..|R-- .... ....|R-- .... ....|--- .... ....
 C#4|..|C#2 2A.F ....|G#5 3F.F ....|C#4 2F9F ....
....|..|--- .... ....|--- .... ....|--- .... ....
....|..|G#2 2F.A ....|R-- .... ....|--- .... ....
....|..|R-- .... ....|R-- .... ....|--- .... ....
....|..|D#2 2F.A ....|B-4 3F.7 ....|--- .... ....
....|..|--- .... ....|R-- .... ....|--- .... ....
 C#4|..|C#2 2A.F ....|F#5 3F.A ....|--- .... ....
....|..|R-- .... ....|R-- .... ....|--- .... ....
 G#3|..|G#1 2A.F ....|A#5 3F.7 ....|--- .... ....
....|..|--- .... ....|--- .... ....|R-- .... ....
....|..|--- .... ....|R-- .... ....|--- .... ....
....|..|R-- .... ....|R-- .... ....|--- .... ....
....|..|C#2 2F.A ....|A#5 3F.7 ....|C#4 2F9A ....
....|..|--- .... ....|--- .... ....|--- .... ....
....|..|G#2 2F.7 ....|R-- .... ....|--- .... ....
....|..|R-- .... ....|R-- .... ....|--- .... ....
 C#4|..|C#2 2A.F ....|G#5 3F.7 ....|--- .... ....
....|..|--- .... ....|R-- .... ....|--- .... ....
....|..|C#2 2F.A ....|F#5 3F.7 ....|--- .... ....
....|..|R-- .... ....|--- .... ....|--- .... ....
....|..|G#1 2F.A ....|D#5 3F.F ....|--- .... ....
....|..|--- .... ....|--- .... ....|R-- .... ....
 C#4|..|C#2 2A.F ....|--- .... ....|--- .... ....
....|..|R-- .... ....|R-- .... ....|--- .... ....
 G#3|..|G#1 2A.F ....|F#5 3F.F ....|C#4 2F97 ....
....|..|--- .... ....|--- .... ....|--- .... ....
....|..|--- .... ....|--- .... ....|--- .... ....
....|..|R-- .... ....|R-- .... ....|--- .... ....
....|..|C#2 2F.A ....|G#5 3F.F ....|--- .... ....
....|..|--- .... ....|--- .... ....|R-- .... ....
....|..|C#2 2F.7 ....|--- .... ....|--- .... ....
....|..|R-- .... ....|--- .... ....|--- .... ....

[Pattern32]
 C#4|..|C#2 2A.F ....|D#5 3F.A ....|C#4 2F.F ....
....|..|--- .... ....|--- .... ....|--- .... ....
....|..|C#2 2F.A ....|--- .... ....|--- .... ....
....|..|R-- .... ....|R-- .... ....|--- .... ....
....|..|G#1 2F.A ....|A#5 3F.F ....|--- .... ....
....|..|R-- .... ....|--- .... ....|--- .... ....
 C#4|..|C#2 2A.F ....|--- .... ....|D#4 2F.F ....
....|..|R-- .... ....|R-- .... ....|--- .... ....
....|..|C#2 2F.7 ....|G#5 3F.A ....|--- .... ....
....|..|--- .... ....|--- .... ....|R-- .... ....
....|..|--- .... ....|--- .... ....|--- .... ....
....|..|R-- .... ....|R-- .... ....|--- .... ....
 C#4|..|C#2 2A.F ....|G#5 3F.F ....|F#4 2F.F ....
....|..|--- .... ....|--- .... ....|--- .... ....
....|..|C#2 2F.7 ....|--- .... ....|--- .... ....
....|..|R-- .... ....|R-- .... ....|--- .... ....
....|..|G#1 2F.7 ....|F#5 3F.7 ....|--- .... ....
....|..|R-- .... ....|--- .... ....|--- .... ....
 C#4|..|C#2 2A.F ....|--- .... ....|G#4 2F.F ....
....|..|R-- .... ....|R-- .... ....|--- .... ....
....|..|--- .... ....|G#5 3F.7 ....|--- .... ....
....|..|--- .... ....|--- .... ....|R-- .... ....
....|..|--- .... ....|--- .... ....|--- .... ....
....|..|R-- .... ....|R-- .... ....|--- .... ....
 C#4|..|C#2 2A.F ....|G#5 3F.A ....|A#4 2F.F ....
....|..|--- .... ....|--- .... ....|--- .... ....
....|..|R-- .... ....|--- .... ....|R-- .... ....
....|..|--- .... ....|R-- .... ....|--- .... ....
 G#3|..|G#1 2A.F ....|A#5 3F.7 ....|C#5 2F.F ....
....|..|R-- .... ....|--- .... ....|--- .... ....
....|..|C#2 2F.7 ....|--- .... ....|D#4 2F.7 ....
....|..|--- .... ....|--- .... ....|--- .... ....
 C#4|..|C#2 2A.F ....|C#6 6F.F ....|D#5 2F.F ....
....|..|--- .... ....|--- .... ....|--- .... ....
....|..|--- .... ....|--- .... ....|--- .... ....
....|..|R-- .... ....|R-- .... ....|--- .... ....
....|..|C#2 2F.7 ....|G#5 3F.7 ....|F#4 2F.7 ....
....|..|R-- .... ....|--- .... ....|--- .... ....
 C#4|..|C#2 2A.F ....|--- .... ....|F#5 2F.F ....
....|..|--- .... ....|--- .... ....|--- .... ....
....|..|G#1 2F.A ....|--- .... ....|C#5 2F.A ....
....|..|R-- .... ....|--- .... ....|--- .... ....
....|..|C#2 2F.7 ....|--- .... ....|G#4 2F.7 ....
....|..|R-- .... ....|--- .... ....|--- .... ....
 C#4|..|C#2 2A.F ....|C#6 6F.A ....|G#5 2F.F ....
....|..|--- .... ....|--- .... ....|--- .... ....
....|..|--- .... ....|--- .... ....|--- .... ....
....|..|R-- .... ....|--- .... ....|--- .... ....
....|..|C#2 2F.7 ....|--- .... ....|A#4 2F.7 ....
....|..|R-- .... ....|--- .... ....|--- .... ....
 C#4|..|C#2 2A.F ....|R-- .... ....|A#5 2F.F ....
....|..|--- .... ....|--- .... ....|--- .... ....
....|..|G#1 2F.7 ....|--- .... ....|C#5 2F.7 ....
....|..|--- .... ....|--- .... ....|--- .... ....
....|..|R-- .... ....|--- .... ....|R-- .... ....
....|..|R-- .... ....|--- .... ....|--- .... ....
 C#4|..|C#2 2A.F ....|C#6 6F.7 ....|C#6 2F.F ....
....|..|--- .... ....|--- .... ....|--- .... ....
....|..|R-- .... ....|--- .... ....|R-- .... ....
....|..|--- .... ....|--- .... ....|--- .... ....
 D-4|..|D-2 2A.F ....|--- .... ....|D-6 2F.F ....
....|..|R-- .... ....|--- .... ....|--- .... ....
....|..|C#2 2F.7 ....|R-- .... ....|F#5 2F.7 ....
....|..|--- .... ....|--- .... ....|--- .... ....

[Pattern33]
 D#4|..|D#2 2A.F ....|D#6 6F.F ....|D#6 2F.F ....
....|..|--- .... ....|--- .... ....|--- .... ....
....|..|--- .... ....|--- .... ....|--- .... ....
....|..|R-- .... ....|--- .... ....|--- .... ....
....|..|C#2 2F.7 ....|--- .... ....|G#5 2F.7 ....
....|..|R-- .... ....|--- .... ....|--- .... ....
 A#3|..|A#2 2C.F ....|--- .... ....|R-- .... ....
....|..|--- .... ....|--- .... ....|--- .... ....
....|..|D-2 2F.A ....|F#5 3F.F ....|D-6 2F.A ....
....|..|R-- .... ....|--- .... ....|--- .... ....
....|..|C#2 2F.7 ....|R-- .... ....|A#5 2F.7 ....
....|..|--- .... ....|--- .... ....|--- .... ....
 A#3|..|A#1 2A.F ....|F-5 3F.F ....|D#6 2F.A ....
....|..|--- .... ....|--- .... ....|--- .... ....
....|..|--- .... ....|--- .... ....|--- .... ....
....|..|R-- .... ....|R-- .... ....|--- .... ....
 D#4|..|D#2 2A.F ....|F#5 3F.F ....|C#6 2F.7 ....
....|..|R-- .... ....|--- .... ....|--- .... ....
....|..|A#2 2F.A ....|--- .... ....|R-- .... ....
....|..|--- .... ....|--- .... ....|--- .... ....
....|..|D-2 2F.7 ....|F-5 3F.F ....|D-6 2F.7 ....
....|..|R-- .... ....|--- .... ....|--- .... ....
 A#3|..|A#2 2C.F ....|--- .... ....|R-- .... ....
....|..|--- .... ....|--- .... ....|--- .... ....
....|..|D#2 2F.7 ....|C#5 3F.F ....|D#6 2F.7 ....
....|..|--- .... ....|--- .... ....|--- .... ....
....|..|--- .... ....|--- .... ....|--- .... ....
....|..|R-- .... ....|R-- .... ....|--- .... ....
 A#3|..|A#1 2A.F ....|A#4 3F.F ....|--- .... ....
....|..|R-- .... ....|--- .... ....|--- .... ....
....|..|A#2 2F.7 ....|--- .... ....|--- .... ....
....|..|R-- .... ....|--- .... ....|--- .... ....
 B-4|..|B-2 2A.F ....|C#5 3F.F ....|D#4 2F2F ....
....|..|R-- .... ....|--- .... ....|--- .... ....
....|..|A#2 2F.A ....|--- .... ....|--- .... ....
....|..|--- .... ....|--- .... ....|--- .... ....
....|..|A#1 2F.7 ....|D#5 3F.F ....|--- .... ....
....|..|R-- .... ....|--- .... ....|--- .... ....
 F#4|..|F#2 2A.F ....|--- .... ....|--- .... ....
....|..|R-- .... ....|R-- .... ....|--- .... ....
....|..|D#2 2F.7 ....|F#5 3F.7 ....|--- .... ....
....|..|--- .... ....|--- .... ....|--- .... ....
....|..|--- .... ....|--- .... ....|--- .... ....
....|..|R-- .... ....|R-- .... ....|--- .... ....
 F#4|..|F#2 2A.F ....|D#5 3F.F ....|D#4 2F2A ....
....|..|R-- .... ....|--- .... ....|--- .... ....
....|..|A#2 2F.7 ....|--- .... ....|--- .... ....
....|..|--- .... ....|--- .... ....|--- .... ....
 B-4|..|B-2 2A.F ....|C#5 3F.7 ....|--- .... ....
....|..|R-- .... ....|--- .... ....|--- .... ....
....|..|F#2 2F.A ....|--- .... ....|--- .... ....
....|..|--- .... ....|--- .... ....|--- .... ....
....|..|A#1 2F.7 ....|A#4 3F.7 ....|--- .... ....
....|..|R-- .... ....|--- .... ....|--- .... ....
 F#4|..|F#2 2A.F ....|--- .... ....|--- .... ....
....|..|R-- .... ....|R-- .... ....|--- .... ....
....|..|B-2 2F.7 ....|C#5 3F.7 ....|D#4 2F27 ....
....|..|--- .... ....|--- .... ....|--- .... ....
....|..|--- .... ....|--- .... ....|--- .... ....
....|..|R-- .... ....|--- .... ....|--- .... ....
 B-4|..|B-2 2A.F ....|D#5 3F.7 ....|--- .... ....
....|..|R-- .... ....|R-- .... ....|R-- .... ....
....|..|F#2 2F.7 ....|--- .... ....|--- .... ....
....|..|--- .... ....|--- .... ....|--- .... ....

[Pattern34]
 D#4|..|D#2 2A.F ....|D#6 6F.F ....|D#4 2FAF ....
....|..|R-- .... ....|--- .... ....|--- .... ....
....|..|F#2 2F.A ....|--- .... ....|--- .... ....
....|..|--- .... ....|R-- .... ....|--- .... ....
....|..|F#2 2F.7 ....|D#5 3F.7 ....|--- .... ....
....|..|R-- .... ....|--- .... ....|--- .... ....
 A#3|..|A#2 2C.F ....|--- .... ....|--- .... ....
....|..|R-- .... ....|--- .... ....|--- .... ....
....|..|B-2 2F.7 ....|F#5 3F.F ....|--- .... ....
....|..|--- .... ....|R-- .... ....|R-- .... ....
....|..|--- .... ....|--- .... ....|--- .... ....
....|..|--- .... ....|--- .... ....|--- .... ....
 A#3|..|A#1 2A.F ....|F-5 3F.F ....|D#4 2FAA ....
....|..|R-- .... ....|R-- .... ....|--- .... ....
....|..|F#2 2F.7 ....|F#5 3F.F ....|--- .... ....
....|..|R-- .... ....|--- .... ....|--- .... ....
 D#4|..|D#2 2A.F ....|--- .... ....|--- .... ....
....|..|R-- .... ....|--- .... ....|--- .... ....
....|..|A#2 2F.A ....|--- .... ....|--- .... ....
....|..|R-- .... ....|--- .... ....|--- .... ....
....|..|B-2 2F.7 ....|F-5 3F.F ....|--- .... ....
....|..|R-- .... ....|R-- .... ....|R-- .... ....
 A#3|..|A#2 2C.F ....|--- .... ....|--- .... ....
....|..|--- .... ....|--- .... ....|--- .... ....
....|..|D#2 2F.7 ....|C#5 3F.F ....|D#4 2FA7 ....
....|..|--- .... ....|R-- .... ....|--- .... ....
....|..|--- .... ....|F#5 3F.A ....|--- .... ....
....|..|R-- .... ....|--- .... ....|--- .... ....
 A#3|..|A#1 2A.F ....|A#4 3F.F ....|--- .... ....
....|..|R-- .... ....|--- .... ....|R-- .... ....
....|..|A#2 2F.7 ....|--- .... ....|--- .... ....
....|..|R-- .... ....|R-- .... ....|--- .... ....
 B-4|..|B-2 2A.F ....|B-5 6F.F ....|D#4 2F2F ....
....|..|R-- .... ....|--- .... ....|--- .... ....
....|..|A#2 2F.A ....|--- .... ....|--- .... ....
....|..|--- .... ....|--- .... ....|--- .... ....
....|..|A#1 2F.7 ....|D#5 3F.F ....|--- .... ....
....|..|R-- .... ....|R-- .... ....|--- .... ....
 F#4|..|F#2 2A.F ....|F#5 3F.7 ....|--- .... ....
....|..|R-- .... ....|--- .... ....|--- .... ....
....|..|D#2 2F.7 ....|A#4 3F.A ....|--- .... ....
....|..|--- .... ....|--- .... ....|R-- .... ....
....|..|--- .... ....|--- .... ....|--- .... ....
....|..|R-- .... ....|R-- .... ....|--- .... ....
 F#4|..|F#2 2A.F ....|D#5 3F.F ....|D#4 2F2A ....
....|..|R-- .... ....|--- .... ....|--- .... ....
....|..|A#2 2F.7 ....|--- .... ....|--- .... ....
....|..|--- .... ....|--- .... ....|--- .... ....
 B-4|..|B-2 2A.F ....|C#5 3F.7 ....|--- .... ....
....|..|R-- .... ....|--- .... ....|--- .... ....
....|..|F#2 2F.A ....|--- .... ....|--- .... ....
....|..|--- .... ....|--- .... ....|--- .... ....
....|..|A#1 2F.7 ....|A#4 3F.7 ....|--- .... ....
....|..|R-- .... ....|--- .... ....|R-- .... ....
 F#4|..|F#2 2A.F ....|--- .... ....|--- .... ....
....|..|R-- .... ....|R-- .... ....|--- .... ....
....|..|B-2 2F.7 ....|F#5 6F.F ....|D#4 2F27 ....
....|..|--- .... ....|--- .... ....|--- .... ....
....|..|--- .... ....|--- .... ....|--- .... ....
....|..|R-- .... ....|--- .... ....|--- .... ....
 F#4|..|F#2 2A.F ....|D#5 3F.7 ....|--- .... ....
....|..|R-- .... ....|R-- .... ....|R-- .... ....
....|..|F#2 2F.7 ....|--- .... ....|--- .... ....
....|..|--- .... ....|--- .... ....|--- .... ....

[Pattern35]
 B-4|..|B-2 2A.F ....|B-4 6F1F ....|D#4 2F2F ....
....|..|R-- .... ....|--- .... ....|--- .... ....
....|..|F#2 2F.A ....|--- .... ....|--- .... ....
....|..|R-- .... ....|R-- .... ....|--- .... ....
....|..|F#2 2F.7 ....|D#5 3F.7 ....|--- .... ....
....|..|--- .... ....|--- .... ....|--- .... ....
 B-4|..|B-2 2A.F ....|--- .... ....|--- .... ....
....|..|R-- .... ....|--- .... ....|--- .... ....
 F#4|..|F#2 2A.F ....|D#5 3F.F ....|--- .... ....
....|..|--- .... ....|R-- .... ....|R-- .... ....
....|..|--- .... ....|--- .... ....|--- .... ....
....|..|R-- .... ....|R-- .... ....|--- .... ....
....|..|B-2 2F.A ....|F-5 3F.F ....|D#4 2F2A ....
....|..|R-- .... ....|--- .... ....|--- .... ....
....|..|F#2 2F.7 ....|--- .... ....|--- .... ....
....|..|R-- .... ....|R-- .... ....|--- .... ....
 B-4|..|B-2 2A.F ....|F#5 3F.F ....|--- .... ....
....|..|--- .... ....|--- .... ....|--- .... ....
....|..|B-2 2F.A ....|--- .... ....|--- .... ....
....|..|R-- .... ....|--- .... ....|--- .... ....
....|..|F#2 2F.7 ....|F#5 6F.F ....|--- .... ....
....|..|--- .... ....|R-- .... ....|R-- .... ....
 B-4|..|B-2 2A.F ....|D#5 3F.F ....|--- .... ....
....|..|R-- .... ....|R-- .... ....|--- .... ....
 A#3|..|A#2 2C.F ....|B-4 6F17 ....|D#4 2F27 ....
....|..|--- .... ....|--- .... ....|--- .... ....
....|..|--- .... ....|--- .... ....|--- .... ....
....|..|R-- .... ....|R-- .... ....|--- .... ....
....|..|B-2 2F.A ....|F#5 6F.F ....|--- .... ....
....|..|R-- .... ....|--- .... ....|R-- .... ....
....|..|B-2 2F.7 ....|R-- .... ....|--- .... ....
....|..|R-- .... ....|R-- .... ....|--- .... ....
 G#4|..|G#2 2A.F ....|B-4 6F1F ....|G#4 2F2F ....
....|..|--- .... ....|R-- .... ....|--- .... ....
....|..|B-2 2F.A ....|D#5 3F.A ....|--- .... ....
....|..|R-- .... ....|R-- .... ....|--- .... ....
....|..|A#2 2F.A ....|F-5 3F.7 ....|--- .... ....
....|..|--- .... ....|--- .... ....|--- .... ....
 G#4|..|G#2 2A.F ....|--- .... ....|--- .... ....
....|..|R-- .... ....|R-- .... ....|--- .... ....
 D#4|..|D#2 2A.F ....|F-5 3F.F ....|--- .... ....
....|..|R-- .... ....|--- .... ....|R-- .... ....
....|..|--- .... ....|R-- .... ....|--- .... ....
....|..|R-- .... ....|R-- .... ....|--- .... ....
....|..|G#2 2F.A ....|F#5 3F.F ....|G#4 2F2A ....
....|..|--- .... ....|R-- .... ....|--- .... ....
....|..|B-2 2F.7 ....|G#5 3F.F ....|--- .... ....
....|..|R-- .... ....|--- .... ....|--- .... ....
 G#4|..|G#2 2A.F ....|--- .... ....|--- .... ....
....|..|--- .... ....|--- .... ....|--- .... ....
....|..|G#2 2F.A ....|--- .... ....|--- .... ....
....|..|R-- .... ....|--- .... ....|--- .... ....
....|..|D#2 2F.A ....|F#5 6F.F ....|--- .... ....
....|..|R-- .... ....|--- .... ....|R-- .... ....
 G#4|..|G#2 2A.F ....|R-- .... ....|--- .... ....
....|..|R-- .... ....|R-- .... ....|--- .... ....
 D#4|..|D#2 2A.F ....|F-5 3F.F ....|G#4 2F27 ....
....|..|--- .... ....|R-- .... ....|--- .... ....
....|..|--- .... ....|D#5 3F.F ....|--- .... ....
....|..|R-- .... ....|--- .... ....|--- .... ....
....|..|G#2 2F.A ....|F#5 6F.F ....|--- .... ....
....|..|--- .... ....|R-- .... ....|R-- .... ....
....|..|G#2 2F.7 ....|C#5 3F.F ....|--- .... ....
....|..|R-- .... ....|R-- .... ....|--- .... ....

[Pattern36]
 A#3|..|A#2 2C.F ....|A#4 6F2F ....|C#4 2F1F ....
....|..|--- .... ....|--- .... ....|--- .... ....
....|..|G#2 2F.A ....|--- .... ....|--- .... ....
....|..|R-- .... ....|--- .... ....|--- .... ....
....|..|D#2 2F.A ....|F#5 3F.7 ....|--- .... ....
....|..|--- .... ....|R-- .... ....|--- .... ....
 A#3|..|A#2 2C.F ....|G#5 3F.7 ....|--- .... ....
....|..|R-- .... ....|--- .... ....|--- .... ....
 F-4|..|F-2 2A.F ....|F#5 6F.A ....|--- .... ....
....|..|--- .... ....|R-- .... ....|R-- .... ....
....|..|--- .... ....|C#5 3F.A ....|--- .... ....
....|..|R-- .... ....|R-- .... ....|--- .... ....
....|..|A#2 2F.A ....|F#5 6F.7 ....|C#4 2F1A ....
....|..|--- .... ....|--- .... ....|--- .... ....
....|..|G#2 2F.7 ....|--- .... ....|--- .... ....
....|..|R-- .... ....|--- .... ....|--- .... ....
 A#3|..|A#2 2C.F ....|F-5 3F.7 ....|--- .... ....
....|..|--- .... ....|R-- .... ....|--- .... ....
....|..|A#2 2F.A ....|D#5 3F.7 ....|--- .... ....
....|..|R-- .... ....|R-- .... ....|--- .... ....
....|..|F-2 2F.A ....|F#5 6F.7 ....|--- .... ....
....|..|--- .... ....|R-- .... ....|R-- .... ....
 A#3|..|A#2 2C.F ....|C#5 3F.7 ....|--- .... ....
....|..|R-- .... ....|A#4 6F.F ....|--- .... ....
 F-4|..|F-2 2A.F ....|A#4 6F2F ....|C#4 2F17 ....
....|..|--- .... ....|R-- .... ....|--- .... ....
....|..|--- .... ....|C#5 3F.F ....|--- .... ....
....|..|R-- .... ....|--- .... ....|--- .... ....
....|..|A#2 2F.A ....|--- .... ....|--- .... ....
....|..|--- .... ....|--- .... ....|R-- .... ....
....|..|A#2 2F.7 ....|R-- .... ....|--- .... ....
....|..|R-- .... ....|C#5 6F.F ....|--- .... ....
 D#4|..|D#2 2A.F ....|D#5 6F.F ....|D#4 2FAF ....
....|..|--- .... ....|--- .... ....|--- .... ....
....|..|A#2 2F.A ....|--- .... ....|--- .... ....
....|..|R-- .... ....|A#4 6F.A ....|--- .... ....
....|..|F-2 2F.A ....|A#4 6F2A ....|--- .... ....
....|..|--- .... ....|R-- .... ....|--- .... ....
 D#4|..|D#2 2A.F ....|C#5 3F.A ....|--- .... ....
....|..|R-- .... ....|--- .... ....|--- .... ....
 A#3|..|A#1 2A.F ....|--- .... ....|--- .... ....
....|..|--- .... ....|--- .... ....|R-- .... ....
....|..|--- .... ....|R-- .... ....|--- .... ....
....|..|R-- .... ....|C#5 6F.A ....|--- .... ....
....|..|D#2 2F.A ....|D#5 6F.A ....|D#4 2FAA ....
....|..|--- .... ....|--- .... ....|--- .... ....
....|..|A#2 2F.7 ....|--- .... ....|--- .... ....
....|..|R-- .... ....|A#4 6F.7 ....|--- .... ....
 D#4|..|D#2 2A.F ....|A#4 6F27 ....|--- .... ....
....|..|--- .... ....|R-- .... ....|--- .... ....
....|..|D#2 2F.A ....|C#5 3F.7 ....|--- .... ....
....|..|R-- .... ....|--- .... ....|--- .... ....
....|..|A#1 2F.A ....|C#5 6F.F ....|--- .... ....
....|..|--- .... ....|--- .... ....|R-- .... ....
 D#4|..|D#2 2A.F ....|R-- .... ....|--- .... ....
....|..|R-- .... ....|C#5 6F.7 ....|--- .... ....
 A#3|..|A#1 2A.F ....|D#5 6F.F ....|D#4 2FA7 ....
....|..|--- .... ....|--- .... ....|--- .... ....
....|..|--- .... ....|--- .... ....|--- .... ....
....|..|R-- .... ....|--- .... ....|--- .... ....
....|..|D#2 2F.A ....|C#5 3F.F ....|--- .... ....
....|..|--- .... ....|R-- .... ....|R-- .... ....
....|..|D#2 2F.7 ....|C#5 3F.F ....|--- .... ....
....|..|R-- .... ....|R-- .... ....|--- .... ....

[Pattern37]
 B-4|..|B-2 2A.F ....|F#4 6F.F ....|B-3 2F9F ....
....|..|--- .... ....|--- .... ....|--- .... ....
....|..|D#2 2F.A ....|B-4 3F.F ....|--- .... ....
....|..|R-- .... ....|R-- .... ....|--- .... ....
....|..|A#1 2F.A ....|B-4 3F.F ....|--- .... ....
....|..|--- .... ....|--- .... ....|--- .... ....
 B-4|..|B-2 2A.F ....|--- .... ....|--- .... ....
....|..|R-- .... ....|--- .... ....|--- .... ....
 F#4|..|F#2 2A.F ....|C#5 3F.A ....|--- .... ....
....|..|--- .... ....|R-- .... ....|R-- .... ....
....|..|--- .... ....|C#5 3F.A ....|--- .... ....
....|..|R-- .... ....|R-- .... ....|--- .... ....
....|..|B-2 2F.A ....|C#5 6F.7 ....|B-3 2F9A ....
....|..|--- .... ....|--- .... ....|--- .... ....
....|..|D#2 2F.7 ....|B-4 3F.A ....|--- .... ....
....|..|R-- .... ....|R-- .... ....|--- .... ....
 B-4|..|B-2 2A.F ....|D#5 6F.7 ....|--- .... ....
....|..|--- .... ....|--- .... ....|--- .... ....
....|..|B-2 2F.A ....|--- .... ....|--- .... ....
....|..|R-- .... ....|--- .... ....|--- .... ....
....|..|F#2 2F.A ....|A#3 6F.F ....|--- .... ....
....|..|--- .... ....|R-- .... ....|R-- .... ....
 B-4|..|B-2 2A.F ....|C#5 3F.7 ....|--- .... ....
....|..|R-- .... ....|R-- .... ....|--- .... ....
 A#3|..|A#2 2C.F ....|B-3 6F.F ....|B-3 2F97 ....
....|..|--- .... ....|--- .... ....|--- .... ....
....|..|--- .... ....|B-4 3F.7 ....|--- .... ....
....|..|R-- .... ....|R-- .... ....|--- .... ....
....|..|B-2 2F.A ....|C#4 6F.F ....|--- .... ....
....|..|--- .... ....|--- .... ....|R-- .... ....
....|..|B-2 2F.7 ....|--- .... ....|--- .... ....
....|..|R-- .... ....|R-- .... ....|--- .... ....
 G#4|..|G#2 2A.F ....|D#4 6F.F ....|B-3 2F1F ....
....|..|--- .... ....|--- .... ....|--- .... ....
....|..|B-2 2F.A ....|R-- .... ....|--- .... ....
....|..|R-- .... ....|--- .... ....|--- .... ....
....|..|A#2 2F.A ....|B-3 6F.A ....|--- .... ....
....|..|--- .... ....|--- .... ....|--- .... ....
 G#4|..|G#2 2A.F ....|--- .... ....|--- .... ....
....|..|R-- .... ....|--- .... ....|--- .... ....
 D#4|..|D#2 2A.F ....|A#4 3F.F ....|--- .... ....
....|..|--- .... ....|--- .... ....|R-- .... ....
....|..|--- .... ....|--- .... ....|--- .... ....
....|..|R-- .... ....|R-- .... ....|--- .... ....
....|..|G#2 2F.A ....|B-4 3F.F ....|B-3 2F1A ....
....|..|--- .... ....|--- .... ....|--- .... ....
....|..|B-2 2F.7 ....|R-- .... ....|--- .... ....
....|..|R-- .... ....|R-- .... ....|--- .... ....
 G#4|..|G#2 2A.F ....|A#5 3F.F ....|--- .... ....
....|..|--- .... ....|--- .... ....|--- .... ....
....|..|G#2 2F.A ....|R-- .... ....|--- .... ....
....|..|R-- .... ....|--- .... ....|--- .... ....
....|..|D#2 2F.A ....|A#5 3F.F ....|--- .... ....
....|..|--- .... ....|R-- .... ....|R-- .... ....
 G#4|..|G#2 2A.F ....|--- .... ....|--- .... ....
....|..|R-- .... ....|R-- .... ....|--- .... ....
 D#4|..|D#2 2A.F ....|F#4 6F.F ....|B-3 2F17 ....
....|..|--- .... ....|R-- .... ....|--- .... ....
....|..|--- .... ....|F#5 3F.F ....|--- .... ....
....|..|R-- .... ....|R-- .... ....|--- .... ....
....|..|G#2 2F.A ....|A#5 3F.A ....|--- .... ....
....|..|--- .... ....|--- .... ....|R-- .... ....
....|..|G#2 2F.7 ....|R-- .... ....|--- .... ....
....|..|R-- .... ....|R-- .... ....|--- .... ....

[Pattern38]
 C#4|..|C#2 2A.F ....|C#4 6F.F ....|G#4 2F.F ....
....|..|--- .... ....|R-- .... ....|--- .... ....
....|..|G#2 2F.A ....|--- .... ....|--- .... ....
....|..|R-- .... ....|R-- .... ....|--- .... ....
....|..|D#2 2F.A ....|B-4 3F.7 ....|G#4 2F2F ....
....|..|--- .... ....|R-- .... ....|--- .... ....
 C#4|..|C#2 2A.F ....|F#5 3F.A ....|--- .... ....
....|..|R-- .... ....|R-- .... ....|--- .... ....
 G#3|..|G#1 2A.F ....|A#5 3F.7 ....|G#4 2FAF ....
....|..|--- .... ....|--- .... ....|R-- .... ....
....|..|--- .... ....|R-- .... ....|--- .... ....
....|..|R-- .... ....|R-- .... ....|--- .... ....
....|..|C#2 2F.A ....|A#5 3F.7 ....|B-4 2F3F ....
....|..|--- .... ....|R-- .... ....|--- .... ....
....|..|G#2 2F.7 ....|--- .... ....|--- .... ....
....|..|R-- .... ....|--- .... ....|R-- .... ....
 C#4|..|C#2 2A.F ....|A#5 3F.F ....|C#5 2F.F ....
....|..|--- .... ....|R-- .... ....|--- .... ....
....|..|C#2 2F.A ....|F#5 3F.7 ....|R-- .... ....
....|..|R-- .... ....|R-- .... ....|--- .... ....
 C#4|..|C#2 2A.F ....|G#5 3F.F ....|G#4 2F2F ....
....|..|--- .... ....|--- .... ....|R-- .... ....
....|..|--- .... ....|--- .... ....|--- .... ....
....|..|R-- .... ....|R-- .... ....|--- .... ....
....|..|C#2 2F.7 ....|F#5 3F.F ....|G#4 2F.7 ....
....|..|--- .... ....|--- .... ....|--- .... ....
....|..|--- .... ....|--- .... ....|--- .... ....
....|..|R-- .... ....|R-- .... ....|R-- .... ....
....|..|C#2 2F.A ....|G#5 3F.F ....|G#4 2F27 ....
....|..|--- .... ....|--- .... ....|--- .... ....
....|..|C#2 2F.7 ....|R-- .... ....|R-- .... ....
....|..|R-- .... ....|R-- .... ....|R-- .... ....
 F#4|..|F#2 2A.F ....|G#5 3F.A ....|F#3 2F9F ....
....|..|--- .... ....|--- .... ....|--- .... ....
....|..|--- .... ....|--- .... ....|--- .... ....
....|..|R-- .... ....|R-- .... ....|--- .... ....
....|..|--- .... ....|F#5 3F.A ....|B-4 2F37 ....
....|..|--- .... ....|F#5 3F.F ....|--- .... ....
....|..|--- .... ....|--- .... ....|F#3 2F9F ....
....|..|--- .... ....|R-- .... ....|R-- .... ....
....|..|C#2 2F.7 ....|A#5 3F.7 ....|C#5 2F.7 ....
....|..|--- .... ....|--- .... ....|--- .... ....
....|..|R-- .... ....|R-- .... ....|F#3 2F9F ....
....|..|--- .... ....|R-- .... ....|R-- .... ....
 F#4|..|F#2 2A.F ....|G#5 3F.7 ....|F#3 2F9F ....
....|..|--- .... ....|--- .... ....|--- .... ....
....|..|--- .... ....|--- .... ....|--- .... ....
....|..|--- .... ....|R-- .... ....|--- .... ....
....|..|--- .... ....|F#5 3F.7 ....|--- .... ....
....|..|--- .... ....|F#5 3F.A ....|--- .... ....
....|..|--- .... ....|--- .... ....|F#3 2F9F ....
....|..|--- .... ....|R-- .... ....|--- .... ....
....|..|--- .... ....|G#5 3F.7 ....|--- .... ....
....|..|--- .... ....|--- .... ....|--- .... ....
....|..|--- .... ....|R-- .... ....|F#3 2F9F ....
....|..|--- .... ....|--- .... ....|R-- .... ....
....|..|F#2 2F.7 ....|--- .... ....|F#3 2F9F ....
....|..|--- .... ....|--- .... ....|--- .... ....
....|..|--- .... ....|--- .... ....|F#3 2F9F ....
....|..|R-- .... ....|--- .... ....|--- .... ....
....|..|--- .... ....|--- .... ....|F#3 2F9F ....
....|..|--- .... ....|F#5 3F.7 ....|--- .... ....
....|..|--- .... ....|--- .... ....|F#3 2F97 ....
....|..|--- .... ....|--- .... ....|--- .... ....

[Pattern39]
 F#4|..|F#2 2A.F ....|--- .... ....|B-3 2F1F ....
....|..|--- .... ....|--- .... ....|--- .... ....
....|..|--- .... ....|--- .... ....|F#3 2F97 ....
....|..|--- .... ....|--- .... ....|--- .... ....
....|..|F#2 2F.7 ....|--- .... ....|F#3 2F97 ....
....|..|--- .... ....|--- .... ....|--- .... ....
....|..|--- .... ....|--- .... ....|B-3 2F1F ....
....|..|R-- .... ....|--- .... ....|--- .... ....
....|..|--- .... ....|--- .... ....|F#3 2F9A ....
....|..|--- .... ....|--- .... ....|--- .... ....
....|..|--- .... ....|--- .... ....|B-3 2F1F ....
....|..|--- .... ....|--- .... ....|--- .... ....
 F#4|..|F#2 2A.F ....|--- .... ....|B-3 2F1F ....
....|..|--- .... ....|--- .... ....|--- .... ....
....|..|--- .... ....|--- .... ....|F#3 2F97 ....
....|..|--- .... ....|--- .... ....|--- .... ....
....|..|--- .... ....|--- .... ....|F#3 2F97 ....
....|..|--- .... ....|--- .... ....|--- .... ....
....|..|--- .... ....|--- .... ....|B-3 2F1F ....
....|..|R-- .... ....|--- .... ....|--- .... ....
....|..|--- .... ....|A#5 6F.F ....|F#3 2F97 ....
....|..|--- .... ....|--- .... ....|--- .... ....
....|..|--- .... ....|--- .... ....|B-3 2F1F ....
....|..|--- .... ....|--- .... ....|--- .... ....
....|..|F#2 2F.7 ....|--- .... ....|B-3 2F1F ....
....|..|--- .... ....|--- .... ....|--- .... ....
....|..|--- .... ....|--- .... ....|B-3 2F1F ....
....|..|R-- .... ....|--- .... ....|--- .... ....
....|..|--- .... ....|--- .... ....|B-3 2F1F ....
....|..|--- .... ....|--- .... ....|--- .... ....
....|..|--- .... ....|--- .... ....|F#4 2F1F ....
....|..|--- .... ....|--- .... ....|R-- .... ....
 F#4|..|F#2 2A.F ....|F#5 6F.F ....|F#3 2F9F ....
....|..|--- .... ....|--- .... ....|--- .... ....
....|..|--- .... ....|--- .... ....|B-3 2F17 ....
....|..|--- .... ....|--- .... ....|--- .... ....
....|..|F#2 2F.7 ....|--- .... ....|B-3 2F17 ....
....|..|--- .... ....|--- .... ....|--- .... ....
....|..|--- .... ....|--- .... ....|F#3 2F9F ....
....|..|R-- .... ....|--- .... ....|--- .... ....
....|..|--- .... ....|--- .... ....|B-3 2F1A ....
....|..|--- .... ....|--- .... ....|--- .... ....
....|..|--- .... ....|--- .... ....|F#3 2F9F ....
....|..|--- .... ....|--- .... ....|R-- .... ....
 F#4|..|F#2 2A.F ....|A#5 6F.7 ....|F#3 2F9F ....
....|..|--- .... ....|--- .... ....|--- .... ....
....|..|--- .... ....|--- .... ....|B-3 2F17 ....
....|..|--- .... ....|--- .... ....|--- .... ....
....|..|--- .... ....|--- .... ....|B-3 2F17 ....
....|..|--- .... ....|--- .... ....|--- .... ....
....|..|--- .... ....|R-- .... ....|F#3 2F9F ....
....|..|R-- .... ....|--- .... ....|--- .... ....
....|..|--- .... ....|A#5 6F.F ....|B-3 2F17 ....
....|..|--- .... ....|--- .... ....|--- .... ....
....|..|--- .... ....|--- .... ....|F#3 2F9F ....
....|..|--- .... ....|--- .... ....|R-- .... ....
....|..|F#2 2F.7 ....|F#5 6F.7 ....|F#3 2F9F ....
....|..|--- .... ....|--- .... ....|--- .... ....
....|..|--- .... ....|--- .... ....|F#3 2F9F ....
....|..|R-- .... ....|--- .... ....|--- .... ....
....|..|--- .... ....|--- .... ....|F#3 2F9F ....
....|..|--- .... ....|--- .... ....|--- .... ....
....|..|--- .... ....|R-- .... ....|F#3 2F97 ....
....|..|--- .... ....|--- .... ....|--- .... ....

[Pattern40]
 F#4|..|F#2 2A.F ....|C#6 6F.F ....|B-3 2F1F ....
....|..|--- .... ....|--- .... ....|--- .... ....
....|..|--- .... ....|--- .... ....|F#3 2F97 ....
....|..|--- .... ....|--- .... ....|--- .... ....
....|..|F#2 2F.7 ....|--- .... ....|F#3 2F97 ....
....|..|--- .... ....|--- .... ....|--- .... ....
....|..|--- .... ....|--- .... ....|B-3 2F1F ....
....|..|R-- .... ....|--- .... ....|--- .... ....
....|..|--- .... ....|--- .... ....|F#3 2F9A ....
....|..|--- .... ....|--- .... ....|--- .... ....
....|..|--- .... ....|R-- .... ....|B-3 2F1F ....
....|..|--- .... ....|--- .... ....|--- .... ....
 F#4|..|F#2 2A.F ....|A#5 6F.7 ....|B-3 2F1F ....
....|..|--- .... ....|--- .... ....|--- .... ....
....|..|--- .... ....|--- .... ....|F#3 2F97 ....
....|..|--- .... ....|--- .... ....|--- .... ....
....|..|--- .... ....|--- .... ....|F#3 2F97 ....
....|..|--- .... ....|--- .... ....|--- .... ....
....|..|--- .... ....|F#5 6F.F ....|B-3 2F1F ....
....|..|R-- .... ....|R-- .... ....|--- .... ....
....|..|--- .... ....|D#6 6F.F ....|F#3 2F97 ....
....|..|--- .... ....|--- .... ....|--- .... ....
....|..|--- .... ....|--- .... ....|B-3 2F1F ....
....|..|--- .... ....|--- .... ....|--- .... ....
....|..|F#2 2F.7 ....|C#6 6F.7 ....|B-3 2F1F ....
....|..|--- .... ....|--- .... ....|--- .... ....
....|..|--- .... ....|--- .... ....|B-3 2F1F ....
....|..|R-- .... ....|--- .... ....|--- .... ....
....|..|--- .... ....|--- .... ....|B-3 2F1F ....
....|..|--- .... ....|--- .... ....|--- .... ....
....|..|--- .... ....|F#5 6F.A ....|B-3 2F17 ....
....|..|--- .... ....|R-- .... ....|--- .... ....
 F#4|..|F#2 2A.F ....|F#6 6F.F ....|F#4 2F9F ....
....|..|--- .... ....|--- .... ....|--- .... ....
....|..|--- .... ....|--- .... ....|B-3 2F17 ....
....|..|--- .... ....|--- .... ....|--- .... ....
....|..|F#2 2F.7 ....|--- .... ....|B-3 2F17 ....
....|..|--- .... ....|--- .... ....|--- .... ....
....|..|--- .... ....|--- .... ....|B-3 2F1A ....
....|..|R-- .... ....|--- .... ....|--- .... ....
....|..|--- .... ....|--- .... ....|B-3 2F1A ....
....|..|--- .... ....|--- .... ....|--- .... ....
....|..|--- .... ....|F#5 6F.7 ....|B-3 2F17 ....
....|..|--- .... ....|R-- .... ....|--- .... ....
....|..|F#2 2F.A ....|D#6 6F.7 ....|F#4 2F9A ....
....|..|--- .... ....|--- .... ....|--- .... ....
....|..|--- .... ....|--- .... ....|B-3 2F17 ....
....|..|--- .... ....|--- .... ....|--- .... ....
....|..|--- .... ....|--- .... ....|B-3 2F17 ....
....|..|--- .... ....|--- .... ....|--- .... ....
....|..|--- .... ....|--- .... ....|B-3 2F17 ....
....|..|R-- .... ....|--- .... ....|--- .... ....
....|..|--- .... ....|--- .... ....|B-3 2F17 ....
....|..|--- .... ....|--- .... ....|--- .... ....
....|..|--- .... ....|--- .... ....|R-- .... ....
....|..|--- .... ....|--- .... ....|--- .... ....
....|..|F#2 2F.7 ....|F#6 6F.7 ....|F#4 2F97 ....
....|..|--- .... ....|--- .... ....|--- .... ....
....|..|--- .... ....|--- .... ....|--- .... ....
....|..|--- .... ....|--- .... ....|--- .... ....
....|..|--- .... ....|--- .... ....|--- .... ....
....|..|--- .... ....|--- .... ....|R-- .... ....
....|..|--- .... ....|--- .... ....|--- .... ....
....|..|--- .... ....|--- .... ....|--- .... ....

[Pattern41]
....|..|R-- .... ....|R-- .... ....|--- .... ....
....|..|--- .... ....|--- .... ....|--- .... ....
....|..|--- .... ....|--- .... ....|--- .... ....
....|..|--- .... ....|--- .... ....|--- .... ....
....|..|--- .... ....|--- .... ....|--- .... ....
....|..|--- .... ....|--- .... ....|--- .... ....
....|..|--- .... ....|--- .... ....|--- .... ....
....|..|--- .... ....|--- .... ....|--- .... ....
....|..|--- .... ....|--- .... ....|--- .... ....
....|..|--- .... ....|--- .... ....|R-- .... ....
....|..|--- .... ....|--- .... ....|--- .... ....
....|..|--- .... ....|--- .... ....|--- .... ....
....|..|R-- .... ....|R-- .... ....|--- .... ....
....|..|--- .... ....|--- .... ....|--- .... ....
....|..|--- .... ....|--- .... ....|--- .... ....
....|..|--- .... ....|--- .... ....|--- .... ....
....|..|--- .... ....|--- .... ....|--- .... ....
....|..|--- .... ....|--- .... ....|--- .... ....
....|..|--- .... ....|--- .... ....|--- .... ....
....|..|--- .... ....|--- .... ....|--- .... ....
....|..|--- .... ....|--- .... ....|--- .... ....
....|..|--- .... ....|--- .... ....|R-- .... ....
....|..|--- .... ....|--- .... ....|--- .... ....
....|..|--- .... ....|--- .... ....|--- .... ....
