[Module]
VortexTrackerII=0
Version=3.5
Title=1p[3],2m[u],3m[6]-4m[7]
Author=oisee ^ 4d 29.05.2010
NoteTable=4
ChipFreq=1750000
Speed=4
PlayOrder=L0,1,2,3,4,5,6,7,8,9,10,11,12,13,14,15,16,17,18,3,4,5,22,7,4,9,26,11,12,13,14,31,32,33,34,35,36,37,38,39,40,41


[Ornament1]
L0,0,4,4,7,7

[Ornament2]
L0,0,3,3,5,5,8,8,10,10

[Ornament3]
L0,0,5,5,9,9

[Ornament4]
L0,0,3,3,8,8

[Ornament5]
L0,0,4,4,9,9

[Ornament6]
L0,0,3,3,7,7

[Ornament7]
L0,0,3,3,5,5,8,8

[Ornament8]
L0,0,2,2,5,5

[Ornament9]
L0,0,2,2,7,7

[Ornament10]
L0,0,4,4

[Ornament11]
L0,0,3,3

[Ornament12]
L0,0,5,5

[Ornament13]
L0,0,2,2,6,6

[Ornament14]
L0,0,5,5,8,8

[Ornament15]
L0,0,5,5,7,7

[Ornament16]
L0,0,2,2,5,5,7,7


[Sample1]
TnE +000_ +00_ F_
TnE +000_ +00_ F_
TnE +000_ +00_ F_
TnE +000_ +00_ D_
TnE +000_ +00_ B_
TnE +000_ +00_ B_ L

[Sample2]
TnE +000_ +00_ F_ L

[Sample3]
TnE +001_ +00_ F_
TnE +002_ +00_ F_
TnE +001_ +00_ E_
TnE +002_ +00_ E_
TnE +000_ +00_ E_ L
TnE -001_ +00_ E_
TnE -002_ +00_ E_
TnE -001_ +00_ E_
TnE +000_ +00_ E_
TnE +001_ +00_ E_
TnE +002_ +00_ E_
TnE +001_ +00_ E_

[Sample4]
TnE +002_ +00_ D_
TnE +002_ +00_ D_
TnE +002_ +00_ C_
TnE +002_ +00_ B_
TnE +002_ +00_ A_ L
TnE +002_ +00_ A_
TnE +002_ +00_ A_
TnE +002_ +00_ A_
TnE +002_ +00_ A_
TnE +002_ +00_ A_
TnE +002_ +00_ A_
TnE +002_ +00_ A_

[Sample5]
TnE +000_ +00_ F_
TnE +000_ +00_ F_
tne +000_ +00_ 0_ L

[Sample6]
TnE -001_ +00_ F_ L

[Sample7]
TnE +006_ +00_ F_ L

[Sample8]
tNe +000_ +00_ F_
tNe +000_ +00_ B_
tNe +000_ +00_ 7_
tNe +000_ +00_ 6- L

[Sample9]
TnE +080_ +00_ F_
TnE +100_ +00_ E_
TnE +180_ +00_ E_
TnE +200_ +00_ E_
TnE +240_ +00_ D_
TnE +280_ +00_ D_
TnE +2C0_ +00_ D_
TnE +300_ +00_ C_
TnE +300_ +00_ C_
TnE +340_ +00_ C_
TnE +340_ +00_ C_
TnE +380_ +00_ B_
TnE +380_ +00_ B_
TnE +400_ +00_ B_
TnE +400_ +00_ B_
TnE +480_ +00_ A_
TnE +500_ +00_ 9_
TnE +580_ +00_ 7_
TnE +600_ +00_ 4_
TnE +680_ +00_ 1_
TnE +000_ +00_ 0_ L

[Sample10]
Tne +1C0_ +00_ F_
Tne +280_ +00_ E_
Tne +380_ +00_ C_
Tne +440_ +00_ A_
Tne +480_ +00_ 8_
TnE +000_ +00_ 0_ L

[Sample11]
TNe +200_ -0A_ F_
tNe +000_ +0F_ A_
TNe +200_ -07_ E_
tNe +000_ +0E_ B- L

[Sample12]
TNE +0A0_ +05_ F_
TNE +140_ +02_ D_
TNE +140_ +02_ B_
TNE +100_ +00_ A_ L
TNE +140_ +00_ A_
TNE +200_ +00_ A-

[Sample13]
Tne +200_ +00_ F_
Tne +2C0_ +00_ F_
Tne +380_ +00_ E_
Tne +500_ +00_ C_
Tne +520_ +00_ 9_
tne +000_ +00_ 0_ L

[Sample14]
TNE -100_ +00_ F_
TNE -100_ +00_ D_
TNE -100_ +00_ A_
TNE -100_ +00_ 5_
tne +000_ +00_ 0_ L

[Sample15]
TNE -100_ +00_ 5_
TNE -100_ +00_ 8_
TNE -100_ +00_ B_
TNE -100_ +00_ F_
TNe -100_ +00_ 9- L

[Sample16]
TnE +000_ +00_ C_
TnE +000_ +00_ E_
TnE +000_ +00_ F_
TnE +000_ +00_ F_
TnE +000_ +00_ E_
TnE +000_ +00_ D_
TnE +000_ +00_ C_
TnE +000_ +00_ C_ L
TnE +001_ +00_ C_
TnE +002_ +00_ C_
TnE +003_ +00_ C_
TnE +001_ +00_ C_
TnE +000_ +00_ C_
TnE -001_ +00_ C_
TnE -002_ +00_ C_
TnE -003_ +00_ C_
TnE -001_ +00_ C_
TnE +000_ +00_ C_
TnE +000_ +00_ C_

[Sample17]
Tne +1C0_ +00_ F_
Tne +280_ +00_ D_
Tne +380_ +00_ 7_
TNE +000_ +00_ 0_ L

[Sample18]
TnE -00C_ +00_ 0_ L

[Sample19]
TNe +000_ +00_ F_
TNe +000_ +00_ C_
TNe +000_ +00_ 6_
TNe +000_ +01_ A- L

[Sample20]
TNE +140_ +00_ F_
tNE +000_ +00_ B- L

[Sample21]
tNE +000_ +00_ D_
tNE +000_ +00_ 8_
tNE +000_ +00_ 1_
TNE +000_ +00_ 0_ L

[Sample22]
TnE +000_ +00_ D_ L
TnE +000_ +00_ D_
tne +000_ +00_ 9_
tne +000_ +00_ 9_
TnE +000_ +00_ D_
TnE +000_ +00_ D_
tne +000_ +00_ 9_
tne +000_ +00_ 9_
TnE +000_ +00_ D_
TnE +000_ +00_ D_
TnE +000_ +00_ D_
TnE +000_ +00_ D_
TnE +000_ +00_ D_
TnE +000_ +00_ D_
tne +000_ +00_ 9_
tne +000_ +00_ 9_

[Sample23]
TnE +000_ +00_ F_ L
TnE +010_ +01_ F_
TnE +010_ +01_ F_
TnE +010_ +01_ F_
TnE +010_ +01_ F_
TnE +000_ +00_ F_
TnE +000_ +00_ F_
TnE -010_ -01_ F_
TnE -010_ -01_ F_
TnE -010_ -01_ F_
TnE -010_ -01_ F_
TnE +000_ +00_ F_

[Sample24]
TNe +000_ -01_ C_
TNe +000_ -01_ D_
TNe +000_ -01_ E_
TNe +000_ -01_ F_
TNe +000_ -01_ F_
TNe +000_ -01_ F_
TNe +000_ -01_ F_
TNe +000_ -01_ F_
TNe +000_ -01_ E_
TNe +000_ -01_ E_
TNe +000_ -01_ E_
TNe +000_ -01_ F_
TNe +000_ -01_ F_ L

[Sample25]
TNE +000_ +00_ F_
TNE +000_ +00_ F_ L
TNE +000_ +00_ F_
TNE +000_ +00_ F_
TNE +000_ +00_ F-

[Sample26]
tne +000_ +00_ 0_ L

[Sample27]
TnE +100_ +05_ F_
TnE +200_ +02_ A_
TnE +300_ +02_ 7_
TNE +400_ +00_ 3- L

[Sample28]
tne +000_ +00_ 0_ L

[Sample29]
tnE +000_ +00_ 0_ L

[Sample30]
TNE +000_ +00_ C+ L

[Sample31]
TNe +1C0_ +00_ F_
Tne +280_ +00_ E_
Tne +380_ +00_ C_
Tne +440_ +00_ A_
Tne +480_ +00_ 8_
TnE +000_ +00_ 0_ L

[Pattern0]
....|..|G-4 3F1F ....|--- .... ....|--- .... ....
....|..|--- .... ....|--- .... ....|--- .... ....
....|..|--- .... ....|--- .... ....|--- .... ....
....|..|--- .... ....|--- .... ....|--- .... ....
....|..|G-4 3F1F ....|--- .... ....|--- .... ....
....|..|--- .... ....|--- .... ....|--- .... ....
....|..|G-4 3F1F ....|--- .... ....|--- .... ....
....|..|--- .... ....|--- .... ....|--- .... ....
....|..|--- .... ....|--- .... ....|--- .... ....
....|..|--- .... ....|--- .... ....|--- .... ....
....|..|G-4 3F1F ....|--- .... ....|--- .... ....
....|..|--- .... ....|--- .... ....|--- .... ....
....|..|G-4 3F1F ....|--- .... ....|--- .... ....
....|..|--- .... ....|--- .... ....|--- .... ....
....|..|--- .... ....|--- .... ....|--- .... ....
....|..|--- .... ....|--- .... ....|--- .... ....
....|..|G-4 3F1A ....|--- .... ....|--- .... ....
....|..|--- .... ....|--- .... ....|--- .... ....
....|..|G-4 3F1F ....|--- .... ....|--- .... ....
....|..|--- .... ....|--- .... ....|--- .... ....
....|..|--- .... ....|--- .... ....|--- .... ....
....|..|--- .... ....|--- .... ....|--- .... ....
....|..|G-4 3F1F ....|--- .... ....|--- .... ....
....|..|--- .... ....|--- .... ....|--- .... ....
....|..|G-4 3F17 ....|--- .... ....|--- .... ....
....|..|--- .... ....|--- .... ....|--- .... ....
....|..|G-4 3F1F ....|--- .... ....|--- .... ....
....|..|--- .... ....|--- .... ....|--- .... ....
....|..|G-4 3F1F ....|--- .... ....|--- .... ....
....|..|--- .... ....|--- .... ....|--- .... ....
....|..|G-4 3F17 ....|--- .... ....|--- .... ....
....|..|--- .... ....|--- .... ....|--- .... ....
....|..|E-4 3F2F ....|--- .... ....|--- .... ....
....|..|--- .... ....|--- .... ....|--- .... ....
....|..|G-4 3F17 ....|--- .... ....|--- .... ....
....|..|--- .... ....|--- .... ....|--- .... ....
....|..|E-4 3F2F ....|--- .... ....|--- .... ....
....|..|--- .... ....|--- .... ....|--- .... ....
....|..|E-4 3F2F ....|--- .... ....|--- .... ....
....|..|--- .... ....|--- .... ....|--- .... ....
....|..|G-4 3F1A ....|--- .... ....|--- .... ....
....|..|--- .... ....|--- .... ....|--- .... ....
....|..|E-4 3F2F ....|--- .... ....|--- .... ....
....|..|--- .... ....|--- .... ....|--- .... ....
....|..|E-4 3F2F ....|--- .... ....|--- .... ....
....|..|--- .... ....|--- .... ....|--- .... ....
....|..|G-4 3F17 ....|--- .... ....|--- .... ....
....|..|--- .... ....|--- .... ....|--- .... ....
....|..|E-4 3F2A ....|--- .... ....|--- .... ....
....|..|--- .... ....|--- .... ....|--- .... ....
....|..|E-4 3F2F ....|--- .... ....|--- .... ....
....|..|--- .... ....|--- .... ....|--- .... ....
....|..|G-4 3F17 ....|--- .... ....|--- .... ....
....|..|--- .... ....|--- .... ....|--- .... ....
....|..|E-4 3F2F ....|--- .... ....|--- .... ....
....|..|--- .... ....|--- .... ....|--- .... ....
....|..|E-4 3F27 ....|--- .... ....|--- .... ....
....|..|--- .... ....|--- .... ....|--- .... ....
....|..|E-4 3F2F ....|--- .... ....|--- .... ....
....|..|--- .... ....|--- .... ....|--- .... ....
....|..|E-4 3F2F ....|--- .... ....|--- .... ....
....|..|--- .... ....|--- .... ....|--- .... ....
....|..|E-4 3F27 ....|--- .... ....|--- .... ....
....|..|--- .... ....|--- .... ....|--- .... ....

[Pattern1]
....|..|G-4 3F1F ....|--- .... ....|G-3 6F.F ....
....|..|--- .... ....|--- .... ....|--- .... ....
....|..|E-4 3F27 ....|--- .... ....|--- .... ....
....|..|--- .... ....|--- .... ....|--- .... ....
....|..|G-4 3F1F ....|--- .... ....|--- .... ....
....|..|--- .... ....|--- .... ....|--- .... ....
....|..|G-4 3F1F ....|--- .... ....|G-3 6F.F ....
....|..|--- .... ....|--- .... ....|--- .... ....
....|..|E-4 3F2A ....|--- .... ....|--- .... ....
....|..|--- .... ....|--- .... ....|--- .... ....
....|..|G-4 3F1F ....|--- .... ....|--- .... ....
....|..|--- .... ....|--- .... ....|--- .... ....
....|..|G-4 3F1F ....|--- .... ....|G-3 6F.F ....
....|..|--- .... ....|--- .... ....|--- .... ....
....|..|E-4 3F27 ....|--- .... ....|--- .... ....
....|..|--- .... ....|--- .... ....|--- .... ....
....|..|G-4 3F1A ....|--- .... ....|--- .... ....
....|..|--- .... ....|--- .... ....|--- .... ....
....|..|G-4 3F1F ....|--- .... ....|G-3 6F.A ....
....|..|--- .... ....|--- .... ....|--- .... ....
....|..|E-4 3F27 ....|--- .... ....|--- .... ....
....|..|--- .... ....|--- .... ....|--- .... ....
....|..|G-4 3F1F ....|--- .... ....|G-3 6F.F ....
....|..|--- .... ....|--- .... ....|--- .... ....
....|..|G-4 3F17 ....|--- .... ....|G-3 6F.7 ....
....|..|--- .... ....|--- .... ....|--- .... ....
....|..|G-4 3F1F ....|--- .... ....|--- .... ....
....|..|--- .... ....|--- .... ....|--- .... ....
....|..|G-4 3F1F ....|--- .... ....|G-3 6F.F ....
....|..|--- .... ....|--- .... ....|--- .... ....
....|..|G-4 3F17 ....|--- .... ....|G-3 6F.7 ....
....|..|--- .... ....|--- .... ....|--- .... ....
....|..|E-4 3F2F ....|--- .... ....|A-3 6F.F ....
....|..|--- .... ....|--- .... ....|--- .... ....
....|..|G-4 3F17 ....|--- .... ....|G-3 6F.A ....
....|..|--- .... ....|--- .... ....|--- .... ....
....|..|E-4 3F2F ....|--- .... ....|G-3 6F.7 ....
....|..|--- .... ....|--- .... ....|--- .... ....
....|..|E-4 3F2F ....|--- .... ....|A-3 6F.F ....
....|..|--- .... ....|--- .... ....|--- .... ....
....|..|G-4 3F1A ....|--- .... ....|G-3 6F.A ....
....|..|--- .... ....|--- .... ....|--- .... ....
....|..|E-4 3F2F ....|--- .... ....|--- .... ....
....|..|--- .... ....|--- .... ....|--- .... ....
....|..|E-4 3F2F ....|--- .... ....|A-3 6F.F ....
....|..|--- .... ....|--- .... ....|--- .... ....
....|..|G-4 3F17 ....|--- .... ....|G-3 6F.7 ....
....|..|--- .... ....|--- .... ....|--- .... ....
....|..|E-4 3F2A ....|--- .... ....|--- .... ....
....|..|--- .... ....|--- .... ....|--- .... ....
....|..|E-4 3F2F ....|--- .... ....|A-3 6F.A ....
....|..|--- .... ....|--- .... ....|--- .... ....
....|..|G-4 3F17 ....|--- .... ....|G-3 6F.7 ....
....|..|--- .... ....|--- .... ....|--- .... ....
....|..|E-4 3F2F ....|--- .... ....|A-3 6F.F ....
....|..|--- .... ....|--- .... ....|--- .... ....
....|..|E-4 3F27 ....|--- .... ....|A-3 6F.7 ....
....|..|--- .... ....|--- .... ....|--- .... ....
....|..|E-4 3F2F ....|--- .... ....|--- .... ....
....|..|--- .... ....|--- .... ....|--- .... ....
....|..|E-4 3F2F ....|--- .... ....|A-3 6F.F ....
....|..|--- .... ....|--- .... ....|--- .... ....
....|..|E-4 3F27 ....|--- .... ....|A-3 6F.7 ....
....|..|--- .... ....|--- .... ....|--- .... ....

[Pattern2]
....|..|R-- .... ....|B-3 UF.F ....|G-2 6F.F ....
....|..|--- .... ....|--- .... ....|--- .... ....
....|..|E-4 3F27 ....|--- .... ....|A-3 6F.A ....
....|..|--- .... ....|--- .... ....|--- .... ....
....|..|D-4 3F3F ....|--- .... ....|A-3 6F.7 ....
....|..|--- .... ....|--- .... ....|--- .... ....
....|..|D-4 3F3F ....|--- .... ....|--- .... ....
....|..|--- .... ....|--- .... ....|--- .... ....
....|..|E-4 3F2A ....|--- .... ....|G-3 6F.F ....
....|..|--- .... ....|--- .... ....|--- .... ....
....|..|D-4 3F3F ....|--- .... ....|--- .... ....
....|..|--- .... ....|--- .... ....|--- .... ....
....|..|D-4 3F3F ....|G-4 UF.F ....|G-2 6F.A ....
....|..|--- .... ....|--- .... ....|--- .... ....
....|..|E-4 3F27 ....|--- .... ....|A-3 6F.7 ....
....|..|--- .... ....|--- .... ....|--- .... ....
....|..|D-4 3F3A ....|F#4 UF.F ....|G-2 6F.F ....
....|..|--- .... ....|--- .... ....|--- .... ....
....|..|E-4 3F27 ....|--- .... ....|--- .... ....
....|..|--- .... ....|--- .... ....|--- .... ....
....|..|D-4 3F3F ....|--- .... ....|A-3 6F.7 ....
....|..|--- .... ....|--- .... ....|--- .... ....
....|..|D-4 3F3F ....|D-4 UF.F ....|--- .... ....
....|..|--- .... ....|--- .... ....|--- .... ....
....|..|D-4 3F3A ....|B-3 UF.7 ....|G-3 6F.F ....
....|..|--- .... ....|--- .... ....|--- .... ....
....|..|D-4 3F3F ....|--- .... ....|--- .... ....
....|..|--- .... ....|--- .... ....|--- .... ....
....|..|D-4 3F3F ....|B-3 UF.F ....|G-2 6F.A ....
....|..|--- .... ....|--- .... ....|--- .... ....
....|..|B-4 3F.F ....|--- .... ....|--- .... ....
....|..|--- .... ....|--- .... ....|--- .... ....
....|..|D-4 3F3A ....|E-4 UF.F ....|A-2 6F.F ....
....|..|--- .... ....|--- .... ....|--- .... ....
....|..|D-4 3F37 ....|D-4 UF.A ....|--- .... ....
....|..|--- .... ....|--- .... ....|--- .... ....
....|..|C#4 3F4F ....|G-4 UF.7 ....|G-3 6F.A ....
....|..|--- .... ....|--- .... ....|--- .... ....
....|..|C#4 3F4F ....|--- .... ....|--- .... ....
....|..|--- .... ....|--- .... ....|--- .... ....
....|..|D-4 3F3A ....|F#4 UF.7 ....|A-3 6F.F ....
....|..|--- .... ....|--- .... ....|--- .... ....
....|..|C#4 3F4F ....|--- .... ....|--- .... ....
....|..|--- .... ....|--- .... ....|--- .... ....
....|..|C#4 3F4F ....|E-4 UF.A ....|A-2 6F.A ....
....|..|--- .... ....|--- .... ....|--- .... ....
....|..|D-4 3F37 ....|D-4 UF.7 ....|--- .... ....
....|..|--- .... ....|--- .... ....|--- .... ....
....|..|C#4 3F4A ....|A-3 UF.F ....|A-2 6F.F ....
....|..|--- .... ....|--- .... ....|--- .... ....
....|..|D-4 3F37 ....|--- .... ....|--- .... ....
....|..|--- .... ....|--- .... ....|--- .... ....
....|..|C#4 3F4F ....|B-3 UF.7 ....|A-3 6F.A ....
....|..|--- .... ....|--- .... ....|--- .... ....
....|..|C#4 3F4F ....|--- .... ....|--- .... ....
....|..|--- .... ....|--- .... ....|--- .... ....
....|..|C#4 3F4A ....|E-4 UF.7 ....|A-3 6F.F ....
....|..|--- .... ....|--- .... ....|--- .... ....
....|..|C#4 3F4F ....|--- .... ....|--- .... ....
....|..|--- .... ....|--- .... ....|--- .... ....
....|..|C#4 3F4F ....|A-3 UF.A ....|A-2 6F.A ....
....|..|--- .... ....|--- .... ....|--- .... ....
....|..|C#4 3F47 ....|--- .... ....|--- .... ....
....|..|--- .... ....|--- .... ....|--- .... ....

[Pattern3]
....|..|C#4 3F4A ....|A-3 UF.F ....|F#2 6F.F ....
....|..|--- .... ....|--- .... ....|--- .... ....
....|..|C#4 3F47 ....|--- .... ....|--- .... ....
....|..|--- .... ....|--- .... ....|--- .... ....
....|..|E-4 3F3F ....|--- .... ....|A-3 6F.A ....
....|..|--- .... ....|--- .... ....|--- .... ....
....|..|E-4 3F3F ....|--- .... ....|--- .... ....
....|..|--- .... ....|--- .... ....|--- .... ....
....|..|C#4 3F4A ....|A-3 UF.7 ....|F#3 6F.F ....
....|..|--- .... ....|--- .... ....|--- .... ....
....|..|E-4 3F3F ....|--- .... ....|--- .... ....
....|..|--- .... ....|--- .... ....|--- .... ....
....|..|E-4 3F3F ....|B-3 UF.F ....|F#2 6F.A ....
....|..|--- .... ....|--- .... ....|--- .... ....
....|..|C#4 3F47 ....|--- .... ....|--- .... ....
....|..|--- .... ....|--- .... ....|--- .... ....
....|..|E-4 3F3A ....|D-4 UF.F ....|F#2 6F.F ....
....|..|--- .... ....|--- .... ....|--- .... ....
....|..|C#4 3F47 ....|--- .... ....|--- .... ....
....|..|--- .... ....|--- .... ....|--- .... ....
....|..|D-4 3F5F ....|A-3 UF.F ....|F#3 6F.A ....
....|..|--- .... ....|--- .... ....|--- .... ....
....|..|D-4 3F5F ....|--- .... ....|--- .... ....
....|..|--- .... ....|--- .... ....|--- .... ....
....|..|E-4 3F3A ....|F#3 UF.F ....|F#3 6F.F ....
....|..|--- .... ....|--- .... ....|--- .... ....
....|..|D-4 3F5F ....|--- .... ....|--- .... ....
....|..|--- .... ....|--- .... ....|--- .... ....
....|..|D-4 3F5F ....|A-3 UF.F ....|F#2 6F.A ....
....|..|--- .... ....|--- .... ....|--- .... ....
....|..|E-4 3F37 ....|--- .... ....|--- .... ....
....|..|--- .... ....|--- .... ....|--- .... ....
....|..|D-4 3F5A ....|G-3 UF.F ....|E-2 6F.F ....
....|..|--- .... ....|--- .... ....|--- .... ....
....|..|E-4 3F37 ....|--- .... ....|--- .... ....
....|..|--- .... ....|--- .... ....|--- .... ....
....|..|E-4 3F6F ....|B-3 UF.7 ....|F#3 6F.A ....
....|..|--- .... ....|--- .... ....|--- .... ....
....|..|E-4 3F6F ....|--- .... ....|--- .... ....
....|..|--- .... ....|--- .... ....|--- .... ....
....|..|D-4 3F5A ....|D-4 UF.7 ....|E-3 6F.F ....
....|..|--- .... ....|--- .... ....|--- .... ....
....|..|E-4 3F6F ....|--- .... ....|--- .... ....
....|..|--- .... ....|--- .... ....|--- .... ....
....|..|E-4 3F6F ....|A-3 UF.7 ....|E-2 6F.A ....
....|..|--- .... ....|--- .... ....|--- .... ....
....|..|D-4 3F57 ....|--- .... ....|--- .... ....
....|..|--- .... ....|--- .... ....|--- .... ....
....|..|E-4 3F6A ....|F#3 UF.7 ....|E-2 6F.F ....
....|..|--- .... ....|--- .... ....|--- .... ....
....|..|D-4 3F57 ....|--- .... ....|--- .... ....
....|..|--- .... ....|--- .... ....|--- .... ....
....|..|E-4 3F6F ....|A-3 UF.7 ....|E-3 6F.A ....
....|..|--- .... ....|--- .... ....|--- .... ....
....|..|E-4 3F6F ....|--- .... ....|--- .... ....
....|..|--- .... ....|--- .... ....|--- .... ....
....|..|E-4 3F6A ....|G-3 UF.7 ....|E-3 6F.F ....
....|..|--- .... ....|--- .... ....|--- .... ....
....|..|E-4 3F6F ....|--- .... ....|--- .... ....
....|..|--- .... ....|--- .... ....|--- .... ....
....|..|E-4 3F6F ....|--- .... ....|E-2 6F.A ....
....|..|--- .... ....|--- .... ....|--- .... ....
....|..|E-4 3F67 ....|--- .... ....|--- .... ....
....|..|--- .... ....|--- .... ....|--- .... ....

[Pattern4]
....|..|E-4 3F6A ....|G-3 UF.F ....|C-3 6F.F ....
....|..|--- .... ....|--- .... ....|--- .... ....
....|..|E-4 3F67 ....|--- .... ....|--- .... ....
....|..|--- .... ....|--- .... ....|--- .... ....
....|..|E-4 3F4F ....|R-- .... ....|E-3 6F.A ....
....|..|--- .... ....|--- .... ....|--- .... ....
....|..|E-4 3F4F ....|--- .... ....|--- .... ....
....|..|--- .... ....|--- .... ....|--- .... ....
....|..|E-4 3F6A ....|--- .... ....|C-4 6F.F ....
....|..|--- .... ....|--- .... ....|--- .... ....
....|..|E-4 3F4F ....|--- .... ....|--- .... ....
....|..|--- .... ....|--- .... ....|--- .... ....
....|..|E-4 3F4F ....|G-3 UF.F ....|C-3 6F.A ....
....|..|--- .... ....|--- .... ....|--- .... ....
....|..|E-4 3F67 ....|--- .... ....|--- .... ....
....|..|--- .... ....|--- .... ....|--- .... ....
....|..|E-4 3F4A ....|E-4 UF.F ....|C-3 6F.F ....
....|..|--- .... ....|--- .... ....|--- .... ....
....|..|E-4 3F67 ....|--- .... ....|--- .... ....
....|..|--- .... ....|--- .... ....|--- .... ....
....|..|E-4 3F4F ....|D-4 UF.F ....|C-4 6F.A ....
....|..|--- .... ....|--- .... ....|--- .... ....
....|..|E-4 3F4F ....|--- .... ....|--- .... ....
....|..|--- .... ....|--- .... ....|--- .... ....
....|..|E-4 3F4A ....|B-3 UF.F ....|C-4 6F.F ....
....|..|--- .... ....|--- .... ....|--- .... ....
....|..|E-4 3F4F ....|A-3 UF.F ....|--- .... ....
....|..|--- .... ....|--- .... ....|--- .... ....
....|..|E-4 3F4F ....|G-3 UF.F ....|C-3 6F.A ....
....|..|--- .... ....|--- .... ....|--- .... ....
....|..|E-4 3F47 ....|--- .... ....|--- .... ....
....|..|--- .... ....|--- .... ....|--- .... ....
....|..|E-4 3F4A ....|A-3 UF.F ....|A-2 6F.F ....
....|..|--- .... ....|--- .... ....|--- .... ....
....|..|E-4 3F47 ....|--- .... ....|--- .... ....
....|..|--- .... ....|--- .... ....|--- .... ....
....|..|E-4 3F7F ....|G-3 UF.7 ....|C-4 6F.A ....
....|..|--- .... ....|--- .... ....|--- .... ....
....|..|E-4 3F7F ....|A-3 UF.A ....|--- .... ....
....|..|--- .... ....|--- .... ....|--- .... ....
....|..|E-4 3F4A ....|E-4 UF.7 ....|A-3 6F.F ....
....|..|--- .... ....|--- .... ....|--- .... ....
....|..|E-4 3F7F ....|--- .... ....|--- .... ....
....|..|--- .... ....|--- .... ....|--- .... ....
....|..|E-4 3F7F ....|D-4 UF.7 ....|A-2 6F.A ....
....|..|--- .... ....|--- .... ....|--- .... ....
....|..|E-4 3F47 ....|--- .... ....|--- .... ....
....|..|--- .... ....|--- .... ....|--- .... ....
....|..|E-4 3F7A ....|B-3 UF.7 ....|A-2 6F.F ....
....|..|--- .... ....|--- .... ....|--- .... ....
....|..|E-4 3F47 ....|A-3 UF.7 ....|--- .... ....
....|..|--- .... ....|--- .... ....|--- .... ....
....|..|E-4 3F7F ....|G-3 UF.7 ....|A-3 6F.A ....
....|..|--- .... ....|--- .... ....|--- .... ....
....|..|E-4 3F7F ....|--- .... ....|--- .... ....
....|..|--- .... ....|--- .... ....|--- .... ....
....|..|E-4 3F7A ....|A-3 UF.F ....|A-3 6F.F ....
....|..|--- .... ....|--- .... ....|--- .... ....
....|..|E-4 3F7F ....|B-3 UF.F ....|--- .... ....
....|..|--- .... ....|--- .... ....|--- .... ....
....|..|E-4 3F7F ....|--- .... ....|A-2 6F.A ....
....|..|--- .... ....|--- .... ....|--- .... ....
....|..|E-4 3F77 ....|--- .... ....|--- .... ....
....|..|--- .... ....|--- .... ....|--- .... ....

[Pattern5]
....|..|E-4 3F7A ....|D-4 UF.F ....|D-3 6F.F ....
....|..|--- .... ....|--- .... ....|--- .... ....
....|..|E-4 3F77 ....|--- .... ....|--- .... ....
....|..|--- .... ....|--- .... ....|--- .... ....
....|..|G-4 3F8F ....|A-3 UF.A ....|A-3 6F.A ....
....|..|--- .... ....|--- .... ....|--- .... ....
....|..|G-4 3F8F ....|B-3 UF.A ....|D-3 6F.F ....
....|..|--- .... ....|--- .... ....|--- .... ....
....|..|E-4 3F7A ....|--- .... ....|D-3 6F.F ....
....|..|--- .... ....|--- .... ....|--- .... ....
....|..|G-4 3F8F ....|--- .... ....|--- .... ....
....|..|--- .... ....|--- .... ....|--- .... ....
....|..|G-4 3F8F ....|D-4 UF.A ....|D-3 6F.A ....
....|..|--- .... ....|--- .... ....|--- .... ....
....|..|E-4 3F77 ....|--- .... ....|--- .... ....
....|..|--- .... ....|--- .... ....|--- .... ....
....|..|G-4 3F8A ....|A-3 UF.7 ....|D-3 6F.F ....
....|..|--- .... ....|--- .... ....|--- .... ....
....|..|E-4 3F77 ....|B-3 UF.7 ....|D-3 6F.A ....
....|..|--- .... ....|--- .... ....|--- .... ....
....|..|G-4 3F8F ....|E-4 UF.F ....|D-3 6F.A ....
....|..|--- .... ....|--- .... ....|--- .... ....
....|..|G-4 3F8F ....|--- .... ....|D-3 6F.F ....
....|..|--- .... ....|--- .... ....|--- .... ....
....|..|G-4 3F8A ....|G-4 UF.F ....|D-3 6F.F ....
....|..|--- .... ....|--- .... ....|--- .... ....
....|..|G-4 3F8F ....|--- .... ....|--- .... ....
....|..|--- .... ....|--- .... ....|--- .... ....
....|..|G-4 3F8F ....|E-4 UF.F ....|D-3 6F.A ....
....|..|--- .... ....|--- .... ....|--- .... ....
....|..|G-4 3F87 ....|--- .... ....|D-3 6F.7 ....
....|..|--- .... ....|--- .... ....|--- .... ....
....|..|C-4 3F9F ....|D-4 UF.F ....|D-3 6F.F ....
....|..|--- .... ....|--- .... ....|--- .... ....
....|..|G-4 3F87 ....|--- .... ....|D-3 6F.A ....
....|..|--- .... ....|--- .... ....|--- .... ....
....|..|G-4 3F87 ....|G-4 UF.A ....|D-3 6F.A ....
....|..|--- .... ....|--- .... ....|--- .... ....
....|..|G-4 3F8A ....|--- .... ....|D-3 6F.F ....
....|..|--- .... ....|--- .... ....|--- .... ....
....|..|G-4 3F8A ....|E-4 UF.A ....|D-3 6F.F ....
....|..|--- .... ....|--- .... ....|--- .... ....
....|..|--- .... ....|--- .... ....|--- .... ....
....|..|--- .... ....|--- .... ....|--- .... ....
....|..|G-5 3F.F ....|E-4 UF.7 ....|D-3 6F.A ....
....|..|--- .... ....|--- .... ....|--- .... ....
....|..|G-4 3F87 ....|--- .... ....|D-3 6F.7 ....
....|..|--- .... ....|--- .... ....|--- .... ....
....|..|A-5 3F.F ....|G-4 UF.7 ....|D-3 6F.F ....
....|..|--- .... ....|--- .... ....|--- .... ....
....|..|G-4 3F87 ....|--- .... ....|D-3 6F.A ....
....|..|--- .... ....|--- .... ....|--- .... ....
....|..|G-5 3F.F ....|E-4 UF.7 ....|D-3 6F.A ....
....|..|--- .... ....|--- .... ....|--- .... ....
....|..|--- .... ....|--- .... ....|D-3 6F.F ....
....|..|--- .... ....|--- .... ....|--- .... ....
....|..|A-5 3F.F ....|D-4 UF.7 ....|D-3 6F.F ....
....|..|--- .... ....|--- .... ....|--- .... ....
....|..|--- .... ....|--- .... ....|--- .... ....
....|..|--- .... ....|--- .... ....|--- .... ....
....|..|G-5 3F.F ....|--- .... ....|D-3 6F.A ....
....|..|--- .... ....|--- .... ....|--- .... ....
....|..|--- .... ....|--- .... ....|D-3 6F.7 ....
....|..|--- .... ....|--- .... ....|--- .... ....

[Pattern6]
....|..|G-5 3F.A ....|B-3 UF.F ....|G-2 6F.F ....
....|..|--- .... ....|--- .... ....|--- .... ....
....|..|--- .... ....|--- .... ....|D-3 6F.A ....
....|..|--- .... ....|--- .... ....|--- .... ....
....|..|D-4 3F3F ....|R-- .... ....|D-3 6F.A ....
....|..|--- .... ....|--- .... ....|--- .... ....
....|..|D-4 3F3F ....|--- .... ....|--- .... ....
....|..|--- .... ....|--- .... ....|--- .... ....
....|..|A-5 3F.7 ....|--- .... ....|G-3 6F.F ....
....|..|--- .... ....|--- .... ....|--- .... ....
....|..|D-4 3F3F ....|--- .... ....|--- .... ....
....|..|--- .... ....|--- .... ....|--- .... ....
....|..|D-4 3F3F ....|G-4 UF.F ....|G-2 6F.A ....
....|..|--- .... ....|--- .... ....|--- .... ....
....|..|--- .... ....|--- .... ....|D-3 6F.7 ....
....|..|--- .... ....|--- .... ....|--- .... ....
....|..|A-5 3F.7 ....|F#4 UF.F ....|G-2 6F.F ....
....|..|--- .... ....|--- .... ....|--- .... ....
....|..|D-4 3F3A ....|--- .... ....|--- .... ....
....|..|--- .... ....|--- .... ....|--- .... ....
....|..|D-4 3F3F ....|--- .... ....|G-3 6F.A ....
....|..|--- .... ....|--- .... ....|--- .... ....
....|..|D-4 3F3F ....|--- .... ....|--- .... ....
....|..|--- .... ....|--- .... ....|--- .... ....
....|..|D-4 3F3A ....|F#4 UF.F ....|G-3 6F.F ....
....|..|--- .... ....|--- .... ....|--- .... ....
....|..|D-4 3F3F ....|F#4 UF.F ....|--- .... ....
....|..|--- .... ....|--- .... ....|--- .... ....
....|..|D-4 3F3F ....|B-3 UF.F ....|G-2 6F.A ....
....|..|--- .... ....|--- .... ....|--- .... ....
....|..|B-4 3F.F ....|--- .... ....|--- .... ....
....|..|--- .... ....|--- .... ....|--- .... ....
....|..|D-4 3F3A ....|E-4 UF.F ....|A-2 6F.F ....
....|..|--- .... ....|--- .... ....|--- .... ....
....|..|D-4 3F37 ....|--- .... ....|--- .... ....
....|..|--- .... ....|--- .... ....|--- .... ....
....|..|C#4 3F4F ....|G-4 UF.7 ....|G-3 6F.A ....
....|..|--- .... ....|--- .... ....|--- .... ....
....|..|C#4 3F4F ....|F#4 UF.A ....|--- .... ....
....|..|--- .... ....|--- .... ....|--- .... ....
....|..|D-4 3F3A ....|F#4 UF.7 ....|A-3 6F.F ....
....|..|--- .... ....|--- .... ....|--- .... ....
....|..|C#4 3F4F ....|--- .... ....|--- .... ....
....|..|--- .... ....|--- .... ....|--- .... ....
....|..|C#4 3F4F ....|E-4 UF.A ....|A-2 6F.A ....
....|..|--- .... ....|--- .... ....|--- .... ....
....|..|D-4 3F37 ....|--- .... ....|--- .... ....
....|..|--- .... ....|--- .... ....|--- .... ....
....|..|C#4 3F4A ....|A-3 UF.F ....|A-2 6F.F ....
....|..|--- .... ....|--- .... ....|--- .... ....
....|..|D-4 3F37 ....|F#4 UF.7 ....|--- .... ....
....|..|--- .... ....|--- .... ....|--- .... ....
....|..|C#4 3F4F ....|B-3 UF.7 ....|A-3 6F.A ....
....|..|--- .... ....|--- .... ....|--- .... ....
....|..|C#4 3F4F ....|--- .... ....|--- .... ....
....|..|--- .... ....|--- .... ....|--- .... ....
....|..|C#4 3F4A ....|E-4 UF.7 ....|A-3 6F.F ....
....|..|--- .... ....|--- .... ....|--- .... ....
....|..|C#4 3F4F ....|--- .... ....|--- .... ....
....|..|--- .... ....|--- .... ....|--- .... ....
....|..|C#4 3F4F ....|A-3 UF.A ....|A-2 6F.A ....
....|..|--- .... ....|--- .... ....|--- .... ....
....|..|C#4 3F47 ....|--- .... ....|--- .... ....
....|..|--- .... ....|--- .... ....|--- .... ....

[Pattern7]
....|..|C#4 3F4A ....|A-3 UF.F ....|F#2 6F.F ....
....|..|--- .... ....|--- .... ....|--- .... ....
....|..|C#4 3F47 ....|--- .... ....|--- .... ....
....|..|--- .... ....|--- .... ....|--- .... ....
....|..|E-4 3F3F ....|--- .... ....|A-3 6F.A ....
....|..|--- .... ....|--- .... ....|--- .... ....
....|..|E-4 3F3F ....|--- .... ....|--- .... ....
....|..|--- .... ....|--- .... ....|--- .... ....
....|..|C#4 3F4A ....|A-3 UF.7 ....|F#3 6F.F ....
....|..|--- .... ....|--- .... ....|--- .... ....
....|..|E-4 3F3F ....|--- .... ....|--- .... ....
....|..|--- .... ....|--- .... ....|--- .... ....
....|..|E-4 3F3F ....|B-3 UF.F ....|F#2 6F.A ....
....|..|--- .... ....|--- .... ....|--- .... ....
....|..|C#4 3F47 ....|--- .... ....|--- .... ....
....|..|--- .... ....|--- .... ....|--- .... ....
....|..|E-4 3F3A ....|D-4 UF.F ....|F#2 6F.F ....
....|..|--- .... ....|--- .... ....|--- .... ....
....|..|C#4 3F47 ....|--- .... ....|--- .... ....
....|..|--- .... ....|--- .... ....|--- .... ....
....|..|D-4 3F5F ....|A-3 UF.F ....|F#3 6F.A ....
....|..|--- .... ....|--- .... ....|--- .... ....
....|..|D-4 3F5F ....|--- .... ....|--- .... ....
....|..|--- .... ....|--- .... ....|--- .... ....
....|..|E-4 3F3A ....|F#3 UF.F ....|F#3 6F.F ....
....|..|--- .... ....|--- .... ....|--- .... ....
....|..|D-4 3F5F ....|--- .... ....|--- .... ....
....|..|--- .... ....|--- .... ....|--- .... ....
....|..|D-4 3F5F ....|A-3 UF.F ....|F#2 6F.A ....
....|..|--- .... ....|--- .... ....|--- .... ....
....|..|E-4 3F37 ....|--- .... ....|--- .... ....
....|..|--- .... ....|--- .... ....|--- .... ....
....|..|D-4 3F5A ....|A-3 UF.A ....|E-2 6F.F ....
....|..|--- .... ....|--- .... ....|--- .... ....
....|..|E-4 3F37 ....|--- .... ....|--- .... ....
....|..|--- .... ....|--- .... ....|--- .... ....
....|..|E-4 3F6F ....|G-3 UF.F ....|F#3 6F.A ....
....|..|--- .... ....|--- .... ....|--- .... ....
....|..|E-4 3F6F ....|--- .... ....|--- .... ....
....|..|--- .... ....|--- .... ....|--- .... ....
....|..|D-4 3F5A ....|D-4 UF.7 ....|E-3 6F.F ....
....|..|--- .... ....|--- .... ....|--- .... ....
....|..|E-4 3F6F ....|--- .... ....|--- .... ....
....|..|--- .... ....|--- .... ....|--- .... ....
....|..|E-4 3F6F ....|A-3 UF.7 ....|E-2 6F.A ....
....|..|--- .... ....|--- .... ....|--- .... ....
....|..|D-4 3F57 ....|--- .... ....|--- .... ....
....|..|--- .... ....|--- .... ....|--- .... ....
....|..|E-4 3F6A ....|F#3 UF.7 ....|E-2 6F.F ....
....|..|--- .... ....|--- .... ....|--- .... ....
....|..|D-4 3F57 ....|--- .... ....|--- .... ....
....|..|--- .... ....|--- .... ....|--- .... ....
....|..|E-4 3F6F ....|A-3 UF.7 ....|E-3 6F.A ....
....|..|--- .... ....|--- .... ....|--- .... ....
....|..|E-4 3F6F ....|--- .... ....|--- .... ....
....|..|--- .... ....|--- .... ....|--- .... ....
....|..|E-4 3F6A ....|R-- .... ....|E-3 6F.F ....
....|..|--- .... ....|--- .... ....|--- .... ....
....|..|E-4 3F6F ....|--- .... ....|--- .... ....
....|..|--- .... ....|--- .... ....|--- .... ....
....|..|E-4 3F6F ....|G-3 UF.7 ....|E-2 6F.A ....
....|..|--- .... ....|--- .... ....|--- .... ....
....|..|E-4 3F67 ....|--- .... ....|--- .... ....
....|..|--- .... ....|--- .... ....|--- .... ....

[Pattern8]
....|..|E-4 3F6A ....|G-3 UF.F ....|C-3 6F.F ....
....|..|--- .... ....|--- .... ....|--- .... ....
....|..|E-4 3F67 ....|--- .... ....|--- .... ....
....|..|--- .... ....|--- .... ....|--- .... ....
....|..|E-4 3F4F ....|R-- .... ....|E-3 6F.A ....
....|..|--- .... ....|--- .... ....|--- .... ....
....|..|E-4 3F4F ....|--- .... ....|--- .... ....
....|..|--- .... ....|--- .... ....|--- .... ....
....|..|E-4 3F6A ....|--- .... ....|C-4 6F.F ....
....|..|--- .... ....|--- .... ....|--- .... ....
....|..|E-4 3F4F ....|--- .... ....|--- .... ....
....|..|--- .... ....|--- .... ....|--- .... ....
....|..|E-4 3F4F ....|G-3 UF.F ....|C-3 6F.A ....
....|..|--- .... ....|--- .... ....|--- .... ....
....|..|E-4 3F67 ....|--- .... ....|--- .... ....
....|..|--- .... ....|--- .... ....|--- .... ....
....|..|E-4 3F4A ....|E-4 UF.F ....|C-3 6F.F ....
....|..|--- .... ....|--- .... ....|--- .... ....
....|..|E-4 3F67 ....|--- .... ....|--- .... ....
....|..|--- .... ....|--- .... ....|--- .... ....
....|..|E-4 3F4F ....|D-4 UF.F ....|C-4 6F.A ....
....|..|--- .... ....|--- .... ....|--- .... ....
....|..|E-4 3F4F ....|--- .... ....|--- .... ....
....|..|--- .... ....|--- .... ....|--- .... ....
....|..|E-4 3F4A ....|B-3 UF.F ....|C-4 6F.F ....
....|..|--- .... ....|--- .... ....|--- .... ....
....|..|E-4 3F4F ....|A-3 UF.F ....|--- .... ....
....|..|--- .... ....|--- .... ....|--- .... ....
....|..|E-4 3F4F ....|E-4 UF.A ....|C-3 6F.A ....
....|..|--- .... ....|--- .... ....|--- .... ....
....|..|E-4 3F47 ....|G-3 UF.F ....|--- .... ....
....|..|--- .... ....|--- .... ....|--- .... ....
....|..|E-4 3F4A ....|A-3 UF.F ....|A-2 6F.F ....
....|..|--- .... ....|--- .... ....|--- .... ....
....|..|E-4 3F47 ....|--- .... ....|--- .... ....
....|..|--- .... ....|--- .... ....|--- .... ....
....|..|E-4 3F7F ....|G-3 UF.7 ....|C-4 6F.A ....
....|..|--- .... ....|--- .... ....|--- .... ....
....|..|E-4 3F7F ....|A-3 UF.A ....|--- .... ....
....|..|--- .... ....|--- .... ....|--- .... ....
....|..|E-4 3F4A ....|E-4 UF.7 ....|A-3 6F.F ....
....|..|--- .... ....|--- .... ....|--- .... ....
....|..|E-4 3F7F ....|G-3 UF.A ....|--- .... ....
....|..|--- .... ....|--- .... ....|--- .... ....
....|..|E-4 3F7F ....|D-4 UF.7 ....|A-2 6F.A ....
....|..|--- .... ....|--- .... ....|--- .... ....
....|..|E-4 3F47 ....|--- .... ....|--- .... ....
....|..|--- .... ....|--- .... ....|--- .... ....
....|..|E-4 3F7A ....|B-3 UF.7 ....|A-2 6F.F ....
....|..|--- .... ....|--- .... ....|--- .... ....
....|..|E-4 3F47 ....|A-3 UF.7 ....|--- .... ....
....|..|--- .... ....|--- .... ....|--- .... ....
....|..|E-4 3F7F ....|--- .... ....|A-3 6F.A ....
....|..|--- .... ....|--- .... ....|--- .... ....
....|..|E-4 3F7F ....|G-3 UF.7 ....|--- .... ....
....|..|--- .... ....|--- .... ....|--- .... ....
....|..|E-4 3F7A ....|A-3 UF.F ....|A-3 6F.F ....
....|..|--- .... ....|--- .... ....|--- .... ....
....|..|E-4 3F7F ....|B-3 UF.F ....|--- .... ....
....|..|--- .... ....|--- .... ....|--- .... ....
....|..|E-4 3F7F ....|--- .... ....|A-2 6F.A ....
....|..|--- .... ....|--- .... ....|--- .... ....
....|..|E-4 3F77 ....|--- .... ....|--- .... ....
....|..|--- .... ....|--- .... ....|--- .... ....

[Pattern9]
....|..|E-4 3F7A ....|D-4 UF.F ....|D-3 6F.F ....
....|..|--- .... ....|--- .... ....|--- .... ....
....|..|E-4 3F77 ....|--- .... ....|--- .... ....
....|..|--- .... ....|--- .... ....|--- .... ....
....|..|G-4 3F8F ....|A-3 UF.A ....|A-3 6F.A ....
....|..|--- .... ....|--- .... ....|--- .... ....
....|..|G-4 3F8F ....|B-3 UF.A ....|D-3 6F.F ....
....|..|--- .... ....|--- .... ....|--- .... ....
....|..|E-4 3F7A ....|--- .... ....|A-2 6F.7 ....
....|..|--- .... ....|--- .... ....|--- .... ....
....|..|G-4 3F8F ....|--- .... ....|--- .... ....
....|..|--- .... ....|--- .... ....|--- .... ....
....|..|G-4 3F8F ....|D-4 UF.A ....|D-3 6F.A ....
....|..|--- .... ....|--- .... ....|--- .... ....
....|..|E-4 3F77 ....|--- .... ....|--- .... ....
....|..|--- .... ....|--- .... ....|--- .... ....
....|..|G-4 3F8A ....|A-3 UF.7 ....|D-3 6F.F ....
....|..|--- .... ....|--- .... ....|--- .... ....
....|..|E-4 3F77 ....|B-3 UF.7 ....|D-3 6F.A ....
....|..|--- .... ....|--- .... ....|--- .... ....
....|..|G-4 3F8F ....|E-4 UF.F ....|R-- .... ....
....|..|--- .... ....|--- .... ....|--- .... ....
....|..|G-4 3F8F ....|--- .... ....|D-3 6F.F ....
....|..|--- .... ....|--- .... ....|--- .... ....
....|..|G-4 3F8A ....|G-4 UF.F ....|D-3 6F.F ....
....|..|--- .... ....|--- .... ....|--- .... ....
....|..|G-4 3F8F ....|--- .... ....|--- .... ....
....|..|--- .... ....|--- .... ....|--- .... ....
....|..|G-4 3F8F ....|E-4 UF.F ....|D-3 6F.A ....
....|..|--- .... ....|--- .... ....|--- .... ....
....|..|G-4 3F87 ....|--- .... ....|D-3 6F.7 ....
....|..|--- .... ....|--- .... ....|--- .... ....
....|..|D-5 3F.F ....|D-4 UF.F ....|B-2 6F.F ....
....|..|--- .... ....|--- .... ....|--- .... ....
....|..|G-4 3F87 ....|--- .... ....|D-3 6F.A ....
....|..|--- .... ....|--- .... ....|--- .... ....
....|..|G-4 3F87 ....|G-4 UF.A ....|D-3 6F.A ....
....|..|--- .... ....|--- .... ....|--- .... ....
....|..|G-4 3F8A ....|--- .... ....|B-2 6F.F ....
....|..|--- .... ....|--- .... ....|--- .... ....
....|..|D-4 3FAF ....|E-4 UF.A ....|B-2 6F.F ....
....|..|--- .... ....|--- .... ....|--- .... ....
....|..|--- .... ....|--- .... ....|--- .... ....
....|..|--- .... ....|--- .... ....|--- .... ....
....|..|G-4 3F87 ....|E-4 UF.7 ....|B-2 6F.A ....
....|..|--- .... ....|--- .... ....|--- .... ....
....|..|G-4 3F87 ....|--- .... ....|D-3 6F.7 ....
....|..|--- .... ....|--- .... ....|--- .... ....
....|..|D#4 3FAF ....|D#4 UF.F ....|B-2 6F.F ....
....|..|--- .... ....|--- .... ....|--- .... ....
....|..|G-4 3F87 ....|--- .... ....|B-2 6F.A ....
....|..|--- .... ....|--- .... ....|--- .... ....
....|..|G-4 3F87 ....|E-4 UF.7 ....|B-2 6F.A ....
....|..|--- .... ....|--- .... ....|--- .... ....
....|..|--- .... ....|--- .... ....|B-2 6F.F ....
....|..|--- .... ....|--- .... ....|--- .... ....
....|..|A-5 3F.F ....|D-4 UF.7 ....|B-2 6F.F ....
....|..|--- .... ....|--- .... ....|--- .... ....
....|..|--- .... ....|--- .... ....|--- .... ....
....|..|--- .... ....|--- .... ....|--- .... ....
....|..|D#4 3FAA ....|D#4 UF.A ....|B-2 6F.A ....
....|..|--- .... ....|--- .... ....|--- .... ....
....|..|--- .... ....|--- .... ....|B-2 6F.7 ....
....|..|--- .... ....|--- .... ....|--- .... ....

[Pattern10]
....|..|E-4 3F6F ....|R-- .... ....|E-2 6F.F ....
....|..|--- .... ....|--- .... ....|--- .... ....
....|..|--- .... ....|--- .... ....|B-2 6F.A ....
....|..|--- .... ....|--- .... ....|--- .... ....
....|..|A-5 3F.A ....|--- .... ....|B-2 6F.A ....
....|..|--- .... ....|--- .... ....|--- .... ....
....|..|--- .... ....|--- .... ....|B-2 6F.F ....
....|..|--- .... ....|--- .... ....|--- .... ....
....|..|D#4 3FA7 ....|G-4 UF.F ....|B-2 6F.7 ....
....|..|--- .... ....|--- .... ....|--- .... ....
....|..|--- .... ....|--- .... ....|--- .... ....
....|..|--- .... ....|--- .... ....|--- .... ....
....|..|E-4 3F6A ....|F#4 UF.F ....|E-2 6F.A ....
....|..|--- .... ....|--- .... ....|--- .... ....
....|..|--- .... ....|--- .... ....|B-2 6F.7 ....
....|..|--- .... ....|--- .... ....|--- .... ....
....|..|A-5 3F.7 ....|G-4 UF.F ....|E-2 6F.F ....
....|..|--- .... ....|--- .... ....|--- .... ....
....|..|--- .... ....|--- .... ....|B-2 6F.A ....
....|..|--- .... ....|--- .... ....|--- .... ....
....|..|F#4 3FBF ....|F#4 UF.F ....|--- .... ....
....|..|--- .... ....|--- .... ....|--- .... ....
....|..|--- .... ....|--- .... ....|B-2 6F.F ....
....|..|--- .... ....|--- .... ....|--- .... ....
....|..|E-4 3FBF ....|D-4 UF.F ....|E-2 6F.7 ....
....|..|--- .... ....|--- .... ....|--- .... ....
....|..|--- .... ....|--- .... ....|--- .... ....
....|..|--- .... ....|--- .... ....|--- .... ....
....|..|D-4 3FAF ....|B-3 UF.F ....|E-2 6F.A ....
....|..|--- .... ....|--- .... ....|--- .... ....
....|..|--- .... ....|--- .... ....|B-2 6F.7 ....
....|..|--- .... ....|--- .... ....|--- .... ....
....|..|G-4 3F3F ....|D-4 UF.F ....|C-2 6F.F ....
....|..|--- .... ....|--- .... ....|--- .... ....
....|..|--- .... ....|--- .... ....|B-2 6F.A ....
....|..|--- .... ....|--- .... ....|--- .... ....
....|..|E-4 3FBA ....|E-4 UF.F ....|--- .... ....
....|..|--- .... ....|--- .... ....|--- .... ....
....|..|--- .... ....|--- .... ....|G-2 6F.F ....
....|..|--- .... ....|--- .... ....|--- .... ....
....|..|D-4 3FAA ....|G-4 UF.7 ....|E-2 6F.7 ....
....|..|--- .... ....|--- .... ....|--- .... ....
....|..|--- .... ....|--- .... ....|--- .... ....
....|..|--- .... ....|R-- .... ....|--- .... ....
....|..|F#4 3FB7 ....|E-4 UF.F ....|G-2 6F.F ....
....|..|--- .... ....|--- .... ....|--- .... ....
....|..|--- .... ....|--- .... ....|B-2 6F.7 ....
....|..|--- .... ....|--- .... ....|--- .... ....
....|..|E-4 3FB7 ....|D-4 UF.7 ....|C-2 6F.F ....
....|..|--- .... ....|--- .... ....|--- .... ....
....|..|--- .... ....|--- .... ....|G-2 6F.A ....
....|..|--- .... ....|--- .... ....|--- .... ....
....|..|G-4 3FCF ....|B-3 UF.7 ....|--- .... ....
....|..|--- .... ....|--- .... ....|--- .... ....
....|..|--- .... ....|--- .... ....|G-2 6F.F ....
....|..|--- .... ....|R-- .... ....|--- .... ....
....|..|G-4 3FCF ....|D-4 UF.7 ....|C-2 6F.7 ....
....|..|--- .... ....|--- .... ....|--- .... ....
....|..|--- .... ....|--- .... ....|--- .... ....
....|..|--- .... ....|--- .... ....|--- .... ....
....|..|--- .... ....|E-4 UF.7 ....|G-2 6F.F ....
....|..|--- .... ....|--- .... ....|--- .... ....
....|..|--- .... ....|R-- .... ....|G-2 6F.7 ....
....|..|--- .... ....|--- .... ....|--- .... ....

[Pattern11]
....|..|E-4 3F6F ....|--- .... ....|E-2 6F.F ....
....|..|--- .... ....|--- .... ....|--- .... ....
....|..|--- .... ....|--- .... ....|G-2 6F.A ....
....|..|--- .... ....|R-- .... ....|--- .... ....
....|..|G-4 3FCA ....|E-4 UF.7 ....|G-2 6F.7 ....
....|..|--- .... ....|--- .... ....|--- .... ....
....|..|--- .... ....|--- .... ....|B-2 6F.F ....
....|..|--- .... ....|--- .... ....|--- .... ....
....|..|--- .... ....|G-4 UF.F ....|C-2 6F.7 ....
....|..|--- .... ....|--- .... ....|--- .... ....
....|..|--- .... ....|R-- .... ....|--- .... ....
....|..|--- .... ....|--- .... ....|--- .... ....
....|..|G-4 3FC7 ....|F#4 UF.F ....|E-2 6F.A ....
....|..|--- .... ....|--- .... ....|--- .... ....
....|..|--- .... ....|G-4 UF.F ....|G-2 6F.7 ....
....|..|--- .... ....|--- .... ....|--- .... ....
....|..|G-4 3FC7 ....|--- .... ....|E-2 6F.F ....
....|..|--- .... ....|--- .... ....|--- .... ....
....|..|--- .... ....|--- .... ....|B-2 6F.A ....
....|..|--- .... ....|--- .... ....|--- .... ....
....|..|F#4 3FBF ....|F#4 UF.F ....|G-2 6F.7 ....
....|..|--- .... ....|--- .... ....|--- .... ....
....|..|--- .... ....|R-- .... ....|B-2 6F.F ....
....|..|--- .... ....|--- .... ....|--- .... ....
....|..|E-4 3FBF ....|D-4 UF.F ....|E-2 6F.7 ....
....|..|--- .... ....|--- .... ....|--- .... ....
....|..|--- .... ....|G-4 UF.A ....|--- .... ....
....|..|--- .... ....|--- .... ....|--- .... ....
....|..|D-4 3FAF ....|B-3 UF.F ....|E-2 6F.A ....
....|..|--- .... ....|--- .... ....|--- .... ....
....|..|--- .... ....|--- .... ....|B-2 6F.7 ....
....|..|--- .... ....|--- .... ....|--- .... ....
....|..|G-4 3F3F ....|D-4 UF.F ....|C-2 6F.F ....
....|..|--- .... ....|--- .... ....|--- .... ....
....|..|--- .... ....|--- .... ....|B-2 6F.A ....
....|..|--- .... ....|--- .... ....|--- .... ....
....|..|E-4 3FBA ....|E-4 UF.F ....|--- .... ....
....|..|--- .... ....|--- .... ....|--- .... ....
....|..|--- .... ....|G-4 UF.7 ....|G-2 6F.F ....
....|..|--- .... ....|--- .... ....|--- .... ....
....|..|D-4 3FAA ....|B-3 UF.A ....|E-2 6F.7 ....
....|..|--- .... ....|--- .... ....|--- .... ....
....|..|--- .... ....|--- .... ....|--- .... ....
....|..|--- .... ....|R-- .... ....|--- .... ....
....|..|F#4 3FB7 ....|E-4 UF.F ....|G-2 6F.F ....
....|..|--- .... ....|--- .... ....|--- .... ....
....|..|--- .... ....|--- .... ....|B-2 6F.7 ....
....|..|--- .... ....|--- .... ....|--- .... ....
....|..|E-4 3FB7 ....|D-4 UF.7 ....|C-2 6F.F ....
....|..|--- .... ....|--- .... ....|--- .... ....
....|..|--- .... ....|--- .... ....|G-2 6F.A ....
....|..|--- .... ....|--- .... ....|--- .... ....
....|..|G-4 3FCF ....|B-3 UF.7 ....|--- .... ....
....|..|--- .... ....|--- .... ....|--- .... ....
....|..|--- .... ....|--- .... ....|G-2 6F.F ....
....|..|--- .... ....|R-- .... ....|--- .... ....
....|..|G-4 3FCF ....|D-4 UF.7 ....|C-2 6F.7 ....
....|..|--- .... ....|--- .... ....|--- .... ....
....|..|--- .... ....|--- .... ....|--- .... ....
....|..|--- .... ....|--- .... ....|--- .... ....
....|..|--- .... ....|E-4 UF.7 ....|G-2 6F.F ....
....|..|--- .... ....|--- .... ....|--- .... ....
....|..|--- .... ....|R-- .... ....|G-2 6F.7 ....
....|..|--- .... ....|--- .... ....|--- .... ....

[Pattern12]
....|..|G-4 3F3F ....|--- .... ....|C-3 6F.F ....
....|..|--- .... ....|--- .... ....|--- .... ....
....|..|--- .... ....|--- .... ....|G-2 6F.A ....
....|..|--- .... ....|R-- .... ....|--- .... ....
....|..|G-4 3FCA ....|E-4 UF.7 ....|G-2 6F.7 ....
....|..|--- .... ....|--- .... ....|--- .... ....
....|..|--- .... ....|--- .... ....|C-3 6F.F ....
....|..|--- .... ....|--- .... ....|--- .... ....
....|..|--- .... ....|E-4 UF.F ....|G-2 6F.F ....
....|..|--- .... ....|--- .... ....|--- .... ....
....|..|--- .... ....|R-- .... ....|--- .... ....
....|..|--- .... ....|--- .... ....|--- .... ....
....|..|G-4 3FC7 ....|F#4 UF.F ....|C-3 6F.A ....
....|..|--- .... ....|--- .... ....|--- .... ....
....|..|--- .... ....|--- .... ....|G-2 6F.7 ....
....|..|--- .... ....|--- .... ....|--- .... ....
....|..|G-4 3FC7 ....|G-4 UF.F ....|C-3 6F.F ....
....|..|--- .... ....|--- .... ....|--- .... ....
....|..|--- .... ....|--- .... ....|C-3 6F.A ....
....|..|--- .... ....|--- .... ....|--- .... ....
....|..|C-4 3F1F ....|F#4 UF.F ....|G-2 6F.7 ....
....|..|--- .... ....|--- .... ....|--- .... ....
....|..|--- .... ....|E-4 UF.F ....|--- .... ....
....|..|--- .... ....|--- .... ....|--- .... ....
....|..|C-4 3FDF ....|F#4 UF.A ....|B-2 6F.F ....
....|..|--- .... ....|--- .... ....|--- .... ....
....|..|--- .... ....|--- .... ....|--- .... ....
....|..|--- .... ....|--- .... ....|--- .... ....
....|..|C-4 3F1F ....|G-4 UF.A ....|C-3 6F.A ....
....|..|--- .... ....|--- .... ....|--- .... ....
....|..|--- .... ....|--- .... ....|C-3 6F.7 ....
....|..|--- .... ....|--- .... ....|--- .... ....
....|..|G-4 3F3F ....|E-4 UF.7 ....|A-2 6F.F ....
....|..|--- .... ....|--- .... ....|--- .... ....
....|..|--- .... ....|E-4 UF.A ....|--- .... ....
....|..|--- .... ....|--- .... ....|--- .... ....
....|..|C-4 3FDA ....|F#4 UF.7 ....|B-2 6F.A ....
....|..|--- .... ....|--- .... ....|--- .... ....
....|..|--- .... ....|--- .... ....|A-2 6F.F ....
....|..|--- .... ....|--- .... ....|--- .... ....
....|..|C-4 3F1A ....|F#4 UF.F ....|E-2 6F.F ....
....|..|--- .... ....|--- .... ....|--- .... ....
....|..|--- .... ....|--- .... ....|--- .... ....
....|..|--- .... ....|--- .... ....|--- .... ....
....|..|C-4 3F17 ....|G-4 UF.F ....|A-2 6F.A ....
....|..|--- .... ....|--- .... ....|--- .... ....
....|..|--- .... ....|A-4 UF.F ....|--- .... ....
....|..|--- .... ....|--- .... ....|--- .... ....
....|..|C-4 3FD7 ....|--- .... ....|A-2 6F.F ....
....|..|--- .... ....|--- .... ....|--- .... ....
....|..|--- .... ....|--- .... ....|A-2 6F.A ....
....|..|--- .... ....|--- .... ....|--- .... ....
....|..|C-4 3F1F ....|G-4 UF.F ....|E-2 6F.A ....
....|..|--- .... ....|--- .... ....|--- .... ....
....|..|--- .... ....|--- .... ....|A-2 6F.F ....
....|..|--- .... ....|--- .... ....|--- .... ....
....|..|C-4 3FDF ....|F#4 UF.F ....|E-2 6F.F ....
....|..|--- .... ....|--- .... ....|--- .... ....
....|..|--- .... ....|F#4 UF.F ....|--- .... ....
....|..|--- .... ....|--- .... ....|--- .... ....
....|..|G-4 3F3F ....|E-4 UF.F ....|C-5 7F.F ....
....|..|--- .... ....|--- .... ....|--- .... ....
....|..|--- .... ....|--- .... ....|A-2 6F.7 ....
....|..|--- .... ....|--- .... ....|--- .... ....

[Pattern13]
....|..|D-5 3F.F ....|D-4 UF.F ....|B-2 6F.F ....
....|..|--- .... ....|--- .... ....|R-- .... ....
....|..|--- .... ....|--- .... ....|A-2 6F.A ....
....|..|--- .... ....|--- .... ....|--- .... ....
....|..|F#4 3FEF ....|G-4 UF.7 ....|E-2 6F.A ....
....|..|--- .... ....|--- .... ....|--- .... ....
....|..|F#4 3FEF ....|A-4 UF.7 ....|B-2 6F.F ....
....|..|--- .... ....|--- .... ....|--- .... ....
....|..|G-4 3F3A ....|E-4 UF.A ....|F#2 6F.F ....
....|..|--- .... ....|--- .... ....|--- .... ....
....|..|F#4 3FEF ....|--- .... ....|--- .... ....
....|..|--- .... ....|--- .... ....|--- .... ....
....|..|F#4 3FEF ....|G-4 UF.7 ....|B-2 6F.A ....
....|..|--- .... ....|--- .... ....|R-- .... ....
....|..|--- .... ....|--- .... ....|A-2 6F.7 ....
....|..|--- .... ....|--- .... ....|--- .... ....
....|..|D-5 3F.F ....|F#4 UF.7 ....|B-2 6F.F ....
....|..|--- .... ....|--- .... ....|--- .... ....
....|..|F#4 3FEA ....|F#4 UF.7 ....|B-2 6F.A ....
....|..|--- .... ....|--- .... ....|--- .... ....
....|..|F#4 3FEF ....|E-4 UF.7 ....|C-5 7F.7 ....
....|..|--- .... ....|--- .... ....|--- .... ....
....|..|F#4 3FEF ....|--- .... ....|B-2 6F.F ....
....|..|--- .... ....|--- .... ....|--- .... ....
....|..|D-5 3F.7 ....|B-3 UF.F ....|F#2 6F.F ....
....|..|--- .... ....|--- .... ....|R-- .... ....
....|..|F#4 3FEF ....|D-4 UF.F ....|--- .... ....
....|..|--- .... ....|--- .... ....|--- .... ....
....|..|F#4 3FEF ....|R-- .... ....|B-2 6F.A ....
....|..|--- .... ....|--- .... ....|--- .... ....
....|..|F#4 3FE7 ....|--- .... ....|B-2 6F.7 ....
....|..|--- .... ....|--- .... ....|--- .... ....
....|..|F#4 3FEA ....|E-4 UF.F ....|E-3 6F.F ....
....|..|--- .... ....|--- .... ....|--- .... ....
....|..|F#4 3FE7 ....|--- .... ....|B-2 6F.A ....
....|..|--- .... ....|--- .... ....|--- .... ....
....|..|E-4 3F6F ....|B-3 UF.A ....|F#2 6F.A ....
....|..|--- .... ....|--- .... ....|--- .... ....
....|..|E-4 3F6F ....|D-4 UF.A ....|E-3 6F.F ....
....|..|--- .... ....|--- .... ....|--- .... ....
....|..|D-5 3F.7 ....|R-- .... ....|B-2 6F.F ....
....|..|--- .... ....|--- .... ....|--- .... ....
....|..|E-4 3F6F ....|--- .... ....|--- .... ....
....|..|--- .... ....|--- .... ....|--- .... ....
....|..|E-4 3F6F ....|E-4 UF.A ....|E-3 6F.A ....
....|..|--- .... ....|--- .... ....|--- .... ....
....|..|F#4 3FE7 ....|--- .... ....|B-2 6F.7 ....
....|..|--- .... ....|--- .... ....|--- .... ....
....|..|E-4 3F6A ....|B-3 UF.7 ....|E-3 6F.F ....
....|..|--- .... ....|--- .... ....|--- .... ....
....|..|F#4 3FE7 ....|D-4 UF.7 ....|E-3 6F.A ....
....|..|--- .... ....|--- .... ....|--- .... ....
....|..|E-4 3F6F ....|--- .... ....|B-2 6F.A ....
....|..|--- .... ....|--- .... ....|--- .... ....
....|..|E-4 3F6F ....|--- .... ....|E-3 6F.F ....
....|..|--- .... ....|--- .... ....|--- .... ....
....|..|E-4 3F6A ....|E-4 UF.7 ....|B-2 6F.F ....
....|..|--- .... ....|--- .... ....|--- .... ....
....|..|E-4 3F6F ....|--- .... ....|--- .... ....
....|..|--- .... ....|--- .... ....|--- .... ....
....|..|E-4 3F6F ....|D-4 UF.F ....|E-3 6F.A ....
....|..|--- .... ....|--- .... ....|--- .... ....
....|..|E-4 3F67 ....|D-4 UF.F ....|E-3 6F.7 ....
....|..|--- .... ....|--- .... ....|--- .... ....

[Pattern14]
....|..|E-4 3F6A ....|D-4 UF.F ....|C-3 6F.F ....
....|..|--- .... ....|--- .... ....|--- .... ....
....|..|E-4 3F67 ....|--- .... ....|E-3 6F.A ....
....|..|--- .... ....|--- .... ....|--- .... ....
....|..|E-4 3F4F ....|C-4 UF.F ....|B-2 6F.A ....
....|..|--- .... ....|--- .... ....|--- .... ....
....|..|E-4 3F4F ....|C-4 UF.F ....|C-3 6F.F ....
....|..|--- .... ....|--- .... ....|--- .... ....
....|..|E-4 3F6A ....|D-4 UF.A ....|G-2 6F.F ....
....|..|--- .... ....|--- .... ....|--- .... ....
....|..|E-4 3F4F ....|D-4 UF.A ....|--- .... ....
....|..|--- .... ....|--- .... ....|--- .... ....
....|..|E-4 3F4F ....|D-4 UF.A ....|C-3 6F.A ....
....|..|--- .... ....|--- .... ....|--- .... ....
....|..|E-4 3F67 ....|--- .... ....|E-3 6F.7 ....
....|..|--- .... ....|--- .... ....|--- .... ....
....|..|E-4 3F4A ....|C-4 UF.A ....|C-3 6F.F ....
....|..|--- .... ....|--- .... ....|--- .... ....
....|..|E-4 3F67 ....|C-4 UF.A ....|C-3 6F.A ....
....|..|--- .... ....|--- .... ....|--- .... ....
....|..|E-4 3F4F ....|D-4 UF.7 ....|G-2 6F.A ....
....|..|--- .... ....|--- .... ....|--- .... ....
....|..|E-4 3F4F ....|D-4 UF.7 ....|C-3 6F.F ....
....|..|--- .... ....|--- .... ....|--- .... ....
....|..|E-4 3F4A ....|D-4 UF.7 ....|G-2 6F.F ....
....|..|--- .... ....|--- .... ....|--- .... ....
....|..|E-4 3F4F ....|--- .... ....|--- .... ....
....|..|--- .... ....|--- .... ....|--- .... ....
....|..|E-4 3F4F ....|C-4 UF.7 ....|C-3 6F.A ....
....|..|--- .... ....|--- .... ....|--- .... ....
....|..|E-4 3F47 ....|C-4 UF.7 ....|C-3 6F.7 ....
....|..|--- .... ....|--- .... ....|--- .... ....
....|..|E-4 3F4A ....|R-- .... ....|A-2 6F.F ....
....|..|--- .... ....|--- .... ....|--- .... ....
....|..|E-4 3F47 ....|--- .... ....|C-3 6F.A ....
....|..|--- .... ....|--- .... ....|--- .... ....
....|..|E-4 3F4F ....|--- .... ....|G-2 6F.A ....
....|..|--- .... ....|--- .... ....|--- .... ....
....|..|E-4 3F4F ....|--- .... ....|A-2 6F.F ....
....|..|--- .... ....|--- .... ....|--- .... ....
....|..|E-4 3F4A ....|B-3 UF.F ....|D-2 6F.F ....
....|..|--- .... ....|--- .... ....|--- .... ....
....|..|E-4 3F4F ....|--- .... ....|--- .... ....
....|..|--- .... ....|--- .... ....|--- .... ....
....|..|E-4 3F4F ....|C-4 UF.F ....|A-2 6F.A ....
....|..|--- .... ....|--- .... ....|--- .... ....
....|..|E-4 3F47 ....|--- .... ....|C-3 6F.7 ....
....|..|--- .... ....|--- .... ....|--- .... ....
....|..|E-4 3F4A ....|B-4 UF.F ....|A-2 6F.F ....
....|..|--- .... ....|--- .... ....|--- .... ....
....|..|E-4 3F47 ....|--- .... ....|A-2 6F.A ....
....|..|--- .... ....|--- .... ....|--- .... ....
....|..|E-4 3F4F ....|B-4 UF.F ....|D-2 6F.A ....
....|..|--- .... ....|--- .... ....|--- .... ....
....|..|E-4 3F4F ....|--- .... ....|A-2 6F.F ....
....|..|--- .... ....|--- .... ....|--- .... ....
....|..|E-4 3F4A ....|A-4 UF.F ....|D-2 6F.F ....
....|..|--- .... ....|--- .... ....|--- .... ....
....|..|E-4 3F4F ....|G-4 UF.F ....|--- .... ....
....|..|--- .... ....|--- .... ....|--- .... ....
....|..|E-4 3F4F ....|B-4 UF.A ....|A-2 6F.A ....
....|..|--- .... ....|--- .... ....|--- .... ....
....|..|E-4 3F47 ....|--- .... ....|A-2 6F.7 ....
....|..|--- .... ....|--- .... ....|--- .... ....

[Pattern15]
....|..|E-4 3F4A ....|A-4 UF.F ....|D-3 6F.F ....
....|..|--- .... ....|--- .... ....|--- .... ....
....|..|E-4 3F47 ....|--- .... ....|A-2 6F.A ....
....|..|--- .... ....|--- .... ....|--- .... ....
....|..|G-4 3F8F ....|C-4 UF.7 ....|D-2 6F.A ....
....|..|--- .... ....|--- .... ....|--- .... ....
....|..|G-4 3F8F ....|G-4 UF.A ....|D-3 6F.F ....
....|..|--- .... ....|--- .... ....|--- .... ....
....|..|E-4 3F4A ....|B-4 UF.7 ....|A-2 6F.F ....
....|..|--- .... ....|--- .... ....|--- .... ....
....|..|G-4 3F8F ....|--- .... ....|--- .... ....
....|..|--- .... ....|--- .... ....|--- .... ....
....|..|G-4 3F8F ....|B-4 UF.7 ....|D-3 6F.A ....
....|..|--- .... ....|--- .... ....|--- .... ....
....|..|E-4 3F47 ....|--- .... ....|A-2 6F.7 ....
....|..|--- .... ....|--- .... ....|--- .... ....
....|..|G-4 3F8A ....|A-4 UF.7 ....|D-3 6F.F ....
....|..|--- .... ....|--- .... ....|--- .... ....
....|..|E-4 3F47 ....|G-4 UF.7 ....|D-3 6F.A ....
....|..|--- .... ....|--- .... ....|--- .... ....
....|..|G-4 3F8F ....|E-4 UF.F ....|A-2 6F.A ....
....|..|--- .... ....|--- .... ....|--- .... ....
....|..|G-4 3F8F ....|--- .... ....|D-3 6F.F ....
....|..|--- .... ....|--- .... ....|--- .... ....
....|..|G-4 3F8A ....|G-4 UF.F ....|A-2 6F.F ....
....|..|--- .... ....|--- .... ....|--- .... ....
....|..|G-4 3F8F ....|--- .... ....|--- .... ....
....|..|--- .... ....|--- .... ....|--- .... ....
....|..|G-4 3F8F ....|A-4 UF.F ....|D-3 6F.A ....
....|..|--- .... ....|--- .... ....|--- .... ....
....|..|G-4 3F87 ....|--- .... ....|D-3 6F.7 ....
....|..|--- .... ....|--- .... ....|--- .... ....
....|..|D-5 3F.F ....|E-4 UF.A ....|D-3 6F.F ....
....|..|--- .... ....|--- .... ....|--- .... ....
....|..|G-4 3F87 ....|--- .... ....|D-3 6F.A ....
....|..|--- .... ....|--- .... ....|--- .... ....
....|..|G-4 3F87 ....|B-4 UF.F ....|A-2 6F.A ....
....|..|--- .... ....|--- .... ....|--- .... ....
....|..|G-4 3F8A ....|--- .... ....|D-3 6F.F ....
....|..|--- .... ....|--- .... ....|--- .... ....
....|..|E-5 3F.F ....|A-4 UF.A ....|A-2 6F.F ....
....|..|--- .... ....|--- .... ....|--- .... ....
....|..|--- .... ....|--- .... ....|--- .... ....
....|..|--- .... ....|--- .... ....|--- .... ....
....|..|G-4 3F87 ....|A-4 UF.F ....|D-3 6F.A ....
....|..|--- .... ....|--- .... ....|--- .... ....
....|..|G-4 3F87 ....|--- .... ....|D-3 6F.7 ....
....|..|--- .... ....|--- .... ....|--- .... ....
....|..|G-5 3F.F ....|G-4 UF.7 ....|D-3 6F.F ....
....|..|--- .... ....|--- .... ....|--- .... ....
....|..|G-4 3F87 ....|--- .... ....|D-3 6F.A ....
....|..|--- .... ....|--- .... ....|--- .... ....
....|..|G-4 3F87 ....|A-4 UF.7 ....|A-2 6F.A ....
....|..|--- .... ....|--- .... ....|--- .... ....
....|..|--- .... ....|--- .... ....|D-3 6F.F ....
....|..|--- .... ....|--- .... ....|--- .... ....
....|..|B-5 3F.F ....|A-4 UF.A ....|A-2 6F.F ....
....|..|--- .... ....|--- .... ....|--- .... ....
....|..|--- .... ....|--- .... ....|--- .... ....
....|..|--- .... ....|--- .... ....|--- .... ....
....|..|G-5 3F.A ....|B-4 UF.7 ....|D-3 6F.A ....
....|..|--- .... ....|--- .... ....|--- .... ....
....|..|--- .... ....|--- .... ....|D-3 6F.7 ....
....|..|--- .... ....|--- .... ....|--- .... ....

[Pattern16]
....|..|B-4 3F4F ....|R-- .... ....|G-2 6F.F ....
....|..|--- .... ....|--- .... ....|--- .... ....
....|..|--- .... ....|--- .... ....|D-3 6F.A ....
....|..|--- .... ....|--- .... ....|--- .... ....
....|..|B-5 3F.A ....|A-4 UF.7 ....|A-2 6F.A ....
....|..|--- .... ....|--- .... ....|--- .... ....
....|..|--- .... ....|--- .... ....|G-2 6F.F ....
....|..|--- .... ....|--- .... ....|--- .... ....
....|..|G-5 3F.7 ....|--- .... ....|G-2 6F.F ....
....|..|--- .... ....|--- .... ....|--- .... ....
....|..|--- .... ....|--- .... ....|--- .... ....
....|..|--- .... ....|--- .... ....|--- .... ....
....|..|B-4 3F4A ....|R-- .... ....|G-2 6F.A ....
....|..|--- .... ....|--- .... ....|--- .... ....
....|..|--- .... ....|--- .... ....|D-3 6F.7 ....
....|..|--- .... ....|--- .... ....|--- .... ....
....|..|B-5 3F.7 ....|--- .... ....|G-2 6F.F ....
....|..|--- .... ....|--- .... ....|--- .... ....
....|..|B-4 3FCF ....|--- .... ....|G-2 6F.A ....
....|..|--- .... ....|--- .... ....|--- .... ....
....|..|R-- .... ....|--- .... ....|G-2 6F.A ....
....|..|--- .... ....|--- .... ....|--- .... ....
....|..|--- .... ....|--- .... ....|G-2 6F.F ....
....|..|--- .... ....|--- .... ....|--- .... ....
....|..|A-4 3FCF ....|R-- .... ....|G-2 6F.F ....
....|..|--- .... ....|--- .... ....|--- .... ....
....|..|--- .... ....|--- .... ....|--- .... ....
....|..|--- .... ....|--- .... ....|--- .... ....
....|..|G-4 3FAF ....|--- .... ....|G-2 6F.A ....
....|..|--- .... ....|--- .... ....|--- .... ....
....|..|B-4 3FCA ....|--- .... ....|G-2 6F.7 ....
....|..|--- .... ....|--- .... ....|--- .... ....
....|..|G-3 3F3F ....|--- .... ....|G-2 6F.F ....
....|..|--- .... ....|--- .... ....|--- .... ....
....|..|G-3 3FEF ....|--- .... ....|G-2 6F.A ....
....|..|--- .... ....|--- .... ....|--- .... ....
....|..|A-4 3FCA ....|--- .... ....|G-2 6F.A ....
....|..|--- .... ....|--- .... ....|--- .... ....
....|..|--- .... ....|--- .... ....|G-2 6F.F ....
....|..|--- .... ....|--- .... ....|--- .... ....
....|..|G-3 3FCF ....|--- .... ....|G-2 6F.F ....
....|..|--- .... ....|--- .... ....|--- .... ....
....|..|B-4 3FC7 ....|--- .... ....|--- .... ....
....|..|--- .... ....|--- .... ....|--- .... ....
....|..|G-3 3F3A ....|--- .... ....|G-2 6F.A ....
....|..|--- .... ....|--- .... ....|--- .... ....
....|..|G-3 3FEA ....|--- .... ....|G-2 6F.7 ....
....|..|--- .... ....|--- .... ....|--- .... ....
....|..|A-4 3FC7 ....|--- .... ....|G-2 6F.F ....
....|..|--- .... ....|--- .... ....|--- .... ....
....|..|G-3 3FCF ....|--- .... ....|G-2 6F.A ....
....|..|--- .... ....|--- .... ....|--- .... ....
....|..|G-4 3FA7 ....|--- .... ....|G-2 6F.A ....
....|..|--- .... ....|--- .... ....|--- .... ....
....|..|--- .... ....|--- .... ....|G-2 6F.F ....
....|..|--- .... ....|--- .... ....|--- .... ....
....|..|G-3 3FCF ....|--- .... ....|G-2 6F.F ....
....|..|--- .... ....|--- .... ....|--- .... ....
....|..|G-3 3FE7 ....|--- .... ....|--- .... ....
....|..|--- .... ....|--- .... ....|--- .... ....
....|..|--- .... ....|--- .... ....|G-2 6F.A ....
....|..|--- .... ....|--- .... ....|--- .... ....
....|..|G-3 3FCA ....|--- .... ....|G-2 6F.7 ....
....|..|--- .... ....|--- .... ....|--- .... ....

[Pattern17]
....|..|B-4 3F4F ....|--- .... ....|G-2 6F.F ....
....|..|--- .... ....|--- .... ....|--- .... ....
....|..|--- .... ....|--- .... ....|G-2 6F.A ....
....|..|--- .... ....|--- .... ....|--- .... ....
....|..|G-3 3FCA ....|--- .... ....|G-2 6F.A ....
....|..|--- .... ....|--- .... ....|--- .... ....
....|..|--- .... ....|--- .... ....|G-2 6F.F ....
....|..|--- .... ....|--- .... ....|--- .... ....
....|..|R-- .... ....|--- .... ....|G-2 6F.F ....
....|..|--- .... ....|--- .... ....|--- .... ....
....|..|G-3 3FC7 ....|--- .... ....|--- .... ....
....|..|--- .... ....|--- .... ....|--- .... ....
....|..|B-4 3F4A ....|--- .... ....|G-2 6F.A ....
....|..|--- .... ....|--- .... ....|--- .... ....
....|..|--- .... ....|--- .... ....|G-2 6F.7 ....
....|..|--- .... ....|--- .... ....|--- .... ....
....|..|G-3 3FC7 ....|--- .... ....|G-2 6F.F ....
....|..|--- .... ....|--- .... ....|--- .... ....
....|..|--- .... ....|--- .... ....|G-2 6F.A ....
....|..|--- .... ....|--- .... ....|--- .... ....
....|..|R-- .... ....|--- .... ....|G-2 6F.A ....
....|..|--- .... ....|--- .... ....|--- .... ....
....|..|G-4 3FAF ....|--- .... ....|G-2 6F.F ....
....|..|--- .... ....|--- .... ....|--- .... ....
....|..|G-4 3FAF ....|--- .... ....|G-2 6F.F ....
....|..|--- .... ....|--- .... ....|--- .... ....
....|..|G-4 3FAF ....|--- .... ....|--- .... ....
....|..|--- .... ....|--- .... ....|--- .... ....
....|..|G-4 3FAF ....|--- .... ....|G-2 6F.A ....
....|..|--- .... ....|--- .... ....|--- .... ....
....|..|G-4 3FAF ....|--- .... ....|G-2 6F.7 ....
....|..|--- .... ....|--- .... ....|--- .... ....
....|..|G-4 3FAF ....|--- .... ....|G-2 6F.F ....
....|..|--- .... ....|--- .... ....|E-5 7F.F ....
....|..|F#4 3FBF ....|--- .... ....|G-2 6F.A ....
....|..|--- .... ....|--- .... ....|--- .... ....
....|..|F#4 3FBF ....|--- .... ....|G-2 6F.A ....
....|..|--- .... ....|--- .... ....|--- .... ....
....|..|F#4 3FBF ....|--- .... ....|G-2 6F.F ....
....|..|--- .... ....|--- .... ....|--- .... ....
....|..|F#4 3FBF ....|--- .... ....|G-2 6F.F ....
....|..|--- .... ....|--- .... ....|--- .... ....
....|..|E-4 3FBF ....|--- .... ....|--- .... ....
....|..|--- .... ....|--- .... ....|--- .... ....
....|..|E-4 3FBF ....|--- .... ....|G-2 6F.A ....
....|..|--- .... ....|--- .... ....|E-5 7F.A ....
....|..|E-4 3FBF ....|--- .... ....|G-2 6F.7 ....
....|..|--- .... ....|--- .... ....|--- .... ....
....|..|E-4 3FBF ....|--- .... ....|G-2 6F.F ....
....|..|--- .... ....|--- .... ....|--- .... ....
....|..|E-4 3FBF ....|--- .... ....|G-2 6F.A ....
....|..|--- .... ....|--- .... ....|--- .... ....
....|..|E-4 3FBF ....|--- .... ....|G-2 6F.A ....
....|..|--- .... ....|--- .... ....|--- .... ....
....|..|F#4 3FBF ....|--- .... ....|G-2 6F.F ....
....|..|--- .... ....|--- .... ....|--- .... ....
....|..|G-4 3FA7 ....|--- .... ....|G-2 6F.F ....
....|..|--- .... ....|--- .... ....|E-5 7F.7 ....
....|..|F#4 3FB7 ....|--- .... ....|--- .... ....
....|..|--- .... ....|--- .... ....|--- .... ....
....|..|F#4 3FB7 ....|--- .... ....|G-2 6F.A ....
....|..|--- .... ....|--- .... ....|--- .... ....
....|..|F#4 3FB7 ....|--- .... ....|G-2 6F.7 ....
....|..|--- .... ....|--- .... ....|--- .... ....

[Pattern18]
....|..|F#4 3FB7 ....|B-3 UF.F ....|G-2 6F.F ....
....|..|--- .... ....|--- .... ....|R-- .... ....
....|..|E-4 3FB7 ....|--- .... ....|G-2 6F.A ....
....|..|--- .... ....|--- .... ....|--- .... ....
....|..|D-4 3F3F ....|--- .... ....|G-2 6F.A ....
....|..|--- .... ....|--- .... ....|--- .... ....
....|..|D-4 3F3F ....|--- .... ....|--- .... ....
....|..|--- .... ....|--- .... ....|--- .... ....
....|..|E-4 3FB7 ....|--- .... ....|G-3 6F.F ....
....|..|--- .... ....|--- .... ....|--- .... ....
....|..|D-4 3F3F ....|--- .... ....|--- .... ....
....|..|--- .... ....|--- .... ....|--- .... ....
....|..|D-4 3F3F ....|G-4 UF.F ....|G-2 6F.A ....
....|..|--- .... ....|--- .... ....|R-- .... ....
....|..|F#4 3FB7 ....|--- .... ....|G-2 6F.7 ....
....|..|--- .... ....|--- .... ....|--- .... ....
....|..|D-4 3F3A ....|F#4 UF.F ....|G-2 6F.F ....
....|..|--- .... ....|--- .... ....|--- .... ....
....|..|D-4 3F3A ....|--- .... ....|--- .... ....
....|..|--- .... ....|--- .... ....|--- .... ....
....|..|D-4 3F3F ....|--- .... ....|G-3 6F.A ....
....|..|--- .... ....|--- .... ....|--- .... ....
....|..|D-4 3F3F ....|D-4 UF.F ....|--- .... ....
....|..|--- .... ....|--- .... ....|--- .... ....
....|..|D-4 3F3A ....|B-3 UF.7 ....|G-3 6F.F ....
....|..|--- .... ....|--- .... ....|R-- .... ....
....|..|D-4 3F3F ....|--- .... ....|--- .... ....
....|..|--- .... ....|--- .... ....|--- .... ....
....|..|D-4 3F3F ....|B-3 UF.F ....|G-2 6F.A ....
....|..|--- .... ....|--- .... ....|--- .... ....
....|..|B-4 3F.F ....|--- .... ....|--- .... ....
....|..|--- .... ....|--- .... ....|--- .... ....
....|..|D-4 3F3A ....|E-4 UF.F ....|A-2 6F.F ....
....|..|--- .... ....|--- .... ....|--- .... ....
....|..|D-4 3F37 ....|D-4 UF.A ....|--- .... ....
....|..|--- .... ....|--- .... ....|--- .... ....
....|..|C#4 3F4F ....|G-4 UF.7 ....|G-3 6F.A ....
....|..|--- .... ....|--- .... ....|--- .... ....
....|..|C#4 3F4F ....|--- .... ....|--- .... ....
....|..|--- .... ....|--- .... ....|--- .... ....
....|..|D-4 3F3A ....|F#4 UF.7 ....|A-3 6F.F ....
....|..|--- .... ....|--- .... ....|--- .... ....
....|..|C#4 3F4F ....|--- .... ....|--- .... ....
....|..|--- .... ....|--- .... ....|--- .... ....
....|..|C#4 3F4F ....|E-4 UF.A ....|A-2 6F.A ....
....|..|--- .... ....|--- .... ....|--- .... ....
....|..|D-4 3F37 ....|D-4 UF.7 ....|--- .... ....
....|..|--- .... ....|--- .... ....|--- .... ....
....|..|C#4 3F4A ....|A-3 UF.F ....|A-2 6F.F ....
....|..|--- .... ....|--- .... ....|--- .... ....
....|..|D-4 3F37 ....|--- .... ....|--- .... ....
....|..|--- .... ....|--- .... ....|--- .... ....
....|..|C#4 3F4F ....|B-3 UF.7 ....|A-3 6F.A ....
....|..|--- .... ....|--- .... ....|--- .... ....
....|..|C#4 3F4F ....|--- .... ....|--- .... ....
....|..|--- .... ....|--- .... ....|--- .... ....
....|..|C#4 3F4A ....|E-4 UF.7 ....|A-3 6F.F ....
....|..|--- .... ....|--- .... ....|--- .... ....
....|..|C#4 3F4F ....|--- .... ....|--- .... ....
....|..|--- .... ....|--- .... ....|--- .... ....
....|..|C#4 3F4F ....|A-3 UF.A ....|A-2 6F.A ....
....|..|--- .... ....|--- .... ....|--- .... ....
....|..|C#4 3F47 ....|--- .... ....|--- .... ....
....|..|--- .... ....|--- .... ....|--- .... ....

[Pattern22]
....|..|G-5 3F.A ....|B-3 UF.F ....|G-2 6F.F ....
....|..|--- .... ....|--- .... ....|--- .... ....
....|..|--- .... ....|--- .... ....|D-3 6F.A ....
....|..|--- .... ....|--- .... ....|--- .... ....
....|..|D-4 3F3F ....|R-- .... ....|D-3 6F.A ....
....|..|--- .... ....|--- .... ....|--- .... ....
....|..|D-4 3F3F ....|--- .... ....|--- .... ....
....|..|--- .... ....|--- .... ....|--- .... ....
....|..|A-5 3F.7 ....|--- .... ....|G-3 6F.F ....
....|..|--- .... ....|--- .... ....|--- .... ....
....|..|D-4 3F3F ....|--- .... ....|--- .... ....
....|..|--- .... ....|--- .... ....|--- .... ....
....|..|D-4 3F3F ....|G-4 UF.F ....|G-2 6F.A ....
....|..|--- .... ....|--- .... ....|--- .... ....
....|..|--- .... ....|--- .... ....|D-3 6F.7 ....
....|..|--- .... ....|--- .... ....|--- .... ....
....|..|A-5 3F.7 ....|F#4 UF.F ....|G-2 6F.F ....
....|..|--- .... ....|--- .... ....|--- .... ....
....|..|D-4 3F3A ....|--- .... ....|--- .... ....
....|..|--- .... ....|--- .... ....|--- .... ....
....|..|D-4 3F3F ....|--- .... ....|G-3 6F.A ....
....|..|--- .... ....|--- .... ....|--- .... ....
....|..|D-4 3F3F ....|D-4 UF.F ....|--- .... ....
....|..|--- .... ....|--- .... ....|--- .... ....
....|..|D-4 3F3A ....|B-3 UF.7 ....|G-3 6F.F ....
....|..|--- .... ....|--- .... ....|--- .... ....
....|..|D-4 3F3F ....|--- .... ....|--- .... ....
....|..|--- .... ....|--- .... ....|--- .... ....
....|..|D-4 3F3F ....|B-3 UF.F ....|G-2 6F.A ....
....|..|--- .... ....|--- .... ....|--- .... ....
....|..|B-4 3F.F ....|--- .... ....|--- .... ....
....|..|--- .... ....|--- .... ....|--- .... ....
....|..|D-4 3F3A ....|E-4 UF.F ....|A-2 6F.F ....
....|..|--- .... ....|--- .... ....|--- .... ....
....|..|D-4 3F37 ....|D-4 UF.A ....|--- .... ....
....|..|--- .... ....|--- .... ....|--- .... ....
....|..|C#4 3F4F ....|G-4 UF.7 ....|G-3 6F.A ....
....|..|--- .... ....|--- .... ....|--- .... ....
....|..|C#4 3F4F ....|--- .... ....|--- .... ....
....|..|--- .... ....|--- .... ....|--- .... ....
....|..|D-4 3F3A ....|F#4 UF.7 ....|A-3 6F.F ....
....|..|--- .... ....|--- .... ....|--- .... ....
....|..|C#4 3F4F ....|--- .... ....|--- .... ....
....|..|--- .... ....|--- .... ....|--- .... ....
....|..|C#4 3F4F ....|E-4 UF.A ....|A-2 6F.A ....
....|..|--- .... ....|--- .... ....|--- .... ....
....|..|D-4 3F37 ....|D-4 UF.7 ....|--- .... ....
....|..|--- .... ....|--- .... ....|--- .... ....
....|..|C#4 3F4A ....|A-3 UF.F ....|A-2 6F.F ....
....|..|--- .... ....|--- .... ....|--- .... ....
....|..|D-4 3F37 ....|--- .... ....|--- .... ....
....|..|--- .... ....|--- .... ....|--- .... ....
....|..|C#4 3F4F ....|B-3 UF.7 ....|A-3 6F.A ....
....|..|--- .... ....|--- .... ....|--- .... ....
....|..|C#4 3F4F ....|--- .... ....|--- .... ....
....|..|--- .... ....|--- .... ....|--- .... ....
....|..|C#4 3F4A ....|E-4 UF.7 ....|A-3 6F.F ....
....|..|--- .... ....|--- .... ....|--- .... ....
....|..|C#4 3F4F ....|--- .... ....|--- .... ....
....|..|--- .... ....|--- .... ....|--- .... ....
....|..|C#4 3F4F ....|A-3 UF.A ....|A-2 6F.A ....
....|..|--- .... ....|--- .... ....|--- .... ....
....|..|C#4 3F47 ....|--- .... ....|--- .... ....
....|..|--- .... ....|--- .... ....|--- .... ....

[Pattern26]
....|..|E-4 3F6F ....|R-- .... ....|E-2 6F.F ....
....|..|--- .... ....|--- .... ....|--- .... ....
....|..|--- .... ....|--- .... ....|B-2 6F.A ....
....|..|--- .... ....|--- .... ....|--- .... ....
....|..|A-5 3F.A ....|--- .... ....|B-2 6F.A ....
....|..|--- .... ....|--- .... ....|--- .... ....
....|..|--- .... ....|--- .... ....|B-2 6F.F ....
....|..|--- .... ....|--- .... ....|--- .... ....
....|..|D#4 3FA7 ....|G-4 UF.F ....|B-2 6F.7 ....
....|..|--- .... ....|--- .... ....|--- .... ....
....|..|--- .... ....|--- .... ....|--- .... ....
....|..|--- .... ....|--- .... ....|--- .... ....
....|..|E-4 3F6A ....|F#4 UF.F ....|E-2 6F.A ....
....|..|--- .... ....|--- .... ....|--- .... ....
....|..|--- .... ....|G-4 UF.F ....|B-2 6F.7 ....
....|..|--- .... ....|--- .... ....|--- .... ....
....|..|A-5 3F.7 ....|--- .... ....|E-2 6F.F ....
....|..|--- .... ....|--- .... ....|--- .... ....
....|..|--- .... ....|--- .... ....|B-2 6F.A ....
....|..|--- .... ....|--- .... ....|--- .... ....
....|..|F#4 3FBF ....|F#4 UF.F ....|--- .... ....
....|..|--- .... ....|--- .... ....|--- .... ....
....|..|--- .... ....|--- .... ....|B-2 6F.F ....
....|..|--- .... ....|--- .... ....|--- .... ....
....|..|E-4 3FBF ....|D-4 UF.F ....|E-2 6F.7 ....
....|..|--- .... ....|--- .... ....|--- .... ....
....|..|--- .... ....|G-4 UF.A ....|--- .... ....
....|..|--- .... ....|--- .... ....|--- .... ....
....|..|D-4 3FAF ....|B-3 UF.F ....|E-2 6F.A ....
....|..|--- .... ....|--- .... ....|--- .... ....
....|..|--- .... ....|--- .... ....|B-2 6F.7 ....
....|..|--- .... ....|--- .... ....|--- .... ....
....|..|G-4 3F3F ....|D-4 UF.F ....|C-2 6F.F ....
....|..|--- .... ....|--- .... ....|--- .... ....
....|..|--- .... ....|--- .... ....|B-2 6F.A ....
....|..|--- .... ....|--- .... ....|--- .... ....
....|..|E-4 3FBA ....|E-4 UF.F ....|--- .... ....
....|..|--- .... ....|--- .... ....|--- .... ....
....|..|--- .... ....|G-4 UF.7 ....|G-2 6F.F ....
....|..|--- .... ....|--- .... ....|--- .... ....
....|..|D-4 3FAA ....|B-3 UF.A ....|E-2 6F.7 ....
....|..|--- .... ....|--- .... ....|--- .... ....
....|..|--- .... ....|--- .... ....|--- .... ....
....|..|--- .... ....|R-- .... ....|--- .... ....
....|..|F#4 3FB7 ....|E-4 UF.F ....|G-2 6F.F ....
....|..|--- .... ....|--- .... ....|--- .... ....
....|..|--- .... ....|--- .... ....|B-2 6F.7 ....
....|..|--- .... ....|--- .... ....|--- .... ....
....|..|E-4 3FB7 ....|D-4 UF.7 ....|C-2 6F.F ....
....|..|--- .... ....|--- .... ....|--- .... ....
....|..|--- .... ....|--- .... ....|G-2 6F.A ....
....|..|--- .... ....|--- .... ....|--- .... ....
....|..|G-4 3FCF ....|B-3 UF.7 ....|--- .... ....
....|..|--- .... ....|--- .... ....|--- .... ....
....|..|--- .... ....|--- .... ....|G-2 6F.F ....
....|..|--- .... ....|R-- .... ....|--- .... ....
....|..|G-4 3FCF ....|D-4 UF.7 ....|C-2 6F.7 ....
....|..|--- .... ....|--- .... ....|--- .... ....
....|..|--- .... ....|--- .... ....|--- .... ....
....|..|--- .... ....|--- .... ....|--- .... ....
....|..|--- .... ....|E-4 UF.7 ....|G-2 6F.F ....
....|..|--- .... ....|--- .... ....|--- .... ....
....|..|--- .... ....|R-- .... ....|G-2 6F.7 ....
....|..|--- .... ....|--- .... ....|--- .... ....

[Pattern31]
....|..|E-4 3F4A ....|A-4 UF.F ....|D-3 6F.F ....
....|..|--- .... ....|--- .... ....|--- .... ....
....|..|E-4 3F47 ....|--- .... ....|A-2 6F.A ....
....|..|--- .... ....|--- .... ....|--- .... ....
....|..|G-4 3F8F ....|C-4 UF.7 ....|D-2 6F.A ....
....|..|--- .... ....|--- .... ....|--- .... ....
....|..|G-4 3F8F ....|G-4 UF.A ....|D-3 6F.F ....
....|..|--- .... ....|--- .... ....|--- .... ....
....|..|E-4 3F4A ....|B-4 UF.7 ....|A-2 6F.F ....
....|..|--- .... ....|--- .... ....|--- .... ....
....|..|G-4 3F8F ....|--- .... ....|--- .... ....
....|..|--- .... ....|--- .... ....|--- .... ....
....|..|G-4 3F8F ....|B-4 UF.7 ....|D-3 6F.A ....
....|..|--- .... ....|--- .... ....|--- .... ....
....|..|E-4 3F47 ....|--- .... ....|A-2 6F.7 ....
....|..|--- .... ....|--- .... ....|--- .... ....
....|..|G-4 3F8A ....|A-4 UF.7 ....|D-3 6F.F ....
....|..|--- .... ....|--- .... ....|--- .... ....
....|..|E-4 3F47 ....|G-4 UF.7 ....|D-3 6F.A ....
....|..|--- .... ....|--- .... ....|--- .... ....
....|..|G-4 3F8F ....|E-4 UF.F ....|A-2 6F.A ....
....|..|--- .... ....|--- .... ....|--- .... ....
....|..|G-4 3F8F ....|--- .... ....|D-3 6F.F ....
....|..|--- .... ....|--- .... ....|--- .... ....
....|..|G-4 3F8A ....|G-4 UF.F ....|A-2 6F.F ....
....|..|--- .... ....|--- .... ....|--- .... ....
....|..|G-4 3F8F ....|--- .... ....|--- .... ....
....|..|--- .... ....|--- .... ....|--- .... ....
....|..|G-4 3F8F ....|A-4 UF.F ....|D-3 6F.A ....
....|..|--- .... ....|--- .... ....|--- .... ....
....|..|G-4 3F87 ....|--- .... ....|D-3 6F.7 ....
....|..|--- .... ....|--- .... ....|--- .... ....
....|..|G-3 3FFF ....|E-4 UF.A ....|D-3 6F.F ....
....|..|--- .... ....|--- .... ....|--- .... ....
....|..|G-4 3F87 ....|--- .... ....|D-3 6F.A ....
....|..|--- .... ....|--- .... ....|--- .... ....
....|..|G-4 3F87 ....|B-4 UF.F ....|A-2 6F.A ....
....|..|--- .... ....|--- .... ....|--- .... ....
....|..|E-4 3F.F ....|--- .... ....|D-3 6F.F ....
....|..|--- .... ....|--- .... ....|--- .... ....
....|..|G-4 3F8A ....|A-4 UF.A ....|D-3 6F.7 ....
....|..|--- .... ....|--- .... ....|--- .... ....
....|..|--- .... ....|--- .... ....|--- .... ....
....|..|--- .... ....|--- .... ....|--- .... ....
....|..|G-4 3F.F ....|A-4 UF.F ....|D-3 6F.F ....
....|..|--- .... ....|--- .... ....|--- .... ....
....|..|G-4 3F87 ....|--- .... ....|D-3 6F.7 ....
....|..|--- .... ....|--- .... ....|--- .... ....
....|..|--- .... ....|G-4 UF.7 ....|A-2 6F.7 ....
....|..|--- .... ....|--- .... ....|--- .... ....
....|..|A-4 3F.F ....|--- .... ....|D-3 6F.F ....
....|..|--- .... ....|--- .... ....|--- .... ....
....|..|G-4 3F87 ....|A-4 UF.7 ....|--- .... ....
....|..|--- .... ....|--- .... ....|--- .... ....
....|..|--- .... ....|--- .... ....|--- .... ....
....|..|--- .... ....|--- .... ....|--- .... ....
....|..|B-4 3F.F ....|A-4 UF.A ....|D-3 6F.F ....
....|..|--- .... ....|--- .... ....|--- .... ....
....|..|--- .... ....|--- .... ....|--- .... ....
....|..|--- .... ....|--- .... ....|--- .... ....
....|..|D-5 3F.F ....|B-4 UF.7 ....|D-3 6F.F ....
....|..|--- .... ....|--- .... ....|--- .... ....
....|..|E-4 3F.7 ....|--- .... ....|D-3 6F.7 ....
....|..|--- .... ....|--- .... ....|--- .... ....

[Pattern32]
....|..|E-5 3F.F ....|R-- .... ....|D-3 6F.F ....
....|..|--- .... ....|--- .... ....|--- .... ....
....|..|--- .... ....|--- .... ....|--- .... ....
....|..|--- .... ....|--- .... ....|--- .... ....
....|..|G-4 3F.7 ....|A-4 UF.7 ....|D-3 6F.7 ....
....|..|--- .... ....|--- .... ....|--- .... ....
....|..|G-5 3F.F ....|--- .... ....|D-3 6F.F ....
....|..|--- .... ....|--- .... ....|--- .... ....
....|..|G-5 3F.F ....|--- .... ....|D-3 6F.A ....
....|..|--- .... ....|--- .... ....|--- .... ....
....|..|A-4 3F.7 ....|--- .... ....|D-3 6F.7 ....
....|..|--- .... ....|--- .... ....|--- .... ....
....|..|A-5 3F.F ....|R-- .... ....|D-3 6F.F ....
....|..|--- .... ....|--- .... ....|--- .... ....
....|..|--- .... ....|--- .... ....|--- .... ....
....|..|--- .... ....|--- .... ....|--- .... ....
....|..|A-5 3F.F ....|--- .... ....|D-3 6F.7 ....
....|..|--- .... ....|--- .... ....|--- .... ....
....|..|B-5 3F.F ....|--- .... ....|D-3 6F.F ....
....|..|--- .... ....|--- .... ....|--- .... ....
....|..|D-5 3F.7 ....|--- .... ....|D-3 6F.7 ....
....|..|--- .... ....|--- .... ....|--- .... ....
....|..|--- .... ....|--- .... ....|--- .... ....
....|..|--- .... ....|--- .... ....|--- .... ....
....|..|D-6 3F.F ....|R-- .... ....|D-3 6F.F ....
....|..|--- .... ....|--- .... ....|--- .... ....
....|..|--- .... ....|--- .... ....|--- .... ....
....|..|--- .... ....|--- .... ....|--- .... ....
....|..|D#6 3F.F ....|--- .... ....|B-2 6F.F ....
....|..|--- .... ....|--- .... ....|--- .... ....
....|..|G-5 3F.7 ....|--- .... ....|D-3 6F.7 ....
....|..|--- .... ....|--- .... ....|--- .... ....
....|..|E-4 3F6F ....|--- .... ....|E-2 6F.F ....
....|..|--- .... ....|--- .... ....|--- .... ....
....|..|--- .... ....|--- .... ....|--- .... ....
....|..|--- .... ....|--- .... ....|--- .... ....
....|..|A-5 3F.7 ....|--- .... ....|D-3 6F.7 ....
....|..|--- .... ....|--- .... ....|--- .... ....
....|..|--- .... ....|--- .... ....|B-2 6F.F ....
....|..|--- .... ....|--- .... ....|--- .... ....
....|..|A-5 3F.7 ....|G-4 UF.F ....|B-2 6F.A ....
....|..|--- .... ....|--- .... ....|--- .... ....
....|..|B-5 3F.7 ....|--- .... ....|D-3 6F.7 ....
....|..|--- .... ....|--- .... ....|--- .... ....
....|..|E-4 3F6A ....|F#4 UF.F ....|E-2 6F.A ....
....|..|--- .... ....|--- .... ....|--- .... ....
....|..|--- .... ....|--- .... ....|--- .... ....
....|..|--- .... ....|--- .... ....|--- .... ....
....|..|D-6 3F.7 ....|G-4 UF.F ....|E-2 6F.F ....
....|..|--- .... ....|--- .... ....|--- .... ....
....|..|--- .... ....|--- .... ....|B-2 6F.A ....
....|..|--- .... ....|--- .... ....|--- .... ....
....|..|F#4 3FBF ....|F#4 UF.F ....|B-2 6F.7 ....
....|..|--- .... ....|--- .... ....|--- .... ....
....|..|--- .... ....|--- .... ....|B-2 6F.F ....
....|..|--- .... ....|--- .... ....|--- .... ....
....|..|E-4 3FBF ....|D-4 UF.F ....|E-2 6F.7 ....
....|..|--- .... ....|--- .... ....|--- .... ....
....|..|--- .... ....|--- .... ....|--- .... ....
....|..|--- .... ....|--- .... ....|--- .... ....
....|..|D-4 3FAF ....|B-3 UF.F ....|E-2 6F.A ....
....|..|--- .... ....|--- .... ....|--- .... ....
....|..|--- .... ....|--- .... ....|B-2 6F.7 ....
....|..|--- .... ....|--- .... ....|--- .... ....

[Pattern33]
....|..|G-4 3F3F ....|D-4 UF.F ....|C-2 6F.F ....
....|..|--- .... ....|--- .... ....|--- .... ....
....|..|--- .... ....|--- .... ....|B-2 6F.A ....
....|..|--- .... ....|--- .... ....|--- .... ....
....|..|E-4 3FBA ....|E-4 UF.F ....|--- .... ....
....|..|--- .... ....|--- .... ....|--- .... ....
....|..|--- .... ....|--- .... ....|G-2 6F.F ....
....|..|--- .... ....|--- .... ....|--- .... ....
....|..|D-4 3FAA ....|G-4 UF.7 ....|E-2 6F.7 ....
....|..|--- .... ....|--- .... ....|--- .... ....
....|..|--- .... ....|--- .... ....|--- .... ....
....|..|--- .... ....|R-- .... ....|--- .... ....
....|..|F#4 3FB7 ....|E-4 UF.F ....|G-2 6F.F ....
....|..|--- .... ....|--- .... ....|--- .... ....
....|..|--- .... ....|--- .... ....|B-2 6F.7 ....
....|..|--- .... ....|--- .... ....|--- .... ....
....|..|E-4 3FB7 ....|D-4 UF.7 ....|C-2 6F.F ....
....|..|--- .... ....|--- .... ....|--- .... ....
....|..|--- .... ....|--- .... ....|G-2 6F.A ....
....|..|--- .... ....|--- .... ....|--- .... ....
....|..|G-4 3FCF ....|B-3 UF.7 ....|--- .... ....
....|..|--- .... ....|--- .... ....|--- .... ....
....|..|--- .... ....|--- .... ....|G-2 6F.F ....
....|..|--- .... ....|R-- .... ....|--- .... ....
....|..|G-4 3FCF ....|D-4 UF.7 ....|C-2 6F.7 ....
....|..|--- .... ....|--- .... ....|--- .... ....
....|..|--- .... ....|--- .... ....|--- .... ....
....|..|--- .... ....|--- .... ....|--- .... ....
....|..|--- .... ....|E-4 UF.7 ....|G-2 6F.F ....
....|..|--- .... ....|--- .... ....|--- .... ....
....|..|--- .... ....|R-- .... ....|G-2 6F.7 ....
....|..|--- .... ....|--- .... ....|--- .... ....
....|..|E-4 3F6F ....|--- .... ....|E-2 6F.F ....
....|..|--- .... ....|--- .... ....|--- .... ....
....|..|--- .... ....|--- .... ....|G-2 6F.A ....
....|..|--- .... ....|R-- .... ....|--- .... ....
....|..|G-4 3FCA ....|E-4 UF.7 ....|G-2 6F.7 ....
....|..|--- .... ....|--- .... ....|--- .... ....
....|..|--- .... ....|--- .... ....|B-2 6F.F ....
....|..|--- .... ....|--- .... ....|--- .... ....
....|..|--- .... ....|G-4 UF.F ....|C-2 6F.7 ....
....|..|--- .... ....|--- .... ....|--- .... ....
....|..|--- .... ....|R-- .... ....|--- .... ....
....|..|--- .... ....|--- .... ....|--- .... ....
....|..|G-4 3FC7 ....|F#4 UF.F ....|E-2 6F.A ....
....|..|--- .... ....|--- .... ....|--- .... ....
....|..|--- .... ....|G-4 UF.F ....|G-2 6F.7 ....
....|..|--- .... ....|--- .... ....|--- .... ....
....|..|G-4 3FC7 ....|--- .... ....|E-2 6F.F ....
....|..|--- .... ....|--- .... ....|--- .... ....
....|..|--- .... ....|--- .... ....|B-2 6F.A ....
....|..|--- .... ....|--- .... ....|--- .... ....
....|..|F#4 3FBF ....|F#4 UF.F ....|G-2 6F.7 ....
....|..|--- .... ....|--- .... ....|--- .... ....
....|..|--- .... ....|R-- .... ....|B-2 6F.F ....
....|..|--- .... ....|--- .... ....|--- .... ....
....|..|E-4 3FBF ....|D-4 UF.F ....|E-2 6F.7 ....
....|..|--- .... ....|--- .... ....|--- .... ....
....|..|--- .... ....|G-4 UF.A ....|--- .... ....
....|..|--- .... ....|--- .... ....|--- .... ....
....|..|D-4 3FAF ....|B-3 UF.F ....|E-2 6F.A ....
....|..|--- .... ....|--- .... ....|--- .... ....
....|..|--- .... ....|--- .... ....|B-2 6F.7 ....
....|..|--- .... ....|--- .... ....|--- .... ....

[Pattern34]
....|..|G-4 3F3F ....|D-4 UF.F ....|C-2 6F.F ....
....|..|--- .... ....|--- .... ....|--- .... ....
....|..|--- .... ....|--- .... ....|B-2 6F.A ....
....|..|--- .... ....|--- .... ....|--- .... ....
....|..|E-4 3FBA ....|E-4 UF.F ....|--- .... ....
....|..|--- .... ....|--- .... ....|--- .... ....
....|..|--- .... ....|G-4 UF.7 ....|G-2 6F.F ....
....|..|--- .... ....|--- .... ....|--- .... ....
....|..|D-4 3FAA ....|B-3 UF.A ....|E-2 6F.7 ....
....|..|--- .... ....|--- .... ....|--- .... ....
....|..|--- .... ....|--- .... ....|--- .... ....
....|..|--- .... ....|R-- .... ....|--- .... ....
....|..|F#4 3FB7 ....|E-4 UF.F ....|G-2 6F.F ....
....|..|--- .... ....|--- .... ....|--- .... ....
....|..|--- .... ....|--- .... ....|B-2 6F.7 ....
....|..|--- .... ....|--- .... ....|--- .... ....
....|..|E-4 3FB7 ....|D-4 UF.7 ....|C-2 6F.F ....
....|..|--- .... ....|--- .... ....|--- .... ....
....|..|--- .... ....|--- .... ....|G-2 6F.A ....
....|..|--- .... ....|--- .... ....|--- .... ....
....|..|G-4 3FCF ....|B-3 UF.7 ....|--- .... ....
....|..|--- .... ....|--- .... ....|--- .... ....
....|..|--- .... ....|--- .... ....|G-2 6F.F ....
....|..|--- .... ....|R-- .... ....|--- .... ....
....|..|G-4 3FCF ....|D-4 UF.7 ....|C-2 6F.7 ....
....|..|--- .... ....|--- .... ....|--- .... ....
....|..|--- .... ....|--- .... ....|--- .... ....
....|..|--- .... ....|--- .... ....|--- .... ....
....|..|--- .... ....|E-4 UF.7 ....|G-2 6F.F ....
....|..|--- .... ....|--- .... ....|--- .... ....
....|..|--- .... ....|R-- .... ....|G-2 6F.7 ....
....|..|--- .... ....|--- .... ....|--- .... ....
....|..|G-4 3F3F ....|--- .... ....|C-3 6F.F ....
....|..|--- .... ....|--- .... ....|--- .... ....
....|..|--- .... ....|--- .... ....|G-2 6F.A ....
....|..|--- .... ....|R-- .... ....|--- .... ....
....|..|G-4 3FCA ....|E-4 UF.7 ....|G-2 6F.7 ....
....|..|--- .... ....|--- .... ....|--- .... ....
....|..|--- .... ....|--- .... ....|C-3 6F.F ....
....|..|--- .... ....|--- .... ....|--- .... ....
....|..|--- .... ....|E-4 UF.F ....|G-2 6F.F ....
....|..|--- .... ....|--- .... ....|--- .... ....
....|..|--- .... ....|R-- .... ....|--- .... ....
....|..|--- .... ....|--- .... ....|--- .... ....
....|..|G-4 3FC7 ....|F#4 UF.F ....|C-3 6F.A ....
....|..|--- .... ....|--- .... ....|--- .... ....
....|..|--- .... ....|--- .... ....|G-2 6F.7 ....
....|..|--- .... ....|--- .... ....|--- .... ....
....|..|G-4 3FC7 ....|G-4 UF.F ....|C-3 6F.F ....
....|..|--- .... ....|--- .... ....|--- .... ....
....|..|--- .... ....|--- .... ....|C-3 6F.A ....
....|..|--- .... ....|--- .... ....|--- .... ....
....|..|C-4 3F1F ....|F#4 UF.F ....|G-2 6F.7 ....
....|..|--- .... ....|--- .... ....|--- .... ....
....|..|--- .... ....|E-4 UF.F ....|--- .... ....
....|..|--- .... ....|--- .... ....|--- .... ....
....|..|C-4 3FDF ....|F#4 UF.A ....|B-2 6F.F ....
....|..|--- .... ....|--- .... ....|--- .... ....
....|..|--- .... ....|--- .... ....|--- .... ....
....|..|--- .... ....|--- .... ....|--- .... ....
....|..|C-4 3F1F ....|G-4 UF.A ....|C-3 6F.A ....
....|..|--- .... ....|--- .... ....|--- .... ....
....|..|--- .... ....|--- .... ....|C-3 6F.7 ....
....|..|--- .... ....|--- .... ....|--- .... ....

[Pattern35]
....|..|G-4 3F3F ....|E-4 UF.7 ....|A-2 6F.F ....
....|..|--- .... ....|--- .... ....|--- .... ....
....|..|--- .... ....|E-4 UF.A ....|--- .... ....
....|..|--- .... ....|--- .... ....|--- .... ....
....|..|C-4 3FDA ....|F#4 UF.7 ....|B-2 6F.A ....
....|..|--- .... ....|--- .... ....|--- .... ....
....|..|--- .... ....|--- .... ....|A-2 6F.F ....
....|..|--- .... ....|--- .... ....|--- .... ....
....|..|C-4 3F1A ....|F#4 UF.F ....|E-2 6F.F ....
....|..|--- .... ....|--- .... ....|--- .... ....
....|..|--- .... ....|--- .... ....|--- .... ....
....|..|--- .... ....|--- .... ....|--- .... ....
....|..|C-4 3F17 ....|G-4 UF.F ....|A-2 6F.A ....
....|..|--- .... ....|--- .... ....|--- .... ....
....|..|--- .... ....|A-4 UF.F ....|--- .... ....
....|..|--- .... ....|--- .... ....|--- .... ....
....|..|C-4 3FD7 ....|--- .... ....|A-2 6F.F ....
....|..|--- .... ....|--- .... ....|--- .... ....
....|..|--- .... ....|--- .... ....|A-2 6F.A ....
....|..|--- .... ....|--- .... ....|--- .... ....
....|..|C-4 3F1F ....|G-4 UF.F ....|E-2 6F.A ....
....|..|--- .... ....|--- .... ....|--- .... ....
....|..|--- .... ....|--- .... ....|A-2 6F.F ....
....|..|--- .... ....|--- .... ....|--- .... ....
....|..|C-4 3FDF ....|F#4 UF.F ....|E-2 6F.F ....
....|..|--- .... ....|--- .... ....|--- .... ....
....|..|--- .... ....|F#4 UF.F ....|--- .... ....
....|..|--- .... ....|--- .... ....|--- .... ....
....|..|G-4 3F3F ....|E-4 UF.F ....|C-5 7F.F ....
....|..|--- .... ....|--- .... ....|--- .... ....
....|..|--- .... ....|--- .... ....|A-2 6F.7 ....
....|..|--- .... ....|--- .... ....|--- .... ....
....|..|D-5 3F.F ....|D-4 UF.F ....|B-2 6F.F ....
....|..|--- .... ....|--- .... ....|R-- .... ....
....|..|--- .... ....|--- .... ....|A-2 6F.A ....
....|..|--- .... ....|--- .... ....|--- .... ....
....|..|F#4 3FEF ....|G-4 UF.7 ....|E-2 6F.A ....
....|..|--- .... ....|--- .... ....|--- .... ....
....|..|F#4 3FEF ....|A-4 UF.7 ....|B-2 6F.F ....
....|..|--- .... ....|--- .... ....|--- .... ....
....|..|G-4 3F3A ....|E-4 UF.A ....|F#2 6F.F ....
....|..|--- .... ....|--- .... ....|--- .... ....
....|..|F#4 3FEF ....|--- .... ....|--- .... ....
....|..|--- .... ....|--- .... ....|--- .... ....
....|..|F#4 3FEF ....|G-4 UF.7 ....|B-2 6F.A ....
....|..|--- .... ....|--- .... ....|R-- .... ....
....|..|--- .... ....|--- .... ....|A-2 6F.7 ....
....|..|--- .... ....|--- .... ....|--- .... ....
....|..|D-5 3F.F ....|F#4 UF.7 ....|B-2 6F.F ....
....|..|--- .... ....|--- .... ....|--- .... ....
....|..|F#4 3FEA ....|F#4 UF.7 ....|B-2 6F.A ....
....|..|--- .... ....|--- .... ....|--- .... ....
....|..|F#4 3FEF ....|E-4 UF.7 ....|C-5 7F.7 ....
....|..|--- .... ....|--- .... ....|--- .... ....
....|..|F#4 3FEF ....|--- .... ....|B-2 6F.F ....
....|..|--- .... ....|--- .... ....|--- .... ....
....|..|D-5 3F.7 ....|B-3 UF.F ....|F#2 6F.F ....
....|..|--- .... ....|--- .... ....|R-- .... ....
....|..|F#4 3FEF ....|D-4 UF.F ....|--- .... ....
....|..|--- .... ....|--- .... ....|--- .... ....
....|..|F#4 3FEF ....|R-- .... ....|B-2 6F.A ....
....|..|--- .... ....|--- .... ....|--- .... ....
....|..|F#4 3FE7 ....|--- .... ....|B-2 6F.7 ....
....|..|--- .... ....|--- .... ....|--- .... ....

[Pattern36]
....|..|F#4 3FEA ....|E-4 UF.F ....|E-3 6F.F ....
....|..|--- .... ....|--- .... ....|--- .... ....
....|..|F#4 3FE7 ....|--- .... ....|B-2 6F.A ....
....|..|--- .... ....|--- .... ....|--- .... ....
....|..|E-4 3F6F ....|B-3 UF.A ....|F#2 6F.A ....
....|..|--- .... ....|--- .... ....|--- .... ....
....|..|E-4 3F6F ....|D-4 UF.A ....|E-3 6F.F ....
....|..|--- .... ....|--- .... ....|--- .... ....
....|..|D-5 3F.7 ....|R-- .... ....|B-2 6F.F ....
....|..|--- .... ....|--- .... ....|--- .... ....
....|..|E-4 3F6F ....|--- .... ....|--- .... ....
....|..|--- .... ....|--- .... ....|--- .... ....
....|..|E-4 3F6F ....|E-4 UF.A ....|E-3 6F.A ....
....|..|--- .... ....|--- .... ....|--- .... ....
....|..|F#4 3FE7 ....|--- .... ....|B-2 6F.7 ....
....|..|--- .... ....|--- .... ....|--- .... ....
....|..|E-4 3F6A ....|B-3 UF.7 ....|E-3 6F.F ....
....|..|--- .... ....|--- .... ....|--- .... ....
....|..|F#4 3FE7 ....|D-4 UF.7 ....|E-3 6F.A ....
....|..|--- .... ....|--- .... ....|--- .... ....
....|..|E-4 3F6F ....|--- .... ....|B-2 6F.A ....
....|..|--- .... ....|--- .... ....|--- .... ....
....|..|E-4 3F6F ....|--- .... ....|E-3 6F.F ....
....|..|--- .... ....|--- .... ....|--- .... ....
....|..|E-4 3F6A ....|E-4 UF.7 ....|B-2 6F.F ....
....|..|--- .... ....|--- .... ....|--- .... ....
....|..|E-4 3F6F ....|--- .... ....|--- .... ....
....|..|--- .... ....|--- .... ....|--- .... ....
....|..|E-4 3F6F ....|D-4 UF.F ....|E-3 6F.A ....
....|..|--- .... ....|--- .... ....|--- .... ....
....|..|E-4 3F67 ....|D-4 UF.F ....|E-3 6F.7 ....
....|..|--- .... ....|--- .... ....|--- .... ....
....|..|E-4 3F6A ....|D-4 UF.F ....|C-3 6F.F ....
....|..|--- .... ....|--- .... ....|--- .... ....
....|..|E-4 3F67 ....|--- .... ....|E-3 6F.A ....
....|..|--- .... ....|--- .... ....|--- .... ....
....|..|E-4 3F4F ....|C-4 UF.F ....|B-2 6F.A ....
....|..|--- .... ....|--- .... ....|--- .... ....
....|..|E-4 3F4F ....|C-4 UF.F ....|C-3 6F.F ....
....|..|--- .... ....|--- .... ....|--- .... ....
....|..|E-4 3F6A ....|D-4 UF.A ....|G-2 6F.F ....
....|..|--- .... ....|--- .... ....|--- .... ....
....|..|E-4 3F4F ....|D-4 UF.A ....|--- .... ....
....|..|--- .... ....|--- .... ....|--- .... ....
....|..|E-4 3F4F ....|D-4 UF.A ....|C-3 6F.A ....
....|..|--- .... ....|--- .... ....|--- .... ....
....|..|E-4 3F67 ....|--- .... ....|E-3 6F.7 ....
....|..|--- .... ....|--- .... ....|--- .... ....
....|..|E-4 3F4A ....|C-4 UF.A ....|C-3 6F.F ....
....|..|--- .... ....|--- .... ....|--- .... ....
....|..|E-4 3F67 ....|C-4 UF.A ....|C-3 6F.A ....
....|..|--- .... ....|--- .... ....|--- .... ....
....|..|E-4 3F4F ....|D-4 UF.7 ....|G-2 6F.A ....
....|..|--- .... ....|--- .... ....|--- .... ....
....|..|E-4 3F4F ....|D-4 UF.7 ....|C-3 6F.F ....
....|..|--- .... ....|--- .... ....|--- .... ....
....|..|E-4 3F4A ....|D-4 UF.7 ....|G-2 6F.F ....
....|..|--- .... ....|--- .... ....|--- .... ....
....|..|E-4 3F4F ....|--- .... ....|--- .... ....
....|..|--- .... ....|--- .... ....|--- .... ....
....|..|E-4 3F4F ....|C-4 UF.7 ....|C-3 6F.A ....
....|..|--- .... ....|--- .... ....|--- .... ....
....|..|E-4 3F47 ....|C-4 UF.7 ....|C-3 6F.7 ....
....|..|--- .... ....|--- .... ....|--- .... ....

[Pattern37]
....|..|E-4 3F4A ....|R-- .... ....|A-2 6F.F ....
....|..|--- .... ....|--- .... ....|--- .... ....
....|..|E-4 3F47 ....|--- .... ....|C-3 6F.A ....
....|..|--- .... ....|--- .... ....|--- .... ....
....|..|E-4 3F4F ....|--- .... ....|G-2 6F.A ....
....|..|--- .... ....|--- .... ....|--- .... ....
....|..|E-4 3F4F ....|--- .... ....|A-2 6F.F ....
....|..|--- .... ....|--- .... ....|--- .... ....
....|..|E-4 3F4A ....|B-3 UF.F ....|D-2 6F.F ....
....|..|--- .... ....|--- .... ....|--- .... ....
....|..|E-4 3F4F ....|--- .... ....|--- .... ....
....|..|--- .... ....|--- .... ....|--- .... ....
....|..|E-4 3F4F ....|C-4 UF.F ....|A-2 6F.A ....
....|..|--- .... ....|--- .... ....|--- .... ....
....|..|E-4 3F47 ....|--- .... ....|C-3 6F.7 ....
....|..|--- .... ....|--- .... ....|--- .... ....
....|..|E-4 3F4A ....|B-4 UF.F ....|A-2 6F.F ....
....|..|--- .... ....|--- .... ....|--- .... ....
....|..|E-4 3F47 ....|--- .... ....|A-2 6F.A ....
....|..|--- .... ....|--- .... ....|--- .... ....
....|..|E-4 3F4F ....|B-4 UF.F ....|D-2 6F.A ....
....|..|--- .... ....|--- .... ....|--- .... ....
....|..|E-4 3F4F ....|--- .... ....|A-2 6F.F ....
....|..|--- .... ....|--- .... ....|--- .... ....
....|..|E-4 3F4A ....|A-4 UF.F ....|D-2 6F.F ....
....|..|--- .... ....|--- .... ....|--- .... ....
....|..|E-4 3F4F ....|G-4 UF.F ....|--- .... ....
....|..|--- .... ....|--- .... ....|--- .... ....
....|..|E-4 3F4F ....|B-4 UF.A ....|A-2 6F.A ....
....|..|--- .... ....|--- .... ....|--- .... ....
....|..|E-4 3F47 ....|--- .... ....|A-2 6F.7 ....
....|..|--- .... ....|--- .... ....|--- .... ....
....|..|E-4 3F4A ....|A-4 UF.F ....|D-3 6F.F ....
....|..|--- .... ....|--- .... ....|--- .... ....
....|..|E-4 3F47 ....|--- .... ....|A-2 6F.A ....
....|..|--- .... ....|--- .... ....|--- .... ....
....|..|G-4 3F8F ....|C-4 UF.7 ....|D-2 6F.A ....
....|..|--- .... ....|--- .... ....|--- .... ....
....|..|G-4 3F8F ....|G-4 UF.A ....|D-3 6F.F ....
....|..|--- .... ....|--- .... ....|--- .... ....
....|..|E-4 3F4A ....|B-4 UF.7 ....|A-2 6F.F ....
....|..|--- .... ....|--- .... ....|--- .... ....
....|..|G-4 3F8F ....|--- .... ....|--- .... ....
....|..|--- .... ....|--- .... ....|--- .... ....
....|..|G-4 3F8F ....|B-4 UF.7 ....|D-3 6F.A ....
....|..|--- .... ....|--- .... ....|--- .... ....
....|..|E-4 3F47 ....|--- .... ....|A-2 6F.7 ....
....|..|--- .... ....|--- .... ....|--- .... ....
....|..|G-4 3F.F ....|B-4 UF.F ....|D-3 6F.F ....
....|..|--- .... ....|--- .... ....|--- .... ....
....|..|E-4 3F47 ....|G-4 UF.7 ....|D-3 6F.A ....
....|..|--- .... ....|--- .... ....|--- .... ....
....|..|G-4 3F.F ....|A-4 UF.F ....|D-3 6F.F ....
....|..|--- .... ....|--- .... ....|--- .... ....
....|..|G-4 3F8A ....|--- .... ....|--- .... ....
....|..|--- .... ....|--- .... ....|--- .... ....
....|..|G-4 3F8A ....|G-4 UF.F ....|D-3 6F.7 ....
....|..|--- .... ....|--- .... ....|--- .... ....
....|..|--- .... ....|--- .... ....|--- .... ....
....|..|--- .... ....|--- .... ....|--- .... ....
....|..|G-4 3F87 ....|A-4 UF.F ....|D-3 6F.A ....
....|..|--- .... ....|--- .... ....|--- .... ....
....|..|G-4 3F87 ....|--- .... ....|D-3 6F.7 ....
....|..|--- .... ....|--- .... ....|--- .... ....

[Pattern38]
....|..|G-4 3F1F ....|A-4 UF.A ....|G-2 6F.F ....
....|..|--- .... ....|--- .... ....|--- .... ....
....|..|G-4 3F87 ....|--- .... ....|--- .... ....
....|..|--- .... ....|--- .... ....|--- .... ....
....|..|G-4 3F1F ....|G-4 UF.F ....|--- .... ....
....|..|--- .... ....|--- .... ....|--- .... ....
....|..|G-4 3F1F ....|--- .... ....|--- .... ....
....|..|--- .... ....|--- .... ....|--- .... ....
....|..|G-4 3F.7 ....|B-4 UF.7 ....|D-3 6F.7 ....
....|..|--- .... ....|--- .... ....|--- .... ....
....|..|G-4 3F1F ....|--- .... ....|--- .... ....
....|..|--- .... ....|--- .... ....|--- .... ....
....|..|G-4 3F1F ....|A-4 UF.7 ....|G-2 6F.F ....
....|..|--- .... ....|--- .... ....|--- .... ....
....|..|--- .... ....|--- .... ....|--- .... ....
....|..|--- .... ....|--- .... ....|--- .... ....
....|..|G-4 3F1F ....|G-4 UF.7 ....|--- .... ....
....|..|--- .... ....|--- .... ....|--- .... ....
....|..|G-4 3F1A ....|--- .... ....|--- .... ....
....|..|--- .... ....|--- .... ....|--- .... ....
....|..|G-4 3F1F ....|A-4 UF.7 ....|--- .... ....
....|..|--- .... ....|--- .... ....|--- .... ....
....|..|G-4 3F1F ....|--- .... ....|--- .... ....
....|..|--- .... ....|--- .... ....|--- .... ....
....|..|G-4 3F17 ....|--- .... ....|G-2 6F.7 ....
....|..|--- .... ....|--- .... ....|--- .... ....
....|..|G-4 3F1F ....|--- .... ....|--- .... ....
....|..|--- .... ....|--- .... ....|--- .... ....
....|..|G-4 3F1F ....|G-4 UF.7 ....|--- .... ....
....|..|--- .... ....|--- .... ....|--- .... ....
....|..|G-4 3F17 ....|--- .... ....|--- .... ....
....|..|--- .... ....|--- .... ....|--- .... ....
....|..|G-4 3F3F ....|--- .... ....|G-2 6F.F ....
....|..|--- .... ....|--- .... ....|--- .... ....
....|..|G-4 3F17 ....|--- .... ....|--- .... ....
....|..|--- .... ....|--- .... ....|--- .... ....
....|..|G-4 3F3F ....|--- .... ....|G-2 6F.7 ....
....|..|--- .... ....|--- .... ....|--- .... ....
....|..|G-4 3F3F ....|--- .... ....|--- .... ....
....|..|--- .... ....|--- .... ....|--- .... ....
....|..|G-4 3F17 ....|--- .... ....|--- .... ....
....|..|--- .... ....|--- .... ....|--- .... ....
....|..|G-4 3F3F ....|--- .... ....|--- .... ....
....|..|--- .... ....|--- .... ....|--- .... ....
....|..|G-4 3F3F ....|--- .... ....|G-2 6F.F ....
....|..|--- .... ....|--- .... ....|--- .... ....
....|..|G-4 3F17 ....|--- .... ....|--- .... ....
....|..|--- .... ....|--- .... ....|--- .... ....
....|..|G-4 3F3F ....|--- .... ....|--- .... ....
....|..|--- .... ....|--- .... ....|--- .... ....
....|..|G-4 3F17 ....|--- .... ....|--- .... ....
....|..|--- .... ....|--- .... ....|--- .... ....
....|..|G-4 3F3F ....|--- .... ....|--- .... ....
....|..|--- .... ....|--- .... ....|--- .... ....
....|..|G-4 3F3F ....|--- .... ....|--- .... ....
....|..|--- .... ....|--- .... ....|--- .... ....
....|..|G-4 3F37 ....|--- .... ....|G-2 6F.7 ....
....|..|--- .... ....|--- .... ....|--- .... ....
....|..|G-4 3F3F ....|--- .... ....|--- .... ....
....|..|--- .... ....|--- .... ....|--- .... ....
....|..|G-4 3F3F ....|--- .... ....|--- .... ....
....|..|--- .... ....|--- .... ....|--- .... ....
....|..|G-4 3F37 ....|--- .... ....|--- .... ....
....|..|--- .... ....|--- .... ....|--- .... ....

[Pattern39]
....|..|G-4 3F1F ....|R-- .... ....|G-2 6F.F ....
....|..|--- .... ....|--- .... ....|--- .... ....
....|..|G-4 3F37 ....|--- .... ....|--- .... ....
....|..|--- .... ....|--- .... ....|--- .... ....
....|..|G-4 3F1F ....|--- .... ....|G-2 6F.7 ....
....|..|--- .... ....|--- .... ....|--- .... ....
....|..|G-4 3F1F ....|--- .... ....|--- .... ....
....|..|--- .... ....|--- .... ....|--- .... ....
....|..|G-4 3F37 ....|--- .... ....|--- .... ....
....|..|--- .... ....|--- .... ....|--- .... ....
....|..|G-4 3F1F ....|--- .... ....|--- .... ....
....|..|--- .... ....|--- .... ....|--- .... ....
....|..|G-4 3F1F ....|R-- .... ....|G-2 6F.F ....
....|..|--- .... ....|--- .... ....|--- .... ....
....|..|G-4 3F37 ....|--- .... ....|--- .... ....
....|..|--- .... ....|--- .... ....|--- .... ....
....|..|G-4 3F1F ....|--- .... ....|--- .... ....
....|..|--- .... ....|--- .... ....|--- .... ....
....|..|G-4 3F37 ....|--- .... ....|--- .... ....
....|..|--- .... ....|--- .... ....|--- .... ....
....|..|G-4 3F1F ....|--- .... ....|--- .... ....
....|..|--- .... ....|--- .... ....|--- .... ....
....|..|G-4 3F1F ....|--- .... ....|--- .... ....
....|..|--- .... ....|--- .... ....|--- .... ....
....|..|G-4 3F17 ....|R-- .... ....|G-2 6F.7 ....
....|..|--- .... ....|--- .... ....|--- .... ....
....|..|G-4 3F1F ....|--- .... ....|--- .... ....
....|..|--- .... ....|--- .... ....|--- .... ....
....|..|G-4 3F1F ....|--- .... ....|--- .... ....
....|..|--- .... ....|--- .... ....|--- .... ....
....|..|G-4 3F17 ....|--- .... ....|--- .... ....
....|..|--- .... ....|--- .... ....|--- .... ....
....|..|E-4 3F4F ....|--- .... ....|G-2 6F.F ....
....|..|--- .... ....|--- .... ....|--- .... ....
....|..|G-4 3F17 ....|--- .... ....|--- .... ....
....|..|--- .... ....|--- .... ....|--- .... ....
....|..|E-4 3F4F ....|--- .... ....|G-2 6F.7 ....
....|..|--- .... ....|--- .... ....|--- .... ....
....|..|E-4 3F4F ....|--- .... ....|--- .... ....
....|..|--- .... ....|--- .... ....|--- .... ....
....|..|G-4 3F17 ....|--- .... ....|--- .... ....
....|..|--- .... ....|--- .... ....|--- .... ....
....|..|E-4 3F4F ....|--- .... ....|--- .... ....
....|..|--- .... ....|--- .... ....|--- .... ....
....|..|E-4 3F4F ....|--- .... ....|G-2 6F.F ....
....|..|--- .... ....|--- .... ....|--- .... ....
....|..|G-4 3F17 ....|--- .... ....|--- .... ....
....|..|--- .... ....|--- .... ....|--- .... ....
....|..|E-5 3F.F ....|--- .... ....|--- .... ....
....|..|--- .... ....|--- .... ....|--- .... ....
....|..|G-4 3F17 ....|--- .... ....|--- .... ....
....|..|--- .... ....|--- .... ....|--- .... ....
....|..|G-4 3F3F ....|--- .... ....|--- .... ....
....|..|--- .... ....|--- .... ....|--- .... ....
....|..|G-4 3F3F ....|--- .... ....|--- .... ....
....|..|--- .... ....|--- .... ....|--- .... ....
....|..|G-4 3FCF ....|--- .... ....|D-5 7F.F ....
....|..|--- .... ....|--- .... ....|--- .... ....
....|..|G-4 3FCF ....|--- .... ....|--- .... ....
....|..|--- .... ....|--- .... ....|--- .... ....
....|..|G-4 3FCF ....|--- .... ....|--- .... ....
....|..|--- .... ....|--- .... ....|--- .... ....
....|..|E-4 3F47 ....|--- .... ....|--- .... ....
....|..|--- .... ....|--- .... ....|--- .... ....

[Pattern40]
....|..|B-4 3FEF ....|--- .... ....|G-2 6F.F ....
....|..|--- .... ....|--- .... ....|R-- .... ....
....|..|E-4 3F47 ....|--- .... ....|--- .... ....
....|..|--- .... ....|--- .... ....|--- .... ....
....|..|E-4 3F47 ....|--- .... ....|G-2 6F.7 ....
....|..|--- .... ....|--- .... ....|--- .... ....
....|..|G-4 3FCA ....|--- .... ....|--- .... ....
....|..|--- .... ....|--- .... ....|--- .... ....
....|..|E-5 3F.7 ....|--- .... ....|--- .... ....
....|..|--- .... ....|--- .... ....|--- .... ....
....|..|--- .... ....|--- .... ....|--- .... ....
....|..|--- .... ....|--- .... ....|--- .... ....
....|..|G-4 3F37 ....|--- .... ....|G-2 6F.A ....
....|..|--- .... ....|--- .... ....|R-- .... ....
....|..|G-4 3F37 ....|--- .... ....|--- .... ....
....|..|--- .... ....|--- .... ....|--- .... ....
....|..|G-4 3FC7 ....|--- .... ....|D-5 7F.7 ....
....|..|--- .... ....|--- .... ....|--- .... ....
....|..|G-4 3FC7 ....|--- .... ....|--- .... ....
....|..|--- .... ....|--- .... ....|--- .... ....
....|..|G-4 3FC7 ....|--- .... ....|--- .... ....
....|..|--- .... ....|--- .... ....|--- .... ....
....|..|--- .... ....|--- .... ....|--- .... ....
....|..|--- .... ....|--- .... ....|--- .... ....
....|..|B-4 3FE7 ....|--- .... ....|G-2 6F.7 ....
....|..|--- .... ....|--- .... ....|R-- .... ....
....|..|--- .... ....|--- .... ....|--- .... ....
....|..|--- .... ....|--- .... ....|--- .... ....
....|..|--- .... ....|--- .... ....|--- .... ....
....|..|--- .... ....|--- .... ....|--- .... ....
....|..|--- .... ....|--- .... ....|--- .... ....
....|..|--- .... ....|--- .... ....|--- .... ....
....|..|--- .... ....|--- .... ....|--- .... ....
....|..|--- .... ....|--- .... ....|--- .... ....
....|..|--- .... ....|--- .... ....|--- .... ....
....|..|--- .... ....|--- .... ....|--- .... ....
....|..|--- .... ....|--- .... ....|--- .... ....
....|..|--- .... ....|--- .... ....|--- .... ....
....|..|--- .... ....|--- .... ....|--- .... ....
....|..|--- .... ....|--- .... ....|--- .... ....
....|..|--- .... ....|--- .... ....|--- .... ....
....|..|--- .... ....|--- .... ....|--- .... ....
....|..|--- .... ....|--- .... ....|--- .... ....
....|..|--- .... ....|--- .... ....|--- .... ....
....|..|--- .... ....|--- .... ....|--- .... ....
....|..|--- .... ....|--- .... ....|--- .... ....
....|..|--- .... ....|--- .... ....|--- .... ....
....|..|--- .... ....|--- .... ....|--- .... ....
....|..|--- .... ....|--- .... ....|--- .... ....
....|..|--- .... ....|--- .... ....|--- .... ....
....|..|--- .... ....|--- .... ....|--- .... ....
....|..|--- .... ....|--- .... ....|--- .... ....
....|..|--- .... ....|--- .... ....|--- .... ....
....|..|--- .... ....|--- .... ....|--- .... ....
....|..|--- .... ....|--- .... ....|--- .... ....
....|..|--- .... ....|--- .... ....|--- .... ....
....|..|--- .... ....|--- .... ....|--- .... ....
....|..|--- .... ....|--- .... ....|--- .... ....
....|..|--- .... ....|--- .... ....|--- .... ....
....|..|--- .... ....|--- .... ....|--- .... ....
....|..|--- .... ....|--- .... ....|--- .... ....
....|..|--- .... ....|--- .... ....|--- .... ....
....|..|--- .... ....|--- .... ....|--- .... ....
....|..|--- .... ....|--- .... ....|--- .... ....

[Pattern41]
....|..|R-- .... ....|--- .... ....|R-- .... ....
....|..|--- .... ....|--- .... ....|--- .... ....
....|..|--- .... ....|--- .... ....|--- .... ....
....|..|--- .... ....|--- .... ....|--- .... ....
....|..|--- .... ....|--- .... ....|--- .... ....
....|..|--- .... ....|--- .... ....|--- .... ....
....|..|--- .... ....|--- .... ....|--- .... ....
....|..|--- .... ....|--- .... ....|--- .... ....
....|..|--- .... ....|--- .... ....|--- .... ....
....|..|--- .... ....|--- .... ....|--- .... ....
....|..|--- .... ....|--- .... ....|--- .... ....
....|..|--- .... ....|--- .... ....|--- .... ....
....|..|R-- .... ....|--- .... ....|R-- .... ....
....|..|--- .... ....|--- .... ....|--- .... ....
....|..|--- .... ....|--- .... ....|--- .... ....
....|..|--- .... ....|--- .... ....|--- .... ....
....|..|--- .... ....|--- .... ....|--- .... ....
....|..|--- .... ....|--- .... ....|--- .... ....
....|..|--- .... ....|--- .... ....|--- .... ....
....|..|--- .... ....|--- .... ....|--- .... ....
....|..|--- .... ....|--- .... ....|--- .... ....
....|..|--- .... ....|--- .... ....|--- .... ....
....|..|--- .... ....|--- .... ....|--- .... ....
....|..|--- .... ....|--- .... ....|--- .... ....
