[Module]
VortexTrackerII=0
Version=3.5
Title=0d-1me,3p-4p+,7p+-6m+
Author=oisee ^ 4d 29.05.2010
NoteTable=4
ChipFreq=1750000
Speed=4
PlayOrder=L0,1,2,3,4,5,6,7,8,9,10,11,12,13,14,15,16,17,18,19,20,21,22,23,24,25,26,27,28,29,30,31,32,33


[Ornament1]
L0,0,3,3

[Ornament2]
L0,0,1,1

[Ornament3]
L0,0,4,4

[Ornament4]
L0,0,2,2

[Ornament5]
L0,0,5,5

[Ornament6]
L0,0,3,3,7,7

[Ornament7]
L0,0,3,3,5,5

[Ornament8]
L0,0,3,3,8,8

[Ornament9]
L0,0,3,3,6,6,8,8

[Ornament10]
L0,0,4,4,7,7

[Ornament11]
L0,0,5,5,8,8

[Ornament12]
L0,0,3,3,5,5,9,9

[Ornament13]
L0,0,4,4,9,9

[Ornament14]
L0,0,5,5,9,9

[Ornament15]
L0,0,3,3,6,6


[Sample1]
TnE +000_ +00_ F_
TnE +000_ +00_ F_
TnE +000_ +00_ F_
TnE +000_ +00_ D_
TnE +000_ +00_ B_
TnE +000_ +00_ B_ L

[Sample2]
TnE +000_ +00_ F_ L

[Sample3]
TnE +001_ +00_ F_
TnE +002_ +00_ F_
TnE +001_ +00_ E_
TnE +002_ +00_ E_
TnE +000_ +00_ E_ L
TnE -001_ +00_ E_
TnE -002_ +00_ E_
TnE -001_ +00_ E_
TnE +000_ +00_ E_
TnE +001_ +00_ E_
TnE +002_ +00_ E_
TnE +001_ +00_ E_

[Sample4]
TnE +002_ +00_ D_
TnE +002_ +00_ D_
TnE +002_ +00_ C_
TnE +002_ +00_ B_
TnE +002_ +00_ A_ L
TnE +002_ +00_ A_
TnE +002_ +00_ A_
TnE +002_ +00_ A_
TnE +002_ +00_ A_
TnE +002_ +00_ A_
TnE +002_ +00_ A_
TnE +002_ +00_ A_

[Sample5]
TnE +000_ +00_ F_
TnE +000_ +00_ F_
tne +000_ +00_ 0_ L

[Sample6]
TnE -001_ +00_ F_ L

[Sample7]
TnE +006_ +00_ F_ L

[Sample8]
tNe +000_ +00_ F_
tNe +000_ +00_ B_
tNe +000_ +00_ 7_
tNe +000_ +00_ 6- L

[Sample9]
TnE +080_ +00_ F_
TnE +100_ +00_ E_
TnE +180_ +00_ E_
TnE +200_ +00_ E_
TnE +240_ +00_ D_
TnE +280_ +00_ D_
TnE +2C0_ +00_ D_
TnE +300_ +00_ C_
TnE +300_ +00_ C_
TnE +340_ +00_ C_
TnE +340_ +00_ C_
TnE +380_ +00_ B_
TnE +380_ +00_ B_
TnE +400_ +00_ B_
TnE +400_ +00_ B_
TnE +480_ +00_ A_
TnE +500_ +00_ 9_
TnE +580_ +00_ 7_
TnE +600_ +00_ 4_
TnE +680_ +00_ 1_
TnE +000_ +00_ 0_ L

[Sample10]
Tne +1C0_ +00_ F_
Tne +280_ +00_ E_
Tne +380_ +00_ C_
Tne +440_ +00_ A_
Tne +480_ +00_ 8_
TnE +000_ +00_ 0_ L

[Sample11]
TNe +200_ -0A_ F_
tNe +000_ +0F_ A_
TNe +200_ -07_ E_
tNe +000_ +0E_ B- L

[Sample12]
TNE +0A0_ +05_ F_
TNE +140_ +02_ D_
TNE +140_ +02_ B_
TNE +100_ +00_ A_ L
TNE +140_ +00_ A_
TNE +200_ +00_ A-

[Sample13]
Tne +200_ +00_ F_
Tne +2C0_ +00_ F_
Tne +380_ +00_ E_
Tne +500_ +00_ C_
Tne +520_ +00_ 9_
tne +000_ +00_ 0_ L

[Sample14]
TNE -100_ +00_ F_
TNE -100_ +00_ D_
TNE -100_ +00_ A_
TNE -100_ +00_ 5_
tne +000_ +00_ 0_ L

[Sample15]
TNE -100_ +00_ 5_
TNE -100_ +00_ 8_
TNE -100_ +00_ B_
TNE -100_ +00_ F_
TNe -100_ +00_ 9- L

[Sample16]
TnE +000_ +00_ C_
TnE +000_ +00_ E_
TnE +000_ +00_ F_
TnE +000_ +00_ F_
TnE +000_ +00_ E_
TnE +000_ +00_ D_
TnE +000_ +00_ C_
TnE +000_ +00_ C_ L
TnE +001_ +00_ C_
TnE +002_ +00_ C_
TnE +003_ +00_ C_
TnE +001_ +00_ C_
TnE +000_ +00_ C_
TnE -001_ +00_ C_
TnE -002_ +00_ C_
TnE -003_ +00_ C_
TnE -001_ +00_ C_
TnE +000_ +00_ C_
TnE +000_ +00_ C_

[Sample17]
Tne +1C0_ +00_ F_
Tne +280_ +00_ D_
Tne +380_ +00_ 7_
TNE +000_ +00_ 0_ L

[Sample18]
TnE -00C_ +00_ 0_ L

[Sample19]
TNe +000_ +00_ F_
TNe +000_ +00_ C_
TNe +000_ +00_ 6_
TNe +000_ +01_ A- L

[Sample20]
TNE +140_ +00_ F_
tNE +000_ +00_ B- L

[Sample21]
tNE +000_ +00_ D_
tNE +000_ +00_ 8_
tNE +000_ +00_ 1_
TNE +000_ +00_ 0_ L

[Sample22]
TnE +000_ +00_ D_ L
TnE +000_ +00_ D_
tne +000_ +00_ 9_
tne +000_ +00_ 9_
TnE +000_ +00_ D_
TnE +000_ +00_ D_
tne +000_ +00_ 9_
tne +000_ +00_ 9_
TnE +000_ +00_ D_
TnE +000_ +00_ D_
TnE +000_ +00_ D_
TnE +000_ +00_ D_
TnE +000_ +00_ D_
TnE +000_ +00_ D_
tne +000_ +00_ 9_
tne +000_ +00_ 9_

[Sample23]
TnE +000_ +00_ F_ L
TnE +010_ +01_ F_
TnE +010_ +01_ F_
TnE +010_ +01_ F_
TnE +010_ +01_ F_
TnE +000_ +00_ F_
TnE +000_ +00_ F_
TnE -010_ -01_ F_
TnE -010_ -01_ F_
TnE -010_ -01_ F_
TnE -010_ -01_ F_
TnE +000_ +00_ F_

[Sample24]
TNe +000_ -01_ C_
TNe +000_ -01_ D_
TNe +000_ -01_ E_
TNe +000_ -01_ F_
TNe +000_ -01_ F_
TNe +000_ -01_ F_
TNe +000_ -01_ F_
TNe +000_ -01_ F_
TNe +000_ -01_ E_
TNe +000_ -01_ E_
TNe +000_ -01_ E_
TNe +000_ -01_ F_
TNe +000_ -01_ F_ L

[Sample25]
TNE +000_ +00_ F_
TNE +000_ +00_ F_ L
TNE +000_ +00_ F_
TNE +000_ +00_ F_
TNE +000_ +00_ F-

[Sample26]
tne +000_ +00_ 0_ L

[Sample27]
TnE +100_ +05_ F_
TnE +200_ +02_ A_
TnE +300_ +02_ 7_
TNE +400_ +00_ 3- L

[Sample28]
tne +000_ +00_ 0_ L

[Sample29]
tnE +000_ +00_ 0_ L

[Sample30]
TNE +000_ +00_ C+ L

[Sample31]
TNe +1C0_ +00_ F_
Tne +280_ +00_ E_
Tne +380_ +00_ C_
Tne +440_ +00_ A_
Tne +480_ +00_ 8_
TnE +000_ +00_ 0_ L

[Pattern0]
....|..|--- .... ....|--- .... ....|--- .... ....
....|..|--- .... ....|G-3 2F.F ....|--- .... ....
....|..|--- .... ....|--- .... ....|--- .... ....
....|..|--- .... ....|--- .... ....|--- .... ....
....|..|--- .... ....|--- .... ....|--- .... ....
....|..|--- .... ....|A#3 2F.F ....|--- .... ....
 G-3|..|G-1 2A.F ....|--- .... ....|--- .... ....
....|..|--- .... ....|G-3 2F.A ....|--- .... ....
....|..|--- .... ....|--- .... ....|--- .... ....
....|..|--- .... ....|--- .... ....|--- .... ....
....|..|--- .... ....|R-- .... ....|--- .... ....
....|..|--- .... ....|A#3 2F.A ....|--- .... ....
....|..|G-1 2F.A ....|--- .... ....|--- .... ....
....|..|--- .... ....|G-3 2F.7 ....|--- .... ....
....|..|--- .... ....|A#3 2F.F ....|--- .... ....
....|..|--- .... ....|--- .... ....|--- .... ....
....|..|--- .... ....|R-- .... ....|--- .... ....
....|..|--- .... ....|A#3 2F.7 ....|--- .... ....
....|..|G-1 2F.7 ....|C-4 2F.F ....|C-4 2F6F ....
....|..|--- .... ....|--- .... ....|--- .... ....
....|..|--- .... ....|A#3 2F.A ....|C-4 2F.F ....
....|..|--- .... ....|--- .... ....|R-- .... ....
....|..|--- .... ....|R-- .... ....|--- .... ....
....|..|--- .... ....|R-- .... ....|--- .... ....
....|..|--- .... ....|C-4 2F.A ....|C-4 2F6A ....
....|..|--- .... ....|--- .... ....|--- .... ....
....|..|--- .... ....|C-4 2F.F ....|C-4 2F.A ....
....|..|--- .... ....|--- .... ....|R-- .... ....
....|..|--- .... ....|--- .... ....|--- .... ....
....|..|--- .... ....|R-- .... ....|--- .... ....
....|..|--- .... ....|A#3 2F.F ....|C-4 2F6F ....
....|..|--- .... ....|--- .... ....|--- .... ....
....|..|--- .... ....|C-4 2F.A ....|C-4 2F.F ....
....|..|--- .... ....|--- .... ....|R-- .... ....
....|..|--- .... ....|R-- .... ....|--- .... ....
....|..|--- .... ....|R-- .... ....|--- .... ....
....|..|--- .... ....|A#3 2F.A ....|C-4 2F6A ....
....|..|--- .... ....|C-4 2F.F ....|--- .... ....
....|..|--- .... ....|C-4 2F.7 ....|C-4 2F.A ....
....|..|--- .... ....|--- .... ....|R-- .... ....
....|..|--- .... ....|R-- .... ....|--- .... ....
....|..|--- .... ....|--- .... ....|--- .... ....
....|..|--- .... ....|A#3 2F.7 ....|C-4 2F6F ....
....|..|--- .... ....|C-4 2F.A ....|--- .... ....
....|..|--- .... ....|--- .... ....|C-4 2F.7 ....
....|..|--- .... ....|--- .... ....|R-- .... ....
....|..|--- .... ....|R-- .... ....|--- .... ....
....|..|--- .... ....|--- .... ....|--- .... ....
....|..|--- .... ....|--- .... ....|C-4 2F6A ....
....|..|--- .... ....|C-4 2F.7 ....|--- .... ....
....|..|--- .... ....|G-3 2F.F ....|R-- .... ....
....|..|--- .... ....|--- .... ....|--- .... ....
....|..|--- .... ....|--- .... ....|--- .... ....
....|..|--- .... ....|--- .... ....|--- .... ....
....|..|--- .... ....|--- .... ....|C-4 2F6F ....
....|..|--- .... ....|--- .... ....|--- .... ....
....|..|--- .... ....|G-3 2F.A ....|R-- .... ....
....|..|--- .... ....|--- .... ....|--- .... ....
....|..|--- .... ....|--- .... ....|--- .... ....
....|..|--- .... ....|--- .... ....|--- .... ....
....|..|--- .... ....|--- .... ....|C-4 2F6A ....
....|..|--- .... ....|--- .... ....|--- .... ....
....|..|--- .... ....|G-3 2F.7 ....|R-- .... ....
....|..|--- .... ....|--- .... ....|--- .... ....
....|..|--- .... ....|--- .... ....|--- .... ....
....|..|--- .... ....|--- .... ....|--- .... ....
....|..|--- .... ....|D-4 2F.F ....|F-4 2F7F ....
....|..|--- .... ....|--- .... ....|--- .... ....
....|..|--- .... ....|R-- .... ....|D-4 2F.F ....
....|..|--- .... ....|--- .... ....|R-- .... ....
....|..|--- .... ....|--- .... ....|--- .... ....
....|..|--- .... ....|--- .... ....|--- .... ....
....|..|--- .... ....|D-4 2F.A ....|F-4 2F7A ....
....|..|--- .... ....|--- .... ....|--- .... ....
....|..|--- .... ....|C-4 2F.F ....|D-4 2F.A ....
....|..|--- .... ....|--- .... ....|R-- .... ....
....|..|--- .... ....|--- .... ....|--- .... ....
....|..|--- .... ....|R-- .... ....|--- .... ....
....|..|--- .... ....|D-4 2F.F ....|F-4 2F7F ....
....|..|--- .... ....|--- .... ....|--- .... ....
....|..|--- .... ....|C-4 2F.A ....|D-4 2F.F ....
....|..|--- .... ....|--- .... ....|R-- .... ....
....|..|--- .... ....|--- .... ....|--- .... ....
....|..|--- .... ....|R-- .... ....|--- .... ....
....|..|--- .... ....|D-4 2F.A ....|F-4 2F7A ....
....|..|--- .... ....|--- .... ....|--- .... ....
....|..|--- .... ....|D#4 2F.F ....|D-4 2F.A ....
....|..|--- .... ....|--- .... ....|R-- .... ....
....|..|--- .... ....|--- .... ....|--- .... ....
....|..|--- .... ....|R-- .... ....|--- .... ....
....|..|--- .... ....|D-4 2F.F ....|F-4 2F7F ....
....|..|--- .... ....|--- .... ....|--- .... ....
....|..|--- .... ....|D#4 2F.A ....|D-4 2F.7 ....
....|..|--- .... ....|--- .... ....|R-- .... ....
....|..|--- .... ....|--- .... ....|--- .... ....
....|..|--- .... ....|R-- .... ....|--- .... ....
....|..|--- .... ....|D-4 2F.A ....|F-4 2F7A ....
....|..|--- .... ....|--- .... ....|--- .... ....
....|..|--- .... ....|C-4 2F.F ....|R-- .... ....
....|..|--- .... ....|--- .... ....|--- .... ....
....|..|--- .... ....|--- .... ....|--- .... ....
....|..|--- .... ....|R-- .... ....|--- .... ....
....|..|--- .... ....|C-4 2F.F ....|F-4 2F7F ....
....|..|--- .... ....|--- .... ....|D-4 2F8F ....
....|..|--- .... ....|C-4 2F.A ....|D-4 2F.F ....
....|..|--- .... ....|--- .... ....|R-- .... ....
 C#4|..|C#6 2C.F ....|--- .... ....|G-2 2F.F ....
....|..|--- .... ....|R-- .... ....|--- .... ....
....|..|--- .... ....|C-4 2F.A ....|F-4 2F7A ....
....|..|--- .... ....|--- .... ....|D-4 2F8A ....
 C#4|..|C#6 2C.F ....|C-4 2F.7 ....|F-3 2F4F ....
....|..|--- .... ....|--- .... ....|F-2 2F.F ....
....|..|C#6 2F.A ....|--- .... ....|G-2 2F.A ....
....|..|--- .... ....|R-- .... ....|R-- .... ....
 C#4|..|C#6 2C.F ....|C-4 2F.F ....|C-4 2F1F ....
....|..|--- .... ....|--- .... ....|D-4 2F87 ....
....|..|C#6 2F.A ....|--- .... ....|C-3 2F.F ....
....|..|--- .... ....|--- .... ....|C-3 2F.F ....
....|..|C#6 2F.7 ....|--- .... ....|G-2 2F.7 ....
....|..|--- .... ....|R-- .... ....|R-- .... ....
....|..|C#6 2F.A ....|C-4 2F.A ....|C-4 2F1A ....
....|..|--- .... ....|--- .... ....|--- .... ....
....|..|C#6 2F.7 ....|C-4 2F.F ....|F-3 2F47 ....
....|..|--- .... ....|--- .... ....|F-2 2F.7 ....
....|..|--- .... ....|--- .... ....|--- .... ....
....|..|--- .... ....|R-- .... ....|R-- .... ....
....|..|C#6 2F.7 ....|A#3 2F.F ....|C-4 2F1F ....
....|..|--- .... ....|--- .... ....|--- .... ....

[Pattern1]
....|..|--- .... ....|C-4 2F.A ....|C-3 2F.F ....
....|..|--- .... ....|--- .... ....|C-3 2F.F ....
....|..|--- .... ....|--- .... ....|--- .... ....
....|..|--- .... ....|R-- .... ....|--- .... ....
....|..|--- .... ....|A#3 2F.A ....|C-4 2F1A ....
....|..|--- .... ....|C-4 2F.F ....|--- .... ....
....|..|--- .... ....|C-4 2F.7 ....|C-3 2F.A ....
....|..|--- .... ....|--- .... ....|C-3 2F.A ....
....|..|--- .... ....|--- .... ....|--- .... ....
....|..|--- .... ....|R-- .... ....|--- .... ....
....|..|--- .... ....|A#3 2F.7 ....|C-4 2F1F ....
....|..|--- .... ....|C-4 2F.A ....|--- .... ....
....|..|--- .... ....|--- .... ....|C-3 2F.F ....
....|..|--- .... ....|--- .... ....|C-3 2F.F ....
....|..|--- .... ....|--- .... ....|--- .... ....
....|..|--- .... ....|R-- .... ....|--- .... ....
....|..|--- .... ....|--- .... ....|C-4 2F1A ....
....|..|--- .... ....|C-4 2F.7 ....|--- .... ....
....|..|--- .... ....|G-3 2F.F ....|C-3 2F.A ....
....|..|--- .... ....|--- .... ....|C-3 2F.A ....
....|..|--- .... ....|--- .... ....|--- .... ....
....|..|--- .... ....|--- .... ....|--- .... ....
....|..|--- .... ....|R-- .... ....|C-4 2F1F ....
....|..|--- .... ....|G-3 2F.F ....|--- .... ....
....|..|--- .... ....|G-3 2F.A ....|C-3 2F.F ....
....|..|--- .... ....|--- .... ....|C-3 2F.7 ....
....|..|--- .... ....|--- .... ....|--- .... ....
....|..|--- .... ....|--- .... ....|--- .... ....
....|..|--- .... ....|R-- .... ....|C-4 2F1A ....
....|..|--- .... ....|G-3 2F.A ....|--- .... ....
....|..|--- .... ....|G-3 2F.7 ....|C-3 2F.A ....
....|..|--- .... ....|R-- .... ....|--- .... ....
....|..|--- .... ....|--- .... ....|--- .... ....
....|..|--- .... ....|--- .... ....|--- .... ....
....|..|--- .... ....|D-4 2F.F ....|D-4 2F9F ....
....|..|--- .... ....|G-3 2F.7 ....|--- .... ....
....|..|--- .... ....|--- .... ....|C-3 2F.F ....
....|..|--- .... ....|R-- .... ....|--- .... ....
....|..|--- .... ....|--- .... ....|--- .... ....
....|..|--- .... ....|R-- .... ....|--- .... ....
....|..|--- .... ....|D-4 2F.A ....|D-4 2F9A ....
....|..|--- .... ....|D-4 2F.F ....|--- .... ....
....|..|--- .... ....|--- .... ....|C-3 2F.A ....
....|..|--- .... ....|R-- .... ....|--- .... ....
....|..|--- .... ....|--- .... ....|--- .... ....
....|..|--- .... ....|R-- .... ....|--- .... ....
....|..|--- .... ....|D-4 2F.7 ....|D-4 2F9F ....
....|..|--- .... ....|D-4 2F.A ....|D-4 2F.F ....
....|..|--- .... ....|--- .... ....|C-3 2F.F ....
....|..|--- .... ....|R-- .... ....|--- .... ....
....|..|--- .... ....|D-4 2F.F ....|--- .... ....
....|..|--- .... ....|R-- .... ....|--- .... ....
....|..|--- .... ....|--- .... ....|D-4 2F9A ....
....|..|--- .... ....|D-4 2F.7 ....|D-4 2F.A ....
....|..|--- .... ....|D-4 2F.F ....|C-3 2F.A ....
....|..|--- .... ....|R-- .... ....|--- .... ....
....|..|--- .... ....|D-4 2F.A ....|--- .... ....
....|..|--- .... ....|D-4 2F2F ....|--- .... ....
....|..|--- .... ....|D#4 2F.F ....|D#4 2F3F ....
....|..|--- .... ....|R-- .... ....|D-4 2F.7 ....
....|..|--- .... ....|D-4 2F.A ....|C-3 2F.F ....
....|..|--- .... ....|F-4 2F.F ....|C-3 2F.F ....
....|..|--- .... ....|D-4 2F.7 ....|R-- .... ....
....|..|--- .... ....|D-4 2F2A ....|--- .... ....
....|..|--- .... ....|D#4 2F.A ....|D#4 2F3A ....
....|..|--- .... ....|G-4 2F.F ....|--- .... ....
 C-4|..|C-2 2A.F ....|D-4 2F.7 ....|C-3 2F.A ....
....|..|--- .... ....|F-4 2F.A ....|C-3 2F.A ....
....|..|--- .... ....|--- .... ....|R-- .... ....
 D-4|..|D-2 2A.F ....|D-4 2F27 ....|--- .... ....
 D-4|..|D-2 2A.F ....|D#4 2F.7 ....|D#4 2FAF ....
....|..|--- .... ....|G-4 2F.A ....|--- .... ....
....|..|C-2 2F.A ....|--- .... ....|A#4 2F.F ....
....|..|--- .... ....|F-4 2F.7 ....|C-3 2F.7 ....
 C#4|..|C#6 2C.F ....|--- .... ....|G-2 2F.F ....
....|..|D-2 2F.A ....|--- .... ....|--- .... ....
....|..|D-2 2F.A ....|R-- .... ....|D#4 2FAA ....
....|..|--- .... ....|G-4 2F.7 ....|R-- .... ....
 C#4|..|C#6 2C.F ....|A#3 2F.F ....|F-2 2F.F ....
....|..|--- .... ....|R-- .... ....|R-- .... ....
....|..|C#6 2F.A ....|--- .... ....|G-2 2F.A ....
....|..|D-2 2F.7 ....|--- .... ....|--- .... ....
 C#4|..|C#6 2C.F ....|G-4 2F.F ....|D#4 2FAF ....
....|..|--- .... ....|--- .... ....|R-- .... ....
....|..|C#6 2F.A ....|A#3 2F.A ....|D#2 2F.F ....
....|..|--- .... ....|R-- .... ....|R-- .... ....
....|..|C#6 2F.7 ....|--- .... ....|G-2 2F.7 ....
....|..|--- .... ....|--- .... ....|--- .... ....
....|..|C#6 2F.A ....|G-4 2F.A ....|D#4 2FAA ....
....|..|--- .... ....|--- .... ....|R-- .... ....
....|..|C#6 2F.7 ....|G-4 2F.F ....|F-2 2F.7 ....
....|..|--- .... ....|--- .... ....|R-- .... ....
....|..|--- .... ....|--- .... ....|--- .... ....
....|..|--- .... ....|--- .... ....|D#4 2F.F ....
 F#4|..|F#2 2A.F ....|G-4 2F.7 ....|D#4 2FAF ....
....|..|--- .... ....|--- .... ....|--- .... ....
....|..|--- .... ....|G-4 2F.A ....|D#2 2F.7 ....
....|..|--- .... ....|--- .... ....|R-- .... ....
....|..|--- .... ....|--- .... ....|--- .... ....
....|..|--- .... ....|--- .... ....|D#4 2F.A ....
....|..|F#2 2F.A ....|R-- .... ....|D#4 2FAA ....
....|..|--- .... ....|D#4 2F.F ....|D#4 2FAF ....
....|..|--- .... ....|G-4 2F.7 ....|G-4 2F.F ....
....|..|--- .... ....|--- .... ....|D#3 2F.F ....
....|..|--- .... ....|--- .... ....|R-- .... ....
....|..|--- .... ....|F-4 2F.F ....|D#4 2F.7 ....
 C#4|..|C#6 2C.F ....|--- .... ....|D-4 2FBF ....
....|..|--- .... ....|D#4 2F.A ....|D#4 2FAA ....
....|..|--- .... ....|R-- .... ....|D-2 2F.F ....
....|..|--- .... ....|D#4 2F.F ....|D#3 2F.A ....
....|..|--- .... ....|--- .... ....|R-- .... ....
....|..|--- .... ....|F-4 2F.A ....|--- .... ....
....|..|C#6 2F.A ....|F-4 2F.F ....|D-4 2FBA ....
....|..|--- .... ....|D#4 2F.7 ....|D#4 2FA7 ....
....|..|--- .... ....|R-- .... ....|G-4 2F.7 ....
....|..|--- .... ....|D#4 2F.A ....|D#3 2F.7 ....
....|..|--- .... ....|--- .... ....|R-- .... ....
....|..|--- .... ....|F-4 2F.7 ....|D-4 2F.F ....
 F#4|..|F#2 2A.F ....|F-4 2F.A ....|D-4 2FBF ....
....|..|--- .... ....|--- .... ....|--- .... ....
....|..|--- .... ....|R-- .... ....|D-2 2F.7 ....
....|..|--- .... ....|D#4 2F.7 ....|R-- .... ....
....|..|--- .... ....|--- .... ....|--- .... ....
....|..|--- .... ....|--- .... ....|D-4 2F.A ....
....|..|F#2 2F.A ....|F-4 2F.7 ....|D-4 2FBA ....
....|..|--- .... ....|R-- .... ....|D-4 2FBF ....
....|..|--- .... ....|D-4 2F.F ....|G-4 2F1F ....
....|..|--- .... ....|--- .... ....|D-3 2F.F ....

[Pattern2]
....|..|--- .... ....|--- .... ....|R-- .... ....
....|..|--- .... ....|--- .... ....|C#4 2F.F ....
 C#4|..|C#6 2C.F ....|D#4 2F.F ....|G-4 2F1F ....
....|..|--- .... ....|R-- .... ....|D-4 2FBA ....
....|..|--- .... ....|D-4 2F.A ....|G-4 2F1A ....
....|..|--- .... ....|--- .... ....|C#2 2F.F ....
....|..|--- .... ....|--- .... ....|R-- .... ....
....|..|--- .... ....|R-- .... ....|C#4 2F.A ....
....|..|C#6 2F.A ....|D#4 2F.A ....|G-4 2F1A ....
....|..|--- .... ....|R-- .... ....|D-4 2FB7 ....
....|..|--- .... ....|D#4 2F.F ....|G-4 2F17 ....
....|..|--- .... ....|--- .... ....|D-3 2F.7 ....
....|..|--- .... ....|--- .... ....|R-- .... ....
....|..|--- .... ....|R-- .... ....|C#4 2F.F ....
 F#4|..|F#2 2A.F ....|D#4 2F.7 ....|G-4 2F1F ....
....|..|--- .... ....|--- .... ....|--- .... ....
....|..|--- .... ....|D#4 2F.A ....|--- .... ....
....|..|--- .... ....|--- .... ....|C#4 2F.F ....
....|..|--- .... ....|--- .... ....|--- .... ....
....|..|--- .... ....|R-- .... ....|C#4 2F.A ....
....|..|F#2 2F.A ....|--- .... ....|C#4 2F.F ....
....|..|--- .... ....|D#4 2F.F ....|R-- .... ....
....|..|--- .... ....|D#4 2F.7 ....|C#3 2F.F ....
....|..|--- .... ....|--- .... ....|C#4 2F.A ....
....|..|--- .... ....|--- .... ....|R-- .... ....
....|..|--- .... ....|R-- .... ....|C-4 2F.F ....
 C#4|..|C#6 2C.F ....|C-4 2F.F ....|C-4 2F8F ....
....|..|--- .... ....|D#4 2F.A ....|R-- .... ....
....|..|--- .... ....|--- .... ....|G#1 2F.F ....
....|..|--- .... ....|C-4 2F1F ....|C#4 2F.7 ....
....|..|--- .... ....|D#4 2F.F ....|R-- .... ....
....|..|--- .... ....|R-- .... ....|C-4 2F.A ....
....|..|C#6 2F.A ....|C-4 2F.A ....|C#4 2F.7 ....
....|..|--- .... ....|C-4 2F.F ....|R-- .... ....
....|..|--- .... ....|--- .... ....|C#3 2F.7 ....
....|..|--- .... ....|C-4 2F1A ....|--- .... ....
....|..|--- .... ....|D#4 2F.A ....|R-- .... ....
....|..|--- .... ....|--- .... ....|C-4 2F.7 ....
 F#4|..|F#2 2A.F ....|C-4 2F.7 ....|G#3 2FAF ....
....|..|--- .... ....|C-4 2F.A ....|--- .... ....
....|..|--- .... ....|--- .... ....|G#1 2F.7 ....
....|..|--- .... ....|C-4 2F17 ....|--- .... ....
....|..|--- .... ....|D#4 2F.7 ....|G#3 2FAF ....
....|..|--- .... ....|--- .... ....|--- .... ....
....|..|F#2 2F.A ....|R-- .... ....|G#3 2FAA ....
....|..|--- .... ....|C-4 2F.7 ....|--- .... ....
 C#4|..|C#6 2C.F ....|C-4 2F.F ....|G#2 2F.F ....
....|..|--- .... ....|--- .... ....|--- .... ....
....|..|--- .... ....|--- .... ....|G#3 2FAA ....
....|..|--- .... ....|--- .... ....|R-- .... ....
 C#4|..|C#6 2C.F ....|B-3 2F.F ....|G#3 2F6F ....
....|..|--- .... ....|--- .... ....|--- .... ....
....|..|C#6 2F.A ....|C-4 2F.A ....|G#1 2F.F ....
....|..|--- .... ....|B-3 2F3F ....|R-- .... ....
....|..|--- .... ....|D#4 2F.F ....|G#3 2FA7 ....
....|..|--- .... ....|--- .... ....|R-- .... ....
....|..|C#6 2F.A ....|B-3 2F.A ....|G#3 2F6A ....
....|..|--- .... ....|B-3 2F.F ....|--- .... ....
....|..|C#6 2F.7 ....|C-4 2F.7 ....|G#2 2F.7 ....
....|..|--- .... ....|B-3 2F3A ....|R-- .... ....
....|..|--- .... ....|D#4 2F.A ....|--- .... ....
....|..|--- .... ....|--- .... ....|R-- .... ....
 F#4|..|F#2 2A.F ....|B-3 2F.7 ....|G#3 2F6F ....
....|..|--- .... ....|B-3 2F.A ....|--- .... ....
....|..|--- .... ....|--- .... ....|G#1 2F.7 ....
....|..|--- .... ....|B-3 2F37 ....|R-- .... ....
....|..|--- .... ....|D#4 2F.7 ....|--- .... ....
....|..|--- .... ....|R-- .... ....|--- .... ....
....|..|F#2 2F.A ....|--- .... ....|G#3 2F6A ....
....|..|--- .... ....|B-3 2F.F ....|G#3 2F6F ....
 C#4|..|C#6 2C.F ....|--- .... ....|G#3 2F.F ....
....|..|--- .... ....|--- .... ....|G#2 2F.F ....
....|..|--- .... ....|--- .... ....|--- .... ....
....|..|--- .... ....|A#3 2F.F ....|--- .... ....
 C#4|..|C#6 2C.F ....|--- .... ....|G-3 2F8F ....
....|..|--- .... ....|B-3 2F.A ....|G#3 2F6A ....
....|..|C#6 2F.A ....|--- .... ....|A#1 2F.F ....
....|..|--- .... ....|--- .... ....|G#2 2F.A ....
....|..|--- .... ....|--- .... ....|--- .... ....
....|..|--- .... ....|A#3 2F.A ....|--- .... ....
....|..|C#6 2F.A ....|--- .... ....|G-3 2F8A ....
....|..|--- .... ....|A#3 2F.F ....|G#3 2F67 ....
....|..|C#6 2F.7 ....|--- .... ....|G#3 2F.7 ....
....|..|--- .... ....|--- .... ....|G#2 2F.7 ....
....|..|--- .... ....|R-- .... ....|--- .... ....
....|..|--- .... ....|A#3 2F.7 ....|--- .... ....
 F#4|..|F#2 2A.F ....|A#3 2F.F ....|G-3 2F8F ....
....|..|--- .... ....|A#3 2F.A ....|--- .... ....
....|..|--- .... ....|--- .... ....|A#1 2F.7 ....
....|..|--- .... ....|--- .... ....|R-- .... ....
....|..|--- .... ....|R-- .... ....|--- .... ....
....|..|--- .... ....|R-- .... ....|--- .... ....
....|..|F#2 2F.A ....|A#3 2F.A ....|G-3 2F8A ....
....|..|--- .... ....|A#3 2F.F ....|A#3 2F5F ....
....|..|--- .... ....|--- .... ....|D#4 2F.F ....
....|..|--- .... ....|--- .... ....|F-2 2F.F ....
....|..|--- .... ....|R-- .... ....|--- .... ....
....|..|--- .... ....|--- .... ....|R-- .... ....
 C#4|..|C#6 2C.F ....|A#3 2F.F ....|G#3 2F3F ....
....|..|--- .... ....|A#3 2F.A ....|G#3 2FAF ....
....|..|--- .... ....|--- .... ....|A#2 2F.F ....
....|..|--- .... ....|--- .... ....|F-2 2F.A ....
....|..|--- .... ....|R-- .... ....|--- .... ....
....|..|--- .... ....|--- .... ....|R-- .... ....
....|..|C#6 2F.A ....|A#3 2F.A ....|G#3 2F3A ....
....|..|--- .... ....|A#3 2F.F ....|A#3 2F57 ....
 C-4|..|C-2 2A.F ....|--- .... ....|D#4 2F.7 ....
....|..|--- .... ....|--- .... ....|F-2 2F.7 ....
....|..|--- .... ....|R-- .... ....|--- .... ....
....|..|--- .... ....|--- .... ....|R-- .... ....
 C#4|..|C#6 2C.F ....|A#3 2F.7 ....|G#3 2FAF ....
....|..|--- .... ....|A#3 2F.A ....|G#3 2FA7 ....
....|..|C-2 2F.A ....|--- .... ....|A#2 2F.7 ....
....|..|--- .... ....|--- .... ....|R-- .... ....
....|..|--- .... ....|A#3 2F.F ....|--- .... ....
....|..|--- .... ....|--- .... ....|C-4 2F.F ....
....|..|C#6 2F.A ....|--- .... ....|C-4 2F.F ....
....|..|--- .... ....|A#3 2F.7 ....|R-- .... ....
....|..|C-2 2F.7 ....|R-- .... ....|F-2 2F.F ....
....|..|--- .... ....|--- .... ....|--- .... ....
....|..|--- .... ....|A#3 2F.A ....|--- .... ....
....|..|--- .... ....|G-4 2F.F ....|C-4 2F.A ....
 C#4|..|C#6 2C.F ....|--- .... ....|G#3 2F.F ....
....|..|--- .... ....|R-- .... ....|D-4 2F1F ....
....|..|--- .... ....|R-- .... ....|F-2 2F.A ....
....|..|--- .... ....|--- .... ....|--- .... ....
....|..|--- .... ....|A#3 2F.7 ....|--- .... ....
....|..|--- .... ....|G-4 2F.A ....|C-4 2F.7 ....

[Pattern3]
....|..|C#6 2F.A ....|--- .... ....|C-4 2F.7 ....
....|..|--- .... ....|--- .... ....|D-4 2F1A ....
....|..|--- .... ....|R-- .... ....|F-2 2F.7 ....
....|..|--- .... ....|--- .... ....|--- .... ....
....|..|--- .... ....|--- .... ....|--- .... ....
....|..|--- .... ....|G-4 2F.7 ....|R-- .... ....
....|..|C#6 2F.7 ....|--- .... ....|G#3 2F.7 ....
....|..|--- .... ....|--- .... ....|D-4 2F17 ....
....|..|--- .... ....|--- .... ....|--- .... ....
....|..|--- .... ....|--- .... ....|--- .... ....
....|..|--- .... ....|--- .... ....|--- .... ....
....|..|--- .... ....|--- .... ....|--- .... ....
....|..|--- .... ....|--- .... ....|--- .... ....
....|..|--- .... ....|--- .... ....|--- .... ....
....|..|--- .... ....|--- .... ....|--- .... ....
....|..|--- .... ....|--- .... ....|--- .... ....
....|..|--- .... ....|--- .... ....|--- .... ....
....|..|--- .... ....|--- .... ....|--- .... ....
....|..|--- .... ....|--- .... ....|--- .... ....
....|..|--- .... ....|--- .... ....|--- .... ....
....|..|--- .... ....|--- .... ....|--- .... ....
....|..|--- .... ....|--- .... ....|--- .... ....
....|..|--- .... ....|--- .... ....|--- .... ....
....|..|--- .... ....|--- .... ....|--- .... ....
....|..|--- .... ....|--- .... ....|--- .... ....
....|..|--- .... ....|--- .... ....|--- .... ....
....|..|--- .... ....|--- .... ....|--- .... ....
....|..|--- .... ....|--- .... ....|--- .... ....
....|..|--- .... ....|--- .... ....|--- .... ....
....|..|--- .... ....|R-- .... ....|--- .... ....
....|..|--- .... ....|--- .... ....|D-4 2F1F ....
....|..|--- .... ....|--- .... ....|--- .... ....
....|..|--- .... ....|--- .... ....|G#3 2F.F ....
....|..|--- .... ....|--- .... ....|--- .... ....
....|..|--- .... ....|--- .... ....|G#3 2F.F ....
....|..|--- .... ....|R-- .... ....|D-4 2F.F ....
....|..|--- .... ....|--- .... ....|D-4 2F1A ....
....|..|--- .... ....|--- .... ....|D-4 2F.F ....
....|..|--- .... ....|--- .... ....|F-4 2F.F ....
....|..|--- .... ....|--- .... ....|--- .... ....
....|..|--- .... ....|--- .... ....|G#3 2F.A ....
....|..|--- .... ....|R-- .... ....|D-4 2F.A ....
 C#4|..|C#6 2C.F ....|G-4 2F.F ....|G-2 2F.F ....
....|..|--- .... ....|--- .... ....|D-4 2F.A ....
....|..|--- .... ....|--- .... ....|G#3 2F.7 ....
....|..|--- .... ....|R-- .... ....|--- .... ....
....|..|--- .... ....|--- .... ....|G#3 2F.7 ....
....|..|--- .... ....|G-4 2F.F ....|D-4 2F.7 ....
....|..|C#6 2F.A ....|G-4 2F.A ....|G-2 2F.A ....
....|..|--- .... ....|R-- .... ....|D-4 2F.7 ....
 F#4|..|F#2 2A.F ....|F-4 2F.F ....|G-2 2F.F ....
....|..|--- .... ....|G-4 2F.F ....|--- .... ....
....|..|--- .... ....|--- .... ....|R-- .... ....
....|..|--- .... ....|G-4 2F.A ....|--- .... ....
 F#4|..|F#2 2A.F ....|G-4 2F.7 ....|B-3 2F1F ....
....|..|--- .... ....|R-- .... ....|--- .... ....
....|..|F#2 2F.A ....|F-4 2F.A ....|G-2 2F.A ....
....|..|--- .... ....|G-4 2F.A ....|--- .... ....
....|..|--- .... ....|--- .... ....|--- .... ....
....|..|--- .... ....|G-4 2F.7 ....|--- .... ....
....|..|F#2 2F.A ....|R-- .... ....|B-3 2F.F ....
....|..|--- .... ....|R-- .... ....|R-- .... ....
 F#4|..|F#2 2A.F ....|G-4 2F.F ....|G-3 2F.F ....
....|..|--- .... ....|G-4 2F.7 ....|--- .... ....
....|..|--- .... ....|--- .... ....|--- .... ....
....|..|--- .... ....|--- .... ....|R-- .... ....
 F#4|..|F#2 2A.F ....|D#4 2F.F ....|C-3 2F.F ....
....|..|--- .... ....|--- .... ....|R-- .... ....
....|..|F#2 2F.A ....|G-4 2F.A ....|G-3 2F.A ....
....|..|--- .... ....|--- .... ....|--- .... ....
....|..|--- .... ....|D-4 2F.F ....|--- .... ....
....|..|--- .... ....|--- .... ....|R-- .... ....
....|..|F#2 2F.A ....|D#4 2F.A ....|B-3 2F.7 ....
....|..|--- .... ....|R-- .... ....|R-- .... ....
 F#4|..|F#2 2A.F ....|C-4 2F.F ....|C-3 2F.F ....
....|..|--- .... ....|--- .... ....|--- .... ....
....|..|--- .... ....|D-4 2F.A ....|--- .... ....
....|..|--- .... ....|--- .... ....|R-- .... ....
 F#4|..|F#2 2A.F ....|D#4 2F.7 ....|G-3 2F5F ....
....|..|--- .... ....|R-- .... ....|C-4 2F1F ....
....|..|F#2 2F.A ....|C-4 2F.A ....|C-3 2F.A ....
....|..|--- .... ....|--- .... ....|--- .... ....
....|..|--- .... ....|D-4 2F.7 ....|--- .... ....
....|..|--- .... ....|--- .... ....|C-4 2F1F ....
....|..|F#2 2F.A ....|--- .... ....|C-4 2F1F ....
....|..|--- .... ....|R-- .... ....|C-4 2F1A ....
 F#4|..|F#2 2A.F ....|C-4 2F.7 ....|G-3 2F.F ....
....|..|--- .... ....|--- .... ....|--- .... ....
....|..|--- .... ....|--- .... ....|--- .... ....
....|..|--- .... ....|--- .... ....|C-4 2F1A ....
 C#4|..|C#6 2C.F ....|--- .... ....|A#2 2F.F ....
....|..|--- .... ....|A#4 2F.F ....|C-4 2F17 ....
....|..|F#2 2F.A ....|--- .... ....|G-3 2F.A ....
....|..|--- .... ....|--- .... ....|--- .... ....
....|..|--- .... ....|--- .... ....|--- .... ....
....|..|--- .... ....|--- .... ....|C-4 2F17 ....
....|..|C#6 2F.A ....|R-- .... ....|C-4 2F17 ....
....|..|--- .... ....|G#4 2F4F ....|R-- .... ....
 F#4|..|F#2 2A.F ....|A#4 2F.F ....|A#2 2F.F ....
....|..|--- .... ....|--- .... ....|--- .... ....
....|..|--- .... ....|--- .... ....|--- .... ....
....|..|--- .... ....|--- .... ....|R-- .... ....
 F#4|..|F#2 2A.F ....|R-- .... ....|A#3 2F3F ....
....|..|--- .... ....|A#4 2F.7 ....|--- .... ....
....|..|F#2 2F.A ....|A#4 2F.A ....|A#2 2F.A ....
....|..|--- .... ....|--- .... ....|--- .... ....
....|..|--- .... ....|--- .... ....|--- .... ....
....|..|--- .... ....|--- .... ....|A#3 2F3F ....
....|..|F#2 2F.A ....|R-- .... ....|A#3 2F.F ....
....|..|--- .... ....|G#4 2F.F ....|R-- .... ....
 F#4|..|F#2 2A.F ....|A#4 2F.7 ....|F-3 2F.F ....
....|..|--- .... ....|--- .... ....|--- .... ....
....|..|--- .... ....|--- .... ....|--- .... ....
....|..|--- .... ....|R-- .... ....|A#3 2F3A ....
 C#4|..|C#6 2C.F ....|G-4 2F.F ....|D#3 2F.F ....
....|..|--- .... ....|G#4 2F.A ....|R-- .... ....
....|..|F#2 2F.A ....|--- .... ....|F-3 2F.A ....
....|..|--- .... ....|--- .... ....|--- .... ....
....|..|--- .... ....|F-4 2F.F ....|--- .... ....
....|..|--- .... ....|R-- .... ....|A#3 2F37 ....
....|..|C#6 2F.A ....|G-4 2F.A ....|A#3 2F.7 ....
....|..|--- .... ....|G#4 2F.7 ....|R-- .... ....
 F#4|..|F#2 2A.F ....|D#4 2F.F ....|D#3 2F3F ....
....|..|--- .... ....|--- .... ....|--- .... ....
....|..|--- .... ....|F-4 2F.A ....|--- .... ....
....|..|--- .... ....|R-- .... ....|R-- .... ....
 F#4|..|F#2 2A.F ....|G-4 2F.7 ....|D#3 2FAF ....
....|..|--- .... ....|R-- .... ....|A#3 2F5F ....

[Pattern4]
....|..|F#2 2F.A ....|D#4 2F.A ....|D#3 2F3A ....
....|..|--- .... ....|--- .... ....|--- .... ....
....|..|--- .... ....|F-4 2F.7 ....|--- .... ....
....|..|--- .... ....|--- .... ....|--- .... ....
....|..|F#2 2F.A ....|--- .... ....|A#3 2F.F ....
....|..|--- .... ....|R-- .... ....|A#3 2F5A ....
 F#4|..|F#2 2A.F ....|D-3 2F.F ....|G-3 2F.F ....
....|..|--- .... ....|--- .... ....|--- .... ....
....|..|--- .... ....|--- .... ....|--- .... ....
....|..|--- .... ....|--- .... ....|R-- .... ....
 C#4|..|C#6 2C.F ....|A#3 2F.F ....|A-3 2F7F ....
....|..|--- .... ....|--- .... ....|A-3 2F1F ....
....|..|F#2 2F.A ....|D-3 2F.A ....|D-2 2F.F ....
....|..|--- .... ....|--- .... ....|--- .... ....
....|..|--- .... ....|--- .... ....|--- .... ....
....|..|--- .... ....|--- .... ....|R-- .... ....
....|..|C#6 2F.A ....|A#3 2F.A ....|A#3 2F.7 ....
....|..|--- .... ....|--- .... ....|A-3 2F1A ....
....|..|F#2 2F.7 ....|A-3 2F2F ....|G-3 2F.7 ....
....|..|--- .... ....|A-3 2F.F ....|--- .... ....
....|..|--- .... ....|--- .... ....|--- .... ....
....|..|--- .... ....|--- .... ....|R-- .... ....
 C#4|..|C#6 2C.F ....|G-3 2F.F ....|A-3 2F7F ....
....|..|--- .... ....|--- .... ....|A-3 2FCF ....
....|..|--- .... ....|A-3 2F2A ....|D-2 2F.7 ....
....|..|--- .... ....|A-3 2F.A ....|--- .... ....
....|..|--- .... ....|F#3 2F.F ....|--- .... ....
....|..|--- .... ....|--- .... ....|--- .... ....
....|..|C#6 2F.A ....|G-3 2F.A ....|A-3 2F7A ....
....|..|--- .... ....|R-- .... ....|A-3 2FCA ....
....|..|--- .... ....|D-3 2F.F ....|D-2 2F.F ....
....|..|--- .... ....|A-3 2F.7 ....|--- .... ....
....|..|--- .... ....|F#3 2F.A ....|--- .... ....
....|..|--- .... ....|--- .... ....|--- .... ....
 C#4|..|C#6 2C.F ....|A#3 2F.F ....|A#3 2F3F ....
....|..|--- .... ....|A#3 2F.F ....|A#3 2FDF ....
....|..|--- .... ....|D-3 2F.A ....|G-2 2F.F ....
....|..|--- .... ....|R-- .... ....|--- .... ....
....|..|--- .... ....|F#3 2F.7 ....|--- .... ....
....|..|--- .... ....|--- .... ....|--- .... ....
....|..|C#6 2F.A ....|A#3 2F.A ....|A#3 2F3A ....
....|..|--- .... ....|A#3 2F.A ....|A#3 2FDA ....
....|..|--- .... ....|D-3 2F.7 ....|D-2 2F.7 ....
....|..|--- .... ....|--- .... ....|--- .... ....
....|..|--- .... ....|R-- .... ....|--- .... ....
....|..|--- .... ....|--- .... ....|--- .... ....
 G#4|..|G#2 2A.F ....|C-4 2F.F ....|A-3 2F8F ....
....|..|--- .... ....|A#3 2F.7 ....|A#3 2FD7 ....
....|..|--- .... ....|--- .... ....|F-2 2F.F ....
....|..|--- .... ....|--- .... ....|--- .... ....
....|..|--- .... ....|R-- .... ....|--- .... ....
....|..|--- .... ....|--- .... ....|--- .... ....
....|..|G#2 2F.A ....|C-4 2F.A ....|A-3 2F8A ....
....|..|--- .... ....|--- .... ....|--- .... ....
....|..|--- .... ....|C-4 2F.F ....|F-2 2F.A ....
....|..|--- .... ....|--- .... ....|--- .... ....
....|..|--- .... ....|R-- .... ....|--- .... ....
....|..|--- .... ....|R-- .... ....|--- .... ....
 F#4|..|F#2 2A.F ....|D-4 2F.F ....|F-3 2FEF ....
....|..|--- .... ....|--- .... ....|--- .... ....
....|..|--- .... ....|C-4 2F.A ....|A#1 2F.F ....
....|..|--- .... ....|--- .... ....|--- .... ....
....|..|--- .... ....|--- .... ....|--- .... ....
....|..|--- .... ....|F-4 2F.F ....|--- .... ....
....|..|F#2 2F.A ....|D-4 2F.A ....|F-3 2FEA ....
....|..|--- .... ....|--- .... ....|--- .... ....
....|..|--- .... ....|C-4 2F.7 ....|A#1 2F.A ....
....|..|--- .... ....|--- .... ....|--- .... ....
....|..|--- .... ....|--- .... ....|--- .... ....
....|..|--- .... ....|F-4 2F.A ....|--- .... ....
 F#4|..|F#2 2A.F ....|D-4 2F.7 ....|F-3 2FEF ....
....|..|--- .... ....|--- .... ....|--- .... ....
....|..|--- .... ....|--- .... ....|A#1 2F.F ....
....|..|--- .... ....|--- .... ....|--- .... ....
....|..|--- .... ....|--- .... ....|--- .... ....
....|..|--- .... ....|F-4 2F.7 ....|R-- .... ....
....|..|F#2 2F.A ....|--- .... ....|F-3 2FEA ....
....|..|--- .... ....|--- .... ....|--- .... ....
 C#4|..|C#6 2C.F ....|--- .... ....|A#2 2F.F ....
....|..|--- .... ....|--- .... ....|--- .... ....
....|..|--- .... ....|--- .... ....|--- .... ....
....|..|--- .... ....|R-- .... ....|R-- .... ....
 C#4|..|C#6 2C.F ....|D-4 2F.F ....|A-3 2FBF ....
....|..|--- .... ....|--- .... ....|--- .... ....
....|..|C#6 2F.A ....|--- .... ....|D-2 2F.F ....
....|..|--- .... ....|--- .... ....|--- .... ....
....|..|--- .... ....|--- .... ....|--- .... ....
....|..|--- .... ....|R-- .... ....|R-- .... ....
....|..|C#6 2F.A ....|D-4 2F.A ....|A-3 2FBA ....
....|..|--- .... ....|--- .... ....|--- .... ....
....|..|C#6 2F.7 ....|--- .... ....|A#2 2F.7 ....
....|..|--- .... ....|--- .... ....|--- .... ....
....|..|--- .... ....|--- .... ....|--- .... ....
....|..|--- .... ....|R-- .... ....|--- .... ....
 F#4|..|F#2 2A.F ....|F-4 2F.F ....|A-3 2FBF ....
....|..|--- .... ....|--- .... ....|--- .... ....
....|..|--- .... ....|--- .... ....|D-2 2F.7 ....
....|..|--- .... ....|--- .... ....|--- .... ....
....|..|--- .... ....|--- .... ....|--- .... ....
....|..|--- .... ....|R-- .... ....|--- .... ....
....|..|F#2 2F.A ....|F-4 2F.A ....|A-3 2FBA ....
....|..|--- .... ....|--- .... ....|--- .... ....
....|..|--- .... ....|--- .... ....|D-2 2F.F ....
....|..|--- .... ....|--- .... ....|--- .... ....
....|..|--- .... ....|R-- .... ....|--- .... ....
....|..|--- .... ....|A#4 2F.F ....|--- .... ....
 F#4|..|F#2 2A.F ....|F-4 2F.7 ....|D-4 2FBF ....
....|..|--- .... ....|--- .... ....|--- .... ....
....|..|--- .... ....|--- .... ....|G-2 2F.F ....
....|..|--- .... ....|--- .... ....|--- .... ....
....|..|--- .... ....|R-- .... ....|--- .... ....
....|..|--- .... ....|A#4 2F.A ....|--- .... ....
....|..|F#2 2F.A ....|R-- .... ....|D-4 2FBA ....
....|..|--- .... ....|--- .... ....|--- .... ....
 C#4|..|C#6 2C.F ....|A#4 2F.F ....|D-2 2F.7 ....
....|..|--- .... ....|--- .... ....|--- .... ....
....|..|--- .... ....|R-- .... ....|--- .... ....
....|..|--- .... ....|A#4 2F.7 ....|--- .... ....
 C#4|..|C#6 2C.F ....|R-- .... ....|D-4 2FBF ....
....|..|--- .... ....|--- .... ....|--- .... ....
....|..|C#6 2F.A ....|A#4 2F.A ....|G-2 2F.F ....
....|..|--- .... ....|--- .... ....|--- .... ....
....|..|--- .... ....|--- .... ....|R-- .... ....
....|..|--- .... ....|--- .... ....|--- .... ....
....|..|C#6 2F.A ....|R-- .... ....|D-4 2FBA ....
....|..|--- .... ....|A-4 2F.F ....|--- .... ....
 C#4|..|C#6 2C.F ....|A#4 2F.7 ....|F-2 2F.F ....
....|..|--- .... ....|--- .... ....|--- .... ....

[Pattern5]
....|..|--- .... ....|--- .... ....|R-- .... ....
....|..|--- .... ....|--- .... ....|R-- .... ....
 C#4|..|C#6 2C.F ....|F-4 2F.F ....|D-4 2F6F ....
....|..|R-- .... ....|A-4 2F.A ....|--- .... ....
....|..|C#6 2F.A ....|--- .... ....|D-2 2F.F ....
....|..|--- .... ....|R-- .... ....|--- .... ....
....|..|--- .... ....|D-4 2F.F ....|R-- .... ....
....|..|--- .... ....|--- .... ....|R-- .... ....
....|..|C#6 2F.A ....|F-4 2F.A ....|D-4 2F6A ....
....|..|R-- .... ....|D-4 2F1F ....|--- .... ....
 C-4|..|C-2 2A.F ....|F-4 2F.F ....|F-2 2F.7 ....
....|..|--- .... ....|R-- .... ....|--- .... ....
....|..|--- .... ....|D-4 2F.A ....|--- .... ....
....|..|--- .... ....|--- .... ....|R-- .... ....
 F#4|..|F#2 2A.F ....|F-4 2F.7 ....|D-4 2F6F ....
....|..|R-- .... ....|D-4 2F1A ....|--- .... ....
....|..|C-2 2F.A ....|F-4 2F.A ....|D-2 2F.F ....
....|..|--- .... ....|R-- .... ....|--- .... ....
....|..|--- .... ....|D-4 2F.7 ....|R-- .... ....
....|..|--- .... ....|--- .... ....|--- .... ....
....|..|F#2 2F.A ....|--- .... ....|D-4 2F6A ....
....|..|--- .... ....|D-4 2F17 ....|--- .... ....
 C#4|..|C#6 2C.F ....|F-4 2F.7 ....|F-2 2F.F ....
....|..|--- .... ....|--- .... ....|--- .... ....
....|..|--- .... ....|--- .... ....|R-- .... ....
....|..|--- .... ....|A#4 2F.F ....|--- .... ....
 C#4|..|C#6 2C.F ....|--- .... ....|D-4 2FBF ....
....|..|--- .... ....|R-- .... ....|--- .... ....
....|..|C#6 2F.A ....|R-- .... ....|G-2 2F.F ....
....|..|--- .... ....|--- .... ....|--- .... ....
....|..|--- .... ....|A#4 2F.F ....|R-- .... ....
....|..|--- .... ....|A#4 2F.A ....|--- .... ....
....|..|C#6 2F.A ....|--- .... ....|D-4 2FBA ....
....|..|--- .... ....|R-- .... ....|--- .... ....
....|..|C#6 2F.7 ....|A#4 2F.F ....|F-2 2F.7 ....
....|..|--- .... ....|--- .... ....|--- .... ....
....|..|--- .... ....|A#4 2F.A ....|--- .... ....
....|..|--- .... ....|A#4 2F.7 ....|--- .... ....
 F#4|..|F#2 2A.F ....|--- .... ....|D-4 2FBF ....
....|..|--- .... ....|R-- .... ....|D-4 2F5F ....
....|..|--- .... ....|A#4 2F.A ....|G-2 2F.F ....
....|..|--- .... ....|R-- .... ....|--- .... ....
....|..|--- .... ....|A-4 2F.F ....|--- .... ....
....|..|--- .... ....|--- .... ....|R-- .... ....
....|..|F#2 2F.A ....|--- .... ....|D-4 2FBA ....
....|..|--- .... ....|R-- .... ....|D-4 2F5A ....
 C#4|..|C#6 2C.F ....|A-4 2F.F ....|F-2 2F.F ....
....|..|--- .... ....|R-- .... ....|--- .... ....
....|..|--- .... ....|A-4 2F.A ....|--- .... ....
....|..|--- .... ....|R-- .... ....|R-- .... ....
 C#4|..|C#6 2C.F ....|G-4 2F.F ....|C#4 2F1F ....
....|..|--- .... ....|R-- .... ....|C#4 2F1F ....
....|..|C#6 2F.A ....|A-4 2F.A ....|G-2 2F.7 ....
....|..|--- .... ....|R-- .... ....|C#4 2F.F ....
....|..|--- .... ....|E-4 2F.F ....|A-3 2F.F ....
....|..|--- .... ....|R-- .... ....|R-- .... ....
....|..|C#6 2F.A ....|G-4 2F.A ....|C#4 2F1A ....
....|..|--- .... ....|R-- .... ....|A-3 2F.F ....
....|..|C#6 2F.7 ....|F-4 2F.F ....|A-3 2FBF ....
....|..|--- .... ....|--- .... ....|C#4 2F.A ....
....|..|--- .... ....|E-4 2F.A ....|A-3 2F.A ....
....|..|--- .... ....|R-- .... ....|--- .... ....
 C#4|..|C#6 2C.F ....|G-4 2F.7 ....|A-3 2FBF ....
....|..|--- .... ....|R-- .... ....|C#4 2F17 ....
....|..|--- .... ....|F-4 2F.A ....|A-3 2FBA ....
....|..|--- .... ....|--- .... ....|C#4 2F.7 ....
....|..|--- .... ....|E-4 2F.7 ....|A-3 2F.7 ....
....|..|--- .... ....|--- .... ....|--- .... ....
....|..|C#6 2F.A ....|--- .... ....|A-3 2FBA ....
....|..|--- .... ....|G-4 2F.F ....|A-3 2F5F ....
 C#4|..|C#6 2C.F ....|F-4 2F.7 ....|C-3 2F4F ....
....|..|--- .... ....|--- .... ....|D-4 2F.F ....
....|..|--- .... ....|R-- .... ....|C-2 2F.F ....
....|..|--- .... ....|--- .... ....|R-- .... ....
 C#4|..|C#6 2C.F ....|--- .... ....|G-3 2F3F ....
....|..|--- .... ....|G-4 2F.F ....|A-3 2F5A ....
....|..|C#6 2F.A ....|--- .... ....|G-2 2F.F ....
....|..|--- .... ....|--- .... ....|G-2 2F.F ....
....|..|--- .... ....|A-4 2F.F ....|C-2 2F.A ....
....|..|--- .... ....|--- .... ....|R-- .... ....
....|..|C#6 2F.A ....|--- .... ....|G-3 2F3A ....
....|..|--- .... ....|G-4 2F.7 ....|A-3 2F57 ....
....|..|C#6 2F.7 ....|G-4 2F.F ....|C-3 2F47 ....
....|..|--- .... ....|--- .... ....|D-4 2F.7 ....
....|..|--- .... ....|A-4 2F.A ....|C-2 2F.7 ....
....|..|--- .... ....|--- .... ....|R-- .... ....
 C#4|..|C#6 2C.F ....|--- .... ....|A-3 2F1F ....
....|..|--- .... ....|G-4 2F.7 ....|R-- .... ....
....|..|--- .... ....|G-4 2F.A ....|A-2 2F.F ....
....|..|--- .... ....|--- .... ....|A-2 2F.F ....
....|..|--- .... ....|A-4 2F.7 ....|--- .... ....
....|..|--- .... ....|R-- .... ....|--- .... ....
....|..|C#6 2F.A ....|--- .... ....|A-2 2F.F ....
....|..|--- .... ....|G-4 2F.F ....|R-- .... ....
....|..|--- .... ....|G-4 2F.7 ....|A-2 2F.A ....
....|..|--- .... ....|--- .... ....|A-2 2F.A ....
....|..|--- .... ....|R-- .... ....|--- .... ....
....|..|--- .... ....|R-- .... ....|--- .... ....
 C#4|..|C#6 2C.F ....|E-4 2F.F ....|B-3 2F1F ....
....|..|--- .... ....|G-4 2F.A ....|R-- .... ....
....|..|--- .... ....|--- .... ....|A-2 2F.7 ....
....|..|--- .... ....|--- .... ....|B-2 2F.F ....
....|..|--- .... ....|R-- .... ....|--- .... ....
....|..|--- .... ....|R-- .... ....|--- .... ....
....|..|C#6 2F.A ....|E-4 2F.A ....|A-2 2F.7 ....
....|..|--- .... ....|G-4 2F.7 ....|R-- .... ....
....|..|--- .... ....|E-4 2F.F ....|--- .... ....
....|..|--- .... ....|--- .... ....|B-2 2F.A ....
....|..|--- .... ....|R-- .... ....|--- .... ....
....|..|--- .... ....|R-- .... ....|--- .... ....
 C#4|..|C#6 2C.F ....|D-4 2F.F ....|G-3 2F5F ....
....|..|--- .... ....|R-- .... ....|--- .... ....
....|..|--- .... ....|E-4 2F.A ....|--- .... ....
....|..|--- .... ....|--- .... ....|B-2 2F.7 ....
....|..|--- .... ....|--- .... ....|--- .... ....
....|..|--- .... ....|R-- .... ....|--- .... ....
....|..|C#6 2F.A ....|D-4 2F.A ....|G-3 2F5A ....
....|..|--- .... ....|R-- .... ....|--- .... ....
 D-4|..|D-2 2A.F ....|E-4 2F.7 ....|--- .... ....
 D-4|..|D-2 2A.F ....|--- .... ....|--- .... ....
....|..|--- .... ....|--- .... ....|--- .... ....
 D-4|..|D-2 2A.F ....|R-- .... ....|--- .... ....
 C#4|..|C#6 2C.F ....|D-4 2F.7 ....|G-3 2F57 ....
....|..|--- .... ....|--- .... ....|--- .... ....
....|..|D-2 2F.A ....|--- .... ....|C-3 2F.F ....
....|..|D-2 2F.A ....|--- .... ....|R-- .... ....
....|..|--- .... ....|--- .... ....|--- .... ....
....|..|D-2 2F.A ....|--- .... ....|--- .... ....

[Pattern6]
....|..|C#6 2F.A ....|--- .... ....|--- .... ....
....|..|--- .... ....|--- .... ....|--- .... ....
 C#4|..|C#3 2C.F ....|--- .... ....|F-3 2F5F ....
....|..|D-2 2F.7 ....|R-- .... ....|R-- .... ....
....|..|--- .... ....|--- .... ....|--- .... ....
....|..|D-2 2F.7 ....|--- .... ....|--- .... ....
....|..|C#6 2F.7 ....|--- .... ....|--- .... ....
....|..|--- .... ....|--- .... ....|--- .... ....
....|..|C#3 2F.A ....|--- .... ....|C-3 2F.7 ....
....|..|--- .... ....|R-- .... ....|R-- .... ....
....|..|--- .... ....|--- .... ....|--- .... ....
....|..|--- .... ....|--- .... ....|--- .... ....
....|..|--- .... ....|--- .... ....|--- .... ....
....|..|--- .... ....|--- .... ....|--- .... ....
....|..|C#3 2F.7 ....|--- .... ....|F-3 2F57 ....
....|..|--- .... ....|R-- .... ....|--- .... ....
....|..|--- .... ....|--- .... ....|--- .... ....
....|..|--- .... ....|--- .... ....|--- .... ....
....|..|--- .... ....|--- .... ....|--- .... ....
....|..|--- .... ....|--- .... ....|--- .... ....
....|..|--- .... ....|--- .... ....|--- .... ....
....|..|--- .... ....|--- .... ....|--- .... ....
....|..|--- .... ....|--- .... ....|--- .... ....
....|..|--- .... ....|--- .... ....|--- .... ....
....|..|--- .... ....|--- .... ....|--- .... ....
....|..|--- .... ....|--- .... ....|--- .... ....
....|..|--- .... ....|--- .... ....|F-3 2F5F ....
....|..|--- .... ....|--- .... ....|--- .... ....
....|..|--- .... ....|A#4 2F.F ....|A#2 2F.F ....
....|..|--- .... ....|--- .... ....|--- .... ....
....|..|--- .... ....|--- .... ....|F-3 2F5F ....
....|..|--- .... ....|--- .... ....|A#2 2F.F ....
....|..|--- .... ....|--- .... ....|F-3 2F5A ....
....|..|--- .... ....|--- .... ....|--- .... ....
....|..|--- .... ....|A#4 2F.A ....|A#3 2F3F ....
....|..|--- .... ....|--- .... ....|A#2 2F.F ....
....|..|--- .... ....|--- .... ....|F-3 2F5A ....
....|..|--- .... ....|--- .... ....|A#2 2F.A ....
....|..|--- .... ....|--- .... ....|D-4 2F1F ....
....|..|--- .... ....|--- .... ....|A#2 2F.F ....
....|..|--- .... ....|A#4 2F.7 ....|A#2 2F.F ....
....|..|--- .... ....|R-- .... ....|A#2 2F.A ....
 C#4|..|C#6 2C.F ....|A-4 2F.F ....|A-1 2F.F ....
....|..|--- .... ....|--- .... ....|A#2 2F.7 ....
....|..|--- .... ....|--- .... ....|D-4 2F1A ....
....|..|--- .... ....|R-- .... ....|A#2 2F.A ....
....|..|--- .... ....|--- .... ....|A#3 2F37 ....
....|..|--- .... ....|A-4 2F.F ....|A#2 2F.7 ....
....|..|C#6 2F.A ....|A-4 2F.A ....|A-1 2F.A ....
....|..|--- .... ....|--- .... ....|--- .... ....
....|..|--- .... ....|G-4 2F.F ....|A-3 2F.F ....
....|..|--- .... ....|G-4 2F4F ....|A#2 2F.7 ....
....|..|--- .... ....|A-4 2F.F ....|A#2 2F.7 ....
....|..|--- .... ....|A-4 2F.A ....|R-- .... ....
 F#4|..|F#2 2A.F ....|A-4 2F.7 ....|A-3 2FAF ....
....|..|--- .... ....|--- .... ....|C#4 2F1F ....
....|..|--- .... ....|G-4 2F.A ....|C#4 2F1F ....
....|..|--- .... ....|G-4 2F4A ....|--- .... ....
....|..|--- .... ....|A-4 2F.A ....|--- .... ....
....|..|--- .... ....|A-4 2F.7 ....|--- .... ....
....|..|F#2 2F.A ....|--- .... ....|A-3 2FAA ....
....|..|--- .... ....|A-4 2F.F ....|C#4 2F1A ....
 C#4|..|C#6 2C.F ....|G-4 2F.7 ....|A-3 2F.F ....
....|..|--- .... ....|G-4 2F47 ....|--- .... ....
....|..|--- .... ....|A-4 2F.7 ....|--- .... ....
....|..|--- .... ....|F-4 2F.F ....|A-1 2F.F ....
 C#4|..|C#6 2C.F ....|--- .... ....|A-2 2F5F ....
....|..|--- .... ....|A-4 2F.A ....|D-2 2F.F ....
....|..|C#6 2F.A ....|R-- .... ....|C#4 2F17 ....
....|..|--- .... ....|E-4 2F.F ....|--- .... ....
....|..|--- .... ....|--- .... ....|--- .... ....
....|..|--- .... ....|F-4 2F.A ....|A-1 2F.A ....
....|..|C#6 2F.A ....|--- .... ....|A-2 2F5A ....
....|..|--- .... ....|D-4 2F.F ....|D-2 2F.A ....
 C-4|..|C-2 2A.F ....|R-- .... ....|A-3 2F.F ....
....|..|--- .... ....|E-4 2F.A ....|--- .... ....
....|..|--- .... ....|--- .... ....|--- .... ....
....|..|--- .... ....|F-4 2F.7 ....|A-1 2F.7 ....
 F#4|..|F#2 2A.F ....|--- .... ....|D-4 2F1F ....
....|..|--- .... ....|D-4 2F.A ....|D-2 2F.7 ....
....|..|C-2 2F.A ....|R-- .... ....|A-3 2F.A ....
....|..|--- .... ....|E-4 2F.7 ....|--- .... ....
....|..|--- .... ....|R-- .... ....|--- .... ....
....|..|--- .... ....|--- .... ....|--- .... ....
....|..|F#2 2F.A ....|--- .... ....|D-4 2F1A ....
....|..|--- .... ....|G-3 2F.F ....|D-2 2F.F ....
....|..|C-2 2F.7 ....|--- .... ....|A-3 2F.F ....
....|..|--- .... ....|--- .... ....|--- .... ....
....|..|--- .... ....|R-- .... ....|--- .... ....
....|..|--- .... ....|--- .... ....|R-- .... ....
 F#4|..|F#2 2A.F ....|G-4 2F.F ....|G-1 2F.F ....
....|..|--- .... ....|G-3 2F.A ....|D-2 2F.A ....
....|..|--- .... ....|--- .... ....|A-3 2F.A ....
....|..|--- .... ....|--- .... ....|--- .... ....
....|..|--- .... ....|R-- .... ....|--- .... ....
....|..|--- .... ....|R-- .... ....|R-- .... ....
....|..|F#2 2F.A ....|G-4 2F.A ....|G-1 2F.A ....
....|..|--- .... ....|G-4 2F.F ....|D-2 2F.7 ....
....|..|--- .... ....|--- .... ....|G-3 2F.F ....
....|..|--- .... ....|R-- .... ....|--- .... ....
....|..|--- .... ....|--- .... ....|--- .... ....
....|..|--- .... ....|R-- .... ....|G-1 2F.F ....
 F#4|..|F#2 2A.F ....|G-4 2F.F ....|B-3 2FFF ....
....|..|--- .... ....|G-4 2F.A ....|D-4 2F.F ....
....|..|--- .... ....|--- .... ....|B-3 2FFF ....
....|..|--- .... ....|R-- .... ....|--- .... ....
....|..|--- .... ....|--- .... ....|--- .... ....
....|..|--- .... ....|R-- .... ....|G-1 2F.A ....
....|..|F#2 2F.A ....|G-4 2F.A ....|F-4 2F.F ....
....|..|--- .... ....|G-4 2F.7 ....|D-4 2F.A ....
 C#4|..|C#6 2C.F ....|F-4 2F.F ....|G-3 2F.F ....
....|..|--- .... ....|R-- .... ....|--- .... ....
....|..|--- .... ....|--- .... ....|--- .... ....
....|..|--- .... ....|R-- .... ....|G-1 2F.7 ....
 C#4|..|C#6 2C.F ....|E-4 2F.F ....|C-2 2F.F ....
....|..|--- .... ....|R-- .... ....|D-4 2F.7 ....
....|..|C#6 2F.A ....|F-4 2F.A ....|B-3 2FF7 ....
....|..|--- .... ....|--- .... ....|--- .... ....
....|..|--- .... ....|D-4 2F.F ....|--- .... ....
....|..|--- .... ....|R-- .... ....|--- .... ....
....|..|C#6 2F.A ....|E-4 2F.A ....|F-4 2F.7 ....
....|..|--- .... ....|R-- .... ....|R-- .... ....
 C-4|..|C-2 2A.F ....|C-4 2F.F ....|G-3 2F.F ....
....|..|--- .... ....|--- .... ....|--- .... ....
....|..|--- .... ....|D-4 2F.A ....|--- .... ....
....|..|--- .... ....|R-- .... ....|--- .... ....
 F#4|..|F#2 2A.F ....|C-4 2F3F ....|G-3 2FEF ....
....|..|--- .... ....|E-4 2F.F ....|C-4 2F3F ....

[Pattern7]
....|..|C-2 2F.A ....|C-4 2F.A ....|G-3 2F.A ....
....|..|--- .... ....|--- .... ....|--- .... ....
....|..|--- .... ....|D-4 2F.7 ....|--- .... ....
....|..|--- .... ....|R-- .... ....|--- .... ....
....|..|F#2 2F.A ....|C-4 2F3A ....|C-4 2F3F ....
....|..|--- .... ....|E-4 2F.A ....|C-4 2F3A ....
....|..|C-2 2F.7 ....|C-4 2F.7 ....|G-3 2F.F ....
....|..|--- .... ....|--- .... ....|--- .... ....
....|..|--- .... ....|--- .... ....|--- .... ....
....|..|--- .... ....|R-- .... ....|--- .... ....
 F#4|..|F#2 2A.F ....|C-4 2F37 ....|G-3 2FEF ....
....|..|--- .... ....|E-4 2F.7 ....|C-4 2F37 ....
....|..|--- .... ....|--- .... ....|G-3 2F.A ....
....|..|--- .... ....|--- .... ....|C-2 2F.F ....
....|..|--- .... ....|--- .... ....|R-- .... ....
....|..|--- .... ....|R-- .... ....|--- .... ....
....|..|F#2 2F.A ....|--- .... ....|C-4 2F37 ....
....|..|--- .... ....|--- .... ....|R-- .... ....
 C#4|..|C#3 2C.F ....|--- .... ....|F-3 2FEF ....
....|..|--- .... ....|--- .... ....|C-2 2F.A ....
....|..|--- .... ....|--- .... ....|R-- .... ....
....|..|--- .... ....|--- .... ....|--- .... ....
....|..|F#2 2F.7 ....|D-4 2F.F ....|G-3 2FE7 ....
....|..|--- .... ....|--- .... ....|--- .... ....
....|..|C#3 2F.A ....|--- .... ....|F-3 2FEA ....
....|..|--- .... ....|C-4 2F.F ....|C-2 2F.7 ....
....|..|--- .... ....|--- .... ....|R-- .... ....
....|..|--- .... ....|--- .... ....|--- .... ....
....|..|--- .... ....|D-4 2F.A ....|--- .... ....
....|..|--- .... ....|D-4 2F.F ....|--- .... ....
....|..|C#3 2F.7 ....|--- .... ....|F-3 2FE7 ....
....|..|--- .... ....|C-4 2F.A ....|--- .... ....
....|..|--- .... ....|--- .... ....|--- .... ....
....|..|--- .... ....|--- .... ....|--- .... ....
....|..|--- .... ....|D-4 2F.7 ....|--- .... ....
....|..|--- .... ....|D-4 2F.A ....|--- .... ....
....|..|--- .... ....|--- .... ....|--- .... ....
....|..|--- .... ....|C-4 2F.7 ....|--- .... ....
....|..|--- .... ....|--- .... ....|--- .... ....
....|..|--- .... ....|--- .... ....|A#3 2F3F ....
....|..|--- .... ....|R-- .... ....|--- .... ....
....|..|--- .... ....|D-4 2F.7 ....|D-4 2F.F ....
....|..|--- .... ....|--- .... ....|F-3 2F.F ....
....|..|--- .... ....|--- .... ....|--- .... ....
....|..|--- .... ....|--- .... ....|--- .... ....
....|..|--- .... ....|--- .... ....|A#3 2F3A ....
....|..|--- .... ....|--- .... ....|F-3 2F5F ....
....|..|--- .... ....|--- .... ....|A#3 2F.F ....
....|..|--- .... ....|--- .... ....|F-3 2F.A ....
....|..|--- .... ....|--- .... ....|--- .... ....
 C#4|..|C#6 2C.F ....|--- .... ....|A#3 2F3F ....
....|..|--- .... ....|--- .... ....|D-4 2F.F ....
....|..|--- .... ....|--- .... ....|F-3 2F5A ....
....|..|--- .... ....|--- .... ....|D-4 2F.7 ....
 C#4|..|C#6 2C.F ....|--- .... ....|F-4 2F.F ....
....|..|--- .... ....|--- .... ....|R-- .... ....
....|..|C#6 2F.A ....|--- .... ....|A#3 2F3A ....
....|..|--- .... ....|--- .... ....|D-4 2F.A ....
 F#4|..|F#2 2A.F ....|F-2 2F.F ....|F-2 2F.F ....
....|..|--- .... ....|--- .... ....|A#3 2F.7 ....
....|..|C#6 2F.A ....|--- .... ....|F-4 2F.A ....
....|..|--- .... ....|--- .... ....|R-- .... ....
....|..|C#6 2F.7 ....|--- .... ....|A#3 2F37 ....
....|..|--- .... ....|--- .... ....|D-4 2F.7 ....
....|..|F#2 2F.A ....|F-2 2F.A ....|F-2 2F.A ....
....|..|--- .... ....|--- .... ....|--- .... ....
....|..|C#6 2F.7 ....|--- .... ....|F-2 2F.F ....
....|..|--- .... ....|--- .... ....|R-- .... ....
....|..|--- .... ....|--- .... ....|R-- .... ....
....|..|--- .... ....|--- .... ....|F-2 2F.F ....
 F#4|..|F#2 2A.F ....|F-2 2F.7 ....|A-3 2F1F ....
....|..|--- .... ....|--- .... ....|--- .... ....
....|..|--- .... ....|--- .... ....|F-2 2F.A ....
....|..|--- .... ....|--- .... ....|--- .... ....
....|..|--- .... ....|--- .... ....|--- .... ....
....|..|--- .... ....|--- .... ....|F-2 2F.A ....
....|..|F#2 2F.A ....|--- .... ....|F-2 2F.F ....
....|..|--- .... ....|--- .... ....|F-2 2F.F ....
....|..|--- .... ....|--- .... ....|F-2 2F.F ....
....|..|--- .... ....|--- .... ....|--- .... ....
....|..|--- .... ....|--- .... ....|--- .... ....
....|..|--- .... ....|--- .... ....|F-2 2F.7 ....
 F#4|..|F#2 2A.F ....|--- .... ....|F-3 2F5F ....
....|..|--- .... ....|R-- .... ....|F-2 2F.A ....
....|..|--- .... ....|--- .... ....|A#3 2F3F ....
....|..|--- .... ....|--- .... ....|--- .... ....
....|..|--- .... ....|--- .... ....|--- .... ....
....|..|--- .... ....|--- .... ....|C-3 2F.F ....
....|..|F#2 2F.A ....|--- .... ....|F-2 2F.F ....
....|..|--- .... ....|R-- .... ....|F-2 2F.F ....
....|..|--- .... ....|--- .... ....|F-2 2F.F ....
....|..|--- .... ....|R-- .... ....|F-2 2F.F ....
....|..|--- .... ....|--- .... ....|--- .... ....
....|..|--- .... ....|--- .... ....|C-3 2F.A ....
....|..|C-4 LF.F ....|F-2 2F.F ....|G-3 2F1F ....
 F#4|..|F#2 2A.F ....|R-- .... ....|F-2 2F.A ....
....|..|--- .... ....|--- .... ....|F-2 2F.F ....
....|..|--- .... ....|R-- .... ....|F-2 2F.F ....
....|..|--- .... ....|--- .... ....|R-- .... ....
....|..|R-- .... ....|R-- .... ....|C-3 2F.7 ....
....|..|C-4 LF.A ....|F-2 2F.A ....|F-2 2F.7 ....
....|..|C-4 LF.F ....|--- .... ....|F-2 2F.7 ....
....|..|--- .... ....|F-2 2F.F ....|G-3 2F1F ....
....|..|--- .... ....|R-- .... ....|F-2 2F.7 ....
....|..|--- .... ....|--- .... ....|R-- .... ....
....|..|R-- .... ....|R-- .... ....|--- .... ....
 F#4|..|F#2 2A.F ....|F-2 2F.7 ....|G-3 2F17 ....
....|..|F#2 2F.7 ....|--- .... ....|--- .... ....
....|..|--- .... ....|F-2 2F.A ....|F-2 2F.7 ....
....|..|--- .... ....|--- .... ....|F-2 2F.7 ....
....|..|--- .... ....|--- .... ....|R-- .... ....
....|..|R-- .... ....|R-- .... ....|--- .... ....
....|..|F#2 2F.A ....|--- .... ....|A#3 2F5F ....
....|..|C-4 LF.7 ....|--- .... ....|--- .... ....
....|..|--- .... ....|F-2 2F.7 ....|F-3 2F5F ....
....|..|--- .... ....|--- .... ....|F-2 2F.F ....
....|..|--- .... ....|--- .... ....|--- .... ....
....|..|--- .... ....|--- .... ....|--- .... ....
 F#4|..|F#2 2A.F ....|--- .... ....|F-3 2F.F ....
....|..|--- .... ....|--- .... ....|F-2 2F.F ....
....|..|--- .... ....|--- .... ....|F-3 2F5A ....
....|..|--- .... ....|--- .... ....|F-2 2F.A ....
....|..|R-- .... ....|--- .... ....|--- .... ....
....|..|--- .... ....|--- .... ....|--- .... ....
....|..|F#2 2F.A ....|--- .... ....|F-2 2F.F ....
....|..|--- .... ....|--- .... ....|F-2 2F.A ....
....|..|--- .... ....|--- .... ....|F-2 2F.F ....
....|..|--- .... ....|--- .... ....|F-2 2F.7 ....

[Pattern8]
....|..|R-- .... ....|--- .... ....|--- .... ....
....|..|--- .... ....|--- .... ....|--- .... ....
....|..|C-4 LF.F ....|--- .... ....|A#3 2F3F ....
 F#4|..|F#2 2A.F ....|--- .... ....|F-2 2F.7 ....
....|..|--- .... ....|--- .... ....|F-2 2F.A ....
....|..|--- .... ....|--- .... ....|--- .... ....
....|..|R-- .... ....|--- .... ....|F-2 2F.F ....
....|..|R-- .... ....|--- .... ....|--- .... ....
....|..|C-4 LF.A ....|--- .... ....|F-2 2F.7 ....
....|..|F#2 2F.A ....|--- .... ....|--- .... ....
....|..|C-4 LF.F ....|--- .... ....|G-3 2F1F ....
 A-3|..|A-2 2C.F ....|--- .... ....|--- .... ....
....|..|--- .... ....|--- .... ....|F-2 2F.A ....
....|..|R-- .... ....|--- .... ....|R-- .... ....
 A-3|..|A-2 2C.F ....|--- .... ....|A#3 2F37 ....
....|..|F#2 2F.7 ....|--- .... ....|--- .... ....
....|..|C-4 LF.A ....|--- .... ....|G-3 2F1A ....
....|..|A-2 2F.A ....|--- .... ....|--- .... ....
 G-4|..|G-2 2A.F ....|--- .... ....|G-3 2F8F ....
....|..|R-- .... ....|--- .... ....|R-- .... ....
....|..|A-2 2F.A ....|--- .... ....|--- .... ....
....|..|--- .... ....|--- .... ....|--- .... ....
 G-4|..|G-2 2A.F ....|--- .... ....|G-3 2F17 ....
....|..|A-2 2F.7 ....|R-- .... ....|--- .... ....
....|..|G-2 2F.A ....|--- .... ....|A#3 2F5F ....
....|..|--- .... ....|--- .... ....|R-- .... ....
 C#4|..|C#3 2C.F ....|--- .... ....|F-2 2F.F ....
....|..|--- .... ....|--- .... ....|--- .... ....
....|..|G-2 2F.A ....|--- .... ....|--- .... ....
....|..|--- .... ....|R-- .... ....|--- .... ....
....|..|G-2 2F.7 ....|--- .... ....|G-3 2F87 ....
....|..|--- .... ....|--- .... ....|--- .... ....
....|..|C#3 2F.A ....|--- .... ....|F-2 2F.A ....
....|..|R-- .... ....|--- .... ....|--- .... ....
....|..|G-2 2F.7 ....|--- .... ....|F-2 2F.F ....
....|..|--- .... ....|R-- .... ....|--- .... ....
....|..|--- .... ....|--- .... ....|A#3 2F57 ....
....|..|--- .... ....|--- .... ....|F-2 2F.F ....
 F#4|..|F#2 2A.F ....|--- .... ....|A-3 2F1F ....
....|..|R-- .... ....|--- .... ....|--- .... ....
....|..|--- .... ....|--- .... ....|F-2 2F.A ....
....|..|--- .... ....|--- .... ....|--- .... ....
....|..|--- .... ....|--- .... ....|R-- .... ....
....|..|--- .... ....|--- .... ....|A-3 2F1F ....
....|..|F#2 2F.A ....|--- .... ....|A-3 2F1A ....
....|..|R-- .... ....|--- .... ....|F-2 2F.F ....
....|..|--- .... ....|--- .... ....|F-2 2F.F ....
....|..|--- .... ....|--- .... ....|--- .... ....
....|..|--- .... ....|--- .... ....|C-3 2F.F ....
....|..|--- .... ....|--- .... ....|F-3 2F.F ....
 F#4|..|F#2 2A.F ....|--- .... ....|F-3 2F5F ....
....|..|--- .... ....|--- .... ....|F-2 2F.A ....
....|..|--- .... ....|--- .... ....|F-2 2F.A ....
....|..|--- .... ....|--- .... ....|A#3 2F3F ....
....|..|--- .... ....|--- .... ....|C-3 2F.A ....
....|..|--- .... ....|--- .... ....|D-4 2F.F ....
....|..|F#2 2F.A ....|--- .... ....|F-3 2F5A ....
....|..|--- .... ....|--- .... ....|F-2 2F.7 ....
 C-4|..|C-2 2A.F ....|--- .... ....|F-3 2F.F ....
....|..|--- .... ....|--- .... ....|A#3 2F3A ....
....|..|--- .... ....|--- .... ....|C-3 2F.7 ....
....|..|--- .... ....|--- .... ....|F-3 2F.7 ....
....|..|C-4 LF.F ....|--- .... ....|G-3 2F1F ....
 F#4|..|F#2 2A.F ....|--- .... ....|R-- .... ....
....|..|C-2 2F.A ....|--- .... ....|F-3 2F.A ....
....|..|--- .... ....|--- .... ....|G-2 2F.F ....
....|..|R-- .... ....|--- .... ....|G-2 2F.F ....
....|..|--- .... ....|--- .... ....|D-4 2F.7 ....
....|..|C-4 LF.A ....|--- .... ....|G-3 2F1A ....
....|..|F#2 2F.A ....|--- .... ....|R-- .... ....
....|..|C-4 LF.F ....|--- .... ....|G-3 2F8F ....
....|..|--- .... ....|--- .... ....|G-2 2F.A ....
....|..|R-- .... ....|--- .... ....|G-2 2F.A ....
....|..|--- .... ....|--- .... ....|R-- .... ....
 F#4|..|F#2 2A.F ....|--- .... ....|G-3 2F1F ....
....|..|F#2 2F.7 ....|--- .... ....|--- .... ....
....|..|C-4 LF.A ....|--- .... ....|G-3 2F8A ....
....|..|--- .... ....|--- .... ....|G-2 2F.7 ....
....|..|R-- .... ....|--- .... ....|G-2 2F.7 ....
....|..|--- .... ....|--- .... ....|A#3 2F5F ....
....|..|F#2 2F.A ....|--- .... ....|G-3 2F1A ....
....|..|--- .... ....|--- .... ....|F-2 2F.F ....
 C#4|..|C#3 2C.F ....|--- .... ....|F-3 2F5F ....
....|..|--- .... ....|--- .... ....|--- .... ....
 C#4|..|C#3 2C.F ....|--- .... ....|--- .... ....
 C#4|..|C#3 2C.F ....|--- .... ....|A#3 2F5A ....
....|..|F#2 2F.7 ....|--- .... ....|F-3 2F5F ....
 C#4|..|C#3 2C.F ....|--- .... ....|A#3 2F.F ....
 C#4|..|C#3 2C.F ....|--- .... ....|F-2 2F.F ....
....|..|--- .... ....|--- .... ....|--- .... ....
 C#4|..|C#3 2C.F ....|--- .... ....|--- .... ....
 C#4|..|C#3 2C.F ....|--- .... ....|A#3 2F57 ....
 C#4|..|C#3 2C.F ....|--- .... ....|F-2 2F.F ....
 C#4|..|C#3 2C.F ....|--- .... ....|F-2 2F.7 ....
....|..|C#3 2F.7 ....|--- .... ....|F-3 2F.F ....
 C#4|..|C#3 2C.F ....|--- .... ....|--- .... ....
 C#4|..|C#3 2C.F ....|--- .... ....|--- .... ....
....|..|C#3 2F.7 ....|--- .... ....|--- .... ....
 C#4|..|C#3 2C.F ....|--- .... ....|F-3 2F5F ....
 C#4|..|C#3 2C.F ....|--- .... ....|A#3 2F.7 ....
 C#4|..|C#3 2C.F ....|--- .... ....|F-2 2F.7 ....
....|..|C#3 2F.A ....|--- .... ....|--- .... ....
 C#4|..|C#3 2C.F ....|--- .... ....|--- .... ....
 C#4|..|C#3 2C.F ....|--- .... ....|D-4 2F.F ....
 C#4|..|C#3 2C.F ....|--- .... ....|F-2 2F.7 ....
....|..|C#3 2F.7 ....|--- .... ....|R-- .... ....
 C#4|..|C#3 2C.F ....|--- .... ....|F-3 2F.7 ....
 C#4|..|C#3 2C.F ....|--- .... ....|--- .... ....
 C#4|..|C#3 2C.F ....|--- .... ....|--- .... ....
 C#4|..|C#3 2C.F ....|--- .... ....|D-4 2F.A ....
....|..|C#3 2F.7 ....|G-3 2F.F ....|G-3 2F1F ....
 C#4|..|C#3 2C.F ....|--- .... ....|--- .... ....
 C#4|..|C#3 2C.F ....|--- .... ....|--- .... ....
 C#4|..|C#3 2C.F ....|--- .... ....|--- .... ....
....|..|C#3 2F.7 ....|--- .... ....|--- .... ....
 C#4|..|C#3 2C.F ....|--- .... ....|G-3 2F8F ....
 C#4|..|C#3 2C.F ....|G-3 2F.A ....|G-3 2F1A ....
 C#4|..|C#3 2C.F ....|--- .... ....|--- .... ....
 C#4|..|C#3 2C.F ....|G-3 2F.F ....|R-- .... ....
....|..|C#3 2F.7 ....|--- .... ....|--- .... ....
 C#4|..|C#3 2C.F ....|--- .... ....|--- .... ....
 C#4|..|C#3 2C.F ....|R-- .... ....|G-3 2F8A ....
....|..|C#3 2F.A ....|C-4 2F.F ....|C-4 2F1F ....
....|..|C#3 2F.7 ....|--- .... ....|--- .... ....
....|..|C#3 2F.7 ....|G-3 2F.A ....|C-3 2F.F ....
....|..|C#3 2F.7 ....|--- .... ....|C-3 2F.F ....
....|..|C#3 2F.A ....|--- .... ....|--- .... ....
....|..|C#3 2F.7 ....|R-- .... ....|G-3 2F87 ....

[Pattern9]
....|..|C#3 2F.7 ....|C-4 2F.A ....|C-4 2F1A ....
....|..|C#3 2F.7 ....|--- .... ....|--- .... ....
....|..|C#3 2F.7 ....|G-3 2F.7 ....|C-3 2F.A ....
....|..|--- .... ....|R-- .... ....|C-3 2F.A ....
....|..|C#3 2F.7 ....|--- .... ....|--- .... ....
....|..|C#3 2F.7 ....|C-4 2F.F ....|--- .... ....
 F#4|..|F#2 2A.F ....|C-4 2F.7 ....|C-4 2F1F ....
....|..|--- .... ....|--- .... ....|--- .... ....
....|..|--- .... ....|--- .... ....|C-3 2F.F ....
....|..|--- .... ....|R-- .... ....|C-3 2F.7 ....
....|..|--- .... ....|--- .... ....|--- .... ....
....|..|--- .... ....|C-4 2F.A ....|--- .... ....
....|..|F#2 2F.A ....|--- .... ....|C-4 2F1A ....
....|..|--- .... ....|--- .... ....|--- .... ....
....|..|--- .... ....|A#3 2F.F ....|C-3 2F.A ....
....|..|--- .... ....|R-- .... ....|--- .... ....
....|..|--- .... ....|--- .... ....|--- .... ....
....|..|--- .... ....|C-4 2F.7 ....|--- .... ....
 F#4|..|F#2 2A.F ....|C-4 2F.F ....|C-4 2F1F ....
....|..|--- .... ....|--- .... ....|--- .... ....
....|..|--- .... ....|A#3 2F.A ....|C-3 2F.F ....
....|..|--- .... ....|--- .... ....|--- .... ....
....|..|--- .... ....|--- .... ....|--- .... ....
....|..|--- .... ....|R-- .... ....|--- .... ....
....|..|F#2 2F.A ....|C-4 2F.A ....|C-4 2F1A ....
....|..|--- .... ....|G-3 2F.F ....|--- .... ....
....|..|--- .... ....|A#3 2F.7 ....|C-3 2F.A ....
....|..|--- .... ....|--- .... ....|--- .... ....
....|..|--- .... ....|--- .... ....|--- .... ....
....|..|--- .... ....|R-- .... ....|--- .... ....
 F#4|..|F#2 2A.F ....|C-4 2F.7 ....|C-4 2F1F ....
....|..|--- .... ....|G-3 2F.A ....|D#4 2F3F ....
....|..|--- .... ....|--- .... ....|C-3 2F.F ....
....|..|--- .... ....|--- .... ....|--- .... ....
....|..|--- .... ....|R-- .... ....|--- .... ....
....|..|--- .... ....|--- .... ....|--- .... ....
....|..|F#2 2F.A ....|R-- .... ....|C-4 2F1A ....
....|..|--- .... ....|G-3 2F.7 ....|D#4 2F3A ....
....|..|--- .... ....|G-3 2F.F ....|C-3 2F.A ....
....|..|--- .... ....|--- .... ....|--- .... ....
....|..|--- .... ....|R-- .... ....|--- .... ....
....|..|--- .... ....|--- .... ....|--- .... ....
 F#4|..|F#2 2A.F ....|D-4 2F.F ....|D-4 2F9F ....
....|..|--- .... ....|--- .... ....|D#4 2F37 ....
....|..|--- .... ....|G-3 2F.A ....|C-3 2F.F ....
....|..|--- .... ....|--- .... ....|--- .... ....
....|..|--- .... ....|R-- .... ....|--- .... ....
....|..|--- .... ....|--- .... ....|--- .... ....
....|..|F#2 2F.A ....|D-4 2F.A ....|D-4 2F9A ....
....|..|--- .... ....|R-- .... ....|--- .... ....
 D-4|..|D-2 2A.F ....|C-4 2F.F ....|C-3 2F.A ....
 D-4|..|D-2 2A.F ....|--- .... ....|--- .... ....
 D-4|..|D-2 2A.F ....|--- .... ....|--- .... ....
....|..|--- .... ....|R-- .... ....|--- .... ....
 F#4|..|F#2 2A.F ....|D-4 2F.F ....|D-4 2F9F ....
 D-4|..|D-2 2A.F ....|R-- .... ....|--- .... ....
 D-4|..|D-2 2A.F ....|C-4 2F.A ....|C-3 2F.F ....
....|..|D-2 2F.A ....|--- .... ....|--- .... ....
 D-4|..|D-2 2A.F ....|--- .... ....|--- .... ....
 D-4|..|D-2 2A.F ....|R-- .... ....|--- .... ....
 D-4|..|D-2 2A.F ....|D-4 2F.A ....|D-4 2F9A ....
....|..|D-2 2F.A ....|R-- .... ....|--- .... ....
 D-4|..|D-2 2A.F ....|D#4 2F.F ....|C-3 2F.A ....
 D-4|..|D-2 2A.F ....|--- .... ....|--- .... ....
 D-4|..|D-2 2A.F ....|--- .... ....|--- .... ....
....|..|D-2 2F.A ....|R-- .... ....|--- .... ....
 F#4|..|F#2 2A.F ....|D-4 2F.F ....|D-4 2F9F ....
 D-4|..|D-2 2A.F ....|--- .... ....|--- .... ....
 D-4|..|D-2 2A.F ....|D#4 2F.A ....|C-3 2F.F ....
....|..|D-2 2F.A ....|--- .... ....|--- .... ....
 D-4|..|D-2 2A.F ....|--- .... ....|--- .... ....
 D-4|..|D-2 2A.F ....|R-- .... ....|--- .... ....
 D-4|..|D-2 2A.F ....|D-4 2F.A ....|D-4 2F9A ....
....|..|D-2 2F.A ....|--- .... ....|--- .... ....
 D-4|..|D-2 2A.F ....|C-4 2F.F ....|C-3 2F.A ....
 D-4|..|D-2 2A.F ....|--- .... ....|--- .... ....
....|..|D-2 2F.7 ....|R-- .... ....|--- .... ....
 D-4|..|D-2 2A.F ....|R-- .... ....|--- .... ....
 F#4|..|F#2 2A.F ....|C-4 2F.F ....|D-4 2F9F ....
 D-4|..|D-2 2A.F ....|--- .... ....|--- .... ....
....|..|D-2 2F.7 ....|C-4 2F.A ....|D-4 2F1F ....
 D-4|..|D-2 2A.F ....|--- .... ....|C-3 2F.F ....
 D-4|..|D-2 2A.F ....|R-- .... ....|--- .... ....
 D-4|..|D-2 2A.F ....|--- .... ....|--- .... ....
 D-4|..|D-2 2A.F ....|C-4 2F.A ....|D-4 2F9A ....
....|..|D-2 2F.A ....|--- .... ....|C-3 2F.F ....
 D-4|..|D-2 2A.F ....|C-4 2F.7 ....|D-4 2F1A ....
 D-4|..|D-2 2A.F ....|--- .... ....|C-3 2F.A ....
 D-4|..|D-2 2A.F ....|R-- .... ....|--- .... ....
....|..|D-2 2F.7 ....|C-3 2F.F ....|--- .... ....
 A-3|..|A-5 2C.F ....|C-4 2F.7 ....|C-4 2F1F ....
....|..|D-2 2F.7 ....|--- .... ....|C-3 2F.A ....
....|..|D-2 2F.A ....|--- .... ....|C-3 2F.F ....
....|..|D-2 2F.7 ....|--- .... ....|C-3 2F.7 ....
....|..|D-2 2F.7 ....|R-- .... ....|--- .... ....
....|..|D-2 2F.7 ....|C-3 2F.A ....|--- .... ....
....|..|D-2 2F.7 ....|--- .... ....|C-4 2F1A ....
....|..|--- .... ....|--- .... ....|C-3 2F.7 ....
....|..|D-2 2F.7 ....|A#3 2F.F ....|C-3 2F.A ....
....|..|D-2 2F.7 ....|--- .... ....|--- .... ....
....|..|D-2 2F.7 ....|R-- .... ....|--- .... ....
....|..|--- .... ....|C-3 2F.7 ....|--- .... ....
 F#4|..|F#2 2A.F ....|C-4 2F.F ....|C-4 2F1F ....
....|..|--- .... ....|--- .... ....|--- .... ....
....|..|--- .... ....|A#3 2F.A ....|C-3 2F.F ....
....|..|--- .... ....|--- .... ....|--- .... ....
....|..|--- .... ....|--- .... ....|--- .... ....
....|..|--- .... ....|R-- .... ....|--- .... ....
....|..|F#2 2F.A ....|C-4 2F.A ....|C-4 2F1A ....
....|..|--- .... ....|--- .... ....|--- .... ....
....|..|--- .... ....|A#3 2F.F ....|C-3 2F.A ....
....|..|--- .... ....|--- .... ....|--- .... ....
....|..|--- .... ....|--- .... ....|--- .... ....
....|..|--- .... ....|R-- .... ....|--- .... ....
 F#4|..|F#2 2A.F ....|C-4 2F.F ....|C-4 2F1F ....
....|..|--- .... ....|--- .... ....|--- .... ....
....|..|--- .... ....|A#3 2F.A ....|C-3 2F.F ....
....|..|--- .... ....|--- .... ....|--- .... ....
....|..|--- .... ....|--- .... ....|--- .... ....
....|..|--- .... ....|R-- .... ....|--- .... ....
....|..|F#2 2F.A ....|C-4 2F.A ....|C-4 2F1A ....
....|..|--- .... ....|G-3 2F.F ....|--- .... ....
....|..|--- .... ....|A#3 2F.7 ....|C-3 2F.A ....
....|..|--- .... ....|--- .... ....|--- .... ....
....|..|--- .... ....|--- .... ....|--- .... ....
....|..|--- .... ....|R-- .... ....|--- .... ....
 F#4|..|F#2 2A.F ....|C-4 2F.7 ....|C-4 2F1F ....
....|..|--- .... ....|G-3 2F.A ....|--- .... ....

[Pattern10]
....|..|--- .... ....|--- .... ....|C-3 2F.F ....
....|..|--- .... ....|R-- .... ....|C-3 2F.F ....
....|..|--- .... ....|--- .... ....|--- .... ....
....|..|--- .... ....|--- .... ....|--- .... ....
....|..|F#2 2F.A ....|R-- .... ....|C-4 2F1A ....
....|..|--- .... ....|G-3 2F.F ....|--- .... ....
....|..|--- .... ....|--- .... ....|C-3 2F.A ....
....|..|--- .... ....|R-- .... ....|C-3 2F.A ....
....|..|--- .... ....|--- .... ....|--- .... ....
....|..|--- .... ....|D-4 2F.F ....|--- .... ....
 F#4|..|F#2 2A.F ....|--- .... ....|D-4 2F9F ....
....|..|--- .... ....|G-3 2F.A ....|--- .... ....
....|..|--- .... ....|--- .... ....|C-3 2F.F ....
....|..|--- .... ....|R-- .... ....|C-3 2F.7 ....
....|..|--- .... ....|--- .... ....|--- .... ....
....|..|--- .... ....|D-4 2F.A ....|--- .... ....
....|..|F#2 2F.A ....|--- .... ....|D-4 2F9A ....
....|..|--- .... ....|D-4 2F.F ....|--- .... ....
....|..|--- .... ....|--- .... ....|C-3 2F.A ....
....|..|--- .... ....|R-- .... ....|--- .... ....
....|..|--- .... ....|--- .... ....|--- .... ....
....|..|--- .... ....|D-4 2F.7 ....|--- .... ....
 F#4|..|F#2 2A.F ....|--- .... ....|D-4 2F9F ....
....|..|--- .... ....|D-4 2F.A ....|--- .... ....
....|..|--- .... ....|--- .... ....|C-3 2F.F ....
....|..|--- .... ....|R-- .... ....|--- .... ....
....|..|--- .... ....|D-4 2F.F ....|--- .... ....
....|..|--- .... ....|R-- .... ....|--- .... ....
....|..|F#2 2F.A ....|R-- .... ....|D-4 2F9A ....
....|..|--- .... ....|D-4 2F.F ....|--- .... ....
....|..|--- .... ....|--- .... ....|C-3 2F.A ....
....|..|--- .... ....|R-- .... ....|--- .... ....
....|..|--- .... ....|D-4 2F.A ....|--- .... ....
....|..|--- .... ....|D#4 2F.F ....|--- .... ....
 F#4|..|F#2 2A.F ....|F-4 2F.F ....|D#4 2F3F ....
....|..|--- .... ....|D-4 2F.A ....|--- .... ....
....|..|--- .... ....|--- .... ....|C-3 2F.F ....
....|..|--- .... ....|F-4 2F.F ....|--- .... ....
 C-4|..|C-2 2A.F ....|D-4 2F.7 ....|--- .... ....
....|..|--- .... ....|D#4 2F.A ....|--- .... ....
....|..|F#2 2F.A ....|F-4 2F.A ....|D#4 2F3A ....
....|..|--- .... ....|G-4 2F.F ....|--- .... ....
 C-4|..|C-2 2A.F ....|F-4 2F.F ....|C-3 2F.A ....
....|..|--- .... ....|F-4 2F.A ....|--- .... ....
....|..|C-2 2F.A ....|R-- .... ....|--- .... ....
....|..|--- .... ....|D#4 2F.7 ....|C-3 2F.F ....
 F#4|..|F#2 2A.F ....|C-4 2F.F ....|D#4 2FAF ....
....|..|--- .... ....|G-4 2F.A ....|--- .... ....
....|..|C-2 2F.A ....|F-4 2F.A ....|A#4 2F.F ....
....|..|--- .... ....|F-4 2F.7 ....|R-- .... ....
 C-4|..|C-2 2A.F ....|D#4 2F.F ....|G-2 2F.F ....
....|..|--- .... ....|R-- .... ....|C-3 2F.A ....
....|..|F#2 2F.A ....|C-4 2F.A ....|D#4 2FAA ....
....|..|--- .... ....|G-4 2F.7 ....|--- .... ....
 C#4|..|C#6 2C.F ....|F-4 2F.7 ....|F-2 2F.F ....
....|..|--- .... ....|--- .... ....|R-- .... ....
....|..|C-2 2F.A ....|D#4 2F.A ....|G-2 2F.A ....
....|..|--- .... ....|R-- .... ....|C-3 2F.7 ....
 C#4|..|C#6 2C.F ....|G-4 2F.F ....|D#4 2FAF ....
....|..|--- .... ....|R-- .... ....|--- .... ....
....|..|C#6 2F.A ....|--- .... ....|D#2 2F.F ....
....|..|--- .... ....|R-- .... ....|R-- .... ....
....|..|C-2 2F.7 ....|G-4 2F.F ....|G-2 2F.7 ....
....|..|--- .... ....|--- .... ....|R-- .... ....
....|..|C#6 2F.A ....|G-4 2F.A ....|D#4 2FAA ....
....|..|--- .... ....|R-- .... ....|--- .... ....
....|..|C#6 2F.7 ....|G-4 2F.F ....|F-2 2F.7 ....
....|..|--- .... ....|R-- .... ....|R-- .... ....
....|..|--- .... ....|G-4 2F.A ....|--- .... ....
....|..|--- .... ....|--- .... ....|R-- .... ....
 F#4|..|F#2 2A.F ....|G-4 2F.7 ....|D#4 2FAF ....
....|..|--- .... ....|--- .... ....|--- .... ....
....|..|--- .... ....|G-4 2F.A ....|D#2 2F.7 ....
....|..|--- .... ....|R-- .... ....|R-- .... ....
....|..|--- .... ....|G-4 2F.7 ....|--- .... ....
....|..|--- .... ....|R-- .... ....|D#4 2FAF ....
....|..|F#2 2F.A ....|R-- .... ....|D#4 2FAA ....
....|..|--- .... ....|D#4 2F.F ....|--- .... ....
....|..|--- .... ....|G-4 2F.7 ....|D#4 2FAF ....
....|..|--- .... ....|--- .... ....|--- .... ....
....|..|--- .... ....|R-- .... ....|D#3 2F.F ....
....|..|--- .... ....|F-4 2F.F ....|D#4 2FAA ....
 C#4|..|C#6 2C.F ....|--- .... ....|D-4 2FBF ....
....|..|--- .... ....|D#4 2F.A ....|--- .... ....
....|..|--- .... ....|--- .... ....|D-2 2F.F ....
....|..|--- .... ....|R-- .... ....|--- .... ....
....|..|--- .... ....|R-- .... ....|D#3 2F.A ....
....|..|--- .... ....|F-4 2F.A ....|D#4 2FA7 ....
....|..|C#6 2F.A ....|F-4 2F.F ....|D-4 2FBA ....
....|..|--- .... ....|D#4 2F.7 ....|--- .... ....
....|..|--- .... ....|--- .... ....|D#4 2FA7 ....
....|..|--- .... ....|R-- .... ....|--- .... ....
....|..|--- .... ....|R-- .... ....|D#3 2F.7 ....
....|..|--- .... ....|F-4 2F.7 ....|R-- .... ....
 F#4|..|F#2 2A.F ....|F-4 2F.A ....|D-4 2FBF ....
....|..|--- .... ....|--- .... ....|--- .... ....
....|..|--- .... ....|--- .... ....|D-2 2F.7 ....
....|..|--- .... ....|R-- .... ....|--- .... ....
....|..|--- .... ....|--- .... ....|--- .... ....
....|..|--- .... ....|--- .... ....|--- .... ....
....|..|F#2 2F.A ....|F-4 2F.7 ....|D-4 2FBF ....
....|..|--- .... ....|D-4 2F.F ....|--- .... ....
....|..|--- .... ....|--- .... ....|D-4 2FBF ....
....|..|--- .... ....|--- .... ....|G-4 2F.F ....
....|..|--- .... ....|--- .... ....|D-3 2F.F ....
....|..|--- .... ....|R-- .... ....|R-- .... ....
 C#4|..|C#6 2C.F ....|D#4 2F.F ....|G-4 2F1F ....
....|..|--- .... ....|D-4 2F.A ....|--- .... ....
....|..|--- .... ....|--- .... ....|C#2 2F.F ....
....|..|--- .... ....|--- .... ....|G-4 2F.A ....
....|..|--- .... ....|--- .... ....|D-3 2F.A ....
....|..|--- .... ....|R-- .... ....|R-- .... ....
....|..|C#6 2F.A ....|D#4 2F.A ....|D-4 2FB7 ....
....|..|--- .... ....|D#4 2F.F ....|--- .... ....
....|..|--- .... ....|--- .... ....|D-4 2FB7 ....
....|..|--- .... ....|--- .... ....|G-4 2F.7 ....
....|..|--- .... ....|R-- .... ....|D-3 2F.7 ....
....|..|--- .... ....|R-- .... ....|R-- .... ....
 F#4|..|F#2 2A.F ....|D#4 2F.F ....|G-4 2F1F ....
....|..|--- .... ....|D#4 2F.A ....|--- .... ....
....|..|--- .... ....|--- .... ....|C#2 2F.7 ....
....|..|--- .... ....|--- .... ....|R-- .... ....
....|..|--- .... ....|R-- .... ....|--- .... ....
....|..|--- .... ....|R-- .... ....|--- .... ....
....|..|F#2 2F.A ....|D#4 2F.A ....|G-4 2F1A ....
....|..|--- .... ....|D#4 2F.7 ....|C#4 2F.F ....
....|..|--- .... ....|D#4 2F.F ....|C#3 2F.F ....
....|..|--- .... ....|--- .... ....|--- .... ....

[Pattern11]
....|..|--- .... ....|R-- .... ....|--- .... ....
....|..|--- .... ....|R-- .... ....|R-- .... ....
 C#4|..|C#6 2C.F ....|C-4 2F.F ....|C-4 2F8F ....
....|..|R-- .... ....|--- .... ....|C#4 2F.A ....
....|..|--- .... ....|D#4 2F.A ....|G#1 2F.F ....
....|..|--- .... ....|--- .... ....|--- .... ....
....|..|--- .... ....|--- .... ....|--- .... ....
....|..|--- .... ....|R-- .... ....|R-- .... ....
....|..|C#6 2F.A ....|C-4 2F.A ....|C-4 2F8A ....
....|..|R-- .... ....|D#4 2F.F ....|C#4 2F.7 ....
....|..|--- .... ....|D#4 2F.7 ....|C#3 2F.7 ....
....|..|--- .... ....|--- .... ....|--- .... ....
....|..|--- .... ....|--- .... ....|--- .... ....
....|..|--- .... ....|R-- .... ....|R-- .... ....
 F#4|..|F#2 2A.F ....|C-4 2F.7 ....|G#3 2FAF ....
....|..|R-- .... ....|D#4 2F.A ....|--- .... ....
....|..|--- .... ....|--- .... ....|G#1 2F.7 ....
....|..|--- .... ....|--- .... ....|--- .... ....
....|..|--- .... ....|--- .... ....|--- .... ....
....|..|--- .... ....|R-- .... ....|--- .... ....
....|..|F#2 2F.A ....|R-- .... ....|G#3 2FAA ....
....|..|--- .... ....|D#4 2F.7 ....|--- .... ....
 C#4|..|C#6 2C.F ....|D#4 2F.F ....|G#3 2FAF ....
....|..|--- .... ....|--- .... ....|G#2 2F.F ....
....|..|--- .... ....|--- .... ....|--- .... ....
....|..|--- .... ....|R-- .... ....|R-- .... ....
 C#4|..|C#6 2C.F ....|B-3 2F.F ....|G#3 2F6F ....
....|..|--- .... ....|--- .... ....|--- .... ....
....|..|C#6 2F.A ....|D#4 2F.A ....|G#1 2F.F ....
....|..|--- .... ....|D#4 2F.F ....|G#2 2F.A ....
....|..|--- .... ....|--- .... ....|--- .... ....
....|..|--- .... ....|R-- .... ....|R-- .... ....
....|..|C#6 2F.A ....|B-3 2F.A ....|G#3 2F6A ....
....|..|--- .... ....|B-3 2F.F ....|--- .... ....
....|..|C#6 2F.7 ....|D#4 2F.7 ....|G#3 2FA7 ....
....|..|--- .... ....|D#4 2F.A ....|G#2 2F.7 ....
....|..|--- .... ....|--- .... ....|--- .... ....
....|..|--- .... ....|R-- .... ....|R-- .... ....
 C#4|..|C#6 2C.F ....|B-3 2F.F ....|G#3 2F6F ....
....|..|--- .... ....|B-3 2F.A ....|--- .... ....
....|..|--- .... ....|--- .... ....|G#1 2F.7 ....
....|..|--- .... ....|D#4 2F.7 ....|R-- .... ....
....|..|--- .... ....|R-- .... ....|--- .... ....
....|..|--- .... ....|R-- .... ....|--- .... ....
....|..|C#6 2F.A ....|B-3 2F.A ....|G#3 2F6A ....
....|..|--- .... ....|B-3 2F.7 ....|G#3 2F6F ....
....|..|--- .... ....|B-3 2F.F ....|G#3 2F1F ....
....|..|--- .... ....|--- .... ....|G#2 2F.F ....
....|..|--- .... ....|R-- .... ....|R-- .... ....
....|..|--- .... ....|R-- .... ....|R-- .... ....
 C#4|..|C#6 2C.F ....|A#3 2F2F ....|G-3 2F8F ....
....|..|--- .... ....|A#3 2F.F ....|G#3 2F6A ....
....|..|--- .... ....|B-3 2F.A ....|A#1 2F.F ....
....|..|--- .... ....|--- .... ....|G#2 2F.A ....
....|..|--- .... ....|R-- .... ....|R-- .... ....
....|..|--- .... ....|R-- .... ....|R-- .... ....
....|..|C#6 2F.A ....|A#3 2F2A ....|G-3 2F8A ....
....|..|--- .... ....|A#3 2F.A ....|G#3 2F67 ....
....|..|--- .... ....|A#3 2F.F ....|G#3 2F17 ....
....|..|--- .... ....|--- .... ....|G#2 2F.7 ....
....|..|--- .... ....|--- .... ....|R-- .... ....
....|..|--- .... ....|R-- .... ....|R-- .... ....
 C#4|..|C#6 2C.F ....|A#3 2F.F ....|G-3 2F8F ....
....|..|--- .... ....|A#3 2F.7 ....|--- .... ....
....|..|--- .... ....|A#3 2F.A ....|A#1 2F.7 ....
....|..|--- .... ....|--- .... ....|--- .... ....
....|..|--- .... ....|R-- .... ....|--- .... ....
....|..|--- .... ....|R-- .... ....|--- .... ....
....|..|C#6 2F.A ....|A#3 2F.A ....|G-3 2F8A ....
....|..|--- .... ....|A#3 2F.F ....|A#3 2F5F ....
....|..|--- .... ....|A#3 2F.7 ....|A#3 2F5F ....
....|..|--- .... ....|--- .... ....|F-2 2F.F ....
....|..|--- .... ....|R-- .... ....|F-2 2F.F ....
....|..|--- .... ....|A#3 2F.F ....|R-- .... ....
 C#4|..|C#6 2C.F ....|A#3 2F.7 ....|G#3 2FAF ....
....|..|--- .... ....|A#3 2F.A ....|A#3 2F5A ....
....|..|--- .... ....|--- .... ....|A#2 2F.F ....
....|..|--- .... ....|R-- .... ....|F-2 2F.A ....
....|..|--- .... ....|R-- .... ....|F-2 2F.A ....
....|..|--- .... ....|A#3 2F.A ....|R-- .... ....
....|..|C#6 2F.A ....|--- .... ....|G#3 2FAA ....
....|..|--- .... ....|A#3 2F.F ....|A#3 2F57 ....
 C-4|..|C-2 2A.F ....|--- .... ....|A#3 2F57 ....
....|..|--- .... ....|R-- .... ....|F-2 2F.7 ....
....|..|--- .... ....|R-- .... ....|F-2 2F.7 ....
....|..|--- .... ....|A#3 2F.7 ....|R-- .... ....
 C#4|..|C#6 2C.F ....|A#3 2F.F ....|G#3 2FAF ....
....|..|--- .... ....|A#3 2F.A ....|--- .... ....
....|..|C-2 2F.A ....|--- .... ....|A#2 2F.7 ....
....|..|--- .... ....|R-- .... ....|--- .... ....
....|..|--- .... ....|R-- .... ....|--- .... ....
....|..|--- .... ....|--- .... ....|--- .... ....
....|..|C#6 2F.A ....|A#3 2F.A ....|C-4 2F1F ....
....|..|--- .... ....|G-4 2F.F ....|C-4 2F1F ....
....|..|C-2 2F.7 ....|--- .... ....|F-2 2F.F ....
....|..|--- .... ....|R-- .... ....|--- .... ....
....|..|--- .... ....|R-- .... ....|--- .... ....
....|..|--- .... ....|--- .... ....|R-- .... ....
 C#4|..|C#6 2C.F ....|A#3 2F.7 ....|D-4 2F1F ....
....|..|--- .... ....|G-4 2F.A ....|C-4 2F1A ....
....|..|--- .... ....|--- .... ....|F-2 2F.A ....
....|..|--- .... ....|R-- .... ....|--- .... ....
....|..|--- .... ....|--- .... ....|--- .... ....
....|..|--- .... ....|--- .... ....|R-- .... ....
....|..|C#6 2F.A ....|--- .... ....|C-4 2F17 ....
....|..|--- .... ....|G-4 2F.7 ....|C-4 2F17 ....
....|..|--- .... ....|--- .... ....|F-2 2F.7 ....
....|..|--- .... ....|--- .... ....|--- .... ....
....|..|--- .... ....|--- .... ....|--- .... ....
....|..|--- .... ....|--- .... ....|R-- .... ....
....|..|C#6 2F.7 ....|--- .... ....|D-4 2F17 ....
....|..|--- .... ....|--- .... ....|--- .... ....
....|..|--- .... ....|--- .... ....|--- .... ....
....|..|--- .... ....|--- .... ....|--- .... ....
....|..|--- .... ....|--- .... ....|--- .... ....
....|..|--- .... ....|--- .... ....|--- .... ....
....|..|--- .... ....|--- .... ....|--- .... ....
....|..|--- .... ....|--- .... ....|--- .... ....
....|..|--- .... ....|--- .... ....|--- .... ....
....|..|--- .... ....|--- .... ....|--- .... ....
....|..|--- .... ....|R-- .... ....|--- .... ....
....|..|--- .... ....|--- .... ....|--- .... ....
....|..|--- .... ....|G-4 2F.F ....|--- .... ....
....|..|--- .... ....|--- .... ....|--- .... ....
....|..|--- .... ....|--- .... ....|--- .... ....
....|..|--- .... ....|--- .... ....|--- .... ....
....|..|--- .... ....|R-- .... ....|--- .... ....
....|..|--- .... ....|R-- .... ....|--- .... ....

[Pattern12]
....|..|--- .... ....|G-4 2F.A ....|--- .... ....
....|..|--- .... ....|G-4 2F.F ....|--- .... ....
....|..|--- .... ....|--- .... ....|--- .... ....
....|..|--- .... ....|--- .... ....|--- .... ....
....|..|--- .... ....|R-- .... ....|--- .... ....
....|..|--- .... ....|R-- .... ....|--- .... ....
....|..|--- .... ....|G-4 2F.7 ....|--- .... ....
....|..|--- .... ....|G-4 2F.A ....|--- .... ....
....|..|--- .... ....|--- .... ....|--- .... ....
....|..|--- .... ....|--- .... ....|--- .... ....
....|..|--- .... ....|G-4 2F.F ....|--- .... ....
....|..|--- .... ....|R-- .... ....|--- .... ....
....|..|--- .... ....|--- .... ....|D-4 2F1F ....
....|..|--- .... ....|G-4 2F.7 ....|R-- .... ....
....|..|--- .... ....|R-- .... ....|R-- .... ....
....|..|--- .... ....|--- .... ....|--- .... ....
....|..|--- .... ....|G-4 2F.A ....|--- .... ....
....|..|--- .... ....|G-4 2F.F ....|--- .... ....
 C#4|..|C#6 2C.F ....|--- .... ....|G-3 2FAF ....
....|..|--- .... ....|R-- .... ....|R-- .... ....
....|..|--- .... ....|R-- .... ....|G-1 2F.F ....
....|..|--- .... ....|--- .... ....|--- .... ....
....|..|--- .... ....|G-4 2F.7 ....|--- .... ....
....|..|--- .... ....|G-4 2F.A ....|--- .... ....
....|..|C#6 2F.A ....|R-- .... ....|D-4 2F17 ....
....|..|--- .... ....|G-4 2F.F ....|R-- .... ....
....|..|--- .... ....|R-- .... ....|G-1 2F.A ....
....|..|--- .... ....|--- .... ....|--- .... ....
....|..|--- .... ....|R-- .... ....|--- .... ....
....|..|--- .... ....|G-4 2F.7 ....|--- .... ....
 F#4|..|F#2 2A.F ....|G-4 2F.F ....|G-3 2FAF ....
....|..|--- .... ....|G-4 2F.A ....|B-3 2FFF ....
....|..|--- .... ....|--- .... ....|G-1 2F.7 ....
....|..|--- .... ....|--- .... ....|--- .... ....
....|..|--- .... ....|R-- .... ....|--- .... ....
....|..|--- .... ....|--- .... ....|--- .... ....
....|..|F#2 2F.A ....|G-4 2F.A ....|G-3 2FAA ....
....|..|--- .... ....|G-4 2F.7 ....|B-3 2FFA ....
 C#4|..|C#6 2C.F ....|G-4 2F.F ....|G-1 2F.F ....
....|..|--- .... ....|--- .... ....|--- .... ....
....|..|--- .... ....|R-- .... ....|--- .... ....
....|..|--- .... ....|--- .... ....|--- .... ....
 C#4|..|C#6 2C.F ....|G-4 2F.7 ....|G-3 2FBF ....
....|..|--- .... ....|D#4 2F.F ....|C-4 2F1F ....
....|..|C#6 2F.A ....|G-4 2F.A ....|C-2 2F.F ....
....|..|--- .... ....|--- .... ....|--- .... ....
....|..|--- .... ....|--- .... ....|--- .... ....
....|..|--- .... ....|C-4 2F.F ....|--- .... ....
....|..|C#6 2F.A ....|R-- .... ....|G-3 2FBA ....
....|..|--- .... ....|D#4 2F.A ....|C-4 2F1A ....
 C-4|..|C-2 2A.F ....|G-4 2F.7 ....|G-1 2F.7 ....
....|..|--- .... ....|--- .... ....|--- .... ....
....|..|--- .... ....|R-- .... ....|--- .... ....
....|..|--- .... ....|C-4 2F.A ....|--- .... ....
 F#4|..|F#2 2A.F ....|R-- .... ....|G-3 2FBF ....
....|..|--- .... ....|D#4 2F.7 ....|C-4 2F17 ....
....|..|C-2 2F.A ....|--- .... ....|C-2 2F.F ....
....|..|--- .... ....|--- .... ....|R-- .... ....
....|..|--- .... ....|R-- .... ....|--- .... ....
....|..|--- .... ....|C-4 2F.7 ....|--- .... ....
....|..|F#2 2F.A ....|--- .... ....|G-3 2FBA ....
....|..|--- .... ....|G-3 2F.F ....|--- .... ....
 C#4|..|C#6 2C.F ....|--- .... ....|C-2 2F.F ....
....|..|--- .... ....|--- .... ....|R-- .... ....
....|..|--- .... ....|R-- .... ....|--- .... ....
....|..|--- .... ....|R-- .... ....|--- .... ....
 C#4|..|C#6 2C.F ....|A#3 2F.F ....|F-3 2FEF ....
....|..|--- .... ....|G-3 2F.A ....|--- .... ....
....|..|C#6 2F.A ....|--- .... ....|A#1 2F.F ....
....|..|--- .... ....|--- .... ....|R-- .... ....
....|..|--- .... ....|R-- .... ....|--- .... ....
....|..|--- .... ....|R-- .... ....|--- .... ....
....|..|C#6 2F.A ....|A#3 2F.A ....|F-3 2FEA ....
....|..|--- .... ....|A#3 2F.F ....|--- .... ....
....|..|C#6 2F.7 ....|--- .... ....|C-2 2F.7 ....
....|..|--- .... ....|--- .... ....|--- .... ....
....|..|--- .... ....|R-- .... ....|--- .... ....
....|..|--- .... ....|R-- .... ....|--- .... ....
 F#4|..|F#2 2A.F ....|A#3 2F.7 ....|F-3 2FEF ....
....|..|--- .... ....|A#3 2F.A ....|--- .... ....
....|..|--- .... ....|R-- .... ....|A#1 2F.F ....
....|..|--- .... ....|--- .... ....|--- .... ....
....|..|--- .... ....|A#3 2F.F ....|R-- .... ....
....|..|--- .... ....|--- .... ....|--- .... ....
....|..|F#2 2F.A ....|--- .... ....|F-3 2FEA ....
....|..|--- .... ....|A#3 2F.7 ....|--- .... ....
 C#4|..|C#6 2C.F ....|G#3 2F.F ....|A#1 2F.F ....
....|..|--- .... ....|--- .... ....|--- .... ....
....|..|--- .... ....|A#3 2F.A ....|R-- .... ....
....|..|--- .... ....|R-- .... ....|--- .... ....
 C#4|..|C#6 2C.F ....|G-3 2F.F ....|G-3 2F8F ....
....|..|--- .... ....|R-- .... ....|--- .... ....
....|..|C#6 2F.A ....|G#3 2F.A ....|D#2 2F.F ....
....|..|--- .... ....|--- .... ....|--- .... ....
....|..|--- .... ....|A#3 2F.7 ....|R-- .... ....
....|..|--- .... ....|R-- .... ....|--- .... ....
....|..|C#6 2F.A ....|D#4 2F.F ....|G-3 2F8A ....
....|..|--- .... ....|R-- .... ....|--- .... ....
 C-4|..|C-2 2A.F ....|G#3 2F.7 ....|A#1 2F.7 ....
....|..|--- .... ....|--- .... ....|--- .... ....
....|..|--- .... ....|--- .... ....|--- .... ....
....|..|--- .... ....|R-- .... ....|--- .... ....
 F#4|..|F#2 2A.F ....|G-3 2F.7 ....|G-3 2F8F ....
....|..|--- .... ....|--- .... ....|--- .... ....
....|..|C-2 2F.A ....|--- .... ....|D#2 2F.7 ....
....|..|--- .... ....|--- .... ....|--- .... ....
....|..|--- .... ....|--- .... ....|--- .... ....
....|..|--- .... ....|R-- .... ....|--- .... ....
....|..|F#2 2F.A ....|D#4 2F.7 ....|G-3 2F8A ....
....|..|--- .... ....|--- .... ....|--- .... ....
 C#4|..|C#6 2C.F ....|G-3 2F.F ....|D#2 2F.F ....
....|..|--- .... ....|--- .... ....|--- .... ....
....|..|--- .... ....|--- .... ....|--- .... ....
....|..|--- .... ....|R-- .... ....|--- .... ....
 C#4|..|C#6 2C.F ....|A-4 2F.F ....|A-3 2F7F ....
....|..|--- .... ....|A-4 2F.F ....|A-3 2F1F ....
....|..|C#6 2F.A ....|G-3 2F.A ....|D-2 2F.F ....
....|..|--- .... ....|--- .... ....|--- .... ....
....|..|--- .... ....|G-3 2F.F ....|--- .... ....
....|..|--- .... ....|R-- .... ....|--- .... ....
....|..|C#6 2F.A ....|A-4 2F.A ....|A-3 2F7A ....
....|..|--- .... ....|G-3 2F.F ....|A-3 2F1A ....
....|..|C#6 2F.7 ....|G-3 2F.7 ....|D#2 2F.7 ....
....|..|--- .... ....|R-- .... ....|--- .... ....
....|..|--- .... ....|G-3 2F.A ....|--- .... ....
....|..|--- .... ....|--- .... ....|--- .... ....
 F#4|..|F#2 2A.F ....|G-3 2F.F ....|A-3 2F7F ....
....|..|--- .... ....|A-4 2F.7 ....|A-3 2FEF ....

[Pattern13]
....|..|--- .... ....|--- .... ....|D-2 2F.7 ....
....|..|--- .... ....|R-- .... ....|--- .... ....
....|..|--- .... ....|G-3 2F.7 ....|--- .... ....
....|..|--- .... ....|--- .... ....|--- .... ....
....|..|F#2 2F.A ....|G-3 2F.A ....|A-3 2F7A ....
....|..|--- .... ....|G-3 2F.7 ....|A-3 2FEA ....
 C#4|..|C#6 2C.F ....|G-3 2F.F ....|D-2 2F.F ....
....|..|--- .... ....|R-- .... ....|--- .... ....
....|..|--- .... ....|R-- .... ....|--- .... ....
....|..|--- .... ....|--- .... ....|--- .... ....
 C#4|..|C#6 2C.F ....|G-3 2F.F ....|A#3 2F3F ....
....|..|--- .... ....|--- .... ....|A#3 2FDF ....
....|..|C#6 2F.A ....|G-3 2F.A ....|D-2 2F.A ....
....|..|--- .... ....|A#4 2F.F ....|--- .... ....
....|..|--- .... ....|R-- .... ....|--- .... ....
....|..|--- .... ....|--- .... ....|--- .... ....
....|..|C#6 2F.A ....|G-3 2F.A ....|G-2 2F.F ....
....|..|--- .... ....|--- .... ....|A#3 2FDA ....
 C-4|..|C-2 2A.F ....|G-3 2F.7 ....|D-2 2F.7 ....
....|..|--- .... ....|A#4 2F.A ....|--- .... ....
....|..|--- .... ....|R-- .... ....|--- .... ....
....|..|--- .... ....|C-4 2F.F ....|--- .... ....
 F#4|..|F#2 2A.F ....|G-3 2F.7 ....|A-3 2F8F ....
....|..|--- .... ....|--- .... ....|A#3 2FD7 ....
....|..|C-2 2F.A ....|R-- .... ....|--- .... ....
....|..|--- .... ....|A#4 2F.7 ....|--- .... ....
....|..|--- .... ....|R-- .... ....|F-2 2F.F ....
....|..|--- .... ....|C-4 2F.A ....|--- .... ....
....|..|F#2 2F.A ....|--- .... ....|G-2 2F.7 ....
....|..|--- .... ....|--- .... ....|R-- .... ....
....|..|C-2 2F.7 ....|C-4 2F.F ....|--- .... ....
....|..|--- .... ....|--- .... ....|--- .... ....
....|..|--- .... ....|R-- .... ....|F-2 2F.A ....
....|..|--- .... ....|C-4 2F.7 ....|--- .... ....
 F#4|..|F#2 2A.F ....|D-4 2F.F ....|F-3 2FEF ....
....|..|--- .... ....|--- .... ....|--- .... ....
....|..|--- .... ....|C-4 2F.A ....|A#1 2F.F ....
....|..|--- .... ....|--- .... ....|--- .... ....
....|..|--- .... ....|D-4 2F1F ....|F-2 2F.7 ....
....|..|--- .... ....|R-- .... ....|--- .... ....
....|..|F#2 2F.A ....|F-4 2F.F ....|F-3 2FEA ....
....|..|--- .... ....|--- .... ....|--- .... ....
....|..|--- .... ....|C-4 2F.7 ....|A#1 2F.A ....
....|..|--- .... ....|--- .... ....|--- .... ....
....|..|--- .... ....|D-4 2F1A ....|--- .... ....
....|..|--- .... ....|R-- .... ....|--- .... ....
 C#4|..|C#6 2C.F ....|D-4 2F.7 ....|F-3 2FEF ....
....|..|--- .... ....|--- .... ....|--- .... ....
....|..|--- .... ....|--- .... ....|D-4 2F.F ....
....|..|--- .... ....|--- .... ....|R-- .... ....
....|..|--- .... ....|D-4 2F17 ....|--- .... ....
....|..|--- .... ....|R-- .... ....|--- .... ....
....|..|C#6 2F.A ....|F-4 2F.7 ....|F-3 2FEA ....
....|..|--- .... ....|--- .... ....|--- .... ....
 C#4|..|C#6 2C.F ....|--- .... ....|A#2 2F.F ....
....|..|--- .... ....|--- .... ....|R-- .... ....
....|..|--- .... ....|--- .... ....|--- .... ....
....|..|--- .... ....|R-- .... ....|R-- .... ....
 C#4|..|C#6 2C.F ....|D-4 2F.F ....|A-3 2FBF ....
....|..|R-- .... ....|--- .... ....|--- .... ....
....|..|C#6 2F.A ....|--- .... ....|A-3 2F.F ....
....|..|--- .... ....|--- .... ....|D-2 2F.F ....
....|..|--- .... ....|--- .... ....|--- .... ....
....|..|--- .... ....|R-- .... ....|R-- .... ....
....|..|C#6 2F.A ....|D-4 2F.A ....|A-3 2FBA ....
....|..|R-- .... ....|--- .... ....|--- .... ....
....|..|C#6 2F.7 ....|--- .... ....|A#2 2F.7 ....
....|..|--- .... ....|--- .... ....|D-2 2F.A ....
....|..|--- .... ....|--- .... ....|--- .... ....
....|..|--- .... ....|--- .... ....|R-- .... ....
 F#4|..|F#2 2A.F ....|D-4 2F1F ....|A-3 2FBF ....
....|..|R-- .... ....|F-4 2F.F ....|--- .... ....
....|..|--- .... ....|--- .... ....|F-4 2F.F ....
....|..|--- .... ....|--- .... ....|D-2 2F.F ....
....|..|--- .... ....|--- .... ....|R-- .... ....
....|..|--- .... ....|--- .... ....|--- .... ....
....|..|F#2 2F.A ....|D-4 2F1A ....|A-3 2FBA ....
....|..|--- .... ....|F-4 2F.A ....|--- .... ....
....|..|--- .... ....|--- .... ....|D-2 2F.F ....
....|..|--- .... ....|--- .... ....|D-2 2F.A ....
....|..|--- .... ....|--- .... ....|R-- .... ....
....|..|--- .... ....|R-- .... ....|--- .... ....
 F#4|..|F#2 2A.F ....|A#4 2F.F ....|D-4 2FBF ....
....|..|--- .... ....|F-4 2F.7 ....|--- .... ....
....|..|--- .... ....|--- .... ....|G-2 2F.F ....
....|..|--- .... ....|--- .... ....|D-2 2F.7 ....
....|..|--- .... ....|--- .... ....|R-- .... ....
....|..|--- .... ....|R-- .... ....|--- .... ....
....|..|F#2 2F.A ....|A#4 2F.A ....|D-4 2FBA ....
....|..|--- .... ....|--- .... ....|--- .... ....
....|..|--- .... ....|A#4 2F.F ....|D-2 2F.7 ....
....|..|--- .... ....|--- .... ....|--- .... ....
....|..|--- .... ....|--- .... ....|--- .... ....
....|..|--- .... ....|R-- .... ....|--- .... ....
 F#4|..|F#2 2A.F ....|A#4 2F.7 ....|D-4 2FBF ....
....|..|--- .... ....|--- .... ....|--- .... ....
....|..|--- .... ....|A#4 2F.A ....|G-2 2F.F ....
....|..|--- .... ....|--- .... ....|R-- .... ....
....|..|--- .... ....|--- .... ....|--- .... ....
....|..|--- .... ....|--- .... ....|--- .... ....
....|..|F#2 2F.A ....|R-- .... ....|D-4 2FBA ....
....|..|--- .... ....|A-4 2F.F ....|--- .... ....
 C#4|..|C#6 2C.F ....|A#4 2F.7 ....|F-2 2F.F ....
....|..|--- .... ....|--- .... ....|R-- .... ....
....|..|--- .... ....|--- .... ....|--- .... ....
....|..|--- .... ....|R-- .... ....|--- .... ....
 C#4|..|C#6 2C.F ....|F-4 2F.F ....|D-4 2F6F ....
....|..|--- .... ....|A-4 2F.A ....|--- .... ....
....|..|C#6 2F.A ....|--- .... ....|D-2 2F.F ....
....|..|--- .... ....|D-4 2F1F ....|R-- .... ....
....|..|--- .... ....|D-4 2F.F ....|--- .... ....
....|..|--- .... ....|R-- .... ....|--- .... ....
....|..|C#6 2F.A ....|F-4 2F.A ....|D-4 2F6A ....
....|..|--- .... ....|F-4 2F.F ....|--- .... ....
 C-4|..|C-2 2A.F ....|--- .... ....|F-2 2F.7 ....
....|..|--- .... ....|D-4 2F1A ....|--- .... ....
....|..|--- .... ....|D-4 2F.A ....|--- .... ....
....|..|--- .... ....|R-- .... ....|--- .... ....
 F#4|..|F#2 2A.F ....|F-4 2F.7 ....|D-4 2F6F ....
....|..|--- .... ....|F-4 2F.A ....|--- .... ....
....|..|C-2 2F.A ....|--- .... ....|F-4 2F3F ....
....|..|--- .... ....|D-4 2F17 ....|D-2 2F.F ....
....|..|--- .... ....|D-4 2F.7 ....|R-- .... ....
....|..|--- .... ....|--- .... ....|--- .... ....
....|..|F#2 2F.A ....|--- .... ....|D-4 2F6A ....
....|..|--- .... ....|F-4 2F.7 ....|--- .... ....
 C#4|..|C#6 2C.F ....|R-- .... ....|F-2 2F.F ....
....|..|--- .... ....|--- .... ....|D-2 2F.A ....

[Pattern14]
....|..|--- .... ....|--- .... ....|R-- .... ....
....|..|--- .... ....|--- .... ....|--- .... ....
 C#4|..|C#6 2C.F ....|A#4 2F.F ....|D-4 2FBF ....
....|..|--- .... ....|--- .... ....|--- .... ....
....|..|C#6 2F.A ....|R-- .... ....|G-2 2F.F ....
....|..|--- .... ....|R-- .... ....|D-2 2F.7 ....
....|..|--- .... ....|A#4 2F.F ....|R-- .... ....
....|..|--- .... ....|--- .... ....|--- .... ....
....|..|C#6 2F.A ....|A#4 2F.A ....|D-4 2FBA ....
....|..|--- .... ....|R-- .... ....|--- .... ....
....|..|C#6 2F.7 ....|A#4 2F.F ....|F-2 2F.7 ....
....|..|--- .... ....|R-- .... ....|--- .... ....
....|..|--- .... ....|A#4 2F.A ....|--- .... ....
....|..|--- .... ....|--- .... ....|--- .... ....
 F#4|..|F#2 2A.F ....|A#4 2F.7 ....|D-4 2FBF ....
....|..|--- .... ....|R-- .... ....|--- .... ....
....|..|--- .... ....|A#4 2F.A ....|G-2 2F.F ....
....|..|--- .... ....|R-- .... ....|--- .... ....
....|..|--- .... ....|A-4 2F.F ....|--- .... ....
....|..|--- .... ....|--- .... ....|--- .... ....
....|..|F#2 2F.A ....|R-- .... ....|D-4 2FBA ....
....|..|--- .... ....|R-- .... ....|R-- .... ....
 C#4|..|C#6 2C.F ....|A-4 2F.F ....|F-2 2F.F ....
....|..|--- .... ....|--- .... ....|--- .... ....
....|..|--- .... ....|A-4 2F.A ....|--- .... ....
....|..|--- .... ....|--- .... ....|--- .... ....
 C#4|..|C#6 2C.F ....|G-4 2F.F ....|C#4 2F1F ....
....|..|--- .... ....|--- .... ....|C#4 2F1F ....
....|..|C#6 2F.A ....|A-4 2F.A ....|G-2 2F.7 ....
....|..|--- .... ....|--- .... ....|C#4 2F.F ....
....|..|--- .... ....|E-4 2F.F ....|A-3 2F.F ....
....|..|--- .... ....|--- .... ....|A-3 2F.F ....
....|..|C#6 2F.A ....|G-4 2F.A ....|C#4 2F1A ....
....|..|--- .... ....|E-4 2F2F ....|C#4 2F1A ....
....|..|C#6 2F.7 ....|F-4 2F.F ....|A-3 2FBF ....
....|..|--- .... ....|--- .... ....|C#4 2F.A ....
....|..|--- .... ....|E-4 2F.A ....|A-3 2F.A ....
....|..|--- .... ....|--- .... ....|A-3 2F.A ....
 C#4|..|C#6 2C.F ....|G-4 2F.7 ....|A-3 2FBF ....
....|..|--- .... ....|E-4 2F2A ....|C#4 2F17 ....
....|..|--- .... ....|F-4 2F.A ....|A-3 2FBA ....
....|..|--- .... ....|--- .... ....|C#4 2F.7 ....
....|..|--- .... ....|E-4 2F.7 ....|A-3 2F.7 ....
....|..|--- .... ....|--- .... ....|A-3 2F.7 ....
....|..|C#6 2F.A ....|--- .... ....|A-3 2FBA ....
....|..|--- .... ....|E-4 2F27 ....|--- .... ....
 C#4|..|C#6 2C.F ....|F-4 2F.7 ....|A-3 2FBF ....
....|..|--- .... ....|--- .... ....|D-4 2F.F ....
....|..|--- .... ....|--- .... ....|--- .... ....
....|..|--- .... ....|--- .... ....|R-- .... ....
 C#4|..|C#6 2C.F ....|G-4 2F.F ....|G-3 2F3F ....
....|..|--- .... ....|--- .... ....|--- .... ....
....|..|C#6 2F.A ....|R-- .... ....|G-2 2F.F ....
....|..|--- .... ....|A-4 2F.F ....|G-2 2F.F ....
....|..|--- .... ....|--- .... ....|--- .... ....
....|..|--- .... ....|--- .... ....|G-1 2F.F ....
....|..|C#6 2F.A ....|G-4 2F.A ....|G-3 2F3A ....
....|..|--- .... ....|R-- .... ....|--- .... ....
....|..|C#6 2F.7 ....|G-4 2F.F ....|A-3 2FB7 ....
....|..|--- .... ....|A-4 2F.A ....|D-4 2F.7 ....
....|..|--- .... ....|--- .... ....|--- .... ....
....|..|--- .... ....|--- .... ....|G-1 2F.A ....
 C#4|..|C#6 2C.F ....|G-4 2F.7 ....|A-3 2F1F ....
....|..|--- .... ....|R-- .... ....|--- .... ....
....|..|--- .... ....|G-4 2F.A ....|C-4 2F5F ....
....|..|--- .... ....|A-4 2F.7 ....|A-2 2F.F ....
....|..|--- .... ....|R-- .... ....|--- .... ....
....|..|--- .... ....|--- .... ....|A-2 2F.F ....
....|..|C#6 2F.A ....|G-4 2F.F ....|A-3 2F1A ....
....|..|--- .... ....|R-- .... ....|--- .... ....
....|..|--- .... ....|G-4 2F.7 ....|C-4 2F5A ....
....|..|--- .... ....|--- .... ....|A-2 2F.A ....
....|..|--- .... ....|R-- .... ....|--- .... ....
....|..|--- .... ....|--- .... ....|A-2 2F.A ....
 C#4|..|C#6 2C.F ....|E-4 2F.F ....|B-3 2F1F ....
....|..|--- .... ....|--- .... ....|--- .... ....
....|..|--- .... ....|R-- .... ....|B-2 2F.F ....
....|..|--- .... ....|--- .... ....|A-2 2F.7 ....
....|..|--- .... ....|R-- .... ....|--- .... ....
....|..|--- .... ....|--- .... ....|A-2 2F.7 ....
....|..|C#6 2F.A ....|G-4 2F.7 ....|B-3 2F1A ....
....|..|--- .... ....|R-- .... ....|--- .... ....
....|..|--- .... ....|E-4 2F.F ....|B-2 2F.A ....
....|..|--- .... ....|--- .... ....|--- .... ....
....|..|--- .... ....|R-- .... ....|--- .... ....
....|..|--- .... ....|--- .... ....|R-- .... ....
 C#4|..|C#6 2C.F ....|D-4 2F.F ....|G-3 2F5F ....
....|..|--- .... ....|R-- .... ....|--- .... ....
....|..|--- .... ....|E-4 2F.A ....|B-2 2F.7 ....
....|..|--- .... ....|--- .... ....|--- .... ....
....|..|--- .... ....|R-- .... ....|--- .... ....
....|..|--- .... ....|--- .... ....|R-- .... ....
....|..|C#6 2F.A ....|D-4 2F.A ....|G-3 2F5A ....
....|..|--- .... ....|R-- .... ....|--- .... ....
 D-4|..|D-2 2A.F ....|E-4 2F.7 ....|--- .... ....
 D-4|..|D-2 2A.F ....|--- .... ....|--- .... ....
....|..|--- .... ....|R-- .... ....|--- .... ....
 D-4|..|D-2 2A.F ....|--- .... ....|--- .... ....
 C#4|..|C#6 2C.F ....|D-4 2F.7 ....|G-3 2F57 ....
....|..|--- .... ....|--- .... ....|--- .... ....
....|..|D-2 2F.A ....|--- .... ....|G-3 2F5F ....
....|..|D-2 2F.A ....|--- .... ....|R-- .... ....
....|..|--- .... ....|--- .... ....|--- .... ....
....|..|D-2 2F.A ....|--- .... ....|--- .... ....
....|..|C#6 2F.A ....|--- .... ....|--- .... ....
....|..|--- .... ....|--- .... ....|--- .... ....
 C#4|..|C#3 2C.F ....|R-- .... ....|F-3 2F5F ....
....|..|D-2 2F.7 ....|--- .... ....|R-- .... ....
....|..|--- .... ....|--- .... ....|--- .... ....
....|..|D-2 2F.7 ....|--- .... ....|--- .... ....
....|..|C#6 2F.7 ....|--- .... ....|--- .... ....
....|..|--- .... ....|--- .... ....|--- .... ....
....|..|C#3 2F.A ....|R-- .... ....|G-3 2F57 ....
....|..|--- .... ....|--- .... ....|R-- .... ....
....|..|--- .... ....|--- .... ....|--- .... ....
....|..|--- .... ....|--- .... ....|--- .... ....
....|..|--- .... ....|--- .... ....|--- .... ....
....|..|--- .... ....|--- .... ....|--- .... ....
....|..|C#3 2F.7 ....|R-- .... ....|F-3 2F57 ....
....|..|--- .... ....|--- .... ....|--- .... ....
....|..|--- .... ....|--- .... ....|--- .... ....
....|..|--- .... ....|--- .... ....|--- .... ....
....|..|--- .... ....|--- .... ....|--- .... ....
....|..|--- .... ....|--- .... ....|--- .... ....
....|..|--- .... ....|--- .... ....|--- .... ....
....|..|--- .... ....|--- .... ....|--- .... ....
....|..|--- .... ....|--- .... ....|A#2 2F.F ....
....|..|--- .... ....|--- .... ....|A#2 2F.F ....

[Pattern15]
....|..|--- .... ....|--- .... ....|--- .... ....
....|..|--- .... ....|--- .... ....|--- .... ....
....|..|--- .... ....|--- .... ....|A#2 2F.F ....
....|..|--- .... ....|--- .... ....|--- .... ....
....|..|--- .... ....|--- .... ....|A#2 2F.A ....
....|..|--- .... ....|--- .... ....|A#2 2F.A ....
....|..|--- .... ....|--- .... ....|A#2 2F.F ....
....|..|--- .... ....|--- .... ....|--- .... ....
....|..|--- .... ....|--- .... ....|A#2 2F.A ....
....|..|--- .... ....|--- .... ....|--- .... ....
....|..|--- .... ....|--- .... ....|A#3 2F3F ....
....|..|--- .... ....|--- .... ....|A#2 2F.F ....
....|..|--- .... ....|--- .... ....|A#2 2F.A ....
....|..|--- .... ....|--- .... ....|--- .... ....
....|..|--- .... ....|--- .... ....|A#2 2F.F ....
....|..|--- .... ....|--- .... ....|--- .... ....
....|..|--- .... ....|--- .... ....|A#2 2F.F ....
....|..|--- .... ....|--- .... ....|A#2 2F.A ....
 C#4|..|C#6 2C.F ....|--- .... ....|A-1 2F.F ....
....|..|--- .... ....|--- .... ....|--- .... ....
....|..|--- .... ....|--- .... ....|A#2 2F.A ....
....|..|--- .... ....|--- .... ....|--- .... ....
....|..|--- .... ....|--- .... ....|A#3 2F37 ....
....|..|--- .... ....|--- .... ....|A#2 2F.7 ....
....|..|C#6 2F.A ....|--- .... ....|A-1 2F.A ....
....|..|--- .... ....|--- .... ....|--- .... ....
....|..|--- .... ....|--- .... ....|A-3 2F.F ....
....|..|--- .... ....|--- .... ....|--- .... ....
....|..|--- .... ....|--- .... ....|A#2 2F.7 ....
....|..|--- .... ....|--- .... ....|A-1 2F.F ....
 F#4|..|F#2 2A.F ....|--- .... ....|C#4 2F1F ....
....|..|--- .... ....|--- .... ....|--- .... ....
....|..|--- .... ....|--- .... ....|C#4 2F1F ....
....|..|--- .... ....|--- .... ....|--- .... ....
....|..|--- .... ....|--- .... ....|E-4 2F.F ....
....|..|--- .... ....|--- .... ....|A-1 2F.A ....
....|..|F#2 2F.A ....|--- .... ....|C#4 2F1A ....
....|..|--- .... ....|--- .... ....|--- .... ....
 C#4|..|C#6 2C.F ....|--- .... ....|A-3 2F.F ....
....|..|--- .... ....|--- .... ....|--- .... ....
....|..|--- .... ....|--- .... ....|E-4 2F.A ....
....|..|--- .... ....|--- .... ....|A-1 2F.F ....
 C#4|..|C#6 2C.F ....|--- .... ....|A-2 2F5F ....
....|..|--- .... ....|--- .... ....|D-2 2F.F ....
....|..|C#6 2F.A ....|--- .... ....|C#4 2F17 ....
....|..|--- .... ....|--- .... ....|--- .... ....
....|..|--- .... ....|--- .... ....|E-4 2F.7 ....
....|..|--- .... ....|--- .... ....|A-1 2F.A ....
....|..|C#6 2F.A ....|--- .... ....|A-2 2F5A ....
....|..|--- .... ....|--- .... ....|D-2 2F.A ....
 C-4|..|C-2 2A.F ....|--- .... ....|A-3 2F.F ....
....|..|--- .... ....|--- .... ....|--- .... ....
....|..|--- .... ....|--- .... ....|--- .... ....
....|..|--- .... ....|--- .... ....|D-2 2F.F ....
 F#4|..|F#2 2A.F ....|--- .... ....|D-4 2F1F ....
....|..|--- .... ....|--- .... ....|D-2 2F.7 ....
....|..|C-2 2F.A ....|--- .... ....|A-3 2F.A ....
....|..|--- .... ....|--- .... ....|--- .... ....
....|..|--- .... ....|--- .... ....|--- .... ....
....|..|--- .... ....|--- .... ....|D-2 2F.A ....
....|..|F#2 2F.A ....|--- .... ....|F-4 2F.F ....
....|..|--- .... ....|--- .... ....|D-2 2F.F ....
....|..|C-2 2F.7 ....|--- .... ....|A-3 2F.F ....
....|..|--- .... ....|--- .... ....|--- .... ....
....|..|--- .... ....|--- .... ....|A-3 2F.F ....
....|..|--- .... ....|--- .... ....|D-2 2F.7 ....
 C#4|..|C#6 2C.F ....|--- .... ....|A-1 2F.F ....
....|..|--- .... ....|--- .... ....|D-2 2F.A ....
....|..|--- .... ....|--- .... ....|A-3 2F.A ....
....|..|--- .... ....|--- .... ....|--- .... ....
....|..|--- .... ....|--- .... ....|A-3 2F.A ....
....|..|--- .... ....|--- .... ....|R-- .... ....
....|..|C#6 2F.A ....|--- .... ....|F-4 2F.7 ....
....|..|--- .... ....|--- .... ....|D-2 2F.7 ....
....|..|--- .... ....|--- .... ....|A-3 2F.F ....
....|..|--- .... ....|--- .... ....|--- .... ....
....|..|--- .... ....|--- .... ....|A-3 2F.7 ....
....|..|--- .... ....|--- .... ....|A-1 2F.F ....
 F#4|..|F#2 2A.F ....|--- .... ....|C#4 2F1F ....
....|..|--- .... ....|--- .... ....|C#4 2F1F ....
....|..|--- .... ....|--- .... ....|A-3 2F.A ....
....|..|--- .... ....|--- .... ....|--- .... ....
....|..|--- .... ....|--- .... ....|--- .... ....
....|..|--- .... ....|--- .... ....|A-1 2F.A ....
....|..|F#2 2F.A ....|--- .... ....|E-4 2F.F ....
....|..|--- .... ....|--- .... ....|C#4 2F1A ....
 C#4|..|C#6 2C.F ....|--- .... ....|A-3 2F.F ....
....|..|--- .... ....|--- .... ....|--- .... ....
....|..|--- .... ....|--- .... ....|--- .... ....
....|..|--- .... ....|--- .... ....|A-1 2F.F ....
 C#4|..|C#6 2C.F ....|--- .... ....|D-2 2F.F ....
....|..|--- .... ....|--- .... ....|C#4 2F17 ....
....|..|C#6 2F.A ....|--- .... ....|A-3 2F.A ....
....|..|--- .... ....|--- .... ....|--- .... ....
....|..|--- .... ....|--- .... ....|--- .... ....
....|..|--- .... ....|--- .... ....|A-1 2F.A ....
....|..|C#6 2F.A ....|--- .... ....|E-4 2F.7 ....
....|..|--- .... ....|--- .... ....|R-- .... ....
....|..|C#6 2F.7 ....|--- .... ....|A-3 2F.F ....
....|..|--- .... ....|--- .... ....|--- .... ....
....|..|--- .... ....|--- .... ....|--- .... ....
....|..|--- .... ....|--- .... ....|D-2 2F.F ....
 F#4|..|F#2 2A.F ....|--- .... ....|D-4 2F1F ....
....|..|--- .... ....|--- .... ....|--- .... ....
....|..|--- .... ....|--- .... ....|A-3 2F.A ....
....|..|--- .... ....|--- .... ....|--- .... ....
....|..|--- .... ....|--- .... ....|--- .... ....
....|..|--- .... ....|--- .... ....|D-2 2F.A ....
....|..|F#2 2F.A ....|--- .... ....|D-4 2F1A ....
....|..|--- .... ....|--- .... ....|D-2 2F.F ....
....|..|--- .... ....|--- .... ....|A-3 2F.F ....
....|..|--- .... ....|--- .... ....|--- .... ....
....|..|--- .... ....|--- .... ....|--- .... ....
....|..|--- .... ....|--- .... ....|D-2 2F.7 ....
 C#4|..|C#6 2C.F ....|--- .... ....|G-1 2F.F ....
....|..|--- .... ....|--- .... ....|D-2 2F.A ....
....|..|--- .... ....|--- .... ....|A-3 2F.A ....
....|..|--- .... ....|--- .... ....|--- .... ....
....|..|--- .... ....|--- .... ....|--- .... ....
....|..|--- .... ....|--- .... ....|R-- .... ....
....|..|C#6 2F.A ....|--- .... ....|G-1 2F.A ....
....|..|--- .... ....|--- .... ....|D-2 2F.7 ....
....|..|--- .... ....|--- .... ....|G-3 2F.F ....
....|..|--- .... ....|--- .... ....|--- .... ....
....|..|--- .... ....|--- .... ....|--- .... ....
....|..|--- .... ....|--- .... ....|G-1 2F.F ....
 F#4|..|F#2 2A.F ....|--- .... ....|B-3 2F1F ....
....|..|--- .... ....|--- .... ....|--- .... ....

[Pattern16]
....|..|--- .... ....|--- .... ....|G-3 2F.A ....
....|..|--- .... ....|--- .... ....|B-3 2F1F ....
....|..|--- .... ....|--- .... ....|--- .... ....
....|..|--- .... ....|--- .... ....|G-1 2F.A ....
....|..|F#2 2F.A ....|--- .... ....|B-3 2F1A ....
....|..|--- .... ....|--- .... ....|R-- .... ....
 C#4|..|C#6 2C.F ....|--- .... ....|G-3 2F.F ....
....|..|--- .... ....|--- .... ....|B-3 2F1A ....
....|..|--- .... ....|--- .... ....|--- .... ....
....|..|--- .... ....|--- .... ....|G-1 2F.F ....
 C#4|..|C#6 2C.F ....|--- .... ....|G-2 2F5F ....
....|..|--- .... ....|--- .... ....|C-2 2F.F ....
....|..|C#6 2F.A ....|--- .... ....|G-3 2F.A ....
....|..|--- .... ....|--- .... ....|B-3 2F17 ....
....|..|--- .... ....|--- .... ....|--- .... ....
....|..|--- .... ....|--- .... ....|G-1 2F.A ....
....|..|C#6 2F.A ....|--- .... ....|G-2 2F5A ....
....|..|--- .... ....|--- .... ....|C-2 2F.A ....
....|..|C#6 2F.7 ....|--- .... ....|G-3 2F.F ....
....|..|--- .... ....|--- .... ....|--- .... ....
....|..|--- .... ....|--- .... ....|--- .... ....
....|..|--- .... ....|--- .... ....|C-2 2F.F ....
 F#4|..|F#2 2A.F ....|--- .... ....|C-4 2F1F ....
....|..|--- .... ....|--- .... ....|D#4 2F.F ....
....|..|--- .... ....|--- .... ....|G-3 2F.A ....
....|..|--- .... ....|--- .... ....|--- .... ....
....|..|--- .... ....|--- .... ....|--- .... ....
....|..|--- .... ....|--- .... ....|C-2 2F.A ....
....|..|F#2 2F.A ....|--- .... ....|D#4 2F.F ....
....|..|--- .... ....|--- .... ....|C-2 2F.F ....
....|..|--- .... ....|--- .... ....|G-3 2F.F ....
....|..|--- .... ....|--- .... ....|--- .... ....
....|..|--- .... ....|--- .... ....|G-3 2F.F ....
....|..|--- .... ....|--- .... ....|C-2 2F.7 ....
 C#4|..|C#6 2C.F ....|--- .... ....|G-1 2F.F ....
....|..|--- .... ....|--- .... ....|D#4 2F.7 ....
....|..|--- .... ....|--- .... ....|G-3 2F.A ....
....|..|--- .... ....|--- .... ....|--- .... ....
....|..|--- .... ....|--- .... ....|G-3 2F.A ....
....|..|--- .... ....|--- .... ....|R-- .... ....
....|..|C#6 2F.A ....|--- .... ....|D#4 2F.7 ....
....|..|--- .... ....|--- .... ....|C-2 2F.7 ....
....|..|--- .... ....|--- .... ....|G-3 2F.F ....
....|..|--- .... ....|--- .... ....|--- .... ....
....|..|--- .... ....|--- .... ....|G-3 2F.7 ....
....|..|--- .... ....|--- .... ....|R-- .... ....
 F#4|..|F#2 2A.F ....|--- .... ....|G-3 2FAF ....
....|..|--- .... ....|--- .... ....|B-3 2F1F ....
....|..|--- .... ....|--- .... ....|B-3 2F1F ....
....|..|--- .... ....|--- .... ....|--- .... ....
....|..|--- .... ....|--- .... ....|--- .... ....
....|..|--- .... ....|--- .... ....|R-- .... ....
....|..|F#2 2F.A ....|--- .... ....|G-3 2FAA ....
....|..|--- .... ....|--- .... ....|B-3 2F1A ....
 C#4|..|C#6 2C.F ....|--- .... ....|G-3 2F.F ....
....|..|--- .... ....|--- .... ....|--- .... ....
....|..|--- .... ....|--- .... ....|--- .... ....
....|..|--- .... ....|--- .... ....|R-- .... ....
 C#4|..|C#6 2C.F ....|--- .... ....|G-3 2F5F ....
....|..|--- .... ....|--- .... ....|B-3 2F17 ....
....|..|C#6 2F.A ....|--- .... ....|G-3 2FBF ....
....|..|--- .... ....|--- .... ....|R-- .... ....
....|..|--- .... ....|--- .... ....|C-4 2F.F ....
....|..|--- .... ....|--- .... ....|C-2 2F.F ....
....|..|C#6 2F.A ....|--- .... ....|G-3 2F5A ....
....|..|--- .... ....|--- .... ....|--- .... ....
 C#4|..|C#6 2C.F ....|--- .... ....|G-3 2F.7 ....
....|..|--- .... ....|--- .... ....|R-- .... ....
....|..|--- .... ....|--- .... ....|C-4 2F.A ....
....|..|--- .... ....|--- .... ....|C-2 2F.A ....
 C#4|..|C#6 2C.F ....|--- .... ....|F-2 2F.F ....
....|..|--- .... ....|--- .... ....|--- .... ....
....|..|C#6 2F.A ....|--- .... ....|G-3 2FB7 ....
....|..|--- .... ....|--- .... ....|F-2 2F.F ....
....|..|--- .... ....|--- .... ....|C-4 2F.7 ....
....|..|--- .... ....|--- .... ....|C-2 2F.7 ....
....|..|C#6 2F.A ....|--- .... ....|F-2 2F.A ....
....|..|--- .... ....|--- .... ....|--- .... ....
 C#4|..|C#6 2C.F ....|--- .... ....|F-2 2F.F ....
....|..|--- .... ....|--- .... ....|F-2 2F.A ....
....|..|--- .... ....|--- .... ....|R-- .... ....
....|..|--- .... ....|--- .... ....|--- .... ....
....|..|C#6 2F.7 ....|--- .... ....|F-2 2F.7 ....
....|..|--- .... ....|--- .... ....|--- .... ....
....|..|C#6 2F.A ....|--- .... ....|F-2 2F.A ....
....|..|--- .... ....|--- .... ....|F-2 2F.7 ....
....|..|--- .... ....|--- .... ....|R-- .... ....
....|..|--- .... ....|--- .... ....|--- .... ....
....|..|--- .... ....|--- .... ....|--- .... ....
....|..|--- .... ....|--- .... ....|--- .... ....
 F#4|..|F#3 2C.F ....|--- .... ....|F-2 2F.7 ....
....|..|--- .... ....|--- .... ....|--- .... ....
 F#4|..|F#3 2C.F ....|--- .... ....|--- .... ....
 F#4|..|F#3 2C.F ....|--- .... ....|--- .... ....
....|..|C-4 LF.F ....|A#3 2F.F ....|G-3 2F1F ....
 A#3|..|A#2 2C.F ....|--- .... ....|--- .... ....
 F#4|..|F#3 2C.F ....|--- .... ....|--- .... ....
....|..|--- .... ....|--- .... ....|F-2 2F.F ....
....|..|F#3 2F.A ....|R-- .... ....|--- .... ....
....|..|F#3 2F.A ....|--- .... ....|--- .... ....
....|..|C-4 LF.A ....|A#3 2F.A ....|G-3 2F1A ....
....|..|C-4 LF.F ....|--- .... ....|--- .... ....
 A#3|..|A#2 2C.F ....|A#3 2F.F ....|G-3 2F1F ....
 F#4|..|F#3 2C.F ....|--- .... ....|F-2 2F.A ....
....|..|F#3 2F.7 ....|R-- .... ....|--- .... ....
....|..|F#3 2F.7 ....|--- .... ....|--- .... ....
....|..|C-4 LF.7 ....|A#3 2F.7 ....|G-3 2F17 ....
....|..|A#2 2F.7 ....|--- .... ....|--- .... ....
....|..|F#3 2F.7 ....|A#3 2F.A ....|G-3 2F1A ....
....|..|F#3 2F.A ....|--- .... ....|F-2 2F.7 ....
....|..|R-- .... ....|R-- .... ....|--- .... ....
....|..|--- .... ....|--- .... ....|--- .... ....
....|..|--- .... ....|--- .... ....|--- .... ....
....|..|C-4 LF.7 ....|--- .... ....|R-- .... ....
 C-4|..|C-2 2A.F ....|A#3 2F.7 ....|G-3 2F17 ....
....|..|F#3 2F.7 ....|--- .... ....|G-3 2F8F ....
....|..|--- .... ....|--- .... ....|G-3 2F8F ....
....|..|--- .... ....|--- .... ....|--- .... ....
 C#4|..|C#6 2C.F ....|--- .... ....|G-3 2F1F ....
....|..|--- .... ....|--- .... ....|R-- .... ....
....|..|C-2 2F.A ....|--- .... ....|--- .... ....
....|..|--- .... ....|--- .... ....|G-3 2F8A ....
....|..|--- .... ....|--- .... ....|G-3 2F8F ....
....|..|--- .... ....|--- .... ....|--- .... ....
....|..|C#6 2F.A ....|--- .... ....|G-3 2F1A ....
....|..|--- .... ....|--- .... ....|R-- .... ....
 C#4|..|C#6 2C.F ....|--- .... ....|G-3 2F1F ....
....|..|--- .... ....|--- .... ....|G-3 2F87 ....

[Pattern17]
....|..|--- .... ....|--- .... ....|G-3 2F87 ....
....|..|--- .... ....|--- .... ....|--- .... ....
....|..|C#6 2F.7 ....|--- .... ....|G-3 2F17 ....
....|..|--- .... ....|--- .... ....|--- .... ....
....|..|C#6 2F.A ....|--- .... ....|F-2 2F.F ....
....|..|--- .... ....|--- .... ....|--- .... ....
....|..|--- .... ....|--- .... ....|G-3 2F87 ....
....|..|--- .... ....|--- .... ....|--- .... ....
....|..|--- .... ....|--- .... ....|--- .... ....
....|..|R-- .... ....|--- .... ....|--- .... ....
 F#4|..|F#3 2C.F ....|--- .... ....|G-3 2F17 ....
 F#4|..|F#3 2C.F ....|--- .... ....|--- .... ....
....|..|--- .... ....|--- .... ....|--- .... ....
 F#4|..|F#3 2C.F ....|R-- .... ....|--- .... ....
 F#4|..|F#3 2C.F ....|--- .... ....|G-3 2F1F ....
....|..|C-4 LF.F ....|A#3 2F.F ....|--- .... ....
....|..|F#3 2F.A ....|--- .... ....|F-2 2F.7 ....
....|..|F#3 2F.A ....|--- .... ....|F-2 2F.F ....
....|..|--- .... ....|--- .... ....|F-2 2F.F ....
....|..|F#3 2F.A ....|R-- .... ....|--- .... ....
....|..|F#3 2F.A ....|R-- .... ....|G-3 2F1A ....
....|..|C-4 LF.A ....|A#3 2F.A ....|--- .... ....
....|..|C-4 LF.F ....|A#3 2F.F ....|G-3 2F1F ....
 F#4|..|F#3 2C.F ....|--- .... ....|F-2 2F.A ....
....|..|R-- .... ....|--- .... ....|F-2 2F.A ....
....|..|F#3 2F.7 ....|R-- .... ....|--- .... ....
....|..|F#3 2F.7 ....|R-- .... ....|G-3 2F17 ....
....|..|C-4 LF.7 ....|A#3 2F.7 ....|--- .... ....
....|..|C-4 LF.A ....|A#3 2F.A ....|G-3 2F1A ....
....|..|F#3 2F.A ....|--- .... ....|F-2 2F.7 ....
....|..|R-- .... ....|--- .... ....|F-2 2F.7 ....
....|..|R-- .... ....|--- .... ....|--- .... ....
....|..|--- .... ....|R-- .... ....|--- .... ....
....|..|--- .... ....|--- .... ....|R-- .... ....
 C-4|..|C-2 2A.F ....|A#3 2F.7 ....|G-3 2F8F ....
....|..|F#3 2F.7 ....|--- .... ....|--- .... ....
....|..|R-- .... ....|--- .... ....|--- .... ....
....|..|--- .... ....|--- .... ....|--- .... ....
 C#4|..|C#6 2C.F ....|--- .... ....|G-3 2F1F ....
....|..|--- .... ....|--- .... ....|R-- .... ....
....|..|C-2 2F.A ....|--- .... ....|G-3 2F8A ....
....|..|--- .... ....|--- .... ....|--- .... ....
....|..|--- .... ....|--- .... ....|G-3 2F8F ....
....|..|--- .... ....|--- .... ....|--- .... ....
....|..|C#6 2F.A ....|--- .... ....|G-3 2F1A ....
....|..|--- .... ....|R-- .... ....|R-- .... ....
 C#4|..|C#6 2C.F ....|--- .... ....|G-3 2F1F ....
....|..|--- .... ....|--- .... ....|--- .... ....
....|..|--- .... ....|--- .... ....|G-3 2F8A ....
....|..|R-- .... ....|--- .... ....|--- .... ....
....|..|C-4 LF.F ....|A#3 2F.F ....|G-3 2F17 ....
....|..|--- .... ....|R-- .... ....|--- .... ....
....|..|C#6 2F.A ....|--- .... ....|G-3 2F1A ....
....|..|--- .... ....|--- .... ....|--- .... ....
....|..|--- .... ....|--- .... ....|G-3 2F87 ....
....|..|R-- .... ....|--- .... ....|--- .... ....
....|..|C-4 LF.A ....|A#3 2F.A ....|--- .... ....
....|..|--- .... ....|R-- .... ....|--- .... ....
....|..|C#6 2F.7 ....|--- .... ....|G-3 2F17 ....
....|..|--- .... ....|--- .... ....|--- .... ....
....|..|--- .... ....|--- .... ....|--- .... ....
....|..|R-- .... ....|B-3 2F.F ....|--- .... ....
....|..|C-4 LF.7 ....|A#3 2F.7 ....|--- .... ....
....|..|--- .... ....|R-- .... ....|--- .... ....
....|..|--- .... ....|--- .... ....|--- .... ....
....|..|--- .... ....|--- .... ....|--- .... ....
....|..|--- .... ....|--- .... ....|--- .... ....
....|..|R-- .... ....|B-3 2F.A ....|--- .... ....
....|..|--- .... ....|--- .... ....|--- .... ....
....|..|--- .... ....|R-- .... ....|--- .... ....
....|..|--- .... ....|--- .... ....|--- .... ....
....|..|--- .... ....|--- .... ....|--- .... ....
....|..|--- .... ....|--- .... ....|--- .... ....
....|..|--- .... ....|B-3 2F.7 ....|--- .... ....
....|..|--- .... ....|C-4 2F.F ....|--- .... ....
....|..|--- .... ....|R-- .... ....|--- .... ....
....|..|--- .... ....|--- .... ....|--- .... ....
....|..|--- .... ....|--- .... ....|--- .... ....
....|..|--- .... ....|--- .... ....|A#3 2F5F ....
....|..|--- .... ....|--- .... ....|--- .... ....
....|..|--- .... ....|C-4 2F.A ....|F-2 2F.F ....
....|..|--- .... ....|R-- .... ....|F-2 2F.F ....
....|..|--- .... ....|F-4 2F.F ....|--- .... ....
....|..|--- .... ....|--- .... ....|--- .... ....
....|..|--- .... ....|--- .... ....|A#3 2F5A ....
....|..|--- .... ....|--- .... ....|--- .... ....
....|..|--- .... ....|C-4 2F.7 ....|F-2 2F.A ....
....|..|--- .... ....|--- .... ....|F-2 2F.A ....
....|..|--- .... ....|F-4 2F.A ....|--- .... ....
....|..|--- .... ....|--- .... ....|--- .... ....
....|..|--- .... ....|--- .... ....|A#3 2F57 ....
....|..|--- .... ....|--- .... ....|--- .... ....
....|..|--- .... ....|--- .... ....|F-2 2F.7 ....
....|..|--- .... ....|--- .... ....|F-2 2F.7 ....
....|..|--- .... ....|F-4 2F.7 ....|--- .... ....
....|..|--- .... ....|--- .... ....|--- .... ....
....|..|--- .... ....|--- .... ....|--- .... ....
....|..|--- .... ....|--- .... ....|--- .... ....
....|..|--- .... ....|--- .... ....|C-4 2F6F ....
....|..|--- .... ....|--- .... ....|R-- .... ....
....|..|--- .... ....|R-- .... ....|R-- .... ....
....|..|--- .... ....|--- .... ....|--- .... ....
....|..|--- .... ....|--- .... ....|--- .... ....
....|..|--- .... ....|--- .... ....|--- .... ....
....|..|--- .... ....|--- .... ....|C-4 2F6A ....
....|..|--- .... ....|--- .... ....|--- .... ....
....|..|--- .... ....|R-- .... ....|R-- .... ....
....|..|--- .... ....|--- .... ....|--- .... ....
....|..|--- .... ....|--- .... ....|--- .... ....
....|..|--- .... ....|--- .... ....|--- .... ....
....|..|--- .... ....|--- .... ....|C-4 2F6F ....
....|..|--- .... ....|--- .... ....|--- .... ....
....|..|--- .... ....|R-- .... ....|R-- .... ....
....|..|--- .... ....|--- .... ....|--- .... ....
....|..|--- .... ....|--- .... ....|--- .... ....
....|..|--- .... ....|--- .... ....|--- .... ....
....|..|--- .... ....|--- .... ....|C-4 2F6A ....
....|..|--- .... ....|--- .... ....|--- .... ....
....|..|--- .... ....|--- .... ....|R-- .... ....
....|..|--- .... ....|--- .... ....|--- .... ....
....|..|--- .... ....|--- .... ....|--- .... ....
....|..|--- .... ....|--- .... ....|--- .... ....
....|..|--- .... ....|--- .... ....|C-4 2F6F ....
....|..|--- .... ....|--- .... ....|--- .... ....
....|..|--- .... ....|--- .... ....|R-- .... ....
....|..|--- .... ....|--- .... ....|--- .... ....
....|..|--- .... ....|--- .... ....|--- .... ....
....|..|--- .... ....|--- .... ....|--- .... ....

[Pattern18]
....|..|--- .... ....|--- .... ....|C-4 2F6A ....
....|..|--- .... ....|--- .... ....|--- .... ....
....|..|--- .... ....|--- .... ....|R-- .... ....
....|..|--- .... ....|--- .... ....|--- .... ....
....|..|--- .... ....|--- .... ....|--- .... ....
....|..|--- .... ....|--- .... ....|--- .... ....
....|..|--- .... ....|--- .... ....|C-4 2F6F ....
....|..|--- .... ....|--- .... ....|--- .... ....
....|..|--- .... ....|--- .... ....|R-- .... ....
....|..|--- .... ....|--- .... ....|--- .... ....
....|..|--- .... ....|--- .... ....|--- .... ....
....|..|--- .... ....|--- .... ....|--- .... ....
....|..|--- .... ....|--- .... ....|C-4 2F6A ....
....|..|--- .... ....|--- .... ....|--- .... ....
....|..|--- .... ....|--- .... ....|R-- .... ....
....|..|--- .... ....|--- .... ....|--- .... ....
....|..|--- .... ....|--- .... ....|--- .... ....
....|..|--- .... ....|--- .... ....|--- .... ....
....|..|--- .... ....|--- .... ....|F-4 2F7F ....
....|..|--- .... ....|--- .... ....|D-4 2F8F ....
....|..|--- .... ....|--- .... ....|R-- .... ....
....|..|--- .... ....|--- .... ....|--- .... ....
....|..|--- .... ....|--- .... ....|--- .... ....
....|..|--- .... ....|--- .... ....|--- .... ....
....|..|--- .... ....|--- .... ....|F-4 2F7A ....
....|..|--- .... ....|--- .... ....|D-4 2F8A ....
....|..|--- .... ....|--- .... ....|R-- .... ....
....|..|--- .... ....|--- .... ....|--- .... ....
....|..|--- .... ....|--- .... ....|--- .... ....
....|..|--- .... ....|--- .... ....|--- .... ....
....|..|--- .... ....|--- .... ....|F-4 2F7F ....
....|..|--- .... ....|--- .... ....|D-4 2F87 ....
....|..|--- .... ....|--- .... ....|R-- .... ....
....|..|--- .... ....|--- .... ....|--- .... ....
....|..|--- .... ....|--- .... ....|--- .... ....
....|..|--- .... ....|--- .... ....|--- .... ....
....|..|--- .... ....|--- .... ....|F-4 2F7A ....
....|..|--- .... ....|--- .... ....|--- .... ....
....|..|--- .... ....|--- .... ....|R-- .... ....
....|..|--- .... ....|--- .... ....|--- .... ....
....|..|--- .... ....|--- .... ....|--- .... ....
....|..|--- .... ....|--- .... ....|--- .... ....
....|..|--- .... ....|--- .... ....|F-4 2F7F ....
....|..|--- .... ....|--- .... ....|--- .... ....
....|..|--- .... ....|--- .... ....|R-- .... ....
....|..|--- .... ....|--- .... ....|--- .... ....
....|..|--- .... ....|--- .... ....|--- .... ....
....|..|--- .... ....|--- .... ....|--- .... ....
....|..|--- .... ....|--- .... ....|F-4 2F7A ....
....|..|--- .... ....|--- .... ....|--- .... ....
....|..|--- .... ....|--- .... ....|R-- .... ....
....|..|--- .... ....|--- .... ....|--- .... ....
....|..|--- .... ....|--- .... ....|--- .... ....
....|..|--- .... ....|--- .... ....|--- .... ....
....|..|--- .... ....|--- .... ....|F-4 2F7F ....
....|..|--- .... ....|--- .... ....|--- .... ....
....|..|--- .... ....|--- .... ....|R-- .... ....
....|..|--- .... ....|--- .... ....|--- .... ....
 C#4|..|C#6 2C.F ....|--- .... ....|G-2 2F.F ....
....|..|--- .... ....|--- .... ....|--- .... ....
....|..|--- .... ....|--- .... ....|F-4 2F7A ....
....|..|--- .... ....|--- .... ....|--- .... ....
 C#4|..|C#6 2C.F ....|--- .... ....|F-3 2F4F ....
....|..|--- .... ....|--- .... ....|F-2 2F.F ....
....|..|C#6 2F.A ....|--- .... ....|G-2 2F.A ....
....|..|--- .... ....|--- .... ....|--- .... ....
 C#4|..|C#6 2C.F ....|--- .... ....|C-4 2F1F ....
....|..|--- .... ....|--- .... ....|--- .... ....
....|..|C#6 2F.A ....|--- .... ....|C-3 2F.F ....
....|..|--- .... ....|--- .... ....|F-2 2F.A ....
....|..|C#6 2F.7 ....|--- .... ....|G-2 2F.7 ....
....|..|--- .... ....|--- .... ....|--- .... ....
....|..|C#6 2F.A ....|--- .... ....|C-4 2F1A ....
....|..|--- .... ....|--- .... ....|--- .... ....
....|..|C#6 2F.7 ....|--- .... ....|F-3 2F47 ....
....|..|--- .... ....|--- .... ....|F-2 2F.7 ....
....|..|--- .... ....|--- .... ....|--- .... ....
....|..|--- .... ....|--- .... ....|--- .... ....
....|..|C#6 2F.7 ....|--- .... ....|C-4 2F1F ....
....|..|--- .... ....|--- .... ....|--- .... ....
....|..|--- .... ....|--- .... ....|C-3 2F.F ....
....|..|--- .... ....|--- .... ....|--- .... ....
....|..|--- .... ....|--- .... ....|--- .... ....
....|..|--- .... ....|--- .... ....|--- .... ....
....|..|--- .... ....|--- .... ....|C-4 2F1A ....
....|..|--- .... ....|--- .... ....|--- .... ....
....|..|--- .... ....|--- .... ....|C-3 2F.A ....
....|..|--- .... ....|--- .... ....|--- .... ....
....|..|--- .... ....|--- .... ....|--- .... ....
....|..|--- .... ....|--- .... ....|--- .... ....
....|..|--- .... ....|--- .... ....|C-4 2F1F ....
....|..|--- .... ....|--- .... ....|--- .... ....
....|..|--- .... ....|--- .... ....|C-3 2F.F ....
....|..|--- .... ....|--- .... ....|--- .... ....
....|..|--- .... ....|--- .... ....|--- .... ....
....|..|--- .... ....|--- .... ....|--- .... ....
....|..|--- .... ....|--- .... ....|C-4 2F1A ....
....|..|--- .... ....|--- .... ....|--- .... ....
....|..|--- .... ....|--- .... ....|C-3 2F.A ....
....|..|--- .... ....|--- .... ....|--- .... ....
....|..|--- .... ....|--- .... ....|--- .... ....
....|..|--- .... ....|--- .... ....|--- .... ....
....|..|--- .... ....|--- .... ....|C-4 2F1F ....
....|..|--- .... ....|--- .... ....|--- .... ....
....|..|--- .... ....|--- .... ....|C-3 2F.F ....
....|..|--- .... ....|--- .... ....|C-3 2F.F ....
....|..|--- .... ....|--- .... ....|--- .... ....
....|..|--- .... ....|--- .... ....|--- .... ....
....|..|--- .... ....|--- .... ....|C-4 2F1A ....
....|..|--- .... ....|--- .... ....|--- .... ....
....|..|--- .... ....|--- .... ....|C-3 2F.A ....
....|..|--- .... ....|--- .... ....|C-3 2F.A ....
....|..|--- .... ....|--- .... ....|--- .... ....
....|..|--- .... ....|--- .... ....|--- .... ....
....|..|--- .... ....|--- .... ....|D-4 2F9F ....
....|..|--- .... ....|--- .... ....|--- .... ....
....|..|--- .... ....|--- .... ....|C-3 2F.F ....
....|..|--- .... ....|--- .... ....|C-3 2F.7 ....
....|..|--- .... ....|--- .... ....|--- .... ....
....|..|--- .... ....|--- .... ....|--- .... ....
....|..|--- .... ....|--- .... ....|D-4 2F9A ....
....|..|--- .... ....|--- .... ....|--- .... ....
....|..|--- .... ....|--- .... ....|C-3 2F.A ....
....|..|--- .... ....|--- .... ....|--- .... ....
....|..|--- .... ....|--- .... ....|--- .... ....
....|..|--- .... ....|--- .... ....|--- .... ....
....|..|--- .... ....|--- .... ....|D-4 2F9F ....
....|..|--- .... ....|--- .... ....|--- .... ....

[Pattern19]
....|..|--- .... ....|--- .... ....|C-3 2F.F ....
....|..|--- .... ....|--- .... ....|--- .... ....
....|..|--- .... ....|--- .... ....|--- .... ....
....|..|--- .... ....|--- .... ....|--- .... ....
....|..|--- .... ....|--- .... ....|D-4 2F9A ....
....|..|--- .... ....|--- .... ....|--- .... ....
....|..|--- .... ....|--- .... ....|C-3 2F.A ....
....|..|--- .... ....|--- .... ....|--- .... ....
....|..|--- .... ....|--- .... ....|--- .... ....
....|..|--- .... ....|--- .... ....|--- .... ....
....|..|--- .... ....|--- .... ....|D#4 2FAF ....
....|..|--- .... ....|--- .... ....|--- .... ....
....|..|--- .... ....|--- .... ....|G-4 2F.F ....
....|..|--- .... ....|--- .... ....|R-- .... ....
 C-4|..|C-2 2A.F ....|--- .... ....|--- .... ....
....|..|--- .... ....|--- .... ....|--- .... ....
....|..|--- .... ....|--- .... ....|D#4 2FAA ....
....|..|--- .... ....|--- .... ....|--- .... ....
 C-4|..|C-2 2A.F ....|--- .... ....|G-4 2F.A ....
....|..|--- .... ....|--- .... ....|R-- .... ....
....|..|C-2 2F.A ....|--- .... ....|--- .... ....
....|..|--- .... ....|--- .... ....|--- .... ....
 D-4|..|D-2 2A.F ....|--- .... ....|D#4 2FAF ....
....|..|--- .... ....|--- .... ....|--- .... ....
....|..|C-2 2F.A ....|--- .... ....|G-4 2F.7 ....
....|..|--- .... ....|--- .... ....|R-- .... ....
 C#4|..|C#6 2C.F ....|--- .... ....|G-2 2F.F ....
....|..|--- .... ....|--- .... ....|--- .... ....
....|..|D-2 2F.A ....|--- .... ....|D#4 2FAA ....
....|..|--- .... ....|--- .... ....|--- .... ....
 C#4|..|C#6 2C.F ....|--- .... ....|F-2 2F.F ....
....|..|--- .... ....|--- .... ....|--- .... ....
....|..|C#6 2F.A ....|--- .... ....|G-2 2F.A ....
....|..|--- .... ....|--- .... ....|--- .... ....
 C#4|..|C#6 2C.F ....|--- .... ....|D#4 2FAF ....
....|..|--- .... ....|--- .... ....|--- .... ....
....|..|C#6 2F.A ....|--- .... ....|D#2 2F.F ....
....|..|--- .... ....|--- .... ....|--- .... ....
....|..|C#6 2F.7 ....|--- .... ....|G-2 2F.7 ....
....|..|--- .... ....|--- .... ....|--- .... ....
....|..|C#6 2F.A ....|--- .... ....|D#4 2FAA ....
....|..|--- .... ....|--- .... ....|--- .... ....
....|..|C#6 2F.7 ....|--- .... ....|F-2 2F.7 ....
....|..|--- .... ....|--- .... ....|--- .... ....
....|..|--- .... ....|--- .... ....|--- .... ....
....|..|--- .... ....|--- .... ....|--- .... ....
 C#4|..|C#6 2C.F ....|--- .... ....|D#4 2FAF ....
....|..|--- .... ....|--- .... ....|--- .... ....
....|..|--- .... ....|--- .... ....|D#2 2F.7 ....
....|..|--- .... ....|--- .... ....|--- .... ....
....|..|--- .... ....|--- .... ....|--- .... ....
....|..|--- .... ....|--- .... ....|--- .... ....
....|..|C#6 2F.A ....|--- .... ....|D#4 2FAA ....
....|..|--- .... ....|--- .... ....|D#4 2FAF ....
 C#4|..|C#6 2C.F ....|--- .... ....|D#4 2F3F ....
....|..|--- .... ....|--- .... ....|G-4 2F.F ....
....|..|--- .... ....|--- .... ....|D#3 2F.F ....
....|..|--- .... ....|--- .... ....|--- .... ....
 C#4|..|C#6 2C.F ....|--- .... ....|D-4 2FBF ....
....|..|--- .... ....|--- .... ....|D#4 2FAA ....
....|..|C#6 2F.A ....|--- .... ....|D-2 2F.F ....
....|..|--- .... ....|--- .... ....|G-4 2F.A ....
....|..|--- .... ....|--- .... ....|D#3 2F.A ....
....|..|--- .... ....|--- .... ....|--- .... ....
....|..|C#6 2F.A ....|--- .... ....|D-4 2FBA ....
....|..|--- .... ....|--- .... ....|D#4 2FA7 ....
....|..|C#6 2F.7 ....|--- .... ....|D#4 2F37 ....
....|..|--- .... ....|--- .... ....|G-4 2F.7 ....
....|..|--- .... ....|--- .... ....|D#3 2F.7 ....
....|..|--- .... ....|--- .... ....|--- .... ....
 C#4|..|C#6 2C.F ....|--- .... ....|D-4 2FBF ....
....|..|--- .... ....|--- .... ....|--- .... ....
....|..|--- .... ....|--- .... ....|D-2 2F.7 ....
....|..|--- .... ....|--- .... ....|--- .... ....
....|..|--- .... ....|--- .... ....|--- .... ....
....|..|--- .... ....|--- .... ....|--- .... ....
....|..|C#6 2F.A ....|--- .... ....|D-4 2FBF ....
....|..|--- .... ....|--- .... ....|--- .... ....
....|..|--- .... ....|--- .... ....|D-4 2FBF ....
....|..|--- .... ....|--- .... ....|G-4 2F1F ....
....|..|--- .... ....|--- .... ....|D-3 2F.F ....
....|..|--- .... ....|--- .... ....|R-- .... ....
 C#4|..|C#6 2C.F ....|--- .... ....|G-4 2F1F ....
....|..|--- .... ....|--- .... ....|--- .... ....
....|..|--- .... ....|--- .... ....|C#2 2F.F ....
....|..|--- .... ....|--- .... ....|G-4 2F1A ....
....|..|--- .... ....|--- .... ....|D-3 2F.A ....
....|..|--- .... ....|--- .... ....|R-- .... ....
....|..|C#6 2F.A ....|--- .... ....|D-4 2FB7 ....
....|..|--- .... ....|--- .... ....|--- .... ....
....|..|--- .... ....|--- .... ....|D-4 2FB7 ....
....|..|--- .... ....|--- .... ....|G-4 2F17 ....
....|..|--- .... ....|--- .... ....|D-3 2F.7 ....
....|..|--- .... ....|--- .... ....|R-- .... ....
 C#4|..|C#6 2C.F ....|--- .... ....|G-4 2F1F ....
....|..|--- .... ....|--- .... ....|--- .... ....
....|..|--- .... ....|--- .... ....|C#2 2F.7 ....
....|..|--- .... ....|--- .... ....|--- .... ....
....|..|--- .... ....|--- .... ....|--- .... ....
....|..|--- .... ....|--- .... ....|--- .... ....
....|..|C#6 2F.A ....|--- .... ....|G-4 2F1A ....
....|..|--- .... ....|--- .... ....|G-4 2F1F ....
....|..|--- .... ....|--- .... ....|C#3 2F.F ....
....|..|--- .... ....|--- .... ....|--- .... ....
....|..|--- .... ....|--- .... ....|--- .... ....
....|..|--- .... ....|--- .... ....|--- .... ....
 C#4|..|C#6 2C.F ....|--- .... ....|C-4 2F8F ....
....|..|--- .... ....|--- .... ....|G-4 2F1A ....
....|..|--- .... ....|--- .... ....|G#1 2F.F ....
....|..|--- .... ....|--- .... ....|--- .... ....
....|..|--- .... ....|--- .... ....|--- .... ....
....|..|--- .... ....|--- .... ....|--- .... ....
....|..|C#6 2F.A ....|--- .... ....|C-4 2F8A ....
....|..|--- .... ....|--- .... ....|G-4 2F17 ....
....|..|--- .... ....|--- .... ....|C#3 2F.7 ....
....|..|--- .... ....|--- .... ....|--- .... ....
....|..|--- .... ....|--- .... ....|--- .... ....
....|..|--- .... ....|--- .... ....|--- .... ....
 C#4|..|C#6 2C.F ....|--- .... ....|G#3 2FAF ....
....|..|--- .... ....|--- .... ....|--- .... ....
....|..|--- .... ....|--- .... ....|G#1 2F.7 ....
....|..|--- .... ....|--- .... ....|--- .... ....
....|..|--- .... ....|--- .... ....|--- .... ....
....|..|--- .... ....|--- .... ....|--- .... ....
....|..|C#6 2F.A ....|--- .... ....|G#3 2FAA ....
....|..|--- .... ....|--- .... ....|--- .... ....
 C#4|..|C#6 2C.F ....|--- .... ....|G#3 2FAF ....
....|..|--- .... ....|--- .... ....|G#3 2F.F ....

[Pattern20]
....|..|--- .... ....|--- .... ....|G#2 2F.F ....
....|..|--- .... ....|--- .... ....|--- .... ....
 C#4|..|C#6 2C.F ....|--- .... ....|G#3 2F6F ....
....|..|--- .... ....|--- .... ....|--- .... ....
....|..|C#6 2F.A ....|--- .... ....|G#1 2F.F ....
....|..|--- .... ....|--- .... ....|G#3 2F.A ....
....|..|--- .... ....|--- .... ....|G#2 2F.A ....
....|..|--- .... ....|--- .... ....|--- .... ....
....|..|C#6 2F.A ....|--- .... ....|G#3 2F6A ....
....|..|--- .... ....|--- .... ....|--- .... ....
....|..|C#6 2F.7 ....|--- .... ....|G#3 2FA7 ....
....|..|--- .... ....|--- .... ....|G#3 2F.7 ....
....|..|--- .... ....|--- .... ....|G#2 2F.7 ....
....|..|--- .... ....|--- .... ....|--- .... ....
 C#4|..|C#6 2C.F ....|--- .... ....|G#3 2F6F ....
....|..|--- .... ....|--- .... ....|--- .... ....
....|..|--- .... ....|--- .... ....|G#1 2F.7 ....
....|..|--- .... ....|--- .... ....|--- .... ....
....|..|--- .... ....|--- .... ....|--- .... ....
....|..|--- .... ....|--- .... ....|--- .... ....
....|..|C#6 2F.A ....|--- .... ....|G#3 2F6A ....
....|..|--- .... ....|--- .... ....|G#3 2F6F ....
 C#4|..|C#6 2C.F ....|--- .... ....|G#3 2F6F ....
....|..|--- .... ....|--- .... ....|G#2 2F.F ....
....|..|--- .... ....|--- .... ....|--- .... ....
....|..|--- .... ....|--- .... ....|R-- .... ....
 C#4|..|C#6 2C.F ....|--- .... ....|G-3 2F8F ....
....|..|--- .... ....|--- .... ....|G-3 2F.F ....
....|..|C#6 2F.A ....|--- .... ....|A#1 2F.F ....
....|..|--- .... ....|--- .... ....|G#2 2F.A ....
....|..|--- .... ....|--- .... ....|--- .... ....
....|..|--- .... ....|--- .... ....|R-- .... ....
....|..|C#6 2F.A ....|--- .... ....|G-3 2F8A ....
....|..|--- .... ....|--- .... ....|G#3 2F67 ....
....|..|C#6 2F.7 ....|--- .... ....|G#3 2F67 ....
....|..|--- .... ....|--- .... ....|G#2 2F.7 ....
....|..|--- .... ....|--- .... ....|--- .... ....
....|..|--- .... ....|--- .... ....|R-- .... ....
 C#4|..|C#6 2C.F ....|--- .... ....|G-3 2F8F ....
....|..|--- .... ....|--- .... ....|G-3 2F.7 ....
....|..|--- .... ....|--- .... ....|A#1 2F.7 ....
....|..|--- .... ....|--- .... ....|--- .... ....
....|..|--- .... ....|--- .... ....|--- .... ....
....|..|--- .... ....|--- .... ....|--- .... ....
....|..|C#6 2F.A ....|--- .... ....|G-3 2F8A ....
....|..|--- .... ....|--- .... ....|A#3 2F5F ....
 C#4|..|C#6 2C.F ....|--- .... ....|F-2 2F.F ....
....|..|--- .... ....|--- .... ....|--- .... ....
....|..|--- .... ....|--- .... ....|--- .... ....
....|..|--- .... ....|--- .... ....|--- .... ....
 C#4|..|C#6 2C.F ....|--- .... ....|G#3 2F3F ....
....|..|--- .... ....|--- .... ....|G#3 2FAF ....
....|..|C#6 2F.A ....|--- .... ....|A#2 2F.F ....
....|..|--- .... ....|--- .... ....|--- .... ....
....|..|--- .... ....|--- .... ....|--- .... ....
....|..|--- .... ....|--- .... ....|--- .... ....
....|..|C#6 2F.A ....|--- .... ....|G#3 2F3A ....
....|..|--- .... ....|--- .... ....|A#3 2F57 ....
....|..|C#6 2F.7 ....|--- .... ....|F-2 2F.7 ....
....|..|--- .... ....|--- .... ....|--- .... ....
....|..|--- .... ....|--- .... ....|--- .... ....
....|..|--- .... ....|--- .... ....|--- .... ....
 C#4|..|C#6 2C.F ....|--- .... ....|G#3 2FAF ....
....|..|--- .... ....|--- .... ....|G#3 2FA7 ....
....|..|--- .... ....|--- .... ....|A#2 2F.7 ....
....|..|--- .... ....|--- .... ....|G#3 2FAF ....
....|..|--- .... ....|--- .... ....|--- .... ....
....|..|--- .... ....|--- .... ....|--- .... ....
....|..|C#6 2F.A ....|--- .... ....|C-4 2F1F ....
....|..|--- .... ....|--- .... ....|--- .... ....
 C#4|..|C#6 2C.F ....|--- .... ....|C-4 2F1F ....
....|..|--- .... ....|--- .... ....|C-4 2F.F ....
....|..|--- .... ....|--- .... ....|--- .... ....
....|..|--- .... ....|--- .... ....|F-2 2F.F ....
 C#4|..|C#6 2C.F ....|--- .... ....|D-4 2F1F ....
....|..|--- .... ....|--- .... ....|--- .... ....
....|..|C#6 2F.A ....|--- .... ....|C-4 2F1A ....
....|..|--- .... ....|--- .... ....|G#3 2FA7 ....
....|..|--- .... ....|--- .... ....|--- .... ....
....|..|--- .... ....|--- .... ....|F-2 2F.A ....
....|..|C#6 2F.A ....|--- .... ....|C-4 2F17 ....
....|..|--- .... ....|--- .... ....|--- .... ....
....|..|C#6 2F.7 ....|--- .... ....|C-4 2F17 ....
....|..|--- .... ....|--- .... ....|C-4 2F.7 ....
....|..|--- .... ....|--- .... ....|--- .... ....
....|..|--- .... ....|--- .... ....|F-2 2F.7 ....
....|..|C#6 2F.7 ....|--- .... ....|D-4 2F17 ....
....|..|--- .... ....|--- .... ....|--- .... ....
....|..|--- .... ....|--- .... ....|--- .... ....
....|..|--- .... ....|--- .... ....|--- .... ....
....|..|--- .... ....|--- .... ....|--- .... ....
....|..|--- .... ....|--- .... ....|--- .... ....
....|..|--- .... ....|--- .... ....|--- .... ....
....|..|--- .... ....|--- .... ....|--- .... ....
....|..|--- .... ....|--- .... ....|--- .... ....
....|..|--- .... ....|--- .... ....|--- .... ....
....|..|--- .... ....|--- .... ....|--- .... ....
....|..|--- .... ....|--- .... ....|--- .... ....
....|..|--- .... ....|--- .... ....|--- .... ....
....|..|--- .... ....|--- .... ....|--- .... ....
....|..|--- .... ....|--- .... ....|--- .... ....
....|..|--- .... ....|--- .... ....|--- .... ....
....|..|--- .... ....|--- .... ....|--- .... ....
....|..|--- .... ....|--- .... ....|--- .... ....
....|..|--- .... ....|--- .... ....|--- .... ....
....|..|--- .... ....|--- .... ....|--- .... ....
 G-4|..|G-2 2A.F ....|--- .... ....|--- .... ....
....|..|--- .... ....|--- .... ....|--- .... ....
....|..|--- .... ....|--- .... ....|--- .... ....
....|..|--- .... ....|--- .... ....|--- .... ....
 A-3|..|A-2 2C.F ....|--- .... ....|--- .... ....
....|..|--- .... ....|--- .... ....|--- .... ....
....|..|G-2 2F.A ....|--- .... ....|--- .... ....
....|..|--- .... ....|--- .... ....|--- .... ....
 G-4|..|G-2 2A.F ....|--- .... ....|--- .... ....
....|..|--- .... ....|--- .... ....|--- .... ....
....|..|A-2 2F.A ....|--- .... ....|D-4 2F.F ....
....|..|--- .... ....|--- .... ....|R-- .... ....
....|..|G-2 2F.7 ....|--- .... ....|--- .... ....
....|..|--- .... ....|--- .... ....|--- .... ....
....|..|G-2 2F.A ....|--- .... ....|--- .... ....
....|..|--- .... ....|--- .... ....|--- .... ....
 C#4|..|C#6 2C.F ....|--- .... ....|G-3 2F8F ....
....|..|--- .... ....|--- .... ....|R-- .... ....
....|..|--- .... ....|--- .... ....|A#1 2F.F ....
....|..|--- .... ....|--- .... ....|--- .... ....
....|..|G-2 2F.7 ....|--- .... ....|--- .... ....
....|..|--- .... ....|--- .... ....|--- .... ....

[Pattern21]
....|..|C#6 2F.A ....|--- .... ....|D-4 2F.7 ....
....|..|--- .... ....|--- .... ....|R-- .... ....
....|..|--- .... ....|--- .... ....|A#1 2F.A ....
....|..|--- .... ....|--- .... ....|--- .... ....
....|..|--- .... ....|--- .... ....|--- .... ....
....|..|--- .... ....|--- .... ....|--- .... ....
 F#4|..|F#2 2A.F ....|--- .... ....|G-3 2F8F ....
....|..|--- .... ....|--- .... ....|--- .... ....
....|..|--- .... ....|--- .... ....|A#1 2F.7 ....
....|..|--- .... ....|--- .... ....|--- .... ....
....|..|--- .... ....|--- .... ....|--- .... ....
....|..|--- .... ....|--- .... ....|--- .... ....
....|..|F#2 2F.A ....|--- .... ....|G-3 2F8A ....
....|..|--- .... ....|--- .... ....|--- .... ....
 C#4|..|C#6 2C.F ....|--- .... ....|A#3 2F5F ....
....|..|--- .... ....|--- .... ....|A#2 2F.F ....
....|..|--- .... ....|--- .... ....|--- .... ....
....|..|--- .... ....|--- .... ....|--- .... ....
 C#4|..|C#6 2C.F ....|--- .... ....|G#3 2FAF ....
....|..|--- .... ....|--- .... ....|--- .... ....
....|..|C#6 2F.A ....|--- .... ....|A#1 2F.F ....
....|..|--- .... ....|--- .... ....|A#2 2F.A ....
....|..|--- .... ....|--- .... ....|--- .... ....
....|..|--- .... ....|--- .... ....|--- .... ....
....|..|C#6 2F.A ....|--- .... ....|G#3 2FAA ....
....|..|--- .... ....|--- .... ....|--- .... ....
 C-4|..|C-2 2A.F ....|--- .... ....|A#3 2F57 ....
....|..|--- .... ....|--- .... ....|A#2 2F.7 ....
....|..|--- .... ....|--- .... ....|--- .... ....
....|..|--- .... ....|--- .... ....|--- .... ....
 C#4|..|C#6 2C.F ....|--- .... ....|G#3 2FAF ....
....|..|--- .... ....|--- .... ....|--- .... ....
....|..|C-2 2F.A ....|--- .... ....|A#1 2F.7 ....
....|..|--- .... ....|--- .... ....|--- .... ....
....|..|--- .... ....|--- .... ....|--- .... ....
....|..|--- .... ....|--- .... ....|--- .... ....
....|..|C#6 2F.A ....|--- .... ....|G#3 2FAA ....
....|..|--- .... ....|--- .... ....|G#3 2FAF ....
 C#4|..|C#6 2C.F ....|--- .... ....|C-4 2F1F ....
....|..|--- .... ....|--- .... ....|F-2 2F.F ....
....|..|--- .... ....|--- .... ....|--- .... ....
....|..|--- .... ....|--- .... ....|--- .... ....
 C#4|..|C#6 2C.F ....|--- .... ....|D-4 2F1F ....
....|..|--- .... ....|--- .... ....|G#3 2FAA ....
....|..|C#6 2F.A ....|--- .... ....|C-4 2F1A ....
....|..|--- .... ....|--- .... ....|F-2 2F.A ....
....|..|--- .... ....|--- .... ....|--- .... ....
....|..|--- .... ....|--- .... ....|--- .... ....
....|..|C#6 2F.A ....|--- .... ....|D-4 2F1A ....
....|..|--- .... ....|--- .... ....|G#3 2FA7 ....
....|..|C#6 2F.7 ....|--- .... ....|C-4 2F17 ....
....|..|--- .... ....|--- .... ....|F-2 2F.7 ....
....|..|--- .... ....|--- .... ....|--- .... ....
....|..|--- .... ....|--- .... ....|--- .... ....
....|..|C#6 2F.7 ....|--- .... ....|D-4 2F17 ....
....|..|--- .... ....|--- .... ....|--- .... ....
....|..|--- .... ....|--- .... ....|--- .... ....
....|..|--- .... ....|--- .... ....|--- .... ....
....|..|--- .... ....|--- .... ....|--- .... ....
....|..|--- .... ....|--- .... ....|--- .... ....
....|..|--- .... ....|--- .... ....|--- .... ....
....|..|--- .... ....|--- .... ....|--- .... ....
....|..|--- .... ....|--- .... ....|--- .... ....
....|..|--- .... ....|--- .... ....|--- .... ....
....|..|--- .... ....|--- .... ....|--- .... ....
....|..|--- .... ....|--- .... ....|--- .... ....
....|..|--- .... ....|--- .... ....|--- .... ....
....|..|--- .... ....|--- .... ....|--- .... ....
....|..|--- .... ....|--- .... ....|--- .... ....
....|..|--- .... ....|--- .... ....|--- .... ....
....|..|--- .... ....|--- .... ....|--- .... ....
....|..|--- .... ....|--- .... ....|--- .... ....
....|..|--- .... ....|--- .... ....|--- .... ....
....|..|--- .... ....|F-3 2F.F ....|--- .... ....
....|..|--- .... ....|--- .... ....|--- .... ....
....|..|--- .... ....|--- .... ....|--- .... ....
....|..|--- .... ....|--- .... ....|--- .... ....
....|..|--- .... ....|--- .... ....|--- .... ....
....|..|--- .... ....|--- .... ....|--- .... ....
....|..|--- .... ....|F-3 2F.A ....|--- .... ....
....|..|--- .... ....|--- .... ....|--- .... ....
....|..|--- .... ....|R-- .... ....|G#3 2F.F ....
....|..|--- .... ....|F-3 2F.F ....|F-4 2F.F ....
....|..|--- .... ....|--- .... ....|A#1 2F.F ....
....|..|--- .... ....|--- .... ....|R-- .... ....
....|..|--- .... ....|F-3 2F2F ....|--- .... ....
....|..|--- .... ....|F#3 2F.F ....|--- .... ....
....|..|--- .... ....|R-- .... ....|G#3 2F.A ....
....|..|--- .... ....|F-3 2F.A ....|F-4 2F.A ....
....|..|--- .... ....|R-- .... ....|A#1 2F.A ....
 C#4|..|C#6 2C.F ....|G-3 2F.F ....|G-3 2FAF ....
....|..|--- .... ....|F-3 2F2A ....|--- .... ....
....|..|--- .... ....|F#3 2F.A ....|F-4 2F.F ....
....|..|--- .... ....|R-- .... ....|G-1 2F.F ....
....|..|--- .... ....|F-3 2F.7 ....|F-4 2F.7 ....
....|..|--- .... ....|R-- .... ....|A#1 2F.7 ....
....|..|C#6 2F.A ....|G-3 2F.A ....|G-3 2FAA ....
....|..|--- .... ....|F-3 2F27 ....|--- .... ....
....|..|--- .... ....|F#3 2F.7 ....|F-4 2F.A ....
....|..|--- .... ....|--- .... ....|G-1 2F.A ....
....|..|--- .... ....|--- .... ....|--- .... ....
....|..|--- .... ....|R-- .... ....|--- .... ....
 F#4|..|F#2 2A.F ....|G-4 2F.F ....|G-3 2FAF ....
....|..|--- .... ....|--- .... ....|R-- .... ....
....|..|--- .... ....|--- .... ....|D-4 2F1F ....
....|..|--- .... ....|--- .... ....|G-1 2F.7 ....
....|..|--- .... ....|--- .... ....|--- .... ....
....|..|--- .... ....|R-- .... ....|--- .... ....
....|..|F#2 2F.A ....|G-4 2F.A ....|G-3 2FAA ....
....|..|--- .... ....|R-- .... ....|R-- .... ....
 C#4|..|C#6 2C.F ....|F-4 2F.F ....|G-1 2F.F ....
....|..|--- .... ....|--- .... ....|R-- .... ....
....|..|--- .... ....|R-- .... ....|--- .... ....
....|..|--- .... ....|R-- .... ....|--- .... ....
 C#4|..|C#6 2C.F ....|D#4 2F.F ....|G-3 2FBF ....
....|..|--- .... ....|R-- .... ....|R-- .... ....
....|..|C#6 2F.A ....|F-4 2F.A ....|G-3 2F.F ....
....|..|--- .... ....|D-4 2F.F ....|C-2 2F.F ....
....|..|--- .... ....|R-- .... ....|--- .... ....
....|..|--- .... ....|--- .... ....|--- .... ....
....|..|C#6 2F.A ....|D#4 2F.A ....|G-3 2FBA ....
....|..|--- .... ....|C-4 2F.F ....|--- .... ....
 C-4|..|C-2 2A.F ....|F-4 2F.7 ....|G-1 2F.7 ....
....|..|--- .... ....|D-4 2F.A ....|C-2 2F.A ....
....|..|--- .... ....|R-- .... ....|--- .... ....
....|..|--- .... ....|--- .... ....|--- .... ....
 C#4|..|C#6 2C.F ....|D#4 2F.7 ....|G-3 2FBF ....
....|..|--- .... ....|C-4 2F.A ....|C-3 2F.F ....

[Pattern22]
....|..|C-2 2F.A ....|--- .... ....|C-4 2F1F ....
....|..|--- .... ....|D-4 2F.7 ....|C-2 2F.7 ....
....|..|--- .... ....|--- .... ....|--- .... ....
....|..|--- .... ....|--- .... ....|--- .... ....
....|..|C#6 2F.A ....|R-- .... ....|G-3 2FBA ....
....|..|--- .... ....|C-4 2F.7 ....|C-3 2F.A ....
 C#4|..|C#6 2C.F ....|--- .... ....|C-2 2F.F ....
....|..|--- .... ....|--- .... ....|R-- .... ....
....|..|--- .... ....|--- .... ....|--- .... ....
....|..|--- .... ....|--- .... ....|--- .... ....
 C#4|..|C#6 2C.F ....|G-4 2F.F ....|G-3 2FAF ....
....|..|--- .... ....|R-- .... ....|C-3 2F.7 ....
....|..|C#6 2F.A ....|--- .... ....|F-4 2F.F ....
....|..|--- .... ....|--- .... ....|G-1 2F.F ....
....|..|--- .... ....|--- .... ....|--- .... ....
....|..|--- .... ....|R-- .... ....|--- .... ....
....|..|C#6 2F.A ....|G-4 2F.A ....|G-3 2FAA ....
....|..|--- .... ....|R-- .... ....|--- .... ....
....|..|C#6 2F.7 ....|G-4 2F.F ....|C-2 2F.7 ....
....|..|--- .... ....|--- .... ....|G-1 2F.A ....
....|..|--- .... ....|R-- .... ....|--- .... ....
....|..|--- .... ....|R-- .... ....|--- .... ....
 F#4|..|F#2 2A.F ....|G-4 2F.F ....|G-3 2FAF ....
....|..|--- .... ....|--- .... ....|R-- .... ....
....|..|--- .... ....|G-4 2F.A ....|B-3 2FFF ....
....|..|--- .... ....|--- .... ....|G-1 2F.F ....
....|..|--- .... ....|R-- .... ....|R-- .... ....
....|..|--- .... ....|R-- .... ....|--- .... ....
....|..|F#2 2F.A ....|G-4 2F.A ....|G-3 2FAA ....
....|..|--- .... ....|R-- .... ....|R-- .... ....
 C#4|..|C#6 2C.F ....|F-4 2F.F ....|G-1 2F.F ....
....|..|--- .... ....|--- .... ....|G-1 2F.A ....
....|..|--- .... ....|R-- .... ....|R-- .... ....
....|..|--- .... ....|--- .... ....|--- .... ....
 C#4|..|C#6 2C.F ....|D#4 2F.F ....|G-3 2FBF ....
....|..|--- .... ....|R-- .... ....|R-- .... ....
....|..|C#6 2F.A ....|F-4 2F.A ....|C-2 2F.F ....
....|..|--- .... ....|D-4 2F.F ....|G-1 2F.7 ....
....|..|--- .... ....|R-- .... ....|R-- .... ....
....|..|--- .... ....|--- .... ....|--- .... ....
....|..|C#6 2F.A ....|D#4 2F.A ....|G-3 2FBA ....
....|..|--- .... ....|C-4 2F.F ....|--- .... ....
....|..|C#6 2F.7 ....|F-4 2F.7 ....|G-1 2F.7 ....
....|..|--- .... ....|D-4 2F.A ....|--- .... ....
....|..|--- .... ....|R-- .... ....|--- .... ....
....|..|--- .... ....|--- .... ....|--- .... ....
 F#4|..|F#2 2A.F ....|D#4 2F.7 ....|G-3 2FBF ....
....|..|--- .... ....|C-4 2F.A ....|R-- .... ....
....|..|--- .... ....|--- .... ....|C-2 2F.F ....
....|..|--- .... ....|D-4 2F.7 ....|R-- .... ....
....|..|--- .... ....|--- .... ....|--- .... ....
....|..|--- .... ....|--- .... ....|--- .... ....
....|..|F#2 2F.A ....|--- .... ....|G-3 2FBA ....
....|..|--- .... ....|A-3 2F.F ....|R-- .... ....
 C#4|..|C#6 2C.F ....|--- .... ....|C-2 2F.F ....
....|..|--- .... ....|--- .... ....|R-- .... ....
....|..|--- .... ....|--- .... ....|--- .... ....
....|..|--- .... ....|A#3 2F.F ....|R-- .... ....
 C#4|..|C#6 2C.F ....|--- .... ....|F-3 2FEF ....
....|..|R-- .... ....|A-3 2F.A ....|R-- .... ....
....|..|C#6 2F.A ....|--- .... ....|C-2 2F.7 ....
....|..|--- .... ....|A#3 2F.F ....|A#1 2F.F ....
....|..|--- .... ....|--- .... ....|--- .... ....
....|..|--- .... ....|A#3 2F.A ....|R-- .... ....
....|..|C#6 2F.A ....|--- .... ....|F-3 2FEA ....
....|..|R-- .... ....|A#3 2F.F ....|--- .... ....
....|..|C#6 2F.7 ....|--- .... ....|C-2 2F.7 ....
....|..|--- .... ....|A#3 2F.A ....|A#1 2F.A ....
....|..|--- .... ....|--- .... ....|--- .... ....
....|..|--- .... ....|A#3 2F.7 ....|R-- .... ....
 F#4|..|F#2 2A.F ....|--- .... ....|F-3 2FEF ....
....|..|R-- .... ....|A#3 2F.A ....|A#2 2F.F ....
....|..|--- .... ....|--- .... ....|R-- .... ....
....|..|--- .... ....|A#3 2F.7 ....|D-4 2F.F ....
....|..|--- .... ....|A#3 2F.F ....|R-- .... ....
....|..|--- .... ....|R-- .... ....|--- .... ....
....|..|F#2 2F.A ....|--- .... ....|F-3 2FEA ....
....|..|--- .... ....|G#3 2F4F ....|A#2 2F.A ....
....|..|--- .... ....|G#3 2F.F ....|A#1 2F.F ....
....|..|--- .... ....|--- .... ....|D-4 2F.A ....
....|..|--- .... ....|A#3 2F.A ....|R-- .... ....
....|..|--- .... ....|G-3 2F.F ....|--- .... ....
 C#4|..|C#6 2C.F ....|--- .... ....|G-3 2F1F ....
....|..|--- .... ....|G#3 2F4A ....|A#2 2F.7 ....
....|..|--- .... ....|G#3 2F.A ....|A#3 2F5F ....
....|..|--- .... ....|F-3 2F.F ....|D#2 2F.F ....
....|..|--- .... ....|A#3 2F.7 ....|R-- .... ....
....|..|--- .... ....|G-3 2F.A ....|--- .... ....
....|..|C#6 2F.A ....|--- .... ....|G-3 2F1A ....
....|..|--- .... ....|G-3 2F.F ....|--- .... ....
 C-4|..|C-2 2A.F ....|G#3 2F.7 ....|A#1 2F.7 ....
....|..|--- .... ....|F-3 2F.A ....|D#2 2F.A ....
....|..|--- .... ....|--- .... ....|--- .... ....
....|..|--- .... ....|G-3 2F.7 ....|--- .... ....
 F#4|..|F#2 2A.F ....|--- .... ....|G-3 2F8F ....
....|..|--- .... ....|G-3 2F.A ....|R-- .... ....
....|..|C-2 2F.A ....|R-- .... ....|A#3 2F57 ....
....|..|--- .... ....|F-3 2F.7 ....|D#2 2F.7 ....
....|..|--- .... ....|R-- .... ....|--- .... ....
....|..|--- .... ....|D#4 2F.F ....|--- .... ....
....|..|F#2 2F.A ....|--- .... ....|G-3 2F8A ....
....|..|--- .... ....|G-3 2F.7 ....|R-- .... ....
 C#4|..|C#6 2C.F ....|--- .... ....|D#2 2F.F ....
....|..|--- .... ....|--- .... ....|R-- .... ....
....|..|--- .... ....|R-- .... ....|--- .... ....
....|..|--- .... ....|D#4 2F.A ....|--- .... ....
 C#4|..|C#6 2C.F ....|A#3 2F.F ....|F-3 2FEF ....
....|..|--- .... ....|--- .... ....|R-- .... ....
....|..|C#6 2F.A ....|--- .... ....|D#2 2F.A ....
....|..|--- .... ....|--- .... ....|A#1 2F.F ....
....|..|--- .... ....|R-- .... ....|--- .... ....
....|..|--- .... ....|D#4 2F.7 ....|--- .... ....
....|..|C#6 2F.A ....|A#3 2F.A ....|F-3 2FEA ....
....|..|--- .... ....|--- .... ....|--- .... ....
 C#4|..|C#6 2C.F ....|C-4 2F.F ....|D#2 2F.7 ....
....|..|--- .... ....|--- .... ....|A#1 2F.A ....
....|..|--- .... ....|R-- .... ....|--- .... ....
....|..|--- .... ....|R-- .... ....|--- .... ....
 C#4|..|C#6 2C.F ....|A#3 2F.F ....|F-3 2FEF ....
....|..|--- .... ....|--- .... ....|R-- .... ....
....|..|C#6 2F.A ....|C-4 2F.A ....|--- .... ....
....|..|--- .... ....|A-3 2F.F ....|A#1 2F.F ....
....|..|--- .... ....|--- .... ....|--- .... ....
....|..|--- .... ....|R-- .... ....|R-- .... ....
....|..|C#6 2F.A ....|A#3 2F.A ....|F-3 2FEA ....
....|..|--- .... ....|G#3 2F.F ....|R-- .... ....
....|..|C#6 2F.7 ....|C-4 2F.7 ....|A#1 2F.F ....
....|..|--- .... ....|A-3 2F.A ....|A#1 2F.A ....

[Pattern23]
....|..|--- .... ....|--- .... ....|--- .... ....
....|..|--- .... ....|R-- .... ....|R-- .... ....
 C#4|..|C#6 2C.F ....|G-3 2F.F ....|G-3 2F8F ....
....|..|--- .... ....|G#3 2F.A ....|R-- .... ....
....|..|--- .... ....|--- .... ....|D#4 2F.F ....
....|..|--- .... ....|G-3 2F1F ....|D#2 2F.F ....
....|..|--- .... ....|A#3 2F.F ....|--- .... ....
....|..|--- .... ....|R-- .... ....|R-- .... ....
....|..|C#6 2F.A ....|G-3 2F.A ....|G-3 2F8A ....
....|..|--- .... ....|G#3 2F.7 ....|--- .... ....
 C-4|..|C-2 2A.F ....|D#4 2F.F ....|A#1 2F.7 ....
....|..|--- .... ....|G-3 2F1A ....|D#2 2F.A ....
....|..|--- .... ....|A#3 2F.A ....|--- .... ....
....|..|--- .... ....|R-- .... ....|--- .... ....
 C#4|..|C#6 2C.F ....|G-3 2F.7 ....|G-3 2F8F ....
....|..|--- .... ....|R-- .... ....|R-- .... ....
....|..|C-2 2F.A ....|D#4 2F.A ....|D#4 2F.F ....
....|..|--- .... ....|G-3 2F17 ....|D#2 2F.7 ....
....|..|--- .... ....|A#3 2F.7 ....|--- .... ....
....|..|--- .... ....|--- .... ....|--- .... ....
....|..|C#6 2F.A ....|R-- .... ....|G-3 2F8A ....
....|..|--- .... ....|F#4 2F.F ....|R-- .... ....
....|..|C-2 2F.7 ....|D#4 2F.7 ....|D#2 2F.F ....
....|..|--- .... ....|--- .... ....|R-- .... ....
....|..|--- .... ....|--- .... ....|--- .... ....
....|..|--- .... ....|A#4 2F.F ....|--- .... ....
 C#4|..|C#6 2C.F ....|R-- .... ....|A-3 2F7F ....
....|..|--- .... ....|F#4 2F.A ....|R-- .... ....
....|..|--- .... ....|--- .... ....|A-3 2F1F ....
....|..|--- .... ....|--- .... ....|D-2 2F.F ....
....|..|--- .... ....|R-- .... ....|--- .... ....
....|..|--- .... ....|A#4 2F.A ....|--- .... ....
....|..|C#6 2F.A ....|R-- .... ....|A-3 2F7A ....
....|..|--- .... ....|F#4 2F.7 ....|--- .... ....
....|..|--- .... ....|A-4 2F.F ....|D#2 2F.7 ....
....|..|--- .... ....|--- .... ....|D-2 2F.A ....
....|..|--- .... ....|R-- .... ....|--- .... ....
....|..|--- .... ....|A#4 2F.7 ....|--- .... ....
 C#4|..|C#6 2C.F ....|G-4 2F.F ....|A-3 2F7F ....
....|..|--- .... ....|--- .... ....|A-3 2F.F ....
....|..|--- .... ....|A-4 2F.A ....|A-3 2F1F ....
....|..|--- .... ....|--- .... ....|D-2 2F.F ....
....|..|--- .... ....|R-- .... ....|--- .... ....
....|..|--- .... ....|R-- .... ....|R-- .... ....
....|..|C#6 2F.A ....|G-4 2F.A ....|A-3 2F7A ....
....|..|--- .... ....|--- .... ....|A-3 2F.A ....
 C#4|..|C#6 2C.F ....|A-4 2F.F ....|D-2 2F.F ....
....|..|--- .... ....|--- .... ....|D-2 2F.A ....
....|..|--- .... ....|R-- .... ....|--- .... ....
....|..|--- .... ....|R-- .... ....|R-- .... ....
 C#4|..|C#6 2C.F ....|A#4 2F.F ....|A#3 2FDF ....
....|..|--- .... ....|--- .... ....|A-3 2F.7 ....
....|..|C#6 2F.A ....|A-4 2F.A ....|A-3 2F17 ....
....|..|--- .... ....|--- .... ....|G-2 2F.F ....
....|..|--- .... ....|R-- .... ....|--- .... ....
....|..|--- .... ....|--- .... ....|R-- .... ....
....|..|C#6 2F.A ....|A#4 2F.A ....|A#3 2FDA ....
....|..|--- .... ....|--- .... ....|--- .... ....
....|..|C#6 2F.7 ....|A-4 2F.7 ....|G-2 2F.F ....
....|..|--- .... ....|R-- .... ....|G-2 2F.A ....
....|..|--- .... ....|R-- .... ....|R-- .... ....
....|..|--- .... ....|--- .... ....|--- .... ....
 C#4|..|C#6 2C.F ....|A#4 2F.7 ....|A-3 2F8F ....
....|..|--- .... ....|--- .... ....|--- .... ....
....|..|--- .... ....|--- .... ....|G-2 2F.A ....
....|..|--- .... ....|R-- .... ....|F-4 2F.F ....
....|..|--- .... ....|--- .... ....|F-2 2F.F ....
....|..|--- .... ....|--- .... ....|R-- .... ....
....|..|C#6 2F.A ....|--- .... ....|A-3 2F8A ....
....|..|--- .... ....|--- .... ....|--- .... ....
....|..|--- .... ....|--- .... ....|G-2 2F.7 ....
....|..|--- .... ....|R-- .... ....|F-2 2F.F ....
....|..|--- .... ....|--- .... ....|F-2 2F.A ....
....|..|--- .... ....|--- .... ....|R-- .... ....
 D-4|..|D-2 2A.F ....|F-3 2F.F ....|A#3 2F3F ....
....|..|--- .... ....|--- .... ....|--- .... ....
 D-4|..|D-2 2A.F ....|--- .... ....|--- .... ....
....|..|--- .... ....|--- .... ....|F-4 2F.7 ....
 D-4|..|D-2 2A.F ....|--- .... ....|F-2 2F.7 ....
....|..|--- .... ....|--- .... ....|R-- .... ....
 D-4|..|D-2 2A.F ....|F-3 2F.A ....|A#3 2F3A ....
....|..|--- .... ....|--- .... ....|--- .... ....
 D-4|..|D-2 2A.F ....|--- .... ....|--- .... ....
....|..|--- .... ....|--- .... ....|F-2 2F.7 ....
 D-4|..|D-2 2A.F ....|--- .... ....|--- .... ....
....|..|--- .... ....|--- .... ....|R-- .... ....
 D-4|..|D-2 2A.F ....|F-3 2F.7 ....|A#3 2F37 ....
....|..|--- .... ....|--- .... ....|--- .... ....
 D-4|..|D-2 2A.F ....|--- .... ....|--- .... ....
....|..|--- .... ....|--- .... ....|--- .... ....
 D-4|..|D-2 2A.F ....|--- .... ....|--- .... ....
....|..|--- .... ....|--- .... ....|--- .... ....
 D-4|..|D-2 2A.F ....|--- .... ....|--- .... ....
....|..|--- .... ....|--- .... ....|--- .... ....
 D-4|..|D-2 2A.F ....|--- .... ....|A#3 2F3F ....
....|..|--- .... ....|A#2 2F.F ....|A#2 2F.F ....
 D-4|..|D-2 2A.F ....|R-- .... ....|R-- .... ....
....|..|--- .... ....|--- .... ....|--- .... ....
 C-4|..|C-2 2A.F ....|C-3 2F.F ....|A-3 2F1F ....
....|..|--- .... ....|--- .... ....|--- .... ....
....|..|D-2 2F.7 ....|R-- .... ....|A-3 2F8F ....
....|..|--- .... ....|C-3 2F.F ....|A#2 2F.A ....
 A-3|..|A-2 2C.F ....|R-- .... ....|A-3 2F1F ....
....|..|--- .... ....|R-- .... ....|--- .... ....
....|..|D-2 2F.7 ....|C-3 2F.A ....|A-3 2F8F ....
....|..|--- .... ....|C-3 2F.F ....|--- .... ....
 A-3|..|A-2 2C.F ....|R-- .... ....|A-3 2F1F ....
....|..|--- .... ....|A#2 2F.7 ....|A-3 2F8F ....
....|..|D-2 2F.7 ....|R-- .... ....|A-3 2F8F ....
....|..|--- .... ....|C-3 2F.F ....|--- .... ....
 A-3|..|A-2 2C.F ....|C-3 2F.7 ....|A-3 2F1F ....
....|..|--- .... ....|C-3 2F.A ....|A-3 2F8F ....
....|..|A-2 2F.A ....|R-- .... ....|A-3 2F8F ....
....|..|--- .... ....|C-3 2F.F ....|A-3 2F8A ....
 A-3|..|A-2 2C.F ....|--- .... ....|A-3 2F1F ....
....|..|--- .... ....|C-3 2F.A ....|A-3 2F8F ....
....|..|A-2 2F.A ....|--- .... ....|A-3 2F8F ....
....|..|--- .... ....|C-3 2F.F ....|A-3 2F8A ....
 A-3|..|A-2 2C.F ....|--- .... ....|F-2 2F.F ....
....|..|--- .... ....|C-3 2F.F ....|A-3 2F87 ....
....|..|A-2 2F.A ....|R-- .... ....|A-3 2F87 ....
....|..|--- .... ....|C-3 2F.7 ....|F-2 2F.F ....
 D-4|..|D-2 2A.F ....|F-3 2F.F ....|A#3 2F1F ....
....|..|--- .... ....|C-3 2F.A ....|A-3 2F87 ....
 D-4|..|D-2 2A.F ....|--- .... ....|A-3 2F87 ....
....|..|--- .... ....|C-3 2F.7 ....|--- .... ....
 D-4|..|D-2 2A.F ....|R-- .... ....|A-3 2F17 ....
....|..|--- .... ....|R-- .... ....|A-3 2F87 ....

[Pattern24]
 D-4|..|D-2 2A.F ....|F-3 2F.A ....|A-3 2F87 ....
....|..|--- .... ....|C-3 2F.7 ....|R-- .... ....
 D-4|..|D-2 2A.F ....|--- .... ....|F-2 2F.7 ....
....|..|--- .... ....|C-3 2F.7 ....|--- .... ....
 D-4|..|D-2 2A.F ....|R-- .... ....|R-- .... ....
....|..|--- .... ....|--- .... ....|F-2 2F.7 ....
 D-4|..|D-2 2A.F ....|F-3 2F.7 ....|A#3 2F17 ....
....|..|--- .... ....|--- .... ....|--- .... ....
 D-4|..|D-2 2A.F ....|--- .... ....|--- .... ....
....|..|--- .... ....|--- .... ....|--- .... ....
 D-4|..|D-2 2A.F ....|--- .... ....|--- .... ....
....|..|--- .... ....|--- .... ....|--- .... ....
 D-4|..|D-2 2A.F ....|--- .... ....|--- .... ....
....|..|--- .... ....|--- .... ....|--- .... ....
 D-4|..|D-2 2A.F ....|C-4 2F.F ....|A#3 2F1F ....
....|..|--- .... ....|--- .... ....|A#2 2F.F ....
 D-4|..|D-2 2A.F ....|--- .... ....|A#2 2F.F ....
....|..|--- .... ....|--- .... ....|R-- .... ....
 C-4|..|C-2 2A.F ....|F-4 2F.F ....|A-3 2F1F ....
....|..|--- .... ....|--- .... ....|--- .... ....
....|..|D-2 2F.7 ....|C-4 2F.A ....|A-3 2F8F ....
....|..|--- .... ....|R-- .... ....|A#2 2F.A ....
 A-3|..|A-2 2C.F ....|F-4 2F.F ....|A-3 2F1F ....
....|..|--- .... ....|--- .... ....|R-- .... ....
....|..|D-2 2F.7 ....|F-4 2F.A ....|A-3 2F8F ....
....|..|--- .... ....|R-- .... ....|--- .... ....
 A-3|..|A-2 2C.F ....|D#4 2F.F ....|A-3 2F1F ....
....|..|--- .... ....|R-- .... ....|A#2 2F.7 ....
....|..|D-2 2F.7 ....|F-4 2F.A ....|A-3 2F8F ....
....|..|--- .... ....|--- .... ....|R-- .... ....
 A-3|..|A-2 2C.F ....|G#4 2F.F ....|A-3 2F1F ....
....|..|--- .... ....|R-- .... ....|--- .... ....
....|..|A-2 2F.A ....|D#4 2F.A ....|A-3 2F8F ....
....|..|--- .... ....|R-- .... ....|--- .... ....
 A-3|..|A-2 2C.F ....|F-4 2F.7 ....|A-3 2F1F ....
....|..|--- .... ....|--- .... ....|A-3 2F8F ....
....|..|A-2 2F.A ....|G#4 2F.A ....|A-3 2F8F ....
 C-3|..|C-6 2C.F ....|R-- .... ....|--- .... ....
 A-3|..|A-2 2C.F ....|F-4 2F.F ....|A-3 2F1F ....
....|..|--- .... ....|--- .... ....|A-3 2F8F ....
....|..|A-2 2F.A ....|--- .... ....|A-3 2F8F ....
....|..|--- .... ....|--- .... ....|A-3 2F8A ....
 C-3|..|C-6 2C.F ....|G#4 2F.7 ....|A-3 2F1F ....
....|..|C-6 2F.A ....|--- .... ....|A-3 2F8F ....
....|..|A-2 2F.A ....|F-4 2F.A ....|A-3 2F8F ....
....|..|--- .... ....|--- .... ....|A-3 2F8A ....
 A-3|..|A-2 2C.F ....|--- .... ....|A-3 2F1F ....
....|..|--- .... ....|--- .... ....|A-3 2F.F ....
....|..|C-6 2F.A ....|R-- .... ....|A-3 2F87 ....
....|..|C-6 2F.7 ....|--- .... ....|A-3 2F8A ....
 A-3|..|A-2 2C.F ....|F-4 2F.7 ....|F-2 2F.F ....
....|..|--- .... ....|--- .... ....|F-1 2F.F ....
....|..|A-2 2F.A ....|--- .... ....|A-3 2F87 ....
 D-4|..|D-2 2A.F ....|--- .... ....|A-3 2F.A ....
 D-4|..|D-2 2A.F ....|C-4 2F.F ....|F-3 2F3F ....
....|..|--- .... ....|--- .... ....|A-3 2F87 ....
....|..|A-2 2F.A ....|--- .... ....|A-3 2F87 ....
....|..|--- .... ....|--- .... ....|F-1 2F.A ....
 C-4|..|C-2 2A.F ....|--- .... ....|A-3 2F17 ....
....|..|D-2 2F.A ....|--- .... ....|A-3 2F.7 ....
....|..|D-2 2F.A ....|C-4 2F.A ....|F-3 2F3A ....
....|..|--- .... ....|--- .... ....|--- .... ....
....|..|A-2 2F.7 ....|C-4 2F.F ....|F-2 2F.7 ....
....|..|--- .... ....|--- .... ....|F-1 2F.7 ....
....|..|C-2 2F.A ....|--- .... ....|A-3 2F1F ....
....|..|D-2 2F.7 ....|D-4 2F.F ....|F-2 2F.F ....
 F#4|..|F#2 2A.F ....|C-4 2F.7 ....|F-3 2F5F ....
....|..|C-4 LF.F ....|--- .... ....|F-3 2FEF ....
....|..|--- .... ....|C-4 2F.A ....|--- .... ....
....|..|--- .... ....|--- .... ....|F-3 2F.F ....
....|..|C-2 2F.7 ....|F-4 2F.F ....|A#1 2F.F ....
....|..|--- .... ....|D-4 2F.A ....|F-2 2F.A ....
....|..|F#2 2F.A ....|R-- .... ....|F-3 2F5A ....
....|..|C-4 LF.A ....|--- .... ....|F-3 2FEA ....
....|..|--- .... ....|C-4 2F.7 ....|--- .... ....
....|..|--- .... ....|--- .... ....|F-3 2F.A ....
....|..|R-- .... ....|F-4 2F.A ....|A-3 2F17 ....
....|..|--- .... ....|D-4 2F.7 ....|F-2 2F.7 ....
....|..|B-8 JF.F ....|--- .... ....|F-3 2FEF ....
 F#4|..|F#2 2A.F ....|--- .... ....|F-3 2FE7 ....
....|..|--- .... ....|R-- .... ....|D-4 2F.F ....
....|..|--- .... ....|--- .... ....|A#1 2F.F ....
....|..|R-- .... ....|F-4 2F.7 ....|A#1 2F.7 ....
....|..|--- .... ....|--- .... ....|--- .... ....
....|..|B-8 JF.A ....|--- .... ....|F-3 2FEA ....
....|..|F#2 2F.A ....|--- .... ....|R-- .... ....
 C#4|..|C#6 2C.F ....|R-- .... ....|A#2 2F.F ....
....|..|--- .... ....|--- .... ....|A#1 2F.A ....
....|..|R-- .... ....|--- .... ....|--- .... ....
....|..|--- .... ....|--- .... ....|R-- .... ....
....|..|C-4 LF.F ....|D-4 2F.F ....|A-3 2FBF ....
 C#4|..|C#6 2C.F ....|--- .... ....|R-- .... ....
....|..|C#6 2F.A ....|R-- .... ....|D-2 2F.F ....
....|..|--- .... ....|--- .... ....|A#1 2F.7 ....
....|..|R-- .... ....|--- .... ....|--- .... ....
....|..|--- .... ....|--- .... ....|R-- .... ....
....|..|C-4 LF.A ....|D-4 2F.A ....|A-3 2FBA ....
....|..|C#6 2F.A ....|--- .... ....|R-- .... ....
....|..|C#6 2F.7 ....|--- .... ....|A#2 2F.7 ....
....|..|--- .... ....|--- .... ....|--- .... ....
....|..|R-- .... ....|--- .... ....|--- .... ....
....|..|--- .... ....|--- .... ....|R-- .... ....
....|..|C-4 LF.F ....|F-4 2F.F ....|A-3 2FBF ....
 F#4|..|F#2 2A.F ....|--- .... ....|--- .... ....
....|..|--- .... ....|--- .... ....|D-2 2F.F ....
....|..|--- .... ....|--- .... ....|--- .... ....
....|..|R-- .... ....|--- .... ....|--- .... ....
....|..|--- .... ....|--- .... ....|R-- .... ....
....|..|C-4 LF.A ....|F-4 2F.A ....|A-3 2FBA ....
....|..|F#2 2F.A ....|--- .... ....|--- .... ....
....|..|--- .... ....|--- .... ....|D-2 2F.F ....
....|..|C-4 LF.F ....|--- .... ....|--- .... ....
....|..|--- .... ....|R-- .... ....|--- .... ....
....|..|--- .... ....|--- .... ....|R-- .... ....
 F#4|..|F#2 2A.F ....|A#4 2F.F ....|D-4 2F.F ....
....|..|C-4 LF.F ....|--- .... ....|--- .... ....
....|..|--- .... ....|--- .... ....|A#4 2F.F ....
....|..|C-4 LF.A ....|--- .... ....|G-2 2F.F ....
....|..|--- .... ....|R-- .... ....|--- .... ....
....|..|--- .... ....|--- .... ....|R-- .... ....
....|..|F#2 2F.A ....|A#4 2F.A ....|D-4 2F.A ....
....|..|C-4 LF.A ....|--- .... ....|--- .... ....
....|..|--- .... ....|A#4 2F.F ....|D-2 2F.7 ....
....|..|C-4 LF.7 ....|--- .... ....|G-2 2F.A ....
....|..|--- .... ....|R-- .... ....|--- .... ....
....|..|--- .... ....|--- .... ....|--- .... ....
 F#4|..|F#2 2A.F ....|A#4 2F.7 ....|D-4 2FBF ....
....|..|C-4 LF.7 ....|--- .... ....|--- .... ....

[Pattern25]
....|..|--- .... ....|A#4 2F.A ....|A#4 2F.7 ....
....|..|--- .... ....|--- .... ....|G-2 2F.F ....
....|..|--- .... ....|--- .... ....|--- .... ....
....|..|--- .... ....|--- .... ....|--- .... ....
....|..|F#2 2F.A ....|R-- .... ....|D-4 2FBA ....
....|..|R-- .... ....|A-4 2F.F ....|R-- .... ....
....|..|C-4 LF.F ....|A#4 2F.7 ....|F-2 2F.F ....
 C#4|..|C#6 2C.F ....|--- .... ....|G-2 2F.A ....
....|..|--- .... ....|--- .... ....|--- .... ....
....|..|--- .... ....|--- .... ....|--- .... ....
....|..|C-4 9F.F ....|F-4 2F.F ....|D-4 2F6F ....
 C#4|..|C#6 2C.F ....|A-4 2F.A ....|R-- .... ....
....|..|C-4 LF.A ....|--- .... ....|D-2 2F.F ....
....|..|C#6 2F.A ....|D-4 2F1F ....|G-2 2F.7 ....
....|..|--- .... ....|D-4 2F.F ....|--- .... ....
....|..|--- .... ....|--- .... ....|--- .... ....
....|..|C-4 9F.A ....|F-4 2F.A ....|D-4 2F6A ....
....|..|C#6 2F.A ....|F-4 2F.F ....|R-- .... ....
 C-4|..|C-2 2A.F ....|--- .... ....|F-2 2F.7 ....
....|..|C#6 2F.7 ....|D-4 2F1A ....|--- .... ....
....|..|--- .... ....|D-4 2F.A ....|--- .... ....
....|..|--- .... ....|--- .... ....|--- .... ....
....|..|C-4 LF.F ....|F-4 2F.7 ....|D-4 2F6F ....
 F#4|..|F#2 2A.F ....|F-4 2F.A ....|--- .... ....
....|..|C-2 2F.A ....|--- .... ....|D-2 2F.7 ....
....|..|R-- .... ....|D-4 2F17 ....|D-2 2F.F ....
....|..|--- .... ....|D-4 2F.7 ....|--- .... ....
....|..|--- .... ....|--- .... ....|--- .... ....
....|..|C-4 LF.A ....|--- .... ....|D-4 2F6A ....
....|..|F#2 2F.A ....|F-4 2F.7 ....|--- .... ....
....|..|C-4 LF.F ....|--- .... ....|F-2 2F.F ....
 C#4|..|C#6 2C.F ....|--- .... ....|D-2 2F.A ....
....|..|--- .... ....|--- .... ....|--- .... ....
....|..|R-- .... ....|--- .... ....|R-- .... ....
....|..|C-4 LF.F ....|A#4 2F.F ....|D-4 2FBF ....
 C#4|..|C#6 2C.F ....|R-- .... ....|--- .... ....
....|..|C-4 LF.A ....|R-- .... ....|D-4 2F5F ....
....|..|C#6 2F.A ....|--- .... ....|G-2 2F.F ....
....|..|--- .... ....|A#4 2F.F ....|--- .... ....
....|..|R-- .... ....|--- .... ....|R-- .... ....
....|..|C-4 LF.A ....|A#4 2F.A ....|D-4 2FBA ....
....|..|C#6 2F.A ....|R-- .... ....|--- .... ....
....|..|C-4 LF.7 ....|A#4 2F.F ....|F-2 2F.7 ....
....|..|C#6 2F.7 ....|--- .... ....|G-2 2F.A ....
....|..|--- .... ....|A#4 2F.A ....|--- .... ....
....|..|R-- .... ....|--- .... ....|R-- .... ....
 F#4|..|F#2 2A.F ....|A#4 2F.7 ....|D-4 2FBF ....
....|..|C#6 2F.7 ....|--- .... ....|--- .... ....
....|..|R-- .... ....|A#4 2F.A ....|G-2 2F.F ....
....|..|--- .... ....|--- .... ....|G-2 2F.7 ....
....|..|--- .... ....|A-4 2F2F ....|R-- .... ....
....|..|--- .... ....|A-4 2F.F ....|--- .... ....
....|..|F#2 2F.A ....|R-- .... ....|D-4 2FBA ....
....|..|--- .... ....|R-- .... ....|--- .... ....
....|..|--- .... ....|A-4 2F.F ....|F-2 2F.F ....
....|..|--- .... ....|--- .... ....|--- .... ....
....|..|R-- .... ....|A-4 2F2A ....|R-- .... ....
....|..|--- .... ....|A-4 2F.A ....|R-- .... ....
....|..|C-4 LF.F ....|G-4 2F4F ....|C#4 2F1F ....
 F#4|..|F#2 2A.F ....|G-4 2F.F ....|--- .... ....
....|..|--- .... ....|A-4 2F.A ....|G-2 2F.7 ....
....|..|--- .... ....|E-4 2F1F ....|--- .... ....
....|..|R-- .... ....|E-4 2F.F ....|A-3 2F.F ....
....|..|--- .... ....|A-4 2F.7 ....|R-- .... ....
....|..|C-4 LF.A ....|G-4 2F4A ....|A-3 2F.F ....
....|..|F#2 2F.A ....|F-4 2F.F ....|--- .... ....
 C-4|..|C-2 2A.F ....|A-4 2F.7 ....|A-3 2FBF ....
....|..|--- .... ....|E-4 2F1A ....|--- .... ....
....|..|R-- .... ....|E-4 2F.A ....|A-3 2F.A ....
....|..|--- .... ....|--- .... ....|R-- .... ....
....|..|C-4 LF.F ....|G-4 2F47 ....|A-3 2FBF ....
 F#4|..|F#2 2A.F ....|G-4 2F.7 ....|--- .... ....
....|..|C-2 2F.A ....|--- .... ....|A-3 2FBA ....
....|..|--- .... ....|E-4 2F17 ....|--- .... ....
....|..|R-- .... ....|E-4 2F.7 ....|A-3 2F.7 ....
....|..|--- .... ....|--- .... ....|--- .... ....
....|..|C-4 LF.A ....|--- .... ....|A-3 2F.7 ....
....|..|F#2 2F.A ....|F-4 2F.7 ....|--- .... ....
 C#4|..|C#6 2C.F ....|R-- .... ....|A-3 2F5F ....
....|..|--- .... ....|--- .... ....|A-3 2F5F ....
....|..|--- .... ....|--- .... ....|D-4 2F.F ....
....|..|--- .... ....|--- .... ....|R-- .... ....
....|..|C-4 LF.F ....|G-4 2F.F ....|G-3 2F3F ....
 C#4|..|C#6 2C.F ....|--- .... ....|--- .... ....
....|..|C#6 2F.A ....|R-- .... ....|A-3 2F5A ....
....|..|--- .... ....|A-4 2F.F ....|G-1 2F.F ....
....|..|R-- .... ....|--- .... ....|D-4 2F.A ....
....|..|--- .... ....|--- .... ....|R-- .... ....
....|..|C-4 LF.A ....|G-4 2F.A ....|G-3 2F3A ....
....|..|C#6 2F.A ....|G-4 2F.F ....|R-- .... ....
....|..|C#6 2F.7 ....|R-- .... ....|A-3 2F57 ....
....|..|--- .... ....|A-4 2F.A ....|A-3 2F57 ....
....|..|R-- .... ....|--- .... ....|D-4 2F.7 ....
....|..|--- .... ....|--- .... ....|R-- .... ....
....|..|C-4 LF.F ....|G-4 2F.7 ....|A-3 2F8F ....
 F#4|..|F#2 2A.F ....|G-4 2F.A ....|R-- .... ....
....|..|--- .... ....|--- .... ....|--- .... ....
....|..|R-- .... ....|A-4 2F.7 ....|F-4 2F.F ....
....|..|R-- .... ....|R-- .... ....|A-1 2F.F ....
....|..|--- .... ....|--- .... ....|--- .... ....
....|..|C-4 LF.A ....|R-- .... ....|A-3 2F8A ....
....|..|F#2 2F.A ....|G-4 2F.F ....|R-- .... ....
....|..|--- .... ....|--- .... ....|--- .... ....
....|..|R-- .... ....|R-- .... ....|F-4 2F.A ....
....|..|--- .... ....|R-- .... ....|A-1 2F.A ....
....|..|--- .... ....|--- .... ....|--- .... ....
....|..|C-4 LF.F ....|E-4 2F.F ....|B-3 2FFF ....
 F#4|..|F#2 2A.F ....|G-4 2F.A ....|--- .... ....
....|..|--- .... ....|--- .... ....|--- .... ....
....|..|R-- .... ....|R-- .... ....|B-1 2F.F ....
....|..|--- .... ....|R-- .... ....|A-1 2F.7 ....
....|..|R-- .... ....|--- .... ....|--- .... ....
....|..|C-4 LF.A ....|E-4 2F.A ....|B-3 2FFA ....
....|..|F#2 2F.A ....|G-4 2F.7 ....|--- .... ....
....|..|--- .... ....|E-4 2F.F ....|--- .... ....
....|..|C-4 LF.F ....|R-- .... ....|B-1 2F.A ....
....|..|--- .... ....|--- .... ....|--- .... ....
....|..|R-- .... ....|R-- .... ....|--- .... ....
 F#4|..|F#2 2A.F ....|D-4 2F.F ....|G-3 2FEF ....
....|..|F#2 2F.7 ....|R-- .... ....|--- .... ....
....|..|--- .... ....|E-4 2F.A ....|--- .... ....
....|..|C-4 LF.A ....|--- .... ....|B-1 2F.7 ....
....|..|--- .... ....|--- .... ....|--- .... ....
....|..|R-- .... ....|R-- .... ....|--- .... ....
....|..|F#2 2F.A ....|D-4 2F.A ....|G-3 2FEA ....
....|..|--- .... ....|R-- .... ....|--- .... ....
 D-4|..|D-2 2A.F ....|E-4 2F.7 ....|--- .... ....
 D-4|..|D-2 2A.F ....|--- .... ....|--- .... ....

[Pattern26]
....|..|--- .... ....|--- .... ....|--- .... ....
 D-4|..|D-2 2A.F ....|R-- .... ....|--- .... ....
 C#4|..|C#6 2C.F ....|D-4 2F.7 ....|G-3 2FE7 ....
....|..|--- .... ....|--- .... ....|--- .... ....
....|..|D-2 2F.A ....|--- .... ....|--- .... ....
....|..|D-2 2F.A ....|--- .... ....|G-3 2F5F ....
....|..|--- .... ....|--- .... ....|R-- .... ....
....|..|D-2 2F.A ....|--- .... ....|--- .... ....
....|..|C#6 2F.A ....|--- .... ....|--- .... ....
....|..|R-- .... ....|--- .... ....|--- .... ....
 C#4|..|C#3 2C.F ....|--- .... ....|F-3 2FEF ....
....|..|D-2 2F.7 ....|R-- .... ....|G-3 2F5A ....
....|..|--- .... ....|--- .... ....|R-- .... ....
....|..|D-2 2F.7 ....|--- .... ....|--- .... ....
....|..|C#6 2F.7 ....|--- .... ....|--- .... ....
....|..|R-- .... ....|--- .... ....|--- .... ....
....|..|C#3 2F.A ....|--- .... ....|F-3 2FEA ....
....|..|--- .... ....|R-- .... ....|G-3 2F57 ....
....|..|--- .... ....|--- .... ....|R-- .... ....
....|..|--- .... ....|--- .... ....|--- .... ....
....|..|--- .... ....|--- .... ....|--- .... ....
....|..|R-- .... ....|--- .... ....|--- .... ....
....|..|C#3 2F.7 ....|--- .... ....|F-3 2FE7 ....
....|..|--- .... ....|R-- .... ....|--- .... ....
....|..|--- .... ....|--- .... ....|--- .... ....
....|..|--- .... ....|--- .... ....|--- .... ....
....|..|--- .... ....|--- .... ....|--- .... ....
....|..|--- .... ....|--- .... ....|--- .... ....
....|..|--- .... ....|--- .... ....|--- .... ....
....|..|--- .... ....|--- .... ....|--- .... ....
....|..|--- .... ....|--- .... ....|--- .... ....
....|..|--- .... ....|--- .... ....|--- .... ....
....|..|--- .... ....|--- .... ....|--- .... ....
....|..|--- .... ....|A#4 2F.F ....|A#1 2F.F ....
....|..|--- .... ....|--- .... ....|F-3 2F.F ....
....|..|--- .... ....|--- .... ....|--- .... ....
....|..|--- .... ....|--- .... ....|--- .... ....
....|..|--- .... ....|--- .... ....|--- .... ....
....|..|--- .... ....|--- .... ....|F-3 2F5F ....
....|..|--- .... ....|A#4 2F.A ....|A#1 2F.A ....
....|..|--- .... ....|--- .... ....|A#3 2F.F ....
....|..|--- .... ....|--- .... ....|--- .... ....
....|..|--- .... ....|--- .... ....|A#3 2F3F ....
....|..|--- .... ....|--- .... ....|D-4 2F.F ....
....|..|--- .... ....|--- .... ....|F-3 2F5A ....
....|..|--- .... ....|A#4 2F.7 ....|A#1 2F.7 ....
....|..|--- .... ....|--- .... ....|D-4 2F1F ....
....|..|--- .... ....|--- .... ....|F-4 2F.F ....
....|..|--- .... ....|R-- .... ....|A#3 2F3A ....
....|..|--- .... ....|--- .... ....|D-4 2F.A ....
 C#4|..|C#6 2C.F ....|A-4 2F.F ....|A-1 2F.F ....
....|..|--- .... ....|--- .... ....|--- .... ....
....|..|--- .... ....|--- .... ....|A#3 2F.7 ....
....|..|--- .... ....|R-- .... ....|F-4 2F.A ....
....|..|--- .... ....|A-4 2F.F ....|A#3 2F37 ....
....|..|--- .... ....|--- .... ....|D-4 2F.7 ....
....|..|C#6 2F.A ....|A-4 2F.A ....|A-1 2F.A ....
....|..|--- .... ....|--- .... ....|--- .... ....
....|..|--- .... ....|A-4 2F.F ....|A-3 2F.F ....
....|..|--- .... ....|R-- .... ....|F-4 2F.7 ....
....|..|--- .... ....|A-4 2F.A ....|--- .... ....
....|..|--- .... ....|--- .... ....|R-- .... ....
 F#4|..|F#2 2A.F ....|A-4 2F.7 ....|A-3 2FAF ....
....|..|--- .... ....|--- .... ....|C#4 2F1F ....
....|..|--- .... ....|A-4 2F.A ....|A-3 2F.A ....
....|..|--- .... ....|R-- .... ....|C#4 2F1F ....
....|..|--- .... ....|A-4 2F.7 ....|--- .... ....
....|..|--- .... ....|--- .... ....|--- .... ....
....|..|F#2 2F.A ....|R-- .... ....|A-3 2FAA ....
....|..|--- .... ....|A-4 2F.F ....|C#4 2F1A ....
 C#4|..|C#6 2C.F ....|A-4 2F.7 ....|A-3 2F.F ....
....|..|--- .... ....|--- .... ....|C#4 2F1A ....
....|..|--- .... ....|--- .... ....|--- .... ....
....|..|--- .... ....|R-- .... ....|--- .... ....
 C#4|..|C#6 2C.F ....|F-4 2F.F ....|D-2 2F.F ....
....|..|--- .... ....|A-4 2F.A ....|C#4 2F17 ....
....|..|C#6 2F.A ....|--- .... ....|A-3 2F.A ....
....|..|--- .... ....|E-4 2F.F ....|C#4 2F17 ....
....|..|--- .... ....|--- .... ....|--- .... ....
....|..|--- .... ....|R-- .... ....|--- .... ....
....|..|C#6 2F.A ....|F-4 2F.A ....|D-2 2F.A ....
....|..|--- .... ....|D-4 2F.F ....|R-- .... ....
 C-4|..|C-2 2A.F ....|--- .... ....|A-3 2F.F ....
....|..|--- .... ....|E-4 2F.A ....|--- .... ....
....|..|--- .... ....|--- .... ....|--- .... ....
....|..|--- .... ....|R-- .... ....|--- .... ....
 F#4|..|F#2 2A.F ....|F-4 2F.7 ....|D-4 2F1F ....
....|..|--- .... ....|D-4 2F.A ....|F-4 2F.F ....
....|..|C-2 2F.A ....|--- .... ....|A-3 2F.A ....
....|..|--- .... ....|E-4 2F.7 ....|--- .... ....
....|..|--- .... ....|--- .... ....|--- .... ....
....|..|--- .... ....|R-- .... ....|--- .... ....
....|..|F#2 2F.A ....|--- .... ....|D-4 2F1A ....
....|..|--- .... ....|D-4 2F.7 ....|F-4 2F.A ....
....|..|C-2 2F.7 ....|G-3 2F.F ....|A-3 2F.F ....
....|..|--- .... ....|--- .... ....|--- .... ....
....|..|--- .... ....|--- .... ....|--- .... ....
....|..|--- .... ....|R-- .... ....|D-2 2F.F ....
 C#4|..|C#6 2C.F ....|G-4 2F.F ....|G-1 2F.F ....
....|..|--- .... ....|G-4 2F.F ....|F-4 2F.7 ....
....|..|--- .... ....|G-3 2F.A ....|A-3 2F.A ....
....|..|--- .... ....|--- .... ....|--- .... ....
....|..|--- .... ....|--- .... ....|--- .... ....
....|..|--- .... ....|R-- .... ....|D-2 2F.A ....
....|..|C#6 2F.A ....|G-4 2F.A ....|G-1 2F.A ....
....|..|--- .... ....|G-4 2F.A ....|--- .... ....
....|..|--- .... ....|G-4 2F.F ....|G-3 2F.F ....
....|..|--- .... ....|--- .... ....|--- .... ....
....|..|--- .... ....|R-- .... ....|--- .... ....
....|..|--- .... ....|R-- .... ....|G-1 2F.F ....
 F#4|..|F#2 2A.F ....|G-4 2F.F ....|B-3 2FFF ....
....|..|--- .... ....|G-4 2F.7 ....|--- .... ....
....|..|--- .... ....|G-4 2F.A ....|G-3 2F.A ....
....|..|--- .... ....|--- .... ....|B-3 2FFF ....
....|..|--- .... ....|R-- .... ....|--- .... ....
....|..|--- .... ....|R-- .... ....|G-1 2F.A ....
....|..|F#2 2F.A ....|G-4 2F.A ....|B-3 2FFA ....
....|..|--- .... ....|R-- .... ....|D-4 2F.F ....
 C#4|..|C#6 2C.F ....|F-4 2F.F ....|G-3 2F.F ....
....|..|--- .... ....|--- .... ....|B-3 2FFA ....
....|..|--- .... ....|R-- .... ....|--- .... ....
....|..|--- .... ....|R-- .... ....|G-1 2F.7 ....
 C#4|..|C#6 2C.F ....|D#4 2F.F ....|C-2 2F.F ....
....|..|--- .... ....|R-- .... ....|D-4 2F.A ....
....|..|C#6 2F.A ....|F-4 2F.A ....|G-3 2F.A ....
....|..|--- .... ....|--- .... ....|B-3 2FF7 ....
....|..|--- .... ....|D-4 2F.F ....|--- .... ....
....|..|--- .... ....|R-- .... ....|--- .... ....

[Pattern27]
....|..|C#6 2F.A ....|D#4 2F.A ....|C-2 2F.A ....
....|..|--- .... ....|R-- .... ....|D-4 2F.7 ....
 C-4|..|C-2 2A.F ....|C-4 2F.F ....|G-3 2F.F ....
....|..|--- .... ....|--- .... ....|--- .... ....
....|..|--- .... ....|D-4 2F.A ....|--- .... ....
....|..|--- .... ....|R-- .... ....|C-2 2F.F ....
 F#4|..|F#2 2A.F ....|D#4 2F.7 ....|C-4 2F3F ....
....|..|--- .... ....|R-- .... ....|E-4 2F.F ....
....|..|C-2 2F.A ....|C-4 2F.A ....|G-3 2F.A ....
....|..|--- .... ....|--- .... ....|--- .... ....
....|..|--- .... ....|D-4 2F.7 ....|--- .... ....
....|..|--- .... ....|--- .... ....|C-2 2F.A ....
....|..|F#2 2F.A ....|--- .... ....|C-4 2F3A ....
....|..|--- .... ....|R-- .... ....|E-4 2F.F ....
 D-4|..|D-2 2A.F ....|C-4 2F.7 ....|G-3 2F.F ....
 D-4|..|D-2 2A.F ....|--- .... ....|--- .... ....
....|..|--- .... ....|--- .... ....|--- .... ....
 D-4|..|D-2 2A.F ....|--- .... ....|C-2 2F.7 ....
 D-4|..|D-2 2A.F ....|R-- .... ....|G-3 2FEF ....
....|..|--- .... ....|--- .... ....|C-4 2F3F ....
....|..|D-2 2F.A ....|--- .... ....|G-3 2F.A ....
....|..|D-2 2F.A ....|--- .... ....|C-2 2F.F ....
....|..|--- .... ....|--- .... ....|R-- .... ....
....|..|D-2 2F.A ....|--- .... ....|--- .... ....
....|..|D-2 2F.A ....|R-- .... ....|G-3 2FEA ....
....|..|--- .... ....|--- .... ....|E-4 2F.7 ....
 C#4|..|C#3 2C.F ....|--- .... ....|F-3 2FEF ....
....|..|D-2 2F.7 ....|--- .... ....|C-2 2F.A ....
....|..|--- .... ....|--- .... ....|R-- .... ....
....|..|D-2 2F.7 ....|--- .... ....|--- .... ....
....|..|D-2 2F.7 ....|D-4 2F.F ....|G-3 2FE7 ....
....|..|--- .... ....|--- .... ....|C-4 2F37 ....
....|..|C#3 2F.A ....|--- .... ....|F-3 2FEA ....
....|..|--- .... ....|R-- .... ....|C-2 2F.7 ....
....|..|--- .... ....|C-4 2F.F ....|R-- .... ....
....|..|--- .... ....|--- .... ....|--- .... ....
....|..|--- .... ....|D-4 2F.A ....|--- .... ....
....|..|--- .... ....|R-- .... ....|--- .... ....
....|..|C#3 2F.7 ....|D-4 2F.F ....|F-3 2FE7 ....
....|..|--- .... ....|R-- .... ....|--- .... ....
....|..|--- .... ....|C-4 2F.A ....|--- .... ....
....|..|--- .... ....|--- .... ....|--- .... ....
....|..|--- .... ....|D-4 2F.7 ....|--- .... ....
....|..|--- .... ....|R-- .... ....|--- .... ....
....|..|--- .... ....|D-4 2F.A ....|--- .... ....
....|..|--- .... ....|R-- .... ....|--- .... ....
....|..|--- .... ....|C-4 2F.7 ....|--- .... ....
....|..|--- .... ....|--- .... ....|--- .... ....
....|..|--- .... ....|--- .... ....|--- .... ....
....|..|--- .... ....|R-- .... ....|A#3 2F3F ....
....|..|--- .... ....|D-4 2F.7 ....|F-3 2F.F ....
....|..|--- .... ....|--- .... ....|--- .... ....
....|..|--- .... ....|--- .... ....|--- .... ....
....|..|--- .... ....|--- .... ....|--- .... ....
....|..|--- .... ....|--- .... ....|F-3 2F5F ....
....|..|--- .... ....|--- .... ....|A#3 2F3A ....
....|..|--- .... ....|--- .... ....|A#3 2F.F ....
....|..|--- .... ....|--- .... ....|--- .... ....
....|..|--- .... ....|--- .... ....|A#3 2F3F ....
....|..|--- .... ....|--- .... ....|D-4 2F.F ....
....|..|--- .... ....|--- .... ....|F-3 2F5A ....
....|..|--- .... ....|--- .... ....|A#3 2F37 ....
....|..|--- .... ....|--- .... ....|D-4 2F1F ....
....|..|--- .... ....|--- .... ....|F-4 2F.F ....
....|..|--- .... ....|--- .... ....|A#3 2F3A ....
....|..|--- .... ....|--- .... ....|A#1 2F.F ....
 C#4|..|C#6 2C.F ....|A-3 2F5F ....|F-2 2F.F ....
....|..|--- .... ....|A-3 2F.F ....|--- .... ....
....|..|--- .... ....|--- .... ....|A#3 2F.7 ....
....|..|--- .... ....|--- .... ....|F-4 2F.A ....
....|..|--- .... ....|--- .... ....|A#3 2F37 ....
....|..|--- .... ....|--- .... ....|D-4 2F.7 ....
....|..|C#6 2F.A ....|A-3 2F5A ....|F-2 2F.A ....
....|..|--- .... ....|A-3 2F.A ....|--- .... ....
....|..|--- .... ....|--- .... ....|F-2 2F.F ....
....|..|--- .... ....|--- .... ....|F-4 2F.7 ....
....|..|--- .... ....|--- .... ....|--- .... ....
....|..|--- .... ....|--- .... ....|F-2 2F.F ....
 C#4|..|C#6 2C.F ....|A-3 2F57 ....|A-3 2F1F ....
....|..|--- .... ....|A-3 2F.7 ....|--- .... ....
....|..|--- .... ....|--- .... ....|F-2 2F.A ....
....|..|--- .... ....|--- .... ....|--- .... ....
....|..|--- .... ....|--- .... ....|--- .... ....
....|..|--- .... ....|--- .... ....|A-3 2F1F ....
....|..|C#6 2F.A ....|--- .... ....|A-3 2F1A ....
....|..|--- .... ....|--- .... ....|F-2 2F.F ....
....|..|--- .... ....|--- .... ....|F-2 2F.F ....
....|..|--- .... ....|--- .... ....|--- .... ....
....|..|--- .... ....|--- .... ....|--- .... ....
....|..|--- .... ....|--- .... ....|F-2 2F.7 ....
 C#4|..|C#6 2C.F ....|--- .... ....|F-3 2F5F ....
....|..|--- .... ....|--- .... ....|F-2 2F.A ....
....|..|--- .... ....|--- .... ....|F-2 2F.A ....
....|..|--- .... ....|--- .... ....|A#3 2F3F ....
....|..|--- .... ....|--- .... ....|--- .... ....
....|..|--- .... ....|--- .... ....|A-3 2F17 ....
....|..|C#6 2F.A ....|--- .... ....|F-2 2F.F ....
....|..|--- .... ....|--- .... ....|F-2 2F.7 ....
 C-4|..|C-2 2A.F ....|--- .... ....|F-2 2F.F ....
....|..|--- .... ....|--- .... ....|A#3 2F3A ....
....|..|--- .... ....|--- .... ....|F-2 2F.F ....
....|..|--- .... ....|--- .... ....|--- .... ....
....|..|C-4 LF.F ....|--- .... ....|G-3 2F1F ....
 C#4|..|C#6 2C.F ....|--- .... ....|--- .... ....
....|..|C-2 2F.A ....|--- .... ....|F-2 2F.A ....
....|..|--- .... ....|--- .... ....|A#3 2F37 ....
....|..|--- .... ....|--- .... ....|F-2 2F.A ....
....|..|--- .... ....|--- .... ....|--- .... ....
....|..|C-4 LF.A ....|--- .... ....|G-3 2F8F ....
....|..|C#6 2F.A ....|--- .... ....|G-3 2F8F ....
....|..|C-2 2F.7 ....|--- .... ....|F-2 2F.7 ....
....|..|--- .... ....|--- .... ....|--- .... ....
....|..|--- .... ....|--- .... ....|F-2 2F.7 ....
....|..|--- .... ....|--- .... ....|--- .... ....
 C#4|..|C#6 2C.F ....|--- .... ....|G-3 2F1F ....
....|..|C#6 2F.7 ....|R-- .... ....|G-3 2F8A ....
....|..|--- .... ....|--- .... ....|--- .... ....
....|..|--- .... ....|--- .... ....|A#3 2F5F ....
....|..|--- .... ....|--- .... ....|--- .... ....
....|..|--- .... ....|--- .... ....|--- .... ....
....|..|C#6 2F.A ....|--- .... ....|F-2 2F.F ....
....|..|--- .... ....|R-- .... ....|F-2 2F.F ....
 C-4|..|C-2 2A.F ....|A-3 2F.F ....|F-2 2F.F ....
....|..|--- .... ....|--- .... ....|A#3 2F5A ....
....|..|--- .... ....|--- .... ....|--- .... ....
....|..|--- .... ....|--- .... ....|F-2 2F.F ....
 C#4|..|C#6 2C.F ....|F-4 2F.F ....|A-3 2F1F ....
....|..|--- .... ....|R-- .... ....|F-2 2F.A ....

[Pattern28]
....|..|C-2 2F.A ....|A-3 2F.A ....|F-2 2F.A ....
....|..|--- .... ....|R-- .... ....|A#3 2F57 ....
....|..|--- .... ....|F-4 2F.F ....|--- .... ....
....|..|--- .... ....|--- .... ....|A-3 2F1F ....
....|..|C#6 2F.A ....|F-4 2F.A ....|F-2 2F.7 ....
....|..|--- .... ....|--- .... ....|F-2 2F.F ....
....|..|C-2 2F.7 ....|D-4 2F.F ....|F-3 2F.F ....
....|..|--- .... ....|R-- .... ....|F-3 2F.F ....
....|..|--- .... ....|F-4 2F.A ....|--- .... ....
....|..|--- .... ....|--- .... ....|F-2 2F.7 ....
 C#4|..|C#6 2C.F ....|F-4 2F.7 ....|F-3 2F5F ....
....|..|--- .... ....|--- .... ....|F-2 2F.A ....
....|..|--- .... ....|D-4 2F.A ....|F-3 2F.A ....
....|..|--- .... ....|R-- .... ....|A#3 2F3F ....
....|..|--- .... ....|F-4 2F.7 ....|A#2 2F.F ....
....|..|--- .... ....|--- .... ....|D-4 2F.F ....
....|..|C#6 2F.A ....|--- .... ....|F-3 2F5A ....
....|..|--- .... ....|--- .... ....|F-2 2F.7 ....
 C-4|..|C-2 2A.F ....|D-4 2F.7 ....|F-3 2F.F ....
....|..|--- .... ....|--- .... ....|F-3 2F.7 ....
....|..|--- .... ....|--- .... ....|A#2 2F.A ....
....|..|--- .... ....|--- .... ....|D-4 2F.A ....
....|..|C-4 LF.F ....|--- .... ....|G-3 2F1F ....
 C#4|..|C#6 2C.F ....|--- .... ....|--- .... ....
....|..|C-2 2F.A ....|--- .... ....|F-3 2F.A ....
....|..|--- .... ....|--- .... ....|G-3 2F1F ....
....|..|R-- .... ....|--- .... ....|G-2 2F.F ....
....|..|--- .... ....|--- .... ....|D-4 2F.7 ....
....|..|C-4 LF.A ....|--- .... ....|G-3 2F1A ....
....|..|C-4 LF.F ....|--- .... ....|--- .... ....
 C#4|..|C#3 2C.F ....|--- .... ....|G-3 2F8F ....
....|..|--- .... ....|--- .... ....|G-3 2F1A ....
....|..|R-- .... ....|--- .... ....|G-2 2F.A ....
....|..|--- .... ....|R-- .... ....|R-- .... ....
 C#4|..|C#6 2C.F ....|--- .... ....|G-3 2F1F ....
....|..|C#6 2F.7 ....|--- .... ....|--- .... ....
....|..|C#3 2F.A ....|--- .... ....|G-3 2F8A ....
....|..|--- .... ....|--- .... ....|G-3 2F17 ....
....|..|R-- .... ....|--- .... ....|G-2 2F.7 ....
....|..|--- .... ....|R-- .... ....|R-- .... ....
....|..|C#6 2F.A ....|--- .... ....|A#3 2F5F ....
....|..|C-4 LF.7 ....|--- .... ....|--- .... ....
 C-4|..|C-2 2A.F ....|--- .... ....|F-3 2F5F ....
....|..|--- .... ....|--- .... ....|--- .... ....
....|..|--- .... ....|--- .... ....|F-3 2F5F ....
....|..|--- .... ....|R-- .... ....|--- .... ....
 C#4|..|C#6 2C.F ....|--- .... ....|F-3 2F.F ....
....|..|--- .... ....|--- .... ....|F-2 2F.F ....
....|..|C-2 2F.A ....|--- .... ....|F-3 2F5A ....
....|..|--- .... ....|--- .... ....|--- .... ....
....|..|--- .... ....|--- .... ....|F-3 2F5A ....
....|..|--- .... ....|--- .... ....|--- .... ....
....|..|C#6 2F.A ....|--- .... ....|A#3 2F57 ....
....|..|--- .... ....|--- .... ....|F-2 2F.A ....
....|..|C-2 2F.7 ....|--- .... ....|F-3 2F.F ....
....|..|--- .... ....|--- .... ....|--- .... ....
....|..|--- .... ....|--- .... ....|F-3 2F57 ....
....|..|--- .... ....|--- .... ....|R-- .... ....
 C#4|..|C#6 2C.F ....|--- .... ....|F-3 2F5F ....
....|..|--- .... ....|--- .... ....|F-2 2F.7 ....
....|..|--- .... ....|--- .... ....|F-3 2F.A ....
....|..|--- .... ....|--- .... ....|--- .... ....
....|..|--- .... ....|--- .... ....|F-3 2F.F ....
....|..|--- .... ....|--- .... ....|R-- .... ....
....|..|C#6 2F.A ....|--- .... ....|F-3 2F5A ....
....|..|--- .... ....|--- .... ....|R-- .... ....
....|..|--- .... ....|--- .... ....|F-3 2F.7 ....
....|..|--- .... ....|--- .... ....|--- .... ....
....|..|--- .... ....|--- .... ....|F-3 2F.A ....
....|..|--- .... ....|--- .... ....|R-- .... ....
 C#4|..|C#6 2C.F ....|--- .... ....|G-3 2F1F ....
....|..|--- .... ....|--- .... ....|--- .... ....
....|..|--- .... ....|--- .... ....|--- .... ....
....|..|--- .... ....|--- .... ....|--- .... ....
....|..|--- .... ....|--- .... ....|F-3 2F.7 ....
....|..|--- .... ....|--- .... ....|A#3 2F5F ....
....|..|C#6 2F.A ....|--- .... ....|G-3 2F1A ....
....|..|--- .... ....|--- .... ....|--- .... ....
....|..|--- .... ....|--- .... ....|G-3 2F8F ....
....|..|--- .... ....|--- .... ....|G-3 2F.F ....
....|..|--- .... ....|--- .... ....|--- .... ....
....|..|R-- .... ....|--- .... ....|A#3 2F5A ....
 C#4|..|C#6 2C.F ....|--- .... ....|F-2 2F.F ....
....|..|--- .... ....|--- .... ....|--- .... ....
....|..|--- .... ....|--- .... ....|G-3 2F8A ....
....|..|--- .... ....|--- .... ....|G-3 2F.A ....
....|..|--- .... ....|--- .... ....|--- .... ....
....|..|R-- .... ....|--- .... ....|A#3 2F57 ....
....|..|C#6 2F.A ....|--- .... ....|F-2 2F.A ....
....|..|--- .... ....|--- .... ....|--- .... ....
....|..|--- .... ....|--- .... ....|F-2 2F.F ....
....|..|--- .... ....|--- .... ....|G-3 2F.7 ....
....|..|--- .... ....|--- .... ....|--- .... ....
....|..|R-- .... ....|--- .... ....|--- .... ....
 F#4|..|F#2 2A.F ....|--- .... ....|F-3 2F.F ....
....|..|--- .... ....|--- .... ....|F-2 2F.F ....
....|..|--- .... ....|--- .... ....|F-2 2F.A ....
....|..|--- .... ....|--- .... ....|--- .... ....
....|..|--- .... ....|--- .... ....|--- .... ....
....|..|--- .... ....|--- .... ....|--- .... ....
....|..|F#2 2F.A ....|--- .... ....|F-3 2F.A ....
....|..|--- .... ....|--- .... ....|F-2 2F.F ....
....|..|--- .... ....|--- .... ....|F-3 2F.F ....
....|..|--- .... ....|--- .... ....|F-3 2F.F ....
....|..|--- .... ....|--- .... ....|--- .... ....
....|..|--- .... ....|--- .... ....|--- .... ....
 F#4|..|F#2 2A.F ....|--- .... ....|F-3 2F5F ....
....|..|--- .... ....|--- .... ....|F-2 2F.7 ....
....|..|--- .... ....|--- .... ....|F-3 2F.A ....
....|..|--- .... ....|--- .... ....|F-3 2F.A ....
....|..|--- .... ....|--- .... ....|F-3 2F.F ....
....|..|--- .... ....|--- .... ....|R-- .... ....
....|..|F#2 2F.A ....|--- .... ....|F-3 2F5A ....
....|..|--- .... ....|--- .... ....|F-2 2F.7 ....
 C-4|..|C-2 2A.F ....|--- .... ....|F-3 2F.7 ....
....|..|--- .... ....|--- .... ....|F-3 2F.7 ....
....|..|--- .... ....|--- .... ....|F-3 2F.A ....
....|..|--- .... ....|--- .... ....|R-- .... ....
....|..|C-4 LF.F ....|--- .... ....|D#3 2FAF ....
 C#4|..|C#6 2C.F ....|--- .... ....|--- .... ....
....|..|C-2 2F.A ....|--- .... ....|--- .... ....
....|..|R-- .... ....|--- .... ....|D#3 2F3F ....
....|..|--- .... ....|--- .... ....|F-3 2F.7 ....
....|..|--- .... ....|--- .... ....|R-- .... ....
....|..|C-4 LF.A ....|--- .... ....|D#3 2FAA ....
....|..|C#6 2F.A ....|--- .... ....|--- .... ....
....|..|C-4 LF.F ....|--- .... ....|D#3 2FAF ....
 C#4|..|C#6 2C.F ....|--- .... ....|D#3 2F3A ....

[Pattern29]
....|..|R-- .... ....|--- .... ....|R-- .... ....
....|..|--- .... ....|--- .... ....|--- .... ....
....|..|C-4 LF.7 ....|--- .... ....|D#3 2FA7 ....
....|..|C#6 2F.7 ....|--- .... ....|--- .... ....
....|..|C-4 LF.A ....|--- .... ....|D#3 2FAA ....
....|..|C#6 2F.A ....|--- .... ....|D#3 2F37 ....
....|..|R-- .... ....|--- .... ....|R-- .... ....
....|..|--- .... ....|--- .... ....|--- .... ....
....|..|--- .... ....|--- .... ....|--- .... ....
....|..|--- .... ....|--- .... ....|--- .... ....
 C#4|..|C#6 2C.F ....|--- .... ....|D#3 2FA7 ....
....|..|C#6 2F.7 ....|--- .... ....|--- .... ....
....|..|R-- .... ....|--- .... ....|--- .... ....
....|..|--- .... ....|--- .... ....|--- .... ....
 C#4|..|C#6 2C.F ....|--- .... ....|A#3 2FEF ....
....|..|--- .... ....|--- .... ....|--- .... ....
....|..|C#6 2F.A ....|--- .... ....|--- .... ....
....|..|--- .... ....|--- .... ....|--- .... ....
....|..|--- .... ....|--- .... ....|D#3 2FAF ....
....|..|--- .... ....|--- .... ....|--- .... ....
....|..|C#6 2F.A ....|--- .... ....|A#3 2FEA ....
....|..|--- .... ....|--- .... ....|--- .... ....
 C#4|..|C#6 2C.F ....|--- .... ....|A#3 2FEF ....
....|..|--- .... ....|--- .... ....|--- .... ....
....|..|--- .... ....|--- .... ....|D#3 2FAA ....
....|..|--- .... ....|--- .... ....|--- .... ....
....|..|C#6 2F.7 ....|--- .... ....|A#3 2FE7 ....
....|..|--- .... ....|--- .... ....|--- .... ....
....|..|C#6 2F.A ....|--- .... ....|A#3 2FEA ....
....|..|--- .... ....|--- .... ....|--- .... ....
....|..|--- .... ....|--- .... ....|D#3 2FA7 ....
....|..|--- .... ....|--- .... ....|--- .... ....
....|..|--- .... ....|--- .... ....|G-4 2F8F ....
....|..|R-- .... ....|--- .... ....|G-4 2F1F ....
 C-4|..|C-2 2A.F ....|--- .... ....|A#3 2FE7 ....
....|..|--- .... ....|--- .... ....|--- .... ....
....|..|--- .... ....|--- .... ....|--- .... ....
....|..|--- .... ....|--- .... ....|--- .... ....
....|..|C-4 LF.F ....|--- .... ....|A#3 2F5F ....
 C#4|..|C#6 2C.F ....|--- .... ....|G-4 2F1A ....
....|..|C-2 2F.A ....|--- .... ....|R-- .... ....
....|..|--- .... ....|--- .... ....|--- .... ....
....|..|R-- .... ....|--- .... ....|A#3 2FEF ....
....|..|--- .... ....|--- .... ....|A#3 2FEF ....
....|..|C-4 LF.A ....|--- .... ....|G-4 2F87 ....
....|..|C#6 2F.A ....|--- .... ....|G-4 2F17 ....
....|..|C-4 LF.F ....|--- .... ....|A#3 2F5F ....
 C#4|..|C#6 2C.F ....|--- .... ....|--- .... ....
....|..|R-- .... ....|--- .... ....|A#3 2FEA ....
....|..|--- .... ....|--- .... ....|A#3 2FEA ....
....|..|C-4 LF.7 ....|--- .... ....|A#3 2F57 ....
....|..|C#6 2F.7 ....|--- .... ....|--- .... ....
....|..|C-4 LF.A ....|--- .... ....|A#3 2F5A ....
....|..|C#6 2F.A ....|--- .... ....|--- .... ....
....|..|R-- .... ....|--- .... ....|A#3 2FE7 ....
....|..|--- .... ....|--- .... ....|A#3 2FE7 ....
....|..|--- .... ....|--- .... ....|R-- .... ....
....|..|--- .... ....|--- .... ....|--- .... ....
 C#4|..|C#6 2C.F ....|--- .... ....|A#3 2F57 ....
....|..|C#6 2F.7 ....|--- .... ....|--- .... ....
....|..|R-- .... ....|--- .... ....|A#3 2F5F ....
....|..|--- .... ....|--- .... ....|--- .... ....
 C#4|..|C#6 2C.F ....|--- .... ....|A#3 2FEF ....
....|..|--- .... ....|--- .... ....|--- .... ....
....|..|C#6 2F.A ....|--- .... ....|--- .... ....
....|..|--- .... ....|--- .... ....|--- .... ....
....|..|--- .... ....|--- .... ....|A#3 2F5F ....
....|..|--- .... ....|--- .... ....|--- .... ....
....|..|C#6 2F.A ....|--- .... ....|A#3 2FEA ....
....|..|--- .... ....|--- .... ....|--- .... ....
 C#4|..|C#6 2C.F ....|--- .... ....|A#3 2FEF ....
....|..|--- .... ....|--- .... ....|--- .... ....
....|..|--- .... ....|--- .... ....|A#3 2F57 ....
....|..|--- .... ....|--- .... ....|--- .... ....
....|..|C#6 2F.7 ....|--- .... ....|A#3 2FE7 ....
....|..|--- .... ....|--- .... ....|--- .... ....
....|..|C#6 2F.A ....|--- .... ....|A#3 2FEA ....
....|..|--- .... ....|--- .... ....|--- .... ....
....|..|--- .... ....|--- .... ....|A#3 2F57 ....
....|..|--- .... ....|--- .... ....|--- .... ....
....|..|R-- .... ....|--- .... ....|--- .... ....
....|..|--- .... ....|--- .... ....|A#3 2F5F ....
 C#4|..|C#6 2C.F ....|--- .... ....|A#3 2F5F ....
....|..|--- .... ....|--- .... ....|--- .... ....
....|..|--- .... ....|--- .... ....|R-- .... ....
....|..|C-4 LF.F ....|--- .... ....|--- .... ....
 C#4|..|C#6 2C.F ....|--- .... ....|A#3 2F5F ....
....|..|--- .... ....|--- .... ....|A#3 2F5A ....
....|..|C#6 2F.A ....|--- .... ....|A#3 2F5A ....
....|..|--- .... ....|--- .... ....|D#3 2F.F ....
....|..|R-- .... ....|--- .... ....|R-- .... ....
....|..|C-4 LF.A ....|--- .... ....|R-- .... ....
....|..|C#6 2F.A ....|--- .... ....|A#3 2F5A ....
....|..|--- .... ....|--- .... ....|A#3 2F57 ....
....|..|C-4 LF.F ....|--- .... ....|A#3 2F5F ....
 C#4|..|C#6 2C.F ....|--- .... ....|D#3 2F.A ....
....|..|R-- .... ....|--- .... ....|R-- .... ....
....|..|C-4 LF.7 ....|--- .... ....|R-- .... ....
....|..|C#6 2F.7 ....|--- .... ....|A#3 2F57 ....
....|..|--- .... ....|--- .... ....|--- .... ....
....|..|C-4 LF.A ....|--- .... ....|A#3 2F5A ....
....|..|C#6 2F.A ....|--- .... ....|D#3 2F.7 ....
....|..|R-- .... ....|--- .... ....|--- .... ....
....|..|--- .... ....|--- .... ....|R-- .... ....
....|..|--- .... ....|--- .... ....|--- .... ....
....|..|--- .... ....|--- .... ....|--- .... ....
 C#4|..|C#6 2C.F ....|--- .... ....|A#3 2F57 ....
....|..|C#6 2F.7 ....|--- .... ....|--- .... ....
....|..|R-- .... ....|--- .... ....|A#3 2F5F ....
....|..|--- .... ....|--- .... ....|--- .... ....
 C#4|..|C#6 2C.F ....|--- .... ....|A#3 2FEF ....
....|..|--- .... ....|--- .... ....|--- .... ....
....|..|C#6 2F.A ....|--- .... ....|--- .... ....
....|..|--- .... ....|--- .... ....|--- .... ....
....|..|--- .... ....|--- .... ....|A#3 2F5F ....
....|..|--- .... ....|--- .... ....|--- .... ....
....|..|C#6 2F.A ....|--- .... ....|A#3 2FEA ....
....|..|--- .... ....|--- .... ....|--- .... ....
 C#4|..|C#6 2C.F ....|--- .... ....|A#3 2FEF ....
....|..|--- .... ....|--- .... ....|--- .... ....
....|..|--- .... ....|--- .... ....|A#3 2F57 ....
....|..|--- .... ....|--- .... ....|--- .... ....
....|..|C#6 2F.7 ....|--- .... ....|A#3 2FE7 ....
....|..|--- .... ....|--- .... ....|--- .... ....
....|..|C#6 2F.A ....|--- .... ....|A#3 2FEA ....
....|..|--- .... ....|--- .... ....|--- .... ....
....|..|--- .... ....|--- .... ....|A#3 2F57 ....
....|..|--- .... ....|--- .... ....|--- .... ....

[Pattern30]
....|..|--- .... ....|--- .... ....|--- .... ....
....|..|--- .... ....|--- .... ....|A#3 2F5F ....
 C#4|..|C#6 2C.F ....|--- .... ....|A#3 2FE7 ....
....|..|--- .... ....|--- .... ....|A#3 2F5F ....
....|..|R-- .... ....|--- .... ....|R-- .... ....
....|..|--- .... ....|--- .... ....|--- .... ....
....|..|C-4 LF.F ....|--- .... ....|A#3 2F5F ....
 C#4|..|C#6 2C.F ....|--- .... ....|A#3 2F5A ....
....|..|C#6 2F.A ....|--- .... ....|--- .... ....
....|..|--- .... ....|--- .... ....|A#3 2F5A ....
....|..|R-- .... ....|--- .... ....|R-- .... ....
....|..|R-- .... ....|--- .... ....|R-- .... ....
....|..|C-4 LF.A ....|--- .... ....|A#3 2F5A ....
....|..|C#6 2F.A ....|--- .... ....|A#3 2F57 ....
....|..|C-4 LF.F ....|A#5 2F.F ....|A#3 2F5F ....
 C#4|..|C#6 2C.F ....|--- .... ....|A#3 2F57 ....
....|..|R-- .... ....|--- .... ....|R-- .... ....
....|..|R-- .... ....|--- .... ....|R-- .... ....
....|..|C-4 LF.7 ....|--- .... ....|A#3 2F57 ....
....|..|C#6 2F.7 ....|--- .... ....|--- .... ....
....|..|C-4 LF.A ....|A#5 2F.A ....|A#3 2F5A ....
....|..|C#6 2F.A ....|--- .... ....|--- .... ....
....|..|--- .... ....|G-4 2F1F ....|R-- .... ....
....|..|R-- .... ....|G-5 2F.F ....|R-- .... ....
....|..|--- .... ....|--- .... ....|--- .... ....
....|..|--- .... ....|R-- .... ....|--- .... ....
 C#4|..|C#6 2C.F ....|A#5 2F.7 ....|A#3 2F57 ....
....|..|C#6 2F.7 ....|--- .... ....|--- .... ....
....|..|--- .... ....|G-4 2F1A ....|A#3 2F5F ....
....|..|--- .... ....|G-5 2F.A ....|--- .... ....
 C#4|..|C#6 2C.F ....|--- .... ....|A#3 2FEF ....
....|..|--- .... ....|R-- .... ....|--- .... ....
....|..|C#6 2F.A ....|--- .... ....|--- .... ....
....|..|--- .... ....|--- .... ....|--- .... ....
....|..|--- .... ....|G-4 2F17 ....|A#3 2F5F ....
....|..|--- .... ....|G-5 2F.7 ....|--- .... ....
....|..|C#6 2F.A ....|--- .... ....|A#3 2FEA ....
....|..|--- .... ....|R-- .... ....|--- .... ....
 C#4|..|C#6 2C.F ....|A#5 2F.F ....|A#3 2FEF ....
....|..|--- .... ....|--- .... ....|--- .... ....
....|..|--- .... ....|--- .... ....|A#3 2F57 ....
....|..|--- .... ....|--- .... ....|--- .... ....
....|..|C#6 2F.7 ....|--- .... ....|A#3 2FE7 ....
....|..|--- .... ....|--- .... ....|--- .... ....
....|..|C#6 2F.A ....|A#5 2F.A ....|A#3 2FEA ....
....|..|--- .... ....|G-4 2F1F ....|--- .... ....
....|..|--- .... ....|G-5 2F.F ....|A#3 2F57 ....
....|..|--- .... ....|--- .... ....|--- .... ....
....|..|--- .... ....|R-- .... ....|A#3 2F5F ....
....|..|--- .... ....|--- .... ....|--- .... ....
 C-4|..|C-2 2A.F ....|A#5 2F.7 ....|A#3 2F5F ....
....|..|R-- .... ....|G-4 2F1A ....|--- .... ....
....|..|--- .... ....|G-5 2F.A ....|R-- .... ....
....|..|--- .... ....|--- .... ....|--- .... ....
....|..|C-4 LF.F ....|R-- .... ....|A#3 2F5F ....
 C#4|..|C#6 2C.F ....|--- .... ....|--- .... ....
....|..|C-2 2F.A ....|--- .... ....|A#3 2F5A ....
....|..|R-- .... ....|G-4 2F17 ....|--- .... ....
....|..|--- .... ....|G-5 2F.7 ....|D#2 2F.F ....
....|..|R-- .... ....|--- .... ....|R-- .... ....
....|..|C-4 LF.A ....|R-- .... ....|A#3 2F57 ....
....|..|C#6 2F.A ....|--- .... ....|--- .... ....
....|..|C-4 LF.F ....|A#5 2F.F ....|A#3 2F5F ....
 C#4|..|C#6 2C.F ....|--- .... ....|--- .... ....
....|..|--- .... ....|--- .... ....|D#2 2F.A ....
....|..|R-- .... ....|--- .... ....|R-- .... ....
....|..|C-4 LF.7 ....|--- .... ....|A#3 2F57 ....
....|..|C#6 2F.7 ....|--- .... ....|--- .... ....
....|..|C-4 LF.A ....|A#5 2F.A ....|A#3 2F5A ....
....|..|C#6 2F.A ....|--- .... ....|--- .... ....
....|..|--- .... ....|G-4 2F1F ....|D#2 2F.7 ....
....|..|R-- .... ....|G-5 2F.F ....|R-- .... ....
....|..|--- .... ....|--- .... ....|R-- .... ....
....|..|--- .... ....|R-- .... ....|--- .... ....
 C#4|..|C#6 2C.F ....|A#5 2F.7 ....|A#3 2F57 ....
....|..|C#6 2F.7 ....|--- .... ....|--- .... ....
....|..|--- .... ....|G-4 2F1A ....|A#3 2F5F ....
....|..|--- .... ....|G-5 2F.A ....|--- .... ....
 C#4|..|C#6 2C.F ....|--- .... ....|A#3 2FEF ....
....|..|--- .... ....|R-- .... ....|--- .... ....
....|..|C#6 2F.A ....|--- .... ....|--- .... ....
....|..|--- .... ....|--- .... ....|--- .... ....
....|..|--- .... ....|G-4 2F17 ....|A#3 2F5F ....
....|..|--- .... ....|G-5 2F.7 ....|--- .... ....
....|..|C#6 2F.A ....|--- .... ....|A#3 2FEA ....
....|..|--- .... ....|A#5 2F.F ....|--- .... ....
 C#4|..|C#6 2C.F ....|--- .... ....|A#3 2FEF ....
....|..|--- .... ....|--- .... ....|--- .... ....
....|..|--- .... ....|--- .... ....|A#3 2F57 ....
....|..|--- .... ....|--- .... ....|--- .... ....
....|..|C#6 2F.7 ....|--- .... ....|A#3 2FE7 ....
....|..|--- .... ....|A#5 2F.A ....|--- .... ....
....|..|C#6 2F.A ....|--- .... ....|A#3 2FEA ....
....|..|--- .... ....|--- .... ....|--- .... ....
....|..|--- .... ....|G-5 2F.F ....|A#3 2F57 ....
....|..|--- .... ....|--- .... ....|A#3 2F5F ....
....|..|--- .... ....|R-- .... ....|--- .... ....
....|..|--- .... ....|A#5 2F.7 ....|--- .... ....
 C#4|..|C#6 2C.F ....|--- .... ....|A#3 2FE7 ....
....|..|--- .... ....|--- .... ....|A#3 2F5F ....
....|..|--- .... ....|G-5 2F.A ....|R-- .... ....
....|..|--- .... ....|--- .... ....|A#3 2F5A ....
....|..|C-4 LF.F ....|R-- .... ....|A#3 2F5F ....
 C#4|..|C#6 2C.F ....|--- .... ....|--- .... ....
....|..|C#6 2F.A ....|--- .... ....|--- .... ....
....|..|--- .... ....|--- .... ....|A#3 2F5A ....
....|..|--- .... ....|G-5 2F.7 ....|A#3 2FEF ....
....|..|R-- .... ....|--- .... ....|A#3 2F57 ....
....|..|C-4 LF.A ....|R-- .... ....|A#3 2F5A ....
....|..|C#6 2F.A ....|--- .... ....|--- .... ....
....|..|C-4 LF.F ....|A#5 2F.F ....|A#3 2F5F ....
 C#4|..|C#6 2C.F ....|--- .... ....|A#3 2F57 ....
....|..|R-- .... ....|--- .... ....|A#3 2FEA ....
....|..|R-- .... ....|--- .... ....|R-- .... ....
....|..|C-4 LF.7 ....|--- .... ....|A#3 2F57 ....
....|..|C#6 2F.7 ....|--- .... ....|--- .... ....
....|..|C-4 LF.A ....|A#5 2F.A ....|A#3 2F5A ....
....|..|C#6 2F.A ....|--- .... ....|--- .... ....
....|..|R-- .... ....|G-4 2F1F ....|A#3 2FE7 ....
....|..|R-- .... ....|G-5 2F.F ....|R-- .... ....
....|..|--- .... ....|--- .... ....|--- .... ....
....|..|--- .... ....|R-- .... ....|--- .... ....
 C#4|..|C#6 2C.F ....|A#5 2F.7 ....|A#3 2F57 ....
....|..|C#6 2F.7 ....|--- .... ....|--- .... ....
....|..|R-- .... ....|G-4 2F1A ....|A#3 2F5F ....
....|..|--- .... ....|G-5 2F.A ....|--- .... ....
 C#4|..|C#6 2C.F ....|--- .... ....|A#3 2FEF ....
....|..|--- .... ....|R-- .... ....|--- .... ....

[Pattern31]
....|..|C#6 2F.A ....|--- .... ....|--- .... ....
....|..|--- .... ....|--- .... ....|--- .... ....
....|..|--- .... ....|G-4 2F17 ....|A#3 2FEF ....
....|..|--- .... ....|G-5 2F.7 ....|A#3 2F5F ....
....|..|C#6 2F.A ....|--- .... ....|A#3 2FEA ....
....|..|--- .... ....|A#5 2F.F ....|--- .... ....
 C#4|..|C#6 2C.F ....|--- .... ....|A#3 2FEF ....
....|..|--- .... ....|--- .... ....|--- .... ....
....|..|--- .... ....|--- .... ....|A#3 2F57 ....
....|..|--- .... ....|--- .... ....|A#3 2F5A ....
....|..|C#6 2F.7 ....|--- .... ....|A#3 2FE7 ....
....|..|--- .... ....|A#5 2F.A ....|--- .... ....
....|..|C#6 2F.A ....|--- .... ....|A#3 2FEA ....
....|..|--- .... ....|G-4 2F1F ....|--- .... ....
....|..|--- .... ....|G-5 2F.F ....|A#3 2FE7 ....
....|..|--- .... ....|--- .... ....|A#3 2F57 ....
....|..|--- .... ....|R-- .... ....|--- .... ....
....|..|--- .... ....|A#5 2F.7 ....|A#3 2F5F ....
 C-4|..|C-2 2A.F ....|--- .... ....|A#3 2F5F ....
....|..|--- .... ....|G-4 2F1A ....|--- .... ....
....|..|R-- .... ....|G-5 2F.A ....|R-- .... ....
....|..|--- .... ....|--- .... ....|R-- .... ....
....|..|C-4 LF.F ....|R-- .... ....|A#3 2F5F ....
 C#4|..|C#6 2C.F ....|--- .... ....|A#3 2F5A ....
....|..|C-2 2F.A ....|--- .... ....|A#3 2F5A ....
....|..|--- .... ....|G-4 2F17 ....|--- .... ....
....|..|R-- .... ....|G-5 2F.7 ....|D#3 2F.F ....
....|..|R-- .... ....|--- .... ....|R-- .... ....
....|..|C-4 LF.A ....|R-- .... ....|A#3 2F5A ....
....|..|C#6 2F.A ....|A#5 2F.F ....|A#3 2F57 ....
....|..|C-4 LF.F ....|--- .... ....|A#3 2F5F ....
 C#4|..|C#6 2C.F ....|--- .... ....|--- .... ....
....|..|R-- .... ....|--- .... ....|D#3 2F.A ....
....|..|R-- .... ....|--- .... ....|R-- .... ....
....|..|C-4 LF.7 ....|--- .... ....|A#3 2F57 ....
....|..|C#6 2F.7 ....|A#5 2F.A ....|--- .... ....
....|..|C-4 LF.A ....|--- .... ....|A#3 2F5A ....
....|..|C#6 2F.A ....|--- .... ....|--- .... ....
....|..|R-- .... ....|G-5 2F.F ....|D#3 2F.7 ....
....|..|R-- .... ....|--- .... ....|R-- .... ....
....|..|--- .... ....|--- .... ....|--- .... ....
....|..|--- .... ....|A#5 2F.7 ....|--- .... ....
....|..|C-4 LF.7 ....|--- .... ....|A#3 2F57 ....
....|..|C#6 2F.7 ....|--- .... ....|--- .... ....
....|..|R-- .... ....|G-5 2F.A ....|A#3 2F5F ....
....|..|--- .... ....|--- .... ....|--- .... ....
 C#4|..|C#6 2C.F ....|--- .... ....|A#3 2FEF ....
....|..|--- .... ....|R-- .... ....|--- .... ....
....|..|--- .... ....|--- .... ....|--- .... ....
....|..|--- .... ....|--- .... ....|--- .... ....
....|..|--- .... ....|G-5 2F.7 ....|A#3 2F5F ....
....|..|--- .... ....|--- .... ....|--- .... ....
....|..|C#6 2F.A ....|--- .... ....|A#3 2FEA ....
....|..|--- .... ....|R-- .... ....|--- .... ....
 C#4|..|C#6 2C.F ....|A#5 2F.F ....|A#3 2FEF ....
....|..|--- .... ....|--- .... ....|--- .... ....
....|..|--- .... ....|--- .... ....|A#3 2F57 ....
....|..|--- .... ....|--- .... ....|--- .... ....
....|..|C#6 2F.7 ....|--- .... ....|A#3 2FE7 ....
....|..|--- .... ....|--- .... ....|--- .... ....
....|..|C#6 2F.A ....|A#5 2F.A ....|A#3 2FEA ....
....|..|--- .... ....|--- .... ....|--- .... ....
....|..|--- .... ....|G-4 2F1F ....|A#3 2F57 ....
....|..|--- .... ....|G-5 2F.F ....|--- .... ....
....|..|--- .... ....|--- .... ....|A#3 2F5F ....
....|..|--- .... ....|R-- .... ....|--- .... ....
 C#4|..|C#6 2C.F ....|A#5 2F.7 ....|A#3 2F5F ....
....|..|--- .... ....|--- .... ....|--- .... ....
....|..|R-- .... ....|G-4 2F1A ....|R-- .... ....
....|..|--- .... ....|G-5 2F.A ....|R-- .... ....
....|..|C-4 LF.F ....|--- .... ....|A#3 2F5F ....
 C#4|..|C#6 2C.F ....|R-- .... ....|--- .... ....
....|..|C#6 2F.A ....|--- .... ....|A#3 2F5A ....
....|..|--- .... ....|--- .... ....|--- .... ....
....|..|R-- .... ....|G-4 2F17 ....|A#3 2F.F ....
....|..|R-- .... ....|G-5 2F.7 ....|R-- .... ....
....|..|C-4 LF.A ....|--- .... ....|A#3 2F57 ....
....|..|C#6 2F.A ....|R-- .... ....|--- .... ....
....|..|C-4 LF.F ....|A#5 2F.F ....|A#3 2F5F ....
 C#4|..|C#6 2C.F ....|--- .... ....|--- .... ....
....|..|R-- .... ....|--- .... ....|A#3 2F.A ....
....|..|R-- .... ....|--- .... ....|R-- .... ....
....|..|C-4 LF.7 ....|--- .... ....|A#3 2F57 ....
....|..|C#6 2F.7 ....|--- .... ....|--- .... ....
....|..|C-4 LF.A ....|A#5 2F.A ....|A#3 2F5A ....
....|..|C#6 2F.A ....|--- .... ....|--- .... ....
....|..|--- .... ....|G-4 2F1F ....|A#3 2F.7 ....
....|..|R-- .... ....|--- .... ....|R-- .... ....
....|..|--- .... ....|R-- .... ....|--- .... ....
....|..|--- .... ....|--- .... ....|--- .... ....
....|..|C-4 LF.7 ....|A#5 2F.7 ....|A#3 2F57 ....
....|..|C#6 2F.7 ....|--- .... ....|--- .... ....
....|..|--- .... ....|G-4 2F1A ....|A#3 2F5F ....
....|..|--- .... ....|--- .... ....|--- .... ....
 C#4|..|C#6 2C.F ....|R-- .... ....|A#3 2FEF ....
....|..|--- .... ....|--- .... ....|--- .... ....
....|..|--- .... ....|--- .... ....|--- .... ....
....|..|--- .... ....|--- .... ....|--- .... ....
....|..|--- .... ....|G-4 2F17 ....|A#3 2F5F ....
....|..|--- .... ....|--- .... ....|--- .... ....
....|..|C#6 2F.A ....|R-- .... ....|A#3 2FEA ....
....|..|--- .... ....|--- .... ....|--- .... ....
 C#4|..|C#6 2C.F ....|A#5 2F.F ....|A#3 2FEF ....
....|..|--- .... ....|--- .... ....|--- .... ....
....|..|--- .... ....|--- .... ....|A#3 2F57 ....
....|..|--- .... ....|--- .... ....|--- .... ....
....|..|C#6 2F.7 ....|--- .... ....|A#3 2FE7 ....
....|..|--- .... ....|--- .... ....|--- .... ....
....|..|C#6 2F.A ....|A#5 2F.A ....|A#3 2FEA ....
....|..|--- .... ....|--- .... ....|--- .... ....
....|..|--- .... ....|G-4 2F1F ....|A#3 2F57 ....
....|..|--- .... ....|G-5 2F.F ....|--- .... ....
....|..|--- .... ....|--- .... ....|--- .... ....
....|..|--- .... ....|R-- .... ....|A#3 2F5F ....
 C#4|..|C#6 2C.F ....|A#5 2F.7 ....|A#3 2F5F ....
....|..|--- .... ....|--- .... ....|R-- .... ....
....|..|--- .... ....|G-4 2F1A ....|R-- .... ....
....|..|R-- .... ....|G-5 2F.A ....|--- .... ....
....|..|C-4 LF.F ....|--- .... ....|A#3 2F5F ....
 C#4|..|C#6 2C.F ....|R-- .... ....|A#3 2F5A ....
....|..|C#6 2F.A ....|--- .... ....|A#3 2F5A ....
....|..|--- .... ....|--- .... ....|R-- .... ....
....|..|--- .... ....|G-4 2F17 ....|D#3 2F.F ....
....|..|R-- .... ....|G-5 2F.7 ....|R-- .... ....
....|..|C-4 LF.A ....|--- .... ....|A#3 2F5A ....
....|..|C-4 LF.F ....|R-- .... ....|A#3 2F57 ....
 C#4|..|C#6 2C.F ....|A#5 2F.F ....|A#3 2F5F ....
....|..|--- .... ....|--- .... ....|R-- .... ....

[Pattern32]
....|..|--- .... ....|--- .... ....|D#3 2F.A ....
....|..|R-- .... ....|--- .... ....|R-- .... ....
....|..|C-4 LF.7 ....|--- .... ....|A#3 2F57 ....
....|..|C#6 2F.7 ....|--- .... ....|--- .... ....
....|..|C#6 2F.A ....|A#5 2F.A ....|A#3 2F5A ....
....|..|--- .... ....|--- .... ....|--- .... ....
....|..|--- .... ....|G-4 2F1F ....|D#3 2F.7 ....
....|..|R-- .... ....|G-5 2F.F ....|R-- .... ....
....|..|--- .... ....|--- .... ....|R-- .... ....
....|..|C-4 LF.7 ....|R-- .... ....|--- .... ....
 C#4|..|C#6 2C.F ....|A#5 2F.7 ....|A#3 2F57 ....
....|..|--- .... ....|--- .... ....|--- .... ....
....|..|--- .... ....|G-4 2F1A ....|A#3 2F5F ....
....|..|--- .... ....|G-5 2F.A ....|--- .... ....
 C#4|..|C#6 2C.F ....|--- .... ....|A#3 2FEF ....
....|..|--- .... ....|R-- .... ....|--- .... ....
....|..|C#6 2F.A ....|--- .... ....|--- .... ....
....|..|--- .... ....|--- .... ....|--- .... ....
....|..|--- .... ....|G-4 2F17 ....|A#3 2F5F ....
....|..|--- .... ....|G-5 2F.7 ....|--- .... ....
....|..|C#6 2F.A ....|--- .... ....|A#3 2FEA ....
....|..|--- .... ....|R-- .... ....|--- .... ....
 C#4|..|C#6 2C.F ....|A#5 2F.F ....|A#3 2FEF ....
....|..|--- .... ....|--- .... ....|--- .... ....
....|..|--- .... ....|--- .... ....|A#3 2F57 ....
....|..|--- .... ....|--- .... ....|--- .... ....
....|..|C#6 2F.7 ....|--- .... ....|A#3 2FE7 ....
....|..|--- .... ....|--- .... ....|--- .... ....
....|..|C#6 2F.A ....|A#5 2F.A ....|A#3 2FEA ....
....|..|--- .... ....|--- .... ....|--- .... ....
....|..|--- .... ....|G-4 2F1F ....|A#3 2F57 ....
....|..|--- .... ....|G-5 2F.F ....|--- .... ....
....|..|--- .... ....|--- .... ....|A#3 2F5F ....
....|..|--- .... ....|R-- .... ....|--- .... ....
 C-4|..|C-2 2A.F ....|A#5 2F.7 ....|A#3 2FE7 ....
....|..|--- .... ....|--- .... ....|--- .... ....
....|..|R-- .... ....|G-4 2F1A ....|R-- .... ....
....|..|--- .... ....|G-5 2F.A ....|--- .... ....
....|..|C-4 LF.F ....|--- .... ....|A#3 2F5F ....
 C#4|..|C#6 2C.F ....|R-- .... ....|--- .... ....
....|..|C-2 2F.A ....|--- .... ....|--- .... ....
....|..|--- .... ....|--- .... ....|--- .... ....
....|..|R-- .... ....|G-4 2F17 ....|A#3 2FEF ....
....|..|R-- .... ....|G-5 2F.7 ....|R-- .... ....
....|..|C-4 LF.A ....|--- .... ....|A#3 2F57 ....
....|..|C#6 2F.A ....|R-- .... ....|--- .... ....
....|..|C-4 LF.F ....|A#5 2F.F ....|A#3 2F5F ....
 C#4|..|C#6 2C.F ....|--- .... ....|--- .... ....
....|..|R-- .... ....|--- .... ....|A#3 2FEA ....
....|..|R-- .... ....|--- .... ....|R-- .... ....
....|..|C-4 LF.7 ....|--- .... ....|A#3 2F57 ....
....|..|C#6 2F.7 ....|--- .... ....|--- .... ....
....|..|C-4 LF.A ....|A#5 2F.A ....|A#3 2F5A ....
....|..|C#6 2F.A ....|--- .... ....|--- .... ....
....|..|--- .... ....|G-4 2F1F ....|A#3 2FE7 ....
....|..|R-- .... ....|G-5 2F.F ....|R-- .... ....
....|..|--- .... ....|--- .... ....|--- .... ....
....|..|--- .... ....|R-- .... ....|--- .... ....
....|..|C-4 LF.7 ....|A#5 2F.7 ....|A#3 2F57 ....
....|..|C#6 2F.7 ....|--- .... ....|--- .... ....
....|..|--- .... ....|G-4 2F1A ....|A#3 2F5F ....
....|..|--- .... ....|G-5 2F.A ....|--- .... ....
 C#4|..|C#6 2C.F ....|--- .... ....|A#3 2FEF ....
....|..|--- .... ....|R-- .... ....|--- .... ....
....|..|--- .... ....|--- .... ....|--- .... ....
....|..|--- .... ....|--- .... ....|--- .... ....
....|..|--- .... ....|G-4 2F17 ....|A#3 2F5F ....
....|..|--- .... ....|G-5 2F.7 ....|A#3 2F5F ....
....|..|C#6 2F.A ....|--- .... ....|A#3 2FEA ....
....|..|--- .... ....|R-- .... ....|--- .... ....
 C#4|..|C#6 2C.F ....|A#5 2F.F ....|A#3 2FEF ....
....|..|--- .... ....|--- .... ....|--- .... ....
....|..|--- .... ....|--- .... ....|A#3 2F57 ....
....|..|--- .... ....|--- .... ....|A#3 2F5A ....
....|..|C#6 2F.7 ....|--- .... ....|A#3 2FE7 ....
....|..|--- .... ....|--- .... ....|--- .... ....
....|..|C#6 2F.A ....|A#5 2F.A ....|A#3 2FEA ....
....|..|--- .... ....|--- .... ....|--- .... ....
....|..|--- .... ....|G-4 2F1F ....|A#3 2F57 ....
....|..|--- .... ....|G-5 2F.F ....|A#3 2F57 ....
....|..|--- .... ....|--- .... ....|A#3 2FEF ....
....|..|--- .... ....|R-- .... ....|A#3 2F5F ....
 C-4|..|C-2 2A.F ....|A#5 2F.7 ....|A#3 2FE7 ....
....|..|--- .... ....|--- .... ....|--- .... ....
....|..|--- .... ....|G-4 2F1A ....|D#3 2F.F ....
....|..|R-- .... ....|G-5 2F.A ....|R-- .... ....
....|..|C-4 LF.F ....|--- .... ....|D#3 2F.F ....
 C#4|..|C#6 2C.F ....|R-- .... ....|A#3 2F5A ....
....|..|C-2 2F.A ....|--- .... ....|--- .... ....
....|..|--- .... ....|--- .... ....|--- .... ....
....|..|--- .... ....|G-4 2F17 ....|D#3 2F.A ....
....|..|R-- .... ....|G-5 2F.7 ....|R-- .... ....
....|..|C-4 LF.A ....|--- .... ....|A#3 2FE7 ....
....|..|C#6 2F.A ....|R-- .... ....|A#3 2F57 ....
....|..|C-4 LF.F ....|A#5 2F.F ....|D#3 2F.F ....
 C#4|..|C#6 2C.F ....|--- .... ....|--- .... ....
....|..|--- .... ....|--- .... ....|D#3 2F.7 ....
....|..|R-- .... ....|--- .... ....|R-- .... ....
....|..|C-4 LF.7 ....|--- .... ....|D#3 2F.7 ....
....|..|C#6 2F.7 ....|--- .... ....|--- .... ....
....|..|C-4 LF.A ....|A#5 2F.A ....|D#3 2F.A ....
....|..|C#6 2F.A ....|--- .... ....|--- .... ....
....|..|--- .... ....|G-4 2F1F ....|--- .... ....
....|..|R-- .... ....|G-5 2F.F ....|R-- .... ....
....|..|--- .... ....|--- .... ....|--- .... ....
....|..|--- .... ....|R-- .... ....|--- .... ....
....|..|C-4 LF.7 ....|A#5 2F.7 ....|D#3 2F.7 ....
....|..|C#6 2F.7 ....|--- .... ....|--- .... ....
....|..|--- .... ....|G-4 2F1A ....|--- .... ....
....|..|--- .... ....|G-5 2F.A ....|--- .... ....
....|..|--- .... ....|--- .... ....|--- .... ....
....|..|--- .... ....|R-- .... ....|--- .... ....
....|..|--- .... ....|--- .... ....|--- .... ....
....|..|--- .... ....|--- .... ....|--- .... ....
....|..|--- .... ....|G-4 2F17 ....|--- .... ....
....|..|--- .... ....|G-5 2F.7 ....|--- .... ....
....|..|--- .... ....|--- .... ....|--- .... ....
....|..|--- .... ....|R-- .... ....|--- .... ....
....|..|--- .... ....|A#5 2F.F ....|--- .... ....
....|..|--- .... ....|--- .... ....|--- .... ....
....|..|--- .... ....|--- .... ....|--- .... ....
....|..|--- .... ....|--- .... ....|D#2 2F.F ....
....|..|--- .... ....|--- .... ....|R-- .... ....
....|..|--- .... ....|--- .... ....|--- .... ....
....|..|--- .... ....|A#5 2F.A ....|--- .... ....
....|..|--- .... ....|--- .... ....|--- .... ....
....|..|--- .... ....|G-5 2F.F ....|--- .... ....
....|..|--- .... ....|--- .... ....|D#2 2F.A ....

[Pattern33]
....|..|--- .... ....|--- .... ....|R-- .... ....
....|..|--- .... ....|R-- .... ....|R-- .... ....
....|..|R-- .... ....|A#5 2F.7 ....|--- .... ....
....|..|--- .... ....|--- .... ....|--- .... ....
....|..|--- .... ....|G-5 2F.A ....|--- .... ....
....|..|--- .... ....|--- .... ....|D#2 2F.7 ....
....|..|--- .... ....|--- .... ....|R-- .... ....
....|..|--- .... ....|R-- .... ....|R-- .... ....
....|..|R-- .... ....|--- .... ....|--- .... ....
....|..|--- .... ....|--- .... ....|--- .... ....
....|..|--- .... ....|G-5 2F.7 ....|--- .... ....
....|..|--- .... ....|--- .... ....|--- .... ....
....|..|--- .... ....|--- .... ....|--- .... ....
....|..|--- .... ....|R-- .... ....|R-- .... ....
....|..|R-- .... ....|--- .... ....|--- .... ....
....|..|--- .... ....|--- .... ....|--- .... ....
....|..|--- .... ....|--- .... ....|--- .... ....
....|..|--- .... ....|--- .... ....|--- .... ....
....|..|--- .... ....|--- .... ....|--- .... ....
....|..|--- .... ....|--- .... ....|--- .... ....
....|..|--- .... ....|--- .... ....|--- .... ....
....|..|--- .... ....|--- .... ....|--- .... ....
....|..|--- .... ....|--- .... ....|--- .... ....
