[Module]
VortexTrackerII=0
Version=3.5
Title=1d-6me,3m[6]-5p[7]+-2m[uf]+-7p[u]+-9me+,4m[3e]-8p[u]+
Author=oisee ^ 4d 29.05.2010
NoteTable=4
ChipFreq=1750000
Speed=4
PlayOrder=L0,1,2,3,4,5,6,7,8,9,10,11,12,13,14,15,16,17,18,19,20,21,22,23,24,25,10,11,12,13,14,15,16,17,18,19,20,21,38,39,40,41,42,43,44,45,46,47,48,49,50,51,52,53,54,55,56,57,58

[Ornament1]
L0,0,7,7,12,12

[Ornament2]
L0,0,7,7,12,12,15,15

[Ornament3]
L0,0,7,7,12,12,16,16

[Ornament4]
L0,0,4,4,7,7

[Ornament5]
L0,0,3,3,7,7

[Ornament6]
L0,0,5,5,10,10,14,14

[Ornament7]
L0,0,12,12

[Ornament8]
L0,0,4,4,9,9

[Ornament9]
L0,0,3,3,8,8

[Ornament10]
L0

[Ornament11]
L0

[Ornament12]
L0

[Ornament13]
L0

[Ornament14]
12,L0

[Ornament15]
0,12,24,0,L0,12,12,0,0,24,24,0,0

[Sample1]
TnE +000_ +00_ F_
TnE +000_ +00_ F_
TnE +000_ +00_ F_
TnE +000_ +00_ D_
TnE +000_ +00_ B_
TnE +000_ +00_ B_ L

[Sample2]
TnE +000_ +00_ D_ L

[Sample3]
TnE +001_ +00_ E_
TnE +002_ +00_ F_
TnE +001_ +00_ D_
TnE +002_ +00_ D_
TnE +000_ +00_ D_ L
TnE -001_ +00_ D_
TnE -002_ +00_ D_
TnE -001_ +00_ D_
TnE +000_ +00_ D_
TnE +001_ +00_ D_
TnE +002_ +00_ D_
TnE +001_ +00_ D_

[Sample4]
TnE +002_ +00_ D_
TnE +002_ +00_ D_
TnE +002_ +00_ C_
TnE +002_ +00_ B_
TnE +002_ +00_ A_ L
TnE +002_ +00_ A_
TnE +002_ +00_ A_
TnE +002_ +00_ A_
TnE +002_ +00_ A_
TnE +002_ +00_ A_
TnE +002_ +00_ A_
TnE +002_ +00_ A_

[Sample5]
TnE +000_ +00_ F_
TnE +000_ +00_ F_
tne +000_ +00_ 0_ L

[Sample6]
TNE +000_ +00_ A_
Tne +000_ +00_ B_
Tne +000_ +00_ B_
Tne +000_ +00_ B_
Tne +000_ +00_ A_ L

[Sample7]
TnE +001_ +00_ B_
TnE +002_ +00_ C_
TnE +001_ +00_ B_
TnE +002_ +00_ B_
TnE +000_ +00_ B_ L
TnE -001_ +00_ B_
TnE -002_ +00_ B_
TnE -001_ +00_ B_
TnE +000_ +00_ B_
TnE +001_ +00_ B_
TnE +002_ +00_ B_
TnE +001_ +00_ B_

[Sample8]
tNe +000_ +00_ F_
tNe +000_ +00_ B_
tNe +000_ +00_ 7_
tNe +000_ +00_ 6- L

[Sample9]
TnE +080_ +00_ F_
TnE +100_ +00_ E_
TnE +180_ +00_ E_
TnE +200_ +00_ E_
TnE +240_ +00_ D_
TnE +280_ +00_ D_
TnE +2C0_ +00_ D_
TnE +300_ +00_ C_
TnE +300_ +00_ C_
TnE +340_ +00_ C_
TnE +340_ +00_ C_
TnE +380_ +00_ B_
TnE +380_ +00_ B_
TnE +400_ +00_ B_
TnE +400_ +00_ B_
TnE +480_ +00_ A_
TnE +500_ +00_ 9_
TnE +580_ +00_ 7_
TnE +600_ +00_ 4_
TnE +680_ +00_ 1_
TnE +000_ +00_ 0_ L

[Sample10]
Tne +1C0_ +00_ F_
Tne +280_ +00_ E_
Tne +380_ +00_ C_
Tne +440_ +00_ A_
Tne +480_ +00_ 8_
TnE +000_ +00_ 0_ L

[Sample11]
TNe +200_ -0A_ F_
tNe +000_ +0F_ A_
TNe +200_ -07_ E_
tNe +000_ +0E_ B- L

[Sample12]
TNE +0A0_ +05_ F_
TNE +140_ +02_ D_
TNE +140_ +02_ B_
TNE +100_ +00_ A_ L
TNE +140_ +00_ A_
TNE +200_ +00_ A-

[Sample13]
Tne +200_ +00_ F_
Tne +2C0_ +00_ F_
Tne +380_ +00_ E_
Tne +500_ +00_ C_
Tne +520_ +00_ 9_
tne +000_ +00_ 0_ L

[Sample14]
TNE -100_ +00_ F_
TNE -100_ +00_ D_
TNE -100_ +00_ A_
TNE -100_ +00_ 5_
tne +000_ +00_ 0_ L

[Sample15]
TNE -100_ +00_ 5_
TNE -100_ +00_ 8_
TNE -100_ +00_ B_
TNE -100_ +00_ F_
TNe -100_ +00_ 9- L

[Sample16]
TnE +000_ +00_ C_
TnE +000_ +00_ E_
TnE +000_ +00_ F_
TnE +000_ +00_ F_
TnE +000_ +00_ E_
TnE +000_ +00_ D_
TnE +000_ +00_ C_
TnE +000_ +00_ C_ L
TnE +001_ +00_ C_
TnE +002_ +00_ C_
TnE +003_ +00_ C_
TnE +001_ +00_ C_
TnE +000_ +00_ C_
TnE -001_ +00_ C_
TnE -002_ +00_ C_
TnE -003_ +00_ C_
TnE -001_ +00_ C_
TnE +000_ +00_ C_
TnE +000_ +00_ C_

[Sample17]
Tne +1C0_ +00_ F_
Tne +280_ +00_ D_
Tne +380_ +00_ 7_
TNE +000_ +00_ 0_ L

[Sample18]
TnE -00C_ +00_ 0_ L

[Sample19]
TNe +000_ +00_ F_
TNe +000_ +00_ C_
TNe +000_ +00_ 6_
TNe +000_ +01_ A- L

[Sample20]
TNE +140_ +00_ F_
tNE +000_ +00_ B- L

[Sample21]
tNE +000_ +00_ D_
tNE +000_ +00_ 8_
tNE +000_ +00_ 1_
TNE +000_ +00_ 0_ L

[Sample22]
TnE +000_ +00_ D_ L
TnE +000_ +00_ D_
tne +000_ +00_ 9_
tne +000_ +00_ 9_
TnE +000_ +00_ D_
TnE +000_ +00_ D_
tne +000_ +00_ 9_
tne +000_ +00_ 9_
TnE +000_ +00_ D_
TnE +000_ +00_ D_
TnE +000_ +00_ D_
TnE +000_ +00_ D_
TnE +000_ +00_ D_
TnE +000_ +00_ D_
tne +000_ +00_ 9_
tne +000_ +00_ 9_

[Sample23]
TnE +000_ +00_ F_ L
TnE +010_ +01_ F_
TnE +010_ +01_ F_
TnE +010_ +01_ F_
TnE +010_ +01_ F_
TnE +000_ +00_ F_
TnE +000_ +00_ F_
TnE -010_ -01_ F_
TnE -010_ -01_ F_
TnE -010_ -01_ F_
TnE -010_ -01_ F_
TnE +000_ +00_ F_

[Sample24]
TNe +000_ -01_ C_
TNe +000_ -01_ D_
TNe +000_ -01_ E_
TNe +000_ -01_ F_
TNe +000_ -01_ F_
TNe +000_ -01_ F_
TNe +000_ -01_ F_
TNe +000_ -01_ F_
TNe +000_ -01_ E_
TNe +000_ -01_ E_
TNe +000_ -01_ E_
TNe +000_ -01_ F_
TNe +000_ -01_ F_ L

[Sample25]
TNE +000_ +00_ F_
TNE +000_ +00_ F_ L
TNE +000_ +00_ F_
TNE +000_ +00_ F_
TNE +000_ +00_ F-

[Sample26]
tne +000_ +00_ 0_ L

[Sample27]
TnE +100_ +05_ F_
TnE +200_ +02_ A_
TnE +300_ +02_ 7_
TNE +400_ +00_ 3- L

[Sample28]
tne +000_ +00_ 0_ L

[Sample29]
tnE +000_ +00_ 0_ L

[Sample30]
TNe +000_ +00_ C+
Tne +000_ +00_ C_ L

[Sample31]
TNe +1C0_ +00_ F_
Tne +280_ +00_ E_
Tne +380_ +00_ C_
Tne +440_ +00_ A_
Tne +480_ +00_ 8_
TnE +000_ +00_ 0_ L

[Pattern0]
....|..|F#5 UFFB ....|F#4 UFFF ....|F#3 UFFB ....
....|..|--- .... ....|--- .... ....|--- .... ....
....|..|--- .... ....|--- .... ....|--- .... ....
....|..|--- .... ....|--- .... ....|--- .... ....
....|..|--- .... ....|--- .... ....|--- .... ....
....|..|--- .... ....|--- .... ....|--- .... ....
....|..|A-5 UFFB ....|A-4 UFFF ....|A-3 UFFB ....
....|..|--- .... ....|--- .... ....|--- .... ....
....|..|G-5 UFFB ....|G-4 UFFF ....|G-3 UFFB ....
....|..|--- .... ....|--- .... ....|--- .... ....
....|..|--- .... ....|--- .... ....|--- .... ....
....|..|--- .... ....|--- .... ....|--- .... ....
....|..|F#5 UFFB ....|F#4 UFFF ....|F#3 UFFB ....
....|..|--- .... ....|--- .... ....|--- .... ....
....|..|--- .... ....|--- .... ....|--- .... ....
....|..|--- .... ....|--- .... ....|--- .... ....
....|..|F#6 UFFB ....|F#5 UFFF ....|F#4 UFFB ....
....|..|--- .... ....|--- .... ....|--- .... ....
....|..|A-5 UFF6 ....|A-4 UFFA ....|A-3 UFF6 ....
....|..|--- .... ....|--- .... ....|--- .... ....
....|..|G-5 UFF6 ....|G-4 UFFA ....|G-3 UFF6 ....
....|..|--- .... ....|--- .... ....|--- .... ....
....|..|--- .... ....|--- .... ....|--- .... ....
....|..|--- .... ....|--- .... ....|--- .... ....
....|..|F#5 UFF3 ....|F#4 UFF7 ....|F#3 UFF3 ....
....|..|--- .... ....|--- .... ....|--- .... ....
....|..|--- .... ....|--- .... ....|--- .... ....
....|..|--- .... ....|--- .... ....|--- .... ....
....|..|D-6 UFFB ....|D-5 UFFF ....|D-4 UFFB ....
....|..|--- .... ....|--- .... ....|--- .... ....
....|..|A-5 UFF3 ....|A-4 UFF7 ....|A-3 UFF3 ....
....|..|--- .... ....|--- .... ....|--- .... ....
....|..|D-6 UFFB ....|D-5 UFFF ....|D-4 UFFB ....
....|..|--- .... ....|--- .... ....|--- .... ....
....|..|--- .... ....|--- .... ....|--- .... ....
....|..|--- .... ....|--- .... ....|--- .... ....
....|..|E-6 UFFB ....|E-5 UFFF ....|E-4 UFFB ....
....|..|--- .... ....|--- .... ....|--- .... ....
....|..|--- .... ....|--- .... ....|--- .... ....
....|..|--- .... ....|--- .... ....|--- .... ....
....|..|D-6 UFFB ....|D-5 UFFF ....|D-4 UFFB ....
....|..|E-6 UFFB ....|E-5 UFFF ....|E-4 UFFB ....
....|..|D-6 UFFB ....|D-5 UFFF ....|D-4 UFFB ....
....|..|--- .... ....|--- .... ....|--- .... ....
....|..|C#6 UFFB ....|C#5 UFFF ....|C#4 UFFB ....
....|..|--- .... ....|--- .... ....|--- .... ....
....|..|--- .... ....|--- .... ....|--- .... ....
....|..|--- .... ....|--- .... ....|--- .... ....

[Pattern1]
....|..|G-6 UFFE ....|G-5 UFFF ....|G-4 UFFB ....
....|..|--- .... ....|--- .... ....|--- .... ....
....|..|--- .... ....|--- .... ....|--- .... ....
....|..|--- .... ....|--- .... ....|--- .... ....
....|..|D-6 UFF3 ....|D-5 UFF7 ....|D-4 UFF3 ....
....|..|E-6 UFF9 ....|E-5 UFFA ....|E-4 UFF6 ....
....|..|D-6 UFF6 ....|D-5 UFFA ....|D-4 UFF6 ....
....|..|--- .... ....|--- .... ....|--- .... ....
....|..|D-6 UFF6 ....|D-5 UFF7 ....|D-4 UFF3 ....
....|..|--- .... ....|--- .... ....|--- .... ....
....|..|--- .... ....|--- .... ....|--- .... ....
....|..|--- .... ....|--- .... ....|--- .... ....
....|..|G-5 UFFB ....|G-4 UFFF ....|G-3 UFFB ....
....|..|--- .... ....|--- .... ....|--- .... ....
....|..|--- .... ....|--- .... ....|--- .... ....
....|..|--- .... ....|--- .... ....|--- .... ....
....|..|G-5 UFFE ....|G-4 UFFF ....|G-3 UFFB ....
....|..|E-6 UFF3 ....|E-5 UFF7 ....|E-4 UFF3 ....
....|..|D-6 UFF6 ....|D-5 UFF7 ....|D-4 UFF3 ....
....|..|--- .... ....|--- .... ....|--- .... ....
....|..|F#5 UFFB ....|F#4 UFFF ....|F#3 UFFB ....
....|..|--- .... ....|--- .... ....|--- .... ....
....|..|--- .... ....|--- .... ....|--- .... ....
....|..|--- .... ....|--- .... ....|--- .... ....
....|..|A#5 UFFE ....|A#4 UFFF ....|A#3 UFFB ....
....|..|--- .... ....|--- .... ....|--- .... ....
....|..|--- .... ....|--- .... ....|--- .... ....
....|..|--- .... ....|--- .... ....|--- .... ....
....|..|C#6 UFFB ....|C#5 UFFF ....|C#4 UFFB ....
....|..|--- .... ....|--- .... ....|--- .... ....
....|..|--- .... ....|--- .... ....|--- .... ....
....|..|--- .... ....|--- .... ....|--- .... ....
....|..|E-6 UFFE ....|E-5 UFFF ....|E-4 UFFB ....
....|..|--- .... ....|--- .... ....|--- .... ....
....|..|--- .... ....|--- .... ....|--- .... ....
....|..|--- .... ....|--- .... ....|--- .... ....
....|..|E-6 UFFB ....|E-5 UFFF ....|E-4 UFFB ....
....|..|--- .... ....|--- .... ....|--- .... ....
....|..|--- .... ....|--- .... ....|--- .... ....
....|..|--- .... ....|--- .... ....|--- .... ....
....|..|D-6 UFFE ....|D-5 UFFF ....|D-4 UFFB ....
....|..|--- .... ....|--- .... ....|--- .... ....
....|..|--- .... ....|--- .... ....|--- .... ....
....|..|--- .... ....|--- .... ....|--- .... ....
....|..|F#5 UFF3 ....|F#4 UFF7 ....|F#3 UFF3 ....
....|..|--- .... ....|--- .... ....|--- .... ....
....|..|--- .... ....|--- .... ....|--- .... ....
....|..|--- .... ....|--- .... ....|--- .... ....
....|..|A#5 UFFE ....|A#4 UFFF ....|A#3 UFFB ....
....|..|--- .... ....|--- .... ....|--- .... ....
....|..|--- .... ....|--- .... ....|--- .... ....
....|..|--- .... ....|--- .... ....|--- .... ....
....|..|C#6 UFFB ....|C#5 UFFF ....|C#4 UFFB ....
....|..|--- .... ....|--- .... ....|--- .... ....
....|..|--- .... ....|--- .... ....|--- .... ....
....|..|--- .... ....|--- .... ....|--- .... ....
....|..|E-6 UFF6 ....|E-5 UFF7 ....|E-4 UFF3 ....
....|..|--- .... ....|--- .... ....|--- .... ....
....|..|--- .... ....|--- .... ....|--- .... ....
....|..|--- .... ....|--- .... ....|--- .... ....
....|..|B-5 UFFB ....|B-4 UFFF ....|B-3 UFFB ....
....|..|--- .... ....|--- .... ....|--- .... ....
....|..|B-5 UFFE ....|B-4 UFFF ....|B-3 UFFB ....
....|..|C#6 UFFB ....|C#5 UFFF ....|C#5 UFFB ....

[Pattern2]
....|..|B-3 UFFB ....|B-4 UFFF ....|B-5 UFFB ....
....|..|--- .... ....|--- .... ....|--- .... ....
....|..|--- .... ....|--- .... ....|--- .... ....
....|..|--- .... ....|--- .... ....|--- .... ....
....|..|A#3 UFFB ....|A#4 UFFF ....|A#5 UFFB ....
....|..|--- .... ....|--- .... ....|--- .... ....
....|..|B-3 UFFB ....|B-4 UFFF ....|B-5 UFFB ....
....|..|--- .... ....|--- .... ....|--- .... ....
....|..|C#4 UFFB ....|C#5 UFFF ....|C#6 UFFB ....
....|..|--- .... ....|--- .... ....|--- .... ....
....|..|D-4 UFFB ....|D-5 UFFF ....|D-6 UFFB ....
....|..|C#4 UFF6 ....|C#5 UFFA ....|C#6 UFF6 ....
....|..|C#4 UFF3 ....|C#5 UFF7 ....|C#6 UFF3 ....
....|..|--- .... ....|--- .... ....|--- .... ....
....|..|--- .... ....|--- .... ....|--- .... ....
....|..|--- .... ....|--- .... ....|--- .... ....
....|..|A#3 UFF6 ....|A#4 UFFA ....|A#5 UFF6 ....
....|..|--- .... ....|--- .... ....|--- .... ....
....|..|B-3 UFF6 ....|B-4 UFFA ....|B-5 UFF6 ....
....|..|--- .... ....|--- .... ....|--- .... ....
....|..|F#3 UFFB ....|F#4 UFFF ....|F#5 UFFB ....
....|..|--- .... ....|--- .... ....|--- .... ....
....|..|B-3 UFF3 ....|B-4 UFF7 ....|B-5 UFF3 ....
....|..|C#4 UFF3 ....|C#5 UFF7 ....|C#6 UFF3 ....
....|..|F#3 UFFB ....|F#4 UFFF ....|F#5 UFFB ....
....|..|--- .... ....|--- .... ....|--- .... ....
....|..|--- .... ....|--- .... ....|--- .... ....
....|..|--- .... ....|--- .... ....|--- .... ....
....|..|A#3 UFF3 ....|A#4 UFF7 ....|A#5 UFF3 ....
....|..|--- .... ....|--- .... ....|--- .... ....
....|..|A-3 UFFB ....|A-4 UFFF ....|A-5 UFFB ....
....|..|--- .... ....|--- .... ....|--- .... ....
....|..|G-3 UFFB ....|G-4 UFFF ....|G-5 UFFB ....
....|..|--- .... ....|--- .... ....|--- .... ....
....|..|D-4 UFF3 ....|D-5 UFF7 ....|D-6 UFF3 ....
....|..|--- .... ....|--- .... ....|--- .... ....
....|..|F#3 UFFB ....|F#4 UFFF ....|F#5 UFFB ....
....|..|--- .... ....|--- .... ....|--- .... ....
....|..|--- .... ....|--- .... ....|--- .... ....
....|..|--- .... ....|--- .... ....|--- .... ....
....|..|F#4 UFFB ....|F#5 UFFF ....|F#6 UFFB ....
....|..|--- .... ....|--- .... ....|--- .... ....
....|..|A-3 UFF6 ....|A-4 UFFA ....|A-5 UFF6 ....
....|..|--- .... ....|--- .... ....|--- .... ....
....|..|F#3 UFF3 ....|F#4 UFF7 ....|F#5 UFF3 ....
....|..|--- .... ....|--- .... ....|--- .... ....
....|..|--- .... ....|--- .... ....|--- .... ....
....|..|--- .... ....|--- .... ....|--- .... ....
....|..|F#3 UFF3 ....|F#4 UFF7 ....|F#5 UFF3 ....
....|..|--- .... ....|--- .... ....|--- .... ....
....|..|--- .... ....|--- .... ....|--- .... ....
....|..|--- .... ....|--- .... ....|--- .... ....
....|..|D-4 UFFB ....|D-5 UFFF ....|D-6 UFFB ....
....|..|--- .... ....|--- .... ....|--- .... ....
....|..|A-3 UFF3 ....|A-4 UFF7 ....|A-5 UFF3 ....
....|..|--- .... ....|--- .... ....|--- .... ....
....|..|D-4 UFFB ....|D-5 UFFF ....|D-6 UFFB ....
....|..|--- .... ....|--- .... ....|--- .... ....
....|..|--- .... ....|--- .... ....|--- .... ....
....|..|--- .... ....|--- .... ....|--- .... ....
....|..|E-4 UFFB ....|E-5 UFFF ....|E-6 UFFB ....
....|..|--- .... ....|--- .... ....|--- .... ....
....|..|--- .... ....|--- .... ....|--- .... ....
....|..|--- .... ....|--- .... ....|--- .... ....

[Pattern3]
....|..|D-4 UFFB ....|D-5 UFFF ....|D-6 UFFB ....
....|..|E-4 UFFB ....|E-5 UFFF ....|E-6 UFFB ....
....|..|D-4 UFFB ....|D-5 UFFF ....|D-6 UFFB ....
....|..|--- .... ....|--- .... ....|--- .... ....
....|..|C#4 UFFB ....|C#5 UFFF ....|C#6 UFFB ....
....|..|--- .... ....|--- .... ....|--- .... ....
....|..|--- .... ....|--- .... ....|--- .... ....
....|..|--- .... ....|--- .... ....|--- .... ....
....|..|G-4 UFFB ....|G-5 UFFF ....|G-6 UFFB ....
....|..|--- .... ....|--- .... ....|--- .... ....
....|..|--- .... ....|--- .... ....|--- .... ....
....|..|--- .... ....|--- .... ....|--- .... ....
....|..|D-4 UFF3 ....|D-5 UFF7 ....|D-6 UFF3 ....
....|..|E-4 UFF6 ....|E-5 UFFA ....|E-6 UFF6 ....
....|..|D-4 UFF6 ....|D-5 UFFA ....|D-6 UFF6 ....
....|..|--- .... ....|--- .... ....|--- .... ....
....|..|D-4 UFF3 ....|D-5 UFF7 ....|D-6 UFF3 ....
....|..|--- .... ....|--- .... ....|--- .... ....
....|..|--- .... ....|--- .... ....|--- .... ....
....|..|--- .... ....|--- .... ....|--- .... ....
....|..|G-3 UFFB ....|G-4 UFFF ....|G-5 UFFB ....
....|..|--- .... ....|--- .... ....|--- .... ....
....|..|--- .... ....|--- .... ....|--- .... ....
....|..|--- .... ....|--- .... ....|--- .... ....
....|..|G-3 UFFB ....|G-4 UFFF ....|G-5 UFFB ....
....|..|E-4 UFF3 ....|E-5 UFF7 ....|E-6 UFF3 ....
....|..|D-4 UFF3 ....|D-5 UFF7 ....|D-6 UFF3 ....
....|..|--- .... ....|--- .... ....|--- .... ....
....|..|F#3 UFFB ....|F#4 UFFF ....|F#5 UFFB ....
....|..|--- .... ....|--- .... ....|--- .... ....
....|..|--- .... ....|--- .... ....|--- .... ....
....|..|--- .... ....|--- .... ....|--- .... ....
....|..|A#3 UFFB ....|A#4 UFFF ....|A#5 UFFB ....
....|..|--- .... ....|--- .... ....|--- .... ....
....|..|--- .... ....|--- .... ....|--- .... ....
....|..|--- .... ....|--- .... ....|--- .... ....
....|..|C#4 UFFB ....|C#5 UFFF ....|C#6 UFFB ....
....|..|--- .... ....|--- .... ....|--- .... ....
....|..|--- .... ....|--- .... ....|--- .... ....
....|..|--- .... ....|--- .... ....|--- .... ....
....|..|E-4 UFFB ....|E-5 UFFF ....|E-6 UFFB ....
....|..|--- .... ....|--- .... ....|--- .... ....
....|..|--- .... ....|--- .... ....|--- .... ....
....|..|--- .... ....|--- .... ....|--- .... ....
....|..|E-4 UFFB ....|E-5 UFFF ....|E-6 UFFB ....
....|..|--- .... ....|--- .... ....|--- .... ....
....|..|--- .... ....|--- .... ....|--- .... ....
....|..|--- .... ....|--- .... ....|--- .... ....
....|..|D-4 UFFB ....|D-5 UFFF ....|D-6 UFFB ....
....|..|--- .... ....|--- .... ....|--- .... ....
....|..|--- .... ....|--- .... ....|--- .... ....
....|..|--- .... ....|--- .... ....|--- .... ....
....|..|F#3 UFF3 ....|F#4 UFF7 ....|F#5 UFF3 ....
....|..|--- .... ....|--- .... ....|--- .... ....
....|..|--- .... ....|--- .... ....|--- .... ....
....|..|--- .... ....|--- .... ....|--- .... ....
....|..|A#3 UFFB ....|A#4 UFFF ....|A#5 UFFB ....
....|..|--- .... ....|--- .... ....|--- .... ....
....|..|--- .... ....|--- .... ....|--- .... ....
....|..|--- .... ....|--- .... ....|--- .... ....
....|..|C#4 UFFB ....|C#5 UFFF ....|C#6 UFFB ....
....|..|--- .... ....|--- .... ....|--- .... ....
....|..|--- .... ....|--- .... ....|--- .... ....
....|..|--- .... ....|--- .... ....|--- .... ....

[Pattern4]
....|..|E-4 UFF3 ....|E-5 UFF7 ....|E-6 UFF3 ....
....|..|--- .... ....|--- .... ....|--- .... ....
....|..|--- .... ....|--- .... ....|--- .... ....
....|..|--- .... ....|--- .... ....|--- .... ....
....|..|B-3 UFFB ....|B-4 UFFF ....|B-5 UFFB ....
....|..|--- .... ....|--- .... ....|--- .... ....
....|..|B-3 UFFB ....|B-4 UFFF ....|B-5 UFFB ....
....|..|C#4 UFFB ....|C#5 UFFF ....|C#6 UFFB ....
....|..|B-3 UFFB ....|B-4 UFFF ....|B-5 UFFB ....
....|..|--- .... ....|--- .... ....|--- .... ....
....|..|--- .... ....|--- .... ....|--- .... ....
....|..|--- .... ....|--- .... ....|--- .... ....
....|..|A#3 UFFB ....|A#4 UFFF ....|A#5 UFFB ....
....|..|--- .... ....|--- .... ....|--- .... ....
....|..|B-3 UFFB ....|B-4 UFFF ....|B-5 UFFB ....
....|..|--- .... ....|--- .... ....|--- .... ....
....|..|C#4 UFFB ....|C#5 UFFF ....|C#6 UFFB ....
....|..|--- .... ....|--- .... ....|--- .... ....
....|..|D-4 UFFB ....|D-5 UFFF ....|D-6 UFFB ....
....|..|C#4 UFF6 ....|C#5 UFFA ....|C#6 UFF6 ....
....|..|C#4 UFF3 ....|C#5 UFF7 ....|C#6 UFF3 ....
....|..|--- .... ....|--- .... ....|--- .... ....
....|..|--- .... ....|--- .... ....|--- .... ....
....|..|--- .... ....|--- .... ....|--- .... ....
....|..|A#3 UFF6 ....|A#4 UFFA ....|A#5 UFF6 ....
....|..|--- .... ....|--- .... ....|--- .... ....
....|..|B-3 UFF6 ....|B-4 UFFA ....|B-5 UFF6 ....
....|..|--- .... ....|--- .... ....|--- .... ....
....|..|D-4 6F.B ....|D-5 6F.F ....|D-6 6F.B ....
....|..|--- .... ....|--- .... ....|--- .... ....
....|..|B-3 UFF3 ....|B-4 UFF7 ....|B-5 UFF3 ....
....|..|C#4 UFF3 ....|C#5 UFF7 ....|C#6 UFF3 ....
....|..|B-3 6F.B ....|B-4 6F.F ....|B-5 6F.B ....
....|..|--- .... ....|--- .... ....|--- .... ....
....|..|R-- .... ....|R-- .... ....|R-- .... ....
....|..|--- .... ....|--- .... ....|--- .... ....
....|..|B-3 6F.B ....|B-4 6F.F ....|B-5 6F.B ....
....|..|R-- .... ....|R-- .... ....|R-- .... ....
....|..|B-3 6F.B ....|B-4 6F.F ....|B-5 6F.B ....
....|..|--- .... ....|--- .... ....|--- .... ....
....|..|D-4 6F.B ....|D-5 6F.F ....|D-6 6F.B ....
....|..|--- .... ....|--- .... ....|--- .... ....
....|..|D-4 UFF3 ....|D-5 UFF7 ....|D-6 UFF3 ....
....|..|--- .... ....|--- .... ....|--- .... ....
....|..|E-4 6F.B ....|E-5 6F.F ....|E-6 6F.B ....
....|..|--- .... ....|--- .... ....|--- .... ....
....|..|R-- .... ....|R-- .... ....|R-- .... ....
....|..|--- .... ....|--- .... ....|--- .... ....
....|..|F#4 6F.B ....|F#5 6F.F ....|F#6 6F.B ....
....|..|R-- .... ....|R-- .... ....|R-- .... ....
....|..|B-3 6F.6 ....|B-4 6F.A ....|B-5 6F.6 ....
....|..|--- .... ....|--- .... ....|--- .... ....
....|..|F#4 6F.B ....|F#5 6F.F ....|F#6 6F.B ....
....|..|--- .... ....|--- .... ....|--- .... ....
....|..|--- .... ....|--- .... ....|--- .... ....
....|..|--- .... ....|--- .... ....|--- .... ....
....|..|D-2 7F1B ....|D-3 7F1F ....|D-4 7F1B ....
....|..|--- .... ....|--- .... ....|--- .... ....
....|..|R-- .... ....|R-- .... ....|R-- .... ....
....|..|--- .... ....|--- .... ....|--- .... ....
....|..|E-4 6F.B ....|E-5 6F.F ....|E-6 6F.B ....
....|..|R-- .... ....|R-- .... ....|R-- .... ....
....|..|B-3 6F.3 ....|B-4 6F.7 ....|B-5 6F.3 ....
....|..|--- .... ....|--- .... ....|--- .... ....

[Pattern5]
....|..|F#4 6F.B ....|F#5 6F.F ....|F#6 6F.A ....
....|..|--- .... ....|--- .... ....|--- .... ....
....|..|R-- .... ....|R-- .... ....|R-- .... ....
....|..|--- .... ....|--- .... ....|--- .... ....
....|..|F#4 6F.B ....|F#5 6F.F ....|F#6 6F.A ....
....|..|--- .... ....|--- .... ....|--- .... ....
....|..|--- .... ....|--- .... ....|--- .... ....
....|..|--- .... ....|--- .... ....|--- .... ....
....|..|F#2 7F1B ....|F#3 7F1F ....|F#4 7F1A ....
....|..|--- .... ....|--- .... ....|--- .... ....
....|..|R-- .... ....|R-- .... ....|R-- .... ....
....|..|--- .... ....|--- .... ....|--- .... ....
....|..|D-4 6F.B ....|D-5 6F.F ....|D-6 6F.A ....
....|..|--- .... ....|--- .... ....|--- .... ....
....|..|R-- .... ....|R-- .... ....|R-- .... ....
....|..|--- .... ....|--- .... ....|--- .... ....
....|..|C#4 6F.B ....|C#5 6F.F ....|C#6 6F.A ....
....|..|--- .... ....|--- .... ....|--- .... ....
....|..|--- .... ....|--- .... ....|--- .... ....
....|..|--- .... ....|--- .... ....|--- .... ....
....|..|E-4 6F.3 ....|E-5 6F.7 ....|E-6 6F.2 ....
....|..|--- .... ....|--- .... ....|--- .... ....
....|..|--- .... ....|--- .... ....|--- .... ....
....|..|--- .... ....|--- .... ....|--- .... ....
....|..|F#2 7F1B ....|F#3 7F1F ....|F#4 7F1A ....
....|..|--- .... ....|--- .... ....|--- .... ....
....|..|R-- .... ....|R-- .... ....|R-- .... ....
....|..|--- .... ....|--- .... ....|--- .... ....
....|..|B-3 6F.B ....|B-4 6F.F ....|B-5 6F.A ....
....|..|--- .... ....|--- .... ....|--- .... ....
....|..|--- .... ....|--- .... ....|--- .... ....
....|..|--- .... ....|--- .... ....|--- .... ....
....|..|B-3 6F.B ....|B-4 6F.F ....|B-5 6F.A ....
....|..|--- .... ....|--- .... ....|--- .... ....
....|..|--- .... ....|--- .... ....|--- .... ....
....|..|--- .... ....|--- .... ....|--- .... ....
....|..|C-4 CF.F ....|B-4 6F.F ....|B-5 6F.A ....
....|..|--- .... ....|--- .... ....|--- .... ....
....|..|--- .... ....|--- .... ....|--- .... ....
....|..|--- .... ....|--- .... ....|--- .... ....
....|..|R-- .... ....|C#5 6F.F ....|C#6 6F.A ....
....|..|--- .... ....|--- .... ....|--- .... ....
....|..|--- .... ....|--- .... ....|--- .... ....
....|..|--- .... ....|--- .... ....|--- .... ....
....|..|--- .... ....|E-5 6F.F ....|E-6 6F.A ....
....|..|--- .... ....|--- .... ....|--- .... ....
....|..|--- .... ....|--- .... ....|--- .... ....
....|..|--- .... ....|--- .... ....|--- .... ....
....|..|C-4 CF.A ....|F#5 6F.F ....|F#6 6F.A ....
....|..|--- .... ....|--- .... ....|--- .... ....
....|..|--- .... ....|--- .... ....|--- .... ....
....|..|--- .... ....|--- .... ....|--- .... ....
....|..|C-4 CF.F ....|F#5 6F.F ....|F#6 6F.A ....
....|..|--- .... ....|--- .... ....|--- .... ....
....|..|--- .... ....|--- .... ....|--- .... ....
....|..|--- .... ....|--- .... ....|--- .... ....
....|..|R-- .... ....|D-3 7F1F ....|D-4 7F1A ....
....|..|--- .... ....|--- .... ....|--- .... ....
....|..|--- .... ....|--- .... ....|--- .... ....
....|..|--- .... ....|--- .... ....|--- .... ....
....|..|C-4 CF.7 ....|E-5 6F.F ....|E-6 6F.A ....
....|..|--- .... ....|--- .... ....|--- .... ....
....|..|--- .... ....|--- .... ....|--- .... ....
....|..|--- .... ....|--- .... ....|--- .... ....

[Pattern6]
....|..|C-4 CF.A ....|F#5 6F.F ....|F#4 6F.B ....
....|..|--- .... ....|--- .... ....|--- .... ....
....|..|--- .... ....|--- .... ....|--- .... ....
....|..|--- .... ....|--- .... ....|--- .... ....
....|..|C-4 CF.F ....|F#5 6F.F ....|F#4 6F.B ....
....|..|--- .... ....|--- .... ....|--- .... ....
....|..|--- .... ....|--- .... ....|--- .... ....
....|..|--- .... ....|--- .... ....|--- .... ....
....|..|R-- .... ....|F#5 6F.F ....|F#4 6F.B ....
....|..|--- .... ....|--- .... ....|--- .... ....
....|..|--- .... ....|A-5 6F.F ....|A-4 6F.B ....
....|..|--- .... ....|--- .... ....|--- .... ....
....|..|C-4 CF.7 ....|F#5 6F.F ....|F#4 6F.B ....
....|..|--- .... ....|--- .... ....|--- .... ....
....|..|--- .... ....|A-5 6F.F ....|A-4 6F.B ....
....|..|--- .... ....|C#5 UFFF ....|C#4 UFFB ....
....|..|C-4 AF.F ....|D-3 7F17 ....|D-2 7F13 ....
....|..|--- .... ....|--- .... ....|--- .... ....
....|..|--- .... ....|--- .... ....|--- .... ....
....|..|--- .... ....|--- .... ....|--- .... ....
....|..|R-- .... ....|E-5 6F.7 ....|E-4 6F.3 ....
....|..|--- .... ....|--- .... ....|--- .... ....
....|..|--- .... ....|A-5 6F.A ....|A-4 6F.6 ....
....|..|--- .... ....|--- .... ....|--- .... ....
..20|..|F#1 2A.F ....|F#1 2A.F ....|F#1 2A.B ....
....|..|--- .... ....|--- .... ....|--- .... ....
....|..|--- .... ....|A-5 6F.A ....|A-4 6F.6 ....
....|..|--- .... ....|C#5 UFFA ....|C#4 UFF6 ....
....|..|C-4 CF.7 ....|F#5 6F.7 ....|F#4 6F.3 ....
....|..|--- .... ....|--- .... ....|--- .... ....
....|..|--- .... ....|--- .... ....|--- .... ....
....|..|--- .... ....|--- .... ....|--- .... ....
....|..|C-4 AF.F ....|B-4 6F.F ....|B-2 3FEB ....
..18|..|B-1 2A.F ....|--- .... ....|--- .... ....
....|..|--- .... ....|A-5 6F.7 ....|--- .... ....
....|..|--- .... ....|--- .... ....|--- .... ....
....|..|F#1 2F.A ....|B-4 6F.F ....|B-2 3FEB ....
....|..|--- .... ....|R-- .... ....|R-- .... ....
....|..|C-4 AF.F ....|B-4 6F.F ....|B-2 3FEB ....
..18|..|B-1 2A.F ....|C#5 UFF7 ....|--- .... ....
....|..|C-4 CF.F ....|D-5 6F.F ....|D-3 3FEB ....
..18|..|B-1 2A.F ....|--- .... ....|--- .... ....
....|..|--- .... ....|--- .... ....|--- .... ....
....|..|--- .... ....|--- .... ....|--- .... ....
....|..|C-4 AF.F ....|E-5 6F.F ....|E-4 3FEF ....
..18|..|B-1 2A.F ....|--- .... ....|--- .... ....
..18|..|B-1 2A.F ....|--- .... ....|--- .... ....
....|..|--- .... ....|--- .... ....|--- .... ....
....|..|C-4 AF.F ....|F#5 6F.F ....|F#4 3FEF ....
..14|..|D-2 2A.F ....|R-- .... ....|R-- .... ....
....|..|C-4 AF.A ....|B-4 6F.A ....|B-3 3FEA ....
....|..|B-1 2F.A ....|--- .... ....|--- .... ....
....|..|C-4 CF.A ....|F#5 6F.F ....|F#4 3FEF ....
....|..|B-1 2F.A ....|--- .... ....|--- .... ....
....|..|C-4 AF.F ....|--- .... ....|--- .... ....
..14|..|D-2 2A.F ....|--- .... ....|--- .... ....
....|..|C-4 CF.F ....|D-3 7F1F ....|B-3 3FE7 ....
..14|..|D-2 2A.F ....|--- .... ....|--- .... ....
....|..|B-1 2F.A ....|--- .... ....|--- .... ....
....|..|--- .... ....|--- .... ....|--- .... ....
....|..|C-4 AF.A ....|E-5 6F.F ....|E-4 3FEF ....
....|..|D-2 2F.A ....|R-- .... ....|R-- .... ....
....|..|C-4 AF.7 ....|B-4 6F.7 ....|B-3 3FE7 ....
....|..|B-1 2F.7 ....|--- .... ....|--- .... ....

[Pattern7]
....|..|C-4 AF.F ....|F#5 6F.F ....|F#4 3FEF ....
..10|..|F#2 2A.F ....|--- .... ....|--- .... ....
....|..|C-4 AF.A ....|R-- .... ....|R-- .... ....
....|..|D-2 2F.A ....|--- .... ....|--- .... ....
....|..|C-4 AF.7 ....|F#5 6F.F ....|F#4 3FEF ....
....|..|B-1 2F.7 ....|--- .... ....|--- .... ....
....|..|C-4 AF.F ....|--- .... ....|--- .... ....
..15|..|C#2 2A.F ....|--- .... ....|--- .... ....
....|..|C-4 CF.F ....|F#3 7F1F ....|F#4 3FE7 ....
..10|..|F#2 2A.F ....|--- .... ....|--- .... ....
....|..|--- .... ....|R-- .... ....|R-- .... ....
....|..|--- .... ....|--- .... ....|--- .... ....
....|..|C-4 AF.F ....|D-5 6F.F ....|D-4 3FEF ....
..15|..|C#2 2A.F ....|--- .... ....|--- .... ....
....|..|C-4 AF.7 ....|R-- .... ....|R-- .... ....
....|..|D-2 2F.7 ....|--- .... ....|--- .... ....
....|..|C-4 AF.F ....|C#5 6F.F ....|C#4 3FEF ....
..10|..|F#2 2A.F ....|--- .... ....|--- .... ....
....|..|C-4 AF.A ....|--- .... ....|--- .... ....
....|..|C#2 2F.A ....|--- .... ....|--- .... ....
....|..|C-4 CF.A ....|E-5 6F.7 ....|E-4 3FE7 ....
....|..|F#2 2F.A ....|--- .... ....|--- .... ....
....|..|C-4 AF.F ....|--- .... ....|--- .... ....
..15|..|C#2 2A.F ....|--- .... ....|--- .... ....
....|..|C-4 CF.F ....|A-4 6F.F ....|F#4 3FE7 ....
..10|..|F#2 2A.F ....|--- .... ....|--- .... ....
....|..|--- .... ....|R-- .... ....|R-- .... ....
....|..|--- .... ....|--- .... ....|--- .... ....
....|..|C-4 AF.F ....|F#5 6F.7 ....|F#4 3FE7 ....
..10|..|F#2 2A.F ....|--- .... ....|--- .... ....
....|..|C-4 AF.F ....|--- .... ....|--- .... ....
..10|..|F#2 2A.F ....|--- .... ....|--- .... ....
....|..|C-4 AF.F ....|B-4 6F.F ....|B-3 3FEF ....
..18|..|B-1 2A.F ....|--- .... ....|--- .... ....
....|..|C-4 AF.A ....|--- .... ....|--- .... ....
....|..|C#2 2F.A ....|--- .... ....|--- .... ....
....|..|C-4 AF.7 ....|B-4 6F.F ....|B-3 3FEF ....
....|..|C#2 2F.7 ....|R-- .... ....|R-- .... ....
....|..|C-4 AF.F ....|B-4 6F.F ....|B-3 3FEF ....
..18|..|B-1 2A.F ....|--- .... ....|--- .... ....
....|..|C-4 CF.F ....|D-5 6F.F ....|D-4 3FEF ....
..18|..|B-1 2A.F ....|--- .... ....|--- .... ....
....|..|C-4 AF.A ....|--- .... ....|--- .... ....
....|..|F#2 2F.A ....|--- .... ....|--- .... ....
....|..|C-4 AF.F ....|E-5 6F.F ....|E-4 3FEF ....
..18|..|B-1 2A.F ....|--- .... ....|--- .... ....
..18|..|B-1 2A.F ....|--- .... ....|--- .... ....
....|..|C#2 2F.7 ....|--- .... ....|--- .... ....
....|..|C-4 LF.F ....|F#5 6F.F ....|F#4 3FEF ....
..14|..|D-2 2A.F ....|R-- .... ....|R-- .... ....
....|..|C-4 AF.A ....|B-4 6F.A ....|B-3 3FEA ....
....|..|B-1 2F.A ....|--- .... ....|--- .... ....
....|..|C-4 AF.F ....|F#5 6F.F ....|F#4 3FEF ....
....|..|F#2 2F.7 ....|--- .... ....|--- .... ....
....|..|C-4 AF.F ....|D-3 7F1F ....|--- .... ....
..14|..|D-2 2A.F ....|--- .... ....|--- .... ....
....|..|C-4 CF.F ....|D-3 7F1F ....|B-3 3FE7 ....
..14|..|D-2 2A.F ....|--- .... ....|--- .... ....
....|..|B-1 2F.A ....|--- .... ....|--- .... ....
....|..|--- .... ....|--- .... ....|--- .... ....
....|..|C-4 AF.F ....|E-5 6F.F ....|E-4 3FEF ....
..1B|..|A-1 2A.F ....|R-- .... ....|R-- .... ....
...F|..|G-2 2A.F ....|B-4 6F.7 ....|B-3 3FE7 ....
....|..|B-1 2F.7 ....|--- .... ....|--- .... ....

[Pattern8]
....|..|C-4 AF.F ....|F#5 6F.F ....|F#4 3FEF ....
..10|..|F#2 2A.F ....|--- .... ....|--- .... ....
....|..|C-4 AF.A ....|D-3 7F1A ....|R-- .... ....
....|..|D-2 2F.A ....|--- .... ....|--- .... ....
....|..|C-4 AF.7 ....|F#5 6F.F ....|F#4 3FEF ....
....|..|B-1 2F.7 ....|--- .... ....|--- .... ....
..10|..|F#2 2A.F ....|--- .... ....|--- .... ....
....|..|--- .... ....|--- .... ....|--- .... ....
....|..|C-4 CF.F ....|F#3 7F1F ....|F#4 3FE7 ....
..10|..|F#2 2A.F ....|--- .... ....|--- .... ....
....|..|G-2 2F.A ....|R-- .... ....|R-- .... ....
....|..|--- .... ....|--- .... ....|--- .... ....
....|..|C-4 AF.7 ....|F#5 6F.7 ....|F#4 3FE7 ....
....|..|F#2 2F.A ....|--- .... ....|--- .... ....
....|..|C-4 AF.7 ....|D-3 7F17 ....|R-- .... ....
....|..|D-2 2F.7 ....|--- .... ....|--- .... ....
....|..|C-4 AF.F ....|F#5 6F.F ....|C#4 3FEF ....
..10|..|F#2 2A.F ....|--- .... ....|--- .... ....
....|..|F#2 2F.A ....|A-5 6F.F ....|--- .... ....
....|..|--- .... ....|--- .... ....|--- .... ....
....|..|C-4 AF.7 ....|F#5 6F.F ....|E-4 3FE7 ....
....|..|A-1 2F.7 ....|--- .... ....|--- .... ....
....|..|G-2 2F.7 ....|A-5 6F.F ....|--- .... ....
....|..|--- .... ....|--- .... ....|--- .... ....
....|..|C-4 CF.F ....|F#5 6F.F ....|C#4 3FEF ....
..19|..|A#2 2C.F ....|--- .... ....|--- .... ....
....|..|--- .... ....|A-5 6F.F ....|R-- .... ....
....|..|--- .... ....|--- .... ....|--- .... ....
....|..|C-4 CF.F ....|F#5 6F.F ....|F#4 3FE7 ....
....|..|F#2 2F.A ....|--- .... ....|--- .... ....
....|..|C-4 CF.F ....|A-5 6F.F ....|--- .... ....
....|..|--- .... ....|--- .... ....|--- .... ....
..18|..|C-4 AF.F ....|B-1 2A.F ....|C#4 3FEF ....
....|..|F#2 2F.7 ....|--- .... ....|--- .... ....
....|..|R-- .... ....|A-5 6F.A ....|--- .... ....
....|..|--- .... ....|--- .... ....|--- .... ....
....|..|C-4 CF.A ....|B-3 7F1F ....|C#4 3FEA ....
....|..|A#2 2F.A ....|--- .... ....|--- .... ....
....|..|--- .... ....|A-5 6F.A ....|B-3 3FEF ....
....|..|--- .... ....|--- .... ....|--- .... ....
....|..|C-4 CF.F ....|F#5 6F.7 ....|C#4 3FE7 ....
....|..|F#2 2F.7 ....|--- .... ....|--- .... ....
....|..|C-4 CF.A ....|A-5 6F.7 ....|--- .... ....
....|..|--- .... ....|--- .... ....|--- .... ....
....|..|C-4 AF.F ....|B-3 7F1F ....|C#4 3FEA ....
....|..|R-- .... ....|--- .... ....|--- .... ....
....|..|C-4 AF.F ....|A-5 6F.7 ....|R-- .... ....
....|..|--- .... ....|--- .... ....|--- .... ....
..14|..|C-4 AF.F ....|D-2 2A.F ....|C#4 3FE7 ....
....|..|A#2 2F.7 ....|--- .... ....|--- .... ....
....|..|--- .... ....|A-5 6F.7 ....|B-3 3FEA ....
....|..|--- .... ....|--- .... ....|--- .... ....
....|..|C-4 CF.7 ....|D-3 7F1F ....|--- .... ....
....|..|--- .... ....|--- .... ....|--- .... ....
....|..|C-4 AF.F ....|A-5 6F.7 ....|--- .... ....
....|..|--- .... ....|--- .... ....|--- .... ....
....|..|C-4 CF.F ....|B-1 2F.7 ....|C#4 3FE7 ....
....|..|R-- .... ....|--- .... ....|--- .... ....
....|..|C-4 AF.A ....|--- .... ....|R-- .... ....
....|..|--- .... ....|--- .... ....|--- .... ....
....|..|C-4 AF.A ....|D-3 7F1F ....|B-3 3FEF ....
....|..|--- .... ....|--- .... ....|R-- .... ....
....|..|--- .... ....|--- .... ....|B-3 3FEF ....
....|..|--- .... ....|--- .... ....|--- .... ....

[Pattern9]
..20|..|C-4 AF.F ....|F#1 2A.F ....|B-3 3FEF ....
....|..|--- .... ....|--- .... ....|--- .... ....
....|..|C-4 AF.A ....|--- .... ....|--- .... ....
....|..|--- .... ....|--- .... ....|--- .... ....
....|..|C-4 AF.7 ....|F#3 7F1F ....|A-3 3FEF ....
....|..|--- .... ....|--- .... ....|--- .... ....
....|..|C-4 AF.F ....|--- .... ....|R-- .... ....
....|..|--- .... ....|--- .... ....|--- .... ....
....|..|C-4 CF.F ....|D-2 2F.7 ....|B-3 3FEA ....
....|..|--- .... ....|--- .... ....|R-- .... ....
....|..|--- .... ....|--- .... ....|B-3 3FEA ....
....|..|--- .... ....|--- .... ....|--- .... ....
....|..|C-4 AF.F ....|F#3 7F1F ....|B-3 3FEA ....
....|..|--- .... ....|--- .... ....|--- .... ....
....|..|C-4 AF.7 ....|--- .... ....|--- .... ....
....|..|--- .... ....|--- .... ....|--- .... ....
....|..|C-4 CF.7 ....|C#5 6F.F ....|A-3 3FEA ....
....|..|--- .... ....|--- .... ....|--- .... ....
....|..|C-4 AF.A ....|D-5 6F.F ....|--- .... ....
....|..|--- .... ....|--- .... ....|--- .... ....
....|..|C-4 CF.A ....|C#5 6F.F ....|B-3 3FE7 ....
....|..|--- .... ....|--- .... ....|R-- .... ....
....|..|C-4 AF.F ....|B-4 6F.F ....|B-3 3FE7 ....
....|..|--- .... ....|--- .... ....|--- .... ....
....|..|C-4 CF.F ....|A-4 6F.F ....|B-3 3FE7 ....
....|..|--- .... ....|--- .... ....|--- .... ....
....|..|--- .... ....|--- .... ....|--- .... ....
....|..|--- .... ....|--- .... ....|--- .... ....
....|..|C-4 AF.F ....|F#3 7F1F ....|A-3 3FEF ....
....|..|--- .... ....|--- .... ....|--- .... ....
....|..|C-4 AF.F ....|D-5 6F.A ....|B-3 3FEF ....
....|..|--- .... ....|--- .... ....|--- .... ....
..18|..|C-4 AF.F ....|B-1 2A.F ....|--- .... ....
....|..|--- .... ....|--- .... ....|--- .... ....
....|..|C-4 AF.A ....|B-4 6F.A ....|--- .... ....
....|..|--- .... ....|--- .... ....|--- .... ....
....|..|C-4 AF.7 ....|B-3 7F1F ....|A-4 3FEF ....
....|..|--- .... ....|--- .... ....|--- .... ....
....|..|C-4 AF.F ....|--- .... ....|--- .... ....
....|..|--- .... ....|--- .... ....|--- .... ....
....|..|C-4 CF.F ....|C#5 6F.7 ....|E-4 3FEF ....
....|..|--- .... ....|--- .... ....|--- .... ....
....|..|C-4 AF.A ....|D-5 6F.7 ....|B-3 3FEA ....
....|..|--- .... ....|--- .... ....|--- .... ....
....|..|C-4 AF.F ....|B-3 7F1F ....|D-4 3FEF ....
....|..|--- .... ....|--- .... ....|--- .... ....
....|..|C-4 AF.F ....|B-4 6F.7 ....|E-4 3FEF ....
....|..|--- .... ....|--- .... ....|--- .... ....
..14|..|C-4 AF.F ....|D-2 2A.F ....|A-4 3FEA ....
....|..|--- .... ....|--- .... ....|--- .... ....
....|..|C-4 AF.A ....|--- .... ....|--- .... ....
....|..|--- .... ....|--- .... ....|--- .... ....
....|..|C-4 AF.7 ....|D-3 7F1F ....|A-4 3FEF ....
....|..|--- .... ....|--- .... ....|--- .... ....
....|..|C-4 AF.F ....|--- .... ....|B-3 3FE7 ....
....|..|--- .... ....|--- .... ....|--- .... ....
....|..|C-4 CF.F ....|B-1 2F.7 ....|E-4 3FEF ....
....|..|--- .... ....|--- .... ....|--- .... ....
....|..|C-4 AF.A ....|--- .... ....|E-4 3FEA ....
....|..|--- .... ....|--- .... ....|--- .... ....
....|..|C-4 AF.A ....|D-3 7F1F ....|E-4 3FEF ....
....|..|--- .... ....|--- .... ....|--- .... ....
....|..|C-4 AF.7 ....|--- .... ....|E-4 3FEF ....
....|..|--- .... ....|--- .... ....|--- .... ....

[Pattern10]
..20|..|C-4 AF.F ....|F#1 2A.F ....|E-4 3FE7 ....
....|..|--- .... ....|--- .... ....|--- .... ....
....|..|C-4 AF.A ....|--- .... ....|D-4 3FEF ....
....|..|--- .... ....|--- .... ....|--- .... ....
....|..|C-4 AF.7 ....|F#3 7F1F ....|D-4 3FE7 ....
....|..|--- .... ....|--- .... ....|--- .... ....
....|..|C-4 AF.F ....|--- .... ....|E-4 3FE7 ....
....|..|--- .... ....|--- .... ....|--- .... ....
....|..|C-4 CF.F ....|D-2 2F.7 ....|E-4 3FEA ....
....|..|--- .... ....|--- .... ....|--- .... ....
....|..|--- .... ....|--- .... ....|E-4 3FEA ....
....|..|--- .... ....|--- .... ....|--- .... ....
....|..|C-4 AF.F ....|B-4 6F.F ....|A-4 3FE7 ....
....|..|--- .... ....|--- .... ....|--- .... ....
....|..|C-4 AF.7 ....|R-- .... ....|D-4 3FEA ....
....|..|--- .... ....|--- .... ....|--- .... ....
....|..|C-4 CF.7 ....|F#5 6F.F ....|C#4 3FEF ....
....|..|--- .... ....|--- .... ....|--- .... ....
....|..|C-4 AF.A ....|A-5 6F.F ....|--- .... ....
....|..|--- .... ....|--- .... ....|--- .... ....
....|..|C-4 CF.A ....|F#5 6F.F ....|E-4 3FE7 ....
....|..|--- .... ....|--- .... ....|--- .... ....
....|..|C-4 AF.F ....|A-5 6F.F ....|E-4 3FE7 ....
....|..|--- .... ....|--- .... ....|--- .... ....
....|..|C-4 CF.F ....|F#5 6F.F ....|C#4 3FEF ....
....|..|--- .... ....|--- .... ....|--- .... ....
....|..|--- .... ....|A-5 6F.F ....|D-4 3FE7 ....
....|..|--- .... ....|--- .... ....|--- .... ....
....|..|C-4 AF.F ....|F#5 6F.F ....|C#4 3FEA ....
....|..|--- .... ....|--- .... ....|--- .... ....
....|..|C-4 AF.F ....|A-5 6F.F ....|--- .... ....
....|..|--- .... ....|--- .... ....|--- .... ....
..18|..|C-4 AF.F ....|B-1 2A.F ....|C#4 3FEF ....
....|..|--- .... ....|--- .... ....|--- .... ....
....|..|C-4 AF.A ....|A-5 6F.A ....|R-- .... ....
....|..|--- .... ....|--- .... ....|--- .... ....
....|..|C-4 AF.7 ....|B-3 7F1F ....|C#4 3FEA ....
....|..|--- .... ....|--- .... ....|--- .... ....
....|..|C-4 AF.F ....|A-5 6F.A ....|B-3 3FEF ....
....|..|--- .... ....|--- .... ....|--- .... ....
....|..|C-4 CF.F ....|F#5 6F.7 ....|C#4 3FE7 ....
....|..|--- .... ....|--- .... ....|--- .... ....
....|..|C-4 AF.A ....|A-5 6F.7 ....|--- .... ....
....|..|--- .... ....|--- .... ....|--- .... ....
....|..|C-4 AF.F ....|B-3 7F1F ....|C#4 3FEA ....
....|..|--- .... ....|--- .... ....|--- .... ....
....|..|C-4 AF.7 ....|A-5 6F.7 ....|--- .... ....
....|..|--- .... ....|--- .... ....|--- .... ....
..14|..|C-4 CF.7 ....|D-2 2A.F ....|C#4 3FE7 ....
....|..|--- .... ....|--- .... ....|--- .... ....
....|..|C-4 AF.A ....|A-5 6F.7 ....|B-3 3FEA ....
....|..|--- .... ....|--- .... ....|--- .... ....
....|..|C-4 AF.7 ....|D-3 7F1F ....|--- .... ....
....|..|--- .... ....|--- .... ....|--- .... ....
....|..|C-4 AF.F ....|A-5 6F.7 ....|--- .... ....
....|..|--- .... ....|--- .... ....|--- .... ....
....|..|C-4 CF.F ....|B-1 2F.7 ....|B-3 3FEF ....
....|..|--- .... ....|--- .... ....|--- .... ....
....|..|--- .... ....|--- .... ....|--- .... ....
....|..|--- .... ....|--- .... ....|--- .... ....
....|..|C-4 AF.F ....|D-3 7F1F ....|B-3 3FEF ....
....|..|--- .... ....|--- .... ....|--- .... ....
....|..|C-4 AF.F ....|--- .... ....|B-3 3FEF ....
....|..|--- .... ....|--- .... ....|--- .... ....

[Pattern11]
..20|..|C-4 AF.F ....|F#1 2A.F ....|--- .... ....
....|..|--- .... ....|--- .... ....|--- .... ....
....|..|C-4 AF.A ....|--- .... ....|--- .... ....
....|..|--- .... ....|--- .... ....|--- .... ....
....|..|C-4 AF.7 ....|F#3 7F1F ....|A-3 3FEF ....
....|..|--- .... ....|--- .... ....|--- .... ....
....|..|C-4 AF.F ....|--- .... ....|--- .... ....
....|..|--- .... ....|--- .... ....|--- .... ....
....|..|C-4 CF.F ....|D-2 2F.7 ....|B-3 3FEA ....
....|..|--- .... ....|--- .... ....|--- .... ....
....|..|C-4 AF.A ....|--- .... ....|B-3 3FEA ....
....|..|--- .... ....|--- .... ....|--- .... ....
....|..|C-4 AF.F ....|F#3 7F1F ....|R-- .... ....
....|..|--- .... ....|--- .... ....|--- .... ....
....|..|C-4 AF.F ....|--- .... ....|--- .... ....
....|..|--- .... ....|--- .... ....|--- .... ....
....|..|C-4 AF.F ....|C#5 6F.F ....|B-3 3FE7 ....
....|..|--- .... ....|--- .... ....|--- .... ....
....|..|C-4 AF.A ....|D-5 6F.F ....|--- .... ....
....|..|--- .... ....|--- .... ....|--- .... ....
....|..|C-4 AF.7 ....|C#5 6F.F ....|B-3 3FE7 ....
....|..|--- .... ....|--- .... ....|--- .... ....
....|..|C-4 AF.F ....|B-4 6F.F ....|B-3 3FE7 ....
....|..|--- .... ....|--- .... ....|--- .... ....
....|..|C-4 CF.F ....|A-4 6F.F ....|R-- .... ....
....|..|--- .... ....|--- .... ....|--- .... ....
....|..|C-4 AF.A ....|--- .... ....|A-3 3FEF ....
....|..|--- .... ....|--- .... ....|--- .... ....
....|..|C-4 AF.F ....|F#3 7F1F ....|A-3 3FEF ....
....|..|--- .... ....|--- .... ....|--- .... ....
....|..|C-4 AF.F ....|D-5 6F.A ....|A-3 3FEF ....
....|..|--- .... ....|--- .... ....|--- .... ....
..18|..|C-4 AF.F ....|B-1 2A.F ....|B-3 3FEF ....
....|..|--- .... ....|--- .... ....|--- .... ....
....|..|C-4 AF.A ....|B-4 6F.A ....|--- .... ....
....|..|--- .... ....|--- .... ....|--- .... ....
....|..|C-4 AF.7 ....|B-3 7F1F ....|A-4 3FEF ....
....|..|--- .... ....|--- .... ....|--- .... ....
....|..|C-4 AF.F ....|--- .... ....|A-3 3FEA ....
....|..|--- .... ....|--- .... ....|--- .... ....
....|..|C-4 CF.F ....|C#5 6F.7 ....|E-4 3FEF ....
....|..|--- .... ....|--- .... ....|--- .... ....
....|..|C-4 AF.A ....|D-5 6F.7 ....|D-4 3FEF ....
....|..|--- .... ....|--- .... ....|--- .... ....
....|..|C-4 AF.F ....|B-3 7F1F ....|B-3 3FEA ....
....|..|--- .... ....|--- .... ....|--- .... ....
....|..|C-4 AF.7 ....|B-4 6F.7 ....|E-4 3FEF ....
....|..|--- .... ....|--- .... ....|--- .... ....
..14|..|C-4 CF.7 ....|D-2 2A.F ....|A-4 3FEA ....
....|..|--- .... ....|--- .... ....|--- .... ....
....|..|C-4 AF.A ....|--- .... ....|A-3 3FE7 ....
....|..|--- .... ....|--- .... ....|--- .... ....
....|..|C-4 AF.7 ....|D-3 7F1F ....|A-4 3FEF ....
....|..|--- .... ....|--- .... ....|--- .... ....
....|..|C-4 AF.F ....|--- .... ....|A-3 3FE7 ....
....|..|--- .... ....|--- .... ....|--- .... ....
....|..|C-4 CF.F ....|B-1 2F.7 ....|E-4 3FEF ....
....|..|--- .... ....|--- .... ....|--- .... ....
....|..|--- .... ....|--- .... ....|E-4 3FEF ....
....|..|--- .... ....|--- .... ....|--- .... ....
....|..|C-4 AF.F ....|D-3 7F1F ....|A-4 3FE7 ....
....|..|--- .... ....|--- .... ....|--- .... ....
....|..|C-4 AF.F ....|--- .... ....|E-4 3FEF ....
....|..|--- .... ....|--- .... ....|--- .... ....

[Pattern12]
..20|..|C-4 AF.F ....|F#1 2A.F ....|E-4 3FE7 ....
....|..|--- .... ....|--- .... ....|--- .... ....
....|..|C-4 AF.A ....|--- .... ....|D-4 3FEF ....
....|..|--- .... ....|--- .... ....|--- .... ....
....|..|C-4 AF.7 ....|F#3 7F1F ....|E-4 3FEA ....
....|..|--- .... ....|--- .... ....|--- .... ....
....|..|C-4 AF.F ....|--- .... ....|E-4 3FE7 ....
....|..|--- .... ....|--- .... ....|--- .... ....
....|..|C-4 CF.F ....|D-2 2F.7 ....|--- .... ....
....|..|--- .... ....|--- .... ....|--- .... ....
....|..|C-4 AF.A ....|--- .... ....|E-4 3FEA ....
....|..|--- .... ....|--- .... ....|--- .... ....
....|..|C-4 AF.F ....|B-4 6F.F ....|A-4 3FE7 ....
....|..|--- .... ....|--- .... ....|--- .... ....
....|..|C-4 AF.F ....|R-- .... ....|D-4 3FEA ....
....|..|--- .... ....|--- .... ....|--- .... ....
....|..|C-4 AF.F ....|F#5 6F.F ....|E-4 3FE7 ....
....|..|--- .... ....|--- .... ....|--- .... ....
....|..|C-4 AF.A ....|G-5 6F.F ....|E-4 3FE7 ....
....|..|--- .... ....|--- .... ....|--- .... ....
....|..|C-4 AF.7 ....|F#5 6F.F ....|--- .... ....
....|..|--- .... ....|--- .... ....|--- .... ....
....|..|C-4 AF.F ....|G-5 6F.F ....|E-4 3FE7 ....
....|..|--- .... ....|--- .... ....|--- .... ....
....|..|C-4 CF.F ....|F#5 6F.F ....|--- .... ....
....|..|--- .... ....|--- .... ....|--- .... ....
....|..|C-4 AF.A ....|R-- .... ....|D-4 3FE7 ....
....|..|--- .... ....|--- .... ....|--- .... ....
....|..|C-4 AF.F ....|F#3 7F1F ....|--- .... ....
....|..|--- .... ....|--- .... ....|--- .... ....
....|..|C-4 AF.F ....|G-5 6F.A ....|--- .... ....
....|..|--- .... ....|--- .... ....|--- .... ....
....|..|C-4 AF.F ....|B-4 6F.F ....|F#3 3FEF ....
....|..|--- .... ....|--- .... ....|--- .... ....
....|..|C-4 AF.A ....|G-5 6F.A ....|R-- .... ....
....|..|--- .... ....|--- .... ....|R-- .... ....
....|..|C-4 AF.7 ....|B-4 6F.F ....|F#3 3FEF ....
....|..|--- .... ....|--- .... ....|--- .... ....
....|..|C-4 AF.7 ....|B-4 6F.F ....|--- .... ....
....|..|--- .... ....|--- .... ....|R-- .... ....
....|..|C-4 CF.F ....|D-5 6F.F ....|F#3 3FEF ....
....|..|--- .... ....|--- .... ....|--- .... ....
....|..|C-4 AF.A ....|G-5 6F.7 ....|--- .... ....
....|..|--- .... ....|--- .... ....|R-- .... ....
....|..|C-4 AF.A ....|E-5 6F.F ....|F#3 3FEF ....
....|..|--- .... ....|--- .... ....|--- .... ....
....|..|C-4 AF.7 ....|G-5 6F.7 ....|--- .... ....
....|..|--- .... ....|--- .... ....|R-- .... ....
....|..|C-4 AF.F ....|F#5 6F.F ....|F#3 3FEF ....
....|..|--- .... ....|--- .... ....|--- .... ....
....|..|--- .... ....|B-4 6F.A ....|--- .... ....
....|..|--- .... ....|--- .... ....|R-- .... ....
....|..|C-4 AF.7 ....|F#5 6F.F ....|F#3 3FEF ....
....|..|--- .... ....|--- .... ....|--- .... ....
....|..|C-4 AF.7 ....|--- .... ....|--- .... ....
....|..|--- .... ....|--- .... ....|R-- .... ....
....|..|C-4 CF.F ....|B-4 6F.7 ....|F#3 3FEF ....
....|..|--- .... ....|--- .... ....|--- .... ....
....|..|--- .... ....|--- .... ....|--- .... ....
....|..|--- .... ....|--- .... ....|R-- .... ....
....|..|C-4 AF.A ....|E-5 6F.F ....|F#3 3FE7 ....
....|..|--- .... ....|--- .... ....|--- .... ....
....|..|--- .... ....|B-4 6F.7 ....|--- .... ....
....|..|--- .... ....|--- .... ....|R-- .... ....

[Pattern13]
....|..|C-4 AF.F ....|F#5 6F.F ....|F#3 3FEF ....
....|..|--- .... ....|--- .... ....|--- .... ....
....|..|--- .... ....|--- .... ....|--- .... ....
....|..|--- .... ....|--- .... ....|R-- .... ....
....|..|C-4 CF.A ....|F#5 6F.F ....|F#3 3FEF ....
....|..|--- .... ....|--- .... ....|--- .... ....
....|..|--- .... ....|--- .... ....|--- .... ....
....|..|--- .... ....|--- .... ....|R-- .... ....
....|..|C-4 CF.F ....|F#5 6F.7 ....|F#3 3FEF ....
....|..|--- .... ....|--- .... ....|--- .... ....
....|..|--- .... ....|--- .... ....|--- .... ....
....|..|--- .... ....|--- .... ....|R-- .... ....
....|..|C-4 AF.A ....|D-5 6F.F ....|F#3 3FEF ....
....|..|--- .... ....|--- .... ....|R-- .... ....
....|..|--- .... ....|--- .... ....|F#3 3FEF ....
....|..|--- .... ....|--- .... ....|R-- .... ....
....|..|C-4 AF.F ....|C#5 6F.F ....|F#3 3FE7 ....
....|..|--- .... ....|--- .... ....|--- .... ....
....|..|--- .... ....|--- .... ....|--- .... ....
....|..|--- .... ....|--- .... ....|R-- .... ....
....|..|C-4 CF.A ....|E-5 6F.7 ....|F#3 3FEF ....
....|..|--- .... ....|--- .... ....|--- .... ....
....|..|--- .... ....|--- .... ....|--- .... ....
....|..|--- .... ....|--- .... ....|R-- .... ....
....|..|C-4 CF.F ....|F#5 6F.7 ....|F#3 3FEF ....
....|..|--- .... ....|--- .... ....|R-- .... ....
....|..|--- .... ....|--- .... ....|F#3 3FEA ....
....|..|--- .... ....|--- .... ....|R-- .... ....
....|..|C-4 AF.A ....|F#5 6F.7 ....|F#3 3FE7 ....
....|..|--- .... ....|--- .... ....|--- .... ....
....|..|--- .... ....|--- .... ....|--- .... ....
....|..|--- .... ....|--- .... ....|R-- .... ....
....|..|C-4 AF.F ....|B-4 6F.F ....|F#3 3FEF ....
....|..|--- .... ....|--- .... ....|--- .... ....
....|..|--- .... ....|--- .... ....|--- .... ....
....|..|--- .... ....|--- .... ....|R-- .... ....
....|..|C-4 CF.A ....|B-4 6F.F ....|F#3 3FEF ....
....|..|--- .... ....|--- .... ....|R-- .... ....
....|..|C-4 AF.F ....|B-4 6F.F ....|F#3 3FE7 ....
....|..|--- .... ....|--- .... ....|R-- .... ....
....|..|C-4 CF.F ....|D-5 6F.F ....|F#3 3FEF ....
....|..|--- .... ....|--- .... ....|--- .... ....
....|..|--- .... ....|--- .... ....|--- .... ....
....|..|--- .... ....|--- .... ....|R-- .... ....
....|..|C-4 AF.F ....|E-5 6F.F ....|F#3 3FEF ....
....|..|--- .... ....|--- .... ....|--- .... ....
....|..|C-4 AF.F ....|--- .... ....|--- .... ....
....|..|--- .... ....|--- .... ....|R-- .... ....
....|..|C-4 AF.F ....|F#5 6F.F ....|F#3 3FEF ....
....|..|--- .... ....|--- .... ....|R-- .... ....
....|..|C-4 AF.A ....|B-4 6F.A ....|F#3 3FEF ....
....|..|--- .... ....|--- .... ....|R-- .... ....
....|..|C-4 CF.A ....|F#5 6F.F ....|F#3 3FEA ....
....|..|--- .... ....|--- .... ....|--- .... ....
....|..|C-4 AF.F ....|--- .... ....|F#3 3FEF ....
....|..|--- .... ....|--- .... ....|R-- .... ....
....|..|C-4 CF.F ....|B-4 6F.7 ....|F#3 3FE7 ....
....|..|--- .... ....|--- .... ....|R-- .... ....
....|..|C-4 AF.A ....|--- .... ....|--- .... ....
....|..|--- .... ....|--- .... ....|R-- .... ....
....|..|C-4 AF.A ....|E-5 6F.F ....|F#3 3FEF ....
....|..|--- .... ....|--- .... ....|R-- .... ....
....|..|C-4 AF.7 ....|B-4 6F.7 ....|F#3 3FEA ....
....|..|--- .... ....|--- .... ....|R-- .... ....

[Pattern14]
....|..|C-4 AF.F ....|F#5 6F.F ....|F#3 3FEF ....
....|..|--- .... ....|--- .... ....|--- .... ....
....|..|C-4 AF.A ....|--- .... ....|F#3 3FEA ....
....|..|--- .... ....|--- .... ....|R-- .... ....
....|..|C-4 AF.7 ....|F#5 6F.F ....|F#3 3FEF ....
....|..|--- .... ....|--- .... ....|R-- .... ....
....|..|C-4 AF.F ....|--- .... ....|F#3 3FEF ....
....|..|--- .... ....|--- .... ....|R-- .... ....
....|..|C-4 CF.F ....|F#5 6F.F ....|F#3 3FE7 ....
....|..|--- .... ....|--- .... ....|R-- .... ....
....|..|--- .... ....|A-5 6F.F ....|F#3 3FE7 ....
....|..|--- .... ....|--- .... ....|--- .... ....
....|..|C-4 AF.F ....|F#5 6F.F ....|F#3 3FEA ....
....|..|--- .... ....|--- .... ....|--- .... ....
....|..|C-4 AF.7 ....|A-5 6F.F ....|F#3 3FE7 ....
....|..|--- .... ....|--- .... ....|--- .... ....
....|..|C-4 CF.F ....|F#5 6F.A ....|F#3 3FEA ....
....|..|--- .... ....|--- .... ....|R-- .... ....
....|..|C-4 AF.A ....|--- .... ....|F#3 3FEA ....
....|..|--- .... ....|--- .... ....|--- .... ....
....|..|C-4 CF.A ....|E-5 6F.7 ....|G-4 3FEF ....
....|..|--- .... ....|--- .... ....|--- .... ....
....|..|--- .... ....|A-5 6F.A ....|--- .... ....
....|..|--- .... ....|--- .... ....|--- .... ....
....|..|C-4 AF.7 ....|F#5 6F.7 ....|G-4 3FEF ....
....|..|--- .... ....|--- .... ....|--- .... ....
....|..|--- .... ....|A-5 6F.A ....|--- .... ....
....|..|--- .... ....|--- .... ....|--- .... ....
....|..|C-4 CF.A ....|F#5 6F.7 ....|F#4 3FEF ....
....|..|--- .... ....|--- .... ....|--- .... ....
....|..|C-4 AF.7 ....|--- .... ....|D-4 3FEF ....
....|..|--- .... ....|--- .... ....|--- .... ....
....|..|C-4 AF.F ....|B-4 6F.F ....|G-4 3FEA ....
...F|..|G-2 2A.F ....|--- .... ....|--- .... ....
....|..|--- .... ....|A-5 6F.7 ....|--- .... ....
....|..|--- .... ....|--- .... ....|--- .... ....
....|..|C-4 AF.7 ....|B-4 6F.F ....|G-4 3FEF ....
....|..|--- .... ....|--- .... ....|--- .... ....
....|..|C-4 AF.F ....|B-4 6F.F ....|--- .... ....
...F|..|G-2 2A.F ....|--- .... ....|--- .... ....
....|..|C-4 CF.F ....|D-5 6F.F ....|G-4 3FEF ....
...F|..|G-2 2A.F ....|--- .... ....|--- .... ....
....|..|--- .... ....|--- .... ....|D-4 3FEA ....
....|..|--- .... ....|--- .... ....|--- .... ....
....|..|C-4 AF.F ....|E-5 6F.F ....|F#4 3FEF ....
...F|..|G-2 2A.F ....|--- .... ....|--- .... ....
....|..|C-4 AF.F ....|--- .... ....|D-4 3FEF ....
..10|..|F#2 2A.F ....|--- .... ....|--- .... ....
....|..|C-4 AF.F ....|F#5 6F.F ....|G-4 3FE7 ....
..14|..|D-2 2A.F ....|--- .... ....|--- .... ....
....|..|C-4 AF.A ....|B-4 6F.A ....|--- .... ....
....|..|G-2 2F.A ....|--- .... ....|--- .... ....
..14|..|D-2 2A.F ....|F#5 6F.F ....|F#4 3FE7 ....
....|..|G-2 2F.A ....|--- .... ....|--- .... ....
....|..|C-4 AF.F ....|--- .... ....|D-4 3FE7 ....
....|..|--- .... ....|--- .... ....|--- .... ....
....|..|C-4 CF.F ....|B-4 6F.7 ....|F#4 3FEA ....
..14|..|D-2 2A.F ....|--- .... ....|--- .... ....
..1B|..|A-1 2A.F ....|--- .... ....|D-4 3FEA ....
....|..|F#2 2F.A ....|--- .... ....|--- .... ....
....|..|C-4 AF.F ....|E-5 6F.F ....|E-4 3FEF ....
..14|..|D-2 2A.F ....|--- .... ....|--- .... ....
....|..|C-4 AF.F ....|B-4 6F.7 ....|F#4 3FEF ....
....|..|G-2 2F.7 ....|--- .... ....|--- .... ....

[Pattern15]
....|..|C-4 AF.F ....|F#5 6F.F ....|E-4 3FEF ....
..1B|..|A-2 2C.F ....|--- .... ....|--- .... ....
....|..|C-4 AF.A ....|--- .... ....|--- .... ....
....|..|--- .... ....|--- .... ....|--- .... ....
....|..|C-4 AF.F ....|F#5 6F.F ....|F#4 3FE7 ....
....|..|G-2 2F.7 ....|--- .... ....|--- .... ....
....|..|C-4 AF.F ....|--- .... ....|C#4 3FEF ....
..1B|..|A-2 2C.F ....|--- .... ....|--- .... ....
....|..|C-4 CF.F ....|D-5 UFFF ....|E-4 3FEA ....
..1B|..|A-2 2C.F ....|--- .... ....|--- .... ....
....|..|C-4 AF.A ....|--- .... ....|F#4 3FEA ....
....|..|--- .... ....|--- .... ....|--- .... ....
....|..|C-4 AF.F ....|D-5 6F.F ....|E-4 3FEA ....
...F|..|G-2 2A.F ....|--- .... ....|--- .... ....
....|..|C-4 AF.7 ....|--- .... ....|--- .... ....
....|..|--- .... ....|--- .... ....|--- .... ....
....|..|C-4 AF.F ....|C#5 6F.F ....|R-- .... ....
..10|..|F#2 2A.F ....|--- .... ....|--- .... ....
....|..|A-1 2F.7 ....|--- .... ....|C#4 3FEA ....
....|..|A-2 2F.A ....|--- .... ....|--- .... ....
....|..|C-4 AF.7 ....|E-5 6F.7 ....|G-4 3FEF ....
....|..|D-2 2F.7 ....|--- .... ....|--- .... ....
....|..|C-4 AF.F ....|--- .... ....|F#4 3FE7 ....
..15|..|C#2 2A.F ....|--- .... ....|--- .... ....
....|..|C-4 CF.F ....|F#5 6F.7 ....|G-4 3FEF ....
..10|..|F#2 2A.F ....|--- .... ....|--- .... ....
....|..|--- .... ....|--- .... ....|--- .... ....
....|..|--- .... ....|--- .... ....|--- .... ....
....|..|C-4 AF.F ....|G-4 UFFF ....|F#4 3FEF ....
..10|..|F#2 2A.F ....|--- .... ....|--- .... ....
....|..|C-4 AF.F ....|--- .... ....|D-4 3FEF ....
....|..|A-2 2F.7 ....|--- .... ....|--- .... ....
....|..|C-4 AF.F ....|B-4 6F.F ....|G-4 3FEA ....
...F|..|G-2 2A.F ....|--- .... ....|--- .... ....
....|..|C-4 AF.A ....|--- .... ....|--- .... ....
....|..|C#2 2F.A ....|--- .... ....|--- .... ....
....|..|C-4 AF.7 ....|B-4 6F.F ....|G-4 3FEF ....
....|..|G-2 2F.7 ....|--- .... ....|--- .... ....
....|..|C-4 AF.F ....|B-4 6F.F ....|--- .... ....
...F|..|G-2 2A.F ....|--- .... ....|--- .... ....
....|..|C-4 CF.F ....|D-5 6F.F ....|G-4 3FEF ....
...F|..|G-2 2A.F ....|--- .... ....|--- .... ....
....|..|C-4 AF.A ....|--- .... ....|D-4 3FEA ....
....|..|--- .... ....|--- .... ....|--- .... ....
....|..|C-4 AF.F ....|E-5 6F.F ....|F#4 3FEF ....
...F|..|G-2 2A.F ....|--- .... ....|--- .... ....
....|..|C-4 AF.F ....|--- .... ....|D-4 3FEF ....
..10|..|F#2 2A.F ....|--- .... ....|--- .... ....
....|..|C-4 AF.F ....|F#5 6F.F ....|G-4 3FE7 ....
..14|..|D-2 2A.F ....|--- .... ....|--- .... ....
....|..|C-4 AF.A ....|B-4 6F.A ....|--- .... ....
....|..|G-2 2F.A ....|--- .... ....|--- .... ....
..1B|..|A-1 2A.F ....|F#5 6F.F ....|F#4 3FE7 ....
....|..|F#2 2F.7 ....|--- .... ....|--- .... ....
....|..|C-4 AF.F ....|--- .... ....|D-4 3FE7 ....
..14|..|D-2 2A.F ....|--- .... ....|--- .... ....
....|..|C-4 CF.F ....|D-5 UFFF ....|F#4 3FEA ....
..14|..|D-2 2A.F ....|--- .... ....|--- .... ....
....|..|C-4 AF.A ....|--- .... ....|D-4 3FEA ....
....|..|F#2 2F.A ....|--- .... ....|--- .... ....
..10|..|F#2 2A.F ....|E-5 6F.F ....|G-4 3FE7 ....
....|..|D-2 2F.A ....|--- .... ....|--- .... ....
....|..|C-4 AF.7 ....|B-4 6F.7 ....|F#4 3FEF ....
....|..|G-2 2F.7 ....|--- .... ....|--- .... ....

[Pattern16]
....|..|C-4 AF.F ....|F#5 6F.F ....|E-4 3FEF ....
..1B|..|A-2 2C.F ....|--- .... ....|--- .... ....
....|..|C-4 AF.A ....|--- .... ....|R-- .... ....
....|..|D-2 2F.A ....|--- .... ....|--- .... ....
....|..|C-4 AF.7 ....|F#5 6F.F ....|F#4 3FE7 ....
....|..|G-2 2F.7 ....|--- .... ....|--- .... ....
....|..|C-4 AF.F ....|B-4 UFFF ....|C#4 3FEF ....
..1B|..|A-2 2C.F ....|C#5 UFFF ....|--- .... ....
....|..|C-4 CF.F ....|B-4 UFFF ....|--- .... ....
..1B|..|A-2 2C.F ....|--- .... ....|--- .... ....
....|..|--- .... ....|A#4 UFFF ....|F#4 3FEA ....
....|..|--- .... ....|--- .... ....|--- .... ....
....|..|C-4 AF.F ....|D-5 6F.F ....|E-4 3FEA ....
...F|..|G-2 2A.F ....|--- .... ....|--- .... ....
....|..|C-4 AF.7 ....|C#5 UFFF ....|R-- .... ....
....|..|D-2 2F.7 ....|--- .... ....|--- .... ....
....|..|C-4 LF.F ....|F#5 6F.F ....|--- .... ....
..10|..|F#2 2A.F ....|--- .... ....|--- .... ....
....|..|C-4 AF.A ....|A-5 6F.F ....|C#4 3FEA ....
....|..|A-2 2F.A ....|C#5 UFFA ....|--- .... ....
....|..|F#2 2F.7 ....|F#5 6F.F ....|G-4 3FEF ....
....|..|A-2 2F.A ....|--- .... ....|--- .... ....
....|..|C-4 AF.F ....|A-5 6F.F ....|F#4 3FE7 ....
..15|..|C#2 2A.F ....|--- .... ....|--- .... ....
....|..|C-4 CF.F ....|F#5 6F.F ....|G-4 3FEF ....
..10|..|F#2 2A.F ....|--- .... ....|--- .... ....
....|..|--- .... ....|A-5 6F.F ....|R-- .... ....
....|..|--- .... ....|--- .... ....|--- .... ....
....|..|C-4 AF.F ....|F#5 6F.F ....|F#4 3FEF ....
..10|..|F#2 2A.F ....|--- .... ....|--- .... ....
....|..|C-4 AF.F ....|A-5 6F.F ....|D-4 3FEF ....
..1B|..|A-2 2C.F ....|C#5 UFF7 ....|--- .... ....
....|..|C-4 AF.F ....|B-4 6F.F ....|G-4 3FEA ....
...F|..|G-2 2A.F ....|--- .... ....|--- .... ....
....|..|C-4 AF.A ....|A#4 UFF7 ....|--- .... ....
....|..|C#2 2F.A ....|--- .... ....|--- .... ....
....|..|C-4 AF.7 ....|B-4 6F.F ....|G-4 3FEF ....
....|..|G-2 2F.7 ....|--- .... ....|--- .... ....
....|..|C-4 AF.F ....|B-4 6F.F ....|R-- .... ....
...F|..|G-2 2A.F ....|--- .... ....|--- .... ....
....|..|C-4 CF.F ....|D-5 6F.F ....|G-4 3FEF ....
...F|..|G-2 2A.F ....|--- .... ....|--- .... ....
....|..|C-4 AF.A ....|A-5 6F.7 ....|D-4 3FEA ....
....|..|A-2 2F.A ....|--- .... ....|--- .... ....
....|..|C-4 AF.F ....|E-5 6F.F ....|F#4 3FEF ....
...F|..|G-2 2A.F ....|--- .... ....|--- .... ....
....|..|C-4 AF.F ....|A-5 6F.7 ....|D-4 3FEF ....
..10|..|F#2 2A.F ....|--- .... ....|--- .... ....
....|..|C-4 AF.F ....|F#5 6F.F ....|G-4 3FE7 ....
..14|..|D-2 2A.F ....|--- .... ....|--- .... ....
....|..|C-4 AF.A ....|A-5 6F.7 ....|--- .... ....
....|..|G-2 2F.A ....|--- .... ....|--- .... ....
..14|..|D-2 2A.F ....|F#5 6F.F ....|G-4 3FEF ....
....|..|F#2 2F.7 ....|--- .... ....|--- .... ....
....|..|C-4 AF.F ....|A-5 6F.7 ....|D-4 3FE7 ....
....|..|A-2 2F.7 ....|--- .... ....|--- .... ....
....|..|C-4 CF.F ....|B-4 6F.7 ....|G-4 3FEF ....
..14|..|D-2 2A.F ....|--- .... ....|--- .... ....
..1B|..|A-1 2A.F ....|--- .... ....|D-4 3FEA ....
....|..|F#2 2F.A ....|--- .... ....|--- .... ....
....|..|C-4 AF.F ....|E-5 6F.F ....|F#4 3FEF ....
..14|..|D-2 2A.F ....|--- .... ....|--- .... ....
....|..|C-4 AF.F ....|B-4 6F.7 ....|--- .... ....
....|..|G-2 2F.7 ....|--- .... ....|--- .... ....

[Pattern17]
....|..|C-4 AF.F ....|F#5 6F.F ....|E-4 3FEF ....
..1B|..|A-2 2C.F ....|--- .... ....|--- .... ....
....|..|C-4 AF.A ....|--- .... ....|D-4 3FEF ....
....|..|--- .... ....|--- .... ....|--- .... ....
....|..|C-4 AF.F ....|F#5 6F.F ....|F#4 3FE7 ....
....|..|G-2 2F.7 ....|--- .... ....|--- .... ....
....|..|C-4 AF.F ....|--- .... ....|E-4 3FEF ....
..1B|..|A-2 2C.F ....|--- .... ....|--- .... ....
....|..|C-4 CF.F ....|D-5 UFFF ....|D-4 3FEF ....
..1B|..|A-2 2C.F ....|--- .... ....|--- .... ....
....|..|C-4 AF.A ....|--- .... ....|--- .... ....
....|..|--- .... ....|--- .... ....|--- .... ....
....|..|C-4 AF.F ....|D-5 6F.F ....|F#4 3FEF ....
...F|..|G-2 2A.F ....|--- .... ....|--- .... ....
....|..|C-4 AF.7 ....|--- .... ....|D-4 3FEA ....
....|..|--- .... ....|--- .... ....|--- .... ....
....|..|C-4 AF.F ....|C#5 6F.F ....|G-4 3FE7 ....
..10|..|F#2 2A.F ....|--- .... ....|--- .... ....
....|..|A-1 2F.7 ....|--- .... ....|E-4 3FEA ....
....|..|A-2 2F.A ....|--- .... ....|--- .... ....
....|..|C-4 AF.7 ....|E-5 6F.7 ....|B-3 3FEF ....
....|..|D-2 2F.7 ....|--- .... ....|--- .... ....
....|..|C-4 AF.F ....|--- .... ....|--- .... ....
..15|..|C#2 2A.F ....|--- .... ....|--- .... ....
....|..|C-4 CF.F ....|F#5 6F.7 ....|B-3 3FEF ....
..10|..|F#2 2A.F ....|--- .... ....|--- .... ....
....|..|--- .... ....|--- .... ....|D-4 3FE7 ....
....|..|--- .... ....|--- .... ....|--- .... ....
....|..|C-4 AF.F ....|G-4 UFFF ....|C#4 3FEF ....
..10|..|F#2 2A.F ....|--- .... ....|--- .... ....
....|..|C-4 AF.F ....|--- .... ....|D-4 3FEF ....
....|..|A-2 2F.7 ....|--- .... ....|--- .... ....
....|..|C-4 AF.F ....|B-4 6F.F ....|D-4 3FE7 ....
...F|..|G-2 2A.F ....|--- .... ....|--- .... ....
....|..|C-4 AF.A ....|--- .... ....|--- .... ....
....|..|C#2 2F.A ....|--- .... ....|--- .... ....
....|..|C-4 AF.7 ....|B-4 6F.F ....|B-3 3FEF ....
....|..|G-2 2F.7 ....|--- .... ....|--- .... ....
....|..|C-4 AF.F ....|B-4 6F.F ....|--- .... ....
...F|..|G-2 2A.F ....|--- .... ....|--- .... ....
....|..|C-4 CF.F ....|D-5 6F.F ....|B-3 3FEF ....
...F|..|G-2 2A.F ....|--- .... ....|--- .... ....
....|..|C-4 AF.A ....|--- .... ....|D-4 3FEA ....
....|..|--- .... ....|--- .... ....|--- .... ....
....|..|C-4 AF.F ....|E-5 6F.F ....|C#4 3FEF ....
...F|..|G-2 2A.F ....|--- .... ....|--- .... ....
....|..|C-4 AF.F ....|--- .... ....|D-4 3FEF ....
..10|..|F#2 2A.F ....|--- .... ....|--- .... ....
....|..|C-4 AF.F ....|F#5 6F.F ....|B-3 3FE7 ....
..14|..|D-2 2A.F ....|--- .... ....|--- .... ....
....|..|C-4 AF.A ....|B-4 6F.A ....|--- .... ....
....|..|G-2 2F.A ....|--- .... ....|--- .... ....
..1B|..|A-1 2A.F ....|F#5 6F.F ....|C#4 3FE7 ....
....|..|F#2 2F.7 ....|--- .... ....|--- .... ....
....|..|C-4 AF.F ....|--- .... ....|D-4 3FE7 ....
..14|..|D-2 2A.F ....|--- .... ....|--- .... ....
....|..|C-4 CF.F ....|D-5 UFFF ....|C#4 3FEA ....
..14|..|D-2 2A.F ....|--- .... ....|--- .... ....
....|..|C-4 AF.A ....|--- .... ....|D-4 3FEA ....
....|..|F#2 2F.A ....|--- .... ....|--- .... ....
..10|..|F#2 2A.F ....|E-5 6F.F ....|B-3 3FE7 ....
....|..|D-2 2F.A ....|--- .... ....|--- .... ....
....|..|C-4 AF.7 ....|B-4 6F.7 ....|F#4 3FEF ....
....|..|G-2 2F.7 ....|--- .... ....|--- .... ....

[Pattern18]
....|..|C-4 AF.F ....|F#5 6F.F ....|E-4 3FEF ....
..1B|..|A-2 2C.F ....|--- .... ....|--- .... ....
....|..|C-4 AF.A ....|--- .... ....|R-- .... ....
....|..|D-2 2F.A ....|--- .... ....|--- .... ....
....|..|C-4 AF.7 ....|F#5 6F.F ....|C#4 3FE7 ....
....|..|G-2 2F.7 ....|--- .... ....|--- .... ....
....|..|C-4 AF.F ....|B-4 UFFF ....|C#4 3FEF ....
..1B|..|A-2 2C.F ....|C#5 UFFF ....|--- .... ....
....|..|C-4 CF.F ....|B-4 UFFF ....|--- .... ....
..1B|..|A-2 2C.F ....|--- .... ....|--- .... ....
....|..|--- .... ....|A#4 UFFF ....|F#4 3FEA ....
....|..|--- .... ....|--- .... ....|--- .... ....
....|..|C-4 AF.F ....|D-5 6F.F ....|E-4 3FEA ....
...F|..|G-2 2A.F ....|--- .... ....|--- .... ....
....|..|C-4 AF.7 ....|C#5 UFFF ....|R-- .... ....
....|..|D-2 2F.7 ....|--- .... ....|--- .... ....
....|..|C-4 LF.F ....|F#5 6F.F ....|--- .... ....
..10|..|F#2 2A.F ....|--- .... ....|--- .... ....
....|..|C-4 AF.A ....|A-5 6F.F ....|C#4 3FEA ....
....|..|A-2 2F.A ....|C#5 UFFA ....|--- .... ....
....|..|F#2 2F.7 ....|F#5 6F.F ....|--- .... ....
....|..|A-2 2F.A ....|--- .... ....|--- .... ....
....|..|C-4 AF.F ....|A-5 6F.F ....|F#4 3FE7 ....
..15|..|C#2 2A.F ....|--- .... ....|--- .... ....
....|..|C-4 CF.F ....|F#5 6F.F ....|E-4 3FE7 ....
..10|..|F#2 2A.F ....|--- .... ....|--- .... ....
....|..|--- .... ....|A-5 6F.F ....|R-- .... ....
....|..|--- .... ....|--- .... ....|--- .... ....
....|..|C-4 AF.F ....|F#5 6F.F ....|D-4 3FEF ....
..10|..|F#2 2A.F ....|--- .... ....|--- .... ....
....|..|C-4 AF.F ....|A-5 6F.F ....|D-4 3FEF ....
..1B|..|A-2 2C.F ....|C#5 UFF7 ....|--- .... ....
....|..|C-4 AF.F ....|B-4 6F.F ....|D-4 3FEF ....
...F|..|G-2 2A.F ....|--- .... ....|--- .... ....
....|..|C-4 AF.A ....|A#4 UFF7 ....|--- .... ....
....|..|C#2 2F.A ....|--- .... ....|--- .... ....
....|..|C-4 AF.7 ....|B-4 6F.F ....|--- .... ....
....|..|G-2 2F.7 ....|--- .... ....|--- .... ....
....|..|C-4 AF.F ....|B-4 6F.F ....|B-3 3FEF ....
...F|..|G-2 2A.F ....|--- .... ....|--- .... ....
....|..|C-4 CF.F ....|D-5 6F.F ....|D-4 3FEA ....
...F|..|G-2 2A.F ....|--- .... ....|--- .... ....
....|..|C-4 AF.A ....|A-5 6F.7 ....|D-4 3FEA ....
....|..|A-2 2F.A ....|--- .... ....|--- .... ....
....|..|C-4 AF.F ....|E-5 6F.F ....|D-4 3FEF ....
...F|..|G-2 2A.F ....|--- .... ....|--- .... ....
....|..|C-4 AF.F ....|A-5 6F.7 ....|D-4 3FEF ....
..10|..|F#2 2A.F ....|--- .... ....|--- .... ....
....|..|C-4 AF.F ....|F#5 6F.F ....|D-4 3FEF ....
..14|..|D-2 2A.F ....|--- .... ....|--- .... ....
....|..|C-4 AF.A ....|A-5 6F.7 ....|B-3 3FEA ....
....|..|G-2 2F.A ....|--- .... ....|--- .... ....
..14|..|D-2 2A.F ....|F#5 6F.F ....|D-4 3FE7 ....
....|..|F#2 2F.7 ....|--- .... ....|--- .... ....
....|..|C-4 AF.F ....|A-5 6F.7 ....|B-3 3FEF ....
....|..|A-2 2F.7 ....|--- .... ....|--- .... ....
....|..|C-4 CF.F ....|B-4 6F.7 ....|D-4 3FE7 ....
..14|..|D-2 2A.F ....|--- .... ....|--- .... ....
..1B|..|A-1 2A.F ....|--- .... ....|D-4 3FEA ....
....|..|F#2 2F.A ....|--- .... ....|--- .... ....
....|..|C-4 AF.F ....|E-5 6F.F ....|D-4 3FEA ....
..14|..|D-2 2A.F ....|--- .... ....|--- .... ....
....|..|C-4 AF.F ....|B-4 6F.7 ....|B-3 3FE7 ....
....|..|G-2 2F.7 ....|--- .... ....|--- .... ....

[Pattern19]
....|..|C-4 AF.F ....|F#5 6F.F ....|R-- .... ....
..1B|..|A-2 2C.F ....|--- .... ....|--- .... ....
....|..|C-4 AF.A ....|--- .... ....|B-3 3FEA ....
....|..|--- .... ....|--- .... ....|--- .... ....
....|..|C-4 AF.F ....|F#5 6F.F ....|D-4 3FE7 ....
....|..|G-2 2F.7 ....|--- .... ....|--- .... ....
....|..|C-4 AF.F ....|--- .... ....|D-4 3FE7 ....
..1B|..|A-2 2C.F ....|--- .... ....|--- .... ....
....|..|C-4 CF.F ....|D-5 UFFF ....|D-4 3FE7 ....
..1B|..|A-2 2C.F ....|--- .... ....|--- .... ....
....|..|C-4 AF.A ....|--- .... ....|--- .... ....
....|..|--- .... ....|--- .... ....|--- .... ....
....|..|C-4 AF.F ....|D-5 6F.F ....|R-- .... ....
...F|..|G-2 2A.F ....|--- .... ....|--- .... ....
....|..|C-4 AF.7 ....|--- .... ....|B-3 3FE7 ....
....|..|--- .... ....|--- .... ....|--- .... ....
....|..|C-4 AF.F ....|C#5 6F.F ....|--- .... ....
..10|..|F#2 2A.F ....|--- .... ....|--- .... ....
....|..|A-1 2F.7 ....|--- .... ....|--- .... ....
....|..|A-2 2F.A ....|--- .... ....|--- .... ....
....|..|C-4 AF.7 ....|E-5 6F.7 ....|--- .... ....
....|..|D-2 2F.7 ....|--- .... ....|--- .... ....
....|..|C-4 AF.F ....|--- .... ....|--- .... ....
..15|..|C#2 2A.F ....|--- .... ....|--- .... ....
....|..|C-4 CF.F ....|F#5 6F.7 ....|R-- .... ....
..10|..|F#2 2A.F ....|--- .... ....|--- .... ....
....|..|--- .... ....|--- .... ....|--- .... ....
....|..|--- .... ....|--- .... ....|--- .... ....
....|..|C-4 AF.F ....|G-4 UFFF ....|--- .... ....
..10|..|F#2 2A.F ....|--- .... ....|--- .... ....
....|..|C-4 AF.F ....|--- .... ....|--- .... ....
....|..|A-2 2F.7 ....|--- .... ....|--- .... ....
....|..|C-4 AF.F ....|B-4 6F.F ....|D-4 3FEF ....
...F|..|G-2 2A.F ....|--- .... ....|--- .... ....
....|..|C-4 AF.A ....|--- .... ....|D-4 3FEF ....
....|..|C#2 2F.A ....|--- .... ....|--- .... ....
....|..|C-4 AF.7 ....|B-4 6F.F ....|D-4 3FEF ....
....|..|G-2 2F.7 ....|--- .... ....|--- .... ....
....|..|C-4 AF.F ....|B-4 6F.F ....|D-4 3FEF ....
...F|..|G-2 2A.F ....|--- .... ....|--- .... ....
....|..|C-4 CF.F ....|D-5 6F.F ....|D-4 3FEF ....
...F|..|G-2 2A.F ....|--- .... ....|--- .... ....
....|..|C-4 AF.A ....|--- .... ....|--- .... ....
....|..|--- .... ....|--- .... ....|--- .... ....
....|..|C-4 AF.F ....|E-5 6F.F ....|B-3 3FEF ....
...F|..|G-2 2A.F ....|--- .... ....|--- .... ....
....|..|C-4 AF.F ....|--- .... ....|D-4 3FEA ....
..10|..|F#2 2A.F ....|--- .... ....|--- .... ....
....|..|C-4 AF.F ....|F#5 6F.F ....|F#4 3FEF ....
..14|..|D-2 2A.F ....|--- .... ....|--- .... ....
....|..|C-4 AF.A ....|B-4 6F.A ....|F#4 3FEF ....
....|..|G-2 2F.A ....|--- .... ....|--- .... ....
..1B|..|A-1 2A.F ....|F#5 6F.F ....|F#4 3FEF ....
....|..|F#2 2F.7 ....|--- .... ....|--- .... ....
....|..|C-4 AF.F ....|--- .... ....|F#4 3FEF ....
..14|..|D-2 2A.F ....|--- .... ....|--- .... ....
....|..|C-4 CF.F ....|D-5 UFFF ....|F#4 3FEF ....
..14|..|D-2 2A.F ....|--- .... ....|--- .... ....
....|..|C-4 AF.A ....|--- .... ....|D-4 3FE7 ....
....|..|F#2 2F.A ....|--- .... ....|--- .... ....
..10|..|F#2 2A.F ....|E-5 6F.F ....|D-4 3FE7 ....
....|..|D-2 2F.A ....|--- .... ....|--- .... ....
....|..|C-4 AF.7 ....|B-4 6F.7 ....|C#4 3FEF ....
....|..|G-2 2F.7 ....|--- .... ....|--- .... ....

[Pattern20]
....|..|C-4 AF.F ....|F#5 6F.F ....|D-4 3FE7 ....
..1B|..|A-2 2C.F ....|--- .... ....|--- .... ....
....|..|C-4 AF.A ....|--- .... ....|F#4 3FEA ....
....|..|D-2 2F.A ....|--- .... ....|--- .... ....
....|..|C-4 AF.7 ....|F#5 6F.F ....|B-3 3FE7 ....
....|..|G-2 2F.7 ....|--- .... ....|--- .... ....
....|..|C-4 AF.F ....|B-4 UFFF ....|--- .... ....
..1B|..|A-2 2C.F ....|C#5 UFFF ....|--- .... ....
....|..|C-4 CF.F ....|B-4 UFFF ....|F#4 3FE7 ....
..1B|..|A-2 2C.F ....|--- .... ....|--- .... ....
....|..|--- .... ....|A#4 UFFF ....|F#4 3FE7 ....
....|..|--- .... ....|--- .... ....|--- .... ....
....|..|C-4 AF.F ....|D-5 6F.F ....|F#4 3FE7 ....
...F|..|G-2 2A.F ....|--- .... ....|--- .... ....
....|..|C-4 AF.7 ....|C#5 UFFF ....|F#4 3FE7 ....
....|..|D-2 2F.7 ....|--- .... ....|--- .... ....
....|..|C-4 LF.F ....|F#5 6F.F ....|F#4 3FE7 ....
..10|..|F#2 2A.F ....|--- .... ....|--- .... ....
....|..|C-4 AF.A ....|A-5 6F.F ....|--- .... ....
....|..|A-2 2F.A ....|C#5 UFFA ....|--- .... ....
....|..|F#2 2F.7 ....|F#5 6F.F ....|--- .... ....
....|..|A-2 2F.A ....|--- .... ....|--- .... ....
....|..|C-4 AF.F ....|A-5 6F.F ....|C#4 3FE7 ....
..15|..|C#2 2A.F ....|--- .... ....|--- .... ....
....|..|C-4 CF.F ....|F#5 6F.F ....|--- .... ....
..10|..|F#2 2A.F ....|--- .... ....|--- .... ....
....|..|--- .... ....|A-5 6F.F ....|R-- .... ....
....|..|--- .... ....|--- .... ....|--- .... ....
....|..|C-4 AF.F ....|F#5 6F.F ....|D-4 3FEF ....
..10|..|F#2 2A.F ....|--- .... ....|--- .... ....
....|..|C-4 AF.F ....|A-5 6F.F ....|D-4 3FEF ....
..1B|..|A-2 2C.F ....|C#5 UFF7 ....|--- .... ....
....|..|C-4 AF.F ....|B-4 6F.F ....|D-4 3FEF ....
...F|..|G-2 2A.F ....|--- .... ....|--- .... ....
....|..|C-4 AF.A ....|A#4 UFF7 ....|--- .... ....
....|..|C#2 2F.A ....|--- .... ....|--- .... ....
....|..|C-4 AF.7 ....|B-4 6F.F ....|--- .... ....
....|..|G-2 2F.7 ....|--- .... ....|--- .... ....
....|..|C-4 AF.F ....|B-4 6F.F ....|B-3 3FEF ....
...F|..|G-2 2A.F ....|--- .... ....|--- .... ....
....|..|C-4 CF.F ....|D-5 6F.F ....|D-4 3FEA ....
...F|..|G-2 2A.F ....|--- .... ....|--- .... ....
....|..|C-4 AF.A ....|A-5 6F.7 ....|D-4 3FEA ....
....|..|A-2 2F.A ....|--- .... ....|--- .... ....
....|..|C-4 AF.F ....|E-5 6F.F ....|D-4 3FEF ....
...F|..|G-2 2A.F ....|--- .... ....|--- .... ....
....|..|C-4 AF.F ....|A-5 6F.7 ....|D-4 3FEF ....
..10|..|F#2 2A.F ....|--- .... ....|--- .... ....
....|..|C-4 AF.F ....|F#5 6F.F ....|D-4 3FEF ....
..14|..|D-2 2A.F ....|--- .... ....|--- .... ....
....|..|C-4 AF.A ....|A-5 6F.7 ....|B-3 3FEA ....
....|..|G-2 2F.A ....|--- .... ....|--- .... ....
..14|..|D-2 2A.F ....|F#5 6F.F ....|D-4 3FE7 ....
....|..|F#2 2F.7 ....|--- .... ....|--- .... ....
....|..|C-4 AF.F ....|A-5 6F.7 ....|B-3 3FEF ....
....|..|A-2 2F.7 ....|--- .... ....|--- .... ....
....|..|C-4 CF.F ....|B-4 6F.7 ....|D-4 3FE7 ....
..14|..|D-2 2A.F ....|--- .... ....|--- .... ....
..1B|..|A-1 2A.F ....|--- .... ....|D-4 3FEA ....
....|..|F#2 2F.A ....|--- .... ....|--- .... ....
....|..|C-4 AF.F ....|E-5 6F.F ....|D-4 3FEA ....
..14|..|D-2 2A.F ....|--- .... ....|--- .... ....
....|..|C-4 AF.F ....|B-4 6F.7 ....|B-3 3FE7 ....
....|..|G-2 2F.7 ....|--- .... ....|--- .... ....

[Pattern21]
....|..|C-4 AF.F ....|F#5 6F.F ....|--- .... ....
..1B|..|A-2 2C.F ....|--- .... ....|--- .... ....
....|..|C-4 AF.A ....|--- .... ....|B-3 3FEA ....
....|..|--- .... ....|--- .... ....|--- .... ....
....|..|C-4 AF.F ....|F#5 6F.F ....|D-4 3FE7 ....
....|..|G-2 2F.7 ....|--- .... ....|--- .... ....
....|..|C-4 AF.F ....|--- .... ....|D-4 3FE7 ....
..1B|..|A-2 2C.F ....|--- .... ....|--- .... ....
....|..|C-4 CF.F ....|D-5 UFFF ....|D-4 3FE7 ....
..1B|..|A-2 2C.F ....|--- .... ....|--- .... ....
....|..|C-4 AF.A ....|--- .... ....|R-- .... ....
....|..|--- .... ....|--- .... ....|--- .... ....
....|..|C-4 AF.F ....|D-5 6F.F ....|--- .... ....
...F|..|G-2 2A.F ....|--- .... ....|--- .... ....
....|..|C-4 AF.7 ....|--- .... ....|B-3 3FE7 ....
....|..|--- .... ....|--- .... ....|--- .... ....
....|..|C-4 AF.F ....|C#5 6F.F ....|--- .... ....
..10|..|F#2 2A.F ....|--- .... ....|--- .... ....
....|..|A-1 2F.7 ....|--- .... ....|--- .... ....
....|..|A-2 2F.A ....|--- .... ....|--- .... ....
....|..|C-4 AF.7 ....|E-5 6F.7 ....|--- .... ....
....|..|D-2 2F.7 ....|--- .... ....|--- .... ....
....|..|C-4 AF.F ....|--- .... ....|R-- .... ....
..15|..|C#2 2A.F ....|--- .... ....|--- .... ....
....|..|C-4 CF.F ....|F#5 6F.7 ....|--- .... ....
..10|..|F#2 2A.F ....|--- .... ....|--- .... ....
....|..|--- .... ....|--- .... ....|--- .... ....
....|..|--- .... ....|--- .... ....|--- .... ....
....|..|C-4 AF.F ....|G-4 UFFF ....|--- .... ....
..10|..|F#2 2A.F ....|--- .... ....|--- .... ....
....|..|C-4 AF.F ....|--- .... ....|--- .... ....
....|..|A-2 2F.7 ....|--- .... ....|--- .... ....
....|..|C-4 AF.F ....|B-4 6F.F ....|D-4 3FEF ....
...F|..|G-2 2A.F ....|--- .... ....|--- .... ....
....|..|C-4 AF.A ....|--- .... ....|D-4 3FEF ....
....|..|C#2 2F.A ....|--- .... ....|--- .... ....
....|..|C-4 AF.7 ....|B-4 6F.F ....|D-4 3FEF ....
....|..|G-2 2F.7 ....|--- .... ....|--- .... ....
....|..|C-4 AF.F ....|B-4 6F.F ....|D-4 3FEF ....
...F|..|G-2 2A.F ....|--- .... ....|--- .... ....
....|..|C-4 CF.F ....|D-5 6F.F ....|D-4 3FEF ....
...F|..|G-2 2A.F ....|--- .... ....|--- .... ....
....|..|C-4 AF.A ....|--- .... ....|--- .... ....
....|..|--- .... ....|--- .... ....|--- .... ....
....|..|C-4 AF.F ....|E-5 6F.F ....|B-3 3FEF ....
...F|..|G-2 2A.F ....|--- .... ....|--- .... ....
....|..|C-4 AF.F ....|--- .... ....|D-4 3FEA ....
..10|..|F#2 2A.F ....|--- .... ....|--- .... ....
....|..|C-4 AF.F ....|F#5 6F.F ....|F#4 3FEF ....
..14|..|D-2 2A.F ....|--- .... ....|--- .... ....
....|..|C-4 AF.A ....|B-4 6F.A ....|F#4 3FEF ....
....|..|G-2 2F.A ....|--- .... ....|--- .... ....
..1B|..|A-1 2A.F ....|F#5 6F.F ....|F#4 3FEF ....
....|..|F#2 2F.7 ....|--- .... ....|--- .... ....
....|..|C-4 AF.F ....|--- .... ....|F#4 3FEF ....
..14|..|D-2 2A.F ....|--- .... ....|--- .... ....
....|..|C-4 CF.F ....|D-5 UFFF ....|F#4 3FEF ....
..14|..|D-2 2A.F ....|--- .... ....|--- .... ....
....|..|C-4 AF.A ....|--- .... ....|D-4 3FE7 ....
....|..|F#2 2F.A ....|--- .... ....|--- .... ....
..10|..|F#2 2A.F ....|E-5 6F.F ....|D-4 3FE7 ....
....|..|D-2 2F.A ....|--- .... ....|--- .... ....
....|..|C-4 AF.7 ....|B-4 6F.7 ....|C#4 3FEF ....
....|..|G-2 2F.7 ....|--- .... ....|--- .... ....

[Pattern22]
....|..|C-4 AF.F ....|F#5 6F.F ....|D-4 3FE7 ....
..1B|..|A-2 2C.F ....|--- .... ....|--- .... ....
....|..|C-4 AF.A ....|--- .... ....|F#4 3FEA ....
....|..|D-2 2F.A ....|--- .... ....|--- .... ....
....|..|C-4 AF.7 ....|F#5 6F.F ....|B-3 3FE7 ....
....|..|G-2 2F.7 ....|--- .... ....|--- .... ....
....|..|C-4 AF.F ....|B-4 UFFF ....|--- .... ....
..1B|..|A-2 2C.F ....|C#5 UFFF ....|--- .... ....
....|..|C-4 CF.F ....|B-4 UFFF ....|F#4 3FE7 ....
..1B|..|A-2 2C.F ....|--- .... ....|--- .... ....
....|..|--- .... ....|A#4 UFFF ....|F#4 3FE7 ....
....|..|--- .... ....|--- .... ....|--- .... ....
....|..|C-4 AF.F ....|D-5 6F.F ....|F#4 3FE7 ....
...F|..|G-2 2A.F ....|--- .... ....|--- .... ....
....|..|C-4 AF.7 ....|C#5 UFFF ....|F#4 3FE7 ....
....|..|D-2 2F.7 ....|--- .... ....|--- .... ....
....|..|C-4 LF.F ....|F#5 6F.F ....|F#4 3FE7 ....
..10|..|F#2 2A.F ....|--- .... ....|--- .... ....
....|..|C-4 AF.A ....|A-5 6F.F ....|--- .... ....
....|..|A-2 2F.A ....|C#5 UFFA ....|--- .... ....
....|..|F#2 2F.7 ....|F#5 6F.F ....|--- .... ....
....|..|A-2 2F.A ....|--- .... ....|--- .... ....
....|..|C-4 AF.F ....|A-5 6F.F ....|C#4 3FE7 ....
..15|..|C#2 2A.F ....|--- .... ....|--- .... ....
....|..|C-4 CF.F ....|F#5 6F.F ....|--- .... ....
..10|..|F#2 2A.F ....|--- .... ....|--- .... ....
....|..|--- .... ....|A-5 6F.F ....|R-- .... ....
....|..|--- .... ....|--- .... ....|--- .... ....
....|..|C-4 AF.F ....|F#5 6F.F ....|--- .... ....
..10|..|F#2 2A.F ....|--- .... ....|--- .... ....
....|..|C-4 AF.F ....|A-5 6F.F ....|--- .... ....
..1B|..|A-2 2C.F ....|C#5 UFF7 ....|--- .... ....
....|..|C-4 CF.7 ....|B-4 6F.F ....|--- .... ....
....|..|A-2 2F.7 ....|--- .... ....|--- .... ....
....|..|C-4 AF.A ....|A#4 UFF7 ....|--- .... ....
....|..|C#2 2F.A ....|--- .... ....|--- .... ....
....|..|C-4 AF.7 ....|B-4 6F.F ....|--- .... ....
....|..|G-2 2F.7 ....|--- .... ....|--- .... ....
....|..|--- .... ....|B-4 6F.F ....|R-- .... ....
....|..|--- .... ....|--- .... ....|--- .... ....
....|..|C-4 CF.F ....|D-5 6F.F ....|--- .... ....
....|..|F#2 2F.7 ....|--- .... ....|--- .... ....
....|..|C-4 AF.A ....|A-5 6F.7 ....|--- .... ....
....|..|A-2 2F.A ....|--- .... ....|--- .... ....
....|..|R-- .... ....|E-5 6F.F ....|--- .... ....
....|..|--- .... ....|--- .... ....|--- .... ....
....|..|C-4 AF.7 ....|A-5 6F.7 ....|--- .... ....
....|..|C#2 2F.7 ....|--- .... ....|--- .... ....
....|..|C-4 CF.7 ....|F#5 6F.F ....|--- .... ....
....|..|F#2 2F.7 ....|--- .... ....|--- .... ....
....|..|--- .... ....|A-5 6F.7 ....|--- .... ....
....|..|--- .... ....|--- .... ....|--- .... ....
....|..|C-4 AF.7 ....|F#5 6F.F ....|--- .... ....
....|..|F#2 2F.7 ....|--- .... ....|--- .... ....
....|..|C-4 AF.7 ....|A-5 6F.7 ....|--- .... ....
....|..|A-2 2F.7 ....|--- .... ....|--- .... ....
....|..|C-4 CF.F ....|B-4 6F.7 ....|--- .... ....
....|..|--- .... ....|--- .... ....|--- .... ....
....|..|--- .... ....|--- .... ....|--- .... ....
....|..|--- .... ....|--- .... ....|--- .... ....
....|..|R-- .... ....|E-5 6F.F ....|--- .... ....
....|..|--- .... ....|--- .... ....|--- .... ....
....|..|--- .... ....|B-4 6F.7 ....|--- .... ....
....|..|--- .... ....|--- .... ....|--- .... ....

[Pattern23]
....|..|C-4 CF.7 ....|F#5 6F.F ....|--- .... ....
....|..|--- .... ....|--- .... ....|--- .... ....
....|..|--- .... ....|--- .... ....|--- .... ....
....|..|--- .... ....|--- .... ....|--- .... ....
....|..|C-4 CF.A ....|F#5 6F.F ....|--- .... ....
....|..|--- .... ....|--- .... ....|--- .... ....
....|..|--- .... ....|--- .... ....|--- .... ....
....|..|--- .... ....|--- .... ....|--- .... ....
....|..|C-4 CF.F ....|F#5 6F.7 ....|--- .... ....
....|..|--- .... ....|--- .... ....|--- .... ....
....|..|--- .... ....|R-- .... ....|--- .... ....
....|..|--- .... ....|--- .... ....|--- .... ....
....|..|R-- .... ....|D-5 6F.F ....|--- .... ....
....|..|--- .... ....|--- .... ....|--- .... ....
....|..|--- .... ....|--- .... ....|--- .... ....
....|..|--- .... ....|--- .... ....|--- .... ....
....|..|C-4 CF.7 ....|C#5 6F.F ....|--- .... ....
....|..|--- .... ....|--- .... ....|--- .... ....
....|..|--- .... ....|--- .... ....|--- .... ....
....|..|--- .... ....|--- .... ....|--- .... ....
....|..|C-4 CF.A ....|E-5 6F.7 ....|--- .... ....
....|..|--- .... ....|--- .... ....|--- .... ....
....|..|--- .... ....|--- .... ....|--- .... ....
....|..|--- .... ....|--- .... ....|--- .... ....
....|..|C-4 CF.F ....|F#5 6F.7 ....|--- .... ....
....|..|--- .... ....|--- .... ....|--- .... ....
....|..|--- .... ....|--- .... ....|--- .... ....
....|..|--- .... ....|--- .... ....|--- .... ....
....|..|R-- .... ....|F#5 6F.7 ....|--- .... ....
....|..|--- .... ....|--- .... ....|--- .... ....
....|..|--- .... ....|--- .... ....|--- .... ....
....|..|--- .... ....|R-- .... ....|--- .... ....
....|..|C-4 AF.F ....|B-4 6F.F ....|--- .... ....
....|..|--- .... ....|--- .... ....|--- .... ....
....|..|--- .... ....|--- .... ....|--- .... ....
....|..|--- .... ....|--- .... ....|--- .... ....
....|..|C-4 CF.A ....|B-4 6F.F ....|--- .... ....
....|..|--- .... ....|--- .... ....|--- .... ....
....|..|C-4 AF.F ....|B-4 6F.F ....|--- .... ....
....|..|--- .... ....|--- .... ....|--- .... ....
....|..|C-4 CF.F ....|D-5 6F.F ....|--- .... ....
....|..|--- .... ....|--- .... ....|--- .... ....
....|..|--- .... ....|--- .... ....|--- .... ....
....|..|--- .... ....|R-- .... ....|--- .... ....
....|..|C-4 AF.F ....|E-5 6F.F ....|--- .... ....
....|..|--- .... ....|--- .... ....|--- .... ....
....|..|--- .... ....|--- .... ....|--- .... ....
....|..|--- .... ....|--- .... ....|--- .... ....
....|..|C-4 CF.7 ....|F#5 6F.F ....|--- .... ....
....|..|--- .... ....|--- .... ....|--- .... ....
....|..|C-4 AF.A ....|B-4 6F.A ....|--- .... ....
....|..|--- .... ....|--- .... ....|--- .... ....
....|..|C-4 CF.A ....|F#5 6F.F ....|--- .... ....
....|..|--- .... ....|--- .... ....|--- .... ....
....|..|C-4 AF.F ....|--- .... ....|--- .... ....
....|..|--- .... ....|R-- .... ....|--- .... ....
....|..|C-4 CF.F ....|B-4 6F.7 ....|--- .... ....
....|..|--- .... ....|--- .... ....|--- .... ....
....|..|--- .... ....|--- .... ....|--- .... ....
....|..|--- .... ....|--- .... ....|--- .... ....
....|..|R-- .... ....|E-5 6F.F ....|--- .... ....
....|..|--- .... ....|--- .... ....|--- .... ....
....|..|C-4 AF.7 ....|B-4 6F.7 ....|--- .... ....
....|..|--- .... ....|--- .... ....|--- .... ....

[Pattern24]
....|..|C-4 AF.F ....|F#5 6F.F ....|--- .... ....
....|..|--- .... ....|--- .... ....|--- .... ....
....|..|C-4 AF.A ....|--- .... ....|--- .... ....
....|..|--- .... ....|--- .... ....|--- .... ....
....|..|C-4 AF.7 ....|F#5 6F.F ....|--- .... ....
....|..|--- .... ....|--- .... ....|--- .... ....
....|..|C-4 AF.F ....|--- .... ....|--- .... ....
....|..|--- .... ....|--- .... ....|--- .... ....
....|..|C-4 CF.F ....|F#5 6F.F ....|--- .... ....
....|..|--- .... ....|--- .... ....|--- .... ....
....|..|--- .... ....|A-5 6F.F ....|--- .... ....
....|..|--- .... ....|--- .... ....|--- .... ....
....|..|C-4 AF.F ....|F#5 6F.F ....|--- .... ....
....|..|--- .... ....|--- .... ....|--- .... ....
....|..|C-4 AF.7 ....|A-5 6F.F ....|--- .... ....
....|..|--- .... ....|--- .... ....|--- .... ....
....|..|C-4 CF.F ....|F#5 6F.A ....|C#4 3FEF ....
....|..|--- .... ....|--- .... ....|--- .... ....
....|..|C-4 AF.A ....|--- .... ....|--- .... ....
....|..|--- .... ....|--- .... ....|--- .... ....
....|..|C-4 CF.A ....|E-5 6F.7 ....|--- .... ....
....|..|--- .... ....|--- .... ....|--- .... ....
....|..|--- .... ....|A-5 6F.A ....|--- .... ....
....|..|--- .... ....|--- .... ....|--- .... ....
....|..|C-4 AF.7 ....|F#5 6F.7 ....|C#4 3FEF ....
....|..|--- .... ....|--- .... ....|--- .... ....
....|..|--- .... ....|A-5 6F.A ....|--- .... ....
....|..|--- .... ....|--- .... ....|--- .... ....
....|..|C-4 CF.A ....|F#5 6F.7 ....|C#4 3FEA ....
....|..|--- .... ....|--- .... ....|--- .... ....
....|..|C-4 AF.7 ....|--- .... ....|--- .... ....
....|..|--- .... ....|--- .... ....|--- .... ....
..18|..|C-4 AF.F ....|B-1 2A.F ....|C#4 3FEF ....
....|..|--- .... ....|--- .... ....|--- .... ....
....|..|--- .... ....|A-5 6F.7 ....|--- .... ....
....|..|--- .... ....|--- .... ....|--- .... ....
....|..|C-4 AF.7 ....|B-3 7F1F ....|C#4 3FEA ....
....|..|--- .... ....|--- .... ....|--- .... ....
....|..|--- .... ....|A-5 6F.7 ....|B-3 3FEF ....
....|..|--- .... ....|--- .... ....|--- .... ....
....|..|C-4 CF.F ....|R-- .... ....|C#4 3FE7 ....
....|..|--- .... ....|--- .... ....|--- .... ....
....|..|--- .... ....|--- .... ....|--- .... ....
....|..|--- .... ....|--- .... ....|--- .... ....
....|..|C-4 AF.F ....|B-3 7F1F ....|C#4 3FEA ....
....|..|--- .... ....|--- .... ....|--- .... ....
....|..|C-4 AF.F ....|--- .... ....|R-- .... ....
....|..|--- .... ....|--- .... ....|--- .... ....
..14|..|C-4 AF.F ....|D-2 2A.F ....|C#4 3FE7 ....
....|..|--- .... ....|--- .... ....|--- .... ....
....|..|--- .... ....|--- .... ....|B-3 3FEA ....
....|..|--- .... ....|--- .... ....|--- .... ....
....|..|C-4 CF.A ....|D-3 7F1F ....|F#3 3FEF ....
....|..|--- .... ....|--- .... ....|--- .... ....
....|..|C-4 AF.F ....|--- .... ....|--- .... ....
....|..|--- .... ....|--- .... ....|--- .... ....
....|..|C-4 CF.F ....|B-1 2F.7 ....|B-3 3FEF ....
....|..|--- .... ....|--- .... ....|--- .... ....
....|..|C-4 AF.A ....|--- .... ....|R-- .... ....
....|..|--- .... ....|--- .... ....|--- .... ....
....|..|C-4 AF.A ....|D-3 7F1F ....|B-3 3FEF ....
....|..|--- .... ....|--- .... ....|--- .... ....
....|..|--- .... ....|--- .... ....|B-3 3FEF ....
....|..|--- .... ....|--- .... ....|--- .... ....

[Pattern25]
..20|..|C-4 AF.F ....|F#1 2A.F ....|F#3 3FEA ....
....|..|--- .... ....|--- .... ....|--- .... ....
....|..|C-4 AF.A ....|--- .... ....|--- .... ....
....|..|--- .... ....|--- .... ....|--- .... ....
....|..|C-4 AF.7 ....|F#3 7F1F ....|A-3 3FEF ....
....|..|--- .... ....|--- .... ....|--- .... ....
....|..|C-4 AF.F ....|--- .... ....|R-- .... ....
....|..|--- .... ....|--- .... ....|--- .... ....
....|..|C-4 CF.F ....|D-2 2F.7 ....|B-3 3FEA ....
....|..|--- .... ....|--- .... ....|--- .... ....
....|..|--- .... ....|--- .... ....|B-3 3FEA ....
....|..|--- .... ....|--- .... ....|--- .... ....
....|..|C-4 AF.F ....|F#3 7F1F ....|F#3 3FE7 ....
....|..|--- .... ....|--- .... ....|--- .... ....
....|..|C-4 AF.7 ....|--- .... ....|--- .... ....
....|..|--- .... ....|--- .... ....|--- .... ....
....|..|C-4 CF.7 ....|C#5 6F.F ....|B-3 3FE7 ....
....|..|--- .... ....|--- .... ....|--- .... ....
....|..|C-4 AF.A ....|D-5 6F.F ....|--- .... ....
....|..|--- .... ....|--- .... ....|--- .... ....
....|..|C-4 CF.A ....|C#5 6F.F ....|B-3 3FE7 ....
....|..|--- .... ....|--- .... ....|--- .... ....
....|..|C-4 AF.F ....|B-4 6F.F ....|B-3 3FE7 ....
....|..|--- .... ....|--- .... ....|--- .... ....
....|..|C-4 CF.F ....|A-4 6F.F ....|R-- .... ....
....|..|--- .... ....|--- .... ....|--- .... ....
....|..|--- .... ....|--- .... ....|--- .... ....
....|..|--- .... ....|--- .... ....|--- .... ....
....|..|C-4 AF.F ....|F#3 7F1F ....|A-3 3FEF ....
....|..|--- .... ....|--- .... ....|--- .... ....
....|..|C-4 AF.F ....|D-5 6F.A ....|B-3 3FEF ....
....|..|--- .... ....|--- .... ....|--- .... ....
..18|..|C-4 AF.F ....|B-1 2A.F ....|--- .... ....
....|..|--- .... ....|--- .... ....|--- .... ....
....|..|C-4 AF.A ....|B-4 6F.A ....|--- .... ....
....|..|--- .... ....|--- .... ....|--- .... ....
....|..|C-4 AF.7 ....|B-3 7F1F ....|A-4 3FEF ....
....|..|--- .... ....|--- .... ....|--- .... ....
....|..|C-4 AF.F ....|--- .... ....|--- .... ....
....|..|--- .... ....|--- .... ....|--- .... ....
....|..|C-4 CF.F ....|C#5 6F.7 ....|E-4 3FEF ....
....|..|--- .... ....|--- .... ....|--- .... ....
....|..|C-4 AF.A ....|D-5 6F.7 ....|B-3 3FEA ....
....|..|--- .... ....|--- .... ....|--- .... ....
....|..|C-4 AF.F ....|B-3 7F1F ....|D-4 3FEF ....
....|..|--- .... ....|--- .... ....|--- .... ....
....|..|C-4 AF.F ....|B-4 6F.7 ....|E-4 3FEF ....
....|..|--- .... ....|--- .... ....|--- .... ....
..14|..|C-4 AF.F ....|D-2 2A.F ....|A-4 3FEA ....
....|..|--- .... ....|--- .... ....|--- .... ....
....|..|C-4 AF.A ....|--- .... ....|--- .... ....
....|..|--- .... ....|--- .... ....|--- .... ....
....|..|C-4 AF.7 ....|D-3 7F1F ....|A-4 3FEF ....
....|..|--- .... ....|--- .... ....|--- .... ....
....|..|C-4 AF.F ....|--- .... ....|B-3 3FE7 ....
....|..|--- .... ....|--- .... ....|--- .... ....
....|..|C-4 CF.F ....|B-1 2F.7 ....|E-4 3FEF ....
....|..|--- .... ....|--- .... ....|--- .... ....
....|..|C-4 AF.A ....|--- .... ....|E-4 3FEA ....
....|..|--- .... ....|--- .... ....|--- .... ....
....|..|C-4 AF.A ....|D-3 7F1F ....|E-4 3FEF ....
....|..|--- .... ....|--- .... ....|--- .... ....
....|..|C-4 AF.7 ....|--- .... ....|E-4 3FEF ....
....|..|--- .... ....|--- .... ....|--- .... ....

[Pattern38]
....|..|C-4 AF.F ....|F#5 6F.F ....|D-4 3FE7 ....
..1B|..|A-2 2C.F ....|--- .... ....|--- .... ....
....|..|C-4 AF.A ....|--- .... ....|F#4 3FEA ....
....|..|D-2 2F.A ....|--- .... ....|--- .... ....
....|..|C-4 AF.7 ....|F#5 6F.F ....|B-3 3FE7 ....
....|..|G-2 2F.7 ....|--- .... ....|--- .... ....
....|..|C-4 AF.F ....|B-4 UFFF ....|--- .... ....
..1B|..|A-2 2C.F ....|C#5 UFFF ....|--- .... ....
....|..|C-4 CF.F ....|B-4 UFFF ....|F#4 3FE7 ....
..1B|..|A-2 2C.F ....|--- .... ....|--- .... ....
....|..|--- .... ....|A#4 UFFF ....|F#4 3FE7 ....
....|..|--- .... ....|--- .... ....|--- .... ....
....|..|C-4 AF.F ....|D-5 6F.F ....|F#4 3FE7 ....
...F|..|G-2 2A.F ....|--- .... ....|--- .... ....
....|..|C-4 AF.7 ....|C#5 UFFF ....|F#4 3FE7 ....
....|..|D-2 2F.7 ....|--- .... ....|--- .... ....
....|..|C-4 LF.F ....|F#5 6F.F ....|F#4 3FE7 ....
..10|..|F#2 2A.F ....|--- .... ....|--- .... ....
....|..|C-4 AF.A ....|A-5 6F.F ....|--- .... ....
....|..|A-2 2F.A ....|C#5 UFFA ....|--- .... ....
....|..|F#2 2F.7 ....|F#5 6F.F ....|--- .... ....
....|..|A-2 2F.A ....|--- .... ....|--- .... ....
....|..|C-4 AF.F ....|A-5 6F.F ....|C#4 3FE7 ....
..15|..|C#2 2A.F ....|--- .... ....|--- .... ....
....|..|C-4 CF.F ....|F#5 6F.F ....|--- .... ....
..10|..|F#2 2A.F ....|--- .... ....|--- .... ....
....|..|--- .... ....|A-5 6F.F ....|R-- .... ....
....|..|--- .... ....|--- .... ....|--- .... ....
....|..|C-4 AF.F ....|F#5 6F.F ....|--- .... ....
..10|..|F#2 2A.F ....|--- .... ....|--- .... ....
....|..|C-4 AF.F ....|A-5 6F.F ....|--- .... ....
..1B|..|A-2 2C.F ....|C#5 UFF7 ....|--- .... ....
..18|..|B-8 JF.F ....|B-1 2A.F ....|--- .... ....
....|..|A-2 2F.7 ....|--- .... ....|--- .... ....
....|..|C-4 AF.A ....|A#4 UFF7 ....|--- .... ....
....|..|C#2 2F.A ....|--- .... ....|--- .... ....
....|..|C-4 AF.7 ....|D-5 6F.7 ....|--- .... ....
....|..|G-2 2F.7 ....|--- .... ....|--- .... ....
....|..|--- .... ....|C#5 UFF7 ....|R-- .... ....
....|..|--- .... ....|--- .... ....|--- .... ....
....|..|C-4 BF.F ....|F#5 6F.7 ....|--- .... ....
....|..|F#2 2F.7 ....|--- .... ....|--- .... ....
....|..|C-4 AF.A ....|A-5 6F.7 ....|--- .... ....
....|..|A-2 2F.A ....|--- .... ....|--- .... ....
....|..|C-4 LF.F ....|F#5 6F.7 ....|--- .... ....
....|..|R-- .... ....|--- .... ....|--- .... ....
....|..|C-4 AF.7 ....|A-5 6F.7 ....|--- .... ....
....|..|C#2 2F.7 ....|--- .... ....|--- .... ....
....|..|C-4 CF.7 ....|F#5 6F.7 ....|--- .... ....
....|..|F#2 2F.7 ....|--- .... ....|--- .... ....
....|..|--- .... ....|A-5 6F.7 ....|--- .... ....
....|..|--- .... ....|--- .... ....|--- .... ....
....|..|C-4 LF.F ....|F#5 6F.7 ....|--- .... ....
....|..|F#2 2F.7 ....|--- .... ....|--- .... ....
....|..|C-4 AF.7 ....|A-5 6F.7 ....|--- .... ....
....|..|A-2 2F.7 ....|--- .... ....|--- .... ....
....|..|C-4 BF.F ....|B-1 2F.7 ....|--- .... ....
....|..|R-- .... ....|--- .... ....|--- .... ....
....|..|C-4 LF.F ....|--- .... ....|--- .... ....
....|..|--- .... ....|--- .... ....|--- .... ....
....|..|R-- .... ....|--- .... ....|--- .... ....
....|..|--- .... ....|--- .... ....|--- .... ....
....|..|--- .... ....|--- .... ....|--- .... ....
....|..|--- .... ....|R-- .... ....|--- .... ....

[Pattern39]
..1B|..|C-4 LF.F ....|A-1 2A.F ....|--- .... ....
....|..|--- .... ....|--- .... ....|--- .... ....
....|..|--- .... ....|--- .... ....|--- .... ....
....|..|--- .... ....|--- .... ....|--- .... ....
....|..|C-4 LF.F ....|--- .... ....|--- .... ....
....|..|--- .... ....|--- .... ....|--- .... ....
....|..|C-4 LF.A ....|--- .... ....|--- .... ....
....|..|--- .... ....|--- .... ....|--- .... ....
....|..|C-4 BF.F ....|--- .... ....|--- .... ....
....|..|--- .... ....|--- .... ....|--- .... ....
....|..|--- .... ....|--- .... ....|--- .... ....
....|..|--- .... ....|R-- .... ....|--- .... ....
....|..|C-4 LF.F ....|A-1 2F.A ....|--- .... ....
....|..|--- .... ....|--- .... ....|--- .... ....
....|..|C-4 LF.F ....|--- .... ....|--- .... ....
....|..|--- .... ....|--- .... ....|--- .... ....
....|..|C-4 BF.7 ....|--- .... ....|--- .... ....
....|..|--- .... ....|--- .... ....|--- .... ....
....|..|C-4 LF.7 ....|--- .... ....|--- .... ....
....|..|--- .... ....|--- .... ....|--- .... ....
....|..|C-4 LF.F ....|--- .... ....|--- .... ....
....|..|--- .... ....|--- .... ....|--- .... ....
....|..|--- .... ....|--- .... ....|--- .... ....
....|..|--- .... ....|R-- .... ....|--- .... ....
....|..|C-4 BF.F ....|A-1 2F.7 ....|--- .... ....
....|..|--- .... ....|--- .... ....|--- .... ....
....|..|C-4 LF.A ....|--- .... ....|--- .... ....
....|..|--- .... ....|--- .... ....|--- .... ....
....|..|C-4 LF.F ....|--- .... ....|--- .... ....
....|..|--- .... ....|--- .... ....|--- .... ....
....|..|C-4 LF.F ....|--- .... ....|--- .... ....
....|..|--- .... ....|R-- .... ....|--- .... ....
..1E|..|C-4 LF.F ....|G-1 2A.F ....|--- .... ....
....|..|--- .... ....|--- .... ....|--- .... ....
....|..|--- .... ....|--- .... ....|--- .... ....
....|..|--- .... ....|--- .... ....|--- .... ....
....|..|C-4 LF.F ....|--- .... ....|--- .... ....
....|..|--- .... ....|--- .... ....|--- .... ....
....|..|C-4 LF.7 ....|--- .... ....|--- .... ....
....|..|--- .... ....|--- .... ....|--- .... ....
....|..|C-4 BF.F ....|--- .... ....|--- .... ....
....|..|--- .... ....|--- .... ....|--- .... ....
....|..|C-4 LF.A ....|--- .... ....|--- .... ....
....|..|--- .... ....|R-- .... ....|--- .... ....
....|..|C-4 LF.F ....|G-1 2F.A ....|--- .... ....
....|..|--- .... ....|--- .... ....|--- .... ....
....|..|C-4 LF.F ....|--- .... ....|--- .... ....
....|..|--- .... ....|--- .... ....|--- .... ....
....|..|C-4 LF.F ....|--- .... ....|--- .... ....
....|..|--- .... ....|--- .... ....|--- .... ....
....|..|--- .... ....|--- .... ....|--- .... ....
....|..|--- .... ....|--- .... ....|--- .... ....
....|..|C-4 LF.F ....|--- .... ....|--- .... ....
....|..|--- .... ....|--- .... ....|--- .... ....
....|..|C-4 LF.7 ....|--- .... ....|--- .... ....
....|..|--- .... ....|R-- .... ....|--- .... ....
....|..|C-4 BF.F ....|G-1 2F.7 ....|--- .... ....
....|..|--- .... ....|--- .... ....|--- .... ....
....|..|C-4 LF.A ....|--- .... ....|--- .... ....
....|..|--- .... ....|--- .... ....|--- .... ....
....|..|C-4 LF.F ....|--- .... ....|--- .... ....
....|..|--- .... ....|--- .... ....|--- .... ....
....|..|C-4 LF.F ....|--- .... ....|--- .... ....
....|..|--- .... ....|R-- .... ....|--- .... ....

[Pattern40]
..20|..|B-8 JF.F ....|F#1 2A.F ....|--- .... ....
....|..|--- .... ....|--- .... ....|--- .... ....
....|..|--- .... ....|--- .... ....|--- .... ....
....|..|--- .... ....|--- .... ....|--- .... ....
....|..|C-4 LF.7 ....|--- .... ....|--- .... ....
....|..|--- .... ....|--- .... ....|--- .... ....
....|..|C-4 LF.7 ....|--- .... ....|--- .... ....
....|..|--- .... ....|--- .... ....|--- .... ....
....|..|C-4 LF.7 ....|--- .... ....|--- .... ....
....|..|--- .... ....|--- .... ....|--- .... ....
....|..|C-4 LF.A ....|--- .... ....|--- .... ....
....|..|--- .... ....|R-- .... ....|--- .... ....
....|..|C-4 LF.7 ....|F#1 2F.A ....|--- .... ....
....|..|--- .... ....|--- .... ....|--- .... ....
....|..|--- .... ....|--- .... ....|--- .... ....
....|..|--- .... ....|--- .... ....|--- .... ....
....|..|C-4 BF.7 ....|--- .... ....|--- .... ....
....|..|--- .... ....|--- .... ....|--- .... ....
....|..|--- .... ....|--- .... ....|--- .... ....
....|..|--- .... ....|--- .... ....|--- .... ....
....|..|C-4 LF.7 ....|--- .... ....|--- .... ....
....|..|--- .... ....|--- .... ....|--- .... ....
....|..|C-4 LF.7 ....|--- .... ....|--- .... ....
....|..|--- .... ....|R-- .... ....|--- .... ....
....|..|C-4 CF.F ....|F#1 2F.7 ....|--- .... ....
....|..|--- .... ....|--- .... ....|--- .... ....
....|..|--- .... ....|--- .... ....|--- .... ....
....|..|--- .... ....|--- .... ....|--- .... ....
....|..|R-- .... ....|--- .... ....|--- .... ....
....|..|--- .... ....|--- .... ....|--- .... ....
....|..|--- .... ....|--- .... ....|--- .... ....
....|..|--- .... ....|R-- .... ....|--- .... ....
....|..|C-4 BF.F ....|B-4 UF7F ....|B-3 UF7F ....
....|..|--- .... ....|--- .... ....|--- .... ....
....|..|--- .... ....|--- .... ....|--- .... ....
....|..|--- .... ....|--- .... ....|--- .... ....
....|..|C-4 LF.F ....|D-4 UF7F ....|D-3 UF7F ....
....|..|--- .... ....|--- .... ....|--- .... ....
....|..|--- .... ....|F#4 UF7F ....|F#3 UF7F ....
....|..|--- .... ....|--- .... ....|--- .... ....
....|..|C-4 BF.F ....|--- .... ....|--- .... ....
....|..|--- .... ....|--- .... ....|--- .... ....
....|..|--- .... ....|A-4 UF7F ....|A-3 UF7F ....
....|..|--- .... ....|R-- .... ....|--- .... ....
....|..|C-4 LF.F ....|B-4 UF7A ....|B-3 UF7A ....
....|..|--- .... ....|--- .... ....|--- .... ....
....|..|C-4 LF.F ....|B-4 UF7F ....|B-3 UF7F ....
....|..|--- .... ....|--- .... ....|--- .... ....
....|..|C-4 BF.F ....|D-4 UF7A ....|D-3 UF7A ....
....|..|--- .... ....|--- .... ....|--- .... ....
....|..|C-4 LF.F ....|D-4 UF7F ....|D-3 UF7F ....
....|..|--- .... ....|--- .... ....|--- .... ....
....|..|C-4 LF.F ....|--- .... ....|--- .... ....
....|..|--- .... ....|--- .... ....|--- .... ....
....|..|--- .... ....|F#4 UF7F ....|F#3 UF7F ....
....|..|--- .... ....|R-- .... ....|--- .... ....
....|..|C-4 BF.F ....|B-4 UF77 ....|B-3 UF77 ....
....|..|--- .... ....|--- .... ....|--- .... ....
....|..|C-4 LF.A ....|B-4 UF7F ....|B-3 UF7F ....
....|..|--- .... ....|--- .... ....|--- .... ....
....|..|C-4 LF.F ....|D-4 UF77 ....|D-3 UF77 ....
....|..|--- .... ....|--- .... ....|--- .... ....
....|..|C-4 LF.F ....|F#4 UF77 ....|F#3 UF77 ....
....|..|--- .... ....|R-- .... ....|--- .... ....

[Pattern41]
....|..|C-4 BF.F ....|A-4 UF7F ....|A-3 UF7F ....
....|..|--- .... ....|--- .... ....|--- .... ....
....|..|--- .... ....|A-4 UF77 ....|A-3 UF77 ....
....|..|--- .... ....|--- .... ....|--- .... ....
....|..|C-4 LF.F ....|C#4 UF7F ....|C#3 UF7F ....
....|..|--- .... ....|--- .... ....|--- .... ....
....|..|C-4 LF.F ....|E-4 UF7F ....|E-3 UF7F ....
....|..|--- .... ....|--- .... ....|--- .... ....
....|..|C-4 BF.F ....|--- .... ....|--- .... ....
....|..|--- .... ....|--- .... ....|--- .... ....
....|..|C-4 LF.7 ....|F#4 UF7F ....|F#3 UF7F ....
....|..|--- .... ....|R-- .... ....|--- .... ....
....|..|C-4 LF.F ....|A-4 UF7A ....|A-3 UF7A ....
....|..|--- .... ....|--- .... ....|--- .... ....
....|..|C-4 LF.F ....|A-4 UF7F ....|A-3 UF7F ....
....|..|--- .... ....|--- .... ....|--- .... ....
....|..|C-4 BF.F ....|C#4 UF7A ....|C#3 UF7A ....
....|..|--- .... ....|--- .... ....|--- .... ....
....|..|C-4 LF.F ....|C#4 UF7F ....|C#3 UF7F ....
....|..|--- .... ....|--- .... ....|--- .... ....
....|..|C-4 LF.F ....|--- .... ....|--- .... ....
....|..|--- .... ....|--- .... ....|--- .... ....
....|..|C-4 LF.7 ....|E-4 UF7F ....|E-3 UF7F ....
....|..|--- .... ....|R-- .... ....|--- .... ....
....|..|C-4 BF.F ....|A-4 UF77 ....|A-3 UF77 ....
....|..|--- .... ....|--- .... ....|--- .... ....
....|..|C-4 LF.A ....|A-4 UF7F ....|A-3 UF7F ....
....|..|--- .... ....|--- .... ....|--- .... ....
....|..|C-4 LF.F ....|C#4 UF77 ....|C#3 UF77 ....
....|..|--- .... ....|--- .... ....|--- .... ....
....|..|C-4 LF.7 ....|E-4 UF77 ....|E-3 UF77 ....
....|..|--- .... ....|R-- .... ....|--- .... ....
....|..|C-4 BF.F ....|G-4 UF7F ....|G-3 UF7F ....
....|..|--- .... ....|--- .... ....|--- .... ....
....|..|--- .... ....|F#4 UF77 ....|F#3 UF77 ....
....|..|--- .... ....|--- .... ....|--- .... ....
....|..|C-4 LF.F ....|B-4 UF7F ....|B-3 UF7F ....
....|..|--- .... ....|--- .... ....|--- .... ....
....|..|C-4 LF.7 ....|D-4 UF7F ....|D-3 UF7F ....
....|..|--- .... ....|--- .... ....|--- .... ....
....|..|C-4 BF.F ....|--- .... ....|--- .... ....
....|..|--- .... ....|--- .... ....|--- .... ....
....|..|C-4 LF.F ....|F#4 UF7F ....|F#3 UF7F ....
....|..|--- .... ....|R-- .... ....|--- .... ....
....|..|C-4 LF.7 ....|G-4 UF7A ....|G-3 UF7A ....
....|..|--- .... ....|--- .... ....|--- .... ....
....|..|C-4 LF.F ....|G-4 UF7F ....|G-3 UF7F ....
....|..|--- .... ....|--- .... ....|--- .... ....
....|..|C-4 BF.F ....|B-4 UF7A ....|B-3 UF7A ....
....|..|--- .... ....|--- .... ....|--- .... ....
....|..|--- .... ....|B-4 UF7F ....|B-3 UF7F ....
....|..|--- .... ....|--- .... ....|--- .... ....
....|..|C-4 LF.F ....|--- .... ....|--- .... ....
....|..|--- .... ....|--- .... ....|--- .... ....
....|..|C-4 LF.A ....|D-4 UF7F ....|D-3 UF7F ....
....|..|--- .... ....|R-- .... ....|--- .... ....
....|..|C-4 BF.F ....|G-4 UF77 ....|G-3 UF77 ....
....|..|--- .... ....|--- .... ....|--- .... ....
....|..|C-4 LF.F ....|G-4 UF7F ....|G-3 UF7F ....
....|..|--- .... ....|--- .... ....|--- .... ....
....|..|C-4 LF.F ....|B-4 UF77 ....|B-3 UF77 ....
....|..|--- .... ....|--- .... ....|--- .... ....
....|..|--- .... ....|D-4 UF77 ....|D-3 UF77 ....
....|..|--- .... ....|R-- .... ....|--- .... ....

[Pattern42]
....|..|C-4 BF.F ....|F#4 UF7F ....|F#3 UF7F ....
....|..|--- .... ....|--- .... ....|--- .... ....
....|..|C-4 LF.7 ....|F#4 UF77 ....|F#3 UF77 ....
....|..|--- .... ....|--- .... ....|--- .... ....
....|..|C-4 LF.F ....|A#4 UF7F ....|A#3 UF7F ....
....|..|--- .... ....|--- .... ....|--- .... ....
....|..|C-4 LF.F ....|C#4 UF7F ....|C#3 UF7F ....
....|..|--- .... ....|--- .... ....|--- .... ....
....|..|C-4 BF.F ....|--- .... ....|--- .... ....
....|..|--- .... ....|--- .... ....|--- .... ....
....|..|--- .... ....|E-4 UF7F ....|E-3 UF7F ....
....|..|--- .... ....|R-- .... ....|--- .... ....
....|..|C-4 LF.F ....|F#4 UF7A ....|F#3 UF7A ....
....|..|--- .... ....|--- .... ....|--- .... ....
....|..|--- .... ....|F#4 UF7F ....|F#3 UF7F ....
....|..|--- .... ....|--- .... ....|--- .... ....
....|..|C-4 BF.F ....|A#4 UF7A ....|A#3 UF7A ....
....|..|--- .... ....|--- .... ....|--- .... ....
....|..|C-4 LF.F ....|A#4 UF7F ....|A#3 UF7F ....
....|..|--- .... ....|--- .... ....|--- .... ....
....|..|C-4 LF.F ....|--- .... ....|--- .... ....
....|..|--- .... ....|--- .... ....|--- .... ....
....|..|--- .... ....|C#4 UF7F ....|C#3 UF7F ....
....|..|--- .... ....|R-- .... ....|--- .... ....
....|..|C-4 BF.F ....|F#4 UF77 ....|F#3 UF77 ....
....|..|--- .... ....|--- .... ....|--- .... ....
....|..|C-4 9F.F ....|F#4 UF7F ....|F#3 UF7F ....
....|..|--- .... ....|--- .... ....|--- .... ....
....|..|C-4 9F.F ....|A#4 UF77 ....|A#3 UF77 ....
....|..|--- .... ....|--- .... ....|--- .... ....
....|..|C-3 9F.F ....|C#4 UF77 ....|C#3 UF77 ....
....|..|--- .... ....|R-- .... ....|--- .... ....
....|..|C-4 AF.F ....|B-3 7F2F ....|B-3 UF7F ....
....|..|--- .... ....|--- .... ....|--- .... ....
....|..|--- .... ....|E-4 UF77 ....|E-3 UF77 ....
....|..|--- .... ....|--- .... ....|--- .... ....
....|..|C-4 LF.F ....|D-4 UF7F ....|D-3 UF7F ....
....|..|--- .... ....|--- .... ....|--- .... ....
....|..|C-4 9F.A ....|F#4 UF7F ....|F#3 UF7F ....
....|..|--- .... ....|--- .... ....|--- .... ....
....|..|C-4 BF.F ....|--- .... ....|--- .... ....
....|..|--- .... ....|--- .... ....|--- .... ....
....|..|C-4 LF.7 ....|A-4 UF7F ....|A-3 UF7F ....
....|..|--- .... ....|R-- .... ....|--- .... ....
....|..|C-4 LF.F ....|B-3 7F2A ....|B-3 UF7A ....
....|..|--- .... ....|--- .... ....|--- .... ....
....|..|C-4 LF.F ....|B-4 UF7F ....|B-3 UF7F ....
....|..|--- .... ....|--- .... ....|--- .... ....
....|..|C-4 AF.F ....|D-4 UF7A ....|D-3 UF7A ....
....|..|--- .... ....|--- .... ....|--- .... ....
....|..|C-4 LF.F ....|D-4 UF7F ....|D-3 UF7F ....
....|..|--- .... ....|--- .... ....|--- .... ....
....|..|C-4 LF.F ....|--- .... ....|--- .... ....
....|..|--- .... ....|--- .... ....|--- .... ....
....|..|C-3 9F.7 ....|F#4 UF7F ....|F#3 UF7F ....
....|..|--- .... ....|R-- .... ....|--- .... ....
....|..|C-4 BF.F ....|B-3 7F27 ....|B-3 UF77 ....
....|..|--- .... ....|--- .... ....|--- .... ....
....|..|C-4 LF.A ....|B-4 UF7F ....|B-3 UF7F ....
....|..|--- .... ....|--- .... ....|--- .... ....
....|..|C-4 LF.F ....|D-4 UF77 ....|D-3 UF77 ....
....|..|--- .... ....|--- .... ....|--- .... ....
....|..|C-4 LF.F ....|F#4 UF77 ....|F#3 UF77 ....
....|..|--- .... ....|R-- .... ....|--- .... ....

[Pattern43]
....|..|C-4 AF.F ....|A-3 7F3F ....|A-3 UF7F ....
....|..|--- .... ....|--- .... ....|--- .... ....
....|..|--- .... ....|A-4 UF77 ....|A-3 UF77 ....
....|..|--- .... ....|--- .... ....|--- .... ....
....|..|C-4 LF.F ....|C#4 UF7F ....|C#3 UF7F ....
....|..|--- .... ....|--- .... ....|--- .... ....
....|..|C-4 LF.F ....|E-4 UF7F ....|E-3 UF7F ....
....|..|--- .... ....|--- .... ....|--- .... ....
....|..|C-4 BF.F ....|--- .... ....|--- .... ....
....|..|--- .... ....|--- .... ....|--- .... ....
....|..|C-4 LF.7 ....|F#4 UF7F ....|F#3 UF7F ....
....|..|--- .... ....|R-- .... ....|--- .... ....
....|..|C-4 LF.F ....|A-3 7F3A ....|A-3 UF7A ....
....|..|--- .... ....|--- .... ....|--- .... ....
....|..|C-4 LF.F ....|A-4 UF7F ....|A-3 UF7F ....
....|..|--- .... ....|--- .... ....|--- .... ....
....|..|C-4 AF.F ....|C#4 UF7A ....|C#3 UF7A ....
....|..|--- .... ....|--- .... ....|--- .... ....
....|..|C-4 LF.F ....|C#4 UF7F ....|C#3 UF7F ....
....|..|--- .... ....|--- .... ....|--- .... ....
....|..|C-4 LF.F ....|--- .... ....|--- .... ....
....|..|--- .... ....|--- .... ....|--- .... ....
....|..|C-4 LF.7 ....|E-4 UF7F ....|E-3 UF7F ....
....|..|--- .... ....|R-- .... ....|--- .... ....
....|..|C-4 BF.F ....|A-3 7F37 ....|A-3 UF77 ....
....|..|--- .... ....|--- .... ....|--- .... ....
....|..|C-4 LF.A ....|A-4 UF7F ....|A-3 UF7F ....
....|..|--- .... ....|--- .... ....|--- .... ....
....|..|C-4 LF.F ....|C#4 UF77 ....|C#3 UF77 ....
....|..|--- .... ....|--- .... ....|--- .... ....
....|..|C-4 LF.7 ....|E-4 UF77 ....|E-3 UF77 ....
....|..|--- .... ....|R-- .... ....|--- .... ....
....|..|C-4 AF.F ....|G-3 7F3F ....|G-3 UF7F ....
....|..|--- .... ....|--- .... ....|--- .... ....
....|..|--- .... ....|F#4 UF77 ....|F#3 UF77 ....
....|..|--- .... ....|--- .... ....|--- .... ....
....|..|C-4 LF.F ....|B-4 UF7F ....|B-3 UF7F ....
....|..|--- .... ....|--- .... ....|--- .... ....
....|..|C-4 LF.7 ....|D-4 UF7F ....|D-3 UF7F ....
....|..|--- .... ....|--- .... ....|--- .... ....
....|..|C-4 BF.F ....|--- .... ....|--- .... ....
....|..|--- .... ....|--- .... ....|--- .... ....
....|..|C-4 LF.F ....|F#4 UF7F ....|F#3 UF7F ....
....|..|--- .... ....|R-- .... ....|--- .... ....
....|..|C-4 LF.7 ....|G-3 7F3A ....|G-3 UF7A ....
....|..|--- .... ....|--- .... ....|--- .... ....
....|..|C-4 LF.F ....|G-4 UF7F ....|G-3 UF7F ....
....|..|--- .... ....|--- .... ....|--- .... ....
....|..|C-4 AF.F ....|B-4 UF7A ....|B-3 UF7A ....
....|..|--- .... ....|--- .... ....|--- .... ....
....|..|--- .... ....|B-4 UF7F ....|B-3 UF7F ....
....|..|--- .... ....|--- .... ....|--- .... ....
....|..|C-4 LF.F ....|--- .... ....|--- .... ....
....|..|--- .... ....|--- .... ....|--- .... ....
....|..|C-4 LF.A ....|D-4 UF7F ....|D-3 UF7F ....
....|..|--- .... ....|R-- .... ....|--- .... ....
....|..|C-4 BF.F ....|G-3 7F37 ....|G-3 UF77 ....
....|..|--- .... ....|--- .... ....|--- .... ....
....|..|C-4 LF.F ....|G-4 UF7F ....|G-3 UF7F ....
....|..|--- .... ....|--- .... ....|--- .... ....
....|..|C-4 LF.F ....|B-4 UF77 ....|B-3 UF77 ....
....|..|--- .... ....|--- .... ....|--- .... ....
....|..|--- .... ....|D-4 UF77 ....|D-3 UF77 ....
....|..|--- .... ....|R-- .... ....|--- .... ....

[Pattern44]
....|..|C-4 AF.F ....|F#3 7F4F ....|F#3 UF7F ....
..10|..|F#2 2A.F ....|--- .... ....|--- .... ....
....|..|C-4 LF.7 ....|F#4 UF77 ....|F#3 UF77 ....
....|..|--- .... ....|--- .... ....|--- .... ....
....|..|C-4 LF.F ....|A#4 UF7F ....|A#3 UF7F ....
..19|..|A#1 2A.F ....|--- .... ....|--- .... ....
....|..|C-4 LF.F ....|C#4 UF7F ....|C#3 UF7F ....
..15|..|C#2 2A.F ....|--- .... ....|--- .... ....
....|..|C-4 BF.F ....|--- .... ....|--- .... ....
....|..|--- .... ....|--- .... ....|--- .... ....
..12|..|E-2 2A.F ....|E-4 UF7F ....|E-3 UF7F ....
....|..|--- .... ....|R-- .... ....|--- .... ....
....|..|C-4 LF.F ....|F#3 7F4A ....|F#3 UF7A ....
....|..|F#2 2F.A ....|--- .... ....|--- .... ....
..10|..|F#2 2A.F ....|F#4 UF7F ....|F#3 UF7F ....
....|..|--- .... ....|--- .... ....|--- .... ....
....|..|C-4 AF.F ....|A#4 UF7A ....|A#3 UF7A ....
....|..|A#1 2F.A ....|--- .... ....|--- .... ....
....|..|C-4 LF.F ....|A#4 UF7F ....|A#3 UF7F ....
..19|..|A#1 2A.F ....|--- .... ....|--- .... ....
....|..|C-4 LF.F ....|--- .... ....|--- .... ....
....|..|--- .... ....|--- .... ....|--- .... ....
..15|..|C#2 2A.F ....|C#4 UF7F ....|C#3 UF7F ....
....|..|--- .... ....|R-- .... ....|--- .... ....
....|..|C-4 BF.F ....|F#3 7F47 ....|F#3 UF77 ....
....|..|F#2 2F.7 ....|--- .... ....|--- .... ....
....|..|C-4 9F.F ....|F#4 UF7F ....|F#3 UF7F ....
..10|..|F#2 2A.F ....|--- .... ....|--- .... ....
....|..|C-4 9F.F ....|A#4 UF77 ....|A#3 UF77 ....
....|..|A#1 2F.7 ....|--- .... ....|--- .... ....
....|..|C-3 9F.F ....|C#4 UF77 ....|C#3 UF77 ....
....|..|C#2 2F.7 ....|R-- .... ....|--- .... ....
....|..|C-4 AF.F ....|B-5 6F.F ....|B-3 UF7F ....
...C|..|B-2 2A.F ....|--- .... ....|--- .... ....
....|..|E-2 2F.7 ....|E-4 UF77 ....|E-3 UF77 ....
....|..|--- .... ....|--- .... ....|--- .... ....
....|..|C-4 LF.F ....|B-5 6F.F ....|D-3 UF7F ....
..14|..|D-2 2A.F ....|--- .... ....|--- .... ....
...F|..|G-2 2A.F ....|G-4 UF7F ....|G-3 UF7F ....
....|..|F#2 2F.A ....|--- .... ....|--- .... ....
....|..|C-4 BF.F ....|B-5 6F.F ....|--- .... ....
....|..|--- .... ....|--- .... ....|--- .... ....
..1B|..|A-2 2C.F ....|B-5 6F.F ....|A-3 UF7F ....
....|..|A#1 2F.7 ....|R-- .... ....|--- .... ....
....|..|C-4 LF.F ....|A-5 6F.F ....|B-3 UF7A ....
....|..|B-2 2F.A ....|--- .... ....|--- .... ....
....|..|C-4 AF.F ....|B-5 6F.F ....|B-3 UF7F ....
...C|..|B-2 2A.F ....|--- .... ....|--- .... ....
....|..|C-4 AF.F ....|D-3 7F1F ....|D-3 UF7A ....
....|..|D-2 2F.A ....|--- .... ....|--- .... ....
....|..|C-4 LF.F ....|D-4 UF7F ....|D-3 UF7F ....
..14|..|D-2 2A.F ....|--- .... ....|--- .... ....
....|..|C-4 LF.F ....|B-5 6F.F ....|--- .... ....
....|..|--- .... ....|--- .... ....|--- .... ....
....|..|C-4 AF.F ....|F#4 UF7F ....|F#3 UF7F ....
..10|..|F#2 2A.F ....|R-- .... ....|--- .... ....
....|..|C-4 BF.F ....|B-5 6F.F ....|B-3 UF77 ....
....|..|B-2 2F.7 ....|--- .... ....|--- .... ....
....|..|C-4 LF.F ....|A-4 UF7F ....|A-3 UF7F ....
..1B|..|A-2 2C.F ....|--- .... ....|--- .... ....
....|..|C-4 LF.F ....|B-5 6F.F ....|D-3 UF77 ....
....|..|D-2 2F.7 ....|--- .... ....|--- .... ....
....|..|C-4 LF.F ....|B-5 6F.F ....|G-3 UF77 ....
....|..|D-2 2F.A ....|--- .... ....|--- .... ....

[Pattern45]
....|..|C-4 AF.F ....|A-5 6F.F ....|A-3 UF7F ....
..1B|..|A-2 2C.F ....|--- .... ....|--- .... ....
....|..|A-2 2F.7 ....|B-5 6F.7 ....|A-3 UF77 ....
....|..|F#2 2F.A ....|--- .... ....|--- .... ....
....|..|C-4 LF.F ....|A-5 6F.F ....|C#3 UF7F ....
..15|..|C#2 2A.F ....|--- .... ....|--- .... ....
....|..|C-4 LF.F ....|E-4 UF7F ....|E-3 UF7F ....
..12|..|E-2 2A.F ....|--- .... ....|--- .... ....
....|..|C-4 BF.F ....|A-5 6F.F ....|--- .... ....
....|..|--- .... ....|--- .... ....|--- .... ....
...F|..|G-2 2A.F ....|G-4 UF7F ....|G-3 UF7F ....
....|..|D-2 2F.7 ....|--- .... ....|--- .... ....
....|..|C-4 LF.F ....|A-5 6F.F ....|A-3 UF7A ....
....|..|A-2 2F.A ....|--- .... ....|--- .... ....
..1B|..|A-2 2C.F ....|A-4 UF7F ....|A-3 UF7F ....
....|..|F#2 2F.7 ....|--- .... ....|--- .... ....
....|..|C-4 AF.F ....|B-5 6F.F ....|C#3 UF7A ....
....|..|C#2 2F.A ....|A-5 6F.F ....|--- .... ....
....|..|C-4 LF.F ....|G-5 6F.F ....|C#3 UF7F ....
..15|..|C#2 2A.F ....|F#5 6F.F ....|--- .... ....
....|..|C-4 LF.7 ....|G-5 6F.F ....|--- .... ....
....|..|--- .... ....|--- .... ....|--- .... ....
....|..|C-4 AF.F ....|F#4 UF7F ....|F#3 UF7F ....
..10|..|F#2 2A.F ....|--- .... ....|--- .... ....
....|..|C-4 BF.F ....|F#5 6F.F ....|A-3 UF77 ....
....|..|A-2 2F.7 ....|--- .... ....|--- .... ....
..1B|..|A-2 2C.F ....|A-4 UF7F ....|A-3 UF7F ....
....|..|--- .... ....|--- .... ....|--- .... ....
....|..|C-4 LF.F ....|E-5 6F.F ....|C#3 UF77 ....
....|..|C#2 2F.7 ....|A-5 6F.A ....|--- .... ....
....|..|C-4 LF.7 ....|E-4 UF77 ....|E-3 UF77 ....
....|..|E-2 2F.7 ....|F#5 6F.A ....|--- .... ....
....|..|C-4 AF.F ....|B-5 6F.F ....|B-3 UF7F ....
...C|..|B-2 2A.F ....|--- .... ....|--- .... ....
....|..|G-2 2F.7 ....|G-4 UF77 ....|G-3 UF77 ....
....|..|F#2 2F.A ....|--- .... ....|--- .... ....
....|..|C-4 LF.F ....|B-5 6F.F ....|D-3 UF7F ....
..14|..|D-2 2A.F ....|--- .... ....|--- .... ....
...F|..|G-2 2A.F ....|G-4 UF7F ....|G-3 UF7F ....
....|..|--- .... ....|--- .... ....|--- .... ....
....|..|C-4 BF.F ....|B-5 6F.F ....|--- .... ....
....|..|--- .... ....|A-5 6F.7 ....|--- .... ....
..1B|..|A-2 2C.F ....|B-5 6F.F ....|A-3 UF7F ....
....|..|C#2 2F.7 ....|F#5 6F.7 ....|--- .... ....
....|..|C-4 LF.F ....|A-5 6F.F ....|B-3 UF7A ....
....|..|B-2 2F.A ....|--- .... ....|--- .... ....
....|..|C-4 AF.F ....|B-5 6F.F ....|B-3 UF7F ....
...C|..|B-2 2A.F ....|--- .... ....|--- .... ....
....|..|C-4 AF.F ....|D-3 7F1F ....|D-3 UF7A ....
....|..|D-2 2F.A ....|--- .... ....|--- .... ....
....|..|C-4 LF.F ....|D-4 UF7F ....|D-3 UF7F ....
..14|..|D-2 2A.F ....|--- .... ....|--- .... ....
....|..|C-4 LF.F ....|B-5 6F.F ....|--- .... ....
....|..|--- .... ....|--- .... ....|--- .... ....
....|..|C-4 AF.F ....|F#4 UF7F ....|F#3 UF7F ....
..10|..|F#2 2A.F ....|--- .... ....|--- .... ....
....|..|C-4 BF.F ....|B-5 6F.F ....|B-3 UF77 ....
....|..|B-2 2F.7 ....|--- .... ....|--- .... ....
....|..|C-4 LF.F ....|A-4 UF7F ....|A-3 UF7F ....
..1B|..|A-2 2C.F ....|--- .... ....|--- .... ....
....|..|C-4 LF.F ....|B-5 6F.F ....|D-3 UF77 ....
....|..|D-2 2F.7 ....|--- .... ....|--- .... ....
....|..|C-4 LF.F ....|B-5 6F.F ....|G-3 UF77 ....
....|..|D-2 2F.A ....|--- .... ....|--- .... ....

[Pattern46]
....|..|C-4 AF.F ....|B-3 7F6F ....|B-2 UF.F ....
....|..|R-- .... ....|--- .... ....|--- .... ....
....|..|A-2 2F.7 ....|B-5 6F.7 ....|A-3 UF77 ....
....|..|F#2 2F.A ....|--- .... ....|--- .... ....
....|..|C-4 LF.7 ....|A-5 6F.7 ....|--- .... ....
....|..|--- .... ....|--- .... ....|--- .... ....
....|..|C-4 AF.F ....|A-3 7F3F ....|A-2 UF.F ....
....|..|B-2 2F.7 ....|--- .... ....|--- .... ....
....|..|C-4 AF.7 ....|D-3 7F17 ....|--- .... ....
....|..|--- .... ....|--- .... ....|--- .... ....
....|..|C-4 LF.7 ....|D-4 UF77 ....|D-3 UF77 ....
....|..|D-2 2F.7 ....|--- .... ....|--- .... ....
....|..|C-4 AF.F ....|A-3 7F3F ....|A-2 UF.F ....
....|..|R-- .... ....|--- .... ....|--- .... ....
....|..|C-4 AF.7 ....|F#4 UF77 ....|F#3 UF77 ....
....|..|F#2 2F.7 ....|--- .... ....|--- .... ....
....|..|C-4 BF.7 ....|B-5 6F.7 ....|--- .... ....
....|..|--- .... ....|--- .... ....|--- .... ....
....|..|C-4 AF.F ....|F#3 7F4F ....|G-2 UF.F ....
....|..|A-2 2F.7 ....|--- .... ....|--- .... ....
....|..|C-4 LF.7 ....|B-5 6F.7 ....|--- .... ....
....|..|--- .... ....|--- .... ....|--- .... ....
....|..|C-4 AF.F ....|F#3 7F4F ....|F#2 UF.F ....
....|..|--- .... ....|--- .... ....|--- .... ....
....|..|C-4 AF.F ....|F#3 7F4F ....|F#2 UF.F ....
....|..|R-- .... ....|--- .... ....|--- .... ....
....|..|R-- .... ....|R-- .... ....|R-- .... ....
....|..|--- .... ....|--- .... ....|--- .... ....
....|..|R-- .... ....|R-- .... ....|--- .... ....
....|..|--- .... ....|--- .... ....|--- .... ....
....|..|C-4 AF.7 ....|A-3 7F37 ....|A-2 UF.7 ....
....|..|--- .... ....|--- .... ....|--- .... ....
....|..|C-5 VF.F ....|--- .... ....|--- .... ....
....|..|--- .... ....|--- .... ....|--- .... ....
....|..|C-4 9F.F ....|F#3 7F4A ....|F#2 UF.A ....
....|..|--- .... ....|--- .... ....|--- .... ....
....|..|C-4 AF.7 ....|A-3 7F37 ....|A-2 UF.7 ....
....|..|--- .... ....|--- .... ....|--- .... ....
....|..|C-5 VF.F ....|R-- .... ....|R-- .... ....
....|..|--- .... ....|--- .... ....|--- .... ....
....|..|R-- .... ....|R-- .... ....|--- .... ....
....|..|--- .... ....|--- .... ....|--- .... ....
....|..|C-5 VF.F ....|F#3 7F47 ....|G-2 UF.7 ....
....|..|--- .... ....|--- .... ....|--- .... ....
....|..|C-5 VF.F ....|--- .... ....|--- .... ....
....|..|--- .... ....|--- .... ....|--- .... ....
....|..|C-5 VF.F ....|F#3 7F47 ....|F#2 UF.7 ....
....|..|--- .... ....|--- .... ....|--- .... ....
....|..|C-4 AF.F ....|B-4 6F.F ....|F#3 3FEF ....
....|..|--- .... ....|--- .... ....|--- .... ....
....|..|C-5 VF.A ....|R-- .... ....|R-- .... ....
....|..|--- .... ....|--- .... ....|R-- .... ....
....|..|R-- .... ....|B-4 6F.F ....|F#3 3FEF ....
....|..|--- .... ....|--- .... ....|--- .... ....
....|..|C-5 VF.A ....|B-4 6F.F ....|--- .... ....
....|..|--- .... ....|--- .... ....|R-- .... ....
....|..|C-4 CF.F ....|D-5 6F.F ....|F#3 3FEF ....
....|..|--- .... ....|--- .... ....|--- .... ....
....|..|C-4 9F.7 ....|--- .... ....|--- .... ....
....|..|--- .... ....|--- .... ....|R-- .... ....
....|..|C-4 AF.A ....|E-5 6F.F ....|F#3 3FEF ....
....|..|--- .... ....|--- .... ....|--- .... ....
....|..|C-5 VF.7 ....|--- .... ....|--- .... ....
....|..|--- .... ....|--- .... ....|R-- .... ....

[Pattern47]
....|..|C-4 AF.F ....|F#5 6F.F ....|F#3 3FEF ....
....|..|--- .... ....|--- .... ....|--- .... ....
....|..|C-5 VF.7 ....|B-4 6F.A ....|--- .... ....
....|..|--- .... ....|--- .... ....|R-- .... ....
....|..|C-5 VF.7 ....|F#5 6F.F ....|F#3 3FEF ....
....|..|--- .... ....|--- .... ....|--- .... ....
....|..|C-5 VF.7 ....|--- .... ....|--- .... ....
....|..|--- .... ....|--- .... ....|R-- .... ....
....|..|C-4 CF.F ....|B-4 6F.7 ....|F#3 3FEF ....
....|..|--- .... ....|--- .... ....|--- .... ....
....|..|--- .... ....|--- .... ....|--- .... ....
....|..|--- .... ....|--- .... ....|R-- .... ....
....|..|C-4 AF.A ....|E-5 6F.F ....|F#3 3FE7 ....
....|..|--- .... ....|--- .... ....|--- .... ....
....|..|--- .... ....|B-4 6F.7 ....|--- .... ....
....|..|--- .... ....|--- .... ....|R-- .... ....
....|..|C-4 AF.F ....|F#5 6F.F ....|F#3 3FEF ....
....|..|--- .... ....|--- .... ....|--- .... ....
....|..|--- .... ....|--- .... ....|--- .... ....
....|..|--- .... ....|--- .... ....|R-- .... ....
....|..|C-4 CF.A ....|F#5 6F.F ....|F#3 3FEF ....
....|..|--- .... ....|--- .... ....|--- .... ....
....|..|--- .... ....|--- .... ....|--- .... ....
....|..|--- .... ....|--- .... ....|R-- .... ....
....|..|C-4 CF.F ....|F#5 6F.7 ....|F#3 3FEF ....
....|..|--- .... ....|--- .... ....|--- .... ....
....|..|--- .... ....|--- .... ....|--- .... ....
....|..|--- .... ....|--- .... ....|R-- .... ....
....|..|C-4 AF.A ....|D-5 6F.F ....|F#3 3FEF ....
....|..|--- .... ....|--- .... ....|R-- .... ....
....|..|--- .... ....|--- .... ....|F#3 3FEF ....
....|..|--- .... ....|--- .... ....|R-- .... ....
....|..|C-4 AF.F ....|C#5 6F.F ....|F#3 3FE7 ....
....|..|--- .... ....|--- .... ....|--- .... ....
....|..|--- .... ....|--- .... ....|--- .... ....
....|..|--- .... ....|--- .... ....|R-- .... ....
....|..|C-4 CF.A ....|E-5 6F.7 ....|F#3 3FEF ....
....|..|--- .... ....|--- .... ....|--- .... ....
....|..|--- .... ....|--- .... ....|--- .... ....
....|..|--- .... ....|--- .... ....|R-- .... ....
....|..|C-4 CF.F ....|F#5 6F.7 ....|F#3 3FEF ....
....|..|--- .... ....|--- .... ....|R-- .... ....
....|..|--- .... ....|--- .... ....|F#3 3FEA ....
....|..|--- .... ....|--- .... ....|R-- .... ....
....|..|C-4 AF.A ....|F#5 6F.7 ....|F#3 3FE7 ....
....|..|--- .... ....|--- .... ....|--- .... ....
....|..|--- .... ....|--- .... ....|--- .... ....
....|..|--- .... ....|--- .... ....|R-- .... ....
....|..|C-4 AF.F ....|B-4 6F.F ....|F#3 3FEF ....
....|..|--- .... ....|--- .... ....|--- .... ....
....|..|--- .... ....|--- .... ....|--- .... ....
....|..|--- .... ....|--- .... ....|R-- .... ....
....|..|C-4 CF.A ....|B-4 6F.F ....|F#3 3FEF ....
....|..|--- .... ....|--- .... ....|R-- .... ....
....|..|C-4 AF.F ....|B-4 6F.F ....|F#3 3FE7 ....
....|..|--- .... ....|--- .... ....|R-- .... ....
....|..|C-4 CF.F ....|D-5 6F.F ....|F#3 3FEF ....
....|..|--- .... ....|--- .... ....|--- .... ....
....|..|--- .... ....|--- .... ....|--- .... ....
....|..|--- .... ....|--- .... ....|R-- .... ....
....|..|C-4 AF.F ....|E-5 6F.F ....|F#3 3FEF ....
....|..|--- .... ....|--- .... ....|--- .... ....
....|..|C-4 AF.F ....|--- .... ....|--- .... ....
....|..|--- .... ....|--- .... ....|R-- .... ....

[Pattern48]
....|..|C-4 AF.F ....|F#5 6F.F ....|F#3 3FEF ....
....|..|--- .... ....|--- .... ....|R-- .... ....
....|..|C-4 AF.A ....|B-4 6F.A ....|F#3 3FEF ....
....|..|--- .... ....|--- .... ....|R-- .... ....
....|..|C-4 CF.A ....|F#5 6F.F ....|F#3 3FEA ....
....|..|--- .... ....|--- .... ....|--- .... ....
....|..|C-4 AF.F ....|--- .... ....|F#3 3FEF ....
....|..|--- .... ....|--- .... ....|R-- .... ....
....|..|C-4 CF.F ....|B-4 6F.7 ....|F#3 3FE7 ....
....|..|--- .... ....|--- .... ....|R-- .... ....
....|..|C-4 AF.A ....|--- .... ....|--- .... ....
....|..|--- .... ....|--- .... ....|R-- .... ....
....|..|C-4 AF.A ....|E-5 6F.F ....|F#3 3FEF ....
....|..|--- .... ....|--- .... ....|R-- .... ....
....|..|C-4 AF.7 ....|B-4 6F.7 ....|F#3 3FEA ....
....|..|--- .... ....|--- .... ....|R-- .... ....
....|..|C-4 AF.F ....|F#5 6F.F ....|F#3 3FEF ....
....|..|--- .... ....|--- .... ....|--- .... ....
....|..|C-4 AF.A ....|--- .... ....|F#3 3FEA ....
....|..|--- .... ....|--- .... ....|R-- .... ....
....|..|C-4 AF.7 ....|F#5 6F.F ....|F#3 3FEF ....
....|..|--- .... ....|--- .... ....|R-- .... ....
....|..|C-4 AF.F ....|--- .... ....|F#3 3FEF ....
....|..|--- .... ....|--- .... ....|R-- .... ....
....|..|C-4 CF.F ....|F#5 6F.F ....|F#3 3FE7 ....
....|..|--- .... ....|--- .... ....|R-- .... ....
....|..|--- .... ....|A-5 6F.F ....|F#3 3FE7 ....
....|..|--- .... ....|--- .... ....|--- .... ....
....|..|C-4 AF.F ....|F#5 6F.F ....|F#3 3FEA ....
....|..|--- .... ....|--- .... ....|--- .... ....
....|..|C-4 AF.7 ....|A-5 6F.F ....|F#3 3FE7 ....
....|..|--- .... ....|--- .... ....|--- .... ....
....|..|C-4 CF.F ....|F#5 6F.A ....|F#3 3FEA ....
....|..|--- .... ....|--- .... ....|R-- .... ....
....|..|C-4 AF.A ....|--- .... ....|F#3 3FEA ....
....|..|--- .... ....|--- .... ....|--- .... ....
....|..|C-4 CF.A ....|E-5 6F.7 ....|G-4 3FEF ....
....|..|--- .... ....|--- .... ....|--- .... ....
....|..|--- .... ....|A-5 6F.A ....|--- .... ....
....|..|--- .... ....|--- .... ....|--- .... ....
....|..|C-4 AF.7 ....|F#5 6F.7 ....|G-4 3FEF ....
....|..|--- .... ....|--- .... ....|--- .... ....
....|..|--- .... ....|A-5 6F.A ....|--- .... ....
....|..|--- .... ....|--- .... ....|--- .... ....
....|..|C-4 CF.A ....|F#5 6F.7 ....|F#4 3FEF ....
....|..|--- .... ....|--- .... ....|--- .... ....
....|..|C-4 AF.7 ....|--- .... ....|D-4 3FEF ....
....|..|--- .... ....|--- .... ....|--- .... ....
....|..|C-4 AF.F ....|B-4 6F.F ....|G-4 3FEA ....
...F|..|G-2 2A.F ....|--- .... ....|--- .... ....
....|..|--- .... ....|A-5 6F.7 ....|--- .... ....
....|..|--- .... ....|--- .... ....|--- .... ....
....|..|C-4 AF.7 ....|B-4 6F.F ....|G-4 3FEF ....
....|..|--- .... ....|--- .... ....|--- .... ....
....|..|C-4 AF.F ....|B-4 6F.F ....|--- .... ....
...F|..|G-2 2A.F ....|--- .... ....|--- .... ....
....|..|C-4 CF.F ....|D-5 6F.F ....|G-4 3FEF ....
...F|..|G-2 2A.F ....|--- .... ....|--- .... ....
....|..|--- .... ....|--- .... ....|D-4 3FEA ....
....|..|--- .... ....|--- .... ....|--- .... ....
....|..|C-4 AF.F ....|E-5 6F.F ....|F#4 3FEF ....
...F|..|G-2 2A.F ....|--- .... ....|--- .... ....
....|..|C-4 AF.F ....|--- .... ....|D-4 3FEF ....
..10|..|F#2 2A.F ....|--- .... ....|--- .... ....

[Pattern49]
....|..|C-4 AF.F ....|F#5 6F.F ....|G-4 3FE7 ....
..14|..|D-2 2A.F ....|--- .... ....|--- .... ....
....|..|C-4 AF.A ....|B-4 6F.A ....|--- .... ....
....|..|G-2 2F.A ....|--- .... ....|--- .... ....
..14|..|D-2 2A.F ....|F#5 6F.F ....|F#4 3FE7 ....
....|..|G-2 2F.A ....|--- .... ....|--- .... ....
....|..|C-4 AF.F ....|--- .... ....|D-4 3FE7 ....
....|..|--- .... ....|--- .... ....|--- .... ....
....|..|C-4 CF.F ....|B-4 6F.7 ....|F#4 3FEA ....
..14|..|D-2 2A.F ....|--- .... ....|--- .... ....
..1B|..|A-1 2A.F ....|--- .... ....|D-4 3FEA ....
....|..|F#2 2F.A ....|--- .... ....|--- .... ....
....|..|C-4 AF.F ....|E-5 6F.F ....|E-4 3FEF ....
..14|..|D-2 2A.F ....|--- .... ....|--- .... ....
....|..|C-4 AF.F ....|B-4 6F.7 ....|F#4 3FEF ....
....|..|G-2 2F.7 ....|--- .... ....|--- .... ....
....|..|C-4 AF.F ....|F#5 6F.F ....|E-4 3FEF ....
..1B|..|A-2 2C.F ....|--- .... ....|--- .... ....
....|..|C-4 AF.A ....|--- .... ....|--- .... ....
....|..|--- .... ....|--- .... ....|--- .... ....
....|..|C-4 AF.F ....|F#5 6F.F ....|F#4 3FE7 ....
....|..|G-2 2F.7 ....|--- .... ....|--- .... ....
....|..|C-4 AF.F ....|--- .... ....|C#4 3FEF ....
..1B|..|A-2 2C.F ....|--- .... ....|--- .... ....
....|..|C-4 CF.F ....|D-5 UFFF ....|E-4 3FEA ....
..1B|..|A-2 2C.F ....|--- .... ....|--- .... ....
....|..|C-4 AF.A ....|--- .... ....|F#4 3FEA ....
....|..|--- .... ....|--- .... ....|--- .... ....
....|..|C-4 AF.F ....|D-5 6F.F ....|E-4 3FEA ....
...F|..|G-2 2A.F ....|--- .... ....|--- .... ....
....|..|C-4 AF.7 ....|--- .... ....|--- .... ....
....|..|--- .... ....|--- .... ....|--- .... ....
....|..|C-4 AF.F ....|C#5 6F.F ....|R-- .... ....
..10|..|F#2 2A.F ....|--- .... ....|--- .... ....
....|..|A-1 2F.7 ....|--- .... ....|C#4 3FEA ....
....|..|A-2 2F.A ....|--- .... ....|--- .... ....
....|..|C-4 AF.7 ....|E-5 6F.7 ....|G-4 3FEF ....
....|..|D-2 2F.7 ....|--- .... ....|--- .... ....
....|..|C-4 AF.F ....|--- .... ....|F#4 3FE7 ....
..15|..|C#2 2A.F ....|--- .... ....|--- .... ....
....|..|C-4 CF.F ....|F#5 6F.7 ....|G-4 3FEF ....
..10|..|F#2 2A.F ....|--- .... ....|--- .... ....
....|..|--- .... ....|--- .... ....|--- .... ....
....|..|--- .... ....|--- .... ....|--- .... ....
....|..|C-4 AF.F ....|G-4 UFFF ....|F#4 3FEF ....
..10|..|F#2 2A.F ....|--- .... ....|--- .... ....
....|..|C-4 AF.F ....|--- .... ....|D-4 3FEF ....
....|..|A-2 2F.7 ....|--- .... ....|--- .... ....
....|..|C-4 AF.F ....|B-4 6F.F ....|G-4 3FEA ....
...F|..|G-2 2A.F ....|--- .... ....|--- .... ....
....|..|C-4 AF.A ....|--- .... ....|--- .... ....
....|..|C#2 2F.A ....|--- .... ....|--- .... ....
....|..|C-4 AF.7 ....|B-4 6F.F ....|G-4 3FEF ....
....|..|G-2 2F.7 ....|--- .... ....|--- .... ....
....|..|C-4 AF.F ....|B-4 6F.F ....|--- .... ....
...F|..|G-2 2A.F ....|--- .... ....|--- .... ....
....|..|C-4 CF.F ....|D-5 6F.F ....|G-4 3FEF ....
...F|..|G-2 2A.F ....|--- .... ....|--- .... ....
....|..|C-4 AF.A ....|--- .... ....|D-4 3FEA ....
....|..|--- .... ....|--- .... ....|--- .... ....
....|..|C-4 AF.F ....|E-5 6F.F ....|F#4 3FEF ....
...F|..|G-2 2A.F ....|--- .... ....|--- .... ....
....|..|C-4 AF.F ....|--- .... ....|D-4 3FEF ....
..10|..|F#2 2A.F ....|--- .... ....|--- .... ....

[Pattern50]
....|..|C-4 AF.F ....|F#5 6F.F ....|G-4 3FE7 ....
..14|..|D-2 2A.F ....|--- .... ....|--- .... ....
....|..|C-4 AF.A ....|B-4 6F.A ....|--- .... ....
....|..|G-2 2F.A ....|--- .... ....|--- .... ....
..1B|..|A-1 2A.F ....|F#5 6F.F ....|F#4 3FE7 ....
....|..|F#2 2F.7 ....|--- .... ....|--- .... ....
....|..|C-4 AF.F ....|--- .... ....|D-4 3FE7 ....
..14|..|D-2 2A.F ....|--- .... ....|--- .... ....
....|..|C-4 CF.F ....|D-5 UFFF ....|F#4 3FEA ....
..14|..|D-2 2A.F ....|--- .... ....|--- .... ....
....|..|C-4 AF.A ....|--- .... ....|D-4 3FEA ....
....|..|F#2 2F.A ....|--- .... ....|--- .... ....
..10|..|F#2 2A.F ....|E-5 6F.F ....|G-4 3FE7 ....
....|..|D-2 2F.A ....|--- .... ....|--- .... ....
....|..|C-4 AF.7 ....|B-4 6F.7 ....|F#4 3FEF ....
....|..|G-2 2F.7 ....|--- .... ....|--- .... ....
....|..|C-4 AF.F ....|F#5 6F.F ....|E-4 3FEF ....
..1B|..|A-2 2C.F ....|--- .... ....|--- .... ....
....|..|C-4 AF.A ....|--- .... ....|R-- .... ....
....|..|D-2 2F.A ....|--- .... ....|--- .... ....
....|..|C-4 AF.7 ....|F#5 6F.F ....|F#4 3FE7 ....
....|..|G-2 2F.7 ....|--- .... ....|--- .... ....
....|..|C-4 AF.F ....|B-4 UFFF ....|C#4 3FEF ....
..1B|..|A-2 2C.F ....|C#5 UFFF ....|--- .... ....
....|..|C-4 CF.F ....|B-4 UFFF ....|--- .... ....
..1B|..|A-2 2C.F ....|--- .... ....|--- .... ....
....|..|--- .... ....|A#4 UFFF ....|F#4 3FEA ....
....|..|--- .... ....|--- .... ....|--- .... ....
....|..|C-4 AF.F ....|D-5 6F.F ....|E-4 3FEA ....
...F|..|G-2 2A.F ....|--- .... ....|--- .... ....
....|..|C-4 AF.7 ....|C#5 UFFF ....|R-- .... ....
....|..|D-2 2F.7 ....|--- .... ....|--- .... ....
....|..|C-4 LF.F ....|F#5 6F.F ....|--- .... ....
..10|..|F#2 2A.F ....|--- .... ....|--- .... ....
....|..|C-4 AF.A ....|A-5 6F.F ....|C#4 3FEA ....
....|..|A-2 2F.A ....|C#5 UFFA ....|--- .... ....
....|..|F#2 2F.7 ....|F#5 6F.F ....|G-4 3FEF ....
....|..|A-2 2F.A ....|--- .... ....|--- .... ....
....|..|C-4 AF.F ....|A-5 6F.F ....|F#4 3FE7 ....
..15|..|C#2 2A.F ....|--- .... ....|--- .... ....
....|..|C-4 CF.F ....|F#5 6F.F ....|G-4 3FEF ....
..10|..|F#2 2A.F ....|--- .... ....|--- .... ....
....|..|--- .... ....|A-5 6F.F ....|R-- .... ....
....|..|--- .... ....|--- .... ....|--- .... ....
....|..|C-4 AF.F ....|F#5 6F.F ....|F#4 3FEF ....
..10|..|F#2 2A.F ....|--- .... ....|--- .... ....
....|..|C-4 AF.F ....|A-5 6F.F ....|D-4 3FEF ....
..1B|..|A-2 2C.F ....|C#5 UFF7 ....|--- .... ....
....|..|C-4 AF.F ....|B-4 6F.F ....|G-4 3FEA ....
...F|..|G-2 2A.F ....|--- .... ....|--- .... ....
....|..|C-4 AF.A ....|A#4 UFF7 ....|--- .... ....
....|..|C#2 2F.A ....|--- .... ....|--- .... ....
....|..|C-4 AF.7 ....|B-4 6F.F ....|G-4 3FEF ....
....|..|G-2 2F.7 ....|--- .... ....|--- .... ....
....|..|C-4 AF.F ....|B-4 6F.F ....|R-- .... ....
...F|..|G-2 2A.F ....|--- .... ....|--- .... ....
....|..|C-4 CF.F ....|D-5 6F.F ....|G-4 3FEF ....
...F|..|G-2 2A.F ....|--- .... ....|--- .... ....
....|..|C-4 AF.A ....|A-5 6F.7 ....|D-4 3FEA ....
....|..|A-2 2F.A ....|--- .... ....|--- .... ....
....|..|C-4 AF.F ....|A-5 6F.F ....|F#4 3FEF ....
...F|..|G-2 2A.F ....|--- .... ....|--- .... ....
....|..|C-4 AF.F ....|A-5 6F.7 ....|D-4 3FEF ....
..10|..|F#2 2A.F ....|--- .... ....|--- .... ....

[Pattern51]
....|..|C-4 AF.F ....|B-5 6F.F ....|G-4 3FE7 ....
..14|..|D-2 2A.F ....|A-5 6F.F ....|--- .... ....
....|..|C-4 AF.A ....|B-5 6F.F ....|--- .... ....
....|..|G-2 2F.A ....|A-5 6F.F ....|--- .... ....
..14|..|D-2 2A.F ....|B-5 6F.F ....|G-4 3FEF ....
....|..|F#2 2F.7 ....|A-5 6F.F ....|--- .... ....
....|..|C-4 AF.F ....|A-5 6F.7 ....|D-4 3FE7 ....
....|..|A-2 2F.7 ....|--- .... ....|--- .... ....
....|..|C-4 CF.F ....|B-4 6F.7 ....|G-4 3FEF ....
..14|..|D-2 2A.F ....|--- .... ....|--- .... ....
..1B|..|A-1 2A.F ....|--- .... ....|D-4 3FEA ....
....|..|F#2 2F.A ....|--- .... ....|--- .... ....
....|..|C-4 AF.F ....|D-5 UFFF ....|F#4 3FEF ....
..14|..|D-2 2A.F ....|A-5 6F.A ....|--- .... ....
....|..|C-4 AF.F ....|B-4 6F.7 ....|--- .... ....
....|..|G-2 2F.7 ....|A-5 6F.A ....|--- .... ....
....|..|C-4 AF.F ....|G-5 6F.F ....|E-4 3FEF ....
..1B|..|A-2 2C.F ....|A-5 6F.A ....|--- .... ....
....|..|C-4 AF.A ....|--- .... ....|D-4 3FEF ....
....|..|--- .... ....|--- .... ....|--- .... ....
....|..|C-4 AF.F ....|E-5 UFFF ....|F#4 3FE7 ....
....|..|G-2 2F.7 ....|--- .... ....|--- .... ....
....|..|C-4 AF.F ....|--- .... ....|E-4 3FEF ....
..1B|..|A-2 2C.F ....|--- .... ....|--- .... ....
....|..|C-4 CF.F ....|F#5 6F.F ....|D-4 3FEF ....
..1B|..|A-2 2C.F ....|A-5 6F.7 ....|--- .... ....
....|..|C-4 AF.A ....|B-5 6F.7 ....|--- .... ....
....|..|--- .... ....|A-5 6F.7 ....|--- .... ....
....|..|C-4 AF.F ....|C#5 UFFF ....|F#4 3FEF ....
...F|..|G-2 2A.F ....|A-5 6F.7 ....|--- .... ....
....|..|C-4 AF.7 ....|--- .... ....|D-4 3FEA ....
....|..|--- .... ....|--- .... ....|--- .... ....
....|..|C-4 AF.F ....|E-5 6F.F ....|G-4 3FE7 ....
..10|..|F#2 2A.F ....|--- .... ....|--- .... ....
....|..|A-1 2F.7 ....|--- .... ....|E-4 3FEA ....
....|..|A-2 2F.A ....|--- .... ....|--- .... ....
....|..|C-4 AF.7 ....|D-5 UFF7 ....|B-3 3FEF ....
....|..|D-2 2F.7 ....|--- .... ....|--- .... ....
....|..|C-4 AF.F ....|--- .... ....|--- .... ....
..15|..|C#2 2A.F ....|--- .... ....|--- .... ....
....|..|C-4 CF.F ....|C#5 6F.F ....|B-3 3FEF ....
..10|..|F#2 2A.F ....|--- .... ....|--- .... ....
....|..|--- .... ....|--- .... ....|D-4 3FE7 ....
....|..|--- .... ....|--- .... ....|--- .... ....
....|..|C-4 AF.F ....|G-4 UFFF ....|C#4 3FEF ....
..10|..|F#2 2A.F ....|--- .... ....|--- .... ....
....|..|C-4 AF.F ....|--- .... ....|D-4 3FEF ....
....|..|A-2 2F.7 ....|--- .... ....|--- .... ....
....|..|C-4 AF.F ....|B-4 6F.F ....|D-4 3FE7 ....
...F|..|G-2 2A.F ....|--- .... ....|--- .... ....
....|..|C-4 AF.A ....|--- .... ....|--- .... ....
....|..|C#2 2F.A ....|--- .... ....|--- .... ....
....|..|C-4 AF.7 ....|B-4 6F.F ....|B-3 3FEF ....
....|..|G-2 2F.7 ....|--- .... ....|--- .... ....
....|..|C-4 AF.F ....|B-4 6F.F ....|--- .... ....
...F|..|G-2 2A.F ....|--- .... ....|--- .... ....
....|..|C-4 CF.F ....|D-5 6F.F ....|B-3 3FEF ....
...F|..|G-2 2A.F ....|--- .... ....|--- .... ....
....|..|C-4 AF.A ....|--- .... ....|D-4 3FEA ....
....|..|--- .... ....|--- .... ....|--- .... ....
....|..|C-4 AF.F ....|E-5 6F.F ....|C#4 3FEF ....
...F|..|G-2 2A.F ....|--- .... ....|--- .... ....
....|..|C-4 AF.F ....|--- .... ....|D-4 3FEF ....
..10|..|F#2 2A.F ....|--- .... ....|--- .... ....

[Pattern52]
....|..|C-4 AF.F ....|F#5 6F.F ....|B-3 3FE7 ....
..14|..|D-2 2A.F ....|--- .... ....|--- .... ....
....|..|C-4 AF.A ....|B-4 6F.A ....|--- .... ....
....|..|G-2 2F.A ....|--- .... ....|--- .... ....
..1B|..|A-1 2A.F ....|F#5 6F.F ....|C#4 3FE7 ....
....|..|F#2 2F.7 ....|--- .... ....|--- .... ....
....|..|C-4 AF.F ....|--- .... ....|D-4 3FE7 ....
..14|..|D-2 2A.F ....|--- .... ....|--- .... ....
....|..|C-4 CF.F ....|D-5 UFFF ....|C#4 3FEA ....
..14|..|D-2 2A.F ....|--- .... ....|--- .... ....
....|..|C-4 AF.A ....|--- .... ....|D-4 3FEA ....
....|..|F#2 2F.A ....|--- .... ....|--- .... ....
..10|..|F#2 2A.F ....|E-5 6F.F ....|B-3 3FE7 ....
....|..|D-2 2F.A ....|--- .... ....|--- .... ....
....|..|C-4 AF.7 ....|B-4 6F.7 ....|F#4 3FEF ....
....|..|G-2 2F.7 ....|--- .... ....|--- .... ....
....|..|C-4 AF.F ....|F#5 6F.F ....|E-4 3FEF ....
..1B|..|A-2 2C.F ....|--- .... ....|--- .... ....
....|..|C-4 AF.A ....|--- .... ....|R-- .... ....
....|..|D-2 2F.A ....|--- .... ....|--- .... ....
....|..|C-4 AF.7 ....|F#5 6F.F ....|C#4 3FE7 ....
....|..|G-2 2F.7 ....|--- .... ....|--- .... ....
....|..|C-4 AF.F ....|B-4 UFFF ....|C#4 3FEF ....
..1B|..|A-2 2C.F ....|C#5 UFFF ....|--- .... ....
....|..|C-4 CF.F ....|B-4 UFFF ....|--- .... ....
..1B|..|A-2 2C.F ....|--- .... ....|--- .... ....
....|..|--- .... ....|A#4 UFFF ....|F#4 3FEA ....
....|..|--- .... ....|--- .... ....|--- .... ....
....|..|C-4 AF.F ....|D-5 6F.F ....|E-4 3FEA ....
...F|..|G-2 2A.F ....|--- .... ....|--- .... ....
....|..|C-4 AF.7 ....|C#5 UFFF ....|R-- .... ....
....|..|D-2 2F.7 ....|--- .... ....|--- .... ....
....|..|C-4 LF.F ....|F#5 6F.F ....|--- .... ....
..10|..|F#2 2A.F ....|--- .... ....|--- .... ....
....|..|C-4 AF.A ....|A-5 6F.F ....|C#4 3FEA ....
....|..|A-2 2F.A ....|C#5 UFFA ....|--- .... ....
....|..|F#2 2F.7 ....|F#5 6F.F ....|--- .... ....
....|..|A-2 2F.A ....|--- .... ....|--- .... ....
....|..|C-4 AF.F ....|A-5 6F.F ....|F#4 3FE7 ....
..15|..|C#2 2A.F ....|--- .... ....|--- .... ....
....|..|C-4 CF.F ....|F#5 6F.F ....|E-4 3FE7 ....
..10|..|F#2 2A.F ....|--- .... ....|--- .... ....
....|..|--- .... ....|A-5 6F.F ....|R-- .... ....
....|..|--- .... ....|--- .... ....|--- .... ....
....|..|C-4 AF.F ....|F#5 6F.F ....|D-4 3FEF ....
..10|..|F#2 2A.F ....|--- .... ....|--- .... ....
....|..|C-4 AF.F ....|A-5 6F.F ....|D-4 3FEF ....
..1B|..|A-2 2C.F ....|C#5 UFF7 ....|--- .... ....
....|..|C-4 AF.F ....|B-4 6F.F ....|D-4 3FEF ....
...F|..|G-2 2A.F ....|--- .... ....|--- .... ....
....|..|C-4 AF.A ....|A#4 UFF7 ....|--- .... ....
....|..|C#2 2F.A ....|--- .... ....|--- .... ....
....|..|C-4 AF.7 ....|B-4 6F.F ....|--- .... ....
....|..|G-2 2F.7 ....|--- .... ....|--- .... ....
....|..|C-4 AF.F ....|B-4 6F.F ....|B-3 3FEF ....
...F|..|G-2 2A.F ....|--- .... ....|--- .... ....
....|..|C-4 CF.F ....|D-5 6F.F ....|D-4 3FEA ....
...F|..|G-2 2A.F ....|--- .... ....|--- .... ....
....|..|C-4 AF.A ....|A-5 6F.7 ....|D-4 3FEA ....
....|..|A-2 2F.A ....|--- .... ....|--- .... ....
....|..|C-4 AF.F ....|E-5 6F.F ....|D-4 3FEF ....
...F|..|G-2 2A.F ....|--- .... ....|--- .... ....
....|..|C-4 AF.F ....|A-5 6F.7 ....|D-4 3FEF ....
..10|..|F#2 2A.F ....|--- .... ....|--- .... ....

[Pattern53]
....|..|C-4 AF.F ....|F#5 6F.F ....|D-4 3FEF ....
..14|..|D-2 2A.F ....|--- .... ....|--- .... ....
....|..|C-4 AF.A ....|A-5 6F.7 ....|B-3 3FEA ....
....|..|G-2 2F.A ....|--- .... ....|--- .... ....
..14|..|D-2 2A.F ....|F#5 6F.F ....|D-4 3FE7 ....
....|..|F#2 2F.7 ....|--- .... ....|--- .... ....
....|..|C-4 AF.F ....|A-5 6F.7 ....|B-3 3FEF ....
....|..|A-2 2F.7 ....|--- .... ....|--- .... ....
....|..|C-4 CF.F ....|B-4 6F.7 ....|D-4 3FE7 ....
..14|..|D-2 2A.F ....|--- .... ....|--- .... ....
..1B|..|A-1 2A.F ....|--- .... ....|D-4 3FEA ....
....|..|F#2 2F.A ....|--- .... ....|--- .... ....
....|..|C-4 AF.F ....|E-5 6F.F ....|D-4 3FEA ....
..14|..|D-2 2A.F ....|--- .... ....|--- .... ....
....|..|C-4 AF.F ....|B-4 6F.7 ....|B-3 3FE7 ....
....|..|G-2 2F.7 ....|--- .... ....|--- .... ....
....|..|C-4 AF.F ....|F#5 6F.F ....|R-- .... ....
..1B|..|A-2 2C.F ....|--- .... ....|--- .... ....
....|..|C-4 AF.A ....|--- .... ....|B-3 3FEA ....
....|..|--- .... ....|--- .... ....|--- .... ....
....|..|C-4 AF.F ....|F#5 6F.F ....|D-4 3FE7 ....
....|..|G-2 2F.7 ....|--- .... ....|--- .... ....
....|..|C-4 AF.F ....|--- .... ....|D-4 3FE7 ....
..1B|..|A-2 2C.F ....|--- .... ....|--- .... ....
....|..|C-4 CF.F ....|D-5 UFFF ....|D-4 3FE7 ....
..1B|..|A-2 2C.F ....|--- .... ....|--- .... ....
....|..|C-4 AF.A ....|--- .... ....|--- .... ....
....|..|--- .... ....|--- .... ....|--- .... ....
....|..|C-4 AF.F ....|D-5 6F.F ....|R-- .... ....
...F|..|G-2 2A.F ....|--- .... ....|--- .... ....
....|..|C-4 AF.7 ....|--- .... ....|B-3 3FE7 ....
....|..|--- .... ....|--- .... ....|--- .... ....
....|..|C-4 AF.F ....|C#5 6F.F ....|--- .... ....
..10|..|F#2 2A.F ....|--- .... ....|--- .... ....
....|..|A-1 2F.7 ....|--- .... ....|--- .... ....
....|..|A-2 2F.A ....|--- .... ....|--- .... ....
....|..|C-4 AF.7 ....|E-5 6F.7 ....|--- .... ....
....|..|D-2 2F.7 ....|--- .... ....|--- .... ....
....|..|C-4 AF.F ....|--- .... ....|--- .... ....
..15|..|C#2 2A.F ....|--- .... ....|--- .... ....
....|..|C-4 CF.F ....|F#5 6F.7 ....|R-- .... ....
..10|..|F#2 2A.F ....|--- .... ....|--- .... ....
....|..|--- .... ....|--- .... ....|--- .... ....
....|..|--- .... ....|--- .... ....|--- .... ....
....|..|C-4 AF.F ....|G-4 UFFF ....|--- .... ....
..10|..|F#2 2A.F ....|--- .... ....|--- .... ....
....|..|C-4 AF.F ....|--- .... ....|--- .... ....
....|..|A-2 2F.7 ....|--- .... ....|--- .... ....
....|..|C-4 AF.F ....|B-4 6F.F ....|D-4 3FEF ....
...F|..|G-2 2A.F ....|--- .... ....|--- .... ....
....|..|C-4 AF.A ....|--- .... ....|D-4 3FEF ....
....|..|C#2 2F.A ....|--- .... ....|--- .... ....
....|..|C-4 AF.7 ....|B-4 6F.F ....|D-4 3FEF ....
....|..|G-2 2F.7 ....|--- .... ....|--- .... ....
....|..|C-4 AF.F ....|B-4 6F.F ....|D-4 3FEF ....
...F|..|G-2 2A.F ....|--- .... ....|--- .... ....
....|..|C-4 CF.F ....|D-5 6F.F ....|D-4 3FEF ....
...F|..|G-2 2A.F ....|--- .... ....|--- .... ....
....|..|C-4 AF.A ....|--- .... ....|--- .... ....
....|..|--- .... ....|--- .... ....|--- .... ....
....|..|C-4 AF.F ....|E-5 6F.F ....|B-3 3FEF ....
...F|..|G-2 2A.F ....|--- .... ....|--- .... ....
....|..|C-4 AF.F ....|--- .... ....|D-4 3FEA ....
..10|..|F#2 2A.F ....|--- .... ....|--- .... ....

[Pattern54]
....|..|C-4 AF.F ....|F#5 6F.F ....|F#4 3FEF ....
..14|..|D-2 2A.F ....|--- .... ....|--- .... ....
....|..|C-4 AF.A ....|B-4 6F.A ....|F#4 3FEF ....
....|..|G-2 2F.A ....|--- .... ....|--- .... ....
..1B|..|A-1 2A.F ....|F#5 6F.F ....|F#4 3FEF ....
....|..|F#2 2F.7 ....|--- .... ....|--- .... ....
....|..|C-4 AF.F ....|--- .... ....|F#4 3FEF ....
..14|..|D-2 2A.F ....|--- .... ....|--- .... ....
....|..|C-4 CF.F ....|D-5 UFFF ....|F#4 3FEF ....
..14|..|D-2 2A.F ....|--- .... ....|--- .... ....
....|..|C-4 AF.A ....|--- .... ....|D-4 3FE7 ....
....|..|F#2 2F.A ....|--- .... ....|--- .... ....
..10|..|F#2 2A.F ....|E-5 6F.F ....|D-4 3FE7 ....
....|..|D-2 2F.A ....|--- .... ....|--- .... ....
....|..|C-4 AF.7 ....|B-4 6F.7 ....|C#4 3FEF ....
....|..|G-2 2F.7 ....|--- .... ....|--- .... ....
....|..|C-4 AF.F ....|F#5 6F.F ....|D-4 3FE7 ....
..1B|..|A-2 2C.F ....|--- .... ....|--- .... ....
....|..|C-4 AF.A ....|--- .... ....|F#4 3FEA ....
....|..|D-2 2F.A ....|--- .... ....|--- .... ....
....|..|C-4 AF.7 ....|F#5 6F.F ....|B-3 3FE7 ....
....|..|G-2 2F.7 ....|--- .... ....|--- .... ....
....|..|C-4 AF.F ....|B-4 UFFF ....|--- .... ....
..1B|..|A-2 2C.F ....|C#5 UFFF ....|--- .... ....
....|..|C-4 CF.F ....|B-4 UFFF ....|F#4 3FE7 ....
..1B|..|A-2 2C.F ....|--- .... ....|--- .... ....
....|..|--- .... ....|A#4 UFFF ....|F#4 3FE7 ....
....|..|--- .... ....|--- .... ....|--- .... ....
....|..|C-4 AF.F ....|D-5 6F.F ....|F#4 3FE7 ....
...F|..|G-2 2A.F ....|--- .... ....|--- .... ....
....|..|C-4 AF.7 ....|C#5 UFFF ....|F#4 3FE7 ....
....|..|D-2 2F.7 ....|--- .... ....|--- .... ....
....|..|C-4 LF.F ....|A-5 6F.F ....|F#4 3FE7 ....
..10|..|F#2 2A.F ....|--- .... ....|--- .... ....
....|..|C-4 AF.A ....|B-5 6F.F ....|--- .... ....
....|..|A-2 2F.A ....|C#5 UFFA ....|--- .... ....
....|..|F#2 2F.7 ....|A-5 6F.F ....|--- .... ....
....|..|A-2 2F.A ....|--- .... ....|--- .... ....
....|..|C-4 AF.F ....|B-5 6F.F ....|C#4 3FE7 ....
..15|..|C#2 2A.F ....|--- .... ....|--- .... ....
....|..|C-4 CF.F ....|A-5 6F.F ....|--- .... ....
..10|..|F#2 2A.F ....|--- .... ....|--- .... ....
....|..|--- .... ....|B-5 6F.F ....|R-- .... ....
....|..|--- .... ....|--- .... ....|--- .... ....
....|..|C-4 AF.F ....|A-5 6F.F ....|D-4 3FEF ....
..10|..|F#2 2A.F ....|--- .... ....|--- .... ....
....|..|C-4 AF.F ....|F#5 6F.F ....|D-4 3FEF ....
..1B|..|A-2 2C.F ....|C#5 UFF7 ....|--- .... ....
....|..|C-4 AF.F ....|D-5 6F.F ....|D-4 3FEF ....
...F|..|G-2 2A.F ....|--- .... ....|--- .... ....
....|..|C-4 AF.A ....|A#4 UFF7 ....|--- .... ....
....|..|C#2 2F.A ....|--- .... ....|--- .... ....
....|..|C-4 AF.7 ....|A-4 UFFF ....|--- .... ....
....|..|G-2 2F.7 ....|--- .... ....|--- .... ....
....|..|C-4 AF.F ....|C#5 UFF7 ....|B-3 3FEF ....
...F|..|G-2 2A.F ....|--- .... ....|--- .... ....
....|..|C-4 CF.F ....|B-5 6F.F ....|D-4 3FEA ....
...F|..|G-2 2A.F ....|--- .... ....|--- .... ....
....|..|C-4 AF.A ....|B-5 6F.7 ....|D-4 3FEA ....
....|..|A-2 2F.A ....|--- .... ....|--- .... ....
....|..|C-4 AF.F ....|F#4 UFFF ....|D-4 3FEF ....
...F|..|G-2 2A.F ....|--- .... ....|--- .... ....
....|..|C-4 AF.F ....|B-5 6F.7 ....|D-4 3FEF ....
..10|..|F#2 2A.F ....|--- .... ....|--- .... ....

[Pattern55]
....|..|C-4 AF.F ....|A-5 6F.F ....|D-4 3FEF ....
..14|..|D-2 2A.F ....|--- .... ....|--- .... ....
....|..|C-4 AF.A ....|B-5 6F.7 ....|B-3 3FEA ....
....|..|G-2 2F.A ....|--- .... ....|--- .... ....
..14|..|D-2 2A.F ....|A-5 6F.7 ....|D-4 3FE7 ....
....|..|F#2 2F.7 ....|--- .... ....|--- .... ....
....|..|C-4 AF.F ....|F#5 6F.7 ....|B-3 3FEF ....
....|..|A-2 2F.7 ....|--- .... ....|--- .... ....
....|..|C-4 CF.F ....|G-5 6F.F ....|D-4 3FE7 ....
..14|..|D-2 2A.F ....|--- .... ....|--- .... ....
..1B|..|A-1 2A.F ....|--- .... ....|D-4 3FEA ....
....|..|F#2 2F.A ....|--- .... ....|--- .... ....
....|..|C-4 AF.F ....|D-5 UFFF ....|D-4 3FEA ....
..14|..|D-2 2A.F ....|--- .... ....|--- .... ....
....|..|C-4 AF.F ....|--- .... ....|B-3 3FE7 ....
....|..|G-2 2F.7 ....|--- .... ....|--- .... ....
....|..|C-4 AF.F ....|F#5 6F.F ....|--- .... ....
..1B|..|A-2 2C.F ....|--- .... ....|--- .... ....
....|..|C-4 AF.A ....|--- .... ....|B-3 3FEA ....
....|..|--- .... ....|--- .... ....|--- .... ....
....|..|C-4 AF.F ....|F#5 6F.F ....|D-4 3FE7 ....
....|..|G-2 2F.7 ....|--- .... ....|--- .... ....
....|..|C-4 AF.F ....|--- .... ....|D-4 3FE7 ....
..1B|..|A-2 2C.F ....|--- .... ....|--- .... ....
....|..|C-4 CF.F ....|D-5 UFFF ....|D-4 3FE7 ....
..1B|..|A-2 2C.F ....|--- .... ....|--- .... ....
....|..|C-4 AF.A ....|--- .... ....|R-- .... ....
....|..|--- .... ....|--- .... ....|--- .... ....
....|..|C-4 AF.F ....|D-5 6F.F ....|--- .... ....
...F|..|G-2 2A.F ....|--- .... ....|--- .... ....
....|..|C-4 AF.7 ....|--- .... ....|B-3 3FE7 ....
....|..|--- .... ....|--- .... ....|--- .... ....
....|..|C-4 AF.F ....|C#5 6F.F ....|--- .... ....
..10|..|F#2 2A.F ....|--- .... ....|--- .... ....
....|..|A-1 2F.7 ....|--- .... ....|--- .... ....
....|..|A-2 2F.A ....|--- .... ....|--- .... ....
....|..|C-4 AF.7 ....|D-5 UFF7 ....|--- .... ....
....|..|D-2 2F.7 ....|--- .... ....|--- .... ....
....|..|C-4 AF.F ....|--- .... ....|R-- .... ....
..15|..|C#2 2A.F ....|--- .... ....|--- .... ....
....|..|C-4 CF.F ....|F#5 6F.7 ....|--- .... ....
..10|..|F#2 2A.F ....|--- .... ....|--- .... ....
....|..|--- .... ....|--- .... ....|--- .... ....
....|..|--- .... ....|--- .... ....|--- .... ....
....|..|C-4 AF.F ....|G-4 UFFF ....|--- .... ....
..10|..|F#2 2A.F ....|--- .... ....|--- .... ....
....|..|C-4 AF.F ....|--- .... ....|--- .... ....
....|..|A-2 2F.7 ....|--- .... ....|--- .... ....
....|..|C-4 AF.F ....|B-4 6F.F ....|D-4 3FEF ....
...F|..|G-2 2A.F ....|--- .... ....|--- .... ....
....|..|C-4 AF.A ....|--- .... ....|D-4 3FEF ....
....|..|C#2 2F.A ....|--- .... ....|--- .... ....
....|..|C-4 AF.7 ....|B-4 6F.F ....|D-4 3FEF ....
....|..|G-2 2F.7 ....|--- .... ....|--- .... ....
....|..|C-4 AF.F ....|B-4 6F.F ....|D-4 3FEF ....
...F|..|G-2 2A.F ....|--- .... ....|--- .... ....
....|..|C-4 CF.F ....|D-5 6F.F ....|D-4 3FEF ....
...F|..|G-2 2A.F ....|--- .... ....|--- .... ....
....|..|C-4 AF.A ....|--- .... ....|--- .... ....
....|..|--- .... ....|--- .... ....|--- .... ....
....|..|C-4 AF.F ....|E-5 6F.F ....|B-3 3FEF ....
...F|..|G-2 2A.F ....|--- .... ....|--- .... ....
....|..|C-4 AF.F ....|--- .... ....|D-4 3FEA ....
..10|..|F#2 2A.F ....|--- .... ....|--- .... ....

[Pattern56]
....|..|C-4 AF.F ....|F#5 6F.F ....|F#4 3FEF ....
..14|..|D-2 2A.F ....|--- .... ....|--- .... ....
....|..|C-4 AF.A ....|B-4 6F.A ....|F#4 3FEF ....
....|..|G-2 2F.A ....|--- .... ....|--- .... ....
..1B|..|A-1 2A.F ....|F#5 6F.F ....|F#4 3FEF ....
....|..|F#2 2F.7 ....|--- .... ....|--- .... ....
....|..|C-4 AF.F ....|--- .... ....|F#4 3FEF ....
..14|..|D-2 2A.F ....|--- .... ....|--- .... ....
....|..|C-4 CF.F ....|D-5 UFFF ....|F#4 3FEF ....
..14|..|D-2 2A.F ....|--- .... ....|--- .... ....
....|..|C-4 AF.A ....|--- .... ....|D-4 3FE7 ....
....|..|F#2 2F.A ....|--- .... ....|--- .... ....
..10|..|F#2 2A.F ....|E-5 6F.F ....|D-4 3FE7 ....
....|..|D-2 2F.A ....|--- .... ....|--- .... ....
....|..|C-4 AF.7 ....|B-4 6F.7 ....|C#4 3FEF ....
....|..|G-2 2F.7 ....|--- .... ....|--- .... ....
....|..|C-4 AF.F ....|F#5 6F.F ....|D-4 3FE7 ....
..1B|..|A-2 2C.F ....|--- .... ....|--- .... ....
....|..|C-4 AF.A ....|--- .... ....|F#4 3FEA ....
....|..|D-2 2F.A ....|--- .... ....|--- .... ....
....|..|C-4 AF.7 ....|F#5 6F.F ....|B-3 3FE7 ....
....|..|G-2 2F.7 ....|--- .... ....|--- .... ....
....|..|C-4 AF.F ....|B-4 UFFF ....|--- .... ....
..1B|..|A-2 2C.F ....|C#5 UFFF ....|--- .... ....
....|..|C-4 CF.F ....|B-4 UFFF ....|F#4 3FE7 ....
..1B|..|A-2 2C.F ....|--- .... ....|--- .... ....
....|..|--- .... ....|A#4 UFFF ....|F#4 3FE7 ....
....|..|--- .... ....|--- .... ....|--- .... ....
....|..|C-4 AF.F ....|D-5 6F.F ....|F#4 3FE7 ....
...F|..|G-2 2A.F ....|--- .... ....|--- .... ....
....|..|C-4 AF.7 ....|C#5 UFFF ....|F#4 3FE7 ....
....|..|D-2 2F.7 ....|--- .... ....|--- .... ....
....|..|C-4 LF.F ....|F#5 6F.F ....|F#4 3FE7 ....
..10|..|F#2 2A.F ....|--- .... ....|--- .... ....
....|..|C-4 AF.A ....|A-5 6F.F ....|--- .... ....
....|..|A-2 2F.A ....|C#5 UFFA ....|--- .... ....
....|..|F#2 2F.7 ....|F#5 6F.F ....|--- .... ....
....|..|A-2 2F.A ....|--- .... ....|--- .... ....
....|..|C-4 AF.F ....|A-5 6F.F ....|C#4 3FE7 ....
..15|..|C#2 2A.F ....|--- .... ....|--- .... ....
....|..|C-4 CF.F ....|F#5 6F.F ....|--- .... ....
..10|..|F#2 2A.F ....|--- .... ....|--- .... ....
....|..|--- .... ....|A-5 6F.F ....|R-- .... ....
....|..|--- .... ....|--- .... ....|--- .... ....
....|..|C-4 AF.F ....|F#5 6F.F ....|D-4 3FEF ....
..10|..|F#2 2A.F ....|--- .... ....|--- .... ....
....|..|C-4 AF.F ....|A-5 6F.F ....|D-4 3FEF ....
..1B|..|A-2 2C.F ....|C#5 UFF7 ....|--- .... ....
....|..|C-4 CF.7 ....|B-4 UFF7 ....|D-4 3FEF ....
....|..|A-2 2F.7 ....|--- .... ....|--- .... ....
....|..|C-4 AF.A ....|A#4 UFF7 ....|--- .... ....
....|..|C#2 2F.A ....|--- .... ....|--- .... ....
....|..|C-4 AF.7 ....|D-5 6F.7 ....|--- .... ....
....|..|G-2 2F.7 ....|--- .... ....|--- .... ....
....|..|--- .... ....|C#5 UFF7 ....|B-3 3FEF ....
....|..|--- .... ....|--- .... ....|--- .... ....
....|..|C-4 LF.7 ....|F#5 6F.7 ....|D-4 3FEA ....
....|..|F#2 2F.7 ....|--- .... ....|--- .... ....
....|..|C-4 AF.A ....|A-5 6F.7 ....|D-4 3FEA ....
....|..|A-2 2F.A ....|--- .... ....|--- .... ....
....|..|R-- .... ....|F#5 6F.7 ....|D-4 3FEA ....
....|..|--- .... ....|--- .... ....|--- .... ....
....|..|C-4 AF.7 ....|A-5 6F.7 ....|--- .... ....
....|..|C#2 2F.7 ....|--- .... ....|--- .... ....

[Pattern57]
....|..|C-4 CF.7 ....|F#5 6F.7 ....|--- .... ....
....|..|F#2 2F.7 ....|--- .... ....|--- .... ....
....|..|--- .... ....|A-5 6F.7 ....|B-3 3FEA ....
....|..|--- .... ....|--- .... ....|--- .... ....
....|..|C-4 AF.7 ....|F#5 6F.7 ....|D-4 3FE7 ....
....|..|F#2 2F.7 ....|--- .... ....|--- .... ....
....|..|C-4 AF.7 ....|A-5 6F.7 ....|D-4 3FE7 ....
....|..|A-2 2F.7 ....|--- .... ....|--- .... ....
....|..|R-- .... ....|R-- .... ....|D-4 3FE7 ....
....|..|--- .... ....|--- .... ....|--- .... ....
....|..|--- .... ....|--- .... ....|--- .... ....
....|..|--- .... ....|--- .... ....|--- .... ....
....|..|--- .... ....|--- .... ....|--- .... ....
....|..|--- .... ....|--- .... ....|--- .... ....
....|..|--- .... ....|--- .... ....|B-3 3FE7 ....
....|..|--- .... ....|--- .... ....|--- .... ....
....|..|--- .... ....|--- .... ....|--- .... ....
....|..|--- .... ....|--- .... ....|--- .... ....
....|..|--- .... ....|--- .... ....|R-- .... ....
....|..|--- .... ....|--- .... ....|--- .... ....
....|..|--- .... ....|--- .... ....|--- .... ....
....|..|--- .... ....|--- .... ....|--- .... ....
....|..|--- .... ....|--- .... ....|--- .... ....
....|..|--- .... ....|--- .... ....|--- .... ....
....|..|--- .... ....|--- .... ....|--- .... ....
....|..|--- .... ....|--- .... ....|--- .... ....
....|..|--- .... ....|--- .... ....|--- .... ....
....|..|--- .... ....|--- .... ....|--- .... ....
....|..|--- .... ....|--- .... ....|--- .... ....
....|..|--- .... ....|--- .... ....|--- .... ....
....|..|--- .... ....|--- .... ....|R-- .... ....
....|..|--- .... ....|--- .... ....|--- .... ....
....|..|--- .... ....|--- .... ....|--- .... ....
....|..|--- .... ....|--- .... ....|--- .... ....
....|..|--- .... ....|--- .... ....|--- .... ....
....|..|--- .... ....|--- .... ....|--- .... ....
....|..|--- .... ....|--- .... ....|E-4 3FEF ....
....|..|--- .... ....|--- .... ....|--- .... ....
....|..|--- .... ....|--- .... ....|--- .... ....
....|..|--- .... ....|--- .... ....|--- .... ....
....|..|--- .... ....|--- .... ....|--- .... ....
....|..|--- .... ....|--- .... ....|--- .... ....
....|..|--- .... ....|--- .... ....|--- .... ....
....|..|--- .... ....|--- .... ....|--- .... ....
....|..|--- .... ....|--- .... ....|R-- .... ....
....|..|--- .... ....|--- .... ....|--- .... ....
....|..|--- .... ....|--- .... ....|--- .... ....
....|..|--- .... ....|--- .... ....|--- .... ....
....|..|--- .... ....|--- .... ....|E-4 3FEA ....
....|..|--- .... ....|--- .... ....|--- .... ....
....|..|--- .... ....|--- .... ....|--- .... ....
....|..|--- .... ....|--- .... ....|--- .... ....
....|..|--- .... ....|--- .... ....|--- .... ....
....|..|--- .... ....|--- .... ....|--- .... ....
....|..|--- .... ....|--- .... ....|--- .... ....
....|..|--- .... ....|--- .... ....|--- .... ....
....|..|--- .... ....|--- .... ....|R-- .... ....
....|..|--- .... ....|--- .... ....|--- .... ....
....|..|--- .... ....|--- .... ....|--- .... ....
....|..|--- .... ....|--- .... ....|--- .... ....
....|..|--- .... ....|--- .... ....|E-4 3FE7 ....
....|..|--- .... ....|--- .... ....|--- .... ....
....|..|--- .... ....|--- .... ....|--- .... ....
....|..|--- .... ....|--- .... ....|--- .... ....

[Pattern58]
....|..|--- .... ....|--- .... ....|--- .... ....
....|..|--- .... ....|--- .... ....|--- .... ....
....|..|--- .... ....|--- .... ....|--- .... ....
....|..|--- .... ....|--- .... ....|--- .... ....

