[Module]
VortexTrackerII=0
Version=3.5
Title=1d-2me-3me,6m,7m+-8p-4p+-5p+-9p+-6me+
Author=oisee ^ 4d 29.05.2010
NoteTable=4
ChipFreq=1750000
Speed=3
PlayOrder=L0,1,2,3,4,5,6,7,8,9,10,11,12,13,14,15,16,17,18,19,20,21,22,23,24,25,26,27,28,29,30,31,32,33,34,35,36,17,18,19,20,21,22,23,24,25,26,27,48,27,50,51,52,53,54,55,56,57,58,59,60,61,62,19,20,21,66,67,68,69,70,71,72,73

[Ornament1]
L0,0,4,4,7,7

[Ornament2]
L0,0,4,4

[Ornament3]
L0,0,3,3,7,7

[Ornament4]
L0,0,7,7

[Ornament5]
L0,0,5,5,8,8

[Ornament6]
L0,0,3,3,8,8

[Ornament7]
L0,0,4,4,9,9

[Ornament8]
L0,0,5,5

[Ornament9]
L0,0,2,2,7,7

[Ornament10]
L0,0,12,12

[Ornament11]
L0,0,3,3

[Ornament12]
L0,0,2,2

[Ornament13]
L0,0,1,1

[Ornament14]
L0

[Ornament15]
L0

[Sample1]
TnE +000_ +00_ F_
TnE +000_ +00_ F_
TnE +000_ +00_ F_
TnE +000_ +00_ D_
TnE +000_ +00_ B_
TnE +000_ +00_ B_ L

[Sample2]
TnE +000_ +00_ F_ L

[Sample3]
TnE +001_ +00_ F_
TnE +002_ +00_ F_
TnE +001_ +00_ E_
TnE +002_ +00_ E_
TnE +000_ +00_ E_ L
TnE -001_ +00_ E_
TnE -002_ +00_ E_
TnE -001_ +00_ E_
TnE +000_ +00_ E_
TnE +001_ +00_ E_
TnE +002_ +00_ E_
TnE +001_ +00_ E_

[Sample4]
TnE +002_ +00_ D_
TnE +002_ +00_ D_
TnE +002_ +00_ C_
TnE +002_ +00_ B_
TnE +002_ +00_ A_ L
TnE +002_ +00_ A_
TnE +002_ +00_ A_
TnE +002_ +00_ A_
TnE +002_ +00_ A_
TnE +002_ +00_ A_
TnE +002_ +00_ A_
TnE +002_ +00_ A_

[Sample5]
TnE +000_ +00_ F_
TnE +000_ +00_ F_
tne +000_ +00_ 0_ L

[Sample6]
TnE -001_ +00_ F_ L

[Sample7]
TnE +006_ +00_ F_ L

[Sample8]
tNe +000_ +00_ F_
tNe +000_ +00_ B_
tNe +000_ +00_ 7_
tNe +000_ +00_ 6- L

[Sample9]
TnE +080_ +00_ F_
TnE +100_ +00_ E_
TnE +180_ +00_ E_
TnE +200_ +00_ E_
TnE +240_ +00_ D_
TnE +280_ +00_ D_
TnE +2C0_ +00_ D_
TnE +300_ +00_ C_
TnE +300_ +00_ C_
TnE +340_ +00_ C_
TnE +340_ +00_ C_
TnE +380_ +00_ B_
TnE +380_ +00_ B_
TnE +400_ +00_ B_
TnE +400_ +00_ B_
TnE +480_ +00_ A_
TnE +500_ +00_ 9_
TnE +580_ +00_ 7_
TnE +600_ +00_ 4_
TnE +680_ +00_ 1_
TnE +000_ +00_ 0_ L

[Sample10]
Tne +1C0_ +00_ F_
Tne +280_ +00_ E_
Tne +380_ +00_ C_
Tne +440_ +00_ A_
Tne +480_ +00_ 8_
TnE +000_ +00_ 0_ L

[Sample11]
TNe +200_ -0A_ F_
tNe +000_ +0F_ A_
TNe +200_ -07_ E_
tNe +000_ +0E_ B- L

[Sample12]
TNE +0A0_ +05_ F_
TNE +140_ +02_ D_
TNE +140_ +02_ B_
TNE +100_ +00_ A_ L
TNE +140_ +00_ A_
TNE +200_ +00_ A-

[Sample13]
Tne +200_ +00_ F_
Tne +2C0_ +00_ F_
Tne +380_ +00_ E_
Tne +500_ +00_ C_
Tne +520_ +00_ 9_
tne +000_ +00_ 0_ L

[Sample14]
TNE -100_ +00_ F_
TNE -100_ +00_ D_
TNE -100_ +00_ A_
TNE -100_ +00_ 5_
tne +000_ +00_ 0_ L

[Sample15]
TNE -100_ +00_ 5_
TNE -100_ +00_ 8_
TNE -100_ +00_ B_
TNE -100_ +00_ F_
TNe -100_ +00_ 9- L

[Sample16]
TnE +000_ +00_ C_
TnE +000_ +00_ E_
TnE +000_ +00_ F_
TnE +000_ +00_ F_
TnE +000_ +00_ E_
TnE +000_ +00_ D_
TnE +000_ +00_ C_
TnE +000_ +00_ C_ L
TnE +001_ +00_ C_
TnE +002_ +00_ C_
TnE +003_ +00_ C_
TnE +001_ +00_ C_
TnE +000_ +00_ C_
TnE -001_ +00_ C_
TnE -002_ +00_ C_
TnE -003_ +00_ C_
TnE -001_ +00_ C_
TnE +000_ +00_ C_
TnE +000_ +00_ C_

[Sample17]
Tne +1C0_ +00_ F_
Tne +280_ +00_ D_
Tne +380_ +00_ 7_
TNE +000_ +00_ 0_ L

[Sample18]
TnE -00C_ +00_ 0_ L

[Sample19]
TNe +000_ +00_ F_
TNe +000_ +00_ C_
TNe +000_ +00_ 6_
TNe +000_ +01_ A- L

[Sample20]
TNE +140_ +00_ F_
tNE +000_ +00_ B- L

[Sample21]
tNE +000_ +00_ D_
tNE +000_ +00_ 8_
tNE +000_ +00_ 1_
TNE +000_ +00_ 0_ L

[Sample22]
TnE +000_ +00_ D_ L
TnE +000_ +00_ D_
tne +000_ +00_ 9_
tne +000_ +00_ 9_
TnE +000_ +00_ D_
TnE +000_ +00_ D_
tne +000_ +00_ 9_
tne +000_ +00_ 9_
TnE +000_ +00_ D_
TnE +000_ +00_ D_
TnE +000_ +00_ D_
TnE +000_ +00_ D_
TnE +000_ +00_ D_
TnE +000_ +00_ D_
tne +000_ +00_ 9_
tne +000_ +00_ 9_

[Sample23]
TnE +000_ +00_ F_ L
TnE +010_ +01_ F_
TnE +010_ +01_ F_
TnE +010_ +01_ F_
TnE +010_ +01_ F_
TnE +000_ +00_ F_
TnE +000_ +00_ F_
TnE -010_ -01_ F_
TnE -010_ -01_ F_
TnE -010_ -01_ F_
TnE -010_ -01_ F_
TnE +000_ +00_ F_

[Sample24]
TNe +000_ -01_ C_
TNe +000_ -01_ D_
TNe +000_ -01_ E_
TNe +000_ -01_ F_
TNe +000_ -01_ F_
TNe +000_ -01_ F_
TNe +000_ -01_ F_
TNe +000_ -01_ F_
TNe +000_ -01_ E_
TNe +000_ -01_ E_
TNe +000_ -01_ E_
TNe +000_ -01_ F_
TNe +000_ -01_ F_ L

[Sample25]
TNE +000_ +00_ F_
TNE +000_ +00_ F_ L
TNE +000_ +00_ F_
TNE +000_ +00_ F_
TNE +000_ +00_ F-

[Sample26]
tne +000_ +00_ 0_ L

[Sample27]
TnE +100_ +05_ F_
TnE +200_ +02_ A_
TnE +300_ +02_ 7_
TNE +400_ +00_ 3- L

[Sample28]
tne +000_ +00_ 0_ L

[Sample29]
tnE +000_ +00_ 0_ L

[Sample30]
TNE +000_ +00_ C+ L

[Sample31]
TNe +1C0_ +00_ F_
Tne +280_ +00_ E_
Tne +380_ +00_ C_
Tne +440_ +00_ A_
Tne +480_ +00_ 8_
TnE +000_ +00_ 0_ L

[Pattern0]
..2D|..|--- .... ....|C-5 2F.F ....|C-5 2C.F ....
....|..|--- .... ....|--- .... ....|--- .... ....
....|..|--- .... ....|--- .... ....|--- .... ....
....|..|--- .... ....|--- .... ....|--- .... ....
..14|..|--- .... ....|D-5 2F.F ....|D-5 2C.F ....
....|..|--- .... ....|--- .... ....|--- .... ....
....|..|--- .... ....|--- .... ....|--- .... ....
....|..|--- .... ....|--- .... ....|--- .... ....
..12|..|--- .... ....|E-5 2F.F ....|E-5 2C.F ....
....|..|--- .... ....|--- .... ....|--- .... ....
....|..|--- .... ....|--- .... ....|--- .... ....
....|..|--- .... ....|--- .... ....|--- .... ....
..2D|..|--- .... ....|C-5 2F.F ....|C-5 2C.F ....
....|..|--- .... ....|--- .... ....|--- .... ....
....|..|--- .... ....|--- .... ....|--- .... ....
....|..|--- .... ....|--- .... ....|--- .... ....
..11|..|F-2 2A.F ....|F-5 2F.F ....|F-4 2F1F ....
....|..|--- .... ....|--- .... ....|--- .... ....
....|..|--- .... ....|--- .... ....|R-- .... ....
....|..|--- .... ....|--- .... ....|--- .... ....
....|..|--- .... ....|E-5 2F.A ....|F-4 2F1F ....
....|..|--- .... ....|--- .... ....|--- .... ....
....|..|--- .... ....|--- .... ....|R-- .... ....
....|..|--- .... ....|--- .... ....|--- .... ....
....|..|--- .... ....|C-5 2F.7 ....|F-4 2F1F ....
....|..|--- .... ....|--- .... ....|--- .... ....
....|..|--- .... ....|--- .... ....|R-- .... ....
....|..|--- .... ....|--- .... ....|--- .... ....
....|..|F-2 2F.A ....|E-5 2F.F ....|F-4 2F1F ....
....|..|--- .... ....|--- .... ....|--- .... ....
....|..|--- .... ....|--- .... ....|R-- .... ....
....|..|--- .... ....|--- .... ....|--- .... ....
....|..|--- .... ....|F-5 2F.F ....|A-3 2FAF ....
....|..|--- .... ....|--- .... ....|--- .... ....
....|..|--- .... ....|--- .... ....|R-- .... ....
....|..|--- .... ....|--- .... ....|R-- .... ....
....|..|--- .... ....|E-5 2F.F ....|F-4 2F1F ....
....|..|--- .... ....|--- .... ....|--- .... ....
....|..|--- .... ....|--- .... ....|R-- .... ....
....|..|--- .... ....|--- .... ....|--- .... ....
....|..|F-2 2F.7 ....|D-5 2F.F ....|F-4 2F1F ....
....|..|--- .... ....|--- .... ....|--- .... ....
....|..|--- .... ....|--- .... ....|R-- .... ....
....|..|--- .... ....|--- .... ....|--- .... ....
....|..|--- .... ....|F-5 2F.A ....|F-4 2F1F ....
....|..|--- .... ....|--- .... ....|--- .... ....
..11|..|F-2 2A.F ....|--- .... ....|R-- .... ....
....|..|R-- .... ....|--- .... ....|R-- .... ....
...F|..|G-2 2A.F ....|E-5 2F.A ....|G-4 2F1F ....
....|..|--- .... ....|--- .... ....|--- .... ....
....|..|--- .... ....|--- .... ....|R-- .... ....
....|..|--- .... ....|--- .... ....|--- .... ....
....|..|--- .... ....|E-5 2F.7 ....|G-4 2F1F ....
....|..|--- .... ....|--- .... ....|--- .... ....
....|..|--- .... ....|--- .... ....|R-- .... ....
....|..|--- .... ....|--- .... ....|--- .... ....
....|..|--- .... ....|F-5 2F.7 ....|G-4 2F1F ....
....|..|--- .... ....|--- .... ....|--- .... ....
....|..|F-2 2F.A ....|--- .... ....|R-- .... ....
....|..|R-- .... ....|--- .... ....|R-- .... ....
....|..|G-2 2F.A ....|B-4 2F.F ....|G-4 2F1F ....
....|..|--- .... ....|--- .... ....|--- .... ....
....|..|--- .... ....|--- .... ....|R-- .... ....
....|..|--- .... ....|--- .... ....|--- .... ....

[Pattern1]
..2D|..|--- .... ....|C-5 2F.F ....|C-5 2C.F ....
....|..|--- .... ....|--- .... ....|--- .... ....
....|..|--- .... ....|--- .... ....|R-- .... ....
....|..|--- .... ....|--- .... ....|--- .... ....
....|..|--- .... ....|R-- .... ....|G-4 2F1F ....
....|..|--- .... ....|--- .... ....|--- .... ....
....|..|F-2 2F.7 ....|--- .... ....|R-- .... ....
....|..|R-- .... ....|--- .... ....|--- .... ....
....|..|G-2 2F.7 ....|D-5 2F.F ....|G-4 2F1F ....
....|..|--- .... ....|--- .... ....|--- .... ....
....|..|--- .... ....|--- .... ....|R-- .... ....
....|..|--- .... ....|--- .... ....|--- .... ....
....|..|--- .... ....|R-- .... ....|G-4 2F1F ....
....|..|--- .... ....|--- .... ....|--- .... ....
....|..|R-- .... ....|--- .... ....|R-- .... ....
....|..|--- .... ....|--- .... ....|--- .... ....
...E|..|G#2 2A.F ....|E-5 2F.F ....|G#4 2F6F ....
....|..|--- .... ....|--- .... ....|--- .... ....
....|..|--- .... ....|--- .... ....|R-- .... ....
....|..|--- .... ....|--- .... ....|--- .... ....
....|..|--- .... ....|B-4 2F.7 ....|G#4 2F6F ....
....|..|--- .... ....|--- .... ....|--- .... ....
....|..|--- .... ....|--- .... ....|R-- .... ....
....|..|--- .... ....|--- .... ....|--- .... ....
....|..|--- .... ....|C-5 2F.7 ....|G#4 2F6F ....
....|..|--- .... ....|--- .... ....|--- .... ....
....|..|R-- .... ....|R-- .... ....|R-- .... ....
..12|..|--- .F.. ....|E-5 2F.F ....|E-5 2C.F ....
....|..|G#2 2F.A ....|E-5 2F.A ....|G#4 2F6F ....
....|..|--- .... ....|R-- .... ....|R-- .... ....
....|..|--- .... ....|--- .... ....|R-- .... ....
..12|..|--- .... ....|E-5 2F.F ....|E-5 2C.F ....
....|..|--- .... ....|D-5 2F.7 ....|G-4 2F17 ....
....|..|--- .... ....|--- .... ....|--- .... ....
....|..|--- .... ....|--- .... ....|R-- .... ....
....|..|--- .... ....|R-- .... ....|R-- .... ....
....|..|--- .... ....|D-5 2F.F ....|G#4 2F6F ....
....|..|--- .... ....|--- .... ....|--- .... ....
....|..|R-- .... ....|R-- .... ....|R-- .... ....
....|..|--- .... ....|E-5 2F.A ....|E-5 2F.A ....
....|..|G#2 2F.7 ....|E-5 2F.7 ....|G#4 2F6F ....
....|..|--- .... ....|R-- .... ....|R-- .... ....
....|..|--- .... ....|R-- .... ....|R-- .... ....
....|..|--- .... ....|E-5 2F.A ....|E-5 2F.A ....
....|..|--- .... ....|C-5 2F.F ....|G#4 2F6F ....
....|..|--- .... ....|--- .... ....|--- .... ....
....|..|R-- .... ....|--- .... ....|R-- .... ....
....|..|--- .... ....|R-- .... ....|R-- .... ....
..1B|..|A-2 2C.F ....|D-5 2F.A ....|A-4 2F3F ....
....|..|--- .... ....|--- .... ....|--- .... ....
....|..|--- .... ....|R-- .... ....|R-- .... ....
....|..|--- .... ....|E-5 2F.7 ....|E-5 2F.7 ....
....|..|--- .... ....|--- .... ....|A-4 2F3F ....
....|..|--- .... ....|R-- .... ....|R-- .... ....
....|..|--- .... ....|R-- .... ....|R-- .... ....
....|..|--- .... ....|E-5 2F.7 ....|E-5 2F.7 ....
....|..|--- .... ....|C-5 2F.A ....|A-4 2F3F ....
....|..|--- .... ....|--- .... ....|--- .... ....
....|..|R-- .... ....|--- .... ....|R-- .... ....
....|..|--- .... ....|R-- .... ....|R-- .... ....
....|..|A-2 2F.A ....|D-5 2F.7 ....|A-4 2F3F ....
....|..|--- .... ....|--- .... ....|--- .... ....
....|..|--- .... ....|--- .... ....|R-- .... ....
....|..|--- .... ....|--- .... ....|--- .... ....

[Pattern2]
....|..|--- .... ....|C-5 2F.F ....|C-4 2FAF ....
....|..|--- .... ....|--- .... ....|--- .... ....
....|..|--- .... ....|R-- .... ....|R-- .... ....
....|..|--- .... ....|--- .... ....|--- .... ....
....|..|--- .... ....|D-5 2F.F ....|A-4 2F3F ....
....|..|--- .... ....|--- .... ....|--- .... ....
....|..|R-- .... ....|--- .... ....|R-- .... ....
....|..|--- .... ....|--- .... ....|--- .... ....
....|..|A-2 2F.7 ....|E-5 2F.F ....|A-4 2F3F ....
....|..|--- .... ....|--- .... ....|--- .... ....
....|..|--- .... ....|--- .... ....|R-- .... ....
....|..|--- .... ....|--- .... ....|--- .... ....
....|..|--- .... ....|C-5 2F.F ....|A-4 2F3F ....
....|..|--- .... ....|--- .... ....|--- .... ....
....|..|--- .... ....|R-- .... ....|R-- .... ....
....|..|--- .... ....|--- .... ....|R-- .... ....
....|..|C-4 AF.F ....|F-5 2F.F ....|F-4 2F1F ....
..22|..|F-1 2A.F ....|--- .... ....|--- .... ....
..11|..|F-2 2A.F ....|--- .... ....|R-- .... ....
....|..|--- .... ....|--- .... ....|--- .... ....
..22|..|F-1 2A.F ....|E-5 2F.A ....|F-4 2F1F ....
....|..|--- .... ....|--- .... ....|--- .... ....
....|..|--- .... ....|--- .... ....|R-- .... ....
....|..|--- .... ....|--- .... ....|--- .... ....
....|..|C-4 AF.F ....|C-5 2F.7 ....|F-4 2F1F ....
....|..|R-- .... ....|--- .... ....|--- .... ....
....|..|--- .... ....|--- .... ....|R-- .... ....
....|..|--- .... ....|--- .... ....|R-- .... ....
..22|..|F-1 2A.F ....|E-5 2F.F ....|F-4 2F1F ....
....|..|F-1 2F.A ....|--- .... ....|--- .... ....
....|..|R-- .... ....|--- .... ....|R-- .... ....
....|..|--- .... ....|--- .... ....|--- .... ....
....|..|C-4 AF.F ....|F-5 2F.F ....|A-3 2FAF ....
....|..|R-- .... ....|--- .... ....|--- .... ....
....|..|--- .... ....|--- .... ....|R-- .... ....
....|..|--- .... ....|--- .... ....|R-- .... ....
..22|..|F-1 2A.F ....|E-5 2F.F ....|F-4 2F1F ....
....|..|R-- .... ....|--- .... ....|F-5 2F.F ....
....|..|--- .... ....|--- .... ....|R-- .... ....
....|..|--- .... ....|--- .... ....|R-- .... ....
....|..|C-4 AF.F ....|D-5 2F.F ....|F-4 2F1F ....
....|..|F-1 2F.7 ....|--- .... ....|A-5 2F.F ....
....|..|F-2 2F.7 ....|--- .... ....|R-- .... ....
....|..|--- .... ....|--- .... ....|--- .... ....
..22|..|F-1 2A.F ....|F-5 2F.A ....|F-4 2F1F ....
....|..|R-- .... ....|--- .... ....|F-5 2F.F ....
..11|..|F-2 2A.F ....|--- .... ....|R-- .... ....
....|..|R-- .... ....|--- .... ....|R-- .... ....
....|..|C-4 AF.F ....|E-5 2F.A ....|G-4 2F1F ....
..1E|..|G-1 2A.F ....|--- .... ....|F-5 2F.A ....
...F|..|G-2 2A.F ....|--- .... ....|R-- .... ....
....|..|--- .... ....|--- .... ....|--- .... ....
..1E|..|G-1 2A.F ....|E-5 2F.7 ....|G-4 2F1F ....
....|..|R-- .... ....|--- .... ....|A-5 2F.A ....
....|..|R-- .... ....|--- .... ....|R-- .... ....
....|..|--- .... ....|--- .... ....|--- .... ....
....|..|C-4 AF.F ....|F-5 2F.7 ....|G-4 2F1F ....
....|..|R-- .... ....|--- .... ....|F-5 2F.A ....
....|..|F-2 2F.A ....|--- .... ....|R-- .... ....
....|..|R-- .... ....|--- .... ....|R-- .... ....
..1E|..|G-1 2A.F ....|B-4 2F.F ....|G-4 2F1F ....
....|..|G-1 2F.A ....|--- .... ....|F-5 2F.7 ....
....|..|R-- .... ....|--- .... ....|R-- .... ....
....|..|--- .... ....|--- .... ....|--- .... ....

[Pattern3]
....|..|C-4 AF.F ....|C-5 2F.F ....|C-4 2F.F ....
....|..|R-- .... ....|--- .... ....|A-5 2F.7 ....
....|..|--- .... ....|--- .... ....|R-- .... ....
....|..|--- .... ....|--- .... ....|--- .... ....
..1E|..|G-1 2A.F ....|R-- .... ....|G-4 2F1F ....
....|..|R-- .... ....|--- .... ....|F-5 2F.7 ....
....|..|F-2 2F.7 ....|--- .... ....|R-- .... ....
....|..|R-- .... ....|--- .... ....|--- .... ....
....|..|C-4 AF.F ....|D-5 2F.F ....|G-4 2F1F ....
....|..|G-1 2F.7 ....|--- .... ....|--- .... ....
....|..|G-2 2F.7 ....|--- .... ....|R-- .... ....
....|..|--- .... ....|--- .... ....|--- .... ....
..1E|..|G-1 2A.F ....|R-- .... ....|G-4 2F1F ....
....|..|R-- .... ....|--- .... ....|--- .... ....
....|..|R-- .... ....|--- .... ....|R-- .... ....
....|..|--- .... ....|--- .... ....|--- .... ....
....|..|C-4 AF.F ....|E-5 2F.F ....|G#4 2F6F ....
..1C|..|G#1 2A.F ....|--- .... ....|--- .... ....
...E|..|G#2 2A.F ....|--- .... ....|R-- .... ....
....|..|--- .... ....|--- .... ....|--- .... ....
..1C|..|G#1 2A.F ....|B-4 2F.7 ....|G#4 2F6F ....
....|..|R-- .... ....|--- .... ....|--- .... ....
....|..|R-- .... ....|--- .... ....|R-- .... ....
....|..|--- .... ....|--- .... ....|--- .... ....
....|..|C-4 AF.F ....|C-5 2F.7 ....|G#4 2F6F ....
....|..|R-- .... ....|--- .... ....|--- .... ....
....|..|R-- .... ....|R-- .... ....|R-- .... ....
..12|..|--- .... ....|E-5 2F.F ....|E-5 2C.F ....
..1C|..|G#1 2A.F ....|E-5 2F.A ....|G#4 2F6F ....
....|..|G#1 2F.A ....|R-- .... ....|R-- .... ....
....|..|R-- .... ....|--- .... ....|R-- .... ....
..12|..|--- .... ....|E-5 2F.F ....|E-5 2C.F ....
....|..|C-4 AF.F ....|D-5 2F.7 ....|G-4 2F17 ....
....|..|R-- .... ....|--- .... ....|--- .... ....
....|..|--- .... ....|--- .... ....|R-- .... ....
....|..|--- .... ....|R-- .... ....|R-- .... ....
..1C|..|G#1 2A.F ....|D-5 2F.F ....|G#4 2F6F ....
....|..|R-- .... ....|--- .... ....|--- .... ....
....|..|R-- .... ....|R-- .... ....|R-- .... ....
....|..|--- .... ....|E-5 2F.A ....|E-5 2F.A ....
....|..|C-4 AF.F ....|E-5 2F.7 ....|G#4 2F6F ....
....|..|G#1 2F.7 ....|R-- .... ....|R-- .... ....
....|..|G#2 2F.7 ....|R-- .... ....|R-- .... ....
....|..|--- .... ....|E-5 2F.A ....|E-5 2F.A ....
..1C|..|G#1 2A.F ....|C-5 2F.F ....|G#4 2F6F ....
....|..|R-- .... ....|--- .... ....|--- .... ....
....|..|R-- .... ....|--- .... ....|R-- .... ....
....|..|--- .... ....|R-- .... ....|R-- .... ....
....|..|C-4 AF.F ....|D-5 2F.A ....|A-4 2F3F ....
..1B|..|A-1 2A.F ....|--- .... ....|--- .... ....
..1B|..|A-2 2C.F ....|R-- .... ....|R-- .... ....
....|..|R-- .... ....|E-5 2F.7 ....|E-5 2F.7 ....
..1B|..|A-1 2A.F ....|--- .... ....|A-4 2F3F ....
....|..|R-- .... ....|R-- .... ....|R-- .... ....
....|..|R-- .... ....|R-- .... ....|R-- .... ....
....|..|--- .... ....|E-5 2F.7 ....|E-5 2F.7 ....
....|..|C-4 AF.F ....|C-5 2F.A ....|A-4 2F3F ....
....|..|R-- .... ....|--- .... ....|--- .... ....
....|..|R-- .... ....|--- .... ....|R-- .... ....
....|..|--- .... ....|R-- .... ....|R-- .... ....
..1B|..|A-1 2A.F ....|D-5 2F.7 ....|A-4 2F3F ....
....|..|A-1 2F.A ....|--- .... ....|--- .... ....
....|..|A-2 2F.A ....|--- .... ....|R-- .... ....
....|..|R-- .... ....|--- .... ....|--- .... ....

[Pattern4]
....|..|C-4 AF.F ....|--- .... ....|C-4 2FAF ....
....|..|R-- .... ....|--- .... ....|--- .... ....
....|..|--- .... ....|R-- .... ....|R-- .... ....
....|..|--- .... ....|--- .... ....|--- .... ....
..1B|..|A-1 2A.F ....|C-5 2F.7 ....|A-4 2F3F ....
....|..|R-- .... ....|--- .... ....|--- .... ....
....|..|R-- .... ....|--- .... ....|R-- .... ....
....|..|--- .... ....|--- .... ....|--- .... ....
....|..|C-4 AF.F ....|--- .... ....|A-4 2F3F ....
....|..|A-1 2F.7 ....|--- .... ....|--- .... ....
....|..|A-2 2F.7 ....|--- .... ....|R-- .... ....
....|..|R-- .... ....|--- .... ....|--- .... ....
..1B|..|A-1 2A.F ....|--- .... ....|A-4 2F3F ....
....|..|R-- .... ....|--- .... ....|--- .... ....
....|..|R-- .... ....|R-- .... ....|R-- .... ....
....|..|--- .... ....|--- .... ....|R-- .... ....
..1B|..|F-1 2F.F ....|A-4 2F.F ....|A-4 2C.F ....
....|..|R-- .... ....|--- .... ....|--- .... ....
....|..|--- .... ....|--- .... ....|R-- .... ....
....|..|--- .... ....|R-- .... ....|R-- .... ....
..22|..|F-1 2A.F ....|--- .... ....|A-4 2F37 ....
....|..|R-- .... ....|--- .... ....|--- .... ....
....|..|--- .... ....|--- .... ....|R-- .... ....
....|..|R-- .... ....|--- .... ....|--- .... ....
..1B|..|F-1 2F.F ....|A-4 2F.F ....|A-4 2C.F ....
....|..|R-- .... ....|--- .... ....|--- .... ....
....|..|R-- .... ....|--- .... ....|R-- .... ....
....|..|--- .... ....|--- .... ....|R-- .... ....
....|..|A-1 2F.7 ....|A-4 2F.A ....|A-4 2F37 ....
....|..|R-- .... ....|--- .... ....|--- .... ....
....|..|--- .... ....|--- .... ....|R-- .... ....
....|..|--- .... ....|R-- .... ....|R-- .... ....
..12|..|F-1 2F.F ....|E-5 2F.F ....|E-5 2C.F ....
....|..|R-- .... ....|--- .... ....|--- .... ....
....|..|--- .... ....|--- .... ....|R-- .... ....
....|..|--- .... ....|R-- .... ....|R-- .... ....
..12|..|A-1 2F.7 ....|E-5 2F.F ....|E-5 2C.F ....
....|..|R-- .... ....|--- .... ....|--- .... ....
....|..|R-- .... ....|R-- .... ....|R-- .... ....
....|..|--- .... ....|--- .... ....|R-- .... ....
..11|..|F-1 2F.7 ....|F-5 2F.F ....|F-5 2C.F ....
....|..|R-- .... ....|--- .... ....|--- .... ....
....|..|--- .... ....|--- .... ....|--- .... ....
....|..|--- .... ....|R-- .... ....|R-- .... ....
..12|..|F-1 2F.7 ....|E-5 2F.F ....|E-5 2C.F ....
....|..|R-- .... ....|--- .... ....|--- .... ....
....|..|--- .... ....|--- .... ....|--- .... ....
....|..|--- .... ....|R-- .... ....|R-- .... ....
....|..|F-1 2F.7 ....|A-4 2F.7 ....|A-4 2F.7 ....
....|..|R-- .... ....|--- .... ....|--- .... ....
....|..|--- .... ....|R-- .... ....|R-- .... ....
....|..|--- .... ....|--- .... ....|--- .... ....
..1B|..|--- .... ....|A-4 2F.F ....|A-4 2C.F ....
....|..|--- .... ....|--- .... ....|--- .... ....
....|..|--- .... ....|R-- .... ....|R-- .... ....
....|..|--- .... ....|R-- .... ....|R-- .... ....
..1B|..|F-1 2F.7 ....|A-4 2F.F ....|A-4 2C.F ....
....|..|R-- .... ....|--- .... ....|--- .... ....
....|..|--- .... ....|--- .... ....|--- .... ....
....|..|--- .... ....|R-- .... ....|R-- .... ....
....|..|--- .... ....|E-5 2F.7 ....|E-5 2F.7 ....
....|..|--- .... ....|--- .... ....|--- .... ....
....|..|--- .... ....|R-- .... ....|R-- .... ....
....|..|--- .... ....|--- .... ....|--- .... ....

[Pattern5]
..12|..|--- .... ....|E-5 2F.F ....|E-5 2C.F ....
....|..|--- .... ....|--- .... ....|--- .... ....
....|..|--- .... ....|R-- .... ....|R-- .... ....
....|..|--- .... ....|--- .... ....|--- .... ....
..12|..|--- .... ....|E-5 2F.F ....|E-5 2C.F ....
....|..|--- .... ....|--- .... ....|--- .... ....
....|..|--- .... ....|R-- .... ....|R-- .... ....
....|..|--- .... ....|--- .... ....|--- .... ....
..11|..|--- .... ....|F-5 2F.F ....|F-5 2C.F ....
....|..|--- .... ....|--- .... ....|--- .... ....
....|..|--- .... ....|R-- .... ....|R-- .... ....
....|..|--- .... ....|--- .... ....|--- .... ....
..12|..|--- .... ....|E-5 2F.F ....|E-5 2C.F ....
....|..|--- .... ....|--- .... ....|--- .... ....
....|..|--- .... ....|R-- .... ....|R-- .... ....
....|..|--- .... ....|R-- .... ....|R-- .... ....
..1B|..|C-4 AF.F ....|A-4 2F.F ....|A-4 2C.F ....
....|..|R-- .... ....|--- .... ....|--- .... ....
....|..|--- .... ....|R-- .... ....|R-- .... ....
....|..|--- .... ....|R-- .... ....|R-- .... ....
....|..|B-8 JF.F ....|F-5 2F.A ....|F-5 2F.A ....
....|..|R-- .... ....|--- .... ....|--- .... ....
....|..|--- .... ....|R-- .... ....|R-- .... ....
....|..|--- .... ....|--- .... ....|--- .... ....
..1B|..|C-4 AF.F ....|A-4 2F.F ....|A-4 2C.F ....
....|..|R-- .... ....|--- .... ....|--- .... ....
....|..|--- .... ....|R-- .... ....|R-- .... ....
....|..|--- .... ....|R-- .... ....|R-- .... ....
....|..|B-8 JF.F ....|E-5 2F.7 ....|E-5 2F.7 ....
....|..|R-- .... ....|--- .... ....|--- .... ....
....|..|--- .... ....|R-- .... ....|R-- .... ....
....|..|--- .... ....|R-- .... ....|R-- .... ....
..12|..|C-4 AF.F ....|E-5 2F.F ....|E-5 2C.F ....
....|..|R-- .... ....|--- .... ....|--- .... ....
....|..|--- .... ....|--- .... ....|--- .... ....
....|..|--- .... ....|R-- .... ....|R-- .... ....
..12|..|B-8 JF.F ....|E-5 2F.F ....|E-5 2C.F ....
....|..|R-- .... ....|--- .... ....|--- .... ....
....|..|--- .... ....|R-- .... ....|R-- .... ....
....|..|--- .... ....|R-- .... ....|R-- .... ....
..11|..|C-4 AF.F ....|F-5 2F.F ....|F-5 2C.F ....
....|..|R-- .... ....|--- .... ....|--- .... ....
....|..|--- .... ....|--- .... ....|--- .... ....
....|..|--- .... ....|R-- .... ....|R-- .... ....
..12|..|B-8 JF.F ....|E-5 2F.F ....|E-5 2C.F ....
....|..|R-- .... ....|--- .... ....|--- .... ....
....|..|--- .... ....|--- .... ....|--- .... ....
....|..|--- .... ....|R-- .... ....|R-- .... ....
....|..|C-4 AF.F ....|A-4 2F.7 ....|A-4 2F.7 ....
....|..|R-- .... ....|--- .... ....|--- .... ....
....|..|--- .... ....|R-- .... ....|R-- .... ....
....|..|--- .... ....|--- .... ....|--- .... ....
..2D|..|B-8 JF.7 ....|C-5 2F.F ....|C-5 2C.F ....
....|..|R-- .... ....|R-- .... ....|R-- .... ....
....|..|--- .... ....|--- .... ....|--- .... ....
....|..|--- .... ....|R-- .... ....|R-- .... ....
..2D|..|C-4 AF.7 ....|C-5 2F.F ....|C-5 2C.F ....
....|..|R-- .... ....|--- .... ....|--- .... ....
....|..|--- .... ....|--- .... ....|--- .... ....
....|..|--- .... ....|R-- .... ....|R-- .... ....
..1B|..|B-8 JF.7 ....|A-4 2F.F ....|A-4 2C.F ....
....|..|R-- .... ....|--- .... ....|--- .... ....
....|..|--- .... ....|R-- .... ....|R-- .... ....
....|..|--- .... ....|--- .... ....|--- .... ....

[Pattern6]
..2D|..|C-4 AF.7 ....|C-5 2F.F ....|C-5 2C.F ....
....|..|R-- .... ....|R-- .... ....|R-- .... ....
....|..|--- .... ....|--- .... ....|--- .... ....
....|..|--- .... ....|--- .... ....|--- .... ....
....|..|B-8 JF.7 ....|E-5 2F.7 ....|E-5 2F.7 ....
....|..|R-- .... ....|R-- .... ....|R-- .... ....
....|..|--- .... ....|--- .... ....|--- .... ....
....|..|--- .... ....|R-- .... ....|R-- .... ....
..2D|..|C-4 AF.7 ....|C-5 2F.F ....|C-5 2C.F ....
....|..|R-- .... ....|--- .... ....|--- .... ....
....|..|--- .... ....|--- .... ....|--- .... ....
....|..|--- .... ....|--- .... ....|--- .... ....
....|..|--- .... ....|C-5 2F.7 ....|C-5 2F.7 ....
....|..|--- .... ....|R-- .... ....|R-- .... ....
....|..|--- .... ....|--- .... ....|--- .... ....
....|..|--- .... ....|--- .... ....|--- .... ....
..1B|..|C-4 AF.F ....|A-4 2F.F ....|A-4 2C.F ....
..1B|..|A-1 2A.F ....|R-- .... ....|R-- .... ....
..36|..|A-1 2A.F ....|--- .... ....|--- .... ....
....|..|R-- .... ....|R-- .... ....|R-- .... ....
..1B|..|A-1 2A.F ....|A-4 2F.7 ....|A-1 2F.F ....
..1B|..|A-1 2A.F ....|--- .... ....|--- .... ....
....|..|R-- .... ....|--- .... ....|R-- .... ....
....|..|--- .... ....|--- .... ....|--- .... ....
....|..|C-4 AF.F ....|A-4 2F.F ....|C-2 2F.F ....
..16|..|C-2 2A.F ....|--- .... ....|--- .... ....
..16|..|C-2 2A.F ....|--- .... ....|R-- .... ....
....|..|R-- .... ....|--- .... ....|--- .... ....
..16|..|C-2 2A.F ....|A-4 2F.A ....|C-2 2F.F ....
..16|..|C-2 2A.F ....|R-- .... ....|R-- .... ....
....|..|R-- .... ....|--- .... ....|R-- .... ....
....|..|R-- .... ....|R-- .... ....|R-- .... ....
....|..|C-4 AF.F ....|E-5 2F.F ....|E-2 2F.F ....
..12|..|E-2 2A.F ....|--- .... ....|--- .... ....
..12|..|E-2 2A.F ....|--- .... ....|R-- .... ....
....|..|R-- .... ....|R-- .... ....|R-- .... ....
..12|..|E-2 2A.F ....|E-5 2F.F ....|E-2 2F.F ....
..12|..|E-2 2A.F ....|--- .... ....|--- .... ....
....|..|R-- .... ....|R-- .... ....|R-- .... ....
....|..|R-- .... ....|--- .... ....|--- .... ....
....|..|C-4 AF.F ....|F-5 2F.F ....|F-2 2F.F ....
..11|..|F-2 2A.F ....|--- .... ....|--- .... ....
..11|..|F-2 2A.F ....|--- .... ....|R-- .... ....
....|..|R-- .... ....|R-- .... ....|R-- .... ....
..11|..|F-2 2A.F ....|E-5 2F.F ....|F-2 2F.F ....
..11|..|F-2 2A.F ....|--- .... ....|--- .... ....
....|..|R-- .... ....|--- .... ....|R-- .... ....
....|..|R-- .... ....|R-- .... ....|R-- .... ....
....|..|C-4 AF.F ....|A-4 2F.7 ....|C-2 2F.7 ....
..1B|..|A-1 2A.F ....|--- .... ....|--- .... ....
..36|..|A-1 2A.F ....|R-- .... ....|R-- .... ....
....|..|R-- .... ....|--- .... ....|--- .... ....
..1B|..|A-1 2A.F ....|A-4 2F.F ....|A-1 2F.F ....
..1B|..|A-1 2A.F ....|--- .... ....|--- .... ....
....|..|R-- .... ....|R-- .... ....|R-- .... ....
....|..|R-- .... ....|R-- .... ....|R-- .... ....
....|..|C-4 AF.F ....|A-4 2F.F ....|C-2 2F.F ....
..16|..|C-2 2A.F ....|--- .... ....|--- .... ....
..16|..|C-2 2A.F ....|--- .... ....|R-- .... ....
....|..|R-- .... ....|R-- .... ....|R-- .... ....
..16|..|C-2 2A.F ....|E-5 2F.7 ....|C-2 2F.F ....
..16|..|C-2 2A.F ....|--- .... ....|--- .... ....
....|..|R-- .... ....|R-- .... ....|R-- .... ....
....|..|R-- .... ....|--- .... ....|--- .... ....

[Pattern7]
....|..|C-4 AF.F ....|E-5 2F.F ....|E-2 2F.F ....
..12|..|E-2 2A.F ....|--- .... ....|--- .... ....
..12|..|E-2 2A.F ....|R-- .... ....|R-- .... ....
....|..|R-- .... ....|--- .... ....|--- .... ....
..12|..|E-2 2A.F ....|E-5 2F.F ....|E-2 2F.F ....
..12|..|E-2 2A.F ....|--- .... ....|--- .... ....
....|..|R-- .... ....|R-- .... ....|R-- .... ....
....|..|R-- .... ....|--- .... ....|--- .... ....
....|..|C-4 AF.F ....|F-5 2F.F ....|F-2 2F.F ....
..11|..|F-2 2A.F ....|--- .... ....|--- .... ....
..11|..|F-2 2A.F ....|R-- .... ....|R-- .... ....
....|..|R-- .... ....|--- .... ....|--- .... ....
..12|..|E-2 2A.F ....|E-5 2F.F ....|E-2 2F.F ....
..12|..|E-2 2A.F ....|--- .... ....|--- .... ....
....|..|R-- .... ....|R-- .... ....|R-- .... ....
....|..|R-- .... ....|R-- .... ....|R-- .... ....
..1B|..|C-4 AF.F ....|A-4 2F.F ....|A-4 2C.F ....
..1B|..|A-1 2A.F ....|--- .... ....|--- .... ....
..36|..|A-1 2A.F ....|R-- .... ....|R-- .... ....
....|..|R-- .... ....|R-- .... ....|R-- .... ....
..1B|..|A-1 2A.F ....|F-5 2F.A ....|A-1 2F.F ....
..1B|..|A-1 2A.F ....|--- .... ....|--- .... ....
....|..|R-- .... ....|R-- .... ....|R-- .... ....
....|..|R-- .... ....|--- .... ....|--- .... ....
....|..|C-4 AF.F ....|A-4 2F.F ....|C-2 2F.F ....
..16|..|C-2 2A.F ....|--- .... ....|--- .... ....
..16|..|C-2 2A.F ....|R-- .... ....|R-- .... ....
....|..|R-- .... ....|R-- .... ....|R-- .... ....
..16|..|C-2 2A.F ....|E-5 2F.7 ....|C-2 2F.F ....
..16|..|C-2 2A.F ....|--- .... ....|--- .... ....
....|..|R-- .... ....|R-- .... ....|R-- .... ....
....|..|R-- .... ....|R-- .... ....|R-- .... ....
....|..|C-4 AF.F ....|E-5 2F.F ....|E-2 2F.F ....
..12|..|E-2 2A.F ....|--- .... ....|--- .... ....
..12|..|E-2 2A.F ....|--- .... ....|R-- .... ....
....|..|R-- .... ....|R-- .... ....|R-- .... ....
..12|..|E-2 2A.F ....|E-5 2F.F ....|E-2 2F.F ....
..12|..|E-2 2A.F ....|--- .... ....|--- .... ....
....|..|R-- .... ....|R-- .... ....|R-- .... ....
....|..|R-- .... ....|R-- .... ....|R-- .... ....
....|..|C-4 AF.F ....|F-5 2F.F ....|F-2 2F.F ....
..11|..|F-2 2A.F ....|--- .... ....|--- .... ....
..11|..|F-2 2A.F ....|--- .... ....|R-- .... ....
....|..|R-- .... ....|R-- .... ....|R-- .... ....
..11|..|F-2 2A.F ....|E-5 2F.F ....|F-2 2F.F ....
..11|..|F-2 2A.F ....|--- .... ....|--- .... ....
....|..|R-- .... ....|--- .... ....|R-- .... ....
....|..|R-- .... ....|R-- .... ....|R-- .... ....
....|..|C-4 AF.F ....|A-4 2F.7 ....|C-2 2F.7 ....
..1E|..|G-1 2A.F ....|--- .... ....|--- .... ....
....|..|C-2 2F.7 ....|R-- .... ....|R-- .... ....
....|..|R-- .... ....|--- .... ....|--- .... ....
...F|..|G-2 2A.F ....|C-5 2F.F ....|G-2 2F.F ....
...F|..|G-2 2A.F ....|R-- .... ....|R-- .... ....
....|..|R-- .... ....|--- .... ....|R-- .... ....
....|..|R-- .... ....|R-- .... ....|R-- .... ....
..2D|..|C-4 AF.F ....|C-5 2F.F ....|C-5 2C.F ....
....|..|E-2 2F.7 ....|--- .... ....|R-- .... ....
....|..|E-2 2F.7 ....|--- .... ....|R-- .... ....
....|..|R-- .... ....|R-- .... ....|R-- .... ....
...F|..|G-2 2A.F ....|A-4 2F.F ....|G-2 2F.F ....
...F|..|G-2 2A.F ....|--- .... ....|--- .... ....
....|..|R-- .... ....|R-- .... ....|R-- .... ....
....|..|--- .... ....|--- .... ....|--- .... ....

[Pattern8]
..2D|..|C-4 AF.F ....|C-5 2F.F ....|C-5 2C.F ....
..1E|..|G-1 2A.F ....|R-- .... ....|R-- .... ....
....|..|F-2 2F.7 ....|--- .... ....|R-- .... ....
....|..|R-- .... ....|--- .... ....|--- .... ....
...F|..|G-2 2A.F ....|E-5 2F.7 ....|G-2 2F.F ....
...F|..|G-2 2A.F ....|R-- .... ....|R-- .... ....
....|..|R-- .... ....|--- .... ....|R-- .... ....
....|..|--- .... ....|R-- .... ....|R-- .... ....
..2D|..|C-4 AF.F ....|C-5 2F.F ....|C-5 2C.F ....
....|..|G-1 2F.7 ....|--- .... ....|--- .... ....
....|..|R-- .... ....|--- .... ....|R-- .... ....
....|..|--- .... ....|--- .... ....|--- .... ....
...F|..|G-2 2A.F ....|C-5 2F.7 ....|G-2 2F.F ....
...F|..|G-2 2A.F ....|R-- .... ....|R-- .... ....
....|..|--- .... ....|--- .... ....|--- .... ....
....|..|R-- .... ....|--- .... ....|R-- .... ....
....|..|C-4 AF.F ....|C-5 2F.7 ....|C-5 2F.7 ....
....|..|R-- .... ....|R-- .... ....|R-- .... ....
....|..|--- .... ....|--- .... ....|--- .... ....
....|..|--- .... ....|R-- .... ....|R-- .... ....
...F|..|A-1 2F.F ....|G-4 2F.F ....|G-4 2C.F ....
..1B|..|A-1 2A.F ....|--- .... ....|--- .F.. ....
....|..|R-- .... ....|R-- .... ....|R-- .... ....
....|..|--- .... ....|--- .... ....|--- .... ....
..1B|..|C-4 AF.F ....|A-4 2F.F ....|A-4 2C.F ....
....|..|G-1 2F.7 ....|--- .... ....|--- .... ....
....|..|--- .... ....|--- .... ....|--- .... ....
....|..|R-- .... ....|R-- .... ....|R-- .... ....
...F|..|A-1 2F.F ....|G-4 2F.F ....|G-4 2C.F ....
..1B|..|A-1 2A.F ....|R-- .... ....|R-- .... ....
....|..|R-- .... ....|--- .... ....|--- .... ....
....|..|--- .... ....|R-- .... ....|R-- .... ....
..1B|..|C-4 AF.F ....|A-4 2F.F ....|A-4 2C.F ....
....|..|R-- .... ....|--- .... ....|--- .... ....
....|..|R-- .... ....|R-- .... ....|R-- .... ....
....|..|--- .... ....|R-- .... ....|R-- .... ....
..1B|..|A-2 2C.F ....|A-4 2F.F ....|A-4 2C.F ....
..1B|..|A-1 2A.F ....|--- .... ....|--- .... ....
....|..|--- .... ....|--- .... ....|--- .... ....
....|..|R-- .... ....|R-- .... ....|R-- .... ....
....|..|C-4 AF.F ....|R-- .... ....|R-- .... ....
....|..|R-- .... ....|--- .... ....|--- .... ....
....|..|R-- .... ....|--- .... ....|--- .... ....
....|..|--- .... ....|R-- .... ....|R-- .... ....
..1B|..|A-2 2C.F ....|A-4 2F.F ....|A-4 2C.F ....
..1B|..|A-1 2A.F ....|--- .... ....|--- .... ....
....|..|R-- .... ....|R-- .... ....|R-- .... ....
....|..|--- .... ....|R-- .... ....|R-- .... ....
..2D|..|C-4 AF.F ....|C-5 2F.F ....|C-5 2C.F ....
....|..|R-- .... ....|--- .... ....|--- .... ....
....|..|--- .... ....|--- .... ....|--- .... ....
....|..|--- .... ....|R-- .... ....|R-- .... ....
..1B|..|C-2 2F.F ....|A-4 2F.F ....|A-4 2C.F ....
..16|..|C-2 2A.F ....|--- .... ....|--- .F.. ....
....|..|R-- .... ....|R-- .... ....|R-- .... ....
....|..|--- .... ....|R-- .... ....|R-- .... ....
...F|..|C-4 AF.F ....|G-4 2F.F ....|G-4 2C.F ....
....|..|R-- .... ....|--- .... ....|--- .... ....
....|..|R-- .... ....|R-- .... ....|R-- .... ....
....|..|--- .... ....|R-- .... ....|R-- .... ....
..1B|..|C-2 2F.F ....|A-4 2F.F ....|A-4 2C.F ....
..16|..|C-2 2A.F ....|--- .... ....|--- .F.. ....
....|..|R-- .... ....|--- .... ....|--- .... ....
....|..|--- .... ....|--- .... ....|--- .... ....

[Pattern9]
...F|..|C-4 AF.F ....|G-4 2F.F ....|G-4 2C.F ....
....|..|R-- .... ....|--- .... ....|--- .... ....
....|..|--- .... ....|R-- .... ....|R-- .... ....
....|..|--- .... ....|R-- .... ....|R-- .... ....
..11|..|F-2 2A.F ....|A-4 2F.7 ....|A-4 2F.7 ....
..11|..|F-2 2A.F ....|--- .... ....|--- .... ....
....|..|R-- .... ....|R-- .... ....|R-- .... ....
....|..|--- .... ....|--- .... ....|--- .... ....
....|..|C-4 AF.F ....|C-5 2F.7 ....|C-5 2F.7 ....
....|..|R-- .... ....|--- .... ....|--- .... ....
....|..|R-- .... ....|--- .... ....|--- .... ....
....|..|--- .... ....|--- .... ....|--- .... ....
..11|..|F-2 2A.F ....|A-4 2F.7 ....|A-4 2F.7 ....
..11|..|F-2 2A.F ....|--- .... ....|--- .... ....
....|..|R-- .... ....|R-- .... ....|R-- .... ....
....|..|--- .... ....|--- .... ....|--- .... ....
....|..|C-4 AF.F ....|G-4 2F.7 ....|G-4 2F.7 ....
....|..|R-- .... ....|--- .... ....|--- .... ....
....|..|--- .... ....|R-- .... ....|R-- .... ....
....|..|--- .... ....|--- .... ....|--- .... ....
..1B|..|A-2 2C.F ....|A-4 2F.F ....|A-4 2C.F ....
..1B|..|A-1 2A.F ....|--- .... ....|--- .... ....
....|..|R-- .... ....|R-- .... ....|R-- .... ....
....|..|--- .... ....|--- .... ....|--- .... ....
..1B|..|C-4 AF.F ....|A-4 2F.F ....|A-4 2C.F ....
....|..|R-- .... ....|--- .... ....|--- .... ....
....|..|R-- .... ....|--- .... ....|--- .... ....
....|..|--- .... ....|--- .... ....|--- .... ....
...F|..|A-1 2F.F ....|G-4 2F.F ....|G-4 2C.F ....
..1B|..|A-1 2A.F ....|--- .... ....|--- .F.. ....
....|..|R-- .... ....|R-- .... ....|R-- .... ....
....|..|--- .... ....|--- .... ....|--- .... ....
..1B|..|C-4 AF.F ....|A-4 2F.F ....|A-4 2C.F ....
....|..|R-- .... ....|--- .... ....|--- .... ....
....|..|--- .... ....|R-- .... ....|R-- .... ....
....|..|--- .... ....|--- .... ....|--- .... ....
...F|..|A-1 2F.F ....|G-4 2F.F ....|G-4 2C.F ....
..1B|..|A-1 2A.F ....|--- .... ....|--- .F.. ....
....|..|R-- .... ....|R-- .... ....|R-- .... ....
....|..|--- .... ....|--- .... ....|--- .... ....
..1B|..|C-4 AF.F ....|A-4 2F.F ....|A-4 2C.F ....
....|..|R-- .... ....|--- .... ....|--- .... ....
....|..|R-- .... ....|R-- .... ....|R-- .... ....
....|..|--- .... ....|R-- .... ....|R-- .... ....
...F|..|A-1 2F.F ....|G-4 2F.F ....|G-4 2C.F ....
..1B|..|A-1 2A.F ....|--- .... ....|--- .F.. ....
....|..|R-- .... ....|R-- .... ....|R-- .... ....
....|..|--- .... ....|--- .... ....|--- .... ....
..2D|..|C-4 AF.F ....|C-5 2F.F ....|C-5 2C.F ....
....|..|R-- .... ....|--- .... ....|--- .... ....
....|..|--- .... ....|R-- .... ....|R-- .... ....
....|..|--- .... ....|R-- .... ....|R-- .... ....
..1B|..|C-2 2F.F ....|A-4 2F.F ....|A-4 2C.F ....
..16|..|C-2 2A.F ....|--- .... ....|--- .F.. ....
....|..|R-- .... ....|R-- .... ....|R-- .... ....
....|..|--- .... ....|R-- .... ....|R-- .... ....
...F|..|C-4 AF.F ....|G-4 2F.F ....|G-4 2C.F ....
....|..|R-- .... ....|--- .... ....|--- .... ....
....|..|R-- .... ....|R-- .... ....|R-- .... ....
....|..|--- .... ....|--- .... ....|--- .... ....
..1B|..|C-2 2F.F ....|A-4 2F.F ....|A-4 2C.F ....
..16|..|C-2 2A.F ....|--- .... ....|--- .F.. ....
....|..|--- .... ....|R-- .... ....|R-- .... ....
....|..|R-- .... ....|R-- .... ....|R-- .... ....

[Pattern10]
....|..|C-4 AF.F ....|A-4 2F.7 ....|A-4 2F.7 ....
....|..|R-- .... ....|--- .... ....|--- .... ....
....|..|--- .... ....|--- .... ....|--- .... ....
....|..|--- .... ....|R-- .... ....|R-- .... ....
..12|..|G-1 2F.F ....|E-4 2F.F ....|E-4 2C.F ....
..1E|..|G-1 2A.F ....|--- .... ....|--- .F.. ....
....|..|R-- .... ....|R-- .... ....|R-- .... ....
....|..|--- .... ....|--- .... ....|--- .... ....
...F|..|C-4 AF.F ....|G-4 2F.F ....|G-4 2C.F ....
....|..|R-- .... ....|--- .... ....|--- .... ....
....|..|--- .... ....|--- .... ....|--- .... ....
....|..|R-- .... ....|R-- .... ....|R-- .... ....
..1B|..|G-1 2F.F ....|A-4 2F.F ....|A-4 2C.F ....
..1E|..|G-1 2A.F ....|--- .... ....|--- .F.. ....
....|..|R-- .... ....|--- .... ....|--- .... ....
....|..|--- .... ....|R-- .... ....|R-- .... ....
..1B|..|C-4 AF.F ....|A-4 2F.F ....|A-4 2C.F ....
....|..|R-- .... ....|--- .... ....|--- .... ....
....|..|--- .... ....|R-- .... ....|R-- .... ....
....|..|--- .... ....|--- .... ....|--- .... ....
..1B|..|A-1 2A.F ....|A-4 2F.7 ....|A-4 2F.7 ....
..1B|..|A-1 2A.F ....|--- .... ....|--- .... ....
....|..|--- .... ....|--- .... ....|--- .... ....
....|..|R-- .... ....|--- .... ....|--- .... ....
....|..|C-4 AF.F ....|A-4 2F.A ....|A-4 2F.A ....
....|..|R-- .... ....|--- .... ....|--- .... ....
....|..|R-- .... ....|--- .... ....|--- .... ....
....|..|--- .... ....|R-- .... ....|R-- .... ....
..1B|..|A-1 2A.F ....|E-4 2F.7 ....|E-4 2F.7 ....
..1B|..|A-1 2A.F ....|--- .... ....|--- .... ....
....|..|R-- .... ....|R-- .... ....|R-- .... ....
....|..|--- .... ....|--- .... ....|--- .... ....
....|..|C-4 AF.F ....|G-4 2F.7 ....|G-4 2F.7 ....
....|..|R-- .... ....|--- .... ....|--- .... ....
....|..|--- .... ....|--- .... ....|--- .... ....
....|..|--- .... ....|--- .... ....|--- .... ....
..1B|..|A-1 2A.F ....|A-4 2F.7 ....|A-4 2F.7 ....
..1B|..|A-1 2A.F ....|--- .... ....|--- .... ....
....|..|R-- .... ....|--- .... ....|--- .... ....
....|..|--- .... ....|R-- .... ....|R-- .... ....
....|..|C-4 AF.F ....|A-4 2F.7 ....|A-4 2F.7 ....
....|..|R-- .... ....|--- .... ....|--- .... ....
....|..|R-- .... ....|--- .... ....|--- .... ....
....|..|--- .... ....|--- .... ....|--- .... ....
..1B|..|A-1 2A.F ....|--- .... ....|--- .... ....
..1B|..|A-1 2A.F ....|--- .... ....|--- .... ....
....|..|R-- .... ....|--- .... ....|--- .... ....
....|..|--- .... ....|--- .... ....|--- .... ....
....|..|C-4 AF.F ....|E-5 2F.F ....|E-4 2FBF ....
....|..|R-- .... ....|--- .... ....|--- .... ....
....|..|--- .... ....|--- .... ....|--- .... ....
....|..|--- .... ....|--- .... ....|--- .... ....
..16|..|C-2 2A.F ....|--- .... ....|--- .... ....
..16|..|C-2 2A.F ....|R-- .... ....|R-- .... ....
....|..|R-- .... ....|--- .... ....|R-- .... ....
....|..|--- .... ....|--- .... ....|--- .... ....
....|..|C-4 AF.F ....|C-5 2F.F ....|C-4 2F2F ....
....|..|R-- .... ....|--- .... ....|--- .... ....
....|..|R-- .... ....|--- .... ....|--- .... ....
....|..|--- .... ....|--- .... ....|--- .... ....
..16|..|C-2 2A.F ....|R-- .... ....|R-- .... ....
..16|..|C-2 2A.F ....|R-- .... ....|R-- .... ....
....|..|R-- .... ....|--- .... ....|R-- .... ....
....|..|--- .... ....|--- .... ....|--- .... ....

[Pattern11]
....|..|C-4 AF.F ....|A-4 2F.F ....|A-3 2FBF ....
....|..|R-- .... ....|R-- .... ....|R-- .... ....
....|..|--- .... ....|--- .... ....|R-- .... ....
..12|..|--- .... ....|E-4 2F.F ....|E-4 2C.F ....
..11|..|F-2 2A.F ....|C-5 2F.A ....|E-3 2FBF ....
..11|..|F-2 2A.F ....|R-- .... ....|R-- .... ....
....|..|R-- .... ....|--- .... ....|R-- .... ....
...F|..|--- .F.. ....|G-4 2F.F ....|G-4 2C.F ....
....|..|C-4 AF.F ....|E-5 2F.7 ....|G-3 2FCF ....
....|..|R-- .... ....|R-- .... ....|R-- .... ....
....|..|R-- .... ....|--- .... ....|R-- .... ....
....|..|--- .... ....|R-- .... ....|R-- .... ....
..11|..|F-2 2A.F ....|A-4 2F.F ....|C-4 2F2F ....
..11|..|F-2 2A.F ....|R-- .... ....|R-- .... ....
....|..|R-- .... ....|--- .... ....|R-- .... ....
....|..|--- .... ....|R-- .... ....|R-- .... ....
....|..|C-4 AF.F ....|A-4 2F.F ....|C-4 2F2F ....
....|..|R-- .... ....|R-- .... ....|R-- .... ....
....|..|--- .... ....|--- .... ....|R-- .... ....
....|..|--- .... ....|G-4 2F.A ....|G-4 2F.A ....
..16|..|C-2 2A.F ....|--- .... ....|G-3 2FCA ....
..16|..|C-2 2A.F ....|R-- .... ....|R-- .... ....
....|..|R-- .... ....|--- .... ....|R-- .... ....
....|..|--- .... ....|R-- .... ....|R-- .... ....
....|..|C-4 AF.F ....|A-4 2F.7 ....|A-3 2FB7 ....
....|..|R-- .... ....|--- .... ....|--- .... ....
....|..|R-- .... ....|--- .... ....|--- .... ....
....|..|--- .... ....|E-4 2F.7 ....|E-4 2F.7 ....
..1B|..|A-1 2A.F ....|A-4 2F.A ....|E-3 2FB7 ....
..1B|..|A-1 2A.F ....|R-- .... ....|R-- .... ....
....|..|R-- .... ....|--- .... ....|R-- .... ....
....|..|--- .... ....|G-4 2F.7 ....|E-4 2F.F ....
....|..|C-4 AF.F ....|--- .... ....|G-3 2FC7 ....
....|..|R-- .... ....|--- .... ....|--- .... ....
....|..|--- .... ....|--- .... ....|R-- .... ....
....|..|--- .... ....|R-- .... ....|R-- .... ....
..1B|..|A-1 2A.F ....|A-4 2F.7 ....|C-4 2F27 ....
..1B|..|A-1 2A.F ....|--- .... ....|--- .... ....
....|..|R-- .... ....|--- .... ....|--- .... ....
....|..|--- .... ....|R-- .... ....|R-- .... ....
....|..|C-4 AF.F ....|A-4 2F.7 ....|C-4 2F27 ....
....|..|R-- .... ....|--- .... ....|--- .... ....
....|..|R-- .... ....|--- .... ....|--- .... ....
....|..|--- .... ....|--- .... ....|E-4 2F.A ....
..1B|..|A-1 2A.F ....|--- .... ....|R-- .... ....
..1B|..|A-1 2A.F ....|--- .... ....|--- .... ....
....|..|R-- .... ....|--- .... ....|--- .... ....
....|..|--- .... ....|--- .... ....|--- .... ....
....|..|C-4 AF.F ....|R-- .... ....|R-- .... ....
....|..|R-- .... ....|--- .... ....|--- .... ....
....|..|--- .... ....|--- .... ....|--- .... ....
....|..|--- .... ....|--- .... ....|--- .... ....
..16|..|C-2 2A.F ....|--- .... ....|--- .... ....
..16|..|C-2 2A.F ....|--- .... ....|--- .... ....
....|..|R-- .... ....|--- .... ....|--- .... ....
....|..|--- .... ....|--- .... ....|E-4 2F.7 ....
....|..|C-4 AF.F ....|--- .... ....|R-- .... ....
....|..|R-- .... ....|--- .... ....|--- .... ....
....|..|R-- .... ....|--- .... ....|--- .... ....
....|..|--- .... ....|--- .... ....|--- .... ....
..16|..|C-2 2A.F ....|R-- .... ....|R-- .... ....
..16|..|C-2 2A.F ....|--- .... ....|--- .... ....
....|..|--- .... ....|--- .... ....|--- .... ....
....|..|R-- .... ....|--- .... ....|--- .... ....

[Pattern12]
....|..|C-4 AF.F ....|--- .... ....|--- .... ....
....|..|R-- .... ....|--- .... ....|--- .... ....
....|..|--- .... ....|--- .... ....|--- .... ....
....|..|--- .... ....|--- .... ....|--- .... ....
..1E|..|G-1 2A.F ....|--- .... ....|--- .... ....
..1E|..|G-1 2A.F ....|--- .... ....|--- .... ....
....|..|R-- .... ....|--- .... ....|--- .... ....
....|..|--- .... ....|--- .... ....|--- .... ....
....|..|C-4 AF.F ....|--- .... ....|--- .... ....
....|..|R-- .... ....|--- .... ....|--- .... ....
....|..|--- .... ....|--- .... ....|--- .... ....
....|..|R-- .... ....|--- .... ....|--- .... ....
..14|..|D-2 2A.F ....|--- .... ....|--- .... ....
..14|..|D-2 2A.F ....|--- .... ....|--- .... ....
....|..|R-- .... ....|--- .... ....|--- .... ....
....|..|--- .... ....|--- .... ....|--- .... ....
....|..|C-4 AF.F ....|--- .... ....|--- .... ....
....|..|R-- .... ....|--- .... ....|--- .... ....
....|..|--- .... ....|--- .... ....|--- .... ....
....|..|--- .... ....|--- .... ....|--- .... ....
..2D|..|A-1 2F.F ....|C-5 2F.F ....|C-5 2C.F ....
..1B|..|A-1 2A.F ....|--- .... ....|--- .F.. ....
....|..|--- .... ....|R-- .... ....|R-- .... ....
....|..|R-- .... ....|--- .... ....|--- .... ....
..2D|..|C-4 AF.F ....|C-5 2F.F ....|C-5 2C.F ....
....|..|R-- .... ....|--- .... ....|--- .... ....
....|..|R-- .... ....|--- .... ....|--- .... ....
....|..|--- .... ....|R-- .... ....|R-- .... ....
..1B|..|A-2 2C.F ....|A-4 2F.F ....|A-4 2C.F ....
..1B|..|A-1 2A.F ....|--- .... ....|--- .... ....
....|..|R-- .... ....|--- .... ....|--- .... ....
....|..|--- .... ....|R-- .... ....|R-- .... ....
..2D|..|C-4 AF.F ....|C-5 2F.F ....|C-5 2C.F ....
....|..|R-- .... ....|--- .... ....|--- .... ....
....|..|--- .... ....|R-- .... ....|R-- .... ....
....|..|--- .... ....|R-- .... ....|R-- .... ....
..2D|..|A-1 2F.F ....|C-5 2F.F ....|C-5 2C.F ....
..1B|..|A-1 2A.F ....|--- .... ....|--- .F.. ....
....|..|R-- .... ....|--- .... ....|--- .... ....
....|..|--- .... ....|R-- .... ....|R-- .... ....
....|..|C-4 AF.F ....|A-4 2F.A ....|A-4 2F.A ....
....|..|R-- .... ....|--- .... ....|--- .... ....
....|..|R-- .... ....|--- .... ....|--- .... ....
....|..|--- .... ....|R-- .... ....|R-- .... ....
..1B|..|A-2 2C.F ....|A-4 2F.F ....|A-4 2C.F ....
..1B|..|A-1 2A.F ....|--- .... ....|--- .... ....
....|..|R-- .... ....|R-- .... ....|R-- .... ....
....|..|--- .... ....|R-- .... ....|R-- .... ....
..2D|..|C-4 AF.F ....|C-5 2F.F ....|C-5 2C.F ....
....|..|R-- .... ....|--- .... ....|--- .... ....
....|..|--- .... ....|--- .... ....|--- .... ....
....|..|--- .... ....|R-- .... ....|R-- .... ....
..2D|..|C-3 2C.F ....|C-5 2F.F ....|C-5 2C.F ....
..16|..|C-2 2A.F ....|--- .... ....|--- .... ....
....|..|R-- .... ....|R-- .... ....|R-- .... ....
....|..|--- .... ....|R-- .... ....|R-- .... ....
..1B|..|C-4 AF.F ....|A-4 2F.F ....|A-4 2C.F ....
....|..|R-- .... ....|--- .... ....|--- .... ....
....|..|R-- .... ....|R-- .... ....|R-- .... ....
....|..|--- .... ....|R-- .... ....|R-- .... ....
..2D|..|C-3 2C.F ....|C-5 2F.F ....|C-5 2C.F ....
..16|..|C-2 2A.F ....|--- .... ....|--- .... ....
....|..|R-- .... ....|--- .... ....|--- .... ....
....|..|--- .... ....|--- .... ....|--- .... ....

[Pattern13]
....|..|C-4 AF.F ....|C-5 2F.A ....|C-5 2F.A ....
....|..|R-- .... ....|--- .... ....|--- .... ....
....|..|--- .... ....|R-- .... ....|R-- .... ....
....|..|--- .... ....|R-- .... ....|R-- .... ....
..11|..|F-2 2A.F ....|A-4 2F.7 ....|A-4 2F.7 ....
..11|..|F-2 2A.F ....|--- .... ....|--- .... ....
....|..|R-- .... ....|R-- .... ....|R-- .... ....
....|..|--- .... ....|--- .... ....|--- .... ....
....|..|C-4 AF.F ....|C-5 2F.7 ....|C-5 2F.7 ....
....|..|R-- .... ....|--- .... ....|--- .... ....
....|..|R-- .... ....|--- .... ....|--- .... ....
....|..|--- .... ....|--- .... ....|--- .... ....
..11|..|F-2 2A.F ....|C-5 2F.7 ....|C-5 2F.7 ....
..11|..|F-2 2A.F ....|--- .... ....|--- .... ....
....|..|R-- .... ....|R-- .... ....|R-- .... ....
....|..|--- .... ....|--- .... ....|--- .... ....
....|..|C-4 AF.F ....|A-4 2F.7 ....|A-4 2F.7 ....
....|..|R-- .... ....|--- .... ....|--- .... ....
....|..|--- .... ....|R-- .... ....|R-- .... ....
....|..|--- .... ....|--- .... ....|--- .... ....
..2D|..|A-1 2F.F ....|C-5 2F.F ....|C-5 2C.F ....
..1B|..|A-1 2A.F ....|--- .... ....|--- .F.. ....
....|..|R-- .... ....|R-- .... ....|R-- .... ....
....|..|--- .... ....|--- .... ....|--- .... ....
..2D|..|C-4 AF.F ....|C-5 2F.F ....|C-5 2C.F ....
....|..|R-- .... ....|--- .... ....|--- .... ....
....|..|R-- .... ....|--- .... ....|--- .... ....
....|..|--- .... ....|--- .... ....|--- .... ....
..1B|..|A-2 2C.F ....|A-4 2F.F ....|A-4 2C.F ....
..1B|..|A-1 2A.F ....|--- .... ....|--- .... ....
....|..|R-- .... ....|R-- .... ....|R-- .... ....
....|..|--- .... ....|--- .... ....|--- .... ....
..2D|..|C-4 AF.F ....|C-5 2F.F ....|C-5 2C.F ....
....|..|R-- .... ....|--- .... ....|--- .... ....
....|..|--- .... ....|R-- .... ....|R-- .... ....
....|..|--- .... ....|--- .... ....|--- .... ....
..1B|..|A-2 2C.F ....|A-4 2F.F ....|A-4 2C.F ....
..1B|..|A-1 2A.F ....|--- .... ....|--- .... ....
....|..|R-- .... ....|R-- .... ....|R-- .... ....
....|..|--- .... ....|--- .... ....|--- .... ....
..2D|..|C-4 AF.F ....|C-5 2F.F ....|C-5 2C.F ....
....|..|R-- .... ....|--- .... ....|--- .... ....
....|..|R-- .... ....|R-- .... ....|R-- .... ....
....|..|--- .... ....|R-- .... ....|R-- .... ....
..1B|..|A-2 2C.F ....|A-4 2F.F ....|A-4 2C.F ....
..1B|..|A-1 2A.F ....|--- .... ....|--- .... ....
....|..|R-- .... ....|R-- .... ....|R-- .... ....
....|..|--- .... ....|--- .... ....|--- .... ....
..2D|..|C-4 AF.F ....|C-5 2F.F ....|C-5 2C.F ....
....|..|R-- .... ....|--- .... ....|--- .... ....
....|..|--- .... ....|R-- .... ....|R-- .... ....
....|..|--- .... ....|R-- .... ....|R-- .... ....
..1B|..|C-2 2F.F ....|A-4 2F.F ....|A-4 2C.F ....
..16|..|C-2 2A.F ....|--- .... ....|--- .F.. ....
....|..|R-- .... ....|R-- .... ....|R-- .... ....
....|..|--- .... ....|R-- .... ....|R-- .... ....
..1B|..|C-4 AF.F ....|A-4 2F.F ....|A-4 2C.F ....
....|..|R-- .... ....|--- .... ....|--- .... ....
....|..|R-- .... ....|R-- .... ....|R-- .... ....
....|..|--- .... ....|R-- .... ....|R-- .... ....
..1B|..|C-2 2F.F ....|A-4 2F.F ....|A-4 2C.F ....
..16|..|C-2 2A.F ....|--- .... ....|--- .F.. ....
....|..|--- .... ....|R-- .... ....|R-- .... ....
....|..|R-- .... ....|R-- .... ....|R-- .... ....

[Pattern14]
...F|..|C-4 AF.F ....|G-4 2F.F ....|G-4 2C.F ....
....|..|R-- .... ....|--- .... ....|--- .... ....
....|..|--- .... ....|--- .... ....|--- .... ....
....|..|--- .... ....|R-- .... ....|R-- .... ....
..12|..|G-1 2F.F ....|E-4 2F.F ....|E-4 2C.F ....
..1E|..|G-1 2A.F ....|--- .... ....|--- .F.. ....
....|..|R-- .... ....|R-- .... ....|R-- .... ....
....|..|--- .... ....|R-- .... ....|R-- .... ....
...F|..|C-4 AF.F ....|G-4 2F.F ....|G-4 2C.F ....
....|..|R-- .... ....|--- .... ....|--- .... ....
....|..|--- .... ....|--- .... ....|--- .... ....
....|..|R-- .... ....|R-- .... ....|R-- .... ....
..1B|..|G-1 2F.F ....|A-4 2F.F ....|A-4 2C.F ....
..1E|..|G-1 2A.F ....|--- .... ....|--- .F.. ....
....|..|R-- .... ....|--- .... ....|--- .... ....
....|..|--- .... ....|R-- .... ....|R-- .... ....
..1B|..|C-4 AF.F ....|A-4 2F.F ....|A-4 2C.F ....
....|..|R-- .... ....|--- .... ....|--- .... ....
....|..|--- .... ....|R-- .... ....|R-- .... ....
....|..|--- .... ....|R-- .... ....|R-- .... ....
..1B|..|A-1 2A.F ....|A-4 2F.7 ....|A-4 2F.7 ....
..1B|..|A-1 2A.F ....|--- .... ....|--- .... ....
....|..|--- .... ....|--- .... ....|--- .... ....
....|..|R-- .... ....|--- .... ....|--- .... ....
....|..|C-4 AF.F ....|G-4 2F.7 ....|G-4 2F.7 ....
....|..|R-- .... ....|--- .... ....|--- .... ....
....|..|R-- .... ....|--- .... ....|--- .... ....
....|..|--- .... ....|R-- .... ....|R-- .... ....
..1B|..|A-1 2A.F ....|E-4 2F.7 ....|E-4 2F.7 ....
..1B|..|A-1 2A.F ....|--- .... ....|--- .... ....
....|..|R-- .... ....|R-- .... ....|R-- .... ....
....|..|--- .... ....|--- .... ....|--- .... ....
....|..|C-4 AF.F ....|G-4 2F.7 ....|G-4 2F.7 ....
....|..|R-- .... ....|--- .... ....|--- .... ....
....|..|--- .... ....|--- .... ....|--- .... ....
....|..|--- .... ....|--- .... ....|--- .... ....
..1B|..|A-1 2A.F ....|A-4 2F.7 ....|A-4 2F.7 ....
..1B|..|A-1 2A.F ....|--- .... ....|--- .... ....
....|..|R-- .... ....|--- .... ....|--- .... ....
....|..|--- .... ....|R-- .... ....|R-- .... ....
....|..|C-4 AF.F ....|A-4 2F.7 ....|A-4 2F.7 ....
....|..|R-- .... ....|--- .... ....|--- .... ....
....|..|R-- .... ....|--- .... ....|--- .... ....
....|..|--- .... ....|--- .... ....|--- .... ....
..1B|..|A-1 2A.F ....|--- .... ....|--- .... ....
..1B|..|A-1 2A.F ....|--- .... ....|--- .... ....
....|..|R-- .... ....|--- .... ....|--- .... ....
....|..|--- .... ....|--- .... ....|--- .... ....
..12|..|C-4 AF.F ....|E-5 2F.F ....|E-5 2C.F ....
....|..|R-- .... ....|--- .... ....|--- .... ....
....|..|--- .... ....|--- .... ....|--- .... ....
....|..|--- .... ....|--- .... ....|--- .... ....
..16|..|C-2 2A.F ....|--- .... ....|--- .F.. ....
..16|..|C-2 2A.F ....|R-- .... ....|R-- .... ....
....|..|R-- .... ....|--- .... ....|--- .... ....
....|..|--- .... ....|--- .... ....|--- .... ....
..2D|..|C-4 AF.F ....|C-5 2F.F ....|C-5 2C.F ....
....|..|R-- .... ....|--- .... ....|--- .... ....
....|..|R-- .... ....|--- .... ....|--- .... ....
....|..|--- .... ....|--- .... ....|--- .... ....
..16|..|C-2 2A.F ....|R-- .... ....|R-- .... ....
..16|..|C-2 2A.F ....|R-- .... ....|R-- .... ....
....|..|R-- .... ....|--- .... ....|--- .... ....
....|..|--- .... ....|--- .... ....|--- .... ....

[Pattern15]
..1B|..|C-4 AF.F ....|A-4 2F.F ....|A-4 2C.F ....
....|..|R-- .... ....|R-- .... ....|R-- .... ....
....|..|--- .... ....|--- .... ....|--- .... ....
..12|..|--- .... ....|E-4 2F.F ....|E-4 2C.F ....
..11|..|F-2 2A.F ....|C-5 2F.A ....|C-5 2F.A ....
..11|..|F-2 2A.F ....|R-- .... ....|R-- .... ....
....|..|R-- .... ....|--- .... ....|--- .... ....
...F|..|--- .F.. ....|G-4 2F.F ....|G-4 2C.F ....
....|..|C-4 AF.F ....|E-5 2F.7 ....|E-5 2F.7 ....
....|..|R-- .... ....|R-- .... ....|R-- .... ....
....|..|R-- .... ....|--- .... ....|--- .... ....
....|..|--- .... ....|R-- .... ....|R-- .... ....
..1B|..|F-2 2F.F ....|A-4 2F.F ....|A-4 2C.F ....
..11|..|F-2 2A.F ....|R-- .... ....|R-- .... ....
....|..|R-- .... ....|--- .... ....|--- .... ....
....|..|--- .... ....|R-- .... ....|R-- .... ....
....|..|C-4 AF.F ....|A-4 2F.F ....|E-4 2FBF ....
....|..|R-- .... ....|R-- .... ....|R-- .... ....
....|..|--- .... ....|--- .... ....|--- .... ....
....|..|--- .... ....|G-4 2F.A ....|G-4 2F.A ....
..16|..|C-2 2A.F ....|--- .... ....|--- .... ....
..16|..|C-2 2A.F ....|R-- .... ....|R-- .... ....
....|..|R-- .... ....|--- .... ....|R-- .... ....
....|..|--- .... ....|R-- .... ....|R-- .... ....
....|..|C-4 AF.F ....|A-4 2F.7 ....|C-4 2F2F ....
....|..|R-- .... ....|--- .... ....|--- .... ....
....|..|R-- .... ....|--- .... ....|--- .... ....
....|..|--- .... ....|E-4 2F.7 ....|E-4 2F.7 ....
..1B|..|A-1 2A.F ....|A-4 2F.A ....|E-4 2FBA ....
..1B|..|A-1 2A.F ....|R-- .... ....|R-- .... ....
....|..|R-- .... ....|--- .... ....|R-- .... ....
....|..|--- .... ....|G-4 2F.7 ....|G-4 2F.7 ....
....|..|C-4 AF.F ....|--- .... ....|A-3 2FBF ....
....|..|R-- .... ....|--- .... ....|--- .... ....
....|..|--- .... ....|--- .... ....|R-- .... ....
....|..|--- .... ....|R-- .... ....|R-- .... ....
..1B|..|A-1 2A.F ....|A-4 2F.7 ....|A-4 2F3F ....
..1B|..|A-1 2A.F ....|--- .... ....|A-4 2F.F ....
....|..|R-- .... ....|--- .... ....|R-- .... ....
....|..|--- .... ....|R-- .... ....|R-- .... ....
....|..|C-4 AF.F ....|A-4 2F.7 ....|A-4 2F3F ....
....|..|R-- .... ....|--- .... ....|A-4 2F.F ....
....|..|R-- .... ....|--- .... ....|R-- .... ....
....|..|--- .... ....|--- .... ....|--- .... ....
..1B|..|A-1 2A.F ....|--- .... ....|A-4 2F3F ....
..1B|..|A-1 2A.F ....|--- .... ....|A-4 2F.F ....
....|..|R-- .... ....|--- .... ....|R-- .... ....
....|..|--- .... ....|--- .... ....|--- .... ....
....|..|C-4 AF.F ....|R-- .... ....|A-4 2F3F ....
....|..|R-- .... ....|--- .... ....|A-4 2F4F ....
....|..|--- .... ....|--- .... ....|R-- .... ....
....|..|--- .... ....|--- .... ....|--- .... ....
..16|..|C-2 2A.F ....|--- .... ....|A-4 2F3F ....
..16|..|C-2 2A.F ....|--- .... ....|A-4 2F4F ....
....|..|R-- .... ....|--- .... ....|R-- .... ....
....|..|--- .... ....|--- .... ....|--- .... ....
....|..|C-4 AF.F ....|--- .... ....|A-4 2F3F ....
....|..|R-- .... ....|--- .... ....|A-4 2F4F ....
....|..|R-- .... ....|--- .... ....|R-- .... ....
....|..|--- .... ....|--- .... ....|R-- .... ....
..16|..|C-2 2A.F ....|R-- .... ....|A-4 2F3F ....
..16|..|C-2 2A.F ....|--- .... ....|A-4 2F.7 ....
....|..|--- .... ....|--- .... ....|R-- .... ....
....|..|R-- .... ....|--- .... ....|R-- .... ....

[Pattern16]
....|..|C-4 AF.F ....|--- .... ....|A-4 2F37 ....
....|..|R-- .... ....|--- .... ....|A-4 2F.7 ....
....|..|--- .... ....|--- .... ....|R-- .... ....
....|..|--- .... ....|--- .... ....|--- .... ....
..1E|..|G-1 2A.F ....|--- .... ....|A-4 2F37 ....
..1E|..|G-1 2A.F ....|--- .... ....|A-4 2F.7 ....
....|..|R-- .... ....|--- .... ....|R-- .... ....
....|..|--- .... ....|--- .... ....|R-- .... ....
....|..|C-4 AF.F ....|--- .... ....|A-4 2F37 ....
....|..|R-- .... ....|--- .... ....|A-4 2F47 ....
....|..|--- .... ....|--- .... ....|R-- .... ....
....|..|R-- .... ....|--- .... ....|R-- .... ....
..14|..|D-2 2A.F ....|--- .... ....|A-4 2F37 ....
..14|..|D-2 2A.F ....|--- .... ....|A-4 2F47 ....
....|..|R-- .... ....|--- .... ....|R-- .... ....
....|..|--- .... ....|--- .... ....|--- .... ....
....|..|C-4 AF.F ....|--- .... ....|A-3 2F3F ....
....|..|R-- .... ....|--- .... ....|A-4 2F47 ....
....|..|--- .... ....|--- .... ....|R-- .... ....
....|..|--- .... ....|--- .... ....|R-- .... ....
....|..|B-8 JF.F ....|--- .... ....|A-3 2F3F ....
..1B|..|A-1 2A.F ....|--- .... ....|--- .... ....
...F|..|R-- .... ....|G-4 2F.F ....|G-4 2C.F ....
....|..|R-- .... ....|--- .... ....|R-- .... ....
....|..|C-4 AF.F ....|G-4 2F.F ....|A-3 2F3F ....
....|..|R-- .... ....|R-- .... ....|R-- .... ....
...F|..|R-- .... ....|G-4 2F.F ....|G-4 2C.F ....
....|..|--- .... ....|R-- .... ....|R-- .... ....
....|..|B-8 JF.F ....|G-4 2F.F ....|A-3 2F3F ....
..16|..|C-2 2A.F ....|--- .... ....|--- .... ....
..11|..|R-- .... ....|F-4 2F.F ....|F-4 2C.F ....
....|..|--- .... ....|--- .... ....|--- .... ....
....|..|C-4 AF.F ....|R-- .... ....|A-3 2F3F ....
..12|..|E-2 2A.F ....|--- .... ....|--- .... ....
....|..|R-- .... ....|G-4 2F.A ....|R-- .... ....
..12|..|--- .... ....|E-4 2F.F ....|E-4 2C.F ....
....|..|B-8 JF.F ....|G-4 2F.A ....|A-3 2F3F ....
..12|..|E-2 2A.F ....|R-- .... ....|R-- .... ....
....|..|R-- .... ....|R-- .... ....|R-- .... ....
....|..|--- .... ....|R-- .... ....|R-- .... ....
....|..|C-4 AF.F ....|G-4 2F.A ....|A-3 2F3F ....
..11|..|F-2 2A.F ....|--- .... ....|--- .... ....
....|..|R-- .... ....|F-4 2F.A ....|R-- .... ....
....|..|--- .... ....|--- .... ....|--- .... ....
....|..|B-8 JF.F ....|R-- .... ....|A-3 2F3F ....
..11|..|F-2 2A.F ....|--- .... ....|--- .... ....
....|..|R-- .... ....|G-4 2F.7 ....|G-4 2F.7 ....
....|..|--- .... ....|E-4 2F.A ....|E-4 2F.A ....
....|..|C-4 AF.F ....|G-4 2F.7 ....|A-3 2F3F ....
....|..|R-- .... ....|R-- .... ....|R-- .... ....
....|..|R-- .... ....|G-4 2F.7 ....|G-4 2F.7 ....
....|..|--- .... ....|R-- .... ....|R-- .... ....
....|..|B-8 JF.F ....|G-4 2F.F ....|A-3 2F3F ....
..1B|..|A-1 2A.F ....|R-- .... ....|R-- .... ....
...F|..|R-- .... ....|G-4 2F.F ....|G-4 2C.F ....
....|..|--- .... ....|--- .... ....|--- .... ....
....|..|C-4 AF.F ....|G-4 2F.F ....|A-3 2F3F ....
..16|..|C-2 2A.F ....|R-- .... ....|R-- .... ....
...F|..|R-- .... ....|G-4 2F.F ....|G-4 2C.F ....
....|..|--- .... ....|E-4 2F.7 ....|E-4 2F.7 ....
....|..|B-8 JF.F ....|G-4 2F.F ....|A-3 2F3F ....
..16|..|C-2 2A.F ....|--- .... ....|--- .... ....
..11|..|R-- .... ....|F-4 2F.F ....|F-4 2C.F ....
....|..|--- .... ....|--- .... ....|--- .... ....

[Pattern17]
....|..|C-4 AF.F ....|R-- .... ....|A-3 2F3F ....
..12|..|E-2 2A.F ....|R-- .... ....|R-- .... ....
....|..|R-- .... ....|G-4 2F.A ....|R-- .... ....
..12|..|--- .... ....|E-4 2F.F ....|E-4 2C.F ....
....|..|B-8 JF.F ....|G-4 2F.A ....|A-3 2F3F ....
..12|..|E-2 2A.F ....|R-- .... ....|R-- .... ....
....|..|R-- .... ....|R-- .... ....|R-- .... ....
....|..|--- .... ....|R-- .... ....|R-- .... ....
....|..|C-4 AF.F ....|G-4 2F.A ....|A-3 2F3F ....
..11|..|F-2 2A.F ....|--- .... ....|--- .... ....
....|..|R-- .... ....|F-4 2F.A ....|R-- .... ....
....|..|--- .... ....|--- .... ....|--- .... ....
....|..|B-8 JF.F ....|G-4 2F.7 ....|A-3 2F3F ....
..11|..|F-2 2A.F ....|R-- .... ....|R-- .... ....
....|..|R-- .... ....|G-4 2F.7 ....|G-4 2F.7 ....
....|..|--- .... ....|E-4 2F.A ....|E-4 2F.A ....
....|..|C-4 AF.F ....|G-4 2F.7 ....|A-3 2F3F ....
....|..|C-2 2F.7 ....|R-- .... ....|R-- .... ....
....|..|R-- .... ....|G-4 2F.7 ....|G-4 2F.7 ....
....|..|--- .... ....|R-- .... ....|R-- .... ....
....|..|B-8 JF.F ....|A-4 2F.F ....|A-3 2F3F ....
..1B|..|A-1 2A.F ....|R-- .... ....|R-- .... ....
....|..|R-- .... ....|F-4 2F.7 ....|F-4 2F.7 ....
....|..|--- .... ....|--- .... ....|--- .... ....
....|..|C-4 AF.F ....|A-4 2F.F ....|A-3 2F3F ....
....|..|E-2 2F.7 ....|--- .... ....|--- .... ....
....|..|R-- .... ....|--- .... ....|R-- .... ....
....|..|--- .... ....|E-4 2F.7 ....|E-4 2F.7 ....
....|..|B-8 JF.F ....|G-4 2F.F ....|A-3 2F3F ....
..16|..|C-2 2A.F ....|--- .... ....|--- .... ....
....|..|R-- .... ....|R-- .... ....|R-- .... ....
....|..|--- .... ....|--- .... ....|--- .... ....
....|..|C-4 AF.F ....|A-4 2F.F ....|A-3 2F3F ....
..12|..|E-2 2A.F ....|R-- .... ....|R-- .... ....
....|..|R-- .... ....|--- .... ....|R-- .... ....
....|..|--- .... ....|--- .... ....|--- .... ....
....|..|B-8 JF.F ....|A-4 2F.A ....|A-3 2F3F ....
..12|..|E-2 2A.F ....|--- .... ....|--- .... ....
....|..|R-- .... ....|R-- .... ....|R-- .... ....
....|..|--- .... ....|--- .... ....|--- .... ....
....|..|C-4 AF.F ....|G-4 2F.A ....|A-3 2F3F ....
..11|..|F-2 2A.F ....|--- .... ....|--- .... ....
....|..|R-- .... ....|R-- .... ....|R-- .... ....
...F|..|--- .F.. ....|G-4 2F.F ....|G-4 2C.F ....
....|..|B-8 JF.F ....|A-4 2F.7 ....|A-3 2F3F ....
..11|..|F-2 2A.F ....|R-- .... ....|R-- .... ....
....|..|R-- .... ....|--- .... ....|R-- .... ....
....|..|--- .... ....|--- .... ....|--- .... ....
....|..|C-4 AF.F ....|A-4 2F.F ....|A-3 2F3F ....
....|..|R-- .... ....|--- .... ....|--- .... ....
....|..|R-- .... ....|R-- .... ....|R-- .... ....
....|..|--- .... ....|--- .... ....|--- .... ....
....|..|B-8 JF.F ....|G-4 2F.7 ....|A-3 2F3F ....
...F|..|G-2 2A.F ....|--- .... ....|--- .... ....
....|..|R-- .... ....|R-- .... ....|R-- .... ....
....|..|--- .... ....|R-- .... ....|R-- .... ....
....|..|C-4 AF.F ....|G-4 2F.F ....|A-3 2F3F ....
....|..|E-2 2F.7 ....|R-- .... ....|R-- .... ....
....|..|R-- .... ....|--- .... ....|R-- .... ....
....|..|--- .... ....|--- .... ....|--- .... ....
....|..|B-8 JF.F ....|R-- .... ....|A-3 2F3F ....
..1B|..|G-2 2F.F ....|A-3 2F.F ....|A-3 2C.F ....
....|..|R-- .... ....|R-- .... ....|R-- .... ....
....|..|--- .... ....|--- .... ....|--- .... ....

[Pattern18]
....|..|C-4 AF.F ....|--- .... ....|A-3 2F3F ....
....|..|F-2 2F.7 ....|--- .... ....|--- .... ....
....|..|R-- .... ....|--- .... ....|R-- .... ....
....|..|--- .... ....|G-4 2F.7 ....|G-4 2F.7 ....
....|..|B-8 JF.F ....|G-4 2F.A ....|A-3 2F3F ....
...F|..|G-2 2A.F ....|R-- .... ....|R-- .... ....
....|..|R-- .... ....|--- .... ....|R-- .... ....
....|..|--- .... ....|--- .... ....|--- .... ....
....|..|C-4 AF.7 ....|A-4 2F.7 ....|A-3 2F3F ....
....|..|R-- .... ....|A-3 2F.A ....|A-3 2F.A ....
....|..|R-- .... ....|--- .... ....|R-- .... ....
....|..|--- .... ....|--- .... ....|--- .... ....
...F|..|G-2 2A.F ....|--- .... ....|A-3 2F3F ....
....|..|G-2 2F.7 ....|--- .... ....|--- .... ....
....|..|--- .... ....|--- .... ....|R-- .... ....
....|..|R-- .... ....|R-- .... ....|R-- .... ....
....|..|C-4 AF.F ....|G-4 2F.7 ....|F-4 2F1F ....
..22|..|F-1 2A.F ....|R-- .... ....|R-- .... ....
..11|..|F-2 2A.F ....|--- .... ....|R-- .... ....
....|..|R-- .... ....|--- .... ....|--- .... ....
....|..|B-8 JF.F ....|A-5 2F.F ....|F-4 2F1F ....
..22|..|F-1 2A.F ....|A-3 2F.7 ....|A-3 2F.7 ....
..11|..|F-2 2A.F ....|R-- .... ....|R-- .... ....
....|..|--- .... ....|--- .... ....|--- .... ....
....|..|C-4 AF.F ....|A-5 2F.F ....|F-4 2F1F ....
....|..|R-- .... ....|--- .... ....|R-- .... ....
....|..|R-- .... ....|--- .... ....|R-- .... ....
....|..|R-- .... ....|R-- .... ....|R-- .... ....
....|..|B-8 JF.F ....|A-5 2F.F ....|F-4 2F1F ....
..22|..|F-1 2A.F ....|R-- .... ....|R-- .... ....
..11|..|F-2 2A.F ....|R-- .... ....|R-- .... ....
....|..|R-- .... ....|--- .... ....|--- .... ....
....|..|C-4 AF.F ....|A-5 2F.F ....|A-3 2FAF ....
....|..|R-- .... ....|--- .... ....|R-- .... ....
....|..|R-- .... ....|R-- .... ....|R-- .... ....
....|..|--- .... ....|--- .... ....|R-- .... ....
....|..|B-8 JF.F ....|A-5 2F.F ....|F-4 2F1F ....
..22|..|F-1 2A.F ....|--- .... ....|R-- .... ....
..11|..|F-2 2A.F ....|--- .... ....|R-- .... ....
....|..|R-- .... ....|R-- .... ....|R-- .... ....
....|..|C-4 AF.F ....|A-5 2F.A ....|F-4 2F17 ....
....|..|F-1 2F.7 ....|--- .... ....|R-- .... ....
....|..|F-2 2F.7 ....|R-- .... ....|R-- .... ....
....|..|R-- .... ....|--- .... ....|R-- .... ....
....|..|B-8 JF.F ....|G-5 2F.F ....|F-4 2F1F ....
..22|..|F-1 2A.F ....|--- .... ....|R-- .... ....
..11|..|F-2 2A.F ....|R-- .... ....|R-- .... ....
....|..|R-- .... ....|R-- .... ....|R-- .... ....
....|..|C-4 AF.F ....|G-5 2F.F ....|G-4 2F1F ....
..1E|..|G-1 2A.F ....|--- .... ....|G-5 2F.F ....
...F|..|G-2 2A.F ....|--- .... ....|R-- .... ....
....|..|--- .... ....|R-- .... ....|R-- .... ....
....|..|B-8 JF.F ....|G-5 2F.F ....|G-4 2F1F ....
..1E|..|G-1 2A.F ....|--- .... ....|G-5 2F.F ....
...F|..|G-2 2A.F ....|R-- .... ....|R-- .... ....
....|..|R-- .... ....|--- .... ....|R-- .... ....
....|..|C-4 AF.F ....|G-5 2F.F ....|G-4 2F1F ....
....|..|R-- .... ....|--- .... ....|G-4 2F2F ....
....|..|R-- .... ....|--- .... ....|R-- .... ....
....|..|R-- .... ....|R-- .... ....|R-- .... ....
....|..|B-8 JF.F ....|D-5 2F.F ....|G-4 2F1F ....
..1E|..|G-1 2A.F ....|--- .... ....|G-5 2F.A ....
...F|..|G-2 2A.F ....|--- .... ....|R-- .... ....
....|..|--- .... ....|R-- .... ....|R-- .... ....

[Pattern19]
....|..|C-4 AF.F ....|G-5 2F.A ....|G-4 2F1A ....
....|..|R-- .... ....|--- .... ....|G-5 2F.A ....
....|..|R-- .... ....|R-- .... ....|R-- .... ....
....|..|--- .... ....|--- .... ....|R-- .... ....
....|..|B-8 JF.F ....|D-5 2F.F ....|G-4 2F1F ....
..1E|..|G-1 2A.F ....|--- .... ....|G-4 2F2A ....
...F|..|G-2 2A.F ....|--- .... ....|R-- .... ....
....|..|R-- .... ....|R-- .... ....|R-- .... ....
....|..|C-4 AF.F ....|G-5 2F.7 ....|G-4 2F1F ....
....|..|G-1 2F.7 ....|--- .... ....|G-5 2F.7 ....
....|..|G-2 2F.7 ....|R-- .... ....|R-- .... ....
....|..|--- .... ....|R-- .... ....|R-- .... ....
....|..|B-8 JF.F ....|E-5 2F.F ....|G-4 2F1F ....
..1E|..|G-1 2A.F ....|--- .... ....|G-5 2F.7 ....
...F|..|G-2 2A.F ....|R-- .... ....|R-- .... ....
....|..|R-- .... ....|--- .... ....|--- .... ....
....|..|C-4 AF.F ....|G-5 2F.7 ....|A-4 2F3F ....
..1B|..|A-1 2A.F ....|--- .... ....|G-4 2F27 ....
..1B|..|A-2 2C.F ....|R-- .... ....|R-- .... ....
....|..|R-- .... ....|--- .... ....|--- .... ....
....|..|B-8 JF.F ....|E-5 2F.F ....|A-4 2F3F ....
..1B|..|A-1 2A.F ....|--- .... ....|R-- .... ....
..1B|..|A-2 2C.F ....|R-- .... ....|R-- .... ....
....|..|--- .... ....|--- .... ....|--- .... ....
....|..|C-4 AF.F ....|E-5 2F.F ....|A-4 2F3F ....
....|..|R-- .... ....|--- .... ....|R-- .... ....
....|..|R-- .... ....|R-- .... ....|R-- .... ....
....|..|R-- .... ....|R-- .... ....|R-- .... ....
....|..|B-8 JF.F ....|E-5 2F.F ....|A-4 2F3F ....
..1B|..|A-1 2A.F ....|R-- .... ....|R-- .... ....
..1B|..|A-2 2C.F ....|R-- .... ....|R-- .... ....
....|..|R-- .... ....|--- .... ....|--- .... ....
...F|..|C-4 AF.F ....|G-5 2F.F ....|G-5 2C.F ....
....|..|R-- .... ....|--- .... ....|R-- .... ....
....|..|R-- .... ....|R-- .... ....|R-- .... ....
....|..|--- .... ....|--- .... ....|--- .... ....
....|..|B-8 JF.F ....|E-5 2F.7 ....|A-4 2F3F ....
..1B|..|A-1 2A.F ....|--- .... ....|A-5 2F.F ....
..1B|..|A-2 2C.F ....|--- .... ....|R-- .... ....
....|..|R-- .... ....|R-- .... ....|R-- .... ....
....|..|C-4 AF.F ....|D-5 2F.F ....|A-4 2F3F ....
....|..|A-1 2F.7 ....|R-- .... ....|A-5 2F.F ....
....|..|A-2 2F.7 ....|R-- .... ....|R-- .... ....
....|..|R-- .... ....|--- .... ....|--- .... ....
....|..|B-8 JF.F ....|E-5 2F.F ....|A-4 2F3F ....
..1B|..|A-1 2A.F ....|--- .... ....|A-5 2F.F ....
..14|..|A-2 2F.F ....|D-5 2F.F ....|D-5 2C.F ....
....|..|--- .... ....|--- .... ....|--- .... ....
....|..|C-4 AF.F ....|C-5 2F.F ....|A-4 2F3F ....
..16|..|C-2 2A.F ....|--- .... ....|A-4 2F4F ....
..16|..|C-3 2C.F ....|--- .... ....|R-- .... ....
....|..|R-- .... ....|R-- .... ....|R-- .... ....
....|..|B-8 JF.F ....|E-5 2F.7 ....|A-4 2F3F ....
..16|..|C-2 2A.F ....|R-- .... ....|A-4 2F4F ....
..16|..|C-3 2C.F ....|--- .... ....|R-- .... ....
....|..|R-- .... ....|--- .... ....|--- .... ....
....|..|C-4 AF.F ....|G-5 2F.7 ....|A-4 2F3F ....
....|..|R-- .... ....|--- .... ....|A-4 2F4F ....
....|..|R-- .... ....|D-5 2F.A ....|R-- .... ....
....|..|--- .... ....|--- .... ....|--- .... ....
....|..|B-8 JF.F ....|C-5 2F.A ....|A-4 2F3F ....
..16|..|C-2 2A.F ....|--- .... ....|A-5 2F.7 ....
..16|..|C-3 2C.F ....|R-- .... ....|R-- .... ....
....|..|R-- .... ....|R-- .... ....|R-- .... ....

[Pattern20]
....|..|C-4 AF.F ....|D-5 2F.7 ....|C-4 2FAF ....
....|..|R-- .... ....|--- .... ....|A-5 2F.7 ....
....|..|R-- .... ....|--- .... ....|R-- .... ....
....|..|--- .... ....|--- .... ....|--- .... ....
....|..|B-8 JF.F ....|E-5 2F.7 ....|E-5 2F5F ....
..16|..|C-2 2A.F ....|--- .... ....|A-5 2F.7 ....
..16|..|C-3 2C.F ....|D-5 2F.7 ....|D-5 2F.7 ....
....|..|--- .... ....|--- .... ....|--- .... ....
....|..|C-4 AF.F ....|C-5 2F.7 ....|E-5 2F5F ....
....|..|C-2 2F.7 ....|--- .... ....|A-4 2F47 ....
....|..|C-3 2F.7 ....|R-- .... ....|R-- .... ....
....|..|R-- .... ....|--- .... ....|--- .... ....
....|..|B-8 JF.F ....|--- .... ....|E-5 2F5F ....
..16|..|C-2 2A.F ....|--- .... ....|A-4 2F47 ....
..16|..|C-3 2C.F ....|--- .... ....|R-- .... ....
....|..|--- .... ....|--- .... ....|R-- .... ....
....|..|C-4 AF.F ....|--- .... ....|F-4 2F1F ....
..22|..|F-1 2A.F ....|--- .... ....|A-4 2F47 ....
..11|..|F-2 2A.F ....|--- .... ....|R-- .... ....
....|..|R-- .... ....|--- .... ....|--- .... ....
....|..|B-8 JF.F ....|A-5 2F.F ....|F-4 2F1F ....
..22|..|F-1 2A.F ....|--- .... ....|R-- .... ....
..11|..|F-2 2A.F ....|R-- .... ....|R-- .... ....
....|..|--- .... ....|--- .... ....|--- .... ....
....|..|C-4 AF.F ....|A-5 2F.F ....|F-4 2F1F ....
....|..|R-- .... ....|--- .... ....|R-- .... ....
....|..|R-- .... ....|--- .... ....|R-- .... ....
....|..|--- .... ....|R-- .... ....|R-- .... ....
....|..|B-8 JF.F ....|A-5 2F.F ....|F-4 2F1F ....
..22|..|F-1 2A.F ....|--- .... ....|R-- .... ....
..11|..|F-2 2A.F ....|R-- .... ....|R-- .... ....
....|..|R-- .... ....|--- .... ....|--- .... ....
....|..|C-4 AF.F ....|A-5 2F.F ....|A-3 2FAF ....
....|..|R-- .... ....|--- .... ....|R-- .... ....
....|..|R-- .... ....|R-- .... ....|R-- .... ....
....|..|--- .... ....|--- .... ....|R-- .... ....
....|..|B-8 JF.F ....|A-5 2F.F ....|F-4 2F1F ....
..22|..|F-1 2A.F ....|--- .... ....|R-- .... ....
..11|..|F-2 2A.F ....|--- .... ....|--- .... ....
....|..|--- .... ....|R-- .... ....|R-- .... ....
..1B|..|C-4 AF.F ....|A-5 2F.F ....|A-5 2C.F ....
....|..|F-1 2F.7 ....|--- .... ....|R-- .... ....
....|..|F-2 2F.7 ....|R-- .... ....|R-- .... ....
....|..|R-- .... ....|R-- .... ....|R-- .... ....
....|..|B-8 JF.F ....|G-5 2F.F ....|F-4 2F1F ....
..22|..|F-1 2A.F ....|--- .... ....|R-- .... ....
..11|..|F-2 2A.F ....|R-- .... ....|R-- .... ....
....|..|R-- .... ....|R-- .... ....|R-- .... ....
....|..|C-4 AF.F ....|G-5 2F.F ....|G-4 2F1F ....
..1E|..|G-1 2A.F ....|--- .... ....|G-5 2F.F ....
...F|..|G-2 2A.F ....|--- .... ....|R-- .... ....
....|..|--- .... ....|R-- .... ....|R-- .... ....
....|..|B-8 JF.F ....|G-5 2F.F ....|G-4 2F1F ....
..1E|..|G-1 2A.F ....|--- .... ....|G-5 2F.F ....
...F|..|G-2 2A.F ....|R-- .... ....|R-- .... ....
....|..|R-- .... ....|R-- .... ....|R-- .... ....
....|..|C-4 AF.F ....|G-5 2F.F ....|G-4 2F1F ....
....|..|R-- .... ....|--- .... ....|G-4 2F2F ....
....|..|R-- .... ....|--- .... ....|R-- .... ....
....|..|R-- .... ....|R-- .... ....|R-- .... ....
....|..|B-8 JF.F ....|D-5 2F.F ....|G-4 2F1F ....
..1E|..|G-1 2A.F ....|--- .... ....|G-5 2F.A ....
...F|..|G-2 2A.F ....|--- .... ....|R-- .... ....
....|..|--- .... ....|R-- .... ....|R-- .... ....

[Pattern21]
....|..|C-4 AF.F ....|A-5 2F.7 ....|A-5 2F.7 ....
....|..|R-- .... ....|--- .... ....|G-5 2F.A ....
....|..|R-- .... ....|R-- .... ....|R-- .... ....
....|..|--- .... ....|R-- .... ....|R-- .... ....
....|..|B-8 JF.F ....|D-5 2F.F ....|G-4 2F1F ....
..1E|..|G-1 2A.F ....|--- .... ....|G-4 2F2A ....
...F|..|G-2 2A.F ....|--- .... ....|R-- .... ....
....|..|R-- .... ....|R-- .... ....|R-- .... ....
....|..|C-4 AF.F ....|G-5 2F.7 ....|G-4 2F1F ....
....|..|G-1 2F.7 ....|--- .... ....|G-5 2F.7 ....
....|..|G-2 2F.7 ....|R-- .... ....|R-- .... ....
....|..|--- .... ....|R-- .... ....|R-- .... ....
....|..|B-8 JF.F ....|E-5 2F.F ....|G-4 2F1F ....
..1E|..|G-1 2A.F ....|--- .... ....|G-5 2F.7 ....
...F|..|G-2 2A.F ....|R-- .... ....|R-- .... ....
....|..|R-- .... ....|--- .... ....|--- .... ....
....|..|C-4 AF.F ....|G-5 2F.7 ....|G#4 2F6F ....
..1C|..|G#1 2A.F ....|--- .... ....|G-4 2F27 ....
...E|..|G#2 2A.F ....|R-- .... ....|R-- .... ....
....|..|R-- .... ....|--- .... ....|--- .... ....
....|..|B-8 JF.F ....|E-5 2F.F ....|G#4 2F6F ....
..1C|..|G#1 2A.F ....|--- .... ....|R-- .... ....
...E|..|G#2 2A.F ....|R-- .... ....|R-- .... ....
....|..|--- .... ....|--- .... ....|--- .... ....
....|..|C-4 AF.F ....|E-5 2F.F ....|G#4 2F6F ....
....|..|R-- .... ....|--- .... ....|R-- .... ....
....|..|R-- .... ....|R-- .... ....|R-- .... ....
....|..|R-- .... ....|R-- .... ....|R-- .... ....
....|..|B-8 JF.F ....|E-5 2F.F ....|G#4 2F6F ....
..1C|..|G#1 2A.F ....|R-- .... ....|R-- .... ....
...E|..|G#2 2A.F ....|R-- .... ....|R-- .... ....
....|..|R-- .... ....|--- .... ....|--- .... ....
...E|..|C-4 AF.F ....|G#5 2F.F ....|G#5 2C.F ....
....|..|R-- .... ....|--- .... ....|R-- .... ....
....|..|R-- .... ....|R-- .... ....|R-- .... ....
....|..|--- .... ....|--- .... ....|--- .... ....
....|..|B-8 JF.F ....|E-5 2F.7 ....|G#4 2F6F ....
..1C|..|G#1 2A.F ....|--- .... ....|G#5 2F.F ....
...E|..|G#2 2A.F ....|--- .... ....|R-- .... ....
....|..|R-- .... ....|R-- .... ....|R-- .... ....
....|..|C-4 AF.F ....|D-5 2F.F ....|G#4 2F6F ....
....|..|G#1 2F.7 ....|R-- .... ....|G#5 2F.F ....
....|..|G#2 2F.7 ....|R-- .... ....|R-- .... ....
....|..|R-- .... ....|--- .... ....|--- .... ....
....|..|B-8 JF.F ....|E-5 2F.F ....|G#4 2F6F ....
..1C|..|G#1 2A.F ....|--- .... ....|G#5 2F.F ....
..14|..|G#2 2F.F ....|D-5 2F.F ....|D-5 2C.F ....
....|..|--- .... ....|--- .... ....|--- .... ....
....|..|C-4 AF.F ....|C-5 2F.F ....|A-4 2F3F ....
..1B|..|A-1 2A.F ....|--- .... ....|A-4 2F4F ....
..1B|..|A-2 2C.F ....|--- .... ....|R-- .... ....
....|..|R-- .... ....|R-- .... ....|R-- .... ....
....|..|B-8 JF.F ....|E-5 2F.7 ....|A-4 2F3F ....
..1B|..|A-1 2A.F ....|R-- .... ....|A-4 2F4F ....
..1B|..|A-2 2C.F ....|--- .... ....|R-- .... ....
....|..|R-- .... ....|--- .... ....|--- .... ....
....|..|C-4 AF.F ....|G#5 2F.7 ....|A-4 2F3F ....
....|..|R-- .... ....|--- .... ....|A-4 2F4F ....
....|..|R-- .... ....|D-5 2F.A ....|R-- .... ....
....|..|--- .... ....|--- .... ....|--- .... ....
....|..|B-8 JF.F ....|C-5 2F.A ....|A-4 2F3F ....
..1B|..|A-1 2A.F ....|--- .... ....|G#5 2F.7 ....
..1B|..|A-2 2C.F ....|R-- .... ....|R-- .... ....
....|..|R-- .... ....|R-- .... ....|R-- .... ....

[Pattern22]
....|..|C-4 AF.F ....|C-5 2F.F ....|C-4 2FAF ....
....|..|R-- .... ....|--- .... ....|G#5 2F.7 ....
....|..|R-- .... ....|--- .... ....|R-- .... ....
....|..|--- .... ....|--- .... ....|--- .... ....
....|..|B-8 JF.F ....|D-5 2F.F ....|E-5 2F5F ....
..1B|..|A-1 2A.F ....|--- .... ....|G#5 2F.7 ....
..1B|..|A-2 2C.F ....|D-5 2F.7 ....|D-5 2F.7 ....
....|..|--- .... ....|--- .... ....|--- .... ....
....|..|C-4 AF.F ....|E-5 2F.F ....|E-5 2F5F ....
....|..|A-1 2F.7 ....|--- .... ....|A-4 2F47 ....
....|..|A-2 2F.7 ....|R-- .... ....|R-- .... ....
....|..|R-- .... ....|--- .... ....|--- .... ....
....|..|B-8 JF.F ....|C-5 2F.F ....|E-5 2F5F ....
..1B|..|A-1 2A.F ....|--- .... ....|A-4 2F47 ....
..1B|..|A-2 2C.F ....|--- .... ....|R-- .... ....
....|..|--- .... ....|--- .... ....|R-- .... ....
....|..|C-4 AF.F ....|F-5 2F.F ....|F-4 2F1F ....
..22|..|F-1 2A.F ....|--- .... ....|A-4 2F47 ....
..11|..|F-2 2A.F ....|--- .... ....|R-- .... ....
....|..|R-- .... ....|--- .... ....|--- .... ....
....|..|B-8 JF.F ....|E-5 2F.A ....|F-4 2F1F ....
..22|..|F-1 2A.F ....|--- .... ....|R-- .... ....
..11|..|F-2 2A.F ....|R-- .... ....|R-- .... ....
....|..|R-- .... ....|--- .... ....|--- .... ....
....|..|C-4 AF.F ....|C-5 2F.7 ....|F-4 2F1F ....
....|..|R-- .... ....|--- .... ....|R-- .... ....
....|..|R-- .... ....|--- .... ....|R-- .... ....
....|..|--- .... ....|--- .... ....|R-- .... ....
....|..|B-8 JF.F ....|E-5 2F.F ....|F-4 2F1F ....
..22|..|F-1 2A.F ....|--- .... ....|R-- .... ....
..11|..|F-2 2A.F ....|--- .... ....|R-- .... ....
....|..|R-- .... ....|--- .... ....|--- .... ....
....|..|C-4 AF.F ....|F-5 2F.F ....|A-3 2FAF ....
....|..|R-- .... ....|--- .... ....|R-- .... ....
....|..|R-- .... ....|--- .... ....|R-- .... ....
....|..|--- .... ....|--- .... ....|R-- .... ....
....|..|B-8 JF.F ....|E-5 2F.F ....|F-4 2F1F ....
..22|..|F-1 2A.F ....|--- .... ....|R-- .... ....
..11|..|F-2 2A.F ....|--- .... ....|--- .... ....
....|..|--- .... ....|--- .... ....|R-- .... ....
..14|..|C-4 AF.F ....|D-5 2F.F ....|D-5 2C.F ....
....|..|F-1 2F.7 ....|--- .... ....|R-- .... ....
....|..|F-2 2F.7 ....|--- .... ....|--- .... ....
....|..|R-- .... ....|--- .... ....|R-- .... ....
....|..|B-8 JF.F ....|F-5 2F.A ....|F-4 2F1F ....
..22|..|F-1 2A.F ....|--- .... ....|R-- .... ....
..11|..|F-2 2A.F ....|--- .... ....|R-- .... ....
....|..|R-- .... ....|--- .... ....|R-- .... ....
....|..|C-4 AF.F ....|E-5 2F.A ....|G-4 2F1F ....
..1E|..|G-1 2A.F ....|--- .... ....|G-5 2F.F ....
...F|..|G-2 2A.F ....|--- .... ....|R-- .... ....
....|..|--- .... ....|--- .... ....|--- .... ....
....|..|B-8 JF.F ....|E-5 2F.7 ....|G-4 2F1F ....
..1E|..|G-1 2A.F ....|--- .... ....|G-5 2F.F ....
...F|..|G-2 2A.F ....|--- .... ....|R-- .... ....
....|..|R-- .... ....|--- .... ....|R-- .... ....
....|..|C-4 AF.F ....|F-5 2F.7 ....|G-4 2F1F ....
....|..|R-- .... ....|--- .... ....|G-4 2F2F ....
....|..|R-- .... ....|--- .... ....|R-- .... ....
....|..|R-- .... ....|--- .... ....|R-- .... ....
....|..|B-8 JF.F ....|B-4 2F.F ....|G-4 2F1F ....
..1E|..|G-1 2A.F ....|--- .... ....|G-5 2F.A ....
...F|..|G-2 2A.F ....|--- .... ....|R-- .... ....
....|..|--- .... ....|--- .... ....|--- .... ....

[Pattern23]
..2D|..|C-4 AF.F ....|C-5 2F.F ....|C-5 2C.F ....
....|..|R-- .... ....|--- .... ....|G-5 2F.A ....
....|..|R-- .... ....|--- .... ....|R-- .... ....
....|..|--- .... ....|--- .... ....|R-- .... ....
....|..|B-8 JF.F ....|R-- .... ....|G-4 2F1F ....
..1E|..|G-1 2A.F ....|--- .... ....|G-4 2F2A ....
...F|..|G-2 2A.F ....|--- .... ....|R-- .... ....
....|..|R-- .... ....|--- .... ....|--- .... ....
....|..|C-4 AF.F ....|D-5 2F.F ....|G-4 2F1F ....
....|..|G-1 2F.7 ....|--- .... ....|G-5 2F.7 ....
....|..|G-2 2F.7 ....|--- .... ....|R-- .... ....
....|..|--- .... ....|--- .... ....|--- .... ....
....|..|B-8 JF.F ....|R-- .... ....|G-4 2F1F ....
..1E|..|G-1 2A.F ....|--- .... ....|G-5 2F.7 ....
...F|..|G-2 2A.F ....|--- .... ....|R-- .... ....
....|..|R-- .... ....|--- .... ....|--- .... ....
....|..|C-4 AF.F ....|E-5 2F.F ....|A-4 2F3F ....
..1B|..|A-1 2A.F ....|--- .... ....|G-4 2F27 ....
..1B|..|A-2 2C.F ....|--- .... ....|R-- .... ....
....|..|R-- .... ....|--- .... ....|--- .... ....
....|..|B-8 JF.F ....|B-4 2F.7 ....|A-4 2F3F ....
..1B|..|A-1 2A.F ....|--- .... ....|R-- .... ....
..1B|..|A-2 2C.F ....|--- .... ....|R-- .... ....
....|..|--- .... ....|--- .... ....|--- .... ....
....|..|C-4 AF.F ....|C-5 2F.7 ....|A-4 2F3F ....
....|..|R-- .... ....|--- .... ....|R-- .... ....
....|..|R-- .... ....|R-- .... ....|R-- .... ....
..12|..|R-- .... ....|E-5 2F.F ....|E-5 2C.F ....
....|..|B-8 JF.F ....|E-5 2F.A ....|A-4 2F3F ....
..1B|..|A-1 2A.F ....|R-- .... ....|R-- .... ....
..1B|..|A-2 2C.F ....|--- .... ....|R-- .... ....
..12|..|R-- .... ....|E-5 2F.F ....|E-5 2C.F ....
....|..|C-4 AF.F ....|D-5 2F.7 ....|C-4 2F.F ....
....|..|R-- .... ....|--- .... ....|R-- .... ....
....|..|R-- .... ....|--- .... ....|R-- .... ....
....|..|--- .... ....|R-- .... ....|R-- .... ....
....|..|B-8 JF.F ....|D-5 2F.F ....|A-4 2F3F ....
..1B|..|A-1 2A.F ....|--- .... ....|A-5 2F.F ....
..1B|..|A-2 2C.F ....|R-- .... ....|R-- .... ....
....|..|R-- .... ....|E-5 2F.A ....|E-5 2F.A ....
....|..|C-4 AF.F ....|E-5 2F.7 ....|A-4 2F3F ....
....|..|A-1 2F.7 ....|R-- .... ....|A-5 2F.F ....
....|..|A-2 2F.7 ....|R-- .... ....|R-- .... ....
....|..|R-- .... ....|E-5 2F.A ....|E-5 2F.A ....
....|..|B-8 JF.F ....|C-5 2F.F ....|A-4 2F3F ....
..1B|..|A-1 2A.F ....|--- .... ....|A-5 2F.F ....
..1B|..|A-2 2C.F ....|--- .... ....|R-- .... ....
....|..|--- .... ....|R-- .... ....|R-- .... ....
....|..|C-4 AF.F ....|D-5 2F.A ....|A-4 2F3F ....
..16|..|C-2 2A.F ....|--- .... ....|A-4 2F4F ....
..16|..|C-3 2C.F ....|R-- .... ....|R-- .... ....
....|..|R-- .... ....|E-5 2F.7 ....|E-5 2F.7 ....
....|..|B-8 JF.F ....|--- .... ....|A-4 2F3F ....
..16|..|C-2 2A.F ....|R-- .... ....|A-4 2F4F ....
..16|..|C-3 2C.F ....|R-- .... ....|R-- .... ....
....|..|R-- .... ....|E-5 2F.7 ....|E-5 2F.7 ....
....|..|C-4 AF.F ....|C-5 2F.A ....|A-4 2F3F ....
....|..|R-- .... ....|--- .... ....|A-4 2F4F ....
....|..|R-- .... ....|--- .... ....|R-- .... ....
....|..|--- .... ....|R-- .... ....|R-- .... ....
....|..|B-8 JF.F ....|D-5 2F.7 ....|A-4 2F3F ....
..16|..|C-2 2A.F ....|--- .... ....|A-5 2F.7 ....
..16|..|C-3 2C.F ....|--- .... ....|R-- .... ....
....|..|R-- .... ....|--- .... ....|--- .... ....

[Pattern24]
....|..|C-4 AF.F ....|C-5 2F.F ....|C-4 2FAF ....
....|..|R-- .... ....|--- .... ....|A-5 2F.7 ....
....|..|R-- .... ....|R-- .... ....|R-- .... ....
....|..|--- .... ....|--- .... ....|R-- .... ....
....|..|B-8 JF.F ....|D-5 2F.F ....|E-5 2F5F ....
..16|..|C-2 2A.F ....|--- .... ....|A-5 2F.7 ....
..16|..|C-3 2C.F ....|--- .... ....|R-- .... ....
....|..|--- .... ....|--- .... ....|--- .... ....
....|..|C-4 AF.F ....|E-5 2F.F ....|E-5 2F5F ....
....|..|C-2 2F.7 ....|--- .... ....|A-4 2F47 ....
....|..|C-3 2F.7 ....|--- .... ....|R-- .... ....
....|..|R-- .... ....|--- .... ....|--- .... ....
....|..|B-8 JF.F ....|C-5 2F.F ....|E-5 2F5F ....
..16|..|C-2 2A.F ....|--- .... ....|A-4 2F47 ....
..16|..|C-3 2C.F ....|R-- .... ....|R-- .... ....
....|..|--- .... ....|--- .... ....|R-- .... ....
....|..|C-4 AF.F ....|F-5 2F.F ....|F-4 2F1F ....
..22|..|F-1 2A.F ....|--- .... ....|A-4 2F47 ....
..11|..|F-2 2A.F ....|--- .... ....|R-- .... ....
....|..|R-- .... ....|--- .... ....|--- .... ....
....|..|B-8 JF.F ....|E-5 2F.A ....|F-4 2F1F ....
..22|..|F-1 2A.F ....|--- .... ....|R-- .... ....
..11|..|F-2 2A.F ....|--- .... ....|R-- .... ....
....|..|--- .... ....|--- .... ....|--- .... ....
....|..|C-4 AF.F ....|C-5 2F.7 ....|F-4 2F1F ....
....|..|R-- .... ....|--- .... ....|R-- .... ....
....|..|R-- .... ....|--- .... ....|R-- .... ....
....|..|--- .... ....|--- .... ....|R-- .... ....
....|..|B-8 JF.F ....|E-5 2F.F ....|F-4 2F1F ....
..22|..|F-1 2A.F ....|--- .... ....|R-- .... ....
..11|..|F-2 2A.F ....|--- .... ....|R-- .... ....
....|..|R-- .... ....|--- .... ....|--- .... ....
....|..|C-4 AF.F ....|F-5 2F.F ....|A-3 2FAF ....
....|..|R-- .... ....|--- .... ....|R-- .... ....
....|..|R-- .... ....|--- .... ....|R-- .... ....
....|..|--- .... ....|--- .... ....|R-- .... ....
....|..|B-8 JF.F ....|E-5 2F.F ....|F-4 2F1F ....
..22|..|F-1 2A.F ....|--- .... ....|R-- .... ....
..11|..|F-2 2A.F ....|--- .... ....|--- .... ....
....|..|--- .... ....|--- .... ....|R-- .... ....
..14|..|C-4 AF.F ....|D-5 2F.F ....|D-5 2C.F ....
....|..|F-1 2F.7 ....|--- .... ....|R-- .... ....
....|..|F-2 2F.7 ....|--- .... ....|--- .... ....
....|..|R-- .... ....|--- .... ....|R-- .... ....
....|..|B-8 JF.F ....|F-5 2F.A ....|F-4 2F1F ....
..22|..|F-1 2A.F ....|--- .... ....|R-- .... ....
..11|..|F-2 2A.F ....|--- .... ....|R-- .... ....
....|..|R-- .... ....|--- .... ....|R-- .... ....
....|..|C-4 AF.F ....|E-5 2F.A ....|G-4 2F1F ....
..1E|..|G-1 2A.F ....|--- .... ....|G-5 2F.F ....
...F|..|G-2 2A.F ....|--- .... ....|R-- .... ....
....|..|--- .... ....|--- .... ....|--- .... ....
....|..|B-8 JF.F ....|E-5 2F.7 ....|G-4 2F1F ....
..1E|..|G-1 2A.F ....|--- .... ....|G-5 2F.F ....
...F|..|G-2 2A.F ....|--- .... ....|R-- .... ....
....|..|R-- .... ....|--- .... ....|R-- .... ....
....|..|C-4 AF.F ....|F-5 2F.7 ....|G-4 2F1F ....
....|..|R-- .... ....|--- .... ....|G-4 2F2F ....
....|..|R-- .... ....|--- .... ....|R-- .... ....
....|..|R-- .... ....|--- .... ....|R-- .... ....
....|..|B-8 JF.F ....|B-4 2F.F ....|G-4 2F1F ....
..1E|..|G-1 2A.F ....|--- .... ....|G-5 2F.A ....
...F|..|G-2 2A.F ....|--- .... ....|R-- .... ....
....|..|--- .... ....|--- .... ....|--- .... ....

[Pattern25]
..2D|..|C-4 AF.F ....|C-5 2F.F ....|C-5 2C.F ....
....|..|R-- .... ....|--- .... ....|G-5 2F.A ....
....|..|R-- .... ....|--- .... ....|R-- .... ....
....|..|--- .... ....|--- .... ....|R-- .... ....
....|..|B-8 JF.F ....|R-- .... ....|G-4 2F1F ....
..1E|..|G-1 2A.F ....|--- .... ....|G-4 2F2A ....
...F|..|G-2 2A.F ....|--- .... ....|R-- .... ....
....|..|R-- .... ....|--- .... ....|--- .... ....
....|..|C-4 AF.F ....|D-5 2F.F ....|G-4 2F1F ....
....|..|G-1 2F.7 ....|--- .... ....|G-5 2F.7 ....
....|..|G-2 2F.7 ....|--- .... ....|R-- .... ....
....|..|--- .... ....|--- .... ....|--- .... ....
....|..|B-8 JF.F ....|R-- .... ....|G-4 2F1F ....
..1E|..|G-1 2A.F ....|--- .... ....|G-5 2F.7 ....
...F|..|G-2 2A.F ....|--- .... ....|R-- .... ....
....|..|R-- .... ....|--- .... ....|--- .... ....
....|..|C-4 AF.F ....|E-5 2F.F ....|G#4 2F6F ....
..1C|..|G#1 2A.F ....|--- .... ....|G-4 2F27 ....
...E|..|G#2 2A.F ....|--- .... ....|R-- .... ....
....|..|R-- .... ....|--- .... ....|--- .... ....
....|..|B-8 JF.F ....|B-4 2F.7 ....|G#4 2F6F ....
..1C|..|G#1 2A.F ....|--- .... ....|R-- .... ....
...E|..|G#2 2A.F ....|--- .... ....|R-- .... ....
....|..|--- .... ....|--- .... ....|--- .... ....
....|..|C-4 AF.F ....|C-5 2F.7 ....|G#4 2F6F ....
....|..|R-- .... ....|--- .... ....|R-- .... ....
....|..|R-- .... ....|R-- .... ....|R-- .... ....
..12|..|R-- .... ....|E-5 2F.F ....|E-5 2C.F ....
....|..|B-8 JF.F ....|E-5 2F.A ....|G#4 2F6F ....
..1C|..|G#1 2A.F ....|R-- .... ....|R-- .... ....
...E|..|G#2 2A.F ....|--- .... ....|R-- .... ....
..12|..|R-- .... ....|E-5 2F.F ....|E-5 2C.F ....
....|..|C-4 AF.F ....|D-5 2F.7 ....|C-4 2F.F ....
....|..|R-- .... ....|--- .... ....|R-- .... ....
....|..|R-- .... ....|--- .... ....|R-- .... ....
....|..|--- .... ....|R-- .... ....|R-- .... ....
....|..|B-8 JF.F ....|D-5 2F.F ....|G#4 2F6F ....
..1C|..|G#1 2A.F ....|--- .... ....|G#5 2F.F ....
...E|..|G#2 2A.F ....|R-- .... ....|R-- .... ....
....|..|R-- .... ....|E-5 2F.A ....|E-5 2F.A ....
....|..|C-4 AF.F ....|E-5 2F.7 ....|G#4 2F6F ....
....|..|G#1 2F.7 ....|R-- .... ....|G#5 2F.F ....
....|..|G#2 2F.7 ....|R-- .... ....|R-- .... ....
....|..|R-- .... ....|E-5 2F.A ....|E-5 2F.A ....
....|..|B-8 JF.F ....|C-5 2F.F ....|G#4 2F6F ....
..1C|..|G#1 2A.F ....|--- .... ....|G#5 2F.F ....
...E|..|G#2 2A.F ....|--- .... ....|R-- .... ....
....|..|--- .... ....|R-- .... ....|R-- .... ....
....|..|C-4 AF.F ....|D-5 2F.A ....|A-4 2F3F ....
..1B|..|A-1 2A.F ....|--- .... ....|A-4 2F4F ....
..1B|..|A-2 2C.F ....|R-- .... ....|R-- .... ....
....|..|R-- .... ....|E-5 2F.7 ....|E-5 2F.7 ....
....|..|B-8 JF.F ....|--- .... ....|A-4 2F3F ....
..1B|..|A-1 2A.F ....|R-- .... ....|A-4 2F4F ....
..1B|..|A-2 2C.F ....|R-- .... ....|R-- .... ....
....|..|R-- .... ....|E-5 2F.7 ....|E-5 2F.7 ....
....|..|C-4 AF.F ....|C-5 2F.A ....|A-4 2F3F ....
....|..|R-- .... ....|--- .... ....|A-4 2F4F ....
....|..|R-- .... ....|--- .... ....|R-- .... ....
....|..|--- .... ....|R-- .... ....|R-- .... ....
....|..|B-8 JF.F ....|D-5 2F.7 ....|A-4 2F3F ....
..1B|..|A-1 2A.F ....|--- .... ....|G#5 2F.7 ....
..1B|..|A-2 2C.F ....|--- .... ....|R-- .... ....
....|..|R-- .... ....|--- .... ....|--- .... ....

[Pattern26]
....|..|C-4 AF.F ....|--- .... ....|C-4 2FAF ....
....|..|R-- .... ....|--- .... ....|G#5 2F.7 ....
....|..|R-- .... ....|R-- .... ....|R-- .... ....
....|..|--- .... ....|--- .... ....|R-- .... ....
....|..|B-8 JF.F ....|C-5 2F.7 ....|E-5 2F5F ....
..1B|..|A-1 2A.F ....|--- .... ....|G#5 2F.7 ....
..1B|..|A-2 2C.F ....|--- .... ....|R-- .... ....
....|..|--- .... ....|--- .... ....|--- .... ....
....|..|C-4 AF.F ....|--- .... ....|E-5 2F5F ....
....|..|A-1 2F.7 ....|--- .... ....|A-4 2F47 ....
....|..|A-2 2F.7 ....|--- .... ....|R-- .... ....
....|..|R-- .... ....|--- .... ....|--- .... ....
....|..|B-8 JF.F ....|--- .... ....|E-5 2F5F ....
..1B|..|A-1 2A.F ....|--- .... ....|A-4 2F47 ....
..1B|..|A-2 2C.F ....|R-- .... ....|R-- .... ....
....|..|--- .... ....|--- .... ....|R-- .... ....
....|..|C-4 AF.F ....|A-4 2F.F ....|A-4 2F3F ....
..1B|..|A-1 2A.F ....|--- .... ....|A-4 2F47 ....
..36|..|A-1 2A.F ....|--- .... ....|R-- .... ....
....|..|R-- .... ....|R-- .... ....|R-- .... ....
....|..|B-8 JF.F ....|--- .... ....|A-4 2F3F ....
..1B|..|A-1 2A.F ....|--- .... ....|R-- .... ....
..1B|..|A-1 2A.F ....|--- .... ....|R-- .... ....
....|..|R-- .... ....|--- .... ....|--- .... ....
....|..|C-4 AF.F ....|A-4 2F.F ....|A-4 2F3F ....
..16|..|C-2 2A.F ....|--- .... ....|R-- .... ....
..16|..|C-2 2A.F ....|--- .... ....|R-- .... ....
....|..|R-- .... ....|--- .... ....|R-- .... ....
....|..|B-8 JF.F ....|A-4 2F.A ....|A-4 2F3F ....
..16|..|C-2 2A.F ....|--- .... ....|R-- .... ....
..16|..|C-2 2A.F ....|--- .... ....|R-- .... ....
....|..|R-- .... ....|R-- .... ....|R-- .... ....
....|..|C-4 AF.F ....|E-5 2F.F ....|A-4 2F3F ....
..12|..|E-2 2A.F ....|--- .... ....|A-4 2F4F ....
..12|..|E-2 2A.F ....|--- .... ....|R-- .... ....
....|..|R-- .... ....|R-- .... ....|R-- .... ....
....|..|B-8 JF.F ....|E-5 2F.F ....|A-4 2F3F ....
..12|..|E-2 2A.F ....|--- .... ....|R-- .... ....
..12|..|E-2 2A.F ....|R-- .... ....|R-- .... ....
....|..|R-- .... ....|--- .... ....|R-- .... ....
....|..|C-4 AF.F ....|F-5 2F.F ....|A-4 2F3F ....
..11|..|F-2 2A.F ....|--- .... ....|E-5 2F.F ....
..11|..|F-2 2A.F ....|--- .... ....|R-- .... ....
....|..|R-- .... ....|R-- .... ....|R-- .... ....
....|..|B-8 JF.F ....|E-5 2F.F ....|A-4 2F3F ....
..11|..|F-2 2A.F ....|--- .... ....|R-- .... ....
..11|..|F-2 2A.F ....|--- .... ....|R-- .... ....
....|..|R-- .... ....|R-- .... ....|R-- .... ....
....|..|C-4 AF.F ....|A-4 2F.7 ....|A-4 2F3F ....
..1B|..|A-1 2A.F ....|--- .... ....|R-- .... ....
..36|..|A-1 2A.F ....|R-- .... ....|R-- .... ....
....|..|R-- .... ....|--- .... ....|--- .... ....
....|..|B-8 JF.F ....|A-4 2F.F ....|A-4 2F3F ....
..1B|..|A-1 2A.F ....|--- .... ....|A-4 2F4F ....
..1B|..|A-1 2A.F ....|R-- .... ....|R-- .... ....
....|..|R-- .... ....|R-- .... ....|R-- .... ....
....|..|C-4 AF.F ....|A-4 2F.F ....|A-4 2F3F ....
..16|..|C-2 2A.F ....|--- .... ....|A-4 2F4F ....
..16|..|C-2 2A.F ....|--- .... ....|R-- .... ....
....|..|R-- .... ....|R-- .... ....|R-- .... ....
....|..|B-8 JF.F ....|E-5 2F.7 ....|A-4 2F3F ....
..16|..|C-2 2A.F ....|--- .... ....|E-5 2F.F ....
..16|..|C-2 2A.F ....|R-- .... ....|R-- .... ....
....|..|R-- .... ....|--- .... ....|R-- .... ....

[Pattern27]
....|..|C-4 AF.F ....|E-5 2F.F ....|A-4 2F3F ....
..12|..|E-2 2A.F ....|--- .... ....|A-4 2F4F ....
..12|..|E-2 2A.F ....|R-- .... ....|R-- .... ....
....|..|R-- .... ....|--- .... ....|--- .... ....
....|..|B-8 JF.F ....|E-5 2F.F ....|A-4 2F3F ....
..12|..|E-2 2A.F ....|--- .... ....|R-- .... ....
..12|..|E-2 2A.F ....|R-- .... ....|R-- .... ....
....|..|R-- .... ....|--- .... ....|--- .... ....
....|..|C-4 AF.F ....|F-5 2F.F ....|A-4 2F3F ....
..11|..|F-2 2A.F ....|--- .... ....|E-5 2F.A ....
..11|..|F-2 2A.F ....|R-- .... ....|R-- .... ....
....|..|R-- .... ....|--- .... ....|R-- .... ....
....|..|B-8 JF.F ....|E-5 2F.F ....|A-4 2F3F ....
..12|..|E-2 2A.F ....|--- .... ....|A-4 2F47 ....
..12|..|E-2 2A.F ....|R-- .... ....|R-- .... ....
....|..|R-- .... ....|R-- .... ....|R-- .... ....
....|..|C-4 AF.F ....|A-4 2F.F ....|A-4 2F3F ....
..1B|..|A-1 2A.F ....|--- .... ....|A-4 2F47 ....
..36|..|A-1 2A.F ....|R-- .... ....|R-- .... ....
....|..|R-- .... ....|R-- .... ....|R-- .... ....
....|..|B-8 JF.F ....|F-5 2F.A ....|A-4 2F3F ....
..1B|..|A-1 2A.F ....|--- .... ....|E-5 2F.7 ....
..1B|..|A-1 2A.F ....|R-- .... ....|R-- .... ....
....|..|R-- .... ....|--- .... ....|R-- .... ....
....|..|C-4 AF.F ....|A-4 2F.F ....|A-4 2F3F ....
..16|..|C-2 2A.F ....|--- .... ....|A-4 2F47 ....
..16|..|C-2 2A.F ....|R-- .... ....|R-- .... ....
....|..|R-- .... ....|R-- .... ....|R-- .... ....
....|..|B-8 JF.F ....|E-5 2F.7 ....|A-4 2F3F ....
..16|..|C-2 2A.F ....|--- .... ....|R-- .... ....
..16|..|C-2 2A.F ....|R-- .... ....|R-- .... ....
....|..|R-- .... ....|R-- .... ....|R-- .... ....
....|..|C-4 AF.F ....|E-5 2F.F ....|A-4 2F3F ....
..12|..|E-2 2A.F ....|--- .... ....|A-4 2F4F ....
..12|..|E-2 2A.F ....|--- .... ....|R-- .... ....
....|..|R-- .... ....|R-- .... ....|R-- .... ....
....|..|B-8 JF.F ....|E-5 2F.F ....|A-4 2F3F ....
..12|..|E-2 2A.F ....|--- .... ....|R-- .... ....
..12|..|E-2 2A.F ....|R-- .... ....|R-- .... ....
....|..|R-- .... ....|R-- .... ....|R-- .... ....
....|..|C-4 AF.F ....|F-5 2F.F ....|A-4 2F3F ....
..11|..|F-2 2A.F ....|--- .... ....|E-5 2F.F ....
..11|..|F-2 2A.F ....|--- .... ....|R-- .... ....
....|..|R-- .... ....|R-- .... ....|R-- .... ....
....|..|B-8 JF.F ....|E-5 2F.F ....|A-4 2F3F ....
..11|..|F-2 2A.F ....|--- .... ....|R-- .... ....
..11|..|F-2 2A.F ....|--- .... ....|R-- .... ....
....|..|R-- .... ....|R-- .... ....|R-- .... ....
....|..|C-4 AF.F ....|A-4 2F.7 ....|C-4 2F7F ....
..1E|..|G-1 2A.F ....|--- .... ....|R-- .... ....
....|..|C-2 2F.7 ....|R-- .... ....|R-- .... ....
....|..|R-- .... ....|--- .... ....|--- .... ....
....|..|B-8 JF.F ....|C-5 2F.F ....|C-4 2F7F ....
...F|..|G-2 2A.F ....|R-- .... ....|E-4 2F8F ....
...F|..|G-2 2A.F ....|--- .... ....|R-- .... ....
....|..|R-- .... ....|R-- .... ....|R-- .... ....
....|..|C-4 AF.F ....|C-5 2F.F ....|C-4 2F7F ....
....|..|E-2 2F.7 ....|--- .... ....|E-4 2F8F ....
....|..|E-2 2F.7 ....|--- .... ....|R-- .... ....
....|..|R-- .... ....|R-- .... ....|R-- .... ....
....|..|B-8 JF.F ....|A-4 2F.F ....|C-4 2F7F ....
...F|..|G-2 2A.F ....|--- .... ....|E-5 2F.F ....
...F|..|G-2 2A.F ....|R-- .... ....|R-- .... ....
....|..|R-- .... ....|--- .... ....|--- .... ....

[Pattern28]
....|..|C-4 AF.F ....|C-5 2F.F ....|C-4 2F7F ....
..1E|..|G-1 2A.F ....|R-- .... ....|E-4 2F8F ....
....|..|F-2 2F.7 ....|--- .... ....|R-- .... ....
....|..|R-- .... ....|--- .... ....|--- .... ....
....|..|B-8 JF.F ....|E-5 2F.7 ....|C-4 2F7F ....
...F|..|G-2 2A.F ....|R-- .... ....|R-- .... ....
...F|..|G-2 2A.F ....|--- .... ....|R-- .... ....
....|..|R-- .... ....|R-- .... ....|R-- .... ....
....|..|C-4 AF.F ....|C-5 2F.F ....|C-4 2F7F ....
....|..|G-1 2F.7 ....|--- .... ....|E-5 2F.A ....
....|..|R-- .... ....|--- .... ....|R-- .... ....
....|..|R-- .... ....|--- .... ....|--- .... ....
....|..|B-8 JF.F ....|C-5 2F.7 ....|C-4 2F7F ....
...F|..|G-2 2A.F ....|R-- .... ....|E-4 2F87 ....
...F|..|G-2 2A.F ....|--- .... ....|R-- .... ....
....|..|R-- .... ....|--- .... ....|R-- .... ....
....|..|C-4 AF.F ....|C-5 2F.7 ....|C-4 2F77 ....
....|..|R-- .... ....|R-- .... ....|E-4 2F87 ....
....|..|G-2 2F.A ....|--- .... ....|R-- .... ....
....|..|--- .... ....|R-- .... ....|R-- .... ....
..1B|..|A-1 2A.F ....|G-4 2F.F ....|C-4 2F.F ....
..1B|..|A-1 2A.F ....|--- .... ....|E-5 2F.7 ....
....|..|G-2 2F.7 ....|R-- .... ....|R-- .... ....
....|..|R-- .... ....|--- .... ....|--- .... ....
..1B|..|C-4 AF.F ....|A-4 2F.F ....|A-4 2C.F ....
....|..|G-1 2F.7 ....|--- .... ....|E-4 2F87 ....
....|..|G-2 2F.A ....|--- .... ....|R-- .... ....
....|..|R-- .... ....|R-- .... ....|R-- .... ....
..1B|..|A-1 2A.F ....|G-4 2F.F ....|C-4 2F.F ....
..1B|..|A-1 2A.F ....|R-- .... ....|R-- .... ....
....|..|G-2 2F.7 ....|--- .... ....|R-- .... ....
....|..|--- .... ....|R-- .... ....|R-- .... ....
..1B|..|C-4 AF.F ....|A-4 2F.F ....|A-4 2C.F ....
....|..|R-- .... ....|--- .... ....|--- .... ....
....|..|R-- .... ....|R-- .... ....|R-- .... ....
....|..|--- .... ....|R-- .... ....|R-- .... ....
..1B|..|A-1 2A.F ....|A-4 2F.F ....|C-4 2F.F ....
..1B|..|A-1 2A.F ....|--- .... ....|--- .... ....
....|..|G-2 2F.7 ....|--- .... ....|R-- .... ....
....|..|R-- .... ....|R-- .... ....|R-- .... ....
....|..|C-4 AF.F ....|R-- .... ....|R-- .... ....
....|..|R-- .... ....|--- .... ....|--- .... ....
....|..|--- .... ....|--- .... ....|--- .... ....
....|..|--- .... ....|R-- .... ....|R-- .... ....
..1B|..|A-1 2A.F ....|A-4 2F.F ....|C-4 2F.F ....
..1B|..|A-1 2A.F ....|--- .... ....|--- .... ....
....|..|--- .... ....|R-- .... ....|R-- .... ....
....|..|--- .... ....|R-- .... ....|R-- .... ....
..2D|..|C-4 AF.F ....|C-5 2F.F ....|C-5 2C.F ....
....|..|R-- .... ....|--- .... ....|--- .... ....
....|..|--- .... ....|--- .... ....|--- .... ....
....|..|--- .... ....|R-- .... ....|R-- .... ....
..16|..|C-2 2A.F ....|A-4 2F.F ....|E-4 2F.F ....
..16|..|C-2 2A.F ....|--- .... ....|--- .... ....
....|..|--- .... ....|R-- .... ....|R-- .... ....
....|..|--- .... ....|R-- .... ....|R-- .... ....
...F|..|C-4 AF.F ....|G-4 2F.F ....|G-4 2C.F ....
....|..|R-- .... ....|--- .... ....|--- .... ....
....|..|--- .... ....|R-- .... ....|R-- .... ....
....|..|--- .... ....|R-- .... ....|R-- .... ....
..16|..|C-2 2A.F ....|A-4 2F.F ....|E-4 2F.F ....
..16|..|C-2 2A.F ....|--- .... ....|--- .... ....
....|..|--- .... ....|--- .... ....|--- .... ....
....|..|--- .... ....|--- .... ....|--- .... ....

[Pattern29]
...F|..|C-4 AF.F ....|G-4 2F.F ....|G-4 2C.F ....
....|..|R-- .... ....|--- .... ....|--- .... ....
....|..|--- .... ....|R-- .... ....|R-- .... ....
....|..|--- .... ....|R-- .... ....|R-- .... ....
..11|..|F-2 2A.F ....|A-4 2F.7 ....|A-4 2F.F ....
..11|..|F-2 2A.F ....|--- .... ....|--- .... ....
....|..|--- .... ....|R-- .... ....|R-- .... ....
....|..|--- .... ....|--- .... ....|--- .... ....
....|..|C-4 AF.F ....|C-5 2F.7 ....|C-5 2F.7 ....
....|..|R-- .... ....|--- .... ....|--- .... ....
....|..|--- .... ....|--- .... ....|--- .... ....
....|..|--- .... ....|--- .... ....|--- .... ....
..11|..|F-2 2A.F ....|A-4 2F.7 ....|A-4 2F.F ....
..11|..|F-2 2A.F ....|--- .... ....|--- .... ....
....|..|--- .... ....|R-- .... ....|R-- .... ....
....|..|--- .... ....|--- .... ....|--- .... ....
....|..|C-4 AF.F ....|G-4 2F.7 ....|G-4 2F.7 ....
....|..|R-- .... ....|--- .... ....|--- .... ....
....|..|--- .... ....|R-- .... ....|R-- .... ....
....|..|--- .... ....|--- .... ....|--- .... ....
..1B|..|A-1 2A.F ....|A-4 2F.F ....|C-4 2F.F ....
..1B|..|A-1 2A.F ....|--- .... ....|--- .... ....
....|..|--- .... ....|R-- .... ....|R-- .... ....
....|..|--- .... ....|--- .... ....|--- .... ....
..1B|..|C-4 AF.F ....|A-4 2F.F ....|A-4 2C.F ....
....|..|R-- .... ....|--- .... ....|--- .... ....
....|..|--- .... ....|--- .... ....|--- .... ....
....|..|--- .... ....|--- .... ....|--- .... ....
..1B|..|A-1 2A.F ....|G-4 2F.F ....|C-4 2F.F ....
..1B|..|A-1 2A.F ....|--- .... ....|--- .... ....
....|..|--- .... ....|R-- .... ....|R-- .... ....
....|..|--- .... ....|--- .... ....|--- .... ....
..1B|..|C-4 AF.F ....|A-4 2F.F ....|A-4 2C.F ....
....|..|R-- .... ....|--- .... ....|--- .... ....
....|..|--- .... ....|R-- .... ....|R-- .... ....
....|..|--- .... ....|--- .... ....|--- .... ....
..1B|..|A-1 2A.F ....|G-4 2F.F ....|C-4 2F.F ....
..1B|..|A-1 2A.F ....|--- .... ....|--- .... ....
....|..|--- .... ....|R-- .... ....|R-- .... ....
....|..|--- .... ....|--- .... ....|--- .... ....
..1B|..|C-4 AF.F ....|A-4 2F.F ....|A-4 2C.F ....
....|..|R-- .... ....|--- .... ....|--- .... ....
....|..|--- .... ....|R-- .... ....|R-- .... ....
....|..|--- .... ....|R-- .... ....|R-- .... ....
..1B|..|A-1 2A.F ....|G-4 2F.F ....|C-4 2F.F ....
..1B|..|A-1 2A.F ....|--- .... ....|--- .... ....
....|..|--- .... ....|R-- .... ....|R-- .... ....
....|..|--- .... ....|--- .... ....|--- .... ....
..2D|..|C-4 AF.F ....|C-5 2F.F ....|C-5 2C.F ....
....|..|R-- .... ....|--- .... ....|--- .... ....
....|..|--- .... ....|R-- .... ....|R-- .... ....
....|..|--- .... ....|R-- .... ....|R-- .... ....
..16|..|C-2 2A.F ....|A-4 2F.F ....|E-4 2F.F ....
..16|..|C-2 2A.F ....|--- .... ....|--- .... ....
....|..|--- .... ....|R-- .... ....|R-- .... ....
....|..|--- .... ....|R-- .... ....|R-- .... ....
...F|..|C-4 AF.F ....|G-4 2F.F ....|G-4 2C.F ....
....|..|R-- .... ....|--- .... ....|--- .... ....
....|..|--- .... ....|R-- .... ....|R-- .... ....
....|..|--- .... ....|--- .... ....|--- .... ....
..16|..|C-2 2A.F ....|A-4 2F.F ....|E-4 2F.F ....
..16|..|C-2 2A.F ....|--- .... ....|--- .... ....
....|..|--- .... ....|R-- .... ....|R-- .... ....
....|..|--- .... ....|R-- .... ....|R-- .... ....

[Pattern30]
....|..|C-4 AF.F ....|A-4 2F.7 ....|A-4 2F.7 ....
....|..|R-- .... ....|--- .... ....|--- .... ....
....|..|--- .... ....|--- .... ....|--- .... ....
....|..|--- .... ....|R-- .... ....|R-- .... ....
..1E|..|G-1 2A.F ....|E-4 2F.F ....|B-3 2F.F ....
..1E|..|G-1 2A.F ....|--- .... ....|--- .... ....
....|..|--- .... ....|R-- .... ....|R-- .... ....
....|..|--- .... ....|--- .... ....|--- .... ....
...F|..|C-4 AF.F ....|G-4 2F.F ....|G-4 2C.F ....
....|..|R-- .... ....|--- .... ....|--- .... ....
....|..|--- .... ....|--- .... ....|--- .... ....
....|..|--- .... ....|R-- .... ....|R-- .... ....
..1E|..|G-1 2A.F ....|A-4 2F.F ....|F-4 2F.F ....
..1E|..|G-1 2A.F ....|--- .... ....|--- .... ....
....|..|--- .... ....|--- .... ....|--- .... ....
....|..|--- .... ....|R-- .... ....|R-- .... ....
..1B|..|C-4 AF.F ....|A-4 2F.F ....|A-4 2C.F ....
....|..|R-- .... ....|--- .... ....|--- .... ....
....|..|--- .... ....|R-- .... ....|R-- .... ....
....|..|--- .... ....|--- .... ....|--- .... ....
..1B|..|A-1 2A.F ....|A-4 2F.7 ....|E-4 2F.7 ....
..1B|..|A-1 2A.F ....|--- .... ....|--- .... ....
....|..|--- .... ....|--- .... ....|--- .... ....
....|..|--- .... ....|--- .... ....|--- .... ....
....|..|C-4 AF.F ....|A-4 2F.A ....|R-- .... ....
....|..|R-- .... ....|--- .... ....|--- .... ....
....|..|--- .... ....|--- .... ....|--- .... ....
....|..|--- .... ....|R-- .... ....|R-- .... ....
..1B|..|A-1 2A.F ....|E-4 2F.7 ....|B-3 2F.7 ....
..1B|..|A-1 2A.F ....|--- .... ....|--- .... ....
....|..|--- .... ....|R-- .... ....|R-- .... ....
....|..|--- .... ....|--- .... ....|--- .... ....
....|..|C-4 AF.F ....|G-4 2F.7 ....|G-4 2F.7 ....
....|..|R-- .... ....|--- .... ....|--- .... ....
....|..|--- .... ....|--- .... ....|--- .... ....
....|..|--- .... ....|--- .... ....|--- .... ....
..1B|..|A-1 2A.F ....|A-4 2F.7 ....|F-4 2F.7 ....
..1B|..|A-1 2A.F ....|--- .... ....|--- .... ....
....|..|--- .... ....|--- .... ....|--- .... ....
....|..|--- .... ....|R-- .... ....|R-- .... ....
....|..|C-4 AF.F ....|A-4 2F.7 ....|A-4 2F.7 ....
....|..|R-- .... ....|--- .... ....|--- .... ....
....|..|--- .... ....|--- .... ....|--- .... ....
....|..|--- .... ....|--- .... ....|--- .... ....
..1B|..|A-1 2A.F ....|--- .... ....|--- .... ....
..1B|..|A-1 2A.F ....|--- .... ....|--- .... ....
....|..|--- .... ....|--- .... ....|--- .... ....
....|..|--- .... ....|--- .... ....|--- .... ....
....|..|C-4 AF.F ....|E-5 2F.F ....|E-4 2FBF ....
....|..|R-- .... ....|--- .... ....|--- .... ....
....|..|--- .... ....|--- .... ....|--- .... ....
....|..|--- .... ....|--- .... ....|--- .... ....
..16|..|C-2 2A.F ....|--- .... ....|--- .... ....
..16|..|C-2 2A.F ....|R-- .... ....|R-- .... ....
....|..|--- .... ....|--- .... ....|R-- .... ....
....|..|--- .... ....|--- .... ....|--- .... ....
....|..|C-4 AF.F ....|C-5 2F.F ....|C-4 2F2F ....
....|..|R-- .... ....|--- .... ....|--- .... ....
....|..|--- .... ....|--- .... ....|--- .... ....
....|..|--- .... ....|--- .... ....|--- .... ....
..16|..|C-2 2A.F ....|R-- .... ....|R-- .... ....
..16|..|C-2 2A.F ....|R-- .... ....|R-- .... ....
....|..|--- .... ....|--- .... ....|R-- .... ....
....|..|--- .... ....|--- .... ....|--- .... ....

[Pattern31]
....|..|C-4 AF.F ....|A-4 2F.F ....|A-3 2FBF ....
....|..|R-- .... ....|R-- .... ....|R-- .... ....
....|..|--- .... ....|--- .... ....|R-- .... ....
..12|..|--- .... ....|E-4 2F.F ....|E-4 2C.F ....
..11|..|F-2 2A.F ....|C-5 2F.A ....|E-3 2FBF ....
..11|..|F-2 2A.F ....|R-- .... ....|R-- .... ....
....|..|--- .... ....|--- .... ....|R-- .... ....
...F|..|--- .F.. ....|G-4 2F.F ....|G-4 2C.F ....
....|..|C-4 AF.F ....|E-5 2F.7 ....|G-3 2FCF ....
....|..|R-- .... ....|R-- .... ....|R-- .... ....
....|..|--- .... ....|--- .... ....|R-- .... ....
....|..|--- .... ....|R-- .... ....|R-- .... ....
..11|..|F-2 2A.F ....|A-4 2F.F ....|C-4 2F2F ....
..11|..|F-2 2A.F ....|R-- .... ....|R-- .... ....
....|..|--- .... ....|--- .... ....|R-- .... ....
....|..|--- .... ....|R-- .... ....|R-- .... ....
....|..|C-4 AF.F ....|A-4 2F.F ....|C-4 2F2F ....
....|..|R-- .... ....|R-- .... ....|R-- .... ....
....|..|--- .... ....|--- .... ....|R-- .... ....
....|..|--- .... ....|G-4 2F.A ....|G-4 2F.A ....
..16|..|C-2 2A.F ....|--- .... ....|G-3 2FCA ....
..16|..|C-2 2A.F ....|R-- .... ....|R-- .... ....
....|..|--- .... ....|--- .... ....|R-- .... ....
....|..|--- .... ....|R-- .... ....|R-- .... ....
....|..|C-4 AF.F ....|A-4 2F.7 ....|A-3 2FB7 ....
....|..|R-- .... ....|--- .... ....|--- .... ....
....|..|--- .... ....|--- .... ....|--- .... ....
....|..|--- .... ....|E-4 2F.7 ....|E-4 2F.7 ....
..1B|..|A-1 2A.F ....|A-4 2F.A ....|E-3 2FB7 ....
..1B|..|A-1 2A.F ....|R-- .... ....|R-- .... ....
....|..|--- .... ....|--- .... ....|R-- .... ....
....|..|--- .... ....|G-4 2F.7 ....|E-4 2F.F ....
....|..|C-4 AF.F ....|--- .... ....|G-3 2FC7 ....
....|..|R-- .... ....|--- .... ....|--- .... ....
....|..|--- .... ....|--- .... ....|R-- .... ....
....|..|--- .... ....|R-- .... ....|R-- .... ....
..1B|..|A-1 2A.F ....|A-4 2F.7 ....|C-4 2F27 ....
..1B|..|A-1 2A.F ....|--- .... ....|--- .... ....
....|..|--- .... ....|--- .... ....|--- .... ....
....|..|--- .... ....|R-- .... ....|R-- .... ....
....|..|C-4 AF.F ....|A-4 2F.7 ....|C-4 2F27 ....
....|..|R-- .... ....|--- .... ....|--- .... ....
....|..|--- .... ....|--- .... ....|--- .... ....
....|..|--- .... ....|--- .... ....|E-4 2F.A ....
..1B|..|A-1 2A.F ....|--- .... ....|R-- .... ....
..1B|..|A-1 2A.F ....|--- .... ....|--- .... ....
....|..|--- .... ....|--- .... ....|--- .... ....
....|..|--- .... ....|--- .... ....|--- .... ....
....|..|C-4 AF.F ....|R-- .... ....|R-- .... ....
....|..|R-- .... ....|--- .... ....|--- .... ....
....|..|--- .... ....|--- .... ....|--- .... ....
....|..|--- .... ....|--- .... ....|--- .... ....
..16|..|C-2 2A.F ....|--- .... ....|--- .... ....
..16|..|C-2 2A.F ....|--- .... ....|--- .... ....
....|..|--- .... ....|--- .... ....|--- .... ....
....|..|--- .... ....|--- .... ....|E-4 2F.7 ....
....|..|C-4 AF.F ....|--- .... ....|R-- .... ....
....|..|R-- .... ....|--- .... ....|--- .... ....
....|..|--- .... ....|--- .... ....|--- .... ....
....|..|--- .... ....|--- .... ....|--- .... ....
..16|..|C-2 2A.F ....|R-- .... ....|R-- .... ....
..16|..|C-2 2A.F ....|--- .... ....|--- .... ....
....|..|--- .... ....|--- .... ....|--- .... ....
....|..|--- .... ....|--- .... ....|--- .... ....

[Pattern32]
....|..|C-4 AF.F ....|--- .... ....|--- .... ....
....|..|R-- .... ....|--- .... ....|--- .... ....
....|..|--- .... ....|--- .... ....|--- .... ....
....|..|--- .... ....|--- .... ....|--- .... ....
..1E|..|G-1 2A.F ....|--- .... ....|--- .... ....
..1E|..|G-1 2A.F ....|--- .... ....|--- .... ....
....|..|--- .... ....|--- .... ....|--- .... ....
....|..|--- .... ....|--- .... ....|--- .... ....
....|..|C-4 AF.F ....|--- .... ....|--- .... ....
....|..|R-- .... ....|--- .... ....|--- .... ....
....|..|--- .... ....|--- .... ....|--- .... ....
....|..|--- .... ....|--- .... ....|--- .... ....
..14|..|D-2 2A.F ....|--- .... ....|--- .... ....
..14|..|D-2 2A.F ....|--- .... ....|--- .... ....
....|..|--- .... ....|--- .... ....|--- .... ....
....|..|--- .... ....|--- .... ....|--- .... ....
....|..|C-4 AF.F ....|--- .... ....|--- .... ....
....|..|R-- .... ....|--- .... ....|--- .... ....
....|..|--- .... ....|--- .... ....|--- .... ....
....|..|--- .... ....|--- .... ....|--- .... ....
..1B|..|A-1 2A.F ....|C-5 2F.F ....|C-4 2F.F ....
..1B|..|A-1 2A.F ....|--- .... ....|--- .... ....
....|..|--- .... ....|R-- .... ....|R-- .... ....
....|..|--- .... ....|--- .... ....|--- .... ....
..2D|..|C-4 AF.F ....|C-5 2F.F ....|C-5 2C.F ....
....|..|R-- .... ....|--- .... ....|--- .... ....
....|..|--- .... ....|--- .... ....|--- .... ....
....|..|--- .... ....|R-- .... ....|R-- .... ....
..1B|..|A-1 2A.F ....|A-4 2F.F ....|C-4 2F.F ....
..1B|..|A-1 2A.F ....|--- .... ....|--- .... ....
....|..|--- .... ....|--- .... ....|--- .... ....
....|..|--- .... ....|R-- .... ....|R-- .... ....
..2D|..|C-4 AF.F ....|C-5 2F.F ....|C-5 2C.F ....
....|..|R-- .... ....|--- .... ....|--- .... ....
....|..|--- .... ....|R-- .... ....|R-- .... ....
....|..|--- .... ....|R-- .... ....|R-- .... ....
..1B|..|A-1 2A.F ....|C-5 2F.F ....|C-4 2F.F ....
..1B|..|A-1 2A.F ....|--- .... ....|--- .... ....
....|..|--- .... ....|--- .... ....|--- .... ....
....|..|--- .... ....|R-- .... ....|R-- .... ....
....|..|C-4 AF.F ....|A-4 2F.A ....|R-- .... ....
....|..|R-- .... ....|--- .... ....|--- .... ....
....|..|--- .... ....|--- .... ....|--- .... ....
....|..|--- .... ....|R-- .... ....|R-- .... ....
..1B|..|A-1 2A.F ....|A-4 2F.F ....|C-4 2F.F ....
..1B|..|A-1 2A.F ....|--- .... ....|--- .... ....
....|..|--- .... ....|R-- .... ....|R-- .... ....
....|..|--- .... ....|R-- .... ....|R-- .... ....
..2D|..|C-4 AF.F ....|C-5 2F.F ....|C-5 2C.F ....
....|..|R-- .... ....|--- .... ....|--- .... ....
....|..|--- .... ....|--- .... ....|--- .... ....
....|..|--- .... ....|R-- .... ....|R-- .... ....
..16|..|C-2 2A.F ....|C-5 2F.F ....|E-4 2F.F ....
..16|..|C-2 2A.F ....|--- .... ....|--- .... ....
....|..|--- .... ....|R-- .... ....|R-- .... ....
....|..|--- .... ....|R-- .... ....|R-- .... ....
..1B|..|C-4 AF.F ....|A-4 2F.F ....|A-4 2C.F ....
....|..|R-- .... ....|--- .... ....|--- .... ....
....|..|--- .... ....|R-- .... ....|R-- .... ....
....|..|--- .... ....|R-- .... ....|R-- .... ....
..16|..|C-2 2A.F ....|C-5 2F.F ....|E-4 2F.F ....
..16|..|C-2 2A.F ....|--- .... ....|--- .... ....
....|..|--- .... ....|--- .... ....|--- .... ....
....|..|--- .... ....|--- .... ....|--- .... ....

[Pattern33]
....|..|C-4 AF.F ....|C-5 2F.A ....|R-- .... ....
....|..|R-- .... ....|--- .... ....|--- .... ....
....|..|--- .... ....|R-- .... ....|R-- .... ....
....|..|--- .... ....|R-- .... ....|R-- .... ....
..11|..|F-2 2A.F ....|A-4 2F.7 ....|A-4 2F.F ....
..11|..|F-2 2A.F ....|--- .... ....|--- .... ....
....|..|--- .... ....|R-- .... ....|R-- .... ....
....|..|--- .... ....|--- .... ....|--- .... ....
....|..|C-4 AF.F ....|C-5 2F.7 ....|C-5 2F.7 ....
....|..|R-- .... ....|--- .... ....|--- .... ....
....|..|--- .... ....|--- .... ....|--- .... ....
....|..|--- .... ....|--- .... ....|--- .... ....
..11|..|F-2 2A.F ....|C-5 2F.7 ....|A-4 2F.F ....
..11|..|F-2 2A.F ....|--- .... ....|--- .... ....
....|..|--- .... ....|R-- .... ....|R-- .... ....
....|..|--- .... ....|--- .... ....|--- .... ....
....|..|C-4 AF.F ....|A-4 2F.7 ....|A-4 2F.7 ....
....|..|R-- .... ....|--- .... ....|--- .... ....
....|..|--- .... ....|R-- .... ....|R-- .... ....
....|..|--- .... ....|--- .... ....|--- .... ....
..1B|..|A-1 2A.F ....|C-5 2F.F ....|C-4 2F.F ....
..1B|..|A-1 2A.F ....|--- .... ....|--- .... ....
....|..|--- .... ....|R-- .... ....|R-- .... ....
....|..|--- .... ....|--- .... ....|--- .... ....
..2D|..|C-4 AF.F ....|C-5 2F.F ....|C-5 2C.F ....
....|..|R-- .... ....|--- .... ....|--- .... ....
....|..|--- .... ....|--- .... ....|--- .... ....
....|..|--- .... ....|--- .... ....|--- .... ....
..1B|..|A-1 2A.F ....|A-4 2F.F ....|C-4 2F.F ....
..1B|..|A-1 2A.F ....|--- .... ....|--- .... ....
....|..|--- .... ....|R-- .... ....|R-- .... ....
....|..|--- .... ....|--- .... ....|--- .... ....
..2D|..|C-4 AF.F ....|C-5 2F.F ....|C-5 2C.F ....
....|..|R-- .... ....|--- .... ....|--- .... ....
....|..|--- .... ....|R-- .... ....|R-- .... ....
....|..|--- .... ....|--- .... ....|--- .... ....
..1B|..|A-1 2A.F ....|A-4 2F.F ....|C-4 2F.F ....
..1B|..|A-1 2A.F ....|--- .... ....|--- .... ....
....|..|--- .... ....|R-- .... ....|R-- .... ....
....|..|--- .... ....|--- .... ....|--- .... ....
..2D|..|C-4 AF.F ....|C-5 2F.F ....|C-5 2C.F ....
....|..|R-- .... ....|--- .... ....|--- .... ....
....|..|--- .... ....|R-- .... ....|R-- .... ....
....|..|--- .... ....|R-- .... ....|R-- .... ....
..1B|..|A-1 2A.F ....|A-4 2F.F ....|C-4 2F.F ....
..1B|..|A-1 2A.F ....|--- .... ....|--- .... ....
....|..|--- .... ....|R-- .... ....|R-- .... ....
....|..|--- .... ....|--- .... ....|--- .... ....
..2D|..|C-4 AF.F ....|C-5 2F.F ....|C-5 2C.F ....
....|..|R-- .... ....|--- .... ....|--- .... ....
....|..|--- .... ....|R-- .... ....|R-- .... ....
....|..|--- .... ....|R-- .... ....|R-- .... ....
..16|..|C-2 2A.F ....|A-4 2F.F ....|E-4 2F.F ....
..16|..|C-2 2A.F ....|--- .... ....|--- .... ....
....|..|--- .... ....|R-- .... ....|R-- .... ....
....|..|--- .... ....|R-- .... ....|R-- .... ....
..1B|..|C-4 AF.F ....|A-4 2F.F ....|A-4 2C.F ....
....|..|R-- .... ....|--- .... ....|--- .... ....
....|..|--- .... ....|R-- .... ....|R-- .... ....
....|..|--- .... ....|R-- .... ....|R-- .... ....
..16|..|C-2 2A.F ....|A-4 2F.F ....|E-4 2F.F ....
..16|..|C-2 2A.F ....|--- .... ....|--- .... ....
....|..|--- .... ....|R-- .... ....|R-- .... ....
....|..|--- .... ....|R-- .... ....|R-- .... ....

[Pattern34]
...F|..|C-4 AF.F ....|G-4 2F.F ....|G-4 2C.F ....
....|..|R-- .... ....|--- .... ....|--- .... ....
....|..|--- .... ....|--- .... ....|--- .... ....
....|..|--- .... ....|R-- .... ....|R-- .... ....
..1E|..|G-1 2A.F ....|E-4 2F.F ....|B-3 2F.F ....
..1E|..|G-1 2A.F ....|--- .... ....|--- .... ....
....|..|--- .... ....|R-- .... ....|R-- .... ....
....|..|--- .... ....|R-- .... ....|R-- .... ....
...F|..|C-4 AF.F ....|G-4 2F.F ....|G-4 2C.F ....
....|..|R-- .... ....|--- .... ....|--- .... ....
....|..|--- .... ....|--- .... ....|--- .... ....
....|..|--- .... ....|R-- .... ....|R-- .... ....
..1E|..|G-1 2A.F ....|A-4 2F.F ....|F-4 2F.F ....
..1E|..|G-1 2A.F ....|--- .... ....|--- .... ....
....|..|--- .... ....|--- .... ....|--- .... ....
....|..|--- .... ....|R-- .... ....|R-- .... ....
..1B|..|C-4 AF.F ....|A-4 2F.F ....|A-4 2C.F ....
....|..|R-- .... ....|--- .... ....|--- .... ....
....|..|--- .... ....|R-- .... ....|R-- .... ....
....|..|--- .... ....|R-- .... ....|R-- .... ....
..1B|..|A-1 2A.F ....|A-4 2F.7 ....|E-4 2F.7 ....
..1B|..|A-1 2A.F ....|--- .... ....|--- .... ....
....|..|--- .... ....|--- .... ....|--- .... ....
....|..|--- .... ....|--- .... ....|--- .... ....
....|..|C-4 AF.F ....|G-4 2F.7 ....|G-4 2F.7 ....
....|..|R-- .... ....|--- .... ....|--- .... ....
....|..|--- .... ....|--- .... ....|--- .... ....
....|..|--- .... ....|R-- .... ....|R-- .... ....
..1B|..|A-1 2A.F ....|E-4 2F.7 ....|B-3 2F.7 ....
..1B|..|A-1 2A.F ....|--- .... ....|--- .... ....
....|..|--- .... ....|R-- .... ....|R-- .... ....
....|..|--- .... ....|--- .... ....|--- .... ....
....|..|C-4 AF.F ....|G-4 2F.7 ....|G-4 2F.7 ....
....|..|R-- .... ....|--- .... ....|--- .... ....
....|..|--- .... ....|--- .... ....|--- .... ....
....|..|--- .... ....|--- .... ....|--- .... ....
..1B|..|A-1 2A.F ....|A-4 2F.7 ....|F-4 2F.7 ....
..1B|..|A-1 2A.F ....|--- .... ....|--- .... ....
....|..|--- .... ....|--- .... ....|--- .... ....
....|..|--- .... ....|R-- .... ....|R-- .... ....
....|..|C-4 AF.F ....|A-4 2F.7 ....|A-4 2F.7 ....
....|..|R-- .... ....|--- .... ....|--- .... ....
....|..|--- .... ....|--- .... ....|--- .... ....
....|..|--- .... ....|--- .... ....|--- .... ....
..1B|..|A-1 2A.F ....|--- .... ....|--- .... ....
..1B|..|A-1 2A.F ....|--- .... ....|--- .... ....
....|..|--- .... ....|--- .... ....|--- .... ....
....|..|--- .... ....|--- .... ....|--- .... ....
..12|..|C-4 AF.F ....|E-5 2F.F ....|E-5 2C.F ....
....|..|R-- .... ....|--- .... ....|--- .... ....
....|..|--- .... ....|--- .... ....|--- .... ....
....|..|--- .... ....|--- .... ....|--- .... ....
..16|..|C-2 2A.F ....|--- .... ....|--- .F.. ....
..16|..|C-2 2A.F ....|R-- .... ....|R-- .... ....
....|..|--- .... ....|--- .... ....|--- .... ....
....|..|--- .... ....|--- .... ....|--- .... ....
..2D|..|C-4 AF.F ....|C-5 2F.F ....|C-5 2C.F ....
....|..|R-- .... ....|--- .... ....|--- .... ....
....|..|--- .... ....|--- .... ....|--- .... ....
....|..|--- .... ....|--- .... ....|--- .... ....
..16|..|C-2 2A.F ....|R-- .... ....|R-- .... ....
..16|..|C-2 2A.F ....|R-- .... ....|R-- .... ....
....|..|--- .... ....|--- .... ....|--- .... ....
....|..|--- .... ....|--- .... ....|--- .... ....

[Pattern35]
..1B|..|C-4 AF.F ....|A-4 2F.F ....|A-4 2C.F ....
....|..|R-- .... ....|R-- .... ....|R-- .... ....
....|..|--- .... ....|--- .... ....|--- .... ....
..12|..|--- .... ....|E-4 2F.F ....|E-4 2C.F ....
..11|..|F-2 2A.F ....|C-5 2F.A ....|C-5 2F.A ....
..11|..|F-2 2A.F ....|R-- .... ....|R-- .... ....
....|..|--- .... ....|--- .... ....|--- .... ....
...F|..|--- .F.. ....|G-4 2F.F ....|G-4 2C.F ....
....|..|C-4 AF.F ....|E-5 2F.7 ....|E-5 2F.7 ....
....|..|R-- .... ....|R-- .... ....|R-- .... ....
....|..|--- .... ....|--- .... ....|--- .... ....
....|..|--- .... ....|R-- .... ....|R-- .... ....
..1B|..|F-2 2F.F ....|A-4 2F.F ....|A-4 2C.F ....
..11|..|F-2 2A.F ....|R-- .... ....|R-- .... ....
....|..|--- .... ....|--- .... ....|--- .... ....
....|..|--- .... ....|R-- .... ....|R-- .... ....
....|..|C-4 AF.F ....|A-4 2F.F ....|E-4 2FBF ....
....|..|R-- .... ....|R-- .... ....|R-- .... ....
....|..|--- .... ....|--- .... ....|--- .... ....
....|..|--- .... ....|G-4 2F.A ....|G-4 2F.A ....
..16|..|C-2 2A.F ....|--- .... ....|--- .... ....
..16|..|C-2 2A.F ....|R-- .... ....|R-- .... ....
....|..|--- .... ....|--- .... ....|R-- .... ....
....|..|--- .... ....|R-- .... ....|R-- .... ....
....|..|C-4 AF.F ....|A-4 2F.7 ....|C-4 2F2F ....
....|..|R-- .... ....|--- .... ....|--- .... ....
....|..|--- .... ....|--- .... ....|--- .... ....
....|..|--- .... ....|E-4 2F.7 ....|E-4 2F.7 ....
..1B|..|A-1 2A.F ....|A-4 2F.A ....|E-4 2FBA ....
..1B|..|A-1 2A.F ....|R-- .... ....|R-- .... ....
....|..|--- .... ....|--- .... ....|R-- .... ....
....|..|--- .... ....|G-4 2F.7 ....|G-4 2F.7 ....
....|..|C-4 AF.F ....|--- .... ....|A-3 2FBF ....
....|..|R-- .... ....|--- .... ....|--- .... ....
....|..|--- .... ....|--- .... ....|R-- .... ....
....|..|--- .... ....|R-- .... ....|R-- .... ....
..1B|..|A-1 2A.F ....|A-4 2F.7 ....|E-3 2FBF ....
..1B|..|A-1 2A.F ....|--- .... ....|--- .... ....
....|..|--- .... ....|--- .... ....|R-- .... ....
....|..|--- .... ....|R-- .... ....|R-- .... ....
....|..|C-4 AF.F ....|A-4 2F.7 ....|G-3 2FCF ....
....|..|R-- .... ....|--- .... ....|--- .... ....
....|..|--- .... ....|--- .... ....|R-- .... ....
....|..|--- .... ....|--- .... ....|--- .... ....
..1B|..|A-1 2A.F ....|--- .... ....|C-4 2F2F ....
..1B|..|A-1 2A.F ....|--- .... ....|--- .... ....
....|..|--- .... ....|--- .... ....|R-- .... ....
....|..|--- .... ....|--- .... ....|--- .... ....
....|..|C-4 AF.F ....|R-- .... ....|C-4 2F2F ....
....|..|R-- .... ....|--- .... ....|--- .... ....
....|..|--- .... ....|--- .... ....|R-- .... ....
....|..|--- .... ....|--- .... ....|--- .... ....
..16|..|C-2 2A.F ....|--- .... ....|G-3 2FCA ....
..16|..|C-2 2A.F ....|--- .... ....|--- .... ....
....|..|--- .... ....|--- .... ....|R-- .... ....
....|..|--- .... ....|--- .... ....|--- .... ....
....|..|C-4 AF.F ....|--- .... ....|A-3 2FB7 ....
....|..|R-- .... ....|--- .... ....|--- .... ....
....|..|--- .... ....|--- .... ....|--- .... ....
....|..|--- .... ....|--- .... ....|R-- .... ....
..16|..|C-2 2A.F ....|R-- .... ....|E-3 2FB7 ....
..16|..|C-2 2A.F ....|--- .... ....|--- .... ....
....|..|--- .... ....|--- .... ....|R-- .... ....
....|..|--- .... ....|--- .... ....|--- .... ....

[Pattern36]
....|..|C-4 AF.F ....|--- .... ....|G-3 2FC7 ....
....|..|R-- .... ....|--- .... ....|--- .... ....
....|..|--- .... ....|--- .... ....|R-- .... ....
....|..|--- .... ....|--- .... ....|--- .... ....
..1E|..|G-1 2A.F ....|--- .... ....|C-4 2F27 ....
..1E|..|G-1 2A.F ....|--- .... ....|--- .... ....
....|..|--- .... ....|--- .... ....|--- .... ....
....|..|--- .... ....|--- .... ....|R-- .... ....
....|..|C-4 AF.F ....|--- .... ....|C-4 2F27 ....
....|..|R-- .... ....|--- .... ....|--- .... ....
....|..|--- .... ....|--- .... ....|--- .... ....
....|..|--- .... ....|--- .... ....|--- .... ....
..14|..|D-2 2A.F ....|--- .... ....|--- .... ....
..14|..|D-2 2A.F ....|--- .... ....|--- .... ....
....|..|--- .... ....|--- .... ....|--- .... ....
....|..|--- .... ....|--- .... ....|--- .... ....
....|..|C-4 AF.F ....|--- .... ....|A-3 2F3F ....
....|..|R-- .... ....|--- .... ....|--- .... ....
....|..|--- .... ....|--- .... ....|R-- .... ....
....|..|--- .... ....|--- .... ....|R-- .... ....
....|..|B-8 JF.F ....|--- .... ....|A-3 2F3F ....
..1B|..|A-1 2A.F ....|--- .... ....|--- .... ....
...F|..|R-- .... ....|G-4 2F.F ....|G-4 2C.F ....
....|..|--- .... ....|--- .... ....|--- .... ....
....|..|C-4 AF.F ....|G-4 2F.F ....|A-3 2F3F ....
....|..|R-- .... ....|R-- .... ....|R-- .... ....
...F|..|--- .... ....|G-4 2F.F ....|G-4 2C.F ....
....|..|--- .... ....|R-- .... ....|R-- .... ....
....|..|B-8 JF.F ....|G-4 2F.F ....|A-3 2F3F ....
..16|..|C-2 2A.F ....|--- .... ....|--- .... ....
..11|..|R-- .... ....|F-4 2F.F ....|F-4 2C.F ....
....|..|--- .... ....|--- .... ....|--- .... ....
....|..|C-4 AF.F ....|R-- .... ....|A-3 2F3F ....
..12|..|E-2 2A.F ....|--- .... ....|--- .... ....
....|..|R-- .... ....|G-4 2F.A ....|R-- .... ....
..12|..|--- .... ....|E-4 2F.F ....|E-4 2C.F ....
....|..|B-8 JF.F ....|G-4 2F.A ....|A-3 2F3F ....
..12|..|E-2 2A.F ....|R-- .... ....|R-- .... ....
....|..|R-- .... ....|R-- .... ....|R-- .... ....
....|..|--- .... ....|R-- .... ....|R-- .... ....
....|..|C-4 AF.F ....|G-4 2F.A ....|A-3 2F3F ....
..11|..|F-2 2A.F ....|--- .... ....|--- .... ....
....|..|R-- .... ....|F-4 2F.A ....|R-- .... ....
....|..|--- .... ....|--- .... ....|--- .... ....
....|..|B-8 JF.F ....|R-- .... ....|A-3 2F3F ....
..11|..|F-2 2A.F ....|--- .... ....|--- .... ....
....|..|R-- .... ....|G-4 2F.7 ....|G-4 2F.7 ....
....|..|--- .... ....|E-4 2F.A ....|E-4 2F.A ....
....|..|C-4 AF.F ....|G-4 2F.7 ....|A-3 2F3F ....
....|..|R-- .... ....|R-- .... ....|R-- .... ....
....|..|R-- .... ....|G-4 2F.7 ....|G-4 2F.7 ....
....|..|--- .... ....|R-- .... ....|R-- .... ....
....|..|B-8 JF.F ....|G-4 2F.F ....|A-3 2F3F ....
..1B|..|A-1 2A.F ....|R-- .... ....|R-- .... ....
...F|..|R-- .... ....|G-4 2F.F ....|G-4 2C.F ....
....|..|--- .... ....|--- .... ....|--- .... ....
....|..|C-4 AF.F ....|G-4 2F.F ....|A-3 2F3F ....
..16|..|C-2 2A.F ....|R-- .... ....|R-- .... ....
...F|..|R-- .... ....|G-4 2F.F ....|G-4 2C.F ....
....|..|--- .... ....|E-4 2F.7 ....|E-4 2F.7 ....
....|..|B-8 JF.F ....|G-4 2F.F ....|A-3 2F3F ....
..16|..|C-2 2A.F ....|--- .... ....|--- .... ....
..11|..|R-- .... ....|F-4 2F.F ....|F-4 2C.F ....
....|..|--- .... ....|--- .... ....|--- .... ....

[Pattern48]
....|..|C-4 AF.F ....|C-5 2F.F ....|C-4 2F7F ....
..1E|..|G-1 2A.F ....|R-- .... ....|E-4 2F8F ....
....|..|F-2 2F.7 ....|--- .... ....|R-- .... ....
....|..|R-- .... ....|--- .... ....|--- .... ....
....|..|B-8 JF.F ....|E-5 2F.7 ....|C-4 2F7F ....
...F|..|G-2 2A.F ....|R-- .... ....|R-- .... ....
...F|..|G-2 2A.F ....|--- .... ....|R-- .... ....
....|..|R-- .... ....|R-- .... ....|R-- .... ....
....|..|C-4 AF.F ....|C-5 2F.F ....|C-4 2F7F ....
....|..|G-1 2F.7 ....|--- .... ....|E-5 2F.A ....
....|..|R-- .... ....|--- .... ....|R-- .... ....
....|..|R-- .... ....|--- .... ....|--- .... ....
....|..|B-8 JF.F ....|C-5 2F.7 ....|C-4 2F7F ....
...F|..|G-2 2A.F ....|R-- .... ....|E-4 2F87 ....
...F|..|G-2 2A.F ....|--- .... ....|R-- .... ....
....|..|R-- .... ....|--- .... ....|R-- .... ....
....|..|C-4 AF.F ....|A-4 2F.F ....|A-4 2F3F ....
..1B|..|A-1 2A.F ....|R-- .... ....|E-4 2F87 ....
..36|..|A-1 2A.F ....|--- .... ....|R-- .... ....
....|..|R-- .... ....|R-- .... ....|R-- .... ....
....|..|B-8 JF.F ....|A-4 2F.7 ....|A-4 2F3F ....
..1B|..|A-1 2A.F ....|--- .... ....|E-5 2F.7 ....
..1B|..|A-1 2A.F ....|--- .... ....|R-- .... ....
....|..|R-- .... ....|--- .... ....|--- .... ....
....|..|C-4 AF.F ....|A-4 2F.F ....|A-4 2F3F ....
..16|..|C-2 2A.F ....|--- .... ....|E-4 2F87 ....
..16|..|C-2 2A.F ....|--- .... ....|R-- .... ....
....|..|R-- .... ....|--- .... ....|R-- .... ....
....|..|B-8 JF.F ....|A-4 2F.A ....|A-4 2F3F ....
..16|..|C-2 2A.F ....|R-- .... ....|R-- .... ....
..16|..|C-2 2A.F ....|--- .... ....|R-- .... ....
....|..|R-- .... ....|R-- .... ....|R-- .... ....
....|..|C-4 AF.F ....|E-5 2F.F ....|A-4 2F3F ....
..12|..|E-2 2A.F ....|--- .... ....|A-4 2F4F ....
..12|..|E-2 2A.F ....|--- .... ....|R-- .... ....
....|..|R-- .... ....|R-- .... ....|R-- .... ....
....|..|B-8 JF.F ....|E-5 2F.F ....|A-4 2F3F ....
..12|..|E-2 2A.F ....|--- .... ....|R-- .... ....
..12|..|E-2 2A.F ....|R-- .... ....|R-- .... ....
....|..|R-- .... ....|--- .... ....|R-- .... ....
....|..|C-4 AF.F ....|F-5 2F.F ....|A-4 2F3F ....
..11|..|F-2 2A.F ....|--- .... ....|E-5 2F.F ....
..11|..|F-2 2A.F ....|--- .... ....|R-- .... ....
....|..|R-- .... ....|R-- .... ....|R-- .... ....
....|..|B-8 JF.F ....|E-5 2F.F ....|A-4 2F3F ....
..11|..|F-2 2A.F ....|--- .... ....|R-- .... ....
..11|..|F-2 2A.F ....|--- .... ....|R-- .... ....
....|..|R-- .... ....|R-- .... ....|R-- .... ....
....|..|C-4 AF.F ....|A-4 2F.7 ....|A-4 2F3F ....
..1B|..|A-1 2A.F ....|--- .... ....|R-- .... ....
..36|..|A-1 2A.F ....|R-- .... ....|R-- .... ....
....|..|R-- .... ....|--- .... ....|--- .... ....
....|..|B-8 JF.F ....|A-4 2F.F ....|A-4 2F3F ....
..1B|..|A-1 2A.F ....|--- .... ....|A-4 2F4F ....
..1B|..|A-1 2A.F ....|R-- .... ....|R-- .... ....
....|..|R-- .... ....|R-- .... ....|R-- .... ....
....|..|C-4 AF.F ....|A-4 2F.F ....|A-4 2F3F ....
..16|..|C-2 2A.F ....|--- .... ....|A-4 2F4F ....
..16|..|C-2 2A.F ....|--- .... ....|R-- .... ....
....|..|R-- .... ....|R-- .... ....|R-- .... ....
....|..|B-8 JF.F ....|E-5 2F.7 ....|A-4 2F3F ....
..16|..|C-2 2A.F ....|--- .... ....|E-5 2F.F ....
..16|..|C-2 2A.F ....|R-- .... ....|R-- .... ....
....|..|R-- .... ....|--- .... ....|R-- .... ....

[Pattern50]
....|..|C-4 AF.F ....|C-5 2F.F ....|C-4 2F7F ....
..1E|..|G-1 2A.F ....|R-- .... ....|E-4 2F8F ....
....|..|F-2 2F.7 ....|--- .... ....|R-- .... ....
....|..|R-- .... ....|--- .... ....|--- .... ....
....|..|B-8 JF.F ....|E-5 2F.7 ....|C-4 2F7F ....
...F|..|G-2 2A.F ....|R-- .... ....|R-- .... ....
...F|..|G-2 2A.F ....|--- .... ....|R-- .... ....
....|..|R-- .... ....|R-- .... ....|R-- .... ....
....|..|C-4 AF.F ....|C-5 2F.F ....|C-4 2F7F ....
....|..|G-1 2F.7 ....|--- .... ....|E-5 2F.A ....
....|..|R-- .... ....|--- .... ....|R-- .... ....
....|..|R-- .... ....|--- .... ....|--- .... ....
....|..|B-8 JF.F ....|C-5 2F.7 ....|C-4 2F7F ....
...F|..|G-2 2A.F ....|R-- .... ....|E-4 2F87 ....
...F|..|G-2 2A.F ....|--- .... ....|R-- .... ....
....|..|R-- .... ....|--- .... ....|R-- .... ....
....|..|C-4 AF.F ....|G-4 2F.F ....|A-3 2F3F ....
....|..|R-- .... ....|R-- .... ....|E-4 2F87 ....
....|..|G-2 2F.A ....|--- .... ....|R-- .... ....
....|..|--- .... ....|R-- .... ....|R-- .... ....
....|..|B-8 JF.F ....|A-4 2F.7 ....|A-3 2F3F ....
..1B|..|A-1 2A.F ....|--- .... ....|E-5 2F.7 ....
....|..|G-2 2F.7 ....|R-- .... ....|R-- .... ....
....|..|R-- .... ....|--- .... ....|--- .... ....
....|..|C-4 AF.F ....|G-4 2F.F ....|A-3 2F3F ....
....|..|G-1 2F.7 ....|--- .... ....|E-4 2F87 ....
....|..|G-2 2F.A ....|--- .... ....|R-- .... ....
....|..|R-- .... ....|--- .... ....|R-- .... ....
....|..|B-8 JF.F ....|G-4 2F.A ....|A-3 2F3F ....
..16|..|C-2 2A.F ....|R-- .... ....|R-- .... ....
....|..|G-2 2F.7 ....|R-- .... ....|R-- .... ....
....|..|--- .... ....|--- .... ....|--- .... ....
....|..|C-4 AF.F ....|G-4 2F.F ....|A-3 2F3F ....
..12|..|E-2 2A.F ....|--- .... ....|--- .... ....
....|..|R-- .... ....|R-- .... ....|R-- .... ....
....|..|--- .... ....|--- .... ....|--- .... ....
....|..|B-8 JF.F ....|G-4 2F.F ....|A-3 2F3F ....
..12|..|E-2 2A.F ....|--- .... ....|--- .... ....
....|..|G-2 2F.7 ....|R-- .... ....|R-- .... ....
....|..|R-- .... ....|--- .... ....|R-- .... ....
....|..|C-4 AF.F ....|G-4 2F.F ....|A-3 2F3F ....
..11|..|F-2 2A.F ....|--- .... ....|--- .... ....
....|..|R-- .... ....|R-- .... ....|R-- .... ....
....|..|--- .... ....|R-- .... ....|R-- .... ....
....|..|B-8 JF.F ....|G-4 2F.F ....|A-3 2F3F ....
..11|..|F-2 2A.F ....|--- .... ....|--- .... ....
....|..|R-- .... ....|R-- .... ....|R-- .... ....
....|..|--- .... ....|--- .... ....|--- .... ....
....|..|C-4 AF.F ....|G-4 2F.F ....|A-3 2F3F ....
....|..|R-- .... ....|--- .... ....|--- .... ....
....|..|R-- .... ....|R-- .... ....|R-- .... ....
....|..|--- .... ....|R-- .... ....|R-- .... ....
....|..|B-8 JF.F ....|G-4 2F.F ....|A-3 2F3F ....
..1B|..|A-1 2A.F ....|--- .... ....|--- .... ....
....|..|R-- .... ....|R-- .... ....|R-- .... ....
....|..|--- .... ....|R-- .... ....|R-- .... ....
....|..|C-4 AF.F ....|G-4 2F.F ....|A-3 2F3F ....
..16|..|C-2 2A.F ....|--- .... ....|--- .... ....
....|..|R-- .... ....|R-- .... ....|R-- .... ....
....|..|--- .... ....|--- .... ....|--- .... ....
....|..|B-8 JF.F ....|G-4 2F.F ....|A-3 2F3F ....
..16|..|C-2 2A.F ....|--- .... ....|--- .... ....
....|..|R-- .... ....|R-- .... ....|R-- .... ....
....|..|--- .... ....|R-- .... ....|R-- .... ....

[Pattern51]
....|..|C-4 AF.F ....|G-4 2F.F ....|A-3 2F3F ....
..12|..|E-2 2A.F ....|--- .... ....|--- .... ....
....|..|R-- .... ....|R-- .... ....|R-- .... ....
....|..|--- .... ....|R-- .... ....|R-- .... ....
....|..|B-8 JF.F ....|G-4 2F.F ....|A-3 2F3F ....
..12|..|E-2 2A.F ....|R-- .... ....|R-- .... ....
...F|..|R-- .... ....|G-4 2F.F ....|G-4 2C.F ....
....|..|--- .... ....|--- .... ....|--- .... ....
....|..|C-4 AF.F ....|G-4 2F.7 ....|A-3 2F3F ....
..11|..|F-2 2A.F ....|--- .... ....|--- .... ....
....|..|R-- .... ....|R-- .... ....|R-- .... ....
....|..|--- .... ....|R-- .... ....|R-- .... ....
....|..|B-8 JF.F ....|G-4 2F.F ....|A-3 2F3F ....
..11|..|F-2 2A.F ....|R-- .... ....|R-- .... ....
....|..|R-- .... ....|R-- .... ....|R-- .... ....
....|..|--- .... ....|--- .... ....|--- .... ....
....|..|C-4 AF.F ....|G-4 2F.F ....|A-3 2F3F ....
....|..|C-2 2F.7 ....|R-- .... ....|R-- .... ....
....|..|R-- .... ....|R-- .... ....|R-- .... ....
....|..|--- .... ....|--- .... ....|--- .... ....
....|..|B-8 JF.F ....|G-4 2F.7 ....|A-3 2F3F ....
..1B|..|A-1 2A.F ....|--- .... ....|--- .... ....
....|..|R-- .... ....|R-- .... ....|R-- .... ....
....|..|--- .... ....|R-- .... ....|R-- .... ....
....|..|C-4 AF.F ....|G-4 2F.F ....|A-3 2F3F ....
....|..|E-2 2F.7 ....|R-- .... ....|R-- .... ....
....|..|R-- .... ....|R-- .... ....|R-- .... ....
....|..|--- .... ....|--- .... ....|--- .... ....
....|..|B-8 JF.F ....|G-4 2F.7 ....|A-3 2F3F ....
..16|..|C-2 2A.F ....|R-- .... ....|R-- .... ....
....|..|R-- .... ....|G-4 2F.7 ....|G-4 2F.7 ....
....|..|--- .... ....|--- .... ....|--- .... ....
....|..|C-4 AF.F ....|G-4 2F.F ....|A-3 2F3F ....
..12|..|E-2 2A.F ....|--- .... ....|--- .... ....
....|..|R-- .... ....|R-- .... ....|R-- .... ....
....|..|--- .... ....|R-- .... ....|R-- .... ....
....|..|B-8 JF.F ....|G-4 2F.F ....|A-3 2F3F ....
..12|..|E-2 2A.F ....|R-- .... ....|R-- .... ....
....|..|R-- .... ....|R-- .... ....|R-- .... ....
....|..|--- .... ....|--- .... ....|--- .... ....
....|..|C-4 AF.F ....|G-4 2F.F ....|A-3 2F3F ....
..11|..|F-2 2A.F ....|--- .... ....|--- .... ....
....|..|R-- .... ....|R-- .... ....|R-- .... ....
....|..|--- .... ....|--- .... ....|--- .... ....
....|..|B-8 JF.F ....|G-4 2F.F ....|A-3 2F3F ....
..11|..|F-2 2A.F ....|--- .... ....|--- .... ....
....|..|R-- .... ....|R-- .... ....|R-- .... ....
....|..|--- .... ....|--- .... ....|--- .... ....
....|..|C-4 AF.F ....|G-4 2F.F ....|A-3 2F3F ....
....|..|R-- .... ....|--- .... ....|--- .... ....
....|..|R-- .... ....|R-- .... ....|R-- .... ....
....|..|--- .... ....|--- .... ....|--- .... ....
....|..|B-8 JF.F ....|G-4 2F.F ....|A-3 2F3F ....
...F|..|G-2 2A.F ....|--- .... ....|--- .... ....
....|..|R-- .... ....|R-- .... ....|R-- .... ....
....|..|--- .... ....|--- .... ....|--- .... ....
....|..|C-4 AF.F ....|G-4 2F.F ....|A-3 2F3F ....
....|..|E-2 2F.7 ....|--- .... ....|--- .... ....
....|..|R-- .... ....|R-- .... ....|R-- .... ....
....|..|--- .... ....|--- .... ....|--- .... ....
....|..|B-8 JF.F ....|G-4 2F.F ....|A-3 2F3F ....
...F|..|G-2 2A.F ....|--- .... ....|--- .... ....
....|..|R-- .... ....|R-- .... ....|R-- .... ....
....|..|--- .... ....|--- .... ....|--- .... ....

[Pattern52]
....|..|C-4 AF.F ....|G-4 2F.F ....|A-3 2F3F ....
....|..|F-2 2F.7 ....|--- .... ....|--- .... ....
....|..|R-- .... ....|R-- .... ....|R-- .... ....
....|..|--- .... ....|--- .... ....|--- .... ....
....|..|B-8 JF.F ....|G-4 2F.F ....|A-3 2F3F ....
...F|..|G-2 2A.F ....|R-- .... ....|R-- .... ....
...F|..|R-- .... ....|G-4 2F.F ....|G-4 2C.F ....
....|..|--- .... ....|--- .... ....|--- .... ....
....|..|C-4 AF.7 ....|G-4 2F.7 ....|A-3 2F3F ....
....|..|R-- .... ....|--- .... ....|--- .... ....
....|..|R-- .... ....|R-- .... ....|R-- .... ....
....|..|--- .... ....|R-- .... ....|R-- .... ....
...F|..|G-2 2A.F ....|G-4 2F.F ....|A-3 2F3F ....
....|..|G-2 2F.7 ....|--- .... ....|--- .... ....
....|..|--- .... ....|R-- .... ....|R-- .... ....
....|..|R-- .... ....|--- .... ....|--- .... ....
....|..|C-4 AF.F ....|G-4 2F.F ....|A-3 2F3F ....
....|..|R-- .... ....|R-- .... ....|R-- .... ....
....|..|--- .... ....|R-- .... ....|R-- .... ....
....|..|--- .... ....|--- .... ....|--- .... ....
....|..|B-8 JF.F ....|G-4 2F.7 ....|A-3 2F3F ....
..1B|..|A-1 2A.F ....|--- .... ....|--- .... ....
....|..|R-- .... ....|R-- .... ....|R-- .... ....
....|..|--- .... ....|R-- .... ....|R-- .... ....
....|..|C-4 AF.F ....|G-4 2F.F ....|A-3 2F3F ....
....|..|R-- .... ....|--- .... ....|--- .... ....
....|..|--- .... ....|R-- .... ....|R-- .... ....
....|..|R-- .... ....|--- .... ....|--- .... ....
....|..|B-8 JF.F ....|G-4 2F.7 ....|A-3 2F3F ....
..16|..|C-2 2A.F ....|R-- .... ....|R-- .... ....
....|..|R-- .... ....|G-4 2F.7 ....|G-4 2F.7 ....
....|..|--- .... ....|--- .... ....|--- .... ....
....|..|C-4 AF.F ....|G-4 2F.F ....|A-3 2F3F ....
..12|..|E-2 2A.F ....|--- .... ....|--- .... ....
....|..|R-- .... ....|R-- .... ....|R-- .... ....
....|..|--- .... ....|R-- .... ....|R-- .... ....
....|..|B-8 JF.F ....|G-4 2F.F ....|A-3 2F3F ....
..12|..|E-2 2A.F ....|--- .... ....|--- .... ....
....|..|R-- .... ....|R-- .... ....|R-- .... ....
....|..|R-- .... ....|--- .... ....|--- .... ....
....|..|C-4 AF.F ....|G-4 2F.F ....|A-3 2F3F ....
..11|..|F-2 2A.F ....|--- .... ....|--- .... ....
....|..|R-- .... ....|R-- .... ....|R-- .... ....
....|..|--- .... ....|R-- .... ....|R-- .... ....
....|..|B-8 JF.F ....|G-4 2F.F ....|A-3 2F3F ....
..11|..|F-2 2A.F ....|--- .... ....|--- .... ....
....|..|R-- .... ....|R-- .... ....|R-- .... ....
....|..|--- .... ....|--- .... ....|--- .... ....
....|..|C-4 AF.F ....|G-4 2F.F ....|A-3 2F3F ....
....|..|R-- .... ....|--- .... ....|--- .... ....
....|..|R-- .... ....|R-- .... ....|R-- .... ....
....|..|--- .... ....|R-- .... ....|R-- .... ....
....|..|B-8 JF.F ....|G-4 2F.F ....|A-3 2F3F ....
..1B|..|A-1 2A.F ....|--- .... ....|--- .... ....
....|..|R-- .... ....|R-- .... ....|R-- .... ....
....|..|--- .... ....|R-- .... ....|R-- .... ....
....|..|C-4 AF.F ....|G-4 2F.F ....|A-3 2F3F ....
..16|..|C-2 2A.F ....|--- .... ....|--- .... ....
....|..|R-- .... ....|R-- .... ....|R-- .... ....
....|..|--- .... ....|--- .... ....|--- .... ....
....|..|B-8 JF.F ....|G-4 2F.F ....|A-3 2F3F ....
..16|..|C-2 2A.F ....|--- .... ....|--- .... ....
....|..|R-- .... ....|R-- .... ....|R-- .... ....
....|..|--- .... ....|R-- .... ....|R-- .... ....

[Pattern53]
....|..|C-4 AF.F ....|G-4 2F.F ....|A-3 2F3F ....
..12|..|E-2 2A.F ....|--- .... ....|--- .... ....
....|..|R-- .... ....|R-- .... ....|R-- .... ....
....|..|--- .... ....|R-- .... ....|R-- .... ....
....|..|B-8 JF.F ....|G-4 2F.F ....|A-3 2F3F ....
..12|..|E-2 2A.F ....|R-- .... ....|R-- .... ....
...F|..|R-- .... ....|G-4 2F.F ....|G-4 2C.F ....
....|..|--- .... ....|--- .... ....|--- .... ....
....|..|C-4 AF.F ....|G-4 2F.7 ....|A-3 2F3F ....
..11|..|F-2 2A.F ....|--- .... ....|--- .... ....
....|..|R-- .... ....|R-- .... ....|R-- .... ....
....|..|--- .... ....|R-- .... ....|R-- .... ....
....|..|B-8 JF.F ....|G-4 2F.F ....|A-3 2F3F ....
..11|..|F-2 2A.F ....|R-- .... ....|R-- .... ....
....|..|R-- .... ....|R-- .... ....|R-- .... ....
....|..|--- .... ....|--- .... ....|--- .... ....
....|..|C-4 AF.F ....|G-4 2F.F ....|A-3 2F3F ....
....|..|C-2 2F.7 ....|R-- .... ....|R-- .... ....
....|..|R-- .... ....|R-- .... ....|R-- .... ....
....|..|--- .... ....|--- .... ....|--- .... ....
....|..|B-8 JF.F ....|G-4 2F.7 ....|A-3 2F3F ....
..1B|..|A-1 2A.F ....|--- .... ....|--- .... ....
....|..|R-- .... ....|R-- .... ....|R-- .... ....
....|..|--- .... ....|R-- .... ....|R-- .... ....
....|..|C-4 AF.F ....|G-4 2F.F ....|A-3 2F3F ....
....|..|E-2 2F.7 ....|R-- .... ....|R-- .... ....
....|..|R-- .... ....|R-- .... ....|R-- .... ....
....|..|--- .... ....|--- .... ....|--- .... ....
....|..|B-8 JF.F ....|G-4 2F.7 ....|A-3 2F3F ....
..16|..|C-2 2A.F ....|R-- .... ....|R-- .... ....
....|..|R-- .... ....|G-4 2F.7 ....|G-4 2F.7 ....
....|..|--- .... ....|--- .... ....|--- .... ....
....|..|C-4 AF.F ....|G-4 2F.F ....|A-3 2F3F ....
..12|..|E-2 2A.F ....|--- .... ....|--- .... ....
....|..|R-- .... ....|R-- .... ....|R-- .... ....
....|..|--- .... ....|R-- .... ....|R-- .... ....
....|..|B-8 JF.F ....|G-4 2F.F ....|A-3 2F3F ....
..12|..|E-2 2A.F ....|R-- .... ....|R-- .... ....
....|..|R-- .... ....|R-- .... ....|R-- .... ....
....|..|--- .... ....|--- .... ....|--- .... ....
....|..|C-4 AF.F ....|G-4 2F.F ....|A-3 2F3F ....
..11|..|F-2 2A.F ....|--- .... ....|--- .... ....
....|..|R-- .... ....|R-- .... ....|R-- .... ....
....|..|--- .... ....|--- .... ....|--- .... ....
....|..|B-8 JF.F ....|G-4 2F.F ....|A-3 2F3F ....
..11|..|F-2 2A.F ....|--- .... ....|--- .... ....
....|..|R-- .... ....|R-- .... ....|R-- .... ....
....|..|--- .... ....|--- .... ....|--- .... ....
....|..|C-4 AF.F ....|G-4 2F.F ....|A-3 2F3F ....
....|..|R-- .... ....|--- .... ....|--- .... ....
....|..|R-- .... ....|R-- .... ....|R-- .... ....
....|..|--- .... ....|--- .... ....|--- .... ....
....|..|B-8 JF.F ....|G-4 2F.F ....|A-3 2F3F ....
...F|..|G-2 2A.F ....|--- .... ....|--- .... ....
....|..|R-- .... ....|R-- .... ....|R-- .... ....
....|..|--- .... ....|--- .... ....|--- .... ....
....|..|C-4 AF.F ....|G-4 2F.F ....|A-3 2F3F ....
....|..|E-2 2F.7 ....|--- .... ....|--- .... ....
...F|..|R-- .... ....|G-4 2F.F ....|G-4 2C.F ....
....|..|--- .... ....|--- .... ....|--- .... ....
....|..|B-8 JF.F ....|G-4 2F.7 ....|A-3 2F3F ....
...F|..|G-2 2A.F ....|--- .... ....|--- .... ....
...F|..|R-- .... ....|G-4 2F.F ....|G-4 2C.F ....
....|..|--- .... ....|--- .... ....|--- .... ....

[Pattern54]
....|..|C-4 AF.F ....|G-4 2F.7 ....|A-3 2F3F ....
....|..|F-2 2F.7 ....|--- .... ....|--- .... ....
....|..|R-- .... ....|R-- .... ....|R-- .... ....
...F|..|--- .... ....|G-4 2F.F ....|G-4 2C.F ....
....|..|B-8 JF.F ....|G-4 2F.7 ....|A-3 2F3F ....
...F|..|G-2 2A.F ....|--- .... ....|--- .... ....
....|..|R-- .... ....|R-- .... ....|R-- .... ....
....|..|--- .... ....|--- .... ....|--- .... ....
....|..|C-4 AF.7 ....|G-4 2F.7 ....|A-3 2F3F ....
....|..|R-- .... ....|--- .... ....|--- .... ....
....|..|R-- .... ....|R-- .... ....|R-- .... ....
....|..|--- .... ....|--- .... ....|--- .... ....
...F|..|G-2 2A.F ....|G-4 2F.F ....|A-3 2F3F ....
....|..|G-2 2F.7 ....|--- .... ....|--- .... ....
....|..|--- .... ....|R-- .... ....|R-- .... ....
....|..|R-- .... ....|R-- .... ....|R-- .... ....
....|..|C-4 AF.F ....|F-4 2F.F ....|F-4 2F1F ....
..22|..|F-1 2A.F ....|--- .... ....|R-- .... ....
..11|..|F-2 2A.F ....|G-4 2F.7 ....|G-4 2F.7 ....
....|..|R-- .... ....|--- .... ....|--- .... ....
..22|..|F-1 2A.F ....|R-- .... ....|F-4 2F1F ....
..11|..|F-2 2A.F ....|--- .... ....|R-- .... ....
....|..|R-- .... ....|G-4 2F.7 ....|G-4 2F.7 ....
....|..|--- .... ....|--- .... ....|--- .... ....
....|..|C-4 AF.F ....|C-5 2F.F ....|F-4 2F1F ....
....|..|R-- .... ....|--- .... ....|R-- .... ....
....|..|R-- .... ....|--- .... ....|R-- .... ....
....|..|R-- .... ....|G-4 2F.7 ....|G-4 2F.7 ....
..22|..|F-1 2A.F ....|B-4 2F.F ....|F-4 2F1F ....
..11|..|F-2 2A.F ....|--- .... ....|R-- .... ....
....|..|F-2 2F.A ....|--- .... ....|R-- .... ....
....|..|R-- .... ....|--- .... ....|--- .... ....
....|..|C-4 AF.F ....|R-- .... ....|A-3 2FAF ....
....|..|R-- .... ....|R-- .... ....|R-- .... ....
....|..|R-- .... ....|--- .... ....|R-- .... ....
....|..|--- .... ....|--- .... ....|R-- .... ....
..22|..|F-1 2A.F ....|G-4 2F.F ....|F-4 2F1F ....
..11|..|F-2 2A.F ....|--- .... ....|R-- .... ....
....|..|R-- .... ....|--- .... ....|R-- .... ....
....|..|R-- .... ....|R-- .... ....|R-- .... ....
....|..|C-4 AF.F ....|F-4 2F.7 ....|F-4 2F17 ....
....|..|F-1 2F.7 ....|R-- .... ....|R-- .... ....
....|..|F-2 2F.7 ....|--- .... ....|--- .... ....
....|..|R-- .... ....|--- .... ....|R-- .... ....
..22|..|F-1 2A.F ....|A-4 2F.F ....|F-4 2F1F ....
..11|..|F-2 2A.F ....|R-- .... ....|R-- .... ....
....|..|--- .... ....|--- .... ....|R-- .... ....
....|..|R-- .... ....|--- .... ....|R-- .... ....
....|..|C-4 AF.F ....|C-5 2F.7 ....|G-4 2F1F ....
..1E|..|G-1 2A.F ....|--- .... ....|G-5 2F.F ....
...F|..|G-2 2A.F ....|--- .... ....|R-- .... ....
....|..|--- .... ....|--- .... ....|--- .... ....
..1E|..|G-1 2A.F ....|B-4 2F.7 ....|G-4 2F1F ....
...F|..|G-2 2A.F ....|R-- .... ....|G-5 2F.F ....
....|..|R-- .... ....|--- .... ....|R-- .... ....
....|..|R-- .... ....|R-- .... ....|R-- .... ....
....|..|C-4 AF.F ....|C-5 2F.F ....|G-4 2F1F ....
....|..|R-- .... ....|R-- .... ....|G-4 2F2F ....
....|..|R-- .... ....|--- .... ....|R-- .... ....
....|..|R-- .... ....|R-- .... ....|R-- .... ....
..1E|..|G-1 2A.F ....|C-5 2F.F ....|G-4 2F1F ....
...F|..|G-2 2A.F ....|--- .... ....|G-5 2F.A ....
....|..|G-2 2F.A ....|--- .... ....|R-- .... ....
....|..|--- .... ....|--- .... ....|--- .... ....

[Pattern55]
...C|..|C-4 AF.F ....|B-4 2F.F ....|B-4 2C.F ....
....|..|R-- .... ....|R-- .... ....|R-- .... ....
....|..|R-- .... ....|--- .... ....|R-- .... ....
....|..|--- .... ....|R-- .... ....|R-- .... ....
..1E|..|G-1 2A.F ....|B-4 2F.F ....|G-4 2F1F ....
...F|..|G-2 2A.F ....|--- .... ....|G-4 2F2A ....
....|..|R-- .... ....|--- .... ....|R-- .... ....
....|..|R-- .... ....|R-- .... ....|R-- .... ....
....|..|C-4 AF.F ....|G-4 2F.F ....|G-4 2F1F ....
....|..|G-1 2F.7 ....|--- .... ....|G-5 2F.7 ....
....|..|G-2 2F.7 ....|--- .... ....|R-- .... ....
....|..|--- .... ....|--- .... ....|--- .... ....
..1E|..|G-1 2A.F ....|E-4 2F.F ....|G-4 2F1F ....
...F|..|G-2 2A.F ....|--- .... ....|G-5 2F.7 ....
....|..|--- .... ....|--- .... ....|R-- .... ....
....|..|R-- .... ....|R-- .... ....|R-- .... ....
....|..|C-4 AF.F ....|C-5 2F.7 ....|A-4 2F3F ....
..1B|..|A-1 2A.F ....|--- .... ....|G-4 2F27 ....
..1B|..|A-2 2C.F ....|--- .... ....|R-- .... ....
....|..|R-- .... ....|R-- .... ....|R-- .... ....
..1B|..|A-1 2A.F ....|C-5 2F.7 ....|A-4 2F3F ....
..1B|..|A-2 2C.F ....|--- .... ....|R-- .... ....
....|..|R-- .... ....|R-- .... ....|R-- .... ....
..2D|..|--- .F.. ....|C-5 2F.F ....|C-5 2C.F ....
....|..|C-4 AF.F ....|B-4 2F.7 ....|A-4 2F3F ....
....|..|R-- .... ....|--- .... ....|R-- .... ....
....|..|R-- .... ....|--- .... ....|R-- .... ....
....|..|R-- .... ....|R-- .... ....|R-- .... ....
..1B|..|A-1 2A.F ....|B-4 2F.F ....|A-4 2F3F ....
..1B|..|A-2 2C.F ....|--- .... ....|R-- .... ....
....|..|A-2 2F.A ....|--- .... ....|R-- .... ....
....|..|R-- .... ....|R-- .... ....|R-- .... ....
....|..|C-4 AF.F ....|G-4 2F.7 ....|G-4 2F17 ....
....|..|R-- .... ....|R-- .... ....|R-- .... ....
....|..|R-- .... ....|R-- .... ....|R-- .... ....
....|..|--- .... ....|C-5 2F.A ....|C-5 2F.A ....
..1B|..|A-1 2A.F ....|G-4 2F.F ....|A-4 2F3F ....
..1B|..|A-2 2C.F ....|--- .... ....|A-5 2F.F ....
....|..|R-- .... ....|--- .... ....|R-- .... ....
....|..|R-- .... ....|--- .... ....|--- .... ....
....|..|C-4 AF.F ....|R-- .... ....|A-4 2F3F ....
....|..|A-1 2F.7 ....|--- .... ....|A-5 2F.F ....
....|..|A-2 2F.7 ....|--- .... ....|R-- .... ....
....|..|R-- .... ....|--- .... ....|--- .... ....
..1B|..|A-1 2A.F ....|A-4 2F.F ....|A-4 2F3F ....
..1B|..|A-2 2C.F ....|R-- .... ....|A-5 2F.F ....
....|..|--- .... ....|R-- .... ....|R-- .... ....
....|..|--- .... ....|C-5 2F.7 ....|C-5 2F.7 ....
....|..|C-4 AF.F ....|G-4 2F.A ....|A-4 2F3F ....
..16|..|C-2 2A.F ....|--- .... ....|A-4 2F4F ....
..16|..|C-3 2C.F ....|--- .... ....|R-- .... ....
....|..|R-- .... ....|--- .... ....|--- .... ....
..16|..|C-2 2A.F ....|B-4 2F.7 ....|A-4 2F3F ....
..16|..|C-3 2C.F ....|R-- .... ....|A-4 2F4F ....
....|..|R-- .... ....|--- .... ....|R-- .... ....
....|..|R-- .... ....|--- .... ....|--- .... ....
....|..|C-4 AF.F ....|E-5 2F.F ....|A-4 2F3F ....
....|..|R-- .... ....|R-- .... ....|A-4 2F4F ....
....|..|R-- .... ....|--- .... ....|R-- .... ....
....|..|--- .... ....|R-- .... ....|R-- .... ....
..16|..|C-2 2A.F ....|E-5 2F.F ....|A-4 2F3F ....
..16|..|C-3 2C.F ....|--- .... ....|A-5 2F.7 ....
....|..|C-3 2F.A ....|R-- .... ....|R-- .... ....
....|..|R-- .... ....|--- .... ....|--- .... ....

[Pattern56]
....|..|C-4 AF.F ....|E-5 2F.F ....|C-4 2FAF ....
....|..|R-- .... ....|R-- .... ....|A-5 2F.7 ....
....|..|R-- .... ....|--- .... ....|R-- .... ....
....|..|--- .... ....|R-- .... ....|R-- .... ....
..16|..|C-2 2A.F ....|E-5 2F.F ....|E-5 2F5F ....
..16|..|C-3 2C.F ....|--- .... ....|A-5 2F.7 ....
....|..|R-- .... ....|--- .... ....|R-- .... ....
....|..|--- .... ....|R-- .... ....|R-- .... ....
....|..|C-4 AF.F ....|D-5 2F.F ....|E-5 2F5F ....
....|..|C-2 2F.7 ....|--- .... ....|A-4 2F47 ....
....|..|C-3 2F.7 ....|R-- .... ....|R-- .... ....
....|..|R-- .... ....|--- .... ....|--- .... ....
..16|..|C-2 2A.F ....|C-5 2F.F ....|E-5 2F5F ....
..16|..|C-3 2C.F ....|R-- .... ....|A-4 2F47 ....
....|..|--- .... ....|--- .... ....|R-- .... ....
....|..|--- .... ....|R-- .... ....|R-- .... ....
....|..|C-4 AF.F ....|E-5 2F.7 ....|F-4 2F1F ....
..22|..|F-1 2A.F ....|R-- .... ....|A-4 2F47 ....
..11|..|F-2 2A.F ....|--- .... ....|R-- .... ....
....|..|R-- .... ....|R-- .... ....|R-- .... ....
..22|..|F-1 2A.F ....|E-5 2F.7 ....|F-4 2F1F ....
..11|..|F-2 2A.F ....|--- .... ....|R-- .... ....
....|..|R-- .... ....|R-- .... ....|R-- .... ....
....|..|--- .... ....|--- .... ....|--- .... ....
....|..|C-4 AF.F ....|C-5 2F.F ....|F-4 2F1F ....
....|..|R-- .... ....|--- .... ....|R-- .... ....
....|..|R-- .... ....|--- .... ....|R-- .... ....
....|..|--- .... ....|R-- .... ....|R-- .... ....
..22|..|F-1 2A.F ....|B-4 2F.F ....|F-4 2F1F ....
..11|..|F-2 2A.F ....|R-- .... ....|R-- .... ....
....|..|F-2 2F.A ....|--- .... ....|R-- .... ....
....|..|R-- .... ....|--- .... ....|--- .... ....
....|..|C-4 AF.F ....|D-5 2F.7 ....|A-3 2FAF ....
....|..|R-- .... ....|R-- .... ....|R-- .... ....
....|..|R-- .... ....|--- .... ....|R-- .... ....
....|..|--- .... ....|--- .... ....|R-- .... ....
..22|..|F-1 2A.F ....|G-4 2F.F ....|F-4 2F1F ....
..11|..|F-2 2A.F ....|--- .... ....|R-- .... ....
....|..|R-- .... ....|--- .... ....|--- .... ....
....|..|--- .... ....|--- .... ....|R-- .... ....
....|..|C-4 AF.F ....|B-4 2F.A ....|F-4 2F17 ....
....|..|F-1 2F.7 ....|R-- .... ....|R-- .... ....
....|..|F-2 2F.7 ....|--- .... ....|--- .... ....
....|..|R-- .... ....|--- .... ....|R-- .... ....
..22|..|F-1 2A.F ....|A-4 2F.F ....|F-4 2F1F ....
..11|..|F-2 2A.F ....|R-- .... ....|R-- .... ....
....|..|--- .... ....|--- .... ....|R-- .... ....
....|..|R-- .... ....|--- .... ....|R-- .... ....
....|..|C-4 AF.F ....|C-5 2F.7 ....|G-4 2F1F ....
..1E|..|G-1 2A.F ....|--- .... ....|G-5 2F.F ....
...F|..|G-2 2A.F ....|--- .... ....|R-- .... ....
....|..|--- .... ....|--- .... ....|--- .... ....
..1E|..|G-1 2A.F ....|B-4 2F.7 ....|G-4 2F1F ....
...F|..|G-2 2A.F ....|R-- .... ....|G-5 2F.F ....
....|..|R-- .... ....|--- .... ....|R-- .... ....
....|..|R-- .... ....|R-- .... ....|R-- .... ....
....|..|C-4 AF.F ....|C-5 2F.F ....|G-4 2F1F ....
....|..|R-- .... ....|R-- .... ....|G-4 2F2F ....
....|..|R-- .... ....|--- .... ....|R-- .... ....
....|..|R-- .... ....|R-- .... ....|R-- .... ....
..1E|..|G-1 2A.F ....|C-5 2F.F ....|G-4 2F1F ....
...F|..|G-2 2A.F ....|--- .... ....|G-5 2F.A ....
....|..|G-2 2F.A ....|--- .... ....|R-- .... ....
....|..|--- .... ....|--- .... ....|--- .... ....

[Pattern57]
...C|..|C-4 AF.F ....|B-4 2F.F ....|B-4 2C.F ....
....|..|R-- .... ....|R-- .... ....|R-- .... ....
....|..|R-- .... ....|--- .... ....|R-- .... ....
....|..|--- .... ....|R-- .... ....|R-- .... ....
..1E|..|G-1 2A.F ....|B-4 2F.F ....|G-4 2F1F ....
...F|..|G-2 2A.F ....|--- .... ....|G-4 2F2A ....
....|..|R-- .... ....|--- .... ....|R-- .... ....
....|..|R-- .... ....|R-- .... ....|R-- .... ....
....|..|C-4 AF.F ....|G-4 2F.F ....|G-4 2F1F ....
....|..|G-1 2F.7 ....|--- .... ....|G-5 2F.7 ....
....|..|G-2 2F.7 ....|--- .... ....|R-- .... ....
....|..|--- .... ....|--- .... ....|--- .... ....
..1E|..|G-1 2A.F ....|E-4 2F.F ....|G-4 2F1F ....
...F|..|G-2 2A.F ....|--- .... ....|G-5 2F.7 ....
....|..|--- .... ....|--- .... ....|R-- .... ....
....|..|R-- .... ....|R-- .... ....|R-- .... ....
....|..|C-4 AF.F ....|C-5 2F.7 ....|G#4 2F6F ....
..1C|..|G#1 2A.F ....|--- .... ....|G-4 2F27 ....
...E|..|G#2 2A.F ....|--- .... ....|R-- .... ....
....|..|R-- .... ....|R-- .... ....|R-- .... ....
..1C|..|G#1 2A.F ....|C-5 2F.7 ....|G#4 2F6F ....
...E|..|G#2 2A.F ....|--- .... ....|R-- .... ....
....|..|R-- .... ....|R-- .... ....|R-- .... ....
..2D|..|--- .F.. ....|C-5 2F.F ....|C-5 2C.F ....
....|..|C-4 AF.F ....|B-4 2F.7 ....|G#4 2F6F ....
....|..|R-- .... ....|--- .... ....|R-- .... ....
....|..|R-- .... ....|--- .... ....|R-- .... ....
....|..|R-- .... ....|R-- .... ....|R-- .... ....
..1C|..|G#1 2A.F ....|B-4 2F.F ....|G#4 2F6F ....
...E|..|G#2 2A.F ....|--- .... ....|R-- .... ....
....|..|G#2 2F.A ....|--- .... ....|R-- .... ....
....|..|R-- .... ....|R-- .... ....|R-- .... ....
....|..|C-4 AF.F ....|G-4 2F.7 ....|G-4 2F17 ....
....|..|R-- .... ....|R-- .... ....|R-- .... ....
....|..|R-- .... ....|R-- .... ....|R-- .... ....
....|..|--- .... ....|C-5 2F.A ....|C-5 2F.A ....
..1C|..|G#1 2A.F ....|G-4 2F.F ....|G#4 2F6F ....
...E|..|G#2 2A.F ....|--- .... ....|G#5 2F.F ....
....|..|R-- .... ....|--- .... ....|R-- .... ....
....|..|R-- .... ....|--- .... ....|--- .... ....
....|..|C-4 AF.F ....|R-- .... ....|G#4 2F6F ....
....|..|G#1 2F.7 ....|--- .... ....|G#5 2F.F ....
....|..|G#2 2F.7 ....|--- .... ....|R-- .... ....
....|..|R-- .... ....|--- .... ....|--- .... ....
..1C|..|G#1 2A.F ....|A-4 2F.F ....|G#4 2F6F ....
...E|..|G#2 2A.F ....|R-- .... ....|G#5 2F.F ....
....|..|--- .... ....|R-- .... ....|R-- .... ....
....|..|--- .... ....|C-5 2F.7 ....|C-5 2F.7 ....
....|..|C-4 AF.F ....|G-4 2F.A ....|A-4 2F3F ....
..1B|..|A-1 2A.F ....|--- .... ....|A-4 2F4F ....
..1B|..|A-2 2C.F ....|--- .... ....|R-- .... ....
....|..|R-- .... ....|--- .... ....|--- .... ....
..1B|..|A-1 2A.F ....|B-4 2F.7 ....|A-4 2F3F ....
..1B|..|A-2 2C.F ....|R-- .... ....|A-4 2F4F ....
....|..|R-- .... ....|--- .... ....|R-- .... ....
....|..|R-- .... ....|--- .... ....|--- .... ....
....|..|C-4 AF.F ....|E-5 2F.F ....|A-4 2F3F ....
....|..|R-- .... ....|R-- .... ....|A-4 2F4F ....
....|..|R-- .... ....|--- .... ....|R-- .... ....
....|..|--- .... ....|R-- .... ....|R-- .... ....
..1B|..|A-1 2A.F ....|E-5 2F.F ....|A-4 2F3F ....
..1B|..|A-2 2C.F ....|--- .... ....|G#5 2F.7 ....
....|..|A-2 2F.A ....|R-- .... ....|R-- .... ....
....|..|R-- .... ....|--- .... ....|--- .... ....

[Pattern58]
....|..|C-4 AF.F ....|E-5 2F.F ....|C-4 2FAF ....
....|..|R-- .... ....|R-- .... ....|G#5 2F.7 ....
....|..|R-- .... ....|--- .... ....|R-- .... ....
....|..|--- .... ....|R-- .... ....|R-- .... ....
..1B|..|A-1 2A.F ....|E-5 2F.F ....|E-5 2F5F ....
..1B|..|A-2 2C.F ....|--- .... ....|G#5 2F.7 ....
....|..|R-- .... ....|--- .... ....|R-- .... ....
....|..|--- .... ....|R-- .... ....|R-- .... ....
....|..|C-4 AF.F ....|D-5 2F.F ....|E-5 2F5F ....
....|..|A-1 2F.7 ....|--- .... ....|A-4 2F47 ....
....|..|A-2 2F.7 ....|R-- .... ....|R-- .... ....
....|..|R-- .... ....|--- .... ....|--- .... ....
..1B|..|A-1 2A.F ....|C-5 2F.F ....|E-5 2F5F ....
..1B|..|A-2 2C.F ....|R-- .... ....|A-4 2F47 ....
....|..|--- .... ....|--- .... ....|R-- .... ....
....|..|--- .... ....|R-- .... ....|R-- .... ....
....|..|C-4 AF.F ....|E-5 2F.7 ....|F-4 2F1F ....
..22|..|F-1 2A.F ....|--- .... ....|A-4 2F47 ....
..11|..|F-2 2A.F ....|--- .... ....|R-- .... ....
....|..|R-- .... ....|R-- .... ....|R-- .... ....
..22|..|F-1 2A.F ....|E-5 2F.7 ....|F-4 2F1F ....
..11|..|F-2 2A.F ....|--- .... ....|R-- .... ....
....|..|R-- .... ....|R-- .... ....|R-- .... ....
....|..|R-- .... ....|--- .... ....|--- .... ....
....|..|C-4 AF.F ....|E-5 2F.7 ....|F-4 2F1F ....
....|..|R-- .... ....|--- .... ....|R-- .... ....
....|..|R-- .... ....|--- .... ....|R-- .... ....
....|..|--- .... ....|R-- .... ....|R-- .... ....
..22|..|F-1 2A.F ....|E-5 2F.7 ....|F-4 2F1F ....
..11|..|F-2 2A.F ....|--- .... ....|R-- .... ....
....|..|F-2 2F.A ....|--- .... ....|R-- .... ....
....|..|R-- .... ....|--- .... ....|--- .... ....
....|..|C-4 AF.F ....|D-5 2F.7 ....|A-3 2FAF ....
....|..|R-- .... ....|--- .... ....|R-- .... ....
....|..|R-- .... ....|--- .... ....|R-- .... ....
....|..|--- .... ....|--- .... ....|R-- .... ....
..22|..|F-1 2A.F ....|C-5 2F.7 ....|F-4 2F1F ....
..11|..|F-2 2A.F ....|--- .... ....|R-- .... ....
....|..|R-- .... ....|--- .... ....|--- .... ....
....|..|--- .... ....|--- .... ....|R-- .... ....
....|..|C-4 AF.F ....|--- .... ....|D-4 2F.F ....
....|..|F-1 2F.7 ....|--- .... ....|R-- .... ....
....|..|F-2 2F.7 ....|--- .... ....|--- .... ....
....|..|R-- .... ....|--- .... ....|R-- .... ....
..22|..|F-1 2A.F ....|R-- .... ....|F-4 2F1F ....
..11|..|F-2 2A.F ....|--- .... ....|R-- .... ....
....|..|--- .... ....|--- .... ....|R-- .... ....
....|..|R-- .... ....|--- .... ....|R-- .... ....
....|..|C-4 AF.F ....|--- .... ....|G-4 2F1F ....
..1E|..|G-1 2A.F ....|--- .... ....|G-5 2F.F ....
...F|..|G-2 2A.F ....|--- .... ....|R-- .... ....
....|..|--- .... ....|--- .... ....|--- .... ....
..1E|..|G-1 2A.F ....|--- .... ....|G-4 2F1F ....
...F|..|G-2 2A.F ....|--- .... ....|G-5 2F.F ....
....|..|R-- .... ....|--- .... ....|R-- .... ....
....|..|R-- .... ....|--- .... ....|R-- .... ....
....|..|C-4 AF.F ....|E-5 2F.F ....|G-4 2F1F ....
....|..|R-- .... ....|--- .... ....|G-4 2F2F ....
....|..|R-- .... ....|--- .... ....|R-- .... ....
....|..|R-- .... ....|R-- .... ....|R-- .... ....
..1E|..|G-1 2A.F ....|E-5 2F.F ....|G-4 2F1F ....
...F|..|G-2 2A.F ....|--- .... ....|G-5 2F.A ....
....|..|G-2 2F.A ....|R-- .... ....|R-- .... ....
....|..|--- .... ....|--- .... ....|--- .... ....

[Pattern59]
....|..|C-4 AF.F ....|E-5 2F.F ....|C-4 2F.F ....
....|..|R-- .... ....|--- .... ....|G-5 2F.A ....
....|..|R-- .... ....|--- .... ....|R-- .... ....
....|..|--- .... ....|R-- .... ....|R-- .... ....
..1E|..|G-1 2A.F ....|E-5 2F.F ....|G-4 2F1F ....
...F|..|G-2 2A.F ....|--- .... ....|G-4 2F2A ....
....|..|R-- .... ....|--- .... ....|R-- .... ....
....|..|R-- .... ....|R-- .... ....|R-- .... ....
....|..|C-4 AF.F ....|G-5 2F.F ....|G-4 2F1F ....
....|..|G-1 2F.7 ....|--- .... ....|G-5 2F.7 ....
....|..|G-2 2F.7 ....|R-- .... ....|R-- .... ....
....|..|--- .... ....|--- .... ....|--- .... ....
..1E|..|G-1 2A.F ....|C-5 2F.F ....|G-4 2F1F ....
...F|..|G-2 2A.F ....|--- .... ....|G-5 2F.7 ....
....|..|--- .... ....|--- .... ....|R-- .... ....
....|..|R-- .... ....|R-- .... ....|R-- .... ....
....|..|C-4 AF.F ....|E-5 2F.7 ....|A-4 2F3F ....
..1B|..|A-1 2A.F ....|--- .... ....|G-4 2F27 ....
..1B|..|A-2 2C.F ....|--- .... ....|R-- .... ....
....|..|R-- .... ....|R-- .... ....|R-- .... ....
..1B|..|A-1 2A.F ....|E-5 2F.7 ....|A-4 2F3F ....
..1B|..|A-2 2C.F ....|--- .... ....|R-- .... ....
....|..|R-- .... ....|R-- .... ....|R-- .... ....
....|..|--- .... ....|--- .... ....|--- .... ....
....|..|C-4 AF.F ....|E-5 2F.7 ....|A-4 2F3F ....
....|..|R-- .... ....|--- .... ....|R-- .... ....
....|..|R-- .... ....|--- .... ....|R-- .... ....
....|..|R-- .... ....|R-- .... ....|R-- .... ....
..1B|..|A-1 2A.F ....|E-5 2F.7 ....|A-4 2F3F ....
..1B|..|A-2 2C.F ....|--- .... ....|R-- .... ....
....|..|A-2 2F.A ....|--- .... ....|R-- .... ....
....|..|R-- .... ....|--- .... ....|--- .... ....
....|..|C-4 AF.F ....|G-5 2F.7 ....|E-4 2F.F ....
....|..|R-- .... ....|--- .... ....|R-- .... ....
....|..|R-- .... ....|R-- .... ....|R-- .... ....
....|..|--- .... ....|--- .... ....|--- .... ....
..1B|..|A-1 2A.F ....|C-5 2F.7 ....|A-4 2F3F ....
..1B|..|A-2 2C.F ....|--- .... ....|A-5 2F.F ....
....|..|R-- .... ....|--- .... ....|R-- .... ....
....|..|R-- .... ....|--- .... ....|--- .... ....
....|..|C-4 AF.F ....|--- .... ....|A-4 2F3F ....
....|..|A-1 2F.7 ....|--- .... ....|A-5 2F.F ....
....|..|A-2 2F.7 ....|--- .... ....|R-- .... ....
....|..|R-- .... ....|--- .... ....|--- .... ....
..1B|..|A-1 2A.F ....|--- .... ....|A-4 2F3F ....
..1B|..|A-2 2C.F ....|--- .... ....|A-5 2F.F ....
....|..|--- .... ....|R-- .... ....|R-- .... ....
....|..|--- .... ....|--- .... ....|--- .... ....
....|..|C-4 AF.F ....|--- .... ....|A-4 2F3F ....
..16|..|C-2 2A.F ....|--- .... ....|A-4 2F4F ....
..16|..|C-3 2C.F ....|--- .... ....|R-- .... ....
....|..|R-- .... ....|--- .... ....|--- .... ....
..16|..|C-2 2A.F ....|--- .... ....|A-4 2F3F ....
..16|..|C-3 2C.F ....|--- .... ....|A-4 2F4F ....
....|..|R-- .... ....|--- .... ....|R-- .... ....
....|..|R-- .... ....|--- .... ....|--- .... ....
....|..|C-4 AF.F ....|C-6 2F.F ....|A-4 2F3F ....
....|..|R-- .... ....|--- .... ....|A-4 2F4F ....
....|..|R-- .... ....|R-- .... ....|R-- .... ....
..2D|..|--- .... ....|C-6 2F.F ....|C-6 2C.F ....
..16|..|C-2 2A.F ....|--- .... ....|A-4 2F3F ....
..16|..|C-3 2C.F ....|R-- .... ....|A-5 2F.7 ....
....|..|C-3 2F.A ....|--- .... ....|R-- .... ....
..2D|..|R-- .... ....|C-6 2F.F ....|C-6 2C.F ....

[Pattern60]
....|..|C-4 AF.F ....|--- .... ....|C-4 2FAF ....
....|..|R-- .... ....|--- .... ....|A-5 2F.7 ....
....|..|R-- .... ....|R-- .... ....|R-- .... ....
..2D|..|--- .... ....|C-6 2F.F ....|C-6 2C.F ....
..16|..|C-2 2A.F ....|C-6 2F.A ....|E-5 2F5F ....
..16|..|C-3 2C.F ....|--- .... ....|A-5 2F.7 ....
....|..|R-- .... ....|R-- .... ....|R-- .... ....
...C|..|--- .F.. ....|B-5 2F.F ....|B-5 2C.F ....
....|..|C-4 AF.F ....|--- .... ....|E-5 2F5F ....
....|..|C-2 2F.7 ....|R-- .... ....|A-4 2F47 ....
....|..|C-3 2F.7 ....|--- .... ....|R-- .... ....
..1B|..|R-- .... ....|A-5 2F.F ....|A-5 2C.F ....
..16|..|C-2 2A.F ....|--- .... ....|E-5 2F5F ....
..16|..|C-3 2C.F ....|--- .... ....|A-4 2F47 ....
....|..|--- .... ....|R-- .... ....|R-- .... ....
....|..|--- .... ....|C-6 2F.A ....|R-- .... ....
....|..|C-4 AF.F ....|C-6 2F.7 ....|F-4 2F1F ....
..22|..|F-1 2A.F ....|--- .... ....|A-4 2F47 ....
..11|..|F-2 2A.F ....|R-- .... ....|R-- .... ....
...F|..|R-- .... ....|G-5 2F.F ....|G-5 2C.F ....
..22|..|F-1 2A.F ....|--- .... ....|F-4 2F1F ....
..11|..|F-3 2C.F ....|F-5 2F.F ....|F-5 2C.F ....
....|..|R-- .... ....|--- .... ....|R-- .... ....
....|..|--- .... ....|C-6 2F.7 ....|C-6 2F.7 ....
....|..|C-4 AF.F ....|--- .... ....|F-4 2F1F ....
....|..|R-- .... ....|--- .... ....|R-- .... ....
....|..|R-- .... ....|R-- .... ....|R-- .... ....
....|..|--- .... ....|C-6 2F.7 ....|C-6 2F.7 ....
..22|..|F-1 2A.F ....|--- .... ....|F-4 2F1F ....
..11|..|F-2 2A.F ....|--- .... ....|R-- .... ....
....|..|F-2 2F.A ....|--- .... ....|R-- .... ....
....|..|R-- .... ....|B-5 2F.7 ....|B-5 2F.7 ....
....|..|C-4 AF.F ....|--- .... ....|A-3 2FAF ....
....|..|R-- .... ....|F-5 2F.A ....|F-5 2F.A ....
....|..|R-- .... ....|--- .... ....|R-- .... ....
....|..|--- .... ....|A-5 2F.7 ....|A-5 2F.7 ....
..22|..|F-1 2A.F ....|--- .... ....|F-4 2F1F ....
..11|..|F-2 2A.F ....|--- .... ....|R-- .... ....
....|..|R-- .... ....|--- .... ....|--- .... ....
....|..|--- .... ....|--- .... ....|R-- .... ....
....|..|C-4 AF.F ....|--- .... ....|D-4 2F.F ....
....|..|F-1 2F.7 ....|R-- .... ....|R-- .... ....
....|..|F-2 2F.7 ....|--- .... ....|--- .... ....
....|..|R-- .... ....|G-5 2F.7 ....|G-5 2F.7 ....
..22|..|F-1 2A.F ....|--- .... ....|F-4 2F1F ....
..11|..|F-2 2A.F ....|F-5 2F.7 ....|F-5 2F.7 ....
....|..|--- .... ....|--- .... ....|R-- .... ....
....|..|R-- .... ....|--- .... ....|R-- .... ....
....|..|C-4 AF.F ....|--- .... ....|G-4 2F1F ....
..1E|..|G-1 2A.F ....|--- .... ....|G-5 2F.F ....
...F|..|G-2 2A.F ....|--- .... ....|R-- .... ....
....|..|--- .... ....|--- .... ....|--- .... ....
..1E|..|G-1 2A.F ....|C-6 2F.F ....|G-4 2F1F ....
...F|..|G-2 2A.F ....|R-- .... ....|G-5 2F.F ....
....|..|R-- .... ....|--- .... ....|R-- .... ....
....|..|R-- .... ....|--- .... ....|R-- .... ....
....|..|C-4 AF.F ....|C-6 2F.F ....|G-4 2F1F ....
....|..|R-- .... ....|--- .... ....|G-4 2F2F ....
....|..|R-- .... ....|--- .... ....|R-- .... ....
..1B|..|R-- .... ....|A-5 2F.F ....|A-5 2C.F ....
..1E|..|G-1 2A.F ....|--- .... ....|G-4 2F1F ....
...F|..|G-2 2A.F ....|R-- .... ....|R-- .... ....
....|..|G-2 2F.A ....|--- .... ....|R-- .... ....
..2D|..|--- .... ....|C-6 2F.F ....|C-6 2C.F ....

[Pattern61]
....|..|C-4 AF.F ....|C-6 2F.A ....|C-4 2F.F ....
....|..|R-- .... ....|R-- .... ....|R-- .... ....
....|..|R-- .... ....|--- .... ....|R-- .... ....
..1B|..|--- .... ....|A-5 2F.F ....|A-5 2C.F ....
..1E|..|G-1 2A.F ....|C-6 2F.A ....|G-4 2F1F ....
...F|..|G-2 2A.F ....|--- .... ....|G-4 2F2A ....
....|..|R-- .... ....|--- .... ....|R-- .... ....
..2D|..|R-- .... ....|C-6 2F.F ....|C-6 2C.F ....
....|..|C-4 AF.F ....|--- .... ....|G-4 2F1F ....
....|..|G-1 2F.7 ....|R-- .... ....|G-5 2F.7 ....
....|..|G-2 2F.7 ....|--- .... ....|R-- .... ....
....|..|--- .... ....|C-6 2F.A ....|C-6 2F.A ....
..1E|..|G-1 2A.F ....|C-6 2F.7 ....|G-4 2F1F ....
...F|..|G-2 2A.F ....|R-- .... ....|G-5 2F.7 ....
....|..|--- .... ....|R-- .... ....|R-- .... ....
....|..|R-- .... ....|A-5 2F.A ....|A-5 2F.A ....
....|..|C-4 AF.F ....|C-6 2F.7 ....|G#4 2F6F ....
..1C|..|G#1 2A.F ....|--- .... ....|G-4 2F27 ....
...E|..|G#2 2A.F ....|--- .... ....|R-- .... ....
....|..|R-- .... ....|A-5 2F.7 ....|A-5 2F.7 ....
..1C|..|G#1 2A.F ....|--- .... ....|G#4 2F6F ....
...E|..|G#2 2A.F ....|R-- .... ....|R-- .... ....
....|..|R-- .... ....|--- .... ....|R-- .... ....
....|..|--- .... ....|C-6 2F.7 ....|C-6 2F.7 ....
....|..|C-4 AF.F ....|--- .... ....|G#4 2F6F ....
....|..|R-- .... ....|--- .... ....|R-- .... ....
....|..|R-- .... ....|R-- .... ....|R-- .... ....
....|..|R-- .... ....|A-5 2F.7 ....|A-5 2F.7 ....
..1C|..|G#1 2A.F ....|--- .... ....|G#4 2F6F ....
...E|..|G#2 2A.F ....|--- .... ....|R-- .... ....
....|..|G#2 2F.A ....|--- .... ....|R-- .... ....
....|..|R-- .... ....|C-6 2F.7 ....|C-6 2F.7 ....
....|..|C-4 AF.F ....|--- .... ....|E-4 2F.F ....
....|..|R-- .... ....|--- .... ....|R-- .... ....
....|..|R-- .... ....|--- .... ....|R-- .... ....
....|..|--- .... ....|--- .... ....|--- .... ....
..1C|..|G#1 2A.F ....|--- .... ....|G#4 2F6F ....
...E|..|G#2 2A.F ....|--- .... ....|G#5 2F.F ....
....|..|R-- .... ....|R-- .... ....|R-- .... ....
....|..|R-- .... ....|--- .... ....|--- .... ....
....|..|C-4 AF.F ....|--- .... ....|G#4 2F6F ....
....|..|G#1 2F.7 ....|--- .... ....|G#5 2F.F ....
....|..|G#2 2F.7 ....|--- .... ....|R-- .... ....
....|..|R-- .... ....|--- .... ....|--- .... ....
..1C|..|G#1 2A.F ....|--- .... ....|G#4 2F6F ....
...E|..|G#2 2A.F ....|--- .... ....|G#5 2F.F ....
....|..|--- .... ....|--- .... ....|R-- .... ....
....|..|--- .... ....|--- .... ....|--- .... ....
....|..|C-4 AF.7 ....|--- .... ....|G#4 2F67 ....
....|..|R-- .... ....|--- .... ....|R-- .... ....
....|..|R-- .... ....|--- .... ....|R-- .... ....
....|..|--- .... ....|--- .... ....|--- .... ....
..2D|..|G#1 2F.7 ....|C-6 2F.F ....|C-6 2C.F ....
....|..|G#2 2F.7 ....|R-- .... ....|R-- .... ....
....|..|R-- .... ....|--- .... ....|R-- .... ....
....|..|R-- .... ....|--- .... ....|--- .... ....
..2D|..|C-4 AF.7 ....|C-6 2F.F ....|C-6 2C.F ....
....|..|R-- .... ....|--- .... ....|G#5 2F.A ....
....|..|--- .... ....|--- .... ....|R-- .... ....
..1B|..|--- .... ....|A-5 2F.F ....|A-5 2C.F ....
....|..|G#1 2F.7 ....|--- .... ....|G#4 2F67 ....
....|..|G#2 2F.7 ....|R-- .... ....|G#5 2F.7 ....
....|..|--- .... ....|--- .... ....|R-- .... ....
..2D|..|--- .... ....|C-6 2F.F ....|C-6 2C.F ....

[Pattern62]
....|..|C-4 AF.7 ....|C-6 2F.A ....|G#4 2F67 ....
....|..|R-- .... ....|R-- .... ....|G#5 2F.7 ....
....|..|R-- .... ....|--- .... ....|R-- .... ....
..1B|..|--- .... ....|A-5 2F.F ....|A-5 2C.F ....
....|..|G#1 2F.7 ....|C-6 2F.A ....|G#4 2F67 ....
....|..|G#2 2F.7 ....|--- .... ....|G#5 2F.7 ....
....|..|--- .... ....|--- .... ....|R-- .... ....
..2D|..|--- .... ....|C-6 2F.F ....|C-6 2C.F ....
....|..|R-- .... ....|--- .... ....|R-- .... ....
....|..|--- .... ....|R-- .... ....|R-- .... ....
....|..|--- .... ....|--- .... ....|--- .... ....
....|..|--- .... ....|C-6 2F.A ....|C-6 2F.A ....
....|..|--- .... ....|C-6 2F.7 ....|C-6 2F.7 ....
....|..|--- .... ....|R-- .... ....|R-- .... ....
....|..|--- .... ....|R-- .... ....|R-- .... ....
....|..|--- .... ....|A-5 2F.A ....|A-5 2F.A ....
....|..|C-4 AF.F ....|C-6 2F.7 ....|F-4 2F1F ....
..22|..|F-1 2A.F ....|--- .... ....|R-- .... ....
..11|..|F-2 2A.F ....|--- .... ....|--- .... ....
....|..|R-- .... ....|A-5 2F.7 ....|A-5 2F.7 ....
....|..|B-8 JF.F ....|A-5 2F.F ....|F-4 2F1F ....
..22|..|F-1 2A.F ....|R-- .... ....|R-- .... ....
..11|..|F-2 2A.F ....|R-- .... ....|R-- .... ....
....|..|--- .... ....|C-6 2F.7 ....|C-6 2F.7 ....
....|..|C-4 AF.F ....|A-5 2F.F ....|F-4 2F1F ....
....|..|R-- .... ....|--- .... ....|R-- .... ....
....|..|R-- .... ....|R-- .... ....|R-- .... ....
....|..|--- .... ....|A-5 2F.7 ....|A-5 2F.7 ....
....|..|B-8 JF.F ....|A-5 2F.F ....|F-4 2F1F ....
..22|..|F-1 2A.F ....|--- .... ....|R-- .... ....
..11|..|F-2 2A.F ....|R-- .... ....|R-- .... ....
....|..|R-- .... ....|C-6 2F.7 ....|C-6 2F.7 ....
....|..|C-4 AF.F ....|A-5 2F.F ....|A-3 2FAF ....
....|..|R-- .... ....|--- .... ....|R-- .... ....
....|..|F-2 2F.A ....|R-- .... ....|R-- .... ....
....|..|--- .... ....|--- .... ....|R-- .... ....
....|..|B-8 JF.F ....|A-5 2F.F ....|F-4 2F1F ....
..22|..|F-1 2A.F ....|--- .... ....|R-- .... ....
..11|..|F-2 2A.F ....|R-- .... ....|R-- .... ....
....|..|--- .... ....|R-- .... ....|R-- .... ....
....|..|C-4 AF.F ....|A-5 2F.A ....|F-4 2F17 ....
....|..|F-1 2F.7 ....|--- .... ....|R-- .... ....
....|..|F-2 2F.7 ....|R-- .... ....|R-- .... ....
....|..|R-- .... ....|--- .... ....|R-- .... ....
....|..|B-8 JF.F ....|G-5 2F.F ....|F-4 2F1F ....
..22|..|F-1 2A.F ....|--- .... ....|R-- .... ....
..11|..|F-2 2A.F ....|R-- .... ....|R-- .... ....
....|..|R-- .... ....|R-- .... ....|R-- .... ....
....|..|C-4 AF.F ....|G-5 2F.F ....|G-4 2F1F ....
..1E|..|G-1 2A.F ....|--- .... ....|G-5 2F.F ....
...F|..|G-2 2A.F ....|--- .... ....|R-- .... ....
....|..|--- .... ....|R-- .... ....|R-- .... ....
....|..|B-8 JF.F ....|G-5 2F.F ....|G-4 2F1F ....
..1E|..|G-1 2A.F ....|--- .... ....|G-5 2F.F ....
...F|..|G-2 2A.F ....|R-- .... ....|R-- .... ....
....|..|R-- .... ....|--- .... ....|R-- .... ....
....|..|C-4 AF.F ....|G-5 2F.F ....|G-4 2F1F ....
....|..|R-- .... ....|--- .... ....|G-4 2F2F ....
....|..|R-- .... ....|--- .... ....|R-- .... ....
....|..|R-- .... ....|R-- .... ....|R-- .... ....
....|..|B-8 JF.F ....|D-5 2F.F ....|G-4 2F1F ....
..1E|..|G-1 2A.F ....|--- .... ....|G-5 2F.A ....
...F|..|G-2 2A.F ....|--- .... ....|R-- .... ....
....|..|--- .... ....|R-- .... ....|R-- .... ....

[Pattern66]
....|..|C-4 AF.F ....|D-5 2F.7 ....|C-4 2FAF ....
....|..|R-- .... ....|--- .... ....|G#5 2F.7 ....
....|..|R-- .... ....|--- .... ....|R-- .... ....
....|..|--- .... ....|--- .... ....|--- .... ....
....|..|B-8 JF.F ....|E-5 2F.7 ....|E-5 2F5F ....
..1B|..|A-1 2A.F ....|--- .... ....|G#5 2F.7 ....
..1B|..|A-2 2C.F ....|D-5 2F.7 ....|D-5 2F.7 ....
....|..|--- .... ....|--- .... ....|--- .... ....
....|..|C-4 AF.F ....|C-5 2F.7 ....|E-5 2F5F ....
....|..|A-1 2F.7 ....|--- .... ....|A-4 2F47 ....
....|..|A-2 2F.7 ....|R-- .... ....|R-- .... ....
....|..|R-- .... ....|--- .... ....|--- .... ....
....|..|B-8 JF.F ....|--- .... ....|E-5 2F5F ....
..1B|..|A-1 2A.F ....|--- .... ....|A-4 2F47 ....
..1B|..|A-2 2C.F ....|--- .... ....|R-- .... ....
....|..|--- .... ....|--- .... ....|R-- .... ....
....|..|C-4 AF.F ....|--- .... ....|F-4 2F1F ....
..22|..|F-1 2A.F ....|--- .... ....|A-4 2F47 ....
..11|..|F-2 2A.F ....|--- .... ....|R-- .... ....
....|..|R-- .... ....|--- .... ....|--- .... ....
....|..|B-8 JF.F ....|--- .... ....|F-4 2F1F ....
..22|..|F-1 2A.F ....|--- .... ....|R-- .... ....
..11|..|F-2 2A.F ....|R-- .... ....|R-- .... ....
....|..|R-- .... ....|--- .... ....|--- .... ....
....|..|C-4 AF.F ....|--- .... ....|F-4 2F1F ....
....|..|R-- .... ....|--- .... ....|R-- .... ....
....|..|R-- .... ....|--- .... ....|R-- .... ....
....|..|--- .... ....|--- .... ....|R-- .... ....
....|..|B-8 JF.F ....|--- .... ....|F-4 2F1F ....
..22|..|F-1 2A.F ....|--- .... ....|R-- .... ....
..11|..|F-2 2A.F ....|--- .... ....|R-- .... ....
....|..|R-- .... ....|--- .... ....|--- .... ....
....|..|C-4 AF.F ....|--- .... ....|A-3 2FAF ....
....|..|R-- .... ....|--- .... ....|R-- .... ....
....|..|R-- .... ....|--- .... ....|R-- .... ....
....|..|--- .... ....|--- .... ....|R-- .... ....
....|..|B-8 JF.F ....|--- .... ....|F-4 2F1F ....
..22|..|F-1 2A.F ....|--- .... ....|E-4 2F.F ....
..11|..|F-2 2A.F ....|--- .... ....|--- .... ....
....|..|--- .... ....|--- .... ....|R-- .... ....
....|..|C-4 AF.F ....|--- .... ....|F-4 2F17 ....
....|..|F-1 2F.7 ....|--- .... ....|R-- .... ....
....|..|F-2 2F.7 ....|--- .... ....|--- .... ....
....|..|R-- .... ....|--- .... ....|R-- .... ....
....|..|B-8 JF.F ....|--- .... ....|F-4 2F1F ....
..22|..|F-1 2A.F ....|--- .... ....|R-- .... ....
..11|..|F-2 2A.F ....|--- .... ....|R-- .... ....
....|..|R-- .... ....|--- .... ....|R-- .... ....
....|..|C-4 AF.F ....|--- .... ....|G-4 2F1F ....
..1E|..|G-1 2A.F ....|--- .... ....|G-5 2F.F ....
...F|..|G-2 2A.F ....|--- .... ....|R-- .... ....
....|..|--- .... ....|--- .... ....|--- .... ....
....|..|B-8 JF.F ....|C-6 2F.F ....|G-4 2F1F ....
..1E|..|G-1 2A.F ....|R-- .... ....|G-5 2F.F ....
...F|..|G-2 2A.F ....|--- .... ....|R-- .... ....
....|..|R-- .... ....|--- .... ....|R-- .... ....
....|..|C-4 AF.F ....|C-6 2F.F ....|G-4 2F1F ....
....|..|R-- .... ....|--- .... ....|G-4 2F2F ....
....|..|R-- .... ....|--- .... ....|R-- .... ....
..1B|..|R-- .... ....|A-5 2F.F ....|A-5 2C.F ....
....|..|B-8 JF.F ....|--- .... ....|G-4 2F1F ....
..1E|..|G-1 2A.F ....|R-- .... ....|E-4 2F.7 ....
...F|..|G-2 2A.F ....|--- .... ....|R-- .... ....
....|..|--- .... ....|C-6 2F.F ....|C-4 2F.F ....

[Pattern67]
....|..|C-4 AF.F ....|C-6 2F.A ....|G-4 2F1A ....
....|..|R-- .... ....|R-- .... ....|G-5 2F.A ....
....|..|R-- .... ....|--- .... ....|R-- .... ....
..1B|..|--- .... ....|A-5 2F.F ....|A-5 2C.F ....
....|..|B-8 JF.F ....|C-6 2F.A ....|G-4 2F1F ....
..1E|..|G-1 2A.F ....|--- .... ....|G-4 2F2A ....
...F|..|G-2 2A.F ....|--- .... ....|R-- .... ....
..2D|..|R-- .... ....|C-6 2F.F ....|C-6 2C.F ....
....|..|C-4 AF.F ....|--- .... ....|G-4 2F1F ....
....|..|G-1 2F.7 ....|R-- .... ....|G-5 2F.7 ....
....|..|G-2 2F.7 ....|--- .... ....|R-- .... ....
....|..|--- .... ....|C-6 2F.A ....|C-4 2F.A ....
....|..|B-8 JF.F ....|C-6 2F.7 ....|G-4 2F1F ....
..1E|..|G-1 2A.F ....|R-- .... ....|G-5 2F.7 ....
...F|..|G-2 2A.F ....|R-- .... ....|R-- .... ....
....|..|R-- .... ....|A-5 2F.A ....|R-- .... ....
....|..|C-4 AF.F ....|C-6 2F.7 ....|A-4 2F3F ....
..1B|..|A-1 2A.F ....|--- .... ....|G-4 2F27 ....
..1B|..|A-2 2C.F ....|--- .... ....|R-- .... ....
....|..|R-- .... ....|A-5 2F.7 ....|A-5 2F.7 ....
....|..|B-8 JF.F ....|--- .... ....|A-4 2F3F ....
..1B|..|A-1 2A.F ....|R-- .... ....|R-- .... ....
..1B|..|A-2 2C.F ....|--- .... ....|R-- .... ....
....|..|--- .... ....|C-6 2F.7 ....|C-4 2F.7 ....
....|..|C-4 AF.F ....|--- .... ....|A-4 2F3F ....
....|..|R-- .... ....|--- .... ....|R-- .... ....
....|..|R-- .... ....|R-- .... ....|R-- .... ....
....|..|R-- .... ....|A-5 2F.7 ....|A-5 2F.7 ....
....|..|B-8 JF.F ....|--- .... ....|A-4 2F3F ....
..1B|..|A-1 2A.F ....|--- .... ....|R-- .... ....
..1B|..|A-2 2C.F ....|--- .... ....|R-- .... ....
....|..|R-- .... ....|C-6 2F.7 ....|C-6 2F.7 ....
....|..|C-4 AF.F ....|--- .... ....|C-4 2F2F ....
....|..|R-- .... ....|--- .... ....|R-- .... ....
....|..|R-- .... ....|--- .... ....|R-- .... ....
....|..|--- .... ....|--- .... ....|C-4 2F.F ....
....|..|B-8 JF.F ....|--- .... ....|A-4 2F3F ....
..1B|..|A-1 2A.F ....|--- .... ....|A-5 2F.F ....
..1B|..|A-2 2C.F ....|R-- .... ....|R-- .... ....
....|..|R-- .... ....|--- .... ....|--- .... ....
....|..|C-4 AF.F ....|--- .... ....|A-4 2F3F ....
....|..|A-1 2F.7 ....|--- .... ....|A-5 2F.F ....
....|..|A-2 2F.7 ....|--- .... ....|R-- .... ....
....|..|R-- .... ....|--- .... ....|--- .... ....
....|..|B-8 JF.F ....|--- .... ....|A-4 2F3F ....
..1B|..|A-1 2A.F ....|--- .... ....|A-5 2F.F ....
..1B|..|A-2 2C.F ....|--- .... ....|R-- .... ....
....|..|--- .... ....|--- .... ....|C-4 2F.A ....
....|..|C-4 AF.F ....|--- .... ....|A-4 2F3F ....
..16|..|C-2 2A.F ....|--- .... ....|A-4 2F4F ....
..16|..|C-3 2C.F ....|--- .... ....|R-- .... ....
....|..|R-- .... ....|--- .... ....|--- .... ....
....|..|B-8 JF.F ....|C-6 2F.F ....|A-4 2F3F ....
..16|..|C-2 2A.F ....|R-- .... ....|A-4 2F4F ....
..16|..|C-3 2C.F ....|--- .... ....|R-- .... ....
....|..|R-- .... ....|--- .... ....|R-- .... ....
....|..|C-4 AF.F ....|C-6 2F.F ....|A-4 2F3F ....
....|..|R-- .... ....|--- .... ....|A-4 2F4F ....
....|..|R-- .... ....|--- .... ....|R-- .... ....
..1B|..|--- .... ....|A-5 2F.F ....|A-5 2C.F ....
....|..|B-8 JF.F ....|--- .... ....|A-4 2F3F ....
..16|..|C-2 2A.F ....|R-- .... ....|A-5 2F.7 ....
..16|..|C-3 2C.F ....|--- .... ....|R-- .... ....
..2D|..|R-- .... ....|C-6 2F.F ....|C-6 2C.F ....

[Pattern68]
....|..|C-4 AF.F ....|C-6 2F.A ....|C-4 2FAF ....
....|..|R-- .... ....|R-- .... ....|A-5 2F.7 ....
....|..|R-- .... ....|--- .... ....|R-- .... ....
..1B|..|--- .... ....|A-5 2F.F ....|A-5 2C.F ....
....|..|B-8 JF.F ....|C-6 2F.A ....|E-5 2F5F ....
..16|..|C-2 2A.F ....|--- .... ....|A-5 2F.7 ....
..16|..|C-3 2C.F ....|--- .... ....|R-- .... ....
..2D|..|--- .... ....|C-6 2F.F ....|C-6 2C.F ....
....|..|C-4 AF.F ....|--- .... ....|E-5 2F5F ....
....|..|C-2 2F.7 ....|R-- .... ....|A-4 2F47 ....
....|..|C-3 2F.7 ....|--- .... ....|R-- .... ....
....|..|R-- .... ....|C-6 2F.A ....|C-6 2F.A ....
....|..|B-8 JF.F ....|C-6 2F.7 ....|E-5 2F5F ....
..16|..|C-2 2A.F ....|R-- .... ....|A-4 2F47 ....
..16|..|C-3 2C.F ....|R-- .... ....|R-- .... ....
....|..|--- .... ....|A-5 2F.A ....|R-- .... ....
....|..|C-4 AF.F ....|C-6 2F.7 ....|F-4 2F1F ....
..22|..|F-1 2A.F ....|--- .... ....|A-4 2F47 ....
..11|..|F-2 2A.F ....|--- .... ....|R-- .... ....
....|..|R-- .... ....|A-5 2F.7 ....|A-5 2F.7 ....
....|..|B-8 JF.F ....|--- .... ....|F-4 2F1F ....
..22|..|F-1 2A.F ....|R-- .... ....|R-- .... ....
..11|..|F-2 2A.F ....|--- .... ....|R-- .... ....
....|..|--- .... ....|C-6 2F.7 ....|C-6 2F.7 ....
....|..|C-4 AF.F ....|--- .... ....|F-4 2F1F ....
....|..|R-- .... ....|--- .... ....|R-- .... ....
....|..|R-- .... ....|R-- .... ....|R-- .... ....
....|..|--- .... ....|A-5 2F.7 ....|A-5 2F.7 ....
....|..|B-8 JF.F ....|--- .... ....|F-4 2F1F ....
..22|..|F-1 2A.F ....|--- .... ....|R-- .... ....
..11|..|F-2 2A.F ....|--- .... ....|R-- .... ....
....|..|R-- .... ....|C-6 2F.7 ....|C-6 2F.7 ....
....|..|C-4 AF.F ....|--- .... ....|A-3 2FAF ....
....|..|R-- .... ....|--- .... ....|R-- .... ....
....|..|R-- .... ....|--- .... ....|R-- .... ....
....|..|--- .... ....|--- .... ....|R-- .... ....
....|..|B-8 JF.F ....|--- .... ....|F-4 2F1F ....
..22|..|F-1 2A.F ....|--- .... ....|E-4 2F.F ....
..11|..|F-2 2A.F ....|R-- .... ....|R-- .... ....
....|..|--- .... ....|--- .... ....|R-- .... ....
....|..|C-4 AF.F ....|--- .... ....|F-4 2F17 ....
....|..|F-1 2F.7 ....|--- .... ....|R-- .... ....
....|..|F-2 2F.7 ....|--- .... ....|--- .... ....
....|..|R-- .... ....|--- .... ....|R-- .... ....
....|..|B-8 JF.F ....|--- .... ....|F-4 2F1F ....
..22|..|F-1 2A.F ....|--- .... ....|R-- .... ....
..11|..|F-2 2A.F ....|--- .... ....|R-- .... ....
....|..|R-- .... ....|--- .... ....|R-- .... ....
....|..|C-4 AF.F ....|--- .... ....|G-4 2F1F ....
..1E|..|G-1 2A.F ....|--- .... ....|G-5 2F.F ....
...F|..|G-2 2A.F ....|--- .... ....|R-- .... ....
....|..|--- .... ....|--- .... ....|--- .... ....
....|..|B-8 JF.F ....|C-6 2F.F ....|G-4 2F1F ....
..1E|..|G-1 2A.F ....|R-- .... ....|G-5 2F.F ....
...F|..|G-2 2A.F ....|--- .... ....|R-- .... ....
....|..|R-- .... ....|--- .... ....|R-- .... ....
....|..|C-4 AF.F ....|C-6 2F.F ....|G-4 2F1F ....
....|..|R-- .... ....|--- .... ....|G-4 2F2F ....
....|..|R-- .... ....|--- .... ....|R-- .... ....
..1B|..|R-- .... ....|A-5 2F.F ....|A-5 2C.F ....
....|..|B-8 JF.F ....|--- .... ....|G-4 2F1F ....
..1E|..|G-1 2A.F ....|R-- .... ....|E-4 2F.7 ....
...F|..|G-2 2A.F ....|--- .... ....|R-- .... ....
....|..|--- .... ....|C-6 2F.F ....|C-4 2F.F ....

[Pattern69]
....|..|C-4 AF.F ....|C-6 2F.A ....|G-4 2F1A ....
....|..|R-- .... ....|R-- .... ....|G-5 2F.A ....
....|..|R-- .... ....|--- .... ....|R-- .... ....
..1B|..|--- .... ....|A-5 2F.F ....|A-5 2C.F ....
....|..|B-8 JF.F ....|C-6 2F.A ....|G-4 2F1F ....
..1E|..|G-1 2A.F ....|--- .... ....|G-4 2F2A ....
...F|..|G-2 2A.F ....|--- .... ....|R-- .... ....
..2D|..|R-- .... ....|C-6 2F.F ....|C-6 2C.F ....
....|..|C-4 AF.F ....|--- .... ....|G-4 2F1F ....
....|..|G-1 2F.7 ....|R-- .... ....|G-5 2F.7 ....
....|..|G-2 2F.7 ....|--- .... ....|R-- .... ....
....|..|--- .... ....|C-6 2F.A ....|C-4 2F.A ....
....|..|B-8 JF.F ....|C-6 2F.7 ....|G-4 2F1F ....
..1E|..|G-1 2A.F ....|R-- .... ....|G-5 2F.7 ....
...F|..|G-2 2A.F ....|R-- .... ....|R-- .... ....
....|..|R-- .... ....|A-5 2F.A ....|R-- .... ....
....|..|C-4 AF.F ....|C-6 2F.7 ....|G#4 2F6F ....
..1C|..|G#1 2A.F ....|--- .... ....|G-4 2F27 ....
...E|..|G#2 2A.F ....|--- .... ....|R-- .... ....
....|..|R-- .... ....|A-5 2F.7 ....|A-5 2F.7 ....
....|..|B-8 JF.F ....|--- .... ....|G#4 2F6F ....
..1C|..|G#1 2A.F ....|R-- .... ....|R-- .... ....
...E|..|G#2 2A.F ....|--- .... ....|R-- .... ....
....|..|--- .... ....|C-6 2F.7 ....|C-4 2F.7 ....
....|..|C-4 AF.F ....|--- .... ....|G#4 2F6F ....
....|..|R-- .... ....|--- .... ....|R-- .... ....
....|..|R-- .... ....|R-- .... ....|R-- .... ....
....|..|R-- .... ....|A-5 2F.7 ....|A-5 2F.7 ....
....|..|B-8 JF.F ....|--- .... ....|G#4 2F6F ....
..1C|..|G#1 2A.F ....|--- .... ....|R-- .... ....
...E|..|G#2 2A.F ....|--- .... ....|R-- .... ....
....|..|R-- .... ....|C-6 2F.7 ....|C-6 2F.7 ....
....|..|C-4 AF.F ....|--- .... ....|C-4 2F2F ....
....|..|R-- .... ....|--- .... ....|R-- .... ....
....|..|R-- .... ....|--- .... ....|R-- .... ....
....|..|--- .... ....|--- .... ....|--- .... ....
....|..|B-8 JF.F ....|--- .... ....|G#4 2F6F ....
..1C|..|G#1 2A.F ....|--- .... ....|G#5 2F.F ....
...E|..|G#2 2A.F ....|R-- .... ....|R-- .... ....
....|..|R-- .... ....|--- .... ....|--- .... ....
....|..|C-4 AF.F ....|--- .... ....|G#4 2F6F ....
....|..|G#1 2F.7 ....|--- .... ....|G#5 2F.F ....
....|..|G#2 2F.7 ....|--- .... ....|R-- .... ....
....|..|R-- .... ....|--- .... ....|--- .... ....
....|..|B-8 JF.F ....|--- .... ....|G#4 2F6F ....
..1C|..|G#1 2A.F ....|--- .... ....|G#5 2F.F ....
...E|..|G#2 2A.F ....|--- .... ....|R-- .... ....
....|..|--- .... ....|--- .... ....|--- .... ....
....|..|C-4 AF.F ....|--- .... ....|A-4 2F3F ....
..1B|..|A-1 2A.F ....|--- .... ....|A-4 2F4F ....
..1B|..|A-2 2C.F ....|--- .... ....|R-- .... ....
....|..|R-- .... ....|--- .... ....|--- .... ....
....|..|B-8 JF.F ....|--- .... ....|A-4 2F3F ....
..1B|..|A-1 2A.F ....|--- .... ....|A-4 2F4F ....
..1B|..|A-2 2C.F ....|--- .... ....|R-- .... ....
....|..|R-- .... ....|--- .... ....|R-- .... ....
....|..|C-4 AF.F ....|--- .... ....|A-4 2F3F ....
....|..|R-- .... ....|--- .... ....|A-4 2F4F ....
....|..|R-- .... ....|--- .... ....|R-- .... ....
....|..|--- .... ....|--- .... ....|--- .... ....
....|..|B-8 JF.F ....|--- .... ....|A-4 2F3F ....
..1B|..|A-1 2A.F ....|--- .... ....|G#5 2F.7 ....
..1B|..|A-2 2C.F ....|--- .... ....|R-- .... ....
....|..|R-- .... ....|--- .... ....|--- .... ....

[Pattern70]
....|..|C-4 AF.F ....|--- .... ....|C-4 2FAF ....
....|..|R-- .... ....|--- .... ....|G#5 2F.7 ....
....|..|R-- .... ....|--- .... ....|R-- .... ....
....|..|--- .... ....|--- .... ....|R-- .... ....
....|..|B-8 JF.F ....|--- .... ....|E-5 2F5F ....
..1B|..|A-1 2A.F ....|--- .... ....|G#5 2F.7 ....
..1B|..|A-2 2C.F ....|--- .... ....|R-- .... ....
....|..|--- .... ....|--- .... ....|--- .... ....
....|..|C-4 AF.F ....|--- .... ....|E-5 2F5F ....
....|..|A-1 2F.7 ....|--- .... ....|A-4 2F47 ....
....|..|A-2 2F.7 ....|--- .... ....|R-- .... ....
....|..|R-- .... ....|--- .... ....|--- .... ....
....|..|B-8 JF.F ....|--- .... ....|E-5 2F5F ....
..1B|..|A-1 2A.F ....|--- .... ....|A-4 2F47 ....
..1B|..|A-2 2C.F ....|--- .... ....|R-- .... ....
....|..|--- .... ....|--- .... ....|R-- .... ....
..1B|..|C-4 AF.7 ....|A-4 2F.F ....|A-4 2C.F ....
....|..|R-- .... ....|--- .... ....|A-4 2F47 ....
....|..|R-- .... ....|--- .... ....|R-- .... ....
....|..|--- .... ....|R-- .... ....|R-- .... ....
....|..|B-8 JF.7 ....|--- .... ....|A-4 2F37 ....
....|..|A-1 2F.7 ....|--- .... ....|--- .... ....
....|..|A-2 2F.7 ....|--- .... ....|R-- .... ....
....|..|R-- .... ....|--- .... ....|--- .... ....
..1B|..|C-4 AF.7 ....|A-4 2F.F ....|A-4 2C.F ....
....|..|R-- .... ....|--- .... ....|--- .... ....
....|..|A-2 2F.A ....|--- .... ....|R-- .... ....
....|..|--- .... ....|--- .... ....|R-- .... ....
....|..|B-8 JF.7 ....|A-4 2F.A ....|E-5 2F57 ....
....|..|A-1 2F.7 ....|--- .... ....|--- .... ....
....|..|A-2 2F.7 ....|--- .... ....|R-- .... ....
....|..|--- .... ....|R-- .... ....|R-- .... ....
..12|..|C-4 AF.7 ....|E-5 2F.F ....|E-5 2C.F ....
....|..|R-- .... ....|--- .... ....|--- .... ....
....|..|R-- .... ....|--- .... ....|R-- .... ....
....|..|--- .... ....|R-- .... ....|R-- .... ....
..12|..|B-8 JF.7 ....|E-5 2F.F ....|E-5 2C.F ....
....|..|A-1 2F.7 ....|--- .... ....|--- .... ....
....|..|A-2 2F.7 ....|R-- .... ....|R-- .... ....
....|..|--- .... ....|--- .... ....|R-- .... ....
..11|..|R-- .... ....|F-5 2F.F ....|F-5 2C.F ....
....|..|--- .... ....|--- .... ....|--- .... ....
....|..|--- .... ....|--- .... ....|--- .... ....
....|..|--- .... ....|R-- .... ....|R-- .... ....
..12|..|--- .... ....|E-5 2F.F ....|E-5 2C.F ....
....|..|--- .... ....|--- .... ....|--- .... ....
....|..|--- .... ....|--- .... ....|--- .... ....
....|..|--- .... ....|R-- .... ....|R-- .... ....
....|..|--- .... ....|A-4 2F.7 ....|A-4 2F.7 ....
....|..|--- .... ....|--- .... ....|--- .... ....
....|..|--- .... ....|R-- .... ....|R-- .... ....
....|..|--- .... ....|--- .... ....|--- .... ....
..1B|..|--- .... ....|A-4 2F.F ....|A-4 2C.F ....
....|..|--- .... ....|--- .... ....|--- .... ....
....|..|--- .... ....|R-- .... ....|R-- .... ....
....|..|--- .... ....|R-- .... ....|R-- .... ....
..1B|..|--- .... ....|A-4 2F.F ....|A-4 2C.F ....
....|..|--- .... ....|--- .... ....|--- .... ....
....|..|--- .... ....|--- .... ....|--- .... ....
....|..|--- .... ....|R-- .... ....|R-- .... ....
....|..|--- .... ....|E-5 2F.7 ....|E-5 2F.7 ....
....|..|--- .... ....|--- .... ....|--- .... ....
....|..|--- .... ....|R-- .... ....|R-- .... ....
....|..|--- .... ....|--- .... ....|--- .... ....

[Pattern71]
..12|..|--- .... ....|E-5 2F.F ....|E-5 2C.F ....
....|..|--- .... ....|--- .... ....|--- .... ....
....|..|--- .... ....|R-- .... ....|R-- .... ....
....|..|--- .... ....|--- .... ....|--- .... ....
..12|..|--- .... ....|E-5 2F.F ....|E-5 2C.F ....
....|..|--- .... ....|--- .... ....|--- .... ....
....|..|--- .... ....|R-- .... ....|R-- .... ....
....|..|--- .... ....|--- .... ....|--- .... ....
..11|..|--- .... ....|F-5 2F.F ....|F-5 2C.F ....
....|..|--- .... ....|--- .... ....|--- .... ....
....|..|--- .... ....|R-- .... ....|R-- .... ....
....|..|--- .... ....|--- .... ....|--- .... ....
..12|..|--- .... ....|E-5 2F.F ....|E-5 2C.F ....
....|..|--- .... ....|--- .... ....|--- .... ....
....|..|--- .... ....|R-- .... ....|R-- .... ....
....|..|--- .... ....|R-- .... ....|R-- .... ....
..1B|..|--- .... ....|A-4 2F.F ....|A-4 2C.F ....
....|..|--- .... ....|--- .... ....|--- .... ....
....|..|--- .... ....|R-- .... ....|R-- .... ....
....|..|--- .... ....|R-- .... ....|R-- .... ....
....|..|--- .... ....|F-5 2F.A ....|F-5 2F.A ....
....|..|--- .... ....|--- .... ....|--- .... ....
....|..|--- .... ....|R-- .... ....|R-- .... ....
....|..|--- .... ....|--- .... ....|--- .... ....
..1B|..|--- .... ....|A-4 2F.F ....|A-4 2C.F ....
....|..|--- .... ....|--- .... ....|--- .... ....
....|..|--- .... ....|R-- .... ....|R-- .... ....
....|..|--- .... ....|R-- .... ....|R-- .... ....
....|..|--- .... ....|E-5 2F.7 ....|E-5 2F.7 ....
....|..|--- .... ....|--- .... ....|--- .... ....
....|..|--- .... ....|R-- .... ....|R-- .... ....
....|..|--- .... ....|R-- .... ....|R-- .... ....
..12|..|--- .... ....|E-5 2F.F ....|E-5 2C.F ....
....|..|--- .... ....|--- .... ....|--- .... ....
....|..|--- .... ....|--- .... ....|--- .... ....
....|..|--- .... ....|R-- .... ....|R-- .... ....
..12|..|--- .... ....|E-5 2F.F ....|E-5 2C.F ....
....|..|--- .... ....|--- .... ....|--- .... ....
....|..|--- .... ....|R-- .... ....|R-- .... ....
....|..|--- .... ....|R-- .... ....|R-- .... ....
..11|..|--- .... ....|F-5 2F.F ....|F-5 2C.F ....
....|..|--- .... ....|--- .... ....|--- .... ....
....|..|--- .... ....|--- .... ....|--- .... ....
....|..|--- .... ....|R-- .... ....|R-- .... ....
..12|..|--- .... ....|E-5 2F.F ....|E-5 2C.F ....
....|..|--- .... ....|--- .... ....|--- .... ....
....|..|--- .... ....|--- .... ....|--- .... ....
....|..|--- .... ....|R-- .... ....|R-- .... ....
....|..|--- .... ....|A-4 2F.7 ....|A-4 2F.7 ....
....|..|--- .... ....|--- .... ....|--- .... ....
....|..|--- .... ....|R-- .... ....|R-- .... ....
....|..|--- .... ....|--- .... ....|--- .... ....
..2D|..|--- .... ....|C-5 2F.F ....|C-5 2C.F ....
....|..|--- .... ....|R-- .... ....|R-- .... ....
....|..|--- .... ....|--- .... ....|--- .... ....
....|..|--- .... ....|R-- .... ....|R-- .... ....
..2D|..|--- .... ....|C-5 2F.F ....|C-5 2C.F ....
....|..|--- .... ....|--- .... ....|--- .... ....
....|..|--- .... ....|--- .... ....|--- .... ....
....|..|--- .... ....|R-- .... ....|R-- .... ....
..1B|..|--- .... ....|A-4 2F.F ....|A-4 2C.F ....
....|..|--- .... ....|--- .... ....|--- .... ....
....|..|--- .... ....|R-- .... ....|R-- .... ....
....|..|--- .... ....|--- .... ....|--- .... ....

[Pattern72]
..2D|..|--- .... ....|C-5 2F.F ....|C-5 2C.F ....
....|..|--- .... ....|R-- .... ....|R-- .... ....
....|..|--- .... ....|--- .... ....|--- .... ....
....|..|--- .... ....|--- .... ....|--- .... ....
....|..|--- .... ....|E-5 2F.7 ....|E-5 2F.7 ....
....|..|--- .... ....|R-- .... ....|R-- .... ....
....|..|--- .... ....|--- .... ....|--- .... ....
....|..|--- .... ....|R-- .... ....|R-- .... ....
..2D|..|--- .... ....|C-5 2F.F ....|C-5 2C.F ....
....|..|--- .... ....|--- .... ....|--- .... ....
....|..|--- .... ....|--- .... ....|--- .... ....
....|..|--- .... ....|--- .... ....|--- .... ....
....|..|--- .... ....|C-5 2F.7 ....|C-5 2F.7 ....
....|..|--- .... ....|R-- .... ....|R-- .... ....
....|..|--- .... ....|--- .... ....|--- .... ....
....|..|--- .... ....|--- .... ....|--- .... ....
....|..|--- .... ....|C-5 2F.7 ....|C-5 2F.7 ....
....|..|--- .... ....|R-- .... ....|R-- .... ....
....|..|--- .... ....|--- .... ....|--- .... ....
....|..|--- .... ....|R-- .... ....|R-- .... ....
....|..|--- .... ....|A-4 2F.7 ....|A-4 2F.7 ....
....|..|--- .... ....|--- .... ....|--- .... ....
....|..|--- .... ....|--- .... ....|--- .... ....
....|..|--- .... ....|--- .... ....|--- .... ....
....|..|--- .... ....|C-5 2F.7 ....|C-5 2F.7 ....
....|..|--- .... ....|--- .... ....|--- .... ....
....|..|--- .... ....|--- .... ....|--- .... ....
....|..|--- .... ....|--- .... ....|--- .... ....
....|..|--- .... ....|R-- .... ....|R-- .... ....
....|..|--- .... ....|R-- .... ....|R-- .... ....
....|..|--- .... ....|--- .... ....|--- .... ....
....|..|--- .... ....|--- .... ....|--- .... ....
....|..|--- .... ....|C-5 2F.7 ....|C-5 2F.7 ....
....|..|--- .... ....|--- .... ....|--- .... ....
....|..|--- .... ....|--- .... ....|--- .... ....
....|..|--- .... ....|--- .... ....|--- .... ....
....|..|--- .... ....|--- .... ....|--- .... ....
....|..|--- .... ....|--- .... ....|--- .... ....
....|..|--- .... ....|--- .... ....|--- .... ....
....|..|--- .... ....|--- .... ....|--- .... ....

