[Module]
VortexTrackerII=0
Version=3.5
Title=1d-2me-3me,6m,7m+-8p-4p+-5p+-9p+
Author=oisee ^ 4d 29.05.2010
NoteTable=4
ChipFreq=1750000
Speed=3
PlayOrder=L0,1,2,3,4,5,6,7,8,9,10,11,12,13,14,15,16,17,18,19,20,21,22,23,24,25,26,27,28,29,30,31,32,33,34,35,36,17,18,19,20,21,22,23,24,25,26,27,37,27,38,39,40,41,42,43,44,45,46,47,48,49,50,19,20,21,51,52,53,54,55,56,57,58

[Ornament1]
L0,0,4,4,7,7

[Ornament2]
L0,0,4,4

[Ornament3]
L0,0,3,3,7,7

[Ornament4]
L0,0,7,7

[Ornament5]
L0,0,5,5,8,8

[Ornament6]
L0,0,3,3,8,8

[Ornament7]
L0,0,4,4,9,9

[Ornament8]
L0,0,5,5

[Ornament9]
L0

[Ornament10]
L0,0,12,12

[Ornament11]
L0,0,3,3

[Ornament12]
L0,0,2,2

[Ornament13]
L0

[Ornament14]
12,0,12,L0

[Ornament15]
0,12,L0

[Sample1]
tne +000_ +00_ 0_ L

[Sample2]
TnE +000_ +00_ F_ L

[Sample3]
tne +000_ +00_ 0_ L

[Sample4]
tne +000_ +00_ 0_ L

[Sample5]
tne +000_ +00_ 0_ L

[Sample6]
tne +000_ +00_ 0_ L

[Sample7]
tne +000_ +00_ 0_ L

[Sample8]
tne +000_ +00_ 0_ L

[Sample9]
tne +000_ +00_ 0_ L

[Sample10]
Tne +1C0_ +00_ F_
Tne +280_ +00_ E_
Tne +380_ +00_ C_
Tne +440_ +00_ A_
Tne +480_ +00_ 8_
TnE +000_ +00_ 0_ L

[Sample11]
tne +000_ +00_ 0_ L

[Sample12]
tne +000_ +00_ 0_ L

[Sample13]
tne +000_ +00_ 0_ L

[Sample14]
tne +000_ +00_ 0_ L

[Sample15]
tne +000_ +00_ 0_ L

[Sample16]
tne +000_ +00_ 0_ L

[Sample17]
tne +000_ +00_ 0_ L

[Sample18]
tne +000_ +00_ 0_ L

[Sample19]
TNe +000_ +00_ F_
TNe +000_ +00_ C_
TNe +000_ +00_ 6_
TNe +000_ +01_ A- L

[Sample20]
tne +000_ +00_ 0_ L

[Sample21]
tne +000_ +00_ 0_ L

[Sample22]
tne +000_ +00_ 0_ L

[Sample23]
tne +000_ +00_ 0_ L

[Sample24]
tne +000_ +00_ 0_ L

[Sample25]
tne +000_ +00_ 0_ L

[Sample26]
tne +000_ +00_ 0_ L

[Sample27]
tne +000_ +00_ 0_ L

[Sample28]
tne +000_ +00_ 0_ L

[Sample29]
tne +000_ +00_ 0_ L

[Sample30]
tne +000_ +00_ 0_ L

[Sample31]
tne +000_ +00_ 0_ L

[Pattern0]
 C-3|..|--- .... ....|C-5 2F.F ....|C-5 2C.F ....
....|..|--- .... ....|--- .... ....|--- .... ....
....|..|--- .... ....|--- .... ....|--- .... ....
....|..|--- .... ....|--- .... ....|--- .... ....
 D-4|..|--- .... ....|D-5 .... ....|D-5 .C.. ....
....|..|--- .... ....|--- .... ....|--- .... ....
....|..|--- .... ....|--- .... ....|--- .... ....
....|..|--- .... ....|--- .... ....|--- .... ....
 E-4|..|--- .... ....|E-5 .... ....|E-5 .C.. ....
....|..|--- .... ....|--- .... ....|--- .... ....
....|..|--- .... ....|--- .... ....|--- .... ....
....|..|--- .... ....|--- .... ....|--- .... ....
 C-3|..|--- .... ....|C-5 .... ....|C-5 .C.. ....
....|..|--- .... ....|--- .... ....|--- .... ....
....|..|--- .... ....|--- .... ....|--- .... ....
....|..|--- .... ....|--- .... ....|--- .... ....
 F-4|..|F-2 2A.F ....|F-5 .... ....|F-4 .F1. ....
....|..|--- .... ....|--- .... ....|--- .... ....
....|..|--- .... ....|--- .... ....|R-- .... ....
....|..|--- .... ....|--- .... ....|--- .... ....
....|..|--- .... ....|E-5 ...A ....|F-4 .... ....
....|..|--- .... ....|--- .... ....|--- .... ....
....|..|--- .... ....|--- .... ....|R-- .... ....
....|..|--- .... ....|--- .... ....|--- .... ....
....|..|--- .... ....|C-5 ...7 ....|F-4 .... ....
....|..|--- .... ....|--- .... ....|--- .... ....
....|..|--- .... ....|--- .... ....|R-- .... ....
....|..|--- .... ....|--- .... ....|--- .... ....
....|..|F-2 .F.A ....|E-5 ...F ....|F-4 .... ....
....|..|--- .... ....|--- .... ....|--- .... ....
....|..|--- .... ....|--- .... ....|R-- .... ....
....|..|--- .... ....|--- .... ....|--- .... ....
....|..|--- .... ....|F-5 .... ....|A-3 ..A. ....
....|..|--- .... ....|--- .... ....|--- .... ....
....|..|--- .... ....|--- .... ....|R-- .... ....
....|..|--- .... ....|--- .... ....|R-- .... ....
....|..|--- .... ....|E-5 .... ....|F-4 ..1. ....
....|..|--- .... ....|--- .... ....|--- .... ....
....|..|--- .... ....|--- .... ....|R-- .... ....
....|..|--- .... ....|--- .... ....|--- .... ....
....|..|F-2 ...7 ....|D-5 .... ....|F-4 .... ....
....|..|--- .... ....|--- .... ....|--- .... ....
....|..|--- .... ....|--- .... ....|R-- .... ....
....|..|--- .... ....|--- .... ....|--- .... ....
....|..|--- .... ....|F-5 ...A ....|F-4 .... ....
....|..|--- .... ....|--- .... ....|--- .... ....
 F-4|..|F-2 .A.F ....|--- .... ....|R-- .... ....
....|..|R-- .... ....|--- .... ....|R-- .... ....
 G-4|..|G-2 .A.. ....|E-5 .... ....|G-4 .... ....
....|..|--- .... ....|--- .... ....|--- .... ....
....|..|--- .... ....|--- .... ....|R-- .... ....
....|..|--- .... ....|--- .... ....|--- .... ....
....|..|--- .... ....|E-5 ...7 ....|G-4 .... ....
....|..|--- .... ....|--- .... ....|--- .... ....
....|..|--- .... ....|--- .... ....|R-- .... ....
....|..|--- .... ....|--- .... ....|--- .... ....
....|..|--- .... ....|F-5 .... ....|G-4 .... ....
....|..|--- .... ....|--- .... ....|--- .... ....
....|..|F-2 .F.A ....|--- .... ....|R-- .... ....
....|..|R-- .... ....|--- .... ....|R-- .... ....
....|..|G-2 .... ....|B-4 ...F ....|G-4 .... ....
....|..|--- .... ....|--- .... ....|--- .... ....
....|..|--- .... ....|--- .... ....|R-- .... ....
....|..|--- .... ....|--- .... ....|--- .... ....

[Pattern1]
 C-3|..|--- .... ....|C-5 2F.F ....|C-5 2C.F ....
....|..|--- .... ....|--- .... ....|--- .... ....
....|..|--- .... ....|--- .... ....|R-- .... ....
....|..|--- .... ....|--- .... ....|--- .... ....
....|..|--- .... ....|R-- .... ....|G-4 .F1. ....
....|..|--- .... ....|--- .... ....|--- .... ....
....|..|F-2 2F.7 ....|--- .... ....|R-- .... ....
....|..|R-- .... ....|--- .... ....|--- .... ....
....|..|G-2 .... ....|D-5 .... ....|G-4 .... ....
....|..|--- .... ....|--- .... ....|--- .... ....
....|..|--- .... ....|--- .... ....|R-- .... ....
....|..|--- .... ....|--- .... ....|--- .... ....
....|..|--- .... ....|R-- .... ....|G-4 .... ....
....|..|--- .... ....|--- .... ....|--- .... ....
....|..|R-- .... ....|--- .... ....|R-- .... ....
....|..|--- .... ....|--- .... ....|--- .... ....
 G#4|..|G#2 .A.F ....|E-5 .... ....|G#4 ..6. ....
....|..|--- .... ....|--- .... ....|--- .... ....
....|..|--- .... ....|--- .... ....|R-- .... ....
....|..|--- .... ....|--- .... ....|--- .... ....
....|..|--- .... ....|B-4 ...7 ....|G#4 .... ....
....|..|--- .... ....|--- .... ....|--- .... ....
....|..|--- .... ....|--- .... ....|R-- .... ....
....|..|--- .... ....|--- .... ....|--- .... ....
....|..|--- .... ....|C-5 .... ....|G#4 .... ....
....|..|--- .... ....|--- .... ....|--- .... ....
....|..|R-- .... ....|R-- .... ....|R-- .... ....
....|..|--- .F.. ....|--- .... ....|--- .... ....
 E-4|..|G#2 ...A ....|E-5 ...F ....|E-5 .C.. ....
....|..|--- .... ....|R-- .... ....|--- .... ....
....|..|--- .... ....|--- .... ....|R-- .... ....
....|..|--- .... ....|--- .... ....|--- .... ....
 E-4|..|--- .... ....|E-5 .... ....|E-5 .C.. ....
....|..|--- .... ....|--- .... ....|--- .... ....
....|..|--- .... ....|--- .... ....|R-- .... ....
....|..|--- .... ....|R-- .... ....|R-- .... ....
....|..|--- .... ....|D-5 .... ....|G#4 .F6. ....
....|..|--- .... ....|--- .... ....|--- .... ....
....|..|R-- .... ....|R-- .... ....|R-- .... ....
....|..|--- .... ....|--- .... ....|E-5 .F.A ....
....|..|G#2 ...7 ....|E-5 ...A ....|G#4 ..6F ....
....|..|--- .... ....|--- .... ....|R-- .... ....
....|..|--- .... ....|R-- .... ....|R-- .... ....
....|..|--- .... ....|--- .... ....|E-5 .F.A ....
....|..|--- .... ....|C-5 ...F ....|G#4 ..6F ....
....|..|--- .... ....|--- .... ....|--- .... ....
....|..|R-- .... ....|--- .... ....|R-- .... ....
....|..|--- .... ....|R-- .... ....|R-- .... ....
 A-3|..|A-2 .C.F ....|D-5 ...A ....|A-4 ..3. ....
....|..|--- .... ....|--- .... ....|--- .... ....
....|..|--- .... ....|R-- .... ....|R-- .... ....
....|..|--- .... ....|E-5 ...7 ....|E-5 .F.7 ....
....|..|--- .... ....|--- .... ....|A-4 ..3F ....
....|..|--- .... ....|R-- .... ....|R-- .... ....
....|..|--- .... ....|R-- .... ....|R-- .... ....
....|..|--- .... ....|E-5 .... ....|E-5 .F.7 ....
....|..|--- .... ....|C-5 ...A ....|A-4 ..3F ....
....|..|--- .... ....|--- .... ....|--- .... ....
....|..|R-- .... ....|--- .... ....|R-- .... ....
....|..|--- .... ....|R-- .... ....|R-- .... ....
....|..|A-2 .F.A ....|D-5 ...7 ....|A-4 .... ....
....|..|--- .... ....|--- .... ....|--- .... ....
....|..|--- .... ....|--- .... ....|R-- .... ....
....|..|--- .... ....|--- .... ....|--- .... ....

[Pattern2]
....|..|--- .... ....|C-5 2F.F ....|C-4 2FAF ....
....|..|--- .... ....|--- .... ....|--- .... ....
....|..|--- .... ....|R-- .... ....|R-- .... ....
....|..|--- .... ....|--- .... ....|--- .... ....
....|..|--- .... ....|D-5 .... ....|A-4 ..3. ....
....|..|--- .... ....|--- .... ....|--- .... ....
....|..|R-- .... ....|--- .... ....|R-- .... ....
....|..|--- .... ....|--- .... ....|--- .... ....
....|..|A-2 2F.7 ....|E-5 .... ....|A-4 .... ....
....|..|--- .... ....|--- .... ....|--- .... ....
....|..|--- .... ....|--- .... ....|R-- .... ....
....|..|--- .... ....|--- .... ....|--- .... ....
....|..|--- .... ....|C-5 .... ....|A-4 .... ....
....|..|--- .... ....|--- .... ....|--- .... ....
....|..|--- .... ....|R-- .... ....|R-- .... ....
....|..|--- .... ....|--- .... ....|R-- .... ....
....|..|C-4 A..F ....|F-5 .... ....|F-4 ..1. ....
 F-3|..|F-1 2A.. ....|--- .... ....|--- .... ....
 F-4|..|F-2 .A.. ....|--- .... ....|R-- .... ....
....|..|--- .... ....|--- .... ....|--- .... ....
 F-3|..|F-1 .A.. ....|E-5 ...A ....|F-4 .... ....
....|..|--- .... ....|--- .... ....|--- .... ....
....|..|--- .... ....|--- .... ....|R-- .... ....
....|..|--- .... ....|--- .... ....|--- .... ....
....|..|C-4 AF.. ....|C-5 ...7 ....|F-4 .... ....
....|..|R-- .... ....|--- .... ....|--- .... ....
....|..|--- .... ....|--- .... ....|R-- .... ....
....|..|--- .... ....|--- .... ....|R-- .... ....
 F-3|..|F-1 2A.. ....|E-5 ...F ....|F-4 .... ....
....|..|F-1 .F.A ....|--- .... ....|--- .... ....
....|..|R-- .... ....|--- .... ....|R-- .... ....
....|..|--- .... ....|--- .... ....|--- .... ....
....|..|C-4 A..F ....|F-5 .... ....|A-3 ..A. ....
....|..|R-- .... ....|--- .... ....|--- .... ....
....|..|--- .... ....|--- .... ....|R-- .... ....
....|..|--- .... ....|--- .... ....|R-- .... ....
 F-3|..|F-1 2A.. ....|E-5 .... ....|F-4 ..1. ....
....|..|R-- .... ....|--- .... ....|F-5 .F.. ....
....|..|--- .... ....|--- .... ....|R-- .... ....
....|..|--- .... ....|--- .... ....|R-- .... ....
....|..|C-4 AF.. ....|D-5 .... ....|F-4 ..1. ....
....|..|F-1 2..7 ....|--- .... ....|A-5 .F.. ....
....|..|F-2 .... ....|--- .... ....|R-- .... ....
....|..|--- .... ....|--- .... ....|--- .... ....
 F-3|..|F-1 .A.F ....|F-5 ...A ....|F-4 ..1. ....
....|..|R-- .... ....|--- .... ....|F-5 .F.. ....
 F-4|..|F-2 .A.. ....|--- .... ....|R-- .... ....
....|..|R-- .... ....|--- .... ....|R-- .... ....
....|..|C-4 AF.. ....|E-5 .... ....|G-4 ..1. ....
 G-3|..|G-1 2A.. ....|--- .... ....|F-5 .F.A ....
 G-4|..|G-2 .A.. ....|--- .... ....|R-- .... ....
....|..|--- .... ....|--- .... ....|--- .... ....
 G-3|..|G-1 .A.. ....|E-5 ...7 ....|G-4 ..1F ....
....|..|R-- .... ....|--- .... ....|A-5 .F.A ....
....|..|R-- .... ....|--- .... ....|R-- .... ....
....|..|--- .... ....|--- .... ....|--- .... ....
....|..|C-4 AF.. ....|F-5 .... ....|G-4 ..1F ....
....|..|R-- .... ....|--- .... ....|F-5 .F.A ....
....|..|F-2 2..A ....|--- .... ....|R-- .... ....
....|..|R-- .... ....|--- .... ....|R-- .... ....
 G-3|..|G-1 .A.F ....|B-4 ...F ....|G-4 ..1F ....
....|..|G-1 .F.A ....|--- .... ....|F-5 .F.7 ....
....|..|R-- .... ....|--- .... ....|R-- .... ....
....|..|--- .... ....|--- .... ....|--- .... ....

[Pattern3]
....|..|C-4 AF.F ....|C-5 2F.F ....|C-4 2F.F ....
....|..|R-- .... ....|--- .... ....|A-5 ...7 ....
....|..|--- .... ....|--- .... ....|R-- .... ....
....|..|--- .... ....|--- .... ....|--- .... ....
 G-3|..|G-1 2A.. ....|R-- .... ....|G-4 ..1F ....
....|..|R-- .... ....|--- .... ....|F-5 .F.7 ....
....|..|F-2 .F.7 ....|--- .... ....|R-- .... ....
....|..|R-- .... ....|--- .... ....|--- .... ....
....|..|C-4 A..F ....|D-5 .... ....|G-4 ..1F ....
....|..|G-1 2..7 ....|--- .... ....|--- .... ....
....|..|G-2 .... ....|--- .... ....|R-- .... ....
....|..|--- .... ....|--- .... ....|--- .... ....
 G-3|..|G-1 .A.F ....|R-- .... ....|G-4 .... ....
....|..|R-- .... ....|--- .... ....|--- .... ....
....|..|R-- .... ....|--- .... ....|R-- .... ....
....|..|--- .... ....|--- .... ....|--- .... ....
....|..|C-4 AF.. ....|E-5 .... ....|G#4 ..6. ....
 G#3|..|G#1 2A.. ....|--- .... ....|--- .... ....
 G#4|..|G#2 .A.. ....|--- .... ....|R-- .... ....
....|..|--- .... ....|--- .... ....|--- .... ....
 G#3|..|G#1 .A.. ....|B-4 ...7 ....|G#4 .... ....
....|..|R-- .... ....|--- .... ....|--- .... ....
....|..|R-- .... ....|--- .... ....|R-- .... ....
....|..|--- .... ....|--- .... ....|--- .... ....
....|..|C-4 AF.. ....|C-5 .... ....|G#4 .... ....
....|..|R-- .... ....|--- .... ....|--- .... ....
....|..|R-- .... ....|R-- .... ....|R-- .... ....
....|..|--- .... ....|--- .... ....|--- .... ....
 G#3|..|G#1 2A.. ....|E-5 ...F ....|G#4 .... ....
....|..|G#1 .F.A ....|--- .... ....|R-- .... ....
....|..|R-- .... ....|R-- .... ....|R-- .... ....
....|..|--- .... ....|--- .... ....|--- .... ....
 E-4|..|C-4 A..F ....|E-5 .... ....|E-5 .C.. ....
....|..|R-- .... ....|--- .... ....|--- .... ....
....|..|--- .... ....|--- .... ....|R-- .... ....
....|..|--- .... ....|R-- .... ....|R-- .... ....
 G#3|..|G#1 2A.. ....|D-5 .... ....|G#4 .F6. ....
....|..|R-- .... ....|--- .... ....|--- .... ....
....|..|R-- .... ....|R-- .... ....|R-- .... ....
....|..|--- .... ....|--- .... ....|E-5 .F.A ....
....|..|C-4 AF.. ....|E-5 ...A ....|G#4 ..6F ....
....|..|G#1 2..7 ....|--- .... ....|R-- .... ....
....|..|G#2 .... ....|R-- .... ....|R-- .... ....
....|..|--- .... ....|--- .... ....|E-5 .F.A ....
 G#3|..|G#1 .A.F ....|C-5 ...F ....|G#4 ..6F ....
....|..|R-- .... ....|--- .... ....|--- .... ....
....|..|R-- .... ....|--- .... ....|R-- .... ....
....|..|--- .... ....|R-- .... ....|R-- .... ....
....|..|C-4 AF.. ....|D-5 ...A ....|A-4 ..3. ....
 A-3|..|A-1 2A.. ....|--- .... ....|--- .... ....
 A-3|..|A-2 .C.. ....|R-- .... ....|R-- .... ....
....|..|R-- .... ....|E-5 ...7 ....|E-5 .F.7 ....
 A-3|..|A-1 .A.. ....|--- .... ....|A-4 ..3F ....
....|..|R-- .... ....|R-- .... ....|R-- .... ....
....|..|R-- .... ....|R-- .... ....|R-- .... ....
....|..|--- .... ....|E-5 .... ....|E-5 .F.7 ....
....|..|C-4 AF.. ....|C-5 ...A ....|A-4 ..3F ....
....|..|R-- .... ....|--- .... ....|--- .... ....
....|..|R-- .... ....|--- .... ....|R-- .... ....
....|..|--- .... ....|R-- .... ....|R-- .... ....
 A-3|..|A-1 2A.. ....|D-5 ...7 ....|A-4 .... ....
....|..|A-1 .F.A ....|--- .... ....|--- .... ....
....|..|A-2 .... ....|--- .... ....|R-- .... ....
....|..|R-- .... ....|--- .... ....|--- .... ....

[Pattern4]
....|..|C-4 AF.F ....|--- .... ....|C-4 2FAF ....
....|..|R-- .... ....|--- .... ....|--- .... ....
....|..|--- .... ....|R-- .... ....|R-- .... ....
....|..|--- .... ....|--- .... ....|--- .... ....
 A-3|..|A-1 2A.. ....|C-5 2F.7 ....|A-4 ..3. ....
....|..|R-- .... ....|--- .... ....|--- .... ....
....|..|R-- .... ....|--- .... ....|R-- .... ....
....|..|--- .... ....|--- .... ....|--- .... ....
....|..|C-4 AF.. ....|--- .... ....|A-4 .... ....
....|..|A-1 2..7 ....|--- .... ....|--- .... ....
....|..|A-2 .... ....|--- .... ....|R-- .... ....
....|..|R-- .... ....|--- .... ....|--- .... ....
 A-3|..|A-1 .A.F ....|--- .... ....|A-4 .... ....
....|..|R-- .... ....|--- .... ....|--- .... ....
....|..|R-- .... ....|R-- .... ....|R-- .... ....
....|..|--- .... ....|--- .... ....|R-- .... ....
 A-3|..|F-1 .F.. ....|A-4 ...F ....|A-4 .C.. ....
....|..|R-- .... ....|--- .... ....|--- .... ....
....|..|--- .... ....|--- .... ....|R-- .... ....
....|..|--- .... ....|R-- .... ....|R-- .... ....
 F-3|..|F-1 .A.. ....|--- .... ....|A-4 .F37 ....
....|..|R-- .... ....|--- .... ....|--- .... ....
....|..|--- .... ....|--- .... ....|R-- .... ....
....|..|R-- .... ....|--- .... ....|--- .... ....
 A-3|..|F-1 .F.. ....|A-4 .... ....|A-4 .C.F ....
....|..|R-- .... ....|--- .... ....|--- .... ....
....|..|R-- .... ....|--- .... ....|R-- .... ....
....|..|--- .... ....|--- .... ....|R-- .... ....
....|..|A-1 ...7 ....|A-4 ...A ....|A-4 .F37 ....
....|..|R-- .... ....|--- .... ....|--- .... ....
....|..|--- .... ....|--- .... ....|R-- .... ....
....|..|--- .... ....|R-- .... ....|R-- .... ....
 E-4|..|F-1 ...F ....|E-5 ...F ....|E-5 .C.F ....
....|..|R-- .... ....|--- .... ....|--- .... ....
....|..|--- .... ....|--- .... ....|R-- .... ....
....|..|--- .... ....|R-- .... ....|R-- .... ....
 E-4|..|A-1 ...7 ....|E-5 .... ....|E-5 .C.. ....
....|..|R-- .... ....|--- .... ....|--- .... ....
....|..|R-- .... ....|R-- .... ....|R-- .... ....
....|..|--- .... ....|--- .... ....|R-- .... ....
 F-4|..|F-1 .... ....|F-5 .... ....|F-5 .C.. ....
....|..|R-- .... ....|--- .... ....|--- .... ....
....|..|--- .... ....|--- .... ....|--- .... ....
....|..|--- .... ....|R-- .... ....|R-- .... ....
 E-4|..|F-1 .... ....|E-5 .... ....|E-5 .C.. ....
....|..|R-- .... ....|--- .... ....|--- .... ....
....|..|--- .... ....|--- .... ....|--- .... ....
....|..|--- .... ....|R-- .... ....|R-- .... ....
....|..|F-1 .... ....|A-4 ...7 ....|A-4 .F.7 ....
....|..|R-- .... ....|--- .... ....|--- .... ....
....|..|--- .... ....|R-- .... ....|R-- .... ....
....|..|--- .... ....|--- .... ....|--- .... ....
 A-3|..|--- .... ....|A-4 ...F ....|A-4 .C.F ....
....|..|--- .... ....|--- .... ....|--- .... ....
....|..|--- .... ....|R-- .... ....|R-- .... ....
....|..|--- .... ....|R-- .... ....|R-- .... ....
 A-3|..|F-1 .... ....|A-4 .... ....|A-4 .C.. ....
....|..|R-- .... ....|--- .... ....|--- .... ....
....|..|--- .... ....|--- .... ....|--- .... ....
....|..|--- .... ....|R-- .... ....|R-- .... ....
....|..|--- .... ....|E-5 ...7 ....|E-5 .F.7 ....
....|..|--- .... ....|--- .... ....|--- .... ....
....|..|--- .... ....|R-- .... ....|R-- .... ....
....|..|--- .... ....|--- .... ....|--- .... ....

[Pattern5]
 E-4|..|--- .... ....|E-5 2F.F ....|E-5 2C.F ....
....|..|--- .... ....|--- .... ....|--- .... ....
....|..|--- .... ....|R-- .... ....|R-- .... ....
....|..|--- .... ....|--- .... ....|--- .... ....
 E-4|..|--- .... ....|E-5 .... ....|E-5 .C.. ....
....|..|--- .... ....|--- .... ....|--- .... ....
....|..|--- .... ....|R-- .... ....|R-- .... ....
....|..|--- .... ....|--- .... ....|--- .... ....
 F-4|..|--- .... ....|F-5 .... ....|F-5 .C.. ....
....|..|--- .... ....|--- .... ....|--- .... ....
....|..|--- .... ....|R-- .... ....|R-- .... ....
....|..|--- .... ....|--- .... ....|--- .... ....
 E-4|..|--- .... ....|E-5 .... ....|E-5 .C.. ....
....|..|--- .... ....|--- .... ....|--- .... ....
....|..|--- .... ....|R-- .... ....|R-- .... ....
....|..|--- .... ....|R-- .... ....|R-- .... ....
 A-3|..|C-4 AF.F ....|A-4 .... ....|A-4 .C.. ....
....|..|R-- .... ....|--- .... ....|--- .... ....
....|..|--- .... ....|R-- .... ....|R-- .... ....
....|..|--- .... ....|R-- .... ....|R-- .... ....
....|..|B-8 J... ....|F-5 ...A ....|F-5 .F.A ....
....|..|R-- .... ....|--- .... ....|--- .... ....
....|..|--- .... ....|R-- .... ....|R-- .... ....
....|..|--- .... ....|--- .... ....|--- .... ....
 A-3|..|C-4 A... ....|A-4 ...F ....|A-4 .C.F ....
....|..|R-- .... ....|--- .... ....|--- .... ....
....|..|--- .... ....|R-- .... ....|R-- .... ....
....|..|--- .... ....|R-- .... ....|R-- .... ....
....|..|B-8 J... ....|E-5 ...7 ....|E-5 .F.7 ....
....|..|R-- .... ....|--- .... ....|--- .... ....
....|..|--- .... ....|R-- .... ....|R-- .... ....
....|..|--- .... ....|R-- .... ....|R-- .... ....
 E-4|..|C-4 A... ....|E-5 ...F ....|E-5 .C.F ....
....|..|R-- .... ....|--- .... ....|--- .... ....
....|..|--- .... ....|--- .... ....|--- .... ....
....|..|--- .... ....|R-- .... ....|R-- .... ....
 E-4|..|B-8 J... ....|E-5 .... ....|E-5 .C.. ....
....|..|R-- .... ....|--- .... ....|--- .... ....
....|..|--- .... ....|R-- .... ....|R-- .... ....
....|..|--- .... ....|R-- .... ....|R-- .... ....
 F-4|..|C-4 A... ....|F-5 .... ....|F-5 .C.. ....
....|..|R-- .... ....|--- .... ....|--- .... ....
....|..|--- .... ....|--- .... ....|--- .... ....
....|..|--- .... ....|R-- .... ....|R-- .... ....
 E-4|..|B-8 J... ....|E-5 .... ....|E-5 .C.. ....
....|..|R-- .... ....|--- .... ....|--- .... ....
....|..|--- .... ....|--- .... ....|--- .... ....
....|..|--- .... ....|R-- .... ....|R-- .... ....
....|..|C-4 A... ....|A-4 ...7 ....|A-4 .F.7 ....
....|..|R-- .... ....|--- .... ....|--- .... ....
....|..|--- .... ....|R-- .... ....|R-- .... ....
....|..|--- .... ....|--- .... ....|--- .... ....
 C-3|..|B-8 J..7 ....|C-5 ...F ....|C-5 .C.F ....
....|..|R-- .... ....|R-- .... ....|R-- .... ....
....|..|--- .... ....|--- .... ....|--- .... ....
....|..|--- .... ....|R-- .... ....|R-- .... ....
 C-3|..|C-4 A... ....|C-5 .... ....|C-5 .C.. ....
....|..|R-- .... ....|--- .... ....|--- .... ....
....|..|--- .... ....|--- .... ....|--- .... ....
....|..|--- .... ....|R-- .... ....|R-- .... ....
 A-3|..|B-8 J... ....|A-4 .... ....|A-4 .C.. ....
....|..|R-- .... ....|--- .... ....|--- .... ....
....|..|--- .... ....|R-- .... ....|R-- .... ....
....|..|--- .... ....|--- .... ....|--- .... ....

[Pattern6]
 C-3|..|C-4 AF.7 ....|C-5 2F.F ....|C-5 2C.F ....
....|..|R-- .... ....|R-- .... ....|R-- .... ....
....|..|--- .... ....|--- .... ....|--- .... ....
....|..|--- .... ....|--- .... ....|--- .... ....
....|..|B-8 J... ....|E-5 ...7 ....|E-5 .F.7 ....
....|..|R-- .... ....|R-- .... ....|R-- .... ....
....|..|--- .... ....|--- .... ....|--- .... ....
....|..|--- .... ....|R-- .... ....|R-- .... ....
 C-3|..|C-4 A... ....|C-5 ...F ....|C-5 .C.F ....
....|..|R-- .... ....|--- .... ....|--- .... ....
....|..|--- .... ....|--- .... ....|--- .... ....
....|..|--- .... ....|--- .... ....|--- .... ....
....|..|--- .... ....|C-5 ...7 ....|C-5 .F.7 ....
....|..|--- .... ....|R-- .... ....|R-- .... ....
....|..|--- .... ....|--- .... ....|--- .... ....
....|..|--- .... ....|--- .... ....|--- .... ....
 A-3|..|C-4 ...F ....|A-4 ...F ....|A-4 .C.F ....
 A-3|..|A-1 2A.. ....|R-- .... ....|R-- .... ....
 A-2|..|A-1 .A.. ....|--- .... ....|--- .... ....
....|..|R-- .... ....|R-- .... ....|R-- .... ....
 A-3|..|A-1 .A.. ....|A-4 ...7 ....|A-1 .F.. ....
 A-3|..|A-1 .A.. ....|--- .... ....|--- .... ....
....|..|R-- .... ....|--- .... ....|R-- .... ....
....|..|--- .... ....|--- .... ....|--- .... ....
....|..|C-4 AF.. ....|A-4 ...F ....|C-2 .... ....
 C-4|..|C-2 2A.. ....|--- .... ....|--- .... ....
 C-4|..|C-2 .A.. ....|--- .... ....|R-- .... ....
....|..|R-- .... ....|--- .... ....|--- .... ....
 C-4|..|C-2 .A.. ....|A-4 ...A ....|C-2 .... ....
 C-4|..|C-2 .A.. ....|R-- .... ....|R-- .... ....
....|..|R-- .... ....|--- .... ....|R-- .... ....
....|..|R-- .... ....|R-- .... ....|R-- .... ....
....|..|C-4 AF.. ....|E-5 ...F ....|E-2 .... ....
 E-4|..|E-2 2A.. ....|--- .... ....|--- .... ....
 E-4|..|E-2 .A.. ....|--- .... ....|R-- .... ....
....|..|R-- .... ....|R-- .... ....|R-- .... ....
 E-4|..|E-2 .A.. ....|E-5 .... ....|E-2 .... ....
 E-4|..|E-2 .A.. ....|--- .... ....|--- .... ....
....|..|R-- .... ....|R-- .... ....|R-- .... ....
....|..|R-- .... ....|--- .... ....|--- .... ....
....|..|C-4 AF.. ....|F-5 .... ....|F-2 .... ....
 F-4|..|F-2 2A.. ....|--- .... ....|--- .... ....
 F-4|..|F-2 .A.. ....|--- .... ....|R-- .... ....
....|..|R-- .... ....|R-- .... ....|R-- .... ....
 F-4|..|F-2 .A.. ....|E-5 .... ....|F-2 .... ....
 F-4|..|F-2 .A.. ....|--- .... ....|--- .... ....
....|..|R-- .... ....|--- .... ....|R-- .... ....
....|..|R-- .... ....|R-- .... ....|R-- .... ....
....|..|C-4 AF.. ....|A-4 ...7 ....|C-2 ...7 ....
 A-3|..|A-1 2A.. ....|--- .... ....|--- .... ....
 A-2|..|A-1 .A.. ....|R-- .... ....|R-- .... ....
....|..|R-- .... ....|--- .... ....|--- .... ....
 A-3|..|A-1 .A.. ....|A-4 ...F ....|A-1 ...F ....
 A-3|..|A-1 .A.. ....|--- .... ....|--- .... ....
....|..|R-- .... ....|R-- .... ....|R-- .... ....
....|..|R-- .... ....|R-- .... ....|R-- .... ....
....|..|C-4 AF.. ....|A-4 .... ....|C-2 .... ....
 C-4|..|C-2 2A.. ....|--- .... ....|--- .... ....
 C-4|..|C-2 .A.. ....|--- .... ....|R-- .... ....
....|..|R-- .... ....|R-- .... ....|R-- .... ....
 C-4|..|C-2 .A.. ....|E-5 ...7 ....|C-2 .... ....
 C-4|..|C-2 .A.. ....|--- .... ....|--- .... ....
....|..|R-- .... ....|R-- .... ....|R-- .... ....
....|..|R-- .... ....|--- .... ....|--- .... ....

[Pattern7]
....|..|C-4 AF.F ....|E-5 2F.F ....|E-2 2F.F ....
 E-4|..|E-2 2A.. ....|--- .... ....|--- .... ....
 E-4|..|E-2 .A.. ....|R-- .... ....|R-- .... ....
....|..|R-- .... ....|--- .... ....|--- .... ....
 E-4|..|E-2 .A.. ....|E-5 .... ....|E-2 .... ....
 E-4|..|E-2 .A.. ....|--- .... ....|--- .... ....
....|..|R-- .... ....|R-- .... ....|R-- .... ....
....|..|R-- .... ....|--- .... ....|--- .... ....
....|..|C-4 AF.. ....|F-5 .... ....|F-2 .... ....
 F-4|..|F-2 2A.. ....|--- .... ....|--- .... ....
 F-4|..|F-2 .A.. ....|R-- .... ....|R-- .... ....
....|..|R-- .... ....|--- .... ....|--- .... ....
 E-4|..|E-2 .A.. ....|E-5 .... ....|E-2 .... ....
 E-4|..|E-2 .A.. ....|--- .... ....|--- .... ....
....|..|R-- .... ....|R-- .... ....|R-- .... ....
....|..|R-- .... ....|R-- .... ....|R-- .... ....
 A-3|..|C-4 AF.. ....|A-4 .... ....|A-4 .C.. ....
 A-3|..|A-1 2A.. ....|--- .... ....|--- .... ....
 A-2|..|A-1 .A.. ....|R-- .... ....|R-- .... ....
....|..|R-- .... ....|R-- .... ....|R-- .... ....
 A-3|..|A-1 .A.. ....|F-5 ...A ....|A-1 .F.. ....
 A-3|..|A-1 .A.. ....|--- .... ....|--- .... ....
....|..|R-- .... ....|R-- .... ....|R-- .... ....
....|..|R-- .... ....|--- .... ....|--- .... ....
....|..|C-4 AF.. ....|A-4 ...F ....|C-2 .... ....
 C-4|..|C-2 2A.. ....|--- .... ....|--- .... ....
 C-4|..|C-2 .A.. ....|R-- .... ....|R-- .... ....
....|..|R-- .... ....|R-- .... ....|R-- .... ....
 C-4|..|C-2 .A.. ....|E-5 ...7 ....|C-2 .... ....
 C-4|..|C-2 .A.. ....|--- .... ....|--- .... ....
....|..|R-- .... ....|R-- .... ....|R-- .... ....
....|..|R-- .... ....|R-- .... ....|R-- .... ....
....|..|C-4 AF.. ....|E-5 ...F ....|E-2 .... ....
 E-4|..|E-2 2A.. ....|--- .... ....|--- .... ....
 E-4|..|E-2 .A.. ....|--- .... ....|R-- .... ....
....|..|R-- .... ....|R-- .... ....|R-- .... ....
 E-4|..|E-2 .A.. ....|E-5 .... ....|E-2 .... ....
 E-4|..|E-2 .A.. ....|--- .... ....|--- .... ....
....|..|R-- .... ....|R-- .... ....|R-- .... ....
....|..|R-- .... ....|R-- .... ....|R-- .... ....
....|..|C-4 AF.. ....|F-5 .... ....|F-2 .... ....
 F-4|..|F-2 2A.. ....|--- .... ....|--- .... ....
 F-4|..|F-2 .A.. ....|--- .... ....|R-- .... ....
....|..|R-- .... ....|R-- .... ....|R-- .... ....
 F-4|..|F-2 .A.. ....|E-5 .... ....|F-2 .... ....
 F-4|..|F-2 .A.. ....|--- .... ....|--- .... ....
....|..|R-- .... ....|--- .... ....|R-- .... ....
....|..|R-- .... ....|R-- .... ....|R-- .... ....
....|..|C-4 AF.. ....|A-4 ...7 ....|C-2 ...7 ....
 G-3|..|G-1 2A.. ....|--- .... ....|--- .... ....
....|..|C-2 .F.7 ....|R-- .... ....|R-- .... ....
....|..|R-- .... ....|--- .... ....|--- .... ....
 G-4|..|G-2 .A.F ....|C-5 ...F ....|G-2 ...F ....
 G-4|..|G-2 .A.. ....|R-- .... ....|R-- .... ....
....|..|R-- .... ....|--- .... ....|R-- .... ....
....|..|R-- .... ....|R-- .... ....|R-- .... ....
 C-3|..|C-4 AF.. ....|C-5 .... ....|C-5 .C.. ....
....|..|E-2 2..7 ....|--- .... ....|R-- .... ....
....|..|E-2 .... ....|--- .... ....|R-- .... ....
....|..|R-- .... ....|R-- .... ....|R-- .... ....
 G-4|..|G-2 .A.F ....|A-4 .... ....|G-2 .F.. ....
 G-4|..|G-2 .A.. ....|--- .... ....|--- .... ....
....|..|R-- .... ....|R-- .... ....|R-- .... ....
....|..|--- .... ....|--- .... ....|--- .... ....

[Pattern8]
 C-3|..|C-4 AF.F ....|C-5 2F.F ....|C-5 2C.F ....
 G-3|..|G-1 2A.. ....|R-- .... ....|R-- .... ....
....|..|F-2 .F.7 ....|--- .... ....|R-- .... ....
....|..|R-- .... ....|--- .... ....|--- .... ....
 G-4|..|G-2 .A.F ....|E-5 ...7 ....|G-2 .F.. ....
 G-4|..|G-2 .A.. ....|R-- .... ....|R-- .... ....
....|..|R-- .... ....|--- .... ....|R-- .... ....
....|..|--- .... ....|R-- .... ....|R-- .... ....
 C-3|..|C-4 AF.. ....|C-5 ...F ....|C-5 .C.. ....
....|..|G-1 2..7 ....|--- .... ....|--- .... ....
....|..|R-- .... ....|--- .... ....|R-- .... ....
....|..|--- .... ....|--- .... ....|--- .... ....
 G-4|..|G-2 .A.F ....|C-5 ...7 ....|G-2 .F.. ....
 G-4|..|G-2 .A.. ....|R-- .... ....|R-- .... ....
....|..|--- .... ....|--- .... ....|--- .... ....
....|..|R-- .... ....|--- .... ....|R-- .... ....
....|..|C-4 AF.. ....|C-5 .... ....|C-5 ...7 ....
....|..|R-- .... ....|R-- .... ....|R-- .... ....
....|..|--- .... ....|--- .... ....|--- .... ....
....|..|--- .... ....|R-- .... ....|R-- .... ....
 G-4|..|A-1 2... ....|G-4 ..FF ....|G-4 .C.F ....
 A-3|..|A-1 .A.. ....|--- .... ....|--- .F.. ....
....|..|R-- .... ....|R-- .... ....|R-- .... ....
....|..|--- .... ....|--- .... ....|--- .... ....
 A-3|..|C-4 AF.. ....|A-4 .... ....|A-4 .C.. ....
....|..|G-1 2..7 ....|--- .... ....|--- .... ....
....|..|--- .... ....|--- .... ....|--- .... ....
....|..|R-- .... ....|R-- .... ....|R-- .... ....
 G-4|..|A-1 ...F ....|G-4 .... ....|G-4 .C.. ....
 A-3|..|A-1 .A.. ....|R-- .... ....|R-- .... ....
....|..|R-- .... ....|--- .... ....|--- .... ....
....|..|--- .... ....|R-- .... ....|R-- .... ....
 A-3|..|C-4 AF.. ....|A-4 .... ....|A-4 .C.. ....
....|..|R-- .... ....|--- .... ....|--- .... ....
....|..|R-- .... ....|R-- .... ....|R-- .... ....
....|..|--- .... ....|R-- .... ....|R-- .... ....
 A-3|..|A-2 2C.. ....|A-4 .... ....|A-4 .C.. ....
 A-3|..|A-1 .A.. ....|--- .... ....|--- .... ....
....|..|--- .... ....|--- .... ....|--- .... ....
....|..|R-- .... ....|R-- .... ....|R-- .... ....
....|..|C-4 AF.. ....|R-- .... ....|R-- .... ....
....|..|R-- .... ....|--- .... ....|--- .... ....
....|..|R-- .... ....|--- .... ....|--- .... ....
....|..|--- .... ....|R-- .... ....|R-- .... ....
 A-3|..|A-2 2C.. ....|A-4 .F.. ....|A-4 .C.. ....
 A-3|..|A-1 .A.. ....|--- .... ....|--- .... ....
....|..|R-- .... ....|R-- .... ....|R-- .... ....
....|..|--- .... ....|R-- .... ....|R-- .... ....
 C-3|..|C-4 AF.. ....|C-5 .... ....|C-5 .C.. ....
....|..|R-- .... ....|--- .... ....|--- .... ....
....|..|--- .... ....|--- .... ....|--- .... ....
....|..|--- .... ....|R-- .... ....|R-- .... ....
 A-3|..|C-2 2... ....|A-4 .... ....|A-4 .C.. ....
 C-4|..|C-2 .A.. ....|--- .... ....|--- .F.. ....
....|..|R-- .... ....|R-- .... ....|R-- .... ....
....|..|--- .... ....|R-- .... ....|R-- .... ....
 G-4|..|C-4 AF.. ....|G-4 .... ....|G-4 .C.. ....
....|..|R-- .... ....|--- .... ....|--- .... ....
....|..|R-- .... ....|R-- .... ....|R-- .... ....
....|..|--- .... ....|R-- .... ....|R-- .... ....
 A-3|..|C-2 2... ....|A-4 .... ....|A-4 .C.. ....
 C-4|..|C-2 .A.. ....|--- .... ....|--- .F.. ....
....|..|R-- .... ....|--- .... ....|--- .... ....
....|..|--- .... ....|--- .... ....|--- .... ....

[Pattern9]
 G-4|..|C-4 AF.F ....|G-4 2F.F ....|G-4 2C.F ....
....|..|R-- .... ....|--- .... ....|--- .... ....
....|..|--- .... ....|R-- .... ....|R-- .... ....
....|..|--- .... ....|R-- .... ....|R-- .... ....
 F-4|..|F-2 2A.. ....|A-4 ...7 ....|A-4 .F.7 ....
 F-4|..|F-2 .A.. ....|--- .... ....|--- .... ....
....|..|R-- .... ....|R-- .... ....|R-- .... ....
....|..|--- .... ....|--- .... ....|--- .... ....
....|..|C-4 AF.. ....|C-5 .... ....|C-5 .... ....
....|..|R-- .... ....|--- .... ....|--- .... ....
....|..|R-- .... ....|--- .... ....|--- .... ....
....|..|--- .... ....|--- .... ....|--- .... ....
 F-4|..|F-2 2A.. ....|A-4 .... ....|A-4 .... ....
 F-4|..|F-2 .A.. ....|--- .... ....|--- .... ....
....|..|R-- .... ....|R-- .... ....|R-- .... ....
....|..|--- .... ....|--- .... ....|--- .... ....
....|..|C-4 AF.. ....|G-4 .... ....|G-4 .... ....
....|..|R-- .... ....|--- .... ....|--- .... ....
....|..|--- .... ....|R-- .... ....|R-- .... ....
....|..|--- .... ....|--- .... ....|--- .... ....
 A-3|..|A-2 2C.. ....|A-4 ..FF ....|A-4 .C.F ....
 A-3|..|A-1 .A.. ....|--- .... ....|--- .... ....
....|..|R-- .... ....|R-- .... ....|R-- .... ....
....|..|--- .... ....|--- .... ....|--- .... ....
 A-3|..|C-4 AF.. ....|A-4 .... ....|A-4 .C.. ....
....|..|R-- .... ....|--- .... ....|--- .... ....
....|..|R-- .... ....|--- .... ....|--- .... ....
....|..|--- .... ....|--- .... ....|--- .... ....
 G-4|..|A-1 2... ....|G-4 .... ....|G-4 .C.. ....
 A-3|..|A-1 .A.. ....|--- .... ....|--- .F.. ....
....|..|R-- .... ....|R-- .... ....|R-- .... ....
....|..|--- .... ....|--- .... ....|--- .... ....
 A-3|..|C-4 AF.. ....|A-4 .... ....|A-4 .C.. ....
....|..|R-- .... ....|--- .... ....|--- .... ....
....|..|--- .... ....|R-- .... ....|R-- .... ....
....|..|--- .... ....|--- .... ....|--- .... ....
 G-4|..|A-1 2... ....|G-4 .... ....|G-4 .C.. ....
 A-3|..|A-1 .A.. ....|--- .... ....|--- .F.. ....
....|..|R-- .... ....|R-- .... ....|R-- .... ....
....|..|--- .... ....|--- .... ....|--- .... ....
 A-3|..|C-4 AF.. ....|A-4 .... ....|A-4 .C.. ....
....|..|R-- .... ....|--- .... ....|--- .... ....
....|..|R-- .... ....|R-- .... ....|R-- .... ....
....|..|--- .... ....|R-- .... ....|R-- .... ....
 G-4|..|A-1 2... ....|G-4 .... ....|G-4 .C.. ....
 A-3|..|A-1 .A.. ....|--- .... ....|--- .F.. ....
....|..|R-- .... ....|R-- .... ....|R-- .... ....
....|..|--- .... ....|--- .... ....|--- .... ....
 C-3|..|C-4 AF.. ....|C-5 .... ....|C-5 .C.. ....
....|..|R-- .... ....|--- .... ....|--- .... ....
....|..|--- .... ....|R-- .... ....|R-- .... ....
....|..|--- .... ....|R-- .... ....|R-- .... ....
 A-3|..|C-2 2... ....|A-4 .... ....|A-4 .C.. ....
 C-4|..|C-2 .A.. ....|--- .... ....|--- .F.. ....
....|..|R-- .... ....|R-- .... ....|R-- .... ....
....|..|--- .... ....|R-- .... ....|R-- .... ....
 G-4|..|C-4 AF.. ....|G-4 .... ....|G-4 .C.. ....
....|..|R-- .... ....|--- .... ....|--- .... ....
....|..|R-- .... ....|R-- .... ....|R-- .... ....
....|..|--- .... ....|--- .... ....|--- .... ....
 A-3|..|C-2 2... ....|A-4 .... ....|A-4 .C.. ....
 C-4|..|C-2 .A.. ....|--- .... ....|--- .F.. ....
....|..|--- .... ....|R-- .... ....|R-- .... ....
....|..|R-- .... ....|R-- .... ....|R-- .... ....

[Pattern10]
....|..|C-4 AF.F ....|A-4 2F.7 ....|A-4 2F.7 ....
....|..|R-- .... ....|--- .... ....|--- .... ....
....|..|--- .... ....|--- .... ....|--- .... ....
....|..|--- .... ....|R-- .... ....|R-- .... ....
 E-4|..|G-1 2... ....|E-4 ..FF ....|E-4 .C.F ....
 G-3|..|G-1 .A.. ....|--- .... ....|--- .F.. ....
....|..|R-- .... ....|R-- .... ....|R-- .... ....
....|..|--- .... ....|--- .... ....|--- .... ....
 G-4|..|C-4 AF.. ....|G-4 .F.. ....|G-4 .C.. ....
....|..|R-- .... ....|--- .... ....|--- .... ....
....|..|--- .... ....|--- .... ....|--- .... ....
....|..|R-- .... ....|R-- .... ....|R-- .... ....
 A-3|..|G-1 2... ....|A-4 .... ....|A-4 .C.. ....
 G-3|..|G-1 .A.. ....|--- .... ....|--- .F.. ....
....|..|R-- .... ....|--- .... ....|--- .... ....
....|..|--- .... ....|R-- .... ....|R-- .... ....
 A-3|..|C-4 AF.. ....|A-4 .... ....|A-4 .C.. ....
....|..|R-- .... ....|--- .... ....|--- .... ....
....|..|--- .... ....|R-- .... ....|R-- .... ....
....|..|--- .... ....|--- .... ....|--- .... ....
 A-3|..|A-1 2A.. ....|A-4 ...7 ....|A-4 .F.7 ....
 A-3|..|A-1 .A.. ....|--- .... ....|--- .... ....
....|..|--- .... ....|--- .... ....|--- .... ....
....|..|R-- .... ....|--- .... ....|--- .... ....
....|..|C-4 AF.. ....|A-4 ...A ....|A-4 ...A ....
....|..|R-- .... ....|--- .... ....|--- .... ....
....|..|R-- .... ....|--- .... ....|--- .... ....
....|..|--- .... ....|R-- .... ....|R-- .... ....
 A-3|..|A-1 2A.. ....|E-4 ...7 ....|E-4 ...7 ....
 A-3|..|A-1 .A.. ....|--- .... ....|--- .... ....
....|..|R-- .... ....|R-- .... ....|R-- .... ....
....|..|--- .... ....|--- .... ....|--- .... ....
....|..|C-4 AF.. ....|G-4 .... ....|G-4 .... ....
....|..|R-- .... ....|--- .... ....|--- .... ....
....|..|--- .... ....|--- .... ....|--- .... ....
....|..|--- .... ....|--- .... ....|--- .... ....
 A-3|..|A-1 2A.. ....|A-4 .... ....|A-4 .... ....
 A-3|..|A-1 .A.. ....|--- .... ....|--- .... ....
....|..|R-- .... ....|--- .... ....|--- .... ....
....|..|--- .... ....|R-- .... ....|R-- .... ....
....|..|C-4 AF.. ....|A-4 .... ....|A-4 .... ....
....|..|R-- .... ....|--- .... ....|--- .... ....
....|..|R-- .... ....|--- .... ....|--- .... ....
....|..|--- .... ....|--- .... ....|--- .... ....
 A-3|..|A-1 2A.. ....|--- .... ....|--- .... ....
 A-3|..|A-1 .A.. ....|--- .... ....|--- .... ....
....|..|R-- .... ....|--- .... ....|--- .... ....
....|..|--- .... ....|--- .... ....|--- .... ....
....|..|C-4 AF.. ....|E-5 ..FF ....|E-4 ..BF ....
....|..|R-- .... ....|--- .... ....|--- .... ....
....|..|--- .... ....|--- .... ....|--- .... ....
....|..|--- .... ....|--- .... ....|--- .... ....
 C-4|..|C-2 2A.. ....|--- .... ....|--- .... ....
 C-4|..|C-2 .A.. ....|R-- .... ....|R-- .... ....
....|..|R-- .... ....|--- .... ....|R-- .... ....
....|..|--- .... ....|--- .... ....|--- .... ....
....|..|C-4 AF.. ....|C-5 .... ....|C-4 ..2. ....
....|..|R-- .... ....|--- .... ....|--- .... ....
....|..|R-- .... ....|--- .... ....|--- .... ....
....|..|--- .... ....|--- .... ....|--- .... ....
 C-4|..|C-2 2A.. ....|R-- .... ....|R-- .... ....
 C-4|..|C-2 .A.. ....|R-- .... ....|R-- .... ....
....|..|R-- .... ....|--- .... ....|R-- .... ....
....|..|--- .... ....|--- .... ....|--- .... ....

[Pattern11]
....|..|C-4 AF.F ....|A-4 2FFF ....|A-3 2FBF ....
....|..|R-- .... ....|R-- .... ....|--- .... ....
....|..|--- .... ....|--- .... ....|R-- .... ....
....|..|--- .... ....|--- .... ....|--- .... ....
 F-4|..|F-2 2A.. ....|E-4 .F.. ....|E-3 .... ....
 F-4|..|F-2 .A.. ....|--- .... ....|--- .... ....
....|..|R-- .... ....|R-- .... ....|R-- .... ....
....|..|--- .F.. ....|--- .... ....|--- .... ....
....|..|C-4 A... ....|G-4 .... ....|G-3 ..C. ....
....|..|R-- .... ....|--- .... ....|--- .... ....
....|..|R-- .... ....|R-- .... ....|R-- .... ....
....|..|--- .... ....|--- .... ....|--- .... ....
 F-4|..|F-2 2A.. ....|A-4 .... ....|C-4 ..2. ....
 F-4|..|F-2 .A.. ....|R-- .... ....|--- .... ....
....|..|R-- .... ....|--- .... ....|R-- .... ....
....|..|--- .... ....|R-- .... ....|--- .... ....
....|..|C-4 AF.. ....|A-4 .... ....|C-4 .... ....
....|..|R-- .... ....|--- .... ....|--- .... ....
....|..|--- .... ....|R-- .... ....|R-- .... ....
....|..|--- .... ....|--- .... ....|--- .... ....
 C-4|..|C-2 2A.. ....|G-4 ...A ....|G-3 ..CA ....
 C-4|..|C-2 .A.. ....|--- .... ....|R-- .... ....
....|..|R-- .... ....|R-- .... ....|R-- .... ....
....|..|--- .... ....|--- .... ....|R-- .... ....
....|..|C-4 AF.. ....|A-4 ...7 ....|A-3 ..B7 ....
....|..|R-- .... ....|--- .... ....|--- .... ....
....|..|R-- .... ....|--- .... ....|--- .... ....
....|..|--- .... ....|--- .... ....|--- .... ....
 A-3|..|A-1 2A.. ....|A-4 ...A ....|E-3 .... ....
 A-3|..|A-1 .A.. ....|--- .... ....|R-- .... ....
....|..|R-- .... ....|R-- .... ....|R-- .... ....
....|..|--- .... ....|--- .... ....|--- .... ....
....|..|C-4 AF.. ....|G-4 ...7 ....|G-3 ..C. ....
....|..|R-- .... ....|--- .... ....|--- .... ....
....|..|--- .... ....|--- .... ....|R-- .... ....
....|..|--- .... ....|R-- .... ....|R-- .... ....
 A-3|..|A-1 2A.. ....|A-4 .... ....|C-4 ..2. ....
 A-3|..|A-1 .A.. ....|--- .... ....|--- .... ....
....|..|R-- .... ....|--- .... ....|--- .... ....
....|..|--- .... ....|R-- .... ....|R-- .... ....
....|..|C-4 AF.. ....|A-4 .... ....|C-4 .... ....
....|..|R-- .... ....|--- .... ....|--- .... ....
....|..|R-- .... ....|--- .... ....|--- .... ....
....|..|--- .... ....|--- .... ....|--- .... ....
 A-3|..|A-1 2A.. ....|--- .... ....|E-4 .F.A ....
 A-3|..|A-1 .A.. ....|--- .... ....|--- .... ....
....|..|R-- .... ....|--- .... ....|R-- .... ....
....|..|--- .... ....|--- .... ....|--- .... ....
....|..|C-4 AF.. ....|R-- .... ....|R-- .... ....
....|..|R-- .... ....|--- .... ....|--- .... ....
....|..|--- .... ....|--- .... ....|--- .... ....
....|..|--- .... ....|--- .... ....|--- .... ....
 C-4|..|C-2 2A.. ....|--- .... ....|--- .... ....
 C-4|..|C-2 .A.. ....|--- .... ....|--- .... ....
....|..|R-- .... ....|--- .... ....|--- .... ....
....|..|--- .... ....|--- .... ....|--- .... ....
....|..|C-4 AF.. ....|--- .... ....|E-4 ...7 ....
....|..|R-- .... ....|--- .... ....|--- .... ....
....|..|R-- .... ....|--- .... ....|R-- .... ....
....|..|--- .... ....|--- .... ....|--- .... ....
 C-4|..|C-2 2A.. ....|R-- .... ....|--- .... ....
 C-4|..|C-2 .A.. ....|--- .... ....|--- .... ....
....|..|--- .... ....|--- .... ....|--- .... ....
....|..|R-- .... ....|--- .... ....|--- .... ....

[Pattern12]
....|..|C-4 AF.F ....|--- .... ....|--- .... ....
....|..|R-- .... ....|--- .... ....|--- .... ....
....|..|--- .... ....|--- .... ....|--- .... ....
....|..|--- .... ....|--- .... ....|--- .... ....
 G-3|..|G-1 2A.. ....|--- .... ....|--- .... ....
 G-3|..|G-1 .A.. ....|--- .... ....|--- .... ....
....|..|R-- .... ....|--- .... ....|--- .... ....
....|..|--- .... ....|--- .... ....|--- .... ....
....|..|C-4 AF.. ....|--- .... ....|--- .... ....
....|..|R-- .... ....|--- .... ....|--- .... ....
....|..|--- .... ....|--- .... ....|--- .... ....
....|..|R-- .... ....|--- .... ....|--- .... ....
 D-4|..|D-2 2A.. ....|--- .... ....|--- .... ....
 D-4|..|D-2 .A.. ....|--- .... ....|--- .... ....
....|..|R-- .... ....|--- .... ....|--- .... ....
....|..|--- .... ....|--- .... ....|--- .... ....
....|..|C-4 AF.. ....|--- .... ....|--- .... ....
....|..|R-- .... ....|--- .... ....|--- .... ....
....|..|--- .... ....|--- .... ....|--- .... ....
....|..|--- .... ....|--- .... ....|--- .... ....
 C-3|..|A-1 2... ....|C-5 2FFF ....|C-5 2C.F ....
 A-3|..|A-1 .A.. ....|--- .... ....|--- .F.. ....
....|..|--- .... ....|R-- .... ....|R-- .... ....
....|..|R-- .... ....|--- .... ....|--- .... ....
 C-3|..|C-4 AF.. ....|C-5 .... ....|C-5 .C.. ....
....|..|R-- .... ....|--- .... ....|--- .... ....
....|..|R-- .... ....|--- .... 11.1|--- .... ....
....|..|--- .... ....|R-- .... ....|R-- .... ....
 A-3|..|A-2 2C.. ....|A-4 .F.. ....|A-4 .C.. ....
 A-3|..|A-1 .A.. ....|--- .... ....|--- .... ....
....|..|R-- .... ....|--- .... ....|--- .... ....
....|..|--- .... ....|R-- .... ....|R-- .... ....
 C-3|..|C-4 AF.. ....|C-5 .... ....|C-5 .C.. ....
....|..|R-- .... ....|--- .... ....|--- .... ....
....|..|--- .... ....|R-- .... ....|R-- .... ....
....|..|--- .... ....|R-- .... ....|R-- .... ....
 C-3|..|A-1 2... ....|C-5 .... ....|C-5 .C.. ....
 A-3|..|A-1 .A.. ....|--- .... ....|--- .F.. ....
....|..|R-- .... ....|--- .... ....|--- .... ....
....|..|--- .... ....|R-- .... ....|R-- .... ....
....|..|C-4 AF.. ....|A-4 ...A ....|A-4 ...A ....
....|..|R-- .... ....|--- .... ....|--- .... ....
....|..|R-- .... ....|--- .... 11.1|--- .... ....
....|..|--- .... ....|R-- .... ....|R-- .... ....
 A-3|..|A-2 2C.. ....|A-4 ...F ....|A-4 .C.F ....
 A-3|..|A-1 .A.. ....|--- .... ....|--- .... ....
....|..|R-- .... ....|R-- .... ....|R-- .... ....
....|..|--- .... ....|R-- .... ....|R-- .... ....
 C-3|..|C-4 AF.. ....|C-5 ..F. ....|C-5 .C.. ....
....|..|R-- .... ....|--- .... ....|--- .... ....
....|..|--- .... ....|--- .... ....|--- .... ....
....|..|--- .... ....|R-- .... ....|R-- .... ....
 C-3|..|C-3 2C.. ....|C-5 .F.. ....|C-5 .C.. ....
 C-4|..|C-2 .A.. ....|--- .... ....|--- .... ....
....|..|R-- .... ....|R-- .... ....|R-- .... ....
....|..|--- .... ....|R-- .... ....|R-- .... ....
 A-3|..|C-4 AF.. ....|A-4 .... ....|A-4 .C.. ....
....|..|R-- .... ....|--- .... ....|--- .... ....
....|..|R-- .... ....|R-- .... ....|R-- .... ....
....|..|--- .... ....|R-- .... ....|R-- .... ....
 C-3|..|C-3 2C.. ....|C-5 .... ....|C-5 .C.. ....
 C-4|..|C-2 .A.. ....|--- .... ....|--- .... ....
....|..|R-- .... ....|--- .... ....|--- .... ....
....|..|--- .... ....|--- .... ....|--- .... ....

[Pattern13]
....|..|C-4 AF.F ....|C-5 2F.A ....|C-5 2F.A ....
....|..|R-- .... ....|--- .... ....|--- .... ....
....|..|--- .... ....|R-- .... ....|R-- .... ....
....|..|--- .... ....|R-- .... ....|R-- .... ....
 F-4|..|F-2 2A.. ....|A-4 ...7 ....|A-4 ...7 ....
 F-4|..|F-2 .A.. ....|--- .... ....|--- .... ....
....|..|R-- .... ....|R-- .... ....|R-- .... ....
....|..|--- .... ....|--- .... ....|--- .... ....
....|..|C-4 AF.. ....|C-5 .... ....|C-5 .... ....
....|..|R-- .... ....|--- .... ....|--- .... ....
....|..|R-- .... ....|--- .... ....|--- .... ....
....|..|--- .... ....|--- .... ....|--- .... ....
 F-4|..|F-2 2A.. ....|C-5 .... ....|C-5 .... ....
 F-4|..|F-2 .A.. ....|--- .... ....|--- .... ....
....|..|R-- .... ....|R-- .... ....|R-- .... ....
....|..|--- .... ....|--- .... ....|--- .... ....
....|..|C-4 AF.. ....|A-4 .... ....|A-4 .... ....
....|..|R-- .... ....|--- .... ....|--- .... ....
....|..|--- .... ....|R-- .... ....|R-- .... ....
....|..|--- .... ....|--- .... ....|--- .... ....
 C-3|..|A-1 2... ....|C-5 ..FF ....|C-5 .C.F ....
 A-3|..|A-1 .A.. ....|--- .... ....|--- .F.. ....
....|..|R-- .... ....|R-- .... ....|R-- .... ....
....|..|--- .... ....|--- .... ....|--- .... ....
 C-3|..|C-4 AF.. ....|C-5 .... ....|C-5 .C.. ....
....|..|R-- .... ....|--- .... ....|--- .... ....
....|..|R-- .... ....|--- .... ....|--- .... ....
....|..|--- .... ....|--- .... ....|--- .... ....
 A-3|..|A-2 2C.. ....|A-4 .F.. ....|A-4 .C.. ....
 A-3|..|A-1 .A.. ....|--- .... ....|--- .... ....
....|..|R-- .... ....|R-- .... ....|R-- .... ....
....|..|--- .... ....|--- .... ....|--- .... ....
 C-3|..|C-4 AF.. ....|C-5 .... ....|C-5 .C.. ....
....|..|R-- .... ....|--- .... ....|--- .... ....
....|..|--- .... ....|R-- .... ....|R-- .... ....
....|..|--- .... ....|--- .... ....|--- .... ....
 A-3|..|A-2 2C.. ....|A-4 .... ....|A-4 .C.. ....
 A-3|..|A-1 .A.. ....|--- .... ....|--- .... ....
....|..|R-- .... ....|R-- .... ....|R-- .... ....
....|..|--- .... ....|--- .... ....|--- .... ....
 C-3|..|C-4 AF.. ....|C-5 .... ....|C-5 .C.. ....
....|..|R-- .... ....|--- .... ....|--- .... ....
....|..|R-- .... ....|R-- .... ....|R-- .... ....
....|..|--- .... ....|R-- .... ....|R-- .... ....
 A-3|..|A-2 2C.. ....|A-4 .... ....|A-4 .C.. ....
 A-3|..|A-1 .A.. ....|--- .... ....|--- .... ....
....|..|R-- .... ....|R-- .... ....|R-- .... ....
....|..|--- .... ....|--- .... ....|--- .... ....
 C-3|..|C-4 AF.. ....|C-5 ..F. ....|C-5 .C.. ....
....|..|R-- .... ....|--- .... ....|--- .... ....
....|..|--- .... ....|R-- .... ....|R-- .... ....
....|..|--- .... ....|R-- .... ....|R-- .... ....
 A-3|..|C-2 2... ....|A-4 .F.. ....|A-4 .C.. ....
 C-4|..|C-2 .A.. ....|--- .... ....|--- .F.. ....
....|..|R-- .... ....|R-- .... ....|R-- .... ....
....|..|--- .... ....|R-- .... ....|R-- .... ....
 A-3|..|C-4 AF.. ....|A-4 .... ....|A-4 .C.. ....
....|..|R-- .... ....|--- .... ....|--- .... ....
....|..|R-- .... ....|R-- .... ....|R-- .... ....
....|..|--- .... ....|R-- .... ....|R-- .... ....
 A-3|..|C-2 2... ....|A-4 ..F. ....|A-4 .C.. ....
 C-4|..|C-2 .A.. ....|--- .... ....|--- .F.. ....
....|..|--- .... ....|R-- .... ....|R-- .... ....
....|..|R-- .... ....|R-- .... ....|R-- .... ....

[Pattern14]
 G-4|..|C-4 AF.F ....|G-4 2FFF ....|G-4 2C.F ....
....|..|R-- .... ....|--- .... ....|--- .... ....
....|..|--- .... ....|--- .... ....|--- .... ....
....|..|--- .... ....|R-- .... ....|R-- .... ....
 E-4|..|G-1 2... ....|E-4 ..E. ....|E-4 .C.. ....
 G-3|..|G-1 .A.. ....|--- .... ....|--- .F.. ....
....|..|R-- .... ....|R-- .... ....|R-- .... ....
....|..|--- .... ....|R-- .... ....|R-- .... ....
 G-4|..|C-4 AF.. ....|G-4 .... ....|G-4 .C.. ....
....|..|R-- .... ....|--- .... ....|--- .... ....
....|..|--- .... ....|--- .... ....|--- .... ....
....|..|R-- .... ....|R-- .... ....|R-- .... ....
 A-3|..|G-1 2... ....|A-4 .... ....|A-4 .C.. ....
 G-3|..|G-1 .A.. ....|--- .... ....|--- .F.. ....
....|..|R-- .... ....|--- .... ....|--- .... ....
....|..|--- .... ....|R-- .... ....|R-- .... ....
 A-3|..|C-4 AF.. ....|A-4 .... ....|A-4 .C.. ....
....|..|R-- .... ....|--- .... ....|--- .... ....
....|..|--- .... ....|R-- .... ....|R-- .... ....
....|..|--- .... ....|R-- .... ....|R-- .... ....
 A-3|..|A-1 2A.. ....|A-4 .F.7 ....|A-4 .F.7 ....
 A-3|..|A-1 .A.. ....|--- .... ....|--- .... ....
....|..|--- .... ....|--- .... ....|--- .... ....
....|..|R-- .... ....|--- .... ....|--- .... ....
....|..|C-4 AF.. ....|G-4 .... ....|G-4 .... ....
....|..|R-- .... ....|--- .... ....|--- .... ....
....|..|R-- .... ....|--- .... ....|--- .... ....
....|..|--- .... ....|R-- .... ....|R-- .... ....
 A-3|..|A-1 2A.. ....|E-4 .... ....|E-4 .... ....
 A-3|..|A-1 .A.. ....|--- .... ....|--- .... ....
....|..|R-- .... ....|R-- .... ....|R-- .... ....
....|..|--- .... ....|--- .... ....|--- .... ....
....|..|C-4 AF.. ....|G-4 .... ....|G-4 .... ....
....|..|R-- .... ....|--- .... ....|--- .... ....
....|..|--- .... ....|--- .... ....|--- .... ....
....|..|--- .... ....|--- .... ....|--- .... ....
 A-3|..|A-1 2A.. ....|A-4 .... ....|A-4 .... ....
 A-3|..|A-1 .A.. ....|--- .... ....|--- .... ....
....|..|R-- .... ....|--- .... ....|--- .... ....
....|..|--- .... ....|R-- .... ....|R-- .... ....
....|..|C-4 AF.. ....|A-4 .... ....|A-4 .... ....
....|..|R-- .... ....|--- .... ....|--- .... ....
....|..|R-- .... ....|--- .... ....|--- .... ....
....|..|--- .... ....|--- .... ....|--- .... ....
 A-3|..|A-1 2A.. ....|--- .... ....|--- .... ....
 A-3|..|A-1 .A.. ....|--- .... ....|--- .... ....
....|..|R-- .... ....|--- .... ....|--- .... ....
....|..|--- .... ....|--- .... ....|--- .... ....
 E-4|..|C-4 AF.. ....|E-5 ..FF ....|E-5 .C.F ....
....|..|R-- .... ....|--- .... ....|--- .... ....
....|..|--- .... ....|--- .... ....|--- .... ....
....|..|--- .... ....|--- .... 11.1|--- .... ....
 C-4|..|C-2 2A.. ....|--- .... ....|--- .F.. ....
 C-4|..|C-2 .A.. ....|R-- .... ....|R-- .... ....
....|..|R-- .... ....|--- .... ....|--- .... ....
....|..|--- .... ....|--- .... ....|--- .... ....
 C-3|..|C-4 AF.. ....|C-5 .... ....|C-5 .C.. ....
....|..|R-- .... ....|--- .... ....|--- .... ....
....|..|R-- .... ....|--- .... 11.1|--- .... ....
....|..|--- .... ....|--- .... ....|--- .... ....
 C-4|..|C-2 2A.. ....|R-- .... ....|R-- .... ....
 C-4|..|C-2 .A.. ....|R-- .... ....|R-- .... ....
....|..|R-- .... ....|--- .... ....|--- .... ....
....|..|--- .... ....|--- .... ....|--- .... ....

[Pattern15]
 A-3|..|C-4 AF.F ....|A-4 2FFF ....|A-4 2C.F ....
....|..|R-- .... ....|--- .... ....|R-- .... ....
....|..|--- .... ....|--- .... 11.1|--- .... ....
....|..|--- .... ....|R-- .... ....|--- .... ....
 F-4|..|F-2 2A.. ....|E-4 .F.. ....|C-5 .F.A ....
 F-4|..|F-2 .A.. ....|--- .... ....|--- .... ....
....|..|R-- .... ....|R-- .... ....|R-- .... ....
....|..|--- .F.. ....|--- .... ....|--- .... ....
....|..|C-4 A... ....|G-4 .... ....|E-5 ...7 ....
....|..|R-- .... ....|--- .... ....|--- .... ....
....|..|R-- .... ....|R-- .... ....|R-- .... ....
....|..|--- .... ....|--- .... ....|--- .... ....
 A-3|..|F-2 2... ....|A-4 .... ....|A-4 .C.F ....
 F-4|..|F-2 .A.. ....|--- .... ....|--- .... ....
....|..|R-- .... ....|R-- .... ....|R-- .... ....
....|..|--- .... ....|--- .... ....|--- .... ....
....|..|C-4 AF.. ....|A-4 .... ....|E-4 .FB. ....
....|..|R-- .... ....|--- .... ....|--- .... ....
....|..|--- .... ....|R-- .... ....|R-- .... ....
....|..|--- .... ....|--- .... ....|--- .... ....
 C-4|..|C-2 2A.. ....|G-4 ...A ....|G-4 .F.A ....
 C-4|..|C-2 .A.. ....|--- .... ....|--- .... ....
....|..|R-- .... ....|R-- .... ....|R-- .... ....
....|..|--- .... ....|--- .... ....|R-- .... ....
....|..|C-4 AF.. ....|A-4 ...7 ....|C-4 ..2F ....
....|..|R-- .... ....|--- .... ....|--- .... ....
....|..|R-- .... ....|--- .... ....|--- .... ....
....|..|--- .... ....|--- .... ....|--- .... ....
 A-3|..|A-1 2A.. ....|A-4 ...A ....|E-4 ..BA ....
 A-3|..|A-1 .A.. ....|--- .... ....|--- .... ....
....|..|R-- .... ....|R-- .... ....|R-- .... ....
....|..|--- .... ....|--- .... ....|--- .... ....
....|..|C-4 AF.. ....|G-4 ...7 ....|A-3 ...F ....
....|..|R-- .... ....|--- .... ....|--- .... ....
....|..|--- .... ....|--- .... ....|R-- .... ....
....|..|--- .... ....|--- .... ....|R-- .... ....
 A-3|..|A-1 2A.. ....|A-4 .... ....|A-4 ..3. ....
 A-3|..|A-1 .A.. ....|--- .... ....|A-4 .F.. ....
....|..|R-- .... ....|R-- .... ....|R-- .... ....
....|..|--- .... ....|--- .... ....|R-- .... ....
....|..|C-4 AF.. ....|A-4 .... ....|A-4 ..3. ....
....|..|R-- .... ....|--- .... ....|A-4 .F.. ....
....|..|R-- .... ....|--- .... ....|R-- .... ....
....|..|--- .... ....|--- .... ....|--- .... ....
 A-3|..|A-1 2A.. ....|--- .... ....|A-4 ..3. ....
 A-3|..|A-1 .A.. ....|--- .... ....|A-4 .F.. ....
....|..|R-- .... ....|--- .... ....|R-- .... ....
....|..|--- .... ....|--- .... ....|--- .... ....
....|..|C-4 AF.. ....|R-- .... ....|A-4 ..3. ....
....|..|R-- .... ....|--- .... ....|A-4 ..4. ....
....|..|--- .... ....|--- .... ....|R-- .... ....
....|..|--- .... ....|--- .... ....|--- .... ....
 C-4|..|C-2 2A.. ....|--- .... ....|A-4 ..3. ....
 C-4|..|C-2 .A.. ....|--- .... ....|A-4 ..4. ....
....|..|R-- .... ....|--- .... ....|R-- .... ....
....|..|--- .... ....|--- .... ....|--- .... ....
....|..|C-4 AF.. ....|--- .... ....|A-4 ..3. ....
....|..|R-- .... ....|--- .... ....|A-4 ..4. ....
....|..|R-- .... ....|--- .... ....|R-- .... ....
....|..|--- .... ....|--- .... ....|R-- .... ....
 C-4|..|C-2 2A.. ....|R-- .... ....|A-4 ..3. ....
 C-4|..|C-2 .A.. ....|--- .... ....|A-4 .F.7 ....
....|..|--- .... ....|--- .... ....|R-- .... ....
....|..|R-- .... ....|--- .... ....|R-- .... ....

[Pattern16]
....|..|C-4 AF.F ....|--- .... ....|A-4 2F37 ....
....|..|R-- .... ....|--- .... ....|A-4 .F.. ....
....|..|--- .... ....|--- .... ....|R-- .... ....
....|..|--- .... ....|--- .... ....|--- .... ....
 G-3|..|G-1 2A.. ....|--- .... ....|A-4 ..3. ....
 G-3|..|G-1 .A.. ....|--- .... ....|A-4 .F.. ....
....|..|R-- .... ....|--- .... ....|R-- .... ....
....|..|--- .... ....|--- .... ....|R-- .... ....
....|..|C-4 AF.. ....|--- .... ....|A-4 ..3. ....
....|..|R-- .... ....|--- .... ....|A-4 ..4. ....
....|..|--- .... ....|--- .... ....|R-- .... ....
....|..|R-- .... ....|--- .... ....|R-- .... ....
 D-4|..|D-2 2A.. ....|--- .... ....|A-4 ..3. ....
 D-4|..|D-2 .A.. ....|--- .... ....|A-4 ..4. ....
....|..|R-- .... ....|--- .... ....|R-- .... ....
....|..|--- .... ....|--- .... ....|--- .... ....
....|..|C-4 AF.. ....|--- .... ....|A-3 ..3F ....
....|..|R-- .... ....|--- .... ....|A-4 ..47 ....
....|..|--- .... ....|--- .... ....|R-- .... ....
....|..|--- .... ....|--- .... ....|R-- .... ....
....|..|B-8 J... ....|--- .... ....|A-3 ..3F ....
 A-3|..|A-1 2A.. ....|--- .... ....|--- .... ....
 G-4|..|R-- .... ....|G-4 2F.F ....|G-4 .C.. ....
....|..|R-- .... ....|--- .... 11.1|R-- .... ....
....|..|C-4 AF.. ....|G-4 .... ....|A-3 .F3. ....
....|..|R-- .... ....|R-- .... ....|R-- .... ....
 G-4|..|R-- .... ....|G-4 .... ....|G-4 .C.. ....
....|..|--- .... ....|R-- .... ....|R-- .... ....
....|..|B-8 J... ....|G-4 .... ....|A-3 .F3. ....
 C-4|..|C-2 2A.. ....|--- .... ....|--- .... ....
 F-4|..|R-- .... ....|F-4 .... ....|F-4 .C.. ....
....|..|--- .... ....|--- .... ....|--- .... ....
....|..|C-4 AF.. ....|--- .... 11.1|A-3 .F3. ....
 E-4|..|E-2 2A.. ....|R-- .... ....|--- .... ....
....|..|R-- .... ....|G-4 ...A ....|R-- .... ....
 E-4|..|--- .... ....|E-4 ...F ....|E-4 .C.. ....
....|..|B-8 JF.. ....|G-4 ...A ....|A-3 .F3. ....
 E-4|..|E-2 2A.. ....|--- .... ....|R-- .... ....
....|..|R-- .... ....|R-- .... ....|R-- .... ....
....|..|--- .... ....|R-- .... ....|R-- .... ....
....|..|C-4 AF.. ....|G-4 .... ....|A-3 .... ....
 F-4|..|F-2 2A.. ....|--- .... ....|--- .... ....
....|..|R-- .... ....|F-4 .... ....|R-- .... ....
....|..|--- .... ....|--- .... ....|--- .... ....
....|..|B-8 JF.. ....|R-- .... ....|A-3 .... ....
 F-4|..|F-2 2A.. ....|--- .... ....|--- .... ....
....|..|R-- .... ....|G-4 ...7 ....|G-4 .F.7 ....
....|..|--- .... ....|E-4 ...A ....|E-4 ...A ....
....|..|C-4 AF.. ....|G-4 ...7 ....|A-3 ..3F ....
....|..|R-- .... ....|R-- .... ....|R-- .... ....
....|..|R-- .... ....|G-4 .... ....|G-4 .F.7 ....
....|..|--- .... ....|R-- .... ....|R-- .... ....
....|..|B-8 J... ....|G-4 ...F ....|A-3 ..3F ....
 A-3|..|A-1 2A.. ....|R-- .... ....|R-- .... ....
 G-4|..|R-- .... ....|G-4 .... ....|G-4 .C.. ....
....|..|--- .... ....|--- .... 11.1|--- .... ....
....|..|C-4 AF.. ....|G-4 .... ....|A-3 .F3. ....
 C-4|..|C-2 2A.. ....|R-- .... ....|R-- .... ....
 G-4|..|R-- .... ....|G-4 .... ....|G-4 .C.. ....
....|..|--- .... ....|E-4 ...7 ....|E-4 .F.7 ....
....|..|B-8 JF.. ....|G-4 ...F ....|A-3 ..3F ....
 C-4|..|C-2 2A.. ....|--- .... 11.1|--- .... ....
 F-4|..|R-- .... ....|F-4 .... ....|F-4 .C.. ....
....|..|--- .... ....|--- .... ....|--- .... ....

[Pattern17]
....|..|C-4 AF.F ....|--- .... 11.1|A-3 2F3F ....
 E-4|..|E-2 2A.. ....|--- .... ....|R-- .... ....
....|..|R-- .... ....|G-4 2F.A ....|R-- .... ....
 E-4|..|--- .... ....|--- .... ....|E-4 .C.. ....
....|..|B-8 JF.. ....|E-4 ...F ....|A-3 .F3. ....
 E-4|..|E-2 2A.. ....|--- .... ....|R-- .... ....
....|..|R-- .... ....|R-- .... ....|R-- .... ....
....|..|--- .... ....|--- .... ....|R-- .... ....
....|..|C-4 AF.. ....|G-4 ...A ....|A-3 .... ....
 F-4|..|F-2 2A.. ....|--- .... 11.1|--- .... ....
....|..|R-- .... ....|F-4 .... ....|R-- .... ....
....|..|--- .... ....|--- .... ....|--- .... ....
....|..|B-8 JF.. ....|G-4 ...7 ....|A-3 .... ....
 F-4|..|F-2 2A.. ....|R-- .... ....|R-- .... ....
....|..|R-- .... ....|G-4 .... ....|G-4 .F.7 ....
....|..|--- .... ....|E-4 ...A ....|E-4 ...A ....
....|..|C-4 AF.. ....|G-4 ...7 ....|A-3 ..3F ....
....|..|C-2 2..7 ....|R-- .... ....|R-- .... ....
....|..|R-- .... ....|G-4 .... ....|G-4 .F.7 ....
....|..|--- .... ....|R-- .... ....|R-- .... ....
....|..|B-8 J..F ....|A-4 ...F ....|A-3 ..3F ....
 A-3|..|A-1 2A.. ....|R-- .... ....|R-- .... ....
....|..|R-- .... ....|F-4 ...7 ....|F-4 .F.7 ....
....|..|--- .... ....|--- .... ....|--- .... ....
....|..|C-4 AF.. ....|A-4 ...F ....|A-3 ..3F ....
....|..|E-2 2..7 ....|--- .... 11.1|--- .... ....
....|..|R-- .... ....|--- .... ....|R-- .... ....
....|..|--- .... ....|E-4 ...7 ....|E-4 .F.7 ....
....|..|B-8 J..F ....|G-4 ...F ....|A-3 ..3F ....
 C-4|..|C-2 2A.. ....|--- .... ....|--- .... ....
....|..|R-- .... ....|R-- .... ....|R-- .... ....
....|..|--- .... ....|--- .... ....|--- .... ....
....|..|C-4 AF.. ....|A-4 .... ....|A-3 .... ....
 E-4|..|E-2 2A.. ....|R-- .... ....|R-- .... ....
....|..|R-- .... ....|--- .... ....|R-- .... ....
....|..|--- .... ....|--- .... ....|--- .... ....
....|..|B-8 JF.. ....|A-4 ...A ....|A-3 .... ....
 E-4|..|E-2 2A.. ....|--- .... ....|--- .... ....
....|..|R-- .... ....|R-- .... ....|R-- .... ....
....|..|--- .... ....|--- .... ....|--- .... ....
....|..|C-4 AF.. ....|G-4 .... ....|A-3 .... ....
 F-4|..|F-2 2A.. ....|--- .... ....|--- .... ....
....|..|R-- .... ....|R-- .... ....|R-- .... ....
 G-4|..|--- .F.. ....|--- .... ....|G-4 .C.. ....
....|..|B-8 J... ....|G-4 ...F ....|A-3 .F3. ....
 F-4|..|F-2 2A.. ....|--- .... ....|R-- .... ....
....|..|R-- .... ....|--- .... 21.1|R-- .... ....
....|..|--- .... ....|--- .... ....|--- .... ....
....|..|C-4 AF.. ....|A-4 ..F. ....|A-3 .... ....
....|..|R-- .... ....|--- .... ....|--- .... ....
....|..|R-- .... ....|R-- .... ....|R-- .... ....
....|..|--- .... ....|--- .... ....|--- .... ....
....|..|B-8 J... ....|G-4 .F.7 ....|A-3 .... ....
 G-4|..|G-2 2A.. ....|--- .... ....|--- .... ....
....|..|R-- .... ....|R-- .... ....|R-- .... ....
....|..|--- .... ....|R-- .... ....|R-- .... ....
....|..|C-4 AF.. ....|G-4 ...F ....|A-3 .... ....
....|..|E-2 2..7 ....|--- .... ....|R-- .... ....
....|..|R-- .... ....|R-- .... ....|R-- .... ....
....|..|--- .... ....|--- .... ....|--- .... ....
....|..|B-8 J..F ....|A-3 .... ....|A-3 .... ....
 A-3|..|G-2 2... ....|--- .... ....|A-3 .C.. ....
....|..|R-- .... ....|--- .... 11.1|R-- .... ....
....|..|--- .... ....|--- .... ....|--- .... ....

[Pattern18]
....|..|C-4 AF.F ....|--- .... ....|A-3 2F3F ....
....|..|F-2 2..7 ....|--- .... ....|--- .... ....
....|..|R-- .... ....|--- .... ....|R-- .... ....
....|..|--- .... ....|G-4 2F.7 ....|G-4 .F.7 ....
....|..|B-8 J..F ....|G-4 ...A ....|A-3 ..3F ....
 G-4|..|G-2 2A.. ....|R-- .... ....|R-- .... ....
....|..|R-- .... ....|--- .... ....|R-- .... ....
....|..|--- .... ....|--- .... ....|--- .... ....
....|..|C-4 AF.7 ....|A-4 ...7 ....|A-3 .... ....
....|..|R-- .... ....|A-3 ...A ....|A-3 .F.A ....
....|..|R-- .... ....|--- .... ....|R-- .... ....
....|..|--- .... ....|--- .... ....|--- .... ....
 G-4|..|G-2 2A.F ....|--- .... 11.1|A-3 ..3F ....
....|..|G-2 .F.7 ....|--- .... ....|--- .... ....
....|..|--- .... ....|--- .... ....|R-- .... ....
....|..|R-- .... ....|R-- .... ....|R-- .... ....
....|..|C-4 A..F ....|G-4 ...7 ....|F-4 ..1. ....
 F-3|..|F-1 2A.. ....|R-- .... ....|R-- .... ....
 F-4|..|F-2 .A.. ....|--- .... ....|R-- .... ....
....|..|R-- .... ....|--- .... ....|--- .... ....
....|..|B-8 JF.. ....|A-5 ..EF ....|F-4 .... ....
 F-3|..|F-1 2A.. ....|--- .... ....|A-3 .F.7 ....
 F-4|..|F-2 .A.. ....|R-- .... ....|R-- .... ....
....|..|--- .... ....|--- .... ....|--- .... ....
....|..|C-4 AF.. ....|A-5 .... ....|F-4 ..1F ....
....|..|R-- .... ....|--- .... ....|R-- .... ....
....|..|R-- .... ....|--- .... 11.1|R-- .... ....
....|..|R-- .... ....|R-- .... ....|R-- .... ....
....|..|B-8 J... ....|A-5 .F.. ....|F-4 .... ....
 F-3|..|F-1 2A.. ....|R-- .... ....|R-- .... ....
 F-4|..|F-2 .A.. ....|R-- .... ....|R-- .... ....
....|..|R-- .... ....|--- .... ....|--- .... ....
....|..|C-4 AF.. ....|A-5 .... ....|A-3 ..A. ....
....|..|R-- .... ....|--- .... ....|R-- .... ....
....|..|R-- .... ....|R-- .... ....|R-- .... ....
....|..|--- .... ....|--- .... ....|R-- .... ....
....|..|B-8 J... ....|A-5 .... ....|F-4 ..1. ....
 F-3|..|F-1 2A.. ....|--- .... ....|R-- .... ....
 F-4|..|F-2 .A.. ....|--- .... 11.1|R-- .... ....
....|..|R-- .... ....|R-- .... ....|R-- .... ....
....|..|C-4 AF.. ....|A-5 ...A ....|F-4 ...7 ....
....|..|F-1 2..7 ....|--- .... ....|R-- .... ....
....|..|F-2 .... ....|R-- .... ....|R-- .... ....
....|..|R-- .... ....|--- .... ....|R-- .... ....
....|..|B-8 J..F ....|G-5 ..EF ....|F-4 ...F ....
 F-3|..|F-1 2A.. ....|--- .... ....|R-- .... ....
 F-4|..|F-2 .A.. ....|R-- .... ....|R-- .... ....
....|..|R-- .... ....|R-- .... ....|R-- .... ....
....|..|C-4 AF.. ....|G-5 .... ....|G-4 .... ....
 G-3|..|G-1 2A.. ....|--- .... ....|G-5 .F.. ....
 G-4|..|G-2 .A.. ....|--- .... 11.1|R-- .... ....
....|..|--- .... ....|R-- .... ....|R-- .... ....
....|..|B-8 JF.. ....|G-5 .F.. ....|G-4 ..1. ....
 G-3|..|G-1 2A.. ....|--- .... ....|G-5 .F.. ....
 G-4|..|G-2 .A.. ....|R-- .... ....|R-- .... ....
....|..|R-- .... ....|--- .... ....|R-- .... ....
....|..|C-4 AF.. ....|G-5 .... ....|G-4 ..1. ....
....|..|R-- .... ....|--- .... ....|G-4 ..2. ....
....|..|R-- .... ....|--- .... ....|R-- .... ....
....|..|R-- .... ....|R-- .... ....|R-- .... ....
....|..|B-8 J... ....|D-5 .... ....|G-4 ..1. ....
 G-3|..|G-1 2A.. ....|--- .... 11.1|G-5 .F.A ....
 G-4|..|G-2 .A.. ....|--- .... ....|R-- .... ....
....|..|--- .... ....|R-- .... ....|R-- .... ....

[Pattern19]
....|..|C-4 AF.F ....|G-5 2F.A ....|G-4 2F1A ....
....|..|R-- .... ....|--- .... ....|G-5 .F.. ....
....|..|R-- .... ....|R-- .... ....|R-- .... ....
....|..|--- .... ....|--- .... ....|R-- .... ....
....|..|B-8 J... ....|D-5 ..FF ....|G-4 ..1F ....
 G-3|..|G-1 2A.. ....|--- .... ....|G-4 ..2A ....
 G-4|..|G-2 .A.. ....|--- .... 11.1|R-- .... ....
....|..|R-- .... ....|R-- .... ....|R-- .... ....
....|..|C-4 AF.. ....|G-5 .F.7 ....|G-4 ..1F ....
....|..|G-1 2..7 ....|--- .... ....|G-5 .F.7 ....
....|..|G-2 .... ....|R-- .... ....|R-- .... ....
....|..|--- .... ....|R-- .... ....|R-- .... ....
....|..|B-8 J..F ....|E-5 ..FF ....|G-4 ..1F ....
 G-3|..|G-1 2A.. ....|--- .... ....|G-5 .F.7 ....
 G-4|..|G-2 .A.. ....|R-- .... ....|R-- .... ....
....|..|R-- .... ....|--- .... ....|--- .... ....
....|..|C-4 AF.. ....|G-5 .F.7 ....|A-4 ..3F ....
 A-3|..|A-1 2A.. ....|--- .... ....|G-4 ..27 ....
 A-3|..|A-2 .C.. ....|R-- .... ....|R-- .... ....
....|..|R-- .... ....|--- .... ....|--- .... ....
....|..|B-8 JF.. ....|E-5 ...F ....|A-4 ..3F ....
 A-3|..|A-1 2A.. ....|--- .... 11.1|R-- .... ....
 A-3|..|A-2 .C.. ....|R-- .... ....|R-- .... ....
....|..|--- .... ....|--- .... ....|--- .... ....
....|..|C-4 AF.. ....|E-5 ..F. ....|A-4 .... ....
....|..|R-- .... ....|--- .... ....|R-- .... ....
....|..|R-- .... ....|R-- .... ....|R-- .... ....
....|..|R-- .... ....|R-- .... ....|R-- .... ....
....|..|B-8 J... ....|E-5 .F.. ....|A-4 .... ....
 A-3|..|A-1 2A.. ....|R-- .... ....|R-- .... ....
 A-3|..|A-2 .C.. ....|R-- .... ....|R-- .... ....
....|..|R-- .... ....|--- .... ....|--- .... ....
 G-4|..|C-4 AF.. ....|G-5 ..F. ....|G-5 .C.. ....
....|..|R-- .... ....|--- .... ....|R-- .... ....
....|..|R-- .... ....|R-- .... ....|R-- .... ....
....|..|--- .... ....|--- .... ....|--- .... ....
....|..|B-8 J... ....|E-5 .F.7 ....|A-4 .F3. ....
 A-3|..|A-1 2A.. ....|--- .... ....|A-5 .F.. ....
 A-3|..|A-2 .C.. ....|--- .... ....|R-- .... ....
....|..|R-- .... ....|R-- .... ....|R-- .... ....
....|..|C-4 AF.. ....|D-5 ...F ....|A-4 ..3. ....
....|..|A-1 2..7 ....|R-- .... ....|A-5 .F.. ....
....|..|A-2 .... ....|R-- .... ....|R-- .... ....
....|..|R-- .... ....|--- .... ....|--- .... ....
....|..|B-8 J..F ....|E-5 ..F. ....|A-4 ..3. ....
 A-3|..|A-1 2A.. ....|--- .... ....|A-5 .F.. ....
 D-4|..|A-2 .F.. ....|D-5 .... ....|D-5 .C.. ....
....|..|--- .... ....|--- .... ....|--- .... ....
....|..|C-4 A... ....|C-5 .... ....|A-4 .F3. ....
 C-4|..|C-2 2A.. ....|--- .... ....|A-4 ..4. ....
 C-4|..|C-3 .C.. ....|--- .... ....|R-- .... ....
....|..|R-- .... ....|R-- .... ....|R-- .... ....
....|..|B-8 JF.. ....|E-5 .F.7 ....|A-4 ..3. ....
 C-4|..|C-2 2A.. ....|R-- .... ....|A-4 ..4. ....
 C-4|..|C-3 .C.. ....|--- .... ....|R-- .... ....
....|..|R-- .... ....|--- .... ....|--- .... ....
....|..|C-4 AF.. ....|G-5 ..F. ....|A-4 ..3. ....
....|..|R-- .... ....|--- .... ....|A-4 ..4. ....
....|..|R-- .... ....|D-5 ...A ....|R-- .... ....
....|..|--- .... ....|--- .... ....|--- .... ....
....|..|B-8 J... ....|C-5 .... ....|A-4 ..3. ....
 C-4|..|C-2 2A.. ....|--- .... ....|A-5 .F.7 ....
 C-4|..|C-3 .C.. ....|R-- .... ....|R-- .... ....
....|..|R-- .... ....|R-- .... ....|R-- .... ....

[Pattern20]
....|..|C-4 AF.F ....|D-5 2F.7 ....|C-4 2FAF ....
....|..|R-- .... ....|--- .... ....|A-5 .F.7 ....
....|..|R-- .... ....|--- .... ....|R-- .... ....
....|..|--- .... ....|--- .... ....|--- .... ....
....|..|B-8 J... ....|E-5 .... ....|E-5 ..5F ....
 C-4|..|C-2 2A.. ....|--- .... ....|A-5 .F.7 ....
 C-4|..|C-3 .C.. ....|D-5 .... ....|D-5 .... ....
....|..|--- .... ....|--- .... ....|--- .... ....
....|..|C-4 AF.. ....|C-5 ...A ....|E-5 ..5F ....
....|..|C-2 2..7 ....|--- .... ....|A-4 ..47 ....
....|..|C-3 .... ....|--- .... ....|R-- .... ....
....|..|R-- .... ....|--- .... ....|--- .... ....
....|..|B-8 J..F ....|--- .... 11.1|E-5 ..5F ....
 C-4|..|C-2 2A.. ....|--- .... ....|A-4 ..47 ....
 C-4|..|C-3 .C.. ....|--- .... ....|R-- .... ....
....|..|--- .... ....|--- .... ....|R-- .... ....
....|..|C-4 AF.. ....|R-- .... ....|F-4 ..1F ....
 F-3|..|F-1 2A.. ....|--- .... ....|A-4 ..47 ....
 F-4|..|F-2 .A.. ....|--- .... ....|R-- .... ....
....|..|R-- .... ....|--- .... ....|--- .... ....
....|..|B-8 JF.. ....|A-5 ..FF ....|F-4 ..1F ....
 F-3|..|F-1 2A.. ....|--- .... ....|R-- .... ....
 F-4|..|F-2 .A.. ....|R-- .... ....|R-- .... ....
....|..|--- .... ....|--- .... ....|--- .... ....
....|..|C-4 AF.. ....|A-5 .... ....|F-4 .... ....
....|..|R-- .... ....|--- .... ....|R-- .... ....
....|..|R-- .... ....|--- .... 11.1|R-- .... ....
....|..|--- .... ....|R-- .... ....|R-- .... ....
....|..|B-8 J... ....|A-5 .F.. ....|F-4 .... ....
 F-3|..|F-1 2A.. ....|--- .... ....|R-- .... ....
 F-4|..|F-2 .A.. ....|R-- .... ....|R-- .... ....
....|..|R-- .... ....|--- .... ....|--- .... ....
....|..|C-4 AF.. ....|A-5 ..F. ....|A-3 ..A. ....
....|..|R-- .... ....|--- .... ....|R-- .... ....
....|..|R-- .... ....|R-- .... ....|R-- .... ....
....|..|--- .... ....|--- .... ....|R-- .... ....
....|..|B-8 J... ....|A-5 .F.. ....|F-4 ..1. ....
 F-3|..|F-1 2A.. ....|--- .... ....|R-- .... ....
 F-4|..|F-2 .A.. ....|--- .... 11.1|--- .... ....
....|..|--- .... ....|R-- .... ....|R-- .... ....
 A-3|..|C-4 AF.. ....|A-5 .... ....|A-5 .C.. ....
....|..|F-1 2..7 ....|--- .... ....|R-- .... ....
....|..|F-2 .... ....|R-- .... ....|R-- .... ....
....|..|R-- .... ....|R-- .... ....|R-- .... ....
....|..|B-8 J..F ....|G-5 .... ....|F-4 .F1. ....
 F-3|..|F-1 2A.. ....|--- .... 11.1|R-- .... ....
 F-4|..|F-2 .A.. ....|R-- .... ....|R-- .... ....
....|..|R-- .... ....|R-- .... ....|R-- .... ....
....|..|C-4 AF.. ....|G-5 .... ....|G-4 .... ....
 G-3|..|G-1 2A.. ....|--- .... ....|G-5 .F.. ....
 G-4|..|G-2 .A.. ....|--- .... 11.1|R-- .... ....
....|..|--- .... ....|R-- .... ....|R-- .... ....
....|..|B-8 JF.. ....|G-5 .... ....|G-4 ..1. ....
 G-3|..|G-1 2A.. ....|--- .... ....|G-5 .F.. ....
 G-4|..|G-2 .A.. ....|R-- .... ....|R-- .... ....
....|..|R-- .... ....|R-- .... ....|R-- .... ....
....|..|C-4 AF.. ....|G-5 .... ....|G-4 ..1. ....
....|..|R-- .... ....|--- .... ....|G-4 ..2. ....
....|..|R-- .... ....|--- .... ....|R-- .... ....
....|..|R-- .... ....|R-- .... ....|R-- .... ....
....|..|B-8 J... ....|D-5 .... ....|G-4 ..1. ....
 G-3|..|G-1 2A.. ....|--- .... ....|G-5 .F.A ....
 G-4|..|G-2 .A.. ....|--- .... 11.1|R-- .... ....
....|..|--- .... ....|R-- .... ....|R-- .... ....

[Pattern21]
....|..|C-4 AF.F ....|A-5 2F.7 ....|A-5 2F.7 ....
....|..|R-- .... ....|--- .... ....|G-5 ...A ....
....|..|R-- .... ....|R-- .... ....|R-- .... ....
....|..|--- .... ....|R-- .... ....|R-- .... ....
....|..|B-8 J... ....|D-5 ...F ....|G-4 ..1F ....
 G-3|..|G-1 2A.. ....|--- .... ....|G-4 ..2A ....
 G-4|..|G-2 .A.. ....|--- .... ....|R-- .... ....
....|..|R-- .... ....|R-- .... ....|R-- .... ....
....|..|C-4 AF.. ....|G-5 ...7 ....|G-4 ..1F ....
....|..|G-1 2..7 ....|--- .... ....|G-5 .F.7 ....
....|..|G-2 .... ....|R-- .... ....|R-- .... ....
....|..|--- .... ....|R-- .... ....|R-- .... ....
....|..|B-8 J..F ....|E-5 ...F ....|G-4 ..1F ....
 G-3|..|G-1 2A.. ....|--- .... ....|G-5 .F.7 ....
 G-4|..|G-2 .A.. ....|--- .... 11.1|R-- .... ....
....|..|R-- .... ....|--- .... ....|--- .... ....
....|..|C-4 AF.. ....|G-5 ...7 ....|G#4 ..6F ....
 G#3|..|G#1 2A.. ....|--- .... ....|G-4 ..27 ....
 G#4|..|G#2 .A.. ....|R-- .... ....|R-- .... ....
....|..|R-- .... ....|--- .... ....|--- .... ....
....|..|B-8 JF.. ....|E-5 ...F ....|G#4 ..6F ....
 G#3|..|G#1 2A.. ....|--- .... ....|R-- .... ....
 G#4|..|G#2 .A.. ....|R-- .... ....|R-- .... ....
....|..|--- .... ....|--- .... ....|--- .... ....
....|..|C-4 AF.. ....|E-5 .... ....|G#4 .... ....
....|..|R-- .... ....|--- .... ....|R-- .... ....
....|..|R-- .... ....|R-- .... ....|R-- .... ....
....|..|R-- .... ....|R-- .... ....|R-- .... ....
....|..|B-8 J... ....|E-5 .... ....|G#4 .... ....
 G#3|..|G#1 2A.. ....|R-- .... ....|R-- .... ....
 G#4|..|G#2 .A.. ....|R-- .... ....|R-- .... ....
....|..|R-- .... ....|--- .... ....|--- .... ....
 G#4|..|C-4 AF.. ....|G#5 ..F. ....|G#5 .C.. ....
....|..|R-- .... ....|--- .... ....|R-- .... ....
....|..|R-- .... ....|--- .... 11.1|R-- .... ....
....|..|--- .... ....|--- .... ....|--- .... ....
....|..|B-8 J... ....|E-5 .F.7 ....|G#4 .F6. ....
 G#3|..|G#1 2A.. ....|--- .... ....|G#5 .F.. ....
 G#4|..|G#2 .A.. ....|--- .... ....|R-- .... ....
....|..|R-- .... ....|R-- .... ....|R-- .... ....
....|..|C-4 AF.. ....|D-5 ...F ....|G#4 ..6. ....
....|..|G#1 2..7 ....|R-- .... ....|G#5 .F.. ....
....|..|G#2 .... ....|R-- .... ....|R-- .... ....
....|..|R-- .... ....|--- .... ....|--- .... ....
....|..|B-8 J..F ....|E-5 ..F. ....|G#4 ..6. ....
 G#3|..|G#1 2A.. ....|--- .... ....|G#5 .F.. ....
 D-4|..|G#2 .F.. ....|D-5 .... ....|D-5 .C.. ....
....|..|--- .... ....|--- .... ....|--- .... ....
....|..|C-4 A... ....|C-5 .... ....|A-4 .F3. ....
 A-3|..|A-1 2A.. ....|--- .... ....|A-4 ..4. ....
 A-3|..|A-2 .C.. ....|--- .... 11.1|R-- .... ....
....|..|R-- .... ....|R-- .... ....|R-- .... ....
....|..|B-8 JF.. ....|E-5 .F.7 ....|A-4 ..3. ....
 A-3|..|A-1 2A.. ....|R-- .... ....|A-4 ..4. ....
 A-3|..|A-2 .C.. ....|--- .... ....|R-- .... ....
....|..|R-- .... ....|--- .... ....|--- .... ....
....|..|C-4 AF.. ....|G#5 .... ....|A-4 ..3. ....
....|..|R-- .... ....|--- .... ....|A-4 ..4. ....
....|..|R-- .... ....|D-5 ...A 311F|R-- .... ....
....|..|--- .... ....|--- .... ....|--- .... ....
....|..|B-8 J... ....|C-5 .... 311F|A-4 ..3. ....
 A-3|..|A-1 2A.. ....|--- .... ....|G#5 .F.7 ....
 A-3|..|A-2 .C.. ....|R-- .... ....|R-- .... ....
....|..|R-- .... ....|R-- .... ....|R-- .... ....

[Pattern22]
....|..|C-4 AF.F ....|C-5 2F.F ....|C-4 2FAF ....
....|..|R-- .... ....|--- .... ....|G#5 .F.7 ....
....|..|R-- .... ....|--- .... 11.1|R-- .... ....
....|..|--- .... ....|--- .... ....|--- .... ....
....|..|B-8 J... ....|D-5 .... ....|E-5 ..5F ....
 A-3|..|A-1 2A.. ....|--- .... ....|G#5 .F.7 ....
 A-3|..|A-2 .C.. ....|D-5 ...7 ....|D-5 .... ....
....|..|--- .... ....|--- .... ....|--- .... ....
....|..|C-4 AF.. ....|E-5 ...F ....|E-5 ..5F ....
....|..|A-1 2..7 ....|--- .... ....|A-4 ..47 ....
....|..|A-2 .... ....|R-- .... ....|R-- .... ....
....|..|R-- .... ....|--- .... ....|--- .... ....
....|..|B-8 J..F ....|C-5 .... ....|E-5 ..5F ....
 A-3|..|A-1 2A.. ....|--- .... ....|A-4 ..47 ....
 A-3|..|A-2 .C.. ....|--- .... 21.1|R-- .... ....
....|..|--- .... ....|--- .... ....|R-- .... ....
....|..|C-4 AF.. ....|F-5 ..F. ....|F-4 ..1F ....
 F-3|..|F-1 2A.. ....|--- .... ....|A-4 ..47 ....
 F-4|..|F-2 .A.. ....|--- .... 11.1|R-- .... ....
....|..|R-- .... ....|--- .... ....|--- .... ....
....|..|B-8 JF.. ....|E-5 .F.A ....|F-4 ..1F ....
 F-3|..|F-1 2A.. ....|--- .... ....|R-- .... ....
 F-4|..|F-2 .A.. ....|R-- .... ....|R-- .... ....
....|..|R-- .... ....|--- .... ....|--- .... ....
....|..|C-4 AF.. ....|C-5 ..F7 ....|F-4 .... ....
....|..|R-- .... ....|--- .... ....|R-- .... ....
....|..|R-- .... ....|--- .... ....|R-- .... ....
....|..|--- .... ....|--- .... ....|R-- .... ....
....|..|B-8 J... ....|E-5 ...F ....|F-4 .... ....
 F-3|..|F-1 2A.. ....|--- .... ....|R-- .... ....
 F-4|..|F-2 .A.. ....|--- .... ....|R-- .... ....
....|..|R-- .... ....|--- .... ....|--- .... ....
....|..|C-4 AF.. ....|F-5 .... ....|A-3 ..A. ....
....|..|R-- .... ....|--- .... ....|R-- .... ....
....|..|R-- .... ....|--- .... ....|R-- .... ....
....|..|--- .... ....|--- .... ....|R-- .... ....
....|..|B-8 J... ....|E-5 .... ....|F-4 ..1. ....
 F-3|..|F-1 2A.. ....|--- .... ....|R-- .... ....
 F-4|..|F-2 .A.. ....|--- .... ....|--- .... ....
....|..|--- .... ....|--- .... ....|R-- .... ....
 D-4|..|C-4 AF.. ....|D-5 .... ....|D-5 .C.. ....
....|..|F-1 2..7 ....|--- .... ....|R-- .... ....
....|..|F-2 .... ....|--- .... 11.1|--- .... ....
....|..|R-- .... ....|--- .... ....|R-- .... ....
....|..|B-8 J..F ....|F-5 .F.A ....|F-4 .F1. ....
 F-3|..|F-1 2A.. ....|--- .... ....|R-- .... ....
 F-4|..|F-2 .A.. ....|--- .... ....|R-- .... ....
....|..|R-- .... ....|--- .... ....|R-- .... ....
....|..|C-4 AF.. ....|E-5 .... ....|G-4 .... ....
 G-3|..|G-1 2A.. ....|--- .... ....|G-5 .F.. ....
 G-4|..|G-2 .A.. ....|--- .... ....|R-- .... ....
....|..|--- .... ....|--- .... ....|--- .... ....
....|..|B-8 JF.. ....|E-5 ...7 ....|G-4 ..1. ....
 G-3|..|G-1 2A.. ....|--- .... ....|G-5 .F.. ....
 G-4|..|G-2 .A.. ....|--- .... ....|R-- .... ....
....|..|R-- .... ....|--- .... ....|R-- .... ....
....|..|C-4 AF.. ....|F-5 .... ....|G-4 ..1. ....
....|..|R-- .... ....|--- .... ....|G-4 ..2. ....
....|..|R-- .... ....|--- .... ....|R-- .... ....
....|..|R-- .... ....|--- .... ....|R-- .... ....
....|..|B-8 J... ....|B-4 ...F ....|G-4 ..1. ....
 G-3|..|G-1 2A.. ....|--- .... ....|G-5 .F.A ....
 G-4|..|G-2 .A.. ....|--- .... ....|R-- .... ....
....|..|--- .... ....|--- .... ....|--- .... ....

[Pattern23]
 C-3|..|C-4 AF.F ....|C-5 2F.F ....|C-5 2C.F ....
....|..|R-- .... ....|--- .... ....|G-5 .F.A ....
....|..|R-- .... ....|--- .... ....|R-- .... ....
....|..|--- .... ....|--- .... ....|R-- .... ....
....|..|B-8 J... ....|R-- .... ....|G-4 ..1F ....
 G-3|..|G-1 2A.. ....|--- .... ....|G-4 ..2A ....
 G-4|..|G-2 .A.. ....|--- .... ....|R-- .... ....
....|..|R-- .... ....|--- .... ....|--- .... ....
....|..|C-4 AF.. ....|D-5 .... ....|G-4 ..1F ....
....|..|G-1 2..7 ....|--- .... ....|G-5 .F.7 ....
....|..|G-2 .... ....|--- .... ....|R-- .... ....
....|..|--- .... ....|--- .... ....|--- .... ....
....|..|B-8 J..F ....|R-- .... ....|G-4 ..1F ....
 G-3|..|G-1 2A.. ....|--- .... ....|G-5 .F.7 ....
 G-4|..|G-2 .A.. ....|--- .... ....|R-- .... ....
....|..|R-- .... ....|--- .... ....|--- .... ....
....|..|C-4 AF.. ....|E-5 ..F. ....|A-4 ..3F ....
 A-3|..|A-1 2A.. ....|--- .... ....|G-4 ..27 ....
 A-3|..|A-2 .C.. ....|--- .... 11.1|R-- .... ....
....|..|R-- .... ....|--- .... ....|--- .... ....
....|..|B-8 JF.. ....|B-4 .F.7 ....|A-4 ..3F ....
 A-3|..|A-1 2A.. ....|--- .... ....|R-- .... ....
 A-3|..|A-2 .C.. ....|--- .... 11.1|R-- .... ....
....|..|--- .... ....|--- .... ....|--- .... ....
....|..|C-4 AF.. ....|C-5 .... ....|A-4 .... ....
....|..|R-- .... ....|--- .... ....|R-- .... ....
....|..|R-- .... ....|R-- .... ....|R-- .... ....
....|..|R-- .... ....|--- .... ....|--- .... ....
 E-4|..|B-8 J... ....|E-5 ..FF ....|E-5 .CF. ....
 A-3|..|A-1 2A.. ....|--- .... ....|R-- .... ....
 A-3|..|A-2 .C.. ....|R-- .... ....|R-- .... ....
....|..|R-- .... ....|--- .... ....|--- .... ....
 E-4|..|C-4 AF.. ....|E-5 .... ....|E-5 .CF. ....
....|..|R-- .... ....|--- .... ....|--- .... ....
....|..|R-- .... ....|--- .... 11.1|R-- .... ....
....|..|--- .... ....|R-- .... ....|R-- .... ....
....|..|B-8 J... ....|D-5 .F.. ....|A-4 .F3. ....
 A-3|..|A-1 2A.. ....|--- .... ....|A-5 .F.. ....
 A-3|..|A-2 .C.. ....|R-- .... ....|R-- .... ....
....|..|R-- .... ....|--- .... ....|E-5 ...A ....
....|..|C-4 AF.. ....|E-5 ...A ....|A-4 ..3F ....
....|..|A-1 2..7 ....|--- .... ....|A-5 .F.. ....
....|..|A-2 .... ....|R-- .... ....|R-- .... ....
....|..|R-- .... ....|--- .... ....|E-5 ...A ....
....|..|B-8 J..F ....|C-5 ...F ....|A-4 ..3F ....
 A-3|..|A-1 2A.. ....|--- .... ....|A-5 .F.. ....
 A-3|..|A-2 .C.. ....|--- .... 11.1|R-- .... ....
....|..|--- .... ....|R-- .... ....|R-- .... ....
....|..|C-4 AF.. ....|D-5 ...A ....|A-4 ..3. ....
 C-4|..|C-2 2A.. ....|--- .... ....|A-4 ..4. ....
 C-4|..|C-3 .C.. ....|R-- .... ....|R-- .... ....
....|..|R-- .... ....|E-5 ...7 ....|E-5 .F.7 ....
....|..|B-8 JF.. ....|--- .... ....|A-4 ..3F ....
 C-4|..|C-2 2A.. ....|R-- .... ....|A-4 ..4. ....
 C-4|..|C-3 .C.. ....|R-- .... ....|R-- .... ....
....|..|R-- .... ....|E-5 .... ....|E-5 .F.7 ....
....|..|C-4 AF.. ....|C-5 ...A ....|A-4 ..3F ....
....|..|R-- .... ....|--- .... ....|A-4 ..4. ....
....|..|R-- .... ....|--- .... ....|R-- .... ....
....|..|--- .... ....|R-- .... ....|R-- .... ....
....|..|B-8 J... ....|D-5 ...7 ....|A-4 ..3. ....
 C-4|..|C-2 2A.. ....|--- .... ....|A-5 .F.7 ....
 C-4|..|C-3 .C.. ....|--- .... ....|R-- .... ....
....|..|R-- .... ....|--- .... ....|--- .... ....

[Pattern24]
....|..|C-4 AF.F ....|C-5 2F.F ....|C-4 2FAF ....
....|..|R-- .... ....|--- .... ....|A-5 .F.7 ....
....|..|R-- .... ....|R-- .... ....|R-- .... ....
....|..|--- .... ....|--- .... ....|R-- .... ....
....|..|B-8 J... ....|D-5 .... ....|E-5 ..5F ....
 C-4|..|C-2 2A.. ....|--- .... ....|A-5 .F.7 ....
 C-4|..|C-3 .C.. ....|--- .... ....|R-- .... ....
....|..|--- .... ....|--- .... ....|--- .... ....
....|..|C-4 AF.. ....|E-5 .... ....|E-5 ..5F ....
....|..|C-2 2..7 ....|--- .... ....|A-4 ..47 ....
....|..|C-3 .... ....|--- .... ....|R-- .... ....
....|..|R-- .... ....|--- .... ....|--- .... ....
....|..|B-8 J..F ....|C-5 .... ....|E-5 ..5F ....
 C-4|..|C-2 2A.. ....|--- .... ....|A-4 ..47 ....
 C-4|..|C-3 .C.. ....|R-- .... ....|R-- .... ....
....|..|--- .... ....|--- .... ....|R-- .... ....
....|..|C-4 AF.. ....|F-5 ..F. ....|F-4 ..1F ....
 F-3|..|F-1 2A.. ....|--- .... ....|A-4 ..47 ....
 F-4|..|F-2 .A.. ....|--- .... 11.1|R-- .... ....
....|..|R-- .... ....|--- .... ....|--- .... ....
....|..|B-8 JF.. ....|E-5 .F.A ....|F-4 ..1F ....
 F-3|..|F-1 2A.. ....|--- .... ....|R-- .... ....
 F-4|..|F-2 .A.. ....|--- .... ....|R-- .... ....
....|..|--- .... ....|--- .... ....|--- .... ....
....|..|C-4 AF.. ....|C-5 ...7 ....|F-4 .... ....
....|..|R-- .... ....|--- .... ....|R-- .... ....
....|..|R-- .... ....|--- .... 11.1|R-- .... ....
....|..|--- .... ....|--- .... ....|R-- .... ....
....|..|B-8 J... ....|E-5 ..FF ....|F-4 .... ....
 F-3|..|F-1 2A.. ....|--- .... ....|R-- .... ....
 F-4|..|F-2 .A.. ....|--- .... 21.1|R-- .... ....
....|..|R-- .... ....|--- .... ....|--- .... ....
....|..|C-4 AF.. ....|F-5 .... ....|A-3 ..A. ....
....|..|R-- .... ....|--- .... ....|R-- .... ....
....|..|R-- .... ....|--- .... 11.1|R-- .... ....
....|..|--- .... ....|--- .... ....|R-- .... ....
....|..|B-8 J... ....|E-5 .F.. ....|F-4 ..1. ....
 F-3|..|F-1 2A.. ....|--- .... ....|R-- .... ....
 F-4|..|F-2 .A.. ....|--- .... ....|--- .... ....
....|..|--- .... ....|--- .... ....|R-- .... ....
 D-4|..|C-4 AF.. ....|D-5 ..F. ....|D-5 .C.. ....
....|..|F-1 2..7 ....|--- .... ....|R-- .... ....
....|..|F-2 .... ....|--- .... 11.1|--- .... ....
....|..|R-- .... ....|--- .... ....|R-- .... ....
....|..|B-8 J..F ....|F-5 .F.A ....|F-4 .F1. ....
 F-3|..|F-1 2A.. ....|--- .... ....|R-- .... ....
 F-4|..|F-2 .A.. ....|--- .... ....|R-- .... ....
....|..|R-- .... ....|--- .... ....|R-- .... ....
....|..|C-4 AF.. ....|E-5 .... ....|G-4 .... ....
 G-3|..|G-1 2A.. ....|--- .... ....|G-5 .F.. ....
 G-4|..|G-2 .A.. ....|--- .... ....|R-- .... ....
....|..|--- .... ....|--- .... ....|--- .... ....
....|..|B-8 JF.. ....|E-5 ...7 ....|G-4 ..1. ....
 G-3|..|G-1 2A.. ....|--- .... ....|G-5 .F.. ....
 G-4|..|G-2 .A.. ....|--- .... ....|R-- .... ....
....|..|R-- .... ....|--- .... ....|R-- .... ....
....|..|C-4 AF.. ....|F-5 .... ....|G-4 ..1. ....
....|..|R-- .... ....|--- .... ....|G-4 ..2. ....
....|..|R-- .... ....|--- .... ....|R-- .... ....
....|..|R-- .... ....|--- .... ....|R-- .... ....
....|..|B-8 J... ....|B-4 ..FF ....|G-4 ..1. ....
 G-3|..|G-1 2A.. ....|--- .... ....|G-5 .F.A ....
 G-4|..|G-2 .A.. ....|--- .... ....|R-- .... ....
....|..|--- .... ....|--- .... ....|--- .... ....

[Pattern25]
 C-3|..|C-4 AF.F ....|C-5 2FFF ....|C-5 2C.F ....
....|..|R-- .... ....|--- .... ....|G-5 .F.A ....
....|..|R-- .... ....|--- .... 11.1|R-- .... ....
....|..|--- .... ....|--- .... ....|R-- .... ....
....|..|B-8 J... ....|R-- .... ....|G-4 ..1F ....
 G-3|..|G-1 2A.. ....|--- .... ....|G-4 ..2A ....
 G-4|..|G-2 .A.. ....|--- .... ....|R-- .... ....
....|..|R-- .... ....|--- .... ....|--- .... ....
....|..|C-4 AF.. ....|D-5 .F.. ....|G-4 ..1F ....
....|..|G-1 2..7 ....|--- .... ....|G-5 .F.7 ....
....|..|G-2 .... ....|--- .... 11.1|R-- .... ....
....|..|--- .... ....|--- .... ....|--- .... ....
....|..|B-8 J..F ....|R-- .... ....|G-4 ..1F ....
 G-3|..|G-1 2A.. ....|--- .... ....|G-5 .F.7 ....
 G-4|..|G-2 .A.. ....|--- .... ....|R-- .... ....
....|..|R-- .... ....|--- .... ....|--- .... ....
....|..|C-4 AF.. ....|E-5 .... ....|G#4 ..6F ....
 G#3|..|G#1 2A.. ....|--- .... ....|G-4 ..27 ....
 G#4|..|G#2 .A.. ....|--- .... 11.1|R-- .... ....
....|..|R-- .... ....|--- .... ....|--- .... ....
....|..|B-8 JF.. ....|B-4 ...7 ....|G#4 ..6F ....
 G#3|..|G#1 2A.. ....|--- .... ....|R-- .... ....
 G#4|..|G#2 .A.. ....|--- .... ....|R-- .... ....
....|..|--- .... ....|--- .... ....|--- .... ....
....|..|C-4 AF.. ....|C-5 .... ....|G#4 .... ....
....|..|R-- .... ....|--- .... ....|R-- .... ....
....|..|R-- .... ....|R-- .... ....|R-- .... ....
....|..|R-- .... ....|--- .... ....|--- .... ....
 E-4|..|B-8 J... ....|E-5 ..FF ....|E-5 .CF. ....
 G#3|..|G#1 2A.. ....|--- .... ....|--- .F.. ....
 G#4|..|G#2 .A.. ....|R-- .... ....|R-- .... ....
....|..|R-- .... ....|--- .... ....|--- .... ....
 E-4|..|C-4 AF.. ....|E-5 .... ....|E-5 .CF. ....
....|..|R-- .... ....|--- .... ....|--- .... ....
....|..|R-- .... ....|--- .... ....|--- .... ....
....|..|--- .... ....|R-- .... ....|R-- .... ....
....|..|B-8 J... ....|D-5 .F.. ....|G#4 .F6. ....
 G#3|..|G#1 2A.. ....|--- .... ....|G#5 .F.. ....
 G#4|..|G#2 .A.. ....|R-- .... ....|R-- .... ....
....|..|R-- .... ....|--- .... ....|E-5 ...A ....
....|..|C-4 AF.. ....|E-5 ...A ....|G#4 ..6F ....
....|..|G#1 2..7 ....|--- .... ....|G#5 .F.. ....
....|..|G#2 .... ....|R-- .... ....|R-- .... ....
....|..|R-- .... ....|E-5 .... ....|E-5 ...A ....
....|..|B-8 J..F ....|C-5 ...F ....|G#4 ..6F ....
 G#3|..|G#1 2A.. ....|--- .... ....|G#5 .F.. ....
 G#4|..|G#2 .A.. ....|--- .... ....|R-- .... ....
....|..|--- .... ....|R-- .... ....|R-- .... ....
....|..|C-4 AF.. ....|D-5 ...A ....|A-4 ..3. ....
 A-3|..|A-1 2A.. ....|--- .... ....|A-4 ..4. ....
 A-3|..|A-2 .C.. ....|R-- .... ....|R-- .... ....
....|..|R-- .... ....|E-5 ...7 ....|E-5 .F.7 ....
....|..|B-8 JF.. ....|--- .... ....|A-4 ..3F ....
 A-3|..|A-1 2A.. ....|R-- .... ....|A-4 ..4. ....
 A-3|..|A-2 .C.. ....|R-- .... ....|R-- .... ....
....|..|R-- .... ....|E-5 .... ....|E-5 .F.7 ....
....|..|C-4 AF.. ....|C-5 ...A ....|A-4 ..3F ....
....|..|R-- .... ....|--- .... ....|A-4 ..4. ....
....|..|R-- .... ....|--- .... ....|R-- .... ....
....|..|--- .... ....|R-- .... ....|R-- .... ....
....|..|B-8 J... ....|D-5 ...7 ....|A-4 ..3. ....
 A-3|..|A-1 2A.. ....|--- .... ....|G#5 .F.7 ....
 A-3|..|A-2 .C.. ....|--- .... ....|R-- .... ....
....|..|R-- .... ....|--- .... ....|--- .... ....

[Pattern26]
....|..|C-4 AF.F ....|--- .... ....|C-4 2FAF ....
....|..|R-- .... ....|--- .... ....|G#5 .F.7 ....
....|..|R-- .... ....|R-- .... ....|R-- .... ....
....|..|--- .... ....|--- .... ....|R-- .... ....
....|..|B-8 J... ....|C-5 2F.A ....|E-5 ..5F ....
 A-3|..|A-1 2A.. ....|--- .... ....|G#5 .F.7 ....
 A-3|..|A-2 .C.. ....|--- .... ....|R-- .... ....
....|..|--- .... ....|--- .... ....|--- .... ....
....|..|C-4 AF.. ....|--- .... 11.1|E-5 ..5F ....
....|..|A-1 2..7 ....|--- .... ....|A-4 ..47 ....
....|..|A-2 .... ....|--- .... ....|R-- .... ....
....|..|R-- .... ....|--- .... ....|--- .... ....
....|..|B-8 J..F ....|--- .... ....|E-5 ..5F ....
 A-3|..|A-1 2A.. ....|--- .... ....|A-4 ..47 ....
 A-3|..|A-2 .C.. ....|R-- .... ....|R-- .... ....
....|..|--- .... ....|--- .... ....|R-- .... ....
....|..|C-4 AF.. ....|A-4 ..FF ....|A-4 ..3F ....
 A-3|..|A-1 2A.. ....|--- .... ....|A-4 ..47 ....
 A-2|..|A-1 .A.. ....|--- .... ....|R-- .... ....
....|..|R-- .... ....|R-- .... ....|R-- .... ....
....|..|B-8 JF.. ....|--- .... ....|A-4 ..3F ....
 A-3|..|A-1 2A.. ....|--- .... ....|R-- .... ....
 A-3|..|A-1 .A.. ....|--- .... ....|R-- .... ....
....|..|R-- .... ....|--- .... ....|--- .... ....
....|..|C-4 AF.. ....|A-4 .... ....|A-4 .... ....
 C-4|..|C-2 2A.. ....|--- .... ....|R-- .... ....
 C-4|..|C-2 .A.. ....|--- .... ....|R-- .... ....
....|..|R-- .... ....|--- .... ....|R-- .... ....
....|..|B-8 JF.. ....|A-4 .F.A ....|A-4 .... ....
 C-4|..|C-2 2A.. ....|--- .... ....|R-- .... ....
 C-4|..|C-2 .A.. ....|--- .... ....|R-- .... ....
....|..|R-- .... ....|R-- .... ....|R-- .... ....
....|..|C-4 AF.. ....|E-5 ..FF ....|A-4 .... ....
 E-4|..|E-2 2A.. ....|--- .... ....|A-4 ..4. ....
 E-4|..|E-2 .A.. ....|--- .... ....|R-- .... ....
....|..|R-- .... ....|R-- .... ....|R-- .... ....
....|..|B-8 JF.. ....|E-5 .... ....|A-4 ..3. ....
 E-4|..|E-2 2A.. ....|--- .... ....|R-- .... ....
 E-4|..|E-2 .A.. ....|R-- .... ....|R-- .... ....
....|..|R-- .... ....|--- .... ....|R-- .... ....
....|..|C-4 AF.. ....|F-5 .... ....|A-4 .... ....
 F-4|..|F-2 2A.. ....|--- .... ....|E-5 .F.. ....
 F-4|..|F-2 .A.. ....|--- .... 11.1|R-- .... ....
....|..|R-- .... ....|R-- .... ....|R-- .... ....
....|..|B-8 JF.. ....|E-5 .... ....|A-4 ..3. ....
 F-4|..|F-2 2A.. ....|--- .... ....|R-- .... ....
 F-4|..|F-2 .A.. ....|--- .... ....|R-- .... ....
....|..|R-- .... ....|R-- .... ....|R-- .... ....
....|..|C-4 AF.. ....|A-4 .F.7 ....|A-4 .... ....
 A-3|..|A-1 2A.. ....|--- .... ....|R-- .... ....
 A-2|..|A-1 .A.. ....|R-- .... ....|R-- .... ....
....|..|R-- .... ....|--- .... ....|--- .... ....
....|..|B-8 JF.. ....|A-4 ..FF ....|A-4 .... ....
 A-3|..|A-1 2A.. ....|--- .... ....|A-4 ..4. ....
 A-3|..|A-1 .A.. ....|R-- .... ....|R-- .... ....
....|..|R-- .... ....|R-- .... ....|R-- .... ....
....|..|C-4 AF.. ....|A-4 .... ....|A-4 ..3. ....
 C-4|..|C-2 2A.. ....|--- .... ....|A-4 ..4. ....
 C-4|..|C-2 .A.. ....|--- .... 11.1|R-- .... ....
....|..|R-- .... ....|R-- .... ....|R-- .... ....
....|..|B-8 JF.. ....|E-5 .F.7 ....|A-4 ..3. ....
 C-4|..|C-2 2A.. ....|--- .... ....|E-5 .F.. ....
 C-4|..|C-2 .A.. ....|R-- .... ....|R-- .... ....
....|..|R-- .... ....|--- .... ....|R-- .... ....

[Pattern27]
....|..|C-4 AF.F ....|E-5 2FFF ....|A-4 2F3F ....
 E-4|..|E-2 2A.. ....|--- .... ....|A-4 ..4. ....
 E-4|..|E-2 .A.. ....|R-- .... ....|R-- .... ....
....|..|R-- .... ....|--- .... ....|--- .... ....
....|..|B-8 JF.. ....|E-5 .... ....|A-4 ..3. ....
 E-4|..|E-2 2A.. ....|--- .... ....|R-- .... ....
 E-4|..|E-2 .A.. ....|R-- .... ....|R-- .... ....
....|..|R-- .... ....|--- .... ....|--- .... ....
....|..|C-4 AF.. ....|F-5 .... ....|A-4 .... ....
 F-4|..|F-2 2A.. ....|--- .... 11.1|E-5 .F.A ....
 F-4|..|F-2 .A.. ....|--- .... ....|R-- .... ....
....|..|R-- .... ....|R-- .... ....|R-- .... ....
....|..|B-8 JF.. ....|E-5 .... ....|A-4 ..3F ....
 E-4|..|E-2 2A.. ....|--- .... ....|A-4 ..47 ....
 E-4|..|E-2 .A.. ....|R-- .... ....|R-- .... ....
....|..|R-- .... ....|R-- .... ....|R-- .... ....
....|..|C-4 AF.. ....|A-4 .F.. ....|A-4 ..3F ....
 A-3|..|A-1 2A.. ....|--- .... ....|A-4 ..47 ....
 A-2|..|A-1 .A.. ....|R-- .... ....|R-- .... ....
....|..|R-- .... ....|R-- .... ....|R-- .... ....
....|..|B-8 JF.. ....|F-5 ...A ....|A-4 ..3F ....
 A-3|..|A-1 2A.. ....|--- .... ....|E-5 .F.7 ....
 A-3|..|A-1 .A.. ....|R-- .... ....|R-- .... ....
....|..|R-- .... ....|--- .... ....|R-- .... ....
....|..|C-4 AF.. ....|A-4 ...F ....|A-4 ..3F ....
 C-4|..|C-2 2A.. ....|--- .... ....|A-4 ..47 ....
 C-4|..|C-2 .A.. ....|R-- .... ....|R-- .... ....
....|..|R-- .... ....|R-- .... ....|R-- .... ....
....|..|B-8 JF.. ....|E-5 ...7 ....|A-4 ..3F ....
 C-4|..|C-2 2A.. ....|--- .... ....|R-- .... ....
 C-4|..|C-2 .A.. ....|R-- .... ....|R-- .... ....
....|..|R-- .... ....|R-- .... ....|R-- .... ....
....|..|C-4 AF.. ....|E-5 ..FF ....|A-4 .... ....
 E-4|..|E-2 2A.. ....|--- .... ....|A-4 ..4. ....
 E-4|..|E-2 .A.. ....|--- .... ....|R-- .... ....
....|..|R-- .... ....|R-- .... ....|R-- .... ....
....|..|B-8 JF.. ....|E-5 .... ....|A-4 ..3. ....
 E-4|..|E-2 2A.. ....|--- .... ....|R-- .... ....
 E-4|..|E-2 .A.. ....|R-- .... ....|R-- .... ....
....|..|R-- .... ....|R-- .... ....|R-- .... ....
....|..|C-4 AF.. ....|F-5 .... ....|A-4 .... ....
 F-4|..|F-2 2A.. ....|--- .... ....|E-5 .F.. ....
 F-4|..|F-2 .A.. ....|--- .... ....|R-- .... ....
....|..|R-- .... ....|R-- .... ....|R-- .... ....
....|..|B-8 JF.. ....|E-5 .F.. ....|A-4 ..3. ....
 F-4|..|F-2 2A.. ....|--- .... ....|R-- .... ....
 F-4|..|F-2 .A.. ....|--- .... ....|R-- .... ....
....|..|R-- .... ....|R-- .... ....|R-- .... ....
....|..|C-4 AF.. ....|A-4 ...7 ....|C-4 ..7. ....
 G-3|..|G-1 2A.. ....|--- .... ....|R-- .... ....
....|..|C-2 .F.7 ....|R-- .... ....|R-- .... ....
....|..|R-- .... ....|--- .... ....|--- .... ....
....|..|B-8 J..F ....|C-5 ..FF ....|C-4 .... ....
 G-4|..|G-2 2A.. ....|R-- .... ....|E-4 ..8. ....
 G-4|..|G-2 .A.. ....|--- .... ....|R-- .... ....
....|..|R-- .... ....|R-- .... ....|R-- .... ....
....|..|C-4 AF.. ....|C-5 .F.. ....|C-4 ..7. ....
....|..|E-2 2..7 ....|--- .... ....|E-4 ..8. ....
....|..|E-2 .... ....|--- .... ....|R-- .... ....
....|..|R-- .... ....|R-- .... ....|R-- .... ....
....|..|B-8 J..F ....|A-4 .... ....|C-4 ..7. ....
 G-4|..|G-2 2A.. ....|--- .... ....|E-5 .F.. ....
 G-4|..|G-2 .A.. ....|R-- .... ....|R-- .... ....
....|..|R-- .... ....|--- .... ....|--- .... ....

[Pattern28]
....|..|C-4 AF.F ....|C-5 2F.F ....|C-4 2F7F ....
 G-3|..|G-1 2A.. ....|R-- .... ....|E-4 ..8. ....
....|..|F-2 .F.7 ....|--- .... ....|R-- .... ....
....|..|R-- .... ....|--- .... ....|--- .... ....
....|..|B-8 J..F ....|E-5 ...7 ....|C-4 ..7. ....
 G-4|..|G-2 2A.. ....|R-- .... ....|R-- .... ....
 G-4|..|G-2 .A.. ....|--- .... ....|R-- .... ....
....|..|R-- .... ....|R-- .... ....|R-- .... ....
....|..|C-4 AF.. ....|C-5 ...F ....|C-4 .... ....
....|..|G-1 2..7 ....|--- .... ....|E-5 .F.A ....
....|..|R-- .... ....|--- .... 11.1|R-- .... ....
....|..|R-- .... ....|--- .... ....|--- .... ....
....|..|B-8 J..F ....|C-5 ...7 ....|C-4 ..7F ....
 G-4|..|G-2 2A.. ....|R-- .... ....|E-4 ..87 ....
 G-4|..|G-2 .A.. ....|--- .... ....|R-- .... ....
....|..|R-- .... ....|--- .... ....|R-- .... ....
....|..|C-4 AF.. ....|C-5 .... ....|C-4 ..7. ....
....|..|R-- .... ....|R-- .... ....|E-4 ..8. ....
....|..|G-2 2..A ....|--- .... ....|R-- .... ....
....|..|--- .... ....|R-- .... ....|R-- .... ....
 A-3|..|A-1 .A.F ....|G-4 ..FF ....|C-4 .F.F ....
 A-3|..|A-1 .A.. ....|--- .... ....|E-5 ...7 ....
....|..|G-2 .F.7 ....|R-- .... ....|R-- .... ....
....|..|R-- .... ....|--- .... ....|--- .... ....
 A-3|..|C-4 A..F ....|A-4 .F.. ....|A-4 .C.F ....
....|..|G-1 2..7 ....|--- .... ....|E-4 .F87 ....
....|..|G-2 ...A ....|--- .... 11.1|R-- .... ....
....|..|R-- .... ....|R-- .... ....|R-- .... ....
 A-3|..|A-1 .A.F ....|G-4 .... ....|C-4 .F.F ....
 A-3|..|A-1 .A.. ....|--- .... ....|R-- .... ....
....|..|G-2 .F.7 ....|--- .... 11.1|R-- .... ....
....|..|--- .... ....|R-- .... ....|R-- .... ....
 A-3|..|C-4 A..F ....|A-4 .... ....|A-4 .C.. ....
....|..|R-- .... ....|--- .... ....|--- .... ....
....|..|R-- .... ....|R-- .... ....|R-- .... ....
....|..|--- .... ....|R-- .... ....|R-- .... ....
 A-3|..|A-1 2A.. ....|A-4 .... ....|C-4 .F.. ....
 A-3|..|A-1 .A.. ....|--- .... ....|--- .... ....
....|..|G-2 .F.7 ....|--- .... ....|R-- .... ....
....|..|R-- .... ....|R-- .... ....|R-- .... ....
....|..|C-4 A..F ....|R-- .... ....|R-- .... ....
....|..|R-- .... ....|--- .... ....|--- .... ....
....|..|--- .... ....|--- .... ....|--- .... ....
....|..|--- .... ....|R-- .... ....|R-- .... ....
 A-3|..|A-1 2A.. ....|A-4 .... ....|C-4 .... ....
 A-3|..|A-1 .A.. ....|--- .... ....|--- .... ....
....|..|--- .... ....|R-- .... ....|R-- .... ....
....|..|--- .... ....|R-- .... ....|R-- .... ....
 C-3|..|C-4 AF.. ....|C-5 .... ....|C-5 .C.. ....
....|..|R-- .... ....|--- .... ....|--- .... ....
....|..|--- .... ....|--- .... 11.1|--- .... ....
....|..|--- .... ....|R-- .... ....|R-- .... ....
 C-4|..|C-2 2A.. ....|A-4 .... ....|E-4 .F.. ....
 C-4|..|C-2 .A.. ....|--- .... ....|--- .... ....
....|..|--- .... ....|R-- .... ....|R-- .... ....
....|..|--- .... ....|R-- .... ....|R-- .... ....
 G-4|..|C-4 AF.. ....|G-4 .... ....|G-4 .C.. ....
....|..|R-- .... ....|--- .... ....|--- .... ....
....|..|--- .... ....|R-- .... ....|R-- .... ....
....|..|--- .... ....|R-- .... ....|R-- .... ....
 C-4|..|C-2 2A.. ....|A-4 .... ....|E-4 .F.. ....
 C-4|..|C-2 .A.. ....|--- .... ....|--- .... ....
....|..|--- .... ....|--- .... 11.1|--- .... ....
....|..|--- .... ....|--- .... ....|--- .... ....

[Pattern29]
 G-4|..|C-4 AF.F ....|G-4 2F.F ....|G-4 2C.F ....
....|..|R-- .... ....|--- .... ....|--- .... ....
....|..|--- .... ....|R-- .... ....|R-- .... ....
....|..|--- .... ....|R-- .... ....|R-- .... ....
 F-4|..|F-2 2A.. ....|A-4 ...7 ....|A-4 .F.. ....
 F-4|..|F-2 .A.. ....|--- .... ....|--- .... ....
....|..|--- .... ....|R-- .... ....|R-- .... ....
....|..|--- .... ....|--- .... ....|--- .... ....
....|..|C-4 AF.. ....|C-5 .... ....|C-5 ...7 ....
....|..|R-- .... ....|--- .... ....|--- .... ....
....|..|--- .... ....|--- .... ....|--- .... ....
....|..|--- .... ....|--- .... ....|--- .... ....
 F-4|..|F-2 2A.. ....|A-4 .... ....|A-4 ...F ....
 F-4|..|F-2 .A.. ....|--- .... ....|--- .... ....
....|..|--- .... ....|R-- .... ....|R-- .... ....
....|..|--- .... ....|--- .... ....|--- .... ....
....|..|C-4 AF.. ....|G-4 .... ....|G-4 ...7 ....
....|..|R-- .... ....|--- .... ....|--- .... ....
....|..|--- .... ....|R-- .... ....|R-- .... ....
....|..|--- .... ....|--- .... ....|--- .... ....
 A-3|..|A-1 2A.. ....|A-4 ..FF ....|C-4 ...F ....
 A-3|..|A-1 .A.. ....|--- .... ....|--- .... ....
....|..|--- .... ....|R-- .... ....|R-- .... ....
....|..|--- .... ....|--- .... ....|--- .... ....
 A-3|..|C-4 AF.. ....|A-4 .... ....|A-4 .C.. ....
....|..|R-- .... ....|--- .... ....|--- .... ....
....|..|--- .... ....|--- .... ....|--- .... ....
....|..|--- .... ....|--- .... ....|--- .... ....
 A-3|..|A-1 2A.. ....|G-4 .... ....|C-4 .F.. ....
 A-3|..|A-1 .A.. ....|--- .... ....|--- .... ....
....|..|--- .... ....|R-- .... ....|R-- .... ....
....|..|--- .... ....|--- .... ....|--- .... ....
 A-3|..|C-4 AF.. ....|A-4 .... ....|A-4 .C.. ....
....|..|R-- .... ....|--- .... ....|--- .... ....
....|..|--- .... ....|R-- .... ....|R-- .... ....
....|..|--- .... ....|--- .... ....|--- .... ....
 A-3|..|A-1 2A.. ....|G-4 .... ....|C-4 .F.. ....
 A-3|..|A-1 .A.. ....|--- .... ....|--- .... ....
....|..|--- .... ....|R-- .... ....|R-- .... ....
....|..|--- .... ....|--- .... ....|--- .... ....
 A-3|..|C-4 AF.. ....|A-4 .F.. ....|A-4 .C.. ....
....|..|R-- .... ....|--- .... ....|--- .... ....
....|..|--- .... ....|R-- .... ....|R-- .... ....
....|..|--- .... ....|R-- .... ....|R-- .... ....
 A-3|..|A-1 2A.. ....|G-4 .... ....|C-4 .F.. ....
 A-3|..|A-1 .A.. ....|--- .... ....|--- .... ....
....|..|--- .... ....|R-- .... ....|R-- .... ....
....|..|--- .... ....|--- .... ....|--- .... ....
 C-3|..|C-4 AF.. ....|C-5 .... ....|C-5 .C.. ....
....|..|R-- .... ....|--- .... ....|--- .... ....
....|..|--- .... ....|R-- .... ....|R-- .... ....
....|..|--- .... ....|R-- .... ....|R-- .... ....
 C-4|..|C-2 2A.. ....|A-4 .... ....|E-4 .F.. ....
 C-4|..|C-2 .A.. ....|--- .... ....|--- .... ....
....|..|--- .... ....|R-- .... ....|R-- .... ....
....|..|--- .... ....|R-- .... ....|R-- .... ....
 G-4|..|C-4 AF.. ....|G-4 .... ....|G-4 .C.. ....
....|..|R-- .... ....|--- .... ....|--- .... ....
....|..|--- .... ....|R-- .... ....|R-- .... ....
....|..|--- .... ....|--- .... ....|--- .... ....
 C-4|..|C-2 2A.. ....|A-4 .... ....|E-4 .F.. ....
 C-4|..|C-2 .A.. ....|--- .... ....|--- .... ....
....|..|--- .... ....|R-- .... ....|R-- .... ....
....|..|--- .... ....|R-- .... ....|R-- .... ....

[Pattern30]
....|..|C-4 AF.F ....|A-4 2F.7 ....|A-4 2F.7 ....
....|..|R-- .... ....|--- .... ....|--- .... ....
....|..|--- .... ....|--- .... ....|--- .... ....
....|..|--- .... ....|R-- .... ....|R-- .... ....
 G-3|..|G-1 2A.. ....|E-4 ..FF ....|B-3 ...F ....
 G-3|..|G-1 .A.. ....|--- .... ....|--- .... ....
....|..|--- .... ....|R-- .... ....|R-- .... ....
....|..|--- .... ....|--- .... ....|--- .... ....
 G-4|..|C-4 AF.. ....|G-4 .... ....|G-4 .C.. ....
....|..|R-- .... ....|--- .... ....|--- .... ....
....|..|--- .... ....|--- .... ....|--- .... ....
....|..|--- .... ....|R-- .... ....|R-- .... ....
 G-3|..|G-1 2A.. ....|A-4 .... ....|F-4 .F.. ....
 G-3|..|G-1 .A.. ....|--- .... ....|--- .... ....
....|..|--- .... ....|--- .... ....|--- .... ....
....|..|--- .... ....|R-- .... ....|R-- .... ....
 A-3|..|C-4 AF.. ....|A-4 .... ....|A-4 .C.. ....
....|..|R-- .... ....|--- .... ....|--- .... ....
....|..|--- .... ....|R-- .... ....|R-- .... ....
....|..|--- .... ....|--- .... ....|--- .... ....
 A-3|..|A-1 2A.. ....|A-4 .F.7 ....|E-4 .F.7 ....
 A-3|..|A-1 .A.. ....|--- .... ....|--- .... ....
....|..|--- .... ....|--- .... ....|--- .... ....
....|..|--- .... ....|--- .... ....|--- .... ....
....|..|C-4 AF.. ....|A-4 ...A ....|R-- .... ....
....|..|R-- .... ....|--- .... ....|--- .... ....
....|..|--- .... ....|--- .... ....|--- .... ....
....|..|--- .... ....|R-- .... ....|R-- .... ....
 A-3|..|A-1 2A.. ....|E-4 ...7 ....|B-3 .... ....
 A-3|..|A-1 .A.. ....|--- .... ....|--- .... ....
....|..|--- .... ....|R-- .... ....|R-- .... ....
....|..|--- .... ....|--- .... ....|--- .... ....
....|..|C-4 AF.. ....|G-4 .... ....|G-4 .... ....
....|..|R-- .... ....|--- .... ....|--- .... ....
....|..|--- .... ....|--- .... ....|--- .... ....
....|..|--- .... ....|--- .... ....|--- .... ....
 A-3|..|A-1 2A.. ....|A-4 .... ....|F-4 .... ....
 A-3|..|A-1 .A.. ....|--- .... ....|--- .... ....
....|..|--- .... ....|--- .... ....|--- .... ....
....|..|--- .... ....|R-- .... ....|R-- .... ....
....|..|C-4 AF.. ....|A-4 .... ....|A-4 .... ....
....|..|R-- .... ....|--- .... ....|--- .... ....
....|..|--- .... ....|--- .... ....|--- .... ....
....|..|--- .... ....|--- .... ....|--- .... ....
 A-3|..|A-1 2A.. ....|--- .... ....|--- .... ....
 A-3|..|A-1 .A.. ....|--- .... ....|--- .... ....
....|..|--- .... ....|--- .... ....|--- .... ....
....|..|--- .... ....|--- .... ....|--- .... ....
....|..|C-4 AF.. ....|E-5 ...F ....|E-4 ..BF ....
....|..|R-- .... ....|--- .... ....|--- .... ....
....|..|--- .... ....|--- .... 11.1|--- .... ....
....|..|--- .... ....|--- .... ....|--- .... ....
 C-4|..|C-2 2A.. ....|--- .... ....|--- .... ....
 C-4|..|C-2 .A.. ....|R-- .... ....|R-- .... ....
....|..|--- .... ....|--- .... ....|R-- .... ....
....|..|--- .... ....|--- .... ....|--- .... ....
....|..|C-4 AF.. ....|C-5 .... ....|C-4 ..2. ....
....|..|R-- .... ....|--- .... ....|--- .... ....
....|..|--- .... ....|--- .... 11.1|--- .... ....
....|..|--- .... ....|--- .... ....|--- .... ....
 C-4|..|C-2 2A.. ....|R-- .... ....|R-- .... ....
 C-4|..|C-2 .A.. ....|R-- .... ....|R-- .... ....
....|..|--- .... ....|--- .... ....|R-- .... ....
....|..|--- .... ....|--- .... ....|--- .... ....

[Pattern31]
....|..|C-4 AF.F ....|A-4 2F.F ....|A-3 2FBF ....
....|..|R-- .... ....|--- .... ....|R-- .... ....
....|..|--- .... ....|R-- .... ....|R-- .... ....
....|..|--- .... ....|--- .... ....|--- .... ....
 F-4|..|F-2 2A.. ....|E-4 .... ....|E-3 .... ....
 F-4|..|F-2 .A.. ....|--- .... ....|R-- .... ....
....|..|--- .... ....|R-- .... ....|R-- .... ....
....|..|--- .F.. ....|--- .... ....|--- .... ....
....|..|C-4 A... ....|G-4 .... ....|G-3 ..C. ....
....|..|R-- .... ....|--- .... ....|R-- .... ....
....|..|--- .... ....|R-- .... ....|R-- .... ....
....|..|--- .... ....|--- .... ....|R-- .... ....
 F-4|..|F-2 2A.. ....|A-4 .... ....|C-4 ..2. ....
 F-4|..|F-2 .A.. ....|--- .... ....|R-- .... ....
....|..|--- .... ....|R-- .... ....|R-- .... ....
....|..|--- .... ....|--- .... ....|R-- .... ....
....|..|C-4 AF.. ....|A-4 .... ....|C-4 .... ....
....|..|R-- .... ....|--- .... ....|R-- .... ....
....|..|--- .... ....|R-- .... ....|R-- .... ....
....|..|--- .... ....|--- .... ....|G-4 .F.A ....
 C-4|..|C-2 2A.. ....|G-4 ...A ....|G-3 ..C. ....
 C-4|..|C-2 .A.. ....|R-- .... ....|R-- .... ....
....|..|--- .... ....|--- .... ....|R-- .... ....
....|..|--- .... ....|R-- .... ....|R-- .... ....
....|..|C-4 AF.. ....|A-4 ...7 ....|A-3 ..B7 ....
....|..|R-- .... ....|--- .... ....|--- .... ....
....|..|--- .... ....|--- .... ....|--- .... ....
....|..|--- .... ....|--- .... ....|E-4 .F.. ....
 A-3|..|A-1 2A.. ....|A-4 ...A ....|E-3 ..B. ....
 A-3|..|A-1 .A.. ....|R-- .... ....|R-- .... ....
....|..|--- .... ....|--- .... ....|R-- .... ....
....|..|--- .... ....|G-4 ...7 ....|E-4 .F.F ....
....|..|C-4 AF.. ....|--- .... ....|G-3 ..C7 ....
....|..|R-- .... ....|--- .... ....|--- .... ....
....|..|--- .... ....|--- .... ....|R-- .... ....
....|..|--- .... ....|R-- .... ....|R-- .... ....
 A-3|..|A-1 2A.. ....|A-4 .... ....|C-4 ..2. ....
 A-3|..|A-1 .A.. ....|--- .... ....|--- .... ....
....|..|--- .... ....|--- .... ....|--- .... ....
....|..|--- .... ....|R-- .... ....|R-- .... ....
....|..|C-4 AF.. ....|A-4 .... ....|C-4 .... ....
....|..|R-- .... ....|--- .... ....|--- .... ....
....|..|--- .... ....|--- .... ....|--- .... ....
....|..|--- .... ....|--- .... ....|E-4 .F.A ....
 A-3|..|A-1 2A.. ....|--- .... ....|R-- .... ....
 A-3|..|A-1 .A.. ....|--- .... ....|--- .... ....
....|..|--- .... ....|--- .... ....|--- .... ....
....|..|--- .... ....|--- .... ....|--- .... ....
....|..|C-4 AF.. ....|R-- .... ....|R-- .... ....
....|..|R-- .... ....|--- .... ....|--- .... ....
....|..|--- .... ....|--- .... ....|--- .... ....
....|..|--- .... ....|--- .... ....|--- .... ....
 C-4|..|C-2 2A.. ....|--- .... ....|--- .... ....
 C-4|..|C-2 .A.. ....|--- .... ....|--- .... ....
....|..|--- .... ....|--- .... ....|--- .... ....
....|..|--- .... ....|--- .... ....|E-4 ...7 ....
....|..|C-4 AF.. ....|--- .... ....|R-- .... ....
....|..|R-- .... ....|--- .... ....|--- .... ....
....|..|--- .... ....|--- .... ....|--- .... ....
....|..|--- .... ....|--- .... ....|--- .... ....
 C-4|..|C-2 2A.. ....|R-- .... ....|R-- .... ....
 C-4|..|C-2 .A.. ....|--- .... ....|--- .... ....
....|..|--- .... ....|--- .... ....|--- .... ....
....|..|--- .... ....|--- .... ....|--- .... ....

[Pattern32]
....|..|C-4 AF.F ....|--- .... ....|--- .... ....
....|..|R-- .... ....|--- .... ....|--- .... ....
....|..|--- .... ....|--- .... ....|--- .... ....
....|..|--- .... ....|--- .... ....|--- .... ....
 G-3|..|G-1 2A.. ....|--- .... ....|--- .... ....
 G-3|..|G-1 .A.. ....|--- .... ....|--- .... ....
....|..|--- .... ....|--- .... ....|--- .... ....
....|..|--- .... ....|--- .... ....|--- .... ....
....|..|C-4 AF.. ....|--- .... ....|--- .... ....
....|..|R-- .... ....|--- .... ....|--- .... ....
....|..|--- .... ....|--- .... ....|--- .... ....
....|..|--- .... ....|--- .... ....|--- .... ....
 D-4|..|D-2 2A.. ....|--- .... ....|--- .... ....
 D-4|..|D-2 .A.. ....|--- .... ....|--- .... ....
....|..|--- .... ....|--- .... ....|--- .... ....
....|..|--- .... ....|--- .... ....|--- .... ....
....|..|C-4 AF.. ....|--- .... ....|--- .... ....
....|..|R-- .... ....|--- .... ....|--- .... ....
....|..|--- .... ....|--- .... ....|--- .... ....
....|..|--- .... ....|--- .... ....|--- .... ....
 A-3|..|A-1 2A.. ....|C-5 2FFF ....|C-4 2F.F ....
 A-3|..|A-1 .A.. ....|--- .... ....|--- .... ....
....|..|--- .... ....|R-- .... ....|R-- .... ....
....|..|--- .... ....|--- .... ....|--- .... ....
 C-3|..|C-4 AF.. ....|C-5 .... ....|C-5 .C.. ....
....|..|R-- .... ....|--- .... ....|--- .... ....
....|..|--- .... ....|--- .... ....|--- .... ....
....|..|--- .... ....|R-- .... ....|R-- .... ....
 A-3|..|A-1 2A.. ....|A-4 .... ....|C-4 .F.. ....
 A-3|..|A-1 .A.. ....|--- .... ....|--- .... ....
....|..|--- .... ....|--- .... ....|--- .... ....
....|..|--- .... ....|R-- .... ....|R-- .... ....
 C-3|..|C-4 AF.. ....|C-5 .... ....|C-5 .C.. ....
....|..|R-- .... ....|--- .... ....|--- .... ....
....|..|--- .... ....|R-- .... ....|R-- .... ....
....|..|--- .... ....|R-- .... ....|R-- .... ....
 A-3|..|A-1 2A.. ....|C-5 .... ....|C-4 .F.. ....
 A-3|..|A-1 .A.. ....|--- .... ....|--- .... ....
....|..|--- .... ....|--- .... 11.1|--- .... ....
....|..|--- .... ....|R-- .... ....|R-- .... ....
....|..|C-4 AF.. ....|A-4 .F.A ....|R-- .... ....
....|..|R-- .... ....|--- .... ....|--- .... ....
....|..|--- .... ....|--- .... 11.1|--- .... ....
....|..|--- .... ....|R-- .... ....|R-- .... ....
 A-3|..|A-1 2A.. ....|A-4 ...F ....|C-4 .... ....
 A-3|..|A-1 .A.. ....|--- .... ....|--- .... ....
....|..|--- .... ....|R-- .... ....|R-- .... ....
....|..|--- .... ....|R-- .... ....|R-- .... ....
 C-3|..|C-4 AF.. ....|C-5 ..F. ....|C-5 .C.. ....
....|..|R-- .... ....|--- .... ....|--- .... ....
....|..|--- .... ....|--- .... 11.1|--- .... ....
....|..|--- .... ....|R-- .... ....|R-- .... ....
 C-4|..|C-2 2A.. ....|C-5 .... ....|E-4 .F.. ....
 C-4|..|C-2 .A.. ....|--- .... ....|--- .... ....
....|..|--- .... ....|R-- .... ....|R-- .... ....
....|..|--- .... ....|R-- .... ....|R-- .... ....
 A-3|..|C-4 AF.. ....|A-4 .F.. ....|A-4 .C.. ....
....|..|R-- .... ....|--- .... ....|--- .... ....
....|..|--- .... ....|R-- .... ....|R-- .... ....
....|..|--- .... ....|R-- .... ....|R-- .... ....
 C-4|..|C-2 2A.. ....|C-5 .... ....|E-4 .F.. ....
 C-4|..|C-2 .A.. ....|--- .... ....|--- .... ....
....|..|--- .... ....|--- .... 11.1|--- .... ....
....|..|--- .... ....|--- .... ....|--- .... ....

[Pattern33]
....|..|C-4 AF.F ....|C-5 2F.A ....|R-- .... ....
....|..|R-- .... ....|--- .... ....|--- .... ....
....|..|--- .... ....|R-- .... ....|R-- .... ....
....|..|--- .... ....|R-- .... ....|R-- .... ....
 F-4|..|F-2 2A.. ....|A-4 ...7 ....|A-4 2F.F ....
 F-4|..|F-2 .A.. ....|--- .... ....|--- .... ....
....|..|--- .... ....|R-- .... ....|R-- .... ....
....|..|--- .... ....|--- .... ....|--- .... ....
....|..|C-4 AF.. ....|C-5 .... ....|C-5 ...7 ....
....|..|R-- .... ....|--- .... ....|--- .... ....
....|..|--- .... ....|--- .... ....|--- .... ....
....|..|--- .... ....|--- .... ....|--- .... ....
 F-4|..|F-2 2A.. ....|C-5 .... ....|A-4 ...F ....
 F-4|..|F-2 .A.. ....|--- .... ....|--- .... ....
....|..|--- .... ....|R-- .... ....|R-- .... ....
....|..|--- .... ....|--- .... ....|--- .... ....
....|..|C-4 AF.. ....|A-4 .... ....|A-4 ...7 ....
....|..|R-- .... ....|--- .... ....|--- .... ....
....|..|--- .... ....|R-- .... ....|R-- .... ....
....|..|--- .... ....|--- .... ....|--- .... ....
 A-3|..|A-1 2A.. ....|C-5 ..FF ....|C-4 ...F ....
 A-3|..|A-1 .A.. ....|--- .... ....|--- .... ....
....|..|--- .... ....|R-- .... ....|R-- .... ....
....|..|--- .... ....|--- .... ....|--- .... ....
 C-3|..|C-4 AF.. ....|C-5 .... ....|C-5 .C.. ....
....|..|R-- .... ....|--- .... ....|--- .... ....
....|..|--- .... ....|--- .... ....|--- .... ....
....|..|--- .... ....|--- .... ....|--- .... ....
 A-3|..|A-1 2A.. ....|A-4 .... ....|C-4 .F.. ....
 A-3|..|A-1 .A.. ....|--- .... ....|--- .... ....
....|..|--- .... ....|R-- .... ....|R-- .... ....
....|..|--- .... ....|--- .... ....|--- .... ....
 C-3|..|C-4 AF.. ....|C-5 .... ....|C-5 .C.. ....
....|..|R-- .... ....|--- .... ....|--- .... ....
....|..|--- .... ....|R-- .... ....|R-- .... ....
....|..|--- .... ....|--- .... ....|--- .... ....
 A-3|..|A-1 2A.. ....|A-4 .... ....|C-4 .F.. ....
 A-3|..|A-1 .A.. ....|--- .... ....|--- .... ....
....|..|--- .... ....|R-- .... ....|R-- .... ....
....|..|--- .... ....|--- .... ....|--- .... ....
 C-3|..|C-4 AF.. ....|C-5 .F.. ....|C-5 .C.. ....
....|..|R-- .... ....|--- .... ....|--- .... ....
....|..|--- .... ....|R-- .... ....|R-- .... ....
....|..|--- .... ....|R-- .... ....|R-- .... ....
 A-3|..|A-1 2A.. ....|A-4 .... ....|C-4 .F.. ....
 A-3|..|A-1 .A.. ....|--- .... ....|--- .... ....
....|..|--- .... ....|R-- .... ....|R-- .... ....
....|..|--- .... ....|--- .... ....|--- .... ....
 C-3|..|C-4 AF.. ....|C-5 .... ....|C-5 .C.. ....
....|..|R-- .... ....|--- .... ....|--- .... ....
....|..|--- .... ....|R-- .... ....|R-- .... ....
....|..|--- .... ....|R-- .... ....|R-- .... ....
 C-4|..|C-2 2A.. ....|A-4 .... ....|E-4 .F.. ....
 C-4|..|C-2 .A.. ....|--- .... ....|--- .... ....
....|..|--- .... ....|R-- .... ....|R-- .... ....
....|..|--- .... ....|R-- .... ....|R-- .... ....
 A-3|..|C-4 AF.. ....|A-4 .... ....|A-4 .C.. ....
....|..|R-- .... ....|--- .... ....|--- .... ....
....|..|--- .... ....|R-- .... ....|R-- .... ....
....|..|--- .... ....|R-- .... ....|R-- .... ....
 C-4|..|C-2 2A.. ....|A-4 .... ....|E-4 .F.. ....
 C-4|..|C-2 .A.. ....|--- .... ....|--- .... ....
....|..|--- .... ....|R-- .... ....|R-- .... ....
....|..|--- .... ....|R-- .... ....|R-- .... ....

[Pattern34]
 G-4|..|C-4 AF.F ....|G-4 2F.F ....|G-4 2C.F ....
....|..|R-- .... ....|--- .... ....|--- .... ....
....|..|--- .... ....|--- .... ....|--- .... ....
....|..|--- .... ....|R-- .... ....|R-- .... ....
 G-3|..|G-1 2A.. ....|E-4 .... ....|B-3 .F.. ....
 G-3|..|G-1 .A.. ....|--- .... ....|--- .... ....
....|..|--- .... ....|R-- .... ....|R-- .... ....
....|..|--- .... ....|R-- .... ....|R-- .... ....
 G-4|..|C-4 AF.. ....|G-4 .... ....|G-4 .C.. ....
....|..|R-- .... ....|--- .... ....|--- .... ....
....|..|--- .... ....|--- .... ....|--- .... ....
....|..|--- .... ....|R-- .... ....|R-- .... ....
 G-3|..|G-1 2A.. ....|A-4 .... ....|F-4 .F.. ....
 G-3|..|G-1 .A.. ....|--- .... ....|--- .... ....
....|..|--- .... ....|--- .... ....|--- .... ....
....|..|--- .... ....|R-- .... ....|R-- .... ....
 A-3|..|C-4 AF.. ....|A-4 .... ....|A-4 .C.. ....
....|..|R-- .... ....|--- .... ....|--- .... ....
....|..|--- .... ....|R-- .... ....|R-- .... ....
....|..|--- .... ....|R-- .... ....|R-- .... ....
 A-3|..|A-1 2A.. ....|A-4 ...7 ....|E-4 .F.7 ....
 A-3|..|A-1 .A.. ....|--- .... ....|--- .... ....
....|..|--- .... ....|--- .... ....|--- .... ....
....|..|--- .... ....|--- .... ....|--- .... ....
....|..|C-4 AF.. ....|G-4 .... ....|G-4 .... ....
....|..|R-- .... ....|--- .... ....|--- .... ....
....|..|--- .... ....|--- .... ....|--- .... ....
....|..|--- .... ....|R-- .... ....|R-- .... ....
 A-3|..|A-1 2A.. ....|E-4 .... ....|B-3 .... ....
 A-3|..|A-1 .A.. ....|--- .... ....|--- .... ....
....|..|--- .... ....|R-- .... ....|R-- .... ....
....|..|--- .... ....|--- .... ....|--- .... ....
....|..|C-4 AF.. ....|G-4 .... ....|G-4 .... ....
....|..|R-- .... ....|--- .... ....|--- .... ....
....|..|--- .... ....|--- .... ....|--- .... ....
....|..|--- .... ....|--- .... ....|--- .... ....
 A-3|..|A-1 2A.. ....|A-4 .... ....|F-4 .... ....
 A-3|..|A-1 .A.. ....|--- .... ....|--- .... ....
....|..|--- .... ....|--- .... ....|--- .... ....
....|..|--- .... ....|R-- .... ....|R-- .... ....
....|..|C-4 AF.. ....|A-4 .... ....|A-4 .... ....
....|..|R-- .... ....|--- .... ....|--- .... ....
....|..|--- .... ....|--- .... ....|--- .... ....
....|..|--- .... ....|--- .... ....|--- .... ....
 A-3|..|A-1 2A.. ....|--- .... ....|--- .... ....
 A-3|..|A-1 .A.. ....|--- .... ....|--- .... ....
....|..|--- .... ....|--- .... ....|--- .... ....
....|..|--- .... ....|--- .... ....|--- .... ....
 E-4|..|C-4 AF.. ....|E-5 ..FF ....|E-5 .C.F ....
....|..|R-- .... ....|--- .... ....|--- .... ....
....|..|--- .... ....|--- .... ....|--- .... ....
....|..|--- .... ....|--- .... 11.1|--- .... ....
 C-4|..|C-2 2A.. ....|--- .... ....|--- .F.. ....
 C-4|..|C-2 .A.. ....|R-- .... ....|R-- .... ....
....|..|--- .... ....|--- .... ....|--- .... ....
....|..|--- .... ....|--- .... ....|--- .... ....
 C-3|..|C-4 AF.. ....|C-5 .... ....|C-5 .C.. ....
....|..|R-- .... ....|--- .... ....|--- .... ....
....|..|--- .... ....|--- .... 11.1|--- .... ....
....|..|--- .... ....|--- .... ....|--- .... ....
 C-4|..|C-2 2A.. ....|R-- .... ....|R-- .... ....
 C-4|..|C-2 .A.. ....|R-- .... ....|R-- .... ....
....|..|--- .... ....|--- .... ....|--- .... ....
....|..|--- .... ....|--- .... ....|--- .... ....

[Pattern35]
 A-3|..|C-4 AF.F ....|A-4 2F.F ....|A-4 2C.F ....
....|..|R-- .... ....|--- .... ....|R-- .... ....
....|..|--- .... ....|R-- .... ....|--- .... ....
....|..|--- .... ....|--- .... ....|--- .... ....
 F-4|..|F-2 2A.. ....|E-4 ..F. ....|C-5 .F.A ....
 F-4|..|F-2 .A.. ....|--- .... ....|R-- .... ....
....|..|--- .... ....|R-- .... ....|--- .... ....
....|..|--- .F.. ....|--- .... ....|--- .... ....
 G-4|..|C-4 A... ....|G-4 .... ....|G-4 .C.F ....
....|..|R-- .... ....|--- .... ....|--- .... ....
....|..|--- .... ....|R-- .... ....|R-- .... ....
....|..|--- .... ....|--- .... ....|--- .... ....
 A-3|..|F-2 2... ....|A-4 .... ....|A-4 .C.. ....
 F-4|..|F-2 .A.. ....|R-- .... ....|R-- .... ....
....|..|--- .... ....|--- .... ....|--- .... ....
....|..|--- .... ....|R-- .... ....|R-- .... ....
....|..|C-4 AF.. ....|A-4 .... ....|E-4 .FB. ....
....|..|R-- .... ....|R-- .... ....|R-- .... ....
....|..|--- .... ....|--- .... ....|--- .... ....
....|..|--- .... ....|--- .... ....|G-4 .F.A ....
 C-4|..|C-2 2A.. ....|G-4 .F.A ....|--- .... ....
 C-4|..|C-2 .A.. ....|R-- .... ....|R-- .... ....
....|..|--- .... ....|--- .... ....|R-- .... ....
....|..|--- .... ....|R-- .... ....|R-- .... ....
....|..|C-4 AF.. ....|A-4 ...7 ....|C-4 ..2F ....
....|..|R-- .... ....|--- .... ....|--- .... ....
....|..|--- .... ....|--- .... ....|--- .... ....
....|..|--- .... ....|--- .... ....|E-4 .F.7 ....
 A-3|..|A-1 2A.. ....|A-4 ...A ....|E-4 ..BA ....
 A-3|..|A-1 .A.. ....|--- .... ....|R-- .... ....
....|..|--- .... ....|R-- .... ....|R-- .... ....
....|..|--- .... ....|--- .... ....|G-4 .F.7 ....
....|..|C-4 AF.. ....|G-4 ...7 ....|A-3 ..BF ....
....|..|R-- .... ....|--- .... ....|--- .... ....
....|..|--- .... ....|--- .... ....|R-- .... ....
....|..|--- .... ....|--- .... ....|R-- .... ....
 A-3|..|A-1 2A.. ....|A-4 .... ....|E-3 .... ....
 A-3|..|A-1 .A.. ....|--- .... ....|--- .... ....
....|..|--- .... ....|--- .... ....|R-- .... ....
....|..|--- .... ....|R-- .... ....|R-- .... ....
....|..|C-4 AF.. ....|A-4 .... ....|G-3 ..C. ....
....|..|R-- .... ....|--- .... ....|--- .... ....
....|..|--- .... ....|--- .... ....|R-- .... ....
....|..|--- .... ....|--- .... ....|--- .... ....
 A-3|..|A-1 2A.. ....|--- .... ....|C-4 ..2. ....
 A-3|..|A-1 .A.. ....|--- .... ....|--- .... ....
....|..|--- .... ....|--- .... ....|R-- .... ....
....|..|--- .... ....|--- .... ....|--- .... ....
....|..|C-4 AF.. ....|R-- .... ....|C-4 .... ....
....|..|R-- .... ....|--- .... ....|--- .... ....
....|..|--- .... ....|--- .... ....|R-- .... ....
....|..|--- .... ....|--- .... ....|--- .... ....
 C-4|..|C-2 2A.. ....|--- .... ....|G-3 ..CA ....
 C-4|..|C-2 .A.. ....|--- .... ....|--- .... ....
....|..|--- .... ....|--- .... ....|R-- .... ....
....|..|--- .... ....|--- .... ....|--- .... ....
....|..|C-4 AF.. ....|--- .... ....|A-3 ..B7 ....
....|..|R-- .... ....|--- .... ....|--- .... ....
....|..|--- .... ....|--- .... ....|--- .... ....
....|..|--- .... ....|--- .... ....|R-- .... ....
 C-4|..|C-2 2A.. ....|R-- .... ....|E-3 .... ....
 C-4|..|C-2 .A.. ....|--- .... ....|--- .... ....
....|..|--- .... ....|--- .... ....|R-- .... ....
....|..|--- .... ....|--- .... ....|--- .... ....

[Pattern36]
....|..|C-4 AF.F ....|--- .... ....|G-3 2FC7 ....
....|..|R-- .... ....|--- .... ....|--- .... ....
....|..|--- .... ....|--- .... ....|R-- .... ....
....|..|--- .... ....|--- .... ....|--- .... ....
 G-3|..|G-1 2A.. ....|--- .... ....|C-4 ..2. ....
 G-3|..|G-1 .A.. ....|--- .... ....|--- .... ....
....|..|--- .... ....|--- .... ....|--- .... ....
....|..|--- .... ....|--- .... ....|R-- .... ....
....|..|C-4 AF.. ....|--- .... ....|C-4 .... ....
....|..|R-- .... ....|--- .... ....|--- .... ....
....|..|--- .... ....|--- .... ....|--- .... ....
....|..|--- .... ....|--- .... ....|--- .... ....
 D-4|..|D-2 2A.. ....|--- .... ....|--- .... ....
 D-4|..|D-2 .A.. ....|--- .... ....|--- .... ....
....|..|--- .... ....|--- .... ....|--- .... ....
....|..|--- .... ....|--- .... ....|--- .... ....
....|..|C-4 AF.. ....|--- .... ....|A-3 ..3F ....
....|..|R-- .... ....|--- .... ....|--- .... ....
....|..|--- .... ....|--- .... ....|R-- .... ....
....|..|--- .... ....|--- .... ....|R-- .... ....
....|..|B-8 J... ....|--- .... ....|A-3 .... ....
 A-3|..|A-1 2A.. ....|--- .... ....|--- .... ....
 G-4|..|R-- .... ....|G-4 2FFF ....|G-4 .C.. ....
....|..|--- .... ....|--- .... 11.1|--- .... ....
....|..|C-4 AF.. ....|G-4 .F.. ....|A-3 .F3. ....
....|..|R-- .... ....|R-- .... ....|R-- .... ....
 G-4|..|--- .... ....|G-4 .... ....|G-4 .C.. ....
....|..|--- .... ....|R-- .... ....|R-- .... ....
....|..|B-8 J... ....|G-4 .... ....|A-3 .F3. ....
 C-4|..|C-2 2A.. ....|--- .... 11.1|--- .... ....
 F-4|..|R-- .... ....|F-4 .... ....|F-4 .C.. ....
....|..|--- .... ....|--- .... 11.1|--- .... ....
....|..|C-4 AF.. ....|R-- .... ....|A-3 .F3. ....
 E-4|..|E-2 2A.. ....|--- .... ....|--- .... ....
....|..|R-- .... ....|G-4 ...A ....|R-- .... ....
 E-4|..|--- .... ....|--- .... ....|E-4 .C.. ....
....|..|B-8 JF.. ....|E-4 ...F ....|A-3 .F3. ....
 E-4|..|E-2 2A.. ....|G-4 ...A ....|R-- .... ....
....|..|R-- .... ....|R-- .... ....|R-- .... ....
....|..|--- .... ....|R-- .... ....|R-- .... ....
....|..|C-4 AF.. ....|G-4 .... ....|A-3 .... ....
 F-4|..|F-2 2A.. ....|--- .... ....|--- .... ....
....|..|R-- .... ....|F-4 .... ....|R-- .... ....
....|..|--- .... ....|--- .... ....|--- .... ....
....|..|B-8 JF.. ....|R-- .... ....|A-3 .... ....
 F-4|..|F-2 2A.. ....|--- .... ....|--- .... ....
....|..|R-- .... ....|G-4 ...7 ....|G-4 .F.7 ....
....|..|--- .... ....|E-4 ...A ....|E-4 ...A ....
....|..|C-4 AF.. ....|G-4 ...7 ....|A-3 ..3F ....
....|..|R-- .... ....|R-- .... ....|R-- .... ....
....|..|R-- .... ....|G-4 .... ....|G-4 .F.7 ....
....|..|--- .... ....|R-- .... ....|R-- .... ....
....|..|B-8 J... ....|G-4 ...F ....|A-3 ..3F ....
 A-3|..|A-1 2A.. ....|R-- .... ....|R-- .... ....
 G-4|..|R-- .... ....|G-4 .... ....|G-4 .C.. ....
....|..|--- .... ....|--- .... ....|--- .... ....
....|..|C-4 AF.. ....|G-4 .... ....|A-3 .F3. ....
 C-4|..|C-2 2A.. ....|R-- .... ....|R-- .... ....
 G-4|..|R-- .... ....|G-4 .... ....|G-4 .C.. ....
....|..|--- .... ....|E-4 ...7 ....|E-4 .F.7 ....
....|..|B-8 JF.. ....|G-4 ...F ....|A-3 ..3F ....
 C-4|..|C-2 2A.. ....|--- .... ....|--- .... ....
 F-4|..|R-- .... ....|F-4 .... ....|F-4 .C.. ....
....|..|--- .... ....|--- .... ....|--- .... ....

[Pattern37]
....|..|C-4 AF.F ....|C-5 2F.F ....|C-4 2F7F ....
 G-3|..|G-1 2A.. ....|R-- .... ....|E-4 ..8. ....
....|..|F-2 .F.7 ....|--- .... ....|R-- .... ....
....|..|R-- .... ....|--- .... ....|--- .... ....
....|..|B-8 J..F ....|E-5 ...7 ....|C-4 ..7. ....
 G-4|..|G-2 2A.. ....|R-- .... ....|R-- .... ....
 G-4|..|G-2 .A.. ....|--- .... ....|R-- .... ....
....|..|R-- .... ....|R-- .... ....|R-- .... ....
....|..|C-4 AF.. ....|C-5 ...F ....|C-4 .... ....
....|..|G-1 2..7 ....|--- .... ....|E-5 .F.A ....
....|..|R-- .... ....|--- .... 11.1|R-- .... ....
....|..|R-- .... ....|--- .... ....|--- .... ....
....|..|B-8 J..F ....|C-5 ...7 ....|C-4 ..7F ....
 G-4|..|G-2 2A.. ....|R-- .... ....|E-4 ..87 ....
 G-4|..|G-2 .A.. ....|--- .... ....|R-- .... ....
....|..|R-- .... ....|--- .... ....|R-- .... ....
....|..|C-4 AF.. ....|A-4 ..FF ....|A-4 ..3F ....
 A-3|..|A-1 2A.. ....|R-- .... ....|E-4 ..87 ....
 A-2|..|A-1 .A.. ....|--- .... ....|R-- .... ....
....|..|R-- .... ....|R-- .... ....|R-- .... ....
....|..|B-8 JF.. ....|A-4 .F.7 ....|A-4 ..3F ....
 A-3|..|A-1 2A.. ....|--- .... ....|E-5 .F.7 ....
 A-3|..|A-1 .A.. ....|--- .... ....|R-- .... ....
....|..|R-- .... ....|--- .... ....|--- .... ....
....|..|C-4 AF.. ....|A-4 ..FF ....|A-4 ..3F ....
 C-4|..|C-2 2A.. ....|--- .... ....|E-4 ..87 ....
 C-4|..|C-2 .A.. ....|--- .... 11.1|R-- .... ....
....|..|R-- .... ....|--- .... ....|R-- .... ....
....|..|B-8 JF.. ....|A-4 .F.A ....|A-4 ..3F ....
 C-4|..|C-2 2A.. ....|R-- .... ....|R-- .... ....
 C-4|..|C-2 .A.. ....|--- .... ....|R-- .... ....
....|..|R-- .... ....|R-- .... ....|R-- .... ....
....|..|C-4 AF.. ....|E-5 ..FF ....|A-4 .... ....
 E-4|..|E-2 2A.. ....|--- .... ....|A-4 ..4. ....
 E-4|..|E-2 .A.. ....|--- .... 11.1|R-- .... ....
....|..|R-- .... ....|R-- .... ....|R-- .... ....
....|..|B-8 JF.. ....|E-5 .... ....|A-4 ..3. ....
 E-4|..|E-2 2A.. ....|--- .... ....|R-- .... ....
 E-4|..|E-2 .A.. ....|R-- .... ....|R-- .... ....
....|..|R-- .... ....|--- .... ....|R-- .... ....
....|..|C-4 AF.. ....|F-5 .... ....|A-4 .... ....
 F-4|..|F-2 2A.. ....|--- .... ....|E-5 .F.. ....
 F-4|..|F-2 .A.. ....|--- .... 11.1|R-- .... ....
....|..|R-- .... ....|R-- .... ....|R-- .... ....
....|..|B-8 JF.. ....|E-5 .... ....|A-4 ..3. ....
 F-4|..|F-2 2A.. ....|--- .... ....|R-- .... ....
 F-4|..|F-2 .A.. ....|--- .... 11.1|R-- .... ....
....|..|R-- .... ....|R-- .... ....|R-- .... ....
....|..|C-4 AF.. ....|A-4 .F.7 ....|A-4 .... ....
 A-3|..|A-1 2A.. ....|--- .... ....|R-- .... ....
 A-2|..|A-1 .A.. ....|R-- .... ....|R-- .... ....
....|..|R-- .... ....|--- .... ....|--- .... ....
....|..|B-8 JF.. ....|A-4 ...F ....|A-4 .... ....
 A-3|..|A-1 2A.. ....|--- .... ....|A-4 ..4. ....
 A-3|..|A-1 .A.. ....|R-- .... ....|R-- .... ....
....|..|R-- .... ....|R-- .... ....|R-- .... ....
....|..|C-4 AF.. ....|A-4 .... ....|A-4 ..3. ....
 C-4|..|C-2 2A.. ....|--- .... ....|A-4 ..4. ....
 C-4|..|C-2 .A.. ....|--- .... ....|R-- .... ....
....|..|R-- .... ....|R-- .... ....|R-- .... ....
....|..|B-8 JF.. ....|E-5 ...7 ....|A-4 ..3. ....
 C-4|..|C-2 2A.. ....|--- .... ....|E-5 .F.. ....
 C-4|..|C-2 .A.. ....|R-- .... ....|R-- .... ....
....|..|R-- .... ....|--- .... ....|R-- .... ....

[Pattern38]
....|..|C-4 AF.F ....|C-5 2F.F ....|C-4 2F7F ....
 G-3|..|G-1 2A.. ....|R-- .... ....|E-4 ..8. ....
....|..|F-2 .F.7 ....|--- .... ....|R-- .... ....
....|..|R-- .... ....|--- .... ....|--- .... ....
....|..|B-8 J..F ....|E-5 ...7 ....|C-4 ..7. ....
 G-4|..|G-2 2A.. ....|R-- .... ....|R-- .... ....
 G-4|..|G-2 .A.. ....|--- .... ....|R-- .... ....
....|..|R-- .... ....|R-- .... ....|R-- .... ....
....|..|C-4 AF.. ....|C-5 ...F ....|C-4 .... ....
....|..|G-1 2..7 ....|--- .... ....|E-5 .F.A ....
....|..|R-- .... ....|--- .... 11.1|R-- .... ....
....|..|R-- .... ....|--- .... ....|--- .... ....
....|..|B-8 J..F ....|C-5 ...7 ....|C-4 ..7F ....
 G-4|..|G-2 2A.. ....|R-- .... ....|E-4 ..87 ....
 G-4|..|G-2 .A.. ....|--- .... ....|R-- .... ....
....|..|R-- .... ....|--- .... ....|R-- .... ....
....|..|C-4 AF.. ....|G-4 ..FF ....|A-3 ..3F ....
....|..|R-- .... ....|R-- .... ....|E-4 ..87 ....
....|..|G-2 2..A ....|--- .... ....|R-- .... ....
....|..|--- .... ....|R-- .... ....|R-- .... ....
....|..|B-8 J..F ....|A-4 ...7 ....|A-3 ..3F ....
 A-3|..|A-1 2A.. ....|--- .... ....|E-5 .F.7 ....
....|..|G-2 .F.7 ....|R-- .... ....|R-- .... ....
....|..|R-- .... ....|--- .... ....|--- .... ....
....|..|C-4 A..F ....|G-4 ...F ....|A-3 ..3F ....
....|..|G-1 2..7 ....|--- .... ....|E-4 ..87 ....
....|..|G-2 ...A ....|--- .... 11.1|R-- .... ....
....|..|R-- .... ....|--- .... ....|R-- .... ....
....|..|B-8 J..F ....|G-4 .F.A ....|A-3 ..3F ....
 C-4|..|C-2 2A.. ....|R-- .... ....|R-- .... ....
....|..|G-2 .F.7 ....|R-- .... ....|R-- .... ....
....|..|--- .... ....|--- .... ....|--- .... ....
....|..|C-4 A..F ....|G-4 ...F ....|A-3 .... ....
 E-4|..|E-2 2A.. ....|--- .... ....|--- .... ....
....|..|R-- .... ....|R-- .... ....|R-- .... ....
....|..|--- .... ....|--- .... ....|--- .... ....
....|..|B-8 JF.. ....|G-4 .... ....|A-3 .... ....
 E-4|..|E-2 2A.. ....|--- .... ....|--- .... ....
....|..|G-2 .F.7 ....|R-- .... ....|R-- .... ....
....|..|R-- .... ....|--- .... ....|R-- .... ....
....|..|C-4 A..F ....|G-4 ..F. ....|A-3 .... ....
 F-4|..|F-2 2A.. ....|--- .... 11.1|--- .... ....
....|..|R-- .... ....|R-- .... ....|R-- .... ....
....|..|--- .... ....|R-- .... ....|R-- .... ....
....|..|B-8 JF.. ....|G-4 .... ....|A-3 .... ....
 F-4|..|F-2 2A.. ....|--- .... ....|--- .... ....
....|..|R-- .... ....|R-- .... ....|R-- .... ....
....|..|--- .... ....|--- .... ....|--- .... ....
....|..|C-4 AF.. ....|G-4 .F.. ....|A-3 .... ....
....|..|R-- .... ....|--- .... ....|--- .... ....
....|..|R-- .... ....|R-- .... ....|R-- .... ....
....|..|--- .... ....|R-- .... ....|R-- .... ....
....|..|B-8 J... ....|G-4 .... ....|A-3 .... ....
 A-3|..|A-1 2A.. ....|--- .... ....|--- .... ....
....|..|R-- .... ....|R-- .... ....|R-- .... ....
....|..|--- .... ....|R-- .... ....|R-- .... ....
....|..|C-4 AF.. ....|G-4 .... ....|A-3 .... ....
 C-4|..|C-2 2A.. ....|--- .... 11.1|--- .... ....
....|..|R-- .... ....|R-- .... ....|R-- .... ....
....|..|--- .... ....|--- .... ....|--- .... ....
....|..|B-8 JF.. ....|G-4 .... ....|A-3 .... ....
 C-4|..|C-2 2A.. ....|--- .... 11.1|--- .... ....
....|..|R-- .... ....|R-- .... ....|R-- .... ....
....|..|--- .... ....|R-- .... ....|R-- .... ....

[Pattern39]
....|..|C-4 AF.F ....|G-4 2F.F ....|A-3 2F3F ....
 E-4|..|E-2 2A.. ....|--- .... ....|--- .... ....
....|..|R-- .... ....|R-- .... ....|R-- .... ....
....|..|--- .... ....|R-- .... ....|R-- .... ....
....|..|B-8 JF.. ....|G-4 .... ....|A-3 .... ....
 E-4|..|E-2 2A.. ....|R-- .... ....|R-- .... ....
 G-4|..|R-- .... ....|G-4 .... ....|G-4 .C.. ....
....|..|--- .... ....|--- .... ....|--- .... ....
....|..|C-4 AF.. ....|G-4 ...7 ....|A-3 .F3. ....
 F-4|..|F-2 2A.. ....|--- .... ....|--- .... ....
....|..|R-- .... ....|R-- .... ....|R-- .... ....
....|..|--- .... ....|R-- .... ....|R-- .... ....
....|..|B-8 JF.. ....|G-4 ...F ....|A-3 .... ....
 F-4|..|F-2 2A.. ....|R-- .... ....|R-- .... ....
....|..|R-- .... ....|R-- .... ....|R-- .... ....
....|..|--- .... ....|--- .... ....|--- .... ....
....|..|C-4 AF.. ....|G-4 .... ....|A-3 .... ....
....|..|C-2 2..7 ....|R-- .... ....|R-- .... ....
....|..|R-- .... ....|R-- .... ....|R-- .... ....
....|..|--- .... ....|--- .... ....|--- .... ....
....|..|B-8 J..F ....|G-4 ...7 ....|A-3 .... ....
 A-3|..|A-1 2A.. ....|--- .... ....|--- .... ....
....|..|R-- .... ....|R-- .... ....|R-- .... ....
....|..|--- .... ....|R-- .... ....|R-- .... ....
....|..|C-4 AF.. ....|G-4 ...F ....|A-3 .... ....
....|..|E-2 2..7 ....|R-- .... ....|R-- .... ....
....|..|R-- .... ....|R-- .... ....|R-- .... ....
....|..|--- .... ....|--- .... ....|--- .... ....
....|..|B-8 J..F ....|G-4 ...7 ....|A-3 .... ....
 C-4|..|C-2 2A.. ....|R-- .... ....|R-- .... ....
....|..|R-- .... ....|G-4 .... ....|G-4 .F.7 ....
....|..|--- .... ....|--- .... ....|--- .... ....
....|..|C-4 AF.. ....|G-4 ...F ....|A-3 ..3F ....
 E-4|..|E-2 2A.. ....|--- .... ....|--- .... ....
....|..|R-- .... ....|R-- .... ....|R-- .... ....
....|..|--- .... ....|R-- .... ....|R-- .... ....
....|..|B-8 JF.. ....|G-4 .... ....|A-3 .... ....
 E-4|..|E-2 2A.. ....|R-- .... ....|R-- .... ....
....|..|R-- .... ....|R-- .... ....|R-- .... ....
....|..|--- .... ....|--- .... ....|--- .... ....
....|..|C-4 AF.. ....|G-4 .... ....|A-3 .... ....
 F-4|..|F-2 2A.. ....|--- .... ....|--- .... ....
....|..|R-- .... ....|R-- .... ....|R-- .... ....
....|..|--- .... ....|--- .... ....|--- .... ....
....|..|B-8 JF.. ....|G-4 .... ....|A-3 .... ....
 F-4|..|F-2 2A.. ....|--- .... ....|--- .... ....
....|..|R-- .... ....|R-- .... ....|R-- .... ....
....|..|--- .... ....|--- .... ....|--- .... ....
....|..|C-4 AF.. ....|G-4 .... ....|A-3 .... ....
....|..|R-- .... ....|--- .... ....|--- .... ....
....|..|R-- .... ....|R-- .... ....|R-- .... ....
....|..|--- .... ....|--- .... ....|--- .... ....
....|..|B-8 J... ....|G-4 .... ....|A-3 .... ....
 G-4|..|G-2 2A.. ....|--- .... ....|--- .... ....
....|..|R-- .... ....|R-- .... ....|R-- .... ....
....|..|--- .... ....|--- .... ....|--- .... ....
....|..|C-4 AF.. ....|G-4 .... ....|A-3 .... ....
....|..|E-2 2..7 ....|--- .... ....|--- .... ....
....|..|R-- .... ....|R-- .... ....|R-- .... ....
....|..|--- .... ....|--- .... ....|--- .... ....
....|..|B-8 J..F ....|G-4 .... ....|A-3 .... ....
 G-4|..|G-2 2A.. ....|--- .... ....|--- .... ....
....|..|R-- .... ....|R-- .... ....|R-- .... ....
....|..|--- .... ....|--- .... ....|--- .... ....

[Pattern40]
....|..|C-4 AF.F ....|G-4 2F.F ....|A-3 2F3F ....
....|..|F-2 2..7 ....|--- .... ....|--- .... ....
....|..|R-- .... ....|R-- .... ....|R-- .... ....
....|..|--- .... ....|--- .... ....|--- .... ....
....|..|B-8 J..F ....|G-4 ..F. ....|A-3 .... ....
 G-4|..|G-2 2A.. ....|R-- .... ....|R-- .... ....
 G-4|..|R-- .... ....|G-4 .... ....|G-4 .C.. ....
....|..|--- .... ....|--- .... ....|--- .... ....
....|..|C-4 AF.7 ....|G-4 ...7 ....|A-3 .F3. ....
....|..|R-- .... ....|--- .... ....|--- .... ....
....|..|R-- .... ....|R-- .... ....|R-- .... ....
....|..|--- .... ....|R-- .... ....|R-- .... ....
 G-4|..|G-2 2A.F ....|G-4 .F.F ....|A-3 .... ....
....|..|G-2 .F.7 ....|--- .... ....|--- .... ....
....|..|--- .... ....|R-- .... ....|R-- .... ....
....|..|R-- .... ....|--- .... ....|--- .... ....
....|..|C-4 A..F ....|G-4 .... ....|A-3 .... ....
....|..|R-- .... ....|R-- .... ....|R-- .... ....
....|..|--- .... ....|R-- .... ....|R-- .... ....
....|..|--- .... ....|--- .... ....|--- .... ....
....|..|B-8 J... ....|G-4 ...7 ....|A-3 .... ....
 A-3|..|A-1 2A.. ....|--- .... ....|--- .... ....
....|..|R-- .... ....|R-- .... ....|R-- .... ....
....|..|--- .... ....|R-- .... ....|R-- .... ....
....|..|C-4 AF.. ....|G-4 ...F ....|A-3 .... ....
....|..|R-- .... ....|--- .... ....|--- .... ....
....|..|--- .... ....|R-- .... ....|R-- .... ....
....|..|R-- .... ....|--- .... ....|--- .... ....
....|..|B-8 J... ....|G-4 ...7 ....|A-3 .... ....
 C-4|..|C-2 2A.. ....|R-- .... ....|R-- .... ....
....|..|R-- .... ....|G-4 .... ....|G-4 .F.7 ....
....|..|--- .... ....|--- .... ....|--- .... ....
....|..|C-4 AF.. ....|G-4 ...F ....|A-3 ..3F ....
 E-4|..|E-2 2A.. ....|--- .... ....|--- .... ....
....|..|R-- .... ....|R-- .... ....|R-- .... ....
....|..|--- .... ....|R-- .... ....|R-- .... ....
....|..|B-8 JF.. ....|G-4 .... ....|A-3 .... ....
 E-4|..|E-2 2A.. ....|--- .... ....|--- .... ....
....|..|R-- .... ....|R-- .... ....|R-- .... ....
....|..|R-- .... ....|--- .... ....|--- .... ....
....|..|C-4 AF.. ....|G-4 .... ....|A-3 .... ....
 F-4|..|F-2 2A.. ....|--- .... ....|--- .... ....
....|..|R-- .... ....|R-- .... ....|R-- .... ....
....|..|--- .... ....|R-- .... ....|R-- .... ....
....|..|B-8 JF.. ....|G-4 .... ....|A-3 .... ....
 F-4|..|F-2 2A.. ....|--- .... ....|--- .... ....
....|..|R-- .... ....|R-- .... ....|R-- .... ....
....|..|--- .... ....|--- .... ....|--- .... ....
....|..|C-4 AF.. ....|G-4 .... ....|A-3 .... ....
....|..|R-- .... ....|--- .... ....|--- .... ....
....|..|R-- .... ....|R-- .... ....|R-- .... ....
....|..|--- .... ....|R-- .... ....|R-- .... ....
....|..|B-8 J... ....|G-4 .... ....|A-3 .... ....
 A-3|..|A-1 2A.. ....|--- .... ....|--- .... ....
....|..|R-- .... ....|R-- .... ....|R-- .... ....
....|..|--- .... ....|R-- .... ....|R-- .... ....
....|..|C-4 AF.. ....|G-4 .... ....|A-3 .... ....
 C-4|..|C-2 2A.. ....|--- .... ....|--- .... ....
....|..|R-- .... ....|R-- .... ....|R-- .... ....
....|..|--- .... ....|--- .... ....|--- .... ....
....|..|B-8 JF.. ....|G-4 .... ....|A-3 .... ....
 C-4|..|C-2 2A.. ....|--- .... ....|--- .... ....
....|..|R-- .... ....|R-- .... ....|R-- .... ....
....|..|--- .... ....|R-- .... ....|R-- .... ....

[Pattern41]
....|..|C-4 AF.F ....|G-4 2F.F ....|A-3 2F3F ....
 E-4|..|E-2 2A.. ....|--- .... ....|--- .... ....
....|..|R-- .... ....|R-- .... ....|R-- .... ....
....|..|--- .... ....|R-- .... ....|R-- .... ....
....|..|B-8 JF.. ....|G-4 ..F. ....|A-3 .... ....
 E-4|..|E-2 2A.. ....|R-- .... ....|R-- .... ....
 G-4|..|R-- .... ....|G-4 .... ....|G-4 .C.. ....
....|..|--- .... ....|--- .... ....|--- .... ....
....|..|C-4 AF.. ....|G-4 ...7 ....|A-3 .F3. ....
 F-4|..|F-2 2A.. ....|--- .... ....|--- .... ....
....|..|R-- .... ....|R-- .... ....|R-- .... ....
....|..|--- .... ....|R-- .... ....|R-- .... ....
....|..|B-8 JF.. ....|G-4 .F.F ....|A-3 .... ....
 F-4|..|F-2 2A.. ....|R-- .... ....|R-- .... ....
....|..|R-- .... ....|R-- .... ....|R-- .... ....
....|..|--- .... ....|--- .... ....|--- .... ....
....|..|C-4 AF.. ....|G-4 .... ....|A-3 .... ....
....|..|C-2 2..7 ....|R-- .... ....|R-- .... ....
....|..|R-- .... ....|R-- .... ....|R-- .... ....
....|..|--- .... ....|--- .... ....|--- .... ....
....|..|B-8 J..F ....|G-4 ...7 ....|A-3 .... ....
 A-3|..|A-1 2A.. ....|--- .... ....|--- .... ....
....|..|R-- .... ....|R-- .... ....|R-- .... ....
....|..|--- .... ....|R-- .... ....|R-- .... ....
....|..|C-4 AF.. ....|G-4 ...F ....|A-3 .... ....
....|..|E-2 2..7 ....|R-- .... ....|R-- .... ....
....|..|R-- .... ....|R-- .... ....|R-- .... ....
....|..|--- .... ....|--- .... ....|--- .... ....
....|..|B-8 J..F ....|G-4 ...7 ....|A-3 .... ....
 C-4|..|C-2 2A.. ....|R-- .... ....|R-- .... ....
....|..|R-- .... ....|G-4 .... ....|G-4 .F.7 ....
....|..|--- .... ....|--- .... ....|--- .... ....
....|..|C-4 AF.. ....|G-4 ..FF ....|A-3 ..3F ....
 E-4|..|E-2 2A.. ....|--- .... ....|--- .... ....
....|..|R-- .... ....|R-- .... ....|R-- .... ....
....|..|--- .... ....|R-- .... ....|R-- .... ....
....|..|B-8 JF.. ....|G-4 .... ....|A-3 .... ....
 E-4|..|E-2 2A.. ....|R-- .... ....|R-- .... ....
....|..|R-- .... ....|R-- .... ....|R-- .... ....
....|..|--- .... ....|--- .... ....|--- .... ....
....|..|C-4 AF.. ....|G-4 .... ....|A-3 .... ....
 F-4|..|F-2 2A.. ....|--- .... ....|--- .... ....
....|..|R-- .... ....|R-- .... ....|R-- .... ....
....|..|--- .... ....|--- .... ....|--- .... ....
....|..|B-8 JF.. ....|G-4 .... ....|A-3 .... ....
 F-4|..|F-2 2A.. ....|--- .... ....|--- .... ....
....|..|R-- .... ....|R-- .... ....|R-- .... ....
....|..|--- .... ....|--- .... ....|--- .... ....
....|..|C-4 AF.. ....|G-4 .F.. ....|A-3 .... ....
....|..|R-- .... ....|--- .... ....|--- .... ....
....|..|R-- .... ....|R-- .... ....|R-- .... ....
....|..|--- .... ....|--- .... ....|--- .... ....
....|..|B-8 J... ....|G-4 .... ....|A-3 .... ....
 G-4|..|G-2 2A.. ....|--- .... ....|--- .... ....
....|..|R-- .... ....|R-- .... ....|R-- .... ....
....|..|--- .... ....|--- .... ....|--- .... ....
....|..|C-4 AF.. ....|G-4 .... ....|A-3 .... ....
....|..|E-2 2..7 ....|--- .... ....|--- .... ....
 G-4|..|R-- .... ....|G-4 .... ....|G-4 .C.. ....
....|..|--- .... ....|--- .... ....|--- .... ....
....|..|B-8 J..F ....|G-4 ...7 ....|A-3 .F3. ....
 G-4|..|G-2 2A.. ....|--- .... ....|--- .... ....
 G-4|..|R-- .... ....|G-4 ...F ....|G-4 .C.. ....
....|..|--- .... ....|--- .... ....|--- .... ....

[Pattern42]
....|..|C-4 AF.F ....|G-4 2F.7 ....|A-3 2F3F ....
....|..|F-2 2..7 ....|--- .... ....|--- .... ....
....|..|R-- .... ....|R-- .... ....|R-- .... ....
....|..|--- .... ....|--- .... ....|--- .... ....
 G-4|..|B-8 J..F ....|G-4 ...F ....|G-4 .C.. ....
 G-4|..|G-2 2A.. ....|--- .... ....|--- .... ....
....|..|R-- .... ....|R-- .... ....|R-- .... ....
....|..|--- .... ....|--- .... ....|--- .... ....
....|..|C-4 AF.7 ....|G-4 ...7 ....|A-3 .F3. ....
....|..|R-- .... ....|--- .... ....|--- .... ....
....|..|R-- .... ....|R-- .... ....|R-- .... ....
....|..|--- .... ....|--- .... ....|--- .... ....
 G-4|..|G-2 2A.F ....|G-4 ...F ....|A-3 .... ....
....|..|G-2 .F.7 ....|--- .... ....|--- .... ....
....|..|--- .... ....|R-- .... ....|R-- .... ....
....|..|R-- .... ....|R-- .... ....|R-- .... ....
....|..|C-4 A..F ....|F-4 ..F. ....|F-4 ..1. ....
 F-3|..|F-1 2A.. ....|--- .... ....|R-- .... ....
 F-4|..|F-2 .A.. ....|G-4 .F.7 ....|G-4 .F.7 ....
....|..|R-- .... ....|--- .... ....|--- .... ....
 F-3|..|F-1 .A.. ....|R-- .... ....|F-4 ..1F ....
 F-4|..|F-2 .A.. ....|--- .... ....|R-- .... ....
....|..|R-- .... ....|G-4 .... ....|G-4 .F.7 ....
....|..|--- .... ....|--- .... ....|--- .... ....
....|..|C-4 AF.. ....|C-5 ...F ....|F-4 ..1F ....
....|..|R-- .... ....|--- .... ....|R-- .... ....
....|..|R-- .... ....|--- .... ....|R-- .... ....
....|..|R-- .... ....|G-4 ...7 ....|G-4 .F.7 ....
 F-3|..|F-1 2A.. ....|B-4 ...F ....|F-4 ..1F ....
 F-4|..|F-2 .A.. ....|--- .... ....|R-- .... ....
....|..|F-2 .F.A ....|--- .... 11.1|R-- .... ....
....|..|R-- .... ....|--- .... ....|--- .... ....
....|..|C-4 A..F ....|R-- .... ....|A-3 ..A. ....
....|..|R-- .... ....|R-- .... ....|R-- .... ....
....|..|R-- .... ....|--- .... ....|R-- .... ....
....|..|--- .... ....|--- .... ....|R-- .... ....
 F-3|..|F-1 2A.. ....|G-4 .... ....|F-4 ..1. ....
 F-4|..|F-2 .A.. ....|--- .... ....|R-- .... ....
....|..|R-- .... ....|--- .... ....|R-- .... ....
....|..|R-- .... ....|R-- .... ....|R-- .... ....
....|..|C-4 AF.. ....|F-4 ...7 ....|F-4 ...7 ....
....|..|F-1 2..7 ....|R-- .... ....|R-- .... ....
....|..|F-2 .... ....|--- .... ....|--- .... ....
....|..|R-- .... ....|--- .... ....|R-- .... ....
 F-3|..|F-1 .A.F ....|A-4 ...F ....|F-4 ...F ....
 F-4|..|F-2 .A.. ....|--- .... 11.1|R-- .... ....
....|..|--- .... ....|R-- .... ....|R-- .... ....
....|..|R-- .... ....|--- .... ....|R-- .... ....
....|..|C-4 AF.. ....|C-5 ...7 ....|G-4 .... ....
 G-3|..|G-1 2A.. ....|--- .... ....|G-5 .F.. ....
 G-4|..|G-2 .A.. ....|--- .... 11.1|R-- .... ....
....|..|--- .... ....|--- .... ....|--- .... ....
 G-3|..|G-1 .A.. ....|B-4 .... ....|G-4 ..1. ....
 G-4|..|G-2 .A.. ....|R-- .... ....|G-5 .F.. ....
....|..|R-- .... ....|--- .... ....|R-- .... ....
....|..|R-- .... ....|R-- .... ....|R-- .... ....
....|..|C-4 AF.. ....|C-5 ...F ....|G-4 ..1. ....
....|..|R-- .... ....|R-- .... ....|G-4 ..2. ....
....|..|R-- .... ....|--- .... ....|R-- .... ....
....|..|R-- .... ....|R-- .... ....|R-- .... ....
 G-3|..|G-1 2A.. ....|C-5 .... ....|G-4 ..1. ....
 G-4|..|G-2 .A.. ....|--- .... ....|G-5 .F.A ....
....|..|G-2 .F.A ....|--- .... ....|R-- .... ....
....|..|--- .... ....|--- .... ....|--- .... ....

[Pattern43]
 B-4|..|C-4 AF.F ....|B-4 2F.F ....|B-4 2C.F ....
....|..|R-- .... ....|R-- .... ....|R-- .... ....
....|..|R-- .... ....|--- .... ....|R-- .... ....
....|..|--- .... ....|R-- .... ....|R-- .... ....
 G-3|..|G-1 2A.. ....|B-4 .... ....|G-4 .F1. ....
 G-4|..|G-2 .A.. ....|--- .... ....|G-4 ..2A ....
....|..|R-- .... ....|--- .... ....|R-- .... ....
....|..|R-- .... ....|R-- .... ....|R-- .... ....
....|..|C-4 AF.. ....|G-4 .... ....|G-4 ..1F ....
....|..|G-1 2..7 ....|--- .... ....|G-5 .F.7 ....
....|..|G-2 .... ....|--- .... ....|R-- .... ....
....|..|--- .... ....|--- .... ....|--- .... ....
 G-3|..|G-1 .A.F ....|E-4 .... ....|G-4 ..1F ....
 G-4|..|G-2 .A.. ....|--- .... 11.1|G-5 .F.7 ....
....|..|--- .... ....|--- .... ....|R-- .... ....
....|..|R-- .... ....|R-- .... ....|R-- .... ....
....|..|C-4 AF.. ....|C-5 ...7 ....|A-4 ..3F ....
 A-3|..|A-1 2A.. ....|--- .... ....|G-4 ..27 ....
 A-3|..|A-2 .C.. ....|--- .... ....|R-- .... ....
....|..|R-- .... ....|R-- .... ....|R-- .... ....
 A-3|..|A-1 .A.. ....|C-5 .... ....|A-4 ..3F ....
 A-3|..|A-2 .C.. ....|--- .... ....|R-- .... ....
....|..|R-- .... ....|R-- .... ....|R-- .... ....
 C-3|..|--- .F.. ....|--- .... ....|C-5 .C.. ....
....|..|C-4 A... ....|C-5 ...F ....|A-4 .F3. ....
....|..|R-- .... ....|--- .... 11.1|R-- .... ....
....|..|R-- .... ....|--- .... ....|R-- .... ....
....|..|R-- .... ....|R-- .... ....|R-- .... ....
 A-3|..|A-1 2A.. ....|B-4 .... ....|A-4 .... ....
 A-3|..|A-2 .C.. ....|--- .... ....|R-- .... ....
....|..|A-2 .F.A ....|--- .... ....|R-- .... ....
....|..|R-- .... ....|R-- .... ....|R-- .... ....
....|..|C-4 A..F ....|G-4 ...7 ....|G-4 ..17 ....
....|..|R-- .... ....|--- .... ....|R-- .... ....
....|..|R-- .... ....|R-- .... ....|R-- .... ....
....|..|--- .... ....|--- .... ....|C-5 .F.A ....
 A-3|..|A-1 2A.. ....|G-4 ...F ....|A-4 ..3F ....
 A-3|..|A-2 .C.. ....|--- .... ....|A-5 .F.. ....
....|..|R-- .... ....|--- .... ....|R-- .... ....
....|..|R-- .... ....|--- .... ....|--- .... ....
....|..|C-4 AF.. ....|R-- .... ....|A-4 ..3. ....
....|..|A-1 2..7 ....|--- .... ....|A-5 .F.. ....
....|..|A-2 .... ....|--- .... ....|R-- .... ....
....|..|R-- .... ....|--- .... ....|--- .... ....
 A-3|..|A-1 .A.F ....|A-4 .... ....|A-4 ..3. ....
 A-3|..|A-2 .C.. ....|--- .... 11.1|A-5 .F.. ....
....|..|--- .... ....|R-- .... ....|R-- .... ....
....|..|--- .... ....|--- .... ....|C-5 ...7 ....
....|..|C-4 AF.. ....|G-4 ...A ....|A-4 ..3F ....
 C-4|..|C-2 2A.. ....|--- .... ....|A-4 ..4. ....
 C-4|..|C-3 .C.. ....|--- .... ....|R-- .... ....
....|..|R-- .... ....|--- .... ....|--- .... ....
 C-4|..|C-2 .A.. ....|B-4 ...7 ....|A-4 ..3. ....
 C-4|..|C-3 .C.. ....|R-- .... ....|A-4 ..4. ....
....|..|R-- .... ....|--- .... ....|R-- .... ....
....|..|R-- .... ....|--- .... ....|--- .... ....
....|..|C-4 AF.. ....|E-5 ...F ....|A-4 ..3. ....
....|..|R-- .... ....|R-- .... ....|A-4 ..4. ....
....|..|R-- .... ....|--- .... ....|R-- .... ....
....|..|--- .... ....|R-- .... ....|R-- .... ....
 C-4|..|C-2 2A.. ....|E-5 .... ....|A-4 ..3. ....
 C-4|..|C-3 .C.. ....|--- .... 11.1|A-5 .F.7 ....
....|..|C-3 .F.A ....|R-- .... ....|R-- .... ....
....|..|R-- .... ....|--- .... ....|--- .... ....

[Pattern44]
....|..|C-4 AF.F ....|E-5 2F.F ....|C-4 2FAF ....
....|..|R-- .... ....|R-- .... ....|A-5 .F.7 ....
....|..|R-- .... ....|--- .... ....|R-- .... ....
....|..|--- .... ....|R-- .... ....|R-- .... ....
 C-4|..|C-2 2A.. ....|E-5 .... ....|E-5 ..5F ....
 C-4|..|C-3 .C.. ....|--- .... ....|A-5 .F.7 ....
....|..|R-- .... ....|--- .... ....|R-- .... ....
....|..|--- .... ....|R-- .... ....|R-- .... ....
....|..|C-4 AF.. ....|D-5 .... ....|E-5 ..5F ....
....|..|C-2 2..7 ....|--- .... ....|A-4 ..47 ....
....|..|C-3 .... ....|R-- .... ....|R-- .... ....
....|..|R-- .... ....|--- .... ....|--- .... ....
 C-4|..|C-2 .A.F ....|C-5 .... ....|E-5 ..5F ....
 C-4|..|C-3 .C.. ....|R-- .... ....|A-4 ..47 ....
....|..|--- .... ....|--- .... ....|R-- .... ....
....|..|--- .... ....|R-- .... ....|R-- .... ....
....|..|C-4 AF.. ....|E-5 ...7 ....|F-4 ..1F ....
 F-3|..|F-1 2A.. ....|R-- .... ....|A-4 ..47 ....
 F-4|..|F-2 .A.. ....|--- .... ....|R-- .... ....
....|..|R-- .... ....|R-- .... ....|R-- .... ....
 F-3|..|F-1 .A.. ....|E-5 .... ....|F-4 ..1F ....
 F-4|..|F-2 .A.. ....|--- .... ....|R-- .... ....
....|..|R-- .... ....|R-- .... ....|R-- .... ....
....|..|--- .... ....|--- .... ....|--- .... ....
....|..|C-4 AF.. ....|C-5 ...F ....|F-4 .... ....
....|..|R-- .... ....|--- .... 11.1|R-- .... ....
....|..|R-- .... ....|--- .... ....|R-- .... ....
....|..|--- .... ....|R-- .... ....|R-- .... ....
 F-3|..|F-1 2A.. ....|B-4 .... ....|F-4 .... ....
 F-4|..|F-2 .A.. ....|R-- .... ....|R-- .... ....
....|..|F-2 .F.A ....|--- .... ....|R-- .... ....
....|..|R-- .... ....|--- .... ....|--- .... ....
....|..|C-4 A..F ....|D-5 ...7 ....|A-3 ..A. ....
....|..|R-- .... ....|R-- .... ....|R-- .... ....
....|..|R-- .... ....|--- .... ....|R-- .... ....
....|..|--- .... ....|--- .... ....|R-- .... ....
 F-3|..|F-1 2A.. ....|G-4 ...F ....|F-4 ..1. ....
 F-4|..|F-2 .A.. ....|--- .... ....|R-- .... ....
....|..|R-- .... ....|--- .... 11.1|--- .... ....
....|..|--- .... ....|--- .... ....|R-- .... ....
....|..|C-4 AF.. ....|B-4 ...A ....|F-4 ...7 ....
....|..|F-1 2..7 ....|R-- .... ....|R-- .... ....
....|..|F-2 .... ....|--- .... ....|--- .... ....
....|..|R-- .... ....|--- .... ....|R-- .... ....
 F-3|..|F-1 .A.F ....|A-4 ...F ....|F-4 ...F ....
 F-4|..|F-2 .A.. ....|R-- .... ....|R-- .... ....
....|..|--- .... ....|--- .... ....|R-- .... ....
....|..|R-- .... ....|--- .... ....|R-- .... ....
....|..|C-4 AF.. ....|C-5 ...7 ....|G-4 .... ....
 G-3|..|G-1 2A.. ....|--- .... ....|G-5 .F.. ....
 G-4|..|G-2 .A.. ....|--- .... 11.1|R-- .... ....
....|..|--- .... ....|--- .... ....|--- .... ....
 G-3|..|G-1 .A.. ....|B-4 .... ....|G-4 ..1. ....
 G-4|..|G-2 .A.. ....|R-- .... ....|G-5 .F.. ....
....|..|R-- .... ....|--- .... ....|R-- .... ....
....|..|R-- .... ....|R-- .... ....|R-- .... ....
....|..|C-4 AF.. ....|C-5 ...F ....|G-4 ..1. ....
....|..|R-- .... ....|R-- .... ....|G-4 ..2. ....
....|..|R-- .... ....|--- .... ....|R-- .... ....
....|..|R-- .... ....|R-- .... ....|R-- .... ....
 G-3|..|G-1 2A.. ....|C-5 .... ....|G-4 ..1. ....
 G-4|..|G-2 .A.. ....|--- .... ....|G-5 .F.A ....
....|..|G-2 .F.A ....|--- .... 11.1|R-- .... ....
....|..|--- .... ....|--- .... ....|--- .... ....

[Pattern45]
 B-4|..|C-4 AF.F ....|B-4 2F.F ....|B-4 2C.F ....
....|..|R-- .... ....|R-- .... ....|R-- .... ....
....|..|R-- .... ....|--- .... ....|R-- .... ....
....|..|--- .... ....|R-- .... ....|R-- .... ....
 G-3|..|G-1 2A.. ....|B-4 .... ....|G-4 .F1. ....
 G-4|..|G-2 .A.. ....|--- .... ....|G-4 ..2A ....
....|..|R-- .... ....|--- .... ....|R-- .... ....
....|..|R-- .... ....|R-- .... ....|R-- .... ....
....|..|C-4 AF.. ....|G-4 .... ....|G-4 ..1F ....
....|..|G-1 2..7 ....|--- .... ....|G-5 .F.7 ....
....|..|G-2 .... ....|--- .... 11.1|R-- .... ....
....|..|--- .... ....|--- .... ....|--- .... ....
 G-3|..|G-1 .A.F ....|E-4 .... ....|G-4 ..1F ....
 G-4|..|G-2 .A.. ....|--- .... 11.1|G-5 .F.7 ....
....|..|--- .... ....|--- .... ....|R-- .... ....
....|..|R-- .... ....|R-- .... ....|R-- .... ....
....|..|C-4 AF.. ....|C-5 ...7 ....|G#4 ..6F ....
 G#3|..|G#1 2A.. ....|--- .... ....|G-4 ..27 ....
 G#4|..|G#2 .A.. ....|--- .... ....|R-- .... ....
....|..|R-- .... ....|R-- .... ....|R-- .... ....
 G#3|..|G#1 .A.. ....|C-5 .... ....|G#4 ..6F ....
 G#4|..|G#2 .A.. ....|--- .... ....|R-- .... ....
....|..|R-- .... ....|R-- .... ....|R-- .... ....
....|..|--- .F.. ....|--- .... ....|--- .... ....
 C-3|..|C-4 A... ....|C-5 ...F ....|C-5 .CF. ....
....|..|R-- .... ....|--- .... ....|--- .... ....
....|..|R-- .... ....|--- .... 11.1|R-- .... ....
....|..|R-- .... ....|R-- .... ....|R-- .... ....
 G#3|..|G#1 2A.. ....|B-4 .... ....|G#4 .F6. ....
 G#4|..|G#2 .A.. ....|--- .... ....|R-- .... ....
....|..|G#2 .F.A ....|--- .... ....|R-- .... ....
....|..|R-- .... ....|R-- .... ....|R-- .... ....
....|..|C-4 A..F ....|G-4 ...7 ....|G-4 ..17 ....
....|..|R-- .... ....|R-- .... ....|R-- .... ....
....|..|R-- .... ....|R-- .... ....|R-- .... ....
....|..|--- .... ....|--- .... ....|C-5 .F.A ....
 G#3|..|G#1 2A.. ....|G-4 ...F ....|G#4 ..6F ....
 G#4|..|G#2 .A.. ....|--- .... ....|G#5 .F.. ....
....|..|R-- .... ....|--- .... ....|R-- .... ....
....|..|R-- .... ....|--- .... ....|--- .... ....
....|..|C-4 AF.. ....|R-- .... ....|G#4 ..6. ....
....|..|G#1 2..7 ....|--- .... ....|G#5 .F.. ....
....|..|G#2 .... ....|--- .... ....|R-- .... ....
....|..|R-- .... ....|--- .... ....|--- .... ....
 G#3|..|G#1 .A.F ....|A-4 .... ....|G#4 ..6. ....
 G#4|..|G#2 .A.. ....|R-- .... ....|G#5 .F.. ....
....|..|--- .... ....|R-- .... ....|R-- .... ....
....|..|--- .... ....|--- .... ....|C-5 ...7 ....
....|..|C-4 AF.. ....|G-4 ...A ....|A-4 ..3F ....
 A-3|..|A-1 2A.. ....|--- .... ....|A-4 ..4. ....
 A-3|..|A-2 .C.. ....|--- .... ....|R-- .... ....
....|..|R-- .... ....|--- .... ....|--- .... ....
 A-3|..|A-1 .A.. ....|B-4 ...7 ....|A-4 ..3. ....
 A-3|..|A-2 .C.. ....|R-- .... ....|A-4 ..4. ....
....|..|R-- .... ....|--- .... ....|R-- .... ....
....|..|R-- .... ....|--- .... ....|--- .... ....
....|..|C-4 AF.. ....|E-5 ...F ....|A-4 ..3. ....
....|..|R-- .... ....|R-- .... ....|A-4 ..4. ....
....|..|R-- .... ....|--- .... ....|R-- .... ....
....|..|--- .... ....|R-- .... ....|R-- .... ....
 A-3|..|A-1 2A.. ....|E-5 .... ....|A-4 ..3. ....
 A-3|..|A-2 .C.. ....|--- .... 11.1|G#5 .F.7 ....
....|..|A-2 .F.A ....|R-- .... ....|R-- .... ....
....|..|R-- .... ....|--- .... ....|--- .... ....

[Pattern46]
....|..|C-4 AF.F ....|E-5 2F.F ....|C-4 2FAF ....
....|..|R-- .... ....|R-- .... ....|G#5 .F.7 ....
....|..|R-- .... ....|--- .... ....|R-- .... ....
....|..|--- .... ....|R-- .... ....|R-- .... ....
 A-3|..|A-1 2A.. ....|E-5 .... ....|E-5 ..5F ....
 A-3|..|A-2 .C.. ....|--- .... 11.1|G#5 .F.7 ....
....|..|R-- .... ....|--- .... ....|R-- .... ....
....|..|--- .... ....|R-- .... ....|R-- .... ....
....|..|C-4 AF.. ....|D-5 .... ....|E-5 ..5F ....
....|..|A-1 2..7 ....|--- .... ....|A-4 ..47 ....
....|..|A-2 .... ....|R-- .... ....|R-- .... ....
....|..|R-- .... ....|--- .... ....|--- .... ....
 A-3|..|A-1 .A.F ....|C-5 .... ....|E-5 ..5F ....
 A-3|..|A-2 .C.. ....|--- .... 11.1|A-4 ..47 ....
....|..|--- .... ....|--- .... ....|R-- .... ....
....|..|--- .... ....|R-- .... ....|R-- .... ....
....|..|C-4 AF.. ....|E-5 ...7 ....|F-4 ..1F ....
 F-3|..|F-1 2A.. ....|--- .... ....|A-4 ..47 ....
 F-4|..|F-2 .A.. ....|--- .... ....|R-- .... ....
....|..|R-- .... ....|R-- .... ....|R-- .... ....
 F-3|..|F-1 .A.. ....|E-5 ...A ....|F-4 ..1F ....
 F-4|..|F-2 .A.. ....|--- .... ....|R-- .... ....
....|..|R-- .... ....|R-- .... ....|R-- .... ....
....|..|R-- .... ....|--- .... ....|--- .... ....
....|..|C-4 AF.. ....|E-5 .... ....|F-4 .... ....
....|..|R-- .... ....|--- .... ....|R-- .... ....
....|..|R-- .... ....|--- .... ....|R-- .... ....
....|..|--- .... ....|R-- .... ....|R-- .... ....
 F-3|..|F-1 2A.. ....|E-5 .... ....|F-4 .... ....
 F-4|..|F-2 .A.. ....|--- .... ....|R-- .... ....
....|..|F-2 .F.A ....|--- .... ....|R-- .... ....
....|..|R-- .... ....|--- .... ....|--- .... ....
....|..|C-4 A..F ....|D-5 .... ....|A-3 ..A. ....
....|..|R-- .... ....|--- .... ....|R-- .... ....
....|..|R-- .... ....|--- .... ....|R-- .... ....
....|..|--- .... ....|--- .... ....|R-- .... ....
 F-3|..|F-1 2A.. ....|C-5 .... ....|F-4 ..1. ....
 F-4|..|F-2 .A.. ....|--- .... ....|R-- .... ....
....|..|R-- .... ....|--- .... 11.1|--- .... ....
....|..|--- .... ....|--- .... ....|R-- .... ....
....|..|C-4 AF.. ....|--- .... ....|D-4 .F.. ....
....|..|F-1 2..7 ....|--- .... ....|R-- .... ....
....|..|F-2 .... ....|--- .... ....|--- .... ....
....|..|R-- .... ....|--- .... ....|R-- .... ....
 F-3|..|F-1 .A.F ....|R-- .... ....|F-4 ..1. ....
 F-4|..|F-2 .A.. ....|--- .... ....|R-- .... ....
....|..|--- .... ....|--- .... ....|R-- .... ....
....|..|R-- .... ....|--- .... ....|R-- .... ....
....|..|C-4 AF.. ....|--- .... ....|G-4 .... ....
 G-3|..|G-1 2A.. ....|--- .... ....|G-5 .F.. ....
 G-4|..|G-2 .A.. ....|--- .... ....|R-- .... ....
....|..|--- .... ....|--- .... ....|--- .... ....
 G-3|..|G-1 .A.. ....|--- .... ....|G-4 ..1. ....
 G-4|..|G-2 .A.. ....|--- .... ....|G-5 .F.. ....
....|..|R-- .... ....|--- .... ....|R-- .... ....
....|..|R-- .... ....|--- .... ....|R-- .... ....
....|..|C-4 AF.. ....|E-5 ..EF ....|G-4 ..1. ....
....|..|R-- .... ....|--- .... 11.1|G-4 ..2. ....
....|..|R-- .... ....|--- .... ....|R-- .... ....
....|..|R-- .... ....|R-- .... ....|R-- .... ....
 G-3|..|G-1 2A.. ....|E-5 .... ....|G-4 ..1. ....
 G-4|..|G-2 .A.. ....|--- .... ....|G-5 .F.A ....
....|..|G-2 .F.A ....|R-- .... ....|R-- .... ....
....|..|--- .... ....|--- .... ....|--- .... ....

[Pattern47]
....|..|C-4 AF.F ....|E-5 2FEF ....|C-4 2F.F ....
....|..|R-- .... ....|--- .... 11.1|G-5 ...A ....
....|..|R-- .... ....|--- .... ....|R-- .... ....
....|..|--- .... ....|R-- .... ....|R-- .... ....
 G-3|..|G-1 2A.. ....|E-5 .... ....|G-4 ..1F ....
 G-4|..|G-2 .A.. ....|--- .... ....|G-4 ..2A ....
....|..|R-- .... ....|--- .... ....|R-- .... ....
....|..|R-- .... ....|R-- .... ....|R-- .... ....
....|..|C-4 AF.. ....|G-5 .... ....|G-4 ..1F ....
....|..|G-1 2..7 ....|--- .... 11.1|G-5 .F.7 ....
....|..|G-2 .... ....|R-- .... ....|R-- .... ....
....|..|--- .... ....|--- .... ....|--- .... ....
 G-3|..|G-1 .A.F ....|C-5 .... ....|G-4 ..1F ....
 G-4|..|G-2 .A.. ....|--- .... 11.1|G-5 .F.7 ....
....|..|--- .... ....|--- .... ....|R-- .... ....
....|..|R-- .... ....|R-- .... ....|R-- .... ....
....|..|C-4 AF.. ....|E-5 .F.7 ....|A-4 ..3F ....
 A-3|..|A-1 2A.. ....|--- .... ....|G-4 ..27 ....
 A-3|..|A-2 .C.. ....|--- .... ....|R-- .... ....
....|..|R-- .... ....|R-- .... ....|R-- .... ....
 A-3|..|A-1 .A.. ....|E-5 .... ....|A-4 ..3F ....
 A-3|..|A-2 .C.. ....|--- .... ....|R-- .... ....
....|..|R-- .... ....|R-- .... ....|R-- .... ....
....|..|--- .... ....|--- .... ....|--- .... ....
....|..|C-4 AF.. ....|E-5 ...A ....|A-4 .... ....
....|..|R-- .... ....|--- .... ....|R-- .... ....
....|..|R-- .... ....|--- .... ....|R-- .... ....
....|..|R-- .... ....|R-- .... ....|R-- .... ....
 A-3|..|A-1 2A.. ....|E-5 .... ....|A-4 .... ....
 A-3|..|A-2 .C.. ....|--- .... ....|R-- .... ....
....|..|A-2 .F.A ....|--- .... ....|R-- .... ....
....|..|R-- .... ....|--- .... ....|--- .... ....
....|..|C-4 A..F ....|G-5 .... ....|E-4 .F.. ....
....|..|R-- .... ....|--- .... ....|R-- .... ....
....|..|R-- .... ....|R-- .... ....|R-- .... ....
....|..|--- .... ....|--- .... ....|--- .... ....
 A-3|..|A-1 2A.. ....|C-5 ..E. ....|A-4 ..3. ....
 A-3|..|A-2 .C.. ....|--- .... ....|A-5 .F.. ....
....|..|R-- .... ....|--- .... ....|R-- .... ....
....|..|R-- .... ....|--- .... ....|--- .... ....
....|..|C-4 AF.. ....|--- .... 11.1|A-4 ..3. ....
....|..|A-1 2..7 ....|--- .... ....|A-5 .F.. ....
....|..|A-2 .... ....|--- .... ....|R-- .... ....
....|..|R-- .... ....|--- .... ....|--- .... ....
 A-3|..|A-1 .A.F ....|--- .... ....|A-4 ..3. ....
 A-3|..|A-2 .C.. ....|--- .... ....|A-5 .F.. ....
....|..|--- .... ....|R-- .... ....|R-- .... ....
....|..|--- .... ....|--- .... ....|--- .... ....
....|..|C-4 AF.. ....|--- .... ....|A-4 ..3. ....
 C-4|..|C-2 2A.. ....|--- .... ....|A-4 ..4. ....
 C-4|..|C-3 .C.. ....|--- .... ....|R-- .... ....
....|..|R-- .... ....|--- .... ....|--- .... ....
 C-4|..|C-2 .A.. ....|--- .... ....|A-4 ..3. ....
 C-4|..|C-3 .C.. ....|--- .... ....|A-4 ..4. ....
....|..|R-- .... ....|--- .... ....|R-- .... ....
....|..|R-- .... ....|--- .... ....|--- .... ....
....|..|C-4 AF.. ....|C-6 .F.F ....|A-4 ..3. ....
....|..|R-- .... ....|--- .... 11.1|A-4 ..4. ....
....|..|R-- .... ....|R-- .... ....|R-- .... ....
 C-3|..|--- .... ....|--- .... ....|C-6 .C.. ....
 C-4|..|C-2 2A.. ....|C-6 .... ....|A-4 .F3. ....
 C-4|..|C-3 .C.. ....|--- .... ....|A-5 .F.7 ....
....|..|C-3 .F.A ....|--- .... 11.1|R-- .... ....
 C-3|..|R-- .... ....|--- .... ....|C-6 .C.F ....

[Pattern48]
....|..|C-4 AF.F ....|C-6 2F.F ....|C-4 2FAF ....
....|..|R-- .... ....|--- .... ....|A-5 .F.7 ....
....|..|R-- .... ....|R-- .... ....|R-- .... ....
 C-3|..|--- .... ....|--- .... ....|C-6 .C.F ....
 C-4|..|C-2 2A.. ....|C-6 .... ....|E-5 .F5. ....
 C-4|..|C-3 .C.. ....|--- .... ....|A-5 .F.7 ....
....|..|R-- .... ....|R-- .... ....|R-- .... ....
 B-4|..|--- .F.. ....|--- .... ....|B-5 .C.F ....
....|..|C-4 A... ....|B-5 .... ....|E-5 .F5. ....
....|..|C-2 2..7 ....|--- .... ....|A-4 ..47 ....
....|..|C-3 .... ....|R-- .... ....|R-- .... ....
 A-3|..|R-- .... ....|--- .... ....|A-5 .C.F ....
 C-4|..|C-2 .A.F ....|A-5 .... ....|E-5 .F5. ....
 C-4|..|C-3 .C.. ....|--- .... ....|A-4 ..47 ....
....|..|--- .... ....|--- .... 11.1|R-- .... ....
....|..|--- .... ....|R-- .... ....|R-- .... ....
....|..|C-4 AF.. ....|C-6 ...A ....|F-4 ..1F ....
 F-3|..|F-1 2A.. ....|--- .... ....|A-4 ..47 ....
 F-4|..|F-2 .A.. ....|C-6 ...7 ....|R-- .... ....
 G-4|..|R-- .... ....|R-- .... ....|G-5 .C.F ....
 F-3|..|F-1 .A.. ....|G-5 ...F ....|F-4 .F1. ....
 F-4|..|F-3 .C.. ....|--- .... ....|F-5 .C.. ....
....|..|R-- .... ....|F-5 .... ....|R-- .... ....
....|..|--- .... ....|--- .... ....|C-6 .F.7 ....
....|..|C-4 AF.. ....|C-6 ...7 ....|F-4 ..1F ....
....|..|R-- .... ....|--- .... ....|R-- .... ....
....|..|R-- .... ....|--- .... 11.1|R-- .... ....
....|..|--- .... ....|R-- .... ....|C-6 .F.7 ....
 F-3|..|F-1 2A.. ....|C-6 .... ....|F-4 ..1F ....
 F-4|..|F-2 .A.. ....|--- .... ....|R-- .... ....
....|..|F-2 .F.A ....|--- .... ....|R-- .... ....
....|..|R-- .... ....|--- .... ....|B-5 .F.7 ....
....|..|C-4 A..F ....|B-5 .... ....|A-3 ..AF ....
....|..|R-- .... ....|--- .... ....|F-5 .F.A ....
....|..|R-- .... ....|F-5 ...A ....|R-- .... ....
....|..|--- .... ....|--- .... ....|A-5 ...7 ....
 F-3|..|F-1 2A.. ....|A-5 ...7 ....|F-4 ..1F ....
 F-4|..|F-2 .A.. ....|--- .... ....|R-- .... ....
....|..|R-- .... ....|--- .... ....|--- .... ....
....|..|--- .... ....|--- .... ....|R-- .... ....
....|..|C-4 AF.. ....|--- .... ....|D-4 .F.. ....
....|..|F-1 2..7 ....|--- .... ....|R-- .... ....
....|..|F-2 .... ....|R-- .... ....|--- .... ....
....|..|R-- .... ....|--- .... ....|G-5 ...7 ....
 F-3|..|F-1 .A.F ....|G-5 .... ....|F-4 ..1F ....
 F-4|..|F-2 .A.. ....|--- .... ....|F-5 .F.7 ....
....|..|--- .... ....|F-5 ...A ....|R-- .... ....
....|..|R-- .... ....|--- .... ....|R-- .... ....
....|..|C-4 AF.. ....|--- .... 11.1|G-4 ..1F ....
 G-3|..|G-1 2A.. ....|--- .... ....|G-5 .F.. ....
 G-4|..|G-2 .A.. ....|--- .... ....|R-- .... ....
....|..|--- .... ....|--- .... ....|--- .... ....
 G-3|..|G-1 .A.. ....|C-6 ...F ....|G-4 ..1. ....
 G-4|..|G-2 .A.. ....|--- .... ....|G-5 .F.. ....
....|..|R-- .... ....|R-- .... ....|R-- .... ....
....|..|R-- .... ....|--- .... ....|R-- .... ....
....|..|C-4 AF.. ....|C-6 .... ....|G-4 ..1. ....
....|..|R-- .... ....|--- .... ....|G-4 ..2. ....
....|..|R-- .... ....|--- .... 11.1|R-- .... ....
 A-3|..|R-- .... ....|--- .... ....|A-5 .C.. ....
 G-3|..|G-1 2A.. ....|A-5 .... ....|G-4 .F1. ....
 G-4|..|G-2 .A.. ....|--- .... ....|R-- .... ....
....|..|G-2 .F.A ....|R-- .... ....|R-- .... ....
 C-3|..|--- .... ....|--- .... ....|C-6 .C.. ....

[Pattern49]
....|..|C-4 AF.F ....|C-6 2F.F ....|C-4 2F.F ....
....|..|R-- .... ....|--- .... ....|R-- .... ....
....|..|R-- .... ....|R-- .... ....|R-- .... ....
 A-3|..|--- .... ....|--- .... ....|A-5 .C.. ....
 G-3|..|G-1 2A.. ....|A-5 .... ....|G-4 .F1. ....
 G-4|..|G-2 .A.. ....|--- .... ....|G-4 ..2A ....
....|..|R-- .... ....|--- .... 11.1|R-- .... ....
 C-3|..|R-- .... ....|--- .... ....|C-6 .C.F ....
....|..|C-4 AF.. ....|C-6 .... ....|G-4 .F1. ....
....|..|G-1 2..7 ....|--- .... ....|G-5 .F.7 ....
....|..|G-2 .... ....|R-- .... ....|R-- .... ....
....|..|--- .... ....|--- .... ....|C-6 ...A ....
 G-3|..|G-1 .A.F ....|C-6 ...A ....|G-4 ..1F ....
 G-4|..|G-2 .A.. ....|--- .... ....|G-5 .F.7 ....
....|..|--- .... ....|R-- .... ....|R-- .... ....
....|..|R-- .... ....|--- .... ....|A-5 ...A ....
....|..|C-4 AF.. ....|A-5 .... ....|G#4 ..6F ....
 G#3|..|G#1 2A.. ....|--- .... ....|G-4 ..27 ....
 G#4|..|G#2 .A.. ....|--- .... 11.1|R-- .... ....
....|..|R-- .... ....|--- .... ....|A-5 .F.. ....
 G#3|..|G#1 .A.. ....|A-5 ...7 ....|G#4 ..6F ....
 G#4|..|G#2 .A.. ....|--- .... ....|R-- .... ....
....|..|R-- .... ....|R-- .... ....|R-- .... ....
....|..|--- .... ....|--- .... ....|C-6 .F.7 ....
....|..|C-4 AF.. ....|C-6 .... ....|G#4 ..6F ....
....|..|R-- .... ....|--- .... ....|R-- .... ....
....|..|R-- .... ....|--- .... ....|R-- .... ....
....|..|R-- .... ....|R-- .... ....|A-5 .F.7 ....
 G#3|..|G#1 2A.. ....|A-5 .... ....|G#4 ..6F ....
 G#4|..|G#2 .A.. ....|--- .... ....|R-- .... ....
....|..|G#2 .F.A ....|--- .... ....|R-- .... ....
....|..|R-- .... ....|--- .... ....|C-6 .F.7 ....
....|..|C-4 A..F ....|C-6 .... ....|E-4 ...F ....
....|..|R-- .... ....|--- .... ....|R-- .... ....
....|..|R-- .... ....|--- .... ....|R-- .... ....
....|..|--- .... ....|--- .... ....|--- .... ....
 G#3|..|G#1 2A.. ....|--- .... ....|G#4 ..6. ....
 G#4|..|G#2 .A.. ....|--- .... ....|G#5 .F.. ....
....|..|R-- .... ....|--- .... ....|R-- .... ....
....|..|R-- .... ....|R-- .... ....|--- .... ....
....|..|C-4 AF.. ....|--- .... ....|G#4 ..6. ....
....|..|G#1 2..7 ....|--- .... ....|G#5 .F.. ....
....|..|G#2 .... ....|--- .... ....|R-- .... ....
....|..|R-- .... ....|--- .... ....|--- .... ....
 G#3|..|G#1 .A.F ....|--- .... ....|G#4 ..6. ....
 G#4|..|G#2 .A.. ....|--- .... ....|G#5 .F.. ....
....|..|--- .... ....|--- .... ....|R-- .... ....
....|..|--- .... ....|--- .... ....|--- .... ....
....|..|C-4 AF.7 ....|--- .... ....|G#4 ..67 ....
....|..|R-- .... ....|--- .... ....|R-- .... ....
....|..|R-- .... ....|--- .... ....|R-- .... ....
....|..|--- .... ....|--- .... ....|--- .... ....
 C-3|..|G#1 2... ....|C-6 ...F ....|C-6 .C.F ....
....|..|G#2 .... ....|--- .... ....|R-- .... ....
....|..|R-- .... ....|R-- .... ....|R-- .... ....
....|..|R-- .... ....|--- .... ....|--- .... ....
 C-3|..|C-4 A... ....|C-6 .... ....|C-6 .C.. ....
....|..|R-- .... ....|--- .... ....|G#5 .F.A ....
....|..|--- .... ....|--- .... 11.1|R-- .... ....
 A-3|..|--- .... ....|--- .... ....|A-5 .C.F ....
....|..|G#1 2... ....|A-5 .... ....|G#4 .F67 ....
....|..|G#2 .... ....|--- .... ....|G#5 .F.. ....
....|..|--- .... ....|R-- .... ....|R-- .... ....
 C-3|..|--- .... ....|--- .... ....|C-6 .C.F ....

[Pattern50]
....|..|C-4 AF.7 ....|C-6 2F.F ....|G#4 2F67 ....
....|..|R-- .... ....|--- .... ....|G#5 .F.. ....
....|..|R-- .... ....|R-- .... ....|R-- .... ....
....|..|--- .... ....|--- .... ....|--- .... ....
 A-3|..|G#1 2... ....|A-5 .... ....|A-5 .C.F ....
....|..|G#2 .... ....|--- .... ....|G#5 .F.7 ....
....|..|--- .... ....|--- .... 11.1|R-- .... ....
....|..|--- .... ....|--- .... ....|--- .... ....
 C-3|..|R-- .... ....|C-6 .... ....|C-6 .C.F ....
....|..|--- .... ....|--- .... ....|R-- .... ....
....|..|--- .... ....|R-- .... ....|--- .... ....
....|..|--- .... ....|--- .... ....|C-6 .F.A ....
....|..|--- .... ....|C-6 ...A ....|C-6 ...7 ....
....|..|--- .... ....|--- .... ....|R-- .... ....
....|..|--- .... ....|R-- .... ....|R-- .... ....
....|..|--- .... ....|R-- .... ....|A-5 ...A ....
....|..|C-4 A..F ....|A-5 .... ....|F-4 ..1F ....
 F-3|..|F-1 2A.. ....|--- .... ....|R-- .... ....
 F-4|..|F-2 .A.. ....|--- .... ....|--- .... ....
....|..|R-- .... ....|--- .... ....|A-5 .F.7 ....
....|..|B-8 JF.. ....|A-5 ...F ....|F-4 ..1F ....
 F-3|..|F-1 2A.. ....|--- .... ....|R-- .... ....
 F-4|..|F-2 .A.. ....|R-- .... ....|R-- .... ....
....|..|--- .... ....|--- .... ....|--- .... ....
....|..|C-4 AF.. ....|A-5 .... ....|F-4 .... ....
....|..|R-- .... ....|--- .... ....|R-- .... ....
....|..|R-- .... ....|R-- .... ....|R-- .... ....
....|..|--- .... ....|A-5 ...7 ....|A-5 .F.7 ....
....|..|B-8 J... ....|A-5 ...F ....|F-4 ..1F ....
 F-3|..|F-1 2A.. ....|--- .... ....|R-- .... ....
 F-4|..|F-2 .A.. ....|R-- .... ....|R-- .... ....
....|..|R-- .... ....|C-6 ...7 ....|C-6 .F.7 ....
....|..|C-4 AF.. ....|A-5 ...F ....|A-3 ..AF ....
....|..|R-- .... ....|--- .... ....|R-- .... ....
....|..|F-2 2..A ....|R-- .... ....|R-- .... ....
....|..|--- .... ....|--- .... ....|R-- .... ....
....|..|B-8 J..F ....|A-5 .... ....|F-4 ..1. ....
 F-3|..|F-1 2A.. ....|--- .... ....|R-- .... ....
 F-4|..|F-2 .A.. ....|R-- .... ....|R-- .... ....
....|..|--- .... ....|R-- .... ....|R-- .... ....
....|..|C-4 AF.. ....|A-5 ...A ....|F-4 ...7 ....
....|..|F-1 2..7 ....|--- .... ....|R-- .... ....
....|..|F-2 .... ....|R-- .... ....|R-- .... ....
....|..|R-- .... ....|--- .... ....|R-- .... ....
....|..|B-8 J..F ....|G-5 ...F ....|F-4 ...F ....
 F-3|..|F-1 2A.. ....|--- .... ....|R-- .... ....
 F-4|..|F-2 .A.. ....|R-- .... ....|R-- .... ....
....|..|R-- .... ....|R-- .... ....|R-- .... ....
....|..|C-4 AF.. ....|G-5 .... ....|G-4 .... ....
 G-3|..|G-1 2A.. ....|--- .... ....|G-5 .F.. ....
 G-4|..|G-2 .A.. ....|--- .... ....|R-- .... ....
....|..|--- .... ....|R-- .... ....|R-- .... ....
....|..|B-8 JF.. ....|G-5 .... ....|G-4 ..1. ....
 G-3|..|G-1 2A.. ....|--- .... ....|G-5 .F.. ....
 G-4|..|G-2 .A.. ....|R-- .... ....|R-- .... ....
....|..|R-- .... ....|--- .... ....|R-- .... ....
....|..|C-4 AF.. ....|G-5 .... ....|G-4 ..1. ....
....|..|R-- .... ....|--- .... ....|G-4 ..2. ....
....|..|R-- .... ....|--- .... ....|R-- .... ....
....|..|R-- .... ....|R-- .... ....|R-- .... ....
....|..|B-8 J... ....|D-5 .... ....|G-4 ..1. ....
 G-3|..|G-1 2A.. ....|--- .... ....|G-5 .F.A ....
 G-4|..|G-2 .A.. ....|--- .... ....|R-- .... ....
....|..|--- .... ....|R-- .... ....|R-- .... ....

[Pattern51]
....|..|C-4 AF.F ....|D-5 2F.7 ....|C-4 2FAF ....
....|..|R-- .... ....|--- .... ....|G#5 .F.7 ....
....|..|R-- .... ....|--- .... ....|R-- .... ....
....|..|--- .... ....|--- .... ....|--- .... ....
....|..|B-8 J... ....|E-5 .... ....|E-5 ..5F ....
 A-3|..|A-1 2A.. ....|--- .... ....|G#5 .F.7 ....
 A-3|..|A-2 .C.. ....|D-5 .... ....|D-5 .... ....
....|..|--- .... ....|--- .... ....|--- .... ....
....|..|C-4 AF.. ....|C-5 .... ....|E-5 ..5F ....
....|..|A-1 2..7 ....|--- .... ....|A-4 ..47 ....
....|..|A-2 .... ....|R-- .... ....|R-- .... ....
....|..|R-- .... ....|--- .... ....|--- .... ....
....|..|B-8 J..F ....|--- .... ....|E-5 ..5F ....
 A-3|..|A-1 2A.. ....|--- .... ....|A-4 ..47 ....
 A-3|..|A-2 .C.. ....|--- .... ....|R-- .... ....
....|..|--- .... ....|--- .... ....|R-- .... ....
....|..|C-4 AF.. ....|--- .... ....|F-4 ..1F ....
 F-3|..|F-1 2A.. ....|--- .... ....|A-4 ..47 ....
 F-4|..|F-2 .A.. ....|--- .... ....|R-- .... ....
....|..|R-- .... ....|--- .... ....|--- .... ....
....|..|B-8 JF.. ....|--- .... ....|F-4 ..1F ....
 F-3|..|F-1 2A.. ....|--- .... ....|R-- .... ....
 F-4|..|F-2 .A.. ....|R-- .... ....|R-- .... ....
....|..|R-- .... ....|--- .... ....|--- .... ....
....|..|C-4 AF.. ....|--- .... ....|F-4 .... ....
....|..|R-- .... ....|--- .... ....|R-- .... ....
....|..|R-- .... ....|--- .... ....|R-- .... ....
....|..|--- .... ....|--- .... ....|R-- .... ....
....|..|B-8 J... ....|--- .... ....|F-4 .... ....
 F-3|..|F-1 2A.. ....|--- .... ....|R-- .... ....
 F-4|..|F-2 .A.. ....|--- .... ....|R-- .... ....
....|..|R-- .... ....|--- .... ....|--- .... ....
....|..|C-4 AF.. ....|--- .... ....|A-3 ..A. ....
....|..|R-- .... ....|--- .... ....|R-- .... ....
....|..|R-- .... ....|--- .... ....|R-- .... ....
....|..|--- .... ....|--- .... ....|R-- .... ....
....|..|B-8 J... ....|--- .... ....|F-4 ..1. ....
 F-3|..|F-1 2A.. ....|--- .... ....|E-4 .F.. ....
 F-4|..|F-2 .A.. ....|--- .... ....|--- .... ....
....|..|--- .... ....|--- .... ....|R-- .... ....
....|..|C-4 AF.. ....|--- .... ....|F-4 ..17 ....
....|..|F-1 2..7 ....|--- .... ....|R-- .... ....
....|..|F-2 .... ....|--- .... ....|--- .... ....
....|..|R-- .... ....|--- .... ....|R-- .... ....
....|..|B-8 J..F ....|--- .... ....|F-4 ...F ....
 F-3|..|F-1 2A.. ....|--- .... ....|R-- .... ....
 F-4|..|F-2 .A.. ....|--- .... ....|R-- .... ....
....|..|R-- .... ....|--- .... ....|R-- .... ....
....|..|C-4 AF.. ....|--- .... ....|G-4 .... ....
 G-3|..|G-1 2A.. ....|--- .... ....|G-5 .F.. ....
 G-4|..|G-2 .A.. ....|--- .... ....|R-- .... ....
....|..|--- .... ....|--- .... ....|--- .... ....
....|..|B-8 JF.. ....|C-6 ...F ....|G-4 ..1. ....
 G-3|..|G-1 2A.. ....|--- .... ....|G-5 .F.. ....
 G-4|..|G-2 .A.. ....|R-- .... 11.1|R-- .... ....
....|..|R-- .... ....|--- .... ....|R-- .... ....
....|..|C-4 AF.. ....|C-6 ..F. ....|G-4 ..1. ....
....|..|R-- .... ....|--- .... ....|G-4 ..2. ....
....|..|R-- .... ....|--- .... ....|R-- .... ....
 A-3|..|R-- .... ....|--- .... ....|A-5 .C.. ....
....|..|B-8 J... ....|A-5 .F.. ....|G-4 .F1. ....
 G-3|..|G-1 2A.. ....|--- .... ....|E-4 .F.7 ....
 G-4|..|G-2 .A.. ....|R-- .... ....|R-- .... ....
....|..|--- .... ....|--- .... ....|C-4 ...F ....

[Pattern52]
....|..|C-4 AF.F ....|C-6 2F.F ....|G-4 2F1A ....
....|..|R-- .... ....|--- .... ....|G-5 .F.. ....
....|..|R-- .... ....|R-- .... ....|R-- .... ....
 A-3|..|--- .... ....|--- .... ....|A-5 .C.F ....
....|..|B-8 J... ....|A-5 .... ....|G-4 .F1. ....
 G-3|..|G-1 2A.. ....|--- .... ....|G-4 ..2A ....
 G-4|..|G-2 .A.. ....|--- .... ....|R-- .... ....
 C-3|..|R-- .... ....|--- .... ....|C-6 .C.F ....
....|..|C-4 AF.. ....|C-6 .... ....|G-4 .F1. ....
....|..|G-1 2..7 ....|--- .... ....|G-5 .F.7 ....
....|..|G-2 .... ....|R-- .... ....|R-- .... ....
....|..|--- .... ....|--- .... ....|C-4 ...A ....
....|..|B-8 J..F ....|C-6 ...A ....|G-4 ..1F ....
 G-3|..|G-1 2A.. ....|--- .... ....|G-5 .F.7 ....
 G-4|..|G-2 .A.. ....|R-- .... ....|R-- .... ....
....|..|R-- .... ....|--- .... ....|R-- .... ....
....|..|C-4 AF.. ....|A-5 .... ....|A-4 ..3F ....
 A-3|..|A-1 2A.. ....|--- .... ....|G-4 ..27 ....
 A-3|..|A-2 .C.. ....|--- .... ....|R-- .... ....
....|..|R-- .... ....|--- .... ....|A-5 .F.. ....
....|..|B-8 JF.. ....|A-5 ...7 ....|A-4 ..3F ....
 A-3|..|A-1 2A.. ....|--- .... ....|R-- .... ....
 A-3|..|A-2 .C.. ....|R-- .... ....|R-- .... ....
....|..|--- .... ....|--- .... ....|C-4 .F.7 ....
....|..|C-4 AF.. ....|C-6 .... ....|A-4 ..3F ....
....|..|R-- .... ....|--- .... ....|R-- .... ....
....|..|R-- .... ....|--- .... ....|R-- .... ....
....|..|R-- .... ....|R-- .... ....|A-5 .F.7 ....
....|..|B-8 J... ....|A-5 .... ....|A-4 ..3F ....
 A-3|..|A-1 2A.. ....|--- .... ....|R-- .... ....
 A-3|..|A-2 .C.. ....|--- .... ....|R-- .... ....
....|..|R-- .... ....|--- .... ....|C-6 .F.7 ....
....|..|C-4 AF.. ....|C-6 .... ....|C-4 ..2F ....
....|..|R-- .... ....|--- .... ....|R-- .... ....
....|..|R-- .... ....|--- .... ....|R-- .... ....
....|..|--- .... ....|--- .... ....|C-4 .F.. ....
....|..|B-8 J... ....|--- .... ....|A-4 ..3. ....
 A-3|..|A-1 2A.. ....|--- .... ....|A-5 .F.. ....
 A-3|..|A-2 .C.. ....|--- .... ....|R-- .... ....
....|..|R-- .... ....|R-- .... ....|--- .... ....
....|..|C-4 AF.. ....|--- .... ....|A-4 ..3. ....
....|..|A-1 2..7 ....|--- .... ....|A-5 .F.. ....
....|..|A-2 .... ....|--- .... ....|R-- .... ....
....|..|R-- .... ....|--- .... ....|--- .... ....
....|..|B-8 J..F ....|--- .... ....|A-4 ..3. ....
 A-3|..|A-1 2A.. ....|--- .... ....|A-5 .F.. ....
 A-3|..|A-2 .C.. ....|--- .... ....|R-- .... ....
....|..|--- .... ....|--- .... ....|C-4 ...A ....
....|..|C-4 AF.. ....|--- .... ....|A-4 ..3F ....
 C-4|..|C-2 2A.. ....|--- .... ....|A-4 ..4. ....
 C-4|..|C-3 .C.. ....|--- .... ....|R-- .... ....
....|..|R-- .... ....|--- .... ....|--- .... ....
....|..|B-8 JF.. ....|C-6 ...F ....|A-4 ..3. ....
 C-4|..|C-2 2A.. ....|R-- .... ....|A-4 ..4. ....
 C-4|..|C-3 .C.. ....|--- .... ....|R-- .... ....
....|..|R-- .... ....|--- .... ....|R-- .... ....
....|..|C-4 AF.. ....|C-6 .... ....|A-4 ..3. ....
....|..|R-- .... ....|--- .... ....|A-4 ..4. ....
....|..|R-- .... ....|--- .... ....|R-- .... ....
 A-3|..|--- .... ....|--- .... ....|A-5 .C.. ....
....|..|B-8 J... ....|A-5 .... ....|A-4 .F3. ....
 C-4|..|C-2 2A.. ....|--- .... ....|A-5 .F.7 ....
 C-4|..|C-3 .C.. ....|R-- .... ....|R-- .... ....
 C-3|..|R-- .... ....|--- .... ....|C-6 .C.F ....

[Pattern53]
....|..|C-4 AF.F ....|C-6 2F.F ....|C-4 2FAF ....
....|..|R-- .... ....|--- .... ....|A-5 .F.7 ....
....|..|R-- .... ....|R-- .... ....|R-- .... ....
 A-3|..|--- .... ....|--- .... ....|A-5 .C.F ....
....|..|B-8 J... ....|A-5 .... ....|E-5 .F5. ....
 C-4|..|C-2 2A.. ....|--- .... ....|A-5 .F.7 ....
 C-4|..|C-3 .C.. ....|--- .... ....|R-- .... ....
 C-3|..|--- .... ....|--- .... ....|C-6 .C.F ....
....|..|C-4 AF.. ....|C-6 .... ....|E-5 .F5. ....
....|..|C-2 2..7 ....|--- .... ....|A-4 ..47 ....
....|..|C-3 .... ....|R-- .... ....|R-- .... ....
....|..|R-- .... ....|--- .... ....|C-6 .F.A ....
....|..|B-8 J..F ....|C-6 ...A ....|E-5 ..5F ....
 C-4|..|C-2 2A.. ....|--- .... ....|A-4 ..47 ....
 C-4|..|C-3 .C.. ....|R-- .... ....|R-- .... ....
....|..|--- .... ....|R-- .... ....|R-- .... ....
....|..|C-4 AF.. ....|A-5 .... ....|F-4 ..1F ....
 F-3|..|F-1 2A.. ....|--- .... ....|A-4 ..47 ....
 F-4|..|F-2 .A.. ....|--- .... 11.1|R-- .... ....
....|..|R-- .... ....|--- .... ....|A-5 .F.. ....
....|..|B-8 JF.. ....|A-5 ...7 ....|F-4 ..1F ....
 F-3|..|F-1 2A.. ....|--- .... ....|R-- .... ....
 F-4|..|F-2 .A.. ....|R-- .... ....|R-- .... ....
....|..|--- .... ....|--- .... ....|C-6 .F.7 ....
....|..|C-4 AF.. ....|C-6 .... ....|F-4 ..1F ....
....|..|R-- .... ....|--- .... ....|R-- .... ....
....|..|R-- .... ....|--- .... ....|R-- .... ....
....|..|--- .... ....|R-- .... ....|A-5 .F.7 ....
....|..|B-8 J... ....|A-5 .... ....|F-4 ..1F ....
 F-3|..|F-1 2A.. ....|--- .... ....|R-- .... ....
 F-4|..|F-2 .A.. ....|--- .... ....|R-- .... ....
....|..|R-- .... ....|--- .... ....|C-6 .F.7 ....
....|..|C-4 AF.. ....|C-6 .... ....|A-3 ..AF ....
....|..|R-- .... ....|--- .... ....|R-- .... ....
....|..|R-- .... ....|--- .... ....|R-- .... ....
....|..|--- .... ....|--- .... ....|R-- .... ....
....|..|B-8 J... ....|--- .... ....|F-4 ..1. ....
 F-3|..|F-1 2A.. ....|--- .... ....|E-4 .F.. ....
 F-4|..|F-2 .A.. ....|--- .... ....|R-- .... ....
....|..|--- .... ....|R-- .... ....|R-- .... ....
....|..|C-4 AF.. ....|--- .... ....|F-4 ..17 ....
....|..|F-1 2..7 ....|--- .... ....|R-- .... ....
....|..|F-2 .... ....|--- .... ....|--- .... ....
....|..|R-- .... ....|--- .... ....|R-- .... ....
....|..|B-8 J..F ....|--- .... ....|F-4 ...F ....
 F-3|..|F-1 2A.. ....|--- .... ....|R-- .... ....
 F-4|..|F-2 .A.. ....|--- .... ....|R-- .... ....
....|..|R-- .... ....|--- .... ....|R-- .... ....
....|..|C-4 AF.. ....|--- .... ....|G-4 .... ....
 G-3|..|G-1 2A.. ....|--- .... ....|G-5 .F.. ....
 G-4|..|G-2 .A.. ....|--- .... ....|R-- .... ....
....|..|--- .... ....|--- .... ....|--- .... ....
....|..|B-8 JF.. ....|C-6 ...F ....|G-4 ..1. ....
 G-3|..|G-1 2A.. ....|--- .... 11.1|G-5 .F.. ....
 G-4|..|G-2 .A.. ....|R-- .... ....|R-- .... ....
....|..|R-- .... ....|--- .... ....|R-- .... ....
....|..|C-4 AF.. ....|C-6 .... ....|G-4 ..1. ....
....|..|R-- .... ....|--- .... ....|G-4 ..2. ....
....|..|R-- .... ....|--- .... 11.1|R-- .... ....
 A-3|..|R-- .... ....|--- .... ....|A-5 .C.. ....
....|..|B-8 J... ....|A-5 .... ....|G-4 .F1. ....
 G-3|..|G-1 2A.. ....|--- .... ....|E-4 .F.7 ....
 G-4|..|G-2 .A.. ....|R-- .... ....|R-- .... ....
....|..|--- .... ....|--- .... ....|C-4 ...F ....

[Pattern54]
....|..|C-4 AF.F ....|C-6 2F.F ....|G-4 2F1A ....
....|..|R-- .... ....|--- .... ....|G-5 .F.. ....
....|..|R-- .... ....|R-- .... ....|R-- .... ....
 A-3|..|--- .... ....|--- .... ....|A-5 .C.F ....
....|..|B-8 J... ....|A-5 .... ....|G-4 .F1. ....
 G-3|..|G-1 2A.. ....|--- .... ....|G-4 ..2A ....
 G-4|..|G-2 .A.. ....|--- .... ....|R-- .... ....
 C-3|..|R-- .... ....|--- .... ....|C-6 .C.F ....
....|..|C-4 AF.. ....|C-6 .... ....|G-4 .F1. ....
....|..|G-1 2..7 ....|--- .... ....|G-5 .F.7 ....
....|..|G-2 .... ....|R-- .... ....|R-- .... ....
....|..|--- .... ....|--- .... ....|C-4 ...A ....
....|..|B-8 J..F ....|C-6 ...A ....|G-4 ..1F ....
 G-3|..|G-1 2A.. ....|--- .... ....|G-5 .F.7 ....
 G-4|..|G-2 .A.. ....|R-- .... ....|R-- .... ....
....|..|R-- .... ....|--- .... ....|R-- .... ....
....|..|C-4 AF.. ....|A-5 .... ....|G#4 ..6F ....
 G#3|..|G#1 2A.. ....|--- .... ....|G-4 ..27 ....
 G#4|..|G#2 .A.. ....|--- .... ....|R-- .... ....
....|..|R-- .... ....|--- .... ....|A-5 .F.. ....
....|..|B-8 JF.. ....|A-5 ...7 ....|G#4 ..6F ....
 G#3|..|G#1 2A.. ....|--- .... ....|R-- .... ....
 G#4|..|G#2 .A.. ....|R-- .... ....|R-- .... ....
....|..|--- .... ....|--- .... ....|C-4 .F.7 ....
....|..|C-4 AF.. ....|C-6 .... ....|G#4 ..6F ....
....|..|R-- .... ....|--- .... ....|R-- .... ....
....|..|R-- .... ....|--- .... ....|R-- .... ....
....|..|R-- .... ....|R-- .... ....|A-5 .F.7 ....
....|..|B-8 J... ....|A-5 .... ....|G#4 ..6F ....
 G#3|..|G#1 2A.. ....|--- .... ....|R-- .... ....
 G#4|..|G#2 .A.. ....|--- .... ....|R-- .... ....
....|..|R-- .... ....|--- .... ....|C-6 .F.7 ....
....|..|C-4 AF.. ....|C-6 .... ....|C-4 ..2F ....
....|..|R-- .... ....|--- .... ....|R-- .... ....
....|..|R-- .... ....|--- .... ....|R-- .... ....
....|..|--- .... ....|--- .... ....|--- .... ....
....|..|B-8 J... ....|--- .... ....|G#4 ..6. ....
 G#3|..|G#1 2A.. ....|--- .... ....|G#5 .F.. ....
 G#4|..|G#2 .A.. ....|--- .... ....|R-- .... ....
....|..|R-- .... ....|R-- .... ....|--- .... ....
....|..|C-4 AF.. ....|--- .... ....|G#4 ..6. ....
....|..|G#1 2..7 ....|--- .... ....|G#5 .F.. ....
....|..|G#2 .... ....|--- .... ....|R-- .... ....
....|..|R-- .... ....|--- .... ....|--- .... ....
....|..|B-8 J..F ....|--- .... ....|G#4 ..6. ....
 G#3|..|G#1 2A.. ....|--- .... ....|G#5 .F.. ....
 G#4|..|G#2 .A.. ....|--- .... ....|R-- .... ....
....|..|--- .... ....|--- .... ....|--- .... ....
....|..|C-4 AF.. ....|--- .... ....|A-4 ..3. ....
 A-3|..|A-1 2A.. ....|--- .... ....|A-4 ..4. ....
 A-3|..|A-2 .C.. ....|--- .... ....|R-- .... ....
....|..|R-- .... ....|--- .... ....|--- .... ....
....|..|B-8 JF.. ....|--- .... ....|A-4 ..3. ....
 A-3|..|A-1 2A.. ....|--- .... ....|A-4 ..4. ....
 A-3|..|A-2 .C.. ....|--- .... ....|R-- .... ....
....|..|R-- .... ....|--- .... ....|R-- .... ....
....|..|C-4 AF.. ....|--- .... ....|A-4 ..3. ....
....|..|R-- .... ....|--- .... ....|A-4 ..4. ....
....|..|R-- .... ....|--- .... ....|R-- .... ....
....|..|--- .... ....|--- .... ....|--- .... ....
....|..|B-8 J... ....|--- .... ....|A-4 ..3. ....
 A-3|..|A-1 2A.. ....|--- .... ....|G#5 .F.7 ....
 A-3|..|A-2 .C.. ....|--- .... ....|R-- .... ....
....|..|R-- .... ....|--- .... ....|--- .... ....

[Pattern55]
....|..|C-4 AF.F ....|--- .... ....|C-4 2FAF ....
....|..|R-- .... ....|--- .... ....|G#5 .F.7 ....
....|..|R-- .... ....|--- .... ....|R-- .... ....
....|..|--- .... ....|--- .... ....|R-- .... ....
....|..|B-8 J... ....|--- .... ....|E-5 ..5F ....
 A-3|..|A-1 2A.. ....|--- .... ....|G#5 .F.7 ....
 A-3|..|A-2 .C.. ....|--- .... ....|R-- .... ....
....|..|--- .... ....|--- .... ....|--- .... ....
....|..|C-4 AF.. ....|--- .... ....|E-5 ..5F ....
....|..|A-1 2..7 ....|--- .... ....|A-4 ..47 ....
....|..|A-2 .... ....|--- .... ....|R-- .... ....
....|..|R-- .... ....|--- .... ....|--- .... ....
....|..|B-8 J..F ....|--- .... ....|E-5 ..5F ....
 A-3|..|A-1 2A.. ....|--- .... ....|A-4 ..47 ....
 A-3|..|A-2 .C.. ....|--- .... ....|R-- .... ....
....|..|--- .... ....|--- .... ....|R-- .... ....
 A-3|..|C-4 AF.7 ....|A-4 2FEF ....|A-4 .C.F ....
....|..|R-- .... ....|--- .... ....|A-4 .F47 ....
....|..|R-- .... ....|--- .... ....|R-- .... ....
....|..|--- .... ....|R-- .... ....|R-- .... ....
....|..|B-8 J... ....|--- .... ....|A-4 ..3. ....
....|..|A-1 2... ....|--- .... ....|--- .... ....
....|..|A-2 .... ....|--- .... ....|R-- .... ....
....|..|R-- .... ....|--- .... ....|--- .... ....
 A-3|..|C-4 A... ....|A-4 .... ....|A-4 .C.F ....
....|..|R-- .... ....|--- .... ....|--- .... ....
....|..|A-2 2..A ....|--- .... ....|R-- .... ....
....|..|--- .... ....|--- .... ....|R-- .... ....
....|..|B-8 J..7 ....|A-4 ...A ....|E-5 .F57 ....
....|..|A-1 2... ....|--- .... ....|--- .... ....
....|..|A-2 .... ....|--- .... ....|R-- .... ....
....|..|--- .... ....|R-- .... ....|R-- .... ....
 E-4|..|C-4 A... ....|E-5 ...F ....|E-5 .C.F ....
....|..|R-- .... ....|--- .... ....|--- .... ....
....|..|R-- .... ....|--- .... ....|R-- .... ....
....|..|--- .... ....|R-- .... ....|R-- .... ....
 E-4|..|B-8 J... ....|E-5 .... ....|E-5 .C.. ....
....|..|A-1 2... ....|--- .... ....|--- .... ....
....|..|A-2 .... ....|R-- .... ....|R-- .... ....
....|..|--- .... ....|--- .... ....|R-- .... ....
 F-4|..|R-- .... ....|F-5 .... ....|F-5 .C.. ....
....|..|--- .... ....|--- .... ....|--- .... ....
....|..|--- .... ....|--- .... ....|--- .... ....
....|..|--- .... ....|R-- .... ....|R-- .... ....
 E-4|..|--- .... ....|E-5 .... ....|E-5 .C.. ....
....|..|--- .... ....|--- .... ....|--- .... ....
....|..|--- .... ....|--- .... ....|--- .... ....
....|..|--- .... ....|R-- .... ....|R-- .... ....
....|..|--- .... ....|A-4 ...7 ....|A-4 .F.7 ....
....|..|--- .... ....|--- .... ....|--- .... ....
....|..|--- .... ....|R-- .... ....|R-- .... ....
....|..|--- .... ....|--- .... ....|--- .... ....
 A-3|..|--- .... ....|A-4 ...F ....|A-4 .C.F ....
....|..|--- .... ....|--- .... ....|--- .... ....
....|..|--- .... ....|R-- .... ....|R-- .... ....
....|..|--- .... ....|R-- .... ....|R-- .... ....
 A-3|..|--- .... ....|A-4 .... ....|A-4 .C.. ....
....|..|--- .... ....|--- .... ....|--- .... ....
....|..|--- .... ....|--- .... ....|--- .... ....
....|..|--- .... ....|R-- .... ....|R-- .... ....
....|..|--- .... ....|E-5 ...7 ....|E-5 .F.7 ....
....|..|--- .... ....|--- .... ....|--- .... ....
....|..|--- .... ....|R-- .... ....|R-- .... ....
....|..|--- .... ....|--- .... ....|--- .... ....

[Pattern56]
 E-4|..|--- .... ....|E-5 2FEF ....|E-5 2C.F ....
....|..|--- .... ....|--- .... ....|--- .... ....
....|..|--- .... ....|R-- .... ....|R-- .... ....
....|..|--- .... ....|--- .... ....|--- .... ....
 E-4|..|--- .... ....|E-5 .... ....|E-5 .C.. ....
....|..|--- .... ....|--- .... ....|--- .... ....
....|..|--- .... ....|R-- .... ....|R-- .... ....
....|..|--- .... ....|--- .... ....|--- .... ....
 F-4|..|--- .... ....|F-5 .... ....|F-5 .C.. ....
....|..|--- .... ....|--- .... ....|--- .... ....
....|..|--- .... ....|R-- .... ....|R-- .... ....
....|..|--- .... ....|--- .... ....|--- .... ....
 E-4|..|--- .... ....|E-5 .... ....|E-5 .C.. ....
....|..|--- .... ....|--- .... ....|--- .... ....
....|..|--- .... ....|R-- .... ....|R-- .... ....
....|..|--- .... ....|R-- .... ....|R-- .... ....
 A-3|..|--- .... ....|A-4 .... ....|A-4 .C.. ....
....|..|--- .... ....|--- .... ....|--- .... ....
....|..|--- .... ....|R-- .... ....|R-- .... ....
....|..|--- .... ....|R-- .... ....|R-- .... ....
....|..|--- .... ....|F-5 ...A ....|F-5 .F.A ....
....|..|--- .... ....|--- .... ....|--- .... ....
....|..|--- .... ....|R-- .... ....|R-- .... ....
....|..|--- .... ....|--- .... ....|--- .... ....
 A-3|..|--- .... ....|A-4 ...F ....|A-4 .C.F ....
....|..|--- .... ....|--- .... ....|--- .... ....
....|..|--- .... ....|R-- .... ....|R-- .... ....
....|..|--- .... ....|R-- .... ....|R-- .... ....
....|..|--- .... ....|E-5 ...7 ....|E-5 .F.7 ....
....|..|--- .... ....|--- .... ....|--- .... ....
....|..|--- .... ....|R-- .... ....|R-- .... ....
....|..|--- .... ....|R-- .... ....|R-- .... ....
 E-4|..|--- .... ....|E-5 ...F ....|E-5 .C.F ....
....|..|--- .... ....|--- .... ....|--- .... ....
....|..|--- .... ....|--- .... ....|--- .... ....
....|..|--- .... ....|R-- .... ....|R-- .... ....
 E-4|..|--- .... ....|E-5 .... ....|E-5 .C.. ....
....|..|--- .... ....|--- .... ....|--- .... ....
....|..|--- .... ....|R-- .... ....|R-- .... ....
....|..|--- .... ....|R-- .... ....|R-- .... ....
 F-4|..|--- .... ....|F-5 .... ....|F-5 .C.. ....
....|..|--- .... ....|--- .... ....|--- .... ....
....|..|--- .... ....|--- .... ....|--- .... ....
....|..|--- .... ....|R-- .... ....|R-- .... ....
 E-4|..|--- .... ....|E-5 .... ....|E-5 .C.. ....
....|..|--- .... ....|--- .... ....|--- .... ....
....|..|--- .... ....|--- .... ....|--- .... ....
....|..|--- .... ....|R-- .... ....|R-- .... ....
....|..|--- .... ....|A-4 ...7 ....|A-4 .F.7 ....
....|..|--- .... ....|--- .... ....|--- .... ....
....|..|--- .... ....|R-- .... ....|R-- .... ....
....|..|--- .... ....|--- .... ....|--- .... ....
 C-3|..|--- .... ....|C-5 ...F ....|C-5 .C.F ....
....|..|--- .... ....|R-- .... ....|R-- .... ....
....|..|--- .... ....|--- .... ....|--- .... ....
....|..|--- .... ....|R-- .... ....|R-- .... ....
 C-3|..|--- .... ....|C-5 .... ....|C-5 .C.. ....
....|..|--- .... ....|--- .... ....|--- .... ....
....|..|--- .... ....|--- .... ....|--- .... ....
....|..|--- .... ....|R-- .... ....|R-- .... ....
 A-3|..|--- .... ....|A-4 .... ....|A-4 .C.. ....
....|..|--- .... ....|--- .... ....|--- .... ....
....|..|--- .... ....|R-- .... ....|R-- .... ....
....|..|--- .... ....|--- .... ....|--- .... ....

[Pattern57]
 C-3|..|--- .... ....|C-5 2FEF ....|C-5 2C.F ....
....|..|--- .... ....|R-- .... ....|R-- .... ....
....|..|--- .... ....|--- .... ....|--- .... ....
....|..|--- .... ....|--- .... ....|--- .... ....
....|..|--- .... ....|E-5 ...7 ....|E-5 .F.7 ....
....|..|--- .... ....|R-- .... ....|R-- .... ....
....|..|--- .... ....|--- .... ....|--- .... ....
....|..|--- .... ....|R-- .... ....|R-- .... ....
 C-3|..|--- .... ....|C-5 ...F ....|C-5 .C.F ....
....|..|--- .... ....|--- .... ....|--- .... ....
....|..|--- .... ....|--- .... ....|--- .... ....
....|..|--- .... ....|--- .... ....|--- .... ....
....|..|--- .... ....|C-5 ...7 ....|C-5 .F.7 ....
....|..|--- .... ....|R-- .... ....|R-- .... ....
....|..|--- .... ....|--- .... ....|--- .... ....
....|..|--- .... ....|--- .... ....|--- .... ....
....|..|--- .... ....|C-5 .... ....|C-5 .... ....
....|..|--- .... ....|R-- .... ....|R-- .... ....
....|..|--- .... ....|--- .... ....|--- .... ....
....|..|--- .... ....|R-- .... ....|R-- .... ....
....|..|--- .... ....|A-4 .... ....|A-4 .... ....
....|..|--- .... ....|--- .... ....|--- .... ....
....|..|--- .... ....|--- .... ....|--- .... ....
....|..|--- .... ....|--- .... ....|--- .... ....
....|..|--- .... ....|C-5 .... ....|C-5 .... ....
....|..|--- .... ....|--- .... ....|--- .... ....
....|..|--- .... ....|--- .... ....|--- .... ....
....|..|--- .... ....|--- .... ....|--- .... ....
....|..|--- .... ....|R-- .... ....|R-- .... ....
....|..|--- .... ....|R-- .... ....|R-- .... ....
....|..|--- .... ....|--- .... ....|--- .... ....
....|..|--- .... ....|--- .... ....|--- .... ....
....|..|--- .... ....|C-5 .... ....|C-5 .... ....
....|..|--- .... ....|--- .... ....|--- .... ....
....|..|--- .... ....|--- .... ....|--- .... ....
....|..|--- .... ....|--- .... ....|--- .... ....
....|..|--- .... ....|--- .... ....|--- .... ....
....|..|--- .... ....|--- .... ....|--- .... ....
....|..|--- .... ....|--- .... ....|--- .... ....
....|..|--- .... ....|--- .... ....|--- .... ....
....|..|--- .... ....|--- .... ....|--- .... ....
....|..|--- .... ....|--- .... ....|--- .... ....
....|..|--- .... ....|--- .... ....|--- .... ....
....|..|--- .... ....|--- .... ....|--- .... ....
....|..|--- .... ....|--- .... ....|--- .... ....
....|..|--- .... ....|--- .... ....|--- .... ....
....|..|--- .... ....|--- .... ....|--- .... ....
....|..|--- .... ....|--- .... ....|--- .... ....
....|..|--- .... ....|--- .... ....|--- .... ....
....|..|--- .... ....|--- .... ....|--- .... ....
....|..|--- .... ....|--- .... ....|--- .... ....
....|..|--- .... ....|--- .... ....|--- .... ....
....|..|--- .... ....|--- .... ....|--- .... ....
....|..|--- .... ....|--- .... ....|--- .... ....
....|..|--- .... ....|--- .... ....|--- .... ....
....|..|--- .... ....|--- .... ....|--- .... ....
....|..|--- .... ....|--- .... ....|--- .... ....
....|..|--- .... ....|--- .... ....|--- .... ....
....|..|--- .... ....|--- .... ....|--- .... ....
....|..|--- .... ....|--- .... ....|--- .... ....
....|..|--- .... ....|--- .... ....|--- .... ....
....|..|--- .... ....|--- .... ....|--- .... ....
....|..|--- .... ....|--- .... ....|--- .... ....
....|..|--- .... ....|--- .... ....|--- .... ....

[Pattern58]
....|..|--- .... ....|--- .... ....|--- .... ....
....|..|--- .... ....|--- .... ....|--- .... ....
....|..|--- .... ....|--- .... ....|--- .... ....
....|..|--- .... ....|--- .... ....|--- .... ....
....|..|--- .... ....|--- .... ....|--- .... ....
....|..|--- .... ....|--- .... ....|--- .... ....
....|..|--- .... ....|--- .... ....|--- .... ....
....|..|--- .... ....|--- .... ....|--- .... ....
....|..|--- .... ....|--- .... ....|--- .... ....
....|..|--- .... ....|--- .... ....|--- .... ....
....|..|--- .... ....|--- .... ....|--- .... ....
....|..|--- .... ....|--- .... ....|--- .... ....
....|..|--- .... ....|--- .... ....|--- .... ....
....|..|--- .... ....|--- .... ....|--- .... ....
....|..|--- .... ....|--- .... ....|--- .... ....
....|..|--- .... ....|--- .... ....|--- .... ....
....|..|--- .... ....|--- .... ....|--- .... ....
....|..|--- .... ....|--- .... ....|--- .... ....
....|..|--- .... ....|--- .... ....|--- .... ....
....|..|--- .... ....|--- .... ....|--- .... ....
....|..|--- .... ....|--- .... ....|--- .... ....
....|..|--- .... ....|--- .... ....|--- .... ....
....|..|--- .... ....|--- .... ....|--- .... ....
....|..|--- .... ....|--- .... ....|--- .... ....
....|..|--- .... ....|--- .... ....|--- .... ....
....|..|--- .... ....|--- .... ....|--- .... ....
....|..|--- .... ....|--- .... ....|--- .... ....
....|..|--- .... ....|--- .... ....|--- .... ....
....|..|--- .... ....|--- .... ....|--- .... ....
....|..|--- .... ....|--- .... ....|--- .... ....
....|..|--- .... ....|--- .... ....|--- .... ....
....|..|--- .... ....|--- .... ....|--- .... ....
....|..|--- .... ....|--- .... ....|--- .... ....
....|..|--- .... ....|--- .... ....|--- .... ....
....|..|--- .... ....|--- .... ....|--- .... ....
....|..|--- .... ....|--- .... ....|--- .... ....
....|..|--- .... ....|--- .... ....|--- .... ....
....|..|--- .... ....|--- .... ....|--- .... ....
....|..|--- .... ....|--- .... ....|--- .... ....
....|..|--- .... ....|--- .... ....|--- .... ....
....|..|--- .... ....|--- .... ....|--- .... ....
....|..|--- .... ....|--- .... ....|--- .... ....
....|..|--- .... ....|--- .... ....|--- .... ....
....|..|--- .... ....|--- .... ....|--- .... ....
....|..|--- .... ....|--- .... ....|--- .... ....
....|..|--- .... ....|--- .... ....|--- .... ....
....|..|--- .... ....|--- .... ....|--- .... ....
....|..|--- .... ....|--- .... ....|--- .... ....
....|..|--- .... ....|--- .... ....|--- .... ....
....|..|--- .... ....|--- .... ....|--- .... ....
....|..|--- .... ....|--- .... ....|--- .... ....
....|..|--- .... ....|--- .... ....|--- .... ....
....|..|--- .... ....|--- .... ....|--- .... ....
....|..|--- .... ....|--- .... ....|--- .... ....
....|..|--- .... ....|--- .... ....|--- .... ....
....|..|--- .... ....|--- .... ....|--- .... ....
....|..|--- .... ....|--- .... ....|--- .... ....
....|..|--- .... ....|--- .... ....|--- .... ....
....|..|--- .... ....|--- .... ....|--- .... ....
....|..|--- .... ....|--- .... ....|--- .... ....
....|..|--- .... ....|--- .... ....|--- .... ....
....|..|--- .... ....|--- .... ....|--- .... ....
....|..|--- .... ....|--- .... ....|--- .... ....
....|..|--- .... ....|--- .... ....|--- .... ....

