[Module]
VortexTrackerII=0
Version=3.5
Title=mika-grace_kelly.mid
Author=oisee ^ 4d 29.05.2010
NoteTable=4
ChipFreq=1750000
Speed=4
PlayOrder=L0,1,2,3,4,5,6,7,8,9,10,11,12,13,14,15,16,17,18,6,7,21,22,10,11,12,13,27,28,29,30,31,32,33,34,35,36,37,11,39,40,41,42,43,44,45


[Ornament1]
L0,0,7,7

[Ornament2]
L0,0,3,3,8,8

[Ornament3]
L0,0,5,5

[Ornament4]
L0,0,3,3

[Ornament5]
L0,0,4,4

[Ornament6]
L0,0,6,6

[Ornament7]
L0,0,4,4,7,7

[Ornament8]
L0,0,9,9

[Ornament9]
L0,0,8,8

[Ornament10]
L0,0,2,2

[Ornament11]
L0,0,5,5,9,9

[Ornament12]
L0,0,5,5,7,7

[Ornament13]
L0,0,3,3,7,7

[Ornament14]
L0,0,5,5,8,8


[Sample1]
TnE +000_ +00_ F_
TnE +000_ +00_ F_
TnE +000_ +00_ F_
TnE +000_ +00_ D_
TnE +000_ +00_ B_
TnE +000_ +00_ B_ L

[Sample2]
TnE +000_ +00_ F_ L

[Sample3]
TnE +001_ +00_ F_
TnE +002_ +00_ F_
TnE +001_ +00_ E_
TnE +002_ +00_ E_
TnE +000_ +00_ E_ L
TnE -001_ +00_ E_
TnE -002_ +00_ E_
TnE -001_ +00_ E_
TnE +000_ +00_ E_
TnE +001_ +00_ E_
TnE +002_ +00_ E_
TnE +001_ +00_ E_

[Sample4]
TnE +002_ +00_ D_
TnE +002_ +00_ D_
TnE +002_ +00_ C_
TnE +002_ +00_ B_
TnE +002_ +00_ A_ L
TnE +002_ +00_ A_
TnE +002_ +00_ A_
TnE +002_ +00_ A_
TnE +002_ +00_ A_
TnE +002_ +00_ A_
TnE +002_ +00_ A_
TnE +002_ +00_ A_

[Sample5]
TnE +000_ +00_ F_
TnE +000_ +00_ F_
tne +000_ +00_ 0_ L

[Sample6]
TnE -001_ +00_ F_ L

[Sample7]
TnE +006_ +00_ F_ L

[Sample8]
tNe +000_ +00_ F_
tNe +000_ +00_ B_
tNe +000_ +00_ 7_
tNe +000_ +00_ 6- L

[Sample9]
TnE +080_ +00_ F_
TnE +100_ +00_ E_
TnE +180_ +00_ E_
TnE +200_ +00_ E_
TnE +240_ +00_ D_
TnE +280_ +00_ D_
TnE +2C0_ +00_ D_
TnE +300_ +00_ C_
TnE +300_ +00_ C_
TnE +340_ +00_ C_
TnE +340_ +00_ C_
TnE +380_ +00_ B_
TnE +380_ +00_ B_
TnE +400_ +00_ B_
TnE +400_ +00_ B_
TnE +480_ +00_ A_
TnE +500_ +00_ 9_
TnE +580_ +00_ 7_
TnE +600_ +00_ 4_
TnE +680_ +00_ 1_
TnE +000_ +00_ 0_ L

[Sample10]
Tne +1C0_ +00_ F_
Tne +280_ +00_ E_
Tne +380_ +00_ C_
Tne +440_ +00_ A_
Tne +480_ +00_ 8_
TnE +000_ +00_ 0_ L

[Sample11]
TNe +200_ -0A_ F_
tNe +000_ +0F_ A_
TNe +200_ -07_ E_
tNe +000_ +0E_ B- L

[Sample12]
TNE +0A0_ +05_ F_
TNE +140_ +02_ D_
TNE +140_ +02_ B_
TNE +100_ +00_ A_ L
TNE +140_ +00_ A_
TNE +200_ +00_ A-

[Sample13]
Tne +200_ +00_ F_
Tne +2C0_ +00_ F_
Tne +380_ +00_ E_
Tne +500_ +00_ C_
Tne +520_ +00_ 9_
tne +000_ +00_ 0_ L

[Sample14]
TNE -100_ +00_ F_
TNE -100_ +00_ D_
TNE -100_ +00_ A_
TNE -100_ +00_ 5_
tne +000_ +00_ 0_ L

[Sample15]
TNE -100_ +00_ 5_
TNE -100_ +00_ 8_
TNE -100_ +00_ B_
TNE -100_ +00_ F_
TNe -100_ +00_ 9- L

[Sample16]
TnE +000_ +00_ C_
TnE +000_ +00_ E_
TnE +000_ +00_ F_
TnE +000_ +00_ F_
TnE +000_ +00_ E_
TnE +000_ +00_ D_
TnE +000_ +00_ C_
TnE +000_ +00_ C_ L
TnE +001_ +00_ C_
TnE +002_ +00_ C_
TnE +003_ +00_ C_
TnE +001_ +00_ C_
TnE +000_ +00_ C_
TnE -001_ +00_ C_
TnE -002_ +00_ C_
TnE -003_ +00_ C_
TnE -001_ +00_ C_
TnE +000_ +00_ C_
TnE +000_ +00_ C_

[Sample17]
Tne +1C0_ +00_ F_
Tne +280_ +00_ D_
Tne +380_ +00_ 7_
TNE +000_ +00_ 0_ L

[Sample18]
tnE +000_ +00_ 0_ L

[Sample19]
TNe +000_ +00_ F_
TNe +000_ +00_ C_
TNe +000_ +00_ 6_
TNe +000_ +01_ A- L

[Sample20]
TNE +140_ +00_ F_
tNE +000_ +00_ B- L

[Sample21]
tNE +000_ +00_ D_
tNE +000_ +00_ 8_
tNE +000_ +00_ 1_
TNE +000_ +00_ 0_ L

[Sample22]
TnE +000_ +00_ D_ L
TnE +000_ +00_ D_
tne +000_ +00_ 9_
tne +000_ +00_ 9_
TnE +000_ +00_ D_
TnE +000_ +00_ D_
tne +000_ +00_ 9_
tne +000_ +00_ 9_
TnE +000_ +00_ D_
TnE +000_ +00_ D_
TnE +000_ +00_ D_
TnE +000_ +00_ D_
TnE +000_ +00_ D_
TnE +000_ +00_ D_
tne +000_ +00_ 9_
tne +000_ +00_ 9_

[Sample23]
TnE +000_ +00_ F_ L
TnE +010_ +01_ F_
TnE +010_ +01_ F_
TnE +010_ +01_ F_
TnE +010_ +01_ F_
TnE +000_ +00_ F_
TnE +000_ +00_ F_
TnE -010_ -01_ F_
TnE -010_ -01_ F_
TnE -010_ -01_ F_
TnE -010_ -01_ F_
TnE +000_ +00_ F_

[Sample24]
TNe +000_ -01_ C_
TNe +000_ -01_ D_
TNe +000_ -01_ E_
TNe +000_ -01_ F_
TNe +000_ -01_ F_
TNe +000_ -01_ F_
TNe +000_ -01_ F_
TNe +000_ -01_ F_
TNe +000_ -01_ E_
TNe +000_ -01_ E_
TNe +000_ -01_ E_
TNe +000_ -01_ F_
TNe +000_ -01_ F_ L

[Sample25]
TNE +000_ +00_ F_
TNE +000_ +00_ F_ L
TNE +000_ +00_ F_
TNE +000_ +00_ F_
TNE +000_ +00_ F-

[Sample26]
tne +000_ +00_ 0_ L

[Sample27]
tne +000_ +00_ 0_ L

[Sample28]
tne +000_ +00_ 0_ L

[Sample29]
tne +000_ +00_ 0_ L

[Sample30]
TNE +000_ +00_ C+ L

[Sample31]
TNe +1C0_ +00_ F_
Tne +280_ +00_ E_
Tne +380_ +00_ C_
Tne +440_ +00_ A_
Tne +480_ +00_ 8_
TnE +000_ +00_ 0_ L

[Pattern0]
 G-4|..|G-2 .A.F ....|G-4 ...F ....|G-1 .F.F ....
....|..|--- .... ....|--- .... ....|--- .... ....
....|..|--- .... ....|--- .... ....|--- .... ....
....|..|--- .... ....|--- .... ....|--- .... ....
....|..|--- .... ....|--- .... ....|--- .... ....
....|..|--- .... ....|--- .... ....|--- .... ....
....|..|R-- .... ....|--- .... ....|--- .... ....
....|..|--- .... ....|R-- .... ....|--- .... ....
....|..|--- .... ....|D-4 ...F ....|--- .... ....
....|..|--- .... ....|--- .... ....|--- .... ....
....|..|--- .... ....|R-- .... ....|--- .... ....
....|..|--- .... ....|--- .... ....|--- .... ....
 G-4|..|G-2 .A.F ....|D-4 ...F ....|--- .... ....
....|..|--- .... ....|--- .... ....|--- .... ....
....|..|--- .... ....|--- .... ....|--- .... ....
....|..|--- .... ....|--- .... ....|--- .... ....
....|..|--- .... ....|--- .... ....|--- .... ....
....|..|--- .... ....|--- .... ....|--- .... ....
....|..|R-- .... ....|G-4 ...A ....|G-1 .F.A ....
....|..|--- .... ....|--- .... ....|--- .... ....
 F#4|..|F#2 .A.F ....|R-- .... ....|--- .... ....
....|..|--- .... ....|--- .... ....|--- .... ....
....|..|--- .... ....|--- .... ....|--- .... ....
....|..|--- .... ....|--- .... ....|--- .... ....
 G-4|..|G-2 .A.F ....|--- .... ....|--- .... ....
....|..|--- .... ....|R-- .... ....|--- .... ....
....|..|--- .... ....|D-4 ...A ....|--- .... ....
....|..|--- .... ....|--- .... ....|--- .... ....
....|..|--- .... ....|R-- .... ....|--- .... ....
....|..|--- .... ....|--- .... ....|--- .... ....
....|..|R-- .... ....|D-4 ...A ....|--- .... ....
....|..|--- .... ....|--- .... ....|--- .... ....
....|..|--- .... ....|--- .... ....|--- .... ....
....|..|--- .... ....|--- .... ....|--- .... ....
....|..|--- .... ....|--- .... ....|--- .... ....
....|..|--- .... ....|--- .... ....|--- .... ....
 G-4|..|G-2 .A.F ....|G-4 ...7 ....|G-1 .F.7 ....
....|..|--- .... ....|--- .... ....|--- .... ....
 F#4|..|F#2 .F.A ....|R-- .... ....|--- .... ....
....|..|--- .... ....|--- .... ....|--- .... ....
....|..|--- .... ....|G-4 ...F ....|--- .... ....
....|..|--- .... ....|R-- .... ....|--- .... ....
....|..|R-- .... ....|--- .... ....|--- .... ....
....|..|--- .... ....|G-4 ...F ....|--- .... ....
 F#4|..|F#2 .A.F ....|D-4 ...7 ....|--- .... ....
....|..|--- .... ....|--- .... ....|--- .... ....
....|..|--- .... ....|R-- .... ....|--- .... ....
....|..|--- .... ....|--- .... ....|--- .... ....
 G-4|..|G-2 .A.F ....|G-4 ...F ....|--- .... ....
....|..|--- .... ....|R-- .... ....|--- .... ....
....|..|--- .... ....|--- .... ....|--- .... ....
....|..|--- .... ....|--- .... ....|--- .... ....
....|..|--- .... ....|G-4 ...F ....|--- .... ....
....|..|--- .... ....|R-- .... ....|--- .... ....
....|..|R-- .... ....|--- .... ....|--- .... ....
....|..|--- .... ....|G-4 ...F ....|--- .... ....
 F#4|..|F#2 .F.7 ....|R-- .... ....|--- .... ....
....|..|--- .... ....|--- .... ....|--- .... ....
....|..|--- .... ....|G-4 ...A ....|--- .... ....
....|..|--- .... ....|R-- .... ....|--- .... ....
 G-4|..|G-2 .A.F ....|--- .... ....|--- .... ....
....|..|--- .... ....|G-4 ...A ....|--- .... ....
 F#4|..|F#2 .F.A ....|G-4 ...F ....|--- .... ....
....|..|--- .... ....|R-- .... ....|--- .... ....
....|..|--- .... ....|--- .... ....|--- .... ....
....|..|--- .... ....|--- .... ....|--- .... ....
....|..|R-- .... ....|G-4 ...A ....|--- .... ....
....|..|--- .... ....|G-4 ...F ....|--- .... ....
 D-4|..|D-2 .A.F ....|R-- .... ....|--- .... ....
....|..|R-- .... ....|--- .... ....|--- .... ....
....|..|--- .... ....|G-4 ...A ....|--- .... ....
....|..|--- .... ....|R-- .... ....|--- .... ....
 F#4|..|F#2 .A.F ....|G-4 ...F ....|--- .... ....
....|..|--- .... ....|R-- .... ....|--- .... ....
....|..|--- .... ....|R-- .... ....|--- .... ....
....|..|--- .... ....|--- .... ....|--- .... ....
....|..|--- .... ....|G-4 ...7 ....|--- .... ....
....|..|--- .... ....|R-- .... ....|--- .... ....
....|..|R-- .... ....|--- .... ....|--- .... ....
....|..|--- .... ....|G-4 ...7 ....|--- .... ....
 D-4|..|D-2 .A.F ....|G-4 ...F ....|--- .... ....
....|..|R-- .... ....|R-- .... ....|--- .... ....
....|..|--- .... ....|G-4 ...F ....|--- .... ....
....|..|--- .... ....|R-- .... ....|--- .... ....
 F#4|..|F#2 .A.F ....|G-4 ...F ....|--- .... ....
....|..|--- .... ....|R-- .... ....|R-- .... ....
 D-4|..|D-2 .F.A ....|R-- .... ....|--- .... ....
....|..|R-- .... ....|--- .... ....|--- .... ....
....|..|--- .... ....|G-4 ...7 ....|--- .... ....
....|..|--- .... ....|G-4 ...F ....|--- .... ....
....|..|R-- .... ....|R-- .... ....|--- .... ....
....|..|--- .... ....|G-4 ...7 ....|--- .... ....
....|..|--- .... ....|G-4 ...F ....|--- .... ....
....|..|--- .... ....|R-- .... ....|--- .... ....
....|..|--- .... ....|--- .... ....|--- .... ....
....|..|--- .... ....|--- .... ....|--- .... ....

[Pattern1]
 G-4|..|G-2 .A.F ....|G-4 ...F ....|--- .... ....
....|..|--- .... ....|R-- .... ....|--- .... ....
 D-4|..|D-2 .F.A ....|G-4 ...7 ....|--- .... ....
....|..|R-- .... ....|R-- .... ....|--- .... ....
....|..|--- .... ....|G-4 ...A ....|--- .... ....
....|..|--- .... ....|G-4 ...F ....|--- .... ....
....|..|R-- .... ....|R-- .... ....|--- .... ....
....|..|--- .... ....|G-4 ...7 ....|R-- .... ....
 D-4|..|D-2 .F.7 ....|R-- .... ....|--- .... ....
....|..|R-- .... ....|--- .... ....|--- .... ....
....|..|--- .... ....|--- .... ....|--- .... ....
....|..|--- .... ....|G-4 ...A ....|--- .... ....
 G-4|..|G-2 .A.F ....|G-4 ...7 ....|--- .... ....
....|..|--- .... ....|R-- .... ....|--- .... ....
....|..|--- .... ....|G-4 ...A ....|--- .... ....
....|..|--- .... ....|R-- .... ....|--- .... ....
....|..|--- .... ....|--- .... ....|--- .... ....
....|..|--- .... ....|--- .... ....|--- .... ....
....|..|R-- .... ....|G-4 ...A ....|--- .... ....
....|..|--- .... ....|R-- .... ....|--- .... ....
 F#4|..|F#2 .A.F ....|G-4 ...7 ....|--- .... ....
....|..|R-- .... ....|R-- .... ....|--- .... ....
....|..|--- .... ....|G-4 ...7 ....|--- .... ....
....|..|--- .... ....|R-- .... ....|--- .... ....
 G-4|..|G-2 .A.F ....|G-4 ...7 ....|--- .... ....
....|..|--- .... ....|R-- .... ....|R-- .... ....
....|..|--- .... ....|--- .... ....|--- .... ....
....|..|--- .... ....|--- .... ....|--- .... ....
....|..|--- .... ....|--- .... ....|--- .... ....
....|..|--- .... ....|G-4 ...7 ....|--- .... ....
....|..|R-- .... ....|R-- .... ....|--- .... ....
....|..|--- .... ....|G-4 ...F ....|--- .... ....
....|..|--- .... ....|G-4 ...7 ....|--- .... ....
....|..|--- .... ....|R-- .... ....|--- .... ....
....|..|--- .... ....|--- .... ....|--- .... ....
....|..|--- .... ....|G-4 ...F ....|--- .... ....
 G-4|..|G-2 .A.F ....|G-4 ...7 ....|--- .... ....
....|..|--- .... ....|R-- .... ....|--- .... ....
 F#4|..|F#2 .F.A ....|G-4 ...F ....|--- .... ....
....|..|--- .... ....|R-- .... ....|--- .... ....
....|..|--- .... ....|--- .... ....|--- .... ....
....|..|--- .... ....|G-4 ...F ....|--- .... ....
....|..|R-- .... ....|R-- .... ....|--- .... ....
....|..|--- .... ....|--- .... ....|--- .... ....
 F#4|..|F#2 .A.F ....|--- .... ....|--- .... ....
....|..|--- .... ....|G-4 ...F ....|--- .... ....
....|..|--- .... ....|R-- .... ....|--- .... ....
....|..|--- .... ....|--- .... ....|--- .... ....
 G-4|..|G-2 .A.F ....|--- .... ....|--- .... ....
....|..|--- .... ....|G-4 ...F ....|--- .... ....
....|..|--- .... ....|R-- .... ....|--- .... ....
....|..|--- .... ....|--- .... ....|--- .... ....
....|..|--- .... ....|--- .... ....|--- .... ....
....|..|--- .... ....|G-4 ...F ....|--- .... ....
....|..|R-- .... ....|R-- .... ....|--- .... ....
....|..|--- .... ....|--- .... ....|--- .... ....
 F#4|..|F#2 .F.7 ....|G-4 ...A ....|--- .... ....
....|..|--- .... ....|R-- .... ....|--- .... ....
....|..|--- .... ....|G-4 ...F ....|--- .... ....
....|..|--- .... ....|R-- .... ....|--- .... ....
 G-4|..|G-2 .A.F ....|R-- .... ....|--- .... ....
....|..|--- .... ....|--- .... ....|--- .... ....
 F#4|..|F#2 .F.A ....|G-4 ...F ....|--- .... ....
....|..|--- .... ....|R-- .... ....|--- .... ....
....|..|--- .... ....|R-- .... ....|--- .... ....
....|..|--- .... ....|--- .... ....|--- .... ....
....|..|R-- .... ....|--- .... ....|--- .... ....
....|..|--- .... ....|G-4 ...7 ....|--- .... ....
 D-4|..|D-2 .A.F ....|R-- .... ....|--- .... ....
....|..|R-- .... ....|--- .... ....|--- .... ....
....|..|--- .... ....|--- .... ....|--- .... ....
....|..|--- .... ....|G-4 ...7 ....|--- .... ....
 F#4|..|F#2 .A.F ....|R-- .... ....|--- .... ....
....|..|--- .... ....|--- .... ....|--- .... ....
....|..|--- .... ....|G-4 ...7 ....|--- .... ....
....|..|--- .... ....|R-- .... ....|--- .... ....
....|..|--- .... ....|G-4 ...A ....|--- .... ....
....|..|--- .... ....|G-4 ...7 ....|--- .... ....
....|..|R-- .... ....|R-- .... ....|--- .... ....
....|..|--- .... ....|--- .... ....|--- .... ....
 D-4|..|D-2 .A.F ....|G-4 ...A ....|G-5 .F.F ....
....|..|R-- .... ....|G-4 ...7 ....|--- .... ....
....|..|--- .... ....|R-- .... ....|--- .... ....
....|..|--- .... ....|--- .... ....|--- .... ....
 F#4|..|F#2 .A.F ....|--- .... ....|--- .... ....
....|..|--- .... ....|G-4 ...7 ....|--- .... ....
 D-4|..|D-2 .F.A ....|R-- .... ....|--- .... ....
....|..|R-- .... ....|--- .... ....|--- .... ....
....|..|--- .... ....|--- .... ....|--- .... ....
....|..|--- .... ....|G-4 ...7 ....|--- .... ....
....|..|R-- .... ....|R-- .... ....|--- .... ....
....|..|--- .... ....|--- .... ....|--- .... ....
 D-4|..|D-2 .A.F ....|--- .... ....|--- .... ....
....|..|R-- .... ....|--- .... ....|--- .... ....
....|..|--- .... ....|G-4 ...7 ....|--- .... ....
....|..|--- .... ....|R-- .... ....|--- .... ....

[Pattern2]
 G-4|..|G-2 .A.F ....|--- .... ....|G-3 .F1F ....
....|..|--- .... ....|--- .... ....|--- .... ....
 D-4|..|D-2 .F.A ....|G-4 ...7 ....|G-5 .F.A ....
....|..|R-- .... ....|R-- .... ....|--- .... ....
....|..|--- .... ....|--- .... ....|--- .... ....
....|..|--- .... ....|--- .... ....|--- .... ....
....|..|R-- .... ....|--- .... ....|--- .... ....
....|..|--- .... ....|--- .... ....|--- .... ....
 D-4|..|D-2 .F.7 ....|G-4 ...F ....|--- .... ....
....|..|R-- .... ....|--- .... ....|--- .... ....
....|..|--- .... ....|--- .... ....|--- .... ....
....|..|--- .... ....|--- .... ....|--- .... ....
 G-4|..|G-2 .A.F ....|A#4 ...F ....|--- .... ....
....|..|--- .... ....|--- .... ....|G-3 .F1F ....
 D-4|..|D-2 .F.A ....|R-- .... ....|--- .... ....
....|..|R-- .... ....|--- .... ....|--- .... ....
....|..|--- .... ....|A-4 ...F ....|--- .... ....
....|..|--- .... ....|--- .... ....|--- .... ....
....|..|R-- .... ....|--- .... ....|G-3 .F1A ....
....|..|--- .... ....|R-- .... ....|--- .... ....
 F#4|..|F#2 .A.F ....|G-4 ...F ....|G-5 .F.7 ....
....|..|R-- .... ....|--- .... ....|--- .... ....
....|..|--- .... ....|--- .... ....|--- .... ....
....|..|--- .... ....|--- .... ....|--- .... ....
 G-4|..|G-2 .A.F ....|A-4 ...F ....|--- .... ....
....|..|--- .... ....|--- .... ....|--- .... ....
....|..|--- .... ....|G-4 ...A ....|--- .... ....
....|..|--- .... ....|--- .... ....|--- .... ....
....|..|--- .... ....|--- .... ....|--- .... ....
....|..|--- .... ....|--- .... ....|--- .... ....
....|..|R-- .... ....|R-- .... ....|--- .... ....
....|..|--- .... ....|--- .... ....|G-3 .F1A ....
 D-4|..|D-2 .F.7 ....|G-4 ...F ....|--- .... ....
....|..|R-- .... ....|R-- .... ....|--- .... ....
....|..|--- .... ....|A-4 ...A ....|--- .... ....
....|..|--- .... ....|--- .... ....|--- .... ....
 G-4|..|G-2 .A.F ....|A#4 ...F ....|G-3 .F17 ....
....|..|--- .... ....|R-- .... ....|--- .... ....
 F#4|..|F#2 .F.A ....|G-4 ...A ....|--- .... ....
....|..|--- .... ....|R-- .... ....|--- .... ....
....|..|--- .... ....|A-4 ...F ....|--- .... ....
....|..|--- .... ....|--- .... ....|--- .... ....
....|..|R-- .... ....|R-- .... ....|--- .... ....
....|..|--- .... ....|--- .... ....|--- .... ....
 F#4|..|F#2 .A.F ....|G-4 ...F ....|--- .... ....
....|..|--- .... ....|--- .... ....|--- .... ....
....|..|--- .... ....|R-- .... ....|--- .... ....
....|..|--- .... ....|--- .... ....|--- .... ....
 G-4|..|G-2 .A.F ....|A-4 ...F ....|--- .... ....
....|..|--- .... ....|--- .... ....|G-3 .F17 ....
....|..|--- .... ....|R-- .... ....|--- .... ....
....|..|--- .... ....|R-- .... ....|--- .... ....
....|..|--- .... ....|A-4 ...7 ....|--- .... ....
....|..|--- .... ....|R-- .... ....|--- .... ....
....|..|R-- .... ....|A#4 ...A ....|--- .... ....
....|..|--- .... ....|R-- .... ....|--- .... ....
 F#4|..|F#2 .F.7 ....|G-4 ...F ....|--- .... ....
....|..|--- .... ....|R-- .... ....|--- .... ....
....|..|--- .... ....|A-4 ...A ....|--- .... ....
....|..|--- .... ....|--- .... ....|--- .... ....
 G-4|..|G-2 .A.F ....|G-4 ...F ....|--- .... ....
....|..|--- .... ....|--- .... ....|--- .... ....
 F#4|..|F#2 .F.A ....|G-4 ...A ....|--- .... ....
....|..|--- .... ....|--- .... ....|--- .... ....
....|..|--- .... ....|R-- .... ....|--- .... ....
....|..|--- .... ....|--- .... ....|--- .... ....
....|..|R-- .... ....|R-- .... ....|--- .... ....
....|..|--- .... ....|--- .... ....|--- .... ....
 D-4|..|D-2 .A.F ....|G-4 ...F ....|--- .... ....
....|..|R-- .... ....|R-- .... ....|--- .... ....
....|..|--- .... ....|--- .... ....|--- .... ....
....|..|--- .... ....|R-- .... ....|--- .... ....
 F#4|..|F#2 .A.F ....|A-4 ...F ....|F#3 .F2F ....
....|..|--- .... ....|--- .... ....|--- .... ....
....|..|--- .... ....|G-4 ...A ....|--- .... ....
....|..|--- .... ....|R-- .... ....|--- .... ....
....|..|--- .... ....|A-4 ...7 ....|--- .... ....
....|..|--- .... ....|--- .... ....|--- .... ....
....|..|R-- .... ....|R-- .... ....|--- .... ....
....|..|--- .... ....|--- .... ....|--- .... ....
 D-4|..|D-2 .A.F ....|A-4 ...F ....|--- .... ....
....|..|R-- .... ....|--- .... ....|--- .... ....
....|..|--- .... ....|R-- .... ....|--- .... ....
....|..|--- .... ....|--- .... ....|--- .... ....
 F#4|..|F#2 .A.F ....|A-4 ...7 ....|--- .... ....
....|..|--- .... ....|--- .... ....|--- .... ....
 D-4|..|D-2 .F.A ....|G-4 ...A ....|--- .... ....
....|..|R-- .... ....|--- .... ....|--- .... ....
....|..|--- .... ....|R-- .... ....|--- .... ....
....|..|--- .... ....|R-- .... ....|--- .... ....
....|..|R-- .... ....|A-4 ...A ....|F#3 .F2A ....
....|..|--- .... ....|--- .... ....|--- .... ....
....|..|--- .... ....|B-4 ...F ....|--- .... ....
....|..|--- .... ....|R-- .... ....|--- .... ....
....|..|--- .... ....|R-- .... ....|--- .... ....
....|..|--- .... ....|--- .... ....|--- .... ....

[Pattern3]
 G-4|..|G-2 .A.F ....|G-4 ...7 ....|G-3 .F1F ....
....|..|--- .... ....|--- .... ....|--- .... ....
 D-4|..|D-2 .F.A ....|A-4 ...A ....|--- .... ....
....|..|R-- .... ....|--- .... ....|--- .... ....
....|..|--- .... ....|R-- .... ....|--- .... ....
....|..|--- .... ....|--- .... ....|--- .... ....
....|..|R-- .... ....|--- .... ....|--- .... ....
....|..|--- .... ....|--- .... ....|--- .... ....
 D-4|..|D-2 .F.7 ....|G-4 ...7 ....|--- .... ....
....|..|R-- .... ....|--- .... ....|--- .... ....
....|..|--- .... ....|R-- .... ....|--- .... ....
....|..|--- .... ....|R-- .... ....|--- .... ....
 G-4|..|G-2 .A.F ....|D-5 ...F ....|F#3 .F27 ....
....|..|--- .... ....|--- .... ....|--- .... ....
....|..|--- .... ....|R-- .... ....|--- .... ....
....|..|--- .... ....|--- .... ....|--- .... ....
....|..|--- .... ....|D-5 ...F ....|--- .... ....
....|..|--- .... ....|--- .... ....|--- .... ....
....|..|R-- .... ....|R-- .... ....|G-3 .F1A ....
....|..|--- .... ....|--- .... ....|--- .... ....
 F#4|..|F#2 .A.F ....|D-5 ...F ....|--- .... ....
....|..|R-- .... ....|--- .... ....|--- .... ....
....|..|--- .... ....|--- .... ....|--- .... ....
....|..|--- .... ....|R-- .... ....|--- .... ....
 G-4|..|G-2 .A.F ....|G-5 ...F ....|--- .... ....
....|..|--- .... ....|--- .... ....|--- .... ....
....|..|--- .... ....|--- .... ....|--- .... ....
....|..|--- .... ....|--- .... ....|--- .... ....
....|..|--- .... ....|R-- .... ....|--- .... ....
....|..|--- .... ....|--- .... ....|--- .... ....
....|..|R-- .... ....|D-5 ...A ....|--- .... ....
....|..|--- .... ....|R-- .... ....|--- .... ....
....|..|--- .... ....|F-5 ...F ....|--- .... ....
....|..|--- .... ....|--- .... ....|--- .... ....
....|..|--- .... ....|D-5 ...A ....|--- .... ....
....|..|--- .... ....|--- .... ....|--- .... ....
 G-4|..|G-2 .A.F ....|F-5 ...F ....|G-3 .F17 ....
....|..|--- .... ....|--- .... ....|--- .... ....
 F#4|..|F#2 .F.A ....|R-- .... ....|--- .... ....
....|..|--- .... ....|--- .... ....|--- .... ....
....|..|--- .... ....|F-5 ...F ....|--- .... ....
....|..|--- .... ....|R-- .... ....|--- .... ....
....|..|R-- .... ....|R-- .... ....|--- .... ....
....|..|--- .... ....|--- .... ....|--- .... ....
 F#4|..|F#2 .A.F ....|F-5 ...F ....|--- .... ....
....|..|--- .... ....|--- .... ....|--- .... ....
....|..|--- .... ....|--- .... ....|--- .... ....
....|..|--- .... ....|R-- .... ....|--- .... ....
 G-4|..|G-2 .A.F ....|C-5 ...F ....|--- .... ....
....|..|--- .... ....|R-- .... ....|--- .... ....
....|..|--- .... ....|R-- .... ....|--- .... ....
....|..|--- .... ....|--- .... ....|--- .... ....
....|..|--- .... ....|D-5 ...7 ....|--- .... ....
....|..|--- .... ....|R-- .... ....|--- .... ....
....|..|R-- .... ....|R-- .... ....|--- .... ....
....|..|--- .... ....|--- .... ....|--- .... ....
 F#4|..|F#2 .F.7 ....|C-5 ...F ....|--- .... ....
....|..|--- .... ....|--- .... ....|--- .... ....
....|..|--- .... ....|F-5 ...A ....|--- .... ....
....|..|--- .... ....|R-- .... ....|--- .... ....
 G-4|..|G-2 .A.F ....|C-5 ...F ....|--- .... ....
....|..|--- .... ....|--- .... ....|--- .... ....
 F#4|..|F#2 .F.A ....|F-5 ...A ....|--- .... ....
....|..|--- .... ....|--- .... ....|--- .... ....
....|..|--- .... ....|--- .... ....|--- .... ....
....|..|--- .... ....|R-- .... ....|--- .... ....
....|..|R-- .... ....|R-- .... ....|--- .... ....
....|..|--- .... ....|R-- .... ....|--- .... ....
 D-4|..|D-2 .A.F ....|C-5 ...F ....|--- .... ....
....|..|R-- .... ....|--- .... ....|--- .... ....
....|..|--- .... ....|R-- .... ....|--- .... ....
....|..|--- .... ....|R-- .... ....|--- .... ....
 F#4|..|F#2 .A.F ....|C-5 ...F ....|F#2 .F.F ....
....|..|--- .... ....|--- .... ....|--- .... ....
....|..|--- .... ....|R-- .... ....|--- .... ....
....|..|--- .... ....|--- .... ....|--- .... ....
....|..|--- .... ....|F-5 ...7 ....|--- .... ....
....|..|--- .... ....|R-- .... ....|--- .... ....
....|..|R-- .... ....|R-- .... ....|--- .... ....
....|..|--- .... ....|--- .... ....|--- .... ....
 D-4|..|D-2 .A.F ....|B-4 ...F ....|--- .... ....
....|..|R-- .... ....|--- .... ....|--- .... ....
....|..|--- .... ....|--- .... ....|--- .... ....
....|..|--- .... ....|R-- .... ....|--- .... ....
 F#4|..|F#2 .A.F ....|C-5 ...F ....|--- .... ....
....|..|--- .... ....|--- .... ....|--- .... ....
 D-4|..|D-2 .F.A ....|C-5 ...A ....|--- .... ....
....|..|R-- .... ....|--- .... ....|--- .... ....
....|..|--- .... ....|R-- .... ....|--- .... ....
....|..|--- .... ....|R-- .... ....|--- .... ....
....|..|R-- .... ....|C-5 ...A ....|F#2 .F.A ....
....|..|--- .... ....|--- .... ....|--- .... ....
 D-4|..|D-2 .A.F ....|B-4 ...F ....|--- .... ....
....|..|R-- .... ....|--- .... ....|--- .... ....
....|..|--- .... ....|--- .... ....|--- .... ....
....|..|--- .... ....|R-- .... ....|--- .... ....

[Pattern4]
 G-4|..|G-2 .A.F ....|C-5 ...7 ....|G-3 .F1F ....
....|..|--- .... ....|--- .... ....|--- .... ....
 D-4|..|D-2 .F.A ....|B-4 ...A ....|--- .... ....
....|..|R-- .... ....|--- .... ....|--- .... ....
....|..|--- .... ....|--- .... ....|--- .... ....
....|..|--- .... ....|R-- .... ....|--- .... ....
....|..|R-- .... ....|R-- .... ....|--- .... ....
....|..|--- .... ....|--- .... ....|--- .... ....
 D-4|..|D-2 .F.7 ....|C-5 ...7 ....|--- .... ....
....|..|R-- .... ....|--- .... ....|--- .... ....
....|..|--- .... ....|R-- .... ....|--- .... ....
....|..|--- .... ....|R-- .... ....|--- .... ....
 G-4|..|G-2 .A.F ....|B-4 ...F ....|F#2 .F.7 ....
....|..|--- .... ....|--- .... ....|--- .... ....
 D-4|..|D-2 .F.A ....|B-4 ...A ....|--- .... ....
....|..|R-- .... ....|--- .... ....|--- .... ....
....|..|--- .... ....|--- .... ....|--- .... ....
....|..|--- .... ....|R-- .... ....|--- .... ....
....|..|R-- .... ....|R-- .... ....|G-3 .F1A ....
....|..|--- .... ....|--- .... ....|--- .... ....
 F#4|..|F#2 .A.F ....|G-4 ...F ....|--- .... ....
....|..|R-- .... ....|--- .... ....|--- .... ....
....|..|--- .... ....|R-- .... ....|--- .... ....
....|..|--- .... ....|R-- .... ....|--- .... ....
 G-4|..|G-2 .A.F ....|A-4 ...F ....|--- .... ....
....|..|--- .... ....|--- .... ....|--- .... ....
....|..|--- .... ....|--- .... ....|--- .... ....
....|..|--- .... ....|--- .... ....|--- .... ....
....|..|--- .... ....|--- .... ....|--- .... ....
....|..|--- .... ....|R-- .... ....|--- .... ....
....|..|R-- .... ....|R-- .... ....|--- .... ....
....|..|--- .... ....|--- .... ....|--- .... ....
 D-4|..|D-2 .F.7 ....|G-4 ...F ....|--- .... ....
....|..|R-- .... ....|--- .... ....|--- .... ....
....|..|--- .... ....|R-- .... ....|--- .... ....
....|..|--- .... ....|--- .... ....|--- .... ....
 G-4|..|G-2 .A.F ....|G-4 ...F ....|G-3 .F17 ....
....|..|--- .... ....|--- .... ....|--- .... ....
 F#4|..|F#2 .F.A ....|R-- .... ....|--- .... ....
....|..|--- .... ....|--- .... ....|--- .... ....
....|..|--- .... ....|G-4 ...F ....|--- .... ....
....|..|--- .... ....|--- .... ....|--- .... ....
....|..|R-- .... ....|R-- .... ....|--- .... ....
....|..|--- .... ....|--- .... ....|--- .... ....
 F#4|..|F#2 .A.F ....|G-4 ...F ....|--- .... ....
....|..|--- .... ....|--- .... ....|--- .... ....
....|..|--- .... ....|R-- .... ....|--- .... ....
....|..|--- .... ....|--- .... ....|--- .... ....
 G-4|..|G-2 .A.F ....|A-4 ...F ....|--- .... ....
....|..|--- .... ....|--- .... ....|--- .... ....
....|..|--- .... ....|G-4 ...A ....|--- .... ....
....|..|--- .... ....|--- .... ....|--- .... ....
....|..|--- .... ....|R-- .... ....|--- .... ....
....|..|--- .... ....|R-- .... ....|--- .... ....
....|..|R-- .... ....|R-- .... ....|--- .... ....
....|..|--- .... ....|--- .... ....|--- .... ....
 F#4|..|F#2 .F.7 ....|G-4 ...F ....|--- .... ....
....|..|--- .... ....|--- .... ....|--- .... ....
....|..|--- .... ....|R-- .... ....|--- .... ....
....|..|--- .... ....|--- .... ....|--- .... ....
 G-4|..|G-2 .A.F ....|G-4 ...F ....|--- .... ....
....|..|--- .... ....|--- .... ....|--- .... ....
 F#4|..|F#2 .F.A ....|R-- .... ....|--- .... ....
....|..|--- .... ....|--- .... ....|--- .... ....
....|..|--- .... ....|G-4 ...F ....|--- .... ....
....|..|--- .... ....|--- .... ....|--- .... ....
....|..|R-- .... ....|R-- .... ....|--- .... ....
....|..|--- .... ....|--- .... ....|--- .... ....
 D-4|..|D-2 .A.F ....|G-4 ...F ....|--- .... ....
....|..|R-- .... ....|--- .... ....|--- .... ....
....|..|--- .... ....|R-- .... ....|--- .... ....
....|..|--- .... ....|R-- .... ....|--- .... ....
 F#4|..|F#2 .A.F ....|A-4 ...F ....|F#2 .F.F ....
....|..|--- .... ....|--- .... ....|--- .... ....
....|..|--- .... ....|R-- .... ....|--- .... ....
....|..|--- .... ....|--- .... ....|--- .... ....
....|..|--- .... ....|A-4 ...F ....|--- .... ....
....|..|--- .... ....|--- .... ....|--- .... ....
....|..|R-- .... ....|R-- .... ....|--- .... ....
....|..|--- .... ....|--- .... ....|--- .... ....
 D-4|..|D-2 .A.F ....|A-4 ...F ....|--- .... ....
....|..|R-- .... ....|--- .... ....|--- .... ....
....|..|--- .... ....|R-- .... ....|--- .... ....
....|..|--- .... ....|--- .... ....|--- .... ....
 F#4|..|F#2 .A.F ....|A-4 ...F ....|--- .... ....
....|..|--- .... ....|--- .... ....|--- .... ....
 D-4|..|D-2 .F.A ....|G-4 ...A ....|--- .... ....
....|..|R-- .... ....|--- .... ....|--- .... ....
....|..|--- .... ....|R-- .... ....|--- .... ....
....|..|--- .... ....|R-- .... ....|--- .... ....
....|..|R-- .... ....|R-- .... ....|F#2 .F.A ....
....|..|--- .... ....|--- .... ....|--- .... ....
....|..|--- .... ....|B-4 ...F ....|--- .... ....
....|..|--- .... ....|--- .... ....|--- .... ....
....|..|--- .... ....|R-- .... ....|--- .... ....
....|..|--- .... ....|--- .... ....|--- .... ....

[Pattern5]
 G-4|..|G-2 .A.F ....|G-4 ...7 ....|G-3 .F1F ....
....|..|--- .... ....|--- .... ....|--- .... ....
 D-4|..|D-2 .F.A ....|R-- .... ....|--- .... ....
....|..|R-- .... ....|--- .... ....|--- .... ....
....|..|--- .... ....|G-4 ...7 ....|--- .... ....
....|..|--- .... ....|--- .... ....|--- .... ....
....|..|R-- .... ....|R-- .... ....|--- .... ....
....|..|--- .... ....|--- .... ....|--- .... ....
 D-4|..|D-2 .F.7 ....|G-4 ...7 ....|--- .... ....
....|..|R-- .... ....|--- .... ....|--- .... ....
....|..|--- .... ....|R-- .... ....|--- .... ....
....|..|--- .... ....|--- .... ....|--- .... ....
 G-4|..|G-2 .A.F ....|D-5 ...F ....|F#2 .F.7 ....
....|..|--- .... ....|--- .... ....|--- .... ....
....|..|--- .... ....|R-- .... ....|--- .... ....
....|..|--- .... ....|--- .... ....|--- .... ....
....|..|--- .... ....|D-5 ...F ....|--- .... ....
....|..|--- .... ....|--- .... ....|--- .... ....
....|..|R-- .... ....|R-- .... ....|G-3 .F1A ....
....|..|--- .... ....|--- .... ....|--- .... ....
 F#4|..|F#2 .A.F ....|D-5 ...F ....|--- .... ....
....|..|R-- .... ....|--- .... ....|--- .... ....
....|..|--- .... ....|R-- .... ....|--- .... ....
....|..|--- .... ....|R-- .... ....|--- .... ....
 G-4|..|G-2 .A.F ....|G-5 ...F ....|--- .... ....
....|..|--- .... ....|--- .... ....|--- .... ....
....|..|--- .... ....|--- .... ....|--- .... ....
....|..|--- .... ....|--- .... ....|--- .... ....
....|..|--- .... ....|--- .... ....|--- .... ....
....|..|--- .... ....|--- .... ....|--- .... ....
....|..|R-- .... ....|R-- .... ....|--- .... ....
....|..|--- .... ....|R-- .... ....|--- .... ....
....|..|--- .... ....|F-5 ...F ....|--- .... ....
....|..|--- .... ....|--- .... ....|--- .... ....
....|..|--- .... ....|D-5 ...A ....|--- .... ....
....|..|--- .... ....|--- .... ....|--- .... ....
 G-4|..|G-2 .A.F ....|F-5 ...F ....|G-3 .F17 ....
....|..|--- .... ....|--- .... ....|--- .... ....
 F#4|..|F#2 .F.A ....|R-- .... ....|--- .... ....
....|..|--- .... ....|--- .... ....|--- .... ....
....|..|--- .... ....|F-5 ...F ....|--- .... ....
....|..|--- .... ....|R-- .... ....|--- .... ....
....|..|R-- .... ....|R-- .... ....|--- .... ....
....|..|--- .... ....|--- .... ....|--- .... ....
 F#4|..|F#2 .A.F ....|F-5 ...F ....|--- .... ....
....|..|--- .... ....|--- .... ....|--- .... ....
....|..|--- .... ....|--- .... ....|--- .... ....
....|..|--- .... ....|R-- .... ....|--- .... ....
 G-4|..|G-2 .A.F ....|C-5 ...F ....|--- .... ....
....|..|--- .... ....|R-- .... ....|--- .... ....
....|..|--- .... ....|R-- .... ....|--- .... ....
....|..|--- .... ....|--- .... ....|--- .... ....
....|..|--- .... ....|D-5 ...7 ....|--- .... ....
....|..|--- .... ....|--- .... ....|--- .... ....
....|..|R-- .... ....|R-- .... ....|--- .... ....
....|..|--- .... ....|--- .... ....|--- .... ....
 F#4|..|F#2 .F.7 ....|B-4 ...F ....|--- .... ....
....|..|--- .... ....|--- .... ....|--- .... ....
....|..|--- .... ....|R-- .... ....|--- .... ....
....|..|--- .... ....|R-- .... ....|--- .... ....
 G-4|..|G-2 .F.7 ....|C-5 ...F ....|--- .... ....
....|..|--- .... ....|--- .... ....|--- .... ....
 F#4|..|F#2 .F.A ....|F-5 ...A ....|--- .... ....
....|..|--- .... ....|--- .... ....|--- .... ....
....|..|--- .... ....|--- .... ....|--- .... ....
....|..|--- .... ....|R-- .... ....|--- .... ....
....|..|R-- .... ....|C-5 ...A ....|--- .... ....
....|..|--- .... ....|B-4 ...F ....|--- .... ....
....|..|--- .... ....|F-5 ...7 ....|--- .... ....
....|..|--- .... ....|--- .... ....|--- .... ....
....|..|--- .... ....|R-- .... ....|--- .... ....
....|..|--- .... ....|--- .... ....|--- .... ....
 G-4|..|G-2 .F.7 ....|C-5 ...F ....|R-- .... ....
....|..|--- .... ....|--- .... ....|--- .... ....
....|..|--- .... ....|R-- .... ....|--- .... ....
....|..|--- .... ....|--- .... ....|--- .... ....
....|..|--- .... ....|F-5 ...7 ....|--- .... ....
....|..|--- .... ....|R-- .... ....|--- .... ....
....|..|R-- .... ....|R-- .... ....|--- .... ....
....|..|--- .... ....|--- .... ....|--- .... ....
 F#4|..|F#2 .F.7 ....|B-4 ...F ....|--- .... ....
....|..|--- .... ....|--- .... ....|--- .... ....
....|..|--- .... ....|R-- .... ....|--- .... ....
....|..|--- .... ....|R-- .... ....|--- .... ....
 D-4|..|D-2 .A.F ....|C-5 ...F ....|--- .... ....
....|..|--- .... ....|B-4 ...A ....|--- .... ....
....|..|--- .... ....|--- .... ....|--- .... ....
....|..|--- .... ....|--- .... ....|--- .... ....
....|..|--- .... ....|R-- .... ....|--- .... ....
....|..|--- .... ....|--- .... ....|--- .... ....
....|..|R-- .... ....|R-- .... ....|R-- .... ....
....|..|--- .... ....|B-4 ...F ....|--- .... ....
....|..|--- .... ....|B-4 ...7 ....|--- .... ....
....|..|--- .... ....|--- .... ....|--- .... ....
....|..|--- .... ....|R-- .... ....|--- .... ....
....|..|R-- .... ....|R-- .... ....|--- .... ....

[Pattern6]
 G-3|..|G-1 .A.F ....|C-5 ...7 ....|G-2 .F.F ....
....|..|--- .... ....|--- .... ....|--- .... ....
....|..|--- .... ....|B-4 ...A ....|--- .... ....
....|..|--- .... ....|--- .... ....|--- .... ....
....|..|--- .... ....|R-- .... ....|--- .... ....
....|..|--- .... ....|R-- .... ....|--- .... ....
 D-4|..|D-2 .F.A ....|C-5 ...A ....|--- .... ....
....|..|--- .... ....|B-4 ...7 ....|--- .... ....
....|..|--- .... ....|--- .... ....|--- .... ....
....|..|--- .... ....|--- .... ....|--- .... ....
....|..|--- .... ....|R-- .... ....|--- .... ....
....|..|--- .... ....|--- .... ....|--- .... ....
....|..|--- .... ....|G-4 ...F ....|R-- .... ....
....|..|--- .... ....|B-4 ...A ....|--- .... ....
....|..|--- .... ....|R-- .... ....|--- .... ....
....|..|--- .... ....|--- .... ....|--- .... ....
....|..|--- .... ....|G-4 ...F ....|--- .... ....
....|..|R-- .... ....|R-- .... ....|--- .... ....
 G-3|..|G-1 .F.A ....|R-- .... ....|G-2 .F.A ....
....|..|--- .... ....|--- .... ....|--- .... ....
....|..|--- .... ....|G-4 ...F ....|--- .... ....
....|..|--- .... ....|--- .... ....|--- .... ....
....|..|--- .... ....|R-- .... ....|--- .... ....
....|..|--- .... ....|--- .... ....|--- .... ....
 D-4|..|D-2 .F.7 ....|G-4 ...F ....|--- .... ....
....|..|--- .... ....|--- .... ....|--- .... ....
....|..|--- .... ....|--- .... ....|--- .... ....
....|..|--- .... ....|--- .... ....|--- .... ....
....|..|--- .... ....|--- .... ....|--- .... ....
....|..|--- .... ....|--- .... ....|--- .... ....
....|..|--- .... ....|R-- .... ....|--- .... ....
....|..|--- .... ....|B-4 ...7 ....|--- .... ....
....|..|--- .... ....|A-4 ...F ....|--- .... ....
....|..|--- .... ....|--- .... ....|--- .... ....
....|..|--- .... ....|G-4 ...A ....|--- .... ....
....|..|R-- .... ....|--- .... ....|--- .... ....
 G-3|..|G-1 .F.7 ....|R-- .... ....|G-2 .F.7 ....
....|..|--- .... ....|--- .... ....|--- .... ....
....|..|--- .... ....|G-4 ...A ....|--- .... ....
....|..|--- .... ....|R-- .... ....|--- .... ....
....|..|--- .... ....|B-4 ...F ....|--- .... ....
....|..|--- .... ....|--- .... ....|--- .... ....
....|..|--- .... ....|G-4 ...A ....|--- .... ....
....|..|--- .... ....|--- .... ....|--- .... ....
....|..|--- .... ....|--- .... ....|--- .... ....
....|..|--- .... ....|R-- .... ....|--- .... ....
....|..|--- .... ....|--- .... ....|--- .... ....
....|..|--- .... ....|--- .... ....|--- .... ....
 C-4|..|C-2 .A.F ....|C-5 ...F ....|D-3 .F1F ....
....|..|--- .... ....|--- .... ....|--- .... ....
....|..|--- .... ....|R-- .... ....|--- .... ....
....|..|--- .... ....|--- .... ....|--- .... ....
....|..|--- .... ....|G-4 ...7 ....|--- .... ....
....|..|--- .... ....|--- .... ....|--- .... ....
....|..|--- .... ....|R-- .... ....|--- .... ....
....|..|--- .... ....|--- .... ....|--- .... ....
....|..|--- .... ....|G-4 ...7 ....|--- .... ....
....|..|--- .... ....|R-- .... ....|--- .... ....
....|..|--- .... ....|R-- .... ....|--- .... ....
....|..|--- .... ....|--- .... ....|--- .... ....
....|..|--- .... ....|G-4 ...7 ....|--- .... ....
....|..|--- .... ....|--- .... ....|--- .... ....
....|..|--- .... ....|--- .... ....|--- .... ....
....|..|--- .... ....|R-- .... ....|--- .... ....
....|..|--- .... ....|--- .... ....|--- .... ....
....|..|--- .... ....|--- .... ....|--- .... ....
 C-4|..|C-2 .F.A ....|C-5 ...A ....|D-3 .F1A ....
....|..|--- .... ....|--- .... ....|--- .... ....
....|..|--- .... ....|A-4 ...7 ....|--- .... ....
....|..|--- .... ....|--- .... ....|--- .... ....
....|..|--- .... ....|--- .... ....|--- .... ....
....|..|R-- .... ....|--- .... ....|--- .... ....
 D#4|..|D#2 .A.F ....|--- .... ....|--- .... ....
....|..|--- .... ....|--- .... ....|--- .... ....
....|..|--- .... ....|--- .... ....|--- .... ....
....|..|--- .... ....|R-- .... ....|--- .... ....
....|..|--- .... ....|B-4 ...7 ....|--- .... ....
....|..|--- .... ....|--- .... ....|--- .... ....
....|..|--- .... ....|R-- .... ....|--- .... ....
....|..|--- .... ....|--- .... ....|--- .... ....
....|..|--- .... ....|--- .... ....|--- .... ....
....|..|--- .... ....|R-- .... ....|--- .... ....
....|..|--- .... ....|--- .... ....|--- .... ....
....|..|--- .... ....|--- .... ....|--- .... ....
 C-4|..|C-2 .F.7 ....|C-5 ...7 ....|D-3 .F17 ....
....|..|--- .... ....|--- .... ....|--- .... ....
....|..|--- .... ....|--- .... ....|--- .... ....
....|..|--- .... ....|--- .... ....|--- .... ....
....|..|--- .... ....|--- .... ....|--- .... ....
....|..|R-- .... ....|--- .... ....|--- .... ....
 D#4|..|D#2 .F.A ....|--- .... ....|--- .... ....
....|..|--- .... ....|--- .... ....|--- .... ....
....|..|--- .... ....|--- .... ....|--- .... ....
....|..|--- .... ....|--- .... ....|--- .... ....
....|..|--- .... ....|--- .... ....|--- .... ....
....|..|--- .... ....|--- .... ....|--- .... ....

[Pattern7]
 A-3|..|A-1 .A.F ....|R-- .... ....|A-2 .F.F ....
....|..|--- .... ....|--- .... ....|--- .... ....
....|..|--- .... ....|--- .... ....|--- .... ....
....|..|--- .... ....|--- .... ....|--- .... ....
....|..|--- .... ....|--- .... ....|--- .... ....
....|..|--- .... ....|--- .... ....|--- .... ....
....|..|--- .... ....|--- .... ....|--- .... ....
....|..|--- .... ....|--- .... ....|--- .... ....
....|..|--- .... ....|C-5 ...F ....|--- .... ....
....|..|--- .... ....|--- .... ....|--- .... ....
....|..|--- .... ....|--- .... ....|--- .... ....
....|..|R-- .... ....|R-- .... ....|--- .... ....
 D#4|..|D#2 .F.7 ....|C-5 ...F ....|--- .... ....
....|..|--- .... ....|--- .... ....|--- .... ....
....|..|--- .... ....|R-- .... ....|--- .... ....
....|..|--- .... ....|--- .... ....|--- .... ....
....|..|--- .... ....|C-5 ...F ....|--- .... ....
....|..|--- .... ....|--- .... ....|--- .... ....
 A-3|..|A-1 .F.A ....|R-- .... ....|A-2 .F.A ....
....|..|--- .... ....|--- .... ....|--- .... ....
....|..|--- .... ....|C-5 ...F ....|--- .... ....
....|..|--- .... ....|--- .... ....|--- .... ....
....|..|--- .... ....|--- .... ....|--- .... ....
....|..|--- .... ....|--- .... ....|--- .... ....
....|..|--- .... ....|--- .... ....|--- .... ....
....|..|--- .... ....|--- .... ....|--- .... ....
....|..|--- .... ....|C-5 ...A ....|--- .... ....
....|..|--- .... ....|--- .... ....|--- .... ....
....|..|--- .... ....|--- .... ....|--- .... ....
....|..|--- .... ....|R-- .... ....|--- .... ....
....|..|--- .... ....|C-5 ...A ....|--- .... ....
....|..|--- .... ....|R-- .... ....|--- .... ....
....|..|--- .... ....|B-4 ...F ....|--- .... ....
....|..|--- .... ....|--- .... ....|--- .... ....
....|..|--- .... ....|C-5 ...A ....|--- .... ....
....|..|--- .... ....|--- .... ....|--- .... ....
 A-3|..|A-1 .F.7 ....|A-4 ...F ....|A-2 .F.7 ....
....|..|--- .... ....|--- .... ....|--- .... ....
....|..|--- .... ....|C-5 ...A ....|--- .... ....
....|..|--- .... ....|--- .... ....|--- .... ....
....|..|--- .... ....|--- .... ....|--- .... ....
....|..|--- .... ....|--- .... ....|--- .... ....
....|..|R-- .... ....|G-4 ...F ....|--- .... ....
....|..|--- .... ....|--- .... ....|--- .... ....
 A-3|..|A-1 .A.F ....|C-5 ...7 ....|--- .... ....
....|..|--- .... ....|--- .... ....|--- .... ....
....|..|--- .... ....|--- .... ....|--- .... ....
....|..|--- .... ....|R-- .... ....|--- .... ....
 D-4|..|D-2 .A.F ....|C-5 ...7 ....|D-3 .F1F ....
....|..|--- .... ....|R-- .... ....|--- .... ....
....|..|--- .... ....|R-- .... ....|--- .... ....
....|..|--- .... ....|--- .... ....|--- .... ....
....|..|--- .... ....|C-5 ...7 ....|--- .... ....
....|..|--- .... ....|--- .... ....|--- .... ....
....|..|--- .... ....|R-- .... ....|--- .... ....
....|..|--- .... ....|--- .... ....|--- .... ....
....|..|--- .... ....|C-5 ...7 ....|--- .... ....
....|..|--- .... ....|--- .... ....|--- .... ....
....|..|--- .... ....|--- .... ....|--- .... ....
....|..|--- .... ....|--- .... ....|--- .... ....
....|..|R-- .... ....|G-4 ...A ....|--- .... ....
....|..|--- .... ....|R-- .... ....|--- .... ....
 A-3|..|A-1 .F.A ....|--- .... ....|--- .... ....
....|..|--- .... ....|--- .... ....|--- .... ....
....|..|--- .... ....|--- .... ....|--- .... ....
....|..|--- .... ....|--- .... ....|--- .... ....
 D-4|..|D-2 .F.A ....|--- .... ....|D-3 .F1A ....
....|..|--- .... ....|R-- .... ....|--- .... ....
....|..|--- .... ....|B-4 ...7 ....|--- .... ....
....|..|--- .... ....|--- .... ....|--- .... ....
....|..|--- .... ....|--- .... ....|--- .... ....
....|..|--- .... ....|--- .... ....|--- .... ....
 D-4|..|D-2 .A.F ....|A-4 ...7 ....|D-3 .F1F ....
....|..|--- .... ....|--- .... ....|--- .... ....
....|..|--- .... ....|--- .... ....|--- .... ....
....|..|--- .... ....|--- .... ....|--- .... ....
....|..|--- .... ....|--- .... ....|--- .... ....
....|..|--- .... ....|--- .... ....|--- .... ....
....|..|R-- .... ....|G-4 ...7 ....|--- .... ....
....|..|--- .... ....|R-- .... ....|--- .... ....
 A-3|..|A-1 .F.7 ....|--- .... ....|--- .... ....
....|..|--- .... ....|--- .... ....|--- .... ....
....|..|--- .... ....|--- .... ....|--- .... ....
....|..|--- .... ....|--- .... ....|--- .... ....
 D-4|..|D-2 .F.7 ....|--- .... ....|D-3 .F17 ....
....|..|--- .... ....|--- .... ....|--- .... ....
....|..|--- .... ....|--- .... ....|--- .... ....
....|..|--- .... ....|--- .... ....|--- .... ....
....|..|--- .... ....|--- .... ....|--- .... ....
....|..|--- .... ....|--- .... ....|--- .... ....
 D-4|..|D-2 .F.A ....|--- .... ....|D-3 .F1A ....
....|..|--- .... ....|--- .... ....|--- .... ....
....|..|--- .... ....|--- .... ....|--- .... ....
....|..|--- .... ....|--- .... ....|--- .... ....
....|..|--- .... ....|--- .... ....|--- .... ....
....|..|--- .... ....|--- .... ....|--- .... ....

[Pattern8]
 G-3|..|G-1 .A.F ....|--- .... ....|G-2 .F.F ....
....|..|--- .... ....|R-- .... ....|--- .... ....
....|..|--- .... ....|--- .... ....|--- .... ....
....|..|--- .... ....|--- .... ....|--- .... ....
....|..|--- .... ....|--- .... ....|--- .... ....
....|..|--- .... ....|--- .... ....|--- .... ....
....|..|--- .... ....|--- .... ....|--- .... ....
....|..|--- .... ....|--- .... ....|--- .... ....
....|..|--- .... ....|--- .... ....|--- .... ....
....|..|--- .... ....|--- .... ....|--- .... ....
....|..|--- .... ....|--- .... ....|--- .... ....
....|..|--- .... ....|--- .... ....|--- .... ....
 D-4|..|D-2 .F.7 ....|G-4 ...F ....|D-3 .F17 ....
....|..|--- .... ....|--- .... ....|--- .... ....
....|..|--- .... ....|R-- .... ....|--- .... ....
....|..|--- .... ....|--- .... ....|--- .... ....
....|..|--- .... ....|G-4 ...F ....|--- .... ....
....|..|--- .... ....|--- .... ....|--- .... ....
 G-3|..|G-1 .F.A ....|R-- .... ....|G-2 .F.A ....
....|..|--- .... ....|--- .... ....|--- .... ....
....|..|--- .... ....|G-4 ...F ....|--- .... ....
....|..|--- .... ....|--- .... ....|--- .... ....
....|..|--- .... ....|--- .... ....|--- .... ....
....|..|--- .... ....|R-- .... ....|--- .... ....
....|..|--- .... ....|G-4 ...F ....|--- .... ....
....|..|--- .... ....|--- .... ....|--- .... ....
....|..|--- .... ....|--- .... ....|--- .... ....
....|..|--- .... ....|--- .... ....|--- .... ....
....|..|--- .... ....|--- .... ....|--- .... ....
....|..|--- .... ....|--- .... ....|--- .... ....
....|..|--- .... ....|G-4 ...A ....|--- .... ....
....|..|--- .... ....|--- .... ....|--- .... ....
....|..|--- .... ....|R-- .... ....|--- .... ....
....|..|--- .... ....|R-- .... ....|--- .... ....
....|..|--- .... ....|G-4 ...A ....|--- .... ....
....|..|--- .... ....|--- .... ....|--- .... ....
 G-3|..|G-1 .F.7 ....|G-4 ...F ....|G-2 .F.7 ....
....|..|--- .... ....|--- .... ....|--- .... ....
....|..|--- .... ....|G-4 ...A ....|--- .... ....
....|..|--- .... ....|R-- .... ....|--- .... ....
....|..|--- .... ....|A-4 ...F ....|--- .... ....
....|..|--- .... ....|R-- .... ....|--- .... ....
....|..|--- .... ....|G-4 ...A ....|--- .... ....
....|..|--- .... ....|R-- .... ....|--- .... ....
....|..|--- .... ....|B-4 ...F ....|--- .... ....
....|..|--- .... ....|--- .... ....|--- .... ....
....|..|--- .... ....|--- .... ....|--- .... ....
....|..|--- .... ....|R-- .... ....|--- .... ....
 C-4|..|C-2 .A.F ....|C-5 ...F ....|D-3 .F1F ....
....|..|--- .... ....|--- .... ....|--- .... ....
....|..|--- .... ....|R-- .... ....|--- .... ....
....|..|--- .... ....|R-- .... ....|--- .... ....
....|..|--- .... ....|G-4 ...7 ....|--- .... ....
....|..|--- .... ....|--- .... ....|--- .... ....
....|..|--- .... ....|R-- .... ....|--- .... ....
....|..|--- .... ....|--- .... ....|--- .... ....
....|..|--- .... ....|G-4 ...7 ....|--- .... ....
....|..|--- .... ....|R-- .... ....|--- .... ....
....|..|--- .... ....|A-4 ...A ....|--- .... ....
....|..|--- .... ....|R-- .... ....|--- .... ....
....|..|--- .... ....|G-4 ...7 ....|--- .... ....
....|..|--- .... ....|R-- .... ....|--- .... ....
....|..|--- .... ....|B-4 ...A ....|--- .... ....
....|..|--- .... ....|--- .... ....|--- .... ....
....|..|--- .... ....|--- .... ....|--- .... ....
....|..|--- .... ....|R-- .... ....|--- .... ....
 C-4|..|C-2 .F.A ....|C-5 ...A ....|D-3 .F1A ....
....|..|--- .... ....|--- .... ....|--- .... ....
....|..|--- .... ....|--- .... ....|--- .... ....
....|..|--- .... ....|R-- .... ....|--- .... ....
....|..|--- .... ....|R-- .... ....|--- .... ....
....|..|R-- .... ....|--- .... ....|--- .... ....
 D#4|..|D#2 .A.F ....|C-5 ...F ....|--- .... ....
....|..|--- .... ....|--- .... ....|--- .... ....
....|..|--- .... ....|--- .... ....|--- .... ....
....|..|--- .... ....|R-- .... ....|--- .... ....
....|..|--- .... ....|A-4 ...7 ....|--- .... ....
....|..|--- .... ....|--- .... ....|--- .... ....
....|..|--- .... ....|--- .... ....|--- .... ....
....|..|--- .... ....|R-- .... ....|--- .... ....
....|..|--- .... ....|B-4 ...7 ....|--- .... ....
....|..|--- .... ....|--- .... ....|--- .... ....
....|..|--- .... ....|--- .... ....|--- .... ....
....|..|--- .... ....|R-- .... ....|--- .... ....
 C-4|..|C-2 .F.7 ....|C-5 ...7 ....|D-3 .F17 ....
....|..|--- .... ....|--- .... ....|--- .... ....
....|..|--- .... ....|--- .... ....|--- .... ....
....|..|--- .... ....|--- .... ....|--- .... ....
....|..|--- .... ....|R-- .... ....|--- .... ....
....|..|R-- .... ....|--- .... ....|--- .... ....
 D#4|..|D#2 .F.A ....|C-5 ...A ....|--- .... ....
....|..|--- .... ....|--- .... ....|--- .... ....
....|..|--- .... ....|--- .... ....|--- .... ....
....|..|--- .... ....|--- .... ....|--- .... ....
....|..|--- .... ....|--- .... ....|--- .... ....
....|..|--- .... ....|--- .... ....|--- .... ....

[Pattern9]
 A-3|..|A-1 .A.F ....|--- .... ....|A-2 .F.F ....
....|..|--- .... ....|--- .... ....|--- .... ....
....|..|--- .... ....|--- .... ....|--- .... ....
....|..|--- .... ....|--- .... ....|--- .... ....
....|..|--- .... ....|--- .... ....|--- .... ....
....|..|--- .... ....|--- .... ....|--- .... ....
....|..|--- .... ....|R-- .... ....|--- .... ....
....|..|--- .... ....|--- .... ....|--- .... ....
....|..|--- .... ....|--- .... ....|--- .... ....
....|..|--- .... ....|--- .... ....|--- .... ....
....|..|--- .... ....|R-- .... ....|--- .... ....
....|..|R-- .... ....|--- .... ....|--- .... ....
 D#4|..|D#2 .F.7 ....|C-5 ...F ....|--- .... ....
....|..|--- .... ....|--- .... ....|--- .... ....
....|..|--- .... ....|R-- .... ....|--- .... ....
....|..|--- .... ....|--- .... ....|--- .... ....
....|..|--- .... ....|C-5 ...F ....|--- .... ....
....|..|--- .... ....|--- .... ....|--- .... ....
 A-3|..|A-1 .F.A ....|R-- .... ....|A-2 .F.A ....
....|..|--- .... ....|--- .... ....|--- .... ....
....|..|--- .... ....|C-5 ...F ....|--- .... ....
....|..|--- .... ....|--- .... ....|--- .... ....
....|..|--- .... ....|R-- .... ....|--- .... ....
....|..|--- .... ....|--- .... ....|--- .... ....
....|..|--- .... ....|R-- .... ....|--- .... ....
....|..|--- .... ....|C-5 ...F ....|--- .... ....
....|..|--- .... ....|--- .... ....|--- .... ....
....|..|--- .... ....|--- .... ....|--- .... ....
....|..|--- .... ....|--- .... ....|--- .... ....
....|..|--- .... ....|--- .... ....|--- .... ....
....|..|--- .... ....|C-5 ...A ....|--- .... ....
....|..|--- .... ....|--- .... ....|--- .... ....
....|..|--- .... ....|R-- .... ....|--- .... ....
....|..|--- .... ....|B-4 ...F ....|--- .... ....
....|..|--- .... ....|C-5 ...A ....|--- .... ....
....|..|--- .... ....|--- .... ....|--- .... ....
 A-3|..|A-1 .F.7 ....|R-- .... ....|A-2 .F.7 ....
....|..|--- .... ....|--- .... ....|--- .... ....
....|..|--- .... ....|C-5 ...A ....|--- .... ....
....|..|--- .... ....|--- .... ....|--- .... ....
....|..|--- .... ....|G-4 ...F ....|--- .... ....
....|..|--- .... ....|--- .... ....|--- .... ....
....|..|R-- .... ....|R-- .... ....|--- .... ....
....|..|--- .... ....|C-5 ...A ....|--- .... ....
 A-3|..|A-1 .A.F ....|--- .... ....|--- .... ....
....|..|--- .... ....|--- .... ....|--- .... ....
....|..|--- .... ....|--- .... ....|--- .... ....
....|..|--- .... ....|R-- .... ....|--- .... ....
 D-4|..|D-2 .A.F ....|G-5 ...F ....|D-3 .F.F ....
....|..|--- .... ....|--- .... ....|--- .... ....
....|..|--- .... ....|R-- .... ....|--- .... ....
....|..|--- .... ....|B-4 ...A ....|--- .... ....
....|..|--- .... ....|C-5 ...7 ....|--- .... ....
....|..|--- .... ....|--- .... ....|D-3 .F.F ....
....|..|--- .... ....|R-- .... ....|R-- .... ....
....|..|--- .... ....|--- .... ....|--- .... ....
....|..|R-- .... ....|C-5 ...7 ....|--- .... ....
....|..|--- .... ....|--- .... ....|--- .... ....
....|..|--- .... ....|R-- .... ....|--- .... ....
....|..|--- .... ....|--- .... ....|--- .... ....
 D-4|..|D-2 .A.F ....|--- .... ....|D-3 .F.F ....
....|..|--- .... ....|C-5 ...7 ....|--- .... ....
 A-3|..|A-1 .F.A ....|--- .... ....|--- .... ....
....|..|--- .... ....|--- .... ....|--- .... ....
....|..|--- .... ....|--- .... ....|--- .... ....
....|..|--- .... ....|R-- .... ....|D-3 .F.F ....
 D-4|..|D-2 .F.A ....|G-5 ...A ....|R-- .... ....
....|..|--- .... ....|--- .... ....|--- .... ....
....|..|R-- .... ....|R-- .... ....|--- .... ....
....|..|--- .... ....|B-4 ...7 ....|--- .... ....
....|..|--- .... ....|--- .... ....|--- .... ....
....|..|--- .... ....|--- .... ....|D-3 .F.A ....
 D-4|..|D-2 .A.F ....|--- .... ....|D-3 .F.F ....
....|..|--- .... ....|--- .... ....|--- .... ....
....|..|R-- .... ....|--- .... ....|--- .... ....
....|..|--- .... ....|--- .... ....|--- .... ....
....|..|--- .... ....|G-4 ...7 ....|--- .... ....
....|..|--- .... ....|--- .... ....|D-3 .F.F ....
....|..|R-- .... ....|--- .... ....|R-- .... ....
....|..|--- .... ....|--- .... ....|--- .... ....
 A-3|..|A-1 .F.7 ....|--- .... ....|--- .... ....
....|..|--- .... ....|--- .... ....|--- .... ....
....|..|--- .... ....|--- .... ....|--- .... ....
....|..|--- .... ....|R-- .... ....|D-3 .F.A ....
 D-4|..|D-2 .A.F ....|G-5 ...7 ....|D-3 .F.F ....
....|..|--- .... ....|--- .... ....|--- .... ....
....|..|R-- .... ....|--- .... ....|--- .... ....
....|..|--- .... ....|--- .... ....|--- .... ....
....|..|--- .... ....|--- .... ....|--- .... ....
....|..|--- .... ....|--- .... ....|D-3 .F.F ....
 D-4|..|D-2 .F.A ....|--- .... ....|R-- .... ....
....|..|--- .... ....|--- .... ....|R-- .... ....
....|..|R-- .... ....|--- .... ....|--- .... ....
....|..|--- .... ....|--- .... ....|--- .... ....
....|..|--- .... ....|--- .... ....|--- .... ....
....|..|--- .... ....|R-- .... ....|D-3 .F.A ....

[Pattern10]
 G-3|..|G-1 .A.F ....|--- .... ....|D-4 .F3F ....
....|..|--- .... ....|--- .... ....|--- .... ....
....|..|R-- .... ....|--- .... ....|--- .... ....
....|..|--- .... ....|--- .... ....|--- .... ....
....|..|--- .... ....|--- .... ....|R-- .... ....
....|..|R-- .... ....|--- .... ....|D-3 .F.7 ....
 D-4|..|D-2 .F.A ....|--- .... ....|R-- .... ....
....|..|--- .... ....|--- .... ....|--- .... ....
....|..|R-- .... ....|--- .... ....|--- .... ....
....|..|--- .... ....|--- .... ....|--- .... ....
....|..|--- .... ....|--- .... ....|--- .... ....
....|..|--- .... ....|--- .... ....|D-3 .F.A ....
 G-3|..|G-1 .A.F ....|G-4 ...F ....|D-4 .F3F ....
....|..|--- .... ....|R-- .... ....|R-- .... ....
....|..|R-- .... ....|--- .... ....|--- .... ....
....|..|--- .... ....|--- .... ....|--- .... ....
....|..|--- .... ....|G-4 ...F ....|--- .... ....
....|..|--- .... ....|R-- .... ....|D-3 .F.7 ....
....|..|R-- .... ....|R-- .... ....|R-- .... ....
....|..|--- .... ....|--- .... ....|--- .... ....
....|..|R-- .... ....|G-4 ...F ....|--- .... ....
....|..|--- .... ....|--- .... ....|--- .... ....
....|..|--- .... ....|--- .... ....|R-- .... ....
....|..|R-- .... ....|R-- .... ....|--- .... ....
 G-3|..|G-1 .A.F ....|B-4 ...F ....|D-4 .F3F ....
....|..|--- .... ....|--- .... ....|--- .... ....
....|..|--- .... ....|--- .... ....|--- .... ....
....|..|--- .... ....|--- .... ....|--- .... ....
....|..|--- .... ....|--- .... ....|R-- .... ....
....|..|R-- .... ....|--- .... ....|D-3 .F.7 ....
 G-3|..|G-1 .F.A ....|G-4 ...A ....|D-4 .F3A ....
....|..|--- .... ....|R-- .... ....|R-- .... ....
....|..|R-- .... ....|--- .... ....|--- .... ....
....|..|--- .... ....|R-- .... ....|--- .... ....
....|..|--- .... ....|G-4 ...A ....|--- .... ....
....|..|--- .... ....|R-- .... ....|R-- .... ....
 G-3|..|G-1 .A.F ....|B-4 ...F ....|D-4 .F3F ....
....|..|--- .... ....|--- .... ....|--- .... ....
....|..|--- .... ....|R-- .... ....|--- .... ....
....|..|--- .... ....|--- .... ....|--- .... ....
....|..|R-- .... ....|B-4 ...F ....|R-- .... ....
....|..|R-- .... ....|R-- .... ....|R-- .... ....
 G-3|..|G-1 .F.A ....|R-- .... ....|D-4 .F3A ....
....|..|--- .... ....|--- .... ....|--- .... ....
 D-4|..|D-2 .A.F ....|B-4 ...F ....|--- .... ....
....|..|--- .... ....|--- .... ....|--- .... ....
....|..|R-- .... ....|--- .... ....|R-- .... ....
....|..|R-- .... ....|R-- .... ....|--- .... ....
 G-3|..|G-1 .A.F ....|D-5 ...F ....|D-4 .F3F ....
....|..|--- .... ....|R-- .... ....|--- .... ....
....|..|--- .... ....|--- .... ....|--- .... ....
....|..|--- .... ....|R-- .... ....|--- .... ....
....|..|--- .... ....|G-4 ...7 ....|R-- .... ....
....|..|--- .... ....|--- .... ....|R-- .... ....
....|..|R-- .... ....|R-- .... ....|D-4 .F3A ....
....|..|--- .... ....|--- .... ....|--- .... ....
....|..|--- .... ....|G-4 ...7 ....|--- .... ....
....|..|--- .... ....|--- .... ....|--- .... ....
....|..|R-- .... ....|R-- .... ....|--- .... ....
....|..|--- .... ....|R-- .... ....|R-- .... ....
 G-3|..|G-1 .A.F ....|D-5 ...F ....|D-4 .F3F ....
....|..|--- .... ....|--- .... ....|--- .... ....
 D-4|..|D-2 .F.A ....|R-- .... ....|--- .... ....
....|..|--- .... ....|--- .... ....|--- .... ....
....|..|R-- .... ....|D-5 ...F ....|R-- .... ....
....|..|R-- .... ....|R-- .... ....|R-- .... ....
 G-3|..|G-1 .F.A ....|R-- .... ....|D-4 .F3A ....
....|..|--- .... ....|--- .... ....|--- .... ....
 G-3|..|G-1 .A.F ....|D-5 ...F ....|--- .... ....
....|..|R-- .... ....|R-- .... ....|--- .... ....
....|..|--- .... ....|--- .... ....|R-- .... ....
....|..|--- .... ....|R-- .... ....|--- .... ....
 G-3|..|G-1 .A.F ....|B-5 ...F ....|D-4 .F3F ....
....|..|--- .... ....|--- .... ....|--- .... ....
....|..|--- .... ....|R-- .... ....|--- .... ....
....|..|--- .... ....|--- .... ....|--- .... ....
....|..|R-- .... ....|B-4 ...7 ....|--- .... ....
....|..|--- .... ....|R-- .... ....|R-- .... ....
 G-3|..|G-1 .F.A ....|R-- .... ....|D-4 .F3A ....
....|..|R-- .... ....|--- .... ....|--- .... ....
 A-3|..|A-1 .A.F ....|B-5 ...F ....|--- .... ....
....|..|--- .... ....|--- .... ....|--- .... ....
....|..|R-- .... ....|D-5 ...A ....|--- .... ....
....|..|--- .... ....|R-- .... ....|R-- .... ....
 G-3|..|G-1 .F.7 ....|D-5 ...7 ....|D-4 .F3F ....
....|..|--- .... ....|--- .... ....|--- .... ....
....|..|R-- .... ....|D-5 ...A ....|--- .... ....
....|..|R-- .... ....|--- .... ....|--- .... ....
 B-3|..|B-1 .A.F ....|B-5 ...F ....|R-- .... ....
....|..|--- .... ....|R-- .... ....|R-- .... ....
....|..|R-- .... ....|B-5 ...A ....|D-4 .F3A ....
....|..|--- .... ....|--- .... ....|--- .... ....
....|..|--- .... ....|R-- .... ....|--- .... ....
....|..|--- .... ....|--- .... ....|--- .... ....
....|..|R-- .... ....|R-- .... ....|--- .... ....
....|..|--- .... ....|R-- .... ....|R-- .... ....

[Pattern11]
 C-4|..|C-2 .A.F ....|C-6 ...F ....|E-4 .F4F ....
....|..|R-- .... ....|--- .... ....|--- .... ....
 A-3|..|A-1 .F.A ....|R-- .... ....|--- .... ....
....|..|--- .... ....|--- .... ....|--- .... ....
....|..|R-- .... ....|D-5 ...7 ....|R-- .... ....
....|..|--- .... ....|--- .... ....|R-- .... ....
....|..|R-- .... ....|R-- .... ....|D-4 .F3A ....
....|..|--- .... ....|--- .... ....|--- .... ....
 G-3|..|G-1 .F.7 ....|D-5 ...7 ....|--- .... ....
....|..|R-- .... ....|R-- .... ....|--- .... ....
 B-3|..|B-1 .F.A ....|B-5 ...A ....|--- .... ....
....|..|--- .... ....|R-- .... ....|R-- .... ....
 C-4|..|C-2 .A.F ....|C-6 ...F ....|E-4 .F4F ....
....|..|--- .... ....|--- .... ....|--- .... ....
....|..|--- .... ....|R-- .... ....|--- .... ....
....|..|--- .... ....|--- .... ....|--- .... ....
....|..|R-- .... ....|C-6 ...F ....|G-4 .F.F ....
....|..|--- .... ....|R-- .... ....|R-- .... ....
....|..|R-- .... ....|R-- .... ....|E-4 .F4A ....
....|..|R-- .... ....|--- .... ....|--- .... ....
 A-3|..|A-1 .F.7 ....|C-6 ...F ....|--- .... ....
....|..|--- .... ....|--- .... ....|--- .... ....
....|..|--- .... ....|--- .... ....|R-- .... ....
....|..|--- .... ....|R-- .... ....|--- .... ....
 C-4|..|C-2 .A.F ....|E-6 ...F ....|E-4 .F4F ....
....|..|--- .... ....|--- .... ....|--- .... ....
....|..|R-- .... ....|--- .... ....|--- .... ....
....|..|--- .... ....|R-- .... ....|--- .... ....
 B-3|..|B-1 .F.7 ....|B-5 ...7 ....|R-- .... ....
....|..|--- .... ....|--- .... ....|R-- .... ....
....|..|R-- .... ....|C-6 ...A ....|E-4 .F4A ....
....|..|--- .... ....|--- .... ....|--- .... ....
....|..|--- .... ....|E-6 ...F ....|--- .... ....
....|..|--- .... ....|--- .... ....|--- .... ....
....|..|R-- .... ....|C-6 ...A ....|G-4 .F.A ....
....|..|--- .... ....|--- .... ....|R-- .... ....
 C-4|..|C-2 .A.F ....|C-6 ...7 ....|E-4 .F4F ....
....|..|--- .... ....|--- .... ....|--- .... ....
....|..|--- .... ....|C-6 ...A ....|--- .... ....
....|..|--- .... ....|--- .... ....|--- .... ....
....|..|--- .... ....|E-6 ...F ....|G-4 .F.F ....
....|..|R-- .... ....|R-- .... ....|R-- .... ....
....|..|R-- .... ....|R-- .... ....|E-4 .F4A ....
....|..|--- .... ....|--- .... ....|--- .... ....
 C#4|..|C#2 .A.F ....|E-6 ...F ....|--- .... ....
....|..|R-- .... ....|R-- .... ....|--- .... ....
....|..|--- .... ....|R-- .... ....|R-- .... ....
....|..|--- .... ....|--- .... ....|--- .... ....
 D-4|..|D-2 .A.F ....|D-6 ...F ....|D-4 .F3F ....
....|..|--- .... ....|--- .... ....|--- .... ....
....|..|--- .... ....|R-- .... ....|--- .... ....
....|..|--- .... ....|--- .... ....|--- .... ....
....|..|--- .... ....|C-6 ...7 ....|G-4 .F.7 ....
....|..|R-- .... ....|--- .... ....|R-- .... ....
....|..|R-- .... ....|R-- .... ....|E-4 .F4A ....
....|..|--- .... ....|--- .... ....|--- .... ....
....|..|--- .... ....|D-6 ...F ....|--- .... ....
....|..|--- .... ....|--- .... ....|--- .... ....
....|..|--- .... ....|E-6 ...A ....|G-4 .F.A ....
....|..|R-- .... ....|R-- .... ....|R-- .... ....
 D-4|..|D-2 .A.F ....|E-6 ...7 ....|D-4 .F3F ....
....|..|--- .... ....|--- .... ....|--- .... ....
 C#4|..|C#2 .F.A ....|R-- .... ....|--- .... ....
....|..|R-- .... ....|--- .... ....|--- .... ....
....|..|--- .... ....|D-6 ...F ....|R-- .... ....
....|..|--- .... ....|--- .... ....|R-- .... ....
....|..|R-- .... ....|R-- .... ....|D-4 .F3A ....
....|..|--- .... ....|--- .... ....|--- .... ....
....|..|--- .... ....|D-6 ...F ....|--- .... ....
....|..|--- .... ....|--- .... ....|--- .... ....
....|..|--- .... ....|R-- .... ....|R-- .... ....
....|..|R-- .... ....|--- .... ....|--- .... ....
 D-4|..|D-2 .A.F ....|C-6 ...F ....|D-4 .F5F ....
....|..|--- .... ....|--- .... ....|--- .... ....
....|..|--- .... ....|D-6 ...A ....|--- .... ....
....|..|--- .... ....|R-- .... ....|--- .... ....
....|..|--- .... ....|E-6 ...7 ....|D-4 .F.F ....
....|..|R-- .... ....|--- .... ....|R-- .... ....
 D-4|..|D-2 .F.A ....|R-- .... ....|D-4 .F3A ....
....|..|--- .... ....|--- .... ....|--- .... ....
 C#4|..|C#2 .F.7 ....|C-6 ...F ....|--- .... ....
....|..|R-- .... ....|--- .... ....|--- .... ....
....|..|--- .... ....|R-- .... ....|--- .... ....
....|..|--- .... ....|--- .... ....|R-- .... ....
 D-4|..|D-2 .A.F ....|C-6 ...F ....|D-4 .F5F ....
....|..|--- .... ....|--- .... ....|--- .... ....
....|..|--- .... ....|D-6 ...A ....|--- .... ....
....|..|--- .... ....|R-- .... ....|--- .... ....
....|..|R-- .... ....|D-6 ...F ....|R-- .... ....
....|..|R-- .... ....|--- .... ....|--- .... ....
 D-4|..|D-2 .F.A ....|R-- .... ....|D-4 .F5A ....
....|..|--- .... ....|--- .... ....|--- .... ....
 D-4|..|D-2 .A.F ....|B-5 ...F ....|--- .... ....
....|..|--- .... ....|R-- .... ....|--- .... ....
....|..|--- .... ....|--- .... ....|D-4 .F.A ....
....|..|R-- .... ....|--- .... ....|R-- .... ....

[Pattern12]
 G-3|..|G-1 .A.F ....|--- .... ....|D-4 .F3F ....
....|..|--- .... ....|--- .... ....|--- .... ....
....|..|--- .... ....|R-- .... ....|--- .... ....
....|..|--- .... ....|--- .... ....|--- .... ....
....|..|--- .... ....|D-6 ...7 ....|R-- .... ....
....|..|R-- .... ....|--- .... ....|R-- .... ....
....|..|R-- .... ....|R-- .... ....|D-4 .F5A ....
....|..|--- .... ....|--- .... ....|--- .... ....
....|..|--- .... ....|D-6 ...7 ....|--- .... ....
....|..|--- .... ....|R-- .... ....|--- .... ....
....|..|R-- .... ....|R-- .... ....|R-- .... ....
....|..|--- .... ....|--- .... ....|--- .... ....
 G-3|..|G-1 .A.F ....|G-4 ...F ....|D-4 .F3F ....
....|..|--- .... ....|R-- .... ....|--- .... ....
 D-4|..|D-2 .F.A ....|B-5 ...A ....|--- .... ....
....|..|--- .... ....|R-- .... ....|--- .... ....
....|..|--- .... ....|G-4 ...F ....|D-4 .F.7 ....
....|..|R-- .... ....|--- .... ....|R-- .... ....
....|..|R-- .... ....|R-- .... ....|D-4 .F3A ....
....|..|--- .... ....|--- .... ....|--- .... ....
....|..|--- .... ....|G-4 ...F ....|--- .... ....
....|..|--- .... ....|--- .... ....|--- .... ....
....|..|--- .... ....|R-- .... ....|R-- .... ....
....|..|R-- .... ....|R-- .... ....|--- .... ....
 G-3|..|G-1 .A.F ....|B-4 ...F ....|D-4 .F3F ....
....|..|--- .... ....|--- .... ....|--- .... ....
....|..|--- .... ....|--- .... ....|--- .... ....
....|..|--- .... ....|R-- .... ....|--- .... ....
....|..|R-- .... ....|D-6 ...7 ....|R-- .... ....
....|..|R-- .... ....|--- .... ....|--- .... ....
 G-3|..|G-1 .F.A ....|R-- .... ....|D-4 .F3A ....
....|..|--- .... ....|R-- .... ....|--- .... ....
 D-4|..|D-2 .F.7 ....|B-5 ...7 ....|--- .... ....
....|..|--- .... ....|R-- .... ....|--- .... ....
....|..|--- .... ....|G-4 ...A ....|--- .... ....
....|..|R-- .... ....|--- .... ....|R-- .... ....
 G-3|..|G-1 .A.F ....|B-4 ...F ....|D-4 .F3F ....
....|..|--- .... ....|--- .... ....|--- .... ....
....|..|--- .... ....|R-- .... ....|--- .... ....
....|..|--- .... ....|--- .... ....|--- .... ....
....|..|R-- .... ....|B-4 ...F ....|R-- .... ....
....|..|R-- .... ....|R-- .... ....|R-- .... ....
 G-3|..|G-1 .F.A ....|R-- .... ....|D-4 .F3A ....
....|..|--- .... ....|--- .... ....|--- .... ....
 D-4|..|D-2 .A.F ....|B-4 ...F ....|--- .... ....
....|..|--- .... ....|--- .... ....|--- .... ....
....|..|R-- .... ....|--- .... ....|R-- .... ....
....|..|R-- .... ....|R-- .... ....|--- .... ....
 G-3|..|G-1 .A.F ....|D-5 ...F ....|D-4 .F3F ....
....|..|--- .... ....|R-- .... ....|--- .... ....
....|..|--- .... ....|--- .... ....|--- .... ....
....|..|--- .... ....|R-- .... ....|--- .... ....
....|..|--- .... ....|G-4 ...7 ....|R-- .... ....
....|..|--- .... ....|--- .... ....|R-- .... ....
....|..|R-- .... ....|R-- .... ....|D-4 .F3A ....
....|..|--- .... ....|--- .... ....|--- .... ....
....|..|--- .... ....|G-4 ...7 ....|--- .... ....
....|..|--- .... ....|--- .... ....|--- .... ....
....|..|R-- .... ....|R-- .... ....|--- .... ....
....|..|--- .... ....|R-- .... ....|R-- .... ....
 G-3|..|G-1 .A.F ....|D-5 ...F ....|D-4 .F3F ....
....|..|--- .... ....|--- .... ....|--- .... ....
 D-4|..|D-2 .F.A ....|R-- .... ....|--- .... ....
....|..|--- .... ....|--- .... ....|--- .... ....
....|..|R-- .... ....|D-5 ...F ....|R-- .... ....
....|..|R-- .... ....|R-- .... ....|R-- .... ....
 G-3|..|G-1 .F.A ....|R-- .... ....|D-4 .F3A ....
....|..|--- .... ....|--- .... ....|--- .... ....
 G-3|..|G-1 .A.F ....|D-5 ...F ....|--- .... ....
....|..|R-- .... ....|R-- .... ....|--- .... ....
....|..|--- .... ....|--- .... ....|R-- .... ....
....|..|--- .... ....|R-- .... ....|--- .... ....
 G-3|..|G-1 .A.F ....|G-5 ...F ....|D-4 .F3F ....
....|..|--- .... ....|--- .... ....|--- .... ....
....|..|--- .... ....|R-- .... ....|--- .... ....
....|..|--- .... ....|--- .... ....|--- .... ....
....|..|R-- .... ....|B-4 ...7 ....|--- .... ....
....|..|--- .... ....|R-- .... ....|R-- .... ....
 G-3|..|G-1 .F.A ....|R-- .... ....|D-4 .F3A ....
....|..|R-- .... ....|--- .... ....|--- .... ....
 A-3|..|A-1 .A.F ....|G-5 ...F ....|--- .... ....
....|..|--- .... ....|--- .... ....|--- .... ....
....|..|R-- .... ....|D-5 ...A ....|--- .... ....
....|..|--- .... ....|R-- .... ....|R-- .... ....
 G-3|..|G-1 .F.7 ....|D-5 ...7 ....|D-4 .F3F ....
....|..|--- .... ....|--- .... ....|--- .... ....
....|..|R-- .... ....|D-5 ...A ....|--- .... ....
....|..|R-- .... ....|--- .... ....|--- .... ....
 B-3|..|B-1 .A.F ....|G-5 ...F ....|R-- .... ....
....|..|--- .... ....|R-- .... ....|R-- .... ....
....|..|R-- .... ....|G-5 ...A ....|D-4 .F3A ....
....|..|--- .... ....|--- .... ....|--- .... ....
....|..|--- .... ....|R-- .... ....|--- .... ....
....|..|--- .... ....|--- .... ....|--- .... ....
....|..|R-- .... ....|R-- .... ....|--- .... ....
....|..|--- .... ....|R-- .... ....|R-- .... ....

[Pattern13]
 C-4|..|C-2 .A.F ....|E-5 ...F ....|E-4 .F4F ....
....|..|R-- .... ....|--- .... ....|--- .... ....
 A-3|..|A-1 .F.A ....|R-- .... ....|--- .... ....
....|..|--- .... ....|--- .... ....|--- .... ....
....|..|R-- .... ....|D-5 ...7 ....|R-- .... ....
....|..|--- .... ....|--- .... ....|R-- .... ....
....|..|R-- .... ....|R-- .... ....|D-4 .F3A ....
....|..|--- .... ....|--- .... ....|--- .... ....
 G-3|..|G-1 .F.7 ....|D-5 ...7 ....|--- .... ....
....|..|R-- .... ....|R-- .... ....|--- .... ....
 B-3|..|B-1 .F.A ....|G-5 ...A ....|--- .... ....
....|..|--- .... ....|R-- .... ....|R-- .... ....
 C-4|..|C-2 .A.F ....|E-5 ...F ....|E-4 .F4F ....
....|..|--- .... ....|--- .... ....|--- .... ....
....|..|--- .... ....|R-- .... ....|--- .... ....
....|..|--- .... ....|--- .... ....|--- .... ....
....|..|R-- .... ....|E-5 ...F ....|G-4 .F.F ....
....|..|--- .... ....|R-- .... ....|R-- .... ....
....|..|R-- .... ....|R-- .... ....|E-4 .F4A ....
....|..|R-- .... ....|--- .... ....|--- .... ....
 A-3|..|A-1 .F.7 ....|E-5 ...F ....|--- .... ....
....|..|--- .... ....|--- .... ....|--- .... ....
....|..|--- .... ....|--- .... ....|R-- .... ....
....|..|--- .... ....|R-- .... ....|--- .... ....
 C-4|..|C-2 .A.F ....|E-5 ...F ....|E-4 .F4F ....
....|..|--- .... ....|--- .... ....|--- .... ....
....|..|R-- .... ....|--- .... ....|--- .... ....
....|..|--- .... ....|R-- .... ....|--- .... ....
 B-3|..|B-1 .F.7 ....|G-5 ...7 ....|R-- .... ....
....|..|--- .... ....|--- .... ....|R-- .... ....
....|..|R-- .... ....|R-- .... ....|E-4 .F4A ....
....|..|--- .... ....|--- .... ....|--- .... ....
....|..|--- .... ....|C-5 ...F ....|--- .... ....
....|..|--- .... ....|--- .... ....|--- .... ....
....|..|R-- .... ....|R-- .... ....|G-4 .F.A ....
....|..|--- .... ....|--- .... ....|R-- .... ....
 C-4|..|C-2 .A.F ....|C-5 ...F ....|E-4 .F4F ....
....|..|--- .... ....|--- .... ....|--- .... ....
....|..|--- .... ....|R-- .... ....|--- .... ....
....|..|--- .... ....|--- .... ....|--- .... ....
....|..|--- .... ....|C-5 ...F ....|G-4 .F.F ....
....|..|R-- .... ....|R-- .... ....|R-- .... ....
....|..|R-- .... ....|E-5 ...A ....|E-4 .F4A ....
....|..|--- .... ....|R-- .... ....|--- .... ....
 C#4|..|C#2 .A.F ....|C-5 ...F ....|--- .... ....
....|..|R-- .... ....|R-- .... ....|--- .... ....
....|..|--- .... ....|R-- .... ....|R-- .... ....
....|..|--- .... ....|--- .... ....|--- .... ....
 D-4|..|D-2 .A.F ....|C-5 ...F ....|D-4 .F3F ....
....|..|--- .... ....|--- .... ....|--- .... ....
....|..|--- .... ....|R-- .... ....|--- .... ....
....|..|--- .... ....|--- .... ....|--- .... ....
....|..|--- .... ....|E-5 ...7 ....|G-4 .F.7 ....
....|..|R-- .... ....|R-- .... ....|R-- .... ....
....|..|R-- .... ....|R-- .... ....|E-4 .F4A ....
....|..|--- .... ....|--- .... ....|--- .... ....
....|..|--- .... ....|C-5 ...F ....|--- .... ....
....|..|--- .... ....|--- .... ....|--- .... ....
....|..|--- .... ....|C-5 ...A ....|G-4 .F.A ....
....|..|R-- .... ....|R-- .... ....|R-- .... ....
 D-4|..|D-2 .A.F ....|C-5 ...F ....|D-4 .F3F ....
....|..|--- .... ....|R-- .... ....|--- .... ....
 C#4|..|C#2 .F.A ....|R-- .... ....|--- .... ....
....|..|R-- .... ....|--- .... ....|--- .... ....
....|..|--- .... ....|C-5 ...F ....|R-- .... ....
....|..|--- .... ....|--- .... ....|R-- .... ....
....|..|R-- .... ....|R-- .... ....|D-4 .F3A ....
....|..|--- .... ....|R-- .... ....|--- .... ....
....|..|--- .... ....|C-5 ...F ....|--- .... ....
....|..|--- .... ....|--- .... ....|--- .... ....
....|..|--- .... ....|R-- .... ....|R-- .... ....
....|..|R-- .... ....|R-- .... ....|--- .... ....
 D-4|..|D-2 .A.F ....|C-5 ...F ....|D-4 .F5F ....
....|..|--- .... ....|--- .... ....|--- .... ....
....|..|--- .... ....|R-- .... ....|--- .... ....
....|..|--- .... ....|--- .... ....|--- .... ....
....|..|--- .... ....|C-5 ...7 ....|D-4 .F.F ....
....|..|R-- .... ....|R-- .... ....|R-- .... ....
 D-4|..|D-2 .F.A ....|C-5 ...A ....|D-4 .F3A ....
....|..|--- .... ....|R-- .... ....|--- .... ....
 C#4|..|C#2 .F.7 ....|C-5 ...F ....|--- .... ....
....|..|R-- .... ....|--- .... ....|--- .... ....
....|..|--- .... ....|R-- .... ....|--- .... ....
....|..|--- .... ....|--- .... ....|R-- .... ....
 D-4|..|D-2 .A.F ....|C-5 ...7 ....|D-4 .F5F ....
....|..|--- .... ....|R-- .... ....|--- .... ....
....|..|--- .... ....|C-5 ...A ....|--- .... ....
....|..|--- .... ....|--- .... ....|--- .... ....
....|..|R-- .... ....|C-5 ...F ....|R-- .... ....
....|..|R-- .... ....|R-- .... ....|--- .... ....
 D-4|..|D-2 .F.A ....|C-5 ...A ....|D-4 .F5A ....
....|..|--- .... ....|R-- .... ....|--- .... ....
 D-4|..|D-2 .A.F ....|B-4 ...F ....|--- .... ....
....|..|--- .... ....|--- .... ....|--- .... ....
....|..|--- .... ....|R-- .... ....|D-4 .F.A ....
....|..|R-- .... ....|R-- .... ....|R-- .... ....

[Pattern14]
 G-3|..|G-1 .A.F ....|C-5 ...7 ....|D-4 .F37 ....
....|..|--- .... ....|--- .... ....|--- .... ....
....|..|--- .... ....|R-- .... ....|--- .... ....
....|..|--- .... ....|--- .... ....|--- .... ....
....|..|--- .... ....|C-5 ...7 ....|--- .... ....
....|..|--- .... ....|--- .... ....|R-- .... ....
....|..|R-- .... ....|R-- .... ....|D-4 .F5A ....
....|..|--- .... ....|R-- .... ....|--- .... ....
....|..|--- .... ....|C-5 ...7 ....|--- .... ....
....|..|--- .... ....|--- .... ....|--- .... ....
....|..|R-- .... ....|R-- .... ....|R-- .... ....
....|..|--- .... ....|--- .... ....|--- .... ....
 D-4|..|D-2 .F.7 ....|C-5 ...7 ....|D-4 .F57 ....
....|..|--- .... ....|R-- .... ....|--- .... ....
 D-4|..|D-2 .F.A ....|B-4 ...A ....|--- .... ....
....|..|--- .... ....|--- .... ....|--- .... ....
....|..|--- .... ....|G-4 ...F ....|D-4 .F.7 ....
....|..|R-- .... ....|--- .... ....|R-- .... ....
 G-3|..|G-1 .F.A ....|R-- .... ....|--- .... ....
....|..|--- .... ....|--- .... ....|--- .... ....
....|..|--- .... ....|G-4 ...F ....|--- .... ....
....|..|--- .... ....|--- .... ....|--- .... ....
....|..|--- .... ....|R-- .... ....|--- .... ....
....|..|--- .... ....|--- .... ....|--- .... ....
 D-4|..|D-2 .F.7 ....|G-4 ...F ....|D-4 .F57 ....
....|..|--- .... ....|--- .... ....|--- .... ....
....|..|--- .... ....|R-- .... ....|--- .... ....
....|..|--- .... ....|--- .... ....|--- .... ....
....|..|R-- .... ....|G-4 ...F ....|R-- .... ....
....|..|--- .... ....|--- .... ....|--- .... ....
....|..|--- .... ....|R-- .... ....|--- .... ....
....|..|--- .... ....|R-- .... ....|--- .... ....
 D-4|..|D-2 .F.7 ....|G-4 ...F ....|--- .... ....
....|..|--- .... ....|--- .... ....|--- .... ....
....|..|--- .... ....|R-- .... ....|--- .... ....
....|..|R-- .... ....|--- .... ....|--- .... ....
 G-3|..|G-1 .F.7 ....|G-4 ...F ....|--- .... ....
....|..|--- .... ....|--- .... ....|--- .... ....
....|..|--- .... ....|R-- .... ....|--- .... ....
....|..|--- .... ....|--- .... ....|--- .... ....
....|..|--- .... ....|G-4 ...F ....|--- .... ....
....|..|--- .... ....|--- .... ....|--- .... ....
....|..|--- .... ....|R-- .... ....|--- .... ....
....|..|--- .... ....|--- .... ....|--- .... ....
....|..|--- .... ....|G-4 ...F ....|--- .... ....
....|..|--- .... ....|--- .... ....|--- .... ....
....|..|--- .... ....|R-- .... ....|--- .... ....
....|..|--- .... ....|--- .... ....|--- .... ....
....|..|--- .... ....|G-4 ...F ....|G-3 .F.F ....
....|..|--- .... ....|--- .... ....|--- .... ....
....|..|--- .... ....|R-- .... ....|--- .... ....
....|..|--- .... ....|--- .... ....|--- .... ....
....|..|--- .... ....|G-4 ...7 ....|R-- .... ....
....|..|--- .... ....|--- .... ....|--- .... ....
....|..|--- .... ....|R-- .... ....|--- .... ....
....|..|--- .... ....|--- .... ....|--- .... ....
....|..|--- .... ....|G-4 ...F ....|--- .... ....
....|..|--- .... ....|--- .... ....|--- .... ....
....|..|--- .... ....|R-- .... ....|--- .... ....
....|..|--- .... ....|--- .... ....|--- .... ....
....|..|--- .... ....|G-4 ...F ....|G-3 .F.F ....
....|..|--- .... ....|--- .... ....|--- .... ....
....|..|--- .... ....|R-- .... ....|--- .... ....
....|..|--- .... ....|--- .... ....|--- .... ....
....|..|--- .... ....|G-4 ...F ....|R-- .... ....
....|..|--- .... ....|--- .... ....|--- .... ....
....|..|--- .... ....|R-- .... ....|G-3 .F.A ....
....|..|--- .... ....|--- .... ....|--- .... ....
....|..|--- .... ....|G-4 ...7 ....|--- .... ....
....|..|--- .... ....|--- .... ....|--- .... ....
....|..|--- .... ....|R-- .... ....|R-- .... ....
....|..|--- .... ....|--- .... ....|--- .... ....
....|..|--- .... ....|G-4 ...7 ....|G-3 .F.F ....
....|..|--- .... ....|--- .... ....|--- .... ....
....|..|--- .... ....|R-- .... ....|--- .... ....
....|..|--- .... ....|--- .... ....|--- .... ....
....|..|--- .... ....|G-4 ...7 ....|R-- .... ....
....|..|--- .... ....|--- .... ....|--- .... ....
....|..|--- .... ....|R-- .... ....|G-3 .F.A ....
....|..|--- .... ....|--- .... ....|--- .... ....
....|..|--- .... ....|G-4 ...7 ....|G-5 .F.F ....
....|..|--- .... ....|--- .... ....|--- .... ....
....|..|--- .... ....|R-- .... ....|R-- .... ....
....|..|--- .... ....|--- .... ....|--- .... ....
....|..|--- .... ....|G-4 ...7 ....|G-3 .F.7 ....
....|..|--- .... ....|--- .... ....|--- .... ....
....|..|--- .... ....|R-- .... ....|--- .... ....
....|..|--- .... ....|--- .... ....|--- .... ....
....|..|--- .... ....|--- .... ....|R-- .... ....
....|..|--- .... ....|--- .... ....|--- .... ....
....|..|--- .... ....|--- .... ....|G-3 .F.A ....
....|..|--- .... ....|--- .... ....|--- .... ....
....|..|--- .... ....|G-4 ...7 ....|R-- .... ....
....|..|--- .... ....|--- .... ....|--- .... ....
....|..|--- .... ....|R-- .... ....|R-- .... ....
....|..|--- .... ....|--- .... ....|--- .... ....

[Pattern15]
 G-4|..|G-2 .A.F ....|G-4 ...7 ....|G-3 .F1F ....
....|..|--- .... ....|--- .... ....|--- .... ....
....|..|--- .... ....|R-- .... ....|G-5 .F.A ....
....|..|--- .... ....|--- .... ....|--- .... ....
....|..|--- .... ....|G-4 ...7 ....|R-- .... ....
....|..|--- .... ....|--- .... ....|--- .... ....
....|..|R-- .... ....|R-- .... ....|--- .... ....
....|..|--- .... ....|--- .... ....|--- .... ....
....|..|--- .... ....|--- .... ....|--- .... ....
....|..|--- .... ....|--- .... ....|--- .... ....
....|..|--- .... ....|--- .... ....|--- .... ....
....|..|--- .... ....|--- .... ....|--- .... ....
 G-4|..|G-2 .A.F ....|A#4 ...F ....|G-3 .F.7 ....
....|..|--- .... ....|--- .... ....|--- .... ....
....|..|--- .... ....|R-- .... ....|R-- .... ....
....|..|--- .... ....|--- .... ....|--- .... ....
....|..|--- .... ....|A-4 ...F ....|R-- .... ....
....|..|--- .... ....|--- .... ....|--- .... ....
....|..|R-- .... ....|--- .... ....|G-3 .F1A ....
....|..|--- .... ....|R-- .... ....|--- .... ....
 F#4|..|F#2 .A.F ....|G-4 ...F ....|G-5 .F.7 ....
....|..|--- .... ....|--- .... ....|--- .... ....
....|..|--- .... ....|--- .... ....|--- .... ....
....|..|--- .... ....|--- .... ....|--- .... ....
 G-4|..|G-2 .A.F ....|A-4 ...F ....|--- .... ....
....|..|--- .... ....|--- .... ....|--- .... ....
....|..|--- .... ....|--- .... ....|--- .... ....
....|..|--- .... ....|--- .... ....|--- .... ....
....|..|--- .... ....|--- .... ....|--- .... ....
....|..|--- .... ....|--- .... ....|--- .... ....
....|..|R-- .... ....|R-- .... ....|--- .... ....
....|..|--- .... ....|--- .... ....|--- .... ....
....|..|--- .... ....|G-4 ...F ....|R-- .... ....
....|..|--- .... ....|R-- .... ....|--- .... ....
....|..|--- .... ....|A-4 ...A ....|--- .... ....
....|..|--- .... ....|--- .... ....|--- .... ....
 G-4|..|G-2 .A.F ....|A#4 ...F ....|G-3 .F17 ....
....|..|--- .... ....|R-- .... ....|--- .... ....
 F#4|..|F#2 .F.A ....|G-4 ...A ....|--- .... ....
....|..|--- .... ....|R-- .... ....|--- .... ....
....|..|--- .... ....|A-4 ...F ....|--- .... ....
....|..|--- .... ....|--- .... ....|--- .... ....
....|..|R-- .... ....|R-- .... ....|--- .... ....
....|..|--- .... ....|--- .... ....|--- .... ....
 F#4|..|F#2 .A.F ....|G-4 ...F ....|--- .... ....
....|..|--- .... ....|--- .... ....|--- .... ....
....|..|--- .... ....|R-- .... ....|--- .... ....
....|..|--- .... ....|--- .... ....|--- .... ....
 G-4|..|G-2 .A.F ....|A-4 ...F ....|--- .... ....
....|..|--- .... ....|--- .... ....|--- .... ....
....|..|--- .... ....|R-- .... ....|--- .... ....
....|..|--- .... ....|R-- .... ....|--- .... ....
....|..|--- .... ....|A-4 ...7 ....|--- .... ....
....|..|--- .... ....|R-- .... ....|--- .... ....
....|..|R-- .... ....|A#4 ...A ....|--- .... ....
....|..|--- .... ....|R-- .... ....|--- .... ....
 F#4|..|F#2 .F.7 ....|G-4 ...F ....|--- .... ....
....|..|--- .... ....|R-- .... ....|--- .... ....
....|..|--- .... ....|A-4 ...A ....|--- .... ....
....|..|--- .... ....|--- .... ....|--- .... ....
 G-4|..|G-2 .A.F ....|G-4 ...F ....|--- .... ....
....|..|--- .... ....|--- .... ....|--- .... ....
 F#4|..|F#2 .F.A ....|G-4 ...A ....|--- .... ....
....|..|--- .... ....|--- .... ....|--- .... ....
....|..|--- .... ....|R-- .... ....|--- .... ....
....|..|--- .... ....|--- .... ....|--- .... ....
....|..|R-- .... ....|R-- .... ....|--- .... ....
....|..|--- .... ....|--- .... ....|--- .... ....
 D-4|..|D-2 .A.F ....|G-4 ...F ....|--- .... ....
....|..|R-- .... ....|R-- .... ....|--- .... ....
....|..|--- .... ....|--- .... ....|--- .... ....
....|..|--- .... ....|R-- .... ....|--- .... ....
 F#4|..|F#2 .A.F ....|A-4 ...F ....|F#3 .F2F ....
....|..|--- .... ....|--- .... ....|--- .... ....
....|..|--- .... ....|G-4 ...A ....|--- .... ....
....|..|--- .... ....|R-- .... ....|--- .... ....
....|..|--- .... ....|A-4 ...7 ....|--- .... ....
....|..|--- .... ....|--- .... ....|--- .... ....
....|..|R-- .... ....|R-- .... ....|--- .... ....
....|..|--- .... ....|--- .... ....|--- .... ....
 D-4|..|D-2 .A.F ....|A-4 ...F ....|--- .... ....
....|..|R-- .... ....|--- .... ....|--- .... ....
....|..|--- .... ....|R-- .... ....|--- .... ....
....|..|--- .... ....|--- .... ....|--- .... ....
 F#4|..|F#2 .A.F ....|A-4 ...7 ....|--- .... ....
....|..|--- .... ....|--- .... ....|--- .... ....
 D-4|..|D-2 .F.A ....|G-4 ...A ....|--- .... ....
....|..|R-- .... ....|--- .... ....|--- .... ....
....|..|--- .... ....|R-- .... ....|--- .... ....
....|..|--- .... ....|R-- .... ....|--- .... ....
....|..|R-- .... ....|A-4 ...A ....|F#3 .F2A ....
....|..|--- .... ....|--- .... ....|--- .... ....
....|..|--- .... ....|B-4 ...F ....|--- .... ....
....|..|--- .... ....|R-- .... ....|--- .... ....
....|..|--- .... ....|R-- .... ....|--- .... ....
....|..|--- .... ....|--- .... ....|--- .... ....

[Pattern16]
 G-4|..|G-2 .A.F ....|C-5 ...F ....|G-3 .F1F ....
....|..|--- .... ....|--- .... ....|--- .... ....
 D-4|..|D-2 .F.A ....|A-4 ...A ....|--- .... ....
....|..|R-- .... ....|--- .... ....|--- .... ....
....|..|--- .... ....|R-- .... ....|--- .... ....
....|..|--- .... ....|--- .... ....|--- .... ....
....|..|R-- .... ....|--- .... ....|--- .... ....
....|..|--- .... ....|--- .... ....|--- .... ....
 D-4|..|D-2 .F.7 ....|G-4 ...7 ....|--- .... ....
....|..|R-- .... ....|--- .... ....|--- .... ....
....|..|--- .... ....|R-- .... ....|--- .... ....
....|..|--- .... ....|R-- .... ....|--- .... ....
 G-4|..|G-2 .A.F ....|E-5 ...F ....|F#3 .F27 ....
....|..|--- .... ....|--- .... ....|--- .... ....
....|..|--- .... ....|R-- .... ....|--- .... ....
....|..|--- .... ....|--- .... ....|--- .... ....
....|..|--- .... ....|E-5 ...F ....|--- .... ....
....|..|--- .... ....|--- .... ....|--- .... ....
....|..|R-- .... ....|R-- .... ....|G-3 .F1A ....
....|..|--- .... ....|--- .... ....|--- .... ....
 F#4|..|F#2 .A.F ....|E-5 ...F ....|--- .... ....
....|..|R-- .... ....|--- .... ....|--- .... ....
....|..|--- .... ....|R-- .... ....|--- .... ....
....|..|--- .... ....|R-- .... ....|--- .... ....
 G-4|..|G-2 .A.F ....|E-5 ...F ....|--- .... ....
....|..|--- .... ....|--- .... ....|--- .... ....
....|..|--- .... ....|--- .... ....|--- .... ....
....|..|--- .... ....|--- .... ....|--- .... ....
....|..|--- .... ....|R-- .... ....|--- .... ....
....|..|--- .... ....|--- .... ....|--- .... ....
....|..|R-- .... ....|E-5 ...A ....|--- .... ....
....|..|--- .... ....|R-- .... ....|--- .... ....
....|..|--- .... ....|C-5 ...F ....|--- .... ....
....|..|--- .... ....|--- .... ....|--- .... ....
....|..|--- .... ....|E-5 ...A ....|--- .... ....
....|..|--- .... ....|--- .... ....|--- .... ....
 G-4|..|G-2 .A.F ....|C-5 ...F ....|G-3 .F17 ....
....|..|--- .... ....|--- .... ....|--- .... ....
 F#4|..|F#2 .F.A ....|R-- .... ....|--- .... ....
....|..|--- .... ....|--- .... ....|--- .... ....
....|..|--- .... ....|C-5 ...F ....|--- .... ....
....|..|--- .... ....|R-- .... ....|--- .... ....
....|..|R-- .... ....|R-- .... ....|--- .... ....
....|..|--- .... ....|--- .... ....|--- .... ....
 F#4|..|F#2 .A.F ....|C-5 ...F ....|--- .... ....
....|..|--- .... ....|--- .... ....|--- .... ....
....|..|--- .... ....|--- .... ....|--- .... ....
....|..|--- .... ....|R-- .... ....|--- .... ....
 G-4|..|G-2 .A.F ....|C-5 ...F ....|--- .... ....
....|..|--- .... ....|R-- .... ....|--- .... ....
....|..|--- .... ....|R-- .... ....|--- .... ....
....|..|--- .... ....|--- .... ....|--- .... ....
....|..|--- .... ....|E-5 ...7 ....|--- .... ....
....|..|--- .... ....|R-- .... ....|--- .... ....
....|..|R-- .... ....|R-- .... ....|--- .... ....
....|..|--- .... ....|--- .... ....|--- .... ....
 F#4|..|F#2 .F.7 ....|C-5 ...F ....|--- .... ....
....|..|--- .... ....|--- .... ....|--- .... ....
....|..|--- .... ....|C-5 ...A ....|--- .... ....
....|..|--- .... ....|R-- .... ....|--- .... ....
 G-4|..|G-2 .A.F ....|C-5 ...F ....|--- .... ....
....|..|--- .... ....|--- .... ....|--- .... ....
 F#4|..|F#2 .F.A ....|C-5 ...A ....|--- .... ....
....|..|--- .... ....|--- .... ....|--- .... ....
....|..|--- .... ....|--- .... ....|--- .... ....
....|..|--- .... ....|R-- .... ....|--- .... ....
....|..|R-- .... ....|R-- .... ....|--- .... ....
....|..|--- .... ....|R-- .... ....|--- .... ....
 D-4|..|D-2 .A.F ....|C-5 ...F ....|--- .... ....
....|..|R-- .... ....|--- .... ....|--- .... ....
....|..|--- .... ....|R-- .... ....|--- .... ....
....|..|--- .... ....|R-- .... ....|--- .... ....
 F#4|..|F#2 .A.F ....|C-5 ...F ....|F#2 .F.F ....
....|..|--- .... ....|--- .... ....|--- .... ....
....|..|--- .... ....|R-- .... ....|--- .... ....
....|..|--- .... ....|--- .... ....|--- .... ....
....|..|--- .... ....|C-5 ...7 ....|--- .... ....
....|..|--- .... ....|R-- .... ....|--- .... ....
....|..|R-- .... ....|R-- .... ....|--- .... ....
....|..|--- .... ....|--- .... ....|--- .... ....
 D-4|..|D-2 .A.F ....|B-4 ...F ....|--- .... ....
....|..|R-- .... ....|--- .... ....|--- .... ....
....|..|--- .... ....|--- .... ....|--- .... ....
....|..|--- .... ....|R-- .... ....|--- .... ....
 F#4|..|F#2 .A.F ....|C-5 ...F ....|--- .... ....
....|..|--- .... ....|--- .... ....|--- .... ....
 D-4|..|D-2 .F.A ....|C-5 ...A ....|--- .... ....
....|..|R-- .... ....|--- .... ....|--- .... ....
....|..|--- .... ....|R-- .... ....|--- .... ....
....|..|--- .... ....|R-- .... ....|--- .... ....
....|..|R-- .... ....|C-5 ...A ....|F#2 .F.A ....
....|..|--- .... ....|--- .... ....|--- .... ....
 D-4|..|D-2 .A.F ....|B-4 ...F ....|--- .... ....
....|..|R-- .... ....|--- .... ....|--- .... ....
....|..|--- .... ....|--- .... ....|--- .... ....
....|..|--- .... ....|R-- .... ....|--- .... ....

[Pattern17]
 G-4|..|G-2 .A.F ....|C-5 ...7 ....|G-3 .F1F ....
....|..|--- .... ....|--- .... ....|--- .... ....
 D-4|..|D-2 .F.A ....|B-4 ...A ....|--- .... ....
....|..|R-- .... ....|--- .... ....|--- .... ....
....|..|--- .... ....|--- .... ....|--- .... ....
....|..|--- .... ....|R-- .... ....|--- .... ....
....|..|R-- .... ....|R-- .... ....|--- .... ....
....|..|--- .... ....|--- .... ....|--- .... ....
 D-4|..|D-2 .F.7 ....|C-5 ...7 ....|--- .... ....
....|..|R-- .... ....|--- .... ....|--- .... ....
....|..|--- .... ....|R-- .... ....|--- .... ....
....|..|--- .... ....|R-- .... ....|--- .... ....
 G-4|..|G-2 .A.F ....|B-4 ...F ....|F#2 .F.7 ....
....|..|--- .... ....|--- .... ....|--- .... ....
 D-4|..|D-2 .F.A ....|B-4 ...A ....|--- .... ....
....|..|R-- .... ....|--- .... ....|--- .... ....
....|..|--- .... ....|A-4 ...F ....|--- .... ....
....|..|--- .... ....|R-- .... ....|--- .... ....
....|..|R-- .... ....|R-- .... ....|G-3 .F1A ....
....|..|--- .... ....|--- .... ....|--- .... ....
 F#4|..|F#2 .A.F ....|G-4 ...F ....|--- .... ....
....|..|R-- .... ....|--- .... ....|--- .... ....
....|..|--- .... ....|--- .... ....|--- .... ....
....|..|--- .... ....|R-- .... ....|--- .... ....
 G-4|..|G-2 .A.F ....|A-4 ...F ....|--- .... ....
....|..|--- .... ....|--- .... ....|--- .... ....
....|..|--- .... ....|--- .... ....|--- .... ....
....|..|--- .... ....|--- .... ....|--- .... ....
....|..|--- .... ....|--- .... ....|--- .... ....
....|..|--- .... ....|R-- .... ....|--- .... ....
....|..|R-- .... ....|R-- .... ....|--- .... ....
....|..|--- .... ....|--- .... ....|--- .... ....
 D-4|..|D-2 .F.7 ....|G-4 ...F ....|--- .... ....
....|..|R-- .... ....|--- .... ....|--- .... ....
....|..|--- .... ....|R-- .... ....|--- .... ....
....|..|--- .... ....|--- .... ....|--- .... ....
 G-4|..|G-2 .A.F ....|B-4 ...F ....|G-3 .F17 ....
....|..|--- .... ....|--- .... ....|--- .... ....
 F#4|..|F#2 .F.A ....|R-- .... ....|--- .... ....
....|..|--- .... ....|--- .... ....|--- .... ....
....|..|--- .... ....|A-4 ...F ....|--- .... ....
....|..|--- .... ....|--- .... ....|--- .... ....
....|..|R-- .... ....|R-- .... ....|--- .... ....
....|..|--- .... ....|--- .... ....|--- .... ....
 F#4|..|F#2 .A.F ....|G-4 ...F ....|--- .... ....
....|..|--- .... ....|--- .... ....|--- .... ....
....|..|--- .... ....|R-- .... ....|--- .... ....
....|..|--- .... ....|--- .... ....|--- .... ....
 G-4|..|G-2 .A.F ....|A-4 ...F ....|--- .... ....
....|..|--- .... ....|--- .... ....|--- .... ....
....|..|--- .... ....|G-4 ...A ....|--- .... ....
....|..|--- .... ....|--- .... ....|--- .... ....
....|..|--- .... ....|A-4 ...7 ....|--- .... ....
....|..|--- .... ....|R-- .... ....|--- .... ....
....|..|R-- .... ....|B-4 ...A ....|--- .... ....
....|..|--- .... ....|--- .... ....|--- .... ....
 F#4|..|F#2 .F.7 ....|G-4 ...F ....|--- .... ....
....|..|--- .... ....|--- .... ....|--- .... ....
....|..|--- .... ....|R-- .... ....|--- .... ....
....|..|--- .... ....|--- .... ....|--- .... ....
 G-4|..|G-2 .A.F ....|G-4 ...F ....|--- .... ....
....|..|--- .... ....|--- .... ....|--- .... ....
 F#4|..|F#2 .F.A ....|R-- .... ....|--- .... ....
....|..|--- .... ....|--- .... ....|--- .... ....
....|..|--- .... ....|G-4 ...F ....|--- .... ....
....|..|--- .... ....|--- .... ....|--- .... ....
....|..|R-- .... ....|R-- .... ....|--- .... ....
....|..|--- .... ....|--- .... ....|--- .... ....
 D-4|..|D-2 .A.F ....|G-4 ...F ....|--- .... ....
....|..|R-- .... ....|--- .... ....|--- .... ....
....|..|--- .... ....|R-- .... ....|--- .... ....
....|..|--- .... ....|R-- .... ....|--- .... ....
 F#4|..|F#2 .A.F ....|G-4 ...F ....|F#2 .F.F ....
....|..|--- .... ....|--- .... ....|--- .... ....
....|..|--- .... ....|R-- .... ....|--- .... ....
....|..|--- .... ....|--- .... ....|--- .... ....
....|..|--- .... ....|A-4 ...7 ....|--- .... ....
....|..|--- .... ....|--- .... ....|--- .... ....
....|..|R-- .... ....|R-- .... ....|--- .... ....
....|..|--- .... ....|--- .... ....|--- .... ....
 D-4|..|D-2 .A.F ....|A-4 ...F ....|--- .... ....
....|..|R-- .... ....|--- .... ....|--- .... ....
....|..|--- .... ....|R-- .... ....|--- .... ....
....|..|--- .... ....|--- .... ....|--- .... ....
 F#4|..|F#2 .A.F ....|A-4 ...7 ....|--- .... ....
....|..|--- .... ....|--- .... ....|--- .... ....
 D-4|..|D-2 .F.A ....|G-4 ...A ....|--- .... ....
....|..|R-- .... ....|--- .... ....|--- .... ....
....|..|--- .... ....|B-4 ...F ....|--- .... ....
....|..|--- .... ....|R-- .... ....|--- .... ....
....|..|R-- .... ....|G-4 ...A ....|F#2 .F.A ....
....|..|--- .... ....|--- .... ....|--- .... ....
....|..|--- .... ....|G-4 ...7 ....|--- .... ....
....|..|--- .... ....|--- .... ....|--- .... ....
....|..|--- .... ....|R-- .... ....|--- .... ....
....|..|--- .... ....|--- .... ....|--- .... ....

[Pattern18]
 G-4|..|G-2 .A.F ....|C-5 ...F ....|G-3 .F1F ....
....|..|--- .... ....|--- .... ....|--- .... ....
 D-4|..|D-2 .F.A ....|R-- .... ....|--- .... ....
....|..|R-- .... ....|--- .... ....|--- .... ....
....|..|--- .... ....|G-4 ...7 ....|--- .... ....
....|..|--- .... ....|--- .... ....|--- .... ....
....|..|R-- .... ....|R-- .... ....|--- .... ....
....|..|--- .... ....|--- .... ....|--- .... ....
 D-4|..|D-2 .F.7 ....|G-4 ...7 ....|--- .... ....
....|..|R-- .... ....|--- .... ....|--- .... ....
....|..|--- .... ....|B-4 ...A ....|--- .... ....
....|..|--- .... ....|--- .... ....|--- .... ....
 G-4|..|G-2 .A.F ....|E-5 ...F ....|F#2 .F.7 ....
....|..|--- .... ....|--- .... ....|--- .... ....
....|..|--- .... ....|R-- .... ....|--- .... ....
....|..|--- .... ....|--- .... ....|--- .... ....
....|..|--- .... ....|E-5 ...F ....|--- .... ....
....|..|--- .... ....|--- .... ....|--- .... ....
....|..|R-- .... ....|R-- .... ....|G-3 .F1A ....
....|..|--- .... ....|--- .... ....|--- .... ....
 F#4|..|F#2 .A.F ....|E-5 ...F ....|--- .... ....
....|..|R-- .... ....|--- .... ....|--- .... ....
....|..|--- .... ....|--- .... ....|--- .... ....
....|..|--- .... ....|R-- .... ....|--- .... ....
 G-4|..|G-2 .A.F ....|E-5 ...F ....|--- .... ....
....|..|--- .... ....|--- .... ....|--- .... ....
....|..|--- .... ....|--- .... ....|--- .... ....
....|..|--- .... ....|--- .... ....|--- .... ....
....|..|--- .... ....|B-4 ...7 ....|--- .... ....
....|..|--- .... ....|--- .... ....|--- .... ....
....|..|R-- .... ....|E-5 ...A ....|--- .... ....
....|..|--- .... ....|R-- .... ....|--- .... ....
....|..|--- .... ....|C-5 ...F ....|--- .... ....
....|..|--- .... ....|--- .... ....|--- .... ....
....|..|--- .... ....|E-5 ...A ....|--- .... ....
....|..|--- .... ....|--- .... ....|--- .... ....
 G-4|..|G-2 .A.F ....|C-5 ...F ....|G-3 .F17 ....
....|..|--- .... ....|--- .... ....|--- .... ....
 F#4|..|F#2 .F.A ....|R-- .... ....|--- .... ....
....|..|--- .... ....|--- .... ....|--- .... ....
....|..|--- .... ....|C-5 ...F ....|--- .... ....
....|..|--- .... ....|R-- .... ....|--- .... ....
....|..|R-- .... ....|R-- .... ....|--- .... ....
....|..|--- .... ....|--- .... ....|--- .... ....
 F#4|..|F#2 .A.F ....|C-5 ...F ....|--- .... ....
....|..|--- .... ....|--- .... ....|--- .... ....
....|..|--- .... ....|--- .... ....|--- .... ....
....|..|--- .... ....|R-- .... ....|--- .... ....
 G-4|..|G-2 .A.F ....|C-5 ...F ....|--- .... ....
....|..|--- .... ....|R-- .... ....|--- .... ....
....|..|--- .... ....|R-- .... ....|--- .... ....
....|..|--- .... ....|--- .... ....|--- .... ....
....|..|--- .... ....|E-5 ...7 ....|--- .... ....
....|..|--- .... ....|--- .... ....|--- .... ....
....|..|R-- .... ....|R-- .... ....|--- .... ....
....|..|--- .... ....|--- .... ....|--- .... ....
 F#4|..|F#2 .F.7 ....|B-4 ...F ....|--- .... ....
....|..|--- .... ....|--- .... ....|--- .... ....
....|..|--- .... ....|R-- .... ....|--- .... ....
....|..|--- .... ....|R-- .... ....|--- .... ....
 G-4|..|G-2 .F.7 ....|C-5 ...F ....|--- .... ....
....|..|--- .... ....|--- .... ....|--- .... ....
 F#4|..|F#2 .F.A ....|C-5 ...A ....|--- .... ....
....|..|--- .... ....|--- .... ....|--- .... ....
....|..|--- .... ....|--- .... ....|--- .... ....
....|..|--- .... ....|R-- .... ....|--- .... ....
....|..|R-- .... ....|C-5 ...A ....|--- .... ....
....|..|--- .... ....|B-4 ...F ....|--- .... ....
....|..|--- .... ....|C-5 ...7 ....|--- .... ....
....|..|--- .... ....|--- .... ....|--- .... ....
....|..|--- .... ....|R-- .... ....|--- .... ....
....|..|--- .... ....|--- .... ....|--- .... ....
 G-4|..|G-2 .F.7 ....|C-5 ...F ....|R-- .... ....
....|..|--- .... ....|--- .... ....|--- .... ....
....|..|--- .... ....|R-- .... ....|--- .... ....
....|..|--- .... ....|--- .... ....|--- .... ....
....|..|--- .... ....|C-5 ...7 ....|--- .... ....
....|..|--- .... ....|R-- .... ....|--- .... ....
....|..|R-- .... ....|R-- .... ....|--- .... ....
....|..|--- .... ....|--- .... ....|--- .... ....
 F#4|..|F#2 .F.7 ....|B-4 ...F ....|--- .... ....
....|..|--- .... ....|--- .... ....|--- .... ....
....|..|--- .... ....|R-- .... ....|--- .... ....
....|..|--- .... ....|R-- .... ....|--- .... ....
 D-4|..|D-2 .A.F ....|C-5 ...F ....|--- .... ....
....|..|--- .... ....|B-4 ...A ....|--- .... ....
....|..|--- .... ....|--- .... ....|--- .... ....
....|..|--- .... ....|--- .... ....|--- .... ....
....|..|--- .... ....|R-- .... ....|--- .... ....
....|..|--- .... ....|--- .... ....|--- .... ....
....|..|R-- .... ....|R-- .... ....|R-- .... ....
....|..|--- .... ....|B-4 ...F ....|--- .... ....
....|..|--- .... ....|B-4 ...7 ....|--- .... ....
....|..|--- .... ....|--- .... ....|--- .... ....
....|..|--- .... ....|R-- .... ....|--- .... ....
....|..|R-- .... ....|R-- .... ....|--- .... ....

[Pattern21]
 G-3|..|G-1 .A.F ....|--- .... ....|G-2 .F.F ....
....|..|--- .... ....|R-- .... ....|--- .... ....
....|..|--- .... ....|--- .... ....|--- .... ....
....|..|--- .... ....|--- .... ....|--- .... ....
....|..|--- .... ....|--- .... ....|--- .... ....
....|..|--- .... ....|--- .... ....|--- .... ....
....|..|--- .... ....|--- .... ....|--- .... ....
....|..|--- .... ....|--- .... ....|--- .... ....
....|..|--- .... ....|--- .... ....|--- .... ....
....|..|--- .... ....|--- .... ....|--- .... ....
....|..|--- .... ....|--- .... ....|--- .... ....
....|..|--- .... ....|--- .... ....|--- .... ....
 D-4|..|D-2 .F.7 ....|G-4 ...F ....|D-3 .F17 ....
....|..|--- .... ....|--- .... ....|--- .... ....
....|..|--- .... ....|R-- .... ....|--- .... ....
....|..|--- .... ....|--- .... ....|--- .... ....
....|..|--- .... ....|G-4 ...F ....|--- .... ....
....|..|--- .... ....|--- .... ....|--- .... ....
 G-3|..|G-1 .F.A ....|R-- .... ....|G-2 .F.A ....
....|..|--- .... ....|--- .... ....|--- .... ....
....|..|--- .... ....|G-4 ...F ....|--- .... ....
....|..|--- .... ....|--- .... ....|--- .... ....
....|..|--- .... ....|--- .... ....|--- .... ....
....|..|--- .... ....|R-- .... ....|--- .... ....
....|..|--- .... ....|G-4 ...F ....|--- .... ....
....|..|--- .... ....|--- .... ....|--- .... ....
....|..|--- .... ....|--- .... ....|--- .... ....
....|..|--- .... ....|--- .... ....|--- .... ....
....|..|--- .... ....|--- .... ....|--- .... ....
....|..|--- .... ....|--- .... ....|--- .... ....
....|..|--- .... ....|G-4 ...A ....|--- .... ....
....|..|--- .... ....|--- .... ....|--- .... ....
....|..|--- .... ....|R-- .... ....|--- .... ....
....|..|--- .... ....|R-- .... ....|--- .... ....
....|..|--- .... ....|G-4 ...A ....|--- .... ....
....|..|--- .... ....|--- .... ....|--- .... ....
 G-3|..|G-1 .F.7 ....|G-4 ...F ....|G-2 .F.7 ....
....|..|--- .... ....|--- .... ....|--- .... ....
....|..|--- .... ....|G-4 ...A ....|--- .... ....
....|..|--- .... ....|R-- .... ....|--- .... ....
....|..|--- .... ....|A-4 ...F ....|--- .... ....
....|..|--- .... ....|R-- .... ....|--- .... ....
....|..|--- .... ....|G-4 ...A ....|--- .... ....
....|..|--- .... ....|R-- .... ....|--- .... ....
....|..|--- .... ....|B-4 ...F ....|--- .... ....
....|..|--- .... ....|--- .... ....|--- .... ....
....|..|--- .... ....|--- .... ....|--- .... ....
....|..|--- .... ....|R-- .... ....|--- .... ....
 C-4|..|C-2 .A.F ....|C-5 ...F ....|D-3 .F1F ....
....|..|--- .... ....|--- .... ....|--- .... ....
....|..|--- .... ....|R-- .... ....|--- .... ....
....|..|--- .... ....|R-- .... ....|--- .... ....
....|..|--- .... ....|C-5 ...F ....|--- .... ....
....|..|--- .... ....|--- .... ....|--- .... ....
....|..|--- .... ....|R-- .... ....|--- .... ....
....|..|--- .... ....|--- .... ....|--- .... ....
....|..|--- .... ....|G-4 ...7 ....|--- .... ....
....|..|--- .... ....|R-- .... ....|--- .... ....
....|..|--- .... ....|A-4 ...A ....|--- .... ....
....|..|--- .... ....|R-- .... ....|--- .... ....
....|..|--- .... ....|G-4 ...7 ....|--- .... ....
....|..|--- .... ....|R-- .... ....|--- .... ....
....|..|--- .... ....|R-- .... ....|--- .... ....
....|..|--- .... ....|--- .... ....|--- .... ....
....|..|--- .... ....|--- .... ....|--- .... ....
....|..|--- .... ....|R-- .... ....|--- .... ....
 C-4|..|C-2 .F.A ....|C-5 ...A ....|D-3 .F1A ....
....|..|--- .... ....|--- .... ....|--- .... ....
....|..|--- .... ....|R-- .... ....|--- .... ....
....|..|--- .... ....|R-- .... ....|--- .... ....
....|..|--- .... ....|C-5 ...A ....|--- .... ....
....|..|R-- .... ....|--- .... ....|--- .... ....
 D#4|..|D#2 .A.F ....|C-5 ...F ....|--- .... ....
....|..|--- .... ....|--- .... ....|--- .... ....
....|..|--- .... ....|--- .... ....|--- .... ....
....|..|--- .... ....|R-- .... ....|--- .... ....
....|..|--- .... ....|A-4 ...7 ....|--- .... ....
....|..|--- .... ....|--- .... ....|--- .... ....
....|..|--- .... ....|--- .... ....|--- .... ....
....|..|--- .... ....|R-- .... ....|--- .... ....
....|..|--- .... ....|B-4 ...7 ....|--- .... ....
....|..|--- .... ....|--- .... ....|--- .... ....
....|..|--- .... ....|--- .... ....|--- .... ....
....|..|--- .... ....|R-- .... ....|--- .... ....
 C-4|..|C-2 .F.7 ....|C-5 ...7 ....|D-3 .F17 ....
....|..|--- .... ....|--- .... ....|--- .... ....
....|..|--- .... ....|R-- .... ....|--- .... ....
....|..|--- .... ....|--- .... ....|--- .... ....
....|..|--- .... ....|C-5 ...7 ....|--- .... ....
....|..|R-- .... ....|--- .... ....|--- .... ....
 D#4|..|D#2 .F.A ....|C-5 ...A ....|--- .... ....
....|..|--- .... ....|--- .... ....|--- .... ....
....|..|--- .... ....|--- .... ....|--- .... ....
....|..|--- .... ....|--- .... ....|--- .... ....
....|..|--- .... ....|--- .... ....|--- .... ....
....|..|--- .... ....|--- .... ....|--- .... ....

[Pattern22]
 A-3|..|A-1 .A.F ....|--- .... ....|A-2 .F.F ....
....|..|--- .... ....|--- .... ....|--- .... ....
....|..|--- .... ....|R-- .... ....|--- .... ....
....|..|--- .... ....|--- .... ....|--- .... ....
....|..|--- .... ....|--- .... ....|--- .... ....
....|..|--- .... ....|--- .... ....|--- .... ....
....|..|--- .... ....|--- .... ....|--- .... ....
....|..|--- .... ....|--- .... ....|--- .... ....
....|..|--- .... ....|--- .... ....|--- .... ....
....|..|--- .... ....|--- .... ....|--- .... ....
....|..|--- .... ....|--- .... ....|--- .... ....
....|..|R-- .... ....|--- .... ....|--- .... ....
 D#4|..|D#2 .F.7 ....|C-5 ...F ....|--- .... ....
....|..|--- .... ....|--- .... ....|--- .... ....
....|..|--- .... ....|R-- .... ....|--- .... ....
....|..|--- .... ....|--- .... ....|--- .... ....
....|..|--- .... ....|C-5 ...F ....|--- .... ....
....|..|--- .... ....|--- .... ....|--- .... ....
 A-3|..|A-1 .F.A ....|R-- .... ....|A-2 .F.A ....
....|..|--- .... ....|--- .... ....|--- .... ....
....|..|--- .... ....|C-5 ...F ....|--- .... ....
....|..|--- .... ....|--- .... ....|--- .... ....
....|..|--- .... ....|R-- .... ....|--- .... ....
....|..|--- .... ....|--- .... ....|--- .... ....
....|..|--- .... ....|--- .... ....|--- .... ....
....|..|--- .... ....|C-5 ...F ....|--- .... ....
....|..|--- .... ....|--- .... ....|--- .... ....
....|..|--- .... ....|--- .... ....|--- .... ....
....|..|--- .... ....|--- .... ....|--- .... ....
....|..|--- .... ....|--- .... ....|--- .... ....
....|..|--- .... ....|C-5 ...A ....|--- .... ....
....|..|--- .... ....|--- .... ....|--- .... ....
....|..|--- .... ....|R-- .... ....|--- .... ....
....|..|--- .... ....|B-4 ...F ....|--- .... ....
....|..|--- .... ....|C-5 ...A ....|--- .... ....
....|..|--- .... ....|--- .... ....|--- .... ....
 A-3|..|A-1 .F.7 ....|R-- .... ....|A-2 .F.7 ....
....|..|--- .... ....|--- .... ....|--- .... ....
....|..|--- .... ....|R-- .... ....|--- .... ....
....|..|--- .... ....|--- .... ....|--- .... ....
....|..|--- .... ....|G-4 ...F ....|--- .... ....
....|..|--- .... ....|--- .... ....|--- .... ....
....|..|R-- .... ....|--- .... ....|--- .... ....
....|..|--- .... ....|C-5 ...A ....|--- .... ....
 A-3|..|A-1 .A.F ....|--- .... ....|--- .... ....
....|..|--- .... ....|--- .... ....|--- .... ....
....|..|--- .... ....|--- .... ....|--- .... ....
....|..|--- .... ....|R-- .... ....|--- .... ....
 D-4|..|D-2 .A.F ....|G-5 ...F ....|D-3 .F.F ....
....|..|--- .... ....|--- .... ....|--- .... ....
....|..|--- .... ....|R-- .... ....|--- .... ....
....|..|--- .... ....|B-4 ...A ....|--- .... ....
....|..|--- .... ....|C-5 ...7 ....|--- .... ....
....|..|--- .... ....|--- .... ....|D-3 .F.F ....
....|..|--- .... ....|R-- .... ....|R-- .... ....
....|..|--- .... ....|--- .... ....|--- .... ....
....|..|R-- .... ....|C-5 ...7 ....|--- .... ....
....|..|--- .... ....|--- .... ....|--- .... ....
....|..|--- .... ....|R-- .... ....|--- .... ....
....|..|--- .... ....|--- .... ....|--- .... ....
 D-4|..|D-2 .A.F ....|--- .... ....|D-3 .F.F ....
....|..|--- .... ....|C-5 ...7 ....|--- .... ....
 A-3|..|A-1 .F.A ....|--- .... ....|--- .... ....
....|..|--- .... ....|--- .... ....|--- .... ....
....|..|--- .... ....|--- .... ....|--- .... ....
....|..|--- .... ....|R-- .... ....|D-3 .F.F ....
 D-4|..|D-2 .F.A ....|G-5 ...A ....|R-- .... ....
....|..|--- .... ....|--- .... ....|--- .... ....
....|..|R-- .... ....|R-- .... ....|--- .... ....
....|..|--- .... ....|B-4 ...7 ....|--- .... ....
....|..|--- .... ....|--- .... ....|--- .... ....
....|..|--- .... ....|--- .... ....|D-3 .F.A ....
 D-4|..|D-2 .A.F ....|--- .... ....|D-3 .F.F ....
....|..|--- .... ....|--- .... ....|--- .... ....
....|..|R-- .... ....|--- .... ....|--- .... ....
....|..|--- .... ....|--- .... ....|--- .... ....
....|..|--- .... ....|G-4 ...7 ....|--- .... ....
....|..|--- .... ....|--- .... ....|D-3 .F.F ....
....|..|R-- .... ....|--- .... ....|R-- .... ....
....|..|--- .... ....|--- .... ....|--- .... ....
 A-3|..|A-1 .F.7 ....|--- .... ....|--- .... ....
....|..|--- .... ....|--- .... ....|--- .... ....
....|..|--- .... ....|--- .... ....|--- .... ....
....|..|--- .... ....|R-- .... ....|D-3 .F.A ....
 D-4|..|D-2 .A.F ....|G-5 ...7 ....|D-3 .F.F ....
....|..|--- .... ....|--- .... ....|--- .... ....
....|..|R-- .... ....|--- .... ....|--- .... ....
....|..|--- .... ....|--- .... ....|--- .... ....
....|..|--- .... ....|--- .... ....|--- .... ....
....|..|--- .... ....|--- .... ....|D-3 .F.F ....
 D-4|..|D-2 .F.A ....|--- .... ....|R-- .... ....
....|..|--- .... ....|--- .... ....|R-- .... ....
....|..|R-- .... ....|--- .... ....|--- .... ....
....|..|--- .... ....|--- .... ....|--- .... ....
....|..|--- .... ....|--- .... ....|--- .... ....
....|..|--- .... ....|R-- .... ....|D-3 .F.A ....

[Pattern27]
 C-4|..|C-2 .A.F ....|C-5 ...7 ....|C-3 .F.F ....
....|..|--- .... ....|--- .... ....|--- .... ....
....|..|--- .... ....|R-- .... ....|--- .... ....
....|..|--- .... ....|--- .... ....|--- .... ....
....|..|--- .... ....|C-5 ...7 ....|--- .... ....
....|..|--- .... ....|--- .... ....|R-- .... ....
....|..|R-- .... ....|R-- .... ....|D-4 .F5A ....
....|..|--- .... ....|R-- .... ....|--- .... ....
....|..|--- .... ....|C-5 ...7 ....|--- .... ....
....|..|--- .... ....|--- .... ....|--- .... ....
....|..|R-- .... ....|R-- .... ....|R-- .... ....
....|..|--- .... ....|--- .... ....|--- .... ....
 D-4|..|D-2 .F.7 ....|C-5 ...7 ....|D-4 .F57 ....
....|..|--- .... ....|R-- .... ....|--- .... ....
 D-4|..|D-2 .F.A ....|B-4 ...A ....|--- .... ....
....|..|--- .... ....|--- .... ....|--- .... ....
....|..|--- .... ....|R-- .... ....|D-4 .F.7 ....
....|..|R-- .... ....|--- .... ....|R-- .... ....
 C-4|..|C-2 .F.A ....|--- .... ....|C-3 .F.A ....
....|..|--- .... ....|--- .... ....|--- .... ....
....|..|--- .... ....|C-5 ...7 ....|--- .... ....
....|..|--- .... ....|--- .... ....|--- .... ....
....|..|--- .... ....|--- .... ....|--- .... ....
....|..|--- .... ....|--- .... ....|--- .... ....
 D-4|..|D-2 .F.7 ....|R-- .... ....|D-4 .F57 ....
....|..|--- .... ....|--- .... ....|--- .... ....
....|..|--- .... ....|--- .... ....|--- .... ....
....|..|--- .... ....|--- .... ....|--- .... ....
....|..|R-- .... ....|C-5 ...7 ....|R-- .... ....
....|..|--- .... ....|--- .... ....|--- .... ....
....|..|--- .... ....|--- .... ....|--- .... ....
....|..|--- .... ....|R-- .... ....|--- .... ....
 D-4|..|D-2 .F.7 ....|B-4 ...7 ....|--- .... ....
....|..|--- .... ....|--- .... ....|--- .... ....
....|..|--- .... ....|--- .... ....|--- .... ....
....|..|R-- .... ....|--- .... ....|--- .... ....
 C-4|..|C-2 .F.7 ....|--- .... ....|C-3 .F.7 ....
....|..|--- .... ....|--- .... ....|--- .... ....
....|..|--- .... ....|--- .... ....|--- .... ....
....|..|--- .... ....|--- .... ....|--- .... ....
....|..|R-- .... ....|--- .... ....|--- .... ....
....|..|--- .... ....|--- .... ....|--- .... ....
....|..|--- .... ....|R-- .... ....|--- .... ....
....|..|--- .... ....|--- .... ....|--- .... ....
 G-3|..|G-1 .A.F ....|--- .... ....|--- .... ....
....|..|R-- .... ....|--- .... ....|--- .... ....
....|..|--- .... ....|--- .... ....|--- .... ....
....|..|--- .... ....|--- .... ....|--- .... ....
 C-4|..|C-2 .A.F ....|B-4 ...F ....|A-3 .F6F ....
....|..|--- .... ....|--- .... ....|--- .... ....
....|..|--- .... ....|--- .... ....|--- .... ....
....|..|--- .... ....|--- .... ....|--- .... ....
....|..|--- .... ....|--- .... ....|--- .... ....
....|..|--- .... ....|--- .... ....|--- .... ....
....|..|R-- .... ....|--- .... ....|--- .... ....
....|..|--- .... ....|--- .... ....|--- .... ....
 G-3|..|G-1 .A.F ....|A-4 ...F ....|--- .... ....
....|..|--- .... ....|--- .... ....|--- .... ....
....|..|R-- .... ....|--- .... ....|--- .... ....
....|..|--- .... ....|--- .... ....|--- .... ....
 C-4|..|C-2 .A.F ....|--- .... ....|--- .... ....
....|..|--- .... ....|--- .... ....|--- .... ....
 G-3|..|G-1 .F.A ....|--- .... ....|--- .... ....
....|..|R-- .... ....|R-- .... ....|--- .... ....
....|..|--- .... ....|G-4 ...F ....|--- .... ....
....|..|--- .... ....|--- .... ....|--- .... ....
 C-4|..|C-2 .F.A ....|B-4 ...A ....|A-3 .F6A ....
....|..|--- .... ....|--- .... ....|--- .... ....
....|..|--- .... ....|--- .... ....|--- .... ....
....|..|--- .... ....|R-- .... ....|--- .... ....
....|..|--- .... ....|--- .... ....|--- .... ....
....|..|--- .... ....|--- .... ....|--- .... ....
....|..|R-- .... ....|G-4 ...F ....|--- .... ....
....|..|--- .... ....|--- .... ....|--- .... ....
 G-3|..|G-1 .F.A ....|A-4 ...A ....|--- .... ....
....|..|--- .... ....|--- .... ....|--- .... ....
....|..|R-- .... ....|--- .... ....|--- .... ....
....|..|--- .... ....|--- .... ....|--- .... ....
 C-4|..|C-2 .F.A ....|--- .... ....|--- .... ....
....|..|--- .... ....|--- .... ....|--- .... ....
 G-3|..|G-1 .F.7 ....|R-- .... ....|--- .... ....
....|..|R-- .... ....|R-- .... ....|--- .... ....
....|..|--- .... ....|G-4 ...A ....|--- .... ....
....|..|--- .... ....|--- .... ....|--- .... ....
 C-4|..|C-2 .F.7 ....|A-4 ...F ....|A-3 .F67 ....
....|..|--- .... ....|--- .... ....|--- .... ....
....|..|--- .... ....|--- .... ....|--- .... ....
....|..|--- .... ....|R-- .... ....|--- .... ....
....|..|--- .... ....|--- .... ....|--- .... ....
....|..|--- .... ....|--- .... ....|--- .... ....
....|..|R-- .... ....|G-4 ...A ....|--- .... ....
....|..|--- .... ....|--- .... ....|--- .... ....
 G-3|..|G-1 .F.7 ....|A-4 ...7 ....|--- .... ....
....|..|--- .... ....|G-4 ...F ....|--- .... ....
....|..|R-- .... ....|--- .... ....|--- .... ....
....|..|R-- .... ....|--- .... ....|--- .... ....

[Pattern28]
 G-3|..|G-1 .A.F ....|--- .... ....|G-2 .F.F ....
....|..|--- .... ....|--- .... ....|--- .... ....
....|..|--- .... ....|R-- .... ....|--- .... ....
....|..|--- .... ....|R-- .... ....|--- .... ....
....|..|--- .... ....|G-4 ...7 ....|--- .... ....
....|..|--- .... ....|--- .... ....|--- .... ....
....|..|--- .... ....|A-4 ...A ....|--- .... ....
....|..|--- .... ....|R-- .... ....|--- .... ....
....|..|--- .... ....|--- .... ....|--- .... ....
....|..|--- .... ....|R-- .... ....|--- .... ....
....|..|--- .... ....|--- .... ....|--- .... ....
....|..|--- .... ....|--- .... ....|--- .... ....
....|..|--- .... ....|G-4 ...7 ....|--- .... ....
....|..|--- .... ....|B-4 ...F ....|--- .... ....
....|..|--- .... ....|R-- .... ....|--- .... ....
....|..|--- .... ....|G-4 ...A ....|--- .... ....
....|..|--- .... ....|--- .... ....|--- .... ....
....|..|R-- .... ....|--- .... ....|--- .... ....
 G-3|..|G-1 .F.A ....|R-- .... ....|G-2 .F.A ....
....|..|--- .... ....|--- .... ....|--- .... ....
....|..|--- .... ....|B-4 ...F ....|--- .... ....
....|..|--- .... ....|--- .... ....|--- .... ....
....|..|--- .... ....|--- .... ....|--- .... ....
....|..|--- .... ....|--- .... ....|--- .... ....
....|..|--- .... ....|A-4 ...7 ....|--- .... ....
....|..|--- .... ....|R-- .... ....|--- .... ....
....|..|--- .... ....|--- .... ....|--- .... ....
....|..|--- .... ....|--- .... ....|--- .... ....
....|..|R-- .... ....|--- .... ....|--- .... ....
....|..|--- .... ....|--- .... ....|--- .... ....
....|..|--- .... ....|--- .... ....|--- .... ....
....|..|--- .... ....|B-4 ...A ....|--- .... ....
 A-3|..|A-1 .A.F ....|R-- .... ....|--- .... ....
....|..|--- .... ....|G-4 ...7 ....|--- .... ....
....|..|--- .... ....|--- .... ....|--- .... ....
....|..|R-- .... ....|--- .... ....|--- .... ....
 B-3|..|B-1 .A.F ....|R-- .... ....|G-2 .F.7 ....
....|..|--- .... ....|D-5 ...F ....|--- .... ....
....|..|--- .... ....|B-4 ...A ....|--- .... ....
....|..|--- .... ....|--- .... ....|G-2 .F.F ....
....|..|--- .... ....|--- .... ....|G-4 .F.F ....
....|..|--- .... ....|--- .... ....|--- .... ....
....|..|R-- .... ....|R-- .... ....|--- .... ....
....|..|--- .... ....|R-- .... ....|R-- .... ....
 D-4|..|D-2 .A.F ....|D-5 ...F ....|G-3 .F.F ....
....|..|--- .... ....|--- .... ....|--- .... ....
....|..|R-- .... ....|--- .... ....|G-3 .F5F ....
....|..|--- .... ....|--- .... ....|--- .... ....
 G-4|..|G-2 .A.F ....|--- .... ....|G-3 .F7F ....
....|..|--- .... ....|B-4 ...7 ....|D-4 .F8F ....
 A-3|..|A-1 .F.A ....|--- .... ....|--- .... ....
....|..|--- .... ....|--- .... ....|--- .... ....
....|..|--- .... ....|--- .... ....|--- .... ....
....|..|R-- .... ....|--- .... ....|--- .... ....
 B-3|..|B-1 .F.A ....|R-- .... ....|R-- .... ....
....|..|--- .... ....|D-5 ...A ....|--- .... ....
....|..|--- .... ....|B-4 ...7 ....|C-4 .F8F ....
....|..|--- .... ....|--- .... ....|G-2 .F.A ....
....|..|--- .... ....|--- .... ....|G-4 .F.A ....
....|..|--- .... ....|--- .... ....|--- .... ....
....|..|R-- .... ....|R-- .... ....|R-- .... ....
....|..|--- .... ....|--- .... ....|R-- .... ....
 D-4|..|D-2 .F.A ....|D-5 ...A ....|G-3 .F.A ....
....|..|--- .... ....|--- .... ....|--- .... ....
....|..|R-- .... ....|R-- .... ....|C-4 .F8F ....
....|..|--- .... ....|--- .... ....|--- .... ....
 G-4|..|G-2 .F.A ....|--- .... ....|G-3 .F7A ....
....|..|--- .... ....|--- .... ....|D-4 .F8A ....
 A-3|..|A-1 .F.7 ....|--- .... ....|--- .... ....
....|..|--- .... ....|--- .... ....|R-- .... ....
....|..|--- .... ....|--- .... ....|--- .... ....
....|..|R-- .... ....|--- .... ....|--- .... ....
 B-3|..|B-1 .F.7 ....|B-5 ...F ....|B-3 .F9F ....
....|..|--- .... ....|D-5 ...7 ....|--- .... ....
....|..|--- .... ....|--- .... ....|C-4 .F8A ....
....|..|--- .... ....|--- .... ....|G-2 .F.7 ....
....|..|--- .... ....|--- .... ....|G-4 .F.7 ....
....|..|--- .... ....|--- .... ....|--- .... ....
....|..|R-- .... ....|G-5 ...F ....|R-- .... ....
....|..|--- .... ....|--- .... ....|R-- .... ....
 B-3|..|B-1 .A.F ....|D-5 ...7 ....|B-3 .F2F ....
....|..|--- .... ....|--- .... ....|D-4 .F3F ....
....|..|R-- .... ....|R-- .... ....|G-3 .F57 ....
....|..|R-- .... ....|--- .... ....|--- .... ....
 D-4|..|D-2 .A.F ....|R-- .... ....|G-3 .F77 ....
....|..|--- .... ....|--- .... ....|D-4 .F87 ....
....|..|--- .... ....|--- .... ....|--- .... ....
....|..|R-- .... ....|--- .... ....|G-4 .F.F ....
 G-4|..|G-2 .A.F ....|--- .... ....|B-3 .F9F ....
....|..|--- .... ....|--- .... ....|--- .... ....
....|..|--- .... ....|B-5 ...A ....|R-- .... ....
....|..|R-- .... ....|--- .... ....|--- .... ....
 G-3|..|G-1 .A.F ....|--- .... ....|C-4 .F87 ....
....|..|--- .... ....|--- .... ....|B-3 .F.F ....
....|..|--- .... ....|--- .... ....|R-- .... ....
....|..|--- .... ....|--- .... ....|--- .... ....

[Pattern29]
 C-4|..|C-2 .A.F ....|G-5 ...A ....|C-3 .F.F ....
....|..|--- .... ....|--- .... ....|--- .... ....
 B-3|..|B-1 .F.A ....|--- .... ....|B-3 .F2A ....
....|..|--- .... ....|--- .... ....|D-4 .F3A ....
....|..|--- .... ....|R-- .... ....|C-4 .F87 ....
....|..|R-- .... ....|--- .... ....|--- .... ....
 D-4|..|D-2 .F.A ....|R-- .... ....|--- .... ....
....|..|--- .... ....|--- .... ....|--- .... ....
....|..|--- .... ....|--- .... ....|--- .... ....
....|..|R-- .... ....|--- .... ....|R-- .... ....
 G-4|..|G-2 .F.A ....|--- .... ....|B-3 .F9A ....
....|..|--- .... ....|--- .... ....|--- .... ....
....|..|--- .... ....|B-5 ...7 ....|B-3 .F97 ....
....|..|R-- .... ....|--- .... ....|--- .... ....
 G-3|..|G-1 .F.A ....|--- .... ....|--- .... ....
....|..|--- .... ....|--- .... ....|B-3 .F.A ....
....|..|--- .... ....|--- .... ....|R-- .... ....
....|..|--- .... ....|--- .... ....|--- .... ....
 C-4|..|C-2 .F.A ....|G-5 ...7 ....|C-3 .F.A ....
....|..|--- .... ....|--- .... ....|--- .... ....
 B-3|..|B-1 .F.7 ....|--- .... ....|B-3 .F27 ....
....|..|--- .... ....|--- .... ....|D-4 .F37 ....
....|..|--- .... ....|--- .... ....|--- .... ....
....|..|R-- .... ....|--- .... ....|--- .... ....
 D-4|..|D-2 .F.7 ....|R-- .... ....|--- .... ....
....|..|--- .... ....|--- .... ....|--- .... ....
....|..|--- .... ....|--- .... ....|--- .... ....
....|..|R-- .... ....|--- .... ....|G-4 .F.7 ....
 G-4|..|G-2 .F.7 ....|--- .... ....|B-3 .F97 ....
....|..|--- .... ....|--- .... ....|--- .... ....
....|..|--- .... ....|--- .... ....|--- .... ....
....|..|R-- .... ....|--- .... ....|--- .... ....
 G-3|..|G-1 .F.7 ....|--- .... ....|--- .... ....
....|..|--- .... ....|--- .... ....|B-3 .F.7 ....
....|..|--- .... ....|--- .... ....|R-- .... ....
....|..|--- .... ....|--- .... ....|--- .... ....
 C-4|..|C-2 .F.7 ....|--- .... ....|C-3 .F.7 ....
....|..|--- .... ....|--- .... ....|--- .... ....
....|..|--- .... ....|--- .... ....|--- .... ....
....|..|--- .... ....|--- .... ....|--- .... ....
 G-3|..|G-1 .A.F ....|--- .... ....|--- .... ....
....|..|R-- .... ....|--- .... ....|--- .... ....
....|..|--- .... ....|--- .... ....|--- .... ....
....|..|--- .... ....|--- .... ....|--- .... ....
 G-3|..|G-1 .A.F ....|--- .... ....|--- .... ....
....|..|R-- .... ....|--- .... ....|--- .... ....
....|..|--- .... ....|--- .... ....|--- .... ....
....|..|--- .... ....|--- .... ....|--- .... ....
 D#4|..|D#2 .A.F ....|B-4 ...F ....|A-3 .F6F ....
....|..|--- .... ....|--- .... ....|--- .... ....
....|..|--- .... ....|--- .... ....|--- .... ....
....|..|--- .... ....|--- .... ....|--- .... ....
....|..|--- .... ....|--- .... ....|--- .... ....
....|..|--- .... ....|--- .... ....|--- .... ....
....|..|--- .... ....|--- .... ....|--- .... ....
....|..|--- .... ....|R-- .... ....|--- .... ....
....|..|--- .... ....|A-4 ...F ....|--- .... ....
....|..|--- .... ....|--- .... ....|--- .... ....
 G-3|..|G-1 .F.A ....|--- .... ....|--- .... ....
....|..|R-- .... ....|--- .... ....|--- .... ....
....|..|--- .... ....|--- .... ....|--- .... ....
....|..|--- .... ....|--- .... ....|--- .... ....
 G-3|..|G-1 .F.A ....|--- .... ....|--- .... ....
....|..|R-- .... ....|R-- .... ....|--- .... ....
....|..|--- .... ....|G-4 ...F ....|--- .... ....
....|..|--- .... ....|--- .... ....|--- .... ....
 D#4|..|D#2 .F.A ....|B-4 ...A ....|A-3 .F6A ....
....|..|--- .... ....|--- .... ....|--- .... ....
....|..|--- .... ....|--- .... ....|--- .... ....
....|..|--- .... ....|--- .... ....|--- .... ....
....|..|--- .... ....|R-- .... ....|--- .... ....
....|..|--- .... ....|--- .... ....|--- .... ....
 F-4|..|F-2 .A.F ....|F-4 ...F ....|--- .... ....
....|..|--- .... ....|R-- .... ....|--- .... ....
....|..|--- .... ....|A-4 ...A ....|--- .... ....
....|..|--- .... ....|--- .... ....|--- .... ....
 G-3|..|G-1 .F.7 ....|--- .... ....|--- .... ....
....|..|R-- .... ....|--- .... ....|--- .... ....
....|..|--- .... ....|--- .... ....|--- .... ....
....|..|--- .... ....|--- .... ....|--- .... ....
 G-3|..|G-1 .F.7 ....|--- .... ....|--- .... ....
....|..|R-- .... ....|R-- .... ....|--- .... ....
....|..|--- .... ....|G-4 ...A ....|--- .... ....
....|..|--- .... ....|--- .... ....|--- .... ....
 D#4|..|D#2 .F.7 ....|G-4 ...F ....|A-3 .F6F ....
....|..|--- .... ....|--- .... ....|--- .... ....
....|..|--- .... ....|--- .... ....|--- .... ....
....|..|--- .... ....|--- .... ....|--- .... ....
....|..|--- .... ....|R-- .... ....|--- .... ....
....|..|--- .... ....|--- .... ....|--- .... ....
 F-4|..|F-2 .F.A ....|F-4 ...A ....|--- .... ....
....|..|--- .... ....|R-- .... ....|--- .... ....
....|..|--- .... ....|A-4 ...7 ....|--- .... ....
....|..|--- .... ....|--- .... ....|--- .... ....
....|..|--- .... ....|--- .... ....|--- .... ....
....|..|--- .... ....|--- .... ....|--- .... ....

[Pattern30]
 G-4|..|G-2 .A.F ....|G-4 ...F ....|G-2 .F.F ....
....|..|--- .... ....|--- .... ....|--- .... ....
....|..|--- .... ....|--- .... ....|--- .... ....
....|..|--- .... ....|R-- .... ....|--- .... ....
....|..|--- .... ....|G-4 ...7 ....|--- .... ....
....|..|--- .... ....|--- .... ....|--- .... ....
....|..|--- .... ....|G-4 ...A ....|A-3 .F6A ....
....|..|--- .... ....|--- .... ....|--- .... ....
....|..|--- .... ....|--- .... ....|--- .... ....
....|..|--- .... ....|--- .... ....|--- .... ....
....|..|--- .... ....|R-- .... ....|--- .... ....
....|..|--- .... ....|R-- .... ....|--- .... ....
 F-4|..|F-2 .F.7 ....|B-4 ...F ....|--- .... ....
....|..|--- .... ....|--- .... ....|--- .... ....
....|..|--- .... ....|--- .... ....|--- .... ....
....|..|--- .... ....|--- .... ....|--- .... ....
....|..|--- .... ....|--- .... ....|--- .... ....
....|..|--- .... ....|--- .... ....|--- .... ....
 G-4|..|G-2 .F.A ....|R-- .... ....|G-2 .F.A ....
....|..|--- .... ....|B-4 ...F ....|--- .... ....
....|..|--- .... ....|--- .... ....|--- .... ....
....|..|--- .... ....|--- .... ....|--- .... ....
....|..|--- .... ....|--- .... ....|--- .... ....
....|..|--- .... ....|--- .... ....|--- .... ....
 F#4|..|F#2 .A.F ....|G-4 ...7 ....|F#2 .F.F ....
....|..|--- .... ....|--- .... ....|--- .... ....
....|..|--- .... ....|--- .... ....|--- .... ....
....|..|--- .... ....|--- .... ....|--- .... ....
....|..|--- .... ....|--- .... ....|--- .... ....
....|..|--- .... ....|R-- .... ....|--- .... ....
....|..|--- .... ....|B-4 ...A ....|--- .... ....
....|..|--- .... ....|--- .... ....|--- .... ....
....|..|--- .... ....|--- .... ....|--- .... ....
....|..|--- .... ....|--- .... ....|--- .... ....
....|..|--- .... ....|--- .... ....|--- .... ....
....|..|--- .... ....|D-5 ...F ....|--- .... ....
 G-4|..|G-2 .F.7 ....|G-4 ...7 ....|G-2 .F.7 ....
....|..|--- .... ....|B-4 ...A ....|--- .... ....
....|..|--- .... ....|--- .... ....|--- .... ....
....|..|--- .... ....|--- .... ....|--- .... ....
....|..|--- .... ....|--- .... ....|--- .... ....
....|..|--- .... ....|--- .... ....|--- .... ....
 F#4|..|F#2 .F.A ....|D-5 ...F ....|F#2 .F.A ....
....|..|--- .... ....|--- .... ....|--- .... ....
....|..|--- .... ....|--- .... ....|--- .... ....
....|..|--- .... ....|--- .... ....|--- .... ....
....|..|--- .... ....|--- .... ....|--- .... ....
....|..|--- .... ....|R-- .... ....|--- .... ....
 E-4|..|E-2 .A.F ....|B-4 ...7 ....|E-2 .F.F ....
....|..|--- .... ....|--- .... ....|--- .... ....
....|..|--- .... ....|--- .... ....|--- .... ....
....|..|--- .... ....|--- .... ....|--- .... ....
....|..|--- .... ....|--- .... ....|--- .... ....
....|..|--- .... ....|D-5 ...A ....|--- .... ....
....|..|--- .... ....|R-- .... ....|--- .... ....
....|..|--- .... ....|B-4 ...7 ....|--- .... ....
....|..|--- .... ....|--- .... ....|--- .... ....
....|..|--- .... ....|--- .... ....|--- .... ....
....|..|--- .... ....|--- .... ....|--- .... ....
....|..|--- .... ....|--- .... ....|--- .... ....
 F#4|..|F#2 .F.7 ....|D-5 ...A ....|F#2 .F.7 ....
....|..|--- .... ....|G-5 ...F ....|--- .... ....
....|..|--- .... ....|--- .... ....|--- .... ....
....|..|--- .... ....|--- .... ....|--- .... ....
....|..|--- .... ....|--- .... ....|--- .... ....
....|..|--- .... ....|--- .... ....|--- .... ....
 E-4|..|E-2 .F.A ....|R-- .... ....|E-2 .F.A ....
....|..|--- .... ....|G-5 ...F ....|--- .... ....
....|..|--- .... ....|--- .... ....|--- .... ....
....|..|--- .... ....|--- .... ....|--- .... ....
....|..|--- .... ....|--- .... ....|--- .... ....
....|..|--- .... ....|D-5 ...7 ....|--- .... ....
 D-4|..|D-2 .A.F ....|--- .... ....|D-2 .F.F ....
....|..|--- .... ....|--- .... ....|--- .... ....
....|..|--- .... ....|--- .... ....|--- .... ....
....|..|--- .... ....|--- .... ....|--- .... ....
....|..|--- .... ....|--- .... ....|--- .... ....
....|..|--- .... ....|--- .... ....|--- .... ....
....|..|--- .... ....|D-5 ...7 ....|--- .... ....
....|..|--- .... ....|G-5 ...A ....|--- .... ....
....|..|--- .... ....|G-5 ...F ....|--- .... ....
....|..|--- .... ....|--- .... ....|--- .... ....
....|..|--- .... ....|D-5 ...F ....|--- .... ....
....|..|--- .... ....|--- .... ....|--- .... ....
 E-4|..|E-2 .F.7 ....|R-- .... ....|E-2 .F.7 ....
....|..|--- .... ....|G-5 ...A ....|--- .... ....
....|..|--- .... ....|--- .... ....|--- .... ....
....|..|--- .... ....|--- .... ....|--- .... ....
....|..|--- .... ....|--- .... ....|--- .... ....
....|..|--- .... ....|--- .... ....|--- .... ....
 D-4|..|D-2 .F.A ....|--- .... ....|D-2 .F.A ....
....|..|--- .... ....|--- .... ....|--- .... ....
....|..|--- .... ....|--- .... ....|--- .... ....
....|..|--- .... ....|--- .... ....|--- .... ....
....|..|--- .... ....|--- .... ....|--- .... ....
....|..|--- .... ....|R-- .... ....|--- .... ....

[Pattern31]
 C#4|..|C#2 .A.F ....|E-5 ...F ....|C#2 .F.F ....
....|..|--- .... ....|G-5 ...7 ....|--- .... ....
....|..|--- .... ....|G-5 ...A ....|--- .... ....
....|..|--- .... ....|--- .... ....|--- .... ....
....|..|--- .... ....|D-5 ...A ....|--- .... ....
....|..|--- .... ....|--- .... ....|--- .... ....
....|..|--- .... ....|R-- .... ....|--- .... ....
....|..|--- .... ....|G-5 ...7 ....|--- .... ....
....|..|--- .... ....|--- .... ....|--- .... ....
....|..|--- .... ....|--- .... ....|--- .... ....
....|..|--- .... ....|--- .... ....|--- .... ....
....|..|--- .... ....|--- .... ....|--- .... ....
 D-4|..|D-2 .F.7 ....|--- .... ....|D-2 .F.7 ....
....|..|--- .... ....|--- .... ....|--- .... ....
....|..|--- .... ....|--- .... ....|--- .... ....
....|..|--- .... ....|--- .... ....|--- .... ....
....|..|--- .... ....|--- .... ....|--- .... ....
....|..|--- .... ....|R-- .... ....|--- .... ....
 C#4|..|C#2 .F.A ....|E-5 ...A ....|C#2 .F.A ....
....|..|--- .... ....|--- .... ....|--- .... ....
....|..|--- .... ....|G-5 ...7 ....|--- .... ....
....|..|--- .... ....|--- .... ....|--- .... ....
....|..|--- .... ....|D-5 ...7 ....|--- .... ....
....|..|--- .... ....|--- .... ....|--- .... ....
....|..|--- .... ....|--- .... ....|--- .... ....
....|..|--- .... ....|--- .... ....|--- .... ....
....|..|--- .... ....|--- .... ....|--- .... ....
....|..|--- .... ....|--- .... ....|--- .... ....
....|..|--- .... ....|--- .... ....|--- .... ....
....|..|--- .... ....|--- .... ....|--- .... ....
....|..|--- .... ....|--- .... ....|--- .... ....
....|..|--- .... ....|--- .... ....|--- .... ....
 G-3|..|G-1 .A.F ....|--- .... ....|--- .... ....
....|..|--- .... ....|--- .... ....|--- .... ....
....|..|--- .... ....|--- .... ....|--- .... ....
....|..|--- .... ....|R-- .... ....|--- .... ....
 C#4|..|C#2 .A.F ....|B-4 ...F ....|C#2 .F.7 ....
....|..|--- .... ....|--- .... ....|--- .... ....
....|..|--- .... ....|--- .... ....|--- .... ....
....|..|--- .... ....|--- .... ....|--- .... ....
....|..|--- .... ....|--- .... ....|--- .... ....
....|..|--- .... ....|--- .... ....|--- .... ....
....|..|--- .... ....|--- .... ....|--- .... ....
....|..|--- .... ....|--- .... ....|--- .... ....
 G-3|..|G-1 .A.F ....|--- .... ....|--- .... ....
....|..|--- .... ....|--- .... ....|--- .... ....
....|..|--- .... ....|--- .... ....|--- .... ....
....|..|--- .... ....|--- .... ....|--- .... ....
 C#4|..|C#2 .A.F ....|G-4 ...F ....|R-- .... ....
....|..|--- .... ....|--- .... ....|--- .... ....
 G-3|..|G-1 .F.A ....|--- .... ....|--- .... ....
....|..|--- .... ....|--- .... ....|--- .... ....
....|..|--- .... ....|--- .... ....|--- .... ....
....|..|--- .... ....|--- .... ....|--- .... ....
 C#4|..|C#2 .F.A ....|B-4 ...A ....|--- .... ....
....|..|--- .... ....|--- .... ....|--- .... ....
....|..|--- .... ....|--- .... ....|--- .... ....
....|..|--- .... ....|--- .... ....|--- .... ....
....|..|--- .... ....|--- .... ....|--- .... ....
....|..|--- .... ....|--- .... ....|--- .... ....
....|..|--- .... ....|--- .... ....|--- .... ....
....|..|--- .... ....|--- .... ....|--- .... ....
 G-3|..|G-1 .F.A ....|--- .... ....|--- .... ....
....|..|--- .... ....|--- .... ....|--- .... ....
....|..|--- .... ....|--- .... ....|--- .... ....
....|..|--- .... ....|R-- .... ....|--- .... ....
 C#4|..|C#2 .F.A ....|G-4 ...A ....|R-- .... ....
....|..|--- .... ....|--- .... ....|--- .... ....
 G-3|..|G-1 .F.7 ....|--- .... ....|--- .... ....
....|..|--- .... ....|--- .... ....|--- .... ....
....|..|--- .... ....|--- .... ....|--- .... ....
....|..|--- .... ....|--- .... ....|--- .... ....
 C#4|..|C#2 .F.7 ....|B-4 ...7 ....|--- .... ....
....|..|--- .... ....|--- .... ....|--- .... ....
....|..|--- .... ....|--- .... ....|--- .... ....
....|..|--- .... ....|--- .... ....|--- .... ....
....|..|--- .... ....|--- .... ....|--- .... ....
....|..|--- .... ....|--- .... ....|--- .... ....
....|..|--- .... ....|--- .... ....|--- .... ....
....|..|--- .... ....|--- .... ....|--- .... ....
 G-3|..|G-1 .F.7 ....|--- .... ....|--- .... ....
....|..|--- .... ....|--- .... ....|--- .... ....
....|..|--- .... ....|--- .... ....|--- .... ....
....|..|--- .... ....|R-- .... ....|--- .... ....
 C#4|..|C#2 .F.7 ....|G-4 ...7 ....|R-- .... ....
....|..|--- .... ....|G-4 ...F ....|--- .... ....
....|..|--- .... ....|--- .... ....|--- .... ....
....|..|--- .... ....|--- .... ....|--- .... ....
....|..|--- .... ....|--- .... ....|--- .... ....
....|..|--- .... ....|--- .... ....|--- .... ....
....|..|--- .... ....|--- .... ....|--- .... ....
....|..|--- .... ....|--- .... ....|--- .... ....
....|..|--- .... ....|--- .... ....|--- .... ....
....|..|--- .... ....|--- .... ....|--- .... ....
....|..|--- .... ....|--- .... ....|--- .... ....
....|..|--- .... ....|--- .... ....|--- .... ....

[Pattern32]
 D-4|..|D-2 .A.F ....|R-- .... ....|D-2 .F.F ....
....|..|--- .... ....|G-5 ...F ....|--- .... ....
....|..|--- .... ....|--- .... ....|--- .... ....
....|..|--- .... ....|--- .... ....|--- .... ....
....|..|--- .... ....|--- .... ....|--- .... ....
....|..|--- .... ....|R-- .... ....|--- .... ....
....|..|--- .... ....|--- .... ....|--- .... ....
....|..|--- .... ....|G-4 ...A ....|--- .... ....
....|..|--- .... ....|--- .... ....|D-2 .F.F ....
....|..|--- .... ....|--- .... ....|--- .... ....
....|..|--- .... ....|--- .... ....|--- .... ....
....|..|--- .... ....|--- .... ....|--- .... ....
....|..|--- .... ....|--- .... ....|D-2 .F.F ....
....|..|--- .... ....|--- .... ....|--- .... ....
....|..|--- .... ....|--- .... ....|--- .... ....
....|..|--- .... ....|--- .... ....|--- .... ....
....|..|--- .... ....|--- .... ....|--- .... ....
....|..|--- .... ....|--- .... ....|--- .... ....
 D-4|..|D-2 .F.A ....|R-- .... ....|D-2 .F.A ....
....|..|--- .... ....|G-5 ...A ....|--- .... ....
....|..|--- .... ....|--- .... ....|D-2 .F.F ....
....|..|--- .... ....|--- .... ....|--- .... ....
....|..|--- .... ....|--- .... ....|--- .... ....
....|..|--- .... ....|--- .... ....|--- .... ....
 D-4|..|D-2 .A.F ....|--- .... ....|D-2 .F.F ....
....|..|--- .... ....|G-4 ...7 ....|--- .... ....
....|..|--- .... ....|--- .... ....|D-2 .F.A ....
....|..|--- .... ....|--- .... ....|--- .... ....
....|..|--- .... ....|--- .... ....|--- .... ....
....|..|--- .... ....|--- .... ....|--- .... ....
....|..|--- .... ....|--- .... ....|D-2 .F.A ....
....|..|--- .... ....|--- .... ....|--- .... ....
....|..|--- .... ....|--- .... ....|D-2 .F.F ....
....|..|--- .... ....|--- .... ....|--- .... ....
....|..|--- .... ....|--- .... ....|--- .... ....
....|..|--- .... ....|--- .... ....|--- .... ....
 D-4|..|D-2 .F.7 ....|R-- .... ....|D-2 .F.F ....
....|..|--- .... ....|G-5 ...7 ....|--- .... ....
....|..|--- .... ....|--- .... ....|D-2 .F.A ....
....|..|--- .... ....|--- .... ....|--- .... ....
....|..|--- .... ....|--- .... ....|--- .... ....
....|..|--- .... ....|--- .... ....|--- .... ....
 D-4|..|D-2 .F.A ....|--- .... ....|D-2 .F.A ....
....|..|--- .... ....|--- .... ....|--- .... ....
....|..|--- .... ....|--- .... ....|D-2 .F.F ....
....|..|--- .... ....|--- .... ....|--- .... ....
....|..|--- .... ....|--- .... ....|--- .... ....
....|..|--- .... ....|--- .... ....|--- .... ....
 D-4|..|D-2 .A.F ....|--- .... ....|D-2 .F.F ....
....|..|--- .... ....|--- .... ....|--- .... ....
....|..|--- .... ....|--- .... ....|D-2 .F.A ....
....|..|--- .... ....|--- .... ....|--- .... ....
....|..|--- .... ....|--- .... ....|--- .... ....
....|..|--- .... ....|--- .... ....|--- .... ....
....|..|--- .... ....|--- .... ....|D-2 .F.A ....
....|..|--- .... ....|--- .... ....|--- .... ....
....|..|--- .... ....|--- .... ....|D-2 .F.F ....
....|..|--- .... ....|--- .... ....|--- .... ....
....|..|--- .... ....|--- .... ....|--- .... ....
....|..|--- .... ....|--- .... ....|--- .... ....
 D-4|..|D-2 .F.7 ....|--- .... ....|D-2 .F.F ....
....|..|--- .... ....|--- .... ....|--- .... ....
....|..|--- .... ....|--- .... ....|D-2 .F.A ....
....|..|--- .... ....|--- .... ....|--- .... ....
....|..|--- .... ....|--- .... ....|--- .... ....
....|..|--- .... ....|--- .... ....|--- .... ....
 D-4|..|D-2 .F.A ....|--- .... ....|D-2 .F.A ....
....|..|--- .... ....|--- .... ....|--- .... ....
....|..|--- .... ....|--- .... ....|D-2 .F.F ....
....|..|--- .... ....|--- .... ....|--- .... ....
....|..|--- .... ....|R-- .... ....|--- .... ....
....|..|--- .... ....|--- .... ....|--- .... ....
....|..|--- .... ....|--- .... ....|D-2 .F.F ....
....|..|--- .... ....|--- .... ....|--- .... ....
....|..|--- .... ....|--- .... ....|D-2 .F.A ....
....|..|--- .... ....|--- .... ....|--- .... ....
....|..|--- .... ....|--- .... ....|--- .... ....
....|..|--- .... ....|--- .... ....|--- .... ....
....|..|--- .... ....|--- .... ....|D-2 .F.A ....
....|..|--- .... ....|--- .... ....|--- .... ....
....|..|--- .... ....|--- .... ....|D-2 .F.F ....
....|..|--- .... ....|--- .... ....|--- .... ....
....|..|--- .... ....|--- .... ....|--- .... ....
....|..|--- .... ....|--- .... ....|--- .... ....
 D-4|..|D-2 .F.7 ....|--- .... ....|D-2 .F.F ....
....|..|--- .... ....|--- .... ....|--- .... ....
....|..|--- .... ....|--- .... ....|D-2 .F.A ....
....|..|--- .... ....|--- .... ....|--- .... ....
....|..|--- .... ....|R-- .... ....|--- .... ....
....|..|--- .... ....|--- .... ....|--- .... ....
....|..|--- .... ....|--- .... ....|D-2 .F.A ....
....|..|--- .... ....|--- .... ....|--- .... ....
....|..|--- .... ....|--- .... ....|D-2 .F.F ....
....|..|--- .... ....|--- .... ....|--- .... ....
....|..|--- .... ....|--- .... ....|--- .... ....
....|..|--- .... ....|--- .... ....|--- .... ....

[Pattern33]
....|..|R-- .... ....|--- .... ....|G-4 .F1F ....
....|..|--- .... ....|--- .... ....|--- .... ....
....|..|--- .... ....|--- .... ....|D-2 .F.A ....
....|..|--- .... ....|--- .... ....|--- .... ....
....|..|--- .... ....|--- .... ....|--- .... ....
....|..|--- .... ....|--- .... ....|R-- .... ....
....|..|--- .... ....|--- .... ....|D-2 .F.A ....
....|..|--- .... ....|--- .... ....|--- .... ....
....|..|--- .... ....|--- .... ....|D-2 .F.7 ....
....|..|--- .... ....|--- .... ....|--- .... ....
....|..|--- .... ....|R-- .... ....|--- .... ....
....|..|--- .... ....|--- .... ....|--- .... ....
....|..|--- .... ....|G-4 ...F ....|G-4 .F1F ....
....|..|--- .... ....|R-- .... ....|--- .... ....
....|..|--- .... ....|--- .... ....|D-2 .F.A ....
....|..|--- .... ....|--- .... ....|--- .... ....
....|..|--- .... ....|G-4 ...F ....|--- .... ....
....|..|--- .... ....|--- .... ....|R-- .... ....
....|..|R-- .... ....|R-- .... ....|G-4 .F1A ....
....|..|--- .... ....|--- .... ....|--- .... ....
....|..|--- .... ....|G-4 ...F ....|D-2 .F.7 ....
....|..|--- .... ....|--- .... ....|--- .... ....
....|..|--- .... ....|R-- .... ....|--- .... ....
....|..|--- .... ....|--- .... ....|R-- .... ....
....|..|--- .... ....|B-4 ...F ....|G-4 .F1F ....
....|..|--- .... ....|--- .... ....|--- .... ....
....|..|--- .... ....|--- .... ....|--- .... ....
....|..|--- .... ....|--- .... ....|--- .... ....
....|..|--- .... ....|--- .... ....|--- .... ....
....|..|--- .... ....|--- .... ....|R-- .... ....
....|..|--- .... ....|G-4 ...A ....|G-4 .F1A ....
....|..|--- .... ....|R-- .... ....|--- .... ....
....|..|--- .... ....|--- .... ....|D-2 .F.7 ....
....|..|--- .... ....|R-- .... ....|--- .... ....
....|..|--- .... ....|G-4 ...A ....|--- .... ....
....|..|--- .... ....|--- .... ....|R-- .... ....
....|..|R-- .... ....|B-4 ...F ....|G-4 .F1F ....
....|..|--- .... ....|R-- .... ....|--- .... ....
....|..|--- .... ....|G-4 ...A ....|--- .... ....
....|..|--- .... ....|--- .... ....|--- .... ....
....|..|--- .... ....|B-4 ...F ....|R-- .... ....
....|..|--- .... ....|--- .... ....|R-- .... ....
....|..|--- .... ....|R-- .... ....|G-4 .F1A ....
....|..|--- .... ....|--- .... ....|--- .... ....
....|..|--- .... ....|B-4 ...F ....|--- .... ....
....|..|--- .... ....|--- .... ....|--- .... ....
....|..|--- .... ....|--- .... ....|--- .... ....
....|..|--- .... ....|R-- .... ....|R-- .... ....
....|..|--- .... ....|D-5 ...F ....|G-4 .F1F ....
....|..|--- .... ....|R-- .... ....|--- .... ....
....|..|--- .... ....|--- .... ....|--- .... ....
....|..|--- .... ....|R-- .... ....|--- .... ....
....|..|--- .... ....|G-4 ...7 ....|--- .... ....
....|..|--- .... ....|--- .... ....|R-- .... ....
....|..|--- .... ....|R-- .... ....|G-4 .F1A ....
....|..|--- .... ....|R-- .... ....|--- .... ....
....|..|--- .... ....|G-4 ...7 ....|--- .... ....
....|..|--- .... ....|--- .... ....|--- .... ....
....|..|--- .... ....|R-- .... ....|R-- .... ....
....|..|--- .... ....|--- .... ....|--- .... ....
....|..|--- .... ....|D-5 ...F ....|G-4 .F1F ....
....|..|--- .... ....|--- .... ....|--- .... ....
....|..|--- .... ....|R-- .... ....|--- .... ....
....|..|--- .... ....|--- .... ....|--- .... ....
....|..|--- .... ....|D-5 ...F ....|G-2 .F.F ....
....|..|--- .... ....|R-- .... ....|G-2 .F.F ....
....|..|--- .... ....|R-- .... ....|G-4 .F1A ....
....|..|--- .... ....|--- .... ....|R-- .... ....
....|..|--- .... ....|D-5 ...F ....|D-3 .F.F ....
....|..|--- .... ....|R-- .... ....|--- .... ....
....|..|--- .... ....|--- .... ....|--- .... ....
....|..|--- .... ....|R-- .... ....|R-- .... ....
....|..|--- .... ....|B-5 ...F ....|G-3 .F.F ....
....|..|--- .... ....|R-- .... ....|--- .... ....
....|..|--- .... ....|--- .... ....|--- .... ....
....|..|--- .... ....|--- .... ....|--- .... ....
....|..|--- .... ....|B-4 ...7 ....|G-3 .F.F ....
....|..|--- .... ....|--- .... ....|G-3 .F.F ....
....|..|--- .... ....|R-- .... ....|G-4 .F1A ....
....|..|--- .... ....|--- .... ....|--- .... ....
....|..|--- .... ....|B-5 ...F ....|G-3 .FAF ....
....|..|--- .... ....|--- .... ....|A-3 .F.F ....
....|..|--- .... ....|D-5 ...A ....|G-2 .F.A ....
....|..|--- .... ....|R-- .... ....|G-2 .F.A ....
....|..|--- .... ....|D-5 ...7 ....|A-3 .F.F ....
....|..|--- .... ....|--- .... ....|R-- .... ....
....|..|--- .... ....|D-5 ...A ....|D-3 .F.A ....
....|..|--- .... ....|--- .... ....|G-4 .F1F ....
....|..|--- .... ....|B-5 ...F ....|B-3 .F.F ....
....|..|--- .... ....|R-- .... ....|B-3 .F.F ....
....|..|--- .... ....|R-- .... ....|G-3 .F.A ....
....|..|--- .... ....|--- .... ....|--- .... ....
....|..|--- .... ....|--- .... ....|--- .... ....
....|..|--- .... ....|--- .... ....|--- .... ....
....|..|--- .... ....|R-- .... ....|G-3 .F.A ....
....|..|--- .... ....|--- .... ....|R-- .... ....

[Pattern34]
....|..|--- .... ....|C-6 ...F ....|C-4 .F1F ....
....|..|--- .... ....|--- .... ....|--- .... ....
....|..|--- .... ....|R-- .... ....|C-4 .F1F ....
....|..|--- .... ....|--- .... ....|C-4 .F.F ....
....|..|--- .... ....|D-5 ...7 ....|G-2 .F.7 ....
....|..|--- .... ....|--- .... ....|G-2 .F.7 ....
....|..|--- .... ....|R-- .... ....|A-3 .F.A ....
....|..|--- .... ....|--- .... ....|R-- .... ....
....|..|--- .... ....|D-5 ...7 ....|D-3 .F.7 ....
....|..|--- .... ....|--- .... ....|G-4 .F1A ....
....|..|--- .... ....|B-5 ...A ....|B-3 .F.A ....
....|..|--- .... ....|C-6 ...F ....|R-- .... ....
....|..|--- .... ....|B-5 ...7 ....|C-4 .F1F ....
....|..|--- .... ....|R-- .... ....|--- .... ....
....|..|--- .... ....|--- .... ....|--- .... ....
....|..|--- .... ....|C-6 ...F ....|--- .... ....
....|..|--- .... ....|R-- .... ....|C-4 .F.F ....
....|..|--- .... ....|R-- .... ....|G-3 .F.7 ....
....|..|--- .... ....|C-6 ...A ....|C-4 .F1A ....
....|..|--- .... ....|C-6 ...F ....|--- .... ....
....|..|--- .... ....|B-5 ...7 ....|G-3 .FA7 ....
....|..|--- .... ....|R-- .... ....|A-3 .F.7 ....
....|..|--- .... ....|--- .... ....|--- .... ....
....|..|--- .... ....|--- .... ....|--- .... ....
....|..|--- .... ....|E-6 ...F ....|C-4 .F1F ....
....|..|--- .... ....|--- .... ....|--- .... ....
....|..|--- .... ....|R-- .... ....|--- .... ....
....|..|--- .... ....|R-- .... ....|G-4 .F17 ....
....|..|--- .... ....|B-5 ...7 ....|C-4 .F.F ....
....|..|--- .... ....|C-6 ...A ....|B-3 .F.7 ....
....|..|--- .... ....|R-- .... ....|C-4 .F1A ....
....|..|--- .... ....|R-- .... ....|--- .... ....
....|..|--- .... ....|E-6 ...F ....|--- .... ....
....|..|--- .... ....|C-6 ...A ....|--- .... ....
....|..|--- .... ....|--- .... ....|C-4 .F.A ....
....|..|--- .... ....|R-- .... ....|R-- .... ....
....|..|--- .... ....|C-6 ...7 ....|G-4 .FBF ....
....|..|--- .... ....|C-6 ...A ....|--- .... ....
....|..|--- .... ....|--- .... ....|C-4 .F17 ....
....|..|--- .... ....|E-6 ...F ....|C-4 .F.7 ....
....|..|--- .... ....|--- .... ....|G-4 .F.F ....
....|..|--- .... ....|R-- .... ....|R-- .... ....
....|..|--- .... ....|E-6 ...A ....|C-4 .F1A ....
....|..|--- .... ....|E-6 ...F ....|--- .... ....
....|..|--- .... ....|R-- .... ....|C-4 .F.F ....
....|..|--- .... ....|R-- .... ....|--- .... ....
....|..|--- .... ....|--- .... ....|C-4 .F.A ....
....|..|--- .... ....|C-6 ...7 ....|R-- .... ....
....|..|--- .... ....|D-6 ...F ....|D-4 .FCF ....
....|..|--- .... ....|R-- .... ....|--- .... ....
....|..|--- .... ....|E-6 ...A ....|--- .... ....
....|..|--- .... ....|C-6 ...7 ....|--- .... ....
....|..|--- .... ....|--- .... ....|D-4 .F.F ....
....|..|--- .... ....|R-- .... ....|R-- .... ....
....|..|--- .... ....|R-- .... ....|G-4 .FBA ....
....|..|--- .... ....|C-6 ...7 ....|--- .... ....
....|..|--- .... ....|D-6 ...F ....|--- .... ....
....|..|--- .... ....|R-- .... ....|--- .... ....
....|..|--- .... ....|--- .... ....|G-4 .F.A ....
....|..|--- .... ....|R-- .... ....|R-- .... ....
....|..|--- .... ....|E-6 ...7 ....|D-4 .FCF ....
....|..|--- .... ....|E-6 ...A ....|--- .... ....
....|..|--- .... ....|--- .... ....|C-4 .F.A ....
....|..|--- .... ....|R-- .... ....|--- .... ....
....|..|--- .... ....|--- .... ....|D-4 .F3F ....
....|..|--- .... ....|D-6 ...F ....|D-4 .F.F ....
....|..|--- .... ....|D-6 ...A ....|D-4 .FCA ....
....|..|--- .... ....|R-- .... ....|--- .... ....
....|..|--- .... ....|D-6 ...F ....|--- .... ....
....|..|--- .... ....|R-- .... ....|--- .... ....
....|..|--- .... ....|R-- .... ....|D-4 .F.A ....
....|..|--- .... ....|--- .... ....|R-- .... ....
....|..|--- .... ....|C-6 ...F ....|D-4 .F7F ....
....|..|--- .... ....|--- .... ....|--- .... ....
....|..|--- .... ....|R-- .... ....|--- .... ....
....|..|--- .... ....|E-6 ...7 ....|--- .... ....
....|..|--- .... ....|C-6 ...F ....|G-4 .F.7 ....
....|..|--- .... ....|R-- .... ....|D-4 .F.F ....
....|..|--- .... ....|--- .... ....|D-4 .F.F ....
....|..|--- .... ....|C-6 ...F ....|--- .... ....
....|..|--- .... ....|--- .... ....|C-4 .F.7 ....
....|..|--- .... ....|R-- .... ....|--- .... ....
....|..|--- .... ....|R-- .... ....|D-4 .F3A ....
....|..|--- .... ....|D-6 ...F ....|R-- .... ....
....|..|--- .... ....|D-6 ...7 ....|F#4 .F2F ....
....|..|--- .... ....|R-- .... ....|--- .... ....
....|..|--- .... ....|D-6 ...A ....|--- .... ....
....|..|--- .... ....|R-- .... ....|--- .... ....
....|..|--- .... ....|R-- .... ....|D-4 .F.7 ....
....|..|--- .... ....|R-- .... ....|R-- .... ....
....|..|--- .... ....|C-6 ...A ....|D-4 .F7A ....
....|..|--- .... ....|--- .... ....|--- .... ....
....|..|--- .... ....|B-5 ...F ....|--- .... ....
....|..|--- .... ....|--- .... ....|--- .... ....
....|..|--- .... ....|C-6 ...A ....|--- .... ....
....|..|--- .... ....|R-- .... ....|D-4 .F.A ....

[Pattern35]
....|..|--- .... ....|--- .... ....|G-4 .F1F ....
 G-3|..|G-1 .A.F ....|C-6 ...A ....|--- .... ....
....|..|--- .... ....|--- .... ....|--- .... ....
....|..|--- .... ....|R-- .... ....|--- .... ....
....|..|--- .... ....|R-- .... ....|D-4 .F37 ....
....|..|--- .... ....|D-6 ...7 ....|D-4 .F.7 ....
....|..|--- .... ....|--- .... ....|F#4 .F2A ....
....|..|--- .... ....|R-- .... ....|--- .... ....
....|..|--- .... ....|D-6 ...7 ....|--- .... ....
....|..|--- .... ....|--- .... ....|--- .... ....
....|..|--- .... ....|R-- .... ....|--- .... ....
....|..|--- .... ....|R-- .... ....|R-- .... ....
....|..|--- .... ....|G-4 ...F ....|G-4 .F1F ....
....|..|--- .... ....|--- .... ....|--- .... ....
....|..|--- .... ....|R-- .... ....|--- .... ....
....|..|--- .... ....|G-4 ...F ....|--- .... ....
....|..|R-- .... ....|C-6 ...7 ....|--- .... ....
....|..|--- .... ....|R-- .... ....|D-4 .F.7 ....
....|..|--- .... ....|--- .... ....|D-4 .F.7 ....
 G-3|..|G-1 .F.A ....|G-4 ...F ....|--- .... ....
....|..|--- .... ....|--- .... ....|--- .... ....
....|..|--- .... ....|R-- .... ....|--- .... ....
....|..|--- .... ....|R-- .... ....|--- .... ....
....|..|--- .... ....|D-6 ...7 ....|R-- .... ....
....|..|--- .... ....|B-4 ...F ....|G-4 .F1F ....
....|..|--- .... ....|--- .... ....|--- .... ....
....|..|--- .... ....|--- .... ....|--- .... ....
....|..|--- .... ....|--- .... ....|--- .... ....
....|..|--- .... ....|--- .... ....|--- .... ....
....|..|--- .... ....|R-- .... ....|R-- .... ....
....|..|--- .... ....|G-4 ...A ....|G-4 .F1A ....
....|..|--- .... ....|--- .... ....|--- .... ....
....|..|--- .... ....|B-5 ...7 ....|--- .... ....
....|..|--- .... ....|R-- .... ....|--- .... ....
....|..|R-- .... ....|--- .... ....|--- .... ....
....|..|--- .... ....|B-4 ...F ....|R-- .... ....
....|..|--- .... ....|--- .... ....|G-4 .F1F ....
 G-3|..|G-1 .F.7 ....|R-- .... ....|--- .... ....
....|..|--- .... ....|B-4 ...F ....|--- .... ....
....|..|--- .... ....|R-- .... ....|--- .... ....
....|..|--- .... ....|--- .... ....|R-- .... ....
....|..|--- .... ....|R-- .... ....|R-- .... ....
....|..|--- .... ....|B-4 ...F ....|G-4 .F1A ....
....|..|--- .... ....|--- .... ....|--- .... ....
....|..|--- .... ....|--- .... ....|--- .... ....
....|..|--- .... ....|R-- .... ....|--- .... ....
....|..|--- .... ....|--- .... ....|--- .... ....
....|..|--- .... ....|--- .... ....|R-- .... ....
....|..|--- .... ....|D-5 ...F ....|G-4 .F1F ....
....|..|--- .... ....|--- .... ....|--- .... ....
....|..|--- .... ....|R-- .... ....|--- .... ....
....|..|--- .... ....|G-4 ...7 ....|--- .... ....
....|..|R-- .... ....|--- .... ....|--- .... ....
....|..|--- .... ....|R-- .... ....|R-- .... ....
....|..|--- .... ....|--- .... ....|G-4 .F1A ....
....|..|--- .... ....|G-4 ...7 ....|--- .... ....
....|..|--- .... ....|B-4 ...A ....|--- .... ....
....|..|--- .... ....|R-- .... ....|--- .... ....
....|..|--- .... ....|R-- .... ....|R-- .... ....
....|..|--- .... ....|D-5 ...F ....|--- .... ....
....|..|--- .... ....|B-4 ...7 ....|G-4 .F1F ....
....|..|--- .... ....|R-- .... ....|--- .... ....
....|..|--- .... ....|--- .... ....|--- .... ....
....|..|--- .... ....|D-5 ...F ....|--- .... ....
....|..|--- .... ....|--- .... ....|G-2 .F.F ....
....|..|--- .... ....|R-- .... ....|G-2 .F.F ....
....|..|--- .... ....|D-5 ...A ....|G-4 .F1A ....
....|..|--- .... ....|D-5 ...F ....|R-- .... ....
....|..|--- .... ....|--- .... ....|D-3 .F.F ....
....|..|--- .... ....|R-- .... ....|--- .... ....
....|..|--- .... ....|--- .... ....|--- .... ....
....|..|--- .... ....|B-4 ...7 ....|R-- .... ....
 G-3|..|G-1 .A.F ....|G-5 ...F ....|G-3 .F.F ....
....|..|--- .... ....|R-- .... ....|--- .... ....
....|..|--- .... ....|B-4 ...7 ....|--- .... ....
....|..|--- .... ....|--- .... ....|--- .... ....
....|..|--- .... ....|R-- .... ....|G-3 .F.F ....
....|..|--- .... ....|R-- .... ....|G-3 .F.F ....
....|..|--- .... ....|B-4 ...7 ....|G-4 .F1A ....
....|..|--- .... ....|R-- .... ....|--- .... ....
 A-3|..|A-1 .A.F ....|--- .... ....|G-3 .FAF ....
....|..|--- .... ....|G-5 ...F ....|A-3 .F.F ....
....|..|--- .... ....|--- .... ....|G-2 .F.A ....
....|..|--- .... ....|R-- .... ....|G-2 .F.A ....
....|..|--- .... ....|D-5 ...7 ....|A-3 .F.F ....
....|..|--- .... ....|R-- .... ....|R-- .... ....
....|..|--- .... ....|--- .... ....|D-3 .F.A ....
....|..|--- .... ....|R-- .... ....|G-4 .F1F ....
 B-3|..|B-1 .A.F ....|--- .... ....|B-3 .F.F ....
....|..|--- .... ....|G-5 ...F ....|B-3 .F.F ....
 G-3|..|G-1 .F.A ....|G-5 ...A ....|G-3 .F.A ....
....|..|--- .... ....|--- .... ....|--- .... ....
....|..|--- .... ....|--- .... ....|--- .... ....
....|..|--- .... ....|R-- .... ....|--- .... ....
....|..|--- .... ....|R-- .... ....|G-3 .F.A ....
....|..|--- .... ....|D-5 ...7 ....|R-- .... ....

[Pattern36]
 C-4|..|C-2 .A.F ....|E-5 ...F ....|C-4 .F1F ....
....|..|--- .... ....|R-- .... ....|--- .... ....
 A-3|..|A-1 .F.A ....|--- .... ....|C-4 .F1F ....
....|..|--- .... ....|D-5 ...7 ....|C-4 .F.F ....
....|..|--- .... ....|--- .... ....|G-2 .F.7 ....
....|..|--- .... ....|R-- .... ....|G-2 .F.7 ....
....|..|--- .... ....|--- .... ....|A-3 .F.A ....
....|..|--- .... ....|D-5 ...7 ....|R-- .... ....
....|..|--- .... ....|R-- .... ....|D-3 .F.7 ....
....|..|--- .... ....|R-- .... ....|G-4 .F1A ....
 B-3|..|B-1 .F.A ....|--- .... ....|B-3 .F.A ....
....|..|--- .... ....|G-5 ...A ....|R-- .... ....
 G-3|..|G-1 .F.7 ....|E-5 ...F ....|C-4 .F1F ....
....|..|R-- .... ....|--- .... ....|--- .... ....
....|..|--- .... ....|R-- .... ....|--- .... ....
....|..|--- .... ....|R-- .... ....|--- .... ....
....|..|--- .... ....|E-5 ...F ....|C-4 .F.F ....
....|..|--- .... ....|--- .... ....|G-3 .F.7 ....
 C-4|..|C-2 .F.A ....|R-- .... ....|C-4 .F1A ....
....|..|--- .... ....|--- .... ....|--- .... ....
 A-3|..|A-1 .F.7 ....|E-5 ...F ....|G-3 .FA7 ....
....|..|--- .... ....|G-5 ...7 ....|A-3 .F.7 ....
....|..|--- .... ....|--- .... ....|--- .... ....
....|..|--- .... ....|R-- .... ....|--- .... ....
....|..|--- .... ....|E-5 ...F ....|C-4 .F1F ....
....|..|--- .... ....|R-- .... ....|--- .... ....
....|..|--- .... ....|R-- .... ....|--- .... ....
....|..|--- .... ....|--- .... ....|G-4 .F17 ....
 B-3|..|B-1 .F.7 ....|--- .... ....|C-4 .F.F ....
....|..|--- .... ....|G-5 ...7 ....|B-3 .F.7 ....
....|..|--- .... ....|E-5 ...A ....|C-4 .F1A ....
....|..|R-- .... ....|--- .... ....|--- .... ....
....|..|--- .... ....|E-5 ...F ....|--- .... ....
....|..|--- .... ....|R-- .... ....|--- .... ....
....|..|--- .... ....|R-- .... ....|C-4 .F.A ....
....|..|--- .... ....|--- .... ....|R-- .... ....
 C-4|..|C-2 .F.7 ....|E-5 ...7 ....|G-4 .FBF ....
....|..|--- .... ....|E-5 ...F ....|--- .... ....
....|..|--- .... ....|E-5 ...A ....|C-4 .F17 ....
....|..|--- .... ....|R-- .... ....|C-4 .F.7 ....
....|..|--- .... ....|--- .... ....|G-4 .F.F ....
....|..|--- .... ....|E-5 ...F ....|R-- .... ....
....|..|--- .... ....|R-- .... ....|C-4 .F1A ....
....|..|--- .... ....|--- .... ....|--- .... ....
....|..|--- .... ....|E-5 ...F ....|C-4 .F.F ....
....|..|--- .... ....|--- .... ....|--- .... ....
....|..|--- .... ....|R-- .... ....|C-4 .F.A ....
....|..|--- .... ....|R-- .... ....|R-- .... ....
 D-4|..|D-2 .A.F ....|F#5 ...F ....|D-4 .FCF ....
....|..|R-- .... ....|--- .... ....|--- .... ....
....|..|--- .... ....|R-- .... ....|--- .... ....
....|..|--- .... ....|--- .... ....|--- .... ....
....|..|--- .... ....|E-5 ...7 ....|D-4 .F.F ....
....|..|R-- .... ....|R-- .... ....|R-- .... ....
....|..|--- .... ....|R-- .... ....|G-4 .FBA ....
....|..|--- .... ....|E-5 ...A ....|--- .... ....
 D-4|..|D-2 .A.F ....|E-5 ...7 ....|--- .... ....
....|..|--- .... ....|F#5 ...F ....|--- .... ....
....|..|--- .... ....|--- .... ....|G-4 .F.A ....
....|..|R-- .... ....|R-- .... ....|R-- .... ....
 D-4|..|D-2 .A.F ....|E-5 ...7 ....|D-4 .FCF ....
....|..|--- .... ....|--- .... ....|--- .... ....
....|..|--- .... ....|R-- .... ....|C-4 .F.A ....
....|..|R-- .... ....|--- .... ....|--- .... ....
 D-4|..|D-2 .A.F ....|R-- .... ....|D-4 .F3F ....
....|..|--- .... ....|R-- .... ....|D-4 .F.F ....
 D-4|..|D-2 .F.A ....|F#5 ...A ....|D-4 .FCA ....
....|..|--- .... ....|--- .... ....|--- .... ....
 D-4|..|D-2 .A.F ....|E-5 ...7 ....|--- .... ....
....|..|--- .... ....|--- .... ....|--- .... ....
....|..|--- .... ....|R-- .... ....|D-4 .F.A ....
....|..|R-- .... ....|R-- .... ....|R-- .... ....
 D-4|..|D-2 .A.F ....|F#6 ...F ....|D-4 .F7F ....
....|..|--- .... ....|E-5 ...7 ....|--- .... ....
 D-4|..|D-2 .F.A ....|--- .... ....|--- .... ....
....|..|R-- .... ....|R-- .... ....|--- .... ....
 D-4|..|D-2 .A.F ....|--- .... ....|G-4 .F.7 ....
....|..|R-- .... ....|E-5 ...7 ....|D-4 .F.F ....
 D-4|..|D-2 .F.A ....|R-- .... ....|D-4 .F.F ....
....|..|R-- .... ....|R-- .... ....|--- .... ....
 D-4|..|D-2 .A.F ....|E-5 ...7 ....|C-4 .F.7 ....
....|..|R-- .... ....|F#6 ...F ....|--- .... ....
 D-4|..|D-2 .F.A ....|R-- .... ....|D-4 .F3A ....
....|..|R-- .... ....|--- .... ....|R-- .... ....
 D-4|..|D-2 .A.F ....|F#5 ...7 ....|F#4 .F2F ....
....|..|--- .... ....|--- .... ....|--- .... ....
 D-4|..|D-2 .F.A ....|--- .... ....|--- .... ....
....|..|--- .... ....|--- .... ....|--- .... ....
....|..|--- .... ....|R-- .... ....|D-4 .F.7 ....
....|..|R-- .... ....|R-- .... ....|R-- .... ....
....|..|R-- .... ....|F#6 ...A ....|D-4 .F7A ....
....|..|--- .... ....|--- .... ....|--- .... ....
 D-4|..|D-2 .A.F ....|G-6 ...F ....|--- .... ....
....|..|R-- .... ....|F#5 ...7 ....|--- .... ....
 D-4|..|D-2 .F.A ....|--- .... ....|--- .... ....
....|..|R-- .... ....|--- .... ....|D-4 .F.A ....

[Pattern37]
 G-3|..|G-1 .A.F ....|--- .... ....|D-4 .F3F ....
....|..|R-- .... ....|R-- .... ....|--- .... ....
 D-4|..|D-2 .F.A ....|R-- .... ....|--- .... ....
....|..|R-- .... ....|F#6 ...A ....|--- .... ....
 D-4|..|D-2 .F.7 ....|R-- .... ....|D-4 .F37 ....
....|..|R-- .... ....|--- .... ....|D-4 .F.7 ....
 D-4|..|D-2 .F.A ....|--- .... ....|F#4 .F2A ....
....|..|--- .... ....|--- .... ....|--- .... ....
 D-4|..|D-2 .F.7 ....|--- .... ....|--- .... ....
....|..|--- .... ....|--- .... ....|--- .... ....
....|..|--- .... ....|R-- .... ....|--- .... ....
....|..|R-- .... ....|--- .... ....|R-- .... ....
 G-3|..|G-1 .A.F ....|G-4 ...F ....|D-4 .F3F ....
....|..|--- .... ....|R-- .... ....|--- .... ....
 D-4|..|D-2 .F.A ....|G-6 ...A ....|--- .... ....
....|..|R-- .... ....|--- .... ....|--- .... ....
 D-4|..|D-2 .F.7 ....|G-4 ...F ....|--- .... ....
....|..|--- .... ....|--- .... ....|D-4 .F.7 ....
....|..|R-- .... ....|R-- .... ....|D-4 .F.7 ....
....|..|R-- .... ....|R-- .... ....|--- .... ....
 D-4|..|D-2 .F.7 ....|G-4 ...F ....|--- .... ....
....|..|--- .... ....|F#6 ...7 ....|--- .... ....
....|..|--- .... ....|R-- .... ....|R-- .... ....
....|..|R-- .... ....|R-- .... ....|R-- .... ....
 G-3|..|G-1 .A.F ....|B-4 ...F ....|D-4 .F3F ....
....|..|--- .... ....|--- .... ....|--- .... ....
....|..|--- .... ....|--- .... ....|--- .... ....
....|..|--- .... ....|--- .... ....|--- .... ....
....|..|--- .... ....|R-- .... ....|R-- .... ....
....|..|R-- .... ....|--- .... ....|R-- .... ....
....|..|R-- .... ....|G-4 ...A ....|D-4 .F3A ....
....|..|--- .... ....|R-- .... ....|--- .... ....
 D-4|..|D-2 .F.7 ....|G-6 ...7 ....|--- .... ....
....|..|--- .... ....|R-- .... ....|--- .... ....
....|..|--- .... ....|G-4 ...A ....|--- .... ....
....|..|--- .... ....|--- .... ....|R-- .... ....
 G-3|..|G-1 .A.F ....|B-4 ...F ....|D-4 .F3F ....
....|..|--- .... ....|--- .... ....|--- .... ....
....|..|--- .... ....|R-- .... ....|--- .... ....
....|..|--- .... ....|--- .... ....|--- .... ....
....|..|R-- .... ....|B-4 ...F ....|R-- .... ....
....|..|R-- .... ....|R-- .... ....|R-- .... ....
 G-3|..|G-1 .F.A ....|R-- .... ....|D-4 .F3A ....
....|..|--- .... ....|--- .... ....|--- .... ....
 D-4|..|D-2 .A.F ....|B-4 ...F ....|--- .... ....
....|..|--- .... ....|--- .... ....|--- .... ....
....|..|R-- .... ....|--- .... ....|R-- .... ....
....|..|R-- .... ....|R-- .... ....|--- .... ....
 G-3|..|G-1 .A.F ....|D-5 ...F ....|D-4 .F3F ....
....|..|--- .... ....|R-- .... ....|--- .... ....
....|..|--- .... ....|--- .... ....|--- .... ....
....|..|--- .... ....|R-- .... ....|--- .... ....
....|..|--- .... ....|G-4 ...7 ....|R-- .... ....
....|..|--- .... ....|--- .... ....|R-- .... ....
....|..|R-- .... ....|R-- .... ....|D-4 .F3A ....
....|..|--- .... ....|--- .... ....|--- .... ....
....|..|--- .... ....|G-4 ...7 ....|--- .... ....
....|..|--- .... ....|--- .... ....|--- .... ....
....|..|R-- .... ....|R-- .... ....|--- .... ....
....|..|--- .... ....|R-- .... ....|R-- .... ....
 G-3|..|G-1 .A.F ....|D-5 ...F ....|D-4 .F3F ....
....|..|--- .... ....|--- .... ....|--- .... ....
 D-4|..|D-2 .F.A ....|R-- .... ....|--- .... ....
....|..|--- .... ....|--- .... ....|--- .... ....
....|..|R-- .... ....|D-5 ...F ....|R-- .... ....
....|..|R-- .... ....|R-- .... ....|R-- .... ....
 G-3|..|G-1 .F.A ....|R-- .... ....|D-4 .F3A ....
....|..|--- .... ....|--- .... ....|--- .... ....
 G-3|..|G-1 .A.F ....|D-5 ...F ....|--- .... ....
....|..|R-- .... ....|R-- .... ....|--- .... ....
....|..|--- .... ....|--- .... ....|R-- .... ....
....|..|--- .... ....|R-- .... ....|--- .... ....
 G-3|..|G-1 .A.F ....|B-5 ...F ....|D-4 .F3F ....
....|..|--- .... ....|--- .... ....|--- .... ....
....|..|--- .... ....|R-- .... ....|--- .... ....
....|..|--- .... ....|--- .... ....|--- .... ....
....|..|R-- .... ....|B-4 ...7 ....|--- .... ....
....|..|--- .... ....|R-- .... ....|R-- .... ....
 G-3|..|G-1 .F.A ....|R-- .... ....|D-4 .F3A ....
....|..|R-- .... ....|--- .... ....|--- .... ....
 A-3|..|A-1 .A.F ....|B-5 ...F ....|--- .... ....
....|..|--- .... ....|--- .... ....|--- .... ....
....|..|R-- .... ....|D-5 ...A ....|--- .... ....
....|..|--- .... ....|R-- .... ....|R-- .... ....
 G-3|..|G-1 .F.7 ....|D-5 ...7 ....|D-4 .F3F ....
....|..|--- .... ....|--- .... ....|--- .... ....
....|..|R-- .... ....|D-5 ...A ....|--- .... ....
....|..|R-- .... ....|--- .... ....|--- .... ....
 B-3|..|B-1 .A.F ....|B-5 ...F ....|R-- .... ....
....|..|--- .... ....|R-- .... ....|R-- .... ....
....|..|R-- .... ....|B-5 ...A ....|D-4 .F3A ....
....|..|--- .... ....|--- .... ....|--- .... ....
....|..|--- .... ....|R-- .... ....|--- .... ....
....|..|--- .... ....|--- .... ....|--- .... ....
....|..|R-- .... ....|R-- .... ....|--- .... ....
....|..|--- .... ....|R-- .... ....|R-- .... ....

[Pattern39]
 G-3|..|G-1 .A.F ....|--- .... ....|D-4 .F3F ....
....|..|--- .... ....|--- .... ....|--- .... ....
....|..|--- .... ....|R-- .... ....|--- .... ....
....|..|--- .... ....|--- .... ....|--- .... ....
....|..|--- .... ....|D-6 ...7 ....|R-- .... ....
....|..|R-- .... ....|--- .... ....|R-- .... ....
....|..|R-- .... ....|R-- .... ....|D-4 .F5A ....
....|..|--- .... ....|--- .... ....|--- .... ....
....|..|--- .... ....|D-6 ...7 ....|--- .... ....
....|..|--- .... ....|R-- .... ....|--- .... ....
....|..|R-- .... ....|R-- .... ....|R-- .... ....
....|..|--- .... ....|--- .... ....|--- .... ....
 G-3|..|G-1 .A.F ....|G-4 ...F ....|D-4 .F3F ....
....|..|--- .... ....|R-- .... ....|--- .... ....
 D-4|..|D-2 .F.A ....|B-5 ...A ....|--- .... ....
....|..|--- .... ....|R-- .... ....|--- .... ....
....|..|--- .... ....|G-4 ...F ....|D-4 .F.7 ....
....|..|R-- .... ....|--- .... ....|R-- .... ....
....|..|R-- .... ....|R-- .... ....|D-4 .F3A ....
....|..|--- .... ....|--- .... ....|--- .... ....
....|..|--- .... ....|G-4 ...F ....|--- .... ....
....|..|--- .... ....|--- .... ....|--- .... ....
....|..|--- .... ....|R-- .... ....|R-- .... ....
....|..|R-- .... ....|R-- .... ....|--- .... ....
 G-3|..|G-1 .A.F ....|B-4 ...F ....|D-4 .F3F ....
....|..|--- .... ....|--- .... ....|--- .... ....
....|..|--- .... ....|--- .... ....|--- .... ....
....|..|--- .... ....|R-- .... ....|--- .... ....
....|..|R-- .... ....|D-6 ...7 ....|R-- .... ....
....|..|R-- .... ....|--- .... ....|--- .... ....
 G-3|..|G-1 .F.A ....|R-- .... ....|D-4 .F3A ....
....|..|--- .... ....|R-- .... ....|--- .... ....
 D-4|..|D-2 .F.7 ....|B-5 ...7 ....|--- .... ....
....|..|--- .... ....|R-- .... ....|--- .... ....
....|..|--- .... ....|G-4 ...A ....|--- .... ....
....|..|R-- .... ....|--- .... ....|R-- .... ....
 G-3|..|G-1 .A.F ....|B-4 ...F ....|G-2 .F.F ....
....|..|--- .... ....|--- .... ....|--- .... ....
....|..|--- .... ....|R-- .... ....|--- .... ....
....|..|--- .... ....|--- .... ....|--- .... ....
....|..|R-- .... ....|B-4 ...F ....|R-- .... ....
....|..|R-- .... ....|R-- .... ....|G-2 .F.F ....
 G-3|..|G-1 .F.A ....|R-- .... ....|D-4 .F3A ....
....|..|--- .... ....|--- .... ....|--- .... ....
 F#3|..|F#1 .A.F ....|B-4 ...F ....|F#2 .F.F ....
....|..|--- .... ....|--- .... ....|--- .... ....
....|..|R-- .... ....|--- .... ....|R-- .... ....
....|..|R-- .... ....|R-- .... ....|--- .... ....
 E-3|..|E-1 .A.F ....|D-5 ...F ....|E-2 .F.F ....
....|..|--- .... ....|R-- .... ....|--- .... ....
....|..|--- .... ....|--- .... ....|--- .... ....
....|..|--- .... ....|R-- .... ....|--- .... ....
....|..|--- .... ....|G-4 ...7 ....|E-2 .F.F ....
....|..|--- .... ....|--- .... ....|R-- .... ....
....|..|R-- .... ....|R-- .... ....|G-2 .F.A ....
....|..|--- .... ....|--- .... ....|--- .... ....
 F#3|..|F#1 .A.F ....|G-4 ...7 ....|F#2 .F.F ....
....|..|--- .... ....|--- .... ....|--- .... ....
....|..|R-- .... ....|R-- .... ....|--- .... ....
....|..|--- .... ....|R-- .... ....|G-2 .F.A ....
 G-3|..|G-1 .F.7 ....|D-5 ...F ....|F#2 .F.F ....
....|..|--- .... ....|--- .... ....|--- .... ....
 F#3|..|F#1 .F.A ....|R-- .... ....|F#2 .F.A ....
....|..|--- .... ....|--- .... ....|--- .... ....
 G-3|..|G-1 .A.F ....|D-5 ...F ....|G-2 .F.F ....
....|..|R-- .... ....|R-- .... ....|G-2 .F.F ....
 E-3|..|E-1 .F.A ....|R-- .... ....|E-2 .F.A ....
....|..|--- .... ....|--- .... ....|--- .... ....
....|..|--- .... ....|D-5 ...F ....|--- .... ....
....|..|--- .... ....|R-- .... ....|--- .... ....
....|..|--- .... ....|--- .... ....|E-2 .F.A ....
....|..|--- .... ....|R-- .... ....|--- .... ....
 G-3|..|G-1 .A.F ....|G-5 ...F ....|G-2 .F.F ....
....|..|--- .... ....|--- .... ....|--- .... ....
 F#3|..|F#1 .F.A ....|R-- .... ....|F#2 .F.A ....
....|..|--- .... ....|--- .... ....|--- .... ....
....|..|R-- .... ....|B-4 ...7 ....|--- .... ....
....|..|--- .... ....|R-- .... ....|G-2 .F.F ....
....|..|--- .... ....|R-- .... ....|F#2 .F.A ....
....|..|R-- .... ....|--- .... ....|--- .... ....
 A-3|..|A-1 .A.F ....|G-5 ...F ....|A-2 .F.F ....
....|..|--- .... ....|--- .... ....|--- .... ....
....|..|R-- .... ....|D-5 ...A ....|G-2 .F.A ....
....|..|--- .... ....|R-- .... ....|G-2 .F.A ....
 E-3|..|E-1 .F.7 ....|D-5 ...7 ....|A-2 .F.F ....
....|..|--- .... ....|--- .... ....|--- .... ....
....|..|R-- .... ....|D-5 ...A ....|--- .... ....
....|..|--- .... ....|--- .... ....|--- .... ....
 B-3|..|B-1 .A.F ....|G-5 ...F ....|B-2 .F.F ....
....|..|--- .... ....|R-- .... ....|B-2 .F.F ....
 G-3|..|G-1 .F.A ....|G-5 ...A ....|G-2 .F.A ....
....|..|--- .... ....|--- .... ....|--- .... ....
 F#3|..|F#1 .F.7 ....|R-- .... ....|F#2 .F.7 ....
....|..|--- .... ....|--- .... ....|--- .... ....
....|..|R-- .... ....|R-- .... ....|--- .... ....
....|..|--- .... ....|R-- .... ....|G-2 .F.A ....

[Pattern40]
 C-4|..|C-2 .A.F ....|E-5 ...F ....|C-3 .F.F ....
....|..|R-- .... ....|--- .... ....|--- .... ....
 A-3|..|A-1 .F.A ....|R-- .... ....|A-2 .F.A ....
....|..|--- .... ....|--- .... ....|--- .... ....
 G-3|..|G-1 .F.7 ....|D-5 ...7 ....|C-3 .F.F ....
....|..|--- .... ....|--- .... ....|G-2 .F.7 ....
....|..|R-- .... ....|R-- .... ....|A-2 .F.A ....
....|..|--- .... ....|--- .... ....|--- .... ....
....|..|R-- .... ....|D-5 ...7 ....|R-- .... ....
....|..|--- .... ....|R-- .... ....|--- .... ....
 B-3|..|B-1 .F.A ....|G-5 ...A ....|B-2 .F.A ....
....|..|--- .... ....|R-- .... ....|B-2 .F.A ....
 C-4|..|C-2 .A.F ....|E-5 ...F ....|E-4 .F4F ....
....|..|--- .... ....|--- .... ....|--- .... ....
....|..|--- .... ....|R-- .... ....|--- .... ....
....|..|--- .... ....|--- .... ....|--- .... ....
....|..|R-- .... ....|E-5 ...F ....|G-4 .F.F ....
....|..|--- .... ....|R-- .... ....|G-2 .F.7 ....
....|..|R-- .... ....|R-- .... ....|C-3 .F.A ....
....|..|R-- .... ....|--- .... ....|--- .... ....
 A-3|..|A-1 .F.7 ....|E-5 ...F ....|A-2 .F.7 ....
....|..|--- .... ....|--- .... ....|--- .... ....
....|..|--- .... ....|--- .... ....|C-3 .F.A ....
....|..|--- .... ....|R-- .... ....|--- .... ....
 C-4|..|C-2 .A.F ....|E-5 ...F ....|E-4 .F4F ....
....|..|--- .... ....|--- .... ....|--- .... ....
....|..|R-- .... ....|--- .... ....|R-- .... ....
....|..|--- .... ....|R-- .... ....|--- .... ....
 B-3|..|B-1 .F.7 ....|G-5 ...7 ....|B-2 .F.7 ....
....|..|--- .... ....|--- .... ....|B-2 .F.7 ....
....|..|R-- .... ....|R-- .... ....|E-4 .F4A ....
....|..|--- .... ....|--- .... ....|--- .... ....
....|..|--- .... ....|E-5 ...F ....|--- .... ....
....|..|--- .... ....|--- .... ....|--- .... ....
....|..|R-- .... ....|R-- .... ....|G-4 .F.A ....
....|..|--- .... ....|--- .... ....|R-- .... ....
 C-4|..|C-2 .A.F ....|E-5 ...F ....|E-4 .F4F ....
....|..|--- .... ....|--- .... ....|--- .... ....
....|..|--- .... ....|R-- .... ....|--- .... ....
....|..|--- .... ....|--- .... ....|--- .... ....
....|..|--- .... ....|E-5 ...F ....|G-4 .F.F ....
....|..|R-- .... ....|R-- .... ....|R-- .... ....
....|..|R-- .... ....|E-5 ...A ....|E-4 .F4A ....
....|..|--- .... ....|R-- .... ....|--- .... ....
 C#4|..|C#2 .A.F ....|E-5 ...F ....|R-- .... ....
....|..|R-- .... ....|R-- .... ....|--- .... ....
....|..|--- .... ....|R-- .... ....|R-- .... ....
....|..|--- .... ....|--- .... ....|--- .... ....
 D-4|..|D-2 .A.F ....|F#5 ...F ....|D-4 .F3F ....
....|..|--- .... ....|--- .... ....|--- .... ....
....|..|--- .... ....|R-- .... ....|--- .... ....
....|..|--- .... ....|--- .... ....|--- .... ....
....|..|--- .... ....|E-5 ...7 ....|G-4 .F.7 ....
....|..|R-- .... ....|R-- .... ....|R-- .... ....
....|..|R-- .... ....|R-- .... ....|E-4 .F4A ....
....|..|--- .... ....|--- .... ....|--- .... ....
....|..|--- .... ....|F#5 ...F ....|--- .... ....
....|..|--- .... ....|--- .... ....|--- .... ....
....|..|--- .... ....|E-5 ...A ....|G-4 .F.A ....
....|..|R-- .... ....|R-- .... ....|R-- .... ....
 D-4|..|D-2 .A.F ....|F#5 ...F ....|D-4 .F3F ....
....|..|--- .... ....|R-- .... ....|--- .... ....
 C#4|..|C#2 .F.A ....|R-- .... ....|--- .... ....
....|..|R-- .... ....|--- .... ....|--- .... ....
....|..|--- .... ....|F#5 ...F ....|R-- .... ....
....|..|--- .... ....|--- .... ....|R-- .... ....
....|..|R-- .... ....|R-- .... ....|D-4 .F3A ....
....|..|--- .... ....|R-- .... ....|--- .... ....
....|..|--- .... ....|F#5 ...F ....|--- .... ....
....|..|--- .... ....|--- .... ....|--- .... ....
....|..|--- .... ....|R-- .... ....|R-- .... ....
....|..|R-- .... ....|R-- .... ....|--- .... ....
 D-4|..|D-2 .A.F ....|F#5 ...F ....|D-4 .F5F ....
....|..|--- .... ....|--- .... ....|--- .... ....
....|..|--- .... ....|R-- .... ....|--- .... ....
....|..|--- .... ....|--- .... ....|--- .... ....
....|..|--- .... ....|E-5 ...7 ....|D-4 .F.F ....
....|..|R-- .... ....|R-- .... ....|R-- .... ....
 D-4|..|D-2 .F.A ....|F#5 ...A ....|D-4 .F3A ....
....|..|--- .... ....|R-- .... ....|--- .... ....
 C#4|..|C#2 .F.7 ....|F#5 ...F ....|--- .... ....
....|..|R-- .... ....|--- .... ....|--- .... ....
....|..|--- .... ....|R-- .... ....|--- .... ....
....|..|--- .... ....|--- .... ....|R-- .... ....
 D-4|..|D-2 .A.F ....|F#5 ...7 ....|D-4 .F5F ....
....|..|--- .... ....|R-- .... ....|--- .... ....
....|..|--- .... ....|F#5 ...A ....|--- .... ....
....|..|--- .... ....|--- .... ....|--- .... ....
....|..|R-- .... ....|F#5 ...F ....|R-- .... ....
....|..|R-- .... ....|R-- .... ....|--- .... ....
 D-4|..|D-2 .F.A ....|F#5 ...A ....|D-4 .F5A ....
....|..|--- .... ....|R-- .... ....|--- .... ....
 D-4|..|D-2 .A.F ....|G-5 ...F ....|--- .... ....
....|..|--- .... ....|--- .... ....|--- .... ....
....|..|--- .... ....|R-- .... ....|D-4 .F.A ....
....|..|R-- .... ....|R-- .... ....|R-- .... ....

[Pattern41]
 E-4|..|E-2 .A.F ....|F#5 ...7 ....|E-6 .F.F ....
....|..|--- .... ....|--- .... ....|--- .... ....
....|..|--- .... ....|R-- .... ....|--- .... ....
....|..|--- .... ....|--- .... ....|--- .... ....
....|..|--- .... ....|F#5 ...7 ....|E-5 .F4F ....
....|..|--- .... ....|--- .... ....|R-- .... ....
....|..|R-- .... ....|R-- .... ....|D-4 .F5A ....
....|..|--- .... ....|R-- .... ....|--- .... ....
....|..|--- .... ....|F#5 ...7 ....|E-5 .FDF ....
....|..|--- .... ....|--- .... ....|--- .... ....
....|..|R-- .... ....|R-- .... ....|R-- .... ....
....|..|--- .... ....|--- .... ....|--- .... ....
 D-4|..|D-2 .F.7 ....|F#5 ...7 ....|E-5 .FDF ....
....|..|--- .... ....|R-- .... ....|E-5 .F4F ....
 D-4|..|D-2 .F.A ....|G-5 ...A ....|--- .... ....
....|..|--- .... ....|--- .... ....|E-6 .F.F ....
....|..|--- .... ....|R-- .... ....|E-5 .F1F ....
....|..|R-- .... ....|--- .... ....|R-- .... ....
 E-4|..|E-2 .F.A ....|--- .... ....|E-6 .F.A ....
....|..|--- .... ....|--- .... ....|--- .... ....
....|..|--- .... ....|F#5 ...7 ....|E-5 .FDF ....
....|..|--- .... ....|--- .... ....|--- .... ....
....|..|--- .... ....|--- .... ....|G-5 .F8F ....
....|..|--- .... ....|--- .... ....|G-6 .F.F ....
 D-4|..|D-2 .A.F ....|R-- .... ....|D-5 .F3F ....
....|..|--- .... ....|--- .... ....|D-6 .F.F ....
....|..|--- .... ....|--- .... ....|E-5 .FDA ....
....|..|--- .... ....|--- .... ....|--- .... ....
....|..|R-- .... ....|F#5 ...7 ....|D-5 .F5F ....
....|..|--- .... ....|--- .... ....|--- .... ....
....|..|--- .... ....|--- .... ....|E-5 .FDA ....
....|..|--- .... ....|R-- .... ....|E-5 .F4A ....
 D-4|..|D-2 .F.7 ....|G-5 ...7 ....|D-5 .F7F ....
....|..|--- .... ....|--- .... ....|D-5 .F1F ....
....|..|--- .... ....|--- .... ....|E-5 .F1A ....
....|..|R-- .... ....|--- .... ....|--- .... ....
 E-4|..|E-2 .F.7 ....|--- .... ....|D-5 .F1F ....
....|..|--- .... ....|--- .... ....|D-6 .F.F ....
....|..|--- .... ....|--- .... ....|E-5 .FDA ....
....|..|--- .... ....|--- .... ....|--- .... ....
....|..|--- .... ....|--- .... ....|D-5 .F1F ....
....|..|--- .... ....|--- .... ....|G-6 .F.A ....
 D-4|..|D-2 .F.A ....|R-- .... ....|D-5 .F3A ....
....|..|--- .... ....|--- .... ....|D-6 .F.A ....
....|..|--- .... ....|--- .... ....|D-5 .F7F ....
....|..|--- .... ....|--- .... ....|--- .... ....
....|..|--- .... ....|--- .... ....|F#5 .F4F ....
....|..|--- .... ....|--- .... ....|--- .... ....
 C-4|..|C-2 .A.F ....|D-5 ...F ....|C-5 .F6F ....
....|..|--- .... ....|--- .... ....|C-6 .F.F ....
....|..|--- .... ....|--- .... ....|D-5 .F7A ....
....|..|--- .... ....|--- .... ....|E-6 .F.7 ....
....|..|--- .... ....|--- .... ....|C-5 .F5F ....
....|..|--- .... ....|--- .... ....|--- .... ....
....|..|--- .... ....|--- .... ....|D-5 .F1A ....
....|..|--- .... ....|--- .... ....|D-6 .F.A ....
....|..|--- .... ....|--- .... ....|C-5 .F7F ....
....|..|--- .... ....|--- .... ....|--- .... ....
....|..|--- .... ....|--- .... ....|G-5 .F87 ....
....|..|--- .... ....|--- .... ....|C-5 .F5F ....
 D-4|..|D-2 .F.7 ....|--- .... ....|C-5 .F5F ....
....|..|--- .... ....|--- .... ....|D-6 .F.7 ....
....|..|--- .... ....|--- .... ....|C-6 .F.F ....
....|..|--- .... ....|--- .... ....|--- .... ....
....|..|--- .... ....|--- .... ....|C-5 .F1F ....
....|..|--- .... ....|--- .... ....|--- .... ....
 C-4|..|C-2 .F.A ....|D-5 ...A ....|C-5 .F6A ....
....|..|--- .... ....|--- .... ....|C-6 .F.A ....
....|..|--- .... ....|--- .... ....|C-5 .F7F ....
....|..|--- .... ....|--- .... ....|C-5 .F5F ....
....|..|--- .... ....|--- .... ....|E-5 .F9F ....
....|..|--- .... ....|--- .... ....|C-7 .F.F ....
 B-3|..|B-1 .A.F ....|--- .... ....|D-6 .F.F ....
....|..|--- .... ....|--- .... ....|D-6 .F.7 ....
....|..|--- .... ....|--- .... ....|D-6 .F.F ....
....|..|--- .... ....|--- .... ....|--- .... ....
....|..|--- .... ....|--- .... ....|D-5 .F3F ....
....|..|--- .... ....|--- .... ....|C-5 .F5A ....
....|..|--- .... ....|--- .... ....|C-5 .F5A ....
....|..|--- .... ....|--- .... ....|--- .... ....
....|..|--- .... ....|--- .... ....|D-5 .FBF ....
....|..|--- .... ....|--- .... ....|--- .... ....
....|..|--- .... ....|--- .... ....|F#5 .F47 ....
....|..|--- .... ....|--- .... ....|--- .... ....
 C-4|..|C-2 .F.7 ....|D-5 ...7 ....|D-5 .F3F ....
....|..|--- .... ....|--- .... ....|C-6 .F.7 ....
....|..|--- .... ....|--- .... ....|C-5 .F7A ....
....|..|--- .... ....|--- .... ....|D-6 .F.F ....
....|..|--- .... ....|C-5 ...F ....|D-5 .F8F ....
....|..|--- .... ....|--- .... ....|C-7 .F.A ....
 B-3|..|B-1 .F.A ....|--- .... ....|D-6 .F.A ....
....|..|--- .... ....|--- .... ....|--- .... ....
....|..|--- .... ....|B-4 ...F ....|D-5 .FBF ....
....|..|--- .... ....|--- .... ....|D-5 .F3F ....
....|..|--- .... ....|--- .... ....|D-5 .F3F ....
....|..|--- .... ....|--- .... ....|D-6 .F.F ....

[Pattern42]
 A-3|..|A-1 .A.F ....|G-4 ...F ....|E-6 .F.F ....
....|..|--- .... ....|--- .... ....|--- .... ....
....|..|--- .... ....|--- .... ....|C-6 .F.7 ....
....|..|--- .... ....|--- .... ....|--- .... ....
....|..|--- .... ....|--- .... ....|E-5 .F3F ....
....|..|--- .... ....|--- .... ....|--- .... ....
....|..|--- .... ....|--- .... ....|D-5 .F3A ....
....|..|--- .... ....|--- .... ....|--- .... ....
....|..|--- .... ....|--- .... ....|E-5 .FEF ....
....|..|--- .... ....|--- .... ....|C-5 .F57 ....
....|..|--- .... ....|C-5 ...A ....|E-5 .F97 ....
....|..|--- .... ....|--- .... ....|C-7 .F.7 ....
 B-3|..|B-1 .F.7 ....|--- .... ....|E-5 .F3F ....
....|..|--- .... ....|--- .... ....|E-6 .F.F ....
....|..|--- .... ....|B-4 ...A ....|D-6 .F.7 ....
....|..|--- .... ....|--- .... ....|D-5 .F3A ....
....|..|--- .... ....|--- .... ....|E-5 .F9F ....
....|..|--- .... ....|--- .... ....|D-6 .F.A ....
 A-3|..|A-1 .F.A ....|G-4 ...A ....|E-6 .F.A ....
....|..|--- .... ....|--- .... ....|--- .... ....
....|..|--- .... ....|--- .... ....|E-5 .FEF ....
....|..|--- .... ....|--- .... ....|--- .... ....
....|..|--- .... ....|--- .... ....|E-5 .F3A ....
....|..|--- .... ....|--- .... ....|E-6 .F.F ....
 G-3|..|G-1 .A.F ....|--- .... ....|G-6 .F.F ....
....|..|--- .... ....|--- .... ....|--- .... ....
....|..|--- .... ....|--- .... ....|E-5 .FEA ....
....|..|--- .... ....|--- .... ....|D-6 .F.7 ....
....|..|--- .... ....|C-5 ...7 ....|G-5 .F5F ....
....|..|--- .... ....|--- .... ....|--- .... ....
....|..|--- .... ....|--- .... ....|E-5 .F3A ....
....|..|--- .... ....|--- .... ....|E-6 .F.A ....
....|..|--- .... ....|B-4 ...7 ....|G-5 .F7F ....
....|..|--- .... ....|--- .... ....|D-5 .F37 ....
....|..|--- .... ....|--- .... ....|D-5 .F37 ....
....|..|--- .... ....|--- .... ....|G-5 .F5F ....
 A-3|..|A-1 .F.7 ....|G-4 ...7 ....|G-5 .F5F ....
....|..|--- .... ....|--- .... ....|G-6 .F.F ....
....|..|--- .... ....|--- .... ....|E-5 .FEA ....
....|..|--- .... ....|--- .... ....|--- .... ....
....|..|--- .... ....|--- .... ....|G-5 .F1F ....
....|..|--- .... ....|--- .... ....|E-6 .F.A ....
 G-3|..|G-1 .F.A ....|--- .... ....|G-6 .F.A ....
....|..|--- .... ....|--- .... ....|--- .... ....
....|..|--- .... ....|--- .... ....|G-5 .F7F ....
....|..|--- .... ....|--- .... ....|--- .... ....
....|..|--- .... ....|--- .... ....|G-5 .F5F ....
....|..|--- .... ....|--- .... ....|R-- .... ....
 F-3|..|F-1 .A.F ....|--- .... ....|A-6 .F.F ....
....|..|--- .... ....|--- .... ....|E-6 .F.7 ....
....|..|--- .... ....|--- .... ....|G-5 .F7A ....
....|..|--- .... ....|--- .... ....|--- .... ....
....|..|--- .... ....|--- .... ....|E-5 .F97 ....
....|..|--- .... ....|--- .... ....|G-5 .F5A ....
....|..|--- .... ....|--- .... ....|G-5 .F5A ....
....|..|--- .... ....|--- .... ....|G-6 .F.A ....
....|..|--- .... ....|--- .... ....|E-5 .FE7 ....
....|..|--- .... ....|--- .... ....|--- .... ....
....|..|--- .... ....|--- .... ....|G-5 .F1A ....
....|..|--- .... ....|--- .... ....|E-6 .F.7 ....
 G-3|..|G-1 .F.7 ....|--- .... ....|G-6 .F.7 ....
....|..|--- .... ....|--- .... ....|--- .... ....
....|..|--- .... ....|--- .... ....|G-5 .F7A ....
....|..|--- .... ....|--- .... ....|--- .... ....
....|..|--- .... ....|--- .... ....|G-5 .F57 ....
....|..|--- .... ....|--- .... ....|R-- .... ....
 F-3|..|F-1 .F.A ....|--- .... ....|A-6 .F.A ....
....|..|--- .... ....|--- .... ....|--- .... ....
....|..|--- .... ....|--- .... ....|G-5 .F77 ....
....|..|--- .... ....|--- .... ....|--- .... ....
....|..|--- .... ....|--- .... ....|--- .... ....
....|..|--- .... ....|--- .... ....|G-5 .F57 ....
....|..|--- .... ....|--- .... ....|G-5 .F57 ....
....|..|--- .... ....|--- .... ....|G-6 .F.7 ....
....|..|--- .... ....|--- .... ....|--- .... ....
....|..|--- .... ....|--- .... ....|--- .... ....
....|..|--- .... ....|--- .... ....|G-5 .F17 ....
....|..|--- .... ....|--- .... ....|--- .... ....
....|..|--- .... ....|--- .... ....|--- .... ....
....|..|--- .... ....|--- .... ....|--- .... ....
....|..|--- .... ....|--- .... ....|G-5 .F77 ....
....|..|--- .... ....|--- .... ....|--- .... ....
....|..|--- .... ....|--- .... ....|G-5 .F57 ....
....|..|--- .... ....|--- .... ....|R-- .... ....
 F-3|..|F-1 .F.7 ....|--- .... ....|A-6 .F.7 ....
....|..|--- .... ....|--- .... ....|--- .... ....
....|..|--- .... ....|--- .... ....|--- .... ....
....|..|--- .... ....|--- .... ....|--- .... ....
....|..|--- .... ....|--- .... ....|--- .... ....
....|..|--- .... ....|--- .... ....|--- .... ....
....|..|--- .... ....|--- .... ....|--- .... ....
....|..|--- .... ....|--- .... ....|--- .... ....
....|..|--- .... ....|R-- .... ....|--- .... ....
....|..|--- .... ....|--- .... ....|--- .... ....
....|..|--- .... ....|--- .... ....|--- .... ....
....|..|--- .... ....|--- .... ....|--- .... ....

[Pattern43]
....|..|--- .... ....|--- .... ....|--- .... ....
....|..|--- .... ....|--- .... ....|--- .... ....
....|..|--- .... ....|--- .... ....|--- .... ....
....|..|--- .... ....|--- .... ....|--- .... ....
....|..|--- .... ....|--- .... ....|--- .... ....
....|..|--- .... ....|--- .... ....|--- .... ....
....|..|--- .... ....|--- .... ....|--- .... ....
....|..|--- .... ....|--- .... ....|--- .... ....
....|..|--- .... ....|--- .... ....|--- .... ....
....|..|--- .... ....|--- .... ....|--- .... ....
....|..|--- .... ....|--- .... ....|--- .... ....
....|..|--- .... ....|--- .... ....|--- .... ....
....|..|--- .... ....|--- .... ....|--- .... ....
....|..|--- .... ....|--- .... ....|--- .... ....
....|..|--- .... ....|R-- .... ....|--- .... ....
....|..|--- .... ....|--- .... ....|--- .... ....
....|..|--- .... ....|--- .... ....|--- .... ....
....|..|--- .... ....|--- .... ....|--- .... ....
....|..|--- .... ....|--- .... ....|--- .... ....
....|..|--- .... ....|--- .... ....|--- .... ....
....|..|--- .... ....|--- .... ....|--- .... ....
....|..|--- .... ....|--- .... ....|--- .... ....
....|..|--- .... ....|--- .... ....|--- .... ....
....|..|--- .... ....|--- .... ....|--- .... ....
....|..|--- .... ....|--- .... ....|--- .... ....
....|..|--- .... ....|--- .... ....|--- .... ....
....|..|--- .... ....|--- .... ....|--- .... ....
....|..|--- .... ....|--- .... ....|--- .... ....
....|..|--- .... ....|--- .... ....|--- .... ....
....|..|--- .... ....|--- .... ....|--- .... ....
....|..|--- .... ....|--- .... ....|--- .... ....
....|..|--- .... ....|--- .... ....|--- .... ....
....|..|--- .... ....|R-- .... ....|--- .... ....
....|..|--- .... ....|--- .... ....|--- .... ....
....|..|--- .... ....|--- .... ....|--- .... ....
....|..|--- .... ....|--- .... ....|--- .... ....
....|..|--- .... ....|G-4 ...F ....|--- .... ....
....|..|--- .... ....|--- .... ....|--- .... ....
....|..|--- .... ....|--- .... ....|--- .... ....
....|..|--- .... ....|--- .... ....|--- .... ....
....|..|--- .... ....|G-4 ...F ....|--- .... ....
....|..|--- .... ....|--- .... ....|--- .... ....
....|..|--- .... ....|--- .... ....|--- .... ....
....|..|--- .... ....|--- .... ....|R-- .... ....
....|..|--- .... ....|--- .... ....|--- .... ....
....|..|--- .... ....|--- .... ....|--- .... ....
....|..|--- .... ....|--- .... ....|--- .... ....
....|..|--- .... ....|--- .... ....|--- .... ....
....|..|--- .... ....|--- .... ....|--- .... ....
....|..|--- .... ....|--- .... ....|--- .... ....
....|..|--- .... ....|--- .... ....|--- .... ....
....|..|--- .... ....|--- .... ....|--- .... ....
....|..|--- .... ....|--- .... ....|--- .... ....
....|..|--- .... ....|--- .... ....|--- .... ....
....|..|--- .... ....|G-4 ...A ....|--- .... ....
....|..|--- .... ....|--- .... ....|--- .... ....
....|..|--- .... ....|--- .... ....|--- .... ....
....|..|--- .... ....|--- .... ....|--- .... ....
....|..|--- .... ....|G-4 ...A ....|--- .... ....
....|..|--- .... ....|--- .... ....|--- .... ....
....|..|--- .... ....|G-4 ...F ....|--- .... ....
....|..|--- .... ....|--- .... ....|R-- .... ....
....|..|--- .... ....|--- .... ....|--- .... ....
....|..|--- .... ....|--- .... ....|--- .... ....
....|..|--- .... ....|G-4 ...F ....|--- .... ....
....|..|--- .... ....|--- .... ....|--- .... ....
....|..|--- .... ....|--- .... ....|--- .... ....
....|..|--- .... ....|--- .... ....|--- .... ....
....|..|--- .... ....|G-4 ...F ....|--- .... ....
....|..|--- .... ....|--- .... ....|--- .... ....
....|..|--- .... ....|--- .... ....|--- .... ....
....|..|--- .... ....|--- .... ....|--- .... ....
....|..|--- .... ....|G-4 ...F ....|--- .... ....
....|..|--- .... ....|--- .... ....|--- .... ....
....|..|--- .... ....|--- .... ....|--- .... ....
....|..|--- .... ....|--- .... ....|--- .... ....
....|..|--- .... ....|G-4 ...7 ....|--- .... ....
....|..|--- .... ....|--- .... ....|--- .... ....
....|..|--- .... ....|G-4 ...A ....|--- .... ....
....|..|--- .... ....|--- .... ....|R-- .... ....
....|..|--- .... ....|--- .... ....|--- .... ....
....|..|--- .... ....|--- .... ....|--- .... ....
....|..|--- .... ....|G-4 ...A ....|--- .... ....
....|..|--- .... ....|--- .... ....|--- .... ....
....|..|--- .... ....|--- .... ....|--- .... ....
....|..|--- .... ....|--- .... ....|--- .... ....
....|..|--- .... ....|G-4 ...A ....|--- .... ....
....|..|--- .... ....|--- .... ....|--- .... ....
....|..|--- .... ....|G-4 ...F ....|--- .... ....
....|..|--- .... ....|--- .... ....|--- .... ....
....|..|--- .... ....|G-4 ...A ....|--- .... ....
....|..|--- .... ....|--- .... ....|--- .... ....
....|..|--- .... ....|A-4 ...F ....|--- .... ....
....|..|--- .... ....|--- .... ....|--- .... ....
....|..|--- .... ....|--- .... ....|--- .... ....
....|..|--- .... ....|--- .... ....|--- .... ....

[Pattern44]
....|..|--- .... ....|G-4 ...7 ....|--- .... ....
....|..|--- .... ....|--- .... ....|--- .... ....
....|..|--- .... ....|--- .... ....|--- .... ....
....|..|--- .... ....|--- .... ....|--- .... ....
....|..|--- .... ....|G-4 ...7 ....|--- .... ....
....|..|--- .... ....|--- .... ....|--- .... ....
....|..|--- .... ....|--- .... ....|--- .... ....
....|..|--- .... ....|--- .... ....|--- .... ....
....|..|--- .... ....|G-4 ...7 ....|--- .... ....
....|..|--- .... ....|--- .... ....|--- .... ....
....|..|--- .... ....|G-4 ...A ....|--- .... ....
....|..|--- .... ....|--- .... ....|--- .... ....
....|..|--- .... ....|G-4 ...7 ....|--- .... ....
....|..|--- .... ....|--- .... ....|--- .... ....
....|..|--- .... ....|A-4 ...A ....|--- .... ....
....|..|--- .... ....|--- .... ....|--- .... ....
....|..|--- .... ....|--- .... ....|--- .... ....
....|..|--- .... ....|--- .... ....|--- .... ....
....|..|--- .... ....|--- .... ....|--- .... ....
....|..|--- .... ....|--- .... ....|--- .... ....
....|..|--- .... ....|F-5 ...F ....|--- .... ....
....|..|--- .... ....|--- .... ....|--- .... ....
....|..|--- .... ....|--- .... ....|--- .... ....
....|..|--- .... ....|--- .... ....|--- .... ....
....|..|--- .... ....|R-- .... ....|--- .... ....
....|..|--- .... ....|--- .... ....|--- .... ....
....|..|--- .... ....|--- .... ....|--- .... ....
....|..|--- .... ....|--- .... ....|--- .... ....
....|..|--- .... ....|G-4 ...7 ....|--- .... ....
....|..|--- .... ....|--- .... ....|--- .... ....
....|..|--- .... ....|--- .... ....|--- .... ....
....|..|--- .... ....|--- .... ....|--- .... ....
....|..|--- .... ....|A-4 ...7 ....|--- .... ....
....|..|--- .... ....|--- .... ....|--- .... ....
....|..|--- .... ....|--- .... ....|--- .... ....
....|..|--- .... ....|--- .... ....|--- .... ....
....|..|--- .... ....|--- .... ....|--- .... ....
....|..|--- .... ....|--- .... ....|--- .... ....
....|..|--- .... ....|F-5 ...A ....|--- .... ....
....|..|--- .... ....|--- .... ....|--- .... ....
....|..|--- .... ....|--- .... ....|--- .... ....
....|..|--- .... ....|--- .... ....|--- .... ....
....|..|--- .... ....|R-- .... ....|--- .... ....
....|..|--- .... ....|--- .... ....|--- .... ....
....|..|--- .... ....|--- .... ....|--- .... ....
....|..|--- .... ....|--- .... ....|--- .... ....
....|..|--- .... ....|--- .... ....|--- .... ....
....|..|--- .... ....|--- .... ....|--- .... ....
....|..|--- .... ....|--- .... ....|--- .... ....
....|..|--- .... ....|--- .... ....|--- .... ....
....|..|--- .... ....|--- .... ....|--- .... ....
....|..|--- .... ....|--- .... ....|--- .... ....
....|..|--- .... ....|--- .... ....|--- .... ....
....|..|--- .... ....|--- .... ....|--- .... ....
....|..|--- .... ....|--- .... ....|--- .... ....
....|..|--- .... ....|--- .... ....|--- .... ....
....|..|--- .... ....|F-5 ...7 ....|--- .... ....
....|..|--- .... ....|--- .... ....|--- .... ....
....|..|--- .... ....|--- .... ....|--- .... ....
....|..|--- .... ....|--- .... ....|--- .... ....
....|..|--- .... ....|R-- .... ....|--- .... ....
....|..|--- .... ....|--- .... ....|--- .... ....
....|..|--- .... ....|--- .... ....|--- .... ....
....|..|--- .... ....|--- .... ....|--- .... ....
....|..|--- .... ....|--- .... ....|--- .... ....
....|..|--- .... ....|--- .... ....|--- .... ....
....|..|--- .... ....|--- .... ....|--- .... ....
....|..|--- .... ....|--- .... ....|--- .... ....
....|..|--- .... ....|--- .... ....|--- .... ....
....|..|--- .... ....|--- .... ....|--- .... ....
....|..|--- .... ....|--- .... ....|--- .... ....
....|..|--- .... ....|--- .... ....|--- .... ....
....|..|--- .... ....|--- .... ....|--- .... ....
....|..|--- .... ....|--- .... ....|--- .... ....
....|..|--- .... ....|--- .... ....|--- .... ....
....|..|--- .... ....|--- .... ....|--- .... ....
....|..|--- .... ....|--- .... ....|--- .... ....
....|..|--- .... ....|--- .... ....|--- .... ....
....|..|--- .... ....|--- .... ....|--- .... ....
....|..|--- .... ....|--- .... ....|--- .... ....
....|..|--- .... ....|--- .... ....|--- .... ....
....|..|--- .... ....|--- .... ....|--- .... ....
....|..|--- .... ....|--- .... ....|--- .... ....
....|..|--- .... ....|--- .... ....|--- .... ....
....|..|--- .... ....|--- .... ....|--- .... ....
....|..|--- .... ....|--- .... ....|--- .... ....
....|..|--- .... ....|--- .... ....|--- .... ....
....|..|--- .... ....|--- .... ....|--- .... ....
....|..|--- .... ....|--- .... ....|--- .... ....
....|..|--- .... ....|--- .... ....|--- .... ....
....|..|--- .... ....|--- .... ....|--- .... ....
....|..|--- .... ....|--- .... ....|--- .... ....
....|..|--- .... ....|--- .... ....|--- .... ....
....|..|--- .... ....|--- .... ....|--- .... ....
....|..|--- .... ....|--- .... ....|--- .... ....
....|..|--- .... ....|--- .... ....|--- .... ....

[Pattern45]
....|..|--- .... ....|--- .... ....|--- .... ....
....|..|--- .... ....|--- .... ....|--- .... ....
....|..|--- .... ....|--- .... ....|--- .... ....
....|..|--- .... ....|--- .... ....|--- .... ....
....|..|--- .... ....|--- .... ....|--- .... ....
....|..|--- .... ....|--- .... ....|--- .... ....
....|..|--- .... ....|--- .... ....|--- .... ....
....|..|--- .... ....|--- .... ....|--- .... ....
....|..|--- .... ....|--- .... ....|--- .... ....
....|..|--- .... ....|--- .... ....|--- .... ....
....|..|--- .... ....|--- .... ....|--- .... ....
....|..|--- .... ....|--- .... ....|--- .... ....
....|..|--- .... ....|--- .... ....|--- .... ....
....|..|--- .... ....|--- .... ....|--- .... ....
....|..|--- .... ....|--- .... ....|--- .... ....
....|..|--- .... ....|--- .... ....|--- .... ....
....|..|--- .... ....|--- .... ....|--- .... ....
....|..|--- .... ....|--- .... ....|--- .... ....
....|..|--- .... ....|--- .... ....|--- .... ....
....|..|--- .... ....|--- .... ....|--- .... ....
....|..|--- .... ....|--- .... ....|--- .... ....
....|..|--- .... ....|--- .... ....|--- .... ....
....|..|--- .... ....|--- .... ....|--- .... ....
....|..|--- .... ....|--- .... ....|--- .... ....
....|..|--- .... ....|--- .... ....|--- .... ....
....|..|--- .... ....|--- .... ....|--- .... ....
....|..|--- .... ....|--- .... ....|--- .... ....
....|..|--- .... ....|--- .... ....|--- .... ....
....|..|--- .... ....|--- .... ....|--- .... ....
....|..|--- .... ....|--- .... ....|--- .... ....
....|..|--- .... ....|--- .... ....|--- .... ....
....|..|--- .... ....|--- .... ....|--- .... ....
....|..|--- .... ....|--- .... ....|--- .... ....
....|..|--- .... ....|--- .... ....|--- .... ....
....|..|--- .... ....|--- .... ....|--- .... ....
....|..|--- .... ....|--- .... ....|--- .... ....
....|..|--- .... ....|--- .... ....|--- .... ....
....|..|--- .... ....|--- .... ....|--- .... ....
....|..|--- .... ....|--- .... ....|--- .... ....
....|..|--- .... ....|--- .... ....|--- .... ....
....|..|--- .... ....|--- .... ....|--- .... ....
....|..|--- .... ....|--- .... ....|--- .... ....
....|..|--- .... ....|--- .... ....|--- .... ....
....|..|--- .... ....|--- .... ....|--- .... ....
....|..|--- .... ....|--- .... ....|--- .... ....
....|..|--- .... ....|--- .... ....|--- .... ....
....|..|--- .... ....|--- .... ....|--- .... ....
....|..|--- .... ....|--- .... ....|--- .... ....
....|..|R-- .... ....|--- .... ....|--- .... ....
....|..|--- .... ....|--- .... ....|--- .... ....
....|..|--- .... ....|--- .... ....|--- .... ....
....|..|--- .... ....|--- .... ....|--- .... ....
....|..|--- .... ....|--- .... ....|--- .... ....
....|..|--- .... ....|--- .... ....|--- .... ....
....|..|--- .... ....|--- .... ....|--- .... ....
....|..|--- .... ....|--- .... ....|--- .... ....
....|..|--- .... ....|--- .... ....|--- .... ....
....|..|--- .... ....|--- .... ....|--- .... ....
....|..|--- .... ....|--- .... ....|--- .... ....
....|..|--- .... ....|--- .... ....|--- .... ....
....|..|--- .... ....|--- .... ....|--- .... ....
....|..|--- .... ....|--- .... ....|--- .... ....
....|..|--- .... ....|--- .... ....|--- .... ....
....|..|--- .... ....|--- .... ....|--- .... ....
....|..|--- .... ....|--- .... ....|--- .... ....
....|..|--- .... ....|--- .... ....|--- .... ....
....|..|R-- .... ....|--- .... ....|--- .... ....
....|..|--- .... ....|--- .... ....|--- .... ....
....|..|--- .... ....|--- .... ....|--- .... ....
....|..|--- .... ....|--- .... ....|--- .... ....
....|..|--- .... ....|--- .... ....|--- .... ....
....|..|--- .... ....|--- .... ....|--- .... ....
....|..|--- .... ....|--- .... ....|--- .... ....
....|..|--- .... ....|--- .... ....|--- .... ....
....|..|--- .... ....|--- .... ....|--- .... ....
....|..|--- .... ....|--- .... ....|--- .... ....
....|..|--- .... ....|--- .... ....|--- .... ....
....|..|--- .... ....|--- .... ....|--- .... ....
....|..|--- .... ....|--- .... ....|--- .... ....
....|..|--- .... ....|--- .... ....|--- .... ....
....|..|--- .... ....|--- .... ....|--- .... ....
....|..|--- .... ....|--- .... ....|--- .... ....
....|..|--- .... ....|--- .... ....|--- .... ....
....|..|--- .... ....|--- .... ....|--- .... ....
