[Module]
VortexTrackerII=0
Version=3.5
Title=mika-relax_take_it_easyTS.mid
Author=oisee ^ 4d 29.05.2010
NoteTable=4
ChipFreq=1750000
Speed=4
PlayOrder=L0,1,2,3,2,5,6,7,8,9,10,11,12,13,14,15,16,17,18,19,20,21,22,23,24,25,26,27,28,29,30,31,32,33,30,31,32,33,30,31,32,41,0,0,0,45,30,31,32,33,30,31,32,53,54,55,56,57


[Ornament1]
L0,0,3,3,7,7

[Ornament2]
L0,0,3,3,8,8

[Ornament3]
L0,0,4,4,7,7

[Ornament4]
L0,0,4,4,9,9

[Ornament5]
L0,0,9,9

[Ornament6]
L0,0,7,7

[Ornament7]
L0,0,5,5

[Ornament8]
L0,0,5,5,8,8

[Ornament9]
L0,0,3,3,7,7,10,10

[Ornament10]
L0,0,10,10

[Ornament11]
L0,0,4,4

[Ornament12]
L0,0,5,5,7,7

[Ornament13]
L0,0,3,3

[Ornament14]
L0,0,2,2,7,7

[Ornament15]
L0,0,2,2,4,4,6,6,9,9


[Sample1]
TnE +000_ +00_ F_
TnE +000_ +00_ F_
TnE +000_ +00_ F_
TnE +000_ +00_ D_
TnE +000_ +00_ B_
TnE +000_ +00_ B_ L

[Sample2]
TnE +000_ +00_ F_ L

[Sample3]
TnE +001_ +00_ F_
TnE +002_ +00_ F_
TnE +001_ +00_ E_
TnE +002_ +00_ E_
TnE +000_ +00_ E_ L
TnE -001_ +00_ E_
TnE -002_ +00_ E_
TnE -001_ +00_ E_
TnE +000_ +00_ E_
TnE +001_ +00_ E_
TnE +002_ +00_ E_
TnE +001_ +00_ E_

[Sample4]
TnE +002_ +00_ D_
TnE +002_ +00_ D_
TnE +002_ +00_ C_
TnE +002_ +00_ B_
TnE +002_ +00_ A_ L
TnE +002_ +00_ A_
TnE +002_ +00_ A_
TnE +002_ +00_ A_
TnE +002_ +00_ A_
TnE +002_ +00_ A_
TnE +002_ +00_ A_
TnE +002_ +00_ A_

[Sample5]
TnE +000_ +00_ F_
TnE +000_ +00_ F_
tne +000_ +00_ 0_ L

[Sample6]
TnE -001_ +00_ F_ L

[Sample7]
TnE +006_ +00_ F_ L

[Sample8]
tNe +000_ +00_ F_
tNe +000_ +00_ B_
tNe +000_ +00_ 7_
tNe +000_ +00_ 6- L

[Sample9]
TnE +080_ +00_ F_
TnE +100_ +00_ E_
TnE +180_ +00_ E_
TnE +200_ +00_ E_
TnE +240_ +00_ D_
TnE +280_ +00_ D_
TnE +2C0_ +00_ D_
TnE +300_ +00_ C_
TnE +300_ +00_ C_
TnE +340_ +00_ C_
TnE +340_ +00_ C_
TnE +380_ +00_ B_
TnE +380_ +00_ B_
TnE +400_ +00_ B_
TnE +400_ +00_ B_
TnE +480_ +00_ A_
TnE +500_ +00_ 9_
TnE +580_ +00_ 7_
TnE +600_ +00_ 4_
TnE +680_ +00_ 1_
TnE +000_ +00_ 0_ L

[Sample10]
Tne +1C0_ +00_ F_
Tne +280_ +00_ E_
Tne +380_ +00_ C_
Tne +440_ +00_ A_
Tne +480_ +00_ 8_
TnE +000_ +00_ 0_ L

[Sample11]
TNe +200_ -0A_ F_
tNe +000_ +0F_ A_
TNe +200_ -07_ E_
tNe +000_ +0E_ B- L

[Sample12]
TNE +0A0_ +05_ F_
TNE +140_ +02_ D_
TNE +140_ +02_ B_
TNE +100_ +00_ A_ L
TNE +140_ +00_ A_
TNE +200_ +00_ A-

[Sample13]
Tne +200_ +00_ F_
Tne +2C0_ +00_ F_
Tne +380_ +00_ E_
Tne +500_ +00_ C_
Tne +520_ +00_ 9_
tne +000_ +00_ 0_ L

[Sample14]
TNE -100_ +00_ F_
TNE -100_ +00_ D_
TNE -100_ +00_ A_
TNE -100_ +00_ 5_
tne +000_ +00_ 0_ L

[Sample15]
TNE -100_ +00_ 5_
TNE -100_ +00_ 8_
TNE -100_ +00_ B_
TNE -100_ +00_ F_
TNe -100_ +00_ 9- L

[Sample16]
TnE +000_ +00_ C_
TnE +000_ +00_ E_
TnE +000_ +00_ F_
TnE +000_ +00_ F_
TnE +000_ +00_ E_
TnE +000_ +00_ D_
TnE +000_ +00_ C_
TnE +000_ +00_ C_ L
TnE +001_ +00_ C_
TnE +002_ +00_ C_
TnE +003_ +00_ C_
TnE +001_ +00_ C_
TnE +000_ +00_ C_
TnE -001_ +00_ C_
TnE -002_ +00_ C_
TnE -003_ +00_ C_
TnE -001_ +00_ C_
TnE +000_ +00_ C_
TnE +000_ +00_ C_

[Sample17]
Tne +1C0_ +00_ F_
Tne +280_ +00_ D_
Tne +380_ +00_ 7_
TNE +000_ +00_ 0_ L

[Sample18]
tnE +000_ +00_ 0_ L

[Sample19]
TNe +000_ +00_ F_
TNe +000_ +00_ C_
TNe +000_ +00_ 6_
TNe +000_ +01_ A- L

[Sample20]
TNE +140_ +00_ F_
tNE +000_ +00_ B- L

[Sample21]
tNE +000_ +00_ D_
tNE +000_ +00_ 8_
tNE +000_ +00_ 1_
TNE +000_ +00_ 0_ L

[Sample22]
TnE +000_ +00_ D_ L
TnE +000_ +00_ D_
tne +000_ +00_ 9_
tne +000_ +00_ 9_
TnE +000_ +00_ D_
TnE +000_ +00_ D_
tne +000_ +00_ 9_
tne +000_ +00_ 9_
TnE +000_ +00_ D_
TnE +000_ +00_ D_
TnE +000_ +00_ D_
TnE +000_ +00_ D_
TnE +000_ +00_ D_
TnE +000_ +00_ D_
tne +000_ +00_ 9_
tne +000_ +00_ 9_

[Sample23]
TnE +000_ +00_ F_ L
TnE +010_ +01_ F_
TnE +010_ +01_ F_
TnE +010_ +01_ F_
TnE +010_ +01_ F_
TnE +000_ +00_ F_
TnE +000_ +00_ F_
TnE -010_ -01_ F_
TnE -010_ -01_ F_
TnE -010_ -01_ F_
TnE -010_ -01_ F_
TnE +000_ +00_ F_

[Sample24]
TNe +000_ -01_ C_
TNe +000_ -01_ D_
TNe +000_ -01_ E_
TNe +000_ -01_ F_
TNe +000_ -01_ F_
TNe +000_ -01_ F_
TNe +000_ -01_ F_
TNe +000_ -01_ F_
TNe +000_ -01_ E_
TNe +000_ -01_ E_
TNe +000_ -01_ E_
TNe +000_ -01_ F_
TNe +000_ -01_ F_ L

[Sample25]
TNE +000_ +00_ F_
TNE +000_ +00_ F_ L
TNE +000_ +00_ F_
TNE +000_ +00_ F_
TNE +000_ +00_ F-

[Sample26]
tne +000_ +00_ 0_ L

[Sample27]
tne +000_ +00_ 0_ L

[Sample28]
tne +000_ +00_ 0_ L

[Sample29]
tne +000_ +00_ 0_ L

[Sample30]
TNE +000_ +00_ C+ L

[Sample31]
TNe +1C0_ +00_ F_
Tne +280_ +00_ E_
Tne +380_ +00_ C_
Tne +440_ +00_ A_
Tne +480_ +00_ 8_
TnE +000_ +00_ 0_ L

[Pattern0]
....|..|--- .... ....|--- .... ....|--- .... ....
....|..|--- .... ....|--- .... ....|--- .... ....
....|..|--- .... ....|--- .... ....|--- .... ....
....|..|--- .... ....|--- .... ....|--- .... ....
....|..|--- .... ....|--- .... ....|--- .... ....
....|..|--- .... ....|--- .... ....|--- .... ....
....|..|--- .... ....|--- .... ....|--- .... ....
....|..|--- .... ....|--- .... ....|--- .... ....
....|..|--- .... ....|--- .... ....|--- .... ....
....|..|--- .... ....|--- .... ....|--- .... ....
....|..|--- .... ....|--- .... ....|--- .... ....
....|..|--- .... ....|--- .... ....|--- .... ....
....|..|--- .... ....|--- .... ....|--- .... ....
....|..|--- .... ....|--- .... ....|--- .... ....
....|..|--- .... ....|--- .... ....|--- .... ....
....|..|--- .... ....|--- .... ....|--- .... ....
....|..|--- .... ....|--- .... ....|--- .... ....
....|..|--- .... ....|--- .... ....|--- .... ....
....|..|--- .... ....|--- .... ....|--- .... ....
....|..|--- .... ....|--- .... ....|--- .... ....
....|..|--- .... ....|--- .... ....|--- .... ....
....|..|--- .... ....|--- .... ....|--- .... ....
....|..|--- .... ....|--- .... ....|--- .... ....
....|..|--- .... ....|--- .... ....|--- .... ....
....|..|--- .... ....|--- .... ....|--- .... ....
....|..|--- .... ....|--- .... ....|--- .... ....
....|..|--- .... ....|--- .... ....|--- .... ....
....|..|--- .... ....|--- .... ....|--- .... ....
....|..|--- .... ....|--- .... ....|--- .... ....
....|..|--- .... ....|--- .... ....|--- .... ....
....|..|--- .... ....|--- .... ....|--- .... ....
....|..|--- .... ....|--- .... ....|--- .... ....
....|..|--- .... ....|--- .... ....|--- .... ....
....|..|--- .... ....|--- .... ....|--- .... ....
....|..|--- .... ....|--- .... ....|--- .... ....
....|..|--- .... ....|--- .... ....|--- .... ....
....|..|--- .... ....|--- .... ....|--- .... ....
....|..|--- .... ....|--- .... ....|--- .... ....
....|..|--- .... ....|--- .... ....|--- .... ....
....|..|--- .... ....|--- .... ....|--- .... ....
....|..|--- .... ....|--- .... ....|--- .... ....
....|..|--- .... ....|--- .... ....|--- .... ....
....|..|--- .... ....|--- .... ....|--- .... ....
....|..|--- .... ....|--- .... ....|--- .... ....
....|..|--- .... ....|--- .... ....|--- .... ....
....|..|--- .... ....|--- .... ....|--- .... ....
....|..|--- .... ....|--- .... ....|--- .... ....
....|..|--- .... ....|--- .... ....|--- .... ....
....|..|--- .... ....|--- .... ....|--- .... ....
....|..|--- .... ....|--- .... ....|--- .... ....
....|..|--- .... ....|--- .... ....|--- .... ....
....|..|--- .... ....|--- .... ....|--- .... ....
....|..|--- .... ....|--- .... ....|--- .... ....
....|..|--- .... ....|--- .... ....|--- .... ....
....|..|--- .... ....|--- .... ....|--- .... ....
....|..|--- .... ....|--- .... ....|--- .... ....
....|..|--- .... ....|--- .... ....|--- .... ....
....|..|--- .... ....|--- .... ....|--- .... ....
....|..|--- .... ....|--- .... ....|--- .... ....
....|..|--- .... ....|--- .... ....|--- .... ....
....|..|--- .... ....|--- .... ....|--- .... ....
....|..|--- .... ....|--- .... ....|--- .... ....
....|..|--- .... ....|--- .... ....|--- .... ....
....|..|--- .... ....|--- .... ....|--- .... ....

[Pattern1]
....|..|F#4 .F1F ....|--- .... ....|--- .... ....
....|..|--- .... ....|--- .... ....|--- .... ....
....|..|R-- .... ....|--- .... ....|--- .... ....
....|..|--- .... ....|--- .... ....|--- .... ....
....|..|F#4 .F1F ....|--- .... ....|--- .... ....
....|..|F#5 .F.F ....|--- .... ....|--- .... ....
....|..|R-- .... ....|--- .... ....|--- .... ....
....|..|--- .... ....|--- .... ....|--- .... ....
....|..|F#4 .F1F ....|--- .... ....|--- .... ....
....|..|C#6 .F.F ....|--- .... ....|--- .... ....
....|..|R-- .... ....|--- .... ....|--- .... ....
....|..|--- .... ....|--- .... ....|--- .... ....
....|..|F#4 .F1F ....|--- .... ....|--- .... ....
....|..|R-- .... ....|--- .... ....|--- .... ....
....|..|R-- .... ....|--- .... ....|--- .... ....
....|..|--- .... ....|--- .... ....|--- .... ....
....|..|F#4 .F1F ....|--- .... ....|--- .... ....
....|..|R-- .... ....|--- .... ....|--- .... ....
....|..|R-- .... ....|--- .... ....|--- .... ....
....|..|--- .... ....|--- .... ....|--- .... ....
....|..|F#4 .F1F ....|--- .... ....|--- .... ....
....|..|R-- .... ....|--- .... ....|--- .... ....
....|..|R-- .... ....|--- .... ....|--- .... ....
....|..|--- .... ....|--- .... ....|--- .... ....
....|..|F#4 .F1F ....|--- .... ....|--- .... ....
....|..|C#6 .F.F ....|--- .... ....|--- .... ....
....|..|R-- .... ....|--- .... ....|--- .... ....
....|..|--- .... ....|--- .... ....|--- .... ....
....|..|F#4 .F1F ....|--- .... ....|--- .... ....
....|..|F#5 .F.7 ....|--- .... ....|--- .... ....
....|..|R-- .... ....|--- .... ....|--- .... ....
....|..|--- .... ....|--- .... ....|--- .... ....
....|..|F#4 .F2F ....|--- .... ....|--- .... ....
....|..|C#6 .F.7 ....|--- .... ....|--- .... ....
....|..|R-- .... ....|--- .... ....|--- .... ....
....|..|--- .... ....|--- .... ....|--- .... ....
....|..|F#4 .F2F ....|--- .... ....|--- .... ....
....|..|R-- .... ....|--- .... ....|--- .... ....
....|..|R-- .... ....|--- .... ....|--- .... ....
....|..|--- .... ....|--- .... ....|--- .... ....
....|..|F#4 .F2F ....|--- .... ....|--- .... ....
....|..|R-- .... ....|--- .... ....|--- .... ....
....|..|--- .... ....|--- .... ....|--- .... ....
....|..|--- .... ....|--- .... ....|--- .... ....
....|..|F#4 .F2F ....|--- .... ....|--- .... ....
....|..|R-- .... ....|--- .... ....|--- .... ....
....|..|--- .... ....|--- .... ....|--- .... ....
....|..|--- .... ....|--- .... ....|--- .... ....
....|..|F#4 .F1F ....|--- .... ....|--- .... ....
....|..|C#6 .F.7 ....|--- .... ....|--- .... ....
....|..|R-- .... ....|--- .... ....|--- .... ....
....|..|R-- .... ....|--- .... ....|--- .... ....
....|..|F#4 .F1F ....|--- .... ....|--- .... ....
....|..|R-- .... ....|--- .... ....|--- .... ....
....|..|--- .... ....|--- .... ....|--- .... ....
....|..|--- .... ....|--- .... ....|--- .... ....
....|..|F#4 .F1F ....|--- .... ....|--- .... ....
....|..|R-- .... ....|--- .... ....|--- .... ....
....|..|--- .... ....|--- .... ....|--- .... ....
....|..|--- .... ....|--- .... ....|--- .... ....
....|..|F#4 .F1F ....|--- .... ....|--- .... ....
....|..|R-- .... ....|--- .... ....|--- .... ....
....|..|--- .... ....|--- .... ....|--- .... ....
....|..|R-- .... ....|--- .... ....|--- .... ....

[Pattern2]
....|..|E-4 .F3F ....|--- .... ....|--- .... ....
....|..|R-- .... ....|--- .... ....|--- .... ....
....|..|R-- .... ....|--- .... ....|--- .... ....
....|..|--- .... ....|--- .... ....|--- .... ....
....|..|E-4 .F3F ....|--- .... ....|--- .... ....
....|..|R-- .... ....|--- .... ....|--- .... ....
....|..|--- .... ....|--- .... ....|--- .... ....
....|..|--- .... ....|--- .... ....|--- .... ....
....|..|E-4 .F3F ....|--- .... ....|--- .... ....
....|..|R-- .... ....|--- .... ....|--- .... ....
....|..|--- .... ....|--- .... ....|--- .... ....
....|..|R-- .... ....|--- .... ....|--- .... ....
....|..|E-4 .F3F ....|--- .... ....|--- .... ....
....|..|E-5 .F.F ....|--- .... ....|--- .... ....
....|..|R-- .... ....|--- .... ....|--- .... ....
....|..|--- .... ....|--- .... ....|--- .... ....
....|..|E-4 .F3F ....|--- .... ....|--- .... ....
....|..|R-- .... ....|--- .... ....|--- .... ....
....|..|--- .... ....|--- .... ....|--- .... ....
....|..|--- .... ....|--- .... ....|--- .... ....
....|..|E-4 .F3F ....|--- .... ....|--- .... ....
....|..|R-- .... ....|--- .... ....|--- .... ....
....|..|--- .... ....|--- .... ....|--- .... ....
....|..|--- .... ....|--- .... ....|--- .... ....
....|..|E-4 .F3F ....|--- .... ....|--- .... ....
....|..|R-- .... ....|--- .... ....|--- .... ....
....|..|R-- .... ....|--- .... ....|--- .... ....
....|..|--- .... ....|--- .... ....|--- .... ....
....|..|E-4 .F3F ....|--- .... ....|--- .... ....
....|..|R-- .... ....|--- .... ....|--- .... ....
....|..|--- .... ....|--- .... ....|--- .... ....
....|..|--- .... ....|--- .... ....|--- .... ....
....|..|E-4 .F4F ....|--- .... ....|--- .... ....
....|..|E-4 .F5F ....|--- .... ....|--- .... ....
....|..|R-- .... ....|--- .... ....|--- .... ....
....|..|--- .... ....|--- .... ....|--- .... ....
....|..|E-4 .F4F ....|--- .... ....|--- .... ....
....|..|E-5 .F.7 ....|--- .... ....|--- .... ....
....|..|R-- .... ....|--- .... ....|--- .... ....
....|..|--- .... ....|--- .... ....|--- .... ....
....|..|E-4 .F4F ....|--- .... ....|--- .... ....
....|..|R-- .... ....|--- .... ....|--- .... ....
....|..|--- .... ....|--- .... ....|--- .... ....
....|..|--- .... ....|--- .... ....|--- .... ....
....|..|E-4 .F4F ....|--- .... ....|--- .... ....
....|..|R-- .... ....|--- .... ....|--- .... ....
....|..|R-- .... ....|--- .... ....|--- .... ....
....|..|--- .... ....|--- .... ....|--- .... ....
....|..|E-4 .F3F ....|--- .... ....|--- .... ....
....|..|R-- .... ....|--- .... ....|--- .... ....
....|..|--- .... ....|--- .... ....|--- .... ....
....|..|R-- .... ....|--- .... ....|--- .... ....
....|..|E-4 .F3F ....|--- .... ....|--- .... ....
....|..|R-- .... ....|--- .... ....|--- .... ....
....|..|--- .... ....|--- .... ....|--- .... ....
....|..|--- .... ....|--- .... ....|--- .... ....
....|..|E-4 .F3F ....|--- .... ....|--- .... ....
....|..|E-4 .F57 ....|--- .... ....|--- .... ....
....|..|R-- .... ....|--- .... ....|--- .... ....
....|..|--- .... ....|--- .... ....|--- .... ....
....|..|E-4 .F3F ....|--- .... ....|--- .... ....
....|..|B-5 .F.F ....|--- .... ....|--- .... ....
....|..|R-- .... ....|--- .... ....|--- .... ....
....|..|R-- .... ....|--- .... ....|--- .... ....

[Pattern3]
....|..|F#4 .F1F ....|--- .... ....|--- .... ....
....|..|R-- .... ....|--- .... ....|--- .... ....
....|..|R-- .... ....|--- .... ....|--- .... ....
....|..|--- .... ....|--- .... ....|--- .... ....
....|..|F#4 .F1F ....|--- .... ....|--- .... ....
....|..|F#5 .F.F ....|--- .... ....|--- .... ....
....|..|R-- .... ....|--- .... ....|--- .... ....
....|..|--- .... ....|--- .... ....|--- .... ....
....|..|F#4 .F1F ....|--- .... ....|--- .... ....
....|..|C#6 .F.F ....|--- .... ....|--- .... ....
....|..|R-- .... ....|--- .... ....|--- .... ....
....|..|R-- .... ....|--- .... ....|--- .... ....
....|..|F#4 .F1F ....|--- .... ....|--- .... ....
....|..|R-- .... ....|--- .... ....|--- .... ....
....|..|R-- .... ....|--- .... ....|--- .... ....
....|..|--- .... ....|--- .... ....|--- .... ....
....|..|F#4 .F1F ....|--- .... ....|--- .... ....
....|..|R-- .... ....|--- .... ....|--- .... ....
....|..|R-- .... ....|--- .... ....|--- .... ....
....|..|--- .... ....|--- .... ....|--- .... ....
....|..|F#4 .F1F ....|--- .... ....|--- .... ....
....|..|B-5 .F.7 ....|--- .... ....|--- .... ....
....|..|R-- .... ....|--- .... ....|--- .... ....
....|..|--- .... ....|--- .... ....|--- .... ....
....|..|F#4 .F1F ....|--- .... ....|--- .... ....
....|..|C#6 .F.F ....|--- .... ....|--- .... ....
....|..|R-- .... ....|--- .... ....|--- .... ....
....|..|--- .... ....|--- .... ....|--- .... ....
....|..|F#4 .F1F ....|--- .... ....|--- .... ....
....|..|F#5 .F.7 ....|--- .... ....|--- .... ....
....|..|R-- .... ....|--- .... ....|--- .... ....
....|..|--- .... ....|--- .... ....|--- .... ....
....|..|F#4 .F2F ....|--- .... ....|--- .... ....
....|..|C#6 .F.7 ....|--- .... ....|--- .... ....
....|..|R-- .... ....|--- .... ....|--- .... ....
....|..|--- .... ....|--- .... ....|--- .... ....
....|..|F#4 .F2F ....|--- .... ....|--- .... ....
....|..|R-- .... ....|--- .... ....|--- .... ....
....|..|R-- .... ....|--- .... ....|--- .... ....
....|..|--- .... ....|--- .... ....|--- .... ....
....|..|F#4 .F2F ....|--- .... ....|--- .... ....
....|..|R-- .... ....|--- .... ....|--- .... ....
....|..|--- .... ....|--- .... ....|--- .... ....
....|..|--- .... ....|--- .... ....|--- .... ....
....|..|F#4 .F2F ....|--- .... ....|--- .... ....
....|..|R-- .... ....|--- .... ....|--- .... ....
....|..|--- .... ....|--- .... ....|--- .... ....
....|..|--- .... ....|--- .... ....|--- .... ....
....|..|F#4 .F1F ....|--- .... ....|--- .... ....
....|..|C#6 .F.7 ....|--- .... ....|--- .... ....
....|..|R-- .... ....|--- .... ....|--- .... ....
....|..|R-- .... ....|--- .... ....|--- .... ....
....|..|F#4 .F1F ....|--- .... ....|--- .... ....
....|..|R-- .... ....|--- .... ....|--- .... ....
....|..|--- .... ....|--- .... ....|--- .... ....
....|..|--- .... ....|--- .... ....|--- .... ....
....|..|F#4 .F1F ....|--- .... ....|--- .... ....
....|..|R-- .... ....|--- .... ....|--- .... ....
....|..|--- .... ....|--- .... ....|--- .... ....
....|..|--- .... ....|--- .... ....|--- .... ....
....|..|F#4 .F1F ....|--- .... ....|--- .... ....
....|..|R-- .... ....|--- .... ....|--- .... ....
....|..|--- .... ....|--- .... ....|--- .... ....
....|..|R-- .... ....|--- .... ....|--- .... ....

[Pattern5]
....|..|F#4 .F1F ....|F#4 ...F ....|--- .... ....
....|..|R-- .... ....|--- .... ....|--- .... ....
....|..|A-5 .F.F ....|--- .... ....|--- .... ....
....|..|R-- .... ....|--- .... ....|--- .... ....
....|..|F#4 .F1F ....|F#5 ...F ....|--- .... ....
....|..|R-- .... ....|--- .... ....|--- .... ....
....|..|R-- .... ....|--- .... ....|--- .... ....
....|..|--- .... ....|--- .... ....|--- .... ....
....|..|F#4 .F1F ....|--- .... ....|--- .... ....
....|..|C#6 .F.F ....|--- .... ....|--- .... ....
....|..|R-- .... ....|--- .... ....|--- .... ....
....|..|R-- .... ....|--- .... ....|--- .... ....
....|..|F#4 .F1F ....|E-5 ...F ....|--- .... ....
....|..|R-- .... ....|--- .... ....|--- .... ....
....|..|A-5 .F.A ....|--- .... ....|--- .... ....
....|..|R-- .... ....|--- .... ....|--- .... ....
....|..|F#4 .F1F ....|F#5 ...A ....|--- .... ....
....|..|F#4 .F6F ....|--- .... ....|--- .... ....
....|..|R-- .... ....|--- .... ....|--- .... ....
....|..|--- .... ....|--- .... ....|--- .... ....
....|..|F#4 .F1F ....|F#5 ...F ....|--- .... ....
....|..|B-5 .F.7 ....|--- .... ....|--- .... ....
....|..|R-- .... ....|--- .... ....|--- .... ....
....|..|--- .... ....|--- .... ....|--- .... ....
....|..|F#4 .F1F ....|C#5 ...F ....|--- .... ....
....|..|R-- .... ....|--- .... ....|--- .... ....
....|..|A-5 .F.7 ....|--- .... ....|--- .... ....
....|..|R-- .... ....|--- .... ....|--- .... ....
....|..|F#4 .F1F ....|B-4 ...F ....|--- .... ....
....|..|R-- .... ....|--- .... ....|--- .... ....
....|..|R-- .... ....|--- .... ....|--- .... ....
....|..|--- .... ....|--- .... ....|--- .... ....
....|..|F#4 .F2F ....|E-5 ...F ....|--- .... ....
....|..|C#6 .F.7 ....|--- .... ....|--- .... ....
....|..|R-- .... ....|--- .... ....|--- .... ....
....|..|R-- .... ....|--- .... ....|--- .... ....
....|..|F#4 .F2F ....|E-5 ...7 ....|--- .... ....
....|..|R-- .... ....|--- .... ....|--- .... ....
....|..|R-- .... ....|--- .... ....|--- .... ....
....|..|--- .... ....|--- .... ....|--- .... ....
....|..|F#4 .F2F ....|B-4 ...A ....|--- .... ....
....|..|F#4 .F67 ....|--- .... ....|--- .... ....
....|..|R-- .... ....|--- .... ....|--- .... ....
....|..|--- .... ....|--- .... ....|--- .... ....
....|..|F#4 .F2F ....|F#5 ...7 ....|--- .... ....
....|..|A-4 .F7F ....|--- .... ....|--- .... ....
....|..|R-- .... ....|--- .... ....|--- .... ....
....|..|R-- .... ....|--- .... ....|--- .... ....
....|..|F#4 .F2F ....|C#5 ...7 ....|--- .... ....
....|..|R-- .... ....|--- .... ....|--- .... ....
....|..|R-- .... ....|--- .... ....|--- .... ....
....|..|--- .... ....|--- .... ....|--- .... ....
....|..|F#4 .F2F ....|F#5 ...F ....|--- .... ....
....|..|R-- .... ....|--- .... ....|--- .... ....
....|..|--- .... ....|--- .... ....|--- .... ....
....|..|--- .... ....|--- .... ....|--- .... ....
....|..|F#4 .F2F ....|E-5 ...7 ....|--- .... ....
....|..|R-- .... ....|--- .... ....|--- .... ....
....|..|R-- .... ....|--- .... ....|--- .... ....
....|..|R-- .... ....|--- .... ....|--- .... ....
....|..|F#4 .F2F ....|B-4 ...F ....|--- .... ....
....|..|R-- .... ....|--- .... ....|--- .... ....
....|..|--- .... ....|--- .... ....|--- .... ....
....|..|--- .... ....|--- .... ....|--- .... ....

[Pattern6]
....|..|F#4 .F8F ....|F#5 ...A ....|--- .... ....
....|..|R-- .... ....|--- .... ....|--- .... ....
....|..|R-- .... ....|--- .... ....|--- .... ....
....|..|--- .... ....|--- .... ....|--- .... ....
....|..|F#4 .F8F ....|C#5 ...F ....|--- .... ....
....|..|B-5 .F.F ....|--- .... ....|--- .... ....
....|..|R-- .... ....|--- .... ....|--- .... ....
....|..|--- .... ....|--- .... ....|--- .... ....
....|..|F#4 .F8F ....|B-4 ...A ....|--- .... ....
....|..|R-- .... ....|--- .... ....|--- .... ....
....|..|--- .... ....|--- .... ....|--- .... ....
....|..|--- .... ....|--- .... ....|--- .... ....
....|..|F#4 .F8F ....|E-5 ...F ....|--- .... ....
....|..|R-- .... ....|--- .... ....|--- .... ....
....|..|R-- .... ....|--- .... ....|--- .... ....
....|..|--- .... ....|--- .... ....|--- .... ....
....|..|F#4 .F8F ....|C#5 ...A ....|--- .... ....
....|..|R-- .... ....|--- .... ....|--- .... ....
....|..|R-- .... ....|--- .... ....|--- .... ....
....|..|--- .... ....|--- .... ....|--- .... ....
....|..|F#4 .F8F ....|F#5 ...F ....|--- .... ....
....|..|R-- .... ....|--- .... ....|--- .... ....
....|..|--- .... ....|--- .... ....|--- .... ....
....|..|--- .... ....|--- .... ....|--- .... ....
....|..|F#4 .F8F ....|C#5 ...F ....|--- .... ....
....|..|B-5 .F.F ....|--- .... ....|--- .... ....
....|..|R-- .... ....|--- .... ....|--- .... ....
....|..|--- .... ....|--- .... ....|--- .... ....
....|..|F#4 .F8F ....|B-4 ...F ....|--- .... ....
....|..|B-5 .F.7 ....|--- .... ....|--- .... ....
....|..|R-- .... ....|--- .... ....|--- .... ....
....|..|--- .... ....|--- .... ....|--- .... ....
....|..|E-4 .F3F ....|F#5 ...A ....|--- .... ....
....|..|R-- .... ....|--- .... ....|--- .... ....
....|..|R-- .... ....|--- .... ....|--- .... ....
....|..|--- .... ....|--- .... ....|--- .... ....
....|..|E-4 .F3F ....|C#5 ...F ....|--- .... ....
....|..|R-- .... ....|--- .... ....|--- .... ....
....|..|R-- .... ....|--- .... ....|--- .... ....
....|..|--- .... ....|--- .... ....|--- .... ....
....|..|E-4 .F3F ....|B-4 ...A ....|--- .... ....
....|..|R-- .... ....|--- .... ....|--- .... ....
....|..|--- .... ....|--- .... ....|--- .... ....
....|..|--- .... ....|--- .... ....|--- .... ....
....|..|E-4 .F3F ....|E-5 ...F ....|--- .... ....
....|..|E-4 .F6F ....|--- .... ....|--- .... ....
....|..|R-- .... ....|--- .... ....|--- .... ....
....|..|--- .... ....|--- .... ....|--- .... ....
....|..|E-4 .F3F ....|C#5 ...7 ....|--- .... ....
....|..|B-5 .F.7 ....|--- .... ....|--- .... ....
....|..|R-- .... ....|--- .... ....|--- .... ....
....|..|--- .... ....|--- .... ....|--- .... ....
....|..|E-4 .F3F ....|F#5 ...F ....|--- .... ....
....|..|R-- .... ....|--- .... ....|--- .... ....
....|..|--- .... ....|--- .... ....|--- .... ....
....|..|--- .... ....|--- .... ....|--- .... ....
....|..|E-4 .F3F ....|E-5 ...A ....|--- .... ....
....|..|R-- .... ....|--- .... ....|--- .... ....
....|..|R-- .... ....|--- .... ....|--- .... ....
....|..|--- .... ....|--- .... ....|--- .... ....
....|..|E-4 .F3F ....|C#5 ...F ....|--- .... ....
....|..|R-- .... ....|--- .... ....|--- .... ....
....|..|--- .... ....|--- .... ....|--- .... ....
....|..|--- .... ....|--- .... ....|--- .... ....

[Pattern7]
....|..|F#4 .F1F ....|F#5 ...F ....|--- .... ....
....|..|R-- .... ....|--- .... ....|--- .... ....
....|..|A-5 .F.F ....|--- .... ....|--- .... ....
....|..|R-- .... ....|--- .... ....|--- .... ....
....|..|F#4 .F1F ....|F#4 ...F ....|--- .... ....
....|..|E-4 .F67 ....|--- .... ....|--- .... ....
....|..|R-- .... ....|--- .... ....|--- .... ....
....|..|--- .... ....|--- .... ....|--- .... ....
....|..|F#4 .F1F ....|F#5 ...F ....|--- .... ....
....|..|C#6 .F.F ....|--- .... ....|--- .... ....
....|..|R-- .... ....|--- .... ....|--- .... ....
....|..|--- .... ....|--- .... ....|--- .... ....
....|..|F#4 .F1F ....|E-5 ...F ....|--- .... ....
....|..|R-- .... ....|--- .... ....|--- .... ....
....|..|A-5 .F.A ....|--- .... ....|--- .... ....
....|..|R-- .... ....|--- .... ....|--- .... ....
....|..|F#4 .F1F ....|F#4 ...A ....|--- .... ....
....|..|F#4 .F6F ....|--- .... ....|--- .... ....
....|..|R-- .... ....|--- .... ....|--- .... ....
....|..|--- .... ....|--- .... ....|--- .... ....
....|..|F#4 .F1F ....|C#5 ...F ....|--- .... ....
....|..|R-- .... ....|--- .... ....|--- .... ....
....|..|R-- .... ....|--- .... ....|--- .... ....
....|..|--- .... ....|--- .... ....|--- .... ....
....|..|F#4 .F1F ....|F#5 ...7 ....|--- .... ....
....|..|R-- .... ....|--- .... ....|--- .... ....
....|..|A-5 .F.7 ....|--- .... ....|--- .... ....
....|..|R-- .... ....|--- .... ....|--- .... ....
....|..|F#4 .F1F ....|F#4 ...F ....|--- .... ....
....|..|R-- .... ....|--- .... ....|--- .... ....
....|..|R-- .... ....|--- .... ....|--- .... ....
....|..|--- .... ....|--- .... ....|--- .... ....
....|..|F#4 .F2F ....|F#5 ...7 ....|--- .... ....
....|..|C#6 .F.7 ....|--- .... ....|--- .... ....
....|..|R-- .... ....|--- .... ....|--- .... ....
....|..|R-- .... ....|--- .... ....|--- .... ....
....|..|F#4 .F2F ....|C#5 ...F ....|--- .... ....
....|..|R-- .... ....|--- .... ....|--- .... ....
....|..|R-- .... ....|--- .... ....|--- .... ....
....|..|--- .... ....|--- .... ....|--- .... ....
....|..|F#4 .F2F ....|F#4 ...A ....|--- .... ....
....|..|F#4 .F67 ....|--- .... ....|--- .... ....
....|..|R-- .... ....|--- .... ....|--- .... ....
....|..|--- .... ....|--- .... ....|--- .... ....
....|..|F#4 .F2F ....|E-5 ...F ....|--- .... ....
....|..|A-4 .F7F ....|--- .... ....|--- .... ....
....|..|R-- .... ....|--- .... ....|--- .... ....
....|..|R-- .... ....|--- .... ....|--- .... ....
....|..|F#4 .F2F ....|C#5 ...A ....|--- .... ....
....|..|R-- .... ....|--- .... ....|--- .... ....
....|..|R-- .... ....|--- .... ....|--- .... ....
....|..|--- .... ....|--- .... ....|--- .... ....
....|..|F#4 .F2F ....|F#5 ...F ....|--- .... ....
....|..|R-- .... ....|--- .... ....|--- .... ....
....|..|--- .... ....|--- .... ....|--- .... ....
....|..|--- .... ....|--- .... ....|--- .... ....
....|..|F#4 .F2F ....|E-5 ...A ....|--- .... ....
....|..|R-- .... ....|--- .... ....|--- .... ....
....|..|R-- .... ....|--- .... ....|--- .... ....
....|..|R-- .... ....|--- .... ....|--- .... ....
....|..|F#4 .F2F ....|C#5 ...7 ....|--- .... ....
....|..|R-- .... ....|--- .... ....|--- .... ....
....|..|--- .... ....|--- .... ....|--- .... ....
....|..|--- .... ....|--- .... ....|--- .... ....

[Pattern8]
....|..|F#4 .F8F ....|C#5 ...F ....|--- .... ....
....|..|R-- .... ....|--- .... ....|--- .... ....
....|..|R-- .... ....|--- .... ....|--- .... ....
....|..|--- .... ....|--- .... ....|--- .... ....
....|..|F#4 .F8F ....|E-5 ...7 ....|--- .... ....
....|..|B-5 .F.F ....|--- .... ....|--- .... ....
....|..|R-- .... ....|--- .... ....|--- .... ....
....|..|--- .... ....|--- .... ....|--- .... ....
....|..|F#4 .F8F ....|--- .... ....|--- .... ....
....|..|R-- .... ....|--- .... ....|--- .... ....
....|..|--- .... ....|--- .... ....|--- .... ....
....|..|--- .... ....|--- .... ....|--- .... ....
....|..|F#4 .F8F ....|E-5 ...F ....|--- .... ....
....|..|R-- .... ....|--- .... ....|--- .... ....
....|..|R-- .... ....|--- .... ....|--- .... ....
....|..|--- .... ....|--- .... ....|--- .... ....
....|..|F#4 .F8F ....|--- .... ....|--- .... ....
....|..|R-- .... ....|--- .... ....|--- .... ....
....|..|R-- .... ....|--- .... ....|--- .... ....
....|..|--- .... ....|--- .... ....|--- .... ....
....|..|F#4 .F8F ....|F#5 ...F ....|--- .... ....
....|..|R-- .... ....|--- .... ....|--- .... ....
....|..|--- .... ....|--- .... ....|--- .... ....
....|..|--- .... ....|--- .... ....|--- .... ....
....|..|F#4 .F8F ....|C#5 ...7 ....|--- .... ....
....|..|B-5 .F.F ....|--- .... ....|--- .... ....
....|..|R-- .... ....|--- .... ....|--- .... ....
....|..|--- .... ....|--- .... ....|--- .... ....
....|..|F#4 .F8F ....|B-4 ...F ....|--- .... ....
....|..|B-5 .F.7 ....|--- .... ....|--- .... ....
....|..|R-- .... ....|--- .... ....|--- .... ....
....|..|--- .... ....|--- .... ....|--- .... ....
....|..|E-4 .F3F ....|F#5 ...A ....|--- .... ....
....|..|R-- .... ....|--- .... ....|--- .... ....
....|..|R-- .... ....|--- .... ....|--- .... ....
....|..|--- .... ....|--- .... ....|--- .... ....
....|..|E-4 .F3F ....|C#5 ...F ....|--- .... ....
....|..|R-- .... ....|--- .... ....|--- .... ....
....|..|R-- .... ....|--- .... ....|--- .... ....
....|..|--- .... ....|--- .... ....|--- .... ....
....|..|E-4 .F3F ....|B-4 ...A ....|--- .... ....
....|..|R-- .... ....|--- .... ....|--- .... ....
....|..|--- .... ....|--- .... ....|--- .... ....
....|..|--- .... ....|--- .... ....|--- .... ....
....|..|E-4 .F3F ....|E-5 ...F ....|--- .... ....
....|..|E-4 .F6F ....|--- .... ....|--- .... ....
....|..|R-- .... ....|--- .... ....|--- .... ....
....|..|--- .... ....|--- .... ....|--- .... ....
....|..|E-4 .F3F ....|C#5 ...A ....|--- .... ....
....|..|B-5 .F.7 ....|--- .... ....|--- .... ....
....|..|R-- .... ....|--- .... ....|--- .... ....
....|..|--- .... ....|--- .... ....|--- .... ....
....|..|E-4 .F3F ....|F#5 ...F ....|--- .... ....
....|..|R-- .... ....|--- .... ....|--- .... ....
....|..|--- .... ....|--- .... ....|--- .... ....
....|..|--- .... ....|--- .... ....|--- .... ....
....|..|E-4 .F3F ....|E-5 ...A ....|--- .... ....
....|..|R-- .... ....|--- .... ....|--- .... ....
....|..|R-- .... ....|--- .... ....|--- .... ....
....|..|--- .... ....|--- .... ....|--- .... ....
....|..|E-4 .F3F ....|C#5 ...F ....|--- .... ....
....|..|R-- .... ....|--- .... ....|--- .... ....
....|..|--- .... ....|--- .... ....|--- .... ....
....|..|--- .... ....|--- .... ....|--- .... ....

[Pattern9]
....|..|B-4 .F9F ....|R-- .... ....|--- .... ....
....|..|R-- .... ....|--- .... ....|--- .... ....
....|..|B-4 .F.F ....|--- .... ....|--- .... ....
....|..|R-- .... ....|--- .... ....|--- .... ....
....|..|B-4 .F9F ....|A-4 ...F ....|--- .... ....
....|..|B-4 .F6F ....|--- .... ....|--- .... ....
....|..|R-- .... ....|--- .... ....|--- .... ....
....|..|--- .... ....|--- .... ....|--- .... ....
....|..|B-4 .F9F ....|F#5 ...F ....|--- .... ....
....|..|R-- .... ....|--- .... ....|--- .... ....
....|..|--- .... ....|--- .... ....|--- .... ....
....|..|--- .... ....|--- .... ....|--- .... ....
....|..|B-4 .F9F ....|E-5 ...F ....|--- .... ....
....|..|R-- .... ....|--- .... ....|--- .... ....
....|..|B-4 .F.F ....|--- .... ....|--- .... ....
....|..|R-- .... ....|--- .... ....|--- .... ....
....|..|B-4 .F9F ....|A-4 ...A ....|--- .... ....
....|..|B-4 .FAF ....|--- .... ....|--- .... ....
....|..|R-- .... ....|--- .... ....|--- .... ....
....|..|--- .... ....|--- .... ....|--- .... ....
....|..|B-4 .F9F ....|F#5 ...F ....|--- .... ....
....|..|R-- .... ....|--- .... ....|--- .... ....
....|..|--- .... ....|--- .... ....|--- .... ....
....|..|--- .... ....|--- .... ....|--- .... ....
....|..|B-4 .F9F ....|C#5 ...F ....|--- .... ....
....|..|B-4 .FAF ....|--- .... ....|--- .... ....
....|..|B-4 .F.7 ....|--- .... ....|--- .... ....
....|..|R-- .... ....|--- .... ....|--- .... ....
....|..|B-4 .F9F ....|B-4 ...F ....|--- .... ....
....|..|B-4 .F67 ....|--- .... ....|--- .... ....
....|..|R-- .... ....|--- .... ....|--- .... ....
....|..|--- .... ....|--- .... ....|--- .... ....
....|..|E-4 .F3F ....|F#5 ...7 ....|--- .... ....
....|..|R-- .... ....|--- .... ....|--- .... ....
....|..|--- .... ....|--- .... ....|--- .... ....
....|..|R-- .... ....|--- .... ....|--- .... ....
....|..|E-4 .FBF ....|G#4 ...F ....|--- .... ....
....|..|R-- .... ....|--- .... ....|--- .... ....
....|..|B-4 .F.7 ....|--- .... ....|--- .... ....
....|..|R-- .... ....|--- .... ....|--- .... ....
....|..|E-4 .F3F ....|B-4 ...A ....|--- .... ....
....|..|B-4 .FA7 ....|--- .... ....|--- .... ....
....|..|R-- .... ....|--- .... ....|--- .... ....
....|..|--- .... ....|--- .... ....|--- .... ....
....|..|E-4 .FCF ....|E-5 ...F ....|--- .... ....
....|..|R-- .... ....|--- .... ....|--- .... ....
....|..|B-5 .F.F ....|--- .... ....|--- .... ....
....|..|R-- .... ....|--- .... ....|--- .... ....
....|..|E-4 .F3F ....|C#5 ...7 ....|--- .... ....
....|..|E-4 .FBF ....|--- .... ....|--- .... ....
....|..|R-- .... ....|--- .... ....|--- .... ....
....|..|--- .... ....|--- .... ....|--- .... ....
....|..|E-4 .F3F ....|F#5 ...F ....|--- .... ....
....|..|R-- .... ....|--- .... ....|--- .... ....
....|..|R-- .... ....|--- .... ....|--- .... ....
....|..|--- .... ....|--- .... ....|--- .... ....
....|..|E-4 .FCF ....|E-5 ...A ....|--- .... ....
....|..|--- .... ....|--- .... ....|--- .... ....
....|..|B-5 .F.A ....|--- .... ....|--- .... ....
....|..|R-- .... ....|--- .... ....|--- .... ....
....|..|E-4 .F3F ....|G#4 ...F ....|--- .... ....
....|..|R-- .... ....|--- .... ....|--- .... ....
....|..|R-- .... ....|--- .... ....|--- .... ....
....|..|--- .... ....|--- .... ....|--- .... ....

[Pattern10]
....|..|F#4 .F1F ....|B-4 ...F ....|--- .... ....
....|..|R-- .... ....|--- .... ....|--- .... ....
....|..|F#4 .FDF ....|--- .... ....|--- .... ....
....|..|R-- .... ....|--- .... ....|--- .... ....
....|..|F#4 .F1F ....|C#5 ...F ....|--- .... ....
....|..|F#4 .F6F ....|--- .... ....|--- .... ....
....|..|B-5 .F.7 ....|--- .... ....|--- .... ....
....|..|R-- .... ....|--- .... ....|--- .... ....
....|..|F#4 .F1F ....|G#4 ...A ....|--- .... ....
....|..|E-4 .FB7 ....|--- .... ....|--- .... ....
....|..|R-- .... ....|--- .... ....|--- .... ....
....|..|--- .... ....|--- .... ....|--- .... ....
....|..|F#4 .F1F ....|E-5 ...F ....|--- .... ....
....|..|--- .... ....|--- .... ....|--- .... ....
....|..|R-- .... ....|--- .... ....|--- .... ....
....|..|R-- .... ....|--- .... ....|--- .... ....
....|..|E-4 .FC7 ....|C#5 ...A ....|--- .... ....
....|..|R-- .... ....|--- .... ....|--- .... ....
....|..|R-- .... ....|--- .... ....|--- .... ....
....|..|R-- .... ....|--- .... ....|--- .... ....
....|..|F#4 .F1F ....|B-4 ...F ....|--- .... ....
....|..|R-- .... ....|--- .... ....|--- .... ....
....|..|R-- .... ....|--- .... ....|--- .... ....
....|..|--- .... ....|--- .... ....|--- .... ....
....|..|F#4 .F1F ....|B-4 ...7 ....|--- .... ....
....|..|--- .... ....|--- .... ....|--- .... ....
....|..|F#4 .FD7 ....|--- .... ....|--- .... ....
....|..|R-- .... ....|--- .... ....|--- .... ....
....|..|F#4 .F1F ....|A-4 ...F ....|--- .... ....
....|..|F#4 .F6F ....|--- .... ....|--- .... ....
....|..|R-- .... ....|--- .... ....|--- .... ....
....|..|--- .... ....|--- .... ....|--- .... ....
....|..|F#4 .FEF ....|B-4 ...F ....|--- .... ....
....|..|R-- .... ....|--- .... ....|--- .... ....
....|..|R-- .... ....|--- .... ....|--- .... ....
....|..|--- .... ....|--- .... ....|--- .... ....
....|..|F#4 .FEF ....|C#5 ...F ....|--- .... ....
....|..|F#5 .F.F ....|--- .... ....|--- .... ....
....|..|R-- .... ....|--- .... ....|--- .... ....
....|..|--- .... ....|--- .... ....|--- .... ....
....|..|F#4 .FEF ....|A-4 ...A ....|--- .... ....
....|..|R-- .... ....|--- .... ....|--- .... ....
....|..|R-- .... ....|--- .... ....|--- .... ....
....|..|--- .... ....|--- .... ....|--- .... ....
....|..|F#4 .F1F ....|E-5 ...F ....|--- .... ....
....|..|R-- .... ....|--- .... ....|--- .... ....
....|..|A-5 .F.F ....|--- .... ....|--- .... ....
....|..|R-- .... ....|--- .... ....|--- .... ....
....|..|F#4 .F6F ....|C#5 ...A ....|--- .... ....
....|..|F#5 .F.A ....|--- .... ....|--- .... ....
....|..|R-- .... ....|--- .... ....|--- .... ....
....|..|--- .... ....|--- .... ....|--- .... ....
....|..|F#4 .FEF ....|F#5 ...F ....|--- .... ....
....|..|F#4 .F6F ....|--- .... ....|--- .... ....
....|..|R-- .... ....|--- .... ....|--- .... ....
....|..|--- .... ....|--- .... ....|--- .... ....
....|..|F#4 .FEF ....|B-4 ...7 ....|--- .... ....
....|..|--- .... ....|--- .... ....|--- .... ....
....|..|G#4 .F7F ....|--- .... ....|--- .... ....
....|..|R-- .... ....|--- .... ....|--- .... ....
....|..|F#4 .F1F ....|C#5 ...F ....|--- .... ....
....|..|F#5 .F.7 ....|--- .... ....|--- .... ....
....|..|F#4 .F6F ....|--- .... ....|--- .... ....
....|..|R-- .... ....|--- .... ....|--- .... ....

[Pattern11]
....|..|B-4 .F9F ....|F#5 ...F ....|--- .... ....
....|..|F#4 .F6A ....|--- .... ....|--- .... ....
....|..|R-- .... ....|--- .... ....|--- .... ....
....|..|R-- .... ....|--- .... ....|--- .... ....
....|..|B-4 .F9F ....|A-4 ...F ....|--- .... ....
....|..|--- .... ....|--- .... ....|--- .... ....
....|..|A-5 .F.7 ....|--- .... ....|--- .... ....
....|..|R-- .... ....|--- .... ....|--- .... ....
....|..|B-4 .F9F ....|F#5 ...F ....|--- .... ....
....|..|F#5 .F.F ....|--- .... ....|--- .... ....
....|..|R-- .... ....|--- .... ....|--- .... ....
....|..|R-- .... ....|--- .... ....|--- .... ....
....|..|B-4 .F9F ....|E-5 ...F ....|--- .... ....
....|..|F#4 .F67 ....|--- .... ....|--- .... ....
....|..|B-4 .F.F ....|--- .... ....|--- .... ....
....|..|R-- .... ....|--- .... ....|--- .... ....
....|..|B-4 .F9F ....|A-4 ...A ....|--- .... ....
....|..|B-4 .F6F ....|--- .... ....|--- .... ....
....|..|G#4 .F77 ....|--- .... ....|--- .... ....
....|..|R-- .... ....|--- .... ....|--- .... ....
....|..|B-4 .F9F ....|C#5 ...F ....|--- .... ....
....|..|R-- .... ....|--- .... ....|--- .... ....
....|..|F#4 .F67 ....|--- .... ....|--- .... ....
....|..|R-- .... ....|--- .... ....|--- .... ....
....|..|B-4 .F9F ....|F#5 ...7 ....|--- .... ....
....|..|R-- .... ....|--- .... ....|--- .... ....
....|..|B-4 .F.A ....|--- .... ....|--- .... ....
....|..|R-- .... ....|--- .... ....|--- .... ....
....|..|B-4 .F9F ....|A-4 ...F ....|--- .... ....
....|..|R-- .... ....|--- .... ....|--- .... ....
....|..|R-- .... ....|--- .... ....|--- .... ....
....|..|--- .... ....|--- .... ....|--- .... ....
....|..|D-4 .FFF ....|F#5 ...7 ....|--- .... ....
....|..|F#5 .F.7 ....|--- .... ....|--- .... ....
....|..|D-4 .F.F ....|--- .... ....|--- .... ....
....|..|R-- .... ....|--- .... ....|--- .... ....
....|..|D-4 .FFF ....|G#4 ...F ....|--- .... ....
....|..|G#5 .F.F ....|--- .... ....|--- .... ....
....|..|B-4 .F.7 ....|--- .... ....|--- .... ....
....|..|R-- .... ....|--- .... ....|--- .... ....
....|..|D-4 .FFF ....|A-4 ...A ....|--- .... ....
....|..|G#5 .F.F ....|--- .... ....|--- .... ....
....|..|R-- .... ....|--- .... ....|--- .... ....
....|..|--- .... ....|--- .... ....|--- .... ....
....|..|D-4 .FFF ....|E-5 ...F ....|--- .... ....
....|..|R-- .... ....|--- .... ....|--- .... ....
....|..|D-4 .F1F ....|--- .... ....|--- .... ....
....|..|R-- .... ....|--- .... ....|--- .... ....
....|..|D-4 .FFF ....|G#4 ...A ....|--- .... ....
....|..|F#4 .F2F ....|--- .... ....|--- .... ....
....|..|R-- .... ....|--- .... ....|--- .... ....
....|..|--- .... ....|--- .... ....|--- .... ....
....|..|D-4 .FFF ....|F#5 ...F ....|--- .... ....
....|..|R-- .... ....|--- .... ....|--- .... ....
....|..|R-- .... ....|--- .... ....|--- .... ....
....|..|--- .... ....|--- .... ....|--- .... ....
....|..|D-4 .FFF ....|E-5 ...A ....|--- .... ....
....|..|G#4 .FDF ....|--- .... ....|--- .... ....
....|..|D-4 .F.7 ....|--- .... ....|--- .... ....
....|..|R-- .... ....|--- .... ....|--- .... ....
....|..|D-4 .FFF ....|G#4 ...7 ....|--- .... ....
....|..|D-4 .F3F ....|--- .... ....|--- .... ....
....|..|R-- .... ....|--- .... ....|--- .... ....
....|..|--- .... ....|--- .... ....|--- .... ....

[Pattern12]
....|..|F#4 .F1F ....|R-- .... ....|--- .... ....
....|..|G#5 .F.7 ....|--- .... ....|--- .... ....
....|..|R-- .... ....|--- .... ....|--- .... ....
....|..|R-- .... ....|--- .... ....|--- .... ....
....|..|F#4 .F1F ....|E-5 ...7 ....|--- .... ....
....|..|G#4 .FDA ....|--- .... ....|--- .... ....
....|..|D-4 .F17 ....|--- .... ....|--- .... ....
....|..|R-- .... ....|--- .... ....|--- .... ....
....|..|F#4 .F1F ....|--- .... ....|--- .... ....
....|..|F#4 .F6F ....|--- .... ....|--- .... ....
....|..|R-- .... ....|--- .... ....|--- .... ....
....|..|--- .... ....|--- .... ....|--- .... ....
....|..|F#4 .F1F ....|F#5 ...7 ....|--- .... ....
....|..|R-- .... ....|--- .... ....|--- .... ....
....|..|F#4 .FDF ....|--- .... ....|--- .... ....
....|..|R-- .... ....|--- .... ....|--- .... ....
....|..|F#4 .F1F ....|--- .... ....|--- .... ....
....|..|F#4 .F6F ....|--- .... ....|--- .... ....
....|..|R-- .... ....|--- .... ....|--- .... ....
....|..|--- .... ....|--- .... ....|--- .... ....
....|..|F#4 .F1F ....|--- .... ....|--- .... ....
....|..|C#6 .F.F ....|--- .... ....|--- .... ....
....|..|R-- .... ....|--- .... ....|--- .... ....
....|..|--- .... ....|--- .... ....|--- .... ....
....|..|F#4 .F1F ....|R-- .... ....|--- .... ....
....|..|--- .... ....|--- .... ....|--- .... ....
....|..|F#4 .FDF ....|--- .... ....|--- .... ....
....|..|R-- .... ....|--- .... ....|--- .... ....
....|..|F#4 .F1F ....|--- .... ....|--- .... ....
....|..|F#4 .F6A ....|--- .... ....|--- .... ....
....|..|R-- .... ....|--- .... ....|--- .... ....
....|..|--- .... ....|--- .... ....|--- .... ....
....|..|F#4 .F2F ....|--- .... ....|--- .... ....
....|..|F#4 .F67 ....|--- .... ....|--- .... ....
....|..|R-- .... ....|--- .... ....|--- .... ....
....|..|R-- .... ....|--- .... ....|--- .... ....
....|..|F#4 .F2F ....|--- .... ....|--- .... ....
....|..|--- .... ....|--- .... ....|--- .... ....
....|..|F#4 .FD7 ....|--- .... ....|--- .... ....
....|..|R-- .... ....|--- .... ....|--- .... ....
....|..|F#4 .F2F ....|--- .... ....|--- .... ....
....|..|F#4 .F67 ....|--- .... ....|--- .... ....
....|..|R-- .... ....|--- .... ....|--- .... ....
....|..|--- .... ....|--- .... ....|--- .... ....
....|..|F#4 .F2F ....|--- .... ....|--- .... ....
....|..|C#6 .F.7 ....|--- .... ....|--- .... ....
....|..|R-- .... ....|--- .... ....|--- .... ....
....|..|R-- .... ....|--- .... ....|--- .... ....
....|..|F#4 .F1F ....|--- .... ....|--- .... ....
....|..|--- .... ....|--- .... ....|--- .... ....
....|..|F#4 .FD7 ....|--- .... ....|--- .... ....
....|..|R-- .... ....|--- .... ....|--- .... ....
....|..|F#4 .F1F ....|--- .... ....|--- .... ....
....|..|--- .... ....|--- .... ....|--- .... ....
....|..|R-- .... ....|--- .... ....|--- .... ....
....|..|--- .... ....|--- .... ....|--- .... ....
....|..|F#4 .F1F ....|--- .... ....|--- .... ....
....|..|--- .... ....|--- .... ....|--- .... ....
....|..|R-- .... ....|--- .... ....|--- .... ....
....|..|R-- .... ....|--- .... ....|--- .... ....
....|..|F#4 .F1F ....|--- .... ....|--- .... ....
....|..|--- .... ....|--- .... ....|--- .... ....
....|..|F#5 .F.F ....|--- .... ....|--- .... ....
....|..|R-- .... ....|--- .... ....|--- .... ....

[Pattern13]
....|..|E-4 .F3F ....|--- .... ....|--- .... ....
....|..|--- .... ....|--- .... ....|--- .... ....
....|..|R-- .... ....|--- .... ....|--- .... ....
....|..|R-- .... ....|--- .... ....|--- .... ....
....|..|E-4 .F3F ....|--- .... ....|--- .... ....
....|..|--- .... ....|--- .... ....|--- .... ....
....|..|E-4 .F6F ....|--- .... ....|--- .... ....
....|..|R-- .... ....|--- .... ....|--- .... ....
....|..|E-4 .F3F ....|--- .... ....|--- .... ....
....|..|--- .... ....|--- .... ....|--- .... ....
....|..|R-- .... ....|--- .... ....|--- .... ....
....|..|R-- .... ....|--- .... ....|--- .... ....
....|..|E-4 .F3F ....|--- .... ....|--- .... ....
....|..|--- .... ....|--- .... ....|--- .... ....
....|..|E-4 .F6F ....|--- .... ....|--- .... ....
....|..|R-- .... ....|--- .... ....|--- .... ....
....|..|E-4 .F3F ....|--- .... ....|--- .... ....
....|..|--- .... ....|--- .... ....|--- .... ....
....|..|R-- .... ....|--- .... ....|--- .... ....
....|..|R-- .... ....|--- .... ....|--- .... ....
....|..|E-4 .F3F ....|--- .... ....|--- .... ....
....|..|E-4 .F6F ....|--- .... ....|--- .... ....
....|..|F#5 .F.7 ....|--- .... ....|--- .... ....
....|..|R-- .... ....|--- .... ....|--- .... ....
....|..|E-4 .F3F ....|--- .... ....|--- .... ....
....|..|--- .... ....|--- .... ....|--- .... ....
....|..|R-- .... ....|--- .... ....|--- .... ....
....|..|R-- .... ....|--- .... ....|--- .... ....
....|..|E-4 .F3F ....|--- .... ....|--- .... ....
....|..|B-5 .F.F ....|--- .... ....|--- .... ....
....|..|E-4 .F67 ....|--- .... ....|--- .... ....
....|..|R-- .... ....|--- .... ....|--- .... ....
....|..|E-4 .F4F ....|--- .... ....|--- .... ....
....|..|E-4 .F6A ....|--- .... ....|--- .... ....
....|..|E-5 .F.F ....|--- .... ....|--- .... ....
....|..|R-- .... ....|--- .... ....|--- .... ....
....|..|E-4 .F4F ....|--- .... ....|--- .... ....
....|..|E-4 .F5F ....|--- .... ....|--- .... ....
....|..|E-4 .F67 ....|--- .... ....|--- .... ....
....|..|R-- .... ....|--- .... ....|--- .... ....
....|..|E-4 .F4F ....|--- .... ....|--- .... ....
....|..|B-5 .F.A ....|--- .... ....|--- .... ....
....|..|R-- .... ....|--- .... ....|--- .... ....
....|..|--- .... ....|--- .... ....|--- .... ....
....|..|E-4 .F4F ....|--- .... ....|--- .... ....
....|..|E-4 .F67 ....|--- .... ....|--- .... ....
....|..|R-- .... ....|--- .... ....|--- .... ....
....|..|R-- .... ....|--- .... ....|--- .... ....
....|..|E-4 .F4F ....|--- .... ....|--- .... ....
....|..|E-4 .F5A ....|--- .... ....|--- .... ....
....|..|A-5 .F.F ....|--- .... ....|--- .... ....
....|..|R-- .... ....|--- .... ....|--- .... ....
....|..|E-4 .F4F ....|--- .... ....|--- .... ....
....|..|B-5 .F.7 ....|--- .... ....|--- .... ....
....|..|A-5 .F.F ....|--- .... ....|--- .... ....
....|..|R-- .... ....|--- .... ....|--- .... ....
....|..|E-4 .F4F ....|--- .... ....|--- .... ....
....|..|--- .... ....|--- .... ....|--- .... ....
....|..|A-5 .F.F ....|--- .... ....|--- .... ....
....|..|R-- .... ....|--- .... ....|--- .... ....
....|..|E-4 .F4F ....|--- .... ....|--- .... ....
....|..|E-4 .F57 ....|--- .... ....|--- .... ....
....|..|E-4 .F7F ....|--- .... ....|--- .... ....
....|..|R-- .... ....|--- .... ....|--- .... ....

[Pattern14]
....|..|F#4 .F1F ....|--- .... ....|--- .... ....
....|..|--- .... ....|--- .... ....|--- .... ....
....|..|R-- .... ....|--- .... ....|--- .... ....
....|..|R-- .... ....|--- .... ....|--- .... ....
....|..|F#4 .F1F ....|--- .... ....|--- .... ....
....|..|--- .... ....|--- .... ....|--- .... ....
....|..|R-- .... ....|--- .... ....|--- .... ....
....|..|R-- .... ....|--- .... ....|--- .... ....
....|..|F#4 .F1F ....|--- .... ....|--- .... ....
....|..|F#4 .F6F ....|--- .... ....|--- .... ....
....|..|A-5 .F.7 ....|--- .... ....|--- .... ....
....|..|R-- .... ....|--- .... ....|--- .... ....
....|..|F#4 .F1F ....|--- .... ....|--- .... ....
....|..|--- .... ....|--- .... ....|--- .... ....
....|..|F#4 .FDF ....|--- .... ....|--- .... ....
....|..|R-- .... ....|--- .... ....|--- .... ....
....|..|F#4 .F1F ....|--- .... ....|--- .... ....
....|..|F#4 .F6F ....|--- .... ....|--- .... ....
....|..|A-5 .F.7 ....|--- .... ....|--- .... ....
....|..|R-- .... ....|--- .... ....|--- .... ....
....|..|F#4 .F1F ....|--- .... ....|--- .... ....
....|..|C#6 .F.F ....|--- .... ....|--- .... ....
....|..|E-4 .F77 ....|--- .... ....|--- .... ....
....|..|R-- .... ....|--- .... ....|--- .... ....
....|..|F#4 .F1F ....|--- .... ....|--- .... ....
....|..|--- .... ....|--- .... ....|--- .... ....
....|..|F#4 .FDF ....|--- .... ....|--- .... ....
....|..|R-- .... ....|--- .... ....|--- .... ....
....|..|F#4 .F1F ....|--- .... ....|--- .... ....
....|..|F#4 .F6A ....|--- .... ....|--- .... ....
....|..|R-- .... ....|--- .... ....|--- .... ....
....|..|--- .... ....|--- .... ....|--- .... ....
....|..|F#4 .F2F ....|--- .... ....|--- .... ....
....|..|F#4 .F67 ....|--- .... ....|--- .... ....
....|..|R-- .... ....|--- .... ....|--- .... ....
....|..|R-- .... ....|--- .... ....|--- .... ....
....|..|F#4 .F2F ....|--- .... ....|--- .... ....
....|..|--- .... ....|--- .... ....|--- .... ....
....|..|F#4 .FD7 ....|--- .... ....|--- .... ....
....|..|R-- .... ....|--- .... ....|--- .... ....
....|..|F#4 .F2F ....|--- .... ....|--- .... ....
....|..|F#4 .F67 ....|--- .... ....|--- .... ....
....|..|R-- .... ....|--- .... ....|--- .... ....
....|..|--- .... ....|--- .... ....|--- .... ....
....|..|F#4 .F2F ....|--- .... ....|--- .... ....
....|..|C#6 .F.7 ....|--- .... ....|--- .... ....
....|..|R-- .... ....|--- .... ....|--- .... ....
....|..|R-- .... ....|--- .... ....|--- .... ....
....|..|F#4 .F1F ....|--- .... ....|--- .... ....
....|..|--- .... ....|--- .... ....|--- .... ....
....|..|F#4 .FD7 ....|--- .... ....|--- .... ....
....|..|R-- .... ....|--- .... ....|--- .... ....
....|..|F#4 .F1F ....|--- .... ....|--- .... ....
....|..|--- .... ....|--- .... ....|--- .... ....
....|..|R-- .... ....|--- .... ....|--- .... ....
....|..|--- .... ....|--- .... ....|--- .... ....
....|..|F#4 .F1F ....|--- .... ....|--- .... ....
....|..|--- .... ....|--- .... ....|--- .... ....
....|..|R-- .... ....|--- .... ....|--- .... ....
....|..|R-- .... ....|--- .... ....|--- .... ....
....|..|F#4 .F1F ....|--- .... ....|--- .... ....
....|..|--- .... ....|--- .... ....|--- .... ....
....|..|F#5 .F.F ....|--- .... ....|--- .... ....
....|..|R-- .... ....|--- .... ....|--- .... ....

[Pattern15]
....|..|E-4 .F3F ....|--- .... ....|--- .... ....
....|..|--- .... ....|--- .... ....|--- .... ....
....|..|R-- .... ....|--- .... ....|--- .... ....
....|..|R-- .... ....|--- .... ....|--- .... ....
....|..|E-4 .F3F ....|--- .... ....|--- .... ....
....|..|--- .... ....|--- .... ....|--- .... ....
....|..|R-- .... ....|--- .... ....|--- .... ....
....|..|--- .... ....|--- .... ....|--- .... ....
....|..|E-4 .F3F ....|--- .... ....|--- .... ....
....|..|E-4 .F6F ....|--- .... ....|--- .... ....
....|..|R-- .... ....|--- .... ....|--- .... ....
....|..|R-- .... ....|--- .... ....|--- .... ....
....|..|E-4 .F3F ....|--- .... ....|--- .... ....
....|..|--- .... ....|--- .... ....|--- .... ....
....|..|E-4 .F6F ....|--- .... ....|--- .... ....
....|..|R-- .... ....|--- .... ....|--- .... ....
....|..|E-4 .F3F ....|--- .... ....|--- .... ....
....|..|--- .... ....|--- .... ....|--- .... ....
....|..|R-- .... ....|--- .... ....|--- .... ....
....|..|--- .... ....|--- .... ....|--- .... ....
....|..|E-4 .F3F ....|--- .... ....|--- .... ....
....|..|E-4 .F6A ....|--- .... ....|--- .... ....
....|..|F#5 .F.7 ....|--- .... ....|--- .... ....
....|..|R-- .... ....|--- .... ....|--- .... ....
....|..|E-4 .F3F ....|--- .... ....|--- .... ....
....|..|--- .... ....|--- .... ....|--- .... ....
....|..|R-- .... ....|--- .... ....|--- .... ....
....|..|R-- .... ....|--- .... ....|--- .... ....
....|..|E-4 .F3F ....|--- .... ....|--- .... ....
....|..|--- .... ....|--- .... ....|--- .... ....
....|..|R-- .... ....|--- .... ....|--- .... ....
....|..|--- .... ....|--- .... ....|--- .... ....
....|..|E-4 .F4F ....|--- .... ....|--- .... ....
....|..|E-4 .F67 ....|--- .... ....|--- .... ....
....|..|R-- .... ....|--- .... ....|--- .... ....
....|..|R-- .... ....|--- .... ....|--- .... ....
....|..|E-4 .F4F ....|--- .... ....|--- .... ....
....|..|--- .... ....|--- .... ....|--- .... ....
....|..|A-5 .F.F ....|--- .... ....|--- .... ....
....|..|R-- .... ....|--- .... ....|--- .... ....
....|..|E-4 .F4F ....|--- .... ....|--- .... ....
....|..|--- .... ....|--- .... ....|--- .... ....
....|..|A-5 .F.F ....|--- .... ....|--- .... ....
....|..|R-- .... ....|--- .... ....|--- .... ....
....|..|E-4 .F4F ....|--- .... ....|--- .... ....
....|..|--- .... ....|--- .... ....|--- .... ....
....|..|A-5 .F.F ....|--- .... ....|--- .... ....
....|..|R-- .... ....|--- .... ....|--- .... ....
....|..|E-4 .F4F ....|--- .... ....|--- .... ....
....|..|--- .... ....|--- .... ....|--- .... ....
....|..|R-- .... ....|--- .... ....|--- .... ....
....|..|R-- .... ....|--- .... ....|--- .... ....
....|..|E-4 .F4F ....|--- .... ....|--- .... ....
....|..|--- .... ....|--- .... ....|--- .... ....
....|..|R-- .... ....|--- .... ....|--- .... ....
....|..|R-- .... ....|--- .... ....|--- .... ....
....|..|E-4 .F4F ....|--- .... ....|--- .... ....
....|..|--- .... ....|--- .... ....|--- .... ....
....|..|G#4 .F7F ....|--- .... ....|--- .... ....
....|..|R-- .... ....|--- .... ....|--- .... ....
....|..|E-4 .F4F ....|--- .... ....|--- .... ....
....|..|--- .... ....|--- .... ....|--- .... ....
....|..|A-5 .F.7 ....|--- .... ....|--- .... ....
....|..|R-- .... ....|--- .... ....|--- .... ....

[Pattern16]
....|..|F#4 .F1F ....|--- .... ....|F#3 ...F ....
....|..|--- .... ....|--- .... ....|--- .... ....
....|..|A-5 .F.7 ....|--- .... ....|R-- .... ....
....|..|R-- .... ....|--- .... ....|--- .... ....
....|..|F#4 .F1F ....|--- .... ....|F#3 ...F ....
....|..|F#5 .F.F ....|--- .... ....|R-- .... ....
....|..|A-5 .F.7 ....|--- .... ....|F#3 ...F ....
....|..|R-- .... ....|--- .... ....|--- .... ....
....|..|F#4 .F1F ....|--- .... ....|R-- .... ....
....|..|C#6 .F.F ....|--- .... ....|--- .... ....
....|..|R-- .... ....|--- .... ....|F#3 ...F ....
....|..|R-- .... ....|--- .... ....|--- .... ....
....|..|F#4 .F1F ....|--- .... ....|G#3 ...F ....
....|..|R-- .... ....|--- .... ....|R-- .... ....
....|..|R-- .... ....|--- .... ....|R-- .... ....
....|..|--- .... ....|--- .... ....|--- .... ....
....|..|F#4 .F1F ....|--- .... ....|A-3 ...F ....
....|..|R-- .... ....|--- .... ....|R-- .... ....
....|..|G#4 .F77 ....|--- .... ....|F#3 ...A ....
....|..|R-- .... ....|--- .... ....|--- .... ....
....|..|F#4 .F1F ....|--- .... ....|R-- .... ....
....|..|R-- .... ....|--- .... ....|--- .... ....
....|..|R-- .... ....|--- .... ....|F#3 ...A ....
....|..|R-- .... ....|--- .... ....|--- .... ....
....|..|F#4 .F1F ....|--- .... ....|F#3 ...7 ....
....|..|C#6 .F.F ....|--- .... ....|R-- .... ....
....|..|R-- .... ....|--- .... ....|R-- .... ....
....|..|--- .... ....|--- .... ....|--- .... ....
....|..|F#4 .F1F ....|--- .... ....|F#3 ...7 ....
....|..|F#5 .F.7 ....|--- .... ....|R-- .... ....
....|..|R-- .... ....|--- .... ....|F#3 ...7 ....
....|..|--- .... ....|--- .... ....|--- .... ....
....|..|F#4 .F2F ....|--- .... ....|F#3 ...F ....
....|..|C#6 .F.7 ....|--- .... ....|R-- .... ....
....|..|R-- .... ....|--- .... ....|F#3 ...7 ....
....|..|--- .... ....|--- .... ....|--- .... ....
....|..|F#4 .F2F ....|--- .... ....|F#3 ...F ....
....|..|R-- .... ....|--- .... ....|R-- .... ....
....|..|R-- .... ....|--- .... ....|F#3 ...F ....
....|..|--- .... ....|--- .... ....|R-- .... ....
....|..|F#4 .F2F ....|--- .... ....|A-3 ...7 ....
....|..|R-- .... ....|--- .... ....|R-- .... ....
....|..|--- .... ....|--- .... ....|F#3 ...F ....
....|..|--- .... ....|--- .... ....|R-- .... ....
....|..|F#4 .F2F ....|--- .... ....|G#3 ...F ....
....|..|R-- .... ....|--- .... ....|R-- .... ....
....|..|--- .... ....|--- .... ....|--- .... ....
....|..|--- .... ....|--- .... ....|--- .... ....
....|..|F#4 .F1F ....|--- .... ....|A-3 ...F ....
....|..|C#6 .F.7 ....|--- .... ....|R-- .... ....
....|..|R-- .... ....|--- .... ....|F#3 ...A ....
....|..|R-- .... ....|--- .... ....|R-- .... ....
....|..|F#4 .F1F ....|--- .... ....|--- .... ....
....|..|R-- .... ....|--- .... ....|--- .... ....
....|..|--- .... ....|--- .... ....|F#3 ...A ....
....|..|--- .... ....|--- .... ....|R-- .... ....
....|..|F#4 .F1F ....|--- .... ....|F#3 ...7 ....
....|..|R-- .... ....|--- .... ....|R-- .... ....
....|..|--- .... ....|--- .... ....|--- .... ....
....|..|--- .... ....|--- .... ....|--- .... ....
....|..|F#4 .F1F ....|--- .... ....|F#3 ...7 ....
....|..|R-- .... ....|--- .... ....|R-- .... ....
....|..|--- .... ....|--- .... ....|F#3 ...7 ....
....|..|R-- .... ....|--- .... ....|R-- .... ....

[Pattern17]
....|..|E-4 .F3F ....|--- .... ....|E-3 ...F ....
....|..|R-- .... ....|--- .... ....|R-- .... ....
....|..|R-- .... ....|--- .... ....|F#3 ...7 ....
....|..|--- .... ....|--- .... ....|R-- .... ....
....|..|E-4 .F3F ....|--- .... ....|G#3 ...7 ....
....|..|R-- .... ....|--- .... ....|R-- .... ....
....|..|--- .... ....|--- .... ....|E-3 ...F ....
....|..|--- .... ....|--- .... ....|R-- .... ....
....|..|E-4 .F3F ....|--- .... ....|A-3 ...7 ....
....|..|R-- .... ....|--- .... ....|R-- .... ....
....|..|--- .... ....|--- .... ....|E-3 ...F ....
....|..|R-- .... ....|--- .... ....|R-- .... ....
....|..|E-4 .F3F ....|--- .... ....|E-3 ...F ....
....|..|E-5 .F.F ....|--- .... ....|R-- .... ....
....|..|R-- .... ....|--- .... ....|--- .... ....
....|..|--- .... ....|--- .... ....|--- .... ....
....|..|E-4 .F3F ....|--- .... ....|--- .... ....
....|..|R-- .... ....|--- .... ....|--- .... ....
....|..|--- .... ....|--- .... ....|E-3 ...A ....
....|..|--- .... ....|--- .... ....|R-- .... ....
....|..|E-4 .F3F ....|--- .... ....|--- .... ....
....|..|R-- .... ....|--- .... ....|--- .... ....
....|..|--- .... ....|--- .... ....|E-3 ...A ....
....|..|--- .... ....|--- .... ....|R-- .... ....
....|..|E-4 .F3F ....|--- .... ....|E-3 ...7 ....
....|..|R-- .... ....|--- .... ....|R-- .... ....
....|..|R-- .... ....|--- .... ....|--- .... ....
....|..|--- .... ....|--- .... ....|--- .... ....
....|..|E-4 .F3F ....|--- .... ....|E-3 ...F ....
....|..|R-- .... ....|--- .... ....|R-- .... ....
....|..|--- .... ....|--- .... ....|F#3 ...F ....
....|..|--- .... ....|--- .... ....|R-- .... ....
....|..|E-4 .F4F ....|--- .... ....|C#3 ...F ....
....|..|E-4 .F5F ....|--- .... ....|--- .... ....
....|..|R-- .... ....|--- .... ....|E-3 ...7 ....
....|..|--- .... ....|--- .... ....|R-- .... ....
....|..|E-4 .F4F ....|--- .... ....|C#3 ...F ....
....|..|E-5 .F.7 ....|--- .... ....|R-- .... ....
....|..|R-- .... ....|--- .... ....|C#3 ...F ....
....|..|--- .... ....|--- .... ....|--- .... ....
....|..|E-4 .F4F ....|--- .... ....|R-- .... ....
....|..|R-- .... ....|--- .... ....|R-- .... ....
....|..|--- .... ....|--- .... ....|C#3 ...F ....
....|..|--- .... ....|--- .... ....|R-- .... ....
....|..|E-4 .F4F ....|--- .... ....|C#3 ...F ....
....|..|R-- .... ....|--- .... ....|R-- .... ....
....|..|R-- .... ....|--- .... ....|R-- .... ....
....|..|--- .... ....|--- .... ....|--- .... ....
....|..|E-4 .F3F ....|--- .... ....|C#3 ...A ....
....|..|R-- .... ....|--- .... ....|R-- .... ....
....|..|--- .... ....|--- .... ....|C#3 ...A ....
....|..|R-- .... ....|--- .... ....|--- .... ....
....|..|E-4 .F3F ....|--- .... ....|B-2 ...F ....
....|..|R-- .... ....|--- .... ....|R-- .... ....
....|..|--- .... ....|--- .... ....|F#3 ...7 ....
....|..|--- .... ....|--- .... ....|R-- .... ....
....|..|E-4 .F3F ....|--- .... ....|C#3 ...F ....
....|..|E-4 .F57 ....|--- .... ....|R-- .... ....
....|..|R-- .... ....|--- .... ....|R-- .... ....
....|..|--- .... ....|--- .... ....|--- .... ....
....|..|E-4 .F3F ....|--- .... ....|E-3 ...F ....
....|..|B-5 .F.F ....|--- .... ....|R-- .... ....
....|..|R-- .... ....|--- .... ....|C#3 ...7 ....
....|..|R-- .... ....|--- .... ....|R-- .... ....

[Pattern18]
....|..|F#4 .F1F ....|--- .... ....|F#3 ...F ....
....|..|R-- .... ....|--- .... ....|--- .... ....
....|..|R-- .... ....|--- .... ....|C#3 ...7 ....
....|..|--- .... ....|--- .... ....|R-- .... ....
....|..|F#4 .F1F ....|--- .... ....|F#3 ...F ....
....|..|F#5 .F.F ....|--- .... ....|R-- .... ....
....|..|R-- .... ....|--- .... ....|F#3 ...F ....
....|..|--- .... ....|--- .... ....|--- .... ....
....|..|F#4 .F1F ....|--- .... ....|R-- .... ....
....|..|C#6 .F.F ....|--- .... ....|--- .... ....
....|..|R-- .... ....|--- .... ....|F#3 ...F ....
....|..|R-- .... ....|--- .... ....|R-- .... ....
....|..|F#4 .F1F ....|--- .... ....|G#3 ...F ....
....|..|R-- .... ....|--- .... ....|R-- .... ....
....|..|R-- .... ....|--- .... ....|R-- .... ....
....|..|--- .... ....|--- .... ....|--- .... ....
....|..|F#4 .F1F ....|--- .... ....|A-3 ...F ....
....|..|R-- .... ....|--- .... ....|R-- .... ....
....|..|R-- .... ....|--- .... ....|F#3 ...A ....
....|..|--- .... ....|--- .... ....|--- .... ....
....|..|F#4 .F1F ....|--- .... ....|E-3 ...7 ....
....|..|B-5 .F.7 ....|--- .... ....|--- .... ....
....|..|R-- .... ....|--- .... ....|F#3 ...A ....
....|..|--- .... ....|--- .... ....|R-- .... ....
....|..|F#4 .F1F ....|--- .... ....|F#3 ...7 ....
....|..|C#6 .F.F ....|--- .... ....|R-- .... ....
....|..|R-- .... ....|--- .... ....|R-- .... ....
....|..|--- .... ....|--- .... ....|--- .... ....
....|..|F#4 .F1F ....|--- .... ....|F#3 ...7 ....
....|..|F#5 .F.7 ....|--- .... ....|R-- .... ....
....|..|R-- .... ....|--- .... ....|F#3 ...7 ....
....|..|--- .... ....|--- .... ....|--- .... ....
....|..|F#4 .F2F ....|--- .... ....|F#3 ...F ....
....|..|C#6 .F.7 ....|--- .... ....|R-- .... ....
....|..|R-- .... ....|--- .... ....|F#3 ...7 ....
....|..|--- .... ....|--- .... ....|--- .... ....
....|..|F#4 .F2F ....|--- .... ....|F#3 ...F ....
....|..|R-- .... ....|--- .... ....|R-- .... ....
....|..|R-- .... ....|--- .... ....|F#3 ...F ....
....|..|--- .... ....|--- .... ....|R-- .... ....
....|..|F#4 .F2F ....|--- .... ....|A-3 ...7 ....
....|..|R-- .... ....|--- .... ....|R-- .... ....
....|..|--- .... ....|--- .... ....|F#3 ...F ....
....|..|--- .... ....|--- .... ....|R-- .... ....
....|..|F#4 .F2F ....|--- .... ....|G#3 ...F ....
....|..|R-- .... ....|--- .... ....|R-- .... ....
....|..|--- .... ....|--- .... ....|--- .... ....
....|..|--- .... ....|--- .... ....|--- .... ....
....|..|F#4 .F1F ....|--- .... ....|A-3 ...F ....
....|..|C#6 .F.7 ....|--- .... ....|R-- .... ....
....|..|R-- .... ....|--- .... ....|F#3 ...A ....
....|..|R-- .... ....|--- .... ....|R-- .... ....
....|..|F#4 .F1F ....|--- .... ....|--- .... ....
....|..|R-- .... ....|--- .... ....|--- .... ....
....|..|--- .... ....|--- .... ....|F#3 ...A ....
....|..|--- .... ....|--- .... ....|R-- .... ....
....|..|F#4 .F1F ....|--- .... ....|F#3 ...7 ....
....|..|R-- .... ....|--- .... ....|R-- .... ....
....|..|--- .... ....|--- .... ....|--- .... ....
....|..|--- .... ....|--- .... ....|--- .... ....
....|..|F#4 .F1F ....|--- .... ....|F#3 ...7 ....
....|..|R-- .... ....|--- .... ....|R-- .... ....
....|..|--- .... ....|--- .... ....|F#3 ...7 ....
....|..|R-- .... ....|--- .... ....|R-- .... ....

[Pattern19]
....|..|E-4 .FEF ....|--- .... ....|F#3 ...F ....
....|..|R-- .... ....|--- .... ....|--- .... ....
....|..|R-- .... ....|--- .... ....|F#3 ...7 ....
....|..|--- .... ....|--- .... ....|R-- .... ....
....|..|E-4 .FEF ....|--- .... ....|F#3 ...F ....
....|..|R-- .... ....|--- .... ....|R-- .... ....
....|..|--- .... ....|--- .... ....|F#3 ...F ....
....|..|--- .... ....|--- .... ....|--- .... ....
....|..|E-4 .FEF ....|--- .... ....|A-3 ...7 ....
....|..|R-- .... ....|--- .... ....|R-- .... ....
....|..|--- .... ....|--- .... ....|F#3 ...F ....
....|..|R-- .... ....|--- .... ....|--- .... ....
....|..|E-4 .F3F ....|--- .... ....|G#3 ...F ....
....|..|E-5 .F.F ....|--- .... ....|R-- .... ....
....|..|R-- .... ....|--- .... ....|R-- .... ....
....|..|--- .... ....|--- .... ....|--- .... ....
....|..|E-4 .F3F ....|--- .... ....|A-3 ...F ....
....|..|R-- .... ....|--- .... ....|R-- .... ....
....|..|--- .... ....|--- .... ....|F#3 ...A ....
....|..|--- .... ....|--- .... ....|--- .... ....
....|..|E-4 .F3F ....|--- .... ....|R-- .... ....
....|..|R-- .... ....|--- .... ....|--- .... ....
....|..|--- .... ....|--- .... ....|F#3 ...A ....
....|..|--- .... ....|--- .... ....|--- .... ....
....|..|E-4 .F3F ....|--- .... ....|F#3 ...7 ....
....|..|R-- .... ....|--- .... ....|R-- .... ....
....|..|R-- .... ....|--- .... ....|R-- .... ....
....|..|--- .... ....|--- .... ....|--- .... ....
....|..|E-4 .F3F ....|--- .... ....|F#3 ...7 ....
....|..|R-- .... ....|--- .... ....|R-- .... ....
....|..|--- .... ....|--- .... ....|F#3 ...7 ....
....|..|--- .... ....|--- .... ....|--- .... ....
....|..|E-4 .F4F ....|--- .... ....|G#3 ...F ....
....|..|E-4 .F5F ....|--- .... ....|R-- .... ....
....|..|R-- .... ....|--- .... ....|F#3 ...7 ....
....|..|--- .... ....|--- .... ....|--- .... ....
....|..|E-4 .F4F ....|--- .... ....|G#3 ...7 ....
....|..|E-5 .F.7 ....|--- .... ....|R-- .... ....
....|..|R-- .... ....|--- .... ....|G#3 ...F ....
....|..|--- .... ....|--- .... ....|R-- .... ....
....|..|E-4 .F4F ....|--- .... ....|A-3 ...7 ....
....|..|R-- .... ....|--- .... ....|R-- .... ....
....|..|--- .... ....|--- .... ....|G#3 ...F ....
....|..|--- .... ....|--- .... ....|R-- .... ....
....|..|E-4 .F4F ....|--- .... ....|F#3 ...F ....
....|..|R-- .... ....|--- .... ....|R-- .... ....
....|..|R-- .... ....|--- .... ....|--- .... ....
....|..|--- .... ....|--- .... ....|--- .... ....
....|..|E-4 .F3F ....|--- .... ....|G#3 ...F ....
....|..|R-- .... ....|--- .... ....|R-- .... ....
....|..|--- .... ....|--- .... ....|G#3 ...A ....
....|..|R-- .... ....|--- .... ....|R-- .... ....
....|..|E-4 .F3F ....|--- .... ....|C#3 ...F ....
....|..|R-- .... ....|--- .... ....|R-- .... ....
....|..|--- .... ....|--- .... ....|G#3 ...A ....
....|..|--- .... ....|--- .... ....|R-- .... ....
....|..|E-4 .F3F ....|--- .... ....|G#3 ...7 ....
....|..|E-4 .F57 ....|--- .... ....|R-- .... ....
....|..|R-- .... ....|--- .... ....|--- .... ....
....|..|--- .... ....|--- .... ....|--- .... ....
....|..|E-4 .F3F ....|--- .... ....|G#3 ...A ....
....|..|B-5 .F.F ....|--- .... ....|R-- .... ....
....|..|R-- .... ....|--- .... ....|G#3 ...7 ....
....|..|R-- .... ....|--- .... ....|R-- .... ....

[Pattern20]
....|..|F#4 .F1F ....|--- .... ....|F#3 ...F ....
....|..|R-- .... ....|--- .... ....|R-- .... ....
....|..|A-5 .F.F ....|--- .... ....|G#3 ...7 ....
....|..|R-- .... ....|--- .... ....|R-- .... ....
....|..|F#4 .F1F ....|--- .... ....|F#3 ...7 ....
....|..|R-- .... ....|--- .... ....|R-- .... ....
....|..|R-- .... ....|--- .... ....|F#3 ...F ....
....|..|--- .... ....|--- .... ....|R-- .... ....
....|..|F#4 .F1F ....|--- .... ....|G#3 ...7 ....
....|..|C#6 .F.F ....|--- .... ....|R-- .... ....
....|..|R-- .... ....|--- .... ....|F#3 ...F ....
....|..|R-- .... ....|--- .... ....|R-- .... ....
....|..|F#4 .F1F ....|--- .... ....|G#3 ...F ....
....|..|R-- .... ....|--- .... ....|R-- .... ....
....|..|A-5 .F.A ....|--- .... ....|--- .... ....
....|..|R-- .... ....|--- .... ....|--- .... ....
....|..|F#4 .F1F ....|--- .... ....|A-3 ...F ....
....|..|F#4 .F6F ....|--- .... ....|R-- .... ....
....|..|R-- .... ....|--- .... ....|F#3 ...A ....
....|..|--- .... ....|--- .... ....|R-- .... ....
....|..|F#4 .F1F ....|--- .... ....|C#3 ...F ....
....|..|B-5 .F.7 ....|--- .... ....|R-- .... ....
....|..|R-- .... ....|--- .... ....|F#3 ...A ....
....|..|--- .... ....|--- .... ....|R-- .... ....
....|..|F#4 .F1F ....|--- .... ....|F#3 ...7 ....
....|..|R-- .... ....|--- .... ....|R-- .... ....
....|..|A-5 .F.7 ....|--- .... ....|--- .... ....
....|..|R-- .... ....|--- .... ....|--- .... ....
....|..|F#4 .F1F ....|--- .... ....|A-3 ...A ....
....|..|R-- .... ....|--- .... ....|R-- .... ....
....|..|R-- .... ....|--- .... ....|C#3 ...F ....
....|..|--- .... ....|--- .... ....|R-- .... ....
....|..|F#4 .F2F ....|--- .... ....|F#3 ...F ....
....|..|C#6 .F.7 ....|--- .... ....|R-- .... ....
....|..|R-- .... ....|--- .... ....|F#3 ...7 ....
....|..|R-- .... ....|--- .... ....|R-- .... ....
....|..|F#4 .F2F ....|--- .... ....|G#3 ...7 ....
....|..|R-- .... ....|--- .... ....|R-- .... ....
....|..|R-- .... ....|--- .... ....|F#3 ...F ....
....|..|--- .... ....|--- .... ....|R-- .... ....
....|..|F#4 .F2F ....|--- .... ....|A-3 ...7 ....
....|..|F#4 .F67 ....|--- .... ....|R-- .... ....
....|..|R-- .... ....|--- .... ....|F#3 ...F ....
....|..|--- .... ....|--- .... ....|R-- .... ....
....|..|F#4 .F2F ....|--- .... ....|G#3 ...F ....
....|..|A-4 .F7F ....|--- .... ....|R-- .... ....
....|..|R-- .... ....|--- .... ....|--- .... ....
....|..|R-- .... ....|--- .... ....|--- .... ....
....|..|F#4 .F2F ....|--- .... ....|A-3 ...F ....
....|..|R-- .... ....|--- .... ....|R-- .... ....
....|..|R-- .... ....|--- .... ....|F#3 ...A ....
....|..|--- .... ....|--- .... ....|R-- .... ....
....|..|F#4 .F2F ....|--- .... ....|C#3 ...F ....
....|..|R-- .... ....|--- .... ....|R-- .... ....
....|..|--- .... ....|--- .... ....|C#3 ...7 ....
....|..|--- .... ....|--- .... ....|R-- .... ....
....|..|F#4 .F2F ....|--- .... ....|F#3 ...7 ....
....|..|R-- .... ....|--- .... ....|R-- .... ....
....|..|R-- .... ....|--- .... ....|--- .... ....
....|..|R-- .... ....|--- .... ....|--- .... ....
....|..|F#4 .F2F ....|--- .... ....|A-3 ...A ....
....|..|R-- .... ....|--- .... ....|R-- .... ....
....|..|--- .... ....|--- .... ....|C#3 ...F ....
....|..|--- .... ....|--- .... ....|R-- .... ....

[Pattern21]
....|..|F#4 .F8F ....|--- .... ....|F#3 ...F ....
....|..|R-- .... ....|--- .... ....|R-- .... ....
....|..|R-- .... ....|--- .... ....|F#3 ...7 ....
....|..|--- .... ....|--- .... ....|R-- .... ....
....|..|F#4 .F8F ....|--- .... ....|G#3 ...7 ....
....|..|B-5 .F.F ....|--- .... ....|R-- .... ....
....|..|R-- .... ....|--- .... ....|F#3 ...F ....
....|..|--- .... ....|--- .... ....|R-- .... ....
....|..|F#4 .F8F ....|--- .... ....|A-3 ...7 ....
....|..|R-- .... ....|--- .... ....|R-- .... ....
....|..|--- .... ....|--- .... ....|F#3 ...F ....
....|..|--- .... ....|--- .... ....|R-- .... ....
....|..|F#4 .F8F ....|--- .... ....|G#3 ...F ....
....|..|R-- .... ....|--- .... ....|R-- .... ....
....|..|R-- .... ....|--- .... ....|--- .... ....
....|..|--- .... ....|--- .... ....|--- .... ....
....|..|F#4 .F8F ....|--- .... ....|A-3 ...F ....
....|..|R-- .... ....|--- .... ....|R-- .... ....
....|..|R-- .... ....|--- .... ....|F#3 ...A ....
....|..|--- .... ....|--- .... ....|R-- .... ....
....|..|F#4 .F8F ....|--- .... ....|B-3 ...F ....
....|..|R-- .... ....|--- .... ....|R-- .... ....
....|..|--- .... ....|--- .... ....|C#3 ...7 ....
....|..|--- .... ....|--- .... ....|R-- .... ....
....|..|F#4 .F8F ....|--- .... ....|F#3 ...7 ....
....|..|B-5 .F.F ....|--- .... ....|R-- .... ....
....|..|R-- .... ....|--- .... ....|--- .... ....
....|..|--- .... ....|--- .... ....|--- .... ....
....|..|F#4 .F8F ....|--- .... ....|A-3 ...A ....
....|..|B-5 .F.7 ....|--- .... ....|R-- .... ....
....|..|R-- .... ....|--- .... ....|F#3 ...7 ....
....|..|--- .... ....|--- .... ....|R-- .... ....
....|..|E-4 .F3F ....|--- .... ....|E-3 ...F ....
....|..|R-- .... ....|--- .... ....|R-- .... ....
....|..|R-- .... ....|--- .... ....|F#3 ...7 ....
....|..|--- .... ....|--- .... ....|R-- .... ....
....|..|E-4 .F3F ....|--- .... ....|E-3 ...F ....
....|..|R-- .... ....|--- .... ....|R-- .... ....
....|..|R-- .... ....|--- .... ....|F#3 ...F ....
....|..|--- .... ....|--- .... ....|--- .... ....
....|..|E-4 .F3F ....|--- .... ....|A-3 ...7 ....
....|..|R-- .... ....|--- .... ....|R-- .... ....
....|..|--- .... ....|--- .... ....|E-3 ...F ....
....|..|--- .... ....|--- .... ....|R-- .... ....
....|..|E-4 .F3F ....|--- .... ....|E-3 ...F ....
....|..|E-4 .F6F ....|--- .... ....|R-- .... ....
....|..|R-- .... ....|--- .... ....|R-- .... ....
....|..|--- .... ....|--- .... ....|--- .... ....
....|..|E-4 .F3F ....|--- .... ....|E-3 ...A ....
....|..|B-5 .F.7 ....|--- .... ....|R-- .... ....
....|..|R-- .... ....|--- .... ....|F#3 ...F ....
....|..|--- .... ....|--- .... ....|R-- .... ....
....|..|E-4 .F3F ....|--- .... ....|E-3 ...F ....
....|..|R-- .... ....|--- .... ....|R-- .... ....
....|..|--- .... ....|--- .... ....|E-3 ...A ....
....|..|--- .... ....|--- .... ....|R-- .... ....
....|..|E-4 .F3F ....|--- .... ....|F#3 ...F ....
....|..|R-- .... ....|--- .... ....|R-- .... ....
....|..|R-- .... ....|--- .... ....|E-3 ...F ....
....|..|--- .... ....|--- .... ....|R-- .... ....
....|..|E-4 .F3F ....|--- .... ....|E-3 ...F ....
....|..|R-- .... ....|--- .... ....|R-- .... ....
....|..|--- .... ....|--- .... ....|F#3 ...F ....
....|..|--- .... ....|--- .... ....|R-- .... ....

[Pattern22]
....|..|F#4 .F1F ....|--- .... ....|F#3 ...F ....
....|..|R-- .... ....|--- .... ....|R-- .... ....
....|..|--- .... ....|--- .... ....|F#3 ...F ....
....|..|R-- .... ....|--- .... ....|R-- .... ....
....|..|F#4 .F1F ....|--- .... ....|E-3 ...7 ....
....|..|E-4 .F67 ....|--- .... ....|R-- .... ....
....|..|R-- .... ....|--- .... ....|E-3 ...A ....
....|..|--- .... ....|--- .... ....|R-- .... ....
....|..|F#4 .F1F ....|B-6 ...F ....|F#3 ...F ....
....|..|R-- .... ....|F#6 ...F ....|R-- .... ....
....|..|R-- .... ....|R-- .... ....|F#3 ...7 ....
....|..|--- .... ....|--- .... ....|R-- .... ....
....|..|F#4 .F1F ....|--- .... ....|E-3 ...7 ....
....|..|R-- .... ....|--- .... ....|R-- .... ....
....|..|R-- .... ....|--- .... ....|F#3 ...F ....
....|..|R-- .... ....|--- .... ....|R-- .... ....
....|..|F#4 .F1F ....|A-6 ...F ....|E-3 ...F ....
....|..|R-- .... ....|R-- .... ....|R-- .... ....
....|..|R-- .... ....|--- .... ....|E-3 ...7 ....
....|..|--- .... ....|--- .... ....|R-- .... ....
....|..|F#4 .F1F ....|B-6 ...A ....|C#3 ...F ....
....|..|R-- .... ....|F#6 ...A ....|R-- .... ....
....|..|R-- .... ....|R-- .... ....|F#3 ...7 ....
....|..|--- .... ....|--- .... ....|R-- .... ....
....|..|F#4 .F1F ....|F#6 ...F ....|F#3 ...7 ....
....|..|--- .... ....|R-- .... ....|R-- .... ....
....|..|R-- .... ....|--- .... ....|C#3 ...F ....
....|..|R-- .... ....|--- .... ....|R-- .... ....
....|..|F#4 .F1F ....|A-6 ...A ....|E-3 ...A ....
....|..|--- .... ....|R-- .... ....|--- .... ....
....|..|R-- .... ....|--- .... ....|R-- .... ....
....|..|--- .... ....|--- .... ....|--- .... ....
....|..|F#4 .F2F ....|B-6 ...7 ....|C#3 ...F ....
....|..|--- .... ....|F#6 ...7 ....|R-- .... ....
....|..|R-- .... ....|R-- .... ....|--- .... ....
....|..|R-- .... ....|--- .... ....|--- .... ....
....|..|F#4 .F2F ....|F#6 ...F ....|--- .... ....
....|..|--- .... ....|R-- .... ....|--- .... ....
....|..|F#4 .FDF ....|--- .... ....|C#3 ...F ....
....|..|R-- .... ....|--- .... ....|R-- .... ....
....|..|F#4 .F2F ....|A-6 ...7 ....|C#3 ...F ....
....|..|--- .... ....|R-- .... ....|--- .... ....
....|..|F#4 .FDF ....|--- .... ....|R-- .... ....
....|..|R-- .... ....|--- .... ....|--- .... ....
....|..|F#4 .F2F ....|A-6 ...F ....|E-3 ...F ....
....|..|--- .... ....|R-- .... ....|R-- .... ....
....|..|F#4 .FDF ....|--- .... ....|--- .... ....
....|..|R-- .... ....|--- .... ....|--- .... ....
....|..|F#4 .F2F ....|F#6 ...7 ....|--- .... ....
....|..|--- .... ....|R-- .... ....|--- .... ....
....|..|F#4 .FDF ....|--- .... ....|C#3 ...7 ....
....|..|R-- .... ....|--- .... ....|R-- .... ....
....|..|F#4 .F2F ....|F#6 ...F ....|C#3 ...F ....
....|..|--- .... ....|R-- .... ....|R-- .... ....
....|..|F#4 .FDF ....|--- .... ....|R-- .... ....
....|..|R-- .... ....|--- .... ....|--- .... ....
....|..|F#4 .F2F ....|A-6 ...A ....|C#3 ...7 ....
....|..|--- .... ....|R-- .... ....|R-- .... ....
....|..|F#4 .FDA ....|--- .... ....|--- .... ....
....|..|R-- .... ....|--- .... ....|--- .... ....
....|..|F#4 .F2F ....|B-4 ...F ....|B-2 ...F ....
....|..|--- .... ....|R-- .... ....|R-- .... ....
....|..|F#4 .FD7 ....|--- .... ....|C#3 ...7 ....
....|..|R-- .... ....|--- .... ....|R-- .... ....

[Pattern23]
....|..|F#4 .F8F ....|F#6 ...A ....|B-2 ...F ....
....|..|--- .... ....|R-- .... ....|R-- .... ....
....|..|F#4 .FD7 ....|--- .... ....|R-- .... ....
....|..|R-- .... ....|--- .... ....|--- .... ....
....|..|F#4 .F8F ....|A-6 ...7 ....|E-3 ...7 ....
....|..|--- .... ....|R-- .... ....|R-- .... ....
....|..|F#4 .F7F ....|--- .... ....|F#3 ...F ....
....|..|R-- .... ....|--- .... ....|R-- .... ....
....|..|F#4 .F8F ....|B-6 ...F ....|F#3 ...F ....
....|..|--- .... ....|R-- .... ....|R-- .... ....
....|..|F#4 .FD7 ....|--- .... ....|--- .... ....
....|..|R-- .... ....|--- .... ....|--- .... ....
....|..|F#4 .F8F ....|F#6 ...7 ....|C#3 ...7 ....
....|..|--- .... ....|R-- .... ....|R-- .... ....
....|..|F#4 .F7F ....|--- .... ....|F#3 ...F ....
....|..|R-- .... ....|--- .... ....|R-- .... ....
....|..|F#4 .F8F ....|A-6 ...F ....|E-3 ...F ....
....|..|--- .... ....|A-6 ...F ....|R-- .... ....
....|..|F#4 .F7F ....|R-- .... ....|F#3 ...A ....
....|..|R-- .... ....|--- .... ....|R-- .... ....
....|..|F#4 .F8F ....|B-4 ...7 ....|B-2 ...F ....
....|..|--- .... ....|R-- .... ....|R-- .... ....
....|..|F#4 .F7F ....|--- .... ....|--- .... ....
....|..|R-- .... ....|--- .... ....|--- .... ....
....|..|F#4 .F8F ....|F#6 ...F ....|B-2 ...7 ....
....|..|--- .... ....|R-- .... ....|R-- .... ....
....|..|F#4 .F7F ....|--- .... ....|B-2 ...F ....
....|..|R-- .... ....|--- .... ....|R-- .... ....
....|..|F#4 .F8F ....|A-6 ...A ....|E-3 ...A ....
....|..|--- .... ....|A-6 ...A ....|R-- .... ....
....|..|F#4 .F7F ....|R-- .... ....|F#3 ...7 ....
....|..|R-- .... ....|--- .... ....|R-- .... ....
....|..|E-4 .F3F ....|E-6 ...F ....|E-3 ...F ....
....|..|--- .... ....|R-- .... ....|R-- .... ....
....|..|F#4 .F7A ....|--- .... ....|--- .... ....
....|..|R-- .... ....|--- .... ....|--- .... ....
....|..|E-4 .F3F ....|F#6 ...F ....|C#3 ...F ....
....|..|--- .... ....|F#6 ...F ....|--- .... ....
....|..|F#4 .F77 ....|R-- .... ....|F#3 ...7 ....
....|..|R-- .... ....|--- .... ....|R-- .... ....
....|..|E-4 .F3F ....|A-6 ...7 ....|E-3 ...7 ....
....|..|--- .... ....|A-6 ...7 ....|R-- .... ....
....|..|F#4 .F77 ....|R-- .... ....|--- .... ....
....|..|R-- .... ....|--- .... ....|--- .... ....
....|..|E-4 .F3F ....|A-6 ...F ....|E-3 ...F ....
....|..|--- .... ....|R-- .... ....|R-- .... ....
....|..|F#4 .F77 ....|R-- .... ....|--- .... ....
....|..|R-- .... ....|--- .... ....|--- .... ....
....|..|E-4 .F3F ....|F#6 ...7 ....|C#3 ...A ....
....|..|--- .... ....|R-- .... ....|--- .... ....
....|..|F#4 .F77 ....|R-- .... ....|B-2 ...7 ....
....|..|R-- .... ....|--- .... ....|R-- .... ....
....|..|E-4 .F3F ....|F#6 ...F ....|C#3 ...F ....
....|..|--- .... ....|F#6 ...F ....|R-- .... ....
....|..|F#4 .F77 ....|R-- .... ....|--- .... ....
....|..|R-- .... ....|--- .... ....|--- .... ....
....|..|E-4 .F3F ....|E-6 ...7 ....|E-3 ...7 ....
....|..|--- .... ....|R-- .... ....|R-- .... ....
....|..|E-4 .F6F ....|R-- .... ....|--- .... ....
....|..|R-- .... ....|--- .... ....|--- .... ....
....|..|E-4 .F3F ....|F#6 ...7 ....|B-2 ...F ....
....|..|--- .... ....|F#6 ...7 ....|R-- .... ....
....|..|E-5 .F.F ....|R-- .... ....|R-- .... ....
....|..|R-- .... ....|--- .... ....|--- .... ....

[Pattern24]
....|..|F#4 .F1F ....|F#6 ...A ....|F#3 ...F ....
....|..|--- .... ....|F#6 ...A ....|R-- .... ....
....|..|--- .... ....|R-- .... ....|F#3 ...F ....
....|..|R-- .... ....|--- .... ....|R-- .... ....
....|..|F#4 .F1F ....|A-6 ...7 ....|E-3 ...7 ....
....|..|--- .... ....|--- .... ....|R-- .... ....
....|..|R-- .... ....|R-- .... ....|--- .... ....
....|..|R-- .... ....|--- .... ....|--- .... ....
....|..|F#4 .F1F ....|B-6 ...F ....|F#3 ...F ....
....|..|--- .... ....|--- .... ....|R-- .... ....
....|..|R-- .... ....|R-- .... ....|--- .... ....
....|..|R-- .... ....|--- .... ....|--- .... ....
....|..|F#4 .F1F ....|F#6 ...7 ....|C#3 ...7 ....
....|..|--- .... ....|F#6 ...7 ....|R-- .... ....
....|..|R-- .... ....|R-- .... ....|F#3 ...F ....
....|..|R-- .... ....|--- .... ....|R-- .... ....
....|..|F#4 .F1F ....|A-6 ...F ....|E-3 ...F ....
....|..|--- .... ....|--- .... ....|--- .... ....
....|..|E-4 .F67 ....|R-- .... ....|R-- .... ....
....|..|R-- .... ....|--- .... ....|--- .... ....
....|..|F#4 .F1F ....|B-6 ...A ....|C#3 ...F ....
....|..|--- .... ....|--- .... ....|R-- .... ....
....|..|E-5 .F.7 ....|R-- .... ....|--- .... ....
....|..|R-- .... ....|--- .... ....|--- .... ....
....|..|F#4 .F1F ....|F#6 ...F ....|F#3 ...7 ....
....|..|--- .... ....|C#6 ...F ....|R-- .... ....
....|..|R-- .... ....|R-- .... ....|C#3 ...F ....
....|..|R-- .... ....|--- .... ....|R-- .... ....
....|..|F#4 .F1F ....|A-6 ...A ....|E-3 ...A ....
....|..|--- .... ....|--- .... ....|--- .... ....
....|..|R-- .... ....|R-- .... ....|R-- .... ....
....|..|--- .... ....|--- .... ....|--- .... ....
....|..|F#4 .F2F ....|B-6 ...7 ....|C#3 ...F ....
....|..|--- .... ....|--- .... ....|R-- .... ....
....|..|R-- .... ....|R-- .... ....|--- .... ....
....|..|R-- .... ....|--- .... ....|--- .... ....
....|..|F#4 .F2F ....|F#6 ...F ....|--- .... ....
....|..|--- .... ....|C#6 ...A ....|--- .... ....
....|..|F#4 .FDF ....|R-- .... ....|C#3 ...F ....
....|..|R-- .... ....|--- .... ....|R-- .... ....
....|..|F#4 .F2F ....|A-6 ...7 ....|C#3 ...F ....
....|..|--- .... ....|--- .... ....|--- .... ....
....|..|F#4 .FDF ....|R-- .... ....|R-- .... ....
....|..|R-- .... ....|--- .... ....|--- .... ....
....|..|F#4 .F2F ....|A-6 ...F ....|E-3 ...F ....
....|..|--- .... ....|--- .... ....|R-- .... ....
....|..|F#4 .FDF ....|R-- .... ....|--- .... ....
....|..|R-- .... ....|--- .... ....|--- .... ....
....|..|F#4 .F2F ....|F#6 ...7 ....|--- .... ....
....|..|--- .... ....|C#6 ...7 ....|--- .... ....
....|..|F#4 .FDF ....|R-- .... ....|C#3 ...7 ....
....|..|R-- .... ....|--- .... ....|R-- .... ....
....|..|F#4 .F2F ....|F#6 ...F ....|C#3 ...F ....
....|..|--- .... ....|--- .... ....|R-- .... ....
....|..|F#4 .FDF ....|R-- .... ....|R-- .... ....
....|..|R-- .... ....|--- .... ....|--- .... ....
....|..|F#4 .F2F ....|A-6 ...A ....|C#3 ...7 ....
....|..|--- .... ....|--- .... ....|R-- .... ....
....|..|F#4 .FDA ....|R-- .... ....|--- .... ....
....|..|R-- .... ....|--- .... ....|--- .... ....
....|..|F#4 .F2F ....|B-4 ...F ....|B-2 ...F ....
....|..|--- .... ....|R-- .... ....|R-- .... ....
....|..|F#4 .FD7 ....|R-- .... ....|C#3 ...7 ....
....|..|R-- .... ....|--- .... ....|R-- .... ....

[Pattern25]
....|..|F#4 .F8F ....|F#6 ...A ....|B-2 ...F ....
....|..|--- .... ....|--- .... ....|R-- .... ....
....|..|F#4 .FD7 ....|R-- .... ....|R-- .... ....
....|..|R-- .... ....|--- .... ....|--- .... ....
....|..|F#4 .F8F ....|A-6 ...7 ....|E-3 ...7 ....
....|..|--- .... ....|--- .... ....|R-- .... ....
....|..|F#4 .F7F ....|R-- .... ....|F#3 ...F ....
....|..|R-- .... ....|--- .... ....|R-- .... ....
....|..|F#4 .F8F ....|B-6 ...F ....|F#3 ...F ....
....|..|--- .... ....|R-- .... ....|R-- .... ....
....|..|F#4 .FD7 ....|R-- .... ....|--- .... ....
....|..|R-- .... ....|--- .... ....|--- .... ....
....|..|F#4 .F8F ....|F#6 ...7 ....|C#3 ...7 ....
....|..|--- .... ....|--- .... ....|R-- .... ....
....|..|F#4 .F7F ....|R-- .... ....|F#3 ...F ....
....|..|R-- .... ....|--- .... ....|R-- .... ....
....|..|F#4 .F8F ....|A-6 ...F ....|E-3 ...F ....
....|..|--- .... ....|--- .... ....|R-- .... ....
....|..|F#4 .F7F ....|R-- .... ....|F#3 ...A ....
....|..|R-- .... ....|--- .... ....|R-- .... ....
....|..|F#4 .F8F ....|B-4 ...7 ....|B-2 ...F ....
....|..|--- .... ....|R-- .... ....|R-- .... ....
....|..|F#4 .F7F ....|R-- .... ....|--- .... ....
....|..|R-- .... ....|--- .... ....|--- .... ....
....|..|F#4 .F8F ....|F#6 ...F ....|B-2 ...7 ....
....|..|--- .... ....|R-- .... ....|R-- .... ....
....|..|F#4 .F7F ....|--- .... ....|B-2 ...F ....
....|..|R-- .... ....|--- .... ....|R-- .... ....
....|..|F#4 .F8F ....|A-6 ...A ....|E-3 ...A ....
....|..|--- .... ....|--- .... ....|R-- .... ....
....|..|F#4 .F7F ....|R-- .... ....|F#3 ...7 ....
....|..|R-- .... ....|--- .... ....|R-- .... ....
....|..|E-4 .F3F ....|E-6 ...F ....|E-3 ...F ....
....|..|--- .... ....|R-- .... ....|R-- .... ....
....|..|F#4 .F7A ....|R-- .... ....|--- .... ....
....|..|R-- .... ....|--- .... ....|--- .... ....
....|..|E-4 .F3F ....|F#6 ...F ....|C#3 ...F ....
....|..|--- .... ....|R-- .... ....|--- .... ....
....|..|F#4 .F77 ....|R-- .... ....|F#3 ...7 ....
....|..|R-- .... ....|--- .... ....|R-- .... ....
....|..|E-4 .F3F ....|A-6 ...7 ....|E-3 ...7 ....
....|..|--- .... ....|--- .... ....|R-- .... ....
....|..|F#4 .F77 ....|R-- .... ....|--- .... ....
....|..|R-- .... ....|--- .... ....|--- .... ....
....|..|E-4 .F3F ....|A-6 ...F ....|E-3 ...F ....
....|..|--- .... ....|R-- .... ....|R-- .... ....
....|..|F#4 .F77 ....|R-- .... ....|--- .... ....
....|..|R-- .... ....|--- .... ....|--- .... ....
....|..|E-4 .F3F ....|F#6 ...7 ....|C#3 ...A ....
....|..|--- .... ....|R-- .... ....|--- .... ....
....|..|F#4 .F77 ....|R-- .... ....|B-2 ...7 ....
....|..|R-- .... ....|--- .... ....|R-- .... ....
....|..|E-4 .F3F ....|F#6 ...F ....|C#3 ...F ....
....|..|--- .... ....|R-- .... ....|R-- .... ....
....|..|F#4 .F77 ....|--- .... ....|--- .... ....
....|..|R-- .... ....|--- .... ....|--- .... ....
....|..|E-4 .F3F ....|E-6 ...7 ....|E-3 ...7 ....
....|..|--- .... ....|R-- .... ....|R-- .... ....
....|..|E-4 .F6F ....|R-- .... ....|--- .... ....
....|..|R-- .... ....|--- .... ....|--- .... ....
....|..|E-4 .F3F ....|E-6 ...F ....|B-2 ...F ....
....|..|--- .... ....|R-- .... ....|R-- .... ....
....|..|E-5 .F.F ....|R-- .... ....|R-- .... ....
....|..|R-- .... ....|--- .... ....|--- .... ....

[Pattern26]
....|..|B-4 .F9F ....|F#6 ...A ....|B-2 ...F ....
....|..|--- .... ....|R-- .... ....|R-- .... ....
....|..|B-4 .F.F ....|--- .... ....|--- .... ....
....|..|R-- .... ....|--- .... ....|R-- .... ....
....|..|B-4 .F9F ....|A-6 ...7 ....|E-3 ...7 ....
....|..|B-4 .F6F ....|--- .... ....|R-- .... ....
....|..|R-- .... ....|R-- .... ....|B-2 ...F ....
....|..|R-- .... ....|--- .... ....|R-- .... ....
....|..|B-4 .F9F ....|B-6 ...F ....|F#3 ...F ....
....|..|R-- .... ....|F#6 ...F ....|R-- .... ....
....|..|E-5 .F.A ....|R-- .... ....|--- .... ....
....|..|R-- .... ....|--- .... ....|R-- .... ....
....|..|B-4 .F9F ....|F#6 ...7 ....|C#3 ...7 ....
....|..|--- .... ....|R-- .... ....|R-- .... ....
....|..|B-4 .F.F ....|--- .... ....|--- .... ....
....|..|R-- .... ....|--- .... ....|R-- .... ....
....|..|B-4 .F9F ....|A-6 ...F ....|E-3 ...F ....
....|..|B-4 .FAF ....|R-- .... ....|--- .... ....
....|..|E-4 .F67 ....|--- .... ....|B-2 ...A ....
....|..|R-- .... ....|--- .... ....|R-- .... ....
....|..|B-4 .F9F ....|E-6 ...7 ....|B-2 ...7 ....
....|..|R-- .... ....|R-- .... ....|R-- .... ....
....|..|E-5 .F.7 ....|R-- .... ....|--- .... ....
....|..|R-- .... ....|--- .... ....|R-- .... ....
....|..|B-4 .F9F ....|F#6 ...F ....|C#3 ...F ....
....|..|B-4 .FAF ....|R-- .... ....|--- .... ....
....|..|B-4 .F.7 ....|--- .... ....|R-- .... ....
....|..|R-- .... ....|--- .... ....|R-- .... ....
....|..|B-4 .F9F ....|A-6 ...A ....|E-3 ...A ....
....|..|B-4 .F67 ....|R-- .... ....|--- .... ....
....|..|R-- .... ....|--- .... ....|B-2 ...7 ....
....|..|--- .... ....|--- .... ....|R-- .... ....
....|..|E-4 .F3F ....|B-6 ...7 ....|B-2 ...F ....
....|..|R-- .... ....|F#6 ...7 ....|--- .... ....
....|..|--- .... ....|R-- .... ....|R-- .... ....
....|..|R-- .... ....|--- .... ....|R-- .... ....
....|..|E-4 .FBF ....|F#6 ...F ....|C#3 ...F ....
....|..|R-- .... ....|R-- .... ....|--- .... ....
....|..|B-4 .F.7 ....|--- .... ....|R-- .... ....
....|..|R-- .... ....|--- .... ....|--- .... ....
....|..|E-4 .F3F ....|A-6 ...7 ....|E-3 ...7 ....
....|..|B-4 .FA7 ....|R-- .... ....|--- .... ....
....|..|R-- .... ....|--- .... ....|--- .... ....
....|..|--- .... ....|--- .... ....|R-- .... ....
....|..|E-4 .FCF ....|A-6 ...F ....|E-3 ...F ....
....|..|R-- .... ....|R-- .... ....|--- .... ....
....|..|B-5 .F.F ....|--- .... ....|R-- .... ....
....|..|R-- .... ....|--- .... ....|--- .... ....
....|..|E-4 .F3F ....|F#6 ...7 ....|C#3 ...7 ....
....|..|E-4 .FBF ....|R-- .... ....|--- .... ....
....|..|R-- .... ....|--- .... ....|R-- .... ....
....|..|--- .... ....|--- .... ....|--- .... ....
....|..|E-4 .F3F ....|F#6 ...F ....|C#3 ...F ....
....|..|R-- .... ....|R-- .... ....|R-- .... ....
....|..|R-- .... ....|--- .... ....|--- .... ....
....|..|--- .... ....|--- .... ....|--- .... ....
....|..|E-4 .FCF ....|A-6 ...A ....|E-3 ...F ....
....|..|--- .... ....|R-- .... ....|R-- .... ....
....|..|B-5 .F.A ....|--- .... ....|R-- .... ....
....|..|R-- .... ....|--- .... ....|--- .... ....
....|..|E-4 .F3F ....|B-4 ...F ....|F#3 ...F ....
....|..|R-- .... ....|R-- .... ....|R-- .... ....
....|..|R-- .... ....|--- .... ....|R-- .... ....
....|..|--- .... ....|--- .... ....|--- .... ....

[Pattern27]
....|..|F#4 .F1F ....|F#6 ...A ....|F#2 ...F ....
....|..|R-- .... ....|R-- .... ....|R-- .... ....
....|..|F#4 .FDF ....|--- .... ....|--- .... ....
....|..|R-- .... ....|--- .... ....|--- .... ....
....|..|F#4 .F1F ....|A-6 ...7 ....|E-3 ...7 ....
....|..|F#4 .F6F ....|R-- .... ....|R-- .... ....
....|..|B-5 .F.7 ....|--- .... ....|F#2 ...F ....
....|..|R-- .... ....|--- .... ....|R-- .... ....
....|..|F#4 .F1F ....|B-6 ...F ....|F#3 ...F ....
....|..|E-4 .FB7 ....|R-- .... ....|R-- .... ....
....|..|R-- .... ....|--- .... ....|R-- .... ....
....|..|--- .... ....|--- .... ....|--- .... ....
....|..|F#4 .F1F ....|F#6 ...7 ....|C#3 ...7 ....
....|..|--- .... ....|R-- .... ....|R-- .... ....
....|..|R-- .... ....|--- .... ....|F#3 ...F ....
....|..|R-- .... ....|--- .... ....|R-- .... ....
....|..|E-4 .FC7 ....|A-6 ...F ....|E-3 ...F ....
....|..|R-- .... ....|A-6 ...F ....|R-- .... ....
....|..|R-- .... ....|R-- .... ....|R-- .... ....
....|..|R-- .... ....|--- .... ....|R-- .... ....
....|..|F#4 .F1F ....|B-4 ...7 ....|C#3 ...F ....
....|..|R-- .... ....|R-- .... ....|R-- .... ....
....|..|R-- .... ....|--- .... ....|R-- .... ....
....|..|--- .... ....|--- .... ....|--- .... ....
....|..|F#4 .F1F ....|F#6 ...F ....|F#2 ...7 ....
....|..|--- .... ....|R-- .... ....|R-- .... ....
....|..|F#4 .FD7 ....|--- .... ....|C#3 ...F ....
....|..|R-- .... ....|--- .... ....|R-- .... ....
....|..|F#4 .F1F ....|A-6 ...A ....|E-3 ...A ....
....|..|F#4 .F6F ....|A-6 ...A ....|--- .... ....
....|..|R-- .... ....|R-- .... ....|F#2 ...7 ....
....|..|--- .... ....|--- .... ....|R-- .... ....
....|..|F#4 .FEF ....|E-6 ...F ....|B-2 ...F ....
....|..|R-- .... ....|R-- .... ....|R-- .... ....
....|..|R-- .... ....|--- .... ....|R-- .... ....
....|..|--- .... ....|--- .... ....|--- .... ....
....|..|F#4 .FEF ....|F#6 ...F ....|C#3 ...F ....
....|..|F#5 .F.F ....|F#6 ...F ....|R-- .... ....
....|..|R-- .... ....|R-- .... ....|F#3 ...7 ....
....|..|--- .... ....|--- .... ....|R-- .... ....
....|..|F#4 .FEF ....|A-6 ...7 ....|E-3 ...7 ....
....|..|R-- .... ....|A-6 ...7 ....|--- .... ....
....|..|R-- .... ....|R-- .... ....|R-- .... ....
....|..|--- .... ....|--- .... ....|--- .... ....
....|..|F#4 .F1F ....|A-6 ...F ....|E-3 ...F ....
....|..|R-- .... ....|R-- .... ....|R-- .... ....
....|..|A-5 .F.F ....|R-- .... ....|R-- .... ....
....|..|R-- .... ....|--- .... ....|--- .... ....
....|..|F#4 .F6F ....|F#6 ...7 ....|C#3 ...A ....
....|..|F#5 .F.A ....|R-- .... ....|R-- .... ....
....|..|R-- .... ....|R-- .... ....|C#3 ...7 ....
....|..|--- .... ....|--- .... ....|R-- .... ....
....|..|F#4 .FEF ....|F#6 ...F ....|C#3 ...F ....
....|..|F#4 .F6F ....|F#6 ...F ....|R-- .... ....
....|..|R-- .... ....|R-- .... ....|--- .... ....
....|..|--- .... ....|--- .... ....|--- .... ....
....|..|F#4 .FEF ....|E-6 ...7 ....|B-2 ...F ....
....|..|--- .... ....|R-- .... ....|R-- .... ....
....|..|G#4 .F7F ....|R-- .... ....|--- .... ....
....|..|R-- .... ....|--- .... ....|--- .... ....
....|..|F#4 .F1F ....|F#6 ...7 ....|C#3 ...7 ....
....|..|F#5 .F.7 ....|F#6 ...7 ....|R-- .... ....
....|..|F#4 .F6F ....|R-- .... ....|--- .... ....
....|..|R-- .... ....|--- .... ....|--- .... ....

[Pattern28]
....|..|B-4 .F9F ....|F#6 ...A ....|B-2 ...F ....
....|..|F#4 .F6A ....|F#6 ...A ....|R-- .... ....
....|..|R-- .... ....|R-- .... ....|R-- .... ....
....|..|R-- .... ....|--- .... ....|--- .... ....
....|..|B-4 .F9F ....|A-6 ...7 ....|E-3 ...7 ....
....|..|--- .... ....|--- .... ....|R-- .... ....
....|..|A-5 .F.7 ....|R-- .... ....|--- .... ....
....|..|R-- .... ....|--- .... ....|--- .... ....
....|..|B-4 .F9F ....|B-6 ...F ....|F#3 ...F ....
....|..|F#5 .F.F ....|--- .... ....|--- .... ....
....|..|R-- .... ....|R-- .... ....|R-- .... ....
....|..|R-- .... ....|--- .... ....|--- .... ....
....|..|B-4 .F9F ....|F#6 ...7 ....|C#3 ...7 ....
....|..|F#4 .F67 ....|F#6 ...7 ....|R-- .... ....
....|..|B-4 .F.F ....|R-- .... ....|F#3 ...F ....
....|..|R-- .... ....|--- .... ....|R-- .... ....
....|..|B-4 .F9F ....|A-6 ...F ....|E-3 ...F ....
....|..|B-4 .F6F ....|--- .... ....|R-- .... ....
....|..|G#4 .F77 ....|R-- .... ....|R-- .... ....
....|..|R-- .... ....|--- .... ....|--- .... ....
....|..|B-4 .F9F ....|B-6 ...A ....|F#3 ...A ....
....|..|R-- .... ....|--- .... ....|--- .... ....
....|..|F#4 .F67 ....|R-- .... ....|R-- .... ....
....|..|R-- .... ....|--- .... ....|--- .... ....
....|..|B-4 .F9F ....|F#6 ...F ....|C#3 ...F ....
....|..|R-- .... ....|C#6 ...F ....|R-- .... ....
....|..|B-4 .F.A ....|R-- .... ....|R-- .... ....
....|..|R-- .... ....|--- .... ....|R-- .... ....
....|..|B-4 .F9F ....|A-6 ...A ....|E-3 ...A ....
....|..|R-- .... ....|--- .... ....|--- .... ....
....|..|R-- .... ....|R-- .... ....|R-- .... ....
....|..|--- .... ....|--- .... ....|--- .... ....
....|..|D-4 .FFF ....|B-6 ...7 ....|B-2 ...F ....
....|..|F#5 .F.7 ....|--- .... ....|R-- .... ....
....|..|D-4 .F.F ....|R-- .... ....|R-- .... ....
....|..|R-- .... ....|--- .... ....|--- .... ....
....|..|D-4 .FFF ....|F#6 ...F ....|C#3 ...F ....
....|..|G#5 .F.F ....|C#6 ...A ....|R-- .... ....
....|..|B-4 .F.7 ....|R-- .... ....|F#3 ...7 ....
....|..|R-- .... ....|--- .... ....|R-- .... ....
....|..|D-4 .FFF ....|A-6 ...7 ....|E-3 ...7 ....
....|..|G#5 .F.F ....|--- .... ....|--- .... ....
....|..|R-- .... ....|R-- .... ....|R-- .... ....
....|..|--- .... ....|--- .... ....|--- .... ....
....|..|D-4 .FFF ....|A-6 ...F ....|E-3 ...F ....
....|..|R-- .... ....|--- .... ....|R-- .... ....
....|..|D-4 .F1F ....|R-- .... ....|R-- .... ....
....|..|R-- .... ....|--- .... ....|--- .... ....
....|..|D-4 .FFF ....|F#6 ...7 ....|C#3 ...7 ....
....|..|F#4 .F2F ....|C#6 ...7 ....|R-- .... ....
....|..|R-- .... ....|R-- .... ....|R-- .... ....
....|..|--- .... ....|--- .... ....|--- .... ....
....|..|D-4 .FFF ....|F#6 ...F ....|C#3 ...F ....
....|..|R-- .... ....|--- .... ....|R-- .... ....
....|..|R-- .... ....|R-- .... ....|--- .... ....
....|..|--- .... ....|--- .... ....|--- .... ....
....|..|D-4 .FFF ....|A-6 ...A ....|E-3 ...F ....
....|..|G#4 .FDF ....|--- .... ....|R-- .... ....
....|..|D-4 .F.7 ....|R-- .... ....|R-- .... ....
....|..|R-- .... ....|--- .... ....|--- .... ....
....|..|D-4 .FFF ....|B-4 ...F ....|F#3 ...F ....
....|..|D-4 .F3F ....|R-- .... ....|R-- .... ....
....|..|R-- .... ....|R-- .... ....|R-- .... ....
....|..|--- .... ....|--- .... ....|--- .... ....

[Pattern29]
....|..|F#4 .F1F ....|F#6 ...A ....|F#3 ...F ....
....|..|G#5 .F.7 ....|--- .... ....|R-- .... ....
....|..|R-- .... ....|R-- .... ....|--- .... ....
....|..|R-- .... ....|--- .... ....|--- .... ....
....|..|F#4 .F1F ....|A-6 ...7 ....|F#3 ...F ....
....|..|G#4 .FDA ....|--- .... ....|R-- .... ....
....|..|D-4 .F17 ....|R-- .... ....|F#3 ...F ....
....|..|R-- .... ....|--- .... ....|R-- .... ....
....|..|F#4 .F1F ....|B-4 ...A ....|F#3 ...F ....
....|..|F#4 .F6F ....|R-- .... ....|R-- .... ....
....|..|R-- .... ....|--- .... ....|--- .... ....
....|..|--- .... ....|--- .... ....|--- .... ....
....|..|F#4 .F1F ....|F#6 ...7 ....|F#3 ...F ....
....|..|R-- .... ....|--- .... ....|R-- .... ....
....|..|F#4 .FDF ....|R-- .... ....|F#3 ...F ....
....|..|R-- .... ....|--- .... ....|R-- .... ....
....|..|F#4 .F1F ....|--- .... ....|F#3 ...F ....
....|..|F#4 .F6F ....|--- .... ....|R-- .... ....
....|..|R-- .... ....|--- .... ....|R-- .... ....
....|..|--- .... ....|--- .... ....|R-- .... ....
....|..|F#4 .F1F ....|B-4 ...7 ....|G#3 ...F ....
....|..|C#6 .F.F ....|R-- .... ....|R-- .... ....
....|..|R-- .... ....|--- .... ....|R-- .... ....
....|..|--- .... ....|--- .... ....|--- .... ....
....|..|F#4 .F1F ....|--- .... ....|A-3 ...F ....
....|..|--- .... ....|--- .... ....|R-- .... ....
....|..|F#4 .FDF ....|--- .... ....|F#3 ...A ....
....|..|R-- .... ....|--- .... ....|R-- .... ....
....|..|F#4 .F1F ....|--- .... ....|F#3 ...F ....
....|..|F#4 .F6A ....|--- .... ....|R-- .... ....
....|..|R-- .... ....|--- .... ....|F#3 ...7 ....
....|..|--- .... ....|--- .... ....|R-- .... ....
....|..|F#4 .F2F ....|--- .... ....|B-3 ...F ....
....|..|F#4 .F67 ....|--- .... ....|R-- .... ....
....|..|R-- .... ....|--- .... ....|R-- .... ....
....|..|R-- .... ....|--- .... ....|--- .... ....
....|..|F#4 .F2F ....|--- .... ....|B-3 ...F ....
....|..|--- .... ....|--- .... ....|R-- .... ....
....|..|F#4 .FD7 ....|--- .... ....|B-3 ...F ....
....|..|R-- .... ....|--- .... ....|R-- .... ....
....|..|F#4 .F2F ....|--- .... ....|B-3 ...F ....
....|..|F#4 .F67 ....|--- .... ....|R-- .... ....
....|..|R-- .... ....|--- .... ....|R-- .... ....
....|..|--- .... ....|--- .... ....|--- .... ....
....|..|F#4 .F2F ....|--- .... ....|B-3 ...F ....
....|..|C#6 .F.7 ....|--- .... ....|R-- .... ....
....|..|R-- .... ....|--- .... ....|B-3 ...F ....
....|..|R-- .... ....|--- .... ....|R-- .... ....
....|..|F#4 .F1F ....|--- .... ....|B-3 ...F ....
....|..|--- .... ....|--- .... ....|R-- .... ....
....|..|F#4 .FD7 ....|--- .... ....|B-3 ...A ....
....|..|R-- .... ....|--- .... ....|R-- .... ....
....|..|F#4 .F1F ....|--- .... ....|A-3 ...F ....
....|..|--- .... ....|--- .... ....|R-- .... ....
....|..|R-- .... ....|--- .... ....|R-- .... ....
....|..|--- .... ....|--- .... ....|--- .... ....
....|..|F#4 .F1F ....|--- .... ....|G#3 ...F ....
....|..|--- .... ....|--- .... ....|R-- .... ....
....|..|R-- .... ....|--- .... ....|B-3 ...A ....
....|..|R-- .... ....|--- .... ....|R-- .... ....
....|..|F#4 .F1F ....|--- .... ....|F#3 ...F ....
....|..|--- .... ....|--- .... ....|R-- .... ....
....|..|F#5 .F.F ....|--- .... ....|B-3 ...7 ....
....|..|R-- .... ....|--- .... ....|R-- .... ....

[Pattern30]
....|..|E-4 .F3F ....|--- .... ....|E-3 ...F ....
....|..|--- .... ....|--- .... ....|R-- .... ....
....|..|R-- .... ....|--- .... ....|R-- .... ....
....|..|R-- .... ....|--- .... ....|--- .... ....
....|..|E-4 .F3F ....|--- .... ....|E-3 ...F ....
....|..|--- .... ....|--- .... ....|R-- .... ....
....|..|E-4 .F6F ....|--- .... ....|E-3 ...F ....
....|..|R-- .... ....|--- .... ....|R-- .... ....
....|..|E-4 .F3F ....|--- .... ....|E-3 ...F ....
....|..|--- .... ....|--- .... ....|R-- .... ....
....|..|R-- .... ....|--- .... ....|--- .... ....
....|..|R-- .... ....|--- .... ....|--- .... ....
....|..|E-4 .F3F ....|--- .... ....|E-3 ...F ....
....|..|--- .... ....|--- .... ....|R-- .... ....
....|..|E-4 .F6F ....|--- .... ....|E-3 ...F ....
....|..|R-- .... ....|--- .... ....|R-- .... ....
....|..|E-4 .F3F ....|--- .... ....|E-3 ...F ....
....|..|--- .... ....|--- .... ....|R-- .... ....
....|..|R-- .... ....|--- .... ....|E-3 ...A ....
....|..|R-- .... ....|--- .... ....|R-- .... ....
....|..|E-4 .F3F ....|--- .... ....|E-3 ...F ....
....|..|E-4 .F6F ....|--- .... ....|R-- .... ....
....|..|F#5 .F.7 ....|--- .... ....|E-3 ...F ....
....|..|R-- .... ....|--- .... ....|R-- .... ....
....|..|E-4 .F3F ....|--- .... ....|E-3 ...F ....
....|..|--- .... ....|--- .... ....|R-- .... ....
....|..|R-- .... ....|--- .... ....|E-3 ...A ....
....|..|R-- .... ....|--- .... ....|R-- .... ....
....|..|E-4 .F3F ....|--- .... ....|B-2 ...F ....
....|..|B-5 .F.F ....|--- .... ....|R-- .... ....
....|..|E-4 .F67 ....|--- .... ....|E-3 ...7 ....
....|..|R-- .... ....|--- .... ....|R-- .... ....
....|..|E-4 .F4F ....|--- .... ....|C#3 ...F ....
....|..|E-4 .F6A ....|--- .... ....|R-- .... ....
....|..|E-5 .F.F ....|--- .... ....|E-3 ...A ....
....|..|R-- .... ....|--- .... ....|R-- .... ....
....|..|E-4 .F4F ....|--- .... ....|C#3 ...F ....
....|..|E-4 .F5F ....|--- .... ....|R-- .... ....
....|..|E-4 .F67 ....|--- .... ....|C#3 ...F ....
....|..|R-- .... ....|--- .... ....|R-- .... ....
....|..|E-4 .F4F ....|--- .... ....|C#3 ...F ....
....|..|B-5 .F.A ....|--- .... ....|R-- .... ....
....|..|R-- .... ....|--- .... ....|--- .... ....
....|..|--- .... ....|--- .... ....|--- .... ....
....|..|E-4 .F4F ....|--- .... ....|C#3 ...F ....
....|..|E-4 .F67 ....|--- .... ....|R-- .... ....
....|..|R-- .... ....|--- .... ....|G#3 ...F ....
....|..|R-- .... ....|--- .... ....|R-- .... ....
....|..|E-4 .F4F ....|--- .... ....|C#4 ...F ....
....|..|E-4 .F5A ....|--- .... ....|R-- .... ....
....|..|A-5 .F.F ....|--- .... ....|C#3 ...A ....
....|..|R-- .... ....|--- .... ....|--- .... ....
....|..|E-4 .F4F ....|--- .... ....|C#4 ...F ....
....|..|B-5 .F.7 ....|--- .... ....|R-- .... ....
....|..|A-5 .F.F ....|--- .... ....|--- .... ....
....|..|R-- .... ....|--- .... ....|--- .... ....
....|..|E-4 .F4F ....|--- .... ....|C#4 ...F ....
....|..|--- .... ....|--- .... ....|R-- .... ....
....|..|A-5 .F.F ....|--- .... ....|G#3 ...A ....
....|..|R-- .... ....|--- .... ....|--- .... ....
....|..|E-4 .F4F ....|--- .... ....|C#3 ...F ....
....|..|E-4 .F57 ....|--- .... ....|R-- .... ....
....|..|E-4 .F7F ....|--- .... ....|C#3 ...7 ....
....|..|R-- .... ....|--- .... ....|--- .... ....

[Pattern31]
....|..|F#4 .F1F ....|--- .... ....|F#3 ...F ....
....|..|--- .... ....|--- .... ....|R-- .... ....
....|..|R-- .... ....|--- .... ....|--- .... ....
....|..|R-- .... ....|--- .... ....|--- .... ....
....|..|F#4 .F1F ....|--- .... ....|F#3 ...F ....
....|..|--- .... ....|--- .... ....|R-- .... ....
....|..|R-- .... ....|--- .... ....|F#3 ...F ....
....|..|R-- .... ....|--- .... ....|R-- .... ....
....|..|F#4 .F1F ....|--- .... ....|F#3 ...F ....
....|..|F#4 .F6F ....|--- .... ....|R-- .... ....
....|..|A-5 .F.7 ....|--- .... ....|--- .... ....
....|..|R-- .... ....|--- .... ....|--- .... ....
....|..|F#4 .F1F ....|--- .... ....|F#3 ...F ....
....|..|--- .... ....|--- .... ....|R-- .... ....
....|..|F#4 .FDF ....|--- .... ....|F#3 ...F ....
....|..|R-- .... ....|--- .... ....|R-- .... ....
....|..|F#4 .F1F ....|--- .... ....|F#3 ...F ....
....|..|F#4 .F6F ....|--- .... ....|R-- .... ....
....|..|A-5 .F.7 ....|--- .... ....|R-- .... ....
....|..|R-- .... ....|--- .... ....|R-- .... ....
....|..|F#4 .F1F ....|--- .... ....|G#3 ...F ....
....|..|C#6 .F.F ....|--- .... ....|R-- .... ....
....|..|E-4 .F77 ....|--- .... ....|R-- .... ....
....|..|R-- .... ....|--- .... ....|--- .... ....
....|..|F#4 .F1F ....|--- .... ....|A-3 ...F ....
....|..|--- .... ....|--- .... ....|R-- .... ....
....|..|F#4 .FDF ....|--- .... ....|F#3 ...A ....
....|..|R-- .... ....|--- .... ....|R-- .... ....
....|..|F#4 .F1F ....|--- .... ....|F#3 ...F ....
....|..|F#4 .F6A ....|--- .... ....|R-- .... ....
....|..|R-- .... ....|--- .... ....|F#3 ...7 ....
....|..|--- .... ....|--- .... ....|R-- .... ....
....|..|F#4 .F2F ....|--- .... ....|B-3 ...F ....
....|..|F#4 .F67 ....|--- .... ....|R-- .... ....
....|..|R-- .... ....|--- .... ....|R-- .... ....
....|..|R-- .... ....|--- .... ....|--- .... ....
....|..|F#4 .F2F ....|--- .... ....|B-3 ...F ....
....|..|--- .... ....|--- .... ....|R-- .... ....
....|..|F#4 .FD7 ....|--- .... ....|B-3 ...F ....
....|..|R-- .... ....|--- .... ....|R-- .... ....
....|..|F#4 .F2F ....|--- .... ....|B-3 ...F ....
....|..|F#4 .F67 ....|--- .... ....|R-- .... ....
....|..|R-- .... ....|--- .... ....|R-- .... ....
....|..|--- .... ....|--- .... ....|--- .... ....
....|..|F#4 .F2F ....|--- .... ....|B-3 ...F ....
....|..|C#6 .F.7 ....|--- .... ....|R-- .... ....
....|..|R-- .... ....|--- .... ....|B-3 ...F ....
....|..|R-- .... ....|--- .... ....|R-- .... ....
....|..|F#4 .F1F ....|--- .... ....|B-3 ...F ....
....|..|--- .... ....|--- .... ....|R-- .... ....
....|..|F#4 .FD7 ....|--- .... ....|R-- .... ....
....|..|R-- .... ....|--- .... ....|R-- .... ....
....|..|F#4 .F1F ....|--- .... ....|C#4 ...F ....
....|..|--- .... ....|--- .... ....|R-- .... ....
....|..|R-- .... ....|--- .... ....|--- .... ....
....|..|--- .... ....|--- .... ....|--- .... ....
....|..|F#4 .F1F ....|--- .... ....|D-4 ...F ....
....|..|--- .... ....|--- .... ....|R-- .... ....
....|..|R-- .... ....|--- .... ....|B-3 ...A ....
....|..|R-- .... ....|--- .... ....|R-- .... ....
....|..|F#4 .F1F ....|--- .... ....|B-3 ...F ....
....|..|--- .... ....|--- .... ....|R-- .... ....
....|..|F#5 .F.F ....|--- .... ....|B-3 ...7 ....
....|..|R-- .... ....|--- .... ....|R-- .... ....

[Pattern32]
....|..|E-4 .F3F ....|--- .... ....|E-4 ...F ....
....|..|--- .... ....|--- .... ....|R-- .... ....
....|..|R-- .... ....|--- .... ....|R-- .... ....
....|..|R-- .... ....|--- .... ....|--- .... ....
....|..|E-4 .F3F ....|--- .... ....|E-4 ...F ....
....|..|--- .... ....|--- .... ....|R-- .... ....
....|..|E-4 .F6F ....|--- .... ....|E-4 ...F ....
....|..|R-- .... ....|--- .... ....|R-- .... ....
....|..|E-4 .F3F ....|--- .... ....|E-4 ...F ....
....|..|--- .... ....|--- .... ....|R-- .... ....
....|..|R-- .... ....|--- .... ....|R-- .... ....
....|..|R-- .... ....|--- .... ....|--- .... ....
....|..|E-4 .F3F ....|--- .... ....|E-4 ...F ....
....|..|--- .... ....|--- .... ....|R-- .... ....
....|..|E-4 .F6F ....|--- .... ....|E-4 ...F ....
....|..|R-- .... ....|--- .... ....|R-- .... ....
....|..|E-4 .F3F ....|--- .... ....|E-4 ...F ....
....|..|--- .... ....|--- .... ....|R-- .... ....
....|..|R-- .... ....|--- .... ....|R-- .... ....
....|..|R-- .... ....|--- .... ....|--- .... ....
....|..|E-4 .F3F ....|--- .... ....|D-4 ...F ....
....|..|E-4 .F6F ....|--- .... ....|R-- .... ....
....|..|F#5 .F.7 ....|--- .... ....|R-- .... ....
....|..|R-- .... ....|--- .... ....|--- .... ....
....|..|E-4 .F3F ....|--- .... ....|C#4 ...F ....
....|..|--- .... ....|--- .... ....|R-- .... ....
....|..|R-- .... ....|--- .... ....|R-- .... ....
....|..|R-- .... ....|--- .... ....|R-- .... ....
....|..|E-4 .F3F ....|--- .... ....|B-3 ...F ....
....|..|B-5 .F.F ....|--- .... ....|R-- .... ....
....|..|E-4 .F67 ....|--- .... ....|E-4 ...7 ....
....|..|R-- .... ....|--- .... ....|--- .... ....
....|..|E-4 .F4F ....|--- .... ....|C#3 ...F ....
....|..|E-4 .F6A ....|--- .... ....|R-- .... ....
....|..|E-5 .F.F ....|--- .... ....|R-- .... ....
....|..|R-- .... ....|--- .... ....|--- .... ....
....|..|E-4 .F4F ....|--- .... ....|C#3 ...F ....
....|..|E-4 .F5F ....|--- .... ....|R-- .... ....
....|..|E-4 .F67 ....|--- .... ....|C#3 ...F ....
....|..|R-- .... ....|--- .... ....|R-- .... ....
....|..|E-4 .F4F ....|--- .... ....|C#3 ...F ....
....|..|B-5 .F.A ....|--- .... ....|R-- .... ....
....|..|R-- .... ....|--- .... ....|R-- .... ....
....|..|--- .... ....|--- .... ....|--- .... ....
....|..|E-4 .F4F ....|--- .... ....|C#4 ...F ....
....|..|E-4 .F67 ....|--- .... ....|R-- .... ....
....|..|R-- .... ....|--- .... ....|C#4 ...F ....
....|..|R-- .... ....|--- .... ....|R-- .... ....
....|..|E-4 .F4F ....|--- .... ....|C#4 ...F ....
....|..|E-4 .F5A ....|--- .... ....|R-- .... ....
....|..|A-5 .F.F ....|--- .... ....|C#3 ...A ....
....|..|R-- .... ....|--- .... ....|--- .... ....
....|..|E-4 .F4F ....|--- .... ....|G#3 ...F ....
....|..|B-5 .F.7 ....|--- .... ....|R-- .... ....
....|..|A-5 .F.F ....|--- .... ....|R-- .... ....
....|..|R-- .... ....|--- .... ....|--- .... ....
....|..|E-4 .F4F ....|--- .... ....|C#3 ...F ....
....|..|--- .... ....|--- .... ....|R-- .... ....
....|..|A-5 .F.F ....|--- .... ....|C#4 ...A ....
....|..|R-- .... ....|--- .... ....|R-- .... ....
....|..|E-4 .F4F ....|--- .... ....|C#3 ...7 ....
....|..|E-4 .F57 ....|--- .... ....|R-- .... ....
....|..|E-4 .F7F ....|--- .... ....|C#3 ...7 ....
....|..|R-- .... ....|--- .... ....|--- .... ....

[Pattern33]
....|..|F#4 .F1F ....|--- .... ....|F#3 ...F ....
....|..|--- .... ....|--- .... ....|R-- .... ....
....|..|R-- .... ....|--- .... ....|R-- .... ....
....|..|R-- .... ....|--- .... ....|--- .... ....
....|..|F#4 .F1F ....|--- .... ....|F#3 ...F ....
....|..|--- .... ....|--- .... ....|R-- .... ....
....|..|R-- .... ....|--- .... ....|F#3 ...F ....
....|..|R-- .... ....|--- .... ....|R-- .... ....
....|..|F#4 .F1F ....|--- .... ....|F#3 ...F ....
....|..|F#4 .F6F ....|--- .... ....|R-- .... ....
....|..|A-5 .F.7 ....|--- .... ....|--- .... ....
....|..|R-- .... ....|--- .... ....|--- .... ....
....|..|F#4 .F1F ....|--- .... ....|F#3 ...F ....
....|..|--- .... ....|--- .... ....|R-- .... ....
....|..|F#4 .FDF ....|--- .... ....|F#3 ...F ....
....|..|R-- .... ....|--- .... ....|R-- .... ....
....|..|F#4 .F1F ....|--- .... ....|F#3 ...F ....
....|..|F#4 .F6F ....|--- .... ....|R-- .... ....
....|..|A-5 .F.7 ....|--- .... ....|R-- .... ....
....|..|R-- .... ....|--- .... ....|R-- .... ....
....|..|F#4 .F1F ....|--- .... ....|G#3 ...F ....
....|..|C#6 .F.F ....|--- .... ....|R-- .... ....
....|..|E-4 .F77 ....|--- .... ....|R-- .... ....
....|..|R-- .... ....|--- .... ....|--- .... ....
....|..|F#4 .F1F ....|--- .... ....|A-3 ...F ....
....|..|--- .... ....|--- .... ....|R-- .... ....
....|..|F#4 .FDF ....|--- .... ....|F#3 ...A ....
....|..|R-- .... ....|--- .... ....|R-- .... ....
....|..|F#4 .F1F ....|--- .... ....|F#3 ...F ....
....|..|F#4 .F6A ....|--- .... ....|R-- .... ....
....|..|R-- .... ....|--- .... ....|F#3 ...7 ....
....|..|--- .... ....|--- .... ....|R-- .... ....
....|..|F#4 .F2F ....|--- .... ....|B-3 ...F ....
....|..|F#4 .F67 ....|--- .... ....|R-- .... ....
....|..|R-- .... ....|--- .... ....|R-- .... ....
....|..|R-- .... ....|--- .... ....|--- .... ....
....|..|F#4 .F2F ....|--- .... ....|B-3 ...F ....
....|..|--- .... ....|--- .... ....|R-- .... ....
....|..|F#4 .FD7 ....|--- .... ....|B-3 ...F ....
....|..|R-- .... ....|--- .... ....|R-- .... ....
....|..|F#4 .F2F ....|--- .... ....|B-3 ...F ....
....|..|F#4 .F67 ....|--- .... ....|R-- .... ....
....|..|R-- .... ....|--- .... ....|R-- .... ....
....|..|--- .... ....|--- .... ....|--- .... ....
....|..|F#4 .F2F ....|--- .... ....|B-3 ...F ....
....|..|C#6 .F.7 ....|--- .... ....|R-- .... ....
....|..|R-- .... ....|--- .... ....|B-3 ...F ....
....|..|R-- .... ....|--- .... ....|R-- .... ....
....|..|F#4 .F1F ....|--- .... ....|B-3 ...F ....
....|..|--- .... ....|--- .... ....|R-- .... ....
....|..|F#4 .FD7 ....|--- .... ....|B-3 ...A ....
....|..|R-- .... ....|--- .... ....|R-- .... ....
....|..|F#4 .F1F ....|--- .... ....|A-3 ...F ....
....|..|--- .... ....|--- .... ....|R-- .... ....
....|..|R-- .... ....|--- .... ....|R-- .... ....
....|..|--- .... ....|--- .... ....|--- .... ....
....|..|F#4 .F1F ....|--- .... ....|G#3 ...F ....
....|..|--- .... ....|--- .... ....|R-- .... ....
....|..|R-- .... ....|--- .... ....|B-3 ...A ....
....|..|R-- .... ....|--- .... ....|R-- .... ....
....|..|F#4 .F1F ....|--- .... ....|F#3 ...F ....
....|..|--- .... ....|--- .... ....|R-- .... ....
....|..|F#5 .F.F ....|--- .... ....|B-3 ...7 ....
....|..|R-- .... ....|--- .... ....|R-- .... ....

[Pattern41]
....|..|E-4 .F47 ....|--- .... ....|C#3 ...7 ....
....|..|--- .... ....|--- .... ....|R-- .... ....
....|..|R-- .... ....|--- .... ....|R-- .... ....
....|..|R-- .... ....|--- .... ....|--- .... ....
....|..|E-4 .F47 ....|--- .... ....|C#4 ...7 ....
....|..|--- .... ....|--- .... ....|R-- .... ....
....|..|A-5 .F.A ....|--- .... ....|C#4 ...7 ....
....|..|R-- .... ....|--- .... ....|R-- .... ....
....|..|E-4 .F47 ....|--- .... ....|C#4 ...7 ....
....|..|--- .... ....|--- .... ....|R-- .... ....
....|..|A-5 .F.7 ....|--- .... ....|--- .... ....
....|..|R-- .... ....|--- .... ....|--- .... ....
....|..|E-4 .F47 ....|--- .... ....|G#3 ...7 ....
....|..|--- .... ....|--- .... ....|R-- .... ....
....|..|A-5 .F.7 ....|--- .... ....|--- .... ....
....|..|R-- .... ....|--- .... ....|--- .... ....
....|..|E-4 .F47 ....|--- .... ....|C#3 ...7 ....
....|..|--- .... ....|--- .... ....|R-- .... ....
....|..|A-5 .F.7 ....|--- .... ....|--- .... ....
....|..|R-- .... ....|--- .... ....|--- .... ....
....|..|E-4 .F47 ....|--- .... ....|--- .... ....
....|..|--- .... ....|--- .... ....|--- .... ....
....|..|E-4 .F77 ....|--- .... ....|--- .... ....
....|..|R-- .... ....|--- .... ....|--- .... ....
....|..|--- .... ....|--- .... ....|--- .... ....
....|..|--- .... ....|--- .... ....|--- .... ....
....|..|--- .... ....|--- .... ....|--- .... ....
....|..|--- .... ....|--- .... ....|--- .... ....
....|..|--- .... ....|--- .... ....|--- .... ....
....|..|--- .... ....|--- .... ....|--- .... ....
....|..|--- .... ....|--- .... ....|--- .... ....
....|..|--- .... ....|--- .... ....|--- .... ....
....|..|--- .... ....|--- .... ....|--- .... ....
....|..|--- .... ....|--- .... ....|--- .... ....
....|..|--- .... ....|--- .... ....|--- .... ....
....|..|--- .... ....|--- .... ....|--- .... ....
....|..|--- .... ....|--- .... ....|--- .... ....
....|..|--- .... ....|--- .... ....|--- .... ....
....|..|--- .... ....|--- .... ....|--- .... ....
....|..|--- .... ....|--- .... ....|--- .... ....
....|..|--- .... ....|--- .... ....|--- .... ....
....|..|--- .... ....|--- .... ....|--- .... ....
....|..|--- .... ....|--- .... ....|--- .... ....
....|..|--- .... ....|--- .... ....|--- .... ....
....|..|--- .... ....|--- .... ....|--- .... ....
....|..|--- .... ....|--- .... ....|--- .... ....
....|..|--- .... ....|--- .... ....|--- .... ....
....|..|--- .... ....|--- .... ....|--- .... ....
....|..|--- .... ....|--- .... ....|--- .... ....
....|..|--- .... ....|--- .... ....|--- .... ....
....|..|--- .... ....|--- .... ....|--- .... ....
....|..|--- .... ....|--- .... ....|--- .... ....
....|..|--- .... ....|--- .... ....|--- .... ....
....|..|--- .... ....|--- .... ....|--- .... ....
....|..|--- .... ....|--- .... ....|--- .... ....
....|..|--- .... ....|--- .... ....|--- .... ....
....|..|--- .... ....|--- .... ....|--- .... ....
....|..|--- .... ....|--- .... ....|--- .... ....
....|..|--- .... ....|--- .... ....|--- .... ....
....|..|--- .... ....|--- .... ....|--- .... ....
....|..|--- .... ....|--- .... ....|--- .... ....
....|..|--- .... ....|--- .... ....|--- .... ....
....|..|--- .... ....|--- .... ....|--- .... ....
....|..|--- .... ....|--- .... ....|--- .... ....

[Pattern45]
....|..|F#4 .F1F ....|--- .... ....|F#3 ...F ....
....|..|--- .... ....|--- .... ....|R-- .... ....
....|..|--- .... ....|--- .... ....|--- .... ....
....|..|R-- .... ....|--- .... ....|--- .... ....
....|..|F#4 .F1F ....|--- .... ....|F#3 ...F ....
....|..|--- .... ....|--- .... ....|R-- .... ....
....|..|R-- .... ....|--- .... ....|F#3 ...F ....
....|..|--- .... ....|--- .... ....|R-- .... ....
....|..|F#4 .F1F ....|--- .... ....|F#3 ...F ....
....|..|F#4 .F6F ....|--- .... ....|R-- .... ....
....|..|R-- .... ....|--- .... ....|--- .... ....
....|..|--- .... ....|--- .... ....|--- .... ....
....|..|F#4 .F1F ....|--- .... ....|F#3 ...F ....
....|..|--- .... ....|--- .... ....|R-- .... ....
....|..|F#4 .FDF ....|--- .... ....|F#3 ...F ....
....|..|R-- .... ....|--- .... ....|R-- .... ....
....|..|F#4 .F1F ....|--- .... ....|F#3 ...F ....
....|..|F#4 .F6F ....|--- .... ....|R-- .... ....
....|..|R-- .... ....|--- .... ....|R-- .... ....
....|..|--- .... ....|--- .... ....|R-- .... ....
....|..|F#4 .F1F ....|--- .... ....|G#3 ...F ....
....|..|C#6 .F.F ....|--- .... ....|R-- .... ....
....|..|R-- .... ....|--- .... ....|R-- .... ....
....|..|--- .... ....|--- .... ....|--- .... ....
....|..|F#4 .F1F ....|--- .... ....|A-3 ...F ....
....|..|--- .... ....|--- .... ....|R-- .... ....
....|..|F#4 .FDF ....|--- .... ....|F#3 ...A ....
....|..|R-- .... ....|--- .... ....|R-- .... ....
....|..|F#4 .F1F ....|--- .... ....|F#3 ...F ....
....|..|F#4 .F6A ....|--- .... ....|R-- .... ....
....|..|R-- .... ....|--- .... ....|F#3 ...7 ....
....|..|--- .... ....|--- .... ....|R-- .... ....
....|..|F#4 .F2F ....|--- .... ....|B-3 ...F ....
....|..|F#4 .F67 ....|--- .... ....|R-- .... ....
....|..|R-- .... ....|--- .... ....|R-- .... ....
....|..|R-- .... ....|--- .... ....|--- .... ....
....|..|F#4 .F2F ....|--- .... ....|B-3 ...F ....
....|..|--- .... ....|--- .... ....|R-- .... ....
....|..|F#4 .FD7 ....|--- .... ....|B-3 ...F ....
....|..|R-- .... ....|--- .... ....|R-- .... ....
....|..|F#4 .F2F ....|--- .... ....|B-3 ...F ....
....|..|F#4 .F67 ....|--- .... ....|R-- .... ....
....|..|R-- .... ....|--- .... ....|R-- .... ....
....|..|--- .... ....|--- .... ....|--- .... ....
....|..|F#4 .F2F ....|--- .... ....|B-3 ...F ....
....|..|C#6 .F.7 ....|--- .... ....|R-- .... ....
....|..|R-- .... ....|--- .... ....|B-3 ...F ....
....|..|R-- .... ....|--- .... ....|R-- .... ....
....|..|F#4 .F1F ....|--- .... ....|B-3 ...F ....
....|..|--- .... ....|--- .... ....|R-- .... ....
....|..|F#4 .FD7 ....|--- .... ....|B-3 ...A ....
....|..|R-- .... ....|--- .... ....|R-- .... ....
....|..|F#4 .F1F ....|--- .... ....|A-3 ...F ....
....|..|--- .... ....|--- .... ....|R-- .... ....
....|..|R-- .... ....|--- .... ....|R-- .... ....
....|..|--- .... ....|--- .... ....|--- .... ....
....|..|F#4 .F1F ....|--- .... ....|G#3 ...F ....
....|..|--- .... ....|--- .... ....|R-- .... ....
....|..|R-- .... ....|--- .... ....|B-3 ...A ....
....|..|R-- .... ....|--- .... ....|R-- .... ....
....|..|F#4 .F1F ....|--- .... ....|F#3 ...F ....
....|..|--- .... ....|--- .... ....|R-- .... ....
....|..|F#5 .F.F ....|--- .... ....|B-3 ...7 ....
....|..|R-- .... ....|--- .... ....|R-- .... ....

[Pattern53]
....|..|F#4 .F1F ....|--- .... ....|F#2 ...F ....
....|..|--- .... ....|--- .... ....|R-- .... ....
....|..|R-- .... ....|--- .... ....|R-- .... ....
....|..|R-- .... ....|--- .... ....|R-- .... ....
....|..|F#4 .F1F ....|--- .... ....|C#3 ...F ....
....|..|--- .... ....|--- .... ....|R-- .... ....
....|..|R-- .... ....|--- .... ....|C#4 ...7 ....
....|..|R-- .... ....|--- .... ....|R-- .... ....
....|..|F#4 .F1F ....|F#5 ...F ....|F#3 ...F ....
....|..|F#4 .F6F ....|--- .... ....|R-- .... ....
....|..|A-5 .F.7 ....|R-- .... ....|--- .... ....
....|..|R-- .... ....|--- .... ....|--- .... ....
....|..|F#4 .F1F ....|--- .... ....|G#3 ...F ....
....|..|--- .... ....|--- .... ....|R-- .... ....
....|..|F#4 .FDF ....|--- .... ....|--- .... ....
....|..|R-- .... ....|--- .... ....|R-- .... ....
....|..|F#4 .F1F ....|E-5 ...F ....|E-3 ...F ....
....|..|F#4 .F6F ....|R-- .... ....|R-- .... ....
....|..|A-5 .F.7 ....|--- .... ....|--- .... ....
....|..|R-- .... ....|--- .... ....|--- .... ....
....|..|F#4 .F1F ....|F#5 ...A ....|F#3 ...A ....
....|..|C#6 .F.F ....|--- .... ....|--- .... ....
....|..|E-4 .F77 ....|R-- .... ....|R-- .... ....
....|..|R-- .... ....|--- .... ....|--- .... ....
....|..|F#4 .F1F ....|C#5 ...F ....|C#3 ...F ....
....|..|--- .... ....|--- .... ....|--- .... ....
....|..|F#4 .FDF ....|R-- .... ....|--- .... ....
....|..|R-- .... ....|--- .... ....|R-- .... ....
....|..|F#4 .F1F ....|E-5 ...A ....|C#3 ...7 ....
....|..|F#4 .F6A ....|R-- .... ....|R-- .... ....
....|..|R-- .... ....|--- .... ....|--- .... ....
....|..|--- .... ....|--- .... ....|--- .... ....
....|..|F#4 .F2F ....|B-4 ...F ....|B-2 ...F ....
....|..|F#4 .F67 ....|R-- .... ....|--- .... ....
....|..|R-- .... ....|R-- .... ....|R-- .... ....
....|..|R-- .... ....|--- .... ....|--- .... ....
....|..|F#4 .F2F ....|C#5 ...F ....|C#3 ...F ....
....|..|--- .... ....|--- .... ....|--- .... ....
....|..|F#4 .FD7 ....|C#5 ...F ....|--- .... ....
....|..|R-- .... ....|R-- .... ....|--- .... ....
....|..|F#4 .F2F ....|E-5 ...7 ....|F#3 ...F ....
....|..|F#4 .F67 ....|R-- .... ....|F#3 ...F ....
....|..|R-- .... ....|--- .... ....|--- .... ....
....|..|--- .... ....|--- .... ....|--- .... ....
....|..|F#4 .F2F ....|E-5 ...F ....|E-3 ...F ....
....|..|C#6 .F.7 ....|R-- .... ....|--- .... ....
....|..|R-- .... ....|R-- .... ....|R-- .... ....
....|..|R-- .... ....|--- .... ....|--- .... ....
....|..|F#4 .F1F ....|C#5 ...7 ....|C#3 ...7 ....
....|..|--- .... ....|--- .... ....|R-- .... ....
....|..|F#4 .FD7 ....|R-- .... ....|--- .... ....
....|..|R-- .... ....|R-- .... ....|--- .... ....
....|..|F#4 .F1F ....|C#5 ...F ....|C#3 ...F ....
....|..|--- .... ....|--- .... ....|R-- .... ....
....|..|R-- .... ....|R-- .... ....|--- .... ....
....|..|--- .... ....|--- .... ....|--- .... ....
....|..|F#4 .F1F ....|B-4 ...7 ....|B-2 ...7 ....
....|..|--- .... ....|R-- .... ....|R-- .... ....
....|..|R-- .... ....|R-- .... ....|--- .... ....
....|..|R-- .... ....|--- .... ....|--- .... ....
....|..|F#4 .F1F ....|B-3 ...F ....|B-2 ...F ....
....|..|--- .... ....|--- .... ....|R-- .... ....
....|..|F#5 .F.F ....|C#5 ...7 ....|--- .... ....
....|..|R-- .... ....|R-- .... ....|--- .... ....

[Pattern54]
....|..|E-4 .F3F ....|C#5 ...A ....|E-2 ...F ....
....|..|--- .... ....|--- .... ....|F#3 ...7 ....
....|..|R-- .... ....|R-- .... ....|--- .... ....
....|..|R-- .... ....|--- .... ....|--- .... ....
....|..|E-4 .F3F ....|E-5 ...7 ....|B-2 ...F ....
....|..|--- .... ....|--- .... ....|R-- .... ....
....|..|E-4 .F6F ....|R-- .... ....|--- .... ....
....|..|R-- .... ....|--- .... ....|R-- .... ....
....|..|E-4 .F3F ....|F#5 ...F ....|F#3 ...F ....
....|..|--- .... ....|--- .... ....|R-- .... ....
....|..|R-- .... ....|R-- .... ....|--- .... ....
....|..|R-- .... ....|R-- .... ....|R-- .... ....
....|..|E-4 .F3F ....|C#5 ...7 ....|G#3 ...F ....
....|..|--- .... ....|--- .... ....|--- .... ....
....|..|E-4 .F6F ....|R-- .... ....|--- .... ....
....|..|R-- .... ....|--- .... ....|--- .... ....
....|..|E-4 .F3F ....|E-5 ...F ....|E-3 ...F ....
....|..|--- .... ....|R-- .... ....|R-- .... ....
....|..|R-- .... ....|--- .... ....|--- .... ....
....|..|R-- .... ....|--- .... ....|R-- .... ....
....|..|E-4 .F3F ....|B-3 ...7 ....|B-2 ...7 ....
....|..|E-4 .F6F ....|--- .... ....|--- .... ....
....|..|F#5 .F.7 ....|R-- .... ....|--- .... ....
....|..|R-- .... ....|R-- .... ....|R-- .... ....
....|..|E-4 .F3F ....|C#5 ...F ....|C#3 ...F ....
....|..|--- .... ....|--- .... ....|--- .... ....
....|..|R-- .... ....|R-- .... ....|--- .... ....
....|..|R-- .... ....|--- .... ....|--- .... ....
....|..|E-4 .F3F ....|E-5 ...A ....|B-2 ...7 ....
....|..|B-5 .F.F ....|R-- .... ....|R-- .... ....
....|..|E-4 .F67 ....|--- .... ....|--- .... ....
....|..|R-- .... ....|--- .... ....|R-- .... ....
....|..|E-4 .F4F ....|B-4 ...F ....|B-2 ...F ....
....|..|E-4 .F6A ....|R-- .... ....|--- .... ....
....|..|E-5 .F.F ....|R-- .... ....|--- .... ....
....|..|R-- .... ....|--- .... ....|R-- .... ....
....|..|E-4 .F4F ....|C#5 ...F ....|C#3 ...F ....
....|..|E-4 .F5F ....|C#5 ...F ....|--- .... ....
....|..|E-4 .F67 ....|R-- .... ....|--- .... ....
....|..|R-- .... ....|--- .... ....|--- .... ....
....|..|E-4 .F4F ....|E-5 ...7 ....|E-3 ...7 ....
....|..|B-5 .F.A ....|R-- .... ....|R-- .... ....
....|..|R-- .... ....|--- .... ....|R-- .... ....
....|..|--- .... ....|--- .... ....|--- .... ....
....|..|E-4 .F4F ....|E-5 ...F ....|E-3 ...F ....
....|..|E-4 .F67 ....|R-- .... ....|--- .... ....
....|..|R-- .... ....|--- .... ....|--- .... ....
....|..|R-- .... ....|--- .... ....|R-- .... ....
....|..|E-4 .F4F ....|C#5 ...7 ....|C#3 ...7 ....
....|..|E-4 .F5A ....|C#5 ...A ....|--- .... ....
....|..|A-5 .F.F ....|R-- .... ....|--- .... ....
....|..|R-- .... ....|--- .... ....|--- .... ....
....|..|E-4 .F4F ....|C#5 ...F ....|C#3 ...F ....
....|..|B-5 .F.7 ....|C#5 ...F ....|R-- .... ....
....|..|A-5 .F.F ....|R-- .... ....|R-- .... ....
....|..|R-- .... ....|--- .... ....|R-- .... ....
....|..|E-4 .F4F ....|B-4 ...7 ....|E-3 ...F ....
....|..|--- .... ....|R-- .... ....|--- .... ....
....|..|A-5 .F.F ....|--- .... ....|--- .... ....
....|..|R-- .... ....|--- .... ....|R-- .... ....
....|..|E-4 .F4F ....|B-4 ...F ....|B-2 ...F ....
....|..|E-4 .F57 ....|C#5 ...7 ....|--- .... ....
....|..|E-4 .F7F ....|R-- .... ....|--- .... ....
....|..|R-- .... ....|--- .... ....|R-- .... ....

[Pattern55]
....|..|F#4 .F1F ....|C#5 ...A ....|F#2 ...F ....
....|..|--- .... ....|C#5 ...A ....|--- .... ....
....|..|R-- .... ....|R-- .... ....|R-- .... ....
....|..|R-- .... ....|--- .... ....|R-- .... ....
....|..|F#4 .F1F ....|E-5 ...7 ....|C#3 ...F ....
....|..|--- .... ....|R-- .... ....|--- .... ....
....|..|R-- .... ....|--- .... ....|--- .... ....
....|..|R-- .... ....|--- .... ....|R-- .... ....
....|..|F#4 .F1F ....|F#5 ...F ....|F#3 ...F ....
....|..|F#4 .F6F ....|R-- .... ....|--- .... ....
....|..|A-5 .F.7 ....|R-- .... ....|--- .... ....
....|..|R-- .... ....|--- .... ....|R-- .... ....
....|..|F#4 .F1F ....|C#5 ...7 ....|G#3 ...F ....
....|..|--- .... ....|C#5 ...7 ....|--- .... ....
....|..|F#4 .FDF ....|R-- .... ....|--- .... ....
....|..|R-- .... ....|--- .... ....|R-- .... ....
....|..|F#4 .F1F ....|E-5 ...F ....|E-3 ...F ....
....|..|F#4 .F6F ....|R-- .... ....|--- .... ....
....|..|A-5 .F.7 ....|--- .... ....|--- .... ....
....|..|R-- .... ....|--- .... ....|R-- .... ....
....|..|F#4 .F1F ....|B-4 ...7 ....|B-2 ...7 ....
....|..|C#6 .F.F ....|R-- .... ....|--- .... ....
....|..|E-4 .F77 ....|R-- .... ....|R-- .... ....
....|..|R-- .... ....|--- .... ....|R-- .... ....
....|..|F#4 .F1F ....|C#5 ...F ....|C#3 ...F ....
....|..|--- .... ....|--- .... ....|--- .... ....
....|..|F#4 .FDF ....|R-- .... ....|--- .... ....
....|..|R-- .... ....|--- .... ....|R-- .... ....
....|..|F#4 .F1F ....|E-5 ...A ....|C#3 ...7 ....
....|..|F#4 .F6A ....|R-- .... ....|R-- .... ....
....|..|R-- .... ....|--- .... ....|--- .... ....
....|..|--- .... ....|--- .... ....|--- .... ....
....|..|F#4 .F2F ....|B-4 ...F ....|B-2 ...F ....
....|..|F#4 .F67 ....|R-- .... ....|--- .... ....
....|..|R-- .... ....|R-- .... ....|R-- .... ....
....|..|R-- .... ....|--- .... ....|--- .... ....
....|..|F#4 .F2F ....|C#5 ...F ....|C#3 ...F ....
....|..|--- .... ....|--- .... ....|--- .... ....
....|..|F#4 .FD7 ....|C#5 ...F ....|--- .... ....
....|..|R-- .... ....|R-- .... ....|--- .... ....
....|..|F#4 .F2F ....|E-5 ...7 ....|F#3 ...F ....
....|..|F#4 .F67 ....|R-- .... ....|F#3 ...F ....
....|..|R-- .... ....|--- .... ....|--- .... ....
....|..|--- .... ....|--- .... ....|--- .... ....
....|..|F#4 .F2F ....|E-5 ...F ....|E-3 ...F ....
....|..|C#6 .F.7 ....|R-- .... ....|--- .... ....
....|..|R-- .... ....|R-- .... ....|R-- .... ....
....|..|R-- .... ....|--- .... ....|--- .... ....
....|..|F#4 .F1F ....|C#5 ...7 ....|C#3 ...7 ....
....|..|--- .... ....|--- .... ....|R-- .... ....
....|..|F#4 .FD7 ....|R-- .... ....|--- .... ....
....|..|R-- .... ....|R-- .... ....|--- .... ....
....|..|F#4 .F1F ....|C#5 ...F ....|C#3 ...F ....
....|..|--- .... ....|--- .... ....|R-- .... ....
....|..|R-- .... ....|R-- .... ....|--- .... ....
....|..|--- .... ....|--- .... ....|--- .... ....
....|..|F#4 .F1F ....|B-4 ...7 ....|B-2 ...7 ....
....|..|--- .... ....|R-- .... ....|R-- .... ....
....|..|R-- .... ....|R-- .... ....|--- .... ....
....|..|R-- .... ....|--- .... ....|--- .... ....
....|..|F#4 .F1F ....|B-3 ...F ....|B-2 ...F ....
....|..|--- .... ....|--- .... ....|R-- .... ....
....|..|F#5 .F.F ....|C#5 ...7 ....|--- .... ....
....|..|R-- .... ....|R-- .... ....|--- .... ....

[Pattern56]
....|..|E-4 .F3F ....|C#5 ...A ....|E-2 ...F ....
....|..|--- .... ....|--- .... ....|F#3 ...7 ....
....|..|R-- .... ....|R-- .... ....|--- .... ....
....|..|R-- .... ....|--- .... ....|--- .... ....
....|..|E-4 .F3F ....|E-5 ...7 ....|B-2 ...F ....
....|..|--- .... ....|--- .... ....|R-- .... ....
....|..|E-4 .F6F ....|R-- .... ....|--- .... ....
....|..|R-- .... ....|--- .... ....|R-- .... ....
....|..|E-4 .F3F ....|F#5 ...F ....|F#3 ...F ....
....|..|--- .... ....|--- .... ....|R-- .... ....
....|..|R-- .... ....|R-- .... ....|--- .... ....
....|..|R-- .... ....|R-- .... ....|R-- .... ....
....|..|E-4 .F3F ....|C#5 ...7 ....|G#3 ...F ....
....|..|--- .... ....|--- .... ....|--- .... ....
....|..|E-4 .F6F ....|R-- .... ....|--- .... ....
....|..|R-- .... ....|--- .... ....|--- .... ....
....|..|E-4 .F3F ....|E-5 ...F ....|E-3 ...F ....
....|..|--- .... ....|R-- .... ....|R-- .... ....
....|..|R-- .... ....|--- .... ....|--- .... ....
....|..|R-- .... ....|--- .... ....|R-- .... ....
....|..|E-4 .F3F ....|B-3 ...7 ....|B-2 ...7 ....
....|..|E-4 .F6F ....|--- .... ....|--- .... ....
....|..|F#5 .F.7 ....|R-- .... ....|--- .... ....
....|..|R-- .... ....|R-- .... ....|R-- .... ....
....|..|E-4 .F3F ....|C#5 ...F ....|C#3 ...F ....
....|..|--- .... ....|--- .... ....|--- .... ....
....|..|R-- .... ....|R-- .... ....|--- .... ....
....|..|R-- .... ....|--- .... ....|--- .... ....
....|..|E-4 .F3F ....|E-5 ...A ....|B-2 ...7 ....
....|..|B-5 .F.F ....|R-- .... ....|R-- .... ....
....|..|E-4 .F67 ....|--- .... ....|--- .... ....
....|..|R-- .... ....|--- .... ....|R-- .... ....
....|..|E-4 .F4F ....|B-4 ...F ....|B-2 ...F ....
....|..|E-4 .F6A ....|R-- .... ....|--- .... ....
....|..|E-5 .F.F ....|R-- .... ....|--- .... ....
....|..|R-- .... ....|--- .... ....|R-- .... ....
....|..|E-4 .F4F ....|C#5 ...F ....|C#3 ...F ....
....|..|E-4 .F5F ....|C#5 ...F ....|--- .... ....
....|..|E-4 .F67 ....|R-- .... ....|--- .... ....
....|..|R-- .... ....|--- .... ....|--- .... ....
....|..|E-4 .F4F ....|E-5 ...7 ....|E-3 ...7 ....
....|..|B-5 .F.A ....|R-- .... ....|R-- .... ....
....|..|R-- .... ....|--- .... ....|R-- .... ....
....|..|--- .... ....|--- .... ....|--- .... ....
....|..|E-4 .F4F ....|E-5 ...F ....|E-3 ...F ....
....|..|E-4 .F67 ....|R-- .... ....|--- .... ....
....|..|R-- .... ....|--- .... ....|--- .... ....
....|..|R-- .... ....|--- .... ....|R-- .... ....
....|..|E-4 .F4F ....|C#5 ...7 ....|C#3 ...7 ....
....|..|E-4 .F5A ....|C#5 ...A ....|--- .... ....
....|..|A-5 .F.F ....|R-- .... ....|--- .... ....
....|..|R-- .... ....|--- .... ....|--- .... ....
....|..|E-4 .F4F ....|C#5 ...F ....|C#3 ...F ....
....|..|B-5 .F.7 ....|C#5 ...F ....|R-- .... ....
....|..|A-5 .F.F ....|R-- .... ....|R-- .... ....
....|..|R-- .... ....|--- .... ....|R-- .... ....
....|..|E-4 .F4F ....|B-4 ...7 ....|E-3 ...F ....
....|..|--- .... ....|R-- .... ....|--- .... ....
....|..|A-5 .F.F ....|--- .... ....|--- .... ....
....|..|R-- .... ....|--- .... ....|R-- .... ....
....|..|E-4 .F4F ....|F#5 ...F ....|B-2 ...F ....
....|..|E-4 .F57 ....|C#5 ...7 ....|--- .... ....
....|..|E-4 .F7F ....|R-- .... ....|--- .... ....
....|..|R-- .... ....|--- .... ....|R-- .... ....

[Pattern57]
....|..|E-4 .F47 ....|C#5 ...A ....|C#3 ...A ....
....|..|--- .... ....|C#5 ...A ....|--- .... ....
....|..|R-- .... ....|R-- .... ....|R-- .... ....
....|..|R-- .... ....|--- .... ....|R-- .... ....
....|..|E-4 .F47 ....|E-5 ...7 ....|E-3 ...7 ....
....|..|--- .... ....|R-- .... ....|--- .... ....
....|..|A-5 .F.A ....|--- .... ....|--- .... ....
....|..|R-- .... ....|--- .... ....|R-- .... ....
....|..|E-4 .F47 ....|F#5 ...A ....|R-- .... ....
....|..|--- .... ....|R-- .... ....|--- .... ....
....|..|A-5 .F.7 ....|--- .... ....|--- .... ....
....|..|R-- .... ....|--- .... ....|R-- .... ....
....|..|E-4 .F47 ....|C#5 ...7 ....|C#3 ...7 ....
....|..|--- .... ....|C#5 ...7 ....|--- .... ....
....|..|A-5 .F.7 ....|R-- .... ....|--- .... ....
....|..|R-- .... ....|--- .... ....|R-- .... ....
....|..|E-4 .F47 ....|--- .... ....|E-3 ...7 ....
....|..|--- .... ....|--- .... ....|--- .... ....
....|..|A-5 .F.7 ....|--- .... ....|--- .... ....
....|..|R-- .... ....|--- .... ....|R-- .... ....
....|..|E-4 .F47 ....|F#5 ...7 ....|B-2 ...7 ....
....|..|--- .... ....|R-- .... ....|--- .... ....
....|..|E-4 .F77 ....|--- .... ....|--- .... ....
