[Module]
VortexTrackerII=0
Version=3.5
Title=1du-3me,2mu[3f]-5p[6],4m[ue]-2mu[3f]+
Author=oisee ^ 4d 29.05.2010
NoteTable=4
ChipFreq=1750000
Speed=4
PlayOrder=L0,1,2,3,4,5,6,7,8,9,10,11,12,13,14,15,16,17,18,19,20,21,22,23,24,13,14,15,28,29,30,31,32,33,34,35,12,13,14,15,40


[Ornament1]
L0,0,4,4,7,7

[Ornament2]
L0,0,3,3,7,7

[Ornament3]
L0,0,4,4,9,9

[Ornament4]
L0,0,3,3,6,6

[Ornament5]
L0,0,5,5,9,9

[Ornament6]
L0,0,5,5,8,8


[Sample1]
TnE +000_ +00_ F_
TnE +000_ +00_ F_
TnE +000_ +00_ F_
TnE +000_ +00_ D_
TnE +000_ +00_ B_
TnE +000_ +00_ B_ L

[Sample2]
TnE +000_ +00_ F_ L

[Sample3]
TnE +001_ +00_ F_
TnE +002_ +00_ F_
TnE +001_ +00_ E_
TnE +002_ +00_ E_
TnE +000_ +00_ E_ L
TnE -001_ +00_ E_
TnE -002_ +00_ E_
TnE -001_ +00_ E_
TnE +000_ +00_ E_
TnE +001_ +00_ E_
TnE +002_ +00_ E_
TnE +001_ +00_ E_

[Sample4]
TnE +002_ +00_ D_
TnE +002_ +00_ D_
TnE +002_ +00_ C_
TnE +002_ +00_ B_
TnE +002_ +00_ A_ L
TnE +002_ +00_ A_
TnE +002_ +00_ A_
TnE +002_ +00_ A_
TnE +002_ +00_ A_
TnE +002_ +00_ A_
TnE +002_ +00_ A_
TnE +002_ +00_ A_

[Sample5]
TnE +000_ +00_ F_
TnE +000_ +00_ F_
tne +000_ +00_ 0_ L

[Sample6]
TnE -001_ +00_ F_ L

[Sample7]
TnE +006_ +00_ F_ L

[Sample8]
tNe +000_ +00_ F_
tNe +000_ +00_ B_
tNe +000_ +00_ 7_
tNe +000_ +00_ 6- L

[Sample9]
TnE +080_ +00_ F_
TnE +100_ +00_ E_
TnE +180_ +00_ E_
TnE +200_ +00_ E_
TnE +240_ +00_ D_
TnE +280_ +00_ D_
TnE +2C0_ +00_ D_
TnE +300_ +00_ C_
TnE +300_ +00_ C_
TnE +340_ +00_ C_
TnE +340_ +00_ C_
TnE +380_ +00_ B_
TnE +380_ +00_ B_
TnE +400_ +00_ B_
TnE +400_ +00_ B_
TnE +480_ +00_ A_
TnE +500_ +00_ 9_
TnE +580_ +00_ 7_
TnE +600_ +00_ 4_
TnE +680_ +00_ 1_
TnE +000_ +00_ 0_ L

[Sample10]
Tne +1C0_ +00_ F_
Tne +280_ +00_ E_
Tne +380_ +00_ C_
Tne +440_ +00_ A_
Tne +480_ +00_ 8_
TnE +000_ +00_ 0_ L

[Sample11]
TNe +200_ -0A_ F_
tNe +000_ +0F_ A_
TNe +200_ -07_ E_
tNe +000_ +0E_ B- L

[Sample12]
TNE +0A0_ +05_ F_
TNE +140_ +02_ D_
TNE +140_ +02_ B_
TNE +100_ +00_ A_ L
TNE +140_ +00_ A_
TNE +200_ +00_ A-

[Sample13]
Tne +200_ +00_ F_
Tne +2C0_ +00_ F_
Tne +380_ +00_ E_
Tne +500_ +00_ C_
Tne +520_ +00_ 9_
tne +000_ +00_ 0_ L

[Sample14]
TNE -100_ +00_ F_
TNE -100_ +00_ D_
TNE -100_ +00_ A_
TNE -100_ +00_ 5_
tne +000_ +00_ 0_ L

[Sample15]
TNE -100_ +00_ 5_
TNE -100_ +00_ 8_
TNE -100_ +00_ B_
TNE -100_ +00_ F_
TNe -100_ +00_ 9- L

[Sample16]
TnE +000_ +00_ C_
TnE +000_ +00_ E_
TnE +000_ +00_ F_
TnE +000_ +00_ F_
TnE +000_ +00_ E_
TnE +000_ +00_ D_
TnE +000_ +00_ C_
TnE +000_ +00_ C_ L
TnE +001_ +00_ C_
TnE +002_ +00_ C_
TnE +003_ +00_ C_
TnE +001_ +00_ C_
TnE +000_ +00_ C_
TnE -001_ +00_ C_
TnE -002_ +00_ C_
TnE -003_ +00_ C_
TnE -001_ +00_ C_
TnE +000_ +00_ C_
TnE +000_ +00_ C_

[Sample17]
Tne +1C0_ +00_ F_
Tne +280_ +00_ D_
Tne +380_ +00_ 7_
TNE +000_ +00_ 0_ L

[Sample18]
TnE -00C_ +00_ 0_ L

[Sample19]
TNe +000_ +00_ F_
TNe +000_ +00_ C_
TNe +000_ +00_ 6_
TNe +000_ +01_ A- L

[Sample20]
TNE +140_ +00_ F_
tNE +000_ +00_ B- L

[Sample21]
tNE +000_ +00_ D_
tNE +000_ +00_ 8_
tNE +000_ +00_ 1_
TNE +000_ +00_ 0_ L

[Sample22]
TnE +000_ +00_ D_ L
TnE +000_ +00_ D_
tne +000_ +00_ 9_
tne +000_ +00_ 9_
TnE +000_ +00_ D_
TnE +000_ +00_ D_
tne +000_ +00_ 9_
tne +000_ +00_ 9_
TnE +000_ +00_ D_
TnE +000_ +00_ D_
TnE +000_ +00_ D_
TnE +000_ +00_ D_
TnE +000_ +00_ D_
TnE +000_ +00_ D_
tne +000_ +00_ 9_
tne +000_ +00_ 9_

[Sample23]
TnE +000_ +00_ F_ L
TnE +010_ +01_ F_
TnE +010_ +01_ F_
TnE +010_ +01_ F_
TnE +010_ +01_ F_
TnE +000_ +00_ F_
TnE +000_ +00_ F_
TnE -010_ -01_ F_
TnE -010_ -01_ F_
TnE -010_ -01_ F_
TnE -010_ -01_ F_
TnE +000_ +00_ F_

[Sample24]
TNe +000_ -01_ C_
TNe +000_ -01_ D_
TNe +000_ -01_ E_
TNe +000_ -01_ F_
TNe +000_ -01_ F_
TNe +000_ -01_ F_
TNe +000_ -01_ F_
TNe +000_ -01_ F_
TNe +000_ -01_ E_
TNe +000_ -01_ E_
TNe +000_ -01_ E_
TNe +000_ -01_ F_
TNe +000_ -01_ F_ L

[Sample25]
TNE +000_ +00_ F_
TNE +000_ +00_ F_ L
TNE +000_ +00_ F_
TNE +000_ +00_ F_
TNE +000_ +00_ F-

[Sample26]
tne +000_ +00_ 0_ L

[Sample27]
TnE +100_ +05_ F_
TnE +200_ +02_ A_
TnE +300_ +02_ 7_
TNE +400_ +00_ 3- L

[Sample28]
tne +000_ +00_ 0_ L

[Sample29]
tnE +000_ +00_ 0_ L

[Sample30]
TNE +000_ +00_ C+ L

[Sample31]
TNe +1C0_ +00_ F_
Tne +280_ +00_ E_
Tne +380_ +00_ C_
Tne +440_ +00_ A_
Tne +480_ +00_ 8_
TnE +000_ +00_ 0_ L

[Pattern0]
....|..|C-4 AF.F ....|G-5 3FFF ....|G-5 3FFF ....
....|..|--- .... ....|--- .... ....|--- .... ....
....|..|C-4 AF.F ....|R-- .... ....|R-- .... ....
....|..|--- .... ....|--- .... ....|--- .... ....
....|..|C-4 AF.F ....|--- .... ....|--- .... ....
....|..|--- .... ....|--- .... ....|--- .... ....
....|..|C-4 AF.F ....|G-5 3FFF ....|G-5 3FFF ....
....|..|--- .... ....|--- .... ....|--- .... ....
....|..|C-4 AF.F ....|C-6 3FFF ....|C-6 3FFF ....
....|..|--- .... ....|--- .... ....|--- .... ....
....|..|C-4 AF.F ....|R-- .... ....|R-- .... ....
....|..|--- .... ....|--- .... ....|--- .... ....
....|..|C-4 AF.F ....|--- .... ....|--- .... ....
....|..|--- .... ....|--- .... ....|--- .... ....
....|..|C-4 AF.F ....|C-6 3FFF ....|C-6 3FFF ....
....|..|--- .... ....|--- .... ....|--- .... ....
....|..|C-4 AF.F ....|D-6 3FFF ....|D-6 3FFF ....
....|..|C-4 AF.F ....|--- .... ....|--- .... ....
....|..|C-4 AF.F ....|R-- .... ....|R-- .... ....
....|..|--- .... ....|--- .... ....|--- .... ....
....|..|C-4 AF.F ....|--- .... ....|--- .... ....
....|..|--- .... ....|--- .... ....|--- .... ....
....|..|C-4 AF.F ....|G-5 3FFF ....|G-5 3FFF ....
....|..|C-4 AF.F ....|--- .... ....|--- .... ....
....|..|C-4 AF.F ....|C-6 3FFF ....|C-6 3FFF ....
....|..|--- .... ....|--- .... ....|--- .... ....
....|..|C-4 AF.F ....|R-- .... ....|R-- .... ....
....|..|--- .... ....|--- .... ....|--- .... ....
....|..|C-4 AF.F ....|--- .... ....|--- .... ....
....|..|--- .... ....|--- .... ....|--- .... ....
....|..|C-4 AF.F ....|C-6 3FFF ....|C-6 3FFF ....
....|..|--- .... ....|--- .... ....|--- .... ....
....|..|C-4 AF.F ....|D-6 3FFF ....|D-6 3FFF ....
....|..|--- .... ....|--- .... ....|--- .... ....
....|..|C-4 AF.F ....|R-- .... ....|R-- .... ....
....|..|--- .... ....|--- .... ....|--- .... ....
....|..|C-4 AF.F ....|--- .... ....|--- .... ....
....|..|--- .... ....|--- .... ....|--- .... ....
....|..|C-4 AF.F ....|--- .... ....|--- .... ....
....|..|--- .... ....|--- .... ....|--- .... ....
....|..|C-4 AF.F ....|--- .... ....|--- .... ....
....|..|--- .... ....|--- .... ....|--- .... ....
....|..|C-4 AF.F ....|--- .... ....|--- .... ....
....|..|--- .... ....|--- .... ....|--- .... ....
....|..|C-4 AF.F ....|--- .... ....|--- .... ....
....|..|--- .... ....|--- .... ....|--- .... ....
....|..|C-4 AF.F ....|--- .... ....|--- .... ....
....|..|C-4 AF.F ....|--- .... ....|--- .... ....
....|..|C-4 AF.F ....|--- .... ....|--- .... ....
....|..|--- .... ....|--- .... ....|--- .... ....
....|..|C-4 AF.F ....|--- .... ....|--- .... ....
....|..|--- .... ....|--- .... ....|--- .... ....
....|..|C-4 AF.F ....|--- .... ....|--- .... ....
....|..|--- .... ....|--- .... ....|--- .... ....
....|..|C-4 AF.F ....|--- .... ....|--- .... ....
....|..|--- .... ....|--- .... ....|--- .... ....
....|..|C-4 AF.F ....|--- .... ....|--- .... ....
....|..|--- .... ....|--- .... ....|--- .... ....
....|..|C-4 AF.F ....|--- .... ....|--- .... ....
....|..|--- .... ....|--- .... ....|--- .... ....
....|..|C-4 AF.F ....|--- .... ....|--- .... ....
....|..|--- .... ....|--- .... ....|--- .... ....
....|..|C-4 AF.F ....|--- .... ....|--- .... ....
....|..|--- .... ....|--- .... ....|--- .... ....

[Pattern1]
....|..|C-4 AF.F ....|F-5 3FFF ....|F-5 3FFF ....
....|..|--- .... ....|--- .... ....|--- .... ....
....|..|C-4 AF.F ....|R-- .... ....|R-- .... ....
....|..|--- .... ....|--- .... ....|--- .... ....
....|..|C-4 AF.F ....|--- .... ....|--- .... ....
....|..|C-4 AF.F ....|--- .... ....|--- .... ....
....|..|C-4 AF.F ....|F-5 3FFF ....|F-5 3FFF ....
....|..|--- .... ....|--- .... ....|--- .... ....
....|..|C-4 AF.F ....|A-5 3FFF ....|A-5 3FFF ....
....|..|--- .... ....|--- .... ....|--- .... ....
....|..|C-4 AF.F ....|R-- .... ....|R-- .... ....
....|..|--- .... ....|--- .... ....|--- .... ....
....|..|C-4 AF.F ....|--- .... ....|--- .... ....
....|..|C-4 AF.F ....|--- .... ....|--- .... ....
....|..|C-4 AF.F ....|A-5 3FFF ....|A-5 3FFF ....
....|..|--- .... ....|--- .... ....|--- .... ....
....|..|C-4 AF.F ....|C-6 3FFF ....|C-6 3FFF ....
....|..|--- .... ....|--- .... ....|--- .... ....
....|..|C-4 AF.F ....|R-- .... ....|R-- .... ....
....|..|--- .... ....|--- .... ....|--- .... ....
....|..|C-4 AF.F ....|--- .... ....|--- .... ....
....|..|--- .... ....|--- .... ....|--- .... ....
....|..|C-4 AF.F ....|F-5 3FFF ....|F-5 3FFF ....
....|..|--- .... ....|--- .... ....|--- .... ....
....|..|C-4 AF.F ....|A-5 3FFF ....|A-5 3FFF ....
....|..|--- .... ....|--- .... ....|--- .... ....
....|..|C-4 AF.F ....|R-- .... ....|R-- .... ....
....|..|--- .... ....|--- .... ....|--- .... ....
....|..|C-4 AF.F ....|--- .... ....|--- .... ....
....|..|--- .... ....|--- .... ....|--- .... ....
....|..|C-4 AF.F ....|A-5 3FFF ....|A-5 3FFF ....
....|..|--- .... ....|--- .... ....|--- .... ....
....|..|C-4 AF.F ....|C-6 3FFF ....|C-6 3FFF ....
....|..|--- .... ....|--- .... ....|--- .... ....
....|..|C-4 AF.F ....|R-- .... ....|R-- .... ....
....|..|--- .... ....|--- .... ....|--- .... ....
....|..|C-4 AF.F ....|--- .... ....|--- .... ....
....|..|--- .... ....|--- .... ....|--- .... ....
....|..|C-4 AF.F ....|E-5 3FFF ....|E-5 3FFF ....
....|..|--- .... ....|--- .... ....|--- .... ....
....|..|C-4 AF.F ....|A-5 3FFF ....|A-5 3FFF ....
....|..|--- .... ....|--- .... ....|--- .... ....
....|..|C-4 AF.F ....|R-- .... ....|R-- .... ....
....|..|--- .... ....|--- .... ....|--- .... ....
....|..|C-4 AF.F ....|--- .... ....|--- .... ....
....|..|C-4 AF.F ....|--- .... ....|--- .... ....
....|..|C-4 AF.F ....|A-5 3FFF ....|A-5 3FFF ....
....|..|--- .... ....|--- .... ....|--- .... ....
....|..|C-4 AF.F ....|B-5 3FFF ....|B-5 3FFF ....
....|..|--- .... ....|--- .... ....|--- .... ....
....|..|C-4 AF.F ....|R-- .... ....|R-- .... ....
....|..|--- .... ....|--- .... ....|--- .... ....
....|..|C-4 AF.F ....|--- .... ....|--- .... ....
....|..|--- .... ....|--- .... ....|--- .... ....
....|..|C-4 AF.F ....|E-5 3FFF ....|E-5 3FFF ....
....|..|--- .... ....|--- .... ....|--- .... ....
....|..|C-4 AF.F ....|A-5 3FFF ....|A-5 3FFF ....
....|..|C-4 AF.F ....|--- .... ....|--- .... ....
....|..|C-4 AF.F ....|R-- .... ....|R-- .... ....
....|..|--- .... ....|--- .... ....|--- .... ....
....|..|C-4 AF.F ....|--- .... ....|--- .... ....
....|..|--- .... ....|--- .... ....|--- .... ....
....|..|C-4 AF.F ....|A-5 3FFF ....|A-5 3FFF ....
....|..|--- .... ....|--- .... ....|--- .... ....

[Pattern2]
....|..|C-4 AF.F ....|G-5 3FFF ....|G-5 3FFF ....
....|..|C-4 AF.F ....|C-4 6F1F ....|--- .... ....
....|..|C-4 AF.F ....|R-- .... ....|R-- .... ....
....|..|C-4 AF.F ....|--- .... ....|--- .... ....
....|..|C-4 AF.F ....|--- .... ....|--- .... ....
....|..|--- .... ....|--- .... ....|--- .... ....
....|..|C-4 AF.F ....|G-5 3FFF ....|G-5 3FFF ....
....|..|--- .... ....|C-4 6F1A ....|--- .... ....
....|..|C-4 AF.F ....|C-6 3FFF ....|C-6 3FFF ....
....|..|--- .... ....|--- .... ....|--- .... ....
....|..|C-4 AF.F ....|R-- .... ....|R-- .... ....
....|..|--- .... ....|--- .... ....|--- .... ....
....|..|C-4 AF.F ....|C-4 6F17 ....|--- .... ....
....|..|--- .... ....|--- .... ....|--- .... ....
....|..|C-4 AF.F ....|C-6 3FFF ....|C-6 3FFF ....
....|..|--- .... ....|--- .... ....|--- .... ....
....|..|C-4 AF.F ....|D-6 3FFF ....|D-6 3FFF ....
....|..|C-4 AF.F ....|--- .... ....|--- .... ....
....|..|C-4 AF.F ....|R-- .... ....|R-- .... ....
....|..|--- .... ....|--- .... ....|--- .... ....
....|..|C-4 AF.F ....|--- .... ....|--- .... ....
....|..|--- .... ....|--- .... ....|--- .... ....
....|..|C-4 AF.F ....|G-5 3FFF ....|G-5 3FFF ....
....|..|C-4 AF.F ....|--- .... ....|--- .... ....
....|..|C-4 AF.F ....|C-6 3FFF ....|C-6 3FFF ....
....|..|--- .... ....|--- .... ....|--- .... ....
....|..|C-4 AF.F ....|R-- .... ....|R-- .... ....
....|..|--- .... ....|--- .... ....|--- .... ....
....|..|C-4 AF.F ....|--- .... ....|--- .... ....
....|..|--- .... ....|--- .... ....|--- .... ....
....|..|C-4 AF.F ....|C-6 3FFF ....|C-6 3FFF ....
....|..|--- .... ....|R-- .... ....|--- .... ....
....|..|C-4 AF.F ....|D-6 3FFF ....|D-6 3FFF ....
....|..|--- .... ....|G-3 6F1F ....|--- .... ....
....|..|C-4 AF.F ....|R-- .... ....|R-- .... ....
....|..|--- .... ....|--- .... ....|--- .... ....
....|..|C-4 AF.F ....|R-- .... ....|--- .... ....
....|..|--- .... ....|--- .... ....|--- .... ....
....|..|C-4 AF.F ....|G-3 6F1A ....|--- .... ....
....|..|--- .... ....|--- .... ....|--- .... ....
....|..|C-4 AF.F ....|--- .... ....|--- .... ....
....|..|--- .... ....|--- .... ....|--- .... ....
....|..|C-4 AF.F ....|R-- .... ....|--- .... ....
....|..|--- .... ....|--- .... ....|--- .... ....
....|..|C-4 AF.F ....|G-3 6F17 ....|--- .... ....
....|..|--- .... ....|--- .... ....|--- .... ....
....|..|C-4 AF.F ....|--- .... ....|--- .... ....
....|..|C-4 AF.F ....|--- .... ....|--- .... ....
....|..|C-4 AF.F ....|--- .... ....|--- .... ....
....|..|--- .... ....|--- .... ....|--- .... ....
....|..|C-4 AF.F ....|--- .... ....|--- .... ....
....|..|--- .... ....|--- .... ....|--- .... ....
....|..|C-4 AF.F ....|--- .... ....|--- .... ....
....|..|--- .... ....|--- .... ....|--- .... ....
....|..|C-4 AF.F ....|--- .... ....|--- .... ....
....|..|--- .... ....|--- .... ....|--- .... ....
....|..|C-4 AF.F ....|--- .... ....|--- .... ....
....|..|--- .... ....|--- .... ....|--- .... ....
....|..|C-4 AF.F ....|--- .... ....|--- .... ....
....|..|--- .... ....|--- .... ....|--- .... ....
....|..|C-4 AF.F ....|--- .... ....|--- .... ....
....|..|--- .... ....|--- .... ....|--- .... ....
....|..|C-4 AF.F ....|R-- .... ....|--- .... ....
....|..|--- .... ....|--- .... ....|--- .... ....

[Pattern3]
....|..|C-4 AF.F ....|F-5 3FFF ....|F-5 3FFF ....
....|..|--- .... ....|A-3 6F2F ....|--- .... ....
....|..|C-4 AF.F ....|R-- .... ....|R-- .... ....
....|..|--- .... ....|--- .... ....|--- .... ....
....|..|C-4 AF.F ....|R-- .... ....|--- .... ....
....|..|C-4 AF.F ....|--- .... ....|--- .... ....
....|..|C-4 AF.F ....|F-5 3FFF ....|F-5 3FFF ....
....|..|--- .... ....|A-3 6F2A ....|--- .... ....
....|..|C-4 AF.F ....|A-5 3FFF ....|A-5 3FFF ....
....|..|--- .... ....|--- .... ....|--- .... ....
....|..|C-4 AF.F ....|R-- .... ....|R-- .... ....
....|..|--- .... ....|--- .... ....|--- .... ....
....|..|C-4 AF.F ....|A-3 6F27 ....|--- .... ....
....|..|C-4 AF.F ....|--- .... ....|--- .... ....
....|..|C-4 AF.F ....|A-5 3FFF ....|A-5 3FFF ....
....|..|--- .... ....|--- .... ....|--- .... ....
....|..|C-4 AF.F ....|C-6 3FFF ....|C-6 3FFF ....
....|..|--- .... ....|--- .... ....|--- .... ....
....|..|C-4 AF.F ....|R-- .... ....|R-- .... ....
....|..|--- .... ....|--- .... ....|--- .... ....
....|..|C-4 AF.F ....|--- .... ....|--- .... ....
....|..|--- .... ....|--- .... ....|--- .... ....
....|..|C-4 AF.F ....|F-5 3FFF ....|F-5 3FFF ....
....|..|--- .... ....|--- .... ....|--- .... ....
....|..|C-4 AF.F ....|A-5 3FFF ....|A-5 3FFF ....
....|..|--- .... ....|--- .... ....|--- .... ....
....|..|C-4 AF.F ....|R-- .... ....|R-- .... ....
....|..|--- .... ....|--- .... ....|--- .... ....
....|..|C-4 AF.F ....|A-3 6F.F ....|--- .... ....
....|..|--- .... ....|R-- .... ....|--- .... ....
....|..|C-4 AF.F ....|A-5 3FFF ....|A-5 3FFF ....
....|..|--- .... ....|--- .... ....|--- .... ....
....|..|C-4 AF.F ....|C-6 3FFF ....|C-6 3FFF ....
....|..|--- .... ....|G-3 6F3F ....|--- .... ....
....|..|C-4 AF.F ....|A-3 6F.A ....|R-- .... ....
....|..|--- .... ....|R-- .... ....|--- .... ....
....|..|C-4 AF.F ....|--- .... ....|--- .... ....
....|..|--- .... ....|--- .... ....|--- .... ....
....|..|C-4 AF.F ....|E-5 3FFF ....|E-5 3FFF ....
....|..|--- .... ....|G-3 6F3A ....|--- .... ....
....|..|C-4 AF.F ....|A-5 3FFF ....|A-5 3FFF ....
....|..|--- .... ....|A-3 6F.7 ....|--- .... ....
....|..|C-4 AF.F ....|R-- .... ....|R-- .... ....
....|..|--- .... ....|--- .... ....|--- .... ....
....|..|C-4 AF.F ....|G-3 6F37 ....|--- .... ....
....|..|C-4 AF.F ....|--- .... ....|--- .... ....
....|..|C-4 AF.F ....|A-5 3FFF ....|A-5 3FFF ....
....|..|--- .... ....|--- .... ....|--- .... ....
....|..|C-4 AF.F ....|B-5 3FFF ....|B-5 3FFF ....
....|..|--- .... ....|F-3 6F3F ....|--- .... ....
....|..|C-4 AF.F ....|R-- .... ....|R-- .... ....
....|..|--- .... ....|--- .... ....|--- .... ....
....|..|C-4 AF.F ....|--- .... ....|--- .... ....
....|..|--- .... ....|--- .... ....|--- .... ....
....|..|C-4 AF.F ....|E-5 3FFF ....|E-5 3FFF ....
....|..|--- .... ....|F-3 6F3A ....|--- .... ....
....|..|C-4 AF.F ....|A-5 3FFF ....|A-5 3FFF ....
....|..|C-4 AF.F ....|--- .... ....|--- .... ....
....|..|C-4 AF.F ....|R-- .... ....|R-- .... ....
....|..|--- .... ....|--- .... ....|--- .... ....
....|..|C-4 AF.F ....|F-3 6F37 ....|--- .... ....
....|..|--- .... ....|--- .... ....|--- .... ....
....|..|C-4 AF.F ....|A-5 3FFF ....|A-5 3FFF ....
....|..|--- .... ....|--- .... ....|--- .... ....

[Pattern4]
....|..|C-4 AF.F ....|G-5 3FFF ....|C-6 UFEF ....
....|..|C-4 AF.F ....|C-4 6F1F ....|--- .... ....
....|..|C-4 AF.F ....|R-- .... ....|R-- .... ....
....|..|C-4 AF.F ....|--- .... ....|--- .... ....
....|..|C-4 AF.F ....|--- .... ....|--- .... ....
 C-3|..|C-3 2C.F ....|--- .... ....|--- .... ....
....|..|C-4 AF.F ....|G-5 3FFF ....|G-5 3FFF ....
....|..|C-2 2F.A ....|C-4 6F1A ....|--- .... ....
....|..|C-4 AF.F ....|C-6 3FFF ....|C-6 3FFF ....
 C-4|..|C-2 2A.F ....|--- .... ....|--- .... ....
....|..|C-4 AF.F ....|R-- .... ....|R-- .... ....
....|..|C-3 2F.A ....|--- .... ....|--- .... ....
....|..|C-4 AF.F ....|C-4 6F17 ....|C-6 UFE7 ....
 C-3|..|C-3 2C.F ....|--- .... ....|--- .... ....
....|..|C-4 AF.F ....|C-6 3FFF ....|C-6 3FFF ....
....|..|C-2 2F.A ....|--- .... ....|--- .... ....
....|..|C-4 AF.F ....|D-6 3FFF ....|B-5 UFEF ....
....|..|C-4 AF.F ....|--- .... ....|--- .... ....
....|..|C-4 AF.F ....|R-- .... ....|R-- .... ....
 C-3|..|C-3 2C.F ....|--- .... ....|--- .... ....
....|..|C-4 AF.F ....|--- .... ....|--- .... ....
....|..|C-3 2F.A ....|--- .... ....|--- .... ....
....|..|C-4 AF.F ....|G-5 3FFF ....|G-5 3FFF ....
....|..|C-4 AF.F ....|--- .... ....|--- .... ....
....|..|C-4 AF.F ....|C-6 3FFF ....|C-6 3FFF ....
....|..|C-3 2F.A ....|--- .... ....|--- .... ....
....|..|C-4 AF.F ....|R-- .... ....|R-- .... ....
 C-4|..|C-2 2A.F ....|--- .... ....|--- .... ....
....|..|C-4 AF.F ....|--- .... ....|A-5 UFEF ....
 C-3|..|C-3 2C.F ....|--- .... ....|--- .... ....
....|..|C-4 AF.F ....|C-6 3FFF ....|C-6 3FFF ....
 C-3|..|C-3 2C.F ....|R-- .... ....|R-- .... ....
....|..|C-4 AF.F ....|D-6 3FFF ....|G-5 UFEF ....
....|..|C-2 2F.A ....|G-3 6F1F ....|--- .... ....
....|..|C-4 AF.F ....|R-- .... ....|R-- .... ....
 G-3|..|G-1 2A.F ....|--- .... ....|--- .... ....
....|..|C-4 AF.F ....|R-- .... ....|--- .... ....
 G-4|..|G-2 2A.F ....|--- .... ....|R-- .... ....
....|..|C-4 AF.F ....|G-3 6F1A ....|G-5 UFEA ....
 G-4|..|G-2 2A.F ....|--- .... ....|--- .... ....
....|..|C-4 AF.F ....|--- .... ....|A-5 UFE7 ....
....|..|G-1 2F.A ....|--- .... ....|--- .... ....
....|..|C-4 AF.F ....|R-- .... ....|--- .... ....
 G-3|..|G-1 2A.F ....|--- .... ....|R-- .... ....
....|..|C-4 AF.F ....|G-3 6F17 ....|G-5 UFE7 ....
 G-4|..|G-2 2A.F ....|--- .... ....|--- .... ....
....|..|C-4 AF.F ....|--- .... ....|R-- .... ....
....|..|C-4 AF.F ....|--- .... ....|--- .... ....
....|..|C-4 AF.F ....|--- .... ....|--- .... ....
 G-3|..|G-1 2A.F ....|--- .... ....|--- .... ....
....|..|C-4 AF.F ....|--- .... ....|--- .... ....
 G-4|..|G-2 2A.F ....|--- .... ....|--- .... ....
....|..|C-4 AF.F ....|--- .... ....|R-- .... ....
 G-4|..|G-2 2A.F ....|--- .... ....|--- .... ....
....|..|C-4 AF.F ....|--- .... ....|--- .... ....
 G-4|..|G-2 2A.F ....|--- .... ....|--- .... ....
....|..|C-4 AF.F ....|--- .... ....|E-5 UFEF ....
....|..|G-2 2F.A ....|--- .... ....|--- .... ....
....|..|C-4 AF.F ....|--- .... ....|--- .... ....
 G-3|..|G-1 2A.F ....|--- .... ....|--- .... ....
....|..|C-4 AF.F ....|--- .... ....|D-5 UFEF ....
 G-4|..|G-2 2A.F ....|--- .... ....|--- .... ....
....|..|C-4 AF.F ....|R-- .... ....|E-5 UFEA ....
 G-4|..|G-2 2A.F ....|--- .... ....|--- .... ....

[Pattern5]
....|..|C-4 AF.F ....|F-5 3FFF ....|E-5 UFEF ....
....|..|G-1 2F.A ....|A-3 6F2F ....|E-5 UFEF ....
....|..|C-4 AF.F ....|R-- .... ....|R-- .... ....
 F-3|..|F-1 2A.F ....|--- .... ....|--- .... ....
....|..|C-4 AF.F ....|R-- .... ....|E-5 UFE7 ....
....|..|C-4 AF.F ....|--- .... ....|--- .... ....
....|..|C-4 AF.F ....|F-5 3FFF ....|F-5 3FFF ....
 F-4|..|F-2 2A.F ....|A-3 6F2A ....|E-5 UFEA ....
....|..|C-4 AF.F ....|A-5 3FFF ....|A-5 3FFF ....
 F-3|..|F-1 2A.F ....|--- .... ....|--- .... ....
....|..|C-4 AF.F ....|R-- .... ....|R-- .... ....
 F-4|..|F-2 2A.F ....|--- .... ....|--- .... ....
....|..|C-4 AF.F ....|A-3 6F27 ....|E-5 UFE7 ....
....|..|C-4 AF.F ....|--- .... ....|E-5 UFE7 ....
....|..|C-4 AF.F ....|A-5 3FFF ....|A-5 3FFF ....
 F-4|..|F-2 2A.F ....|--- .... ....|--- .... ....
....|..|C-4 AF.F ....|C-6 3FFF ....|C-6 3FFF ....
 F-3|..|F-1 2A.F ....|--- .... ....|--- .... ....
....|..|C-4 AF.F ....|R-- .... ....|R-- .... ....
 F-4|..|F-2 2A.F ....|--- .... ....|--- .... ....
....|..|C-4 AF.F ....|--- .... ....|--- .... ....
....|..|F-2 2F.A ....|--- .... ....|--- .... ....
....|..|C-4 AF.F ....|F-5 3FFF ....|F-5 3FFF ....
 F-4|..|F-2 2A.F ....|--- .... ....|--- .... ....
....|..|C-4 AF.F ....|A-5 3FFF ....|A-5 3FFF ....
 F-3|..|F-1 2A.F ....|--- .... ....|--- .... ....
....|..|C-4 AF.F ....|R-- .... ....|R-- .... ....
 F-4|..|F-2 2A.F ....|--- .... ....|--- .... ....
....|..|C-4 AF.F ....|A-3 6F.F ....|--- .... ....
 F-4|..|F-2 2A.F ....|R-- .... ....|--- .... ....
....|..|C-4 AF.F ....|A-5 3FFF ....|A-5 3FFF ....
 F-4|..|F-2 2A.F ....|--- .... ....|--- .... ....
....|..|C-4 AF.F ....|C-6 3FFF ....|C-6 3FFF ....
....|..|F-2 2F.A ....|G-3 6F3F ....|--- .... ....
....|..|C-4 AF.F ....|A-3 6F.A ....|R-- .... ....
 E-3|..|E-1 2A.F ....|R-- .... ....|--- .... ....
....|..|C-4 AF.F ....|--- .... ....|--- .... ....
 E-4|..|E-2 2A.F ....|--- .... ....|--- .... ....
....|..|C-4 AF.F ....|E-5 3FFF ....|E-5 3FFF ....
 E-4|..|E-2 2A.F ....|G-3 6F3A ....|R-- .... ....
....|..|C-4 AF.F ....|A-5 3FFF ....|B-4 UFEF ....
....|..|E-1 2F.A ....|A-3 6F.7 ....|--- .... ....
....|..|C-4 AF.F ....|R-- .... ....|R-- .... ....
 E-3|..|E-1 2A.F ....|--- .... ....|--- .... ....
....|..|C-4 AF.F ....|G-3 6F37 ....|R-- .... ....
....|..|C-4 AF.F ....|--- .... ....|R-- .... ....
....|..|C-4 AF.F ....|A-5 3FFF ....|A-5 3FFF ....
 E-4|..|E-2 2A.F ....|--- .... ....|--- .... ....
....|..|C-4 AF.F ....|B-5 3FFF ....|C-5 UFEF ....
 E-3|..|E-1 2A.F ....|G-3 6F1F ....|--- .... ....
....|..|C-4 AF.F ....|R-- .... ....|R-- .... ....
 E-4|..|E-2 2A.F ....|--- .... ....|R-- .... ....
....|..|C-4 AF.F ....|--- .... ....|B-4 UFE7 ....
 E-4|..|E-2 2A.F ....|--- .... ....|R-- .... ....
....|..|C-4 AF.F ....|E-5 3FFF ....|E-5 3FFF ....
 E-4|..|E-2 2A.F ....|G-3 6F1A ....|--- .... ....
....|..|C-4 AF.F ....|A-5 3FFF ....|B-4 UFEF ....
....|..|C-4 AF.F ....|--- .... ....|--- .... ....
....|..|C-4 AF.F ....|R-- .... ....|R-- .... ....
 E-3|..|E-1 2A.F ....|--- .... ....|R-- .... ....
....|..|C-4 AF.F ....|G-3 6F17 ....|C-5 UFE7 ....
....|..|E-2 2F.A ....|--- .... ....|--- .... ....
....|..|C-4 AF.F ....|A-5 3FFF ....|A-5 3FFF ....
 E-4|..|E-2 2A.F ....|--- .... ....|--- .... ....

[Pattern6]
....|..|C-4 AF.F ....|G-5 3FFF ....|C-4 UFEF ....
....|..|C-4 AF.F ....|C-4 6F1F ....|R-- .... ....
....|..|C-4 AF.F ....|R-- .... ....|R-- .... ....
....|..|C-4 AF.F ....|--- .... ....|R-- .... ....
....|..|C-4 AF.F ....|--- .... ....|B-3 UFEF ....
....|..|E-2 2F.A ....|--- .... ....|--- .... ....
....|..|C-4 AF.F ....|G-5 3FFF ....|G-5 3FFF ....
 C-3|..|C-3 2C.F ....|C-4 6F1A ....|R-- .... ....
....|..|C-4 AF.F ....|C-6 3FFF ....|C-4 UFEF ....
....|..|C-2 2F.A ....|--- .... ....|R-- .... ....
....|..|C-4 AF.F ....|R-- .... ....|R-- .... ....
 C-4|..|C-2 2A.F ....|--- .... ....|--- .... ....
....|..|C-4 AF.F ....|C-4 6F17 ....|C-4 UFE7 ....
....|..|C-3 2F.A ....|--- .... ....|R-- .... ....
....|..|C-4 AF.F ....|C-6 3FFF ....|C-6 3FFF ....
 C-3|..|C-3 2C.F ....|--- .... ....|R-- .... ....
....|..|C-4 AF.F ....|D-6 3FFF ....|D-6 3FFF ....
....|..|C-4 AF.F ....|--- .... ....|--- .... ....
....|..|C-4 AF.F ....|R-- .... ....|R-- .... ....
 C-3|..|C-3 2C.F ....|--- .... ....|R-- .... ....
....|..|C-4 AF.F ....|--- .... ....|C-4 UFE7 ....
....|..|C-3 2F.A ....|--- .... ....|--- .... ....
....|..|C-4 AF.F ....|G-5 3FFF ....|G-5 3FFF ....
....|..|C-4 AF.F ....|--- .... ....|--- .... ....
....|..|C-4 AF.F ....|C-6 3FFF ....|C-6 3FFF ....
....|..|C-3 2F.A ....|--- .... ....|--- .... ....
....|..|C-4 AF.F ....|R-- .... ....|R-- .... ....
 C-4|..|C-2 2A.F ....|--- .... ....|--- .... ....
....|..|C-4 AF.F ....|--- .... ....|--- .... ....
 C-3|..|C-3 2C.F ....|--- .... ....|--- .... ....
....|..|C-4 AF.F ....|C-6 3FFF ....|C-6 3FFF ....
 C-3|..|C-3 2C.F ....|R-- .... ....|--- .... ....
....|..|C-4 AF.F ....|D-6 3FFF ....|D-4 UFEF ....
....|..|C-2 2F.A ....|G-3 6F1F ....|--- .... ....
....|..|C-4 AF.F ....|R-- .... ....|R-- .... ....
 G-3|..|G-1 2A.F ....|--- .... ....|--- .... ....
....|..|C-4 AF.F ....|R-- .... ....|--- .... ....
 G-4|..|G-2 2A.F ....|--- .... ....|--- .... ....
....|..|C-4 AF.F ....|G-3 6F1A ....|D-4 UFEA ....
 G-4|..|G-2 2A.F ....|--- .... ....|--- .... ....
....|..|C-4 AF.F ....|--- .... ....|--- .... ....
....|..|G-1 2F.A ....|--- .... ....|--- .... ....
....|..|C-4 AF.F ....|R-- .... ....|--- .... ....
 G-3|..|G-1 2A.F ....|--- .... ....|--- .... ....
....|..|C-4 AF.F ....|G-3 6F17 ....|D-4 UFE7 ....
 G-4|..|G-2 2A.F ....|--- .... ....|--- .... ....
....|..|C-4 AF.F ....|--- .... ....|--- .... ....
....|..|C-4 AF.F ....|--- .... ....|--- .... ....
....|..|C-4 AF.F ....|--- .... ....|E-4 UFEF ....
 G-3|..|G-1 2A.F ....|--- .... ....|--- .... ....
....|..|C-4 AF.F ....|--- .... ....|--- .... ....
 G-4|..|G-2 2A.F ....|--- .... ....|--- .... ....
....|..|C-4 AF.F ....|--- .... ....|R-- .... ....
 G-4|..|G-2 2A.F ....|--- .... ....|--- .... ....
....|..|C-4 AF.F ....|--- .... ....|E-4 UFEA ....
 G-4|..|G-2 2A.F ....|--- .... ....|--- .... ....
....|..|C-4 AF.F ....|--- .... ....|F-4 UFEF ....
....|..|G-2 2F.A ....|--- .... ....|--- .... ....
....|..|C-4 AF.F ....|--- .... ....|R-- .... ....
 G-3|..|G-1 2A.F ....|--- .... ....|--- .... ....
....|..|C-4 AF.F ....|--- .... ....|E-4 UFE7 ....
 G-4|..|G-2 2A.F ....|--- .... ....|--- .... ....
....|..|C-4 AF.F ....|R-- .... ....|F-4 UFEA ....
 G-4|..|G-2 2A.F ....|--- .... ....|--- .... ....

[Pattern7]
....|..|C-4 AF.F ....|F-5 3FFF ....|C-4 UFEF ....
....|..|G-1 2F.A ....|A-3 6F2F ....|--- .... ....
....|..|C-4 AF.F ....|R-- .... ....|R-- .... ....
 F-3|..|F-1 2A.F ....|--- .... ....|--- .... ....
....|..|C-4 AF.F ....|R-- .... ....|F-4 UFE7 ....
....|..|C-4 AF.F ....|--- .... ....|--- .... ....
....|..|C-4 AF.F ....|F-5 3FFF ....|F-5 3FFF ....
 F-4|..|F-2 2A.F ....|A-3 6F2A ....|--- .... ....
....|..|C-4 AF.F ....|A-5 3FFF ....|A-5 3FFF ....
 F-3|..|F-1 2A.F ....|--- .... ....|--- .... ....
....|..|C-4 AF.F ....|R-- .... ....|R-- .... ....
 F-4|..|F-2 2A.F ....|--- .... ....|--- .... ....
....|..|C-4 AF.F ....|A-3 6F27 ....|C-4 UFE7 ....
....|..|C-4 AF.F ....|--- .... ....|--- .... ....
....|..|C-4 AF.F ....|A-5 3FFF ....|A-5 3FFF ....
 F-4|..|F-2 2A.F ....|--- .... ....|--- .... ....
....|..|C-4 AF.F ....|C-6 3FFF ....|D-4 UFEF ....
 F-3|..|F-1 2A.F ....|--- .... ....|--- .... ....
....|..|C-4 AF.F ....|R-- .... ....|R-- .... ....
 F-4|..|F-2 2A.F ....|--- .... ....|--- .... ....
....|..|C-4 AF.F ....|--- .... ....|R-- .... ....
....|..|F-2 2F.A ....|--- .... ....|--- .... ....
....|..|C-4 AF.F ....|F-5 3FFF ....|F-5 3FFF ....
 F-4|..|F-2 2A.F ....|--- .... ....|--- .... ....
....|..|C-4 AF.F ....|A-5 3FFF ....|E-4 UFEF ....
 F-3|..|F-1 2A.F ....|--- .... ....|--- .... ....
....|..|C-4 AF.F ....|R-- .... ....|R-- .... ....
 F-4|..|F-2 2A.F ....|--- .... ....|--- .... ....
....|..|C-4 AF.F ....|A-3 6F.F ....|D-4 UFE7 ....
 F-4|..|F-2 2A.F ....|R-- .... ....|--- .... ....
....|..|C-4 AF.F ....|A-5 3FFF ....|A-5 3FFF ....
 F-4|..|F-2 2A.F ....|--- .... ....|--- .... ....
....|..|C-4 AF.F ....|C-6 3FFF ....|B-3 UFEF ....
....|..|F-2 2F.A ....|G-3 6F3F ....|--- .... ....
....|..|C-4 AF.F ....|A-3 6F.A ....|R-- .... ....
 E-3|..|E-1 2A.F ....|R-- .... ....|--- .... ....
....|..|C-4 AF.F ....|--- .... ....|E-4 UFE7 ....
 E-4|..|E-2 2A.F ....|--- .... ....|--- .... ....
....|..|C-4 AF.F ....|E-5 3FFF ....|E-5 3FFF ....
 E-4|..|E-2 2A.F ....|G-3 6F3A ....|--- .... ....
....|..|C-4 AF.F ....|A-5 3FFF ....|A-5 3FFF ....
....|..|E-1 2F.A ....|A-3 6F.7 ....|--- .... ....
....|..|C-4 AF.F ....|R-- .... ....|R-- .... ....
 E-3|..|E-1 2A.F ....|--- .... ....|--- .... ....
....|..|C-4 AF.F ....|G-3 6F37 ....|B-3 UFE7 ....
....|..|C-4 AF.F ....|--- .... ....|--- .... ....
....|..|C-4 AF.F ....|A-5 3FFF ....|A-5 3FFF ....
 E-4|..|E-2 2A.F ....|--- .... ....|--- .... ....
....|..|C-4 AF.F ....|B-5 3FFF ....|D-4 UFEF ....
 E-3|..|E-1 2A.F ....|F-3 6F3F ....|--- .... ....
....|..|C-4 AF.F ....|R-- .... ....|R-- .... ....
 E-4|..|E-2 2A.F ....|--- .... ....|--- .... ....
....|..|C-4 AF.F ....|--- .... ....|--- .... ....
 E-4|..|E-2 2A.F ....|--- .... ....|--- .... ....
....|..|C-4 AF.F ....|E-5 3FFF ....|E-5 3FFF ....
 E-4|..|E-2 2A.F ....|F-3 6F3A ....|--- .... ....
....|..|C-4 AF.F ....|A-5 3FFF ....|C-4 UFEF ....
....|..|C-4 AF.F ....|--- .... ....|--- .... ....
....|..|C-4 AF.F ....|R-- .... ....|R-- .... ....
 E-3|..|E-1 2A.F ....|--- .... ....|--- .... ....
....|..|C-4 AF.F ....|F-3 6F37 ....|D-4 UFE7 ....
....|..|E-2 2F.A ....|--- .... ....|--- .... ....
....|..|C-4 AF.F ....|A-5 3FFF ....|A-5 3FFF ....
 E-4|..|E-2 2A.F ....|--- .... ....|--- .... ....

[Pattern8]
....|..|C-4 AF.F ....|G-5 3FFF ....|C-5 UFEF ....
....|..|C-4 AF.F ....|C-4 6F1F ....|--- .... ....
....|..|C-4 AF.F ....|R-- .... ....|R-- .... ....
....|..|C-4 AF.F ....|--- .... ....|--- .... ....
....|..|C-4 AF.F ....|F-5 3FFF ....|F-5 3FFF ....
....|..|E-2 2F.A ....|--- .... ....|--- .... ....
....|..|C-4 AF.F ....|G-5 3FFF ....|G-5 3FFF ....
 C-3|..|C-3 2C.F ....|C-4 6F1A ....|--- .... ....
....|..|C-4 AF.F ....|C-6 3FFF ....|C-6 3FFF ....
....|..|C-2 2F.A ....|--- .... ....|--- .... ....
....|..|C-4 AF.F ....|F-5 3FFF ....|F-5 3FFF ....
 C-4|..|C-2 2A.F ....|--- .... ....|--- .... ....
....|..|C-4 AF.F ....|C-4 6F17 ....|R-- .... ....
....|..|C-3 2F.A ....|--- .... ....|--- .... ....
....|..|C-4 AF.F ....|C-6 3FFF ....|C-6 3FFF ....
 C-3|..|C-3 2C.F ....|--- .... ....|--- .... ....
....|..|C-4 AF.F ....|D-6 3FFF ....|D-5 UFEF ....
....|..|C-4 AF.F ....|--- .... ....|--- .... ....
....|..|C-4 AF.F ....|R-- .... ....|R-- .... ....
 C-3|..|C-3 2C.F ....|--- .... ....|--- .... ....
....|..|C-4 AF.F ....|--- .... ....|--- .... ....
....|..|C-3 2F.A ....|--- .... ....|--- .... ....
....|..|C-4 AF.F ....|G-5 3FFF ....|G-5 3FFF ....
....|..|C-4 AF.F ....|--- .... ....|--- .... ....
....|..|C-4 AF.F ....|C-6 3FFF ....|C-6 3FFF ....
....|..|C-3 2F.A ....|--- .... ....|--- .... ....
....|..|C-4 AF.F ....|R-- .... ....|R-- .... ....
 C-4|..|C-2 2A.F ....|--- .... ....|--- .... ....
....|..|C-4 AF.F ....|--- .... ....|E-5 UFEF ....
 C-3|..|C-3 2C.F ....|--- .... ....|--- .... ....
....|..|C-4 AF.F ....|C-6 3FFF ....|C-6 3FFF ....
 C-3|..|C-3 2C.F ....|R-- .... ....|--- .... ....
....|..|C-4 AF.F ....|D-6 3FFF ....|G-5 UFEF ....
....|..|C-2 2F.A ....|G-3 6F1F ....|--- .... ....
....|..|C-4 AF.F ....|--- .... ....|E-5 UFEA ....
 G-3|..|G-1 2A.F ....|--- .... ....|--- .... ....
....|..|C-4 AF.F ....|E-6 3FFF ....|E-6 3FFF ....
 G-4|..|G-2 2A.F ....|R-- .... ....|--- .... ....
....|..|C-4 AF.F ....|G-3 6F1A ....|G-5 UFEA ....
 G-4|..|G-2 2A.F ....|--- .... ....|--- .... ....
....|..|C-4 AF.F ....|B-5 3FFF ....|F-5 UFEF ....
....|..|G-1 2F.A ....|--- .... ....|--- .... ....
....|..|C-4 AF.F ....|R-- .... ....|R-- .... ....
 G-3|..|G-1 2A.F ....|--- .... ....|--- .... ....
....|..|C-4 AF.F ....|D-6 3FFF ....|D-6 3FFF ....
 G-4|..|G-2 2A.F ....|G-3 6F17 ....|--- .... ....
....|..|C-4 AF.F ....|--- .... ....|F-5 UFEA ....
....|..|C-4 AF.F ....|--- .... ....|--- .... ....
....|..|C-4 AF.F ....|E-6 3FFF ....|E-6 3FFF ....
 G-3|..|G-1 2A.F ....|--- .... ....|--- .... ....
....|..|C-4 AF.F ....|R-- .... ....|R-- .... ....
 G-4|..|G-2 2A.F ....|--- .... ....|--- .... ....
....|..|C-4 AF.F ....|F-6 3FFF ....|F-6 3FFF ....
 G-4|..|G-2 2A.F ....|--- .... ....|--- .... ....
....|..|C-4 AF.F ....|--- .... ....|--- .... ....
 G-4|..|G-2 2A.F ....|--- .... ....|--- .... ....
....|..|C-4 AF.F ....|E-6 3FFF ....|F-5 UFEF ....
....|..|G-2 2F.A ....|--- .... ....|D-5 UFEF ....
....|..|C-4 AF.F ....|R-- .... ....|R-- .... ....
 G-3|..|G-1 2A.F ....|--- .... ....|--- .... ....
....|..|C-4 AF.F ....|D-6 3FFF ....|B-4 UFEF ....
 G-4|..|G-2 2A.F ....|--- .... ....|--- .... ....
....|..|C-4 AF.F ....|R-- .... ....|F-5 UFEA ....
 G-4|..|G-2 2A.F ....|--- .... ....|D-5 UFEA ....

[Pattern9]
....|..|C-4 AF.F ....|F-5 3FFF ....|C-5 UFEF ....
....|..|G-1 2F.A ....|A-3 6F2F ....|--- .... ....
....|..|C-4 AF.F ....|R-- .... ....|R-- .... ....
 F-3|..|F-1 2A.F ....|--- .... ....|--- .... ....
....|..|C-4 AF.F ....|C-6 3FFF ....|C-6 3FFF ....
....|..|C-4 AF.F ....|R-- .... ....|D-5 UFE7 ....
....|..|C-4 AF.F ....|F-5 3FFF ....|F-5 3FFF ....
 F-4|..|F-2 2A.F ....|A-3 6F2A ....|--- .... ....
....|..|C-4 AF.F ....|A-5 3FFF ....|A-5 3FFF ....
 F-3|..|F-1 2A.F ....|--- .... ....|--- .... ....
....|..|C-4 AF.F ....|R-- .... ....|R-- .... ....
 F-4|..|F-2 2A.F ....|--- .... ....|--- .... ....
....|..|C-4 AF.F ....|A-3 6F27 ....|C-5 UFE7 ....
....|..|C-4 AF.F ....|--- .... ....|--- .... ....
....|..|C-4 AF.F ....|A-5 3FFF ....|A-5 3FFF ....
 F-4|..|F-2 2A.F ....|--- .... ....|--- .... ....
....|..|C-4 AF.F ....|C-6 3FFF ....|C-6 3FFF ....
 F-3|..|F-1 2A.F ....|--- .... ....|--- .... ....
....|..|C-4 AF.F ....|R-- .... ....|R-- .... ....
 F-4|..|F-2 2A.F ....|--- .... ....|--- .... ....
....|..|C-4 AF.F ....|--- .... ....|--- .... ....
....|..|F-2 2F.A ....|--- .... ....|--- .... ....
....|..|C-4 AF.F ....|F-5 3FFF ....|F-5 3FFF ....
 F-4|..|F-2 2A.F ....|--- .... ....|--- .... ....
....|..|C-4 AF.F ....|A-5 3FFF ....|A-5 3FFF ....
 F-3|..|F-1 2A.F ....|--- .... ....|--- .... ....
....|..|C-4 AF.F ....|R-- .... ....|R-- .... ....
 F-4|..|F-2 2A.F ....|--- .... ....|--- .... ....
....|..|C-4 AF.F ....|A-3 6F.F ....|--- .... ....
 F-4|..|F-2 2A.F ....|R-- .... ....|--- .... ....
....|..|C-4 AF.F ....|A-5 3FFF ....|A-5 3FFF ....
 F-4|..|F-2 2A.F ....|--- .... ....|--- .... ....
....|..|C-4 AF.F ....|C-6 3FFF ....|C-6 3FFF ....
....|..|F-2 2F.A ....|G-3 6F3F ....|--- .... ....
....|..|C-4 AF.F ....|A-3 6F.A ....|R-- .... ....
 E-3|..|E-1 2A.F ....|R-- .... ....|--- .... ....
....|..|C-4 AF.F ....|--- .... ....|--- .... ....
 E-4|..|E-2 2A.F ....|--- .... ....|--- .... ....
....|..|C-4 AF.F ....|E-5 3FFF ....|E-5 3FFF ....
 E-4|..|E-2 2A.F ....|G-3 6F3A ....|R-- .... ....
....|..|C-4 AF.F ....|A-5 3FFF ....|B-5 UFEF ....
....|..|E-1 2F.A ....|A-3 6F.7 ....|--- .... ....
....|..|C-4 AF.F ....|R-- .... ....|R-- .... ....
 E-3|..|E-1 2A.F ....|--- .... ....|--- .... ....
....|..|C-4 AF.F ....|G-3 6F37 ....|R-- .... ....
....|..|C-4 AF.F ....|--- .... ....|R-- .... ....
....|..|C-4 AF.F ....|A-5 3FFF ....|A-5 3FFF ....
 E-4|..|E-2 2A.F ....|--- .... ....|--- .... ....
....|..|C-4 AF.F ....|B-5 3FFF ....|C-6 UFEF ....
 E-3|..|E-1 2A.F ....|G-3 6F1F ....|--- .... ....
....|..|C-4 AF.F ....|R-- .... ....|R-- .... ....
 E-4|..|E-2 2A.F ....|--- .... ....|R-- .... ....
....|..|C-4 AF.F ....|--- .... ....|B-5 UFE7 ....
 E-4|..|E-2 2A.F ....|--- .... ....|R-- .... ....
....|..|C-4 AF.F ....|E-5 3FFF ....|E-5 3FFF ....
 E-4|..|E-2 2A.F ....|G-3 6F1A ....|--- .... ....
....|..|C-4 AF.F ....|A-5 3FFF ....|B-5 UFEF ....
....|..|C-4 AF.F ....|--- .... ....|--- .... ....
....|..|C-4 AF.F ....|R-- .... ....|R-- .... ....
 E-3|..|E-1 2A.F ....|--- .... ....|R-- .... ....
....|..|C-4 AF.F ....|G-3 6F17 ....|C-6 UFE7 ....
....|..|E-2 2F.A ....|--- .... ....|--- .... ....
....|..|C-4 AF.F ....|A-5 3FFF ....|A-5 3FFF ....
 E-4|..|E-2 2A.F ....|--- .... ....|--- .... ....

[Pattern10]
....|..|C-4 AF.F ....|G-5 3FFF ....|C-5 UFEF ....
....|..|C-4 AF.F ....|C-4 6F1F ....|R-- .... ....
....|..|C-4 AF.F ....|R-- .... ....|R-- .... ....
....|..|C-4 AF.F ....|--- .... ....|R-- .... ....
....|..|C-4 AF.F ....|--- .... ....|B-4 UFEF ....
....|..|E-2 2F.A ....|--- .... ....|--- .... ....
....|..|C-4 AF.F ....|G-5 3FFF ....|G-5 3FFF ....
 C-3|..|C-3 2C.F ....|C-4 6F1A ....|R-- .... ....
....|..|C-4 AF.F ....|C-6 3FFF ....|C-5 UFEF ....
....|..|C-2 2F.A ....|--- .... ....|R-- .... ....
....|..|C-4 AF.F ....|R-- .... ....|R-- .... ....
 C-4|..|C-2 2A.F ....|--- .... ....|--- .... ....
....|..|C-4 AF.F ....|C-4 6F17 ....|C-5 UFE7 ....
....|..|C-3 2F.A ....|--- .... ....|R-- .... ....
....|..|C-4 AF.F ....|C-6 3FFF ....|C-6 3FFF ....
 C-3|..|C-3 2C.F ....|--- .... ....|R-- .... ....
....|..|C-4 AF.F ....|D-6 3FFF ....|D-6 3FFF ....
....|..|C-4 AF.F ....|--- .... ....|--- .... ....
....|..|C-4 AF.F ....|R-- .... ....|R-- .... ....
 C-3|..|C-3 2C.F ....|--- .... ....|R-- .... ....
....|..|C-4 AF.F ....|--- .... ....|C-5 UFE7 ....
....|..|C-3 2F.A ....|--- .... ....|--- .... ....
....|..|C-4 AF.F ....|G-5 3FFF ....|G-5 3FFF ....
....|..|C-4 AF.F ....|--- .... ....|--- .... ....
....|..|C-4 AF.F ....|C-6 3FFF ....|C-6 3FFF ....
....|..|C-3 2F.A ....|--- .... ....|--- .... ....
....|..|C-4 AF.F ....|R-- .... ....|R-- .... ....
 C-4|..|C-2 2A.F ....|--- .... ....|--- .... ....
....|..|C-4 AF.F ....|--- .... ....|--- .... ....
 C-3|..|C-3 2C.F ....|--- .... ....|--- .... ....
....|..|C-4 AF.F ....|C-6 3FFF ....|C-6 3FFF ....
 C-3|..|C-3 2C.F ....|R-- .... ....|--- .... ....
....|..|C-4 AF.F ....|D-6 3FFF ....|D-4 UFEF ....
....|..|C-2 2F.A ....|G-3 6F1F ....|--- .... ....
....|..|C-4 AF.F ....|R-- .... ....|R-- .... ....
 G-3|..|G-1 2A.F ....|--- .... ....|--- .... ....
....|..|C-4 AF.F ....|R-- .... ....|--- .... ....
 G-4|..|G-2 2A.F ....|--- .... ....|--- .... ....
....|..|C-4 AF.F ....|G-3 6F1A ....|D-4 UFEA ....
 G-4|..|G-2 2A.F ....|--- .... ....|--- .... ....
....|..|C-4 AF.F ....|--- .... ....|--- .... ....
....|..|G-1 2F.A ....|--- .... ....|--- .... ....
....|..|C-4 AF.F ....|R-- .... ....|--- .... ....
 G-3|..|G-1 2A.F ....|--- .... ....|--- .... ....
....|..|C-4 AF.F ....|G-3 6F17 ....|D-4 UFE7 ....
 G-4|..|G-2 2A.F ....|--- .... ....|--- .... ....
....|..|C-4 AF.F ....|--- .... ....|--- .... ....
....|..|C-4 AF.F ....|--- .... ....|--- .... ....
....|..|C-4 AF.F ....|--- .... ....|E-4 UFEF ....
 G-3|..|G-1 2A.F ....|--- .... ....|--- .... ....
....|..|C-4 AF.F ....|--- .... ....|--- .... ....
 G-4|..|G-2 2A.F ....|--- .... ....|--- .... ....
....|..|C-4 AF.F ....|--- .... ....|R-- .... ....
 G-4|..|G-2 2A.F ....|--- .... ....|--- .... ....
....|..|C-4 AF.F ....|--- .... ....|E-4 UFEA ....
 G-4|..|G-2 2A.F ....|--- .... ....|--- .... ....
....|..|C-4 AF.F ....|--- .... ....|F-4 UFEF ....
....|..|G-2 2F.A ....|--- .... ....|--- .... ....
....|..|C-4 AF.F ....|--- .... ....|R-- .... ....
 G-3|..|G-1 2A.F ....|--- .... ....|--- .... ....
....|..|C-4 AF.F ....|--- .... ....|E-4 UFE7 ....
 G-4|..|G-2 2A.F ....|--- .... ....|--- .... ....
....|..|C-4 AF.F ....|R-- .... ....|F-4 UFEA ....
 G-4|..|G-2 2A.F ....|--- .... ....|--- .... ....

[Pattern11]
....|..|C-4 AF.F ....|F-5 3FFF ....|C-5 UFEF ....
....|..|G-1 2F.A ....|A-3 6F2F ....|--- .... ....
....|..|C-4 AF.F ....|R-- .... ....|R-- .... ....
 F-3|..|F-1 2A.F ....|--- .... ....|--- .... ....
....|..|C-4 AF.F ....|R-- .... ....|F-4 UFE7 ....
....|..|C-4 AF.F ....|--- .... ....|--- .... ....
....|..|C-4 AF.F ....|F-5 3FFF ....|F-5 3FFF ....
 F-4|..|F-2 2A.F ....|A-3 6F2A ....|--- .... ....
....|..|C-4 AF.F ....|A-5 3FFF ....|A-5 3FFF ....
 F-3|..|F-1 2A.F ....|--- .... ....|--- .... ....
....|..|C-4 AF.F ....|R-- .... ....|R-- .... ....
 F-4|..|F-2 2A.F ....|--- .... ....|--- .... ....
....|..|C-4 AF.F ....|A-3 6F27 ....|C-5 UFE7 ....
....|..|C-4 AF.F ....|--- .... ....|--- .... ....
....|..|C-4 AF.F ....|A-5 3FFF ....|A-5 3FFF ....
 F-4|..|F-2 2A.F ....|--- .... ....|--- .... ....
....|..|C-4 AF.F ....|C-6 3FFF ....|D-4 UFEF ....
 F-3|..|F-1 2A.F ....|--- .... ....|--- .... ....
....|..|C-4 AF.F ....|R-- .... ....|R-- .... ....
 F-4|..|F-2 2A.F ....|--- .... ....|--- .... ....
....|..|C-4 AF.F ....|--- .... ....|R-- .... ....
....|..|F-2 2F.A ....|--- .... ....|--- .... ....
....|..|C-4 AF.F ....|F-5 3FFF ....|F-5 3FFF ....
 F-4|..|F-2 2A.F ....|--- .... ....|--- .... ....
....|..|C-4 AF.F ....|A-5 3FFF ....|E-4 UFEF ....
 F-3|..|F-1 2A.F ....|--- .... ....|--- .... ....
....|..|C-4 AF.F ....|R-- .... ....|R-- .... ....
 F-4|..|F-2 2A.F ....|--- .... ....|--- .... ....
....|..|C-4 AF.F ....|A-3 6F.F ....|D-4 UFE7 ....
 F-4|..|F-2 2A.F ....|R-- .... ....|--- .... ....
....|..|C-4 AF.F ....|A-5 3FFF ....|A-5 3FFF ....
 F-4|..|F-2 2A.F ....|--- .... ....|--- .... ....
....|..|C-4 AF.F ....|C-6 3FFF ....|B-4 UFEF ....
....|..|F-2 2F.A ....|G-3 6F3F ....|--- .... ....
....|..|C-4 AF.F ....|A-3 6F.A ....|R-- .... ....
 E-3|..|E-1 2A.F ....|R-- .... ....|--- .... ....
....|..|C-4 AF.F ....|--- .... ....|E-4 UFE7 ....
 E-4|..|E-2 2A.F ....|--- .... ....|--- .... ....
....|..|C-4 AF.F ....|E-5 3FFF ....|E-5 3FFF ....
 E-4|..|E-2 2A.F ....|G-3 6F3A ....|--- .... ....
....|..|C-4 AF.F ....|A-5 3FFF ....|A-5 3FFF ....
....|..|E-1 2F.A ....|A-3 6F.7 ....|--- .... ....
....|..|C-4 AF.F ....|R-- .... ....|R-- .... ....
 E-3|..|E-1 2A.F ....|--- .... ....|--- .... ....
....|..|C-4 AF.F ....|G-3 6F37 ....|B-4 UFE7 ....
....|..|C-4 AF.F ....|--- .... ....|--- .... ....
....|..|C-4 AF.F ....|A-5 3FFF ....|A-5 3FFF ....
 E-4|..|E-2 2A.F ....|--- .... ....|--- .... ....
....|..|C-4 AF.F ....|B-5 3FFF ....|D-4 UFEF ....
 E-3|..|E-1 2A.F ....|F-3 6F3F ....|--- .... ....
....|..|C-4 AF.F ....|R-- .... ....|R-- .... ....
 E-4|..|E-2 2A.F ....|--- .... ....|--- .... ....
....|..|C-4 AF.F ....|--- .... ....|E-4 UFEF ....
 E-4|..|E-2 2A.F ....|--- .... ....|--- .... ....
....|..|C-4 AF.F ....|E-5 3FFF ....|F-4 UFEF ....
 E-4|..|E-2 2A.F ....|F-3 6F3A ....|--- .... ....
....|..|C-4 AF.F ....|A-5 3FFF ....|E-4 UFEF ....
....|..|C-4 AF.F ....|--- .... ....|--- .... ....
....|..|C-4 AF.F ....|R-- .... ....|R-- .... ....
 E-3|..|E-1 2A.F ....|--- .... ....|--- .... ....
....|..|C-4 AF.F ....|F-3 6F37 ....|F-4 UFEF ....
....|..|E-2 2F.A ....|--- .... ....|--- .... ....
....|..|C-4 AF.F ....|A-5 3FFF ....|A-5 3FFF ....
 E-4|..|E-2 2A.F ....|--- .... ....|--- .... ....

[Pattern12]
 G-3|..|G-1 2A.F ....|G-5 3FFF ....|G-5 3FFF ....
....|..|C-4 AF.F ....|C-4 6F1F ....|--- .... ....
....|..|C-4 AF.F ....|R-- .... ....|R-- .... ....
....|..|E-2 2F.7 ....|--- .... ....|--- .... ....
....|..|E-2 2F.A ....|F-5 3FFF ....|F-5 3FFF ....
....|..|E-1 2F.7 ....|--- .... ....|--- .... ....
....|..|G-1 2F.A ....|G-5 3FFF ....|G-5 3FFF ....
....|..|--- .... ....|C-4 6F1A ....|--- .... ....
 G-3|..|G-1 2A.F ....|C-6 3FFF ....|C-6 3FFF ....
....|..|--- .... ....|--- .... ....|--- .... ....
....|..|R-- .... ....|F-5 3FFF ....|F-5 3FFF ....
....|..|--- .... ....|--- .... ....|--- .... ....
....|..|G-1 2F.7 ....|C-4 6F17 ....|R-- .... ....
....|..|--- .... ....|--- .... ....|--- .... ....
....|..|G-1 2F.A ....|C-6 3FFF ....|C-6 3FFF ....
....|..|--- .... ....|--- .... ....|--- .... ....
 G-3|..|G-1 2A.F ....|D-6 3FFF ....|D-6 3FFF ....
....|..|--- .... ....|B-3 6F4F ....|--- .... ....
....|..|R-- .... ....|R-- .... ....|R-- .... ....
....|..|--- .... ....|--- .... ....|--- .... ....
....|..|G-1 2F.7 ....|--- .... ....|--- .... ....
....|..|--- .... ....|--- .... ....|--- .... ....
....|..|G-1 2F.A ....|G-5 3FFF ....|G-5 3FFF ....
....|..|--- .... ....|B-3 6F4A ....|--- .... ....
 G-3|..|G-1 2A.F ....|C-6 3FFF ....|C-6 3FFF ....
....|..|--- .... ....|--- .... ....|--- .... ....
....|..|R-- .... ....|R-- .... ....|R-- .... ....
....|..|--- .... ....|--- .... ....|--- .... ....
....|..|G-1 2F.7 ....|B-3 6F47 ....|--- .... ....
....|..|--- .... ....|--- .... ....|--- .... ....
....|..|G-1 2F.A ....|C-6 3FFF ....|C-6 3FFF ....
....|..|--- .... ....|--- .... ....|--- .... ....
 E-4|..|E-2 2A.F ....|D-6 3FFF ....|D-6 3FFF ....
....|..|--- .... ....|A-3 6F2F ....|--- .... ....
....|..|R-- .... ....|--- .... ....|--- .... ....
....|..|--- .... ....|--- .... ....|--- .... ....
....|..|G-1 2F.7 ....|E-6 3FFF ....|E-6 3FFF ....
....|..|--- .... ....|--- .... ....|--- .... ....
....|..|E-2 2F.A ....|A-3 6F2A ....|--- .... ....
....|..|--- .... ....|--- .... ....|--- .... ....
 E-4|..|E-2 2A.F ....|B-5 3FFF ....|B-5 3FFF ....
....|..|--- .... ....|--- .... ....|--- .... ....
....|..|R-- .... ....|R-- .... ....|R-- .... ....
....|..|--- .... ....|--- .... ....|--- .... ....
....|..|E-2 2F.7 ....|D-6 3FFF ....|D-6 3FFF ....
....|..|--- .... ....|A-3 6F27 ....|--- .... ....
....|..|E-2 2F.A ....|--- .... ....|--- .... ....
....|..|--- .... ....|--- .... ....|--- .... ....
 E-4|..|E-2 2A.F ....|E-6 3FFF ....|E-6 3FFF ....
....|..|--- .... ....|--- .... ....|--- .... ....
....|..|R-- .... ....|R-- .... ....|R-- .... ....
....|..|--- .... ....|--- .... ....|--- .... ....
....|..|E-2 2F.7 ....|F-6 3FFF ....|F-6 3FFF ....
....|..|--- .... ....|--- .... ....|--- .... ....
....|..|E-2 2F.A ....|--- .... ....|--- .... ....
....|..|--- .... ....|--- .... ....|--- .... ....
 E-4|..|E-2 2A.F ....|E-6 3FFF ....|E-6 3FFF ....
....|..|--- .... ....|--- .... ....|--- .... ....
....|..|R-- .... ....|R-- .... ....|R-- .... ....
....|..|--- .... ....|--- .... ....|--- .... ....
....|..|E-2 2F.7 ....|D-6 3FFF ....|D-6 3FFF ....
....|..|--- .... ....|--- .... ....|--- .... ....
....|..|E-2 2F.A ....|R-- .... ....|--- .... ....
....|..|--- .... ....|--- .... ....|--- .... ....

[Pattern13]
 G-4|..|G-2 2A.F ....|C-6 3FFF ....|C-6 3FFF ....
....|..|--- .... ....|A-3 6F2F ....|--- .... ....
....|..|R-- .... ....|--- .... ....|--- .... ....
....|..|--- .... ....|--- .... ....|--- .... ....
....|..|E-2 2F.7 ....|B-5 3FFF ....|B-5 3FFF ....
....|..|--- .... ....|R-- .... ....|--- .... ....
....|..|G-2 2F.A ....|A-3 6F2A ....|--- .... ....
....|..|--- .... ....|R-- .... ....|R-- .... ....
 G-4|..|G-2 2A.F ....|G-5 3FFF ....|G-5 3FFF ....
....|..|--- .... ....|--- .... ....|--- .... ....
....|..|R-- .... ....|R-- .... ....|--- .... ....
....|..|--- .... ....|--- .... ....|--- .... ....
....|..|G-2 2F.7 ....|A-3 6F27 ....|R-- .... ....
....|..|--- .... ....|--- .... ....|--- .... ....
....|..|G-2 2F.A ....|A-5 3FFF ....|A-5 3FFF ....
....|..|--- .... ....|--- .... ....|--- .... ....
 G-4|..|G-2 2A.F ....|C-6 3FFF ....|C-6 3FFF ....
....|..|--- .... ....|D-4 6F5F ....|--- .... ....
....|..|R-- .... ....|--- .... ....|--- .... ....
....|..|--- .... ....|--- .... ....|--- .... ....
....|..|G-2 2F.7 ....|E-5 3FFF ....|E-5 3FFF ....
....|..|--- .... ....|--- .... ....|--- .... ....
....|..|G-2 2F.A ....|G-5 3FFF ....|G-5 3FFF ....
....|..|--- .... ....|D-4 6F5A ....|--- .... ....
 G-4|..|G-2 2A.F ....|--- .... ....|--- .... ....
....|..|--- .... ....|--- .... ....|--- .... ....
....|..|R-- .... ....|A-5 3FFF ....|A-5 3FFF ....
....|..|--- .... ....|--- .... ....|--- .... ....
....|..|G-2 2F.7 ....|D-4 6F57 ....|R-- .... ....
....|..|--- .... ....|--- .... ....|--- .... ....
....|..|G-2 2F.A ....|A-5 3FFF ....|A-5 3FFF ....
....|..|--- .... ....|--- .... ....|--- .... ....
 C-4|..|C-2 2A.F ....|C-6 3FFF ....|C-6 3FFF ....
....|..|--- .... ....|E-4 6F6F ....|--- .... ....
....|..|R-- .... ....|G-5 3FFF ....|G-5 3FFF ....
....|..|--- .... ....|--- .... ....|--- .... ....
....|..|G-2 2F.7 ....|--- .... ....|--- .... ....
....|..|--- .... ....|--- .... ....|--- .... ....
....|..|C-2 2F.A ....|E-5 3FFF ....|E-5 3FFF ....
....|..|--- .... ....|E-4 6F6A ....|--- .... ....
 C-4|..|C-2 2A.F ....|A-5 3FFF ....|A-5 3FFF ....
....|..|--- .... ....|--- .... ....|--- .... ....
....|..|R-- .... ....|R-- .... ....|R-- .... ....
....|..|--- .... ....|--- .... ....|--- .... ....
....|..|C-2 2F.7 ....|E-4 6F67 ....|--- .... ....
....|..|--- .... ....|--- .... ....|--- .... ....
....|..|C-2 2F.A ....|A-5 3FFF ....|A-5 3FFF ....
....|..|--- .... ....|--- .... ....|--- .... ....
 C-4|..|C-2 2A.F ....|B-5 3FFF ....|B-5 3FFF ....
....|..|--- .... ....|G-4 6F1F ....|--- .... ....
....|..|R-- .... ....|R-- .... ....|R-- .... ....
....|..|--- .... ....|--- .... ....|--- .... ....
....|..|C-2 2F.7 ....|--- .... ....|--- .... ....
....|..|--- .... ....|--- .... ....|--- .... ....
....|..|C-2 2F.A ....|E-5 3FFF ....|E-5 3FFF ....
....|..|--- .... ....|G-4 6F1A ....|--- .... ....
 C-4|..|C-2 2A.F ....|A-5 3FFF ....|A-5 3FFF ....
....|..|--- .... ....|--- .... ....|--- .... ....
....|..|R-- .... ....|R-- .... ....|R-- .... ....
....|..|--- .... ....|--- .... ....|--- .... ....
....|..|C-2 2F.7 ....|G-4 6F17 ....|--- .... ....
....|..|--- .... ....|--- .... ....|--- .... ....
....|..|C-2 2F.A ....|A-5 3FFF ....|A-5 3FFF ....
....|..|--- .... ....|--- .... ....|--- .... ....

[Pattern14]
 G-3|..|G-1 2A.F ....|C-4 6F1F ....|R-- .... ....
....|..|--- .... ....|--- .... ....|--- .... ....
....|..|R-- .... ....|--- .... ....|--- .... ....
....|..|--- .... ....|--- .... ....|--- .... ....
....|..|C-2 2F.7 ....|--- .... ....|--- .... ....
....|..|--- .... ....|--- .... ....|--- .... ....
....|..|G-1 2F.A ....|C-4 6F1A ....|--- .... ....
....|..|--- .... ....|--- .... ....|--- .... ....
 G-3|..|G-1 2A.F ....|--- .... ....|--- .... ....
....|..|--- .... ....|--- .... ....|--- .... ....
....|..|R-- .... ....|--- .... ....|--- .... ....
....|..|--- .... ....|--- .... ....|--- .... ....
....|..|G-1 2F.7 ....|C-4 6F17 ....|--- .... ....
....|..|--- .... ....|--- .... ....|--- .... ....
....|..|G-1 2F.A ....|--- .... ....|--- .... ....
....|..|--- .... ....|--- .... ....|--- .... ....
 G-3|..|G-1 2A.F ....|B-3 6F4F ....|--- .... ....
....|..|--- .... ....|--- .... ....|--- .... ....
....|..|R-- .... ....|--- .... ....|--- .... ....
....|..|--- .... ....|--- .... ....|--- .... ....
....|..|G-1 2F.7 ....|--- .... ....|--- .... ....
....|..|--- .... ....|--- .... ....|--- .... ....
....|..|G-1 2F.A ....|B-3 6F4A ....|--- .... ....
....|..|--- .... ....|--- .... ....|--- .... ....
 G-3|..|G-1 2A.F ....|--- .... ....|--- .... ....
....|..|--- .... ....|--- .... ....|--- .... ....
....|..|R-- .... ....|--- .... ....|--- .... ....
....|..|--- .... ....|--- .... ....|--- .... ....
....|..|G-1 2F.7 ....|B-3 6F47 ....|--- .... ....
....|..|--- .... ....|--- .... ....|--- .... ....
....|..|G-1 2F.A ....|--- .... ....|--- .... ....
....|..|--- .... ....|--- .... ....|--- .... ....
 E-4|..|E-2 2A.F ....|A-3 6F2F ....|--- .... ....
....|..|--- .... ....|--- .... ....|--- .... ....
....|..|R-- .... ....|--- .... ....|--- .... ....
....|..|--- .... ....|--- .... ....|--- .... ....
....|..|G-1 2F.7 ....|--- .... ....|--- .... ....
....|..|--- .... ....|--- .... ....|--- .... ....
....|..|E-2 2F.A ....|A-3 6F2A ....|--- .... ....
....|..|--- .... ....|--- .... ....|--- .... ....
 E-4|..|E-2 2A.F ....|--- .... ....|--- .... ....
....|..|--- .... ....|--- .... ....|--- .... ....
....|..|R-- .... ....|--- .... ....|--- .... ....
....|..|--- .... ....|--- .... ....|--- .... ....
....|..|E-2 2F.7 ....|A-3 6F27 ....|--- .... ....
....|..|--- .... ....|--- .... ....|--- .... ....
....|..|E-2 2F.A ....|--- .... ....|--- .... ....
....|..|--- .... ....|--- .... ....|--- .... ....
 E-4|..|E-2 2A.F ....|--- .... ....|--- .... ....
....|..|--- .... ....|--- .... ....|--- .... ....
....|..|R-- .... ....|--- .... ....|--- .... ....
....|..|--- .... ....|--- .... ....|--- .... ....
....|..|E-2 2F.7 ....|--- .... ....|--- .... ....
....|..|--- .... ....|--- .... ....|--- .... ....
....|..|E-2 2F.A ....|--- .... ....|--- .... ....
....|..|--- .... ....|--- .... ....|--- .... ....
 E-4|..|E-2 2A.F ....|--- .... ....|--- .... ....
....|..|--- .... ....|--- .... ....|--- .... ....
....|..|R-- .... ....|--- .... ....|--- .... ....
....|..|--- .... ....|--- .... ....|--- .... ....
....|..|E-2 2F.7 ....|--- .... ....|--- .... ....
....|..|--- .... ....|--- .... ....|--- .... ....
....|..|E-2 2F.A ....|R-- .... ....|--- .... ....
....|..|--- .... ....|--- .... ....|--- .... ....

[Pattern15]
 G-4|..|G-2 2A.F ....|A-3 6F2F ....|--- .... ....
....|..|--- .... ....|--- .... ....|--- .... ....
....|..|R-- .... ....|--- .... ....|--- .... ....
....|..|--- .... ....|--- .... ....|--- .... ....
....|..|E-2 2F.7 ....|R-- .... ....|--- .... ....
....|..|--- .... ....|--- .... ....|--- .... ....
....|..|G-2 2F.A ....|A-3 6F2A ....|--- .... ....
....|..|--- .... ....|--- .... ....|--- .... ....
 G-4|..|G-2 2A.F ....|--- .... ....|--- .... ....
....|..|--- .... ....|--- .... ....|--- .... ....
....|..|R-- .... ....|R-- .... ....|--- .... ....
....|..|--- .... ....|--- .... ....|--- .... ....
....|..|G-2 2F.7 ....|A-3 6F27 ....|--- .... ....
....|..|--- .... ....|--- .... ....|--- .... ....
....|..|G-2 2F.A ....|--- .... ....|--- .... ....
....|..|--- .... ....|--- .... ....|--- .... ....
 G-4|..|G-2 2A.F ....|D-4 6F5F ....|--- .... ....
....|..|--- .... ....|--- .... ....|--- .... ....
....|..|R-- .... ....|--- .... ....|--- .... ....
....|..|--- .... ....|--- .... ....|--- .... ....
....|..|G-2 2F.7 ....|--- .... ....|--- .... ....
....|..|--- .... ....|--- .... ....|--- .... ....
....|..|G-2 2F.A ....|D-4 6F5A ....|--- .... ....
....|..|--- .... ....|--- .... ....|--- .... ....
 G-4|..|G-2 2A.F ....|--- .... ....|--- .... ....
....|..|--- .... ....|--- .... ....|--- .... ....
....|..|R-- .... ....|--- .... ....|--- .... ....
....|..|--- .... ....|--- .... ....|--- .... ....
....|..|G-2 2F.7 ....|D-4 6F57 ....|--- .... ....
....|..|--- .... ....|--- .... ....|--- .... ....
....|..|G-2 2F.A ....|--- .... ....|--- .... ....
....|..|--- .... ....|--- .... ....|--- .... ....
 C-4|..|C-2 2A.F ....|E-4 6F6F ....|--- .... ....
....|..|--- .... ....|--- .... ....|--- .... ....
....|..|R-- .... ....|--- .... ....|--- .... ....
....|..|--- .... ....|--- .... ....|--- .... ....
....|..|G-2 2F.7 ....|--- .... ....|--- .... ....
....|..|--- .... ....|--- .... ....|--- .... ....
....|..|C-2 2F.A ....|E-4 6F6A ....|--- .... ....
....|..|--- .... ....|--- .... ....|--- .... ....
 C-4|..|C-2 2A.F ....|--- .... ....|--- .... ....
....|..|--- .... ....|--- .... ....|--- .... ....
....|..|R-- .... ....|--- .... ....|--- .... ....
....|..|--- .... ....|--- .... ....|--- .... ....
....|..|C-2 2F.7 ....|E-4 6F67 ....|--- .... ....
....|..|--- .... ....|--- .... ....|--- .... ....
....|..|C-2 2F.A ....|--- .... ....|--- .... ....
....|..|--- .... ....|--- .... ....|--- .... ....
 C-4|..|C-2 2A.F ....|G-4 6F1F ....|--- .... ....
....|..|--- .... ....|--- .... ....|--- .... ....
....|..|R-- .... ....|--- .... ....|--- .... ....
....|..|--- .... ....|--- .... ....|--- .... ....
....|..|C-2 2F.7 ....|--- .... ....|--- .... ....
....|..|--- .... ....|--- .... ....|--- .... ....
....|..|C-2 2F.A ....|G-4 6F1A ....|--- .... ....
....|..|--- .... ....|--- .... ....|--- .... ....
 C-4|..|C-2 2A.F ....|--- .... ....|--- .... ....
....|..|--- .... ....|--- .... ....|--- .... ....
....|..|R-- .... ....|--- .... ....|--- .... ....
....|..|--- .... ....|--- .... ....|--- .... ....
....|..|C-2 2F.7 ....|G-4 6F17 ....|--- .... ....
....|..|--- .... ....|--- .... ....|--- .... ....
....|..|C-2 2F.A ....|--- .... ....|--- .... ....
....|..|--- .... ....|--- .... ....|--- .... ....

[Pattern16]
....|..|C-4 AF.F ....|G-5 3FFF ....|C-6 UFEF ....
 C-4|..|C-2 2A.F ....|C-4 6F1F ....|--- .... ....
....|..|C-4 AF.F ....|R-- .... ....|R-- .... ....
....|..|R-- .... ....|--- .... ....|--- .... ....
....|..|C-4 AF.F ....|F-5 3FFF ....|F-5 3FFF ....
 C-3|..|C-3 2C.F ....|--- .... ....|--- .... ....
....|..|C-4 AF.F ....|G-5 3FFF ....|G-5 3FFF ....
....|..|C-2 2F.A ....|C-4 6F1A ....|--- .... ....
....|..|C-4 AF.F ....|C-6 3FFF ....|C-6 3FFF ....
 C-4|..|C-2 2A.F ....|--- .... ....|--- .... ....
....|..|C-4 AF.F ....|F-5 3FFF ....|F-5 3FFF ....
....|..|C-3 2F.A ....|--- .... ....|--- .... ....
....|..|C-4 AF.F ....|C-4 6F17 ....|R-- .... ....
....|..|C-4 AF.F ....|--- .... ....|--- .... ....
....|..|C-4 AF.F ....|C-6 3FFF ....|C-6 3FFF ....
 C-3|..|C-3 2C.F ....|--- .... ....|--- .... ....
....|..|C-4 AF.F ....|D-6 3FFF ....|G-5 UFEF ....
 C-4|..|C-2 2A.F ....|--- .... ....|--- .... ....
....|..|C-4 AF.F ....|R-- .... ....|R-- .... ....
 C-3|..|C-3 2C.F ....|--- .... ....|--- .... ....
....|..|C-4 AF.F ....|--- .... ....|--- .... ....
....|..|C-3 2F.A ....|--- .... ....|--- .... ....
....|..|C-4 AF.F ....|G-5 3FFF ....|G-5 3FFF ....
 C-3|..|C-3 2C.F ....|--- .... ....|--- .... ....
....|..|C-4 AF.F ....|C-6 3FFF ....|C-6 3FFF ....
....|..|C-3 2F.A ....|--- .... ....|--- .... ....
....|..|C-4 AF.F ....|R-- .... ....|R-- .... ....
....|..|C-4 AF.F ....|--- .... ....|--- .... ....
....|..|C-4 AF.F ....|--- .... ....|A-5 UFEF ....
 C-3|..|C-3 2C.F ....|--- .... ....|--- .... ....
....|..|C-4 AF.F ....|C-6 3FFF ....|C-6 3FFF ....
 C-3|..|C-3 2C.F ....|R-- .... ....|R-- .... ....
....|..|C-4 AF.F ....|D-6 3FFF ....|B-5 UFEF ....
....|..|C-2 2F.A ....|G-3 6F1F ....|--- .... ....
....|..|C-4 AF.F ....|--- .... ....|A-5 UFEA ....
 G-3|..|G-1 2A.F ....|--- .... ....|--- .... ....
....|..|C-4 AF.F ....|E-6 3FFF ....|E-6 3FFF ....
 G-4|..|G-2 2A.F ....|R-- .... ....|R-- .... ....
....|..|C-4 AF.F ....|G-3 6F1A ....|B-5 UFEA ....
 G-4|..|G-2 2A.F ....|--- .... ....|--- .... ....
....|..|C-4 AF.F ....|B-5 3FFF ....|D-5 UFEF ....
....|..|G-1 2F.A ....|--- .... ....|--- .... ....
....|..|C-4 AF.F ....|R-- .... ....|R-- .... ....
 G-3|..|G-1 2A.F ....|--- .... ....|R-- .... ....
....|..|C-4 AF.F ....|D-6 3FFF ....|D-6 3FFF ....
....|..|C-4 AF.F ....|G-3 6F17 ....|--- .... ....
....|..|C-4 AF.F ....|--- .... ....|D-5 UFEA ....
 G-4|..|G-2 2A.F ....|--- .... ....|--- .... ....
....|..|C-4 AF.F ....|E-6 3FFF ....|E-6 3FFF ....
 G-3|..|G-1 2A.F ....|--- .... ....|--- .... ....
....|..|C-4 AF.F ....|R-- .... ....|R-- .... ....
 G-4|..|G-2 2A.F ....|--- .... ....|--- .... ....
....|..|C-4 AF.F ....|F-6 3FFF ....|F-6 3FFF ....
 G-4|..|G-2 2A.F ....|--- .... ....|--- .... ....
....|..|C-4 AF.F ....|--- .... ....|--- .... ....
 G-4|..|G-2 2A.F ....|--- .... ....|--- .... ....
....|..|C-4 AF.F ....|E-6 3FFF ....|E-5 UFEF ....
....|..|G-2 2F.A ....|--- .... ....|E-5 UFEF ....
....|..|C-4 AF.F ....|R-- .... ....|R-- .... ....
 G-3|..|G-1 2A.F ....|--- .... ....|--- .... ....
....|..|C-4 AF.F ....|D-6 3FFF ....|F-5 UFEF ....
 G-4|..|G-2 2A.F ....|--- .... ....|--- .... ....
....|..|C-4 AF.F ....|R-- .... ....|E-5 UFEA ....
....|..|C-4 AF.F ....|--- .... ....|E-5 UFEA ....

[Pattern17]
....|..|C-4 AF.F ....|F-5 3FFF ....|F-5 UFEF ....
....|..|G-1 2F.A ....|A-3 6F2F ....|C-5 UFEF ....
....|..|C-4 AF.F ....|R-- .... ....|R-- .... ....
 F-3|..|F-1 2A.F ....|--- .... ....|--- .... ....
....|..|C-4 AF.F ....|C-6 3FFF ....|C-6 3FFF ....
 F-4|..|F-2 2A.F ....|R-- .... ....|E-5 UFE7 ....
....|..|C-4 AF.F ....|F-5 3FFF ....|F-5 3FFF ....
 F-4|..|F-2 2A.F ....|A-3 6F2A ....|C-5 UFEA ....
....|..|C-4 AF.F ....|A-5 3FFF ....|A-5 3FFF ....
 F-3|..|F-1 2A.F ....|--- .... ....|--- .... ....
....|..|C-4 AF.F ....|R-- .... ....|R-- .... ....
 F-4|..|F-2 2A.F ....|--- .... ....|--- .... ....
....|..|C-4 AF.F ....|A-3 6F27 ....|F-5 UFE7 ....
 F-4|..|F-2 2A.F ....|--- .... ....|C-5 UFE7 ....
....|..|C-4 AF.F ....|A-5 3FFF ....|A-5 3FFF ....
 F-4|..|F-2 2A.F ....|--- .... ....|--- .... ....
....|..|C-4 AF.F ....|C-6 3FFF ....|C-6 3FFF ....
 F-3|..|F-1 2A.F ....|--- .... ....|--- .... ....
....|..|C-4 AF.F ....|R-- .... ....|R-- .... ....
 F-4|..|F-2 2A.F ....|--- .... ....|--- .... ....
....|..|C-4 AF.F ....|--- .... ....|--- .... ....
....|..|F-2 2F.A ....|--- .... ....|--- .... ....
....|..|C-4 AF.F ....|F-5 3FFF ....|F-5 3FFF ....
 F-4|..|F-2 2A.F ....|--- .... ....|--- .... ....
....|..|C-4 AF.F ....|A-5 3FFF ....|A-5 3FFF ....
 F-3|..|F-1 2A.F ....|--- .... ....|--- .... ....
....|..|C-4 AF.F ....|R-- .... ....|R-- .... ....
....|..|C-4 AF.F ....|--- .... ....|--- .... ....
....|..|C-4 AF.F ....|A-3 6F.F ....|--- .... ....
 F-4|..|F-2 2A.F ....|R-- .... ....|--- .... ....
....|..|C-4 AF.F ....|A-5 3FFF ....|A-5 3FFF ....
....|..|C-4 AF.F ....|--- .... ....|--- .... ....
....|..|C-4 AF.F ....|C-6 3FFF ....|C-6 3FFF ....
....|..|F-2 2F.A ....|G-3 6F3F ....|--- .... ....
....|..|C-4 AF.F ....|A-3 6F.A ....|R-- .... ....
 E-3|..|E-1 2A.F ....|R-- .... ....|--- .... ....
....|..|C-4 AF.F ....|--- .... ....|--- .... ....
 E-4|..|E-2 2A.F ....|--- .... ....|--- .... ....
....|..|C-4 AF.F ....|E-5 3FFF ....|E-5 3FFF ....
 E-4|..|E-2 2A.F ....|G-3 6F3A ....|R-- .... ....
....|..|C-4 AF.F ....|A-5 3FFF ....|B-4 UFEF ....
....|..|C-4 AF.F ....|A-3 6F.7 ....|--- .... ....
....|..|C-4 AF.F ....|R-- .... ....|R-- .... ....
 E-3|..|E-1 2A.F ....|--- .... ....|--- .... ....
....|..|C-4 AF.F ....|G-3 6F37 ....|R-- .... ....
....|..|E-2 2F.A ....|--- .... ....|R-- .... ....
....|..|C-4 AF.F ....|A-5 3FFF ....|A-5 3FFF ....
 E-4|..|E-2 2A.F ....|--- .... ....|--- .... ....
....|..|C-4 AF.F ....|B-5 3FFF ....|C-5 UFEF ....
 E-3|..|E-1 2A.F ....|G-3 6F1F ....|--- .... ....
....|..|C-4 AF.F ....|R-- .... ....|R-- .... ....
 E-4|..|E-2 2A.F ....|--- .... ....|R-- .... ....
....|..|C-4 AF.F ....|--- .... ....|B-4 UFE7 ....
....|..|C-4 AF.F ....|--- .... ....|R-- .... ....
....|..|C-4 AF.F ....|E-5 3FFF ....|E-5 3FFF ....
....|..|C-4 AF.F ....|G-3 6F1A ....|--- .... ....
....|..|C-4 AF.F ....|A-5 3FFF ....|B-4 UFEF ....
....|..|E-2 2F.A ....|--- .... ....|--- .... ....
....|..|C-4 AF.F ....|R-- .... ....|R-- .... ....
 E-3|..|E-1 2A.F ....|--- .... ....|R-- .... ....
....|..|C-4 AF.F ....|G-3 6F17 ....|C-5 UFE7 ....
....|..|E-2 2F.A ....|--- .... ....|--- .... ....
....|..|C-4 AF.F ....|A-5 3FFF ....|A-5 3FFF ....
 E-4|..|E-2 2A.F ....|--- .... ....|--- .... ....

[Pattern18]
....|..|C-4 AF.F ....|G-5 3FFF ....|G-5 UFEF ....
....|..|C-4 AF.F ....|C-4 6F1F ....|R-- .... ....
....|..|C-4 AF.F ....|R-- .... ....|R-- .... ....
....|..|C-4 AF.F ....|--- .... ....|R-- .... ....
....|..|C-4 AF.F ....|--- .... ....|F-5 UFEF ....
....|..|E-2 2F.A ....|--- .... ....|--- .... ....
....|..|C-4 AF.F ....|G-5 3FFF ....|G-5 3FFF ....
 C-3|..|C-3 2C.F ....|C-4 6F1A ....|R-- .... ....
....|..|C-4 AF.F ....|C-6 3FFF ....|G-5 UFEF ....
....|..|C-2 2F.A ....|--- .... ....|R-- .... ....
....|..|C-4 AF.F ....|R-- .... ....|R-- .... ....
 C-4|..|C-2 2A.F ....|--- .... ....|--- .... ....
....|..|C-4 AF.F ....|C-4 6F17 ....|G-5 UFE7 ....
....|..|C-4 AF.F ....|--- .... ....|R-- .... ....
....|..|C-4 AF.F ....|C-6 3FFF ....|C-6 3FFF ....
 C-3|..|C-3 2C.F ....|--- .... ....|R-- .... ....
....|..|C-4 AF.F ....|D-6 3FFF ....|E-5 UFEF ....
 C-4|..|C-2 2A.F ....|--- .... ....|--- .... ....
....|..|C-4 AF.F ....|R-- .... ....|R-- .... ....
 C-3|..|C-3 2C.F ....|--- .... ....|R-- .... ....
....|..|C-4 AF.F ....|--- .... ....|D-5 UFEF ....
....|..|C-3 2F.A ....|--- .... ....|--- .... ....
....|..|C-4 AF.F ....|G-5 3FFF ....|G-5 3FFF ....
 C-3|..|C-3 2C.F ....|--- .... ....|R-- .... ....
....|..|C-4 AF.F ....|C-6 3FFF ....|E-5 UFEF ....
....|..|C-3 2F.A ....|--- .... ....|R-- .... ....
....|..|C-4 AF.F ....|R-- .... ....|R-- .... ....
....|..|C-4 AF.F ....|--- .... ....|--- .... ....
....|..|C-4 AF.F ....|--- .... ....|E-5 UFE7 ....
 C-3|..|C-3 2C.F ....|--- .... ....|R-- .... ....
....|..|C-4 AF.F ....|C-6 3FFF ....|C-6 3FFF ....
 C-3|..|C-3 2C.F ....|R-- .... ....|R-- .... ....
....|..|C-4 AF.F ....|D-6 3FFF ....|D-5 UFEF ....
....|..|C-2 2F.A ....|G-3 6F1F ....|--- .... ....
....|..|C-4 AF.F ....|R-- .... ....|R-- .... ....
 G-3|..|G-1 2A.F ....|--- .... ....|R-- .... ....
....|..|C-4 AF.F ....|R-- .... ....|E-5 UFE7 ....
 G-4|..|G-2 2A.F ....|--- .... ....|--- .... ....
....|..|C-4 AF.F ....|G-3 6F1A ....|D-5 UFEA ....
 G-4|..|G-2 2A.F ....|--- .... ....|--- .... ....
....|..|C-4 AF.F ....|--- .... ....|--- .... ....
....|..|G-1 2F.A ....|--- .... ....|--- .... ....
....|..|C-4 AF.F ....|R-- .... ....|--- .... ....
 G-3|..|G-1 2A.F ....|--- .... ....|--- .... ....
....|..|C-4 AF.F ....|G-3 6F17 ....|D-5 UFE7 ....
....|..|C-4 AF.F ....|--- .... ....|--- .... ....
....|..|C-4 AF.F ....|--- .... ....|--- .... ....
 G-4|..|G-2 2A.F ....|--- .... ....|--- .... ....
....|..|C-4 AF.F ....|--- .... ....|E-5 UFEF ....
 G-3|..|G-1 2A.F ....|--- .... ....|--- .... ....
....|..|C-4 AF.F ....|--- .... ....|--- .... ....
 G-4|..|G-2 2A.F ....|--- .... ....|--- .... ....
....|..|C-4 AF.F ....|--- .... ....|F-5 UFEF ....
 G-4|..|G-2 2A.F ....|--- .... ....|--- .... ....
....|..|C-4 AF.F ....|--- .... ....|E-5 UFEA ....
 G-4|..|G-2 2A.F ....|--- .... ....|--- .... ....
....|..|C-4 AF.F ....|--- .... ....|E-5 UFEF ....
....|..|G-2 2F.A ....|--- .... ....|--- .... ....
....|..|C-4 AF.F ....|--- .... ....|F-5 UFEA ....
 G-3|..|G-1 2A.F ....|--- .... ....|--- .... ....
....|..|C-4 AF.F ....|--- .... ....|F-5 UFEF ....
 G-4|..|G-2 2A.F ....|--- .... ....|--- .... ....
....|..|C-4 AF.F ....|R-- .... ....|E-5 UFEA ....
....|..|C-4 AF.F ....|--- .... ....|--- .... ....

[Pattern19]
....|..|C-4 AF.F ....|F-5 3FFF ....|C-5 UFEF ....
....|..|G-1 2F.A ....|A-3 6F2F ....|--- .... ....
....|..|C-4 AF.F ....|R-- .... ....|R-- .... ....
 F-3|..|F-1 2A.F ....|--- .... ....|--- .... ....
....|..|C-4 AF.F ....|R-- .... ....|B-4 UFEF ....
 F-4|..|F-2 2A.F ....|--- .... ....|--- .... ....
....|..|C-4 AF.F ....|F-5 3FFF ....|F-5 3FFF ....
 F-4|..|F-2 2A.F ....|A-3 6F2A ....|--- .... ....
....|..|C-4 AF.F ....|A-5 3FFF ....|C-5 UFEF ....
 F-3|..|F-1 2A.F ....|--- .... ....|--- .... ....
....|..|C-4 AF.F ....|R-- .... ....|R-- .... ....
 F-4|..|F-2 2A.F ....|--- .... ....|--- .... ....
....|..|C-4 AF.F ....|A-3 6F27 ....|C-5 UFE7 ....
 F-4|..|F-2 2A.F ....|--- .... ....|--- .... ....
....|..|C-4 AF.F ....|A-5 3FFF ....|A-5 3FFF ....
 F-4|..|F-2 2A.F ....|--- .... ....|--- .... ....
....|..|C-4 AF.F ....|C-6 3FFF ....|E-5 UFEF ....
 F-3|..|F-1 2A.F ....|--- .... ....|--- .... ....
....|..|C-4 AF.F ....|R-- .... ....|R-- .... ....
 F-4|..|F-2 2A.F ....|--- .... ....|--- .... ....
....|..|C-4 AF.F ....|--- .... ....|D-5 UFEF ....
....|..|F-2 2F.A ....|--- .... ....|--- .... ....
....|..|C-4 AF.F ....|F-5 3FFF ....|F-5 3FFF ....
 F-4|..|F-2 2A.F ....|--- .... ....|--- .... ....
....|..|C-4 AF.F ....|A-5 3FFF ....|E-5 UFEF ....
 F-3|..|F-1 2A.F ....|--- .... ....|--- .... ....
....|..|C-4 AF.F ....|R-- .... ....|R-- .... ....
....|..|C-4 AF.F ....|--- .... ....|--- .... ....
....|..|C-4 AF.F ....|A-3 6F.F ....|E-5 UFE7 ....
 F-4|..|F-2 2A.F ....|R-- .... ....|--- .... ....
....|..|C-4 AF.F ....|A-5 3FFF ....|A-5 3FFF ....
....|..|C-4 AF.F ....|--- .... ....|--- .... ....
....|..|C-4 AF.F ....|C-6 3FFF ....|B-4 UFEF ....
....|..|F-2 2F.A ....|G-3 6F3F ....|--- .... ....
....|..|C-4 AF.F ....|A-3 6F.A ....|R-- .... ....
 E-3|..|E-1 2A.F ....|R-- .... ....|--- .... ....
....|..|C-4 AF.F ....|--- .... ....|E-5 UFE7 ....
 E-4|..|E-2 2A.F ....|--- .... ....|--- .... ....
....|..|C-4 AF.F ....|E-5 3FFF ....|E-5 3FFF ....
 E-4|..|E-2 2A.F ....|G-3 6F3A ....|--- .... ....
....|..|C-4 AF.F ....|A-5 3FFF ....|A-5 3FFF ....
....|..|C-4 AF.F ....|A-3 6F.7 ....|--- .... ....
....|..|C-4 AF.F ....|R-- .... ....|R-- .... ....
 E-3|..|E-1 2A.F ....|--- .... ....|--- .... ....
....|..|C-4 AF.F ....|G-3 6F37 ....|B-4 UFE7 ....
....|..|E-2 2F.A ....|--- .... ....|--- .... ....
....|..|C-4 AF.F ....|A-5 3FFF ....|A-5 3FFF ....
 E-4|..|E-2 2A.F ....|--- .... ....|--- .... ....
....|..|C-4 AF.F ....|B-5 3FFF ....|D-5 UFEF ....
 E-3|..|E-1 2A.F ....|F-3 6F3F ....|--- .... ....
....|..|C-4 AF.F ....|R-- .... ....|R-- .... ....
 E-4|..|E-2 2A.F ....|--- .... ....|--- .... ....
....|..|C-4 AF.F ....|--- .... ....|--- .... ....
....|..|C-4 AF.F ....|--- .... ....|--- .... ....
....|..|C-4 AF.F ....|E-5 3FFF ....|E-5 3FFF ....
....|..|C-4 AF.F ....|F-3 6F3A ....|--- .... ....
....|..|C-4 AF.F ....|A-5 3FFF ....|C-5 UFEF ....
....|..|E-2 2F.A ....|--- .... ....|--- .... ....
....|..|C-4 AF.F ....|R-- .... ....|R-- .... ....
 E-3|..|E-1 2A.F ....|--- .... ....|--- .... ....
....|..|C-4 AF.F ....|F-3 6F37 ....|D-5 UFE7 ....
....|..|E-2 2F.A ....|--- .... ....|--- .... ....
....|..|C-4 AF.F ....|A-5 3FFF ....|A-5 3FFF ....
 E-4|..|E-2 2A.F ....|--- .... ....|--- .... ....

[Pattern20]
....|..|C-4 AF.F ....|G-5 3FFF ....|C-6 UFEF ....
....|..|C-4 AF.F ....|C-4 6F1F ....|--- .... ....
....|..|C-4 AF.F ....|R-- .... ....|R-- .... ....
....|..|C-4 AF.F ....|--- .... ....|--- .... ....
....|..|C-4 AF.F ....|F-5 3FFF ....|F-5 3FFF ....
....|..|E-2 2F.A ....|--- .... ....|--- .... ....
....|..|C-4 AF.F ....|G-5 3FFF ....|G-5 3FFF ....
 C-3|..|C-3 2C.F ....|C-4 6F1A ....|--- .... ....
....|..|C-4 AF.F ....|C-6 3FFF ....|C-6 3FFF ....
....|..|C-2 2F.A ....|--- .... ....|--- .... ....
....|..|C-4 AF.F ....|F-5 3FFF ....|F-5 3FFF ....
 C-4|..|C-2 2A.F ....|--- .... ....|--- .... ....
....|..|C-4 AF.F ....|C-4 6F17 ....|R-- .... ....
....|..|C-4 AF.F ....|--- .... ....|--- .... ....
....|..|C-4 AF.F ....|C-6 3FFF ....|C-6 3FFF ....
 C-3|..|C-3 2C.F ....|--- .... ....|--- .... ....
....|..|C-4 AF.F ....|D-6 3FFF ....|G-5 UFEF ....
 C-4|..|C-2 2A.F ....|--- .... ....|--- .... ....
....|..|C-4 AF.F ....|R-- .... ....|R-- .... ....
 C-3|..|C-3 2C.F ....|--- .... ....|--- .... ....
....|..|C-4 AF.F ....|--- .... ....|--- .... ....
....|..|C-3 2F.A ....|--- .... ....|--- .... ....
....|..|C-4 AF.F ....|G-5 3FFF ....|G-5 3FFF ....
 C-3|..|C-3 2C.F ....|--- .... ....|--- .... ....
....|..|C-4 AF.F ....|C-6 3FFF ....|C-6 3FFF ....
....|..|C-3 2F.A ....|--- .... ....|--- .... ....
....|..|C-4 AF.F ....|R-- .... ....|R-- .... ....
....|..|C-4 AF.F ....|--- .... ....|--- .... ....
....|..|C-4 AF.F ....|--- .... ....|A-5 UFEF ....
 C-3|..|C-3 2C.F ....|--- .... ....|--- .... ....
....|..|C-4 AF.F ....|C-6 3FFF ....|C-6 3FFF ....
 C-3|..|C-3 2C.F ....|R-- .... ....|R-- .... ....
....|..|C-4 AF.F ....|D-6 3FFF ....|B-5 UFEF ....
....|..|C-2 2F.A ....|G-3 6F1F ....|--- .... ....
....|..|C-4 AF.F ....|--- .... ....|A-5 UFEA ....
 G-3|..|G-1 2A.F ....|--- .... ....|--- .... ....
....|..|C-4 AF.F ....|E-6 3FFF ....|E-6 3FFF ....
 G-4|..|G-2 2A.F ....|R-- .... ....|R-- .... ....
....|..|C-4 AF.F ....|G-3 6F1A ....|B-5 UFEA ....
 G-4|..|G-2 2A.F ....|--- .... ....|--- .... ....
....|..|C-4 AF.F ....|B-5 3FFF ....|D-5 UFEF ....
....|..|G-1 2F.A ....|--- .... ....|--- .... ....
....|..|C-4 AF.F ....|R-- .... ....|R-- .... ....
 G-3|..|G-1 2A.F ....|--- .... ....|R-- .... ....
....|..|C-4 AF.F ....|D-6 3FFF ....|D-6 3FFF ....
....|..|C-4 AF.F ....|G-3 6F17 ....|--- .... ....
....|..|C-4 AF.F ....|--- .... ....|D-5 UFEA ....
 G-4|..|G-2 2A.F ....|--- .... ....|--- .... ....
....|..|C-4 AF.F ....|E-6 3FFF ....|E-6 3FFF ....
 G-3|..|G-1 2A.F ....|--- .... ....|--- .... ....
....|..|C-4 AF.F ....|R-- .... ....|R-- .... ....
 G-4|..|G-2 2A.F ....|--- .... ....|--- .... ....
....|..|C-4 AF.F ....|F-6 3FFF ....|F-6 3FFF ....
 G-4|..|G-2 2A.F ....|--- .... ....|--- .... ....
....|..|C-4 AF.F ....|--- .... ....|--- .... ....
 G-4|..|G-2 2A.F ....|--- .... ....|--- .... ....
....|..|C-4 AF.F ....|E-6 3FFF ....|E-5 UFEF ....
....|..|G-2 2F.A ....|--- .... ....|E-5 UFEF ....
....|..|C-4 AF.F ....|R-- .... ....|R-- .... ....
 G-3|..|G-1 2A.F ....|--- .... ....|--- .... ....
....|..|C-4 AF.F ....|D-6 3FFF ....|F-5 UFEF ....
 G-4|..|G-2 2A.F ....|--- .... ....|--- .... ....
....|..|C-4 AF.F ....|R-- .... ....|E-5 UFEA ....
....|..|C-4 AF.F ....|--- .... ....|E-5 UFEA ....

[Pattern21]
....|..|C-4 AF.F ....|F-5 3FFF ....|F-5 UFEF ....
....|..|G-1 2F.A ....|A-3 6F2F ....|C-5 UFEF ....
....|..|C-4 AF.F ....|R-- .... ....|R-- .... ....
 F-3|..|F-1 2A.F ....|--- .... ....|--- .... ....
....|..|C-4 AF.F ....|C-6 3FFF ....|C-6 3FFF ....
 F-4|..|F-2 2A.F ....|R-- .... ....|E-5 UFE7 ....
....|..|C-4 AF.F ....|F-5 3FFF ....|F-5 3FFF ....
 F-4|..|F-2 2A.F ....|A-3 6F2A ....|C-5 UFEA ....
....|..|C-4 AF.F ....|A-5 3FFF ....|A-5 3FFF ....
 F-3|..|F-1 2A.F ....|--- .... ....|--- .... ....
....|..|C-4 AF.F ....|R-- .... ....|R-- .... ....
 F-4|..|F-2 2A.F ....|--- .... ....|--- .... ....
....|..|C-4 AF.F ....|A-3 6F27 ....|F-5 UFE7 ....
 F-4|..|F-2 2A.F ....|--- .... ....|C-5 UFE7 ....
....|..|C-4 AF.F ....|A-5 3FFF ....|A-5 3FFF ....
 F-4|..|F-2 2A.F ....|--- .... ....|--- .... ....
....|..|C-4 AF.F ....|C-6 3FFF ....|G-4 UFEF ....
 F-3|..|F-1 2A.F ....|--- .... ....|--- .... ....
....|..|C-4 AF.F ....|R-- .... ....|R-- .... ....
 F-4|..|F-2 2A.F ....|--- .... ....|--- .... ....
....|..|C-4 AF.F ....|--- .... ....|--- .... ....
....|..|F-2 2F.A ....|--- .... ....|--- .... ....
....|..|C-4 AF.F ....|F-5 3FFF ....|F-5 3FFF ....
 F-4|..|F-2 2A.F ....|--- .... ....|--- .... ....
....|..|C-4 AF.F ....|A-5 3FFF ....|A-5 3FFF ....
 F-3|..|F-1 2A.F ....|--- .... ....|--- .... ....
....|..|C-4 AF.F ....|R-- .... ....|R-- .... ....
....|..|C-4 AF.F ....|--- .... ....|--- .... ....
....|..|C-4 AF.F ....|A-3 6F.F ....|A-4 UFEF ....
 F-4|..|F-2 2A.F ....|R-- .... ....|--- .... ....
....|..|C-4 AF.F ....|A-5 3FFF ....|A-5 3FFF ....
....|..|C-4 AF.F ....|--- .... ....|R-- .... ....
....|..|C-4 AF.F ....|C-6 3FFF ....|B-4 UFEF ....
....|..|F-2 2F.A ....|G-3 6F3F ....|--- .... ....
....|..|C-4 AF.F ....|A-3 6F.A ....|R-- .... ....
 E-3|..|E-1 2A.F ....|R-- .... ....|--- .... ....
....|..|C-4 AF.F ....|--- .... ....|--- .... ....
 E-4|..|E-2 2A.F ....|--- .... ....|R-- .... ....
....|..|C-4 AF.F ....|E-5 3FFF ....|E-5 3FFF ....
 E-4|..|E-2 2A.F ....|G-3 6F3A ....|--- .... ....
....|..|C-4 AF.F ....|A-5 3FFF ....|D-4 UFEF ....
....|..|C-4 AF.F ....|A-3 6F.7 ....|--- .... ....
....|..|C-4 AF.F ....|R-- .... ....|R-- .... ....
 E-3|..|E-1 2A.F ....|--- .... ....|R-- .... ....
....|..|C-4 AF.F ....|G-3 6F37 ....|B-4 UFE7 ....
....|..|E-2 2F.A ....|--- .... ....|--- .... ....
....|..|C-4 AF.F ....|A-5 3FFF ....|A-5 3FFF ....
 E-4|..|E-2 2A.F ....|--- .... ....|--- .... ....
....|..|C-4 AF.F ....|B-5 3FFF ....|B-5 3FFF ....
 E-3|..|E-1 2A.F ....|G-3 6F1F ....|--- .... ....
....|..|C-4 AF.F ....|R-- .... ....|R-- .... ....
 E-4|..|E-2 2A.F ....|--- .... ....|--- .... ....
....|..|C-4 AF.F ....|--- .... ....|D-4 UFE7 ....
....|..|C-4 AF.F ....|--- .... ....|--- .... ....
....|..|C-4 AF.F ....|E-5 3FFF ....|E-5 3FFF ....
....|..|C-4 AF.F ....|G-3 6F1A ....|--- .... ....
....|..|C-4 AF.F ....|A-5 3FFF ....|E-4 UFEF ....
....|..|E-2 2F.A ....|--- .... ....|E-4 UFEF ....
....|..|C-4 AF.F ....|R-- .... ....|R-- .... ....
 E-3|..|E-1 2A.F ....|--- .... ....|--- .... ....
....|..|C-4 AF.F ....|G-3 6F17 ....|F-4 UFEF ....
....|..|E-2 2F.A ....|--- .... ....|--- .... ....
....|..|C-4 AF.F ....|A-5 3FFF ....|A-5 3FFF ....
 E-4|..|E-2 2A.F ....|--- .... ....|E-4 UFEA ....

[Pattern22]
....|..|C-4 AF.F ....|G-5 3FFF ....|E-5 UFEF ....
....|..|C-4 AF.F ....|C-4 6F1F ....|--- .... ....
....|..|C-4 AF.F ....|R-- .... ....|R-- .... ....
....|..|C-4 AF.F ....|--- .... ....|R-- .... ....
....|..|C-4 AF.F ....|--- .... ....|D-5 UFEF ....
....|..|E-2 2F.A ....|--- .... ....|E-4 UFE7 ....
....|..|C-4 AF.F ....|G-5 3FFF ....|G-5 3FFF ....
 C-3|..|C-3 2C.F ....|C-4 6F1A ....|R-- .... ....
....|..|C-4 AF.F ....|C-6 3FFF ....|E-5 UFEF ....
....|..|C-2 2F.A ....|--- .... ....|R-- .... ....
....|..|C-4 AF.F ....|R-- .... ....|R-- .... ....
 C-4|..|C-2 2A.F ....|--- .... ....|--- .... ....
....|..|C-4 AF.F ....|C-4 6F17 ....|E-5 UFE7 ....
....|..|C-4 AF.F ....|--- .... ....|R-- .... ....
....|..|C-4 AF.F ....|C-6 3FFF ....|C-6 3FFF ....
 C-3|..|C-3 2C.F ....|--- .... ....|R-- .... ....
....|..|C-4 AF.F ....|D-6 3FFF ....|E-5 UFEF ....
 C-4|..|C-2 2A.F ....|--- .... ....|--- .... ....
....|..|C-4 AF.F ....|R-- .... ....|R-- .... ....
 C-3|..|C-3 2C.F ....|--- .... ....|R-- .... ....
....|..|C-4 AF.F ....|--- .... ....|D-5 UFEF ....
....|..|C-3 2F.A ....|--- .... ....|--- .... ....
....|..|C-4 AF.F ....|G-5 3FFF ....|G-5 3FFF ....
 C-3|..|C-3 2C.F ....|--- .... ....|R-- .... ....
....|..|C-4 AF.F ....|C-6 3FFF ....|E-5 UFEF ....
....|..|C-3 2F.A ....|--- .... ....|R-- .... ....
....|..|C-4 AF.F ....|R-- .... ....|R-- .... ....
....|..|C-4 AF.F ....|--- .... ....|--- .... ....
....|..|C-4 AF.F ....|--- .... ....|E-5 UFE7 ....
 C-3|..|C-3 2C.F ....|--- .... ....|R-- .... ....
....|..|C-4 AF.F ....|C-6 3FFF ....|C-6 3FFF ....
 C-3|..|C-3 2C.F ....|R-- .... ....|R-- .... ....
....|..|C-4 AF.F ....|D-6 3FFF ....|A-4 UFEF ....
....|..|C-2 2F.A ....|G-3 6F1F ....|--- .... ....
....|..|C-4 AF.F ....|R-- .... ....|R-- .... ....
 G-3|..|G-1 2A.F ....|--- .... ....|R-- .... ....
....|..|C-4 AF.F ....|R-- .... ....|E-5 UFE7 ....
 G-4|..|G-2 2A.F ....|--- .... ....|--- .... ....
....|..|C-4 AF.F ....|G-3 6F1A ....|A-4 UFEA ....
 G-4|..|G-2 2A.F ....|--- .... ....|--- .... ....
....|..|C-4 AF.F ....|--- .... ....|G-4 UFEF ....
....|..|G-1 2F.A ....|--- .... ....|--- .... ....
....|..|C-4 AF.F ....|R-- .... ....|--- .... ....
 G-3|..|G-1 2A.F ....|--- .... ....|--- .... ....
....|..|C-4 AF.F ....|G-3 6F17 ....|A-4 UFE7 ....
....|..|C-4 AF.F ....|--- .... ....|--- .... ....
....|..|C-4 AF.F ....|--- .... ....|G-4 UFEA ....
 G-4|..|G-2 2A.F ....|--- .... ....|--- .... ....
....|..|C-4 AF.F ....|--- .... ....|E-4 UFEF ....
 G-3|..|G-1 2A.F ....|--- .... ....|--- .... ....
....|..|C-4 AF.F ....|--- .... ....|--- .... ....
 G-4|..|G-2 2A.F ....|--- .... ....|--- .... ....
....|..|C-4 AF.F ....|--- .... ....|G-4 UFE7 ....
 G-4|..|G-2 2A.F ....|--- .... ....|--- .... ....
....|..|C-4 AF.F ....|--- .... ....|E-4 UFEA ....
 G-4|..|G-2 2A.F ....|--- .... ....|--- .... ....
....|..|C-4 AF.F ....|--- .... ....|F-4 UFEF ....
....|..|G-2 2F.A ....|--- .... ....|--- .... ....
....|..|C-4 AF.F ....|--- .... ....|R-- .... ....
 G-3|..|G-1 2A.F ....|--- .... ....|--- .... ....
....|..|C-4 AF.F ....|--- .... ....|E-4 UFE7 ....
 G-4|..|G-2 2A.F ....|--- .... ....|--- .... ....
....|..|C-4 AF.F ....|R-- .... ....|F-4 UFEA ....
....|..|C-4 AF.F ....|--- .... ....|--- .... ....

[Pattern23]
....|..|C-4 AF.F ....|F-5 3FFF ....|C-5 UFEF ....
....|..|G-1 2F.A ....|A-3 6F2F ....|--- .... ....
....|..|C-4 AF.F ....|R-- .... ....|R-- .... ....
 F-3|..|F-1 2A.F ....|--- .... ....|--- .... ....
....|..|C-4 AF.F ....|R-- .... ....|F-4 UFE7 ....
 F-4|..|F-2 2A.F ....|--- .... ....|--- .... ....
....|..|C-4 AF.F ....|F-5 3FFF ....|F-5 3FFF ....
 F-4|..|F-2 2A.F ....|A-3 6F2A ....|--- .... ....
....|..|C-4 AF.F ....|A-5 3FFF ....|B-4 UFEF ....
 F-3|..|F-1 2A.F ....|--- .... ....|--- .... ....
....|..|C-4 AF.F ....|R-- .... ....|R-- .... ....
 F-4|..|F-2 2A.F ....|--- .... ....|--- .... ....
....|..|C-4 AF.F ....|A-3 6F27 ....|C-5 UFE7 ....
 F-4|..|F-2 2A.F ....|--- .... ....|--- .... ....
....|..|C-4 AF.F ....|A-5 3FFF ....|A-5 3FFF ....
 F-4|..|F-2 2A.F ....|--- .... ....|--- .... ....
....|..|C-4 AF.F ....|C-6 3FFF ....|D-4 UFEF ....
 F-3|..|F-1 2A.F ....|--- .... ....|--- .... ....
....|..|C-4 AF.F ....|R-- .... ....|R-- .... ....
 F-4|..|F-2 2A.F ....|--- .... ....|--- .... ....
....|..|C-4 AF.F ....|--- .... ....|B-4 UFE7 ....
....|..|F-2 2F.A ....|--- .... ....|--- .... ....
....|..|C-4 AF.F ....|F-5 3FFF ....|F-5 3FFF ....
 F-4|..|F-2 2A.F ....|--- .... ....|--- .... ....
....|..|C-4 AF.F ....|A-5 3FFF ....|E-4 UFEF ....
 F-3|..|F-1 2A.F ....|--- .... ....|--- .... ....
....|..|C-4 AF.F ....|R-- .... ....|R-- .... ....
....|..|C-4 AF.F ....|--- .... ....|--- .... ....
....|..|C-4 AF.F ....|A-3 6F.F ....|D-4 UFE7 ....
 F-4|..|F-2 2A.F ....|R-- .... ....|--- .... ....
....|..|C-4 AF.F ....|A-5 3FFF ....|A-5 3FFF ....
....|..|C-4 AF.F ....|--- .... ....|--- .... ....
....|..|C-4 AF.F ....|C-6 3FFF ....|A-4 UFEF ....
....|..|F-2 2F.A ....|G-3 6F3F ....|--- .... ....
....|..|C-4 AF.F ....|A-3 6F.A ....|R-- .... ....
 E-3|..|E-1 2A.F ....|R-- .... ....|--- .... ....
....|..|C-4 AF.F ....|--- .... ....|E-4 UFE7 ....
 E-4|..|E-2 2A.F ....|--- .... ....|--- .... ....
....|..|C-4 AF.F ....|E-5 3FFF ....|E-5 3FFF ....
 E-4|..|E-2 2A.F ....|G-3 6F3A ....|--- .... ....
....|..|C-4 AF.F ....|A-5 3FFF ....|G-4 UFEF ....
....|..|C-4 AF.F ....|A-3 6F.7 ....|--- .... ....
....|..|C-4 AF.F ....|R-- .... ....|R-- .... ....
 E-3|..|E-1 2A.F ....|--- .... ....|--- .... ....
....|..|C-4 AF.F ....|G-3 6F37 ....|A-4 UFE7 ....
....|..|E-2 2F.A ....|--- .... ....|--- .... ....
....|..|C-4 AF.F ....|A-5 3FFF ....|A-5 3FFF ....
 E-4|..|E-2 2A.F ....|--- .... ....|--- .... ....
....|..|C-4 AF.F ....|B-5 3FFF ....|D-4 UFEF ....
 E-3|..|E-1 2A.F ....|F-3 6F3F ....|--- .... ....
....|..|C-4 AF.F ....|R-- .... ....|R-- .... ....
 E-4|..|E-2 2A.F ....|--- .... ....|--- .... ....
....|..|C-4 AF.F ....|--- .... ....|G-4 UFE7 ....
....|..|C-4 AF.F ....|--- .... ....|--- .... ....
....|..|C-4 AF.F ....|E-5 3FFF ....|E-5 3FFF ....
....|..|C-4 AF.F ....|F-3 6F3A ....|--- .... ....
....|..|C-4 AF.F ....|A-5 3FFF ....|C-4 UFEF ....
....|..|E-2 2F.A ....|--- .... ....|--- .... ....
....|..|C-4 AF.F ....|R-- .... ....|R-- .... ....
 E-3|..|E-1 2A.F ....|--- .... ....|--- .... ....
....|..|C-4 AF.F ....|F-3 6F37 ....|D-4 UFE7 ....
....|..|E-2 2F.A ....|--- .... ....|--- .... ....
....|..|C-4 AF.F ....|A-5 3FFF ....|A-5 3FFF ....
 E-4|..|E-2 2A.F ....|--- .... ....|--- .... ....

[Pattern24]
 G-3|..|G-1 2A.F ....|G-5 3FFF ....|G-5 3FFF ....
....|..|C-4 AF.F ....|C-4 6F1F ....|--- .... ....
....|..|E-2 2F.A ....|R-- .... ....|R-- .... ....
....|..|C-4 AF.F ....|--- .... ....|--- .... ....
....|..|C-4 AF.F ....|F-5 3FFF ....|F-5 3FFF ....
....|..|E-1 2F.7 ....|--- .... ....|--- .... ....
....|..|G-1 2F.A ....|G-5 3FFF ....|G-5 3FFF ....
....|..|--- .... ....|C-4 6F1A ....|--- .... ....
 G-3|..|G-1 2A.F ....|C-6 3FFF ....|C-6 3FFF ....
....|..|--- .... ....|--- .... ....|--- .... ....
....|..|R-- .... ....|F-5 3FFF ....|F-5 3FFF ....
....|..|--- .... ....|--- .... ....|--- .... ....
....|..|G-1 2F.7 ....|C-4 6F17 ....|R-- .... ....
....|..|--- .... ....|--- .... ....|--- .... ....
....|..|G-1 2F.A ....|C-6 3FFF ....|C-6 3FFF ....
....|..|--- .... ....|--- .... ....|--- .... ....
 G-3|..|G-1 2A.F ....|D-6 3FFF ....|D-6 3FFF ....
....|..|--- .... ....|B-3 6F4F ....|--- .... ....
....|..|R-- .... ....|R-- .... ....|R-- .... ....
....|..|--- .... ....|--- .... ....|--- .... ....
....|..|G-1 2F.7 ....|--- .... ....|--- .... ....
....|..|--- .... ....|--- .... ....|--- .... ....
....|..|G-1 2F.A ....|G-5 3FFF ....|G-5 3FFF ....
....|..|--- .... ....|B-3 6F4A ....|--- .... ....
 G-3|..|G-1 2A.F ....|C-6 3FFF ....|C-6 3FFF ....
....|..|--- .... ....|--- .... ....|--- .... ....
....|..|R-- .... ....|R-- .... ....|R-- .... ....
....|..|--- .... ....|--- .... ....|--- .... ....
....|..|G-1 2F.7 ....|B-3 6F47 ....|--- .... ....
....|..|--- .... ....|--- .... ....|--- .... ....
....|..|G-1 2F.A ....|C-6 3FFF ....|C-6 3FFF ....
....|..|--- .... ....|--- .... ....|--- .... ....
 E-4|..|E-2 2A.F ....|D-6 3FFF ....|D-6 3FFF ....
....|..|--- .... ....|A-3 6F2F ....|--- .... ....
....|..|R-- .... ....|--- .... ....|--- .... ....
....|..|--- .... ....|--- .... ....|--- .... ....
....|..|G-1 2F.7 ....|E-6 3FFF ....|E-6 3FFF ....
....|..|--- .... ....|--- .... ....|--- .... ....
....|..|E-2 2F.A ....|A-3 6F2A ....|--- .... ....
....|..|--- .... ....|--- .... ....|--- .... ....
 E-4|..|E-2 2A.F ....|B-5 3FFF ....|B-5 3FFF ....
....|..|--- .... ....|--- .... ....|--- .... ....
....|..|R-- .... ....|R-- .... ....|R-- .... ....
....|..|--- .... ....|--- .... ....|--- .... ....
....|..|E-2 2F.7 ....|D-6 3FFF ....|D-6 3FFF ....
....|..|--- .... ....|A-3 6F27 ....|--- .... ....
....|..|E-2 2F.A ....|--- .... ....|--- .... ....
....|..|--- .... ....|--- .... ....|--- .... ....
 E-4|..|E-2 2A.F ....|E-6 3FFF ....|E-6 3FFF ....
....|..|--- .... ....|--- .... ....|--- .... ....
....|..|R-- .... ....|R-- .... ....|R-- .... ....
....|..|--- .... ....|--- .... ....|--- .... ....
....|..|E-2 2F.7 ....|F-6 3FFF ....|F-6 3FFF ....
....|..|--- .... ....|--- .... ....|--- .... ....
....|..|E-2 2F.A ....|--- .... ....|--- .... ....
....|..|--- .... ....|--- .... ....|--- .... ....
 E-4|..|E-2 2A.F ....|E-6 3FFF ....|E-6 3FFF ....
....|..|--- .... ....|--- .... ....|--- .... ....
....|..|R-- .... ....|R-- .... ....|R-- .... ....
....|..|--- .... ....|--- .... ....|--- .... ....
....|..|E-2 2F.7 ....|D-6 3FFF ....|D-6 3FFF ....
....|..|--- .... ....|--- .... ....|--- .... ....
....|..|E-2 2F.A ....|R-- .... ....|--- .... ....
....|..|--- .... ....|--- .... ....|--- .... ....

[Pattern28]
....|..|C-4 AF.F ....|G-5 3FFF ....|C-6 UFEF ....
 C-4|..|C-2 2A.F ....|C-4 6F1F ....|--- .... ....
....|..|C-4 AF.F ....|R-- .... ....|R-- .... ....
....|..|R-- .... ....|--- .... ....|--- .... ....
....|..|C-4 AF.F ....|F-5 3FFF ....|F-5 3FFF ....
 C-3|..|C-3 2C.F ....|--- .... ....|--- .... ....
....|..|C-4 AF.F ....|G-5 3FFF ....|G-5 3FFF ....
....|..|C-2 2F.A ....|C-4 6F1A ....|--- .... ....
....|..|C-4 AF.F ....|C-6 3FFF ....|C-6 3FFF ....
 C-4|..|C-2 2A.F ....|--- .... ....|--- .... ....
....|..|C-4 AF.F ....|F-5 3FFF ....|F-5 3FFF ....
....|..|C-3 2F.A ....|--- .... ....|--- .... ....
....|..|C-4 AF.F ....|C-4 6F17 ....|R-- .... ....
 C-3|..|C-3 2C.F ....|--- .... ....|--- .... ....
....|..|C-4 AF.F ....|C-6 3FFF ....|C-6 3FFF ....
....|..|C-2 2F.A ....|--- .... ....|--- .... ....
....|..|C-4 AF.F ....|D-6 3FFF ....|G-5 UFEF ....
....|..|C-4 AF.F ....|--- .... ....|--- .... ....
....|..|C-4 AF.F ....|R-- .... ....|R-- .... ....
 C-3|..|C-3 2C.F ....|--- .... ....|--- .... ....
....|..|C-4 AF.F ....|--- .... ....|--- .... ....
....|..|C-3 2F.A ....|--- .... ....|--- .... ....
....|..|C-4 AF.F ....|G-5 3FFF ....|G-5 3FFF ....
....|..|C-4 AF.F ....|--- .... ....|--- .... ....
....|..|C-4 AF.F ....|C-6 3FFF ....|C-6 3FFF ....
....|..|C-3 2F.A ....|--- .... ....|--- .... ....
....|..|C-4 AF.F ....|R-- .... ....|R-- .... ....
 C-4|..|C-2 2A.F ....|--- .... ....|--- .... ....
....|..|C-4 AF.F ....|--- .... ....|A-5 UFEF ....
 C-3|..|C-3 2C.F ....|--- .... ....|--- .... ....
....|..|C-4 AF.F ....|C-6 3FFF ....|C-6 3FFF ....
 C-3|..|C-3 2C.F ....|R-- .... ....|R-- .... ....
....|..|C-4 AF.F ....|D-6 3FFF ....|B-5 UFEF ....
....|..|C-2 2F.A ....|G-3 6F1F ....|--- .... ....
....|..|C-4 AF.F ....|--- .... ....|A-5 UFEA ....
 G-3|..|G-1 2A.F ....|--- .... ....|--- .... ....
....|..|C-4 AF.F ....|E-6 3FFF ....|E-6 3FFF ....
 G-4|..|G-2 2A.F ....|R-- .... ....|R-- .... ....
....|..|C-4 AF.F ....|G-3 6F1A ....|B-5 UFEA ....
 G-4|..|G-2 2A.F ....|--- .... ....|--- .... ....
....|..|C-4 AF.F ....|B-5 3FFF ....|D-5 UFEF ....
....|..|G-1 2F.A ....|--- .... ....|--- .... ....
....|..|C-4 AF.F ....|R-- .... ....|R-- .... ....
 G-3|..|G-1 2A.F ....|--- .... ....|R-- .... ....
....|..|C-4 AF.F ....|D-6 3FFF ....|D-6 3FFF ....
 G-4|..|G-2 2A.F ....|G-3 6F17 ....|--- .... ....
....|..|C-4 AF.F ....|--- .... ....|D-5 UFEA ....
....|..|C-4 AF.F ....|--- .... ....|--- .... ....
....|..|C-4 AF.F ....|E-6 3FFF ....|E-6 3FFF ....
 G-3|..|G-1 2A.F ....|--- .... ....|--- .... ....
....|..|C-4 AF.F ....|R-- .... ....|R-- .... ....
 G-4|..|G-2 2A.F ....|--- .... ....|--- .... ....
....|..|C-4 AF.F ....|F-6 3FFF ....|F-6 3FFF ....
 G-4|..|G-2 2A.F ....|--- .... ....|--- .... ....
....|..|C-4 AF.F ....|--- .... ....|--- .... ....
 G-4|..|G-2 2A.F ....|--- .... ....|--- .... ....
....|..|C-4 AF.F ....|E-6 3FFF ....|E-5 UFEF ....
....|..|G-2 2F.A ....|--- .... ....|E-5 UFEF ....
....|..|C-4 AF.F ....|R-- .... ....|R-- .... ....
 G-3|..|G-1 2A.F ....|--- .... ....|--- .... ....
....|..|C-4 AF.F ....|D-6 3FFF ....|F-5 UFEF ....
 G-4|..|G-2 2A.F ....|--- .... ....|--- .... ....
....|..|C-4 AF.F ....|R-- .... ....|E-5 UFEA ....
 G-4|..|G-2 2A.F ....|--- .... ....|E-5 UFEA ....

[Pattern29]
....|..|C-4 AF.F ....|F-5 3FFF ....|F-5 UFEF ....
....|..|G-1 2F.A ....|A-3 6F2F ....|C-5 UFEF ....
....|..|C-4 AF.F ....|R-- .... ....|R-- .... ....
 F-3|..|F-1 2A.F ....|--- .... ....|--- .... ....
....|..|C-4 AF.F ....|C-6 3FFF ....|C-6 3FFF ....
....|..|C-4 AF.F ....|R-- .... ....|E-5 UFE7 ....
....|..|C-4 AF.F ....|F-5 3FFF ....|F-5 3FFF ....
 F-4|..|F-2 2A.F ....|A-3 6F2A ....|C-5 UFEA ....
....|..|C-4 AF.F ....|A-5 3FFF ....|A-5 3FFF ....
 F-3|..|F-1 2A.F ....|--- .... ....|--- .... ....
....|..|C-4 AF.F ....|R-- .... ....|R-- .... ....
 F-4|..|F-2 2A.F ....|--- .... ....|--- .... ....
....|..|C-4 AF.F ....|A-3 6F27 ....|F-5 UFE7 ....
....|..|C-4 AF.F ....|--- .... ....|C-5 UFE7 ....
....|..|C-4 AF.F ....|A-5 3FFF ....|A-5 3FFF ....
 F-4|..|F-2 2A.F ....|--- .... ....|--- .... ....
....|..|C-4 AF.F ....|C-6 3FFF ....|C-6 3FFF ....
 F-3|..|F-1 2A.F ....|--- .... ....|--- .... ....
....|..|C-4 AF.F ....|R-- .... ....|R-- .... ....
 F-4|..|F-2 2A.F ....|--- .... ....|--- .... ....
....|..|C-4 AF.F ....|--- .... ....|--- .... ....
....|..|F-2 2F.A ....|--- .... ....|--- .... ....
....|..|C-4 AF.F ....|F-5 3FFF ....|F-5 3FFF ....
 F-4|..|F-2 2A.F ....|--- .... ....|--- .... ....
....|..|C-4 AF.F ....|A-5 3FFF ....|A-5 3FFF ....
 F-3|..|F-1 2A.F ....|--- .... ....|--- .... ....
....|..|C-4 AF.F ....|R-- .... ....|R-- .... ....
 F-4|..|F-2 2A.F ....|--- .... ....|--- .... ....
....|..|C-4 AF.F ....|A-3 6F.F ....|--- .... ....
 F-4|..|F-2 2A.F ....|R-- .... ....|--- .... ....
....|..|C-4 AF.F ....|A-5 3FFF ....|A-5 3FFF ....
 F-4|..|F-2 2A.F ....|--- .... ....|--- .... ....
....|..|C-4 AF.F ....|C-6 3FFF ....|C-6 3FFF ....
....|..|F-2 2F.A ....|G-3 6F3F ....|--- .... ....
....|..|C-4 AF.F ....|A-3 6F.A ....|R-- .... ....
 E-3|..|E-1 2A.F ....|R-- .... ....|--- .... ....
....|..|C-4 AF.F ....|--- .... ....|--- .... ....
 E-4|..|E-2 2A.F ....|--- .... ....|--- .... ....
....|..|C-4 AF.F ....|E-5 3FFF ....|E-5 3FFF ....
 E-4|..|E-2 2A.F ....|G-3 6F3A ....|R-- .... ....
....|..|C-4 AF.F ....|A-5 3FFF ....|B-4 UFEF ....
....|..|E-1 2F.A ....|A-3 6F.7 ....|--- .... ....
....|..|C-4 AF.F ....|R-- .... ....|R-- .... ....
 E-3|..|E-1 2A.F ....|--- .... ....|--- .... ....
....|..|C-4 AF.F ....|G-3 6F37 ....|R-- .... ....
....|..|C-4 AF.F ....|--- .... ....|R-- .... ....
....|..|C-4 AF.F ....|A-5 3FFF ....|A-5 3FFF ....
 E-4|..|E-2 2A.F ....|--- .... ....|--- .... ....
....|..|C-4 AF.F ....|B-5 3FFF ....|C-5 UFEF ....
 E-3|..|E-1 2A.F ....|F-3 6F3F ....|--- .... ....
....|..|C-4 AF.F ....|R-- .... ....|R-- .... ....
 E-4|..|E-2 2A.F ....|--- .... ....|R-- .... ....
....|..|C-4 AF.F ....|--- .... ....|B-4 UFE7 ....
 E-4|..|E-2 2A.F ....|--- .... ....|R-- .... ....
....|..|C-4 AF.F ....|E-5 3FFF ....|E-5 3FFF ....
 E-4|..|E-2 2A.F ....|F-3 6F3A ....|--- .... ....
....|..|C-4 AF.F ....|A-5 3FFF ....|B-4 UFEF ....
....|..|C-4 AF.F ....|--- .... ....|--- .... ....
....|..|C-4 AF.F ....|R-- .... ....|R-- .... ....
 E-3|..|E-1 2A.F ....|--- .... ....|R-- .... ....
....|..|C-4 AF.F ....|F-3 6F37 ....|C-5 UFE7 ....
....|..|E-2 2F.A ....|--- .... ....|--- .... ....
....|..|C-4 AF.F ....|A-5 3FFF ....|A-5 3FFF ....
 E-4|..|E-2 2A.F ....|--- .... ....|--- .... ....

[Pattern30]
....|..|C-4 AF.F ....|G-5 3FFF ....|G-5 UFEF ....
....|..|C-4 AF.F ....|C-4 6F1F ....|R-- .... ....
....|..|C-4 AF.F ....|R-- .... ....|R-- .... ....
....|..|C-4 AF.F ....|--- .... ....|R-- .... ....
....|..|C-4 AF.F ....|--- .... ....|F-5 UFEF ....
....|..|E-2 2F.A ....|--- .... ....|--- .... ....
....|..|C-4 AF.F ....|G-5 3FFF ....|G-5 3FFF ....
 C-3|..|C-3 2C.F ....|C-4 6F1A ....|R-- .... ....
....|..|C-4 AF.F ....|C-6 3FFF ....|G-5 UFEF ....
....|..|C-2 2F.A ....|--- .... ....|R-- .... ....
....|..|C-4 AF.F ....|R-- .... ....|R-- .... ....
 C-4|..|C-2 2A.F ....|--- .... ....|--- .... ....
....|..|C-4 AF.F ....|C-4 6F17 ....|G-5 UFE7 ....
....|..|C-3 2F.A ....|--- .... ....|R-- .... ....
....|..|C-4 AF.F ....|C-6 3FFF ....|C-6 3FFF ....
 C-3|..|C-3 2C.F ....|--- .... ....|R-- .... ....
....|..|C-4 AF.F ....|D-6 3FFF ....|E-5 UFEF ....
....|..|C-4 AF.F ....|--- .... ....|--- .... ....
....|..|C-4 AF.F ....|R-- .... ....|R-- .... ....
 C-3|..|C-3 2C.F ....|--- .... ....|R-- .... ....
....|..|C-4 AF.F ....|--- .... ....|D-5 UFEF ....
....|..|C-3 2F.A ....|--- .... ....|--- .... ....
....|..|C-4 AF.F ....|G-5 3FFF ....|G-5 3FFF ....
....|..|C-4 AF.F ....|--- .... ....|R-- .... ....
....|..|C-4 AF.F ....|C-6 3FFF ....|E-5 UFEF ....
....|..|C-3 2F.A ....|--- .... ....|R-- .... ....
....|..|C-4 AF.F ....|R-- .... ....|R-- .... ....
 C-4|..|C-2 2A.F ....|--- .... ....|--- .... ....
....|..|C-4 AF.F ....|--- .... ....|E-5 UFE7 ....
 C-3|..|C-3 2C.F ....|--- .... ....|R-- .... ....
....|..|C-4 AF.F ....|C-6 3FFF ....|C-6 3FFF ....
 C-3|..|C-3 2C.F ....|R-- .... ....|R-- .... ....
....|..|C-4 AF.F ....|D-6 3FFF ....|D-5 UFEF ....
....|..|C-2 2F.A ....|G-3 6F1F ....|--- .... ....
....|..|C-4 AF.F ....|R-- .... ....|R-- .... ....
 G-3|..|G-1 2A.F ....|--- .... ....|R-- .... ....
....|..|C-4 AF.F ....|R-- .... ....|E-5 UFE7 ....
 G-4|..|G-2 2A.F ....|--- .... ....|--- .... ....
....|..|C-4 AF.F ....|G-3 6F1A ....|D-5 UFEA ....
 G-4|..|G-2 2A.F ....|--- .... ....|--- .... ....
....|..|C-4 AF.F ....|--- .... ....|--- .... ....
....|..|G-1 2F.A ....|--- .... ....|--- .... ....
....|..|C-4 AF.F ....|R-- .... ....|--- .... ....
 G-3|..|G-1 2A.F ....|--- .... ....|--- .... ....
....|..|C-4 AF.F ....|G-3 6F17 ....|D-5 UFE7 ....
 G-4|..|G-2 2A.F ....|--- .... ....|--- .... ....
....|..|C-4 AF.F ....|--- .... ....|--- .... ....
....|..|C-4 AF.F ....|--- .... ....|--- .... ....
....|..|C-4 AF.F ....|--- .... ....|E-5 UFEF ....
 G-3|..|G-1 2A.F ....|--- .... ....|--- .... ....
....|..|C-4 AF.F ....|--- .... ....|--- .... ....
 G-4|..|G-2 2A.F ....|--- .... ....|--- .... ....
....|..|C-4 AF.F ....|--- .... ....|F-5 UFEF ....
 G-4|..|G-2 2A.F ....|--- .... ....|--- .... ....
....|..|C-4 AF.F ....|--- .... ....|E-5 UFEA ....
 G-4|..|G-2 2A.F ....|--- .... ....|--- .... ....
....|..|C-4 AF.F ....|--- .... ....|E-5 UFEF ....
....|..|G-2 2F.A ....|--- .... ....|--- .... ....
....|..|C-4 AF.F ....|--- .... ....|F-5 UFEA ....
 G-3|..|G-1 2A.F ....|--- .... ....|--- .... ....
....|..|C-4 AF.F ....|--- .... ....|F-5 UFEF ....
 G-4|..|G-2 2A.F ....|--- .... ....|--- .... ....
....|..|C-4 AF.F ....|R-- .... ....|E-5 UFEA ....
 G-4|..|G-2 2A.F ....|--- .... ....|--- .... ....

[Pattern31]
....|..|C-4 AF.F ....|F-5 3FFF ....|C-5 UFEF ....
....|..|G-1 2F.A ....|A-3 6F2F ....|--- .... ....
....|..|C-4 AF.F ....|R-- .... ....|R-- .... ....
 F-3|..|F-1 2A.F ....|--- .... ....|--- .... ....
....|..|C-4 AF.F ....|R-- .... ....|B-4 UFEF ....
....|..|C-4 AF.F ....|--- .... ....|--- .... ....
....|..|C-4 AF.F ....|F-5 3FFF ....|F-5 3FFF ....
 F-4|..|F-2 2A.F ....|A-3 6F2A ....|--- .... ....
....|..|C-4 AF.F ....|A-5 3FFF ....|C-5 UFEF ....
 F-3|..|F-1 2A.F ....|--- .... ....|--- .... ....
....|..|C-4 AF.F ....|R-- .... ....|R-- .... ....
 F-4|..|F-2 2A.F ....|--- .... ....|--- .... ....
....|..|C-4 AF.F ....|A-3 6F27 ....|C-5 UFE7 ....
....|..|C-4 AF.F ....|--- .... ....|--- .... ....
....|..|C-4 AF.F ....|A-5 3FFF ....|A-5 3FFF ....
 F-4|..|F-2 2A.F ....|--- .... ....|--- .... ....
....|..|C-4 AF.F ....|C-6 3FFF ....|E-5 UFEF ....
 F-3|..|F-1 2A.F ....|--- .... ....|--- .... ....
....|..|C-4 AF.F ....|R-- .... ....|R-- .... ....
 F-4|..|F-2 2A.F ....|--- .... ....|--- .... ....
....|..|C-4 AF.F ....|--- .... ....|D-5 UFEF ....
....|..|F-2 2F.A ....|--- .... ....|--- .... ....
....|..|C-4 AF.F ....|F-5 3FFF ....|F-5 3FFF ....
 F-4|..|F-2 2A.F ....|--- .... ....|--- .... ....
....|..|C-4 AF.F ....|A-5 3FFF ....|E-5 UFEF ....
 F-3|..|F-1 2A.F ....|--- .... ....|--- .... ....
....|..|C-4 AF.F ....|R-- .... ....|R-- .... ....
 F-4|..|F-2 2A.F ....|--- .... ....|--- .... ....
....|..|C-4 AF.F ....|A-3 6F.F ....|E-5 UFE7 ....
 F-4|..|F-2 2A.F ....|R-- .... ....|--- .... ....
....|..|C-4 AF.F ....|A-5 3FFF ....|A-5 3FFF ....
 F-4|..|F-2 2A.F ....|--- .... ....|--- .... ....
....|..|C-4 AF.F ....|C-6 3FFF ....|B-4 UFEF ....
....|..|F-2 2F.A ....|G-3 6F3F ....|--- .... ....
....|..|C-4 AF.F ....|A-3 6F.A ....|R-- .... ....
 E-3|..|E-1 2A.F ....|R-- .... ....|--- .... ....
....|..|C-4 AF.F ....|--- .... ....|E-5 UFE7 ....
 E-4|..|E-2 2A.F ....|--- .... ....|--- .... ....
....|..|C-4 AF.F ....|E-5 3FFF ....|E-5 3FFF ....
 E-4|..|E-2 2A.F ....|G-3 6F3A ....|--- .... ....
....|..|C-4 AF.F ....|A-5 3FFF ....|A-5 3FFF ....
....|..|E-1 2F.A ....|A-3 6F.7 ....|--- .... ....
....|..|C-4 AF.F ....|R-- .... ....|R-- .... ....
 E-3|..|E-1 2A.F ....|--- .... ....|--- .... ....
....|..|C-4 AF.F ....|G-3 6F37 ....|B-4 UFE7 ....
....|..|C-4 AF.F ....|--- .... ....|--- .... ....
....|..|C-4 AF.F ....|A-5 3FFF ....|A-5 3FFF ....
 E-4|..|E-2 2A.F ....|--- .... ....|--- .... ....
....|..|C-4 AF.F ....|B-5 3FFF ....|D-5 UFEF ....
 E-3|..|E-1 2A.F ....|F-3 6F3F ....|--- .... ....
....|..|C-4 AF.F ....|R-- .... ....|R-- .... ....
 E-4|..|E-2 2A.F ....|--- .... ....|--- .... ....
....|..|C-4 AF.F ....|--- .... ....|--- .... ....
 E-4|..|E-2 2A.F ....|--- .... ....|--- .... ....
....|..|C-4 AF.F ....|E-5 3FFF ....|E-5 3FFF ....
 E-4|..|E-2 2A.F ....|F-3 6F3A ....|--- .... ....
....|..|C-4 AF.F ....|A-5 3FFF ....|C-5 UFEF ....
....|..|C-4 AF.F ....|--- .... ....|--- .... ....
....|..|C-4 AF.F ....|R-- .... ....|R-- .... ....
 E-3|..|E-1 2A.F ....|--- .... ....|--- .... ....
....|..|C-4 AF.F ....|F-3 6F37 ....|D-5 UFE7 ....
....|..|E-2 2F.A ....|--- .... ....|--- .... ....
....|..|C-4 AF.F ....|A-5 3FFF ....|A-5 3FFF ....
 E-4|..|E-2 2A.F ....|--- .... ....|--- .... ....

[Pattern32]
....|..|C-4 AF.F ....|G-5 3FFF ....|C-6 UFEF ....
....|..|C-4 AF.F ....|C-4 6F1F ....|--- .... ....
....|..|C-4 AF.F ....|R-- .... ....|R-- .... ....
....|..|C-4 AF.F ....|--- .... ....|--- .... ....
....|..|C-4 AF.F ....|F-5 3FFF ....|F-5 3FFF ....
....|..|E-2 2F.A ....|--- .... ....|--- .... ....
....|..|C-4 AF.F ....|G-5 3FFF ....|G-5 3FFF ....
 C-3|..|C-3 2C.F ....|C-4 6F1A ....|--- .... ....
....|..|C-4 AF.F ....|C-6 3FFF ....|C-6 3FFF ....
....|..|C-2 2F.A ....|--- .... ....|--- .... ....
....|..|C-4 AF.F ....|F-5 3FFF ....|F-5 3FFF ....
 C-4|..|C-2 2A.F ....|--- .... ....|--- .... ....
....|..|C-4 AF.F ....|C-4 6F17 ....|R-- .... ....
....|..|C-3 2F.A ....|--- .... ....|--- .... ....
....|..|C-4 AF.F ....|C-6 3FFF ....|C-6 3FFF ....
 C-3|..|C-3 2C.F ....|--- .... ....|--- .... ....
....|..|C-4 AF.F ....|D-6 3FFF ....|G-5 UFEF ....
....|..|C-4 AF.F ....|--- .... ....|--- .... ....
....|..|C-4 AF.F ....|R-- .... ....|R-- .... ....
 C-3|..|C-3 2C.F ....|--- .... ....|--- .... ....
....|..|C-4 AF.F ....|--- .... ....|--- .... ....
....|..|C-3 2F.A ....|--- .... ....|--- .... ....
....|..|C-4 AF.F ....|G-5 3FFF ....|G-5 3FFF ....
....|..|C-4 AF.F ....|--- .... ....|--- .... ....
....|..|C-4 AF.F ....|C-6 3FFF ....|C-6 3FFF ....
....|..|C-3 2F.A ....|--- .... ....|--- .... ....
....|..|C-4 AF.F ....|R-- .... ....|R-- .... ....
 C-4|..|C-2 2A.F ....|--- .... ....|--- .... ....
....|..|C-4 AF.F ....|--- .... ....|A-5 UFEF ....
 C-3|..|C-3 2C.F ....|--- .... ....|--- .... ....
....|..|C-4 AF.F ....|C-6 3FFF ....|C-6 3FFF ....
 C-3|..|C-3 2C.F ....|R-- .... ....|R-- .... ....
....|..|C-4 AF.F ....|D-6 3FFF ....|B-5 UFEF ....
....|..|C-2 2F.A ....|G-3 6F1F ....|--- .... ....
....|..|C-4 AF.F ....|--- .... ....|A-5 UFEA ....
 G-3|..|G-1 2A.F ....|--- .... ....|--- .... ....
....|..|C-4 AF.F ....|E-6 3FFF ....|E-6 3FFF ....
 G-4|..|G-2 2A.F ....|R-- .... ....|R-- .... ....
....|..|C-4 AF.F ....|G-3 6F1A ....|B-5 UFEA ....
 G-4|..|G-2 2A.F ....|--- .... ....|--- .... ....
....|..|C-4 AF.F ....|B-5 3FFF ....|D-5 UFEF ....
....|..|G-1 2F.A ....|--- .... ....|--- .... ....
....|..|C-4 AF.F ....|R-- .... ....|R-- .... ....
 G-3|..|G-1 2A.F ....|--- .... ....|R-- .... ....
....|..|C-4 AF.F ....|D-6 3FFF ....|D-6 3FFF ....
 G-4|..|G-2 2A.F ....|G-3 6F17 ....|--- .... ....
....|..|C-4 AF.F ....|--- .... ....|D-5 UFEA ....
....|..|C-4 AF.F ....|--- .... ....|--- .... ....
....|..|C-4 AF.F ....|E-6 3FFF ....|E-6 3FFF ....
 G-3|..|G-1 2A.F ....|--- .... ....|--- .... ....
....|..|C-4 AF.F ....|R-- .... ....|R-- .... ....
 G-4|..|G-2 2A.F ....|--- .... ....|--- .... ....
....|..|C-4 AF.F ....|F-6 3FFF ....|F-6 3FFF ....
 G-4|..|G-2 2A.F ....|--- .... ....|--- .... ....
....|..|C-4 AF.F ....|--- .... ....|--- .... ....
 G-4|..|G-2 2A.F ....|--- .... ....|--- .... ....
....|..|C-4 AF.F ....|E-6 3FFF ....|E-5 UFEF ....
....|..|G-2 2F.A ....|--- .... ....|E-5 UFEF ....
....|..|C-4 AF.F ....|R-- .... ....|R-- .... ....
 G-3|..|G-1 2A.F ....|--- .... ....|--- .... ....
....|..|C-4 AF.F ....|D-6 3FFF ....|F-5 UFEF ....
 G-4|..|G-2 2A.F ....|--- .... ....|--- .... ....
....|..|C-4 AF.F ....|R-- .... ....|E-5 UFEA ....
 G-4|..|G-2 2A.F ....|--- .... ....|E-5 UFEA ....

[Pattern33]
....|..|C-4 AF.F ....|F-5 3FFF ....|F-5 UFEF ....
....|..|G-1 2F.A ....|A-3 6F2F ....|C-5 UFEF ....
....|..|C-4 AF.F ....|R-- .... ....|R-- .... ....
 F-3|..|F-1 2A.F ....|--- .... ....|--- .... ....
....|..|C-4 AF.F ....|C-6 3FFF ....|C-6 3FFF ....
....|..|C-4 AF.F ....|R-- .... ....|E-5 UFE7 ....
....|..|C-4 AF.F ....|F-5 3FFF ....|F-5 3FFF ....
 F-4|..|F-2 2A.F ....|A-3 6F2A ....|C-5 UFEA ....
....|..|C-4 AF.F ....|A-5 3FFF ....|A-5 3FFF ....
 F-3|..|F-1 2A.F ....|--- .... ....|--- .... ....
....|..|C-4 AF.F ....|R-- .... ....|R-- .... ....
 F-4|..|F-2 2A.F ....|--- .... ....|--- .... ....
....|..|C-4 AF.F ....|A-3 6F27 ....|F-5 UFE7 ....
....|..|C-4 AF.F ....|--- .... ....|C-5 UFE7 ....
....|..|C-4 AF.F ....|A-5 3FFF ....|A-5 3FFF ....
 F-4|..|F-2 2A.F ....|--- .... ....|--- .... ....
....|..|C-4 AF.F ....|C-6 3FFF ....|G-4 UFEF ....
 F-3|..|F-1 2A.F ....|--- .... ....|--- .... ....
....|..|C-4 AF.F ....|R-- .... ....|R-- .... ....
 F-4|..|F-2 2A.F ....|--- .... ....|--- .... ....
....|..|C-4 AF.F ....|--- .... ....|--- .... ....
....|..|F-2 2F.A ....|--- .... ....|--- .... ....
....|..|C-4 AF.F ....|F-5 3FFF ....|F-5 3FFF ....
 F-4|..|F-2 2A.F ....|--- .... ....|--- .... ....
....|..|C-4 AF.F ....|A-5 3FFF ....|A-5 3FFF ....
 F-3|..|F-1 2A.F ....|--- .... ....|--- .... ....
....|..|C-4 AF.F ....|R-- .... ....|R-- .... ....
 F-4|..|F-2 2A.F ....|--- .... ....|--- .... ....
....|..|C-4 AF.F ....|A-3 6F.F ....|A-4 UFEF ....
 F-4|..|F-2 2A.F ....|R-- .... ....|--- .... ....
....|..|C-4 AF.F ....|A-5 3FFF ....|A-5 3FFF ....
 F-4|..|F-2 2A.F ....|--- .... ....|R-- .... ....
....|..|C-4 AF.F ....|C-6 3FFF ....|B-4 UFEF ....
....|..|F-2 2F.A ....|G-3 6F3F ....|--- .... ....
....|..|C-4 AF.F ....|A-3 6F.A ....|R-- .... ....
 E-3|..|E-1 2A.F ....|R-- .... ....|--- .... ....
....|..|C-4 AF.F ....|--- .... ....|--- .... ....
 E-4|..|E-2 2A.F ....|--- .... ....|R-- .... ....
....|..|C-4 AF.F ....|E-5 3FFF ....|E-5 3FFF ....
 E-4|..|E-2 2A.F ....|G-3 6F3A ....|--- .... ....
....|..|C-4 AF.F ....|A-5 3FFF ....|D-4 UFEF ....
....|..|E-1 2F.A ....|A-3 6F.7 ....|--- .... ....
....|..|C-4 AF.F ....|R-- .... ....|R-- .... ....
 E-3|..|E-1 2A.F ....|--- .... ....|R-- .... ....
....|..|C-4 AF.F ....|G-3 6F37 ....|B-4 UFE7 ....
....|..|C-4 AF.F ....|--- .... ....|--- .... ....
....|..|C-4 AF.F ....|A-5 3FFF ....|A-5 3FFF ....
 E-4|..|E-2 2A.F ....|--- .... ....|--- .... ....
....|..|C-4 AF.F ....|B-5 3FFF ....|B-5 3FFF ....
 E-3|..|E-1 2A.F ....|F-3 6F3F ....|--- .... ....
....|..|C-4 AF.F ....|R-- .... ....|R-- .... ....
 E-4|..|E-2 2A.F ....|--- .... ....|--- .... ....
....|..|C-4 AF.F ....|--- .... ....|D-4 UFE7 ....
 E-4|..|E-2 2A.F ....|--- .... ....|--- .... ....
....|..|C-4 AF.F ....|E-5 3FFF ....|E-5 3FFF ....
 E-4|..|E-2 2A.F ....|F-3 6F3A ....|--- .... ....
....|..|C-4 AF.F ....|A-5 3FFF ....|E-4 UFEF ....
....|..|C-4 AF.F ....|--- .... ....|E-4 UFEF ....
....|..|C-4 AF.F ....|R-- .... ....|R-- .... ....
 E-3|..|E-1 2A.F ....|--- .... ....|--- .... ....
....|..|C-4 AF.F ....|F-3 6F37 ....|F-4 UFEF ....
....|..|E-2 2F.A ....|--- .... ....|--- .... ....
....|..|C-4 AF.F ....|A-5 3FFF ....|A-5 3FFF ....
 E-4|..|E-2 2A.F ....|--- .... ....|E-4 UFEA ....

[Pattern34]
....|..|C-4 AF.F ....|G-5 3FFF ....|E-5 UFEF ....
....|..|C-4 AF.F ....|C-4 6F1F ....|--- .... ....
....|..|C-4 AF.F ....|R-- .... ....|R-- .... ....
....|..|C-4 AF.F ....|--- .... ....|R-- .... ....
....|..|C-4 AF.F ....|--- .... ....|D-5 UFEF ....
....|..|E-2 2F.A ....|--- .... ....|E-4 UFE7 ....
....|..|C-4 AF.F ....|G-5 3FFF ....|G-5 3FFF ....
 C-3|..|C-3 2C.F ....|C-4 6F1A ....|R-- .... ....
....|..|C-4 AF.F ....|C-6 3FFF ....|E-5 UFEF ....
....|..|C-2 2F.A ....|--- .... ....|R-- .... ....
....|..|C-4 AF.F ....|R-- .... ....|R-- .... ....
 C-4|..|C-2 2A.F ....|--- .... ....|--- .... ....
....|..|C-4 AF.F ....|C-4 6F17 ....|E-5 UFE7 ....
....|..|C-3 2F.A ....|--- .... ....|R-- .... ....
....|..|C-4 AF.F ....|C-6 3FFF ....|C-6 3FFF ....
 C-3|..|C-3 2C.F ....|--- .... ....|R-- .... ....
....|..|C-4 AF.F ....|D-6 3FFF ....|E-5 UFEF ....
....|..|C-4 AF.F ....|--- .... ....|--- .... ....
....|..|C-4 AF.F ....|R-- .... ....|R-- .... ....
 C-3|..|C-3 2C.F ....|--- .... ....|R-- .... ....
....|..|C-4 AF.F ....|--- .... ....|D-5 UFEF ....
....|..|C-3 2F.A ....|--- .... ....|--- .... ....
....|..|C-4 AF.F ....|G-5 3FFF ....|G-5 3FFF ....
....|..|C-4 AF.F ....|--- .... ....|R-- .... ....
....|..|C-4 AF.F ....|C-6 3FFF ....|E-5 UFEF ....
....|..|C-3 2F.A ....|--- .... ....|R-- .... ....
....|..|C-4 AF.F ....|R-- .... ....|R-- .... ....
 C-4|..|C-2 2A.F ....|--- .... ....|--- .... ....
....|..|C-4 AF.F ....|--- .... ....|E-5 UFE7 ....
 C-3|..|C-3 2C.F ....|--- .... ....|R-- .... ....
....|..|C-4 AF.F ....|C-6 3FFF ....|C-6 3FFF ....
 C-3|..|C-3 2C.F ....|R-- .... ....|R-- .... ....
....|..|C-4 AF.F ....|D-6 3FFF ....|A-4 UFEF ....
....|..|C-2 2F.A ....|G-3 6F1F ....|--- .... ....
....|..|C-4 AF.F ....|R-- .... ....|R-- .... ....
 G-3|..|G-1 2A.F ....|--- .... ....|R-- .... ....
....|..|C-4 AF.F ....|R-- .... ....|E-5 UFE7 ....
 G-4|..|G-2 2A.F ....|--- .... ....|--- .... ....
....|..|C-4 AF.F ....|G-3 6F1A ....|A-4 UFEA ....
 G-4|..|G-2 2A.F ....|--- .... ....|--- .... ....
....|..|C-4 AF.F ....|--- .... ....|G-4 UFEF ....
....|..|G-1 2F.A ....|--- .... ....|--- .... ....
....|..|C-4 AF.F ....|R-- .... ....|--- .... ....
 G-3|..|G-1 2A.F ....|--- .... ....|--- .... ....
....|..|C-4 AF.F ....|G-3 6F17 ....|A-4 UFE7 ....
 G-4|..|G-2 2A.F ....|--- .... ....|--- .... ....
....|..|C-4 AF.F ....|--- .... ....|G-4 UFEA ....
....|..|C-4 AF.F ....|--- .... ....|--- .... ....
....|..|C-4 AF.F ....|--- .... ....|E-4 UFEF ....
 G-3|..|G-1 2A.F ....|--- .... ....|--- .... ....
....|..|C-4 AF.F ....|--- .... ....|--- .... ....
 G-4|..|G-2 2A.F ....|--- .... ....|--- .... ....
....|..|C-4 AF.F ....|--- .... ....|G-4 UFE7 ....
 G-4|..|G-2 2A.F ....|--- .... ....|--- .... ....
....|..|C-4 AF.F ....|--- .... ....|E-4 UFEA ....
 G-4|..|G-2 2A.F ....|--- .... ....|--- .... ....
....|..|C-4 AF.F ....|--- .... ....|F-4 UFEF ....
....|..|G-2 2F.A ....|--- .... ....|--- .... ....
....|..|C-4 AF.F ....|--- .... ....|R-- .... ....
 G-3|..|G-1 2A.F ....|--- .... ....|--- .... ....
....|..|C-4 AF.F ....|--- .... ....|E-4 UFE7 ....
 G-4|..|G-2 2A.F ....|--- .... ....|--- .... ....
....|..|C-4 AF.F ....|R-- .... ....|F-4 UFEA ....
 G-4|..|G-2 2A.F ....|--- .... ....|--- .... ....

[Pattern35]
....|..|C-4 AF.F ....|F-5 3FFF ....|C-5 UFEF ....
....|..|G-1 2F.A ....|A-3 6F2F ....|--- .... ....
....|..|C-4 AF.F ....|R-- .... ....|R-- .... ....
 F-3|..|F-1 2A.F ....|--- .... ....|--- .... ....
....|..|C-4 AF.F ....|R-- .... ....|F-4 UFE7 ....
....|..|C-4 AF.F ....|--- .... ....|--- .... ....
....|..|C-4 AF.F ....|F-5 3FFF ....|F-5 3FFF ....
 F-4|..|F-2 2A.F ....|A-3 6F2A ....|--- .... ....
....|..|C-4 AF.F ....|A-5 3FFF ....|B-4 UFEF ....
 F-3|..|F-1 2A.F ....|--- .... ....|--- .... ....
....|..|C-4 AF.F ....|R-- .... ....|R-- .... ....
 F-4|..|F-2 2A.F ....|--- .... ....|--- .... ....
....|..|C-4 AF.F ....|A-3 6F27 ....|C-5 UFE7 ....
....|..|C-4 AF.F ....|--- .... ....|--- .... ....
....|..|C-4 AF.F ....|A-5 3FFF ....|A-5 3FFF ....
 F-4|..|F-2 2A.F ....|--- .... ....|--- .... ....
....|..|C-4 AF.F ....|C-6 3FFF ....|D-4 UFEF ....
 F-3|..|F-1 2A.F ....|--- .... ....|--- .... ....
....|..|C-4 AF.F ....|R-- .... ....|R-- .... ....
 F-4|..|F-2 2A.F ....|--- .... ....|--- .... ....
....|..|C-4 AF.F ....|--- .... ....|B-4 UFE7 ....
....|..|F-2 2F.A ....|--- .... ....|--- .... ....
....|..|C-4 AF.F ....|F-5 3FFF ....|F-5 3FFF ....
 F-4|..|F-2 2A.F ....|--- .... ....|--- .... ....
....|..|C-4 AF.F ....|A-5 3FFF ....|E-4 UFEF ....
 F-3|..|F-1 2A.F ....|--- .... ....|--- .... ....
....|..|C-4 AF.F ....|R-- .... ....|R-- .... ....
 F-4|..|F-2 2A.F ....|--- .... ....|--- .... ....
....|..|C-4 AF.F ....|A-3 6F.F ....|D-4 UFE7 ....
 F-4|..|F-2 2A.F ....|R-- .... ....|--- .... ....
....|..|C-4 AF.F ....|A-5 3FFF ....|A-5 3FFF ....
 F-4|..|F-2 2A.F ....|--- .... ....|--- .... ....
....|..|C-4 AF.F ....|C-6 3FFF ....|A-4 UFEF ....
....|..|F-2 2F.A ....|G-3 6F3F ....|--- .... ....
....|..|C-4 AF.F ....|A-3 6F.A ....|R-- .... ....
 E-3|..|E-1 2A.F ....|R-- .... ....|--- .... ....
....|..|C-4 AF.F ....|--- .... ....|E-4 UFE7 ....
 E-4|..|E-2 2A.F ....|--- .... ....|--- .... ....
....|..|C-4 AF.F ....|E-5 3FFF ....|E-5 3FFF ....
 E-4|..|E-2 2A.F ....|G-3 6F3A ....|--- .... ....
....|..|C-4 AF.F ....|A-5 3FFF ....|G-4 UFEF ....
....|..|E-1 2F.A ....|A-3 6F.7 ....|--- .... ....
....|..|C-4 AF.F ....|R-- .... ....|R-- .... ....
 E-3|..|E-1 2A.F ....|--- .... ....|--- .... ....
....|..|C-4 AF.F ....|G-3 6F37 ....|A-4 UFE7 ....
....|..|C-4 AF.F ....|--- .... ....|--- .... ....
....|..|C-4 AF.F ....|A-5 3FFF ....|A-5 3FFF ....
 E-4|..|E-2 2A.F ....|--- .... ....|--- .... ....
....|..|C-4 AF.F ....|B-5 3FFF ....|D-4 UFEF ....
 E-3|..|E-1 2A.F ....|F-3 6F3F ....|--- .... ....
....|..|C-4 AF.F ....|R-- .... ....|R-- .... ....
 E-4|..|E-2 2A.F ....|--- .... ....|--- .... ....
....|..|C-4 AF.F ....|--- .... ....|G-4 UFE7 ....
 E-4|..|E-2 2A.F ....|--- .... ....|--- .... ....
....|..|C-4 AF.F ....|E-5 3FFF ....|E-5 3FFF ....
 E-4|..|E-2 2A.F ....|F-3 6F3A ....|--- .... ....
....|..|C-4 AF.F ....|A-5 3FFF ....|C-4 UFEF ....
....|..|C-4 AF.F ....|--- .... ....|--- .... ....
....|..|C-4 AF.F ....|R-- .... ....|R-- .... ....
 E-3|..|E-1 2A.F ....|--- .... ....|--- .... ....
....|..|C-4 AF.F ....|F-3 6F37 ....|D-4 UFE7 ....
....|..|E-2 2F.A ....|--- .... ....|--- .... ....
....|..|C-4 AF.F ....|A-5 3FFF ....|A-5 3FFF ....
 E-4|..|E-2 2A.F ....|--- .... ....|--- .... ....

[Pattern40]
....|..|--- .... ....|R-- .... ....|--- .... ....
....|..|--- .... ....|--- .... ....|--- .... ....
....|..|R-- .... ....|--- .... ....|--- .... ....
....|..|--- .... ....|--- .... ....|--- .... ....
....|..|C-2 2F.7 ....|--- .... ....|--- .... ....
....|..|--- .... ....|--- .... ....|--- .... ....
....|..|--- .... ....|R-- .... ....|--- .... ....
....|..|--- .... ....|--- .... ....|--- .... ....
....|..|--- .... ....|--- .... ....|--- .... ....
....|..|--- .... ....|--- .... ....|--- .... ....
....|..|R-- .... ....|--- .... ....|--- .... ....
....|..|--- .... ....|--- .... ....|--- .... ....
