[Module]
VortexTrackerII=0
Version=3.5
Title=1d-2me-3p-4p+,5m-12me+-9me,13me-11m+-8p+-7me-4p+-2me+
Author=oisee ^ 4d 29.05.2010
NoteTable=4
ChipFreq=1750000
Speed=3
PlayOrder=L0,1,1,3,4,5,6,7,8,9,10,11,12,13,14,15,16,17,18,19,10,11,22,23,24,25

[Ornament1]
L0,0,3,3,5,5,8,8

[Ornament2]
L0,0,3,3,8,8

[Ornament3]
L0,0,3,3,6,6,8,8

[Ornament4]
L0,0,5,5,7,7

[Ornament5]
L0,0,3,3,5,5,10,10

[Ornament6]
L0,0,3,3,5,5

[Ornament7]
L0,0,2,2

[Ornament8]
L0,0,2,2,7,7

[Ornament9]
L0,0,4,4,9,9

[Ornament10]
L0,0,5,5

[Ornament11]
L0,0,3,3,5,5,7,7

[Ornament12]
L0

[Ornament13]
L0

[Ornament14]
L0

[Ornament15]
L0

[Sample1]
TnE +000_ +00_ F_
TnE +000_ +00_ F_
TnE +000_ +00_ F_
TnE +000_ +00_ D_
TnE +000_ +00_ B_
TnE +000_ +00_ B_ L

[Sample2]
TnE +000_ +00_ F_ L

[Sample3]
TnE +001_ +00_ F_
TnE +002_ +00_ F_
TnE +001_ +00_ E_
TnE +002_ +00_ E_
TnE +000_ +00_ E_ L
TnE -001_ +00_ E_
TnE -002_ +00_ E_
TnE -001_ +00_ E_
TnE +000_ +00_ E_
TnE +001_ +00_ E_
TnE +002_ +00_ E_
TnE +001_ +00_ E_

[Sample4]
TnE +002_ +00_ D_
TnE +002_ +00_ D_
TnE +002_ +00_ C_
TnE +002_ +00_ B_
TnE +002_ +00_ A_ L
TnE +002_ +00_ A_
TnE +002_ +00_ A_
TnE +002_ +00_ A_
TnE +002_ +00_ A_
TnE +002_ +00_ A_
TnE +002_ +00_ A_
TnE +002_ +00_ A_

[Sample5]
TnE +000_ +00_ F_
TnE +000_ +00_ F_
tne +000_ +00_ 0_ L

[Sample6]
TnE -001_ +00_ F_ L

[Sample7]
TnE +006_ +00_ F_ L

[Sample8]
tNe +000_ +00_ F_
tNe +000_ +00_ B_
tNe +000_ +00_ 7_
tNe +000_ +00_ 6- L

[Sample9]
TnE +080_ +00_ F_
TnE +100_ +00_ E_
TnE +180_ +00_ E_
TnE +200_ +00_ E_
TnE +240_ +00_ D_
TnE +280_ +00_ D_
TnE +2C0_ +00_ D_
TnE +300_ +00_ C_
TnE +300_ +00_ C_
TnE +340_ +00_ C_
TnE +340_ +00_ C_
TnE +380_ +00_ B_
TnE +380_ +00_ B_
TnE +400_ +00_ B_
TnE +400_ +00_ B_
TnE +480_ +00_ A_
TnE +500_ +00_ 9_
TnE +580_ +00_ 7_
TnE +600_ +00_ 4_
TnE +680_ +00_ 1_
TnE +000_ +00_ 0_ L

[Sample10]
Tne +1C0_ +00_ F_
Tne +280_ +00_ E_
Tne +380_ +00_ C_
Tne +440_ +00_ A_
Tne +480_ +00_ 8_
TnE +000_ +00_ 0_ L

[Sample11]
TNe +200_ -0A_ F_
tNe +000_ +0F_ A_
TNe +200_ -07_ E_
tNe +000_ +0E_ B- L

[Sample12]
TNE +0A0_ +05_ F_
TNE +140_ +02_ D_
TNE +140_ +02_ B_
TNE +100_ +00_ A_ L
TNE +140_ +00_ A_
TNE +200_ +00_ A-

[Sample13]
Tne +200_ +00_ F_
Tne +2C0_ +00_ F_
Tne +380_ +00_ E_
Tne +500_ +00_ C_
Tne +520_ +00_ 9_
tne +000_ +00_ 0_ L

[Sample14]
TNE -100_ +00_ F_
TNE -100_ +00_ D_
TNE -100_ +00_ A_
TNE -100_ +00_ 5_
tne +000_ +00_ 0_ L

[Sample15]
TNE -100_ +00_ 5_
TNE -100_ +00_ 8_
TNE -100_ +00_ B_
TNE -100_ +00_ F_
TNe -100_ +00_ 9- L

[Sample16]
TnE +000_ +00_ C_
TnE +000_ +00_ E_
TnE +000_ +00_ F_
TnE +000_ +00_ F_
TnE +000_ +00_ E_
TnE +000_ +00_ D_
TnE +000_ +00_ C_
TnE +000_ +00_ C_ L
TnE +001_ +00_ C_
TnE +002_ +00_ C_
TnE +003_ +00_ C_
TnE +001_ +00_ C_
TnE +000_ +00_ C_
TnE -001_ +00_ C_
TnE -002_ +00_ C_
TnE -003_ +00_ C_
TnE -001_ +00_ C_
TnE +000_ +00_ C_
TnE +000_ +00_ C_

[Sample17]
Tne +1C0_ +00_ F_
Tne +280_ +00_ D_
Tne +380_ +00_ 7_
TNE +000_ +00_ 0_ L

[Sample18]
TnE -00C_ +00_ 0_ L

[Sample19]
TNe +000_ +00_ F_
TNe +000_ +00_ C_
TNe +000_ +00_ 6_
TNe +000_ +01_ A- L

[Sample20]
TNE +140_ +00_ F_
tNE +000_ +00_ B- L

[Sample21]
tNE +000_ +00_ D_
tNE +000_ +00_ 8_
tNE +000_ +00_ 1_
TNE +000_ +00_ 0_ L

[Sample22]
TnE +000_ +00_ D_ L
TnE +000_ +00_ D_
tne +000_ +00_ 9_
tne +000_ +00_ 9_
TnE +000_ +00_ D_
TnE +000_ +00_ D_
tne +000_ +00_ 9_
tne +000_ +00_ 9_
TnE +000_ +00_ D_
TnE +000_ +00_ D_
TnE +000_ +00_ D_
TnE +000_ +00_ D_
TnE +000_ +00_ D_
TnE +000_ +00_ D_
tne +000_ +00_ 9_
tne +000_ +00_ 9_

[Sample23]
TnE +000_ +00_ F_ L
TnE +010_ +01_ F_
TnE +010_ +01_ F_
TnE +010_ +01_ F_
TnE +010_ +01_ F_
TnE +000_ +00_ F_
TnE +000_ +00_ F_
TnE -010_ -01_ F_
TnE -010_ -01_ F_
TnE -010_ -01_ F_
TnE -010_ -01_ F_
TnE +000_ +00_ F_

[Sample24]
TNe +000_ -01_ C_
TNe +000_ -01_ D_
TNe +000_ -01_ E_
TNe +000_ -01_ F_
TNe +000_ -01_ F_
TNe +000_ -01_ F_
TNe +000_ -01_ F_
TNe +000_ -01_ F_
TNe +000_ -01_ E_
TNe +000_ -01_ E_
TNe +000_ -01_ E_
TNe +000_ -01_ F_
TNe +000_ -01_ F_ L

[Sample25]
TNE +000_ +00_ F_
TNE +000_ +00_ F_ L
TNE +000_ +00_ F_
TNE +000_ +00_ F_
TNE +000_ +00_ F-

[Sample26]
tne +000_ +00_ 0_ L

[Sample27]
TnE +100_ +05_ F_
TnE +200_ +02_ A_
TnE +300_ +02_ 7_
TNE +400_ +00_ 3- L

[Sample28]
tne +000_ +00_ 0_ L

[Sample29]
tnE +000_ +00_ 0_ L

[Sample30]
TNE +000_ +00_ C+ L

[Sample31]
TNe +1C0_ +00_ F_
Tne +280_ +00_ E_
Tne +380_ +00_ C_
Tne +440_ +00_ A_
Tne +480_ +00_ 8_
TnE +000_ +00_ 0_ L

[Pattern0]
....|..|C-4 AF.F ....|--- .... ....|F-5 2F.F ....
 D-4|..|D-2 2A.F ....|--- .... ....|R-- .... ....
....|..|A-4 2F1F ....|--- .... ....|D-5 2F.F ....
....|..|--- .... ....|--- .... ....|--- .... ....
 D-4|..|B-8 JF.F ....|D-2 2A.F ....|--- .... ....
....|..|--- .... ....|--- .... ....|--- .... ....
....|..|--- .... ....|--- .... ....|G-5 2F.F ....
....|..|--- .... ....|--- .... ....|G-5 2F.F ....
....|..|C-4 AF.F ....|--- .... ....|--- .... ....
....|..|--- .... ....|--- .... ....|--- .... ....
....|..|--- .... ....|--- .... ....|--- .... ....
....|..|--- .... ....|--- .... ....|--- .... ....
....|..|B-8 JF.F ....|--- .... ....|D-5 2F.F ....
....|..|D-2 2F.A ....|--- .... ....|R-- .... ....
....|..|R-- .... ....|--- .... ....|R-- .... ....
....|..|--- .... ....|--- .... ....|--- .... ....
....|..|C-4 AF.F ....|R-- .... ....|F-5 2F.F ....
 D-4|..|D-2 2A.F ....|--- .... ....|R-- .... ....
....|..|--- .... ....|--- .... ....|D-5 2F.F ....
....|..|--- .... ....|--- .... ....|G-5 2F.A ....
 D-4|..|B-8 JF.F ....|D-2 2A.F ....|--- .... ....
....|..|--- .... ....|--- .... ....|--- .... ....
....|..|--- .... ....|--- .... ....|G-5 2F.F ....
....|..|--- .... ....|--- .... ....|--- .... ....
....|..|C-4 AF.F ....|--- .... ....|F-5 2F.7 ....
....|..|D-2 2F.7 ....|--- .... ....|R-- .... ....
....|..|A-4 2F17 ....|--- .... ....|D-5 2F.7 ....
....|..|--- .... ....|--- .... ....|R-- .... ....
....|..|B-8 JF.F ....|D-2 2F.7 ....|D-5 2F.F ....
....|..|D-2 2F.A ....|--- .... ....|R-- .... ....
....|..|R-- .... ....|--- .... ....|G-5 2F.7 ....
....|..|--- .... ....|--- .... ....|G-5 2F.7 ....
....|..|C-4 AF.F ....|R-- .... ....|F-5 2F.F ....
 D-4|..|D-2 2A.F ....|--- .... ....|--- .... ....
....|..|--- .... ....|--- .... ....|D-5 2F.F ....
....|..|--- .... ....|--- .... ....|--- .... ....
 D-4|..|B-8 JF.F ....|D-2 2A.F ....|D-5 2F.7 ....
....|..|--- .... ....|--- .... ....|R-- .... ....
....|..|R-- .... ....|--- .... ....|G-5 2F.F ....
....|..|--- .... ....|--- .... ....|R-- .... ....
....|..|C-4 AF.F ....|R-- .... ....|F-5 2F.7 ....
....|..|D-2 2F.7 ....|--- .... ....|R-- .... ....
....|..|R-- .... ....|--- .... ....|D-5 2F.7 ....
....|..|--- .... ....|--- .... ....|R-- .... ....
....|..|B-8 JF.F ....|D-2 2F.7 ....|D-5 2F.F ....
....|..|D-2 2F.A ....|--- .... ....|R-- .... ....
....|..|R-- .... ....|--- .... ....|G-5 2F.7 ....
....|..|--- .... ....|--- .... ....|--- .... ....
....|..|C-4 AF.F ....|R-- .... ....|F-5 2F.F ....
 D-4|..|D-2 2A.F ....|--- .... ....|R-- .... ....
....|..|--- .... ....|--- .... ....|D-5 2F.F ....
....|..|--- .... ....|--- .... ....|R-- .... ....
 D-4|..|B-8 JF.F ....|D-2 2A.F ....|D-5 2F.7 ....
....|..|--- .... ....|--- .... ....|R-- .... ....
....|..|R-- .... ....|--- .... ....|G-5 2F.F ....
....|..|--- .... ....|--- .... ....|R-- .... ....
....|..|C-4 AF.F ....|R-- .... ....|F-5 2F.7 ....
....|..|D-2 2F.7 ....|--- .... ....|R-- .... ....
....|..|R-- .... ....|--- .... ....|D-5 2F.7 ....
....|..|--- .... ....|--- .... ....|--- .... ....
....|..|B-8 JF.F ....|D-2 2F.7 ....|D-5 2F.F ....
....|..|D-2 2F.A ....|--- .... ....|R-- .... ....
....|..|R-- .... ....|--- .... ....|G-5 2F.7 ....
....|..|--- .... ....|--- .... ....|--- .... ....
....|..|C-4 AF.F ....|R-- .... ....|F-5 2F.F ....
 A#3|..|A#1 2A.F ....|--- .... ....|R-- .... ....
....|..|A-4 2F1F ....|--- .... ....|D-5 2F.F ....
....|..|--- .... ....|--- .... ....|R-- .... ....
 A#3|..|B-8 JF.F ....|A#1 2A.F ....|D-5 2F.7 ....
....|..|--- .... ....|--- .... ....|R-- .... ....
....|..|R-- .... ....|--- .... ....|G-5 2F.F ....
....|..|--- .... ....|--- .... ....|G-5 2F.F ....
....|..|C-4 AF.F ....|R-- .... ....|F-5 2F.7 ....
....|..|D-2 2F.7 ....|--- .... ....|R-- .... ....
....|..|R-- .... ....|--- .... ....|D-5 2F.7 ....
....|..|--- .... ....|--- .... ....|--- .... ....
....|..|B-8 JF.F ....|D-2 2F.7 ....|D-5 2F.F ....
....|..|A#1 2F.A ....|--- .... ....|R-- .... ....
....|..|R-- .... ....|--- .... ....|G-5 2F.7 ....
....|..|--- .... ....|--- .... ....|--- .... ....
....|..|C-4 AF.F ....|R-- .... ....|F-5 2F.F ....
 A#3|..|A#1 2A.F ....|--- .... ....|R-- .... ....
....|..|--- .... ....|--- .... ....|D-5 2F.F ....
....|..|--- .... ....|--- .... ....|G-5 2F.A ....
 A#3|..|B-8 JF.F ....|A#1 2A.F ....|D-5 2F.7 ....
....|..|--- .... ....|--- .... ....|R-- .... ....
....|..|R-- .... ....|--- .... ....|G-5 2F.F ....
....|..|--- .... ....|--- .... ....|--- .... ....
....|..|C-4 AF.F ....|R-- .... ....|F-5 2F.7 ....
....|..|A#1 2F.7 ....|--- .... ....|R-- .... ....
....|..|A-4 2F17 ....|--- .... ....|D-5 2F.7 ....
....|..|--- .... ....|--- .... ....|R-- .... ....
....|..|B-8 JF.F ....|A#1 2F.7 ....|D-5 2F.F ....
....|..|A#1 2F.A ....|--- .... ....|R-- .... ....
....|..|R-- .... ....|--- .... ....|G-5 2F.7 ....
....|..|--- .... ....|--- .... ....|G-5 2F.7 ....
....|..|C-4 AF.F ....|R-- .... ....|F-5 2F.F ....
 A#3|..|A#1 2A.F ....|--- .... ....|--- .... ....
....|..|--- .... ....|--- .... ....|D-5 2F.F ....
....|..|--- .... ....|--- .... ....|--- .... ....
 A#3|..|B-8 JF.F ....|A#1 2A.F ....|D-5 2F.7 ....
....|..|--- .... ....|--- .... ....|R-- .... ....
....|..|R-- .... ....|--- .... ....|G-5 2F.F ....
....|..|--- .... ....|--- .... ....|R-- .... ....
....|..|C-4 AF.F ....|R-- .... ....|F-5 2F.7 ....
....|..|A#1 2F.7 ....|--- .... ....|R-- .... ....
....|..|R-- .... ....|--- .... ....|D-5 2F.7 ....
....|..|--- .... ....|--- .... ....|R-- .... ....
....|..|B-8 JF.F ....|A#1 2F.7 ....|D-5 2F.F ....
....|..|A#1 2F.A ....|--- .... ....|R-- .... ....
....|..|R-- .... ....|--- .... ....|G-5 2F.7 ....
....|..|--- .... ....|--- .... ....|--- .... ....
....|..|C-4 AF.F ....|R-- .... ....|F-5 2F.F ....
 A#3|..|A#1 2A.F ....|--- .... ....|R-- .... ....
....|..|--- .... ....|--- .... ....|D-5 2F.F ....
....|..|--- .... ....|--- .... ....|R-- .... ....
 A#3|..|B-8 JF.F ....|A#1 2A.F ....|D-5 2F.7 ....
....|..|--- .... ....|--- .... ....|R-- .... ....
....|..|R-- .... ....|--- .... ....|G-5 2F.F ....
....|..|--- .... ....|--- .... ....|R-- .... ....
....|..|C-4 AF.F ....|R-- .... ....|F-5 2F.7 ....
....|..|A#1 2F.7 ....|--- .... ....|R-- .... ....
....|..|R-- .... ....|--- .... ....|D-5 2F.7 ....
....|..|--- .... ....|--- .... ....|--- .... ....
....|..|B-8 JF.F ....|A#1 2F.7 ....|D-5 2F.F ....
....|..|A#1 2F.A ....|--- .... ....|R-- .... ....
....|..|R-- .... ....|--- .... ....|G-5 2F.7 ....
....|..|--- .... ....|--- .... ....|--- .... ....

[Pattern1]
....|..|C-4 AF.F ....|R-- .... ....|F-5 2F.F ....
 D-4|..|D-2 2A.F ....|--- .... ....|R-- .... ....
....|..|A-4 2F1F ....|--- .... ....|D-5 2F.F ....
....|..|--- .... ....|--- .... ....|R-- .... ....
 D-4|..|B-8 JF.F ....|D-2 2A.F ....|D-5 2F.7 ....
....|..|--- .... ....|--- .... ....|R-- .... ....
....|..|R-- .... ....|--- .... ....|G-5 2F.F ....
....|..|--- .... ....|--- .... ....|G-5 2F.F ....
....|..|C-4 AF.F ....|R-- .... ....|F-5 2F.7 ....
....|..|A#1 2F.7 ....|--- .... ....|R-- .... ....
....|..|R-- .... ....|--- .... ....|D-5 2F.7 ....
....|..|--- .... ....|--- .... ....|--- .... ....
....|..|B-8 JF.F ....|A#1 2F.7 ....|D-5 2F.F ....
....|..|D-2 2F.A ....|--- .... ....|R-- .... ....
....|..|R-- .... ....|--- .... ....|G-5 2F.7 ....
....|..|--- .... ....|--- .... ....|--- .... ....
....|..|C-4 AF.F ....|R-- .... ....|F-5 2F.F ....
 D-4|..|D-2 2A.F ....|--- .... ....|R-- .... ....
....|..|--- .... ....|--- .... ....|D-5 2F.F ....
....|..|--- .... ....|--- .... ....|G-5 2F.A ....
 D-4|..|B-8 JF.F ....|D-2 2A.F ....|D-5 2F.7 ....
....|..|--- .... ....|--- .... ....|R-- .... ....
....|..|R-- .... ....|--- .... ....|G-5 2F.F ....
....|..|--- .... ....|--- .... ....|--- .... ....
....|..|C-4 AF.F ....|R-- .... ....|F-5 2F.7 ....
....|..|D-2 2F.7 ....|--- .... ....|R-- .... ....
....|..|A-4 2F17 ....|--- .... ....|D-5 2F.7 ....
....|..|--- .... ....|--- .... ....|R-- .... ....
....|..|B-8 JF.F ....|D-2 2F.7 ....|D-5 2F.F ....
....|..|D-2 2F.A ....|--- .... ....|R-- .... ....
....|..|R-- .... ....|--- .... ....|G-5 2F.7 ....
....|..|--- .... ....|--- .... ....|G-5 2F.7 ....
....|..|C-4 AF.F ....|R-- .... ....|F-5 2F.F ....
 D-4|..|D-2 2A.F ....|--- .... ....|--- .... ....
....|..|--- .... ....|--- .... ....|D-5 2F.F ....
....|..|--- .... ....|--- .... ....|--- .... ....
 D-4|..|B-8 JF.F ....|D-2 2A.F ....|D-5 2F.7 ....
....|..|--- .... ....|--- .... ....|R-- .... ....
....|..|R-- .... ....|--- .... ....|G-5 2F.F ....
....|..|--- .... ....|--- .... ....|R-- .... ....
....|..|C-4 AF.F ....|R-- .... ....|F-5 2F.7 ....
....|..|D-2 2F.7 ....|--- .... ....|R-- .... ....
....|..|R-- .... ....|--- .... ....|D-5 2F.7 ....
....|..|--- .... ....|--- .... ....|R-- .... ....
....|..|B-8 JF.F ....|D-2 2F.7 ....|D-5 2F.F ....
....|..|D-2 2F.A ....|--- .... ....|R-- .... ....
....|..|R-- .... ....|--- .... ....|G-5 2F.7 ....
....|..|--- .... ....|--- .... ....|--- .... ....
....|..|C-4 AF.F ....|R-- .... ....|F-5 2F.F ....
 D-4|..|D-2 2A.F ....|--- .... ....|R-- .... ....
....|..|--- .... ....|--- .... ....|D-5 2F.F ....
....|..|--- .... ....|--- .... ....|R-- .... ....
 D-4|..|B-8 JF.F ....|D-2 2A.F ....|D-5 2F.7 ....
....|..|--- .... ....|--- .... ....|R-- .... ....
....|..|R-- .... ....|--- .... ....|G-5 2F.F ....
....|..|--- .... ....|--- .... ....|R-- .... ....
....|..|C-4 AF.F ....|R-- .... ....|F-5 2F.7 ....
....|..|D-2 2F.7 ....|--- .... ....|R-- .... ....
....|..|R-- .... ....|--- .... ....|D-5 2F.7 ....
....|..|--- .... ....|--- .... ....|--- .... ....
....|..|B-8 JF.F ....|D-2 2F.7 ....|D-5 2F.F ....
....|..|D-2 2F.A ....|--- .... ....|R-- .... ....
....|..|R-- .... ....|--- .... ....|G-5 2F.7 ....
....|..|--- .... ....|--- .... ....|--- .... ....
....|..|C-4 AF.F ....|R-- .... ....|F-5 2F.F ....
 A#3|..|A#1 2A.F ....|--- .... ....|R-- .... ....
....|..|A-4 2F1F ....|--- .... ....|D-5 2F.F ....
....|..|--- .... ....|--- .... ....|R-- .... ....
 A#3|..|B-8 JF.F ....|A#1 2A.F ....|D-5 2F.7 ....
....|..|--- .... ....|--- .... ....|R-- .... ....
....|..|R-- .... ....|--- .... ....|G-5 2F.F ....
....|..|--- .... ....|--- .... ....|G-5 2F.F ....
....|..|C-4 AF.F ....|R-- .... ....|F-5 2F.7 ....
....|..|D-2 2F.7 ....|--- .... ....|R-- .... ....
....|..|R-- .... ....|--- .... ....|D-5 2F.7 ....
....|..|--- .... ....|--- .... ....|--- .... ....
....|..|B-8 JF.F ....|D-2 2F.7 ....|D-5 2F.F ....
....|..|A#1 2F.A ....|--- .... ....|R-- .... ....
....|..|R-- .... ....|--- .... ....|G-5 2F.7 ....
....|..|--- .... ....|--- .... ....|--- .... ....
....|..|C-4 AF.F ....|R-- .... ....|F-5 2F.F ....
 A#3|..|A#1 2A.F ....|--- .... ....|R-- .... ....
....|..|--- .... ....|--- .... ....|D-5 2F.F ....
....|..|--- .... ....|--- .... ....|G-5 2F.A ....
 A#3|..|B-8 JF.F ....|A#1 2A.F ....|D-5 2F.7 ....
....|..|--- .... ....|--- .... ....|R-- .... ....
....|..|R-- .... ....|--- .... ....|G-5 2F.F ....
....|..|--- .... ....|--- .... ....|--- .... ....
....|..|C-4 AF.F ....|R-- .... ....|F-5 2F.7 ....
....|..|A#1 2F.7 ....|--- .... ....|R-- .... ....
....|..|A-4 2F17 ....|--- .... ....|D-5 2F.7 ....
....|..|--- .... ....|--- .... ....|R-- .... ....
....|..|B-8 JF.F ....|A#1 2F.7 ....|D-5 2F.F ....
....|..|A#1 2F.A ....|--- .... ....|R-- .... ....
....|..|R-- .... ....|--- .... ....|G-5 2F.7 ....
....|..|--- .... ....|--- .... ....|G-5 2F.7 ....
....|..|C-4 AF.F ....|R-- .... ....|F-5 2F.F ....
 A#3|..|A#1 2A.F ....|--- .... ....|--- .... ....
....|..|--- .... ....|--- .... ....|D-5 2F.F ....
....|..|--- .... ....|--- .... ....|--- .... ....
 A#3|..|B-8 JF.F ....|A#1 2A.F ....|D-5 2F.7 ....
....|..|--- .... ....|--- .... ....|R-- .... ....
....|..|R-- .... ....|--- .... ....|G-5 2F.F ....
....|..|--- .... ....|--- .... ....|R-- .... ....
....|..|C-4 AF.F ....|R-- .... ....|F-5 2F.7 ....
....|..|A#1 2F.7 ....|--- .... ....|R-- .... ....
....|..|R-- .... ....|--- .... ....|D-5 2F.7 ....
....|..|--- .... ....|--- .... ....|R-- .... ....
....|..|B-8 JF.F ....|A#1 2F.7 ....|D-5 2F.F ....
....|..|A#1 2F.A ....|--- .... ....|R-- .... ....
....|..|R-- .... ....|--- .... ....|G-5 2F.7 ....
....|..|--- .... ....|--- .... ....|--- .... ....
....|..|C-4 AF.F ....|R-- .... ....|F-5 2F.F ....
 A#3|..|A#1 2A.F ....|--- .... ....|R-- .... ....
....|..|--- .... ....|--- .... ....|D-5 2F.F ....
....|..|--- .... ....|--- .... ....|R-- .... ....
 A#3|..|B-8 JF.F ....|A#1 2A.F ....|D-5 2F.7 ....
....|..|--- .... ....|--- .... ....|R-- .... ....
....|..|R-- .... ....|--- .... ....|G-5 2F.F ....
....|..|--- .... ....|--- .... ....|R-- .... ....
....|..|C-4 AF.F ....|R-- .... ....|F-5 2F.7 ....
....|..|A#1 2F.7 ....|--- .... ....|R-- .... ....
....|..|R-- .... ....|--- .... ....|D-5 2F.7 ....
....|..|--- .... ....|--- .... ....|--- .... ....
....|..|B-8 JF.F ....|A#1 2F.7 ....|D-5 2F.F ....
....|..|A#1 2F.A ....|--- .... ....|R-- .... ....
....|..|R-- .... ....|--- .... ....|G-5 2F.7 ....
....|..|--- .... ....|--- .... ....|--- .... ....

[Pattern3]
....|..|C-4 AF.F ....|D-4 2F.F ....|F-5 2F.F ....
....|..|A-4 2F1F ....|--- .... ....|R-- .... ....
....|..|--- .... ....|--- .... ....|D-5 2F.F ....
....|..|--- .... ....|--- .... ....|R-- .... ....
....|..|B-8 JF.F ....|E-4 2F.F ....|D-5 2F.7 ....
....|..|--- .... ....|E-4 2F.F ....|R-- .... ....
....|..|R-- .... ....|--- .... ....|G-5 2F.F ....
....|..|--- .... ....|--- .... ....|G-5 2F.F ....
....|..|C-4 AF.F ....|R-- .... ....|F-5 2F.7 ....
....|..|A#1 2F.7 ....|--- .... ....|R-- .... ....
....|..|R-- .... ....|--- .... ....|D-5 2F.7 ....
....|..|--- .... ....|R-- .... ....|--- .... ....
....|..|B-8 JF.F ....|F-4 2F.F ....|D-5 2F.F ....
....|..|A-4 2F1A ....|--- .... ....|R-- .... ....
....|..|--- .... ....|--- .... ....|G-5 2F.7 ....
....|..|--- .... ....|--- .... ....|--- .... ....
....|..|C-4 AF.F ....|E-4 2F.A ....|F-5 2F.F ....
....|..|--- .... ....|E-4 2F.A ....|R-- .... ....
....|..|--- .... ....|--- .... ....|D-5 2F.F ....
....|..|--- .... ....|R-- .... ....|G-5 2F.A ....
....|..|B-8 JF.F ....|E-4 2F.F ....|D-5 2F.7 ....
....|..|--- .... ....|--- .... ....|R-- .... ....
....|..|R-- .... ....|--- .... ....|G-5 2F.F ....
....|..|--- .... ....|R-- .... ....|--- .... ....
....|..|C-4 AF.F ....|D-4 2F.7 ....|F-5 2F.7 ....
....|..|A-4 2F17 ....|--- .... ....|R-- .... ....
....|..|--- .... ....|--- .... ....|D-5 2F.7 ....
....|..|--- .... ....|--- .... ....|R-- .... ....
....|..|C-3 RF.F ....|E-4 2F.7 ....|D-5 2F.F ....
....|..|--- .... ....|E-4 2F.7 ....|R-- .... ....
....|..|--- .... ....|--- .... ....|G-5 2F.7 ....
....|..|--- .... ....|R-- .... ....|G-5 2F.7 ....
....|..|C-4 AF.F ....|D-4 2F.F ....|F-5 2F.F ....
....|..|--- .... ....|--- .... ....|--- .... ....
....|..|--- .... ....|--- .... ....|D-5 2F.F ....
....|..|--- .... ....|R-- .... ....|--- .... ....
....|..|B-8 JF.F ....|F-4 2F.7 ....|D-5 2F.7 ....
....|..|--- .... ....|--- .... ....|R-- .... ....
....|..|--- .... ....|--- .... ....|G-5 2F.F ....
....|..|--- .... ....|--- .... ....|R-- .... ....
....|..|C-4 AF.F ....|E-4 2F.F ....|F-5 2F.7 ....
....|..|--- .... ....|--- .... ....|R-- .... ....
....|..|--- .... ....|--- .... ....|D-5 2F.7 ....
....|..|--- .... ....|R-- .... ....|R-- .... ....
....|..|B-8 JF.F ....|F-4 2F.F ....|D-5 2F.F ....
....|..|--- .... ....|F-4 2F.F ....|R-- .... ....
....|..|--- .... ....|--- .... ....|G-5 2F.7 ....
....|..|--- .... ....|--- .... ....|--- .... ....
....|..|C-4 AF.F ....|--- .... ....|F-5 2F.F ....
....|..|--- .... ....|--- .... ....|R-- .... ....
....|..|--- .... ....|--- .... ....|D-5 2F.F ....
....|..|--- .... ....|--- .... ....|R-- .... ....
....|..|B-8 JF.F ....|E-4 2F.F ....|D-5 2F.7 ....
....|..|--- .... ....|--- .... ....|R-- .... ....
....|..|--- .... ....|--- .... ....|G-5 2F.F ....
....|..|--- .... ....|R-- .... ....|R-- .... ....
....|..|C-4 AF.F ....|D-4 2F.7 ....|F-5 2F.7 ....
....|..|--- .... ....|F-4 2F.A ....|R-- .... ....
....|..|--- .... ....|--- .... ....|D-5 2F.7 ....
....|..|--- .... ....|--- .... ....|--- .... ....
....|..|C-3 RF.F ....|--- .... ....|D-5 2F.F ....
....|..|--- .... ....|--- .... ....|R-- .... ....
....|..|--- .... ....|--- .... ....|G-5 2F.7 ....
....|..|--- .... ....|R-- .... ....|--- .... ....
....|..|C-4 AF.F ....|E-4 2F.7 ....|F-5 2F.F ....
 D-4|..|D-2 2A.F ....|--- .... ....|R-- .... ....
 D-4|..|D-2 2A.F ....|--- .... ....|D-5 2F.F ....
....|..|--- .... ....|--- .... ....|R-- .... ....
....|..|B-8 JF.F ....|F-4 2F.7 ....|D-5 2F.7 ....
....|..|R-- .... ....|F-4 2F.7 ....|R-- .... ....
 D-4|..|--- .... ....|D-2 2A.F ....|G-5 2F.F ....
....|..|--- .... ....|R-- .... ....|G-5 2F.F ....
....|..|C-4 AF.F ....|--- .... ....|F-5 2F.7 ....
....|..|--- .... ....|--- .... ....|R-- .... ....
....|..|--- .... ....|--- .... ....|D-5 2F.7 ....
....|..|--- .... ....|R-- .... ....|--- .... ....
 D-4|..|B-8 JF.F ....|D-2 2A.F ....|D-5 2F.F ....
 D-4|..|D-2 2A.F ....|R-- .... ....|R-- .... ....
 D-4|..|D-2 2A.F ....|--- .... ....|D-2 2A.F ....
....|..|--- .... ....|--- .... ....|--- .... ....
....|..|C-4 AF.F ....|--- .... ....|F-5 2F.F ....
....|..|R-- .... ....|--- .... ....|R-- .... ....
....|..|--- .... ....|D-2 2F.A ....|D-5 2F.F ....
....|..|--- .... ....|R-- .... ....|G-5 2F.A ....
 D-4|..|B-8 JF.F ....|D-2 2A.F ....|D-5 2F.7 ....
....|..|--- .... ....|R-- .... ....|R-- .... ....
....|..|--- .... ....|--- .... ....|G-5 2F.F ....
....|..|--- .... ....|R-- .... ....|--- .... ....
....|..|C-4 AF.F ....|D-2 2F.A ....|F-5 2F.7 ....
....|..|D-2 2F.7 ....|R-- .... ....|R-- .... ....
....|..|D-2 2F.7 ....|--- .... ....|D-5 2F.7 ....
....|..|--- .... ....|--- .... ....|R-- .... ....
....|..|B-8 JF.F ....|--- .... ....|D-5 2F.F ....
....|..|R-- .... ....|--- .... ....|R-- .... ....
....|..|--- .... ....|D-2 2F.7 ....|G-5 2F.7 ....
....|..|--- .... ....|R-- .... ....|G-5 2F.7 ....
....|..|C-4 AF.F ....|D-2 2F.A ....|F-5 2F.F ....
 D-4|..|D-2 2A.F ....|R-- .... ....|R-- .... ....
 D-4|..|D-2 2A.F ....|--- .... ....|D-5 2F.F ....
....|..|--- .... ....|--- .... ....|--- .... ....
....|..|B-8 JF.F ....|D-2 2F.7 ....|D-5 2F.7 ....
....|..|D-2 2F.7 ....|R-- .... ....|R-- .... ....
 D-4|..|D-2 2F.7 ....|D-2 2A.F ....|G-5 2F.F ....
....|..|--- .... ....|R-- .... ....|R-- .... ....
....|..|C-4 AF.F ....|--- .... ....|F-5 2F.7 ....
....|..|R-- .... ....|--- .... ....|R-- .... ....
....|..|--- .... ....|--- .... ....|D-5 2F.7 ....
....|..|--- .... ....|--- .... ....|R-- .... ....
 D-4|..|B-8 JF.F ....|D-2 2A.F ....|D-5 2F.F ....
 D-4|..|D-2 2A.F ....|R-- .... ....|R-- .... ....
 D-4|..|D-2 2A.F ....|--- .... ....|D-2 2A.F ....
....|..|--- .... ....|--- .... ....|--- .... ....
....|..|C-4 AF.F ....|--- .... ....|F-5 2F.F ....
....|..|R-- .... ....|--- .... ....|R-- .... ....
....|..|--- .... ....|D-2 2F.A ....|D-5 2F.F ....
....|..|--- .... ....|R-- .... ....|R-- .... ....
 D-4|..|B-8 JF.F ....|D-2 2A.F ....|D-5 2F.7 ....
....|..|--- .... ....|R-- .... ....|R-- .... ....
....|..|--- .... ....|--- .... ....|G-5 2F.F ....
....|..|--- .... ....|--- .... ....|R-- .... ....
....|..|C-4 AF.F ....|D-2 2F.A ....|F-5 2F.7 ....
....|..|D-2 2F.7 ....|R-- .... ....|R-- .... ....
....|..|D-2 2F.7 ....|--- .... ....|D-5 2F.7 ....
....|..|--- .... ....|--- .... ....|--- .... ....
....|..|B-8 JF.F ....|--- .... ....|D-5 2F.F ....
....|..|R-- .... ....|--- .... ....|R-- .... ....
....|..|--- .... ....|D-2 2F.7 ....|G-5 2F.7 ....
....|..|--- .... ....|R-- .... ....|--- .... ....

[Pattern4]
....|..|C-4 AF.F ....|D-2 2F.A ....|F-5 2F.F ....
 D-4|..|D-2 2A.F ....|R-- .... ....|R-- .... ....
 D-4|..|D-2 2A.F ....|--- .... ....|D-5 2F.F ....
....|..|--- .... ....|--- .... ....|R-- .... ....
....|..|B-8 JF.F ....|D-2 2F.7 ....|D-5 2F.7 ....
....|..|D-2 2F.7 ....|R-- .... ....|R-- .... ....
 D-4|..|D-2 2F.7 ....|D-2 2A.F ....|G-5 2F.F ....
....|..|--- .... ....|R-- .... ....|G-5 2F.F ....
....|..|C-4 AF.F ....|--- .... ....|F-5 2F.7 ....
....|..|R-- .... ....|--- .... ....|R-- .... ....
....|..|--- .... ....|--- .... ....|D-5 2F.7 ....
....|..|--- .... ....|--- .... ....|--- .... ....
 D-4|..|B-8 JF.F ....|D-2 2A.F ....|D-5 2F.F ....
 D-4|..|D-2 2A.F ....|R-- .... ....|R-- .... ....
 D-4|..|D-2 2A.F ....|--- .... ....|D-2 2A.F ....
....|..|--- .... ....|--- .... ....|--- .... ....
....|..|C-4 AF.F ....|--- .... ....|F-5 2F.F ....
....|..|R-- .... ....|--- .... ....|R-- .... ....
....|..|--- .... ....|D-2 2F.A ....|D-5 2F.F ....
....|..|--- .... ....|R-- .... ....|G-5 2F.A ....
 D-4|..|B-8 JF.F ....|D-2 2A.F ....|D-5 2F.7 ....
....|..|--- .... ....|R-- .... ....|R-- .... ....
....|..|--- .... ....|--- .... ....|G-5 2F.F ....
....|..|--- .... ....|--- .... ....|--- .... ....
....|..|C-4 AF.F ....|D-2 2F.A ....|F-5 2F.7 ....
....|..|D-2 2F.7 ....|R-- .... ....|R-- .... ....
....|..|D-2 2F.7 ....|--- .... ....|D-5 2F.7 ....
....|..|--- .... ....|--- .... ....|R-- .... ....
....|..|B-8 JF.F ....|--- .... ....|D-5 2F.F ....
....|..|R-- .... ....|--- .... ....|R-- .... ....
....|..|--- .... ....|D-2 2F.7 ....|G-5 2F.7 ....
....|..|--- .... ....|R-- .... ....|G-5 2F.7 ....
....|..|C-4 AF.F ....|D-2 2F.A ....|F-5 2F.F ....
 D-4|..|D-2 2A.F ....|R-- .... ....|R-- .... ....
 D-4|..|D-2 2A.F ....|--- .... ....|D-5 2F.F ....
....|..|--- .... ....|--- .... ....|--- .... ....
....|..|B-8 JF.F ....|D-2 2F.7 ....|D-5 2F.7 ....
....|..|D-2 2F.7 ....|R-- .... ....|R-- .... ....
 D-4|..|D-2 2F.7 ....|D-2 2A.F ....|G-5 2F.F ....
....|..|--- .... ....|R-- .... ....|R-- .... ....
....|..|C-4 AF.F ....|--- .... ....|F-5 2F.7 ....
....|..|R-- .... ....|--- .... ....|R-- .... ....
....|..|--- .... ....|--- .... ....|D-5 2F.7 ....
....|..|--- .... ....|--- .... ....|R-- .... ....
 D-4|..|B-8 JF.F ....|D-2 2A.F ....|D-5 2F.F ....
 D-4|..|D-2 2A.F ....|R-- .... ....|R-- .... ....
 D-4|..|D-2 2A.F ....|--- .... ....|D-2 2A.F ....
....|..|--- .... ....|--- .... ....|--- .... ....
....|..|C-4 AF.F ....|--- .... ....|F-5 2F.F ....
....|..|R-- .... ....|--- .... ....|R-- .... ....
....|..|--- .... ....|D-2 2F.A ....|D-5 2F.F ....
....|..|--- .... ....|R-- .... ....|R-- .... ....
 D-4|..|B-8 JF.F ....|D-2 2A.F ....|D-5 2F.7 ....
....|..|--- .... ....|R-- .... ....|R-- .... ....
....|..|--- .... ....|--- .... ....|G-5 2F.F ....
....|..|--- .... ....|--- .... ....|R-- .... ....
....|..|C-4 AF.F ....|D-2 2F.A ....|F-5 2F.7 ....
....|..|D-2 2F.7 ....|R-- .... ....|R-- .... ....
....|..|D-2 2F.7 ....|--- .... ....|D-5 2F.7 ....
....|..|--- .... ....|--- .... ....|--- .... ....
....|..|B-8 JF.F ....|--- .... ....|D-5 2F.F ....
....|..|R-- .... ....|--- .... ....|R-- .... ....
....|..|--- .... ....|D-2 2F.7 ....|G-5 2F.7 ....
....|..|--- .... ....|R-- .... ....|--- .... ....
....|..|C-4 AF.F ....|D-4 2F.F ....|F-5 2F.F ....
 D-4|..|--- .... ....|D-2 2A.F ....|R-- .... ....
....|..|--- .... ....|--- .... ....|D-5 2F.F ....
....|..|--- .... ....|--- .... ....|R-- .... ....
....|..|B-8 JF.F ....|E-4 2F.F ....|D-5 2F.7 ....
....|..|D-2 2F.7 ....|E-4 2F.F ....|R-- .... ....
....|..|D-2 2F.7 ....|--- .... ....|G-5 2F.F ....
....|..|--- .... ....|--- .... ....|G-5 2F.F ....
....|..|C-4 AF.F ....|--- .... ....|F-5 2F.7 ....
....|..|R-- .... ....|--- .... ....|R-- .... ....
....|..|--- .... ....|--- .... ....|D-5 2F.7 ....
....|..|--- .... ....|R-- .... ....|--- .... ....
....|..|B-8 JF.F ....|F-4 2F.F ....|D-5 2F.F ....
....|..|--- .... ....|R-- .... ....|R-- .... ....
....|..|--- .... ....|--- .... ....|G-5 2F.7 ....
....|..|--- .... ....|--- .... ....|--- .... ....
....|..|C-4 AF.F ....|E-4 2F.A ....|F-5 2F.F ....
....|..|--- .... ....|E-4 2F.A ....|R-- .... ....
....|..|--- .... ....|--- .... ....|D-5 2F.F ....
....|..|--- .... ....|R-- .... ....|G-5 2F.A ....
....|..|B-8 JF.F ....|E-4 2F.F ....|D-5 2F.7 ....
....|..|--- .... ....|--- .... ....|R-- .... ....
....|..|--- .... ....|--- .... ....|G-5 2F.F ....
....|..|--- .... ....|R-- .... ....|--- .... ....
....|..|C-4 AF.F ....|D-4 2F.7 ....|F-5 2F.7 ....
....|..|--- .... ....|D-2 2F.7 ....|R-- .... ....
....|..|--- .... ....|--- .... ....|D-5 2F.7 ....
....|..|--- .... ....|--- .... ....|R-- .... ....
....|..|B-8 JF.F ....|E-4 2F.7 ....|D-5 2F.F ....
....|..|--- .... ....|E-4 2F.7 ....|R-- .... ....
....|..|--- .... ....|--- .... ....|G-5 2F.7 ....
....|..|--- .... ....|R-- .... ....|G-5 2F.7 ....
....|..|C-4 AF.F ....|D-4 2F.F ....|F-5 2F.F ....
....|..|--- .... ....|--- .... ....|--- .... ....
....|..|--- .... ....|--- .... ....|D-5 2F.F ....
....|..|--- .... ....|R-- .... ....|--- .... ....
....|..|B-8 JF.F ....|F-4 2F.7 ....|D-5 2F.7 ....
....|..|--- .... ....|--- .... ....|R-- .... ....
....|..|--- .... ....|--- .... ....|G-5 2F.F ....
....|..|--- .... ....|--- .... ....|R-- .... ....
....|..|C-4 AF.F ....|E-4 2F.F ....|F-5 2F.7 ....
....|..|--- .... ....|--- .... ....|R-- .... ....
....|..|--- .... ....|--- .... ....|D-5 2F.7 ....
....|..|--- .... ....|R-- .... ....|R-- .... ....
....|..|B-8 JF.F ....|F-4 2F.F ....|D-5 2F.F ....
....|..|--- .... ....|F-4 2F.F ....|R-- .... ....
....|..|--- .... ....|--- .... ....|G-5 2F.7 ....
....|..|--- .... ....|--- .... ....|--- .... ....
....|..|C-4 AF.F ....|--- .... ....|F-5 2F.F ....
....|..|--- .... ....|--- .... ....|R-- .... ....
....|..|--- .... ....|--- .... ....|D-5 2F.F ....
....|..|--- .... ....|--- .... ....|R-- .... ....
....|..|B-8 JF.F ....|R-- .... ....|D-5 2F.7 ....
....|..|--- .... ....|--- .... ....|R-- .... ....
....|..|--- .... ....|--- .... ....|G-5 2F.F ....
....|..|--- .... ....|R-- .... ....|R-- .... ....
....|..|C-4 AF.F ....|D-4 2F.7 ....|F-5 2F.7 ....
....|..|--- .... ....|F-4 2F.A ....|R-- .... ....
....|..|--- .... ....|--- .... ....|D-5 2F.7 ....
....|..|--- .... ....|--- .... ....|--- .... ....
....|..|B-8 JF.F ....|--- .... ....|D-5 2F.F ....
....|..|--- .... ....|--- .... ....|R-- .... ....
....|..|--- .... ....|--- .... ....|G-5 2F.7 ....
....|..|--- .... ....|--- .... ....|--- .... ....

[Pattern5]
....|..|C-4 AF.F ....|E-4 2F.7 ....|F-5 2F.F ....
 D-4|..|D-2 2A.F ....|--- .... ....|R-- .... ....
 D-4|..|D-2 2A.F ....|--- .... ....|D-5 2F.F ....
....|..|--- .... ....|--- .... ....|R-- .... ....
....|..|B-8 JF.F ....|F-4 2F.7 ....|D-5 2F.7 ....
....|..|R-- .... ....|F-4 2F.7 ....|R-- .... ....
 D-4|..|--- .... ....|D-2 2A.F ....|G-5 2F.F ....
....|..|--- .... ....|R-- .... ....|G-5 2F.F ....
....|..|C-4 AF.F ....|--- .... ....|F-5 2F.7 ....
....|..|--- .... ....|--- .... ....|R-- .... ....
....|..|--- .... ....|--- .... ....|D-5 2F.7 ....
....|..|--- .... ....|--- .... ....|--- .... ....
 D-4|..|B-8 JF.F ....|D-2 2A.F ....|D-5 2F.F ....
 D-4|..|D-2 2A.F ....|R-- .... ....|R-- .... ....
 D-4|..|D-2 2A.F ....|--- .... ....|D-2 2A.F ....
....|..|--- .... ....|--- .... ....|--- .... ....
....|..|C-4 AF.F ....|--- .... ....|F-5 2F.F ....
....|..|R-- .... ....|--- .... ....|R-- .... ....
....|..|--- .... ....|D-2 2F.A ....|D-5 2F.F ....
....|..|--- .... ....|R-- .... ....|G-5 2F.A ....
 D-4|..|B-8 JF.F ....|D-2 2A.F ....|D-5 2F.7 ....
....|..|--- .... ....|R-- .... ....|R-- .... ....
....|..|--- .... ....|--- .... ....|G-5 2F.F ....
....|..|--- .... ....|--- .... ....|--- .... ....
....|..|C-4 AF.F ....|D-2 2F.A ....|F-5 2F.7 ....
....|..|D-2 2F.7 ....|R-- .... ....|R-- .... ....
....|..|D-2 2F.7 ....|--- .... ....|D-5 2F.7 ....
....|..|--- .... ....|--- .... ....|R-- .... ....
....|..|B-8 JF.F ....|--- .... ....|D-5 2F.F ....
....|..|R-- .... ....|--- .... ....|R-- .... ....
....|..|--- .... ....|D-2 2F.7 ....|G-5 2F.7 ....
....|..|--- .... ....|R-- .... ....|G-5 2F.7 ....
....|..|C-4 AF.F ....|D-2 2F.A ....|F-5 2F.F ....
 D-4|..|D-2 2A.F ....|R-- .... ....|R-- .... ....
 D-4|..|D-2 2A.F ....|--- .... ....|D-5 2F.F ....
....|..|--- .... ....|--- .... ....|--- .... ....
....|..|B-8 JF.F ....|D-2 2F.7 ....|D-5 2F.7 ....
....|..|D-2 2F.7 ....|R-- .... ....|R-- .... ....
 D-4|..|D-2 2F.7 ....|D-2 2A.F ....|G-5 2F.F ....
....|..|--- .... ....|R-- .... ....|R-- .... ....
....|..|C-4 AF.F ....|--- .... ....|F-5 2F.7 ....
....|..|R-- .... ....|--- .... ....|R-- .... ....
....|..|--- .... ....|--- .... ....|D-5 2F.7 ....
....|..|--- .... ....|--- .... ....|R-- .... ....
 D-4|..|B-8 JF.F ....|D-2 2A.F ....|D-5 2F.F ....
 D-4|..|D-2 2A.F ....|R-- .... ....|R-- .... ....
 D-4|..|D-2 2A.F ....|--- .... ....|D-2 2A.F ....
....|..|--- .... ....|--- .... ....|--- .... ....
....|..|C-4 AF.F ....|--- .... ....|F-5 2F.F ....
....|..|R-- .... ....|--- .... ....|R-- .... ....
....|..|--- .... ....|D-2 2F.A ....|D-5 2F.F ....
....|..|--- .... ....|R-- .... ....|R-- .... ....
 D-4|..|B-8 JF.F ....|D-2 2A.F ....|D-5 2F.7 ....
....|..|--- .... ....|R-- .... ....|R-- .... ....
....|..|--- .... ....|--- .... ....|G-5 2F.F ....
....|..|--- .... ....|--- .... ....|R-- .... ....
....|..|C-4 AF.F ....|D-2 2F.A ....|F-5 2F.7 ....
....|..|D-2 2F.7 ....|R-- .... ....|R-- .... ....
....|..|D-2 2F.7 ....|--- .... ....|D-5 2F.7 ....
....|..|--- .... ....|--- .... ....|--- .... ....
....|..|B-8 JF.F ....|A-3 2F.F ....|D-5 2F.F ....
....|..|R-- .... ....|--- .... ....|R-- .... ....
....|..|--- .... ....|D-2 2F.7 ....|G-5 2F.7 ....
....|..|--- .... ....|R-- .... ....|--- .... ....
....|..|C-4 AF.F ....|D-4 2F.F ....|F-5 2F.F ....
 D-4|..|D-2 2A.F ....|D-2 2A.F ....|R-- .... ....
 D-4|..|D-2 2A.F ....|--- .... ....|D-5 2F.F ....
....|..|--- .... ....|--- .... ....|R-- .... ....
....|..|B-8 JF.F ....|D-2 2F.7 ....|D-5 2F.7 ....
....|..|D-2 2F.7 ....|R-- .... ....|R-- .... ....
 D-4|..|D-2 2F.7 ....|D-2 2A.F ....|G-5 2F.F ....
....|..|--- .... ....|R-- .... ....|G-5 2F.F ....
....|..|C-4 AF.F ....|E-4 2F.F ....|F-5 2F.7 ....
....|..|R-- .... ....|--- .... ....|R-- .... ....
....|..|--- .... ....|--- .... ....|D-5 2F.7 ....
....|..|--- .... ....|R-- .... ....|--- .... ....
....|..|B-8 JF.F ....|F-4 2F.F ....|D-5 2F.F ....
 D-4|..|D-2 2A.F ....|R-- .... ....|R-- .... ....
 D-4|..|D-2 2A.F ....|--- .... ....|D-2 2A.F ....
....|..|--- .... ....|--- .... ....|--- .... ....
....|..|C-4 AF.F ....|--- .... ....|F-5 2F.F ....
....|..|R-- .... ....|R-- .... ....|R-- .... ....
....|..|--- .... ....|D-2 2F.A ....|D-5 2F.F ....
....|..|--- .... ....|R-- .... ....|G-5 2F.A ....
....|..|B-8 JF.F ....|E-4 2F.F ....|D-5 2F.7 ....
....|..|--- .... ....|R-- .... ....|R-- .... ....
....|..|--- .... ....|--- .... ....|G-5 2F.F ....
....|..|--- .... ....|R-- .... ....|--- .... ....
....|..|C-4 AF.F ....|D-4 2F.7 ....|F-5 2F.7 ....
....|..|D-2 2F.7 ....|D-2 2F.7 ....|R-- .... ....
....|..|D-2 2F.7 ....|--- .... ....|D-5 2F.7 ....
....|..|--- .... ....|--- .... ....|R-- .... ....
....|..|B-8 JF.F ....|--- .... ....|D-5 2F.F ....
....|..|R-- .... ....|R-- .... ....|R-- .... ....
....|..|--- .... ....|D-2 2F.7 ....|G-5 2F.7 ....
....|..|--- .... ....|R-- .... ....|G-5 2F.7 ....
....|..|C-4 AF.F ....|D-4 2F.F ....|F-5 2F.F ....
 D-4|..|D-2 2A.F ....|R-- .... ....|R-- .... ....
 D-4|..|D-2 2A.F ....|--- .... ....|D-5 2F.F ....
....|..|--- .... ....|R-- .... ....|--- .... ....
....|..|B-8 JF.F ....|F-4 2F.7 ....|D-5 2F.7 ....
....|..|D-2 2F.7 ....|R-- .... ....|R-- .... ....
 D-4|..|D-2 2F.7 ....|D-2 2A.F ....|G-5 2F.F ....
....|..|--- .... ....|R-- .... ....|R-- .... ....
....|..|C-4 AF.F ....|E-4 2F.F ....|F-5 2F.7 ....
....|..|R-- .... ....|--- .... ....|R-- .... ....
....|..|--- .... ....|R-- .... ....|D-5 2F.7 ....
....|..|--- .... ....|R-- .... ....|R-- .... ....
....|..|B-8 JF.F ....|F-4 2F.F ....|D-5 2F.F ....
 D-4|..|D-2 2A.F ....|R-- .... ....|R-- .... ....
 D-4|..|D-2 2A.F ....|--- .... ....|D-2 2A.F ....
....|..|--- .... ....|--- .... ....|--- .... ....
....|..|C-4 AF.F ....|--- .... ....|F-5 2F.F ....
....|..|R-- .... ....|--- .... ....|R-- .... ....
....|..|--- .... ....|D-2 2F.A ....|D-5 2F.F ....
....|..|--- .... ....|R-- .... ....|R-- .... ....
....|..|B-8 JF.F ....|E-4 2F.F ....|D-5 2F.7 ....
....|..|--- .... ....|R-- .... ....|R-- .... ....
....|..|--- .... ....|R-- .... ....|G-5 2F.F ....
....|..|--- .... ....|--- .... ....|R-- .... ....
....|..|C-4 AF.F ....|D-4 2F.7 ....|F-5 2F.7 ....
....|..|D-2 2F.7 ....|R-- .... ....|R-- .... ....
....|..|D-2 2F.7 ....|--- .... ....|D-5 2F.7 ....
....|..|--- .... ....|--- .... ....|--- .... ....
....|..|B-8 JF.F ....|--- .... ....|D-5 2F.F ....
....|..|R-- .... ....|--- .... ....|R-- .... ....
....|..|--- .... ....|D-2 2F.7 ....|G-5 2F.7 ....
....|..|--- .... ....|R-- .... ....|--- .... ....

[Pattern6]
....|..|C-4 AF.F ....|E-4 2F.7 ....|F-5 2F.F ....
 D-4|..|D-2 2A.F ....|R-- .... ....|R-- .... ....
 D-4|..|D-2 2A.F ....|--- .... ....|D-5 2F.F ....
....|..|--- .... ....|--- .... ....|R-- .... ....
....|..|B-8 JF.F ....|F-4 2F.7 ....|D-5 2F.7 ....
....|..|D-2 2F.7 ....|R-- .... ....|R-- .... ....
 D-4|..|D-2 2F.7 ....|D-2 2A.F ....|G-5 2F.F ....
....|..|--- .... ....|R-- .... ....|G-5 2F.F ....
....|..|C-4 AF.F ....|--- .... ....|F-5 2F.7 ....
....|..|R-- .... ....|--- .... ....|R-- .... ....
....|..|--- .... ....|R-- .... ....|D-5 2F.7 ....
....|..|--- .... ....|R-- .... ....|--- .... ....
 D-4|..|B-8 JF.F ....|D-2 2A.F ....|D-5 2F.F ....
 D-4|..|D-2 2A.F ....|R-- .... ....|R-- .... ....
 D-4|..|D-2 2A.F ....|--- .... ....|D-2 2A.F ....
....|..|--- .... ....|--- .... ....|--- .... ....
....|..|C-4 AF.F ....|--- .... ....|F-5 2F.F ....
....|..|R-- .... ....|--- .... ....|R-- .... ....
....|..|--- .... ....|D-2 2F.A ....|D-5 2F.F ....
....|..|--- .... ....|R-- .... ....|G-5 2F.A ....
 D-4|..|B-8 JF.F ....|D-2 2A.F ....|D-5 2F.7 ....
....|..|--- .... ....|R-- .... ....|R-- .... ....
....|..|--- .... ....|R-- .... ....|G-5 2F.F ....
....|..|--- .... ....|--- .... ....|--- .... ....
....|..|C-4 AF.F ....|D-2 2F.A ....|F-5 2F.7 ....
....|..|D-2 2F.7 ....|R-- .... ....|R-- .... ....
....|..|D-2 2F.7 ....|--- .... ....|D-5 2F.7 ....
....|..|--- .... ....|--- .... ....|R-- .... ....
....|..|B-8 JF.F ....|--- .... ....|D-5 2F.F ....
....|..|R-- .... ....|--- .... ....|R-- .... ....
....|..|--- .... ....|D-2 2F.7 ....|G-5 2F.7 ....
....|..|--- .... ....|R-- .... ....|G-5 2F.7 ....
....|..|C-4 AF.F ....|D-2 2F.A ....|F-5 2F.F ....
 D-4|..|D-2 2A.F ....|R-- .... ....|R-- .... ....
 D-4|..|D-2 2A.F ....|--- .... ....|D-5 2F.F ....
....|..|--- .... ....|--- .... ....|--- .... ....
....|..|B-8 JF.F ....|D-2 2F.7 ....|D-5 2F.7 ....
....|..|D-2 2F.7 ....|R-- .... ....|R-- .... ....
 D-4|..|D-2 2F.7 ....|D-2 2A.F ....|G-5 2F.F ....
....|..|--- .... ....|R-- .... ....|R-- .... ....
....|..|C-4 AF.F ....|--- .... ....|F-5 2F.7 ....
....|..|R-- .... ....|--- .... ....|R-- .... ....
....|..|--- .... ....|--- .... ....|D-5 2F.7 ....
....|..|--- .... ....|--- .... ....|R-- .... ....
 D-4|..|B-8 JF.F ....|D-2 2A.F ....|D-5 2F.F ....
 D-4|..|D-2 2A.F ....|R-- .... ....|R-- .... ....
 D-4|..|D-2 2A.F ....|--- .... ....|D-2 2A.F ....
....|..|--- .... ....|--- .... ....|--- .... ....
....|..|C-4 AF.F ....|--- .... ....|F-5 2F.F ....
....|..|R-- .... ....|--- .... ....|R-- .... ....
....|..|--- .... ....|D-2 2F.A ....|D-5 2F.F ....
....|..|--- .... ....|R-- .... ....|R-- .... ....
 D-4|..|B-8 JF.F ....|D-2 2A.F ....|D-5 2F.7 ....
....|..|--- .... ....|R-- .... ....|R-- .... ....
....|..|--- .... ....|--- .... ....|G-5 2F.F ....
....|..|--- .... ....|--- .... ....|R-- .... ....
....|..|C-4 AF.F ....|D-2 2F.A ....|F-5 2F.7 ....
....|..|D-2 2F.7 ....|R-- .... ....|R-- .... ....
....|..|D-2 2F.7 ....|--- .... ....|D-5 2F.7 ....
....|..|--- .... ....|--- .... ....|--- .... ....
....|..|B-8 JF.F ....|--- .... ....|D-5 2F.F ....
....|..|R-- .... ....|--- .... ....|R-- .... ....
....|..|--- .... ....|D-2 2F.7 ....|G-5 2F.7 ....
....|..|--- .... ....|R-- .... ....|--- .... ....
 D-4|..|C-4 AF.F ....|D-2 2A.F ....|F-5 2F.F ....
 D-4|..|D-2 2A.F ....|D-4 2F.F ....|R-- .... ....
 D-4|..|D-2 2A.F ....|--- .... ....|D-5 2F.F ....
....|..|--- .... ....|--- .... ....|R-- .... ....
....|..|B-8 JF.F ....|D-2 2F.7 ....|D-5 2F.7 ....
....|..|D-2 2F.7 ....|R-- .... ....|R-- .... ....
 D-4|..|D-2 2F.7 ....|D-2 2A.F ....|G-5 2F.F ....
....|..|--- .... ....|R-- .... ....|G-5 2F.F ....
....|..|C-4 AF.F ....|--- .... ....|F-5 2F.7 ....
....|..|R-- .... ....|E-4 2F.F ....|R-- .... ....
....|..|--- .... ....|--- .... ....|D-5 2F.7 ....
....|..|--- .... ....|--- .... ....|--- .... ....
 D-4|..|B-8 JF.F ....|D-2 2A.F ....|D-5 2F.F ....
 D-4|..|D-2 2A.F ....|F-4 2F.F ....|R-- .... ....
 D-4|..|D-2 2A.F ....|--- .... ....|D-2 2A.F ....
....|..|--- .... ....|--- .... ....|--- .... ....
....|..|C-4 AF.F ....|--- .... ....|F-5 2F.F ....
....|..|R-- .... ....|R-- .... ....|R-- .... ....
....|..|--- .... ....|D-2 2F.A ....|D-5 2F.F ....
....|..|--- .... ....|R-- .... ....|G-5 2F.A ....
....|..|B-8 JF.F ....|E-4 2F.F ....|D-5 2F.7 ....
....|..|--- .... ....|R-- .... ....|R-- .... ....
....|..|--- .... ....|--- .... ....|G-5 2F.F ....
....|..|--- .... ....|--- .... ....|--- .... ....
....|..|C-4 AF.F ....|D-2 2F.7 ....|F-5 2F.7 ....
....|..|D-2 2F.7 ....|D-4 2F.7 ....|R-- .... ....
....|..|D-2 2F.7 ....|--- .... ....|D-5 2F.7 ....
....|..|--- .... ....|--- .... ....|R-- .... ....
....|..|C-3 RF.F ....|--- .... ....|D-5 2F.F ....
....|..|R-- .... ....|R-- .... ....|R-- .... ....
....|..|--- .... ....|D-2 2F.7 ....|G-5 2F.7 ....
....|..|--- .... ....|R-- .... ....|G-5 2F.7 ....
....|..|C-4 AF.F ....|D-4 2F.F ....|F-5 2F.F ....
 D-4|..|D-2 2A.F ....|E-4 2F.7 ....|R-- .... ....
 D-4|..|D-2 2A.F ....|--- .... ....|D-5 2F.F ....
....|..|--- .... ....|--- .... ....|--- .... ....
....|..|B-8 JF.F ....|D-2 2F.7 ....|D-5 2F.7 ....
....|..|D-2 2F.7 ....|F-4 2F.7 ....|R-- .... ....
 D-4|..|D-2 2F.7 ....|D-2 2A.F ....|G-5 2F.F ....
....|..|--- .... ....|R-- .... ....|R-- .... ....
....|..|C-4 AF.F ....|E-4 2F.F ....|F-5 2F.7 ....
....|..|R-- .... ....|--- .... ....|R-- .... ....
....|..|--- .... ....|--- .... ....|D-5 2F.7 ....
....|..|--- .... ....|R-- .... ....|R-- .... ....
 D-4|..|B-8 JF.F ....|D-2 2A.F ....|D-5 2F.F ....
 D-4|..|D-2 2A.F ....|F-4 2F.F ....|R-- .... ....
 D-4|..|D-2 2A.F ....|--- .... ....|D-2 2A.F ....
....|..|--- .... ....|--- .... ....|--- .... ....
....|..|C-4 AF.F ....|--- .... ....|F-5 2F.F ....
....|..|R-- .... ....|--- .... ....|R-- .... ....
....|..|--- .... ....|D-2 2F.A ....|D-5 2F.F ....
....|..|--- .... ....|R-- .... ....|R-- .... ....
 D-4|..|B-8 JF.F ....|D-2 2A.F ....|D-5 2F.7 ....
....|..|--- .... ....|R-- .... ....|R-- .... ....
....|..|--- .... ....|--- .... ....|G-5 2F.F ....
....|..|--- .... ....|R-- .... ....|R-- .... ....
....|..|C-4 AF.F ....|D-4 2F.7 ....|F-5 2F.7 ....
....|..|D-2 2F.7 ....|R-- .... ....|R-- .... ....
....|..|D-2 2F.7 ....|--- .... ....|D-5 2F.7 ....
....|..|--- .... ....|--- .... ....|--- .... ....
....|..|C-3 RF.F ....|--- .... ....|D-5 2F.F ....
....|..|R-- .... ....|--- .... ....|R-- .... ....
....|..|--- .... ....|D-2 2F.7 ....|G-5 2F.7 ....
....|..|--- .... ....|R-- .... ....|--- .... ....

[Pattern7]
 B-4|..|C-4 AF.F ....|E-4 2F.7 ....|B-4 2C.F ....
 G-3|..|G-1 2A.F ....|R-- .... ....|R-- .... ....
 G-4|..|B-4 2F2F ....|--- .... ....|G-4 2C.F ....
....|..|--- .... ....|--- .... ....|R-- .... ....
 B-4|..|B-8 JF.F ....|D-2 2F.7 ....|B-4 2C.F ....
 B-4|..|D-2 2F.7 ....|F-4 2F.7 ....|B-4 2C.F ....
 G-4|..|D-2 2F.7 ....|--- .... ....|G-4 2C.F ....
....|..|--- .... ....|--- .... ....|R-- .... ....
....|..|C-4 AF.F ....|--- .... ....|F-5 2F.7 ....
....|..|R-- .... ....|--- .... ....|R-- .... ....
....|..|--- .... ....|--- .... ....|D-5 2F.7 ....
....|..|--- .... ....|--- .... ....|--- .... ....
 B-4|..|B-8 JF.F ....|D-2 2F.7 ....|B-4 2C.F ....
....|..|G-1 2F.A ....|R-- .... ....|R-- .... ....
 G-4|..|B-4 2F2A ....|--- .... ....|G-4 2C.F ....
....|..|--- .... ....|--- .... ....|R-- .... ....
 B-4|..|C-4 AF.F ....|--- .... ....|B-4 2C.F ....
 B-4|..|--- .... ....|R-- .... ....|B-4 2C.F ....
 G-4|..|--- .... ....|--- .... ....|G-4 2C.F ....
....|..|--- .... ....|--- .... ....|R-- .... ....
 B-4|..|B-8 JF.F ....|--- .... ....|B-4 2C.F ....
....|..|R-- .... ....|--- .... ....|R-- .... ....
....|..|--- .... ....|--- .... ....|--- .... ....
....|..|--- .... ....|--- .... ....|--- .... ....
....|..|C-4 AF.F ....|--- .... ....|B-4 2F.7 ....
....|..|G-1 2F.7 ....|R-- .... ....|R-- .... ....
....|..|B-4 2F27 ....|--- .... ....|G-4 2F.7 ....
....|..|--- .... ....|--- .... ....|R-- .... ....
 B-4|..|C-3 RF.F ....|--- .... ....|B-4 2C.F ....
....|..|--- .... ....|--- .... ....|B-4 2F.7 ....
 G-4|..|--- .... ....|--- .... ....|G-4 2C.F ....
....|..|--- .... ....|--- .... ....|R-- .... ....
 B-4|..|C-4 AF.F ....|--- .... ....|B-4 2C.F ....
 B-4|..|G-1 2F.F ....|--- .... ....|B-4 2C.F ....
 G-4|..|--- .F.. ....|--- .... ....|G-4 2C.F ....
....|..|--- .... ....|--- .... ....|R-- .... ....
 B-4|..|B-8 JF.F ....|--- .... ....|B-4 2C.F ....
....|..|--- .... ....|R-- .... ....|R-- .... ....
 G-4|..|--- .... ....|--- .... ....|G-4 2C.F ....
....|..|--- .... ....|--- .... ....|R-- .... ....
....|..|C-4 AF.F ....|--- .... ....|B-4 2F.7 ....
....|..|R-- .... ....|--- .... ....|B-4 2F.7 ....
....|..|--- .... ....|--- .... ....|G-4 2F.7 ....
....|..|--- .... ....|--- .... ....|R-- .... ....
 B-4|..|B-8 JF.F ....|--- .... ....|B-4 2C.F ....
....|..|G-1 2F.A ....|--- .... ....|R-- .... ....
 G-4|..|--- .... ....|--- .... ....|G-4 2C.F ....
....|..|--- .... ....|--- .... ....|R-- .... ....
 B-4|..|C-4 AF.F ....|--- .... ....|B-4 2C.F ....
 B-4|..|--- .... ....|--- .... ....|B-4 2C.F ....
 G-4|..|--- .... ....|--- .... ....|G-4 2C.F ....
....|..|--- .... ....|--- .... ....|R-- .... ....
 B-4|..|B-8 JF.F ....|--- .... ....|B-4 2C.F ....
....|..|R-- .... ....|--- .... ....|R-- .... ....
 G-4|..|--- .... ....|--- .... ....|G-4 2C.F ....
....|..|--- .... ....|--- .... ....|R-- .... ....
....|..|C-4 AF.F ....|--- .... ....|B-4 2F.7 ....
....|..|G-1 2F.7 ....|--- .... ....|B-4 2F.7 ....
....|..|--- .... ....|--- .... ....|G-4 2F.7 ....
....|..|--- .... ....|--- .... ....|R-- .... ....
 B-4|..|C-3 RF.F ....|--- .... ....|B-4 2C.F ....
....|..|--- .... ....|--- .... ....|R-- .... ....
 G-4|..|--- .... ....|--- .... ....|G-4 2C.F ....
....|..|--- .... ....|--- .... ....|R-- .... ....
 B-4|..|C-4 AF.F ....|--- .... ....|B-4 2C.F ....
 B-4|..|G-1 2F.F ....|--- .... ....|B-4 2C.F ....
 G-4|..|B-4 2F3F ....|--- .... ....|G-4 2C.F ....
....|..|--- .... ....|--- .... ....|R-- .... ....
 B-4|..|B-8 JF.F ....|--- .... ....|B-4 2C.F ....
....|..|--- .... ....|--- .... ....|R-- .... ....
 G-4|..|--- .... ....|--- .... ....|G-4 2C.F ....
....|..|--- .... ....|--- .... ....|R-- .... ....
....|..|C-4 AF.F ....|--- .... ....|B-4 2F.7 ....
....|..|R-- .... ....|--- .... ....|B-4 2F.7 ....
....|..|--- .... ....|--- .... ....|G-4 2F.7 ....
....|..|--- .... ....|--- .... ....|R-- .... ....
 B-4|..|B-8 JF.F ....|--- .... ....|B-4 2C.F ....
....|..|G-1 2F.A ....|--- .... ....|R-- .... ....
 G-4|..|B-4 2F3A ....|--- .... ....|G-4 2C.F ....
....|..|--- .... ....|--- .... ....|R-- .... ....
 B-4|..|C-4 AF.F ....|G-5 2F.F ....|B-4 2C.F ....
 B-4|..|--- .... ....|--- .... ....|B-4 2C.F ....
 G-4|..|--- .... ....|--- .... ....|G-4 2C.F ....
....|..|--- .... ....|--- .... ....|R-- .... ....
 B-4|..|B-8 JF.F ....|--- .... ....|B-4 2C.F ....
....|..|R-- .... ....|--- .... ....|R-- .... ....
 G-4|..|--- .... ....|R-- .... ....|G-4 2C.F ....
....|..|--- .... ....|--- .... ....|R-- .... ....
....|..|C-4 AF.F ....|--- .... ....|B-4 2F.7 ....
....|..|G-1 2F.7 ....|--- .... ....|B-4 2F.7 ....
....|..|B-4 2F37 ....|--- .... ....|G-4 2F.7 ....
....|..|--- .... ....|--- .... ....|R-- .... ....
 B-4|..|C-3 RF.F ....|G-5 2F.A ....|B-4 2C.F ....
....|..|--- .... ....|--- .... ....|R-- .... ....
 G-4|..|--- .... ....|--- .... ....|G-4 2C.F ....
....|..|--- .... ....|--- .... ....|R-- .... ....
 B-4|..|C-4 AF.F ....|G-5 2F.F ....|B-4 2C.F ....
 B-4|..|G-1 2F.F ....|--- .... ....|B-4 2C.F ....
 G-4|..|--- .F.. ....|F-5 2F.F ....|G-4 2C.F ....
....|..|--- .... ....|--- .... ....|R-- .... ....
 B-4|..|B-8 JF.F ....|--- .... ....|B-4 2C.F ....
....|..|--- .... ....|R-- .... ....|R-- .... ....
 G-4|..|--- .... ....|--- .... ....|G-4 2C.F ....
....|..|--- .... ....|--- .... ....|R-- .... ....
....|..|C-4 AF.F ....|G-5 2F.7 ....|B-4 2F.7 ....
....|..|R-- .... ....|--- .... ....|B-4 2F.7 ....
....|..|--- .... ....|--- .... ....|G-4 2F.7 ....
....|..|--- .... ....|--- .... ....|R-- .... ....
 B-4|..|B-8 JF.F ....|G-5 2F.A ....|B-4 2C.F ....
....|..|G-1 2F.A ....|--- .... ....|R-- .... ....
 G-4|..|--- .... ....|R-- .... ....|G-4 2C.F ....
....|..|--- .... ....|--- .... ....|R-- .... ....
 B-4|..|C-4 AF.F ....|A-5 2F.F ....|B-4 2C.F ....
....|..|--- .... ....|R-- .... ....|R-- .... ....
 G-4|..|--- .... ....|R-- .... ....|G-4 2C.F ....
....|..|--- .... ....|--- .... ....|R-- .... ....
 B-4|..|B-8 JF.F ....|G-5 2F.F ....|B-4 2C.F ....
....|..|R-- .... ....|--- .... ....|R-- .... ....
 G-4|..|--- .... ....|R-- .... ....|G-4 2C.F ....
....|..|--- .... ....|--- .... ....|R-- .... ....
....|..|C-4 AF.F ....|F-5 2F.F ....|B-4 2F.7 ....
....|..|G-1 2F.7 ....|--- .... ....|B-4 2F.7 ....
....|..|--- .... ....|F-5 2F.7 ....|G-4 2F.7 ....
....|..|--- .... ....|R-- .... ....|R-- .... ....
....|..|B-8 JF.F ....|G-5 2F.F ....|B-4 2F.7 ....
....|..|--- .... ....|R-- .... ....|R-- .... ....
....|..|--- .... ....|F-5 2F.F ....|G-4 2F.7 ....
....|..|--- .... ....|--- .... ....|R-- .... ....

[Pattern8]
....|..|C-4 AF.F ....|G-5 2F.A ....|A-4 2F6F ....
 D-4|..|D-2 2A.F ....|--- .... ....|R-- .... ....
....|..|D-4 2F4F ....|R-- .... ....|G-4 2F.A ....
....|..|--- .... ....|--- .... ....|R-- .... ....
....|..|B-8 JF.F ....|F-5 2F.A ....|B-4 2F.7 ....
....|..|--- .... ....|R-- .... ....|R-- .... ....
....|..|--- .... ....|--- .... ....|G-4 2F.7 ....
....|..|--- .... ....|R-- .... ....|--- .... ....
....|..|C-4 AF.F ....|A-5 2F.7 ....|B-4 2F.7 ....
....|..|R-- .... ....|R-- .... ....|R-- .... ....
....|..|--- .... ....|R-- .... ....|G-4 2F.7 ....
....|..|--- .... ....|--- .... ....|R-- .... ....
 C-4|..|B-8 JF.F ....|G-5 2F.7 ....|C-2 2A.F ....
 C-4|..|C-2 2A.F ....|--- .... ....|R-- .... ....
....|..|D-4 2F4A ....|R-- .... ....|G-4 2F.7 ....
....|..|--- .... ....|--- .... ....|R-- .... ....
 D-4|..|C-4 AF.F ....|F-5 2F.7 ....|D-2 2A.F ....
 D-4|..|D-2 2A.F ....|R-- .... ....|D-2 2A.F ....
 D-4|..|D-2 2A.F ....|--- .... ....|--- .... ....
....|..|R-- .... ....|R-- .... ....|R-- .... ....
 D-4|..|B-8 JF.F ....|G-5 2F.7 ....|D-5 2C.F ....
....|..|R-- .... ....|R-- .... ....|R-- .... ....
 D-4|..|--- .... ....|F-5 2F.7 ....|D-5 2C.F ....
....|..|--- .... ....|--- .... ....|--- .... ....
 D-4|..|C-4 AF.F ....|--- .... ....|D-5 2C.F ....
....|..|D-2 2F.7 ....|--- .... ....|--- .... ....
 C-4|..|D-4 2F47 ....|--- .... ....|C-5 2C.F ....
....|..|--- .... ....|--- .... ....|--- .... ....
 C-4|..|C-3 RF.F ....|--- .... ....|C-5 2C.F ....
....|..|D-2 2F.A ....|R-- .... ....|D-2 2F.A ....
 C-4|..|D-2 2F.A ....|--- .... ....|C-5 2C.F ....
....|..|R-- .... ....|--- .... ....|R-- .... ....
 D-4|..|C-4 AF.F ....|--- .... ....|D-5 2C.F ....
 D-4|..|D-2 2A.F ....|--- .... ....|R-- .... ....
....|..|--- .... ....|--- .... ....|D-5 2F.A ....
....|..|--- .... ....|--- .... ....|--- .... ....
....|..|B-8 JF.F ....|--- .... ....|C-2 2F.7 ....
....|..|C-2 2F.7 ....|--- .... ....|--- .... ....
....|..|--- .... ....|--- .... ....|C-5 2F.A ....
....|..|--- .... ....|--- .... ....|--- .... ....
....|..|C-4 AF.F ....|--- .... ....|D-2 2F.7 ....
....|..|D-2 2F.7 ....|--- .... ....|D-2 2F.7 ....
....|..|D-2 2F.7 ....|--- .... ....|C-5 2F.A ....
....|..|R-- .... ....|--- .... ....|R-- .... ....
 C-4|..|B-8 JF.F ....|--- .... ....|C-5 2C.F ....
 D-4|..|D-2 2A.F ....|--- .... ....|R-- .... ....
 C-4|..|--- .F.. ....|--- .... ....|C-5 2C.F ....
....|..|R-- .... ....|--- .... ....|R-- .... ....
 C-4|..|C-4 AF.F ....|--- .... ....|C-5 2C.F ....
 A-3|..|A-1 2A.F ....|--- .... ....|--- .F.. ....
 C-4|..|--- .F.. ....|--- .... ....|C-5 2C.F ....
....|..|--- .... ....|--- .... ....|--- .... ....
 B-4|..|B-8 JF.F ....|--- .... ....|B-4 2C.F ....
....|..|R-- .... ....|--- .... ....|R-- .... ....
 B-4|..|--- .... ....|--- .... ....|B-4 2C.F ....
....|..|R-- .... ....|--- .... ....|R-- .... ....
 A-3|..|C-4 AF.F ....|--- .... ....|A-4 2C.F ....
 G-3|..|G-1 2A.F ....|--- .... ....|R-- .... ....
 A-3|..|--- .F.. ....|--- .... ....|A-4 2C.F ....
....|..|R-- .... ....|--- .... ....|R-- .... ....
....|..|C-3 RF.F ....|--- .... ....|C-5 2F.A ....
 F-4|..|A-1 2F.A ....|--- .... ....|F-3 2C.F ....
 F-4|..|--- .... ....|--- .... ....|F-3 2C.F ....
 F-4|..|R-- .... ....|--- .... ....|F-2 2A.F ....
 A-3|..|C-4 AF.F ....|--- .... ....|A-4 2C.F ....
 F-4|..|F-2 2A.F ....|--- .... ....|F-3 2C.F ....
....|..|--- .... ....|--- .... ....|B-4 2F.A ....
....|..|R-- .... ....|--- .... ....|R-- .... ....
....|..|B-8 JF.F ....|--- .... ....|C-5 2F.7 ....
....|..|D-2 2F.7 ....|--- .... ....|R-- .... ....
....|..|--- .... ....|--- .... ....|C-5 2F.7 ....
....|..|R-- .... ....|--- .... ....|R-- .... ....
....|..|C-4 AF.F ....|--- .... ....|C-5 2F.7 ....
....|..|A-1 2F.7 ....|F-5 2F.F ....|F-3 2F.A ....
....|..|--- .... ....|--- .... ....|C-5 2F.7 ....
....|..|R-- .... ....|--- .... ....|F-2 2F.A ....
....|..|B-8 JF.F ....|R-- .... ....|B-4 2F.7 ....
....|..|F-1 2F.A ....|F-5 2F.F ....|R-- .... ....
....|..|--- .... ....|R-- .... ....|B-4 2F.7 ....
....|..|R-- .... ....|F-5 2F.F ....|R-- .... ....
....|..|C-4 AF.F ....|--- .... ....|A-4 2F.7 ....
....|..|G-1 2F.7 ....|--- .... ....|--- .... ....
....|..|--- .... ....|--- .... ....|A-4 2F.7 ....
....|..|--- .... ....|--- .... ....|--- .... ....
....|..|B-8 JF.F ....|R-- .... ....|--- .... ....
....|..|--- .... ....|F-5 2F.F ....|F-3 2F.7 ....
....|..|--- .... ....|R-- .... ....|F-3 2F.7 ....
....|..|R-- .... ....|--- .... ....|F-2 2F.7 ....
....|..|C-4 AF.F ....|R-- .... ....|A-4 2F.7 ....
....|..|F-1 2F.7 ....|F-5 2F.F ....|F-3 2F.7 ....
....|..|--- .... ....|R-- .... ....|--- .... ....
....|..|--- .... ....|R-- .... ....|--- .... ....
....|..|C-3 RF.F ....|--- .... ....|--- .... ....
....|..|--- .... ....|F-5 2F.F ....|--- .... ....
....|..|--- .... ....|--- .... ....|--- .... ....
....|..|R-- .... ....|R-- .... ....|R-- .... ....
 G-4|..|C-4 AF.F ....|R-- .... ....|G-4 2C.F ....
 G-4|..|C-2 2F.F ....|F-5 2F.7 ....|G-3 2C.F ....
....|..|--- .... ....|R-- .... ....|--- .... ....
....|..|--- .... ....|--- .... ....|--- .... ....
....|..|B-8 JF.F ....|R-- .... ....|R-- .... ....
....|..|--- .... ....|F-5 2F.7 ....|--- .... ....
....|..|--- .... ....|E-5 2F.F ....|--- .... ....
....|..|--- .... ....|F-5 2F.7 ....|--- .... ....
....|..|C-4 AF.F ....|--- .... ....|--- .... ....
....|..|--- .... ....|E-5 2F.F ....|--- .... ....
....|..|--- .... ....|--- .... ....|--- .... ....
....|..|R-- .... ....|R-- .... ....|R-- .... ....
....|..|B-8 JF.F ....|R-- .... ....|G-4 2F.A ....
....|..|C-2 2F.A ....|E-5 2F.F ....|G-3 2F.A ....
....|..|--- .... ....|R-- .... ....|--- .... ....
....|..|--- .... ....|R-- .... ....|--- .... ....
....|..|C-4 AF.F ....|--- .... ....|R-- .... ....
....|..|--- .... ....|E-5 2F.F ....|--- .... ....
....|..|--- .... ....|E-5 2F.A ....|--- .... ....
....|..|--- .... ....|R-- .... ....|--- .... ....
....|..|B-8 JF.F ....|R-- .... ....|--- .... ....
....|..|--- .... ....|D-5 2F.F ....|--- .... ....
....|..|--- .... ....|--- .... ....|--- .... ....
....|..|R-- .... ....|R-- .... ....|R-- .... ....
....|..|C-4 AF.F ....|R-- .... ....|G-4 2F.7 ....
....|..|C-2 2F.7 ....|E-5 2F.A ....|G-3 2F.7 ....
....|..|--- .... ....|--- .... ....|--- .... ....
....|..|--- .... ....|R-- .... ....|--- .... ....
....|..|B-8 JF.F ....|C-5 2F.F ....|--- .... ....
....|..|--- .... ....|E-5 2F.A ....|R-- .... ....
....|..|--- .... ....|E-5 2F.7 ....|--- .... ....
....|..|R-- .... ....|R-- .... ....|R-- .... ....

[Pattern9]
 D-4|..|C-4 AF.F ....|R-- .... ....|D-2 2A.F ....
 D-4|..|D-2 2A.F ....|D-5 2F.F ....|--- .... ....
....|..|--- .... ....|--- .... ....|--- .... ....
....|..|--- .... ....|R-- .... ....|--- .... ....
....|..|B-8 JF.7 ....|R-- .... ....|R-- .... ....
....|..|--- .... ....|E-5 2F.7 ....|--- .... ....
....|..|--- .... ....|R-- .... ....|--- .... ....
....|..|--- .... ....|R-- .... ....|--- .... ....
....|..|C-4 AF.7 ....|C-5 2F.A ....|--- .... ....
....|..|--- .... ....|E-5 2F.7 ....|R-- .... ....
....|..|--- .... ....|--- .... ....|--- .... ....
....|..|R-- .... ....|--- .... ....|R-- .... ....
....|..|B-8 JF.7 ....|R-- .... ....|D-2 2F.A ....
....|..|D-2 2F.A ....|D-5 2F.7 ....|--- .... ....
....|..|--- .... ....|--- .... ....|--- .... ....
....|..|--- .... ....|--- .... ....|--- .... ....
....|..|C-4 AF.7 ....|R-- .... ....|R-- .... ....
....|..|--- .... ....|--- .... ....|--- .... ....
....|..|--- .... ....|R-- .... ....|--- .... ....
....|..|--- .... ....|--- .... ....|--- .... ....
....|..|B-8 JF.7 ....|C-5 2F.7 ....|--- .... ....
....|..|--- .... ....|--- .... ....|R-- .... ....
....|..|--- .... ....|--- .... ....|--- .... ....
....|..|R-- .... ....|--- .... ....|R-- .... ....
....|..|C-4 AF.7 ....|R-- .... ....|D-2 2F.7 ....
....|..|D-2 2F.7 ....|D-5 2F.7 ....|--- .... ....
....|..|--- .... ....|--- .... ....|--- .... ....
....|..|--- .... ....|--- .... ....|--- .... ....
....|..|--- .... ....|--- .... ....|--- .... ....
....|..|--- .... ....|--- .... ....|--- .... ....
....|..|--- .... ....|R-- .... ....|--- .... ....
....|..|--- .... ....|--- .... ....|--- .... ....
....|..|R-- .... ....|--- .... ....|R-- .... ....
....|..|--- .... ....|--- .... ....|--- .... ....
....|..|--- .... ....|--- .... ....|--- .... ....
....|..|--- .... ....|--- .... ....|--- .... ....
....|..|--- .... ....|--- .... ....|--- .... ....
....|..|--- .... ....|--- .... ....|--- .... ....
....|..|--- .... ....|--- .... ....|--- .... ....
....|..|--- .... ....|--- .... ....|--- .... ....
....|..|--- .... ....|--- .... ....|--- .... ....
....|..|--- .... ....|--- .... ....|--- .... ....
....|..|--- .... ....|--- .... ....|--- .... ....
....|..|--- .... ....|--- .... ....|--- .... ....
....|..|R-- .... ....|--- .... ....|R-- .... ....
....|..|--- .... ....|--- .... ....|--- .... ....
....|..|--- .... ....|--- .... ....|--- .... ....
....|..|--- .... ....|--- .... ....|--- .... ....
....|..|--- .... ....|--- .... ....|--- .... ....
....|..|--- .... ....|--- .... ....|--- .... ....
....|..|--- .... ....|--- .... ....|--- .... ....
....|..|--- .... ....|--- .... ....|--- .... ....
....|..|--- .... ....|--- .... ....|--- .... ....
....|..|--- .... ....|--- .... ....|--- .... ....
....|..|--- .... ....|--- .... ....|--- .... ....
....|..|--- .... ....|--- .... ....|--- .... ....
....|..|R-- .... ....|--- .... ....|R-- .... ....
....|..|--- .... ....|--- .... ....|--- .... ....
....|..|--- .... ....|--- .... ....|--- .... ....
....|..|--- .... ....|--- .... ....|--- .... ....
....|..|--- .... ....|--- .... ....|--- .... ....
....|..|--- .... ....|--- .... ....|--- .... ....
....|..|--- .... ....|--- .... ....|--- .... ....
....|..|--- .... ....|--- .... ....|--- .... ....
....|..|C-4 AF.F ....|D-5 2F.F ....|G-4 2F8F ....
 D-4|..|D-2 2A.F ....|--- .... ....|R-- .... ....
 D-4|..|C-4 LF.F ....|--- .... ....|D-2 2A.F ....
 D-4|..|D-2 2A.F ....|--- .... ....|--- .... ....
....|..|B-8 JF.F ....|E-5 2F.F ....|R-- .... ....
....|..|R-- .... ....|--- .... ....|--- .... ....
 D-4|..|C-4 LF.F ....|D-2 2A.F ....|--- .... ....
....|..|--- .... ....|R-- .... ....|--- .... ....
....|..|C-4 AF.F ....|--- .... ....|--- .... ....
....|..|--- .... ....|--- .... ....|--- .... ....
....|..|C-4 LF.F ....|--- .... ....|--- .... ....
....|..|--- .... ....|--- .... ....|--- .... ....
 D-4|..|B-8 JF.F ....|F-5 2F.F ....|D-2 2A.F ....
 D-4|..|D-2 2A.F ....|R-- .... ....|R-- .... ....
 D-4|..|C-4 LF.F ....|--- .... ....|D-2 2A.F ....
 D-4|..|D-2 2A.F ....|--- .... ....|--- .... ....
....|..|C-4 AF.F ....|E-5 2F.A ....|R-- .... ....
....|..|R-- .... ....|--- .... ....|--- .... ....
....|..|C-4 LF.F ....|D-2 2F.A ....|--- .... ....
....|..|--- .... ....|R-- .... ....|--- .... ....
....|..|B-8 JF.F ....|E-5 2F.F ....|--- .... ....
....|..|--- .... ....|R-- .... ....|--- .... ....
....|..|C-4 LF.F ....|--- .... ....|--- .... ....
....|..|--- .... ....|--- .... ....|--- .... ....
....|..|C-4 AF.F ....|D-5 2F.7 ....|G-4 2F87 ....
....|..|D-2 2F.7 ....|R-- .... ....|R-- .... ....
....|..|C-4 LF.F ....|--- .... ....|D-2 2F.7 ....
....|..|D-2 2F.7 ....|--- .... ....|--- .... ....
....|..|B-8 JF.F ....|E-5 2F.7 ....|R-- .... ....
....|..|R-- .... ....|--- .... ....|--- .... ....
....|..|C-4 LF.F ....|D-2 2F.7 ....|--- .... ....
....|..|--- .... ....|R-- .... ....|--- .... ....
 D-4|..|C-4 AF.F ....|D-5 2F.F ....|D-2 2A.F ....
 D-4|..|D-2 2A.F ....|R-- .... ....|R-- .... ....
 D-4|..|C-4 LF.F ....|--- .... ....|D-2 2A.F ....
 D-4|..|D-2 2A.F ....|--- .... ....|--- .... ....
....|..|B-8 JF.F ....|F-5 2F.7 ....|D-2 2F.7 ....
....|..|D-2 2F.7 ....|R-- .... ....|R-- .... ....
 D-4|..|C-4 LF.F ....|D-2 2A.F ....|D-2 2F.7 ....
....|..|D-2 2F.7 ....|R-- .... ....|--- .... ....
....|..|C-4 AF.F ....|E-5 2F.F ....|R-- .... ....
....|..|R-- .... ....|--- .... ....|--- .... ....
....|..|C-4 LF.F ....|--- .... ....|--- .... ....
....|..|--- .... ....|--- .... ....|--- .... ....
 D-4|..|B-8 JF.F ....|F-5 2F.F ....|D-2 2A.F ....
 D-4|..|D-2 2A.F ....|R-- .... ....|R-- .... ....
 D-4|..|C-4 LF.F ....|--- .... ....|D-2 2A.F ....
 D-4|..|D-2 2A.F ....|--- .... ....|--- .... ....
....|..|C-4 AF.F ....|--- .... ....|R-- .... ....
....|..|R-- .... ....|--- .... ....|--- .... ....
....|..|C-4 LF.F ....|D-2 2F.A ....|--- .... ....
....|..|--- .... ....|R-- .... ....|--- .... ....
....|..|B-8 JF.F ....|E-5 2F.F ....|--- .... ....
....|..|--- .... ....|R-- .... ....|--- .... ....
....|..|C-4 LF.F ....|--- .... ....|--- .... ....
....|..|--- .... ....|--- .... ....|--- .... ....
....|..|C-4 AF.F ....|D-5 2F.7 ....|D-2 2F.7 ....
....|..|D-2 2F.7 ....|R-- .... ....|R-- .... ....
....|..|C-4 LF.F ....|--- .... ....|D-2 2F.7 ....
....|..|D-2 2F.7 ....|--- .... ....|--- .... ....
....|..|B-8 JF.F ....|--- .... ....|R-- .... ....
....|..|R-- .... ....|--- .... ....|--- .... ....
....|..|C-4 LF.F ....|D-2 2F.7 ....|--- .... ....
....|..|--- .... ....|R-- .... ....|--- .... ....

[Pattern10]
 D-4|..|C-4 AF.F ....|E-5 2F.7 ....|D-2 2A.F ....
 D-4|..|D-2 2A.F ....|R-- .... ....|R-- .... ....
 D-4|..|C-4 LF.F ....|--- .... ....|D-2 2A.F ....
 D-4|..|D-2 2A.F ....|--- .... ....|--- .... ....
....|..|B-8 JF.F ....|F-5 2F.7 ....|D-2 2F.7 ....
....|..|D-2 2F.7 ....|R-- .... ....|R-- .... ....
 D-4|..|C-4 LF.F ....|D-2 2A.F ....|D-2 2F.7 ....
....|..|D-2 2F.7 ....|R-- .... ....|--- .... ....
....|..|C-4 AF.F ....|--- .... ....|R-- .... ....
....|..|R-- .... ....|--- .... ....|--- .... ....
....|..|C-4 LF.F ....|--- .... ....|--- .... ....
....|..|--- .... ....|R-- .... ....|--- .... ....
 D-4|..|B-8 JF.F ....|D-2 2A.F ....|D-2 2A.F ....
 D-4|..|D-2 2A.F ....|R-- .... ....|R-- .... ....
 D-4|..|C-4 LF.F ....|--- .... ....|D-2 2A.F ....
 D-4|..|D-2 2A.F ....|--- .... ....|--- .... ....
....|..|C-4 AF.F ....|--- .... ....|F-4 2F9F ....
....|..|R-- .... ....|--- .... ....|--- .... ....
....|..|C-4 LF.F ....|D-2 2F.A ....|--- .... ....
....|..|--- .... ....|R-- .... ....|--- .... ....
 D-4|..|B-8 JF.F ....|D-2 2A.F ....|--- .... ....
....|..|--- .... ....|R-- .... ....|--- .... ....
....|..|C-4 LF.F ....|--- .... ....|--- .... ....
....|..|--- .... ....|R-- .... ....|--- .... ....
....|..|C-4 AF.F ....|D-2 2F.A ....|D-2 2F.7 ....
....|..|D-2 2F.7 ....|R-- .... ....|R-- .... ....
....|..|C-4 LF.F ....|--- .... ....|D-2 2F.7 ....
....|..|D-2 2F.7 ....|--- .... ....|--- .... ....
....|..|B-8 JF.F ....|--- .... ....|R-- .... ....
....|..|R-- .... ....|--- .... ....|--- .... ....
....|..|C-4 LF.F ....|D-2 2F.7 ....|--- .... ....
....|..|--- .... ....|R-- .... ....|--- .... ....
 D-4|..|C-4 AF.F ....|D-2 2F.A ....|D-2 2A.F ....
 D-4|..|D-2 2A.F ....|R-- .... ....|R-- .... ....
 D-4|..|C-4 LF.F ....|--- .... ....|D-2 2A.F ....
 D-4|..|D-2 2A.F ....|--- .... ....|--- .... ....
....|..|B-8 JF.F ....|D-2 2F.7 ....|D-2 2F.7 ....
....|..|D-2 2F.7 ....|R-- .... ....|R-- .... ....
 D-4|..|C-4 LF.F ....|D-2 2A.F ....|D-2 2F.7 ....
....|..|D-2 2F.7 ....|R-- .... ....|--- .... ....
....|..|C-4 AF.F ....|--- .... ....|F-4 2F97 ....
....|..|R-- .... ....|--- .... ....|--- .... ....
....|..|C-4 LF.F ....|--- .... ....|--- .... ....
....|..|--- .... ....|--- .... ....|--- .... ....
 D-4|..|B-8 JF.F ....|D-2 2A.F ....|D-2 2A.F ....
 D-4|..|D-2 2A.F ....|R-- .... ....|R-- .... ....
 D-4|..|C-4 LF.F ....|--- .... ....|D-2 2A.F ....
 D-4|..|D-2 2A.F ....|--- .... ....|--- .... ....
....|..|C-4 AF.F ....|--- .... ....|R-- .... ....
....|..|R-- .... ....|--- .... ....|--- .... ....
....|..|C-4 LF.F ....|D-2 2F.A ....|--- .... ....
....|..|--- .... ....|R-- .... ....|--- .... ....
 D-4|..|B-8 JF.F ....|D-2 2A.F ....|--- .... ....
....|..|--- .... ....|R-- .... ....|--- .... ....
....|..|C-4 LF.F ....|--- .... ....|--- .... ....
....|..|--- .... ....|--- .... ....|--- .... ....
....|..|C-4 AF.F ....|D-2 2F.A ....|D-2 2F.7 ....
....|..|D-2 2F.7 ....|R-- .... ....|R-- .... ....
....|..|C-4 LF.F ....|--- .... ....|D-2 2F.7 ....
....|..|D-2 2F.7 ....|--- .... ....|--- .... ....
....|..|B-8 JF.F ....|--- .... ....|R-- .... ....
....|..|R-- .... ....|--- .... ....|--- .... ....
....|..|C-4 LF.F ....|D-2 2F.7 ....|--- .... ....
....|..|--- .... ....|R-- .... ....|--- .... ....
....|..|C-4 AF.F ....|D-5 2F.F ....|G-4 2F8F ....
 D-4|..|D-2 2A.F ....|R-- .... ....|R-- .... ....
 D-4|..|C-4 LF.F ....|--- .... ....|D-2 2A.F ....
 D-4|..|D-2 2A.F ....|--- .... ....|--- .... ....
....|..|B-8 JF.F ....|E-5 2F.F ....|D-2 2F.7 ....
....|..|D-2 2F.7 ....|R-- .... ....|R-- .... ....
 D-4|..|C-4 LF.F ....|D-2 2A.F ....|D-2 2F.7 ....
....|..|D-2 2F.7 ....|R-- .... ....|--- .... ....
....|..|C-4 AF.F ....|--- .... ....|R-- .... ....
....|..|R-- .... ....|--- .... ....|--- .... ....
....|..|C-4 LF.F ....|--- .... ....|--- .... ....
....|..|--- .... ....|--- .... ....|--- .... ....
 D-4|..|B-8 JF.F ....|F-5 2F.F ....|D-2 2A.F ....
 D-4|..|D-2 2A.F ....|R-- .... ....|R-- .... ....
 D-4|..|C-4 LF.F ....|--- .... ....|D-2 2A.F ....
 D-4|..|D-2 2A.F ....|--- .... ....|--- .... ....
....|..|C-4 AF.F ....|E-5 2F.A ....|R-- .... ....
....|..|R-- .... ....|--- .... ....|--- .... ....
....|..|C-4 LF.F ....|D-2 2F.A ....|--- .... ....
....|..|--- .... ....|R-- .... ....|--- .... ....
....|..|B-8 JF.F ....|E-5 2F.F ....|--- .... ....
....|..|--- .... ....|R-- .... ....|--- .... ....
....|..|C-4 LF.F ....|--- .... ....|--- .... ....
....|..|--- .... ....|--- .... ....|--- .... ....
....|..|C-4 AF.F ....|D-5 2F.7 ....|G-4 2F87 ....
....|..|D-2 2F.7 ....|R-- .... ....|R-- .... ....
....|..|C-4 LF.F ....|--- .... ....|D-2 2F.7 ....
....|..|D-2 2F.7 ....|--- .... ....|--- .... ....
....|..|B-8 JF.F ....|E-5 2F.7 ....|R-- .... ....
....|..|R-- .... ....|--- .... ....|--- .... ....
....|..|C-4 LF.F ....|D-2 2F.7 ....|--- .... ....
....|..|--- .... ....|R-- .... ....|--- .... ....
 D-4|..|C-4 AF.F ....|D-5 2F.F ....|D-2 2A.F ....
 D-4|..|D-2 2A.F ....|R-- .... ....|R-- .... ....
 D-4|..|C-4 LF.F ....|--- .... ....|D-2 2A.F ....
 D-4|..|D-2 2A.F ....|--- .... ....|--- .... ....
....|..|B-8 JF.F ....|F-5 2F.7 ....|D-2 2F.7 ....
....|..|D-2 2F.7 ....|R-- .... ....|R-- .... ....
 D-4|..|C-4 LF.F ....|D-2 2A.F ....|D-2 2F.7 ....
....|..|D-2 2F.7 ....|R-- .... ....|--- .... ....
....|..|C-4 AF.F ....|E-5 2F.F ....|R-- .... ....
....|..|R-- .... ....|--- .... ....|--- .... ....
....|..|C-4 LF.F ....|--- .... ....|--- .... ....
....|..|--- .... ....|--- .... ....|--- .... ....
 D-4|..|B-8 JF.F ....|F-5 2F.F ....|D-2 2A.F ....
 D-4|..|D-2 2A.F ....|R-- .... ....|R-- .... ....
 D-4|..|C-4 LF.F ....|--- .... ....|D-2 2A.F ....
 D-4|..|D-2 2A.F ....|--- .... ....|--- .... ....
....|..|C-4 AF.F ....|--- .... ....|R-- .... ....
....|..|R-- .... ....|--- .... ....|--- .... ....
....|..|C-4 LF.F ....|D-2 2F.A ....|--- .... ....
....|..|--- .... ....|R-- .... ....|--- .... ....
 D-4|..|B-8 JF.F ....|D-2 2A.F ....|--- .... ....
....|..|--- .... ....|R-- .... ....|--- .... ....
....|..|C-4 LF.F ....|--- .... ....|--- .... ....
....|..|--- .... ....|--- .... ....|--- .... ....
....|..|C-4 AF.F ....|D-5 2F.7 ....|D-2 2F.7 ....
....|..|D-2 2F.7 ....|R-- .... ....|R-- .... ....
....|..|C-4 LF.F ....|--- .... ....|D-2 2F.7 ....
....|..|D-2 2F.7 ....|--- .... ....|--- .... ....
....|..|B-8 JF.F ....|--- .... ....|R-- .... ....
....|..|R-- .... ....|--- .... ....|--- .... ....
....|..|C-4 LF.F ....|D-2 2F.7 ....|--- .... ....
....|..|--- .... ....|R-- .... ....|--- .... ....

[Pattern11]
 D-4|..|C-4 AF.F ....|E-5 2F.7 ....|D-2 2A.F ....
 D-4|..|D-2 2A.F ....|R-- .... ....|R-- .... ....
 D-4|..|C-4 LF.F ....|--- .... ....|D-2 2A.F ....
 D-4|..|D-2 2A.F ....|--- .... ....|--- .... ....
....|..|B-8 JF.F ....|F-5 2F.7 ....|D-2 2F.7 ....
....|..|D-2 2F.7 ....|R-- .... ....|R-- .... ....
 D-4|..|C-4 LF.F ....|D-2 2A.F ....|D-2 2F.7 ....
....|..|D-2 2F.7 ....|R-- .... ....|--- .... ....
....|..|C-4 AF.F ....|--- .... ....|R-- .... ....
....|..|R-- .... ....|--- .... ....|--- .... ....
....|..|C-4 LF.F ....|--- .... ....|--- .... ....
....|..|--- .... ....|--- .... ....|--- .... ....
 D-4|..|B-8 JF.F ....|D-2 2A.F ....|D-2 2A.F ....
 D-4|..|D-2 2A.F ....|R-- .... ....|R-- .... ....
 D-4|..|C-4 LF.F ....|--- .... ....|D-2 2A.F ....
 D-4|..|D-2 2A.F ....|--- .... ....|--- .... ....
....|..|C-4 AF.F ....|--- .... ....|F-4 2F9F ....
....|..|R-- .... ....|--- .... ....|--- .... ....
....|..|C-4 LF.F ....|D-2 2F.A ....|--- .... ....
....|..|--- .... ....|R-- .... ....|--- .... ....
 D-4|..|B-8 JF.F ....|D-2 2A.F ....|--- .... ....
....|..|--- .... ....|R-- .... ....|--- .... ....
....|..|C-4 LF.F ....|--- .... ....|--- .... ....
....|..|--- .... ....|--- .... ....|--- .... ....
....|..|C-4 AF.F ....|D-2 2F.A ....|D-2 2F.7 ....
....|..|D-2 2F.7 ....|R-- .... ....|R-- .... ....
....|..|C-4 LF.F ....|--- .... ....|D-2 2F.7 ....
....|..|D-2 2F.7 ....|--- .... ....|--- .... ....
....|..|B-8 JF.F ....|--- .... ....|R-- .... ....
....|..|R-- .... ....|--- .... ....|--- .... ....
....|..|C-4 LF.F ....|D-2 2F.7 ....|--- .... ....
....|..|--- .... ....|R-- .... ....|--- .... ....
 D-4|..|C-4 AF.F ....|D-2 2F.A ....|D-2 2A.F ....
 D-4|..|D-2 2A.F ....|R-- .... ....|R-- .... ....
 D-4|..|C-4 LF.F ....|--- .... ....|D-2 2A.F ....
 D-4|..|D-2 2A.F ....|--- .... ....|--- .... ....
....|..|B-8 JF.F ....|D-2 2F.7 ....|D-2 2F.7 ....
....|..|D-2 2F.7 ....|R-- .... ....|R-- .... ....
 D-4|..|C-4 LF.F ....|D-2 2A.F ....|D-2 2F.7 ....
....|..|D-2 2F.7 ....|R-- .... ....|--- .... ....
....|..|C-4 AF.F ....|--- .... ....|F-4 2F97 ....
....|..|R-- .... ....|--- .... ....|--- .... ....
....|..|C-4 LF.F ....|--- .... ....|--- .... ....
....|..|--- .... ....|--- .... ....|--- .... ....
 D-4|..|B-8 JF.F ....|D-2 2A.F ....|D-2 2A.F ....
 D-4|..|D-2 2A.F ....|R-- .... ....|R-- .... ....
 D-4|..|C-4 LF.F ....|--- .... ....|D-2 2A.F ....
 D-4|..|D-2 2A.F ....|--- .... ....|--- .... ....
....|..|C-4 AF.F ....|--- .... ....|R-- .... ....
....|..|R-- .... ....|--- .... ....|--- .... ....
....|..|C-4 LF.F ....|D-2 2F.A ....|--- .... ....
....|..|--- .... ....|R-- .... ....|--- .... ....
 D-4|..|B-8 JF.F ....|D-2 2A.F ....|--- .... ....
....|..|--- .... ....|R-- .... ....|--- .... ....
....|..|C-4 LF.F ....|--- .... ....|--- .... ....
....|..|--- .... ....|--- .... ....|--- .... ....
....|..|C-4 AF.F ....|D-2 2F.A ....|D-2 2F.7 ....
....|..|D-2 2F.7 ....|R-- .... ....|R-- .... ....
....|..|C-4 LF.F ....|--- .... ....|D-2 2F.7 ....
....|..|D-2 2F.7 ....|--- .... ....|--- .... ....
....|..|B-8 JF.F ....|A-4 2F.F ....|R-- .... ....
....|..|R-- .... ....|--- .... ....|--- .... ....
....|..|C-4 LF.F ....|D-2 2F.7 ....|--- .... ....
....|..|--- .... ....|R-- .... ....|--- .... ....
....|..|C-4 AF.F ....|D-5 2F.F ....|G-4 2F8F ....
 D-4|..|D-2 2A.F ....|R-- .... ....|R-- .... ....
 D-4|..|C-4 LF.F ....|--- .... ....|D-2 2A.F ....
 D-4|..|D-2 2A.F ....|--- .... ....|--- .... ....
....|..|B-8 JF.F ....|D-2 2F.7 ....|D-2 2F.7 ....
....|..|D-2 2F.7 ....|R-- .... ....|R-- .... ....
 D-4|..|C-4 LF.F ....|D-2 2A.F ....|D-2 2F.7 ....
....|..|D-2 2F.7 ....|R-- .... ....|--- .... ....
....|..|C-4 AF.F ....|E-5 2F.F ....|R-- .... ....
....|..|R-- .... ....|--- .... ....|--- .... ....
....|..|C-4 LF.F ....|--- .... ....|--- .... ....
....|..|--- .... ....|R-- .... ....|--- .... ....
 D-4|..|B-8 JF.F ....|F-5 2F.F ....|D-2 2A.F ....
 D-4|..|D-2 2A.F ....|R-- .... ....|R-- .... ....
 D-4|..|C-4 LF.F ....|--- .... ....|D-2 2A.F ....
 D-4|..|D-2 2A.F ....|--- .... ....|--- .... ....
....|..|C-4 AF.F ....|--- .... ....|R-- .... ....
....|..|R-- .... ....|R-- .... ....|--- .... ....
....|..|C-4 LF.F ....|D-2 2F.A ....|--- .... ....
....|..|--- .... ....|R-- .... ....|--- .... ....
....|..|B-8 JF.F ....|E-5 2F.F ....|--- .... ....
....|..|--- .... ....|R-- .... ....|--- .... ....
....|..|C-4 LF.F ....|--- .... ....|--- .... ....
....|..|--- .... ....|R-- .... ....|--- .... ....
....|..|C-4 AF.F ....|D-5 2F.7 ....|G-4 2F87 ....
....|..|D-2 2F.7 ....|R-- .... ....|R-- .... ....
....|..|C-4 LF.F ....|--- .... ....|D-2 2F.7 ....
....|..|D-2 2F.7 ....|--- .... ....|--- .... ....
....|..|B-8 JF.F ....|--- .... ....|R-- .... ....
....|..|R-- .... ....|R-- .... ....|--- .... ....
....|..|C-4 LF.F ....|D-2 2F.7 ....|--- .... ....
....|..|--- .... ....|R-- .... ....|--- .... ....
 D-4|..|C-4 AF.F ....|D-5 2F.F ....|D-2 2A.F ....
 D-4|..|D-2 2A.F ....|R-- .... ....|R-- .... ....
 D-4|..|C-4 LF.F ....|--- .... ....|D-2 2A.F ....
 D-4|..|D-2 2A.F ....|R-- .... ....|--- .... ....
....|..|B-8 JF.F ....|F-5 2F.7 ....|D-2 2F.7 ....
....|..|D-2 2F.7 ....|R-- .... ....|R-- .... ....
 D-4|..|C-4 LF.F ....|D-2 2A.F ....|D-2 2F.7 ....
....|..|D-2 2F.7 ....|R-- .... ....|--- .... ....
....|..|C-4 AF.F ....|E-5 2F.F ....|R-- .... ....
....|..|R-- .... ....|--- .... ....|--- .... ....
....|..|C-4 LF.F ....|R-- .... ....|--- .... ....
....|..|--- .... ....|R-- .... ....|--- .... ....
 D-4|..|B-8 JF.F ....|F-5 2F.F ....|D-2 2A.F ....
 D-4|..|D-2 2A.F ....|R-- .... ....|R-- .... ....
 D-4|..|C-4 LF.F ....|--- .... ....|D-2 2A.F ....
 D-4|..|D-2 2A.F ....|--- .... ....|--- .... ....
....|..|C-4 AF.F ....|--- .... ....|R-- .... ....
....|..|R-- .... ....|--- .... ....|--- .... ....
....|..|C-4 LF.F ....|D-2 2F.A ....|--- .... ....
....|..|--- .... ....|R-- .... ....|--- .... ....
....|..|B-8 JF.F ....|E-5 2F.F ....|--- .... ....
....|..|--- .... ....|R-- .... ....|--- .... ....
....|..|C-4 LF.F ....|R-- .... ....|--- .... ....
....|..|--- .... ....|--- .... ....|--- .... ....
....|..|C-4 AF.F ....|D-5 2F.7 ....|D-2 2F.7 ....
....|..|D-2 2F.7 ....|R-- .... ....|R-- .... ....
....|..|C-4 LF.F ....|--- .... ....|D-2 2F.7 ....
....|..|D-2 2F.7 ....|--- .... ....|--- .... ....
....|..|B-8 JF.F ....|--- .... ....|R-- .... ....
....|..|R-- .... ....|--- .... ....|--- .... ....
....|..|C-4 LF.F ....|D-2 2F.7 ....|--- .... ....
....|..|--- .... ....|R-- .... ....|--- .... ....

[Pattern12]
 D-4|..|C-4 AF.F ....|E-5 2F.7 ....|D-2 2A.F ....
 D-4|..|D-2 2A.F ....|R-- .... ....|R-- .... ....
 D-4|..|C-4 LF.F ....|--- .... ....|D-2 2A.F ....
 D-4|..|D-2 2A.F ....|--- .... ....|--- .... ....
....|..|B-8 JF.F ....|F-5 2F.7 ....|D-2 2F.7 ....
....|..|D-2 2F.7 ....|R-- .... ....|R-- .... ....
 D-4|..|C-4 LF.F ....|D-2 2A.F ....|D-2 2F.7 ....
....|..|D-2 2F.7 ....|R-- .... ....|--- .... ....
....|..|C-4 AF.F ....|--- .... ....|R-- .... ....
....|..|R-- .... ....|--- .... ....|--- .... ....
....|..|C-4 LF.F ....|R-- .... ....|--- .... ....
....|..|--- .... ....|R-- .... ....|--- .... ....
 D-4|..|B-8 JF.F ....|D-2 2A.F ....|D-2 2A.F ....
 D-4|..|D-2 2A.F ....|R-- .... ....|R-- .... ....
 D-4|..|C-4 LF.F ....|--- .... ....|D-2 2A.F ....
 D-4|..|D-2 2A.F ....|--- .... ....|--- .... ....
....|..|C-4 AF.F ....|--- .... ....|F-4 2F9F ....
....|..|R-- .... ....|--- .... ....|--- .... ....
....|..|C-4 LF.F ....|D-2 2F.A ....|--- .... ....
....|..|--- .... ....|R-- .... ....|--- .... ....
 D-4|..|B-8 JF.F ....|D-2 2A.F ....|--- .... ....
....|..|--- .... ....|R-- .... ....|--- .... ....
....|..|C-4 LF.F ....|R-- .... ....|--- .... ....
....|..|--- .... ....|--- .... ....|--- .... ....
....|..|C-4 AF.F ....|D-2 2F.A ....|D-2 2F.7 ....
....|..|D-2 2F.7 ....|R-- .... ....|R-- .... ....
....|..|C-4 LF.F ....|--- .... ....|D-2 2F.7 ....
....|..|D-2 2F.7 ....|--- .... ....|--- .... ....
....|..|B-8 JF.F ....|--- .... ....|R-- .... ....
....|..|R-- .... ....|--- .... ....|--- .... ....
....|..|C-4 LF.F ....|D-2 2F.7 ....|--- .... ....
....|..|--- .... ....|R-- .... ....|--- .... ....
 D-4|..|C-4 AF.F ....|D-2 2F.A ....|D-2 2A.F ....
 D-4|..|D-2 2A.F ....|R-- .... ....|R-- .... ....
 D-4|..|C-4 LF.F ....|--- .... ....|D-2 2A.F ....
 D-4|..|D-2 2A.F ....|--- .... ....|--- .... ....
....|..|B-8 JF.F ....|D-2 2F.7 ....|D-2 2F.7 ....
....|..|D-2 2F.7 ....|R-- .... ....|R-- .... ....
 D-4|..|C-4 LF.F ....|D-2 2A.F ....|D-2 2F.7 ....
....|..|D-2 2F.7 ....|R-- .... ....|--- .... ....
....|..|C-4 AF.F ....|--- .... ....|F-4 2F97 ....
....|..|R-- .... ....|--- .... ....|--- .... ....
....|..|C-4 LF.F ....|--- .... ....|--- .... ....
....|..|--- .... ....|--- .... ....|--- .... ....
 D-4|..|B-8 JF.F ....|D-2 2A.F ....|D-2 2A.F ....
 D-4|..|D-2 2A.F ....|R-- .... ....|R-- .... ....
 D-4|..|C-4 LF.F ....|--- .... ....|D-2 2A.F ....
 D-4|..|D-2 2A.F ....|--- .... ....|--- .... ....
....|..|C-4 AF.F ....|--- .... ....|R-- .... ....
....|..|R-- .... ....|--- .... ....|--- .... ....
....|..|C-4 LF.F ....|D-2 2F.A ....|--- .... ....
....|..|--- .... ....|R-- .... ....|--- .... ....
 D-4|..|B-8 JF.F ....|D-2 2A.F ....|--- .... ....
....|..|--- .... ....|R-- .... ....|--- .... ....
....|..|C-4 LF.F ....|--- .... ....|--- .... ....
....|..|--- .... ....|--- .... ....|--- .... ....
....|..|C-4 AF.F ....|D-2 2F.A ....|D-2 2F.7 ....
....|..|D-2 2F.7 ....|R-- .... ....|R-- .... ....
....|..|C-4 LF.F ....|--- .... ....|D-2 2F.7 ....
....|..|D-2 2F.7 ....|--- .... ....|--- .... ....
....|..|B-8 JF.F ....|--- .... ....|R-- .... ....
....|..|R-- .... ....|--- .... ....|--- .... ....
....|..|C-4 LF.F ....|D-2 2F.7 ....|--- .... ....
....|..|--- .... ....|R-- .... ....|--- .... ....
....|..|C-4 AF.F ....|D-5 2F.F ....|G-4 2F8F ....
 D-4|..|D-2 2A.F ....|R-- .... ....|R-- .... ....
 D-4|..|C-4 LF.F ....|--- .... ....|D-2 2A.F ....
 D-4|..|D-2 2A.F ....|--- .... ....|--- .... ....
....|..|B-8 JF.F ....|E-5 2F.F ....|D-2 2F.7 ....
....|..|D-2 2F.7 ....|R-- .... ....|R-- .... ....
 D-4|..|C-4 LF.F ....|D-2 2A.F ....|D-2 2F.7 ....
....|..|D-2 2F.7 ....|R-- .... ....|--- .... ....
....|..|C-4 AF.F ....|--- .... ....|R-- .... ....
....|..|R-- .... ....|--- .... ....|--- .... ....
....|..|C-4 LF.F ....|--- .... ....|--- .... ....
....|..|--- .... ....|--- .... ....|--- .... ....
 D-4|..|B-8 JF.F ....|F-5 2F.F ....|D-2 2A.F ....
 D-4|..|D-2 2A.F ....|R-- .... ....|R-- .... ....
 D-4|..|C-4 LF.F ....|--- .... ....|D-2 2A.F ....
 D-4|..|D-2 2A.F ....|--- .... ....|--- .... ....
....|..|C-4 AF.F ....|E-5 2F.A ....|R-- .... ....
....|..|R-- .... ....|--- .... ....|--- .... ....
....|..|C-4 LF.F ....|D-2 2F.A ....|--- .... ....
....|..|--- .... ....|R-- .... ....|--- .... ....
....|..|B-8 JF.F ....|E-5 2F.F ....|--- .... ....
....|..|--- .... ....|R-- .... ....|--- .... ....
....|..|C-4 LF.F ....|--- .... ....|--- .... ....
....|..|--- .... ....|--- .... ....|--- .... ....
....|..|C-4 AF.F ....|D-5 2F.7 ....|G-4 2F87 ....
....|..|D-2 2F.7 ....|R-- .... ....|R-- .... ....
....|..|C-4 LF.F ....|--- .... ....|D-2 2F.7 ....
....|..|D-2 2F.7 ....|--- .... ....|--- .... ....
....|..|B-8 JF.F ....|E-5 2F.7 ....|R-- .... ....
....|..|R-- .... ....|--- .... ....|--- .... ....
....|..|C-4 LF.F ....|D-2 2F.7 ....|--- .... ....
....|..|--- .... ....|R-- .... ....|--- .... ....
 D-4|..|C-4 AF.F ....|D-5 2F.F ....|D-2 2A.F ....
 D-4|..|D-2 2A.F ....|R-- .... ....|R-- .... ....
 D-4|..|C-4 LF.F ....|--- .... ....|D-2 2A.F ....
 D-4|..|D-2 2A.F ....|--- .... ....|--- .... ....
....|..|B-8 JF.F ....|F-5 2F.7 ....|D-2 2F.7 ....
....|..|D-2 2F.7 ....|R-- .... ....|R-- .... ....
 D-4|..|C-4 LF.F ....|D-2 2A.F ....|D-2 2F.7 ....
....|..|D-2 2F.7 ....|R-- .... ....|--- .... ....
....|..|C-4 AF.F ....|E-5 2F.F ....|R-- .... ....
....|..|R-- .... ....|--- .... ....|--- .... ....
....|..|C-4 LF.F ....|--- .... ....|--- .... ....
....|..|--- .... ....|--- .... ....|--- .... ....
 D-4|..|B-8 JF.F ....|F-5 2F.F ....|D-2 2A.F ....
 D-4|..|D-2 2A.F ....|R-- .... ....|R-- .... ....
 D-4|..|C-4 LF.F ....|--- .... ....|D-2 2A.F ....
 D-4|..|D-2 2A.F ....|--- .... ....|--- .... ....
....|..|C-4 AF.F ....|--- .... ....|R-- .... ....
....|..|R-- .... ....|--- .... ....|--- .... ....
....|..|C-4 LF.F ....|D-2 2F.A ....|--- .... ....
....|..|--- .... ....|R-- .... ....|--- .... ....
 D-4|..|B-8 JF.F ....|D-2 2A.F ....|--- .... ....
....|..|--- .... ....|R-- .... ....|--- .... ....
....|..|C-4 LF.F ....|--- .... ....|--- .... ....
....|..|--- .... ....|--- .... ....|--- .... ....
....|..|C-4 AF.F ....|D-5 2F.7 ....|D-2 2F.7 ....
....|..|D-2 2F.7 ....|R-- .... ....|R-- .... ....
....|..|C-4 LF.F ....|--- .... ....|D-2 2F.7 ....
....|..|D-2 2F.7 ....|--- .... ....|--- .... ....
....|..|B-8 JF.F ....|--- .... ....|R-- .... ....
....|..|R-- .... ....|--- .... ....|--- .... ....
....|..|C-4 LF.F ....|D-2 2F.7 ....|G-4 2F8F ....
....|..|--- .... ....|R-- .... ....|--- .... ....

[Pattern13]
 B-4|..|C-4 AF.F ....|E-5 2F.7 ....|B-4 2C.F ....
 G-3|..|G-1 2A.F ....|R-- .... ....|R-- .... ....
 G-4|..|B-4 2F2F ....|R-- .... ....|G-4 2C.F ....
....|..|--- .... ....|--- .... ....|R-- .... ....
 B-4|..|B-8 JF.F ....|F-5 2F.7 ....|B-4 2C.F ....
 B-4|..|D-2 2F.7 ....|R-- .... ....|B-4 2C.F ....
 G-4|..|C-4 LF.7 ....|--- .... ....|G-4 2C.F ....
....|..|D-2 2F.7 ....|--- .... ....|R-- .... ....
....|..|C-4 AF.F ....|--- .... ....|R-- .... ....
....|..|R-- .... ....|--- .... ....|R-- .... ....
....|..|C-4 LF.7 ....|--- .... ....|G-4 2F8A ....
....|..|--- .... ....|--- .... ....|--- .... ....
 B-4|..|B-8 JF.F ....|D-2 2F.7 ....|B-4 2C.F ....
....|..|G-1 2F.A ....|R-- .... ....|R-- .... ....
 G-4|..|C-4 LF.7 ....|R-- .... ....|G-4 2C.F ....
....|..|--- .... ....|--- .... ....|R-- .... ....
 B-4|..|C-4 AF.F ....|--- .... ....|B-4 2C.F ....
 B-4|..|--- .... ....|--- .... ....|B-4 2C.F ....
 G-4|..|C-4 LF.7 ....|--- .... ....|G-4 2C.F ....
....|..|--- .... ....|--- .... ....|R-- .... ....
 B-4|..|B-8 JF.F ....|--- .... ....|B-4 2C.F ....
....|..|R-- .... ....|--- .... ....|R-- .... ....
....|..|C-4 LF.7 ....|--- .... ....|G-4 2F87 ....
....|..|--- .... ....|--- .... ....|--- .... ....
....|..|C-4 AF.F ....|--- .... ....|B-4 2F.7 ....
....|..|G-1 2F.7 ....|--- .... ....|R-- .... ....
....|..|B-4 2F27 ....|R-- .... ....|G-4 2F.7 ....
....|..|--- .... ....|--- .... ....|R-- .... ....
 B-4|..|C-3 RF.F ....|--- .... ....|B-4 2C.F ....
....|..|--- .... ....|--- .... ....|B-4 2F.7 ....
 G-4|..|--- .... ....|--- .... ....|G-4 2C.F ....
....|..|--- .... ....|--- .... ....|R-- .... ....
 B-4|..|C-4 AF.F ....|--- .... ....|B-4 2C.F ....
 B-4|..|G-1 2F.F ....|--- .... ....|B-4 2C.F ....
 G-4|..|--- .F.. ....|--- .... ....|G-4 2C.F ....
....|..|--- .... ....|--- .... ....|R-- .... ....
 B-4|..|B-8 JF.F ....|--- .... ....|B-4 2C.F ....
....|..|--- .... ....|--- .... ....|R-- .... ....
 G-4|..|--- .... ....|--- .... ....|G-4 2C.F ....
....|..|--- .... ....|--- .... ....|R-- .... ....
....|..|C-4 AF.F ....|--- .... ....|B-4 2F.7 ....
....|..|R-- .... ....|--- .... ....|B-4 2F.7 ....
....|..|--- .... ....|--- .... ....|G-4 2F.7 ....
....|..|--- .... ....|--- .... ....|R-- .... ....
 B-4|..|B-8 JF.F ....|--- .... ....|B-4 2C.F ....
....|..|G-1 2F.A ....|--- .... ....|R-- .... ....
 G-4|..|--- .... ....|--- .... ....|G-4 2C.F ....
....|..|--- .... ....|--- .... ....|R-- .... ....
 B-4|..|C-4 AF.F ....|--- .... ....|B-4 2C.F ....
 B-4|..|--- .... ....|--- .... ....|B-4 2C.F ....
 G-4|..|--- .... ....|--- .... ....|G-4 2C.F ....
....|..|--- .... ....|--- .... ....|R-- .... ....
 B-4|..|B-8 JF.F ....|--- .... ....|B-4 2C.F ....
....|..|R-- .... ....|--- .... ....|R-- .... ....
 G-4|..|--- .... ....|--- .... ....|G-4 2C.F ....
....|..|--- .... ....|--- .... ....|R-- .... ....
....|..|C-4 AF.F ....|--- .... ....|B-4 2F.7 ....
....|..|G-1 2F.7 ....|--- .... ....|B-4 2F.7 ....
....|..|--- .... ....|--- .... ....|G-4 2F.7 ....
....|..|--- .... ....|--- .... ....|R-- .... ....
 B-4|..|C-3 RF.F ....|--- .... ....|B-4 2C.F ....
....|..|--- .... ....|--- .... ....|R-- .... ....
 G-4|..|--- .... ....|--- .... ....|G-4 2C.F ....
....|..|--- .... ....|--- .... ....|R-- .... ....
 B-4|..|C-4 AF.F ....|--- .... ....|B-4 2C.F ....
 B-4|..|G-1 2F.F ....|--- .... ....|B-4 2C.F ....
 G-4|..|B-4 2F3F ....|--- .... ....|G-4 2C.F ....
....|..|--- .... ....|--- .... ....|R-- .... ....
 B-4|..|B-8 JF.F ....|--- .... ....|B-4 2C.F ....
....|..|--- .... ....|--- .... ....|R-- .... ....
 G-4|..|--- .... ....|--- .... ....|G-4 2C.F ....
....|..|--- .... ....|--- .... ....|R-- .... ....
....|..|C-4 AF.F ....|--- .... ....|B-4 2F.7 ....
....|..|R-- .... ....|--- .... ....|B-4 2F.7 ....
....|..|--- .... ....|--- .... ....|G-4 2F.7 ....
....|..|--- .... ....|--- .... ....|R-- .... ....
 B-4|..|B-8 JF.F ....|--- .... ....|B-4 2C.F ....
....|..|G-1 2F.A ....|--- .... ....|R-- .... ....
 G-4|..|B-4 2F3A ....|--- .... ....|G-4 2C.F ....
....|..|--- .... ....|--- .... ....|R-- .... ....
 B-4|..|C-4 AF.F ....|G-5 2F.F ....|B-4 2C.F ....
 B-4|..|--- .... ....|--- .... ....|B-4 2C.F ....
 G-4|..|--- .... ....|--- .... ....|G-4 2C.F ....
....|..|--- .... ....|--- .... ....|R-- .... ....
 B-4|..|B-8 JF.F ....|--- .... ....|B-4 2C.F ....
....|..|R-- .... ....|--- .... ....|R-- .... ....
 G-4|..|--- .... ....|R-- .... ....|G-4 2C.F ....
....|..|--- .... ....|--- .... ....|R-- .... ....
....|..|C-4 AF.F ....|--- .... ....|B-4 2F.7 ....
....|..|G-1 2F.7 ....|--- .... ....|B-4 2F.7 ....
....|..|B-4 2F37 ....|--- .... ....|G-4 2F.7 ....
....|..|--- .... ....|--- .... ....|R-- .... ....
 B-4|..|C-3 RF.F ....|G-5 2F.A ....|B-4 2C.F ....
....|..|--- .... ....|--- .... ....|R-- .... ....
 G-4|..|--- .... ....|--- .... ....|G-4 2C.F ....
....|..|--- .... ....|--- .... ....|R-- .... ....
 B-4|..|C-4 AF.F ....|G-5 2F.F ....|B-4 2C.F ....
 B-4|..|G-1 2F.F ....|--- .... ....|B-4 2C.F ....
 G-4|..|--- .F.. ....|F-5 2F.F ....|G-4 2C.F ....
....|..|--- .... ....|--- .... ....|R-- .... ....
 B-4|..|B-8 JF.F ....|--- .... ....|B-4 2C.F ....
....|..|--- .... ....|R-- .... ....|R-- .... ....
 G-4|..|--- .... ....|--- .... ....|G-4 2C.F ....
....|..|--- .... ....|--- .... ....|R-- .... ....
....|..|C-4 AF.F ....|G-5 2F.7 ....|B-4 2F.7 ....
....|..|R-- .... ....|--- .... ....|B-4 2F.7 ....
....|..|--- .... ....|--- .... ....|G-4 2F.7 ....
....|..|--- .... ....|--- .... ....|R-- .... ....
 B-4|..|B-8 JF.F ....|G-5 2F.A ....|B-4 2C.F ....
....|..|G-1 2F.A ....|--- .... ....|R-- .... ....
 G-4|..|--- .... ....|R-- .... ....|G-4 2C.F ....
....|..|--- .... ....|--- .... ....|R-- .... ....
 B-4|..|C-4 AF.F ....|A-5 2F.F ....|B-4 2C.F ....
....|..|--- .... ....|R-- .... ....|R-- .... ....
 G-4|..|--- .... ....|R-- .... ....|G-4 2C.F ....
....|..|--- .... ....|--- .... ....|R-- .... ....
 B-4|..|B-8 JF.F ....|G-5 2F.F ....|B-4 2C.F ....
....|..|R-- .... ....|--- .... ....|R-- .... ....
 G-4|..|--- .... ....|R-- .... ....|G-4 2C.F ....
....|..|--- .... ....|--- .... ....|R-- .... ....
....|..|C-4 AF.F ....|F-5 2F.F ....|B-4 2F.7 ....
....|..|G-1 2F.7 ....|--- .... ....|B-4 2F.7 ....
....|..|--- .... ....|F-5 2F.7 ....|G-4 2F.7 ....
....|..|--- .... ....|R-- .... ....|R-- .... ....
....|..|B-8 JF.F ....|G-5 2F.F ....|B-4 2F.7 ....
....|..|--- .... ....|R-- .... ....|R-- .... ....
....|..|--- .... ....|F-5 2F.F ....|G-4 2F.7 ....
....|..|--- .... ....|--- .... ....|R-- .... ....

[Pattern14]
....|..|C-4 AF.F ....|G-5 2F.A ....|G-4 2F8F ....
 D-4|..|D-2 2A.F ....|--- .... ....|R-- .... ....
....|..|D-4 2F4F ....|R-- .... ....|G-4 2F.A ....
....|..|--- .... ....|--- .... ....|R-- .... ....
....|..|B-8 JF.F ....|F-5 2F.A ....|B-4 2F.7 ....
....|..|--- .... ....|R-- .... ....|R-- .... ....
....|..|--- .... ....|--- .... ....|G-4 2F.7 ....
....|..|--- .... ....|R-- .... ....|--- .... ....
....|..|C-4 AF.F ....|A-5 2F.7 ....|B-4 2F.7 ....
....|..|R-- .... ....|R-- .... ....|R-- .... ....
....|..|--- .... ....|R-- .... ....|G-4 2F.7 ....
....|..|--- .... ....|--- .... ....|R-- .... ....
 C-4|..|B-8 JF.F ....|G-5 2F.7 ....|C-2 2A.F ....
 C-4|..|C-2 2A.F ....|--- .... ....|R-- .... ....
....|..|D-4 2F4A ....|R-- .... ....|G-4 2F.7 ....
....|..|--- .... ....|--- .... ....|R-- .... ....
 D-4|..|C-4 AF.F ....|F-5 2F.7 ....|D-2 2A.F ....
 D-4|..|D-2 2A.F ....|R-- .... ....|D-2 2A.F ....
 D-4|..|D-2 2A.F ....|--- .... ....|--- .... ....
....|..|R-- .... ....|R-- .... ....|R-- .... ....
 D-4|..|B-8 JF.F ....|G-5 2F.7 ....|D-5 2C.F ....
....|..|R-- .... ....|R-- .... ....|R-- .... ....
 D-4|..|--- .... ....|F-5 2F.7 ....|D-5 2C.F ....
....|..|--- .... ....|--- .... ....|--- .... ....
 D-4|..|C-4 AF.F ....|--- .... ....|D-5 2C.F ....
....|..|D-2 2F.7 ....|--- .... ....|--- .... ....
 C-4|..|D-4 2F47 ....|--- .... ....|C-5 2C.F ....
....|..|--- .... ....|--- .... ....|--- .... ....
 C-4|..|C-3 RF.F ....|--- .... ....|C-5 2C.F ....
....|..|D-2 2F.A ....|R-- .... ....|D-2 2F.A ....
 C-4|..|D-2 2F.A ....|--- .... ....|C-5 2C.F ....
....|..|R-- .... ....|--- .... ....|R-- .... ....
 D-4|..|C-4 AF.F ....|--- .... ....|D-5 2C.F ....
 D-4|..|D-2 2A.F ....|--- .... ....|R-- .... ....
....|..|--- .... ....|--- .... ....|D-5 2F.A ....
....|..|--- .... ....|--- .... ....|--- .... ....
....|..|B-8 JF.F ....|--- .... ....|C-2 2F.7 ....
....|..|C-2 2F.7 ....|--- .... ....|--- .... ....
....|..|--- .... ....|--- .... ....|C-5 2F.A ....
....|..|--- .... ....|--- .... ....|--- .... ....
....|..|C-4 AF.F ....|--- .... ....|D-2 2F.7 ....
....|..|D-2 2F.7 ....|--- .... ....|D-2 2F.7 ....
....|..|D-2 2F.7 ....|--- .... ....|C-5 2F.A ....
....|..|R-- .... ....|--- .... ....|R-- .... ....
 C-4|..|B-8 JF.F ....|--- .... ....|C-5 2C.F ....
 D-4|..|D-2 2A.F ....|--- .... ....|R-- .... ....
 C-4|..|--- .F.. ....|--- .... ....|C-5 2C.F ....
....|..|R-- .... ....|--- .... ....|R-- .... ....
 C-4|..|C-4 AF.F ....|--- .... ....|C-5 2C.F ....
 A-3|..|A-1 2A.F ....|--- .... ....|--- .F.. ....
 C-4|..|--- .F.. ....|--- .... ....|C-5 2C.F ....
....|..|--- .... ....|--- .... ....|--- .... ....
 B-4|..|B-8 JF.F ....|--- .... ....|B-4 2C.F ....
....|..|R-- .... ....|--- .... ....|R-- .... ....
 B-4|..|--- .... ....|--- .... ....|B-4 2C.F ....
....|..|R-- .... ....|--- .... ....|R-- .... ....
 A-3|..|C-4 AF.F ....|--- .... ....|A-4 2C.F ....
 G-3|..|G-1 2A.F ....|--- .... ....|R-- .... ....
 A-3|..|--- .F.. ....|--- .... ....|A-4 2C.F ....
....|..|R-- .... ....|--- .... ....|R-- .... ....
....|..|C-3 RF.F ....|--- .... ....|C-5 2F.A ....
 F-4|..|A-1 2F.A ....|--- .... ....|F-3 2C.F ....
 F-4|..|--- .... ....|--- .... ....|F-3 2C.F ....
 F-4|..|R-- .... ....|--- .... ....|F-2 2A.F ....
 A-3|..|C-4 AF.F ....|--- .... ....|A-4 2C.F ....
 F-4|..|F-2 2A.F ....|--- .... ....|F-3 2C.F ....
....|..|--- .... ....|--- .... ....|B-4 2F.A ....
....|..|R-- .... ....|--- .... ....|R-- .... ....
....|..|B-8 JF.F ....|--- .... ....|C-5 2F.7 ....
....|..|D-2 2F.7 ....|--- .... ....|R-- .... ....
....|..|--- .... ....|--- .... ....|C-5 2F.7 ....
....|..|R-- .... ....|--- .... ....|R-- .... ....
....|..|C-4 AF.F ....|--- .... ....|C-5 2F.7 ....
....|..|A-1 2F.7 ....|F-5 2F.F ....|F-3 2F.A ....
....|..|--- .... ....|--- .... ....|C-5 2F.7 ....
....|..|R-- .... ....|--- .... ....|F-2 2F.A ....
....|..|B-8 JF.F ....|R-- .... ....|B-4 2F.7 ....
....|..|F-1 2F.A ....|F-5 2F.F ....|R-- .... ....
....|..|--- .... ....|R-- .... ....|B-4 2F.7 ....
....|..|R-- .... ....|F-5 2F.F ....|R-- .... ....
....|..|C-4 AF.F ....|--- .... ....|A-4 2F.7 ....
....|..|G-1 2F.7 ....|--- .... ....|--- .... ....
....|..|--- .... ....|--- .... ....|A-4 2F.7 ....
....|..|--- .... ....|--- .... ....|--- .... ....
....|..|B-8 JF.F ....|R-- .... ....|--- .... ....
....|..|--- .... ....|F-5 2F.F ....|F-3 2F.7 ....
....|..|--- .... ....|R-- .... ....|F-3 2F.7 ....
....|..|R-- .... ....|--- .... ....|F-2 2F.7 ....
....|..|C-4 AF.F ....|R-- .... ....|A-4 2F.7 ....
....|..|F-1 2F.7 ....|F-5 2F.F ....|F-3 2F.7 ....
....|..|--- .... ....|R-- .... ....|--- .... ....
....|..|--- .... ....|R-- .... ....|--- .... ....
....|..|C-3 RF.F ....|--- .... ....|--- .... ....
....|..|--- .... ....|F-5 2F.F ....|--- .... ....
....|..|--- .... ....|--- .... ....|--- .... ....
....|..|R-- .... ....|R-- .... ....|R-- .... ....
 G-4|..|C-4 AF.F ....|R-- .... ....|G-4 2C.F ....
 G-4|..|C-2 2F.F ....|F-5 2F.7 ....|G-3 2C.F ....
....|..|--- .... ....|R-- .... ....|--- .... ....
....|..|--- .... ....|--- .... ....|--- .... ....
....|..|B-8 JF.F ....|R-- .... ....|R-- .... ....
....|..|--- .... ....|F-5 2F.7 ....|--- .... ....
....|..|--- .... ....|E-5 2F.F ....|--- .... ....
....|..|--- .... ....|F-5 2F.7 ....|--- .... ....
....|..|C-4 AF.F ....|--- .... ....|--- .... ....
....|..|--- .... ....|E-5 2F.F ....|--- .... ....
....|..|--- .... ....|--- .... ....|--- .... ....
....|..|R-- .... ....|R-- .... ....|R-- .... ....
....|..|B-8 JF.F ....|R-- .... ....|G-4 2F.A ....
....|..|C-2 2F.A ....|E-5 2F.F ....|G-3 2F.A ....
....|..|--- .... ....|R-- .... ....|--- .... ....
....|..|--- .... ....|R-- .... ....|--- .... ....
....|..|C-4 AF.F ....|--- .... ....|R-- .... ....
....|..|--- .... ....|E-5 2F.F ....|--- .... ....
....|..|--- .... ....|E-5 2F.A ....|--- .... ....
....|..|--- .... ....|R-- .... ....|--- .... ....
....|..|B-8 JF.F ....|R-- .... ....|--- .... ....
....|..|--- .... ....|D-5 2F.F ....|--- .... ....
....|..|--- .... ....|--- .... ....|--- .... ....
....|..|R-- .... ....|R-- .... ....|R-- .... ....
....|..|C-4 AF.F ....|R-- .... ....|G-4 2F.7 ....
....|..|C-2 2F.7 ....|E-5 2F.A ....|G-3 2F.7 ....
....|..|--- .... ....|--- .... ....|--- .... ....
....|..|--- .... ....|R-- .... ....|--- .... ....
....|..|C-3 RF.F ....|C-5 2F.F ....|--- .... ....
....|..|--- .... ....|E-5 2F.A ....|R-- .... ....
....|..|--- .... ....|E-5 2F.7 ....|--- .... ....
....|..|R-- .... ....|R-- .... ....|R-- .... ....

[Pattern15]
....|..|C-4 AF.F ....|R-- .... ....|G-4 2F8F ....
 D-4|..|D-2 2A.F ....|D-5 2F.F ....|--- .... ....
....|..|--- .... ....|--- .... ....|--- .... ....
....|..|--- .... ....|R-- .... ....|--- .... ....
....|..|B-8 JF.F ....|R-- .... ....|R-- .... ....
....|..|--- .... ....|E-5 2F.7 ....|--- .... ....
....|..|--- .... ....|R-- .... ....|--- .... ....
....|..|--- .... ....|R-- .... ....|--- .... ....
....|..|C-4 AF.F ....|C-5 2F.A ....|R-- .... ....
....|..|R-- .... ....|E-5 2F.7 ....|R-- .... ....
....|..|--- .... ....|--- .... ....|--- .... ....
....|..|R-- .... ....|--- .... ....|R-- .... ....
 C-4|..|B-8 JF.F ....|R-- .... ....|C-2 2A.F ....
 C-4|..|C-2 2A.F ....|D-5 2F.7 ....|--- .... ....
....|..|--- .... ....|--- .... ....|--- .... ....
....|..|--- .... ....|--- .... ....|--- .... ....
 D-4|..|C-4 AF.F ....|R-- .... ....|D-2 2A.F ....
 D-4|..|D-2 2A.F ....|--- .... ....|D-2 2A.F ....
 D-4|..|D-2 2A.F ....|R-- .... ....|--- .... ....
....|..|R-- .... ....|--- .... ....|R-- .... ....
....|..|B-8 JF.F ....|C-5 2F.7 ....|R-- .... ....
....|..|R-- .... ....|--- .... ....|R-- .... ....
....|..|--- .... ....|--- .... ....|--- .... ....
....|..|R-- .... ....|--- .... ....|R-- .... ....
....|..|C-4 AF.F ....|R-- .... ....|G-4 2F87 ....
....|..|D-2 2F.7 ....|D-5 2F.7 ....|--- .... ....
....|..|--- .... ....|--- .... ....|--- .... ....
....|..|--- .... ....|--- .... ....|--- .... ....
....|..|C-3 RF.F ....|--- .... ....|D-2 2F.A ....
....|..|D-2 2F.A ....|--- .... ....|D-2 2F.A ....
....|..|D-2 2F.A ....|R-- .... ....|--- .... ....
....|..|R-- .... ....|--- .... ....|R-- .... ....
 D-4|..|C-4 AF.F ....|--- .... ....|D-2 2A.F ....
 D-4|..|D-2 2A.F ....|--- .... ....|--- .... ....
....|..|--- .... ....|--- .... ....|--- .... ....
....|..|--- .... ....|--- .... ....|--- .... ....
....|..|B-8 JF.F ....|--- .... ....|C-2 2F.7 ....
....|..|C-2 2F.7 ....|--- .... ....|--- .... ....
....|..|--- .... ....|--- .... ....|--- .... ....
....|..|--- .... ....|--- .... ....|--- .... ....
....|..|C-4 AF.F ....|--- .... ....|D-2 2F.7 ....
....|..|D-2 2F.7 ....|--- .... ....|D-2 2F.7 ....
....|..|D-2 2F.7 ....|--- .... ....|--- .... ....
....|..|R-- .... ....|--- .... ....|R-- .... ....
 D-4|..|B-8 JF.F ....|--- .... ....|D-2 2A.F ....
 D-4|..|D-2 2A.F ....|--- .... ....|--- .... ....
....|..|--- .... ....|--- .... ....|--- .... ....
....|..|R-- .... ....|--- .... ....|R-- .... ....
 A-3|..|C-4 AF.F ....|--- .... ....|A-1 2A.F ....
 A-3|..|A-1 2A.F ....|--- .... ....|--- .... ....
....|..|--- .... ....|--- .... ....|--- .... ....
....|..|--- .... ....|--- .... ....|--- .... ....
....|..|B-8 JF.F ....|--- .... ....|R-- .... ....
....|..|R-- .... ....|--- .... ....|--- .... ....
....|..|--- .... ....|--- .... ....|--- .... ....
....|..|R-- .... ....|--- .... ....|R-- .... ....
 G-3|..|C-4 AF.F ....|--- .... ....|G-1 2A.F ....
 G-3|..|G-1 2A.F ....|--- .... ....|--- .... ....
....|..|--- .... ....|--- .... ....|--- .... ....
....|..|R-- .... ....|--- .... ....|R-- .... ....
....|..|C-3 RF.F ....|--- .... ....|A-1 2F.A ....
 F-4|..|A-1 2F.A ....|--- .... ....|F-3 2C.F ....
 F-4|..|--- .... ....|--- .... ....|F-3 2C.F ....
 F-4|..|R-- .... ....|--- .... ....|F-2 2A.F ....
 A-3|..|C-4 AF.F ....|--- .... ....|A-4 2C.F ....
 F-4|..|F-2 2A.F ....|--- .... ....|F-3 2C.F ....
....|..|--- .... ....|--- .... ....|--- .... ....
....|..|R-- .... ....|--- .... ....|R-- .... ....
....|..|B-8 JF.F ....|--- .... ....|D-2 2F.7 ....
....|..|D-2 2F.7 ....|--- .... ....|--- .... ....
....|..|--- .... ....|--- .... ....|--- .... ....
....|..|R-- .... ....|--- .... ....|R-- .... ....
....|..|C-4 AF.F ....|--- .... ....|A-1 2F.7 ....
....|..|A-1 2F.7 ....|F-5 2F.F ....|F-3 2F.A ....
....|..|--- .... ....|--- .... ....|F-3 2F.A ....
....|..|R-- .... ....|--- .... ....|F-2 2F.A ....
....|..|B-8 JF.F ....|R-- .... ....|A-4 2F.A ....
....|..|F-1 2F.A ....|F-5 2F.F ....|F-3 2F.A ....
....|..|--- .... ....|R-- .... ....|--- .... ....
....|..|R-- .... ....|F-5 2F.F ....|R-- .... ....
....|..|C-4 AF.F ....|--- .... ....|G-1 2F.7 ....
....|..|G-1 2F.7 ....|--- .... ....|--- .... ....
....|..|--- .... ....|--- .... ....|--- .... ....
....|..|--- .... ....|--- .... ....|--- .... ....
....|..|B-8 JF.F ....|R-- .... ....|--- .... ....
....|..|--- .... ....|F-5 2F.F ....|F-3 2F.7 ....
....|..|--- .... ....|R-- .... ....|F-3 2F.7 ....
....|..|R-- .... ....|--- .... ....|F-2 2F.7 ....
....|..|C-4 AF.F ....|R-- .... ....|A-4 2F.7 ....
....|..|F-1 2F.7 ....|F-5 2F.F ....|F-3 2F.7 ....
....|..|--- .... ....|R-- .... ....|--- .... ....
....|..|--- .... ....|R-- .... ....|--- .... ....
....|..|C-3 RF.F ....|--- .... ....|--- .... ....
....|..|--- .... ....|F-5 2F.F ....|--- .... ....
....|..|--- .... ....|--- .... ....|--- .... ....
....|..|R-- .... ....|R-- .... ....|R-- .... ....
 G-4|..|C-4 AF.F ....|R-- .... ....|G-4 2C.F ....
 G-4|..|C-2 2F.F ....|F-5 2F.7 ....|G-3 2C.F ....
....|..|--- .... ....|R-- .... ....|--- .... ....
....|..|--- .... ....|--- .... ....|--- .... ....
....|..|B-8 JF.F ....|R-- .... ....|R-- .... ....
....|..|--- .... ....|F-5 2F.7 ....|--- .... ....
....|..|--- .... ....|E-5 2F.F ....|--- .... ....
....|..|--- .... ....|F-5 2F.7 ....|--- .... ....
....|..|C-4 AF.F ....|--- .... ....|--- .... ....
....|..|--- .... ....|E-5 2F.F ....|--- .... ....
....|..|--- .... ....|--- .... ....|--- .... ....
....|..|R-- .... ....|R-- .... ....|R-- .... ....
....|..|B-8 JF.F ....|R-- .... ....|G-4 2F.A ....
....|..|C-2 2F.A ....|E-5 2F.F ....|G-3 2F.A ....
....|..|--- .... ....|R-- .... ....|--- .... ....
....|..|--- .... ....|R-- .... ....|--- .... ....
....|..|C-4 AF.F ....|--- .... ....|R-- .... ....
....|..|--- .... ....|E-5 2F.F ....|--- .... ....
....|..|--- .... ....|E-5 2F.A ....|--- .... ....
....|..|--- .... ....|R-- .... ....|--- .... ....
....|..|B-8 JF.F ....|R-- .... ....|--- .... ....
....|..|--- .... ....|D-5 2F.F ....|--- .... ....
....|..|--- .... ....|--- .... ....|--- .... ....
....|..|R-- .... ....|R-- .... ....|R-- .... ....
....|..|C-4 AF.F ....|R-- .... ....|G-4 2F.7 ....
....|..|C-2 2F.7 ....|E-5 2F.A ....|G-3 2F.7 ....
....|..|--- .... ....|--- .... ....|--- .... ....
....|..|--- .... ....|R-- .... ....|--- .... ....
....|..|C-3 RF.F ....|C-5 2F.F ....|--- .... ....
....|..|--- .... ....|E-5 2F.A ....|R-- .... ....
....|..|--- .... ....|E-5 2F.7 ....|--- .... ....
....|..|R-- .... ....|R-- .... ....|R-- .... ....

[Pattern16]
 D-4|..|C-4 AF.F ....|R-- .... ....|D-2 2A.F ....
 D-4|..|D-2 2A.F ....|D-5 2F.F ....|--- .... ....
....|..|--- .... ....|--- .... ....|--- .... ....
....|..|--- .... ....|R-- .... ....|--- .... ....
....|..|B-8 JF.7 ....|R-- .... ....|R-- .... ....
....|..|--- .... ....|E-5 2F.7 ....|--- .... ....
....|..|--- .... ....|R-- .... ....|--- .... ....
....|..|--- .... ....|R-- .... ....|--- .... ....
....|..|C-4 AF.7 ....|C-5 2F.A ....|--- .... ....
....|..|--- .... ....|E-5 2F.7 ....|R-- .... ....
....|..|--- .... ....|--- .... ....|--- .... ....
....|..|R-- .... ....|--- .... ....|R-- .... ....
....|..|B-8 JF.7 ....|R-- .... ....|D-2 2F.A ....
....|..|D-2 2F.A ....|D-5 2F.7 ....|--- .... ....
....|..|--- .... ....|--- .... ....|--- .... ....
....|..|--- .... ....|--- .... ....|--- .... ....
....|..|C-4 AF.7 ....|R-- .... ....|R-- .... ....
....|..|--- .... ....|--- .... ....|--- .... ....
....|..|--- .... ....|R-- .... ....|--- .... ....
....|..|--- .... ....|--- .... ....|--- .... ....
....|..|C-3 RF.7 ....|C-5 2F.7 ....|--- .... ....
....|..|--- .... ....|--- .... ....|R-- .... ....
....|..|--- .... ....|--- .... ....|--- .... ....
....|..|R-- .... ....|--- .... ....|R-- .... ....
....|..|C-4 AF.7 ....|R-- .... ....|D-2 2F.7 ....
....|..|D-2 2F.7 ....|D-5 2F.7 ....|--- .... ....
....|..|--- .... ....|--- .... ....|--- .... ....
....|..|--- .... ....|--- .... ....|--- .... ....
....|..|--- .... ....|--- .... ....|--- .... ....
....|..|--- .... ....|--- .... ....|--- .... ....
....|..|--- .... ....|R-- .... ....|--- .... ....
....|..|--- .... ....|--- .... ....|--- .... ....
....|..|C-4 AF.F ....|--- .... ....|--- .... ....
....|..|--- .... ....|--- .... ....|--- .... ....
....|..|--- .... ....|--- .... ....|--- .... ....
....|..|--- .... ....|--- .... ....|--- .... ....
....|..|B-8 JF.F ....|--- .... ....|--- .... ....
....|..|--- .... ....|--- .... ....|--- .... ....
....|..|--- .... ....|--- .... ....|--- .... ....
....|..|--- .... ....|--- .... ....|--- .... ....
....|..|C-4 AF.F ....|--- .... ....|--- .... ....
....|..|--- .... ....|--- .... ....|--- .... ....
....|..|--- .... ....|--- .... ....|--- .... ....
....|..|--- .... ....|--- .... ....|--- .... ....
....|..|B-8 JF.F ....|--- .... ....|--- .... ....
....|..|--- .... ....|--- .... ....|--- .... ....
....|..|--- .... ....|--- .... ....|--- .... ....
....|..|--- .... ....|--- .... ....|--- .... ....
....|..|C-4 AF.F ....|--- .... ....|--- .... ....
....|..|--- .... ....|--- .... ....|--- .... ....
....|..|--- .... ....|--- .... ....|--- .... ....
....|..|--- .... ....|--- .... ....|--- .... ....
....|..|B-8 JF.F ....|--- .... ....|--- .... ....
....|..|--- .... ....|--- .... ....|--- .... ....
....|..|--- .... ....|--- .... ....|--- .... ....
....|..|--- .... ....|--- .... ....|--- .... ....
....|..|C-4 AF.F ....|--- .... ....|--- .... ....
....|..|--- .... ....|--- .... ....|--- .... ....
....|..|--- .... ....|--- .... ....|--- .... ....
....|..|--- .... ....|--- .... ....|--- .... ....
....|..|B-8 JF.F ....|--- .... ....|--- .... ....
....|..|--- .... ....|--- .... ....|--- .... ....
....|..|--- .... ....|--- .... ....|--- .... ....
....|..|R-- .... ....|--- .... ....|R-- .... ....
 D-4|..|C-4 AF.F ....|D-2 2A.F ....|G-4 2F8F ....
....|..|R-- .... ....|--- .... ....|--- .... ....
....|..|--- .... ....|--- .... ....|--- .... ....
....|..|--- .... ....|--- .... ....|--- .... ....
....|..|B-8 JF.F ....|--- .... ....|--- .... ....
....|..|--- .... ....|--- .... ....|--- .... ....
....|..|--- .... ....|--- .... ....|--- .... ....
....|..|--- .... ....|--- .... ....|--- .... ....
....|..|C-4 AF.F ....|--- .... ....|--- .... ....
....|..|--- .... ....|--- .... ....|--- .... ....
....|..|--- .... ....|--- .... ....|--- .... ....
....|..|R-- .... ....|--- .... ....|R-- .... ....
....|..|B-8 JF.F ....|D-2 2F.A ....|G-4 2F8A ....
....|..|R-- .... ....|--- .... ....|--- .... ....
....|..|--- .... ....|--- .... ....|--- .... ....
....|..|--- .... ....|--- .... ....|--- .... ....
....|..|C-4 AF.F ....|--- .... ....|--- .... ....
....|..|--- .... ....|--- .... ....|--- .... ....
....|..|--- .... ....|--- .... ....|--- .... ....
....|..|--- .... ....|--- .... ....|--- .... ....
....|..|B-8 JF.F ....|--- .... ....|--- .... ....
....|..|--- .... ....|--- .... ....|--- .... ....
....|..|--- .... ....|--- .... ....|--- .... ....
....|..|R-- .... ....|--- .... ....|R-- .... ....
....|..|C-4 AF.F ....|D-2 2F.7 ....|G-4 2F87 ....
....|..|R-- .... ....|--- .... ....|--- .... ....
....|..|--- .... ....|--- .... ....|--- .... ....
....|..|--- .... ....|--- .... ....|--- .... ....
....|..|B-8 JF.F ....|--- .... ....|--- .... ....
....|..|--- .... ....|--- .... ....|--- .... ....
....|..|--- .... ....|--- .... ....|--- .... ....
....|..|--- .... ....|--- .... ....|--- .... ....
....|..|C-4 AF.F ....|--- .... ....|--- .... ....
....|..|--- .... ....|--- .... ....|--- .... ....
....|..|--- .... ....|--- .... ....|--- .... ....
....|..|--- .... ....|--- .... ....|--- .... ....
....|..|B-8 JF.F ....|--- .... ....|--- .... ....
....|..|--- .... ....|--- .... ....|--- .... ....
....|..|--- .... ....|--- .... ....|--- .... ....
....|..|--- .... ....|--- .... ....|--- .... ....
....|..|C-4 AF.F ....|--- .... ....|--- .... ....
....|..|--- .... ....|--- .... ....|--- .... ....
....|..|--- .... ....|--- .... ....|--- .... ....
....|..|--- .... ....|--- .... ....|--- .... ....
....|..|B-8 JF.F ....|--- .... ....|--- .... ....
....|..|--- .... ....|--- .... ....|--- .... ....
....|..|--- .... ....|--- .... ....|--- .... ....
....|..|--- .... ....|--- .... ....|--- .... ....
....|..|C-4 AF.F ....|--- .... ....|--- .... ....
....|..|--- .... ....|--- .... ....|--- .... ....
....|..|--- .... ....|--- .... ....|--- .... ....
....|..|--- .... ....|--- .... ....|--- .... ....
....|..|B-8 JF.F ....|--- .... ....|--- .... ....
....|..|--- .... ....|--- .... ....|--- .... ....
....|..|--- .... ....|--- .... ....|--- .... ....
....|..|--- .... ....|--- .... ....|--- .... ....
....|..|C-4 AF.F ....|--- .... ....|--- .... ....
....|..|--- .... ....|--- .... ....|--- .... ....
....|..|--- .... ....|--- .... ....|--- .... ....
....|..|--- .... ....|--- .... ....|--- .... ....
....|..|B-8 JF.F ....|--- .... ....|--- .... ....
....|..|--- .... ....|--- .... ....|--- .... ....
....|..|--- .... ....|--- .... ....|--- .... ....
....|..|--- .... ....|--- .... ....|--- .... ....

[Pattern17]
....|..|C-4 AF.F ....|--- .... ....|--- .... ....
....|..|--- .... ....|--- .... ....|--- .... ....
....|..|--- .... ....|--- .... ....|--- .... ....
....|..|--- .... ....|--- .... ....|--- .... ....
....|..|B-8 JF.F ....|--- .... ....|--- .... ....
....|..|--- .... ....|--- .... ....|--- .... ....
....|..|--- .... ....|--- .... ....|--- .... ....
....|..|--- .... ....|--- .... ....|--- .... ....
....|..|C-4 AF.F ....|--- .... ....|--- .... ....
....|..|--- .... ....|--- .... ....|--- .... ....
....|..|--- .... ....|--- .... ....|--- .... ....
....|..|--- .... ....|--- .... ....|--- .... ....
....|..|B-8 JF.F ....|--- .... ....|--- .... ....
....|..|--- .... ....|--- .... ....|--- .... ....
....|..|--- .... ....|--- .... ....|--- .... ....
....|..|--- .... ....|--- .... ....|--- .... ....
....|..|C-4 AF.F ....|--- .... ....|D-4 2FBF ....
....|..|--- .... ....|--- .... ....|--- .... ....
....|..|F-4 2F9F ....|--- .... ....|F-4 2F9F ....
....|..|--- .... ....|--- .... ....|--- .... ....
....|..|B-8 JF.F ....|--- .... ....|--- .... ....
....|..|--- .... ....|--- .... ....|--- .... ....
....|..|--- .... ....|--- .... ....|--- .... ....
....|..|--- .... ....|--- .... ....|--- .... ....
....|..|C-4 AF.F ....|--- .... ....|--- .... ....
....|..|--- .... ....|--- .... ....|--- .... ....
....|..|--- .... ....|--- .... ....|--- .... ....
....|..|--- .... ....|--- .... ....|--- .... ....
....|..|B-8 JF.F ....|--- .... ....|D-4 2FBA ....
....|..|--- .... ....|--- .... ....|--- .... ....
....|..|F-4 2F9A ....|--- .... ....|F-4 2F9A ....
....|..|--- .... ....|--- .... ....|--- .... ....
....|..|C-4 AF.F ....|--- .... ....|--- .... ....
....|..|--- .... ....|--- .... ....|--- .... ....
....|..|--- .... ....|--- .... ....|--- .... ....
....|..|--- .... ....|--- .... ....|--- .... ....
....|..|B-8 JF.F ....|--- .... ....|--- .... ....
....|..|--- .... ....|--- .... ....|--- .... ....
....|..|--- .... ....|--- .... ....|--- .... ....
....|..|--- .... ....|--- .... ....|--- .... ....
....|..|C-4 AF.F ....|--- .... ....|D-4 2FB7 ....
....|..|--- .... ....|--- .... ....|--- .... ....
....|..|F-4 2F97 ....|--- .... ....|F-4 2F97 ....
....|..|--- .... ....|--- .... ....|--- .... ....
....|..|B-8 JF.F ....|--- .... ....|--- .... ....
....|..|--- .... ....|--- .... ....|--- .... ....
....|..|--- .... ....|--- .... ....|--- .... ....
....|..|--- .... ....|--- .... ....|--- .... ....
....|..|C-4 AF.F ....|--- .... ....|--- .... ....
....|..|--- .... ....|--- .... ....|--- .... ....
....|..|--- .... ....|--- .... ....|--- .... ....
....|..|--- .... ....|--- .... ....|--- .... ....
....|..|B-8 JF.F ....|--- .... ....|--- .... ....
....|..|--- .... ....|--- .... ....|--- .... ....
....|..|--- .... ....|--- .... ....|--- .... ....
....|..|--- .... ....|--- .... ....|--- .... ....
....|..|C-4 AF.F ....|--- .... ....|--- .... ....
....|..|--- .... ....|--- .... ....|--- .... ....
....|..|--- .... ....|--- .... ....|--- .... ....
....|..|--- .... ....|--- .... ....|--- .... ....
....|..|B-8 JF.F ....|--- .... ....|--- .... ....
....|..|--- .... ....|--- .... ....|--- .... ....
....|..|--- .... ....|--- .... ....|--- .... ....
....|..|--- .... ....|--- .... ....|--- .... ....
....|..|C-4 AF.F ....|--- .... ....|G-4 2F8F ....
....|..|--- .... ....|--- .... ....|--- .... ....
....|..|--- .... ....|--- .... ....|--- .... ....
....|..|--- .... ....|--- .... ....|--- .... ....
....|..|B-8 JF.F ....|--- .... ....|--- .... ....
....|..|--- .... ....|--- .... ....|--- .... ....
....|..|--- .... ....|--- .... ....|--- .... ....
....|..|--- .... ....|--- .... ....|--- .... ....
....|..|C-4 AF.F ....|--- .... ....|--- .... ....
....|..|--- .... ....|--- .... ....|--- .... ....
....|..|--- .... ....|--- .... ....|--- .... ....
....|..|--- .... ....|--- .... ....|--- .... ....
....|..|B-8 JF.F ....|--- .... ....|G-4 2F8A ....
....|..|--- .... ....|--- .... ....|--- .... ....
....|..|--- .... ....|--- .... ....|--- .... ....
....|..|--- .... ....|--- .... ....|--- .... ....
....|..|C-4 AF.F ....|--- .... ....|--- .... ....
....|..|--- .... ....|--- .... ....|--- .... ....
....|..|--- .... ....|--- .... ....|--- .... ....
....|..|--- .... ....|--- .... ....|--- .... ....
....|..|B-8 JF.F ....|--- .... ....|--- .... ....
....|..|--- .... ....|--- .... ....|--- .... ....
....|..|--- .... ....|--- .... ....|--- .... ....
....|..|--- .... ....|--- .... ....|--- .... ....
....|..|C-4 AF.F ....|--- .... ....|G-4 2F87 ....
....|..|--- .... ....|--- .... ....|--- .... ....
....|..|--- .... ....|--- .... ....|--- .... ....
....|..|--- .... ....|--- .... ....|--- .... ....
....|..|B-8 JF.F ....|--- .... ....|--- .... ....
....|..|--- .... ....|--- .... ....|--- .... ....
....|..|--- .... ....|--- .... ....|--- .... ....
....|..|--- .... ....|--- .... ....|--- .... ....
....|..|C-4 AF.F ....|--- .... ....|--- .... ....
....|..|--- .... ....|--- .... ....|--- .... ....
....|..|--- .... ....|--- .... ....|--- .... ....
....|..|--- .... ....|--- .... ....|--- .... ....
....|..|B-8 JF.F ....|--- .... ....|--- .... ....
....|..|--- .... ....|--- .... ....|--- .... ....
....|..|--- .... ....|--- .... ....|--- .... ....
....|..|--- .... ....|--- .... ....|--- .... ....
....|..|C-4 AF.F ....|--- .... ....|--- .... ....
....|..|--- .... ....|--- .... ....|--- .... ....
....|..|--- .... ....|--- .... ....|--- .... ....
....|..|--- .... ....|--- .... ....|--- .... ....
....|..|B-8 JF.F ....|--- .... ....|--- .... ....
....|..|--- .... ....|--- .... ....|--- .... ....
....|..|--- .... ....|--- .... ....|--- .... ....
....|..|--- .... ....|--- .... ....|--- .... ....
....|..|C-4 AF.F ....|--- .... ....|--- .... ....
....|..|--- .... ....|--- .... ....|--- .... ....
....|..|--- .... ....|--- .... ....|--- .... ....
....|..|--- .... ....|--- .... ....|--- .... ....
....|..|B-8 JF.F ....|--- .... ....|--- .... ....
....|..|--- .... ....|--- .... ....|--- .... ....
....|..|--- .... ....|--- .... ....|--- .... ....
....|..|--- .... ....|--- .... ....|--- .... ....
....|..|C-4 AF.F ....|--- .... ....|--- .... ....
....|..|--- .... ....|--- .... ....|--- .... ....
....|..|--- .... ....|--- .... ....|--- .... ....
....|..|--- .... ....|--- .... ....|--- .... ....
....|..|B-8 JF.F ....|--- .... ....|--- .... ....
....|..|--- .... ....|--- .... ....|--- .... ....
....|..|--- .... ....|--- .... ....|--- .... ....
....|..|--- .... ....|--- .... ....|--- .... ....

[Pattern18]
....|..|C-4 AF.F ....|--- .... ....|--- .... ....
....|..|--- .... ....|--- .... ....|--- .... ....
....|..|--- .... ....|--- .... ....|--- .... ....
....|..|--- .... ....|--- .... ....|--- .... ....
....|..|B-8 JF.F ....|--- .... ....|--- .... ....
....|..|--- .... ....|--- .... ....|--- .... ....
....|..|--- .... ....|--- .... ....|--- .... ....
....|..|--- .... ....|--- .... ....|--- .... ....
....|..|C-4 AF.F ....|--- .... ....|--- .... ....
....|..|--- .... ....|--- .... ....|--- .... ....
....|..|--- .... ....|--- .... ....|--- .... ....
....|..|--- .... ....|--- .... ....|--- .... ....
....|..|B-8 JF.F ....|--- .... ....|--- .... ....
....|..|--- .... ....|--- .... ....|--- .... ....
....|..|--- .... ....|--- .... ....|--- .... ....
....|..|--- .... ....|--- .... ....|--- .... ....
....|..|C-4 AF.F ....|--- .... ....|D-4 2FBF ....
....|..|--- .... ....|--- .... ....|--- .... ....
....|..|F-4 2F9F ....|--- .... ....|F-4 2F9F ....
....|..|--- .... ....|--- .... ....|--- .... ....
....|..|B-8 JF.F ....|--- .... ....|--- .... ....
....|..|--- .... ....|--- .... ....|--- .... ....
....|..|--- .... ....|--- .... ....|--- .... ....
....|..|--- .... ....|--- .... ....|--- .... ....
....|..|C-4 AF.F ....|--- .... ....|--- .... ....
....|..|--- .... ....|--- .... ....|--- .... ....
....|..|--- .... ....|--- .... ....|--- .... ....
....|..|--- .... ....|--- .... ....|--- .... ....
....|..|B-8 JF.F ....|--- .... ....|D-4 2FBA ....
....|..|--- .... ....|--- .... ....|--- .... ....
....|..|F-4 2F9A ....|--- .... ....|F-4 2F9A ....
....|..|--- .... ....|--- .... ....|--- .... ....
....|..|C-4 AF.F ....|--- .... ....|--- .... ....
....|..|--- .... ....|--- .... ....|--- .... ....
....|..|--- .... ....|--- .... ....|--- .... ....
....|..|--- .... ....|--- .... ....|--- .... ....
....|..|B-8 JF.F ....|--- .... ....|--- .... ....
....|..|--- .... ....|--- .... ....|--- .... ....
....|..|--- .... ....|E-5 2F.F ....|--- .... ....
....|..|--- .... ....|R-- .... ....|--- .... ....
....|..|C-4 AF.F ....|E-5 2F.F ....|D-4 2FB7 ....
....|..|--- .... ....|--- .... ....|--- .... ....
....|..|F-4 2F97 ....|--- .... ....|F-4 2F97 ....
....|..|--- .... ....|R-- .... ....|--- .... ....
....|..|B-8 JF.F ....|E-5 2F.F ....|--- .... ....
....|..|--- .... ....|--- .... ....|--- .... ....
....|..|--- .... ....|R-- .... ....|--- .... ....
....|..|--- .... ....|--- .... ....|--- .... ....
....|..|C-4 AF.F ....|--- .... ....|--- .... ....
....|..|--- .... ....|E-5 2F.F ....|--- .... ....
....|..|--- .... ....|E-5 2F.A ....|--- .... ....
....|..|--- .... ....|R-- .... ....|--- .... ....
....|..|B-8 JF.F ....|R-- .... ....|--- .... ....
....|..|--- .... ....|D-5 2F.F ....|--- .... ....
....|..|--- .... ....|--- .... ....|--- .... ....
....|..|--- .... ....|R-- .... ....|--- .... ....
....|..|C-4 AF.F ....|R-- .... ....|--- .... ....
....|..|--- .... ....|--- .... ....|--- .... ....
....|..|--- .... ....|R-- .... ....|--- .... ....
....|..|--- .... ....|--- .... ....|--- .... ....
....|..|B-8 JF.F ....|C-5 2F.F ....|--- .... ....
....|..|--- .... ....|E-5 2F.A ....|--- .... ....
....|..|--- .... ....|E-5 2F.7 ....|--- .... ....
....|..|--- .... ....|R-- .... ....|--- .... ....
....|..|C-4 AF.F ....|E-5 2F.7 ....|G-4 2F8F ....
....|..|--- .... ....|D-5 2F.F ....|--- .... ....
....|..|--- .... ....|--- .... ....|--- .... ....
....|..|--- .... ....|R-- .... ....|--- .... ....
....|..|B-8 JF.F ....|E-5 2F.7 ....|--- .... ....
....|..|--- .... ....|--- .... ....|--- .... ....
....|..|--- .... ....|R-- .... ....|--- .... ....
....|..|--- .... ....|--- .... ....|--- .... ....
....|..|C-4 AF.F ....|C-5 2F.A ....|--- .... ....
....|..|--- .... ....|E-5 2F.7 ....|--- .... ....
....|..|--- .... ....|--- .... ....|--- .... ....
....|..|--- .... ....|--- .... ....|--- .... ....
....|..|B-8 JF.F ....|R-- .... ....|G-4 2F8A ....
....|..|--- .... ....|D-5 2F.7 ....|--- .... ....
....|..|--- .... ....|--- .... ....|--- .... ....
....|..|--- .... ....|--- .... ....|--- .... ....
....|..|C-4 AF.F ....|R-- .... ....|--- .... ....
....|..|--- .... ....|--- .... ....|--- .... ....
....|..|--- .... ....|R-- .... ....|--- .... ....
....|..|--- .... ....|--- .... ....|--- .... ....
....|..|B-8 JF.F ....|C-5 2F.7 ....|--- .... ....
....|..|--- .... ....|--- .... ....|--- .... ....
....|..|--- .... ....|--- .... ....|--- .... ....
....|..|--- .... ....|--- .... ....|--- .... ....
....|..|C-4 AF.F ....|R-- .... ....|G-4 2F87 ....
....|..|--- .... ....|D-5 2F.7 ....|--- .... ....
....|..|--- .... ....|--- .... ....|--- .... ....
....|..|--- .... ....|--- .... ....|--- .... ....
....|..|B-8 JF.F ....|--- .... ....|--- .... ....
....|..|--- .... ....|--- .... ....|--- .... ....
....|..|--- .... ....|R-- .... ....|--- .... ....
....|..|--- .... ....|--- .... ....|--- .... ....
....|..|C-4 AF.F ....|--- .... ....|--- .... ....
....|..|--- .... ....|--- .... ....|--- .... ....
....|..|--- .... ....|--- .... ....|--- .... ....
....|..|--- .... ....|--- .... ....|--- .... ....
....|..|B-8 JF.F ....|--- .... ....|--- .... ....
....|..|--- .... ....|--- .... ....|--- .... ....
....|..|--- .... ....|--- .... ....|--- .... ....
....|..|--- .... ....|--- .... ....|--- .... ....
....|..|C-4 AF.F ....|--- .... ....|--- .... ....
....|..|--- .... ....|--- .... ....|--- .... ....
....|..|--- .... ....|--- .... ....|--- .... ....
....|..|--- .... ....|--- .... ....|--- .... ....
....|..|B-8 JF.F ....|--- .... ....|--- .... ....
....|..|--- .... ....|--- .... ....|--- .... ....
....|..|--- .... ....|--- .... ....|--- .... ....
....|..|--- .... ....|--- .... ....|--- .... ....
....|..|C-4 AF.F ....|--- .... ....|--- .... ....
....|..|--- .... ....|--- .... ....|--- .... ....
....|..|--- .... ....|--- .... ....|--- .... ....
....|..|--- .... ....|--- .... ....|--- .... ....
....|..|B-8 JF.F ....|--- .... ....|--- .... ....
....|..|--- .... ....|--- .... ....|--- .... ....
....|..|--- .... ....|--- .... ....|--- .... ....
....|..|--- .... ....|--- .... ....|--- .... ....
....|..|C-4 AF.F ....|--- .... ....|--- .... ....
....|..|--- .... ....|--- .... ....|--- .... ....
....|..|--- .... ....|--- .... ....|--- .... ....
....|..|--- .... ....|--- .... ....|--- .... ....
....|..|B-8 JF.F ....|--- .... ....|--- .... ....
....|..|--- .... ....|--- .... ....|--- .... ....
....|..|--- .... ....|--- .... ....|--- .... ....
....|..|--- .... ....|--- .... ....|--- .... ....

[Pattern19]
....|..|C-4 AF.F ....|--- .... ....|--- .... ....
....|..|--- .... ....|--- .... ....|--- .... ....
....|..|--- .... ....|--- .... ....|--- .... ....
....|..|--- .... ....|--- .... ....|--- .... ....
....|..|B-8 JF.F ....|--- .... ....|--- .... ....
....|..|--- .... ....|--- .... ....|--- .... ....
....|..|--- .... ....|--- .... ....|--- .... ....
....|..|--- .... ....|--- .... ....|--- .... ....
....|..|C-4 AF.F ....|--- .... ....|--- .... ....
....|..|--- .... ....|--- .... ....|--- .... ....
....|..|--- .... ....|--- .... ....|--- .... ....
....|..|--- .... ....|--- .... ....|--- .... ....
....|..|B-8 JF.F ....|--- .... ....|--- .... ....
....|..|--- .... ....|--- .... ....|--- .... ....
....|..|--- .... ....|--- .... ....|--- .... ....
....|..|--- .... ....|--- .... ....|--- .... ....
....|..|C-4 AF.F ....|--- .... ....|D-4 2FBF ....
....|..|--- .... ....|--- .... ....|--- .... ....
....|..|F-4 2F9F ....|--- .... ....|F-4 2F9F ....
....|..|--- .... ....|--- .... ....|--- .... ....
....|..|B-8 JF.F ....|--- .... ....|--- .... ....
....|..|--- .... ....|--- .... ....|--- .... ....
....|..|--- .... ....|--- .... ....|--- .... ....
....|..|--- .... ....|--- .... ....|--- .... ....
....|..|C-4 AF.F ....|--- .... ....|--- .... ....
....|..|--- .... ....|--- .... ....|--- .... ....
....|..|--- .... ....|--- .... ....|--- .... ....
....|..|--- .... ....|--- .... ....|--- .... ....
....|..|B-8 JF.F ....|--- .... ....|D-4 2FBA ....
....|..|--- .... ....|--- .... ....|--- .... ....
....|..|F-4 2F9A ....|--- .... ....|F-4 2F9A ....
....|..|--- .... ....|--- .... ....|--- .... ....
....|..|C-4 AF.F ....|--- .... ....|--- .... ....
....|..|--- .... ....|--- .... ....|--- .... ....
....|..|--- .... ....|--- .... ....|--- .... ....
....|..|--- .... ....|--- .... ....|--- .... ....
....|..|B-8 JF.F ....|--- .... ....|--- .... ....
....|..|--- .... ....|--- .... ....|--- .... ....
....|..|--- .... ....|--- .... ....|--- .... ....
....|..|--- .... ....|--- .... ....|--- .... ....
....|..|C-4 AF.F ....|--- .... ....|D-4 2FB7 ....
....|..|--- .... ....|--- .... ....|--- .... ....
....|..|F-4 2F97 ....|--- .... ....|F-4 2F97 ....
....|..|--- .... ....|--- .... ....|--- .... ....
....|..|B-8 JF.F ....|--- .... ....|--- .... ....
....|..|--- .... ....|--- .... ....|--- .... ....
....|..|--- .... ....|--- .... ....|--- .... ....
....|..|--- .... ....|--- .... ....|--- .... ....
....|..|C-4 AF.F ....|--- .... ....|--- .... ....
....|..|--- .... ....|--- .... ....|--- .... ....
....|..|--- .... ....|--- .... ....|--- .... ....
....|..|--- .... ....|--- .... ....|--- .... ....
....|..|C-4 CF.F ....|--- .... ....|--- .... ....
....|..|--- .... ....|--- .... ....|--- .... ....
....|..|--- .... ....|--- .... ....|--- .... ....
....|..|--- .... ....|--- .... ....|--- .... ....
....|..|C-4 AF.F ....|--- .... ....|--- .... ....
....|..|--- .... ....|--- .... ....|--- .... ....
....|..|--- .... ....|--- .... ....|--- .... ....
....|..|--- .... ....|--- .... ....|--- .... ....
....|..|C-4 CF.F ....|--- .... ....|--- .... ....
....|..|--- .... ....|--- .... ....|--- .... ....
....|..|--- .... ....|--- .... ....|--- .... ....
....|..|--- .... ....|--- .... ....|--- .... ....
....|..|C-4 AF.F ....|D-5 2F.F ....|G-4 2F8F ....
 D-4|..|D-2 2A.F ....|R-- .... ....|R-- .... ....
 D-4|..|C-4 LF.F ....|--- .... ....|D-2 2A.F ....
 D-4|..|D-2 2A.F ....|--- .... ....|--- .... ....
....|..|B-8 JF.F ....|E-5 2F.F ....|R-- .... ....
....|..|R-- .... ....|--- .... ....|--- .... ....
 D-4|..|C-4 LF.F ....|D-2 2A.F ....|--- .... ....
....|..|--- .... ....|R-- .... ....|--- .... ....
....|..|C-4 AF.F ....|--- .... ....|--- .... ....
....|..|--- .... ....|--- .... ....|--- .... ....
....|..|C-4 LF.F ....|--- .... ....|--- .... ....
....|..|--- .... ....|--- .... ....|--- .... ....
 D-4|..|B-8 JF.F ....|F-5 2F.F ....|D-2 2A.F ....
 D-4|..|D-2 2A.F ....|R-- .... ....|R-- .... ....
 D-4|..|C-4 LF.F ....|--- .... ....|D-2 2A.F ....
 D-4|..|D-2 2A.F ....|--- .... ....|--- .... ....
....|..|C-4 AF.F ....|E-5 2F.A ....|R-- .... ....
....|..|R-- .... ....|--- .... ....|--- .... ....
....|..|C-4 LF.F ....|D-2 2F.A ....|--- .... ....
....|..|--- .... ....|R-- .... ....|--- .... ....
....|..|B-8 JF.F ....|E-5 2F.F ....|--- .... ....
....|..|--- .... ....|R-- .... ....|--- .... ....
....|..|C-4 LF.F ....|--- .... ....|--- .... ....
....|..|--- .... ....|--- .... ....|--- .... ....
....|..|C-4 AF.F ....|D-5 2F.7 ....|G-4 2F87 ....
....|..|D-2 2F.7 ....|R-- .... ....|R-- .... ....
....|..|C-4 LF.F ....|--- .... ....|D-2 2F.7 ....
....|..|D-2 2F.7 ....|--- .... ....|--- .... ....
....|..|B-8 JF.F ....|E-5 2F.7 ....|R-- .... ....
....|..|R-- .... ....|--- .... ....|--- .... ....
....|..|C-4 LF.F ....|D-2 2F.7 ....|--- .... ....
....|..|--- .... ....|R-- .... ....|--- .... ....
 D-4|..|C-4 AF.F ....|D-5 2F.F ....|D-2 2A.F ....
 D-4|..|D-2 2A.F ....|R-- .... ....|R-- .... ....
 D-4|..|C-4 LF.F ....|--- .... ....|D-2 2A.F ....
 D-4|..|D-2 2A.F ....|--- .... ....|--- .... ....
....|..|B-8 JF.F ....|F-5 2F.7 ....|D-2 2F.7 ....
....|..|D-2 2F.7 ....|R-- .... ....|R-- .... ....
 D-4|..|C-4 LF.F ....|D-2 2A.F ....|D-2 2F.7 ....
....|..|D-2 2F.7 ....|R-- .... ....|--- .... ....
....|..|C-4 AF.F ....|E-5 2F.F ....|R-- .... ....
....|..|R-- .... ....|--- .... ....|--- .... ....
....|..|C-4 LF.F ....|--- .... ....|--- .... ....
....|..|--- .... ....|--- .... ....|--- .... ....
 D-4|..|B-8 JF.F ....|F-5 2F.F ....|D-2 2A.F ....
 D-4|..|D-2 2A.F ....|R-- .... ....|R-- .... ....
 D-4|..|C-4 LF.F ....|--- .... ....|D-2 2A.F ....
 D-4|..|D-2 2A.F ....|--- .... ....|--- .... ....
....|..|C-4 AF.F ....|--- .... ....|R-- .... ....
....|..|R-- .... ....|--- .... ....|--- .... ....
....|..|C-4 LF.F ....|D-2 2F.A ....|--- .... ....
....|..|--- .... ....|R-- .... ....|--- .... ....
....|..|B-8 JF.F ....|E-5 2F.F ....|--- .... ....
....|..|--- .... ....|R-- .... ....|--- .... ....
....|..|C-4 LF.F ....|--- .... ....|--- .... ....
....|..|--- .... ....|--- .... ....|--- .... ....
....|..|C-4 AF.F ....|D-5 2F.7 ....|D-2 2F.7 ....
....|..|D-2 2F.7 ....|R-- .... ....|R-- .... ....
....|..|C-4 LF.F ....|--- .... ....|D-2 2F.7 ....
....|..|D-2 2F.7 ....|--- .... ....|--- .... ....
....|..|B-8 JF.F ....|--- .... ....|R-- .... ....
....|..|R-- .... ....|--- .... ....|--- .... ....
....|..|C-4 LF.F ....|D-2 2F.7 ....|--- .... ....
....|..|--- .... ....|R-- .... ....|--- .... ....

[Pattern22]
 D-4|..|C-4 AF.F ....|E-5 2F.7 ....|D-2 2A.F ....
 D-4|..|D-2 2A.F ....|R-- .... ....|R-- .... ....
 D-4|..|C-4 LF.F ....|--- .... ....|D-2 2A.F ....
 D-4|..|D-2 2A.F ....|--- .... ....|--- .... ....
....|..|B-8 JF.F ....|F-5 2F.7 ....|D-2 2F.7 ....
....|..|D-2 2F.7 ....|R-- .... ....|R-- .... ....
 D-4|..|C-4 LF.F ....|D-2 2A.F ....|D-2 2F.7 ....
....|..|D-2 2F.7 ....|R-- .... ....|--- .... ....
....|..|C-4 AF.F ....|--- .... ....|R-- .... ....
....|..|R-- .... ....|--- .... ....|--- .... ....
....|..|C-4 LF.F ....|R-- .... ....|--- .... ....
....|..|--- .... ....|R-- .... ....|--- .... ....
 D-4|..|B-8 JF.F ....|D-2 2A.F ....|D-2 2A.F ....
 D-4|..|D-2 2A.F ....|R-- .... ....|R-- .... ....
 D-4|..|C-4 LF.F ....|--- .... ....|D-2 2A.F ....
 D-4|..|D-2 2A.F ....|--- .... ....|--- .... ....
....|..|C-4 AF.F ....|--- .... ....|F-4 2F9F ....
....|..|R-- .... ....|--- .... ....|--- .... ....
....|..|C-4 LF.F ....|D-2 2F.A ....|--- .... ....
....|..|--- .... ....|R-- .... ....|--- .... ....
 D-4|..|B-8 JF.F ....|D-2 2A.F ....|--- .... ....
....|..|--- .... ....|R-- .... ....|--- .... ....
....|..|C-4 LF.F ....|R-- .... ....|--- .... ....
....|..|--- .... ....|--- .... ....|--- .... ....
....|..|C-4 AF.F ....|D-2 2F.A ....|D-2 2F.7 ....
....|..|D-2 2F.7 ....|R-- .... ....|R-- .... ....
....|..|C-4 LF.F ....|--- .... ....|D-2 2F.7 ....
....|..|D-2 2F.7 ....|--- .... ....|--- .... ....
....|..|B-8 JF.F ....|--- .... ....|R-- .... ....
....|..|R-- .... ....|--- .... ....|--- .... ....
....|..|C-4 LF.F ....|D-2 2F.7 ....|--- .... ....
....|..|--- .... ....|R-- .... ....|--- .... ....
 D-4|..|C-4 AF.F ....|D-2 2F.A ....|D-2 2A.F ....
 D-4|..|D-2 2A.F ....|R-- .... ....|R-- .... ....
 D-4|..|C-4 LF.F ....|--- .... ....|D-2 2A.F ....
 D-4|..|D-2 2A.F ....|--- .... ....|--- .... ....
....|..|B-8 JF.F ....|D-2 2F.7 ....|D-2 2F.7 ....
....|..|D-2 2F.7 ....|R-- .... ....|R-- .... ....
 D-4|..|C-4 LF.F ....|D-2 2A.F ....|D-2 2F.7 ....
....|..|D-2 2F.7 ....|R-- .... ....|--- .... ....
....|..|C-4 AF.F ....|--- .... ....|F-4 2F97 ....
....|..|R-- .... ....|--- .... ....|--- .... ....
....|..|C-4 LF.F ....|--- .... ....|--- .... ....
....|..|--- .... ....|--- .... ....|--- .... ....
 D-4|..|B-8 JF.F ....|D-2 2A.F ....|D-2 2A.F ....
 D-4|..|D-2 2A.F ....|R-- .... ....|R-- .... ....
 D-4|..|C-4 LF.F ....|--- .... ....|D-2 2A.F ....
 D-4|..|D-2 2A.F ....|--- .... ....|--- .... ....
....|..|C-4 AF.F ....|--- .... ....|R-- .... ....
....|..|R-- .... ....|--- .... ....|--- .... ....
....|..|C-4 LF.F ....|D-2 2F.A ....|--- .... ....
....|..|--- .... ....|R-- .... ....|--- .... ....
 D-4|..|B-8 JF.F ....|D-2 2A.F ....|--- .... ....
....|..|--- .... ....|R-- .... ....|--- .... ....
....|..|C-4 LF.F ....|--- .... ....|--- .... ....
....|..|--- .... ....|--- .... ....|--- .... ....
....|..|C-4 AF.F ....|D-2 2F.A ....|D-2 2F.7 ....
....|..|D-2 2F.7 ....|R-- .... ....|R-- .... ....
....|..|C-4 LF.F ....|--- .... ....|D-2 2F.7 ....
....|..|D-2 2F.7 ....|--- .... ....|--- .... ....
....|..|B-8 JF.F ....|--- .... ....|R-- .... ....
....|..|R-- .... ....|--- .... ....|--- .... ....
....|..|C-4 LF.F ....|D-2 2F.7 ....|--- .... ....
....|..|--- .... ....|R-- .... ....|--- .... ....
....|..|C-4 AF.F ....|D-5 2F.F ....|G-4 2F8F ....
 D-4|..|D-2 2A.F ....|R-- .... ....|R-- .... ....
 D-4|..|C-4 LF.F ....|--- .... ....|D-2 2A.F ....
 D-4|..|D-2 2A.F ....|--- .... ....|--- .... ....
....|..|B-8 JF.F ....|E-5 2F.F ....|D-2 2F.7 ....
....|..|D-2 2F.7 ....|R-- .... ....|R-- .... ....
 D-4|..|C-4 LF.F ....|D-2 2A.F ....|D-2 2F.7 ....
....|..|D-2 2F.7 ....|R-- .... ....|--- .... ....
....|..|C-4 AF.F ....|--- .... ....|R-- .... ....
....|..|R-- .... ....|--- .... ....|--- .... ....
....|..|C-4 LF.F ....|--- .... ....|--- .... ....
....|..|--- .... ....|--- .... ....|--- .... ....
 D-4|..|B-8 JF.F ....|F-5 2F.F ....|D-2 2A.F ....
 D-4|..|D-2 2A.F ....|R-- .... ....|R-- .... ....
 D-4|..|C-4 LF.F ....|--- .... ....|D-2 2A.F ....
 D-4|..|D-2 2A.F ....|--- .... ....|--- .... ....
....|..|C-4 AF.F ....|E-5 2F.A ....|R-- .... ....
....|..|R-- .... ....|--- .... ....|--- .... ....
....|..|C-4 LF.F ....|D-2 2F.A ....|--- .... ....
....|..|--- .... ....|R-- .... ....|--- .... ....
....|..|B-8 JF.F ....|E-5 2F.F ....|--- .... ....
....|..|--- .... ....|R-- .... ....|--- .... ....
....|..|C-4 LF.F ....|--- .... ....|--- .... ....
....|..|--- .... ....|--- .... ....|--- .... ....
....|..|C-4 AF.F ....|D-5 2F.7 ....|G-4 2F87 ....
....|..|D-2 2F.7 ....|R-- .... ....|R-- .... ....
....|..|C-4 LF.F ....|--- .... ....|D-2 2F.7 ....
....|..|D-2 2F.7 ....|--- .... ....|--- .... ....
....|..|B-8 JF.F ....|E-5 2F.7 ....|R-- .... ....
....|..|R-- .... ....|--- .... ....|--- .... ....
....|..|C-4 LF.F ....|D-2 2F.7 ....|--- .... ....
....|..|--- .... ....|R-- .... ....|--- .... ....
 D-4|..|C-4 AF.F ....|D-5 2F.F ....|D-2 2A.F ....
 D-4|..|D-2 2A.F ....|R-- .... ....|R-- .... ....
 D-4|..|C-4 LF.F ....|--- .... ....|D-2 2A.F ....
 D-4|..|D-2 2A.F ....|--- .... ....|--- .... ....
....|..|B-8 JF.F ....|F-5 2F.7 ....|D-2 2F.7 ....
....|..|D-2 2F.7 ....|R-- .... ....|R-- .... ....
 D-4|..|C-4 LF.F ....|D-2 2A.F ....|D-2 2F.7 ....
....|..|D-2 2F.7 ....|R-- .... ....|--- .... ....
....|..|C-4 AF.F ....|E-5 2F.F ....|R-- .... ....
....|..|R-- .... ....|--- .... ....|--- .... ....
....|..|C-4 LF.F ....|--- .... ....|--- .... ....
....|..|--- .... ....|--- .... ....|--- .... ....
 D-4|..|B-8 JF.F ....|F-5 2F.F ....|D-2 2A.F ....
 D-4|..|D-2 2A.F ....|R-- .... ....|R-- .... ....
 D-4|..|C-4 LF.F ....|--- .... ....|D-2 2A.F ....
 D-4|..|D-2 2A.F ....|--- .... ....|--- .... ....
....|..|C-4 AF.F ....|--- .... ....|R-- .... ....
....|..|R-- .... ....|--- .... ....|--- .... ....
....|..|C-4 LF.F ....|D-2 2F.A ....|--- .... ....
....|..|--- .... ....|R-- .... ....|--- .... ....
 D-4|..|B-8 JF.F ....|D-2 2A.F ....|--- .... ....
....|..|--- .... ....|R-- .... ....|--- .... ....
....|..|C-4 LF.F ....|--- .... ....|--- .... ....
....|..|--- .... ....|--- .... ....|--- .... ....
....|..|C-4 AF.F ....|D-5 2F.7 ....|D-2 2F.7 ....
....|..|D-2 2F.7 ....|R-- .... ....|R-- .... ....
....|..|C-4 LF.F ....|--- .... ....|D-2 2F.7 ....
....|..|D-2 2F.7 ....|--- .... ....|--- .... ....
....|..|B-8 JF.F ....|--- .... ....|R-- .... ....
....|..|R-- .... ....|--- .... ....|--- .... ....
....|..|C-4 LF.F ....|D-2 2F.7 ....|--- .... ....
....|..|--- .... ....|R-- .... ....|--- .... ....

[Pattern23]
 B-4|..|C-4 AF.F ....|E-5 2F.7 ....|B-4 2C.F ....
 G-3|..|G-1 2A.F ....|R-- .... ....|R-- .... ....
 G-4|..|B-4 2F2F ....|--- .... ....|G-4 2C.F ....
....|..|--- .... ....|--- .... ....|R-- .... ....
 B-4|..|B-8 JF.F ....|F-5 2F.7 ....|B-4 2C.F ....
 B-4|..|D-2 2F.7 ....|R-- .... ....|B-4 2C.F ....
 G-4|..|C-4 LF.7 ....|--- .... ....|G-4 2C.F ....
....|..|D-2 2F.7 ....|--- .... ....|R-- .... ....
....|..|C-4 AF.F ....|--- .... ....|R-- .... ....
....|..|R-- .... ....|--- .... ....|R-- .... ....
....|..|C-4 LF.7 ....|--- .... ....|--- .... ....
....|..|--- .... ....|--- .... ....|--- .... ....
 B-4|..|B-8 JF.F ....|D-2 2F.7 ....|B-4 2C.F ....
....|..|G-1 2F.A ....|R-- .... ....|R-- .... ....
 G-4|..|C-4 LF.7 ....|--- .... ....|G-4 2C.F ....
....|..|--- .... ....|--- .... ....|R-- .... ....
 B-4|..|C-4 AF.F ....|--- .... ....|B-4 2C.F ....
 B-4|..|--- .... ....|--- .... ....|B-4 2C.F ....
 G-4|..|C-4 LF.7 ....|--- .... ....|G-4 2C.F ....
....|..|--- .... ....|--- .... ....|R-- .... ....
 B-4|..|B-8 JF.F ....|--- .... ....|B-4 2C.F ....
....|..|R-- .... ....|--- .... ....|R-- .... ....
....|..|C-4 LF.7 ....|--- .... ....|--- .... ....
....|..|--- .... ....|--- .... ....|--- .... ....
....|..|C-4 AF.F ....|--- .... ....|B-4 2F.7 ....
....|..|G-1 2F.7 ....|--- .... ....|R-- .... ....
....|..|B-4 2F27 ....|--- .... ....|G-4 2F.7 ....
....|..|--- .... ....|--- .... ....|R-- .... ....
 B-4|..|C-3 RF.F ....|--- .... ....|B-4 2C.F ....
....|..|--- .... ....|--- .... ....|B-4 2F.7 ....
 G-4|..|--- .... ....|--- .... ....|G-4 2C.F ....
....|..|--- .... ....|--- .... ....|R-- .... ....
 B-4|..|C-4 AF.F ....|--- .... ....|B-4 2C.F ....
 B-4|..|G-1 2F.F ....|--- .... ....|B-4 2C.F ....
 G-4|..|--- .F.. ....|--- .... ....|G-4 2C.F ....
....|..|--- .... ....|--- .... ....|R-- .... ....
 B-4|..|B-8 JF.F ....|--- .... ....|B-4 2C.F ....
....|..|--- .... ....|--- .... ....|R-- .... ....
 G-4|..|--- .... ....|--- .... ....|G-4 2C.F ....
....|..|--- .... ....|--- .... ....|R-- .... ....
....|..|C-4 AF.F ....|--- .... ....|B-4 2F.7 ....
....|..|R-- .... ....|--- .... ....|B-4 2F.7 ....
....|..|--- .... ....|--- .... ....|G-4 2F.7 ....
....|..|--- .... ....|--- .... ....|R-- .... ....
 B-4|..|B-8 JF.F ....|--- .... ....|B-4 2C.F ....
....|..|G-1 2F.A ....|--- .... ....|R-- .... ....
 G-4|..|--- .... ....|--- .... ....|G-4 2C.F ....
....|..|--- .... ....|--- .... ....|R-- .... ....
 B-4|..|C-4 AF.F ....|--- .... ....|B-4 2C.F ....
 B-4|..|--- .... ....|--- .... ....|B-4 2C.F ....
 G-4|..|--- .... ....|--- .... ....|G-4 2C.F ....
....|..|--- .... ....|--- .... ....|R-- .... ....
 B-4|..|B-8 JF.F ....|--- .... ....|B-4 2C.F ....
....|..|R-- .... ....|--- .... ....|R-- .... ....
 G-4|..|--- .... ....|--- .... ....|G-4 2C.F ....
....|..|--- .... ....|--- .... ....|R-- .... ....
....|..|C-4 AF.F ....|--- .... ....|B-4 2F.7 ....
....|..|G-1 2F.7 ....|--- .... ....|B-4 2F.7 ....
....|..|--- .... ....|--- .... ....|G-4 2F.7 ....
....|..|--- .... ....|--- .... ....|R-- .... ....
 B-4|..|C-3 RF.F ....|--- .... ....|B-4 2C.F ....
....|..|--- .... ....|--- .... ....|R-- .... ....
 G-4|..|--- .... ....|--- .... ....|G-4 2C.F ....
....|..|--- .... ....|--- .... ....|R-- .... ....
 B-4|..|C-4 AF.F ....|--- .... ....|B-4 2C.F ....
 B-4|..|G-1 2F.F ....|--- .... ....|B-4 2C.F ....
 G-4|..|B-4 2F3F ....|--- .... ....|G-4 2C.F ....
....|..|--- .... ....|--- .... ....|R-- .... ....
 B-4|..|B-8 JF.F ....|--- .... ....|B-4 2C.F ....
....|..|--- .... ....|--- .... ....|R-- .... ....
 G-4|..|--- .... ....|--- .... ....|G-4 2C.F ....
....|..|--- .... ....|--- .... ....|R-- .... ....
....|..|C-4 AF.F ....|--- .... ....|B-4 2F.7 ....
....|..|R-- .... ....|--- .... ....|B-4 2F.7 ....
....|..|--- .... ....|--- .... ....|G-4 2F.7 ....
....|..|--- .... ....|--- .... ....|R-- .... ....
 B-4|..|B-8 JF.F ....|--- .... ....|B-4 2C.F ....
....|..|G-1 2F.A ....|--- .... ....|R-- .... ....
 G-4|..|B-4 2F3A ....|--- .... ....|G-4 2C.F ....
....|..|--- .... ....|--- .... ....|R-- .... ....
 B-4|..|C-4 AF.F ....|--- .... ....|B-4 2C.F ....
 B-4|..|--- .... ....|--- .... ....|B-4 2C.F ....
 G-4|..|--- .... ....|--- .... ....|G-4 2C.F ....
....|..|--- .... ....|--- .... ....|R-- .... ....
 B-4|..|B-8 JF.F ....|--- .... ....|B-4 2C.F ....
....|..|R-- .... ....|--- .... ....|R-- .... ....
 G-4|..|--- .... ....|--- .... ....|G-4 2C.F ....
....|..|--- .... ....|--- .... ....|R-- .... ....
....|..|C-4 AF.F ....|--- .... ....|B-4 2F.7 ....
....|..|G-1 2F.7 ....|--- .... ....|B-4 2F.7 ....
....|..|B-4 2F37 ....|--- .... ....|G-4 2F.7 ....
....|..|--- .... ....|--- .... ....|R-- .... ....
 B-4|..|C-3 RF.F ....|--- .... ....|B-4 2C.F ....
....|..|--- .... ....|--- .... ....|R-- .... ....
 G-4|..|--- .... ....|--- .... ....|G-4 2C.F ....
....|..|--- .... ....|--- .... ....|R-- .... ....
 B-4|..|C-4 AF.F ....|--- .... ....|B-4 2C.F ....
 B-4|..|G-1 2F.F ....|--- .... ....|B-4 2C.F ....
 G-4|..|--- .F.. ....|--- .... ....|G-4 2C.F ....
....|..|--- .... ....|--- .... ....|R-- .... ....
 B-4|..|B-8 JF.F ....|--- .... ....|B-4 2C.F ....
....|..|--- .... ....|--- .... ....|R-- .... ....
 G-4|..|--- .... ....|--- .... ....|G-4 2C.F ....
....|..|--- .... ....|--- .... ....|R-- .... ....
....|..|C-4 AF.F ....|--- .... ....|B-4 2F.7 ....
....|..|R-- .... ....|--- .... ....|B-4 2F.7 ....
....|..|--- .... ....|--- .... ....|G-4 2F.7 ....
....|..|--- .... ....|--- .... ....|R-- .... ....
 B-4|..|B-8 JF.F ....|--- .... ....|B-4 2C.F ....
....|..|G-1 2F.A ....|--- .... ....|R-- .... ....
 G-4|..|--- .... ....|--- .... ....|G-4 2C.F ....
....|..|--- .... ....|--- .... ....|R-- .... ....
 B-4|..|C-4 AF.F ....|--- .... ....|B-4 2C.F ....
....|..|--- .... ....|--- .... ....|R-- .... ....
 G-4|..|--- .... ....|--- .... ....|G-4 2C.F ....
....|..|--- .... ....|--- .... ....|R-- .... ....
 B-4|..|B-8 JF.F ....|--- .... ....|B-4 2C.F ....
....|..|R-- .... ....|--- .... ....|R-- .... ....
 G-4|..|--- .... ....|--- .... ....|G-4 2C.F ....
....|..|--- .... ....|--- .... ....|R-- .... ....
....|..|C-4 AF.F ....|--- .... ....|B-4 2F.7 ....
....|..|G-1 2F.7 ....|--- .... ....|B-4 2F.7 ....
....|..|--- .... ....|--- .... ....|G-4 2F.7 ....
....|..|--- .... ....|--- .... ....|R-- .... ....
....|..|C-3 RF.F ....|--- .... ....|B-4 2F.7 ....
....|..|--- .... ....|--- .... ....|R-- .... ....
....|..|--- .... ....|--- .... ....|G-4 2F.7 ....
....|..|--- .... ....|--- .... ....|R-- .... ....

[Pattern24]
....|..|C-4 AF.F ....|D-5 2F.F ....|G-4 2F8F ....
 D-4|..|D-2 2A.F ....|--- .... ....|R-- .... ....
 D-4|..|C-4 LF.F ....|--- .... ....|D-2 2A.F ....
 D-4|..|D-2 2A.F ....|--- .... ....|R-- .... ....
....|..|B-8 JF.F ....|E-5 2F.F ....|B-4 2F.7 ....
....|..|R-- .... ....|--- .... ....|R-- .... ....
 D-4|..|C-4 LF.F ....|D-2 2A.F ....|G-4 2F.7 ....
....|..|--- .... ....|R-- .... ....|--- .... ....
....|..|C-4 AF.F ....|--- .... ....|B-4 2F.7 ....
....|..|--- .... ....|--- .... ....|R-- .... ....
....|..|C-4 LF.F ....|--- .... ....|G-4 2F.7 ....
....|..|--- .... ....|--- .... ....|R-- .... ....
 D-4|..|B-8 JF.F ....|F-5 2F.F ....|D-2 2A.F ....
 D-4|..|D-2 2A.F ....|R-- .... ....|R-- .... ....
 D-4|..|C-4 LF.F ....|--- .... ....|D-2 2A.F ....
 D-4|..|D-2 2A.F ....|--- .... ....|R-- .... ....
....|..|C-4 AF.F ....|E-5 2F.A ....|R-- .... ....
....|..|R-- .... ....|--- .... ....|--- .... ....
....|..|C-4 LF.F ....|D-2 2F.A ....|--- .... ....
....|..|--- .... ....|R-- .... ....|--- .... ....
....|..|B-8 JF.F ....|E-5 2F.F ....|--- .... ....
....|..|--- .... ....|R-- .... ....|--- .... ....
....|..|C-4 LF.F ....|--- .... ....|--- .... ....
....|..|--- .... ....|--- .... ....|--- .... ....
....|..|C-4 AF.F ....|D-5 2F.7 ....|G-4 2F87 ....
....|..|D-2 2F.7 ....|R-- .... ....|R-- .... ....
....|..|C-4 LF.F ....|--- .... ....|D-2 2F.7 ....
....|..|D-2 2F.7 ....|--- .... ....|--- .... ....
....|..|B-8 JF.F ....|E-5 2F.7 ....|R-- .... ....
....|..|R-- .... ....|--- .... ....|--- .... ....
....|..|C-4 LF.F ....|D-2 2F.7 ....|--- .... ....
....|..|--- .... ....|R-- .... ....|--- .... ....
 D-4|..|C-4 AF.F ....|D-5 2F.F ....|D-2 2A.F ....
 D-4|..|D-2 2A.F ....|R-- .... ....|R-- .... ....
 D-4|..|C-4 LF.F ....|--- .... ....|D-2 2A.F ....
 D-4|..|D-2 2A.F ....|--- .... ....|--- .... ....
....|..|B-8 JF.F ....|F-5 2F.7 ....|D-2 2F.7 ....
....|..|D-2 2F.7 ....|R-- .... ....|R-- .... ....
 D-4|..|C-4 LF.F ....|D-2 2A.F ....|D-2 2F.7 ....
....|..|D-2 2F.7 ....|R-- .... ....|--- .... ....
....|..|C-4 AF.F ....|E-5 2F.F ....|R-- .... ....
....|..|R-- .... ....|--- .... ....|--- .... ....
....|..|C-4 LF.F ....|--- .... ....|--- .... ....
....|..|--- .... ....|--- .... ....|--- .... ....
 D-4|..|B-8 JF.F ....|F-5 2F.F ....|D-2 2A.F ....
 D-4|..|D-2 2A.F ....|R-- .... ....|R-- .... ....
 D-4|..|C-4 LF.F ....|--- .... ....|D-2 2A.F ....
 D-4|..|D-2 2A.F ....|--- .... ....|--- .... ....
....|..|C-4 AF.F ....|--- .... ....|R-- .... ....
....|..|R-- .... ....|--- .... ....|--- .... ....
....|..|C-4 LF.F ....|D-2 2F.A ....|--- .... ....
....|..|--- .... ....|R-- .... ....|--- .... ....
....|..|B-8 JF.F ....|E-5 2F.F ....|--- .... ....
....|..|--- .... ....|R-- .... ....|--- .... ....
....|..|C-4 LF.F ....|--- .... ....|--- .... ....
....|..|--- .... ....|--- .... ....|--- .... ....
....|..|C-4 AF.F ....|D-5 2F.7 ....|D-2 2F.7 ....
....|..|D-2 2F.7 ....|R-- .... ....|R-- .... ....
....|..|C-4 LF.F ....|--- .... ....|D-2 2F.7 ....
....|..|D-2 2F.7 ....|--- .... ....|--- .... ....
....|..|B-8 JF.F ....|--- .... ....|R-- .... ....
....|..|R-- .... ....|--- .... ....|--- .... ....
....|..|C-4 LF.F ....|D-2 2F.7 ....|--- .... ....
....|..|--- .... ....|R-- .... ....|--- .... ....
 D-4|..|C-4 AF.F ....|E-5 2F.7 ....|D-2 2A.F ....
 D-4|..|D-2 2A.F ....|R-- .... ....|R-- .... ....
 D-4|..|C-4 LF.F ....|--- .... ....|D-2 2A.F ....
 D-4|..|D-2 2A.F ....|--- .... ....|--- .... ....
....|..|B-8 JF.F ....|F-5 2F.7 ....|D-2 2F.7 ....
....|..|D-2 2F.7 ....|R-- .... ....|R-- .... ....
 D-4|..|C-4 LF.F ....|D-2 2A.F ....|D-2 2F.7 ....
....|..|D-2 2F.7 ....|R-- .... ....|--- .... ....
....|..|C-4 AF.F ....|--- .... ....|R-- .... ....
....|..|R-- .... ....|--- .... ....|--- .... ....
....|..|C-4 LF.F ....|--- .... ....|--- .... ....
....|..|--- .... ....|R-- .... ....|--- .... ....
 D-4|..|B-8 JF.F ....|D-2 2A.F ....|D-2 2A.F ....
 D-4|..|D-2 2A.F ....|R-- .... ....|R-- .... ....
 D-4|..|C-4 LF.F ....|--- .... ....|D-2 2A.F ....
 D-4|..|D-2 2A.F ....|--- .... ....|--- .... ....
....|..|C-4 AF.F ....|--- .... ....|F-4 2F9F ....
....|..|R-- .... ....|--- .... ....|--- .... ....
....|..|C-4 LF.F ....|D-2 2F.A ....|--- .... ....
....|..|--- .... ....|R-- .... ....|--- .... ....
 D-4|..|B-8 JF.F ....|D-2 2A.F ....|--- .... ....
....|..|--- .... ....|R-- .... ....|--- .... ....
....|..|C-4 LF.F ....|--- .... ....|--- .... ....
....|..|--- .... ....|R-- .... ....|--- .... ....
....|..|C-4 AF.F ....|D-2 2F.A ....|D-2 2F.7 ....
....|..|D-2 2F.7 ....|R-- .... ....|R-- .... ....
....|..|C-4 LF.F ....|--- .... ....|D-2 2F.7 ....
....|..|D-2 2F.7 ....|--- .... ....|--- .... ....
....|..|B-8 JF.F ....|--- .... ....|R-- .... ....
....|..|R-- .... ....|--- .... ....|--- .... ....
....|..|C-4 LF.F ....|D-2 2F.7 ....|--- .... ....
....|..|--- .... ....|R-- .... ....|--- .... ....
 D-4|..|C-4 AF.F ....|D-2 2F.A ....|D-2 2A.F ....
 D-4|..|D-2 2A.F ....|R-- .... ....|R-- .... ....
 D-4|..|C-4 LF.F ....|--- .... ....|D-2 2A.F ....
 D-4|..|D-2 2A.F ....|--- .... ....|--- .... ....
....|..|B-8 JF.F ....|D-2 2F.7 ....|D-2 2F.7 ....
....|..|D-2 2F.7 ....|R-- .... ....|R-- .... ....
 D-4|..|C-4 LF.F ....|D-2 2A.F ....|D-2 2F.7 ....
....|..|D-2 2F.7 ....|R-- .... ....|--- .... ....
....|..|C-4 AF.F ....|--- .... ....|F-4 2F97 ....
....|..|R-- .... ....|--- .... ....|--- .... ....
....|..|C-4 LF.F ....|--- .... ....|--- .... ....
....|..|--- .... ....|--- .... ....|--- .... ....
 D-4|..|B-8 JF.F ....|D-2 2A.F ....|D-2 2A.F ....
 D-4|..|D-2 2A.F ....|R-- .... ....|R-- .... ....
 D-4|..|C-4 LF.F ....|--- .... ....|D-2 2A.F ....
 D-4|..|D-2 2A.F ....|--- .... ....|--- .... ....
....|..|C-4 AF.F ....|--- .... ....|R-- .... ....
....|..|R-- .... ....|--- .... ....|--- .... ....
....|..|C-4 LF.F ....|D-2 2F.A ....|--- .... ....
....|..|--- .... ....|R-- .... ....|--- .... ....
 D-4|..|B-8 JF.F ....|D-2 2A.F ....|--- .... ....
....|..|--- .... ....|R-- .... ....|--- .... ....
....|..|C-4 LF.F ....|--- .... ....|--- .... ....
....|..|--- .... ....|--- .... ....|--- .... ....
....|..|C-4 AF.F ....|D-2 2F.A ....|D#1 2F.F ....
....|..|D-2 2F.7 ....|R-- .... ....|R-- .... ....
....|..|C-4 LF.7 ....|--- .... ....|D-2 2F.7 ....
....|..|D-2 2F.7 ....|--- .... ....|--- .... ....
....|..|B-8 JF.7 ....|--- .... ....|R-- .... ....
....|..|R-- .... ....|--- .... ....|--- .... ....
....|..|C-4 LF.7 ....|D-2 2F.7 ....|--- .... ....
....|..|--- .... ....|R-- .... ....|--- .... ....

[Pattern25]
....|..|C-4 AF.7 ....|D-2 2F.A ....|R-- .... ....
....|..|--- .... ....|R-- .... ....|--- .... ....
....|..|C-4 LF.7 ....|--- .... ....|--- .... ....
....|..|--- .... ....|--- .... ....|--- .... ....
....|..|B-8 JF.7 ....|D-2 2F.7 ....|D-2 2F.7 ....
....|..|D-2 2F.7 ....|R-- .... ....|R-- .... ....
....|..|C-4 LF.7 ....|--- .... ....|D-2 2F.7 ....
....|..|D-2 2F.7 ....|--- .... ....|--- .... ....
....|..|C-4 AF.7 ....|--- .... ....|R-- .... ....
....|..|R-- .... ....|--- .... ....|--- .... ....
....|..|C-4 LF.7 ....|--- .... ....|--- .... ....
....|..|--- .... ....|--- .... ....|--- .... ....
....|..|B-8 JF.7 ....|D-2 2F.7 ....|R-- .... ....
....|..|--- .... ....|R-- .... ....|--- .... ....
....|..|C-4 LF.7 ....|--- .... ....|--- .... ....
....|..|--- .... ....|--- .... ....|--- .... ....
....|..|C-4 AF.7 ....|--- .... ....|D#1 2F.7 ....
....|..|--- .... ....|--- .... ....|--- .... ....
....|..|--- .... ....|--- .... ....|--- .... ....
....|..|--- .... ....|--- .... ....|--- .... ....
....|..|--- .... ....|--- .... ....|--- .... ....
....|..|--- .... ....|--- .... ....|--- .... ....
....|..|--- .... ....|--- .... ....|--- .... ....
....|..|--- .... ....|--- .... ....|--- .... ....
....|..|R-- .... ....|--- .... ....|R-- .... ....
....|..|--- .... ....|--- .... ....|--- .... ....
....|..|--- .... ....|--- .... ....|--- .... ....
....|..|--- .... ....|--- .... ....|--- .... ....
....|..|--- .... ....|--- .... ....|--- .... ....
....|..|--- .... ....|--- .... ....|--- .... ....
....|..|--- .... ....|--- .... ....|--- .... ....
....|..|--- .... ....|--- .... ....|--- .... ....
....|..|--- .... ....|--- .... ....|--- .... ....
....|..|--- .... ....|--- .... ....|--- .... ....
....|..|--- .... ....|--- .... ....|--- .... ....
....|..|--- .... ....|--- .... ....|--- .... ....
....|..|--- .... ....|--- .... ....|--- .... ....
....|..|--- .... ....|--- .... ....|--- .... ....
....|..|--- .... ....|--- .... ....|--- .... ....
....|..|--- .... ....|--- .... ....|--- .... ....
....|..|--- .... ....|--- .... ....|R-- .... ....
....|..|--- .... ....|--- .... ....|--- .... ....
....|..|--- .... ....|--- .... ....|--- .... ....
....|..|--- .... ....|--- .... ....|--- .... ....
....|..|--- .... ....|--- .... ....|--- .... ....
....|..|--- .... ....|--- .... ....|--- .... ....
....|..|--- .... ....|--- .... ....|--- .... ....
....|..|--- .... ....|--- .... ....|--- .... ....
....|..|--- .... ....|--- .... ....|--- .... ....
....|..|--- .... ....|--- .... ....|--- .... ....
....|..|--- .... ....|--- .... ....|--- .... ....
....|..|--- .... ....|--- .... ....|--- .... ....
....|..|--- .... ....|--- .... ....|R-- .... ....
....|..|--- .... ....|--- .... ....|--- .... ....
....|..|--- .... ....|--- .... ....|--- .... ....
....|..|--- .... ....|--- .... ....|--- .... ....
....|..|--- .... ....|--- .... ....|--- .... ....
....|..|--- .... ....|--- .... ....|--- .... ....
....|..|--- .... ....|--- .... ....|--- .... ....
....|..|--- .... ....|--- .... ....|--- .... ....
....|..|--- .... ....|--- .... ....|--- .... ....
....|..|--- .... ....|--- .... ....|--- .... ....
....|..|--- .... ....|--- .... ....|--- .... ....
....|..|--- .... ....|--- .... ....|--- .... ....

