[Module]
VortexTrackerII=0
Version=3.5
Title=5p[u]-4p[u]+,7me[2d]-5me[uc]+,6me[2b]
Author=oisee ^ 4d 29.05.2010
NoteTable=4
ChipFreq=1750000
Speed=3
PlayOrder=L0,0,0,3,0,3,0,3,8,8,8,8,12,13,13,13,16,17,17,17,20,21,22,21,24,17,17,17,28,13,13,13,13,13,34,35,0,0,3,0,3,0,3,8,8,8,8,47

[Ornament1]
L0,0,12,12

[Ornament2]
L0,0,15,15

[Ornament3]
L0,0,5,5

[Ornament4]
L0

[Ornament5]
L0

[Ornament6]
L0

[Ornament7]
L0

[Ornament8]
L0

[Ornament9]
L0

[Ornament10]
L0

[Ornament11]
-1,L0

[Ornament12]
L0

[Ornament13]
-1,L0

[Ornament14]
L0

[Ornament15]
L0

[Sample1]
TnE +000_ +00_ F_
TnE +000_ +00_ F_
TnE +000_ +00_ F_
TnE +000_ +00_ D_
TnE +000_ +00_ B_
TnE +000_ +00_ B_ L

[Sample2]
TnE +000_ +00_ F_ L

[Sample3]
TnE +001_ +00_ F_
TnE +002_ +00_ F_
TnE +001_ +00_ E_
TnE +002_ +00_ E_
TnE +000_ +00_ E_ L
TnE -001_ +00_ E_
TnE -002_ +00_ E_
TnE -001_ +00_ E_
TnE +000_ +00_ E_
TnE +001_ +00_ E_
TnE +002_ +00_ E_
TnE +001_ +00_ E_

[Sample4]
TnE +002_ +00_ D_
TnE +002_ +00_ D_
TnE +002_ +00_ C_
TnE +002_ +00_ B_
TnE +002_ +00_ A_ L
TnE +002_ +00_ A_
TnE +002_ +00_ A_
TnE +002_ +00_ A_
TnE +002_ +00_ A_
TnE +002_ +00_ A_
TnE +002_ +00_ A_
TnE +002_ +00_ A_

[Sample5]
TnE +000_ +00_ F_
TnE +000_ +00_ F_
tne +000_ +00_ 0_ L

[Sample6]
TnE -001_ +00_ F_ L

[Sample7]
TnE +006_ +00_ F_ L

[Sample8]
tNe +000_ +00_ F_
tNe +000_ +00_ B_
tNe +000_ +00_ 7_
tNe +000_ +00_ 6- L

[Sample9]
TnE +080_ +00_ F_
TnE +100_ +00_ E_
TnE +180_ +00_ E_
TnE +200_ +00_ E_
TnE +240_ +00_ D_
TnE +280_ +00_ D_
TnE +2C0_ +00_ D_
TnE +300_ +00_ C_
TnE +300_ +00_ C_
TnE +340_ +00_ C_
TnE +340_ +00_ C_
TnE +380_ +00_ B_
TnE +380_ +00_ B_
TnE +400_ +00_ B_
TnE +400_ +00_ B_
TnE +480_ +00_ A_
TnE +500_ +00_ 9_
TnE +580_ +00_ 7_
TnE +600_ +00_ 4_
TnE +680_ +00_ 1_
TnE +000_ +00_ 0_ L

[Sample10]
Tne +1C0_ +00_ F_
Tne +280_ +00_ E_
Tne +380_ +00_ C_
Tne +440_ +00_ A_
Tne +480_ +00_ 8_
TnE +000_ +00_ 0_ L

[Sample11]
TNe +200_ -0A_ F_
tNe +000_ +0F_ A_
TNe +200_ -07_ E_
tNe +000_ +0E_ B- L

[Sample12]
TNE +0A0_ +05_ F_
TNE +140_ +02_ D_
TNE +140_ +02_ B_
TNE +100_ +00_ A_ L
TNE +140_ +00_ A_
TNE +200_ +00_ A-

[Sample13]
Tne +200_ +00_ F_
Tne +2C0_ +00_ F_
Tne +380_ +00_ E_
Tne +500_ +00_ C_
Tne +520_ +00_ 9_
tne +000_ +00_ 0_ L

[Sample14]
TNE -100_ +00_ F_
TNE -100_ +00_ D_
TNE -100_ +00_ A_
TNE -100_ +00_ 5_
tne +000_ +00_ 0_ L

[Sample15]
TNE -100_ +00_ 5_
TNE -100_ +00_ 8_
TNE -100_ +00_ B_
TNE -100_ +00_ F_
TNe -100_ +00_ 9- L

[Sample16]
TnE +000_ +00_ C_
TnE +000_ +00_ E_
TnE +000_ +00_ F_
TnE +000_ +00_ F_
TnE +000_ +00_ E_
TnE +000_ +00_ D_
TnE +000_ +00_ C_
TnE +000_ +00_ C_ L
TnE +001_ +00_ C_
TnE +002_ +00_ C_
TnE +003_ +00_ C_
TnE +001_ +00_ C_
TnE +000_ +00_ C_
TnE -001_ +00_ C_
TnE -002_ +00_ C_
TnE -003_ +00_ C_
TnE -001_ +00_ C_
TnE +000_ +00_ C_
TnE +000_ +00_ C_

[Sample17]
Tne +1C0_ +00_ F_
Tne +280_ +00_ D_
Tne +380_ +00_ 7_
TNE +000_ +00_ 0_ L

[Sample18]
TnE -00C_ +00_ 0_ L

[Sample19]
TNe +000_ +00_ F_
TNe +000_ +00_ C_
TNe +000_ +00_ 6_
TNe +000_ +01_ A- L

[Sample20]
TNE +140_ +00_ F_
tNE +000_ +00_ B- L

[Sample21]
tNE +000_ +00_ D_
tNE +000_ +00_ 8_
tNE +000_ +00_ 1_
TNE +000_ +00_ 0_ L

[Sample22]
TnE +000_ +00_ D_ L
TnE +000_ +00_ D_
tne +000_ +00_ 9_
tne +000_ +00_ 9_
TnE +000_ +00_ D_
TnE +000_ +00_ D_
tne +000_ +00_ 9_
tne +000_ +00_ 9_
TnE +000_ +00_ D_
TnE +000_ +00_ D_
TnE +000_ +00_ D_
TnE +000_ +00_ D_
TnE +000_ +00_ D_
TnE +000_ +00_ D_
tne +000_ +00_ 9_
tne +000_ +00_ 9_

[Sample23]
TnE +000_ +00_ F_ L
TnE +010_ +01_ F_
TnE +010_ +01_ F_
TnE +010_ +01_ F_
TnE +010_ +01_ F_
TnE +000_ +00_ F_
TnE +000_ +00_ F_
TnE -010_ -01_ F_
TnE -010_ -01_ F_
TnE -010_ -01_ F_
TnE -010_ -01_ F_
TnE +000_ +00_ F_

[Sample24]
TNe +000_ -01_ C_
TNe +000_ -01_ D_
TNe +000_ -01_ E_
TNe +000_ -01_ F_
TNe +000_ -01_ F_
TNe +000_ -01_ F_
TNe +000_ -01_ F_
TNe +000_ -01_ F_
TNe +000_ -01_ E_
TNe +000_ -01_ E_
TNe +000_ -01_ E_
TNe +000_ -01_ F_
TNe +000_ -01_ F_ L

[Sample25]
TNE +000_ +00_ F_
TNE +000_ +00_ F_ L
TNE +000_ +00_ F_
TNE +000_ +00_ F_
TNE +000_ +00_ F-

[Sample26]
tne +000_ +00_ 0_ L

[Sample27]
TnE +100_ +05_ F_
TnE +200_ +02_ A_
TnE +300_ +02_ 7_
TNE +400_ +00_ 3- L

[Sample28]
tne +000_ +00_ 0_ L

[Sample29]
tnE +000_ +00_ 0_ L

[Sample30]
TNE +001_ +00_ F_
TNE +002_ +00_ F_
TNE +001_ +00_ E_
TNE +002_ +00_ E_
TNE +000_ +00_ E_ L
TNE -001_ +00_ E_
TNE -002_ +00_ E_
TNE -001_ +00_ E_
TNE +000_ +00_ E_
TNE +001_ +00_ E_
TNE +002_ +00_ E_
TNE +001_ +00_ E_

[Sample31]
TNe +1C0_ +00_ F_
Tne +280_ +00_ E_
Tne +380_ +00_ C_
Tne +440_ +00_ A_
Tne +480_ +00_ 8_
TnE +000_ +00_ 0_ L

[Pattern0]
....|..|--- .... ....|--- .... ....|--- .... ....
....|..|--- .... ....|--- .... ....|--- .... ....
....|..|--- .... ....|--- .... ....|--- .... ....
....|..|--- .... ....|--- .... ....|--- .... ....
....|..|--- .... ....|--- .... ....|--- .... ....
....|..|--- .... ....|--- .... ....|--- .... ....
....|..|--- .... ....|--- .... ....|--- .... ....
....|..|--- .... ....|--- .... ....|--- .... ....
....|..|--- .... ....|--- .... ....|--- .... ....
....|..|--- .... ....|--- .... ....|--- .... ....
....|..|--- .... ....|--- .... ....|--- .... ....
....|..|--- .... ....|--- .... ....|--- .... ....
....|..|--- .... ....|--- .... ....|--- .... ....
....|..|--- .... ....|--- .... ....|--- .... ....
....|..|--- .... ....|--- .... ....|--- .... ....
....|..|--- .... ....|--- .... ....|--- .... ....
....|..|--- .... ....|--- .... ....|--- .... ....
....|..|--- .... ....|--- .... ....|--- .... ....
....|..|--- .... ....|--- .... ....|--- .... ....
....|..|--- .... ....|--- .... ....|--- .... ....
....|..|--- .... ....|--- .... ....|--- .... ....
....|..|--- .... ....|--- .... ....|--- .... ....
....|..|--- .... ....|--- .... ....|--- .... ....
....|..|--- .... ....|--- .... ....|--- .... ....
....|..|--- .... ....|--- .... ....|--- .... ....
....|..|--- .... ....|--- .... ....|--- .... ....
....|..|--- .... ....|--- .... ....|--- .... ....
....|..|--- .... ....|--- .... ....|--- .... ....
....|..|--- .... ....|--- .... ....|--- .... ....
....|..|--- .... ....|--- .... ....|--- .... ....
....|..|--- .... ....|--- .... ....|--- .... ....
....|..|--- .... ....|--- .... ....|--- .... ....
....|..|--- .... ....|--- .... ....|--- .... ....
....|..|--- .... ....|--- .... ....|--- .... ....
....|..|--- .... ....|--- .... ....|--- .... ....
....|..|--- .... ....|--- .... ....|--- .... ....
....|..|--- .... ....|--- .... ....|--- .... ....
....|..|--- .... ....|--- .... ....|--- .... ....
....|..|--- .... ....|--- .... ....|--- .... ....
....|..|--- .... ....|--- .... ....|--- .... ....
....|..|--- .... ....|--- .... ....|--- .... ....
....|..|--- .... ....|--- .... ....|--- .... ....
....|..|--- .... ....|--- .... ....|--- .... ....
....|..|--- .... ....|--- .... ....|--- .... ....
....|..|--- .... ....|--- .... ....|--- .... ....
....|..|--- .... ....|--- .... ....|--- .... ....
....|..|--- .... ....|--- .... ....|--- .... ....
....|..|--- .... ....|--- .... ....|--- .... ....
....|..|--- .... ....|--- .... ....|--- .... ....
....|..|--- .... ....|--- .... ....|--- .... ....
....|..|--- .... ....|--- .... ....|--- .... ....
....|..|--- .... ....|--- .... ....|--- .... ....
....|..|--- .... ....|--- .... ....|--- .... ....
....|..|--- .... ....|--- .... ....|--- .... ....
....|..|--- .... ....|--- .... ....|--- .... ....
....|..|--- .... ....|--- .... ....|--- .... ....
....|..|--- .... ....|--- .... ....|--- .... ....
....|..|--- .... ....|--- .... ....|--- .... ....
....|..|--- .... ....|--- .... ....|--- .... ....
....|..|--- .... ....|--- .... ....|--- .... ....
....|..|--- .... ....|--- .... ....|--- .... ....
....|..|--- .... ....|--- .... ....|--- .... ....
....|..|--- .... ....|--- .... ....|--- .... ....
....|..|--- .... ....|--- .... ....|--- .... ....
....|..|--- .... ....|--- .... ....|--- .... ....
....|..|--- .... ....|--- .... ....|--- .... ....
....|..|--- .... ....|--- .... ....|--- .... ....
....|..|--- .... ....|--- .... ....|--- .... ....
....|..|--- .... ....|--- .... ....|--- .... ....
....|..|--- .... ....|--- .... ....|--- .... ....
....|..|--- .... ....|--- .... ....|--- .... ....
....|..|--- .... ....|--- .... ....|--- .... ....
....|..|--- .... ....|--- .... ....|--- .... ....
....|..|--- .... ....|--- .... ....|--- .... ....
....|..|--- .... ....|--- .... ....|--- .... ....
....|..|--- .... ....|--- .... ....|--- .... ....
....|..|--- .... ....|--- .... ....|--- .... ....
....|..|--- .... ....|--- .... ....|--- .... ....
....|..|--- .... ....|--- .... ....|--- .... ....
....|..|--- .... ....|--- .... ....|--- .... ....
....|..|--- .... ....|--- .... ....|--- .... ....
....|..|--- .... ....|--- .... ....|--- .... ....
....|..|--- .... ....|--- .... ....|--- .... ....
....|..|--- .... ....|--- .... ....|--- .... ....
....|..|--- .... ....|--- .... ....|--- .... ....
....|..|--- .... ....|--- .... ....|--- .... ....
....|..|--- .... ....|--- .... ....|--- .... ....
....|..|--- .... ....|--- .... ....|--- .... ....
....|..|--- .... ....|--- .... ....|--- .... ....
....|..|--- .... ....|--- .... ....|--- .... ....
....|..|--- .... ....|--- .... ....|--- .... ....
....|..|--- .... ....|--- .... ....|--- .... ....
....|..|--- .... ....|--- .... ....|--- .... ....
....|..|--- .... ....|--- .... ....|--- .... ....
....|..|--- .... ....|--- .... ....|--- .... ....
....|..|--- .... ....|--- .... ....|--- .... ....
....|..|--- .... ....|--- .... ....|--- .... ....
....|..|--- .... ....|--- .... ....|--- .... ....
....|..|--- .... ....|--- .... ....|--- .... ....
....|..|--- .... ....|--- .... ....|--- .... ....
....|..|--- .... ....|--- .... ....|--- .... ....
....|..|--- .... ....|--- .... ....|--- .... ....
....|..|--- .... ....|--- .... ....|--- .... ....
....|..|--- .... ....|--- .... ....|--- .... ....
....|..|--- .... ....|--- .... ....|--- .... ....
....|..|--- .... ....|--- .... ....|--- .... ....
....|..|--- .... ....|--- .... ....|--- .... ....
....|..|--- .... ....|--- .... ....|--- .... ....
....|..|--- .... ....|--- .... ....|--- .... ....
....|..|--- .... ....|--- .... ....|--- .... ....
....|..|--- .... ....|--- .... ....|--- .... ....
....|..|--- .... ....|--- .... ....|--- .... ....
....|..|--- .... ....|--- .... ....|--- .... ....
....|..|--- .... ....|--- .... ....|--- .... ....
....|..|--- .... ....|--- .... ....|--- .... ....
....|..|--- .... ....|--- .... ....|--- .... ....
....|..|--- .... ....|--- .... ....|--- .... ....
....|..|--- .... ....|--- .... ....|--- .... ....
....|..|--- .... ....|--- .... ....|--- .... ....
....|..|--- .... ....|--- .... ....|--- .... ....
....|..|--- .... ....|--- .... ....|--- .... ....
....|..|--- .... ....|--- .... ....|--- .... ....
....|..|--- .... ....|--- .... ....|--- .... ....
....|..|--- .... ....|--- .... ....|--- .... ....
....|..|--- .... ....|--- .... ....|--- .... ....
....|..|--- .... ....|--- .... ....|--- .... ....
....|..|--- .... ....|--- .... ....|--- .... ....
....|..|--- .... ....|--- .... ....|--- .... ....

[Pattern3]
....|..|--- .... ....|--- .... ....|--- .... ....
....|..|--- .... ....|--- .... ....|--- .... ....
....|..|--- .... ....|--- .... ....|--- .... ....
....|..|--- .... ....|--- .... ....|--- .... ....
....|..|--- .... ....|--- .... ....|--- .... ....
....|..|--- .... ....|--- .... ....|--- .... ....
....|..|--- .... ....|--- .... ....|--- .... ....
....|..|--- .... ....|--- .... ....|--- .... ....
....|..|--- .... ....|--- .... ....|--- .... ....
....|..|--- .... ....|--- .... ....|--- .... ....
....|..|--- .... ....|--- .... ....|--- .... ....
....|..|--- .... ....|--- .... ....|--- .... ....
....|..|--- .... ....|--- .... ....|--- .... ....
....|..|--- .... ....|--- .... ....|--- .... ....
....|..|--- .... ....|--- .... ....|--- .... ....
....|..|--- .... ....|--- .... ....|--- .... ....
....|..|--- .... ....|--- .... ....|--- .... ....
....|..|--- .... ....|--- .... ....|--- .... ....
....|..|--- .... ....|--- .... ....|--- .... ....
....|..|--- .... ....|--- .... ....|--- .... ....
....|..|--- .... ....|--- .... ....|--- .... ....
....|..|--- .... ....|--- .... ....|--- .... ....
....|..|--- .... ....|--- .... ....|--- .... ....
....|..|--- .... ....|--- .... ....|--- .... ....
....|..|--- .... ....|--- .... ....|--- .... ....
....|..|--- .... ....|--- .... ....|--- .... ....
....|..|--- .... ....|--- .... ....|--- .... ....
....|..|--- .... ....|--- .... ....|--- .... ....
....|..|--- .... ....|--- .... ....|--- .... ....
....|..|--- .... ....|--- .... ....|--- .... ....
....|..|--- .... ....|--- .... ....|--- .... ....
....|..|--- .... ....|--- .... ....|--- .... ....
....|..|--- .... ....|--- .... ....|--- .... ....
....|..|--- .... ....|--- .... ....|--- .... ....
....|..|--- .... ....|--- .... ....|--- .... ....
....|..|--- .... ....|--- .... ....|--- .... ....
....|..|--- .... ....|--- .... ....|--- .... ....
....|..|--- .... ....|--- .... ....|--- .... ....
....|..|--- .... ....|--- .... ....|--- .... ....
....|..|--- .... ....|--- .... ....|--- .... ....
....|..|--- .... ....|--- .... ....|--- .... ....
....|..|--- .... ....|--- .... ....|--- .... ....
....|..|--- .... ....|--- .... ....|--- .... ....
....|..|--- .... ....|--- .... ....|--- .... ....
....|..|--- .... ....|--- .... ....|--- .... ....
....|..|--- .... ....|--- .... ....|--- .... ....
....|..|--- .... ....|--- .... ....|--- .... ....
....|..|--- .... ....|--- .... ....|--- .... ....
....|..|C#4 UF3F ....|--- .... ....|--- .... ....
....|..|--- .... ....|--- .... ....|--- .... ....
....|..|--- .... ....|--- .... ....|--- .... ....
....|..|--- .... ....|--- .... ....|--- .... ....
....|..|--- .... ....|--- .... ....|--- .... ....
....|..|--- .... ....|--- .... ....|--- .... ....
....|..|C#4 UF3A ....|--- .... ....|--- .... ....
....|..|--- .... ....|--- .... ....|--- .... ....
....|..|--- .... ....|--- .... ....|--- .... ....
....|..|--- .... ....|--- .... ....|--- .... ....
....|..|--- .... ....|--- .... ....|--- .... ....
....|..|--- .... ....|--- .... ....|--- .... ....
....|..|C#4 UF37 ....|--- .... ....|--- .... ....
....|..|--- .... ....|--- .... ....|--- .... ....
....|..|--- .... ....|--- .... ....|--- .... ....
....|..|--- .... ....|--- .... ....|--- .... ....
....|..|--- .... ....|--- .... ....|--- .... ....
....|..|--- .... ....|--- .... ....|--- .... ....
....|..|--- .... ....|--- .... ....|--- .... ....
....|..|--- .... ....|--- .... ....|--- .... ....
....|..|--- .... ....|--- .... ....|--- .... ....
....|..|--- .... ....|--- .... ....|--- .... ....
....|..|--- .... ....|--- .... ....|--- .... ....
....|..|--- .... ....|--- .... ....|--- .... ....
....|..|--- .... ....|--- .... ....|--- .... ....
....|..|--- .... ....|--- .... ....|--- .... ....
....|..|--- .... ....|--- .... ....|--- .... ....
....|..|--- .... ....|--- .... ....|--- .... ....
....|..|--- .... ....|--- .... ....|--- .... ....
....|..|--- .... ....|--- .... ....|--- .... ....
....|..|--- .... ....|--- .... ....|--- .... ....
....|..|--- .... ....|--- .... ....|--- .... ....
....|..|--- .... ....|--- .... ....|--- .... ....
....|..|--- .... ....|--- .... ....|--- .... ....
....|..|--- .... ....|--- .... ....|--- .... ....
....|..|--- .... ....|--- .... ....|--- .... ....
....|..|--- .... ....|--- .... ....|--- .... ....
....|..|--- .... ....|--- .... ....|--- .... ....
....|..|--- .... ....|--- .... ....|--- .... ....
....|..|--- .... ....|--- .... ....|--- .... ....
....|..|--- .... ....|--- .... ....|--- .... ....
....|..|--- .... ....|--- .... ....|--- .... ....
....|..|--- .... ....|--- .... ....|--- .... ....
....|..|--- .... ....|--- .... ....|--- .... ....
....|..|--- .... ....|--- .... ....|--- .... ....
....|..|--- .... ....|--- .... ....|--- .... ....
....|..|--- .... ....|--- .... ....|--- .... ....
....|..|--- .... ....|--- .... ....|--- .... ....
....|..|--- .... ....|--- .... ....|--- .... ....
....|..|--- .... ....|--- .... ....|--- .... ....
....|..|--- .... ....|--- .... ....|--- .... ....
....|..|--- .... ....|--- .... ....|--- .... ....
....|..|--- .... ....|--- .... ....|--- .... ....
....|..|--- .... ....|--- .... ....|--- .... ....
....|..|--- .... ....|--- .... ....|--- .... ....
....|..|--- .... ....|--- .... ....|--- .... ....
....|..|--- .... ....|--- .... ....|--- .... ....
....|..|--- .... ....|--- .... ....|--- .... ....
....|..|--- .... ....|--- .... ....|--- .... ....
....|..|--- .... ....|--- .... ....|--- .... ....
....|..|--- .... ....|--- .... ....|--- .... ....
....|..|--- .... ....|--- .... ....|--- .... ....
....|..|--- .... ....|--- .... ....|--- .... ....
....|..|--- .... ....|--- .... ....|--- .... ....
....|..|R-- .... ....|--- .... ....|--- .... ....
....|..|--- .... ....|--- .... ....|--- .... ....
....|..|--- .... ....|--- .... ....|--- .... ....
....|..|--- .... ....|--- .... ....|--- .... ....
....|..|--- .... ....|--- .... ....|--- .... ....
....|..|--- .... ....|--- .... ....|--- .... ....
....|..|R-- .... ....|--- .... ....|--- .... ....
....|..|--- .... ....|--- .... ....|--- .... ....
....|..|--- .... ....|--- .... ....|--- .... ....
....|..|--- .... ....|--- .... ....|--- .... ....
....|..|--- .... ....|--- .... ....|--- .... ....
....|..|--- .... ....|--- .... ....|--- .... ....
....|..|R-- .... ....|--- .... ....|--- .... ....
....|..|--- .... ....|--- .... ....|--- .... ....
....|..|--- .... ....|--- .... ....|--- .... ....
....|..|--- .... ....|--- .... ....|--- .... ....

[Pattern8]
 A#3|..|A#3 UF1F ....|A#3 2CCF ....|--- .... ....
....|..|--- .... ....|--- .... ....|--- .... ....
....|..|--- .... ....|--- .... ....|--- .... ....
....|..|--- .... ....|--- .... ....|--- .... ....
....|..|--- .... ....|--- .... ....|--- .... ....
....|..|--- .... ....|--- .... ....|--- .... ....
....|..|A#3 UF1A ....|A#3 2FCA ....|--- .... ....
....|..|--- .... ....|--- .... ....|--- .... ....
....|..|--- .... ....|--- .... ....|--- .... ....
....|..|--- .... ....|--- .... ....|--- .... ....
....|..|--- .... ....|--- .... ....|--- .... ....
....|..|--- .... ....|--- .... ....|--- .... ....
....|..|A#3 UF17 ....|A#3 2FC7 ....|--- .... ....
....|..|--- .... ....|--- .... ....|--- .... ....
....|..|--- .... ....|--- .... ....|--- .... ....
....|..|--- .... ....|--- .... ....|--- .... ....
....|..|--- .... ....|--- .... ....|--- .... ....
....|..|--- .... ....|--- .... ....|--- .... ....
....|..|--- .... ....|--- .... ....|--- .... ....
....|..|--- .... ....|--- .... ....|--- .... ....
....|..|--- .... ....|--- .... ....|--- .... ....
....|..|--- .... ....|--- .... ....|--- .... ....
....|..|--- .... ....|--- .... ....|--- .... ....
....|..|--- .... ....|--- .... ....|--- .... ....
....|..|--- .... ....|--- .... ....|--- .... ....
....|..|--- .... ....|--- .... ....|--- .... ....
....|..|--- .... ....|--- .... ....|--- .... ....
....|..|--- .... ....|--- .... ....|--- .... ....
....|..|--- .... ....|--- .... ....|--- .... ....
....|..|--- .... ....|--- .... ....|--- .... ....
....|..|--- .... ....|--- .... ....|--- .... ....
....|..|--- .... ....|--- .... ....|--- .... ....
 A-3|..|A-3 UF1F ....|A-3 2CCF ....|--- .... ....
....|..|--- .... ....|--- .... ....|--- .... ....
....|..|--- .... ....|--- .... ....|--- .... ....
....|..|--- .... ....|--- .... ....|--- .... ....
....|..|--- .... ....|--- .... ....|--- .... ....
....|..|--- .... ....|--- .... ....|--- .... ....
....|..|A-3 UF1A ....|A-3 2FCA ....|--- .... ....
....|..|--- .... ....|--- .... ....|--- .... ....
....|..|--- .... ....|--- .... ....|--- .... ....
....|..|--- .... ....|--- .... ....|--- .... ....
....|..|--- .... ....|--- .... ....|--- .... ....
....|..|--- .... ....|--- .... ....|--- .... ....
....|..|A-3 UF17 ....|A-3 2FC7 ....|--- .... ....
....|..|--- .... ....|--- .... ....|--- .... ....
....|..|--- .... ....|--- .... ....|--- .... ....
....|..|--- .... ....|--- .... ....|--- .... ....
 G#4|..|G#3 UF1F ....|G#3 2CCF ....|--- .... ....
....|..|--- .... ....|--- .... ....|--- .... ....
....|..|--- .... ....|--- .... ....|--- .... ....
....|..|--- .... ....|--- .... ....|--- .... ....
....|..|--- .... ....|--- .... ....|--- .... ....
....|..|--- .... ....|--- .... ....|--- .... ....
....|..|G#3 UF1A ....|G#3 2FCA ....|--- .... ....
....|..|--- .... ....|--- .... ....|--- .... ....
....|..|--- .... ....|--- .... ....|--- .... ....
....|..|--- .... ....|--- .... ....|--- .... ....
....|..|--- .... ....|--- .... ....|--- .... ....
....|..|--- .... ....|--- .... ....|--- .... ....
....|..|G#3 UF17 ....|G#3 2FC7 ....|--- .... ....
....|..|--- .... ....|--- .... ....|--- .... ....
....|..|--- .... ....|--- .... ....|--- .... ....
....|..|--- .... ....|--- .... ....|--- .... ....
 F#4|..|D#3 UF2F ....|F#3 2CCF ....|--- .... ....
....|..|--- .... ....|--- .... ....|--- .... ....
....|..|--- .... ....|--- .... ....|--- .... ....
....|..|--- .... ....|--- .... ....|--- .... ....
....|..|--- .... ....|--- .... ....|--- .... ....
....|..|--- .... ....|--- .... ....|--- .... ....
....|..|D#3 UF2A ....|F#3 2FCA ....|--- .... ....
....|..|--- .... ....|--- .... ....|--- .... ....
....|..|--- .... ....|--- .... ....|--- .... ....
....|..|--- .... ....|--- .... ....|--- .... ....
....|..|--- .... ....|--- .... ....|--- .... ....
....|..|--- .... ....|--- .... ....|--- .... ....
....|..|D#3 UF27 ....|F#3 2FC7 ....|--- .... ....
....|..|--- .... ....|--- .... ....|--- .... ....
....|..|--- .... ....|--- .... ....|--- .... ....
....|..|--- .... ....|--- .... ....|--- .... ....
....|..|--- .... ....|--- .... ....|--- .... ....
....|..|--- .... ....|--- .... ....|--- .... ....
....|..|--- .... ....|--- .... ....|--- .... ....
....|..|--- .... ....|--- .... ....|--- .... ....
....|..|--- .... ....|--- .... ....|--- .... ....
....|..|--- .... ....|--- .... ....|--- .... ....
....|..|--- .... ....|--- .... ....|--- .... ....
....|..|--- .... ....|--- .... ....|--- .... ....
....|..|--- .... ....|--- .... ....|--- .... ....
....|..|--- .... ....|--- .... ....|--- .... ....
....|..|--- .... ....|--- .... ....|--- .... ....
....|..|--- .... ....|--- .... ....|--- .... ....
....|..|--- .... ....|--- .... ....|--- .... ....
....|..|--- .... ....|--- .... ....|--- .... ....
....|..|--- .... ....|--- .... ....|--- .... ....
....|..|--- .... ....|--- .... ....|--- .... ....
....|..|--- .... ....|--- .... ....|--- .... ....
....|..|--- .... ....|--- .... ....|--- .... ....
....|..|--- .... ....|--- .... ....|--- .... ....
....|..|--- .... ....|--- .... ....|--- .... ....
....|..|--- .... ....|--- .... ....|--- .... ....
....|..|--- .... ....|--- .... ....|--- .... ....
....|..|--- .... ....|--- .... ....|--- .... ....
....|..|--- .... ....|--- .... ....|--- .... ....
....|..|--- .... ....|--- .... ....|--- .... ....
....|..|--- .... ....|--- .... ....|--- .... ....
....|..|--- .... ....|--- .... ....|--- .... ....
....|..|--- .... ....|--- .... ....|--- .... ....
....|..|--- .... ....|--- .... ....|--- .... ....
....|..|--- .... ....|--- .... ....|--- .... ....
....|..|--- .... ....|--- .... ....|--- .... ....
....|..|--- .... ....|--- .... ....|--- .... ....
....|..|--- .... ....|--- .... ....|--- .... ....
....|..|--- .... ....|--- .... ....|--- .... ....
....|..|--- .... ....|--- .... ....|--- .... ....
....|..|--- .... ....|--- .... ....|--- .... ....
....|..|--- .... ....|--- .... ....|--- .... ....
....|..|--- .... ....|--- .... ....|--- .... ....
....|..|--- .... ....|--- .... ....|--- .... ....
....|..|--- .... ....|--- .... ....|--- .... ....
....|..|--- .... ....|--- .... ....|--- .... ....
....|..|--- .... ....|--- .... ....|--- .... ....
....|..|--- .... ....|--- .... ....|--- .... ....
....|..|--- .... ....|--- .... ....|--- .... ....
....|..|--- .... ....|--- .... ....|--- .... ....
....|..|--- .... ....|--- .... ....|--- .... ....
....|..|--- .... ....|--- .... ....|--- .... ....
....|..|--- .... ....|--- .... ....|--- .... ....

[Pattern12]
....|..|R-- .... ....|R-- .... ....|--- .... ....
....|..|--- .... ....|--- .... ....|--- .... ....
....|..|--- .... ....|--- .... ....|--- .... ....
....|..|--- .... ....|--- .... ....|--- .... ....
....|..|--- .... ....|--- .... ....|--- .... ....
....|..|--- .... ....|--- .... ....|--- .... ....
....|..|R-- .... ....|R-- .... ....|--- .... ....
....|..|--- .... ....|--- .... ....|--- .... ....
....|..|--- .... ....|--- .... ....|--- .... ....
....|..|--- .... ....|--- .... ....|--- .... ....
....|..|--- .... ....|--- .... ....|--- .... ....
....|..|--- .... ....|--- .... ....|--- .... ....
....|..|R-- .... ....|R-- .... ....|--- .... ....
....|..|--- .... ....|--- .... ....|--- .... ....
....|..|--- .... ....|--- .... ....|--- .... ....
....|..|--- .... ....|--- .... ....|--- .... ....
....|..|--- .... ....|--- .... ....|--- .... ....
....|..|--- .... ....|--- .... ....|--- .... ....
....|..|--- .... ....|--- .... ....|--- .... ....
....|..|--- .... ....|--- .... ....|--- .... ....
....|..|--- .... ....|--- .... ....|--- .... ....
....|..|--- .... ....|--- .... ....|--- .... ....
....|..|--- .... ....|--- .... ....|--- .... ....
....|..|--- .... ....|--- .... ....|--- .... ....
....|..|--- .... ....|--- .... ....|--- .... ....
....|..|--- .... ....|--- .... ....|--- .... ....
....|..|--- .... ....|--- .... ....|--- .... ....
....|..|--- .... ....|--- .... ....|--- .... ....
....|..|--- .... ....|--- .... ....|--- .... ....
....|..|--- .... ....|--- .... ....|--- .... ....
....|..|--- .... ....|--- .... ....|--- .... ....
....|..|--- .... ....|--- .... ....|--- .... ....
....|..|--- .... ....|--- .... ....|--- .... ....
....|..|--- .... ....|--- .... ....|--- .... ....
....|..|--- .... ....|--- .... ....|--- .... ....
....|..|--- .... ....|--- .... ....|--- .... ....
....|..|--- .... ....|--- .... ....|--- .... ....
....|..|--- .... ....|--- .... ....|--- .... ....
....|..|--- .... ....|--- .... ....|--- .... ....
....|..|--- .... ....|--- .... ....|--- .... ....
....|..|--- .... ....|--- .... ....|--- .... ....
....|..|--- .... ....|--- .... ....|--- .... ....
....|..|--- .... ....|--- .... ....|--- .... ....
....|..|--- .... ....|--- .... ....|--- .... ....
....|..|--- .... ....|--- .... ....|--- .... ....
....|..|--- .... ....|--- .... ....|--- .... ....
....|..|--- .... ....|--- .... ....|--- .... ....
....|..|--- .... ....|--- .... ....|--- .... ....
....|..|--- .... ....|--- .... ....|--- .... ....
....|..|--- .... ....|--- .... ....|--- .... ....
....|..|--- .... ....|--- .... ....|--- .... ....
....|..|--- .... ....|--- .... ....|--- .... ....
....|..|--- .... ....|--- .... ....|--- .... ....
....|..|--- .... ....|--- .... ....|--- .... ....
....|..|--- .... ....|--- .... ....|--- .... ....
....|..|--- .... ....|--- .... ....|--- .... ....
....|..|--- .... ....|--- .... ....|--- .... ....
....|..|--- .... ....|--- .... ....|--- .... ....
....|..|--- .... ....|--- .... ....|--- .... ....
....|..|--- .... ....|--- .... ....|--- .... ....
....|..|--- .... ....|--- .... ....|--- .... ....
....|..|--- .... ....|--- .... ....|--- .... ....
....|..|--- .... ....|--- .... ....|--- .... ....
....|..|--- .... ....|--- .... ....|--- .... ....
 F#4|..|--- .... ....|F#3 2CDF ....|D#3 2FBF ....
....|..|--- .... ....|--- .... ....|--- .... ....
....|..|--- .... ....|--- .... ....|--- .... ....
....|..|--- .... ....|--- .... ....|--- .... ....
....|..|--- .... ....|--- .... ....|--- .... ....
....|..|--- .... ....|--- .... ....|--- .... ....
....|..|--- .... ....|F#3 2FDA ....|D#3 2FBA ....
....|..|--- .... ....|--- .... ....|--- .... ....
 F#4|..|--- .... ....|F#3 2CDF ....|D#3 2FBF ....
....|..|--- .... ....|--- .... ....|--- .... ....
....|..|--- .... ....|--- .... ....|--- .... ....
....|..|--- .... ....|--- .... ....|--- .... ....
....|..|--- .... ....|F#3 2FD7 ....|D#3 2FB7 ....
....|..|--- .... ....|--- .... ....|--- .... ....
....|..|--- .... ....|F#3 2FDA ....|D#3 2FBA ....
....|..|--- .... ....|--- .... ....|--- .... ....
 F#4|..|--- .... ....|F#3 2CDF ....|D#3 2FBF ....
....|..|--- .... ....|--- .... ....|--- .... ....
....|..|--- .... ....|--- .... ....|--- .... ....
....|..|--- .... ....|--- .... ....|--- .... ....
 F#4|..|--- .... ....|F#3 2CDF ....|D#3 2FBF ....
 D#4|..|--- .... ....|D#3 2CDF ....|D#3 2CBF ....
....|..|--- .... ....|F#3 2FDA ....|D#3 2FBA ....
....|..|--- .... ....|--- .... ....|--- .... ....
....|..|--- .... ....|--- .... ....|--- .... ....
....|..|--- .... ....|--- .... ....|--- .... ....
....|..|--- .... ....|F#3 2FDA ....|D#3 2FBA ....
....|..|--- .... ....|D#3 2FDA ....|D#3 2FBA ....
 F#4|..|--- .... ....|F#3 2CDF ....|D#3 2FBF ....
....|..|--- .... ....|--- .... ....|--- .... ....
....|..|--- .... ....|--- .... ....|--- .... ....
....|..|--- .... ....|--- .... ....|--- .... ....
 F#4|..|--- .... ....|F#3 2CDF ....|D#3 2FBF ....
 F-4|..|--- .... ....|F-3 2CDF ....|D#3 2FBF ....
....|..|--- .... ....|F#3 2FDA ....|D#3 2FBA ....
....|..|--- .... ....|--- .... ....|--- .... ....
....|..|--- .... ....|--- .... ....|--- .... ....
....|..|--- .... ....|--- .... ....|--- .... ....
 F-4|..|--- .... ....|F-3 2CDF ....|D#3 2FBF ....
 F-4|..|--- .... ....|F-3 2CDF ....|D#3 2FBF ....
 F-4|..|--- .... ....|F-3 2CDF ....|D#3 2FBF ....
....|..|--- .... ....|--- .... ....|--- .... ....
....|..|--- .... ....|--- .... ....|--- .... ....
....|..|--- .... ....|--- .... ....|--- .... ....
 F-4|..|--- .... ....|F-3 2CDF ....|D#3 2FBF ....
 D#4|..|--- .... ....|D#3 2CDF ....|D#3 2CBF ....
....|..|--- .... ....|F-3 2FDA ....|D#3 2FBA ....
....|..|--- .... ....|--- .... ....|--- .... ....
....|..|--- .... ....|--- .... ....|--- .... ....
....|..|--- .... ....|--- .... ....|--- .... ....
 D#4|..|--- .... ....|D#3 2CDF ....|D#3 2CBF ....
....|..|--- .... ....|F-3 2FD7 ....|D#3 2FB7 ....
 D#4|..|--- .... ....|D#3 2CDF ....|D#3 2CBF ....
....|..|--- .... ....|--- .... ....|--- .... ....
....|..|--- .... ....|--- .... ....|--- .... ....
....|..|--- .... ....|--- .... ....|--- .... ....
 D#4|..|--- .... ....|D#3 2CDF ....|D#3 2CBF ....
 D#4|..|--- .... ....|D-3 2FDF ....|D#3 2CBF ....
....|..|--- .... ....|D#3 2FDA ....|D#3 2FBA ....
....|..|--- .... ....|--- .... ....|--- .... ....
 D#4|..|--- .... ....|D#3 2CDF ....|D#3 2CBF ....
 D#4|..|--- .... ....|D#3 2CDF ....|D#3 2CBF ....
 D#4|..|--- .... ....|D#3 2CDF ....|D#3 2CBF ....
....|..|--- .... ....|D-3 2FDA ....|D#3 2FBA ....

[Pattern13]
 F#4|..|--- .... ....|F#3 2CDF ....|D#3 2FBF ....
....|..|--- .... ....|--- .... ....|--- .... ....
....|..|--- .... ....|D#3 2FDA ....|D#3 2FBA ....
....|..|--- .... ....|D#3 2FDA ....|D#3 2FBA ....
....|..|--- .... ....|D#3 2FD7 ....|D#3 2FB7 ....
....|..|--- .... ....|D-3 2FD7 ....|D#3 2FB7 ....
....|..|--- .... ....|F#3 2FDA ....|D#3 2FBA ....
....|..|--- .... ....|--- .... ....|--- .... ....
 F#4|..|--- .... ....|F#3 2CDF ....|D#3 2FBF ....
....|..|--- .... ....|D#3 2FD7 ....|D#3 2FB7 ....
....|..|--- .... ....|D#3 2FD7 ....|D#3 2FB7 ....
....|..|--- .... ....|--- .... ....|--- .... ....
....|..|--- .... ....|F#3 2FD7 ....|D#3 2FB7 ....
....|..|--- .... ....|--- .... ....|--- .... ....
....|..|--- .... ....|F#3 2FDA ....|D#3 2FBA ....
....|..|--- .... ....|--- .... ....|--- .... ....
 F#4|..|--- .... ....|F#3 2CDF ....|D#3 2FBF ....
....|..|--- .... ....|--- .... ....|--- .... ....
....|..|--- .... ....|--- .... ....|--- .... ....
....|..|--- .... ....|--- .... ....|--- .... ....
 F#4|..|--- .... ....|F#3 2CDF ....|D#3 2FBF ....
 D#4|..|--- .... ....|D#3 2CDF ....|D#3 2CBF ....
....|..|--- .... ....|F#3 2FDA ....|D#3 2FBA ....
....|..|--- .... ....|--- .... ....|--- .... ....
....|..|--- .... ....|--- .... ....|--- .... ....
....|..|--- .... ....|--- .... ....|--- .... ....
....|..|--- .... ....|F#3 2FDA ....|D#3 2FBA ....
....|..|--- .... ....|D#3 2FDA ....|D#3 2FBA ....
 F#4|..|--- .... ....|F#3 2CDF ....|D#3 2FBF ....
....|..|--- .... ....|--- .... ....|--- .... ....
....|..|--- .... ....|--- .... ....|--- .... ....
....|..|--- .... ....|--- .... ....|--- .... ....
 F#4|..|--- .... ....|F#3 2CDF ....|D#3 2FBF ....
 F-4|..|--- .... ....|F-3 2CDF ....|D#3 2FBF ....
....|..|--- .... ....|F#3 2FDA ....|D#3 2FBA ....
....|..|--- .... ....|--- .... ....|--- .... ....
....|..|--- .... ....|--- .... ....|--- .... ....
....|..|--- .... ....|--- .... ....|--- .... ....
 F-4|..|--- .... ....|F-3 2CDF ....|D#3 2FBF ....
 F-4|..|--- .... ....|F-3 2CDF ....|D#3 2FBF ....
 F-4|..|--- .... ....|F-3 2CDF ....|D#3 2FBF ....
....|..|--- .... ....|--- .... ....|--- .... ....
....|..|--- .... ....|--- .... ....|--- .... ....
....|..|--- .... ....|--- .... ....|--- .... ....
 F-4|..|--- .... ....|F-3 2CDF ....|D#3 2FBF ....
 D#4|..|--- .... ....|D#3 2CDF ....|D#3 2CBF ....
....|..|--- .... ....|F-3 2FDA ....|D#3 2FBA ....
....|..|--- .... ....|--- .... ....|--- .... ....
....|..|--- .... ....|--- .... ....|--- .... ....
....|..|--- .... ....|--- .... ....|--- .... ....
 D#4|..|--- .... ....|D#3 2CDF ....|D#3 2CBF ....
....|..|--- .... ....|F-3 2FD7 ....|D#3 2FB7 ....
 D#4|..|--- .... ....|D#3 2CDF ....|D#3 2CBF ....
....|..|--- .... ....|--- .... ....|--- .... ....
....|..|--- .... ....|--- .... ....|--- .... ....
....|..|--- .... ....|--- .... ....|--- .... ....
 D#4|..|--- .... ....|D#3 2CDF ....|D#3 2CBF ....
 D#4|..|--- .... ....|D-3 2FDF ....|D#3 2CBF ....
....|..|--- .... ....|D#3 2FDA ....|D#3 2FBA ....
....|..|--- .... ....|--- .... ....|--- .... ....
 D#4|..|--- .... ....|D#3 2CDF ....|D#3 2CBF ....
 D#4|..|--- .... ....|D#3 2CDF ....|D#3 2CBF ....
 D#4|..|--- .... ....|D#3 2CDF ....|D#3 2CBF ....
....|..|--- .... ....|D-3 2FDA ....|D#3 2FBA ....
 F#4|..|--- .... ....|F#3 2CDF ....|D#3 2FBF ....
....|..|--- .... ....|--- .... ....|--- .... ....
....|..|--- .... ....|D#3 2FDA ....|D#3 2FBA ....
....|..|--- .... ....|D#3 2FDA ....|D#3 2FBA ....
....|..|--- .... ....|D#3 2FD7 ....|D#3 2FB7 ....
....|..|--- .... ....|D-3 2FD7 ....|D#3 2FB7 ....
....|..|--- .... ....|F#3 2FDA ....|D#3 2FBA ....
....|..|--- .... ....|--- .... ....|--- .... ....
 F#4|..|--- .... ....|F#3 2CDF ....|D#3 2FBF ....
....|..|--- .... ....|D#3 2FD7 ....|D#3 2FB7 ....
....|..|--- .... ....|D#3 2FD7 ....|D#3 2FB7 ....
....|..|--- .... ....|--- .... ....|--- .... ....
....|..|--- .... ....|F#3 2FD7 ....|D#3 2FB7 ....
....|..|--- .... ....|--- .... ....|--- .... ....
....|..|--- .... ....|F#3 2FDA ....|D#3 2FBA ....
....|..|--- .... ....|--- .... ....|--- .... ....
 F#4|..|--- .... ....|F#3 2CDF ....|D#3 2FBF ....
....|..|--- .... ....|--- .... ....|--- .... ....
....|..|--- .... ....|--- .... ....|--- .... ....
....|..|--- .... ....|--- .... ....|--- .... ....
 F#4|..|--- .... ....|F#3 2CDF ....|D#3 2FBF ....
 D#4|..|--- .... ....|D#3 2CDF ....|D#3 2CBF ....
....|..|--- .... ....|F#3 2FDA ....|D#3 2FBA ....
....|..|--- .... ....|--- .... ....|--- .... ....
....|..|--- .... ....|--- .... ....|--- .... ....
....|..|--- .... ....|--- .... ....|--- .... ....
....|..|--- .... ....|F#3 2FDA ....|D#3 2FBA ....
....|..|--- .... ....|D#3 2FDA ....|D#3 2FBA ....
 F#4|..|--- .... ....|F#3 2CDF ....|D#3 2FBF ....
....|..|--- .... ....|--- .... ....|--- .... ....
....|..|--- .... ....|--- .... ....|--- .... ....
....|..|--- .... ....|--- .... ....|--- .... ....
 F#4|..|--- .... ....|F#3 2CDF ....|D#3 2FBF ....
 F-4|..|--- .... ....|F-3 2CDF ....|D#3 2FBF ....
....|..|--- .... ....|F#3 2FDA ....|D#3 2FBA ....
....|..|--- .... ....|--- .... ....|--- .... ....
....|..|--- .... ....|--- .... ....|--- .... ....
....|..|--- .... ....|--- .... ....|--- .... ....
 F-4|..|--- .... ....|F-3 2CDF ....|D#3 2FBF ....
 F-4|..|--- .... ....|F-3 2CDF ....|D#3 2FBF ....
 F-4|..|--- .... ....|F-3 2CDF ....|D#3 2FBF ....
....|..|--- .... ....|--- .... ....|--- .... ....
....|..|--- .... ....|--- .... ....|--- .... ....
....|..|--- .... ....|--- .... ....|--- .... ....
 F-4|..|--- .... ....|F-3 2CDF ....|D#3 2FBF ....
 D#4|..|--- .... ....|D#3 2CDF ....|D#3 2CBF ....
....|..|--- .... ....|F-3 2FDA ....|D#3 2FBA ....
....|..|--- .... ....|--- .... ....|--- .... ....
....|..|--- .... ....|--- .... ....|--- .... ....
....|..|--- .... ....|--- .... ....|--- .... ....
 D#4|..|--- .... ....|D#3 2CDF ....|D#3 2CBF ....
....|..|--- .... ....|F-3 2FD7 ....|D#3 2FB7 ....
 D#4|..|--- .... ....|D#3 2CDF ....|D#3 2CBF ....
....|..|--- .... ....|--- .... ....|--- .... ....
....|..|--- .... ....|--- .... ....|--- .... ....
....|..|--- .... ....|--- .... ....|--- .... ....
 D#4|..|--- .... ....|D#3 2CDF ....|D#3 2CBF ....
 D#4|..|--- .... ....|D-3 2FDF ....|D#3 2CBF ....
....|..|--- .... ....|D#3 2FDA ....|D#3 2FBA ....
....|..|--- .... ....|--- .... ....|--- .... ....
 D#4|..|--- .... ....|D#3 2CDF ....|D#3 2CBF ....
 D#4|..|--- .... ....|D#3 2CDF ....|D#3 2CBF ....
 D#4|..|--- .... ....|D#3 2CDF ....|D#3 2CBF ....
....|..|--- .... ....|D-3 2FDA ....|D#3 2FBA ....

[Pattern16]
 F#4|..|--- .... ....|F#3 2CDF ....|D#3 2FBF ....
....|..|--- .... ....|--- .... ....|--- .... ....
....|..|--- .... ....|D#3 2FDA ....|D#3 2FBA ....
....|..|--- .... ....|D#3 2FDA ....|D#3 2FBA ....
....|..|--- .... ....|D#3 2FD7 ....|D#3 2FB7 ....
....|..|--- .... ....|D-3 2FD7 ....|D#3 2FB7 ....
....|..|--- .... ....|F#3 2FDA ....|D#3 2FBA ....
....|..|--- .... ....|--- .... ....|--- .... ....
 F#4|..|--- .... ....|F#3 2CDF ....|D#3 2FBF ....
....|..|--- .... ....|D#3 2FD7 ....|D#3 2FB7 ....
....|..|--- .... ....|D#3 2FD7 ....|D#3 2FB7 ....
....|..|--- .... ....|--- .... ....|--- .... ....
....|..|--- .... ....|F#3 2FD7 ....|D#3 2FB7 ....
....|..|--- .... ....|--- .... ....|--- .... ....
....|..|--- .... ....|F#3 2FDA ....|D#3 2FBA ....
....|..|--- .... ....|--- .... ....|--- .... ....
 F#4|..|--- .... ....|F#3 2CDF ....|D#3 2FBF ....
....|..|--- .... ....|--- .... ....|--- .... ....
....|..|--- .... ....|--- .... ....|--- .... ....
....|..|--- .... ....|--- .... ....|--- .... ....
 F#4|..|--- .... ....|F#3 2CDF ....|D#3 2FBF ....
 D#4|..|--- .... ....|D#3 2CDF ....|D#3 2CBF ....
....|..|--- .... ....|F#3 2FDA ....|D#3 2FBA ....
....|..|--- .... ....|--- .... ....|--- .... ....
....|..|--- .... ....|--- .... ....|--- .... ....
....|..|--- .... ....|--- .... ....|--- .... ....
....|..|--- .... ....|F#3 2FDA ....|D#3 2FBA ....
....|..|--- .... ....|D#3 2FDA ....|D#3 2FBA ....
 F#4|..|--- .... ....|F#3 2CDF ....|D#3 2FBF ....
....|..|--- .... ....|--- .... ....|--- .... ....
....|..|--- .... ....|--- .... ....|--- .... ....
....|..|--- .... ....|--- .... ....|--- .... ....
 F#4|..|--- .... ....|F#3 2CDF ....|D#3 2FBF ....
 F-4|..|--- .... ....|F-3 2CDF ....|D#3 2FBF ....
....|..|--- .... ....|F#3 2FDA ....|D#3 2FBA ....
....|..|--- .... ....|--- .... ....|--- .... ....
....|..|--- .... ....|--- .... ....|--- .... ....
....|..|--- .... ....|--- .... ....|--- .... ....
 F-4|..|--- .... ....|F-3 2CDF ....|D#3 2FBF ....
 F-4|..|--- .... ....|F-3 2CDF ....|D#3 2FBF ....
 F-4|..|--- .... ....|F-3 2CDF ....|D#3 2FBF ....
....|..|--- .... ....|--- .... ....|--- .... ....
....|..|--- .... ....|--- .... ....|--- .... ....
....|..|--- .... ....|--- .... ....|--- .... ....
 F-4|..|--- .... ....|F-3 2CDF ....|D#3 2FBF ....
 D#4|..|--- .... ....|D#3 2CDF ....|D#3 2CBF ....
....|..|--- .... ....|F-3 2FDA ....|D#3 2FBA ....
....|..|--- .... ....|--- .... ....|--- .... ....
....|..|--- .... ....|--- .... ....|--- .... ....
....|..|--- .... ....|--- .... ....|--- .... ....
 D#4|..|--- .... ....|D#3 2CDF ....|D#3 2CBF ....
....|..|--- .... ....|F-3 2FD7 ....|D#3 2FB7 ....
 D#4|..|--- .... ....|D#3 2CDF ....|D#3 2CBF ....
....|..|--- .... ....|--- .... ....|--- .... ....
....|..|--- .... ....|--- .... ....|--- .... ....
....|..|--- .... ....|--- .... ....|--- .... ....
 D#4|..|--- .... ....|D#3 2CDF ....|D#3 2CBF ....
 D#4|..|--- .... ....|D-3 2FDF ....|D#3 2CBF ....
....|..|--- .... ....|D#3 2FDA ....|D#3 2FBA ....
....|..|--- .... ....|--- .... ....|--- .... ....
 D#4|..|--- .... ....|D#3 2CDF ....|D#3 2CBF ....
 D#4|..|--- .... ....|D#3 2CDF ....|D#3 2CBF ....
 D#4|..|--- .... ....|D#3 2CDF ....|D#3 2CBF ....
....|..|--- .... ....|D-3 2FDA ....|D#3 2FBA ....
 A#3|..|A#3 UF1F ....|A#3 2CCF ....|D#3 2FB7 ....
....|..|--- .... ....|--- .... ....|--- .... ....
....|..|--- .... ....|D#3 2FDA ....|D#3 2FBA ....
....|..|--- .... ....|D#3 2FDA ....|D#3 2FBA ....
....|..|--- .... ....|D#3 2FD7 ....|D#3 2FB7 ....
....|..|--- .... ....|D-3 2FD7 ....|D#3 2FB7 ....
....|..|A#3 UF1A ....|A#3 2FCA ....|R-- .... ....
....|..|--- .... ....|--- .... ....|--- .... ....
....|..|--- .... ....|D#3 2FD7 ....|D#3 2FB7 ....
....|..|--- .... ....|D#3 2FD7 ....|D#3 2FB7 ....
....|..|--- .... ....|D#3 2FD7 ....|D#3 2FB7 ....
....|..|--- .... ....|--- .... ....|--- .... ....
....|..|A#3 UF17 ....|A#3 2FC7 ....|R-- .... ....
....|..|--- .... ....|--- .... ....|--- .... ....
....|..|--- .... ....|--- .... ....|--- .... ....
....|..|--- .... ....|--- .... ....|--- .... ....
....|..|--- .... ....|--- .... ....|--- .... ....
....|..|--- .... ....|--- .... ....|--- .... ....
....|..|--- .... ....|--- .... ....|--- .... ....
....|..|--- .... ....|--- .... ....|--- .... ....
....|..|--- .... ....|--- .... ....|--- .... ....
....|..|--- .... ....|--- .... ....|--- .... ....
....|..|--- .... ....|--- .... ....|--- .... ....
....|..|--- .... ....|--- .... ....|--- .... ....
....|..|--- .... ....|--- .... ....|--- .... ....
....|..|--- .... ....|--- .... ....|--- .... ....
....|..|--- .... ....|--- .... ....|--- .... ....
....|..|--- .... ....|--- .... ....|--- .... ....
....|..|--- .... ....|--- .... ....|--- .... ....
....|..|--- .... ....|--- .... ....|--- .... ....
....|..|--- .... ....|--- .... ....|--- .... ....
....|..|--- .... ....|--- .... ....|--- .... ....
 A-3|..|A-3 UF1F ....|A-3 2CCF ....|--- .... ....
....|..|--- .... ....|--- .... ....|--- .... ....
....|..|--- .... ....|--- .... ....|--- .... ....
....|..|--- .... ....|--- .... ....|--- .... ....
....|..|--- .... ....|--- .... ....|--- .... ....
....|..|--- .... ....|--- .... ....|--- .... ....
....|..|A-3 UF1A ....|A-3 2FCA ....|--- .... ....
....|..|--- .... ....|--- .... ....|--- .... ....
....|..|--- .... ....|--- .... ....|--- .... ....
....|..|--- .... ....|--- .... ....|--- .... ....
....|..|--- .... ....|--- .... ....|--- .... ....
....|..|--- .... ....|--- .... ....|--- .... ....
....|..|A-3 UF17 ....|A-3 2FC7 ....|--- .... ....
....|..|--- .... ....|--- .... ....|--- .... ....
....|..|--- .... ....|--- .... ....|--- .... ....
....|..|--- .... ....|--- .... ....|--- .... ....
 G#4|..|G#3 UF1F ....|G#3 2CCF ....|--- .... ....
....|..|--- .... ....|--- .... ....|--- .... ....
....|..|--- .... ....|--- .... ....|--- .... ....
....|..|--- .... ....|--- .... ....|--- .... ....
....|..|--- .... ....|--- .... ....|--- .... ....
....|..|--- .... ....|--- .... ....|--- .... ....
....|..|G#3 UF1A ....|G#3 2FCA ....|--- .... ....
....|..|--- .... ....|--- .... ....|--- .... ....
....|..|--- .... ....|--- .... ....|--- .... ....
....|..|--- .... ....|--- .... ....|--- .... ....
....|..|--- .... ....|--- .... ....|--- .... ....
....|..|--- .... ....|--- .... ....|--- .... ....
....|..|G#3 UF17 ....|G#3 2FC7 ....|--- .... ....
....|..|--- .... ....|--- .... ....|--- .... ....
....|..|--- .... ....|--- .... ....|--- .... ....
....|..|--- .... ....|--- .... ....|--- .... ....

[Pattern17]
 F#4|..|D#3 UF2F ....|F#3 2CCF ....|--- .... ....
....|..|--- .... ....|--- .... ....|--- .... ....
....|..|--- .... ....|--- .... ....|--- .... ....
....|..|--- .... ....|--- .... ....|--- .... ....
....|..|--- .... ....|--- .... ....|--- .... ....
....|..|--- .... ....|--- .... ....|--- .... ....
....|..|D#3 UF2A ....|F#3 2FCA ....|--- .... ....
....|..|--- .... ....|--- .... ....|--- .... ....
....|..|--- .... ....|--- .... ....|--- .... ....
....|..|--- .... ....|--- .... ....|--- .... ....
....|..|--- .... ....|--- .... ....|--- .... ....
....|..|--- .... ....|--- .... ....|--- .... ....
....|..|D#3 UF27 ....|F#3 2FC7 ....|--- .... ....
....|..|--- .... ....|--- .... ....|--- .... ....
....|..|--- .... ....|--- .... ....|--- .... ....
....|..|--- .... ....|--- .... ....|--- .... ....
....|..|--- .... ....|--- .... ....|--- .... ....
....|..|--- .... ....|--- .... ....|--- .... ....
....|..|--- .... ....|--- .... ....|--- .... ....
....|..|--- .... ....|--- .... ....|--- .... ....
....|..|--- .... ....|--- .... ....|--- .... ....
....|..|--- .... ....|--- .... ....|--- .... ....
....|..|--- .... ....|--- .... ....|--- .... ....
....|..|--- .... ....|--- .... ....|--- .... ....
....|..|--- .... ....|--- .... ....|--- .... ....
....|..|--- .... ....|--- .... ....|--- .... ....
....|..|--- .... ....|--- .... ....|--- .... ....
....|..|--- .... ....|--- .... ....|--- .... ....
....|..|--- .... ....|--- .... ....|--- .... ....
....|..|--- .... ....|--- .... ....|--- .... ....
....|..|--- .... ....|--- .... ....|--- .... ....
....|..|--- .... ....|--- .... ....|--- .... ....
....|..|--- .... ....|--- .... ....|--- .... ....
....|..|--- .... ....|--- .... ....|--- .... ....
....|..|--- .... ....|--- .... ....|--- .... ....
....|..|--- .... ....|--- .... ....|--- .... ....
....|..|--- .... ....|--- .... ....|--- .... ....
....|..|--- .... ....|--- .... ....|--- .... ....
....|..|--- .... ....|--- .... ....|--- .... ....
....|..|--- .... ....|--- .... ....|--- .... ....
....|..|--- .... ....|--- .... ....|--- .... ....
....|..|--- .... ....|--- .... ....|--- .... ....
....|..|--- .... ....|--- .... ....|--- .... ....
....|..|--- .... ....|--- .... ....|--- .... ....
....|..|--- .... ....|--- .... ....|--- .... ....
....|..|--- .... ....|--- .... ....|--- .... ....
....|..|--- .... ....|--- .... ....|--- .... ....
....|..|--- .... ....|--- .... ....|--- .... ....
....|..|--- .... ....|--- .... ....|--- .... ....
....|..|--- .... ....|--- .... ....|--- .... ....
....|..|--- .... ....|--- .... ....|--- .... ....
....|..|--- .... ....|--- .... ....|--- .... ....
....|..|--- .... ....|--- .... ....|--- .... ....
....|..|--- .... ....|--- .... ....|--- .... ....
....|..|--- .... ....|--- .... ....|--- .... ....
....|..|--- .... ....|--- .... ....|--- .... ....
....|..|--- .... ....|--- .... ....|--- .... ....
....|..|--- .... ....|--- .... ....|--- .... ....
....|..|--- .... ....|--- .... ....|--- .... ....
....|..|--- .... ....|--- .... ....|--- .... ....
....|..|--- .... ....|--- .... ....|--- .... ....
....|..|--- .... ....|--- .... ....|--- .... ....
....|..|--- .... ....|--- .... ....|--- .... ....
....|..|--- .... ....|--- .... ....|--- .... ....
 A#3|..|A#3 UF1F ....|A#3 2CCF ....|--- .... ....
....|..|--- .... ....|--- .... ....|--- .... ....
....|..|--- .... ....|--- .... ....|--- .... ....
....|..|--- .... ....|--- .... ....|--- .... ....
....|..|--- .... ....|--- .... ....|--- .... ....
....|..|--- .... ....|--- .... ....|--- .... ....
....|..|A#3 UF1A ....|A#3 2FCA ....|--- .... ....
....|..|--- .... ....|--- .... ....|--- .... ....
....|..|--- .... ....|--- .... ....|--- .... ....
....|..|--- .... ....|--- .... ....|--- .... ....
....|..|--- .... ....|--- .... ....|--- .... ....
....|..|--- .... ....|--- .... ....|--- .... ....
....|..|A#3 UF17 ....|A#3 2FC7 ....|--- .... ....
....|..|--- .... ....|--- .... ....|--- .... ....
....|..|--- .... ....|--- .... ....|--- .... ....
....|..|--- .... ....|--- .... ....|--- .... ....
....|..|--- .... ....|--- .... ....|--- .... ....
....|..|--- .... ....|--- .... ....|--- .... ....
....|..|--- .... ....|--- .... ....|--- .... ....
....|..|--- .... ....|--- .... ....|--- .... ....
....|..|--- .... ....|--- .... ....|--- .... ....
....|..|--- .... ....|--- .... ....|--- .... ....
....|..|--- .... ....|--- .... ....|--- .... ....
....|..|--- .... ....|--- .... ....|--- .... ....
....|..|--- .... ....|--- .... ....|--- .... ....
....|..|--- .... ....|--- .... ....|--- .... ....
....|..|--- .... ....|--- .... ....|--- .... ....
....|..|--- .... ....|--- .... ....|--- .... ....
....|..|--- .... ....|--- .... ....|--- .... ....
....|..|--- .... ....|--- .... ....|--- .... ....
....|..|--- .... ....|--- .... ....|--- .... ....
....|..|--- .... ....|--- .... ....|--- .... ....
 A-3|..|A-3 UF1F ....|A-3 2CCF ....|--- .... ....
....|..|--- .... ....|--- .... ....|--- .... ....
....|..|--- .... ....|--- .... ....|--- .... ....
....|..|--- .... ....|--- .... ....|--- .... ....
....|..|--- .... ....|--- .... ....|--- .... ....
....|..|--- .... ....|--- .... ....|--- .... ....
....|..|A-3 UF1A ....|A-3 2FCA ....|--- .... ....
....|..|--- .... ....|--- .... ....|--- .... ....
....|..|--- .... ....|--- .... ....|--- .... ....
....|..|--- .... ....|--- .... ....|--- .... ....
....|..|--- .... ....|--- .... ....|--- .... ....
....|..|--- .... ....|--- .... ....|--- .... ....
....|..|A-3 UF17 ....|A-3 2FC7 ....|--- .... ....
....|..|--- .... ....|--- .... ....|--- .... ....
....|..|--- .... ....|--- .... ....|--- .... ....
....|..|--- .... ....|--- .... ....|--- .... ....
 G#4|..|G#3 UF1F ....|G#3 2CCF ....|--- .... ....
....|..|--- .... ....|--- .... ....|--- .... ....
....|..|--- .... ....|--- .... ....|--- .... ....
....|..|--- .... ....|--- .... ....|--- .... ....
....|..|--- .... ....|--- .... ....|--- .... ....
....|..|--- .... ....|--- .... ....|--- .... ....
....|..|G#3 UF1A ....|G#3 2FCA ....|--- .... ....
....|..|--- .... ....|--- .... ....|--- .... ....
....|..|--- .... ....|--- .... ....|--- .... ....
....|..|--- .... ....|--- .... ....|--- .... ....
....|..|--- .... ....|--- .... ....|--- .... ....
....|..|--- .... ....|--- .... ....|--- .... ....
....|..|G#3 UF17 ....|G#3 2FC7 ....|--- .... ....
....|..|--- .... ....|--- .... ....|--- .... ....
....|..|--- .... ....|--- .... ....|--- .... ....
....|..|--- .... ....|--- .... ....|--- .... ....

[Pattern20]
 F#4|..|D#3 UF2F ....|F#3 2CCF ....|--- .... ....
....|..|--- .... ....|--- .... ....|--- .... ....
....|..|--- .... ....|--- .... ....|--- .... ....
....|..|--- .... ....|--- .... ....|--- .... ....
....|..|--- .... ....|--- .... ....|--- .... ....
....|..|--- .... ....|--- .... ....|--- .... ....
....|..|D#3 UF2A ....|F#3 2FCA ....|--- .... ....
....|..|--- .... ....|--- .... ....|--- .... ....
....|..|--- .... ....|--- .... ....|--- .... ....
....|..|--- .... ....|--- .... ....|--- .... ....
....|..|--- .... ....|--- .... ....|--- .... ....
....|..|--- .... ....|--- .... ....|--- .... ....
....|..|D#3 UF27 ....|F#3 2FC7 ....|--- .... ....
....|..|--- .... ....|--- .... ....|--- .... ....
....|..|--- .... ....|--- .... ....|--- .... ....
....|..|--- .... ....|--- .... ....|--- .... ....
....|..|--- .... ....|--- .... ....|--- .... ....
....|..|--- .... ....|--- .... ....|--- .... ....
....|..|--- .... ....|--- .... ....|--- .... ....
....|..|--- .... ....|--- .... ....|--- .... ....
....|..|--- .... ....|--- .... ....|--- .... ....
....|..|--- .... ....|--- .... ....|--- .... ....
....|..|--- .... ....|--- .... ....|--- .... ....
....|..|--- .... ....|--- .... ....|--- .... ....
....|..|--- .... ....|--- .... ....|--- .... ....
....|..|--- .... ....|--- .... ....|--- .... ....
....|..|--- .... ....|--- .... ....|--- .... ....
....|..|--- .... ....|--- .... ....|--- .... ....
....|..|--- .... ....|--- .... ....|--- .... ....
....|..|--- .... ....|--- .... ....|--- .... ....
....|..|--- .... ....|--- .... ....|--- .... ....
....|..|--- .... ....|--- .... ....|--- .... ....
....|..|--- .... ....|--- .... ....|--- .... ....
....|..|--- .... ....|--- .... ....|--- .... ....
....|..|--- .... ....|--- .... ....|--- .... ....
....|..|--- .... ....|--- .... ....|--- .... ....
....|..|--- .... ....|--- .... ....|--- .... ....
....|..|--- .... ....|--- .... ....|--- .... ....
....|..|--- .... ....|--- .... ....|--- .... ....
....|..|--- .... ....|--- .... ....|--- .... ....
....|..|--- .... ....|--- .... ....|--- .... ....
....|..|--- .... ....|--- .... ....|--- .... ....
....|..|--- .... ....|--- .... ....|--- .... ....
....|..|--- .... ....|--- .... ....|--- .... ....
....|..|--- .... ....|--- .... ....|--- .... ....
....|..|--- .... ....|--- .... ....|--- .... ....
....|..|--- .... ....|--- .... ....|--- .... ....
....|..|--- .... ....|--- .... ....|--- .... ....
....|..|--- .... ....|--- .... ....|--- .... ....
....|..|--- .... ....|--- .... ....|--- .... ....
....|..|--- .... ....|--- .... ....|--- .... ....
....|..|--- .... ....|--- .... ....|--- .... ....
....|..|--- .... ....|--- .... ....|--- .... ....
....|..|--- .... ....|--- .... ....|--- .... ....
....|..|--- .... ....|--- .... ....|--- .... ....
....|..|--- .... ....|--- .... ....|--- .... ....
....|..|--- .... ....|--- .... ....|--- .... ....
....|..|--- .... ....|--- .... ....|--- .... ....
....|..|--- .... ....|--- .... ....|--- .... ....
....|..|--- .... ....|--- .... ....|--- .... ....
....|..|--- .... ....|--- .... ....|--- .... ....
....|..|--- .... ....|--- .... ....|--- .... ....
....|..|--- .... ....|--- .... ....|--- .... ....
....|..|--- .... ....|--- .... ....|--- .... ....
....|..|R-- .... ....|R-- .... ....|--- .... ....
....|..|--- .... ....|--- .... ....|--- .... ....
....|..|--- .... ....|--- .... ....|--- .... ....
....|..|--- .... ....|--- .... ....|--- .... ....
....|..|--- .... ....|--- .... ....|--- .... ....
....|..|--- .... ....|--- .... ....|--- .... ....
....|..|R-- .... ....|R-- .... ....|--- .... ....
....|..|--- .... ....|--- .... ....|--- .... ....
....|..|--- .... ....|--- .... ....|--- .... ....
....|..|--- .... ....|--- .... ....|--- .... ....
....|..|--- .... ....|--- .... ....|--- .... ....
....|..|--- .... ....|--- .... ....|--- .... ....
....|..|R-- .... ....|R-- .... ....|--- .... ....
....|..|--- .... ....|--- .... ....|--- .... ....
....|..|--- .... ....|--- .... ....|--- .... ....
....|..|--- .... ....|--- .... ....|--- .... ....
....|..|--- .... ....|--- .... ....|--- .... ....
....|..|--- .... ....|--- .... ....|--- .... ....
....|..|--- .... ....|--- .... ....|--- .... ....
....|..|--- .... ....|--- .... ....|--- .... ....
....|..|--- .... ....|--- .... ....|--- .... ....
....|..|--- .... ....|--- .... ....|--- .... ....
....|..|--- .... ....|--- .... ....|--- .... ....
....|..|--- .... ....|--- .... ....|--- .... ....
....|..|--- .... ....|--- .... ....|--- .... ....
....|..|--- .... ....|--- .... ....|--- .... ....
....|..|--- .... ....|--- .... ....|--- .... ....
....|..|--- .... ....|--- .... ....|--- .... ....
....|..|--- .... ....|--- .... ....|--- .... ....
....|..|--- .... ....|--- .... ....|--- .... ....
....|..|--- .... ....|--- .... ....|--- .... ....
....|..|--- .... ....|--- .... ....|--- .... ....
....|..|--- .... ....|--- .... ....|--- .... ....
....|..|--- .... ....|--- .... ....|--- .... ....
....|..|--- .... ....|--- .... ....|--- .... ....
....|..|--- .... ....|--- .... ....|--- .... ....
....|..|--- .... ....|--- .... ....|--- .... ....
....|..|--- .... ....|--- .... ....|--- .... ....
....|..|--- .... ....|--- .... ....|--- .... ....
....|..|--- .... ....|--- .... ....|--- .... ....
....|..|--- .... ....|--- .... ....|--- .... ....
....|..|--- .... ....|--- .... ....|--- .... ....
....|..|--- .... ....|--- .... ....|--- .... ....
....|..|--- .... ....|--- .... ....|--- .... ....
....|..|--- .... ....|--- .... ....|--- .... ....
....|..|--- .... ....|--- .... ....|--- .... ....
....|..|--- .... ....|--- .... ....|--- .... ....
....|..|--- .... ....|--- .... ....|--- .... ....
....|..|--- .... ....|--- .... ....|--- .... ....
....|..|--- .... ....|--- .... ....|--- .... ....
....|..|--- .... ....|--- .... ....|--- .... ....
....|..|--- .... ....|--- .... ....|--- .... ....
....|..|--- .... ....|--- .... ....|--- .... ....
....|..|--- .... ....|--- .... ....|--- .... ....
....|..|--- .... ....|--- .... ....|--- .... ....
....|..|--- .... ....|--- .... ....|--- .... ....
....|..|--- .... ....|--- .... ....|--- .... ....
....|..|--- .... ....|--- .... ....|--- .... ....
....|..|--- .... ....|--- .... ....|--- .... ....
....|..|--- .... ....|--- .... ....|--- .... ....
....|..|--- .... ....|--- .... ....|--- .... ....
....|..|--- .... ....|--- .... ....|--- .... ....
....|..|--- .... ....|--- .... ....|--- .... ....
....|..|--- .... ....|--- .... ....|--- .... ....

[Pattern21]
....|..|--- .... ....|--- .... ....|--- .... ....
....|..|--- .... ....|--- .... ....|--- .... ....
....|..|--- .... ....|--- .... ....|--- .... ....
....|..|--- .... ....|--- .... ....|--- .... ....
....|..|--- .... ....|--- .... ....|--- .... ....
....|..|--- .... ....|--- .... ....|--- .... ....
....|..|--- .... ....|--- .... ....|--- .... ....
....|..|--- .... ....|--- .... ....|--- .... ....
....|..|--- .... ....|--- .... ....|--- .... ....
....|..|--- .... ....|--- .... ....|--- .... ....
....|..|--- .... ....|--- .... ....|--- .... ....
....|..|--- .... ....|--- .... ....|--- .... ....
....|..|--- .... ....|--- .... ....|--- .... ....
....|..|--- .... ....|--- .... ....|--- .... ....
....|..|--- .... ....|--- .... ....|--- .... ....
....|..|--- .... ....|--- .... ....|--- .... ....
....|..|--- .... ....|--- .... ....|--- .... ....
....|..|--- .... ....|--- .... ....|--- .... ....
....|..|--- .... ....|--- .... ....|--- .... ....
....|..|--- .... ....|--- .... ....|--- .... ....
....|..|--- .... ....|--- .... ....|--- .... ....
....|..|--- .... ....|--- .... ....|--- .... ....
....|..|--- .... ....|--- .... ....|--- .... ....
....|..|--- .... ....|--- .... ....|--- .... ....
....|..|--- .... ....|--- .... ....|--- .... ....
....|..|--- .... ....|--- .... ....|--- .... ....
....|..|--- .... ....|--- .... ....|--- .... ....
....|..|--- .... ....|--- .... ....|--- .... ....
....|..|--- .... ....|--- .... ....|--- .... ....
....|..|--- .... ....|--- .... ....|--- .... ....
....|..|--- .... ....|--- .... ....|--- .... ....
....|..|--- .... ....|--- .... ....|--- .... ....
....|..|--- .... ....|--- .... ....|--- .... ....
....|..|--- .... ....|--- .... ....|--- .... ....
....|..|--- .... ....|--- .... ....|--- .... ....
....|..|--- .... ....|--- .... ....|--- .... ....
....|..|--- .... ....|--- .... ....|--- .... ....
....|..|--- .... ....|--- .... ....|--- .... ....
....|..|--- .... ....|--- .... ....|--- .... ....
....|..|--- .... ....|--- .... ....|--- .... ....
....|..|--- .... ....|--- .... ....|--- .... ....
....|..|--- .... ....|--- .... ....|--- .... ....
....|..|--- .... ....|--- .... ....|--- .... ....
....|..|--- .... ....|--- .... ....|--- .... ....
....|..|--- .... ....|--- .... ....|--- .... ....
....|..|--- .... ....|--- .... ....|--- .... ....
....|..|--- .... ....|--- .... ....|--- .... ....
....|..|--- .... ....|--- .... ....|--- .... ....
....|..|--- .... ....|--- .... ....|--- .... ....
....|..|--- .... ....|--- .... ....|--- .... ....
....|..|--- .... ....|--- .... ....|--- .... ....
....|..|--- .... ....|--- .... ....|--- .... ....
....|..|--- .... ....|--- .... ....|--- .... ....
....|..|--- .... ....|--- .... ....|--- .... ....
....|..|--- .... ....|--- .... ....|--- .... ....
....|..|--- .... ....|--- .... ....|--- .... ....
....|..|--- .... ....|--- .... ....|--- .... ....
....|..|--- .... ....|--- .... ....|--- .... ....
....|..|--- .... ....|--- .... ....|--- .... ....
....|..|--- .... ....|--- .... ....|--- .... ....
....|..|--- .... ....|--- .... ....|--- .... ....
....|..|--- .... ....|--- .... ....|--- .... ....
....|..|--- .... ....|--- .... ....|--- .... ....
....|..|--- .... ....|--- .... ....|--- .... ....
....|..|--- .... ....|--- .... ....|--- .... ....
....|..|--- .... ....|--- .... ....|--- .... ....
....|..|--- .... ....|--- .... ....|--- .... ....
....|..|--- .... ....|--- .... ....|--- .... ....
....|..|--- .... ....|--- .... ....|--- .... ....
....|..|--- .... ....|--- .... ....|--- .... ....
....|..|--- .... ....|--- .... ....|--- .... ....
....|..|--- .... ....|--- .... ....|--- .... ....
....|..|--- .... ....|--- .... ....|--- .... ....
....|..|--- .... ....|--- .... ....|--- .... ....
....|..|--- .... ....|--- .... ....|--- .... ....
....|..|--- .... ....|--- .... ....|--- .... ....
....|..|--- .... ....|--- .... ....|--- .... ....
....|..|--- .... ....|--- .... ....|--- .... ....
....|..|--- .... ....|--- .... ....|--- .... ....
....|..|--- .... ....|--- .... ....|--- .... ....
....|..|--- .... ....|--- .... ....|--- .... ....
....|..|--- .... ....|--- .... ....|--- .... ....
....|..|--- .... ....|--- .... ....|--- .... ....
....|..|--- .... ....|--- .... ....|--- .... ....
....|..|--- .... ....|--- .... ....|--- .... ....
....|..|--- .... ....|--- .... ....|--- .... ....
....|..|--- .... ....|--- .... ....|--- .... ....
....|..|--- .... ....|--- .... ....|--- .... ....
....|..|--- .... ....|--- .... ....|--- .... ....
....|..|--- .... ....|--- .... ....|--- .... ....
....|..|--- .... ....|--- .... ....|--- .... ....
....|..|--- .... ....|--- .... ....|--- .... ....
....|..|--- .... ....|--- .... ....|--- .... ....
....|..|--- .... ....|--- .... ....|--- .... ....
....|..|--- .... ....|--- .... ....|--- .... ....
....|..|--- .... ....|--- .... ....|--- .... ....
....|..|--- .... ....|--- .... ....|--- .... ....
....|..|--- .... ....|--- .... ....|--- .... ....
....|..|--- .... ....|--- .... ....|--- .... ....
....|..|--- .... ....|--- .... ....|--- .... ....
....|..|--- .... ....|--- .... ....|--- .... ....
....|..|--- .... ....|--- .... ....|--- .... ....
....|..|--- .... ....|--- .... ....|--- .... ....
....|..|--- .... ....|--- .... ....|--- .... ....
....|..|--- .... ....|--- .... ....|--- .... ....
....|..|--- .... ....|--- .... ....|--- .... ....
....|..|--- .... ....|--- .... ....|--- .... ....
....|..|--- .... ....|--- .... ....|--- .... ....
....|..|--- .... ....|--- .... ....|--- .... ....
....|..|--- .... ....|--- .... ....|--- .... ....
....|..|--- .... ....|--- .... ....|--- .... ....
....|..|--- .... ....|--- .... ....|--- .... ....
....|..|C#4 UF3F ....|--- .... ....|--- .... ....
....|..|--- .... ....|--- .... ....|--- .... ....
....|..|--- .... ....|--- .... ....|--- .... ....
....|..|--- .... ....|--- .... ....|--- .... ....
....|..|--- .... ....|--- .... ....|--- .... ....
....|..|--- .... ....|--- .... ....|--- .... ....
....|..|C#4 UF3A ....|--- .... ....|--- .... ....
....|..|--- .... ....|--- .... ....|--- .... ....
....|..|--- .... ....|--- .... ....|--- .... ....
....|..|--- .... ....|--- .... ....|--- .... ....
....|..|--- .... ....|--- .... ....|--- .... ....
....|..|--- .... ....|--- .... ....|--- .... ....
....|..|C#4 UF37 ....|--- .... ....|--- .... ....
....|..|--- .... ....|--- .... ....|--- .... ....
....|..|--- .... ....|--- .... ....|--- .... ....
....|..|--- .... ....|--- .... ....|--- .... ....

[Pattern22]
....|..|--- .... ....|--- .... ....|--- .... ....
....|..|--- .... ....|--- .... ....|--- .... ....
....|..|--- .... ....|--- .... ....|--- .... ....
....|..|--- .... ....|--- .... ....|--- .... ....
....|..|--- .... ....|--- .... ....|--- .... ....
....|..|--- .... ....|--- .... ....|--- .... ....
....|..|--- .... ....|--- .... ....|--- .... ....
....|..|--- .... ....|--- .... ....|--- .... ....
....|..|--- .... ....|--- .... ....|--- .... ....
....|..|--- .... ....|--- .... ....|--- .... ....
....|..|--- .... ....|--- .... ....|--- .... ....
....|..|--- .... ....|--- .... ....|--- .... ....
....|..|--- .... ....|--- .... ....|--- .... ....
....|..|--- .... ....|--- .... ....|--- .... ....
....|..|--- .... ....|--- .... ....|--- .... ....
....|..|--- .... ....|--- .... ....|--- .... ....
....|..|--- .... ....|--- .... ....|--- .... ....
....|..|--- .... ....|--- .... ....|--- .... ....
....|..|--- .... ....|--- .... ....|--- .... ....
....|..|--- .... ....|--- .... ....|--- .... ....
....|..|--- .... ....|--- .... ....|--- .... ....
....|..|--- .... ....|--- .... ....|--- .... ....
....|..|--- .... ....|--- .... ....|--- .... ....
....|..|--- .... ....|--- .... ....|--- .... ....
....|..|--- .... ....|--- .... ....|--- .... ....
....|..|--- .... ....|--- .... ....|--- .... ....
....|..|--- .... ....|--- .... ....|--- .... ....
....|..|--- .... ....|--- .... ....|--- .... ....
....|..|--- .... ....|--- .... ....|--- .... ....
....|..|--- .... ....|--- .... ....|--- .... ....
....|..|--- .... ....|--- .... ....|--- .... ....
....|..|--- .... ....|--- .... ....|--- .... ....
....|..|--- .... ....|--- .... ....|--- .... ....
....|..|--- .... ....|--- .... ....|--- .... ....
....|..|--- .... ....|--- .... ....|--- .... ....
....|..|--- .... ....|--- .... ....|--- .... ....
....|..|--- .... ....|--- .... ....|--- .... ....
....|..|--- .... ....|--- .... ....|--- .... ....
....|..|--- .... ....|--- .... ....|--- .... ....
....|..|--- .... ....|--- .... ....|--- .... ....
....|..|--- .... ....|--- .... ....|--- .... ....
....|..|--- .... ....|--- .... ....|--- .... ....
....|..|--- .... ....|--- .... ....|--- .... ....
....|..|--- .... ....|--- .... ....|--- .... ....
....|..|--- .... ....|--- .... ....|--- .... ....
....|..|--- .... ....|--- .... ....|--- .... ....
....|..|--- .... ....|--- .... ....|--- .... ....
....|..|--- .... ....|--- .... ....|--- .... ....
....|..|R-- .... ....|--- .... ....|--- .... ....
....|..|--- .... ....|--- .... ....|--- .... ....
....|..|--- .... ....|--- .... ....|--- .... ....
....|..|--- .... ....|--- .... ....|--- .... ....
....|..|--- .... ....|--- .... ....|--- .... ....
....|..|--- .... ....|--- .... ....|--- .... ....
....|..|R-- .... ....|--- .... ....|--- .... ....
....|..|--- .... ....|--- .... ....|--- .... ....
....|..|--- .... ....|--- .... ....|--- .... ....
....|..|--- .... ....|--- .... ....|--- .... ....
....|..|--- .... ....|--- .... ....|--- .... ....
....|..|--- .... ....|--- .... ....|--- .... ....
....|..|R-- .... ....|--- .... ....|--- .... ....
....|..|--- .... ....|--- .... ....|--- .... ....
....|..|--- .... ....|--- .... ....|--- .... ....
....|..|--- .... ....|--- .... ....|--- .... ....
....|..|--- .... ....|--- .... ....|--- .... ....
....|..|--- .... ....|--- .... ....|--- .... ....
....|..|--- .... ....|--- .... ....|--- .... ....
....|..|--- .... ....|--- .... ....|--- .... ....
....|..|--- .... ....|--- .... ....|--- .... ....
....|..|--- .... ....|--- .... ....|--- .... ....
....|..|--- .... ....|--- .... ....|--- .... ....
....|..|--- .... ....|--- .... ....|--- .... ....
....|..|--- .... ....|--- .... ....|--- .... ....
....|..|--- .... ....|--- .... ....|--- .... ....
....|..|--- .... ....|--- .... ....|--- .... ....
....|..|--- .... ....|--- .... ....|--- .... ....
....|..|--- .... ....|--- .... ....|--- .... ....
....|..|--- .... ....|--- .... ....|--- .... ....
....|..|--- .... ....|--- .... ....|--- .... ....
....|..|--- .... ....|--- .... ....|--- .... ....
....|..|--- .... ....|--- .... ....|--- .... ....
....|..|--- .... ....|--- .... ....|--- .... ....
....|..|--- .... ....|--- .... ....|--- .... ....
....|..|--- .... ....|--- .... ....|--- .... ....
....|..|--- .... ....|--- .... ....|--- .... ....
....|..|--- .... ....|--- .... ....|--- .... ....
....|..|--- .... ....|--- .... ....|--- .... ....
....|..|--- .... ....|--- .... ....|--- .... ....
....|..|--- .... ....|--- .... ....|--- .... ....
....|..|--- .... ....|--- .... ....|--- .... ....
....|..|--- .... ....|--- .... ....|--- .... ....
....|..|--- .... ....|--- .... ....|--- .... ....
....|..|--- .... ....|--- .... ....|--- .... ....
....|..|--- .... ....|--- .... ....|--- .... ....
....|..|--- .... ....|--- .... ....|--- .... ....
....|..|--- .... ....|--- .... ....|--- .... ....
....|..|--- .... ....|--- .... ....|--- .... ....
....|..|--- .... ....|--- .... ....|--- .... ....
....|..|--- .... ....|--- .... ....|--- .... ....
....|..|--- .... ....|--- .... ....|--- .... ....
....|..|--- .... ....|--- .... ....|--- .... ....
....|..|--- .... ....|--- .... ....|--- .... ....
....|..|--- .... ....|--- .... ....|--- .... ....
....|..|--- .... ....|--- .... ....|--- .... ....
....|..|--- .... ....|--- .... ....|--- .... ....
....|..|--- .... ....|--- .... ....|--- .... ....
....|..|--- .... ....|--- .... ....|--- .... ....
....|..|--- .... ....|--- .... ....|--- .... ....
....|..|--- .... ....|--- .... ....|--- .... ....
....|..|--- .... ....|--- .... ....|--- .... ....
....|..|--- .... ....|--- .... ....|--- .... ....
....|..|--- .... ....|--- .... ....|--- .... ....
....|..|--- .... ....|--- .... ....|--- .... ....
....|..|--- .... ....|--- .... ....|--- .... ....
....|..|--- .... ....|--- .... ....|--- .... ....
....|..|--- .... ....|--- .... ....|--- .... ....
....|..|--- .... ....|--- .... ....|--- .... ....
....|..|--- .... ....|--- .... ....|--- .... ....
....|..|--- .... ....|--- .... ....|--- .... ....
....|..|--- .... ....|--- .... ....|--- .... ....
....|..|--- .... ....|--- .... ....|--- .... ....
....|..|--- .... ....|--- .... ....|--- .... ....
....|..|--- .... ....|--- .... ....|--- .... ....
....|..|--- .... ....|--- .... ....|--- .... ....
....|..|--- .... ....|--- .... ....|--- .... ....
....|..|--- .... ....|--- .... ....|--- .... ....
....|..|--- .... ....|--- .... ....|--- .... ....
....|..|--- .... ....|--- .... ....|--- .... ....

[Pattern24]
....|..|--- .... ....|--- .... ....|--- .... ....
....|..|--- .... ....|--- .... ....|--- .... ....
....|..|--- .... ....|--- .... ....|--- .... ....
....|..|--- .... ....|--- .... ....|--- .... ....
....|..|--- .... ....|--- .... ....|--- .... ....
....|..|--- .... ....|--- .... ....|--- .... ....
....|..|--- .... ....|--- .... ....|--- .... ....
....|..|--- .... ....|--- .... ....|--- .... ....
....|..|--- .... ....|--- .... ....|--- .... ....
....|..|--- .... ....|--- .... ....|--- .... ....
....|..|--- .... ....|--- .... ....|--- .... ....
....|..|--- .... ....|--- .... ....|--- .... ....
....|..|--- .... ....|--- .... ....|--- .... ....
....|..|--- .... ....|--- .... ....|--- .... ....
....|..|--- .... ....|--- .... ....|--- .... ....
....|..|--- .... ....|--- .... ....|--- .... ....
....|..|--- .... ....|--- .... ....|--- .... ....
....|..|--- .... ....|--- .... ....|--- .... ....
....|..|--- .... ....|--- .... ....|--- .... ....
....|..|--- .... ....|--- .... ....|--- .... ....
....|..|--- .... ....|--- .... ....|--- .... ....
....|..|--- .... ....|--- .... ....|--- .... ....
....|..|--- .... ....|--- .... ....|--- .... ....
....|..|--- .... ....|--- .... ....|--- .... ....
....|..|--- .... ....|--- .... ....|--- .... ....
....|..|--- .... ....|--- .... ....|--- .... ....
....|..|--- .... ....|--- .... ....|--- .... ....
....|..|--- .... ....|--- .... ....|--- .... ....
....|..|--- .... ....|--- .... ....|--- .... ....
....|..|--- .... ....|--- .... ....|--- .... ....
....|..|--- .... ....|--- .... ....|--- .... ....
....|..|--- .... ....|--- .... ....|--- .... ....
....|..|--- .... ....|--- .... ....|--- .... ....
....|..|--- .... ....|--- .... ....|--- .... ....
....|..|--- .... ....|--- .... ....|--- .... ....
....|..|--- .... ....|--- .... ....|--- .... ....
....|..|--- .... ....|--- .... ....|--- .... ....
....|..|--- .... ....|--- .... ....|--- .... ....
....|..|--- .... ....|--- .... ....|--- .... ....
....|..|--- .... ....|--- .... ....|--- .... ....
....|..|--- .... ....|--- .... ....|--- .... ....
....|..|--- .... ....|--- .... ....|--- .... ....
....|..|--- .... ....|--- .... ....|--- .... ....
....|..|--- .... ....|--- .... ....|--- .... ....
....|..|--- .... ....|--- .... ....|--- .... ....
....|..|--- .... ....|--- .... ....|--- .... ....
....|..|--- .... ....|--- .... ....|--- .... ....
....|..|--- .... ....|--- .... ....|--- .... ....
....|..|R-- .... ....|--- .... ....|--- .... ....
....|..|--- .... ....|--- .... ....|--- .... ....
....|..|--- .... ....|--- .... ....|--- .... ....
....|..|--- .... ....|--- .... ....|--- .... ....
....|..|--- .... ....|--- .... ....|--- .... ....
....|..|--- .... ....|--- .... ....|--- .... ....
....|..|R-- .... ....|--- .... ....|--- .... ....
....|..|--- .... ....|--- .... ....|--- .... ....
....|..|--- .... ....|--- .... ....|--- .... ....
....|..|--- .... ....|--- .... ....|--- .... ....
....|..|--- .... ....|--- .... ....|--- .... ....
....|..|--- .... ....|--- .... ....|--- .... ....
....|..|R-- .... ....|--- .... ....|--- .... ....
....|..|--- .... ....|--- .... ....|--- .... ....
....|..|--- .... ....|--- .... ....|--- .... ....
....|..|--- .... ....|--- .... ....|--- .... ....
 A#3|..|A#3 UF1F ....|A#3 2CCF ....|--- .... ....
....|..|--- .... ....|--- .... ....|--- .... ....
....|..|--- .... ....|--- .... ....|--- .... ....
....|..|--- .... ....|--- .... ....|--- .... ....
....|..|--- .... ....|--- .... ....|--- .... ....
....|..|--- .... ....|--- .... ....|--- .... ....
....|..|A#3 UF1A ....|A#3 2FCA ....|--- .... ....
....|..|--- .... ....|--- .... ....|--- .... ....
....|..|--- .... ....|--- .... ....|--- .... ....
....|..|--- .... ....|--- .... ....|--- .... ....
....|..|--- .... ....|--- .... ....|--- .... ....
....|..|--- .... ....|--- .... ....|--- .... ....
....|..|A#3 UF17 ....|A#3 2FC7 ....|--- .... ....
....|..|--- .... ....|--- .... ....|--- .... ....
....|..|--- .... ....|--- .... ....|--- .... ....
....|..|--- .... ....|--- .... ....|--- .... ....
....|..|--- .... ....|--- .... ....|--- .... ....
....|..|--- .... ....|--- .... ....|--- .... ....
....|..|--- .... ....|--- .... ....|--- .... ....
....|..|--- .... ....|--- .... ....|--- .... ....
....|..|--- .... ....|--- .... ....|--- .... ....
....|..|--- .... ....|--- .... ....|--- .... ....
....|..|--- .... ....|--- .... ....|--- .... ....
....|..|--- .... ....|--- .... ....|--- .... ....
....|..|--- .... ....|--- .... ....|--- .... ....
....|..|--- .... ....|--- .... ....|--- .... ....
....|..|--- .... ....|--- .... ....|--- .... ....
....|..|--- .... ....|--- .... ....|--- .... ....
....|..|--- .... ....|--- .... ....|--- .... ....
....|..|--- .... ....|--- .... ....|--- .... ....
....|..|--- .... ....|--- .... ....|--- .... ....
....|..|--- .... ....|--- .... ....|--- .... ....
 A-3|..|A-3 UF1F ....|A-3 2CCF ....|--- .... ....
....|..|--- .... ....|--- .... ....|--- .... ....
....|..|--- .... ....|--- .... ....|--- .... ....
....|..|--- .... ....|--- .... ....|--- .... ....
....|..|--- .... ....|--- .... ....|--- .... ....
....|..|--- .... ....|--- .... ....|--- .... ....
....|..|A-3 UF1A ....|A-3 2FCA ....|--- .... ....
....|..|--- .... ....|--- .... ....|--- .... ....
....|..|--- .... ....|--- .... ....|--- .... ....
....|..|--- .... ....|--- .... ....|--- .... ....
....|..|--- .... ....|--- .... ....|--- .... ....
....|..|--- .... ....|--- .... ....|--- .... ....
....|..|A-3 UF17 ....|A-3 2FC7 ....|--- .... ....
....|..|--- .... ....|--- .... ....|--- .... ....
....|..|--- .... ....|--- .... ....|--- .... ....
....|..|--- .... ....|--- .... ....|--- .... ....
 G#4|..|G#3 UF1F ....|G#3 2CCF ....|--- .... ....
....|..|--- .... ....|--- .... ....|--- .... ....
....|..|--- .... ....|--- .... ....|--- .... ....
....|..|--- .... ....|--- .... ....|--- .... ....
....|..|--- .... ....|--- .... ....|--- .... ....
....|..|--- .... ....|--- .... ....|--- .... ....
....|..|G#3 UF1A ....|G#3 2FCA ....|--- .... ....
....|..|--- .... ....|--- .... ....|--- .... ....
....|..|--- .... ....|--- .... ....|--- .... ....
....|..|--- .... ....|--- .... ....|--- .... ....
....|..|--- .... ....|--- .... ....|--- .... ....
....|..|--- .... ....|--- .... ....|--- .... ....
....|..|G#3 UF17 ....|G#3 2FC7 ....|--- .... ....
....|..|--- .... ....|--- .... ....|--- .... ....
....|..|--- .... ....|--- .... ....|--- .... ....
....|..|--- .... ....|--- .... ....|--- .... ....

[Pattern28]
 F#4|..|D#3 UF2F ....|F#3 2CCF ....|--- .... ....
....|..|--- .... ....|--- .... ....|--- .... ....
....|..|--- .... ....|--- .... ....|--- .... ....
....|..|--- .... ....|--- .... ....|--- .... ....
....|..|--- .... ....|--- .... ....|--- .... ....
....|..|--- .... ....|--- .... ....|--- .... ....
....|..|D#3 UF2A ....|F#3 2FCA ....|--- .... ....
....|..|--- .... ....|--- .... ....|--- .... ....
....|..|--- .... ....|--- .... ....|--- .... ....
....|..|--- .... ....|--- .... ....|--- .... ....
....|..|--- .... ....|--- .... ....|--- .... ....
....|..|--- .... ....|--- .... ....|--- .... ....
....|..|D#3 UF27 ....|F#3 2FC7 ....|--- .... ....
....|..|--- .... ....|--- .... ....|--- .... ....
....|..|--- .... ....|--- .... ....|--- .... ....
....|..|--- .... ....|--- .... ....|--- .... ....
....|..|--- .... ....|--- .... ....|--- .... ....
....|..|--- .... ....|--- .... ....|--- .... ....
....|..|--- .... ....|--- .... ....|--- .... ....
....|..|--- .... ....|--- .... ....|--- .... ....
....|..|--- .... ....|--- .... ....|--- .... ....
....|..|--- .... ....|--- .... ....|--- .... ....
....|..|--- .... ....|--- .... ....|--- .... ....
....|..|--- .... ....|--- .... ....|--- .... ....
....|..|--- .... ....|--- .... ....|--- .... ....
....|..|--- .... ....|--- .... ....|--- .... ....
....|..|--- .... ....|--- .... ....|--- .... ....
....|..|--- .... ....|--- .... ....|--- .... ....
....|..|--- .... ....|--- .... ....|--- .... ....
....|..|--- .... ....|--- .... ....|--- .... ....
....|..|--- .... ....|--- .... ....|--- .... ....
....|..|--- .... ....|--- .... ....|--- .... ....
....|..|--- .... ....|--- .... ....|--- .... ....
....|..|--- .... ....|--- .... ....|--- .... ....
....|..|--- .... ....|--- .... ....|--- .... ....
....|..|--- .... ....|--- .... ....|--- .... ....
....|..|--- .... ....|--- .... ....|--- .... ....
....|..|--- .... ....|--- .... ....|--- .... ....
....|..|--- .... ....|--- .... ....|--- .... ....
....|..|--- .... ....|--- .... ....|--- .... ....
....|..|--- .... ....|--- .... ....|--- .... ....
....|..|--- .... ....|--- .... ....|--- .... ....
....|..|--- .... ....|--- .... ....|--- .... ....
....|..|--- .... ....|--- .... ....|--- .... ....
....|..|--- .... ....|--- .... ....|--- .... ....
....|..|--- .... ....|--- .... ....|--- .... ....
....|..|--- .... ....|--- .... ....|--- .... ....
....|..|--- .... ....|--- .... ....|--- .... ....
....|..|--- .... ....|--- .... ....|--- .... ....
....|..|--- .... ....|--- .... ....|--- .... ....
....|..|--- .... ....|--- .... ....|--- .... ....
....|..|--- .... ....|--- .... ....|--- .... ....
....|..|--- .... ....|--- .... ....|--- .... ....
....|..|--- .... ....|--- .... ....|--- .... ....
....|..|--- .... ....|--- .... ....|--- .... ....
....|..|--- .... ....|--- .... ....|--- .... ....
....|..|--- .... ....|--- .... ....|--- .... ....
....|..|--- .... ....|--- .... ....|--- .... ....
....|..|--- .... ....|--- .... ....|--- .... ....
....|..|--- .... ....|--- .... ....|--- .... ....
....|..|--- .... ....|--- .... ....|--- .... ....
....|..|--- .... ....|--- .... ....|--- .... ....
....|..|--- .... ....|--- .... ....|--- .... ....
....|..|--- .... ....|--- .... ....|--- .... ....
 F#4|..|R-- .... ....|F#3 2CDF ....|D#3 2FBF ....
....|..|--- .... ....|--- .... ....|--- .... ....
....|..|--- .... ....|--- .... ....|--- .... ....
....|..|--- .... ....|--- .... ....|--- .... ....
....|..|--- .... ....|--- .... ....|--- .... ....
....|..|--- .... ....|--- .... ....|--- .... ....
....|..|R-- .... ....|F#3 2FDA ....|D#3 2FBA ....
....|..|--- .... ....|--- .... ....|--- .... ....
 F#4|..|--- .... ....|F#3 2CDF ....|D#3 2FBF ....
....|..|--- .... ....|--- .... ....|--- .... ....
....|..|--- .... ....|--- .... ....|--- .... ....
....|..|--- .... ....|--- .... ....|--- .... ....
....|..|R-- .... ....|F#3 2FD7 ....|D#3 2FB7 ....
....|..|--- .... ....|--- .... ....|--- .... ....
....|..|--- .... ....|F#3 2FDA ....|D#3 2FBA ....
....|..|--- .... ....|--- .... ....|--- .... ....
 F#4|..|--- .... ....|F#3 2CDF ....|D#3 2FBF ....
....|..|--- .... ....|--- .... ....|--- .... ....
....|..|--- .... ....|--- .... ....|--- .... ....
....|..|--- .... ....|--- .... ....|--- .... ....
 F#4|..|--- .... ....|F#3 2CDF ....|D#3 2FBF ....
 D#4|..|--- .... ....|D#3 2CDF ....|D#3 2CBF ....
....|..|--- .... ....|F#3 2FDA ....|D#3 2FBA ....
....|..|--- .... ....|--- .... ....|--- .... ....
....|..|--- .... ....|--- .... ....|--- .... ....
....|..|--- .... ....|--- .... ....|--- .... ....
....|..|--- .... ....|F#3 2FDA ....|D#3 2FBA ....
....|..|--- .... ....|D#3 2FDA ....|D#3 2FBA ....
 F#4|..|--- .... ....|F#3 2CDF ....|D#3 2FBF ....
....|..|--- .... ....|--- .... ....|--- .... ....
....|..|--- .... ....|--- .... ....|--- .... ....
....|..|--- .... ....|--- .... ....|--- .... ....
 F#4|..|--- .... ....|F#3 2CDF ....|D#3 2FBF ....
 F-4|..|--- .... ....|F-3 2CDF ....|D#3 2FBF ....
....|..|--- .... ....|F#3 2FDA ....|D#3 2FBA ....
....|..|--- .... ....|--- .... ....|--- .... ....
....|..|--- .... ....|--- .... ....|--- .... ....
....|..|--- .... ....|--- .... ....|--- .... ....
 F-4|..|--- .... ....|F-3 2CDF ....|D#3 2FBF ....
 F-4|..|--- .... ....|F-3 2CDF ....|D#3 2FBF ....
 F-4|..|--- .... ....|F-3 2CDF ....|D#3 2FBF ....
....|..|--- .... ....|--- .... ....|--- .... ....
....|..|--- .... ....|--- .... ....|--- .... ....
....|..|--- .... ....|--- .... ....|--- .... ....
 F-4|..|--- .... ....|F-3 2CDF ....|D#3 2FBF ....
 D#4|..|--- .... ....|D#3 2CDF ....|D#3 2CBF ....
....|..|--- .... ....|F-3 2FDA ....|D#3 2FBA ....
....|..|--- .... ....|--- .... ....|--- .... ....
....|..|--- .... ....|--- .... ....|--- .... ....
....|..|--- .... ....|--- .... ....|--- .... ....
 D#4|..|--- .... ....|D#3 2CDF ....|D#3 2CBF ....
....|..|--- .... ....|F-3 2FD7 ....|D#3 2FB7 ....
 D#4|..|--- .... ....|D#3 2CDF ....|D#3 2CBF ....
....|..|--- .... ....|--- .... ....|--- .... ....
....|..|--- .... ....|--- .... ....|--- .... ....
....|..|--- .... ....|--- .... ....|--- .... ....
 D#4|..|--- .... ....|D#3 2CDF ....|D#3 2CBF ....
 D#4|..|--- .... ....|D-3 2FDF ....|D#3 2CBF ....
....|..|--- .... ....|D#3 2FDA ....|D#3 2FBA ....
....|..|--- .... ....|--- .... ....|--- .... ....
 D#4|..|--- .... ....|D#3 2CDF ....|D#3 2CBF ....
 D#4|..|--- .... ....|D#3 2CDF ....|D#3 2CBF ....
 D#4|..|--- .... ....|D#3 2CDF ....|D#3 2CBF ....
....|..|--- .... ....|D-3 2FDA ....|D#3 2FBA ....

[Pattern34]
 F#4|..|--- .... ....|F#3 2CDF ....|D#3 2FBF ....
....|..|--- .... ....|--- .... ....|--- .... ....
....|..|--- .... ....|D#3 2FDA ....|D#3 2FBA ....
....|..|--- .... ....|D#3 2FDA ....|D#3 2FBA ....
....|..|--- .... ....|D#3 2FD7 ....|D#3 2FB7 ....
....|..|--- .... ....|D-3 2FD7 ....|D#3 2FB7 ....
....|..|--- .... ....|F#3 2FDA ....|D#3 2FBA ....
....|..|--- .... ....|--- .... ....|--- .... ....
 F#4|..|--- .... ....|F#3 2CDF ....|D#3 2FBF ....
....|..|--- .... ....|D#3 2FD7 ....|D#3 2FB7 ....
....|..|--- .... ....|D#3 2FD7 ....|D#3 2FB7 ....
....|..|--- .... ....|--- .... ....|--- .... ....
....|..|--- .... ....|F#3 2FD7 ....|D#3 2FB7 ....
....|..|--- .... ....|--- .... ....|--- .... ....
....|..|--- .... ....|F#3 2FDA ....|D#3 2FBA ....
....|..|--- .... ....|--- .... ....|--- .... ....
 F#4|..|--- .... ....|F#3 2CDF ....|D#3 2FBF ....
....|..|--- .... ....|--- .... ....|--- .... ....
....|..|--- .... ....|--- .... ....|--- .... ....
....|..|--- .... ....|--- .... ....|--- .... ....
 F#4|..|--- .... ....|F#3 2CDF ....|D#3 2FBF ....
 D#4|..|--- .... ....|D#3 2CDF ....|D#3 2CBF ....
....|..|--- .... ....|F#3 2FDA ....|D#3 2FBA ....
....|..|--- .... ....|--- .... ....|--- .... ....
....|..|--- .... ....|--- .... ....|--- .... ....
....|..|--- .... ....|--- .... ....|--- .... ....
....|..|--- .... ....|F#3 2FDA ....|D#3 2FBA ....
....|..|--- .... ....|D#3 2FDA ....|D#3 2FBA ....
 F#4|..|--- .... ....|F#3 2CDF ....|D#3 2FBF ....
....|..|--- .... ....|--- .... ....|--- .... ....
....|..|--- .... ....|--- .... ....|--- .... ....
....|..|--- .... ....|--- .... ....|--- .... ....
 F#4|..|--- .... ....|F#3 2CDF ....|D#3 2FBF ....
 F-4|..|--- .... ....|F-3 2CDF ....|D#3 2FBF ....
....|..|--- .... ....|F#3 2FDA ....|D#3 2FBA ....
....|..|--- .... ....|--- .... ....|--- .... ....
....|..|--- .... ....|--- .... ....|--- .... ....
....|..|--- .... ....|--- .... ....|--- .... ....
 F-4|..|--- .... ....|F-3 2CDF ....|D#3 2FBF ....
 F-4|..|--- .... ....|F-3 2CDF ....|D#3 2FBF ....
 F-4|..|--- .... ....|F-3 2CDF ....|D#3 2FBF ....
....|..|--- .... ....|--- .... ....|--- .... ....
....|..|--- .... ....|--- .... ....|--- .... ....
....|..|--- .... ....|--- .... ....|--- .... ....
 F-4|..|--- .... ....|F-3 2CDF ....|D#3 2FBF ....
 D#4|..|--- .... ....|D#3 2CDF ....|D#3 2CBF ....
....|..|--- .... ....|F-3 2FDA ....|D#3 2FBA ....
....|..|--- .... ....|--- .... ....|--- .... ....
....|..|--- .... ....|--- .... ....|--- .... ....
....|..|--- .... ....|--- .... ....|--- .... ....
 D#4|..|--- .... ....|D#3 2CDF ....|D#3 2CBF ....
....|..|--- .... ....|F-3 2FD7 ....|D#3 2FB7 ....
 D#4|..|--- .... ....|D#3 2CDF ....|D#3 2CBF ....
....|..|--- .... ....|--- .... ....|--- .... ....
....|..|--- .... ....|--- .... ....|--- .... ....
....|..|--- .... ....|--- .... ....|--- .... ....
 D#4|..|--- .... ....|D#3 2CDF ....|D#3 2CBF ....
 D#4|..|--- .... ....|D-3 2FDF ....|D#3 2CBF ....
....|..|--- .... ....|D#3 2FDA ....|D#3 2FBA ....
....|..|--- .... ....|--- .... ....|--- .... ....
 D#4|..|--- .... ....|D#3 2CDF ....|D#3 2CBF ....
 D#4|..|--- .... ....|D#3 2CDF ....|D#3 2CBF ....
 D#4|..|--- .... ....|D#3 2CDF ....|D#3 2CBF ....
....|..|--- .... ....|D-3 2FDA ....|D#3 2FBA ....
 F#4|..|--- .... ....|F#3 2CDF ....|D#3 2FBF ....
....|..|--- .... ....|--- .... ....|--- .... ....
....|..|--- .... ....|D#3 2FDA ....|D#3 2FBA ....
....|..|--- .... ....|D#3 2FDA ....|D#3 2FBA ....
....|..|--- .... ....|D#3 2FD7 ....|D#3 2FB7 ....
....|..|--- .... ....|D-3 2FD7 ....|D#3 2FB7 ....
....|..|--- .... ....|F#3 2FDA ....|D#3 2FBA ....
....|..|--- .... ....|--- .... ....|--- .... ....
 F#4|..|--- .... ....|F#3 2CDF ....|D#3 2FBF ....
....|..|--- .... ....|D#3 2FD7 ....|D#3 2FB7 ....
....|..|--- .... ....|D#3 2FD7 ....|D#3 2FB7 ....
....|..|--- .... ....|--- .... ....|--- .... ....
....|..|--- .... ....|F#3 2FD7 ....|D#3 2FB7 ....
....|..|--- .... ....|--- .... ....|--- .... ....
....|..|--- .... ....|F#3 2FDA ....|D#3 2FBA ....
....|..|--- .... ....|--- .... ....|--- .... ....
 F#4|..|--- .... ....|F#3 2CDF ....|D#3 2FBF ....
....|..|--- .... ....|--- .... ....|--- .... ....
....|..|--- .... ....|--- .... ....|--- .... ....
....|..|--- .... ....|--- .... ....|--- .... ....
 F#4|..|--- .... ....|F#3 2CDF ....|D#3 2FBF ....
 D#4|..|--- .... ....|D#3 2CDF ....|D#3 2CBF ....
....|..|--- .... ....|F#3 2FDA ....|D#3 2FBA ....
....|..|--- .... ....|--- .... ....|--- .... ....
....|..|--- .... ....|--- .... ....|--- .... ....
....|..|--- .... ....|--- .... ....|--- .... ....
....|..|--- .... ....|F#3 2FDA ....|D#3 2FBA ....
....|..|--- .... ....|D#3 2FDA ....|D#3 2FBA ....
 F#4|..|--- .... ....|F#3 2CDF ....|D#3 2FBF ....
....|..|--- .... ....|--- .... ....|--- .... ....
....|..|--- .... ....|--- .... ....|--- .... ....
....|..|--- .... ....|--- .... ....|--- .... ....
 F#4|..|--- .... ....|F#3 2CDF ....|D#3 2FBF ....
 D#4|..|--- .... ....|D#3 2CDF ....|D#3 2CBF ....
....|..|--- .... ....|F#3 2FDA ....|D#3 2FBA ....
....|..|--- .... ....|--- .... ....|--- .... ....
....|..|--- .... ....|--- .... ....|--- .... ....
....|..|--- .... ....|--- .... ....|--- .... ....
....|..|--- .... ....|F#3 2FDA ....|D#3 2FBA ....
....|..|--- .... ....|D#3 2FDA ....|D#3 2FBA ....
....|..|--- .... ....|F#3 2FD7 ....|D#3 2FB7 ....
....|..|--- .... ....|--- .... ....|--- .... ....
....|..|--- .... ....|--- .... ....|--- .... ....
....|..|--- .... ....|--- .... ....|--- .... ....
....|..|--- .... ....|F#3 2FD7 ....|D#3 2FB7 ....
....|..|--- .... ....|D#3 2FD7 ....|D#3 2FB7 ....
....|..|--- .... ....|--- .... ....|--- .... ....
....|..|--- .... ....|--- .... ....|--- .... ....
....|..|--- .... ....|--- .... ....|--- .... ....
....|..|--- .... ....|--- .... ....|--- .... ....
....|..|--- .... ....|--- .... ....|--- .... ....
....|..|--- .... ....|--- .... ....|--- .... ....
....|..|--- .... ....|--- .... ....|--- .... ....
....|..|--- .... ....|--- .... ....|--- .... ....
....|..|--- .... ....|--- .... ....|--- .... ....
....|..|--- .... ....|--- .... ....|--- .... ....
....|..|--- .... ....|--- .... ....|--- .... ....
....|..|--- .... ....|--- .... ....|--- .... ....
....|..|--- .... ....|--- .... ....|--- .... ....
....|..|--- .... ....|--- .... ....|--- .... ....
....|..|--- .... ....|--- .... ....|--- .... ....
....|..|--- .... ....|--- .... ....|--- .... ....
....|..|--- .... ....|--- .... ....|--- .... ....
....|..|--- .... ....|--- .... ....|--- .... ....

[Pattern35]
....|..|--- .... ....|R-- .... ....|R-- .... ....
....|..|--- .... ....|--- .... ....|--- .... ....
....|..|--- .... ....|--- .... ....|--- .... ....
....|..|--- .... ....|--- .... ....|--- .... ....
....|..|--- .... ....|--- .... ....|--- .... ....
....|..|--- .... ....|--- .... ....|--- .... ....
....|..|--- .... ....|R-- .... ....|R-- .... ....
....|..|--- .... ....|--- .... ....|--- .... ....
....|..|--- .... ....|--- .... ....|--- .... ....
....|..|--- .... ....|--- .... ....|--- .... ....
....|..|--- .... ....|--- .... ....|--- .... ....
....|..|--- .... ....|--- .... ....|--- .... ....
....|..|--- .... ....|R-- .... ....|R-- .... ....
....|..|--- .... ....|--- .... ....|--- .... ....
....|..|--- .... ....|--- .... ....|--- .... ....
....|..|--- .... ....|--- .... ....|--- .... ....
....|..|--- .... ....|--- .... ....|--- .... ....
....|..|--- .... ....|--- .... ....|--- .... ....
....|..|--- .... ....|--- .... ....|--- .... ....
....|..|--- .... ....|--- .... ....|--- .... ....
....|..|--- .... ....|--- .... ....|--- .... ....
....|..|--- .... ....|--- .... ....|--- .... ....
....|..|--- .... ....|--- .... ....|--- .... ....
....|..|--- .... ....|--- .... ....|--- .... ....
....|..|--- .... ....|--- .... ....|--- .... ....
....|..|--- .... ....|--- .... ....|--- .... ....
....|..|--- .... ....|--- .... ....|--- .... ....
....|..|--- .... ....|--- .... ....|--- .... ....
....|..|--- .... ....|--- .... ....|--- .... ....
....|..|--- .... ....|--- .... ....|--- .... ....
....|..|--- .... ....|--- .... ....|--- .... ....
....|..|--- .... ....|--- .... ....|--- .... ....
....|..|--- .... ....|--- .... ....|--- .... ....
....|..|--- .... ....|--- .... ....|--- .... ....
....|..|--- .... ....|--- .... ....|--- .... ....
....|..|--- .... ....|--- .... ....|--- .... ....
....|..|--- .... ....|--- .... ....|--- .... ....
....|..|--- .... ....|--- .... ....|--- .... ....
....|..|--- .... ....|--- .... ....|--- .... ....
....|..|--- .... ....|--- .... ....|--- .... ....
....|..|--- .... ....|--- .... ....|--- .... ....
....|..|--- .... ....|--- .... ....|--- .... ....
....|..|--- .... ....|--- .... ....|--- .... ....
....|..|--- .... ....|--- .... ....|--- .... ....
....|..|--- .... ....|--- .... ....|--- .... ....
....|..|--- .... ....|--- .... ....|--- .... ....
....|..|--- .... ....|--- .... ....|--- .... ....
....|..|--- .... ....|--- .... ....|--- .... ....
....|..|--- .... ....|--- .... ....|--- .... ....
....|..|--- .... ....|--- .... ....|--- .... ....
....|..|--- .... ....|--- .... ....|--- .... ....
....|..|--- .... ....|--- .... ....|--- .... ....
....|..|--- .... ....|--- .... ....|--- .... ....
....|..|--- .... ....|--- .... ....|--- .... ....
....|..|--- .... ....|--- .... ....|--- .... ....
....|..|--- .... ....|--- .... ....|--- .... ....
....|..|--- .... ....|--- .... ....|--- .... ....
....|..|--- .... ....|--- .... ....|--- .... ....
....|..|--- .... ....|--- .... ....|--- .... ....
....|..|--- .... ....|--- .... ....|--- .... ....
....|..|--- .... ....|--- .... ....|--- .... ....
....|..|--- .... ....|--- .... ....|--- .... ....
....|..|--- .... ....|--- .... ....|--- .... ....
....|..|--- .... ....|--- .... ....|--- .... ....
....|..|--- .... ....|--- .... ....|--- .... ....
....|..|--- .... ....|--- .... ....|--- .... ....
....|..|--- .... ....|--- .... ....|--- .... ....
....|..|--- .... ....|--- .... ....|--- .... ....
....|..|--- .... ....|--- .... ....|--- .... ....
....|..|--- .... ....|--- .... ....|--- .... ....
....|..|--- .... ....|--- .... ....|--- .... ....
....|..|--- .... ....|--- .... ....|--- .... ....
....|..|--- .... ....|--- .... ....|--- .... ....
....|..|--- .... ....|--- .... ....|--- .... ....
....|..|--- .... ....|--- .... ....|--- .... ....
....|..|--- .... ....|--- .... ....|--- .... ....
....|..|--- .... ....|--- .... ....|--- .... ....
....|..|--- .... ....|--- .... ....|--- .... ....
....|..|--- .... ....|--- .... ....|--- .... ....
....|..|--- .... ....|--- .... ....|--- .... ....
....|..|--- .... ....|--- .... ....|--- .... ....
....|..|--- .... ....|--- .... ....|--- .... ....
....|..|--- .... ....|--- .... ....|--- .... ....
....|..|--- .... ....|--- .... ....|--- .... ....
....|..|--- .... ....|--- .... ....|--- .... ....
....|..|--- .... ....|--- .... ....|--- .... ....
....|..|--- .... ....|--- .... ....|--- .... ....
....|..|--- .... ....|--- .... ....|--- .... ....
....|..|--- .... ....|--- .... ....|--- .... ....
....|..|--- .... ....|--- .... ....|--- .... ....
....|..|--- .... ....|--- .... ....|--- .... ....
....|..|--- .... ....|--- .... ....|--- .... ....
....|..|--- .... ....|--- .... ....|--- .... ....
....|..|--- .... ....|--- .... ....|--- .... ....
....|..|--- .... ....|--- .... ....|--- .... ....
....|..|--- .... ....|--- .... ....|--- .... ....
....|..|--- .... ....|--- .... ....|--- .... ....
....|..|--- .... ....|--- .... ....|--- .... ....
....|..|--- .... ....|--- .... ....|--- .... ....
....|..|--- .... ....|--- .... ....|--- .... ....
....|..|--- .... ....|--- .... ....|--- .... ....
....|..|--- .... ....|--- .... ....|--- .... ....
....|..|--- .... ....|--- .... ....|--- .... ....
....|..|--- .... ....|--- .... ....|--- .... ....
....|..|--- .... ....|--- .... ....|--- .... ....
....|..|--- .... ....|--- .... ....|--- .... ....
....|..|--- .... ....|--- .... ....|--- .... ....
....|..|--- .... ....|--- .... ....|--- .... ....
....|..|--- .... ....|--- .... ....|--- .... ....
....|..|--- .... ....|--- .... ....|--- .... ....
....|..|--- .... ....|--- .... ....|--- .... ....
....|..|--- .... ....|--- .... ....|--- .... ....
....|..|--- .... ....|--- .... ....|--- .... ....
....|..|--- .... ....|--- .... ....|--- .... ....
....|..|--- .... ....|--- .... ....|--- .... ....
....|..|--- .... ....|--- .... ....|--- .... ....
....|..|--- .... ....|--- .... ....|--- .... ....
....|..|--- .... ....|--- .... ....|--- .... ....
....|..|--- .... ....|--- .... ....|--- .... ....
....|..|--- .... ....|--- .... ....|--- .... ....
....|..|--- .... ....|--- .... ....|--- .... ....
....|..|--- .... ....|--- .... ....|--- .... ....
....|..|--- .... ....|--- .... ....|--- .... ....
....|..|--- .... ....|--- .... ....|--- .... ....
....|..|--- .... ....|--- .... ....|--- .... ....
....|..|--- .... ....|--- .... ....|--- .... ....
....|..|--- .... ....|--- .... ....|--- .... ....
....|..|--- .... ....|--- .... ....|--- .... ....

[Pattern47]
....|..|R-- .... ....|R-- .... ....|--- .... ....
....|..|--- .... ....|--- .... ....|--- .... ....
....|..|--- .... ....|--- .... ....|--- .... ....
....|..|--- .... ....|--- .... ....|--- .... ....
....|..|--- .... ....|--- .... ....|--- .... ....
....|..|--- .... ....|--- .... ....|--- .... ....
....|..|R-- .... ....|R-- .... ....|--- .... ....
....|..|--- .... ....|--- .... ....|--- .... ....
....|..|--- .... ....|--- .... ....|--- .... ....
....|..|--- .... ....|--- .... ....|--- .... ....
....|..|--- .... ....|--- .... ....|--- .... ....
....|..|--- .... ....|--- .... ....|--- .... ....
....|..|R-- .... ....|R-- .... ....|--- .... ....
....|..|--- .... ....|--- .... ....|--- .... ....
....|..|--- .... ....|--- .... ....|--- .... ....
....|..|--- .... ....|--- .... ....|--- .... ....
....|..|--- .... ....|--- .... ....|--- .... ....
....|..|--- .... ....|--- .... ....|--- .... ....
....|..|--- .... ....|--- .... ....|--- .... ....
....|..|--- .... ....|--- .... ....|--- .... ....
....|..|--- .... ....|--- .... ....|--- .... ....
....|..|--- .... ....|--- .... ....|--- .... ....
....|..|--- .... ....|--- .... ....|--- .... ....
....|..|--- .... ....|--- .... ....|--- .... ....
....|..|--- .... ....|--- .... ....|--- .... ....
....|..|--- .... ....|--- .... ....|--- .... ....
....|..|--- .... ....|--- .... ....|--- .... ....
....|..|--- .... ....|--- .... ....|--- .... ....
....|..|--- .... ....|--- .... ....|--- .... ....
....|..|--- .... ....|--- .... ....|--- .... ....
....|..|--- .... ....|--- .... ....|--- .... ....
....|..|--- .... ....|--- .... ....|--- .... ....
....|..|--- .... ....|--- .... ....|--- .... ....
....|..|--- .... ....|--- .... ....|--- .... ....
....|..|--- .... ....|--- .... ....|--- .... ....
....|..|--- .... ....|--- .... ....|--- .... ....
....|..|--- .... ....|--- .... ....|--- .... ....
....|..|--- .... ....|--- .... ....|--- .... ....
....|..|--- .... ....|--- .... ....|--- .... ....
....|..|--- .... ....|--- .... ....|--- .... ....
....|..|--- .... ....|--- .... ....|--- .... ....
....|..|--- .... ....|--- .... ....|--- .... ....
....|..|--- .... ....|--- .... ....|--- .... ....
....|..|--- .... ....|--- .... ....|--- .... ....
....|..|--- .... ....|--- .... ....|--- .... ....
....|..|--- .... ....|--- .... ....|--- .... ....
....|..|--- .... ....|--- .... ....|--- .... ....
....|..|--- .... ....|--- .... ....|--- .... ....
....|..|--- .... ....|--- .... ....|--- .... ....
....|..|--- .... ....|--- .... ....|--- .... ....
....|..|--- .... ....|--- .... ....|--- .... ....
....|..|--- .... ....|--- .... ....|--- .... ....
....|..|--- .... ....|--- .... ....|--- .... ....
....|..|--- .... ....|--- .... ....|--- .... ....
....|..|--- .... ....|--- .... ....|--- .... ....
....|..|--- .... ....|--- .... ....|--- .... ....
....|..|--- .... ....|--- .... ....|--- .... ....
....|..|--- .... ....|--- .... ....|--- .... ....
....|..|--- .... ....|--- .... ....|--- .... ....
....|..|--- .... ....|--- .... ....|--- .... ....
....|..|--- .... ....|--- .... ....|--- .... ....
....|..|--- .... ....|--- .... ....|--- .... ....
....|..|--- .... ....|--- .... ....|--- .... ....
....|..|--- .... ....|--- .... ....|--- .... ....
....|..|--- .... ....|--- .... ....|--- .... ....
....|..|--- .... ....|--- .... ....|--- .... ....
....|..|--- .... ....|--- .... ....|--- .... ....
....|..|--- .... ....|--- .... ....|--- .... ....
....|..|--- .... ....|--- .... ....|--- .... ....
....|..|--- .... ....|--- .... ....|--- .... ....
....|..|--- .... ....|--- .... ....|--- .... ....
....|..|--- .... ....|--- .... ....|--- .... ....
....|..|--- .... ....|--- .... ....|--- .... ....
....|..|--- .... ....|--- .... ....|--- .... ....
....|..|--- .... ....|--- .... ....|--- .... ....
....|..|--- .... ....|--- .... ....|--- .... ....
....|..|--- .... ....|--- .... ....|--- .... ....
....|..|--- .... ....|--- .... ....|--- .... ....
....|..|--- .... ....|--- .... ....|--- .... ....
....|..|--- .... ....|--- .... ....|--- .... ....
....|..|--- .... ....|--- .... ....|--- .... ....
....|..|--- .... ....|--- .... ....|--- .... ....
....|..|--- .... ....|--- .... ....|--- .... ....
....|..|--- .... ....|--- .... ....|--- .... ....
....|..|--- .... ....|--- .... ....|--- .... ....
....|..|--- .... ....|--- .... ....|--- .... ....
....|..|--- .... ....|--- .... ....|--- .... ....
....|..|--- .... ....|--- .... ....|--- .... ....
....|..|--- .... ....|--- .... ....|--- .... ....
....|..|--- .... ....|--- .... ....|--- .... ....
....|..|--- .... ....|--- .... ....|--- .... ....
....|..|--- .... ....|--- .... ....|--- .... ....
....|..|--- .... ....|--- .... ....|--- .... ....

[Module]
VortexTrackerII=0
Version=3.5
Title=1d,2me[2f],3me[2e]
Author=oisee ^ 4d 29.05.2010
NoteTable=4
ChipFreq=1750000
Speed=3
PlayOrder=L0,1,2,3,4,3,4,7,8,9,10,9,12,13,14,15,16,17,16,17,20,21,22,21,24,17,16,17,28,13,30,31,31,31,34,35,1,2,3,4,3,4,7,8,9,10,9,47

[Ornament1]
L0

[Ornament2]
L0

[Ornament3]
L0

[Ornament4]
L0

[Ornament5]
L0

[Ornament6]
L0

[Ornament7]
L0

[Ornament8]
L0

[Ornament9]
L0

[Ornament10]
L0

[Ornament11]
L0

[Ornament12]
L0

[Ornament13]
L0

[Ornament14]
-1,L0

[Ornament15]
-1,0,L0

[Sample1]
TnE +000_ +00_ F_
TnE +000_ +00_ F_
TnE +000_ +00_ F_
TnE +000_ +00_ D_
TnE +000_ +00_ B_
TnE +000_ +00_ B_ L

[Sample2]
TnE +000_ +00_ F_ L

[Sample3]
TnE +001_ +00_ F_
TnE +002_ +00_ F_
TnE +001_ +00_ E_
TnE +002_ +00_ E_
TnE +000_ +00_ E_ L
TnE -001_ +00_ E_
TnE -002_ +00_ E_
TnE -001_ +00_ E_
TnE +000_ +00_ E_
TnE +001_ +00_ E_
TnE +002_ +00_ E_
TnE +001_ +00_ E_

[Sample4]
TnE +002_ +00_ D_
TnE +002_ +00_ D_
TnE +002_ +00_ C_
TnE +002_ +00_ B_
TnE +002_ +00_ A_ L
TnE +002_ +00_ A_
TnE +002_ +00_ A_
TnE +002_ +00_ A_
TnE +002_ +00_ A_
TnE +002_ +00_ A_
TnE +002_ +00_ A_
TnE +002_ +00_ A_

[Sample5]
TnE +000_ +00_ F_
TnE +000_ +00_ F_
tne +000_ +00_ 0_ L

[Sample6]
TnE -001_ +00_ F_ L

[Sample7]
TnE +006_ +00_ F_ L

[Sample8]
tNe +000_ +00_ F_
tNe +000_ +00_ B_
tNe +000_ +00_ 7_
tNe +000_ +00_ 6- L

[Sample9]
TnE +080_ +00_ F_
TnE +100_ +00_ E_
TnE +180_ +00_ E_
TnE +200_ +00_ E_
TnE +240_ +00_ D_
TnE +280_ +00_ D_
TnE +2C0_ +00_ D_
TnE +300_ +00_ C_
TnE +300_ +00_ C_
TnE +340_ +00_ C_
TnE +340_ +00_ C_
TnE +380_ +00_ B_
TnE +380_ +00_ B_
TnE +400_ +00_ B_
TnE +400_ +00_ B_
TnE +480_ +00_ A_
TnE +500_ +00_ 9_
TnE +580_ +00_ 7_
TnE +600_ +00_ 4_
TnE +680_ +00_ 1_
TnE +000_ +00_ 0_ L

[Sample10]
Tne +1C0_ +00_ F_
Tne +280_ +00_ E_
Tne +380_ +00_ C_
Tne +440_ +00_ A_
Tne +480_ +00_ 8_
TnE +000_ +00_ 0_ L

[Sample11]
TNe +200_ -0A_ F_
tNe +000_ +0F_ A_
TNe +200_ -07_ E_
tNe +000_ +0E_ B- L

[Sample12]
TNE +0A0_ +05_ F_
TNE +140_ +02_ D_
TNE +140_ +02_ B_
TNE +100_ +00_ A_ L
TNE +140_ +00_ A_
TNE +200_ +00_ A-

[Sample13]
Tne +200_ +00_ F_
Tne +2C0_ +00_ F_
Tne +380_ +00_ E_
Tne +500_ +00_ C_
Tne +520_ +00_ 9_
tne +000_ +00_ 0_ L

[Sample14]
TNE -100_ +00_ F_
TNE -100_ +00_ D_
TNE -100_ +00_ A_
TNE -100_ +00_ 5_
tne +000_ +00_ 0_ L

[Sample15]
TNE -100_ +00_ 5_
TNE -100_ +00_ 8_
TNE -100_ +00_ B_
TNE -100_ +00_ F_
TNe -100_ +00_ 9- L

[Sample16]
TnE +000_ +00_ C_
TnE +000_ +00_ E_
TnE +000_ +00_ F_
TnE +000_ +00_ F_
TnE +000_ +00_ E_
TnE +000_ +00_ D_
TnE +000_ +00_ C_
TnE +000_ +00_ C_ L
TnE +001_ +00_ C_
TnE +002_ +00_ C_
TnE +003_ +00_ C_
TnE +001_ +00_ C_
TnE +000_ +00_ C_
TnE -001_ +00_ C_
TnE -002_ +00_ C_
TnE -003_ +00_ C_
TnE -001_ +00_ C_
TnE +000_ +00_ C_
TnE +000_ +00_ C_

[Sample17]
Tne +1C0_ +00_ F_
Tne +280_ +00_ D_
Tne +380_ +00_ 7_
TNE +000_ +00_ 0_ L

[Sample18]
TnE -00C_ +00_ 0_ L

[Sample19]
TNe +000_ +00_ F_
TNe +000_ +00_ C_
TNe +000_ +00_ 6_
TNe +000_ +01_ A- L

[Sample20]
TNE +140_ +00_ F_
tNE +000_ +00_ B- L

[Sample21]
tNE +000_ +00_ D_
tNE +000_ +00_ 8_
tNE +000_ +00_ 1_
TNE +000_ +00_ 0_ L

[Sample22]
TnE +000_ +00_ D_ L
TnE +000_ +00_ D_
tne +000_ +00_ 9_
tne +000_ +00_ 9_
TnE +000_ +00_ D_
TnE +000_ +00_ D_
tne +000_ +00_ 9_
tne +000_ +00_ 9_
TnE +000_ +00_ D_
TnE +000_ +00_ D_
TnE +000_ +00_ D_
TnE +000_ +00_ D_
TnE +000_ +00_ D_
TnE +000_ +00_ D_
tne +000_ +00_ 9_
tne +000_ +00_ 9_

[Sample23]
TnE +000_ +00_ F_ L
TnE +010_ +01_ F_
TnE +010_ +01_ F_
TnE +010_ +01_ F_
TnE +010_ +01_ F_
TnE +000_ +00_ F_
TnE +000_ +00_ F_
TnE -010_ -01_ F_
TnE -010_ -01_ F_
TnE -010_ -01_ F_
TnE -010_ -01_ F_
TnE +000_ +00_ F_

[Sample24]
TNe +000_ -01_ C_
TNe +000_ -01_ D_
TNe +000_ -01_ E_
TNe +000_ -01_ F_
TNe +000_ -01_ F_
TNe +000_ -01_ F_
TNe +000_ -01_ F_
TNe +000_ -01_ F_
TNe +000_ -01_ E_
TNe +000_ -01_ E_
TNe +000_ -01_ E_
TNe +000_ -01_ F_
TNe +000_ -01_ F_ L

[Sample25]
TNE +000_ +00_ F_
TNE +000_ +00_ F_ L
TNE +000_ +00_ F_
TNE +000_ +00_ F_
TNE +000_ +00_ F-

[Sample26]
tne +000_ +00_ 0_ L

[Sample27]
TnE +100_ +05_ F_
TnE +200_ +02_ A_
TnE +300_ +02_ 7_
TNE +400_ +00_ 3- L

[Sample28]
tne +000_ +00_ 0_ L

[Sample29]
tnE +000_ +00_ 0_ L

[Sample30]
TNE +000_ +00_ C+ L

[Sample31]
TNe +1C0_ +00_ F_
Tne +280_ +00_ E_
Tne +380_ +00_ C_
Tne +440_ +00_ A_
Tne +480_ +00_ 8_
TnE +000_ +00_ 0_ L

[Pattern0]
 D#4|..|--- .... ....|--- .... ....|D#3 2CEF ....
....|..|--- .... ....|--- .... ....|--- .... ....
....|..|--- .... ....|--- .... ....|--- .... ....
....|..|--- .... ....|--- .... ....|--- .... ....
 D#4|..|--- .... ....|--- .... ....|D#3 2CEF ....
....|..|--- .... ....|--- .... ....|--- .... ....
....|..|--- .... ....|--- .... ....|D#3 2FEA ....
....|..|--- .... ....|--- .... ....|--- .... ....
 D#4|..|--- .... ....|--- .... ....|D#3 2CEF ....
....|..|--- .... ....|--- .... ....|--- .... ....
....|..|--- .... ....|--- .... ....|D#3 2FEA ....
....|..|--- .... ....|--- .... ....|--- .... ....
 D#4|..|--- .... ....|--- .... ....|D#3 2CEF ....
....|..|--- .... ....|--- .... ....|--- .... ....
....|..|--- .... ....|--- .... ....|D#3 2FEA ....
....|..|--- .... ....|--- .... ....|--- .... ....
 F#4|..|--- .... ....|--- .... ....|F#3 2CEF ....
....|..|--- .... ....|--- .... ....|--- .... ....
....|..|--- .... ....|--- .... ....|D#3 2FEA ....
....|..|--- .... ....|--- .... ....|--- .... ....
 D#4|..|--- .... ....|--- .... ....|D#3 2CEF ....
....|..|--- .... ....|--- .... ....|--- .... ....
....|..|--- .... ....|--- .... ....|F#3 2FEA ....
....|..|--- .... ....|--- .... ....|--- .... ....
 F#4|..|--- .... ....|--- .... ....|F#3 2CEF ....
....|..|--- .... ....|--- .... ....|--- .... ....
....|..|--- .... ....|--- .... ....|D#3 2FEA ....
....|..|--- .... ....|--- .... ....|--- .... ....
 F-4|..|--- .... ....|--- .... ....|F-3 2CEF ....
....|..|--- .... ....|--- .... ....|--- .... ....
....|..|--- .... ....|--- .... ....|F#3 2FEA ....
....|..|--- .... ....|--- .... ....|--- .... ....
 D#4|..|--- .... ....|--- .... ....|D#3 2CEF ....
....|..|--- .... ....|--- .... ....|--- .... ....
....|..|--- .... ....|--- .... ....|F-3 2FEA ....
....|..|--- .... ....|--- .... ....|--- .... ....
 F-4|..|--- .... ....|--- .... ....|F-3 2CEF ....
....|..|--- .... ....|--- .... ....|--- .... ....
....|..|--- .... ....|--- .... ....|D#3 2FEA ....
....|..|--- .... ....|--- .... ....|--- .... ....
 D-4|..|--- .... ....|--- .... ....|D-3 2CEF ....
....|..|--- .... ....|--- .... ....|--- .... ....
....|..|--- .... ....|--- .... ....|F-3 2FEA ....
....|..|--- .... ....|--- .... ....|--- .... ....
 D-4|..|--- .... ....|--- .... ....|D-3 2CEF ....
....|..|--- .... ....|--- .... ....|--- .... ....
....|..|--- .... ....|--- .... ....|D-3 2FEA ....
....|..|--- .... ....|--- .... ....|--- .... ....
 D-4|..|--- .... ....|--- .... ....|D-3 2CEF ....
....|..|--- .... ....|--- .... ....|--- .... ....
....|..|--- .... ....|--- .... ....|D-3 2FEA ....
....|..|--- .... ....|--- .... ....|--- .... ....
 D-4|..|--- .... ....|--- .... ....|D-3 2CEF ....
....|..|--- .... ....|--- .... ....|--- .... ....
....|..|--- .... ....|--- .... ....|D-3 2FEA ....
....|..|--- .... ....|--- .... ....|--- .... ....
 D-4|..|--- .... ....|--- .... ....|D-3 2CEF ....
....|..|--- .... ....|--- .... ....|--- .... ....
....|..|--- .... ....|--- .... ....|D-3 2FEA ....
....|..|--- .... ....|--- .... ....|--- .... ....
 D-4|..|--- .... ....|--- .... ....|D-3 2CEF ....
....|..|--- .... ....|--- .... ....|--- .... ....
 D-4|..|--- .... ....|--- .... ....|D-3 2CEF ....
....|..|--- .... ....|--- .... ....|--- .... ....
 D#4|..|--- .... ....|--- .... ....|D#3 2CEF ....
....|..|--- .... ....|--- .... ....|--- .... ....
....|..|--- .... ....|--- .... ....|D-3 2FEA ....
....|..|--- .... ....|--- .... ....|--- .... ....
 D#4|..|--- .... ....|--- .... ....|D#3 2CEF ....
....|..|--- .... ....|--- .... ....|--- .... ....
....|..|--- .... ....|--- .... ....|D#3 2FEA ....
....|..|--- .... ....|--- .... ....|--- .... ....
 D#4|..|--- .... ....|--- .... ....|D#3 2CEF ....
....|..|--- .... ....|--- .... ....|--- .... ....
....|..|--- .... ....|--- .... ....|D-3 2FE7 ....
....|..|--- .... ....|--- .... ....|--- .... ....
 D#4|..|--- .... ....|--- .... ....|D#3 2CEF ....
....|..|--- .... ....|--- .... ....|--- .... ....
....|..|--- .... ....|--- .... ....|D#3 2FEA ....
....|..|--- .... ....|--- .... ....|--- .... ....
 F#4|..|--- .... ....|--- .... ....|F#3 2CEF ....
....|..|--- .... ....|--- .... ....|--- .... ....
....|..|--- .... ....|--- .... ....|D#3 2FEA ....
....|..|--- .... ....|--- .... ....|--- .... ....
 D#4|..|--- .... ....|--- .... ....|D#3 2CEF ....
....|..|--- .... ....|--- .... ....|--- .... ....
....|..|--- .... ....|--- .... ....|F#3 2FEA ....
....|..|--- .... ....|--- .... ....|--- .... ....
 F#4|..|--- .... ....|--- .... ....|F#3 2CEF ....
....|..|--- .... ....|--- .... ....|--- .... ....
....|..|--- .... ....|--- .... ....|D#3 2FEA ....
....|..|--- .... ....|--- .... ....|--- .... ....
 F-4|..|--- .... ....|--- .... ....|F-3 2CEF ....
....|..|--- .... ....|--- .... ....|--- .... ....
....|..|--- .... ....|--- .... ....|F#3 2FEA ....
....|..|--- .... ....|--- .... ....|--- .... ....
 D#4|..|--- .... ....|--- .... ....|D#3 2CEF ....
....|..|--- .... ....|--- .... ....|--- .... ....
....|..|--- .... ....|--- .... ....|F-3 2FEA ....
....|..|--- .... ....|--- .... ....|--- .... ....
 F-4|..|--- .... ....|--- .... ....|F-3 2CEF ....
....|..|--- .... ....|--- .... ....|--- .... ....
....|..|--- .... ....|--- .... ....|D#3 2FEA ....
....|..|--- .... ....|--- .... ....|--- .... ....
 D-4|..|--- .... ....|--- .... ....|D-3 2CEF ....
....|..|--- .... ....|--- .... ....|--- .... ....
....|..|--- .... ....|--- .... ....|F-3 2FEA ....
....|..|--- .... ....|--- .... ....|--- .... ....
 D-4|..|--- .... ....|--- .... ....|D-3 2CEF ....
....|..|--- .... ....|--- .... ....|--- .... ....
....|..|--- .... ....|--- .... ....|D-3 2FEA ....
....|..|--- .... ....|--- .... ....|--- .... ....
 D-4|..|--- .... ....|--- .... ....|D-3 2CEF ....
....|..|--- .... ....|--- .... ....|--- .... ....
....|..|--- .... ....|--- .... ....|D-3 2FEA ....
....|..|--- .... ....|--- .... ....|--- .... ....
 D-4|..|--- .... ....|--- .... ....|D-3 2CEF ....
....|..|--- .... ....|--- .... ....|--- .... ....
....|..|--- .... ....|--- .... ....|D-3 2FEA ....
....|..|--- .... ....|--- .... ....|--- .... ....
 D-4|..|--- .... ....|--- .... ....|D-3 2CEF ....
....|..|--- .... ....|--- .... ....|--- .... ....
....|..|--- .... ....|--- .... ....|D-3 2FEA ....
....|..|--- .... ....|--- .... ....|--- .... ....
 D-4|..|--- .... ....|--- .... ....|D-3 2CEF ....
....|..|--- .... ....|--- .... ....|--- .... ....
 D-4|..|--- .... ....|--- .... ....|D-3 2CEF ....
....|..|--- .... ....|--- .... ....|--- .... ....

[Pattern1]
 D#4|..|--- .... ....|--- .... ....|D#3 2CEF ....
....|..|--- .... ....|--- .... ....|--- .... ....
....|..|--- .... ....|--- .... ....|D-3 2FEA ....
....|..|--- .... ....|--- .... ....|--- .... ....
 D#4|..|--- .... ....|--- .... ....|D#3 2CEF ....
....|..|--- .... ....|--- .... ....|--- .... ....
....|..|--- .... ....|--- .... ....|D#3 2FEA ....
....|..|--- .... ....|--- .... ....|--- .... ....
 D#4|..|--- .... ....|--- .... ....|D#3 2CEF ....
....|..|--- .... ....|--- .... ....|--- .... ....
....|..|--- .... ....|--- .... ....|D-3 2FE7 ....
....|..|--- .... ....|--- .... ....|--- .... ....
 D#4|..|--- .... ....|--- .... ....|D#3 2CEF ....
....|..|--- .... ....|--- .... ....|--- .... ....
....|..|--- .... ....|--- .... ....|D#3 2FEA ....
....|..|--- .... ....|--- .... ....|--- .... ....
 F#4|..|--- .... ....|--- .... ....|F#3 2CEF ....
....|..|--- .... ....|--- .... ....|--- .... ....
....|..|--- .... ....|--- .... ....|D#3 2FEA ....
....|..|--- .... ....|--- .... ....|--- .... ....
 D#4|..|--- .... ....|--- .... ....|D#3 2CEF ....
....|..|--- .... ....|--- .... ....|--- .... ....
....|..|--- .... ....|--- .... ....|F#3 2FEA ....
....|..|--- .... ....|--- .... ....|--- .... ....
 F#4|..|--- .... ....|--- .... ....|F#3 2CEF ....
....|..|--- .... ....|--- .... ....|--- .... ....
....|..|--- .... ....|--- .... ....|D#3 2FEA ....
....|..|--- .... ....|--- .... ....|--- .... ....
 F-4|..|--- .... ....|--- .... ....|F-3 2CEF ....
....|..|--- .... ....|--- .... ....|--- .... ....
....|..|--- .... ....|--- .... ....|F#3 2FEA ....
....|..|--- .... ....|--- .... ....|--- .... ....
 D#4|..|--- .... ....|--- .... ....|D#3 2CEF ....
....|..|--- .... ....|--- .... ....|--- .... ....
....|..|--- .... ....|--- .... ....|F-3 2FEA ....
....|..|--- .... ....|--- .... ....|--- .... ....
 F-4|..|--- .... ....|--- .... ....|F-3 2CEF ....
....|..|--- .... ....|--- .... ....|--- .... ....
....|..|--- .... ....|--- .... ....|D#3 2FEA ....
....|..|--- .... ....|--- .... ....|--- .... ....
 D-4|..|--- .... ....|--- .... ....|D-3 2CEF ....
....|..|--- .... ....|--- .... ....|--- .... ....
....|..|--- .... ....|--- .... ....|F-3 2FEA ....
....|..|--- .... ....|--- .... ....|--- .... ....
 D-4|..|--- .... ....|--- .... ....|D-3 2CEF ....
....|..|--- .... ....|--- .... ....|--- .... ....
....|..|--- .... ....|--- .... ....|D-3 2FEA ....
....|..|--- .... ....|--- .... ....|--- .... ....
 D-4|..|--- .... ....|--- .... ....|D-3 2CEF ....
....|..|--- .... ....|--- .... ....|--- .... ....
....|..|--- .... ....|--- .... ....|D-3 2FEA ....
....|..|--- .... ....|--- .... ....|--- .... ....
 D-4|..|--- .... ....|--- .... ....|D-3 2CEF ....
....|..|--- .... ....|--- .... ....|--- .... ....
....|..|--- .... ....|--- .... ....|D-3 2FEA ....
....|..|--- .... ....|--- .... ....|--- .... ....
 D-4|..|--- .... ....|--- .... ....|D-3 2CEF ....
....|..|--- .... ....|--- .... ....|--- .... ....
....|..|--- .... ....|--- .... ....|D-3 2FEA ....
....|..|--- .... ....|--- .... ....|--- .... ....
 D-4|..|--- .... ....|--- .... ....|D-3 2CEF ....
....|..|--- .... ....|--- .... ....|--- .... ....
 D-4|..|--- .... ....|--- .... ....|D-3 2CEF ....
....|..|--- .... ....|--- .... ....|--- .... ....
 D#4|..|--- .... ....|--- .... ....|D#3 2CEF ....
....|..|--- .... ....|--- .... ....|--- .... ....
....|..|--- .... ....|--- .... ....|D-3 2FEA ....
....|..|--- .... ....|--- .... ....|--- .... ....
 D#4|..|--- .... ....|--- .... ....|D#3 2CEF ....
....|..|--- .... ....|--- .... ....|--- .... ....
....|..|--- .... ....|--- .... ....|D#3 2FEA ....
....|..|--- .... ....|--- .... ....|--- .... ....
 D#4|..|--- .... ....|--- .... ....|D#3 2CEF ....
....|..|--- .... ....|--- .... ....|--- .... ....
....|..|--- .... ....|--- .... ....|D-3 2FE7 ....
....|..|--- .... ....|--- .... ....|--- .... ....
 D#4|..|--- .... ....|--- .... ....|D#3 2CEF ....
....|..|--- .... ....|--- .... ....|--- .... ....
....|..|--- .... ....|--- .... ....|D#3 2FEA ....
....|..|--- .... ....|--- .... ....|--- .... ....
 F#4|..|--- .... ....|--- .... ....|F#3 2CEF ....
....|..|--- .... ....|--- .... ....|--- .... ....
....|..|--- .... ....|--- .... ....|D#3 2FEA ....
....|..|--- .... ....|--- .... ....|--- .... ....
 D#4|..|--- .... ....|--- .... ....|D#3 2CEF ....
....|..|--- .... ....|--- .... ....|--- .... ....
....|..|--- .... ....|--- .... ....|F#3 2FEA ....
....|..|--- .... ....|--- .... ....|--- .... ....
 F#4|..|--- .... ....|--- .... ....|F#3 2CEF ....
....|..|--- .... ....|--- .... ....|--- .... ....
....|..|--- .... ....|--- .... ....|D#3 2FEA ....
....|..|--- .... ....|--- .... ....|--- .... ....
 F-4|..|--- .... ....|--- .... ....|F-3 2CEF ....
....|..|--- .... ....|--- .... ....|--- .... ....
....|..|--- .... ....|--- .... ....|F#3 2FEA ....
....|..|--- .... ....|--- .... ....|--- .... ....
 D#4|..|--- .... ....|--- .... ....|D#3 2CEF ....
....|..|--- .... ....|--- .... ....|--- .... ....
....|..|--- .... ....|--- .... ....|F-3 2FEA ....
....|..|--- .... ....|--- .... ....|--- .... ....
 F-4|..|--- .... ....|--- .... ....|F-3 2CEF ....
....|..|--- .... ....|--- .... ....|--- .... ....
....|..|--- .... ....|--- .... ....|D#3 2FEA ....
....|..|--- .... ....|--- .... ....|--- .... ....
 D-4|..|C-4 AF.F ....|--- .... ....|D-3 2CEF ....
....|..|R-- .... ....|--- .... ....|--- .... ....
....|..|--- .... ....|--- .... ....|F-3 2FEA ....
....|..|--- .... ....|--- .... ....|--- .... ....
 D-4|..|--- .... ....|--- .... ....|D-3 2CEF ....
....|..|--- .... ....|--- .... ....|--- .... ....
....|..|C-5 VF.F ....|--- .... ....|D-3 2FEA ....
....|..|C-5 VF.F ....|--- .... ....|--- .... ....
 D-4|..|C-4 AF.F ....|--- .... ....|D-3 2CEF ....
....|..|R-- .... ....|--- .... ....|--- .... ....
....|..|C-4 AF.F ....|--- .... ....|D-3 2FEA ....
....|..|R-- .... ....|--- .... ....|--- .... ....
 D-4|..|C-4 AF.7 ....|--- .... ....|D-3 2CEF ....
....|..|C-5 VF.A ....|--- .... ....|--- .... ....
....|..|C-4 AF.F ....|--- .... ....|D-3 2FEA ....
....|..|R-- .... ....|--- .... ....|--- .... ....
 D-4|..|C-4 AF.A ....|--- .... ....|D-3 2CEF ....
....|..|R-- .... ....|--- .... ....|--- .... ....
....|..|C-4 AF.F ....|--- .... ....|D-3 2FEA ....
....|..|C-5 VF.7 ....|--- .... ....|--- .... ....
 D-4|..|C-4 AF.7 ....|--- .... ....|D-3 2CEF ....
....|..|R-- .... ....|--- .... ....|--- .... ....
 D-4|..|C-4 AF.F ....|--- .... ....|D-3 2CEF ....
....|..|R-- .... ....|--- .... ....|--- .... ....

[Pattern2]
 D#4|..|C-4 AF.F ....|D-2 2FFF ....|D#3 2CEF ....
....|..|R-- .... ....|R-- .... ....|--- .... ....
 D#4|..|C-4 AF.7 ....|D#2 2AFF ....|D-3 2FEA ....
....|..|R-- .... ....|R-- .... ....|--- .... ....
 D#4|..|C-4 AF.F ....|D#3 2CFF ....|D#3 2CEF ....
....|..|R-- .... ....|R-- .... ....|--- .... ....
 D#4|..|C-4 AF.7 ....|D#2 2AFF ....|D#3 2FEA ....
....|..|R-- .... ....|R-- .... ....|--- .... ....
 D#4|..|C-4 CF.F ....|D#3 2CFF ....|D#3 2CEF ....
....|..|R-- .... ....|R-- .... ....|--- .... ....
 D#4|..|C-4 AF.7 ....|D#2 2AFF ....|D-3 2FE7 ....
....|..|R-- .... ....|R-- .... ....|--- .... ....
 D#4|..|C-3 RF.F ....|D#3 2CFF ....|D#3 2CEF ....
....|..|R-- .... ....|R-- .... ....|--- .... ....
 D#4|..|C-4 AF.F ....|D#2 2AFF ....|D#3 2FEA ....
....|..|R-- .... ....|R-- .... ....|--- .... ....
 F#4|..|C-3 RF.F ....|D-2 2FFF ....|F#3 2CEF ....
....|..|R-- .... ....|R-- .... ....|--- .... ....
 D#4|..|C-4 LF.F ....|D#2 2AFF ....|D#3 2FEA ....
....|..|R-- .... ....|R-- .... ....|--- .... ....
 D#4|..|C-4 AF.F ....|D#3 2CFF ....|D#3 2CEF ....
....|..|R-- .... ....|R-- .... ....|--- .... ....
 D#4|..|C-3 RF.A ....|D#2 2AFF ....|F#3 2FEA ....
....|..|R-- .... ....|R-- .... ....|--- .... ....
 F#4|..|C-4 CF.F ....|D#2 2FFF ....|F#3 2CEF ....
....|..|R-- .... ....|R-- .... ....|--- .... ....
 D#4|..|C-4 AF.7 ....|D#2 2AFF ....|D#3 2FEA ....
....|..|R-- .... ....|R-- .... ....|--- .... ....
 F-4|..|C-3 RF.F ....|D#2 2FFF ....|F-3 2CEF ....
....|..|R-- .... ....|R-- .... ....|--- .... ....
 D#4|..|C-4 AF.F ....|D#2 2AFF ....|F#3 2FEA ....
....|..|R-- .... ....|R-- .... ....|--- .... ....
 D#4|..|C-4 AF.F ....|D-2 2FFF ....|D#3 2CEF ....
....|..|R-- .... ....|R-- .... ....|--- .... ....
 D#4|..|C-3 RF.A ....|D#2 2AFF ....|F-3 2FEA ....
....|..|R-- .... ....|R-- .... ....|--- .... ....
 F-4|..|C-4 AF.F ....|D#2 2FFF ....|F-3 2CEF ....
....|..|R-- .... ....|R-- .... ....|--- .... ....
 D#4|..|C-4 AF.A ....|D#2 2AFF ....|D#3 2FEA ....
....|..|R-- .... ....|R-- .... ....|--- .... ....
 D-4|..|C-4 CF.F ....|D#2 2FFF ....|D-3 2CEF ....
....|..|R-- .... ....|R-- .... ....|--- .... ....
 D#4|..|C-4 AF.7 ....|D#2 2AFF ....|F-3 2FEA ....
....|..|R-- .... ....|R-- .... ....|--- .... ....
 D-4|..|C-3 RF.F ....|D#2 2FFF ....|D-3 2CEF ....
....|..|R-- .... ....|R-- .... ....|--- .... ....
 D#4|..|C-4 AF.F ....|D#2 2AFF ....|D-3 2FEA ....
....|..|R-- .... ....|R-- .... ....|--- .... ....
 D-4|..|C-3 RF.F ....|D-3 2CFF ....|D-3 2CEF ....
....|..|R-- .... ....|R-- .... ....|--- .... ....
 D#4|..|C-4 LF.F ....|D#2 2AFF ....|D-3 2FEA ....
....|..|R-- .... ....|R-- .... ....|--- .... ....
 D-4|..|C-4 AF.F ....|D#2 2FFF ....|D-3 2CEF ....
....|..|R-- .... ....|R-- .... ....|--- .... ....
 D#4|..|C-3 RF.A ....|D#2 2AFF ....|D-3 2FEA ....
....|..|R-- .... ....|R-- .... ....|--- .... ....
 D-4|..|C-4 CF.F ....|D-3 2CFF ....|D-3 2CEF ....
....|..|R-- .... ....|R-- .... ....|--- .... ....
 D#4|..|C-4 AF.7 ....|D#2 2AFF ....|D-3 2FEA ....
....|..|R-- .... ....|R-- .... ....|--- .... ....
 D-4|..|C-3 RF.F ....|D#2 2FFF ....|D-3 2CEF ....
....|..|R-- .... ....|R-- .... ....|--- .... ....
 D-4|..|C-4 AF.F ....|D#2 2FFF ....|D-3 2CEF ....
....|..|R-- .... ....|R-- .... ....|--- .... ....
 D#4|..|C-4 AF.F ....|D-2 2FFF ....|D#3 2CEF ....
....|..|R-- .... ....|R-- .... ....|--- .... ....
 D#4|..|C-3 RF.A ....|D#2 2AFF ....|D-3 2FEA ....
....|..|R-- .... ....|R-- .... ....|--- .... ....
 D#4|..|C-4 AF.F ....|D#3 2CFF ....|D#3 2CEF ....
....|..|R-- .... ....|R-- .... ....|--- .... ....
 D#4|..|C-4 AF.A ....|D#2 2AFF ....|D#3 2FEA ....
....|..|R-- .... ....|R-- .... ....|--- .... ....
 D#4|..|C-4 CF.F ....|D#3 2CFF ....|D#3 2CEF ....
....|..|R-- .... ....|R-- .... ....|--- .... ....
 D#4|..|C-4 AF.7 ....|D#2 2AFF ....|D-3 2FE7 ....
....|..|R-- .... ....|R-- .... ....|--- .... ....
 D#4|..|C-3 RF.F ....|D#3 2CFF ....|D#3 2CEF ....
....|..|R-- .... ....|R-- .... ....|--- .... ....
 D#4|..|C-4 AF.F ....|D#2 2AFF ....|D#3 2FEA ....
....|..|R-- .... ....|R-- .... ....|--- .... ....
 F#4|..|C-3 RF.F ....|D-2 2FFF ....|F#3 2CEF ....
....|..|R-- .... ....|R-- .... ....|--- .... ....
 D#4|..|C-4 LF.F ....|D#2 2AFF ....|D#3 2FEA ....
....|..|R-- .... ....|R-- .... ....|--- .... ....
 D#4|..|C-4 AF.F ....|D#3 2CFF ....|D#3 2CEF ....
....|..|R-- .... ....|R-- .... ....|--- .... ....
 D#4|..|C-3 RF.A ....|D#2 2AFF ....|F#3 2FEA ....
....|..|R-- .... ....|R-- .... ....|--- .... ....
 F#4|..|C-4 CF.F ....|D#2 2FFF ....|F#3 2CEF ....
....|..|R-- .... ....|R-- .... ....|--- .... ....
 D#4|..|C-4 AF.7 ....|D#2 2AFF ....|D#3 2FEA ....
....|..|R-- .... ....|R-- .... ....|--- .... ....
 F-4|..|C-3 RF.F ....|D#2 2FFF ....|F-3 2CEF ....
....|..|R-- .... ....|R-- .... ....|--- .... ....
 D#4|..|C-4 AF.F ....|D#2 2AFF ....|F#3 2FEA ....
....|..|R-- .... ....|R-- .... ....|--- .... ....
 D#4|..|C-4 AF.F ....|D-2 2FFF ....|D#3 2CEF ....
....|..|R-- .... ....|R-- .... ....|--- .... ....
 D#4|..|C-3 RF.A ....|D#2 2AFF ....|F-3 2FEA ....
....|..|R-- .... ....|R-- .... ....|--- .... ....
 F-4|..|C-4 AF.F ....|D#2 2FFF ....|F-3 2CEF ....
....|..|R-- .... ....|R-- .... ....|--- .... ....
 D#4|..|C-4 AF.A ....|D#2 2AFF ....|D#3 2FEA ....
....|..|R-- .... ....|R-- .... ....|--- .... ....
 D-4|..|C-4 CF.F ....|D#2 2FFF ....|D-3 2CEF ....
....|..|R-- .... ....|R-- .... ....|--- .... ....
 D#4|..|C-4 AF.7 ....|D#2 2AFF ....|F-3 2FEA ....
....|..|R-- .... ....|R-- .... ....|--- .... ....
 D-4|..|C-3 RF.F ....|D#2 2FFF ....|D-3 2CEF ....
....|..|R-- .... ....|R-- .... ....|--- .... ....
 D#4|..|C-4 AF.F ....|D#2 2AFF ....|D-3 2FEA ....
....|..|R-- .... ....|R-- .... ....|--- .... ....
 D-4|..|C-3 RF.F ....|D-3 2CFF ....|D-3 2CEF ....
....|..|R-- .... ....|R-- .... ....|--- .... ....
 D#4|..|C-4 LF.F ....|D#2 2AFF ....|D-3 2FEA ....
....|..|R-- .... ....|R-- .... ....|--- .... ....
 D-4|..|C-4 AF.F ....|D#2 2FFF ....|D-3 2CEF ....
....|..|R-- .... ....|R-- .... ....|--- .... ....
 D#4|..|C-3 RF.A ....|D#2 2AFF ....|D-3 2FEA ....
....|..|R-- .... ....|R-- .... ....|--- .... ....
 D-4|..|C-4 CF.F ....|D-3 2CFF ....|D-3 2CEF ....
....|..|R-- .... ....|R-- .... ....|--- .... ....
 D#4|..|C-4 AF.7 ....|D#2 2AFF ....|D-3 2FEA ....
....|..|R-- .... ....|R-- .... ....|--- .... ....
 D-4|..|C-3 RF.F ....|D#2 2FFF ....|D-3 2CEF ....
....|..|R-- .... ....|R-- .... ....|--- .... ....
 D-4|..|C-4 AF.F ....|D#2 2FFF ....|D-3 2CEF ....
....|..|R-- .... ....|R-- .... ....|--- .... ....

[Pattern3]
 D#4|..|C-4 AF.F ....|D-2 2FFF ....|D#3 2CEF ....
....|..|R-- .... ....|R-- .... ....|--- .... ....
 D#4|..|C-3 RF.A ....|D#2 2AFF ....|D-3 2FEA ....
....|..|R-- .... ....|R-- .... ....|--- .... ....
 D#4|..|C-4 AF.F ....|D#3 2CFF ....|D#3 2CEF ....
....|..|R-- .... ....|R-- .... ....|--- .... ....
 D#4|..|C-4 AF.A ....|D#2 2AFF ....|D#3 2FEA ....
....|..|R-- .... ....|R-- .... ....|--- .... ....
 D#4|..|C-4 CF.F ....|D#3 2CFF ....|D#3 2CEF ....
....|..|R-- .... ....|R-- .... ....|--- .... ....
 D#4|..|C-4 AF.7 ....|D#2 2AFF ....|D-3 2FE7 ....
....|..|R-- .... ....|R-- .... ....|--- .... ....
 D#4|..|C-3 RF.F ....|D#3 2CFF ....|D#3 2CEF ....
....|..|R-- .... ....|R-- .... ....|--- .... ....
 D#4|..|C-4 AF.F ....|D#2 2AFF ....|D#3 2FEA ....
....|..|R-- .... ....|R-- .... ....|--- .... ....
 F#4|..|C-3 RF.F ....|D-2 2FFF ....|F#3 2CEF ....
....|..|R-- .... ....|R-- .... ....|--- .... ....
 D#4|..|C-4 LF.F ....|D#2 2AFF ....|D#3 2FEA ....
....|..|R-- .... ....|R-- .... ....|--- .... ....
 D#4|..|C-4 AF.F ....|D#3 2CFF ....|D#3 2CEF ....
....|..|R-- .... ....|R-- .... ....|--- .... ....
 D#4|..|C-3 RF.A ....|D#2 2AFF ....|F#3 2FEA ....
....|..|R-- .... ....|R-- .... ....|--- .... ....
 F#4|..|C-4 CF.F ....|D#2 2FFF ....|F#3 2CEF ....
....|..|R-- .... ....|R-- .... ....|--- .... ....
 D#4|..|C-4 AF.7 ....|D#2 2AFF ....|D#3 2FEA ....
....|..|R-- .... ....|R-- .... ....|--- .... ....
 F-4|..|C-3 RF.F ....|D#2 2FFF ....|F-3 2CEF ....
....|..|R-- .... ....|R-- .... ....|--- .... ....
 D#4|..|C-4 AF.F ....|D#2 2AFF ....|F#3 2FEA ....
....|..|R-- .... ....|R-- .... ....|--- .... ....
 D#4|..|C-4 AF.F ....|D-2 2FFF ....|D#3 2CEF ....
....|..|R-- .... ....|R-- .... ....|--- .... ....
 D#4|..|C-3 RF.A ....|D#2 2AFF ....|F-3 2FEA ....
....|..|R-- .... ....|R-- .... ....|--- .... ....
 F-4|..|C-4 AF.F ....|D#2 2FFF ....|F-3 2CEF ....
....|..|R-- .... ....|R-- .... ....|--- .... ....
 D#4|..|C-4 AF.A ....|D#2 2AFF ....|D#3 2FEA ....
....|..|R-- .... ....|R-- .... ....|--- .... ....
 D-4|..|C-4 CF.F ....|D#2 2FFF ....|D-3 2CEF ....
....|..|R-- .... ....|R-- .... ....|--- .... ....
 D#4|..|C-4 AF.7 ....|D#2 2AFF ....|F-3 2FEA ....
....|..|R-- .... ....|R-- .... ....|--- .... ....
 D-4|..|C-3 RF.F ....|D#2 2FFF ....|D-3 2CEF ....
....|..|R-- .... ....|R-- .... ....|--- .... ....
 D#4|..|C-4 AF.F ....|D#2 2AFF ....|D-3 2FEA ....
....|..|R-- .... ....|R-- .... ....|--- .... ....
 D-4|..|C-3 RF.F ....|D-3 2CFF ....|D-3 2CEF ....
....|..|R-- .... ....|R-- .... ....|--- .... ....
 D#4|..|C-4 LF.F ....|D#2 2AFF ....|D-3 2FEA ....
....|..|R-- .... ....|R-- .... ....|--- .... ....
 D-4|..|C-4 AF.F ....|D#2 2FFF ....|D-3 2CEF ....
....|..|R-- .... ....|R-- .... ....|--- .... ....
 D#4|..|C-3 RF.A ....|D#2 2AFF ....|D-3 2FEA ....
....|..|R-- .... ....|R-- .... ....|--- .... ....
 D-4|..|C-4 CF.F ....|D-3 2CFF ....|D-3 2CEF ....
....|..|R-- .... ....|R-- .... ....|--- .... ....
 D#4|..|C-4 AF.7 ....|D#2 2AFF ....|D-3 2FEA ....
....|..|R-- .... ....|R-- .... ....|--- .... ....
 D-4|..|C-3 RF.F ....|D#2 2FFF ....|D-3 2CEF ....
....|..|R-- .... ....|R-- .... ....|--- .... ....
 D-4|..|C-4 AF.F ....|D#2 2FFF ....|D-3 2CEF ....
....|..|R-- .... ....|R-- .... ....|--- .... ....
 D#4|..|C-4 AF.F ....|D-2 2FFF ....|D#3 2CEF ....
....|..|R-- .... ....|R-- .... ....|--- .... ....
 D#4|..|C-3 RF.A ....|D#2 2AFF ....|D-3 2FEA ....
....|..|R-- .... ....|R-- .... ....|--- .... ....
 D#4|..|C-4 AF.F ....|D#3 2CFF ....|D#3 2CEF ....
....|..|R-- .... ....|R-- .... ....|--- .... ....
 D#4|..|C-4 AF.A ....|D#2 2AFF ....|D#3 2FEA ....
....|..|R-- .... ....|R-- .... ....|--- .... ....
 D#4|..|C-4 CF.F ....|D#3 2CFF ....|D#3 2CEF ....
....|..|R-- .... ....|R-- .... ....|--- .... ....
 D#4|..|C-4 AF.7 ....|D#2 2AFF ....|D-3 2FE7 ....
....|..|R-- .... ....|R-- .... ....|--- .... ....
 D#4|..|C-3 RF.F ....|D#3 2CFF ....|D#3 2CEF ....
....|..|R-- .... ....|R-- .... ....|--- .... ....
 D#4|..|C-4 AF.F ....|D#2 2AFF ....|D#3 2FEA ....
....|..|R-- .... ....|R-- .... ....|--- .... ....
 F#4|..|C-3 RF.F ....|D-2 2FFF ....|F#3 2CEF ....
....|..|R-- .... ....|R-- .... ....|--- .... ....
 D#4|..|C-4 LF.F ....|D#2 2AFF ....|D#3 2FEA ....
....|..|R-- .... ....|R-- .... ....|--- .... ....
 D#4|..|C-4 AF.F ....|D#3 2CFF ....|D#3 2CEF ....
....|..|R-- .... ....|R-- .... ....|--- .... ....
 D#4|..|C-3 RF.A ....|D#2 2AFF ....|F#3 2FEA ....
....|..|R-- .... ....|R-- .... ....|--- .... ....
 F#4|..|C-4 CF.F ....|D#2 2FFF ....|F#3 2CEF ....
....|..|R-- .... ....|R-- .... ....|--- .... ....
 D#4|..|C-4 AF.7 ....|D#2 2AFF ....|D#3 2FEA ....
....|..|R-- .... ....|R-- .... ....|--- .... ....
 F-4|..|C-3 RF.F ....|D#2 2FFF ....|F-3 2CEF ....
....|..|R-- .... ....|R-- .... ....|--- .... ....
 D#4|..|C-4 AF.F ....|D#2 2AFF ....|F#3 2FEA ....
....|..|R-- .... ....|R-- .... ....|--- .... ....
 D#4|..|C-4 AF.F ....|D-2 2FFF ....|D#3 2CEF ....
....|..|R-- .... ....|R-- .... ....|--- .... ....
 D#4|..|C-3 RF.A ....|D#2 2AFF ....|F-3 2FEA ....
....|..|R-- .... ....|R-- .... ....|--- .... ....
 F-4|..|C-4 AF.F ....|D#2 2FFF ....|F-3 2CEF ....
....|..|R-- .... ....|R-- .... ....|--- .... ....
 D#4|..|C-4 AF.A ....|D#2 2AFF ....|D#3 2FEA ....
....|..|R-- .... ....|R-- .... ....|--- .... ....
 D-4|..|C-4 CF.F ....|D#2 2FFF ....|D-3 2CEF ....
....|..|R-- .... ....|R-- .... ....|--- .... ....
 D#4|..|C-4 AF.7 ....|D#2 2AFF ....|F-3 2FEA ....
....|..|R-- .... ....|R-- .... ....|--- .... ....
 D-4|..|C-3 RF.F ....|D#2 2FFF ....|D-3 2CEF ....
....|..|R-- .... ....|R-- .... ....|--- .... ....
 D#4|..|C-4 CF.A ....|D#2 2AFF ....|D-3 2FEA ....
....|..|R-- .... ....|R-- .... ....|--- .... ....
 D-4|..|C-4 AF.F ....|D-3 2CFF ....|D-3 2CEF ....
....|..|R-- .... ....|R-- .... ....|--- .... ....
 D#4|..|C-4 AF.F ....|D#2 2AFF ....|D-3 2FEA ....
....|..|R-- .... ....|R-- .... ....|--- .... ....
 D-4|..|C-3 RF.F ....|D#2 2FFF ....|D-3 2CEF ....
....|..|R-- .... ....|R-- .... ....|--- .... ....
 D#4|..|C-5 VF.F ....|D#2 2AFF ....|D-3 2FEA ....
....|..|C-5 VF.F ....|R-- .... ....|--- .... ....
 D-4|..|C-4 AF.F ....|D-3 2CFF ....|D-3 2CEF ....
....|..|R-- .... ....|R-- .... ....|--- .... ....
 D#4|..|C-4 AF.F ....|D#2 2AFF ....|D-3 2FEA ....
....|..|R-- .... ....|R-- .... ....|--- .... ....
 D-4|..|C-3 RF.F ....|D#2 2FFF ....|D-3 2CEF ....
....|..|C-5 VF.A ....|R-- .... ....|--- .... ....
 D-4|..|C-4 AF.F ....|D#2 2FFF ....|D-3 2CEF ....
....|..|R-- .... ....|R-- .... ....|--- .... ....

[Pattern4]
 D#4|..|C-4 AF.F ....|D-2 2FFF ....|D#3 2CEF ....
....|..|R-- .... ....|R-- .... ....|--- .... ....
 D#4|..|C-5 VF.7 ....|D#2 2AFF ....|D-3 2FEA ....
....|..|C-5 VF.7 ....|R-- .... ....|--- .... ....
 D#4|..|C-4 AF.F ....|D#3 2CFF ....|D#3 2CEF ....
....|..|R-- .... ....|R-- .... ....|--- .... ....
 D#4|..|C-4 AF.7 ....|D#2 2AFF ....|D#3 2FEA ....
....|..|R-- .... ....|R-- .... ....|--- .... ....
 D#4|..|C-4 CF.F ....|D#3 2CFF ....|D#3 2CEF ....
....|..|R-- .... ....|R-- .... ....|--- .... ....
 D#4|..|C-4 AF.7 ....|D#2 2AFF ....|D-3 2FE7 ....
....|..|R-- .... ....|R-- .... ....|--- .... ....
 D#4|..|C-3 RF.F ....|D#3 2CFF ....|D#3 2CEF ....
....|..|R-- .... ....|R-- .... ....|--- .... ....
 D#4|..|C-4 AF.F ....|D#2 2AFF ....|D#3 2FEA ....
....|..|R-- .... ....|R-- .... ....|--- .... ....
 F#4|..|C-3 RF.F ....|D-2 2FFF ....|F#3 2CEF ....
....|..|R-- .... ....|R-- .... ....|--- .... ....
 D#4|..|C-4 LF.F ....|D#2 2AFF ....|D#3 2FEA ....
....|..|R-- .... ....|R-- .... ....|--- .... ....
 D#4|..|C-4 AF.F ....|D#3 2CFF ....|D#3 2CEF ....
....|..|R-- .... ....|R-- .... ....|--- .... ....
 D#4|..|C-3 RF.A ....|D#2 2AFF ....|F#3 2FEA ....
....|..|R-- .... ....|R-- .... ....|--- .... ....
 F#4|..|C-4 CF.F ....|D#2 2FFF ....|F#3 2CEF ....
....|..|R-- .... ....|R-- .... ....|--- .... ....
 D#4|..|C-4 AF.7 ....|D#2 2AFF ....|D#3 2FEA ....
....|..|R-- .... ....|R-- .... ....|--- .... ....
 F-4|..|C-3 RF.F ....|D#2 2FFF ....|F-3 2CEF ....
....|..|R-- .... ....|R-- .... ....|--- .... ....
 D#4|..|C-4 AF.F ....|D#2 2AFF ....|F#3 2FEA ....
....|..|R-- .... ....|R-- .... ....|--- .... ....
 D#4|..|C-4 AF.F ....|D-2 2FFF ....|D#3 2CEF ....
....|..|R-- .... ....|R-- .... ....|--- .... ....
 D#4|..|C-3 RF.A ....|D#2 2AFF ....|F-3 2FEA ....
....|..|R-- .... ....|R-- .... ....|--- .... ....
 F-4|..|C-4 AF.F ....|D#2 2FFF ....|F-3 2CEF ....
....|..|R-- .... ....|R-- .... ....|--- .... ....
 D#4|..|C-4 AF.A ....|D#2 2AFF ....|D#3 2FEA ....
....|..|R-- .... ....|R-- .... ....|--- .... ....
 D-4|..|C-4 CF.F ....|D#2 2FFF ....|D-3 2CEF ....
....|..|R-- .... ....|R-- .... ....|--- .... ....
 D#4|..|C-4 AF.7 ....|D#2 2AFF ....|F-3 2FEA ....
....|..|R-- .... ....|R-- .... ....|--- .... ....
 D-4|..|C-3 RF.F ....|D#2 2FFF ....|D-3 2CEF ....
....|..|R-- .... ....|R-- .... ....|--- .... ....
 D#4|..|C-4 AF.F ....|D#2 2AFF ....|D-3 2FEA ....
....|..|R-- .... ....|R-- .... ....|--- .... ....
 D-4|..|C-3 RF.F ....|D-3 2CFF ....|D-3 2CEF ....
....|..|R-- .... ....|R-- .... ....|--- .... ....
 D#4|..|C-4 LF.F ....|D#2 2AFF ....|D-3 2FEA ....
....|..|R-- .... ....|R-- .... ....|--- .... ....
 D-4|..|C-4 AF.F ....|D#2 2FFF ....|D-3 2CEF ....
....|..|R-- .... ....|R-- .... ....|--- .... ....
 D#4|..|C-3 RF.A ....|D#2 2AFF ....|D-3 2FEA ....
....|..|R-- .... ....|R-- .... ....|--- .... ....
 D-4|..|C-4 CF.F ....|D-3 2CFF ....|D-3 2CEF ....
....|..|R-- .... ....|R-- .... ....|--- .... ....
 D#4|..|C-4 AF.7 ....|D#2 2AFF ....|D-3 2FEA ....
....|..|R-- .... ....|R-- .... ....|--- .... ....
 D-4|..|C-3 RF.F ....|D#2 2FFF ....|D-3 2CEF ....
....|..|R-- .... ....|R-- .... ....|--- .... ....
 D-4|..|C-4 AF.F ....|D#2 2FFF ....|D-3 2CEF ....
....|..|R-- .... ....|R-- .... ....|--- .... ....
 D#4|..|C-4 AF.F ....|D-2 2FFF ....|D#3 2CEF ....
....|..|R-- .... ....|R-- .... ....|--- .... ....
 D#4|..|C-3 RF.A ....|D#2 2AFF ....|D-3 2FEA ....
....|..|R-- .... ....|R-- .... ....|--- .... ....
 D#4|..|C-4 AF.F ....|D#3 2CFF ....|D#3 2CEF ....
....|..|R-- .... ....|R-- .... ....|--- .... ....
 D#4|..|C-4 AF.A ....|D#2 2AFF ....|D#3 2FEA ....
....|..|R-- .... ....|R-- .... ....|--- .... ....
 D#4|..|C-4 CF.F ....|D#3 2CFF ....|D#3 2CEF ....
....|..|R-- .... ....|R-- .... ....|--- .... ....
 D#4|..|C-4 AF.7 ....|D#2 2AFF ....|D-3 2FE7 ....
....|..|R-- .... ....|R-- .... ....|--- .... ....
 D#4|..|C-3 RF.F ....|D#3 2CFF ....|D#3 2CEF ....
....|..|R-- .... ....|R-- .... ....|--- .... ....
 D#4|..|C-4 AF.F ....|D#2 2AFF ....|D#3 2FEA ....
....|..|R-- .... ....|R-- .... ....|--- .... ....
 F#4|..|C-3 RF.F ....|D-2 2FFF ....|F#3 2CEF ....
....|..|R-- .... ....|R-- .... ....|--- .... ....
 D#4|..|C-4 LF.F ....|D#2 2AFF ....|D#3 2FEA ....
....|..|R-- .... ....|R-- .... ....|--- .... ....
 D#4|..|C-4 AF.F ....|D#3 2CFF ....|D#3 2CEF ....
....|..|R-- .... ....|R-- .... ....|--- .... ....
 D#4|..|C-3 RF.A ....|D#2 2AFF ....|F#3 2FEA ....
....|..|R-- .... ....|R-- .... ....|--- .... ....
 F#4|..|C-4 CF.F ....|D#2 2FFF ....|F#3 2CEF ....
....|..|R-- .... ....|R-- .... ....|--- .... ....
 D#4|..|C-4 AF.7 ....|D#2 2AFF ....|D#3 2FEA ....
....|..|R-- .... ....|R-- .... ....|--- .... ....
 F-4|..|C-3 RF.F ....|D#2 2FFF ....|F-3 2CEF ....
....|..|R-- .... ....|R-- .... ....|--- .... ....
 D#4|..|C-4 AF.F ....|D#2 2AFF ....|F#3 2FEA ....
....|..|R-- .... ....|R-- .... ....|--- .... ....
 D#4|..|C-4 AF.F ....|D-2 2FFF ....|D#3 2CEF ....
....|..|R-- .... ....|R-- .... ....|--- .... ....
 D#4|..|C-3 RF.A ....|D#2 2AFF ....|F-3 2FEA ....
....|..|R-- .... ....|R-- .... ....|--- .... ....
 F-4|..|C-4 AF.F ....|D#2 2FFF ....|F-3 2CEF ....
....|..|R-- .... ....|R-- .... ....|--- .... ....
 D#4|..|C-4 AF.A ....|D#2 2AFF ....|D#3 2FEA ....
....|..|R-- .... ....|R-- .... ....|--- .... ....
 D-4|..|C-4 CF.F ....|D#2 2FFF ....|D-3 2CEF ....
....|..|R-- .... ....|R-- .... ....|--- .... ....
 D#4|..|C-4 AF.7 ....|D#2 2AFF ....|F-3 2FEA ....
....|..|R-- .... ....|R-- .... ....|--- .... ....
 D-4|..|C-3 RF.F ....|D#2 2FFF ....|D-3 2CEF ....
....|..|R-- .... ....|R-- .... ....|--- .... ....
 D#4|..|C-4 AF.F ....|D#2 2AFF ....|D-3 2FEA ....
....|..|R-- .... ....|R-- .... ....|--- .... ....
 D-4|..|C-3 RF.F ....|D-3 2CFF ....|D-3 2CEF ....
....|..|R-- .... ....|R-- .... ....|--- .... ....
 D#4|..|C-4 LF.F ....|D#2 2AFF ....|D-3 2FEA ....
....|..|R-- .... ....|R-- .... ....|--- .... ....
 D-4|..|C-4 AF.F ....|D#2 2FFF ....|D-3 2CEF ....
....|..|R-- .... ....|R-- .... ....|--- .... ....
 D#4|..|C-3 RF.A ....|D#2 2AFF ....|D-3 2FEA ....
....|..|R-- .... ....|R-- .... ....|--- .... ....
 D-4|..|C-4 CF.F ....|D-3 2CFF ....|D-3 2CEF ....
....|..|R-- .... ....|R-- .... ....|--- .... ....
 D#4|..|C-4 AF.7 ....|D#2 2AFF ....|D-3 2FEA ....
....|..|R-- .... ....|R-- .... ....|--- .... ....
 D-4|..|C-3 RF.F ....|D#2 2FFF ....|D-3 2CEF ....
....|..|R-- .... ....|R-- .... ....|--- .... ....
 D-4|..|C-4 AF.F ....|D#2 2FFF ....|D-3 2CEF ....
....|..|R-- .... ....|R-- .... ....|--- .... ....

[Pattern7]
 D#4|..|C-4 AF.F ....|D-2 2FFF ....|D#3 2CEF ....
....|..|R-- .... ....|R-- .... ....|--- .... ....
 D#4|..|C-3 RF.A ....|D#2 2AFF ....|D-3 2FEA ....
....|..|R-- .... ....|R-- .... ....|--- .... ....
 D#4|..|C-4 AF.F ....|D#3 2CFF ....|D#3 2CEF ....
....|..|R-- .... ....|R-- .... ....|--- .... ....
 D#4|..|C-4 AF.A ....|D#2 2AFF ....|D#3 2FEA ....
....|..|R-- .... ....|R-- .... ....|--- .... ....
 D#4|..|C-4 CF.F ....|D#3 2CFF ....|D#3 2CEF ....
....|..|R-- .... ....|R-- .... ....|--- .... ....
 D#4|..|C-4 AF.7 ....|D#2 2AFF ....|D-3 2FE7 ....
....|..|R-- .... ....|R-- .... ....|--- .... ....
 D#4|..|C-3 RF.F ....|D#3 2CFF ....|D#3 2CEF ....
....|..|R-- .... ....|R-- .... ....|--- .... ....
 D#4|..|C-4 AF.F ....|D#2 2AFF ....|D#3 2FEA ....
....|..|R-- .... ....|R-- .... ....|--- .... ....
 F#4|..|C-3 RF.F ....|D-2 2FFF ....|F#3 2CEF ....
....|..|R-- .... ....|R-- .... ....|--- .... ....
 D#4|..|C-4 LF.F ....|D#2 2AFF ....|D#3 2FEA ....
....|..|R-- .... ....|R-- .... ....|--- .... ....
 D#4|..|C-4 AF.F ....|D#3 2CFF ....|D#3 2CEF ....
....|..|R-- .... ....|R-- .... ....|--- .... ....
 D#4|..|C-3 RF.A ....|D#2 2AFF ....|F#3 2FEA ....
....|..|R-- .... ....|R-- .... ....|--- .... ....
 F#4|..|C-4 CF.F ....|D#2 2FFF ....|F#3 2CEF ....
....|..|R-- .... ....|R-- .... ....|--- .... ....
 D#4|..|C-4 AF.7 ....|D#2 2AFF ....|D#3 2FEA ....
....|..|R-- .... ....|R-- .... ....|--- .... ....
 F-4|..|C-3 RF.F ....|D#2 2FFF ....|F-3 2CEF ....
....|..|R-- .... ....|R-- .... ....|--- .... ....
 D#4|..|C-4 AF.F ....|D#2 2AFF ....|F#3 2FEA ....
....|..|R-- .... ....|R-- .... ....|--- .... ....
 D#4|..|C-4 AF.F ....|D-2 2FFF ....|D#3 2CEF ....
....|..|R-- .... ....|R-- .... ....|--- .... ....
 D#4|..|C-3 RF.A ....|D#2 2AFF ....|F-3 2FEA ....
....|..|R-- .... ....|R-- .... ....|--- .... ....
 F-4|..|C-4 AF.F ....|D#2 2FFF ....|F-3 2CEF ....
....|..|R-- .... ....|R-- .... ....|--- .... ....
 D#4|..|C-4 AF.A ....|D#2 2AFF ....|D#3 2FEA ....
....|..|R-- .... ....|R-- .... ....|--- .... ....
 D-4|..|C-4 CF.F ....|D#2 2FFF ....|D-3 2CEF ....
....|..|R-- .... ....|R-- .... ....|--- .... ....
 D#4|..|C-4 AF.7 ....|D#2 2AFF ....|F-3 2FEA ....
....|..|R-- .... ....|R-- .... ....|--- .... ....
 D-4|..|C-3 RF.F ....|D#2 2FFF ....|D-3 2CEF ....
....|..|R-- .... ....|R-- .... ....|--- .... ....
 D#4|..|C-4 AF.F ....|D#2 2AFF ....|D-3 2FEA ....
....|..|R-- .... ....|R-- .... ....|--- .... ....
 D-4|..|C-3 RF.F ....|D-3 2CFF ....|D-3 2CEF ....
....|..|R-- .... ....|R-- .... ....|--- .... ....
 D#4|..|C-4 LF.F ....|D#2 2AFF ....|D-3 2FEA ....
....|..|R-- .... ....|R-- .... ....|--- .... ....
 D-4|..|C-4 AF.F ....|D#2 2FFF ....|D-3 2CEF ....
....|..|R-- .... ....|R-- .... ....|--- .... ....
 D#4|..|C-3 RF.A ....|D#2 2AFF ....|D-3 2FEA ....
....|..|R-- .... ....|R-- .... ....|--- .... ....
 D-4|..|C-4 CF.F ....|D-3 2CFF ....|D-3 2CEF ....
....|..|R-- .... ....|R-- .... ....|--- .... ....
 D#4|..|C-4 AF.7 ....|D#2 2AFF ....|D-3 2FEA ....
....|..|R-- .... ....|R-- .... ....|--- .... ....
 D-4|..|C-3 RF.F ....|D#2 2FFF ....|D-3 2CEF ....
....|..|R-- .... ....|R-- .... ....|--- .... ....
 D-4|..|C-4 AF.F ....|D#2 2FFF ....|D-3 2CEF ....
....|..|R-- .... ....|R-- .... ....|--- .... ....
 D#4|..|C-4 AF.F ....|D-2 2FFF ....|D#3 2CEF ....
....|..|R-- .... ....|R-- .... ....|--- .... ....
 D#4|..|C-3 RF.A ....|D#2 2AFF ....|D-3 2FEA ....
....|..|R-- .... ....|R-- .... ....|--- .... ....
 D#4|..|C-4 AF.F ....|D#3 2CFF ....|D#3 2CEF ....
....|..|R-- .... ....|R-- .... ....|--- .... ....
 D#4|..|C-4 AF.A ....|D#2 2AFF ....|D#3 2FEA ....
....|..|R-- .... ....|R-- .... ....|--- .... ....
 D#4|..|C-4 CF.F ....|D#3 2CFF ....|D#3 2CEF ....
....|..|R-- .... ....|R-- .... ....|--- .... ....
 D#4|..|C-4 AF.7 ....|D#2 2AFF ....|D-3 2FE7 ....
....|..|R-- .... ....|R-- .... ....|--- .... ....
 D#4|..|C-3 RF.F ....|D#3 2CFF ....|D#3 2CEF ....
....|..|R-- .... ....|R-- .... ....|--- .... ....
 D#4|..|C-4 AF.F ....|D#2 2AFF ....|D#3 2FEA ....
....|..|R-- .... ....|R-- .... ....|--- .... ....
 F#4|..|C-3 RF.F ....|D-2 2FFF ....|F#3 2CEF ....
....|..|R-- .... ....|R-- .... ....|--- .... ....
 D#4|..|C-4 LF.F ....|D#2 2AFF ....|D#3 2FEA ....
....|..|R-- .... ....|R-- .... ....|--- .... ....
 D#4|..|C-4 AF.F ....|D#3 2CFF ....|D#3 2CEF ....
....|..|R-- .... ....|R-- .... ....|--- .... ....
 D#4|..|C-3 RF.A ....|D#2 2AFF ....|F#3 2FEA ....
....|..|R-- .... ....|R-- .... ....|--- .... ....
 F#4|..|C-4 CF.F ....|D#2 2FFF ....|F#3 2CEF ....
....|..|R-- .... ....|R-- .... ....|--- .... ....
 D#4|..|C-4 AF.7 ....|D#2 2AFF ....|D#3 2FEA ....
....|..|R-- .... ....|R-- .... ....|--- .... ....
 F-4|..|C-3 RF.F ....|D#2 2FFF ....|F-3 2CEF ....
....|..|R-- .... ....|R-- .... ....|--- .... ....
 D#4|..|C-4 AF.F ....|D#2 2AFF ....|F#3 2FEA ....
....|..|R-- .... ....|R-- .... ....|--- .... ....
 D#4|..|C-4 AF.F ....|D-2 2FFF ....|D#3 2CEF ....
....|..|R-- .... ....|R-- .... ....|--- .... ....
 D#4|..|C-3 RF.A ....|D#2 2AFF ....|F-3 2FEA ....
....|..|R-- .... ....|R-- .... ....|--- .... ....
 F-4|..|C-4 AF.F ....|D#2 2FFF ....|F-3 2CEF ....
....|..|R-- .... ....|R-- .... ....|--- .... ....
 D#4|..|C-4 AF.A ....|D#2 2AFF ....|D#3 2FEA ....
....|..|R-- .... ....|R-- .... ....|--- .... ....
 D-4|..|C-4 AF.F ....|D#2 2FFF ....|D-3 2CEF ....
....|..|R-- .... ....|R-- .... ....|--- .... ....
 D#4|..|C-4 AF.7 ....|D#2 2AFF ....|F-3 2FEA ....
....|..|R-- .... ....|R-- .... ....|--- .... ....
 D-4|..|C-3 RF.F ....|D#2 2FFF ....|D-3 2CEF ....
....|..|R-- .... ....|R-- .... ....|--- .... ....
 D#4|..|C-5 VF.F ....|D#2 2AFF ....|D-3 2FEA ....
....|..|C-5 VF.F ....|R-- .... ....|--- .... ....
 D-4|..|C-4 AF.F ....|D-3 2CFF ....|D-3 2CEF ....
....|..|R-- .... ....|R-- .... ....|--- .... ....
 D#4|..|C-4 AF.F ....|D#2 2AFF ....|D-3 2FEA ....
....|..|R-- .... ....|R-- .... ....|--- .... ....
 D-4|..|C-3 RF.F ....|D#2 2FFF ....|D-3 2CEF ....
....|..|C-5 VF.A ....|R-- .... ....|--- .... ....
 D#4|..|C-4 AF.F ....|D#2 2AFF ....|D-3 2FEA ....
....|..|R-- .... ....|R-- .... ....|--- .... ....
 D-4|..|C-3 RF.F ....|D-3 2CFF ....|D-3 2CEF ....
....|..|R-- .... ....|R-- .... ....|--- .... ....
 D#4|..|C-4 AF.F ....|D#2 2AFF ....|D-3 2FEA ....
....|..|C-5 VF.7 ....|R-- .... ....|--- .... ....
 D-4|..|C-3 RF.F ....|D#2 2FFF ....|D-3 2CEF ....
....|..|R-- .... ....|R-- .... ....|--- .... ....
 D-4|..|C-4 AF.F ....|D#2 2FFF ....|D-3 2CEF ....
....|..|R-- .... ....|R-- .... ....|--- .... ....

[Pattern8]
 A#3|..|C-4 AF.F ....|A#1 2AFF ....|D-3 2FE7 ....
....|..|R-- .... ....|R-- .... ....|--- .... ....
....|..|C-4 AF.7 ....|D#2 2FF7 ....|D-3 2FEA ....
....|..|R-- .... ....|R-- .... ....|--- .... ....
 A#3|..|C-4 AF.F ....|A#1 2AFF ....|D-3 2FE7 ....
....|..|R-- .... ....|R-- .... ....|--- .... ....
....|..|C-4 AF.7 ....|D#2 2FF7 ....|R-- .... ....
....|..|R-- .... ....|R-- .... ....|--- .... ....
 A#3|..|C-4 CF.F ....|A#1 2AFF ....|D-3 2FE7 ....
....|..|R-- .... ....|R-- .... ....|--- .... ....
....|..|C-4 AF.7 ....|D#2 2FF7 ....|D-3 2FE7 ....
....|..|R-- .... ....|R-- .... ....|--- .... ....
 A#3|..|C-3 RF.F ....|A#1 2AFF ....|R-- .... ....
....|..|R-- .... ....|R-- .... ....|--- .... ....
....|..|C-4 AF.F ....|A#1 2FFA ....|--- .... ....
....|..|R-- .... ....|R-- .... ....|--- .... ....
 A#3|..|C-3 RF.F ....|A#1 2AFF ....|--- .... ....
....|..|R-- .... ....|R-- .... ....|--- .... ....
....|..|C-4 LF.F ....|A#1 2FFA ....|--- .... ....
....|..|R-- .... ....|R-- .... ....|--- .... ....
 A#3|..|C-4 AF.F ....|A#1 2AFF ....|--- .... ....
....|..|R-- .... ....|R-- .... ....|--- .... ....
....|..|C-3 RF.A ....|A#1 2FFA ....|--- .... ....
....|..|R-- .... ....|R-- .... ....|--- .... ....
 A#3|..|C-4 CF.F ....|A#1 2AFF ....|--- .... ....
....|..|R-- .... ....|R-- .... ....|--- .... ....
....|..|C-4 AF.7 ....|A#1 2FFA ....|--- .... ....
....|..|R-- .... ....|R-- .... ....|--- .... ....
 A#3|..|C-3 RF.F ....|A#1 2AFF ....|--- .... ....
....|..|R-- .... ....|R-- .... ....|--- .... ....
....|..|C-4 AF.F ....|A#1 2FFA ....|--- .... ....
....|..|R-- .... ....|R-- .... ....|--- .... ....
 A-3|..|C-4 AF.F ....|A-1 2AFF ....|--- .... ....
....|..|R-- .... ....|R-- .... ....|--- .... ....
....|..|C-3 RF.A ....|A#1 2FFA ....|--- .... ....
....|..|R-- .... ....|R-- .... ....|--- .... ....
 A-3|..|C-4 AF.F ....|A-1 2AFF ....|--- .... ....
....|..|R-- .... ....|R-- .... ....|--- .... ....
....|..|C-4 AF.A ....|A-1 2FFA ....|--- .... ....
....|..|R-- .... ....|R-- .... ....|--- .... ....
 A-3|..|C-4 CF.F ....|A-1 2AFF ....|--- .... ....
....|..|R-- .... ....|R-- .... ....|--- .... ....
....|..|C-4 AF.7 ....|A-1 2FFA ....|--- .... ....
....|..|R-- .... ....|R-- .... ....|--- .... ....
 A-3|..|C-3 RF.F ....|A-1 2AFF ....|--- .... ....
....|..|R-- .... ....|R-- .... ....|--- .... ....
....|..|C-4 AF.F ....|A-1 2FFA ....|--- .... ....
....|..|R-- .... ....|R-- .... ....|--- .... ....
 G#3|..|C-3 RF.F ....|G#1 2AFF ....|--- .... ....
....|..|R-- .... ....|R-- .... ....|--- .... ....
....|..|C-4 LF.F ....|A-1 2FFA ....|--- .... ....
....|..|R-- .... ....|R-- .... ....|--- .... ....
 G#3|..|C-4 AF.F ....|G#1 2AFF ....|--- .... ....
....|..|R-- .... ....|R-- .... ....|--- .... ....
....|..|C-3 RF.A ....|G#1 2FFA ....|--- .... ....
....|..|R-- .... ....|R-- .... ....|--- .... ....
 G#3|..|C-4 CF.F ....|G#1 2AFF ....|--- .... ....
....|..|R-- .... ....|R-- .... ....|--- .... ....
....|..|C-4 AF.7 ....|G#1 2FFA ....|--- .... ....
....|..|R-- .... ....|R-- .... ....|--- .... ....
 G#3|..|C-3 RF.F ....|G#1 2AFF ....|--- .... ....
....|..|R-- .... ....|R-- .... ....|--- .... ....
....|..|C-4 AF.F ....|G#1 2FFA ....|--- .... ....
....|..|R-- .... ....|R-- .... ....|--- .... ....
 D-4|..|C-4 AF.F ....|D-2 2AFF ....|--- .... ....
....|..|R-- .... ....|R-- .... ....|--- .... ....
 D#4|..|C-3 RF.A ....|D#2 2AFF ....|--- .... ....
....|..|R-- .... ....|R-- .... ....|--- .... ....
 D#4|..|C-4 AF.F ....|D#2 2AFF ....|--- .... ....
....|..|R-- .... ....|R-- .... ....|--- .... ....
 D#4|..|C-4 AF.A ....|D#2 2AFF ....|--- .... ....
....|..|R-- .... ....|R-- .... ....|--- .... ....
 D#4|..|C-4 CF.F ....|D#2 2AFF ....|--- .... ....
....|..|R-- .... ....|R-- .... ....|--- .... ....
 D#4|..|C-4 AF.7 ....|D#2 2AFF ....|--- .... ....
....|..|R-- .... ....|R-- .... ....|--- .... ....
 D#4|..|C-3 RF.F ....|D#2 2AFF ....|--- .... ....
....|..|R-- .... ....|R-- .... ....|--- .... ....
 D#4|..|C-4 AF.F ....|D#2 2AFF ....|--- .... ....
....|..|R-- .... ....|R-- .... ....|--- .... ....
 D-4|..|C-3 RF.F ....|D-2 2AFF ....|--- .... ....
....|..|R-- .... ....|R-- .... ....|--- .... ....
 D#4|..|C-4 LF.F ....|D#2 2AFF ....|--- .... ....
....|..|R-- .... ....|R-- .... ....|--- .... ....
 D#4|..|C-4 AF.F ....|D#2 2AFF ....|--- .... ....
....|..|R-- .... ....|R-- .... ....|--- .... ....
 D#4|..|C-3 RF.A ....|D#2 2AFF ....|--- .... ....
....|..|R-- .... ....|R-- .... ....|--- .... ....
 D#4|..|C-4 CF.F ....|D#2 2AFF ....|--- .... ....
....|..|R-- .... ....|R-- .... ....|--- .... ....
 D#4|..|C-4 AF.7 ....|D#2 2AFF ....|--- .... ....
....|..|R-- .... ....|R-- .... ....|--- .... ....
 D#4|..|C-3 RF.F ....|D#2 2AFF ....|--- .... ....
....|..|R-- .... ....|R-- .... ....|--- .... ....
 D#4|..|C-4 AF.F ....|D#2 2AFF ....|--- .... ....
....|..|R-- .... ....|R-- .... ....|--- .... ....
 D-4|..|C-4 AF.F ....|D-2 2AFF ....|--- .... ....
....|..|R-- .... ....|R-- .... ....|--- .... ....
 D#4|..|C-3 RF.A ....|D#2 2AFF ....|--- .... ....
....|..|R-- .... ....|R-- .... ....|--- .... ....
 D#4|..|C-4 AF.F ....|D#2 2AFF ....|--- .... ....
....|..|R-- .... ....|R-- .... ....|--- .... ....
 D#4|..|C-4 AF.A ....|D#2 2AFF ....|--- .... ....
....|..|R-- .... ....|R-- .... ....|--- .... ....
 D#4|..|C-4 CF.F ....|D#2 2AFF ....|--- .... ....
....|..|R-- .... ....|R-- .... ....|--- .... ....
 D#4|..|C-4 AF.7 ....|D#2 2AFF ....|--- .... ....
....|..|R-- .... ....|R-- .... ....|--- .... ....
 D#4|..|C-3 RF.F ....|D#2 2AFF ....|--- .... ....
....|..|R-- .... ....|R-- .... ....|--- .... ....
 D#4|..|C-4 AF.F ....|D#2 2AFF ....|--- .... ....
....|..|R-- .... ....|R-- .... ....|--- .... ....
 D-4|..|C-3 RF.F ....|D-2 2AFF ....|--- .... ....
....|..|R-- .... ....|R-- .... ....|--- .... ....
 D#4|..|C-4 LF.F ....|D#2 2AFF ....|--- .... ....
....|..|R-- .... ....|R-- .... ....|--- .... ....
 D#4|..|C-4 AF.F ....|D#2 2AFF ....|--- .... ....
....|..|R-- .... ....|R-- .... ....|--- .... ....
 D#4|..|C-3 RF.A ....|D#2 2AFF ....|--- .... ....
....|..|R-- .... ....|R-- .... ....|--- .... ....
 D-4|..|C-4 CF.F ....|D-2 2AFF ....|--- .... ....
....|..|R-- .... ....|R-- .... ....|--- .... ....
 D#4|..|C-4 AF.7 ....|D#2 2AFF ....|--- .... ....
....|..|R-- .... ....|R-- .... ....|--- .... ....
 D#4|..|C-3 RF.F ....|D#2 2AFF ....|--- .... ....
....|..|R-- .... ....|R-- .... ....|--- .... ....
 D#4|..|C-4 AF.F ....|D#2 2AFF ....|--- .... ....
....|..|R-- .... ....|R-- .... ....|--- .... ....

[Pattern9]
 A#3|..|C-4 AF.F ....|A#1 2AFF ....|--- .... ....
....|..|R-- .... ....|R-- .... ....|--- .... ....
....|..|C-3 RF.A ....|D#2 2FF7 ....|--- .... ....
....|..|R-- .... ....|R-- .... ....|--- .... ....
 A#3|..|C-4 AF.F ....|A#1 2AFF ....|--- .... ....
....|..|R-- .... ....|R-- .... ....|--- .... ....
....|..|C-4 AF.A ....|D#2 2FF7 ....|--- .... ....
....|..|R-- .... ....|R-- .... ....|--- .... ....
 A#3|..|C-4 CF.F ....|A#1 2AFF ....|--- .... ....
....|..|R-- .... ....|R-- .... ....|--- .... ....
....|..|C-4 AF.7 ....|D#2 2FF7 ....|--- .... ....
....|..|R-- .... ....|R-- .... ....|--- .... ....
 A#3|..|C-3 RF.F ....|A#1 2AFF ....|--- .... ....
....|..|R-- .... ....|R-- .... ....|--- .... ....
....|..|C-4 AF.F ....|A#1 2FFA ....|--- .... ....
....|..|R-- .... ....|R-- .... ....|--- .... ....
 A#3|..|C-3 RF.F ....|A#1 2AFF ....|--- .... ....
....|..|R-- .... ....|R-- .... ....|--- .... ....
....|..|C-4 LF.F ....|A#1 2FFA ....|--- .... ....
....|..|R-- .... ....|R-- .... ....|--- .... ....
 A#3|..|C-4 AF.F ....|A#1 2AFF ....|--- .... ....
....|..|R-- .... ....|R-- .... ....|--- .... ....
....|..|C-3 RF.A ....|A#1 2FFA ....|--- .... ....
....|..|R-- .... ....|R-- .... ....|--- .... ....
 A#3|..|C-4 CF.F ....|A#1 2AFF ....|--- .... ....
....|..|R-- .... ....|R-- .... ....|--- .... ....
....|..|C-4 AF.7 ....|A#1 2FFA ....|--- .... ....
....|..|R-- .... ....|R-- .... ....|--- .... ....
 A#3|..|C-3 RF.F ....|A#1 2AFF ....|--- .... ....
....|..|R-- .... ....|R-- .... ....|--- .... ....
....|..|C-4 AF.F ....|A#1 2FFA ....|--- .... ....
....|..|R-- .... ....|R-- .... ....|--- .... ....
 A-3|..|C-4 AF.F ....|A-1 2AFF ....|--- .... ....
....|..|R-- .... ....|R-- .... ....|--- .... ....
....|..|C-3 RF.A ....|A#1 2FFA ....|--- .... ....
....|..|R-- .... ....|R-- .... ....|--- .... ....
 A-3|..|C-4 AF.F ....|A-1 2AFF ....|--- .... ....
....|..|R-- .... ....|R-- .... ....|--- .... ....
....|..|C-4 AF.A ....|A-1 2FFA ....|--- .... ....
....|..|R-- .... ....|R-- .... ....|--- .... ....
 A-3|..|C-4 CF.F ....|A-1 2AFF ....|--- .... ....
....|..|R-- .... ....|R-- .... ....|--- .... ....
....|..|C-4 AF.7 ....|A-1 2FFA ....|--- .... ....
....|..|R-- .... ....|R-- .... ....|--- .... ....
 A-3|..|C-3 RF.F ....|A-1 2AFF ....|--- .... ....
....|..|R-- .... ....|R-- .... ....|--- .... ....
....|..|C-4 AF.F ....|A-1 2FFA ....|--- .... ....
....|..|R-- .... ....|R-- .... ....|--- .... ....
 G#3|..|C-3 RF.F ....|G#1 2AFF ....|--- .... ....
....|..|R-- .... ....|R-- .... ....|--- .... ....
....|..|C-4 LF.F ....|A-1 2FFA ....|--- .... ....
....|..|R-- .... ....|R-- .... ....|--- .... ....
 G#3|..|C-4 AF.F ....|G#1 2AFF ....|--- .... ....
....|..|R-- .... ....|R-- .... ....|--- .... ....
....|..|C-3 RF.A ....|G#1 2FFA ....|--- .... ....
....|..|R-- .... ....|R-- .... ....|--- .... ....
 G#3|..|C-4 CF.F ....|G#1 2AFF ....|--- .... ....
....|..|R-- .... ....|R-- .... ....|--- .... ....
....|..|C-4 AF.7 ....|G#1 2FFA ....|--- .... ....
....|..|R-- .... ....|R-- .... ....|--- .... ....
 G#3|..|C-3 RF.F ....|G#1 2AFF ....|--- .... ....
....|..|R-- .... ....|R-- .... ....|--- .... ....
....|..|C-4 AF.F ....|G#1 2FFA ....|--- .... ....
....|..|R-- .... ....|R-- .... ....|--- .... ....
 D-4|..|C-4 AF.F ....|D-2 2AFF ....|--- .... ....
....|..|R-- .... ....|R-- .... ....|--- .... ....
 D#4|..|C-3 RF.A ....|D#2 2AFF ....|--- .... ....
....|..|R-- .... ....|R-- .... ....|--- .... ....
 D#4|..|C-4 AF.F ....|D#2 2AFF ....|--- .... ....
....|..|R-- .... ....|R-- .... ....|--- .... ....
 D#4|..|C-4 AF.A ....|D#2 2AFF ....|--- .... ....
....|..|R-- .... ....|R-- .... ....|--- .... ....
 D#4|..|C-4 CF.F ....|D#2 2AFF ....|--- .... ....
....|..|R-- .... ....|R-- .... ....|--- .... ....
 D#4|..|C-4 AF.7 ....|D#2 2AFF ....|--- .... ....
....|..|R-- .... ....|R-- .... ....|--- .... ....
 D#4|..|C-3 RF.F ....|D#2 2AFF ....|--- .... ....
....|..|R-- .... ....|R-- .... ....|--- .... ....
 D#4|..|C-4 AF.F ....|D#2 2AFF ....|--- .... ....
....|..|R-- .... ....|R-- .... ....|--- .... ....
 D-4|..|C-3 RF.F ....|D-2 2AFF ....|--- .... ....
....|..|R-- .... ....|R-- .... ....|--- .... ....
 D#4|..|C-4 LF.F ....|D#2 2AFF ....|--- .... ....
....|..|R-- .... ....|R-- .... ....|--- .... ....
 D#4|..|C-4 AF.F ....|D#2 2AFF ....|--- .... ....
....|..|R-- .... ....|R-- .... ....|--- .... ....
 D#4|..|C-3 RF.A ....|D#2 2AFF ....|--- .... ....
....|..|R-- .... ....|R-- .... ....|--- .... ....
 D#4|..|C-4 CF.F ....|D#2 2AFF ....|--- .... ....
....|..|R-- .... ....|R-- .... ....|--- .... ....
 D#4|..|C-4 AF.7 ....|D#2 2AFF ....|--- .... ....
....|..|R-- .... ....|R-- .... ....|--- .... ....
 D#4|..|C-3 RF.F ....|D#2 2AFF ....|--- .... ....
....|..|R-- .... ....|R-- .... ....|--- .... ....
 D#4|..|C-4 AF.F ....|D#2 2AFF ....|--- .... ....
....|..|R-- .... ....|R-- .... ....|--- .... ....
 D-4|..|C-4 AF.F ....|D-2 2AFF ....|--- .... ....
....|..|R-- .... ....|R-- .... ....|--- .... ....
 D#4|..|C-3 RF.A ....|D#2 2AFF ....|--- .... ....
....|..|R-- .... ....|R-- .... ....|--- .... ....
 D#4|..|C-4 AF.F ....|D#2 2AFF ....|--- .... ....
....|..|R-- .... ....|R-- .... ....|--- .... ....
 D#4|..|C-4 AF.A ....|D#2 2AFF ....|--- .... ....
....|..|R-- .... ....|R-- .... ....|--- .... ....
 D#4|..|C-4 CF.F ....|D#2 2AFF ....|--- .... ....
....|..|R-- .... ....|R-- .... ....|--- .... ....
 D#4|..|C-4 AF.7 ....|D#2 2AFF ....|--- .... ....
....|..|R-- .... ....|R-- .... ....|--- .... ....
 D#4|..|C-3 RF.F ....|D#2 2AFF ....|--- .... ....
....|..|R-- .... ....|R-- .... ....|--- .... ....
 D#4|..|C-4 CF.A ....|D#2 2AFF ....|--- .... ....
....|..|R-- .... ....|R-- .... ....|--- .... ....
 D-4|..|C-4 AF.F ....|D-2 2AFF ....|--- .... ....
....|..|R-- .... ....|R-- .... ....|--- .... ....
 D#4|..|C-4 AF.F ....|D#2 2AFF ....|--- .... ....
....|..|R-- .... ....|R-- .... ....|--- .... ....
 D#4|..|C-3 RF.F ....|D#2 2AFF ....|--- .... ....
....|..|R-- .... ....|R-- .... ....|--- .... ....
 D#4|..|C-5 VF.F ....|D#2 2AFF ....|--- .... ....
....|..|C-5 VF.F ....|R-- .... ....|--- .... ....
 D-4|..|C-4 AF.F ....|D-2 2AFF ....|--- .... ....
....|..|R-- .... ....|R-- .... ....|--- .... ....
 D#4|..|C-4 AF.F ....|D#2 2AFF ....|--- .... ....
....|..|R-- .... ....|R-- .... ....|--- .... ....
 D#4|..|C-3 RF.F ....|D#2 2AFF ....|--- .... ....
....|..|C-5 VF.A ....|R-- .... ....|--- .... ....
 D#4|..|C-4 AF.F ....|D#2 2AFF ....|--- .... ....
....|..|R-- .... ....|R-- .... ....|--- .... ....

[Pattern10]
 A#3|..|C-4 AF.F ....|A#1 2AFF ....|--- .... ....
....|..|R-- .... ....|R-- .... ....|--- .... ....
....|..|C-5 VF.7 ....|D#2 2FF7 ....|--- .... ....
....|..|C-5 VF.7 ....|R-- .... ....|--- .... ....
 A#3|..|C-4 AF.F ....|A#1 2AFF ....|--- .... ....
....|..|R-- .... ....|R-- .... ....|--- .... ....
....|..|C-4 AF.7 ....|D#2 2FF7 ....|--- .... ....
....|..|R-- .... ....|R-- .... ....|--- .... ....
 A#3|..|C-4 CF.F ....|A#1 2AFF ....|--- .... ....
....|..|R-- .... ....|R-- .... ....|--- .... ....
....|..|C-4 AF.7 ....|D#2 2FF7 ....|--- .... ....
....|..|R-- .... ....|R-- .... ....|--- .... ....
 A#3|..|C-3 RF.F ....|A#1 2AFF ....|--- .... ....
....|..|R-- .... ....|R-- .... ....|--- .... ....
....|..|C-4 AF.F ....|A#1 2FFA ....|--- .... ....
....|..|R-- .... ....|R-- .... ....|--- .... ....
 A#3|..|C-3 RF.F ....|A#1 2AFF ....|--- .... ....
....|..|R-- .... ....|R-- .... ....|--- .... ....
....|..|C-4 LF.F ....|A#1 2FFA ....|--- .... ....
....|..|R-- .... ....|R-- .... ....|--- .... ....
 A#3|..|C-4 AF.F ....|A#1 2AFF ....|--- .... ....
....|..|R-- .... ....|R-- .... ....|--- .... ....
....|..|C-3 RF.A ....|A#1 2FFA ....|--- .... ....
....|..|R-- .... ....|R-- .... ....|--- .... ....
 A#3|..|C-4 CF.F ....|A#1 2AFF ....|--- .... ....
....|..|R-- .... ....|R-- .... ....|--- .... ....
....|..|C-4 AF.7 ....|A#1 2FFA ....|--- .... ....
....|..|R-- .... ....|R-- .... ....|--- .... ....
 A#3|..|C-3 RF.F ....|A#1 2AFF ....|--- .... ....
....|..|R-- .... ....|R-- .... ....|--- .... ....
....|..|C-4 AF.F ....|A#1 2FFA ....|--- .... ....
....|..|R-- .... ....|R-- .... ....|--- .... ....
 A-3|..|C-4 AF.F ....|A-1 2AFF ....|--- .... ....
....|..|R-- .... ....|R-- .... ....|--- .... ....
....|..|C-3 RF.A ....|A#1 2FFA ....|--- .... ....
....|..|R-- .... ....|R-- .... ....|--- .... ....
 A-3|..|C-4 AF.F ....|A-1 2AFF ....|--- .... ....
....|..|R-- .... ....|R-- .... ....|--- .... ....
....|..|C-4 AF.A ....|A-1 2FFA ....|--- .... ....
....|..|R-- .... ....|R-- .... ....|--- .... ....
 A-3|..|C-4 CF.F ....|A-1 2AFF ....|--- .... ....
....|..|R-- .... ....|R-- .... ....|--- .... ....
....|..|C-4 AF.7 ....|A-1 2FFA ....|--- .... ....
....|..|R-- .... ....|R-- .... ....|--- .... ....
 A-3|..|C-3 RF.F ....|A-1 2AFF ....|--- .... ....
....|..|R-- .... ....|R-- .... ....|--- .... ....
....|..|C-4 AF.F ....|A-1 2FFA ....|--- .... ....
....|..|R-- .... ....|R-- .... ....|--- .... ....
 G#3|..|C-3 RF.F ....|G#1 2AFF ....|--- .... ....
....|..|R-- .... ....|R-- .... ....|--- .... ....
....|..|C-4 LF.F ....|A-1 2FFA ....|--- .... ....
....|..|R-- .... ....|R-- .... ....|--- .... ....
 G#3|..|C-4 AF.F ....|G#1 2AFF ....|--- .... ....
....|..|R-- .... ....|R-- .... ....|--- .... ....
....|..|C-3 RF.A ....|G#1 2FFA ....|--- .... ....
....|..|R-- .... ....|R-- .... ....|--- .... ....
 G#3|..|C-4 CF.F ....|G#1 2AFF ....|--- .... ....
....|..|R-- .... ....|R-- .... ....|--- .... ....
....|..|C-4 AF.7 ....|G#1 2FFA ....|--- .... ....
....|..|R-- .... ....|R-- .... ....|--- .... ....
 G#3|..|C-3 RF.F ....|G#1 2AFF ....|--- .... ....
....|..|R-- .... ....|R-- .... ....|--- .... ....
....|..|C-4 AF.F ....|G#1 2FFA ....|--- .... ....
....|..|R-- .... ....|R-- .... ....|--- .... ....
 D-4|..|C-4 AF.F ....|D-2 2AFF ....|--- .... ....
....|..|R-- .... ....|R-- .... ....|--- .... ....
 D#4|..|C-3 RF.A ....|D#2 2AFF ....|--- .... ....
....|..|R-- .... ....|R-- .... ....|--- .... ....
 D#4|..|C-4 AF.F ....|D#2 2AFF ....|--- .... ....
....|..|R-- .... ....|R-- .... ....|--- .... ....
 D#4|..|C-4 AF.A ....|D#2 2AFF ....|--- .... ....
....|..|R-- .... ....|R-- .... ....|--- .... ....
 D#4|..|C-4 CF.F ....|D#2 2AFF ....|--- .... ....
....|..|R-- .... ....|R-- .... ....|--- .... ....
 D#4|..|C-4 AF.7 ....|D#2 2AFF ....|--- .... ....
....|..|R-- .... ....|R-- .... ....|--- .... ....
 D#4|..|C-3 RF.F ....|D#2 2AFF ....|--- .... ....
....|..|R-- .... ....|R-- .... ....|--- .... ....
 D#4|..|C-4 AF.F ....|D#2 2AFF ....|--- .... ....
....|..|R-- .... ....|R-- .... ....|--- .... ....
 D-4|..|C-3 RF.F ....|D-2 2AFF ....|--- .... ....
....|..|R-- .... ....|R-- .... ....|--- .... ....
 D#4|..|C-4 LF.F ....|D#2 2AFF ....|--- .... ....
....|..|R-- .... ....|R-- .... ....|--- .... ....
 D#4|..|C-4 AF.F ....|D#2 2AFF ....|--- .... ....
....|..|R-- .... ....|R-- .... ....|--- .... ....
 D#4|..|C-3 RF.A ....|D#2 2AFF ....|--- .... ....
....|..|R-- .... ....|R-- .... ....|--- .... ....
 D#4|..|C-4 CF.F ....|D#2 2AFF ....|--- .... ....
....|..|R-- .... ....|R-- .... ....|--- .... ....
 D#4|..|C-4 AF.7 ....|D#2 2AFF ....|--- .... ....
....|..|R-- .... ....|R-- .... ....|--- .... ....
 D#4|..|C-3 RF.F ....|D#2 2AFF ....|--- .... ....
....|..|R-- .... ....|R-- .... ....|--- .... ....
 D#4|..|C-4 AF.F ....|D#2 2AFF ....|--- .... ....
....|..|R-- .... ....|R-- .... ....|--- .... ....
 D-4|..|C-4 AF.F ....|D-2 2AFF ....|--- .... ....
....|..|R-- .... ....|R-- .... ....|--- .... ....
 D#4|..|C-3 RF.A ....|D#2 2AFF ....|--- .... ....
....|..|R-- .... ....|R-- .... ....|--- .... ....
 D#4|..|C-4 AF.F ....|D#2 2AFF ....|--- .... ....
....|..|R-- .... ....|R-- .... ....|--- .... ....
 D#4|..|C-4 AF.A ....|D#2 2AFF ....|--- .... ....
....|..|R-- .... ....|R-- .... ....|--- .... ....
 D#4|..|C-4 CF.F ....|D#2 2AFF ....|--- .... ....
....|..|R-- .... ....|R-- .... ....|--- .... ....
 D#4|..|C-4 AF.7 ....|D#2 2AFF ....|--- .... ....
....|..|R-- .... ....|R-- .... ....|--- .... ....
 D#4|..|C-3 RF.F ....|D#2 2AFF ....|--- .... ....
....|..|R-- .... ....|R-- .... ....|--- .... ....
 D#4|..|C-4 AF.F ....|D#2 2AFF ....|--- .... ....
....|..|R-- .... ....|R-- .... ....|--- .... ....
 D-4|..|C-3 RF.F ....|D-2 2AFF ....|--- .... ....
....|..|R-- .... ....|R-- .... ....|--- .... ....
 D#4|..|C-4 LF.F ....|D#2 2AFF ....|--- .... ....
....|..|R-- .... ....|R-- .... ....|--- .... ....
 D#4|..|C-4 AF.F ....|D#2 2AFF ....|--- .... ....
....|..|R-- .... ....|R-- .... ....|--- .... ....
 D#4|..|C-3 RF.A ....|D#2 2AFF ....|--- .... ....
....|..|R-- .... ....|R-- .... ....|--- .... ....
 D-4|..|C-4 CF.F ....|D-2 2AFF ....|--- .... ....
....|..|R-- .... ....|R-- .... ....|--- .... ....
 D#4|..|C-4 AF.7 ....|D#2 2AFF ....|--- .... ....
....|..|R-- .... ....|R-- .... ....|--- .... ....
 D#4|..|C-3 RF.F ....|D#2 2AFF ....|--- .... ....
....|..|R-- .... ....|R-- .... ....|--- .... ....
 D#4|..|C-4 AF.F ....|D#2 2AFF ....|--- .... ....
....|..|R-- .... ....|R-- .... ....|--- .... ....

[Pattern12]
 D-4|..|C-4 AF.F ....|D-2 2AFF ....|--- .... ....
....|..|R-- .... ....|R-- .... ....|--- .... ....
 D#4|..|C-5 VF.7 ....|D#2 2AFF ....|--- .... ....
....|..|C-5 VF.7 ....|R-- .... ....|--- .... ....
 D#4|..|C-4 AF.F ....|D#2 2AFF ....|--- .... ....
....|..|R-- .... ....|R-- .... ....|--- .... ....
 D#4|..|C-4 AF.7 ....|D#2 2AFF ....|--- .... ....
....|..|R-- .... ....|R-- .... ....|--- .... ....
 D#4|..|C-4 CF.F ....|D#2 2AFF ....|--- .... ....
....|..|R-- .... ....|R-- .... ....|--- .... ....
 D#4|..|C-4 AF.7 ....|D#2 2AFF ....|--- .... ....
....|..|R-- .... ....|R-- .... ....|--- .... ....
 D#4|..|C-3 RF.F ....|D#2 2AFF ....|--- .... ....
....|..|R-- .... ....|R-- .... ....|--- .... ....
 D#4|..|C-4 AF.F ....|D#2 2AFF ....|--- .... ....
....|..|R-- .... ....|R-- .... ....|--- .... ....
 D-4|..|C-3 RF.F ....|D-2 2AFF ....|--- .... ....
....|..|R-- .... ....|R-- .... ....|--- .... ....
 D#4|..|C-4 LF.F ....|D#2 2AFF ....|--- .... ....
....|..|R-- .... ....|R-- .... ....|--- .... ....
 D#4|..|C-4 AF.F ....|D#2 2AFF ....|--- .... ....
....|..|R-- .... ....|R-- .... ....|--- .... ....
 D#4|..|C-3 RF.A ....|D#2 2AFF ....|--- .... ....
....|..|R-- .... ....|R-- .... ....|--- .... ....
 D#4|..|C-4 CF.F ....|D#2 2AFF ....|--- .... ....
....|..|R-- .... ....|R-- .... ....|--- .... ....
 D#4|..|C-4 AF.7 ....|D#2 2AFF ....|--- .... ....
....|..|R-- .... ....|R-- .... ....|--- .... ....
 D#4|..|C-3 RF.F ....|D#2 2AFF ....|--- .... ....
....|..|R-- .... ....|R-- .... ....|--- .... ....
 D#4|..|C-4 AF.F ....|D#2 2AFF ....|--- .... ....
....|..|R-- .... ....|R-- .... ....|--- .... ....
 D-4|..|C-4 AF.F ....|D-2 2AFF ....|--- .... ....
....|..|R-- .... ....|R-- .... ....|--- .... ....
 D#4|..|C-3 RF.A ....|D#2 2AFF ....|--- .... ....
....|..|R-- .... ....|R-- .... ....|--- .... ....
 D#4|..|C-4 AF.F ....|D#2 2AFF ....|--- .... ....
....|..|R-- .... ....|R-- .... ....|--- .... ....
 D#4|..|C-4 AF.A ....|D#2 2AFF ....|--- .... ....
....|..|R-- .... ....|R-- .... ....|--- .... ....
 D#4|..|C-4 CF.F ....|D#2 2AFF ....|--- .... ....
....|..|R-- .... ....|R-- .... ....|--- .... ....
 D#4|..|C-4 AF.7 ....|D#2 2AFF ....|--- .... ....
....|..|R-- .... ....|R-- .... ....|--- .... ....
 D#4|..|C-3 RF.F ....|D#2 2AFF ....|--- .... ....
....|..|R-- .... ....|R-- .... ....|--- .... ....
 D#4|..|C-4 CF.A ....|D#2 2AFF ....|--- .... ....
....|..|R-- .... ....|R-- .... ....|--- .... ....
 D-4|..|C-4 AF.F ....|D-2 2AFF ....|--- .... ....
....|..|R-- .... ....|R-- .... ....|--- .... ....
 D#4|..|C-4 AF.F ....|D#2 2AFF ....|--- .... ....
....|..|R-- .... ....|R-- .... ....|--- .... ....
 D#4|..|C-3 RF.F ....|D#2 2AFF ....|--- .... ....
....|..|R-- .... ....|R-- .... ....|--- .... ....
 D#4|..|C-5 VF.F ....|D#2 2AFF ....|--- .... ....
....|..|C-5 VF.F ....|R-- .... ....|--- .... ....
 D-4|..|C-4 AF.F ....|D-2 2AFF ....|--- .... ....
....|..|R-- .... ....|R-- .... ....|--- .... ....
 D#4|..|C-4 AF.F ....|D#2 2AFF ....|--- .... ....
....|..|R-- .... ....|R-- .... ....|--- .... ....
 D#4|..|C-3 RF.F ....|D#2 2AFF ....|--- .... ....
....|..|C-5 VF.A ....|R-- .... ....|--- .... ....
 D#4|..|C-4 AF.F ....|D#2 2AFF ....|--- .... ....
....|..|R-- .... ....|R-- .... ....|--- .... ....
 D#4|..|C-3 RF.7 ....|D#2 2AFF ....|--- .... ....
....|..|R-- .... ....|R-- .... ....|--- .... ....
....|..|C-5 VF.7 ....|D#2 2FF7 ....|--- .... ....
....|..|C-5 VF.7 ....|R-- .... ....|--- .... ....
....|..|C-4 AF.7 ....|D-2 2FF7 ....|--- .... ....
....|..|R-- .... ....|R-- .... ....|--- .... ....
....|..|C-4 AF.7 ....|D#2 2FF7 ....|--- .... ....
....|..|R-- .... ....|R-- .... ....|--- .... ....
....|..|C-3 RF.7 ....|D#2 2FF7 ....|--- .... ....
....|..|R-- .... ....|R-- .... ....|--- .... ....
....|..|C-4 AF.7 ....|D#2 2FF7 ....|--- .... ....
....|..|R-- .... ....|R-- .... ....|--- .... ....
....|..|--- .... ....|D#2 2FF7 ....|--- .... ....
....|..|--- .... ....|--- .... ....|--- .... ....
....|..|--- .... ....|--- .... ....|--- .... ....
....|..|--- .... ....|--- .... ....|--- .... ....
....|..|--- .... ....|--- .... ....|--- .... ....
....|..|--- .... ....|--- .... ....|--- .... ....
....|..|--- .... ....|--- .... ....|--- .... ....
....|..|--- .... ....|--- .... ....|--- .... ....
....|..|--- .... ....|--- .... ....|--- .... ....
....|..|--- .... ....|--- .... ....|--- .... ....
....|..|--- .... ....|--- .... ....|--- .... ....
....|..|--- .... ....|--- .... ....|--- .... ....
....|..|--- .... ....|--- .... ....|--- .... ....
....|..|--- .... ....|--- .... ....|--- .... ....
....|..|--- .... ....|--- .... ....|--- .... ....
....|..|--- .... ....|--- .... ....|--- .... ....
....|..|--- .... ....|--- .... ....|--- .... ....
....|..|--- .... ....|--- .... ....|--- .... ....
....|..|--- .... ....|--- .... ....|--- .... ....
....|..|--- .... ....|--- .... ....|--- .... ....
....|..|--- .... ....|--- .... ....|--- .... ....
....|..|--- .... ....|--- .... ....|--- .... ....
....|..|--- .... ....|--- .... ....|--- .... ....
....|..|--- .... ....|--- .... ....|--- .... ....
....|..|--- .... ....|--- .... ....|--- .... ....
....|..|--- .... ....|--- .... ....|--- .... ....
....|..|--- .... ....|--- .... ....|--- .... ....
....|..|--- .... ....|--- .... ....|--- .... ....
....|..|--- .... ....|--- .... ....|--- .... ....
....|..|--- .... ....|--- .... ....|--- .... ....
....|..|--- .... ....|--- .... ....|--- .... ....
....|..|--- .... ....|--- .... ....|--- .... ....
....|..|--- .... ....|--- .... ....|--- .... ....
....|..|--- .... ....|--- .... ....|--- .... ....
....|..|--- .... ....|--- .... ....|--- .... ....
....|..|--- .... ....|--- .... ....|--- .... ....
....|..|--- .... ....|--- .... ....|--- .... ....
....|..|--- .... ....|--- .... ....|--- .... ....
....|..|--- .... ....|--- .... ....|--- .... ....
....|..|--- .... ....|--- .... ....|--- .... ....
....|..|--- .... ....|--- .... ....|--- .... ....
....|..|--- .... ....|--- .... ....|--- .... ....
....|..|--- .... ....|--- .... ....|--- .... ....
....|..|--- .... ....|--- .... ....|--- .... ....
....|..|--- .... ....|--- .... ....|--- .... ....
....|..|--- .... ....|--- .... ....|--- .... ....
....|..|--- .... ....|--- .... ....|--- .... ....
....|..|--- .... ....|--- .... ....|--- .... ....
....|..|--- .... ....|--- .... ....|--- .... ....
....|..|--- .... ....|--- .... ....|--- .... ....
....|..|--- .... ....|--- .... ....|--- .... ....
....|..|--- .... ....|--- .... ....|--- .... ....

[Pattern13]
....|..|--- .... ....|--- .... ....|--- .... ....
....|..|--- .... ....|--- .... ....|--- .... ....
....|..|--- .... ....|--- .... ....|--- .... ....
....|..|--- .... ....|--- .... ....|--- .... ....
....|..|--- .... ....|--- .... ....|--- .... ....
....|..|--- .... ....|--- .... ....|--- .... ....
....|..|--- .... ....|--- .... ....|--- .... ....
....|..|--- .... ....|--- .... ....|--- .... ....
....|..|--- .... ....|--- .... ....|--- .... ....
....|..|--- .... ....|--- .... ....|--- .... ....
....|..|--- .... ....|--- .... ....|--- .... ....
....|..|--- .... ....|--- .... ....|--- .... ....
....|..|--- .... ....|--- .... ....|--- .... ....
....|..|--- .... ....|--- .... ....|--- .... ....
....|..|--- .... ....|--- .... ....|--- .... ....
....|..|--- .... ....|--- .... ....|--- .... ....
....|..|--- .... ....|--- .... ....|--- .... ....
....|..|--- .... ....|--- .... ....|--- .... ....
....|..|--- .... ....|--- .... ....|--- .... ....
....|..|--- .... ....|--- .... ....|--- .... ....
....|..|--- .... ....|--- .... ....|--- .... ....
....|..|--- .... ....|--- .... ....|--- .... ....
....|..|--- .... ....|--- .... ....|--- .... ....
....|..|--- .... ....|--- .... ....|--- .... ....
....|..|--- .... ....|--- .... ....|--- .... ....
....|..|--- .... ....|--- .... ....|--- .... ....
....|..|--- .... ....|--- .... ....|--- .... ....
....|..|--- .... ....|--- .... ....|--- .... ....
....|..|--- .... ....|--- .... ....|--- .... ....
....|..|--- .... ....|--- .... ....|--- .... ....
....|..|--- .... ....|--- .... ....|--- .... ....
....|..|--- .... ....|--- .... ....|--- .... ....
....|..|--- .... ....|--- .... ....|--- .... ....
....|..|--- .... ....|--- .... ....|--- .... ....
....|..|--- .... ....|--- .... ....|--- .... ....
....|..|--- .... ....|--- .... ....|--- .... ....
....|..|--- .... ....|--- .... ....|--- .... ....
....|..|--- .... ....|--- .... ....|--- .... ....
....|..|--- .... ....|--- .... ....|--- .... ....
....|..|--- .... ....|--- .... ....|--- .... ....
....|..|--- .... ....|--- .... ....|--- .... ....
....|..|--- .... ....|--- .... ....|--- .... ....
....|..|--- .... ....|--- .... ....|--- .... ....
....|..|--- .... ....|--- .... ....|--- .... ....
....|..|--- .... ....|--- .... ....|--- .... ....
....|..|--- .... ....|--- .... ....|--- .... ....
....|..|--- .... ....|--- .... ....|--- .... ....
....|..|--- .... ....|--- .... ....|--- .... ....
....|..|--- .... ....|--- .... ....|--- .... ....
....|..|--- .... ....|--- .... ....|--- .... ....
....|..|--- .... ....|--- .... ....|--- .... ....
....|..|--- .... ....|--- .... ....|--- .... ....
....|..|--- .... ....|--- .... ....|--- .... ....
....|..|--- .... ....|--- .... ....|--- .... ....
....|..|--- .... ....|--- .... ....|--- .... ....
....|..|--- .... ....|--- .... ....|--- .... ....
....|..|--- .... ....|--- .... ....|--- .... ....
....|..|--- .... ....|--- .... ....|--- .... ....
....|..|--- .... ....|--- .... ....|--- .... ....
....|..|--- .... ....|--- .... ....|--- .... ....
....|..|--- .... ....|--- .... ....|--- .... ....
....|..|--- .... ....|--- .... ....|--- .... ....
....|..|--- .... ....|--- .... ....|--- .... ....
....|..|--- .... ....|--- .... ....|--- .... ....
....|..|--- .... ....|--- .... ....|--- .... ....
....|..|--- .... ....|--- .... ....|--- .... ....
....|..|--- .... ....|--- .... ....|--- .... ....
....|..|--- .... ....|--- .... ....|--- .... ....
....|..|--- .... ....|--- .... ....|--- .... ....
....|..|--- .... ....|--- .... ....|--- .... ....
....|..|--- .... ....|--- .... ....|--- .... ....
....|..|--- .... ....|--- .... ....|--- .... ....
....|..|--- .... ....|--- .... ....|--- .... ....
....|..|--- .... ....|--- .... ....|--- .... ....
....|..|--- .... ....|--- .... ....|--- .... ....
....|..|--- .... ....|--- .... ....|--- .... ....
....|..|--- .... ....|--- .... ....|--- .... ....
....|..|--- .... ....|--- .... ....|--- .... ....
....|..|--- .... ....|--- .... ....|--- .... ....
....|..|--- .... ....|--- .... ....|--- .... ....
....|..|--- .... ....|--- .... ....|--- .... ....
....|..|--- .... ....|--- .... ....|--- .... ....
....|..|--- .... ....|--- .... ....|--- .... ....
....|..|--- .... ....|--- .... ....|--- .... ....
....|..|--- .... ....|--- .... ....|--- .... ....
....|..|--- .... ....|--- .... ....|--- .... ....
....|..|--- .... ....|--- .... ....|--- .... ....
....|..|--- .... ....|--- .... ....|--- .... ....
....|..|--- .... ....|--- .... ....|--- .... ....
....|..|--- .... ....|--- .... ....|--- .... ....
....|..|--- .... ....|--- .... ....|--- .... ....
....|..|--- .... ....|--- .... ....|--- .... ....
....|..|--- .... ....|--- .... ....|--- .... ....
....|..|--- .... ....|--- .... ....|--- .... ....
....|..|--- .... ....|--- .... ....|--- .... ....
....|..|--- .... ....|--- .... ....|--- .... ....
....|..|--- .... ....|--- .... ....|--- .... ....
....|..|--- .... ....|--- .... ....|--- .... ....
....|..|--- .... ....|--- .... ....|--- .... ....
....|..|--- .... ....|--- .... ....|--- .... ....
....|..|--- .... ....|--- .... ....|--- .... ....
....|..|--- .... ....|--- .... ....|--- .... ....
....|..|--- .... ....|--- .... ....|--- .... ....
....|..|--- .... ....|--- .... ....|--- .... ....
....|..|--- .... ....|--- .... ....|--- .... ....
....|..|--- .... ....|--- .... ....|--- .... ....
....|..|--- .... ....|--- .... ....|--- .... ....
....|..|--- .... ....|--- .... ....|--- .... ....
....|..|--- .... ....|--- .... ....|--- .... ....
....|..|--- .... ....|--- .... ....|--- .... ....
....|..|--- .... ....|--- .... ....|--- .... ....
....|..|--- .... ....|--- .... ....|--- .... ....
....|..|--- .... ....|--- .... ....|--- .... ....
....|..|--- .... ....|--- .... ....|--- .... ....
....|..|--- .... ....|--- .... ....|--- .... ....
....|..|--- .... ....|--- .... ....|--- .... ....
....|..|--- .... ....|--- .... ....|--- .... ....
....|..|--- .... ....|--- .... ....|--- .... ....
....|..|--- .... ....|--- .... ....|--- .... ....
....|..|--- .... ....|--- .... ....|--- .... ....
....|..|--- .... ....|--- .... ....|--- .... ....
....|..|--- .... ....|--- .... ....|--- .... ....
....|..|--- .... ....|--- .... ....|--- .... ....
....|..|--- .... ....|--- .... ....|--- .... ....
....|..|--- .... ....|--- .... ....|--- .... ....
....|..|--- .... ....|--- .... ....|--- .... ....
....|..|--- .... ....|--- .... ....|--- .... ....
....|..|--- .... ....|--- .... ....|--- .... ....

[Pattern14]
....|..|--- .... ....|--- .... ....|--- .... ....
....|..|--- .... ....|--- .... ....|--- .... ....
....|..|--- .... ....|--- .... ....|--- .... ....
....|..|--- .... ....|--- .... ....|--- .... ....
....|..|--- .... ....|--- .... ....|--- .... ....
....|..|--- .... ....|--- .... ....|--- .... ....
....|..|--- .... ....|--- .... ....|--- .... ....
....|..|--- .... ....|--- .... ....|--- .... ....
....|..|--- .... ....|--- .... ....|--- .... ....
....|..|--- .... ....|--- .... ....|--- .... ....
....|..|--- .... ....|--- .... ....|--- .... ....
....|..|--- .... ....|--- .... ....|--- .... ....
....|..|--- .... ....|--- .... ....|--- .... ....
....|..|--- .... ....|--- .... ....|--- .... ....
....|..|--- .... ....|--- .... ....|--- .... ....
....|..|--- .... ....|--- .... ....|--- .... ....
....|..|--- .... ....|--- .... ....|--- .... ....
....|..|--- .... ....|--- .... ....|--- .... ....
....|..|--- .... ....|--- .... ....|--- .... ....
....|..|--- .... ....|--- .... ....|--- .... ....
....|..|--- .... ....|--- .... ....|--- .... ....
....|..|--- .... ....|--- .... ....|--- .... ....
....|..|--- .... ....|--- .... ....|--- .... ....
....|..|--- .... ....|--- .... ....|--- .... ....
....|..|--- .... ....|--- .... ....|--- .... ....
....|..|--- .... ....|--- .... ....|--- .... ....
....|..|--- .... ....|--- .... ....|--- .... ....
....|..|--- .... ....|--- .... ....|--- .... ....
....|..|--- .... ....|--- .... ....|--- .... ....
....|..|--- .... ....|--- .... ....|--- .... ....
....|..|--- .... ....|--- .... ....|--- .... ....
....|..|--- .... ....|--- .... ....|--- .... ....
....|..|--- .... ....|--- .... ....|--- .... ....
....|..|--- .... ....|--- .... ....|--- .... ....
....|..|--- .... ....|--- .... ....|--- .... ....
....|..|--- .... ....|--- .... ....|--- .... ....
....|..|--- .... ....|--- .... ....|--- .... ....
....|..|--- .... ....|--- .... ....|--- .... ....
....|..|--- .... ....|--- .... ....|--- .... ....
....|..|--- .... ....|--- .... ....|--- .... ....
....|..|C-4 AF.F ....|--- .... ....|--- .... ....
....|..|R-- .... ....|--- .... ....|--- .... ....
....|..|--- .... ....|--- .... ....|--- .... ....
....|..|--- .... ....|--- .... ....|--- .... ....
....|..|--- .... ....|--- .... ....|--- .... ....
....|..|--- .... ....|--- .... ....|--- .... ....
....|..|C-5 VF.F ....|--- .... ....|--- .... ....
....|..|C-5 VF.F ....|--- .... ....|--- .... ....
....|..|C-4 AF.F ....|--- .... ....|--- .... ....
....|..|R-- .... ....|--- .... ....|--- .... ....
....|..|C-4 AF.F ....|--- .... ....|--- .... ....
....|..|R-- .... ....|--- .... ....|--- .... ....
....|..|C-4 AF.7 ....|--- .... ....|--- .... ....
....|..|C-5 VF.A ....|--- .... ....|--- .... ....
....|..|C-4 AF.F ....|--- .... ....|--- .... ....
....|..|R-- .... ....|--- .... ....|--- .... ....
....|..|C-4 AF.A ....|--- .... ....|--- .... ....
....|..|R-- .... ....|--- .... ....|--- .... ....
....|..|C-4 AF.F ....|--- .... ....|--- .... ....
....|..|C-5 VF.7 ....|--- .... ....|--- .... ....
....|..|C-4 AF.7 ....|--- .... ....|--- .... ....
....|..|R-- .... ....|--- .... ....|--- .... ....
....|..|C-4 AF.F ....|--- .... ....|--- .... ....
....|..|R-- .... ....|--- .... ....|--- .... ....
 D-4|..|C-4 AF.F ....|D-2 2AFF ....|--- .... ....
....|..|R-- .... ....|R-- .... ....|--- .... ....
 D#4|..|C-4 AF.7 ....|D#2 2AFF ....|--- .... ....
....|..|R-- .... ....|R-- .... ....|--- .... ....
 D#4|..|C-4 AF.F ....|D#2 2AFF ....|--- .... ....
....|..|R-- .... ....|R-- .... ....|--- .... ....
 D#4|..|C-4 AF.7 ....|D#2 2AFF ....|--- .... ....
....|..|R-- .... ....|R-- .... ....|--- .... ....
 D#4|..|C-4 CF.F ....|D#2 2AFF ....|--- .... ....
....|..|R-- .... ....|R-- .... ....|--- .... ....
 D#4|..|C-4 AF.7 ....|D#2 2AFF ....|--- .... ....
....|..|R-- .... ....|R-- .... ....|--- .... ....
 D#4|..|C-3 RF.F ....|D#2 2AFF ....|--- .... ....
....|..|R-- .... ....|R-- .... ....|--- .... ....
 D#4|..|C-4 AF.F ....|D#2 2AFF ....|--- .... ....
....|..|R-- .... ....|R-- .... ....|--- .... ....
 D-4|..|C-3 RF.F ....|D-2 2AFF ....|--- .... ....
....|..|R-- .... ....|R-- .... ....|--- .... ....
 D#4|..|C-4 LF.F ....|D#2 2AFF ....|--- .... ....
....|..|R-- .... ....|R-- .... ....|--- .... ....
 D#4|..|C-4 AF.F ....|D#2 2AFF ....|--- .... ....
....|..|R-- .... ....|R-- .... ....|--- .... ....
 D#4|..|C-3 RF.A ....|D#2 2AFF ....|--- .... ....
....|..|R-- .... ....|R-- .... ....|--- .... ....
 D#4|..|C-4 CF.F ....|D#2 2AFF ....|--- .... ....
....|..|R-- .... ....|R-- .... ....|--- .... ....
 D#4|..|C-4 AF.7 ....|D#2 2AFF ....|--- .... ....
....|..|R-- .... ....|R-- .... ....|--- .... ....
 D#4|..|C-3 RF.F ....|D#2 2AFF ....|--- .... ....
....|..|R-- .... ....|R-- .... ....|--- .... ....
 D#4|..|C-4 AF.F ....|D#2 2AFF ....|--- .... ....
....|..|R-- .... ....|R-- .... ....|--- .... ....
 D-4|..|C-4 AF.F ....|D-2 2AFF ....|--- .... ....
....|..|R-- .... ....|R-- .... ....|--- .... ....
 D#4|..|C-3 RF.A ....|D#2 2AFF ....|--- .... ....
....|..|R-- .... ....|R-- .... ....|--- .... ....
 D#4|..|C-4 AF.F ....|D#2 2AFF ....|--- .... ....
....|..|R-- .... ....|R-- .... ....|--- .... ....
 D#4|..|C-4 AF.A ....|D#2 2AFF ....|--- .... ....
....|..|R-- .... ....|R-- .... ....|--- .... ....
 D#4|..|C-4 CF.F ....|D#2 2AFF ....|--- .... ....
....|..|R-- .... ....|R-- .... ....|--- .... ....
 D#4|..|C-4 AF.7 ....|D#2 2AFF ....|--- .... ....
....|..|R-- .... ....|R-- .... ....|--- .... ....
 D#4|..|C-3 RF.F ....|D#2 2AFF ....|--- .... ....
....|..|R-- .... ....|R-- .... ....|--- .... ....
 D#4|..|C-4 AF.F ....|D#2 2AFF ....|--- .... ....
....|..|R-- .... ....|R-- .... ....|--- .... ....
 D-4|..|C-3 RF.F ....|D-2 2AFF ....|--- .... ....
....|..|R-- .... ....|R-- .... ....|--- .... ....
 D#4|..|C-4 LF.F ....|D#2 2AFF ....|--- .... ....
....|..|R-- .... ....|R-- .... ....|--- .... ....
 D#4|..|C-4 AF.F ....|D#2 2AFF ....|--- .... ....
....|..|R-- .... ....|R-- .... ....|--- .... ....
 D#4|..|C-3 RF.A ....|D#2 2AFF ....|--- .... ....
....|..|R-- .... ....|R-- .... ....|--- .... ....
 D-4|..|C-4 CF.F ....|D-2 2AFF ....|--- .... ....
....|..|R-- .... ....|R-- .... ....|--- .... ....
 D#4|..|C-4 AF.7 ....|D#2 2AFF ....|--- .... ....
....|..|R-- .... ....|R-- .... ....|--- .... ....
 D#4|..|C-3 RF.F ....|D#2 2AFF ....|--- .... ....
....|..|R-- .... ....|R-- .... ....|--- .... ....
 D#4|..|C-4 AF.F ....|D#2 2AFF ....|--- .... ....
....|..|R-- .... ....|R-- .... ....|--- .... ....

[Pattern15]
 D-4|..|C-4 AF.F ....|D-2 2AFF ....|--- .... ....
....|..|R-- .... ....|R-- .... ....|--- .... ....
 D#4|..|C-3 RF.A ....|D#2 2AFF ....|--- .... ....
....|..|R-- .... ....|R-- .... ....|--- .... ....
 D#4|..|C-4 AF.F ....|D#2 2AFF ....|--- .... ....
....|..|R-- .... ....|R-- .... ....|--- .... ....
 D#4|..|C-4 AF.A ....|D#2 2AFF ....|--- .... ....
....|..|R-- .... ....|R-- .... ....|--- .... ....
 D#4|..|C-4 CF.F ....|D#2 2AFF ....|--- .... ....
....|..|R-- .... ....|R-- .... ....|--- .... ....
 D#4|..|C-4 AF.7 ....|D#2 2AFF ....|--- .... ....
....|..|R-- .... ....|R-- .... ....|--- .... ....
 D#4|..|C-3 RF.F ....|D#2 2AFF ....|--- .... ....
....|..|R-- .... ....|R-- .... ....|--- .... ....
 D#4|..|C-4 AF.F ....|D#2 2AFF ....|--- .... ....
....|..|R-- .... ....|R-- .... ....|--- .... ....
 D-4|..|C-3 RF.F ....|D-2 2AFF ....|--- .... ....
....|..|R-- .... ....|R-- .... ....|--- .... ....
 D#4|..|C-4 LF.F ....|D#2 2AFF ....|--- .... ....
....|..|R-- .... ....|R-- .... ....|--- .... ....
 D#4|..|C-4 AF.F ....|D#2 2AFF ....|--- .... ....
....|..|R-- .... ....|R-- .... ....|--- .... ....
 D#4|..|C-3 RF.A ....|D#2 2AFF ....|--- .... ....
....|..|R-- .... ....|R-- .... ....|--- .... ....
 D#4|..|C-4 CF.F ....|D#2 2AFF ....|--- .... ....
....|..|R-- .... ....|R-- .... ....|--- .... ....
 D#4|..|C-4 AF.7 ....|D#2 2AFF ....|--- .... ....
....|..|R-- .... ....|R-- .... ....|--- .... ....
 D#4|..|C-3 RF.F ....|D#2 2AFF ....|--- .... ....
....|..|R-- .... ....|R-- .... ....|--- .... ....
 D#4|..|C-4 AF.F ....|D#2 2AFF ....|--- .... ....
....|..|R-- .... ....|R-- .... ....|--- .... ....
 D-4|..|C-4 AF.F ....|D-2 2AFF ....|--- .... ....
....|..|R-- .... ....|R-- .... ....|--- .... ....
 D#4|..|C-3 RF.A ....|D#2 2AFF ....|--- .... ....
....|..|R-- .... ....|R-- .... ....|--- .... ....
 D#4|..|C-4 AF.F ....|D#2 2AFF ....|--- .... ....
....|..|R-- .... ....|R-- .... ....|--- .... ....
 D#4|..|C-4 AF.A ....|D#2 2AFF ....|--- .... ....
....|..|R-- .... ....|R-- .... ....|--- .... ....
 D#4|..|C-4 CF.F ....|D#2 2AFF ....|--- .... ....
....|..|R-- .... ....|R-- .... ....|--- .... ....
 D#4|..|C-4 AF.7 ....|D#2 2AFF ....|--- .... ....
....|..|R-- .... ....|R-- .... ....|--- .... ....
 D#4|..|C-3 RF.F ....|D#2 2AFF ....|--- .... ....
....|..|R-- .... ....|R-- .... ....|--- .... ....
 D#4|..|C-4 AF.F ....|D#2 2AFF ....|--- .... ....
....|..|R-- .... ....|R-- .... ....|--- .... ....
 D-4|..|C-3 RF.F ....|D-2 2AFF ....|--- .... ....
....|..|R-- .... ....|R-- .... ....|--- .... ....
 D#4|..|C-4 LF.F ....|D#2 2AFF ....|--- .... ....
....|..|R-- .... ....|R-- .... ....|--- .... ....
 D#4|..|C-4 AF.F ....|D#2 2AFF ....|--- .... ....
....|..|R-- .... ....|R-- .... ....|--- .... ....
 D#4|..|C-3 RF.A ....|D#2 2AFF ....|--- .... ....
....|..|R-- .... ....|R-- .... ....|--- .... ....
 D-4|..|C-4 CF.F ....|D-2 2AFF ....|--- .... ....
....|..|R-- .... ....|R-- .... ....|--- .... ....
 D#4|..|C-4 AF.7 ....|D#2 2AFF ....|--- .... ....
....|..|R-- .... ....|R-- .... ....|--- .... ....
 D#4|..|C-3 RF.F ....|D#2 2AFF ....|--- .... ....
....|..|R-- .... ....|R-- .... ....|--- .... ....
 D#4|..|C-4 AF.F ....|D#2 2AFF ....|--- .... ....
....|..|R-- .... ....|R-- .... ....|--- .... ....
 D-4|..|C-4 AF.F ....|D-2 2AFF ....|--- .... ....
....|..|R-- .... ....|R-- .... ....|--- .... ....
 D#4|..|C-3 RF.A ....|D#2 2AFF ....|--- .... ....
....|..|R-- .... ....|R-- .... ....|--- .... ....
 D#4|..|C-4 AF.F ....|D#2 2AFF ....|--- .... ....
....|..|R-- .... ....|R-- .... ....|--- .... ....
 D#4|..|C-4 AF.A ....|D#2 2AFF ....|--- .... ....
....|..|R-- .... ....|R-- .... ....|--- .... ....
 D#4|..|C-4 CF.F ....|D#2 2AFF ....|--- .... ....
....|..|R-- .... ....|R-- .... ....|--- .... ....
 D#4|..|C-4 AF.7 ....|D#2 2AFF ....|--- .... ....
....|..|R-- .... ....|R-- .... ....|--- .... ....
 D#4|..|C-3 RF.F ....|D#2 2AFF ....|--- .... ....
....|..|R-- .... ....|R-- .... ....|--- .... ....
 D#4|..|C-4 AF.F ....|D#2 2AFF ....|--- .... ....
....|..|R-- .... ....|R-- .... ....|--- .... ....
 D-4|..|C-3 RF.F ....|D-2 2AFF ....|--- .... ....
....|..|R-- .... ....|R-- .... ....|--- .... ....
 D#4|..|C-4 LF.F ....|D#2 2AFF ....|--- .... ....
....|..|R-- .... ....|R-- .... ....|--- .... ....
 D#4|..|C-4 AF.F ....|D#2 2AFF ....|--- .... ....
....|..|R-- .... ....|R-- .... ....|--- .... ....
 D#4|..|C-3 RF.A ....|D#2 2AFF ....|--- .... ....
....|..|R-- .... ....|R-- .... ....|--- .... ....
 D#4|..|C-4 CF.F ....|D#2 2AFF ....|--- .... ....
....|..|R-- .... ....|R-- .... ....|--- .... ....
 D#4|..|C-4 AF.7 ....|D#2 2AFF ....|--- .... ....
....|..|R-- .... ....|R-- .... ....|--- .... ....
 D#4|..|C-3 RF.F ....|D#2 2AFF ....|--- .... ....
....|..|R-- .... ....|R-- .... ....|--- .... ....
 D#4|..|C-4 AF.F ....|D#2 2AFF ....|--- .... ....
....|..|R-- .... ....|R-- .... ....|--- .... ....
 D-4|..|C-4 AF.F ....|D-2 2AFF ....|--- .... ....
....|..|R-- .... ....|R-- .... ....|--- .... ....
 D#4|..|C-3 RF.A ....|D#2 2AFF ....|--- .... ....
....|..|R-- .... ....|R-- .... ....|--- .... ....
 D#4|..|C-4 AF.F ....|D#2 2AFF ....|--- .... ....
....|..|R-- .... ....|R-- .... ....|--- .... ....
 D#4|..|C-4 AF.A ....|D#2 2AFF ....|--- .... ....
....|..|R-- .... ....|R-- .... ....|--- .... ....
 D#4|..|C-4 CF.F ....|D#2 2AFF ....|--- .... ....
....|..|R-- .... ....|R-- .... ....|--- .... ....
 D#4|..|C-4 AF.7 ....|D#2 2AFF ....|--- .... ....
....|..|R-- .... ....|R-- .... ....|--- .... ....
 D#4|..|C-3 RF.F ....|D#2 2AFF ....|--- .... ....
....|..|R-- .... ....|R-- .... ....|--- .... ....
 D#4|..|C-4 AF.F ....|D#2 2AFF ....|--- .... ....
....|..|R-- .... ....|R-- .... ....|--- .... ....
 D-4|..|C-3 RF.F ....|D-2 2AFF ....|--- .... ....
....|..|R-- .... ....|R-- .... ....|--- .... ....
 D#4|..|C-4 LF.F ....|D#2 2AFF ....|--- .... ....
....|..|R-- .... ....|R-- .... ....|--- .... ....
 D#4|..|C-4 AF.F ....|D#2 2AFF ....|--- .... ....
....|..|R-- .... ....|R-- .... ....|--- .... ....
 D#4|..|C-3 RF.A ....|D#2 2AFF ....|--- .... ....
....|..|R-- .... ....|R-- .... ....|--- .... ....
 D-4|..|C-4 CF.F ....|D-2 2AFF ....|--- .... ....
....|..|R-- .... ....|R-- .... ....|--- .... ....
 D#4|..|C-4 AF.7 ....|D#2 2AFF ....|--- .... ....
....|..|R-- .... ....|R-- .... ....|--- .... ....
 D#4|..|C-3 RF.F ....|D#2 2AFF ....|--- .... ....
....|..|R-- .... ....|R-- .... ....|--- .... ....
 D#4|..|C-4 AF.F ....|D#2 2AFF ....|--- .... ....
....|..|R-- .... ....|R-- .... ....|--- .... ....

[Pattern16]
 D-4|..|C-4 AF.F ....|D-2 2AFF ....|--- .... ....
....|..|R-- .... ....|R-- .... ....|--- .... ....
 D#4|..|C-3 RF.A ....|D#2 2AFF ....|--- .... ....
....|..|R-- .... ....|R-- .... ....|--- .... ....
 D#4|..|C-4 AF.F ....|D#2 2AFF ....|--- .... ....
....|..|R-- .... ....|R-- .... ....|--- .... ....
 D#4|..|C-4 AF.A ....|D#2 2AFF ....|--- .... ....
....|..|R-- .... ....|R-- .... ....|--- .... ....
 D#4|..|C-4 CF.F ....|D#2 2AFF ....|--- .... ....
....|..|R-- .... ....|R-- .... ....|--- .... ....
 D#4|..|C-4 AF.7 ....|D#2 2AFF ....|--- .... ....
....|..|R-- .... ....|R-- .... ....|--- .... ....
 D#4|..|C-3 RF.F ....|D#2 2AFF ....|--- .... ....
....|..|R-- .... ....|R-- .... ....|--- .... ....
 D#4|..|C-4 AF.F ....|D#2 2AFF ....|--- .... ....
....|..|R-- .... ....|R-- .... ....|--- .... ....
 D-4|..|C-3 RF.F ....|D-2 2AFF ....|--- .... ....
....|..|R-- .... ....|R-- .... ....|--- .... ....
 D#4|..|C-4 LF.F ....|D#2 2AFF ....|--- .... ....
....|..|R-- .... ....|R-- .... ....|--- .... ....
 D#4|..|C-4 AF.F ....|D#2 2AFF ....|--- .... ....
....|..|R-- .... ....|R-- .... ....|--- .... ....
 D#4|..|C-3 RF.A ....|D#2 2AFF ....|--- .... ....
....|..|R-- .... ....|R-- .... ....|--- .... ....
 D#4|..|C-4 CF.F ....|D#2 2AFF ....|--- .... ....
....|..|R-- .... ....|R-- .... ....|--- .... ....
 D#4|..|C-4 AF.7 ....|D#2 2AFF ....|--- .... ....
....|..|R-- .... ....|R-- .... ....|--- .... ....
 D#4|..|C-3 RF.F ....|D#2 2AFF ....|--- .... ....
....|..|R-- .... ....|R-- .... ....|--- .... ....
 D#4|..|C-4 AF.F ....|D#2 2AFF ....|--- .... ....
....|..|R-- .... ....|R-- .... ....|--- .... ....
 D-4|..|C-4 AF.F ....|D-2 2AFF ....|--- .... ....
....|..|R-- .... ....|R-- .... ....|--- .... ....
 D#4|..|C-3 RF.A ....|D#2 2AFF ....|--- .... ....
....|..|R-- .... ....|R-- .... ....|--- .... ....
 D#4|..|C-4 AF.F ....|D#2 2AFF ....|--- .... ....
....|..|R-- .... ....|R-- .... ....|--- .... ....
 D#4|..|C-4 AF.A ....|D#2 2AFF ....|--- .... ....
....|..|R-- .... ....|R-- .... ....|--- .... ....
 D#4|..|C-4 CF.F ....|D#2 2AFF ....|--- .... ....
....|..|R-- .... ....|R-- .... ....|--- .... ....
 D#4|..|C-4 AF.7 ....|D#2 2AFF ....|--- .... ....
....|..|R-- .... ....|R-- .... ....|--- .... ....
 D#4|..|C-3 RF.F ....|D#2 2AFF ....|--- .... ....
....|..|R-- .... ....|R-- .... ....|--- .... ....
 D#4|..|C-4 CF.A ....|D#2 2AFF ....|--- .... ....
....|..|R-- .... ....|R-- .... ....|--- .... ....
 D-4|..|C-4 AF.F ....|D-2 2AFF ....|--- .... ....
....|..|R-- .... ....|R-- .... ....|--- .... ....
 D#4|..|C-4 AF.F ....|D#2 2AFF ....|--- .... ....
....|..|R-- .... ....|R-- .... ....|--- .... ....
 D#4|..|C-3 RF.F ....|D#2 2AFF ....|--- .... ....
....|..|R-- .... ....|R-- .... ....|--- .... ....
 D#4|..|C-5 VF.F ....|D#2 2AFF ....|--- .... ....
....|..|C-5 VF.F ....|R-- .... ....|--- .... ....
 D-4|..|C-4 AF.F ....|D-2 2AFF ....|--- .... ....
....|..|R-- .... ....|R-- .... ....|--- .... ....
 D#4|..|C-4 AF.F ....|D#2 2AFF ....|--- .... ....
....|..|R-- .... ....|R-- .... ....|--- .... ....
 D#4|..|C-3 RF.F ....|D#2 2AFF ....|--- .... ....
....|..|C-5 VF.A ....|R-- .... ....|--- .... ....
 D#4|..|C-4 AF.F ....|D#2 2AFF ....|--- .... ....
....|..|R-- .... ....|R-- .... ....|--- .... ....
 A#3|..|C-4 AF.F ....|A#1 2AFF ....|--- .... ....
....|..|R-- .... ....|R-- .... ....|--- .... ....
....|..|C-5 VF.7 ....|D#2 2FF7 ....|--- .... ....
....|..|C-5 VF.7 ....|R-- .... ....|--- .... ....
 A#3|..|C-4 AF.F ....|A#1 2AFF ....|--- .... ....
....|..|R-- .... ....|R-- .... ....|--- .... ....
....|..|C-4 AF.7 ....|D#2 2FF7 ....|--- .... ....
....|..|R-- .... ....|R-- .... ....|--- .... ....
 A#3|..|C-4 CF.F ....|A#1 2AFF ....|--- .... ....
....|..|R-- .... ....|R-- .... ....|--- .... ....
....|..|C-4 AF.7 ....|D#2 2FF7 ....|--- .... ....
....|..|R-- .... ....|R-- .... ....|--- .... ....
 A#3|..|C-3 RF.F ....|A#1 2AFF ....|--- .... ....
....|..|R-- .... ....|R-- .... ....|--- .... ....
....|..|C-4 AF.F ....|A#1 2FFA ....|--- .... ....
....|..|R-- .... ....|R-- .... ....|--- .... ....
 A#3|..|C-3 RF.F ....|A#1 2AFF ....|--- .... ....
....|..|R-- .... ....|R-- .... ....|--- .... ....
....|..|C-4 LF.F ....|A#1 2FFA ....|--- .... ....
....|..|R-- .... ....|R-- .... ....|--- .... ....
 A#3|..|C-4 AF.F ....|A#1 2AFF ....|--- .... ....
....|..|R-- .... ....|R-- .... ....|--- .... ....
....|..|C-3 RF.A ....|A#1 2FFA ....|--- .... ....
....|..|R-- .... ....|R-- .... ....|--- .... ....
 A#3|..|C-4 CF.F ....|A#1 2AFF ....|--- .... ....
....|..|R-- .... ....|R-- .... ....|--- .... ....
....|..|C-4 AF.7 ....|A#1 2FFA ....|--- .... ....
....|..|R-- .... ....|R-- .... ....|--- .... ....
 A#3|..|C-3 RF.F ....|A#1 2AFF ....|--- .... ....
....|..|R-- .... ....|R-- .... ....|--- .... ....
....|..|C-4 AF.F ....|A#1 2FFA ....|--- .... ....
....|..|R-- .... ....|R-- .... ....|--- .... ....
 A-3|..|C-4 AF.F ....|A-1 2AFF ....|--- .... ....
....|..|R-- .... ....|R-- .... ....|--- .... ....
....|..|C-3 RF.A ....|A#1 2FFA ....|--- .... ....
....|..|R-- .... ....|R-- .... ....|--- .... ....
 A-3|..|C-4 AF.F ....|A-1 2AFF ....|--- .... ....
....|..|R-- .... ....|R-- .... ....|--- .... ....
....|..|C-4 AF.A ....|A-1 2FFA ....|--- .... ....
....|..|R-- .... ....|R-- .... ....|--- .... ....
 A-3|..|C-4 CF.F ....|A-1 2AFF ....|--- .... ....
....|..|R-- .... ....|R-- .... ....|--- .... ....
....|..|C-4 AF.7 ....|A-1 2FFA ....|--- .... ....
....|..|R-- .... ....|R-- .... ....|--- .... ....
 A-3|..|C-3 RF.F ....|A-1 2AFF ....|--- .... ....
....|..|R-- .... ....|R-- .... ....|--- .... ....
....|..|C-4 AF.F ....|A-1 2FFA ....|--- .... ....
....|..|R-- .... ....|R-- .... ....|--- .... ....
 G#3|..|C-3 RF.F ....|G#1 2AFF ....|--- .... ....
....|..|R-- .... ....|R-- .... ....|--- .... ....
....|..|C-4 LF.F ....|A-1 2FFA ....|--- .... ....
....|..|R-- .... ....|R-- .... ....|--- .... ....
 G#3|..|C-4 AF.F ....|G#1 2AFF ....|--- .... ....
....|..|R-- .... ....|R-- .... ....|--- .... ....
....|..|C-3 RF.A ....|G#1 2FFA ....|--- .... ....
....|..|R-- .... ....|R-- .... ....|--- .... ....
 G#3|..|C-4 CF.F ....|G#1 2AFF ....|--- .... ....
....|..|R-- .... ....|R-- .... ....|--- .... ....
....|..|C-4 AF.7 ....|G#1 2FFA ....|--- .... ....
....|..|R-- .... ....|R-- .... ....|--- .... ....
 G#3|..|C-3 RF.F ....|G#1 2AFF ....|--- .... ....
....|..|R-- .... ....|R-- .... ....|--- .... ....
....|..|C-4 AF.F ....|G#1 2FFA ....|--- .... ....
....|..|R-- .... ....|R-- .... ....|--- .... ....

[Pattern17]
 D-4|..|C-4 AF.F ....|D-2 2AFF ....|--- .... ....
....|..|R-- .... ....|R-- .... ....|--- .... ....
 D#4|..|C-3 RF.A ....|D#2 2AFF ....|--- .... ....
....|..|R-- .... ....|R-- .... ....|--- .... ....
 D#4|..|C-4 AF.F ....|D#2 2AFF ....|--- .... ....
....|..|R-- .... ....|R-- .... ....|--- .... ....
 D#4|..|C-4 AF.A ....|D#2 2AFF ....|--- .... ....
....|..|R-- .... ....|R-- .... ....|--- .... ....
 D#4|..|C-4 CF.F ....|D#2 2AFF ....|--- .... ....
....|..|R-- .... ....|R-- .... ....|--- .... ....
 D#4|..|C-4 AF.7 ....|D#2 2AFF ....|--- .... ....
....|..|R-- .... ....|R-- .... ....|--- .... ....
 D#4|..|C-3 RF.F ....|D#2 2AFF ....|--- .... ....
....|..|R-- .... ....|R-- .... ....|--- .... ....
 D#4|..|C-4 AF.F ....|D#2 2AFF ....|--- .... ....
....|..|R-- .... ....|R-- .... ....|--- .... ....
 D-4|..|C-3 RF.F ....|D-2 2AFF ....|--- .... ....
....|..|R-- .... ....|R-- .... ....|--- .... ....
 D#4|..|C-4 LF.F ....|D#2 2AFF ....|--- .... ....
....|..|R-- .... ....|R-- .... ....|--- .... ....
 D#4|..|C-4 AF.F ....|D#2 2AFF ....|--- .... ....
....|..|R-- .... ....|R-- .... ....|--- .... ....
 D#4|..|C-3 RF.A ....|D#2 2AFF ....|--- .... ....
....|..|R-- .... ....|R-- .... ....|--- .... ....
 D#4|..|C-4 CF.F ....|D#2 2AFF ....|--- .... ....
....|..|R-- .... ....|R-- .... ....|--- .... ....
 D#4|..|C-4 AF.7 ....|D#2 2AFF ....|--- .... ....
....|..|R-- .... ....|R-- .... ....|--- .... ....
 D#4|..|C-3 RF.F ....|D#2 2AFF ....|--- .... ....
....|..|R-- .... ....|R-- .... ....|--- .... ....
 D#4|..|C-4 AF.F ....|D#2 2AFF ....|--- .... ....
....|..|R-- .... ....|R-- .... ....|--- .... ....
 D-4|..|C-4 AF.F ....|D-2 2AFF ....|--- .... ....
....|..|R-- .... ....|R-- .... ....|--- .... ....
 D#4|..|C-3 RF.A ....|D#2 2AFF ....|--- .... ....
....|..|R-- .... ....|R-- .... ....|--- .... ....
 D#4|..|C-4 AF.F ....|D#2 2AFF ....|--- .... ....
....|..|R-- .... ....|R-- .... ....|--- .... ....
 D#4|..|C-4 AF.A ....|D#2 2AFF ....|--- .... ....
....|..|R-- .... ....|R-- .... ....|--- .... ....
 D#4|..|C-4 CF.F ....|D#2 2AFF ....|--- .... ....
....|..|R-- .... ....|R-- .... ....|--- .... ....
 D#4|..|C-4 AF.7 ....|D#2 2AFF ....|--- .... ....
....|..|R-- .... ....|R-- .... ....|--- .... ....
 D#4|..|C-3 RF.F ....|D#2 2AFF ....|--- .... ....
....|..|R-- .... ....|R-- .... ....|--- .... ....
 D#4|..|C-4 AF.F ....|D#2 2AFF ....|--- .... ....
....|..|R-- .... ....|R-- .... ....|--- .... ....
 D-4|..|C-3 RF.F ....|D-2 2AFF ....|--- .... ....
....|..|R-- .... ....|R-- .... ....|--- .... ....
 D#4|..|C-4 LF.F ....|D#2 2AFF ....|--- .... ....
....|..|R-- .... ....|R-- .... ....|--- .... ....
 D#4|..|C-4 AF.F ....|D#2 2AFF ....|--- .... ....
....|..|R-- .... ....|R-- .... ....|--- .... ....
 D#4|..|C-3 RF.A ....|D#2 2AFF ....|--- .... ....
....|..|R-- .... ....|R-- .... ....|--- .... ....
 D-4|..|C-4 CF.F ....|D-2 2AFF ....|--- .... ....
....|..|R-- .... ....|R-- .... ....|--- .... ....
 D#4|..|C-4 AF.7 ....|D#2 2AFF ....|--- .... ....
....|..|R-- .... ....|R-- .... ....|--- .... ....
 D#4|..|C-3 RF.F ....|D#2 2AFF ....|--- .... ....
....|..|R-- .... ....|R-- .... ....|--- .... ....
 D#4|..|C-4 AF.F ....|D#2 2AFF ....|--- .... ....
....|..|R-- .... ....|R-- .... ....|--- .... ....
 A#3|..|C-4 AF.F ....|A#1 2AFF ....|--- .... ....
....|..|R-- .... ....|R-- .... ....|--- .... ....
....|..|C-3 RF.A ....|D#2 2FF7 ....|--- .... ....
....|..|R-- .... ....|R-- .... ....|--- .... ....
 A#3|..|C-4 AF.F ....|A#1 2AFF ....|--- .... ....
....|..|R-- .... ....|R-- .... ....|--- .... ....
....|..|C-4 AF.A ....|D#2 2FF7 ....|--- .... ....
....|..|R-- .... ....|R-- .... ....|--- .... ....
 A#3|..|C-4 CF.F ....|A#1 2AFF ....|--- .... ....
....|..|R-- .... ....|R-- .... ....|--- .... ....
....|..|C-4 AF.7 ....|D#2 2FF7 ....|--- .... ....
....|..|R-- .... ....|R-- .... ....|--- .... ....
 A#3|..|C-3 RF.F ....|A#1 2AFF ....|--- .... ....
....|..|R-- .... ....|R-- .... ....|--- .... ....
....|..|C-4 AF.F ....|A#1 2FFA ....|--- .... ....
....|..|R-- .... ....|R-- .... ....|--- .... ....
 A#3|..|C-3 RF.F ....|A#1 2AFF ....|--- .... ....
....|..|R-- .... ....|R-- .... ....|--- .... ....
....|..|C-4 LF.F ....|A#1 2FFA ....|--- .... ....
....|..|R-- .... ....|R-- .... ....|--- .... ....
 A#3|..|C-4 AF.F ....|A#1 2AFF ....|--- .... ....
....|..|R-- .... ....|R-- .... ....|--- .... ....
....|..|C-3 RF.A ....|A#1 2FFA ....|--- .... ....
....|..|R-- .... ....|R-- .... ....|--- .... ....
 A#3|..|C-4 CF.F ....|A#1 2AFF ....|--- .... ....
....|..|R-- .... ....|R-- .... ....|--- .... ....
....|..|C-4 AF.7 ....|A#1 2FFA ....|--- .... ....
....|..|R-- .... ....|R-- .... ....|--- .... ....
 A#3|..|C-3 RF.F ....|A#1 2AFF ....|--- .... ....
....|..|R-- .... ....|R-- .... ....|--- .... ....
....|..|C-4 AF.F ....|A#1 2FFA ....|--- .... ....
....|..|R-- .... ....|R-- .... ....|--- .... ....
 A-3|..|C-4 AF.F ....|A-1 2AFF ....|--- .... ....
....|..|R-- .... ....|R-- .... ....|--- .... ....
....|..|C-3 RF.A ....|A#1 2FFA ....|--- .... ....
....|..|R-- .... ....|R-- .... ....|--- .... ....
 A-3|..|C-4 AF.F ....|A-1 2AFF ....|--- .... ....
....|..|R-- .... ....|R-- .... ....|--- .... ....
....|..|C-4 AF.A ....|A-1 2FFA ....|--- .... ....
....|..|R-- .... ....|R-- .... ....|--- .... ....
 A-3|..|C-4 CF.F ....|A-1 2AFF ....|--- .... ....
....|..|R-- .... ....|R-- .... ....|--- .... ....
....|..|C-4 AF.7 ....|A-1 2FFA ....|--- .... ....
....|..|R-- .... ....|R-- .... ....|--- .... ....
 A-3|..|C-3 RF.F ....|A-1 2AFF ....|--- .... ....
....|..|R-- .... ....|R-- .... ....|--- .... ....
....|..|C-4 AF.F ....|A-1 2FFA ....|--- .... ....
....|..|R-- .... ....|R-- .... ....|--- .... ....
 G#3|..|C-3 RF.F ....|G#1 2AFF ....|--- .... ....
....|..|R-- .... ....|R-- .... ....|--- .... ....
....|..|C-4 LF.F ....|A-1 2FFA ....|--- .... ....
....|..|R-- .... ....|R-- .... ....|--- .... ....
 G#3|..|C-4 AF.F ....|G#1 2AFF ....|--- .... ....
....|..|R-- .... ....|R-- .... ....|--- .... ....
....|..|C-3 RF.A ....|G#1 2FFA ....|--- .... ....
....|..|R-- .... ....|R-- .... ....|--- .... ....
 G#3|..|C-4 CF.F ....|G#1 2AFF ....|--- .... ....
....|..|R-- .... ....|R-- .... ....|--- .... ....
....|..|C-4 AF.7 ....|G#1 2FFA ....|--- .... ....
....|..|R-- .... ....|R-- .... ....|--- .... ....
 G#3|..|C-3 RF.F ....|G#1 2AFF ....|--- .... ....
....|..|R-- .... ....|R-- .... ....|--- .... ....
....|..|C-4 AF.F ....|G#1 2FFA ....|--- .... ....
....|..|R-- .... ....|R-- .... ....|--- .... ....

[Pattern20]
 D-4|..|C-4 AF.F ....|D-2 2AFF ....|--- .... ....
....|..|R-- .... ....|R-- .... ....|--- .... ....
 D#4|..|C-3 RF.A ....|D#2 2AFF ....|--- .... ....
....|..|R-- .... ....|R-- .... ....|--- .... ....
 D#4|..|C-4 AF.F ....|D#2 2AFF ....|--- .... ....
....|..|R-- .... ....|R-- .... ....|--- .... ....
 D#4|..|C-4 AF.A ....|D#2 2AFF ....|--- .... ....
....|..|R-- .... ....|R-- .... ....|--- .... ....
 D#4|..|C-4 CF.F ....|D#2 2AFF ....|--- .... ....
....|..|R-- .... ....|R-- .... ....|--- .... ....
 D#4|..|C-4 AF.7 ....|D#2 2AFF ....|--- .... ....
....|..|R-- .... ....|R-- .... ....|--- .... ....
 D#4|..|C-3 RF.F ....|D#2 2AFF ....|--- .... ....
....|..|R-- .... ....|R-- .... ....|--- .... ....
 D#4|..|C-4 AF.F ....|D#2 2AFF ....|--- .... ....
....|..|R-- .... ....|R-- .... ....|--- .... ....
 D-4|..|C-3 RF.F ....|D-2 2AFF ....|--- .... ....
....|..|R-- .... ....|R-- .... ....|--- .... ....
 D#4|..|C-4 LF.F ....|D#2 2AFF ....|--- .... ....
....|..|R-- .... ....|R-- .... ....|--- .... ....
 D#4|..|C-4 AF.F ....|D#2 2AFF ....|--- .... ....
....|..|R-- .... ....|R-- .... ....|--- .... ....
 D#4|..|C-3 RF.A ....|D#2 2AFF ....|--- .... ....
....|..|R-- .... ....|R-- .... ....|--- .... ....
 D#4|..|C-4 CF.F ....|D#2 2AFF ....|--- .... ....
....|..|R-- .... ....|R-- .... ....|--- .... ....
 D#4|..|C-4 AF.7 ....|D#2 2AFF ....|--- .... ....
....|..|R-- .... ....|R-- .... ....|--- .... ....
 D#4|..|C-3 RF.F ....|D#2 2AFF ....|--- .... ....
....|..|R-- .... ....|R-- .... ....|--- .... ....
 D#4|..|C-4 AF.F ....|D#2 2AFF ....|--- .... ....
....|..|R-- .... ....|R-- .... ....|--- .... ....
 D-4|..|C-4 AF.F ....|D-2 2AFF ....|--- .... ....
....|..|R-- .... ....|R-- .... ....|--- .... ....
 D#4|..|C-3 RF.A ....|D#2 2AFF ....|--- .... ....
....|..|R-- .... ....|R-- .... ....|--- .... ....
 D#4|..|C-4 AF.F ....|D#2 2AFF ....|--- .... ....
....|..|R-- .... ....|R-- .... ....|--- .... ....
 D#4|..|C-4 AF.A ....|D#2 2AFF ....|--- .... ....
....|..|R-- .... ....|R-- .... ....|--- .... ....
 D#4|..|C-4 CF.F ....|D#2 2AFF ....|--- .... ....
....|..|R-- .... ....|R-- .... ....|--- .... ....
 D#4|..|C-4 AF.7 ....|D#2 2AFF ....|--- .... ....
....|..|R-- .... ....|R-- .... ....|--- .... ....
 D#4|..|C-3 RF.F ....|D#2 2AFF ....|--- .... ....
....|..|R-- .... ....|R-- .... ....|--- .... ....
 D#4|..|C-4 CF.A ....|D#2 2AFF ....|--- .... ....
....|..|R-- .... ....|R-- .... ....|--- .... ....
 D-4|..|C-4 AF.F ....|D-2 2AFF ....|--- .... ....
....|..|R-- .... ....|R-- .... ....|--- .... ....
 D#4|..|C-4 AF.F ....|D#2 2AFF ....|--- .... ....
....|..|R-- .... ....|R-- .... ....|--- .... ....
 D#4|..|C-3 RF.F ....|D#2 2AFF ....|--- .... ....
....|..|R-- .... ....|R-- .... ....|--- .... ....
 D#4|..|C-5 VF.F ....|D#2 2AFF ....|--- .... ....
....|..|C-5 VF.F ....|R-- .... ....|--- .... ....
 D-4|..|C-4 AF.F ....|D-2 2AFF ....|--- .... ....
....|..|R-- .... ....|R-- .... ....|--- .... ....
 D#4|..|C-4 AF.F ....|D#2 2AFF ....|--- .... ....
....|..|R-- .... ....|R-- .... ....|--- .... ....
 D#4|..|C-3 RF.F ....|D#2 2AFF ....|--- .... ....
....|..|C-5 VF.A ....|R-- .... ....|--- .... ....
 D#4|..|C-4 AF.F ....|D#2 2AFF ....|--- .... ....
....|..|R-- .... ....|R-- .... ....|--- .... ....
 D#4|..|C-4 AF.F ....|D-2 2FFF ....|D#3 2CEF ....
....|..|R-- .... ....|R-- .... ....|--- .... ....
 D#4|..|C-5 VF.7 ....|D#2 2AFF ....|--- .... ....
....|..|C-5 VF.7 ....|R-- .... ....|--- .... ....
 D#4|..|C-4 AF.F ....|D#3 2CFF ....|D#3 2CEF ....
....|..|R-- .... ....|R-- .... ....|--- .... ....
 D#4|..|C-4 AF.7 ....|D#2 2AFF ....|D#3 2FEA ....
....|..|R-- .... ....|R-- .... ....|--- .... ....
 D#4|..|C-4 CF.F ....|D#3 2CFF ....|D#3 2CEF ....
....|..|R-- .... ....|R-- .... ....|--- .... ....
 D#4|..|C-4 AF.7 ....|D#2 2AFF ....|D#3 2FEA ....
....|..|R-- .... ....|R-- .... ....|--- .... ....
 D#4|..|C-3 RF.F ....|D#3 2CFF ....|D#3 2CEF ....
....|..|R-- .... ....|R-- .... ....|--- .... ....
 D#4|..|C-4 AF.F ....|D#2 2AFF ....|D#3 2FEA ....
....|..|R-- .... ....|R-- .... ....|--- .... ....
 F#4|..|C-3 RF.F ....|D-2 2FFF ....|F#3 2CEF ....
....|..|R-- .... ....|R-- .... ....|--- .... ....
 D#4|..|C-4 LF.F ....|D#2 2AFF ....|D#3 2FEA ....
....|..|R-- .... ....|R-- .... ....|--- .... ....
 D#4|..|C-4 AF.F ....|D#3 2CFF ....|D#3 2CEF ....
....|..|R-- .... ....|R-- .... ....|--- .... ....
 D#4|..|C-3 RF.A ....|D#2 2AFF ....|F#3 2FEA ....
....|..|R-- .... ....|R-- .... ....|--- .... ....
 F#4|..|C-4 CF.F ....|D#2 2FFF ....|F#3 2CEF ....
....|..|R-- .... ....|R-- .... ....|--- .... ....
 D#4|..|C-4 AF.7 ....|D#2 2AFF ....|D#3 2FEA ....
....|..|R-- .... ....|R-- .... ....|--- .... ....
 F-4|..|C-3 RF.F ....|D#2 2FFF ....|F-3 2CEF ....
....|..|R-- .... ....|R-- .... ....|--- .... ....
 D#4|..|C-4 AF.F ....|D#2 2AFF ....|F#3 2FEA ....
....|..|R-- .... ....|R-- .... ....|--- .... ....
 D#4|..|C-4 AF.F ....|D-2 2FFF ....|D#3 2CEF ....
....|..|R-- .... ....|R-- .... ....|--- .... ....
 D#4|..|C-3 RF.A ....|D#2 2AFF ....|F-3 2FEA ....
....|..|R-- .... ....|R-- .... ....|--- .... ....
 F-4|..|C-4 AF.F ....|D#2 2FFF ....|F-3 2CEF ....
....|..|R-- .... ....|R-- .... ....|--- .... ....
 D#4|..|C-4 AF.A ....|D#2 2AFF ....|D#3 2FEA ....
....|..|R-- .... ....|R-- .... ....|--- .... ....
 D-4|..|C-4 CF.F ....|D#2 2FFF ....|D-3 2CEF ....
....|..|R-- .... ....|R-- .... ....|--- .... ....
 D#4|..|C-4 AF.7 ....|D#2 2AFF ....|F-3 2FEA ....
....|..|R-- .... ....|R-- .... ....|--- .... ....
 D-4|..|C-3 RF.F ....|D#2 2FFF ....|D-3 2CEF ....
....|..|R-- .... ....|R-- .... ....|--- .... ....
 D#4|..|C-4 AF.F ....|D#2 2AFF ....|D-3 2FEA ....
....|..|R-- .... ....|R-- .... ....|--- .... ....
 D-4|..|C-3 RF.F ....|D-3 2CFF ....|D-3 2CEF ....
....|..|R-- .... ....|R-- .... ....|--- .... ....
 D#4|..|C-4 LF.F ....|D#2 2AFF ....|D-3 2FEA ....
....|..|R-- .... ....|R-- .... ....|--- .... ....
 D-4|..|C-4 AF.F ....|D#2 2FFF ....|D-3 2CEF ....
....|..|R-- .... ....|R-- .... ....|--- .... ....
 D#4|..|C-3 RF.A ....|D#2 2AFF ....|D-3 2FEA ....
....|..|R-- .... ....|R-- .... ....|--- .... ....
 D-4|..|C-4 CF.F ....|D-3 2CFF ....|D-3 2CEF ....
....|..|R-- .... ....|R-- .... ....|--- .... ....
 D#4|..|C-4 AF.7 ....|D#2 2AFF ....|D-3 2FEA ....
....|..|R-- .... ....|R-- .... ....|--- .... ....
 D-4|..|C-3 RF.F ....|D#2 2FFF ....|D-3 2CEF ....
....|..|R-- .... ....|R-- .... ....|--- .... ....
 D-4|..|C-4 AF.F ....|D#2 2FFF ....|D-3 2CEF ....
....|..|R-- .... ....|R-- .... ....|--- .... ....

[Pattern21]
 D#4|..|C-4 AF.F ....|D-2 2FFF ....|D#3 2CEF ....
....|..|R-- .... ....|R-- .... ....|--- .... ....
 D#4|..|C-3 RF.A ....|D#2 2AFF ....|D-3 2FEA ....
....|..|R-- .... ....|R-- .... ....|--- .... ....
 D#4|..|C-4 AF.F ....|D#3 2CFF ....|D#3 2CEF ....
....|..|R-- .... ....|R-- .... ....|--- .... ....
 D#4|..|C-4 AF.A ....|D#2 2AFF ....|D#3 2FEA ....
....|..|R-- .... ....|R-- .... ....|--- .... ....
 D#4|..|C-4 CF.F ....|D#3 2CFF ....|D#3 2CEF ....
....|..|R-- .... ....|R-- .... ....|--- .... ....
 D#4|..|C-4 AF.7 ....|D#2 2AFF ....|D-3 2FE7 ....
....|..|R-- .... ....|R-- .... ....|--- .... ....
 D#4|..|C-3 RF.F ....|D#3 2CFF ....|D#3 2CEF ....
....|..|R-- .... ....|R-- .... ....|--- .... ....
 D#4|..|C-4 AF.F ....|D#2 2AFF ....|D#3 2FEA ....
....|..|R-- .... ....|R-- .... ....|--- .... ....
 F#4|..|C-3 RF.F ....|D-2 2FFF ....|F#3 2CEF ....
....|..|R-- .... ....|R-- .... ....|--- .... ....
 D#4|..|C-4 LF.F ....|D#2 2AFF ....|D#3 2FEA ....
....|..|R-- .... ....|R-- .... ....|--- .... ....
 D#4|..|C-4 AF.F ....|D#3 2CFF ....|D#3 2CEF ....
....|..|R-- .... ....|R-- .... ....|--- .... ....
 D#4|..|C-3 RF.A ....|D#2 2AFF ....|F#3 2FEA ....
....|..|R-- .... ....|R-- .... ....|--- .... ....
 F#4|..|C-4 CF.F ....|D#2 2FFF ....|F#3 2CEF ....
....|..|R-- .... ....|R-- .... ....|--- .... ....
 D#4|..|C-4 AF.7 ....|D#2 2AFF ....|D#3 2FEA ....
....|..|R-- .... ....|R-- .... ....|--- .... ....
 F-4|..|C-3 RF.F ....|D#2 2FFF ....|F-3 2CEF ....
....|..|R-- .... ....|R-- .... ....|--- .... ....
 D#4|..|C-4 AF.F ....|D#2 2AFF ....|F#3 2FEA ....
....|..|R-- .... ....|R-- .... ....|--- .... ....
 D#4|..|C-4 AF.F ....|D-2 2FFF ....|D#3 2CEF ....
....|..|R-- .... ....|R-- .... ....|--- .... ....
 D#4|..|C-3 RF.A ....|D#2 2AFF ....|F-3 2FEA ....
....|..|R-- .... ....|R-- .... ....|--- .... ....
 F-4|..|C-4 AF.F ....|D#2 2FFF ....|F-3 2CEF ....
....|..|R-- .... ....|R-- .... ....|--- .... ....
 D#4|..|C-4 AF.A ....|D#2 2AFF ....|D#3 2FEA ....
....|..|R-- .... ....|R-- .... ....|--- .... ....
 D-4|..|C-4 CF.F ....|D#2 2FFF ....|D-3 2CEF ....
....|..|R-- .... ....|R-- .... ....|--- .... ....
 D#4|..|C-4 AF.7 ....|D#2 2AFF ....|F-3 2FEA ....
....|..|R-- .... ....|R-- .... ....|--- .... ....
 D-4|..|C-3 RF.F ....|D#2 2FFF ....|D-3 2CEF ....
....|..|R-- .... ....|R-- .... ....|--- .... ....
 D#4|..|C-4 AF.F ....|D#2 2AFF ....|D-3 2FEA ....
....|..|R-- .... ....|R-- .... ....|--- .... ....
 D-4|..|C-3 RF.F ....|D-3 2CFF ....|D-3 2CEF ....
....|..|R-- .... ....|R-- .... ....|--- .... ....
 D#4|..|C-4 LF.F ....|D#2 2AFF ....|D-3 2FEA ....
....|..|R-- .... ....|R-- .... ....|--- .... ....
 D-4|..|C-4 AF.F ....|D#2 2FFF ....|D-3 2CEF ....
....|..|R-- .... ....|R-- .... ....|--- .... ....
 D#4|..|C-3 RF.A ....|D#2 2AFF ....|D-3 2FEA ....
....|..|R-- .... ....|R-- .... ....|--- .... ....
 D-4|..|C-4 CF.F ....|D-3 2CFF ....|D-3 2CEF ....
....|..|R-- .... ....|R-- .... ....|--- .... ....
 D#4|..|C-4 AF.7 ....|D#2 2AFF ....|D-3 2FEA ....
....|..|R-- .... ....|R-- .... ....|--- .... ....
 D-4|..|C-3 RF.F ....|D#2 2FFF ....|D-3 2CEF ....
....|..|R-- .... ....|R-- .... ....|--- .... ....
 D-4|..|C-4 AF.F ....|D#2 2FFF ....|D-3 2CEF ....
....|..|R-- .... ....|R-- .... ....|--- .... ....
 D#4|..|C-4 AF.F ....|D-2 2FFF ....|D#3 2CEF ....
....|..|R-- .... ....|R-- .... ....|--- .... ....
 D#4|..|C-3 RF.A ....|D#2 2AFF ....|D-3 2FEA ....
....|..|R-- .... ....|R-- .... ....|--- .... ....
 D#4|..|C-4 AF.F ....|D#3 2CFF ....|D#3 2CEF ....
....|..|R-- .... ....|R-- .... ....|--- .... ....
 D#4|..|C-4 AF.A ....|D#2 2AFF ....|D#3 2FEA ....
....|..|R-- .... ....|R-- .... ....|--- .... ....
 D#4|..|C-4 CF.F ....|D#3 2CFF ....|D#3 2CEF ....
....|..|R-- .... ....|R-- .... ....|--- .... ....
 D#4|..|C-4 AF.7 ....|D#2 2AFF ....|D-3 2FE7 ....
....|..|R-- .... ....|R-- .... ....|--- .... ....
 D#4|..|C-3 RF.F ....|D#3 2CFF ....|D#3 2CEF ....
....|..|R-- .... ....|R-- .... ....|--- .... ....
 D#4|..|C-4 AF.F ....|D#2 2AFF ....|D#3 2FEA ....
....|..|R-- .... ....|R-- .... ....|--- .... ....
 F#4|..|C-3 RF.F ....|D-2 2FFF ....|F#3 2CEF ....
....|..|R-- .... ....|R-- .... ....|--- .... ....
 D#4|..|C-4 LF.F ....|D#2 2AFF ....|D#3 2FEA ....
....|..|R-- .... ....|R-- .... ....|--- .... ....
 D#4|..|C-4 AF.F ....|D#3 2CFF ....|D#3 2CEF ....
....|..|R-- .... ....|R-- .... ....|--- .... ....
 D#4|..|C-3 RF.A ....|D#2 2AFF ....|F#3 2FEA ....
....|..|R-- .... ....|R-- .... ....|--- .... ....
 F#4|..|C-4 CF.F ....|D#2 2FFF ....|F#3 2CEF ....
....|..|R-- .... ....|R-- .... ....|--- .... ....
 D#4|..|C-4 AF.7 ....|D#2 2AFF ....|D#3 2FEA ....
....|..|R-- .... ....|R-- .... ....|--- .... ....
 F-4|..|C-3 RF.F ....|D#2 2FFF ....|F-3 2CEF ....
....|..|R-- .... ....|R-- .... ....|--- .... ....
 D#4|..|C-4 AF.F ....|D#2 2AFF ....|F#3 2FEA ....
....|..|R-- .... ....|R-- .... ....|--- .... ....
 D#4|..|C-4 AF.F ....|D-2 2FFF ....|D#3 2CEF ....
....|..|R-- .... ....|R-- .... ....|--- .... ....
 D#4|..|C-3 RF.A ....|D#2 2AFF ....|F-3 2FEA ....
....|..|R-- .... ....|R-- .... ....|--- .... ....
 F-4|..|C-4 AF.F ....|D#2 2FFF ....|F-3 2CEF ....
....|..|R-- .... ....|R-- .... ....|--- .... ....
 D#4|..|C-4 AF.A ....|D#2 2AFF ....|D#3 2FEA ....
....|..|R-- .... ....|R-- .... ....|--- .... ....
 D-4|..|C-4 CF.F ....|D#2 2FFF ....|D-3 2CEF ....
....|..|R-- .... ....|R-- .... ....|--- .... ....
 D#4|..|C-4 AF.7 ....|D#2 2AFF ....|F-3 2FEA ....
....|..|R-- .... ....|R-- .... ....|--- .... ....
 D-4|..|C-3 RF.F ....|D#2 2FFF ....|D-3 2CEF ....
....|..|R-- .... ....|R-- .... ....|--- .... ....
 D#4|..|C-4 AF.F ....|D#2 2AFF ....|D-3 2FEA ....
....|..|R-- .... ....|R-- .... ....|--- .... ....
 D-4|..|C-3 RF.F ....|D-3 2CFF ....|D-3 2CEF ....
....|..|R-- .... ....|R-- .... ....|--- .... ....
 D#4|..|C-4 LF.F ....|D#2 2AFF ....|D-3 2FEA ....
....|..|R-- .... ....|R-- .... ....|--- .... ....
 D-4|..|C-4 AF.F ....|D#2 2FFF ....|D-3 2CEF ....
....|..|R-- .... ....|R-- .... ....|--- .... ....
 D#4|..|C-3 RF.A ....|D#2 2AFF ....|D-3 2FEA ....
....|..|R-- .... ....|R-- .... ....|--- .... ....
 D-4|..|C-4 CF.F ....|D-3 2CFF ....|D-3 2CEF ....
....|..|R-- .... ....|R-- .... ....|--- .... ....
 D#4|..|C-4 AF.7 ....|D#2 2AFF ....|D-3 2FEA ....
....|..|R-- .... ....|R-- .... ....|--- .... ....
 D-4|..|C-3 RF.F ....|D#2 2FFF ....|D-3 2CEF ....
....|..|R-- .... ....|R-- .... ....|--- .... ....
 D-4|..|C-4 AF.F ....|D#2 2FFF ....|D-3 2CEF ....
....|..|R-- .... ....|R-- .... ....|--- .... ....

[Pattern22]
 D#4|..|C-4 AF.F ....|D-2 2FFF ....|D#3 2CEF ....
....|..|R-- .... ....|R-- .... ....|--- .... ....
 D#4|..|C-3 RF.A ....|D#2 2AFF ....|D-3 2FEA ....
....|..|R-- .... ....|R-- .... ....|--- .... ....
 D#4|..|C-4 AF.F ....|D#3 2CFF ....|D#3 2CEF ....
....|..|R-- .... ....|R-- .... ....|--- .... ....
 D#4|..|C-4 AF.A ....|D#2 2AFF ....|D#3 2FEA ....
....|..|R-- .... ....|R-- .... ....|--- .... ....
 D#4|..|C-4 CF.F ....|D#3 2CFF ....|D#3 2CEF ....
....|..|R-- .... ....|R-- .... ....|--- .... ....
 D#4|..|C-4 AF.7 ....|D#2 2AFF ....|D-3 2FE7 ....
....|..|R-- .... ....|R-- .... ....|--- .... ....
 D#4|..|C-3 RF.F ....|D#3 2CFF ....|D#3 2CEF ....
....|..|R-- .... ....|R-- .... ....|--- .... ....
 D#4|..|C-4 AF.F ....|D#2 2AFF ....|D#3 2FEA ....
....|..|R-- .... ....|R-- .... ....|--- .... ....
 F#4|..|C-3 RF.F ....|D-2 2FFF ....|F#3 2CEF ....
....|..|R-- .... ....|R-- .... ....|--- .... ....
 D#4|..|C-4 LF.F ....|D#2 2AFF ....|D#3 2FEA ....
....|..|R-- .... ....|R-- .... ....|--- .... ....
 D#4|..|C-4 AF.F ....|D#3 2CFF ....|D#3 2CEF ....
....|..|R-- .... ....|R-- .... ....|--- .... ....
 D#4|..|C-3 RF.A ....|D#2 2AFF ....|F#3 2FEA ....
....|..|R-- .... ....|R-- .... ....|--- .... ....
 F#4|..|C-4 CF.F ....|D#2 2FFF ....|F#3 2CEF ....
....|..|R-- .... ....|R-- .... ....|--- .... ....
 D#4|..|C-4 AF.7 ....|D#2 2AFF ....|D#3 2FEA ....
....|..|R-- .... ....|R-- .... ....|--- .... ....
 F-4|..|C-3 RF.F ....|D#2 2FFF ....|F-3 2CEF ....
....|..|R-- .... ....|R-- .... ....|--- .... ....
 D#4|..|C-4 AF.F ....|D#2 2AFF ....|F#3 2FEA ....
....|..|R-- .... ....|R-- .... ....|--- .... ....
 D#4|..|C-4 AF.F ....|D-2 2FFF ....|D#3 2CEF ....
....|..|R-- .... ....|R-- .... ....|--- .... ....
 D#4|..|C-3 RF.A ....|D#2 2AFF ....|F-3 2FEA ....
....|..|R-- .... ....|R-- .... ....|--- .... ....
 F-4|..|C-4 AF.F ....|D#2 2FFF ....|F-3 2CEF ....
....|..|R-- .... ....|R-- .... ....|--- .... ....
 D#4|..|C-4 AF.A ....|D#2 2AFF ....|D#3 2FEA ....
....|..|R-- .... ....|R-- .... ....|--- .... ....
 D-4|..|C-4 CF.F ....|D#2 2FFF ....|D-3 2CEF ....
....|..|R-- .... ....|R-- .... ....|--- .... ....
 D#4|..|C-4 AF.7 ....|D#2 2AFF ....|F-3 2FEA ....
....|..|R-- .... ....|R-- .... ....|--- .... ....
 D-4|..|C-3 RF.F ....|D#2 2FFF ....|D-3 2CEF ....
....|..|R-- .... ....|R-- .... ....|--- .... ....
 D#4|..|C-4 CF.A ....|D#2 2AFF ....|D-3 2FEA ....
....|..|R-- .... ....|R-- .... ....|--- .... ....
 D-4|..|C-4 AF.F ....|D-3 2CFF ....|D-3 2CEF ....
....|..|R-- .... ....|R-- .... ....|--- .... ....
 D#4|..|C-4 AF.F ....|D#2 2AFF ....|D-3 2FEA ....
....|..|R-- .... ....|R-- .... ....|--- .... ....
 D-4|..|C-3 RF.F ....|D#2 2FFF ....|D-3 2CEF ....
....|..|R-- .... ....|R-- .... ....|--- .... ....
 D#4|..|C-5 VF.F ....|D#2 2AFF ....|D-3 2FEA ....
....|..|C-5 VF.F ....|R-- .... ....|--- .... ....
 D-4|..|C-4 AF.F ....|D-3 2CFF ....|D-3 2CEF ....
....|..|R-- .... ....|R-- .... ....|--- .... ....
 D#4|..|C-4 AF.F ....|D#2 2AFF ....|D-3 2FEA ....
....|..|R-- .... ....|R-- .... ....|--- .... ....
 D-4|..|C-3 RF.F ....|D#2 2FFF ....|D-3 2CEF ....
....|..|C-5 VF.A ....|R-- .... ....|--- .... ....
 D-4|..|C-4 AF.F ....|D#2 2FFF ....|D-3 2CEF ....
....|..|R-- .... ....|R-- .... ....|--- .... ....
 D#4|..|C-4 AF.F ....|D-2 2FFF ....|D#3 2CEF ....
....|..|R-- .... ....|R-- .... ....|--- .... ....
 D#4|..|C-5 VF.7 ....|D#2 2AFF ....|D-3 2FEA ....
....|..|C-5 VF.7 ....|R-- .... ....|--- .... ....
 D#4|..|C-4 AF.F ....|D#3 2CFF ....|D#3 2CEF ....
....|..|R-- .... ....|R-- .... ....|--- .... ....
 D#4|..|C-4 AF.7 ....|D#2 2AFF ....|D#3 2FEA ....
....|..|R-- .... ....|R-- .... ....|--- .... ....
 D#4|..|C-4 CF.F ....|D#3 2CFF ....|D#3 2CEF ....
....|..|R-- .... ....|R-- .... ....|--- .... ....
 D#4|..|C-4 AF.7 ....|D#2 2AFF ....|D-3 2FE7 ....
....|..|R-- .... ....|R-- .... ....|--- .... ....
 D#4|..|C-3 RF.F ....|D#3 2CFF ....|D#3 2CEF ....
....|..|R-- .... ....|R-- .... ....|--- .... ....
 D#4|..|C-4 AF.F ....|D#2 2AFF ....|D#3 2FEA ....
....|..|R-- .... ....|R-- .... ....|--- .... ....
 F#4|..|C-3 RF.F ....|D-2 2FFF ....|F#3 2CEF ....
....|..|R-- .... ....|R-- .... ....|--- .... ....
 D#4|..|C-4 LF.F ....|D#2 2AFF ....|D#3 2FEA ....
....|..|R-- .... ....|R-- .... ....|--- .... ....
 D#4|..|C-4 AF.F ....|D#3 2CFF ....|D#3 2CEF ....
....|..|R-- .... ....|R-- .... ....|--- .... ....
 D#4|..|C-3 RF.A ....|D#2 2AFF ....|F#3 2FEA ....
....|..|R-- .... ....|R-- .... ....|--- .... ....
 F#4|..|C-4 CF.F ....|D#2 2FFF ....|F#3 2CEF ....
....|..|R-- .... ....|R-- .... ....|--- .... ....
 D#4|..|C-4 AF.7 ....|D#2 2AFF ....|D#3 2FEA ....
....|..|R-- .... ....|R-- .... ....|--- .... ....
 F-4|..|C-3 RF.F ....|D#2 2FFF ....|F-3 2CEF ....
....|..|R-- .... ....|R-- .... ....|--- .... ....
 D#4|..|C-4 AF.F ....|D#2 2AFF ....|F#3 2FEA ....
....|..|R-- .... ....|R-- .... ....|--- .... ....
 D#4|..|C-4 AF.F ....|D-2 2FFF ....|D#3 2CEF ....
....|..|R-- .... ....|R-- .... ....|--- .... ....
 D#4|..|C-3 RF.A ....|D#2 2AFF ....|F-3 2FEA ....
....|..|R-- .... ....|R-- .... ....|--- .... ....
 F-4|..|C-4 AF.F ....|D#2 2FFF ....|F-3 2CEF ....
....|..|R-- .... ....|R-- .... ....|--- .... ....
 D#4|..|C-4 AF.A ....|D#2 2AFF ....|D#3 2FEA ....
....|..|R-- .... ....|R-- .... ....|--- .... ....
 D-4|..|C-4 CF.F ....|D#2 2FFF ....|D-3 2CEF ....
....|..|R-- .... ....|R-- .... ....|--- .... ....
 D#4|..|C-4 AF.7 ....|D#2 2AFF ....|F-3 2FEA ....
....|..|R-- .... ....|R-- .... ....|--- .... ....
 D-4|..|C-3 RF.F ....|D#2 2FFF ....|D-3 2CEF ....
....|..|R-- .... ....|R-- .... ....|--- .... ....
 D#4|..|C-4 AF.F ....|D#2 2AFF ....|D-3 2FEA ....
....|..|R-- .... ....|R-- .... ....|--- .... ....
 D-4|..|C-3 RF.F ....|D-3 2CFF ....|D-3 2CEF ....
....|..|R-- .... ....|R-- .... ....|--- .... ....
 D#4|..|C-4 LF.F ....|D#2 2AFF ....|D-3 2FEA ....
....|..|R-- .... ....|R-- .... ....|--- .... ....
 D-4|..|C-4 AF.F ....|D#2 2FFF ....|D-3 2CEF ....
....|..|R-- .... ....|R-- .... ....|--- .... ....
 D#4|..|C-3 RF.A ....|D#2 2AFF ....|D-3 2FEA ....
....|..|R-- .... ....|R-- .... ....|--- .... ....
 D-4|..|C-4 CF.F ....|D-3 2CFF ....|D-3 2CEF ....
....|..|R-- .... ....|R-- .... ....|--- .... ....
 D#4|..|C-4 AF.7 ....|D#2 2AFF ....|D-3 2FEA ....
....|..|R-- .... ....|R-- .... ....|--- .... ....
 D-4|..|C-3 RF.F ....|D#2 2FFF ....|D-3 2CEF ....
....|..|R-- .... ....|R-- .... ....|--- .... ....
 D-4|..|C-4 AF.F ....|D#2 2FFF ....|D-3 2CEF ....
....|..|R-- .... ....|R-- .... ....|--- .... ....

[Pattern24]
 D#4|..|C-4 AF.F ....|D-2 2FFF ....|D#3 2CEF ....
....|..|R-- .... ....|R-- .... ....|--- .... ....
 D#4|..|C-3 RF.A ....|D#2 2AFF ....|D-3 2FEA ....
....|..|R-- .... ....|R-- .... ....|--- .... ....
 D#4|..|C-4 AF.F ....|D#3 2CFF ....|D#3 2CEF ....
....|..|R-- .... ....|R-- .... ....|--- .... ....
 D#4|..|C-4 AF.A ....|D#2 2AFF ....|D#3 2FEA ....
....|..|R-- .... ....|R-- .... ....|--- .... ....
 D#4|..|C-4 CF.F ....|D#3 2CFF ....|D#3 2CEF ....
....|..|R-- .... ....|R-- .... ....|--- .... ....
 D#4|..|C-4 AF.7 ....|D#2 2AFF ....|D-3 2FE7 ....
....|..|R-- .... ....|R-- .... ....|--- .... ....
 D#4|..|C-3 RF.F ....|D#3 2CFF ....|D#3 2CEF ....
....|..|R-- .... ....|R-- .... ....|--- .... ....
 D#4|..|C-4 AF.F ....|D#2 2AFF ....|D#3 2FEA ....
....|..|R-- .... ....|R-- .... ....|--- .... ....
 F#4|..|C-3 RF.F ....|D-2 2FFF ....|F#3 2CEF ....
....|..|R-- .... ....|R-- .... ....|--- .... ....
 D#4|..|C-4 LF.F ....|D#2 2AFF ....|D#3 2FEA ....
....|..|R-- .... ....|R-- .... ....|--- .... ....
 D#4|..|C-4 AF.F ....|D#3 2CFF ....|D#3 2CEF ....
....|..|R-- .... ....|R-- .... ....|--- .... ....
 D#4|..|C-3 RF.A ....|D#2 2AFF ....|F#3 2FEA ....
....|..|R-- .... ....|R-- .... ....|--- .... ....
 F#4|..|C-4 CF.F ....|D#2 2FFF ....|F#3 2CEF ....
....|..|R-- .... ....|R-- .... ....|--- .... ....
 D#4|..|C-4 AF.7 ....|D#2 2AFF ....|D#3 2FEA ....
....|..|R-- .... ....|R-- .... ....|--- .... ....
 F-4|..|C-3 RF.F ....|D#2 2FFF ....|F-3 2CEF ....
....|..|R-- .... ....|R-- .... ....|--- .... ....
 D#4|..|C-4 AF.F ....|D#2 2AFF ....|F#3 2FEA ....
....|..|R-- .... ....|R-- .... ....|--- .... ....
 D#4|..|C-4 AF.F ....|D-2 2FFF ....|D#3 2CEF ....
....|..|R-- .... ....|R-- .... ....|--- .... ....
 D#4|..|C-3 RF.A ....|D#2 2AFF ....|F-3 2FEA ....
....|..|R-- .... ....|R-- .... ....|--- .... ....
 F-4|..|C-4 AF.F ....|D#2 2FFF ....|F-3 2CEF ....
....|..|R-- .... ....|R-- .... ....|--- .... ....
 D#4|..|C-4 AF.A ....|D#2 2AFF ....|D#3 2FEA ....
....|..|R-- .... ....|R-- .... ....|--- .... ....
 D-4|..|C-4 AF.F ....|D#2 2FFF ....|D-3 2CEF ....
....|..|R-- .... ....|R-- .... ....|--- .... ....
 D#4|..|C-4 AF.7 ....|D#2 2AFF ....|F-3 2FEA ....
....|..|R-- .... ....|R-- .... ....|--- .... ....
 D-4|..|C-3 RF.F ....|D#2 2FFF ....|D-3 2CEF ....
....|..|R-- .... ....|R-- .... ....|--- .... ....
 D#4|..|C-5 VF.F ....|D#2 2AFF ....|D-3 2FEA ....
....|..|C-5 VF.F ....|R-- .... ....|--- .... ....
 D-4|..|C-4 AF.F ....|D-3 2CFF ....|D-3 2CEF ....
....|..|R-- .... ....|R-- .... ....|--- .... ....
 D#4|..|C-4 AF.F ....|D#2 2AFF ....|D-3 2FEA ....
....|..|R-- .... ....|R-- .... ....|--- .... ....
 D-4|..|C-3 RF.F ....|D#2 2FFF ....|D-3 2CEF ....
....|..|C-5 VF.A ....|R-- .... ....|--- .... ....
 D#4|..|C-4 AF.F ....|D#2 2AFF ....|D-3 2FEA ....
....|..|R-- .... ....|R-- .... ....|--- .... ....
 D-4|..|C-3 RF.F ....|D-3 2CFF ....|D-3 2CEF ....
....|..|R-- .... ....|R-- .... ....|--- .... ....
 D#4|..|C-4 AF.F ....|D#2 2AFF ....|D-3 2FEA ....
....|..|C-5 VF.7 ....|R-- .... ....|--- .... ....
 D-4|..|C-3 RF.F ....|D#2 2FFF ....|D-3 2CEF ....
....|..|R-- .... ....|R-- .... ....|--- .... ....
 D-4|..|C-4 AF.F ....|D#2 2FFF ....|D-3 2CEF ....
....|..|R-- .... ....|R-- .... ....|--- .... ....
 A#3|..|C-4 AF.F ....|A#1 2AFF ....|D-3 2FE7 ....
....|..|R-- .... ....|R-- .... ....|--- .... ....
....|..|C-4 AF.7 ....|D#2 2FF7 ....|D-3 2FEA ....
....|..|R-- .... ....|R-- .... ....|--- .... ....
 A#3|..|C-4 AF.F ....|A#1 2AFF ....|D-3 2FE7 ....
....|..|R-- .... ....|R-- .... ....|--- .... ....
....|..|C-4 AF.7 ....|D#2 2FF7 ....|R-- .... ....
....|..|R-- .... ....|R-- .... ....|--- .... ....
 A#3|..|C-4 CF.F ....|A#1 2AFF ....|D-3 2FE7 ....
....|..|R-- .... ....|R-- .... ....|--- .... ....
....|..|C-4 AF.7 ....|D#2 2FF7 ....|D-3 2FE7 ....
....|..|R-- .... ....|R-- .... ....|--- .... ....
 A#3|..|C-3 RF.F ....|A#1 2AFF ....|R-- .... ....
....|..|R-- .... ....|R-- .... ....|--- .... ....
....|..|C-4 AF.F ....|A#1 2FFA ....|--- .... ....
....|..|R-- .... ....|R-- .... ....|--- .... ....
 A#3|..|C-3 RF.F ....|A#1 2AFF ....|--- .... ....
....|..|R-- .... ....|R-- .... ....|--- .... ....
....|..|C-4 LF.F ....|A#1 2FFA ....|--- .... ....
....|..|R-- .... ....|R-- .... ....|--- .... ....
 A#3|..|C-4 AF.F ....|A#1 2AFF ....|--- .... ....
....|..|R-- .... ....|R-- .... ....|--- .... ....
....|..|C-3 RF.A ....|A#1 2FFA ....|--- .... ....
....|..|R-- .... ....|R-- .... ....|--- .... ....
 A#3|..|C-4 CF.F ....|A#1 2AFF ....|--- .... ....
....|..|R-- .... ....|R-- .... ....|--- .... ....
....|..|C-4 AF.7 ....|A#1 2FFA ....|--- .... ....
....|..|R-- .... ....|R-- .... ....|--- .... ....
 A#3|..|C-3 RF.F ....|A#1 2AFF ....|--- .... ....
....|..|R-- .... ....|R-- .... ....|--- .... ....
....|..|C-4 AF.F ....|A#1 2FFA ....|--- .... ....
....|..|R-- .... ....|R-- .... ....|--- .... ....
 A-3|..|C-4 AF.F ....|A-1 2AFF ....|--- .... ....
....|..|R-- .... ....|R-- .... ....|--- .... ....
....|..|C-3 RF.A ....|A#1 2FFA ....|--- .... ....
....|..|R-- .... ....|R-- .... ....|--- .... ....
 A-3|..|C-4 AF.F ....|A-1 2AFF ....|--- .... ....
....|..|R-- .... ....|R-- .... ....|--- .... ....
....|..|C-4 AF.A ....|A-1 2FFA ....|--- .... ....
....|..|R-- .... ....|R-- .... ....|--- .... ....
 A-3|..|C-4 CF.F ....|A-1 2AFF ....|--- .... ....
....|..|R-- .... ....|R-- .... ....|--- .... ....
....|..|C-4 AF.7 ....|A-1 2FFA ....|--- .... ....
....|..|R-- .... ....|R-- .... ....|--- .... ....
 A-3|..|C-3 RF.F ....|A-1 2AFF ....|--- .... ....
....|..|R-- .... ....|R-- .... ....|--- .... ....
....|..|C-4 AF.F ....|A-1 2FFA ....|--- .... ....
....|..|R-- .... ....|R-- .... ....|--- .... ....
 G#3|..|C-3 RF.F ....|G#1 2AFF ....|--- .... ....
....|..|R-- .... ....|R-- .... ....|--- .... ....
....|..|C-4 LF.F ....|A-1 2FFA ....|--- .... ....
....|..|R-- .... ....|R-- .... ....|--- .... ....
 G#3|..|C-4 AF.F ....|G#1 2AFF ....|--- .... ....
....|..|R-- .... ....|R-- .... ....|--- .... ....
....|..|C-3 RF.A ....|G#1 2FFA ....|--- .... ....
....|..|R-- .... ....|R-- .... ....|--- .... ....
 G#3|..|C-4 CF.F ....|G#1 2AFF ....|--- .... ....
....|..|R-- .... ....|R-- .... ....|--- .... ....
....|..|C-4 AF.7 ....|G#1 2FFA ....|--- .... ....
....|..|R-- .... ....|R-- .... ....|--- .... ....
 G#3|..|C-3 RF.F ....|G#1 2AFF ....|--- .... ....
....|..|R-- .... ....|R-- .... ....|--- .... ....
....|..|C-4 AF.F ....|G#1 2FFA ....|--- .... ....
....|..|R-- .... ....|R-- .... ....|--- .... ....

[Pattern28]
 D-4|..|C-4 AF.F ....|D-2 2AFF ....|--- .... ....
....|..|R-- .... ....|R-- .... ....|--- .... ....
 D#4|..|C-3 RF.A ....|D#2 2AFF ....|--- .... ....
....|..|R-- .... ....|R-- .... ....|--- .... ....
 D#4|..|C-4 AF.F ....|D#2 2AFF ....|--- .... ....
....|..|R-- .... ....|R-- .... ....|--- .... ....
 D#4|..|C-4 AF.A ....|D#2 2AFF ....|--- .... ....
....|..|R-- .... ....|R-- .... ....|--- .... ....
 D#4|..|C-4 CF.F ....|D#2 2AFF ....|--- .... ....
....|..|R-- .... ....|R-- .... ....|--- .... ....
 D#4|..|C-4 AF.7 ....|D#2 2AFF ....|--- .... ....
....|..|R-- .... ....|R-- .... ....|--- .... ....
 D#4|..|C-3 RF.F ....|D#2 2AFF ....|--- .... ....
....|..|R-- .... ....|R-- .... ....|--- .... ....
 D#4|..|C-4 AF.F ....|D#2 2AFF ....|--- .... ....
....|..|R-- .... ....|R-- .... ....|--- .... ....
 D-4|..|C-3 RF.F ....|D-2 2AFF ....|--- .... ....
....|..|R-- .... ....|R-- .... ....|--- .... ....
 D#4|..|C-4 LF.F ....|D#2 2AFF ....|--- .... ....
....|..|R-- .... ....|R-- .... ....|--- .... ....
 D#4|..|C-4 AF.F ....|D#2 2AFF ....|--- .... ....
....|..|R-- .... ....|R-- .... ....|--- .... ....
 D#4|..|C-3 RF.A ....|D#2 2AFF ....|--- .... ....
....|..|R-- .... ....|R-- .... ....|--- .... ....
 D#4|..|C-4 CF.F ....|D#2 2AFF ....|--- .... ....
....|..|R-- .... ....|R-- .... ....|--- .... ....
 D#4|..|C-4 AF.7 ....|D#2 2AFF ....|--- .... ....
....|..|R-- .... ....|R-- .... ....|--- .... ....
 D#4|..|C-3 RF.F ....|D#2 2AFF ....|--- .... ....
....|..|R-- .... ....|R-- .... ....|--- .... ....
 D#4|..|C-4 AF.F ....|D#2 2AFF ....|--- .... ....
....|..|R-- .... ....|R-- .... ....|--- .... ....
 D-4|..|C-4 AF.F ....|D-2 2AFF ....|--- .... ....
....|..|R-- .... ....|R-- .... ....|--- .... ....
 D#4|..|C-3 RF.A ....|D#2 2AFF ....|--- .... ....
....|..|R-- .... ....|R-- .... ....|--- .... ....
 D#4|..|C-4 AF.F ....|D#2 2AFF ....|--- .... ....
....|..|R-- .... ....|R-- .... ....|--- .... ....
 D#4|..|C-4 AF.A ....|D#2 2AFF ....|--- .... ....
....|..|R-- .... ....|R-- .... ....|--- .... ....
 D#4|..|C-4 CF.F ....|D#2 2AFF ....|--- .... ....
....|..|R-- .... ....|R-- .... ....|--- .... ....
 D#4|..|C-4 AF.7 ....|D#2 2AFF ....|--- .... ....
....|..|R-- .... ....|R-- .... ....|--- .... ....
 D#4|..|C-3 RF.F ....|D#2 2AFF ....|--- .... ....
....|..|R-- .... ....|R-- .... ....|--- .... ....
 D#4|..|C-4 CF.A ....|D#2 2AFF ....|--- .... ....
....|..|R-- .... ....|R-- .... ....|--- .... ....
 D-4|..|C-4 AF.F ....|D-2 2AFF ....|--- .... ....
....|..|R-- .... ....|R-- .... ....|--- .... ....
 D#4|..|C-4 AF.F ....|D#2 2AFF ....|--- .... ....
....|..|R-- .... ....|R-- .... ....|--- .... ....
 D#4|..|C-3 RF.F ....|D#2 2AFF ....|--- .... ....
....|..|R-- .... ....|R-- .... ....|--- .... ....
 D#4|..|C-5 VF.F ....|D#2 2AFF ....|--- .... ....
....|..|C-5 VF.F ....|R-- .... ....|--- .... ....
 D-4|..|C-4 AF.F ....|D-2 2AFF ....|--- .... ....
....|..|R-- .... ....|R-- .... ....|--- .... ....
 D#4|..|C-4 AF.F ....|D#2 2AFF ....|--- .... ....
....|..|R-- .... ....|R-- .... ....|--- .... ....
 D#4|..|C-3 RF.F ....|D#2 2AFF ....|--- .... ....
....|..|C-5 VF.A ....|R-- .... ....|--- .... ....
 D#4|..|C-4 AF.F ....|D#2 2AFF ....|--- .... ....
....|..|R-- .... ....|R-- .... ....|--- .... ....
 D#4|..|C-4 LF.F ....|D#2 2AFF ....|--- .... ....
....|..|R-- .... ....|R-- .... ....|--- .... ....
....|..|C-5 VF.7 ....|D#2 2FF7 ....|--- .... ....
....|..|C-5 VF.7 ....|R-- .... ....|--- .... ....
....|..|C-4 AF.7 ....|D-2 2FF7 ....|--- .... ....
....|..|R-- .... ....|R-- .... ....|--- .... ....
....|..|C-4 AF.7 ....|D#2 2FF7 ....|--- .... ....
....|..|R-- .... ....|R-- .... ....|--- .... ....
....|..|C-3 RF.7 ....|D#2 2FF7 ....|--- .... ....
....|..|R-- .... ....|R-- .... ....|--- .... ....
....|..|C-4 AF.7 ....|D#2 2FF7 ....|--- .... ....
....|..|R-- .... ....|R-- .... ....|--- .... ....
....|..|C-4 LF.7 ....|D#2 2FF7 ....|--- .... ....
....|..|R-- .... ....|--- .... ....|--- .... ....
....|..|--- .... ....|--- .... ....|--- .... ....
....|..|--- .... ....|--- .... ....|--- .... ....
....|..|--- .... ....|--- .... ....|--- .... ....
....|..|--- .... ....|--- .... ....|--- .... ....
....|..|--- .... ....|--- .... ....|--- .... ....
....|..|--- .... ....|--- .... ....|--- .... ....
....|..|--- .... ....|--- .... ....|--- .... ....
....|..|--- .... ....|--- .... ....|--- .... ....
....|..|--- .... ....|--- .... ....|--- .... ....
....|..|--- .... ....|--- .... ....|--- .... ....
....|..|--- .... ....|--- .... ....|--- .... ....
....|..|--- .... ....|--- .... ....|--- .... ....
....|..|--- .... ....|--- .... ....|--- .... ....
....|..|--- .... ....|--- .... ....|--- .... ....
....|..|--- .... ....|--- .... ....|--- .... ....
....|..|--- .... ....|--- .... ....|--- .... ....
....|..|--- .... ....|--- .... ....|--- .... ....
....|..|--- .... ....|--- .... ....|--- .... ....
....|..|--- .... ....|R-- .... ....|--- .... ....
....|..|--- .... ....|--- .... ....|--- .... ....
....|..|--- .... ....|--- .... ....|--- .... ....
....|..|--- .... ....|--- .... ....|--- .... ....
....|..|--- .... ....|--- .... ....|--- .... ....
....|..|--- .... ....|--- .... ....|--- .... ....
....|..|--- .... ....|R-- .... ....|--- .... ....
....|..|--- .... ....|--- .... ....|--- .... ....
....|..|--- .... ....|--- .... ....|--- .... ....
....|..|--- .... ....|--- .... ....|--- .... ....
....|..|--- .... ....|--- .... ....|--- .... ....
....|..|--- .... ....|--- .... ....|--- .... ....
....|..|--- .... ....|R-- .... ....|--- .... ....
....|..|--- .... ....|--- .... ....|--- .... ....
....|..|--- .... ....|--- .... ....|--- .... ....
....|..|--- .... ....|--- .... ....|--- .... ....
....|..|--- .... ....|--- .... ....|--- .... ....
....|..|--- .... ....|--- .... ....|--- .... ....
....|..|--- .... ....|--- .... ....|--- .... ....
....|..|--- .... ....|--- .... ....|--- .... ....
....|..|--- .... ....|--- .... ....|--- .... ....
....|..|--- .... ....|--- .... ....|--- .... ....
....|..|--- .... ....|--- .... ....|--- .... ....
....|..|--- .... ....|--- .... ....|--- .... ....
....|..|--- .... ....|--- .... ....|--- .... ....
....|..|--- .... ....|--- .... ....|--- .... ....
....|..|--- .... ....|--- .... ....|--- .... ....
....|..|--- .... ....|--- .... ....|--- .... ....
....|..|--- .... ....|--- .... ....|--- .... ....
....|..|--- .... ....|--- .... ....|--- .... ....
....|..|--- .... ....|--- .... ....|--- .... ....
....|..|--- .... ....|--- .... ....|--- .... ....

[Pattern30]
....|..|--- .... ....|--- .... ....|--- .... ....
....|..|--- .... ....|--- .... ....|--- .... ....
....|..|--- .... ....|--- .... ....|--- .... ....
....|..|--- .... ....|--- .... ....|--- .... ....
....|..|--- .... ....|--- .... ....|--- .... ....
....|..|--- .... ....|--- .... ....|--- .... ....
....|..|--- .... ....|--- .... ....|--- .... ....
....|..|--- .... ....|--- .... ....|--- .... ....
....|..|--- .... ....|--- .... ....|--- .... ....
....|..|--- .... ....|--- .... ....|--- .... ....
....|..|--- .... ....|--- .... ....|--- .... ....
....|..|--- .... ....|--- .... ....|--- .... ....
....|..|--- .... ....|--- .... ....|--- .... ....
....|..|--- .... ....|--- .... ....|--- .... ....
....|..|--- .... ....|--- .... ....|--- .... ....
....|..|--- .... ....|--- .... ....|--- .... ....
....|..|--- .... ....|--- .... ....|--- .... ....
....|..|--- .... ....|--- .... ....|--- .... ....
....|..|--- .... ....|--- .... ....|--- .... ....
....|..|--- .... ....|--- .... ....|--- .... ....
....|..|--- .... ....|--- .... ....|--- .... ....
....|..|--- .... ....|--- .... ....|--- .... ....
....|..|--- .... ....|--- .... ....|--- .... ....
....|..|--- .... ....|--- .... ....|--- .... ....
....|..|--- .... ....|--- .... ....|--- .... ....
....|..|--- .... ....|--- .... ....|--- .... ....
....|..|--- .... ....|--- .... ....|--- .... ....
....|..|--- .... ....|--- .... ....|--- .... ....
....|..|--- .... ....|--- .... ....|--- .... ....
....|..|--- .... ....|--- .... ....|--- .... ....
....|..|--- .... ....|--- .... ....|--- .... ....
....|..|--- .... ....|--- .... ....|--- .... ....
....|..|--- .... ....|--- .... ....|--- .... ....
....|..|--- .... ....|--- .... ....|--- .... ....
....|..|--- .... ....|--- .... ....|--- .... ....
....|..|--- .... ....|--- .... ....|--- .... ....
....|..|--- .... ....|--- .... ....|--- .... ....
....|..|--- .... ....|--- .... ....|--- .... ....
....|..|--- .... ....|--- .... ....|--- .... ....
....|..|--- .... ....|--- .... ....|--- .... ....
....|..|--- .... ....|--- .... ....|--- .... ....
....|..|--- .... ....|--- .... ....|--- .... ....
....|..|--- .... ....|--- .... ....|--- .... ....
....|..|--- .... ....|--- .... ....|--- .... ....
....|..|--- .... ....|--- .... ....|--- .... ....
....|..|--- .... ....|--- .... ....|--- .... ....
....|..|--- .... ....|--- .... ....|--- .... ....
....|..|--- .... ....|--- .... ....|--- .... ....
....|..|--- .... ....|--- .... ....|--- .... ....
....|..|--- .... ....|--- .... ....|--- .... ....
....|..|--- .... ....|--- .... ....|--- .... ....
....|..|--- .... ....|--- .... ....|--- .... ....
....|..|--- .... ....|--- .... ....|--- .... ....
....|..|--- .... ....|--- .... ....|--- .... ....
....|..|--- .... ....|--- .... ....|--- .... ....
....|..|--- .... ....|--- .... ....|--- .... ....
....|..|--- .... ....|--- .... ....|--- .... ....
....|..|--- .... ....|--- .... ....|--- .... ....
....|..|--- .... ....|--- .... ....|--- .... ....
....|..|--- .... ....|--- .... ....|--- .... ....
....|..|--- .... ....|--- .... ....|--- .... ....
....|..|--- .... ....|--- .... ....|--- .... ....
....|..|--- .... ....|--- .... ....|--- .... ....
....|..|--- .... ....|--- .... ....|--- .... ....
....|..|C-4 AF.F ....|--- .... ....|--- .... ....
....|..|R-- .... ....|--- .... ....|--- .... ....
....|..|--- .... ....|--- .... ....|--- .... ....
....|..|--- .... ....|--- .... ....|--- .... ....
....|..|C-4 AF.F ....|--- .... ....|--- .... ....
....|..|R-- .... ....|--- .... ....|--- .... ....
....|..|C-4 AF.A ....|--- .... ....|--- .... ....
....|..|R-- .... ....|--- .... ....|--- .... ....
....|..|C-4 CF.F ....|--- .... ....|--- .... ....
....|..|R-- .... ....|--- .... ....|--- .... ....
....|..|C-4 AF.A ....|--- .... ....|--- .... ....
....|..|R-- .... ....|--- .... ....|--- .... ....
....|..|C-4 AF.7 ....|--- .... ....|--- .... ....
....|..|R-- .... ....|--- .... ....|--- .... ....
....|..|C-4 CF.F ....|--- .... ....|--- .... ....
....|..|C-4 LF.F ....|--- .... ....|--- .... ....
....|..|C-4 AF.F ....|--- .... ....|--- .... ....
....|..|R-- .... ....|--- .... ....|--- .... ....
....|..|--- .... ....|--- .... ....|--- .... ....
....|..|--- .... ....|--- .... ....|--- .... ....
....|..|C-4 AF.F ....|--- .... ....|--- .... ....
....|..|C-4 LF.A ....|--- .... ....|--- .... ....
....|..|C-4 AF.A ....|--- .... ....|--- .... ....
....|..|R-- .... ....|--- .... ....|--- .... ....
....|..|C-4 CF.F ....|--- .... ....|--- .... ....
....|..|R-- .... ....|--- .... ....|--- .... ....
....|..|C-4 CF.7 ....|--- .... ....|--- .... ....
....|..|C-4 LF.7 ....|--- .... ....|--- .... ....
....|..|C-4 AF.7 ....|--- .... ....|--- .... ....
....|..|R-- .... ....|--- .... ....|--- .... ....
....|..|C-4 CF.F ....|--- .... ....|--- .... ....
....|..|R-- .... ....|--- .... ....|--- .... ....
....|..|C-4 AF.F ....|--- .... ....|--- .... ....
....|..|R-- .... ....|--- .... ....|--- .... ....
....|..|--- .... ....|--- .... ....|--- .... ....
....|..|--- .... ....|--- .... ....|--- .... ....
....|..|C-4 AF.F ....|--- .... ....|--- .... ....
....|..|R-- .... ....|--- .... ....|--- .... ....
....|..|C-4 AF.A ....|--- .... ....|--- .... ....
....|..|R-- .... ....|--- .... ....|--- .... ....
....|..|C-4 CF.F ....|--- .... ....|--- .... ....
....|..|R-- .... ....|--- .... ....|--- .... ....
....|..|C-4 CF.7 ....|--- .... ....|--- .... ....
....|..|R-- .... ....|--- .... ....|--- .... ....
....|..|C-4 AF.7 ....|--- .... ....|--- .... ....
....|..|R-- .... ....|--- .... ....|--- .... ....
....|..|C-4 CF.F ....|--- .... ....|--- .... ....
....|..|C-4 LF.F ....|--- .... ....|--- .... ....
....|..|C-4 AF.F ....|--- .... ....|--- .... ....
....|..|R-- .... ....|--- .... ....|--- .... ....
....|..|--- .... ....|--- .... ....|--- .... ....
....|..|--- .... ....|--- .... ....|--- .... ....
....|..|C-4 AF.F ....|--- .... ....|--- .... ....
....|..|C-4 LF.A ....|--- .... ....|--- .... ....
....|..|C-4 AF.A ....|--- .... ....|--- .... ....
....|..|R-- .... ....|--- .... ....|--- .... ....
....|..|C-4 CF.F ....|--- .... ....|--- .... ....
....|..|R-- .... ....|--- .... ....|--- .... ....
....|..|C-4 CF.7 ....|--- .... ....|--- .... ....
....|..|C-4 LF.7 ....|--- .... ....|--- .... ....
....|..|C-4 AF.7 ....|--- .... ....|--- .... ....
....|..|R-- .... ....|--- .... ....|--- .... ....
....|..|C-4 CF.F ....|--- .... ....|--- .... ....
....|..|R-- .... ....|--- .... ....|--- .... ....

[Pattern31]
....|..|C-4 AF.F ....|--- .... ....|--- .... ....
....|..|R-- .... ....|--- .... ....|--- .... ....
....|..|--- .... ....|--- .... ....|--- .... ....
....|..|--- .... ....|--- .... ....|--- .... ....
....|..|C-4 AF.F ....|--- .... ....|--- .... ....
....|..|R-- .... ....|--- .... ....|--- .... ....
....|..|C-4 AF.A ....|--- .... ....|--- .... ....
....|..|R-- .... ....|--- .... ....|--- .... ....
....|..|C-4 CF.F ....|--- .... ....|--- .... ....
....|..|R-- .... ....|--- .... ....|--- .... ....
....|..|C-4 CF.7 ....|--- .... ....|--- .... ....
....|..|R-- .... ....|--- .... ....|--- .... ....
....|..|C-4 AF.7 ....|--- .... ....|--- .... ....
....|..|R-- .... ....|--- .... ....|--- .... ....
....|..|C-4 CF.F ....|--- .... ....|--- .... ....
....|..|C-4 LF.F ....|--- .... ....|--- .... ....
....|..|C-4 AF.F ....|--- .... ....|--- .... ....
....|..|R-- .... ....|--- .... ....|--- .... ....
....|..|--- .... ....|--- .... ....|--- .... ....
....|..|--- .... ....|--- .... ....|--- .... ....
....|..|C-4 AF.F ....|--- .... ....|--- .... ....
....|..|C-4 LF.A ....|--- .... ....|--- .... ....
....|..|C-4 AF.A ....|--- .... ....|--- .... ....
....|..|R-- .... ....|--- .... ....|--- .... ....
....|..|C-4 CF.F ....|--- .... ....|--- .... ....
....|..|R-- .... ....|--- .... ....|--- .... ....
....|..|C-4 CF.7 ....|--- .... ....|--- .... ....
....|..|C-4 LF.7 ....|--- .... ....|--- .... ....
....|..|C-4 AF.7 ....|--- .... ....|--- .... ....
....|..|R-- .... ....|--- .... ....|--- .... ....
....|..|C-4 CF.F ....|--- .... ....|--- .... ....
....|..|R-- .... ....|--- .... ....|--- .... ....
....|..|C-4 AF.F ....|--- .... ....|--- .... ....
....|..|R-- .... ....|--- .... ....|--- .... ....
....|..|--- .... ....|--- .... ....|--- .... ....
....|..|--- .... ....|--- .... ....|--- .... ....
....|..|C-4 AF.F ....|--- .... ....|--- .... ....
....|..|R-- .... ....|--- .... ....|--- .... ....
....|..|C-4 AF.A ....|--- .... ....|--- .... ....
....|..|R-- .... ....|--- .... ....|--- .... ....
....|..|C-4 CF.F ....|--- .... ....|--- .... ....
....|..|R-- .... ....|--- .... ....|--- .... ....
....|..|C-4 CF.7 ....|--- .... ....|--- .... ....
....|..|R-- .... ....|--- .... ....|--- .... ....
....|..|C-4 AF.7 ....|--- .... ....|--- .... ....
....|..|R-- .... ....|--- .... ....|--- .... ....
....|..|C-4 CF.F ....|--- .... ....|--- .... ....
....|..|C-4 LF.F ....|--- .... ....|--- .... ....
....|..|C-4 AF.F ....|--- .... ....|--- .... ....
....|..|R-- .... ....|--- .... ....|--- .... ....
....|..|--- .... ....|--- .... ....|--- .... ....
....|..|--- .... ....|--- .... ....|--- .... ....
....|..|C-4 AF.F ....|--- .... ....|--- .... ....
....|..|C-4 LF.A ....|--- .... ....|--- .... ....
....|..|C-4 AF.A ....|--- .... ....|--- .... ....
....|..|R-- .... ....|--- .... ....|--- .... ....
....|..|C-4 CF.F ....|--- .... ....|--- .... ....
....|..|R-- .... ....|--- .... ....|--- .... ....
....|..|C-4 CF.7 ....|--- .... ....|--- .... ....
....|..|C-4 LF.7 ....|--- .... ....|--- .... ....
....|..|C-4 AF.7 ....|--- .... ....|--- .... ....
....|..|R-- .... ....|--- .... ....|--- .... ....
....|..|C-4 CF.F ....|--- .... ....|--- .... ....
....|..|R-- .... ....|--- .... ....|--- .... ....
....|..|C-4 AF.F ....|--- .... ....|--- .... ....
....|..|R-- .... ....|--- .... ....|--- .... ....
....|..|--- .... ....|--- .... ....|--- .... ....
....|..|--- .... ....|--- .... ....|--- .... ....
....|..|C-4 AF.F ....|--- .... ....|--- .... ....
....|..|R-- .... ....|--- .... ....|--- .... ....
....|..|C-4 AF.A ....|--- .... ....|--- .... ....
....|..|R-- .... ....|--- .... ....|--- .... ....
....|..|C-4 CF.F ....|--- .... ....|--- .... ....
....|..|R-- .... ....|--- .... ....|--- .... ....
....|..|C-4 CF.7 ....|--- .... ....|--- .... ....
....|..|R-- .... ....|--- .... ....|--- .... ....
....|..|C-4 AF.7 ....|--- .... ....|--- .... ....
....|..|R-- .... ....|--- .... ....|--- .... ....
....|..|C-4 CF.F ....|--- .... ....|--- .... ....
....|..|C-4 LF.F ....|--- .... ....|--- .... ....
....|..|C-4 AF.F ....|--- .... ....|--- .... ....
....|..|R-- .... ....|--- .... ....|--- .... ....
....|..|--- .... ....|--- .... ....|--- .... ....
....|..|--- .... ....|--- .... ....|--- .... ....
....|..|C-4 AF.F ....|--- .... ....|--- .... ....
....|..|C-4 LF.A ....|--- .... ....|--- .... ....
....|..|C-4 AF.A ....|--- .... ....|--- .... ....
....|..|R-- .... ....|--- .... ....|--- .... ....
....|..|C-4 CF.F ....|--- .... ....|--- .... ....
....|..|R-- .... ....|--- .... ....|--- .... ....
....|..|C-4 CF.7 ....|--- .... ....|--- .... ....
....|..|C-4 LF.7 ....|--- .... ....|--- .... ....
....|..|C-4 AF.7 ....|--- .... ....|--- .... ....
....|..|R-- .... ....|--- .... ....|--- .... ....
....|..|C-4 CF.F ....|--- .... ....|--- .... ....
....|..|R-- .... ....|--- .... ....|--- .... ....
....|..|C-4 AF.F ....|--- .... ....|--- .... ....
....|..|R-- .... ....|--- .... ....|--- .... ....
....|..|--- .... ....|--- .... ....|--- .... ....
....|..|--- .... ....|--- .... ....|--- .... ....
....|..|C-4 AF.F ....|--- .... ....|--- .... ....
....|..|R-- .... ....|--- .... ....|--- .... ....
....|..|C-4 AF.A ....|--- .... ....|--- .... ....
....|..|R-- .... ....|--- .... ....|--- .... ....
....|..|C-4 CF.F ....|--- .... ....|--- .... ....
....|..|R-- .... ....|--- .... ....|--- .... ....
....|..|C-4 CF.7 ....|--- .... ....|--- .... ....
....|..|R-- .... ....|--- .... ....|--- .... ....
....|..|C-4 AF.7 ....|--- .... ....|--- .... ....
....|..|R-- .... ....|--- .... ....|--- .... ....
....|..|C-4 CF.F ....|--- .... ....|--- .... ....
....|..|C-4 LF.F ....|--- .... ....|--- .... ....
....|..|C-4 AF.F ....|--- .... ....|--- .... ....
....|..|R-- .... ....|--- .... ....|--- .... ....
....|..|--- .... ....|--- .... ....|--- .... ....
....|..|--- .... ....|--- .... ....|--- .... ....
....|..|C-4 AF.F ....|--- .... ....|--- .... ....
....|..|C-4 LF.A ....|--- .... ....|--- .... ....
....|..|C-4 AF.A ....|--- .... ....|--- .... ....
....|..|R-- .... ....|--- .... ....|--- .... ....
....|..|C-4 CF.F ....|--- .... ....|--- .... ....
....|..|R-- .... ....|--- .... ....|--- .... ....
....|..|C-4 CF.7 ....|--- .... ....|--- .... ....
....|..|C-4 LF.7 ....|--- .... ....|--- .... ....
....|..|C-4 AF.7 ....|--- .... ....|--- .... ....
....|..|R-- .... ....|--- .... ....|--- .... ....
....|..|C-4 CF.F ....|--- .... ....|--- .... ....
....|..|R-- .... ....|--- .... ....|--- .... ....

[Pattern34]
....|..|C-4 AF.F ....|--- .... ....|--- .... ....
....|..|R-- .... ....|--- .... ....|--- .... ....
....|..|--- .... ....|--- .... ....|--- .... ....
....|..|--- .... ....|--- .... ....|--- .... ....
....|..|C-4 AF.F ....|--- .... ....|--- .... ....
....|..|R-- .... ....|--- .... ....|--- .... ....
....|..|C-4 AF.A ....|--- .... ....|--- .... ....
....|..|R-- .... ....|--- .... ....|--- .... ....
....|..|C-4 CF.F ....|--- .... ....|--- .... ....
....|..|R-- .... ....|--- .... ....|--- .... ....
....|..|C-4 CF.7 ....|--- .... ....|--- .... ....
....|..|R-- .... ....|--- .... ....|--- .... ....
....|..|C-4 AF.7 ....|--- .... ....|--- .... ....
....|..|R-- .... ....|--- .... ....|--- .... ....
....|..|C-4 CF.F ....|--- .... ....|--- .... ....
....|..|C-4 LF.F ....|--- .... ....|--- .... ....
....|..|C-4 AF.F ....|--- .... ....|--- .... ....
....|..|R-- .... ....|--- .... ....|--- .... ....
....|..|--- .... ....|--- .... ....|--- .... ....
....|..|--- .... ....|--- .... ....|--- .... ....
....|..|C-4 AF.F ....|--- .... ....|--- .... ....
....|..|C-4 LF.A ....|--- .... ....|--- .... ....
....|..|C-4 AF.A ....|--- .... ....|--- .... ....
....|..|R-- .... ....|--- .... ....|--- .... ....
....|..|C-4 CF.F ....|--- .... ....|--- .... ....
....|..|R-- .... ....|--- .... ....|--- .... ....
....|..|C-4 CF.7 ....|--- .... ....|--- .... ....
....|..|C-4 LF.7 ....|--- .... ....|--- .... ....
....|..|C-4 AF.7 ....|--- .... ....|--- .... ....
....|..|R-- .... ....|--- .... ....|--- .... ....
....|..|C-4 CF.F ....|--- .... ....|--- .... ....
....|..|R-- .... ....|--- .... ....|--- .... ....
....|..|C-4 AF.F ....|--- .... ....|--- .... ....
....|..|R-- .... ....|--- .... ....|--- .... ....
....|..|--- .... ....|--- .... ....|--- .... ....
....|..|--- .... ....|--- .... ....|--- .... ....
....|..|C-4 AF.F ....|--- .... ....|--- .... ....
....|..|R-- .... ....|--- .... ....|--- .... ....
....|..|C-4 AF.A ....|--- .... ....|--- .... ....
....|..|R-- .... ....|--- .... ....|--- .... ....
....|..|C-4 CF.F ....|--- .... ....|--- .... ....
....|..|R-- .... ....|--- .... ....|--- .... ....
....|..|C-4 CF.7 ....|--- .... ....|--- .... ....
....|..|R-- .... ....|--- .... ....|--- .... ....
....|..|C-4 AF.7 ....|--- .... ....|--- .... ....
....|..|R-- .... ....|--- .... ....|--- .... ....
....|..|C-4 CF.F ....|--- .... ....|--- .... ....
....|..|C-4 LF.F ....|--- .... ....|--- .... ....
....|..|C-4 AF.F ....|--- .... ....|--- .... ....
....|..|R-- .... ....|--- .... ....|--- .... ....
....|..|--- .... ....|--- .... ....|--- .... ....
....|..|--- .... ....|--- .... ....|--- .... ....
....|..|C-4 AF.F ....|--- .... ....|--- .... ....
....|..|C-4 LF.A ....|--- .... ....|--- .... ....
....|..|C-4 AF.A ....|--- .... ....|--- .... ....
....|..|R-- .... ....|--- .... ....|--- .... ....
....|..|C-4 CF.F ....|--- .... ....|--- .... ....
....|..|R-- .... ....|--- .... ....|--- .... ....
....|..|C-4 CF.7 ....|--- .... ....|--- .... ....
....|..|C-4 LF.7 ....|--- .... ....|--- .... ....
....|..|C-4 AF.7 ....|--- .... ....|--- .... ....
....|..|R-- .... ....|--- .... ....|--- .... ....
....|..|C-4 CF.F ....|--- .... ....|--- .... ....
....|..|R-- .... ....|--- .... ....|--- .... ....
....|..|C-4 AF.F ....|--- .... ....|--- .... ....
....|..|R-- .... ....|--- .... ....|--- .... ....
....|..|--- .... ....|--- .... ....|--- .... ....
....|..|--- .... ....|--- .... ....|--- .... ....
....|..|C-4 AF.F ....|--- .... ....|--- .... ....
....|..|R-- .... ....|--- .... ....|--- .... ....
....|..|C-4 AF.A ....|--- .... ....|--- .... ....
....|..|R-- .... ....|--- .... ....|--- .... ....
....|..|C-4 CF.F ....|--- .... ....|--- .... ....
....|..|R-- .... ....|--- .... ....|--- .... ....
....|..|C-4 CF.7 ....|--- .... ....|--- .... ....
....|..|R-- .... ....|--- .... ....|--- .... ....
....|..|C-4 AF.7 ....|--- .... ....|--- .... ....
....|..|R-- .... ....|--- .... ....|--- .... ....
....|..|C-4 CF.F ....|--- .... ....|--- .... ....
....|..|C-4 LF.F ....|--- .... ....|--- .... ....
....|..|C-4 AF.F ....|--- .... ....|--- .... ....
....|..|R-- .... ....|--- .... ....|--- .... ....
....|..|--- .... ....|--- .... ....|--- .... ....
....|..|--- .... ....|--- .... ....|--- .... ....
....|..|C-4 AF.F ....|--- .... ....|--- .... ....
....|..|C-4 LF.A ....|--- .... ....|--- .... ....
....|..|C-4 AF.A ....|--- .... ....|--- .... ....
....|..|R-- .... ....|--- .... ....|--- .... ....
....|..|C-4 CF.F ....|--- .... ....|--- .... ....
....|..|R-- .... ....|--- .... ....|--- .... ....
....|..|C-4 CF.7 ....|--- .... ....|--- .... ....
....|..|C-4 LF.7 ....|--- .... ....|--- .... ....
....|..|C-4 AF.7 ....|--- .... ....|--- .... ....
....|..|R-- .... ....|--- .... ....|--- .... ....
....|..|C-4 CF.F ....|--- .... ....|--- .... ....
....|..|R-- .... ....|--- .... ....|--- .... ....
....|..|C-4 AF.F ....|--- .... ....|--- .... ....
....|..|R-- .... ....|--- .... ....|--- .... ....
....|..|--- .... ....|--- .... ....|--- .... ....
....|..|--- .... ....|--- .... ....|--- .... ....
....|..|C-4 CF.7 ....|--- .... ....|--- .... ....
....|..|R-- .... ....|--- .... ....|--- .... ....
....|..|C-4 AF.A ....|--- .... ....|--- .... ....
....|..|R-- .... ....|--- .... ....|--- .... ....
....|..|C-4 AF.F ....|--- .... ....|--- .... ....
....|..|R-- .... ....|--- .... ....|--- .... ....
....|..|C-4 CF.7 ....|--- .... ....|--- .... ....
....|..|R-- .... ....|--- .... ....|--- .... ....
....|..|C-4 AF.7 ....|--- .... ....|--- .... ....
....|..|R-- .... ....|--- .... ....|--- .... ....
....|..|C-4 CF.F ....|--- .... ....|--- .... ....
....|..|C-4 CF.F ....|--- .... ....|--- .... ....
....|..|C-4 AF.F ....|--- .... ....|--- .... ....
....|..|R-- .... ....|--- .... ....|--- .... ....
....|..|--- .... ....|--- .... ....|--- .... ....
....|..|--- .... ....|--- .... ....|--- .... ....
....|..|C-4 AF.F ....|--- .... ....|--- .... ....
....|..|C-4 CF.A ....|--- .... ....|--- .... ....
....|..|C-4 AF.A ....|--- .... ....|--- .... ....
....|..|R-- .... ....|--- .... ....|--- .... ....
....|..|--- .... ....|--- .... ....|--- .... ....
....|..|--- .... ....|--- .... ....|--- .... ....
....|..|C-4 CF.7 ....|--- .... ....|--- .... ....
....|..|C-4 CF.7 ....|--- .... ....|--- .... ....
....|..|C-4 AF.F ....|--- .... ....|--- .... ....
....|..|R-- .... ....|--- .... ....|--- .... ....
....|..|--- .... ....|--- .... ....|--- .... ....
....|..|--- .... ....|--- .... ....|--- .... ....

[Pattern35]
 D#4|..|C-4 CF.F ....|--- .... ....|D#3 2CEF ....
....|..|R-- .... ....|--- .... ....|--- .... ....
....|..|C-4 AF.A ....|--- .... ....|--- .... ....
....|..|R-- .... ....|--- .... ....|--- .... ....
 D#4|..|--- .... ....|--- .... ....|D#3 2CEF ....
....|..|--- .... ....|--- .... ....|--- .... ....
....|..|C-4 CF.A ....|--- .... ....|D#3 2FEA ....
....|..|R-- .... ....|--- .... ....|--- .... ....
 D#4|..|C-4 AF.7 ....|--- .... ....|D#3 2CEF ....
....|..|R-- .... ....|--- .... ....|--- .... ....
....|..|--- .... ....|--- .... ....|D#3 2FEA ....
....|..|--- .... ....|--- .... ....|--- .... ....
 D#4|..|C-4 CF.7 ....|--- .... ....|D#3 2CEF ....
....|..|R-- .... ....|--- .... ....|--- .... ....
....|..|--- .... ....|--- .... ....|D#3 2FEA ....
....|..|--- .... ....|--- .... ....|--- .... ....
 F#4|..|--- .... ....|--- .... ....|F#3 2CEF ....
....|..|--- .... ....|--- .... ....|--- .... ....
....|..|--- .... ....|--- .... ....|D#3 2FEA ....
....|..|--- .... ....|--- .... ....|--- .... ....
 D#4|..|--- .... ....|--- .... ....|D#3 2CEF ....
....|..|--- .... ....|--- .... ....|--- .... ....
....|..|--- .... ....|--- .... ....|F#3 2FEA ....
....|..|--- .... ....|--- .... ....|--- .... ....
 F#4|..|--- .... ....|--- .... ....|F#3 2CEF ....
....|..|--- .... ....|--- .... ....|--- .... ....
....|..|--- .... ....|--- .... ....|D#3 2FEA ....
....|..|--- .... ....|--- .... ....|--- .... ....
 F-4|..|--- .... ....|--- .... ....|F-3 2CEF ....
....|..|--- .... ....|--- .... ....|--- .... ....
....|..|--- .... ....|--- .... ....|F#3 2FEA ....
....|..|--- .... ....|--- .... ....|--- .... ....
 D#4|..|--- .... ....|--- .... ....|D#3 2CEF ....
....|..|--- .... ....|--- .... ....|--- .... ....
....|..|--- .... ....|--- .... ....|F-3 2FEA ....
....|..|--- .... ....|--- .... ....|--- .... ....
 F-4|..|--- .... ....|--- .... ....|F-3 2CEF ....
....|..|--- .... ....|--- .... ....|--- .... ....
....|..|--- .... ....|--- .... ....|D#3 2FEA ....
....|..|--- .... ....|--- .... ....|--- .... ....
 D-4|..|--- .... ....|--- .... ....|D-3 2CEF ....
....|..|--- .... ....|--- .... ....|--- .... ....
....|..|--- .... ....|--- .... ....|F-3 2FEA ....
....|..|--- .... ....|--- .... ....|--- .... ....
 D-4|..|--- .... ....|--- .... ....|D-3 2CEF ....
....|..|--- .... ....|--- .... ....|--- .... ....
....|..|--- .... ....|--- .... ....|D-3 2FEA ....
....|..|--- .... ....|--- .... ....|--- .... ....
 D-4|..|--- .... ....|--- .... ....|D-3 2CEF ....
....|..|--- .... ....|--- .... ....|--- .... ....
....|..|--- .... ....|--- .... ....|D-3 2FEA ....
....|..|--- .... ....|--- .... ....|--- .... ....
 D-4|..|--- .... ....|--- .... ....|D-3 2CEF ....
....|..|--- .... ....|--- .... ....|--- .... ....
....|..|--- .... ....|--- .... ....|D-3 2FEA ....
....|..|--- .... ....|--- .... ....|--- .... ....
 D-4|..|--- .... ....|--- .... ....|D-3 2CEF ....
....|..|--- .... ....|--- .... ....|--- .... ....
....|..|--- .... ....|--- .... ....|D-3 2FEA ....
....|..|--- .... ....|--- .... ....|--- .... ....
 D-4|..|--- .... ....|--- .... ....|D-3 2CEF ....
....|..|--- .... ....|--- .... ....|--- .... ....
 D-4|..|--- .... ....|--- .... ....|D-3 2CEF ....
....|..|--- .... ....|--- .... ....|--- .... ....
 D#4|..|--- .... ....|--- .... ....|D#3 2CEF ....
....|..|--- .... ....|--- .... ....|--- .... ....
....|..|--- .... ....|--- .... ....|D-3 2FEA ....
....|..|--- .... ....|--- .... ....|--- .... ....
 D#4|..|--- .... ....|--- .... ....|D#3 2CEF ....
....|..|--- .... ....|--- .... ....|--- .... ....
....|..|--- .... ....|--- .... ....|D#3 2FEA ....
....|..|--- .... ....|--- .... ....|--- .... ....
 D#4|..|--- .... ....|--- .... ....|D#3 2CEF ....
....|..|--- .... ....|--- .... ....|--- .... ....
....|..|--- .... ....|--- .... ....|D-3 2FE7 ....
....|..|--- .... ....|--- .... ....|--- .... ....
 D#4|..|--- .... ....|--- .... ....|D#3 2CEF ....
....|..|--- .... ....|--- .... ....|--- .... ....
....|..|--- .... ....|--- .... ....|D#3 2FEA ....
....|..|--- .... ....|--- .... ....|--- .... ....
 F#4|..|--- .... ....|--- .... ....|F#3 2CEF ....
....|..|--- .... ....|--- .... ....|--- .... ....
....|..|--- .... ....|--- .... ....|D#3 2FEA ....
....|..|--- .... ....|--- .... ....|--- .... ....
 D#4|..|--- .... ....|--- .... ....|D#3 2CEF ....
....|..|--- .... ....|--- .... ....|--- .... ....
....|..|--- .... ....|--- .... ....|F#3 2FEA ....
....|..|--- .... ....|--- .... ....|--- .... ....
 F#4|..|--- .... ....|--- .... ....|F#3 2CEF ....
....|..|--- .... ....|--- .... ....|--- .... ....
....|..|--- .... ....|--- .... ....|D#3 2FEA ....
....|..|--- .... ....|--- .... ....|--- .... ....
 F-4|..|--- .... ....|--- .... ....|F-3 2CEF ....
....|..|--- .... ....|--- .... ....|--- .... ....
....|..|--- .... ....|--- .... ....|F#3 2FEA ....
....|..|--- .... ....|--- .... ....|--- .... ....
 D#4|..|--- .... ....|--- .... ....|D#3 2CEF ....
....|..|--- .... ....|--- .... ....|--- .... ....
....|..|--- .... ....|--- .... ....|F-3 2FEA ....
....|..|--- .... ....|--- .... ....|--- .... ....
 F-4|..|--- .... ....|--- .... ....|F-3 2CEF ....
....|..|--- .... ....|--- .... ....|--- .... ....
....|..|--- .... ....|--- .... ....|D#3 2FEA ....
....|..|--- .... ....|--- .... ....|--- .... ....
 D-4|..|--- .... ....|--- .... ....|D-3 2CEF ....
....|..|--- .... ....|--- .... ....|--- .... ....
....|..|--- .... ....|--- .... ....|F-3 2FEA ....
....|..|--- .... ....|--- .... ....|--- .... ....
 D-4|..|--- .... ....|--- .... ....|D-3 2CEF ....
....|..|--- .... ....|--- .... ....|--- .... ....
....|..|--- .... ....|--- .... ....|D-3 2FEA ....
....|..|--- .... ....|--- .... ....|--- .... ....
 D-4|..|--- .... ....|--- .... ....|D-3 2CEF ....
....|..|--- .... ....|--- .... ....|--- .... ....
....|..|--- .... ....|--- .... ....|D-3 2FEA ....
....|..|--- .... ....|--- .... ....|--- .... ....
 D-4|..|--- .... ....|--- .... ....|D-3 2CEF ....
....|..|--- .... ....|--- .... ....|--- .... ....
....|..|--- .... ....|--- .... ....|D-3 2FEA ....
....|..|--- .... ....|--- .... ....|--- .... ....
 D-4|..|--- .... ....|--- .... ....|D-3 2CEF ....
....|..|--- .... ....|--- .... ....|--- .... ....
....|..|--- .... ....|--- .... ....|D-3 2FEA ....
....|..|--- .... ....|--- .... ....|--- .... ....
 D-4|..|--- .... ....|--- .... ....|D-3 2CEF ....
....|..|--- .... ....|--- .... ....|--- .... ....
 D-4|..|--- .... ....|--- .... ....|D-3 2CEF ....
....|..|--- .... ....|--- .... ....|--- .... ....

[Pattern47]
....|..|C-4 AF.F ....|D#2 2FF7 ....|--- .... ....
....|..|R-- .... ....|R-- .... ....|--- .... ....
....|..|C-5 VF.7 ....|D#2 2FF7 ....|--- .... ....
....|..|C-5 VF.7 ....|R-- .... ....|--- .... ....
....|..|C-4 AF.7 ....|D-2 2FF7 ....|--- .... ....
....|..|R-- .... ....|R-- .... ....|--- .... ....
....|..|C-4 AF.7 ....|D#2 2FF7 ....|--- .... ....
....|..|R-- .... ....|R-- .... ....|--- .... ....
....|..|C-4 AF.F ....|D#2 2FF7 ....|--- .... ....
....|..|R-- .... ....|R-- .... ....|--- .... ....
....|..|C-4 AF.7 ....|D#2 2FF7 ....|--- .... ....
....|..|R-- .... ....|R-- .... ....|--- .... ....
....|..|C-4 AF.7 ....|--- .... ....|--- .... ....
....|..|R-- .... ....|--- .... ....|--- .... ....
....|..|C-4 AF.A ....|--- .... ....|--- .... ....
....|..|R-- .... ....|--- .... ....|--- .... ....
....|..|C-4 CF.F ....|--- .... ....|--- .... ....
....|..|R-- .... ....|--- .... ....|--- .... ....
....|..|--- .... ....|--- .... ....|--- .... ....
....|..|--- .... ....|--- .... ....|--- .... ....
....|..|C-4 AF.7 ....|--- .... ....|--- .... ....
....|..|R-- .... ....|--- .... ....|--- .... ....
....|..|C-4 CF.A ....|--- .... ....|--- .... ....
....|..|R-- .... ....|--- .... ....|--- .... ....
....|..|C-4 AF.F ....|--- .... ....|--- .... ....
....|..|C-4 AF.F ....|--- .... ....|--- .... ....
....|..|R-- .... ....|--- .... ....|--- .... ....
....|..|--- .... ....|--- .... ....|--- .... ....
....|..|C-4 CF.7 ....|--- .... ....|--- .... ....
....|..|C-4 CF.F ....|--- .... ....|--- .... ....
....|..|C-4 AF.A ....|--- .... ....|--- .... ....
....|..|C-4 AF.A ....|--- .... ....|--- .... ....
....|..|C-4 AF.F ....|--- .... ....|--- .... ....
....|..|C-4 AF.F ....|--- .... ....|--- .... ....
....|..|R-- .... ....|--- .... ....|--- .... ....
....|..|C-4 CF.A ....|--- .... ....|--- .... ....
....|..|C-4 AF.7 ....|--- .... ....|--- .... ....
....|..|C-4 CF.F ....|--- .... ....|--- .... ....
....|..|C-4 AF.A ....|--- .... ....|--- .... ....
....|..|C-4 AF.A ....|--- .... ....|--- .... ....
....|..|C-4 AF.F ....|--- .... ....|--- .... ....
....|..|C-4 CF.7 ....|--- .... ....|--- .... ....
....|..|--- .... ....|--- .... ....|--- .... ....
....|..|C-4 CF.A ....|--- .... ....|--- .... ....
....|..|C-4 AF.7 ....|--- .... ....|--- .... ....
....|..|C-4 AF.7 ....|--- .... ....|--- .... ....
....|..|C-4 AF.A ....|--- .... ....|--- .... ....
....|..|R-- .... ....|--- .... ....|--- .... ....
....|..|C-4 CF.F ....|--- .... ....|--- .... ....
....|..|C-4 CF.7 ....|--- .... ....|--- .... ....
....|..|--- .... ....|--- .... ....|--- .... ....
....|..|R-- .... ....|--- .... ....|--- .... ....
....|..|C-4 AF.7 ....|--- .... ....|--- .... ....
....|..|R-- .... ....|--- .... ....|--- .... ....
....|..|C-4 CF.A ....|--- .... ....|--- .... ....
....|..|R-- .... ....|--- .... ....|--- .... ....
....|..|C-4 AF.F ....|--- .... ....|--- .... ....
....|..|C-4 AF.F ....|--- .... ....|--- .... ....
....|..|R-- .... ....|--- .... ....|--- .... ....
....|..|--- .... ....|--- .... ....|--- .... ....
....|..|C-4 CF.7 ....|--- .... ....|--- .... ....
....|..|C-4 CF.F ....|--- .... ....|--- .... ....
....|..|C-4 AF.A ....|--- .... ....|--- .... ....
....|..|C-4 AF.A ....|--- .... ....|--- .... ....
....|..|C-4 AF.F ....|--- .... ....|--- .... ....
....|..|R-- .... ....|--- .... ....|--- .... ....
....|..|--- .... ....|--- .... ....|--- .... ....
....|..|C-4 CF.A ....|--- .... ....|--- .... ....
....|..|C-4 AF.7 ....|--- .... ....|--- .... ....
....|..|C-4 AF.7 ....|--- .... ....|--- .... ....
....|..|C-4 AF.A ....|--- .... ....|--- .... ....
....|..|R-- .... ....|--- .... ....|--- .... ....
....|..|C-4 AF.F ....|--- .... ....|--- .... ....
....|..|C-4 CF.7 ....|--- .... ....|--- .... ....
....|..|--- .... ....|--- .... ....|--- .... ....
....|..|R-- .... ....|--- .... ....|--- .... ....
....|..|C-4 AF.7 ....|--- .... ....|--- .... ....
....|..|R-- .... ....|--- .... ....|--- .... ....
....|..|C-4 AF.A ....|--- .... ....|--- .... ....
....|..|R-- .... ....|--- .... ....|--- .... ....
....|..|C-4 CF.F ....|--- .... ....|--- .... ....
....|..|R-- .... ....|--- .... ....|--- .... ....
....|..|--- .... ....|--- .... ....|--- .... ....
....|..|--- .... ....|--- .... ....|--- .... ....
....|..|C-4 AF.7 ....|--- .... ....|--- .... ....
....|..|R-- .... ....|--- .... ....|--- .... ....
....|..|C-4 CF.A ....|--- .... ....|--- .... ....
....|..|R-- .... ....|--- .... ....|--- .... ....
....|..|--- .... ....|--- .... ....|--- .... ....
....|..|--- .... ....|--- .... ....|--- .... ....
....|..|--- .... ....|--- .... ....|--- .... ....
....|..|--- .... ....|--- .... ....|--- .... ....
....|..|C-4 CF.7 ....|--- .... ....|--- .... ....

