[Module]
VortexTrackerII=0
Version=3.5
Title=3me,1ms[3f],2m[1f]
Author=oisee ^ 4d 29.05.2010
NoteTable=4
ChipFreq=1750000
Speed=4
PlayOrder=L0,1,2,3,4,5,6,7,8,9,10,11,12,13,14,15,16,17,18,19,20,21,22,23



[Sample1]
TnE +000_ +00_ F_
TnE +000_ +00_ F_
TnE +000_ +00_ F_
TnE +000_ +00_ D_
TnE +000_ +00_ B_
TnE +000_ +00_ B_ L

[Sample2]
TnE +000_ +00_ F_ L

[Sample3]
TnE +001_ +00_ F_
TnE +002_ +00_ F_
TnE +001_ +00_ E_
TnE +002_ +00_ E_
TnE +000_ +00_ E_ L
TnE -001_ +00_ E_
TnE -002_ +00_ E_
TnE -001_ +00_ E_
TnE +000_ +00_ E_
TnE +001_ +00_ E_
TnE +002_ +00_ E_
TnE +001_ +00_ E_

[Sample4]
TnE +002_ +00_ D_
TnE +002_ +00_ D_
TnE +002_ +00_ C_
TnE +002_ +00_ B_
TnE +002_ +00_ A_ L
TnE +002_ +00_ A_
TnE +002_ +00_ A_
TnE +002_ +00_ A_
TnE +002_ +00_ A_
TnE +002_ +00_ A_
TnE +002_ +00_ A_
TnE +002_ +00_ A_

[Sample5]
TnE +000_ +00_ F_
TnE +000_ +00_ F_
tne +000_ +00_ 0_ L

[Sample6]
TnE -001_ +00_ F_ L

[Sample7]
TnE +006_ +00_ F_ L

[Sample8]
tNe +000_ +00_ F_
tNe +000_ +00_ B_
tNe +000_ +00_ 7_
tNe +000_ +00_ 6- L

[Sample9]
TnE +080_ +00_ F_
TnE +100_ +00_ E_
TnE +180_ +00_ E_
TnE +200_ +00_ E_
TnE +240_ +00_ D_
TnE +280_ +00_ D_
TnE +2C0_ +00_ D_
TnE +300_ +00_ C_
TnE +300_ +00_ C_
TnE +340_ +00_ C_
TnE +340_ +00_ C_
TnE +380_ +00_ B_
TnE +380_ +00_ B_
TnE +400_ +00_ B_
TnE +400_ +00_ B_
TnE +480_ +00_ A_
TnE +500_ +00_ 9_
TnE +580_ +00_ 7_
TnE +600_ +00_ 4_
TnE +680_ +00_ 1_
TnE +000_ +00_ 0_ L

[Sample10]
Tne +1C0_ +00_ F_
Tne +280_ +00_ E_
Tne +380_ +00_ C_
Tne +440_ +00_ A_
Tne +480_ +00_ 8_
TnE +000_ +00_ 0_ L

[Sample11]
TNe +200_ -0A_ F_
tNe +000_ +0F_ A_
TNe +200_ -07_ E_
tNe +000_ +0E_ B- L

[Sample12]
TNE +0A0_ +05_ F_
TNE +140_ +02_ D_
TNE +140_ +02_ B_
TNE +100_ +00_ A_ L
TNE +140_ +00_ A_
TNE +200_ +00_ A-

[Sample13]
Tne +200_ +00_ F_
Tne +2C0_ +00_ F_
Tne +380_ +00_ E_
Tne +500_ +00_ C_
Tne +520_ +00_ 9_
tne +000_ +00_ 0_ L

[Sample14]
TNE -100_ +00_ F_
TNE -100_ +00_ D_
TNE -100_ +00_ A_
TNE -100_ +00_ 5_
tne +000_ +00_ 0_ L

[Sample15]
TNE -100_ +00_ 5_
TNE -100_ +00_ 8_
TNE -100_ +00_ B_
TNE -100_ +00_ F_
TNe -100_ +00_ 9- L

[Sample16]
TnE +000_ +00_ C_
TnE +000_ +00_ E_
TnE +000_ +00_ F_
TnE +000_ +00_ F_
TnE +000_ +00_ E_
TnE +000_ +00_ D_
TnE +000_ +00_ C_
TnE +000_ +00_ C_ L
TnE +001_ +00_ C_
TnE +002_ +00_ C_
TnE +003_ +00_ C_
TnE +001_ +00_ C_
TnE +000_ +00_ C_
TnE -001_ +00_ C_
TnE -002_ +00_ C_
TnE -003_ +00_ C_
TnE -001_ +00_ C_
TnE +000_ +00_ C_
TnE +000_ +00_ C_

[Sample17]
Tne +1C0_ +00_ F_
Tne +280_ +00_ D_
Tne +380_ +00_ 7_
TNE +000_ +00_ 0_ L

[Sample18]
TnE -00C_ +00_ 0_ L

[Sample19]
TNe +000_ +00_ F_
TNe +000_ +00_ C_
TNe +000_ +00_ 6_
TNe +000_ +01_ A- L

[Sample20]
TNE +140_ +00_ F_
tNE +000_ +00_ B- L

[Sample21]
tNE +000_ +00_ D_
tNE +000_ +00_ 8_
tNE +000_ +00_ 1_
TNE +000_ +00_ 0_ L

[Sample22]
TnE +000_ +00_ D_ L
TnE +000_ +00_ D_
tne +000_ +00_ 9_
tne +000_ +00_ 9_
TnE +000_ +00_ D_
TnE +000_ +00_ D_
tne +000_ +00_ 9_
tne +000_ +00_ 9_
TnE +000_ +00_ D_
TnE +000_ +00_ D_
TnE +000_ +00_ D_
TnE +000_ +00_ D_
TnE +000_ +00_ D_
TnE +000_ +00_ D_
tne +000_ +00_ 9_
tne +000_ +00_ 9_

[Sample23]
TnE +000_ +00_ F_ L
TnE +010_ +01_ F_
TnE +010_ +01_ F_
TnE +010_ +01_ F_
TnE +010_ +01_ F_
TnE +000_ +00_ F_
TnE +000_ +00_ F_
TnE -010_ -01_ F_
TnE -010_ -01_ F_
TnE -010_ -01_ F_
TnE -010_ -01_ F_
TnE +000_ +00_ F_

[Sample24]
TNe +000_ -01_ C_
TNe +000_ -01_ D_
TNe +000_ -01_ E_
TNe +000_ -01_ F_
TNe +000_ -01_ F_
TNe +000_ -01_ F_
TNe +000_ -01_ F_
TNe +000_ -01_ F_
TNe +000_ -01_ E_
TNe +000_ -01_ E_
TNe +000_ -01_ E_
TNe +000_ -01_ F_
TNe +000_ -01_ F_ L

[Sample25]
TNE +000_ +00_ F_
TNE +000_ +00_ F_ L
TNE +000_ +00_ F_
TNE +000_ +00_ F_
TNE +000_ +00_ F-

[Sample26]
tne +000_ +00_ 0_ L

[Sample27]
TnE +100_ +05_ F_
TnE +200_ +02_ A_
TnE +300_ +02_ 7_
TNE +400_ +00_ 3- L

[Sample28]
tne +000_ +00_ 0_ L

[Sample29]
tnE +000_ +00_ 0_ L

[Sample30]
TNE +000_ +00_ C+ L

[Sample31]
TNe +1C0_ +00_ F_
Tne +280_ +00_ E_
Tne +380_ +00_ C_
Tne +440_ +00_ A_
Tne +480_ +00_ 8_
TnE +000_ +00_ 0_ L

[Pattern0]
....|..|--- .... ....|A-5 3FFF ....|--- .... ....
....|..|--- .... ....|--- .... ....|--- .... ....
....|..|--- .... ....|--- .... ....|--- .... ....
....|..|--- .... ....|--- .... ....|--- .... ....
....|..|--- .... ....|--- .... ....|--- .... ....
....|..|--- .... ....|--- .... ....|--- .... ....
....|..|--- .... ....|A-5 3FFA ....|--- .... ....
....|..|--- .... ....|--- .... ....|--- .... ....
....|..|--- .... ....|--- .... ....|--- .... ....
....|..|--- .... ....|--- .... ....|--- .... ....
....|..|--- .... ....|--- .... ....|--- .... ....
....|..|--- .... ....|A-5 3FFF ....|--- .... ....
....|..|--- .... ....|A-5 3FF7 ....|--- .... ....
....|..|--- .... ....|--- .... ....|--- .... ....
....|..|--- .... ....|--- .... ....|--- .... ....
....|..|--- .... ....|--- .... ....|--- .... ....
....|..|--- .... ....|--- .... ....|--- .... ....
....|..|--- .... ....|A-5 3FFA ....|--- .... ....
....|..|--- .... ....|--- .... ....|--- .... ....
....|..|--- .... ....|--- .... ....|--- .... ....
....|..|--- .... ....|--- .... ....|--- .... ....
....|..|--- .... ....|A-5 3FFF ....|--- .... ....
....|..|--- .... ....|--- .... ....|--- .... ....
....|..|--- .... ....|A-5 3FF7 ....|--- .... ....
....|..|--- .... ....|--- .... ....|--- .... ....
....|..|--- .... ....|--- .... ....|--- .... ....
....|..|--- .... ....|--- .... ....|--- .... ....
....|..|--- .... ....|A-5 3FFA ....|--- .... ....
....|..|--- .... ....|--- .... ....|--- .... ....
....|..|--- .... ....|--- .... ....|--- .... ....
....|..|--- .... ....|--- .... ....|--- .... ....
....|..|--- .... ....|--- .... ....|--- .... ....
....|..|--- .... ....|A-5 3FFF ....|--- .... ....
....|..|--- .... ....|A-5 3FF7 ....|--- .... ....
....|..|--- .... ....|--- .... ....|--- .... ....
....|..|--- .... ....|--- .... ....|--- .... ....
....|..|--- .... ....|--- .... ....|--- .... ....
....|..|--- .... ....|--- .... ....|--- .... ....
....|..|--- .... ....|A-5 3FFA ....|--- .... ....
....|..|--- .... ....|--- .... ....|--- .... ....
....|..|--- .... ....|--- .... ....|--- .... ....
....|..|--- .... ....|--- .... ....|--- .... ....
....|..|--- .... ....|--- .... ....|--- .... ....
....|..|--- .... ....|A-5 3FFF ....|--- .... ....
....|..|--- .... ....|A-5 3FF7 ....|--- .... ....
....|..|--- .... ....|--- .... ....|--- .... ....
....|..|--- .... ....|--- .... ....|--- .... ....
....|..|--- .... ....|--- .... ....|--- .... ....
....|..|--- .... ....|--- .... ....|--- .... ....
....|..|--- .... ....|A-5 3FFA ....|--- .... ....
....|..|--- .... ....|--- .... ....|--- .... ....
....|..|--- .... ....|--- .... ....|--- .... ....
....|..|--- .... ....|--- .... ....|--- .... ....
....|..|--- .... ....|A-5 3FFF ....|--- .... ....
....|..|--- .... ....|--- .... ....|--- .... ....
....|..|--- .... ....|A-5 3FF7 ....|--- .... ....
....|..|--- .... ....|--- .... ....|--- .... ....
....|..|--- .... ....|--- .... ....|--- .... ....
....|..|--- .... ....|--- .... ....|--- .... ....
....|..|--- .... ....|A-5 3FFA ....|--- .... ....
....|..|--- .... ....|--- .... ....|--- .... ....
....|..|--- .... ....|--- .... ....|--- .... ....
....|..|--- .... ....|--- .... ....|--- .... ....
....|..|--- .... ....|--- .... ....|--- .... ....

[Pattern1]
....|..|--- .... ....|A-5 3FFF ....|--- .... ....
....|..|--- .... ....|A-5 3FF7 ....|--- .... ....
....|..|--- .... ....|--- .... ....|--- .... ....
....|..|--- .... ....|--- .... ....|--- .... ....
....|..|--- .... ....|--- .... ....|--- .... ....
....|..|--- .... ....|--- .... ....|--- .... ....
....|..|--- .... ....|A-5 3FFA ....|--- .... ....
....|..|--- .... ....|--- .... ....|--- .... ....
....|..|--- .... ....|--- .... ....|--- .... ....
....|..|--- .... ....|--- .... ....|--- .... ....
....|..|--- .... ....|--- .... ....|--- .... ....
....|..|--- .... ....|A-5 3FFF ....|--- .... ....
....|..|--- .... ....|A-5 3FF7 ....|--- .... ....
....|..|--- .... ....|--- .... ....|--- .... ....
....|..|--- .... ....|--- .... ....|--- .... ....
....|..|--- .... ....|--- .... ....|--- .... ....
....|..|--- .... ....|--- .... ....|--- .... ....
....|..|--- .... ....|A-5 3FFA ....|--- .... ....
....|..|--- .... ....|--- .... ....|--- .... ....
....|..|--- .... ....|--- .... ....|--- .... ....
....|..|--- .... ....|--- .... ....|--- .... ....
....|..|--- .... ....|A-5 3FFF ....|--- .... ....
....|..|--- .... ....|--- .... ....|--- .... ....
....|..|--- .... ....|A-5 3FF7 ....|--- .... ....
....|..|--- .... ....|--- .... ....|--- .... ....
....|..|--- .... ....|--- .... ....|--- .... ....
....|..|--- .... ....|--- .... ....|--- .... ....
....|..|--- .... ....|A-5 3FFA ....|--- .... ....
....|..|--- .... ....|--- .... ....|--- .... ....
....|..|--- .... ....|--- .... ....|--- .... ....
....|..|--- .... ....|--- .... ....|--- .... ....
....|..|--- .... ....|--- .... ....|--- .... ....
 F#4|..|F#3 2C.F ....|C#6 3FFF ....|--- .... ....
....|..|--- .... ....|A-5 3FF7 ....|--- .... ....
....|..|--- .... ....|--- .... ....|--- .... ....
....|..|R-- .... ....|--- .... ....|C#4 1FFF ....
....|..|--- .... ....|--- .... ....|--- .... ....
....|..|--- .... ....|--- .... ....|F#4 1FFF ....
....|..|F#3 2F.A ....|C#6 3FFA ....|--- .... ....
....|..|--- .... ....|--- .... ....|--- .... ....
....|..|--- .... ....|--- .... ....|A-4 1FFF ....
....|..|R-- .... ....|--- .... ....|C#4 1FFA ....
....|..|--- .... ....|--- .... ....|--- .... ....
....|..|--- .... ....|--- .... ....|F#4 1FFF ....
....|..|F#3 2F.7 ....|C#6 3FF7 ....|--- .... ....
....|..|--- .... ....|--- .... ....|C#4 1FFF ....
....|..|--- .... ....|--- .... ....|A-4 1FFA ....
....|..|R-- .... ....|R-- .... ....|C#4 1FF7 ....
 F#4|..|F#3 2C.F ....|C#6 3FFF ....|R-- .... ....
....|..|--- .... ....|--- .... ....|F#4 1FF7 ....
....|..|--- .... ....|--- .... ....|--- .... ....
....|..|R-- .... ....|--- .... ....|C#4 1FFF ....
....|..|--- .... ....|--- .... ....|A-4 1FF7 ....
....|..|--- .... ....|R-- .... ....|F#4 1FFF ....
....|..|F#3 2F.A ....|C#6 3FFA ....|R-- .... ....
....|..|--- .... ....|R-- .... ....|F#4 1FF7 ....
....|..|--- .... ....|C#6 3FFF ....|A-4 1FFF ....
....|..|R-- .... ....|--- .... ....|C#4 1FF7 ....
....|..|--- .... ....|--- .... ....|--- .... ....
....|..|--- .... ....|R-- .... ....|F#4 1FFF ....
....|..|F#3 2F.7 ....|C#6 3FF7 ....|R-- .... ....
....|..|--- .... ....|R-- .... ....|C#4 1FFF ....
....|..|--- .... ....|C#6 3FFA ....|A-4 1FFA ....
....|..|R-- .... ....|--- .... ....|C#4 1FF7 ....

[Pattern2]
 E-4|..|E-3 2C.F ....|--- .... ....|R-- .... ....
....|..|--- .... ....|--- .... ....|F#4 1FF7 ....
....|..|--- .... ....|--- .... ....|--- .... ....
....|..|R-- .... ....|R-- .... ....|B-3 1FFF ....
....|..|--- .... ....|C#6 3FF7 ....|A-4 1FF7 ....
....|..|--- .... ....|--- .... ....|E-4 1FFF ....
....|..|E-3 2F.A ....|--- .... ....|R-- .... ....
....|..|--- .... ....|--- .... ....|F#4 1FF7 ....
....|..|--- .... ....|R-- .... ....|G#4 1FFF ....
....|..|R-- .... ....|--- .... ....|C#4 1FF7 ....
....|..|--- .... ....|--- .... ....|--- .... ....
....|..|--- .... ....|B-5 3FFF ....|E-4 1FFF ....
....|..|E-3 2F.7 ....|R-- .... ....|R-- .... ....
....|..|--- .... ....|A-5 3FFF ....|B-3 1FFF ....
....|..|--- .... ....|R-- .... ....|G#4 1FFA ....
....|..|R-- .... ....|--- .... ....|B-3 1FF7 ....
 E-4|..|E-3 2C.F ....|B-5 3FFF ....|R-- .... ....
....|..|--- .... ....|B-5 3FFA ....|E-4 1FF7 ....
....|..|--- .... ....|R-- .... ....|--- .... ....
....|..|R-- .... ....|A-5 3FFA ....|B-3 1FFF ....
....|..|--- .... ....|R-- .... ....|G#4 1FF7 ....
....|..|--- .... ....|--- .... ....|E-4 1FFF ....
....|..|E-3 2F.A ....|B-5 3FFA ....|R-- .... ....
....|..|--- .... ....|B-5 3FF7 ....|E-4 1FF7 ....
....|..|--- .... ....|R-- .... ....|G#4 1FFF ....
....|..|R-- .... ....|A-5 3FF7 ....|B-3 1FF7 ....
....|..|--- .... ....|R-- .... ....|--- .... ....
....|..|--- .... ....|--- .... ....|E-4 1FFF ....
....|..|E-3 2F.7 ....|B-5 3FF7 ....|R-- .... ....
....|..|--- .... ....|--- .... ....|B-3 1FFF ....
....|..|--- .... ....|R-- .... ....|G#4 1FFA ....
....|..|R-- .... ....|--- .... ....|B-3 1FF7 ....
 F#4|..|F#3 2C.F ....|A-5 3FFF ....|R-- .... ....
....|..|--- .... ....|--- .... ....|E-4 1FF7 ....
....|..|--- .... ....|--- .... ....|--- .... ....
....|..|R-- .... ....|--- .... ....|C#4 1FFF ....
....|..|--- .... ....|R-- .... ....|G#4 1FF7 ....
....|..|--- .... ....|--- .... ....|F#4 1FFF ....
....|..|F#3 2F.A ....|A-5 3FFA ....|R-- .... ....
....|..|--- .... ....|--- .... ....|E-4 1FF7 ....
....|..|--- .... ....|F#5 3FFF ....|A-4 1FFF ....
....|..|R-- .... ....|--- .... ....|B-3 1FF7 ....
....|..|--- .... ....|R-- .... ....|--- .... ....
....|..|--- .... ....|--- .... ....|F#4 1FFF ....
....|..|F#3 2F.7 ....|A-5 3FF7 ....|R-- .... ....
....|..|--- .... ....|--- .... ....|C#4 1FFF ....
....|..|--- .... ....|F#5 3FFA ....|A-4 1FFA ....
....|..|R-- .... ....|--- .... ....|C#4 1FF7 ....
 F#4|..|F#3 2C.F ....|R-- .... ....|R-- .... ....
....|..|--- .... ....|--- .... ....|F#4 1FF7 ....
....|..|--- .... ....|--- .... ....|--- .... ....
....|..|R-- .... ....|--- .... ....|C#4 1FFF ....
....|..|--- .... ....|F#5 3FF7 ....|A-4 1FF7 ....
....|..|--- .... ....|--- .... ....|F#4 1FFF ....
....|..|F#3 2F.A ....|--- .... ....|R-- .... ....
....|..|--- .... ....|--- .... ....|F#4 1FF7 ....
....|..|--- .... ....|G#5 3FFF ....|A-4 1FFF ....
....|..|R-- .... ....|--- .... ....|C#4 1FF7 ....
....|..|--- .... ....|R-- .... ....|--- .... ....
....|..|--- .... ....|R-- .... ....|F#4 1FFF ....
....|..|F#3 2F.7 ....|--- .... ....|R-- .... ....
....|..|--- .... ....|A-5 3FFF ....|C#4 1FFF ....
....|..|--- .... ....|G#5 3FFA ....|A-4 1FFA ....
....|..|R-- .... ....|R-- .... ....|C#4 1FF7 ....

[Pattern3]
....|..|--- .... ....|A-5 3FFF ....|B-3 1FFF ....
....|..|--- .... ....|R-- .... ....|F#4 1FF7 ....
....|..|--- .... ....|--- .... ....|--- .... ....
....|..|--- .... ....|A-5 3FFA ....|F#4 1FFF ....
....|..|--- .... ....|G#5 3FF7 ....|A-4 1FF7 ....
....|..|--- .... ....|R-- .... ....|A-4 1FFF ....
....|..|--- .... ....|A-5 3FFA ....|B-3 1FFA ....
....|..|--- .... ....|R-- .... ....|F#4 1FF7 ....
....|..|--- .... ....|D-5 3FFF ....|B-4 1FFF ....
....|..|--- .... ....|A-5 3FF7 ....|C#4 1FF7 ....
....|..|--- .... ....|--- .... ....|--- .... ....
....|..|--- .... ....|R-- .... ....|A-4 1FFF ....
....|..|--- .... ....|A-5 3FF7 ....|B-3 1FF7 ....
....|..|--- .... ....|--- .... ....|F#4 1FFF ....
....|..|--- .... ....|D-5 3FFA ....|B-4 1FFA ....
....|..|--- .... ....|--- .... ....|F#4 1FF7 ....
 E-4|..|E-3 2C.F ....|--- .... ....|R-- .... ....
....|..|--- .... ....|R-- .... ....|A-4 1FF7 ....
....|..|--- .... ....|--- .... ....|--- .... ....
....|..|R-- .... ....|--- .... ....|B-3 1FFF ....
....|..|--- .... ....|D-5 3FF7 ....|B-4 1FF7 ....
....|..|--- .... ....|--- .... ....|D-4 1FFF ....
....|..|E-3 2F.A ....|--- .... ....|R-- .... ....
....|..|--- .... ....|--- .... ....|A-4 1FF7 ....
....|..|--- .... ....|G#5 3FFF ....|E-4 1FFF ....
....|..|R-- .... ....|--- .... ....|F#4 1FF7 ....
....|..|--- .... ....|R-- .... ....|--- .... ....
....|..|--- .... ....|--- .... ....|D-4 1FFF ....
....|..|E-3 2F.7 ....|R-- .... ....|R-- .... ....
....|..|--- .... ....|F#5 3FFF ....|B-3 1FFF ....
....|..|--- .... ....|G#5 3FFA ....|E-4 1FFA ....
....|..|R-- .... ....|R-- .... ....|B-3 1FF7 ....
....|..|--- .... ....|G#5 3FFF ....|A-3 1FFF ....
....|..|--- .... ....|--- .... ....|D-4 1FF7 ....
....|..|--- .... ....|R-- .... ....|--- .... ....
....|..|--- .... ....|F#5 3FFA ....|C#4 1FFF ....
....|..|--- .... ....|G#5 3FF7 ....|E-4 1FF7 ....
....|..|--- .... ....|R-- .... ....|E-4 1FFF ....
....|..|--- .... ....|G#5 3FFA ....|A-3 1FFA ....
....|..|--- .... ....|--- .... ....|D-4 1FF7 ....
....|..|--- .... ....|C#5 3FFF ....|G#4 1FFF ....
....|..|--- .... ....|F#5 3FF7 ....|B-3 1FF7 ....
....|..|--- .... ....|--- .... ....|--- .... ....
....|..|--- .... ....|R-- .... ....|E-4 1FFF ....
....|..|--- .... ....|G#5 3FF7 ....|A-3 1FF7 ....
....|..|--- .... ....|--- .... ....|C#4 1FFF ....
....|..|--- .... ....|C#5 3FFA ....|G#4 1FFA ....
....|..|--- .... ....|--- .... ....|C#4 1FF7 ....
....|..|--- .... ....|--- .... ....|F#4 1FFF ....
....|..|--- .... ....|--- .... ....|E-4 1FF7 ....
....|..|--- .... ....|R-- .... ....|--- .... ....
....|..|--- .... ....|--- .... ....|E-4 1FFF ....
....|..|--- .... ....|C#5 3FF7 ....|G#4 1FF7 ....
....|..|--- .... ....|--- .... ....|C#4 1FFF ....
....|..|--- .... ....|--- .... ....|F#4 1FFA ....
....|..|--- .... ....|--- .... ....|E-4 1FF7 ....
....|..|--- .... ....|--- .... ....|G#4 1FFF ....
....|..|--- .... ....|--- .... ....|C#4 1FF7 ....
....|..|--- .... ....|--- .... ....|--- .... ....
....|..|--- .... ....|--- .... ....|E-4 1FFF ....
....|..|--- .... ....|--- .... ....|F#4 1FF7 ....
....|..|--- .... ....|--- .... ....|C#4 1FFF ....
....|..|--- .... ....|R-- .... ....|G#4 1FFA ....
....|..|--- .... ....|--- .... ....|E-4 1FF7 ....

[Pattern4]
 D-4|..|D-3 2C.F ....|--- .... ....|R-- .... ....
....|..|--- .... ....|--- .... ....|C#4 1FF7 ....
....|..|--- .... ....|--- .... ....|--- .... ....
 F#4|..|F#3 2C.F ....|--- .... ....|C#4 1FFA ....
....|..|--- .... ....|R-- .... ....|G#4 1FF7 ....
....|..|R-- .... ....|--- .... ....|A-3 1FFF ....
....|..|D-3 2F.A ....|--- .... ....|R-- .... ....
....|..|--- .... ....|--- .... ....|E-4 1FF7 ....
....|..|--- .... ....|F#5 3FFF ....|C#4 1FFF ....
....|..|F#3 2F.A ....|--- .... ....|C#4 1FF7 ....
....|..|--- .... ....|R-- .... ....|--- .... ....
....|..|R-- .... ....|--- .... ....|A-3 1FFF ....
....|..|D-3 2F.7 ....|R-- .... ....|R-- .... ....
 F#4|..|F#3 2C.F ....|E-5 3FFF ....|R-- .... ....
....|..|--- .... ....|F#5 3FFA ....|C#4 1FFA ....
....|..|F#3 2F.7 ....|R-- .... ....|--- .... ....
 G#4|..|G#2 2A.F ....|F#5 3FFF ....|--- .... ....
....|..|R-- .... ....|--- .... ....|A-3 1FF7 ....
....|..|--- .... ....|R-- .... ....|--- .... ....
 D-4|..|D-3 2C.F ....|E-5 3FFA ....|R-- .... ....
....|..|--- .... ....|F#5 3FF7 ....|C#4 1FF7 ....
 F#4|..|F#3 2C.F ....|R-- .... ....|--- .... ....
....|..|G#2 2F.A ....|F#5 3FFA ....|--- .... ....
....|..|--- .... ....|--- .... ....|A-3 1FF7 ....
....|..|R-- .... ....|B-4 3FFF ....|B-3 1FFF ....
....|..|F#3 2F.7 ....|E-5 3FF7 ....|R-- .... ....
....|..|--- .... ....|--- .... ....|--- .... ....
 F#4|..|F#3 2C.F ....|R-- .... ....|R-- .... ....
....|..|G#2 2F.7 ....|F#5 3FF7 ....|--- .... ....
 D-4|..|D-3 2C.F ....|--- .... ....|--- .... ....
....|..|R-- .... ....|B-4 3FFA ....|B-3 1FFA ....
....|..|D-3 2F.7 ....|--- .... ....|--- .... ....
 C#4|..|C#3 2C.F ....|--- .... ....|--- .... ....
....|..|F#3 2F.7 ....|--- .... ....|R-- .... ....
....|..|--- .... ....|--- .... ....|--- .... ....
 F#4|..|F#3 2C.F ....|--- .... ....|--- .... ....
....|..|R-- .... ....|B-4 3FF7 ....|B-3 1FF7 ....
....|..|R-- .... ....|--- .... ....|G#3 1FFF ....
....|..|C#3 2F.A ....|--- .... ....|--- .... ....
....|..|F#3 2F.7 ....|--- .... ....|R-- .... ....
....|..|--- .... ....|C#6 3FFF ....|C#4 1FFF ....
....|..|D-3 2F.7 ....|--- .... ....|--- .... ....
....|..|--- .... ....|--- .... ....|--- .... ....
....|..|R-- .... ....|--- .... ....|G#3 1FFF ....
....|..|C#3 2F.7 ....|--- .... ....|--- .... ....
 F#4|..|F#3 2C.F ....|--- .... ....|R-- .... ....
....|..|--- .... ....|C#6 3FFA ....|C#4 1FFA ....
....|..|F#3 2F.7 ....|R-- .... ....|--- .... ....
 C#4|..|C#3 2C.F ....|B-5 3FFF ....|--- .... ....
....|..|R-- .... ....|--- .... ....|G#3 1FF7 ....
....|..|--- .... ....|--- .... ....|--- .... ....
 F#4|..|F#3 2C.F ....|--- .... ....|R-- .... ....
....|..|--- .... ....|C#6 3FF7 ....|C#4 1FF7 ....
....|..|R-- .... ....|R-- .... ....|G#3 1FFF ....
....|..|C#3 2F.A ....|B-5 3FFA ....|--- .... ....
....|..|--- .... ....|R-- .... ....|G#3 1FF7 ....
....|..|--- .... ....|--- .... ....|C#4 1FFF ....
....|..|F#3 2F.7 ....|--- .... ....|R-- .... ....
....|..|--- .... ....|--- .... ....|--- .... ....
....|..|R-- .... ....|R-- .... ....|G#3 1FFF ....
....|..|C#3 2F.7 ....|B-5 3FF7 ....|--- .... ....
 F#4|..|F#3 2C.F ....|R-- .... ....|R-- .... ....
....|..|--- .... ....|--- .... ....|C#4 1FFA ....
....|..|F#3 2F.7 ....|--- .... ....|--- .... ....

[Pattern5]
 C#4|..|C#2 2A.F ....|C#6 3FFF ....|--- .... ....
....|..|R-- .... ....|B-5 3FFF ....|G#3 1FF7 ....
....|..|--- .... ....|C#6 3FFF ....|--- .... ....
 G#4|..|G#2 2A.F ....|R-- .... ....|R-- .... ....
....|..|--- .... ....|--- .... ....|C#4 1FF7 ....
 C#4|..|C#3 2C.F ....|--- .... ....|--- .... ....
....|..|C#2 2F.A ....|C#6 3FFA ....|--- .... ....
....|..|--- .... ....|B-5 3FFA ....|G#3 1FF7 ....
 F-4|..|F-3 2C.F ....|C#6 3FFA ....|--- .... ....
....|..|F#3 2F.7 ....|--- .... ....|R-- .... ....
....|..|--- .... ....|--- .... ....|--- .... ....
....|..|C#3 2F.A ....|--- .... ....|G#3 1FFF ....
....|..|C#2 2F.7 ....|C#6 3FF7 ....|--- .... ....
....|..|--- .... ....|B-5 3FF7 ....|C#4 1FFF ....
....|..|F-3 2F.A ....|C#6 3FF7 ....|--- .... ....
....|..|G#2 2F.7 ....|--- .... ....|--- .... ....
....|..|--- .... ....|--- .... ....|F-4 1FFF ....
....|..|C#3 2F.7 ....|--- .... ....|G#3 1FFA ....
....|..|--- .... ....|--- .... ....|--- .... ....
....|..|--- .... ....|--- .... ....|C#4 1FFF ....
....|..|F-3 2F.7 ....|--- .... ....|--- .... ....
....|..|--- .... ....|--- .... ....|G#3 1FFF ....
....|..|--- .... ....|--- .... ....|F-4 1FFA ....
....|..|R-- .... ....|--- .... ....|G#3 1FF7 ....
....|..|--- .... ....|--- .... ....|B-3 1FFF ....
....|..|--- .... ....|--- .... ....|C#4 1FF7 ....
....|..|--- .... ....|--- .... ....|--- .... ....
....|..|--- .... ....|--- .... ....|G#3 1FFF ....
....|..|--- .... ....|--- .... ....|F-4 1FF7 ....
 C#4|..|C#3 2C.F ....|--- .... ....|R-- .... ....
....|..|--- .... ....|--- .... ....|B-3 1FFA ....
....|..|--- .... ....|R-- .... ....|C#4 1FF7 ....
 F#4|..|F#2 2A.F ....|C#6 3FFF ....|--- .... ....
....|..|--- .... ....|--- .... ....|G#3 1FF7 ....
....|..|--- .... ....|--- .... ....|--- .... ....
 C#4|..|C#3 2C.F ....|--- .... ....|R-- .... ....
....|..|--- .... ....|--- .... ....|B-3 1FF7 ....
 F#4|..|F#3 2C.F ....|R-- .... ....|--- .... ....
....|..|F#2 2F.A ....|C#6 3FFA ....|--- .... ....
....|..|--- .... ....|--- .... ....|G#3 1FF7 ....
....|..|R-- .... ....|--- .... ....|A-3 1FFF ....
....|..|C#3 2F.7 ....|--- .... ....|R-- .... ....
....|..|--- .... ....|--- .... ....|--- .... ....
....|..|F#3 2F.A ....|R-- .... ....|C#4 1FFF ....
....|..|F#2 2F.7 ....|C#6 3FF7 ....|--- .... ....
....|..|--- .... ....|--- .... ....|F#4 1FFF ....
....|..|R-- .... ....|--- .... ....|A-3 1FFA ....
....|..|C#3 2F.7 ....|R-- .... ....|--- .... ....
....|..|--- .... ....|C#6 3FFF ....|A-4 1FFF ....
....|..|F#3 2F.7 ....|--- .... ....|C#4 1FFA ....
....|..|--- .... ....|--- .... ....|--- .... ....
....|..|--- .... ....|--- .... ....|F#4 1FFF ....
....|..|R-- .... ....|--- .... ....|A-3 1FF7 ....
....|..|--- .... ....|R-- .... ....|C#4 1FFF ....
....|..|--- .... ....|C#6 3FFA ....|A-4 1FFA ....
....|..|--- .... ....|R-- .... ....|C#4 1FF7 ....
....|..|--- .... ....|C#6 3FFF ....|A-3 1FFF ....
....|..|--- .... ....|--- .... ....|F#4 1FF7 ....
....|..|--- .... ....|--- .... ....|--- .... ....
 F#4|..|F#3 2C.F ....|R-- .... ....|C#4 1FFA ....
....|..|--- .... ....|C#6 3FF7 ....|A-4 1FF7 ....
 C#4|..|C#3 2C.F ....|R-- .... ....|--- .... ....
....|..|--- .... ....|C#6 3FFA ....|A-3 1FFA ....
....|..|--- .... ....|--- .... ....|F#4 1FF7 ....

[Pattern6]
 E-4|..|E-2 2A.F ....|--- .... ....|--- .... ....
....|..|F#3 2F.A ....|--- .... ....|C#4 1FF7 ....
....|..|--- .... ....|--- .... ....|--- .... ....
 B-4|..|B-2 2A.F ....|R-- .... ....|--- .... ....
....|..|--- .... ....|C#6 3FF7 ....|A-3 1FF7 ....
 E-4|..|E-3 2C.F ....|--- .... ....|--- .... ....
....|..|E-2 2F.A ....|--- .... ....|--- .... ....
....|..|F#3 2F.7 ....|--- .... ....|R-- .... ....
....|..|R-- .... ....|R-- .... ....|G#3 1FFF ....
....|..|C#3 2F.7 ....|--- .... ....|--- .... ....
....|..|--- .... ....|--- .... ....|--- .... ....
....|..|E-3 2F.A ....|B-5 3FFF ....|B-3 1FFF ....
....|..|E-2 2F.7 ....|--- .... ....|--- .... ....
....|..|--- .... ....|A-5 3FFF ....|E-4 1FFF ....
....|..|R-- .... ....|R-- .... ....|G#3 1FFA ....
....|..|B-2 2F.7 ....|R-- .... ....|--- .... ....
....|..|--- .... ....|B-5 3FFF ....|G#4 1FFF ....
....|..|E-3 2F.7 ....|B-5 3FFA ....|B-3 1FFA ....
....|..|--- .... ....|--- .... ....|--- .... ....
....|..|--- .... ....|A-5 3FFA ....|E-4 1FFF ....
....|..|R-- .... ....|R-- .... ....|G#3 1FF7 ....
....|..|--- .... ....|R-- .... ....|B-3 1FFF ....
....|..|--- .... ....|B-5 3FFA ....|G#4 1FFA ....
....|..|--- .... ....|B-5 3FF7 ....|B-3 1FF7 ....
....|..|--- .... ....|--- .... ....|G#3 1FFF ....
....|..|--- .... ....|A-5 3FF7 ....|E-4 1FF7 ....
....|..|--- .... ....|--- .... ....|--- .... ....
 E-4|..|E-3 2C.F ....|R-- .... ....|B-3 1FFA ....
....|..|--- .... ....|B-5 3FF7 ....|G#4 1FF7 ....
 B-4|..|B-2 2A.F ....|--- .... ....|--- .... ....
....|..|--- .... ....|R-- .... ....|G#3 1FFA ....
....|..|--- .... ....|--- .... ....|E-4 1FF7 ....
 D-4|..|D-2 2A.F ....|A-5 3FFF ....|--- .... ....
....|..|E-3 2F.A ....|--- .... ....|B-3 1FF7 ....
....|..|--- .... ....|--- .... ....|--- .... ....
 A-3|..|A-2 2C.F ....|--- .... ....|--- .... ....
....|..|--- .... ....|R-- .... ....|G#3 1FF7 ....
 D-4|..|D-3 2C.F ....|--- .... ....|--- .... ....
....|..|D-2 2F.A ....|A-5 3FFA ....|--- .... ....
....|..|E-3 2F.7 ....|--- .... ....|R-- .... ....
 F#4|..|F#3 2C.F ....|F#6 3FFF ....|--- .... ....
....|..|B-2 2F.7 ....|--- .... ....|--- .... ....
....|..|--- .... ....|R-- .... ....|--- .... ....
....|..|D-3 2F.A ....|--- .... ....|A-3 1FFF ....
....|..|D-2 2F.7 ....|A-5 3FF7 ....|--- .... ....
....|..|--- .... ....|--- .... ....|D-4 1FFF ....
....|..|F#3 2F.A ....|F#6 3FFA ....|--- .... ....
....|..|A-2 2F.7 ....|--- .... ....|--- .... ....
....|..|--- .... ....|--- .... ....|F#4 1FFF ....
....|..|D-3 2F.7 ....|--- .... ....|A-3 1FFA ....
....|..|--- .... ....|R-- .... ....|--- .... ....
....|..|--- .... ....|--- .... ....|D-4 1FFF ....
....|..|F#3 2F.7 ....|F#6 3FF7 ....|--- .... ....
....|..|--- .... ....|--- .... ....|A-3 1FFF ....
....|..|--- .... ....|--- .... ....|F#4 1FFA ....
....|..|R-- .... ....|--- .... ....|A-3 1FF7 ....
 F#4|..|F#3 2C.F ....|G#5 3FFF ....|R-- .... ....
....|..|--- .... ....|--- .... ....|D-4 1FF7 ....
....|..|--- .... ....|--- .... ....|--- .... ....
 D-4|..|D-3 2C.F ....|--- .... ....|A-3 1FFA ....
....|..|--- .... ....|R-- .... ....|F#4 1FF7 ....
 A-3|..|A-2 2C.F ....|A-5 3FFF ....|--- .... ....
....|..|F#3 2F.A ....|G#5 3FFA ....|R-- .... ....
....|..|--- .... ....|R-- .... ....|D-4 1FF7 ....

[Pattern7]
 B-4|..|B-2 2A.F ....|D-5 3FFF ....|--- .... ....
....|..|D-3 2F.A ....|--- .... ....|A-3 1FF7 ....
....|..|--- .... ....|R-- .... ....|--- .... ....
 F#4|..|F#3 2C.F ....|A-5 3FFA ....|--- .... ....
....|..|F#3 2F.7 ....|G#5 3FF7 ....|R-- .... ....
....|..|R-- .... ....|R-- .... ....|G#3 1FFF ....
....|..|B-2 2F.A ....|D-5 3FFA ....|--- .... ....
....|..|D-3 2F.7 ....|--- .... ....|--- .... ....
....|..|--- .... ....|R-- .... ....|D-4 1FFF ....
....|..|A-2 2F.7 ....|A-5 3FF7 ....|--- .... ....
....|..|--- .... ....|--- .... ....|--- .... ....
....|..|R-- .... ....|R-- .... ....|G#3 1FFF ....
....|..|B-2 2F.7 ....|D-5 3FF7 ....|--- .... ....
 F#4|..|F#3 2C.F ....|R-- .... ....|R-- .... ....
....|..|--- .... ....|--- .... ....|D-4 1FFA ....
....|..|F#3 2F.7 ....|--- .... ....|--- .... ....
 E-4|..|E-3 2C.F ....|G#5 3FFF ....|--- .... ....
....|..|R-- .... ....|G#5 3FFF ....|G#3 1FF7 ....
....|..|--- .... ....|F#5 3FFF ....|--- .... ....
....|..|F#3 2F.A ....|G#5 3FFF ....|G#3 1FFF ....
....|..|--- .... ....|R-- .... ....|D-4 1FF7 ....
....|..|--- .... ....|G#5 3FFF ....|B-3 1FFF ....
....|..|E-3 2F.A ....|G#5 3FFF ....|--- .... ....
....|..|--- .... ....|F#5 3FFF ....|G#3 1FF7 ....
....|..|--- .... ....|G#5 3FFF ....|D-4 1FFF ....
....|..|F#3 2F.7 ....|G#5 3FFA ....|G#3 1FFA ....
....|..|--- .... ....|R-- .... ....|--- .... ....
....|..|--- .... ....|G#5 3FFF ....|B-3 1FFF ....
....|..|E-3 2F.7 ....|F#5 3FFF ....|--- .... ....
....|..|--- .... ....|G#5 3FFF ....|G#3 1FFF ....
....|..|--- .... ....|F#5 3FF7 ....|D-4 1FFA ....
....|..|R-- .... ....|G#5 3FF7 ....|G#3 1FF7 ....
 A-3|..|A-2 2C.F ....|G#5 3FFF ....|R-- .... ....
....|..|--- .... ....|G#5 3FF7 ....|B-3 1FF7 ....
....|..|--- .... ....|G#5 3FF7 ....|--- .... ....
 E-4|..|E-3 2C.F ....|F#5 3FF7 ....|G#3 1FFA ....
....|..|--- .... ....|G#5 3FF7 ....|D-4 1FF7 ....
....|..|R-- .... ....|R-- .... ....|A-3 1FFF ....
....|..|A-2 2F.A ....|G#5 3FFA ....|R-- .... ....
....|..|--- .... ....|G#5 3FF7 ....|B-3 1FF7 ....
....|..|--- .... ....|C#5 3FFF ....|C#4 1FFF ....
....|..|E-3 2F.A ....|G#5 3FF7 ....|G#3 1FF7 ....
....|..|--- .... ....|R-- .... ....|--- .... ....
....|..|R-- .... ....|--- .... ....|A-3 1FFF ....
....|..|A-2 2F.7 ....|G#5 3FF7 ....|R-- .... ....
 E-4|..|E-3 2C.F ....|R-- .... ....|R-- .... ....
....|..|--- .... ....|C#5 3FFA ....|C#4 1FFA ....
....|..|E-3 2F.7 ....|--- .... ....|--- .... ....
 A-3|..|A-2 2C.F ....|--- .... ....|--- .... ....
....|..|R-- .... ....|--- .... ....|A-3 1FF7 ....
....|..|--- .... ....|--- .... ....|--- .... ....
 E-4|..|E-3 2C.F ....|R-- .... ....|R-- .... ....
....|..|--- .... ....|C#5 3FF7 ....|C#4 1FF7 ....
....|..|R-- .... ....|--- .... ....|A-3 1FFF ....
....|..|A-2 2F.A ....|--- .... ....|--- .... ....
....|..|--- .... ....|--- .... ....|A-3 1FF7 ....
....|..|--- .... ....|--- .... ....|C#4 1FFF ....
....|..|E-3 2F.7 ....|--- .... ....|R-- .... ....
....|..|--- .... ....|--- .... ....|--- .... ....
....|..|R-- .... ....|--- .... ....|A-3 1FFF ....
....|..|A-2 2F.7 ....|R-- .... ....|--- .... ....
 E-4|..|E-3 2C.F ....|--- .... ....|R-- .... ....
....|..|--- .... ....|--- .... ....|C#4 1FFA ....
....|..|E-3 2F.7 ....|--- .... ....|--- .... ....

[Pattern8]
 D-4|..|D-3 2C.F ....|F#5 3FFF ....|--- .... ....
....|..|R-- .... ....|--- .... ....|A-3 1FF7 ....
....|..|--- .... ....|R-- .... ....|--- .... ....
 F#4|..|F#3 2C.F ....|--- .... ....|R-- .... ....
....|..|--- .... ....|--- .... ....|C#4 1FF7 ....
....|..|R-- .... ....|--- .... ....|A-3 1FFF ....
....|..|D-3 2F.A ....|F#5 3FFA ....|--- .... ....
....|..|--- .... ....|--- .... ....|A-3 1FF7 ....
....|..|--- .... ....|R-- .... ....|D-4 1FFF ....
....|..|E-3 2F.7 ....|--- .... ....|R-- .... ....
....|..|--- .... ....|--- .... ....|--- .... ....
....|..|R-- .... ....|--- .... ....|A-3 1FFF ....
....|..|D-3 2F.7 ....|F#5 3FF7 ....|--- .... ....
 F#4|..|F#3 2C.F ....|--- .... ....|R-- .... ....
....|..|--- .... ....|--- .... ....|D-4 1FFA ....
....|..|F#3 2F.7 ....|R-- .... ....|--- .... ....
 D-4|..|D-3 2C.F ....|F#5 3FFF ....|--- .... ....
....|..|R-- .... ....|--- .... ....|A-3 1FF7 ....
....|..|--- .... ....|E-5 3FFF ....|--- .... ....
 F#4|..|F#3 2C.F ....|F#5 3FFF ....|R-- .... ....
....|..|--- .... ....|R-- .... ....|D-4 1FF7 ....
....|..|R-- .... ....|F#5 3FFF ....|A-3 1FFF ....
....|..|D-3 2F.A ....|F#5 3FFA ....|--- .... ....
....|..|--- .... ....|E-5 3FFF ....|A-3 1FF7 ....
....|..|--- .... ....|F#5 3FFF ....|D-4 1FFF ....
....|..|F#3 2F.7 ....|F#5 3FFA ....|R-- .... ....
....|..|--- .... ....|R-- .... ....|--- .... ....
....|..|R-- .... ....|F#5 3FFF ....|A-3 1FFF ....
....|..|D-3 2F.7 ....|E-5 3FFF ....|--- .... ....
 F#4|..|F#3 2C.F ....|E-5 3FFA ....|R-- .... ....
....|..|--- .... ....|F#5 3FFF ....|D-4 1FFA ....
....|..|F#3 2F.7 ....|F#5 3FF7 ....|--- .... ....
....|..|R-- .... ....|B-4 3FFF ....|--- .... ....
 G#4|..|G#2 2A.F ....|F#5 3FF7 ....|A-3 1FF7 ....
....|..|--- .... ....|E-5 3FFA ....|--- .... ....
 D-4|..|D-3 2C.F ....|E-5 3FF7 ....|R-- .... ....
....|..|--- .... ....|F#5 3FF7 ....|D-4 1FF7 ....
....|..|--- .... ....|R-- .... ....|--- .... ....
 F#4|..|F#3 2C.F ....|B-4 3FFA ....|--- .... ....
....|..|G#2 2F.A ....|F#5 3FF7 ....|A-3 1FF7 ....
....|..|--- .... ....|E-5 3FF7 ....|--- .... ....
....|..|F#3 2F.7 ....|R-- .... ....|B-3 1FFF ....
....|..|--- .... ....|B-4 3FFF ....|--- .... ....
 F#4|..|F#3 2C.F ....|--- .... ....|R-- .... ....
....|..|F#3 2F.A ....|B-4 3FF7 ....|--- .... ....
....|..|G#2 2F.7 ....|--- .... ....|--- .... ....
 D-4|..|D-3 2C.F ....|--- .... ....|--- .... ....
....|..|D-3 2F.7 ....|R-- .... ....|B-3 1FFA ....
....|..|--- .... ....|B-4 3FFA ....|--- .... ....
 G#4|..|G#2 2A.F ....|--- .... ....|R-- .... ....
....|..|F#3 2F.7 ....|--- .... ....|--- .... ....
 D-4|..|D-3 2C.F ....|--- .... ....|--- .... ....
....|..|D-3 2F.A ....|--- .... ....|--- .... ....
....|..|R-- .... ....|R-- .... ....|B-3 1FF7 ....
 F#4|..|F#3 2C.F ....|B-4 3FF7 ....|--- .... ....
....|..|F#3 2F.7 ....|--- .... ....|R-- .... ....
....|..|--- .... ....|--- .... ....|--- .... ....
....|..|D-3 2F.A ....|--- .... ....|B-3 1FFF ....
....|..|D-3 2F.7 ....|--- .... ....|--- .... ....
 F#4|..|F#3 2C.F ....|--- .... ....|R-- .... ....
....|..|F#3 2F.A ....|--- .... ....|--- .... ....
....|..|G#2 2F.7 ....|R-- .... ....|--- .... ....
 D-4|..|D-3 2C.F ....|--- .... ....|--- .... ....
....|..|D-3 2F.7 ....|--- .... ....|B-3 1FFA ....

[Pattern9]
....|..|--- .... ....|--- .... ....|--- .... ....
 C#4|..|C#2 2A.F ....|F-5 3FFF ....|R-- .... ....
....|..|F#3 2F.7 ....|--- .... ....|--- .... ....
 G#4|..|G#2 2A.F ....|R-- .... ....|--- .... ....
....|..|D-3 2F.A ....|--- .... ....|--- .... ....
....|..|R-- .... ....|--- .... ....|B-3 1FF7 ....
 C#4|..|C#3 2C.F ....|--- .... ....|--- .... ....
....|..|F#3 2F.7 ....|F-5 3FFA ....|R-- .... ....
....|..|--- .... ....|--- .... ....|--- .... ....
 F-4|..|F-3 2C.F ....|R-- .... ....|--- .... ....
....|..|D-3 2F.7 ....|--- .... ....|--- .... ....
....|..|R-- .... ....|--- .... ....|G#3 1FFF ....
....|..|C#3 2F.A ....|--- .... ....|--- .... ....
....|..|C#2 2F.7 ....|F-5 3FF7 ....|--- .... ....
....|..|--- .... ....|--- .... ....|C#4 1FFF ....
....|..|G#2 2F.7 ....|R-- .... ....|--- .... ....
....|..|--- .... ....|--- .... ....|--- .... ....
....|..|R-- .... ....|F-5 3FFF ....|F-4 1FFF ....
....|..|C#3 2F.7 ....|F-5 3FFF ....|--- .... ....
....|..|--- .... ....|F-5 3FFF ....|C#4 1FFF ....
....|..|--- .... ....|F-5 3FFF ....|C#4 1FFA ....
....|..|F-3 2F.7 ....|R-- .... ....|--- .... ....
....|..|--- .... ....|F-5 3FFF ....|G#3 1FFF ....
....|..|R-- .... ....|F-5 3FFF ....|G#3 1FF7 ....
....|..|--- .... ....|D#5 3FFF ....|--- .... ....
 C#4|..|C#3 2C.F ....|F-5 3FFF ....|C#4 1FFA ....
....|..|--- .... ....|F-5 3FFA ....|C#4 1FF7 ....
....|..|R-- .... ....|F-5 3FFF ....|G#3 1FFF ....
....|..|--- .... ....|F-5 3FFA ....|G#3 1FFA ....
....|..|--- .... ....|D#5 3FFF ....|F-4 1FF7 ....
....|..|--- .... ....|F-5 3FFF ....|C#4 1FFF ....
....|..|C#3 2F.A ....|F-5 3FFF ....|C#4 1FF7 ....
....|..|--- .... ....|F-5 3FF7 ....|--- .... ....
 F#4|..|F#2 2A.F ....|F-5 3FFF ....|G#3 1FFA ....
....|..|--- .... ....|F-5 3FF7 ....|G#3 1FF7 ....
 C#4|..|C#3 2C.F ....|F-5 3FF7 ....|--- .... ....
....|..|--- .... ....|D#5 3FF7 ....|C#4 1FFA ....
....|..|C#3 2F.7 ....|F-5 3FF7 ....|R-- .... ....
 F#4|..|F#3 2C.F ....|R-- .... ....|--- .... ....
....|..|F#2 2F.A ....|F-5 3FF7 ....|G#3 1FF7 ....
....|..|--- .... ....|--- .... ....|--- .... ....
....|..|C#3 2F.A ....|F#5 3FFF ....|A-3 1FFF ....
....|..|--- .... ....|F-5 3FF7 ....|C#4 1FF7 ....
....|..|--- .... ....|F-5 3FF7 ....|C#4 1FFF ....
....|..|F#3 2F.A ....|R-- .... ....|--- .... ....
....|..|F#2 2F.7 ....|F-5 3FF7 ....|R-- .... ....
....|..|--- .... ....|--- .... ....|F#4 1FFF ....
....|..|C#3 2F.7 ....|F#5 3FFA ....|A-3 1FFA ....
....|..|--- .... ....|--- .... ....|--- .... ....
....|..|--- .... ....|--- .... ....|A-4 1FFF ....
....|..|F#3 2F.7 ....|--- .... ....|--- .... ....
....|..|--- .... ....|R-- .... ....|F#4 1FFF ....
....|..|--- .... ....|--- .... ....|F#4 1FFA ....
....|..|R-- .... ....|F#5 3FF7 ....|A-3 1FF7 ....
....|..|--- .... ....|--- .... ....|C#4 1FFF ....
....|..|--- .... ....|--- .... ....|C#4 1FF7 ....
....|..|--- .... ....|--- .... ....|--- .... ....
....|..|--- .... ....|R-- .... ....|A-3 1FFF ....
....|..|--- .... ....|--- .... ....|F#4 1FF7 ....
 F#4|..|F#3 2C.F ....|--- .... ....|R-- .... ....
....|..|--- .... ....|--- .... ....|C#4 1FFA ....
....|..|--- .... ....|--- .... ....|A-4 1FF7 ....
 C#4|..|C#3 2C.F ....|--- .... ....|--- .... ....
....|..|--- .... ....|R-- .... ....|F#4 1FF7 ....

[Pattern10]
....|..|--- .... ....|--- .... ....|--- .... ....
 F#4|..|F#2 2A.F ....|--- .... ....|R-- .... ....
....|..|--- .... ....|--- .... ....|C#4 1FF7 ....
 C#4|..|C#3 2C.F ....|--- .... ....|--- .... ....
....|..|C#3 2F.A ....|--- .... ....|--- .... ....
....|..|--- .... ....|--- .... ....|A-3 1FF7 ....
 F#4|..|F#3 2C.F ....|--- .... ....|--- .... ....
....|..|F#3 2F.7 ....|--- .... ....|R-- .... ....
....|..|--- .... ....|--- .... ....|--- .... ....
....|..|C#3 2F.A ....|--- .... ....|A-3 1FFF ....
....|..|C#3 2F.7 ....|--- .... ....|--- .... ....
....|..|--- .... ....|--- .... ....|C#4 1FFF ....
....|..|F#3 2F.A ....|--- .... ....|--- .... ....
....|..|F#2 2F.7 ....|--- .... ....|--- .... ....
....|..|--- .... ....|--- .... ....|F#4 1FFF ....
....|..|C#3 2F.7 ....|--- .... ....|A-3 1FFA ....
....|..|--- .... ....|--- .... ....|--- .... ....
....|..|--- .... ....|--- .... ....|A-4 1FFF ....
....|..|F#3 2F.7 ....|--- .... ....|--- .... ....
....|..|--- .... ....|--- .... ....|F#4 1FFF ....
....|..|--- .... ....|--- .... ....|F#4 1FFA ....
....|..|R-- .... ....|--- .... ....|A-3 1FF7 ....
....|..|--- .... ....|--- .... ....|C#4 1FFF ....
....|..|--- .... ....|--- .... ....|C#4 1FF7 ....
....|..|--- .... ....|--- .... ....|--- .... ....
....|..|--- .... ....|--- .... ....|A-3 1FFF ....
....|..|--- .... ....|--- .... ....|F#4 1FF7 ....
 F#4|..|F#3 2C.F ....|--- .... ....|R-- .... ....
....|..|--- .... ....|--- .... ....|C#4 1FFA ....
....|..|--- .... ....|--- .... ....|A-4 1FF7 ....
 C#4|..|C#3 2C.F ....|--- .... ....|--- .... ....
....|..|--- .... ....|--- .... ....|F#4 1FF7 ....
....|..|--- .... ....|--- .... ....|--- .... ....
 F#4|..|F#2 2A.F ....|C#5 3FFF ....|R-- .... ....
....|..|--- .... ....|--- .... ....|C#4 1FF7 ....
....|..|R-- .... ....|--- .... ....|C#4 1FFF ....
....|..|C#3 2F.A ....|--- .... ....|--- .... ....
....|..|--- .... ....|--- .... ....|A-3 1FF7 ....
....|..|--- .... ....|--- .... ....|C#4 1FFF ....
....|..|F#3 2F.7 ....|C#5 3FFA ....|R-- .... ....
....|..|--- .... ....|--- .... ....|--- .... ....
 F#4|..|F#3 2C.F ....|--- .... ....|A-3 1FFF ....
....|..|C#3 2F.7 ....|--- .... ....|--- .... ....
....|..|--- .... ....|B-4 3FFF ....|--- .... ....
....|..|--- .... ....|C#5 3FFF ....|C#4 1FFA ....
....|..|F#2 2F.7 ....|D-5 3FFF ....|--- .... ....
....|..|--- .... ....|D-5 3FFF ....|--- .... ....
....|..|F#3 2F.A ....|C#5 3FFF ....|C#4 1FF7 ....
....|..|--- .... ....|A-4 3FFF ....|--- .... ....
 G#4|..|G#2 2A.F ....|B-4 3FFF ....|R-- .... ....
....|..|--- .... ....|C#5 3FFA ....|C#4 1FF7 ....
 F-4|..|F-3 2C.F ....|D-5 3FFA ....|C#4 1FFF ....
....|..|--- .... ....|D-5 3FFA ....|--- .... ....
....|..|F#3 2F.7 ....|C#5 3FFA ....|A-3 1FF7 ....
 F-4|..|F-3 2C.F ....|A-4 3FFA ....|C#4 1FFF ....
....|..|G#2 2F.A ....|B-4 3FF7 ....|R-- .... ....
....|..|--- .... ....|C#5 3FF7 ....|--- .... ....
 C#4|..|C#3 2C.F ....|D-5 3FF7 ....|C#4 1FFA ....
....|..|--- .... ....|D-5 3FF7 ....|--- .... ....
 F-4|..|F-3 2C.F ....|C#5 3FF7 ....|B-3 1FFF ....
....|..|F-3 2F.A ....|A-4 3FF7 ....|C#4 1FFA ....
....|..|G#2 2F.7 ....|B-4 3FF7 ....|R-- .... ....
 F-4|..|F-3 2C.F ....|A-4 3FFF ....|B-3 1FFF ....
....|..|F-3 2F.7 ....|G#4 3FFF ....|C#4 1FF7 ....

[Pattern11]
....|..|--- .... ....|A-4 3FFF ....|--- .... ....
 F#4|..|F#2 2A.F ....|R-- .... ....|B-3 1FFA ....
....|..|F-3 2F.7 ....|--- .... ....|C#4 1FF7 ....
 F#4|..|F#3 2C.F ....|--- .... ....|A-3 1FFF ....
....|..|F-3 2F.A ....|A-4 3FFA ....|B-3 1FFA ....
....|..|C#3 2F.7 ....|G#4 3FFA ....|R-- .... ....
 F#4|..|F#3 2C.F ....|A-4 3FFA ....|A-3 1FFF ....
....|..|F-3 2F.7 ....|R-- .... ....|B-3 1FF7 ....
....|..|--- .... ....|--- .... ....|--- .... ....
 F#4|..|F#3 2C.F ....|--- .... ....|A-3 1FFF ....
....|..|F-3 2F.7 ....|A-4 3FF7 ....|B-3 1FF7 ....
 F#4|..|F#3 2C.F ....|G#4 3FF7 ....|A-3 1FFF ....
....|..|F#3 2F.A ....|A-4 3FF7 ....|A-3 1FFA ....
....|..|F#2 2F.7 ....|--- .... ....|R-- .... ....
 F#4|..|F#3 2C.F ....|--- .... ....|A-3 1FFF ....
....|..|F#3 2F.7 ....|--- .... ....|A-3 1FF7 ....
....|..|--- .... ....|--- .... ....|--- .... ....
 E-4|..|E-2 2A.F ....|--- .... ....|A-3 1FFA ....
....|..|F#3 2F.7 ....|--- .... ....|A-3 1FF7 ....
 F#4|..|F#3 2C.F ....|--- .... ....|A-3 1FFF ....
....|..|F#3 2F.A ....|--- .... ....|A-3 1FFA ....
....|..|F#3 2F.7 ....|--- .... ....|A-3 1FF7 ....
 F#4|..|F#3 2C.F ....|--- .... ....|A-3 1FFF ....
....|..|F#3 2F.7 ....|--- .... ....|A-3 1FF7 ....
....|..|--- .... ....|--- .... ....|--- .... ....
 F#4|..|F#3 2C.F ....|F#4 3FFF ....|A-3 1FFF ....
....|..|F#3 2F.7 ....|G#4 3FFF ....|A-3 1FF7 ....
....|..|--- .... ....|A-4 3FFF ....|--- .... ....
....|..|F#3 2F.A ....|B-4 3FFF ....|A-3 1FFA ....
....|..|E-2 2F.7 ....|C#5 3FFF ....|R-- .... ....
....|..|--- .... ....|D#5 3FFF ....|--- .... ....
....|..|F#3 2F.7 ....|F-5 3FFF ....|A-3 1FF7 ....
....|..|--- .... ....|G#4 3FFA ....|--- .... ....
 D-4|..|D-2 2A.F ....|F#5 3FFF ....|R-- .... ....
....|..|F#3 2F.7 ....|B-4 3FFA ....|A-3 1FF7 ....
 F#4|..|F#3 2C.F ....|C#5 3FFA ....|C#4 1FFF ....
....|..|--- .... ....|D#5 3FFA ....|--- .... ....
....|..|F#3 2F.7 ....|F#4 3FF7 ....|A-3 1FF7 ....
 F#4|..|F#3 2C.F ....|G#4 3FF7 ....|C#4 1FFF ....
....|..|D-2 2F.A ....|A-4 3FF7 ....|R-- .... ....
....|..|--- .... ....|B-4 3FF7 ....|--- .... ....
 F#4|..|F#3 2C.F ....|C#5 3FF7 ....|C#4 1FFF ....
....|..|--- .... ....|D#5 3FF7 ....|--- .... ....
....|..|--- .... ....|F-5 3FF7 ....|--- .... ....
....|..|F#3 2F.A ....|E-5 3FFF ....|C#4 1FFA ....
....|..|D-2 2F.7 ....|F#5 3FFF ....|R-- .... ....
....|..|--- .... ....|G-5 3FFF ....|--- .... ....
....|..|F#3 2F.7 ....|G-5 3FFF ....|C#4 1FF7 ....
....|..|--- .... ....|E-5 3FFF ....|--- .... ....
 F#4|..|F#2 2A.F ....|E-5 3FFF ....|R-- .... ....
....|..|F#3 2F.7 ....|E-5 3FFF ....|C#4 1FF7 ....
 F#4|..|F#3 2C.F ....|F#5 3FFA ....|E-4 1FFF ....
....|..|--- .... ....|G-5 3FFA ....|--- .... ....
....|..|F#3 2F.7 ....|G-5 3FFA ....|C#4 1FF7 ....
 F#4|..|F#3 2C.F ....|E-5 3FFA ....|E-4 1FFF ....
....|..|F#2 2F.A ....|E-5 3FFA ....|R-- .... ....
....|..|--- .... ....|E-5 3FF7 ....|--- .... ....
 F#4|..|F#3 2C.F ....|F#5 3FF7 ....|E-4 1FFF ....
....|..|--- .... ....|G-5 3FF7 ....|--- .... ....
 F#4|..|F#2 2A.F ....|G-5 3FF7 ....|R-- .... ....
....|..|F#3 2F.A ....|E-5 3FF7 ....|E-4 1FFA ....
....|..|F#2 2F.7 ....|E-5 3FF7 ....|R-- .... ....
....|..|--- .... ....|D-5 3FFF ....|--- .... ....
....|..|F#3 2F.7 ....|C#5 3FFF ....|E-4 1FF7 ....

[Pattern12]
....|..|--- .... ....|R-- .... ....|--- .... ....
 B-3|..|B-1 2A.F ....|D-5 3FFF ....|R-- .... ....
....|..|F#3 2F.7 ....|--- .... ....|E-4 1FF7 ....
 F#4|..|F#3 2C.F ....|--- .... ....|D-4 1FFF ....
....|..|--- .... ....|D-5 3FFA ....|--- .... ....
....|..|F#3 2F.7 ....|C#5 3FFA ....|E-4 1FF7 ....
 F#4|..|F#3 2C.F ....|R-- .... ....|D-4 1FFF ....
....|..|F#2 2F.7 ....|D-5 3FFA ....|R-- .... ....
....|..|--- .... ....|--- .... ....|--- .... ....
 F#4|..|F#3 2C.F ....|--- .... ....|C#4 1FFF ....
....|..|--- .... ....|D-5 3FF7 ....|--- .... ....
 F#4|..|F#3 2C.F ....|C#5 3FF7 ....|C#4 1FFF ....
....|..|F#3 2F.A ....|R-- .... ....|D-4 1FFA ....
....|..|B-1 2F.7 ....|D-5 3FF7 ....|--- .... ....
 F#4|..|F#3 2C.F ....|--- .... ....|C#4 1FFF ....
....|..|F#3 2F.7 ....|--- .... ....|D-4 1FF7 ....
....|..|--- .... ....|--- .... ....|--- .... ....
 F#4|..|F#3 2C.F ....|--- .... ....|D-4 1FFF ....
....|..|F#3 2F.7 ....|--- .... ....|D-4 1FF7 ....
 F#4|..|F#3 2C.F ....|--- .... ....|D-4 1FFF ....
....|..|F#3 2F.A ....|--- .... ....|C#4 1FFA ....
....|..|F#3 2F.7 ....|--- .... ....|C#4 1FF7 ....
 F#4|..|F#3 2C.F ....|--- .... ....|D-4 1FFF ....
....|..|F#3 2F.7 ....|--- .... ....|C#4 1FF7 ....
....|..|--- .... ....|--- .... ....|--- .... ....
 F#4|..|F#3 2C.F ....|--- .... ....|D-4 1FFF ....
....|..|F#3 2F.7 ....|--- .... ....|C#4 1FF7 ....
....|..|--- .... ....|R-- .... ....|--- .... ....
....|..|F#3 2F.A ....|C#5 3FFF ....|D-4 1FFA ....
....|..|F#3 2F.7 ....|--- .... ....|D-4 1FF7 ....
....|..|--- .... ....|B-4 3FFF ....|--- .... ....
....|..|F#3 2F.7 ....|--- .... ....|D-4 1FF7 ....
....|..|--- .... ....|--- .... ....|--- .... ....
 A-3|..|A-1 2A.F ....|C#5 3FFF ....|R-- .... ....
....|..|F#3 2F.7 ....|C#5 3FFA ....|D-4 1FF7 ....
 F#4|..|F#3 2C.F ....|--- .... ....|C#4 1FFF ....
....|..|--- .... ....|B-4 3FFA ....|--- .... ....
....|..|F#3 2F.7 ....|--- .... ....|D-4 1FF7 ....
 F#4|..|F#3 2C.F ....|--- .... ....|C#4 1FFF ....
....|..|A-1 2F.A ....|C#5 3FFA ....|R-- .... ....
....|..|--- .... ....|C#5 3FF7 ....|--- .... ....
....|..|F#3 2F.A ....|F#5 3FFF ....|C#4 1FFA ....
....|..|--- .... ....|B-4 3FF7 ....|--- .... ....
 F#4|..|F#3 2C.F ....|--- .... ....|C#4 1FFF ....
....|..|F#3 2F.A ....|--- .... ....|C#4 1FFA ....
....|..|A-1 2F.7 ....|C#5 3FF7 ....|R-- .... ....
 F#4|..|F#3 2C.F ....|--- .... ....|C#4 1FFF ....
....|..|F#3 2F.7 ....|F#5 3FFA ....|C#4 1FF7 ....
....|..|--- .... ....|--- .... ....|--- .... ....
 G#3|..|G#1 2A.F ....|G#5 3FFF ....|C#4 1FFA ....
....|..|F#3 2F.7 ....|--- .... ....|C#4 1FF7 ....
 F#4|..|F#3 2C.F ....|--- .... ....|C-4 1FFF ....
....|..|F#3 2F.A ....|--- .... ....|C#4 1FFA ....
....|..|R-- .... ....|F#5 3FF7 ....|R-- .... ....
 F#4|..|F#3 2C.F ....|--- .... ....|C-4 1FFF ....
....|..|F#3 2F.7 ....|G#5 3FFA ....|C#4 1FF7 ....
....|..|--- .... ....|--- .... ....|--- .... ....
 F#4|..|F#3 2C.F ....|--- .... ....|C-4 1FFF ....
....|..|F#3 2F.7 ....|--- .... ....|C#4 1FF7 ....
 F#4|..|F#3 2C.F ....|--- .... ....|C-4 1FFF ....
....|..|F#3 2F.A ....|--- .... ....|C-4 1FFA ....
....|..|G#1 2F.7 ....|G#5 3FF7 ....|R-- .... ....
....|..|--- .... ....|D#5 3FFF ....|--- .... ....
....|..|F#3 2F.7 ....|--- .... ....|C-4 1FF7 ....

[Pattern13]
....|..|--- .... ....|--- .... ....|--- .... ....
 C#4|..|C#2 2A.F ....|F-5 3FFF ....|C-4 1FFA ....
....|..|F#3 2F.7 ....|--- .... ....|C-4 1FF7 ....
 F-4|..|F-3 2C.F ....|R-- .... ....|B-3 1FFF ....
....|..|--- .... ....|D#5 3FFA ....|--- .... ....
....|..|F#3 2F.7 ....|--- .... ....|C-4 1FF7 ....
 F-4|..|F-3 2C.F ....|--- .... ....|B-3 1FFF ....
....|..|F#3 2F.7 ....|F-5 3FFA ....|C-4 1FF7 ....
....|..|--- .... ....|--- .... ....|--- .... ....
 F-4|..|F-3 2C.F ....|R-- .... ....|B-3 1FFF ....
....|..|--- .... ....|D#5 3FF7 ....|--- .... ....
 F-4|..|F-3 2C.F ....|--- .... ....|B-3 1FFF ....
....|..|F-3 2F.A ....|--- .... ....|B-3 1FFA ....
....|..|C#2 2F.7 ....|F-5 3FF7 ....|R-- .... ....
 F-4|..|F-3 2C.F ....|--- .... ....|B-3 1FFF ....
....|..|F-3 2F.7 ....|--- .... ....|B-3 1FF7 ....
....|..|--- .... ....|--- .... ....|--- .... ....
 F-4|..|F-3 2C.F ....|--- .... ....|B-3 1FFF ....
....|..|F-3 2F.7 ....|--- .... ....|B-3 1FF7 ....
 F-4|..|F-3 2C.F ....|--- .... ....|B-3 1FFF ....
....|..|F-3 2F.A ....|--- .... ....|B-3 1FFA ....
....|..|F-3 2F.7 ....|--- .... ....|B-3 1FF7 ....
 F-4|..|F-3 2C.F ....|--- .... ....|B-3 1FFF ....
....|..|F-3 2F.7 ....|--- .... ....|B-3 1FF7 ....
....|..|--- .... ....|--- .... ....|--- .... ....
 F-4|..|F-3 2C.F ....|--- .... ....|B-3 1FFF ....
....|..|F-3 2F.7 ....|R-- .... ....|B-3 1FF7 ....
....|..|--- .... ....|--- .... ....|--- .... ....
....|..|F-3 2F.A ....|F#5 3FFF ....|B-3 1FFA ....
....|..|F-3 2F.7 ....|R-- .... ....|B-3 1FF7 ....
....|..|--- .... ....|G#5 3FFF ....|--- .... ....
....|..|F-3 2F.7 ....|--- .... ....|B-3 1FF7 ....
....|..|--- .... ....|R-- .... ....|--- .... ....
 F#4|..|F#2 2A.F ....|A-5 3FFF ....|R-- .... ....
....|..|F-3 2F.7 ....|F#5 3FFA ....|B-3 1FF7 ....
 F#4|..|F#3 2C.F ....|R-- .... ....|A-3 1FFF ....
....|..|--- .... ....|G#5 3FFA ....|--- .... ....
....|..|F-3 2F.7 ....|--- .... ....|B-3 1FF7 ....
 F#4|..|F#3 2C.F ....|R-- .... ....|A-3 1FFF ....
....|..|F#2 2F.A ....|A-5 3FFA ....|R-- .... ....
....|..|--- .... ....|F#5 3FF7 ....|--- .... ....
....|..|F#3 2F.A ....|C#6 3FFF ....|A-3 1FFA ....
....|..|--- .... ....|G#5 3FF7 ....|--- .... ....
 F#4|..|F#3 2C.F ....|--- .... ....|A-3 1FFF ....
....|..|F#3 2F.A ....|R-- .... ....|A-3 1FFA ....
....|..|F#2 2F.7 ....|A-5 3FF7 ....|R-- .... ....
 F#4|..|F#3 2C.F ....|R-- .... ....|A-3 1FFF ....
....|..|F#3 2F.7 ....|C#6 3FFA ....|A-3 1FF7 ....
....|..|--- .... ....|--- .... ....|--- .... ....
 B-4|..|B-2 2A.F ....|B-5 3FFF ....|A-3 1FFA ....
....|..|F#3 2F.7 ....|--- .... ....|A-3 1FF7 ....
 D#4|..|D#3 2C.F ....|--- .... ....|B-3 1FFF ....
....|..|F#3 2F.A ....|R-- .... ....|A-3 1FFA ....
....|..|R-- .... ....|C#6 3FF7 ....|R-- .... ....
 D#4|..|D#3 2C.F ....|--- .... ....|B-3 1FFF ....
....|..|F#3 2F.7 ....|B-5 3FFA ....|A-3 1FF7 ....
....|..|--- .... ....|--- .... ....|--- .... ....
 D#4|..|D#3 2C.F ....|--- .... ....|B-3 1FFF ....
....|..|F#3 2F.7 ....|--- .... ....|A-3 1FF7 ....
 D#4|..|D#3 2C.F ....|R-- .... ....|B-3 1FFF ....
....|..|D#3 2F.A ....|--- .... ....|B-3 1FFA ....
....|..|B-2 2F.7 ....|B-5 3FF7 ....|R-- .... ....
....|..|--- .... ....|F#5 3FFF ....|--- .... ....
....|..|D#3 2F.7 ....|--- .... ....|B-3 1FF7 ....

[Pattern14]
....|..|--- .... ....|R-- .... ....|--- .... ....
 C#4|..|C#3 2C.F ....|G#5 3FFF ....|B-3 1FFA ....
....|..|D#3 2F.7 ....|--- .... ....|B-3 1FF7 ....
 F-4|..|F-3 2C.F ....|--- .... ....|C#4 1FFF ....
....|..|--- .... ....|F#5 3FFA ....|--- .... ....
....|..|D#3 2F.7 ....|--- .... ....|B-3 1FF7 ....
 F-4|..|F-3 2C.F ....|R-- .... ....|C#4 1FFF ....
....|..|D#3 2F.7 ....|G#5 3FFA ....|B-3 1FF7 ....
....|..|--- .... ....|--- .... ....|--- .... ....
 F-4|..|F-3 2C.F ....|--- .... ....|C#4 1FFF ....
....|..|--- .... ....|F#5 3FF7 ....|--- .... ....
 F-4|..|F-3 2C.F ....|--- .... ....|C#4 1FFF ....
....|..|F-3 2F.A ....|R-- .... ....|C#4 1FFA ....
....|..|C#3 2F.7 ....|G#5 3FF7 ....|R-- .... ....
 F-4|..|F-3 2C.F ....|--- .... ....|C#4 1FFF ....
....|..|F-3 2F.7 ....|--- .... ....|C#4 1FF7 ....
....|..|--- .... ....|--- .... ....|--- .... ....
 C#4|..|C#2 2A.F ....|--- .... ....|C#4 1FFA ....
....|..|F-3 2F.7 ....|--- .... ....|C#4 1FF7 ....
 F-4|..|F-3 2C.F ....|--- .... ....|C#4 1FFF ....
....|..|F-3 2F.A ....|--- .... ....|C#4 1FFA ....
....|..|F-3 2F.7 ....|--- .... ....|C#4 1FF7 ....
 F-4|..|F-3 2C.F ....|--- .... ....|C#4 1FFF ....
....|..|F-3 2F.7 ....|--- .... ....|C#4 1FF7 ....
....|..|--- .... ....|--- .... ....|--- .... ....
 F-4|..|F-3 2C.F ....|--- .... ....|C#4 1FFF ....
....|..|F-3 2F.7 ....|--- .... ....|C#4 1FF7 ....
 F-4|..|F-3 2C.F ....|--- .... ....|C#4 1FFF ....
....|..|F-3 2F.A ....|--- .... ....|C#4 1FFA ....
....|..|C#2 2F.7 ....|R-- .... ....|R-- .... ....
 F-4|..|F-3 2C.F ....|--- .... ....|C#4 1FFF ....
....|..|F-3 2F.7 ....|--- .... ....|C#4 1FF7 ....
....|..|--- .... ....|C#5 3FFF ....|--- .... ....
 F#4|..|F#2 2A.F ....|C#6 3FFF ....|C#4 1FFA ....
....|..|F-3 2F.7 ....|--- .... ....|C#4 1FF7 ....
 C#4|..|C#3 2C.F ....|R-- .... ....|--- .... ....
....|..|F-3 2F.A ....|--- .... ....|C#4 1FFA ....
....|..|F-3 2F.7 ....|--- .... ....|C#4 1FF7 ....
 F#4|..|F#3 2C.F ....|C#5 3FFA ....|--- .... ....
....|..|F-3 2F.7 ....|C#6 3FFA ....|C#4 1FF7 ....
....|..|--- .... ....|--- .... ....|--- .... ....
....|..|C#3 2F.A ....|R-- .... ....|A-3 1FFF ....
....|..|F-3 2F.7 ....|--- .... ....|C#4 1FF7 ....
....|..|--- .... ....|--- .... ....|C#4 1FFF ....
....|..|F#3 2F.A ....|C#5 3FF7 ....|--- .... ....
....|..|F#2 2F.7 ....|C#6 3FF7 ....|R-- .... ....
....|..|--- .... ....|--- .... ....|F#4 1FFF ....
....|..|C#3 2F.7 ....|--- .... ....|A-3 1FFA ....
....|..|--- .... ....|R-- .... ....|--- .... ....
....|..|--- .... ....|C#6 3FFF ....|A-4 1FFF ....
....|..|F#3 2F.7 ....|--- .... ....|--- .... ....
....|..|--- .... ....|--- .... ....|F#4 1FFF ....
....|..|--- .... ....|--- .... ....|F#4 1FFA ....
....|..|R-- .... ....|--- .... ....|A-3 1FF7 ....
....|..|--- .... ....|R-- .... ....|C#4 1FFF ....
....|..|--- .... ....|C#6 3FFF ....|C#4 1FF7 ....
....|..|--- .... ....|C#5 3FFF ....|--- .... ....
....|..|--- .... ....|C#6 3FFF ....|A-3 1FFF ....
....|..|--- .... ....|--- .... ....|F#4 1FF7 ....
 F#4|..|F#3 2C.F ....|--- .... ....|R-- .... ....
....|..|--- .... ....|R-- .... ....|C#4 1FFA ....
....|..|--- .... ....|C#6 3FF7 ....|A-4 1FF7 ....
 C#4|..|C#3 2C.F ....|C#5 3FFA ....|--- .... ....
....|..|--- .... ....|C#6 3FFA ....|F#4 1FF7 ....

[Pattern15]
....|..|--- .... ....|--- .... ....|--- .... ....
 E-4|..|E-2 2A.F ....|--- .... ....|R-- .... ....
....|..|--- .... ....|--- .... ....|C#4 1FF7 ....
 B-4|..|B-2 2A.F ....|C#6 3FF7 ....|--- .... ....
....|..|C#3 2F.A ....|C#5 3FF7 ....|--- .... ....
....|..|--- .... ....|C#6 3FF7 ....|A-3 1FF7 ....
 E-4|..|E-3 2C.F ....|--- .... ....|--- .... ....
....|..|F#3 2F.7 ....|C#6 3FFF ....|R-- .... ....
....|..|--- .... ....|R-- .... ....|--- .... ....
....|..|B-2 2F.A ....|--- .... ....|G#3 1FFF ....
....|..|C#3 2F.7 ....|--- .... ....|--- .... ....
....|..|--- .... ....|B-4 3FFF ....|B-3 1FFF ....
....|..|E-3 2F.A ....|B-5 3FFF ....|--- .... ....
....|..|E-2 2F.7 ....|C#6 3FFA ....|--- .... ....
....|..|--- .... ....|A-4 3FFF ....|E-4 1FFF ....
....|..|B-2 2F.7 ....|A-5 3FFF ....|G#3 1FFA ....
....|..|--- .... ....|R-- .... ....|--- .... ....
....|..|--- .... ....|B-5 3FFF ....|G#4 1FFF ....
....|..|E-3 2F.7 ....|B-5 3FFA ....|--- .... ....
....|..|--- .... ....|C#6 3FF7 ....|E-4 1FFF ....
....|..|--- .... ....|A-4 3FFA ....|E-4 1FFA ....
....|..|R-- .... ....|A-5 3FFA ....|G#3 1FF7 ....
....|..|--- .... ....|R-- .... ....|B-3 1FFF ....
....|..|--- .... ....|B-4 3FF7 ....|B-3 1FF7 ....
....|..|--- .... ....|B-5 3FF7 ....|--- .... ....
....|..|--- .... ....|R-- .... ....|G#3 1FFF ....
....|..|--- .... ....|A-4 3FF7 ....|E-4 1FF7 ....
 E-4|..|E-3 2C.F ....|A-5 3FF7 ....|R-- .... ....
....|..|--- .... ....|R-- .... ....|B-3 1FFA ....
....|..|--- .... ....|B-5 3FF7 ....|G#4 1FF7 ....
 B-4|..|B-2 2A.F ....|R-- .... ....|--- .... ....
....|..|--- .... ....|--- .... ....|E-4 1FF7 ....
....|..|--- .... ....|A-5 3FFF ....|--- .... ....
 D-4|..|D-2 2A.F ....|--- .... ....|R-- .... ....
....|..|--- .... ....|--- .... ....|B-3 1FF7 ....
 A-3|..|A-2 2C.F ....|A-5 3FFF ....|--- .... ....
....|..|B-2 2F.A ....|R-- .... ....|--- .... ....
....|..|--- .... ....|R-- .... ....|G#3 1FF7 ....
 D-4|..|D-3 2C.F ....|A-5 3FFA ....|--- .... ....
....|..|E-3 2F.7 ....|--- .... ....|R-- .... ....
....|..|--- .... ....|--- .... ....|--- .... ....
 F#4|..|F#3 2C.F ....|F#6 3FFF ....|--- .... ....
....|..|B-2 2F.7 ....|R-- .... ....|--- .... ....
....|..|R-- .... ....|R-- .... ....|A-3 1FFF ....
....|..|D-3 2F.A ....|A-5 3FF7 ....|--- .... ....
....|..|D-2 2F.7 ....|--- .... ....|--- .... ....
....|..|--- .... ....|--- .... ....|D-4 1FFF ....
....|..|A-2 2F.7 ....|A-5 3FF7 ....|--- .... ....
....|..|--- .... ....|--- .... ....|--- .... ....
....|..|R-- .... ....|R-- .... ....|F#4 1FFF ....
....|..|D-3 2F.7 ....|R-- .... ....|--- .... ....
....|..|--- .... ....|--- .... ....|D-4 1FFF ....
....|..|--- .... ....|--- .... ....|D-4 1FFA ....
....|..|F#3 2F.7 ....|F#6 3FF7 ....|--- .... ....
....|..|--- .... ....|--- .... ....|A-3 1FFF ....
....|..|R-- .... ....|--- .... ....|A-3 1FF7 ....
....|..|--- .... ....|G#4 3FFF ....|--- .... ....
 F#4|..|F#3 2C.F ....|G#5 3FFF ....|D-4 1FFA ....
....|..|--- .... ....|--- .... ....|D-4 1FF7 ....
 D-4|..|D-3 2C.F ....|--- .... ....|--- .... ....
....|..|--- .... ....|G#4 3FFF ....|A-3 1FFA ....
....|..|--- .... ....|R-- .... ....|F#4 1FF7 ....
 A-3|..|A-2 2C.F ....|A-5 3FFF ....|--- .... ....
....|..|F#3 2F.A ....|A-5 3FFF ....|D-4 1FF7 ....

[Pattern16]
....|..|--- .... ....|R-- .... ....|--- .... ....
 B-4|..|B-2 2A.F ....|D-5 3FFF ....|--- .... ....
....|..|--- .... ....|G#4 3FFA ....|A-3 1FF7 ....
 F#4|..|F#3 2C.F ....|R-- .... ....|--- .... ....
....|..|A-2 2F.A ....|G#4 3FF7 ....|--- .... ....
....|..|F#3 2F.7 ....|G#5 3FF7 ....|R-- .... ....
....|..|R-- .... ....|R-- .... ....|G#3 1FFF ....
....|..|D-3 2F.7 ....|D-5 3FFA ....|--- .... ....
....|..|--- .... ....|G#4 3FF7 ....|--- .... ....
....|..|F#3 2F.A ....|R-- .... ....|D-4 1FFF ....
....|..|A-2 2F.7 ....|A-5 3FF7 ....|--- .... ....
....|..|--- .... ....|A-5 3FF7 ....|G#3 1FFF ....
....|..|R-- .... ....|R-- .... ....|G#3 1FFA ....
....|..|B-2 2F.7 ....|D-5 3FF7 ....|--- .... ....
 F#4|..|F#3 2C.F ....|--- .... ....|R-- .... ....
....|..|F#3 2F.7 ....|R-- .... ....|D-4 1FFA ....
....|..|--- .... ....|G#4 3FFF ....|--- .... ....
 E-4|..|E-3 2C.F ....|G#5 3FFF ....|G#3 1FFA ....
....|..|R-- .... ....|--- .... ....|G#3 1FF7 ....
....|..|R-- .... ....|F#5 3FFF ....|G#3 1FFF ....
....|..|F#3 2F.A ....|G#5 3FFF ....|R-- .... ....
....|..|--- .... ....|G#4 3FFF ....|D-4 1FF7 ....
....|..|--- .... ....|G#5 3FFF ....|B-3 1FFF ....
....|..|E-3 2F.A ....|G#5 3FFF ....|G#3 1FF7 ....
....|..|--- .... ....|F#5 3FFF ....|--- .... ....
....|..|R-- .... ....|G#5 3FFF ....|D-4 1FFF ....
....|..|F#3 2F.7 ....|G#4 3FFF ....|R-- .... ....
....|..|--- .... ....|G#5 3FFF ....|B-3 1FFF ....
....|..|--- .... ....|G#4 3FF7 ....|B-3 1FFA ....
....|..|E-3 2F.7 ....|F#5 3FFF ....|--- .... ....
....|..|--- .... ....|G#5 3FFF ....|G#3 1FFF ....
....|..|R-- .... ....|F#5 3FF7 ....|G#3 1FF7 ....
....|..|--- .... ....|G#4 3FFF ....|--- .... ....
 A-3|..|A-2 2C.F ....|G#5 3FFF ....|B-3 1FFA ....
....|..|--- .... ....|G#5 3FF7 ....|B-3 1FF7 ....
 E-4|..|E-3 2C.F ....|G#5 3FF7 ....|--- .... ....
....|..|--- .... ....|F#5 3FF7 ....|G#3 1FFA ....
....|..|--- .... ....|G#5 3FF7 ....|D-4 1FF7 ....
....|..|R-- .... ....|G#4 3FF7 ....|A-3 1FFF ....
....|..|A-2 2F.A ....|G#5 3FF7 ....|B-3 1FF7 ....
....|..|--- .... ....|C#4 3FFF ....|--- .... ....
....|..|E-3 2F.A ....|C#5 3FFF ....|C#4 1FFF ....
....|..|--- .... ....|G#5 3FF7 ....|G#3 1FF7 ....
....|..|--- .... ....|R-- .... ....|A-3 1FFF ....
....|..|R-- .... ....|G#4 3FF7 ....|A-3 1FFA ....
....|..|A-2 2F.7 ....|G#5 3FF7 ....|R-- .... ....
 E-4|..|E-3 2C.F ....|C#4 3FFA ....|R-- .... ....
....|..|E-3 2F.7 ....|C#5 3FFA ....|C#4 1FFA ....
....|..|--- .... ....|--- .... ....|--- .... ....
 A-3|..|A-2 2C.F ....|--- .... ....|A-3 1FFA ....
....|..|R-- .... ....|--- .... ....|A-3 1FF7 ....
 E-4|..|E-3 2C.F ....|R-- .... ....|--- .... ....
....|..|E-3 2F.A ....|C#4 3FF7 ....|R-- .... ....
....|..|--- .... ....|C#5 3FF7 ....|C#4 1FF7 ....
....|..|R-- .... ....|--- .... ....|A-3 1FFF ....
....|..|A-2 2F.A ....|--- .... ....|A-3 1FF7 ....
....|..|--- .... ....|--- .... ....|--- .... ....
....|..|E-3 2F.A ....|--- .... ....|C#4 1FFF ....
....|..|E-3 2F.7 ....|--- .... ....|R-- .... ....
....|..|--- .... ....|C#4 3FFF ....|A-3 1FFF ....
....|..|R-- .... ....|--- .... ....|A-3 1FFA ....
....|..|A-2 2F.7 ....|R-- .... ....|--- .... ....
 E-4|..|E-3 2C.F ....|--- .... ....|R-- .... ....
....|..|E-3 2F.7 ....|--- .... ....|C#4 1FFA ....

[Pattern17]
....|..|--- .... ....|F#4 3FFF ....|--- .... ....
 D-4|..|D-3 2C.F ....|F#5 3FFF ....|A-3 1FFA ....
....|..|R-- .... ....|--- .... ....|A-3 1FF7 ....
 F#4|..|F#3 2C.F ....|R-- .... ....|--- .... ....
....|..|E-3 2F.A ....|--- .... ....|R-- .... ....
....|..|--- .... ....|--- .... ....|C#4 1FF7 ....
....|..|R-- .... ....|F#4 3FFA ....|A-3 1FFF ....
....|..|D-3 2F.A ....|C#4 3FF7 ....|A-3 1FF7 ....
....|..|--- .... ....|--- .... ....|--- .... ....
....|..|F#3 2F.A ....|R-- .... ....|D-4 1FFF ....
....|..|E-3 2F.7 ....|--- .... ....|R-- .... ....
....|..|--- .... ....|--- .... ....|A-3 1FFF ....
....|..|R-- .... ....|F#4 3FF7 ....|A-3 1FFA ....
....|..|D-3 2F.7 ....|F#5 3FF7 ....|--- .... ....
 F#4|..|F#3 2C.F ....|--- .... ....|R-- .... ....
....|..|F#3 2F.7 ....|--- .... ....|D-4 1FFA ....
....|..|--- .... ....|R-- .... ....|--- .... ....
 D-4|..|D-3 2C.F ....|F#5 3FFF ....|A-3 1FFA ....
....|..|R-- .... ....|--- .... ....|A-3 1FF7 ....
 F#4|..|F#3 2C.F ....|E-5 3FFF ....|--- .... ....
....|..|F#3 2F.A ....|F#5 3FFF ....|R-- .... ....
....|..|--- .... ....|F#4 3FFF ....|D-4 1FF7 ....
....|..|R-- .... ....|F#5 3FFF ....|A-3 1FFF ....
....|..|D-3 2F.A ....|F#5 3FFA ....|A-3 1FF7 ....
....|..|--- .... ....|E-5 3FFF ....|--- .... ....
....|..|F#3 2F.A ....|F#5 3FFF ....|D-4 1FFF ....
....|..|F#3 2F.7 ....|F#4 3FFF ....|R-- .... ....
....|..|--- .... ....|F#5 3FFF ....|A-3 1FFF ....
....|..|R-- .... ....|F#5 3FFA ....|A-3 1FFA ....
....|..|D-3 2F.7 ....|E-5 3FFF ....|--- .... ....
 F#4|..|F#3 2C.F ....|F#5 3FFF ....|R-- .... ....
....|..|F#3 2F.7 ....|E-5 3FF7 ....|D-4 1FFA ....
....|..|--- .... ....|F#5 3FF7 ....|--- .... ....
 G#4|..|G#2 2A.F ....|B-3 3FFF ....|A-3 1FFA ....
....|..|R-- .... ....|B-4 3FFF ....|A-3 1FF7 ....
 D-4|..|D-3 2C.F ....|E-5 3FFA ....|--- .... ....
....|..|F#3 2F.A ....|E-5 3FF7 ....|R-- .... ....
....|..|--- .... ....|F#5 3FF7 ....|D-4 1FF7 ....
 F#4|..|F#3 2C.F ....|F#4 3FF7 ....|--- .... ....
....|..|G#2 2F.A ....|F#5 3FF7 ....|A-3 1FF7 ....
....|..|--- .... ....|B-3 3FFF ....|--- .... ....
....|..|D-3 2F.A ....|B-4 3FFF ....|B-3 1FFF ....
....|..|F#3 2F.7 ....|F#5 3FF7 ....|R-- .... ....
 F#4|..|F#3 2C.F ....|R-- .... ....|R-- .... ....
....|..|F#3 2F.A ....|--- .... ....|--- .... ....
....|..|G#2 2F.7 ....|B-3 3FF7 ....|--- .... ....
 D-4|..|D-3 2C.F ....|B-4 3FF7 ....|--- .... ....
....|..|D-3 2F.7 ....|B-4 3FFA ....|B-3 1FFA ....
....|..|--- .... ....|--- .... ....|--- .... ....
 G#4|..|G#2 2A.F ....|--- .... ....|R-- .... ....
....|..|F#3 2F.7 ....|--- .... ....|--- .... ....
 D-4|..|D-3 2C.F ....|--- .... ....|--- .... ....
....|..|D-3 2F.A ....|B-3 3FF7 ....|--- .... ....
....|..|R-- .... ....|B-4 3FF7 ....|B-3 1FF7 ....
 F#4|..|F#3 2C.F ....|--- .... ....|--- .... ....
....|..|F#3 2F.7 ....|--- .... ....|R-- .... ....
....|..|--- .... ....|--- .... ....|--- .... ....
....|..|D-3 2F.A ....|--- .... ....|B-3 1FFF ....
....|..|D-3 2F.7 ....|--- .... ....|--- .... ....
 F#4|..|F#3 2C.F ....|--- .... ....|R-- .... ....
....|..|F#3 2F.A ....|--- .... ....|--- .... ....
....|..|G#2 2F.7 ....|B-3 3FFF ....|--- .... ....
 D-4|..|D-3 2C.F ....|R-- .... ....|--- .... ....
....|..|D-3 2F.7 ....|--- .... ....|B-3 1FFA ....

[Pattern18]
....|..|--- .... ....|F-4 3FFF ....|--- .... ....
 C#4|..|C#2 2A.F ....|F-5 3FFF ....|R-- .... ....
....|..|F#3 2F.7 ....|--- .... ....|--- .... ....
 G#4|..|G#2 2A.F ....|B-3 3FFA ....|--- .... ....
....|..|D-3 2F.A ....|R-- .... ....|--- .... ....
....|..|R-- .... ....|--- .... ....|B-3 1FF7 ....
 C#4|..|C#3 2C.F ....|F-4 3FFA ....|--- .... ....
....|..|F#3 2F.7 ....|F-5 3FFA ....|R-- .... ....
....|..|--- .... ....|--- .... ....|--- .... ....
 F-4|..|F-3 2C.F ....|B-3 3FF7 ....|--- .... ....
....|..|D-3 2F.7 ....|R-- .... ....|--- .... ....
....|..|R-- .... ....|--- .... ....|G#3 1FFF ....
....|..|C#3 2F.A ....|F-4 3FF7 ....|--- .... ....
....|..|C#2 2F.7 ....|F-5 3FF7 ....|--- .... ....
....|..|--- .... ....|--- .... ....|C#4 1FFF ....
....|..|G#2 2F.7 ....|--- .... ....|--- .... ....
....|..|--- .... ....|F-4 3FFF ....|--- .... ....
....|..|R-- .... ....|F-5 3FFF ....|F-4 1FFF ....
....|..|C#3 2F.7 ....|F-5 3FFF ....|--- .... ....
....|..|--- .... ....|F-5 3FFF ....|C#4 1FFF ....
....|..|--- .... ....|F-5 3FFF ....|C#4 1FFA ....
....|..|F-3 2F.7 ....|F-4 3FFF ....|--- .... ....
....|..|--- .... ....|F-5 3FFF ....|G#3 1FFF ....
....|..|R-- .... ....|F-5 3FFF ....|G#3 1FF7 ....
....|..|--- .... ....|D#5 3FFF ....|--- .... ....
 C#4|..|C#3 2C.F ....|F-5 3FFF ....|C#4 1FFA ....
....|..|--- .... ....|F-4 3FFF ....|C#4 1FF7 ....
....|..|R-- .... ....|F-5 3FFF ....|G#3 1FFF ....
....|..|--- .... ....|F-4 3FF7 ....|G#3 1FFA ....
....|..|--- .... ....|D#5 3FFF ....|F-4 1FF7 ....
....|..|--- .... ....|F-5 3FFF ....|C#4 1FFF ....
....|..|C#3 2F.A ....|F-5 3FF7 ....|C#4 1FF7 ....
....|..|--- .... ....|F-4 3FFF ....|--- .... ....
 F#4|..|F#2 2A.F ....|F-5 3FFF ....|G#3 1FFA ....
....|..|--- .... ....|F-5 3FF7 ....|G#3 1FF7 ....
 C#4|..|C#3 2C.F ....|F-5 3FF7 ....|--- .... ....
....|..|--- .... ....|D#5 3FF7 ....|C#4 1FFA ....
....|..|C#3 2F.7 ....|F-5 3FF7 ....|R-- .... ....
 F#4|..|F#3 2C.F ....|F-4 3FF7 ....|--- .... ....
....|..|F#2 2F.A ....|F-5 3FF7 ....|G#3 1FF7 ....
....|..|--- .... ....|F-5 3FFF ....|--- .... ....
....|..|C#3 2F.A ....|F#5 3FFF ....|A-3 1FFF ....
....|..|--- .... ....|F-5 3FF7 ....|C#4 1FF7 ....
....|..|--- .... ....|R-- .... ....|C#4 1FFF ....
....|..|F#3 2F.A ....|F-4 3FF7 ....|--- .... ....
....|..|F#2 2F.7 ....|F-5 3FF7 ....|R-- .... ....
....|..|--- .... ....|F-5 3FFA ....|F#4 1FFF ....
....|..|C#3 2F.7 ....|F#5 3FFA ....|A-3 1FFA ....
....|..|--- .... ....|--- .... ....|--- .... ....
....|..|--- .... ....|--- .... ....|A-4 1FFF ....
....|..|F#3 2F.7 ....|--- .... ....|--- .... ....
....|..|--- .... ....|--- .... ....|F#4 1FFF ....
....|..|--- .... ....|F-5 3FF7 ....|F#4 1FFA ....
....|..|R-- .... ....|F#5 3FF7 ....|A-3 1FF7 ....
....|..|--- .... ....|--- .... ....|C#4 1FFF ....
....|..|--- .... ....|--- .... ....|C#4 1FF7 ....
....|..|--- .... ....|--- .... ....|--- .... ....
....|..|--- .... ....|--- .... ....|A-3 1FFF ....
....|..|--- .... ....|--- .... ....|F#4 1FF7 ....
 F#4|..|F#3 2C.F ....|--- .... ....|R-- .... ....
....|..|--- .... ....|--- .... ....|C#4 1FFA ....
....|..|--- .... ....|--- .... ....|A-4 1FF7 ....
 C#4|..|C#3 2C.F ....|--- .... ....|--- .... ....
....|..|--- .... ....|F#5 3FFF ....|F#4 1FF7 ....

[Pattern19]
....|..|--- .... ....|F#4 3FFF ....|--- .... ....
 E-4|..|E-2 2A.F ....|F#5 3FFF ....|R-- .... ....
....|..|--- .... ....|F#6 3FFF ....|C#4 1FF7 ....
 B-4|..|B-2 2A.F ....|--- .... ....|--- .... ....
....|..|C#3 2F.A ....|--- .... ....|--- .... ....
....|..|--- .... ....|F#5 3FFA ....|A-3 1FF7 ....
 E-4|..|E-3 2C.F ....|F#4 3FFA ....|--- .... ....
....|..|F#3 2F.7 ....|F#5 3FFA ....|R-- .... ....
....|..|--- .... ....|F#6 3FFA ....|--- .... ....
....|..|B-2 2F.A ....|--- .... ....|G#3 1FFF ....
....|..|C#3 2F.7 ....|--- .... ....|--- .... ....
....|..|--- .... ....|F#5 3FF7 ....|B-3 1FFF ....
....|..|E-3 2F.A ....|F#4 3FF7 ....|--- .... ....
....|..|E-2 2F.7 ....|F#5 3FF7 ....|--- .... ....
....|..|--- .... ....|F#6 3FF7 ....|E-4 1FFF ....
....|..|B-2 2F.7 ....|--- .... ....|G#3 1FFA ....
....|..|--- .... ....|--- .... ....|--- .... ....
....|..|--- .... ....|--- .... ....|G#4 1FFF ....
....|..|E-3 2F.7 ....|--- .... ....|--- .... ....
....|..|--- .... ....|--- .... ....|E-4 1FFF ....
....|..|--- .... ....|--- .... ....|E-4 1FFA ....
....|..|R-- .... ....|--- .... ....|G#3 1FF7 ....
....|..|--- .... ....|--- .... ....|B-3 1FFF ....
....|..|--- .... ....|--- .... ....|B-3 1FF7 ....
....|..|--- .... ....|--- .... ....|--- .... ....
....|..|--- .... ....|--- .... ....|G#3 1FFF ....
....|..|--- .... ....|--- .... ....|E-4 1FF7 ....
 E-4|..|E-3 2C.F ....|--- .... ....|R-- .... ....
....|..|--- .... ....|--- .... ....|B-3 1FFA ....
....|..|--- .... ....|--- .... ....|G#4 1FF7 ....
 B-4|..|B-2 2A.F ....|R-- .... ....|--- .... ....
....|..|--- .... ....|--- .... ....|E-4 1FF7 ....
....|..|--- .... ....|F#5 3FFF ....|--- .... ....
 D-4|..|D-2 2A.F ....|F#6 3FFF ....|R-- .... ....
....|..|--- .... ....|--- .... ....|B-3 1FF7 ....
 A-3|..|A-2 2C.F ....|--- .... ....|--- .... ....
....|..|B-2 2F.A ....|R-- .... ....|--- .... ....
....|..|--- .... ....|--- .... ....|G#3 1FF7 ....
 D-4|..|D-3 2C.F ....|F#5 3FFA ....|--- .... ....
....|..|E-3 2F.7 ....|F#6 3FFA ....|R-- .... ....
....|..|--- .... ....|--- .... ....|--- .... ....
 F#4|..|F#3 2C.F ....|--- .... ....|--- .... ....
....|..|B-2 2F.7 ....|R-- .... ....|--- .... ....
....|..|R-- .... ....|--- .... ....|A-3 1FFF ....
....|..|D-3 2F.A ....|F#5 3FF7 ....|--- .... ....
....|..|D-2 2F.7 ....|F#6 3FF7 ....|--- .... ....
....|..|--- .... ....|--- .... ....|D-4 1FFF ....
....|..|A-2 2F.7 ....|F#6 3FFF ....|--- .... ....
....|..|--- .... ....|F#4 3FFF ....|--- .... ....
....|..|R-- .... ....|F#6 3FFF ....|F#4 1FFF ....
....|..|D-3 2F.7 ....|--- .... ....|--- .... ....
....|..|--- .... ....|--- .... ....|D-4 1FFF ....
....|..|--- .... ....|--- .... ....|D-4 1FFA ....
....|..|F#3 2F.7 ....|F#6 3FFA ....|--- .... ....
....|..|--- .... ....|F#4 3FFA ....|A-3 1FFF ....
....|..|R-- .... ....|F#6 3FFA ....|A-3 1FF7 ....
....|..|--- .... ....|--- .... ....|--- .... ....
 D-4|..|D-3 2C.F ....|--- .... ....|D-4 1FFA ....
....|..|--- .... ....|--- .... ....|D-4 1FF7 ....
 A-3|..|A-2 2C.F ....|F#6 3FF7 ....|--- .... ....
....|..|--- .... ....|F#4 3FF7 ....|A-3 1FFA ....
....|..|--- .... ....|F#6 3FF7 ....|F#4 1FF7 ....
 F#4|..|F#2 2A.F ....|--- .... ....|--- .... ....
....|..|D-3 2F.A ....|F#6 3FFF ....|D-4 1FF7 ....

[Pattern20]
....|..|--- .... ....|R-- .... ....|--- .... ....
 C#4|..|C#2 2A.F ....|F#5 3FFF ....|--- .... ....
....|..|--- .... ....|F#6 3FFF ....|A-3 1FF7 ....
 F#4|..|F#2 2A.F ....|--- .... ....|--- .... ....
....|..|F#2 2F.A ....|--- .... ....|--- .... ....
....|..|D-3 2F.7 ....|F#6 3FFA ....|R-- .... ....
 A-3|..|A-2 2C.F ....|R-- .... ....|--- .... ....
....|..|A-2 2F.7 ....|F#5 3FFA ....|--- .... ....
....|..|--- .... ....|F#6 3FFA ....|--- .... ....
 C#4|..|C#3 2C.F ....|--- .... ....|--- .... ....
....|..|F#2 2F.7 ....|--- .... ....|--- .... ....
 F#4|..|F#3 2C.F ....|F#6 3FF7 ....|--- .... ....
....|..|A-2 2F.A ....|R-- .... ....|--- .... ....
....|..|C#2 2F.7 ....|F#5 3FF7 ....|--- .... ....
....|..|R-- .... ....|F#6 3FF7 ....|A-3 1FFF ....
....|..|F#2 2F.7 ....|--- .... ....|--- .... ....
....|..|--- .... ....|--- .... ....|--- .... ....
....|..|F#3 2F.A ....|--- .... ....|C#4 1FFF ....
....|..|A-2 2F.7 ....|--- .... ....|--- .... ....
....|..|--- .... ....|--- .... ....|A-3 1FFF ....
....|..|R-- .... ....|--- .... ....|A-3 1FFA ....
....|..|C#3 2F.7 ....|--- .... ....|--- .... ....
 F#4|..|F#3 2C.F ....|--- .... ....|R-- .... ....
....|..|F#3 2F.7 ....|--- .... ....|C#4 1FFA ....
....|..|--- .... ....|--- .... ....|--- .... ....
 C#4|..|C#3 2C.F ....|--- .... ....|A-3 1FFA ....
....|..|R-- .... ....|--- .... ....|A-3 1FF7 ....
 A-3|..|A-2 2C.F ....|--- .... ....|--- .... ....
....|..|F#3 2F.A ....|--- .... ....|R-- .... ....
....|..|--- .... ....|--- .... ....|C#4 1FF7 ....
 F#4|..|F#2 2A.F ....|F#4 3FFF ....|--- .... ....
....|..|C#3 2F.A ....|R-- .... ....|A-3 1FF7 ....
....|..|--- .... ....|F#4 3FFF ....|--- .... ....
 B-3|..|B-1 2A.F ....|F#6 3FFF ....|--- .... ....
....|..|F#3 2F.7 ....|--- .... ....|R-- .... ....
 D-4|..|D-2 2A.F ....|--- .... ....|--- .... ....
....|..|F#2 2F.A ....|F#4 3FFA ....|--- .... ....
....|..|C#3 2F.7 ....|R-- .... ....|--- .... ....
 F#4|..|F#2 2A.F ....|F#4 3FFA ....|--- .... ....
....|..|A-2 2F.7 ....|F#6 3FFA ....|--- .... ....
....|..|--- .... ....|--- .... ....|--- .... ....
 D-4|..|D-3 2C.F ....|--- .... ....|--- .... ....
....|..|F#2 2F.7 ....|F#4 3FF7 ....|--- .... ....
 F#4|..|F#3 2C.F ....|R-- .... ....|--- .... ....
....|..|F#2 2F.A ....|F#4 3FF7 ....|--- .... ....
....|..|B-1 2F.7 ....|F#6 3FF7 ....|--- .... ....
....|..|R-- .... ....|--- .... ....|B-3 1FFF ....
....|..|D-2 2F.7 ....|--- .... ....|--- .... ....
....|..|--- .... ....|R-- .... ....|--- .... ....
....|..|F#3 2F.A ....|F#5 3FFF ....|D-4 1FFF ....
....|..|F#2 2F.7 ....|F#6 3FFF ....|--- .... ....
....|..|--- .... ....|--- .... ....|B-3 1FFF ....
....|..|R-- .... ....|--- .... ....|B-3 1FFA ....
....|..|D-3 2F.7 ....|--- .... ....|--- .... ....
 F#4|..|F#3 2C.F ....|R-- .... ....|R-- .... ....
....|..|F#3 2F.7 ....|F#5 3FFA ....|D-4 1FFA ....
....|..|--- .... ....|F#6 3FFA ....|--- .... ....
 D-4|..|D-3 2C.F ....|--- .... ....|B-3 1FFA ....
....|..|R-- .... ....|--- .... ....|B-3 1FF7 ....
 B-4|..|B-2 2A.F ....|--- .... ....|--- .... ....
....|..|F#3 2F.A ....|R-- .... ....|R-- .... ....
....|..|--- .... ....|F#5 3FF7 ....|D-4 1FF7 ....
 F#4|..|F#2 2A.F ....|F#6 3FF7 ....|--- .... ....
....|..|D-3 2F.A ....|--- .... ....|B-3 1FF7 ....

[Pattern21]
....|..|--- .... ....|--- .... ....|--- .... ....
 A-3|..|A-1 2A.F ....|A-5 3FFF ....|--- .... ....
....|..|F#3 2F.7 ....|A-6 3FFF ....|R-- .... ....
 E-4|..|E-2 2A.F ....|--- .... ....|--- .... ....
....|..|F#2 2F.A ....|--- .... ....|--- .... ....
....|..|D-3 2F.7 ....|--- .... ....|--- .... ....
 A-3|..|A-2 2C.F ....|--- .... ....|--- .... ....
....|..|B-2 2F.7 ....|A-5 3FFA ....|--- .... ....
....|..|--- .... ....|A-6 3FFA ....|--- .... ....
 C#4|..|C#3 2C.F ....|--- .... ....|--- .... ....
....|..|F#2 2F.7 ....|--- .... ....|--- .... ....
 E-4|..|E-3 2C.F ....|--- .... ....|--- .... ....
....|..|A-2 2F.A ....|--- .... ....|--- .... ....
....|..|A-1 2F.7 ....|A-5 3FF7 ....|--- .... ....
....|..|R-- .... ....|A-4 3FFF ....|A-3 1FFF ....
....|..|E-2 2F.7 ....|--- .... ....|--- .... ....
....|..|--- .... ....|A-4 3FFF ....|--- .... ....
....|..|E-3 2F.A ....|F#5 3FFF ....|C#4 1FFF ....
....|..|A-2 2F.7 ....|F#6 3FFF ....|--- .... ....
....|..|--- .... ....|--- .... ....|A-3 1FFF ....
....|..|R-- .... ....|A-4 3FFA ....|A-3 1FFA ....
....|..|C#3 2F.7 ....|--- .... ....|--- .... ....
 E-4|..|E-3 2C.F ....|A-4 3FFA ....|R-- .... ....
....|..|E-3 2F.7 ....|F#6 3FFF ....|C#4 1FFA ....
....|..|--- .... ....|F#4 3FFF ....|--- .... ....
 C#4|..|C#3 2C.F ....|F#5 3FFF ....|A-3 1FFA ....
....|..|R-- .... ....|F#6 3FFF ....|A-3 1FF7 ....
 A-3|..|A-2 2C.F ....|--- .... ....|--- .... ....
....|..|E-3 2F.A ....|A-4 3FF7 ....|R-- .... ....
....|..|--- .... ....|F#5 3FF7 ....|C#4 1FF7 ....
 E-4|..|E-2 2A.F ....|F#6 3FF7 ....|--- .... ....
....|..|C#3 2F.A ....|F#5 3FFA ....|A-3 1FF7 ....
....|..|--- .... ....|F#6 3FFA ....|--- .... ....
 G#3|..|G#1 2A.F ....|F#5 3FFF ....|--- .... ....
....|..|E-3 2F.7 ....|F#6 3FFF ....|R-- .... ....
 C-4|..|C-2 2A.F ....|F#6 3FF7 ....|--- .... ....
....|..|E-2 2F.A ....|F#4 3FF7 ....|--- .... ....
....|..|C#3 2F.7 ....|F#5 3FF7 ....|--- .... ....
 D#4|..|D#2 2A.F ....|F#6 3FF7 ....|--- .... ....
....|..|A-2 2F.7 ....|F#5 3FFA ....|--- .... ....
....|..|--- .... ....|F#6 3FFA ....|--- .... ....
 G#4|..|G#2 2A.F ....|--- .... ....|--- .... ....
....|..|E-2 2F.7 ....|--- .... ....|--- .... ....
 C-3|..|C-3 2C.F ....|--- .... ....|--- .... ....
....|..|D#2 2F.A ....|R-- .... ....|--- .... ....
....|..|G#1 2F.7 ....|F#5 3FF7 ....|--- .... ....
 D#4|..|D#3 2C.F ....|F#6 3FF7 ....|--- .... ....
....|..|C-2 2F.7 ....|--- .... ....|--- .... ....
....|..|--- .... ....|R-- .... ....|--- .... ....
....|..|C-3 2F.A ....|F#5 3FFF ....|G#3 1FFF ....
....|..|D#2 2F.7 ....|F#6 3FFF ....|--- .... ....
 D#4|..|D#3 2C.F ....|--- .... ....|R-- .... ....
....|..|D#3 2F.A ....|--- .... ....|--- .... ....
....|..|G#2 2F.7 ....|--- .... ....|--- .... ....
 C-3|..|C-3 2C.F ....|R-- .... ....|--- .... ....
....|..|C-3 2F.7 ....|F#5 3FFA ....|G#3 1FFA ....
....|..|--- .... ....|F#6 3FFA ....|--- .... ....
 G#4|..|G#2 2A.F ....|--- .... ....|R-- .... ....
....|..|D#3 2F.7 ....|--- .... ....|--- .... ....
 D#4|..|D#2 2A.F ....|--- .... ....|--- .... ....
....|..|C-3 2F.A ....|R-- .... ....|--- .... ....
....|..|R-- .... ....|F#5 3FF7 ....|G#3 1FF7 ....
 C-4|..|C-2 2A.F ....|F#6 3FF7 ....|--- .... ....
....|..|D#3 2F.7 ....|F#5 3FFF ....|R-- .... ....

[Pattern22]
....|..|--- .... ....|R-- .... ....|--- .... ....
 G-3|..|G-1 2A.F ....|F#5 3FFF ....|--- .... ....
....|..|C-3 2F.7 ....|F#6 3FFF ....|--- .... ....
 B-3|..|B-1 2A.F ....|--- .... ....|--- .... ....
....|..|C-2 2F.A ....|--- .... ....|--- .... ....
....|..|G#2 2F.7 ....|F#5 3FFA ....|--- .... ....
 D-4|..|D-2 2A.F ....|R-- .... ....|--- .... ....
....|..|D#2 2F.7 ....|F#5 3FFA ....|--- .... ....
....|..|--- .... ....|F#6 3FFA ....|--- .... ....
 G-4|..|G-2 2A.F ....|--- .... ....|--- .... ....
....|..|C-2 2F.7 ....|--- .... ....|--- .... ....
 B-4|..|B-2 2A.F ....|F#5 3FF7 ....|--- .... ....
....|..|D-2 2F.A ....|R-- .... ....|--- .... ....
....|..|G-1 2F.7 ....|F#5 3FF7 ....|--- .... ....
 D-4|..|D-3 2C.F ....|F#6 3FF7 ....|--- .... ....
....|..|B-1 2F.7 ....|F#4 3FFF ....|--- .... ....
....|..|--- .... ....|R-- .... ....|--- .... ....
 G-4|..|G-3 2C.F ....|F#6 3FFF ....|G-3 1FFF ....
....|..|D-2 2F.7 ....|--- .... ....|--- .... ....
 D-4|..|D-3 2C.F ....|--- .... ....|R-- .... ....
....|..|D-3 2F.A ....|--- .... ....|--- .... ....
....|..|G-2 2F.7 ....|F#4 3FFA ....|--- .... ....
 B-4|..|B-2 2A.F ....|R-- .... ....|--- .... ....
....|..|B-2 2F.7 ....|F#6 3FFA ....|G-3 1FFA ....
....|..|--- .... ....|--- .... ....|--- .... ....
 G-4|..|G-2 2A.F ....|--- .... ....|R-- .... ....
....|..|D-3 2F.7 ....|--- .... ....|--- .... ....
 D-4|..|D-2 2A.F ....|F#4 3FF7 ....|--- .... ....
....|..|B-2 2F.A ....|F#5 3FFF ....|--- .... ....
....|..|G-3 2F.7 ....|F#6 3FF7 ....|G-3 1FF7 ....
 B-3|..|B-1 2A.F ....|F#5 3FFF ....|--- .... ....
....|..|D-3 2F.7 ....|R-- .... ....|R-- .... ....
....|..|R-- .... ....|--- .... ....|--- .... ....
 F#3|..|F#1 2A.F ....|F#5 3FFF ....|--- .... ....
....|..|B-2 2F.7 ....|F#5 3FFA ....|--- .... ....
....|..|--- .... ....|--- .... ....|--- .... ....
....|..|B-1 2F.A ....|F#5 3FFA ....|--- .... ....
....|..|G-2 2F.7 ....|R-- .... ....|--- .... ....
....|..|R-- .... ....|--- .... ....|--- .... ....
....|..|D-2 2F.7 ....|F#5 3FFA ....|--- .... ....
....|..|--- .... ....|F#5 3FF7 ....|--- .... ....
....|..|--- .... ....|--- .... ....|--- .... ....
....|..|B-1 2F.7 ....|F#5 3FF7 ....|--- .... ....
....|..|--- .... ....|R-- .... ....|--- .... ....
....|..|R-- .... ....|--- .... ....|--- .... ....
....|..|F#1 2F.7 ....|F#5 3FF7 ....|--- .... ....
....|..|--- .... ....|--- .... ....|--- .... ....
....|..|--- .... ....|--- .... ....|--- .... ....
....|..|--- .... ....|--- .... ....|--- .... ....
....|..|--- .... ....|--- .... ....|--- .... ....
....|..|--- .... ....|--- .... ....|--- .... ....
....|..|--- .... ....|--- .... ....|--- .... ....
....|..|--- .... ....|--- .... ....|--- .... ....
....|..|--- .... ....|--- .... ....|--- .... ....
....|..|--- .... ....|--- .... ....|--- .... ....
....|..|--- .... ....|--- .... ....|--- .... ....
....|..|--- .... ....|--- .... ....|--- .... ....
....|..|--- .... ....|--- .... ....|--- .... ....
....|..|--- .... ....|--- .... ....|--- .... ....
....|..|--- .... ....|--- .... ....|--- .... ....
....|..|--- .... ....|--- .... ....|--- .... ....
....|..|--- .... ....|--- .... ....|--- .... ....
....|..|--- .... ....|--- .... ....|--- .... ....
....|..|--- .... ....|--- .... ....|--- .... ....

[Pattern23]
....|..|--- .... ....|--- .... ....|--- .... ....
....|..|R-- .... ....|R-- .... ....|--- .... ....
....|..|--- .... ....|--- .... ....|--- .... ....
....|..|--- .... ....|--- .... ....|--- .... ....
....|..|--- .... ....|--- .... ....|--- .... ....
....|..|--- .... ....|--- .... ....|--- .... ....
....|..|--- .... ....|--- .... ....|--- .... ....
....|..|R-- .... ....|R-- .... ....|--- .... ....
....|..|--- .... ....|--- .... ....|--- .... ....
....|..|--- .... ....|--- .... ....|--- .... ....
....|..|--- .... ....|--- .... ....|--- .... ....
....|..|--- .... ....|--- .... ....|--- .... ....
....|..|--- .... ....|--- .... ....|--- .... ....
