[Module]
VortexTrackerII=0
Version=3.5
Title=3me[2f],1m[3f]-3me+,2p[u]
Author=oisee ^ 4d 29.05.2010
NoteTable=4
ChipFreq=1750000
Speed=4
PlayOrder=L0,1,2,3,4,5,6,7,8,9,10,11,12,13,14,15,16,17,18,19,20,21,22,23,24,25,26,27,28,29,30,31,32,33,34,35,36,35,38


[Ornament1]
L0,0,4,4,7,7

[Ornament2]
L0,0,3,3,7,7

[Ornament3]
L0,0,4,4,9,9

[Ornament4]
L0,0,3,3,6,6

[Ornament5]
L0,0,5,5,9,9

[Ornament6]
L0,0,5,5,8,8


[Sample1]
TnE +000_ +00_ F_
TnE +000_ +00_ F_
TnE +000_ +00_ F_
TnE +000_ +00_ D_
TnE +000_ +00_ B_
TnE +000_ +00_ B_ L

[Sample2]
TnE +000_ +00_ F_ L

[Sample3]
TnE +001_ +00_ F_
TnE +002_ +00_ F_
TnE +001_ +00_ E_
TnE +002_ +00_ E_
TnE +000_ +00_ E_ L
TnE -001_ +00_ E_
TnE -002_ +00_ E_
TnE -001_ +00_ E_
TnE +000_ +00_ E_
TnE +001_ +00_ E_
TnE +002_ +00_ E_
TnE +001_ +00_ E_

[Sample4]
TnE +002_ +00_ D_
TnE +002_ +00_ D_
TnE +002_ +00_ C_
TnE +002_ +00_ B_
TnE +002_ +00_ A_ L
TnE +002_ +00_ A_
TnE +002_ +00_ A_
TnE +002_ +00_ A_
TnE +002_ +00_ A_
TnE +002_ +00_ A_
TnE +002_ +00_ A_
TnE +002_ +00_ A_

[Sample5]
TnE +000_ +00_ F_
TnE +000_ +00_ F_
tne +000_ +00_ 0_ L

[Sample6]
TnE -001_ +00_ F_ L

[Sample7]
TnE +006_ +00_ F_ L

[Sample8]
tNe +000_ +00_ F_
tNe +000_ +00_ B_
tNe +000_ +00_ 7_
tNe +000_ +00_ 6- L

[Sample9]
TnE +080_ +00_ F_
TnE +100_ +00_ E_
TnE +180_ +00_ E_
TnE +200_ +00_ E_
TnE +240_ +00_ D_
TnE +280_ +00_ D_
TnE +2C0_ +00_ D_
TnE +300_ +00_ C_
TnE +300_ +00_ C_
TnE +340_ +00_ C_
TnE +340_ +00_ C_
TnE +380_ +00_ B_
TnE +380_ +00_ B_
TnE +400_ +00_ B_
TnE +400_ +00_ B_
TnE +480_ +00_ A_
TnE +500_ +00_ 9_
TnE +580_ +00_ 7_
TnE +600_ +00_ 4_
TnE +680_ +00_ 1_
TnE +000_ +00_ 0_ L

[Sample10]
Tne +1C0_ +00_ F_
Tne +280_ +00_ E_
Tne +380_ +00_ C_
Tne +440_ +00_ A_
Tne +480_ +00_ 8_
TnE +000_ +00_ 0_ L

[Sample11]
TNe +200_ -0A_ F_
tNe +000_ +0F_ A_
TNe +200_ -07_ E_
tNe +000_ +0E_ B- L

[Sample12]
TNE +0A0_ +05_ F_
TNE +140_ +02_ D_
TNE +140_ +02_ B_
TNE +100_ +00_ A_ L
TNE +140_ +00_ A_
TNE +200_ +00_ A-

[Sample13]
Tne +200_ +00_ F_
Tne +2C0_ +00_ F_
Tne +380_ +00_ E_
Tne +500_ +00_ C_
Tne +520_ +00_ 9_
tne +000_ +00_ 0_ L

[Sample14]
TNE -100_ +00_ F_
TNE -100_ +00_ D_
TNE -100_ +00_ A_
TNE -100_ +00_ 5_
tne +000_ +00_ 0_ L

[Sample15]
TNE -100_ +00_ 5_
TNE -100_ +00_ 8_
TNE -100_ +00_ B_
TNE -100_ +00_ F_
TNe -100_ +00_ 9- L

[Sample16]
TnE +000_ +00_ C_
TnE +000_ +00_ E_
TnE +000_ +00_ F_
TnE +000_ +00_ F_
TnE +000_ +00_ E_
TnE +000_ +00_ D_
TnE +000_ +00_ C_
TnE +000_ +00_ C_ L
TnE +001_ +00_ C_
TnE +002_ +00_ C_
TnE +003_ +00_ C_
TnE +001_ +00_ C_
TnE +000_ +00_ C_
TnE -001_ +00_ C_
TnE -002_ +00_ C_
TnE -003_ +00_ C_
TnE -001_ +00_ C_
TnE +000_ +00_ C_
TnE +000_ +00_ C_

[Sample17]
Tne +1C0_ +00_ F_
Tne +280_ +00_ D_
Tne +380_ +00_ 7_
TNE +000_ +00_ 0_ L

[Sample18]
TnE -00C_ +00_ 0_ L

[Sample19]
TNe +000_ +00_ F_
TNe +000_ +00_ C_
TNe +000_ +00_ 6_
TNe +000_ +01_ A- L

[Sample20]
TNE +140_ +00_ F_
tNE +000_ +00_ B- L

[Sample21]
tNE +000_ +00_ D_
tNE +000_ +00_ 8_
tNE +000_ +00_ 1_
TNE +000_ +00_ 0_ L

[Sample22]
TnE +000_ +00_ D_ L
TnE +000_ +00_ D_
tne +000_ +00_ 9_
tne +000_ +00_ 9_
TnE +000_ +00_ D_
TnE +000_ +00_ D_
tne +000_ +00_ 9_
tne +000_ +00_ 9_
TnE +000_ +00_ D_
TnE +000_ +00_ D_
TnE +000_ +00_ D_
TnE +000_ +00_ D_
TnE +000_ +00_ D_
TnE +000_ +00_ D_
tne +000_ +00_ 9_
tne +000_ +00_ 9_

[Sample23]
TnE +000_ +00_ F_ L
TnE +010_ +01_ F_
TnE +010_ +01_ F_
TnE +010_ +01_ F_
TnE +010_ +01_ F_
TnE +000_ +00_ F_
TnE +000_ +00_ F_
TnE -010_ -01_ F_
TnE -010_ -01_ F_
TnE -010_ -01_ F_
TnE -010_ -01_ F_
TnE +000_ +00_ F_

[Sample24]
TNe +000_ -01_ C_
TNe +000_ -01_ D_
TNe +000_ -01_ E_
TNe +000_ -01_ F_
TNe +000_ -01_ F_
TNe +000_ -01_ F_
TNe +000_ -01_ F_
TNe +000_ -01_ F_
TNe +000_ -01_ E_
TNe +000_ -01_ E_
TNe +000_ -01_ E_
TNe +000_ -01_ F_
TNe +000_ -01_ F_ L

[Sample25]
TNE +000_ +00_ F_
TNE +000_ +00_ F_ L
TNE +000_ +00_ F_
TNE +000_ +00_ F_
TNE +000_ +00_ F-

[Sample26]
tne +000_ +00_ 0_ L

[Sample27]
TnE +100_ +05_ F_
TnE +200_ +02_ A_
TnE +300_ +02_ 7_
TNE +400_ +00_ 3- L

[Sample28]
tne +000_ +00_ 0_ L

[Sample29]
tnE +000_ +00_ 0_ L

[Sample30]
TNE +000_ +00_ C+ L

[Sample31]
TNe +1C0_ +00_ F_
Tne +280_ +00_ E_
Tne +380_ +00_ C_
Tne +440_ +00_ A_
Tne +480_ +00_ 8_
TnE +000_ +00_ 0_ L

[Pattern0]
....|..|--- .... ....|--- .... ....|C-4 UF1F ....
....|..|--- .... ....|--- .... ....|--- .... ....
....|..|--- .... ....|--- .... ....|--- .... ....
....|..|--- .... ....|--- .... ....|--- .... ....
....|..|--- .... ....|E-6 3FFF ....|--- .... ....
....|..|--- .... ....|--- .... ....|--- .... ....
....|..|--- .... ....|--- .... ....|C-4 UF1A ....
....|..|--- .... ....|R-- .... ....|--- .... ....
....|..|--- .... ....|F-6 3FFF ....|--- .... ....
....|..|--- .... ....|--- .... ....|--- .... ....
....|..|--- .... ....|E-6 3FFA ....|--- .... ....
....|..|--- .... ....|--- .... ....|--- .... ....
....|..|--- .... ....|--- .... ....|C-4 UF17 ....
....|..|--- .... ....|E-6 3FFF ....|--- .... ....
....|..|--- .... ....|F-6 3FFA ....|--- .... ....
....|..|--- .... ....|--- .... ....|--- .... ....
....|..|--- .... ....|E-6 3FF7 ....|--- .... ....
....|..|--- .... ....|--- .... ....|--- .... ....
....|..|--- .... ....|--- .... ....|--- .... ....
....|..|--- .... ....|E-6 3FFA ....|--- .... ....
....|..|--- .... ....|F-6 3FF7 ....|--- .... ....
....|..|--- .... ....|--- .... ....|--- .... ....
....|..|--- .... ....|R-- .... ....|--- .... ....
....|..|--- .... ....|--- .... ....|--- .... ....
....|..|--- .... ....|--- .... ....|--- .... ....
....|..|--- .... ....|E-6 3FF7 ....|--- .... ....
....|..|--- .... ....|R-- .... ....|--- .... ....
....|..|--- .... ....|D-6 3FFF ....|--- .... ....
....|..|--- .... ....|--- .... ....|--- .... ....
....|..|--- .... ....|E-6 3FFF ....|--- .... ....
....|..|--- .... ....|R-- .... ....|R-- .... ....
....|..|--- .... ....|--- .... ....|--- .... ....
....|..|--- .... ....|F-6 3FFF ....|G-3 UF1F ....
....|..|--- .... ....|D-6 3FFA ....|--- .... ....
....|..|--- .... ....|--- .... ....|--- .... ....
....|..|--- .... ....|E-6 3FFA ....|--- .... ....
....|..|--- .... ....|R-- .... ....|R-- .... ....
....|..|--- .... ....|--- .... ....|--- .... ....
....|..|--- .... ....|F-6 3FFA ....|G-3 UF1A ....
....|..|--- .... ....|D-6 3FF7 ....|--- .... ....
....|..|--- .... ....|--- .... ....|--- .... ....
....|..|--- .... ....|E-6 3FF7 ....|--- .... ....
....|..|--- .... ....|R-- .... ....|R-- .... ....
....|..|--- .... ....|--- .... ....|--- .... ....
....|..|--- .... ....|F-6 3FF7 ....|G-3 UF17 ....
....|..|--- .... ....|--- .... ....|--- .... ....
....|..|--- .... ....|--- .... ....|--- .... ....
....|..|--- .... ....|R-- .... ....|--- .... ....
....|..|--- .... ....|E-6 3FFF ....|--- .... ....
....|..|--- .... ....|--- .... ....|--- .... ....
....|..|--- .... ....|--- .... ....|--- .... ....
....|..|--- .... ....|--- .... ....|--- .... ....
....|..|--- .... ....|R-- .... ....|--- .... ....
....|..|--- .... ....|R-- .... ....|--- .... ....
....|..|--- .... ....|E-6 3FFA ....|--- .... ....
....|..|--- .... ....|--- .... ....|--- .... ....
....|..|--- .... ....|D-6 3FFF ....|--- .... ....
....|..|--- .... ....|--- .... ....|--- .... ....
....|..|--- .... ....|R-- .... ....|--- .... ....
....|..|--- .... ....|R-- .... ....|--- .... ....
....|..|--- .... ....|E-6 3FF7 ....|--- .... ....
....|..|--- .... ....|--- .... ....|--- .... ....
....|..|--- .... ....|D-6 3FFA ....|R-- .... ....
....|..|--- .... ....|--- .... ....|--- .... ....

[Pattern1]
....|..|--- .... ....|G-5 3FFF ....|A-3 UF2F ....
....|..|--- .... ....|--- .... ....|--- .... ....
....|..|--- .... ....|--- .... ....|--- .... ....
....|..|--- .... ....|--- .... ....|--- .... ....
....|..|--- .... ....|D-6 3FF7 ....|R-- .... ....
....|..|--- .... ....|--- .... ....|--- .... ....
....|..|--- .... ....|G-5 3FFA ....|A-3 UF2A ....
....|..|--- .... ....|--- .... ....|--- .... ....
....|..|--- .... ....|--- .... ....|--- .... ....
....|..|--- .... ....|--- .... ....|--- .... ....
....|..|--- .... ....|R-- .... ....|R-- .... ....
....|..|--- .... ....|--- .... ....|--- .... ....
....|..|--- .... ....|G-5 3FF7 ....|A-3 UF27 ....
....|..|--- .... ....|--- .... ....|--- .... ....
....|..|--- .... ....|--- .... ....|--- .... ....
....|..|--- .... ....|--- .... ....|--- .... ....
....|..|--- .... ....|--- .... ....|--- .... ....
....|..|--- .... ....|--- .... ....|--- .... ....
....|..|--- .... ....|--- .... ....|--- .... ....
....|..|--- .... ....|--- .... ....|--- .... ....
....|..|--- .... ....|--- .... ....|--- .... ....
....|..|--- .... ....|--- .... ....|--- .... ....
....|..|--- .... ....|--- .... ....|--- .... ....
....|..|--- .... ....|--- .... ....|--- .... ....
....|..|--- .... ....|R-- .... ....|--- .... ....
....|..|--- .... ....|--- .... ....|--- .... ....
....|..|--- .... ....|--- .... ....|--- .... ....
....|..|--- .... ....|C-6 3FFF ....|--- .... ....
....|..|--- .... ....|--- .... ....|A-3 UF.F ....
....|..|--- .... ....|D-6 3FFF ....|R-- .... ....
....|..|--- .... ....|R-- .... ....|--- .... ....
....|..|--- .... ....|--- .... ....|--- .... ....
....|..|--- .... ....|E-6 3FFF ....|G-3 UF3F ....
....|..|--- .... ....|C-6 3FFA ....|--- .... ....
....|..|--- .... ....|--- .... ....|A-3 UF.A ....
....|..|--- .... ....|D-6 3FFA ....|R-- .... ....
....|..|--- .... ....|R-- .... ....|--- .... ....
....|..|--- .... ....|--- .... ....|--- .... ....
....|..|--- .... ....|E-6 3FFA ....|G-3 UF3A ....
....|..|--- .... ....|C-6 3FF7 ....|--- .... ....
....|..|--- .... ....|--- .... ....|A-3 UF.7 ....
....|..|--- .... ....|D-6 3FF7 ....|R-- .... ....
....|..|--- .... ....|R-- .... ....|--- .... ....
....|..|--- .... ....|--- .... ....|--- .... ....
....|..|--- .... ....|E-6 3FF7 ....|G-3 UF37 ....
....|..|--- .... ....|--- .... ....|--- .... ....
....|..|--- .... ....|R-- .... ....|--- .... ....
....|..|--- .... ....|--- .... ....|--- .... ....
....|..|--- .... ....|D-6 3FFF ....|F-3 UF3F ....
....|..|--- .... ....|--- .... ....|--- .... ....
....|..|--- .... ....|--- .... ....|--- .... ....
....|..|--- .... ....|R-- .... ....|--- .... ....
....|..|--- .... ....|R-- .... ....|--- .... ....
....|..|--- .... ....|--- .... ....|--- .... ....
....|..|--- .... ....|D-6 3FFA ....|F-3 UF3A ....
....|..|--- .... ....|--- .... ....|--- .... ....
....|..|--- .... ....|C-6 3FFF ....|--- .... ....
....|..|--- .... ....|R-- .... ....|--- .... ....
....|..|--- .... ....|R-- .... ....|--- .... ....
....|..|--- .... ....|--- .... ....|--- .... ....
....|..|--- .... ....|D-6 3FF7 ....|F-3 UF37 ....
....|..|--- .... ....|--- .... ....|--- .... ....
....|..|--- .... ....|C-6 3FFA ....|--- .... ....
....|..|--- .... ....|R-- .... ....|--- .... ....

[Pattern2]
 C-4|..|C-2 2AFF ....|C-2 2A.F ....|C-4 UF1F ....
....|..|--- .... ....|--- .... ....|--- .... ....
....|..|--- .... ....|--- .... ....|--- .... ....
....|..|--- .... ....|--- .... ....|--- .... ....
 C-3|..|C-3 2CFF ....|C-3 2C.F ....|--- .... ....
....|..|--- .... ....|R-- .... ....|--- .... ....
....|..|C-2 2FFA ....|C-2 2F.A ....|C-4 UF1A ....
....|..|--- .... ....|--- .... ....|--- .... ....
 C-4|..|C-2 2AFF ....|C-2 2A.F ....|--- .... ....
....|..|--- .... ....|--- .... ....|--- .... ....
....|..|C-3 2FFA ....|C-3 2F.A ....|--- .... ....
....|..|--- .... ....|--- .... ....|--- .... ....
 C-3|..|C-3 2CFF ....|C-3 2C.F ....|C-4 UF17 ....
....|..|--- .... ....|--- .... ....|--- .... ....
....|..|C-2 2FFA ....|C-2 2F.A ....|--- .... ....
....|..|--- .... ....|--- .... ....|--- .... ....
 C-3|..|C-3 2CFF ....|C-3 2C.F ....|--- .... ....
 C-4|..|C-2 2AFF ....|C-2 2A.F ....|--- .... ....
....|..|C-3 2FFA ....|C-3 2F.A ....|--- .... ....
....|..|--- .... ....|--- .... ....|--- .... ....
 C-3|..|C-3 2CFF ....|C-3 2C.F ....|--- .... ....
....|..|--- .... ....|--- .... ....|--- .... ....
....|..|C-3 2FFA ....|C-3 2F.A ....|--- .... ....
....|..|C-2 2FFA ....|C-2 2F.A ....|--- .... ....
 C-4|..|C-2 2AFF ....|C-2 2A.F ....|--- .... ....
....|..|--- .... ....|--- .... ....|--- .... ....
....|..|C-3 2FFA ....|C-3 2F.A ....|--- .... ....
....|..|--- .... ....|--- .... ....|--- .... ....
 C-3|..|C-3 2CFF ....|C-3 2C.F ....|--- .... ....
 C-3|..|C-3 2CFF ....|C-3 2C.F ....|--- .... ....
....|..|C-2 2FFA ....|C-2 2F.A ....|R-- .... ....
....|..|--- .... ....|E-4 3FFF ....|--- .... ....
 G-3|..|G-1 2AFF ....|G-1 2A.F ....|G-3 UF1F ....
....|..|--- .... ....|--- .... ....|--- .... ....
....|..|C-3 2FFA ....|C-3 2F.A ....|--- .... ....
....|..|C-3 2FFA ....|C-3 2F.A ....|--- .... ....
 G-4|..|G-2 2AFF ....|G-2 2A.F ....|R-- .... ....
 G-4|..|G-2 2AFF ....|G-2 2A.F ....|--- .... ....
....|..|G-1 2FFA ....|G-1 2F.A ....|G-3 UF1A ....
....|..|--- .... ....|--- .... ....|--- .... ....
 G-3|..|G-1 2AFF ....|G-1 2A.F ....|--- .... ....
....|..|C-3 2FF7 ....|C-3 2F.7 ....|--- .... ....
....|..|G-2 2FFA ....|G-2 2F.A ....|R-- .... ....
....|..|G-2 2FFA ....|G-2 2F.A ....|--- .... ....
 G-4|..|G-2 2AFF ....|G-2 2A.F ....|G-3 UF17 ....
 G-4|..|G-2 2AFF ....|G-2 2A.F ....|--- .... ....
....|..|G-1 2FFA ....|G-1 2F.A ....|--- .... ....
....|..|--- .... ....|R-- .... ....|--- .... ....
 G-4|..|G-2 2AFF ....|E-5 3FFF ....|--- .... ....
 G-3|..|G-1 2AFF ....|G-1 2A.F ....|--- .... ....
....|..|G-2 2FFA ....|G-2 2F.A ....|--- .... ....
....|..|G-2 2FFA ....|G-2 2F.A ....|--- .... ....
 G-4|..|G-2 2AFF ....|G-2 2A.F ....|--- .... ....
 G-4|..|G-2 2AFF ....|G-2 2A.F ....|--- .... ....
....|..|G-2 2FFA ....|E-5 3FFA ....|--- .... ....
....|..|G-1 2FFA ....|G-1 2F.A ....|--- .... ....
 G-3|..|G-1 2AFF ....|G-1 2A.F ....|--- .... ....
....|..|G-2 2FF7 ....|G-2 2F.7 ....|--- .... ....
....|..|G-2 2FFA ....|G-2 2F.A ....|--- .... ....
....|..|G-2 2FFA ....|G-2 2F.A ....|--- .... ....
 G-4|..|G-2 2AFF ....|G-2 2A.F ....|--- .... ....
 G-4|..|G-2 2AFF ....|G-2 2A.F ....|--- .... ....
....|..|G-1 2FFA ....|G-1 2F.A ....|R-- .... ....
....|..|--- .... ....|R-- .... ....|--- .... ....

[Pattern3]
 F-3|..|F-1 2AFF ....|E-5 3FFF ....|A-3 UF2F ....
....|..|G-2 2FF7 ....|G-2 2F.7 ....|--- .... ....
....|..|G-2 2FFA ....|G-2 2F.A ....|--- .... ....
....|..|G-2 2FFA ....|G-2 2F.A ....|--- .... ....
 F-4|..|F-2 2AFF ....|E-5 3FFF ....|R-- .... ....
 F-4|..|F-2 2AFF ....|F-2 2A.F ....|--- .... ....
....|..|F-1 2FFA ....|E-5 3FFA ....|A-3 UF2A ....
....|..|--- .... ....|--- .... ....|--- .... ....
 F-4|..|F-2 2AFF ....|F-2 2A.F ....|--- .... ....
 F-3|..|F-1 2AFF ....|F-1 2A.F ....|--- .... ....
....|..|F-2 2FFA ....|E-5 3FFA ....|R-- .... ....
....|..|F-2 2FFA ....|F-2 2F.A ....|--- .... ....
 F-4|..|F-2 2AFF ....|E-5 3FFF ....|A-3 UF27 ....
 F-4|..|F-2 2AFF ....|F-2 2A.F ....|--- .... ....
....|..|F-2 2FFA ....|F-2 2F.A ....|--- .... ....
....|..|F-1 2FFA ....|F-1 2F.A ....|--- .... ....
 F-4|..|F-2 2AFF ....|F-2 2A.F ....|--- .... ....
 F-3|..|F-1 2AFF ....|F-1 2A.F ....|--- .... ....
....|..|F-2 2FFA ....|E-5 3FFA ....|--- .... ....
....|..|F-2 2FFA ....|F-2 2F.A ....|--- .... ....
 F-4|..|F-2 2AFF ....|F-2 2A.F ....|--- .... ....
....|..|F-1 2FF7 ....|F-1 2F.7 ....|--- .... ....
....|..|F-2 2FFA ....|F-2 2F.A ....|--- .... ....
....|..|F-1 2FFA ....|F-1 2F.A ....|--- .... ....
 F-4|..|F-2 2AFF ....|F-2 2A.F ....|--- .... ....
 F-3|..|F-1 2AFF ....|F-1 2A.F ....|--- .... ....
....|..|F-2 2FFA ....|F-2 2F.A ....|--- .... ....
....|..|--- .... ....|--- .... ....|--- .... ....
 F-4|..|F-2 2AFF ....|F-2 2A.F ....|A-3 UF.F ....
 F-4|..|F-2 2AFF ....|F-2 2A.F ....|R-- .... ....
....|..|F-2 2FFA ....|F-2 2F.A ....|--- .... ....
....|..|F-1 2FFA ....|F-1 2F.A ....|--- .... ....
 E-3|..|E-1 2AFF ....|E-1 2A.F ....|G-3 UF3F ....
....|..|--- .... ....|--- .... ....|--- .... ....
....|..|F-2 2FFA ....|F-2 2F.A ....|A-3 UF.A ....
....|..|F-2 2FFA ....|F-2 2F.A ....|R-- .... ....
 E-4|..|E-2 2AFF ....|E-2 2A.F ....|--- .... ....
 E-4|..|E-2 2AFF ....|E-2 2A.F ....|--- .... ....
....|..|E-1 2FFA ....|E-1 2F.A ....|G-3 UF3A ....
....|..|--- .... ....|--- .... ....|--- .... ....
 E-3|..|E-1 2AFF ....|E-1 2A.F ....|A-3 UF.7 ....
....|..|F-2 2FF7 ....|F-2 2F.7 ....|R-- .... ....
....|..|E-2 2FFA ....|E-2 2F.A ....|--- .... ....
....|..|E-2 2FFA ....|E-2 2F.A ....|--- .... ....
 E-4|..|E-2 2AFF ....|E-2 2A.F ....|G-3 UF37 ....
....|..|--- .... ....|--- .... ....|--- .... ....
....|..|E-1 2FFA ....|E-1 2F.A ....|--- .... ....
....|..|--- .... ....|--- .... ....|--- .... ....
 E-4|..|E-2 2AFF ....|A-5 3FFF ....|G-3 UF1F ....
 E-3|..|E-1 2AFF ....|E-1 2A.F ....|--- .... ....
....|..|E-2 2FFA ....|E-2 2F.A ....|--- .... ....
....|..|--- .... ....|--- .... ....|--- .... ....
 E-4|..|E-2 2AFF ....|E-2 2A.F ....|--- .... ....
 E-4|..|E-2 2AFF ....|E-2 2A.F ....|--- .... ....
....|..|E-2 2FFA ....|A-5 3FFF ....|G-3 UF1A ....
....|..|E-1 2FFA ....|E-1 2F.A ....|--- .... ....
 E-3|..|E-1 2AFF ....|E-1 2A.F ....|--- .... ....
....|..|--- .... ....|--- .... ....|--- .... ....
....|..|E-2 2FFA ....|E-2 2F.A ....|--- .... ....
....|..|E-2 2FFA ....|E-2 2F.A ....|--- .... ....
 E-4|..|E-2 2AFF ....|E-2 2A.F ....|G-3 UF17 ....
....|..|E-1 2FF7 ....|E-1 2F.7 ....|--- .... ....
....|..|E-1 2FFA ....|E-1 2F.A ....|--- .... ....
....|..|--- .... ....|--- .... ....|--- .... ....

[Pattern4]
 C-4|..|C-2 2AFF ....|E-5 3FFF ....|C-4 UF1F ....
....|..|E-2 2FF7 ....|E-2 2F.7 ....|--- .... ....
....|..|E-2 2FFA ....|E-2 2F.A ....|--- .... ....
....|..|--- .... ....|R-- .... ....|--- .... ....
 C-3|..|C-3 2CFF ....|C-3 2C.F ....|--- .... ....
....|..|--- .... ....|--- .... ....|--- .... ....
....|..|C-2 2FFA ....|E-5 3FFA ....|C-4 UF1A ....
....|..|--- .... ....|--- .... ....|--- .... ....
 C-4|..|C-2 2AFF ....|E-5 3FFF ....|--- .... ....
....|..|--- .... ....|R-- .... ....|--- .... ....
....|..|C-3 2FFA ....|C-3 2F.A ....|--- .... ....
....|..|--- .... ....|--- .... ....|--- .... ....
 C-3|..|C-3 2CFF ....|E-5 3FFF ....|C-4 UF17 ....
....|..|--- .... ....|--- .... ....|--- .... ....
....|..|C-2 2FFA ....|E-5 3FFA ....|--- .... ....
....|..|--- .... ....|R-- .... ....|--- .... ....
 C-3|..|C-3 2CFF ....|C-3 2C.F ....|--- .... ....
 C-4|..|C-2 2AFF ....|C-2 2A.F ....|--- .... ....
....|..|C-3 2FFA ....|E-5 3FFA ....|--- .... ....
....|..|--- .... ....|--- .... ....|--- .... ....
 C-3|..|C-3 2CFF ....|C-3 2C.F ....|--- .... ....
....|..|--- .... ....|R-- .... ....|--- .... ....
....|..|C-3 2FFA ....|C-3 2F.A ....|--- .... ....
....|..|C-2 2FFA ....|C-2 2F.A ....|--- .... ....
 C-4|..|C-2 2AFF ....|C-2 2A.F ....|--- .... ....
....|..|--- .... ....|--- .... ....|--- .... ....
....|..|C-3 2FFA ....|C-3 2F.A ....|--- .... ....
....|..|--- .... ....|--- .... ....|--- .... ....
 C-3|..|C-3 2CFF ....|C-3 2C.F ....|--- .... ....
 C-3|..|C-3 2CFF ....|C-3 2C.F ....|--- .... ....
....|..|C-2 2FFA ....|C-2 2F.A ....|R-- .... ....
....|..|--- .... ....|E-5 3FFF ....|--- .... ....
 G-3|..|G-1 2AFF ....|G-1 2A.F ....|G-3 UF1F ....
....|..|--- .... ....|--- .... ....|--- .... ....
....|..|C-3 2FFA ....|C-3 2F.A ....|--- .... ....
....|..|C-3 2FFA ....|C-3 2F.A ....|--- .... ....
 G-4|..|G-2 2AFF ....|A-5 3FFF ....|R-- .... ....
 G-4|..|G-2 2AFF ....|G-2 2A.F ....|--- .... ....
....|..|G-1 2FFA ....|G-1 2F.A ....|G-3 UF1A ....
....|..|--- .... ....|C-6 3FFF ....|--- .... ....
 G-3|..|G-1 2AFF ....|G-1 2A.F ....|--- .... ....
....|..|C-3 2FF7 ....|C-3 2F.7 ....|--- .... ....
....|..|G-2 2FFA ....|A-5 3FFA ....|R-- .... ....
....|..|G-2 2FFA ....|B-5 3FFF ....|--- .... ....
 G-4|..|G-2 2AFF ....|G-2 2A.F ....|G-3 UF17 ....
 G-4|..|G-2 2AFF ....|G-2 2A.F ....|--- .... ....
....|..|G-1 2FFA ....|G-1 2F.A ....|--- .... ....
....|..|--- .... ....|A-5 3FFF ....|--- .... ....
 G-4|..|G-2 2AFF ....|G-2 2A.F ....|--- .... ....
 G-3|..|G-1 2AFF ....|G-1 2A.F ....|--- .... ....
....|..|G-2 2FFA ....|G-2 2F.A ....|--- .... ....
....|..|G-2 2FFA ....|F-4 3FFF ....|--- .... ....
 G-4|..|G-2 2AFF ....|G-2 2A.F ....|--- .... ....
 G-4|..|G-2 2AFF ....|G-2 2A.F ....|--- .... ....
....|..|G-2 2FFA ....|G-2 2F.A ....|--- .... ....
....|..|G-1 2FFA ....|E-5 3FFF ....|--- .... ....
 G-3|..|G-1 2AFF ....|G-1 2A.F ....|--- .... ....
....|..|G-2 2FF7 ....|F-4 3FFF ....|--- .... ....
....|..|G-2 2FFA ....|G-2 2F.A ....|--- .... ....
....|..|G-2 2FFA ....|F-5 3FFF ....|--- .... ....
 G-4|..|G-2 2AFF ....|F-5 3FFF ....|--- .... ....
 G-4|..|G-2 2AFF ....|G-2 2A.F ....|--- .... ....
....|..|G-1 2FFA ....|G-1 2F.A ....|R-- .... ....
....|..|--- .... ....|A-5 3FFF ....|--- .... ....

[Pattern5]
 F-3|..|F-1 2AFF ....|F-1 2A.F ....|A-3 UF2F ....
....|..|G-2 2FF7 ....|G-5 3FFF ....|--- .... ....
....|..|G-2 2FFA ....|F-5 3FFA ....|--- .... ....
....|..|G-2 2FFA ....|G-2 2F.A ....|--- .... ....
 F-4|..|F-2 2AFF ....|F-2 2A.F ....|R-- .... ....
 F-4|..|F-2 2AFF ....|F-2 2A.F ....|--- .... ....
....|..|F-1 2FFA ....|F-1 2F.A ....|A-3 UF2A ....
....|..|--- .... ....|F-5 3FF7 ....|--- .... ....
 F-4|..|F-2 2AFF ....|F-2 2A.F ....|--- .... ....
 F-3|..|F-1 2AFF ....|F-1 2A.F ....|--- .... ....
....|..|F-2 2FFA ....|F-2 2F.A ....|R-- .... ....
....|..|F-2 2FFA ....|F-2 2F.A ....|--- .... ....
 F-4|..|F-2 2AFF ....|F-2 2A.F ....|A-3 UF27 ....
 F-4|..|F-2 2AFF ....|F-2 2A.F ....|--- .... ....
....|..|F-2 2FFA ....|F-2 2F.A ....|--- .... ....
....|..|F-1 2FFA ....|F-1 2F.A ....|--- .... ....
 F-4|..|F-2 2AFF ....|F-2 2A.F ....|--- .... ....
 F-3|..|F-1 2AFF ....|F-1 2A.F ....|--- .... ....
....|..|F-2 2FFA ....|F-2 2F.A ....|--- .... ....
....|..|F-2 2FFA ....|F-2 2F.A ....|--- .... ....
 F-4|..|F-2 2AFF ....|F-2 2A.F ....|--- .... ....
....|..|F-1 2FF7 ....|F-1 2F.7 ....|--- .... ....
....|..|F-2 2FFA ....|F-2 2F.A ....|--- .... ....
....|..|F-1 2FFA ....|F-1 2F.A ....|--- .... ....
 F-4|..|F-2 2AFF ....|F-2 2A.F ....|--- .... ....
 F-3|..|F-1 2AFF ....|F-1 2A.F ....|--- .... ....
....|..|F-2 2FFA ....|F-2 2F.A ....|--- .... ....
....|..|--- .... ....|--- .... ....|--- .... ....
 F-4|..|F-2 2AFF ....|F-2 2A.F ....|A-3 UF.F ....
 F-4|..|F-2 2AFF ....|F-2 2A.F ....|R-- .... ....
....|..|F-2 2FFA ....|F-2 2F.A ....|--- .... ....
....|..|F-1 2FFA ....|G-4 3FFF ....|--- .... ....
 E-3|..|E-1 2AFF ....|E-1 2A.F ....|G-3 UF3F ....
....|..|--- .... ....|--- .... ....|--- .... ....
....|..|F-2 2FFA ....|F-2 2F.A ....|A-3 UF.A ....
....|..|F-2 2FFA ....|E-5 3FFF ....|R-- .... ....
 E-4|..|E-2 2AFF ....|E-2 2A.F ....|--- .... ....
 E-4|..|E-2 2AFF ....|G-4 3FFF ....|--- .... ....
....|..|E-1 2FFA ....|F-5 3FFF ....|G-3 UF3A ....
....|..|--- .... ....|--- .... ....|--- .... ....
 E-3|..|E-1 2AFF ....|E-1 2A.F ....|A-3 UF.7 ....
....|..|F-2 2FF7 ....|E-5 3FFA ....|R-- .... ....
....|..|E-2 2FFA ....|G-5 3FFF ....|--- .... ....
....|..|E-2 2FFA ....|E-2 2F.A ....|--- .... ....
 E-4|..|E-2 2AFF ....|E-2 2A.F ....|G-3 UF37 ....
....|..|--- .... ....|R-- .... ....|--- .... ....
....|..|E-1 2FFA ....|E-1 2F.A ....|--- .... ....
....|..|--- .... ....|E-5 3FF7 ....|--- .... ....
 E-4|..|E-2 2AFF ....|E-2 2A.F ....|F-3 UF3F ....
 E-3|..|E-1 2AFF ....|E-1 2A.F ....|--- .... ....
....|..|E-2 2FFA ....|E-2 2F.A ....|--- .... ....
....|..|--- .... ....|R-- .... ....|--- .... ....
 E-4|..|E-2 2AFF ....|E-2 2A.F ....|--- .... ....
 E-4|..|E-2 2AFF ....|E-2 2A.F ....|--- .... ....
....|..|E-2 2FFA ....|E-2 2F.A ....|F-3 UF3A ....
....|..|E-1 2FFA ....|E-1 2F.A ....|--- .... ....
 E-3|..|E-1 2AFF ....|E-1 2A.F ....|--- .... ....
....|..|--- .... ....|R-- .... ....|--- .... ....
....|..|E-2 2FFA ....|E-2 2F.A ....|--- .... ....
....|..|E-2 2FFA ....|E-2 2F.A ....|--- .... ....
 E-4|..|E-2 2AFF ....|E-2 2A.F ....|F-3 UF37 ....
....|..|E-1 2FF7 ....|E-1 2F.7 ....|--- .... ....
....|..|E-1 2FFA ....|E-1 2F.A ....|--- .... ....
....|..|--- .... ....|--- .... ....|--- .... ....

[Pattern6]
 C-4|..|C-2 2AFF ....|F-4 3FFF ....|C-4 UF1F ....
....|..|E-2 2FF7 ....|E-2 2F.7 ....|--- .... ....
....|..|E-2 2FFA ....|E-2 2F.A ....|--- .... ....
....|..|--- .... ....|--- .... ....|--- .... ....
 C-3|..|C-3 2CFF ....|C-3 2C.F ....|--- .... ....
....|..|--- .... ....|--- .... ....|--- .... ....
....|..|C-2 2FFA ....|F-4 3FFA ....|C-4 UF1A ....
....|..|--- .... ....|--- .... ....|--- .... ....
 C-4|..|C-2 2AFF ....|C-2 2A.F ....|--- .... ....
....|..|--- .... ....|--- .... ....|--- .... ....
....|..|C-3 2FFA ....|C-3 2F.A ....|--- .... ....
....|..|--- .... ....|--- .... ....|--- .... ....
 C-3|..|C-3 2CFF ....|A-5 3FFF ....|C-4 UF17 ....
....|..|--- .... ....|--- .... ....|--- .... ....
....|..|C-2 2FFA ....|C-2 2F.A ....|--- .... ....
....|..|--- .... ....|--- .... ....|--- .... ....
 C-3|..|C-3 2CFF ....|C-6 3FFF ....|--- .... ....
 C-4|..|C-2 2AFF ....|C-2 2A.F ....|--- .... ....
....|..|C-3 2FFA ....|A-5 3FFA ....|--- .... ....
....|..|--- .... ....|B-5 3FFF ....|--- .... ....
 C-3|..|C-3 2CFF ....|C-3 2C.F ....|--- .... ....
....|..|--- .... ....|--- .... ....|--- .... ....
....|..|C-3 2FFA ....|C-6 3FFA ....|--- .... ....
....|..|C-2 2FFA ....|B-5 3FFF ....|--- .... ....
 C-4|..|C-2 2AFF ....|C-2 2A.F ....|--- .... ....
....|..|--- .... ....|A-5 3FFF ....|--- .... ....
....|..|C-3 2FFA ....|C-3 2F.A ....|--- .... ....
....|..|--- .... ....|R-- .... ....|--- .... ....
 C-3|..|C-3 2CFF ....|C-6 3FFF ....|--- .... ....
 C-3|..|C-3 2CFF ....|C-3 2C.F ....|--- .... ....
....|..|C-2 2FFA ....|C-2 2F.A ....|R-- .... ....
....|..|--- .... ....|C-6 3FFF ....|--- .... ....
 G-3|..|G-1 2AFF ....|B-5 3FFF ....|G-3 UF1F ....
....|..|--- .... ....|R-- .... ....|--- .... ....
....|..|C-3 2FFA ....|C-6 3FFA ....|--- .... ....
....|..|C-3 2FFA ....|C-4 3FFF ....|--- .... ....
 G-4|..|G-2 2AFF ....|G-2 2A.F ....|R-- .... ....
 G-4|..|G-2 2AFF ....|G-2 2A.F ....|--- .... ....
....|..|G-1 2FFA ....|B-5 3FFA ....|G-3 UF1A ....
....|..|--- .... ....|E-5 3FFF ....|--- .... ....
 G-3|..|G-1 2AFF ....|G-1 2A.F ....|--- .... ....
....|..|C-3 2FF7 ....|C-4 3FFA ....|--- .... ....
....|..|G-2 2FFA ....|G-2 2F.A ....|R-- .... ....
....|..|G-2 2FFA ....|G-2 2F.A ....|--- .... ....
 G-4|..|G-2 2AFF ....|G-2 2A.F ....|G-3 UF17 ....
 G-4|..|G-2 2AFF ....|G-2 2A.F ....|--- .... ....
....|..|G-1 2FFA ....|B-5 3FFF ....|--- .... ....
....|..|--- .... ....|B-5 3FFF ....|--- .... ....
 G-4|..|G-2 2AFF ....|G-2 2A.F ....|--- .... ....
 G-3|..|G-1 2AFF ....|A-5 3FFF ....|--- .... ....
....|..|G-2 2FFA ....|E-4 3FFF ....|--- .... ....
....|..|G-2 2FFA ....|G-2 2F.A ....|--- .... ....
 G-4|..|G-2 2AFF ....|G-2 2A.F ....|--- .... ....
 G-4|..|G-2 2AFF ....|G-4 3FFF ....|--- .... ....
....|..|G-2 2FFA ....|G-5 3FFF ....|--- .... ....
....|..|G-1 2FFA ....|G-5 3FFF ....|--- .... ....
 G-3|..|G-1 2AFF ....|G-1 2A.F ....|--- .... ....
....|..|G-2 2FF7 ....|F-5 3FFF ....|--- .... ....
....|..|G-2 2FFA ....|G-2 2F.A ....|--- .... ....
....|..|G-2 2FFA ....|G-2 2F.A ....|--- .... ....
 G-4|..|G-2 2AFF ....|G-2 2A.F ....|--- .... ....
 G-4|..|G-2 2AFF ....|G-2 2A.F ....|--- .... ....
....|..|G-1 2FFA ....|C-6 3FFF ....|R-- .... ....
....|..|--- .... ....|C-6 3FFF ....|--- .... ....

[Pattern7]
 F-3|..|F-1 2AFF ....|B-5 3FFF ....|A-3 UF2F ....
....|..|G-2 2FF7 ....|G-4 3FF7 ....|--- .... ....
....|..|G-2 2FFA ....|E-4 3FFF ....|--- .... ....
....|..|G-2 2FFA ....|A-4 3FFF ....|--- .... ....
 F-4|..|F-2 2AFF ....|F-2 2A.F ....|R-- .... ....
 F-4|..|F-2 2AFF ....|F-2 2A.F ....|--- .... ....
....|..|F-1 2FFA ....|F-5 3FFF ....|A-3 UF2A ....
....|..|--- .... ....|A-4 3FFF ....|--- .... ....
 F-4|..|F-2 2AFF ....|F-2 2A.F ....|--- .... ....
 F-3|..|F-1 2AFF ....|D-5 3FFF ....|--- .... ....
....|..|F-2 2FFA ....|F-2 2F.A ....|R-- .... ....
....|..|F-2 2FFA ....|E-5 3FFF ....|--- .... ....
 F-4|..|F-2 2AFF ....|D-5 3FFF ....|A-3 UF27 ....
 F-4|..|F-2 2AFF ....|F-2 2A.F ....|--- .... ....
....|..|F-2 2FFA ....|F-2 2F.A ....|--- .... ....
....|..|F-1 2FFA ....|A-5 3FFF ....|--- .... ....
 F-4|..|F-2 2AFF ....|F-4 3FFF ....|--- .... ....
 F-3|..|F-1 2AFF ....|G-4 3FFF ....|--- .... ....
....|..|F-2 2FFA ....|G-4 3FFF ....|--- .... ....
....|..|F-2 2FFA ....|F-2 2F.A ....|--- .... ....
 F-4|..|F-2 2AFF ....|F-2 2A.F ....|--- .... ....
....|..|F-1 2FF7 ....|D-5 3FF7 ....|--- .... ....
....|..|F-2 2FFA ....|F-4 3FFA ....|--- .... ....
....|..|F-1 2FFA ....|F-1 2F.A ....|--- .... ....
 F-4|..|F-2 2AFF ....|F-2 2A.F ....|--- .... ....
 F-3|..|F-1 2AFF ....|C-6 3FFF ....|--- .... ....
....|..|F-2 2FFA ....|B-5 3FFF ....|--- .... ....
....|..|--- .... ....|A-5 3FFF ....|--- .... ....
 F-4|..|F-2 2AFF ....|G-5 3FFF ....|A-3 UF.F ....
 F-4|..|F-2 2AFF ....|E-5 3FFF ....|R-- .... ....
....|..|F-2 2FFA ....|C-5 3FFF ....|--- .... ....
....|..|F-1 2FFA ....|G-4 3FFF ....|--- .... ....
 E-3|..|E-1 2AFF ....|E-1 2A.F ....|G-3 UF3F ....
....|..|--- .... ....|A-5 3FFA ....|--- .... ....
....|..|F-2 2FFA ....|G-5 3FFA ....|A-3 UF.A ....
....|..|F-2 2FFA ....|E-5 3FFA ....|R-- .... ....
 E-4|..|E-2 2AFF ....|E-4 3FFF ....|--- .... ....
 E-4|..|E-2 2AFF ....|E-2 2A.F ....|--- .... ....
....|..|E-1 2FFA ....|E-1 2F.A ....|G-3 UF3A ....
....|..|--- .... ....|E-5 3FFF ....|--- .... ....
 E-3|..|E-1 2AFF ....|E-1 2A.F ....|A-3 UF.7 ....
....|..|F-2 2FF7 ....|E-5 3FF7 ....|R-- .... ....
....|..|E-2 2FFA ....|E-2 2F.A ....|--- .... ....
....|..|E-2 2FFA ....|F-4 3FFF ....|--- .... ....
 E-4|..|E-2 2AFF ....|E-2 2A.F ....|G-3 UF37 ....
....|..|--- .... ....|E-5 3FFA ....|--- .... ....
....|..|E-1 2FFA ....|G-5 3FFF ....|--- .... ....
....|..|--- .... ....|G-5 3FFF ....|--- .... ....
 E-4|..|E-2 2AFF ....|F-4 3FFF ....|G-3 UF1F ....
 E-3|..|E-1 2AFF ....|E-1 2A.F ....|--- .... ....
....|..|E-2 2FFA ....|E-2 2F.A ....|--- .... ....
....|..|--- .... ....|D-5 3FFF ....|--- .... ....
 E-4|..|E-2 2AFF ....|E-2 2A.F ....|--- .... ....
 E-4|..|E-2 2AFF ....|E-2 2A.F ....|--- .... ....
....|..|E-2 2FFA ....|F-4 3FFA ....|G-3 UF1A ....
....|..|E-1 2FFA ....|E-1 2F.A ....|--- .... ....
 E-3|..|E-1 2AFF ....|E-1 2A.F ....|--- .... ....
....|..|--- .... ....|D-5 3FFA ....|--- .... ....
....|..|E-2 2FFA ....|E-2 2F.A ....|--- .... ....
....|..|E-2 2FFA ....|E-2 2F.A ....|--- .... ....
 E-4|..|E-2 2AFF ....|E-2 2A.F ....|G-3 UF17 ....
....|..|E-1 2FF7 ....|E-1 2F.7 ....|--- .... ....
....|..|E-1 2FFA ....|E-1 2F.A ....|--- .... ....
....|..|--- .... ....|D-5 3FF7 ....|--- .... ....

[Pattern8]
 C-4|..|C-2 2AFF ....|C-2 2A.F ....|C-4 UF1F ....
....|..|E-2 2FF7 ....|E-2 2F.7 ....|--- .... ....
....|..|E-2 2FFA ....|E-2 2F.A ....|--- .... ....
....|..|--- .... ....|--- .... ....|--- .... ....
 C-3|..|C-3 2CFF ....|C-3 2C.F ....|--- .... ....
....|..|--- .... ....|F-6 3FFF ....|--- .... ....
....|..|C-2 2FFA ....|C-2 2F.A ....|C-4 UF1A ....
....|..|--- .... ....|--- .... ....|--- .... ....
 C-4|..|C-2 2AFF ....|C-2 2A.F ....|--- .... ....
....|..|--- .... ....|--- .... ....|--- .... ....
....|..|C-3 2FFA ....|C-3 2F.A ....|--- .... ....
....|..|--- .... ....|F-6 3FFF ....|--- .... ....
 C-3|..|C-3 2CFF ....|C-3 2C.F ....|C-4 UF17 ....
....|..|--- .... ....|--- .... ....|--- .... ....
....|..|C-2 2FFA ....|C-2 2F.A ....|--- .... ....
....|..|--- .... ....|E-6 3FFF ....|--- .... ....
 C-3|..|C-3 2CFF ....|C-3 2C.F ....|--- .... ....
 C-4|..|C-2 2AFF ....|C-2 2A.F ....|--- .... ....
....|..|C-3 2FFA ....|C-3 2F.A ....|--- .... ....
....|..|--- .... ....|R-- .... ....|--- .... ....
 C-3|..|C-3 2CFF ....|C-3 2C.F ....|--- .... ....
....|..|--- .... ....|F-6 3FFF ....|--- .... ....
....|..|C-3 2FFA ....|C-3 2F.A ....|--- .... ....
....|..|C-2 2FFA ....|C-2 2F.A ....|--- .... ....
 C-4|..|C-2 2AFF ....|C-2 2A.F ....|--- .... ....
....|..|--- .... ....|R-- .... ....|--- .... ....
....|..|C-3 2FFA ....|E-6 3FFF ....|--- .... ....
....|..|--- .... ....|E-6 3FF7 ....|--- .... ....
 C-3|..|C-3 2CFF ....|C-3 2C.F ....|--- .... ....
 C-3|..|C-3 2CFF ....|C-3 2C.F ....|--- .... ....
....|..|C-2 2FFA ....|C-2 2F.A ....|R-- .... ....
....|..|--- .... ....|A-5 3FFF ....|--- .... ....
 G-3|..|G-1 2AFF ....|G-1 2A.F ....|G-3 UF1F ....
....|..|--- .... ....|F-6 3FF7 ....|--- .... ....
....|..|C-3 2FFA ....|C-3 2F.A ....|--- .... ....
....|..|C-3 2FFA ....|C-3 2F.A ....|--- .... ....
 G-4|..|G-2 2AFF ....|G-2 2A.F ....|R-- .... ....
 G-4|..|G-2 2AFF ....|G-2 2A.F ....|--- .... ....
....|..|G-1 2FFA ....|G-1 2F.A ....|G-3 UF1A ....
....|..|--- .... ....|--- .... ....|--- .... ....
 G-3|..|G-1 2AFF ....|G-1 2A.F ....|--- .... ....
....|..|C-3 2FF7 ....|C-3 2F.7 ....|--- .... ....
....|..|G-2 2FFA ....|G-2 2F.A ....|R-- .... ....
....|..|G-2 2FFA ....|G-2 2F.A ....|--- .... ....
 G-4|..|G-2 2AFF ....|G-2 2A.F ....|G-3 UF17 ....
 G-4|..|G-2 2AFF ....|G-2 2A.F ....|--- .... ....
....|..|G-1 2FFA ....|G-1 2F.A ....|--- .... ....
....|..|--- .... ....|--- .... ....|--- .... ....
 G-4|..|G-2 2AFF ....|G-2 2A.F ....|--- .... ....
 G-3|..|G-1 2AFF ....|G-1 2A.F ....|--- .... ....
....|..|G-2 2FFA ....|G-2 2F.A ....|--- .... ....
....|..|G-2 2FFA ....|G-2 2F.A ....|--- .... ....
 G-4|..|G-2 2AFF ....|G-2 2A.F ....|--- .... ....
 G-4|..|G-2 2AFF ....|D-6 3FFF ....|--- .... ....
....|..|G-2 2FFA ....|G-2 2F.A ....|--- .... ....
....|..|G-1 2FFA ....|G-1 2F.A ....|--- .... ....
 G-3|..|G-1 2AFF ....|A-5 3FFF ....|--- .... ....
....|..|G-2 2FF7 ....|G-2 2F.7 ....|--- .... ....
....|..|G-2 2FFA ....|G-2 2F.A ....|--- .... ....
....|..|G-2 2FFA ....|E-6 3FFF ....|--- .... ....
 G-4|..|G-2 2AFF ....|G-2 2A.F ....|--- .... ....
 G-4|..|G-2 2AFF ....|G-2 2A.F ....|--- .... ....
....|..|G-1 2FFA ....|A-5 3FFA ....|R-- .... ....
....|..|--- .... ....|R-- .... ....|--- .... ....

[Pattern9]
 F-3|..|F-1 2AFF ....|D-6 3FFF ....|A-3 UF2F ....
....|..|G-2 2FF7 ....|D-6 3FF7 ....|--- .... ....
....|..|G-2 2FFA ....|G-2 2F.A ....|--- .... ....
....|..|G-2 2FFA ....|G-2 2F.A ....|--- .... ....
 F-4|..|F-2 2AFF ....|F-2 2A.F ....|R-- .... ....
 F-4|..|F-2 2AFF ....|F-2 2A.F ....|--- .... ....
....|..|F-1 2FFA ....|D-6 3FFA ....|A-3 UF2A ....
....|..|--- .... ....|E-6 3FF7 ....|--- .... ....
 F-4|..|F-2 2AFF ....|F-2 2A.F ....|--- .... ....
 F-3|..|F-1 2AFF ....|F-1 2A.F ....|--- .... ....
....|..|F-2 2FFA ....|F-2 2F.A ....|R-- .... ....
....|..|F-2 2FFA ....|F-2 2F.A ....|--- .... ....
 F-4|..|F-2 2AFF ....|E-6 3FFF ....|A-3 UF27 ....
 F-4|..|F-2 2AFF ....|F-2 2A.F ....|--- .... ....
....|..|F-2 2FFA ....|F-2 2F.A ....|--- .... ....
....|..|F-1 2FFA ....|F-6 3FFF ....|--- .... ....
 F-4|..|F-2 2AFF ....|F-2 2A.F ....|--- .... ....
 F-3|..|F-1 2AFF ....|F-6 3FFF ....|--- .... ....
....|..|F-2 2FFA ....|E-6 3FFF ....|--- .... ....
....|..|F-2 2FFA ....|F-2 2F.A ....|--- .... ....
 F-4|..|F-2 2AFF ....|F-2 2A.F ....|--- .... ....
....|..|F-1 2FF7 ....|F-6 3FFA ....|--- .... ....
....|..|F-2 2FFA ....|F-2 2F.A ....|--- .... ....
....|..|F-1 2FFA ....|F-6 3FFA ....|--- .... ....
 F-4|..|F-2 2AFF ....|F-2 2A.F ....|--- .... ....
 F-3|..|F-1 2AFF ....|F-1 2A.F ....|--- .... ....
....|..|F-2 2FFA ....|F-2 2F.A ....|--- .... ....
....|..|--- .... ....|F-6 3FF7 ....|--- .... ....
 F-4|..|F-2 2AFF ....|D-6 3FFF ....|A-3 UF.F ....
 F-4|..|F-2 2AFF ....|F-2 2A.F ....|R-- .... ....
....|..|F-2 2FFA ....|F-2 2F.A ....|--- .... ....
....|..|F-1 2FFA ....|F-1 2F.A ....|--- .... ....
 E-3|..|E-1 2AFF ....|C-6 3FFF ....|G-3 UF3F ....
....|..|--- .... ....|--- .... ....|--- .... ....
....|..|F-2 2FFA ....|D-6 3FFA ....|A-3 UF.A ....
....|..|F-2 2FFA ....|F-2 2F.A ....|R-- .... ....
 E-4|..|E-2 2AFF ....|E-2 2A.F ....|--- .... ....
 E-4|..|E-2 2AFF ....|E-2 2A.F ....|--- .... ....
....|..|E-1 2FFA ....|C-6 3FFA ....|G-3 UF3A ....
....|..|--- .... ....|--- .... ....|--- .... ....
 E-3|..|E-1 2AFF ....|E-1 2A.F ....|A-3 UF.7 ....
....|..|F-2 2FF7 ....|F-2 2F.7 ....|R-- .... ....
....|..|E-2 2FFA ....|E-2 2F.A ....|--- .... ....
....|..|E-2 2FFA ....|E-2 2F.A ....|--- .... ....
 E-4|..|E-2 2AFF ....|E-2 2A.F ....|G-3 UF37 ....
....|..|--- .... ....|--- .... ....|--- .... ....
....|..|E-1 2FFA ....|E-1 2F.A ....|--- .... ....
....|..|--- .... ....|R-- .... ....|--- .... ....
 E-4|..|E-2 2AFF ....|B-5 3FFF ....|F-3 UF3F ....
 E-3|..|E-1 2AFF ....|E-1 2A.F ....|--- .... ....
....|..|E-2 2FFA ....|E-2 2F.A ....|--- .... ....
....|..|--- .... ....|C-6 3FFF ....|--- .... ....
 E-4|..|E-2 2AFF ....|E-2 2A.F ....|--- .... ....
 E-4|..|E-2 2AFF ....|E-2 2A.F ....|--- .... ....
....|..|E-2 2FFA ....|B-5 3FFA ....|F-3 UF3A ....
....|..|E-1 2FFA ....|B-5 3FFF ....|--- .... ....
 E-3|..|E-1 2AFF ....|E-1 2A.F ....|--- .... ....
....|..|--- .... ....|C-6 3FFA ....|--- .... ....
....|..|E-2 2FFA ....|E-2 2F.A ....|--- .... ....
....|..|E-2 2FFA ....|E-2 2F.A ....|--- .... ....
 E-4|..|E-2 2AFF ....|E-2 2A.F ....|F-3 UF37 ....
....|..|E-1 2FF7 ....|B-5 3FFA ....|--- .... ....
....|..|E-1 2FFA ....|E-1 2F.A ....|--- .... ....
....|..|--- .... ....|F-5 3FFF ....|--- .... ....

[Pattern10]
 G-3|..|G-1 2AFF ....|G-1 2A.F ....|C-4 UF1F ....
....|..|E-2 2FF7 ....|E-2 2F.7 ....|--- .... ....
....|..|E-2 2FFA ....|E-2 2F.A ....|--- .... ....
....|..|--- .... ....|B-5 3FF7 ....|--- .... ....
....|..|E-1 2FF7 ....|E-1 2F.7 ....|--- .... ....
....|..|--- .... ....|F-5 3FFA ....|--- .... ....
....|..|G-1 2FFA ....|G-1 2F.A ....|C-4 UF1A ....
....|..|--- .... ....|R-- .... ....|--- .... ....
 G-3|..|G-1 2AFF ....|G-1 2A.F ....|--- .... ....
....|..|--- .... ....|--- .... ....|--- .... ....
....|..|R-- .... ....|R-- .... ....|--- .... ....
....|..|--- .... ....|C-7 3FFF ....|--- .... ....
....|..|G-1 2FF7 ....|G-1 2F.7 ....|C-4 UF17 ....
....|..|--- .... ....|R-- .... ....|--- .... ....
....|..|G-1 2FFA ....|G-1 2F.A ....|--- .... ....
....|..|--- .... ....|B-6 3FFF ....|--- .... ....
 G-3|..|G-1 2AFF ....|G-1 2A.F ....|B-3 UF4F ....
....|..|--- .... ....|C-7 3FFA ....|--- .... ....
....|..|R-- .... ....|R-- .... ....|--- .... ....
....|..|--- .... ....|R-- .... ....|--- .... ....
....|..|G-1 2FF7 ....|G-1 2F.7 ....|--- .... ....
....|..|--- .... ....|B-6 3FFA ....|--- .... ....
....|..|G-1 2FFA ....|G-1 2F.A ....|B-3 UF4A ....
....|..|--- .... ....|C-7 3FFF ....|--- .... ....
 G-3|..|G-1 2AFF ....|G-1 2A.F ....|--- .... ....
....|..|--- .... ....|R-- .... ....|--- .... ....
....|..|R-- .... ....|R-- .... ....|--- .... ....
....|..|--- .... ....|B-6 3FF7 ....|--- .... ....
....|..|G-1 2FF7 ....|G-1 2F.7 ....|B-3 UF47 ....
....|..|--- .... ....|C-7 3FFA ....|--- .... ....
....|..|G-1 2FFA ....|G-1 2F.A ....|--- .... ....
....|..|--- .... ....|B-6 3FFF ....|--- .... ....
 E-4|..|E-2 2AFF ....|E-2 2A.F ....|A-3 UF2F ....
....|..|--- .... ....|R-- .... ....|--- .... ....
....|..|R-- .... ....|R-- .... ....|--- .... ....
....|..|--- .... ....|C-7 3FF7 ....|--- .... ....
....|..|G-1 2FF7 ....|G-1 2F.7 ....|--- .... ....
....|..|--- .... ....|B-6 3FFA ....|--- .... ....
....|..|E-2 2FFA ....|E-2 2F.A ....|A-3 UF2A ....
....|..|--- .... ....|C-7 3FFF ....|--- .... ....
 E-4|..|E-2 2AFF ....|E-2 2A.F ....|--- .... ....
....|..|--- .... ....|R-- .... ....|--- .... ....
....|..|R-- .... ....|R-- .... ....|--- .... ....
....|..|--- .... ....|B-6 3FF7 ....|--- .... ....
....|..|E-2 2FF7 ....|B-6 3FFF ....|A-3 UF27 ....
....|..|--- .... ....|C-7 3FFA ....|--- .... ....
....|..|E-2 2FFA ....|E-2 2F.A ....|--- .... ....
....|..|--- .... ....|R-- .... ....|--- .... ....
 E-4|..|E-2 2AFF ....|E-2 2A.F ....|--- .... ....
....|..|--- .... ....|--- .... ....|--- .... ....
....|..|R-- .... ....|B-6 3FFA ....|--- .... ....
....|..|--- .... ....|C-7 3FF7 ....|--- .... ....
....|..|E-2 2FF7 ....|C-7 3FFF ....|--- .... ....
....|..|--- .... ....|--- .... ....|--- .... ....
....|..|E-2 2FFA ....|E-2 2F.A ....|--- .... ....
....|..|--- .... ....|R-- .... ....|--- .... ....
 E-4|..|E-2 2AFF ....|B-6 3FFF ....|--- .... ....
....|..|--- .... ....|--- .... ....|--- .... ....
....|..|R-- .... ....|C-7 3FFA ....|--- .... ....
....|..|--- .... ....|--- .... ....|--- .... ....
....|..|E-2 2FF7 ....|A-6 3FFF ....|--- .... ....
....|..|--- .... ....|R-- .... ....|--- .... ....
....|..|E-2 2FFA ....|B-6 3FFA ....|R-- .... ....
....|..|--- .... ....|--- .... ....|--- .... ....

[Pattern11]
 G-4|..|G-2 2AFF ....|G-2 2A.F ....|A-3 UF2F ....
....|..|--- .... ....|C-5 3FFF ....|--- .... ....
....|..|R-- .... ....|A-6 3FFA ....|--- .... ....
....|..|--- .... ....|R-- .... ....|--- .... ....
....|..|E-2 2FF7 ....|B-6 3FF7 ....|R-- .... ....
....|..|--- .... ....|--- .... ....|--- .... ....
....|..|G-2 2FFA ....|G-2 2F.A ....|A-3 UF2A ....
....|..|--- .... ....|C-5 3FFA ....|--- .... ....
 G-4|..|G-2 2AFF ....|C-7 3FFF ....|--- .... ....
....|..|--- .... ....|--- .... ....|--- .... ....
....|..|R-- .... ....|R-- .... ....|R-- .... ....
....|..|--- .... ....|R-- .... ....|--- .... ....
....|..|G-2 2FF7 ....|B-6 3FFF ....|A-3 UF27 ....
....|..|--- .... ....|C-5 3FF7 ....|--- .... ....
....|..|G-2 2FFA ....|C-7 3FFA ....|--- .... ....
....|..|--- .... ....|--- .... ....|--- .... ....
 G-4|..|G-2 2AFF ....|G-2 2A.F ....|D-4 UF5F ....
....|..|--- .... ....|R-- .... ....|--- .... ....
....|..|R-- .... ....|B-6 3FFA ....|--- .... ....
....|..|--- .... ....|--- .... ....|--- .... ....
....|..|G-2 2FF7 ....|C-7 3FFF ....|--- .... ....
....|..|--- .... ....|--- .... ....|--- .... ....
....|..|G-2 2FFA ....|G-2 2F.A ....|D-4 UF5A ....
....|..|--- .... ....|R-- .... ....|--- .... ....
 G-4|..|G-2 2AFF ....|B-6 3FFF ....|--- .... ....
....|..|--- .... ....|--- .... ....|--- .... ....
....|..|R-- .... ....|C-7 3FFA ....|--- .... ....
....|..|--- .... ....|R-- .... ....|--- .... ....
....|..|G-2 2FF7 ....|G-2 2F.7 ....|D-4 UF57 ....
....|..|--- .... ....|R-- .... ....|--- .... ....
....|..|G-2 2FFA ....|B-6 3FFA ....|--- .... ....
....|..|--- .... ....|--- .... ....|--- .... ....
 C-4|..|C-2 2AFF ....|C-7 3FFF ....|E-4 UF6F ....
....|..|--- .... ....|R-- .... ....|--- .... ....
....|..|R-- .... ....|R-- .... ....|--- .... ....
....|..|--- .... ....|B-6 3FFF ....|--- .... ....
....|..|G-2 2FF7 ....|B-6 3FF7 ....|--- .... ....
....|..|--- .... ....|--- .... ....|--- .... ....
....|..|C-2 2FFA ....|C-7 3FFA ....|E-4 UF6A ....
....|..|--- .... ....|A-6 3FFF ....|--- .... ....
 C-4|..|C-2 2AFF ....|C-2 2A.F ....|--- .... ....
....|..|--- .... ....|B-6 3FFA ....|--- .... ....
....|..|R-- .... ....|R-- .... ....|--- .... ....
....|..|--- .... ....|G-6 3FFF ....|--- .... ....
....|..|C-2 2FF7 ....|C-7 3FF7 ....|E-4 UF67 ....
....|..|--- .... ....|A-6 3FFA ....|--- .... ....
....|..|C-2 2FFA ....|C-2 2F.A ....|--- .... ....
....|..|--- .... ....|B-6 3FF7 ....|--- .... ....
 C-4|..|C-2 2AFF ....|C-2 2A.F ....|G-4 UF1F ....
....|..|--- .... ....|G-6 3FFA ....|--- .... ....
....|..|R-- .... ....|R-- .... ....|--- .... ....
....|..|--- .... ....|A-6 3FF7 ....|--- .... ....
....|..|C-2 2FF7 ....|C-2 2F.7 ....|--- .... ....
....|..|--- .... ....|R-- .... ....|--- .... ....
....|..|C-2 2FFA ....|C-2 2F.A ....|G-4 UF1A ....
....|..|--- .... ....|G-6 3FF7 ....|--- .... ....
 C-4|..|C-2 2AFF ....|C-2 2A.F ....|--- .... ....
....|..|--- .... ....|--- .... ....|--- .... ....
....|..|R-- .... ....|R-- .... ....|--- .... ....
....|..|--- .... ....|--- .... ....|--- .... ....
....|..|C-2 2FF7 ....|C-2 2F.7 ....|G-4 UF17 ....
....|..|--- .... ....|--- .... ....|--- .... ....
....|..|C-2 2FFA ....|C-2 2F.A ....|--- .... ....
....|..|--- .... ....|--- .... ....|--- .... ....

[Pattern12]
 G-3|..|G-1 2AFF ....|A-6 3FFF ....|C-4 UF1F ....
....|..|--- .... ....|--- .... ....|--- .... ....
....|..|R-- .... ....|R-- .... ....|--- .... ....
....|..|--- .... ....|R-- .... ....|--- .... ....
....|..|C-2 2FF7 ....|B-6 3FFF ....|--- .... ....
....|..|--- .... ....|--- .... ....|--- .... ....
....|..|G-1 2FFA ....|A-6 3FFA ....|C-4 UF1A ....
....|..|--- .... ....|R-- .... ....|--- .... ....
 G-3|..|G-1 2AFF ....|C-7 3FFF ....|--- .... ....
....|..|--- .... ....|R-- .... ....|--- .... ....
....|..|R-- .... ....|B-6 3FFA ....|--- .... ....
....|..|--- .... ....|--- .... ....|--- .... ....
....|..|G-1 2FF7 ....|B-6 3FFF ....|C-4 UF17 ....
....|..|--- .... ....|R-- .... ....|--- .... ....
....|..|G-1 2FFA ....|C-7 3FFA ....|--- .... ....
....|..|--- .... ....|R-- .... ....|--- .... ....
 G-3|..|G-1 2AFF ....|G-1 2A.F ....|B-3 UF4F ....
....|..|--- .... ....|--- .... ....|--- .... ....
....|..|R-- .... ....|B-6 3FFA ....|--- .... ....
....|..|--- .... ....|R-- .... ....|--- .... ....
....|..|G-1 2FF7 ....|C-5 3FFF ....|--- .... ....
....|..|--- .... ....|--- .... ....|--- .... ....
....|..|G-1 2FFA ....|G-1 2F.A ....|B-3 UF4A ....
....|..|--- .... ....|--- .... ....|--- .... ....
 G-3|..|G-1 2AFF ....|G-1 2A.F ....|--- .... ....
....|..|--- .... ....|F-6 3FFF ....|--- .... ....
....|..|R-- .... ....|E-6 3FFF ....|--- .... ....
....|..|--- .... ....|--- .... ....|--- .... ....
....|..|G-1 2FF7 ....|F-6 3FFF ....|B-3 UF47 ....
....|..|--- .... ....|--- .... ....|--- .... ....
....|..|G-1 2FFA ....|G-1 2F.A ....|--- .... ....
....|..|--- .... ....|G-6 3FFF ....|--- .... ....
 E-4|..|E-2 2AFF ....|E-2 2A.F ....|A-3 UF2F ....
....|..|--- .... ....|--- .... ....|--- .... ....
....|..|R-- .... ....|F-6 3FFA ....|--- .... ....
....|..|--- .... ....|--- .... ....|--- .... ....
....|..|G-1 2FF7 ....|G-1 2F.7 ....|--- .... ....
....|..|--- .... ....|F-6 3FF7 ....|--- .... ....
....|..|E-2 2FFA ....|E-2 2F.A ....|A-3 UF2A ....
....|..|--- .... ....|--- .... ....|--- .... ....
 E-4|..|E-2 2AFF ....|E-2 2A.F ....|--- .... ....
....|..|--- .... ....|--- .... ....|--- .... ....
....|..|R-- .... ....|R-- .... ....|--- .... ....
....|..|--- .... ....|G-6 3FF7 ....|--- .... ....
....|..|E-2 2FF7 ....|E-2 2F.7 ....|A-3 UF27 ....
....|..|--- .... ....|--- .... ....|--- .... ....
....|..|E-2 2FFA ....|E-2 2F.A ....|--- .... ....
....|..|--- .... ....|--- .... ....|--- .... ....
 E-4|..|E-2 2AFF ....|E-2 2A.F ....|--- .... ....
....|..|--- .... ....|--- .... ....|--- .... ....
....|..|R-- .... ....|R-- .... ....|--- .... ....
....|..|--- .... ....|--- .... ....|--- .... ....
....|..|E-2 2FF7 ....|E-2 2F.7 ....|--- .... ....
....|..|--- .... ....|--- .... ....|--- .... ....
....|..|E-2 2FFA ....|E-2 2F.A ....|--- .... ....
....|..|--- .... ....|--- .... ....|--- .... ....
 E-4|..|E-2 2AFF ....|E-2 2A.F ....|--- .... ....
....|..|--- .... ....|R-- .... ....|--- .... ....
....|..|R-- .... ....|R-- .... ....|--- .... ....
....|..|--- .... ....|--- .... ....|--- .... ....
....|..|E-2 2FF7 ....|E-6 3FFF ....|--- .... ....
....|..|--- .... ....|--- .... ....|--- .... ....
....|..|E-2 2FFA ....|F-6 3FFF ....|R-- .... ....
....|..|--- .... ....|R-- .... ....|--- .... ....

[Pattern13]
 G-4|..|G-2 2AFF ....|G-6 3FFF ....|A-3 UF2F ....
....|..|--- .... ....|--- .... ....|--- .... ....
....|..|R-- .... ....|E-6 3FFA ....|--- .... ....
....|..|--- .... ....|--- .... ....|--- .... ....
....|..|E-2 2FF7 ....|F-6 3FFA ....|R-- .... ....
....|..|--- .... ....|R-- .... ....|--- .... ....
....|..|G-2 2FFA ....|G-6 3FFA ....|A-3 UF2A ....
....|..|--- .... ....|--- .... ....|--- .... ....
 G-4|..|G-2 2AFF ....|G-2 2A.F ....|--- .... ....
....|..|--- .... ....|R-- .... ....|--- .... ....
....|..|R-- .... ....|F-6 3FF7 ....|R-- .... ....
....|..|--- .... ....|--- .... ....|--- .... ....
....|..|G-2 2FF7 ....|E-5 3FFF ....|A-3 UF27 ....
....|..|--- .... ....|--- .... ....|--- .... ....
....|..|G-2 2FFA ....|F-5 3FFF ....|--- .... ....
....|..|--- .... ....|R-- .... ....|--- .... ....
 G-4|..|G-2 2AFF ....|G-2 2A.F ....|D-4 UF5F ....
....|..|--- .... ....|R-- .... ....|--- .... ....
....|..|R-- .... ....|G-5 3FFF ....|--- .... ....
....|..|--- .... ....|--- .... ....|--- .... ....
....|..|G-2 2FF7 ....|F-5 3FFA ....|--- .... ....
....|..|--- .... ....|R-- .... ....|--- .... ....
....|..|G-2 2FFA ....|G-2 2F.A ....|D-4 UF5A ....
....|..|--- .... ....|R-- .... ....|--- .... ....
 G-4|..|G-2 2AFF ....|G-2 2A.F ....|--- .... ....
....|..|--- .... ....|--- .... ....|--- .... ....
....|..|R-- .... ....|F-5 3FF7 ....|--- .... ....
....|..|--- .... ....|--- .... ....|--- .... ....
....|..|G-2 2FF7 ....|A-5 3FFF ....|D-4 UF57 ....
....|..|--- .... ....|R-- .... ....|--- .... ....
....|..|G-2 2FFA ....|B-5 3FFF ....|--- .... ....
....|..|--- .... ....|B-5 3FFF ....|--- .... ....
 C-4|..|C-2 2AFF ....|C-6 3FFF ....|E-4 UF6F ....
....|..|--- .... ....|--- .... ....|--- .... ....
....|..|R-- .... ....|A-5 3FFA ....|--- .... ....
....|..|--- .... ....|--- .... ....|--- .... ....
....|..|G-2 2FF7 ....|B-5 3FFA ....|--- .... ....
....|..|--- .... ....|B-5 3FFA ....|--- .... ....
....|..|C-2 2FFA ....|C-6 3FFA ....|E-4 UF6A ....
....|..|--- .... ....|--- .... ....|--- .... ....
 C-4|..|C-2 2AFF ....|C-2 2A.F ....|--- .... ....
....|..|--- .... ....|--- .... ....|--- .... ....
....|..|R-- .... ....|B-5 3FF7 ....|--- .... ....
....|..|--- .... ....|B-5 3FF7 ....|--- .... ....
....|..|C-2 2FF7 ....|C-6 3FF7 ....|E-4 UF67 ....
....|..|--- .... ....|--- .... ....|--- .... ....
....|..|C-2 2FFA ....|C-2 2F.A ....|--- .... ....
....|..|--- .... ....|--- .... ....|--- .... ....
 C-4|..|C-2 2AFF ....|C-2 2A.F ....|G-4 UF1F ....
....|..|--- .... ....|--- .... ....|--- .... ....
....|..|R-- .... ....|R-- .... ....|--- .... ....
....|..|--- .... ....|--- .... ....|--- .... ....
....|..|C-2 2FF7 ....|C-2 2F.7 ....|--- .... ....
....|..|--- .... ....|--- .... ....|--- .... ....
....|..|C-2 2FFA ....|C-2 2F.A ....|G-4 UF1A ....
....|..|--- .... ....|R-- .... ....|--- .... ....
 C-4|..|C-2 2AFF ....|C-2 2A.F ....|--- .... ....
....|..|--- .... ....|--- .... ....|--- .... ....
....|..|R-- .... ....|R-- .... ....|--- .... ....
....|..|--- .... ....|--- .... ....|--- .... ....
....|..|C-2 2FF7 ....|C-2 2F.7 ....|G-4 UF17 ....
....|..|--- .... ....|R-- .... ....|--- .... ....
....|..|C-2 2FFA ....|E-6 3FFF ....|--- .... ....
....|..|--- .... ....|--- .... ....|--- .... ....

[Pattern14]
 C-4|..|C-2 2AFF ....|F-6 3FFF ....|C-4 UF1F ....
....|..|--- .... ....|--- .... ....|--- .... ....
....|..|R-- .... ....|G-6 3FFF ....|--- .... ....
....|..|--- .... ....|R-- .... ....|--- .... ....
 C-3|..|C-3 2CFF ....|C-3 2C.F ....|--- .... ....
....|..|--- .... ....|--- .... ....|--- .... ....
....|..|C-2 2FFA ....|F-6 3FFA ....|C-4 UF1A ....
....|..|--- .... ....|--- .... ....|--- .... ....
 C-4|..|C-2 2AFF ....|C-2 2A.F ....|--- .... ....
....|..|--- .... ....|--- .... ....|--- .... ....
....|..|C-3 2FFA ....|C-3 2F.A ....|--- .... ....
....|..|--- .... ....|--- .... ....|--- .... ....
 C-3|..|C-3 2CFF ....|C-3 2C.F ....|C-4 UF17 ....
....|..|--- .... ....|--- .... ....|--- .... ....
....|..|C-2 2FFA ....|C-2 2F.A ....|--- .... ....
....|..|--- .... ....|--- .... ....|--- .... ....
 C-3|..|C-3 2CFF ....|C-3 2C.F ....|--- .... ....
 C-4|..|C-2 2AFF ....|C-2 2A.F ....|--- .... ....
....|..|C-3 2FFA ....|C-3 2F.A ....|--- .... ....
....|..|--- .... ....|--- .... ....|--- .... ....
 C-3|..|C-3 2CFF ....|C-3 2C.F ....|--- .... ....
....|..|--- .... ....|--- .... ....|--- .... ....
....|..|C-3 2FFA ....|C-3 2F.A ....|--- .... ....
....|..|C-2 2FFA ....|C-2 2F.A ....|--- .... ....
 C-4|..|C-2 2AFF ....|C-2 2A.F ....|--- .... ....
....|..|--- .... ....|--- .... ....|--- .... ....
....|..|C-3 2FFA ....|C-3 2F.A ....|--- .... ....
....|..|--- .... ....|E-5 3FFF ....|--- .... ....
 C-3|..|C-3 2CFF ....|C-3 2C.F ....|--- .... ....
 C-3|..|C-3 2CFF ....|F-5 3FFF ....|--- .... ....
....|..|C-2 2FFA ....|F-5 3FFF ....|R-- .... ....
....|..|--- .... ....|G-5 3FFF ....|--- .... ....
 G-3|..|G-1 2AFF ....|G-5 3FFF ....|G-3 UF1F ....
....|..|--- .... ....|E-5 3FFA ....|--- .... ....
....|..|C-3 2FFA ....|C-3 2F.A ....|--- .... ....
....|..|C-3 2FFA ....|F-5 3FFA ....|--- .... ....
 G-4|..|G-2 2AFF ....|G-2 2A.F ....|R-- .... ....
 G-4|..|G-2 2AFF ....|G-2 2A.F ....|--- .... ....
....|..|G-1 2FFA ....|G-5 3FFA ....|G-3 UF1A ....
....|..|--- .... ....|E-5 3FF7 ....|--- .... ....
 G-3|..|G-1 2AFF ....|G-1 2A.F ....|--- .... ....
....|..|C-3 2FF7 ....|F-5 3FF7 ....|--- .... ....
....|..|G-2 2FFA ....|G-2 2F.A ....|R-- .... ....
....|..|G-2 2FFA ....|G-2 2F.A ....|--- .... ....
 G-4|..|G-2 2AFF ....|G-2 2A.F ....|G-3 UF17 ....
 G-4|..|G-2 2AFF ....|G-2 2A.F ....|--- .... ....
....|..|G-1 2FFA ....|G-1 2F.A ....|--- .... ....
....|..|--- .... ....|R-- .... ....|--- .... ....
 G-4|..|G-2 2AFF ....|G-2 2A.F ....|--- .... ....
 G-3|..|G-1 2AFF ....|G-1 2A.F ....|--- .... ....
....|..|G-2 2FFA ....|G-2 2F.A ....|--- .... ....
....|..|G-2 2FFA ....|G-2 2F.A ....|--- .... ....
 G-4|..|G-2 2AFF ....|G-2 2A.F ....|--- .... ....
 G-4|..|G-2 2AFF ....|G-2 2A.F ....|--- .... ....
....|..|G-2 2FFA ....|G-2 2F.A ....|--- .... ....
....|..|G-1 2FFA ....|G-1 2F.A ....|--- .... ....
 G-3|..|G-1 2AFF ....|G-1 2A.F ....|--- .... ....
....|..|G-2 2FF7 ....|G-2 2F.7 ....|--- .... ....
....|..|G-2 2FFA ....|G-2 2F.A ....|--- .... ....
....|..|G-2 2FFA ....|G-5 3FFF ....|--- .... ....
 G-4|..|G-2 2AFF ....|G-2 2A.F ....|--- .... ....
 G-4|..|G-2 2AFF ....|A-5 3FFF ....|--- .... ....
....|..|G-1 2FFA ....|G-1 2F.A ....|R-- .... ....
....|..|--- .... ....|B-5 3FFF ....|--- .... ....

[Pattern15]
 F-3|..|F-1 2AFF ....|F-1 2A.F ....|A-3 UF2F ....
....|..|G-2 2FF7 ....|G-5 3FFA ....|--- .... ....
....|..|G-2 2FFA ....|G-2 2F.A ....|--- .... ....
....|..|G-2 2FFA ....|A-5 3FFA ....|--- .... ....
 F-4|..|F-2 2AFF ....|F-2 2A.F ....|R-- .... ....
 F-4|..|F-2 2AFF ....|F-2 2A.F ....|--- .... ....
....|..|F-1 2FFA ....|F-1 2F.A ....|A-3 UF2A ....
....|..|--- .... ....|A-5 3FFF ....|--- .... ....
 F-4|..|F-2 2AFF ....|F-2 2A.F ....|--- .... ....
 F-3|..|F-1 2AFF ....|F-1 2A.F ....|--- .... ....
....|..|F-2 2FFA ....|F-2 2F.A ....|R-- .... ....
....|..|F-2 2FFA ....|F-2 2F.A ....|--- .... ....
 F-4|..|F-2 2AFF ....|F-2 2A.F ....|A-3 UF27 ....
 F-4|..|F-2 2AFF ....|F-2 2A.F ....|--- .... ....
....|..|F-2 2FFA ....|F-2 2F.A ....|--- .... ....
....|..|F-1 2FFA ....|C-6 3FFF ....|--- .... ....
 F-4|..|F-2 2AFF ....|F-2 2A.F ....|--- .... ....
 F-3|..|F-1 2AFF ....|F-1 2A.F ....|--- .... ....
....|..|F-2 2FFA ....|F-2 2F.A ....|--- .... ....
....|..|F-2 2FFA ....|B-5 3FFF ....|--- .... ....
 F-4|..|F-2 2AFF ....|F-2 2A.F ....|--- .... ....
....|..|F-1 2FF7 ....|C-6 3FFA ....|--- .... ....
....|..|F-2 2FFA ....|F-2 2F.A ....|--- .... ....
....|..|F-1 2FFA ....|A-5 3FFF ....|--- .... ....
 F-4|..|F-2 2AFF ....|F-2 2A.F ....|--- .... ....
 F-3|..|F-1 2AFF ....|F-1 2A.F ....|--- .... ....
....|..|F-2 2FFA ....|F-2 2F.A ....|--- .... ....
....|..|--- .... ....|C-5 3FFF ....|--- .... ....
 F-4|..|F-2 2AFF ....|F-2 2A.F ....|A-3 UF.F ....
 F-4|..|F-2 2AFF ....|F-2 2A.F ....|R-- .... ....
....|..|F-2 2FFA ....|F-2 2F.A ....|--- .... ....
....|..|F-1 2FFA ....|F-1 2F.A ....|--- .... ....
 E-3|..|E-1 2AFF ....|E-1 2A.F ....|G-3 UF3F ....
....|..|--- .... ....|C-5 3FFA ....|--- .... ....
....|..|F-2 2FFA ....|F-2 2F.A ....|A-3 UF.A ....
....|..|F-2 2FFA ....|G-6 3FFF ....|R-- .... ....
 E-4|..|E-2 2AFF ....|G-6 3FFF ....|--- .... ....
 E-4|..|E-2 2AFF ....|E-2 2A.F ....|--- .... ....
....|..|E-1 2FFA ....|E-1 2F.A ....|G-3 UF3A ....
....|..|--- .... ....|A-6 3FFF ....|--- .... ....
 E-3|..|E-1 2AFF ....|E-1 2A.F ....|A-3 UF.7 ....
....|..|F-2 2FF7 ....|G-6 3FFA ....|R-- .... ....
....|..|E-2 2FFA ....|G-6 3FFA ....|--- .... ....
....|..|E-2 2FFA ....|G-6 3FFF ....|--- .... ....
 E-4|..|E-2 2AFF ....|E-2 2A.F ....|G-3 UF37 ....
....|..|--- .... ....|A-6 3FFA ....|--- .... ....
....|..|E-1 2FFA ....|E-1 2F.A ....|--- .... ....
....|..|--- .... ....|F-6 3FFF ....|--- .... ....
 E-4|..|E-2 2AFF ....|E-2 2A.F ....|G-3 UF1F ....
 E-3|..|E-1 2AFF ....|E-1 2A.F ....|--- .... ....
....|..|E-2 2FFA ....|E-2 2F.A ....|--- .... ....
....|..|--- .... ....|G-5 3FFF ....|--- .... ....
 E-4|..|E-2 2AFF ....|E-2 2A.F ....|--- .... ....
 E-4|..|E-2 2AFF ....|E-2 2A.F ....|--- .... ....
....|..|E-2 2FFA ....|E-2 2F.A ....|G-3 UF1A ....
....|..|E-1 2FFA ....|C-7 3FFF ....|--- .... ....
 E-3|..|E-1 2AFF ....|C-7 3FFF ....|--- .... ....
....|..|--- .... ....|G-5 3FFA ....|--- .... ....
....|..|E-2 2FFA ....|E-2 2F.A ....|--- .... ....
....|..|E-2 2FFA ....|B-6 3FFF ....|--- .... ....
 E-4|..|E-2 2AFF ....|E-2 2A.F ....|G-3 UF17 ....
....|..|E-1 2FF7 ....|C-7 3FFA ....|--- .... ....
....|..|E-1 2FFA ....|C-7 3FFA ....|--- .... ....
....|..|--- .... ....|A-6 3FFF ....|--- .... ....

[Pattern16]
 C-4|..|C-2 2AFF ....|B-6 3FFF ....|C-4 UF1F ....
....|..|E-2 2FF7 ....|B-6 3FFA ....|--- .... ....
....|..|E-2 2FFA ....|A-6 3FFF ....|--- .... ....
....|..|--- .... ....|C-7 3FF7 ....|--- .... ....
 C-3|..|C-3 2CFF ....|C-3 2C.F ....|--- .... ....
....|..|--- .... ....|A-6 3FFA ....|--- .... ....
....|..|C-2 2FFA ....|B-6 3FFF ....|C-4 UF1A ....
....|..|--- .... ....|B-6 3FF7 ....|--- .... ....
 C-4|..|C-2 2AFF ....|C-2 2A.F ....|--- .... ....
....|..|--- .... ....|R-- .... ....|--- .... ....
....|..|C-3 2FFA ....|C-7 3FFF ....|--- .... ....
....|..|--- .... ....|A-6 3FF7 ....|--- .... ....
 C-3|..|C-3 2CFF ....|C-3 2C.F ....|C-4 UF17 ....
....|..|--- .... ....|B-6 3FFF ....|--- .... ....
....|..|C-2 2FFA ....|C-2 2F.A ....|--- .... ....
....|..|--- .... ....|R-- .... ....|--- .... ....
 C-3|..|C-3 2CFF ....|C-3 2C.F ....|--- .... ....
 C-4|..|C-2 2AFF ....|A-6 3FFF ....|--- .... ....
....|..|C-3 2FFA ....|C-3 2F.A ....|--- .... ....
....|..|--- .... ....|E-5 3FFF ....|--- .... ....
 C-3|..|C-3 2CFF ....|C-3 2C.F ....|--- .... ....
....|..|--- .... ....|R-- .... ....|--- .... ....
....|..|C-3 2FFA ....|C-3 2F.A ....|--- .... ....
....|..|C-2 2FFA ....|A-6 3FFA ....|--- .... ....
 C-4|..|C-2 2AFF ....|F-6 3FFF ....|--- .... ....
....|..|--- .... ....|B-6 3FF7 ....|--- .... ....
....|..|C-3 2FFA ....|C-3 2F.A ....|--- .... ....
....|..|--- .... ....|E-5 3FFF ....|--- .... ....
 C-3|..|C-3 2CFF ....|G-6 3FFF ....|--- .... ....
 C-3|..|C-3 2CFF ....|C-3 2C.F ....|--- .... ....
....|..|C-2 2FFA ....|E-5 3FFF ....|R-- .... ....
....|..|--- .... ....|E-5 3FF7 ....|--- .... ....
 G-3|..|G-1 2AFF ....|D-6 3FFF ....|G-3 UF1F ....
....|..|--- .... ....|E-5 3FFA ....|--- .... ....
....|..|C-3 2FFA ....|G-6 3FFA ....|--- .... ....
....|..|C-3 2FFA ....|C-3 2F.A ....|--- .... ....
 G-4|..|G-2 2AFF ....|G-2 2A.F ....|R-- .... ....
 G-4|..|G-2 2AFF ....|G-2 2A.F ....|--- .... ....
....|..|G-1 2FFA ....|D-6 3FFA ....|G-3 UF1A ....
....|..|--- .... ....|E-5 3FF7 ....|--- .... ....
 G-3|..|G-1 2AFF ....|B-5 3FFF ....|--- .... ....
....|..|C-3 2FF7 ....|C-3 2F.7 ....|--- .... ....
....|..|G-2 2FFA ....|G-2 2F.A ....|R-- .... ....
....|..|G-2 2FFA ....|G-2 2F.A ....|--- .... ....
 G-4|..|G-2 2AFF ....|G-2 2A.F ....|G-3 UF17 ....
 G-4|..|G-2 2AFF ....|G-2 2A.F ....|--- .... ....
....|..|G-1 2FFA ....|B-5 3FFA ....|--- .... ....
....|..|--- .... ....|--- .... ....|--- .... ....
 G-4|..|G-2 2AFF ....|C-5 3FFF ....|--- .... ....
 G-3|..|G-1 2AFF ....|G-1 2A.F ....|--- .... ....
....|..|G-2 2FFA ....|G-2 2F.A ....|--- .... ....
....|..|G-2 2FFA ....|G-2 2F.A ....|--- .... ....
 G-4|..|G-2 2AFF ....|G-2 2A.F ....|--- .... ....
 G-4|..|G-2 2AFF ....|G-2 2A.F ....|--- .... ....
....|..|G-2 2FFA ....|C-5 3FFA ....|--- .... ....
....|..|G-1 2FFA ....|G-1 2F.A ....|--- .... ....
 G-3|..|G-1 2AFF ....|E-6 3FFF ....|--- .... ....
....|..|G-2 2FF7 ....|E-6 3FFF ....|--- .... ....
....|..|G-2 2FFA ....|G-2 2F.A ....|--- .... ....
....|..|G-2 2FFA ....|G-2 2F.A ....|--- .... ....
 G-4|..|G-2 2AFF ....|G-2 2A.F ....|--- .... ....
 G-4|..|G-2 2AFF ....|G-2 2A.F ....|--- .... ....
....|..|G-1 2FFA ....|E-6 3FFA ....|R-- .... ....
....|..|--- .... ....|E-6 3FFA ....|--- .... ....

[Pattern17]
 F-3|..|F-1 2AFF ....|D-6 3FFF ....|A-3 UF2F ....
....|..|G-2 2FF7 ....|G-2 2F.7 ....|--- .... ....
....|..|G-2 2FFA ....|G-2 2F.A ....|--- .... ....
....|..|G-2 2FFA ....|G-2 2F.A ....|--- .... ....
 F-4|..|F-2 2AFF ....|F-2 2A.F ....|R-- .... ....
 F-4|..|F-2 2AFF ....|G-6 3FFF ....|--- .... ....
....|..|F-1 2FFA ....|D-6 3FFA ....|A-3 UF2A ....
....|..|--- .... ....|R-- .... ....|--- .... ....
 F-4|..|F-2 2AFF ....|F-2 2A.F ....|--- .... ....
 F-3|..|F-1 2AFF ....|F-1 2A.F ....|--- .... ....
....|..|F-2 2FFA ....|F-2 2F.A ....|R-- .... ....
....|..|F-2 2FFA ....|F-5 3FFF ....|--- .... ....
 F-4|..|F-2 2AFF ....|F-2 2A.F ....|A-3 UF27 ....
 F-4|..|F-2 2AFF ....|F-2 2A.F ....|--- .... ....
....|..|F-2 2FFA ....|F-2 2F.A ....|--- .... ....
....|..|F-1 2FFA ....|A-6 3FFF ....|--- .... ....
 F-4|..|F-2 2AFF ....|F-2 2A.F ....|--- .... ....
 F-3|..|F-1 2AFF ....|F-1 2A.F ....|--- .... ....
....|..|F-2 2FFA ....|F-2 2F.A ....|--- .... ....
....|..|F-2 2FFA ....|F-2 2F.A ....|--- .... ....
 F-4|..|F-2 2AFF ....|F-2 2A.F ....|--- .... ....
....|..|F-1 2FF7 ....|A-6 3FFA ....|--- .... ....
....|..|F-2 2FFA ....|F-2 2F.A ....|--- .... ....
....|..|F-1 2FFA ....|G-5 3FFF ....|--- .... ....
 F-4|..|F-2 2AFF ....|F-2 2A.F ....|--- .... ....
 F-3|..|F-1 2AFF ....|F-1 2A.F ....|--- .... ....
....|..|F-2 2FFA ....|F-2 2F.A ....|--- .... ....
....|..|--- .... ....|A-6 3FF7 ....|--- .... ....
 F-4|..|F-2 2AFF ....|C-7 3FFF ....|A-3 UF.F ....
 F-4|..|F-2 2AFF ....|F-2 2A.F ....|R-- .... ....
....|..|F-2 2FFA ....|F-2 2F.A ....|--- .... ....
....|..|F-1 2FFA ....|F-1 2F.A ....|--- .... ....
 E-3|..|E-1 2AFF ....|E-1 2A.F ....|G-3 UF3F ....
....|..|--- .... ....|R-- .... ....|--- .... ....
....|..|F-2 2FFA ....|C-7 3FFA ....|A-3 UF.A ....
....|..|F-2 2FFA ....|F-2 2F.A ....|R-- .... ....
 E-4|..|E-2 2AFF ....|B-5 3FFF ....|--- .... ....
 E-4|..|E-2 2AFF ....|E-2 2A.F ....|--- .... ....
....|..|E-1 2FFA ....|E-1 2F.A ....|G-3 UF3A ....
....|..|--- .... ....|R-- .... ....|--- .... ....
 E-3|..|E-1 2AFF ....|C-7 3FFF ....|A-3 UF.7 ....
....|..|F-2 2FF7 ....|F-2 2F.7 ....|R-- .... ....
....|..|E-2 2FFA ....|B-5 3FFA ....|--- .... ....
....|..|E-2 2FFA ....|E-2 2F.A ....|--- .... ....
 E-4|..|E-2 2AFF ....|E-2 2A.F ....|G-3 UF37 ....
....|..|--- .... ....|R-- .... ....|--- .... ....
....|..|E-1 2FFA ....|C-7 3FFA ....|--- .... ....
....|..|--- .... ....|--- .... ....|--- .... ....
 E-4|..|E-2 2AFF ....|C-6 3FFF ....|F-3 UF3F ....
 E-3|..|E-1 2AFF ....|E-1 2A.F ....|--- .... ....
....|..|E-2 2FFA ....|E-2 2F.A ....|--- .... ....
....|..|--- .... ....|R-- .... ....|--- .... ....
 E-4|..|E-2 2AFF ....|G-6 3FFF ....|--- .... ....
 E-4|..|E-2 2AFF ....|E-2 2A.F ....|--- .... ....
....|..|E-2 2FFA ....|C-6 3FFA ....|F-3 UF3A ....
....|..|E-1 2FFA ....|F-5 3FFF ....|--- .... ....
 E-3|..|E-1 2AFF ....|E-1 2A.F ....|--- .... ....
....|..|--- .... ....|R-- .... ....|--- .... ....
....|..|E-2 2FFA ....|G-6 3FFA ....|--- .... ....
....|..|E-2 2FFA ....|D-6 3FFF ....|--- .... ....
 E-4|..|E-2 2AFF ....|E-2 2A.F ....|F-3 UF37 ....
....|..|E-1 2FF7 ....|F-5 3FFF ....|--- .... ....
....|..|E-1 2FFA ....|E-1 2F.A ....|--- .... ....
....|..|--- .... ....|B-5 3FFF ....|--- .... ....

[Pattern18]
 C-4|..|C-2 2AFF ....|C-2 2A.F ....|C-4 UF1F ....
....|..|E-2 2FF7 ....|D-6 3FFA ....|--- .... ....
....|..|E-2 2FFA ....|E-2 2F.A ....|--- .... ....
....|..|--- .... ....|F-5 3FF7 ....|--- .... ....
 C-3|..|C-3 2CFF ....|C-5 3FFF ....|--- .... ....
....|..|--- .... ....|B-5 3FFA ....|--- .... ....
....|..|C-2 2FFA ....|C-2 2F.A ....|C-4 UF1A ....
....|..|--- .... ....|D-6 3FF7 ....|--- .... ....
 C-4|..|C-2 2AFF ....|C-2 2A.F ....|--- .... ....
....|..|--- .... ....|F-5 3FF7 ....|--- .... ....
....|..|C-3 2FFA ....|C-5 3FFA ....|--- .... ....
....|..|--- .... ....|B-5 3FF7 ....|--- .... ....
 C-3|..|C-3 2CFF ....|C-3 2C.F ....|C-4 UF17 ....
....|..|--- .... ....|--- .... ....|--- .... ....
....|..|C-2 2FFA ....|C-2 2F.A ....|--- .... ....
....|..|--- .... ....|--- .... ....|--- .... ....
 C-3|..|C-3 2CFF ....|C-3 2C.F ....|--- .... ....
 C-4|..|C-2 2AFF ....|C-2 2A.F ....|--- .... ....
....|..|C-3 2FFA ....|C-3 2F.A ....|--- .... ....
....|..|--- .... ....|--- .... ....|--- .... ....
 C-3|..|C-3 2CFF ....|A-6 3FFF ....|--- .... ....
....|..|--- .... ....|--- .... ....|--- .... ....
....|..|C-3 2FFA ....|C-3 2F.A ....|--- .... ....
....|..|C-2 2FFA ....|C-2 2F.A ....|--- .... ....
 C-4|..|C-2 2AFF ....|G-6 3FFF ....|--- .... ....
....|..|--- .... ....|R-- .... ....|--- .... ....
....|..|C-3 2FFA ....|A-6 3FFA ....|--- .... ....
....|..|--- .... ....|--- .... ....|--- .... ....
 C-3|..|C-3 2CFF ....|D-6 3FFF ....|--- .... ....
 C-3|..|C-3 2CFF ....|C-3 2C.F ....|--- .... ....
....|..|C-2 2FFA ....|G-6 3FFA ....|R-- .... ....
....|..|--- .... ....|R-- .... ....|--- .... ....
 G-3|..|G-1 2AFF ....|A-5 3FFF ....|G-3 UF1F ....
....|..|--- .... ....|--- .... ....|--- .... ....
....|..|C-3 2FFA ....|D-6 3FFA ....|--- .... ....
....|..|C-3 2FFA ....|C-3 2F.A ....|--- .... ....
 G-4|..|G-2 2AFF ....|E-5 3FFF ....|R-- .... ....
 G-4|..|G-2 2AFF ....|G-2 2A.F ....|--- .... ....
....|..|G-1 2FFA ....|A-5 3FFA ....|G-3 UF1A ....
....|..|--- .... ....|A-5 3FFF ....|--- .... ....
 G-3|..|G-1 2AFF ....|G-1 2A.F ....|--- .... ....
....|..|C-3 2FF7 ....|E-5 3FFF ....|--- .... ....
....|..|G-2 2FFA ....|E-5 3FFA ....|R-- .... ....
....|..|G-2 2FFA ....|C-6 3FFF ....|--- .... ....
 G-4|..|G-2 2AFF ....|G-2 2A.F ....|G-3 UF17 ....
 G-4|..|G-2 2AFF ....|E-5 3FFF ....|--- .... ....
....|..|G-1 2FFA ....|G-1 2F.A ....|--- .... ....
....|..|--- .... ....|G-6 3FFF ....|--- .... ....
 G-4|..|G-2 2AFF ....|G-2 2A.F ....|--- .... ....
 G-3|..|G-1 2AFF ....|G-1 2A.F ....|--- .... ....
....|..|G-2 2FFA ....|E-6 3FFF ....|--- .... ....
....|..|G-2 2FFA ....|G-2 2F.A ....|--- .... ....
 G-4|..|G-2 2AFF ....|G-2 2A.F ....|--- .... ....
 G-4|..|G-2 2AFF ....|G-2 2A.F ....|--- .... ....
....|..|G-2 2FFA ....|G-5 3FFF ....|--- .... ....
....|..|G-1 2FFA ....|G-1 2F.A ....|--- .... ....
 G-3|..|G-1 2AFF ....|G-1 2A.F ....|--- .... ....
....|..|G-2 2FF7 ....|E-5 3FF7 ....|--- .... ....
....|..|G-2 2FFA ....|C-6 3FFF ....|--- .... ....
....|..|G-2 2FFA ....|G-2 2F.A ....|--- .... ....
 G-4|..|G-2 2AFF ....|G-5 3FFF ....|--- .... ....
 G-4|..|G-2 2AFF ....|G-2 2A.F ....|--- .... ....
....|..|G-1 2FFA ....|F-6 3FFF ....|R-- .... ....
....|..|--- .... ....|--- .... ....|--- .... ....

[Pattern19]
 F-3|..|F-1 2AFF ....|G-5 3FFF ....|A-3 UF2F ....
....|..|G-2 2FF7 ....|G-2 2F.7 ....|--- .... ....
....|..|G-2 2FFA ....|G-2 2F.A ....|--- .... ....
....|..|G-2 2FFA ....|B-6 3FFF ....|--- .... ....
 F-4|..|F-2 2AFF ....|F-2 2A.F ....|R-- .... ....
 F-4|..|F-2 2AFF ....|F-2 2A.F ....|--- .... ....
....|..|F-1 2FFA ....|G-6 3FFF ....|A-3 UF2A ....
....|..|--- .... ....|--- .... ....|--- .... ....
 F-4|..|F-2 2AFF ....|F-2 2A.F ....|--- .... ....
 F-3|..|F-1 2AFF ....|F-1 2A.F ....|--- .... ....
....|..|F-2 2FFA ....|F-5 3FFF ....|R-- .... ....
....|..|F-2 2FFA ....|F-2 2F.A ....|--- .... ....
 F-4|..|F-2 2AFF ....|F-2 2A.F ....|A-3 UF27 ....
 F-4|..|F-2 2AFF ....|E-5 3FFF ....|--- .... ....
....|..|F-2 2FFA ....|F-2 2F.A ....|--- .... ....
....|..|F-1 2FFA ....|F-1 2F.A ....|--- .... ....
 F-4|..|F-2 2AFF ....|F-2 2A.F ....|--- .... ....
 F-3|..|F-1 2AFF ....|F-1 2A.F ....|--- .... ....
....|..|F-2 2FFA ....|F-2 2F.A ....|--- .... ....
....|..|F-2 2FFA ....|E-5 3FFA ....|--- .... ....
 F-4|..|F-2 2AFF ....|F-2 2A.F ....|--- .... ....
....|..|F-1 2FF7 ....|F-1 2F.7 ....|--- .... ....
....|..|F-2 2FFA ....|F-2 2F.A ....|--- .... ....
....|..|F-1 2FFA ....|F-1 2F.A ....|--- .... ....
 F-4|..|F-2 2AFF ....|F-2 2A.F ....|--- .... ....
 F-3|..|F-1 2AFF ....|F-1 2A.F ....|--- .... ....
....|..|F-2 2FFA ....|F-2 2F.A ....|--- .... ....
....|..|--- .... ....|D-6 3FFF ....|--- .... ....
 F-4|..|F-2 2AFF ....|F-2 2A.F ....|A-3 UF.F ....
 F-4|..|F-2 2AFF ....|F-2 2A.F ....|R-- .... ....
....|..|F-2 2FFA ....|D#6 3FFF ....|--- .... ....
....|..|F-1 2FFA ....|F-1 2F.A ....|--- .... ....
 E-3|..|E-1 2AFF ....|E-1 2A.F ....|G-3 UF3F ....
....|..|--- .... ....|D-6 3FFF ....|--- .... ....
....|..|F-2 2FFA ....|F-2 2F.A ....|A-3 UF.A ....
....|..|F-2 2FFA ....|E-6 3FFF ....|R-- .... ....
 E-4|..|E-2 2AFF ....|E-2 2A.F ....|--- .... ....
 E-4|..|E-2 2AFF ....|E-2 2A.F ....|--- .... ....
....|..|E-1 2FFA ....|E-1 2F.A ....|G-3 UF3A ....
....|..|--- .... ....|D-6 3FF7 ....|--- .... ....
 E-3|..|E-1 2AFF ....|E-1 2A.F ....|A-3 UF.7 ....
....|..|F-2 2FF7 ....|E-6 3FFA ....|R-- .... ....
....|..|E-2 2FFA ....|E-2 2F.A ....|--- .... ....
....|..|E-2 2FFA ....|E-2 2F.A ....|--- .... ....
 E-4|..|E-2 2AFF ....|D-6 3FFF ....|G-3 UF37 ....
....|..|--- .... ....|D-6 3FF7 ....|--- .... ....
....|..|E-1 2FFA ....|D#6 3FFF ....|--- .... ....
....|..|--- .... ....|E-6 3FF7 ....|--- .... ....
 E-4|..|E-2 2AFF ....|E-2 2A.F ....|G-3 UF1F ....
 E-3|..|E-1 2AFF ....|E-6 3FFF ....|--- .... ....
....|..|E-2 2FFA ....|D-6 3FFA ....|--- .... ....
....|..|--- .... ....|--- .... ....|--- .... ....
 E-4|..|E-2 2AFF ....|E-2 2A.F ....|--- .... ....
 E-4|..|E-2 2AFF ....|E-2 2A.F ....|--- .... ....
....|..|E-2 2FFA ....|E-2 2F.A ....|G-3 UF1A ....
....|..|E-1 2FFA ....|E-6 3FFA ....|--- .... ....
 E-3|..|E-1 2AFF ....|E-1 2A.F ....|--- .... ....
....|..|--- .... ....|--- .... ....|--- .... ....
....|..|E-2 2FFA ....|E-2 2F.A ....|--- .... ....
....|..|E-2 2FFA ....|D-6 3FFF ....|--- .... ....
 E-4|..|E-2 2AFF ....|E-2 2A.F ....|G-3 UF17 ....
....|..|E-1 2FF7 ....|D#6 3FFF ....|--- .... ....
....|..|E-1 2FFA ....|E-1 2F.A ....|--- .... ....
....|..|--- .... ....|R-- .... ....|--- .... ....

[Pattern20]
 C-4|..|C-2 2AFF ....|E-6 3FFF ....|C-4 UF1F ....
....|..|E-2 2FF7 ....|D-6 3FFA ....|--- .... ....
....|..|E-2 2FFA ....|E-2 2F.A ....|--- .... ....
....|..|--- .... ....|D#6 3FFA ....|--- .... ....
 C-3|..|C-3 2CFF ....|C-3 2C.F ....|--- .... ....
....|..|--- .... ....|D#6 3FFF ....|--- .... ....
....|..|C-2 2FFA ....|E-6 3FFA ....|C-4 UF1A ....
....|..|--- .... ....|D-6 3FF7 ....|--- .... ....
 C-4|..|C-2 2AFF ....|C-2 2A.F ....|--- .... ....
....|..|--- .... ....|D#6 3FF7 ....|--- .... ....
....|..|C-3 2FFA ....|C-3 2F.A ....|--- .... ....
....|..|--- .... ....|D-6 3FFF ....|--- .... ....
 C-3|..|C-3 2CFF ....|C-3 2C.F ....|C-4 UF17 ....
....|..|--- .... ....|--- .... ....|--- .... ....
....|..|C-2 2FFA ....|C-2 2F.A ....|--- .... ....
....|..|--- .... ....|R-- .... ....|--- .... ....
 C-3|..|C-3 2CFF ....|C#6 3FFF ....|--- .... ....
 C-4|..|C-2 2AFF ....|C-2 2A.F ....|--- .... ....
....|..|C-3 2FFA ....|C-3 2F.A ....|--- .... ....
....|..|--- .... ....|--- .... ....|--- .... ....
 C-3|..|C-3 2CFF ....|C-3 2C.F ....|--- .... ....
....|..|--- .... ....|C#6 3FFF ....|--- .... ....
....|..|C-3 2FFA ....|C-6 3FFF ....|--- .... ....
....|..|C-2 2FFA ....|C-2 2F.A ....|--- .... ....
 C-4|..|C-2 2AFF ....|C-2 2A.F ....|--- .... ....
....|..|--- .... ....|--- .... ....|--- .... ....
....|..|C-3 2FFA ....|C-3 2F.A ....|--- .... ....
....|..|--- .... ....|B-5 3FFF ....|--- .... ....
 C-3|..|C-3 2CFF ....|C-3 2C.F ....|--- .... ....
 C-3|..|C-3 2CFF ....|C-3 2C.F ....|--- .... ....
....|..|C-2 2FFA ....|C-2 2F.A ....|R-- .... ....
....|..|--- .... ....|--- .... ....|--- .... ....
 G-3|..|G-1 2AFF ....|C-5 3FFF ....|G-3 UF1F ....
....|..|--- .... ....|C#6 3FF7 ....|--- .... ....
....|..|C-3 2FFA ....|C-3 2F.A ....|--- .... ....
....|..|C-3 2FFA ....|C-3 2F.A ....|--- .... ....
 G-4|..|G-2 2AFF ....|G-2 2A.F ....|R-- .... ....
 G-4|..|G-2 2AFF ....|G-2 2A.F ....|--- .... ....
....|..|G-1 2FFA ....|C-5 3FFA ....|G-3 UF1A ....
....|..|--- .... ....|C-5 3FFF ....|--- .... ....
 G-3|..|G-1 2AFF ....|G-1 2A.F ....|--- .... ....
....|..|C-3 2FF7 ....|C-3 2F.7 ....|--- .... ....
....|..|G-2 2FFA ....|G-2 2F.A ....|R-- .... ....
....|..|G-2 2FFA ....|G-2 2F.A ....|--- .... ....
 G-4|..|G-2 2AFF ....|G-2 2A.F ....|G-3 UF17 ....
 G-4|..|G-2 2AFF ....|G-2 2A.F ....|--- .... ....
....|..|G-1 2FFA ....|G-1 2F.A ....|--- .... ....
....|..|--- .... ....|C-5 3FFF ....|--- .... ....
 G-4|..|G-2 2AFF ....|G-2 2A.F ....|--- .... ....
 G-3|..|G-1 2AFF ....|G-1 2A.F ....|--- .... ....
....|..|G-2 2FFA ....|G-2 2F.A ....|--- .... ....
....|..|G-2 2FFA ....|G-2 2F.A ....|--- .... ....
 G-4|..|G-2 2AFF ....|G-2 2A.F ....|--- .... ....
 G-4|..|G-2 2AFF ....|C-5 3FFF ....|--- .... ....
....|..|G-2 2FFA ....|G-2 2F.A ....|--- .... ....
....|..|G-1 2FFA ....|G-1 2F.A ....|--- .... ....
 G-3|..|G-1 2AFF ....|G-1 2A.F ....|--- .... ....
....|..|G-2 2FF7 ....|G-2 2F.7 ....|--- .... ....
....|..|G-2 2FFA ....|C-5 3FFF ....|--- .... ....
....|..|G-2 2FFA ....|G-2 2F.A ....|--- .... ....
 G-4|..|G-2 2AFF ....|G-2 2A.F ....|--- .... ....
 G-4|..|G-2 2AFF ....|G-2 2A.F ....|--- .... ....
....|..|G-1 2FFA ....|G-1 2F.A ....|R-- .... ....
....|..|--- .... ....|--- .... ....|--- .... ....

[Pattern21]
 F-3|..|F-1 2AFF ....|C-5 3FFF ....|A-3 UF2F ....
....|..|G-2 2FF7 ....|C-5 3FF7 ....|--- .... ....
....|..|G-2 2FFA ....|G-2 2F.A ....|--- .... ....
....|..|G-2 2FFA ....|G-2 2F.A ....|--- .... ....
 F-4|..|F-2 2AFF ....|F-2 2A.F ....|R-- .... ....
 F-4|..|F-2 2AFF ....|F-6 3FFF ....|--- .... ....
....|..|F-1 2FFA ....|F-1 2F.A ....|A-3 UF2A ....
....|..|--- .... ....|--- .... ....|--- .... ....
 F-4|..|F-2 2AFF ....|F-2 2A.F ....|--- .... ....
 F-3|..|F-1 2AFF ....|F-1 2A.F ....|--- .... ....
....|..|F-2 2FFA ....|F#6 3FFF ....|R-- .... ....
....|..|F-2 2FFA ....|F-6 3FFA ....|--- .... ....
 F-4|..|F-2 2AFF ....|F-2 2A.F ....|A-3 UF27 ....
 F-4|..|F-2 2AFF ....|F-2 2A.F ....|--- .... ....
....|..|F-2 2FFA ....|F-2 2F.A ....|--- .... ....
....|..|F-1 2FFA ....|G-6 3FFF ....|--- .... ....
 F-4|..|F-2 2AFF ....|F-2 2A.F ....|--- .... ....
 F-3|..|F-1 2AFF ....|F-1 2A.F ....|--- .... ....
....|..|F-2 2FFA ....|F-2 2F.A ....|--- .... ....
....|..|F-2 2FFA ....|F-2 2F.A ....|--- .... ....
 F-4|..|F-2 2AFF ....|A-6 3FFF ....|--- .... ....
....|..|F-1 2FF7 ....|G-6 3FFA ....|--- .... ....
....|..|F-2 2FFA ....|F-2 2F.A ....|--- .... ....
....|..|F-1 2FFA ....|F-1 2F.A ....|--- .... ....
 F-4|..|F-2 2AFF ....|F-2 2A.F ....|--- .... ....
 F-3|..|F-1 2AFF ....|B-6 3FFF ....|--- .... ....
....|..|F-2 2FFA ....|A-6 3FFA ....|--- .... ....
....|..|--- .... ....|G-6 3FF7 ....|--- .... ....
 F-4|..|F-2 2AFF ....|F-2 2A.F ....|A-3 UF.F ....
 F-4|..|F-2 2AFF ....|F-2 2A.F ....|R-- .... ....
....|..|F-2 2FFA ....|C-7 3FFF ....|--- .... ....
....|..|F-1 2FFA ....|B-6 3FFA ....|--- .... ....
 E-3|..|E-1 2AFF ....|E-1 2A.F ....|G-3 UF3F ....
....|..|--- .... ....|--- .... ....|--- .... ....
....|..|F-2 2FFA ....|F-2 2F.A ....|A-3 UF.A ....
....|..|F-2 2FFA ....|F-2 2F.A ....|R-- .... ....
 E-4|..|E-2 2AFF ....|E-2 2A.F ....|--- .... ....
 E-4|..|E-2 2AFF ....|E-2 2A.F ....|--- .... ....
....|..|E-1 2FFA ....|E-1 2F.A ....|G-3 UF3A ....
....|..|--- .... ....|--- .... ....|--- .... ....
 E-3|..|E-1 2AFF ....|E-1 2A.F ....|A-3 UF.7 ....
....|..|F-2 2FF7 ....|F-2 2F.7 ....|R-- .... ....
....|..|E-2 2FFA ....|E-2 2F.A ....|--- .... ....
....|..|E-2 2FFA ....|C-7 3FFF ....|--- .... ....
 E-4|..|E-2 2AFF ....|B-6 3FFF ....|G-3 UF37 ....
....|..|--- .... ....|--- .... ....|--- .... ....
....|..|E-1 2FFA ....|A-6 3FFF ....|--- .... ....
....|..|--- .... ....|--- .... ....|--- .... ....
 E-4|..|E-2 2AFF ....|B-6 3FFF ....|F-3 UF3F ....
 E-3|..|E-1 2AFF ....|E-1 2A.F ....|--- .... ....
....|..|E-2 2FFA ....|B-6 3FFA ....|--- .... ....
....|..|--- .... ....|--- .... ....|--- .... ....
 E-4|..|E-2 2AFF ....|E-2 2A.F ....|--- .... ....
 E-4|..|E-2 2AFF ....|E-2 2A.F ....|--- .... ....
....|..|E-2 2FFA ....|B-6 3FFA ....|F-3 UF3A ....
....|..|E-1 2FFA ....|E-1 2F.A ....|--- .... ....
 E-3|..|E-1 2AFF ....|E-1 2A.F ....|--- .... ....
....|..|--- .... ....|R-- .... ....|--- .... ....
....|..|E-2 2FFA ....|E-2 2F.A ....|--- .... ....
....|..|E-2 2FFA ....|A-6 3FFF ....|--- .... ....
 E-4|..|E-2 2AFF ....|E-2 2A.F ....|F-3 UF37 ....
....|..|E-1 2FF7 ....|C-7 3FFF ....|--- .... ....
....|..|E-1 2FFA ....|E-1 2F.A ....|--- .... ....
....|..|--- .... ....|C-7 3FFF ....|--- .... ....

[Pattern22]
 G-3|..|G-1 2AFF ....|B-6 3FFF ....|C-4 UF1F ....
....|..|E-2 2FF7 ....|A-6 3FFA ....|--- .... ....
....|..|E-2 2FFA ....|B-6 3FFF ....|--- .... ....
....|..|--- .... ....|A-6 3FFF ....|--- .... ....
....|..|E-1 2FF7 ....|E-1 2F.7 ....|--- .... ....
....|..|--- .... ....|C-7 3FFA ....|--- .... ....
....|..|G-1 2FFA ....|C-7 3FFF ....|C-4 UF1A ....
....|..|--- .... ....|A-6 3FF7 ....|--- .... ....
 G-3|..|G-1 2AFF ....|C-7 3FFF ....|--- .... ....
....|..|--- .... ....|B-6 3FFF ....|--- .... ....
....|..|R-- .... ....|A-6 3FFF ....|--- .... ....
....|..|--- .... ....|C-7 3FF7 ....|--- .... ....
....|..|G-1 2FF7 ....|C-7 3FFF ....|C-4 UF17 ....
....|..|--- .... ....|--- .... ....|--- .... ....
....|..|G-1 2FFA ....|C-7 3FFF ....|--- .... ....
....|..|--- .... ....|B-6 3FFF ....|--- .... ....
 G-3|..|G-1 2AFF ....|A-6 3FFF ....|B-3 UF4F ....
....|..|--- .... ....|R-- .... ....|--- .... ....
....|..|R-- .... ....|C-7 3FFF ....|--- .... ....
....|..|--- .... ....|C-7 3FFF ....|--- .... ....
....|..|G-1 2FF7 ....|C-7 3FFF ....|--- .... ....
....|..|--- .... ....|A-6 3FFF ....|--- .... ....
....|..|G-1 2FFA ....|C-7 3FFF ....|B-3 UF4A ....
....|..|--- .... ....|C-7 3FFF ....|--- .... ....
 G-3|..|G-1 2AFF ....|B-6 3FFF ....|--- .... ....
....|..|--- .... ....|A-6 3FFF ....|--- .... ....
....|..|R-- .... ....|C-7 3FF7 ....|--- .... ....
....|..|--- .... ....|C-7 3FFF ....|--- .... ....
....|..|G-1 2FF7 ....|C-7 3FFF ....|B-3 UF47 ....
....|..|--- .... ....|C-7 3FFA ....|--- .... ....
....|..|G-1 2FFA ....|A-6 3FFF ....|--- .... ....
....|..|--- .... ....|C-7 3FF7 ....|--- .... ....
 E-4|..|E-2 2AFF ....|C-7 3FFF ....|A-3 UF2F ....
....|..|--- .... ....|C-7 3FFF ....|--- .... ....
....|..|R-- .... ....|C-7 3FFF ....|--- .... ....
....|..|--- .... ....|A-6 3FFF ....|--- .... ....
....|..|G-1 2FF7 ....|B-6 3FF7 ....|--- .... ....
....|..|--- .... ....|A-6 3FF7 ....|--- .... ....
....|..|E-2 2FFA ....|C-7 3FFA ....|A-3 UF2A ....
....|..|--- .... ....|G-6 3FFF ....|--- .... ....
 E-4|..|E-2 2AFF ....|E-2 2A.F ....|--- .... ....
....|..|--- .... ....|A-6 3FFA ....|--- .... ....
....|..|R-- .... ....|A-6 3FFF ....|--- .... ....
....|..|--- .... ....|--- .... ....|--- .... ....
....|..|E-2 2FF7 ....|C-7 3FF7 ....|A-3 UF27 ....
....|..|--- .... ....|B-6 3FFF ....|--- .... ....
....|..|E-2 2FFA ....|E-2 2F.A ....|--- .... ....
....|..|--- .... ....|A-6 3FFF ....|--- .... ....
 E-4|..|E-2 2AFF ....|G-6 3FFF ....|--- .... ....
....|..|--- .... ....|--- .... ....|--- .... ....
....|..|R-- .... ....|E-5 3FFF ....|--- .... ....
....|..|--- .... ....|G-6 3FF7 ....|--- .... ....
....|..|E-2 2FF7 ....|E-2 2F.7 ....|--- .... ....
....|..|--- .... ....|E-6 3FFF ....|--- .... ....
....|..|E-2 2FFA ....|E-6 3FFF ....|--- .... ....
....|..|--- .... ....|F-6 3FFF ....|--- .... ....
 E-4|..|E-2 2AFF ....|E-2 2A.F ....|--- .... ....
....|..|--- .... ....|B-6 3FF7 ....|--- .... ....
....|..|R-- .... ....|G-6 3FFF ....|--- .... ....
....|..|--- .... ....|A-6 3FF7 ....|--- .... ....
....|..|E-2 2FF7 ....|D-6 3FFF ....|--- .... ....
....|..|--- .... ....|F-6 3FFA ....|--- .... ....
....|..|E-2 2FFA ....|E-2 2F.A ....|R-- .... ....
....|..|--- .... ....|E-5 3FFF ....|--- .... ....

[Pattern23]
 G-4|..|G-2 2AFF ....|G-2 2A.F ....|A-3 UF2F ....
....|..|--- .... ....|E-6 3FF7 ....|--- .... ....
....|..|R-- .... ....|B-5 3FFF ....|--- .... ....
....|..|--- .... ....|F-6 3FF7 ....|--- .... ....
....|..|E-2 2FF7 ....|A-5 3FFF ....|R-- .... ....
....|..|--- .... ....|C-6 3FFF ....|--- .... ....
....|..|G-2 2FFA ....|G-2 2F.A ....|A-3 UF2A ....
....|..|--- .... ....|E-5 3FFF ....|--- .... ....
 G-4|..|G-2 2AFF ....|G-2 2A.F ....|--- .... ....
....|..|--- .... ....|E-6 3FFF ....|--- .... ....
....|..|R-- .... ....|A-5 3FFA ....|R-- .... ....
....|..|--- .... ....|D-6 3FFF ....|--- .... ....
....|..|G-2 2FF7 ....|C-6 3FFF ....|A-3 UF27 ....
....|..|--- .... ....|E-5 3FFA ....|--- .... ....
....|..|G-2 2FFA ....|A-5 3FFF ....|--- .... ....
....|..|--- .... ....|E-6 3FFA ....|--- .... ....
 G-4|..|G-2 2AFF ....|D-5 3FFF ....|D-4 UF5F ....
....|..|--- .... ....|C-6 3FF7 ....|--- .... ....
....|..|R-- .... ....|A-5 3FFF ....|--- .... ....
....|..|--- .... ....|E-5 3FF7 ....|--- .... ....
....|..|G-2 2FF7 ....|A-5 3FFA ....|--- .... ....
....|..|--- .... ....|B-5 3FFF ....|--- .... ....
....|..|G-2 2FFA ....|B-5 3FFF ....|D-4 UF5A ....
....|..|--- .... ....|D-6 3FF7 ....|--- .... ....
 G-4|..|G-2 2AFF ....|D-6 3FFF ....|--- .... ....
....|..|--- .... ....|--- .... ....|--- .... ....
....|..|R-- .... ....|A-5 3FF7 ....|--- .... ....
....|..|--- .... ....|E-5 3FFF ....|--- .... ....
....|..|G-2 2FF7 ....|D-5 3FF7 ....|D-4 UF57 ....
....|..|--- .... ....|R-- .... ....|--- .... ....
....|..|G-2 2FFA ....|G-6 3FFF ....|--- .... ....
....|..|--- .... ....|--- .... ....|--- .... ....
 C-4|..|C-2 2AFF ....|E-5 3FFF ....|E-4 UF6F ....
....|..|--- .... ....|E-6 3FFF ....|--- .... ....
....|..|R-- .... ....|B-5 3FF7 ....|--- .... ....
....|..|--- .... ....|R-- .... ....|--- .... ....
....|..|G-2 2FF7 ....|D-6 3FF7 ....|--- .... ....
....|..|--- .... ....|--- .... ....|--- .... ....
....|..|C-2 2FFA ....|E-5 3FFA ....|E-4 UF6A ....
....|..|--- .... ....|E-5 3FF7 ....|--- .... ....
 C-4|..|C-2 2AFF ....|C-2 2A.F ....|--- .... ....
....|..|--- .... ....|--- .... ....|--- .... ....
....|..|R-- .... ....|G-6 3FF7 ....|--- .... ....
....|..|--- .... ....|--- .... ....|--- .... ....
....|..|C-2 2FF7 ....|E-6 3FFF ....|E-4 UF67 ....
....|..|--- .... ....|F-6 3FFF ....|--- .... ....
....|..|C-2 2FFA ....|F-6 3FFF ....|--- .... ....
....|..|--- .... ....|G-6 3FFF ....|--- .... ....
 C-4|..|C-2 2AFF ....|C-2 2A.F ....|G-4 UF1F ....
....|..|--- .... ....|--- .... ....|--- .... ....
....|..|R-- .... ....|F-6 3FFF ....|--- .... ....
....|..|--- .... ....|F-6 3FFA ....|--- .... ....
....|..|C-2 2FF7 ....|F-6 3FFA ....|--- .... ....
....|..|--- .... ....|E-6 3FFF ....|--- .... ....
....|..|C-2 2FFA ....|C-2 2F.A ....|G-4 UF1A ....
....|..|--- .... ....|R-- .... ....|--- .... ....
 C-4|..|C-2 2AFF ....|G-5 3FFF ....|--- .... ....
....|..|--- .... ....|F-6 3FF7 ....|--- .... ....
....|..|R-- .... ....|F-6 3FF7 ....|--- .... ....
....|..|--- .... ....|D-6 3FFF ....|--- .... ....
....|..|C-2 2FF7 ....|E-6 3FFF ....|G-4 UF17 ....
....|..|--- .... ....|R-- .... ....|--- .... ....
....|..|C-2 2FFA ....|C-2 2F.A ....|--- .... ....
....|..|--- .... ....|E-6 3FFF ....|--- .... ....

[Pattern24]
 G-3|..|G-1 2AFF ....|A-5 3FFF ....|C-4 UF1F ....
....|..|--- .... ....|E-6 3FF7 ....|--- .... ....
....|..|R-- .... ....|E-6 3FFA ....|--- .... ....
....|..|--- .... ....|R-- .... ....|--- .... ....
....|..|C-2 2FF7 ....|G-5 3FF7 ....|--- .... ....
....|..|--- .... ....|E-6 3FFA ....|--- .... ....
....|..|G-1 2FFA ....|A-5 3FFA ....|C-4 UF1A ....
....|..|--- .... ....|D-6 3FF7 ....|--- .... ....
 G-3|..|G-1 2AFF ....|D-6 3FFF ....|--- .... ....
....|..|--- .... ....|D-6 3FFF ....|--- .... ....
....|..|R-- .... ....|R-- .... ....|--- .... ....
....|..|--- .... ....|E-6 3FF7 ....|--- .... ....
....|..|G-1 2FF7 ....|A-5 3FF7 ....|C-4 UF17 ....
....|..|--- .... ....|--- .... ....|--- .... ....
....|..|G-1 2FFA ....|E-6 3FFF ....|--- .... ....
....|..|--- .... ....|D-6 3FFA ....|--- .... ....
 G-3|..|G-1 2AFF ....|D-6 3FFF ....|B-3 UF4F ....
....|..|--- .... ....|R-- .... ....|--- .... ....
....|..|R-- .... ....|R-- .... ....|--- .... ....
....|..|--- .... ....|--- .... ....|--- .... ....
....|..|G-1 2FF7 ....|D-6 3FF7 ....|--- .... ....
....|..|--- .... ....|D-6 3FF7 ....|--- .... ....
....|..|G-1 2FFA ....|D-6 3FFA ....|B-3 UF4A ....
....|..|--- .... ....|R-- .... ....|--- .... ....
 G-3|..|G-1 2AFF ....|B-5 3FFF ....|--- .... ....
....|..|--- .... ....|--- .... ....|--- .... ....
....|..|R-- .... ....|E-6 3FF7 ....|--- .... ....
....|..|--- .... ....|R-- .... ....|--- .... ....
....|..|G-1 2FF7 ....|D-6 3FF7 ....|B-3 UF47 ....
....|..|--- .... ....|--- .... ....|--- .... ....
....|..|G-1 2FFA ....|D-6 3FFF ....|--- .... ....
....|..|--- .... ....|E-6 3FFF ....|--- .... ....
 E-4|..|E-2 2AFF ....|E-6 3FFF ....|A-3 UF2F ....
....|..|--- .... ....|R-- .... ....|--- .... ....
....|..|R-- .... ....|R-- .... ....|--- .... ....
....|..|--- .... ....|--- .... ....|--- .... ....
....|..|G-1 2FF7 ....|B-5 3FF7 ....|--- .... ....
....|..|--- .... ....|E-6 3FFA ....|--- .... ....
....|..|E-2 2FFA ....|E-6 3FFA ....|A-3 UF2A ....
....|..|--- .... ....|R-- .... ....|--- .... ....
 E-4|..|E-2 2AFF ....|E-6 3FFF ....|--- .... ....
....|..|--- .... ....|--- .... ....|--- .... ....
....|..|R-- .... ....|D-6 3FF7 ....|--- .... ....
....|..|--- .... ....|E-6 3FF7 ....|--- .... ....
....|..|E-2 2FF7 ....|E-6 3FF7 ....|A-3 UF27 ....
....|..|--- .... ....|R-- .... ....|--- .... ....
....|..|E-2 2FFA ....|E-6 3FFF ....|--- .... ....
....|..|--- .... ....|R-- .... ....|--- .... ....
 E-4|..|E-2 2AFF ....|E-2 2A.F ....|--- .... ....
....|..|--- .... ....|E-6 3FFF ....|--- .... ....
....|..|R-- .... ....|R-- .... ....|--- .... ....
....|..|--- .... ....|R-- .... ....|--- .... ....
....|..|E-2 2FF7 ....|E-6 3FF7 ....|--- .... ....
....|..|--- .... ....|R-- .... ....|--- .... ....
....|..|E-2 2FFA ....|E-2 2F.A ....|--- .... ....
....|..|--- .... ....|E-6 3FFF ....|--- .... ....
 E-4|..|E-2 2AFF ....|E-2 2A.F ....|--- .... ....
....|..|--- .... ....|R-- .... ....|--- .... ....
....|..|R-- .... ....|E-6 3FF7 ....|--- .... ....
....|..|--- .... ....|R-- .... ....|--- .... ....
....|..|E-2 2FF7 ....|E-2 2F.7 ....|--- .... ....
....|..|--- .... ....|E-6 3FFF ....|--- .... ....
....|..|E-2 2FFA ....|E-2 2F.A ....|R-- .... ....
....|..|--- .... ....|R-- .... ....|--- .... ....

[Pattern25]
 G-4|..|G-2 2AFF ....|E-6 3FFF ....|A-3 UF2F ....
....|..|--- .... ....|--- .... ....|--- .... ....
....|..|R-- .... ....|R-- .... ....|--- .... ....
....|..|--- .... ....|E-6 3FF7 ....|--- .... ....
....|..|E-2 2FF7 ....|E-2 2F.7 ....|R-- .... ....
....|..|--- .... ....|R-- .... ....|--- .... ....
....|..|G-2 2FFA ....|E-6 3FFA ....|A-3 UF2A ....
....|..|--- .... ....|--- .... ....|--- .... ....
 G-4|..|G-2 2AFF ....|D-6 3FFF ....|--- .... ....
....|..|--- .... ....|E-6 3FF7 ....|--- .... ....
....|..|R-- .... ....|R-- .... ....|R-- .... ....
....|..|--- .... ....|R-- .... ....|--- .... ....
....|..|G-2 2FF7 ....|E-6 3FF7 ....|A-3 UF27 ....
....|..|--- .... ....|--- .... ....|--- .... ....
....|..|G-2 2FFA ....|C-6 3FFF ....|--- .... ....
....|..|--- .... ....|--- .... ....|--- .... ....
 G-4|..|G-2 2AFF ....|E-5 3FFF ....|D-4 UF5F ....
....|..|--- .... ....|R-- .... ....|--- .... ....
....|..|R-- .... ....|R-- .... ....|--- .... ....
....|..|--- .... ....|--- .... ....|--- .... ....
....|..|G-2 2FF7 ....|D-6 3FF7 ....|--- .... ....
....|..|--- .... ....|--- .... ....|--- .... ....
....|..|G-2 2FFA ....|E-5 3FFA ....|D-4 UF5A ....
....|..|--- .... ....|--- .... ....|--- .... ....
 G-4|..|G-2 2AFF ....|B-5 3FFF ....|--- .... ....
....|..|--- .... ....|B-5 3FFF ....|--- .... ....
....|..|R-- .... ....|C-6 3FF7 ....|--- .... ....
....|..|--- .... ....|--- .... ....|--- .... ....
....|..|G-2 2FF7 ....|E-5 3FF7 ....|D-4 UF57 ....
....|..|--- .... ....|--- .... ....|--- .... ....
....|..|G-2 2FFA ....|A-5 3FFF ....|--- .... ....
....|..|--- .... ....|B-5 3FFA ....|--- .... ....
 C-4|..|C-2 2AFF ....|D-5 3FFF ....|E-4 UF6F ....
....|..|--- .... ....|--- .... ....|--- .... ....
....|..|R-- .... ....|R-- .... ....|--- .... ....
....|..|--- .... ....|--- .... ....|--- .... ....
....|..|G-2 2FF7 ....|B-5 3FF7 ....|--- .... ....
....|..|--- .... ....|B-5 3FF7 ....|--- .... ....
....|..|C-2 2FFA ....|D-5 3FFA ....|E-4 UF6A ....
....|..|--- .... ....|--- .... ....|--- .... ....
 C-4|..|C-2 2AFF ....|G-5 3FFF ....|--- .... ....
....|..|--- .... ....|G-5 3FFF ....|--- .... ....
....|..|R-- .... ....|A-5 3FF7 ....|--- .... ....
....|..|--- .... ....|--- .... ....|--- .... ....
....|..|C-2 2FF7 ....|D-5 3FF7 ....|E-4 UF67 ....
....|..|--- .... ....|G-5 3FFF ....|--- .... ....
....|..|C-2 2FFA ....|G-5 3FFA ....|--- .... ....
....|..|--- .... ....|G-5 3FFA ....|--- .... ....
 C-4|..|C-2 2AFF ....|C-5 3FFF ....|G-4 UF1F ....
....|..|--- .... ....|--- .... ....|--- .... ....
....|..|R-- .... ....|R-- .... ....|--- .... ....
....|..|--- .... ....|G-5 3FFA ....|--- .... ....
....|..|C-2 2FF7 ....|G-5 3FF7 ....|--- .... ....
....|..|--- .... ....|G-5 3FF7 ....|--- .... ....
....|..|C-2 2FFA ....|C-5 3FFA ....|G-4 UF1A ....
....|..|--- .... ....|--- .... ....|--- .... ....
 C-4|..|C-2 2AFF ....|F-6 3FFF ....|--- .... ....
....|..|--- .... ....|F-6 3FFF ....|--- .... ....
....|..|R-- .... ....|G-6 3FFF ....|--- .... ....
....|..|--- .... ....|R-- .... ....|--- .... ....
....|..|C-2 2FF7 ....|A-6 3FFF ....|G-4 UF17 ....
....|..|--- .... ....|--- .... ....|--- .... ....
....|..|C-2 2FFA ....|F-6 3FFA ....|--- .... ....
....|..|--- .... ....|G-6 3FFF ....|--- .... ....

[Pattern26]
 C-4|..|C-2 2AFF ....|C-2 2A.F ....|C-4 UF1F ....
....|..|--- .... ....|--- .... ....|--- .... ....
....|..|R-- .... ....|A-6 3FFA ....|--- .... ....
....|..|--- .... ....|--- .... ....|--- .... ....
 C-3|..|C-3 2CFF ....|C-3 2C.F ....|--- .... ....
....|..|--- .... ....|F-6 3FF7 ....|--- .... ....
....|..|C-2 2FFA ....|C-2 2F.A ....|C-4 UF1A ....
....|..|--- .... ....|--- .... ....|--- .... ....
 C-4|..|C-2 2AFF ....|C-2 2A.F ....|--- .... ....
....|..|--- .... ....|--- .... ....|--- .... ....
....|..|C-3 2FFA ....|C-3 2F.A ....|--- .... ....
....|..|--- .... ....|G-6 3FF7 ....|--- .... ....
 C-3|..|C-3 2CFF ....|C-3 2C.F ....|C-4 UF17 ....
....|..|--- .... ....|--- .... ....|--- .... ....
....|..|C-2 2FFA ....|C-2 2F.A ....|--- .... ....
....|..|--- .... ....|--- .... ....|--- .... ....
 C-3|..|C-3 2CFF ....|C-3 2C.F ....|--- .... ....
 C-4|..|C-2 2AFF ....|C-2 2A.F ....|--- .... ....
....|..|C-3 2FFA ....|C-3 2F.A ....|--- .... ....
....|..|--- .... ....|--- .... ....|--- .... ....
 C-3|..|C-3 2CFF ....|C-3 2C.F ....|--- .... ....
....|..|--- .... ....|--- .... ....|--- .... ....
....|..|C-3 2FFA ....|C-3 2F.A ....|--- .... ....
....|..|C-2 2FFA ....|C-2 2F.A ....|--- .... ....
 C-4|..|C-2 2AFF ....|C-2 2A.F ....|--- .... ....
....|..|--- .... ....|R-- .... ....|--- .... ....
....|..|C-3 2FFA ....|C-3 2F.A ....|--- .... ....
....|..|--- .... ....|--- .... ....|--- .... ....
 C-3|..|C-3 2CFF ....|C-3 2C.F ....|--- .... ....
 C-3|..|C-3 2CFF ....|E-6 3FFF ....|--- .... ....
....|..|C-2 2FFA ....|C-2 2F.A ....|R-- .... ....
....|..|--- .... ....|R-- .... ....|--- .... ....
 G-3|..|G-1 2AFF ....|F-6 3FFF ....|G-3 UF1F ....
....|..|--- .... ....|--- .... ....|--- .... ....
....|..|C-3 2FFA ....|F-6 3FFF ....|--- .... ....
....|..|C-3 2FFA ....|E-6 3FFA ....|--- .... ....
 G-4|..|G-2 2AFF ....|G-6 3FFF ....|R-- .... ....
 G-4|..|G-2 2AFF ....|G-2 2A.F ....|--- .... ....
....|..|G-1 2FFA ....|F-6 3FFA ....|G-3 UF1A ....
....|..|--- .... ....|--- .... ....|--- .... ....
 G-3|..|G-1 2AFF ....|G-1 2A.F ....|--- .... ....
....|..|C-3 2FF7 ....|F-6 3FFF ....|--- .... ....
....|..|G-2 2FFA ....|G-6 3FFA ....|R-- .... ....
....|..|G-2 2FFA ....|G-2 2F.A ....|--- .... ....
 G-4|..|G-2 2AFF ....|G-2 2A.F ....|G-3 UF17 ....
 G-4|..|G-2 2AFF ....|G-2 2A.F ....|--- .... ....
....|..|G-1 2FFA ....|G-1 2F.A ....|--- .... ....
....|..|--- .... ....|F-6 3FFA ....|--- .... ....
 G-4|..|G-2 2AFF ....|F-6 3FFF ....|--- .... ....
 G-3|..|G-1 2AFF ....|G-1 2A.F ....|--- .... ....
....|..|G-2 2FFA ....|G-2 2F.A ....|--- .... ....
....|..|G-2 2FFA ....|G-2 2F.A ....|--- .... ....
 G-4|..|G-2 2AFF ....|G-2 2A.F ....|--- .... ....
 G-4|..|G-2 2AFF ....|G-2 2A.F ....|--- .... ....
....|..|G-2 2FFA ....|F-6 3FFA ....|--- .... ....
....|..|G-1 2FFA ....|G-1 2F.A ....|--- .... ....
 G-3|..|G-1 2AFF ....|E-6 3FFF ....|--- .... ....
....|..|G-2 2FF7 ....|G-2 2F.7 ....|--- .... ....
....|..|G-2 2FFA ....|G-2 2F.A ....|--- .... ....
....|..|G-2 2FFA ....|G-2 2F.A ....|--- .... ....
 G-4|..|G-2 2AFF ....|G-2 2A.F ....|--- .... ....
 G-4|..|G-2 2AFF ....|G-2 2A.F ....|--- .... ....
....|..|G-1 2FFA ....|E-6 3FFA ....|R-- .... ....
....|..|--- .... ....|--- .... ....|--- .... ....

[Pattern27]
 F-3|..|F-1 2AFF ....|D-6 3FFF ....|A-3 UF2F ....
....|..|G-2 2FF7 ....|G-2 2F.7 ....|--- .... ....
....|..|G-2 2FFA ....|G-2 2F.A ....|--- .... ....
....|..|G-2 2FFA ....|C-6 3FFF ....|--- .... ....
 F-4|..|F-2 2AFF ....|F-2 2A.F ....|R-- .... ....
 F-4|..|F-2 2AFF ....|D-6 3FFF ....|--- .... ....
....|..|F-1 2FFA ....|D-6 3FFA ....|A-3 UF2A ....
....|..|--- .... ....|R-- .... ....|--- .... ....
 F-4|..|F-2 2AFF ....|E-6 3FFF ....|--- .... ....
 F-3|..|F-1 2AFF ....|F-1 2A.F ....|--- .... ....
....|..|F-2 2FFA ....|F-2 2F.A ....|R-- .... ....
....|..|F-2 2FFA ....|D-6 3FFA ....|--- .... ....
 F-4|..|F-2 2AFF ....|F-2 2A.F ....|A-3 UF27 ....
 F-4|..|F-2 2AFF ....|F-2 2A.F ....|--- .... ....
....|..|F-2 2FFA ....|E-6 3FFA ....|--- .... ....
....|..|F-1 2FFA ....|F-1 2F.A ....|--- .... ....
 F-4|..|F-2 2AFF ....|F-2 2A.F ....|--- .... ....
 F-3|..|F-1 2AFF ....|F-1 2A.F ....|--- .... ....
....|..|F-2 2FFA ....|F-2 2F.A ....|--- .... ....
....|..|F-2 2FFA ....|F-2 2F.A ....|--- .... ....
 F-4|..|F-2 2AFF ....|F-2 2A.F ....|--- .... ....
....|..|F-1 2FF7 ....|F-1 2F.7 ....|--- .... ....
....|..|F-2 2FFA ....|F-2 2F.A ....|--- .... ....
....|..|F-1 2FFA ....|F-1 2F.A ....|--- .... ....
 F-4|..|F-2 2AFF ....|F-2 2A.F ....|--- .... ....
 F-3|..|F-1 2AFF ....|F-1 2A.F ....|--- .... ....
....|..|F-2 2FFA ....|F-2 2F.A ....|--- .... ....
....|..|--- .... ....|C-6 3FFF ....|--- .... ....
 F-4|..|F-2 2AFF ....|F-2 2A.F ....|A-3 UF.F ....
 F-4|..|F-2 2AFF ....|D-6 3FFF ....|R-- .... ....
....|..|F-2 2FFA ....|F-2 2F.A ....|--- .... ....
....|..|F-1 2FFA ....|F-1 2F.A ....|--- .... ....
 E-3|..|E-1 2AFF ....|B-5 3FFF ....|G-3 UF3F ....
....|..|--- .... ....|C-6 3FFA ....|--- .... ....
....|..|F-2 2FFA ....|F-2 2F.A ....|A-3 UF.A ....
....|..|F-2 2FFA ....|D-6 3FFA ....|R-- .... ....
 E-4|..|E-2 2AFF ....|E-2 2A.F ....|--- .... ....
 E-4|..|E-2 2AFF ....|E-2 2A.F ....|--- .... ....
....|..|E-1 2FFA ....|B-5 3FFA ....|G-3 UF3A ....
....|..|--- .... ....|C-6 3FF7 ....|--- .... ....
 E-3|..|E-1 2AFF ....|E-1 2A.F ....|A-3 UF.7 ....
....|..|F-2 2FF7 ....|D-6 3FF7 ....|R-- .... ....
....|..|E-2 2FFA ....|E-2 2F.A ....|--- .... ....
....|..|E-2 2FFA ....|E-2 2F.A ....|--- .... ....
 E-4|..|E-2 2AFF ....|E-2 2A.F ....|G-3 UF37 ....
....|..|--- .... ....|--- .... ....|--- .... ....
....|..|E-1 2FFA ....|E-1 2F.A ....|--- .... ....
....|..|--- .... ....|--- .... ....|--- .... ....
 E-4|..|E-2 2AFF ....|A-5 3FFF ....|F-3 UF3F ....
 E-3|..|E-1 2AFF ....|E-1 2A.F ....|--- .... ....
....|..|E-2 2FFA ....|E-2 2F.A ....|--- .... ....
....|..|--- .... ....|--- .... ....|--- .... ....
 E-4|..|E-2 2AFF ....|E-2 2A.F ....|--- .... ....
 E-4|..|E-2 2AFF ....|E-2 2A.F ....|--- .... ....
....|..|E-2 2FFA ....|A-5 3FFA ....|F-3 UF3A ....
....|..|E-1 2FFA ....|E-1 2F.A ....|--- .... ....
 E-3|..|E-1 2AFF ....|B-5 3FFF ....|--- .... ....
....|..|--- .... ....|--- .... ....|--- .... ....
....|..|E-2 2FFA ....|E-2 2F.A ....|--- .... ....
....|..|E-2 2FFA ....|E-2 2F.A ....|--- .... ....
 E-4|..|E-2 2AFF ....|E-2 2A.F ....|F-3 UF37 ....
....|..|E-1 2FF7 ....|E-1 2F.7 ....|--- .... ....
....|..|E-1 2FFA ....|B-5 3FFA ....|--- .... ....
....|..|--- .... ....|--- .... ....|--- .... ....

[Pattern28]
 C-4|..|C-2 2AFF ....|G-5 3FFF ....|C-4 UF1F ....
....|..|E-2 2FF7 ....|E-2 2F.7 ....|--- .... ....
....|..|E-2 2FFA ....|A-5 3FFF ....|--- .... ....
....|..|--- .... ....|R-- .... ....|--- .... ....
 C-3|..|C-3 2CFF ....|B-5 3FFF ....|--- .... ....
....|..|--- .... ....|--- .... ....|--- .... ....
....|..|C-2 2FFA ....|G-5 3FFA ....|C-4 UF1A ....
....|..|--- .... ....|G-5 3FFF ....|--- .... ....
 C-4|..|C-2 2AFF ....|C-2 2A.F ....|--- .... ....
....|..|--- .... ....|R-- .... ....|--- .... ....
....|..|C-3 2FFA ....|B-5 3FFA ....|--- .... ....
....|..|--- .... ....|--- .... ....|--- .... ....
 C-3|..|C-3 2CFF ....|C-3 2C.F ....|C-4 UF17 ....
....|..|--- .... ....|G-5 3FFA ....|--- .... ....
....|..|C-2 2FFA ....|C-2 2F.A ....|--- .... ....
....|..|--- .... ....|--- .... ....|--- .... ....
 C-3|..|C-3 2CFF ....|C-3 2C.F ....|--- .... ....
 C-4|..|C-2 2AFF ....|C-2 2A.F ....|--- .... ....
....|..|C-3 2FFA ....|C-3 2F.A ....|--- .... ....
....|..|--- .... ....|G-5 3FF7 ....|--- .... ....
 C-3|..|C-3 2CFF ....|C-3 2C.F ....|--- .... ....
....|..|--- .... ....|--- .... ....|--- .... ....
....|..|C-3 2FFA ....|C-3 2F.A ....|--- .... ....
....|..|C-2 2FFA ....|C-2 2F.A ....|--- .... ....
 C-4|..|C-2 2AFF ....|C-2 2A.F ....|--- .... ....
....|..|--- .... ....|R-- .... ....|--- .... ....
....|..|C-3 2FFA ....|C-3 2F.A ....|--- .... ....
....|..|--- .... ....|--- .... ....|--- .... ....
 C-3|..|C-3 2CFF ....|E-5 3FFF ....|--- .... ....
 C-3|..|C-3 2CFF ....|C-3 2C.F ....|--- .... ....
....|..|C-2 2FFA ....|F-5 3FFF ....|R-- .... ....
....|..|--- .... ....|G-5 3FFF ....|--- .... ....
 G-3|..|G-1 2AFF ....|G-5 3FFF ....|G-3 UF1F ....
....|..|--- .... ....|--- .... ....|--- .... ....
....|..|C-3 2FFA ....|E-5 3FFA ....|--- .... ....
....|..|C-3 2FFA ....|C-3 2F.A ....|--- .... ....
 G-4|..|G-2 2AFF ....|G-2 2A.F ....|R-- .... ....
 G-4|..|G-2 2AFF ....|G-2 2A.F ....|--- .... ....
....|..|G-1 2FFA ....|G-5 3FFA ....|G-3 UF1A ....
....|..|--- .... ....|--- .... ....|--- .... ....
 G-3|..|G-1 2AFF ....|G-1 2A.F ....|--- .... ....
....|..|C-3 2FF7 ....|C-3 2F.7 ....|--- .... ....
....|..|G-2 2FFA ....|G-2 2F.A ....|R-- .... ....
....|..|G-2 2FFA ....|G-2 2F.A ....|--- .... ....
 G-4|..|G-2 2AFF ....|G-2 2A.F ....|G-3 UF17 ....
 G-4|..|G-2 2AFF ....|G-2 2A.F ....|--- .... ....
....|..|G-1 2FFA ....|G-1 2F.A ....|--- .... ....
....|..|--- .... ....|C-5 3FFF ....|--- .... ....
 G-4|..|G-2 2AFF ....|G-2 2A.F ....|--- .... ....
 G-3|..|G-1 2AFF ....|G-1 2A.F ....|--- .... ....
....|..|G-2 2FFA ....|G-2 2F.A ....|--- .... ....
....|..|G-2 2FFA ....|G-2 2F.A ....|--- .... ....
 G-4|..|G-2 2AFF ....|G-2 2A.F ....|--- .... ....
 G-4|..|G-2 2AFF ....|G-2 2A.F ....|--- .... ....
....|..|G-2 2FFA ....|G-2 2F.A ....|--- .... ....
....|..|G-1 2FFA ....|F-6 3FFF ....|--- .... ....
 G-3|..|G-1 2AFF ....|F-6 3FFF ....|--- .... ....
....|..|G-2 2FF7 ....|G-2 2F.7 ....|--- .... ....
....|..|G-2 2FFA ....|G-2 2F.A ....|--- .... ....
....|..|G-2 2FFA ....|G-2 2F.A ....|--- .... ....
 G-4|..|G-2 2AFF ....|G-2 2A.F ....|--- .... ....
 G-4|..|G-2 2AFF ....|G-2 2A.F ....|--- .... ....
....|..|G-1 2FFA ....|F-6 3FFA ....|R-- .... ....
....|..|--- .... ....|--- .... ....|--- .... ....

[Pattern29]
 F-3|..|F-1 2AFF ....|G-6 3FFF ....|A-3 UF2F ....
....|..|G-2 2FF7 ....|G-2 2F.7 ....|--- .... ....
....|..|G-2 2FFA ....|G-2 2F.A ....|--- .... ....
....|..|G-2 2FFA ....|G-2 2F.A ....|--- .... ....
 F-4|..|F-2 2AFF ....|F-6 3FFF ....|R-- .... ....
 F-4|..|F-2 2AFF ....|F-2 2A.F ....|--- .... ....
....|..|F-1 2FFA ....|G-6 3FFA ....|A-3 UF2A ....
....|..|--- .... ....|--- .... ....|--- .... ....
 F-4|..|F-2 2AFF ....|F-2 2A.F ....|--- .... ....
 F-3|..|F-1 2AFF ....|F-1 2A.F ....|--- .... ....
....|..|F-2 2FFA ....|F-6 3FFA ....|R-- .... ....
....|..|F-2 2FFA ....|F-2 2F.A ....|--- .... ....
 F-4|..|F-2 2AFF ....|F-6 3FFF ....|A-3 UF27 ....
 F-4|..|F-2 2AFF ....|F-2 2A.F ....|--- .... ....
....|..|F-2 2FFA ....|F-2 2F.A ....|--- .... ....
....|..|F-1 2FFA ....|F-1 2F.A ....|--- .... ....
 F-4|..|F-2 2AFF ....|G-6 3FFF ....|--- .... ....
 F-3|..|F-1 2AFF ....|F-1 2A.F ....|--- .... ....
....|..|F-2 2FFA ....|F-6 3FFA ....|--- .... ....
....|..|F-2 2FFA ....|F-2 2F.A ....|--- .... ....
 F-4|..|F-2 2AFF ....|F-6 3FFF ....|--- .... ....
....|..|F-1 2FF7 ....|F-1 2F.7 ....|--- .... ....
....|..|F-2 2FFA ....|G-6 3FFA ....|--- .... ....
....|..|F-1 2FFA ....|F-1 2F.A ....|--- .... ....
 F-4|..|F-2 2AFF ....|F-2 2A.F ....|--- .... ....
 F-3|..|F-1 2AFF ....|F-1 2A.F ....|--- .... ....
....|..|F-2 2FFA ....|F-6 3FFA ....|--- .... ....
....|..|--- .... ....|R-- .... ....|--- .... ....
 F-4|..|F-2 2AFF ....|F-6 3FFF ....|A-3 UF.F ....
 F-4|..|F-2 2AFF ....|F-2 2A.F ....|R-- .... ....
....|..|F-2 2FFA ....|F-2 2F.A ....|--- .... ....
....|..|F-1 2FFA ....|F-1 2F.A ....|--- .... ....
 E-3|..|E-1 2AFF ....|G-6 3FFF ....|G-3 UF3F ....
....|..|--- .... ....|--- .... ....|--- .... ....
....|..|F-2 2FFA ....|F-6 3FFA ....|A-3 UF.A ....
....|..|F-2 2FFA ....|F-2 2F.A ....|R-- .... ....
 E-4|..|E-2 2AFF ....|E-2 2A.F ....|--- .... ....
 E-4|..|E-2 2AFF ....|A-6 3FFF ....|--- .... ....
....|..|E-1 2FFA ....|G-6 3FFA ....|G-3 UF3A ....
....|..|--- .... ....|R-- .... ....|--- .... ....
 E-3|..|E-1 2AFF ....|E-1 2A.F ....|A-3 UF.7 ....
....|..|F-2 2FF7 ....|F-2 2F.7 ....|R-- .... ....
....|..|E-2 2FFA ....|C-7 3FFF ....|--- .... ....
....|..|E-2 2FFA ....|B-6 3FFF ....|--- .... ....
 E-4|..|E-2 2AFF ....|E-2 2A.F ....|G-3 UF37 ....
....|..|--- .... ....|R-- .... ....|--- .... ....
....|..|E-1 2FFA ....|E-1 2F.A ....|--- .... ....
....|..|--- .... ....|--- .... ....|--- .... ....
 E-4|..|E-2 2AFF ....|C-7 3FFF ....|F-3 UF3F ....
 E-3|..|E-1 2AFF ....|E-1 2A.F ....|--- .... ....
....|..|E-2 2FFA ....|E-2 2F.A ....|--- .... ....
....|..|--- .... ....|R-- .... ....|--- .... ....
 E-4|..|E-2 2AFF ....|E-2 2A.F ....|--- .... ....
 E-4|..|E-2 2AFF ....|E-2 2A.F ....|--- .... ....
....|..|E-2 2FFA ....|C-7 3FFF ....|F-3 UF3A ....
....|..|E-1 2FFA ....|E-1 2F.A ....|--- .... ....
 E-3|..|E-1 2AFF ....|E-1 2A.F ....|--- .... ....
....|..|--- .... ....|--- .... ....|--- .... ....
....|..|E-2 2FFA ....|E-2 2F.A ....|--- .... ....
....|..|E-2 2FFA ....|E-2 2F.A ....|--- .... ....
 E-4|..|E-2 2AFF ....|C-7 3FFF ....|F-3 UF37 ....
....|..|E-1 2FF7 ....|E-1 2F.7 ....|--- .... ....
....|..|E-1 2FFA ....|E-1 2F.A ....|--- .... ....
....|..|--- .... ....|--- .... ....|--- .... ....

[Pattern30]
 C-4|..|C-2 2AFF ....|C-2 2A.F ....|C-4 UF1F ....
....|..|E-2 2FF7 ....|C-7 3FFF ....|--- .... ....
....|..|E-2 2FFA ....|E-2 2F.A ....|--- .... ....
....|..|--- .... ....|--- .... ....|--- .... ....
 C-3|..|C-3 2CFF ....|C-3 2C.F ....|--- .... ....
....|..|--- .... ....|--- .... ....|--- .... ....
....|..|C-2 2FFA ....|C-2 2F.A ....|C-4 UF1A ....
....|..|--- .... ....|C-7 3FFA ....|--- .... ....
 C-4|..|C-2 2AFF ....|C-2 2A.F ....|--- .... ....
....|..|--- .... ....|--- .... ....|--- .... ....
....|..|C-3 2FFA ....|C-3 2F.A ....|--- .... ....
....|..|--- .... ....|--- .... ....|--- .... ....
 C-3|..|C-3 2CFF ....|C-3 2C.F ....|C-4 UF17 ....
....|..|--- .... ....|C-7 3FF7 ....|--- .... ....
....|..|C-2 2FFA ....|C-2 2F.A ....|--- .... ....
....|..|--- .... ....|--- .... ....|--- .... ....
 C-3|..|C-3 2CFF ....|C-3 2C.F ....|--- .... ....
 C-4|..|C-2 2AFF ....|C-2 2A.F ....|--- .... ....
....|..|C-3 2FFA ....|C-3 2F.A ....|--- .... ....
....|..|--- .... ....|--- .... ....|--- .... ....
 C-3|..|C-3 2CFF ....|C-3 2C.F ....|--- .... ....
....|..|--- .... ....|--- .... ....|--- .... ....
....|..|C-3 2FFA ....|C-3 2F.A ....|--- .... ....
....|..|C-2 2FFA ....|C-2 2F.A ....|--- .... ....
 C-4|..|C-2 2AFF ....|C-2 2A.F ....|--- .... ....
....|..|--- .... ....|--- .... ....|--- .... ....
....|..|C-3 2FFA ....|C-3 2F.A ....|--- .... ....
....|..|--- .... ....|B-6 3FFF ....|--- .... ....
 C-3|..|C-3 2CFF ....|C-3 2C.F ....|--- .... ....
 C-3|..|C-3 2CFF ....|B-6 3FFF ....|--- .... ....
....|..|C-2 2FFA ....|A-6 3FFF ....|R-- .... ....
....|..|--- .... ....|R-- .... ....|--- .... ....
 G-3|..|G-1 2AFF ....|G-6 3FFF ....|G-3 UF1F ....
....|..|--- .... ....|B-6 3FFA ....|--- .... ....
....|..|C-3 2FFA ....|C-3 2F.A ....|--- .... ....
....|..|C-3 2FFA ....|B-6 3FFA ....|--- .... ....
 G-4|..|G-2 2AFF ....|G-2 2A.F ....|R-- .... ....
 G-4|..|G-2 2AFF ....|G-2 2A.F ....|--- .... ....
....|..|G-1 2FFA ....|G-6 3FFA ....|G-3 UF1A ....
....|..|--- .... ....|B-6 3FF7 ....|--- .... ....
 G-3|..|G-1 2AFF ....|G-6 3FFF ....|--- .... ....
....|..|C-3 2FF7 ....|F-6 3FFF ....|--- .... ....
....|..|G-2 2FFA ....|G-2 2F.A ....|R-- .... ....
....|..|G-2 2FFA ....|G-2 2F.A ....|--- .... ....
 G-4|..|G-2 2AFF ....|G-2 2A.F ....|G-3 UF17 ....
 G-4|..|G-2 2AFF ....|G-2 2A.F ....|--- .... ....
....|..|G-1 2FFA ....|G-6 3FFA ....|--- .... ....
....|..|--- .... ....|F-6 3FFA ....|--- .... ....
 G-4|..|G-2 2AFF ....|G-2 2A.F ....|--- .... ....
 G-3|..|G-1 2AFF ....|G-1 2A.F ....|--- .... ....
....|..|G-2 2FFA ....|G-2 2F.A ....|--- .... ....
....|..|G-2 2FFA ....|G-2 2F.A ....|--- .... ....
 G-4|..|G-2 2AFF ....|G-2 2A.F ....|--- .... ....
 G-4|..|G-2 2AFF ....|G-2 2A.F ....|--- .... ....
....|..|G-2 2FFA ....|G-2 2F.A ....|--- .... ....
....|..|G-1 2FFA ....|G-1 2F.A ....|--- .... ....
 G-3|..|G-1 2AFF ....|G-1 2A.F ....|--- .... ....
....|..|G-2 2FF7 ....|G-2 2F.7 ....|--- .... ....
....|..|G-2 2FFA ....|G-2 2F.A ....|--- .... ....
....|..|G-2 2FFA ....|E-6 3FFF ....|--- .... ....
 G-4|..|G-2 2AFF ....|G-2 2A.F ....|--- .... ....
 G-4|..|G-2 2AFF ....|D-6 3FFF ....|--- .... ....
....|..|G-1 2FFA ....|G-1 2F.A ....|R-- .... ....
....|..|--- .... ....|--- .... ....|--- .... ....

[Pattern31]
 F-3|..|F-1 2AFF ....|C-6 3FFF ....|A-3 UF2F ....
....|..|G-2 2FF7 ....|E-6 3FFA ....|--- .... ....
....|..|G-2 2FFA ....|G-2 2F.A ....|--- .... ....
....|..|G-2 2FFA ....|D-6 3FFA ....|--- .... ....
 F-4|..|F-2 2AFF ....|F-2 2A.F ....|R-- .... ....
 F-4|..|F-2 2AFF ....|F-2 2A.F ....|--- .... ....
....|..|F-1 2FFA ....|C-6 3FFA ....|A-3 UF2A ....
....|..|--- .... ....|E-6 3FF7 ....|--- .... ....
 F-4|..|F-2 2AFF ....|F-2 2A.F ....|--- .... ....
 F-3|..|F-1 2AFF ....|F-1 2A.F ....|--- .... ....
....|..|F-2 2FFA ....|F-2 2F.A ....|R-- .... ....
....|..|F-2 2FFA ....|F-2 2F.A ....|--- .... ....
 F-4|..|F-2 2AFF ....|F-2 2A.F ....|A-3 UF27 ....
 F-4|..|F-2 2AFF ....|F-2 2A.F ....|--- .... ....
....|..|F-2 2FFA ....|F-2 2F.A ....|--- .... ....
....|..|F-1 2FFA ....|F-1 2F.A ....|--- .... ....
 F-4|..|F-2 2AFF ....|F-2 2A.F ....|--- .... ....
 F-3|..|F-1 2AFF ....|F-1 2A.F ....|--- .... ....
....|..|F-2 2FFA ....|F-2 2F.A ....|--- .... ....
....|..|F-2 2FFA ....|F-2 2F.A ....|--- .... ....
 F-4|..|F-2 2AFF ....|F-2 2A.F ....|--- .... ....
....|..|F-1 2FF7 ....|F-1 2F.7 ....|--- .... ....
....|..|F-2 2FFA ....|F-2 2F.A ....|--- .... ....
....|..|F-1 2FFA ....|F-1 2F.A ....|--- .... ....
 F-4|..|F-2 2AFF ....|F-2 2A.F ....|--- .... ....
 F-3|..|F-1 2AFF ....|F-1 2A.F ....|--- .... ....
....|..|F-2 2FFA ....|F-2 2F.A ....|--- .... ....
....|..|--- .... ....|R-- .... ....|--- .... ....
 F-4|..|F-2 2AFF ....|F-2 2A.F ....|A-3 UF.F ....
 F-4|..|F-2 2AFF ....|F-2 2A.F ....|R-- .... ....
....|..|F-2 2FFA ....|F-2 2F.A ....|--- .... ....
....|..|F-1 2FFA ....|F-1 2F.A ....|--- .... ....
 E-3|..|E-1 2AFF ....|C-6 3FFF ....|G-3 UF3F ....
....|..|--- .... ....|R-- .... ....|--- .... ....
....|..|F-2 2FFA ....|F-2 2F.A ....|A-3 UF.A ....
....|..|F-2 2FFA ....|F-2 2F.A ....|R-- .... ....
 E-4|..|E-2 2AFF ....|E-2 2A.F ....|--- .... ....
 E-4|..|E-2 2AFF ....|E-2 2A.F ....|--- .... ....
....|..|E-1 2FFA ....|C-6 3FFA ....|G-3 UF3A ....
....|..|--- .... ....|R-- .... ....|--- .... ....
 E-3|..|E-1 2AFF ....|E-1 2A.F ....|A-3 UF.7 ....
....|..|F-2 2FF7 ....|F-2 2F.7 ....|R-- .... ....
....|..|E-2 2FFA ....|E-2 2F.A ....|--- .... ....
....|..|E-2 2FFA ....|E-2 2F.A ....|--- .... ....
 E-4|..|E-2 2AFF ....|E-2 2A.F ....|G-3 UF37 ....
....|..|--- .... ....|R-- .... ....|--- .... ....
....|..|E-1 2FFA ....|E-1 2F.A ....|--- .... ....
....|..|--- .... ....|--- .... ....|--- .... ....
 E-4|..|E-2 2AFF ....|B-5 3FFF ....|F-3 UF3F ....
 E-3|..|E-1 2AFF ....|E-1 2A.F ....|--- .... ....
....|..|E-2 2FFA ....|E-2 2F.A ....|--- .... ....
....|..|--- .... ....|R-- .... ....|--- .... ....
 E-4|..|E-2 2AFF ....|E-2 2A.F ....|--- .... ....
 E-4|..|E-2 2AFF ....|E-2 2A.F ....|--- .... ....
....|..|E-2 2FFA ....|B-5 3FFA ....|F-3 UF3A ....
....|..|E-1 2FFA ....|E-1 2F.A ....|--- .... ....
 E-3|..|E-1 2AFF ....|A-5 3FFF ....|--- .... ....
....|..|--- .... ....|R-- .... ....|--- .... ....
....|..|E-2 2FFA ....|E-2 2F.A ....|--- .... ....
....|..|E-2 2FFA ....|E-2 2F.A ....|--- .... ....
 E-4|..|E-2 2AFF ....|E-2 2A.F ....|F-3 UF37 ....
....|..|E-1 2FF7 ....|E-1 2F.7 ....|--- .... ....
....|..|E-1 2FFA ....|A-5 3FFA ....|--- .... ....
....|..|--- .... ....|--- .... ....|--- .... ....

[Pattern32]
 C-4|..|C-2 2AFF ....|G-5 3FFF ....|C-4 UF1F ....
....|..|E-2 2FF7 ....|E-2 2F.7 ....|--- .... ....
....|..|E-2 2FFA ....|E-2 2F.A ....|--- .... ....
....|..|--- .... ....|--- .... ....|--- .... ....
 C-3|..|C-3 2CFF ....|A-5 3FFF ....|--- .... ....
....|..|--- .... ....|A-5 3FFF ....|--- .... ....
....|..|C-2 2FFA ....|G-5 3FFA ....|C-4 UF1A ....
....|..|--- .... ....|R-- .... ....|--- .... ....
 C-4|..|C-2 2AFF ....|B-5 3FFF ....|--- .... ....
....|..|--- .... ....|--- .... ....|--- .... ....
....|..|C-3 2FFA ....|A-5 3FFA ....|--- .... ....
....|..|--- .... ....|A-5 3FFA ....|--- .... ....
 C-3|..|C-3 2CFF ....|C-3 2C.F ....|C-4 UF17 ....
....|..|--- .... ....|R-- .... ....|--- .... ....
....|..|C-2 2FFA ....|B-5 3FFA ....|--- .... ....
....|..|--- .... ....|--- .... ....|--- .... ....
 C-3|..|C-3 2CFF ....|C-3 2C.F ....|--- .... ....
 C-4|..|C-2 2AFF ....|C-2 2A.F ....|--- .... ....
....|..|C-3 2FFA ....|C-3 2F.A ....|--- .... ....
....|..|--- .... ....|R-- .... ....|--- .... ....
 C-3|..|C-3 2CFF ....|C-3 2C.F ....|--- .... ....
....|..|--- .... ....|--- .... ....|--- .... ....
....|..|C-3 2FFA ....|C-3 2F.A ....|--- .... ....
....|..|C-2 2FFA ....|C-2 2F.A ....|--- .... ....
 C-4|..|C-2 2AFF ....|C-2 2A.F ....|--- .... ....
....|..|--- .... ....|--- .... ....|--- .... ....
....|..|C-3 2FFA ....|C-3 2F.A ....|--- .... ....
....|..|--- .... ....|R-- .... ....|--- .... ....
 C-3|..|C-3 2CFF ....|C-3 2C.F ....|--- .... ....
 C-3|..|C-3 2CFF ....|C-3 2C.F ....|--- .... ....
....|..|C-2 2FFA ....|C-2 2F.A ....|R-- .... ....
....|..|--- .... ....|--- .... ....|--- .... ....
 G-3|..|G-1 2AFF ....|F-5 3FFF ....|G-3 UF1F ....
....|..|--- .... ....|R-- .... ....|--- .... ....
....|..|C-3 2FFA ....|C-3 2F.A ....|--- .... ....
....|..|C-3 2FFA ....|G-5 3FFF ....|--- .... ....
 G-4|..|G-2 2AFF ....|G-5 3FFF ....|R-- .... ....
 G-4|..|G-2 2AFF ....|G-2 2A.F ....|--- .... ....
....|..|G-1 2FFA ....|F-5 3FFA ....|G-3 UF1A ....
....|..|--- .... ....|A-5 3FFF ....|--- .... ....
 G-3|..|G-1 2AFF ....|G-1 2A.F ....|--- .... ....
....|..|C-3 2FF7 ....|G-5 3FFA ....|--- .... ....
....|..|G-2 2FFA ....|G-5 3FFA ....|R-- .... ....
....|..|G-2 2FFA ....|G-2 2F.A ....|--- .... ....
 G-4|..|G-2 2AFF ....|G-2 2A.F ....|G-3 UF17 ....
 G-4|..|G-2 2AFF ....|G-2 2A.F ....|--- .... ....
....|..|G-1 2FFA ....|G-1 2F.A ....|--- .... ....
....|..|--- .... ....|G-5 3FF7 ....|--- .... ....
 G-4|..|G-2 2AFF ....|G-2 2A.F ....|--- .... ....
 G-3|..|G-1 2AFF ....|G-1 2A.F ....|--- .... ....
....|..|G-2 2FFA ....|G-2 2F.A ....|--- .... ....
....|..|G-2 2FFA ....|G-2 2F.A ....|--- .... ....
 G-4|..|G-2 2AFF ....|G-2 2A.F ....|--- .... ....
 G-4|..|G-2 2AFF ....|G-2 2A.F ....|--- .... ....
....|..|G-2 2FFA ....|G-2 2F.A ....|--- .... ....
....|..|G-1 2FFA ....|G-1 2F.A ....|--- .... ....
 G-3|..|G-1 2AFF ....|G-1 2A.F ....|--- .... ....
....|..|G-2 2FF7 ....|G-2 2F.7 ....|--- .... ....
....|..|G-2 2FFA ....|G-2 2F.A ....|--- .... ....
....|..|G-2 2FFA ....|G-2 2F.A ....|--- .... ....
 G-4|..|G-2 2AFF ....|G-2 2A.F ....|--- .... ....
 G-4|..|G-2 2AFF ....|G-2 2A.F ....|--- .... ....
....|..|G-1 2FFA ....|G-1 2F.A ....|R-- .... ....
....|..|--- .... ....|E-5 3FFF ....|--- .... ....

[Pattern33]
 F-3|..|F-1 2AFF ....|F-1 2A.F ....|A-3 UF2F ....
....|..|G-2 2FF7 ....|G-2 2F.7 ....|--- .... ....
....|..|G-2 2FFA ....|G-2 2F.A ....|--- .... ....
....|..|G-2 2FFA ....|F-5 3FFF ....|--- .... ....
 F-4|..|F-2 2AFF ....|F-2 2A.F ....|R-- .... ....
 F-4|..|F-2 2AFF ....|F-2 2A.F ....|--- .... ....
....|..|F-1 2FFA ....|F-1 2F.A ....|A-3 UF2A ....
....|..|--- .... ....|R-- .... ....|--- .... ....
 F-4|..|F-2 2AFF ....|G-5 3FFF ....|--- .... ....
 F-3|..|F-1 2AFF ....|F-1 2A.F ....|--- .... ....
....|..|F-2 2FFA ....|F-2 2F.A ....|R-- .... ....
....|..|F-2 2FFA ....|F-2 2F.A ....|--- .... ....
 F-4|..|F-2 2AFF ....|F-2 2A.F ....|A-3 UF27 ....
 F-4|..|F-2 2AFF ....|F-2 2A.F ....|--- .... ....
....|..|F-2 2FFA ....|G-5 3FFA ....|--- .... ....
....|..|F-1 2FFA ....|F-1 2F.A ....|--- .... ....
 F-4|..|F-2 2AFF ....|F-2 2A.F ....|--- .... ....
 F-3|..|F-1 2AFF ....|F-1 2A.F ....|--- .... ....
....|..|F-2 2FFA ....|F-2 2F.A ....|--- .... ....
....|..|F-2 2FFA ....|F-2 2F.A ....|--- .... ....
 F-4|..|F-2 2AFF ....|F-2 2A.F ....|--- .... ....
....|..|F-1 2FF7 ....|F-1 2F.7 ....|--- .... ....
....|..|F-2 2FFA ....|F-2 2F.A ....|--- .... ....
....|..|F-1 2FFA ....|F-1 2F.A ....|--- .... ....
 F-4|..|F-2 2AFF ....|F-2 2A.F ....|--- .... ....
 F-3|..|F-1 2AFF ....|F-1 2A.F ....|--- .... ....
....|..|F-2 2FFA ....|F-2 2F.A ....|--- .... ....
....|..|--- .... ....|--- .... ....|--- .... ....
 F-4|..|F-2 2AFF ....|D-5 3FFF ....|A-3 UF.F ....
 F-4|..|F-2 2AFF ....|E-5 3FFF ....|R-- .... ....
....|..|F-2 2FFA ....|E-5 3FFF ....|--- .... ....
....|..|F-1 2FFA ....|F-5 3FFF ....|--- .... ....
 E-3|..|E-1 2AFF ....|E-1 2A.F ....|G-3 UF3F ....
....|..|--- .... ....|--- .... ....|--- .... ....
....|..|F-2 2FFA ....|D-5 3FFA ....|A-3 UF.A ....
....|..|F-2 2FFA ....|E-5 3FFA ....|R-- .... ....
 E-4|..|E-2 2AFF ....|E-2 2A.F ....|--- .... ....
 E-4|..|E-2 2AFF ....|E-2 2A.F ....|--- .... ....
....|..|E-1 2FFA ....|E-1 2F.A ....|G-3 UF3A ....
....|..|--- .... ....|--- .... ....|--- .... ....
 E-3|..|E-1 2AFF ....|E-5 3FFF ....|A-3 UF.7 ....
....|..|F-2 2FF7 ....|E-5 3FF7 ....|R-- .... ....
....|..|E-2 2FFA ....|E-2 2F.A ....|--- .... ....
....|..|E-2 2FFA ....|E-2 2F.A ....|--- .... ....
 E-4|..|E-2 2AFF ....|E-2 2A.F ....|G-3 UF37 ....
....|..|--- .... ....|R-- .... ....|--- .... ....
....|..|E-1 2FFA ....|E-5 3FFA ....|--- .... ....
....|..|--- .... ....|--- .... ....|--- .... ....
 E-4|..|E-2 2AFF ....|D-5 3FFF ....|F-3 UF3F ....
 E-3|..|E-1 2AFF ....|E-1 2A.F ....|--- .... ....
....|..|E-2 2FFA ....|E-2 2F.A ....|--- .... ....
....|..|--- .... ....|R-- .... ....|--- .... ....
 E-4|..|E-2 2AFF ....|E-2 2A.F ....|--- .... ....
 E-4|..|E-2 2AFF ....|E-2 2A.F ....|--- .... ....
....|..|E-2 2FFA ....|D-5 3FFA ....|F-3 UF3A ....
....|..|E-1 2FFA ....|E-1 2F.A ....|--- .... ....
 E-3|..|E-1 2AFF ....|C-5 3FFF ....|--- .... ....
....|..|--- .... ....|R-- .... ....|--- .... ....
....|..|E-2 2FFA ....|E-2 2F.A ....|--- .... ....
....|..|E-2 2FFA ....|E-2 2F.A ....|--- .... ....
 E-4|..|E-2 2AFF ....|E-2 2A.F ....|F-3 UF37 ....
....|..|E-1 2FF7 ....|E-1 2F.7 ....|--- .... ....
....|..|E-1 2FFA ....|C-5 3FFA ....|--- .... ....
....|..|--- .... ....|--- .... ....|--- .... ....

[Pattern34]
 G-3|..|G-1 2AFF ....|C-5 3FFF ....|C-4 UF1F ....
....|..|E-2 2FF7 ....|E-2 2F.7 ....|--- .... ....
....|..|E-2 2FFA ....|E-2 2F.A ....|--- .... ....
....|..|--- .... ....|--- .... ....|--- .... ....
....|..|E-1 2FF7 ....|C-5 3FF7 ....|--- .... ....
....|..|--- .... ....|--- .... ....|--- .... ....
....|..|G-1 2FFA ....|C-5 3FFA ....|C-4 UF1A ....
....|..|--- .... ....|R-- .... ....|--- .... ....
 G-3|..|G-1 2AFF ....|G-1 2A.F ....|--- .... ....
....|..|--- .... ....|--- .... ....|--- .... ....
....|..|R-- .... ....|R-- .... ....|--- .... ....
....|..|--- .... ....|R-- .... ....|--- .... ....
....|..|G-1 2FF7 ....|C-5 3FF7 ....|C-4 UF17 ....
....|..|--- .... ....|--- .... ....|--- .... ....
....|..|G-1 2FFA ....|G-1 2F.A ....|--- .... ....
....|..|--- .... ....|--- .... ....|--- .... ....
 G-3|..|G-1 2AFF ....|G-1 2A.F ....|B-3 UF4F ....
....|..|--- .... ....|R-- .... ....|--- .... ....
....|..|R-- .... ....|R-- .... ....|--- .... ....
....|..|--- .... ....|--- .... ....|--- .... ....
....|..|G-1 2FF7 ....|G-1 2F.7 ....|--- .... ....
....|..|--- .... ....|--- .... ....|--- .... ....
....|..|G-1 2FFA ....|G-1 2F.A ....|B-3 UF4A ....
....|..|--- .... ....|R-- .... ....|--- .... ....
 G-3|..|G-1 2AFF ....|G-1 2A.F ....|--- .... ....
....|..|--- .... ....|--- .... ....|--- .... ....
....|..|R-- .... ....|R-- .... ....|--- .... ....
....|..|--- .... ....|--- .... ....|--- .... ....
....|..|G-1 2FF7 ....|G-1 2F.7 ....|B-3 UF47 ....
....|..|--- .... ....|--- .... ....|--- .... ....
....|..|G-1 2FFA ....|G-1 2F.A ....|--- .... ....
....|..|--- .... ....|--- .... ....|--- .... ....
 E-4|..|E-2 2AFF ....|E-2 2A.F ....|A-3 UF2F ....
....|..|--- .... ....|--- .... ....|--- .... ....
....|..|R-- .... ....|R-- .... ....|--- .... ....
....|..|--- .... ....|--- .... ....|--- .... ....
....|..|G-1 2FF7 ....|G-1 2F.7 ....|--- .... ....
....|..|--- .... ....|--- .... ....|--- .... ....
....|..|E-2 2FFA ....|E-2 2F.A ....|A-3 UF2A ....
....|..|--- .... ....|--- .... ....|--- .... ....
 E-4|..|E-2 2AFF ....|E-2 2A.F ....|--- .... ....
....|..|--- .... ....|--- .... ....|--- .... ....
....|..|R-- .... ....|R-- .... ....|--- .... ....
....|..|--- .... ....|--- .... ....|--- .... ....
....|..|E-2 2FF7 ....|E-2 2F.7 ....|A-3 UF27 ....
....|..|--- .... ....|--- .... ....|--- .... ....
....|..|E-2 2FFA ....|E-2 2F.A ....|--- .... ....
....|..|--- .... ....|--- .... ....|--- .... ....
 E-4|..|E-2 2AFF ....|E-2 2A.F ....|--- .... ....
....|..|--- .... ....|--- .... ....|--- .... ....
....|..|R-- .... ....|R-- .... ....|--- .... ....
....|..|--- .... ....|--- .... ....|--- .... ....
....|..|E-2 2FF7 ....|E-2 2F.7 ....|--- .... ....
....|..|--- .... ....|--- .... ....|--- .... ....
....|..|E-2 2FFA ....|E-2 2F.A ....|--- .... ....
....|..|--- .... ....|--- .... ....|--- .... ....
 E-4|..|E-2 2AFF ....|E-2 2A.F ....|--- .... ....
....|..|--- .... ....|--- .... ....|--- .... ....
....|..|R-- .... ....|R-- .... ....|--- .... ....
....|..|--- .... ....|--- .... ....|--- .... ....
....|..|E-2 2FF7 ....|E-2 2F.7 ....|--- .... ....
....|..|--- .... ....|--- .... ....|--- .... ....
....|..|E-2 2FFA ....|E-2 2F.A ....|R-- .... ....
....|..|--- .... ....|--- .... ....|--- .... ....

[Pattern35]
 G-4|..|G-2 2AFF ....|G-2 2A.F ....|A-3 UF2F ....
....|..|--- .... ....|--- .... ....|--- .... ....
....|..|R-- .... ....|R-- .... ....|--- .... ....
....|..|--- .... ....|--- .... ....|--- .... ....
....|..|E-2 2FF7 ....|E-2 2F.7 ....|R-- .... ....
....|..|--- .... ....|--- .... ....|--- .... ....
....|..|G-2 2FFA ....|G-2 2F.A ....|A-3 UF2A ....
....|..|--- .... ....|--- .... ....|--- .... ....
 G-4|..|G-2 2AFF ....|G-2 2A.F ....|--- .... ....
....|..|--- .... ....|--- .... ....|--- .... ....
....|..|R-- .... ....|R-- .... ....|R-- .... ....
....|..|--- .... ....|--- .... ....|--- .... ....
....|..|G-2 2FF7 ....|G-2 2F.7 ....|A-3 UF27 ....
....|..|--- .... ....|--- .... ....|--- .... ....
....|..|G-2 2FFA ....|G-2 2F.A ....|--- .... ....
....|..|--- .... ....|--- .... ....|--- .... ....
 G-4|..|G-2 2AFF ....|G-2 2A.F ....|D-4 UF5F ....
....|..|--- .... ....|--- .... ....|--- .... ....
....|..|R-- .... ....|R-- .... ....|--- .... ....
....|..|--- .... ....|--- .... ....|--- .... ....
....|..|G-2 2FF7 ....|G-2 2F.7 ....|--- .... ....
....|..|--- .... ....|--- .... ....|--- .... ....
....|..|G-2 2FFA ....|G-2 2F.A ....|D-4 UF5A ....
....|..|--- .... ....|--- .... ....|--- .... ....
 G-4|..|G-2 2AFF ....|G-2 2A.F ....|--- .... ....
....|..|--- .... ....|--- .... ....|--- .... ....
....|..|R-- .... ....|R-- .... ....|--- .... ....
....|..|--- .... ....|--- .... ....|--- .... ....
....|..|G-2 2FF7 ....|G-2 2F.7 ....|D-4 UF57 ....
....|..|--- .... ....|--- .... ....|--- .... ....
....|..|G-2 2FFA ....|G-2 2F.A ....|--- .... ....
....|..|--- .... ....|--- .... ....|--- .... ....
 C-4|..|C-2 2AFF ....|C-2 2A.F ....|E-4 UF6F ....
....|..|--- .... ....|--- .... ....|--- .... ....
....|..|R-- .... ....|R-- .... ....|--- .... ....
....|..|--- .... ....|--- .... ....|--- .... ....
....|..|G-2 2FF7 ....|G-2 2F.7 ....|--- .... ....
....|..|--- .... ....|--- .... ....|--- .... ....
....|..|C-2 2FFA ....|C-2 2F.A ....|E-4 UF6A ....
....|..|--- .... ....|--- .... ....|--- .... ....
 C-4|..|C-2 2AFF ....|C-2 2A.F ....|--- .... ....
....|..|--- .... ....|--- .... ....|--- .... ....
....|..|R-- .... ....|R-- .... ....|--- .... ....
....|..|--- .... ....|--- .... ....|--- .... ....
....|..|C-2 2FF7 ....|C-2 2F.7 ....|E-4 UF67 ....
....|..|--- .... ....|--- .... ....|--- .... ....
....|..|C-2 2FFA ....|C-2 2F.A ....|--- .... ....
....|..|--- .... ....|--- .... ....|--- .... ....
 C-4|..|C-2 2AFF ....|C-2 2A.F ....|G-4 UF1F ....
....|..|--- .... ....|--- .... ....|--- .... ....
....|..|R-- .... ....|R-- .... ....|--- .... ....
....|..|--- .... ....|--- .... ....|--- .... ....
....|..|C-2 2FF7 ....|C-2 2F.7 ....|--- .... ....
....|..|--- .... ....|--- .... ....|--- .... ....
....|..|C-2 2FFA ....|C-2 2F.A ....|G-4 UF1A ....
....|..|--- .... ....|--- .... ....|--- .... ....
 C-4|..|C-2 2AFF ....|C-2 2A.F ....|--- .... ....
....|..|--- .... ....|--- .... ....|--- .... ....
....|..|R-- .... ....|R-- .... ....|--- .... ....
....|..|--- .... ....|--- .... ....|--- .... ....
....|..|C-2 2FF7 ....|C-2 2F.7 ....|G-4 UF17 ....
....|..|--- .... ....|--- .... ....|--- .... ....
....|..|C-2 2FFA ....|C-2 2F.A ....|--- .... ....
....|..|--- .... ....|--- .... ....|--- .... ....

[Pattern36]
 G-3|..|G-1 2AFF ....|G-1 2A.F ....|C-4 UF1F ....
....|..|--- .... ....|--- .... ....|--- .... ....
....|..|R-- .... ....|R-- .... ....|--- .... ....
....|..|--- .... ....|--- .... ....|--- .... ....
....|..|C-2 2FF7 ....|C-2 2F.7 ....|--- .... ....
....|..|--- .... ....|--- .... ....|--- .... ....
....|..|G-1 2FFA ....|G-1 2F.A ....|C-4 UF1A ....
....|..|--- .... ....|--- .... ....|--- .... ....
 G-3|..|G-1 2AFF ....|G-1 2A.F ....|--- .... ....
....|..|--- .... ....|--- .... ....|--- .... ....
....|..|R-- .... ....|R-- .... ....|--- .... ....
....|..|--- .... ....|--- .... ....|--- .... ....
....|..|G-1 2FF7 ....|G-1 2F.7 ....|C-4 UF17 ....
....|..|--- .... ....|--- .... ....|--- .... ....
....|..|G-1 2FFA ....|G-1 2F.A ....|--- .... ....
....|..|--- .... ....|--- .... ....|--- .... ....
 G-3|..|G-1 2AFF ....|G-1 2A.F ....|B-3 UF4F ....
....|..|--- .... ....|--- .... ....|--- .... ....
....|..|R-- .... ....|R-- .... ....|--- .... ....
....|..|--- .... ....|--- .... ....|--- .... ....
....|..|G-1 2FF7 ....|G-1 2F.7 ....|--- .... ....
....|..|--- .... ....|--- .... ....|--- .... ....
....|..|G-1 2FFA ....|G-1 2F.A ....|B-3 UF4A ....
....|..|--- .... ....|--- .... ....|--- .... ....
 G-3|..|G-1 2AFF ....|G-1 2A.F ....|--- .... ....
....|..|--- .... ....|--- .... ....|--- .... ....
....|..|R-- .... ....|R-- .... ....|--- .... ....
....|..|--- .... ....|--- .... ....|--- .... ....
....|..|G-1 2FF7 ....|G-1 2F.7 ....|B-3 UF47 ....
....|..|--- .... ....|--- .... ....|--- .... ....
....|..|G-1 2FFA ....|G-1 2F.A ....|--- .... ....
....|..|--- .... ....|--- .... ....|--- .... ....
 E-4|..|E-2 2AFF ....|E-2 2A.F ....|A-3 UF2F ....
....|..|--- .... ....|--- .... ....|--- .... ....
....|..|R-- .... ....|R-- .... ....|--- .... ....
....|..|--- .... ....|--- .... ....|--- .... ....
....|..|G-1 2FF7 ....|G-1 2F.7 ....|--- .... ....
....|..|--- .... ....|--- .... ....|--- .... ....
....|..|E-2 2FFA ....|E-2 2F.A ....|A-3 UF2A ....
....|..|--- .... ....|--- .... ....|--- .... ....
 E-4|..|E-2 2AFF ....|E-2 2A.F ....|--- .... ....
....|..|--- .... ....|--- .... ....|--- .... ....
....|..|R-- .... ....|R-- .... ....|--- .... ....
....|..|--- .... ....|--- .... ....|--- .... ....
....|..|E-2 2FF7 ....|E-2 2F.7 ....|A-3 UF27 ....
....|..|--- .... ....|--- .... ....|--- .... ....
....|..|E-2 2FFA ....|E-2 2F.A ....|--- .... ....
....|..|--- .... ....|--- .... ....|--- .... ....
 E-4|..|E-2 2AFF ....|E-2 2A.F ....|--- .... ....
....|..|--- .... ....|--- .... ....|--- .... ....
....|..|R-- .... ....|R-- .... ....|--- .... ....
....|..|--- .... ....|--- .... ....|--- .... ....
....|..|E-2 2FF7 ....|E-2 2F.7 ....|--- .... ....
....|..|--- .... ....|--- .... ....|--- .... ....
....|..|E-2 2FFA ....|E-2 2F.A ....|--- .... ....
....|..|--- .... ....|--- .... ....|--- .... ....
 E-4|..|E-2 2AFF ....|E-2 2A.F ....|--- .... ....
....|..|--- .... ....|--- .... ....|--- .... ....
....|..|R-- .... ....|R-- .... ....|--- .... ....
....|..|--- .... ....|--- .... ....|--- .... ....
....|..|E-2 2FF7 ....|E-2 2F.7 ....|--- .... ....
....|..|--- .... ....|--- .... ....|--- .... ....
....|..|E-2 2FFA ....|E-2 2F.A ....|R-- .... ....
....|..|--- .... ....|--- .... ....|--- .... ....

[Pattern38]
....|..|--- .... ....|--- .... ....|R-- .... ....
....|..|--- .... ....|--- .... ....|--- .... ....
....|..|R-- .... ....|R-- .... ....|--- .... ....
....|..|--- .... ....|--- .... ....|--- .... ....
....|..|C-2 2FF7 ....|C-2 2F.7 ....|--- .... ....
....|..|--- .... ....|--- .... ....|--- .... ....
....|..|--- .... ....|--- .... ....|R-- .... ....
....|..|--- .... ....|--- .... ....|--- .... ....
....|..|--- .... ....|--- .... ....|--- .... ....
....|..|--- .... ....|--- .... ....|--- .... ....
....|..|R-- .... ....|R-- .... ....|--- .... ....
....|..|--- .... ....|--- .... ....|--- .... ....
