[Module]
VortexTrackerII=0
Version=3.5
Title=3me[2f],1p[3]-3mw[4]+,2mew[2d]
Author=oisee ^ 4d 29.05.2010
NoteTable=4
ChipFreq=1750000
Speed=4
PlayOrder=L0,1,2,3,4,5,6,7,8,9,10,11,12,11,14,15,16,17,18,19,20,21,22,11,12,11,14,27,16,17,18,31,20,21,22,11,12,11,38


[Ornament1]
L0,0,4,4,7,7

[Ornament2]
L0,0,3,3,7,7

[Ornament3]
L0,0,4,4,9,9

[Ornament4]
L0,0,3,3,6,6

[Ornament5]
L0,0,5,5,9,9

[Ornament6]
L0,0,5,5,8,8


[Sample1]
TnE +000_ +00_ F_
TnE +000_ +00_ F_
TnE +000_ +00_ F_
TnE +000_ +00_ D_
TnE +000_ +00_ B_
TnE +000_ +00_ B_ L

[Sample2]
TnE +000_ +00_ F_ L

[Sample3]
TnE +001_ +00_ F_
TnE +002_ +00_ F_
TnE +001_ +00_ E_
TnE +002_ +00_ E_
TnE +000_ +00_ E_ L
TnE -001_ +00_ E_
TnE -002_ +00_ E_
TnE -001_ +00_ E_
TnE +000_ +00_ E_
TnE +001_ +00_ E_
TnE +002_ +00_ E_
TnE +001_ +00_ E_

[Sample4]
TnE +002_ +00_ D_
TnE +002_ +00_ D_
TnE +002_ +00_ C_
TnE +002_ +00_ B_
TnE +002_ +00_ A_ L
TnE +002_ +00_ A_
TnE +002_ +00_ A_
TnE +002_ +00_ A_
TnE +002_ +00_ A_
TnE +002_ +00_ A_
TnE +002_ +00_ A_
TnE +002_ +00_ A_

[Sample5]
TnE +000_ +00_ F_
TnE +000_ +00_ F_
tne +000_ +00_ 0_ L

[Sample6]
TnE -001_ +00_ F_ L

[Sample7]
TnE +006_ +00_ F_ L

[Sample8]
tNe +000_ +00_ F_
tNe +000_ +00_ B_
tNe +000_ +00_ 7_
tNe +000_ +00_ 6- L

[Sample9]
TnE +080_ +00_ F_
TnE +100_ +00_ E_
TnE +180_ +00_ E_
TnE +200_ +00_ E_
TnE +240_ +00_ D_
TnE +280_ +00_ D_
TnE +2C0_ +00_ D_
TnE +300_ +00_ C_
TnE +300_ +00_ C_
TnE +340_ +00_ C_
TnE +340_ +00_ C_
TnE +380_ +00_ B_
TnE +380_ +00_ B_
TnE +400_ +00_ B_
TnE +400_ +00_ B_
TnE +480_ +00_ A_
TnE +500_ +00_ 9_
TnE +580_ +00_ 7_
TnE +600_ +00_ 4_
TnE +680_ +00_ 1_
TnE +000_ +00_ 0_ L

[Sample10]
Tne +1C0_ +00_ F_
Tne +280_ +00_ E_
Tne +380_ +00_ C_
Tne +440_ +00_ A_
Tne +480_ +00_ 8_
TnE +000_ +00_ 0_ L

[Sample11]
TNe +200_ -0A_ F_
tNe +000_ +0F_ A_
TNe +200_ -07_ E_
tNe +000_ +0E_ B- L

[Sample12]
TNE +0A0_ +05_ F_
TNE +140_ +02_ D_
TNE +140_ +02_ B_
TNE +100_ +00_ A_ L
TNE +140_ +00_ A_
TNE +200_ +00_ A-

[Sample13]
Tne +200_ +00_ F_
Tne +2C0_ +00_ F_
Tne +380_ +00_ E_
Tne +500_ +00_ C_
Tne +520_ +00_ 9_
tne +000_ +00_ 0_ L

[Sample14]
TNE -100_ +00_ F_
TNE -100_ +00_ D_
TNE -100_ +00_ A_
TNE -100_ +00_ 5_
tne +000_ +00_ 0_ L

[Sample15]
TNE -100_ +00_ 5_
TNE -100_ +00_ 8_
TNE -100_ +00_ B_
TNE -100_ +00_ F_
TNe -100_ +00_ 9- L

[Sample16]
TnE +000_ +00_ C_
TnE +000_ +00_ E_
TnE +000_ +00_ F_
TnE +000_ +00_ F_
TnE +000_ +00_ E_
TnE +000_ +00_ D_
TnE +000_ +00_ C_
TnE +000_ +00_ C_ L
TnE +001_ +00_ C_
TnE +002_ +00_ C_
TnE +003_ +00_ C_
TnE +001_ +00_ C_
TnE +000_ +00_ C_
TnE -001_ +00_ C_
TnE -002_ +00_ C_
TnE -003_ +00_ C_
TnE -001_ +00_ C_
TnE +000_ +00_ C_
TnE +000_ +00_ C_

[Sample17]
Tne +1C0_ +00_ F_
Tne +280_ +00_ D_
Tne +380_ +00_ 7_
TNE +000_ +00_ 0_ L

[Sample18]
TnE -00C_ +00_ 0_ L

[Sample19]
TNe +000_ +00_ F_
TNe +000_ +00_ C_
TNe +000_ +00_ 6_
TNe +000_ +01_ A- L

[Sample20]
TNE +140_ +00_ F_
tNE +000_ +00_ B- L

[Sample21]
tNE +000_ +00_ D_
tNE +000_ +00_ 8_
tNE +000_ +00_ 1_
TNE +000_ +00_ 0_ L

[Sample22]
TnE +000_ +00_ D_ L
TnE +000_ +00_ D_
tne +000_ +00_ 9_
tne +000_ +00_ 9_
TnE +000_ +00_ D_
TnE +000_ +00_ D_
tne +000_ +00_ 9_
tne +000_ +00_ 9_
TnE +000_ +00_ D_
TnE +000_ +00_ D_
TnE +000_ +00_ D_
TnE +000_ +00_ D_
TnE +000_ +00_ D_
TnE +000_ +00_ D_
tne +000_ +00_ 9_
tne +000_ +00_ 9_

[Sample23]
TnE +000_ +00_ F_ L
TnE +010_ +01_ F_
TnE +010_ +01_ F_
TnE +010_ +01_ F_
TnE +010_ +01_ F_
TnE +000_ +00_ F_
TnE +000_ +00_ F_
TnE -010_ -01_ F_
TnE -010_ -01_ F_
TnE -010_ -01_ F_
TnE -010_ -01_ F_
TnE +000_ +00_ F_

[Sample24]
TNe +000_ -01_ C_
TNe +000_ -01_ D_
TNe +000_ -01_ E_
TNe +000_ -01_ F_
TNe +000_ -01_ F_
TNe +000_ -01_ F_
TNe +000_ -01_ F_
TNe +000_ -01_ F_
TNe +000_ -01_ E_
TNe +000_ -01_ E_
TNe +000_ -01_ E_
TNe +000_ -01_ F_
TNe +000_ -01_ F_ L

[Sample25]
TNE +000_ +00_ F_
TNE +000_ +00_ F_ L
TNE +000_ +00_ F_
TNE +000_ +00_ F_
TNE +000_ +00_ F-

[Sample26]
tne +000_ +00_ 0_ L

[Sample27]
TnE +100_ +05_ F_
TnE +200_ +02_ A_
TnE +300_ +02_ 7_
TNE +400_ +00_ 3- L

[Sample28]
tne +000_ +00_ 0_ L

[Sample29]
tnE +000_ +00_ 0_ L

[Sample30]
TNE +000_ +00_ C+ L

[Sample31]
TNe +1C0_ +00_ F_
Tne +280_ +00_ E_
Tne +380_ +00_ C_
Tne +440_ +00_ A_
Tne +480_ +00_ 8_
TnE +000_ +00_ 0_ L

[Pattern0]
....|..|--- .... ....|C-4 3F1F ....|--- .... ....
....|..|--- .... ....|--- .... ....|--- .... ....
....|..|--- .... ....|--- .... ....|--- .... ....
....|..|--- .... ....|--- .... ....|--- .... ....
....|..|--- .... ....|--- .... ....|--- .... ....
....|..|--- .... ....|--- .... ....|--- .... ....
....|..|--- .... ....|C-4 3F1A ....|--- .... ....
....|..|--- .... ....|--- .... ....|--- .... ....
....|..|--- .... ....|--- .... ....|--- .... ....
....|..|--- .... ....|--- .... ....|--- .... ....
....|..|--- .... ....|--- .... ....|--- .... ....
....|..|--- .... ....|--- .... ....|--- .... ....
....|..|--- .... ....|C-4 3F17 ....|--- .... ....
....|..|--- .... ....|--- .... ....|--- .... ....
....|..|--- .... ....|--- .... ....|--- .... ....
....|..|--- .... ....|--- .... ....|--- .... ....
....|..|--- .... ....|--- .... ....|--- .... ....
....|..|--- .... ....|--- .... ....|--- .... ....
....|..|--- .... ....|--- .... ....|--- .... ....
....|..|--- .... ....|--- .... ....|--- .... ....
....|..|--- .... ....|--- .... ....|--- .... ....
....|..|--- .... ....|--- .... ....|--- .... ....
....|..|--- .... ....|--- .... ....|--- .... ....
....|..|--- .... ....|--- .... ....|--- .... ....
....|..|--- .... ....|--- .... ....|--- .... ....
....|..|--- .... ....|--- .... ....|--- .... ....
....|..|--- .... ....|--- .... ....|--- .... ....
....|..|--- .... ....|--- .... ....|--- .... ....
....|..|--- .... ....|--- .... ....|--- .... ....
....|..|--- .... ....|--- .... ....|--- .... ....
....|..|--- .... ....|R-- .... ....|--- .... ....
....|..|--- .... ....|--- .... ....|--- .... ....
....|..|--- .... ....|G-3 3F1F ....|--- .... ....
....|..|--- .... ....|--- .... ....|--- .... ....
....|..|--- .... ....|--- .... ....|--- .... ....
....|..|--- .... ....|--- .... ....|--- .... ....
....|..|--- .... ....|R-- .... ....|--- .... ....
....|..|--- .... ....|--- .... ....|--- .... ....
....|..|--- .... ....|G-3 3F1A ....|--- .... ....
....|..|--- .... ....|--- .... ....|--- .... ....
....|..|--- .... ....|--- .... ....|--- .... ....
....|..|--- .... ....|--- .... ....|--- .... ....
....|..|--- .... ....|R-- .... ....|--- .... ....
....|..|--- .... ....|--- .... ....|--- .... ....
....|..|--- .... ....|G-3 3F17 ....|--- .... ....
....|..|--- .... ....|--- .... ....|--- .... ....
....|..|--- .... ....|--- .... ....|--- .... ....
....|..|--- .... ....|--- .... ....|--- .... ....
....|..|--- .... ....|--- .... ....|--- .... ....
....|..|--- .... ....|--- .... ....|--- .... ....
....|..|--- .... ....|--- .... ....|--- .... ....
....|..|--- .... ....|--- .... ....|--- .... ....
....|..|--- .... ....|--- .... ....|--- .... ....
....|..|--- .... ....|--- .... ....|--- .... ....
....|..|--- .... ....|--- .... ....|--- .... ....
....|..|--- .... ....|--- .... ....|--- .... ....
....|..|--- .... ....|--- .... ....|--- .... ....
....|..|--- .... ....|--- .... ....|--- .... ....
....|..|--- .... ....|--- .... ....|--- .... ....
....|..|--- .... ....|--- .... ....|--- .... ....
....|..|--- .... ....|--- .... ....|--- .... ....
....|..|--- .... ....|--- .... ....|--- .... ....
....|..|--- .... ....|R-- .... ....|--- .... ....
....|..|--- .... ....|--- .... ....|--- .... ....

[Pattern1]
....|..|--- .... ....|A-3 3F2F ....|--- .... ....
....|..|--- .... ....|--- .... ....|--- .... ....
....|..|--- .... ....|--- .... ....|--- .... ....
....|..|--- .... ....|--- .... ....|--- .... ....
....|..|--- .... ....|R-- .... ....|--- .... ....
....|..|--- .... ....|--- .... ....|--- .... ....
....|..|--- .... ....|A-3 3F2A ....|--- .... ....
....|..|--- .... ....|--- .... ....|--- .... ....
....|..|--- .... ....|--- .... ....|--- .... ....
....|..|--- .... ....|--- .... ....|--- .... ....
....|..|--- .... ....|R-- .... ....|--- .... ....
....|..|--- .... ....|--- .... ....|--- .... ....
....|..|--- .... ....|A-3 3F27 ....|--- .... ....
....|..|--- .... ....|--- .... ....|--- .... ....
....|..|--- .... ....|--- .... ....|--- .... ....
....|..|--- .... ....|--- .... ....|--- .... ....
....|..|--- .... ....|--- .... ....|--- .... ....
....|..|--- .... ....|--- .... ....|--- .... ....
....|..|--- .... ....|--- .... ....|--- .... ....
....|..|--- .... ....|--- .... ....|--- .... ....
....|..|--- .... ....|--- .... ....|--- .... ....
....|..|--- .... ....|--- .... ....|--- .... ....
....|..|--- .... ....|--- .... ....|--- .... ....
....|..|--- .... ....|--- .... ....|--- .... ....
....|..|--- .... ....|--- .... ....|--- .... ....
....|..|--- .... ....|--- .... ....|--- .... ....
....|..|--- .... ....|--- .... ....|--- .... ....
....|..|--- .... ....|--- .... ....|--- .... ....
....|..|--- .... ....|A-3 3F.F ....|--- .... ....
....|..|--- .... ....|R-- .... ....|--- .... ....
....|..|--- .... ....|--- .... ....|--- .... ....
....|..|--- .... ....|--- .... ....|--- .... ....
....|..|--- .... ....|G-3 3F3F ....|--- .... ....
....|..|--- .... ....|--- .... ....|--- .... ....
....|..|--- .... ....|A-3 3F.A ....|--- .... ....
....|..|--- .... ....|R-- .... ....|--- .... ....
....|..|--- .... ....|--- .... ....|--- .... ....
....|..|--- .... ....|--- .... ....|--- .... ....
....|..|--- .... ....|G-3 3F3A ....|--- .... ....
....|..|--- .... ....|--- .... ....|--- .... ....
....|..|--- .... ....|A-3 3F.7 ....|--- .... ....
....|..|--- .... ....|R-- .... ....|--- .... ....
....|..|--- .... ....|--- .... ....|--- .... ....
....|..|--- .... ....|--- .... ....|--- .... ....
....|..|--- .... ....|G-3 3F37 ....|--- .... ....
....|..|--- .... ....|--- .... ....|--- .... ....
....|..|--- .... ....|--- .... ....|--- .... ....
....|..|--- .... ....|--- .... ....|--- .... ....
....|..|--- .... ....|F-3 3F3F ....|--- .... ....
....|..|--- .... ....|--- .... ....|--- .... ....
....|..|--- .... ....|--- .... ....|--- .... ....
....|..|--- .... ....|--- .... ....|--- .... ....
....|..|--- .... ....|--- .... ....|--- .... ....
....|..|--- .... ....|--- .... ....|--- .... ....
....|..|--- .... ....|F-3 3F3A ....|--- .... ....
....|..|--- .... ....|--- .... ....|--- .... ....
....|..|--- .... ....|--- .... ....|--- .... ....
....|..|--- .... ....|--- .... ....|--- .... ....
....|..|--- .... ....|--- .... ....|--- .... ....
....|..|--- .... ....|--- .... ....|--- .... ....
....|..|--- .... ....|F-3 3F37 ....|--- .... ....
....|..|--- .... ....|--- .... ....|--- .... ....
....|..|--- .... ....|--- .... ....|--- .... ....
....|..|--- .... ....|--- .... ....|--- .... ....

[Pattern2]
 C-3|..|C-6 2CFF ....|C-4 3F1F ....|C-3 2CDF ....
....|..|--- .... ....|--- .... ....|--- .... ....
....|..|--- .... ....|--- .... ....|--- .... ....
....|..|--- .... ....|--- .... ....|--- .... ....
 C-3|..|--- .... ....|--- .... ....|C-3 2CDF ....
....|..|--- .... ....|--- .... ....|--- .... ....
....|..|C-6 2FFA ....|C-4 3F1A ....|--- .... ....
....|..|--- .... ....|--- .... ....|--- .... ....
 C-4|..|--- .... ....|--- .... ....|C-2 2ADF ....
....|..|--- .... ....|--- .... ....|--- .... ....
....|..|--- .... ....|--- .... ....|--- .... ....
....|..|--- .... ....|--- .... ....|--- .... ....
 C-3|..|C-6 2FF7 ....|C-6 4F.A ....|C-3 2CDF ....
....|..|--- .... ....|--- .... ....|--- .... ....
....|..|--- .... ....|--- .... ....|--- .... ....
....|..|--- .... ....|--- .... ....|--- .... ....
 B-4|..|B-5 2CFF ....|B-5 4F.F ....|C-3 2FDF ....
 C-4|..|--- .F.. ....|--- .... ....|C-2 2ADF ....
....|..|R-- .... ....|--- .... ....|--- .... ....
....|..|--- .... ....|--- .... ....|--- .... ....
 C-3|..|--- .... ....|--- .... ....|C-3 2CDF ....
....|..|--- .... ....|--- .... ....|--- .... ....
....|..|B-5 2FFA ....|--- .... ....|--- .... ....
....|..|--- .... ....|--- .... ....|--- .... ....
 C-4|..|R-- .... ....|C-6 4F.7 ....|C-2 2ADF ....
....|..|--- .... ....|--- .... ....|--- .... ....
....|..|--- .... ....|--- .... ....|--- .... ....
....|..|--- .... ....|--- .... ....|--- .... ....
 A-3|..|A-5 2CFF ....|A-5 4F.F ....|C-3 2FDF ....
 C-3|..|--- .F.. ....|--- .... ....|C-3 2CDF ....
....|..|--- .... ....|R-- .... ....|--- .... ....
....|..|R-- .... ....|R-- .... ....|--- .... ....
 G-4|..|G-5 2CFF ....|G-3 3F1F ....|G-2 2ADF ....
....|..|--- .... ....|--- .... ....|--- .... ....
....|..|A-5 2FFA ....|--- .... ....|--- .... ....
....|..|--- .... ....|--- .... ....|--- .... ....
 G-4|..|--- .... ....|R-- .... ....|G-2 2ADF ....
 G-4|..|R-- .... ....|--- .... ....|G-2 2ADF ....
....|..|G-5 2FFA ....|G-3 3F1A ....|--- .... ....
....|..|--- .... ....|--- .... ....|--- .... ....
 G-3|..|A-5 2FF7 ....|B-5 4F.7 ....|G-1 2ADF ....
....|..|--- .... ....|--- .... ....|C-2 2FD7 ....
....|..|--- .... ....|R-- .... ....|--- .... ....
....|..|R-- .... ....|R-- .... ....|--- .... ....
 G-4|..|G-5 2FF7 ....|G-5 4F.A ....|G-2 2ADF ....
 G-4|..|--- .... ....|--- .... ....|G-2 2ADF ....
....|..|R-- .... ....|--- .... ....|--- .... ....
....|..|--- .... ....|--- .... ....|--- .... ....
 G-4|..|--- .... ....|--- .... ....|G-2 2ADF ....
 G-3|..|--- .... ....|--- .... ....|G-1 2ADF ....
....|..|--- .... ....|--- .... ....|--- .... ....
....|..|--- .... ....|--- .... ....|--- .... ....
 G-4|..|R-- .... ....|A-5 4F.7 ....|G-2 2ADF ....
 G-4|..|--- .... ....|--- .... ....|G-2 2ADF ....
....|..|--- .... ....|--- .... ....|--- .... ....
....|..|--- .... ....|R-- .... ....|--- .... ....
 E-4|..|E-5 2CFF ....|E-5 4F.F ....|G-1 2FDF ....
....|..|--- .... ....|--- .... ....|G-2 2FDA ....
....|..|--- .... ....|--- .... ....|--- .... ....
....|..|--- .... ....|--- .... ....|--- .... ....
 D-4|..|D-5 2CFF ....|D-5 4F.F ....|G-2 2FDF ....
 G-4|..|--- .F.. ....|--- .... ....|G-2 2ADF ....
....|..|E-5 2FFA ....|R-- .... ....|--- .... ....
....|..|--- .... ....|--- .... ....|--- .... ....

[Pattern3]
 E-4|..|E-5 2CFF ....|A-3 3F2F ....|F-1 2FDF ....
 E-4|..|E-5 2CFF ....|E-5 4F.F ....|G-2 2FDA ....
....|..|D-5 2FFA ....|--- .... ....|--- .... ....
....|..|--- .... ....|--- .... ....|--- .... ....
 F-4|..|E-5 2FF7 ....|E-5 4F.A ....|F-2 2ADF ....
 F-4|..|--- .... ....|--- .... ....|F-2 2ADF ....
....|..|E-5 2FFA ....|A-3 3F2A ....|--- .... ....
....|..|E-5 2FFA ....|--- .... ....|--- .... ....
 F-4|..|D-5 2FF7 ....|D-5 4F.A ....|F-2 2ADF ....
 F-3|..|--- .... ....|--- .... ....|F-1 2ADF ....
....|..|--- .... ....|R-- .... ....|--- .... ....
....|..|--- .... ....|--- .... ....|--- .... ....
 F-4|..|E-5 2FF7 ....|E-5 4F.A ....|F-2 2ADF ....
 F-4|..|E-5 2FF7 ....|E-5 4F.A ....|F-2 2ADF ....
....|..|--- .... ....|--- .... ....|--- .... ....
....|..|--- .... ....|--- .... ....|--- .... ....
 F-4|..|--- .... ....|E-5 4F.7 ....|F-2 2ADF ....
 F-3|..|--- .... ....|--- .... ....|F-1 2ADF ....
....|..|--- .... ....|--- .... ....|--- .... ....
....|..|--- .... ....|--- .... ....|--- .... ....
 F-4|..|--- .... ....|D-5 4F.7 ....|F-2 2ADF ....
....|..|--- .... ....|--- .... ....|G-2 2FD7 ....
....|..|--- .... ....|--- .... ....|--- .... ....
....|..|--- .... ....|--- .... ....|--- .... ....
 F-4|..|--- .... ....|E-5 4F.7 ....|F-2 2ADF ....
 F-3|..|--- .... ....|E-5 4F.7 ....|F-1 2ADF ....
....|..|--- .... ....|--- .... ....|--- .... ....
....|..|--- .... ....|--- .... ....|--- .... ....
 F-4|..|--- .... ....|A-3 3F.F ....|F-2 2ADF ....
 F-4|..|--- .... ....|R-- .... ....|F-2 2ADF ....
....|..|--- .... ....|--- .... ....|--- .... ....
....|..|--- .... ....|--- .... ....|--- .... ....
 E-3|..|--- .... ....|G-3 3F3F ....|E-1 2ADF ....
....|..|--- .... ....|--- .... ....|F-1 2FD7 ....
....|..|--- .... ....|A-3 3F.A ....|--- .... ....
....|..|--- .... ....|R-- .... ....|--- .... ....
 E-4|..|--- .... ....|--- .... ....|E-2 2ADF ....
 E-4|..|--- .... ....|--- .... ....|E-2 2ADF ....
....|..|--- .... ....|G-3 3F3A ....|--- .... ....
....|..|R-- .... ....|R-- .... ....|--- .... ....
 B-4|..|B-4 2CFF ....|B-4 4F.F ....|E-1 2FDF ....
....|..|--- .... ....|R-- .... ....|F-1 2FD7 ....
....|..|--- .... ....|--- .... ....|--- .... ....
....|..|--- .... ....|--- .... ....|--- .... ....
 E-4|..|R-- .... ....|R-- .... ....|E-2 2ADF ....
....|..|R-- .... ....|--- .... ....|--- .... ....
....|..|B-4 2FFA ....|--- .... ....|--- .... ....
....|..|--- .... ....|--- .... ....|--- .... ....
 C-3|..|C-5 2CFF ....|G-3 3F1F ....|E-2 2FDF ....
 E-3|..|--- .F.. ....|--- .... ....|E-1 2ADF ....
....|..|R-- .... ....|--- .... ....|--- .... ....
....|..|R-- .... ....|R-- .... ....|--- .... ....
 E-4|..|B-4 2FF7 ....|B-4 4F.A ....|E-2 2ADF ....
 E-4|..|R-- .... ....|R-- .... ....|E-2 2ADF ....
....|..|C-5 2FFA ....|G-3 3F1A ....|R-- .... ....
....|..|--- .... ....|--- .... ....|--- .... ....
 B-4|..|B-4 2CFF ....|B-4 4F.F ....|E-1 2FDF ....
....|..|--- .... ....|--- .... ....|--- .... ....
....|..|--- .... ....|--- .... ....|--- .... ....
....|..|R-- .... ....|--- .... ....|--- .... ....
 E-4|..|C-5 2FF7 ....|C-5 4F.A ....|E-2 2ADF ....
....|..|--- .... ....|--- .... ....|E-2 2FD7 ....
....|..|B-4 2FFA ....|--- .... ....|R-- .... ....
....|..|--- .... ....|R-- .... ....|--- .... ....

[Pattern4]
 C-3|..|C-4 2CFF ....|C-4 3F1F ....|C-3 2CDF ....
....|..|R-- .... ....|R-- .... ....|E-2 2FDA ....
....|..|R-- .... ....|--- .... ....|R-- .... ....
....|..|R-- .... ....|R-- .... ....|--- .... ....
 B-4|..|B-3 2CFF ....|B-3 4F.F ....|C-3 2FDF ....
....|..|--- .... ....|--- .... ....|--- .... ....
....|..|C-4 2FFA ....|C-4 3F1A ....|--- .... ....
....|..|R-- .... ....|R-- .... ....|--- .... ....
 C-3|..|C-4 2CFF ....|C-4 4F.F ....|C-3 2CDF ....
....|..|R-- .... ....|--- .... ....|E-1 2FD7 ....
....|..|B-3 2FFA ....|--- .... ....|R-- .... ....
....|..|--- .... ....|--- .... ....|--- .... ....
 C-3|..|C-4 2FF7 ....|C-4 4F.A ....|C-3 2CDF ....
....|..|R-- .... ....|R-- .... ....|E-2 2FD7 ....
....|..|C-4 2FFA ....|--- .... ....|R-- .... ....
....|..|R-- .... ....|R-- .... ....|--- .... ....
 C-3|..|B-3 2FF7 ....|B-4 4F.7 ....|C-3 2CDF ....
 C-4|..|--- .... ....|--- .... ....|C-2 2ADF ....
....|..|--- .... ....|--- .... ....|--- .... ....
....|..|R-- .... ....|R-- .... ....|--- .... ....
 C-3|..|C-4 2FF7 ....|C-4 4F.A ....|C-3 2CDF ....
....|..|--- .... ....|--- .... ....|--- .... ....
....|..|--- .... ....|--- .... ....|R-- .... ....
....|..|--- .... ....|--- .... ....|--- .... ....
 C-4|..|--- .... ....|C-4 4F.7 ....|C-2 2ADF ....
....|..|--- .... ....|--- .... ....|--- .... ....
....|..|--- .... ....|--- .... ....|--- .... ....
....|..|--- .... ....|R-- .... ....|--- .... ....
 C-3|..|--- .... ....|B-3 4F.7 ....|C-3 2CDF ....
 C-3|..|--- .... ....|--- .... ....|C-3 2CDF ....
....|..|--- .... ....|R-- .... ....|--- .... ....
....|..|--- .... ....|R-- .... ....|--- .... ....
 D-4|..|D-4 2CFF ....|G-3 3F1F ....|G-1 2FDF ....
....|..|--- .... ....|--- .... ....|--- .... ....
....|..|--- .... ....|--- .... ....|--- .... ....
....|..|--- .... ....|--- .... ....|--- .... ....
 G-4|..|--- .F.. ....|R-- .... ....|G-2 2ADF ....
 G-4|..|--- .... ....|--- .... ....|G-2 2ADF ....
....|..|D-4 2FFA ....|G-3 3F1A ....|--- .... ....
....|..|--- .... ....|--- .... ....|--- .... ....
 G-3|..|--- .... ....|--- .... ....|G-1 2ADF ....
....|..|--- .... ....|--- .... ....|C-2 2FD7 ....
....|..|--- .... ....|R-- .... ....|--- .... ....
....|..|--- .... ....|--- .... ....|--- .... ....
 G-4|..|D-4 2FF7 ....|D-4 4F.A ....|G-2 2ADF ....
 G-4|..|--- .... ....|--- .... ....|G-2 2ADF ....
....|..|--- .... ....|--- .... ....|--- .... ....
....|..|--- .... ....|--- .... ....|--- .... ....
 E-4|..|E-4 2CFF ....|E-4 4F.F ....|G-2 2FDF ....
 G-3|..|--- .F.. ....|--- .... ....|G-1 2ADF ....
....|..|--- .... ....|--- .... ....|--- .... ....
....|..|--- .... ....|--- .... ....|--- .... ....
 G-4|..|R-- .... ....|R-- .... ....|G-2 2ADF ....
 G-4|..|--- .... ....|--- .... ....|G-2 2ADF ....
....|..|E-4 2FFA ....|--- .... ....|--- .... ....
....|..|--- .... ....|--- .... ....|--- .... ....
 F-4|..|F-4 2CFF ....|F-4 4F.F ....|G-1 2FDF ....
....|..|--- .... ....|--- .... ....|G-2 2FDA ....
....|..|R-- .... ....|--- .... ....|--- .... ....
....|..|--- .... ....|--- .... ....|--- .... ....
 G-4|..|E-4 2FF7 ....|E-4 4F.A ....|G-2 2ADF ....
 G-4|..|--- .... ....|--- .... ....|G-2 2ADF ....
....|..|F-4 2FFA ....|R-- .... ....|--- .... ....
....|..|--- .... ....|--- .... ....|--- .... ....

[Pattern5]
 C-3|..|C-4 2CFF ....|A-3 3F2F ....|F-1 2FDF ....
....|..|--- .... ....|--- .... ....|G-2 2FDA ....
....|..|R-- .... ....|--- .... ....|--- .... ....
....|..|--- .... ....|--- .... ....|--- .... ....
 F-4|..|F-4 2FF7 ....|F-4 4F.A ....|F-2 2ADF ....
 F-4|..|--- .... ....|--- .... ....|F-2 2ADF ....
....|..|C-4 2FFA ....|A-3 3F2A ....|--- .... ....
....|..|--- .... ....|--- .... ....|--- .... ....
 F-4|..|R-- .... ....|E-4 4F.7 ....|F-2 2ADF ....
 F-3|..|--- .... ....|--- .... ....|F-1 2ADF ....
....|..|--- .... ....|R-- .... ....|--- .... ....
....|..|--- .... ....|--- .... ....|--- .... ....
 F-4|..|C-4 2FF7 ....|C-4 4F.A ....|F-2 2ADF ....
 F-4|..|--- .... ....|--- .... ....|F-2 2ADF ....
....|..|--- .... ....|--- .... ....|--- .... ....
....|..|--- .... ....|--- .... ....|--- .... ....
 D-4|..|D-4 2CFF ....|D-4 4F.F ....|F-2 2FDF ....
 F-3|..|--- .F.. ....|--- .... ....|F-1 2ADF ....
....|..|--- .... ....|--- .... ....|--- .... ....
....|..|--- .... ....|--- .... ....|--- .... ....
 F-4|..|R-- .... ....|R-- .... ....|F-2 2ADF ....
....|..|--- .... ....|--- .... ....|G-2 2FD7 ....
....|..|D-4 2FFA ....|--- .... ....|--- .... ....
....|..|--- .... ....|--- .... ....|--- .... ....
 E-4|..|E-4 2CFF ....|E-4 4F.F ....|F-2 2FDF ....
 F-3|..|--- .F.. ....|--- .... ....|F-1 2ADF ....
....|..|R-- .... ....|--- .... ....|--- .... ....
....|..|--- .... ....|--- .... ....|--- .... ....
 F-4|..|D-4 2FF7 ....|A-3 3F.F ....|F-2 2ADF ....
 F-4|..|--- .... ....|R-- .... ....|F-2 2ADF ....
....|..|E-4 2FFA ....|--- .... ....|--- .... ....
....|..|--- .... ....|--- .... ....|--- .... ....
 B-4|..|B-3 2CFF ....|G-3 3F3F ....|E-1 2FDF ....
....|..|--- .... ....|--- .... ....|F-1 2FD7 ....
....|..|R-- .... ....|A-3 3F.A ....|--- .... ....
....|..|--- .... ....|R-- .... ....|--- .... ....
 E-4|..|E-4 2FF7 ....|E-4 4F.A ....|E-2 2ADF ....
 E-4|..|--- .... ....|--- .... ....|E-2 2ADF ....
....|..|B-3 2FFA ....|G-3 3F3A ....|--- .... ....
....|..|--- .... ....|--- .... ....|--- .... ....
 E-3|..|R-- .... ....|A-3 3F.7 ....|E-1 2ADF ....
....|..|--- .... ....|R-- .... ....|F-1 2FD7 ....
....|..|--- .... ....|--- .... ....|--- .... ....
....|..|--- .... ....|--- .... ....|--- .... ....
 E-4|..|B-3 2FF7 ....|B-3 4F.A ....|E-2 2ADF ....
....|..|--- .... ....|--- .... ....|--- .... ....
....|..|--- .... ....|--- .... ....|--- .... ....
....|..|--- .... ....|--- .... ....|--- .... ....
 D-4|..|D-4 2CFF ....|F-3 3F3F ....|E-2 2FDF ....
 E-3|..|--- .F.. ....|--- .... ....|E-1 2ADF ....
....|..|--- .... ....|--- .... ....|--- .... ....
....|..|--- .... ....|--- .... ....|--- .... ....
 E-4|..|--- .... ....|R-- .... ....|E-2 2ADF ....
 E-4|..|--- .... ....|--- .... ....|E-2 2ADF ....
....|..|D-4 2FFA ....|F-3 3F3A ....|R-- .... ....
....|..|--- .... ....|--- .... ....|--- .... ....
 C-3|..|C-4 2CFF ....|C-4 4F.F ....|E-1 2FDF ....
....|..|--- .... ....|--- .... ....|--- .... ....
....|..|--- .... ....|--- .... ....|--- .... ....
....|..|--- .... ....|--- .... ....|--- .... ....
 E-4|..|D-4 2FF7 ....|D-4 4F.A ....|E-2 2ADF ....
....|..|--- .... ....|--- .... ....|E-2 2FD7 ....
....|..|C-4 2FFA ....|--- .... ....|R-- .... ....
....|..|--- .... ....|--- .... ....|--- .... ....

[Pattern6]
 C-3|..|C-5 2CFF ....|C-4 3F1F ....|C-3 2CDF ....
....|..|--- .... ....|--- .... ....|E-2 2FDA ....
....|..|--- .... ....|--- .... ....|R-- .... ....
....|..|--- .... ....|--- .... ....|--- .... ....
 C-3|..|C-4 2FF7 ....|C-4 4F.A ....|C-3 2CDF ....
....|..|--- .... ....|--- .... ....|--- .... ....
....|..|C-5 2FFA ....|C-4 3F1A ....|--- .... ....
....|..|--- .... ....|--- .... ....|--- .... ....
 C-4|..|--- .... ....|D-4 4F.7 ....|C-2 2ADF ....
....|..|--- .... ....|--- .... ....|E-1 2FD7 ....
....|..|--- .... ....|--- .... ....|R-- .... ....
....|..|--- .... ....|--- .... ....|--- .... ....
 C-3|..|C-5 2FF7 ....|C-5 4F.A ....|C-3 2CDF ....
....|..|--- .... ....|--- .... ....|E-2 2FD7 ....
....|..|--- .... ....|--- .... ....|R-- .... ....
....|..|--- .... ....|--- .... ....|--- .... ....
 D-4|..|D-5 2CFF ....|D-5 4F.F ....|C-3 2FDF ....
 C-4|..|--- .F.. ....|--- .... ....|C-2 2ADF ....
....|..|R-- .... ....|--- .... ....|--- .... ....
....|..|--- .... ....|--- .... ....|--- .... ....
 C-3|..|--- .... ....|--- .... ....|C-3 2CDF ....
....|..|--- .... ....|--- .... ....|--- .... ....
....|..|D-5 2FFA ....|--- .... ....|R-- .... ....
....|..|--- .... ....|--- .... ....|--- .... ....
 C-4|..|R-- .... ....|C-5 4F.7 ....|C-2 2ADF ....
....|..|--- .... ....|--- .... ....|--- .... ....
....|..|--- .... ....|--- .... ....|--- .... ....
....|..|--- .... ....|--- .... ....|--- .... ....
 E-4|..|E-5 2CFF ....|E-5 4F.F ....|C-3 2FDF ....
 C-3|..|--- .F.. ....|--- .... ....|C-3 2CDF ....
....|..|--- .... ....|R-- .... ....|--- .... ....
....|..|--- .... ....|--- .... ....|--- .... ....
 G-4|..|G-5 2CFF ....|G-3 3F1F ....|G-2 2ADF ....
....|..|--- .... ....|--- .... ....|--- .... ....
....|..|E-5 2FFA ....|--- .... ....|--- .... ....
....|..|--- .... ....|--- .... ....|--- .... ....
 G-4|..|--- .... ....|R-- .... ....|G-2 2ADF ....
 G-4|..|--- .... ....|--- .... ....|G-2 2ADF ....
....|..|G-5 2FFA ....|G-3 3F1A ....|--- .... ....
....|..|--- .... ....|--- .... ....|--- .... ....
 F-4|..|F-5 2CFF ....|F-5 4F.F ....|G-1 2FDF ....
....|..|--- .... ....|--- .... ....|C-2 2FD7 ....
....|..|--- .... ....|R-- .... ....|--- .... ....
....|..|--- .... ....|--- .... ....|--- .... ....
 G-4|..|G-5 2FF7 ....|G-5 4F.A ....|G-2 2ADF ....
 G-4|..|--- .... ....|--- .... ....|G-2 2ADF ....
....|..|F-5 2FFA ....|--- .... ....|--- .... ....
....|..|--- .... ....|--- .... ....|--- .... ....
 G-4|..|--- .... ....|--- .... ....|G-2 2ADF ....
 G-3|..|--- .... ....|--- .... ....|G-1 2ADF ....
....|..|--- .... ....|--- .... ....|--- .... ....
....|..|--- .... ....|--- .... ....|--- .... ....
 G-4|..|F-5 2FF7 ....|E-5 4F.7 ....|G-2 2ADF ....
 G-4|..|--- .... ....|--- .... ....|G-2 2ADF ....
....|..|--- .... ....|--- .... ....|--- .... ....
....|..|--- .... ....|--- .... ....|--- .... ....
 F-4|..|F-5 2CFF ....|F-5 4F.F ....|G-1 2FDF ....
 D-4|..|D-5 2CFF ....|D-5 4F.F ....|G-2 2FDA ....
....|..|--- .... ....|--- .... ....|--- .... ....
....|..|--- .... ....|--- .... ....|--- .... ....
 B-4|..|B-4 2CFF ....|B-4 4F.F ....|G-2 2FDF ....
 G-4|..|--- .F.. ....|--- .... ....|G-2 2ADF ....
....|..|F-5 2FFA ....|R-- .... ....|--- .... ....
....|..|D-5 2FFA ....|--- .... ....|--- .... ....

[Pattern7]
 C-3|..|C-5 2CFF ....|A-3 3F2F ....|F-1 2FDF ....
....|..|--- .... ....|--- .... ....|G-2 2FDA ....
....|..|B-4 2FFA ....|--- .... ....|--- .... ....
....|..|--- .... ....|--- .... ....|--- .... ....
 F-4|..|F-5 2FF7 ....|F-5 4F.A ....|F-2 2ADF ....
 F-4|..|D-5 2FF7 ....|D-5 4F.A ....|F-2 2ADF ....
....|..|C-5 2FFA ....|A-3 3F2A ....|--- .... ....
....|..|--- .... ....|--- .... ....|--- .... ....
 F-4|..|B-4 2FF7 ....|B-4 4F.A ....|F-2 2ADF ....
 F-3|..|--- .... ....|--- .... ....|F-1 2ADF ....
....|..|--- .... ....|R-- .... ....|--- .... ....
....|..|--- .... ....|--- .... ....|--- .... ....
 F-4|..|C-5 2FF7 ....|C-5 4F.A ....|F-2 2ADF ....
 F-4|..|--- .... ....|--- .... ....|F-2 2ADF ....
....|..|--- .... ....|--- .... ....|--- .... ....
....|..|--- .... ....|--- .... ....|--- .... ....
 F-4|..|--- .... ....|F-5 4F.7 ....|F-2 2ADF ....
 F-3|..|--- .... ....|D-5 4F.7 ....|F-1 2ADF ....
....|..|--- .... ....|--- .... ....|--- .... ....
....|..|--- .... ....|--- .... ....|--- .... ....
 F-4|..|--- .... ....|B-4 4F.7 ....|F-2 2ADF ....
....|..|--- .... ....|--- .... ....|G-2 2FD7 ....
....|..|--- .... ....|--- .... ....|--- .... ....
....|..|--- .... ....|--- .... ....|--- .... ....
 F-4|..|--- .... ....|C-5 4F.7 ....|F-2 2ADF ....
 F-3|..|--- .... ....|--- .... ....|F-1 2ADF ....
....|..|--- .... ....|--- .... ....|--- .... ....
....|..|--- .... ....|--- .... ....|--- .... ....
 F-4|..|--- .... ....|A-3 3F.F ....|F-2 2ADF ....
 F-4|..|--- .... ....|R-- .... ....|F-2 2ADF ....
....|..|--- .... ....|--- .... ....|--- .... ....
....|..|--- .... ....|--- .... ....|--- .... ....
 E-3|..|--- .... ....|G-3 3F3F ....|E-1 2ADF ....
....|..|--- .... ....|--- .... ....|F-1 2FD7 ....
....|..|--- .... ....|A-3 3F.A ....|--- .... ....
....|..|--- .... ....|R-- .... ....|--- .... ....
 E-4|..|--- .... ....|--- .... ....|E-2 2ADF ....
 E-4|..|--- .... ....|--- .... ....|E-2 2ADF ....
....|..|--- .... ....|G-3 3F3A ....|--- .... ....
....|..|R-- .... ....|R-- .... ....|--- .... ....
 B-4|..|B-5 2CFF ....|B-5 4F.F ....|E-1 2FDF ....
....|..|--- .... ....|R-- .... ....|F-1 2FD7 ....
....|..|--- .... ....|--- .... ....|--- .... ....
....|..|--- .... ....|--- .... ....|--- .... ....
 E-4|..|R-- .... ....|R-- .... ....|E-2 2ADF ....
....|..|R-- .... ....|--- .... ....|--- .... ....
....|..|B-5 2FFA ....|--- .... ....|--- .... ....
....|..|--- .... ....|--- .... ....|--- .... ....
 C-3|..|C-6 2CFF ....|G-3 3F1F ....|E-2 2FDF ....
 E-3|..|--- .F.. ....|--- .... ....|E-1 2ADF ....
....|..|R-- .... ....|--- .... ....|--- .... ....
....|..|R-- .... ....|R-- .... ....|--- .... ....
 E-4|..|B-5 2FF7 ....|B-5 4F.A ....|E-2 2ADF ....
 E-4|..|R-- .... ....|R-- .... ....|E-2 2ADF ....
....|..|C-6 2FFA ....|G-3 3F1A ....|R-- .... ....
....|..|--- .... ....|--- .... ....|--- .... ....
 B-4|..|B-5 2CFF ....|B-5 4F.F ....|E-1 2FDF ....
....|..|--- .... ....|--- .... ....|--- .... ....
....|..|--- .... ....|--- .... ....|--- .... ....
....|..|R-- .... ....|--- .... ....|--- .... ....
 E-4|..|C-6 2FF7 ....|C-6 4F.A ....|E-2 2ADF ....
....|..|--- .... ....|--- .... ....|E-2 2FD7 ....
....|..|B-5 2FFA ....|--- .... ....|R-- .... ....
....|..|--- .... ....|R-- .... ....|--- .... ....

[Pattern8]
 C-3|..|C-5 2CFF ....|C-4 3F1F ....|C-3 2CDF ....
....|..|R-- .... ....|R-- .... ....|E-2 2FDA ....
....|..|R-- .... ....|--- .... ....|R-- .... ....
....|..|R-- .... ....|R-- .... ....|--- .... ....
 B-4|..|B-4 2CFF ....|B-4 4F.F ....|C-3 2FDF ....
....|..|--- .... ....|--- .... ....|--- .... ....
....|..|C-5 2FFA ....|C-4 3F1A ....|--- .... ....
....|..|R-- .... ....|R-- .... ....|--- .... ....
 C-3|..|C-5 2CFF ....|C-5 4F.F ....|C-3 2CDF ....
....|..|R-- .... ....|--- .... ....|E-1 2FD7 ....
....|..|B-4 2FFA ....|--- .... ....|R-- .... ....
....|..|--- .... ....|--- .... ....|--- .... ....
 C-3|..|C-5 2FF7 ....|C-5 4F.A ....|C-3 2CDF ....
....|..|R-- .... ....|R-- .... ....|E-2 2FD7 ....
....|..|C-5 2FFA ....|--- .... ....|R-- .... ....
....|..|R-- .... ....|R-- .... ....|--- .... ....
 C-3|..|B-4 2FF7 ....|B-5 4F.7 ....|C-3 2CDF ....
 C-4|..|--- .... ....|--- .... ....|C-2 2ADF ....
....|..|--- .... ....|--- .... ....|--- .... ....
....|..|R-- .... ....|R-- .... ....|--- .... ....
 C-3|..|C-5 2FF7 ....|C-5 4F.A ....|C-3 2CDF ....
....|..|--- .... ....|--- .... ....|--- .... ....
....|..|--- .... ....|--- .... ....|R-- .... ....
....|..|--- .... ....|--- .... ....|--- .... ....
 C-4|..|--- .... ....|C-5 4F.7 ....|C-2 2ADF ....
....|..|--- .... ....|--- .... ....|--- .... ....
....|..|--- .... ....|--- .... ....|--- .... ....
....|..|--- .... ....|R-- .... ....|--- .... ....
 C-3|..|--- .... ....|B-4 4F.7 ....|C-3 2CDF ....
 C-3|..|--- .... ....|--- .... ....|C-3 2CDF ....
....|..|--- .... ....|R-- .... ....|--- .... ....
....|..|--- .... ....|R-- .... ....|--- .... ....
 D-4|..|D-4 2CFF ....|G-3 3F1F ....|G-1 2FDF ....
....|..|--- .... ....|--- .... ....|--- .... ....
....|..|--- .... ....|--- .... ....|--- .... ....
....|..|--- .... ....|--- .... ....|--- .... ....
 G-4|..|--- .F.. ....|R-- .... ....|G-2 2ADF ....
 G-4|..|--- .... ....|--- .... ....|G-2 2ADF ....
....|..|D-4 2FFA ....|G-3 3F1A ....|--- .... ....
....|..|--- .... ....|--- .... ....|--- .... ....
 G-3|..|--- .... ....|--- .... ....|G-1 2ADF ....
....|..|--- .... ....|--- .... ....|C-2 2FD7 ....
....|..|--- .... ....|R-- .... ....|--- .... ....
....|..|--- .... ....|--- .... ....|--- .... ....
 G-4|..|D-4 2FF7 ....|D-4 4F.A ....|G-2 2ADF ....
 G-4|..|--- .... ....|--- .... ....|G-2 2ADF ....
....|..|--- .... ....|--- .... ....|--- .... ....
....|..|--- .... ....|--- .... ....|--- .... ....
 E-4|..|E-4 2CFF ....|E-4 4F.F ....|G-2 2FDF ....
 G-3|..|--- .F.. ....|--- .... ....|G-1 2ADF ....
....|..|--- .... ....|--- .... ....|--- .... ....
....|..|--- .... ....|--- .... ....|--- .... ....
 G-4|..|R-- .... ....|R-- .... ....|G-2 2ADF ....
 G-4|..|--- .... ....|--- .... ....|G-2 2ADF ....
....|..|E-4 2FFA ....|--- .... ....|--- .... ....
....|..|--- .... ....|--- .... ....|--- .... ....
 F-4|..|F-4 2CFF ....|F-4 4F.F ....|G-1 2FDF ....
....|..|--- .... ....|--- .... ....|G-2 2FDA ....
....|..|R-- .... ....|--- .... ....|--- .... ....
....|..|--- .... ....|--- .... ....|--- .... ....
 G-4|..|E-4 2FF7 ....|E-4 4F.A ....|G-2 2ADF ....
 G-4|..|--- .... ....|--- .... ....|G-2 2ADF ....
....|..|F-4 2FFA ....|R-- .... ....|--- .... ....
....|..|--- .... ....|--- .... ....|--- .... ....

[Pattern9]
 C-3|..|C-5 2CFF ....|A-3 3F2F ....|F-1 2FDF ....
....|..|--- .... ....|--- .... ....|G-2 2FDA ....
....|..|R-- .... ....|--- .... ....|--- .... ....
....|..|--- .... ....|--- .... ....|--- .... ....
 F-4|..|F-4 2FF7 ....|F-4 4F.A ....|F-2 2ADF ....
 F-4|..|--- .... ....|--- .... ....|F-2 2ADF ....
....|..|C-5 2FFA ....|A-3 3F2A ....|--- .... ....
....|..|--- .... ....|--- .... ....|--- .... ....
 F-4|..|R-- .... ....|E-4 4F.7 ....|F-2 2ADF ....
 F-3|..|--- .... ....|--- .... ....|F-1 2ADF ....
....|..|--- .... ....|R-- .... ....|--- .... ....
....|..|--- .... ....|--- .... ....|--- .... ....
 F-4|..|C-5 2FF7 ....|C-5 4F.A ....|F-2 2ADF ....
 F-4|..|--- .... ....|--- .... ....|F-2 2ADF ....
....|..|--- .... ....|--- .... ....|--- .... ....
....|..|--- .... ....|--- .... ....|--- .... ....
 D-4|..|D-4 2CFF ....|D-4 4F.F ....|F-2 2FDF ....
 F-3|..|--- .F.. ....|--- .... ....|F-1 2ADF ....
....|..|--- .... ....|--- .... ....|--- .... ....
....|..|--- .... ....|--- .... ....|--- .... ....
 F-4|..|R-- .... ....|R-- .... ....|F-2 2ADF ....
....|..|--- .... ....|--- .... ....|G-2 2FD7 ....
....|..|D-4 2FFA ....|--- .... ....|--- .... ....
....|..|--- .... ....|--- .... ....|--- .... ....
 E-4|..|E-4 2CFF ....|E-4 4F.F ....|F-2 2FDF ....
 F-3|..|--- .F.. ....|--- .... ....|F-1 2ADF ....
....|..|R-- .... ....|--- .... ....|--- .... ....
....|..|--- .... ....|--- .... ....|--- .... ....
 F-4|..|D-4 2FF7 ....|A-3 3F.F ....|F-2 2ADF ....
 F-4|..|--- .... ....|R-- .... ....|F-2 2ADF ....
....|..|E-4 2FFA ....|--- .... ....|--- .... ....
....|..|--- .... ....|--- .... ....|--- .... ....
 B-4|..|B-4 2CFF ....|G-3 3F3F ....|E-1 2FDF ....
....|..|--- .... ....|--- .... ....|F-1 2FD7 ....
....|..|R-- .... ....|A-3 3F.A ....|--- .... ....
....|..|--- .... ....|R-- .... ....|--- .... ....
 E-4|..|E-4 2FF7 ....|E-4 4F.A ....|E-2 2ADF ....
 E-4|..|--- .... ....|--- .... ....|E-2 2ADF ....
....|..|B-4 2FFA ....|G-3 3F3A ....|--- .... ....
....|..|--- .... ....|--- .... ....|--- .... ....
 E-3|..|R-- .... ....|A-3 3F.7 ....|E-1 2ADF ....
....|..|--- .... ....|R-- .... ....|F-1 2FD7 ....
....|..|--- .... ....|--- .... ....|--- .... ....
....|..|--- .... ....|--- .... ....|--- .... ....
 E-4|..|B-4 2FF7 ....|B-4 4F.A ....|E-2 2ADF ....
....|..|--- .... ....|--- .... ....|--- .... ....
....|..|--- .... ....|--- .... ....|--- .... ....
....|..|--- .... ....|--- .... ....|--- .... ....
 D-4|..|D-4 2CFF ....|F-3 3F3F ....|E-2 2FDF ....
 E-3|..|--- .F.. ....|--- .... ....|E-1 2ADF ....
....|..|--- .... ....|--- .... ....|--- .... ....
....|..|--- .... ....|--- .... ....|--- .... ....
 E-4|..|E-4 2CFF ....|E-4 4F.F ....|E-3 2CDF ....
 E-4|..|--- .... ....|--- .... ....|E-2 2ADF ....
 F-4|..|F-4 2CFF ....|F-4 4F.F ....|R-- .... ....
....|..|--- .... ....|--- .... ....|--- .... ....
 E-4|..|E-4 2CFF ....|E-4 4F.F ....|E-2 2ADF ....
....|..|--- .... ....|--- .... ....|--- .... ....
....|..|E-4 2FFA ....|--- .... ....|--- .... ....
....|..|--- .... ....|--- .... ....|--- .... ....
 F-4|..|F-4 2CFF ....|F-4 4F.F ....|E-2 2FDF ....
....|..|--- .... ....|--- .... ....|E-2 2FD7 ....
....|..|E-4 2FFA ....|--- .... ....|R-- .... ....
....|..|--- .... ....|--- .... ....|--- .... ....

[Pattern10]
 G-3|..|E-4 2FF7 ....|C-4 3F1F ....|G-1 2ADF ....
....|..|--- .... ....|--- .... ....|E-2 2FDA ....
....|..|F-4 2FF7 ....|F-4 4F.A ....|R-- .... ....
....|..|--- .... ....|--- .... ....|--- .... ....
....|..|E-4 2FF7 ....|E-4 4F.A ....|E-2 2FD7 ....
....|..|--- .... ....|--- .... ....|--- .... ....
....|..|R-- .... ....|C-4 3F1A ....|R-- .... ....
....|..|--- .... ....|--- .... ....|--- .... ....
 G-3|..|F-4 2FF7 ....|D-4 4F.7 ....|G-1 2ADF ....
....|..|--- .... ....|--- .... ....|E-1 2FD7 ....
....|..|--- .... ....|--- .... ....|R-- .... ....
....|..|--- .... ....|--- .... ....|--- .... ....
....|..|R-- .... ....|C-4 3F17 ....|E-2 2FD7 ....
....|..|--- .... ....|--- .... ....|E-2 2FD7 ....
....|..|--- .... ....|F-4 4F.7 ....|R-- .... ....
....|..|--- .... ....|--- .... ....|--- .... ....
 G-3|..|--- .... ....|B-3 3F4F ....|G-1 2ADF ....
....|..|--- .... ....|--- .... ....|--- .... ....
....|..|--- .... ....|--- .... ....|R-- .... ....
....|..|--- .... ....|--- .... ....|--- .... ....
....|..|--- .... ....|F-4 4F.7 ....|E-2 2FD7 ....
....|..|--- .... ....|--- .... ....|--- .... ....
....|..|--- .... ....|B-3 3F4A ....|R-- .... ....
....|..|--- .... ....|--- .... ....|--- .... ....
 G-3|..|--- .... ....|R-- .... ....|G-1 2ADF ....
....|..|--- .... ....|--- .... ....|--- .... ....
....|..|--- .... ....|--- .... ....|R-- .... ....
....|..|--- .... ....|--- .... ....|--- .... ....
....|..|--- .... ....|B-3 3F47 ....|G-1 2FDA ....
....|..|--- .... ....|--- .... ....|--- .... ....
....|..|--- .... ....|--- .... ....|R-- .... ....
....|..|--- .... ....|--- .... ....|--- .... ....
 E-4|..|--- .... ....|A-3 3F2F ....|E-2 2ADF ....
....|..|--- .... ....|--- .... ....|--- .... ....
....|..|--- .... ....|--- .... ....|R-- .... ....
....|..|--- .... ....|--- .... ....|--- .... ....
....|..|--- .... ....|--- .... ....|G-1 2FDA ....
....|..|--- .... ....|--- .... ....|--- .... ....
....|..|--- .... ....|A-3 3F2A ....|R-- .... ....
....|..|--- .... ....|--- .... ....|--- .... ....
 E-4|..|--- .... ....|--- .... ....|E-2 2ADF ....
....|..|--- .... ....|--- .... ....|--- .... ....
....|..|--- .... ....|--- .... ....|R-- .... ....
....|..|--- .... ....|--- .... ....|--- .... ....
....|..|--- .... ....|A-3 3F27 ....|E-2 2FDA ....
....|..|--- .... ....|--- .... ....|--- .... ....
....|..|--- .... ....|--- .... ....|R-- .... ....
....|..|--- .... ....|--- .... ....|--- .... ....
 E-4|..|--- .... ....|--- .... ....|E-2 2ADF ....
....|..|--- .... ....|--- .... ....|--- .... ....
....|..|--- .... ....|--- .... ....|R-- .... ....
....|..|--- .... ....|--- .... ....|--- .... ....
....|..|--- .... ....|--- .... ....|E-2 2FDA ....
....|..|--- .... ....|--- .... ....|--- .... ....
....|..|--- .... ....|--- .... ....|R-- .... ....
....|..|--- .... ....|--- .... ....|--- .... ....
 E-4|..|--- .... ....|--- .... ....|E-2 2ADF ....
....|..|--- .... ....|--- .... ....|--- .... ....
....|..|--- .... ....|--- .... ....|R-- .... ....
....|..|--- .... ....|--- .... ....|--- .... ....
....|..|--- .... ....|--- .... ....|E-2 2FDA ....
....|..|--- .... ....|--- .... ....|--- .... ....
....|..|--- .... ....|R-- .... ....|R-- .... ....
....|..|--- .... ....|--- .... ....|--- .... ....

[Pattern11]
 G-4|..|--- .... ....|A-3 3F2F ....|G-2 2ADF ....
....|..|--- .... ....|--- .... ....|--- .... ....
....|..|--- .... ....|--- .... ....|R-- .... ....
....|..|--- .... ....|--- .... ....|--- .... ....
....|..|--- .... ....|R-- .... ....|E-2 2FDA ....
....|..|--- .... ....|--- .... ....|--- .... ....
....|..|--- .... ....|A-3 3F2A ....|R-- .... ....
....|..|--- .... ....|--- .... ....|--- .... ....
 G-4|..|--- .... ....|--- .... ....|G-2 2ADF ....
....|..|--- .... ....|--- .... ....|--- .... ....
....|..|--- .... ....|R-- .... ....|R-- .... ....
....|..|--- .... ....|--- .... ....|--- .... ....
....|..|--- .... ....|A-3 3F27 ....|G-2 2FDA ....
....|..|--- .... ....|--- .... ....|--- .... ....
....|..|--- .... ....|--- .... ....|R-- .... ....
....|..|--- .... ....|--- .... ....|--- .... ....
 G-4|..|--- .... ....|D-4 3F5F ....|G-2 2ADF ....
....|..|--- .... ....|--- .... ....|--- .... ....
....|..|--- .... ....|--- .... ....|R-- .... ....
....|..|--- .... ....|--- .... ....|--- .... ....
....|..|--- .... ....|--- .... ....|G-2 2FDA ....
....|..|--- .... ....|--- .... ....|--- .... ....
....|..|--- .... ....|D-4 3F5A ....|R-- .... ....
....|..|--- .... ....|--- .... ....|--- .... ....
 G-4|..|--- .... ....|--- .... ....|G-2 2ADF ....
....|..|--- .... ....|--- .... ....|--- .... ....
....|..|--- .... ....|--- .... ....|R-- .... ....
....|..|--- .... ....|--- .... ....|--- .... ....
....|..|--- .... ....|D-4 3F57 ....|G-2 2FDA ....
....|..|--- .... ....|--- .... ....|--- .... ....
....|..|--- .... ....|--- .... ....|R-- .... ....
....|..|--- .... ....|--- .... ....|--- .... ....
 C-4|..|--- .... ....|E-4 3F6F ....|C-2 2ADF ....
....|..|--- .... ....|--- .... ....|--- .... ....
....|..|--- .... ....|--- .... ....|R-- .... ....
....|..|--- .... ....|--- .... ....|--- .... ....
....|..|--- .... ....|--- .... ....|G-2 2FDA ....
....|..|--- .... ....|--- .... ....|--- .... ....
....|..|--- .... ....|E-4 3F6A ....|R-- .... ....
....|..|--- .... ....|--- .... ....|--- .... ....
 C-4|..|--- .... ....|--- .... ....|C-2 2ADF ....
....|..|--- .... ....|--- .... ....|--- .... ....
....|..|--- .... ....|--- .... ....|R-- .... ....
....|..|--- .... ....|--- .... ....|--- .... ....
....|..|--- .... ....|E-4 3F67 ....|C-2 2FDA ....
....|..|--- .... ....|--- .... ....|--- .... ....
....|..|--- .... ....|--- .... ....|R-- .... ....
....|..|--- .... ....|--- .... ....|--- .... ....
 C-4|..|--- .... ....|G-4 3F1F ....|C-2 2ADF ....
....|..|--- .... ....|--- .... ....|--- .... ....
....|..|--- .... ....|--- .... ....|R-- .... ....
....|..|--- .... ....|--- .... ....|--- .... ....
....|..|--- .... ....|--- .... ....|C-2 2FDA ....
....|..|--- .... ....|--- .... ....|--- .... ....
....|..|--- .... ....|G-4 3F1A ....|R-- .... ....
....|..|--- .... ....|--- .... ....|--- .... ....
 C-4|..|--- .... ....|--- .... ....|C-2 2ADF ....
....|..|--- .... ....|--- .... ....|--- .... ....
....|..|--- .... ....|--- .... ....|R-- .... ....
....|..|--- .... ....|--- .... ....|--- .... ....
....|..|--- .... ....|G-4 3F17 ....|C-2 2FDA ....
....|..|--- .... ....|--- .... ....|--- .... ....
....|..|--- .... ....|--- .... ....|R-- .... ....
....|..|--- .... ....|--- .... ....|--- .... ....

[Pattern12]
 G-3|..|--- .... ....|C-4 3F1F ....|G-1 2ADF ....
....|..|--- .... ....|--- .... ....|--- .... ....
....|..|--- .... ....|--- .... ....|R-- .... ....
....|..|--- .... ....|--- .... ....|--- .... ....
....|..|--- .... ....|--- .... ....|C-2 2FDA ....
....|..|--- .... ....|--- .... ....|--- .... ....
....|..|--- .... ....|C-4 3F1A ....|R-- .... ....
....|..|--- .... ....|--- .... ....|--- .... ....
 G-3|..|--- .... ....|--- .... ....|G-1 2ADF ....
....|..|--- .... ....|--- .... ....|--- .... ....
....|..|--- .... ....|--- .... ....|R-- .... ....
....|..|--- .... ....|--- .... ....|--- .... ....
....|..|--- .... ....|C-4 3F17 ....|G-1 2FDA ....
....|..|--- .... ....|--- .... ....|--- .... ....
....|..|--- .... ....|--- .... ....|R-- .... ....
....|..|--- .... ....|--- .... ....|--- .... ....
 G-3|..|--- .... ....|B-3 3F4F ....|G-1 2ADF ....
....|..|--- .... ....|--- .... ....|--- .... ....
....|..|--- .... ....|--- .... ....|R-- .... ....
....|..|--- .... ....|--- .... ....|--- .... ....
....|..|--- .... ....|--- .... ....|G-1 2FDA ....
....|..|--- .... ....|--- .... ....|--- .... ....
....|..|--- .... ....|B-3 3F4A ....|R-- .... ....
....|..|--- .... ....|--- .... ....|--- .... ....
 G-3|..|--- .... ....|--- .... ....|G-1 2ADF ....
....|..|--- .... ....|--- .... ....|--- .... ....
....|..|--- .... ....|--- .... ....|R-- .... ....
....|..|--- .... ....|--- .... ....|--- .... ....
....|..|--- .... ....|B-3 3F47 ....|G-1 2FDA ....
....|..|--- .... ....|--- .... ....|--- .... ....
....|..|--- .... ....|--- .... ....|R-- .... ....
....|..|--- .... ....|--- .... ....|--- .... ....
 E-4|..|--- .... ....|A-3 3F2F ....|E-2 2ADF ....
....|..|--- .... ....|--- .... ....|--- .... ....
....|..|--- .... ....|--- .... ....|R-- .... ....
....|..|--- .... ....|--- .... ....|--- .... ....
....|..|--- .... ....|--- .... ....|G-1 2FDA ....
....|..|--- .... ....|--- .... ....|--- .... ....
....|..|--- .... ....|A-3 3F2A ....|R-- .... ....
....|..|--- .... ....|--- .... ....|--- .... ....
 E-4|..|--- .... ....|--- .... ....|E-2 2ADF ....
....|..|--- .... ....|--- .... ....|--- .... ....
....|..|--- .... ....|--- .... ....|R-- .... ....
....|..|--- .... ....|--- .... ....|--- .... ....
....|..|--- .... ....|A-3 3F27 ....|E-2 2FDA ....
....|..|--- .... ....|--- .... ....|--- .... ....
....|..|--- .... ....|--- .... ....|R-- .... ....
....|..|--- .... ....|--- .... ....|--- .... ....
 E-4|..|--- .... ....|--- .... ....|E-2 2ADF ....
....|..|--- .... ....|--- .... ....|--- .... ....
....|..|--- .... ....|--- .... ....|R-- .... ....
....|..|--- .... ....|--- .... ....|--- .... ....
....|..|--- .... ....|--- .... ....|E-2 2FDA ....
....|..|--- .... ....|--- .... ....|--- .... ....
....|..|--- .... ....|--- .... ....|R-- .... ....
....|..|--- .... ....|--- .... ....|--- .... ....
 E-4|..|--- .... ....|--- .... ....|E-2 2ADF ....
....|..|--- .... ....|--- .... ....|--- .... ....
....|..|--- .... ....|--- .... ....|R-- .... ....
....|..|--- .... ....|--- .... ....|--- .... ....
....|..|--- .... ....|--- .... ....|E-2 2FDA ....
....|..|--- .... ....|--- .... ....|--- .... ....
....|..|--- .... ....|R-- .... ....|R-- .... ....
....|..|--- .... ....|--- .... ....|--- .... ....

[Pattern14]
 C-3|..|C-6 2CFF ....|C-4 3F1F ....|C-3 2CDF ....
....|..|--- .... ....|--- .... ....|--- .... ....
....|..|--- .... ....|--- .... ....|R-- .... ....
....|..|--- .... ....|--- .... ....|--- .... ....
 C-3|..|--- .... ....|--- .... ....|C-3 2CDF ....
....|..|--- .... ....|--- .... ....|--- .... ....
....|..|C-6 2FFA ....|C-4 3F1A ....|R-- .... ....
....|..|--- .... ....|--- .... ....|--- .... ....
 C-4|..|--- .... ....|--- .... ....|C-2 2ADF ....
....|..|--- .... ....|--- .... ....|--- .... ....
....|..|--- .... ....|--- .... ....|R-- .... ....
....|..|--- .... ....|--- .... ....|--- .... ....
 C-3|..|C-6 2FF7 ....|C-6 4F.A ....|C-3 2CDF ....
....|..|--- .... ....|--- .... ....|--- .... ....
....|..|--- .... ....|--- .... ....|R-- .... ....
....|..|--- .... ....|--- .... ....|--- .... ....
 G-4|..|G-5 2CFF ....|G-5 4F.F ....|C-3 2FDF ....
 C-4|..|--- .F.. ....|--- .... ....|C-2 2ADF ....
....|..|R-- .... ....|--- .... ....|--- .... ....
....|..|--- .... ....|--- .... ....|--- .... ....
 C-3|..|--- .... ....|--- .... ....|C-3 2CDF ....
....|..|--- .... ....|--- .... ....|--- .... ....
....|..|G-5 2FFA ....|--- .... ....|R-- .... ....
....|..|--- .... ....|--- .... ....|--- .... ....
 C-4|..|R-- .... ....|C-6 4F.7 ....|C-2 2ADF ....
....|..|--- .... ....|--- .... ....|--- .... ....
....|..|--- .... ....|--- .... ....|--- .... ....
....|..|--- .... ....|--- .... ....|--- .... ....
 A-3|..|A-5 2CFF ....|A-5 4F.F ....|C-3 2FDF ....
 C-3|..|--- .F.. ....|--- .... ....|C-3 2CDF ....
....|..|--- .... ....|R-- .... ....|--- .... ....
....|..|R-- .... ....|R-- .... ....|--- .... ....
 B-4|..|B-5 2CFF ....|G-3 3F1F ....|G-1 2FDF ....
....|..|--- .... ....|--- .... ....|--- .... ....
....|..|A-5 2FFA ....|--- .... ....|--- .... ....
....|..|--- .... ....|--- .... ....|--- .... ....
 G-4|..|--- .... ....|R-- .... ....|G-2 2ADF ....
 G-4|..|R-- .... ....|--- .... ....|G-2 2ADF ....
....|..|B-5 2FFA ....|G-3 3F1A ....|--- .... ....
....|..|--- .... ....|--- .... ....|--- .... ....
 D-4|..|D-5 2CFF ....|D-5 4F.F ....|G-1 2FDF ....
....|..|--- .... ....|--- .... ....|C-2 2FD7 ....
....|..|--- .... ....|R-- .... ....|--- .... ....
....|..|R-- .... ....|R-- .... ....|--- .... ....
 G-4|..|B-5 2FF7 ....|B-5 4F.A ....|G-2 2ADF ....
 G-4|..|--- .... ....|--- .... ....|G-2 2ADF ....
....|..|D-5 2FFA ....|--- .... ....|--- .... ....
....|..|--- .... ....|--- .... ....|--- .... ....
 G-4|..|--- .... ....|--- .... ....|G-2 2ADF ....
 G-3|..|--- .... ....|--- .... ....|G-1 2ADF ....
....|..|--- .... ....|--- .... ....|--- .... ....
....|..|--- .... ....|--- .... ....|--- .... ....
 G-4|..|D-5 2FF7 ....|A-5 4F.7 ....|G-2 2ADF ....
 G-4|..|--- .... ....|--- .... ....|G-2 2ADF ....
....|..|--- .... ....|--- .... ....|--- .... ....
....|..|--- .... ....|R-- .... ....|--- .... ....
 E-4|..|E-5 2CFF ....|E-5 4F.F ....|G-1 2FDF ....
 E-4|..|E-5 2CFF ....|E-5 4F.F ....|G-2 2FDA ....
....|..|--- .... ....|--- .... ....|--- .... ....
....|..|--- .... ....|--- .... ....|--- .... ....
 F-4|..|F-5 2CFF ....|F-5 4F.F ....|G-2 2FDF ....
 G-4|..|--- .F.. ....|--- .... ....|G-2 2ADF ....
....|..|E-5 2FFA ....|R-- .... ....|--- .... ....
....|..|E-5 2FFA ....|--- .... ....|--- .... ....

[Pattern15]
 F-4|..|F-5 2CFF ....|A-3 3F2F ....|F-2 2ADF ....
 C-3|..|C-5 2CFF ....|C-5 4F.F ....|G-2 2FDA ....
....|..|F-5 2FFA ....|--- .... ....|--- .... ....
....|..|--- .... ....|--- .... ....|--- .... ....
 F-4|..|E-5 2FF7 ....|E-5 4F.A ....|F-2 2ADF ....
 F-4|..|E-5 2FF7 ....|E-5 4F.A ....|F-2 2ADF ....
....|..|F-5 2FFA ....|A-3 3F2A ....|--- .... ....
....|..|C-5 2FFA ....|--- .... ....|--- .... ....
 F-4|..|F-5 2FF7 ....|F-5 4F.A ....|F-2 2ADF ....
 F-3|..|--- .... ....|--- .... ....|F-1 2ADF ....
....|..|--- .... ....|R-- .... ....|--- .... ....
....|..|--- .... ....|--- .... ....|--- .... ....
 F-4|..|F-5 2FF7 ....|F-5 4F.A ....|F-2 2ADF ....
 F-4|..|C-5 2FF7 ....|C-5 4F.A ....|F-2 2ADF ....
....|..|--- .... ....|--- .... ....|--- .... ....
....|..|--- .... ....|--- .... ....|--- .... ....
 F-4|..|--- .... ....|E-5 4F.7 ....|F-2 2ADF ....
 F-3|..|--- .... ....|E-5 4F.7 ....|F-1 2ADF ....
....|..|--- .... ....|--- .... ....|--- .... ....
....|..|--- .... ....|--- .... ....|--- .... ....
 F-4|..|--- .... ....|F-5 4F.7 ....|F-2 2ADF ....
....|..|--- .... ....|--- .... ....|G-2 2FD7 ....
....|..|--- .... ....|--- .... ....|--- .... ....
....|..|--- .... ....|--- .... ....|--- .... ....
 F-4|..|--- .... ....|F-5 4F.7 ....|F-2 2ADF ....
 F-3|..|--- .... ....|C-5 4F.7 ....|F-1 2ADF ....
....|..|--- .... ....|--- .... ....|--- .... ....
....|..|--- .... ....|--- .... ....|--- .... ....
 F-4|..|--- .... ....|A-3 3F.F ....|F-2 2ADF ....
 F-4|..|--- .... ....|R-- .... ....|F-2 2ADF ....
....|..|--- .... ....|--- .... ....|--- .... ....
....|..|--- .... ....|--- .... ....|--- .... ....
 E-3|..|--- .... ....|G-3 3F3F ....|E-1 2ADF ....
....|..|--- .... ....|--- .... ....|F-1 2FD7 ....
....|..|--- .... ....|A-3 3F.A ....|--- .... ....
....|..|--- .... ....|R-- .... ....|--- .... ....
 E-4|..|--- .... ....|--- .... ....|E-2 2ADF ....
 E-4|..|--- .... ....|--- .... ....|E-2 2ADF ....
....|..|--- .... ....|G-3 3F3A ....|--- .... ....
....|..|R-- .... ....|R-- .... ....|--- .... ....
 B-4|..|B-4 2CFF ....|B-4 4F.F ....|E-1 2FDF ....
....|..|--- .... ....|R-- .... ....|F-1 2FD7 ....
....|..|--- .... ....|--- .... ....|--- .... ....
....|..|--- .... ....|--- .... ....|--- .... ....
 E-4|..|R-- .... ....|R-- .... ....|E-2 2ADF ....
....|..|R-- .... ....|--- .... ....|--- .... ....
....|..|B-4 2FFA ....|--- .... ....|--- .... ....
....|..|--- .... ....|--- .... ....|--- .... ....
 C-3|..|C-5 2CFF ....|G-3 3F1F ....|E-2 2FDF ....
 E-3|..|--- .F.. ....|--- .... ....|E-1 2ADF ....
....|..|R-- .... ....|--- .... ....|--- .... ....
....|..|R-- .... ....|R-- .... ....|--- .... ....
 E-4|..|B-4 2FF7 ....|B-4 4F.A ....|E-2 2ADF ....
 E-4|..|R-- .... ....|R-- .... ....|E-2 2ADF ....
....|..|C-5 2FFA ....|G-3 3F1A ....|R-- .... ....
....|..|--- .... ....|--- .... ....|--- .... ....
 B-4|..|B-4 2CFF ....|B-4 4F.F ....|E-1 2FDF ....
....|..|--- .... ....|--- .... ....|--- .... ....
....|..|--- .... ....|--- .... ....|--- .... ....
....|..|R-- .... ....|--- .... ....|--- .... ....
 E-4|..|C-5 2FF7 ....|C-5 4F.A ....|E-2 2ADF ....
....|..|--- .... ....|--- .... ....|E-2 2FD7 ....
....|..|B-4 2FFA ....|--- .... ....|R-- .... ....
....|..|--- .... ....|R-- .... ....|--- .... ....

[Pattern16]
 G-4|..|G-5 2CFF ....|C-4 3F1F ....|C-2 2FDF ....
....|..|R-- .... ....|R-- .... ....|E-2 2FDA ....
....|..|R-- .... ....|--- .... ....|R-- .... ....
....|..|R-- .... ....|R-- .... ....|--- .... ....
 F-4|..|F-5 2CFF ....|F-5 4F.F ....|C-3 2FDF ....
....|..|--- .... ....|--- .... ....|--- .... ....
....|..|G-5 2FFA ....|C-4 3F1A ....|--- .... ....
....|..|R-- .... ....|R-- .... ....|--- .... ....
 G-4|..|G-5 2CFF ....|G-5 4F.F ....|C-2 2FDF ....
....|..|R-- .... ....|--- .... ....|E-1 2FD7 ....
....|..|F-5 2FFA ....|--- .... ....|R-- .... ....
....|..|--- .... ....|--- .... ....|--- .... ....
 C-3|..|G-5 2FF7 ....|G-5 4F.A ....|C-3 2CDF ....
....|..|R-- .... ....|R-- .... ....|E-2 2FD7 ....
....|..|G-5 2FFA ....|--- .... ....|R-- .... ....
....|..|R-- .... ....|R-- .... ....|--- .... ....
 E-4|..|E-5 2CFF ....|E-5 4F.F ....|C-3 2FDF ....
 C-4|..|--- .F.. ....|--- .... ....|C-2 2ADF ....
....|..|--- .... ....|--- .... ....|--- .... ....
....|..|R-- .... ....|R-- .... ....|--- .... ....
 D-4|..|D-5 2CFF ....|D-5 4F.F ....|C-3 2FDF ....
....|..|--- .... ....|--- .... ....|--- .... ....
....|..|E-5 2FFA ....|--- .... ....|R-- .... ....
....|..|R-- .... ....|R-- .... ....|--- .... ....
 E-4|..|E-5 2CFF ....|E-5 4F.F ....|C-2 2FDF ....
....|..|R-- .... ....|--- .... ....|--- .... ....
....|..|D-5 2FFA ....|--- .... ....|--- .... ....
....|..|--- .... ....|R-- .... ....|--- .... ....
 C-3|..|E-5 2FF7 ....|F-5 4F.7 ....|C-3 2CDF ....
 C-3|..|R-- .... ....|--- .... ....|C-3 2CDF ....
....|..|E-5 2FFA ....|R-- .... ....|--- .... ....
....|..|R-- .... ....|R-- .... ....|--- .... ....
 D-4|..|D-5 2CFF ....|G-3 3F1F ....|G-1 2FDF ....
....|..|--- .... ....|--- .... ....|--- .... ....
....|..|--- .... ....|--- .... ....|--- .... ....
....|..|R-- .... ....|R-- .... ....|--- .... ....
 G-4|..|E-5 2FF7 ....|E-5 4F.A ....|G-2 2ADF ....
 G-4|..|--- .... ....|--- .... ....|G-2 2ADF ....
....|..|D-5 2FFA ....|G-3 3F1A ....|--- .... ....
....|..|--- .... ....|--- .... ....|--- .... ....
 G-3|..|--- .... ....|E-5 4F.7 ....|G-1 2ADF ....
....|..|--- .... ....|--- .... ....|C-2 2FD7 ....
....|..|--- .... ....|R-- .... ....|--- .... ....
....|..|--- .... ....|R-- .... ....|--- .... ....
 G-4|..|D-5 2FF7 ....|G-3 3F17 ....|G-2 2ADF ....
 G-4|..|--- .... ....|--- .... ....|G-2 2ADF ....
....|..|--- .... ....|--- .... ....|--- .... ....
....|..|--- .... ....|R-- .... ....|--- .... ....
 E-4|..|E-5 2CFF ....|E-5 4F.F ....|G-2 2FDF ....
 G-3|..|--- .F.. ....|--- .... ....|G-1 2ADF ....
....|..|--- .... ....|--- .... ....|--- .... ....
....|..|--- .... ....|--- .... ....|--- .... ....
 F-4|..|F-5 2CFF ....|F-5 4F.F ....|G-2 2FDF ....
 G-4|..|--- .F.. ....|--- .... ....|G-2 2ADF ....
....|..|E-5 2FFA ....|--- .... ....|--- .... ....
....|..|--- .... ....|--- .... ....|--- .... ....
 E-4|..|E-5 2CFF ....|E-5 4F.F ....|G-1 2FDF ....
....|..|--- .... ....|--- .... ....|G-2 2FDA ....
....|..|F-5 2FFA ....|--- .... ....|--- .... ....
....|..|--- .... ....|--- .... ....|--- .... ....
 F-4|..|F-5 2CFF ....|F-5 4F.F ....|G-2 2FDF ....
 G-4|..|--- .F.. ....|--- .... ....|G-2 2ADF ....
....|..|E-5 2FFA ....|R-- .... ....|--- .... ....
....|..|--- .... ....|--- .... ....|--- .... ....

[Pattern17]
 C-3|..|C-5 2CFF ....|A-3 3F2F ....|F-1 2FDF ....
....|..|--- .... ....|--- .... ....|G-2 2FDA ....
....|..|F-5 2FFA ....|--- .... ....|--- .... ....
....|..|--- .... ....|--- .... ....|--- .... ....
 B-4|..|B-4 2CFF ....|B-4 4F.F ....|F-2 2FDF ....
 F-4|..|--- .F.. ....|--- .... ....|F-2 2ADF ....
....|..|C-5 2FFA ....|A-3 3F2A ....|--- .... ....
....|..|--- .... ....|--- .... ....|--- .... ....
 C-3|..|C-5 2CFF ....|C-5 4F.F ....|F-2 2FDF ....
 F-3|..|--- .F.. ....|--- .... ....|F-1 2ADF ....
....|..|B-4 2FFA ....|R-- .... ....|--- .... ....
....|..|--- .... ....|--- .... ....|--- .... ....
 F-4|..|C-5 2FF7 ....|A-3 3F27 ....|F-2 2ADF ....
 F-4|..|--- .... ....|--- .... ....|F-2 2ADF ....
....|..|C-5 2FFA ....|--- .... ....|--- .... ....
....|..|--- .... ....|--- .... ....|--- .... ....
 E-4|..|E-5 2CFF ....|E-5 4F.F ....|F-2 2FDF ....
 F-3|..|--- .F.. ....|--- .... ....|F-1 2ADF ....
....|..|R-- .... ....|--- .... ....|--- .... ....
....|..|--- .... ....|--- .... ....|--- .... ....
 D-4|..|D-5 2CFF ....|D-5 4F.F ....|F-2 2FDF ....
....|..|--- .... ....|--- .... ....|G-2 2FD7 ....
....|..|E-5 2FFA ....|--- .... ....|--- .... ....
....|..|--- .... ....|--- .... ....|--- .... ....
 E-4|..|E-5 2CFF ....|E-5 4F.F ....|F-2 2FDF ....
 F-3|..|--- .F.. ....|--- .... ....|F-1 2ADF ....
....|..|D-5 2FFA ....|--- .... ....|--- .... ....
....|..|--- .... ....|--- .... ....|--- .... ....
 F-4|..|E-5 2FF7 ....|A-3 3F.F ....|F-2 2ADF ....
 F-4|..|--- .... ....|R-- .... ....|F-2 2ADF ....
....|..|E-5 2FFA ....|--- .... ....|--- .... ....
....|..|--- .... ....|--- .... ....|--- .... ....
 B-4|..|B-4 2CFF ....|G-3 3F3F ....|E-1 2FDF ....
....|..|--- .... ....|--- .... ....|F-1 2FD7 ....
....|..|R-- .... ....|A-3 3F.A ....|--- .... ....
....|..|--- .... ....|R-- .... ....|--- .... ....
 E-4|..|E-5 2FF7 ....|E-5 4F.A ....|E-2 2ADF ....
 E-4|..|--- .... ....|--- .... ....|E-2 2ADF ....
....|..|B-4 2FFA ....|G-3 3F3A ....|--- .... ....
....|..|--- .... ....|--- .... ....|--- .... ....
 E-3|..|R-- .... ....|A-3 3F.7 ....|E-1 2ADF ....
....|..|--- .... ....|R-- .... ....|F-1 2FD7 ....
....|..|--- .... ....|--- .... ....|--- .... ....
....|..|--- .... ....|--- .... ....|--- .... ....
 E-4|..|B-4 2FF7 ....|G-3 3F37 ....|E-2 2ADF ....
....|..|--- .... ....|--- .... ....|--- .... ....
....|..|--- .... ....|--- .... ....|--- .... ....
....|..|--- .... ....|--- .... ....|--- .... ....
 D-4|..|D-5 2CFF ....|F-3 3F3F ....|E-2 2FDF ....
 E-3|..|--- .F.. ....|--- .... ....|E-1 2ADF ....
....|..|--- .... ....|--- .... ....|--- .... ....
....|..|--- .... ....|--- .... ....|--- .... ....
 E-4|..|--- .... ....|R-- .... ....|E-2 2ADF ....
 E-4|..|--- .... ....|--- .... ....|E-2 2ADF ....
....|..|D-5 2FFA ....|F-3 3F3A ....|R-- .... ....
....|..|--- .... ....|--- .... ....|--- .... ....
 C-3|..|C-5 2CFF ....|C-5 4F.F ....|E-1 2FDF ....
....|..|--- .... ....|--- .... ....|--- .... ....
....|..|--- .... ....|--- .... ....|--- .... ....
....|..|--- .... ....|--- .... ....|--- .... ....
 E-4|..|D-5 2FF7 ....|D-5 4F.A ....|E-2 2ADF ....
....|..|--- .... ....|--- .... ....|E-2 2FD7 ....
....|..|C-5 2FFA ....|--- .... ....|R-- .... ....
....|..|--- .... ....|--- .... ....|--- .... ....

[Pattern18]
 C-3|..|C-6 2CFF ....|C-4 3F1F ....|C-3 2CDF ....
....|..|--- .... ....|--- .... ....|E-2 2FDA ....
....|..|--- .... ....|--- .... ....|R-- .... ....
....|..|--- .... ....|--- .... ....|--- .... ....
 C-3|..|C-5 2FF7 ....|C-5 4F.A ....|C-3 2CDF ....
....|..|--- .... ....|--- .... ....|--- .... ....
....|..|C-6 2FFA ....|C-4 3F1A ....|--- .... ....
....|..|--- .... ....|--- .... ....|--- .... ....
 C-4|..|--- .... ....|D-5 4F.7 ....|C-2 2ADF ....
....|..|--- .... ....|--- .... ....|E-1 2FD7 ....
....|..|--- .... ....|--- .... ....|R-- .... ....
....|..|--- .... ....|--- .... ....|--- .... ....
 C-3|..|C-6 2FF7 ....|C-6 4F.A ....|C-3 2CDF ....
....|..|--- .... ....|--- .... ....|E-2 2FD7 ....
....|..|--- .... ....|--- .... ....|R-- .... ....
....|..|--- .... ....|--- .... ....|--- .... ....
 G-4|..|G-5 2CFF ....|G-5 4F.F ....|C-3 2FDF ....
 C-4|..|--- .F.. ....|--- .... ....|C-2 2ADF ....
....|..|R-- .... ....|--- .... ....|--- .... ....
....|..|--- .... ....|--- .... ....|--- .... ....
 C-3|..|--- .... ....|--- .... ....|C-3 2CDF ....
....|..|--- .... ....|--- .... ....|--- .... ....
....|..|G-5 2FFA ....|--- .... ....|R-- .... ....
....|..|--- .... ....|--- .... ....|--- .... ....
 C-4|..|R-- .... ....|C-6 4F.7 ....|C-2 2ADF ....
....|..|--- .... ....|--- .... ....|--- .... ....
....|..|--- .... ....|--- .... ....|--- .... ....
....|..|--- .... ....|--- .... ....|--- .... ....
 A-3|..|A-5 2CFF ....|A-5 4F.F ....|C-3 2FDF ....
 C-3|..|--- .F.. ....|--- .... ....|C-3 2CDF ....
....|..|--- .... ....|R-- .... ....|--- .... ....
....|..|R-- .... ....|R-- .... ....|--- .... ....
 B-4|..|B-5 2CFF ....|G-3 3F1F ....|G-1 2FDF ....
....|..|--- .... ....|--- .... ....|--- .... ....
....|..|A-5 2FFA ....|--- .... ....|--- .... ....
....|..|--- .... ....|--- .... ....|--- .... ....
 G-4|..|--- .... ....|R-- .... ....|G-2 2ADF ....
 G-4|..|R-- .... ....|--- .... ....|G-2 2ADF ....
....|..|B-5 2FFA ....|G-3 3F1A ....|--- .... ....
....|..|--- .... ....|--- .... ....|--- .... ....
 D-4|..|D-5 2CFF ....|D-5 4F.F ....|G-1 2FDF ....
....|..|--- .... ....|--- .... ....|C-2 2FD7 ....
....|..|--- .... ....|R-- .... ....|--- .... ....
....|..|R-- .... ....|R-- .... ....|--- .... ....
 G-4|..|B-5 2FF7 ....|B-5 4F.A ....|G-2 2ADF ....
 G-4|..|--- .... ....|--- .... ....|G-2 2ADF ....
....|..|D-5 2FFA ....|--- .... ....|--- .... ....
....|..|--- .... ....|--- .... ....|--- .... ....
 G-4|..|--- .... ....|--- .... ....|G-2 2ADF ....
 G-3|..|--- .... ....|--- .... ....|G-1 2ADF ....
....|..|--- .... ....|--- .... ....|--- .... ....
....|..|--- .... ....|--- .... ....|--- .... ....
 G-4|..|D-5 2FF7 ....|A-5 4F.7 ....|G-2 2ADF ....
 G-4|..|--- .... ....|--- .... ....|G-2 2ADF ....
....|..|--- .... ....|--- .... ....|--- .... ....
....|..|--- .... ....|R-- .... ....|--- .... ....
 E-4|..|E-5 2CFF ....|E-5 4F.F ....|G-1 2FDF ....
 E-4|..|E-5 2CFF ....|E-5 4F.F ....|G-2 2FDA ....
....|..|--- .... ....|--- .... ....|--- .... ....
....|..|--- .... ....|--- .... ....|--- .... ....
 F-4|..|F-5 2CFF ....|F-5 4F.F ....|G-2 2FDF ....
 G-4|..|--- .F.. ....|--- .... ....|G-2 2ADF ....
....|..|E-5 2FFA ....|R-- .... ....|--- .... ....
....|..|E-5 2FFA ....|--- .... ....|--- .... ....

[Pattern19]
 F-4|..|F-5 2CFF ....|A-3 3F2F ....|F-2 2ADF ....
 C-3|..|C-5 2CFF ....|C-5 4F.F ....|G-2 2FDA ....
....|..|F-5 2FFA ....|--- .... ....|--- .... ....
....|..|--- .... ....|--- .... ....|--- .... ....
 F-4|..|E-5 2FF7 ....|E-5 4F.A ....|F-2 2ADF ....
 F-4|..|E-5 2FF7 ....|E-5 4F.A ....|F-2 2ADF ....
....|..|F-5 2FFA ....|A-3 3F2A ....|--- .... ....
....|..|C-5 2FFA ....|--- .... ....|--- .... ....
 F-4|..|F-5 2FF7 ....|F-5 4F.A ....|F-2 2ADF ....
 F-3|..|--- .... ....|--- .... ....|F-1 2ADF ....
....|..|--- .... ....|R-- .... ....|--- .... ....
....|..|--- .... ....|--- .... ....|--- .... ....
 F-4|..|F-5 2FF7 ....|F-5 4F.A ....|F-2 2ADF ....
 F-4|..|C-5 2FF7 ....|C-5 4F.A ....|F-2 2ADF ....
....|..|--- .... ....|--- .... ....|--- .... ....
....|..|--- .... ....|--- .... ....|--- .... ....
 G-4|..|G-4 2CFF ....|G-4 4F.F ....|F-2 2FDF ....
 F-3|..|--- .F.. ....|E-5 4F.7 ....|F-1 2ADF ....
....|..|R-- .... ....|--- .... ....|--- .... ....
....|..|--- .... ....|--- .... ....|--- .... ....
 F-4|..|--- .... ....|F-5 4F.7 ....|F-2 2ADF ....
....|..|--- .... ....|--- .... ....|G-2 2FD7 ....
....|..|G-4 2FFA ....|--- .... ....|--- .... ....
....|..|--- .... ....|--- .... ....|--- .... ....
 F-4|..|R-- .... ....|F-5 4F.7 ....|F-2 2ADF ....
 F-3|..|--- .... ....|C-5 4F.7 ....|F-1 2ADF ....
....|..|--- .... ....|--- .... ....|--- .... ....
....|..|--- .... ....|--- .... ....|--- .... ....
 A-3|..|A-4 2CFF ....|A-3 3F.F ....|F-2 2FDF ....
 F-4|..|--- .F.. ....|R-- .... ....|F-2 2ADF ....
....|..|--- .... ....|--- .... ....|--- .... ....
....|..|R-- .... ....|R-- .... ....|--- .... ....
 B-4|..|B-4 2CFF ....|G-3 3F3F ....|E-1 2FDF ....
....|..|--- .... ....|--- .... ....|F-1 2FD7 ....
....|..|A-4 2FFA ....|A-3 3F.A ....|--- .... ....
....|..|--- .... ....|R-- .... ....|--- .... ....
 E-4|..|--- .... ....|R-- .... ....|E-2 2ADF ....
 E-4|..|R-- .... ....|--- .... ....|E-2 2ADF ....
....|..|B-4 2FFA ....|G-3 3F3A ....|--- .... ....
....|..|--- .... ....|--- .... ....|--- .... ....
 D-4|..|D-4 2CFF ....|D-4 4F.F ....|E-1 2FDF ....
....|..|--- .... ....|R-- .... ....|F-1 2FD7 ....
....|..|--- .... ....|--- .... ....|--- .... ....
....|..|R-- .... ....|R-- .... ....|--- .... ....
 E-4|..|B-4 2FF7 ....|B-4 4F.A ....|E-2 2ADF ....
....|..|--- .... ....|--- .... ....|--- .... ....
....|..|D-4 2FFA ....|--- .... ....|--- .... ....
....|..|--- .... ....|--- .... ....|--- .... ....
 E-4|..|--- .... ....|G-3 3F1F ....|E-2 2ADF ....
 E-3|..|--- .... ....|--- .... ....|E-1 2ADF ....
....|..|--- .... ....|--- .... ....|--- .... ....
....|..|--- .... ....|--- .... ....|--- .... ....
 E-4|..|D-4 2FF7 ....|A-4 4F.7 ....|E-2 2ADF ....
 E-4|..|--- .... ....|--- .... ....|E-2 2ADF ....
....|..|--- .... ....|G-3 3F1A ....|R-- .... ....
....|..|--- .... ....|R-- .... ....|--- .... ....
 E-4|..|E-4 2CFF ....|E-4 4F.F ....|E-2 2ADF ....
 E-4|..|E-4 2CFF ....|E-4 4F.F ....|--- .... ....
....|..|--- .... ....|--- .... ....|--- .... ....
....|..|--- .... ....|--- .... ....|--- .... ....
 F-4|..|F-4 2CFF ....|F-4 4F.F ....|E-2 2FDF ....
....|..|--- .... ....|--- .... ....|E-2 2FD7 ....
....|..|E-4 2FFA ....|--- .... ....|R-- .... ....
....|..|E-4 2FFA ....|--- .... ....|--- .... ....

[Pattern20]
 E-4|..|E-5 2CFF ....|C-4 3F1F ....|C-2 2FDF ....
....|..|--- .... ....|--- .... ....|E-2 2FDA ....
....|..|F-4 2FFA ....|--- .... ....|R-- .... ....
....|..|R-- .... ....|R-- .... ....|--- .... ....
 D-4|..|D-5 2CFF ....|D-5 4F.F ....|C-3 2FDF ....
....|..|E-4 2FF7 ....|E-4 4F.A ....|--- .... ....
....|..|E-5 2FFA ....|C-4 3F1A ....|--- .... ....
....|..|R-- .... ....|R-- .... ....|--- .... ....
 E-4|..|E-5 2CFF ....|E-5 4F.F ....|C-2 2FDF ....
....|..|R-- .... ....|--- .... ....|E-1 2FD7 ....
....|..|D-5 2FFA ....|--- .... ....|R-- .... ....
....|..|--- .... ....|--- .... ....|--- .... ....
 C-3|..|E-5 2FF7 ....|E-5 4F.A ....|C-3 2CDF ....
....|..|R-- .... ....|--- .... ....|E-2 2FD7 ....
....|..|E-5 2FFA ....|--- .... ....|R-- .... ....
....|..|R-- .... ....|R-- .... ....|--- .... ....
 E-4|..|E-5 2CFF ....|E-5 4F.F ....|C-3 2FDF ....
 C-4|..|--- .F.. ....|E-4 4F.7 ....|C-2 2ADF ....
....|..|--- .... ....|--- .... ....|--- .... ....
....|..|R-- .... ....|R-- .... ....|--- .... ....
 D-4|..|D-5 2CFF ....|D-5 4F.F ....|C-3 2FDF ....
....|..|--- .... ....|--- .... ....|--- .... ....
....|..|E-5 2FFA ....|--- .... ....|R-- .... ....
....|..|R-- .... ....|R-- .... ....|--- .... ....
 E-4|..|E-5 2CFF ....|E-5 4F.F ....|C-2 2FDF ....
....|..|R-- .... ....|--- .... ....|--- .... ....
....|..|D-5 2FFA ....|--- .... ....|--- .... ....
....|..|--- .... ....|R-- .... ....|--- .... ....
 C-3|..|E-5 2FF7 ....|D-5 4F.7 ....|C-3 2CDF ....
 C-3|..|R-- .... ....|--- .... ....|C-3 2CDF ....
....|..|E-5 2FFA ....|R-- .... ....|--- .... ....
....|..|R-- .... ....|R-- .... ....|--- .... ....
 A-3|..|A-4 2CFF ....|G-3 3F1F ....|G-1 2FDF ....
....|..|--- .... ....|--- .... ....|--- .... ....
....|..|--- .... ....|--- .... ....|--- .... ....
....|..|R-- .... ....|R-- .... ....|--- .... ....
 G-4|..|E-5 2FF7 ....|E-5 4F.A ....|G-2 2ADF ....
 G-4|..|--- .... ....|--- .... ....|G-2 2ADF ....
....|..|A-4 2FFA ....|G-3 3F1A ....|--- .... ....
....|..|--- .... ....|--- .... ....|--- .... ....
 G-4|..|G-4 2CFF ....|G-4 4F.F ....|G-2 2ADF ....
....|..|--- .... ....|--- .... ....|C-2 2FD7 ....
....|..|--- .... ....|R-- .... ....|--- .... ....
....|..|--- .... ....|R-- .... ....|--- .... ....
 G-4|..|A-4 2FF7 ....|G-3 3F17 ....|G-2 2ADF ....
 G-4|..|--- .... ....|--- .... ....|G-2 2ADF ....
....|..|G-4 2FFA ....|--- .... ....|--- .... ....
....|..|--- .... ....|R-- .... ....|--- .... ....
 E-4|..|E-4 2CFF ....|E-4 4F.F ....|G-2 2FDF ....
 G-3|..|--- .F.. ....|--- .... ....|G-1 2ADF ....
....|..|--- .... ....|--- .... ....|--- .... ....
....|..|--- .... ....|--- .... ....|--- .... ....
 G-4|..|G-4 2FF7 ....|G-4 4F.A ....|G-2 2ADF ....
 G-4|..|--- .... ....|--- .... ....|G-2 2ADF ....
....|..|E-4 2FFA ....|--- .... ....|--- .... ....
....|..|--- .... ....|--- .... ....|--- .... ....
 F-4|..|F-4 2CFF ....|F-4 4F.F ....|G-1 2FDF ....
....|..|--- .... ....|--- .... ....|G-2 2FDA ....
....|..|R-- .... ....|--- .... ....|--- .... ....
....|..|--- .... ....|--- .... ....|--- .... ....
 G-4|..|E-4 2FF7 ....|E-4 4F.A ....|G-2 2ADF ....
 G-4|..|--- .... ....|--- .... ....|G-2 2ADF ....
....|..|F-4 2FFA ....|R-- .... ....|--- .... ....
....|..|--- .... ....|--- .... ....|--- .... ....

[Pattern21]
 C-3|..|C-5 2CFF ....|A-3 3F2F ....|F-1 2FDF ....
....|..|--- .... ....|--- .... ....|G-2 2FDA ....
....|..|R-- .... ....|--- .... ....|--- .... ....
....|..|--- .... ....|--- .... ....|--- .... ....
 F-4|..|F-4 2FF7 ....|F-4 4F.A ....|F-2 2ADF ....
 F-4|..|--- .... ....|--- .... ....|F-2 2ADF ....
....|..|C-5 2FFA ....|A-3 3F2A ....|--- .... ....
....|..|--- .... ....|--- .... ....|--- .... ....
 B-4|..|B-4 2CFF ....|B-4 4F.F ....|F-2 2FDF ....
 F-3|..|--- .F.. ....|--- .... ....|F-1 2ADF ....
....|..|--- .... ....|R-- .... ....|--- .... ....
....|..|--- .... ....|--- .... ....|--- .... ....
 F-4|..|C-5 2FF7 ....|C-5 4F.A ....|F-2 2ADF ....
 F-4|..|--- .... ....|--- .... ....|F-2 2ADF ....
....|..|B-4 2FFA ....|--- .... ....|--- .... ....
....|..|--- .... ....|--- .... ....|--- .... ....
 D-4|..|D-4 2CFF ....|D-4 4F.F ....|F-2 2FDF ....
 F-3|..|--- .F.. ....|--- .... ....|F-1 2ADF ....
....|..|--- .... ....|--- .... ....|--- .... ....
....|..|--- .... ....|--- .... ....|--- .... ....
 F-4|..|B-4 2FF7 ....|B-4 4F.A ....|F-2 2ADF ....
....|..|--- .... ....|--- .... ....|G-2 2FD7 ....
....|..|D-4 2FFA ....|--- .... ....|--- .... ....
....|..|--- .... ....|--- .... ....|--- .... ....
 E-4|..|E-4 2CFF ....|E-4 4F.F ....|F-2 2FDF ....
 F-3|..|--- .F.. ....|--- .... ....|F-1 2ADF ....
....|..|R-- .... ....|--- .... ....|--- .... ....
....|..|--- .... ....|--- .... ....|--- .... ....
 F-4|..|D-4 2FF7 ....|A-3 3F.F ....|F-2 2ADF ....
 F-4|..|--- .... ....|R-- .... ....|F-2 2ADF ....
....|..|E-4 2FFA ....|--- .... ....|--- .... ....
....|..|--- .... ....|--- .... ....|--- .... ....
 A-3|..|A-4 2CFF ....|G-3 3F3F ....|E-1 2FDF ....
....|..|--- .... ....|--- .... ....|F-1 2FD7 ....
....|..|R-- .... ....|A-3 3F.A ....|--- .... ....
....|..|--- .... ....|R-- .... ....|--- .... ....
 E-4|..|E-4 2FF7 ....|E-4 4F.A ....|E-2 2ADF ....
 E-4|..|--- .... ....|--- .... ....|E-2 2ADF ....
....|..|A-4 2FFA ....|G-3 3F3A ....|--- .... ....
....|..|--- .... ....|--- .... ....|--- .... ....
 G-4|..|G-4 2CFF ....|G-4 4F.F ....|E-1 2FDF ....
....|..|--- .... ....|R-- .... ....|F-1 2FD7 ....
....|..|--- .... ....|--- .... ....|--- .... ....
....|..|--- .... ....|--- .... ....|--- .... ....
 E-4|..|A-4 2FF7 ....|A-4 4F.A ....|E-2 2ADF ....
....|..|--- .... ....|--- .... ....|--- .... ....
....|..|G-4 2FFA ....|--- .... ....|--- .... ....
....|..|--- .... ....|--- .... ....|--- .... ....
 D-4|..|D-4 2CFF ....|F-3 3F3F ....|E-2 2FDF ....
 E-3|..|--- .F.. ....|--- .... ....|E-1 2ADF ....
....|..|--- .... ....|--- .... ....|--- .... ....
....|..|--- .... ....|--- .... ....|--- .... ....
 E-4|..|G-4 2FF7 ....|G-4 4F.A ....|E-2 2ADF ....
 E-4|..|--- .... ....|--- .... ....|E-2 2ADF ....
....|..|D-4 2FFA ....|F-3 3F3A ....|R-- .... ....
....|..|--- .... ....|--- .... ....|--- .... ....
 C-3|..|C-4 2CFF ....|C-4 4F.F ....|E-1 2FDF ....
....|..|--- .... ....|--- .... ....|--- .... ....
....|..|--- .... ....|--- .... ....|--- .... ....
....|..|--- .... ....|--- .... ....|--- .... ....
 E-4|..|D-4 2FF7 ....|D-4 4F.A ....|E-2 2ADF ....
....|..|--- .... ....|--- .... ....|E-2 2FD7 ....
....|..|C-4 2FFA ....|--- .... ....|R-- .... ....
....|..|--- .... ....|--- .... ....|--- .... ....

[Pattern22]
 G-3|..|R-- .... ....|C-4 3F1F ....|G-1 2ADF ....
....|..|--- .... ....|--- .... ....|E-2 2FDA ....
....|..|--- .... ....|--- .... ....|R-- .... ....
....|..|--- .... ....|--- .... ....|--- .... ....
....|..|C-4 2FF7 ....|C-4 4F.A ....|E-2 2FD7 ....
....|..|--- .... ....|--- .... ....|--- .... ....
....|..|R-- .... ....|C-4 3F1A ....|R-- .... ....
....|..|--- .... ....|--- .... ....|--- .... ....
 G-3|..|--- .... ....|D-4 4F.7 ....|G-1 2ADF ....
....|..|--- .... ....|--- .... ....|E-1 2FD7 ....
....|..|--- .... ....|--- .... ....|R-- .... ....
....|..|--- .... ....|--- .... ....|--- .... ....
....|..|R-- .... ....|R-- .... ....|E-2 2FD7 ....
....|..|--- .... ....|--- .... ....|E-2 2FD7 ....
....|..|--- .... ....|--- .... ....|R-- .... ....
....|..|--- .... ....|--- .... ....|--- .... ....
 G-3|..|--- .... ....|B-3 3F4F ....|G-1 2ADF ....
....|..|--- .... ....|--- .... ....|--- .... ....
....|..|--- .... ....|--- .... ....|R-- .... ....
....|..|--- .... ....|--- .... ....|--- .... ....
....|..|--- .... ....|--- .... ....|E-2 2FD7 ....
....|..|--- .... ....|--- .... ....|--- .... ....
....|..|--- .... ....|B-3 3F4A ....|R-- .... ....
....|..|--- .... ....|--- .... ....|--- .... ....
 G-3|..|--- .... ....|R-- .... ....|G-1 2ADF ....
....|..|--- .... ....|--- .... ....|--- .... ....
....|..|--- .... ....|--- .... ....|R-- .... ....
....|..|--- .... ....|--- .... ....|--- .... ....
....|..|--- .... ....|B-3 3F47 ....|G-1 2FDA ....
....|..|--- .... ....|--- .... ....|--- .... ....
....|..|--- .... ....|--- .... ....|R-- .... ....
....|..|--- .... ....|--- .... ....|--- .... ....
 E-4|..|--- .... ....|A-3 3F2F ....|E-2 2ADF ....
....|..|--- .... ....|--- .... ....|--- .... ....
....|..|--- .... ....|--- .... ....|R-- .... ....
....|..|--- .... ....|--- .... ....|--- .... ....
....|..|--- .... ....|--- .... ....|G-1 2FDA ....
....|..|--- .... ....|--- .... ....|--- .... ....
....|..|--- .... ....|A-3 3F2A ....|R-- .... ....
....|..|--- .... ....|--- .... ....|--- .... ....
 E-4|..|--- .... ....|--- .... ....|E-2 2ADF ....
....|..|--- .... ....|--- .... ....|--- .... ....
....|..|--- .... ....|--- .... ....|R-- .... ....
....|..|--- .... ....|--- .... ....|--- .... ....
....|..|--- .... ....|A-3 3F27 ....|E-2 2FDA ....
....|..|--- .... ....|--- .... ....|--- .... ....
....|..|--- .... ....|--- .... ....|R-- .... ....
....|..|--- .... ....|--- .... ....|--- .... ....
 E-4|..|--- .... ....|--- .... ....|E-2 2ADF ....
....|..|--- .... ....|--- .... ....|--- .... ....
....|..|--- .... ....|--- .... ....|R-- .... ....
....|..|--- .... ....|--- .... ....|--- .... ....
....|..|--- .... ....|--- .... ....|E-2 2FDA ....
....|..|--- .... ....|--- .... ....|--- .... ....
....|..|--- .... ....|--- .... ....|R-- .... ....
....|..|--- .... ....|--- .... ....|--- .... ....
 E-4|..|--- .... ....|--- .... ....|E-2 2ADF ....
....|..|--- .... ....|--- .... ....|--- .... ....
....|..|--- .... ....|--- .... ....|R-- .... ....
....|..|--- .... ....|--- .... ....|--- .... ....
....|..|--- .... ....|--- .... ....|E-2 2FDA ....
....|..|--- .... ....|--- .... ....|--- .... ....
....|..|--- .... ....|R-- .... ....|R-- .... ....
....|..|--- .... ....|--- .... ....|--- .... ....

[Pattern27]
 F-4|..|F-5 2CFF ....|A-3 3F2F ....|F-2 2ADF ....
 C-3|..|C-5 2CFF ....|C-5 4F.F ....|G-2 2FDA ....
....|..|F-5 2FFA ....|--- .... ....|--- .... ....
....|..|--- .... ....|--- .... ....|--- .... ....
 F-4|..|E-5 2FF7 ....|E-5 4F.A ....|F-2 2ADF ....
 F-4|..|E-5 2FF7 ....|E-5 4F.A ....|F-2 2ADF ....
....|..|F-5 2FFA ....|A-3 3F2A ....|--- .... ....
....|..|C-5 2FFA ....|--- .... ....|--- .... ....
 F-4|..|F-5 2FF7 ....|F-5 4F.A ....|F-2 2ADF ....
 F-3|..|--- .... ....|--- .... ....|F-1 2ADF ....
....|..|--- .... ....|R-- .... ....|--- .... ....
....|..|--- .... ....|--- .... ....|--- .... ....
 F-4|..|F-5 2FF7 ....|F-5 4F.A ....|F-2 2ADF ....
 F-4|..|C-5 2FF7 ....|C-5 4F.A ....|F-2 2ADF ....
....|..|--- .... ....|--- .... ....|--- .... ....
....|..|--- .... ....|--- .... ....|--- .... ....
 F-4|..|--- .... ....|E-5 4F.7 ....|F-2 2ADF ....
 F-3|..|--- .... ....|E-5 4F.7 ....|F-1 2ADF ....
....|..|--- .... ....|--- .... ....|--- .... ....
....|..|--- .... ....|--- .... ....|--- .... ....
 F-4|..|--- .... ....|F-5 4F.7 ....|F-2 2ADF ....
....|..|--- .... ....|--- .... ....|G-2 2FD7 ....
....|..|--- .... ....|--- .... ....|--- .... ....
....|..|--- .... ....|--- .... ....|--- .... ....
 F-4|..|--- .... ....|F-5 4F.7 ....|F-2 2ADF ....
 F-3|..|--- .... ....|C-5 4F.7 ....|F-1 2ADF ....
....|..|--- .... ....|--- .... ....|--- .... ....
....|..|--- .... ....|--- .... ....|--- .... ....
 F-4|..|--- .... ....|A-3 3F.F ....|F-2 2ADF ....
 F-4|..|--- .... ....|R-- .... ....|F-2 2ADF ....
....|..|--- .... ....|--- .... ....|--- .... ....
....|..|--- .... ....|--- .... ....|--- .... ....
 E-3|..|--- .... ....|G-3 3F3F ....|E-1 2ADF ....
....|..|--- .... ....|--- .... ....|F-1 2FD7 ....
....|..|--- .... ....|A-3 3F.A ....|--- .... ....
....|..|--- .... ....|R-- .... ....|--- .... ....
 E-4|..|--- .... ....|--- .... ....|E-2 2ADF ....
 E-4|..|--- .... ....|--- .... ....|E-2 2ADF ....
....|..|--- .... ....|G-3 3F3A ....|--- .... ....
....|..|R-- .... ....|R-- .... ....|--- .... ....
 B-4|..|B-4 2CFF ....|B-4 4F.F ....|E-1 2FDF ....
....|..|--- .... ....|R-- .... ....|F-1 2FD7 ....
....|..|--- .... ....|--- .... ....|--- .... ....
....|..|--- .... ....|--- .... ....|--- .... ....
 E-4|..|R-- .... ....|R-- .... ....|E-2 2ADF ....
....|..|R-- .... ....|--- .... ....|--- .... ....
....|..|B-4 2FFA ....|--- .... ....|--- .... ....
....|..|--- .... ....|--- .... ....|--- .... ....
 C-3|..|C-5 2CFF ....|F-3 3F3F ....|E-2 2FDF ....
 E-3|..|--- .F.. ....|--- .... ....|E-1 2ADF ....
....|..|R-- .... ....|--- .... ....|--- .... ....
....|..|R-- .... ....|R-- .... ....|--- .... ....
 E-4|..|B-4 2FF7 ....|B-4 4F.A ....|E-2 2ADF ....
 E-4|..|R-- .... ....|R-- .... ....|E-2 2ADF ....
....|..|C-5 2FFA ....|F-3 3F3A ....|R-- .... ....
....|..|--- .... ....|--- .... ....|--- .... ....
 B-4|..|B-4 2CFF ....|B-4 4F.F ....|E-1 2FDF ....
....|..|--- .... ....|--- .... ....|--- .... ....
....|..|--- .... ....|--- .... ....|--- .... ....
....|..|R-- .... ....|--- .... ....|--- .... ....
 E-4|..|C-5 2FF7 ....|C-5 4F.A ....|E-2 2ADF ....
....|..|--- .... ....|--- .... ....|E-2 2FD7 ....
....|..|B-4 2FFA ....|--- .... ....|R-- .... ....
....|..|--- .... ....|R-- .... ....|--- .... ....

[Pattern31]
 F-4|..|F-5 2CFF ....|A-3 3F2F ....|F-2 2ADF ....
 C-3|..|C-5 2CFF ....|C-5 4F.F ....|G-2 2FDA ....
....|..|F-5 2FFA ....|--- .... ....|--- .... ....
....|..|--- .... ....|--- .... ....|--- .... ....
 F-4|..|E-5 2FF7 ....|E-5 4F.A ....|F-2 2ADF ....
 F-4|..|E-5 2FF7 ....|E-5 4F.A ....|F-2 2ADF ....
....|..|F-5 2FFA ....|A-3 3F2A ....|--- .... ....
....|..|C-5 2FFA ....|--- .... ....|--- .... ....
 F-4|..|F-5 2FF7 ....|F-5 4F.A ....|F-2 2ADF ....
 F-3|..|--- .... ....|--- .... ....|F-1 2ADF ....
....|..|--- .... ....|R-- .... ....|--- .... ....
....|..|--- .... ....|--- .... ....|--- .... ....
 F-4|..|F-5 2FF7 ....|F-5 4F.A ....|F-2 2ADF ....
 F-4|..|C-5 2FF7 ....|C-5 4F.A ....|F-2 2ADF ....
....|..|--- .... ....|--- .... ....|--- .... ....
....|..|--- .... ....|--- .... ....|--- .... ....
 G-4|..|G-4 2CFF ....|G-4 4F.F ....|F-2 2FDF ....
 F-3|..|--- .F.. ....|E-5 4F.7 ....|F-1 2ADF ....
....|..|R-- .... ....|--- .... ....|--- .... ....
....|..|--- .... ....|--- .... ....|--- .... ....
 F-4|..|--- .... ....|F-5 4F.7 ....|F-2 2ADF ....
....|..|--- .... ....|--- .... ....|G-2 2FD7 ....
....|..|G-4 2FFA ....|--- .... ....|--- .... ....
....|..|--- .... ....|--- .... ....|--- .... ....
 F-4|..|R-- .... ....|F-5 4F.7 ....|F-2 2ADF ....
 F-3|..|--- .... ....|C-5 4F.7 ....|F-1 2ADF ....
....|..|--- .... ....|--- .... ....|--- .... ....
....|..|--- .... ....|--- .... ....|--- .... ....
 A-3|..|A-4 2CFF ....|A-3 3F.F ....|F-2 2FDF ....
 F-4|..|--- .F.. ....|R-- .... ....|F-2 2ADF ....
....|..|--- .... ....|--- .... ....|--- .... ....
....|..|R-- .... ....|R-- .... ....|--- .... ....
 B-4|..|B-4 2CFF ....|G-3 3F3F ....|E-1 2FDF ....
....|..|--- .... ....|--- .... ....|F-1 2FD7 ....
....|..|A-4 2FFA ....|A-3 3F.A ....|--- .... ....
....|..|--- .... ....|R-- .... ....|--- .... ....
 E-4|..|--- .... ....|R-- .... ....|E-2 2ADF ....
 E-4|..|R-- .... ....|--- .... ....|E-2 2ADF ....
....|..|B-4 2FFA ....|G-3 3F3A ....|--- .... ....
....|..|--- .... ....|--- .... ....|--- .... ....
 D-4|..|D-4 2CFF ....|D-4 4F.F ....|E-1 2FDF ....
....|..|--- .... ....|R-- .... ....|F-1 2FD7 ....
....|..|--- .... ....|--- .... ....|--- .... ....
....|..|R-- .... ....|R-- .... ....|--- .... ....
 E-4|..|B-4 2FF7 ....|B-4 4F.A ....|E-2 2ADF ....
....|..|--- .... ....|--- .... ....|--- .... ....
....|..|D-4 2FFA ....|--- .... ....|--- .... ....
....|..|--- .... ....|--- .... ....|--- .... ....
 E-4|..|--- .... ....|F-3 3F3F ....|E-2 2ADF ....
 E-3|..|--- .... ....|--- .... ....|E-1 2ADF ....
....|..|--- .... ....|--- .... ....|--- .... ....
....|..|--- .... ....|--- .... ....|--- .... ....
 E-4|..|D-4 2FF7 ....|A-4 4F.7 ....|E-2 2ADF ....
 E-4|..|--- .... ....|--- .... ....|E-2 2ADF ....
....|..|--- .... ....|F-3 3F3A ....|R-- .... ....
....|..|--- .... ....|R-- .... ....|--- .... ....
 E-4|..|E-4 2CFF ....|E-4 4F.F ....|E-2 2ADF ....
 E-4|..|E-4 2CFF ....|E-4 4F.F ....|--- .... ....
....|..|--- .... ....|--- .... ....|--- .... ....
....|..|--- .... ....|--- .... ....|--- .... ....
 F-4|..|F-4 2CFF ....|F-4 4F.F ....|E-2 2FDF ....
....|..|--- .... ....|--- .... ....|E-2 2FD7 ....
....|..|E-4 2FFA ....|--- .... ....|R-- .... ....
....|..|E-4 2FFA ....|--- .... ....|--- .... ....

[Pattern38]
....|..|--- .... ....|R-- .... ....|C-2 2FD7 ....
....|..|--- .... ....|--- .... ....|--- .... ....
....|..|--- .... ....|--- .... ....|R-- .... ....
....|..|--- .... ....|--- .... ....|--- .... ....
....|..|--- .... ....|--- .... ....|C-2 2FDA ....
....|..|--- .... ....|--- .... ....|--- .... ....
....|..|--- .... ....|R-- .... ....|R-- .... ....
....|..|--- .... ....|--- .... ....|--- .... ....
....|..|--- .... ....|--- .... ....|C-2 2FD7 ....
....|..|--- .... ....|--- .... ....|--- .... ....
....|..|--- .... ....|--- .... ....|R-- .... ....
....|..|--- .... ....|--- .... ....|--- .... ....
