[Module]
VortexTrackerII=0
Version=3.5
Title=rebecca_black-friday.mid
Author=oisee ^ 4d 29.05.2010
NoteTable=4
ChipFreq=1750000
Speed=4
PlayOrder=L0,1,2,3,4,5,6,7,8,9,10,11,12,13,14,15,16,17,18,19,20,21,22,20,21,25,26

[Ornament1]
L0

[Ornament2]
L7,7,2,2,0,0

[Ornament3]
L0,0,3,3,7,7,12,12

[Ornament4]
L0,0,4,4,7,7,12,12

[Ornament5]
L0,0,5,5,8,8,12,12

[Ornament6]
L0,0,3,3,6,6,12,12

[Ornament7]
L0,3,7

[Ornament8]
L0,0,3,3,8,8,12,12

[Ornament9]
0,-12,-12,-24,L-24

[Ornament10]
L0,0,12,12,0,0,12,12

[Ornament11]
24,12,0,-12,-24,-36,L-36

[Ornament12]
L0

[Ornament13]
1,L0

[Ornament14]
L0,24,0,0,0

[Ornament15]
L0,36,0,0

[Sample1]
TnE +000_ +00_ F_
TnE +000_ +00_ F_
TnE +000_ +00_ F_
TnE +000_ +00_ D_
TnE +000_ +00_ B_
TnE +000_ +00_ B_ L

[Sample2]
TnE +000_ +00_ F_ L

[Sample3]
TnE +001_ +00_ F_
TnE +002_ +00_ F_
TnE +001_ +00_ E_
TnE +002_ +00_ E_
TnE +000_ +00_ E_ L
TnE -001_ +00_ E_
TnE -002_ +00_ E_
TnE -001_ +00_ E_
TnE +000_ +00_ E_
TnE +001_ +00_ E_
TnE +002_ +00_ E_
TnE +001_ +00_ E_

[Sample4]
TnE +002_ +00_ D_
TnE +002_ +00_ D_
TnE +002_ +00_ C_
TnE +002_ +00_ B_
TnE +002_ +00_ A_ L
TnE +002_ +00_ A_
TnE +002_ +00_ A_
TnE +002_ +00_ A_
TnE +002_ +00_ A_
TnE +002_ +00_ A_
TnE +002_ +00_ A_
TnE +002_ +00_ A_

[Sample5]
TnE +000_ +00_ F_
TnE +000_ +00_ F_
tne +000_ +00_ 0_ L

[Sample6]
TnE -001_ +00_ F_ L

[Sample7]
TnE +006_ +00_ F_ L

[Sample8]
tNe +000_ +00_ F_
tNe +000_ +00_ B_
tNe +000_ +00_ 7_
tNe +000_ +00_ 6- L

[Sample9]
TnE +080_ +00_ F_
TnE +100_ +00_ E_
TnE +180_ +00_ E_
TnE +200_ +00_ E_
TnE +240_ +00_ D_
TnE +280_ +00_ D_
TnE +2C0_ +00_ D_
TnE +300_ +00_ C_
TnE +300_ +00_ C_
TnE +340_ +00_ C_
TnE +340_ +00_ C_
TnE +380_ +00_ B_
TnE +380_ +00_ B_
TnE +400_ +00_ B_
TnE +400_ +00_ B_
TnE +480_ +00_ A_
TnE +500_ +00_ 9_
TnE +580_ +00_ 7_
TnE +600_ +00_ 4_
TnE +680_ +00_ 1_
TnE +000_ +00_ 0_ L

[Sample10]
Tne +1C0_ +00_ F_
Tne +280_ +00_ E_
Tne +380_ +00_ C_
Tne +440_ +00_ A_
Tne +480_ +00_ 8_
TnE +000_ +00_ 0_ L

[Sample11]
TNe +200_ -0A_ F_
tNe +000_ +0F_ A_
TNe +200_ -07_ E_
tNe +000_ +0E_ B- L

[Sample12]
TNE +0A0_ +05_ F_
TNE +140_ +02_ D_
TNE +140_ +02_ B_
TNE +100_ +00_ A_ L
TNE +140_ +00_ A_
TNE +200_ +00_ A-

[Sample13]
Tne +200_ +00_ F_
Tne +2C0_ +00_ F_
Tne +380_ +00_ E_
Tne +500_ +00_ C_
Tne +520_ +00_ 9_
tne +000_ +00_ 0_ L

[Sample14]
TNE -100_ +00_ F_
TNE -100_ +00_ D_
TNE -100_ +00_ A_
TNE -100_ +00_ 5_
tne +000_ +00_ 0_ L

[Sample15]
TNE -100_ +00_ 5_
TNE -100_ +00_ 8_
TNE -100_ +00_ B_
TNE -100_ +00_ F_
TNe -100_ +00_ 9- L

[Sample16]
TnE +000_ +00_ C_
TnE +000_ +00_ E_
TnE +000_ +00_ F_
TnE +000_ +00_ F_
TnE +000_ +00_ E_
TnE +000_ +00_ D_
TnE +000_ +00_ C_
TnE +000_ +00_ C_ L
TnE +001_ +00_ C_
TnE +002_ +00_ C_
TnE +003_ +00_ C_
TnE +001_ +00_ C_
TnE +000_ +00_ C_
TnE -001_ +00_ C_
TnE -002_ +00_ C_
TnE -003_ +00_ C_
TnE -001_ +00_ C_
TnE +000_ +00_ C_
TnE +000_ +00_ C_

[Sample17]
Tne +1C0_ +00_ F_
Tne +280_ +00_ D_
Tne +380_ +00_ 7_
TNE +000_ +00_ 0_ L

[Sample18]
tnE +000_ +00_ 0_ L

[Sample19]
TNe +000_ +00_ F_
TNe +000_ +00_ C_
TNe +000_ +00_ 6_
TNe +000_ +01_ A- L

[Sample20]
TNE +140_ +00_ F_
tNE +000_ +00_ B- L

[Sample21]
tNE +000_ +00_ D_
tNE +000_ +00_ 8_
tNE +000_ +00_ 1_
TNE +000_ +00_ 0_ L

[Sample22]
TnE +000_ +00_ D_ L
TnE +000_ +00_ D_
tne +000_ +00_ 9_
tne +000_ +00_ 9_
TnE +000_ +00_ D_
TnE +000_ +00_ D_
tne +000_ +00_ 9_
tne +000_ +00_ 9_
TnE +000_ +00_ D_
TnE +000_ +00_ D_
TnE +000_ +00_ D_
TnE +000_ +00_ D_
TnE +000_ +00_ D_
TnE +000_ +00_ D_
tne +000_ +00_ 9_
tne +000_ +00_ 9_

[Sample23]
TnE +000_ +00_ F_ L
TnE +010_ +01_ F_
TnE +010_ +01_ F_
TnE +010_ +01_ F_
TnE +010_ +01_ F_
TnE +000_ +00_ F_
TnE +000_ +00_ F_
TnE -010_ -01_ F_
TnE -010_ -01_ F_
TnE -010_ -01_ F_
TnE -010_ -01_ F_
TnE +000_ +00_ F_

[Sample24]
TNe +000_ -01_ C_
TNe +000_ -01_ D_
TNe +000_ -01_ E_
TNe +000_ -01_ F_
TNe +000_ -01_ F_
TNe +000_ -01_ F_
TNe +000_ -01_ F_
TNe +000_ -01_ F_
TNe +000_ -01_ E_
TNe +000_ -01_ E_
TNe +000_ -01_ E_
TNe +000_ -01_ F_
TNe +000_ -01_ F_ L

[Sample25]
TNE +000_ +00_ F_
TNE +000_ +00_ F_ L
TNE +000_ +00_ F_
TNE +000_ +00_ F_
TNE +000_ +00_ F-

[Sample26]
tne +000_ +00_ 0_ L

[Sample27]
tne +000_ +00_ 0_ L

[Sample28]
tne +000_ +00_ 0_ L

[Sample29]
tne +000_ +00_ 0_ L

[Sample30]
TNE +000_ +00_ C+ L

[Sample31]
TNe +1C0_ +00_ F_
Tne +280_ +00_ E_
Tne +380_ +00_ C_
Tne +440_ +00_ A_
Tne +480_ +00_ 8_
TnE +000_ +00_ 0_ L

[Pattern0]
....|..|--- .... ....|B-3 ...F ....|--- .... ....
....|..|--- .... ....|--- .... ....|--- .... ....
....|..|--- .... ....|F#4 ...F ....|--- .... ....
....|..|--- .... ....|--- .... ....|--- .... ....
....|..|--- .... ....|B-3 ...F ....|--- .... ....
....|..|--- .... ....|--- .... ....|--- .... ....
....|..|--- .... ....|D#4 ...F ....|--- .... ....
....|..|--- .... ....|--- .... ....|--- .... ....
....|..|--- .... ....|B-3 ...F ....|--- .... ....
....|..|--- .... ....|--- .... ....|--- .... ....
....|..|--- .... ....|F#4 ...F ....|--- .... ....
....|..|--- .... ....|--- .... ....|--- .... ....
....|..|--- .... ....|B-3 ...F ....|--- .... ....
....|..|--- .... ....|--- .... ....|--- .... ....
....|..|--- .... ....|D#4 ...F ....|--- .... ....
....|..|--- .... ....|--- .... ....|--- .... ....
....|..|--- .... ....|G#3 ...F ....|--- .... ....
....|..|--- .... ....|--- .... ....|--- .... ....
....|..|--- .... ....|D#4 ...F ....|--- .... ....
....|..|--- .... ....|--- .... ....|--- .... ....
....|..|--- .... ....|G#3 ...F ....|--- .... ....
....|..|--- .... ....|--- .... ....|--- .... ....
....|..|--- .... ....|C#4 ...F ....|--- .... ....
....|..|--- .... ....|--- .... ....|--- .... ....
....|..|--- .... ....|G#3 ...F ....|--- .... ....
....|..|--- .... ....|--- .... ....|--- .... ....
....|..|--- .... ....|D#4 ...F ....|--- .... ....
....|..|--- .... ....|--- .... ....|--- .... ....
....|..|--- .... ....|G#3 ...F ....|--- .... ....
....|..|--- .... ....|--- .... ....|--- .... ....
....|..|--- .... ....|C#4 ...F ....|--- .... ....
....|..|--- .... ....|--- .... ....|--- .... ....
....|..|--- .... ....|E-3 ...F ....|--- .... ....
....|..|--- .... ....|--- .... ....|--- .... ....
....|..|--- .... ....|B-3 ...F ....|--- .... ....
....|..|--- .... ....|--- .... ....|--- .... ....
....|..|--- .... ....|E-3 ...F ....|--- .... ....
....|..|--- .... ....|--- .... ....|--- .... ....
....|..|--- .... ....|D#4 ...F ....|--- .... ....
....|..|--- .... ....|--- .... ....|--- .... ....
....|..|--- .... ....|E-3 ...F ....|--- .... ....
....|..|--- .... ....|--- .... ....|--- .... ....
....|..|--- .... ....|C#4 ...F ....|--- .... ....
....|..|--- .... ....|--- .... ....|--- .... ....
....|..|--- .... ....|E-3 ...F ....|--- .... ....
....|..|--- .... ....|--- .... ....|--- .... ....
....|..|--- .... ....|E-4 ...F ....|--- .... ....
....|..|--- .... ....|--- .... ....|--- .... ....
....|..|--- .... ....|F#3 ...F ....|--- .... ....
....|..|--- .... ....|--- .... ....|--- .... ....
....|..|--- .... ....|A#3 ...F ....|--- .... ....
....|..|--- .... ....|--- .... ....|--- .... ....
....|..|--- .... ....|F#3 ...F ....|--- .... ....
....|..|--- .... ....|--- .... ....|--- .... ....
....|..|--- .... ....|C#4 ...F ....|--- .... ....
....|..|--- .... ....|--- .... ....|--- .... ....
....|..|--- .... ....|F#3 ...F ....|--- .... ....
....|..|--- .... ....|--- .... ....|--- .... ....
....|..|--- .... ....|D#4 ...F ....|--- .... ....
....|..|--- .... ....|--- .... ....|--- .... ....
....|..|--- .... ....|F#3 ...F ....|--- .... ....
....|..|--- .... ....|--- .... ....|--- .... ....
....|..|--- .... ....|C#4 ...F ....|--- .... ....
....|..|--- .... ....|--- .... ....|--- .... ....

[Pattern1]
....|..|C-4 A..F ....|B-3 ...F ....|--- .... ....
....|..|R-- .... ....|--- .... ....|--- .... ....
....|..|C-4 A..F ....|F#4 ...F ....|--- .... ....
....|..|R-- .... ....|--- .... ....|--- .... ....
....|..|C-4 C..F ....|B-3 ...F ....|--- .... ....
....|..|R-- .... ....|--- .... ....|--- .... ....
....|..|C-4 A..F ....|D#4 ...F ....|--- .... ....
....|..|R-- .... ....|--- .... ....|--- .... ....
....|..|C-4 A..A ....|B-3 ...F ....|--- .... ....
....|..|R-- .... ....|--- .... ....|--- .... ....
....|..|C-4 C..A ....|F#4 ...F ....|--- .... ....
....|..|R-- .... ....|--- .... ....|--- .... ....
....|..|C-4 C..F ....|B-3 ...F ....|--- .... ....
....|..|R-- .... ....|--- .... ....|--- .... ....
....|..|C-4 A..7 ....|D#4 ...F ....|--- .... ....
....|..|R-- .... ....|--- .... ....|--- .... ....
....|..|C-4 A..F ....|G#3 ...F ....|--- .... ....
....|..|R-- .... ....|--- .... ....|--- .... ....
....|..|C-4 A..F ....|D#4 ...F ....|--- .... ....
....|..|R-- .... ....|--- .... ....|--- .... ....
....|..|C-4 C..F ....|G#3 ...F ....|--- .... ....
....|..|R-- .... ....|--- .... ....|--- .... ....
....|..|C-4 A..F ....|C#4 ...F ....|--- .... ....
....|..|R-- .... ....|--- .... ....|--- .... ....
....|..|C-4 A..A ....|G#3 ...F ....|--- .... ....
....|..|R-- .... ....|--- .... ....|--- .... ....
....|..|C-4 C..A ....|D#4 ...F ....|--- .... ....
....|..|R-- .... ....|--- .... ....|--- .... ....
....|..|C-4 C..F ....|G#3 ...F ....|--- .... ....
....|..|R-- .... ....|--- .... ....|--- .... ....
....|..|C-4 A..7 ....|C#4 ...F ....|--- .... ....
....|..|R-- .... ....|--- .... ....|--- .... ....
....|..|C-4 A..F ....|E-3 ...F ....|--- .... ....
....|..|R-- .... ....|--- .... ....|--- .... ....
....|..|C-4 A..F ....|B-3 ...F ....|--- .... ....
....|..|R-- .... ....|--- .... ....|--- .... ....
....|..|C-4 C..F ....|E-3 ...F ....|--- .... ....
....|..|R-- .... ....|--- .... ....|--- .... ....
....|..|C-4 A..F ....|D#4 ...F ....|--- .... ....
....|..|R-- .... ....|--- .... ....|--- .... ....
....|..|C-4 A..A ....|E-3 ...F ....|--- .... ....
....|..|R-- .... ....|--- .... ....|--- .... ....
....|..|C-4 C..A ....|C#4 ...F ....|--- .... ....
....|..|R-- .... ....|--- .... ....|--- .... ....
....|..|C-4 C..F ....|E-3 ...F ....|--- .... ....
....|..|R-- .... ....|--- .... ....|--- .... ....
....|..|C-4 A..7 ....|E-4 ...F ....|--- .... ....
....|..|R-- .... ....|--- .... ....|--- .... ....
....|..|C-4 A..F ....|F#3 ...F ....|--- .... ....
....|..|R-- .... ....|--- .... ....|--- .... ....
....|..|C-4 A..F ....|A#3 ...F ....|--- .... ....
....|..|R-- .... ....|--- .... ....|--- .... ....
....|..|C-4 C..F ....|F#3 ...F ....|--- .... ....
....|..|R-- .... ....|--- .... ....|--- .... ....
....|..|C-4 A..F ....|C#4 ...F ....|--- .... ....
....|..|R-- .... ....|--- .... ....|--- .... ....
....|..|C-4 A..A ....|F#3 ...F ....|--- .... ....
....|..|R-- .... ....|--- .... ....|--- .... ....
....|..|C-4 C..A ....|D#4 ...F ....|--- .... ....
....|..|R-- .... ....|--- .... ....|--- .... ....
....|..|C-4 C..F ....|F#3 ...F ....|--- .... ....
....|..|R-- .... ....|--- .... ....|--- .... ....
....|..|C-4 A..7 ....|C#4 ...F ....|--- .... ....
....|..|R-- .... ....|--- .... ....|--- .... ....

[Pattern2]
....|..|C-4 A..F ....|B-3 ...F ....|B-3 ...F ....
....|..|R-- .... ....|--- .... ....|B-3 ...F ....
....|..|C-4 A..F ....|F#4 ...F ....|B-3 ...F ....
....|..|R-- .... ....|--- .... ....|R-- .... ....
....|..|C-4 C..F ....|B-3 ...F ....|B-3 ...F ....
....|..|R-- .... ....|--- .... ....|R-- .... ....
....|..|C-4 A..F ....|D#4 ...F ....|B-3 ...F ....
....|..|R-- .... ....|--- .... ....|B-3 ...F ....
....|..|C-4 A..A ....|B-3 ...F ....|B-3 ...F ....
....|..|R-- .... ....|--- .... ....|R-- .... ....
....|..|C-4 C..A ....|F#4 ...F ....|B-3 ...F ....
....|..|R-- .... ....|--- .... ....|B-3 ...F ....
....|..|C-4 C..F ....|B-3 ...F ....|B-3 ...F ....
....|..|R-- .... ....|--- .... ....|R-- .... ....
....|..|C-4 A..7 ....|D#4 ...F ....|B-3 ...F ....
....|..|R-- .... ....|--- .... ....|R-- .... ....
....|..|C-4 A..F ....|G#3 ...F ....|B-3 ...F ....
....|..|R-- .... ....|--- .... ....|B-3 ...F ....
....|..|C-4 A..F ....|D#4 ...F ....|B-3 ...F ....
....|..|R-- .... ....|--- .... ....|R-- .... ....
....|..|C-4 C..F ....|G#3 ...F ....|B-3 ...F ....
....|..|R-- .... ....|--- .... ....|R-- .... ....
....|..|C-4 A..F ....|C#4 ...F ....|B-3 ...F ....
....|..|R-- .... ....|--- .... ....|B-3 ...F ....
....|..|C-4 A..A ....|G#3 ...F ....|B-3 ...F ....
....|..|R-- .... ....|--- .... ....|R-- .... ....
....|..|C-4 C..A ....|D#4 ...F ....|B-3 ...F ....
....|..|R-- .... ....|--- .... ....|R-- .... ....
....|..|C-4 C..F ....|G#3 ...F ....|B-3 ...F ....
....|..|R-- .... ....|--- .... ....|B-3 ...A ....
....|..|C-4 A..7 ....|C#4 ...F ....|R-- .... ....
....|..|R-- .... ....|--- .... ....|R-- .... ....
....|..|C-4 A..F ....|E-3 ...F ....|B-3 ...F ....
....|..|R-- .... ....|--- .... ....|B-3 ...F ....
....|..|C-4 A..F ....|B-3 ...F ....|B-3 ...F ....
....|..|R-- .... ....|--- .... ....|B-3 ...F ....
....|..|C-4 C..F ....|E-3 ...F ....|B-3 ...F ....
....|..|R-- .... ....|--- .... ....|R-- .... ....
....|..|C-4 A..F ....|D#4 ...F ....|B-3 ...F ....
....|..|R-- .... ....|--- .... ....|B-3 ...F ....
....|..|C-4 A..A ....|E-3 ...F ....|B-3 ...F ....
....|..|R-- .... ....|--- .... ....|R-- .... ....
....|..|C-4 C..A ....|C#4 ...F ....|B-3 ...F ....
....|..|R-- .... ....|--- .... ....|B-3 ...F ....
....|..|C-4 C..F ....|E-3 ...F ....|B-3 ...F ....
....|..|R-- .... ....|--- .... ....|R-- .... ....
....|..|C-4 A..7 ....|E-4 ...F ....|B-3 ...A ....
....|..|R-- .... ....|--- .... ....|R-- .... ....
....|..|C-4 A..F ....|F#3 ...F ....|A#3 ...F ....
....|..|R-- .... ....|--- .... ....|A#3 ...F ....
....|..|C-4 A..F ....|A#3 ...F ....|A#3 ...F ....
....|..|R-- .... ....|--- .... ....|A#3 ...F ....
....|..|C-4 C..F ....|F#3 ...F ....|A#3 ...F ....
....|..|R-- .... ....|--- .... ....|R-- .... ....
....|..|C-4 A..F ....|C#4 ...F ....|A#3 ...F ....
....|..|R-- .... ....|--- .... ....|R-- .... ....
....|..|C-4 A..A ....|F#3 ...F ....|A#3 ...F ....
....|..|R-- .... ....|--- .... ....|A#3 ...A ....
....|..|C-4 C..A ....|D#4 ...F ....|B-3 ...F ....
....|..|R-- .... ....|--- .... ....|R-- .... ....
....|..|C-4 C..F ....|F#3 ...F ....|B-3 ...F ....
....|..|R-- .... ....|--- .... ....|R-- .... ....
....|..|C-4 A..7 ....|C#4 ...F ....|B-3 ...F ....
....|..|R-- .... ....|--- .... ....|R-- .... ....

[Pattern3]
....|..|C-4 A..F ....|B-3 ...F ....|B-3 ...F ....
....|..|R-- .... ....|--- .... ....|R-- .... ....
....|..|C-4 A..F ....|F#4 ...F ....|B-3 ...F ....
....|..|R-- .... ....|--- .... ....|B-3 ...F ....
....|..|C-4 C..F ....|B-3 ...F ....|R-- .... ....
....|..|R-- .... ....|--- .... ....|B-3 ...F ....
....|..|C-4 A..F ....|D#4 ...F ....|B-3 ...F ....
....|..|R-- .... ....|--- .... ....|R-- .... ....
....|..|C-4 A..A ....|B-3 ...F ....|B-3 ...F ....
....|..|R-- .... ....|--- .... ....|B-3 ...F ....
....|..|C-4 C..A ....|F#4 ...F ....|B-3 ...F ....
....|..|R-- .... ....|--- .... ....|B-3 ...F ....
....|..|C-4 C..F ....|B-3 ...F ....|B-3 ...F ....
....|..|R-- .... ....|--- .... ....|R-- .... ....
....|..|C-4 A..7 ....|D#4 ...F ....|B-3 ...F ....
....|..|R-- .... ....|--- .... ....|B-3 ...A ....
....|..|C-4 A..F ....|G#3 ...F ....|R-- .... ....
....|..|R-- .... ....|--- .... ....|B-3 ...A ....
....|..|C-4 A..F ....|D#4 ...F ....|B-3 ...F ....
....|..|R-- .... ....|--- .... ....|B-3 ...F ....
....|..|C-4 C..F ....|G#3 ...F ....|B-3 ...F ....
....|..|R-- .... ....|--- .... ....|R-- .... ....
....|..|C-4 A..F ....|C#4 ...F ....|B-3 ...F ....
....|..|R-- .... ....|--- .... ....|R-- .... ....
....|..|C-4 A..A ....|G#3 ...F ....|B-3 ...F ....
....|..|R-- .... ....|--- .... ....|R-- .... ....
....|..|C-4 C..A ....|D#4 ...F ....|C#4 ...F ....
....|..|R-- .... ....|--- .... ....|R-- .... ....
....|..|C-4 C..F ....|G#3 ...F ....|D#4 ...F ....
....|..|R-- .... ....|--- .... ....|R-- .... ....
....|..|C-4 A..7 ....|C#4 ...F ....|B-3 ...A ....
....|..|R-- .... ....|--- .... ....|R-- .... ....
....|..|C-4 A..F ....|E-3 ...F ....|B-3 ...F ....
....|..|R-- .... ....|--- .... ....|R-- .... ....
....|..|C-4 A..F ....|B-3 ...F ....|D#4 ...A ....
....|..|R-- .... ....|--- .... ....|R-- .... ....
....|..|C-4 C..F ....|E-3 ...F ....|R-- .... ....
....|..|R-- .... ....|--- .... ....|R-- .... ....
....|..|C-4 A..F ....|D#4 ...F ....|B-3 ...F ....
....|..|R-- .... ....|--- .... ....|B-3 ...F ....
....|..|C-4 A..A ....|E-3 ...F ....|B-3 ...F ....
....|..|R-- .... ....|--- .... ....|R-- .... ....
....|..|C-4 C..A ....|C#4 ...F ....|B-3 ...F ....
....|..|R-- .... ....|--- .... ....|R-- .... ....
....|..|C-4 C..F ....|E-3 ...F ....|B-3 ...F ....
....|..|R-- .... ....|--- .... ....|R-- .... ....
....|..|C-4 A..7 ....|E-4 ...F ....|B-3 ...A ....
....|..|R-- .... ....|--- .... ....|R-- .... ....
....|..|C-4 A..F ....|F#3 ...F ....|B-3 ...F ....
....|..|R-- .... ....|--- .... ....|R-- .... ....
....|..|C-4 A..F ....|A#3 ...F ....|B-3 ...F ....
....|..|R-- .... ....|--- .... ....|R-- .... ....
....|..|C-4 C..F ....|F#3 ...F ....|C#4 ...F ....
....|..|R-- .... ....|--- .... ....|R-- .... ....
....|..|C-4 A..F ....|C#4 ...F ....|D#4 ...F ....
....|..|R-- .... ....|--- .... ....|R-- .... ....
....|..|C-4 A..A ....|F#3 ...F ....|C#4 ...F ....
....|..|R-- .... ....|--- .... ....|R-- .... ....
....|..|C-4 C..A ....|D#4 ...F ....|C#4 ...A ....
....|..|R-- .... ....|--- .... ....|R-- .... ....
....|..|C-4 C..F ....|F#3 ...F ....|D#4 ...A ....
....|..|R-- .... ....|--- .... ....|R-- .... ....
....|..|C-4 A..7 ....|C#4 ...F ....|R-- .... ....
....|..|R-- .... ....|--- .... ....|R-- .... ....

[Pattern4]
....|..|C-4 A..F ....|B-3 ...F ....|B-3 ...F ....
....|..|R-- .... ....|--- .... ....|R-- .... ....
....|..|C-4 A..F ....|F#4 ...F ....|B-3 ...F ....
....|..|R-- .... ....|--- .... ....|R-- .... ....
....|..|C-4 C..F ....|B-3 ...F ....|B-3 ...F ....
....|..|R-- .... ....|--- .... ....|R-- .... ....
....|..|C-4 A..F ....|D#4 ...F ....|B-3 ...F ....
....|..|R-- .... ....|--- .... ....|R-- .... ....
....|..|C-4 A..A ....|B-3 ...F ....|F#4 ...F ....
....|..|R-- .... ....|--- .... ....|R-- .... ....
....|..|C-4 C..A ....|F#4 ...F ....|B-3 ...A ....
....|..|R-- .... ....|--- .... ....|R-- .... ....
....|..|C-4 C..F ....|B-3 ...F ....|B-3 ...F ....
....|..|R-- .... ....|--- .... ....|R-- .... ....
....|..|C-4 A..7 ....|D#4 ...F ....|F#4 ...A ....
....|..|R-- .... ....|--- .... ....|R-- .... ....
....|..|C-4 A..F ....|G#3 ...F ....|B-3 ...F ....
....|..|R-- .... ....|--- .... ....|R-- .... ....
....|..|C-4 A..F ....|D#4 ...F ....|B-3 ...F ....
....|..|R-- .... ....|--- .... ....|R-- .... ....
....|..|C-4 C..F ....|G#3 ...F ....|B-3 ...F ....
....|..|R-- .... ....|--- .... ....|R-- .... ....
....|..|C-4 A..F ....|C#4 ...F ....|B-3 ...F ....
....|..|R-- .... ....|--- .... ....|R-- .... ....
....|..|C-4 A..A ....|G#3 ...F ....|F#4 ...F ....
....|..|R-- .... ....|--- .... ....|R-- .... ....
....|..|C-4 C..A ....|D#4 ...F ....|B-3 ...A ....
....|..|R-- .... ....|--- .... ....|R-- .... ....
....|..|C-4 C..F ....|G#3 ...F ....|B-3 ...F ....
....|..|R-- .... ....|--- .... ....|R-- .... ....
....|..|C-4 A..7 ....|C#4 ...F ....|F#4 ...A ....
....|..|R-- .... ....|--- .... ....|R-- .... ....
....|..|C-4 A..F ....|E-3 ...F ....|B-3 ...7 ....
....|..|R-- .... ....|--- .... ....|R-- .... ....
....|..|C-4 A..F ....|B-3 ...F ....|B-3 ...F ....
....|..|R-- .... ....|--- .... ....|B-3 ...F ....
....|..|C-4 C..F ....|E-3 ...F ....|B-3 ...F ....
....|..|R-- .... ....|--- .... ....|R-- .... ....
....|..|C-4 A..F ....|D#4 ...F ....|B-3 ...F ....
....|..|R-- .... ....|--- .... ....|R-- .... ....
....|..|C-4 A..A ....|E-3 ...F ....|B-3 ...F ....
....|..|R-- .... ....|--- .... ....|B-3 ...A ....
....|..|C-4 C..A ....|C#4 ...F ....|B-3 ...A ....
....|..|R-- .... ....|--- .... ....|R-- .... ....
....|..|C-4 C..F ....|E-3 ...F ....|B-3 ...F ....
....|..|R-- .... ....|--- .... ....|R-- .... ....
....|..|C-4 A..7 ....|E-4 ...F ....|B-3 ...A ....
....|..|R-- .... ....|--- .... ....|R-- .... ....
....|..|C-4 A..F ....|F#3 ...F ....|E-4 ...F ....
....|..|R-- .... ....|--- .... ....|R-- .... ....
....|..|C-4 A..F ....|A#3 ...F ....|D#4 ...F ....
....|..|R-- .... ....|--- .... ....|R-- .... ....
....|..|C-4 C..F ....|F#3 ...F ....|B-3 ...7 ....
....|..|R-- .... ....|--- .... ....|R-- .... ....
....|..|C-4 A..F ....|C#4 ...F ....|B-3 ...F ....
....|..|R-- .... ....|--- .... ....|R-- .... ....
....|..|C-4 A..A ....|F#3 ...F ....|D#4 ...A ....
....|..|R-- .... ....|--- .... ....|--- .... ....
....|..|C-4 C..A ....|D#4 ...F ....|B-3 ...F ....
....|..|R-- .... ....|--- .... ....|R-- .... ....
....|..|C-4 C..F ....|F#3 ...F ....|B-3 ...A ....
....|..|R-- .... ....|--- .... ....|R-- .... ....
....|..|C-4 A..7 ....|C#4 ...F ....|E-4 ...F ....
....|..|R-- .... ....|--- .... ....|R-- .... ....

[Pattern5]
....|..|C-4 B..F ....|R-- .... ....|D#4 ...F ....
....|..|R-- .... ....|--- .... ....|--- .... ....
....|..|C-4 C..A ....|F#3 ...A ....|B-3 ...7 ....
....|..|R-- .... ....|--- .... ....|--- .... ....
....|..|--- .... ....|C#4 ...A ....|E-4 ...A ....
....|..|--- .... ....|--- .... ....|R-- .... ....
....|..|C-4 B..A ....|R-- .... ....|D#4 ...A ....
....|..|--- .... ....|--- .... ....|--- .... ....
....|..|C-4 C..7 ....|F#3 ...7 ....|--- .... ....
....|..|R-- .... ....|--- .... ....|--- .... ....
....|..|--- .... ....|C#4 ...7 ....|E-4 ...7 ....
....|..|--- .... ....|--- .... ....|R-- .... ....
....|..|C-4 B..7 ....|R-- .... ....|F#4 ...F ....
....|..|--- .... ....|--- .... ....|--- .... ....
....|..|--- .... ....|--- .... ....|--- .... ....
....|..|R-- .... ....|--- .... ....|R-- .... ....
....|..|A-3 ...F ....|B-3 ...F ....|D#4 ...F ....
....|..|R-- .... ....|--- .... ....|--- .... ....
....|..|C-4 A..F ....|F#4 ...F ....|F#4 ...A ....
....|..|R-- .... ....|--- .... ....|--- .... ....
....|..|C-4 C..F ....|B-3 ...F ....|C#4 ...F ....
....|..|R-- .... ....|--- .... ....|R-- .... ....
....|..|C-4 A..F ....|D#4 ...F ....|D#4 ...A ....
....|..|R-- .... ....|--- .... ....|--- .... ....
....|..|C-4 A..A ....|B-3 ...F ....|D#4 ...F ....
....|..|R-- .... ....|--- .... ....|--- .... ....
....|..|C-4 C..A ....|F#4 ...F ....|C#4 ...A ....
....|..|R-- .... ....|--- .... ....|R-- .... ....
....|..|C-4 C..F ....|B-3 ...F ....|C#4 ...F ....
....|..|R-- .... ....|--- .... ....|--- .... ....
....|..|C-4 A..7 ....|D#4 ...F ....|D#4 ...A ....
....|..|R-- .... ....|--- .... ....|R-- .... ....
....|..|C-4 A..F ....|G#3 ...F ....|D#4 ...F ....
....|..|R-- .... ....|--- .... ....|D#4 ...F ....
....|..|C-4 A..F ....|D#4 ...F ....|C#4 ...F ....
....|..|R-- .... ....|--- .... ....|R-- .... ....
....|..|C-4 C..F ....|G#3 ...F ....|D#4 ...F ....
....|..|R-- .... ....|--- .... ....|R-- .... ....
....|..|C-4 A..F ....|C#4 ...F ....|C#4 ...F ....
....|..|R-- .... ....|--- .... ....|R-- .... ....
....|..|C-4 A..A ....|G#3 ...F ....|D#4 ...F ....
....|..|R-- .... ....|--- .... ....|R-- .... ....
....|..|C-4 C..A ....|D#4 ...F ....|D#4 ...A ....
....|..|R-- .... ....|--- .... ....|R-- .... ....
....|..|C-4 C..F ....|G#3 ...F ....|C#4 ...F ....
....|..|R-- .... ....|--- .... ....|R-- .... ....
....|..|C-4 A..7 ....|C#4 ...F ....|D#4 ...A ....
....|..|R-- .... ....|--- .... ....|R-- .... ....
....|..|C-4 A..F ....|E-3 ...F ....|D#4 ...7 ....
....|..|R-- .... ....|--- .... ....|R-- .... ....
....|..|C-4 A..F ....|B-3 ...F ....|B-3 ...F ....
....|..|R-- .... ....|--- .... ....|B-3 ...F ....
....|..|C-4 C..F ....|E-3 ...F ....|B-3 ...F ....
....|..|R-- .... ....|--- .... ....|R-- .... ....
....|..|C-4 A..F ....|D#4 ...F ....|B-3 ...F ....
....|..|R-- .... ....|--- .... ....|R-- .... ....
....|..|C-4 A..A ....|E-3 ...F ....|B-3 ...F ....
....|..|R-- .... ....|--- .... ....|B-3 ...F ....
....|..|C-4 C..A ....|C#4 ...F ....|B-3 ...F ....
....|..|R-- .... ....|--- .... ....|R-- .... ....
....|..|C-4 C..F ....|E-3 ...F ....|B-3 ...F ....
....|..|R-- .... ....|--- .... ....|R-- .... ....
....|..|C-4 A..7 ....|E-4 ...F ....|B-3 ...F ....
....|..|R-- .... ....|--- .... ....|B-3 ...A ....

[Pattern6]
....|..|C-4 A..F ....|F#3 ...F ....|F#3 ...F ....
....|..|R-- .... ....|--- .... ....|R-- .... ....
....|..|C-4 A..F ....|A#3 ...F ....|B-3 ...A ....
....|..|R-- .... ....|--- .... ....|R-- .... ....
....|..|C-4 C..F ....|F#3 ...F ....|C#4 ...F ....
....|..|R-- .... ....|--- .... ....|B-3 ...7 ....
....|..|C-4 A..F ....|C#4 ...F ....|F#3 ...A ....
....|..|R-- .... ....|--- .... ....|R-- .... ....
....|..|C-4 A..A ....|F#3 ...F ....|F#3 ...F ....
....|..|R-- .... ....|--- .... ....|R-- .... ....
....|..|C-4 C..A ....|D#4 ...F ....|C#4 ...A ....
....|..|R-- .... ....|--- .... ....|--- .... ....
....|..|C-4 C..F ....|F#3 ...F ....|C#4 ...F ....
....|..|R-- .... ....|--- .... ....|--- .... ....
....|..|C-4 A..7 ....|C#4 ...F ....|F#3 ...A ....
....|..|R-- .... ....|--- .... ....|R-- .... ....
....|..|A-3 ...F ....|B-3 ...F ....|D#4 ...F ....
....|..|R-- .... ....|--- .... ....|--- .... ....
....|..|C-4 A..F ....|F#4 ...F ....|C#4 ...A ....
....|..|R-- .... ....|--- .... ....|--- .... ....
....|..|C-4 C..F ....|B-3 ...F ....|C#4 ...F ....
....|..|R-- .... ....|--- .... ....|R-- .... ....
....|..|C-4 A..F ....|D#4 ...F ....|D#4 ...A ....
....|..|R-- .... ....|--- .... ....|--- .... ....
....|..|C-4 A..A ....|B-3 ...F ....|D#4 ...F ....
....|..|R-- .... ....|--- .... ....|--- .... ....
....|..|C-4 C..A ....|F#4 ...F ....|C#4 ...A ....
....|..|R-- .... ....|--- .... ....|R-- .... ....
....|..|C-4 C..F ....|B-3 ...F ....|C#4 ...F ....
....|..|R-- .... ....|--- .... ....|--- .... ....
....|..|C-4 A..7 ....|D#4 ...F ....|D#4 ...A ....
....|..|R-- .... ....|--- .... ....|R-- .... ....
....|..|C-4 A..F ....|G#3 ...F ....|D#4 ...F ....
....|..|R-- .... ....|--- .... ....|R-- .... ....
....|..|C-4 A..F ....|D#4 ...F ....|C#4 ...F ....
....|..|R-- .... ....|--- .... ....|R-- .... ....
....|..|C-4 C..F ....|G#3 ...F ....|D#4 ...F ....
....|..|R-- .... ....|--- .... ....|R-- .... ....
....|..|C-4 A..F ....|C#4 ...F ....|C#4 ...F ....
....|..|R-- .... ....|--- .... ....|R-- .... ....
....|..|C-4 A..A ....|G#3 ...F ....|D#4 ...F ....
....|..|R-- .... ....|--- .... ....|R-- .... ....
....|..|C-4 C..A ....|D#4 ...F ....|D#4 ...A ....
....|..|R-- .... ....|--- .... ....|R-- .... ....
....|..|C-4 C..F ....|G#3 ...F ....|C#4 ...F ....
....|..|R-- .... ....|--- .... ....|R-- .... ....
....|..|C-4 A..7 ....|C#4 ...F ....|D#4 ...A ....
....|..|R-- .... ....|--- .... ....|R-- .... ....
....|..|C-4 A..F ....|E-3 ...F ....|D#4 ...7 ....
....|..|R-- .... ....|--- .... ....|R-- .... ....
....|..|C-4 A..F ....|B-3 ...F ....|B-3 ...F ....
....|..|R-- .... ....|--- .... ....|B-3 ...F ....
....|..|C-4 C..F ....|E-3 ...F ....|B-3 ...F ....
....|..|R-- .... ....|--- .... ....|R-- .... ....
....|..|C-4 A..F ....|D#4 ...F ....|B-3 ...F ....
....|..|R-- .... ....|--- .... ....|R-- .... ....
....|..|C-4 A..A ....|E-3 ...F ....|B-3 ...F ....
....|..|R-- .... ....|--- .... ....|R-- .... ....
....|..|C-4 C..A ....|C#4 ...F ....|B-3 ...F ....
....|..|R-- .... ....|--- .... ....|R-- .... ....
....|..|C-4 C..F ....|E-3 ...F ....|B-3 ...F ....
....|..|R-- .... ....|--- .... ....|R-- .... ....
....|..|C-4 A..7 ....|E-4 ...F ....|B-3 ...F ....
....|..|R-- .... ....|--- .... ....|R-- .... ....

[Pattern7]
....|..|C-4 A..F ....|F#3 ...F ....|D#4 ...F ....
....|..|R-- .... ....|--- .... ....|R-- .... ....
....|..|C-4 A..F ....|A#3 ...F ....|B-3 ...A ....
....|..|R-- .... ....|--- .... ....|R-- .... ....
....|..|C-4 C..F ....|F#3 ...F ....|C#4 ...F ....
....|..|R-- .... ....|--- .... ....|R-- .... ....
....|..|C-4 A..F ....|C#4 ...F ....|D#4 ...A ....
....|..|R-- .... ....|--- .... ....|R-- .... ....
....|..|C-4 A..A ....|F#3 ...F ....|D#4 ...F ....
....|..|R-- .... ....|--- .... ....|R-- .... ....
....|..|C-4 C..A ....|D#4 ...F ....|C#4 ...A ....
....|..|R-- .... ....|--- .... ....|--- .... ....
....|..|C-4 C..F ....|F#3 ...F ....|C#4 ...F ....
....|..|R-- .... ....|--- .... ....|--- .... ....
....|..|C-4 A..7 ....|C#4 ...F ....|D#4 ...A ....
....|..|R-- .... ....|--- .... ....|R-- .... ....
....|..|C-4 A..F ....|B-3 ...F ....|B-3 ...F ....
....|..|R-- .... ....|--- .... ....|R-- .... ....
....|..|C-4 A..F ....|F#4 ...F ....|B-3 ...F ....
....|..|R-- .... ....|--- .... ....|R-- .... ....
....|..|C-4 C..F ....|B-3 ...F ....|B-3 ...F ....
....|..|R-- .... ....|--- .... ....|R-- .... ....
....|..|C-4 A..F ....|D#4 ...F ....|B-3 ...F ....
....|..|R-- .... ....|--- .... ....|R-- .... ....
....|..|C-4 A..A ....|B-3 ...F ....|B-3 ...F ....
....|..|R-- .... ....|--- .... ....|R-- .... ....
....|..|C-4 C..A ....|F#4 ...F ....|B-3 ...F ....
....|..|R-- .... ....|--- .... ....|R-- .... ....
....|..|A-3 ...F ....|B-3 ...F ....|B-3 ...A ....
....|..|R-- .... ....|--- .... ....|R-- .... ....
....|..|C-4 A..7 ....|D#4 ...F ....|B-3 ...A ....
....|..|R-- .... ....|--- .... ....|R-- .... ....
....|..|C-4 A..F ....|G#3 ...F ....|B-3 ...F ....
....|..|R-- .... ....|--- .... ....|R-- .... ....
....|..|C-4 A..F ....|D#4 ...F ....|B-3 ...F ....
....|..|R-- .... ....|--- .... ....|R-- .... ....
....|..|C-4 C..F ....|G#3 ...F ....|B-3 ...F ....
....|..|R-- .... ....|--- .... ....|R-- .... ....
....|..|C-4 A..F ....|C#4 ...F ....|B-3 ...F ....
....|..|R-- .... ....|--- .... ....|R-- .... ....
....|..|C-4 A..A ....|G#3 ...F ....|B-3 ...F ....
....|..|R-- .... ....|--- .... ....|R-- .... ....
....|..|C-4 C..A ....|D#4 ...F ....|B-3 ...F ....
....|..|R-- .... ....|--- .... ....|R-- .... ....
....|..|A-3 ...F ....|G#3 ...F ....|B-3 ...A ....
....|..|R-- .... ....|--- .... ....|R-- .... ....
....|..|C-4 A..7 ....|C#4 ...F ....|B-3 ...A ....
....|..|R-- .... ....|--- .... ....|R-- .... ....
....|..|C-4 A..F ....|E-3 ...F ....|B-3 ...F ....
....|..|R-- .... ....|--- .... ....|R-- .... ....
....|..|C-4 A..F ....|B-3 ...F ....|B-3 ...7 ....
....|..|R-- .... ....|--- .... ....|R-- .... ....
....|..|C-4 C..F ....|E-3 ...F ....|B-3 ...F ....
....|..|R-- .... ....|--- .... ....|R-- .... ....
....|..|C-4 A..F ....|D#4 ...F ....|B-3 ...A ....
....|..|R-- .... ....|--- .... ....|--- .... ....
....|..|C-4 A..A ....|E-3 ...F ....|B-3 ...F ....
....|..|R-- .... ....|--- .... ....|--- .... ....
....|..|C-4 C..A ....|C#4 ...F ....|B-3 ...A ....
....|..|R-- .... ....|--- .... ....|--- .... ....
....|..|C-4 C..F ....|E-3 ...F ....|B-3 ...F ....
....|..|R-- .... ....|--- .... ....|--- .... ....
....|..|C-4 A..7 ....|E-4 ...F ....|B-3 ...A ....
....|..|R-- .... ....|--- .... ....|R-- .... ....

[Pattern8]
....|..|C-4 A..F ....|F#3 ...F ....|D#4 ...F ....
....|..|R-- .... ....|--- .... ....|R-- .... ....
....|..|C-4 A..F ....|A#3 ...F ....|C#4 ...F ....
....|..|R-- .... ....|--- .... ....|R-- .... ....
....|..|C-4 C..F ....|F#3 ...F ....|C#4 ...F ....
....|..|R-- .... ....|--- .... ....|R-- .... ....
....|..|C-4 A..F ....|C#4 ...F ....|C#4 ...F ....
....|..|R-- .... ....|--- .... ....|R-- .... ....
....|..|C-4 A..A ....|F#3 ...F ....|B-3 ...F ....
....|..|R-- .... ....|--- .... ....|R-- .... ....
....|..|C-4 C..A ....|D#4 ...F ....|A#3 ...F ....
....|..|R-- .... ....|--- .... ....|R-- .... ....
....|..|C-4 C..F ....|F#3 ...F ....|G#3 ...F ....
....|..|R-- .... ....|--- .... ....|R-- .... ....
....|..|C-4 A..7 ....|C#4 ...F ....|A#3 ...F ....
....|..|R-- .... ....|--- .... ....|R-- .... ....
....|..|C-4 A..F ....|B-3 ...F ....|B-3 ...F ....
....|..|R-- .... ....|--- .... ....|R-- .... ....
....|..|C-4 A..F ....|F#4 ...F ....|G#3 ...A ....
....|..|R-- .... ....|--- .... ....|R-- .... ....
....|..|C-4 C..F ....|B-3 ...F ....|B-3 ...F ....
....|..|R-- .... ....|--- .... ....|R-- .... ....
....|..|C-4 A..F ....|D#4 ...F ....|B-3 ...F ....
....|..|R-- .... ....|--- .... ....|R-- .... ....
....|..|C-4 A..A ....|B-3 ...F ....|B-3 ...F ....
....|..|R-- .... ....|--- .... ....|B-3 ...F ....
....|..|C-4 C..A ....|F#4 ...F ....|B-3 ...F ....
....|..|R-- .... ....|--- .... ....|B-3 ...F ....
....|..|C-4 C..F ....|B-3 ...F ....|B-3 ...F ....
....|..|R-- .... ....|--- .... ....|R-- .... ....
....|..|C-4 A..7 ....|D#4 ...F ....|B-3 ...F ....
....|..|R-- .... ....|--- .... ....|R-- .... ....
....|..|C-4 A..F ....|G#3 ...F ....|B-3 ...F ....
....|..|R-- .... ....|--- .... ....|B-3 ...F ....
....|..|C-4 A..F ....|D#4 ...F ....|B-3 ...F ....
....|..|R-- .... ....|--- .... ....|R-- .... ....
....|..|C-4 C..F ....|G#3 ...F ....|B-3 ...F ....
....|..|R-- .... ....|--- .... ....|R-- .... ....
....|..|C-4 A..F ....|C#4 ...F ....|B-3 ...F ....
....|..|R-- .... ....|--- .... ....|R-- .... ....
....|..|C-4 A..A ....|G#3 ...F ....|B-3 ...F ....
....|..|R-- .... ....|--- .... ....|R-- .... ....
....|..|C-4 C..A ....|D#4 ...F ....|B-3 ...F ....
....|..|R-- .... ....|--- .... ....|B-3 ...F ....
....|..|C-4 C..F ....|G#3 ...F ....|B-3 ...F ....
....|..|R-- .... ....|--- .... ....|R-- .... ....
....|..|C-4 A..7 ....|C#4 ...F ....|B-3 ...A ....
....|..|R-- .... ....|--- .... ....|R-- .... ....
....|..|C-4 A..F ....|E-3 ...F ....|B-3 ...F ....
....|..|R-- .... ....|--- .... ....|B-3 ...A ....
....|..|C-4 A..F ....|B-3 ...F ....|B-3 ...A ....
....|..|R-- .... ....|--- .... ....|R-- .... ....
....|..|C-4 C..F ....|E-3 ...F ....|B-3 ...F ....
....|..|R-- .... ....|--- .... ....|R-- .... ....
....|..|C-4 A..F ....|D#4 ...F ....|B-3 ...A ....
....|..|R-- .... ....|--- .... ....|B-3 ...7 ....
....|..|C-4 A..A ....|E-3 ...F ....|B-3 ...F ....
....|..|R-- .... ....|--- .... ....|R-- .... ....
....|..|C-4 C..A ....|C#4 ...F ....|B-3 ...F ....
....|..|R-- .... ....|--- .... ....|B-3 ...F ....
....|..|C-4 C..F ....|E-3 ...F ....|B-3 ...F ....
....|..|R-- .... ....|--- .... ....|R-- .... ....
....|..|C-4 A..7 ....|E-4 ...F ....|B-3 ...A ....
....|..|R-- .... ....|--- .... ....|R-- .... ....

[Pattern9]
....|..|C-4 A..F ....|F#3 ...F ....|F#3 ...F ....
....|..|R-- .... ....|--- .... ....|B-3 ...A ....
....|..|C-4 A..F ....|A#3 ...F ....|B-3 ...A ....
....|..|R-- .... ....|--- .... ....|R-- .... ....
....|..|C-4 C..F ....|F#3 ...F ....|B-3 ...F ....
....|..|R-- .... ....|--- .... ....|R-- .... ....
....|..|C-4 A..F ....|C#4 ...F ....|F#3 ...A ....
....|..|R-- .... ....|--- .... ....|B-3 ...7 ....
....|..|C-4 A..A ....|F#3 ...F ....|D#4 ...F ....
....|..|R-- .... ....|--- .... ....|R-- .... ....
....|..|C-4 C..A ....|D#4 ...F ....|C#4 ...F ....
....|..|R-- .... ....|--- .... ....|R-- .... ....
....|..|C-4 C..F ....|F#3 ...F ....|B-3 ...F ....
....|..|R-- .... ....|--- .... ....|R-- .... ....
....|..|C-4 A..7 ....|C#4 ...F ....|A#3 ...F ....
....|..|R-- .... ....|--- .... ....|R-- .... ....
....|..|C-4 A..F ....|B-3 ...F ....|C#4 ...A ....
....|..|R-- .... ....|--- .... ....|R-- .... ....
....|..|C-4 A..F ....|F#4 ...F ....|F#4 ...F ....
....|..|R-- .... ....|--- .... ....|R-- .... ....
....|..|C-4 C..F ....|B-3 ...F ....|B-3 ...F ....
....|..|R-- .... ....|--- .... ....|R-- .... ....
....|..|C-4 A..F ....|D#4 ...F ....|B-3 ...F ....
....|..|R-- .... ....|--- .... ....|R-- .... ....
....|..|C-4 A..A ....|B-3 ...F ....|B-3 ...F ....
....|..|R-- .... ....|--- .... ....|R-- .... ....
....|..|C-4 C..A ....|F#4 ...F ....|B-3 ...F ....
....|..|R-- .... ....|--- .... ....|R-- .... ....
....|..|C-4 C..F ....|B-3 ...F ....|B-3 ...F ....
....|..|R-- .... ....|--- .... ....|R-- .... ....
....|..|C-4 A..7 ....|D#4 ...F ....|B-3 ...F ....
....|..|R-- .... ....|--- .... ....|R-- .... ....
....|..|C-4 A..F ....|G#3 ...F ....|B-3 ...F ....
....|..|R-- .... ....|--- .... ....|R-- .... ....
....|..|C-4 A..F ....|D#4 ...F ....|B-3 ...F ....
....|..|R-- .... ....|--- .... ....|R-- .... ....
....|..|C-4 C..F ....|G#3 ...F ....|B-3 ...F ....
....|..|R-- .... ....|--- .... ....|R-- .... ....
....|..|C-4 A..F ....|C#4 ...F ....|B-3 ...F ....
....|..|R-- .... ....|--- .... ....|R-- .... ....
....|..|C-4 A..A ....|G#3 ...F ....|B-3 ...F ....
....|..|R-- .... ....|--- .... ....|R-- .... ....
....|..|C-4 C..A ....|D#4 ...F ....|B-3 ...A ....
....|..|R-- .... ....|--- .... ....|R-- .... ....
....|..|C-4 C..F ....|G#3 ...F ....|D#4 ...F ....
....|..|R-- .... ....|--- .... ....|R-- .... ....
....|..|C-4 A..7 ....|C#4 ...F ....|C#4 ...F ....
....|..|R-- .... ....|--- .... ....|R-- .... ....
....|..|C-4 A..F ....|E-3 ...F ....|B-3 ...7 ....
....|..|R-- .... ....|--- .... ....|R-- .... ....
....|..|C-4 A..F ....|B-3 ...F ....|F#4 ...F ....
....|..|R-- .... ....|--- .... ....|R-- .... ....
....|..|C-4 C..F ....|E-3 ...F ....|B-3 ...F ....
....|..|R-- .... ....|--- .... ....|R-- .... ....
....|..|C-4 A..F ....|D#4 ...F ....|B-3 ...F ....
....|..|R-- .... ....|--- .... ....|R-- .... ....
....|..|C-4 A..A ....|E-3 ...F ....|B-3 ...F ....
....|..|R-- .... ....|--- .... ....|R-- .... ....
....|..|C-4 C..A ....|C#4 ...F ....|B-3 ...F ....
....|..|R-- .... ....|--- .... ....|R-- .... ....
....|..|C-4 C..F ....|E-3 ...F ....|B-3 ...F ....
....|..|R-- .... ....|--- .... ....|R-- .... ....
....|..|C-4 A..7 ....|E-4 ...F ....|B-3 ...A ....
....|..|R-- .... ....|--- .... ....|R-- .... ....

[Pattern10]
....|..|C-4 A..F ....|F#3 ...F ....|F#3 ...F ....
....|..|R-- .... ....|--- .... ....|R-- .... ....
....|..|C-4 A..F ....|A#3 ...F ....|B-3 ...A ....
....|..|R-- .... ....|--- .... ....|R-- .... ....
....|..|C-4 C..F ....|F#3 ...F ....|C#4 ...F ....
....|..|R-- .... ....|--- .... ....|R-- .... ....
....|..|C-4 A..F ....|C#4 ...F ....|F#3 ...A ....
....|..|R-- .... ....|--- .... ....|R-- .... ....
....|..|C-4 A..A ....|F#3 ...F ....|D#4 ...F ....
....|..|R-- .... ....|--- .... ....|R-- .... ....
....|..|C-4 C..A ....|D#4 ...F ....|C#4 ...A ....
....|..|R-- .... ....|--- .... ....|--- .... ....
....|..|C-4 C..F ....|F#3 ...F ....|C#4 ...F ....
....|..|R-- .... ....|--- .... ....|--- .... ....
....|..|C-4 A..7 ....|C#4 ...F ....|D#4 ...A ....
....|..|R-- .... ....|--- .... ....|R-- .... ....
....|..|C-4 A..F ....|B-3 ...F ....|B-3 ...F ....
....|..|R-- .... ....|--- .... ....|R-- .... ....
....|..|C-4 A..F ....|F#4 ...F ....|B-3 ...F ....
....|..|R-- .... ....|--- .... ....|R-- .... ....
....|..|C-4 C..F ....|B-3 ...F ....|B-3 ...F ....
....|..|R-- .... ....|--- .... ....|R-- .... ....
....|..|C-4 A..F ....|D#4 ...F ....|B-3 ...F ....
....|..|R-- .... ....|--- .... ....|R-- .... ....
....|..|C-4 A..A ....|B-3 ...F ....|F#4 ...F ....
....|..|R-- .... ....|--- .... ....|R-- .... ....
....|..|C-4 C..A ....|F#4 ...F ....|B-3 ...A ....
....|..|R-- .... ....|--- .... ....|R-- .... ....
....|..|C-4 C..F ....|B-3 ...F ....|B-3 ...F ....
....|..|R-- .... ....|--- .... ....|R-- .... ....
....|..|C-4 A..7 ....|D#4 ...F ....|F#4 ...A ....
....|..|R-- .... ....|--- .... ....|R-- .... ....
....|..|C-4 A..F ....|G#3 ...F ....|B-3 ...F ....
....|..|R-- .... ....|--- .... ....|R-- .... ....
....|..|C-4 A..F ....|D#4 ...F ....|B-3 ...F ....
....|..|R-- .... ....|--- .... ....|R-- .... ....
....|..|C-4 C..F ....|G#3 ...F ....|B-3 ...F ....
....|..|R-- .... ....|--- .... ....|R-- .... ....
....|..|C-4 A..F ....|C#4 ...F ....|B-3 ...F ....
....|..|R-- .... ....|--- .... ....|R-- .... ....
....|..|C-4 A..A ....|G#3 ...F ....|F#4 ...F ....
....|..|R-- .... ....|--- .... ....|R-- .... ....
....|..|C-4 C..A ....|D#4 ...F ....|B-3 ...A ....
....|..|R-- .... ....|--- .... ....|R-- .... ....
....|..|C-4 C..F ....|G#3 ...F ....|B-3 ...F ....
....|..|R-- .... ....|--- .... ....|R-- .... ....
....|..|C-4 A..7 ....|C#4 ...F ....|F#4 ...A ....
....|..|R-- .... ....|--- .... ....|R-- .... ....
....|..|C-4 A..F ....|E-3 ...F ....|B-3 ...7 ....
....|..|R-- .... ....|--- .... ....|R-- .... ....
....|..|C-4 A..F ....|B-3 ...F ....|D#4 ...F ....
....|..|R-- .... ....|--- .... ....|D#4 ...F ....
....|..|C-4 C..F ....|E-3 ...F ....|D#4 ...F ....
....|..|R-- .... ....|--- .... ....|R-- .... ....
....|..|C-4 A..F ....|D#4 ...F ....|D#4 ...F ....
....|..|R-- .... ....|--- .... ....|R-- .... ....
....|..|C-4 A..A ....|E-3 ...F ....|D#4 ...F ....
....|..|R-- .... ....|--- .... ....|D#4 ...A ....
....|..|C-4 C..A ....|C#4 ...F ....|D#4 ...A ....
....|..|R-- .... ....|--- .... ....|R-- .... ....
....|..|C-4 C..F ....|E-3 ...F ....|B-3 ...F ....
....|..|R-- .... ....|--- .... ....|R-- .... ....
....|..|C-4 A..7 ....|E-4 ...F ....|D#4 ...A ....
....|..|R-- .... ....|--- .... ....|R-- .... ....

[Pattern11]
....|..|C-4 A..F ....|F#3 ...F ....|E-4 ...F ....
....|..|R-- .... ....|--- .... ....|R-- .... ....
....|..|C-4 A..F ....|A#3 ...F ....|D#4 ...F ....
....|..|R-- .... ....|--- .... ....|R-- .... ....
....|..|C-4 C..F ....|F#3 ...F ....|D#4 ...7 ....
....|..|R-- .... ....|--- .... ....|R-- .... ....
....|..|C-4 A..F ....|C#4 ...F ....|B-3 ...F ....
....|..|R-- .... ....|--- .... ....|R-- .... ....
....|..|C-4 A..A ....|F#3 ...F ....|D#4 ...A ....
....|..|R-- .... ....|--- .... ....|--- .... ....
....|..|C-4 C..A ....|D#4 ...F ....|B-3 ...F ....
....|..|R-- .... ....|--- .... ....|R-- .... ....
....|..|C-4 C..F ....|F#3 ...F ....|B-3 ...A ....
....|..|R-- .... ....|--- .... ....|R-- .... ....
....|..|C-4 A..7 ....|C#4 ...F ....|E-4 ...F ....
....|..|R-- .... ....|--- .... ....|--- .... ....
....|..|C-4 B..F ....|R-- .... ....|F#4 ...F ....
....|..|R-- .... ....|--- .... ....|--- .... ....
....|..|C-4 C..A ....|F#3 ...A ....|B-3 ...7 ....
....|..|R-- .... ....|--- .... ....|--- .... ....
....|..|--- .... ....|C#4 ...A ....|E-4 ...A ....
....|..|--- .... ....|--- .... ....|--- .... ....
....|..|C-4 B..A ....|R-- .... ....|F#4 ...A ....
....|..|--- .... ....|--- .... ....|--- .... ....
....|..|C-4 C..7 ....|F#3 ...7 ....|--- .... ....
....|..|R-- .... ....|--- .... ....|--- .... ....
....|..|--- .... ....|C#4 ...7 ....|E-4 ...7 ....
....|..|--- .... ....|--- .... ....|--- .... ....
....|..|C-4 B..7 ....|R-- .... ....|F#4 ...F ....
....|..|--- .... ....|--- .... ....|--- .... ....
....|..|--- .... ....|--- .... ....|--- .... ....
....|..|R-- .... ....|--- .... ....|R-- .... ....
....|..|A-3 ...F ....|B-3 ...F ....|D#4 ...F ....
....|..|R-- .... ....|--- .... ....|--- .... ....
....|..|C-4 A..F ....|F#4 ...F ....|F#4 ...A ....
....|..|R-- .... ....|--- .... ....|--- .... ....
....|..|C-4 C..F ....|B-3 ...F ....|C#4 ...F ....
....|..|R-- .... ....|--- .... ....|R-- .... ....
....|..|C-4 A..F ....|D#4 ...F ....|D#4 ...A ....
....|..|R-- .... ....|--- .... ....|--- .... ....
....|..|C-4 A..A ....|B-3 ...F ....|D#4 ...F ....
....|..|R-- .... ....|--- .... ....|--- .... ....
....|..|C-4 C..A ....|F#4 ...F ....|C#4 ...A ....
....|..|R-- .... ....|--- .... ....|R-- .... ....
....|..|C-4 C..F ....|B-3 ...F ....|C#4 ...F ....
....|..|R-- .... ....|--- .... ....|--- .... ....
....|..|C-4 A..7 ....|D#4 ...F ....|D#4 ...A ....
....|..|R-- .... ....|--- .... ....|R-- .... ....
....|..|C-4 A..F ....|G#3 ...F ....|D#4 ...F ....
....|..|R-- .... ....|--- .... ....|D#4 ...F ....
....|..|C-4 A..F ....|D#4 ...F ....|C#4 ...F ....
....|..|R-- .... ....|--- .... ....|R-- .... ....
....|..|C-4 C..F ....|G#3 ...F ....|D#4 ...F ....
....|..|R-- .... ....|--- .... ....|R-- .... ....
....|..|C-4 A..F ....|C#4 ...F ....|C#4 ...F ....
....|..|R-- .... ....|--- .... ....|R-- .... ....
....|..|C-4 A..A ....|G#3 ...F ....|D#4 ...F ....
....|..|R-- .... ....|--- .... ....|R-- .... ....
....|..|C-4 C..A ....|D#4 ...F ....|D#4 ...A ....
....|..|R-- .... ....|--- .... ....|R-- .... ....
....|..|C-4 C..F ....|G#3 ...F ....|C#4 ...F ....
....|..|R-- .... ....|--- .... ....|R-- .... ....
....|..|C-4 A..7 ....|C#4 ...F ....|D#4 ...A ....
....|..|R-- .... ....|--- .... ....|R-- .... ....

[Pattern12]
....|..|C-4 A..F ....|E-3 ...F ....|D#4 ...7 ....
....|..|R-- .... ....|--- .... ....|R-- .... ....
....|..|C-4 A..F ....|B-3 ...F ....|B-3 ...F ....
....|..|R-- .... ....|--- .... ....|B-3 ...F ....
....|..|C-4 C..F ....|E-3 ...F ....|B-3 ...F ....
....|..|R-- .... ....|--- .... ....|R-- .... ....
....|..|C-4 A..F ....|D#4 ...F ....|B-3 ...F ....
....|..|R-- .... ....|--- .... ....|R-- .... ....
....|..|C-4 A..A ....|E-3 ...F ....|B-3 ...F ....
....|..|R-- .... ....|--- .... ....|B-3 ...F ....
....|..|C-4 C..A ....|C#4 ...F ....|B-3 ...F ....
....|..|R-- .... ....|--- .... ....|R-- .... ....
....|..|C-4 C..F ....|E-3 ...F ....|B-3 ...F ....
....|..|R-- .... ....|--- .... ....|R-- .... ....
....|..|C-4 A..7 ....|E-4 ...F ....|B-3 ...F ....
....|..|R-- .... ....|--- .... ....|B-3 ...A ....
....|..|C-4 A..F ....|F#3 ...F ....|F#3 ...F ....
....|..|R-- .... ....|--- .... ....|R-- .... ....
....|..|C-4 A..F ....|A#3 ...F ....|B-3 ...A ....
....|..|R-- .... ....|--- .... ....|R-- .... ....
....|..|C-4 C..F ....|F#3 ...F ....|C#4 ...F ....
....|..|R-- .... ....|--- .... ....|B-3 ...7 ....
....|..|C-4 A..F ....|C#4 ...F ....|F#3 ...A ....
....|..|R-- .... ....|--- .... ....|R-- .... ....
....|..|C-4 A..A ....|F#3 ...F ....|F#3 ...F ....
....|..|R-- .... ....|--- .... ....|R-- .... ....
....|..|C-4 C..A ....|D#4 ...F ....|C#4 ...A ....
....|..|R-- .... ....|--- .... ....|--- .... ....
....|..|C-4 C..F ....|F#3 ...F ....|C#4 ...F ....
....|..|R-- .... ....|--- .... ....|--- .... ....
....|..|C-4 A..7 ....|C#4 ...F ....|F#3 ...A ....
....|..|R-- .... ....|--- .... ....|R-- .... ....
....|..|A-3 ...F ....|B-3 ...F ....|D#4 ...F ....
....|..|R-- .... ....|--- .... ....|--- .... ....
....|..|C-4 A..F ....|F#4 ...F ....|C#4 ...A ....
....|..|R-- .... ....|--- .... ....|--- .... ....
....|..|C-4 C..F ....|B-3 ...F ....|C#4 ...F ....
....|..|R-- .... ....|--- .... ....|R-- .... ....
....|..|C-4 A..F ....|D#4 ...F ....|D#4 ...A ....
....|..|R-- .... ....|--- .... ....|--- .... ....
....|..|C-4 A..A ....|B-3 ...F ....|D#4 ...F ....
....|..|R-- .... ....|--- .... ....|--- .... ....
....|..|C-4 C..A ....|F#4 ...F ....|C#4 ...A ....
....|..|R-- .... ....|--- .... ....|R-- .... ....
....|..|C-4 C..F ....|B-3 ...F ....|C#4 ...F ....
....|..|R-- .... ....|--- .... ....|--- .... ....
....|..|C-4 A..7 ....|D#4 ...F ....|D#4 ...A ....
....|..|R-- .... ....|--- .... ....|R-- .... ....
....|..|C-4 A..F ....|G#3 ...F ....|D#4 ...F ....
....|..|R-- .... ....|--- .... ....|R-- .... ....
....|..|C-4 A..F ....|D#4 ...F ....|C#4 ...F ....
....|..|R-- .... ....|--- .... ....|R-- .... ....
....|..|C-4 C..F ....|G#3 ...F ....|D#4 ...F ....
....|..|R-- .... ....|--- .... ....|R-- .... ....
....|..|C-4 A..F ....|C#4 ...F ....|C#4 ...F ....
....|..|R-- .... ....|--- .... ....|R-- .... ....
....|..|C-4 A..A ....|G#3 ...F ....|D#4 ...F ....
....|..|R-- .... ....|--- .... ....|R-- .... ....
....|..|C-4 C..A ....|D#4 ...F ....|D#4 ...A ....
....|..|R-- .... ....|--- .... ....|R-- .... ....
....|..|C-4 C..F ....|G#3 ...F ....|C#4 ...F ....
....|..|R-- .... ....|--- .... ....|R-- .... ....
....|..|C-4 A..7 ....|C#4 ...F ....|D#4 ...A ....
....|..|R-- .... ....|--- .... ....|R-- .... ....

[Pattern13]
....|..|C-4 A..F ....|E-3 ...F ....|D#4 ...7 ....
....|..|R-- .... ....|--- .... ....|R-- .... ....
....|..|C-4 A..F ....|B-3 ...F ....|B-3 ...F ....
....|..|R-- .... ....|--- .... ....|B-3 ...F ....
....|..|C-4 C..F ....|E-3 ...F ....|B-3 ...F ....
....|..|R-- .... ....|--- .... ....|R-- .... ....
....|..|C-4 A..F ....|D#4 ...F ....|B-3 ...F ....
....|..|R-- .... ....|--- .... ....|R-- .... ....
....|..|C-4 A..A ....|E-3 ...F ....|B-3 ...F ....
....|..|R-- .... ....|--- .... ....|R-- .... ....
....|..|C-4 C..A ....|C#4 ...F ....|B-3 ...F ....
....|..|R-- .... ....|--- .... ....|R-- .... ....
....|..|C-4 C..F ....|E-3 ...F ....|B-3 ...F ....
....|..|R-- .... ....|--- .... ....|R-- .... ....
....|..|C-4 A..7 ....|E-4 ...F ....|B-3 ...F ....
....|..|R-- .... ....|--- .... ....|R-- .... ....
....|..|C-4 A..F ....|F#3 ...F ....|D#4 ...F ....
....|..|R-- .... ....|--- .... ....|R-- .... ....
....|..|C-4 A..F ....|A#3 ...F ....|B-3 ...A ....
....|..|R-- .... ....|--- .... ....|R-- .... ....
....|..|C-4 C..F ....|F#3 ...F ....|C#4 ...F ....
....|..|R-- .... ....|--- .... ....|R-- .... ....
....|..|C-4 A..F ....|C#4 ...F ....|D#4 ...A ....
....|..|R-- .... ....|--- .... ....|R-- .... ....
....|..|C-4 A..A ....|F#3 ...F ....|D#4 ...F ....
....|..|R-- .... ....|--- .... ....|R-- .... ....
....|..|C-4 C..A ....|D#4 ...F ....|C#4 ...A ....
....|..|R-- .... ....|--- .... ....|--- .... ....
....|..|C-4 C..F ....|F#3 ...F ....|C#4 ...F ....
....|..|R-- .... ....|--- .... ....|--- .... ....
....|..|C-4 A..7 ....|C#4 ...F ....|D#4 ...A ....
....|..|R-- .... ....|--- .... ....|R-- .... ....
....|..|C-4 A..F ....|B-3 ...F ....|B-3 ...F ....
....|..|R-- .... ....|--- .... ....|R-- .... ....
....|..|C-4 A..F ....|F#4 ...F ....|B-3 ...F ....
....|..|R-- .... ....|--- .... ....|R-- .... ....
....|..|C-4 C..F ....|B-3 ...F ....|B-3 ...F ....
....|..|R-- .... ....|--- .... ....|R-- .... ....
....|..|C-4 A..F ....|D#4 ...F ....|B-3 ...F ....
....|..|R-- .... ....|--- .... ....|R-- .... ....
....|..|C-4 A..A ....|B-3 ...F ....|B-3 ...F ....
....|..|R-- .... ....|--- .... ....|R-- .... ....
....|..|C-4 C..A ....|F#4 ...F ....|B-3 ...F ....
....|..|R-- .... ....|--- .... ....|R-- .... ....
....|..|A-3 ...F ....|B-3 ...F ....|B-3 ...A ....
....|..|R-- .... ....|--- .... ....|R-- .... ....
....|..|C-4 A..7 ....|D#4 ...F ....|B-3 ...A ....
....|..|R-- .... ....|--- .... ....|R-- .... ....
....|..|C-4 A..F ....|G#3 ...F ....|B-3 ...F ....
....|..|R-- .... ....|--- .... ....|R-- .... ....
....|..|C-4 A..F ....|D#4 ...F ....|B-3 ...F ....
....|..|R-- .... ....|--- .... ....|R-- .... ....
....|..|C-4 C..F ....|G#3 ...F ....|B-3 ...F ....
....|..|R-- .... ....|--- .... ....|R-- .... ....
....|..|C-4 A..F ....|C#4 ...F ....|B-3 ...F ....
....|..|R-- .... ....|--- .... ....|R-- .... ....
....|..|C-4 A..A ....|G#3 ...F ....|B-3 ...F ....
....|..|R-- .... ....|--- .... ....|R-- .... ....
....|..|C-4 C..A ....|D#4 ...F ....|B-3 ...F ....
....|..|R-- .... ....|--- .... ....|R-- .... ....
....|..|A-3 ...F ....|G#3 ...F ....|B-3 ...A ....
....|..|R-- .... ....|--- .... ....|R-- .... ....
....|..|C-4 A..7 ....|C#4 ...F ....|B-3 ...A ....
....|..|R-- .... ....|--- .... ....|R-- .... ....

[Pattern14]
....|..|C-4 A..F ....|E-3 ...F ....|B-3 ...F ....
....|..|R-- .... ....|--- .... ....|R-- .... ....
....|..|C-4 A..F ....|B-3 ...F ....|B-3 ...7 ....
....|..|R-- .... ....|--- .... ....|R-- .... ....
....|..|C-4 C..F ....|E-3 ...F ....|B-3 ...F ....
....|..|R-- .... ....|--- .... ....|R-- .... ....
....|..|C-4 A..F ....|D#4 ...F ....|B-3 ...A ....
....|..|R-- .... ....|--- .... ....|--- .... ....
....|..|C-4 A..A ....|E-3 ...F ....|B-3 ...F ....
....|..|R-- .... ....|--- .... ....|--- .... ....
....|..|C-4 C..A ....|C#4 ...F ....|B-3 ...A ....
....|..|R-- .... ....|--- .... ....|--- .... ....
....|..|C-4 C..F ....|E-3 ...F ....|B-3 ...F ....
....|..|R-- .... ....|--- .... ....|--- .... ....
....|..|C-4 A..7 ....|E-4 ...F ....|B-3 ...A ....
....|..|R-- .... ....|--- .... ....|R-- .... ....
....|..|C-4 A..F ....|F#3 ...F ....|D#4 ...F ....
....|..|R-- .... ....|--- .... ....|R-- .... ....
....|..|C-4 A..F ....|A#3 ...F ....|C#4 ...F ....
....|..|R-- .... ....|--- .... ....|R-- .... ....
....|..|C-4 C..F ....|F#3 ...F ....|C#4 ...F ....
....|..|R-- .... ....|--- .... ....|R-- .... ....
....|..|C-4 A..F ....|C#4 ...F ....|C#4 ...F ....
....|..|R-- .... ....|--- .... ....|R-- .... ....
....|..|C-4 A..A ....|F#3 ...F ....|B-3 ...F ....
....|..|R-- .... ....|--- .... ....|R-- .... ....
....|..|C-4 C..A ....|D#4 ...F ....|A#3 ...F ....
....|..|R-- .... ....|--- .... ....|R-- .... ....
....|..|C-4 C..F ....|F#3 ...F ....|G#3 ...F ....
....|..|R-- .... ....|--- .... ....|R-- .... ....
....|..|C-4 A..7 ....|C#4 ...F ....|A#3 ...F ....
....|..|R-- .... ....|--- .... ....|R-- .... ....
....|..|C-4 C..7 ....|B-3 ...F ....|B-3 ...F ....
....|..|R-- .... ....|--- .... ....|R-- .... ....
....|..|C-4 C..A ....|F#4 ...F ....|G#3 ...A ....
....|..|R-- .... ....|--- .... ....|R-- .... ....
....|..|--- .... ....|B-3 ...F ....|R-- .... ....
....|..|--- .... ....|--- .... ....|R-- .... ....
....|..|--- .... ....|D#4 ...F ....|B-3 ...A ....
....|..|--- .... ....|--- .... ....|R-- .... ....
....|..|C-4 C..7 ....|B-3 ...F ....|G#3 ...7 ....
....|..|R-- .... ....|--- .... ....|R-- .... ....
....|..|--- .... ....|F#4 ...F ....|R-- .... ....
....|..|--- .... ....|--- .... ....|R-- .... ....
....|..|--- .... ....|B-3 ...F ....|B-3 ...7 ....
....|..|--- .... ....|--- .... ....|--- .... ....
....|..|--- .... ....|D#4 ...F ....|G#4 ...F ....
....|..|--- .... ....|--- .... ....|--- .... ....
....|..|--- .... ....|G#3 ...F ....|R-- .... ....
....|..|--- .... ....|--- .... ....|--- .... ....
....|..|--- .... ....|D#4 ...F ....|F#4 ...F ....
....|..|--- .... ....|--- .... ....|--- .... ....
....|..|--- .... ....|G#3 ...F ....|G#4 ...A ....
....|..|--- .... ....|--- .... ....|--- .... ....
....|..|--- .... ....|C#4 ...F ....|--- .... ....
....|..|--- .... ....|--- .... ....|--- .... ....
....|..|--- .... ....|G#3 ...F ....|F#4 ...A ....
....|..|--- .... ....|--- .... ....|--- .... ....
....|..|--- .... ....|D#4 ...F ....|R-- .... ....
....|..|--- .... ....|--- .... ....|--- .... ....
....|..|--- .... ....|G#3 ...F ....|--- .... ....
....|..|--- .... ....|--- .... ....|--- .... ....
....|..|--- .... ....|C#4 ...F ....|F#4 ...7 ....
....|..|--- .... ....|--- .... ....|--- .... ....

[Pattern15]
....|..|--- .... ....|E-3 ...F ....|R-- .... ....
....|..|--- .... ....|--- .... ....|--- .... ....
....|..|--- .... ....|B-3 ...F ....|--- .... ....
....|..|--- .... ....|--- .... ....|--- .... ....
....|..|--- .... ....|E-3 ...F ....|--- .... ....
....|..|--- .... ....|--- .... ....|--- .... ....
....|..|--- .... ....|D#4 ...F ....|R-- .... ....
....|..|--- .... ....|--- .... ....|--- .... ....
....|..|--- .... ....|E-3 ...F ....|G#4 ...F ....
....|..|--- .... ....|--- .... ....|--- .... ....
....|..|--- .... ....|C#4 ...F ....|--- .... ....
....|..|--- .... ....|--- .... ....|--- .... ....
....|..|--- .... ....|E-3 ...F ....|F#4 ...F ....
....|..|--- .... ....|--- .... ....|R-- .... ....
....|..|--- .... ....|E-4 ...F ....|C#5 ...F ....
....|..|--- .... ....|--- .... ....|R-- .... ....
....|..|--- .... ....|F#3 ...F ....|D#5 ...F ....
....|..|--- .... ....|--- .... ....|--- .... ....
....|..|--- .... ....|A#3 ...F ....|F#4 ...A ....
....|..|--- .... ....|--- .... ....|R-- .... ....
....|..|--- .... ....|F#3 ...F ....|C#5 ...A ....
....|..|--- .... ....|--- .... ....|R-- .... ....
....|..|--- .... ....|C#4 ...F ....|D#5 ...A ....
....|..|--- .... ....|--- .... ....|--- .... ....
....|..|--- .... ....|F#3 ...F ....|R-- .... ....
....|..|--- .... ....|--- .... ....|R-- .... ....
....|..|--- .... ....|D#4 ...F ....|C#5 ...7 ....
....|..|--- .... ....|--- .... ....|R-- .... ....
....|..|--- .... ....|F#3 ...F ....|D#5 ...7 ....
....|..|--- .... ....|--- .... ....|--- .... ....
....|..|--- .... ....|C#4 ...F ....|R-- .... ....
....|..|--- .... ....|--- .... ....|--- .... ....
....|..|--- .... ....|B-3 ...F ....|F#5 ...F ....
....|..|--- .... ....|--- .... ....|--- .... ....
....|..|--- .... ....|F#4 ...F ....|--- .... ....
....|..|--- .... ....|--- .... ....|--- .... ....
....|..|--- .... ....|B-3 ...F ....|B-4 ...F ....
....|..|--- .... ....|--- .... ....|--- .... ....
....|..|--- .... ....|D#4 ...F ....|F#5 ...A ....
....|..|--- .... ....|--- .... ....|--- .... ....
....|..|--- .... ....|B-3 ...F ....|B-4 ...F ....
....|..|--- .... ....|--- .... ....|--- .... ....
....|..|--- .... ....|F#4 ...F ....|B-4 ...A ....
....|..|--- .... ....|--- .... ....|--- .... ....
....|..|--- .... ....|B-3 ...F ....|B-4 ...F ....
....|..|--- .... ....|--- .... ....|R-- .... ....
....|..|--- .... ....|D#4 ...F ....|B-4 ...F ....
....|..|--- .... ....|--- .... ....|R-- .... ....
....|..|--- .... ....|G#3 ...F ....|B-4 ...F ....
....|..|--- .... ....|--- .... ....|--- .... ....
....|..|--- .... ....|D#4 ...F ....|B-4 ...A ....
....|..|--- .... ....|--- .... ....|R-- .... ....
....|..|--- .... ....|G#3 ...F ....|G#4 ...F ....
....|..|--- .... ....|--- .... ....|R-- .... ....
....|..|--- .... ....|C#4 ...F ....|B-4 ...A ....
....|..|--- .... ....|--- .... ....|--- .... ....
....|..|--- .... ....|G#3 ...F ....|B-4 ...7 ....
....|..|--- .... ....|--- .... ....|R-- .... ....
....|..|--- .... ....|D#4 ...F ....|F#5 ...F ....
....|..|--- .... ....|--- .... ....|R-- .... ....
....|..|--- .... ....|G#3 ...F ....|F#5 ...F ....
....|..|--- .... ....|--- .... ....|R-- .... ....
....|..|--- .... ....|C#4 ...F ....|B-4 ...F ....
....|..|--- .... ....|--- .... ....|R-- .... ....

[Pattern16]
....|..|--- .... ....|E-3 ...F ....|B-4 ...F ....
....|..|--- .... ....|--- .... ....|R-- .... ....
....|..|--- .... ....|B-3 ...F ....|F#5 ...A ....
....|..|--- .... ....|--- .... ....|R-- .... ....
....|..|--- .... ....|E-3 ...F ....|G#4 ...F ....
....|..|--- .... ....|--- .... ....|R-- .... ....
....|..|--- .... ....|D#4 ...F ....|B-4 ...A ....
....|..|--- .... ....|--- .... ....|R-- .... ....
....|..|--- .... ....|E-3 ...F ....|R-- .... ....
....|..|--- .... ....|--- .... ....|R-- .... ....
....|..|--- .... ....|C#4 ...F ....|B-4 ...F ....
....|..|--- .... ....|--- .... ....|R-- .... ....
....|..|--- .... ....|E-3 ...F ....|B-4 ...F ....
....|..|--- .... ....|--- .... ....|R-- .... ....
....|..|--- .... ....|E-4 ...F ....|B-4 ...F ....
....|..|--- .... ....|--- .... ....|R-- .... ....
....|..|--- .... ....|F#3 ...F ....|D#5 ...F ....
....|..|--- .... ....|--- .... ....|R-- .... ....
....|..|--- .... ....|A#3 ...F ....|C#5 ...F ....
....|..|--- .... ....|--- .... ....|R-- .... ....
....|..|--- .... ....|F#3 ...F ....|C#5 ...F ....
....|..|--- .... ....|--- .... ....|R-- .... ....
....|..|--- .... ....|C#4 ...F ....|D#5 ...A ....
....|..|--- .... ....|--- .... ....|R-- .... ....
....|..|--- .... ....|F#3 ...F ....|B-4 ...F ....
....|..|--- .... ....|--- .... ....|R-- .... ....
....|..|--- .... ....|D#4 ...F ....|C#5 ...A ....
....|..|--- .... ....|--- .... ....|R-- .... ....
....|..|--- .... ....|F#3 ...F ....|A#4 ...F ....
....|..|--- .... ....|--- .... ....|R-- .... ....
....|..|--- .... ....|C#4 ...F ....|B-4 ...A ....
....|..|--- .... ....|--- .... ....|R-- .... ....
....|..|--- .... ....|B-3 ...F ....|C#5 ...7 ....
....|..|--- .... ....|--- .... ....|--- .... ....
....|..|--- .... ....|F#4 ...F ....|B-4 ...F ....
....|..|--- .... ....|--- .... ....|R-- .... ....
....|..|--- .... ....|B-3 ...F ....|B-4 ...F ....
....|..|--- .... ....|--- .... ....|R-- .... ....
....|..|--- .... ....|D#4 ...F ....|B-4 ...F ....
....|..|--- .... ....|--- .... ....|R-- .... ....
....|..|--- .... ....|B-3 ...F ....|B-4 ...F ....
....|..|--- .... ....|--- .... ....|R-- .... ....
....|..|--- .... ....|F#4 ...F ....|B-4 ...F ....
....|..|--- .... ....|--- .... ....|R-- .... ....
....|..|--- .... ....|B-3 ...F ....|B-4 ...F ....
....|..|--- .... ....|--- .... ....|R-- .... ....
....|..|--- .... ....|D#4 ...F ....|B-4 ...A ....
....|..|--- .... ....|--- .... ....|R-- .... ....
....|..|--- .... ....|G#3 ...F ....|B-4 ...A ....
....|..|--- .... ....|--- .... ....|R-- .... ....
....|..|--- .... ....|D#4 ...F ....|B-4 ...F ....
....|..|--- .... ....|--- .... ....|R-- .... ....
....|..|--- .... ....|G#3 ...F ....|B-4 ...F ....
....|..|--- .... ....|--- .... ....|R-- .... ....
....|..|--- .... ....|C#4 ...F ....|B-4 ...F ....
....|..|--- .... ....|--- .... ....|R-- .... ....
....|..|--- .... ....|G#3 ...F ....|R-- .... ....
....|..|--- .... ....|--- .... ....|R-- .... ....
....|..|--- .... ....|D#4 ...F ....|B-4 ...F ....
....|..|--- .... ....|--- .... ....|R-- .... ....
....|..|--- .... ....|G#3 ...F ....|B-4 ...F ....
....|..|--- .... ....|--- .... ....|R-- .... ....
....|..|--- .... ....|C#4 ...F ....|B-4 ...F ....
....|..|--- .... ....|--- .... ....|R-- .... ....

[Pattern17]
....|..|C-4 A..F ....|E-3 ...F ....|F#4 ...F ....
....|..|R-- .... ....|--- .... ....|R-- .... ....
....|..|C-4 A..F ....|B-3 ...F ....|G#4 ...F ....
....|..|R-- .... ....|--- .... ....|R-- .... ....
....|..|C#2 ...F ....|E-3 ...F ....|B-4 ...A ....
....|..|R-- .... ....|--- .... ....|--- .... ....
....|..|C-4 A..F ....|D#4 ...F ....|F#4 ...A ....
....|..|R-- .... ....|--- .... ....|R-- .... ....
....|..|C-4 A..A ....|E-3 ...F ....|G#4 ...A ....
....|..|R-- .... ....|--- .... ....|R-- .... ....
....|..|C#2 ...A ....|C#4 ...F ....|R-- .... ....
....|..|R-- .... ....|--- .... ....|--- .... ....
....|..|C#2 ...F ....|E-3 ...F ....|F#4 ...7 ....
....|..|R-- .... ....|--- .... ....|--- .... ....
....|..|C-4 A..7 ....|E-4 ...F ....|G#4 ...7 ....
....|..|R-- .... ....|--- .... ....|--- .... ....
....|..|A-2 ...F ....|F#3 ...F ....|F#5 ...F ....
....|..|R-- .... ....|--- .... ....|R-- .... ....
....|..|A-2 ...F ....|A#3 ...F ....|F#5 ...F ....
....|..|R-- .... ....|--- .... ....|R-- .... ....
....|..|A-2 ...F ....|F#3 ...F ....|F#5 ...F ....
....|..|R-- .... ....|--- .... ....|R-- .... ....
....|..|A-2 ...F ....|C#4 ...F ....|E-5 ...F ....
....|..|R-- .... ....|--- .... ....|R-- .... ....
....|..|A-2 ...F ....|F#3 ...F ....|E-5 ...F ....
....|..|A-2 ...F ....|--- .... ....|R-- .... ....
....|..|A-2 ...F ....|D#4 ...F ....|D#5 ...F ....
....|..|A-2 ...F ....|--- .... ....|R-- .... ....
....|..|A-2 ...F ....|F#3 ...F ....|E-5 ...F ....
....|..|A-2 ...F ....|--- .... ....|R-- .... ....
....|..|A-2 ...F ....|C#4 ...F ....|F#5 ...F ....
....|..|A-2 ...A ....|--- .... ....|R-- .... ....
....|..|A#2 ...F ....|F#3 ...F ....|D#5 ...A ....
....|..|A-2 ...A ....|--- .... ....|R-- .... ....
....|..|A-2 ...A ....|F#3 ...A ....|E-5 ...A ....
....|..|A-2 ...A ....|--- .... ....|R-- .... ....
....|..|A#2 ...F ....|F#3 ...F ....|F#5 ...A ....
....|..|A-2 ...7 ....|--- .... ....|R-- .... ....
....|..|A#2 ...A ....|F#3 ...A ....|D#5 ...7 ....
....|..|A#2 ...F ....|F#3 ...F ....|R-- .... ....
....|..|A#2 ...F ....|F#3 ...F ....|E-5 ...7 ....
....|..|R-- .... ....|R-- .... ....|R-- .... ....
....|..|A#2 ...F ....|F#3 ...F ....|F#5 ...7 ....
....|..|R-- .... ....|R-- .... ....|--- .... ....
....|..|A#2 ...F ....|F#3 ...F ....|--- .... ....
....|..|R-- .... ....|F#3 ...A ....|--- .... ....
....|..|A#2 ...A ....|F#3 ...A ....|--- .... ....
....|..|R-- .... ....|R-- .... ....|R-- .... ....
....|..|C-4 A..F ....|B-3 ...F ....|--- .... ....
....|..|R-- .... ....|R-- .... ....|--- .... ....
....|..|C-4 A..F ....|F#4 ...F ....|--- .... ....
....|..|R-- .... ....|F#3 ...7 ....|--- .... ....
....|..|C-4 C..F ....|B-3 ...F ....|--- .... ....
....|..|R-- .... ....|R-- .... ....|R-- .... ....
....|..|C-4 A..F ....|D#4 ...F ....|--- .... ....
....|..|R-- .... ....|R-- .... ....|--- .... ....
....|..|C-4 A..A ....|B-3 ...F ....|--- .... ....
....|..|F#2 ...F ....|--- .... ....|--- .... ....
....|..|F#2 ...F ....|F#4 ...F ....|--- .... ....
....|..|R-- .... ....|R-- .... ....|R-- .... ....
....|..|C-4 C..F ....|B-3 ...F ....|--- .... ....
....|..|R-- .... ....|--- .... ....|--- .... ....
....|..|C-4 A..7 ....|D#4 ...F ....|--- .... ....
....|..|F#2 ...A ....|--- .... ....|--- .... ....

[Pattern18]
....|..|C-4 A..F ....|G#3 ...F ....|--- .... ....
....|..|R-- .... ....|--- .... ....|--- .... ....
....|..|C-4 A..F ....|D#4 ...F ....|--- .... ....
....|..|R-- .... ....|--- .... ....|--- .... ....
....|..|C-4 C..F ....|G#3 ...F ....|--- .... ....
....|..|R-- .... ....|--- .... ....|--- .... ....
....|..|C-4 A..F ....|C#4 ...F ....|--- .... ....
....|..|R-- .... ....|--- .... ....|--- .... ....
....|..|C-4 A..A ....|G#3 ...F ....|--- .... ....
....|..|F#2 ...F ....|--- .... ....|--- .... ....
....|..|F#2 ...F ....|D#4 ...F ....|--- .... ....
....|..|R-- .... ....|--- .... ....|--- .... ....
....|..|C-4 C..F ....|G#3 ...F ....|--- .... ....
....|..|R-- .... ....|--- .... ....|--- .... ....
....|..|C-4 A..7 ....|C#4 ...F ....|--- .... ....
....|..|F#2 ...A ....|--- .... ....|--- .... ....
....|..|C-4 A..F ....|E-3 ...F ....|--- .... ....
....|..|R-- .... ....|--- .... ....|--- .... ....
....|..|C-4 A..F ....|B-3 ...F ....|--- .... ....
....|..|R-- .... ....|--- .... ....|--- .... ....
....|..|C-4 C..F ....|E-3 ...F ....|--- .... ....
....|..|R-- .... ....|--- .... ....|--- .... ....
....|..|C-4 A..F ....|D#4 ...F ....|--- .... ....
....|..|R-- .... ....|--- .... ....|--- .... ....
....|..|C-4 A..A ....|E-3 ...F ....|--- .... ....
....|..|F#2 ...F ....|--- .... ....|--- .... ....
....|..|F#2 ...F ....|C#4 ...F ....|--- .... ....
....|..|R-- .... ....|--- .... ....|--- .... ....
....|..|C-4 C..F ....|E-3 ...F ....|--- .... ....
....|..|R-- .... ....|--- .... ....|--- .... ....
....|..|C-4 A..7 ....|E-4 ...F ....|--- .... ....
....|..|F#2 ...A ....|--- .... ....|--- .... ....
....|..|C-4 A..F ....|F#3 ...F ....|--- .... ....
....|..|R-- .... ....|--- .... ....|--- .... ....
....|..|C-4 A..F ....|A#3 ...F ....|--- .... ....
....|..|R-- .... ....|--- .... ....|--- .... ....
....|..|C-4 C..F ....|F#3 ...F ....|--- .... ....
....|..|R-- .... ....|--- .... ....|--- .... ....
....|..|C-4 A..F ....|C#4 ...F ....|--- .... ....
....|..|R-- .... ....|--- .... ....|--- .... ....
....|..|C-4 A..A ....|F#3 ...F ....|--- .... ....
....|..|F#2 ...F ....|--- .... ....|--- .... ....
....|..|F#2 ...F ....|D#4 ...F ....|--- .... ....
....|..|R-- .... ....|--- .... ....|--- .... ....
....|..|C-4 C..F ....|F#3 ...F ....|--- .... ....
....|..|R-- .... ....|--- .... ....|--- .... ....
....|..|C-4 A..7 ....|C#4 ...F ....|--- .... ....
....|..|F#2 ...A ....|--- .... ....|--- .... ....
....|..|C-4 A..F ....|B-3 ...F ....|--- .... ....
....|..|R-- .... ....|--- .... ....|--- .... ....
....|..|C-4 A..F ....|F#4 ...F ....|--- .... ....
....|..|R-- .... ....|--- .... ....|--- .... ....
....|..|C-4 C..F ....|B-3 ...F ....|--- .... ....
....|..|R-- .... ....|--- .... ....|--- .... ....
....|..|C-4 A..F ....|D#4 ...F ....|--- .... ....
....|..|R-- .... ....|--- .... ....|--- .... ....
....|..|C-4 A..A ....|B-3 ...F ....|--- .... ....
....|..|F#2 ...F ....|--- .... ....|--- .... ....
....|..|F#2 ...F ....|F#4 ...F ....|--- .... ....
....|..|R-- .... ....|--- .... ....|--- .... ....
....|..|C-4 C..F ....|B-3 ...F ....|--- .... ....
....|..|R-- .... ....|--- .... ....|--- .... ....
....|..|C-4 A..7 ....|D#4 ...F ....|--- .... ....
....|..|F#2 ...A ....|--- .... ....|--- .... ....

[Pattern19]
....|..|C-4 A..F ....|G#3 ...F ....|--- .... ....
....|..|R-- .... ....|--- .... ....|--- .... ....
....|..|C-4 A..F ....|D#4 ...F ....|--- .... ....
....|..|R-- .... ....|--- .... ....|--- .... ....
....|..|C-4 C..F ....|G#3 ...F ....|--- .... ....
....|..|R-- .... ....|--- .... ....|--- .... ....
....|..|C-4 A..F ....|C#4 ...F ....|--- .... ....
....|..|R-- .... ....|--- .... ....|--- .... ....
....|..|C-4 A..A ....|G#3 ...F ....|--- .... ....
....|..|F#2 ...F ....|--- .... ....|--- .... ....
....|..|F#2 ...F ....|D#4 ...F ....|--- .... ....
....|..|R-- .... ....|--- .... ....|--- .... ....
....|..|C-4 C..F ....|G#3 ...F ....|--- .... ....
....|..|R-- .... ....|--- .... ....|--- .... ....
....|..|C-4 A..7 ....|C#4 ...F ....|--- .... ....
....|..|F#2 ...A ....|--- .... ....|--- .... ....
....|..|C-4 A..F ....|E-3 ...F ....|--- .... ....
....|..|R-- .... ....|--- .... ....|--- .... ....
....|..|C-4 A..F ....|B-3 ...F ....|--- .... ....
....|..|R-- .... ....|--- .... ....|--- .... ....
....|..|C-4 C..F ....|E-3 ...F ....|--- .... ....
....|..|R-- .... ....|--- .... ....|--- .... ....
....|..|C-4 A..F ....|D#4 ...F ....|--- .... ....
....|..|R-- .... ....|--- .... ....|--- .... ....
....|..|C-4 A..A ....|E-3 ...F ....|--- .... ....
....|..|F#2 ...F ....|--- .... ....|--- .... ....
....|..|F#2 ...F ....|C#4 ...F ....|--- .... ....
....|..|R-- .... ....|--- .... ....|--- .... ....
....|..|C-4 C..F ....|E-3 ...F ....|--- .... ....
....|..|R-- .... ....|--- .... ....|--- .... ....
....|..|C-4 A..7 ....|E-4 ...F ....|--- .... ....
....|..|F#2 ...A ....|--- .... ....|--- .... ....
....|..|C-4 A..F ....|F#3 ...F ....|--- .... ....
....|..|R-- .... ....|--- .... ....|--- .... ....
....|..|C-4 A..F ....|A#3 ...F ....|--- .... ....
....|..|R-- .... ....|--- .... ....|--- .... ....
....|..|C-4 C..F ....|F#3 ...F ....|--- .... ....
....|..|R-- .... ....|--- .... ....|--- .... ....
....|..|C-4 A..F ....|C#4 ...F ....|--- .... ....
....|..|R-- .... ....|--- .... ....|--- .... ....
....|..|C-4 A..A ....|F#3 ...F ....|--- .... ....
....|..|F#2 ...F ....|--- .... ....|--- .... ....
....|..|F#2 ...F ....|D#4 ...F ....|--- .... ....
....|..|R-- .... ....|--- .... ....|--- .... ....
....|..|C-4 C..F ....|F#3 ...F ....|F#4 ...F ....
....|..|R-- .... ....|--- .... ....|--- .... ....
....|..|C-4 A..7 ....|C#4 ...F ....|--- .... ....
....|..|F#2 ...A ....|--- .... ....|R-- .... ....
....|..|C-4 A..F ....|B-3 ...F ....|D#4 ...F ....
....|..|R-- .... ....|--- .... ....|--- .... ....
....|..|C-4 A..F ....|F#4 ...F ....|F#4 ...A ....
....|..|R-- .... ....|--- .... ....|--- .... ....
....|..|C-4 C..F ....|B-3 ...F ....|C#4 ...F ....
....|..|R-- .... ....|--- .... ....|R-- .... ....
....|..|C-4 A..F ....|D#4 ...F ....|D#4 ...A ....
....|..|R-- .... ....|--- .... ....|--- .... ....
....|..|C-4 A..A ....|B-3 ...F ....|D#4 ...F ....
....|..|F#2 ...F ....|--- .... ....|--- .... ....
....|..|F#2 ...F ....|F#4 ...F ....|C#4 ...A ....
....|..|R-- .... ....|--- .... ....|R-- .... ....
....|..|C-4 C..F ....|B-3 ...F ....|C#4 ...F ....
....|..|R-- .... ....|--- .... ....|--- .... ....
....|..|C-4 A..7 ....|D#4 ...F ....|D#4 ...A ....
....|..|F#2 ...A ....|--- .... ....|R-- .... ....

[Pattern20]
....|..|C-4 A..F ....|G#3 ...F ....|D#4 ...F ....
....|..|R-- .... ....|--- .... ....|D#4 ...F ....
....|..|C-4 A..F ....|D#4 ...F ....|C#4 ...F ....
....|..|R-- .... ....|--- .... ....|R-- .... ....
....|..|C-4 C..F ....|G#3 ...F ....|D#4 ...F ....
....|..|R-- .... ....|--- .... ....|R-- .... ....
....|..|C-4 A..F ....|C#4 ...F ....|C#4 ...F ....
....|..|R-- .... ....|--- .... ....|R-- .... ....
....|..|C-4 A..A ....|G#3 ...F ....|D#4 ...F ....
....|..|F#2 ...F ....|--- .... ....|R-- .... ....
....|..|F#2 ...F ....|D#4 ...F ....|D#4 ...A ....
....|..|R-- .... ....|--- .... ....|R-- .... ....
....|..|C-4 C..F ....|G#3 ...F ....|C#4 ...F ....
....|..|R-- .... ....|--- .... ....|R-- .... ....
....|..|C-4 A..7 ....|C#4 ...F ....|D#4 ...A ....
....|..|F#2 ...A ....|--- .... ....|R-- .... ....
....|..|C-4 A..F ....|E-3 ...F ....|D#4 ...7 ....
....|..|R-- .... ....|--- .... ....|R-- .... ....
....|..|C-4 A..F ....|B-3 ...F ....|B-3 ...F ....
....|..|R-- .... ....|--- .... ....|B-3 ...F ....
....|..|C-4 C..F ....|E-3 ...F ....|B-3 ...F ....
....|..|R-- .... ....|--- .... ....|R-- .... ....
....|..|C-4 A..F ....|D#4 ...F ....|B-3 ...F ....
....|..|R-- .... ....|--- .... ....|R-- .... ....
....|..|C-4 A..A ....|E-3 ...F ....|B-3 ...F ....
....|..|F#2 ...F ....|--- .... ....|B-3 ...F ....
....|..|F#2 ...F ....|C#4 ...F ....|B-3 ...F ....
....|..|R-- .... ....|--- .... ....|R-- .... ....
....|..|C-4 C..F ....|E-3 ...F ....|B-3 ...F ....
....|..|R-- .... ....|--- .... ....|R-- .... ....
....|..|C-4 A..7 ....|E-4 ...F ....|B-3 ...F ....
....|..|F#2 ...A ....|--- .... ....|B-3 ...A ....
....|..|C-4 A..F ....|F#3 ...F ....|F#3 ...F ....
....|..|R-- .... ....|--- .... ....|R-- .... ....
....|..|C-4 A..F ....|A#3 ...F ....|B-3 ...A ....
....|..|R-- .... ....|--- .... ....|R-- .... ....
....|..|C-4 C..F ....|F#3 ...F ....|C#4 ...F ....
....|..|R-- .... ....|--- .... ....|B-3 ...7 ....
....|..|C-4 A..F ....|C#4 ...F ....|F#3 ...A ....
....|..|R-- .... ....|--- .... ....|R-- .... ....
....|..|C-4 A..A ....|F#3 ...F ....|F#3 ...F ....
....|..|F#2 ...F ....|--- .... ....|R-- .... ....
....|..|F#2 ...F ....|D#4 ...F ....|C#4 ...A ....
....|..|R-- .... ....|--- .... ....|--- .... ....
....|..|C-4 C..F ....|F#3 ...F ....|C#4 ...F ....
....|..|R-- .... ....|--- .... ....|--- .... ....
....|..|C-4 A..7 ....|C#4 ...F ....|F#3 ...A ....
....|..|F#2 ...A ....|--- .... ....|R-- .... ....
....|..|C-4 A..F ....|B-3 ...F ....|D#4 ...F ....
....|..|R-- .... ....|--- .... ....|--- .... ....
....|..|C-4 A..F ....|F#4 ...F ....|C#4 ...A ....
....|..|R-- .... ....|--- .... ....|--- .... ....
....|..|C-4 C..F ....|B-3 ...F ....|C#4 ...F ....
....|..|R-- .... ....|--- .... ....|R-- .... ....
....|..|C-4 A..F ....|D#4 ...F ....|D#4 ...A ....
....|..|R-- .... ....|--- .... ....|--- .... ....
....|..|C-4 A..A ....|B-3 ...F ....|D#4 ...F ....
....|..|F#2 ...F ....|--- .... ....|--- .... ....
....|..|F#2 ...F ....|F#4 ...F ....|C#4 ...A ....
....|..|R-- .... ....|--- .... ....|R-- .... ....
....|..|C-4 C..F ....|B-3 ...F ....|C#4 ...F ....
....|..|R-- .... ....|--- .... ....|--- .... ....
....|..|C-4 A..7 ....|D#4 ...F ....|D#4 ...A ....
....|..|F#2 ...A ....|--- .... ....|R-- .... ....

[Pattern21]
....|..|C-4 A..F ....|G#3 ...F ....|D#4 ...F ....
....|..|R-- .... ....|--- .... ....|R-- .... ....
....|..|C-4 A..F ....|D#4 ...F ....|C#4 ...F ....
....|..|R-- .... ....|--- .... ....|R-- .... ....
....|..|C-4 C..F ....|G#3 ...F ....|D#4 ...F ....
....|..|R-- .... ....|--- .... ....|R-- .... ....
....|..|C-4 A..F ....|C#4 ...F ....|C#4 ...F ....
....|..|R-- .... ....|--- .... ....|R-- .... ....
....|..|C-4 A..A ....|G#3 ...F ....|D#4 ...F ....
....|..|F#2 ...F ....|--- .... ....|R-- .... ....
....|..|F#2 ...F ....|D#4 ...F ....|D#4 ...A ....
....|..|R-- .... ....|--- .... ....|R-- .... ....
....|..|C-4 C..F ....|G#3 ...F ....|C#4 ...F ....
....|..|R-- .... ....|--- .... ....|R-- .... ....
....|..|C-4 A..7 ....|C#4 ...F ....|D#4 ...A ....
....|..|F#2 ...A ....|--- .... ....|R-- .... ....
....|..|C-4 A..F ....|E-3 ...F ....|D#4 ...7 ....
....|..|R-- .... ....|--- .... ....|R-- .... ....
....|..|C-4 A..F ....|B-3 ...F ....|B-3 ...F ....
....|..|R-- .... ....|--- .... ....|B-3 ...F ....
....|..|C-4 C..F ....|E-3 ...F ....|B-3 ...F ....
....|..|R-- .... ....|--- .... ....|R-- .... ....
....|..|C-4 A..F ....|D#4 ...F ....|B-3 ...F ....
....|..|R-- .... ....|--- .... ....|R-- .... ....
....|..|C-4 A..A ....|E-3 ...F ....|B-3 ...F ....
....|..|F#2 ...F ....|--- .... ....|R-- .... ....
....|..|F#2 ...F ....|C#4 ...F ....|B-3 ...F ....
....|..|R-- .... ....|--- .... ....|R-- .... ....
....|..|C-4 C..F ....|E-3 ...F ....|B-3 ...F ....
....|..|R-- .... ....|--- .... ....|R-- .... ....
....|..|C-4 A..7 ....|E-4 ...F ....|B-3 ...F ....
....|..|F#2 ...A ....|--- .... ....|R-- .... ....
....|..|C-4 A..F ....|F#3 ...F ....|D#4 ...F ....
....|..|R-- .... ....|--- .... ....|R-- .... ....
....|..|C-4 A..F ....|A#3 ...F ....|B-3 ...A ....
....|..|R-- .... ....|--- .... ....|R-- .... ....
....|..|C-4 C..F ....|F#3 ...F ....|C#4 ...F ....
....|..|R-- .... ....|--- .... ....|R-- .... ....
....|..|C-4 A..F ....|C#4 ...F ....|D#4 ...A ....
....|..|R-- .... ....|--- .... ....|R-- .... ....
....|..|C-4 A..A ....|F#3 ...F ....|D#4 ...F ....
....|..|F#2 ...F ....|--- .... ....|R-- .... ....
....|..|F#2 ...F ....|D#4 ...F ....|C#4 ...A ....
....|..|R-- .... ....|--- .... ....|--- .... ....
....|..|C-4 C..F ....|F#3 ...F ....|C#4 ...F ....
....|..|R-- .... ....|--- .... ....|--- .... ....
....|..|C-4 A..7 ....|C#4 ...F ....|D#4 ...A ....
....|..|F#2 ...A ....|--- .... ....|R-- .... ....
....|..|C-4 A..F ....|B-3 ...F ....|B-3 ...F ....
....|..|R-- .... ....|--- .... ....|R-- .... ....
....|..|C-4 A..F ....|F#4 ...F ....|B-3 ...F ....
....|..|R-- .... ....|--- .... ....|R-- .... ....
....|..|C-4 C..F ....|B-3 ...F ....|B-3 ...F ....
....|..|R-- .... ....|--- .... ....|R-- .... ....
....|..|C-4 A..F ....|D#4 ...F ....|B-3 ...F ....
....|..|R-- .... ....|--- .... ....|R-- .... ....
....|..|C-4 A..A ....|B-3 ...F ....|B-3 ...F ....
....|..|R-- .... ....|--- .... ....|R-- .... ....
....|..|C-4 C..A ....|F#4 ...F ....|B-3 ...F ....
....|..|R-- .... ....|--- .... ....|R-- .... ....
....|..|A-3 ...F ....|B-3 ...F ....|B-3 ...A ....
....|..|R-- .... ....|--- .... ....|R-- .... ....
....|..|C-4 A..7 ....|D#4 ...F ....|B-3 ...A ....
....|..|R-- .... ....|--- .... ....|R-- .... ....

[Pattern22]
....|..|C-4 A..F ....|G#3 ...F ....|B-3 ...F ....
....|..|R-- .... ....|--- .... ....|R-- .... ....
....|..|C-4 A..F ....|D#4 ...F ....|B-3 ...F ....
....|..|R-- .... ....|--- .... ....|R-- .... ....
....|..|C-4 C..F ....|G#3 ...F ....|B-3 ...F ....
....|..|R-- .... ....|--- .... ....|R-- .... ....
....|..|C-4 A..F ....|C#4 ...F ....|B-3 ...F ....
....|..|R-- .... ....|--- .... ....|R-- .... ....
....|..|C-4 A..A ....|G#3 ...F ....|B-3 ...F ....
....|..|R-- .... ....|--- .... ....|R-- .... ....
....|..|C-4 C..A ....|D#4 ...F ....|B-3 ...F ....
....|..|R-- .... ....|--- .... ....|R-- .... ....
....|..|A-3 ...F ....|G#3 ...F ....|B-3 ...A ....
....|..|R-- .... ....|--- .... ....|R-- .... ....
....|..|C-4 A..7 ....|C#4 ...F ....|B-3 ...A ....
....|..|R-- .... ....|--- .... ....|R-- .... ....
....|..|C-4 A..F ....|E-3 ...F ....|B-3 ...F ....
....|..|R-- .... ....|--- .... ....|R-- .... ....
....|..|C-4 A..F ....|B-3 ...F ....|B-3 ...7 ....
....|..|R-- .... ....|--- .... ....|R-- .... ....
....|..|C-4 C..F ....|E-3 ...F ....|B-3 ...F ....
....|..|R-- .... ....|--- .... ....|R-- .... ....
....|..|C-4 A..F ....|D#4 ...F ....|B-3 ...A ....
....|..|R-- .... ....|--- .... ....|--- .... ....
....|..|C-4 A..A ....|E-3 ...F ....|B-3 ...F ....
....|..|F#2 ...F ....|--- .... ....|--- .... ....
....|..|F#2 ...F ....|C#4 ...F ....|B-3 ...A ....
....|..|R-- .... ....|--- .... ....|--- .... ....
....|..|C-4 C..F ....|E-3 ...F ....|B-3 ...F ....
....|..|R-- .... ....|--- .... ....|--- .... ....
....|..|C-4 A..7 ....|E-4 ...F ....|B-3 ...A ....
....|..|F#2 ...A ....|--- .... ....|R-- .... ....
....|..|C-4 A..F ....|F#3 ...F ....|D#4 ...F ....
....|..|R-- .... ....|--- .... ....|R-- .... ....
....|..|C-4 A..F ....|A#3 ...F ....|C#4 ...F ....
....|..|R-- .... ....|--- .... ....|R-- .... ....
....|..|C-4 C..F ....|F#3 ...F ....|C#4 ...F ....
....|..|R-- .... ....|--- .... ....|R-- .... ....
....|..|C-4 A..F ....|C#4 ...F ....|C#4 ...F ....
....|..|R-- .... ....|--- .... ....|R-- .... ....
....|..|C-4 A..A ....|F#3 ...F ....|B-3 ...F ....
....|..|F#2 ...F ....|--- .... ....|R-- .... ....
....|..|F#2 ...F ....|D#4 ...F ....|A#3 ...F ....
....|..|R-- .... ....|--- .... ....|R-- .... ....
....|..|C-4 C..F ....|F#3 ...F ....|G#3 ...F ....
....|..|R-- .... ....|--- .... ....|R-- .... ....
....|..|C-4 A..7 ....|C#4 ...F ....|A#3 ...F ....
....|..|F#2 ...A ....|--- .... ....|R-- .... ....
....|..|A-3 ...F ....|B-3 ...F ....|D#4 ...F ....
....|..|R-- .... ....|--- .... ....|R-- .... ....
....|..|C-4 A..F ....|F#4 ...F ....|G#3 ...A ....
....|..|R-- .... ....|--- .... ....|R-- .... ....
....|..|C-4 C..F ....|B-3 ...F ....|C#4 ...F ....
....|..|R-- .... ....|--- .... ....|R-- .... ....
....|..|C-4 A..F ....|D#4 ...F ....|D#4 ...A ....
....|..|R-- .... ....|--- .... ....|R-- .... ....
....|..|C-4 A..A ....|B-3 ...F ....|D#4 ...F ....
....|..|R-- .... ....|--- .... ....|R-- .... ....
....|..|C-4 C..A ....|F#4 ...F ....|C#4 ...A ....
....|..|R-- .... ....|--- .... ....|R-- .... ....
....|..|C-4 C..F ....|B-3 ...F ....|C#4 ...F ....
....|..|R-- .... ....|--- .... ....|--- .... ....
....|..|C-4 A..7 ....|D#4 ...F ....|D#4 ...A ....
....|..|R-- .... ....|--- .... ....|R-- .... ....

[Pattern25]
....|..|C-4 A..F ....|G#3 ...F ....|B-3 ...F ....
....|..|R-- .... ....|--- .... ....|R-- .... ....
....|..|C-4 A..F ....|D#4 ...F ....|B-3 ...F ....
....|..|R-- .... ....|--- .... ....|R-- .... ....
....|..|C-4 C..F ....|G#3 ...F ....|B-3 ...F ....
....|..|R-- .... ....|--- .... ....|R-- .... ....
....|..|C-4 A..F ....|C#4 ...F ....|B-3 ...F ....
....|..|R-- .... ....|--- .... ....|R-- .... ....
....|..|C-4 A..A ....|G#3 ...F ....|B-3 ...F ....
....|..|R-- .... ....|--- .... ....|R-- .... ....
....|..|C-4 C..A ....|D#4 ...F ....|B-3 ...F ....
....|..|R-- .... ....|--- .... ....|R-- .... ....
....|..|A-3 ...F ....|G#3 ...F ....|B-3 ...A ....
....|..|R-- .... ....|--- .... ....|R-- .... ....
....|..|C-4 A..7 ....|C#4 ...F ....|B-3 ...A ....
....|..|R-- .... ....|--- .... ....|R-- .... ....
....|..|C-4 A..F ....|E-3 ...F ....|B-3 ...F ....
....|..|R-- .... ....|--- .... ....|R-- .... ....
....|..|C-4 A..F ....|B-3 ...F ....|B-3 ...7 ....
....|..|R-- .... ....|--- .... ....|R-- .... ....
....|..|C-4 C..F ....|E-3 ...F ....|B-3 ...F ....
....|..|R-- .... ....|--- .... ....|R-- .... ....
....|..|C-4 A..F ....|D#4 ...F ....|B-3 ...A ....
....|..|R-- .... ....|--- .... ....|--- .... ....
....|..|C-4 A..A ....|E-3 ...F ....|B-3 ...F ....
....|..|F#2 ...F ....|--- .... ....|--- .... ....
....|..|F#2 ...F ....|C#4 ...F ....|B-3 ...A ....
....|..|R-- .... ....|--- .... ....|--- .... ....
....|..|C-4 C..F ....|E-3 ...F ....|B-3 ...F ....
....|..|R-- .... ....|--- .... ....|--- .... ....
....|..|C-4 A..7 ....|E-4 ...F ....|B-3 ...A ....
....|..|F#2 ...A ....|--- .... ....|R-- .... ....
....|..|C-4 A..F ....|F#3 ...F ....|D#4 ...F ....
....|..|R-- .... ....|--- .... ....|R-- .... ....
....|..|C-4 A..F ....|A#3 ...F ....|C#4 ...F ....
....|..|R-- .... ....|--- .... ....|R-- .... ....
....|..|C-4 C..F ....|F#3 ...F ....|C#4 ...F ....
....|..|R-- .... ....|--- .... ....|R-- .... ....
....|..|C-4 A..F ....|C#4 ...F ....|C#4 ...F ....
....|..|R-- .... ....|--- .... ....|R-- .... ....
....|..|C-4 A..A ....|F#3 ...F ....|B-3 ...F ....
....|..|F#2 ...F ....|--- .... ....|R-- .... ....
....|..|F#2 ...F ....|D#4 ...F ....|A#3 ...F ....
....|..|R-- .... ....|--- .... ....|R-- .... ....
....|..|C-4 C..F ....|F#3 ...F ....|G#3 ...F ....
....|..|R-- .... ....|--- .... ....|R-- .... ....
....|..|C-4 A..7 ....|C#4 ...F ....|A#3 ...F ....
....|..|F#2 ...A ....|--- .... ....|R-- .... ....
....|..|C-4 A..F ....|R-- .... ....|B-3 ...F ....
....|..|R-- .... ....|--- .... ....|R-- .... ....
....|..|C-4 C..A ....|F#3 ...A ....|G#3 ...A ....
....|..|R-- .... ....|--- .... ....|R-- .... ....
....|..|R-- .... ....|C#4 ...A ....|R-- .... ....
....|..|F#2 ...7 ....|--- .... ....|R-- .... ....
....|..|C-4 A..A ....|R-- .... ....|B-3 ...A ....
....|..|R-- .... ....|--- .... ....|R-- .... ....
....|..|C-4 C..7 ....|F#3 ...7 ....|G#3 ...7 ....
....|..|R-- .... ....|--- .... ....|R-- .... ....
....|..|R-- .... ....|C#4 ...7 ....|R-- .... ....
....|..|--- .... ....|--- .... ....|R-- .... ....
....|..|C-4 A..7 ....|R-- .... ....|B-3 ...7 ....
....|..|--- .... ....|--- .... ....|--- .... ....
....|..|--- .... ....|--- .... ....|--- .... ....
....|..|--- .... ....|--- .... ....|--- .... ....

[Pattern26]
....|..|R-- .... ....|--- .... ....|R-- .... ....
