[Module]
VortexTrackerII=0
Version=3.5
Title=2d-1d+-3me,5m[3e]-3me+,7m[1f]-6m[ud]+
Author=oisee ^ 4d 29.05.2010
NoteTable=4
ChipFreq=1750000
Speed=3
PlayOrder=L0,1,2,3,4,5,6,7,8,9,10,11,12,13,14,15,16,17,18,19,20,21,22,23,24,25,26,27,28,29,30,31,32,33,34,35,36,37,38,39,40,41,42,43,44,45,40,41,42,43,44,51

[Ornament1]
L0

[Ornament2]
L0

[Ornament3]
L0

[Ornament4]
L0

[Ornament5]
L0

[Ornament6]
L0

[Ornament7]
L0

[Ornament8]
L0

[Ornament9]
L0

[Ornament10]
L0

[Ornament11]
L0

[Ornament12]
L0

[Ornament13]
L12,12,0,0

[Ornament14]
0,0,L0

[Ornament15]
0,12,0,0,L0,0

[Sample1]
TNE +000_ +00_ D_
TnE +000_ +00_ F_
TnE +000_ +00_ F_
TnE +000_ +00_ D_
TnE +000_ +00_ B_
TnE +000_ +00_ B_ L

[Sample2]
TnE +000_ +00_ F_ L

[Sample3]
TnE +000_ +00_ C_
TnE +001_ +00_ D_
TnE +002_ +00_ E_
TnE +001_ +00_ E_
TnE +002_ +00_ D_
TnE +000_ +00_ D_ L
TnE -001_ +00_ D_
TnE -002_ +00_ D_
TnE -001_ +00_ D_
TnE +000_ +00_ D_
TnE +001_ +00_ D_
TnE +002_ +00_ D_
TnE +001_ +00_ D_

[Sample4]
TnE +002_ +00_ D_
TnE +002_ +00_ D_
TnE +002_ +00_ C_
TnE +002_ +00_ B_
TnE +002_ +00_ A_ L
TnE +002_ +00_ A_
TnE +002_ +00_ A_
TnE +002_ +00_ A_
TnE +002_ +00_ A_
TnE +002_ +00_ A_
TnE +002_ +00_ A_
TnE +002_ +00_ A_

[Sample5]
TnE +000_ +00_ F_
TnE +000_ +00_ F_
tne +000_ +00_ 0_ L

[Sample6]
TnE -001_ +00_ F_ L

[Sample7]
TnE +006_ +00_ F_ L

[Sample8]
tNe +000_ +00_ F_
tNe +000_ +00_ B_
tNe +000_ +00_ 7_
tNe +000_ +00_ 6- L

[Sample9]
TnE +080_ +00_ F_
TnE +100_ +00_ E_
TnE +180_ +00_ E_
TnE +200_ +00_ E_
TnE +240_ +00_ D_
TnE +280_ +00_ D_
TnE +2C0_ +00_ D_
TnE +300_ +00_ C_
TnE +300_ +00_ C_
TnE +340_ +00_ C_
TnE +340_ +00_ C_
TnE +380_ +00_ B_
TnE +380_ +00_ B_
TnE +400_ +00_ B_
TnE +400_ +00_ B_
TnE +480_ +00_ A_
TnE +500_ +00_ 9_
TnE +580_ +00_ 7_
TnE +600_ +00_ 4_
TnE +680_ +00_ 1_
TnE +000_ +00_ 0_ L

[Sample10]
Tne +1C0_ +00_ F_
Tne +280_ +00_ E_
Tne +380_ +00_ C_
Tne +440_ +00_ A_
Tne +480_ +00_ 8_
TnE +000_ +00_ 0_ L

[Sample11]
TNe +200_ -0A_ F_
tNe +000_ +0F_ A_
TNe +200_ -07_ E_
tNe +000_ +0E_ B- L

[Sample12]
TNE +0A0_ +05_ F_
TNE +140_ +02_ D_
TNE +140_ +02_ B_
TNE +100_ +00_ A_ L
TNE +140_ +00_ A_
TNE +200_ +00_ A-

[Sample13]
Tne +200_ +00_ F_
Tne +2C0_ +00_ F_
Tne +380_ +00_ E_
Tne +500_ +00_ C_
Tne +520_ +00_ 9_
tne +000_ +00_ 0_ L

[Sample14]
TNE -100_ +00_ F_
TNE -100_ +00_ D_
TNE -100_ +00_ A_
TNE -100_ +00_ 5_
tne +000_ +00_ 0_ L

[Sample15]
TNE -100_ +00_ 5_
TNE -100_ +00_ 8_
TNE -100_ +00_ B_
TNE -100_ +00_ F_
TNe -100_ +00_ 9- L

[Sample16]
TnE +000_ +00_ C_
TnE +000_ +00_ E_
TnE +000_ +00_ F_
TnE +000_ +00_ F_
TnE +000_ +00_ E_
TnE +000_ +00_ D_
TnE +000_ +00_ C_
TnE +000_ +00_ C_ L
TnE +001_ +00_ C_
TnE +002_ +00_ C_
TnE +003_ +00_ C_
TnE +001_ +00_ C_
TnE +000_ +00_ C_
TnE -001_ +00_ C_
TnE -002_ +00_ C_
TnE -003_ +00_ C_
TnE -001_ +00_ C_
TnE +000_ +00_ C_
TnE +000_ +00_ C_

[Sample17]
Tne +1C0_ +00_ F_
Tne +280_ +00_ D_
Tne +380_ +00_ 7_
TNE +000_ +00_ 0_ L

[Sample18]
TnE -00C_ +00_ 0_ L

[Sample19]
TNe +000_ +00_ F_
TNe +000_ +00_ C_
TNe +000_ +00_ 6_
TNe +000_ +01_ A- L

[Sample20]
TNE +140_ +00_ F_
tNE +000_ +00_ B- L

[Sample21]
tNE +000_ +00_ D_
tNE +000_ +00_ 8_
tNE +000_ +00_ 1_
TNE +000_ +00_ 0_ L

[Sample22]
TnE +000_ +00_ D_ L
TnE +000_ +00_ D_
tne +000_ +00_ 9_
tne +000_ +00_ 9_
TnE +000_ +00_ D_
TnE +000_ +00_ D_
tne +000_ +00_ 9_
tne +000_ +00_ 9_
TnE +000_ +00_ D_
TnE +000_ +00_ D_
TnE +000_ +00_ D_
TnE +000_ +00_ D_
TnE +000_ +00_ D_
TnE +000_ +00_ D_
tne +000_ +00_ 9_
tne +000_ +00_ 9_

[Sample23]
TnE +000_ +00_ F_ L
TnE +010_ +01_ F_
TnE +010_ +01_ F_
TnE +010_ +01_ F_
TnE +010_ +01_ F_
TnE +000_ +00_ F_
TnE +000_ +00_ F_
TnE -010_ -01_ F_
TnE -010_ -01_ F_
TnE -010_ -01_ F_
TnE -010_ -01_ F_
TnE +000_ +00_ F_

[Sample24]
TNe +000_ -01_ C_
TNe +000_ -01_ D_
TNe +000_ -01_ E_
TNe +000_ -01_ F_
TNe +000_ -01_ F_
TNe +000_ -01_ F_
TNe +000_ -01_ F_
TNe +000_ -01_ F_
TNe +000_ -01_ E_
TNe +000_ -01_ E_
TNe +000_ -01_ E_
TNe +000_ -01_ F_
TNe +000_ -01_ F_ L

[Sample25]
TNE +000_ +00_ F_
TNE +000_ +00_ F_ L
TNE +000_ +00_ F_
TNE +000_ +00_ F_
TNE +000_ +00_ F-

[Sample26]
tne +000_ +00_ 0_ L

[Sample27]
TnE +100_ +05_ F_
TnE +200_ +02_ A_
TnE +300_ +02_ 7_
TNE +400_ +00_ 3- L

[Sample28]
tne +000_ +00_ 0_ L

[Sample29]
tnE +000_ +00_ 0_ L

[Sample30]
TNE +001_ +00_ C_
TNE +002_ +00_ E_
TnE +001_ +00_ D_
TnE +002_ +00_ C_
TnE +000_ +00_ C_ L
TnE -001_ +00_ C_
TnE -002_ +00_ C_
TnE -001_ +00_ C_
TnE +000_ +00_ C_
TnE +001_ +00_ C_
TnE +002_ +00_ C_
TnE +001_ +00_ C_

[Sample31]
TNe +1C0_ +00_ F_
Tne +280_ +00_ E_
Tne +380_ +00_ C_
Tne +440_ +00_ A_
Tne +480_ +00_ 8_
TnE +000_ +00_ 0_ L

[Pattern0]
....|..|C-4 LF.F ....|--- .... ....|B-3 UFDF ....
....|..|--- .... ....|--- .... ....|--- .... ....
....|..|C-4 LF.F ....|--- .... ....|--- .... ....
....|..|--- .... ....|--- .... ....|--- .... ....
....|..|C-4 LF.F ....|--- .... ....|F#4 UFDF ....
....|..|--- .... ....|--- .... ....|--- .... ....
....|..|C-4 LF.F ....|--- .... ....|--- .... ....
....|..|--- .... ....|--- .... ....|--- .... ....
....|..|C-4 LF.F ....|--- .... ....|B-3 UFDF ....
....|..|--- .... ....|--- .... ....|--- .... ....
....|..|C-4 LF.F ....|--- .... ....|--- .... ....
....|..|--- .... ....|--- .... ....|--- .... ....
....|..|C-4 LF.F ....|--- .... ....|D#4 UFDF ....
....|..|--- .... ....|--- .... ....|--- .... ....
....|..|C-4 LF.F ....|--- .... ....|--- .... ....
....|..|--- .... ....|--- .... ....|--- .... ....
....|..|C-4 LF.F ....|--- .... ....|B-3 UFDF ....
....|..|--- .... ....|--- .... ....|--- .... ....
....|..|C-4 LF.F ....|--- .... ....|--- .... ....
....|..|--- .... ....|--- .... ....|--- .... ....
....|..|C-4 LF.F ....|F#4 3FEF ....|F#4 UFDF ....
....|..|--- .... ....|--- .... ....|--- .... ....
....|..|C-4 LF.F ....|--- .... ....|--- .... ....
....|..|--- .... ....|--- .... ....|--- .... ....
....|..|C-4 LF.F ....|G#4 3FEF ....|B-3 UFDF ....
....|..|--- .... ....|--- .... ....|--- .... ....
....|..|C-4 LF.F ....|--- .... ....|--- .... ....
....|..|--- .... ....|--- .... ....|--- .... ....
....|..|C-4 LF.F ....|B-4 3FEF ....|D#4 UFDF ....
....|..|--- .... ....|--- .... ....|--- .... ....
....|..|C-4 LF.F ....|--- .... 21.1|--- .... ....
....|..|--- .... ....|--- .... ....|--- .... ....
....|..|C-4 LF.F ....|F#4 3FEA ....|G#3 UFDF ....
....|..|--- .... ....|--- .... ....|--- .... ....
....|..|C-4 LF.F ....|--- .... ....|--- .... ....
....|..|--- .... ....|--- .... ....|--- .... ....
....|..|C-4 LF.F ....|G#4 3FEA ....|D#4 UFDF ....
....|..|--- .... ....|--- .... ....|--- .... ....
....|..|C-4 LF.F ....|--- .... ....|--- .... ....
....|..|--- .... ....|--- .... ....|--- .... ....
....|..|C-4 LF.F ....|B-4 3FEA ....|G#3 UFDF ....
....|..|--- .... ....|--- .... ....|--- .... ....
....|..|C-4 LF.F ....|--- .... ....|--- .... ....
....|..|--- .... ....|--- .... ....|--- .... ....
....|..|C-4 LF.F ....|F#4 3FE7 ....|C#4 UFDF ....
....|..|--- .... ....|--- .... ....|--- .... ....
....|..|C-4 LF.F ....|--- .... ....|--- .... ....
....|..|--- .... ....|--- .... ....|--- .... ....
....|..|C-4 LF.F ....|G#4 3FE7 ....|G#3 UFDF ....
....|..|--- .... ....|--- .... ....|--- .... ....
....|..|C-4 LF.F ....|--- .... ....|--- .... ....
....|..|--- .... ....|--- .... ....|--- .... ....
....|..|C-4 LF.F ....|B-4 3FEF ....|D#4 UFDF ....
....|..|--- .... ....|--- .... ....|--- .... ....
....|..|C-4 LF.F ....|--- .... ....|--- .... ....
....|..|--- .... ....|--- .... ....|--- .... ....
....|..|C-4 LF.F ....|--- .... ....|G#3 UFDF ....
....|..|--- .... ....|--- .... ....|--- .... ....
....|..|C-4 LF.F ....|A#4 3FEF ....|--- .... ....
....|..|--- .... ....|--- .... ....|--- .... ....
....|..|C-4 LF.F ....|R-- .... ....|C#4 UFDF ....
....|..|--- .... ....|--- .... ....|--- .... ....
....|..|C-4 LF.F ....|--- .... ....|--- .... ....
....|..|--- .... ....|--- .... ....|--- .... ....

[Pattern1]
....|..|C-4 LF.F ....|G#4 3FEF ....|E-3 UFDF ....
....|..|--- .... ....|--- .... ....|--- .... ....
....|..|C-4 LF.F ....|--- .... ....|--- .... ....
....|..|--- .... ....|--- .... 11.1|--- .... ....
....|..|C-4 LF.F ....|--- .... ....|B-3 UFDF ....
....|..|--- .... ....|--- .... ....|--- .... ....
....|..|C-4 LF.F ....|F#4 3FEF ....|--- .... ....
....|..|--- .... ....|--- .... ....|--- .... ....
....|..|C-4 LF.F ....|R-- .... ....|E-3 UFDF ....
....|..|--- .... ....|--- .... ....|--- .... ....
....|..|C-4 LF.F ....|--- .... ....|--- .... ....
....|..|--- .... ....|--- .... ....|--- .... ....
....|..|C-4 LF.F ....|F#4 3FEF ....|D#4 UFDF ....
....|..|--- .... ....|--- .... ....|--- .... ....
....|..|C-4 LF.F ....|R-- .... ....|--- .... ....
....|..|--- .... ....|--- .... ....|--- .... ....
....|..|C-4 LF.F ....|--- .... ....|E-3 UFDF ....
....|..|--- .... ....|--- .... ....|--- .... ....
....|..|C-4 LF.F ....|A#4 3FE7 ....|--- .... ....
....|..|--- .... ....|--- .... ....|--- .... ....
....|..|C-4 LF.F ....|--- .... ....|C#4 UFDF ....
....|..|--- .... ....|--- .... ....|--- .... ....
....|..|C-4 LF.F ....|F#4 3FEF ....|--- .... ....
....|..|--- .... ....|--- .... ....|--- .... ....
....|..|C-4 LF.F ....|G#4 3FE7 ....|E-3 UFDF ....
....|..|--- .... ....|--- .... ....|--- .... ....
....|..|C-4 LF.F ....|--- .... ....|--- .... ....
....|..|--- .... ....|--- .... ....|--- .... ....
....|..|C-4 LF.F ....|G#4 3FEF ....|E-4 UFDF ....
....|..|--- .... ....|--- .... ....|--- .... ....
....|..|C-4 LF.F ....|F#4 3FE7 ....|--- .... ....
....|..|--- .... ....|--- .... ....|--- .... ....
....|..|C-4 LF.F ....|--- .... ....|F#3 UFDF ....
....|..|--- .... ....|--- .... ....|--- .... ....
....|..|C-4 LF.F ....|F#4 3FEA ....|--- .... ....
....|..|--- .... ....|--- .... ....|--- .... ....
....|..|C-4 LF.F ....|F#4 3FEF ....|A#3 UFDF ....
....|..|--- .... ....|--- .... ....|--- .... ....
....|..|C-4 LF.F ....|--- .... ....|--- .... ....
....|..|--- .... ....|--- .... ....|--- .... ....
....|..|C-4 LF.F ....|G#4 3FEA ....|F#3 UFDF ....
....|..|--- .... ....|--- .... ....|--- .... ....
....|..|C-4 LF.F ....|--- .... ....|--- .... ....
....|..|--- .... ....|--- .... ....|--- .... ....
....|..|C-4 LF.F ....|--- .... ....|C#4 UFDF ....
....|..|--- .... ....|--- .... ....|--- .... ....
....|..|C-4 LF.F ....|F#4 3FE7 ....|--- .... ....
....|..|--- .... ....|--- .... ....|--- .... ....
....|..|C-4 LF.F ....|F#4 3FEA ....|F#3 UFDF ....
....|..|--- .... ....|--- .... ....|--- .... ....
....|..|C-4 LF.F ....|--- .... ....|--- .... ....
....|..|--- .... ....|--- .... ....|--- .... ....
....|..|C-4 LF.F ....|G#4 3FE7 ....|D#4 UFDF ....
....|..|--- .... ....|--- .... ....|--- .... ....
....|..|C-4 LF.F ....|--- .... ....|--- .... ....
....|..|--- .... ....|--- .... ....|--- .... ....
....|..|C-4 LF.F ....|--- .... ....|F#3 UFDF ....
....|..|--- .... ....|--- .... ....|--- .... ....
....|..|C-4 LF.F ....|--- .... ....|--- .... ....
....|..|--- .... ....|--- .... ....|--- .... ....
....|..|C-4 LF.F ....|F#4 3FE7 ....|C#4 UFDF ....
....|..|--- .... ....|--- .... ....|--- .... ....
....|..|C-4 LF.F ....|--- .... ....|--- .... ....
....|..|--- .... ....|--- .... ....|--- .... ....

[Pattern2]
 B-3|..|C-4 AF.F ....|B-1 2A.F ....|B-3 UFDF ....
 B-3|..|B-1 2A.F ....|--- .... ....|--- .... ....
....|..|C-4 LF.F ....|--- .... ....|--- .... ....
....|..|--- .... ....|--- .... ....|--- .... ....
....|..|C-4 AF.F ....|F#4 3FEF ....|F#4 UFDF ....
 B-3|..|B-1 2A.F ....|--- .... ....|--- .... ....
....|..|C-4 LF.F ....|--- .... ....|--- .... ....
....|..|--- .... ....|--- .... ....|--- .... ....
....|..|C-4 BF.F ....|G#4 3FEF ....|B-3 UFDF ....
....|..|R-- .... ....|--- .... ....|--- .... ....
....|..|C-4 LF.F ....|--- .... ....|--- .... ....
....|..|--- .... ....|--- .... ....|--- .... ....
....|..|C-4 AF.F ....|B-4 3FEF ....|D#4 UFDF ....
 B-3|..|B-1 2A.F ....|--- .... ....|--- .... ....
....|..|C-4 LF.F ....|--- .... ....|--- .... ....
....|..|--- .... ....|--- .... ....|--- .... ....
....|..|C-4 LF.F ....|R-- .... ....|B-3 UFDF ....
....|..|R-- .... ....|--- .... ....|--- .... ....
....|..|C-4 LF.F ....|--- .... ....|--- .... ....
....|..|--- .... ....|--- .... ....|--- .... ....
....|..|C-4 LF.F ....|F#4 3FEF ....|F#4 UFDF ....
....|..|R-- .... ....|--- .... ....|--- .... ....
....|..|C-4 LF.F ....|--- .... ....|--- .... ....
....|..|--- .... ....|--- .... ....|--- .... ....
....|..|C-4 BF.F ....|G#4 3FEF ....|B-3 UFDF ....
....|..|B-1 2F.7 ....|--- .... ....|--- .... ....
....|..|C-4 LF.F ....|--- .... ....|--- .... ....
....|..|--- .... ....|--- .... ....|--- .... ....
....|..|C-4 LF.F ....|B-4 3FEF ....|D#4 UFDF ....
....|..|B-1 2F.7 ....|--- .... ....|--- .... ....
....|..|C-4 LF.F ....|--- .... ....|--- .... ....
....|..|--- .... ....|--- .... ....|--- .... ....
 G#3|..|C-4 AF.F ....|G#1 2A.F ....|G#3 UFDF ....
 G#3|..|G#1 2A.F ....|--- .... ....|--- .... ....
....|..|C-4 LF.F ....|--- .... ....|--- .... ....
....|..|--- .... ....|--- .... ....|--- .... ....
....|..|C-4 AF.F ....|F#4 3FEF ....|D#4 UFDF ....
 G#3|..|G#1 2A.F ....|--- .... ....|--- .... ....
....|..|C-4 LF.F ....|--- .... ....|--- .... ....
....|..|--- .... ....|--- .... ....|--- .... ....
....|..|C-4 BF.F ....|G#4 3FEF ....|G#3 UFDF ....
....|..|R-- .... ....|--- .... ....|--- .... ....
....|..|C-4 LF.F ....|--- .... ....|--- .... ....
....|..|--- .... ....|--- .... ....|--- .... ....
....|..|C-4 AF.F ....|B-4 3FEF ....|C#4 UFDF ....
 G#3|..|G#1 2A.F ....|--- .... ....|--- .... ....
....|..|C-4 LF.F ....|--- .... ....|--- .... ....
....|..|--- .... ....|--- .... ....|--- .... ....
....|..|C-4 LF.F ....|G#4 3FE7 ....|G#3 UFDF ....
....|..|R-- .... ....|--- .... ....|--- .... ....
....|..|C-4 LF.F ....|R-- .... ....|--- .... ....
....|..|--- .... ....|--- .... ....|--- .... ....
....|..|C-4 LF.F ....|B-4 3FEF ....|D#4 UFDF ....
....|..|R-- .... ....|--- .... ....|--- .... ....
....|..|C-4 LF.F ....|--- .... ....|--- .... ....
....|..|--- .... ....|--- .... ....|--- .... ....
....|..|C-4 BF.F ....|G#1 2F.7 ....|G#3 UFDF ....
....|..|G#1 2F.7 ....|--- .... ....|--- .... ....
....|..|C-4 LF.F ....|A#4 3FEF ....|--- .... ....
....|..|--- .... ....|--- .... ....|--- .... ....
....|..|C-4 LF.F ....|F#4 3FE7 ....|C#4 UFDF ....
....|..|G#1 2F.7 ....|--- .... ....|--- .... ....
....|..|C-4 LF.F ....|R-- .... ....|--- .... ....
....|..|--- .... ....|--- .... ....|--- .... ....

[Pattern3]
....|..|C-4 AF.F ....|G#4 3FEF ....|E-3 UFDF ....
 E-3|..|E-1 2A.F ....|--- .... ....|--- .... ....
....|..|C-4 LF.F ....|--- .... 11.1|--- .... ....
....|..|--- .... ....|--- .... ....|--- .... ....
 E-3|..|C-4 AF.F ....|E-1 2A.F ....|B-3 UFDF ....
 E-3|..|E-1 2A.F ....|--- .... ....|--- .... ....
....|..|C-4 LF.F ....|F#4 3FEF ....|--- .... ....
....|..|--- .... ....|--- .... ....|--- .... ....
....|..|C-4 BF.F ....|R-- .... ....|E-3 UFDF ....
....|..|R-- .... ....|--- .... ....|--- .... ....
....|..|C-4 LF.F ....|R-- .... ....|--- .... ....
....|..|--- .... ....|--- .... ....|--- .... ....
 E-3|..|C-4 AF.F ....|F#4 3FEF ....|D#4 UFDF ....
 E-3|..|E-1 2A.F ....|--- .... ....|--- .... ....
....|..|C-4 LF.F ....|--- .... ....|--- .... ....
....|..|--- .... ....|--- .... ....|--- .... ....
....|..|C-4 LF.F ....|R-- .... ....|E-3 UFDF ....
....|..|R-- .... ....|--- .... ....|--- .... ....
....|..|C-4 LF.F ....|A#4 3FE7 ....|--- .... ....
....|..|--- .... ....|--- .... ....|--- .... ....
....|..|C-4 LF.F ....|R-- .... ....|C#4 UFDF ....
....|..|R-- .... ....|--- .... ....|--- .... ....
....|..|C-4 LF.F ....|F#4 3FEF ....|--- .... ....
....|..|--- .... ....|--- .... ....|--- .... ....
....|..|C-4 BF.F ....|G#4 3FE7 ....|E-3 UFDF ....
....|..|E-1 2F.7 ....|--- .... ....|--- .... ....
....|..|C-4 LF.F ....|--- .... ....|--- .... ....
....|..|--- .... ....|--- .... ....|--- .... ....
....|..|C-4 LF.F ....|E-1 2F.7 ....|E-4 UFDF ....
....|..|E-1 2F.7 ....|--- .... ....|--- .... ....
....|..|C-4 LF.F ....|F#4 3FE7 ....|--- .... ....
....|..|--- .... ....|--- .... ....|--- .... ....
 F#3|..|C-4 AF.F ....|F#1 2A.F ....|F#3 UFDF ....
 F#3|..|F#1 2A.F ....|--- .... ....|--- .... ....
....|..|C-4 LF.F ....|F#4 3FEA ....|--- .... ....
....|..|--- .... ....|--- .... ....|--- .... ....
 F#3|..|C-4 AF.F ....|F#1 2A.F ....|A#3 UFDF ....
 F#3|..|F#1 2A.F ....|--- .... ....|--- .... ....
....|..|C-4 LF.F ....|--- .... ....|--- .... ....
....|..|--- .... ....|--- .... ....|--- .... ....
....|..|C-4 BF.F ....|R-- .... ....|F#3 UFDF ....
....|..|R-- .... ....|--- .... ....|--- .... ....
....|..|C-4 LF.F ....|--- .... ....|--- .... ....
....|..|--- .... ....|--- .... ....|--- .... ....
 F#3|..|C-4 AF.F ....|F#1 2A.F ....|C#4 UFDF ....
 F#3|..|F#1 2A.F ....|--- .... ....|--- .... ....
....|..|C-4 LF.F ....|F#4 3FE7 ....|--- .... ....
....|..|--- .... ....|--- .... ....|--- .... ....
....|..|C-4 LF.F ....|R-- .... ....|F#3 UFDF ....
....|..|R-- .... ....|--- .... ....|--- .... ....
....|..|C-4 LF.F ....|--- .... ....|--- .... ....
....|..|--- .... ....|--- .... ....|--- .... ....
....|..|C-4 LF.F ....|R-- .... ....|D#4 UFDF ....
....|..|R-- .... ....|--- .... ....|--- .... ....
....|..|C-4 LF.F ....|--- .... ....|--- .... ....
....|..|--- .... ....|--- .... ....|--- .... ....
....|..|C-4 BF.F ....|F#1 2F.7 ....|F#3 UFDF ....
....|..|F#1 2F.7 ....|--- .... ....|--- .... ....
....|..|C-4 LF.F ....|--- .... ....|--- .... ....
....|..|--- .... ....|--- .... ....|--- .... ....
....|..|C-4 LF.F ....|F#1 2F.7 ....|C#4 UFDF ....
....|..|F#1 2F.7 ....|--- .... ....|--- .... ....
....|..|C-4 LF.F ....|--- .... ....|--- .... ....
....|..|--- .... ....|--- .... ....|--- .... ....

[Pattern4]
 B-3|..|C-4 AF.F ....|B-1 2A.F ....|B-3 1FFF ....
 B-3|..|B-1 2A.F ....|--- .... ....|--- .... ....
....|..|C-4 LF.F ....|--- .... ....|B-3 1FFF ....
....|..|--- .... ....|--- .... ....|--- .... ....
 B-3|..|C-4 AF.F ....|B-1 2A.F ....|B-3 1FFF ....
 B-3|..|B-1 2A.F ....|--- .... ....|--- .... ....
....|..|C-4 LF.F ....|--- .... ....|--- .... 11.1
....|..|--- .... ....|--- .... ....|--- .... ....
....|..|C-4 BF.F ....|R-- .... ....|B-3 1F.F ....
....|..|R-- .... ....|--- .... ....|--- .... ....
....|..|C-4 LF.F ....|--- .... ....|--- .... ....
....|..|--- .... ....|--- .... ....|--- .... ....
 B-3|..|C-4 AF.F ....|B-1 2A.F ....|B-3 1FFF ....
 B-3|..|B-1 2A.F ....|--- .... ....|--- .... ....
....|..|C-4 LF.F ....|--- .... ....|B-3 1FFF ....
....|..|--- .... ....|--- .... ....|--- .... ....
....|..|C-4 LF.F ....|R-- .... ....|B-3 1FFF ....
....|..|R-- .... ....|--- .... ....|--- .... ....
....|..|C-4 LF.F ....|--- .... ....|--- .... 11.1
....|..|--- .... ....|--- .... ....|--- .... ....
....|..|C-4 LF.F ....|R-- .... ....|B-3 1F.F ....
....|..|R-- .... ....|--- .... ....|--- .... ....
....|..|C-4 LF.F ....|--- .... ....|B-3 1FFF ....
....|..|--- .... ....|--- .... ....|--- .... ....
....|..|C-4 BF.F ....|B-1 2F.7 ....|B-3 1FFF ....
....|..|B-1 2F.7 ....|--- .... ....|--- .... ....
....|..|C-4 LF.F ....|--- .... ....|B-3 1FF7 ....
....|..|--- .... ....|--- .... ....|--- .... ....
....|..|C-4 LF.F ....|B-1 2F.7 ....|B-3 1FFF ....
....|..|B-1 2F.7 ....|--- .... ....|--- .... ....
....|..|C-4 LF.F ....|--- .... ....|--- .... 11.1
....|..|--- .... ....|--- .... ....|--- .... ....
 G#3|..|C-4 AF.F ....|G#1 2A.F ....|B-3 1FFF ....
 G#3|..|G#1 2A.F ....|--- .... ....|--- .... ....
....|..|C-4 LF.F ....|--- .... ....|B-3 1FFF ....
....|..|--- .... ....|--- .... ....|--- .... ....
 G#3|..|C-4 AF.F ....|G#1 2A.F ....|B-3 1FFF ....
 G#3|..|G#1 2A.F ....|--- .... ....|--- .... ....
....|..|C-4 LF.F ....|--- .... ....|B-3 1FF7 ....
....|..|--- .... ....|--- .... ....|--- .... ....
....|..|C-4 BF.F ....|R-- .... ....|B-3 1F.F ....
....|..|R-- .... ....|--- .... ....|--- .... ....
....|..|C-4 LF.F ....|--- .... ....|--- .... 11.1
....|..|--- .... ....|--- .... ....|--- .... ....
 G#3|..|C-4 AF.F ....|G#1 2A.F ....|B-3 1FFF ....
 G#3|..|G#1 2A.F ....|--- .... ....|--- .... ....
....|..|C-4 LF.F ....|--- .... ....|B-3 1FFF ....
....|..|--- .... ....|--- .... ....|--- .... ....
....|..|C-4 LF.F ....|R-- .... ....|B-3 1F.F ....
....|..|R-- .... ....|--- .... ....|--- .... ....
....|..|C-4 LF.F ....|--- .... ....|--- .... 11.1
....|..|--- .... ....|--- .... ....|--- .... ....
....|..|C-4 LF.F ....|R-- .... ....|B-3 1FFF ....
....|..|R-- .... ....|--- .... ....|--- .... ....
....|..|C-4 LF.F ....|--- .... ....|--- .... ....
....|..|--- .... ....|--- .... ....|--- .... ....
....|..|C-4 BF.F ....|G#1 2F.7 ....|B-3 1FFF ....
....|..|G#1 2F.7 ....|--- .... ....|--- .... ....
....|..|C-4 LF.F ....|--- .... ....|B-3 1FF7 ....
....|..|--- .... ....|--- .... ....|--- .... ....
....|..|C-4 LF.F ....|G#1 2F.7 ....|C#4 UFDF ....
....|..|G#1 2F.7 ....|--- .... ....|--- .... ....
....|..|C-4 LF.F ....|--- .... ....|--- .... ....
....|..|--- .... ....|--- .... ....|--- .... ....

[Pattern5]
 E-3|..|C-4 AF.F ....|E-1 2A.F ....|B-3 1FFF ....
 E-3|..|E-1 2A.F ....|--- .... ....|--- .... ....
....|..|C-4 LF.F ....|--- .... ....|B-3 1FFF ....
....|..|--- .... ....|--- .... ....|--- .... ....
 E-3|..|C-4 AF.F ....|E-1 2A.F ....|B-3 1FFF ....
 E-3|..|E-1 2A.F ....|--- .... ....|--- .... ....
....|..|C-4 LF.F ....|--- .... ....|B-3 1F.F ....
....|..|--- .... ....|--- .... ....|--- .... ....
....|..|C-4 BF.F ....|R-- .... ....|B-3 1FFF ....
....|..|R-- .... ....|--- .... ....|--- .... ....
....|..|C-4 LF.F ....|--- .... ....|--- .... 11.1
....|..|--- .... ....|--- .... ....|--- .... ....
 E-3|..|C-4 AF.F ....|E-1 2A.F ....|B-3 1FFF ....
 E-3|..|E-1 2A.F ....|--- .... ....|--- .... ....
....|..|C-4 LF.F ....|--- .... ....|B-3 1FFF ....
....|..|--- .... ....|--- .... ....|--- .... ....
....|..|C-4 LF.F ....|R-- .... ....|B-3 1FFF ....
....|..|R-- .... ....|--- .... ....|--- .... ....
....|..|C-4 LF.F ....|--- .... ....|B-3 1FFA ....
....|..|--- .... ....|--- .... ....|--- .... ....
....|..|C-4 LF.F ....|R-- .... ....|B-3 1FFF ....
....|..|R-- .... ....|--- .... ....|--- .... ....
....|..|C-4 LF.F ....|--- .... ....|B-3 1FFF ....
....|..|--- .... ....|--- .... ....|--- .... ....
....|..|C-4 BF.F ....|E-1 2F.7 ....|B-3 1FFF ....
....|..|E-1 2F.7 ....|--- .... ....|--- .... ....
....|..|C-4 LF.F ....|--- .... ....|B-3 1FF7 ....
....|..|--- .... ....|--- .... ....|--- .... ....
....|..|C-4 LF.F ....|E-1 2F.7 ....|E-4 UFDF ....
....|..|E-1 2F.7 ....|--- .... ....|--- .... ....
....|..|C-4 LF.F ....|--- .... ....|B-3 1FF7 ....
....|..|--- .... ....|--- .... ....|--- .... ....
 F#3|..|C-4 AF.F ....|F#1 2A.F ....|A#3 1FFF ....
 F#3|..|F#1 2A.F ....|--- .... ....|--- .... ....
....|..|C-4 LF.F ....|--- .... ....|A#3 1FFF ....
....|..|--- .... ....|--- .... ....|--- .... ....
 F#3|..|C-4 AF.F ....|F#1 2A.F ....|A#3 1FFF ....
 F#3|..|F#1 2A.F ....|--- .... ....|--- .... ....
....|..|C-4 LF.F ....|--- .... ....|A#3 1FFF ....
....|..|--- .... ....|--- .... ....|--- .... ....
....|..|C-4 BF.F ....|R-- .... ....|A#3 1FFF ....
....|..|R-- .... ....|--- .... ....|--- .... ....
....|..|C-4 LF.F ....|--- .... ....|--- .... 11.1
....|..|--- .... ....|--- .... ....|--- .... ....
 F#3|..|C-4 AF.F ....|F#1 2A.F ....|A#3 1FFF ....
 F#3|..|F#1 2A.F ....|--- .... ....|--- .... ....
....|..|C-4 LF.F ....|--- .... ....|B-3 1FF7 ....
....|..|--- .... ....|--- .... ....|--- .... ....
....|..|C-4 LF.F ....|R-- .... ....|A#3 1FFF ....
....|..|R-- .... ....|--- .... ....|--- .... ....
....|..|C-4 LF.F ....|--- .... ....|A#3 1FFA ....
....|..|--- .... ....|--- .... ....|--- .... ....
....|..|C-4 LF.F ....|R-- .... ....|B-3 1FFF ....
....|..|R-- .... ....|--- .... ....|--- .... ....
....|..|C-4 LF.F ....|--- .... ....|--- .... 11.1
....|..|--- .... ....|--- .... ....|--- .... ....
....|..|C-4 BF.F ....|F#1 2F.7 ....|B-3 1F.F ....
....|..|F#1 2F.7 ....|--- .... ....|--- .... ....
....|..|C-4 LF.F ....|--- .... ....|A#3 1FF7 ....
....|..|--- .... ....|--- .... ....|--- .... ....
....|..|C-4 LF.F ....|F#1 2F.7 ....|B-3 1FFF ....
....|..|F#1 2F.7 ....|--- .... ....|--- .... ....
....|..|C-4 LF.F ....|--- .... ....|A#3 1FF7 ....
....|..|--- .... ....|--- .... ....|--- .... ....

[Pattern6]
 B-3|..|C-4 AF.F ....|B-1 2A.F ....|B-3 1FFF ....
 B-3|..|B-1 2A.F ....|--- .... ....|--- .... ....
....|..|C-4 LF.F ....|--- .... ....|--- .... 11.1
....|..|--- .... ....|--- .... ....|--- .... ....
 B-3|..|C-4 AF.F ....|B-1 2A.F ....|B-3 1F.F ....
 B-3|..|B-1 2A.F ....|--- .... ....|--- .... ....
....|..|C-4 LF.F ....|--- .... ....|B-3 1FFF ....
....|..|--- .... ....|--- .... ....|--- .... ....
....|..|C-4 BF.F ....|R-- .... ....|B-3 UFDF ....
....|..|R-- .... ....|--- .... ....|--- .... ....
....|..|C-4 LF.F ....|--- .... ....|B-3 1FFF ....
....|..|--- .... ....|--- .... ....|--- .... ....
 B-3|..|C-4 AF.F ....|B-1 2A.F ....|B-3 1FFF ....
 B-3|..|B-1 2A.F ....|--- .... ....|--- .... ....
....|..|C-4 LF.F ....|--- .... ....|--- .... 11.1
....|..|--- .... ....|--- .... ....|--- .... ....
....|..|C-4 LF.F ....|R-- .... ....|B-3 1FFF ....
....|..|R-- .... ....|--- .... ....|--- .... ....
....|..|C-4 LF.F ....|--- .... ....|B-3 1FFF ....
....|..|--- .... ....|--- .... ....|--- .... ....
....|..|C-4 LF.F ....|R-- .... ....|B-3 1FFF ....
....|..|R-- .... ....|--- .... ....|--- .... ....
....|..|C-4 LF.F ....|--- .... ....|B-3 1FFF ....
....|..|--- .... ....|--- .... ....|--- .... ....
....|..|C-4 BF.F ....|B-1 2F.7 ....|B-3 1FFF ....
....|..|B-1 2F.7 ....|--- .... ....|--- .... ....
....|..|C-4 LF.F ....|--- .... ....|--- .... ....
....|..|--- .... ....|--- .... ....|--- .... ....
....|..|C-4 LF.F ....|B-1 2F.7 ....|B-3 1FFF ....
....|..|B-1 2F.7 ....|--- .... ....|--- .... ....
....|..|C-4 LF.F ....|--- .... ....|B-3 1FF7 ....
....|..|--- .... ....|--- .... ....|--- .... ....
 G#3|..|C-4 AF.F ....|G#1 2A.F ....|G#3 UFDF ....
 G#3|..|G#1 2A.F ....|--- .... ....|--- .... ....
....|..|C-4 LF.F ....|--- .... ....|B-3 1FF7 ....
....|..|--- .... ....|--- .... ....|--- .... ....
 G#3|..|C-4 AF.F ....|G#1 2A.F ....|B-3 1FFF ....
 G#3|..|G#1 2A.F ....|--- .... ....|--- .... ....
....|..|C-4 LF.F ....|--- .... ....|B-3 1FFF ....
....|..|--- .... ....|--- .... ....|--- .... ....
....|..|C-4 BF.F ....|R-- .... ....|B-3 1FFF ....
....|..|R-- .... ....|--- .... ....|--- .... ....
....|..|C-4 LF.F ....|--- .... ....|B-3 1FF7 ....
....|..|--- .... ....|--- .... ....|--- .... ....
 G#3|..|C-4 AF.F ....|G#1 2A.F ....|B-3 1FFF ....
 G#3|..|G#1 2A.F ....|--- .... ....|--- .... ....
....|..|C-4 LF.F ....|--- .... ....|B-3 1FF7 ....
....|..|--- .... ....|--- .... ....|--- .... ....
....|..|C-4 LF.F ....|R-- .... ....|B-3 1FFF ....
....|..|R-- .... ....|--- .... ....|--- .... ....
....|..|C-4 LF.F ....|--- .... ....|B-3 1FFA ....
....|..|--- .... ....|--- .... ....|--- .... ....
....|..|C-4 LF.F ....|R-- .... ....|C#4 1FFF ....
....|..|R-- .... ....|--- .... ....|--- .... ....
....|..|C-4 LF.F ....|--- .... ....|--- .... ....
....|..|--- .... ....|--- .... ....|--- .... ....
....|..|C-4 BF.F ....|G#1 2F.7 ....|D#4 1FFF ....
....|..|G#1 2F.7 ....|--- .... ....|--- .... ....
....|..|C-4 LF.F ....|--- .... ....|--- .... 11.1
....|..|--- .... ....|--- .... ....|--- .... ....
....|..|C-4 LF.F ....|G#1 2F.7 ....|C#4 UFDF ....
....|..|G#1 2F.7 ....|--- .... ....|--- .... ....
....|..|C-4 LF.F ....|--- .... ....|B-3 1FF7 ....
....|..|--- .... ....|--- .... ....|--- .... ....

[Pattern7]
 E-3|..|C-4 AF.F ....|E-1 2A.F ....|B-3 1FFF ....
 E-3|..|E-1 2A.F ....|--- .... ....|--- .... ....
....|..|C-4 LF.F ....|--- .... ....|--- .... ....
....|..|--- .... ....|--- .... ....|--- .... ....
 E-3|..|C-4 AF.F ....|E-1 2A.F ....|B-3 UFDF ....
 E-3|..|E-1 2A.F ....|--- .... ....|--- .... ....
....|..|C-4 LF.F ....|--- .... ....|--- .... ....
....|..|--- .... ....|--- .... ....|--- .... ....
....|..|C-4 BF.F ....|R-- .... ....|E-3 UFDF ....
....|..|R-- .... ....|--- .... ....|--- .... ....
....|..|C-4 LF.F ....|--- .... ....|--- .... ....
....|..|--- .... ....|--- .... ....|--- .... ....
 E-3|..|C-4 AF.F ....|E-1 2A.F ....|B-3 1FFF ....
 E-3|..|E-1 2A.F ....|--- .... ....|--- .... ....
....|..|C-4 LF.F ....|--- .... ....|B-3 1FFF ....
....|..|--- .... ....|--- .... ....|--- .... ....
....|..|C-4 LF.F ....|R-- .... ....|B-3 1FFF ....
....|..|R-- .... ....|--- .... ....|--- .... ....
....|..|C-4 LF.F ....|--- .... ....|--- .... ....
....|..|--- .... ....|--- .... ....|--- .... ....
....|..|C-4 LF.F ....|R-- .... ....|B-3 1FFF ....
....|..|R-- .... ....|--- .... ....|--- .... ....
....|..|C-4 LF.F ....|--- .... ....|--- .... ....
....|..|--- .... ....|--- .... ....|--- .... ....
....|..|C-4 BF.F ....|E-1 2F.7 ....|B-3 1FFF ....
....|..|E-1 2F.7 ....|--- .... ....|--- .... ....
....|..|C-4 LF.F ....|--- .... ....|B-3 1FFA ....
....|..|--- .... ....|--- .... ....|--- .... ....
....|..|C-4 LF.F ....|E-1 2F.7 ....|E-4 UFDF ....
....|..|E-1 2F.7 ....|--- .... ....|--- .... ....
....|..|C-4 LF.F ....|--- .... ....|--- .... ....
....|..|--- .... ....|--- .... ....|--- .... ....
 F#3|..|C-4 AF.F ....|F#1 2A.F ....|B-3 1FFF ....
 F#3|..|F#1 2A.F ....|--- .... ....|--- .... ....
....|..|C-4 LF.F ....|--- .... ....|--- .... ....
....|..|--- .... ....|--- .... ....|--- .... ....
 F#3|..|C-4 AF.F ....|F#1 2A.F ....|B-3 1FFF ....
 F#3|..|F#1 2A.F ....|--- .... ....|--- .... ....
....|..|C-4 LF.F ....|--- .... ....|B-3 1FF7 ....
....|..|--- .... ....|--- .... ....|--- .... ....
....|..|C-4 BF.F ....|R-- .... ....|C#4 1FFF ....
....|..|R-- .... ....|--- .... ....|--- .... ....
....|..|C-4 LF.F ....|--- .... ....|--- .... ....
....|..|--- .... ....|--- .... ....|--- .... ....
....|..|C-4 AF.F ....|D#4 3FEF ....|D#4 1FFF ....
 F#3|..|F#1 2A.F ....|--- .... ....|--- .... ....
....|..|C-4 LF.F ....|--- .... ....|--- .... ....
....|..|--- .... ....|--- .... ....|--- .... ....
....|..|C-4 LF.F ....|D#4 3FEF ....|C#4 1FFF ....
....|..|R-- .... ....|--- .... ....|--- .... ....
....|..|C-4 LF.F ....|--- .... ....|--- .... ....
....|..|--- .... ....|--- .... ....|--- .... ....
....|..|C-4 LF.F ....|E-4 3FEF ....|D#4 UFDF ....
....|..|R-- .... ....|--- .... ....|--- .... ....
....|..|C-4 LF.F ....|--- .... ....|--- .... ....
....|..|--- .... ....|--- .... ....|--- .... ....
....|..|C-4 BF.F ....|F#4 3FEF ....|F#3 UFDF ....
....|..|F#1 2F.7 ....|--- .... ....|--- .... ....
....|..|C-4 LF.F ....|--- .... ....|--- .... ....
....|..|--- .... ....|--- .... ....|--- .... ....
....|..|C-4 LF.F ....|F#1 2F.7 ....|C#4 UFDF ....
....|..|F#1 2F.7 ....|--- .... ....|--- .... ....
....|..|C-4 LF.F ....|--- .... ....|--- .... 11.1
....|..|--- .... ....|--- .... ....|--- .... ....

[Pattern8]
 B-3|..|C-4 AF.F ....|B-1 2A.F ....|B-3 1FFF ....
 B-3|..|B-1 2A.F ....|--- .... ....|--- .... ....
....|..|C-4 LF.F ....|--- .... ....|--- .... ....
....|..|--- .... ....|--- .... ....|--- .... ....
 B-3|..|C-4 AF.F ....|B-1 2A.F ....|B-3 1F.F ....
 B-3|..|B-1 2A.F ....|--- .... ....|--- .... ....
....|..|C-4 LF.F ....|--- .... ....|--- .... 11.1
....|..|--- .... ....|--- .... ....|--- .... ....
....|..|C-4 BF.F ....|D#4 3FE7 ....|B-3 1FFF ....
....|..|R-- .... ....|--- .... ....|--- .... ....
....|..|C-4 LF.F ....|--- .... ....|--- .... ....
....|..|--- .... ....|--- .... ....|--- .... ....
 B-3|..|C-4 AF.F ....|B-1 2A.F ....|B-3 1FFF ....
 B-3|..|B-1 2A.F ....|--- .... ....|--- .... ....
....|..|C-4 LF.F ....|--- .... ....|--- .... ....
....|..|--- .... ....|--- .... ....|--- .... ....
....|..|C-4 LF.F ....|F#4 3FE7 ....|F#4 1F.F ....
....|..|R-- .... ....|--- .... ....|--- .... ....
....|..|C-4 LF.F ....|--- .... ....|--- .... 11.1
....|..|--- .... ....|--- .... ....|--- .... ....
....|..|C-4 LF.F ....|D#5 3FEF ....|F#4 UFDF ....
....|..|R-- .... ....|--- .... ....|--- .... ....
....|..|C-4 LF.F ....|--- .... ....|--- .... ....
....|..|--- .... ....|--- .... ....|--- .... ....
....|..|C-4 BF.F ....|C#5 3FEF ....|B-3 1FFF ....
....|..|B-1 2F.7 ....|--- .... ....|--- .... ....
....|..|C-4 LF.F ....|--- .... ....|--- .... ....
....|..|--- .... ....|--- .... ....|--- .... ....
....|..|C-4 LF.F ....|D#5 3FEF ....|D#4 UFDF ....
....|..|B-1 2F.7 ....|--- .... ....|--- .... ....
....|..|C-4 LF.F ....|--- .... ....|--- .... ....
....|..|--- .... ....|--- .... ....|--- .... ....
 G#3|..|C-4 AF.F ....|G#1 2A.F ....|B-3 1FFF ....
 G#3|..|G#1 2A.F ....|--- .... ....|--- .... ....
....|..|C-4 LF.F ....|--- .... ....|--- .... ....
....|..|--- .... ....|--- .... ....|--- .... ....
 G#3|..|C-4 AF.F ....|G#1 2A.F ....|B-3 1FFF ....
 G#3|..|G#1 2A.F ....|--- .... ....|--- .... ....
....|..|C-4 LF.F ....|--- .... ....|--- .... ....
....|..|--- .... ....|--- .... ....|--- .... ....
....|..|C-4 BF.F ....|R-- .... ....|B-3 1FFF ....
....|..|R-- .... ....|--- .... ....|--- .... ....
....|..|C-4 LF.F ....|--- .... ....|--- .... ....
....|..|--- .... ....|--- .... ....|--- .... ....
 G#3|..|C-4 AF.F ....|G#1 2A.F ....|B-3 1FFF ....
 G#3|..|G#1 2A.F ....|--- .... ....|--- .... ....
....|..|C-4 LF.F ....|--- .... ....|--- .... ....
....|..|--- .... ....|--- .... ....|--- .... ....
....|..|C-4 LF.F ....|C#5 3FE7 ....|F#4 1FFF ....
....|..|R-- .... ....|--- .... ....|--- .... ....
....|..|C-4 LF.F ....|--- .... ....|--- .... 11.1
....|..|--- .... ....|--- .... ....|--- .... ....
....|..|C-4 LF.F ....|D#5 3FEF ....|D#4 UFDF ....
....|..|R-- .... ....|--- .... ....|--- .... ....
....|..|C-4 LF.F ....|--- .... ....|--- .... ....
....|..|--- .... ....|--- .... ....|--- .... ....
....|..|C-4 BF.F ....|C#5 3FEF ....|B-3 1FFF ....
....|..|G#1 2F.7 ....|--- .... ....|--- .... ....
....|..|C-4 LF.F ....|--- .... ....|--- .... ....
....|..|--- .... ....|--- .... ....|--- .... ....
....|..|C-4 LF.F ....|D#5 3FEF ....|C#4 UFDF ....
....|..|G#1 2F.7 ....|--- .... ....|--- .... ....
....|..|C-4 LF.F ....|--- .... ....|--- .... ....
....|..|--- .... ....|--- .... ....|--- .... ....

[Pattern9]
 E-3|..|C-4 AF.F ....|E-1 2A.F ....|E-3 UFDF ....
 E-3|..|E-1 2A.F ....|--- .... ....|--- .... ....
....|..|C-4 LF.F ....|--- .... ....|--- .... ....
....|..|--- .... ....|--- .... ....|--- .... ....
 E-3|..|C-4 AF.F ....|E-1 2A.F ....|B-3 1FFF ....
 E-3|..|E-1 2A.F ....|--- .... ....|--- .... ....
....|..|C-4 LF.F ....|--- .... ....|B-3 1FFF ....
....|..|--- .... ....|--- .... ....|--- .... ....
....|..|C-4 BF.F ....|R-- .... ....|B-3 1FFF ....
....|..|R-- .... ....|--- .... ....|--- .... ....
....|..|C-4 LF.F ....|--- .... ....|--- .... ....
....|..|--- .... ....|--- .... ....|--- .... ....
 E-3|..|C-4 AF.F ....|E-1 2A.F ....|B-3 1F.F ....
 E-3|..|E-1 2A.F ....|--- .... ....|--- .... ....
....|..|C-4 LF.F ....|--- .... ....|--- .... 11.1
....|..|--- .... ....|--- .... ....|--- .... ....
....|..|C-4 LF.F ....|F#4 3FEF ....|B-3 1FFF ....
....|..|R-- .... ....|--- .... ....|--- .... ....
....|..|C-4 LF.F ....|--- .... ....|B-3 1FFA ....
....|..|--- .... ....|--- .... ....|--- .... ....
....|..|C-4 LF.F ....|D#5 3FE7 ....|C#4 UFDF ....
....|..|R-- .... ....|--- .... ....|--- .... ....
....|..|C-4 LF.F ....|F#4 3FEF ....|--- .... ....
....|..|--- .... ....|--- .... ....|--- .... ....
....|..|C-4 BF.F ....|F#4 3FEF ....|B-3 1FFF ....
....|..|E-1 2F.7 ....|--- .... ....|--- .... ....
....|..|C-4 LF.F ....|--- .... ....|--- .... ....
....|..|--- .... ....|--- .... ....|--- .... ....
....|..|C-4 LF.F ....|E-1 2F.7 ....|E-4 UFDF ....
....|..|E-1 2F.7 ....|--- .... ....|--- .... ....
....|..|C-4 LF.F ....|--- .... ....|B-3 1FF7 ....
....|..|--- .... ....|--- .... ....|--- .... ....
....|..|C-4 AF.F ....|F#4 3FEF ....|E-4 1FFF ....
 F#3|..|F#1 2A.F ....|--- .... ....|--- .... ....
....|..|C-4 LF.F ....|F#4 3FEA ....|--- .... ....
....|..|--- .... ....|--- .... ....|--- .... ....
 F#3|..|C-4 AF.F ....|F#1 2A.F ....|D#4 1FFF ....
 F#3|..|F#1 2A.F ....|--- .... ....|--- .... ....
....|..|C-4 LF.F ....|--- .... ....|--- .... ....
....|..|--- .... ....|--- .... ....|--- .... ....
....|..|C-4 BF.F ....|F#4 3FE7 ....|F#3 UFDF ....
....|..|R-- .... ....|--- .... ....|--- .... ....
....|..|C-4 LF.F ....|--- .... ....|--- .... ....
....|..|--- .... ....|--- .... ....|--- .... ....
 F#3|..|C-4 AF.F ....|F#1 2A.F ....|B-3 1FFF ....
 F#3|..|F#1 2A.F ....|--- .... ....|--- .... ....
....|..|C-4 LF.F ....|F#4 3FE7 ....|--- .... 11.1
....|..|--- .... ....|--- .... ....|--- .... ....
....|..|C-4 LF.F ....|B-4 3FEF ....|F#3 UFDF ....
....|..|R-- .... ....|--- .... ....|--- .... ....
....|..|C-4 LF.F ....|--- .... ....|--- .... ....
....|..|--- .... ....|--- .... ....|--- .... ....
....|..|C-4 LF.F ....|R-- .... ....|B-3 1FFF ....
....|..|R-- .... ....|--- .... ....|--- .... ....
....|..|C-4 LF.F ....|--- .... ....|--- .... ....
....|..|--- .... ....|--- .... ....|--- .... ....
....|..|C-4 BF.F ....|F#4 3FE7 ....|F#3 UFDF ....
....|..|F#1 2F.7 ....|--- .... ....|--- .... ....
....|..|C-4 LF.F ....|--- .... ....|--- .... ....
....|..|--- .... ....|--- .... ....|--- .... ....
....|..|C-4 LF.F ....|F#1 2F.7 ....|E-4 1FFF ....
....|..|F#1 2F.7 ....|--- .... ....|--- .... ....
....|..|C-4 LF.F ....|--- .... ....|--- .... ....
....|..|--- .... ....|--- .... ....|--- .... ....

[Pattern10]
....|..|C-4 LF.F ....|C#5 3FEF ....|D#4 1FFF ....
....|..|R-- .... ....|--- .... ....|--- .... ....
....|..|C-4 LF.7 ....|--- .... ....|--- .... ....
....|..|--- .... ....|--- .... ....|--- .... ....
....|..|C-4 AF.7 ....|F#1 2F.7 ....|B-3 1FF7 ....
....|..|F#1 2F.7 ....|--- .... ....|--- .... ....
....|..|C-4 LF.7 ....|--- .... ....|--- .... ....
....|..|--- .... ....|--- .... ....|--- .... ....
....|..|C-4 LF.7 ....|B-4 3FE7 ....|F#3 UFD7 ....
....|..|R-- .... ....|--- .... ....|--- .... ....
....|..|C-4 LF.7 ....|--- .... ....|--- .... ....
....|..|--- .... ....|--- .... ....|--- .... ....
....|..|C-4 LF.7 ....|C#5 3FEA ....|B-3 1FF7 ....
....|..|--- .... ....|--- .... ....|--- .... ....
....|..|C-4 LF.7 ....|--- .... ....|--- .... ....
....|..|--- .... ....|--- .... ....|--- .... ....
....|..|C-4 BF.7 ....|--- .... ....|F#3 UFD7 ....
....|..|--- .... ....|--- .... ....|--- .... ....
....|..|C-4 LF.7 ....|--- .... ....|--- .... ....
....|..|--- .... ....|--- .... ....|--- .... ....
....|..|C-4 LF.7 ....|--- .... ....|E-4 1FF7 ....
....|..|--- .... ....|--- .... ....|--- .... ....
....|..|C-4 LF.7 ....|--- .... ....|--- .... ....
....|..|--- .... ....|--- .... ....|--- .... ....
....|..|C-4 LF.7 ....|F#5 3FEF ....|F#4 1FFF ....
....|..|--- .... ....|--- .... ....|--- .... ....
....|..|--- .... ....|--- .... ....|--- .... ....
....|..|--- .... ....|--- .... ....|--- .... ....
....|..|--- .... ....|--- .... ....|--- .... ....
....|..|--- .... ....|--- .... ....|--- .... ....
....|..|--- .... ....|--- .... ....|--- .... ....
....|..|--- .... ....|--- .... ....|--- .... ....
....|..|C-4 AF.F ....|D#5 3FEF ....|D#4 1FFF ....
 B-3|..|B-1 2A.F ....|--- .... ....|--- .... ....
....|..|C-4 LF.F ....|--- .... 11.1|--- .... ....
....|..|--- .... ....|--- .... ....|--- .... ....
 B-3|..|C-4 AF.F ....|B-1 2A.F ....|F#4 UFDF ....
 B-3|..|B-1 2A.F ....|--- .... ....|--- .... ....
....|..|C-4 LF.F ....|--- .... ....|--- .... ....
....|..|--- .... ....|--- .... ....|--- .... ....
....|..|C-4 BF.F ....|C#5 3FEF ....|C#4 1FFF ....
....|..|R-- .... ....|--- .... ....|--- .... ....
....|..|C-4 LF.F ....|--- .... ....|--- .... ....
....|..|--- .... ....|--- .... ....|--- .... ....
 B-3|..|C-4 AF.F ....|B-1 2A.F ....|D#4 UFDF ....
 B-3|..|B-1 2A.F ....|--- .... ....|--- .... ....
....|..|C-4 LF.F ....|--- .... ....|--- .... ....
....|..|--- .... ....|--- .... ....|--- .... ....
....|..|C-4 LF.F ....|D#5 3FEF ....|D#4 1FFF ....
....|..|R-- .... ....|--- .... ....|--- .... ....
....|..|C-4 LF.F ....|--- .... 11.1|--- .... ....
....|..|--- .... ....|--- .... ....|--- .... ....
....|..|C-4 LF.F ....|C#5 3FEA ....|F#4 UFDF ....
....|..|R-- .... ....|--- .... ....|--- .... ....
....|..|C-4 LF.F ....|--- .... ....|--- .... ....
....|..|--- .... ....|--- .... ....|--- .... ....
....|..|C-4 RF.F ....|C#5 3FEF ....|C#4 1FFF ....
....|..|B-1 2F.7 ....|--- .... ....|--- .... ....
....|..|C-4 LF.F ....|--- .... ....|--- .... ....
....|..|--- .... ....|--- .... ....|--- .... ....
....|..|C-4 LF.F ....|B-1 2F.7 ....|D#4 UFDF ....
....|..|B-1 2F.7 ....|--- .... ....|--- .... ....
....|..|C-4 LF.F ....|--- .... ....|--- .... ....
....|..|--- .... ....|--- .... ....|--- .... ....

[Pattern11]
....|..|C-4 AF.F ....|B-4 3FEF ....|D#4 1FFF ....
 G#3|..|G#1 2A.F ....|--- .... ....|--- .... ....
....|..|C-4 LF.F ....|--- .... ....|D#4 1FFF ....
....|..|--- .... ....|--- .... ....|--- .... ....
 G#3|..|C-4 AF.F ....|G#1 2A.F ....|C#4 1FFF ....
 G#3|..|G#1 2A.F ....|--- .... ....|--- .... ....
....|..|C-4 LF.F ....|--- .... ....|--- .... ....
....|..|--- .... ....|--- .... ....|--- .... ....
....|..|C-4 BF.F ....|B-4 3FEF ....|D#4 1FFF ....
....|..|R-- .... ....|--- .... ....|--- .... ....
....|..|C-4 LF.F ....|--- .... ....|--- .... ....
....|..|--- .... ....|--- .... ....|--- .... ....
 G#3|..|C-4 AF.F ....|G#1 2A.F ....|C#4 1FFF ....
 G#3|..|G#1 2A.F ....|--- .... ....|--- .... ....
....|..|C-4 LF.F ....|--- .... ....|D#4 1FFA ....
....|..|--- .... ....|--- .... ....|--- .... ....
....|..|C-4 LF.F ....|D#5 3FEF ....|D#4 1FFF ....
....|..|R-- .... ....|--- .... ....|--- .... ....
....|..|C-4 LF.F ....|--- .... 11.1|--- .... ....
....|..|--- .... ....|--- .... ....|--- .... ....
....|..|C-4 LF.F ....|B-4 3FEA ....|D#4 UFDF ....
....|..|R-- .... ....|--- .... ....|--- .... ....
....|..|C-4 LF.F ....|--- .... ....|--- .... ....
....|..|--- .... ....|--- .... ....|--- .... ....
....|..|C-4 RF.F ....|C#5 3FEF ....|C#4 1FFF ....
....|..|G#1 2F.7 ....|--- .... ....|--- .... ....
....|..|C-4 LF.F ....|--- .... ....|D#4 1FF7 ....
....|..|--- .... ....|--- .... ....|--- .... ....
....|..|C-4 LF.F ....|G#1 2F.7 ....|C#4 UFDF ....
....|..|G#1 2F.7 ....|--- .... ....|--- .... ....
....|..|C-4 LF.F ....|--- .... ....|--- .... ....
....|..|--- .... ....|--- .... ....|--- .... ....
 E-3|..|C-4 AF.F ....|E-1 2A.F ....|E-3 UFDF ....
 E-3|..|E-1 2A.F ....|--- .... ....|--- .... ....
....|..|C-4 LF.F ....|--- .... ....|--- .... ....
....|..|--- .... ....|--- .... ....|--- .... ....
....|..|C-4 AF.F ....|B-4 3FEF ....|B-3 1FFF ....
 E-3|..|E-1 2A.F ....|--- .... ....|--- .... ....
....|..|C-4 LF.F ....|B-4 3FEF ....|B-3 1FFF ....
....|..|--- .... ....|--- .... ....|--- .... ....
....|..|C-4 BF.F ....|B-4 3FEF ....|B-3 1FFF ....
....|..|R-- .... ....|--- .... ....|--- .... ....
....|..|C-4 LF.F ....|--- .... ....|--- .... ....
....|..|--- .... ....|--- .... ....|--- .... ....
....|..|C-4 AF.F ....|B-4 3FEF ....|B-3 1FFF ....
 E-3|..|E-1 2A.F ....|--- .... ....|--- .... ....
....|..|C-4 LF.F ....|--- .... ....|--- .... ....
....|..|--- .... ....|--- .... ....|--- .... ....
....|..|C-4 LF.F ....|B-4 3FEF ....|B-3 1FFF ....
....|..|R-- .... ....|--- .... ....|--- .... ....
....|..|C-4 LF.F ....|B-4 3FEF ....|B-3 1FFF ....
....|..|--- .... ....|--- .... ....|--- .... ....
....|..|C-4 LF.F ....|B-4 3FEF ....|B-3 1FFF ....
....|..|R-- .... ....|--- .... ....|--- .... ....
....|..|C-4 LF.F ....|--- .... ....|--- .... ....
....|..|--- .... ....|--- .... ....|--- .... ....
....|..|C-4 RF.F ....|B-4 3FEF ....|B-3 1FFF ....
....|..|E-1 2F.7 ....|--- .... ....|--- .... ....
....|..|C-4 LF.F ....|--- .... ....|--- .... ....
....|..|--- .... ....|--- .... ....|--- .... ....
....|..|C-4 LF.F ....|B-4 3FEF ....|B-3 1FFF ....
....|..|E-1 2F.7 ....|--- .... ....|--- .... ....
....|..|C-4 LF.F ....|B-4 3FEF ....|B-3 1FFF ....
....|..|--- .... ....|--- .... ....|--- .... ....

[Pattern12]
....|..|C-4 AF.F ....|B-4 3FEF ....|F#3 1FFF ....
 F#3|..|F#1 2A.F ....|--- .... ....|--- .... ....
....|..|C-4 LF.F ....|--- .... 11.1|--- .... ....
....|..|--- .... ....|--- .... ....|--- .... ....
 F#3|..|C-4 AF.F ....|F#1 2A.F ....|A#3 UFDF ....
 F#3|..|F#1 2A.F ....|--- .... ....|--- .... ....
....|..|C-4 LF.F ....|--- .... ....|--- .... ....
....|..|--- .... ....|--- .... ....|--- .... ....
....|..|C-4 BF.F ....|B-4 3FEF ....|C#4 1FFF ....
....|..|R-- .... ....|--- .... ....|--- .... ....
....|..|C-4 LF.F ....|B-4 3FE7 ....|B-3 1FF7 ....
....|..|--- .... ....|--- .... ....|--- .... ....
 F#3|..|C-4 AF.F ....|F#1 2A.F ....|C#4 UFDF ....
 F#3|..|F#1 2A.F ....|--- .... ....|--- .... ....
....|..|C-4 LF.F ....|--- .... 11.1|--- .... ....
....|..|--- .... ....|--- .... ....|--- .... ....
....|..|C-4 LF.F ....|B-4 3FEF ....|F#3 1FFF ....
....|..|R-- .... ....|--- .... ....|--- .... ....
....|..|C-4 LF.F ....|--- .... ....|--- .... ....
....|..|--- .... ....|--- .... ....|--- .... ....
....|..|C-4 LF.F ....|B-4 3FE7 ....|D#4 UFDF ....
....|..|R-- .... ....|--- .... ....|--- .... ....
....|..|C-4 LF.F ....|B-4 3FE7 ....|B-3 1FF7 ....
....|..|--- .... ....|--- .... ....|--- .... ....
....|..|C-4 RF.F ....|B-4 3FEF ....|C#4 1FFF ....
....|..|F#1 2F.7 ....|--- .... ....|--- .... ....
....|..|C-4 LF.F ....|--- .... 11.1|--- .... ....
....|..|--- .... ....|--- .... ....|--- .... ....
....|..|C-4 LF.F ....|F#1 2F.7 ....|C#4 UFDF ....
....|..|F#1 2F.7 ....|--- .... ....|--- .... ....
....|..|C-4 LF.F ....|--- .... ....|--- .... ....
....|..|--- .... ....|--- .... ....|--- .... ....
....|..|C-4 AF.F ....|D#5 3FEF ....|D#4 1FFF ....
 B-3|..|B-1 2A.F ....|--- .... ....|--- .... ....
....|..|C-4 LF.F ....|--- .... 11.1|--- .... ....
....|..|--- .... ....|--- .... ....|--- .... ....
 B-3|..|C-4 AF.F ....|B-1 2A.F ....|F#4 UFDF ....
 B-3|..|B-1 2A.F ....|--- .... ....|--- .... ....
....|..|C-4 LF.F ....|--- .... ....|--- .... ....
....|..|--- .... ....|--- .... ....|--- .... ....
....|..|C-4 BF.F ....|C#5 3FEF ....|C#4 1FFF ....
....|..|R-- .... ....|--- .... ....|--- .... ....
....|..|C-4 LF.F ....|--- .... ....|--- .... ....
....|..|--- .... ....|--- .... ....|--- .... ....
 B-3|..|C-4 AF.F ....|B-1 2A.F ....|D#4 UFDF ....
 B-3|..|B-1 2A.F ....|--- .... ....|--- .... ....
....|..|C-4 LF.F ....|--- .... ....|--- .... ....
....|..|--- .... ....|--- .... ....|--- .... ....
....|..|C-4 LF.F ....|D#5 3FEF ....|D#4 1FFF ....
....|..|R-- .... ....|--- .... ....|--- .... ....
....|..|C-4 LF.F ....|--- .... 11.1|--- .... ....
....|..|--- .... ....|--- .... ....|--- .... ....
....|..|C-4 LF.F ....|C#5 3FEA ....|F#4 UFDF ....
....|..|R-- .... ....|--- .... ....|--- .... ....
....|..|C-4 LF.F ....|--- .... ....|--- .... ....
....|..|--- .... ....|--- .... ....|--- .... ....
....|..|C-4 RF.F ....|C#5 3FEF ....|C#4 1FFF ....
....|..|B-1 2F.7 ....|--- .... ....|--- .... ....
....|..|C-4 LF.F ....|--- .... ....|--- .... ....
....|..|--- .... ....|--- .... ....|--- .... ....
....|..|C-4 LF.F ....|B-1 2F.7 ....|D#4 UFDF ....
....|..|B-1 2F.7 ....|--- .... ....|--- .... ....
....|..|C-4 LF.F ....|--- .... ....|--- .... ....
....|..|--- .... ....|--- .... ....|--- .... ....

[Pattern13]
....|..|C-4 AF.F ....|B-4 3FEF ....|D#4 1FFF ....
 G#3|..|G#1 2A.F ....|--- .... ....|--- .... ....
....|..|C-4 LF.F ....|--- .... 11.1|--- .... ....
....|..|--- .... ....|--- .... ....|--- .... ....
 G#3|..|C-4 AF.F ....|G#1 2A.F ....|C#4 1FFF ....
 G#3|..|G#1 2A.F ....|--- .... ....|--- .... ....
....|..|C-4 LF.F ....|--- .... ....|--- .... ....
....|..|--- .... ....|--- .... ....|--- .... ....
....|..|C-4 BF.F ....|B-4 3FEF ....|D#4 1FFF ....
....|..|R-- .... ....|--- .... ....|--- .... ....
....|..|C-4 LF.F ....|--- .... ....|--- .... ....
....|..|--- .... ....|--- .... ....|--- .... ....
 G#3|..|C-4 AF.F ....|G#1 2A.F ....|C#4 1FFF ....
 G#3|..|G#1 2A.F ....|--- .... ....|--- .... ....
....|..|C-4 LF.F ....|--- .... ....|--- .... ....
....|..|--- .... ....|--- .... ....|--- .... ....
....|..|C-4 LF.F ....|D#5 3FEF ....|D#4 1FFF ....
....|..|R-- .... ....|--- .... ....|--- .... ....
....|..|C-4 LF.F ....|--- .... 11.1|--- .... ....
....|..|--- .... ....|--- .... ....|--- .... ....
....|..|C-4 LF.F ....|B-4 3FEA ....|D#4 UFDF ....
....|..|R-- .... ....|--- .... ....|--- .... ....
....|..|C-4 LF.F ....|--- .... ....|--- .... ....
....|..|--- .... ....|--- .... ....|--- .... ....
....|..|C-4 RF.F ....|C#5 3FEF ....|C#4 1FFF ....
....|..|G#1 2F.7 ....|--- .... ....|--- .... ....
....|..|C-4 LF.F ....|--- .... ....|--- .... ....
....|..|--- .... ....|--- .... ....|--- .... ....
....|..|C-4 LF.F ....|G#1 2F.7 ....|C#4 UFDF ....
....|..|G#1 2F.7 ....|--- .... ....|--- .... ....
....|..|C-4 LF.F ....|--- .... ....|--- .... ....
....|..|--- .... ....|--- .... ....|--- .... ....
 E-3|..|C-4 AF.F ....|E-1 2A.F ....|E-3 UFDF ....
 E-3|..|E-1 2A.F ....|--- .... ....|--- .... ....
....|..|C-4 LF.F ....|--- .... ....|--- .... ....
....|..|--- .... ....|--- .... ....|--- .... ....
....|..|C-4 AF.F ....|B-4 3FEF ....|B-3 1FFF ....
 E-3|..|E-1 2A.F ....|--- .... ....|--- .... ....
....|..|C-4 LF.F ....|B-4 3FEF ....|B-3 1FFF ....
....|..|--- .... ....|--- .... ....|--- .... ....
....|..|C-4 BF.F ....|B-4 3FEF ....|B-3 1FFF ....
....|..|R-- .... ....|--- .... ....|--- .... ....
....|..|C-4 LF.F ....|--- .... 11.1|--- .... ....
....|..|--- .... ....|--- .... ....|--- .... ....
....|..|C-4 AF.F ....|B-4 3FEF ....|B-3 1FFF ....
 E-3|..|E-1 2A.F ....|--- .... ....|--- .... ....
....|..|C-4 LF.F ....|--- .... ....|--- .... ....
....|..|--- .... ....|--- .... ....|--- .... ....
....|..|C-4 LF.F ....|B-4 3FEF ....|B-3 1FFF ....
....|..|R-- .... ....|--- .... ....|--- .... ....
....|..|C-4 LF.F ....|B-4 3FEA ....|B-3 1FFA ....
....|..|--- .... ....|--- .... ....|--- .... ....
....|..|C-4 LF.F ....|B-4 3FEF ....|B-3 1FFF ....
....|..|R-- .... ....|--- .... ....|--- .... ....
....|..|C-4 LF.F ....|--- .... 11.1|--- .... ....
....|..|--- .... ....|--- .... ....|--- .... ....
....|..|C-4 RF.F ....|B-4 3F.F ....|B-3 1FFF ....
....|..|E-1 2F.7 ....|--- .... ....|--- .... ....
....|..|C-4 LF.F ....|--- .... ....|--- .... ....
....|..|--- .... ....|--- .... ....|--- .... ....
....|..|C-4 LF.F ....|B-4 3FEF ....|B-3 1FFF ....
....|..|E-1 2F.7 ....|--- .... ....|--- .... ....
....|..|C-4 LF.F ....|B-4 3FE7 ....|B-3 1FF7 ....
....|..|--- .... ....|--- .... ....|--- .... ....

[Pattern14]
....|..|C-4 AF.F ....|B-4 3FEF ....|D#4 1FFF ....
 F#3|..|F#1 2A.F ....|--- .... ....|--- .... ....
....|..|C-4 LF.F ....|--- .... ....|--- .... ....
....|..|--- .... ....|--- .... ....|--- .... ....
 F#3|..|C-4 AF.F ....|F#1 2A.F ....|A#3 UFDF ....
 F#3|..|F#1 2A.F ....|--- .... ....|--- .... ....
....|..|C-4 LF.F ....|--- .... ....|--- .... ....
....|..|--- .... ....|--- .... ....|--- .... ....
....|..|C-4 BF.F ....|B-4 3FEF ....|C#4 1FFF ....
....|..|R-- .... ....|--- .... ....|--- .... ....
....|..|C-4 LF.F ....|--- .... ....|--- .... ....
....|..|--- .... ....|--- .... ....|--- .... ....
 F#3|..|C-4 AF.F ....|F#1 2A.F ....|C#4 UFDF ....
 F#3|..|F#1 2A.F ....|--- .... ....|--- .... ....
....|..|C-4 LF.F ....|--- .... 11.1|--- .... ....
....|..|--- .... ....|--- .... ....|--- .... ....
....|..|C-4 LF.F ....|B-4 3FEF ....|D#4 1FFF ....
....|..|R-- .... ....|--- .... ....|--- .... ....
....|..|C-4 LF.F ....|--- .... ....|--- .... ....
....|..|--- .... ....|--- .... ....|--- .... ....
....|..|C-4 LF.F ....|B-4 3FE7 ....|D#4 UFDF ....
....|..|R-- .... ....|--- .... ....|--- .... ....
....|..|C-4 LF.F ....|--- .... ....|--- .... ....
....|..|--- .... ....|--- .... ....|--- .... ....
....|..|C-4 RF.F ....|B-4 3FEF ....|C#4 1FFF ....
....|..|F#1 2F.7 ....|--- .... ....|--- .... ....
....|..|C-4 LF.F ....|--- .... ....|--- .... ....
....|..|--- .... ....|--- .... ....|--- .... ....
....|..|C-4 LF.F ....|F#1 2F.7 ....|C#4 UFDF ....
....|..|F#1 2F.7 ....|--- .... ....|--- .... ....
....|..|C-4 LF.F ....|--- .... 11.1|--- .... ....
....|..|--- .... ....|--- .... ....|--- .... ....
....|..|C-4 AF.F ....|B-3 3FEF ....|B-3 1FFF ....
 B-3|..|B-1 2A.F ....|--- .... ....|--- .... ....
....|..|C-4 LF.F ....|--- .... ....|--- .... ....
....|..|--- .... ....|--- .... ....|--- .... ....
....|..|C-4 AF.F ....|B-3 3FEF ....|B-3 1FFF ....
 B-3|..|B-1 2A.F ....|--- .... ....|--- .... ....
....|..|C-4 LF.F ....|--- .... ....|--- .... ....
....|..|--- .... ....|--- .... ....|--- .... ....
....|..|C-4 BF.F ....|B-3 3FEF ....|B-3 1FFF ....
....|..|R-- .... ....|--- .... ....|--- .... ....
....|..|C-4 LF.F ....|R-- .... ....|R-- .... ....
....|..|--- .... ....|--- .... ....|--- .... ....
....|..|C-4 AF.F ....|B-3 3FEF ....|B-3 1FFF ....
 B-3|..|B-1 2A.F ....|--- .... ....|--- .... ....
....|..|C-4 LF.F ....|--- .... ....|--- .... ....
....|..|--- .... ....|--- .... ....|--- .... ....
....|..|C-4 LF.F ....|B-3 3FEF ....|B-3 1FFF ....
....|..|R-- .... ....|--- .... ....|--- .... ....
....|..|C-4 LF.F ....|--- .... ....|--- .... ....
....|..|--- .... ....|--- .... ....|--- .... ....
....|..|C-4 LF.F ....|B-3 3FEF ....|B-3 1FFF ....
....|..|R-- .... ....|--- .... ....|--- .... ....
....|..|C-4 LF.F ....|R-- .... ....|R-- .... ....
....|..|--- .... ....|--- .... ....|--- .... ....
....|..|C-4 RF.F ....|B-5 3FEF ....|B-3 UFDF ....
....|..|B-1 2F.7 ....|--- .... ....|--- .... ....
....|..|C-4 LF.F ....|A#5 3FEF ....|--- .... ....
....|..|--- .... ....|G#5 3FEF ....|--- .... ....
....|..|C-4 LF.F ....|F#5 3FEF ....|D#4 UFDF ....
....|..|B-1 2F.7 ....|E-5 3FEF ....|--- .... ....
....|..|C-4 LF.F ....|D#5 3FEF ....|--- .... ....
....|..|--- .... ....|C#5 3FEF ....|--- .... ....

[Pattern15]
....|..|C-4 AF.F ....|B-3 3FEF ....|B-3 1FFF ....
 G#3|..|G#1 2A.F ....|--- .... ....|--- .... ....
....|..|C-4 LF.F ....|R-- .... ....|R-- .... ....
....|..|--- .... ....|--- .... ....|--- .... ....
....|..|C-4 AF.F ....|B-3 3FEF ....|B-3 1FFF ....
 G#3|..|G#1 2A.F ....|--- .... ....|--- .... ....
....|..|C-4 LF.F ....|A#5 3FEA ....|--- .... ....
....|..|--- .... ....|G#5 3FEA ....|--- .... ....
....|..|C-4 BF.F ....|B-3 3FEF ....|B-3 1FFF ....
....|..|R-- .... ....|E-5 3FEA ....|--- .... ....
....|..|C-4 LF.F ....|R-- .... ....|R-- .... ....
....|..|--- .... ....|C#5 3FEA ....|--- .... ....
....|..|C-4 AF.F ....|B-3 3FEF ....|B-3 1FFF ....
 G#3|..|G#1 2A.F ....|--- .... ....|--- .... ....
....|..|C-4 LF.F ....|R-- .... ....|R-- .... ....
....|..|--- .... ....|--- .... ....|--- .... ....
....|..|C-4 LF.F ....|B-3 3FEF ....|B-3 1FFF ....
....|..|R-- .... ....|--- .... ....|--- .... ....
....|..|C-4 LF.F ....|A#5 3FE7 ....|--- .... ....
....|..|--- .... ....|G#5 3FE7 ....|--- .... ....
....|..|C-4 LF.F ....|B-3 3FEF ....|B-3 1FFF ....
....|..|R-- .... ....|E-5 3FE7 ....|--- .... ....
....|..|C-4 LF.F ....|D#5 3FE7 ....|R-- .... ....
....|..|--- .... ....|C#5 3FE7 ....|--- .... ....
....|..|C-4 RF.F ....|B-5 3FEF ....|G#3 UFDF ....
....|..|G#1 2F.7 ....|--- .... ....|--- .... ....
....|..|C-4 LF.F ....|A#5 3FEF ....|--- .... ....
....|..|--- .... ....|G#5 3FEF ....|--- .... ....
....|..|C-4 LF.F ....|F#5 3FEF ....|C#4 UFDF ....
....|..|G#1 2F.7 ....|E-5 3FEF ....|--- .... ....
....|..|C-4 LF.F ....|D#5 3FEF ....|--- .... ....
....|..|--- .... ....|C#5 3FEF ....|--- .... ....
....|..|C-4 AF.F ....|B-3 3FEF ....|B-3 1FFF ....
 E-3|..|E-1 2A.F ....|--- .... ....|--- .... ....
....|..|C-4 LF.F ....|R-- .... ....|R-- .... ....
....|..|--- .... ....|--- .... ....|--- .... ....
 E-3|..|C-4 AF.F ....|E-1 2A.F ....|B-3 UFDF ....
 E-3|..|E-1 2A.F ....|--- .... ....|--- .... ....
....|..|C-4 LF.F ....|A#5 3FEA ....|--- .... ....
....|..|--- .... ....|G#5 3FEA ....|--- .... ....
....|..|C-4 BF.F ....|B-3 3FEF ....|B-3 1FFF ....
....|..|R-- .... ....|E-5 3FEA ....|--- .... ....
....|..|C-4 LF.F ....|D#5 3FEA ....|--- .... ....
....|..|--- .... ....|C#5 3FEA ....|--- .... ....
 E-3|..|C-4 AF.F ....|E-1 2A.F ....|D#4 UFDF ....
 E-3|..|E-1 2A.F ....|--- .... ....|--- .... ....
....|..|C-4 LF.F ....|R-- .... ....|R-- .... ....
....|..|--- .... ....|--- .... ....|--- .... ....
....|..|C-4 LF.F ....|B-3 3FEF ....|B-3 1FFF ....
....|..|R-- .... ....|--- .... ....|--- .... ....
....|..|C-4 LF.F ....|A#5 3FE7 ....|--- .... ....
....|..|--- .... ....|G#5 3FE7 ....|--- .... ....
....|..|C-4 LF.F ....|F#5 3FE7 ....|C#4 UFDF ....
....|..|R-- .... ....|E-5 3FE7 ....|--- .... ....
....|..|C-4 LF.F ....|D#5 3FE7 ....|--- .... ....
....|..|--- .... ....|C#5 3FE7 ....|--- .... ....
....|..|C-4 RF.F ....|B-3 3FEF ....|B-3 1FFF ....
....|..|E-1 2F.7 ....|--- .... ....|--- .... ....
....|..|C-4 LF.F ....|--- .... ....|--- .... ....
....|..|--- .... ....|--- .... ....|--- .... ....
....|..|C-4 LF.F ....|E-1 2F.7 ....|E-4 UFDF ....
....|..|E-1 2F.7 ....|--- .... ....|--- .... ....
....|..|C-4 LF.F ....|--- .... ....|--- .... ....
....|..|--- .... ....|--- .... ....|--- .... ....

[Pattern16]
....|..|C-4 AF.F ....|D#4 3FEF ....|D#4 1FFF ....
 F#3|..|F#1 2A.F ....|--- .... ....|--- .... ....
....|..|C-4 LF.F ....|--- .... 11.1|--- .... ....
....|..|--- .... ....|--- .... ....|--- .... ....
....|..|C-4 AF.F ....|C#4 3FEF ....|C#4 1FFF ....
 F#3|..|F#1 2A.F ....|--- .... ....|--- .... ....
....|..|C-4 LF.F ....|--- .... ....|--- .... ....
....|..|--- .... ....|--- .... ....|--- .... ....
....|..|C-4 BF.F ....|C#4 3F.F ....|C#4 1FFF ....
....|..|R-- .... ....|--- .... ....|--- .... ....
....|..|C-4 LF.F ....|--- .... 11.1|--- .... ....
....|..|--- .... ....|--- .... ....|--- .... ....
....|..|C-4 AF.F ....|C#4 3FEF ....|C#4 1FFF ....
 F#3|..|F#1 2A.F ....|--- .... ....|--- .... ....
....|..|C-4 LF.F ....|--- .... ....|--- .... ....
....|..|--- .... ....|--- .... ....|--- .... ....
....|..|C-4 LF.F ....|B-3 3FEF ....|B-3 1FFF ....
....|..|R-- .... ....|--- .... ....|--- .... ....
....|..|C-4 LF.F ....|--- .... ....|--- .... ....
....|..|--- .... ....|--- .... ....|--- .... ....
....|..|C-4 LF.F ....|A#3 3FEF ....|A#3 1FFF ....
....|..|R-- .... ....|--- .... ....|--- .... ....
....|..|C-4 LF.F ....|--- .... ....|--- .... ....
....|..|--- .... ....|--- .... ....|--- .... ....
....|..|C-4 RF.F ....|G#3 3FEF ....|G#3 1FFF ....
....|..|F#1 2F.7 ....|--- .... ....|--- .... ....
....|..|C-4 LF.F ....|--- .... ....|--- .... ....
....|..|--- .... ....|--- .... ....|--- .... ....
....|..|C-4 LF.F ....|A#3 3FEF ....|A#3 1FFF ....
....|..|F#1 2F.7 ....|--- .... ....|--- .... ....
....|..|C-4 LF.F ....|--- .... ....|--- .... ....
....|..|--- .... ....|--- .... ....|--- .... ....
 B-3|..|C-4 AF.F ....|B-1 2A.F ....|B-3 1FFF ....
 B-3|..|B-1 2A.F ....|--- .... ....|--- .... ....
....|..|C-4 LF.F ....|--- .... ....|--- .... ....
....|..|--- .... ....|--- .... ....|--- .... ....
 B-3|..|C-4 AF.F ....|B-1 2A.F ....|F#4 UFDF ....
 B-3|..|B-1 2A.F ....|--- .... ....|--- .... ....
....|..|C-4 LF.F ....|--- .... ....|--- .... ....
....|..|--- .... ....|--- .... ....|--- .... ....
....|..|C-4 BF.F ....|B-3 3FE7 ....|B-3 1FFF ....
....|..|R-- .... ....|--- .... ....|--- .... ....
....|..|C-4 LF.F ....|--- .... ....|--- .... ....
....|..|--- .... ....|--- .... ....|--- .... ....
 B-3|..|C-4 AF.F ....|B-1 2A.F ....|B-3 1FFF ....
 B-3|..|B-1 2A.F ....|--- .... ....|--- .... ....
....|..|C-4 LF.F ....|--- .... ....|--- .... ....
....|..|--- .... ....|--- .... ....|--- .... ....
....|..|C-4 LF.F ....|G#3 3FE7 ....|B-3 1FFF ....
....|..|R-- .... ....|--- .... ....|--- .... ....
....|..|C-4 LF.F ....|--- .... ....|B-3 1FFF ....
....|..|--- .... ....|--- .... ....|--- .... ....
....|..|C-4 LF.F ....|A#3 3FE7 ....|B-3 1FFF ....
....|..|R-- .... ....|--- .... ....|--- .... ....
....|..|C-4 LF.F ....|--- .... ....|B-3 1FFF ....
....|..|--- .... ....|--- .... ....|--- .... ....
....|..|C-4 BF.F ....|B-1 2F.7 ....|B-3 1FFF ....
....|..|B-1 2F.7 ....|--- .... ....|--- .... ....
....|..|C-4 LF.F ....|--- .... ....|--- .... ....
....|..|--- .... ....|--- .... ....|--- .... ....
....|..|C-4 LF.F ....|B-1 2F.7 ....|B-3 1FFF ....
....|..|B-1 2F.7 ....|--- .... ....|--- .... ....
....|..|C-4 LF.F ....|--- .... ....|B-3 1FFA ....
....|..|--- .... ....|--- .... ....|--- .... ....

[Pattern17]
 G#3|..|C-4 AF.F ....|G#1 2A.F ....|B-3 1FFF ....
 G#3|..|G#1 2A.F ....|--- .... ....|--- .... ....
....|..|C-4 LF.F ....|--- .... ....|B-3 1FFF ....
....|..|--- .... ....|--- .... ....|--- .... ....
 G#3|..|C-4 AF.F ....|G#1 2A.F ....|B-3 1F.F ....
 G#3|..|G#1 2A.F ....|--- .... ....|--- .... ....
....|..|C-4 LF.F ....|--- .... ....|--- .... 11.1
....|..|--- .... ....|--- .... ....|--- .... ....
....|..|C-4 BF.F ....|R-- .... ....|B-3 1FFF ....
....|..|R-- .... ....|--- .... ....|--- .... ....
....|..|C-4 LF.F ....|--- .... ....|B-3 1FF7 ....
....|..|--- .... ....|--- .... ....|--- .... ....
 G#3|..|C-4 AF.F ....|G#1 2A.F ....|B-3 1FFF ....
 G#3|..|G#1 2A.F ....|--- .... ....|--- .... ....
....|..|C-4 LF.F ....|--- .... ....|B-3 1FF7 ....
....|..|--- .... ....|--- .... ....|--- .... ....
....|..|C-4 LF.F ....|R-- .... ....|B-3 1F.F ....
....|..|R-- .... ....|--- .... ....|--- .... ....
....|..|C-4 LF.F ....|--- .... ....|--- .... 11.1
....|..|--- .... ....|--- .... ....|--- .... ....
....|..|C-4 LF.F ....|R-- .... ....|B-3 1FFF ....
....|..|R-- .... ....|--- .... ....|--- .... ....
....|..|C-4 LF.F ....|--- .... ....|B-3 1FFF ....
....|..|--- .... ....|--- .... ....|--- .... ....
....|..|C-4 BF.F ....|G#1 2F.7 ....|B-3 1FFF ....
....|..|G#1 2F.7 ....|--- .... ....|--- .... ....
....|..|C-4 LF.F ....|--- .... ....|B-3 1FF7 ....
....|..|--- .... ....|--- .... ....|--- .... ....
....|..|C-4 LF.F ....|G#1 2F.7 ....|C#4 UFDF ....
....|..|G#1 2F.7 ....|--- .... ....|--- .... ....
....|..|C-4 LF.F ....|--- .... ....|--- .... 11.1
....|..|--- .... ....|--- .... ....|--- .... ....
 E-3|..|C-4 AF.F ....|E-1 2A.F ....|B-3 1FFF ....
 E-3|..|E-1 2A.F ....|--- .... ....|--- .... ....
....|..|C-4 LF.F ....|--- .... ....|B-3 1FFA ....
....|..|--- .... ....|--- .... ....|--- .... ....
 E-3|..|C-4 AF.F ....|E-1 2A.F ....|B-3 UFDF ....
 E-3|..|E-1 2A.F ....|--- .... ....|--- .... ....
....|..|C-4 LF.F ....|--- .... ....|--- .... ....
....|..|--- .... ....|--- .... ....|--- .... ....
....|..|C-4 BF.F ....|R-- .... ....|B-3 1F.F ....
....|..|R-- .... ....|--- .... ....|--- .... ....
....|..|C-4 LF.F ....|--- .... ....|--- .... 11.1
....|..|--- .... ....|--- .... ....|--- .... ....
 E-3|..|C-4 AF.F ....|E-1 2A.F ....|D#4 UFDF ....
 E-3|..|E-1 2A.F ....|--- .... ....|--- .... ....
....|..|C-4 LF.F ....|--- .... ....|B-3 1FF7 ....
....|..|--- .... ....|--- .... ....|--- .... ....
....|..|C-4 LF.F ....|R-- .... ....|B-3 1FFF ....
....|..|R-- .... ....|--- .... ....|--- .... ....
....|..|C-4 LF.F ....|--- .... ....|--- .... ....
....|..|--- .... ....|--- .... ....|--- .... ....
....|..|C-4 LF.F ....|R-- .... ....|B-3 1FFF ....
....|..|R-- .... ....|--- .... ....|--- .... ....
....|..|C-4 LF.F ....|--- .... ....|B-3 1FFF ....
....|..|--- .... ....|--- .... ....|--- .... ....
....|..|C-4 BF.F ....|E-1 2F.7 ....|B-3 1FFF ....
....|..|E-1 2F.7 ....|--- .... ....|--- .... ....
....|..|C-4 LF.F ....|--- .... ....|--- .... 11.1
....|..|--- .... ....|--- .... ....|--- .... ....
....|..|C-4 LF.F ....|E-1 2F.7 ....|E-4 UFDF ....
....|..|E-1 2F.7 ....|--- .... ....|--- .... ....
....|..|C-4 LF.F ....|--- .... ....|--- .... ....
....|..|--- .... ....|--- .... ....|--- .... ....

[Pattern18]
 F#3|..|C-4 AF.F ....|F#1 2A.F ....|F#3 1FFF ....
 F#3|..|F#1 2A.F ....|--- .... ....|--- .... ....
....|..|C-4 LF.F ....|--- .... ....|B-3 1FFA ....
....|..|--- .... ....|--- .... ....|--- .... ....
 F#3|..|C-4 AF.F ....|F#1 2A.F ....|A#3 UFDF ....
 F#3|..|F#1 2A.F ....|--- .... ....|--- .... ....
....|..|C-4 LF.F ....|--- .... ....|--- .... 11.1
....|..|--- .... ....|--- .... ....|--- .... ....
....|..|C-4 BF.F ....|R-- .... ....|B-3 1FFF ....
....|..|R-- .... ....|--- .... ....|--- .... ....
....|..|C-4 LF.F ....|--- .... ....|--- .... ....
....|..|--- .... ....|--- .... ....|--- .... ....
 F#3|..|C-4 AF.F ....|F#1 2A.F ....|C#4 UFDF ....
 F#3|..|F#1 2A.F ....|--- .... ....|--- .... ....
....|..|C-4 LF.F ....|--- .... ....|B-3 1FF7 ....
....|..|--- .... ....|--- .... ....|--- .... ....
....|..|C-4 LF.F ....|R-- .... ....|D#4 1FFF ....
....|..|R-- .... ....|--- .... ....|--- .... ....
....|..|C-4 LF.F ....|--- .... ....|--- .... 11.1
....|..|--- .... ....|--- .... ....|--- .... ....
....|..|C-4 LF.F ....|R-- .... ....|C#4 1FFF ....
....|..|R-- .... ....|--- .... ....|--- .... ....
....|..|C-4 LF.F ....|--- .... ....|--- .... ....
....|..|--- .... ....|--- .... ....|--- .... ....
....|..|C-4 BF.F ....|F#1 2F.7 ....|B-3 1FFF ....
....|..|F#1 2F.7 ....|--- .... ....|--- .... ....
....|..|C-4 LF.F ....|--- .... ....|--- .... ....
....|..|--- .... ....|--- .... ....|--- .... ....
....|..|C-4 LF.F ....|F#1 2F.7 ....|A#3 1FFF ....
....|..|F#1 2F.7 ....|--- .... ....|--- .... ....
....|..|C-4 LF.F ....|--- .... ....|--- .... ....
....|..|--- .... ....|--- .... ....|--- .... ....
 B-3|..|C-4 AF.F ....|B-1 2A.F ....|B-3 UFDF ....
 B-3|..|B-1 2A.F ....|--- .... ....|--- .... ....
....|..|C-4 LF.F ....|--- .... ....|--- .... 11.1
....|..|--- .... ....|--- .... ....|--- .... ....
 B-3|..|C-4 AF.F ....|B-1 2A.F ....|F#4 1FFF ....
 B-3|..|B-1 2A.F ....|--- .... ....|--- .... ....
....|..|C-4 LF.F ....|--- .... ....|--- .... ....
....|..|--- .... ....|--- .... ....|--- .... ....
....|..|C-4 BF.F ....|R-- .... ....|B-3 1FFF ....
....|..|R-- .... ....|--- .... ....|--- .... ....
....|..|C-4 LF.F ....|--- .... ....|--- .... ....
....|..|--- .... ....|--- .... ....|--- .... ....
 B-3|..|C-4 AF.F ....|B-1 2A.F ....|B-3 1FFF ....
 B-3|..|B-1 2A.F ....|--- .... ....|--- .... ....
....|..|C-4 LF.F ....|--- .... ....|--- .... ....
....|..|--- .... ....|--- .... ....|--- .... ....
....|..|C-4 LF.F ....|B-4 3FEF ....|B-3 1FFF ....
....|..|R-- .... ....|--- .... ....|--- .... ....
....|..|C-4 LF.F ....|--- .... 11.1|--- .... ....
....|..|--- .... ....|--- .... ....|--- .... ....
....|..|C-4 LF.F ....|R-- .... ....|B-3 1FFF ....
....|..|R-- .... ....|--- .... ....|--- .... ....
....|..|C-4 LF.F ....|--- .... ....|--- .... ....
....|..|--- .... ....|--- .... ....|--- .... ....
....|..|C-4 BF.F ....|F#4 3FEF ....|B-3 1FFF ....
....|..|B-1 2F.7 ....|--- .... ....|--- .... ....
....|..|C-4 LF.F ....|--- .... 11.1|--- .... ....
....|..|--- .... ....|--- .... ....|--- .... ....
....|..|C-4 LF.F ....|B-1 2F.7 ....|B-3 1FFF ....
....|..|B-1 2F.7 ....|--- .... ....|--- .... ....
....|..|C-4 LF.F ....|--- .... 21.1|--- .... ....
....|..|--- .... ....|--- .... ....|--- .... ....

[Pattern19]
....|..|C-4 AF.F ....|E-4 3FEF ....|B-3 1FFF ....
 G#3|..|G#1 2A.F ....|--- .... ....|--- .... ....
....|..|C-4 LF.F ....|--- .... 11.1|--- .... ....
....|..|--- .... ....|--- .... ....|--- .... ....
....|..|C-4 AF.F ....|D#4 3FEF ....|B-3 1FFF ....
 G#3|..|G#1 2A.F ....|--- .... ....|--- .... ....
....|..|C-4 LF.F ....|--- .... ....|--- .... ....
....|..|--- .... ....|--- .... ....|--- .... ....
....|..|C-4 BF.F ....|B-4 3FE7 ....|B-3 1FFF ....
....|..|R-- .... ....|--- .... ....|--- .... ....
....|..|C-4 LF.F ....|--- .... ....|--- .... ....
....|..|--- .... ....|--- .... ....|--- .... ....
 G#3|..|C-4 AF.F ....|G#1 2A.F ....|B-3 1FFF ....
 G#3|..|G#1 2A.F ....|--- .... ....|--- .... ....
....|..|C-4 LF.F ....|--- .... ....|--- .... ....
....|..|--- .... ....|--- .... ....|--- .... ....
....|..|C-4 LF.F ....|F#4 3FE7 ....|B-3 1FFF ....
....|..|R-- .... ....|--- .... ....|--- .... ....
....|..|C-4 LF.F ....|--- .... ....|--- .... ....
....|..|--- .... ....|--- .... ....|--- .... ....
....|..|C-4 LF.F ....|R-- .... ....|D#4 UFDF ....
....|..|R-- .... ....|--- .... ....|--- .... ....
....|..|C-4 LF.F ....|--- .... ....|--- .... ....
....|..|--- .... ....|--- .... ....|--- .... ....
....|..|C-4 BF.F ....|E-4 3FE7 ....|D#4 1FFF ....
....|..|G#1 2F.7 ....|--- .... ....|--- .... ....
....|..|C-4 LF.F ....|--- .... ....|--- .... ....
....|..|--- .... ....|--- .... ....|--- .... ....
....|..|C-4 LF.F ....|D#4 3FE7 ....|C#4 1FFF ....
....|..|G#1 2F.7 ....|--- .... ....|--- .... ....
....|..|C-4 LF.F ....|--- .... ....|--- .... ....
....|..|--- .... ....|--- .... ....|--- .... ....
 E-3|..|C-4 AF.F ....|E-1 2A.F ....|E-3 UFDF ....
 E-3|..|E-1 2A.F ....|--- .... ....|--- .... ....
....|..|C-4 LF.F ....|--- .... ....|--- .... ....
....|..|--- .... ....|--- .... ....|--- .... ....
 E-3|..|C-4 AF.F ....|E-1 2A.F ....|F#4 1FFF ....
 E-3|..|E-1 2A.F ....|--- .... ....|--- .... ....
....|..|C-4 LF.F ....|--- .... ....|--- .... ....
....|..|--- .... ....|--- .... ....|--- .... ....
....|..|C-4 BF.F ....|R-- .... ....|B-3 1FFF ....
....|..|R-- .... ....|--- .... ....|--- .... ....
....|..|C-4 LF.F ....|--- .... ....|--- .... ....
....|..|--- .... ....|--- .... ....|--- .... ....
 E-3|..|C-4 AF.F ....|E-1 2A.F ....|B-3 1FFF ....
 E-3|..|E-1 2A.F ....|--- .... ....|--- .... ....
....|..|C-4 LF.F ....|--- .... ....|--- .... ....
....|..|--- .... ....|--- .... ....|--- .... ....
....|..|C-4 LF.F ....|R-- .... ....|B-3 1FFF ....
....|..|R-- .... ....|--- .... ....|--- .... ....
....|..|C-4 LF.F ....|--- .... ....|--- .... ....
....|..|--- .... ....|--- .... ....|--- .... ....
....|..|C-4 LF.F ....|R-- .... ....|B-3 1FFF ....
....|..|R-- .... ....|--- .... ....|--- .... ....
....|..|C-4 LF.F ....|--- .... ....|--- .... ....
....|..|--- .... ....|--- .... ....|--- .... ....
....|..|C-4 BF.F ....|E-1 2F.7 ....|B-3 1FFF ....
....|..|E-1 2F.7 ....|--- .... ....|--- .... ....
....|..|C-4 LF.F ....|--- .... ....|--- .... ....
....|..|--- .... ....|--- .... ....|--- .... ....
....|..|C-4 LF.F ....|E-1 2F.7 ....|E-4 UFDF ....
....|..|E-1 2F.7 ....|--- .... ....|--- .... ....
....|..|C-4 LF.F ....|--- .... ....|--- .... ....
....|..|--- .... ....|--- .... ....|--- .... ....

[Pattern20]
 F#3|..|C-4 AF.F ....|F#1 2A.F ....|F#3 1FFF ....
 F#3|..|F#1 2A.F ....|--- .... ....|--- .... ....
....|..|C-4 LF.F ....|--- .... ....|--- .... ....
....|..|--- .... ....|--- .... ....|--- .... ....
 F#3|..|C-4 AF.F ....|F#1 2A.F ....|A#3 UFDF ....
 F#3|..|F#1 2A.F ....|--- .... ....|--- .... ....
....|..|C-4 LF.F ....|--- .... ....|--- .... ....
....|..|--- .... ....|--- .... ....|--- .... ....
....|..|C-4 BF.F ....|R-- .... ....|C#4 1FFF ....
....|..|R-- .... ....|--- .... ....|--- .... ....
....|..|C-4 LF.F ....|--- .... ....|--- .... ....
....|..|--- .... ....|--- .... ....|--- .... ....
 F#3|..|C-4 AF.F ....|F#1 2A.F ....|C#4 UFDF ....
 F#3|..|F#1 2A.F ....|--- .... ....|--- .... ....
....|..|C-4 LF.F ....|--- .... ....|--- .... ....
....|..|--- .... ....|--- .... ....|--- .... ....
....|..|C-4 LF.F ....|R-- .... ....|D#4 1FFF ....
....|..|R-- .... ....|--- .... ....|--- .... ....
....|..|C-4 LF.F ....|--- .... ....|--- .... ....
....|..|--- .... ....|--- .... ....|--- .... ....
....|..|C-4 LF.F ....|R-- .... ....|D#4 UFDF ....
....|..|R-- .... ....|--- .... ....|--- .... ....
....|..|C-4 LF.F ....|--- .... ....|--- .... ....
....|..|--- .... ....|--- .... ....|--- .... ....
....|..|C-4 BF.F ....|F#1 2F.7 ....|C#4 1FFF ....
....|..|F#1 2F.7 ....|--- .... ....|--- .... ....
....|..|C-4 LF.F ....|--- .... ....|--- .... ....
....|..|--- .... ....|--- .... ....|--- .... ....
....|..|C-4 LF.F ....|F#1 2F.7 ....|C#4 UFDF ....
....|..|F#1 2F.7 ....|--- .... ....|--- .... ....
....|..|C-4 LF.F ....|--- .... ....|--- .... ....
....|..|--- .... ....|--- .... ....|--- .... ....
....|..|C-4 AF.F ....|F#4 3FEF ....|B-3 1FFF ....
 B-3|..|B-1 2A.F ....|--- .... ....|--- .... ....
....|..|C-4 LF.F ....|--- .... 11.1|--- .... ....
....|..|--- .... ....|--- .... ....|--- .... ....
 B-3|..|C-4 AF.F ....|B-1 2A.F ....|B-3 1FFF ....
 B-3|..|B-1 2A.F ....|--- .... ....|--- .... ....
....|..|C-4 LF.F ....|--- .... ....|--- .... ....
....|..|--- .... ....|--- .... ....|--- .... ....
....|..|C-4 BF.F ....|R-- .... ....|B-3 1FFF ....
....|..|R-- .... ....|--- .... ....|--- .... ....
....|..|C-4 LF.F ....|--- .... ....|--- .... ....
....|..|--- .... ....|--- .... ....|--- .... ....
 B-3|..|C-4 AF.F ....|B-1 2A.F ....|B-3 1FFF ....
 B-3|..|B-1 2A.F ....|--- .... ....|--- .... ....
....|..|C-4 LF.F ....|--- .... ....|--- .... ....
....|..|--- .... ....|--- .... ....|--- .... ....
....|..|C-4 LF.F ....|R-- .... ....|F#4 1FFF ....
....|..|R-- .... ....|--- .... ....|--- .... ....
....|..|C-4 LF.F ....|--- .... ....|--- .... ....
....|..|--- .... ....|--- .... ....|--- .... ....
....|..|C-4 LF.F ....|D#5 2F.F ....|F#4 UFDF ....
....|..|R-- .... ....|--- .... ....|--- .... ....
....|..|C-4 LF.F ....|--- .... ....|--- .... ....
....|..|--- .... ....|--- .... ....|--- .... ....
....|..|C-4 BF.F ....|C#5 2F.F 31.8|B-3 1FFF ....
....|..|B-1 2F.7 ....|--- .... ....|--- .... ....
....|..|C-4 LF.F ....|--- .... ....|--- .... ....
....|..|--- .... ....|--- .... ....|--- .... ....
....|..|C-4 LF.F ....|D#5 2F.F 31.8|D#4 UFDF ....
....|..|B-1 2F.7 ....|--- .... ....|--- .... ....
....|..|C-4 LF.F ....|--- .... ....|--- .... ....
....|..|--- .... ....|--- .... ....|--- .... ....

[Pattern21]
 G#3|..|C-4 AF.F ....|G#1 2A.F ....|B-3 1FFF ....
 G#3|..|G#1 2A.F ....|--- .... ....|--- .... ....
....|..|C-4 LF.F ....|--- .... ....|--- .... ....
....|..|--- .... ....|--- .... ....|--- .... ....
 G#3|..|C-4 AF.F ....|G#1 2A.F ....|B-3 1F.F ....
 G#3|..|G#1 2A.F ....|--- .... ....|--- .... ....
....|..|C-4 LF.F ....|--- .... ....|--- .... 11.1
....|..|--- .... ....|--- .... ....|--- .... ....
....|..|C-4 BF.F ....|R-- .... ....|B-3 1FFF ....
....|..|R-- .... ....|--- .... ....|--- .... ....
....|..|C-4 LF.F ....|--- .... ....|--- .... ....
....|..|--- .... ....|--- .... ....|--- .... ....
 G#3|..|C-4 AF.F ....|G#1 2A.F ....|B-3 1FFF ....
 G#3|..|G#1 2A.F ....|--- .... ....|--- .... ....
....|..|C-4 LF.F ....|--- .... ....|--- .... 11.1
....|..|--- .... ....|--- .... ....|--- .... ....
....|..|C-4 LF.F ....|C#5 3FE7 ....|F#4 1FFF ....
....|..|R-- .... ....|--- .... ....|--- .... ....
....|..|C-4 LF.F ....|--- .... ....|--- .... ....
....|..|--- .... ....|--- .... ....|--- .... ....
....|..|C-4 LF.F ....|D#5 3FEF ....|D#4 UFDF ....
....|..|R-- .... ....|--- .... ....|--- .... ....
....|..|C-4 LF.F ....|--- .... 11.1|--- .... ....
....|..|--- .... ....|--- .... ....|--- .... ....
....|..|C-4 BF.F ....|C#5 3FEF ....|B-3 1FFF ....
....|..|G#1 2F.7 ....|--- .... ....|--- .... ....
....|..|C-4 LF.F ....|--- .... 11.1|--- .... 11.1
....|..|--- .... ....|--- .... ....|--- .... ....
....|..|C-4 LF.F ....|D#5 3FEF ....|C#4 UFDF ....
....|..|G#1 2F.7 ....|--- .... ....|--- .... ....
....|..|C-4 LF.F ....|--- .... ....|--- .... ....
....|..|--- .... ....|--- .... ....|--- .... ....
 E-3|..|C-4 AF.F ....|E-1 2A.F ....|E-3 UFDF ....
 E-3|..|E-1 2A.F ....|--- .... ....|--- .... ....
....|..|C-4 LF.F ....|--- .... ....|--- .... ....
....|..|--- .... ....|--- .... ....|--- .... ....
 E-3|..|C-4 AF.F ....|E-1 2A.F ....|D#4 1FFF ....
 E-3|..|E-1 2A.F ....|--- .... ....|--- .... ....
....|..|C-4 LF.F ....|--- .... ....|D#4 1FFF ....
....|..|--- .... ....|--- .... ....|--- .... ....
....|..|C-4 BF.F ....|R-- .... ....|D#4 1FFF ....
....|..|R-- .... ....|--- .... ....|--- .... ....
....|..|C-4 LF.F ....|--- .... ....|--- .... 11.1
....|..|--- .... ....|--- .... ....|--- .... ....
 E-3|..|C-4 AF.F ....|E-1 2A.F ....|D#4 1FFF ....
 E-3|..|E-1 2A.F ....|--- .... ....|--- .... ....
....|..|C-4 LF.F ....|--- .... ....|--- .... ....
....|..|--- .... ....|--- .... ....|--- .... ....
....|..|C-4 LF.F ....|F#4 3FEF ....|D#4 1FFF ....
....|..|R-- .... ....|--- .... ....|--- .... ....
....|..|C-4 LF.F ....|--- .... ....|D#4 1FFA ....
....|..|--- .... ....|--- .... ....|--- .... ....
....|..|C-4 LF.F ....|D#5 3FE7 ....|C#4 UFDF ....
....|..|R-- .... ....|--- .... ....|--- .... ....
....|..|C-4 LF.F ....|F#4 3FEF ....|--- .... 11.1
....|..|--- .... ....|--- .... ....|--- .... ....
....|..|C-4 BF.F ....|F#4 3FEF ....|B-3 1FFF ....
....|..|E-1 2F.7 ....|--- .... ....|--- .... ....
....|..|C-4 LF.F ....|--- .... ....|--- .... ....
....|..|--- .... ....|--- .... ....|--- .... ....
....|..|C-4 LF.F ....|E-1 2F.7 ....|E-4 UFDF ....
....|..|E-1 2F.7 ....|--- .... ....|--- .... ....
....|..|C-4 LF.F ....|--- .... ....|D#4 1FF7 ....
....|..|--- .... ....|--- .... ....|--- .... ....

[Pattern22]
....|..|C-4 AF.F ....|F#4 3FEF ....|E-4 1FFF ....
 F#3|..|F#1 2A.F ....|--- .... ....|--- .... ....
....|..|C-4 LF.F ....|F#4 3FEA ....|--- .... 11.1
....|..|--- .... ....|--- .... ....|--- .... ....
 F#3|..|C-4 AF.F ....|F#1 2A.F ....|D#4 1FFF ....
 F#3|..|F#1 2A.F ....|--- .... ....|--- .... ....
....|..|C-4 LF.F ....|--- .... ....|--- .... ....
....|..|--- .... ....|--- .... ....|--- .... ....
....|..|C-4 BF.F ....|F#4 3FE7 ....|F#3 UFDF ....
....|..|R-- .... ....|--- .... ....|--- .... ....
....|..|C-4 LF.F ....|--- .... ....|--- .... 11.1
....|..|--- .... ....|--- .... ....|--- .... ....
 F#3|..|C-4 AF.F ....|F#1 2A.F ....|B-3 1FFF ....
 F#3|..|F#1 2A.F ....|--- .... ....|--- .... ....
....|..|C-4 LF.F ....|F#4 3FE7 ....|--- .... 11.1
....|..|--- .... ....|--- .... ....|--- .... ....
....|..|C-4 LF.F ....|B-4 3FEF ....|F#3 UFDF ....
....|..|R-- .... ....|--- .... ....|--- .... ....
....|..|C-4 LF.F ....|--- .... ....|--- .... ....
....|..|--- .... ....|--- .... ....|--- .... ....
....|..|C-4 LF.F ....|R-- .... ....|B-3 1FFF ....
....|..|R-- .... ....|--- .... ....|--- .... ....
....|..|C-4 LF.F ....|--- .... ....|--- .... 11.1
....|..|--- .... ....|--- .... ....|--- .... ....
....|..|C-4 BF.F ....|F#4 3FE7 ....|F#3 UFDF ....
....|..|F#1 2F.7 ....|--- .... ....|--- .... ....
....|..|C-4 LF.F ....|--- .... ....|--- .... ....
....|..|--- .... ....|--- .... ....|--- .... ....
....|..|C-4 LF.F ....|F#1 2F.7 ....|E-4 1FFF ....
....|..|F#1 2F.7 ....|--- .... ....|--- .... ....
....|..|C-4 LF.F ....|--- .... ....|--- .... ....
....|..|--- .... ....|--- .... ....|--- .... ....
....|..|C-4 LF.F ....|C#5 3FEF ....|F#4 1FFF ....
....|..|R-- .... ....|--- .... ....|--- .... ....
....|..|C-4 LF.7 ....|--- .... ....|--- .... ....
....|..|--- .... ....|--- .... ....|--- .... ....
....|..|C-4 AF.7 ....|F#1 2F.7 ....|B-3 1FF7 ....
....|..|F#1 2F.7 ....|--- .... ....|--- .... ....
....|..|C-4 LF.7 ....|--- .... ....|--- .... ....
....|..|--- .... ....|--- .... ....|--- .... ....
....|..|C-4 LF.7 ....|B-4 3FE7 ....|F#3 UFD7 ....
....|..|R-- .... ....|--- .... ....|--- .... ....
....|..|C-4 LF.7 ....|--- .... ....|--- .... ....
....|..|--- .... ....|--- .... ....|--- .... ....
....|..|C-4 LF.7 ....|C#5 3FEF ....|B-3 1FF7 ....
....|..|--- .... ....|--- .... ....|--- .... ....
....|..|C-4 LF.7 ....|--- .... ....|--- .... ....
....|..|--- .... ....|--- .... ....|--- .... ....
....|..|C-4 BF.7 ....|C#5 3FEF ....|F#3 UFD7 ....
....|..|--- .... ....|--- .... ....|--- .... ....
....|..|C-4 LF.7 ....|--- .... ....|--- .... ....
....|..|--- .... ....|--- .... ....|--- .... ....
....|..|C-4 LF.7 ....|--- .... ....|E-4 1FF7 ....
....|..|--- .... ....|--- .... ....|--- .... ....
....|..|C-4 LF.7 ....|--- .... ....|--- .... ....
....|..|--- .... ....|--- .... ....|--- .... ....
....|..|C-4 LF.7 ....|F#5 3FEF ....|F#4 1FFF ....
....|..|--- .... ....|--- .... ....|--- .... ....
....|..|--- .... ....|--- .... 11.1|--- .... ....
....|..|--- .... ....|--- .... ....|--- .... ....
....|..|--- .... ....|C#5 3FEA ....|--- .... ....
....|..|--- .... ....|--- .... ....|--- .... ....
....|..|--- .... ....|--- .... 11.1|--- .... ....
....|..|--- .... ....|--- .... ....|--- .... ....

[Pattern23]
....|..|C-4 AF.F ....|D#5 3FEF ....|D#4 1FFF ....
 B-3|..|B-1 2A.F ....|--- .... ....|--- .... ....
....|..|C-4 LF.F ....|--- .... 11.1|--- .... ....
....|..|--- .... ....|--- .... ....|--- .... ....
 B-3|..|C-4 AF.F ....|B-1 2A.F ....|F#4 UFDF ....
 B-3|..|B-1 2A.F ....|--- .... ....|--- .... ....
....|..|C-4 LF.F ....|--- .... ....|--- .... ....
....|..|--- .... ....|--- .... ....|--- .... ....
....|..|C-4 BF.F ....|C#5 3FEF ....|C#4 1FFF ....
....|..|R-- .... ....|--- .... ....|--- .... ....
....|..|C-4 LF.F ....|--- .... 11.1|--- .... ....
....|..|--- .... ....|--- .... ....|--- .... ....
 B-3|..|C-4 AF.F ....|B-1 2A.F ....|D#4 UFDF ....
 B-3|..|B-1 2A.F ....|--- .... ....|--- .... ....
....|..|C-4 LF.F ....|--- .... ....|--- .... ....
....|..|--- .... ....|--- .... ....|--- .... ....
....|..|C-4 LF.F ....|D#5 3FEF ....|D#4 1FFF ....
....|..|R-- .... ....|--- .... ....|--- .... ....
....|..|C-4 LF.F ....|--- .... 11.1|--- .... ....
....|..|--- .... ....|--- .... ....|--- .... ....
....|..|C-4 LF.F ....|C#5 3FEA ....|F#4 UFDF ....
....|..|R-- .... ....|--- .... ....|--- .... ....
....|..|C-4 LF.F ....|--- .... 11.1|--- .... ....
....|..|--- .... ....|--- .... ....|--- .... ....
....|..|C-4 RF.F ....|C#5 3FEF ....|C#4 1FFF ....
....|..|B-1 2F.7 ....|--- .... ....|--- .... ....
....|..|C-4 LF.F ....|--- .... ....|--- .... ....
....|..|--- .... ....|--- .... ....|--- .... ....
....|..|C-4 LF.F ....|B-1 2F.7 ....|D#4 UFDF ....
....|..|B-1 2F.7 ....|--- .... ....|--- .... ....
....|..|C-4 LF.F ....|--- .... ....|--- .... ....
....|..|--- .... ....|--- .... ....|--- .... ....
....|..|C-4 AF.F ....|B-4 3FEF ....|D#4 1FFF ....
 G#3|..|G#1 2A.F ....|--- .... ....|--- .... ....
....|..|C-4 LF.F ....|--- .... 11.1|D#4 1FFF ....
....|..|--- .... ....|--- .... ....|--- .... ....
 G#3|..|C-4 AF.F ....|G#1 2A.F ....|C#4 1FFF ....
 G#3|..|G#1 2A.F ....|--- .... ....|--- .... ....
....|..|C-4 LF.F ....|--- .... ....|--- .... ....
....|..|--- .... ....|--- .... ....|--- .... ....
....|..|C-4 BF.F ....|B-4 3FEF ....|D#4 1FFF ....
....|..|R-- .... ....|--- .... ....|--- .... ....
....|..|C-4 LF.F ....|--- .... 11.1|--- .... ....
....|..|--- .... ....|--- .... ....|--- .... ....
 G#3|..|C-4 AF.F ....|G#1 2A.F ....|C#4 1FFF ....
 G#3|..|G#1 2A.F ....|--- .... ....|--- .... ....
....|..|C-4 LF.F ....|--- .... ....|D#4 1FFA ....
....|..|--- .... ....|--- .... ....|--- .... ....
....|..|C-4 LF.F ....|D#5 3FEF ....|D#4 1FFF ....
....|..|R-- .... ....|--- .... ....|--- .... ....
....|..|C-4 LF.F ....|--- .... 11.1|--- .... ....
....|..|--- .... ....|--- .... ....|--- .... ....
....|..|C-4 LF.F ....|B-4 3FEA ....|D#4 UFDF ....
....|..|R-- .... ....|--- .... ....|--- .... ....
....|..|C-4 LF.F ....|--- .... ....|--- .... ....
....|..|--- .... ....|--- .... ....|--- .... ....
....|..|C-4 RF.F ....|C#5 3FEF ....|C#4 1FFF ....
....|..|G#1 2F.7 ....|--- .... ....|--- .... ....
....|..|C-4 LF.F ....|--- .... 11.1|D#4 1FF7 ....
....|..|--- .... ....|--- .... ....|--- .... ....
....|..|C-4 LF.F ....|G#1 2F.7 ....|C#4 UFDF ....
....|..|G#1 2F.7 ....|--- .... ....|--- .... ....
....|..|C-4 LF.F ....|--- .... ....|--- .... ....
....|..|--- .... ....|--- .... ....|--- .... ....

[Pattern24]
 E-3|..|C-4 AF.F ....|E-1 2A.F ....|E-3 UFDF ....
 E-3|..|E-1 2A.F ....|--- .... ....|--- .... ....
....|..|C-4 LF.F ....|--- .... ....|--- .... ....
....|..|--- .... ....|--- .... ....|--- .... ....
....|..|C-4 AF.F ....|B-4 3FEF ....|B-3 1FFF ....
 E-3|..|E-1 2A.F ....|--- .... ....|--- .... ....
....|..|C-4 LF.F ....|B-4 3F.F ....|B-3 1FFF ....
....|..|--- .... ....|--- .... ....|--- .... ....
....|..|C-4 BF.F ....|B-4 3F.F ....|B-3 1FFF ....
....|..|R-- .... ....|--- .... ....|--- .... ....
....|..|C-4 LF.F ....|--- .... 11.1|--- .... ....
....|..|--- .... ....|--- .... ....|--- .... ....
....|..|C-4 AF.F ....|B-4 3FEF ....|B-3 1FFF ....
 E-3|..|E-1 2A.F ....|--- .... ....|--- .... ....
....|..|C-4 LF.F ....|--- .... ....|--- .... ....
....|..|--- .... ....|--- .... ....|--- .... ....
....|..|C-4 LF.F ....|B-4 3FEF ....|B-3 1FFF ....
....|..|R-- .... ....|--- .... ....|--- .... ....
....|..|C-4 LF.F ....|B-4 3FEF ....|B-3 1FFF ....
....|..|--- .... ....|--- .... ....|--- .... ....
....|..|C-4 LF.F ....|B-4 3FEF ....|B-3 1FFF ....
....|..|R-- .... ....|--- .... ....|--- .... ....
....|..|C-4 LF.F ....|--- .... 11.1|--- .... ....
....|..|--- .... ....|--- .... ....|--- .... ....
....|..|C-4 RF.F ....|B-4 3FEF ....|B-3 1FFF ....
....|..|E-1 2F.7 ....|--- .... ....|--- .... ....
....|..|C-4 LF.F ....|--- .... 11.1|--- .... ....
....|..|--- .... ....|--- .... ....|--- .... ....
....|..|C-4 LF.F ....|B-4 3FEF ....|B-3 1FFF ....
....|..|E-1 2F.7 ....|--- .... ....|--- .... ....
....|..|C-4 LF.F ....|B-4 3FEF ....|B-3 1FFF ....
....|..|--- .... ....|--- .... ....|--- .... ....
....|..|C-4 AF.F ....|B-4 3FEF ....|F#3 1FFF ....
 F#3|..|F#1 2A.F ....|--- .... ....|--- .... ....
....|..|C-4 LF.F ....|--- .... 11.1|--- .... ....
....|..|--- .... ....|--- .... ....|--- .... ....
 F#3|..|C-4 AF.F ....|F#1 2A.F ....|A#3 UFDF ....
 F#3|..|F#1 2A.F ....|--- .... ....|--- .... ....
....|..|C-4 LF.F ....|--- .... ....|--- .... ....
....|..|--- .... ....|--- .... ....|--- .... ....
....|..|C-4 BF.F ....|B-4 3FEF ....|C#4 1FFF ....
....|..|R-- .... ....|--- .... ....|--- .... ....
....|..|C-4 LF.F ....|B-4 3FE7 ....|B-3 1FF7 ....
....|..|--- .... ....|--- .... ....|--- .... ....
 F#3|..|C-4 AF.F ....|F#1 2A.F ....|C#4 UFDF ....
 F#3|..|F#1 2A.F ....|--- .... ....|--- .... ....
....|..|C-4 LF.F ....|--- .... ....|--- .... ....
....|..|--- .... ....|--- .... ....|--- .... ....
....|..|C-4 LF.F ....|B-4 3FEF ....|F#3 1FFF ....
....|..|R-- .... ....|--- .... ....|--- .... ....
....|..|C-4 LF.F ....|--- .... ....|--- .... ....
....|..|--- .... ....|--- .... ....|--- .... ....
....|..|C-4 LF.F ....|B-4 3FE7 ....|D#4 UFDF ....
....|..|R-- .... ....|--- .... ....|--- .... ....
....|..|C-4 LF.F ....|B-4 3FE7 ....|B-3 1FF7 ....
....|..|--- .... ....|--- .... ....|--- .... ....
....|..|C-4 RF.F ....|B-4 3FEF ....|C#4 1FFF ....
....|..|F#1 2F.7 ....|--- .... ....|--- .... ....
....|..|C-4 LF.F ....|--- .... 11.1|--- .... ....
....|..|--- .... ....|--- .... ....|--- .... ....
....|..|C-4 LF.F ....|F#1 2F.7 ....|C#4 UFDF ....
....|..|F#1 2F.7 ....|--- .... ....|--- .... ....
....|..|C-4 LF.F ....|--- .... ....|--- .... ....
....|..|--- .... ....|--- .... ....|--- .... ....

[Pattern25]
....|..|C-4 AF.F ....|D#5 3FEF ....|D#4 1FFF ....
 B-3|..|B-1 2A.F ....|--- .... ....|--- .... ....
....|..|C-4 LF.F ....|--- .... 11.1|--- .... ....
....|..|--- .... ....|--- .... ....|--- .... ....
 B-3|..|C-4 AF.F ....|B-1 2A.F ....|F#4 UFDF ....
 B-3|..|B-1 2A.F ....|--- .... ....|--- .... ....
....|..|C-4 LF.F ....|--- .... ....|--- .... ....
....|..|--- .... ....|--- .... ....|--- .... ....
....|..|C-4 BF.F ....|C#5 3FEF ....|C#4 1FFF ....
....|..|R-- .... ....|--- .... ....|--- .... ....
....|..|C-4 LF.F ....|--- .... ....|--- .... ....
....|..|--- .... ....|--- .... ....|--- .... ....
 B-3|..|C-4 AF.F ....|B-1 2A.F ....|D#4 UFDF ....
 B-3|..|B-1 2A.F ....|--- .... ....|--- .... ....
....|..|C-4 LF.F ....|--- .... ....|--- .... ....
....|..|--- .... ....|--- .... ....|--- .... ....
....|..|C-4 LF.F ....|D#5 3FEF ....|D#4 1FFF ....
....|..|R-- .... ....|--- .... ....|--- .... ....
....|..|C-4 LF.F ....|--- .... 11.1|--- .... ....
....|..|--- .... ....|--- .... ....|--- .... ....
....|..|C-4 LF.F ....|C#5 3FEA ....|F#4 UFDF ....
....|..|R-- .... ....|--- .... ....|--- .... ....
....|..|C-4 LF.F ....|--- .... ....|--- .... ....
....|..|--- .... ....|--- .... ....|--- .... ....
....|..|C-4 RF.F ....|C#5 3FEF ....|C#4 1FFF ....
....|..|B-1 2F.7 ....|--- .... ....|--- .... ....
....|..|C-4 LF.F ....|--- .... ....|--- .... ....
....|..|--- .... ....|--- .... ....|--- .... ....
....|..|C-4 LF.F ....|B-1 2F.7 ....|D#4 UFDF ....
....|..|B-1 2F.7 ....|--- .... ....|--- .... ....
....|..|C-4 LF.F ....|--- .... ....|--- .... ....
....|..|--- .... ....|--- .... ....|--- .... ....
....|..|C-4 AF.F ....|B-4 3FEF ....|D#4 1FFF ....
 G#3|..|G#1 2A.F ....|--- .... ....|--- .... ....
....|..|C-4 LF.F ....|--- .... 11.1|--- .... ....
....|..|--- .... ....|--- .... ....|--- .... ....
 G#3|..|C-4 AF.F ....|G#1 2A.F ....|C#4 1FFF ....
 G#3|..|G#1 2A.F ....|--- .... ....|--- .... ....
....|..|C-4 LF.F ....|--- .... ....|--- .... ....
....|..|--- .... ....|--- .... ....|--- .... ....
....|..|C-4 BF.F ....|B-4 3FEF ....|D#4 1FFF ....
....|..|R-- .... ....|--- .... ....|--- .... ....
....|..|C-4 LF.F ....|--- .... ....|--- .... ....
....|..|--- .... ....|--- .... ....|--- .... ....
 G#3|..|C-4 AF.F ....|G#1 2A.F ....|C#4 1FFF ....
 G#3|..|G#1 2A.F ....|--- .... ....|--- .... ....
....|..|C-4 LF.F ....|--- .... ....|--- .... ....
....|..|--- .... ....|--- .... ....|--- .... ....
....|..|C-4 LF.F ....|D#5 3FEF ....|D#4 1FFF ....
....|..|R-- .... ....|--- .... ....|--- .... ....
....|..|C-4 LF.F ....|--- .... 11.1|--- .... ....
....|..|--- .... ....|--- .... ....|--- .... ....
....|..|C-4 LF.F ....|B-4 3FEA ....|D#4 UFDF ....
....|..|R-- .... ....|--- .... ....|--- .... ....
....|..|C-4 LF.F ....|--- .... ....|--- .... ....
....|..|--- .... ....|--- .... ....|--- .... ....
....|..|C-4 RF.F ....|C#5 3FEF ....|C#4 1FFF ....
....|..|G#1 2F.7 ....|--- .... ....|--- .... ....
....|..|C-4 LF.F ....|--- .... ....|--- .... ....
....|..|--- .... ....|--- .... ....|--- .... ....
....|..|C-4 LF.F ....|G#1 2F.7 ....|C#4 UFDF ....
....|..|G#1 2F.7 ....|--- .... ....|--- .... ....
....|..|C-4 LF.F ....|--- .... ....|--- .... ....
....|..|--- .... ....|--- .... ....|--- .... ....

[Pattern26]
 E-3|..|C-4 AF.F ....|E-1 2A.F ....|E-3 UFDF ....
 E-3|..|E-1 2A.F ....|--- .... ....|--- .... ....
....|..|C-4 LF.F ....|--- .... 11.1|--- .... ....
....|..|--- .... ....|--- .... ....|--- .... ....
....|..|C-4 AF.F ....|B-4 3FEF ....|B-3 1FFF ....
 E-3|..|E-1 2A.F ....|--- .... ....|--- .... ....
....|..|C-4 LF.F ....|B-4 3FEF ....|B-3 1F.F ....
....|..|--- .... ....|--- .... ....|--- .... ....
....|..|C-4 BF.F ....|B-4 3FEF ....|B-3 1F.F ....
....|..|R-- .... ....|--- .... ....|--- .... ....
....|..|C-4 LF.F ....|--- .... ....|--- .... 11.1
....|..|--- .... ....|--- .... ....|--- .... ....
....|..|C-4 AF.F ....|B-4 3FEF ....|B-3 1FFF ....
 E-3|..|E-1 2A.F ....|--- .... ....|--- .... ....
....|..|C-4 LF.F ....|--- .... ....|--- .... ....
....|..|--- .... ....|--- .... ....|--- .... ....
....|..|C-4 LF.F ....|B-4 3FEF ....|B-3 1FFF ....
....|..|R-- .... ....|--- .... ....|--- .... ....
....|..|C-4 LF.F ....|B-4 3FEA ....|B-3 1FFA ....
....|..|--- .... ....|--- .... ....|--- .... ....
....|..|C-4 LF.F ....|B-4 3FEF ....|B-3 1FFF ....
....|..|R-- .... ....|--- .... ....|--- .... ....
....|..|C-4 LF.F ....|--- .... ....|--- .... 11.1
....|..|--- .... ....|--- .... ....|--- .... ....
....|..|C-4 RF.F ....|B-4 3FEF ....|B-3 1FFF ....
....|..|E-1 2F.7 ....|--- .... ....|--- .... ....
....|..|C-4 LF.F ....|--- .... ....|--- .... ....
....|..|--- .... ....|--- .... ....|--- .... ....
....|..|C-4 LF.F ....|B-4 3FEF ....|B-3 1FFF ....
....|..|E-1 2F.7 ....|--- .... ....|--- .... ....
....|..|C-4 LF.F ....|B-4 3FE7 ....|B-3 1FF7 ....
....|..|--- .... ....|--- .... ....|--- .... ....
....|..|C-4 AF.F ....|B-4 3FEF ....|D#4 1FFF ....
 F#3|..|F#1 2A.F ....|--- .... ....|--- .... ....
....|..|C-4 LF.F ....|--- .... ....|--- .... ....
....|..|--- .... ....|--- .... ....|--- .... ....
 F#3|..|C-4 AF.F ....|F#1 2A.F ....|A#3 UFDF ....
 F#3|..|F#1 2A.F ....|--- .... ....|--- .... ....
....|..|C-4 LF.F ....|--- .... ....|--- .... 11.1
....|..|--- .... ....|--- .... ....|--- .... ....
....|..|C-4 BF.F ....|B-4 3FEF ....|C#4 1FFF ....
....|..|R-- .... ....|--- .... ....|--- .... ....
....|..|C-4 LF.F ....|--- .... ....|--- .... ....
....|..|--- .... ....|--- .... ....|--- .... ....
 F#3|..|C-4 AF.F ....|F#1 2A.F ....|C#4 UFDF ....
 F#3|..|F#1 2A.F ....|--- .... ....|--- .... ....
....|..|C-4 LF.F ....|--- .... ....|--- .... ....
....|..|--- .... ....|--- .... ....|--- .... ....
....|..|C-4 LF.F ....|B-4 3FEF ....|D#4 1FFF ....
....|..|R-- .... ....|--- .... ....|--- .... ....
....|..|C-4 LF.F ....|--- .... 11.1|--- .... ....
....|..|--- .... ....|--- .... ....|--- .... ....
....|..|C-4 LF.F ....|B-4 3FE7 ....|D#4 UFDF ....
....|..|R-- .... ....|--- .... ....|--- .... ....
....|..|C-4 LF.F ....|--- .... ....|--- .... ....
....|..|--- .... ....|--- .... ....|--- .... ....
....|..|C-4 RF.F ....|B-4 3FEF ....|C#4 1FFF ....
....|..|F#1 2F.7 ....|--- .... ....|--- .... ....
....|..|C-4 LF.F ....|--- .... ....|--- .... ....
....|..|--- .... ....|--- .... ....|--- .... ....
....|..|C-4 LF.F ....|F#1 2F.7 ....|C#4 UFDF ....
....|..|F#1 2F.7 ....|--- .... ....|--- .... ....
....|..|C-4 LF.F ....|--- .... ....|--- .... ....
....|..|--- .... ....|--- .... ....|--- .... ....

[Pattern27]
....|..|C-4 AF.F ....|B-3 3F.F ....|B-3 1FFF ....
 B-3|..|B-1 2A.F ....|--- .... ....|--- .... ....
....|..|C-4 LF.F ....|--- .... 11.1|--- .... ....
....|..|--- .... ....|--- .... ....|--- .... ....
....|..|C-4 AF.F ....|B-3 3F.F ....|B-3 1FFF ....
 B-3|..|B-1 2A.F ....|--- .... ....|--- .... ....
....|..|C-4 LF.F ....|--- .... ....|--- .... ....
....|..|--- .... ....|--- .... ....|--- .... ....
....|..|C-4 BF.F ....|B-3 3F.F ....|B-3 1FFF ....
....|..|R-- .... ....|--- .... ....|--- .... ....
....|..|C-4 LF.F ....|R-- .... ....|R-- .... ....
....|..|--- .... ....|--- .... ....|--- .... ....
....|..|C-4 AF.F ....|B-3 3F.F ....|B-3 1FFF ....
 B-3|..|B-1 2A.F ....|--- .... ....|--- .... ....
....|..|C-4 LF.F ....|--- .... 11.1|--- .... ....
....|..|--- .... ....|--- .... ....|--- .... ....
....|..|C-4 LF.F ....|B-3 3F.F ....|B-3 1FFF ....
....|..|R-- .... ....|--- .... ....|--- .... ....
....|..|C-4 LF.F ....|--- .... 11.1|--- .... ....
....|..|--- .... ....|--- .... ....|--- .... ....
....|..|C-4 LF.F ....|B-3 3F.F ....|B-3 1FFF ....
....|..|R-- .... ....|--- .... ....|--- .... ....
....|..|C-4 LF.F ....|R-- .... ....|R-- .... ....
....|..|--- .... ....|--- .... ....|--- .... ....
....|..|C-4 RF.F ....|B-5 3FEF ....|B-3 UFDF ....
....|..|B-1 2F.7 ....|--- .... ....|--- .... ....
....|..|C-4 LF.F ....|A#5 3FEF ....|--- .... ....
....|..|--- .... ....|G#5 3FEF ....|--- .... ....
....|..|C-4 LF.F ....|F#5 3FEF ....|D#4 UFDF ....
....|..|B-1 2F.7 ....|E-5 3FEF ....|--- .... ....
....|..|C-4 LF.F ....|D#5 3FEF ....|--- .... ....
....|..|--- .... ....|C#5 3FEF ....|--- .... ....
....|..|C-4 AF.F ....|B-3 3FEF ....|B-3 1FFF ....
 G#3|..|G#1 2A.F ....|--- .... ....|--- .... ....
....|..|C-4 LF.F ....|R-- .... ....|R-- .... ....
....|..|--- .... ....|--- .... ....|--- .... ....
....|..|C-4 AF.F ....|B-3 3FEF ....|B-3 1FFF ....
 G#3|..|G#1 2A.F ....|--- .... ....|--- .... ....
....|..|C-4 LF.F ....|A#5 3FEA ....|--- .... ....
....|..|--- .... ....|G#5 3FEA ....|--- .... ....
....|..|C-4 BF.F ....|B-3 3FEF ....|B-3 1FFF ....
....|..|R-- .... ....|E-5 3FEA ....|--- .... ....
....|..|C-4 LF.F ....|R-- .... ....|R-- .... ....
....|..|--- .... ....|C#5 3FEA ....|--- .... ....
....|..|C-4 AF.F ....|B-3 3FEF ....|B-3 1FFF ....
 G#3|..|G#1 2A.F ....|--- .... ....|--- .... ....
....|..|C-4 LF.F ....|R-- .... ....|R-- .... ....
....|..|--- .... ....|--- .... ....|--- .... ....
....|..|C-4 LF.F ....|B-3 3FEF ....|B-3 1FFF ....
....|..|R-- .... ....|--- .... ....|--- .... ....
....|..|C-4 LF.F ....|A#5 3FE7 ....|--- .... ....
....|..|--- .... ....|G#5 3FE7 ....|--- .... ....
....|..|C-4 LF.F ....|B-3 3FEF ....|B-3 1FFF ....
....|..|R-- .... ....|E-5 3FE7 ....|--- .... ....
....|..|C-4 LF.F ....|D#5 3FE7 ....|R-- .... ....
....|..|--- .... ....|C#5 3FE7 ....|--- .... ....
....|..|C-4 RF.F ....|B-5 3FEF ....|G#3 UFDF ....
....|..|G#1 2F.7 ....|--- .... ....|--- .... ....
....|..|C-4 LF.F ....|A#5 3FEF ....|--- .... ....
....|..|--- .... ....|G#5 3FEF ....|--- .... ....
....|..|C-4 LF.F ....|F#5 3FEF ....|C#4 UFDF ....
....|..|G#1 2F.7 ....|E-5 3FEF ....|--- .... ....
....|..|C-4 LF.F ....|D#5 3FEF ....|--- .... ....
....|..|--- .... ....|C#5 3FEF ....|--- .... ....

[Pattern28]
....|..|C-4 AF.F ....|B-3 3FEF ....|B-3 1FFF ....
 E-3|..|E-1 2A.F ....|--- .... ....|--- .... ....
....|..|C-4 LF.F ....|R-- .... ....|R-- .... ....
....|..|--- .... ....|--- .... ....|--- .... ....
 E-3|..|C-4 AF.F ....|E-1 2A.F ....|B-3 UFDF ....
 E-3|..|E-1 2A.F ....|--- .... ....|--- .... ....
....|..|C-4 LF.F ....|A#5 3FEA ....|--- .... ....
....|..|--- .... ....|G#5 3FEA ....|--- .... ....
....|..|C-4 BF.F ....|B-3 3FEF ....|B-3 1FFF ....
....|..|R-- .... ....|E-5 3FEA ....|--- .... ....
....|..|C-4 LF.F ....|D#5 3FEA ....|--- .... ....
....|..|--- .... ....|C#5 3FEA ....|--- .... ....
 E-3|..|C-4 AF.F ....|E-1 2A.F ....|D#4 UFDF ....
 E-3|..|E-1 2A.F ....|--- .... ....|--- .... ....
....|..|C-4 LF.F ....|R-- .... ....|R-- .... ....
....|..|--- .... ....|--- .... ....|--- .... ....
....|..|C-4 LF.F ....|B-3 3FEF ....|B-3 1FFF ....
....|..|R-- .... ....|--- .... ....|--- .... ....
....|..|C-4 LF.F ....|A#5 3FE7 ....|--- .... ....
....|..|--- .... ....|G#5 3FE7 ....|--- .... ....
....|..|C-4 LF.F ....|F#5 3FE7 ....|C#4 UFDF ....
....|..|R-- .... ....|E-5 3FE7 ....|--- .... ....
....|..|C-4 LF.F ....|D#5 3FE7 ....|--- .... ....
....|..|--- .... ....|C#5 3FE7 ....|--- .... ....
....|..|C-4 RF.F ....|B-3 3FEF ....|B-3 1FFF ....
....|..|E-1 2F.7 ....|--- .... ....|--- .... ....
....|..|C-4 LF.F ....|--- .... ....|--- .... ....
....|..|--- .... ....|--- .... ....|--- .... ....
....|..|C-4 LF.F ....|E-1 2F.7 ....|E-4 UFDF ....
....|..|E-1 2F.7 ....|--- .... ....|--- .... ....
....|..|C-4 LF.F ....|--- .... ....|--- .... ....
....|..|--- .... ....|--- .... ....|--- .... ....
....|..|C-4 AF.F ....|D#4 3FEF ....|D#4 1FFF ....
 F#3|..|F#1 2A.F ....|--- .... ....|--- .... ....
....|..|C-4 LF.F ....|--- .... 11.1|--- .... ....
....|..|--- .... ....|--- .... ....|--- .... ....
....|..|C-4 AF.F ....|C#4 3FEF ....|C#4 1FFF ....
 F#3|..|F#1 2A.F ....|--- .... ....|--- .... ....
....|..|C-4 LF.F ....|--- .... ....|--- .... ....
....|..|--- .... ....|--- .... ....|--- .... ....
....|..|C-4 BF.F ....|C#4 3FEF ....|C#4 1FFF ....
....|..|R-- .... ....|--- .... ....|--- .... ....
....|..|C-4 LF.F ....|--- .... 11.1|--- .... ....
....|..|--- .... ....|--- .... ....|--- .... ....
....|..|C-4 AF.F ....|C#4 3FEF ....|C#4 1FFF ....
 F#3|..|F#1 2A.F ....|--- .... ....|--- .... ....
....|..|C-4 LF.F ....|--- .... ....|--- .... ....
....|..|--- .... ....|--- .... ....|--- .... ....
....|..|C-4 LF.F ....|B-3 3FEF ....|B-3 1FFF ....
....|..|R-- .... ....|--- .... ....|--- .... ....
....|..|C-4 LF.F ....|--- .... 11.1|--- .... ....
....|..|--- .... ....|--- .... ....|--- .... ....
....|..|C-4 LF.F ....|A#3 3FEF ....|A#3 1FFF ....
....|..|R-- .... ....|--- .... ....|--- .... ....
....|..|C-4 LF.F ....|--- .... ....|--- .... ....
....|..|--- .... ....|--- .... ....|--- .... ....
....|..|C-4 RF.F ....|G#3 3FEF ....|G#3 1FFF ....
....|..|F#1 2F.7 ....|--- .... ....|--- .... ....
....|..|C-4 LF.F ....|--- .... 11.1|--- .... ....
....|..|--- .... ....|--- .... ....|--- .... ....
....|..|C-4 LF.F ....|A#3 3FEF ....|A#3 1FFF ....
....|..|F#1 2F.7 ....|--- .... ....|--- .... ....
....|..|C-4 LF.F ....|--- .... ....|--- .... ....
....|..|--- .... ....|--- .... ....|--- .... ....

[Pattern29]
....|..|C-4 LF.F ....|F#5 3FEF ....|B-3 1FFF ....
....|..|R-- .... ....|--- .... ....|--- .... ....
....|..|C-4 LF.F ....|--- .... 11.1|--- .... ....
....|..|--- .... ....|--- .... ....|--- .... ....
....|..|C-4 LF.F ....|C#4 3FE7 ....|F#4 UFDF ....
....|..|F#1 2F.7 ....|--- .... ....|--- .... ....
....|..|C-4 LF.F ....|--- .... ....|--- .... ....
....|..|--- .... ....|--- .... ....|--- .... ....
....|..|C-4 LF.F ....|B-4 3FEF ....|B-3 UFDF ....
....|..|R-- .... ....|--- .... ....|--- .... ....
....|..|C-4 LF.F ....|--- .... ....|--- .... ....
....|..|--- .... ....|--- .... ....|--- .... ....
....|..|C-4 LF.F ....|A#3 3FE7 ....|D#4 UFDF ....
....|..|--- .... ....|--- .... ....|--- .... ....
....|..|C-4 LF.F ....|--- .... ....|--- .... ....
....|..|--- .... ....|--- .... ....|--- .... ....
....|..|C-4 LF.F ....|F#4 3FEF ....|B-3 UFDF ....
....|..|--- .... ....|--- .... ....|--- .... ....
....|..|C-4 LF.F ....|--- .... 11.1|--- .... ....
....|..|--- .... ....|--- .... ....|--- .... ....
....|..|C-4 LF.F ....|A#3 3FE7 ....|F#4 UFDF ....
....|..|--- .... ....|--- .... ....|--- .... ....
....|..|C-4 LF.F ....|--- .... ....|--- .... ....
....|..|--- .... ....|--- .... ....|--- .... ....
....|..|C-4 LF.F ....|B-4 3FEF ....|B-3 UFDF ....
....|..|--- .... ....|--- .... ....|--- .... ....
....|..|C-4 LF.F ....|--- .... ....|--- .... ....
....|..|--- .... ....|--- .... ....|--- .... ....
....|..|C-4 LF.F ....|C#5 3FEF ....|G#4 1FFF ....
....|..|--- .... ....|--- .... ....|--- .... ....
....|..|C-4 LF.F ....|--- .... 11.1|--- .... ....
....|..|--- .... ....|--- .... ....|--- .... ....
....|..|C-4 LF.F ....|B-4 3FE7 ....|G#3 UFDF ....
....|..|--- .... ....|--- .... ....|--- .... ....
....|..|C-4 LF.F ....|--- .... ....|--- .... ....
....|..|--- .... ....|--- .... ....|--- .... ....
....|..|C-4 LF.F ....|B-4 3FEF ....|F#4 1FFF ....
....|..|--- .... ....|--- .... ....|--- .... ....
....|..|C-4 LF.F ....|--- .... ....|--- .... ....
....|..|--- .... ....|--- .... ....|--- .... ....
....|..|C-4 LF.F ....|F#4 3FE7 ....|G#3 UFDF ....
....|..|--- .... ....|--- .... ....|--- .... ....
....|..|C-4 LF.F ....|--- .... ....|--- .... ....
....|..|--- .... ....|--- .... ....|--- .... ....
....|..|C-4 LF.F ....|C#5 3FEF ....|C#4 UFDF ....
....|..|--- .... ....|--- .... ....|--- .... ....
....|..|C-4 LF.F ....|--- .... ....|--- .... ....
....|..|--- .... ....|--- .... ....|--- .... ....
....|..|C-4 LF.F ....|B-4 3FE7 ....|G#3 UFDF ....
....|..|--- .... ....|--- .... ....|--- .... ....
....|..|C-4 LF.F ....|--- .... ....|--- .... ....
....|..|--- .... ....|--- .... ....|--- .... ....
....|..|C-4 LF.F ....|B-4 3FEF ....|D#4 UFDF ....
....|..|--- .... ....|--- .... ....|--- .... ....
....|..|C-4 LF.F ....|--- .... 11.1|--- .... ....
....|..|--- .... ....|--- .... ....|--- .... ....
....|..|C-4 LF.F ....|C#5 3FEA ....|G#3 UFDF ....
....|..|--- .... ....|--- .... ....|--- .... ....
....|..|C-4 LF.F ....|--- .... 11.1|--- .... ....
....|..|--- .... ....|--- .... ....|--- .... ....
....|..|C-4 LF.F ....|B-4 3FE7 ....|C#4 UFDF ....
....|..|--- .... ....|--- .... ....|--- .... ....
....|..|C-4 LF.F ....|--- .... 11.1|--- .... ....
....|..|--- .... ....|--- .... ....|--- .... ....

[Pattern30]
....|..|C-4 LF.F ....|D#5 3FEF ....|E-3 UFDF ....
....|..|--- .... ....|--- .... ....|--- .... ....
....|..|C-4 LF.F ....|--- .... 11.1|--- .... ....
....|..|--- .... ....|--- .... ....|--- .... ....
....|..|C-4 LF.F ....|C#5 3FE7 ....|B-3 UFDF ....
....|..|--- .... ....|--- .... ....|--- .... ....
....|..|C-4 LF.F ....|--- .... ....|--- .... ....
....|..|--- .... ....|--- .... ....|--- .... ....
....|..|C-4 LF.F ....|B-4 3FEF ....|E-3 UFDF ....
....|..|--- .... ....|--- .... ....|--- .... ....
....|..|C-4 LF.F ....|--- .... ....|--- .... ....
....|..|--- .... ....|--- .... ....|--- .... ....
....|..|C-4 LF.F ....|B-4 3FE7 ....|D#4 UFDF ....
....|..|--- .... ....|--- .... ....|--- .... ....
....|..|C-4 LF.F ....|--- .... ....|--- .... ....
....|..|--- .... ....|--- .... ....|--- .... ....
....|..|C-4 LF.F ....|F#4 3FEF ....|G#4 1FFF ....
....|..|--- .... ....|--- .... ....|--- .... ....
....|..|C-4 LF.F ....|--- .... ....|--- .... ....
....|..|--- .... ....|--- .... ....|--- .... ....
....|..|C-4 LF.F ....|B-4 3FEA ....|C#4 UFDF ....
....|..|--- .... ....|--- .... ....|--- .... ....
....|..|C-4 LF.F ....|--- .... ....|--- .... ....
....|..|--- .... ....|--- .... ....|--- .... ....
....|..|C-4 LF.F ....|B-4 3FEF ....|F#4 1FFF ....
....|..|--- .... ....|--- .... ....|--- .... ....
....|..|C-4 LF.F ....|--- .... ....|--- .... ....
....|..|--- .... ....|--- .... ....|--- .... ....
....|..|C-4 LF.F ....|C#5 3FEF ....|C#5 1FFF ....
....|..|--- .... ....|--- .... ....|--- .... ....
....|..|C-4 LF.F ....|--- .... 11.1|--- .... ....
....|..|--- .... ....|--- .... ....|--- .... ....
....|..|C-4 LF.F ....|B-4 3FE7 ....|D#5 1FFF ....
....|..|--- .... ....|--- .... ....|--- .... ....
....|..|C-4 LF.F ....|--- .... ....|--- .... ....
....|..|--- .... ....|--- .... ....|--- .... ....
....|..|C-4 LF.F ....|B-4 3FEF ....|A#3 UFDF ....
....|..|--- .... ....|--- .... ....|--- .... ....
....|..|C-4 LF.F ....|--- .... ....|--- .... ....
....|..|--- .... ....|--- .... ....|--- .... ....
....|..|C-4 LF.F ....|F#4 3FE7 ....|F#3 UFDF ....
....|..|--- .... ....|--- .... ....|--- .... ....
....|..|C-4 LF.F ....|--- .... ....|--- .... ....
....|..|--- .... ....|--- .... ....|--- .... ....
....|..|C-4 LF.F ....|C#5 3FEF ....|C#4 UFDF ....
....|..|--- .... ....|--- .... ....|--- .... ....
....|..|C-4 LF.F ....|--- .... 11.1|--- .... ....
....|..|--- .... ....|--- .... ....|--- .... ....
....|..|C-4 LF.F ....|B-4 3FE7 ....|F#3 UFDF ....
....|..|--- .... ....|--- .... ....|--- .... ....
....|..|C-4 LF.F ....|--- .... ....|--- .... ....
....|..|--- .... ....|--- .... ....|--- .... ....
....|..|C-4 LF.F ....|B-4 3FEF ....|D#4 UFDF ....
....|..|--- .... ....|--- .... ....|--- .... ....
....|..|C-4 LF.F ....|--- .... ....|--- .... ....
....|..|--- .... ....|--- .... ....|--- .... ....
....|..|C-4 LF.F ....|C#5 3FEA ....|F#3 UFDF ....
....|..|--- .... ....|--- .... ....|--- .... ....
....|..|C-4 LF.F ....|--- .... ....|--- .... ....
....|..|--- .... ....|--- .... ....|--- .... ....
....|..|C-4 LF.F ....|B-4 3FE7 ....|C#4 UFDF ....
....|..|--- .... ....|--- .... ....|--- .... ....
....|..|C-4 LF.F ....|--- .... ....|--- .... ....
....|..|--- .... ....|--- .... ....|--- .... ....

[Pattern31]
....|..|C-4 LF.F ....|F#5 3FEF ....|F#5 1FFF ....
....|..|--- .... ....|--- .... ....|--- .... ....
....|..|C-4 LF.F ....|--- .... 11.1|--- .... ....
....|..|--- .... ....|--- .... ....|--- .... ....
....|..|C-4 LF.F ....|C#5 3FE7 ....|F#4 UFDF ....
....|..|--- .... ....|--- .... ....|--- .... ....
....|..|C-4 LF.F ....|--- .... ....|--- .... ....
....|..|--- .... ....|--- .... ....|--- .... ....
....|..|C-4 LF.F ....|B-4 3FEF ....|B-4 1FFF ....
....|..|--- .... ....|--- .... ....|--- .... ....
....|..|C-4 LF.F ....|--- .... ....|--- .... ....
....|..|--- .... ....|--- .... ....|--- .... ....
....|..|C-4 LF.F ....|B-4 3FE7 ....|D#4 UFDF ....
....|..|--- .... ....|--- .... ....|--- .... ....
....|..|C-4 LF.F ....|--- .... ....|--- .... ....
....|..|--- .... ....|--- .... ....|--- .... ....
....|..|C-4 LF.F ....|B-4 3FEF ....|B-4 1FFF ....
....|..|--- .... ....|--- .... ....|--- .... ....
....|..|C-4 LF.F ....|--- .... ....|--- .... ....
....|..|--- .... ....|--- .... ....|--- .... ....
....|..|C-4 LF.F ....|B-4 3FEA ....|F#4 UFDF ....
....|..|--- .... ....|--- .... ....|--- .... ....
....|..|C-4 LF.F ....|--- .... ....|--- .... ....
....|..|--- .... ....|--- .... ....|--- .... ....
....|..|C-4 LF.F ....|B-4 3FEF ....|B-4 1FFF ....
....|..|--- .... ....|--- .... ....|--- .... ....
....|..|C-4 LF.F ....|--- .... 11.1|--- .... ....
....|..|--- .... ....|--- .... ....|--- .... ....
....|..|C-4 LF.F ....|B-4 3FEF ....|B-4 1FFF ....
....|..|--- .... ....|--- .... ....|--- .... ....
....|..|C-4 LF.F ....|--- .... 11.1|--- .... 11.1
....|..|--- .... ....|--- .... ....|--- .... ....
....|..|C-4 LF.F ....|B-4 3FEF ....|B-4 1FFF ....
....|..|--- .... ....|--- .... ....|--- .... ....
....|..|C-4 LF.F ....|--- .... ....|--- .... ....
....|..|--- .... ....|--- .... ....|--- .... ....
....|..|C-4 LF.F ....|B-4 3FEA ....|D#4 UFDF ....
....|..|--- .... ....|--- .... ....|--- .... ....
....|..|C-4 LF.F ....|--- .... ....|--- .... ....
....|..|--- .... ....|--- .... ....|--- .... ....
....|..|C-4 LF.F ....|G#4 3FEF ....|G#4 1FFF ....
....|..|--- .... ....|--- .... ....|--- .... ....
....|..|C-4 LF.F ....|--- .... 11.1|--- .... 11.1
....|..|--- .... ....|--- .... ....|--- .... ....
....|..|C-4 LF.F ....|B-4 3FEA ....|C#4 UFDF ....
....|..|--- .... ....|--- .... ....|--- .... ....
....|..|C-4 LF.F ....|--- .... ....|--- .... ....
....|..|--- .... ....|--- .... ....|--- .... ....
....|..|C-4 LF.F ....|B-4 3FE7 ....|G#3 UFDF ....
....|..|--- .... ....|--- .... ....|--- .... ....
....|..|C-4 LF.F ....|--- .... ....|--- .... ....
....|..|--- .... ....|--- .... ....|--- .... ....
....|..|C-4 LF.F ....|F#5 3FEF ....|F#5 1FFF ....
....|..|--- .... ....|--- .... ....|--- .... ....
....|..|C-4 LF.F ....|--- .... 11.1|--- .... 11.1
....|..|--- .... ....|--- .... ....|--- .... ....
....|..|C-4 LF.F ....|F#5 3FEF ....|F#5 1FFF ....
....|..|--- .... ....|--- .... ....|--- .... ....
....|..|C-4 LF.F ....|--- .... ....|--- .... ....
....|..|--- .... ....|--- .... ....|--- .... ....
....|..|C-4 LF.F ....|B-4 3FEF ....|B-4 1FFF ....
....|..|--- .... ....|--- .... ....|--- .... ....
....|..|C-4 LF.F ....|--- .... ....|--- .... ....
....|..|--- .... ....|--- .... ....|--- .... ....

[Pattern32]
....|..|C-4 LF.F ....|B-4 3FEF ....|B-4 1FFF ....
....|..|--- .... ....|--- .... ....|--- .... ....
....|..|C-4 LF.F ....|--- .... ....|--- .... ....
....|..|--- .... ....|--- .... ....|--- .... ....
....|..|C-4 LF.F ....|F#5 3FEA ....|B-3 UFDF ....
....|..|--- .... ....|--- .... ....|--- .... ....
....|..|C-4 LF.F ....|--- .... ....|--- .... ....
....|..|--- .... ....|--- .... ....|--- .... ....
....|..|C-4 LF.F ....|G#4 3FEF ....|G#4 1FFF ....
....|..|--- .... ....|--- .... ....|--- .... ....
....|..|C-4 LF.F ....|--- .... 11.1|--- .... 11.1
....|..|--- .... ....|--- .... ....|--- .... ....
....|..|C-4 LF.F ....|F#5 3FE7 ....|D#4 UFDF ....
....|..|--- .... ....|--- .... ....|--- .... ....
....|..|C-4 LF.F ....|--- .... ....|--- .... ....
....|..|--- .... ....|--- .... ....|--- .... ....
....|..|C-4 LF.F ....|F#5 3FE7 ....|E-3 UFDF ....
....|..|--- .... ....|--- .... ....|--- .... ....
....|..|C-4 LF.F ....|--- .... ....|--- .... ....
....|..|--- .... ....|--- .... ....|--- .... ....
....|..|C-4 LF.F ....|B-4 3FEF ....|B-4 1FFF ....
....|..|--- .... ....|--- .... ....|--- .... ....
....|..|C-4 LF.F ....|--- .... 11.1|--- .... ....
....|..|--- .... ....|--- .... ....|--- .... ....
....|..|C-4 LF.F ....|B-4 3FEF ....|B-4 1FFF ....
....|..|--- .... ....|--- .... ....|--- .... ....
....|..|C-4 LF.F ....|--- .... ....|--- .... 11.1
....|..|--- .... ....|--- .... ....|--- .... ....
....|..|C-4 LF.F ....|B-4 3FEF ....|B-4 1FFF ....
....|..|--- .... ....|--- .... ....|--- .... ....
....|..|C-4 LF.F ....|--- .... 11.1|--- .... ....
....|..|--- .... ....|--- .... ....|--- .... ....
....|..|C-4 LF.F ....|D#5 3FEF ....|D#5 1FFF ....
....|..|--- .... ....|--- .... ....|--- .... ....
....|..|C-4 LF.F ....|--- .... ....|--- .... ....
....|..|--- .... ....|--- .... ....|--- .... ....
....|..|C-4 LF.F ....|C#5 3FEF ....|C#5 1FFF ....
....|..|--- .... ....|--- .... ....|--- .... ....
....|..|C-4 LF.F ....|--- .... ....|--- .... ....
....|..|--- .... ....|--- .... ....|--- .... ....
....|..|C-4 LF.F ....|C#5 3FEF ....|C#5 1FFF ....
....|..|--- .... ....|--- .... ....|--- .... ....
....|..|C-4 LF.F ....|--- .... 11.1|--- .... ....
....|..|--- .... ....|--- .... ....|--- .... ....
....|..|C-4 LF.F ....|B-4 3FE7 ....|C#4 UFDF ....
....|..|--- .... ....|--- .... ....|--- .... ....
....|..|C-4 LF.F ....|--- .... ....|--- .... ....
....|..|--- .... ....|--- .... ....|--- .... ....
....|..|C-4 LF.F ....|B-4 3FEF ....|B-4 1FFF ....
....|..|--- .... ....|--- .... ....|--- .... ....
....|..|C-4 LF.F ....|--- .... ....|--- .... ....
....|..|--- .... ....|--- .... ....|--- .... ....
....|..|C-4 LF.F ....|B-4 3FE7 ....|D#4 UFDF ....
....|..|--- .... ....|--- .... ....|--- .... ....
....|..|C-4 LF.F ....|--- .... ....|--- .... ....
....|..|--- .... ....|--- .... ....|--- .... ....
....|..|C-4 LF.F ....|A#4 3FEF ....|A#4 1FFF ....
....|..|--- .... ....|--- .... ....|--- .... ....
....|..|C-4 LF.F ....|--- .... 11.1|--- .... 11.1
....|..|--- .... ....|--- .... ....|--- .... ....
....|..|C-4 LF.F ....|C#5 3FE7 ....|C#4 UFDF ....
....|..|--- .... ....|--- .... ....|--- .... ....
....|..|C-4 LF.F ....|--- .... ....|--- .... ....
....|..|--- .... ....|--- .... ....|--- .... ....

[Pattern33]
....|..|C-4 LF.F ....|C#5 3FE7 ....|B-3 UFDF ....
....|..|--- .... ....|--- .... ....|--- .... ....
....|..|C-4 LF.F ....|--- .... ....|--- .... ....
....|..|--- .... ....|--- .... ....|--- .... ....
....|..|C-4 LF.F ....|B-4 3FEF ....|B-4 1FFF ....
....|..|--- .... ....|--- .... ....|--- .... ....
....|..|C-4 LF.F ....|--- .... 11.1|--- .... 11.1
....|..|--- .... ....|--- .... ....|--- .... ....
....|..|C-4 LF.F ....|B-4 3FEF ....|B-4 1FFF ....
....|..|--- .... ....|--- .... ....|--- .... ....
....|..|C-4 LF.F ....|--- .... ....|--- .... ....
....|..|--- .... ....|--- .... ....|--- .... ....
....|..|C-4 LF.F ....|B-4 3FEF ....|B-4 1FFF ....
....|..|--- .... ....|--- .... ....|--- .... ....
....|..|C-4 LF.F ....|--- .... ....|--- .... ....
....|..|--- .... ....|--- .... ....|--- .... ....
....|..|C-4 LF.F ....|B-4 3FEF ....|B-4 1FFF ....
....|..|--- .... ....|--- .... ....|--- .... ....
....|..|C-4 LF.F ....|--- .... 11.1|--- .... 11.1
....|..|--- .... ....|--- .... ....|--- .... ....
....|..|C-4 LF.F ....|B-4 3FEF ....|B-4 1FFF ....
....|..|--- .... ....|--- .... ....|--- .... ....
....|..|C-4 LF.F ....|--- .... ....|--- .... ....
....|..|--- .... ....|--- .... ....|--- .... ....
....|..|C-4 LF.F ....|B-4 3FEF ....|B-4 1FFF ....
....|..|--- .... ....|--- .... ....|--- .... ....
....|..|C-4 LF.F ....|--- .... ....|--- .... ....
....|..|--- .... ....|--- .... ....|--- .... ....
....|..|C-4 LF.F ....|B-4 3FE7 ....|D#4 UFDF ....
....|..|--- .... ....|--- .... ....|--- .... ....
....|..|C-4 LF.F ....|--- .... ....|--- .... ....
....|..|--- .... ....|--- .... ....|--- .... ....
....|..|C-4 LF.F ....|B-4 3FE7 ....|G#3 UFDF ....
....|..|--- .... ....|--- .... ....|--- .... ....
....|..|C-4 LF.F ....|--- .... ....|--- .... ....
....|..|--- .... ....|--- .... ....|--- .... ....
....|..|C-4 LF.F ....|B-4 3FEF ....|B-4 1FFF ....
....|..|--- .... ....|--- .... ....|--- .... ....
....|..|C-4 LF.F ....|--- .... ....|--- .... ....
....|..|--- .... ....|--- .... ....|--- .... ....
....|..|C-4 LF.F ....|B-4 3FEF ....|B-4 1FFF ....
....|..|--- .... ....|--- .... ....|--- .... ....
....|..|C-4 LF.F ....|--- .... 11.1|--- .... ....
....|..|--- .... ....|--- .... ....|--- .... ....
....|..|C-4 LF.F ....|B-4 3FEF ....|B-4 1FFF ....
....|..|--- .... ....|--- .... ....|--- .... ....
....|..|C-4 LF.F ....|--- .... ....|--- .... ....
....|..|--- .... ....|--- .... ....|--- .... ....
....|..|C-4 LF.F ....|B-4 3FE7 ....|G#3 UFDF ....
....|..|--- .... ....|--- .... ....|--- .... ....
....|..|C-4 LF.F ....|--- .... 11.1|--- .... ....
....|..|--- .... ....|--- .... ....|--- .... ....
....|..|C-4 LF.F ....|B-4 3FEF ....|B-4 1FFF ....
....|..|--- .... ....|--- .... ....|--- .... ....
....|..|C-4 LF.F ....|--- .... ....|--- .... ....
....|..|--- .... ....|--- .... ....|--- .... ....
....|..|C-4 LF.F ....|B-4 3FEF ....|B-4 1FFF ....
....|..|--- .... ....|--- .... ....|--- .... ....
....|..|C-4 LF.F ....|--- .... ....|--- .... ....
....|..|--- .... ....|--- .... ....|--- .... ....
....|..|C-4 LF.F ....|B-4 3FEF ....|B-4 1FFF ....
....|..|--- .... ....|--- .... ....|--- .... ....
....|..|C-4 LF.F ....|--- .... ....|--- .... ....
....|..|--- .... ....|--- .... ....|--- .... ....

[Pattern34]
....|..|C-4 AF.F ....|F#4 3FEF ....|F#4 1FFF ....
....|..|--- .... ....|--- .... ....|--- .... ....
....|..|C-4 LF.F ....|--- .... 11.1|--- .... ....
....|..|--- .... ....|--- .... ....|--- .... ....
....|..|C-4 AF.F ....|G#4 3FEF ....|G#4 1FFF ....
....|..|--- .... ....|--- .... ....|--- .... ....
....|..|C-4 LF.F ....|--- .... ....|--- .... ....
....|..|--- .... ....|--- .... ....|--- .... ....
....|..|C-4 RF.F ....|R-- .... ....|E-3 UFDF ....
....|..|--- .... ....|--- .... ....|--- .... ....
....|..|C-4 LF.F ....|--- .... ....|--- .... ....
....|..|--- .... ....|--- .... ....|--- .... ....
....|..|C-4 AF.F ....|B-4 3FE7 ....|D#4 UFDF ....
....|..|--- .... ....|--- .... ....|--- .... ....
....|..|C-4 LF.F ....|--- .... ....|--- .... ....
....|..|--- .... ....|--- .... ....|--- .... ....
....|..|C-4 LF.F ....|B-4 3FE7 ....|E-3 UFDF ....
....|..|--- .... ....|--- .... ....|--- .... ....
....|..|C-4 LF.F ....|--- .... ....|--- .... ....
....|..|--- .... ....|--- .... ....|--- .... ....
....|..|C-4 LF.F ....|B-4 3FE7 ....|C#4 UFDF ....
....|..|--- .... ....|--- .... ....|--- .... ....
....|..|C-4 LF.F ....|--- .... ....|--- .... ....
....|..|--- .... ....|--- .... ....|--- .... ....
....|..|C-4 RF.F ....|F#4 3FE7 ....|E-3 UFDF ....
....|..|--- .... ....|--- .... ....|--- .... ....
....|..|C-4 LF.F ....|--- .... ....|--- .... ....
....|..|--- .... ....|--- .... ....|--- .... ....
....|..|C-4 LF.F ....|G#4 3FE7 ....|E-4 UFDF ....
....|..|--- .... ....|--- .... ....|--- .... ....
....|..|C-4 LF.F ....|--- .... ....|--- .... ....
....|..|--- .... ....|--- .... ....|--- .... ....
....|..|C-4 9F.F ....|F#5 3FEF ....|F#5 1FFF ....
....|..|--- .... ....|--- .... ....|--- .... ....
....|..|C-4 LF.F ....|--- .... 11.1|--- .... ....
....|..|--- .... ....|--- .... ....|--- .... ....
....|..|C-4 9F.F ....|F#5 3FEF ....|F#5 1FFF ....
....|..|--- .... ....|--- .... ....|--- .... ....
....|..|C-4 LF.F ....|--- .... ....|--- .... ....
....|..|--- .... ....|--- .... ....|--- .... ....
....|..|C-4 9F.F ....|F#5 3FEF ....|F#5 1FFF ....
....|..|--- .... ....|--- .... ....|--- .... ....
....|..|C-4 LF.F ....|--- .... 11.1|--- .... ....
....|..|--- .... ....|--- .... ....|--- .... ....
....|..|C-4 9F.F ....|E-5 3FEF ....|E-5 1FFF ....
....|..|--- .... ....|--- .... ....|--- .... ....
....|..|C-4 LF.F ....|--- .... ....|--- .... ....
....|..|--- .... ....|--- .... ....|--- .... ....
....|..|C-4 9F.F ....|E-5 3FEF ....|E-5 1FFF ....
....|..|--- .... ....|--- .... ....|--- .... ....
....|..|C-4 9F.F ....|--- .... 11.1|--- .... ....
....|..|--- .... ....|--- .... ....|--- .... ....
....|..|C-4 9F.F ....|D#5 3FEF ....|D#5 1FFF ....
....|..|--- .... ....|--- .... ....|--- .... ....
....|..|C-4 9F.F ....|--- .... ....|--- .... ....
....|..|--- .... ....|--- .... ....|--- .... ....
....|..|C-4 9F.F ....|E-5 3FEF ....|E-5 1FFF ....
....|..|--- .... ....|--- .... ....|--- .... ....
....|..|C-4 9F.F ....|--- .... ....|--- .... ....
....|..|--- .... ....|--- .... ....|--- .... ....
....|..|C-4 9F.F ....|F#5 3FEF ....|F#5 1FFF ....
....|..|--- .... ....|--- .... ....|--- .... ....
....|..|C-4 9F.F ....|--- .... 11.1|--- .... ....
....|..|--- .... ....|--- .... ....|--- .... ....

[Pattern35]
....|..|C-3 RF.F ....|F#5 3FE7 ....|F#3 UFDF ....
....|..|--- .... ....|--- .... ....|--- .... ....
....|..|C-4 LF.7 ....|--- .... ....|--- .... ....
....|..|--- .... ....|--- .... ....|--- .... ....
....|..|C-4 9F.7 ....|E-5 3FE7 ....|E-5 1FF7 ....
....|..|--- .... ....|--- .... ....|--- .... ....
....|..|C-4 LF.7 ....|--- .... ....|--- .... ....
....|..|--- .... ....|--- .... ....|--- .... ....
....|..|C-3 RF.F ....|E-5 3FE7 ....|F#3 UFDF ....
....|..|--- .... ....|--- .... ....|--- .... ....
....|..|C-4 9F.7 ....|--- .... ....|--- .... ....
....|..|--- .... ....|--- .... ....|--- .... ....
....|..|C-4 9F.7 ....|D#5 3FE7 ....|D#5 1FF7 ....
....|..|--- .... ....|--- .... ....|--- .... ....
....|..|C-3 RF.F ....|--- .... ....|F#3 UFDF ....
....|..|--- .... ....|--- .... ....|--- .... ....
....|..|C-3 RF.F ....|E-5 3FE7 ....|F#3 UFDF ....
....|..|--- .... ....|--- .... ....|--- .... ....
....|..|C-4 9F.7 ....|--- .... ....|--- .... ....
....|..|--- .... ....|--- .... ....|--- .... ....
....|..|C-3 RF.F ....|F#5 3FE7 ....|F#3 UFDF ....
....|..|--- .... ....|--- .... ....|--- .... ....
....|..|C-4 9F.7 ....|--- .... ....|--- .... ....
....|..|--- .... ....|--- .... ....|--- .... ....
....|..|C-3 RF.F ....|--- .... ....|F#3 UFDF ....
....|..|--- .... ....|--- .... ....|--- .... ....
....|..|C-3 RF.A ....|--- .... ....|F#3 UFDA ....
....|..|--- .... ....|--- .... ....|--- .... ....
....|..|R-- .... ....|--- .... ....|F#3 UFDA ....
....|..|--- .... ....|--- .... ....|--- .... ....
....|..|--- .... ....|--- .... ....|--- .... ....
....|..|--- .... ....|--- .... ....|--- .... ....
 B-3|..|C-4 AF.F ....|B-1 2A.F ....|B-3 UFDF ....
 B-3|..|B-1 2A.F ....|--- .... ....|--- .... ....
....|..|--- .... ....|--- .... ....|--- .... 11.1
....|..|--- .... ....|--- .... ....|--- .... ....
 B-3|..|C-4 AF.F ....|B-1 2A.F ....|F#4 UFDF ....
 B-3|..|B-1 2A.F ....|--- .... ....|--- .... ....
....|..|C-3 RF.7 ....|--- .... ....|F#3 UFD7 ....
....|..|--- .... ....|--- .... ....|--- .... ....
....|..|C-4 BF.F ....|R-- .... ....|B-3 UFDF ....
....|..|R-- .... ....|--- .... ....|--- .... ....
....|..|--- .... ....|--- .... ....|--- .... ....
....|..|--- .... ....|--- .... ....|--- .... ....
 B-3|..|C-4 AF.F ....|B-1 2A.F ....|D#4 UFDF ....
 B-3|..|B-1 2A.F ....|--- .... ....|--- .... ....
....|..|--- .... ....|--- .... ....|--- .... 11.1
....|..|--- .... ....|--- .... ....|--- .... ....
....|..|C-3 RF.7 ....|R-- .... ....|B-3 UFDF ....
....|..|B-1 2F.A ....|--- .... ....|--- .... ....
....|..|B-8 JF.F ....|--- .... ....|--- .... ....
....|..|--- .... ....|--- .... ....|--- .... ....
....|..|B-8 JF.F ....|R-- .... ....|F#4 UFDF ....
....|..|R-- .... ....|--- .... ....|--- .... ....
....|..|--- .... ....|--- .... ....|--- .... 11.1
....|..|--- .... ....|--- .... ....|--- .... ....
....|..|C-4 RF.F ....|B-1 2F.7 ....|B-3 UFDF ....
....|..|B-1 2F.7 ....|--- .... ....|--- .... ....
....|..|--- .... ....|--- .... ....|--- .... ....
....|..|--- .... ....|--- .... ....|--- .... ....
....|..|C-4 AF.7 ....|B-1 2F.7 ....|D#4 UFDF ....
....|..|B-1 2F.7 ....|--- .... ....|--- .... ....
....|..|B-8 JF.A ....|--- .... ....|--- .... ....
....|..|--- .... ....|--- .... ....|--- .... ....

[Pattern36]
 G#3|..|C-4 AF.F ....|G#1 2A.F ....|G#3 UFDF ....
 G#3|..|G#1 2A.F ....|--- .... ....|--- .... ....
....|..|--- .... ....|--- .... ....|--- .... 11.1
....|..|--- .... ....|--- .... ....|--- .... ....
 G#3|..|C-4 AF.F ....|G#1 2A.F ....|D#4 UFDF ....
 G#3|..|G#1 2A.F ....|--- .... ....|--- .... ....
....|..|--- .... ....|--- .... ....|--- .... ....
....|..|--- .... ....|--- .... ....|--- .... ....
....|..|C-4 BF.F ....|R-- .... ....|G#3 UFDF ....
....|..|R-- .... ....|--- .... ....|--- .... ....
....|..|B-8 JF.7 ....|--- .... ....|--- .... ....
....|..|--- .... ....|--- .... ....|--- .... ....
 G#3|..|C-4 AF.F ....|G#1 2A.F ....|C#4 UFDF ....
 G#3|..|G#1 2A.F ....|--- .... ....|--- .... ....
....|..|--- .... ....|--- .... ....|--- .... 11.1
....|..|--- .... ....|--- .... ....|--- .... ....
....|..|C-4 RF.7 ....|R-- .... ....|G#3 UFDF ....
....|..|G#1 2F.A ....|--- .... ....|--- .... ....
....|..|B-8 JF.F ....|--- .... ....|--- .... ....
....|..|--- .... ....|--- .... ....|--- .... ....
....|..|B-8 JF.F ....|R-- .... ....|D#4 UFDF ....
....|..|R-- .... ....|--- .... ....|--- .... ....
....|..|--- .... ....|--- .... ....|--- .... ....
....|..|--- .... ....|--- .... ....|--- .... ....
....|..|C-4 RF.F ....|G#1 2F.7 ....|G#3 UFDF ....
....|..|G#1 2F.7 ....|--- .... ....|--- .... ....
....|..|--- .... ....|--- .... ....|--- .... ....
....|..|--- .... ....|--- .... ....|--- .... ....
....|..|C-4 AF.7 ....|G#1 2F.7 ....|C#4 UFDF ....
....|..|G#1 2F.7 ....|--- .... ....|--- .... ....
....|..|B-8 JF.A ....|--- .... ....|--- .... ....
....|..|--- .... ....|--- .... ....|--- .... ....
 E-3|..|C-4 AF.F ....|E-1 2A.F ....|E-3 UFDF ....
 E-3|..|E-1 2A.F ....|--- .... ....|--- .... ....
....|..|--- .... ....|--- .... ....|--- .... 11.1
....|..|--- .... ....|--- .... ....|--- .... ....
 E-3|..|C-4 AF.F ....|E-1 2A.F ....|B-3 UFDF ....
 E-3|..|E-1 2A.F ....|--- .... ....|--- .... ....
....|..|--- .... ....|--- .... ....|--- .... ....
....|..|--- .... ....|--- .... ....|--- .... ....
....|..|C-4 BF.F ....|R-- .... ....|E-3 UFDF ....
....|..|R-- .... ....|--- .... ....|--- .... ....
....|..|B-8 JF.7 ....|--- .... ....|--- .... ....
....|..|--- .... ....|--- .... ....|--- .... ....
 E-3|..|C-4 AF.F ....|E-1 2A.F ....|D#4 UFDF ....
 E-3|..|E-1 2A.F ....|--- .... ....|--- .... ....
....|..|--- .... ....|--- .... ....|--- .... ....
....|..|--- .... ....|--- .... ....|--- .... ....
....|..|C-4 RF.7 ....|R-- .... ....|E-3 UFDF ....
....|..|E-1 2F.A ....|--- .... ....|--- .... ....
....|..|B-8 JF.F ....|--- .... ....|--- .... 11.1
....|..|--- .... ....|--- .... ....|--- .... ....
....|..|B-8 JF.F ....|R-- .... ....|C#4 UFDF ....
....|..|R-- .... ....|--- .... ....|--- .... ....
....|..|--- .... ....|--- .... ....|--- .... ....
....|..|--- .... ....|--- .... ....|--- .... ....
....|..|C-4 RF.F ....|E-1 2F.7 ....|E-3 UFDF ....
....|..|E-1 2F.7 ....|--- .... ....|--- .... ....
....|..|--- .... ....|--- .... ....|--- .... ....
....|..|--- .... ....|--- .... ....|--- .... ....
....|..|C-4 AF.7 ....|E-1 2F.7 ....|E-4 UFDF ....
....|..|E-1 2F.7 ....|--- .... ....|--- .... ....
....|..|B-8 JF.A ....|--- .... ....|--- .... ....
....|..|--- .... ....|--- .... ....|--- .... ....

[Pattern37]
 F#3|..|C-4 AF.F ....|F#1 2A.F ....|F#3 UFDF ....
 F#3|..|F#1 2A.F ....|--- .... ....|--- .... ....
....|..|--- .... ....|--- .... ....|--- .... 11.1
....|..|--- .... ....|--- .... ....|--- .... ....
 F#3|..|C-4 AF.F ....|F#1 2A.F ....|A#3 UFDF ....
 F#3|..|F#1 2A.F ....|--- .... ....|--- .... ....
....|..|--- .... ....|--- .... ....|--- .... ....
....|..|--- .... ....|--- .... ....|--- .... ....
....|..|C-4 BF.F ....|R-- .... ....|F#3 UFDF ....
....|..|R-- .... ....|--- .... ....|--- .... ....
....|..|B-8 JF.7 ....|--- .... ....|--- .... ....
....|..|--- .... ....|--- .... ....|--- .... ....
 F#3|..|C-4 AF.F ....|F#1 2A.F ....|C#4 UFDF ....
 F#3|..|F#1 2A.F ....|--- .... ....|--- .... ....
....|..|--- .... ....|--- .... ....|--- .... ....
....|..|--- .... ....|--- .... ....|--- .... ....
....|..|C-4 RF.7 ....|R-- .... ....|F#3 UFDF ....
....|..|F#1 2F.A ....|--- .... ....|--- .... ....
....|..|B-8 JF.F ....|--- .... ....|--- .... 11.1
....|..|--- .... ....|--- .... ....|--- .... ....
....|..|B-8 JF.F ....|R-- .... ....|D#4 UFDF ....
....|..|R-- .... ....|--- .... ....|--- .... ....
....|..|--- .... ....|--- .... ....|--- .... ....
....|..|--- .... ....|--- .... ....|--- .... ....
....|..|C-4 RF.F ....|F#1 2F.7 ....|F#3 UFDF ....
....|..|F#1 2F.7 ....|--- .... ....|--- .... ....
....|..|--- .... ....|--- .... ....|--- .... ....
....|..|--- .... ....|--- .... ....|--- .... ....
....|..|C-4 AF.7 ....|F#1 2F.7 ....|C#4 UFDF ....
....|..|F#1 2F.7 ....|--- .... ....|--- .... ....
....|..|B-8 JF.A ....|--- .... ....|--- .... 11.1
....|..|--- .... ....|--- .... ....|--- .... ....
 B-3|..|C-4 AF.F ....|B-1 2A.F ....|B-3 UFDF ....
 B-3|..|B-1 2A.F ....|--- .... ....|--- .... ....
....|..|--- .... ....|--- .... ....|--- .... ....
....|..|--- .... ....|--- .... ....|--- .... ....
 B-3|..|C-4 AF.F ....|B-1 2A.F ....|F#4 UFDF ....
 B-3|..|B-1 2A.F ....|--- .... ....|--- .... ....
....|..|--- .... ....|--- .... ....|--- .... 11.1
....|..|--- .... ....|--- .... ....|--- .... ....
....|..|C-4 BF.F ....|R-- .... ....|B-3 UFDF ....
....|..|R-- .... ....|--- .... ....|--- .... ....
....|..|B-8 JF.7 ....|--- .... ....|--- .... ....
....|..|--- .... ....|--- .... ....|--- .... ....
 B-3|..|C-4 AF.F ....|B-1 2A.F ....|D#4 UFDF ....
 B-3|..|B-1 2A.F ....|--- .... ....|--- .... ....
....|..|--- .... ....|--- .... ....|--- .... ....
....|..|--- .... ....|--- .... ....|--- .... ....
....|..|C-4 LF.F ....|R-- .... ....|B-3 UFDF ....
....|..|R-- .... ....|--- .... ....|--- .... ....
....|..|B-8 JF.F ....|--- .... ....|--- .... 11.1
....|..|--- .... ....|--- .... ....|--- .... ....
....|..|B-8 JF.F ....|R-- .... ....|F#4 UFDF ....
....|..|R-- .... ....|--- .... ....|--- .... ....
....|..|--- .... ....|--- .... ....|--- .... ....
....|..|--- .... ....|--- .... ....|--- .... ....
....|..|C-4 RF.F ....|B-1 2F.7 ....|B-3 UFDF ....
....|..|B-1 2F.7 ....|--- .... ....|--- .... ....
....|..|--- .... ....|--- .... ....|--- .... ....
....|..|--- .... ....|--- .... ....|--- .... ....
....|..|C-4 AF.7 ....|B-1 2F.7 ....|D#4 UFDF ....
....|..|B-1 2F.7 ....|--- .... ....|--- .... ....
....|..|B-8 JF.A ....|--- .... ....|--- .... 11.1
....|..|--- .... ....|--- .... ....|--- .... ....

[Pattern38]
 G#3|..|C-4 AF.F ....|G#1 2A.F ....|G#3 UFDF ....
 G#3|..|G#1 2A.F ....|--- .... ....|--- .... ....
....|..|--- .... ....|--- .... ....|--- .... 11.1
....|..|--- .... ....|--- .... ....|--- .... ....
 G#3|..|C-4 AF.F ....|G#1 2A.F ....|D#4 UFDF ....
 G#3|..|G#1 2A.F ....|--- .... ....|--- .... ....
....|..|--- .... ....|--- .... ....|--- .... ....
....|..|--- .... ....|--- .... ....|--- .... ....
....|..|C-4 BF.F ....|R-- .... ....|G#3 UFDF ....
....|..|R-- .... ....|--- .... ....|--- .... ....
....|..|B-8 JF.7 ....|--- .... ....|--- .... ....
....|..|--- .... ....|--- .... ....|--- .... ....
 G#3|..|C-4 AF.F ....|G#1 2A.F ....|C#4 UFDF ....
 G#3|..|G#1 2A.F ....|--- .... ....|--- .... ....
....|..|--- .... ....|--- .... ....|--- .... ....
....|..|--- .... ....|--- .... ....|--- .... ....
....|..|C-4 LF.F ....|R-- .... ....|G#3 UFDF ....
....|..|R-- .... ....|--- .... ....|--- .... ....
....|..|B-8 JF.F ....|--- .... ....|--- .... ....
....|..|--- .... ....|--- .... ....|--- .... ....
....|..|B-8 JF.F ....|R-- .... ....|D#4 UFDF ....
....|..|R-- .... ....|--- .... ....|--- .... ....
....|..|--- .... ....|--- .... ....|--- .... ....
....|..|--- .... ....|--- .... ....|--- .... ....
....|..|C-4 RF.F ....|G#1 2F.7 ....|G#3 UFDF ....
....|..|G#1 2F.7 ....|--- .... ....|--- .... ....
....|..|--- .... ....|--- .... ....|--- .... ....
....|..|--- .... ....|--- .... ....|--- .... ....
....|..|C-4 AF.7 ....|G#1 2F.7 ....|C#4 UFDF ....
....|..|G#1 2F.7 ....|--- .... ....|--- .... ....
....|..|B-8 JF.A ....|--- .... ....|--- .... ....
....|..|--- .... ....|--- .... ....|--- .... ....
 E-3|..|C-4 AF.F ....|E-1 2A.F ....|E-3 UFDF ....
 E-3|..|E-1 2A.F ....|--- .... ....|--- .... ....
....|..|--- .... ....|--- .... ....|--- .... ....
....|..|--- .... ....|--- .... ....|--- .... ....
 E-3|..|C-4 AF.F ....|E-1 2A.F ....|B-3 UFDF ....
 E-3|..|E-1 2A.F ....|--- .... ....|--- .... ....
....|..|--- .... ....|--- .... ....|--- .... ....
....|..|--- .... ....|--- .... ....|--- .... ....
....|..|C-4 BF.F ....|R-- .... ....|E-3 UFDF ....
....|..|R-- .... ....|--- .... ....|--- .... ....
....|..|B-8 JF.7 ....|--- .... ....|--- .... ....
....|..|--- .... ....|--- .... ....|--- .... ....
 E-3|..|C-4 AF.F ....|E-1 2A.F ....|D#4 UFDF ....
 E-3|..|E-1 2A.F ....|--- .... ....|--- .... ....
....|..|--- .... ....|--- .... ....|--- .... ....
....|..|--- .... ....|--- .... ....|--- .... ....
....|..|C-4 LF.F ....|R-- .... ....|E-3 UFDF ....
....|..|R-- .... ....|--- .... ....|--- .... ....
....|..|B-8 JF.F ....|--- .... ....|--- .... ....
....|..|--- .... ....|--- .... ....|--- .... ....
....|..|B-8 JF.F ....|R-- .... ....|C#4 UFDF ....
....|..|R-- .... ....|--- .... ....|--- .... ....
....|..|--- .... ....|--- .... ....|--- .... ....
....|..|--- .... ....|--- .... ....|--- .... ....
....|..|C-4 RF.F ....|E-1 2F.7 ....|E-3 UFDF ....
....|..|E-1 2F.7 ....|--- .... ....|--- .... ....
....|..|--- .... ....|--- .... ....|--- .... ....
....|..|--- .... ....|--- .... ....|--- .... ....
....|..|C-4 AF.7 ....|E-1 2F.7 ....|E-4 UFDF ....
....|..|E-1 2F.7 ....|--- .... ....|--- .... ....
....|..|B-8 JF.A ....|--- .... ....|--- .... ....
....|..|--- .... ....|--- .... ....|--- .... ....

[Pattern39]
 F#3|..|C-4 AF.F ....|F#1 2A.F ....|F#3 UFDF ....
 F#3|..|F#1 2A.F ....|--- .... ....|--- .... ....
....|..|--- .... ....|--- .... ....|--- .... ....
....|..|--- .... ....|--- .... ....|--- .... ....
 F#3|..|C-4 AF.F ....|F#1 2A.F ....|A#3 UFDF ....
 F#3|..|F#1 2A.F ....|--- .... ....|--- .... ....
....|..|--- .... ....|--- .... ....|--- .... ....
....|..|--- .... ....|--- .... ....|--- .... ....
....|..|C-4 BF.F ....|R-- .... ....|F#3 UFDF ....
....|..|R-- .... ....|--- .... ....|--- .... ....
....|..|B-8 JF.7 ....|--- .... ....|--- .... ....
....|..|--- .... ....|--- .... ....|--- .... ....
 F#3|..|C-4 AF.F ....|F#1 2A.F ....|C#4 UFDF ....
 F#3|..|F#1 2A.F ....|--- .... ....|--- .... ....
....|..|--- .... ....|--- .... ....|--- .... ....
....|..|--- .... ....|--- .... ....|--- .... ....
....|..|C-4 LF.F ....|R-- .... ....|F#3 UFDF ....
....|..|R-- .... ....|--- .... ....|--- .... ....
....|..|B-8 JF.F ....|--- .... ....|--- .... ....
....|..|--- .... ....|--- .... ....|--- .... ....
....|..|B-8 JF.F ....|R-- .... ....|D#4 UFDF ....
....|..|R-- .... ....|--- .... ....|--- .... ....
....|..|--- .... ....|--- .... ....|--- .... ....
....|..|--- .... ....|--- .... ....|--- .... ....
....|..|C-4 RF.F ....|F#5 3FEF ....|F#4 1FFF ....
....|..|F#1 2F.7 ....|--- .... ....|--- .... ....
....|..|--- .... ....|--- .... 11.1|--- .... ....
....|..|--- .... ....|--- .... ....|--- .... ....
....|..|C-4 AF.7 ....|F#1 2F.7 ....|C#4 UFDF ....
....|..|F#1 2F.7 ....|--- .... ....|--- .... ....
....|..|B-8 JF.A ....|--- .... ....|--- .... ....
....|..|--- .... ....|--- .... ....|--- .... ....
....|..|C-4 AF.F ....|D#5 3FEF ....|D#4 1FFF ....
 B-3|..|B-1 2A.F ....|--- .... ....|--- .... ....
....|..|C-4 LF.F ....|--- .... 11.1|--- .... ....
....|..|--- .... ....|--- .... ....|--- .... ....
 B-3|..|C-4 AF.F ....|B-1 2A.F ....|F#4 UFDF ....
 B-3|..|B-1 2A.F ....|--- .... ....|--- .... ....
....|..|C-4 LF.F ....|--- .... 11.1|--- .... ....
....|..|--- .... ....|--- .... ....|--- .... ....
....|..|C-4 BF.F ....|C#5 3FEF ....|C#4 1FFF ....
....|..|R-- .... ....|--- .... ....|--- .... ....
....|..|C-4 LF.F ....|--- .... ....|--- .... ....
....|..|--- .... ....|--- .... ....|--- .... ....
 B-3|..|C-4 AF.F ....|B-1 2A.F ....|D#4 UFDF ....
 B-3|..|B-1 2A.F ....|--- .... ....|--- .... ....
....|..|C-4 LF.F ....|--- .... ....|--- .... ....
....|..|--- .... ....|--- .... ....|--- .... ....
....|..|C-4 LF.F ....|D#5 3FEF ....|D#4 1FFF ....
....|..|R-- .... ....|--- .... ....|--- .... ....
....|..|B-8 JF.F ....|--- .... ....|--- .... ....
....|..|--- .... ....|--- .... ....|--- .... ....
....|..|B-8 JF.F ....|C#5 3FEA ....|F#4 UFDF ....
....|..|R-- .... ....|--- .... ....|--- .... ....
....|..|C-4 LF.F ....|--- .... ....|--- .... ....
....|..|--- .... ....|--- .... ....|--- .... ....
....|..|C-4 RF.F ....|C#5 3FEF ....|C#4 1FFF ....
....|..|B-1 2F.7 ....|--- .... ....|--- .... ....
....|..|C-4 LF.F ....|--- .... 11.1|--- .... ....
....|..|--- .... ....|--- .... ....|--- .... ....
....|..|C-4 LF.F ....|B-1 2F.7 ....|D#4 UFDF ....
....|..|B-1 2F.7 ....|--- .... ....|--- .... ....
....|..|C-4 LF.F ....|--- .... ....|--- .... ....
....|..|--- .... ....|--- .... ....|--- .... ....

[Pattern40]
....|..|C-4 AF.F ....|B-4 3FEF ....|D#4 1FFF ....
 G#3|..|G#1 2A.F ....|--- .... ....|--- .... ....
....|..|C-4 LF.F ....|--- .... 11.1|D#4 1FFF ....
....|..|--- .... ....|--- .... ....|--- .... ....
 G#3|..|C-4 AF.F ....|G#1 2A.F ....|C#4 1FFF ....
 G#3|..|G#1 2A.F ....|--- .... ....|--- .... ....
....|..|C-4 LF.F ....|--- .... ....|--- .... ....
....|..|--- .... ....|--- .... ....|--- .... ....
....|..|C-4 BF.F ....|B-4 3FEF ....|D#4 1FFF ....
....|..|R-- .... ....|--- .... ....|--- .... ....
....|..|C-4 LF.F ....|--- .... 11.1|--- .... ....
....|..|--- .... ....|--- .... ....|--- .... ....
 G#3|..|C-4 AF.F ....|G#1 2A.F ....|C#4 1FFF ....
 G#3|..|G#1 2A.F ....|--- .... ....|--- .... ....
....|..|C-4 LF.F ....|--- .... ....|D#4 1FFA ....
....|..|--- .... ....|--- .... ....|--- .... ....
....|..|C-4 LF.F ....|D#5 3FEF ....|D#4 1FFF ....
....|..|R-- .... ....|--- .... ....|--- .... ....
....|..|B-8 JF.F ....|--- .... ....|--- .... ....
....|..|--- .... ....|--- .... ....|--- .... ....
....|..|B-8 JF.F ....|B-4 3FEA ....|D#4 UFDF ....
....|..|R-- .... ....|--- .... ....|--- .... ....
....|..|C-4 LF.F ....|--- .... ....|--- .... ....
....|..|--- .... ....|--- .... ....|--- .... ....
....|..|C-4 RF.F ....|C#5 3FEF ....|C#4 1FFF ....
....|..|G#1 2F.7 ....|--- .... ....|--- .... ....
....|..|C-4 LF.F ....|--- .... 11.1|D#4 1FF7 ....
....|..|--- .... ....|--- .... ....|--- .... ....
....|..|C-4 LF.F ....|G#1 2F.7 ....|C#4 UFDF ....
....|..|G#1 2F.7 ....|--- .... ....|--- .... ....
....|..|C-4 LF.F ....|--- .... ....|--- .... ....
....|..|--- .... ....|--- .... ....|--- .... ....
 E-3|..|C-4 AF.F ....|E-1 2A.F ....|E-3 UFDF ....
 E-3|..|E-1 2A.F ....|--- .... ....|--- .... ....
....|..|C-4 LF.F ....|--- .... ....|--- .... ....
....|..|--- .... ....|--- .... ....|--- .... ....
....|..|C-4 AF.F ....|B-4 3FEF ....|B-3 1FFF ....
 E-3|..|E-1 2A.F ....|--- .... 11.1|--- .... ....
....|..|C-4 LF.F ....|B-4 3FEF ....|B-3 1FFF ....
....|..|--- .... ....|--- .... 11.1|--- .... ....
....|..|C-4 BF.F ....|B-4 3FEF ....|B-3 1FFF ....
....|..|R-- .... ....|--- .... ....|--- .... ....
....|..|C-4 LF.F ....|--- .... ....|--- .... ....
....|..|--- .... ....|--- .... ....|--- .... ....
....|..|C-4 AF.F ....|B-4 3FEF ....|B-3 1FFF ....
 E-3|..|E-1 2A.F ....|--- .... ....|--- .... ....
....|..|C-4 LF.F ....|--- .... 11.1|--- .... ....
....|..|--- .... ....|--- .... ....|--- .... ....
....|..|C-4 LF.F ....|B-4 3F.F ....|B-3 1FFF ....
....|..|R-- .... ....|--- .... ....|--- .... ....
....|..|B-8 JF.F ....|B-4 3F.F ....|B-3 1FFF ....
....|..|--- .... ....|--- .... ....|--- .... ....
....|..|B-8 JF.F ....|B-4 3F.F ....|B-3 1FFF ....
....|..|R-- .... ....|--- .... ....|--- .... ....
....|..|C-4 LF.F ....|--- .... 11.1|--- .... ....
....|..|--- .... ....|--- .... ....|--- .... ....
....|..|C-4 RF.F ....|B-4 3FEF ....|B-3 1FFF ....
....|..|E-1 2F.7 ....|--- .... ....|--- .... ....
....|..|C-4 LF.F ....|--- .... ....|--- .... ....
....|..|--- .... ....|--- .... ....|--- .... ....
....|..|C-4 LF.F ....|B-4 3FEF ....|B-3 1FFF ....
....|..|E-1 2F.7 ....|--- .... ....|--- .... ....
....|..|C-4 LF.F ....|B-4 3FEF ....|B-3 1FFF ....
....|..|--- .... ....|--- .... ....|--- .... ....

[Pattern41]
....|..|C-4 AF.F ....|B-4 3FEF ....|F#3 1FFF ....
 F#3|..|F#1 2A.F ....|--- .... ....|--- .... ....
....|..|C-4 LF.F ....|--- .... ....|--- .... ....
....|..|--- .... ....|--- .... ....|--- .... ....
 F#3|..|C-4 AF.F ....|F#1 2A.F ....|A#3 UFDF ....
 F#3|..|F#1 2A.F ....|--- .... ....|--- .... ....
....|..|C-4 LF.F ....|--- .... ....|--- .... 11.1
....|..|--- .... ....|--- .... ....|--- .... ....
....|..|C-4 BF.F ....|B-4 3FEF ....|C#4 1FFF ....
....|..|R-- .... ....|--- .... ....|--- .... ....
....|..|C-4 LF.F ....|B-4 3FE7 ....|B-3 1FF7 ....
....|..|--- .... ....|--- .... ....|--- .... ....
 F#3|..|C-4 AF.F ....|F#1 2A.F ....|C#4 UFDF ....
 F#3|..|F#1 2A.F ....|--- .... ....|--- .... ....
....|..|C-4 LF.F ....|--- .... ....|--- .... ....
....|..|--- .... ....|--- .... ....|--- .... ....
....|..|C-4 LF.F ....|B-4 3FEF ....|F#3 1FFF ....
....|..|R-- .... ....|--- .... ....|--- .... ....
....|..|B-8 JF.F ....|--- .... 11.1|--- .... ....
....|..|--- .... ....|--- .... ....|--- .... ....
....|..|B-8 JF.F ....|B-4 3FE7 ....|D#4 UFDF ....
....|..|R-- .... ....|--- .... ....|--- .... ....
....|..|C-4 LF.F ....|B-4 3FE7 ....|B-3 1FF7 ....
....|..|--- .... ....|--- .... ....|--- .... ....
....|..|C-4 RF.F ....|B-4 3FEF ....|C#4 1FFF ....
....|..|F#1 2F.7 ....|--- .... ....|--- .... ....
....|..|C-4 LF.F ....|--- .... ....|--- .... ....
....|..|--- .... ....|--- .... ....|--- .... ....
....|..|C-4 LF.F ....|F#1 2F.7 ....|C#4 UFDF ....
....|..|F#1 2F.7 ....|--- .... ....|--- .... ....
....|..|C-4 LF.F ....|--- .... ....|--- .... ....
....|..|--- .... ....|--- .... ....|--- .... ....
....|..|C-4 AF.F ....|D#5 3FEF ....|D#4 1FFF ....
 B-3|..|B-1 2A.F ....|--- .... ....|--- .... ....
....|..|C-4 LF.F ....|--- .... 11.1|--- .... ....
....|..|--- .... ....|--- .... ....|--- .... ....
 B-3|..|C-4 AF.F ....|B-1 2A.F ....|F#4 UFDF ....
 B-3|..|B-1 2A.F ....|--- .... ....|--- .... ....
....|..|C-4 LF.F ....|--- .... ....|--- .... ....
....|..|--- .... ....|--- .... ....|--- .... ....
....|..|C-4 BF.F ....|C#5 3FEF ....|C#4 1FFF ....
....|..|R-- .... ....|--- .... ....|--- .... ....
....|..|C-4 LF.F ....|--- .... ....|--- .... ....
....|..|--- .... ....|--- .... ....|--- .... ....
 B-3|..|C-4 AF.F ....|B-1 2A.F ....|D#4 UFDF ....
 B-3|..|B-1 2A.F ....|--- .... ....|--- .... ....
....|..|C-4 LF.F ....|--- .... ....|--- .... ....
....|..|--- .... ....|--- .... ....|--- .... ....
....|..|C-4 LF.F ....|D#5 3FEF ....|D#4 1FFF ....
....|..|R-- .... ....|--- .... ....|--- .... ....
....|..|B-8 JF.F ....|--- .... 11.1|--- .... ....
....|..|--- .... ....|--- .... ....|--- .... ....
....|..|B-8 JF.F ....|C#5 3FEA ....|F#4 UFDF ....
....|..|R-- .... ....|--- .... ....|--- .... ....
....|..|C-4 LF.F ....|--- .... ....|--- .... ....
....|..|--- .... ....|--- .... ....|--- .... ....
....|..|C-4 RF.F ....|C#5 3FEF ....|C#4 1FFF ....
....|..|B-1 2F.7 ....|--- .... ....|--- .... ....
....|..|C-4 LF.F ....|--- .... ....|--- .... ....
....|..|--- .... ....|--- .... ....|--- .... ....
....|..|C-4 LF.F ....|B-1 2F.7 ....|D#4 UFDF ....
....|..|B-1 2F.7 ....|--- .... ....|--- .... ....
....|..|C-4 LF.F ....|--- .... ....|--- .... ....
....|..|--- .... ....|--- .... ....|--- .... ....

[Pattern42]
....|..|C-4 AF.F ....|B-4 3FEF ....|D#4 1FFF ....
 G#3|..|G#1 2A.F ....|--- .... ....|--- .... ....
....|..|C-4 LF.F ....|--- .... ....|--- .... ....
....|..|--- .... ....|--- .... ....|--- .... ....
 G#3|..|C-4 AF.F ....|G#1 2A.F ....|C#4 1FFF ....
 G#3|..|G#1 2A.F ....|--- .... ....|--- .... ....
....|..|C-4 LF.F ....|--- .... ....|--- .... ....
....|..|--- .... ....|--- .... ....|--- .... ....
....|..|C-4 BF.F ....|B-4 3FEF ....|D#4 1FFF ....
....|..|R-- .... ....|--- .... ....|--- .... ....
....|..|C-4 LF.F ....|--- .... ....|--- .... ....
....|..|--- .... ....|--- .... ....|--- .... ....
 G#3|..|C-4 AF.F ....|G#1 2A.F ....|C#4 1FFF ....
 G#3|..|G#1 2A.F ....|--- .... ....|--- .... ....
....|..|C-4 LF.F ....|--- .... ....|--- .... ....
....|..|--- .... ....|--- .... ....|--- .... ....
....|..|C-4 LF.F ....|D#5 3FEF ....|D#4 1FFF ....
....|..|R-- .... ....|--- .... ....|--- .... ....
....|..|B-8 JF.F ....|--- .... 11.1|--- .... ....
....|..|--- .... ....|--- .... ....|--- .... ....
....|..|B-8 JF.F ....|B-4 3FEA ....|D#4 UFDF ....
....|..|R-- .... ....|--- .... ....|--- .... ....
....|..|C-4 LF.F ....|--- .... ....|--- .... ....
....|..|--- .... ....|--- .... ....|--- .... ....
....|..|C-4 RF.F ....|C#5 3FEF ....|C#4 1FFF ....
....|..|G#1 2F.7 ....|--- .... ....|--- .... ....
....|..|C-4 LF.F ....|--- .... ....|--- .... ....
....|..|--- .... ....|--- .... ....|--- .... ....
....|..|C-4 LF.F ....|G#1 2F.7 ....|C#4 UFDF ....
....|..|G#1 2F.7 ....|--- .... ....|--- .... ....
....|..|C-4 LF.F ....|--- .... ....|--- .... ....
....|..|--- .... ....|--- .... ....|--- .... ....
 E-3|..|C-4 AF.F ....|E-1 2A.F ....|E-3 UFDF ....
 E-3|..|E-1 2A.F ....|--- .... ....|--- .... ....
....|..|C-4 LF.F ....|--- .... ....|--- .... ....
....|..|--- .... ....|--- .... ....|--- .... ....
....|..|C-4 AF.F ....|B-4 3FEF ....|B-3 1FFF ....
 E-3|..|E-1 2A.F ....|--- .... ....|--- .... ....
....|..|C-4 LF.F ....|B-4 3FEF ....|B-3 1FFF ....
....|..|--- .... ....|--- .... ....|--- .... ....
....|..|C-4 BF.F ....|B-4 3FEF ....|B-3 1FFF ....
....|..|R-- .... ....|--- .... ....|--- .... ....
....|..|C-4 LF.F ....|--- .... 11.1|--- .... ....
....|..|--- .... ....|--- .... ....|--- .... ....
....|..|C-4 AF.F ....|B-4 3FEF ....|B-3 1FFF ....
 E-3|..|E-1 2A.F ....|--- .... ....|--- .... ....
....|..|C-4 LF.F ....|--- .... ....|--- .... ....
....|..|--- .... ....|--- .... ....|--- .... ....
....|..|C-4 LF.F ....|B-4 3FEF ....|B-3 1FFF ....
....|..|R-- .... ....|--- .... ....|--- .... ....
....|..|B-8 JF.F ....|B-4 3FEA ....|B-3 1FFA ....
....|..|--- .... ....|--- .... ....|--- .... ....
....|..|B-8 JF.F ....|B-4 3FEF ....|B-3 1FFF ....
....|..|R-- .... ....|--- .... ....|--- .... ....
....|..|C-4 LF.F ....|--- .... 11.1|--- .... ....
....|..|--- .... ....|--- .... ....|--- .... ....
....|..|C-4 RF.F ....|B-4 3FEF ....|B-3 1FFF ....
....|..|E-1 2F.7 ....|--- .... ....|--- .... ....
....|..|C-4 LF.F ....|--- .... ....|--- .... ....
....|..|--- .... ....|--- .... ....|--- .... ....
....|..|C-4 LF.F ....|B-4 3FEF ....|B-3 1FFF ....
....|..|E-1 2F.7 ....|--- .... ....|--- .... ....
....|..|C-4 LF.F ....|B-4 3FE7 ....|B-3 1FF7 ....
....|..|--- .... ....|--- .... ....|--- .... ....

[Pattern43]
....|..|C-4 AF.F ....|B-4 3FEF ....|D#4 1FFF ....
 F#3|..|F#1 2A.F ....|--- .... ....|--- .... ....
....|..|C-4 LF.F ....|--- .... ....|--- .... ....
....|..|--- .... ....|--- .... ....|--- .... ....
 F#3|..|C-4 AF.F ....|F#1 2A.F ....|A#3 UFDF ....
 F#3|..|F#1 2A.F ....|--- .... ....|--- .... ....
....|..|C-4 LF.F ....|--- .... ....|--- .... ....
....|..|--- .... ....|--- .... ....|--- .... ....
....|..|C-4 BF.F ....|B-4 3FEF ....|C#4 1FFF ....
....|..|R-- .... ....|--- .... ....|--- .... ....
....|..|C-4 LF.F ....|--- .... 11.1|--- .... ....
....|..|--- .... ....|--- .... ....|--- .... ....
 F#3|..|C-4 AF.F ....|F#1 2A.F ....|C#4 UFDF ....
 F#3|..|F#1 2A.F ....|--- .... ....|--- .... ....
....|..|C-4 LF.F ....|--- .... ....|--- .... ....
....|..|--- .... ....|--- .... ....|--- .... ....
....|..|C-4 LF.F ....|B-4 3FEF ....|D#4 1FFF ....
....|..|R-- .... ....|--- .... ....|--- .... ....
....|..|B-8 JF.F ....|--- .... ....|--- .... ....
....|..|--- .... ....|--- .... ....|--- .... ....
....|..|B-8 JF.F ....|B-4 3FE7 ....|D#4 UFDF ....
....|..|R-- .... ....|--- .... ....|--- .... ....
....|..|C-4 LF.F ....|--- .... ....|--- .... ....
....|..|--- .... ....|--- .... ....|--- .... ....
....|..|C-4 RF.F ....|B-4 3FEF ....|C#4 1FFF ....
....|..|F#1 2F.7 ....|--- .... ....|--- .... ....
....|..|C-4 LF.F ....|--- .... 11.1|--- .... ....
....|..|--- .... ....|--- .... ....|--- .... ....
....|..|C-4 LF.F ....|F#1 2F.7 ....|C#4 UFDF ....
....|..|F#1 2F.7 ....|--- .... ....|--- .... ....
....|..|C-4 LF.F ....|--- .... ....|--- .... ....
....|..|--- .... ....|--- .... ....|--- .... ....
....|..|C-4 AF.F ....|B-3 3FEF ....|B-3 1FFF ....
 B-3|..|B-1 2A.F ....|--- .... ....|--- .... ....
....|..|C-4 LF.F ....|--- .... 11.1|--- .... ....
....|..|--- .... ....|--- .... ....|--- .... ....
....|..|C-4 AF.F ....|B-3 3F.F ....|B-3 1FFF ....
 B-3|..|B-1 2A.F ....|--- .... ....|--- .... ....
....|..|C-4 LF.F ....|--- .... 11.1|--- .... ....
....|..|--- .... ....|--- .... ....|--- .... ....
....|..|C-4 BF.F ....|B-3 3F.F ....|B-3 1FFF ....
....|..|R-- .... ....|--- .... ....|--- .... ....
....|..|C-4 LF.F ....|R-- .... ....|R-- .... ....
....|..|--- .... ....|--- .... ....|--- .... ....
....|..|C-4 AF.F ....|B-3 3FEF ....|B-3 1FFF ....
 B-3|..|B-1 2A.F ....|--- .... ....|--- .... ....
....|..|C-4 LF.F ....|--- .... ....|--- .... ....
....|..|--- .... ....|--- .... ....|--- .... ....
....|..|C-4 LF.F ....|B-3 3FEF ....|B-3 1FFF ....
....|..|R-- .... ....|--- .... ....|--- .... ....
....|..|C-4 LF.F ....|--- .... ....|--- .... ....
....|..|--- .... ....|--- .... ....|--- .... ....
....|..|C-4 LF.F ....|B-3 3FEF ....|B-3 1FFF ....
....|..|R-- .... ....|--- .... ....|--- .... ....
....|..|C-4 LF.F ....|R-- .... ....|R-- .... ....
....|..|--- .... ....|--- .... ....|--- .... ....
....|..|C-4 RF.F ....|B-5 3FEF ....|B-3 UFDF ....
....|..|B-1 2F.7 ....|--- .... ....|--- .... ....
....|..|C-4 LF.F ....|A#5 3FEF ....|--- .... ....
....|..|--- .... ....|G#5 3FEF ....|--- .... ....
....|..|C-4 LF.F ....|F#5 3FEF ....|D#4 UFDF ....
....|..|B-1 2F.7 ....|E-5 3FEF ....|--- .... ....
....|..|C-4 LF.F ....|D#5 3FEF ....|--- .... ....
....|..|--- .... ....|C#5 3FEF ....|--- .... ....

[Pattern44]
....|..|C-4 AF.F ....|B-3 3FEF ....|B-3 1FFF ....
 G#3|..|G#1 2A.F ....|--- .... ....|--- .... ....
....|..|C-4 LF.F ....|R-- .... ....|R-- .... ....
....|..|--- .... ....|--- .... ....|--- .... ....
....|..|C-4 AF.F ....|B-3 3FEF ....|B-3 1FFF ....
 G#3|..|G#1 2A.F ....|--- .... ....|--- .... ....
....|..|C-4 LF.F ....|A#5 3FEA ....|--- .... ....
....|..|--- .... ....|G#5 3FEA ....|--- .... ....
....|..|C-4 BF.F ....|B-3 3FEF ....|B-3 1FFF ....
....|..|R-- .... ....|E-5 3FEA ....|--- .... ....
....|..|C-4 LF.F ....|R-- .... ....|R-- .... ....
....|..|--- .... ....|C#5 3FEA ....|--- .... ....
....|..|C-4 AF.F ....|B-3 3FEF ....|B-3 1FFF ....
 G#3|..|G#1 2A.F ....|--- .... ....|--- .... ....
....|..|C-4 LF.F ....|R-- .... ....|R-- .... ....
....|..|--- .... ....|--- .... ....|--- .... ....
....|..|C-4 LF.F ....|B-3 3FEF ....|B-3 1FFF ....
....|..|R-- .... ....|--- .... ....|--- .... ....
....|..|C-4 LF.F ....|A#5 3FE7 ....|--- .... ....
....|..|--- .... ....|G#5 3FE7 ....|--- .... ....
....|..|C-4 LF.F ....|B-3 3FEF ....|B-3 1FFF ....
....|..|R-- .... ....|E-5 3FE7 ....|--- .... ....
....|..|C-4 LF.F ....|D#5 3FE7 ....|R-- .... ....
....|..|--- .... ....|C#5 3FE7 ....|--- .... ....
....|..|C-4 RF.F ....|B-5 3FEF ....|G#3 UFDF ....
....|..|G#1 2F.7 ....|--- .... ....|--- .... ....
....|..|C-4 LF.F ....|A#5 3FEF ....|--- .... ....
....|..|--- .... ....|G#5 3FEF ....|--- .... ....
....|..|C-4 LF.F ....|F#5 3FEF ....|C#4 UFDF ....
....|..|G#1 2F.7 ....|E-5 3FEF ....|--- .... ....
....|..|C-4 LF.F ....|D#5 3FEF ....|--- .... ....
....|..|--- .... ....|C#5 3FEF ....|--- .... ....
....|..|C-4 AF.F ....|B-3 3FEF ....|B-3 1FFF ....
 E-3|..|E-1 2A.F ....|--- .... ....|--- .... ....
....|..|C-4 LF.F ....|R-- .... ....|R-- .... ....
....|..|--- .... ....|--- .... ....|--- .... ....
 E-3|..|C-4 AF.F ....|E-1 2A.F ....|B-3 UFDF ....
 E-3|..|E-1 2A.F ....|--- .... ....|--- .... ....
....|..|C-4 LF.F ....|A#5 3FEA ....|--- .... ....
....|..|--- .... ....|G#5 3FEA ....|--- .... ....
....|..|C-4 BF.F ....|B-3 3FEF ....|B-3 1FFF ....
....|..|R-- .... ....|E-5 3FEA ....|--- .... ....
....|..|C-4 LF.F ....|D#5 3FEA ....|--- .... ....
....|..|--- .... ....|C#5 3FEA ....|--- .... ....
 E-3|..|C-4 AF.F ....|E-1 2A.F ....|D#4 UFDF ....
 E-3|..|E-1 2A.F ....|--- .... ....|--- .... ....
....|..|C-4 LF.F ....|R-- .... ....|R-- .... ....
....|..|--- .... ....|--- .... ....|--- .... ....
....|..|C-4 LF.F ....|B-3 3FEF ....|B-3 1FFF ....
....|..|R-- .... ....|--- .... ....|--- .... ....
....|..|B-8 JF.F ....|A#5 3FE7 ....|--- .... ....
....|..|--- .... ....|G#5 3FE7 ....|--- .... ....
....|..|B-8 JF.F ....|F#5 3FE7 ....|C#4 UFDF ....
....|..|R-- .... ....|E-5 3FE7 ....|--- .... ....
....|..|C-4 LF.F ....|D#5 3FE7 ....|--- .... ....
....|..|--- .... ....|C#5 3FE7 ....|--- .... ....
....|..|C-4 RF.F ....|B-3 3FEF ....|B-3 1FFF ....
....|..|E-1 2F.7 ....|--- .... ....|--- .... ....
....|..|C-4 LF.F ....|--- .... ....|--- .... ....
....|..|--- .... ....|--- .... ....|--- .... ....
....|..|C-4 LF.F ....|E-1 2F.7 ....|E-4 UFDF ....
....|..|E-1 2F.7 ....|--- .... ....|--- .... ....
....|..|C-4 LF.F ....|--- .... ....|--- .... ....
....|..|--- .... ....|--- .... ....|--- .... ....

[Pattern45]
....|..|C-4 AF.F ....|D#4 3FEF ....|D#4 1FFF ....
 F#3|..|F#1 2A.F ....|--- .... ....|--- .... ....
....|..|C-4 LF.F ....|--- .... ....|--- .... ....
....|..|--- .... ....|--- .... ....|--- .... ....
....|..|C-4 AF.F ....|C#4 3FEF ....|C#4 1FFF ....
 F#3|..|F#1 2A.F ....|--- .... ....|--- .... ....
....|..|C-4 LF.F ....|--- .... ....|--- .... ....
....|..|--- .... ....|--- .... ....|--- .... ....
....|..|C-4 BF.F ....|C#4 3FEF ....|C#4 1FFF ....
....|..|R-- .... ....|--- .... ....|--- .... ....
....|..|C-4 LF.F ....|--- .... ....|--- .... ....
....|..|--- .... ....|--- .... ....|--- .... ....
....|..|C-4 AF.F ....|C#4 3FEF ....|C#4 1FFF ....
 F#3|..|F#1 2A.F ....|--- .... ....|--- .... ....
....|..|C-4 LF.F ....|--- .... ....|--- .... ....
....|..|--- .... ....|--- .... ....|--- .... ....
....|..|C-4 LF.F ....|B-3 3FEF ....|B-3 1FFF ....
....|..|R-- .... ....|--- .... ....|--- .... ....
....|..|B-8 JF.F ....|--- .... ....|--- .... ....
....|..|--- .... ....|--- .... ....|--- .... ....
....|..|B-8 JF.F ....|A#3 3FEF ....|A#3 1FFF ....
....|..|R-- .... ....|--- .... ....|--- .... ....
....|..|C-4 LF.F ....|--- .... ....|--- .... ....
....|..|--- .... ....|--- .... ....|--- .... ....
....|..|C-4 RF.F ....|G#3 3FEF ....|G#3 1FFF ....
....|..|F#1 2F.7 ....|--- .... ....|--- .... ....
....|..|C-4 LF.F ....|--- .... ....|--- .... ....
....|..|--- .... ....|--- .... ....|--- .... ....
....|..|C-4 LF.F ....|A#3 3FEF ....|A#3 1FFF ....
....|..|F#1 2F.7 ....|--- .... ....|--- .... ....
....|..|C-4 LF.F ....|--- .... ....|--- .... ....
....|..|--- .... ....|--- .... ....|--- .... ....
....|..|C-4 AF.F ....|D#5 3FEF ....|D#4 1FFF ....
 B-3|..|B-1 2A.F ....|--- .... ....|--- .... ....
....|..|C-4 LF.F ....|--- .... 11.1|--- .... ....
....|..|--- .... ....|--- .... ....|--- .... ....
 B-3|..|C-4 AF.F ....|B-1 2A.F ....|F#4 UFDF ....
 B-3|..|B-1 2A.F ....|--- .... ....|--- .... ....
....|..|C-4 LF.F ....|--- .... ....|--- .... ....
....|..|--- .... ....|--- .... ....|--- .... ....
....|..|C-4 BF.F ....|C#5 3FEF ....|C#4 1FFF ....
....|..|R-- .... ....|--- .... ....|--- .... ....
....|..|C-4 LF.F ....|--- .... ....|--- .... ....
....|..|--- .... ....|--- .... ....|--- .... ....
 B-3|..|C-4 AF.F ....|B-1 2A.F ....|D#4 UFDF ....
 B-3|..|B-1 2A.F ....|--- .... ....|--- .... ....
....|..|C-4 LF.F ....|--- .... 11.1|--- .... ....
....|..|--- .... ....|--- .... ....|--- .... ....
....|..|C-4 LF.F ....|D#5 3FEF ....|D#4 1FFF ....
....|..|R-- .... ....|--- .... ....|--- .... ....
....|..|C-4 LF.F ....|--- .... ....|--- .... ....
....|..|--- .... ....|--- .... ....|--- .... ....
....|..|C-4 LF.F ....|A#3 3FE7 ....|F#4 UFDF ....
....|..|R-- .... ....|--- .... ....|--- .... ....
....|..|C-4 LF.F ....|--- .... 11.1|--- .... ....
....|..|--- .... ....|--- .... ....|--- .... ....
....|..|C-4 RF.F ....|C#5 3FEF ....|C#4 1FFF ....
....|..|B-1 2F.7 ....|--- .... ....|--- .... ....
....|..|C-4 LF.F ....|--- .... 11.1|--- .... ....
....|..|--- .... ....|--- .... ....|--- .... ....
....|..|C-4 LF.F ....|B-1 2F.7 ....|D#4 UFDF ....
....|..|B-1 2F.7 ....|--- .... ....|--- .... ....
....|..|C-4 LF.F ....|--- .... ....|--- .... ....
....|..|--- .... ....|--- .... ....|--- .... ....

[Pattern51]
....|..|C-4 AF.F ....|D#4 3FEF ....|D#4 1FFF ....
 F#3|..|F#1 2A.F ....|--- .... ....|--- .... ....
....|..|C-4 LF.F ....|--- .... 11.1|--- .... ....
....|..|--- .... ....|--- .... ....|--- .... ....
....|..|C-4 AF.F ....|C#4 3FEF ....|C#4 1FFF ....
 F#3|..|F#1 2A.F ....|--- .... ....|--- .... ....
....|..|C-4 LF.F ....|--- .... ....|--- .... 11.1
....|..|--- .... ....|--- .... ....|--- .... ....
....|..|C-4 BF.F ....|C#4 3FEF ....|C#4 1FFF ....
....|..|R-- .... ....|--- .... ....|--- .... ....
....|..|C-4 LF.F ....|--- .... 11.1|--- .... ....
....|..|--- .... ....|--- .... ....|--- .... ....
....|..|C-4 AF.F ....|C#4 3FEF ....|C#4 1FFF ....
 F#3|..|F#1 2A.F ....|--- .... ....|--- .... ....
....|..|C-4 LF.F ....|--- .... ....|--- .... ....
....|..|--- .... ....|--- .... ....|--- .... ....
....|..|C-4 LF.F ....|B-3 3FEF ....|B-3 1FFF ....
....|..|R-- .... ....|--- .... ....|--- .... ....
....|..|B-8 JF.F ....|--- .... ....|--- .... ....
....|..|--- .... ....|--- .... ....|--- .... ....
....|..|B-8 JF.F ....|A#3 3FEF ....|A#3 1FFF ....
....|..|R-- .... ....|--- .... ....|--- .... ....
....|..|C-4 LF.F ....|--- .... ....|--- .... ....
....|..|--- .... ....|--- .... ....|--- .... ....
....|..|C-4 RF.F ....|G#3 3FEF ....|G#3 1FFF ....
....|..|F#1 2F.7 ....|--- .... ....|--- .... ....
....|..|C-4 LF.F ....|--- .... ....|--- .... ....
....|..|--- .... ....|--- .... ....|--- .... ....
....|..|C-4 LF.F ....|A#3 3FEF ....|A#3 1FFF ....
....|..|F#1 2F.7 ....|--- .... ....|--- .... ....
....|..|C-4 LF.F ....|--- .... ....|--- .... ....
....|..|--- .... ....|--- .... ....|--- .... ....
....|..|C-4 AF.F ....|C#4 3FE7 ....|B-3 1FFF ....
....|..|R-- .... ....|--- .... ....|--- .... ....
....|..|C-4 LF.7 ....|--- .... ....|--- .... 11.1
....|..|--- .... ....|--- .... ....|--- .... ....
....|..|C-4 AF.7 ....|C#4 3FE7 ....|C#4 1FF7 ....
....|..|F#1 2F.7 ....|--- .... ....|--- .... ....
....|..|C-4 LF.7 ....|--- .... ....|--- .... ....
....|..|--- .... ....|--- .... ....|--- .... ....
....|..|C-4 LF.7 ....|B-3 3FE7 ....|B-3 1FF7 ....
....|..|R-- .... ....|--- .... ....|--- .... ....
....|..|B-8 JF.7 ....|--- .... ....|--- .... ....
....|..|--- .... ....|--- .... ....|--- .... ....
....|..|B-8 JF.7 ....|A#3 3FE7 ....|A#3 1FF7 ....
....|..|--- .... ....|--- .... ....|--- .... ....
....|..|C-4 LF.7 ....|--- .... ....|--- .... ....
....|..|--- .... ....|--- .... ....|--- .... ....
....|..|C-4 RF.7 ....|G#3 3FE7 ....|G#3 1FF7 ....
....|..|--- .... ....|--- .... ....|--- .... ....
....|..|C-4 LF.7 ....|--- .... ....|--- .... ....
....|..|--- .... ....|--- .... ....|--- .... ....
....|..|C-4 LF.7 ....|A#3 3FE7 ....|A#3 1FF7 ....
....|..|--- .... ....|--- .... ....|--- .... ....
....|..|C-4 LF.7 ....|--- .... ....|--- .... ....
....|..|--- .... ....|--- .... ....|--- .... ....
....|..|C-4 AF.7 ....|R-- .... ....|B-3 1FF7 ....
....|..|--- .... ....|--- .... ....|--- .... ....
....|..|--- .... ....|--- .... ....|--- .... ....
....|..|--- .... ....|--- .... ....|--- .... ....
....|..|--- .... ....|--- .... ....|--- .... ....
....|..|--- .... ....|--- .... ....|--- .... ....
....|..|--- .... ....|--- .... ....|--- .... ....
....|..|--- .... ....|--- .... ....|--- .... ....

