[Module]
VortexTrackerII=0
Version=3.5
Title=2me,3p[3]-2me[4f]+,5m-4p+-9p+-2me[6e]+
Author=oisee ^ 4d 29.05.2010
NoteTable=4
ChipFreq=1750000
Speed=3
PlayOrder=L0,1,2,2,2,2,2,7,8,9,10,11,12,13,14,15,16,17,18,19,20,21,22,23,24,25,26,27,28,29,30,31,32,33,34,35

[Ornament1]
L0,1,3

[Ornament2]
L0,4

[Ornament3]
L0,3,7

[Ornament4]
L0,3

[Ornament5]
L0,4,8

[Ornament6]
L0,2,4,8

[Ornament7]
L0,4,7

[Ornament8]
L0,2

[Ornament9]
L0,3,6

[Ornament10]
L0,2,4,7

[Ornament11]
L0

[Ornament12]
L0

[Ornament13]
L0

[Ornament14]
L0

[Ornament15]
L0

[Sample1]
TnE +000_ +00_ F_
TnE +000_ +00_ F_
TnE +000_ +00_ F_
TnE +000_ +00_ D_
TnE +000_ +00_ B_
TnE +000_ +00_ B_ L

[Sample2]
TnE +000_ +00_ F_ L

[Sample3]
TnE +001_ +00_ F_
TnE +002_ +00_ F_
TnE +001_ +00_ E_
TnE +002_ +00_ E_
TnE +000_ +00_ E_ L
TnE -001_ +00_ E_
TnE -002_ +00_ E_
TnE -001_ +00_ E_
TnE +000_ +00_ E_
TnE +001_ +00_ E_
TnE +002_ +00_ E_
TnE +001_ +00_ E_

[Sample4]
TnE +002_ +00_ D_
TnE +002_ +00_ D_
TnE +002_ +00_ C_
TnE +002_ +00_ B_
TnE +002_ +00_ A_ L
TnE +002_ +00_ A_
TnE +002_ +00_ A_
TnE +002_ +00_ A_
TnE +002_ +00_ A_
TnE +002_ +00_ A_
TnE +002_ +00_ A_
TnE +002_ +00_ A_

[Sample5]
TnE +000_ +00_ F_
TnE +000_ +00_ F_
tne +000_ +00_ 0_ L

[Sample6]
TnE -001_ +00_ F_ L

[Sample7]
TnE +006_ +00_ F_ L

[Sample8]
tNe +000_ +00_ F_
tNe +000_ +00_ B_
tNe +000_ +00_ 7_
tNe +000_ +00_ 6- L

[Sample9]
TnE +080_ +00_ F_
TnE +100_ +00_ E_
TnE +180_ +00_ E_
TnE +200_ +00_ E_
TnE +240_ +00_ D_
TnE +280_ +00_ D_
TnE +2C0_ +00_ D_
TnE +300_ +00_ C_
TnE +300_ +00_ C_
TnE +340_ +00_ C_
TnE +340_ +00_ C_
TnE +380_ +00_ B_
TnE +380_ +00_ B_
TnE +400_ +00_ B_
TnE +400_ +00_ B_
TnE +480_ +00_ A_
TnE +500_ +00_ 9_
TnE +580_ +00_ 7_
TnE +600_ +00_ 4_
TnE +680_ +00_ 1_
TnE +000_ +00_ 0_ L

[Sample10]
Tne +1C0_ +00_ F_
Tne +280_ +00_ E_
Tne +380_ +00_ C_
Tne +440_ +00_ A_
Tne +480_ +00_ 8_
TnE +000_ +00_ 0_ L

[Sample11]
TNe +200_ -0A_ F_
tNe +000_ +0F_ A_
TNe +200_ -07_ E_
tNe +000_ +0E_ B- L

[Sample12]
TNE +0A0_ +05_ F_
TNE +140_ +02_ D_
TNE +140_ +02_ B_
TNE +100_ +00_ A_ L
TNE +140_ +00_ A_
TNE +200_ +00_ A-

[Sample13]
Tne +200_ +00_ F_
Tne +2C0_ +00_ F_
Tne +380_ +00_ E_
Tne +500_ +00_ C_
Tne +520_ +00_ 9_
tne +000_ +00_ 0_ L

[Sample14]
TNE -100_ +00_ F_
TNE -100_ +00_ D_
TNE -100_ +00_ A_
TNE -100_ +00_ 5_
tne +000_ +00_ 0_ L

[Sample15]
TNE -100_ +00_ 5_
TNE -100_ +00_ 8_
TNE -100_ +00_ B_
TNE -100_ +00_ F_
TNe -100_ +00_ 9- L

[Sample16]
TnE +000_ +00_ C_
TnE +000_ +00_ E_
TnE +000_ +00_ F_
TnE +000_ +00_ F_
TnE +000_ +00_ E_
TnE +000_ +00_ D_
TnE +000_ +00_ C_
TnE +000_ +00_ C_ L
TnE +001_ +00_ C_
TnE +002_ +00_ C_
TnE +003_ +00_ C_
TnE +001_ +00_ C_
TnE +000_ +00_ C_
TnE -001_ +00_ C_
TnE -002_ +00_ C_
TnE -003_ +00_ C_
TnE -001_ +00_ C_
TnE +000_ +00_ C_
TnE +000_ +00_ C_

[Sample17]
Tne +1C0_ +00_ F_
Tne +280_ +00_ D_
Tne +380_ +00_ 7_
TNE +000_ +00_ 0_ L

[Sample18]
TnE -00C_ +00_ 0_ L

[Sample19]
TNe +000_ +00_ F_
TNe +000_ +00_ C_
TNe +000_ +00_ 6_
TNe +000_ +01_ A- L

[Sample20]
TNE +140_ +00_ F_
tNE +000_ +00_ B- L

[Sample21]
tNE +000_ +00_ D_
tNE +000_ +00_ 8_
tNE +000_ +00_ 1_
TNE +000_ +00_ 0_ L

[Sample22]
TnE +000_ +00_ D_ L
TnE +000_ +00_ D_
tne +000_ +00_ 9_
tne +000_ +00_ 9_
TnE +000_ +00_ D_
TnE +000_ +00_ D_
tne +000_ +00_ 9_
tne +000_ +00_ 9_
TnE +000_ +00_ D_
TnE +000_ +00_ D_
TnE +000_ +00_ D_
TnE +000_ +00_ D_
TnE +000_ +00_ D_
TnE +000_ +00_ D_
tne +000_ +00_ 9_
tne +000_ +00_ 9_

[Sample23]
TnE +000_ +00_ F_ L
TnE +010_ +01_ F_
TnE +010_ +01_ F_
TnE +010_ +01_ F_
TnE +010_ +01_ F_
TnE +000_ +00_ F_
TnE +000_ +00_ F_
TnE -010_ -01_ F_
TnE -010_ -01_ F_
TnE -010_ -01_ F_
TnE -010_ -01_ F_
TnE +000_ +00_ F_

[Sample24]
TNe +000_ -01_ C_
TNe +000_ -01_ D_
TNe +000_ -01_ E_
TNe +000_ -01_ F_
TNe +000_ -01_ F_
TNe +000_ -01_ F_
TNe +000_ -01_ F_
TNe +000_ -01_ F_
TNe +000_ -01_ E_
TNe +000_ -01_ E_
TNe +000_ -01_ E_
TNe +000_ -01_ F_
TNe +000_ -01_ F_ L

[Sample25]
TNE +000_ +00_ F_
TNE +000_ +00_ F_ L
TNE +000_ +00_ F_
TNE +000_ +00_ F_
TNE +000_ +00_ F-

[Sample26]
tne +000_ +00_ 0_ L

[Sample27]
TnE +100_ +05_ F_
TnE +200_ +02_ A_
TnE +300_ +02_ 7_
TNE +400_ +00_ 3- L

[Sample28]
tne +000_ +00_ 0_ L

[Sample29]
tnE +000_ +00_ 0_ L

[Sample30]
TNE +000_ +00_ C+ L

[Sample31]
TNe +1C0_ +00_ F_
Tne +280_ +00_ E_
Tne +380_ +00_ C_
Tne +440_ +00_ A_
Tne +480_ +00_ 8_
TnE +000_ +00_ 0_ L

[Pattern0]
....|..|--- .... ....|--- .... ....|--- .... ....
....|..|--- .... ....|--- .... ....|--- .... ....
....|..|--- .... ....|--- .... ....|--- .... ....
....|..|--- .... ....|--- .... ....|--- .... ....
....|..|--- .... ....|--- .... ....|--- .... ....
....|..|--- .... ....|--- .... ....|--- .... ....
....|..|--- .... ....|--- .... ....|--- .... ....
....|..|--- .... ....|--- .... ....|--- .... ....
....|..|--- .... ....|--- .... ....|--- .... ....
....|..|--- .... ....|--- .... ....|--- .... ....
....|..|--- .... ....|--- .... ....|--- .... ....
....|..|--- .... ....|--- .... ....|--- .... ....
....|..|--- .... ....|--- .... ....|--- .... ....
....|..|--- .... ....|--- .... ....|--- .... ....
....|..|--- .... ....|--- .... ....|--- .... ....
....|..|--- .... ....|--- .... ....|--- .... ....
....|..|--- .... ....|--- .... ....|--- .... ....
....|..|--- .... ....|--- .... ....|--- .... ....
....|..|--- .... ....|--- .... ....|--- .... ....
....|..|--- .... ....|--- .... ....|--- .... ....
....|..|--- .... ....|--- .... ....|--- .... ....
....|..|--- .... ....|--- .... ....|--- .... ....
....|..|--- .... ....|--- .... ....|--- .... ....
....|..|--- .... ....|--- .... ....|--- .... ....
....|..|--- .... ....|--- .... ....|--- .... ....
....|..|--- .... ....|--- .... ....|--- .... ....
....|..|--- .... ....|--- .... ....|--- .... ....
....|..|--- .... ....|--- .... ....|--- .... ....
....|..|--- .... ....|--- .... ....|--- .... ....
....|..|--- .... ....|--- .... ....|--- .... ....
....|..|--- .... ....|--- .... ....|--- .... ....
....|..|--- .... ....|--- .... ....|--- .... ....
...F|..|G-2 2A.F ....|C#4 3F1F ....|C#4 2F1F ....
....|..|--- .... ....|--- .... ....|--- .... ....
...F|..|G-2 2A.F ....|C#4 3F1F ....|C#4 2F1F ....
....|..|--- .... ....|--- .... ....|--- .... ....
....|..|R-- .... ....|R-- .... ....|R-- .... ....
....|..|--- .... ....|--- .... ....|--- .... ....
...F|..|G-2 2A.F ....|C#4 3F1F ....|C#4 2F1F ....
....|..|--- .... ....|--- .... ....|--- .... ....
...F|..|G-2 2A.F ....|C#4 3F1F ....|C#4 2F1F ....
....|..|--- .... ....|--- .... ....|--- .... ....
....|..|R-- .... ....|R-- .... ....|R-- .... ....
....|..|--- .... ....|--- .... ....|--- .... ....
...F|..|G-2 2A.F ....|C#4 3F1F ....|C#4 2F1F ....
....|..|--- .... ....|--- .... ....|--- .... ....
...F|..|G-2 2A.F ....|C#4 3F1F ....|C#4 2F1F ....
....|..|--- .... ....|--- .... ....|--- .... ....
....|..|R-- .... ....|R-- .... ....|R-- .... ....
....|..|--- .... ....|--- .... ....|--- .... ....
...F|..|G-2 2A.F ....|C#4 3F1F ....|C#4 2F1F ....
....|..|--- .... ....|--- .... ....|--- .... ....
...F|..|G-2 2A.F ....|C#4 3F1F ....|C#4 2F1F ....
....|..|--- .... ....|--- .... ....|--- .... ....
....|..|R-- .... ....|R-- .... ....|R-- .... ....
....|..|--- .... ....|--- .... ....|--- .... ....
..19|..|A#2 2C.F ....|F#4 3F2F ....|F#4 2F2F ....
....|..|--- .... ....|--- .... ....|--- .... ....
....|..|G-2 2F.7 ....|C#4 3F17 ....|C#4 2F17 ....
....|..|--- .... ....|--- .... ....|--- .... ....
...C|..|B-2 2A.F ....|G-4 3F2F ....|G-4 2F2F ....
....|..|--- .... ....|--- .... ....|--- .... ....
....|..|G-2 2F.7 ....|C#4 3F17 ....|C#4 2F17 ....
....|..|--- .... ....|G-4 3F.F ....|G-5 2F.F ....

[Pattern1]
....|..|G-2 2F.7 ....|C#4 3F17 ....|C#4 2F17 ....
....|..|--- .... ....|--- .... ....|--- .... ....
....|..|R-- .... ....|R-- .... ....|R-- .... ....
....|..|--- .... ....|--- .... ....|--- .... ....
....|..|G-2 2F.7 ....|C#4 3F17 ....|C#4 2F17 ....
....|..|--- .... ....|--- .... ....|--- .... ....
....|..|G-2 2F.7 ....|C#4 3F17 ....|C#4 2F17 ....
....|..|--- .... ....|--- .... ....|--- .... ....
....|..|B-2 2F.A ....|G-4 3F2A ....|G-4 2F2A ....
....|..|--- .... ....|--- .... ....|--- .... ....
....|..|G-2 2F.7 ....|C#4 3F17 ....|C#4 2F17 ....
....|..|--- .... ....|G-4 3F.A ....|G-5 2F.A ....
....|..|G-2 2F.7 ....|C#4 3F17 ....|C#4 2F17 ....
....|..|--- .... ....|--- .... ....|--- .... ....
....|..|R-- .... ....|R-- .... ....|R-- .... ....
....|..|--- .... ....|--- .... ....|--- .... ....
....|..|A#2 2F.7 ....|F#4 3F27 ....|F#4 2F27 ....
....|..|--- .... ....|--- .... ....|--- .... ....
....|..|--- .... ....|--- .... ....|--- .... ....
....|..|--- .... ....|--- .... ....|--- .... ....
....|..|B-2 2F.7 ....|G-4 3F27 ....|G-4 2F27 ....
....|..|--- .... ....|--- .... ....|--- .... ....
....|..|--- .... ....|--- .... ....|--- .... ....
....|..|--- .... ....|G-4 3F.7 ....|G-5 2F.7 ....
....|..|R-- .... ....|R-- .... ....|R-- .... ....
....|..|--- .... ....|--- .... ....|--- .... ....
....|..|--- .... ....|--- .... ....|--- .... ....
....|..|--- .... ....|--- .... ....|--- .... ....
....|..|--- .... ....|--- .... ....|--- .... ....
....|..|--- .... ....|--- .... ....|--- .... ....
....|..|--- .... ....|--- .... ....|--- .... ....
....|..|--- .... ....|--- .... ....|--- .... ....
..16|..|C-2 2A.F ....|C-2 2AFF ....|C-2 2AEF ....
....|..|--- .... ....|--- .... ....|--- .... ....
....|..|--- .... ....|--- .... ....|--- .... ....
....|..|--- .... ....|--- .... ....|--- .... ....
....|..|--- .... ....|--- .... ....|--- .... ....
....|..|--- .... ....|--- .... ....|--- .... ....
...F|..|G-2 2A.F ....|G-2 2AFF ....|G-2 2AEF ....
....|..|--- .... ....|--- .... ....|--- .... ....
....|..|--- .... ....|--- .... ....|--- .... ....
....|..|--- .... ....|--- .... ....|--- .... ....
....|..|--- .... ....|--- .... ....|--- .... ....
....|..|--- .... ....|--- .... ....|--- .... ....
..10|..|F#2 2A.F ....|F#2 2AFF ....|F#2 2AEF ....
....|..|--- .... ....|--- .... ....|--- .... ....
....|..|--- .... ....|--- .... ....|--- .... ....
....|..|--- .... ....|--- .... ....|--- .... ....
..11|..|F-2 2A.F ....|F-2 2AFF ....|F-2 2AEF ....
....|..|--- .... ....|--- .... ....|--- .... ....
....|..|G-2 2F.A ....|G-2 2FFA ....|G-2 2FEA ....
....|..|--- .... ....|--- .... ....|--- .... ....
....|..|--- .... ....|--- .... ....|--- .... ....
....|..|--- .... ....|--- .... ....|--- .... ....
..13|..|D#2 2A.F ....|D#2 2AFF ....|D#2 2AEF ....
....|..|--- .... ....|--- .... ....|--- .... ....
....|..|C-2 2F.7 ....|C-2 2FF7 ....|C-2 2FE7 ....
....|..|--- .... ....|--- .... ....|--- .... ....
....|..|--- .... ....|--- .... ....|--- .... ....
....|..|--- .... ....|--- .... ....|--- .... ....
..19|..|A#1 2A.F ....|A#1 2AFF ....|A#1 2AEF ....
....|..|--- .... ....|--- .... ....|--- .... ....
....|..|G-2 2F.7 ....|G-2 2FF7 ....|G-2 2FE7 ....
....|..|--- .... ....|--- .... ....|--- .... ....

[Pattern2]
..16|..|C-2 2A.F ....|C-2 2AFF ....|C-2 2AEF ....
....|..|--- .... ....|--- .... ....|--- .... ....
....|..|D#2 2F.A ....|D#2 2FFA ....|D#2 2FEA ....
....|..|--- .... ....|--- .... ....|--- .... ....
....|..|F#2 2F.7 ....|F#2 2FF7 ....|F#2 2FE7 ....
....|..|--- .... ....|--- .... ....|--- .... ....
...F|..|G-2 2A.F ....|G-2 2AFF ....|G-2 2AEF ....
....|..|--- .... ....|--- .... ....|--- .... ....
....|..|F-2 2F.7 ....|F-2 2FF7 ....|F-2 2FE7 ....
....|..|--- .... ....|--- .... ....|--- .... ....
....|..|--- .... ....|--- .... ....|--- .... ....
....|..|--- .... ....|--- .... ....|--- .... ....
..10|..|F#2 2A.F ....|F#2 2AFF ....|F#2 2AEF ....
....|..|--- .... ....|--- .... ....|--- .... ....
....|..|D#2 2F.7 ....|D#2 2FF7 ....|D#2 2FE7 ....
....|..|--- .... ....|--- .... ....|--- .... ....
..11|..|F-2 2A.F ....|F-2 2AFF ....|F-2 2AEF ....
....|..|--- .... ....|--- .... ....|--- .... ....
....|..|G-2 2F.A ....|G-2 2FFA ....|G-2 2FEA ....
....|..|--- .... ....|--- .... ....|--- .... ....
....|..|A#1 2F.7 ....|A#1 2FF7 ....|A#1 2FE7 ....
....|..|--- .... ....|--- .... ....|--- .... ....
..13|..|D#2 2A.F ....|D#2 2AFF ....|D#2 2AEF ....
....|..|--- .... ....|--- .... ....|--- .... ....
....|..|C-2 2F.7 ....|C-2 2FF7 ....|C-2 2FE7 ....
....|..|--- .... ....|--- .... ....|--- .... ....
....|..|--- .... ....|--- .... ....|--- .... ....
....|..|--- .... ....|--- .... ....|--- .... ....
..19|..|A#1 2A.F ....|A#1 2AFF ....|A#1 2AEF ....
....|..|--- .... ....|--- .... ....|--- .... ....
....|..|G-2 2F.7 ....|G-2 2FF7 ....|G-2 2FE7 ....
....|..|--- .... ....|--- .... ....|--- .... ....
..16|..|C-2 2A.F ....|C-2 2AFF ....|C-2 2AEF ....
....|..|--- .... ....|--- .... ....|--- .... ....
....|..|D#2 2F.A ....|D#2 2FFA ....|D#2 2FEA ....
....|..|--- .... ....|--- .... ....|--- .... ....
....|..|F#2 2F.7 ....|F#2 2FF7 ....|F#2 2FE7 ....
....|..|--- .... ....|--- .... ....|--- .... ....
...F|..|G-2 2A.F ....|G-2 2AFF ....|G-2 2AEF ....
....|..|--- .... ....|--- .... ....|--- .... ....
....|..|F-2 2F.7 ....|F-2 2FF7 ....|F-2 2FE7 ....
....|..|--- .... ....|--- .... ....|--- .... ....
....|..|--- .... ....|--- .... ....|--- .... ....
....|..|--- .... ....|--- .... ....|--- .... ....
..10|..|F#2 2A.F ....|F#2 2AFF ....|F#2 2AEF ....
....|..|--- .... ....|--- .... ....|--- .... ....
....|..|D#2 2F.7 ....|D#2 2FF7 ....|D#2 2FE7 ....
....|..|--- .... ....|--- .... ....|--- .... ....
..11|..|F-2 2A.F ....|F-2 2AFF ....|F-2 2AEF ....
....|..|--- .... ....|--- .... ....|--- .... ....
....|..|G-2 2F.A ....|G-2 2FFA ....|G-2 2FEA ....
....|..|--- .... ....|--- .... ....|--- .... ....
....|..|A#1 2F.7 ....|A#1 2FF7 ....|A#1 2FE7 ....
....|..|--- .... ....|--- .... ....|--- .... ....
..13|..|D#2 2A.F ....|D#2 2AFF ....|D#2 2AEF ....
....|..|--- .... ....|--- .... ....|--- .... ....
....|..|C-2 2F.7 ....|C-2 2FF7 ....|C-2 2FE7 ....
....|..|--- .... ....|--- .... ....|--- .... ....
....|..|--- .... ....|--- .... ....|--- .... ....
....|..|--- .... ....|--- .... ....|--- .... ....
..19|..|A#1 2A.F ....|A#1 2AFF ....|A#1 2AEF ....
....|..|--- .... ....|--- .... ....|--- .... ....
....|..|G-2 2F.7 ....|G-2 2FF7 ....|G-2 2FE7 ....
....|..|--- .... ....|--- .... ....|--- .... ....

[Pattern7]
..16|..|C-2 2A.F ....|C-2 2AFF ....|C-2 2AEF ....
....|..|--- .... ....|--- .... ....|--- .... ....
....|..|D#2 2F.A ....|D#2 2FFA ....|D#2 2FEA ....
....|..|--- .... ....|--- .... ....|--- .... ....
....|..|F#2 2F.7 ....|F#2 2FF7 ....|F#2 2FE7 ....
....|..|--- .... ....|--- .... ....|--- .... ....
...F|..|G-2 2A.F ....|G-2 2AFF ....|G-2 2AEF ....
....|..|--- .... ....|--- .... ....|--- .... ....
....|..|F-2 2F.7 ....|F-2 2FF7 ....|F-2 2FE7 ....
....|..|--- .... ....|--- .... ....|--- .... ....
....|..|--- .... ....|--- .... ....|--- .... ....
....|..|--- .... ....|--- .... ....|--- .... ....
..10|..|F#2 2A.F ....|F#2 2AFF ....|F#2 2AEF ....
....|..|--- .... ....|--- .... ....|--- .... ....
....|..|D#2 2F.7 ....|D#2 2FF7 ....|D#2 2FE7 ....
....|..|--- .... ....|--- .... ....|--- .... ....
..11|..|F-2 2A.F ....|F-2 2AFF ....|F-2 2AEF ....
....|..|--- .... ....|--- .... ....|--- .... ....
....|..|G-2 2F.A ....|G-2 2FFA ....|G-2 2FEA ....
....|..|--- .... ....|--- .... ....|--- .... ....
....|..|A#1 2F.7 ....|A#1 2FF7 ....|A#1 2FE7 ....
....|..|--- .... ....|--- .... ....|--- .... ....
..13|..|D#2 2A.F ....|D#2 2AFF ....|D#2 2AEF ....
....|..|--- .... ....|--- .... ....|--- .... ....
....|..|C-2 2F.7 ....|C-2 2FF7 ....|C-2 2FE7 ....
....|..|--- .... ....|--- .... ....|--- .... ....
....|..|--- .... ....|--- .... ....|--- .... ....
....|..|--- .... ....|--- .... ....|--- .... ....
..19|..|A#1 2A.F ....|A#1 2AFF ....|A#1 2AEF ....
....|..|--- .... ....|--- .... ....|--- .... ....
....|..|G-2 2F.7 ....|G-2 2FF7 ....|G-2 2FE7 ....
....|..|--- .... ....|--- .... ....|--- .... ....
..16|..|C-2 2A.F ....|C-3 3F.F ....|C-2 2F.F ....
....|..|--- .... ....|--- .... ....|--- .... ....
....|..|D#2 2F.A ....|G-3 3F.F ....|G-2 2F.F ....
....|..|--- .... ....|--- .... ....|--- .... ....
....|..|F#2 2F.7 ....|F#2 2FF7 ....|F#2 2FE7 ....
....|..|--- .... ....|--- .... ....|--- .... ....
...F|..|G-2 2A.F ....|C-3 3F.F ....|C-2 2F.F ....
....|..|--- .... ....|--- .... ....|--- .... ....
....|..|F-2 2F.7 ....|F#3 3F.F ....|F#2 2F.F ....
....|..|--- .... ....|--- .... ....|--- .... ....
....|..|--- .... ....|R-- .... ....|R-- .... ....
....|..|--- .... ....|--- .... ....|--- .... ....
..10|..|F#2 2A.F ....|C-3 3F.F ....|C-2 2F.F ....
....|..|--- .... ....|--- .... ....|--- .... ....
....|..|D#2 2F.7 ....|D#3 3F.F ....|D#2 2F.F ....
....|..|--- .... ....|--- .... ....|--- .... ....
..11|..|F-2 2A.F ....|F-2 2AFF ....|F-2 2AEF ....
....|..|--- .... ....|--- .... ....|--- .... ....
....|..|G-2 2F.A ....|C-3 3F.F ....|C-2 2F.F ....
....|..|--- .... ....|--- .... ....|--- .... ....
....|..|A#1 2F.7 ....|A#2 3F.F ....|A#1 2F.F ....
....|..|--- .... ....|--- .... ....|--- .... ....
..13|..|D#2 2A.F ....|D#2 2AFF ....|D#2 2AEF ....
....|..|--- .... ....|--- .... ....|--- .... ....
....|..|C-2 2F.7 ....|C-3 3F.7 ....|C-2 2F.7 ....
....|..|--- .... ....|--- .... ....|--- .... ....
....|..|--- .... ....|G-3 3F.7 ....|G-2 2F.7 ....
....|..|--- .... ....|--- .... ....|--- .... ....
..19|..|A#1 2A.F ....|C-3 3F.F ....|C-2 2F.F ....
....|..|--- .... ....|--- .... ....|--- .... ....
....|..|G-2 2F.7 ....|C-3 3F.7 ....|C-2 2F.7 ....
....|..|--- .... ....|--- .... ....|--- .... ....

[Pattern8]
..16|..|C-2 2A.F ....|C-2 2AFF ....|C-2 2AEF ....
....|..|--- .... ....|--- .... ....|--- .... ....
....|..|D#2 2F.A ....|D#2 2FFA ....|D#2 2FEA ....
....|..|--- .... ....|--- .... ....|--- .... ....
....|..|F#2 2F.7 ....|C-3 3F.7 ....|C-2 2F.7 ....
....|..|--- .... ....|--- .... ....|--- .... ....
...F|..|G-2 2A.F ....|G-2 2AFF ....|G-2 2AEF ....
....|..|--- .... ....|--- .... ....|--- .... ....
....|..|F-2 2F.7 ....|F-2 2FF7 ....|F-2 2FE7 ....
....|..|--- .... ....|--- .... ....|--- .... ....
....|..|--- .... ....|C-3 3F.7 ....|C-2 2F.7 ....
....|..|--- .... ....|--- .... ....|--- .... ....
..10|..|F#2 2A.F ....|F#2 2AFF ....|F#2 2AEF ....
....|..|--- .... ....|--- .... ....|--- .... ....
....|..|D#2 2F.7 ....|D#2 2FF7 ....|D#2 2FE7 ....
....|..|--- .... ....|--- .... ....|--- .... ....
..11|..|F-2 2A.F ....|F-2 2AFF ....|F-2 2AEF ....
....|..|--- .... ....|--- .... ....|--- .... ....
....|..|G-2 2F.A ....|G-2 2FFA ....|G-2 2FEA ....
....|..|--- .... ....|--- .... ....|--- .... ....
....|..|A#1 2F.7 ....|C-3 3F.7 ....|C-2 2F.7 ....
....|..|--- .... ....|--- .... ....|--- .... ....
..13|..|D#2 2A.F ....|D#2 2AFF ....|D#2 2AEF ....
....|..|--- .... ....|--- .... ....|--- .... ....
....|..|C-2 2F.7 ....|C-2 2FF7 ....|C-2 2FE7 ....
....|..|--- .... ....|--- .... ....|--- .... ....
....|..|--- .... ....|--- .... ....|--- .... ....
....|..|--- .... ....|--- .... ....|--- .... ....
..19|..|A#1 2A.F ....|A#1 2AFF ....|A#1 2AEF ....
....|..|--- .... ....|--- .... ....|--- .... ....
....|..|G-2 2F.7 ....|G-2 2FF7 ....|G-2 2FE7 ....
....|..|--- .... ....|--- .... ....|--- .... ....
..16|..|C-2 2A.F ....|C-3 3F.F ....|C-2 2F.F ....
....|..|--- .... ....|--- .... ....|--- .... ....
....|..|D#2 2F.A ....|G-3 3F.F ....|G-2 2F.F ....
....|..|--- .... ....|--- .... ....|--- .... ....
....|..|F#2 2F.7 ....|F#2 2FF7 ....|F#2 2FE7 ....
....|..|--- .... ....|--- .... ....|--- .... ....
...F|..|G-2 2A.F ....|C-3 3F.F ....|C-2 2F.F ....
....|..|--- .... ....|--- .... ....|--- .... ....
....|..|F-2 2F.7 ....|F#3 3F.F ....|F#2 2F.F ....
....|..|--- .... ....|--- .... ....|--- .... ....
....|..|--- .... ....|R-- .... ....|R-- .... ....
....|..|--- .... ....|--- .... ....|--- .... ....
..10|..|F#2 2A.F ....|C-3 3F.F ....|C-2 2F.F ....
....|..|--- .... ....|--- .... ....|--- .... ....
....|..|D#2 2F.7 ....|D#3 3F.F ....|D#2 2F.F ....
....|..|--- .... ....|--- .... ....|--- .... ....
..11|..|F-2 2A.F ....|F-2 2AFF ....|F-2 2AEF ....
....|..|--- .... ....|--- .... ....|--- .... ....
....|..|G-2 2F.A ....|C-3 3F.F ....|C-2 2F.F ....
....|..|--- .... ....|--- .... ....|--- .... ....
....|..|A#1 2F.7 ....|A#2 3F.F ....|A#1 2F.F ....
....|..|--- .... ....|--- .... ....|--- .... ....
..13|..|D#2 2A.F ....|D#2 2AFF ....|D#2 2AEF ....
....|..|--- .... ....|--- .... ....|--- .... ....
....|..|C-2 2F.7 ....|C-3 3F.7 ....|C-2 2F.7 ....
....|..|--- .... ....|--- .... ....|--- .... ....
....|..|--- .... ....|G-3 3F.7 ....|G-2 2F.7 ....
....|..|--- .... ....|--- .... ....|--- .... ....
..19|..|A#1 2A.F ....|C-3 3F.F ....|C-2 2F.F ....
....|..|--- .... ....|--- .... ....|--- .... ....
....|..|G-2 2F.7 ....|C-3 3F.7 ....|C-2 2F.7 ....
....|..|--- .... ....|--- .... ....|--- .... ....

[Pattern9]
..16|..|C-2 2A.F ....|C-2 2AFF ....|C-2 2AEF ....
....|..|--- .... ....|--- .... ....|--- .... ....
....|..|D#2 2F.A ....|D#2 2FFA ....|D#2 2FEA ....
....|..|--- .... ....|--- .... ....|--- .... ....
....|..|F#2 2F.7 ....|C-3 3F.7 ....|C-2 2F.7 ....
....|..|--- .... ....|--- .... ....|--- .... ....
...F|..|G-2 2A.F ....|G-2 2AFF ....|G-2 2AEF ....
....|..|--- .... ....|--- .... ....|--- .... ....
....|..|F-2 2F.7 ....|F-2 2FF7 ....|F-2 2FE7 ....
....|..|--- .... ....|--- .... ....|--- .... ....
....|..|--- .... ....|C-3 3F.7 ....|C-2 2F.7 ....
....|..|--- .... ....|--- .... ....|--- .... ....
..10|..|F#2 2A.F ....|F#2 2AFF ....|F#2 2AEF ....
....|..|--- .... ....|--- .... ....|--- .... ....
....|..|D#2 2F.7 ....|D#2 2FF7 ....|D#2 2FE7 ....
....|..|--- .... ....|--- .... ....|--- .... ....
..11|..|F-2 2A.F ....|F-2 2AFF ....|F-2 2AEF ....
....|..|--- .... ....|--- .... ....|--- .... ....
....|..|G-2 2F.A ....|G-2 2FFA ....|G-2 2FEA ....
....|..|--- .... ....|--- .... ....|--- .... ....
....|..|A#1 2F.7 ....|C-3 3F.7 ....|C-2 2F.7 ....
....|..|--- .... ....|--- .... ....|--- .... ....
..13|..|D#2 2A.F ....|D#2 2AFF ....|D#2 2AEF ....
....|..|--- .... ....|--- .... ....|--- .... ....
....|..|C-2 2F.7 ....|C-2 2FF7 ....|C-2 2FE7 ....
....|..|--- .... ....|--- .... ....|--- .... ....
....|..|--- .... ....|--- .... ....|--- .... ....
....|..|--- .... ....|--- .... ....|--- .... ....
..19|..|A#1 2A.F ....|A#1 2AFF ....|A#1 2AEF ....
....|..|--- .... ....|--- .... ....|--- .... ....
....|..|G-2 2F.7 ....|G-2 2FF7 ....|G-2 2FE7 ....
....|..|--- .... ....|--- .... ....|--- .... ....
..11|..|F-2 2A.F ....|F-3 3F.F ....|F-2 2F.F ....
....|..|--- .... ....|--- .... ....|--- .... ....
....|..|D#2 2F.A ....|C-4 3F.F ....|C-3 2F.F ....
....|..|--- .... ....|--- .... ....|--- .... ....
....|..|F#2 2F.7 ....|F#2 2FF7 ....|F#2 2FE7 ....
....|..|--- .... ....|--- .... ....|--- .... ....
..2D|..|C-3 2C.F ....|F-3 3F.F ....|F-2 2F.F ....
....|..|--- .... ....|--- .... ....|--- .... ....
....|..|F-2 2F.7 ....|B-3 3F.F ....|B-2 2F.F ....
....|..|--- .... ....|--- .... ....|--- .... ....
....|..|--- .... ....|R-- .... ....|R-- .... ....
....|..|--- .... ....|--- .... ....|--- .... ....
...C|..|B-2 2A.F ....|F-3 3F.F ....|F-2 2F.F ....
....|..|--- .... ....|--- .... ....|--- .... ....
....|..|D#2 2F.7 ....|G#3 3F.F ....|G#2 2F.F ....
....|..|--- .... ....|--- .... ....|--- .... ....
..19|..|A#2 2C.F ....|A#2 2CFF ....|A#2 2CEF ....
....|..|--- .... ....|--- .... ....|--- .... ....
....|..|C-3 2F.A ....|F-3 3F.F ....|F-2 2F.F ....
....|..|--- .... ....|--- .... ....|--- .... ....
....|..|A#1 2F.7 ....|D#3 3F.F ....|D#2 2F.F ....
....|..|--- .... ....|--- .... ....|--- .... ....
...E|..|G#2 2A.F ....|G#2 2AFF ....|G#2 2AEF ....
....|..|--- .... ....|--- .... ....|--- .... ....
....|..|F-2 2F.7 ....|F-3 3F.7 ....|F-2 2F.7 ....
....|..|--- .... ....|--- .... ....|--- .... ....
....|..|--- .... ....|C-4 3F.7 ....|C-3 2F.7 ....
....|..|--- .... ....|--- .... ....|--- .... ....
..13|..|D#2 2A.F ....|F-3 3F.F ....|F-2 2F.F ....
....|..|--- .... ....|--- .... ....|--- .... ....
....|..|C-3 2F.7 ....|F-3 3F.7 ....|F-2 2F.7 ....
....|..|--- .... ....|--- .... ....|--- .... ....

[Pattern10]
..11|..|F-2 2A.F ....|F-2 2AFF ....|F-2 2AEF ....
....|..|--- .... ....|--- .... ....|--- .... ....
....|..|G#2 2F.A ....|G#2 2FFA ....|G#2 2FEA ....
....|..|--- .... ....|--- .... ....|--- .... ....
....|..|B-2 2F.7 ....|F-3 3F.7 ....|F-2 2F.7 ....
....|..|--- .... ....|--- .... ....|--- .... ....
..2D|..|C-3 2C.F ....|C-3 2CFF ....|C-3 2CEF ....
....|..|--- .... ....|--- .... ....|--- .... ....
....|..|A#2 2F.7 ....|A#2 2FF7 ....|A#2 2FE7 ....
....|..|--- .... ....|--- .... ....|--- .... ....
....|..|--- .... ....|F-3 3F.7 ....|F-2 2F.7 ....
....|..|--- .... ....|--- .... ....|--- .... ....
...C|..|B-2 2A.F ....|B-2 2AFF ....|B-2 2AEF ....
....|..|--- .... ....|--- .... ....|--- .... ....
....|..|G#2 2F.7 ....|G#2 2FF7 ....|G#2 2FE7 ....
....|..|--- .... ....|--- .... ....|--- .... ....
..19|..|A#2 2C.F ....|A#2 2CFF ....|A#2 2CEF ....
....|..|--- .... ....|--- .... ....|--- .... ....
....|..|C-3 2F.A ....|C-3 2FFA ....|C-3 2FEA ....
....|..|--- .... ....|--- .... ....|--- .... ....
....|..|D#2 2F.7 ....|F-3 3F.7 ....|F-2 2F.7 ....
....|..|--- .... ....|--- .... ....|--- .... ....
...E|..|G#2 2A.F ....|G#2 2AFF ....|G#2 2AEF ....
....|..|--- .... ....|--- .... ....|--- .... ....
....|..|F-2 2F.7 ....|F-2 2FF7 ....|F-2 2FE7 ....
....|..|--- .... ....|--- .... ....|--- .... ....
....|..|--- .... ....|--- .... ....|--- .... ....
....|..|--- .... ....|--- .... ....|--- .... ....
..13|..|D#2 2A.F ....|D#2 2AFF ....|D#2 2AEF ....
....|..|--- .... ....|--- .... ....|--- .... ....
....|..|C-3 2F.7 ....|C-3 2FF7 ....|C-3 2FE7 ....
....|..|--- .... ....|--- .... ....|--- .... ....
..16|..|C-2 2A.F ....|C-3 3F.F ....|C-2 2F.F ....
....|..|--- .... ....|--- .... ....|--- .... ....
....|..|G#2 2F.A ....|G-3 3F.F ....|G-2 2F.F ....
....|..|--- .... ....|--- .... ....|--- .... ....
....|..|B-2 2F.7 ....|B-2 2FF7 ....|B-2 2FE7 ....
....|..|--- .... ....|--- .... ....|--- .... ....
...F|..|G-2 2A.F ....|C-3 3F.F ....|C-2 2F.F ....
....|..|--- .... ....|--- .... ....|--- .... ....
....|..|A#2 2F.7 ....|F#3 3F.F ....|F#2 2F.F ....
....|..|--- .... ....|--- .... ....|--- .... ....
....|..|--- .... ....|R-- .... ....|R-- .... ....
....|..|--- .... ....|--- .... ....|--- .... ....
..10|..|F#2 2A.F ....|C-3 3F.F ....|C-2 2F.F ....
....|..|--- .... ....|--- .... ....|--- .... ....
....|..|G#2 2F.7 ....|D#3 3F.F ....|D#2 2F.F ....
....|..|--- .... ....|--- .... ....|--- .... ....
..11|..|F-2 2A.F ....|F-2 2AFF ....|F-2 2AEF ....
....|..|--- .... ....|--- .... ....|--- .... ....
....|..|G-2 2F.A ....|C-3 3F.F ....|C-2 2F.F ....
....|..|--- .... ....|--- .... ....|--- .... ....
....|..|D#2 2F.7 ....|A#2 3F.F ....|A#1 2F.F ....
....|..|--- .... ....|--- .... ....|--- .... ....
..13|..|D#2 2A.F ....|D#2 2AFF ....|D#2 2AEF ....
....|..|--- .... ....|--- .... ....|--- .... ....
....|..|C-2 2F.7 ....|C-3 3F.7 ....|C-2 2F.7 ....
....|..|--- .... ....|--- .... ....|--- .... ....
....|..|--- .... ....|G-3 3F.7 ....|G-2 2F.7 ....
....|..|--- .... ....|--- .... ....|--- .... ....
..19|..|A#1 2A.F ....|C-3 3F.F ....|C-2 2F.F ....
....|..|--- .... ....|--- .... ....|--- .... ....
....|..|G-2 2F.7 ....|C-3 3F.7 ....|C-2 2F.7 ....
....|..|--- .... ....|--- .... ....|--- .... ....

[Pattern11]
..16|..|C-2 2A.F ....|C-2 2AFF ....|C-2 2AEF ....
....|..|--- .... ....|--- .... ....|--- .... ....
....|..|D#2 2F.A ....|D#2 2FFA ....|D#2 2FEA ....
....|..|--- .... ....|--- .... ....|--- .... ....
....|..|F#2 2F.7 ....|C-3 3F.7 ....|C-2 2F.7 ....
....|..|--- .... ....|--- .... ....|--- .... ....
...F|..|G-2 2A.F ....|G-2 2AFF ....|G-2 2AEF ....
....|..|--- .... ....|--- .... ....|--- .... ....
....|..|F-2 2F.7 ....|F-2 2FF7 ....|F-2 2FE7 ....
....|..|--- .... ....|--- .... ....|--- .... ....
....|..|--- .... ....|C-3 3F.7 ....|C-2 2F.7 ....
....|..|--- .... ....|--- .... ....|--- .... ....
..10|..|F#2 2A.F ....|F#2 2AFF ....|F#2 2AEF ....
....|..|--- .... ....|--- .... ....|--- .... ....
....|..|D#2 2F.7 ....|D#2 2FF7 ....|D#2 2FE7 ....
....|..|--- .... ....|--- .... ....|--- .... ....
..11|..|F-2 2A.F ....|F-2 2AFF ....|F-2 2AEF ....
....|..|--- .... ....|--- .... ....|--- .... ....
....|..|G-2 2F.A ....|G-2 2FFA ....|G-2 2FEA ....
....|..|--- .... ....|--- .... ....|--- .... ....
....|..|A#1 2F.7 ....|C-3 3F.7 ....|C-2 2F.7 ....
....|..|--- .... ....|--- .... ....|--- .... ....
..13|..|D#2 2A.F ....|D#2 2AFF ....|D#2 2AEF ....
....|..|--- .... ....|--- .... ....|--- .... ....
....|..|C-2 2F.7 ....|C-2 2FF7 ....|C-2 2FE7 ....
....|..|--- .... ....|--- .... ....|--- .... ....
....|..|--- .... ....|--- .... ....|--- .... ....
....|..|--- .... ....|--- .... ....|--- .... ....
..19|..|A#1 2A.F ....|A#1 2AFF ....|A#1 2AEF ....
....|..|--- .... ....|--- .... ....|--- .... ....
....|..|G-2 2F.7 ....|G-2 2FF7 ....|G-2 2FE7 ....
....|..|--- .... ....|--- .... ....|--- .... ....
..1E|..|G-1 2A.F ....|B-3 3F3F ....|B-4 2F3F ....
....|..|--- .... ....|--- .... ....|--- .... ....
....|..|D#2 2F.A ....|E-4 3F4F ....|E-4 2F4F ....
....|..|--- .... ....|--- .... ....|--- .... ....
....|..|F#2 2F.7 ....|F#2 2FF7 ....|F#2 2FE7 ....
....|..|--- .... ....|--- .... ....|--- .... ....
...F|..|G-2 2A.F ....|G-2 2AFF ....|G-2 2F.F ....
....|..|--- .... ....|--- .... ....|--- .... ....
....|..|F-2 2F.7 ....|F-2 2FF7 ....|F-2 2FE7 ....
....|..|--- .... ....|--- .... ....|R-- .... ....
....|..|--- .... ....|--- .... ....|--- .... ....
....|..|--- .... ....|--- .... ....|--- .... ....
..1E|..|G-1 2A.F ....|A#3 3F5F ....|A#4 2F5F ....
....|..|--- .... ....|--- .... ....|--- .... ....
....|..|D#2 2F.7 ....|E-4 3F4F ....|E-4 2F4F ....
....|..|--- .... ....|--- .... ....|--- .... ....
....|..|--- .... ....|R-- .... ....|R-- .... ....
....|..|--- .... ....|--- .... ....|--- .... ....
....|..|G-2 2F.A ....|G-2 2FFA ....|G-2 2F.F ....
....|..|R-- .... ....|R-- .... ....|R-- .... ....
...F|..|G-2 2A.F ....|G-2 2AFF ....|G-2 2AEF ....
....|..|--- .... ....|--- .... ....|R-- .... ....
....|..|--- .... ....|--- .... ....|R-- .... ....
....|..|R-- .... ....|R-- .... ....|R-- .... ....
..1B|..|A-1 2A.F ....|D-4 3F5F ....|D-4 2F5F ....
....|..|--- .... ....|--- .... ....|--- .... ....
....|..|--- .... ....|F#4 3F4F ....|F#4 2F4F ....
....|..|R-- .... ....|R-- .... ....|R-- .... ....
..1B|..|A-2 2C.F ....|A-2 2CFF ....|A-2 2CEF ....
....|..|--- .... ....|--- .... ....|--- .... ....
....|..|G-2 2F.7 ....|G-2 2FF7 ....|G-2 2F.7 ....
....|..|R-- .... ....|R-- .... ....|R-- .... ....

[Pattern12]
..1B|..|A-1 2A.F ....|C-4 3F5F ....|C-4 2F5F ....
....|..|--- .... ....|--- .... ....|R-- .... ....
....|..|--- .... ....|C#4 3F5F ....|C#4 2F5F ....
....|..|R-- .... ....|R-- .... ....|R-- .... ....
....|..|G-1 2F.7 ....|A#3 3F57 ....|A#4 2F57 ....
....|..|--- .... ....|--- .... ....|--- .... ....
..1B|..|A-2 2C.F ....|A-2 2CFF ....|G-2 2F.F ....
....|..|R-- .... ....|R-- .... ....|R-- .... ....
....|..|A-2 2F.A ....|A-2 2FFA ....|A-2 2FEA ....
....|..|--- .... ....|--- .... ....|R-- .... ....
....|..|--- .... ....|--- .... ....|G-2 2F.7 ....
....|..|R-- .... ....|R-- .... ....|R-- .... ....
..1B|..|A-1 2A.F ....|C-4 3F5F ....|C-4 2F5F ....
....|..|--- .... ....|--- .... ....|--- .... ....
....|..|--- .... ....|C#4 3F5F ....|C#4 2F5F ....
....|..|R-- .... ....|R-- .... ....|R-- .... ....
....|..|A-1 2F.7 ....|D-4 3F57 ....|D-4 2F57 ....
....|..|--- .... ....|--- .... ....|--- .... ....
....|..|A-2 2F.A ....|F#4 3F47 ....|G-2 2F.F ....
....|..|R-- .... ....|R-- .... ....|R-- .... ....
..1B|..|A-2 2C.F ....|A-2 2CFF ....|A-2 2CEF ....
....|..|--- .... ....|--- .... ....|R-- .... ....
....|..|--- .... ....|--- .... ....|--- .... ....
....|..|R-- .... ....|R-- .... ....|R-- .... ....
..18|..|B-1 2A.F ....|E-4 3F5F ....|E-4 2F5F ....
....|..|--- .... ....|--- .... ....|--- .... ....
....|..|--- .... ....|G#4 3F4F ....|G#4 2F4F ....
....|..|R-- .... ....|R-- .... ....|R-- .... ....
...C|..|B-2 2A.F ....|B-2 2AFF ....|B-2 2AEF ....
....|..|--- .... ....|--- .... ....|--- .... ....
....|..|A-2 2F.7 ....|A-2 2FF7 ....|G-2 2F.7 ....
....|..|R-- .... ....|R-- .... ....|R-- .... ....
..16|..|C-2 2A.F ....|C-3 3F.F ....|C-4 2F.F ....
....|..|--- .... ....|--- .... ....|R-- .... ....
....|..|--- .... ....|G-3 3F.F ....|G-4 2F.F ....
....|..|R-- .... ....|R-- .... ....|R-- .... ....
....|..|A-1 2F.7 ....|C-4 3F57 ....|C-4 2F57 ....
....|..|--- .... ....|--- .... ....|--- .... ....
...F|..|G-2 2A.F ....|C-3 3F.F ....|C-4 2F.F ....
....|..|R-- .... ....|R-- .... ....|R-- .... ....
....|..|B-2 2F.A ....|F#3 3F.F ....|F#4 2F.F ....
....|..|--- .... ....|--- .... ....|--- .... ....
....|..|--- .... ....|R-- .... ....|G-2 2F.7 ....
....|..|R-- .... ....|R-- .... ....|R-- .... ....
..10|..|F#2 2A.F ....|C-3 3F.F ....|C-4 2F.F ....
....|..|--- .... ....|--- .... ....|R-- .... ....
....|..|--- .... ....|D#3 3F.F ....|D#4 2F.F ....
....|..|R-- .... ....|R-- .... ....|R-- .... ....
..11|..|F-2 2A.F ....|F-2 2AFF ....|F-2 2AEF ....
....|..|--- .... ....|--- .... ....|--- .... ....
....|..|G-2 2F.A ....|C-3 3F.F ....|C-4 2F.F ....
....|..|R-- .... ....|R-- .... ....|R-- .... ....
....|..|B-2 2F.7 ....|A#2 3F.F ....|A#3 2F.F ....
....|..|--- .... ....|--- .... ....|--- .... ....
..13|..|D#2 2A.F ....|D#2 2AFF ....|D#2 2AEF ....
....|..|R-- .... ....|R-- .... ....|R-- .... ....
....|..|C-2 2F.7 ....|C-3 3F.7 ....|C-4 2F.7 ....
....|..|--- .... ....|--- .... ....|--- .... ....
....|..|--- .... ....|G-3 3F.7 ....|G-4 2F.7 ....
....|..|--- .... ....|--- .... ....|--- .... ....
..19|..|A#1 2A.F ....|C-3 3F.F ....|C-4 2F.F ....
....|..|--- .... ....|--- .... ....|--- .... ....
....|..|G-2 2F.7 ....|C-3 3F.7 ....|C-4 2F.7 ....
....|..|--- .... ....|--- .... ....|--- .... ....

[Pattern13]
....|..|R-- .... ....|F#3 3F.7 ....|F#4 2F.7 ....
....|..|--- .... ....|--- .... ....|--- .... ....
....|..|D#2 2F.A ....|D#2 2FFA ....|D#2 2FEA ....
....|..|--- .... ....|--- .... ....|--- .... ....
...F|..|G-2 2A.F ....|G-4 3F.F ....|G-5 2F.F ....
....|..|--- .... ....|--- .... ....|--- .... ....
....|..|R-- .... ....|D#3 3F.7 ....|D#4 2F.7 ....
....|..|--- .... ....|--- .... ....|--- .... ....
...F|..|G-2 2A.F ....|G-4 3F.F ....|G-5 2F.F ....
....|..|--- .... ....|--- .... ....|--- .... ....
....|..|R-- .... ....|C-3 3F.7 ....|C-4 2F.7 ....
....|..|--- .... ....|--- .... ....|--- .... ....
...F|..|G-2 2A.F ....|G-4 3F.F ....|G-5 2F.F ....
....|..|--- .... ....|--- .... ....|--- .... ....
....|..|D#2 2F.7 ....|D#2 2FF7 ....|D#2 2FE7 ....
....|..|--- .... ....|--- .... ....|--- .... ....
...F|..|G-2 2A.F ....|G-4 3F.F ....|G-5 2F.F ....
....|..|--- .... ....|--- .... ....|--- .... ....
....|..|R-- .... ....|R-- .... ....|R-- .... ....
....|..|--- .... ....|--- .... ....|--- .... ....
...F|..|G-2 2A.F ....|G-4 3F.F ....|G-5 2F.F ....
....|..|--- .... ....|--- .... ....|--- .... ....
....|..|R-- .... ....|R-- .... ....|R-- .... ....
....|..|--- .... ....|--- .... ....|--- .... ....
..14|..|D-3 2C.F ....|B-3 3F6F ....|B-4 2F6F ....
....|..|--- .... ....|--- .... ....|--- .... ....
..14|..|D-3 2C.F ....|B-3 3F6F ....|B-4 2F6F ....
....|..|--- .... ....|--- .... ....|--- .... ....
....|..|G-2 2F.7 ....|G-4 3F.7 ....|G-5 2F.7 ....
....|..|--- .... ....|--- .... ....|--- .... ....
....|..|R-- .... ....|R-- .... ....|R-- .... ....
....|..|--- .... ....|--- .... ....|--- .... ....
..16|..|C-2 2A.F ....|C-4 3F.F ....|C-5 2F.F ....
....|..|--- .... ....|--- .... ....|--- .... ....
....|..|R-- .... ....|G-4 3F.F ....|G-5 2F.F ....
....|..|--- .... ....|--- .... ....|--- .... ....
....|..|G-2 2F.7 ....|G-4 3F.7 ....|G-5 2F.7 ....
....|..|--- .... ....|--- .... ....|--- .... ....
...F|..|G-2 2A.F ....|C-4 3F.F ....|C-5 2F.F ....
....|..|--- .... ....|--- .... ....|--- .... ....
....|..|G-2 2F.7 ....|F#4 3F.F ....|F#5 2F.F ....
....|..|--- .... ....|--- .... ....|--- .... ....
....|..|R-- .... ....|R-- .... ....|R-- .... ....
....|..|--- .... ....|--- .... ....|--- .... ....
..10|..|F#2 2A.F ....|C-4 3F.F ....|C-5 2F.F ....
....|..|--- .... ....|--- .... ....|--- .... ....
....|..|R-- .... ....|D#4 3F.F ....|D#5 2F.F ....
....|..|--- .... ....|--- .... ....|--- .... ....
..11|..|F-2 2A.F ....|F-2 2AFF ....|F-2 2AEF ....
....|..|--- .... ....|--- .... ....|--- .... ....
....|..|D-3 2F.7 ....|C-4 3F.F ....|C-5 2F.F ....
....|..|--- .... ....|--- .... ....|--- .... ....
....|..|R-- .... ....|A#3 3F.F ....|A#4 2F.F ....
....|..|--- .... ....|--- .... ....|--- .... ....
..13|..|D#2 2A.F ....|D#2 2AFF ....|D#2 2AEF ....
....|..|--- .... ....|--- .... ....|--- .... ....
....|..|C-2 2F.7 ....|C-4 3F.7 ....|C-5 2F.7 ....
....|..|--- .... ....|--- .... ....|--- .... ....
....|..|--- .... ....|G-4 3F.7 ....|G-5 2F.7 ....
....|..|--- .... ....|--- .... ....|--- .... ....
..19|..|A#1 2A.F ....|C-4 3F.F ....|C-5 2F.F ....
....|..|--- .... ....|--- .... ....|--- .... ....
....|..|G-2 2F.7 ....|C-4 3F.7 ....|C-5 2F.7 ....
....|..|--- .... ....|--- .... ....|--- .... ....

[Pattern14]
..16|..|C-2 2A.F ....|C-2 2AFF ....|C-2 2AEF ....
....|..|--- .... ....|--- .... ....|--- .... ....
....|..|D#2 2F.A ....|D#2 2FFA ....|D#2 2FEA ....
....|..|--- .... ....|--- .... ....|--- .... ....
....|..|F#2 2F.7 ....|C-4 3F.7 ....|C-5 2F.7 ....
....|..|--- .... ....|--- .... ....|--- .... ....
...F|..|G-2 2A.F ....|G-2 2AFF ....|G-2 2AEF ....
....|..|--- .... ....|--- .... ....|--- .... ....
....|..|F-2 2F.7 ....|F-2 2FF7 ....|F-2 2FE7 ....
....|..|--- .... ....|--- .... ....|--- .... ....
....|..|--- .... ....|C-4 3F.7 ....|C-5 2F.7 ....
....|..|--- .... ....|--- .... ....|--- .... ....
..10|..|F#2 2A.F ....|F#2 2AFF ....|F#2 2AEF ....
....|..|--- .... ....|--- .... ....|--- .... ....
....|..|D#2 2F.7 ....|D#2 2FF7 ....|D#2 2FE7 ....
....|..|--- .... ....|--- .... ....|--- .... ....
..11|..|F-2 2A.F ....|F-2 2AFF ....|F-2 2AEF ....
....|..|--- .... ....|--- .... ....|--- .... ....
....|..|G-2 2F.A ....|G-2 2FFA ....|G-2 2FEA ....
....|..|--- .... ....|--- .... ....|--- .... ....
....|..|A#1 2F.7 ....|C-4 3F.7 ....|C-5 2F.7 ....
....|..|--- .... ....|--- .... ....|--- .... ....
..13|..|D#2 2A.F ....|D#2 2AFF ....|D#2 2AEF ....
....|..|--- .... ....|--- .... ....|--- .... ....
....|..|C-2 2F.7 ....|C-2 2FF7 ....|C-2 2FE7 ....
....|..|--- .... ....|--- .... ....|--- .... ....
....|..|--- .... ....|--- .... ....|--- .... ....
....|..|--- .... ....|--- .... ....|--- .... ....
..19|..|A#1 2A.F ....|A#1 2AFF ....|A#1 2AEF ....
....|..|--- .... ....|--- .... ....|--- .... ....
....|..|G-2 2F.7 ....|G-2 2FF7 ....|G-2 2FE7 ....
....|..|--- .... ....|--- .... ....|--- .... ....
..16|..|C-2 2A.F ....|C-4 3F.F ....|C-5 2F.F ....
....|..|--- .... ....|--- .... ....|--- .... ....
....|..|D#2 2F.A ....|G-4 3F.F ....|G-5 2F.F ....
....|..|--- .... ....|--- .... ....|--- .... ....
....|..|F#2 2F.7 ....|F#2 2FF7 ....|F#2 2FE7 ....
....|..|--- .... ....|--- .... ....|--- .... ....
...F|..|G-2 2A.F ....|C-4 3F.F ....|C-5 2F.F ....
....|..|--- .... ....|--- .... ....|--- .... ....
....|..|F-2 2F.7 ....|F#4 3F.F ....|F#5 2F.F ....
....|..|--- .... ....|--- .... ....|--- .... ....
....|..|--- .... ....|R-- .... ....|R-- .... ....
....|..|--- .... ....|--- .... ....|--- .... ....
..10|..|F#2 2A.F ....|C-4 3F.F ....|C-5 2F.F ....
....|..|--- .... ....|--- .... ....|--- .... ....
....|..|D#2 2F.7 ....|D#4 3F.F ....|D#5 2F.F ....
....|..|--- .... ....|--- .... ....|--- .... ....
..11|..|F-2 2A.F ....|F-2 2AFF ....|F-2 2AEF ....
....|..|--- .... ....|--- .... ....|--- .... ....
....|..|G-2 2F.A ....|C-4 3F.F ....|C-5 2F.F ....
....|..|--- .... ....|--- .... ....|--- .... ....
....|..|A#1 2F.7 ....|A#3 3F.F ....|A#4 2F.F ....
....|..|--- .... ....|--- .... ....|--- .... ....
..13|..|D#2 2A.F ....|D#2 2AFF ....|D#2 2AEF ....
....|..|--- .... ....|--- .... ....|--- .... ....
....|..|C-2 2F.7 ....|C-4 3F.7 ....|C-5 2F.7 ....
....|..|--- .... ....|--- .... ....|--- .... ....
....|..|--- .... ....|G-4 3F.7 ....|G-5 2F.7 ....
....|..|--- .... ....|--- .... ....|--- .... ....
..19|..|A#1 2A.F ....|C-4 3F.F ....|C-5 2F.F ....
....|..|--- .... ....|--- .... ....|--- .... ....
....|..|G-2 2F.7 ....|C-4 3F.7 ....|C-5 2F.7 ....
....|..|--- .... ....|--- .... ....|--- .... ....

[Pattern15]
..16|..|C-2 2A.F ....|C-2 2AFF ....|C-2 2AEF ....
....|..|--- .... ....|--- .... ....|--- .... ....
....|..|D#2 2F.A ....|D#2 2FFA ....|D#2 2FEA ....
....|..|--- .... ....|--- .... ....|--- .... ....
....|..|F#2 2F.7 ....|C-4 3F.7 ....|C-5 2F.7 ....
....|..|--- .... ....|--- .... ....|--- .... ....
...F|..|G-2 2A.F ....|G-2 2AFF ....|G-2 2AEF ....
....|..|--- .... ....|--- .... ....|--- .... ....
....|..|F-2 2F.7 ....|F-2 2FF7 ....|F-2 2FE7 ....
....|..|--- .... ....|--- .... ....|--- .... ....
....|..|--- .... ....|C-4 3F.7 ....|C-5 2F.7 ....
....|..|--- .... ....|--- .... ....|--- .... ....
..10|..|F#2 2A.F ....|F#2 2AFF ....|F#2 2AEF ....
....|..|--- .... ....|--- .... ....|--- .... ....
....|..|D#2 2F.7 ....|D#2 2FF7 ....|D#2 2FE7 ....
....|..|--- .... ....|--- .... ....|--- .... ....
..11|..|F-2 2A.F ....|F-2 2AFF ....|F-2 2AEF ....
....|..|--- .... ....|--- .... ....|--- .... ....
....|..|G-2 2F.A ....|G-2 2FFA ....|G-2 2FEA ....
....|..|--- .... ....|--- .... ....|--- .... ....
....|..|A#1 2F.7 ....|C-4 3F.7 ....|C-5 2F.7 ....
....|..|--- .... ....|--- .... ....|--- .... ....
..13|..|D#2 2A.F ....|D#2 2AFF ....|D#2 2AEF ....
....|..|--- .... ....|--- .... ....|--- .... ....
....|..|C-2 2F.7 ....|C-2 2FF7 ....|C-2 2FE7 ....
....|..|--- .... ....|--- .... ....|--- .... ....
....|..|--- .... ....|--- .... ....|--- .... ....
....|..|--- .... ....|--- .... ....|--- .... ....
..19|..|A#1 2A.F ....|A#1 2AFF ....|A#1 2AEF ....
....|..|--- .... ....|--- .... ....|--- .... ....
....|..|G-2 2F.7 ....|G-2 2FF7 ....|G-2 2FE7 ....
....|..|--- .... ....|--- .... ....|--- .... ....
..11|..|F-2 2A.F ....|F-4 3F.F ....|F-5 2F.F ....
....|..|--- .... ....|--- .... ....|--- .... ....
....|..|D#2 2F.A ....|C-5 3F.F ....|C-6 2F.F ....
....|..|--- .... ....|--- .... ....|--- .... ....
....|..|F#2 2F.7 ....|F#2 2FF7 ....|F#2 2FE7 ....
....|..|--- .... ....|--- .... ....|--- .... ....
..2D|..|C-3 2C.F ....|F-4 3F.F ....|F-5 2F.F ....
....|..|--- .... ....|--- .... ....|--- .... ....
....|..|F-2 2F.7 ....|B-4 3F.F ....|B-5 2F.F ....
....|..|--- .... ....|--- .... ....|--- .... ....
....|..|--- .... ....|R-- .... ....|R-- .... ....
....|..|--- .... ....|--- .... ....|--- .... ....
...C|..|B-2 2A.F ....|F-4 3F.F ....|F-5 2F.F ....
....|..|--- .... ....|--- .... ....|--- .... ....
....|..|D#2 2F.7 ....|G#4 3F.F ....|G#5 2F.F ....
....|..|--- .... ....|--- .... ....|--- .... ....
..19|..|A#2 2C.F ....|A#2 2CFF ....|A#2 2CEF ....
....|..|--- .... ....|--- .... ....|--- .... ....
....|..|C-3 2F.A ....|F-4 3F.F ....|F-5 2F.F ....
....|..|--- .... ....|--- .... ....|--- .... ....
....|..|A#1 2F.7 ....|D#4 3F.F ....|D#5 2F.F ....
....|..|--- .... ....|--- .... ....|--- .... ....
...E|..|G#2 2A.F ....|G#2 2AFF ....|G#2 2AEF ....
....|..|--- .... ....|--- .... ....|--- .... ....
....|..|F-2 2F.7 ....|F-4 3F.7 ....|F-5 2F.7 ....
....|..|--- .... ....|--- .... ....|--- .... ....
....|..|--- .... ....|C-5 3F.7 ....|C-6 2F.7 ....
....|..|--- .... ....|--- .... ....|--- .... ....
..13|..|D#2 2A.F ....|F-4 3F.F ....|F-5 2F.F ....
....|..|--- .... ....|--- .... ....|--- .... ....
....|..|C-3 2F.7 ....|F-4 3F.7 ....|F-5 2F.7 ....
....|..|--- .... ....|--- .... ....|--- .... ....

[Pattern16]
..11|..|F-2 2A.F ....|F-2 2AFF ....|F-2 2AEF ....
....|..|--- .... ....|--- .... ....|--- .... ....
....|..|G#2 2F.A ....|G#2 2FFA ....|G#2 2FEA ....
....|..|--- .... ....|--- .... ....|--- .... ....
....|..|B-2 2F.7 ....|F-4 3F.7 ....|F-5 2F.7 ....
....|..|--- .... ....|--- .... ....|--- .... ....
..2D|..|C-3 2C.F ....|C-3 2CFF ....|C-3 2CEF ....
....|..|--- .... ....|--- .... ....|--- .... ....
....|..|A#2 2F.7 ....|A#2 2FF7 ....|A#2 2FE7 ....
....|..|--- .... ....|--- .... ....|--- .... ....
....|..|--- .... ....|F-4 3F.7 ....|F-5 2F.7 ....
....|..|--- .... ....|--- .... ....|--- .... ....
...C|..|B-2 2A.F ....|B-2 2AFF ....|B-2 2AEF ....
....|..|--- .... ....|--- .... ....|--- .... ....
....|..|G#2 2F.7 ....|G#2 2FF7 ....|G#2 2FE7 ....
....|..|--- .... ....|--- .... ....|--- .... ....
..19|..|A#2 2C.F ....|A#2 2CFF ....|A#2 2CEF ....
....|..|--- .... ....|--- .... ....|--- .... ....
....|..|C-3 2F.A ....|C-3 2FFA ....|C-3 2FEA ....
....|..|--- .... ....|--- .... ....|--- .... ....
....|..|D#2 2F.7 ....|F-4 3F.7 ....|F-5 2F.7 ....
....|..|--- .... ....|--- .... ....|--- .... ....
...E|..|G#2 2A.F ....|G#2 2AFF ....|G#2 2AEF ....
....|..|--- .... ....|--- .... ....|--- .... ....
....|..|F-2 2F.7 ....|F-2 2FF7 ....|F-2 2FE7 ....
....|..|--- .... ....|--- .... ....|--- .... ....
....|..|--- .... ....|--- .... ....|--- .... ....
....|..|--- .... ....|--- .... ....|--- .... ....
..13|..|D#2 2A.F ....|D#2 2AFF ....|D#2 2AEF ....
....|..|--- .... ....|--- .... ....|--- .... ....
....|..|C-3 2F.7 ....|C-3 2FF7 ....|C-3 2FE7 ....
....|..|--- .... ....|--- .... ....|--- .... ....
..16|..|C-2 2A.F ....|C-4 3F.F ....|C-5 2F.F ....
....|..|--- .... ....|--- .... ....|--- .... ....
....|..|G#2 2F.A ....|G-4 3F.F ....|G-5 2F.F ....
....|..|--- .... ....|--- .... ....|--- .... ....
....|..|B-2 2F.7 ....|B-2 2FF7 ....|B-2 2FE7 ....
....|..|--- .... ....|--- .... ....|--- .... ....
...F|..|G-2 2A.F ....|C-4 3F.F ....|C-5 2F.F ....
....|..|--- .... ....|--- .... ....|--- .... ....
....|..|A#2 2F.7 ....|F#4 3F.F ....|F#5 2F.F ....
....|..|--- .... ....|--- .... ....|--- .... ....
....|..|--- .... ....|R-- .... ....|R-- .... ....
....|..|--- .... ....|--- .... ....|--- .... ....
..10|..|F#2 2A.F ....|C-4 3F.F ....|C-5 2F.F ....
....|..|--- .... ....|--- .... ....|--- .... ....
....|..|G#2 2F.7 ....|D#4 3F.F ....|D#5 2F.F ....
....|..|--- .... ....|--- .... ....|--- .... ....
..11|..|F-2 2A.F ....|F-2 2AFF ....|F-2 2AEF ....
....|..|--- .... ....|--- .... ....|--- .... ....
....|..|G-2 2F.A ....|C-4 3F.F ....|C-5 2F.F ....
....|..|--- .... ....|--- .... ....|--- .... ....
....|..|D#2 2F.7 ....|A#3 3F.F ....|A#4 2F.F ....
....|..|--- .... ....|--- .... ....|--- .... ....
..13|..|D#2 2A.F ....|D#2 2AFF ....|D#2 2AEF ....
....|..|--- .... ....|--- .... ....|--- .... ....
....|..|C-2 2F.7 ....|C-4 3F.7 ....|C-5 2F.7 ....
....|..|--- .... ....|--- .... ....|--- .... ....
....|..|--- .... ....|G-4 3F.7 ....|G-5 2F.7 ....
....|..|--- .... ....|--- .... ....|--- .... ....
..19|..|A#1 2A.F ....|C-4 3F.F ....|C-5 2F.F ....
....|..|--- .... ....|--- .... ....|--- .... ....
....|..|G-2 2F.7 ....|C-4 3F.7 ....|C-5 2F.7 ....
....|..|--- .... ....|--- .... ....|--- .... ....

[Pattern17]
..16|..|C-2 2A.F ....|C-2 2AFF ....|C-2 2AEF ....
....|..|--- .... ....|--- .... ....|--- .... ....
....|..|D#2 2F.A ....|D#2 2FFA ....|D#2 2FEA ....
....|..|--- .... ....|--- .... ....|--- .... ....
....|..|F#2 2F.7 ....|C-4 3F.7 ....|C-5 2F.7 ....
....|..|--- .... ....|--- .... ....|--- .... ....
...F|..|G-2 2A.F ....|G-2 2AFF ....|G-2 2AEF ....
....|..|--- .... ....|--- .... ....|--- .... ....
....|..|F-2 2F.7 ....|F-2 2FF7 ....|F-2 2FE7 ....
....|..|--- .... ....|--- .... ....|--- .... ....
....|..|--- .... ....|C-4 3F.7 ....|C-5 2F.7 ....
....|..|--- .... ....|--- .... ....|--- .... ....
..10|..|F#2 2A.F ....|F#2 2AFF ....|F#2 2AEF ....
....|..|--- .... ....|--- .... ....|--- .... ....
....|..|D#2 2F.7 ....|D#2 2FF7 ....|D#2 2FE7 ....
....|..|--- .... ....|--- .... ....|--- .... ....
..11|..|F-2 2A.F ....|F-2 2AFF ....|F-2 2AEF ....
....|..|--- .... ....|--- .... ....|--- .... ....
....|..|G-2 2F.A ....|G-2 2FFA ....|G-2 2FEA ....
....|..|--- .... ....|--- .... ....|--- .... ....
....|..|A#1 2F.7 ....|C-4 3F.7 ....|C-5 2F.7 ....
....|..|--- .... ....|--- .... ....|--- .... ....
..13|..|D#2 2A.F ....|D#2 2AFF ....|D#2 2AEF ....
....|..|--- .... ....|--- .... ....|--- .... ....
....|..|C-2 2F.7 ....|C-2 2FF7 ....|C-2 2FE7 ....
....|..|--- .... ....|--- .... ....|--- .... ....
....|..|--- .... ....|--- .... ....|--- .... ....
....|..|--- .... ....|--- .... ....|--- .... ....
..19|..|A#1 2A.F ....|A#1 2AFF ....|A#1 2AEF ....
....|..|--- .... ....|--- .... ....|--- .... ....
....|..|G-2 2F.7 ....|G-2 2FF7 ....|G-2 2FE7 ....
....|..|--- .... ....|--- .... ....|--- .... ....
..1E|..|G-1 2A.F ....|B-3 3F3F ....|B-4 2F3F ....
....|..|--- .... ....|--- .... ....|--- .... ....
....|..|D#2 2F.A ....|E-4 3F4F ....|E-4 2F4F ....
....|..|--- .... ....|--- .... ....|--- .... ....
....|..|F#2 2F.7 ....|F#2 2FF7 ....|F#2 2FE7 ....
....|..|--- .... ....|--- .... ....|--- .... ....
...F|..|G-2 2A.F ....|G-2 2AFF ....|G-2 2AEF ....
....|..|--- .... ....|--- .... ....|--- .... ....
....|..|F-2 2F.7 ....|F-2 2FF7 ....|F-2 2FE7 ....
....|..|--- .... ....|--- .... ....|--- .... ....
....|..|--- .... ....|--- .... ....|--- .... ....
....|..|--- .... ....|--- .... ....|--- .... ....
..1E|..|G-1 2A.F ....|A#3 3F5F ....|A#4 2F5F ....
....|..|--- .... ....|--- .... ....|--- .... ....
....|..|D#2 2F.7 ....|E-4 3F4F ....|E-4 2F4F ....
....|..|--- .... ....|--- .... ....|--- .... ....
....|..|--- .... ....|R-- .... ....|R-- .... ....
....|..|--- .... ....|--- .... ....|--- .... ....
....|..|G-2 2F.A ....|G-2 2FFA ....|G-2 2FEA ....
....|..|R-- .... ....|R-- .... ....|R-- .... ....
...F|..|G-2 2A.F ....|G-2 2AFF ....|G-2 2AEF ....
....|..|--- .... ....|--- .... ....|--- .... ....
....|..|--- .... ....|--- .... ....|--- .... ....
....|..|R-- .... ....|R-- .... ....|R-- .... ....
..1B|..|A-1 2A.F ....|D-4 3F5F ....|D-4 2F5F ....
....|..|--- .... ....|--- .... ....|--- .... ....
....|..|--- .... ....|F#4 3F4F ....|F#4 2F4F ....
....|..|R-- .... ....|R-- .... ....|R-- .... ....
..1B|..|A-2 2C.F ....|A-2 2CFF ....|A-2 2CEF ....
....|..|--- .... ....|--- .... ....|--- .... ....
....|..|G-2 2F.7 ....|G-2 2FF7 ....|G-2 2FE7 ....
....|..|R-- .... ....|R-- .... ....|R-- .... ....

[Pattern18]
..1B|..|A-1 2A.F ....|C-4 3F5F ....|C-4 2F5F ....
....|..|--- .... ....|--- .... ....|--- .... ....
....|..|--- .... ....|C#4 3F5F ....|C#4 2F5F ....
....|..|R-- .... ....|R-- .... ....|R-- .... ....
....|..|G-1 2F.7 ....|A#3 3F57 ....|A#4 2F57 ....
....|..|--- .... ....|--- .... ....|--- .... ....
..1B|..|A-2 2C.F ....|A-2 2CFF ....|A-2 2CEF ....
....|..|R-- .... ....|R-- .... ....|R-- .... ....
....|..|A-2 2F.A ....|A-2 2FFA ....|A-2 2FEA ....
....|..|--- .... ....|--- .... ....|--- .... ....
....|..|--- .... ....|--- .... ....|--- .... ....
....|..|R-- .... ....|R-- .... ....|R-- .... ....
..1B|..|A-1 2A.F ....|C-4 3F5F ....|C-4 2F5F ....
....|..|--- .... ....|--- .... ....|--- .... ....
....|..|--- .... ....|C#4 3F5F ....|C#4 2F5F ....
....|..|R-- .... ....|R-- .... ....|R-- .... ....
....|..|A-1 2F.7 ....|D-4 3F57 ....|D-4 2F57 ....
....|..|--- .... ....|--- .... ....|--- .... ....
....|..|A-2 2F.A ....|F#4 3F47 ....|F#4 2F47 ....
....|..|R-- .... ....|R-- .... ....|R-- .... ....
..1B|..|A-2 2C.F ....|A-2 2CFF ....|A-2 2CEF ....
....|..|--- .... ....|--- .... ....|--- .... ....
....|..|--- .... ....|--- .... ....|--- .... ....
....|..|R-- .... ....|R-- .... ....|R-- .... ....
..18|..|B-1 2A.F ....|E-4 3F5F ....|E-4 2F5F ....
....|..|--- .... ....|--- .... ....|--- .... ....
....|..|--- .... ....|G#4 3F4F ....|G#4 2F4F ....
....|..|R-- .... ....|R-- .... ....|R-- .... ....
...C|..|B-2 2A.F ....|B-2 2AFF ....|B-2 2AEF ....
....|..|--- .... ....|--- .... ....|--- .... ....
....|..|A-2 2F.7 ....|A-2 2FF7 ....|A-2 2FE7 ....
....|..|R-- .... ....|R-- .... ....|R-- .... ....
..16|..|C-2 2A.F ....|C-4 3F.F ....|C-5 2F.F ....
....|..|--- .... ....|--- .... ....|--- .... ....
....|..|--- .... ....|G-4 3F.F ....|G-5 2F.F ....
....|..|R-- .... ....|R-- .... ....|R-- .... ....
....|..|A-1 2F.7 ....|C-4 3F57 ....|C-4 2F57 ....
....|..|--- .... ....|--- .... ....|--- .... ....
...F|..|G-2 2A.F ....|C-4 3F.F ....|C-5 2F.F ....
....|..|R-- .... ....|R-- .... ....|R-- .... ....
....|..|B-2 2F.A ....|F#4 3F.F ....|F#5 2F.F ....
....|..|--- .... ....|--- .... ....|--- .... ....
....|..|--- .... ....|R-- .... ....|R-- .... ....
....|..|R-- .... ....|R-- .... ....|R-- .... ....
..10|..|F#2 2A.F ....|C-4 3F.F ....|C-5 2F.F ....
....|..|--- .... ....|--- .... ....|--- .... ....
....|..|--- .... ....|D#4 3F.F ....|D#5 2F.F ....
....|..|R-- .... ....|R-- .... ....|R-- .... ....
..11|..|F-2 2A.F ....|F-2 2AFF ....|F-2 2AEF ....
....|..|--- .... ....|--- .... ....|--- .... ....
....|..|G-2 2F.A ....|C-4 3F.F ....|C-5 2F.F ....
....|..|R-- .... ....|R-- .... ....|R-- .... ....
....|..|B-2 2F.7 ....|A#3 3F.F ....|A#4 2F.F ....
....|..|--- .... ....|--- .... ....|--- .... ....
..13|..|D#2 2A.F ....|D#2 2AFF ....|D#2 2AEF ....
....|..|R-- .... ....|R-- .... ....|R-- .... ....
....|..|C-2 2F.7 ....|C-4 3F.7 ....|C-5 2F.7 ....
....|..|--- .... ....|--- .... ....|--- .... ....
....|..|--- .... ....|G-4 3F.7 ....|G-5 2F.7 ....
....|..|--- .... ....|--- .... ....|--- .... ....
..19|..|A#1 2A.F ....|C-4 3F.F ....|C-5 2F.F ....
....|..|--- .... ....|--- .... ....|--- .... ....
....|..|G-2 2F.7 ....|C-4 3F.7 ....|C-5 2F.7 ....
....|..|--- .... ....|--- .... ....|--- .... ....

[Pattern19]
..16|..|C-2 2A.F ....|C-2 2AFF ....|C-2 2AEF ....
....|..|--- .... ....|--- .... ....|--- .... ....
....|..|D#2 2F.A ....|D#2 2FFA ....|D#2 2FEA ....
....|..|--- .... ....|--- .... ....|--- .... ....
....|..|F#2 2F.7 ....|C-4 3F.7 ....|C-5 2F.7 ....
....|..|--- .... ....|--- .... ....|--- .... ....
....|..|--- .... ....|D#4 3F.7 ....|D#5 2F.7 ....
....|..|--- .... ....|--- .... ....|--- .... ....
..1E|..|G-1 2A.F ....|D-4 3F.F ....|D-5 2F.F ....
....|..|--- .... ....|--- .... ....|--- .... ....
....|..|--- .... ....|C-4 3F.7 ....|C-5 2F.7 ....
....|..|--- .... ....|--- .... ....|R-- .... ....
....|..|C-2 2F.A ....|A#3 3F.7 ....|A#4 2F.7 ....
....|..|--- .... ....|--- .... ....|--- .... ....
....|..|D#2 2F.7 ....|D#2 2FF7 ....|D#2 2FE7 ....
....|..|--- .... ....|--- .... ....|--- .... ....
...E|..|G#2 2A.F ....|D#4 3F7F ....|D#4 2F7F ....
....|..|--- .... ....|--- .... ....|--- .... ....
....|..|--- .... ....|--- .... ....|--- .... ....
....|..|--- .... ....|--- .... ....|--- .... ....
..1B|..|A-2 2C.F ....|E-4 3F3F ....|E-4 2F3F ....
....|..|--- .... ....|--- .... ....|--- .... ....
....|..|--- .... ....|--- .... ....|--- .... ....
....|..|--- .... ....|--- .... ....|R-- .... ....
....|..|C-2 2F.7 ....|C-2 2FF7 ....|C-2 2FE7 ....
....|..|--- .... ....|--- .... ....|--- .... ....
....|..|--- .... ....|--- .... ....|--- .... ....
....|..|--- .... ....|--- .... ....|--- .... ....
..19|..|A#2 2C.F ....|F-4 3F7F ....|F-4 2F7F ....
....|..|--- .... ....|--- .... ....|--- .... ....
....|..|--- .... ....|--- .... ....|--- .... ....
....|..|--- .... ....|--- .... ....|--- .... ....
....|..|G-1 2F.7 ....|D-4 3F.7 ....|D-5 2F.7 ....
....|..|--- .... ....|--- .... ....|--- .... ....
....|..|--- .... ....|--- .... ....|--- .... ....
....|..|--- .... ....|--- .... ....|R-- .... ....
....|..|R-- .... ....|R-- .... ....|R-- .... ....
....|..|--- .... ....|--- .... ....|--- .... ....
..16|..|C-2 2A.F ....|C-2 2AFF ....|C-2 2AEF ....
....|..|--- .... ....|--- .... ....|--- .... ....
....|..|G#2 2F.7 ....|D#4 3F77 ....|D#4 2F77 ....
....|..|--- .... ....|--- .... ....|--- .... ....
....|..|--- .... ....|--- .... ....|--- .... ....
....|..|--- .... ....|--- .... ....|--- .... ....
...F|..|G-2 2A.F ....|G-2 2AFF ....|G-2 2AEF ....
....|..|--- .... ....|--- .... ....|--- .... ....
....|..|--- .... ....|--- .... ....|--- .... ....
....|..|--- .... ....|--- .... ....|--- .... ....
..2D|..|C-3 2C.F ....|C-3 2CFF ....|C-3 2CEF ....
....|..|--- .... ....|--- .... ....|--- .... ....
....|..|C-2 2F.A ....|C-2 2FFA ....|C-2 2FEA ....
....|..|--- .... ....|--- .... ....|--- .... ....
....|..|A#2 2F.7 ....|F-4 3F77 ....|F-4 2F77 ....
....|..|--- .... ....|--- .... ....|--- .... ....
..2D|..|C-3 2C.F ....|C-3 2CFF ....|C-3 2CEF ....
....|..|--- .... ....|--- .... ....|--- .... ....
....|..|G-2 2F.A ....|G-2 2FFA ....|G-2 2FEA ....
....|..|--- .... ....|--- .... ....|--- .... ....
....|..|--- .... ....|--- .... ....|--- .... ....
....|..|--- .... ....|--- .... ....|--- .... ....
...F|..|G-2 2A.F ....|G-2 2AFF ....|C-5 2F.F ....
....|..|--- .... ....|--- .... ....|--- .... ....
....|..|C-2 2F.7 ....|C-2 2FF7 ....|C-2 2FE7 ....
....|..|--- .... ....|--- .... ....|--- .... ....

[Pattern20]
..16|..|C-2 2A.F ....|G-3 3F2F ....|G-4 2F2F ....
....|..|--- .... ....|--- .... ....|--- .... ....
....|..|C-3 2F.A ....|C-3 2FFA ....|C-3 2FEA ....
....|..|--- .... ....|--- .... ....|--- .... ....
....|..|G-2 2F.7 ....|G-2 2FF7 ....|G-2 2FE7 ....
....|..|--- .... ....|--- .... ....|--- .... ....
..16|..|C-2 2A.F ....|E-3 3F.F ....|E-4 2F.F ....
....|..|--- .... ....|--- .... ....|--- .... ....
....|..|C-3 2F.7 ....|C-3 2FF7 ....|C-3 2FE7 ....
....|..|--- .... ....|--- .... ....|--- .... ....
....|..|--- .... ....|--- .... ....|--- .... ....
....|..|--- .... ....|--- .... ....|--- .... ....
....|..|C-2 2F.A ....|B-3 3F.F ....|B-4 2F.F ....
....|..|--- .... ....|--- .... ....|--- .... ....
....|..|C-3 2F.7 ....|C-3 2FF7 ....|C-3 2FE7 ....
....|..|--- .... ....|--- .... ....|--- .... ....
....|..|--- .... ....|A#3 3F.F ....|A#4 2F.F ....
....|..|--- .... ....|--- .... ....|--- .... ....
....|..|C-2 2F.A ....|E-3 3F.A ....|E-4 2F.A ....
....|..|--- .... ....|--- .... ....|--- .... ....
....|..|G-2 2F.7 ....|G-2 2FF7 ....|C-5 2F.7 ....
....|..|--- .... ....|--- .... ....|--- .... ....
....|..|--- .... ....|C-3 3F.F ....|C-4 2F.F ....
....|..|R-- .... ....|R-- .... ....|R-- .... ....
..16|..|C-2 2A.F ....|C-2 2AFF ....|C-2 2AEF ....
....|..|--- .... ....|--- .... ....|--- .... ....
....|..|--- .... ....|--- .... ....|--- .... ....
....|..|--- .... ....|--- .... ....|--- .... ....
....|..|--- .... ....|A#3 3F.F ....|A#4 2F.F ....
....|..|--- .... ....|--- .... ....|--- .... ....
....|..|C-2 2F.7 ....|E-3 3F.7 ....|E-4 2F.7 ....
....|..|--- .... ....|--- .... ....|--- .... ....
..2D|..|C-1 2A.F ....|E-4 3F4F ....|E-4 2F4F ....
....|..|--- .... ....|--- .... ....|--- .... ....
....|..|--- .... ....|C-3 3F.A ....|C-4 2F.A ....
....|..|R-- .... ....|R-- .... ....|R-- .... ....
....|..|C-2 2F.A ....|G-4 3F.F ....|G-4 2F.F ....
....|..|--- .... ....|--- .... ....|--- .... ....
..2D|..|C-1 2A.F ....|E-4 3F4F ....|E-4 2F4F ....
....|..|--- .... ....|--- .... ....|--- .... ....
....|..|--- .... ....|A#3 3F.7 ....|A#4 2F.7 ....
....|..|--- .... ....|--- .... ....|--- .... ....
....|..|--- .... ....|--- .... ....|--- .... ....
....|..|--- .... ....|--- .... ....|--- .... ....
....|..|C-1 2F.A ....|E-4 3F4A ....|E-4 2F4A ....
....|..|--- .... ....|--- .... ....|--- .... ....
....|..|--- .... ....|C-3 3F.7 ....|C-4 2F.7 ....
....|..|R-- .... ....|R-- .... ....|R-- .... ....
..16|..|C-2 2A.F ....|F-4 3F8F ....|F-4 2F8F ....
....|..|--- .... ....|--- .... ....|--- .... ....
....|..|C-1 2F.A ....|E-4 3F4A ....|E-4 2F4A ....
....|..|--- .... ....|--- .... ....|--- .... ....
....|..|R-- .... ....|G-4 3F.F ....|G-4 2F.F ....
....|..|--- .... ....|--- .... ....|--- .... ....
..16|..|C-2 2A.F ....|F-4 3F8F ....|F-4 2F8F ....
....|..|--- .... ....|--- .... ....|--- .... ....
....|..|C-1 2F.7 ....|E-4 3F47 ....|E-4 2F47 ....
....|..|--- .... ....|--- .... ....|--- .... ....
....|..|--- .... ....|--- .... ....|--- .... ....
....|..|--- .... ....|--- .... ....|--- .... ....
..22|..|F-1 2A.F ....|F-1 2AFF ....|F-1 2AEF ....
....|..|--- .... ....|--- .... ....|--- .... ....
....|..|C-1 2F.7 ....|E-4 3F47 ....|E-4 2F47 ....
....|..|--- .... ....|--- .... ....|--- .... ....

[Pattern21]
..2D|..|C-1 2A.F ....|E-4 3F4F ....|E-4 2F4F ....
....|..|--- .... ....|--- .... ....|--- .... ....
....|..|C-2 2F.A ....|F-4 3F8A ....|F-4 2F8A ....
....|..|--- .... ....|--- .... ....|--- .... ....
....|..|R-- .... ....|G-4 3F.F ....|G-4 2F.F ....
....|..|--- .... ....|--- .... ....|--- .... ....
..2D|..|C-1 2A.F ....|E-4 3F4F ....|E-4 2F4F ....
....|..|--- .... ....|--- .... ....|--- .... ....
....|..|C-2 2F.7 ....|E-4 3F.F ....|E-4 2F.F ....
....|..|--- .... ....|--- .... ....|--- .... ....
....|..|--- .... ....|--- .... ....|--- .... ....
....|..|--- .... ....|--- .... ....|--- .... ....
..16|..|C-2 2A.F ....|C-2 2AFF ....|F-4 2F.F ....
....|..|--- .... ....|--- .... ....|--- .... ....
....|..|C-2 2F.7 ....|F-4 3F87 ....|F-4 2F87 ....
....|..|--- .... ....|--- .... ....|--- .... ....
....|..|R-- .... ....|G-4 3F.A ....|G-4 2F.F ....
....|..|--- .... ....|--- .... ....|--- .... ....
....|..|C-1 2F.A ....|E-4 3F4A ....|E-4 2F4A ....
....|..|--- .... ....|--- .... ....|--- .... ....
..22|..|F-1 2A.F ....|F-1 2AFF ....|A-4 2F.F ....
....|..|--- .... ....|--- .... ....|--- .... ....
....|..|--- .... ....|--- .... ....|--- .... ....
....|..|--- .... ....|--- .... ....|--- .... ....
..2D|..|C-1 2A.F ....|C-1 2AFF ....|G-4 2F.F ....
....|..|--- .... ....|--- .... ....|--- .... ....
....|..|--- .... ....|--- .... ....|--- .... ....
....|..|--- .... ....|--- .... ....|--- .... ....
....|..|R-- .... ....|G-4 3F.7 ....|F-4 2F.F ....
....|..|--- .... ....|--- .... ....|--- .... ....
....|..|C-1 2F.7 ....|E-4 3F47 ....|E-4 2F47 ....
....|..|--- .... ....|--- .... ....|--- .... ....
..26|..|D#1 2A.F ....|G#3 3F5F ....|G#3 2F5F ....
....|..|--- .... ....|--- .... ....|--- .... ....
....|..|--- .... ....|--- .... ....|--- .... ....
....|..|--- .... ....|--- .... ....|--- .... ....
....|..|C-2 2F.7 ....|C-2 2FF7 ....|F-4 2F.7 ....
....|..|--- .... ....|--- .... ....|--- .... ....
..26|..|D#1 2A.F ....|D#1 2AFF ....|C-4 2F.F ....
....|..|--- .... ....|--- .... ....|--- .... ....
....|..|--- .... ....|--- .... ....|G-4 2F.7 ....
....|..|--- .... ....|--- .... ....|--- .... ....
....|..|--- .... ....|--- .... ....|--- .... ....
....|..|--- .... ....|--- .... ....|--- .... ....
....|..|F-1 2F.7 ....|F-1 2FF7 ....|A-4 2F.7 ....
....|..|--- .... ....|--- .... ....|--- .... ....
....|..|--- .... ....|--- .... ....|--- .... ....
....|..|--- .... ....|--- .... ....|--- .... ....
..13|..|D#2 2A.F ....|A-4 3F4F ....|A-4 2F4F ....
....|..|--- .... ....|--- .... ....|--- .... ....
....|..|D#1 2F.A ....|D#1 2FFA ....|C-4 2F.A ....
....|..|--- .... ....|--- .... ....|--- .... ....
....|..|--- .... ....|--- .... ....|F-4 2F.7 ....
....|..|--- .... ....|--- .... ....|--- .... ....
..16|..|C-2 2A.F ....|C-2 2AFF ....|A-4 2F.F ....
....|..|--- .... ....|--- .... ....|--- .... ....
....|..|D#1 2F.7 ....|G#3 3F57 ....|G#3 2F57 ....
....|..|--- .... ....|--- .... ....|--- .... ....
....|..|--- .... ....|--- .... ....|--- .... ....
....|..|--- .... ....|--- .... ....|--- .... ....
..26|..|D#1 2A.F ....|D#1 2AFF ....|E-4 2F.F ....
....|..|--- .... ....|--- .... ....|--- .... ....
....|..|D#1 2F.7 ....|D#1 2FF7 ....|C-4 2F.7 ....
....|..|--- .... ....|--- .... ....|R-- .... ....

[Pattern22]
..26|..|D#1 2A.F ....|G#4 3F.F ....|G#4 2F.F ....
....|..|--- .... ....|--- .... ....|--- .... ....
....|..|C-2 2F.A ....|C-2 2FFA ....|A-4 2F.A ....
....|..|--- .... ....|--- .... ....|--- .... ....
....|..|--- .... ....|--- .... ....|--- .... ....
....|..|--- .... ....|--- .... ....|--- .... ....
..26|..|D#1 2A.F ....|D#1 2AFF ....|A#5 2F.F ....
....|..|--- .... ....|--- .... ....|--- .... ....
....|..|D#2 2F.7 ....|A-4 3F47 ....|A-4 2F47 ....
....|..|--- .... ....|--- .... ....|--- .... ....
....|..|--- .... ....|--- .... ....|--- .... ....
....|..|--- .... ....|--- .... ....|R-- .... ....
....|..|D#1 2F.A ....|G#4 3F.A ....|C-6 2F.F ....
....|..|--- .... ....|--- .... ....|--- .... ....
....|..|C-2 2F.7 ....|C-2 2FF7 ....|A-4 2F.7 ....
....|..|--- .... ....|--- .... ....|--- .... ....
..26|..|D#1 2A.F ....|D#1 2AFF ....|D-6 2F.F ....
....|..|--- .... ....|--- .... ....|--- .... ....
....|..|D#1 2F.A ....|D#1 2FFA ....|A#5 2F.A ....
....|..|--- .... ....|--- .... ....|--- .... ....
....|..|D#1 2F.7 ....|D#1 2FF7 ....|E-4 2F.7 ....
....|..|--- .... ....|--- .... ....|--- .... ....
..26|..|D#1 2A.F ....|D#1 2AFF ....|C-6 2F.F ....
....|..|--- .... ....|--- .... ....|R-- .... ....
....|..|D#1 2F.7 ....|G#4 3F.7 ....|G#4 2F.7 ....
....|..|--- .... ....|--- .... ....|--- .... ....
....|..|--- .... ....|--- .... ....|--- .... ....
....|..|--- .... ....|--- .... ....|--- .... ....
....|..|D#1 2F.A ....|D#1 2FFA ....|A#5 2F.F ....
....|..|--- .... ....|--- .... ....|--- .... ....
....|..|D#1 2F.7 ....|D#1 2FF7 ....|A#5 2F.7 ....
....|..|--- .... ....|--- .... ....|--- .... ....
...F|..|G-2 2A.F ....|F#4 3F4F ....|F#4 2F4F ....
....|..|--- .... ....|--- .... ....|--- .... ....
....|..|D#1 2F.A ....|D#1 2FFA ....|C-6 2F.A ....
....|..|--- .... ....|--- .... ....|--- .... ....
....|..|R-- .... ....|R-- .... ....|C-6 2F.7 ....
....|..|--- .... ....|--- .... ....|--- .... ....
...F|..|G-2 2A.F ....|F#4 3F4F ....|F#4 2F4F ....
....|..|--- .... ....|--- .... ....|--- .... ....
....|..|D#1 2F.7 ....|D#1 2FF7 ....|D-6 2F.7 ....
....|..|--- .... ....|--- .... ....|--- .... ....
....|..|--- .... ....|--- .... ....|--- .... ....
....|..|--- .... ....|--- .... ....|--- .... ....
....|..|G-2 2F.A ....|G#4 3F.F ....|G#5 2F.F ....
....|..|--- .... ....|--- .... ....|--- .... ....
....|..|D#1 2F.7 ....|A-4 3F.F ....|A-5 2F.F ....
....|..|--- .... ....|--- .... ....|--- .... ....
...F|..|G-2 2A.F ....|F-4 3F.F ....|F-5 2F.F ....
....|..|--- .... ....|--- .... ....|--- .... ....
....|..|G-2 2F.A ....|F#4 3F4A ....|F#4 2F4A ....
....|..|--- .... ....|--- .... ....|--- .... ....
....|..|R-- .... ....|R-- .... ....|A#5 2F.7 ....
....|..|--- .... ....|--- .... ....|--- .... ....
...F|..|G-2 2A.F ....|F-4 3F.F ....|F-5 2F.F ....
....|..|--- .... ....|--- .... ....|--- .... ....
....|..|G-2 2F.7 ....|F#4 3F47 ....|F#4 2F47 ....
....|..|--- .... ....|--- .... ....|--- .... ....
....|..|--- .... ....|A-4 3F.A ....|A-5 2F.A ....
....|..|--- .... ....|--- .... ....|--- .... ....
....|..|G-2 2F.A ....|A-4 3F.F ....|A-5 2F.F ....
....|..|--- .... ....|--- .... ....|--- .... ....
....|..|G-2 2F.7 ....|A#4 3F.F ....|A#5 2F.F ....
....|..|--- .... ....|--- .... ....|--- .... ....

[Pattern23]
..11|..|F-2 2A.F ....|E-4 3F.F ....|E-5 2F.F ....
....|..|--- .... ....|--- .... ....|--- .... ....
....|..|G-2 2F.A ....|F-4 3F.A ....|F-5 2F.A ....
....|..|--- .... ....|--- .... ....|--- .... ....
....|..|R-- .... ....|G#4 3F.7 ....|G#5 2F.7 ....
....|..|--- .... ....|--- .... ....|--- .... ....
..11|..|F-2 2A.F ....|F-2 2AFF ....|F-2 2AEF ....
....|..|--- .... ....|--- .... ....|--- .... ....
....|..|G-2 2F.7 ....|F-4 3F.7 ....|F-5 2F.7 ....
....|..|--- .... ....|--- .... ....|--- .... ....
....|..|--- .... ....|A#4 3F.A ....|A#5 2F.A ....
....|..|--- .... ....|--- .... ....|--- .... ....
..14|..|D-2 2A.F ....|D-2 2AFF ....|D-2 2AEF ....
....|..|--- .... ....|--- .... ....|--- .... ....
....|..|G-2 2F.7 ....|F-4 3F.7 ....|F-5 2F.7 ....
....|..|--- .... ....|--- .... ....|--- .... ....
....|..|R-- .... ....|R-- .... ....|R-- .... ....
....|..|--- .... ....|--- .... ....|--- .... ....
....|..|F-2 2F.A ....|F-2 2FFA ....|F-2 2FEA ....
....|..|--- .... ....|--- .... ....|--- .... ....
..1E|..|G-1 2A.F ....|G-1 2AFF ....|G-1 2AEF ....
....|..|--- .... ....|--- .... ....|--- .... ....
....|..|--- .... ....|A#4 3F.7 ....|A#5 2F.7 ....
....|..|--- .... ....|--- .... ....|--- .... ....
..14|..|D-2 2A.F ....|D-2 2AFF ....|D-2 2AEF ....
....|..|--- .... ....|--- .... ....|--- .... ....
....|..|--- .... ....|--- .... ....|--- .... ....
....|..|--- .... ....|--- .... ....|--- .... ....
....|..|R-- .... ....|R-- .... ....|R-- .... ....
....|..|--- .... ....|--- .... ....|--- .... ....
....|..|F-2 2F.7 ....|F-2 2FF7 ....|F-2 2FE7 ....
....|..|--- .... ....|--- .... ....|--- .... ....
..16|..|C-2 2A.F ....|C-3 3F.F ....|C-4 2F.F ....
....|..|--- .... ....|--- .... ....|--- .... ....
....|..|--- .... ....|G-3 3F.F ....|G-4 2F.F ....
....|..|--- .... ....|--- .... ....|--- .... ....
....|..|D-2 2F.7 ....|D-2 2FF7 ....|D-2 2FE7 ....
....|..|--- .... ....|--- .... ....|--- .... ....
...F|..|G-2 2A.F ....|C-3 3F.F ....|C-4 2F.F ....
....|..|--- .... ....|--- .... ....|--- .... ....
....|..|--- .... ....|F#3 3F.F ....|F#4 2F.F ....
....|..|--- .... ....|--- .... ....|--- .... ....
....|..|--- .... ....|R-- .... ....|R-- .... ....
....|..|--- .... ....|--- .... ....|--- .... ....
..10|..|F#2 2A.F ....|C-3 3F.F ....|C-4 2F.F ....
....|..|--- .... ....|--- .... ....|--- .... ....
....|..|--- .... ....|D#3 3F.F ....|D#4 2F.F ....
....|..|--- .... ....|--- .... ....|--- .... ....
..11|..|F-2 2A.F ....|F-2 2AFF ....|F-2 2AEF ....
....|..|--- .... ....|--- .... ....|--- .... ....
....|..|G-2 2F.A ....|C-3 3F.F ....|C-4 2F.F ....
....|..|--- .... ....|--- .... ....|--- .... ....
....|..|--- .... ....|A#2 3F.F ....|A#3 2F.F ....
....|..|--- .... ....|--- .... ....|--- .... ....
..13|..|D#2 2A.F ....|D#2 2AFF ....|D#2 2AEF ....
....|..|--- .... ....|--- .... ....|--- .... ....
....|..|C-2 2F.7 ....|C-3 3F.7 ....|C-4 2F.7 ....
....|..|--- .... ....|--- .... ....|--- .... ....
....|..|--- .... ....|G-3 3F.7 ....|G-4 2F.7 ....
....|..|--- .... ....|--- .... ....|--- .... ....
..19|..|A#1 2A.F ....|C-3 3F.F ....|C-4 2F.F ....
....|..|--- .... ....|--- .... ....|--- .... ....
....|..|G-2 2F.7 ....|C-3 3F.7 ....|C-4 2F.7 ....
....|..|--- .... ....|--- .... ....|--- .... ....

[Pattern24]
..16|..|C-2 2A.F ....|C-2 2AFF ....|C-2 2AEF ....
....|..|--- .... ....|--- .... ....|--- .... ....
....|..|D#2 2F.A ....|D#2 2FFA ....|D#2 2FEA ....
....|..|--- .... ....|--- .... ....|--- .... ....
....|..|F#2 2F.7 ....|C-3 3F.7 ....|C-4 2F.7 ....
....|..|--- .... ....|--- .... ....|--- .... ....
...F|..|G-2 2A.F ....|G-2 2AFF ....|G-2 2AEF ....
....|..|--- .... ....|--- .... ....|--- .... ....
....|..|F-2 2F.7 ....|F-2 2FF7 ....|F-2 2FE7 ....
....|..|--- .... ....|--- .... ....|--- .... ....
....|..|--- .... ....|C-3 3F.7 ....|C-4 2F.7 ....
....|..|--- .... ....|--- .... ....|--- .... ....
..10|..|F#2 2A.F ....|F#2 2AFF ....|F#2 2AEF ....
....|..|--- .... ....|--- .... ....|--- .... ....
....|..|D#2 2F.7 ....|D#2 2FF7 ....|D#2 2FE7 ....
....|..|--- .... ....|--- .... ....|--- .... ....
..11|..|F-2 2A.F ....|F-2 2AFF ....|F-2 2AEF ....
....|..|--- .... ....|--- .... ....|--- .... ....
....|..|G-2 2F.A ....|G-2 2FFA ....|G-2 2FEA ....
....|..|--- .... ....|--- .... ....|--- .... ....
....|..|A#1 2F.7 ....|C-3 3F.7 ....|C-4 2F.7 ....
....|..|--- .... ....|--- .... ....|--- .... ....
..13|..|D#2 2A.F ....|D#2 2AFF ....|D#2 2AEF ....
....|..|--- .... ....|--- .... ....|--- .... ....
....|..|C-2 2F.7 ....|C-2 2FF7 ....|C-2 2FE7 ....
....|..|--- .... ....|--- .... ....|--- .... ....
....|..|--- .... ....|--- .... ....|--- .... ....
....|..|--- .... ....|--- .... ....|--- .... ....
..19|..|A#1 2A.F ....|A#1 2AFF ....|A#1 2AEF ....
....|..|--- .... ....|--- .... ....|--- .... ....
....|..|G-2 2F.7 ....|G-2 2FF7 ....|G-2 2FE7 ....
....|..|--- .... ....|--- .... ....|--- .... ....
..16|..|C-2 2A.F ....|C-3 3F.F ....|C-4 2F.F ....
....|..|--- .... ....|--- .... ....|--- .... ....
....|..|D#2 2F.A ....|G-3 3F.F ....|G-4 2F.F ....
....|..|--- .... ....|--- .... ....|--- .... ....
....|..|F#2 2F.7 ....|F#2 2FF7 ....|F#2 2FE7 ....
....|..|--- .... ....|--- .... ....|--- .... ....
...F|..|G-2 2A.F ....|C-3 3F.F ....|C-4 2F.F ....
....|..|--- .... ....|--- .... ....|--- .... ....
....|..|F-2 2F.7 ....|F#3 3F.F ....|F#4 2F.F ....
....|..|--- .... ....|--- .... ....|--- .... ....
....|..|--- .... ....|R-- .... ....|R-- .... ....
....|..|--- .... ....|--- .... ....|--- .... ....
..10|..|F#2 2A.F ....|C-3 3F.F ....|C-4 2F.F ....
....|..|--- .... ....|--- .... ....|--- .... ....
....|..|D#2 2F.7 ....|D#3 3F.F ....|D#4 2F.F ....
....|..|--- .... ....|--- .... ....|--- .... ....
..11|..|F-2 2A.F ....|F-2 2AFF ....|F-2 2AEF ....
....|..|--- .... ....|--- .... ....|--- .... ....
....|..|G-2 2F.A ....|C-3 3F.F ....|C-4 2F.F ....
....|..|--- .... ....|--- .... ....|--- .... ....
....|..|A#1 2F.7 ....|A#2 3F.F ....|A#3 2F.F ....
....|..|--- .... ....|--- .... ....|--- .... ....
..13|..|D#2 2A.F ....|D#2 2AFF ....|D#2 2AEF ....
....|..|--- .... ....|--- .... ....|--- .... ....
....|..|C-2 2F.7 ....|C-3 3F.7 ....|C-4 2F.7 ....
....|..|--- .... ....|--- .... ....|--- .... ....
....|..|--- .... ....|G-3 3F.7 ....|G-4 2F.7 ....
....|..|--- .... ....|--- .... ....|--- .... ....
..19|..|A#1 2A.F ....|C-3 3F.F ....|C-4 2F.F ....
....|..|--- .... ....|--- .... ....|--- .... ....
....|..|G-2 2F.7 ....|C-3 3F.7 ....|C-4 2F.7 ....
....|..|--- .... ....|--- .... ....|--- .... ....

[Pattern25]
..16|..|C-2 2A.F ....|C-2 2AFF ....|C-2 2AEF ....
....|..|--- .... ....|--- .... ....|--- .... ....
....|..|D#2 2F.A ....|D#2 2FFA ....|D#2 2FEA ....
....|..|--- .... ....|--- .... ....|--- .... ....
....|..|F#2 2F.7 ....|C-3 3F.7 ....|C-4 2F.7 ....
....|..|--- .... ....|--- .... ....|--- .... ....
...F|..|G-2 2A.F ....|G-2 2AFF ....|G-2 2AEF ....
....|..|--- .... ....|--- .... ....|--- .... ....
....|..|F-2 2F.7 ....|F-2 2FF7 ....|F-2 2FE7 ....
....|..|--- .... ....|--- .... ....|--- .... ....
....|..|--- .... ....|C-3 3F.7 ....|C-4 2F.7 ....
....|..|--- .... ....|--- .... ....|--- .... ....
..10|..|F#2 2A.F ....|F#2 2AFF ....|F#2 2AEF ....
....|..|--- .... ....|--- .... ....|--- .... ....
....|..|D#2 2F.7 ....|D#2 2FF7 ....|D#2 2FE7 ....
....|..|--- .... ....|--- .... ....|--- .... ....
..11|..|F-2 2A.F ....|F-2 2AFF ....|F-2 2AEF ....
....|..|--- .... ....|--- .... ....|--- .... ....
....|..|G-2 2F.A ....|G-2 2FFA ....|G-2 2FEA ....
....|..|--- .... ....|--- .... ....|--- .... ....
....|..|A#1 2F.7 ....|C-3 3F.7 ....|C-4 2F.7 ....
....|..|--- .... ....|--- .... ....|--- .... ....
..13|..|D#2 2A.F ....|D#2 2AFF ....|D#2 2AEF ....
....|..|--- .... ....|--- .... ....|--- .... ....
....|..|C-2 2F.7 ....|C-2 2FF7 ....|C-2 2FE7 ....
....|..|--- .... ....|--- .... ....|--- .... ....
....|..|--- .... ....|--- .... ....|--- .... ....
....|..|--- .... ....|--- .... ....|--- .... ....
..19|..|A#1 2A.F ....|A#1 2AFF ....|A#1 2AEF ....
....|..|--- .... ....|--- .... ....|--- .... ....
....|..|G-2 2F.7 ....|G-2 2FF7 ....|G-2 2FE7 ....
....|..|--- .... ....|--- .... ....|--- .... ....
..11|..|F-2 2A.F ....|F-3 3F.F ....|F-4 2F.F ....
....|..|--- .... ....|--- .... ....|--- .... ....
....|..|D#2 2F.A ....|C-4 3F.F ....|C-5 2F.F ....
....|..|--- .... ....|--- .... ....|--- .... ....
....|..|F#2 2F.7 ....|F#2 2FF7 ....|F#2 2FE7 ....
....|..|--- .... ....|--- .... ....|--- .... ....
..2D|..|C-3 2C.F ....|F-3 3F.F ....|F-4 2F.F ....
....|..|--- .... ....|--- .... ....|--- .... ....
....|..|F-2 2F.7 ....|B-3 3F.F ....|B-4 2F.F ....
....|..|--- .... ....|--- .... ....|--- .... ....
....|..|--- .... ....|R-- .... ....|R-- .... ....
....|..|--- .... ....|--- .... ....|--- .... ....
...C|..|B-2 2A.F ....|F-3 3F.F ....|F-4 2F.F ....
....|..|--- .... ....|--- .... ....|--- .... ....
....|..|D#2 2F.7 ....|G#3 3F.F ....|G#4 2F.F ....
....|..|--- .... ....|--- .... ....|--- .... ....
..19|..|A#2 2C.F ....|A#2 2CFF ....|A#2 2CEF ....
....|..|--- .... ....|--- .... ....|--- .... ....
....|..|C-3 2F.A ....|F-3 3F.F ....|F-4 2F.F ....
....|..|--- .... ....|--- .... ....|--- .... ....
....|..|A#1 2F.7 ....|D#3 3F.F ....|D#4 2F.F ....
....|..|--- .... ....|--- .... ....|--- .... ....
...E|..|G#2 2A.F ....|G#2 2AFF ....|G#2 2AEF ....
....|..|--- .... ....|--- .... ....|--- .... ....
....|..|F-2 2F.7 ....|F-3 3F.7 ....|F-4 2F.7 ....
....|..|--- .... ....|--- .... ....|--- .... ....
....|..|--- .... ....|C-4 3F.7 ....|C-5 2F.7 ....
....|..|--- .... ....|--- .... ....|--- .... ....
..13|..|D#2 2A.F ....|F-3 3F.F ....|F-4 2F.F ....
....|..|--- .... ....|--- .... ....|--- .... ....
....|..|C-3 2F.7 ....|F-3 3F.7 ....|F-4 2F.7 ....
....|..|--- .... ....|--- .... ....|--- .... ....

[Pattern26]
..11|..|F-2 2A.F ....|F-2 2AFF ....|F-2 2AEF ....
....|..|--- .... ....|--- .... ....|--- .... ....
....|..|G#2 2F.A ....|G#2 2FFA ....|G#2 2FEA ....
....|..|--- .... ....|--- .... ....|--- .... ....
....|..|B-2 2F.7 ....|F-3 3F.7 ....|F-4 2F.7 ....
....|..|--- .... ....|--- .... ....|--- .... ....
..2D|..|C-3 2C.F ....|C-3 2CFF ....|C-3 2CEF ....
....|..|--- .... ....|--- .... ....|--- .... ....
....|..|A#2 2F.7 ....|A#2 2FF7 ....|A#2 2FE7 ....
....|..|--- .... ....|--- .... ....|--- .... ....
....|..|--- .... ....|F-3 3F.7 ....|F-4 2F.7 ....
....|..|--- .... ....|--- .... ....|--- .... ....
...C|..|B-2 2A.F ....|B-2 2AFF ....|B-2 2AEF ....
....|..|--- .... ....|--- .... ....|--- .... ....
....|..|G#2 2F.7 ....|G#2 2FF7 ....|G#2 2FE7 ....
....|..|--- .... ....|--- .... ....|--- .... ....
..19|..|A#2 2C.F ....|A#2 2CFF ....|A#2 2CEF ....
....|..|--- .... ....|--- .... ....|--- .... ....
....|..|C-3 2F.A ....|C-3 2FFA ....|C-3 2FEA ....
....|..|--- .... ....|--- .... ....|--- .... ....
....|..|D#2 2F.7 ....|F-3 3F.7 ....|F-4 2F.7 ....
....|..|--- .... ....|--- .... ....|--- .... ....
...E|..|G#2 2A.F ....|G#2 2AFF ....|G#2 2AEF ....
....|..|--- .... ....|--- .... ....|--- .... ....
....|..|F-2 2F.7 ....|F-2 2FF7 ....|F-2 2FE7 ....
....|..|--- .... ....|--- .... ....|--- .... ....
....|..|--- .... ....|--- .... ....|--- .... ....
....|..|--- .... ....|--- .... ....|--- .... ....
..13|..|D#2 2A.F ....|D#2 2AFF ....|D#2 2AEF ....
....|..|--- .... ....|--- .... ....|--- .... ....
....|..|C-3 2F.7 ....|C-3 2FF7 ....|C-3 2FE7 ....
....|..|--- .... ....|--- .... ....|--- .... ....
..16|..|C-2 2A.F ....|C-3 3F.F ....|C-4 2F.F ....
....|..|--- .... ....|--- .... ....|--- .... ....
....|..|G#2 2F.A ....|G-3 3F.F ....|G-4 2F.F ....
....|..|--- .... ....|--- .... ....|--- .... ....
....|..|B-2 2F.7 ....|B-2 2FF7 ....|B-2 2FE7 ....
....|..|--- .... ....|--- .... ....|--- .... ....
...F|..|G-2 2A.F ....|C-3 3F.F ....|C-4 2F.F ....
....|..|--- .... ....|--- .... ....|--- .... ....
....|..|A#2 2F.7 ....|F#3 3F.F ....|F#4 2F.F ....
....|..|--- .... ....|--- .... ....|--- .... ....
....|..|--- .... ....|R-- .... ....|R-- .... ....
....|..|--- .... ....|--- .... ....|--- .... ....
..10|..|F#2 2A.F ....|C-3 3F.F ....|C-4 2F.F ....
....|..|--- .... ....|--- .... ....|--- .... ....
....|..|G#2 2F.7 ....|D#3 3F.F ....|D#4 2F.F ....
....|..|--- .... ....|--- .... ....|--- .... ....
..11|..|F-2 2A.F ....|F-2 2AFF ....|F-2 2AEF ....
....|..|--- .... ....|--- .... ....|--- .... ....
....|..|G-2 2F.A ....|C-3 3F.F ....|C-4 2F.F ....
....|..|--- .... ....|--- .... ....|--- .... ....
....|..|D#2 2F.7 ....|A#2 3F.F ....|A#3 2F.F ....
....|..|--- .... ....|--- .... ....|--- .... ....
..13|..|D#2 2A.F ....|D#2 2AFF ....|D#2 2AEF ....
....|..|--- .... ....|--- .... ....|--- .... ....
....|..|C-2 2F.7 ....|C-3 3F.7 ....|C-4 2F.7 ....
....|..|--- .... ....|--- .... ....|--- .... ....
....|..|--- .... ....|G-3 3F.7 ....|G-4 2F.7 ....
....|..|--- .... ....|--- .... ....|--- .... ....
..19|..|A#1 2A.F ....|C-3 3F.F ....|C-4 2F.F ....
....|..|--- .... ....|--- .... ....|--- .... ....
....|..|G-2 2F.7 ....|C-3 3F.7 ....|C-4 2F.7 ....
....|..|--- .... ....|--- .... ....|--- .... ....

[Pattern27]
..16|..|C-2 2A.F ....|C-2 2AFF ....|C-2 2AEF ....
....|..|--- .... ....|--- .... ....|--- .... ....
....|..|D#2 2F.A ....|D#2 2FFA ....|D#2 2FEA ....
....|..|--- .... ....|--- .... ....|--- .... ....
....|..|F#2 2F.7 ....|C-3 3F.7 ....|C-4 2F.7 ....
....|..|--- .... ....|--- .... ....|--- .... ....
...F|..|G-2 2A.F ....|G-2 2AFF ....|G-2 2AEF ....
....|..|--- .... ....|--- .... ....|--- .... ....
....|..|F-2 2F.7 ....|F-2 2FF7 ....|F-2 2FE7 ....
....|..|--- .... ....|--- .... ....|--- .... ....
....|..|--- .... ....|C-3 3F.7 ....|C-4 2F.7 ....
....|..|--- .... ....|--- .... ....|--- .... ....
..10|..|F#2 2A.F ....|F#2 2AFF ....|F#2 2AEF ....
....|..|--- .... ....|--- .... ....|--- .... ....
....|..|D#2 2F.7 ....|D#2 2FF7 ....|D#2 2FE7 ....
....|..|--- .... ....|--- .... ....|--- .... ....
..11|..|F-2 2A.F ....|F-2 2AFF ....|F-2 2AEF ....
....|..|--- .... ....|--- .... ....|--- .... ....
....|..|G-2 2F.A ....|G-2 2FFA ....|G-2 2FEA ....
....|..|--- .... ....|--- .... ....|--- .... ....
....|..|A#1 2F.7 ....|C-3 3F.7 ....|C-4 2F.7 ....
....|..|--- .... ....|--- .... ....|--- .... ....
..13|..|D#2 2A.F ....|D#2 2AFF ....|D#2 2AEF ....
....|..|--- .... ....|--- .... ....|--- .... ....
....|..|C-2 2F.7 ....|C-2 2FF7 ....|C-2 2FE7 ....
....|..|--- .... ....|--- .... ....|--- .... ....
....|..|--- .... ....|--- .... ....|--- .... ....
....|..|--- .... ....|--- .... ....|--- .... ....
..19|..|A#1 2A.F ....|A#1 2AFF ....|A#1 2AEF ....
....|..|--- .... ....|--- .... ....|--- .... ....
....|..|G-2 2F.7 ....|G-2 2FF7 ....|G-2 2FE7 ....
....|..|--- .... ....|--- .... ....|--- .... ....
..1E|..|G-1 2A.F ....|B-3 3F3F ....|B-4 2F3F ....
....|..|--- .... ....|--- .... ....|--- .... ....
....|..|D#2 2F.A ....|E-4 3F4F ....|E-4 2F4F ....
....|..|--- .... ....|--- .... ....|--- .... ....
....|..|F#2 2F.7 ....|F#2 2FF7 ....|F#2 2FE7 ....
....|..|--- .... ....|--- .... ....|--- .... ....
...F|..|G-2 2A.F ....|G-2 2AFF ....|G-2 2F.F ....
....|..|--- .... ....|--- .... ....|--- .... ....
....|..|F-2 2F.7 ....|F-2 2FF7 ....|F-2 2FE7 ....
....|..|--- .... ....|--- .... ....|--- .... ....
....|..|--- .... ....|--- .... ....|R-- .... ....
....|..|--- .... ....|--- .... ....|--- .... ....
..1E|..|G-1 2A.F ....|A#3 3F5F ....|A#4 2F5F ....
....|..|--- .... ....|--- .... ....|--- .... ....
....|..|D#2 2F.7 ....|E-4 3F4F ....|E-4 2F4F ....
....|..|--- .... ....|--- .... ....|--- .... ....
....|..|--- .... ....|R-- .... ....|R-- .... ....
....|..|--- .... ....|--- .... ....|--- .... ....
....|..|G-2 2F.A ....|G-2 2FFA ....|G-2 2F.F ....
....|..|R-- .... ....|R-- .... ....|R-- .... ....
...F|..|G-2 2A.F ....|G-2 2AFF ....|G-2 2AEF ....
....|..|--- .... ....|--- .... ....|--- .... ....
....|..|--- .... ....|--- .... ....|R-- .... ....
....|..|R-- .... ....|R-- .... ....|R-- .... ....
..1E|..|G-1 2A.F ....|D-4 3F5F ....|D-4 2F5F ....
....|..|--- .... ....|--- .... ....|--- .... ....
....|..|--- .... ....|F#4 3F4F ....|F#4 2F4F ....
....|..|R-- .... ....|R-- .... ....|R-- .... ....
...F|..|G-2 2A.F ....|G-2 2AFF ....|G-2 2AEF ....
....|..|--- .... ....|--- .... ....|--- .... ....
....|..|G-2 2F.7 ....|G-2 2FF7 ....|G-2 2F.7 ....
....|..|R-- .... ....|R-- .... ....|R-- .... ....

[Pattern28]
..1C|..|G#1 2A.F ....|C-4 3F5F ....|C-4 2F5F ....
....|..|--- .... ....|--- .... ....|--- .... ....
....|..|--- .... ....|C#4 3F5F ....|C#4 2F5F ....
....|..|R-- .... ....|R-- .... ....|R-- .... ....
....|..|G-1 2F.7 ....|A#3 3F57 ....|A#4 2F57 ....
....|..|--- .... ....|--- .... ....|--- .... ....
...E|..|G#2 2A.F ....|G#2 2AFF ....|G-2 2F.F ....
....|..|R-- .... ....|R-- .... ....|R-- .... ....
....|..|G-2 2F.A ....|G-2 2FFA ....|G-2 2FEA ....
....|..|--- .... ....|--- .... ....|--- .... ....
....|..|--- .... ....|--- .... ....|G-2 2F.7 ....
....|..|R-- .... ....|R-- .... ....|R-- .... ....
..1C|..|G#1 2A.F ....|C-4 3F5F ....|C-4 2F5F ....
....|..|--- .... ....|--- .... ....|--- .... ....
....|..|--- .... ....|C#4 3F5F ....|C#4 2F5F ....
....|..|R-- .... ....|R-- .... ....|R-- .... ....
....|..|G-1 2F.7 ....|D-4 3F57 ....|D-4 2F57 ....
....|..|--- .... ....|--- .... ....|--- .... ....
....|..|G#2 2F.A ....|F#4 3F47 ....|G-2 2F.F ....
....|..|R-- .... ....|R-- .... ....|R-- .... ....
...E|..|G#2 2A.F ....|G#2 2AFF ....|G#2 2AEF ....
....|..|--- .... ....|--- .... ....|--- .... ....
....|..|--- .... ....|--- .... ....|R-- .... ....
....|..|R-- .... ....|R-- .... ....|R-- .... ....
..19|..|A#1 2A.F ....|E-4 3F5F ....|E-4 2F5F ....
....|..|--- .... ....|--- .... ....|--- .... ....
....|..|--- .... ....|G#4 3F4F ....|G#4 2F4F ....
....|..|R-- .... ....|R-- .... ....|R-- .... ....
...E|..|G#2 2A.F ....|G#2 2AFF ....|G#2 2AEF ....
....|..|--- .... ....|--- .... ....|--- .... ....
....|..|G#2 2F.7 ....|G#2 2FF7 ....|G-2 2F.7 ....
....|..|R-- .... ....|R-- .... ....|R-- .... ....
..1B|..|A-1 2A.F ....|D#4 3F9F ....|D#4 2F9F ....
....|..|--- .... ....|--- .... ....|--- .... ....
....|..|--- .... ....|D#4 3F7F ....|D#4 2F7F ....
....|..|R-- .... ....|R-- .... ....|R-- .... ....
....|..|G#1 2F.7 ....|C-4 3F57 ....|C-4 2F57 ....
....|..|--- .... ....|--- .... ....|--- .... ....
...E|..|G#2 2A.F ....|G#2 2AFF ....|G#2 2AEF ....
....|..|R-- .... ....|R-- .... ....|R-- .... ....
....|..|G#2 2F.A ....|G#2 2FFA ....|G#2 2FEA ....
....|..|--- .... ....|--- .... ....|--- .... ....
....|..|--- .... ....|--- .... ....|G-2 2F.7 ....
....|..|R-- .... ....|R-- .... ....|R-- .... ....
..1B|..|A-1 2A.F ....|D#4 3F7F ....|D#4 2F7F ....
....|..|--- .... ....|--- .... ....|--- .... ....
....|..|--- .... ....|D#4 3F5F ....|D#4 2F5F ....
....|..|R-- .... ....|R-- .... ....|R-- .... ....
....|..|A#1 2F.7 ....|E-4 3F57 ....|E-4 2F57 ....
....|..|--- .... ....|--- .... ....|--- .... ....
....|..|G#2 2F.A ....|G#4 3F47 ....|G#4 2F47 ....
....|..|R-- .... ....|R-- .... ....|R-- .... ....
...E|..|G#2 2A.F ....|G#2 2AFF ....|G#2 2AEF ....
....|..|--- .... ....|--- .... ....|--- .... ....
....|..|--- .... ....|--- .... ....|--- .... ....
....|..|R-- .... ....|R-- .... ....|R-- .... ....
..1B|..|A-1 2A.F ....|G-4 3F4F ....|G-4 2F4F ....
....|..|--- .... ....|--- .... ....|--- .... ....
....|..|--- .... ....|F#4 3F4F ....|F#4 2F4F ....
....|..|R-- .... ....|R-- .... ....|R-- .... ....
...E|..|G#2 2A.F ....|G#2 2AFF ....|G#2 2AEF ....
....|..|--- .... ....|--- .... ....|--- .... ....
....|..|G#2 2F.7 ....|G#2 2FF7 ....|G#2 2FE7 ....
....|..|R-- .... ....|R-- .... ....|R-- .... ....

[Pattern29]
....|..|G#2 2F.A ....|G#2 2FFA ....|G#2 2FEA ....
....|..|--- .... ....|--- .... ....|--- .... ....
....|..|--- .... ....|--- .... ....|--- .... ....
....|..|R-- .... ....|R-- .... ....|R-- .... ....
..14|..|D-3 2C.F ....|E-4 3F.F ....|E-5 2F.F ....
....|..|--- .... ....|--- .... ....|--- .... ....
..14|..|D-3 2C.F ....|D#4 3F.F ....|D#5 2F.F ....
....|..|R-- .... ....|R-- .... ....|R-- .... ....
....|..|G#2 2F.A ....|G#2 2FFA ....|G#2 2FEA ....
....|..|--- .... ....|--- .... ....|--- .... ....
....|..|--- .... ....|--- .... ....|--- .... ....
....|..|R-- .... ....|R-- .... ....|R-- .... ....
....|..|G#2 2F.7 ....|G#2 2FF7 ....|G#2 2FE7 ....
....|..|--- .... ....|--- .... ....|--- .... ....
....|..|--- .... ....|--- .... ....|--- .... ....
....|..|R-- .... ....|R-- .... ....|R-- .... ....
..13|..|D#3 2C.F ....|G-4 3F.F ....|G-5 2F.F ....
....|..|--- .... ....|--- .... ....|--- .... ....
..13|..|D#3 2C.F ....|F-4 3F.F ....|F-5 2F.F ....
....|..|R-- .... ....|R-- .... ....|R-- .... ....
....|..|G#2 2F.7 ....|G#2 2FF7 ....|G#2 2FE7 ....
....|..|--- .... ....|--- .... ....|--- .... ....
....|..|--- .... ....|--- .... ....|--- .... ....
....|..|R-- .... ....|R-- .... ....|R-- .... ....
..1B|..|A-2 2C.F ....|A-2 2CFF ....|A-3 2F.F ....
....|..|--- .... ....|--- .... ....|--- .... ....
..11|..|F-2 2A.F ....|F-2 2AFF ....|F-3 2F.F ....
....|..|--- .... ....|--- .... ....|--- .... ....
..15|..|C#2 2A.F ....|C#2 2AFF ....|C#3 2F.F ....
....|..|--- .... ....|--- .... ....|--- .... ....
..18|..|B-1 2A.F ....|B-1 2AFF ....|B-2 2F.F ....
....|..|--- .... ....|--- .... ....|--- .... ....
..1E|..|G-1 2A.F ....|F-4 3FAF ....|F-4 2FAF ....
....|..|--- .... ....|--- .... ....|--- .... ....
....|..|--- .... ....|--- .... ....|--- .... ....
....|..|--- .... ....|--- .... ....|--- .... ....
....|..|A-2 2F.A ....|A-2 2FFA ....|A-3 2F.A ....
....|..|--- .... ....|--- .... ....|--- .... ....
..14|..|D-2 2A.F ....|D-2 2AFF ....|D-2 2AEF ....
....|..|--- .... ....|--- .... ....|--- .... ....
....|..|D#3 2F.7 ....|G-4 3F.7 ....|G-5 2F.7 ....
....|..|--- .... ....|--- .... ....|--- .... ....
....|..|D#3 2F.7 ....|F-4 3F.7 ....|F-5 2F.7 ....
....|..|--- .... ....|R-- .... ....|R-- .... ....
..1E|..|G-1 2A.F ....|F-4 3FAF ....|F-4 2FAF ....
....|..|--- .... ....|--- .... ....|--- .... ....
....|..|--- .... ....|--- .... ....|--- .... ....
....|..|--- .... ....|--- .... ....|--- .... ....
....|..|A-2 2F.7 ....|A-2 2FF7 ....|A-3 2F.7 ....
....|..|--- .... ....|--- .... ....|--- .... ....
....|..|F-2 2F.7 ....|F-2 2FF7 ....|F-3 2F.7 ....
....|..|--- .... ....|--- .... ....|--- .... ....
....|..|C#2 2F.7 ....|C#2 2FF7 ....|C#3 2F.7 ....
....|..|--- .... ....|--- .... ....|--- .... ....
....|..|B-1 2F.7 ....|B-1 2FF7 ....|B-2 2F.7 ....
....|..|--- .... ....|R-- .... ....|R-- .... ....
....|..|G-1 2F.7 ....|F-4 3FA7 ....|F-4 2FA7 ....
....|..|--- .... ....|--- .... ....|--- .... ....
....|..|--- .... ....|--- .... ....|--- .... ....
....|..|--- .... ....|--- .... ....|--- .... ....
....|..|--- .... ....|--- .... ....|--- .... ....
....|..|--- .... ....|--- .... ....|--- .... ....
....|..|D-2 2F.7 ....|D-2 2FF7 ....|D-2 2FE7 ....
....|..|--- .... ....|--- .... ....|--- .... ....

[Pattern30]
....|..|--- .... ....|--- .... ....|--- .... ....
....|..|--- .... ....|--- .... ....|--- .... ....
...C|..|B-2 2A.F ....|B-2 2AFF ....|B-2 2AEF ....
....|..|--- .... ....|R-- .... ....|R-- .... ....
...F|..|G-2 2A.F ....|G-2 2AFF ....|G-2 2AEF ....
....|..|--- .... ....|--- .... ....|--- .... ....
..14|..|D-2 2A.F ....|D-2 2AFF ....|D-2 2AEF ....
....|..|--- .... ....|--- .... ....|--- .... ....
....|..|R-- .... ....|R-- .... ....|R-- .... ....
....|..|--- .... ....|--- .... ....|--- .... ....
..18|..|B-1 2A.F ....|B-1 2AFF ....|B-1 2AEF ....
....|..|--- .... ....|--- .... ....|--- .... ....
..16|..|C-2 2A.F ....|C-2 2AFF ....|C-2 2AEF ....
....|..|--- .... ....|--- .... ....|--- .... ....
..15|..|C#2 2A.F ....|C#2 2AFF ....|C#2 2AEF ....
....|..|--- .... ....|--- .... ....|--- .... ....
....|..|G-2 2F.A ....|G-2 2FFA ....|G-2 2FEA ....
....|..|--- .... ....|--- .... ....|--- .... ....
....|..|D-2 2F.A ....|D-2 2FFA ....|D-2 2FEA ....
....|..|--- .... ....|--- .... ....|--- .... ....
..15|..|C#2 2A.F ....|C#2 2AFF ....|C#2 2AEF ....
....|..|--- .... ....|--- .... ....|--- .... ....
....|..|B-1 2F.A ....|B-1 2FFA ....|B-1 2FEA ....
....|..|--- .... ....|--- .... ....|--- .... ....
..1E|..|G-1 2A.F ....|G-1 2AFF ....|G-1 2AEF ....
....|..|--- .... ....|--- .... ....|--- .... ....
....|..|B-2 2F.7 ....|B-2 2FF7 ....|B-2 2FE7 ....
....|..|--- .... ....|--- .... ....|--- .... ....
....|..|G-2 2F.7 ....|G-2 2FF7 ....|G-2 2FE7 ....
....|..|--- .... ....|--- .... ....|--- .... ....
....|..|D-2 2F.7 ....|D-2 2FF7 ....|D-2 2FE7 ....
....|..|--- .... ....|--- .... ....|--- .... ....
..1E|..|G-1 2A.F ....|F-4 3FAF ....|F-4 2FAF ....
....|..|--- .... ....|--- .... ....|--- .... ....
....|..|B-1 2F.7 ....|B-1 2FF7 ....|B-1 2FE7 ....
....|..|--- .... ....|--- .... ....|--- .... ....
....|..|C-2 2F.7 ....|C-2 2FF7 ....|C-2 2FE7 ....
....|..|--- .... ....|--- .... ....|--- .... ....
..14|..|D-2 2A.F ....|D-2 2AFF ....|D-2 2AEF ....
....|..|--- .... ....|--- .... ....|--- .... ....
....|..|--- .... ....|--- .... ....|--- .... ....
....|..|--- .... ....|--- .... ....|--- .... ....
....|..|--- .... ....|--- .... ....|--- .... ....
....|..|--- .... ....|R-- .... ....|R-- .... ....
..1E|..|G-1 2A.F ....|F-4 3FAF ....|F-4 2FAF ....
....|..|--- .... ....|--- .... ....|--- .... ....
....|..|--- .... ....|--- .... ....|--- .... ....
....|..|--- .... ....|--- .... ....|--- .... ....
....|..|G-1 2F.7 ....|G-1 2FF7 ....|G-1 2FE7 ....
....|..|--- .... ....|--- .... ....|--- .... ....
..14|..|D-2 2A.F ....|D-2 2AFF ....|D-2 2AEF ....
....|..|--- .... ....|--- .... ....|--- .... ....
..11|..|F-2 2A.F ....|F-2 2AFF ....|F-2 2AEF ....
....|..|--- .... ....|--- .... ....|--- .... ....
..10|..|F#2 2A.F ....|F#2 2AFF ....|F#2 2AEF ....
....|..|--- .... ....|R-- .... ....|R-- .... ....
...F|..|G-2 2A.F ....|G-2 2AFF ....|G-2 2AEF ....
....|..|--- .... ....|--- .... ....|--- .... ....
....|..|--- .... ....|--- .... ....|--- .... ....
....|..|--- .... ....|--- .... ....|--- .... ....
....|..|--- .... ....|--- .... ....|--- .... ....
....|..|--- .... ....|--- .... ....|--- .... ....
....|..|D-2 2F.7 ....|D-2 2FF7 ....|D-2 2FE7 ....
....|..|--- .... ....|--- .... ....|--- .... ....

[Pattern31]
....|..|F-2 2F.A ....|F-2 2FFA ....|F-2 2FEA ....
....|..|--- .... ....|--- .... ....|--- .... ....
....|..|F#2 2F.A ....|F#2 2FFA ....|F#2 2FEA ....
....|..|--- .... ....|R-- .... ....|R-- .... ....
....|..|G-1 2F.7 ....|F-4 3FA7 ....|F-4 2FA7 ....
....|..|--- .... ....|--- .... ....|--- .... ....
....|..|--- .... ....|--- .... ....|--- .... ....
....|..|--- .... ....|--- .... ....|--- .... ....
....|..|--- .... ....|--- .... ....|--- .... ....
....|..|--- .... ....|--- .... ....|--- .... ....
....|..|D-2 2F.7 ....|D-2 2FF7 ....|D-2 2FE7 ....
....|..|--- .... ....|--- .... ....|--- .... ....
....|..|F-2 2F.7 ....|F-2 2FF7 ....|F-2 2FE7 ....
....|..|--- .... ....|--- .... ....|--- .... ....
....|..|F#2 2F.7 ....|F#2 2FF7 ....|F#2 2FE7 ....
....|..|R-- .... ....|R-- .... ....|R-- .... ....
...F|..|G-2 2A.F ....|G-2 2AFF ....|G-2 2AEF ....
....|..|--- .... ....|--- .... ....|--- .... ....
...F|..|G-2 2A.F ....|G-2 2AFF ....|G-2 2AEF ....
....|..|--- .... ....|--- .... ....|--- .... ....
...F|..|G-2 2A.F ....|G-2 2AFF ....|G-2 2AEF ....
....|..|--- .... ....|--- .... ....|--- .... ....
...F|..|G-2 2A.F ....|G-2 2AFF ....|G-2 2AEF ....
....|..|--- .... ....|--- .... ....|--- .... ....
...F|..|G-2 2A.F ....|G-2 2AFF ....|G-2 2AEF ....
....|..|--- .... ....|--- .... ....|--- .... ....
....|..|--- .... ....|--- .... ....|--- .... ....
....|..|R-- .... ....|R-- .... ....|R-- .... ....
....|..|G-2 2F.A ....|G-2 2FFA ....|G-2 2FEA ....
....|..|--- .... ....|--- .... ....|--- .... ....
....|..|G-2 2F.A ....|G-2 2FFA ....|G-2 2FEA ....
....|..|--- .... ....|--- .... ....|--- .... ....
..19|..|A#2 2C.F ....|F-4 3F7F ....|F-4 2F7F ....
....|..|--- .... ....|--- .... ....|--- .... ....
....|..|G-2 2F.A ....|G-2 2FFA ....|G-2 2FEA ....
....|..|--- .... ....|--- .... ....|--- .... ....
....|..|G-2 2F.A ....|G-2 2FFA ....|G-2 2FEA ....
....|..|--- .... ....|--- .... ....|--- .... ....
..18|..|B-1 2A.F ....|F-4 3F.F ....|F-5 2F.F ....
....|..|R-- .... ....|R-- .... ....|R-- .... ....
....|..|G-2 2F.7 ....|G-2 2FF7 ....|G-2 2FE7 ....
....|..|--- .... ....|--- .... ....|--- .... ....
....|..|G-2 2F.7 ....|G-2 2FF7 ....|G-2 2FE7 ....
....|..|--- .... ....|--- .... ....|--- .... ....
...E|..|G#2 2A.F ....|D#4 3F7F ....|D#4 2F7F ....
....|..|--- .... ....|--- .... ....|--- .... ....
....|..|G-2 2F.7 ....|G-2 2FF7 ....|G-2 2FE7 ....
....|..|--- .... ....|--- .... ....|--- .... ....
....|..|G-2 2F.7 ....|G-2 2FF7 ....|G-2 2FE7 ....
....|..|--- .... ....|--- .... ....|--- .... ....
....|..|B-1 2F.A ....|F-4 3F.A ....|F-5 2F.A ....
....|..|--- .... ....|--- .... ....|--- .... ....
....|..|--- .... ....|--- .... ....|--- .... ....
....|..|--- .... ....|--- .... ....|--- .... ....
....|..|--- .... ....|--- .... ....|--- .... ....
....|..|--- .... ....|--- .... ....|--- .... ....
..1B|..|A-1 2A.F ....|D#4 3F.F ....|D#5 2F.F ....
....|..|--- .... ....|--- .... ....|--- .... ....
....|..|--- .... ....|--- .... ....|--- .... ....
....|..|--- .... ....|--- .... ....|--- .... ....
....|..|--- .... ....|--- .... ....|--- .... ....
....|..|--- .... ....|--- .... ....|--- .... ....
...F|..|G-2 2A.F ....|C#4 3F8F ....|C#4 2F8F ....
....|..|--- .... ....|--- .... ....|--- .... ....

[Pattern32]
....|..|--- .... ....|--- .... ....|--- .... ....
....|..|--- .... ....|--- .... ....|--- .... ....
....|..|--- .... ....|--- .... ....|--- .... ....
....|..|--- .... ....|--- .... ....|--- .... ....
....|..|G#2 2F.7 ....|D#4 3F77 ....|D#4 2F77 ....
....|..|--- .... ....|--- .... ....|--- .... ....
....|..|--- .... ....|--- .... ....|--- .... ....
....|..|--- .... ....|--- .... ....|--- .... ....
..1E|..|G-1 2A.F ....|B-3 3F.F ....|B-4 2F.F ....
....|..|--- .... ....|--- .... ....|--- .... ....
....|..|G-2 2F.A ....|C#4 3F8A ....|C#4 2F8A ....
....|..|--- .... ....|--- .... ....|--- .... ....
....|..|--- .... ....|--- .... ....|--- .... ....
....|..|--- .... ....|--- .... ....|--- .... ....
..12|..|E-2 2A.F ....|A-3 3F4F ....|A-4 2F4F ....
....|..|--- .... ....|--- .... ....|--- .... ....
....|..|A-1 2F.7 ....|D#4 3F.7 ....|D#5 2F.7 ....
....|..|--- .... ....|--- .... ....|--- .... ....
....|..|--- .... ....|--- .... ....|--- .... ....
....|..|--- .... ....|--- .... ....|--- .... ....
....|..|G-1 2F.A ....|B-3 3F.A ....|B-4 2F.A ....
....|..|--- .... ....|--- .... ....|--- .... ....
....|..|G-2 2F.7 ....|C#4 3F87 ....|C#4 2F87 ....
....|..|--- .... ....|--- .... ....|--- .... ....
..22|..|F-1 2A.F ....|B-3 3F.F ....|B-4 2F.F ....
....|..|--- .... ....|--- .... ....|--- .... ....
....|..|E-2 2F.A ....|A-3 3F4A ....|A-4 2F4A ....
....|..|--- .... ....|--- .... ....|--- .... ....
....|..|--- .... ....|--- .... ....|--- .... ....
....|..|--- .... ....|--- .... ....|--- .... ....
..24|..|E-1 2A.F ....|G-3 3F2F ....|G-4 2F2F ....
....|..|--- .... ....|--- .... ....|--- .... ....
..2D|..|C-1 2A.F ....|C-1 2AFF ....|C-1 2AEF ....
....|..|--- .... ....|--- .... ....|--- .... ....
....|..|--- .... ....|R-- .... ....|R-- .... ....
....|..|--- .... ....|--- .... ....|--- .... ....
....|..|F-1 2F.A ....|B-3 3F.A ....|C-6 2F.F ....
....|..|--- .... ....|--- .... ....|R-- .... ....
....|..|E-2 2F.7 ....|A-3 3F47 ....|C-6 2F.F ....
....|..|--- .... ....|--- .... ....|R-- .... ....
....|..|R-- .... ....|R-- .... ....|C-6 2F.F ....
....|..|--- .... ....|--- .... ....|R-- .... ....
....|..|E-1 2F.A ....|G-3 3F2A ....|C-6 2F.F ....
....|..|--- .... ....|--- .... ....|R-- .... ....
....|..|C-1 2F.A ....|C-1 2FFA ....|C-6 2F.F ....
....|..|--- .... ....|--- .... ....|R-- .... ....
....|..|--- .... ....|R-- .... ....|C-6 2F.F ....
....|..|--- .... ....|--- .... ....|R-- .... ....
....|..|F-1 2F.7 ....|B-3 3F.7 ....|C-6 2F.F ....
....|..|--- .... ....|--- .... ....|R-- .... ....
....|..|--- .... ....|--- .... ....|C-6 2F.F ....
....|..|--- .... ....|--- .... ....|R-- .... ....
....|..|R-- .... ....|R-- .... ....|C-6 2F.F ....
....|..|--- .... ....|--- .... ....|R-- .... ....
....|..|E-1 2F.7 ....|G-3 3F27 ....|C-6 2F.F ....
....|..|--- .... ....|--- .... ....|R-- .... ....
....|..|C-1 2F.7 ....|C-1 2FF7 ....|D#6 2F.F ....
....|..|--- .... ....|--- .... ....|R-- .... ....
....|..|--- .... ....|R-- .... ....|C-6 2F.A ....
....|..|--- .... ....|--- .... ....|R-- .... ....
....|..|--- .... ....|--- .... ....|C-6 2F.F ....
....|..|--- .... ....|--- .... ....|R-- .... ....
....|..|--- .... ....|--- .... ....|C-6 2F.F ....
....|..|--- .... ....|--- .... ....|R-- .... ....

[Pattern33]
....|..|R-- .... ....|R-- .... ....|C-6 2F.F ....
....|..|--- .... ....|--- .... ....|R-- .... ....
....|..|--- .... ....|--- .... ....|C-6 2F.F ....
....|..|--- .... ....|--- .... ....|R-- .... ....
....|..|--- .... ....|--- .... ....|D#6 2F.F ....
....|..|--- .... ....|--- .... ....|R-- .... ....
....|..|--- .... ....|--- .... ....|C-6 2F.7 ....
....|..|--- .... ....|--- .... ....|R-- .... ....
....|..|--- .... ....|--- .... ....|C-6 2F.F ....
....|..|--- .... ....|--- .... ....|R-- .... ....
....|..|--- .... ....|--- .... ....|C-6 2F.F ....
....|..|--- .... ....|--- .... ....|R-- .... ....
....|..|--- .... ....|--- .... ....|C-6 2F.F ....
....|..|--- .... ....|--- .... ....|R-- .... ....
....|..|--- .... ....|--- .... ....|C-6 2F.F ....
....|..|--- .... ....|--- .... ....|--- .... ....
....|..|--- .... ....|--- .... ....|F-6 2F.F ....
....|..|--- .... ....|--- .... ....|--- .... ....
....|..|--- .... ....|--- .... ....|--- .... ....
....|..|--- .... ....|--- .... ....|--- .... ....
....|..|--- .... ....|--- .... ....|C-6 2F.7 ....
....|..|--- .... ....|--- .... ....|R-- .... ....
....|..|--- .... ....|--- .... ....|C-6 2F.7 ....
....|..|--- .... ....|--- .... ....|R-- .... ....
....|..|--- .... ....|--- .... ....|C-6 2F.7 ....
....|..|--- .... ....|--- .... ....|R-- .... ....
....|..|--- .... ....|--- .... ....|C-6 2F.7 ....
....|..|--- .... ....|--- .... ....|--- .... ....
....|..|--- .... ....|--- .... ....|D#6 2F.7 ....
....|..|--- .... ....|--- .... ....|--- .... ....
....|..|--- .... ....|--- .... ....|--- .... ....
....|..|--- .... ....|--- .... ....|--- .... ....
....|..|--- .... ....|--- .... ....|C-6 2F.7 ....
....|..|--- .... ....|--- .... ....|R-- .... ....
....|..|--- .... ....|--- .... ....|C-6 2F.7 ....
....|..|--- .... ....|--- .... ....|R-- .... ....
....|..|--- .... ....|--- .... ....|C-6 2F.7 ....
....|..|--- .... ....|--- .... ....|R-- .... ....
....|..|--- .... ....|--- .... ....|C-6 2F.7 ....
....|..|--- .... ....|--- .... ....|--- .... ....
....|..|--- .... ....|--- .... ....|F-6 2F.7 ....
....|..|--- .... ....|--- .... ....|--- .... ....
....|..|--- .... ....|--- .... ....|--- .... ....
....|..|--- .... ....|--- .... ....|--- .... ....
....|..|--- .... ....|--- .... ....|--- .... ....
....|..|--- .... ....|--- .... ....|--- .... ....
....|..|--- .... ....|--- .... ....|--- .... ....
....|..|--- .... ....|--- .... ....|--- .... ....
....|..|--- .... ....|C-3 3F.F ....|C-5 2F.F ....
....|..|--- .... ....|--- .... ....|--- .... ....
....|..|--- .... ....|--- .... ....|--- .... ....
....|..|--- .... ....|--- .... ....|--- .... ....
....|..|--- .... ....|--- .... ....|--- .... ....
....|..|--- .... ....|--- .... ....|--- .... ....
....|..|--- .... ....|--- .... ....|--- .... ....
....|..|--- .... ....|--- .... ....|--- .... ....
....|..|--- .... ....|--- .... ....|--- .... ....
....|..|--- .... ....|--- .... ....|--- .... ....
....|..|--- .... ....|--- .... ....|--- .... ....
....|..|--- .... ....|--- .... ....|--- .... ....
....|..|--- .... ....|C-3 3F.A ....|C-5 2F.A ....
....|..|--- .... ....|--- .... ....|--- .... ....
....|..|--- .... ....|--- .... ....|C-6 2F.F ....
....|..|--- .... ....|--- .... ....|--- .... ....

[Pattern34]
....|..|--- .... ....|--- .... ....|G-5 2F.F ....
....|..|--- .... ....|--- .... ....|--- .... ....
....|..|--- .... ....|--- .... ....|F#5 2F.F ....
....|..|--- .... ....|--- .... ....|--- .... ....
....|..|--- .... ....|--- .... ....|F-5 2F.F ....
....|..|--- .... ....|--- .... ....|--- .... ....
....|..|--- .... ....|--- .... ....|D#5 2F.F ....
....|..|--- .... ....|--- .... ....|--- .... ....
....|..|--- .... ....|C-3 3F.7 ....|C-5 2F.F ....
....|..|--- .... ....|--- .... ....|--- .... ....
....|..|--- .... ....|--- .... ....|A#4 2F.F ....
....|..|--- .... ....|--- .... ....|--- .... ....
....|..|--- .... ....|--- .... ....|G-4 2F.F ....
....|..|--- .... ....|--- .... ....|--- .... ....
....|..|--- .... ....|--- .... ....|F-4 2F.F ....
....|..|--- .... ....|--- .... ....|--- .... ....
....|..|--- .... ....|--- .... ....|D#4 2F.F ....
....|..|--- .... ....|--- .... ....|--- .... ....
....|..|--- .... ....|--- .... ....|C-4 2F.F ....
....|..|--- .... ....|--- .... ....|--- .... ....
....|..|--- .... ....|--- .... ....|A#3 2F.F ....
....|..|--- .... ....|--- .... ....|--- .... ....
....|..|--- .... ....|--- .... ....|F-3 2F.F ....
....|..|--- .... ....|--- .... ....|--- .... ....
....|..|--- .... ....|--- .... ....|G-5 2F.7 ....
....|..|--- .... ....|--- .... ....|--- .... ....
....|..|--- .... ....|--- .... ....|F#5 2F.7 ....
....|..|--- .... ....|--- .... ....|--- .... ....
....|..|--- .... ....|--- .... ....|F-5 2F.7 ....
....|..|--- .... ....|--- .... ....|--- .... ....
....|..|--- .... ....|--- .... ....|D#5 2F.7 ....
....|..|--- .... ....|--- .... ....|--- .... ....
....|..|--- .... ....|--- .... ....|C-5 2F.7 ....
....|..|--- .... ....|--- .... ....|--- .... ....
....|..|--- .... ....|--- .... ....|A#4 2F.7 ....
....|..|--- .... ....|--- .... ....|--- .... ....
....|..|--- .... ....|--- .... ....|G-4 2F.7 ....
....|..|--- .... ....|--- .... ....|--- .... ....
....|..|--- .... ....|--- .... ....|F-4 2F.7 ....
....|..|--- .... ....|--- .... ....|--- .... ....
....|..|--- .... ....|--- .... ....|D#4 2F.7 ....
....|..|--- .... ....|--- .... ....|--- .... ....
....|..|--- .... ....|--- .... ....|C-4 2F.7 ....
....|..|--- .... ....|--- .... ....|--- .... ....
....|..|--- .... ....|--- .... ....|A#3 2F.7 ....
....|..|--- .... ....|--- .... ....|--- .... ....
....|..|--- .... ....|--- .... ....|F-3 2F.7 ....
....|..|--- .... ....|--- .... ....|--- .... ....
....|..|--- .... ....|--- .... ....|--- .... ....
....|..|--- .... ....|--- .... ....|--- .... ....
....|..|--- .... ....|--- .... ....|--- .... ....
....|..|--- .... ....|--- .... ....|--- .... ....
....|..|--- .... ....|--- .... ....|--- .... ....
....|..|--- .... ....|--- .... ....|--- .... ....
....|..|--- .... ....|--- .... ....|--- .... ....
....|..|--- .... ....|--- .... ....|--- .... ....
....|..|--- .... ....|--- .... ....|--- .... ....
....|..|--- .... ....|--- .... ....|--- .... ....
....|..|--- .... ....|--- .... ....|--- .... ....
....|..|--- .... ....|--- .... ....|--- .... ....
....|..|--- .... ....|--- .... ....|--- .... ....
....|..|--- .... ....|--- .... ....|--- .... ....
....|..|--- .... ....|--- .... ....|--- .... ....
....|..|--- .... ....|--- .... ....|--- .... ....

[Pattern35]
....|..|--- .... ....|--- .... ....|--- .... ....
....|..|--- .... ....|--- .... ....|--- .... ....
....|..|--- .... ....|--- .... ....|--- .... ....
....|..|--- .... ....|--- .... ....|--- .... ....
....|..|--- .... ....|--- .... ....|--- .... ....
....|..|--- .... ....|--- .... ....|--- .... ....
....|..|--- .... ....|--- .... ....|--- .... ....
....|..|--- .... ....|--- .... ....|--- .... ....
....|..|--- .... ....|--- .... ....|--- .... ....
....|..|--- .... ....|--- .... ....|--- .... ....
....|..|--- .... ....|--- .... ....|--- .... ....
....|..|--- .... ....|--- .... ....|--- .... ....
....|..|--- .... ....|--- .... ....|--- .... ....
....|..|--- .... ....|--- .... ....|--- .... ....
....|..|--- .... ....|--- .... ....|--- .... ....
....|..|--- .... ....|--- .... ....|--- .... ....
....|..|--- .... ....|--- .... ....|--- .... ....
....|..|--- .... ....|--- .... ....|--- .... ....
....|..|--- .... ....|--- .... ....|--- .... ....
....|..|--- .... ....|--- .... ....|--- .... ....
....|..|--- .... ....|--- .... ....|--- .... ....
....|..|--- .... ....|--- .... ....|--- .... ....
....|..|--- .... ....|--- .... ....|--- .... ....
....|..|--- .... ....|--- .... ....|--- .... ....
....|..|--- .... ....|--- .... ....|--- .... ....
....|..|--- .... ....|--- .... ....|--- .... ....
....|..|--- .... ....|--- .... ....|--- .... ....
....|..|--- .... ....|--- .... ....|--- .... ....
....|..|--- .... ....|--- .... ....|--- .... ....
....|..|--- .... ....|--- .... ....|--- .... ....
....|..|--- .... ....|--- .... ....|--- .... ....
....|..|--- .... ....|--- .... ....|--- .... ....
....|..|--- .... ....|C-5 3F.F ....|C-6 2F.F ....
....|..|--- .... ....|--- .... ....|--- .... ....
....|..|--- .... ....|--- .... ....|--- .... ....
....|..|--- .... ....|--- .... ....|--- .... ....
....|..|--- .... ....|--- .... ....|--- .... ....
....|..|--- .... ....|--- .... ....|--- .... ....
....|..|--- .... ....|--- .... ....|--- .... ....
....|..|--- .... ....|--- .... ....|--- .... ....
....|..|--- .... ....|R-- .... ....|R-- .... ....
....|..|--- .... ....|--- .... ....|--- .... ....
....|..|--- .... ....|--- .... ....|--- .... ....
....|..|--- .... ....|--- .... ....|--- .... ....
....|..|--- .... ....|C-5 3F.A ....|C-6 2F.A ....
....|..|--- .... ....|--- .... ....|--- .... ....
....|..|--- .... ....|--- .... ....|--- .... ....
....|..|--- .... ....|--- .... ....|--- .... ....
....|..|--- .... ....|--- .... ....|--- .... ....
....|..|--- .... ....|--- .... ....|--- .... ....
....|..|--- .... ....|--- .... ....|--- .... ....
....|..|--- .... ....|--- .... ....|--- .... ....
....|..|--- .... ....|R-- .... ....|R-- .... ....
....|..|--- .... ....|--- .... ....|--- .... ....
....|..|--- .... ....|--- .... ....|--- .... ....
....|..|--- .... ....|--- .... ....|--- .... ....
....|..|--- .... ....|C-5 3F.7 ....|C-6 2F.7 ....
....|..|--- .... ....|--- .... ....|--- .... ....
....|..|--- .... ....|--- .... ....|--- .... ....
....|..|--- .... ....|--- .... ....|--- .... ....
....|..|--- .... ....|--- .... ....|--- .... ....
....|..|--- .... ....|--- .... ....|--- .... ....
....|..|--- .... ....|--- .... ....|--- .... ....
....|..|--- .... ....|--- .... ....|--- .... ....

