[Module]
VortexTrackerII=0
Version=3.5
Title=1du-2me-3me,5me-3p[u],6me[3e]-2me[4f]
Author=oisee ^ 4d 29.05.2010
NoteTable=4
ChipFreq=1750000
Speed=4
PlayOrder=L0,1,2,3,3,3,6,7,8,9,10,11,12,13,13,15,16,17,18,19,20,21,22,23,24,25,26,27,28,29,30,31,32,33,34,35,36,37,38,39,39,39,42,43,44,45,46,47,48,49,50,51,52,53,54,55,56


[Ornament1]
L0,0,7,7

[Ornament2]
L0,0,7,7,12,12

[Ornament3]
L0,0,6,6

[Ornament4]
L0,0,24,24

[Ornament5]
L0,0,21,21

[Ornament6]
L0,0,17,17

[Ornament7]
L0,0,22,22

[Ornament8]
L0,0,19,19

[Ornament9]
L0,0,18,18

[Ornament10]
L0,0,15,15

[Ornament11]
L0,0,23,23

[Ornament12]
L0,0,7,7,24,24

[Ornament13]
L0,0,5,5


[Sample1]
TnE +000_ +00_ F_
TnE +000_ +00_ F_
TnE +000_ +00_ F_
TnE +000_ +00_ D_
TnE +000_ +00_ B_
TnE +000_ +00_ B_ L

[Sample2]
TnE +000_ +00_ F_ L

[Sample3]
TnE +001_ +00_ F_
TnE +002_ +00_ F_
TnE +001_ +00_ E_
TnE +002_ +00_ E_
TnE +000_ +00_ E_ L
TnE -001_ +00_ E_
TnE -002_ +00_ E_
TnE -001_ +00_ E_
TnE +000_ +00_ E_
TnE +001_ +00_ E_
TnE +002_ +00_ E_
TnE +001_ +00_ E_

[Sample4]
TnE +002_ +00_ D_
TnE +002_ +00_ D_
TnE +002_ +00_ C_
TnE +002_ +00_ B_
TnE +002_ +00_ A_ L
TnE +002_ +00_ A_
TnE +002_ +00_ A_
TnE +002_ +00_ A_
TnE +002_ +00_ A_
TnE +002_ +00_ A_
TnE +002_ +00_ A_
TnE +002_ +00_ A_

[Sample5]
TnE +000_ +00_ F_
TnE +000_ +00_ F_
tne +000_ +00_ 0_ L

[Sample6]
TnE -001_ +00_ F_ L

[Sample7]
TnE +006_ +00_ F_ L

[Sample8]
tNe +000_ +00_ F_
tNe +000_ +00_ B_
tNe +000_ +00_ 7_
tNe +000_ +00_ 6- L

[Sample9]
TnE +080_ +00_ F_
TnE +100_ +00_ E_
TnE +180_ +00_ E_
TnE +200_ +00_ E_
TnE +240_ +00_ D_
TnE +280_ +00_ D_
TnE +2C0_ +00_ D_
TnE +300_ +00_ C_
TnE +300_ +00_ C_
TnE +340_ +00_ C_
TnE +340_ +00_ C_
TnE +380_ +00_ B_
TnE +380_ +00_ B_
TnE +400_ +00_ B_
TnE +400_ +00_ B_
TnE +480_ +00_ A_
TnE +500_ +00_ 9_
TnE +580_ +00_ 7_
TnE +600_ +00_ 4_
TnE +680_ +00_ 1_
TnE +000_ +00_ 0_ L

[Sample10]
Tne +1C0_ +00_ F_
Tne +280_ +00_ E_
Tne +380_ +00_ C_
Tne +440_ +00_ A_
Tne +480_ +00_ 8_
TnE +000_ +00_ 0_ L

[Sample11]
TNe +200_ -0A_ F_
tNe +000_ +0F_ A_
TNe +200_ -07_ E_
tNe +000_ +0E_ B- L

[Sample12]
TNE +0A0_ +05_ F_
TNE +140_ +02_ D_
TNE +140_ +02_ B_
TNE +100_ +00_ A_ L
TNE +140_ +00_ A_
TNE +200_ +00_ A-

[Sample13]
Tne +200_ +00_ F_
Tne +2C0_ +00_ F_
Tne +380_ +00_ E_
Tne +500_ +00_ C_
Tne +520_ +00_ 9_
tne +000_ +00_ 0_ L

[Sample14]
TNE -100_ +00_ F_
TNE -100_ +00_ D_
TNE -100_ +00_ A_
TNE -100_ +00_ 5_
tne +000_ +00_ 0_ L

[Sample15]
TNE -100_ +00_ 5_
TNE -100_ +00_ 8_
TNE -100_ +00_ B_
TNE -100_ +00_ F_
TNe -100_ +00_ 9- L

[Sample16]
TnE +000_ +00_ C_
TnE +000_ +00_ E_
TnE +000_ +00_ F_
TnE +000_ +00_ F_
TnE +000_ +00_ E_
TnE +000_ +00_ D_
TnE +000_ +00_ C_
TnE +000_ +00_ C_ L
TnE +001_ +00_ C_
TnE +002_ +00_ C_
TnE +003_ +00_ C_
TnE +001_ +00_ C_
TnE +000_ +00_ C_
TnE -001_ +00_ C_
TnE -002_ +00_ C_
TnE -003_ +00_ C_
TnE -001_ +00_ C_
TnE +000_ +00_ C_
TnE +000_ +00_ C_

[Sample17]
Tne +1C0_ +00_ F_
Tne +280_ +00_ D_
Tne +380_ +00_ 7_
TNE +000_ +00_ 0_ L

[Sample18]
TnE -00C_ +00_ 0_ L

[Sample19]
TNe +000_ +00_ F_
TNe +000_ +00_ C_
TNe +000_ +00_ 6_
TNe +000_ +01_ A- L

[Sample20]
TNE +140_ +00_ F_
tNE +000_ +00_ B- L

[Sample21]
tNE +000_ +00_ D_
tNE +000_ +00_ 8_
tNE +000_ +00_ 1_
TNE +000_ +00_ 0_ L

[Sample22]
TnE +000_ +00_ D_ L
TnE +000_ +00_ D_
tne +000_ +00_ 9_
tne +000_ +00_ 9_
TnE +000_ +00_ D_
TnE +000_ +00_ D_
tne +000_ +00_ 9_
tne +000_ +00_ 9_
TnE +000_ +00_ D_
TnE +000_ +00_ D_
TnE +000_ +00_ D_
TnE +000_ +00_ D_
TnE +000_ +00_ D_
TnE +000_ +00_ D_
tne +000_ +00_ 9_
tne +000_ +00_ 9_

[Sample23]
TnE +000_ +00_ F_ L
TnE +010_ +01_ F_
TnE +010_ +01_ F_
TnE +010_ +01_ F_
TnE +010_ +01_ F_
TnE +000_ +00_ F_
TnE +000_ +00_ F_
TnE -010_ -01_ F_
TnE -010_ -01_ F_
TnE -010_ -01_ F_
TnE -010_ -01_ F_
TnE +000_ +00_ F_

[Sample24]
TNe +000_ -01_ C_
TNe +000_ -01_ D_
TNe +000_ -01_ E_
TNe +000_ -01_ F_
TNe +000_ -01_ F_
TNe +000_ -01_ F_
TNe +000_ -01_ F_
TNe +000_ -01_ F_
TNe +000_ -01_ E_
TNe +000_ -01_ E_
TNe +000_ -01_ E_
TNe +000_ -01_ F_
TNe +000_ -01_ F_ L

[Sample25]
TNE +000_ +00_ F_
TNE +000_ +00_ F_ L
TNE +000_ +00_ F_
TNE +000_ +00_ F_
TNE +000_ +00_ F-

[Sample26]
tne +000_ +00_ 0_ L

[Sample27]
TnE +100_ +05_ F_
TnE +200_ +02_ A_
TnE +300_ +02_ 7_
TNE +400_ +00_ 3- L

[Sample28]
tne +000_ +00_ 0_ L

[Sample29]
tnE +000_ +00_ 0_ L

[Sample30]
TNE +000_ +00_ C+ L

[Sample31]
TNe +1C0_ +00_ F_
Tne +280_ +00_ E_
Tne +380_ +00_ C_
Tne +440_ +00_ A_
Tne +480_ +00_ 8_
TnE +000_ +00_ 0_ L

[Pattern0]
....|..|--- .... ....|--- .... ....|--- .... ....
....|..|--- .... ....|--- .... ....|--- .... ....
....|..|--- .... ....|--- .... ....|--- .... ....
....|..|--- .... ....|--- .... ....|--- .... ....
....|..|--- .... ....|--- .... ....|--- .... ....
....|..|--- .... ....|--- .... ....|--- .... ....
....|..|--- .... ....|--- .... ....|--- .... ....
....|..|--- .... ....|--- .... ....|--- .... ....
....|..|--- .... ....|--- .... ....|--- .... ....
....|..|--- .... ....|--- .... ....|--- .... ....
....|..|--- .... ....|--- .... ....|--- .... ....
....|..|--- .... ....|--- .... ....|--- .... ....
....|..|--- .... ....|--- .... ....|--- .... ....
....|..|--- .... ....|--- .... ....|--- .... ....
....|..|--- .... ....|--- .... ....|--- .... ....
....|..|--- .... ....|--- .... ....|--- .... ....
....|..|--- .... ....|--- .... ....|--- .... ....
....|..|--- .... ....|--- .... ....|--- .... ....
....|..|--- .... ....|--- .... ....|--- .... ....
....|..|--- .... ....|--- .... ....|--- .... ....
....|..|--- .... ....|--- .... ....|--- .... ....
....|..|--- .... ....|--- .... ....|--- .... ....
....|..|--- .... ....|--- .... ....|--- .... ....
....|..|--- .... ....|--- .... ....|--- .... ....
....|..|--- .... ....|--- .... ....|--- .... ....
....|..|--- .... ....|--- .... ....|--- .... ....
....|..|--- .... ....|--- .... ....|--- .... ....
....|..|--- .... ....|--- .... ....|--- .... ....
....|..|--- .... ....|--- .... ....|--- .... ....
....|..|--- .... ....|--- .... ....|--- .... ....
....|..|--- .... ....|--- .... ....|--- .... ....
....|..|--- .... ....|--- .... ....|--- .... ....
....|..|C-3 RF.F ....|--- .... ....|--- .... ....
....|..|--- .... ....|--- .... ....|--- .... ....
....|..|--- .... ....|--- .... ....|--- .... ....
....|..|--- .... ....|--- .... ....|--- .... ....
....|..|--- .... ....|--- .... ....|--- .... ....
....|..|--- .... ....|--- .... ....|--- .... ....
....|..|--- .... ....|--- .... ....|--- .... ....
....|..|--- .... ....|--- .... ....|--- .... ....
....|..|C-3 RF.F ....|--- .... ....|--- .... ....
....|..|--- .... ....|--- .... ....|--- .... ....
....|..|--- .... ....|--- .... ....|--- .... ....
....|..|--- .... ....|--- .... ....|--- .... ....
....|..|--- .... ....|--- .... ....|--- .... ....
....|..|--- .... ....|--- .... ....|--- .... ....
....|..|--- .... ....|--- .... ....|--- .... ....
....|..|--- .... ....|--- .... ....|--- .... ....
....|..|C-3 RF.F ....|--- .... ....|--- .... ....
....|..|--- .... ....|--- .... ....|--- .... ....
....|..|--- .... ....|--- .... ....|--- .... ....
....|..|--- .... ....|--- .... ....|--- .... ....
....|..|--- .... ....|--- .... ....|--- .... ....
....|..|--- .... ....|--- .... ....|--- .... ....
....|..|--- .... ....|--- .... ....|--- .... ....
....|..|--- .... ....|--- .... ....|--- .... ....
....|..|C-3 RF.F ....|--- .... ....|--- .... ....
....|..|--- .... ....|--- .... ....|--- .... ....
....|..|--- .... ....|--- .... ....|--- .... ....
....|..|--- .... ....|--- .... ....|--- .... ....
 G#4|..|C-4 AF.F ....|C#3 UF1F ....|G#2 2AFF ....
 G#4|..|G#2 2A.F ....|--- .... ....|--- .... ....
 G#4|..|G#2 2A.F ....|--- .... ....|--- .... ....
....|..|G#2 2F.A ....|C#3 UF1A ....|G#2 2FFA ....
 G#4|..|C-4 AF.F ....|C#3 UF1F ....|G#2 2AFF ....
 G#4|..|G#2 2A.F ....|--- .... ....|--- .... ....
....|..|G#2 2F.7 ....|C#3 UF17 ....|G#2 2FF7 ....
....|..|G#2 2F.A ....|C#3 UF1A ....|G#2 2FFA ....
 E-4|..|R-- .... ....|R-- .... ....|E-5 2CEF ....
....|..|G#2 2F.A ....|--- .... ....|R-- .... ....
....|..|G#2 2F.7 ....|C#3 UF17 ....|G#2 2FF7 ....
....|..|R-- .... ....|R-- .... ....|E-5 2FEA ....
 D#4|..|R-- .... ....|--- .... ....|D#5 2CEF ....
....|..|--- .... ....|--- .... ....|R-- .... ....
....|..|R-- .... ....|R-- .... ....|E-5 2FE7 ....
....|..|--- .... ....|--- .... ....|D#5 2FEA ....
 C#4|..|--- .... ....|--- .... ....|C#5 2CEF ....
....|..|--- .... ....|--- .... ....|R-- .... ....
....|..|--- .... ....|--- .... ....|D#5 2FE7 ....
....|..|--- .... ....|--- .... ....|C#5 2FEA ....
 C-3|..|--- .... ....|--- .... ....|C-5 2CEF ....
....|..|--- .... ....|--- .... ....|--- .... ....
....|..|--- .... ....|--- .... ....|C#5 2FE7 ....
....|..|--- .... ....|--- .... ....|C-5 2FEA ....
 C#4|..|--- .... ....|--- .... ....|C#5 2CEF ....
....|..|--- .... ....|--- .... ....|--- .... ....
....|..|--- .... ....|--- .... ....|C-5 2FE7 ....
....|..|--- .... ....|--- .... ....|C#5 2FEA ....
 D#4|..|--- .... ....|--- .... ....|D#5 2CEF ....
....|..|--- .... ....|--- .... ....|--- .... ....
....|..|--- .... ....|--- .... ....|C#5 2FE7 ....
....|..|--- .... ....|--- .... ....|D#5 2FEA ....
 C#4|..|--- .... ....|--- .... ....|C#5 2CEF ....
....|..|--- .... ....|--- .... ....|--- .... ....
....|..|--- .... ....|--- .... ....|D#5 2FE7 ....
....|..|--- .... ....|--- .... ....|C#5 2FEA ....
 G#4|..|C-4 AF.F ....|C#3 UF1F ....|G#2 2AFF ....
 G#4|..|G#2 2A.F ....|--- .... ....|--- .... ....
 G#4|..|G#2 2A.F ....|--- .... ....|C#5 2FE7 ....
....|..|G#2 2F.A ....|C#3 UF1A ....|G#2 2FFA ....
 E-4|..|R-- .... ....|R-- .... ....|E-5 2CEF ....
....|..|--- .... ....|--- .... ....|R-- .... ....
....|..|G#2 2F.7 ....|C#3 UF17 ....|G#2 2FF7 ....
....|..|R-- .... ....|R-- .... ....|E-5 2FEA ....
 D#4|..|R-- .... ....|--- .... ....|D#5 2CEF ....
....|..|--- .... ....|--- .... ....|R-- .... ....
....|..|R-- .... ....|R-- .... ....|E-5 2FE7 ....
....|..|--- .... ....|--- .... ....|D#5 2FEA ....
 C#4|..|--- .... ....|--- .... ....|C#5 2CEF ....
....|..|--- .... ....|--- .... ....|R-- .... ....
....|..|--- .... ....|--- .... ....|D#5 2FE7 ....
....|..|--- .... ....|--- .... ....|C#5 2FEA ....
 C-3|..|--- .... ....|--- .... ....|C-5 2CEF ....
....|..|--- .... ....|--- .... ....|--- .... ....
....|..|--- .... ....|--- .... ....|C#5 2FE7 ....
....|..|--- .... ....|--- .... ....|C-5 2FEA ....
 C#4|..|--- .... ....|--- .... ....|C#5 2CEF ....
....|..|--- .... ....|--- .... ....|--- .... ....
....|..|--- .... ....|--- .... ....|C-5 2FE7 ....
....|..|--- .... ....|--- .... ....|C#5 2FEA ....
 D#4|..|--- .... ....|--- .... ....|D#5 2CEF ....
....|..|--- .... ....|--- .... ....|--- .... ....
....|..|--- .... ....|--- .... ....|C#5 2FE7 ....
....|..|--- .... ....|--- .... ....|D#5 2FEA ....
 G#4|..|C-4 AF.F ....|C#3 UF1F ....|G#2 2AFF ....
 G#4|..|G#2 2A.F ....|--- .... ....|--- .... ....
 G#4|..|G#2 2A.F ....|--- .... ....|D#5 2FE7 ....
....|..|G#2 2F.A ....|C#3 UF1A ....|G#2 2FFA ....

[Pattern1]
 G#4|..|C-4 AF.F ....|C#3 UF1F ....|G#2 2AFF ....
 G#4|..|G#2 2A.F ....|--- .... ....|--- .... ....
....|..|G#2 2F.7 ....|C#3 UF17 ....|G#2 2FF7 ....
....|..|G#2 2F.A ....|C#3 UF1A ....|G#2 2FFA ....
 E-4|..|R-- .... ....|R-- .... ....|E-5 2CEF ....
....|..|G#2 2F.A ....|--- .... ....|R-- .... ....
....|..|G#2 2F.7 ....|C#3 UF17 ....|G#2 2FF7 ....
....|..|R-- .... ....|R-- .... ....|E-5 2FEA ....
 D#4|..|R-- .... ....|--- .... ....|D#5 2CEF ....
....|..|--- .... ....|--- .... ....|R-- .... ....
....|..|R-- .... ....|R-- .... ....|E-5 2FE7 ....
....|..|--- .... ....|--- .... ....|D#5 2FEA ....
 C#4|..|--- .... ....|--- .... ....|C#5 2CEF ....
....|..|--- .... ....|--- .... ....|R-- .... ....
....|..|--- .... ....|--- .... ....|D#5 2FE7 ....
....|..|--- .... ....|--- .... ....|C#5 2FEA ....
 C-3|..|--- .... ....|--- .... ....|C-5 2CEF ....
....|..|--- .... ....|--- .... ....|--- .... ....
....|..|--- .... ....|--- .... ....|C#5 2FE7 ....
....|..|--- .... ....|--- .... ....|C-5 2FEA ....
 C#4|..|--- .... ....|--- .... ....|C#5 2CEF ....
....|..|--- .... ....|--- .... ....|--- .... ....
....|..|--- .... ....|--- .... ....|C-5 2FE7 ....
....|..|--- .... ....|--- .... ....|C#5 2FEA ....
 D#4|..|--- .... ....|--- .... ....|D#5 2CEF ....
....|..|--- .... ....|--- .... ....|--- .... ....
....|..|--- .... ....|--- .... ....|C#5 2FE7 ....
....|..|--- .... ....|--- .... ....|D#5 2FEA ....
 C#4|..|--- .... ....|--- .... ....|C#5 2CEF ....
....|..|--- .... ....|--- .... ....|--- .... ....
....|..|--- .... ....|--- .... ....|D#5 2FE7 ....
....|..|--- .... ....|--- .... ....|C#5 2FEA ....
 G#4|..|C-4 AF.F ....|G#3 UF2F ....|G#3 2CFF ....
 G#4|..|G#3 2C.F ....|--- .... ....|--- .... ....
 G#4|..|G#3 2C.F ....|--- .... ....|C#5 2FE7 ....
....|..|G#3 2F.A ....|G#3 UF2A ....|G#3 2FFA ....
 D#4|..|G#3 2F.A ....|--- .... ....|D#5 2CEF ....
....|..|--- .... ....|--- .... ....|--- .... ....
....|..|G#3 2F.7 ....|G#3 UF27 ....|G#3 2FF7 ....
....|..|G#3 2F.7 ....|--- .... ....|D#5 2FEA ....
 C#4|..|R-- .... ....|--- .... ....|C#5 2CEF ....
....|..|--- .... ....|--- .... ....|--- .... ....
....|..|--- .... ....|--- .... ....|D#5 2FE7 ....
....|..|--- .... ....|--- .... ....|C#5 2FEA ....
 C-3|..|--- .... ....|--- .... ....|C-5 2CEF ....
....|..|--- .... ....|--- .... ....|--- .... ....
....|..|--- .... ....|--- .... ....|C#5 2FE7 ....
....|..|--- .... ....|--- .... ....|C-5 2FEA ....
 A-3|..|--- .... ....|--- .... ....|A-4 2CEF ....
....|..|--- .... ....|--- .... ....|--- .... ....
....|..|--- .... ....|--- .... ....|C-5 2FE7 ....
....|..|--- .... ....|--- .... ....|A-4 2FEA ....
 G#4|..|--- .... ....|--- .... ....|G#4 2CEF ....
....|..|--- .... ....|--- .... ....|--- .... ....
....|..|--- .... ....|--- .... ....|A-4 2FE7 ....
....|..|--- .... ....|--- .... ....|G#4 2FEA ....
 E-4|..|--- .... ....|--- .... ....|E-4 2CEF ....
....|..|--- .... ....|--- .... ....|--- .... ....
....|..|--- .... ....|--- .... ....|G#4 2FE7 ....
....|..|--- .... ....|--- .... ....|E-4 2FEA ....
 D#4|..|C-4 AF.F ....|C#3 UF1F ....|D#4 2CEF ....
 G#4|..|G#2 2A.F ....|--- .... ....|G#2 2AFF ....
 G#4|..|G#2 2A.F ....|--- .... ....|E-4 2FE7 ....
....|..|G#2 2F.A ....|C#3 UF1A ....|D#4 2FEA ....
 G#4|..|C-4 AF.F ....|C#3 UF1F ....|G#2 2AFF ....
 G#4|..|G#2 2A.F ....|--- .... ....|--- .... ....
....|..|G#2 2F.7 ....|C#3 UF17 ....|D#4 2FE7 ....
....|..|G#2 2F.A ....|C#3 UF1A ....|G#2 2FFA ....
 E-4|..|R-- .... ....|R-- .... ....|E-5 2CEF ....
....|..|G#2 2F.A ....|--- .... ....|R-- .... ....
....|..|G#2 2F.7 ....|C#3 UF17 ....|G#2 2FF7 ....
....|..|R-- .... ....|R-- .... ....|E-5 2FEA ....
 D#4|..|R-- .... ....|--- .... ....|D#5 2CEF ....
....|..|--- .... ....|--- .... ....|R-- .... ....
....|..|R-- .... ....|R-- .... ....|E-5 2FE7 ....
....|..|--- .... ....|--- .... ....|D#5 2FEA ....
 C#4|..|--- .... ....|--- .... ....|C#5 2CEF ....
....|..|--- .... ....|--- .... ....|R-- .... ....
....|..|--- .... ....|--- .... ....|D#5 2FE7 ....
....|..|--- .... ....|--- .... ....|C#5 2FEA ....
 C-3|..|--- .... ....|--- .... ....|C-5 2CEF ....
....|..|--- .... ....|--- .... ....|--- .... ....
....|..|--- .... ....|--- .... ....|C#5 2FE7 ....
....|..|--- .... ....|--- .... ....|C-5 2FEA ....
 C#4|..|--- .... ....|--- .... ....|C#5 2CEF ....
....|..|--- .... ....|--- .... ....|--- .... ....
....|..|--- .... ....|--- .... ....|C-5 2FE7 ....
....|..|--- .... ....|--- .... ....|C#5 2FEA ....
 D#4|..|--- .... ....|--- .... ....|D#5 2CEF ....
....|..|--- .... ....|--- .... ....|--- .... ....
....|..|--- .... ....|--- .... ....|C#5 2FE7 ....
....|..|--- .... ....|--- .... ....|D#5 2FEA ....
 C#4|..|--- .... ....|--- .... ....|C#5 2CEF ....
....|..|--- .... ....|--- .... ....|--- .... ....
....|..|--- .... ....|--- .... ....|D#5 2FE7 ....
....|..|--- .... ....|--- .... ....|C#5 2FEA ....
 G#4|..|C-4 AF.F ....|C#3 UF1F ....|G#2 2AFF ....
 G#4|..|G#2 2A.F ....|--- .... ....|--- .... ....
 G#4|..|G#2 2A.F ....|--- .... ....|C#5 2FE7 ....
....|..|G#2 2F.A ....|C#3 UF1A ....|G#2 2FFA ....
 E-4|..|R-- .... ....|R-- .... ....|E-5 2CEF ....
....|..|--- .... ....|--- .... ....|R-- .... ....
....|..|G#2 2F.7 ....|C#3 UF17 ....|G#2 2FF7 ....
....|..|R-- .... ....|R-- .... ....|E-5 2FEA ....
 D#4|..|R-- .... ....|--- .... ....|D#5 2CEF ....
....|..|--- .... ....|--- .... ....|R-- .... ....
....|..|R-- .... ....|R-- .... ....|E-5 2FE7 ....
....|..|--- .... ....|--- .... ....|D#5 2FEA ....
 C#4|..|--- .... ....|--- .... ....|C#5 2CEF ....
....|..|--- .... ....|--- .... ....|R-- .... ....
....|..|--- .... ....|--- .... ....|D#5 2FE7 ....
....|..|--- .... ....|--- .... ....|C#5 2FEA ....
 C-3|..|--- .... ....|--- .... ....|C-5 2CEF ....
....|..|--- .... ....|--- .... ....|--- .... ....
....|..|--- .... ....|--- .... ....|C#5 2FE7 ....
....|..|--- .... ....|--- .... ....|C-5 2FEA ....
 C#4|..|--- .... ....|--- .... ....|C#5 2CEF ....
....|..|--- .... ....|--- .... ....|--- .... ....
....|..|--- .... ....|--- .... ....|C-5 2FE7 ....
....|..|--- .... ....|--- .... ....|C#5 2FEA ....
 D#4|..|--- .... ....|--- .... ....|D#5 2CEF ....
....|..|--- .... ....|--- .... ....|--- .... ....
....|..|--- .... ....|--- .... ....|C#5 2FE7 ....
....|..|--- .... ....|--- .... ....|D#5 2FEA ....
 G#4|..|C-4 AF.F ....|C#3 UF1F ....|G#2 2AFF ....
 G#4|..|G#2 2A.F ....|--- .... ....|--- .... ....
 G#4|..|G#2 2A.F ....|--- .... ....|D#5 2FE7 ....
....|..|G#2 2F.A ....|C#3 UF1A ....|G#2 2FFA ....

[Pattern2]
 G#4|..|C-4 AF.F ....|C#3 UF1F ....|G#2 2AFF ....
 G#4|..|G#2 2A.F ....|--- .... ....|--- .... ....
....|..|G#2 2F.7 ....|C#3 UF17 ....|G#2 2FF7 ....
....|..|G#2 2F.A ....|C#3 UF1A ....|G#2 2FFA ....
 E-4|..|R-- .... ....|R-- .... ....|E-5 2CEF ....
....|..|G#2 2F.A ....|--- .... ....|R-- .... ....
....|..|G#2 2F.7 ....|C#3 UF17 ....|G#2 2FF7 ....
....|..|R-- .... ....|R-- .... ....|E-5 2FEA ....
 D#4|..|R-- .... ....|--- .... ....|D#5 2CEF ....
....|..|--- .... ....|--- .... ....|R-- .... ....
....|..|R-- .... ....|R-- .... ....|E-5 2FE7 ....
....|..|--- .... ....|--- .... ....|D#5 2FEA ....
 C#4|..|--- .... ....|--- .... ....|C#5 2CEF ....
....|..|--- .... ....|--- .... ....|R-- .... ....
....|..|--- .... ....|--- .... ....|D#5 2FE7 ....
....|..|--- .... ....|--- .... ....|C#5 2FEA ....
 C-3|..|--- .... ....|--- .... ....|C-5 2CEF ....
....|..|--- .... ....|--- .... ....|--- .... ....
....|..|--- .... ....|--- .... ....|C#5 2FE7 ....
....|..|--- .... ....|--- .... ....|C-5 2FEA ....
 C#4|..|--- .... ....|--- .... ....|C#5 2CEF ....
....|..|--- .... ....|--- .... ....|--- .... ....
....|..|--- .... ....|--- .... ....|C-5 2FE7 ....
....|..|--- .... ....|--- .... ....|C#5 2FEA ....
 D#4|..|--- .... ....|--- .... ....|D#5 2CEF ....
....|..|--- .... ....|--- .... ....|--- .... ....
....|..|--- .... ....|--- .... ....|C#5 2FE7 ....
....|..|--- .... ....|--- .... ....|D#5 2FEA ....
 C#4|..|--- .... ....|--- .... ....|C#5 2CEF ....
....|..|--- .... ....|--- .... ....|--- .... ....
....|..|--- .... ....|--- .... ....|D#5 2FE7 ....
....|..|--- .... ....|--- .... ....|C#5 2FEA ....
 G#4|..|C-4 AF.F ....|G#3 UF2F ....|G#3 2CFF ....
 G#4|..|G#3 2C.F ....|--- .... ....|--- .... ....
 G#4|..|G#3 2C.F ....|--- .... ....|C#5 2FE7 ....
....|..|G#3 2F.A ....|G#3 UF2A ....|G#3 2FFA ....
 D#4|..|G#3 2F.A ....|D#5 2C.F ....|--- .... ....
....|..|--- .... ....|--- .... ....|--- .... ....
....|..|G#3 2F.7 ....|G#3 UF27 ....|G#3 2FF7 ....
....|..|G#3 2F.7 ....|D#5 2F.A ....|--- .... ....
 C#4|..|C-3 RF.F ....|C#5 2C.F ....|--- .... ....
....|..|--- .... ....|--- .... ....|--- .... ....
....|..|--- .... ....|D#5 2F.7 ....|--- .... ....
....|..|--- .... ....|C#5 2F.A ....|--- .... ....
 C-3|..|--- .... ....|C-5 2C.F ....|--- .... ....
....|..|--- .... ....|--- .... ....|--- .... ....
....|..|--- .... ....|C#5 2F.7 ....|--- .... ....
....|..|--- .... ....|C-5 2F.A ....|--- .... ....
 A-3|..|C-3 RF.F ....|A-4 2C.F ....|--- .... ....
....|..|--- .... ....|--- .... ....|--- .... ....
....|..|--- .... ....|C-5 2F.7 ....|--- .... ....
....|..|--- .... ....|A-4 2F.A ....|--- .... ....
 G#4|..|--- .... ....|G#4 2C.F ....|--- .... ....
....|..|--- .... ....|--- .... ....|--- .... ....
....|..|--- .... ....|A-4 2F.7 ....|--- .... ....
....|..|--- .... ....|G#4 2F.A ....|--- .... ....
 F#3|..|C-3 RF.F ....|F#4 2C.F ....|--- .... ....
....|..|--- .... ....|--- .... ....|--- .... ....
....|..|--- .... ....|G#4 2F.7 ....|--- .... ....
....|..|--- .... ....|F#4 2F.A ....|--- .... ....
 E-4|..|C-3 9F.F ....|E-4 2C.F ....|--- .... ....
....|..|--- .... ....|--- .... ....|--- .... ....
....|..|--- .... ....|F#4 2F.7 ....|--- .... ....
....|..|--- .... ....|E-4 2F.A ....|--- .... ....
 D#4|..|C-4 AF.F ....|D#4 2C.F ....|--- .... ....
....|..|--- .... ....|--- .... ....|--- .... ....
....|..|C-4 9F.F ....|E-4 2F.7 ....|--- .... ....
....|..|--- .... ....|D#4 2F.A ....|--- .... ....
 C#4|..|R-- .... ....|C#4 2C.F ....|--- .... ....
....|..|--- .... ....|--- .... ....|--- .... ....
....|..|C-5 VF.F ....|D#4 2F.7 ....|--- .... ....
....|..|--- .... ....|C#4 2F.A ....|--- .... ....
 C-3|..|C-4 AF.F ....|C-4 2C.F ....|--- .... ....
....|..|--- .... ....|--- .... ....|--- .... ....
....|..|R-- .... ....|C#4 2F.7 ....|--- .... ....
....|..|--- .... ....|C-4 2F.A ....|--- .... ....
 C#4|..|C-4 AF.F ....|C#4 2C.F ....|--- .... ....
....|..|--- .... ....|--- .... ....|--- .... ....
....|..|C-5 VF.F ....|C-4 2F.7 ....|--- .... ....
....|..|--- .... ....|C#4 2F.A ....|--- .... ....
 D#4|..|C-4 AF.F ....|D#4 2C.F ....|--- .... ....
....|..|--- .... ....|--- .... ....|--- .... ....
....|..|C-3 RF.F ....|C#4 2F.7 ....|--- .... ....
....|..|--- .... ....|D#4 2F.A ....|--- .... ....
 C#4|..|C-4 AF.F ....|C#4 2C.F ....|--- .... ....
....|..|--- .... ....|--- .... ....|--- .... ....
....|..|R-- .... ....|D#4 2F.7 ....|--- .... ....
....|..|--- .... ....|C#4 2F.A ....|--- .... ....
 C-3|..|C-4 AF.F ....|C-4 2C.F ....|--- .... ....
....|..|--- .... ....|--- .... ....|--- .... ....
....|..|C-4 9F.F ....|C#4 2F.7 ....|--- .... ....
....|..|--- .... ....|C-4 2F.A ....|--- .... ....
 D#4|..|C-4 9F.F ....|D#4 2C.F ....|--- .... ....
....|..|--- .... ....|--- .... ....|--- .... ....
....|..|C-3 9F.F ....|C-4 2F.7 ....|--- .... ....
....|..|--- .... ....|D#4 2F.A ....|--- .... ....
 C#4|..|C-4 AF.F ....|C#4 2C.F ....|C#3 2CFF ....
 C#4|..|C#2 2A.F ....|C#2 UF.F ....|--- .... ....
 C#4|..|C#2 2A.F ....|D#4 2F.7 ....|--- .... ....
....|..|C#2 2F.A ....|C#4 2F.A ....|C#2 2FFA ....
 E-4|..|C#2 2F.F ....|C#2 UF.F ....|E-5 2CEF ....
 C#4|..|C#2 2F.A ....|--- .... ....|C#2 2AFF ....
 C#4|..|C#2 2A.F ....|C#2 UF.F ....|C#2 2AFF ....
....|..|C#2 2F.A ....|C#2 UF.A ....|E-5 2FEA ....
 D#4|..|C-4 CF.F ....|C#2 UF.F ....|D#5 2CEF ....
 C#4|..|C#2 2A.F ....|C#2 UF.A ....|C#2 2FFA ....
....|..|C#2 2F.A ....|C#2 UF.7 ....|E-5 2FE7 ....
....|..|C#2 2F.A ....|C#2 UF.A ....|D#5 2FEA ....
 C#4|..|C#3 2C.F ....|C#2 UF.F ....|C#5 2CEF ....
....|..|C#2 2F.7 ....|--- .... ....|C#2 2FF7 ....
 C#4|..|C#2 2A.F ....|C#2 UF.F ....|C#2 2AFF ....
....|..|C#2 2F.A ....|C#2 UF.A ....|C#5 2FEA ....
 C-3|..|C-4 AF.F ....|C#2 UF.F ....|C-5 2CEF ....
 C#4|..|C#2 2A.F ....|C#2 UF.A ....|C#2 2FFA ....
....|..|C#2 2F.A ....|C#2 UF.7 ....|C#5 2FE7 ....
....|..|C#2 2F.A ....|C#2 UF.A ....|C-5 2FEA ....
 C#4|..|C#3 2C.F ....|C#2 UF.F ....|C#5 2CEF ....
....|..|C#2 2F.7 ....|--- .... ....|C#2 2FF7 ....
 C#4|..|C#2 2A.F ....|C#2 UF.F ....|C#2 2AFF ....
....|..|C#2 2F.A ....|C#2 UF.A ....|C#5 2FEA ....
 D#4|..|C-4 CF.F ....|C#2 UF.F ....|D#5 2CEF ....
 C#4|..|C#2 2A.F ....|C#2 UF.A ....|C#2 2FFA ....
....|..|C#2 2F.A ....|C#2 UF.7 ....|C#5 2FE7 ....
....|..|C#2 2F.A ....|C#2 UF.A ....|D#5 2FEA ....
 C#4|..|C#3 2C.F ....|C#2 UF.F ....|C#5 2CEF ....
....|..|C#2 2F.7 ....|--- .... ....|C#2 2FF7 ....
 C#4|..|C#2 2A.F ....|C#2 UF.F ....|C#2 2AFF ....
....|..|C#2 2F.A ....|C#2 UF.A ....|C#5 2FEA ....

[Pattern3]
 C#4|..|C-4 AF.F ....|C#2 UF.F ....|C#2 2AFF ....
 C#4|..|C#2 2A.F ....|C#2 UF.A ....|C#2 2FFA ....
....|..|C#2 2F.A ....|C#2 UF.7 ....|C#5 2FE7 ....
....|..|C#2 2F.A ....|C#2 UF.A ....|C#2 2FFA ....
 E-4|..|C#2 2F.F ....|C#2 UF.F ....|E-5 2CEF ....
 C#4|..|C#2 2F.7 ....|--- .... ....|C#2 2AFF ....
 C#4|..|C#2 2A.F ....|C#2 UF.F ....|C#2 2AFF ....
....|..|C#2 2F.A ....|C#2 UF.A ....|E-5 2FEA ....
 D#4|..|C-4 CF.F ....|C#2 UF.F ....|D#5 2CEF ....
 C#4|..|C#2 2A.F ....|C#2 UF.A ....|C#2 2FFA ....
....|..|C#2 2F.A ....|C#2 UF.7 ....|E-5 2FE7 ....
....|..|C#2 2F.A ....|C#2 UF.A ....|D#5 2FEA ....
 C#4|..|C#3 2C.F ....|C#2 UF.F ....|C#5 2CEF ....
....|..|C#2 2F.7 ....|--- .... ....|C#2 2FF7 ....
 C#4|..|C#2 2A.F ....|C#2 UF.F ....|C#2 2AFF ....
....|..|C#2 2F.A ....|C#2 UF.A ....|C#5 2FEA ....
 C-3|..|C-4 AF.F ....|C#2 UF.F ....|C-5 2CEF ....
 C#4|..|C#2 2A.F ....|C#2 UF.A ....|C#2 2FFA ....
....|..|C#2 2F.A ....|C#2 UF.7 ....|C#5 2FE7 ....
....|..|C#2 2F.A ....|C#2 UF.A ....|C-5 2FEA ....
 C#4|..|C#3 2C.F ....|C#2 UF.F ....|C#5 2CEF ....
....|..|C#2 2F.7 ....|--- .... ....|C#2 2FF7 ....
 C#4|..|C#2 2A.F ....|C#2 UF.F ....|C#2 2AFF ....
....|..|C#2 2F.A ....|C#2 UF.A ....|C#5 2FEA ....
 D#4|..|C-4 CF.F ....|C#2 UF.F ....|D#5 2CEF ....
 C#4|..|C#2 2A.F ....|C#2 UF.A ....|C#2 2FFA ....
....|..|C#2 2F.A ....|C#2 UF.7 ....|C#5 2FE7 ....
....|..|C#2 2F.A ....|C#2 UF.A ....|D#5 2FEA ....
 C#4|..|C#3 2C.F ....|C#2 UF.F ....|C#5 2CEF ....
....|..|C#2 2F.7 ....|--- .... ....|C#2 2FF7 ....
 C#4|..|C#2 2A.F ....|C#2 UF.F ....|C#2 2AFF ....
....|..|C#2 2F.A ....|C#2 UF.A ....|C#5 2FEA ....
 C#4|..|C-4 AF.F ....|C#2 UF.F ....|C#2 2AFF ....
 C#4|..|C#2 2A.F ....|C#2 UF.A ....|C#2 2FFA ....
....|..|C#2 2F.A ....|C#2 UF.7 ....|C#5 2FE7 ....
....|..|C#2 2F.A ....|C#2 UF.A ....|C#2 2FFA ....
 E-4|..|C#2 2F.F ....|C#2 UF.F ....|E-5 2CEF ....
 C#4|..|C#2 2F.7 ....|--- .... ....|C#2 2AFF ....
 C#4|..|C#2 2A.F ....|C#2 UF.F ....|C#2 2AFF ....
....|..|C#2 2F.A ....|C#2 UF.A ....|E-5 2FEA ....
 D#4|..|C-4 CF.F ....|C#2 UF.F ....|D#5 2CEF ....
 C#4|..|C#2 2A.F ....|C#2 UF.A ....|C#2 2FFA ....
....|..|C#2 2F.A ....|C#2 UF.7 ....|E-5 2FE7 ....
....|..|C#2 2F.A ....|C#2 UF.A ....|D#5 2FEA ....
 C#4|..|C#3 2C.F ....|C#2 UF.F ....|C#5 2CEF ....
....|..|C#2 2F.7 ....|--- .... ....|C#2 2FF7 ....
 C#4|..|C#2 2A.F ....|C#2 UF.F ....|C#2 2AFF ....
....|..|C#2 2F.A ....|C#2 UF.A ....|C#5 2FEA ....
 G#4|..|C-4 AF.F ....|C#2 UF.F ....|G#5 2CEF ....
 C#4|..|C#2 2A.F ....|C#2 UF.A ....|C#2 2FFA ....
....|..|C#2 2F.A ....|C#2 UF.7 ....|C#5 2FE7 ....
....|..|C#2 2F.A ....|C#2 UF.A ....|G#5 2FEA ....
 E-4|..|C#2 2F.F ....|C#2 UF.F ....|E-5 2CEF ....
....|..|C#2 2F.7 ....|--- .... ....|C#2 2FF7 ....
 C#4|..|C#2 2A.F ....|C#2 UF.F ....|C#2 2AFF ....
....|..|C#2 2F.A ....|C#2 UF.A ....|E-5 2FEA ....
 C#4|..|C-4 CF.F ....|C#2 UF.F ....|C#5 2CEF ....
 C#4|..|C#2 2A.F ....|C#2 UF.A ....|C#2 2FFA ....
....|..|C#2 2F.A ....|C#2 UF.7 ....|E-5 2FE7 ....
....|..|C#2 2F.A ....|C#2 UF.A ....|C#5 2FEA ....
 D#4|..|C#2 2F.F ....|C#2 UF.F ....|D#5 2CEF ....
....|..|C#2 2F.7 ....|--- .... ....|C#2 2FF7 ....
 C#4|..|C#2 2A.F ....|C#2 UF.F ....|C#2 2AFF ....
....|..|C#2 2F.A ....|C#2 UF.A ....|D#5 2FEA ....
 G#4|..|C-4 AF.F ....|G#2 UF.F ....|G#2 2AFF ....
 G#4|..|G#2 2A.F ....|C#2 UF.A ....|C#2 2FFA ....
....|..|C#2 2F.A ....|C#2 UF.7 ....|D#5 2FE7 ....
....|..|G#2 2F.A ....|G#2 UF.A ....|G#2 2FFA ....
 D#4|..|G#2 2F.F ....|D#5 2C.F ....|G#2 2FFF ....
....|..|C#2 2F.7 ....|G#2 UF.F ....|--- .... ....
 G#4|..|G#2 2A.F ....|G#2 UF.F ....|G#2 2AFF ....
....|..|G#2 2F.A ....|D#5 2F.A ....|G#2 2FFA ....
 C#4|..|C-4 CF.F ....|C#5 2C.F ....|G#2 2FFF ....
 G#4|..|G#2 2A.F ....|G#2 UF.A ....|G#2 2FFA ....
....|..|G#2 2F.A ....|D#5 2F.7 ....|G#2 2FF7 ....
....|..|G#2 2F.A ....|C#5 2F.A ....|G#2 2FFA ....
 C-3|..|G#2 2F.F ....|C-5 2C.F ....|G#2 2FFF ....
....|..|G#2 2F.7 ....|G#2 UF.7 ....|--- .... ....
 G#4|..|G#2 2A.F ....|G#2 UF.F ....|G#2 2AFF ....
....|..|G#2 2F.A ....|C-5 2F.A ....|G#2 2FFA ....
 A-3|..|C-4 AF.F ....|A-4 2C.F ....|G#2 2FFF ....
 G#4|..|G#2 2A.F ....|G#2 UF.A ....|G#2 2FFA ....
....|..|G#2 2F.A ....|C-5 2F.7 ....|G#2 2FF7 ....
....|..|G#2 2F.A ....|A-4 2F.A ....|G#2 2FFA ....
 G#4|..|G#3 2C.F ....|G#4 2C.F ....|G#3 2CFF ....
....|..|G#2 2F.7 ....|G#2 UF.7 ....|--- .... ....
 G#4|..|G#2 2A.F ....|G#2 UF.F ....|G#2 2AFF ....
....|..|G#2 2F.A ....|G#4 2F.A ....|G#2 2FFA ....
 E-4|..|C-4 CF.F ....|E-4 2C.F ....|G#2 2FFF ....
 G#4|..|G#2 2A.F ....|G#2 UF.A ....|G#2 2FFA ....
....|..|G#2 2F.A ....|G#4 2F.7 ....|G#2 2FF7 ....
....|..|G#2 2F.A ....|E-4 2F.A ....|G#2 2FFA ....
 D#4|..|G#2 2F.F ....|D#4 2C.F ....|G#2 2FFF ....
....|..|G#2 2F.7 ....|G#2 UF.7 ....|--- .... ....
 G#4|..|G#2 2A.F ....|G#2 UF.F ....|G#2 2AFF ....
....|..|G#2 2F.A ....|D#4 2F.A ....|G#2 2FFA ....
 C#4|..|C-4 AF.F ....|C#4 2C.F ....|C#3 2CFF ....
 C#4|..|C#2 2A.F ....|G#2 UF.A ....|G#2 2FFA ....
....|..|G#2 2F.A ....|D#4 2F.7 ....|G#2 2FF7 ....
....|..|C#2 2F.A ....|C#4 2F.A ....|C#2 2FFA ....
 E-4|..|C#2 2F.F ....|C#2 UF.F ....|E-5 2CEF ....
 C#4|..|G#2 2F.7 ....|G#2 UF.7 ....|C#2 2AFF ....
 C#4|..|C#2 2A.F ....|C#2 UF.F ....|C#2 2AFF ....
....|..|C#2 2F.A ....|C#2 UF.A ....|E-5 2FEA ....
 D#4|..|C-4 CF.F ....|C#2 UF.F ....|D#5 2CEF ....
 C#4|..|C#2 2A.F ....|C#2 UF.A ....|C#2 2FFA ....
....|..|C#2 2F.A ....|C#2 UF.7 ....|E-5 2FE7 ....
....|..|C#2 2F.A ....|C#2 UF.A ....|D#5 2FEA ....
 C#4|..|C#3 2C.F ....|C#2 UF.F ....|C#5 2CEF ....
....|..|C#2 2F.7 ....|--- .... ....|C#2 2FF7 ....
 C#4|..|C#2 2A.F ....|C#2 UF.F ....|C#2 2AFF ....
....|..|C#2 2F.A ....|C#2 UF.A ....|C#5 2FEA ....
 C-3|..|C-4 AF.F ....|C#2 UF.F ....|C-5 2CEF ....
 C#4|..|C#2 2A.F ....|C#2 UF.A ....|C#2 2FFA ....
....|..|C#2 2F.A ....|C#2 UF.7 ....|C#5 2FE7 ....
....|..|C#2 2F.A ....|C#2 UF.A ....|C-5 2FEA ....
 C#4|..|C#3 2C.F ....|C#2 UF.F ....|C#5 2CEF ....
....|..|C#2 2F.7 ....|--- .... ....|C#2 2FF7 ....
 C#4|..|C#2 2A.F ....|C#2 UF.F ....|C#2 2AFF ....
....|..|C#2 2F.A ....|C#2 UF.A ....|C#5 2FEA ....
 D#4|..|C-4 CF.F ....|C#2 UF.F ....|D#5 2CEF ....
 C#4|..|C#2 2A.F ....|C#2 UF.A ....|C#2 2FFA ....
....|..|C#2 2F.A ....|C#2 UF.7 ....|C#5 2FE7 ....
....|..|C#2 2F.A ....|C#2 UF.A ....|D#5 2FEA ....
 C#4|..|C#3 2C.F ....|C#2 UF.F ....|C#5 2CEF ....
....|..|C#2 2F.7 ....|--- .... ....|C#2 2FF7 ....
 C#4|..|C#2 2A.F ....|C#2 UF.F ....|C#2 2AFF ....
....|..|C#2 2F.A ....|C#2 UF.A ....|C#5 2FEA ....

[Pattern6]
 C#4|..|C-4 AF.F ....|C#2 UF.F ....|C#2 2AFF ....
 C#4|..|C#2 2A.F ....|C#2 UF.A ....|C#2 2FFA ....
....|..|C#2 2F.A ....|C#2 UF.7 ....|C#5 2FE7 ....
....|..|C#2 2F.A ....|C#2 UF.A ....|C#2 2FFA ....
 E-4|..|C#2 2F.F ....|C#2 UF.F ....|E-5 2CEF ....
 C#4|..|C#2 2F.7 ....|--- .... ....|C#2 2AFF ....
 C#4|..|C#2 2A.F ....|C#2 UF.F ....|C#2 2AFF ....
....|..|C#2 2F.A ....|C#2 UF.A ....|E-5 2FEA ....
 D#4|..|C-4 CF.F ....|C#2 UF.F ....|D#5 2CEF ....
 C#4|..|C#2 2A.F ....|C#2 UF.A ....|C#2 2FFA ....
....|..|C#2 2F.A ....|C#2 UF.7 ....|E-5 2FE7 ....
....|..|C#2 2F.A ....|C#2 UF.A ....|D#5 2FEA ....
 C#4|..|C#3 2C.F ....|C#2 UF.F ....|C#5 2CEF ....
....|..|C#2 2F.7 ....|--- .... ....|C#2 2FF7 ....
 C#4|..|C#2 2A.F ....|C#2 UF.F ....|C#2 2AFF ....
....|..|C#2 2F.A ....|C#2 UF.A ....|C#5 2FEA ....
 C-3|..|C-4 AF.F ....|C#2 UF.F ....|C-5 2CEF ....
 C#4|..|C#2 2A.F ....|C#2 UF.A ....|C#2 2FFA ....
....|..|C#2 2F.A ....|C#2 UF.7 ....|C#5 2FE7 ....
....|..|C#2 2F.A ....|C#2 UF.A ....|C-5 2FEA ....
 C#4|..|C#3 2C.F ....|C#2 UF.F ....|C#5 2CEF ....
....|..|C#2 2F.7 ....|--- .... ....|C#2 2FF7 ....
 C#4|..|C#2 2A.F ....|C#2 UF.F ....|C#2 2AFF ....
....|..|C#2 2F.A ....|C#2 UF.A ....|C#5 2FEA ....
 D#4|..|C-4 CF.F ....|C#2 UF.F ....|D#5 2CEF ....
 C#4|..|C#2 2A.F ....|C#2 UF.A ....|C#2 2FFA ....
....|..|C#2 2F.A ....|C#2 UF.7 ....|C#5 2FE7 ....
....|..|C#2 2F.A ....|C#2 UF.A ....|D#5 2FEA ....
 C#4|..|C#3 2C.F ....|C#2 UF.F ....|C#5 2CEF ....
....|..|C#2 2F.7 ....|--- .... ....|C#2 2FF7 ....
 C#4|..|C#2 2A.F ....|C#2 UF.F ....|C#2 2AFF ....
....|..|C#2 2F.A ....|C#2 UF.A ....|C#5 2FEA ....
 C#4|..|C-4 AF.F ....|C#2 UF.F ....|C#2 2AFF ....
 C#4|..|C#2 2A.F ....|C#2 UF.A ....|C#2 2FFA ....
....|..|C#2 2F.A ....|C#2 UF.7 ....|C#5 2FE7 ....
....|..|C#2 2F.A ....|C#2 UF.A ....|C#2 2FFA ....
 E-4|..|C#2 2F.F ....|C#2 UF.F ....|E-5 2CEF ....
 C#4|..|C#2 2F.7 ....|--- .... ....|C#2 2AFF ....
 C#4|..|C#2 2A.F ....|C#2 UF.F ....|C#2 2AFF ....
....|..|C#2 2F.A ....|C#2 UF.A ....|E-5 2FEA ....
 D#4|..|C-4 CF.F ....|C#2 UF.F ....|D#5 2CEF ....
 C#4|..|C#2 2A.F ....|C#2 UF.A ....|C#2 2FFA ....
....|..|C#2 2F.A ....|C#2 UF.7 ....|E-5 2FE7 ....
....|..|C#2 2F.A ....|C#2 UF.A ....|D#5 2FEA ....
 C#4|..|C#3 2C.F ....|C#2 UF.F ....|C#5 2CEF ....
....|..|C#2 2F.7 ....|--- .... ....|C#2 2FF7 ....
 C#4|..|C#2 2A.F ....|C#2 UF.F ....|C#2 2AFF ....
....|..|C#2 2F.A ....|C#2 UF.A ....|C#5 2FEA ....
 G#4|..|C-4 AF.F ....|C#2 UF.F ....|G#5 2CEF ....
 C#4|..|C#2 2A.F ....|C#2 UF.A ....|C#2 2FFA ....
....|..|C#2 2F.A ....|C#2 UF.7 ....|C#5 2FE7 ....
....|..|C#2 2F.A ....|C#2 UF.A ....|G#5 2FEA ....
 E-4|..|C#2 2F.F ....|C#2 UF.F ....|E-5 2CEF ....
....|..|C#2 2F.7 ....|--- .... ....|C#2 2FF7 ....
 C#4|..|C#2 2A.F ....|C#2 UF.F ....|C#2 2AFF ....
....|..|C#2 2F.A ....|C#2 UF.A ....|E-5 2FEA ....
 C#4|..|C-4 CF.F ....|C#2 UF.F ....|C#5 2CEF ....
 C#4|..|C#2 2A.F ....|C#2 UF.A ....|C#2 2FFA ....
....|..|C#2 2F.A ....|C#2 UF.7 ....|E-5 2FE7 ....
....|..|C#2 2F.A ....|C#2 UF.A ....|C#5 2FEA ....
 D#4|..|C#2 2F.F ....|C#2 UF.F ....|D#5 2CEF ....
....|..|C#2 2F.7 ....|--- .... ....|C#2 2FF7 ....
 C#4|..|C#2 2A.F ....|C#2 UF.F ....|C#2 2AFF ....
....|..|C#2 2F.A ....|C#2 UF.A ....|D#5 2FEA ....
 G#4|..|C-4 AF.F ....|G#2 UF.F ....|G#2 2AFF ....
 G#4|..|G#2 2A.F ....|C#2 UF.A ....|C#2 2FFA ....
....|..|C#2 2F.A ....|C#2 UF.7 ....|D#5 2FE7 ....
....|..|G#2 2F.A ....|G#2 UF.A ....|G#2 2FFA ....
 D#4|..|G#2 2F.F ....|D#5 2C.F ....|G#2 2FFF ....
....|..|C#2 2F.7 ....|G#2 UF.F ....|--- .... ....
 G#4|..|G#2 2A.F ....|G#2 UF.F ....|G#2 2AFF ....
....|..|G#2 2F.A ....|D#5 2F.A ....|G#2 2FFA ....
 C#4|..|C-4 CF.F ....|C#5 2C.F ....|G#2 2FFF ....
 G#4|..|G#2 2A.F ....|G#2 UF.A ....|G#2 2FFA ....
....|..|G#2 2F.A ....|D#5 2F.7 ....|G#2 2FF7 ....
....|..|G#2 2F.A ....|C#5 2F.A ....|G#2 2FFA ....
 C-3|..|G#2 2F.F ....|C-5 2C.F ....|G#2 2FFF ....
....|..|G#2 2F.7 ....|G#2 UF.7 ....|--- .... ....
 G#4|..|G#2 2A.F ....|G#2 UF.F ....|G#2 2AFF ....
....|..|G#2 2F.A ....|C-5 2F.A ....|G#2 2FFA ....
 A-3|..|C-4 AF.F ....|A-4 2C.F ....|G#2 2FFF ....
 G#4|..|G#2 2A.F ....|G#2 UF.A ....|G#2 2FFA ....
....|..|G#2 2F.A ....|C-5 2F.7 ....|G#2 2FF7 ....
....|..|G#2 2F.A ....|A-4 2F.A ....|G#2 2FFA ....
 G#4|..|G#3 2C.F ....|G#4 2C.F ....|G#3 2CFF ....
....|..|G#2 2F.7 ....|G#2 UF.7 ....|--- .... ....
 G#4|..|G#2 2A.F ....|G#2 UF.F ....|G#2 2AFF ....
....|..|G#2 2F.A ....|G#4 2F.A ....|G#2 2FFA ....
 E-4|..|C-4 CF.F ....|E-4 2C.F ....|G#3 2FEF ....
 G#4|..|G#2 2A.F ....|G#2 UF.A ....|G#2 2AFF ....
....|..|G#2 2F.A ....|G#4 2F.7 ....|G#2 2FFA ....
....|..|G#2 2F.A ....|E-4 2F.A ....|G#3 2FEA ....
 D#4|..|G#2 2F.F ....|D#4 2C.F ....|G#2 2FFF ....
....|..|G#2 2F.7 ....|G#2 UF.7 ....|G#2 2FFA ....
 G#4|..|G#2 2A.F ....|G#2 UF.F ....|G#2 2AFF ....
....|..|G#2 2F.A ....|D#4 2F.A ....|G#2 2FFA ....
 C#4|..|C-4 AF.F ....|C#4 2C.F ....|G#3 2FEF ....
 C#4|..|C#3 2C.F ....|G#2 UF.A ....|C#3 2CFF ....
....|..|G#2 2F.A ....|D#4 2F.7 ....|G#2 2FFA ....
....|..|C#3 2F.A ....|C#4 2F.A ....|G#3 2FEA ....
....|..|G#2 2F.7 ....|G#2 UF.A ....|G#2 2FF7 ....
....|..|G#2 2F.7 ....|G#2 UF.7 ....|C#3 2FFA ....
....|..|C#3 2F.7 ....|C#4 2F.7 ....|G#3 2FE7 ....
....|..|G#2 2F.7 ....|G#2 UF.7 ....|G#2 2FF7 ....
....|..|C#3 2F.7 ....|C#3 UF27 ....|C#3 2FF7 ....
....|..|--- .... ....|--- .... ....|--- .... ....
....|..|--- .... ....|R-- .... ....|--- .... ....
....|..|--- .... ....|--- .... ....|--- .... ....
....|..|--- .... ....|--- .... ....|--- .... ....
....|..|--- .... ....|--- .... ....|--- .... ....
....|..|--- .... ....|--- .... ....|--- .... ....
....|..|--- .... ....|--- .... ....|--- .... ....
....|..|C-4 AF.F ....|--- .... ....|--- .... ....
....|..|--- .... ....|--- .... ....|--- .... ....
....|..|--- .... ....|--- .... ....|--- .... ....
....|..|--- .... ....|--- .... ....|--- .... ....
....|..|--- .... ....|--- .... ....|--- .... ....
....|..|--- .... ....|--- .... ....|--- .... ....
....|..|--- .... ....|--- .... ....|--- .... ....
....|..|--- .... ....|--- .... ....|--- .... ....
 G#4|..|--- .... ....|--- .... ....|G#3 2CEF ....
....|..|--- .... ....|--- .... ....|--- .... ....
....|..|--- .... ....|--- .... ....|--- .... ....
....|..|--- .... ....|--- .... ....|G#3 2FEA ....
....|..|--- .... ....|--- .... ....|--- .... ....
....|..|--- .... ....|--- .... ....|--- .... ....
....|..|--- .... ....|--- .... ....|G#3 2FE7 ....
....|..|--- .... ....|--- .... ....|--- .... ....

[Pattern7]
 G-4|..|C-4 AF.F ....|G-3 UF3F ....|G-3 2CEF ....
 C#4|..|C#3 2C.F ....|--- .... ....|C#3 2CFF ....
 C#4|..|C#3 2C.F ....|--- .... ....|--- .... ....
....|..|C#3 2F.A ....|G-3 UF3A ....|G-3 2FEA ....
....|..|C#3 2F.A ....|--- .... ....|C#3 2FFA ....
....|..|--- .... ....|--- .... ....|--- .... ....
....|..|C#3 2F.7 ....|G-3 UF37 ....|G-3 2FE7 ....
....|..|C#3 2F.7 ....|--- .... ....|C#3 2FF7 ....
....|..|C-4 AF.F ....|--- .... ....|--- .... ....
....|..|--- .... ....|--- .... ....|--- .... ....
....|..|--- .... ....|--- .... ....|--- .... ....
....|..|--- .... ....|--- .... ....|--- .... ....
....|..|--- .... ....|--- .... ....|--- .... ....
....|..|--- .... ....|--- .... ....|--- .... ....
....|..|--- .... ....|--- .... ....|--- .... ....
....|..|--- .... ....|--- .... ....|--- .... ....
....|..|--- .... ....|--- .... ....|--- .... ....
....|..|--- .... ....|--- .... ....|--- .... ....
....|..|--- .... ....|--- .... ....|--- .... ....
....|..|--- .... ....|--- .... ....|--- .... ....
....|..|C-4 CF.F ....|--- .... ....|--- .... ....
....|..|--- .... ....|--- .... ....|--- .... ....
....|..|--- .... ....|--- .... ....|--- .... ....
....|..|--- .... ....|--- .... ....|--- .... ....
 G#4|..|C-4 AF.F ....|--- .... ....|G#3 2CEF ....
....|..|--- .... ....|--- .... ....|--- .... ....
....|..|--- .... ....|--- .... ....|--- .... ....
....|..|--- .... ....|--- .... ....|G#3 2FEA ....
....|..|C-4 CF.F ....|--- .... ....|--- .... ....
....|..|--- .... ....|--- .... ....|--- .... ....
....|..|--- .... ....|--- .... ....|G#3 2FE7 ....
....|..|--- .... ....|--- .... ....|--- .... ....
 A-3|..|C-4 AF.F ....|G#3 UF1F ....|A-3 2CEF ....
 D#4|..|D#3 2C.F ....|--- .... ....|D#3 2CFF ....
 D#4|..|D#3 2C.F ....|--- .... ....|--- .... ....
....|..|D#3 2F.A ....|G#3 UF1A ....|A-3 2FEA ....
....|..|D#3 2F.A ....|--- .... ....|D#3 2FFA ....
....|..|--- .... ....|--- .... ....|--- .... ....
....|..|D#3 2F.7 ....|G#3 UF17 ....|A-3 2FE7 ....
....|..|D#3 2F.7 ....|--- .... ....|D#3 2FF7 ....
 D#4|..|C-4 CF.F ....|G#3 UF1F ....|D#3 2CFF ....
 D#4|..|D#3 2C.F ....|--- .... ....|--- .... ....
 D#4|..|D#3 2C.F ....|--- .... ....|--- .... ....
....|..|D#3 2F.A ....|G#3 UF1A ....|D#3 2FFA ....
 D#4|..|C-4 AF.F ....|G#3 UF1F ....|D#3 2CFF ....
 D#4|..|D#3 2C.F ....|--- .... ....|--- .... ....
....|..|D#3 2F.7 ....|G#3 UF17 ....|D#3 2FF7 ....
....|..|D#3 2F.A ....|G#3 UF1A ....|D#3 2FFA ....
 G#4|..|C-4 AF.F ....|G#3 UF1F ....|G#3 2CEF ....
 D#4|..|D#3 2C.F ....|--- .... ....|D#3 2CFF ....
....|..|D#3 2F.7 ....|G#3 UF17 ....|D#3 2FF7 ....
....|..|D#3 2F.A ....|G#3 UF1A ....|G#3 2FEA ....
 D#4|..|C-4 AF.F ....|G#3 UF1F ....|D#3 2CFF ....
 D#4|..|D#3 2C.F ....|--- .... ....|--- .... ....
....|..|D#3 2F.7 ....|G#3 UF17 ....|G#3 2FE7 ....
....|..|D#3 2F.A ....|G#3 UF1A ....|D#3 2FFA ....
 E-4|..|C-4 CF.F ....|A-3 UF1F ....|E-3 2CFF ....
 E-4|..|E-3 2C.F ....|--- .... ....|--- .... ....
....|..|D#3 2F.7 ....|G#3 UF17 ....|D#3 2FF7 ....
....|..|E-3 2F.A ....|A-3 UF1A ....|E-3 2FFA ....
 D#4|..|C-4 LF.F ....|G#3 UF1F ....|D#3 2CFF ....
 D#4|..|D#3 2C.F ....|--- .... ....|--- .... ....
....|..|E-3 2F.7 ....|A-3 UF17 ....|E-3 2FF7 ....
....|..|D#3 2F.A ....|G#3 UF1A ....|D#3 2FFA ....
....|..|C-4 AF.F ....|--- .... ....|--- .... ....
....|..|E-3 2F.7 ....|--- .... ....|--- .... ....
....|..|D#3 2F.7 ....|G#3 UF17 ....|D#3 2FF7 ....
....|..|D#3 2F.7 ....|--- .... ....|--- .... ....
 D#4|..|D#3 2C.F ....|G#3 UF1F ....|D#3 2CFF ....
 D#4|..|D#3 2C.F ....|--- .... ....|--- .... ....
....|..|--- .... ....|--- .... ....|--- .... ....
....|..|D#3 2F.A ....|G#3 UF1A ....|D#3 2FFA ....
 D#4|..|C-4 CF.F ....|G#3 UF1F ....|D#3 2CFF ....
 D#4|..|D#3 2C.F ....|--- .... ....|--- .... ....
....|..|D#3 2F.7 ....|G#3 UF17 ....|D#3 2FF7 ....
....|..|D#3 2F.A ....|G#3 UF1A ....|D#3 2FFA ....
 D#4|..|D#3 2C.F ....|G#3 UF1F ....|D#3 2CFF ....
....|..|D#3 2F.7 ....|--- .... ....|--- .... ....
....|..|D#3 2F.7 ....|G#3 UF17 ....|D#3 2FF7 ....
....|..|D#3 2F.A ....|G#3 UF1A ....|D#3 2FFA ....
 G-4|..|C-4 AF.F ....|C-4 UF1F ....|G-3 2CFF ....
 G-4|..|G-3 2C.F ....|--- .... ....|--- .... ....
....|..|D#3 2F.7 ....|G#3 UF17 ....|D#3 2FF7 ....
....|..|G-3 2F.A ....|C-4 UF1A ....|G-3 2FFA ....
 G-4|..|C-4 AF.F ....|C-4 UF1F ....|G-3 2CFF ....
 G-4|..|G-3 2C.F ....|--- .... ....|--- .... ....
....|..|G-3 2F.7 ....|C-4 UF17 ....|G-3 2FF7 ....
....|..|G-3 2F.A ....|C-4 UF1A ....|G-3 2FFA ....
 G-4|..|C-4 AF.F ....|C-4 UF1F ....|G-3 2CFF ....
 G-4|..|G-3 2C.F ....|--- .... ....|--- .... ....
....|..|G-3 2F.7 ....|C-4 UF17 ....|G-3 2FF7 ....
....|..|G-3 2F.A ....|C-4 UF1A ....|G-3 2FFA ....
 G-4|..|C-4 LF.F ....|C-4 UF1F ....|G-3 2CFF ....
 G-4|..|G-3 2C.F ....|--- .... ....|--- .... ....
....|..|G-3 2F.7 ....|C-4 UF17 ....|G-3 2FF7 ....
....|..|G-3 2F.A ....|C-4 UF1A ....|G-3 2FFA ....
 A-3|..|C-4 AF.F ....|G#3 UF1F ....|A-3 2CEF ....
 D#4|..|D#3 2C.F ....|--- .... ....|D#3 2CFF ....
....|..|G-3 2F.7 ....|C-4 UF17 ....|G-3 2FF7 ....
....|..|D#3 2F.A ....|G#3 UF1A ....|A-3 2FEA ....
....|..|G-3 2F.7 ....|--- .... ....|D#3 2FFA ....
....|..|D#3 2F.A ....|--- .... ....|--- .... ....
....|..|D#3 2F.7 ....|G#3 UF17 ....|A-3 2FE7 ....
....|..|D#3 2F.7 ....|--- .... ....|D#3 2FF7 ....
 D#4|..|C-4 CF.F ....|G#3 UF1F ....|D#3 2CFF ....
 D#4|..|D#3 2C.F ....|--- .... ....|--- .... ....
 D#4|..|D#3 2C.F ....|--- .... ....|--- .... ....
....|..|D#3 2F.A ....|G#3 UF1A ....|D#3 2FFA ....
 D#4|..|C-4 AF.F ....|G#3 UF1F ....|D#3 2CFF ....
 D#4|..|D#3 2C.F ....|--- .... ....|--- .... ....
....|..|D#3 2F.7 ....|G#3 UF17 ....|D#3 2FF7 ....
....|..|D#3 2F.A ....|G#3 UF1A ....|D#3 2FFA ....
 G#4|..|C-4 AF.F ....|G#3 UF1F ....|G#3 2CEF ....
 D#4|..|D#3 2C.F ....|--- .... ....|D#3 2CFF ....
....|..|D#3 2F.7 ....|G#3 UF17 ....|D#3 2FF7 ....
....|..|D#3 2F.A ....|G#3 UF1A ....|G#3 2FEA ....
 D#4|..|C-4 AF.F ....|G#3 UF1F ....|D#3 2CFF ....
 D#4|..|D#3 2C.F ....|--- .... ....|--- .... ....
....|..|D#3 2F.7 ....|G#3 UF17 ....|G#3 2FE7 ....
....|..|D#3 2F.A ....|G#3 UF1A ....|D#3 2FFA ....
 E-4|..|C-4 CF.F ....|A-3 UF1F ....|E-3 2CFF ....
 E-4|..|E-3 2C.F ....|--- .... ....|--- .... ....
....|..|D#3 2F.7 ....|G#3 UF17 ....|D#3 2FF7 ....
....|..|E-3 2F.A ....|A-3 UF1A ....|E-3 2FFA ....
 D#4|..|C-4 LF.F ....|G#3 UF1F ....|D#3 2CFF ....
 D#4|..|D#3 2C.F ....|--- .... ....|--- .... ....
....|..|E-3 2F.7 ....|A-3 UF17 ....|E-3 2FF7 ....
....|..|D#3 2F.A ....|G#3 UF1A ....|D#3 2FFA ....

[Pattern8]
....|..|C-4 AF.F ....|--- .... ....|--- .... ....
....|..|E-3 2F.7 ....|--- .... ....|--- .... ....
....|..|D#3 2F.7 ....|G#3 UF17 ....|D#3 2FF7 ....
....|..|D#3 2F.7 ....|--- .... ....|--- .... ....
 D#4|..|D#3 2C.F ....|G#3 UF1F ....|D#3 2CFF ....
 D#4|..|D#3 2C.F ....|--- .... ....|--- .... ....
....|..|--- .... ....|--- .... ....|--- .... ....
....|..|D#3 2F.A ....|G#3 UF1A ....|D#3 2FFA ....
 D#4|..|C-4 CF.F ....|G#3 UF1F ....|D#3 2CFF ....
 D#4|..|D#3 2C.F ....|--- .... ....|--- .... ....
....|..|D#3 2F.7 ....|G#3 UF17 ....|D#3 2FF7 ....
....|..|D#3 2F.A ....|G#3 UF1A ....|D#3 2FFA ....
 D#4|..|D#3 2C.F ....|G#3 UF1F ....|D#3 2CFF ....
....|..|D#3 2F.7 ....|--- .... ....|--- .... ....
....|..|D#3 2F.7 ....|G#3 UF17 ....|D#3 2FF7 ....
....|..|D#3 2F.A ....|G#3 UF1A ....|D#3 2FFA ....
 G-4|..|C-4 AF.F ....|C-4 UF1F ....|G-3 2CFF ....
 G-4|..|G-3 2C.F ....|--- .... ....|--- .... ....
....|..|D#3 2F.7 ....|G#3 UF17 ....|D#3 2FF7 ....
....|..|G-3 2F.A ....|C-4 UF1A ....|G-3 2FFA ....
 G-4|..|C-4 AF.F ....|C-4 UF1F ....|G-3 2CFF ....
 G-4|..|G-3 2C.F ....|--- .... ....|--- .... ....
....|..|G-3 2F.7 ....|C-4 UF17 ....|G-3 2FF7 ....
....|..|G-3 2F.A ....|C-4 UF1A ....|G-3 2FFA ....
 G#4|..|C-4 AF.F ....|C-4 UF1F ....|G#3 2CEF ....
 G-4|..|G-3 2C.F ....|--- .... ....|G-3 2CFF ....
....|..|G-3 2F.7 ....|C-4 UF17 ....|G-3 2FF7 ....
....|..|G-3 2F.A ....|C-4 UF1A ....|G#3 2FEA ....
 G-4|..|C-4 LF.F ....|C-4 UF1F ....|G-3 2CFF ....
 G-4|..|G-3 2C.F ....|--- .... ....|--- .... ....
....|..|G-3 2F.7 ....|C-4 UF17 ....|G#3 2FE7 ....
....|..|G-3 2F.A ....|C-4 UF1A ....|G-3 2FFA ....
 G#4|..|C-4 AF.F ....|C#3 UF2F ....|G#3 2CEF ....
 C#4|..|C#3 2C.F ....|--- .... ....|C#3 2CFF ....
....|..|G-3 2F.7 ....|C-4 UF17 ....|G-3 2FF7 ....
....|..|C#3 2F.A ....|C#3 UF2A ....|G#3 2FEA ....
....|..|G-3 2F.7 ....|--- .... ....|C#3 2FFA ....
....|..|C#3 2F.A ....|--- .... ....|--- .... ....
....|..|C#3 2F.7 ....|C#3 UF27 ....|G#3 2FE7 ....
....|..|C#3 2F.7 ....|--- .... ....|C#3 2FF7 ....
....|..|--- .... ....|--- .... ....|--- .... ....
....|..|--- .... ....|--- .... ....|--- .... ....
....|..|--- .... ....|--- .... ....|--- .... ....
....|..|--- .... ....|--- .... ....|--- .... ....
....|..|--- .... ....|--- .... ....|--- .... ....
....|..|--- .... ....|--- .... ....|--- .... ....
....|..|--- .... ....|--- .... ....|--- .... ....
....|..|--- .... ....|--- .... ....|--- .... ....
....|..|C-4 AF.F ....|--- .... ....|--- .... ....
....|..|--- .... ....|--- .... ....|--- .... ....
....|..|--- .... ....|--- .... ....|--- .... ....
....|..|--- .... ....|--- .... ....|--- .... ....
....|..|--- .... ....|--- .... ....|--- .... ....
....|..|--- .... ....|--- .... ....|--- .... ....
....|..|--- .... ....|--- .... ....|--- .... ....
....|..|--- .... ....|--- .... ....|--- .... ....
 G#4|..|--- .... ....|--- .... ....|G#3 2CEF ....
....|..|--- .... ....|--- .... ....|--- .... ....
....|..|--- .... ....|--- .... ....|--- .... ....
....|..|--- .... ....|--- .... ....|G#3 2FEA ....
....|..|--- .... ....|--- .... ....|--- .... ....
....|..|--- .... ....|--- .... ....|--- .... ....
....|..|--- .... ....|--- .... ....|G#3 2FE7 ....
....|..|--- .... ....|--- .... ....|--- .... ....
 G-4|..|C-4 AF.F ....|G-3 UF3F ....|G-3 2CEF ....
 C#4|..|C#3 2C.F ....|--- .... ....|C#3 2CFF ....
 C#4|..|C#3 2C.F ....|--- .... ....|--- .... ....
....|..|C#3 2F.A ....|G-3 UF3A ....|G-3 2FEA ....
....|..|C#3 2F.A ....|--- .... ....|C#3 2FFA ....
....|..|--- .... ....|--- .... ....|--- .... ....
....|..|C#3 2F.7 ....|G-3 UF37 ....|G-3 2FE7 ....
....|..|C#3 2F.7 ....|--- .... ....|C#3 2FF7 ....
....|..|C-4 AF.F ....|--- .... ....|--- .... ....
....|..|--- .... ....|--- .... ....|--- .... ....
....|..|--- .... ....|--- .... ....|--- .... ....
....|..|--- .... ....|--- .... ....|--- .... ....
....|..|--- .... ....|--- .... ....|--- .... ....
....|..|--- .... ....|--- .... ....|--- .... ....
....|..|--- .... ....|--- .... ....|--- .... ....
....|..|--- .... ....|--- .... ....|--- .... ....
....|..|--- .... ....|--- .... ....|--- .... ....
....|..|--- .... ....|--- .... ....|--- .... ....
....|..|--- .... ....|--- .... ....|--- .... ....
....|..|--- .... ....|--- .... ....|--- .... ....
....|..|C-4 CF.F ....|--- .... ....|--- .... ....
....|..|--- .... ....|--- .... ....|--- .... ....
....|..|--- .... ....|--- .... ....|--- .... ....
....|..|--- .... ....|--- .... ....|--- .... ....
 G#4|..|C-4 AF.F ....|--- .... ....|G#3 2CEF ....
....|..|--- .... ....|--- .... ....|--- .... ....
....|..|--- .... ....|--- .... ....|--- .... ....
....|..|--- .... ....|--- .... ....|G#3 2FEA ....
....|..|C-4 CF.F ....|--- .... ....|--- .... ....
....|..|--- .... ....|--- .... ....|--- .... ....
....|..|--- .... ....|--- .... ....|G#3 2FE7 ....
....|..|--- .... ....|--- .... ....|--- .... ....
 A-3|..|C-4 AF.F ....|G#3 UF1F ....|A-3 2CEF ....
 D#4|..|D#3 2C.F ....|--- .... ....|D#3 2CFF ....
 D#4|..|D#3 2C.F ....|--- .... ....|--- .... ....
....|..|D#3 2F.A ....|G#3 UF1A ....|A-3 2FEA ....
....|..|D#3 2F.A ....|--- .... ....|D#3 2FFA ....
....|..|--- .... ....|--- .... ....|--- .... ....
....|..|D#3 2F.7 ....|G#3 UF17 ....|A-3 2FE7 ....
....|..|D#3 2F.7 ....|--- .... ....|D#3 2FF7 ....
 D#4|..|C-4 CF.F ....|G#3 UF1F ....|D#3 2CFF ....
 D#4|..|D#3 2C.F ....|--- .... ....|--- .... ....
 D#4|..|D#3 2C.F ....|--- .... ....|--- .... ....
....|..|D#3 2F.A ....|G#3 UF1A ....|D#3 2FFA ....
 D#4|..|C-4 AF.F ....|G#3 UF1F ....|D#3 2CFF ....
 D#4|..|D#3 2C.F ....|--- .... ....|--- .... ....
....|..|D#3 2F.7 ....|G#3 UF17 ....|D#3 2FF7 ....
....|..|D#3 2F.A ....|G#3 UF1A ....|D#3 2FFA ....
 G#4|..|C-4 AF.F ....|G#3 UF1F ....|G#3 2CEF ....
 D#4|..|D#3 2C.F ....|--- .... ....|D#3 2CFF ....
....|..|D#3 2F.7 ....|G#3 UF17 ....|D#3 2FF7 ....
....|..|D#3 2F.A ....|G#3 UF1A ....|G#3 2FEA ....
 D#4|..|C-4 AF.F ....|G#3 UF1F ....|D#3 2CFF ....
 D#4|..|D#3 2C.F ....|--- .... ....|--- .... ....
....|..|D#3 2F.7 ....|G#3 UF17 ....|G#3 2FE7 ....
....|..|D#3 2F.A ....|G#3 UF1A ....|D#3 2FFA ....
 E-4|..|C-4 CF.F ....|A-3 UF1F ....|E-3 2CFF ....
 E-4|..|E-3 2C.F ....|--- .... ....|--- .... ....
....|..|D#3 2F.7 ....|G#3 UF17 ....|D#3 2FF7 ....
....|..|E-3 2F.A ....|A-3 UF1A ....|E-3 2FFA ....
 D#4|..|C-4 LF.F ....|G#3 UF1F ....|D#3 2CFF ....
 D#4|..|D#3 2C.F ....|--- .... ....|--- .... ....
....|..|E-3 2F.7 ....|A-3 UF17 ....|E-3 2FF7 ....
....|..|D#3 2F.A ....|G#3 UF1A ....|D#3 2FFA ....

[Pattern9]
....|..|C-4 AF.F ....|--- .... ....|--- .... ....
....|..|E-3 2F.7 ....|--- .... ....|--- .... ....
....|..|D#3 2F.7 ....|G#3 UF17 ....|D#3 2FF7 ....
....|..|D#3 2F.7 ....|--- .... ....|--- .... ....
 D#4|..|D#3 2C.F ....|G#3 UF1F ....|D#3 2CFF ....
 D#4|..|D#3 2C.F ....|--- .... ....|--- .... ....
....|..|--- .... ....|--- .... ....|--- .... ....
....|..|D#3 2F.A ....|G#3 UF1A ....|D#3 2FFA ....
 D#4|..|C-4 CF.F ....|G#3 UF1F ....|D#3 2CFF ....
 D#4|..|D#3 2C.F ....|--- .... ....|--- .... ....
....|..|D#3 2F.7 ....|G#3 UF17 ....|D#3 2FF7 ....
....|..|D#3 2F.A ....|G#3 UF1A ....|D#3 2FFA ....
 D#4|..|D#3 2C.F ....|G#3 UF1F ....|D#3 2CFF ....
....|..|D#3 2F.7 ....|--- .... ....|--- .... ....
....|..|D#3 2F.7 ....|G#3 UF17 ....|D#3 2FF7 ....
....|..|D#3 2F.A ....|G#3 UF1A ....|D#3 2FFA ....
 G-4|..|C-4 AF.F ....|C-4 UF1F ....|G-3 2CFF ....
 G-4|..|G-3 2C.F ....|--- .... ....|--- .... ....
....|..|D#3 2F.7 ....|G#3 UF17 ....|D#3 2FF7 ....
....|..|G-3 2F.A ....|C-4 UF1A ....|G-3 2FFA ....
 G-4|..|C-4 AF.F ....|C-4 UF1F ....|G-3 2CFF ....
 G-4|..|G-3 2C.F ....|--- .... ....|--- .... ....
....|..|G-3 2F.7 ....|C-4 UF17 ....|G-3 2FF7 ....
....|..|G-3 2F.A ....|C-4 UF1A ....|G-3 2FFA ....
 G-4|..|C-4 AF.F ....|C-4 UF1F ....|G-3 2CFF ....
 G-4|..|G-3 2C.F ....|--- .... ....|--- .... ....
....|..|G-3 2F.7 ....|C-4 UF17 ....|G-3 2FF7 ....
....|..|G-3 2F.A ....|C-4 UF1A ....|G-3 2FFA ....
 G-4|..|C-4 LF.F ....|C-4 UF1F ....|G-3 2CFF ....
 G-4|..|G-3 2C.F ....|--- .... ....|--- .... ....
....|..|G-3 2F.7 ....|C-4 UF17 ....|G-3 2FF7 ....
....|..|G-3 2F.A ....|C-4 UF1A ....|G-3 2FFA ....
 A-3|..|C-4 AF.F ....|G#3 UF1F ....|A-3 2CEF ....
 D#4|..|D#3 2C.F ....|--- .... ....|D#3 2CFF ....
....|..|G-3 2F.7 ....|C-4 UF17 ....|G-3 2FF7 ....
....|..|D#3 2F.A ....|G#3 UF1A ....|A-3 2FEA ....
....|..|G-3 2F.7 ....|--- .... ....|D#3 2FFA ....
....|..|D#3 2F.A ....|--- .... ....|--- .... ....
....|..|D#3 2F.7 ....|G#3 UF17 ....|A-3 2FE7 ....
....|..|D#3 2F.7 ....|--- .... ....|D#3 2FF7 ....
 D#4|..|C-4 CF.F ....|G#3 UF1F ....|D#3 2CFF ....
 D#4|..|D#3 2C.F ....|--- .... ....|--- .... ....
 D#4|..|D#3 2C.F ....|--- .... ....|--- .... ....
....|..|D#3 2F.A ....|G#3 UF1A ....|D#3 2FFA ....
 D#4|..|C-4 AF.F ....|G#3 UF1F ....|D#3 2CFF ....
 D#4|..|D#3 2C.F ....|--- .... ....|--- .... ....
....|..|D#3 2F.7 ....|G#3 UF17 ....|D#3 2FF7 ....
....|..|D#3 2F.A ....|G#3 UF1A ....|D#3 2FFA ....
 G#4|..|C-4 AF.F ....|G#3 UF1F ....|G#3 2CEF ....
 D#4|..|D#3 2C.F ....|--- .... ....|D#3 2CFF ....
....|..|D#3 2F.7 ....|G#3 UF17 ....|D#3 2FF7 ....
....|..|D#3 2F.A ....|G#3 UF1A ....|G#3 2FEA ....
 D#4|..|C-4 AF.F ....|G#3 UF1F ....|D#3 2CFF ....
 D#4|..|D#3 2C.F ....|--- .... ....|--- .... ....
....|..|D#3 2F.7 ....|G#3 UF17 ....|G#3 2FE7 ....
....|..|D#3 2F.A ....|G#3 UF1A ....|D#3 2FFA ....
 E-4|..|C-4 CF.F ....|A-3 UF1F ....|E-3 2CFF ....
 E-4|..|E-3 2C.F ....|--- .... ....|--- .... ....
....|..|D#3 2F.7 ....|G#3 UF17 ....|D#3 2FF7 ....
....|..|E-3 2F.A ....|A-3 UF1A ....|E-3 2FFA ....
 D#4|..|C-4 LF.F ....|G#3 UF1F ....|D#3 2CFF ....
 D#4|..|D#3 2C.F ....|--- .... ....|--- .... ....
....|..|E-3 2F.7 ....|A-3 UF17 ....|E-3 2FF7 ....
....|..|D#3 2F.A ....|G#3 UF1A ....|D#3 2FFA ....
....|..|C-4 AF.F ....|--- .... ....|--- .... ....
....|..|E-3 2F.7 ....|--- .... ....|--- .... ....
....|..|D#3 2F.7 ....|G#3 UF17 ....|D#3 2FF7 ....
....|..|D#3 2F.7 ....|--- .... ....|--- .... ....
 D#4|..|D#3 2C.F ....|G#3 UF1F ....|D#3 2CFF ....
 D#4|..|D#3 2C.F ....|--- .... ....|--- .... ....
....|..|--- .... ....|--- .... ....|--- .... ....
....|..|D#3 2F.A ....|G#3 UF1A ....|D#3 2FFA ....
 D#4|..|C-4 CF.F ....|G#3 UF1F ....|D#3 2CFF ....
 D#4|..|D#3 2C.F ....|--- .... ....|--- .... ....
....|..|D#3 2F.7 ....|G#3 UF17 ....|D#3 2FF7 ....
....|..|D#3 2F.A ....|G#3 UF1A ....|D#3 2FFA ....
 D#4|..|D#3 2C.F ....|G#3 UF1F ....|D#3 2CFF ....
....|..|D#3 2F.7 ....|--- .... ....|--- .... ....
....|..|D#3 2F.7 ....|G#3 UF17 ....|D#3 2FF7 ....
....|..|D#3 2F.A ....|G#3 UF1A ....|D#3 2FFA ....
 G-4|..|C-4 AF.F ....|C-4 UF1F ....|G-3 2CFF ....
 G-4|..|G-3 2C.F ....|--- .... ....|--- .... ....
....|..|D#3 2F.7 ....|G#3 UF17 ....|D#3 2FF7 ....
....|..|G-3 2F.A ....|C-4 UF1A ....|G-3 2FFA ....
 G-4|..|C-4 AF.F ....|C-4 UF1F ....|G-3 2CFF ....
 G-4|..|G-3 2C.F ....|--- .... ....|--- .... ....
....|..|G-3 2F.7 ....|C-4 UF17 ....|G-3 2FF7 ....
....|..|G-3 2F.A ....|C-4 UF1A ....|G-3 2FFA ....
 G-4|..|C-4 AF.F ....|C-4 UF1F ....|G-3 2CFF ....
 G-4|..|G-3 2C.F ....|--- .... ....|--- .... ....
....|..|G-3 2F.7 ....|C-4 UF17 ....|G-3 2FF7 ....
....|..|G-3 2F.A ....|C-4 UF1A ....|G-3 2FFA ....
 G-4|..|C-4 LF.F ....|C-4 UF1F ....|G-3 2CFF ....
 G-4|..|G-3 2C.F ....|--- .... ....|--- .... ....
....|..|G-3 2F.7 ....|C-4 UF17 ....|G-3 2FF7 ....
....|..|G-3 2F.A ....|C-4 UF1A ....|G-3 2FFA ....
 G#4|..|C-4 AF.F ....|C#3 UF1F ....|G#2 2AFF ....
 G#4|..|G#2 2A.F ....|--- .... ....|--- .... ....
....|..|G-3 2F.7 ....|C-4 UF17 ....|G-3 2FF7 ....
....|..|G#2 2F.A ....|C#3 UF1A ....|G#2 2FFA ....
 E-4|..|R-- .... ....|R-- .... ....|E-5 2CEF ....
....|..|G#2 2F.A ....|--- .... ....|R-- .... ....
....|..|G#2 2F.7 ....|C#3 UF17 ....|G#2 2FF7 ....
....|..|R-- .... ....|R-- .... ....|E-5 2FEA ....
 D#4|..|R-- .... ....|--- .... ....|D#5 2CEF ....
....|..|--- .... ....|--- .... ....|R-- .... ....
....|..|R-- .... ....|R-- .... ....|E-5 2FE7 ....
....|..|--- .... ....|--- .... ....|D#5 2FEA ....
 C#4|..|--- .... ....|--- .... ....|C#5 2CEF ....
....|..|--- .... ....|--- .... ....|R-- .... ....
....|..|--- .... ....|--- .... ....|D#5 2FE7 ....
....|..|--- .... ....|--- .... ....|C#5 2FEA ....
 C-3|..|--- .... ....|--- .... ....|C-5 2CEF ....
....|..|--- .... ....|--- .... ....|--- .... ....
....|..|--- .... ....|--- .... ....|C#5 2FE7 ....
....|..|--- .... ....|--- .... ....|C-5 2FEA ....
 C#4|..|--- .... ....|--- .... ....|C#5 2CEF ....
....|..|--- .... ....|--- .... ....|--- .... ....
....|..|--- .... ....|--- .... ....|C-5 2FE7 ....
....|..|--- .... ....|--- .... ....|C#5 2FEA ....
 D#4|..|--- .... ....|--- .... ....|D#5 2CEF ....
....|..|--- .... ....|--- .... ....|--- .... ....
....|..|--- .... ....|--- .... ....|C#5 2FE7 ....
....|..|--- .... ....|--- .... ....|D#5 2FEA ....
 C#4|..|--- .... ....|--- .... ....|C#5 2CEF ....
....|..|--- .... ....|--- .... ....|--- .... ....
....|..|--- .... ....|--- .... ....|D#5 2FE7 ....
....|..|--- .... ....|--- .... ....|C#5 2FEA ....

[Pattern10]
 G#4|..|C-4 AF.F ....|C#3 UF1F ....|G#2 2AFF ....
 G#4|..|G#2 2A.F ....|--- .... ....|--- .... ....
 G#4|..|G#2 2A.F ....|--- .... ....|C#5 2FE7 ....
....|..|G#2 2F.A ....|C#3 UF1A ....|G#2 2FFA ....
 E-4|..|R-- .... ....|R-- .... ....|E-5 2CEF ....
....|..|--- .... ....|--- .... ....|R-- .... ....
....|..|G#2 2F.7 ....|C#3 UF17 ....|G#2 2FF7 ....
....|..|R-- .... ....|R-- .... ....|E-5 2FEA ....
 D#4|..|R-- .... ....|--- .... ....|D#5 2CEF ....
....|..|--- .... ....|--- .... ....|R-- .... ....
....|..|R-- .... ....|R-- .... ....|E-5 2FE7 ....
....|..|--- .... ....|--- .... ....|D#5 2FEA ....
 C#4|..|--- .... ....|--- .... ....|C#5 2CEF ....
....|..|--- .... ....|--- .... ....|R-- .... ....
....|..|--- .... ....|--- .... ....|D#5 2FE7 ....
....|..|--- .... ....|--- .... ....|C#5 2FEA ....
 C-3|..|--- .... ....|--- .... ....|C-5 2CEF ....
....|..|--- .... ....|--- .... ....|--- .... ....
....|..|--- .... ....|--- .... ....|C#5 2FE7 ....
....|..|--- .... ....|--- .... ....|C-5 2FEA ....
 C#4|..|--- .... ....|--- .... ....|C#5 2CEF ....
....|..|--- .... ....|--- .... ....|--- .... ....
....|..|--- .... ....|--- .... ....|C-5 2FE7 ....
....|..|--- .... ....|--- .... ....|C#5 2FEA ....
 D#4|..|--- .... ....|--- .... ....|D#5 2CEF ....
....|..|--- .... ....|--- .... ....|--- .... ....
....|..|--- .... ....|--- .... ....|C#5 2FE7 ....
....|..|--- .... ....|--- .... ....|D#5 2FEA ....
 G#4|..|C-4 AF.F ....|C#3 UF1F ....|G#2 2AFF ....
 G#4|..|G#2 2A.F ....|--- .... ....|--- .... ....
 G#4|..|G#2 2A.F ....|--- .... ....|D#5 2FE7 ....
....|..|G#2 2F.A ....|C#3 UF1A ....|G#2 2FFA ....
 G#4|..|C-4 AF.F ....|C#3 UF1F ....|G#2 2AFF ....
 G#4|..|G#2 2A.F ....|--- .... ....|--- .... ....
....|..|G#2 2F.7 ....|C#3 UF17 ....|G#2 2FF7 ....
....|..|G#2 2F.A ....|C#3 UF1A ....|G#2 2FFA ....
 E-4|..|R-- .... ....|R-- .... ....|E-5 2CEF ....
....|..|G#2 2F.A ....|--- .... ....|R-- .... ....
....|..|G#2 2F.7 ....|C#3 UF17 ....|G#2 2FF7 ....
....|..|R-- .... ....|R-- .... ....|E-5 2FEA ....
 D#4|..|R-- .... ....|--- .... ....|D#5 2CEF ....
....|..|--- .... ....|--- .... ....|R-- .... ....
....|..|R-- .... ....|R-- .... ....|E-5 2FE7 ....
....|..|--- .... ....|--- .... ....|D#5 2FEA ....
 C#4|..|--- .... ....|--- .... ....|C#5 2CEF ....
....|..|--- .... ....|--- .... ....|R-- .... ....
....|..|--- .... ....|--- .... ....|D#5 2FE7 ....
....|..|--- .... ....|--- .... ....|C#5 2FEA ....
 C-3|..|--- .... ....|--- .... ....|C-5 2CEF ....
....|..|--- .... ....|--- .... ....|--- .... ....
....|..|--- .... ....|--- .... ....|C#5 2FE7 ....
....|..|--- .... ....|--- .... ....|C-5 2FEA ....
 C#4|..|--- .... ....|--- .... ....|C#5 2CEF ....
....|..|--- .... ....|--- .... ....|--- .... ....
....|..|--- .... ....|--- .... ....|C-5 2FE7 ....
....|..|--- .... ....|--- .... ....|C#5 2FEA ....
 D#4|..|--- .... ....|--- .... ....|D#5 2CEF ....
....|..|--- .... ....|--- .... ....|--- .... ....
....|..|--- .... ....|--- .... ....|C#5 2FE7 ....
....|..|--- .... ....|--- .... ....|D#5 2FEA ....
 C#4|..|--- .... ....|--- .... ....|C#5 2CEF ....
....|..|--- .... ....|--- .... ....|--- .... ....
....|..|--- .... ....|--- .... ....|D#5 2FE7 ....
....|..|--- .... ....|--- .... ....|C#5 2FEA ....
 G#4|..|C-4 AF.F ....|G#3 UF2F ....|G#3 2CFF ....
 G#4|..|G#3 2C.F ....|--- .... ....|--- .... ....
 G#4|..|G#3 2C.F ....|--- .... ....|C#5 2FE7 ....
....|..|G#3 2F.A ....|G#3 UF2A ....|G#3 2FFA ....
 D#4|..|G#3 2F.A ....|--- .... ....|D#5 2CEF ....
....|..|--- .... ....|--- .... ....|--- .... ....
....|..|G#3 2F.7 ....|G#3 UF27 ....|G#3 2FF7 ....
....|..|G#3 2F.7 ....|--- .... ....|D#5 2FEA ....
 C#4|..|R-- .... ....|--- .... ....|C#5 2CEF ....
....|..|--- .... ....|--- .... ....|--- .... ....
....|..|--- .... ....|--- .... ....|D#5 2FE7 ....
....|..|--- .... ....|--- .... ....|C#5 2FEA ....
 C-3|..|--- .... ....|--- .... ....|C-5 2CEF ....
....|..|--- .... ....|--- .... ....|--- .... ....
....|..|--- .... ....|--- .... ....|C#5 2FE7 ....
....|..|--- .... ....|--- .... ....|C-5 2FEA ....
 A-3|..|--- .... ....|--- .... ....|A-4 2CEF ....
....|..|--- .... ....|--- .... ....|--- .... ....
....|..|--- .... ....|--- .... ....|C-5 2FE7 ....
....|..|--- .... ....|--- .... ....|A-4 2FEA ....
 G#4|..|--- .... ....|--- .... ....|G#4 2CEF ....
....|..|--- .... ....|--- .... ....|--- .... ....
....|..|--- .... ....|--- .... ....|A-4 2FE7 ....
....|..|--- .... ....|--- .... ....|G#4 2FEA ....
 E-4|..|--- .... ....|--- .... ....|E-4 2CEF ....
....|..|--- .... ....|--- .... ....|--- .... ....
....|..|--- .... ....|--- .... ....|G#4 2FE7 ....
....|..|--- .... ....|--- .... ....|E-4 2FEA ....
 D#4|..|C-4 AF.F ....|C#3 UF1F ....|D#4 2CEF ....
 G#4|..|G#2 2A.F ....|--- .... ....|G#2 2AFF ....
 G#4|..|G#2 2A.F ....|--- .... ....|E-4 2FE7 ....
....|..|G#2 2F.A ....|C#3 UF1A ....|D#4 2FEA ....
 G#4|..|C-4 AF.F ....|C#3 UF1F ....|G#2 2AFF ....
 G#4|..|G#2 2A.F ....|--- .... ....|--- .... ....
....|..|G#2 2F.7 ....|C#3 UF17 ....|D#4 2FE7 ....
....|..|G#2 2F.A ....|C#3 UF1A ....|G#2 2FFA ....
 E-4|..|R-- .... ....|R-- .... ....|E-5 2CEF ....
....|..|G#2 2F.A ....|--- .... ....|R-- .... ....
....|..|G#2 2F.7 ....|C#3 UF17 ....|G#2 2FF7 ....
....|..|R-- .... ....|R-- .... ....|E-5 2FEA ....
 D#4|..|R-- .... ....|--- .... ....|D#5 2CEF ....
....|..|--- .... ....|--- .... ....|R-- .... ....
....|..|R-- .... ....|R-- .... ....|E-5 2FE7 ....
....|..|--- .... ....|--- .... ....|D#5 2FEA ....
 C#4|..|--- .... ....|--- .... ....|C#5 2CEF ....
....|..|--- .... ....|--- .... ....|R-- .... ....
....|..|--- .... ....|--- .... ....|D#5 2FE7 ....
....|..|--- .... ....|--- .... ....|C#5 2FEA ....
 C-3|..|--- .... ....|--- .... ....|C-5 2CEF ....
....|..|--- .... ....|--- .... ....|--- .... ....
....|..|--- .... ....|--- .... ....|C#5 2FE7 ....
....|..|--- .... ....|--- .... ....|C-5 2FEA ....
 C#4|..|--- .... ....|--- .... ....|C#5 2CEF ....
....|..|--- .... ....|--- .... ....|--- .... ....
....|..|--- .... ....|--- .... ....|C-5 2FE7 ....
....|..|--- .... ....|--- .... ....|C#5 2FEA ....
 D#4|..|--- .... ....|--- .... ....|D#5 2CEF ....
....|..|--- .... ....|--- .... ....|--- .... ....
....|..|--- .... ....|--- .... ....|C#5 2FE7 ....
....|..|--- .... ....|--- .... ....|D#5 2FEA ....
 C#4|..|--- .... ....|--- .... ....|C#5 2CEF ....
....|..|--- .... ....|--- .... ....|--- .... ....
....|..|--- .... ....|--- .... ....|D#5 2FE7 ....
....|..|--- .... ....|--- .... ....|C#5 2FEA ....

[Pattern11]
 G#4|..|C-4 AF.F ....|C#3 UF1F ....|G#2 2AFF ....
 G#4|..|G#2 2A.F ....|--- .... ....|--- .... ....
 G#4|..|G#2 2A.F ....|--- .... ....|C#5 2FE7 ....
....|..|G#2 2F.A ....|C#3 UF1A ....|G#2 2FFA ....
 E-4|..|R-- .... ....|R-- .... ....|E-5 2CEF ....
....|..|--- .... ....|--- .... ....|R-- .... ....
....|..|G#2 2F.7 ....|C#3 UF17 ....|G#2 2FF7 ....
....|..|R-- .... ....|R-- .... ....|E-5 2FEA ....
 D#4|..|R-- .... ....|--- .... ....|D#5 2CEF ....
....|..|--- .... ....|--- .... ....|R-- .... ....
....|..|R-- .... ....|R-- .... ....|E-5 2FE7 ....
....|..|--- .... ....|--- .... ....|D#5 2FEA ....
 C#4|..|--- .... ....|--- .... ....|C#5 2CEF ....
....|..|--- .... ....|--- .... ....|R-- .... ....
....|..|--- .... ....|--- .... ....|D#5 2FE7 ....
....|..|--- .... ....|--- .... ....|C#5 2FEA ....
 C-3|..|--- .... ....|--- .... ....|C-5 2CEF ....
....|..|--- .... ....|--- .... ....|--- .... ....
....|..|--- .... ....|--- .... ....|C#5 2FE7 ....
....|..|--- .... ....|--- .... ....|C-5 2FEA ....
 C#4|..|--- .... ....|--- .... ....|C#5 2CEF ....
....|..|--- .... ....|--- .... ....|--- .... ....
....|..|--- .... ....|--- .... ....|C-5 2FE7 ....
....|..|--- .... ....|--- .... ....|C#5 2FEA ....
 D#4|..|--- .... ....|--- .... ....|D#5 2CEF ....
....|..|--- .... ....|--- .... ....|--- .... ....
....|..|--- .... ....|--- .... ....|C#5 2FE7 ....
....|..|--- .... ....|--- .... ....|D#5 2FEA ....
 G#4|..|C-4 AF.F ....|C#3 UF1F ....|G#2 2AFF ....
 G#4|..|G#2 2A.F ....|--- .... ....|--- .... ....
 G#4|..|G#2 2A.F ....|--- .... ....|D#5 2FE7 ....
....|..|G#2 2F.A ....|C#3 UF1A ....|G#2 2FFA ....
 G#4|..|C-4 AF.F ....|C#3 UF1F ....|G#2 2AFF ....
 G#4|..|G#2 2A.F ....|--- .... ....|--- .... ....
....|..|G#2 2F.7 ....|C#3 UF17 ....|G#2 2FF7 ....
....|..|G#2 2F.A ....|C#3 UF1A ....|G#2 2FFA ....
 E-4|..|R-- .... ....|R-- .... ....|E-5 2CEF ....
....|..|G#2 2F.A ....|--- .... ....|R-- .... ....
....|..|G#2 2F.7 ....|C#3 UF17 ....|G#2 2FF7 ....
....|..|R-- .... ....|R-- .... ....|E-5 2FEA ....
 D#4|..|R-- .... ....|--- .... ....|D#5 2CEF ....
....|..|--- .... ....|--- .... ....|R-- .... ....
....|..|R-- .... ....|R-- .... ....|E-5 2FE7 ....
....|..|--- .... ....|--- .... ....|D#5 2FEA ....
 C#4|..|--- .... ....|--- .... ....|C#5 2CEF ....
....|..|--- .... ....|--- .... ....|R-- .... ....
....|..|--- .... ....|--- .... ....|D#5 2FE7 ....
....|..|--- .... ....|--- .... ....|C#5 2FEA ....
 C-3|..|--- .... ....|--- .... ....|C-5 2CEF ....
....|..|--- .... ....|--- .... ....|--- .... ....
....|..|--- .... ....|--- .... ....|C#5 2FE7 ....
....|..|--- .... ....|--- .... ....|C-5 2FEA ....
 C#4|..|--- .... ....|--- .... ....|C#5 2CEF ....
....|..|--- .... ....|--- .... ....|--- .... ....
....|..|--- .... ....|--- .... ....|C-5 2FE7 ....
....|..|--- .... ....|--- .... ....|C#5 2FEA ....
 D#4|..|--- .... ....|--- .... ....|D#5 2CEF ....
....|..|--- .... ....|--- .... ....|--- .... ....
....|..|--- .... ....|--- .... ....|C#5 2FE7 ....
....|..|--- .... ....|--- .... ....|D#5 2FEA ....
 C#4|..|--- .... ....|--- .... ....|C#5 2CEF ....
....|..|--- .... ....|--- .... ....|--- .... ....
....|..|--- .... ....|--- .... ....|D#5 2FE7 ....
....|..|--- .... ....|--- .... ....|C#5 2FEA ....
 G#4|..|C-4 AF.F ....|G#3 UF2F ....|G#3 2CFF ....
 G#4|..|G#3 2C.F ....|--- .... ....|--- .... ....
 G#4|..|G#3 2C.F ....|--- .... ....|C#5 2FE7 ....
....|..|G#3 2F.A ....|G#3 UF2A ....|G#3 2FFA ....
 D#4|..|G#3 2F.A ....|D#5 2C.F ....|--- .... ....
....|..|--- .... ....|--- .... ....|--- .... ....
....|..|G#3 2F.7 ....|G#3 UF27 ....|G#3 2FF7 ....
....|..|G#3 2F.7 ....|D#5 2F.A ....|--- .... ....
 C#4|..|C-3 RF.F ....|C#5 2C.F ....|--- .... ....
....|..|--- .... ....|--- .... ....|--- .... ....
....|..|--- .... ....|D#5 2F.7 ....|--- .... ....
....|..|--- .... ....|C#5 2F.A ....|--- .... ....
 C-3|..|--- .... ....|C-5 2C.F ....|--- .... ....
....|..|--- .... ....|--- .... ....|--- .... ....
....|..|--- .... ....|C#5 2F.7 ....|--- .... ....
....|..|--- .... ....|C-5 2F.A ....|--- .... ....
 A-3|..|C-3 RF.F ....|A-4 2C.F ....|--- .... ....
....|..|--- .... ....|--- .... ....|--- .... ....
....|..|--- .... ....|C-5 2F.7 ....|--- .... ....
....|..|--- .... ....|A-4 2F.A ....|--- .... ....
 G#4|..|--- .... ....|G#4 2C.F ....|--- .... ....
....|..|--- .... ....|--- .... ....|--- .... ....
....|..|--- .... ....|A-4 2F.7 ....|--- .... ....
....|..|--- .... ....|G#4 2F.A ....|--- .... ....
 F#3|..|C-3 RF.F ....|F#4 2C.F ....|--- .... ....
....|..|--- .... ....|--- .... ....|--- .... ....
....|..|--- .... ....|G#4 2F.7 ....|--- .... ....
....|..|--- .... ....|F#4 2F.A ....|--- .... ....
 E-4|..|C-3 9F.F ....|E-4 2C.F ....|--- .... ....
....|..|--- .... ....|--- .... ....|--- .... ....
....|..|--- .... ....|F#4 2F.7 ....|--- .... ....
....|..|--- .... ....|E-4 2F.A ....|--- .... ....
 D#4|..|C-4 AF.F ....|D#4 2C.F ....|--- .... ....
....|..|--- .... ....|--- .... ....|--- .... ....
....|..|C-4 9F.F ....|E-4 2F.7 ....|--- .... ....
....|..|--- .... ....|D#4 2F.A ....|--- .... ....
 C#4|..|R-- .... ....|C#4 2C.F ....|--- .... ....
....|..|--- .... ....|--- .... ....|--- .... ....
....|..|C-5 VF.F ....|D#4 2F.7 ....|--- .... ....
....|..|--- .... ....|C#4 2F.A ....|--- .... ....
 C-3|..|C-4 AF.F ....|C-4 2C.F ....|--- .... ....
....|..|--- .... ....|--- .... ....|--- .... ....
....|..|R-- .... ....|C#4 2F.7 ....|--- .... ....
....|..|--- .... ....|C-4 2F.A ....|--- .... ....
 C#4|..|C-4 AF.F ....|C#4 2C.F ....|--- .... ....
....|..|--- .... ....|--- .... ....|--- .... ....
....|..|C-5 VF.F ....|C-4 2F.7 ....|--- .... ....
....|..|--- .... ....|C#4 2F.A ....|--- .... ....
 D#4|..|C-4 AF.F ....|D#4 2C.F ....|--- .... ....
....|..|--- .... ....|--- .... ....|--- .... ....
....|..|C-3 RF.F ....|C#4 2F.7 ....|--- .... ....
....|..|--- .... ....|D#4 2F.A ....|--- .... ....
 C#4|..|C-4 AF.F ....|C#4 2C.F ....|--- .... ....
....|..|--- .... ....|--- .... ....|--- .... ....
....|..|R-- .... ....|D#4 2F.7 ....|--- .... ....
....|..|--- .... ....|C#4 2F.A ....|--- .... ....
 C-3|..|C-4 AF.F ....|C-4 2C.F ....|--- .... ....
....|..|--- .... ....|--- .... ....|--- .... ....
....|..|C-4 9F.F ....|C#4 2F.7 ....|--- .... ....
....|..|--- .... ....|C-4 2F.A ....|--- .... ....
 D#4|..|C-4 9F.F ....|D#4 2C.F ....|--- .... ....
....|..|--- .... ....|--- .... ....|--- .... ....
....|..|C-3 9F.F ....|C-4 2F.7 ....|--- .... ....
....|..|--- .... ....|D#4 2F.A ....|--- .... ....

[Pattern12]
 C#4|..|C-4 AF.F ....|C#4 2C.F ....|C#3 2CFF ....
 C#4|..|C#2 2A.F ....|C#2 UF.F ....|--- .... ....
 C#4|..|C#2 2A.F ....|D#4 2F.7 ....|--- .... ....
....|..|C#2 2F.A ....|C#4 2F.A ....|C#2 2FFA ....
 E-4|..|C#2 2F.F ....|C#2 UF.F ....|E-5 2CEF ....
 C#4|..|C#2 2F.A ....|--- .... ....|C#2 2AFF ....
 C#4|..|C#2 2A.F ....|C#2 UF.F ....|C#2 2AFF ....
....|..|C#2 2F.A ....|C#2 UF.A ....|E-5 2FEA ....
 D#4|..|C-4 CF.F ....|C#2 UF.F ....|D#5 2CEF ....
 C#4|..|C#2 2A.F ....|C#2 UF.A ....|C#2 2FFA ....
....|..|C#2 2F.A ....|C#2 UF.7 ....|E-5 2FE7 ....
....|..|C#2 2F.A ....|C#2 UF.A ....|D#5 2FEA ....
 C#4|..|C#3 2C.F ....|C#2 UF.F ....|C#5 2CEF ....
....|..|C#2 2F.7 ....|--- .... ....|C#2 2FF7 ....
 C#4|..|C#2 2A.F ....|C#2 UF.F ....|C#2 2AFF ....
....|..|C#2 2F.A ....|C#2 UF.A ....|C#5 2FEA ....
 C-3|..|C-4 AF.F ....|C#2 UF.F ....|C-5 2CEF ....
 C#4|..|C#2 2A.F ....|C#2 UF.A ....|C#2 2FFA ....
....|..|C#2 2F.A ....|C#2 UF.7 ....|C#5 2FE7 ....
....|..|C#2 2F.A ....|C#2 UF.A ....|C-5 2FEA ....
 C#4|..|C#3 2C.F ....|C#2 UF.F ....|C#5 2CEF ....
....|..|C#2 2F.7 ....|--- .... ....|C#2 2FF7 ....
 C#4|..|C#2 2A.F ....|C#2 UF.F ....|C#2 2AFF ....
....|..|C#2 2F.A ....|C#2 UF.A ....|C#5 2FEA ....
 D#4|..|C-4 CF.F ....|C#2 UF.F ....|D#5 2CEF ....
 C#4|..|C#2 2A.F ....|C#2 UF.A ....|C#2 2FFA ....
....|..|C#2 2F.A ....|C#2 UF.7 ....|C#5 2FE7 ....
....|..|C#2 2F.A ....|C#2 UF.A ....|D#5 2FEA ....
 C#4|..|C#3 2C.F ....|C#2 UF.F ....|C#5 2CEF ....
....|..|C#2 2F.7 ....|--- .... ....|C#2 2FF7 ....
 C#4|..|C#2 2A.F ....|C#2 UF.F ....|C#2 2AFF ....
....|..|C#2 2F.A ....|C#2 UF.A ....|C#5 2FEA ....
 C#4|..|C-4 AF.F ....|C#2 UF.F ....|C#2 2AFF ....
 C#4|..|C#2 2A.F ....|C#2 UF.A ....|C#2 2FFA ....
....|..|C#2 2F.A ....|C#2 UF.7 ....|C#5 2FE7 ....
....|..|C#2 2F.A ....|C#2 UF.A ....|C#2 2FFA ....
 E-4|..|C#2 2F.F ....|C#2 UF.F ....|E-5 2CEF ....
 C#4|..|C#2 2F.7 ....|--- .... ....|C#2 2AFF ....
 C#4|..|C#2 2A.F ....|C#2 UF.F ....|C#2 2AFF ....
....|..|C#2 2F.A ....|C#2 UF.A ....|E-5 2FEA ....
 D#4|..|C-4 CF.F ....|C#2 UF.F ....|D#5 2CEF ....
 C#4|..|C#2 2A.F ....|C#2 UF.A ....|C#2 2FFA ....
....|..|C#2 2F.A ....|C#2 UF.7 ....|E-5 2FE7 ....
....|..|C#2 2F.A ....|C#2 UF.A ....|D#5 2FEA ....
 C#4|..|C#3 2C.F ....|C#2 UF.F ....|C#5 2CEF ....
....|..|C#2 2F.7 ....|--- .... ....|C#2 2FF7 ....
 C#4|..|C#2 2A.F ....|C#2 UF.F ....|C#2 2AFF ....
....|..|C#2 2F.A ....|C#2 UF.A ....|C#5 2FEA ....
 C-3|..|C-4 AF.F ....|C#2 UF.F ....|C-5 2CEF ....
 C#4|..|C#2 2A.F ....|C#2 UF.A ....|C#2 2FFA ....
....|..|C#2 2F.A ....|C#2 UF.7 ....|C#5 2FE7 ....
....|..|C#2 2F.A ....|C#2 UF.A ....|C-5 2FEA ....
 C#4|..|C#3 2C.F ....|C#2 UF.F ....|C#5 2CEF ....
....|..|C#2 2F.7 ....|--- .... ....|C#2 2FF7 ....
 C#4|..|C#2 2A.F ....|C#2 UF.F ....|C#2 2AFF ....
....|..|C#2 2F.A ....|C#2 UF.A ....|C#5 2FEA ....
 D#4|..|C-4 CF.F ....|C#2 UF.F ....|D#5 2CEF ....
 C#4|..|C#2 2A.F ....|C#2 UF.A ....|C#2 2FFA ....
....|..|C#2 2F.A ....|C#2 UF.7 ....|C#5 2FE7 ....
....|..|C#2 2F.A ....|C#2 UF.A ....|D#5 2FEA ....
 C#4|..|C#3 2C.F ....|C#2 UF.F ....|C#5 2CEF ....
....|..|C#2 2F.7 ....|--- .... ....|C#2 2FF7 ....
 C#4|..|C#2 2A.F ....|C#2 UF.F ....|C#2 2AFF ....
....|..|C#2 2F.A ....|C#2 UF.A ....|C#5 2FEA ....
 C#4|..|C-4 AF.F ....|C#2 UF.F ....|C#2 2AFF ....
 C#4|..|C#2 2A.F ....|C#2 UF.A ....|C#2 2FFA ....
....|..|C#2 2F.A ....|C#2 UF.7 ....|C#5 2FE7 ....
....|..|C#2 2F.A ....|C#2 UF.A ....|C#2 2FFA ....
 E-4|..|C#2 2F.F ....|C#2 UF.F ....|E-5 2CEF ....
 C#4|..|C#2 2F.7 ....|--- .... ....|C#2 2AFF ....
 C#4|..|C#2 2A.F ....|C#2 UF.F ....|C#2 2AFF ....
....|..|C#2 2F.A ....|C#2 UF.A ....|E-5 2FEA ....
 D#4|..|C-4 CF.F ....|C#2 UF.F ....|D#5 2CEF ....
 C#4|..|C#2 2A.F ....|C#2 UF.A ....|C#2 2FFA ....
....|..|C#2 2F.A ....|C#2 UF.7 ....|E-5 2FE7 ....
....|..|C#2 2F.A ....|C#2 UF.A ....|D#5 2FEA ....
 C#4|..|C#3 2C.F ....|C#2 UF.F ....|C#5 2CEF ....
....|..|C#2 2F.7 ....|--- .... ....|C#2 2FF7 ....
 C#4|..|C#2 2A.F ....|C#2 UF.F ....|C#2 2AFF ....
....|..|C#2 2F.A ....|C#2 UF.A ....|C#5 2FEA ....
 G#4|..|C-4 AF.F ....|C#2 UF.F ....|G#5 2CEF ....
 C#4|..|C#2 2A.F ....|C#2 UF.A ....|C#2 2FFA ....
....|..|C#2 2F.A ....|C#2 UF.7 ....|C#5 2FE7 ....
....|..|C#2 2F.A ....|C#2 UF.A ....|G#5 2FEA ....
 E-4|..|C#2 2F.F ....|C#2 UF.F ....|E-5 2CEF ....
....|..|C#2 2F.7 ....|--- .... ....|C#2 2FF7 ....
 C#4|..|C#2 2A.F ....|C#2 UF.F ....|C#2 2AFF ....
....|..|C#2 2F.A ....|C#2 UF.A ....|E-5 2FEA ....
 C#4|..|C-4 CF.F ....|C#2 UF.F ....|C#5 2CEF ....
 C#4|..|C#2 2A.F ....|C#2 UF.A ....|C#2 2FFA ....
....|..|C#2 2F.A ....|C#2 UF.7 ....|E-5 2FE7 ....
....|..|C#2 2F.A ....|C#2 UF.A ....|C#5 2FEA ....
 D#4|..|C#2 2F.F ....|C#2 UF.F ....|D#5 2CEF ....
....|..|C#2 2F.7 ....|--- .... ....|C#2 2FF7 ....
 C#4|..|C#2 2A.F ....|C#2 UF.F ....|C#2 2AFF ....
....|..|C#2 2F.A ....|C#2 UF.A ....|D#5 2FEA ....
 G#4|..|C-4 AF.F ....|G#2 UF.F ....|G#2 2AFF ....
 G#4|..|G#2 2A.F ....|C#2 UF.A ....|C#2 2FFA ....
....|..|C#2 2F.A ....|C#2 UF.7 ....|D#5 2FE7 ....
....|..|G#2 2F.A ....|G#2 UF.A ....|G#2 2FFA ....
 D#4|..|G#2 2F.F ....|D#5 2C.F ....|G#2 2FFF ....
....|..|C#2 2F.7 ....|G#2 UF.F ....|--- .... ....
 G#4|..|G#2 2A.F ....|G#2 UF.F ....|G#2 2AFF ....
....|..|G#2 2F.A ....|D#5 2F.A ....|G#2 2FFA ....
 C#4|..|C-4 CF.F ....|C#5 2C.F ....|G#2 2FFF ....
 G#4|..|G#2 2A.F ....|G#2 UF.A ....|G#2 2FFA ....
....|..|G#2 2F.A ....|D#5 2F.7 ....|G#2 2FF7 ....
....|..|G#2 2F.A ....|C#5 2F.A ....|G#2 2FFA ....
 C-3|..|G#2 2F.F ....|C-5 2C.F ....|G#2 2FFF ....
....|..|G#2 2F.7 ....|G#2 UF.7 ....|--- .... ....
 G#4|..|G#2 2A.F ....|G#2 UF.F ....|G#2 2AFF ....
....|..|G#2 2F.A ....|C-5 2F.A ....|G#2 2FFA ....
 A-3|..|C-4 AF.F ....|A-4 2C.F ....|G#2 2FFF ....
 G#4|..|G#2 2A.F ....|G#2 UF.A ....|G#2 2FFA ....
....|..|G#2 2F.A ....|C-5 2F.7 ....|G#2 2FF7 ....
....|..|G#2 2F.A ....|A-4 2F.A ....|G#2 2FFA ....
 G#4|..|G#3 2C.F ....|G#4 2C.F ....|G#3 2CFF ....
....|..|G#2 2F.7 ....|G#2 UF.7 ....|--- .... ....
 G#4|..|G#2 2A.F ....|G#2 UF.F ....|G#2 2AFF ....
....|..|G#2 2F.A ....|G#4 2F.A ....|G#2 2FFA ....
 E-4|..|C-4 CF.F ....|E-4 2C.F ....|G#2 2FFF ....
 G#4|..|G#2 2A.F ....|G#2 UF.A ....|G#2 2FFA ....
....|..|G#2 2F.A ....|G#4 2F.7 ....|G#2 2FF7 ....
....|..|G#2 2F.A ....|E-4 2F.A ....|G#2 2FFA ....
 D#4|..|G#2 2F.F ....|D#4 2C.F ....|G#2 2FFF ....
....|..|G#2 2F.7 ....|G#2 UF.7 ....|--- .... ....
 G#4|..|G#2 2A.F ....|G#2 UF.F ....|G#2 2AFF ....
....|..|G#2 2F.A ....|D#4 2F.A ....|G#2 2FFA ....

[Pattern13]
 C#4|..|C-4 AF.F ....|C#4 2C.F ....|C#3 2CFF ....
 C#4|..|C#2 2A.F ....|G#2 UF.A ....|G#2 2FFA ....
....|..|G#2 2F.A ....|D#4 2F.7 ....|G#2 2FF7 ....
....|..|C#2 2F.A ....|C#4 2F.A ....|C#2 2FFA ....
 E-4|..|C#2 2F.F ....|C#2 UF.F ....|E-5 2CEF ....
 C#4|..|G#2 2F.7 ....|G#2 UF.7 ....|C#2 2AFF ....
 C#4|..|C#2 2A.F ....|C#2 UF.F ....|C#2 2AFF ....
....|..|C#2 2F.A ....|C#2 UF.A ....|E-5 2FEA ....
 D#4|..|C-4 CF.F ....|C#2 UF.F ....|D#5 2CEF ....
 C#4|..|C#2 2A.F ....|C#2 UF.A ....|C#2 2FFA ....
....|..|C#2 2F.A ....|C#2 UF.7 ....|E-5 2FE7 ....
....|..|C#2 2F.A ....|C#2 UF.A ....|D#5 2FEA ....
 C#4|..|C#3 2C.F ....|C#2 UF.F ....|C#5 2CEF ....
....|..|C#2 2F.7 ....|--- .... ....|C#2 2FF7 ....
 C#4|..|C#2 2A.F ....|C#2 UF.F ....|C#2 2AFF ....
....|..|C#2 2F.A ....|C#2 UF.A ....|C#5 2FEA ....
 C-3|..|C-4 AF.F ....|C#2 UF.F ....|C-5 2CEF ....
 C#4|..|C#2 2A.F ....|C#2 UF.A ....|C#2 2FFA ....
....|..|C#2 2F.A ....|C#2 UF.7 ....|C#5 2FE7 ....
....|..|C#2 2F.A ....|C#2 UF.A ....|C-5 2FEA ....
 C#4|..|C#3 2C.F ....|C#2 UF.F ....|C#5 2CEF ....
....|..|C#2 2F.7 ....|--- .... ....|C#2 2FF7 ....
 C#4|..|C#2 2A.F ....|C#2 UF.F ....|C#2 2AFF ....
....|..|C#2 2F.A ....|C#2 UF.A ....|C#5 2FEA ....
 D#4|..|C-4 CF.F ....|C#2 UF.F ....|D#5 2CEF ....
 C#4|..|C#2 2A.F ....|C#2 UF.A ....|C#2 2FFA ....
....|..|C#2 2F.A ....|C#2 UF.7 ....|C#5 2FE7 ....
....|..|C#2 2F.A ....|C#2 UF.A ....|D#5 2FEA ....
 C#4|..|C#3 2C.F ....|C#2 UF.F ....|C#5 2CEF ....
....|..|C#2 2F.7 ....|--- .... ....|C#2 2FF7 ....
 C#4|..|C#2 2A.F ....|C#2 UF.F ....|C#2 2AFF ....
....|..|C#2 2F.A ....|C#2 UF.A ....|C#5 2FEA ....
 C#4|..|C-4 AF.F ....|C#2 UF.F ....|C#2 2AFF ....
 C#4|..|C#2 2A.F ....|C#2 UF.A ....|C#2 2FFA ....
....|..|C#2 2F.A ....|C#2 UF.7 ....|C#5 2FE7 ....
....|..|C#2 2F.A ....|C#2 UF.A ....|C#2 2FFA ....
 E-4|..|C#2 2F.F ....|C#2 UF.F ....|E-5 2CEF ....
 C#4|..|C#2 2F.7 ....|--- .... ....|C#2 2AFF ....
 C#4|..|C#2 2A.F ....|C#2 UF.F ....|C#2 2AFF ....
....|..|C#2 2F.A ....|C#2 UF.A ....|E-5 2FEA ....
 D#4|..|C-4 CF.F ....|C#2 UF.F ....|D#5 2CEF ....
 C#4|..|C#2 2A.F ....|C#2 UF.A ....|C#2 2FFA ....
....|..|C#2 2F.A ....|C#2 UF.7 ....|E-5 2FE7 ....
....|..|C#2 2F.A ....|C#2 UF.A ....|D#5 2FEA ....
 C#4|..|C#3 2C.F ....|C#2 UF.F ....|C#5 2CEF ....
....|..|C#2 2F.7 ....|--- .... ....|C#2 2FF7 ....
 C#4|..|C#2 2A.F ....|C#2 UF.F ....|C#2 2AFF ....
....|..|C#2 2F.A ....|C#2 UF.A ....|C#5 2FEA ....
 C-3|..|C-4 AF.F ....|C#2 UF.F ....|C-5 2CEF ....
 C#4|..|C#2 2A.F ....|C#2 UF.A ....|C#2 2FFA ....
....|..|C#2 2F.A ....|C#2 UF.7 ....|C#5 2FE7 ....
....|..|C#2 2F.A ....|C#2 UF.A ....|C-5 2FEA ....
 C#4|..|C#3 2C.F ....|C#2 UF.F ....|C#5 2CEF ....
....|..|C#2 2F.7 ....|--- .... ....|C#2 2FF7 ....
 C#4|..|C#2 2A.F ....|C#2 UF.F ....|C#2 2AFF ....
....|..|C#2 2F.A ....|C#2 UF.A ....|C#5 2FEA ....
 D#4|..|C-4 CF.F ....|C#2 UF.F ....|D#5 2CEF ....
 C#4|..|C#2 2A.F ....|C#2 UF.A ....|C#2 2FFA ....
....|..|C#2 2F.A ....|C#2 UF.7 ....|C#5 2FE7 ....
....|..|C#2 2F.A ....|C#2 UF.A ....|D#5 2FEA ....
 C#4|..|C#3 2C.F ....|C#2 UF.F ....|C#5 2CEF ....
....|..|C#2 2F.7 ....|--- .... ....|C#2 2FF7 ....
 C#4|..|C#2 2A.F ....|C#2 UF.F ....|C#2 2AFF ....
....|..|C#2 2F.A ....|C#2 UF.A ....|C#5 2FEA ....
 C#4|..|C-4 AF.F ....|C#2 UF.F ....|C#2 2AFF ....
 C#4|..|C#2 2A.F ....|C#2 UF.A ....|C#2 2FFA ....
....|..|C#2 2F.A ....|C#2 UF.7 ....|C#5 2FE7 ....
....|..|C#2 2F.A ....|C#2 UF.A ....|C#2 2FFA ....
 E-4|..|C#2 2F.F ....|C#2 UF.F ....|E-5 2CEF ....
 C#4|..|C#2 2F.7 ....|--- .... ....|C#2 2AFF ....
 C#4|..|C#2 2A.F ....|C#2 UF.F ....|C#2 2AFF ....
....|..|C#2 2F.A ....|C#2 UF.A ....|E-5 2FEA ....
 D#4|..|C-4 CF.F ....|C#2 UF.F ....|D#5 2CEF ....
 C#4|..|C#2 2A.F ....|C#2 UF.A ....|C#2 2FFA ....
....|..|C#2 2F.A ....|C#2 UF.7 ....|E-5 2FE7 ....
....|..|C#2 2F.A ....|C#2 UF.A ....|D#5 2FEA ....
 C#4|..|C#3 2C.F ....|C#2 UF.F ....|C#5 2CEF ....
....|..|C#2 2F.7 ....|--- .... ....|C#2 2FF7 ....
 C#4|..|C#2 2A.F ....|C#2 UF.F ....|C#2 2AFF ....
....|..|C#2 2F.A ....|C#2 UF.A ....|C#5 2FEA ....
 G#4|..|C-4 AF.F ....|C#2 UF.F ....|G#5 2CEF ....
 C#4|..|C#2 2A.F ....|C#2 UF.A ....|C#2 2FFA ....
....|..|C#2 2F.A ....|C#2 UF.7 ....|C#5 2FE7 ....
....|..|C#2 2F.A ....|C#2 UF.A ....|G#5 2FEA ....
 E-4|..|C#2 2F.F ....|C#2 UF.F ....|E-5 2CEF ....
....|..|C#2 2F.7 ....|--- .... ....|C#2 2FF7 ....
 C#4|..|C#2 2A.F ....|C#2 UF.F ....|C#2 2AFF ....
....|..|C#2 2F.A ....|C#2 UF.A ....|E-5 2FEA ....
 C#4|..|C-4 CF.F ....|C#2 UF.F ....|C#5 2CEF ....
 C#4|..|C#2 2A.F ....|C#2 UF.A ....|C#2 2FFA ....
....|..|C#2 2F.A ....|C#2 UF.7 ....|E-5 2FE7 ....
....|..|C#2 2F.A ....|C#2 UF.A ....|C#5 2FEA ....
 D#4|..|C#2 2F.F ....|C#2 UF.F ....|D#5 2CEF ....
....|..|C#2 2F.7 ....|--- .... ....|C#2 2FF7 ....
 C#4|..|C#2 2A.F ....|C#2 UF.F ....|C#2 2AFF ....
....|..|C#2 2F.A ....|C#2 UF.A ....|D#5 2FEA ....
 G#4|..|C-4 AF.F ....|G#2 UF.F ....|G#2 2AFF ....
 G#4|..|G#2 2A.F ....|C#2 UF.A ....|C#2 2FFA ....
....|..|C#2 2F.A ....|C#2 UF.7 ....|D#5 2FE7 ....
....|..|G#2 2F.A ....|G#2 UF.A ....|G#2 2FFA ....
 D#4|..|G#2 2F.F ....|D#5 2C.F ....|G#2 2FFF ....
....|..|C#2 2F.7 ....|G#2 UF.F ....|--- .... ....
 G#4|..|G#2 2A.F ....|G#2 UF.F ....|G#2 2AFF ....
....|..|G#2 2F.A ....|D#5 2F.A ....|G#2 2FFA ....
 C#4|..|C-4 CF.F ....|C#5 2C.F ....|G#2 2FFF ....
 G#4|..|G#2 2A.F ....|G#2 UF.A ....|G#2 2FFA ....
....|..|G#2 2F.A ....|D#5 2F.7 ....|G#2 2FF7 ....
....|..|G#2 2F.A ....|C#5 2F.A ....|G#2 2FFA ....
 C-3|..|G#2 2F.F ....|C-5 2C.F ....|G#2 2FFF ....
....|..|G#2 2F.7 ....|G#2 UF.7 ....|--- .... ....
 G#4|..|G#2 2A.F ....|G#2 UF.F ....|G#2 2AFF ....
....|..|G#2 2F.A ....|C-5 2F.A ....|G#2 2FFA ....
 A-3|..|C-4 AF.F ....|A-4 2C.F ....|G#2 2FFF ....
 G#4|..|G#2 2A.F ....|G#2 UF.A ....|G#2 2FFA ....
....|..|G#2 2F.A ....|C-5 2F.7 ....|G#2 2FF7 ....
....|..|G#2 2F.A ....|A-4 2F.A ....|G#2 2FFA ....
 G#4|..|G#3 2C.F ....|G#4 2C.F ....|G#3 2CFF ....
....|..|G#2 2F.7 ....|G#2 UF.7 ....|--- .... ....
 G#4|..|G#2 2A.F ....|G#2 UF.F ....|G#2 2AFF ....
....|..|G#2 2F.A ....|G#4 2F.A ....|G#2 2FFA ....
 E-4|..|C-4 CF.F ....|E-4 2C.F ....|G#2 2FFF ....
 G#4|..|G#2 2A.F ....|G#2 UF.A ....|G#2 2FFA ....
....|..|G#2 2F.A ....|G#4 2F.7 ....|G#2 2FF7 ....
....|..|G#2 2F.A ....|E-4 2F.A ....|G#2 2FFA ....
 D#4|..|G#2 2F.F ....|D#4 2C.F ....|G#2 2FFF ....
....|..|G#2 2F.7 ....|G#2 UF.7 ....|--- .... ....
 G#4|..|G#2 2A.F ....|G#2 UF.F ....|G#2 2AFF ....
....|..|G#2 2F.A ....|D#4 2F.A ....|G#2 2FFA ....

[Pattern15]
 C#4|..|C-4 AF.F ....|C#4 2C.F ....|C#3 2CFF ....
 C#4|..|C#2 2A.F ....|G#2 UF.A ....|G#2 2FFA ....
....|..|G#2 2F.A ....|D#4 2F.7 ....|G#2 2FF7 ....
....|..|C#2 2F.A ....|C#4 2F.A ....|C#2 2FFA ....
 E-4|..|C#2 2F.F ....|C#2 UF.F ....|E-5 2CEF ....
 C#4|..|G#2 2F.7 ....|G#2 UF.7 ....|C#2 2AFF ....
 C#4|..|C#2 2A.F ....|C#2 UF.F ....|C#2 2AFF ....
....|..|C#2 2F.A ....|C#2 UF.A ....|E-5 2FEA ....
 D#4|..|C-4 CF.F ....|C#2 UF.F ....|D#5 2CEF ....
 C#4|..|C#2 2A.F ....|C#2 UF.A ....|C#2 2FFA ....
....|..|C#2 2F.A ....|C#2 UF.7 ....|E-5 2FE7 ....
....|..|C#2 2F.A ....|C#2 UF.A ....|D#5 2FEA ....
 C#4|..|C#3 2C.F ....|C#2 UF.F ....|C#5 2CEF ....
....|..|C#2 2F.7 ....|--- .... ....|C#2 2FF7 ....
 C#4|..|C#2 2A.F ....|C#2 UF.F ....|C#2 2AFF ....
....|..|C#2 2F.A ....|C#2 UF.A ....|C#5 2FEA ....
 C-3|..|C-4 AF.F ....|C#2 UF.F ....|C-5 2CEF ....
 C#4|..|C#2 2A.F ....|C#2 UF.A ....|C#2 2FFA ....
....|..|C#2 2F.A ....|C#2 UF.7 ....|C#5 2FE7 ....
....|..|C#2 2F.A ....|C#2 UF.A ....|C-5 2FEA ....
 C#4|..|C#3 2C.F ....|C#2 UF.F ....|C#5 2CEF ....
....|..|C#2 2F.7 ....|--- .... ....|C#2 2FF7 ....
 C#4|..|C#2 2A.F ....|C#2 UF.F ....|C#2 2AFF ....
....|..|C#2 2F.A ....|C#2 UF.A ....|C#5 2FEA ....
 D#4|..|C-4 CF.F ....|C#2 UF.F ....|D#5 2CEF ....
 C#4|..|C#2 2A.F ....|C#2 UF.A ....|C#2 2FFA ....
....|..|C#2 2F.A ....|C#2 UF.7 ....|C#5 2FE7 ....
....|..|C#2 2F.A ....|C#2 UF.A ....|D#5 2FEA ....
 C#4|..|C#3 2C.F ....|C#2 UF.F ....|C#5 2CEF ....
....|..|C#2 2F.7 ....|--- .... ....|C#2 2FF7 ....
 C#4|..|C#2 2A.F ....|C#2 UF.F ....|C#2 2AFF ....
....|..|C#2 2F.A ....|C#2 UF.A ....|C#5 2FEA ....
 C#4|..|C-4 AF.F ....|C#2 UF.F ....|C#2 2AFF ....
 C#4|..|C#2 2A.F ....|C#2 UF.A ....|C#2 2FFA ....
....|..|C#2 2F.A ....|C#2 UF.7 ....|C#5 2FE7 ....
....|..|C#2 2F.A ....|C#2 UF.A ....|C#2 2FFA ....
 E-4|..|C#2 2F.F ....|C#2 UF.F ....|E-5 2CEF ....
 C#4|..|C#2 2F.7 ....|--- .... ....|C#2 2AFF ....
 C#4|..|C#2 2A.F ....|C#2 UF.F ....|C#2 2AFF ....
....|..|C#2 2F.A ....|C#2 UF.A ....|E-5 2FEA ....
 D#4|..|C-4 CF.F ....|C#2 UF.F ....|D#5 2CEF ....
 C#4|..|C#2 2A.F ....|C#2 UF.A ....|C#2 2FFA ....
....|..|C#2 2F.A ....|C#2 UF.7 ....|E-5 2FE7 ....
....|..|C#2 2F.A ....|C#2 UF.A ....|D#5 2FEA ....
 C#4|..|C#3 2C.F ....|C#2 UF.F ....|C#5 2CEF ....
....|..|C#2 2F.7 ....|--- .... ....|C#2 2FF7 ....
 C#4|..|C#2 2A.F ....|C#2 UF.F ....|C#2 2AFF ....
....|..|C#2 2F.A ....|C#2 UF.A ....|C#5 2FEA ....
 C-3|..|C-4 AF.F ....|C#2 UF.F ....|C-5 2CEF ....
 C#4|..|C#2 2A.F ....|C#2 UF.A ....|C#2 2FFA ....
....|..|C#2 2F.A ....|C#2 UF.7 ....|C#5 2FE7 ....
....|..|C#2 2F.A ....|C#2 UF.A ....|C-5 2FEA ....
 C#4|..|C#3 2C.F ....|C#2 UF.F ....|C#5 2CEF ....
....|..|C#2 2F.7 ....|--- .... ....|C#2 2FF7 ....
 C#4|..|C#2 2A.F ....|C#2 UF.F ....|C#2 2AFF ....
....|..|C#2 2F.A ....|C#2 UF.A ....|C#5 2FEA ....
 D#4|..|C-4 CF.F ....|C#2 UF.F ....|D#5 2CEF ....
 C#4|..|C#2 2A.F ....|C#2 UF.A ....|C#2 2FFA ....
....|..|C#2 2F.A ....|C#2 UF.7 ....|C#5 2FE7 ....
....|..|C#2 2F.A ....|C#2 UF.A ....|D#5 2FEA ....
 C#4|..|C#3 2C.F ....|C#2 UF.F ....|C#5 2CEF ....
....|..|C#2 2F.7 ....|--- .... ....|C#2 2FF7 ....
 C#4|..|C#2 2A.F ....|C#2 UF.F ....|C#2 2AFF ....
....|..|C#2 2F.A ....|C#2 UF.A ....|C#5 2FEA ....
 C#4|..|C-4 AF.F ....|C#2 UF.F ....|C#2 2AFF ....
 C#4|..|C#2 2A.F ....|C#2 UF.A ....|C#2 2FFA ....
....|..|C#2 2F.A ....|C#2 UF.7 ....|C#5 2FE7 ....
....|..|C#2 2F.A ....|C#2 UF.A ....|C#2 2FFA ....
 E-4|..|C#2 2F.F ....|C#2 UF.F ....|E-5 2CEF ....
 C#4|..|C#2 2F.7 ....|--- .... ....|C#2 2AFF ....
 C#4|..|C#2 2A.F ....|C#2 UF.F ....|C#2 2AFF ....
....|..|C#2 2F.A ....|C#2 UF.A ....|E-5 2FEA ....
 D#4|..|C-4 CF.F ....|C#2 UF.F ....|D#5 2CEF ....
 C#4|..|C#2 2A.F ....|C#2 UF.A ....|C#2 2FFA ....
....|..|C#2 2F.A ....|C#2 UF.7 ....|E-5 2FE7 ....
....|..|C#2 2F.A ....|C#2 UF.A ....|D#5 2FEA ....
 C#4|..|C#3 2C.F ....|C#2 UF.F ....|C#5 2CEF ....
....|..|C#2 2F.7 ....|--- .... ....|C#2 2FF7 ....
 C#4|..|C#2 2A.F ....|C#2 UF.F ....|C#2 2AFF ....
....|..|C#2 2F.A ....|C#2 UF.A ....|C#5 2FEA ....
 G#4|..|C-4 AF.F ....|C#2 UF.F ....|G#5 2CEF ....
 C#4|..|C#2 2A.F ....|C#2 UF.A ....|C#2 2FFA ....
....|..|C#2 2F.A ....|C#2 UF.7 ....|C#5 2FE7 ....
....|..|C#2 2F.A ....|C#2 UF.A ....|G#5 2FEA ....
 E-4|..|C#2 2F.F ....|C#2 UF.F ....|E-5 2CEF ....
....|..|C#2 2F.7 ....|--- .... ....|C#2 2FF7 ....
 C#4|..|C#2 2A.F ....|C#2 UF.F ....|C#2 2AFF ....
....|..|C#2 2F.A ....|C#2 UF.A ....|E-5 2FEA ....
 C#4|..|C-4 CF.F ....|C#2 UF.F ....|C#5 2CEF ....
 C#4|..|C#2 2A.F ....|C#2 UF.A ....|C#2 2FFA ....
....|..|C#2 2F.A ....|C#2 UF.7 ....|E-5 2FE7 ....
....|..|C#2 2F.A ....|C#2 UF.A ....|C#5 2FEA ....
 D#4|..|C#2 2F.F ....|C#2 UF.F ....|D#5 2CEF ....
....|..|C#2 2F.7 ....|--- .... ....|C#2 2FF7 ....
 C#4|..|C#2 2A.F ....|C#2 UF.F ....|C#2 2AFF ....
....|..|C#2 2F.A ....|C#2 UF.A ....|D#5 2FEA ....
 G#4|..|C-4 AF.F ....|G#2 UF.F ....|G#2 2AFF ....
 G#4|..|G#2 2A.F ....|C#2 UF.A ....|C#2 2FFA ....
....|..|C#2 2F.A ....|C#2 UF.7 ....|D#5 2FE7 ....
....|..|G#2 2F.A ....|G#2 UF.A ....|G#2 2FFA ....
 D#4|..|G#2 2F.F ....|D#5 2C.F ....|G#2 2FFF ....
....|..|C#2 2F.7 ....|G#2 UF.F ....|--- .... ....
 G#4|..|G#2 2A.F ....|G#2 UF.F ....|G#2 2AFF ....
....|..|G#2 2F.A ....|D#5 2F.A ....|G#2 2FFA ....
 C#4|..|C-4 CF.F ....|C#5 2C.F ....|G#2 2FFF ....
 G#4|..|G#2 2A.F ....|G#2 UF.A ....|G#2 2FFA ....
....|..|G#2 2F.A ....|D#5 2F.7 ....|G#2 2FF7 ....
....|..|G#2 2F.A ....|C#5 2F.A ....|G#2 2FFA ....
 C-3|..|G#2 2F.F ....|C-5 2C.F ....|G#2 2FFF ....
....|..|G#2 2F.7 ....|G#2 UF.7 ....|--- .... ....
 G#4|..|G#2 2A.F ....|G#2 UF.F ....|G#2 2AFF ....
....|..|G#2 2F.A ....|C-5 2F.A ....|G#2 2FFA ....
 A-3|..|C-4 AF.F ....|A-4 2C.F ....|G#2 2FFF ....
 G#4|..|G#2 2A.F ....|G#2 UF.A ....|G#2 2FFA ....
....|..|G#2 2F.A ....|C-5 2F.7 ....|G#2 2FF7 ....
....|..|G#2 2F.A ....|A-4 2F.A ....|G#2 2FFA ....
 G#4|..|G#3 2C.F ....|G#4 2C.F ....|G#3 2CFF ....
....|..|G#2 2F.7 ....|G#2 UF.7 ....|--- .... ....
 G#4|..|G#2 2A.F ....|G#2 UF.F ....|G#2 2AFF ....
....|..|G#2 2F.A ....|G#4 2F.A ....|G#2 2FFA ....
 E-4|..|C-4 CF.F ....|E-4 2C.F ....|G#3 2FEF ....
 G#4|..|G#2 2A.F ....|G#2 UF.A ....|G#2 2AFF ....
....|..|G#2 2F.A ....|G#4 2F.7 ....|G#2 2FFA ....
....|..|G#2 2F.A ....|E-4 2F.A ....|G#3 2FEA ....
 D#4|..|G#2 2F.F ....|D#4 2C.F ....|G#2 2FFF ....
....|..|G#2 2F.7 ....|G#2 UF.7 ....|G#2 2FFA ....
 G#4|..|G#2 2A.F ....|G#2 UF.F ....|G#2 2AFF ....
....|..|G#2 2F.A ....|D#4 2F.A ....|G#2 2FFA ....

[Pattern16]
 C#4|..|C-4 AF.F ....|C#4 2C.F ....|G#3 2FEF ....
 C#4|..|C#3 2C.F ....|G#2 UF.A ....|C#3 2CFF ....
....|..|G#2 2F.A ....|D#4 2F.7 ....|G#2 2FFA ....
....|..|C#3 2F.A ....|C#4 2F.A ....|G#3 2FEA ....
....|..|G#2 2F.7 ....|G#2 UF.A ....|G#2 2FF7 ....
....|..|G#2 2F.7 ....|G#2 UF.7 ....|C#3 2FFA ....
....|..|C#3 2F.7 ....|C#4 2F.7 ....|G#3 2FE7 ....
....|..|G#2 2F.7 ....|G#2 UF.7 ....|G#2 2FF7 ....
....|..|C#3 2F.7 ....|C#3 UF27 ....|C#3 2FF7 ....
....|..|--- .... ....|--- .... ....|--- .... ....
....|..|--- .... ....|R-- .... ....|--- .... ....
....|..|--- .... ....|--- .... ....|--- .... ....
....|..|--- .... ....|--- .... ....|--- .... ....
....|..|--- .... ....|--- .... ....|--- .... ....
....|..|--- .... ....|--- .... ....|--- .... ....
....|..|--- .... ....|--- .... ....|--- .... ....
....|..|C-4 AF.F ....|--- .... ....|--- .... ....
....|..|--- .... ....|--- .... ....|--- .... ....
....|..|--- .... ....|--- .... ....|--- .... ....
....|..|--- .... ....|--- .... ....|--- .... ....
....|..|--- .... ....|--- .... ....|--- .... ....
....|..|--- .... ....|--- .... ....|--- .... ....
....|..|--- .... ....|--- .... ....|--- .... ....
....|..|--- .... ....|--- .... ....|--- .... ....
 G#4|..|--- .... ....|--- .... ....|G#3 2CEF ....
....|..|--- .... ....|--- .... ....|--- .... ....
....|..|--- .... ....|--- .... ....|--- .... ....
....|..|--- .... ....|--- .... ....|G#3 2FEA ....
....|..|--- .... ....|--- .... ....|--- .... ....
....|..|--- .... ....|--- .... ....|--- .... ....
....|..|--- .... ....|--- .... ....|G#3 2FE7 ....
....|..|--- .... ....|--- .... ....|--- .... ....
 G-4|..|C-4 AF.F ....|G-3 UF3F ....|G-3 2CEF ....
 C#4|..|C#3 2C.F ....|--- .... ....|C#3 2CFF ....
 C#4|..|C#3 2C.F ....|--- .... ....|--- .... ....
....|..|C#3 2F.A ....|G-3 UF3A ....|G-3 2FEA ....
....|..|C#3 2F.A ....|--- .... ....|C#3 2FFA ....
....|..|--- .... ....|--- .... ....|--- .... ....
....|..|C#3 2F.7 ....|G-3 UF37 ....|G-3 2FE7 ....
....|..|C#3 2F.7 ....|--- .... ....|C#3 2FF7 ....
....|..|C-4 AF.F ....|--- .... ....|--- .... ....
....|..|--- .... ....|--- .... ....|--- .... ....
....|..|--- .... ....|--- .... ....|--- .... ....
....|..|--- .... ....|--- .... ....|--- .... ....
....|..|--- .... ....|--- .... ....|--- .... ....
....|..|--- .... ....|--- .... ....|--- .... ....
....|..|--- .... ....|--- .... ....|--- .... ....
....|..|--- .... ....|--- .... ....|--- .... ....
....|..|--- .... ....|--- .... ....|--- .... ....
....|..|--- .... ....|--- .... ....|--- .... ....
....|..|--- .... ....|--- .... ....|--- .... ....
....|..|--- .... ....|--- .... ....|--- .... ....
....|..|C-4 CF.F ....|--- .... ....|--- .... ....
....|..|--- .... ....|--- .... ....|--- .... ....
....|..|--- .... ....|--- .... ....|--- .... ....
....|..|--- .... ....|--- .... ....|--- .... ....
 G#4|..|C-4 AF.F ....|--- .... ....|G#3 2CEF ....
....|..|--- .... ....|--- .... ....|--- .... ....
....|..|--- .... ....|--- .... ....|--- .... ....
....|..|--- .... ....|--- .... ....|G#3 2FEA ....
....|..|C-4 CF.F ....|--- .... ....|--- .... ....
....|..|--- .... ....|--- .... ....|--- .... ....
....|..|--- .... ....|--- .... ....|G#3 2FE7 ....
....|..|--- .... ....|--- .... ....|--- .... ....
 A-3|..|C-4 AF.F ....|G#3 UF1F ....|A-3 2CEF ....
 D#4|..|D#3 2C.F ....|--- .... ....|D#3 2CFF ....
 D#4|..|D#3 2C.F ....|--- .... ....|--- .... ....
....|..|D#3 2F.A ....|G#3 UF1A ....|A-3 2FEA ....
....|..|D#3 2F.A ....|--- .... ....|D#3 2FFA ....
....|..|--- .... ....|--- .... ....|--- .... ....
....|..|D#3 2F.7 ....|G#3 UF17 ....|A-3 2FE7 ....
....|..|D#3 2F.7 ....|--- .... ....|D#3 2FF7 ....
 D#4|..|C-4 CF.F ....|G#3 UF1F ....|D#3 2CFF ....
 D#4|..|D#3 2C.F ....|--- .... ....|--- .... ....
 D#4|..|D#3 2C.F ....|--- .... ....|--- .... ....
....|..|D#3 2F.A ....|G#3 UF1A ....|D#3 2FFA ....
 D#4|..|C-4 AF.F ....|G#3 UF1F ....|D#3 2CFF ....
 D#4|..|D#3 2C.F ....|--- .... ....|--- .... ....
....|..|D#3 2F.7 ....|G#3 UF17 ....|D#3 2FF7 ....
....|..|D#3 2F.A ....|G#3 UF1A ....|D#3 2FFA ....
 G#4|..|C-4 AF.F ....|G#3 UF1F ....|G#3 2CEF ....
 D#4|..|D#3 2C.F ....|--- .... ....|D#3 2CFF ....
....|..|D#3 2F.7 ....|G#3 UF17 ....|D#3 2FF7 ....
....|..|D#3 2F.A ....|G#3 UF1A ....|G#3 2FEA ....
 D#4|..|C-4 AF.F ....|G#3 UF1F ....|D#3 2CFF ....
 D#4|..|D#3 2C.F ....|--- .... ....|--- .... ....
....|..|D#3 2F.7 ....|G#3 UF17 ....|G#3 2FE7 ....
....|..|D#3 2F.A ....|G#3 UF1A ....|D#3 2FFA ....
 E-4|..|C-4 CF.F ....|A-3 UF1F ....|E-3 2CFF ....
 E-4|..|E-3 2C.F ....|--- .... ....|--- .... ....
....|..|D#3 2F.7 ....|G#3 UF17 ....|D#3 2FF7 ....
....|..|E-3 2F.A ....|A-3 UF1A ....|E-3 2FFA ....
 D#4|..|C-4 LF.F ....|G#3 UF1F ....|D#3 2CFF ....
 D#4|..|D#3 2C.F ....|--- .... ....|--- .... ....
....|..|E-3 2F.7 ....|A-3 UF17 ....|E-3 2FF7 ....
....|..|D#3 2F.A ....|G#3 UF1A ....|D#3 2FFA ....
....|..|C-4 AF.F ....|--- .... ....|--- .... ....
....|..|E-3 2F.7 ....|--- .... ....|--- .... ....
....|..|D#3 2F.7 ....|G#3 UF17 ....|D#3 2FF7 ....
....|..|D#3 2F.7 ....|--- .... ....|--- .... ....
 D#4|..|D#3 2C.F ....|G#3 UF1F ....|D#3 2CFF ....
 D#4|..|D#3 2C.F ....|--- .... ....|--- .... ....
....|..|--- .... ....|--- .... ....|--- .... ....
....|..|D#3 2F.A ....|G#3 UF1A ....|D#3 2FFA ....
 D#4|..|C-4 CF.F ....|G#3 UF1F ....|D#3 2CFF ....
 D#4|..|D#3 2C.F ....|--- .... ....|--- .... ....
....|..|D#3 2F.7 ....|G#3 UF17 ....|D#3 2FF7 ....
....|..|D#3 2F.A ....|G#3 UF1A ....|D#3 2FFA ....
 D#4|..|D#3 2C.F ....|G#3 UF1F ....|D#3 2CFF ....
....|..|D#3 2F.7 ....|--- .... ....|--- .... ....
....|..|D#3 2F.7 ....|G#3 UF17 ....|D#3 2FF7 ....
....|..|D#3 2F.A ....|G#3 UF1A ....|D#3 2FFA ....
 G-4|..|C-4 AF.F ....|C-4 UF1F ....|G-3 2CFF ....
 G-4|..|G-3 2C.F ....|--- .... ....|--- .... ....
....|..|D#3 2F.7 ....|G#3 UF17 ....|D#3 2FF7 ....
....|..|G-3 2F.A ....|C-4 UF1A ....|G-3 2FFA ....
 G-4|..|C-4 AF.F ....|C-4 UF1F ....|G-3 2CFF ....
 G-4|..|G-3 2C.F ....|--- .... ....|--- .... ....
....|..|G-3 2F.7 ....|C-4 UF17 ....|G-3 2FF7 ....
....|..|G-3 2F.A ....|C-4 UF1A ....|G-3 2FFA ....
 G-4|..|C-4 AF.F ....|C-4 UF1F ....|G-3 2CFF ....
 G-4|..|G-3 2C.F ....|--- .... ....|--- .... ....
....|..|G-3 2F.7 ....|C-4 UF17 ....|G-3 2FF7 ....
....|..|G-3 2F.A ....|C-4 UF1A ....|G-3 2FFA ....
 G-4|..|C-4 LF.F ....|C-4 UF1F ....|G-3 2CFF ....
 G-4|..|G-3 2C.F ....|--- .... ....|--- .... ....
....|..|G-3 2F.7 ....|C-4 UF17 ....|G-3 2FF7 ....
....|..|G-3 2F.A ....|C-4 UF1A ....|G-3 2FFA ....

[Pattern17]
 A-3|..|C-4 AF.F ....|G#3 UF1F ....|A-3 2CEF ....
 D#4|..|D#3 2C.F ....|--- .... ....|D#3 2CFF ....
....|..|G-3 2F.7 ....|C-4 UF17 ....|G-3 2FF7 ....
....|..|D#3 2F.A ....|G#3 UF1A ....|A-3 2FEA ....
....|..|G-3 2F.7 ....|--- .... ....|D#3 2FFA ....
....|..|D#3 2F.A ....|--- .... ....|--- .... ....
....|..|D#3 2F.7 ....|G#3 UF17 ....|A-3 2FE7 ....
....|..|D#3 2F.7 ....|--- .... ....|D#3 2FF7 ....
 D#4|..|C-4 CF.F ....|G#3 UF1F ....|D#3 2CFF ....
 D#4|..|D#3 2C.F ....|--- .... ....|--- .... ....
 D#4|..|D#3 2C.F ....|--- .... ....|--- .... ....
....|..|D#3 2F.A ....|G#3 UF1A ....|D#3 2FFA ....
 D#4|..|C-4 AF.F ....|G#3 UF1F ....|D#3 2CFF ....
 D#4|..|D#3 2C.F ....|--- .... ....|--- .... ....
....|..|D#3 2F.7 ....|G#3 UF17 ....|D#3 2FF7 ....
....|..|D#3 2F.A ....|G#3 UF1A ....|D#3 2FFA ....
 G#4|..|C-4 AF.F ....|G#3 UF1F ....|G#3 2CEF ....
 D#4|..|D#3 2C.F ....|--- .... ....|D#3 2CFF ....
....|..|D#3 2F.7 ....|G#3 UF17 ....|D#3 2FF7 ....
....|..|D#3 2F.A ....|G#3 UF1A ....|G#3 2FEA ....
 D#4|..|C-4 AF.F ....|G#3 UF1F ....|D#3 2CFF ....
 D#4|..|D#3 2C.F ....|--- .... ....|--- .... ....
....|..|D#3 2F.7 ....|G#3 UF17 ....|G#3 2FE7 ....
....|..|D#3 2F.A ....|G#3 UF1A ....|D#3 2FFA ....
 E-4|..|C-4 CF.F ....|A-3 UF1F ....|E-3 2CFF ....
 E-4|..|E-3 2C.F ....|--- .... ....|--- .... ....
....|..|D#3 2F.7 ....|G#3 UF17 ....|D#3 2FF7 ....
....|..|E-3 2F.A ....|A-3 UF1A ....|E-3 2FFA ....
 D#4|..|C-4 LF.F ....|G#3 UF1F ....|D#3 2CFF ....
 D#4|..|D#3 2C.F ....|--- .... ....|--- .... ....
....|..|E-3 2F.7 ....|A-3 UF17 ....|E-3 2FF7 ....
....|..|D#3 2F.A ....|G#3 UF1A ....|D#3 2FFA ....
....|..|C-4 AF.F ....|--- .... ....|--- .... ....
....|..|E-3 2F.7 ....|--- .... ....|--- .... ....
....|..|D#3 2F.7 ....|G#3 UF17 ....|D#3 2FF7 ....
....|..|D#3 2F.7 ....|--- .... ....|--- .... ....
 D#4|..|D#3 2C.F ....|G#3 UF1F ....|D#3 2CFF ....
 D#4|..|D#3 2C.F ....|--- .... ....|--- .... ....
....|..|--- .... ....|--- .... ....|--- .... ....
....|..|D#3 2F.A ....|G#3 UF1A ....|D#3 2FFA ....
 D#4|..|C-4 CF.F ....|G#3 UF1F ....|D#3 2CFF ....
 D#4|..|D#3 2C.F ....|--- .... ....|--- .... ....
....|..|D#3 2F.7 ....|G#3 UF17 ....|D#3 2FF7 ....
....|..|D#3 2F.A ....|G#3 UF1A ....|D#3 2FFA ....
 D#4|..|D#3 2C.F ....|G#3 UF1F ....|D#3 2CFF ....
....|..|D#3 2F.7 ....|--- .... ....|--- .... ....
....|..|D#3 2F.7 ....|G#3 UF17 ....|D#3 2FF7 ....
....|..|D#3 2F.A ....|G#3 UF1A ....|D#3 2FFA ....
 G-4|..|C-4 AF.F ....|C-4 UF1F ....|G-3 2CFF ....
 G-4|..|G-3 2C.F ....|--- .... ....|--- .... ....
....|..|D#3 2F.7 ....|G#3 UF17 ....|D#3 2FF7 ....
....|..|G-3 2F.A ....|C-4 UF1A ....|G-3 2FFA ....
 G-4|..|C-4 AF.F ....|C-4 UF1F ....|G-3 2CFF ....
 G-4|..|G-3 2C.F ....|--- .... ....|--- .... ....
....|..|G-3 2F.7 ....|C-4 UF17 ....|G-3 2FF7 ....
....|..|G-3 2F.A ....|C-4 UF1A ....|G-3 2FFA ....
 G#4|..|C-4 AF.F ....|C-4 UF1F ....|G#3 2CEF ....
 G-4|..|G-3 2C.F ....|--- .... ....|G-3 2CFF ....
....|..|G-3 2F.7 ....|C-4 UF17 ....|G-3 2FF7 ....
....|..|G-3 2F.A ....|C-4 UF1A ....|G#3 2FEA ....
 G-4|..|C-4 LF.F ....|C-4 UF1F ....|G-3 2CFF ....
 G-4|..|G-3 2C.F ....|--- .... ....|--- .... ....
....|..|G-3 2F.7 ....|C-4 UF17 ....|G#3 2FE7 ....
....|..|G-3 2F.A ....|C-4 UF1A ....|G-3 2FFA ....
 G#4|..|C-4 AF.F ....|C#3 UF2F ....|G#3 2CEF ....
 C#4|..|C#3 2C.F ....|--- .... ....|C#3 2CFF ....
....|..|G-3 2F.7 ....|C-4 UF17 ....|G-3 2FF7 ....
....|..|C#3 2F.A ....|C#3 UF2A ....|G#3 2FEA ....
....|..|G-3 2F.7 ....|--- .... ....|C#3 2FFA ....
....|..|C#3 2F.A ....|--- .... ....|--- .... ....
....|..|C#3 2F.7 ....|C#3 UF27 ....|G#3 2FE7 ....
....|..|C#3 2F.7 ....|--- .... ....|C#3 2FF7 ....
....|..|--- .... ....|--- .... ....|--- .... ....
....|..|--- .... ....|--- .... ....|--- .... ....
....|..|--- .... ....|--- .... ....|--- .... ....
....|..|--- .... ....|--- .... ....|--- .... ....
....|..|--- .... ....|--- .... ....|--- .... ....
....|..|--- .... ....|--- .... ....|--- .... ....
....|..|--- .... ....|--- .... ....|--- .... ....
....|..|--- .... ....|--- .... ....|--- .... ....
....|..|C-4 AF.F ....|--- .... ....|--- .... ....
....|..|--- .... ....|--- .... ....|--- .... ....
....|..|--- .... ....|--- .... ....|--- .... ....
....|..|--- .... ....|--- .... ....|--- .... ....
....|..|--- .... ....|--- .... ....|--- .... ....
....|..|--- .... ....|--- .... ....|--- .... ....
....|..|--- .... ....|--- .... ....|--- .... ....
....|..|--- .... ....|--- .... ....|--- .... ....
 G#4|..|--- .... ....|--- .... ....|G#3 2CEF ....
....|..|--- .... ....|--- .... ....|--- .... ....
....|..|--- .... ....|--- .... ....|--- .... ....
....|..|--- .... ....|--- .... ....|G#3 2FEA ....
....|..|--- .... ....|--- .... ....|--- .... ....
....|..|--- .... ....|--- .... ....|--- .... ....
....|..|--- .... ....|--- .... ....|G#3 2FE7 ....
....|..|--- .... ....|--- .... ....|--- .... ....
 G-4|..|C-4 AF.F ....|G-3 UF3F ....|G-3 2CEF ....
 C#4|..|C#3 2C.F ....|--- .... ....|C#3 2CFF ....
 C#4|..|C#3 2C.F ....|--- .... ....|--- .... ....
....|..|C#3 2F.A ....|G-3 UF3A ....|G-3 2FEA ....
....|..|C#3 2F.A ....|--- .... ....|C#3 2FFA ....
....|..|--- .... ....|--- .... ....|--- .... ....
....|..|C#3 2F.7 ....|G-3 UF37 ....|G-3 2FE7 ....
....|..|C#3 2F.7 ....|--- .... ....|C#3 2FF7 ....
....|..|C-4 AF.F ....|--- .... ....|--- .... ....
....|..|--- .... ....|--- .... ....|--- .... ....
....|..|--- .... ....|--- .... ....|--- .... ....
....|..|--- .... ....|--- .... ....|--- .... ....
....|..|--- .... ....|--- .... ....|--- .... ....
....|..|--- .... ....|--- .... ....|--- .... ....
....|..|--- .... ....|--- .... ....|--- .... ....
....|..|--- .... ....|--- .... ....|--- .... ....
....|..|--- .... ....|--- .... ....|--- .... ....
....|..|--- .... ....|--- .... ....|--- .... ....
....|..|--- .... ....|--- .... ....|--- .... ....
....|..|--- .... ....|--- .... ....|--- .... ....
....|..|C-4 CF.F ....|--- .... ....|--- .... ....
....|..|--- .... ....|--- .... ....|--- .... ....
....|..|--- .... ....|--- .... ....|--- .... ....
....|..|--- .... ....|--- .... ....|--- .... ....
 G#4|..|C-4 AF.F ....|--- .... ....|G#3 2CEF ....
....|..|--- .... ....|--- .... ....|--- .... ....
....|..|--- .... ....|--- .... ....|--- .... ....
....|..|--- .... ....|--- .... ....|G#3 2FEA ....
....|..|C-4 CF.F ....|--- .... ....|--- .... ....
....|..|--- .... ....|--- .... ....|--- .... ....
....|..|--- .... ....|--- .... ....|G#3 2FE7 ....
....|..|--- .... ....|--- .... ....|--- .... ....

[Pattern18]
 A-3|..|C-4 AF.F ....|G#3 UF1F ....|A-3 2CEF ....
 D#4|..|D#3 2C.F ....|--- .... ....|D#3 2CFF ....
 D#4|..|D#3 2C.F ....|--- .... ....|--- .... ....
....|..|D#3 2F.A ....|G#3 UF1A ....|A-3 2FEA ....
....|..|D#3 2F.A ....|--- .... ....|D#3 2FFA ....
....|..|--- .... ....|--- .... ....|--- .... ....
....|..|D#3 2F.7 ....|G#3 UF17 ....|A-3 2FE7 ....
....|..|D#3 2F.7 ....|--- .... ....|D#3 2FF7 ....
 D#4|..|C-4 CF.F ....|G#3 UF1F ....|D#3 2CFF ....
 D#4|..|D#3 2C.F ....|--- .... ....|--- .... ....
 D#4|..|D#3 2C.F ....|--- .... ....|--- .... ....
....|..|D#3 2F.A ....|G#3 UF1A ....|D#3 2FFA ....
 D#4|..|C-4 AF.F ....|G#3 UF1F ....|D#3 2CFF ....
 D#4|..|D#3 2C.F ....|--- .... ....|--- .... ....
....|..|D#3 2F.7 ....|G#3 UF17 ....|D#3 2FF7 ....
....|..|D#3 2F.A ....|G#3 UF1A ....|D#3 2FFA ....
 G#4|..|C-4 AF.F ....|G#3 UF1F ....|G#3 2CEF ....
 D#4|..|D#3 2C.F ....|--- .... ....|D#3 2CFF ....
....|..|D#3 2F.7 ....|G#3 UF17 ....|D#3 2FF7 ....
....|..|D#3 2F.A ....|G#3 UF1A ....|G#3 2FEA ....
 D#4|..|C-4 AF.F ....|G#3 UF1F ....|D#3 2CFF ....
 D#4|..|D#3 2C.F ....|--- .... ....|--- .... ....
....|..|D#3 2F.7 ....|G#3 UF17 ....|G#3 2FE7 ....
....|..|D#3 2F.A ....|G#3 UF1A ....|D#3 2FFA ....
 E-4|..|C-4 CF.F ....|A-3 UF1F ....|E-3 2CFF ....
 E-4|..|E-3 2C.F ....|--- .... ....|--- .... ....
....|..|D#3 2F.7 ....|G#3 UF17 ....|D#3 2FF7 ....
....|..|E-3 2F.A ....|A-3 UF1A ....|E-3 2FFA ....
 D#4|..|C-4 LF.F ....|G#3 UF1F ....|D#3 2CFF ....
 D#4|..|D#3 2C.F ....|--- .... ....|--- .... ....
....|..|E-3 2F.7 ....|A-3 UF17 ....|E-3 2FF7 ....
....|..|D#3 2F.A ....|G#3 UF1A ....|D#3 2FFA ....
....|..|C-4 AF.F ....|--- .... ....|--- .... ....
....|..|E-3 2F.7 ....|--- .... ....|--- .... ....
....|..|D#3 2F.7 ....|G#3 UF17 ....|D#3 2FF7 ....
....|..|D#3 2F.7 ....|--- .... ....|--- .... ....
 D#4|..|D#3 2C.F ....|G#3 UF1F ....|D#3 2CFF ....
 D#4|..|D#3 2C.F ....|--- .... ....|--- .... ....
....|..|--- .... ....|--- .... ....|--- .... ....
....|..|D#3 2F.A ....|G#3 UF1A ....|D#3 2FFA ....
 D#4|..|C-4 CF.F ....|G#3 UF1F ....|D#3 2CFF ....
 D#4|..|D#3 2C.F ....|--- .... ....|--- .... ....
....|..|D#3 2F.7 ....|G#3 UF17 ....|D#3 2FF7 ....
....|..|D#3 2F.A ....|G#3 UF1A ....|D#3 2FFA ....
 D#4|..|D#3 2C.F ....|G#3 UF1F ....|D#3 2CFF ....
....|..|D#3 2F.7 ....|--- .... ....|--- .... ....
....|..|D#3 2F.7 ....|G#3 UF17 ....|D#3 2FF7 ....
....|..|D#3 2F.A ....|G#3 UF1A ....|D#3 2FFA ....
 G-4|..|C-4 AF.F ....|C-4 UF1F ....|G-3 2CFF ....
 G-4|..|G-3 2C.F ....|--- .... ....|--- .... ....
....|..|D#3 2F.7 ....|G#3 UF17 ....|D#3 2FF7 ....
....|..|G-3 2F.A ....|C-4 UF1A ....|G-3 2FFA ....
 G-4|..|C-4 AF.F ....|C-4 UF1F ....|G-3 2CFF ....
 G-4|..|G-3 2C.F ....|--- .... ....|--- .... ....
....|..|G-3 2F.7 ....|C-4 UF17 ....|G-3 2FF7 ....
....|..|G-3 2F.A ....|C-4 UF1A ....|G-3 2FFA ....
 G-4|..|C-4 AF.F ....|C-4 UF1F ....|G-3 2CFF ....
 G-4|..|G-3 2C.F ....|--- .... ....|--- .... ....
....|..|G-3 2F.7 ....|C-4 UF17 ....|G-3 2FF7 ....
....|..|G-3 2F.A ....|C-4 UF1A ....|G-3 2FFA ....
 G-4|..|C-4 LF.F ....|C-4 UF1F ....|G-3 2CFF ....
 G-4|..|G-3 2C.F ....|--- .... ....|--- .... ....
....|..|G-3 2F.7 ....|C-4 UF17 ....|G-3 2FF7 ....
....|..|G-3 2F.A ....|C-4 UF1A ....|G-3 2FFA ....
 A-3|..|C-4 AF.F ....|G#3 UF1F ....|A-3 2CEF ....
 D#4|..|D#3 2C.F ....|--- .... ....|D#3 2CFF ....
....|..|G-3 2F.7 ....|C-4 UF17 ....|G-3 2FF7 ....
....|..|D#3 2F.A ....|G#3 UF1A ....|A-3 2FEA ....
....|..|G-3 2F.7 ....|--- .... ....|D#3 2FFA ....
....|..|D#3 2F.A ....|--- .... ....|--- .... ....
....|..|D#3 2F.7 ....|G#3 UF17 ....|A-3 2FE7 ....
....|..|D#3 2F.7 ....|--- .... ....|D#3 2FF7 ....
 D#4|..|C-4 CF.F ....|G#3 UF1F ....|D#3 2CFF ....
 D#4|..|D#3 2C.F ....|--- .... ....|--- .... ....
 D#4|..|D#3 2C.F ....|--- .... ....|--- .... ....
....|..|D#3 2F.A ....|G#3 UF1A ....|D#3 2FFA ....
 D#4|..|C-4 AF.F ....|G#3 UF1F ....|D#3 2CFF ....
 D#4|..|D#3 2C.F ....|--- .... ....|--- .... ....
....|..|D#3 2F.7 ....|G#3 UF17 ....|D#3 2FF7 ....
....|..|D#3 2F.A ....|G#3 UF1A ....|D#3 2FFA ....
 G#4|..|C-4 AF.F ....|G#3 UF1F ....|G#3 2CEF ....
 D#4|..|D#3 2C.F ....|--- .... ....|D#3 2CFF ....
....|..|D#3 2F.7 ....|G#3 UF17 ....|D#3 2FF7 ....
....|..|D#3 2F.A ....|G#3 UF1A ....|G#3 2FEA ....
 D#4|..|C-4 AF.F ....|G#3 UF1F ....|D#3 2CFF ....
 D#4|..|D#3 2C.F ....|--- .... ....|--- .... ....
....|..|D#3 2F.7 ....|G#3 UF17 ....|G#3 2FE7 ....
....|..|D#3 2F.A ....|G#3 UF1A ....|D#3 2FFA ....
 E-4|..|C-4 CF.F ....|A-3 UF1F ....|E-3 2CFF ....
 E-4|..|E-3 2C.F ....|--- .... ....|--- .... ....
....|..|D#3 2F.7 ....|G#3 UF17 ....|D#3 2FF7 ....
....|..|E-3 2F.A ....|A-3 UF1A ....|E-3 2FFA ....
 D#4|..|C-4 LF.F ....|G#3 UF1F ....|D#3 2CFF ....
 D#4|..|D#3 2C.F ....|--- .... ....|--- .... ....
....|..|E-3 2F.7 ....|A-3 UF17 ....|E-3 2FF7 ....
....|..|D#3 2F.A ....|G#3 UF1A ....|D#3 2FFA ....
....|..|C-4 AF.F ....|--- .... ....|--- .... ....
....|..|E-3 2F.7 ....|--- .... ....|--- .... ....
....|..|D#3 2F.7 ....|G#3 UF17 ....|D#3 2FF7 ....
....|..|D#3 2F.7 ....|--- .... ....|--- .... ....
 D#4|..|D#3 2C.F ....|G#3 UF1F ....|D#3 2CFF ....
 D#4|..|D#3 2C.F ....|--- .... ....|--- .... ....
....|..|--- .... ....|--- .... ....|--- .... ....
....|..|D#3 2F.A ....|G#3 UF1A ....|D#3 2FFA ....
 D#4|..|C-4 CF.F ....|G#3 UF1F ....|D#3 2CFF ....
 D#4|..|D#3 2C.F ....|--- .... ....|--- .... ....
....|..|D#3 2F.7 ....|G#3 UF17 ....|D#3 2FF7 ....
....|..|D#3 2F.A ....|G#3 UF1A ....|D#3 2FFA ....
 D#4|..|D#3 2C.F ....|G#3 UF1F ....|D#3 2CFF ....
....|..|D#3 2F.7 ....|--- .... ....|--- .... ....
....|..|D#3 2F.7 ....|G#3 UF17 ....|D#3 2FF7 ....
....|..|D#3 2F.A ....|G#3 UF1A ....|D#3 2FFA ....
 G-4|..|C-4 AF.F ....|C-4 UF1F ....|G-3 2CFF ....
 G-4|..|G-3 2C.F ....|--- .... ....|--- .... ....
....|..|D#3 2F.7 ....|G#3 UF17 ....|D#3 2FF7 ....
....|..|G-3 2F.A ....|C-4 UF1A ....|G-3 2FFA ....
 G-4|..|C-4 AF.F ....|C-4 UF1F ....|G-3 2CFF ....
 G-4|..|G-3 2C.F ....|--- .... ....|--- .... ....
....|..|G-3 2F.7 ....|C-4 UF17 ....|G-3 2FF7 ....
....|..|G-3 2F.A ....|C-4 UF1A ....|G-3 2FFA ....
 G-4|..|C-4 AF.F ....|C-4 UF1F ....|G-3 2CFF ....
 G-4|..|G-3 2C.F ....|--- .... ....|--- .... ....
....|..|G-3 2F.7 ....|C-4 UF17 ....|G-3 2FF7 ....
....|..|G-3 2F.A ....|C-4 UF1A ....|G-3 2FFA ....
 G-4|..|C-4 LF.F ....|C-4 UF1F ....|G-3 2CFF ....
 G-4|..|G-3 2C.F ....|--- .... ....|--- .... ....
....|..|G-3 2F.7 ....|C-4 UF17 ....|G-3 2FF7 ....
....|..|G-3 2F.A ....|C-4 UF1A ....|G-3 2FFA ....

[Pattern19]
 G#4|..|C-4 AF.F ....|G#2 UF.F ....|G#3 2CFF ....
 G#4|..|G#3 2C.F ....|--- .... ....|--- .... ....
....|..|G-3 2F.7 ....|C-4 UF17 ....|G-3 2FF7 ....
....|..|G#3 2F.A ....|G#2 UF.A ....|G#3 2FFA ....
....|..|C-3 RF.F ....|G#2 UF.F ....|--- .... ....
....|..|G-3 2F.7 ....|--- .... ....|--- .... ....
 B-4|..|B-3 2C.F ....|G#2 UF.7 ....|B-3 2CFF ....
 G#4|..|G#2 2A.F ....|G#2 UF.A ....|--- .F.. ....
....|..|C-4 AF.F ....|B-2 UF.F ....|--- .... ....
....|..|B-3 2F.A ....|--- .... ....|B-3 2FFA ....
....|..|G#2 2F.A ....|G#2 UF.7 ....|--- .... ....
 B-4|..|B-2 2A.F ....|B-2 UF.A ....|--- .... ....
 D#4|..|C-4 CF.F ....|B-2 UF.F ....|D#4 2CFF ....
 D#4|..|D#4 2C.F ....|--- .... ....|--- .... ....
....|..|B-2 2F.A ....|B-2 UF.7 ....|--- .... ....
....|..|D#4 2F.A ....|B-2 UF.A ....|D#4 2FFA ....
....|..|C-4 AF.F ....|D#3 UF.F ....|--- .... ....
....|..|B-2 2F.7 ....|--- .... ....|--- .... ....
....|..|D#4 2F.7 ....|B-2 UF.7 ....|D#4 2FF7 ....
 D#4|..|D#3 2C.F ....|D#3 UF.A ....|--- .... ....
....|..|C-4 CF.F ....|D#3 UF.F ....|--- .... ....
....|..|B-2 2F.7 ....|--- .... ....|--- .... ....
....|..|D#3 2F.A ....|D#3 UF.7 ....|--- .... ....
 D#4|..|D#3 2C.F ....|D#3 UF.A ....|--- .... ....
....|..|C-4 AF.F ....|B-2 UF.F ....|--- .... ....
....|..|D#3 2F.7 ....|--- .... ....|--- .... ....
....|..|D#3 2F.A ....|D#3 UF.7 ....|--- .... ....
 B-4|..|B-2 2A.F ....|B-2 UF.A ....|--- .... ....
....|..|C-4 CF.F ....|B-2 UF.F ....|--- .... ....
....|..|D#3 2F.7 ....|--- .... ....|--- .... ....
....|..|B-2 2F.A ....|B-2 UF.7 ....|--- .... ....
 B-4|..|B-2 2A.F ....|B-2 UF.A ....|--- .... ....
 D#4|..|C-4 AF.F ....|G#2 UF.F ....|D#4 2CFF ....
 D#4|..|D#4 2C.F ....|--- .... ....|--- .... ....
....|..|B-2 2F.A ....|B-2 UF.7 ....|--- .... ....
....|..|D#4 2F.A ....|G#2 UF.A ....|D#4 2FFA ....
....|..|C-3 RF.F ....|G#2 UF.F ....|--- .... ....
....|..|B-2 2F.7 ....|--- .... ....|--- .... ....
....|..|D#4 2F.7 ....|G#2 UF.7 ....|D#4 2FF7 ....
 G#4|..|G#2 2A.F ....|G#2 UF.A ....|--- .... ....
....|..|C-4 AF.F ....|B-2 UF.F ....|--- .... ....
....|..|G#2 2F.7 ....|--- .... ....|--- .... ....
....|..|G#2 2F.A ....|G#2 UF.7 ....|--- .... ....
 B-4|..|B-2 2A.F ....|B-2 UF.A ....|--- .... ....
....|..|C-4 CF.F ....|B-2 UF.F ....|--- .... ....
....|..|G#2 2F.7 ....|--- .... ....|--- .... ....
....|..|B-2 2F.A ....|B-2 UF.7 ....|--- .... ....
 B-4|..|B-2 2A.F ....|B-2 UF.A ....|--- .... ....
....|..|C-4 AF.F ....|D#3 UF.F ....|--- .... ....
....|..|B-2 2F.7 ....|--- .... ....|--- .... ....
....|..|B-2 2F.A ....|B-2 UF.7 ....|--- .... ....
 D#4|..|D#3 2C.F ....|D#3 UF.A ....|--- .... ....
....|..|C-4 CF.F ....|D#3 UF.F ....|--- .... ....
....|..|B-2 2F.7 ....|--- .... ....|--- .... ....
....|..|D#3 2F.A ....|D#3 UF.7 ....|--- .... ....
 D#4|..|D#3 2C.F ....|D#3 UF.A ....|--- .... ....
....|..|C-4 AF.F ....|B-2 UF.F ....|--- .... ....
....|..|D#3 2F.7 ....|--- .... ....|--- .... ....
....|..|D#3 2F.A ....|D#3 UF.7 ....|--- .... ....
 B-4|..|B-2 2A.F ....|B-2 UF.A ....|--- .... ....
....|..|C-4 CF.F ....|B-2 UF.F ....|--- .... ....
....|..|D#3 2F.7 ....|--- .... ....|--- .... ....
....|..|B-2 2F.A ....|B-2 UF.7 ....|--- .... ....
 B-4|..|B-2 2A.F ....|B-2 UF.A ....|--- .... ....
 G-4|..|C-4 AF.F ....|G-2 UF.F ....|G-3 2CFF ....
 G-4|..|G-3 2C.F ....|--- .... ....|--- .... ....
....|..|B-2 2F.A ....|B-2 UF.7 ....|--- .... ....
....|..|G-3 2F.A ....|G-2 UF.A ....|G-3 2FFA ....
....|..|C-3 RF.F ....|G-2 UF.F ....|--- .... ....
....|..|B-2 2F.7 ....|--- .... ....|--- .... ....
 A#3|..|A#3 2C.F ....|G-2 UF.7 ....|A#3 2CFF ....
 G-4|..|G-2 2A.F ....|G-2 UF.A ....|--- .F.. ....
....|..|C-4 AF.F ....|A#2 UF.F ....|--- .... ....
....|..|A#3 2F.A ....|--- .... ....|A#3 2FFA ....
....|..|G-2 2F.A ....|G-2 UF.7 ....|--- .... ....
 A#3|..|A#2 2C.F ....|A#2 UF.A ....|--- .... ....
 C#4|..|C-4 CF.F ....|A#2 UF.F ....|C#4 2CFF ....
 C#4|..|C#4 2C.F ....|--- .... ....|--- .... ....
....|..|A#2 2F.A ....|A#2 UF.7 ....|--- .... ....
....|..|C#4 2F.A ....|A#2 UF.A ....|C#4 2FFA ....
....|..|C-4 AF.F ....|C#3 UF.F ....|--- .... ....
....|..|A#2 2F.7 ....|--- .... ....|--- .... ....
....|..|C#4 2F.7 ....|A#2 UF.7 ....|C#4 2FF7 ....
 C#4|..|C#3 2C.F ....|C#3 UF.A ....|--- .... ....
....|..|C-4 CF.F ....|C#3 UF.F ....|--- .... ....
....|..|A#2 2F.7 ....|--- .... ....|--- .... ....
....|..|C#3 2F.A ....|C#3 UF.7 ....|--- .... ....
 C#4|..|C#3 2C.F ....|C#3 UF.A ....|--- .... ....
....|..|C-4 AF.F ....|A#2 UF.F ....|--- .... ....
....|..|C#3 2F.7 ....|--- .... ....|--- .... ....
....|..|C#3 2F.A ....|C#3 UF.7 ....|--- .... ....
 A#3|..|A#2 2C.F ....|A#2 UF.A ....|--- .... ....
....|..|C-4 CF.F ....|A#2 UF.F ....|--- .... ....
....|..|C#3 2F.7 ....|--- .... ....|--- .... ....
....|..|A#2 2F.A ....|A#2 UF.7 ....|--- .... ....
 A#3|..|A#2 2C.F ....|A#2 UF.A ....|--- .... ....
 C#4|..|C-4 AF.F ....|G-2 UF.F ....|C#4 2CFF ....
 C#4|..|C#4 2C.F ....|--- .... ....|--- .... ....
....|..|A#2 2F.A ....|A#2 UF.7 ....|--- .... ....
....|..|C#4 2F.A ....|G-2 UF.A ....|C#4 2FFA ....
....|..|C-3 RF.F ....|G-2 UF.F ....|--- .... ....
....|..|A#2 2F.7 ....|--- .... ....|--- .... ....
....|..|C#4 2F.7 ....|G-2 UF.7 ....|C#4 2FF7 ....
 G-4|..|G-2 2A.F ....|G-2 UF.A ....|--- .... ....
....|..|C-4 AF.F ....|A#2 UF.F ....|--- .... ....
....|..|G-2 2F.7 ....|--- .... ....|--- .... ....
....|..|G-2 2F.A ....|G-2 UF.7 ....|--- .... ....
 A#3|..|A#2 2C.F ....|A#2 UF.A ....|--- .... ....
....|..|C-4 CF.F ....|A#2 UF.F ....|--- .... ....
....|..|G-2 2F.7 ....|--- .... ....|--- .... ....
....|..|A#2 2F.A ....|A#2 UF.7 ....|--- .... ....
 A#3|..|A#2 2C.F ....|A#2 UF.A ....|--- .... ....
....|..|C-4 AF.F ....|C#3 UF.F ....|--- .... ....
....|..|A#2 2F.7 ....|--- .... ....|--- .... ....
....|..|A#2 2F.A ....|A#2 UF.7 ....|--- .... ....
 C#4|..|C#3 2C.F ....|C#3 UF.A ....|--- .... ....
....|..|C-4 CF.F ....|C#3 UF.F ....|--- .... ....
....|..|A#2 2F.7 ....|--- .... ....|--- .... ....
....|..|C#3 2F.A ....|C#3 UF.7 ....|--- .... ....
 C#4|..|C#3 2C.F ....|C#3 UF.A ....|--- .... ....
....|..|C-4 AF.F ....|A#2 UF.F ....|--- .... ....
....|..|C#3 2F.7 ....|--- .... ....|--- .... ....
....|..|C#3 2F.A ....|C#3 UF.7 ....|--- .... ....
 A#3|..|A#2 2C.F ....|A#2 UF.A ....|--- .... ....
....|..|C-4 CF.F ....|A#2 UF.F ....|--- .... ....
....|..|C#3 2F.7 ....|--- .... ....|--- .... ....
....|..|A#2 2F.A ....|A#2 UF.7 ....|--- .... ....
 A#3|..|A#2 2C.F ....|A#2 UF.A ....|--- .... ....

[Pattern20]
 A#3|..|C-4 AF.F ....|A#2 UF.F ....|A#3 2CFF ....
 A#3|..|A#3 2C.F ....|--- .... ....|--- .... ....
....|..|A#2 2F.A ....|A#2 UF.7 ....|--- .... ....
....|..|A#3 2F.A ....|A#2 UF.A ....|A#3 2FFA ....
....|..|C-3 RF.F ....|A#2 UF.F ....|--- .... ....
....|..|A#2 2F.7 ....|--- .... ....|--- .... ....
 C#4|..|C#4 2C.F ....|A#2 UF.7 ....|C#4 2CFF ....
 A#3|..|A#2 2C.F ....|A#2 UF.A ....|--- .F.. ....
....|..|C-4 AF.F ....|C#3 UF.F ....|--- .... ....
....|..|C#4 2F.A ....|--- .... ....|C#4 2FFA ....
....|..|A#2 2F.A ....|A#2 UF.7 ....|--- .... ....
 C#4|..|C#3 2C.F ....|C#3 UF.A ....|--- .... ....
 E-4|..|C-4 CF.F ....|C#3 UF.F ....|E-4 2CFF ....
 E-4|..|E-4 2C.F ....|--- .... ....|--- .... ....
....|..|C#3 2F.A ....|C#3 UF.7 ....|--- .... ....
....|..|E-4 2F.A ....|C#3 UF.A ....|E-4 2FFA ....
....|..|C-4 AF.F ....|E-3 UF.F ....|--- .... ....
....|..|C#3 2F.7 ....|--- .... ....|--- .... ....
....|..|E-4 2F.7 ....|C#3 UF.7 ....|E-4 2FF7 ....
 E-4|..|E-3 2C.F ....|E-3 UF.A ....|--- .... ....
....|..|C-4 CF.F ....|E-3 UF.F ....|--- .... ....
....|..|C#3 2F.7 ....|--- .... ....|--- .... ....
....|..|E-3 2F.A ....|E-3 UF.7 ....|--- .... ....
 E-4|..|E-3 2C.F ....|E-3 UF.A ....|--- .... ....
....|..|C-4 AF.F ....|C#3 UF.F ....|--- .... ....
....|..|E-3 2F.7 ....|--- .... ....|--- .... ....
....|..|E-3 2F.A ....|E-3 UF.7 ....|--- .... ....
 C#4|..|C#3 2C.F ....|C#3 UF.A ....|--- .... ....
....|..|C-4 CF.F ....|C#3 UF.F ....|--- .... ....
....|..|E-3 2F.7 ....|--- .... ....|--- .... ....
....|..|C#3 2F.A ....|C#3 UF.7 ....|--- .... ....
 C#4|..|C#3 2C.F ....|C#3 UF.A ....|--- .... ....
 E-4|..|C-4 AF.F ....|A#2 UF.F ....|E-4 2CFF ....
 E-4|..|E-4 2C.F ....|--- .... ....|--- .... ....
....|..|C#3 2F.A ....|C#3 UF.7 ....|--- .... ....
....|..|E-4 2F.A ....|A#2 UF.A ....|E-4 2FFA ....
....|..|C-3 RF.F ....|A#2 UF.F ....|--- .... ....
....|..|C#3 2F.7 ....|--- .... ....|--- .... ....
....|..|E-4 2F.7 ....|A#2 UF.7 ....|E-4 2FF7 ....
 A#3|..|A#2 2C.F ....|A#2 UF.A ....|--- .... ....
....|..|C-4 AF.F ....|C#3 UF.F ....|--- .... ....
....|..|A#2 2F.7 ....|--- .... ....|--- .... ....
....|..|A#2 2F.A ....|A#2 UF.7 ....|--- .... ....
 C#4|..|C#3 2C.F ....|C#3 UF.A ....|--- .... ....
....|..|C-4 CF.F ....|C#3 UF.F ....|--- .... ....
....|..|A#2 2F.7 ....|--- .... ....|--- .... ....
....|..|C#3 2F.A ....|C#3 UF.7 ....|--- .... ....
 C#4|..|C#3 2C.F ....|C#3 UF.A ....|--- .... ....
....|..|C-4 AF.F ....|E-3 UF.F ....|--- .... ....
....|..|C#3 2F.7 ....|--- .... ....|--- .... ....
....|..|C#3 2F.A ....|C#3 UF.7 ....|--- .... ....
 E-4|..|E-3 2C.F ....|E-3 UF.A ....|--- .... ....
....|..|C-4 CF.F ....|E-3 UF.F ....|--- .... ....
....|..|C#3 2F.7 ....|--- .... ....|--- .... ....
....|..|E-3 2F.A ....|E-3 UF.7 ....|--- .... ....
 E-4|..|E-3 2C.F ....|E-3 UF.A ....|--- .... ....
....|..|C-4 AF.F ....|C#3 UF.F ....|--- .... ....
....|..|E-3 2F.7 ....|--- .... ....|--- .... ....
....|..|E-3 2F.A ....|E-3 UF.7 ....|--- .... ....
 C#4|..|C#3 2C.F ....|C#3 UF.A ....|--- .... ....
....|..|C-4 CF.F ....|C#3 UF.F ....|--- .... ....
....|..|E-3 2F.7 ....|--- .... ....|--- .... ....
....|..|C#3 2F.A ....|C#3 UF.7 ....|--- .... ....
 C#4|..|C#3 2C.F ....|C#3 UF.A ....|--- .... ....
 G#4|..|C-4 AF.F ....|G#2 UF.F ....|G#3 2CFF ....
 G#4|..|G#3 2C.F ....|--- .... ....|--- .... ....
....|..|C#3 2F.A ....|C#3 UF.7 ....|--- .... ....
....|..|G#3 2F.A ....|G#2 UF.A ....|G#3 2FFA ....
....|..|C-3 RF.F ....|G#2 UF.F ....|--- .... ....
....|..|C#3 2F.7 ....|--- .... ....|--- .... ....
 B-4|..|B-3 2C.F ....|G#2 UF.7 ....|B-3 2CFF ....
 G#4|..|G#2 2A.F ....|G#2 UF.A ....|--- .F.. ....
....|..|C-4 AF.F ....|B-2 UF.F ....|--- .... ....
....|..|B-3 2F.A ....|--- .... ....|B-3 2FFA ....
....|..|G#2 2F.A ....|G#2 UF.7 ....|--- .... ....
 B-4|..|B-2 2A.F ....|B-2 UF.A ....|--- .... ....
 D#4|..|C-4 CF.F ....|B-2 UF.F ....|D#4 2CFF ....
 D#4|..|D#4 2C.F ....|--- .... ....|--- .... ....
....|..|B-2 2F.A ....|B-2 UF.7 ....|--- .... ....
....|..|D#4 2F.A ....|B-2 UF.A ....|D#4 2FFA ....
....|..|C-4 AF.F ....|D#3 UF.F ....|--- .... ....
....|..|B-2 2F.7 ....|--- .... ....|--- .... ....
....|..|D#4 2F.7 ....|B-2 UF.7 ....|D#4 2FF7 ....
 D#4|..|D#3 2C.F ....|D#3 UF.A ....|--- .... ....
....|..|C-4 CF.F ....|D#3 UF.F ....|--- .... ....
....|..|B-2 2F.7 ....|--- .... ....|--- .... ....
....|..|D#3 2F.A ....|D#3 UF.7 ....|--- .... ....
 D#4|..|D#3 2C.F ....|D#3 UF.A ....|--- .... ....
....|..|C-4 AF.F ....|B-2 UF.F ....|--- .... ....
....|..|D#3 2F.7 ....|--- .... ....|--- .... ....
....|..|D#3 2F.A ....|D#3 UF.7 ....|--- .... ....
 B-4|..|B-2 2A.F ....|B-2 UF.A ....|--- .... ....
....|..|C-4 CF.F ....|B-2 UF.F ....|--- .... ....
....|..|D#3 2F.7 ....|--- .... ....|--- .... ....
....|..|B-2 2F.A ....|B-2 UF.7 ....|--- .... ....
 B-4|..|B-2 2A.F ....|B-2 UF.A ....|--- .... ....
 D#4|..|C-4 AF.F ....|G#2 UF.F ....|D#4 2CFF ....
 D#4|..|D#4 2C.F ....|--- .... ....|--- .... ....
....|..|B-2 2F.A ....|B-2 UF.7 ....|--- .... ....
....|..|D#4 2F.A ....|G#2 UF.A ....|D#4 2FFA ....
....|..|C-5 VF.F ....|G#2 UF.F ....|--- .... ....
....|..|B-2 2F.7 ....|--- .... ....|--- .... ....
....|..|C-5 VF.F ....|G#2 UF.7 ....|D#4 2FF7 ....
....|..|G#2 2F.A ....|G#2 UF.A ....|--- .... ....
....|..|C-4 AF.F ....|B-2 UF.F ....|--- .... ....
....|..|G#2 2F.7 ....|--- .... ....|--- .... ....
 B-4|..|B-2 2A.F ....|G#2 UF.7 ....|--- .... ....
....|..|B-2 2F.A ....|B-2 UF.A ....|--- .... ....
....|..|C-4 CF.F ....|B-2 UF.F ....|--- .... ....
 B-4|..|B-2 2A.F ....|--- .... ....|--- .... ....
....|..|B-2 2F.7 ....|B-2 UF.7 ....|--- .... ....
....|..|B-2 2F.A ....|B-2 UF.A ....|--- .... ....
....|..|C-4 AF.F ....|D#3 UF.F ....|--- .... ....
 D#4|..|D#3 2C.F ....|--- .... ....|--- .... ....
....|..|C-5 VF.F ....|B-2 UF.7 ....|--- .... ....
....|..|D#3 2F.A ....|D#3 UF.A ....|--- .... ....
....|..|C-5 VF.F ....|D#3 UF.F ....|--- .... ....
 D#4|..|D#3 2C.F ....|--- .... ....|--- .... ....
....|..|C-5 VF.F ....|D#3 UF.7 ....|--- .... ....
....|..|D#3 2F.A ....|D#3 UF.A ....|--- .... ....
....|..|C-4 AF.F ....|B-2 UF.F ....|--- .... ....
 B-4|..|B-2 2A.F ....|--- .... ....|--- .... ....
....|..|D#4 9F.F ....|D#3 UF.7 ....|--- .... ....
....|..|B-2 2F.A ....|B-2 UF.A ....|--- .... ....
....|..|C-4 9F.F ....|B-2 UF.F ....|--- .... ....
 B-4|..|B-2 2A.F ....|--- .... ....|--- .... ....
....|..|C-4 9F.F ....|B-2 UF.7 ....|--- .... ....
....|..|B-2 2F.A ....|B-2 UF.A ....|--- .... ....

[Pattern21]
 G#4|..|C-4 AF.F ....|G#4 2C.F ....|G#4 2CEF ....
 G#4|..|G#2 2A.F ....|G#2 UF.F ....|G#2 2AFF ....
 G#4|..|G#2 2A.F ....|B-2 UF.7 ....|--- .... ....
....|..|G#2 2F.A ....|G#3 2F.A ....|G#4 2FEA ....
 G#4|..|G#3 2C.F ....|G#3 2C.F ....|G#3 2CFF ....
....|..|B-2 2F.7 ....|G#2 UF.A ....|--- .... ....
....|..|G#2 2F.7 ....|G#3 2F.7 ....|G#4 2FE7 ....
....|..|G#2 2F.A ....|G#3 2F.A ....|G#2 2FFA ....
 B-4|..|C-4 AF.F ....|B-3 2C.F ....|B-3 2CFF ....
 B-4|..|B-2 2A.F ....|G#2 UF.7 ....|--- .... ....
....|..|G#2 2F.7 ....|G#3 2F.7 ....|G#2 2FF7 ....
....|..|B-2 2F.A ....|B-3 2F.A ....|B-2 2FFA ....
 B-4|..|B-3 2C.F ....|B-3 2C.F ....|B-3 2CFF ....
....|..|G#2 2F.7 ....|G#2 UF.7 ....|--- .... ....
....|..|B-2 2F.7 ....|B-3 2F.7 ....|B-2 2FF7 ....
....|..|B-2 2F.A ....|B-3 2F.A ....|B-2 2FFA ....
 D#4|..|C-4 AF.F ....|D#4 2C.F ....|D#4 2CFF ....
 D#4|..|D#3 2C.F ....|B-2 UF.7 ....|--- .... ....
....|..|B-2 2F.7 ....|B-3 2F.7 ....|B-2 2FF7 ....
....|..|D#3 2F.A ....|D#4 2F.A ....|D#3 2FFA ....
 D#4|..|D#4 2C.F ....|D#4 2C.F ....|D#4 2CFF ....
....|..|B-2 2F.7 ....|B-2 UF.7 ....|--- .... ....
....|..|D#3 2F.7 ....|D#4 2F.7 ....|D#3 2FF7 ....
....|..|D#3 2F.A ....|D#4 2F.A ....|D#3 2FFA ....
 B-4|..|B-3 2C.F ....|B-3 2C.F ....|B-3 2CFF ....
....|..|D#3 2F.7 ....|D#3 UF.7 ....|--- .... ....
....|..|D#3 2F.7 ....|D#4 2F.7 ....|D#3 2FF7 ....
....|..|B-2 2F.A ....|B-3 2F.A ....|B-2 2FFA ....
 B-4|..|B-3 2C.F ....|B-3 2C.F ....|B-3 2CFF ....
....|..|D#3 2F.7 ....|D#3 UF.7 ....|--- .... ....
....|..|B-2 2F.7 ....|B-3 2F.7 ....|B-2 2FF7 ....
....|..|B-2 2F.A ....|B-3 2F.A ....|B-2 2FFA ....
 G#4|..|C-4 AF.F ....|G#3 2C.F ....|G#3 2CFF ....
 G#4|..|G#2 2A.F ....|B-2 UF.7 ....|--- .... ....
....|..|B-2 2F.7 ....|B-3 2F.7 ....|B-2 2FF7 ....
....|..|G#2 2F.A ....|G#3 2F.A ....|G#2 2FFA ....
 G#4|..|G#3 2C.F ....|G#3 2C.F ....|G#3 2CFF ....
....|..|B-2 2F.7 ....|B-2 UF.7 ....|--- .... ....
....|..|G#2 2F.7 ....|G#3 2F.7 ....|G#2 2FF7 ....
....|..|G#2 2F.A ....|G#3 2F.A ....|G#2 2FFA ....
 B-4|..|B-3 2C.F ....|B-3 2C.F ....|B-3 2CFF ....
....|..|G#2 2F.7 ....|G#2 UF.7 ....|--- .... ....
....|..|G#2 2F.7 ....|G#3 2F.7 ....|G#2 2FF7 ....
....|..|B-2 2F.A ....|B-3 2F.A ....|B-2 2FFA ....
 B-4|..|B-3 2C.F ....|B-3 2C.F ....|B-3 2CFF ....
....|..|G#2 2F.7 ....|G#2 UF.7 ....|--- .... ....
....|..|B-2 2F.7 ....|B-3 2F.7 ....|B-2 2FF7 ....
....|..|B-2 2F.A ....|B-3 2F.A ....|B-2 2FFA ....
 D#4|..|C-4 AF.F ....|D#4 2C.F ....|D#4 2CFF ....
 D#4|..|D#3 2C.F ....|B-2 UF.7 ....|--- .... ....
....|..|B-2 2F.7 ....|B-3 2F.7 ....|B-2 2FF7 ....
....|..|D#3 2F.A ....|D#4 2F.A ....|D#3 2FFA ....
 D#4|..|D#4 2C.F ....|D#4 2C.F ....|D#4 2CFF ....
....|..|B-2 2F.7 ....|B-2 UF.7 ....|--- .... ....
....|..|D#3 2F.7 ....|D#4 2F.7 ....|D#3 2FF7 ....
....|..|D#3 2F.A ....|D#4 2F.A ....|D#3 2FFA ....
 A#3|..|B-2 2F.F ....|B-3 2F.F ....|A#4 2CEF ....
 B-4|..|D#3 2F.7 ....|D#3 UF.7 ....|B-2 2AFF ....
....|..|D#3 2F.7 ....|D#4 2F.7 ....|D#3 2FF7 ....
....|..|B-2 2F.A ....|B-3 2F.A ....|A#4 2FEA ....
 G#4|..|B-2 2F.F ....|B-3 2F.F ....|G#4 2CEF ....
....|..|D#3 2F.7 ....|D#3 UF.7 ....|B-2 2FFA ....
....|..|B-2 2F.7 ....|B-3 2F.7 ....|A#4 2FE7 ....
....|..|B-2 2F.A ....|B-3 2F.A ....|G#4 2FEA ....
 G-4|..|C-4 AF.F ....|G-4 2C.F ....|G-4 2CEF ....
 G-4|..|G-2 2A.F ....|B-2 UF.7 ....|B-2 2FF7 ....
....|..|B-2 2F.7 ....|B-3 2F.7 ....|G#4 2FE7 ....
....|..|G-2 2F.A ....|G-3 2F.A ....|G-4 2FEA ....
 G-4|..|G-3 2C.F ....|G-3 2C.F ....|G-3 2CFF ....
....|..|B-2 2F.7 ....|B-2 UF.7 ....|G-2 2FFA ....
....|..|G-2 2F.7 ....|G-3 2F.7 ....|G-4 2FE7 ....
....|..|G-2 2F.A ....|G-3 2F.A ....|G-2 2FFA ....
 A#3|..|C-4 AF.F ....|A#3 2C.F ....|A#3 2CFF ....
 A#3|..|A#2 2C.F ....|G-2 UF.7 ....|--- .... ....
....|..|G-2 2F.7 ....|G-3 2F.7 ....|G-2 2FF7 ....
....|..|A#2 2F.A ....|A#3 2F.A ....|A#2 2FFA ....
 A#3|..|A#3 2C.F ....|A#3 2C.F ....|A#3 2CFF ....
....|..|G-2 2F.7 ....|G-2 UF.7 ....|--- .... ....
....|..|A#2 2F.7 ....|A#3 2F.7 ....|A#2 2FF7 ....
....|..|A#2 2F.A ....|A#3 2F.A ....|A#2 2FFA ....
 C#4|..|C-4 AF.F ....|C#4 2C.F ....|C#4 2CFF ....
 C#4|..|C#3 2C.F ....|A#2 UF.7 ....|--- .... ....
....|..|A#2 2F.7 ....|A#3 2F.7 ....|A#2 2FF7 ....
....|..|C#3 2F.A ....|C#4 2F.A ....|C#3 2FFA ....
 C#4|..|C#4 2C.F ....|C#4 2C.F ....|C#4 2CFF ....
....|..|A#2 2F.7 ....|A#2 UF.7 ....|--- .... ....
....|..|C#3 2F.7 ....|C#4 2F.7 ....|C#3 2FF7 ....
....|..|C#3 2F.A ....|C#4 2F.A ....|C#3 2FFA ....
 A#3|..|A#3 2C.F ....|A#3 2C.F ....|A#3 2CFF ....
....|..|C#3 2F.7 ....|C#3 UF.7 ....|--- .... ....
....|..|C#3 2F.7 ....|C#4 2F.7 ....|C#3 2FF7 ....
....|..|A#2 2F.A ....|A#3 2F.A ....|A#2 2FFA ....
 A#3|..|A#3 2C.F ....|A#3 2C.F ....|A#3 2CFF ....
....|..|C#3 2F.7 ....|C#3 UF.7 ....|--- .... ....
....|..|A#2 2F.7 ....|A#3 2F.7 ....|A#2 2FF7 ....
....|..|A#2 2F.A ....|A#3 2F.A ....|A#2 2FFA ....
 G-4|..|C-4 AF.F ....|G-3 2C.F ....|G-3 2CFF ....
 G-4|..|G-2 2A.F ....|A#2 UF.7 ....|--- .... ....
....|..|A#2 2F.7 ....|A#3 2F.7 ....|A#2 2FF7 ....
....|..|G-2 2F.A ....|G-3 2F.A ....|G-2 2FFA ....
 G-4|..|G-3 2C.F ....|G-3 2C.F ....|G-3 2CFF ....
....|..|A#2 2F.7 ....|A#2 UF.7 ....|--- .... ....
....|..|G-2 2F.7 ....|G-3 2F.7 ....|G-2 2FF7 ....
....|..|G-2 2F.A ....|G-3 2F.A ....|G-2 2FFA ....
 A#3|..|A#3 2C.F ....|A#3 2C.F ....|A#3 2CFF ....
....|..|G-2 2F.7 ....|G-2 UF.7 ....|--- .... ....
....|..|G-2 2F.7 ....|G-3 2F.7 ....|G-2 2FF7 ....
....|..|A#2 2F.A ....|A#3 2F.A ....|A#2 2FFA ....
 A#3|..|A#3 2C.F ....|A#3 2C.F ....|A#3 2CFF ....
....|..|G-2 2F.7 ....|G-2 UF.7 ....|--- .... ....
....|..|A#2 2F.7 ....|A#3 2F.7 ....|A#2 2FF7 ....
....|..|A#2 2F.A ....|A#3 2F.A ....|A#2 2FFA ....
 C#4|..|C-4 AF.F ....|C#4 2C.F ....|C#4 2CFF ....
 C#4|..|C#3 2C.F ....|A#2 UF.7 ....|--- .... ....
....|..|A#2 2F.7 ....|A#3 2F.7 ....|A#2 2FF7 ....
....|..|C#3 2F.A ....|C#4 2F.A ....|C#3 2FFA ....
 C#4|..|C#4 2C.F ....|C#4 2C.F ....|C#4 2CFF ....
....|..|A#2 2F.7 ....|A#2 UF.7 ....|--- .... ....
....|..|C#3 2F.7 ....|C#4 2F.7 ....|C#3 2FF7 ....
....|..|C#3 2F.A ....|C#4 2F.A ....|C#3 2FFA ....
 G-4|..|A#2 2F.F ....|A#3 2F.F ....|G-4 2CEF ....
 A#3|..|C#3 2F.7 ....|C#3 UF.7 ....|A#2 2CFF ....
....|..|C#3 2F.7 ....|C#4 2F.7 ....|C#3 2FF7 ....
....|..|A#2 2F.A ....|A#3 2F.A ....|G-4 2FEA ....
 G#4|..|A#2 2F.F ....|A#3 2F.F ....|G#4 2CEF ....
....|..|C#3 2F.7 ....|C#3 UF.7 ....|A#2 2FFA ....
....|..|A#2 2F.7 ....|A#3 2F.7 ....|G-4 2FE7 ....
....|..|A#2 2F.A ....|A#3 2F.A ....|G#4 2FEA ....

[Pattern22]
 A#3|..|C-4 AF.F ....|A#4 2C.F ....|A#4 2CEF ....
 A#3|..|A#2 2C.F ....|A#2 UF.7 ....|A#2 2FF7 ....
....|..|A#2 2F.7 ....|A#3 2F.7 ....|G#4 2FE7 ....
....|..|A#2 2F.A ....|A#3 2F.A ....|A#4 2FEA ....
 A#3|..|A#3 2C.F ....|A#3 2C.F ....|A#3 2CFF ....
....|..|A#2 2F.7 ....|A#2 UF.7 ....|A#2 2FFA ....
....|..|A#2 2F.7 ....|A#3 2F.7 ....|A#4 2FE7 ....
....|..|A#2 2F.A ....|A#3 2F.A ....|A#2 2FFA ....
 C#4|..|C-4 AF.F ....|C#4 2C.F ....|C#4 2CFF ....
 C#4|..|C#3 2C.F ....|A#2 UF.7 ....|--- .... ....
....|..|A#2 2F.7 ....|A#3 2F.7 ....|A#2 2FF7 ....
....|..|C#3 2F.A ....|C#4 2F.A ....|C#3 2FFA ....
 C#4|..|C#4 2C.F ....|C#4 2C.F ....|C#4 2CFF ....
....|..|A#2 2F.7 ....|A#2 UF.7 ....|--- .... ....
....|..|C#3 2F.7 ....|C#4 2F.7 ....|C#3 2FF7 ....
....|..|C#3 2F.A ....|C#4 2F.A ....|C#3 2FFA ....
 E-4|..|C-4 AF.F ....|E-4 2C.F ....|E-4 2CFF ....
 E-4|..|E-3 2C.F ....|C#3 UF.7 ....|--- .... ....
....|..|C#3 2F.7 ....|C#4 2F.7 ....|C#3 2FF7 ....
....|..|E-3 2F.A ....|E-4 2F.A ....|E-3 2FFA ....
 E-4|..|E-4 2C.F ....|E-4 2C.F ....|E-4 2CFF ....
....|..|C#3 2F.7 ....|C#3 UF.7 ....|--- .... ....
....|..|E-3 2F.7 ....|E-4 2F.7 ....|E-3 2FF7 ....
....|..|E-3 2F.A ....|E-4 2F.A ....|E-3 2FFA ....
 C#4|..|C#4 2C.F ....|C#4 2C.F ....|C#4 2CFF ....
....|..|E-3 2F.7 ....|E-3 UF.7 ....|--- .... ....
....|..|E-3 2F.7 ....|E-4 2F.7 ....|E-3 2FF7 ....
....|..|C#3 2F.A ....|C#4 2F.A ....|C#3 2FFA ....
 C#4|..|C#4 2C.F ....|C#4 2C.F ....|C#4 2CFF ....
....|..|E-3 2F.7 ....|E-3 UF.7 ....|--- .... ....
....|..|C#3 2F.7 ....|C#4 2F.7 ....|C#3 2FF7 ....
....|..|C#3 2F.A ....|C#4 2F.A ....|C#3 2FFA ....
 A#3|..|C-4 AF.F ....|A#3 2C.F ....|A#3 2CFF ....
 A#3|..|A#2 2C.F ....|C#3 UF.7 ....|--- .... ....
....|..|C#3 2F.7 ....|C#4 2F.7 ....|C#3 2FF7 ....
....|..|A#2 2F.A ....|A#3 2F.A ....|A#2 2FFA ....
 A#3|..|A#3 2C.F ....|A#3 2C.F ....|A#3 2CFF ....
....|..|C#3 2F.7 ....|C#3 UF.7 ....|--- .... ....
....|..|A#2 2F.7 ....|A#3 2F.7 ....|A#2 2FF7 ....
....|..|A#2 2F.A ....|A#3 2F.A ....|A#2 2FFA ....
 C#4|..|C#4 2C.F ....|C#4 2C.F ....|C#4 2CFF ....
....|..|A#2 2F.7 ....|A#2 UF.7 ....|--- .... ....
....|..|A#2 2F.7 ....|A#3 2F.7 ....|A#2 2FF7 ....
....|..|C#3 2F.A ....|C#4 2F.A ....|C#3 2FFA ....
 C#4|..|C#4 2C.F ....|C#4 2C.F ....|C#4 2CFF ....
....|..|A#2 2F.7 ....|A#2 UF.7 ....|--- .... ....
....|..|C#3 2F.7 ....|C#4 2F.7 ....|C#3 2FF7 ....
....|..|C#3 2F.A ....|C#4 2F.A ....|C#3 2FFA ....
 C#4|..|C-4 AF.F ....|E-4 2F.F ....|C#5 2CEF ....
 E-4|..|E-3 2C.F ....|C#3 UF.7 ....|E-3 2CFF ....
....|..|C#3 2F.7 ....|C#4 2F.7 ....|C#3 2FF7 ....
....|..|E-3 2F.A ....|E-4 2F.A ....|C#5 2FEA ....
 A#3|..|E-3 2F.F ....|E-4 2F.F ....|A#4 2CEF ....
....|..|C#3 2F.7 ....|C#3 UF.7 ....|E-3 2FFA ....
....|..|E-3 2F.7 ....|E-4 2F.7 ....|C#5 2FE7 ....
....|..|E-3 2F.A ....|E-4 2F.A ....|A#4 2FEA ....
 G#4|..|C#3 2F.F ....|C#4 2F.F ....|G#4 2CEF ....
....|..|E-3 2F.7 ....|E-3 UF.7 ....|E-3 2FF7 ....
....|..|E-3 2F.7 ....|E-4 2F.7 ....|A#4 2FE7 ....
....|..|C#3 2F.A ....|C#4 2F.A ....|G#4 2FEA ....
 G-4|..|C#3 2F.F ....|C#4 2F.F ....|G-4 2CEF ....
....|..|E-3 2F.7 ....|E-3 UF.7 ....|E-3 2FF7 ....
....|..|C#3 2F.7 ....|C#4 2F.7 ....|G#4 2FE7 ....
....|..|C#3 2F.A ....|C#4 2F.A ....|G-4 2FEA ....
 G#4|..|C-4 AF.F ....|G#4 2C.F ....|G#4 2CEF ....
 G#4|..|G#2 2A.F ....|C#3 UF.7 ....|C#3 2FF7 ....
....|..|C#3 2F.7 ....|C#4 2F.7 ....|G-4 2FE7 ....
....|..|G#2 2F.A ....|G#3 2F.A ....|G#4 2FEA ....
 G#4|..|G#3 2C.F ....|G#3 2C.F ....|G#3 2CFF ....
....|..|C#3 2F.7 ....|C#3 UF.7 ....|G#2 2FFA ....
....|..|G#2 2F.7 ....|G#3 2F.7 ....|G#4 2FE7 ....
....|..|G#2 2F.A ....|G#3 2F.A ....|G#2 2FFA ....
 B-4|..|C-4 AF.F ....|B-3 2C.F ....|B-3 2CFF ....
 B-4|..|B-2 2A.F ....|G#2 UF.7 ....|--- .... ....
....|..|G#2 2F.7 ....|G#3 2F.7 ....|G#2 2FF7 ....
....|..|B-2 2F.A ....|B-3 2F.A ....|B-2 2FFA ....
 B-4|..|B-3 2C.F ....|B-3 2C.F ....|B-3 2CFF ....
....|..|G#2 2F.7 ....|G#2 UF.7 ....|--- .... ....
....|..|B-2 2F.7 ....|B-3 2F.7 ....|B-2 2FF7 ....
....|..|B-2 2F.A ....|B-3 2F.A ....|B-2 2FFA ....
 D#4|..|C-4 AF.F ....|D#4 2C.F ....|D#4 2CFF ....
 D#4|..|D#3 2C.F ....|B-2 UF.7 ....|--- .... ....
....|..|B-2 2F.7 ....|B-3 2F.7 ....|B-2 2FF7 ....
....|..|D#3 2F.A ....|D#4 2F.A ....|D#3 2FFA ....
 D#4|..|D#4 2C.F ....|D#4 2C.F ....|D#4 2CFF ....
....|..|B-2 2F.7 ....|B-2 UF.7 ....|--- .... ....
....|..|D#3 2F.7 ....|D#4 2F.7 ....|D#3 2FF7 ....
....|..|D#3 2F.A ....|D#4 2F.A ....|D#3 2FFA ....
 B-4|..|B-3 2C.F ....|B-3 2C.F ....|B-3 2CFF ....
....|..|D#3 2F.7 ....|D#3 UF.7 ....|--- .... ....
....|..|D#3 2F.7 ....|D#4 2F.7 ....|D#3 2FF7 ....
....|..|B-2 2F.A ....|B-3 2F.A ....|B-2 2FFA ....
 B-4|..|B-3 2C.F ....|B-3 2C.F ....|B-3 2CFF ....
....|..|D#3 2F.7 ....|D#3 UF.7 ....|--- .... ....
....|..|B-2 2F.7 ....|B-3 2F.7 ....|B-2 2FF7 ....
....|..|B-2 2F.A ....|B-3 2F.A ....|B-2 2FFA ....
 G#4|..|C-4 AF.F ....|G#3 2C.F ....|G#3 2CFF ....
 G#4|..|G#2 2A.F ....|B-2 UF.7 ....|--- .... ....
....|..|B-2 2F.7 ....|B-3 2F.7 ....|B-2 2FF7 ....
....|..|G#2 2F.A ....|G#3 2F.A ....|G#2 2FFA ....
 G#4|..|G#3 2C.F ....|G#3 2C.F ....|G#3 2CFF ....
....|..|B-2 2F.7 ....|B-2 UF.7 ....|--- .... ....
....|..|G#2 2F.7 ....|G#3 2F.7 ....|G#2 2FF7 ....
....|..|G#2 2F.A ....|G#3 2F.A ....|G#2 2FFA ....
 B-4|..|B-3 2C.F ....|B-3 2C.F ....|B-3 2CFF ....
....|..|G#2 2F.7 ....|G#2 UF.7 ....|--- .... ....
....|..|G#2 2F.7 ....|G#3 2F.7 ....|G#2 2FF7 ....
....|..|B-2 2F.A ....|B-3 2F.A ....|B-2 2FFA ....
 B-4|..|B-3 2C.F ....|B-3 2C.F ....|B-3 2CFF ....
....|..|G#2 2F.7 ....|G#2 UF.7 ....|--- .... ....
....|..|B-2 2F.7 ....|B-3 2F.7 ....|B-2 2FF7 ....
....|..|B-2 2F.A ....|B-3 2F.A ....|B-2 2FFA ....
 D#4|..|C-4 AF.F ....|D#4 2C.F ....|D#4 2CFF ....
 D#4|..|D#3 2C.F ....|B-2 UF.7 ....|--- .... ....
....|..|B-2 2F.7 ....|B-3 2F.7 ....|B-2 2FF7 ....
....|..|D#3 2F.A ....|D#4 2F.A ....|D#3 2FFA ....
 D#4|..|D#4 2C.F ....|D#4 2C.F ....|D#4 2CFF ....
....|..|B-2 2F.7 ....|B-2 UF.7 ....|--- .... ....
....|..|D#3 2F.7 ....|D#4 2F.7 ....|D#3 2FF7 ....
....|..|D#3 2F.A ....|D#4 2F.A ....|D#3 2FFA ....
 B-4|..|B-3 2C.F ....|B-3 2C.F ....|B-3 2CFF ....
....|..|D#3 2F.7 ....|D#3 UF.7 ....|--- .... ....
....|..|D#3 2F.7 ....|D#4 2F.7 ....|D#3 2FF7 ....
....|..|B-2 2F.A ....|B-3 2F.A ....|B-2 2FFA ....
 B-4|..|B-3 2C.F ....|B-3 2C.F ....|B-3 2CFF ....
....|..|D#3 2F.7 ....|D#3 UF.7 ....|--- .... ....
....|..|B-2 2F.7 ....|B-3 2F.7 ....|B-2 2FF7 ....
....|..|B-2 2F.A ....|B-3 2F.A ....|B-2 2FFA ....

[Pattern23]
 G#4|..|C-4 AF.F ....|G#4 2C.F ....|G#3 2CFF ....
 G#4|..|G#2 2A.F ....|B-2 UF.7 ....|--- .... ....
....|..|B-2 2F.7 ....|B-3 2F.7 ....|B-2 2FF7 ....
....|..|G#2 2F.A ....|G#4 2F.A ....|G#2 2FFA ....
 G#4|..|G#2 2A.F ....|G#2 UF.F ....|G#2 2AFF ....
....|..|B-2 2F.7 ....|G#2 UF.A ....|--- .... ....
....|..|G#2 2F.7 ....|G#4 2F.7 ....|G#2 2FF7 ....
....|..|G#2 2F.A ....|G#2 UF.A ....|G#2 2FFA ....
 B-4|..|C-4 AF.F ....|B-2 UF.F ....|B-2 2AFF ....
 B-4|..|B-2 2A.F ....|--- .... ....|--- .... ....
....|..|G#2 2F.7 ....|G#2 UF.7 ....|G#2 2FF7 ....
....|..|B-2 2F.A ....|B-2 UF.A ....|B-2 2FFA ....
 B-4|..|B-2 2A.F ....|B-2 UF.F ....|B-2 2AFF ....
....|..|G#2 2F.7 ....|--- .... ....|--- .... ....
....|..|B-2 2F.7 ....|B-2 UF.7 ....|B-2 2FF7 ....
....|..|B-2 2F.A ....|B-2 UF.A ....|B-2 2FFA ....
 D#4|..|C-4 AF.F ....|D#3 UF.F ....|D#3 2CFF ....
 D#4|..|D#3 2C.F ....|--- .... ....|--- .... ....
....|..|B-2 2F.7 ....|B-2 UF.7 ....|B-2 2FF7 ....
....|..|D#3 2F.A ....|D#3 UF.A ....|D#3 2FFA ....
 D#4|..|D#3 2C.F ....|D#3 UF.F ....|D#3 2CFF ....
....|..|B-2 2F.7 ....|--- .... ....|--- .... ....
....|..|D#3 2F.7 ....|D#3 UF.7 ....|D#3 2FF7 ....
....|..|D#3 2F.A ....|D#3 UF.A ....|D#3 2FFA ....
 B-4|..|B-2 2A.F ....|B-2 UF.F ....|B-2 2AFF ....
....|..|D#3 2F.7 ....|--- .... ....|--- .... ....
....|..|D#3 2F.7 ....|D#3 UF.7 ....|D#3 2FF7 ....
....|..|B-2 2F.A ....|B-2 UF.A ....|B-2 2FFA ....
 B-4|..|B-2 2A.F ....|B-2 UF.F ....|B-2 2AFF ....
....|..|D#3 2F.7 ....|--- .... ....|--- .... ....
....|..|B-2 2F.7 ....|B-2 UF.7 ....|B-2 2FF7 ....
....|..|B-2 2F.A ....|B-2 UF.A ....|B-2 2FFA ....
 G#4|..|C-4 AF.F ....|G#2 UF.F ....|G#2 2AFF ....
 G#4|..|G#2 2A.F ....|--- .... ....|--- .... ....
....|..|B-2 2F.7 ....|B-2 UF.7 ....|B-2 2FF7 ....
....|..|G#2 2F.A ....|G#2 UF.A ....|G#2 2FFA ....
 G#4|..|G#2 2A.F ....|G#2 UF.F ....|G#2 2AFF ....
....|..|B-2 2F.7 ....|--- .... ....|--- .... ....
....|..|G#2 2F.7 ....|G#2 UF.7 ....|G#2 2FF7 ....
....|..|G#2 2F.A ....|G#2 UF.A ....|G#2 2FFA ....
 B-4|..|B-2 2A.F ....|B-2 UF.F ....|B-2 2AFF ....
....|..|G#2 2F.7 ....|--- .... ....|--- .... ....
....|..|G#2 2F.7 ....|G#2 UF.7 ....|G#2 2FF7 ....
....|..|B-2 2F.A ....|B-2 UF.A ....|B-2 2FFA ....
 B-4|..|B-2 2A.F ....|B-2 UF.F ....|B-2 2AFF ....
....|..|G#2 2F.7 ....|--- .... ....|--- .... ....
....|..|B-2 2F.7 ....|B-2 UF.7 ....|B-2 2FF7 ....
....|..|B-2 2F.A ....|B-2 UF.A ....|B-2 2FFA ....
 D#4|..|C-4 AF.F ....|D#3 UF.F ....|D#3 2CFF ....
 D#4|..|D#3 2C.F ....|--- .... ....|--- .... ....
....|..|B-2 2F.7 ....|B-2 UF.7 ....|B-2 2FF7 ....
....|..|D#3 2F.A ....|D#3 UF.A ....|D#3 2FFA ....
 D#4|..|D#3 2C.F ....|D#3 UF.F ....|D#3 2CFF ....
....|..|B-2 2F.7 ....|--- .... ....|--- .... ....
....|..|D#3 2F.7 ....|D#3 UF.7 ....|D#3 2FF7 ....
....|..|D#3 2F.A ....|D#3 UF.A ....|D#3 2FFA ....
 B-4|..|B-2 2A.F ....|B-2 UF.F ....|B-2 2AFF ....
....|..|D#3 2F.7 ....|--- .... ....|--- .... ....
....|..|D#3 2F.7 ....|D#3 UF.7 ....|D#3 2FF7 ....
....|..|B-2 2F.A ....|B-2 UF.A ....|B-2 2FFA ....
 B-4|..|B-2 2A.F ....|B-2 UF.F ....|B-2 2AFF ....
....|..|D#3 2F.7 ....|--- .... ....|--- .... ....
....|..|B-2 2F.7 ....|B-2 UF.7 ....|B-2 2FF7 ....
....|..|B-2 2F.A ....|B-2 UF.A ....|B-2 2FFA ....
 G-4|..|C-4 AF.F ....|G-4 2C.F ....|G-3 2CFF ....
 G-4|..|G-2 2A.F ....|G-2 UF.F ....|--- .... ....
....|..|B-2 2F.7 ....|B-2 UF.7 ....|B-2 2FF7 ....
....|..|G-2 2F.A ....|G-4 2F.A ....|G-2 2FFA ....
 G-4|..|G-2 2A.F ....|G-2 UF.F ....|G-2 2AFF ....
....|..|B-2 2F.7 ....|--- .... ....|--- .... ....
....|..|G-2 2F.7 ....|G-4 2F.7 ....|G-2 2FF7 ....
....|..|G-2 2F.A ....|G-2 UF.A ....|G-2 2FFA ....
 A#3|..|C-4 AF.F ....|A#2 UF.F ....|A#2 2CFF ....
 A#3|..|A#2 2C.F ....|--- .... ....|--- .... ....
....|..|G-2 2F.7 ....|G-2 UF.7 ....|G-2 2FF7 ....
....|..|A#2 2F.A ....|A#2 UF.A ....|A#2 2FFA ....
 A#3|..|A#2 2C.F ....|A#2 UF.F ....|A#2 2CFF ....
....|..|G-2 2F.7 ....|--- .... ....|--- .... ....
....|..|A#2 2F.7 ....|A#2 UF.7 ....|A#2 2FF7 ....
....|..|A#2 2F.A ....|A#2 UF.A ....|A#2 2FFA ....
 C#4|..|C-4 AF.F ....|C#3 UF.F ....|C#3 2CFF ....
 C#4|..|C#3 2C.F ....|--- .... ....|--- .... ....
....|..|A#2 2F.7 ....|A#2 UF.7 ....|A#2 2FF7 ....
....|..|C#3 2F.A ....|C#3 UF.A ....|C#3 2FFA ....
 C#4|..|C#3 2C.F ....|C#3 UF.F ....|C#3 2CFF ....
....|..|A#2 2F.7 ....|--- .... ....|--- .... ....
....|..|C#3 2F.7 ....|C#3 UF.7 ....|C#3 2FF7 ....
....|..|C#3 2F.A ....|C#3 UF.A ....|C#3 2FFA ....
 A#3|..|A#2 2C.F ....|A#2 UF.F ....|A#2 2CFF ....
....|..|C#3 2F.7 ....|--- .... ....|--- .... ....
....|..|C#3 2F.7 ....|C#3 UF.7 ....|C#3 2FF7 ....
....|..|A#2 2F.A ....|A#2 UF.A ....|A#2 2FFA ....
 A#3|..|A#2 2C.F ....|A#2 UF.F ....|A#2 2CFF ....
....|..|C#3 2F.7 ....|--- .... ....|--- .... ....
....|..|A#2 2F.7 ....|A#2 UF.7 ....|A#2 2FF7 ....
....|..|A#2 2F.A ....|A#2 UF.A ....|A#2 2FFA ....
 G-4|..|C-4 AF.F ....|G-2 UF.F ....|G-2 2AFF ....
 G-4|..|G-2 2A.F ....|--- .... ....|--- .... ....
....|..|A#2 2F.7 ....|A#2 UF.7 ....|A#2 2FF7 ....
....|..|G-2 2F.A ....|G-2 UF.A ....|G-2 2FFA ....
 G-4|..|G-2 2A.F ....|G-2 UF.F ....|G-2 2AFF ....
....|..|A#2 2F.7 ....|--- .... ....|--- .... ....
....|..|G-2 2F.7 ....|G-2 UF.7 ....|G-2 2FF7 ....
....|..|G-2 2F.A ....|G-2 UF.A ....|G-2 2FFA ....
 A#3|..|A#2 2C.F ....|A#2 UF.F ....|A#2 2CFF ....
....|..|G-2 2F.7 ....|--- .... ....|--- .... ....
....|..|G-2 2F.7 ....|G-2 UF.7 ....|G-2 2FF7 ....
....|..|A#2 2F.A ....|A#2 UF.A ....|A#2 2FFA ....
 A#3|..|A#2 2C.F ....|A#2 UF.F ....|A#2 2CFF ....
....|..|G-2 2F.7 ....|--- .... ....|--- .... ....
....|..|A#2 2F.7 ....|A#2 UF.7 ....|A#2 2FF7 ....
....|..|A#2 2F.A ....|A#2 UF.A ....|A#2 2FFA ....
 C#4|..|C-4 AF.F ....|C#3 UF.F ....|C#3 2CFF ....
 C#4|..|C#3 2C.F ....|--- .... ....|--- .... ....
....|..|A#2 2F.7 ....|A#2 UF.7 ....|A#2 2FF7 ....
....|..|C#3 2F.A ....|C#3 UF.A ....|C#3 2FFA ....
 C#4|..|C#3 2C.F ....|C#3 UF.F ....|C#3 2CFF ....
....|..|A#2 2F.7 ....|--- .... ....|--- .... ....
....|..|C#3 2F.7 ....|C#3 UF.7 ....|C#3 2FF7 ....
....|..|C#3 2F.A ....|C#3 UF.A ....|C#3 2FFA ....
 A#3|..|A#2 2C.F ....|A#2 UF.F ....|A#2 2CFF ....
....|..|C#3 2F.7 ....|--- .... ....|--- .... ....
....|..|C#3 2F.7 ....|C#3 UF.7 ....|C#3 2FF7 ....
....|..|A#2 2F.A ....|A#2 UF.A ....|A#2 2FFA ....
 A#3|..|A#2 2C.F ....|A#2 UF.F ....|A#2 2CFF ....
....|..|C#3 2F.7 ....|--- .... ....|--- .... ....
....|..|A#2 2F.7 ....|A#2 UF.7 ....|A#2 2FF7 ....
....|..|A#2 2F.A ....|A#2 UF.A ....|A#2 2FFA ....

[Pattern24]
 A#3|..|C-4 AF.F ....|A#4 2C.F ....|A#3 2CFF ....
 A#3|..|A#2 2C.F ....|A#2 UF.F ....|--- .... ....
....|..|A#2 2F.7 ....|A#2 UF.7 ....|A#2 2FF7 ....
....|..|A#2 2F.A ....|A#4 2F.A ....|A#2 2FFA ....
 A#3|..|A#2 2C.F ....|A#2 UF.F ....|A#2 2CFF ....
....|..|A#2 2F.7 ....|--- .... ....|--- .... ....
....|..|A#2 2F.7 ....|A#4 2F.7 ....|A#2 2FF7 ....
....|..|A#2 2F.A ....|A#2 UF.A ....|A#2 2FFA ....
 C#4|..|C-4 AF.F ....|C#3 UF.F ....|C#3 2CFF ....
 C#4|..|C#3 2C.F ....|--- .... ....|--- .... ....
....|..|A#2 2F.7 ....|A#2 UF.7 ....|A#2 2FF7 ....
....|..|C#3 2F.A ....|C#3 UF.A ....|C#3 2FFA ....
 C#4|..|C#3 2C.F ....|C#3 UF.F ....|C#3 2CFF ....
....|..|A#2 2F.7 ....|--- .... ....|--- .... ....
....|..|C#3 2F.7 ....|C#3 UF.7 ....|C#3 2FF7 ....
....|..|C#3 2F.A ....|C#3 UF.A ....|C#3 2FFA ....
 E-4|..|C-4 AF.F ....|E-3 UF.F ....|E-3 2CFF ....
 E-4|..|E-3 2C.F ....|--- .... ....|--- .... ....
....|..|C#3 2F.7 ....|C#3 UF.7 ....|C#3 2FF7 ....
....|..|E-3 2F.A ....|E-3 UF.A ....|E-3 2FFA ....
 E-4|..|E-3 2C.F ....|E-3 UF.F ....|E-3 2CFF ....
....|..|C#3 2F.7 ....|--- .... ....|--- .... ....
....|..|E-3 2F.7 ....|E-3 UF.7 ....|E-3 2FF7 ....
....|..|E-3 2F.A ....|E-3 UF.A ....|E-3 2FFA ....
 C#4|..|C#3 2C.F ....|C#3 UF.F ....|C#3 2CFF ....
....|..|E-3 2F.7 ....|--- .... ....|--- .... ....
....|..|E-3 2F.7 ....|E-3 UF.7 ....|E-3 2FF7 ....
....|..|C#3 2F.A ....|C#3 UF.A ....|C#3 2FFA ....
 C#4|..|C#3 2C.F ....|C#3 UF.F ....|C#3 2CFF ....
....|..|E-3 2F.7 ....|--- .... ....|--- .... ....
....|..|C#3 2F.7 ....|C#3 UF.7 ....|C#3 2FF7 ....
....|..|C#3 2F.A ....|C#3 UF.A ....|C#3 2FFA ....
 A#3|..|C-4 AF.F ....|A#2 UF.F ....|A#2 2CFF ....
 A#3|..|A#2 2C.F ....|--- .... ....|--- .... ....
....|..|C#3 2F.7 ....|C#3 UF.7 ....|C#3 2FF7 ....
....|..|A#2 2F.A ....|A#2 UF.A ....|A#2 2FFA ....
 A#3|..|A#2 2C.F ....|A#2 UF.F ....|A#2 2CFF ....
....|..|C#3 2F.7 ....|--- .... ....|--- .... ....
....|..|A#2 2F.7 ....|A#2 UF.7 ....|A#2 2FF7 ....
....|..|A#2 2F.A ....|A#2 UF.A ....|A#2 2FFA ....
 C#4|..|C#3 2C.F ....|C#3 UF.F ....|C#3 2CFF ....
....|..|A#2 2F.7 ....|--- .... ....|--- .... ....
....|..|A#2 2F.7 ....|A#2 UF.7 ....|A#2 2FF7 ....
....|..|C#3 2F.A ....|C#3 UF.A ....|C#3 2FFA ....
 C#4|..|C#3 2C.F ....|C#3 UF.F ....|C#3 2CFF ....
....|..|A#2 2F.7 ....|--- .... ....|--- .... ....
....|..|C#3 2F.7 ....|C#3 UF.7 ....|C#3 2FF7 ....
....|..|C#3 2F.A ....|C#3 UF.A ....|C#3 2FFA ....
 E-4|..|C-4 AF.F ....|E-3 UF.F ....|E-3 2CFF ....
 E-4|..|E-3 2C.F ....|--- .... ....|--- .... ....
....|..|C#3 2F.7 ....|C#3 UF.7 ....|C#3 2FF7 ....
....|..|E-3 2F.A ....|E-3 UF.A ....|E-3 2FFA ....
 E-4|..|E-3 2C.F ....|E-3 UF.F ....|E-3 2CFF ....
....|..|C#3 2F.7 ....|--- .... ....|--- .... ....
....|..|E-3 2F.7 ....|E-3 UF.7 ....|E-3 2FF7 ....
....|..|E-3 2F.A ....|E-3 UF.A ....|E-3 2FFA ....
 C#4|..|C#3 2C.F ....|C#3 UF.F ....|C#3 2CFF ....
....|..|E-3 2F.7 ....|--- .... ....|--- .... ....
....|..|E-3 2F.7 ....|E-3 UF.7 ....|E-3 2FF7 ....
....|..|C#3 2F.A ....|C#3 UF.A ....|C#3 2FFA ....
 C#4|..|C#3 2C.F ....|C#3 UF.F ....|C#3 2CFF ....
....|..|E-3 2F.7 ....|--- .... ....|--- .... ....
....|..|C#3 2F.7 ....|C#3 UF.7 ....|C#3 2FF7 ....
....|..|C#3 2F.A ....|C#3 UF.A ....|C#3 2FFA ....
 G#4|..|C-4 AF.F ....|G#4 2C.F ....|G#3 2CFF ....
 G#4|..|G#2 2A.F ....|G#2 UF.F ....|--- .... ....
....|..|C#3 2F.7 ....|C#3 UF.7 ....|C#3 2FF7 ....
....|..|G#2 2F.A ....|G#4 2F.A ....|G#2 2FFA ....
 G#4|..|G#2 2A.F ....|G#2 UF.F ....|G#2 2AFF ....
....|..|C#3 2F.7 ....|--- .... ....|--- .... ....
....|..|G#2 2F.7 ....|G#4 2F.7 ....|G#2 2FF7 ....
....|..|G#2 2F.A ....|G#2 UF.A ....|G#2 2FFA ....
 B-4|..|C-4 AF.F ....|B-2 UF.F ....|B-2 2AFF ....
 B-4|..|B-2 2A.F ....|--- .... ....|--- .... ....
....|..|G#2 2F.7 ....|G#2 UF.7 ....|G#2 2FF7 ....
....|..|B-2 2F.A ....|B-2 UF.A ....|B-2 2FFA ....
 B-4|..|B-2 2A.F ....|B-2 UF.F ....|B-2 2AFF ....
....|..|G#2 2F.7 ....|--- .... ....|--- .... ....
....|..|B-2 2F.7 ....|B-2 UF.7 ....|B-2 2FF7 ....
....|..|B-2 2F.A ....|B-2 UF.A ....|B-2 2FFA ....
 D#4|..|C-4 AF.F ....|D#3 UF.F ....|D#3 2CFF ....
 D#4|..|D#3 2C.F ....|--- .... ....|--- .... ....
....|..|B-2 2F.7 ....|B-2 UF.7 ....|B-2 2FF7 ....
....|..|D#3 2F.A ....|D#3 UF.A ....|D#3 2FFA ....
 D#4|..|D#3 2C.F ....|D#3 UF.F ....|D#3 2CFF ....
....|..|B-2 2F.7 ....|--- .... ....|--- .... ....
....|..|D#3 2F.7 ....|D#3 UF.7 ....|D#3 2FF7 ....
....|..|D#3 2F.A ....|D#3 UF.A ....|D#3 2FFA ....
 B-4|..|B-2 2A.F ....|B-2 UF.F ....|B-2 2AFF ....
....|..|D#3 2F.7 ....|--- .... ....|--- .... ....
....|..|D#3 2F.7 ....|D#3 UF.7 ....|D#3 2FF7 ....
....|..|B-2 2F.A ....|B-2 UF.A ....|B-2 2FFA ....
 B-4|..|B-2 2A.F ....|B-2 UF.F ....|B-2 2AFF ....
....|..|D#3 2F.7 ....|--- .... ....|--- .... ....
....|..|B-2 2F.7 ....|B-2 UF.7 ....|B-2 2FF7 ....
....|..|B-2 2F.A ....|B-2 UF.A ....|B-2 2FFA ....
 G#4|..|C-4 AF.F ....|G#2 UF.F ....|G#2 2AFF ....
 G#4|..|G#2 2A.F ....|--- .... ....|--- .... ....
....|..|B-2 2F.7 ....|B-2 UF.7 ....|B-2 2FF7 ....
....|..|G#2 2F.A ....|G#2 UF.A ....|G#2 2FFA ....
 G#4|..|C-5 VF.F ....|G#2 UF.F ....|G#2 2AFF ....
 G#4|..|G#2 2A.F ....|--- .... ....|--- .... ....
....|..|C-5 VF.F ....|G#2 UF.7 ....|G#2 2FF7 ....
....|..|G#2 2F.A ....|G#2 UF.A ....|G#2 2FFA ....
 B-4|..|C-4 AF.F ....|B-2 UF.F ....|B-2 2AFF ....
 B-4|..|B-2 2A.F ....|--- .... ....|--- .... ....
....|..|G#2 2F.7 ....|G#2 UF.7 ....|G#2 2FF7 ....
....|..|B-2 2F.A ....|B-2 UF.A ....|B-2 2FFA ....
 B-4|..|C-4 CF.F ....|B-2 UF.F ....|B-2 2AFF ....
 B-4|..|B-2 2A.F ....|--- .... ....|--- .... ....
....|..|B-2 2F.7 ....|B-2 UF.7 ....|B-2 2FF7 ....
....|..|B-2 2F.A ....|B-2 UF.A ....|B-2 2FFA ....
 D#4|..|C-4 AF.F ....|D#3 UF.F ....|D#3 2CFF ....
 D#4|..|D#3 2C.F ....|--- .... ....|--- .... ....
....|..|C-5 VF.F ....|B-2 UF.7 ....|B-2 2FF7 ....
....|..|D#3 2F.A ....|D#3 UF.A ....|D#3 2FFA ....
 D#4|..|C-5 VF.F ....|D#3 UF.F ....|D#3 2CFF ....
 D#4|..|D#3 2C.F ....|--- .... ....|--- .... ....
....|..|C-5 VF.F ....|D#3 UF.7 ....|D#3 2FF7 ....
....|..|D#3 2F.A ....|D#3 UF.A ....|D#3 2FFA ....
 B-4|..|C-4 AF.F ....|B-2 UF.F ....|B-2 2AFF ....
 B-4|..|B-2 2A.F ....|--- .... ....|--- .... ....
....|..|D#4 9F.F ....|D#3 UF.7 ....|D#3 2FF7 ....
....|..|B-2 2F.A ....|B-2 UF.A ....|B-2 2FFA ....
 B-4|..|C-4 9F.F ....|B-2 UF.F ....|B-2 2AFF ....
 B-4|..|B-2 2A.F ....|--- .... ....|--- .... ....
....|..|C-4 9F.F ....|B-2 UF.7 ....|B-2 2FF7 ....
....|..|B-2 2F.A ....|B-2 UF.A ....|B-2 2FFA ....

[Pattern25]
 D#4|..|C-4 AF.F ....|D#5 2C.F ....|D#5 2CEF ....
 F#4|..|F#3 2C.F ....|B-3 UF1F ....|F#3 2CFF ....
....|..|B-2 2F.7 ....|B-2 UF.7 ....|B-2 2FF7 ....
....|..|F#3 2F.A ....|D#5 2F.A ....|D#5 2FEA ....
....|..|B-2 2F.7 ....|B-3 UF1A ....|F#3 2FFA ....
....|..|F#3 2F.A ....|--- .... ....|--- .... ....
....|..|F#3 2F.7 ....|D#5 2F.7 ....|D#5 2FE7 ....
....|..|F#3 2F.7 ....|B-3 UF17 ....|F#3 2FF7 ....
....|..|C-4 AF.F ....|--- .... ....|--- .... ....
....|..|--- .... ....|--- .... ....|--- .... ....
....|..|--- .... ....|--- .... ....|--- .... ....
....|..|--- .... ....|--- .... ....|--- .... ....
 D#4|..|C-4 AF.F ....|D#5 2C.F ....|D#5 2CEF ....
 F#4|..|F#3 2C.F ....|B-3 UF1F ....|--- .F.. ....
....|..|--- .... ....|--- .... ....|--- .... ....
....|..|F#3 2F.A ....|D#5 2F.A ....|D#5 2FEA ....
....|..|C-3 RF.F ....|B-3 UF1A ....|--- .... ....
....|..|--- .... ....|--- .... ....|--- .... ....
....|..|F#3 2F.7 ....|D#5 2F.7 ....|D#5 2FE7 ....
....|..|--- .... ....|B-3 UF17 ....|--- .... ....
....|..|C-4 AF.F ....|--- .... ....|--- .... ....
....|..|--- .... ....|--- .... ....|--- .... ....
....|..|--- .... ....|--- .... ....|--- .... ....
....|..|--- .... ....|--- .... ....|--- .... ....
 D#4|..|C-4 AF.F ....|D#5 2C.F ....|D#5 2CEF ....
 F#4|..|F#3 2C.F ....|B-3 UF1F ....|--- .F.. ....
....|..|--- .... ....|--- .... ....|--- .... ....
....|..|F#3 2F.A ....|D#5 2F.A ....|D#5 2FEA ....
....|..|--- .... ....|B-3 UF1A ....|--- .... ....
....|..|--- .... ....|--- .... ....|--- .... ....
....|..|F#3 2F.7 ....|D#5 2F.7 ....|D#5 2FE7 ....
....|..|--- .... ....|B-3 UF17 ....|--- .... ....
 C#4|..|C-4 AF.F ....|C#5 2C.F ....|C#5 2CEF ....
 C#4|..|C#3 2C.F ....|F#3 UF1F ....|C#3 2CFF ....
 C#4|..|C#3 2C.F ....|--- .... ....|--- .... ....
....|..|C#3 2F.A ....|C#5 2F.A ....|C#5 2FEA ....
....|..|C#3 2F.A ....|F#3 UF1A ....|C#3 2FFA ....
....|..|--- .... ....|--- .... ....|--- .... ....
....|..|C#3 2F.7 ....|C#5 2F.7 ....|C#5 2FE7 ....
....|..|C#3 2F.7 ....|F#3 UF17 ....|C#3 2FF7 ....
....|..|C-4 AF.F ....|--- .... ....|--- .... ....
....|..|--- .... ....|--- .... ....|--- .... ....
....|..|--- .... ....|--- .... ....|--- .... ....
....|..|--- .... ....|--- .... ....|--- .... ....
 C#4|..|C-4 AF.F ....|C#5 2C.F ....|C#5 2CEF ....
 C#4|..|C#3 2C.F ....|F#3 UF1F ....|--- .... ....
....|..|--- .... ....|--- .... ....|--- .... ....
....|..|C#3 2F.A ....|C#5 2F.A ....|C#5 2FEA ....
....|..|C-3 RF.F ....|F#3 UF1A ....|--- .... ....
....|..|--- .... ....|--- .... ....|--- .... ....
....|..|C#3 2F.7 ....|C#5 2F.7 ....|C#5 2FE7 ....
....|..|--- .... ....|F#3 UF17 ....|--- .... ....
....|..|C-4 AF.F ....|--- .... ....|--- .... ....
....|..|--- .... ....|--- .... ....|--- .... ....
....|..|--- .... ....|--- .... ....|--- .... ....
....|..|--- .... ....|--- .... ....|--- .... ....
 C#4|..|C-4 AF.F ....|C#5 2C.F ....|C#5 2CEF ....
 C#4|..|C#3 2C.F ....|F#3 UF1F ....|--- .... ....
....|..|--- .... ....|--- .... ....|--- .... ....
....|..|C#3 2F.A ....|C#5 2F.A ....|C#5 2FEA ....
....|..|--- .... ....|F#3 UF1A ....|--- .... ....
....|..|--- .... ....|--- .... ....|--- .... ....
....|..|C#3 2F.7 ....|C#5 2F.7 ....|C#5 2FE7 ....
....|..|--- .... ....|F#3 UF17 ....|--- .... ....
 B-4|..|C-4 AF.F ....|B-4 2C.F ....|B-4 2CEF ....
 D#4|..|D#3 2C.F ....|G#3 UF1F ....|D#3 2CFF ....
 D#4|..|D#3 2C.F ....|--- .... ....|--- .... ....
....|..|D#3 2F.A ....|B-4 2F.A ....|B-4 2FEA ....
....|..|D#3 2F.A ....|G#3 UF1A ....|D#3 2FFA ....
....|..|--- .... ....|--- .... ....|--- .... ....
....|..|D#3 2F.7 ....|B-4 2F.7 ....|B-4 2FE7 ....
....|..|D#3 2F.7 ....|G#3 UF17 ....|D#3 2FF7 ....
....|..|C-4 AF.F ....|--- .... ....|--- .... ....
....|..|--- .... ....|--- .... ....|--- .... ....
....|..|--- .... ....|--- .... ....|--- .... ....
....|..|--- .... ....|--- .... ....|--- .... ....
 B-4|..|C-4 AF.F ....|B-4 2C.F ....|B-4 2CEF ....
 D#4|..|D#3 2C.F ....|G#3 UF1F ....|--- .F.. ....
....|..|--- .... ....|--- .... ....|--- .... ....
....|..|D#3 2F.A ....|B-4 2F.A ....|B-4 2FEA ....
....|..|C-3 RF.F ....|G#3 UF1A ....|--- .... ....
....|..|--- .... ....|--- .... ....|--- .... ....
....|..|D#3 2F.7 ....|B-4 2F.7 ....|B-4 2FE7 ....
....|..|--- .... ....|G#3 UF17 ....|--- .... ....
....|..|C-4 AF.F ....|--- .... ....|--- .... ....
....|..|--- .... ....|--- .... ....|--- .... ....
....|..|--- .... ....|--- .... ....|--- .... ....
....|..|--- .... ....|--- .... ....|--- .... ....
 B-4|..|C-4 AF.F ....|B-4 2C.F ....|B-4 2CEF ....
 D#4|..|D#3 2C.F ....|G#3 UF1F ....|--- .F.. ....
....|..|--- .... ....|--- .... ....|--- .... ....
....|..|D#3 2F.A ....|B-4 2F.A ....|B-4 2FEA ....
....|..|--- .... ....|G#3 UF1A ....|--- .... ....
....|..|--- .... ....|--- .... ....|--- .... ....
....|..|D#3 2F.7 ....|B-4 2F.7 ....|B-4 2FE7 ....
....|..|--- .... ....|G#3 UF17 ....|--- .... ....
 F#3|..|C-4 AF.F ....|F#4 2C.F ....|F#4 2CEF ....
 A#3|..|A#2 2C.F ....|D#3 UF1F ....|A#2 2CFF ....
 A#3|..|A#2 2C.F ....|--- .... ....|--- .... ....
....|..|A#2 2F.A ....|F#4 2F.A ....|F#4 2FEA ....
....|..|A#2 2F.A ....|D#3 UF1A ....|A#2 2FFA ....
....|..|--- .... ....|--- .... ....|--- .... ....
....|..|A#2 2F.7 ....|F#4 2F.7 ....|F#4 2FE7 ....
....|..|A#2 2F.7 ....|D#3 UF17 ....|A#2 2FF7 ....
....|..|C-4 AF.F ....|--- .... ....|--- .... ....
....|..|--- .... ....|--- .... ....|--- .... ....
....|..|--- .... ....|--- .... ....|--- .... ....
....|..|--- .... ....|--- .... ....|--- .... ....
 F#3|..|C-4 AF.F ....|F#4 2C.F ....|F#4 2CEF ....
 A#3|..|A#2 2C.F ....|D#3 UF1F ....|--- .F.. ....
....|..|--- .... ....|--- .... ....|--- .... ....
....|..|A#2 2F.A ....|F#4 2F.A ....|F#4 2FEA ....
....|..|C-3 RF.F ....|D#3 UF1A ....|--- .... ....
....|..|--- .... ....|--- .... ....|--- .... ....
....|..|A#2 2F.7 ....|F#4 2F.7 ....|F#4 2FE7 ....
....|..|--- .... ....|D#3 UF17 ....|--- .... ....
....|..|C-4 AF.F ....|--- .... ....|--- .... ....
....|..|--- .... ....|--- .... ....|--- .... ....
....|..|--- .... ....|--- .... ....|--- .... ....
....|..|--- .... ....|--- .... ....|--- .... ....
 F#3|..|C-4 AF.F ....|F#4 2C.F ....|F#4 2CEF ....
 A#3|..|A#2 2C.F ....|D#3 UF1F ....|--- .F.. ....
....|..|--- .... ....|--- .... ....|--- .... ....
....|..|A#2 2F.A ....|F#4 2F.A ....|F#4 2FEA ....
....|..|--- .... ....|D#3 UF1A ....|--- .... ....
....|..|--- .... ....|--- .... ....|--- .... ....
....|..|A#2 2F.7 ....|F#4 2F.7 ....|F#4 2FE7 ....
....|..|--- .... ....|D#3 UF17 ....|--- .... ....

[Pattern26]
 B-4|..|C-4 AF.F ....|B-4 2C.F ....|B-4 2CEF ....
 D#4|..|D#3 2C.F ....|G#3 UF1F ....|D#3 2CFF ....
 D#4|..|D#3 2C.F ....|--- .... ....|--- .... ....
....|..|D#3 2F.A ....|B-4 2F.A ....|B-4 2FEA ....
....|..|D#3 2F.A ....|G#3 UF1A ....|D#3 2FFA ....
....|..|--- .... ....|--- .... ....|--- .... ....
....|..|D#3 2F.7 ....|B-4 2F.7 ....|B-4 2FE7 ....
....|..|D#3 2F.7 ....|G#3 UF17 ....|D#3 2FF7 ....
....|..|C-4 AF.F ....|--- .... ....|--- .... ....
....|..|--- .... ....|--- .... ....|--- .... ....
....|..|--- .... ....|--- .... ....|--- .... ....
....|..|--- .... ....|--- .... ....|--- .... ....
 B-4|..|C-4 AF.F ....|B-4 2C.F ....|B-4 2CEF ....
 D#4|..|D#3 2C.F ....|G#3 UF1F ....|--- .F.. ....
....|..|--- .... ....|--- .... ....|--- .... ....
....|..|D#3 2F.A ....|B-4 2F.A ....|B-4 2FEA ....
....|..|C-3 RF.F ....|G#3 UF1A ....|--- .... ....
....|..|--- .... ....|--- .... ....|--- .... ....
....|..|D#3 2F.7 ....|B-4 2F.7 ....|B-4 2FE7 ....
....|..|--- .... ....|G#3 UF17 ....|--- .... ....
....|..|C-4 AF.F ....|--- .... ....|--- .... ....
....|..|--- .... ....|--- .... ....|--- .... ....
....|..|--- .... ....|--- .... ....|--- .... ....
....|..|--- .... ....|--- .... ....|--- .... ....
 B-4|..|C-4 AF.F ....|B-4 2C.F ....|B-4 2CEF ....
 D#4|..|D#3 2C.F ....|G#3 UF1F ....|--- .F.. ....
....|..|--- .... ....|--- .... ....|--- .... ....
....|..|D#3 2F.A ....|B-4 2F.A ....|B-4 2FEA ....
....|..|--- .... ....|G#3 UF1A ....|--- .... ....
....|..|--- .... ....|--- .... ....|--- .... ....
....|..|D#3 2F.7 ....|B-4 2F.7 ....|B-4 2FE7 ....
....|..|--- .... ....|G#3 UF17 ....|--- .... ....
 F#3|..|C-4 AF.F ....|F#4 2C.F ....|F#4 2CEF ....
 A#3|..|A#2 2C.F ....|D#3 UF1F ....|A#2 2CFF ....
 A#3|..|A#2 2C.F ....|--- .... ....|--- .... ....
....|..|A#2 2F.A ....|F#4 2F.A ....|F#4 2FEA ....
....|..|A#2 2F.A ....|D#3 UF1A ....|A#2 2FFA ....
....|..|--- .... ....|--- .... ....|--- .... ....
....|..|A#2 2F.7 ....|F#4 2F.7 ....|F#4 2FE7 ....
....|..|A#2 2F.7 ....|D#3 UF17 ....|A#2 2FF7 ....
....|..|C-4 AF.F ....|--- .... ....|--- .... ....
....|..|--- .... ....|--- .... ....|--- .... ....
....|..|--- .... ....|--- .... ....|--- .... ....
....|..|--- .... ....|--- .... ....|--- .... ....
 F#3|..|C-4 AF.F ....|F#4 2C.F ....|F#4 2CEF ....
 A#3|..|A#2 2C.F ....|D#3 UF1F ....|--- .F.. ....
....|..|--- .... ....|--- .... ....|--- .... ....
....|..|A#2 2F.A ....|F#4 2F.A ....|F#4 2FEA ....
....|..|C-3 RF.F ....|D#3 UF1A ....|--- .... ....
....|..|--- .... ....|--- .... ....|--- .... ....
....|..|A#2 2F.7 ....|F#4 2F.7 ....|F#4 2FE7 ....
....|..|--- .... ....|D#3 UF17 ....|--- .... ....
....|..|C-4 AF.F ....|--- .... ....|--- .... ....
....|..|--- .... ....|--- .... ....|--- .... ....
....|..|--- .... ....|--- .... ....|--- .... ....
....|..|--- .... ....|--- .... ....|--- .... ....
 F#3|..|C-4 AF.F ....|F#4 2C.F ....|F#4 2CEF ....
 A#3|..|A#2 2C.F ....|D#3 UF1F ....|--- .F.. ....
....|..|--- .... ....|--- .... ....|--- .... ....
....|..|A#2 2F.A ....|F#4 2F.A ....|F#4 2FEA ....
....|..|--- .... ....|D#3 UF1A ....|--- .... ....
....|..|--- .... ....|--- .... ....|--- .... ....
....|..|A#2 2F.7 ....|F#4 2F.7 ....|F#4 2FE7 ....
....|..|--- .... ....|D#3 UF17 ....|--- .... ....
 A#3|..|C-4 AF.F ....|A#4 2C.F ....|A#4 2CEF ....
 C#4|..|C#3 2C.F ....|F#3 UF1F ....|C#3 2CFF ....
 C#4|..|C#3 2C.F ....|--- .... ....|--- .... ....
....|..|C#3 2F.A ....|A#4 2F.A ....|A#4 2FEA ....
....|..|C#3 2F.A ....|F#3 UF1A ....|C#3 2FFA ....
....|..|--- .... ....|--- .... ....|--- .... ....
....|..|C#3 2F.7 ....|A#4 2F.7 ....|A#4 2FE7 ....
....|..|C#3 2F.7 ....|F#3 UF17 ....|C#3 2FF7 ....
....|..|C-4 AF.F ....|--- .... ....|--- .... ....
....|..|--- .... ....|--- .... ....|--- .... ....
....|..|--- .... ....|--- .... ....|--- .... ....
....|..|--- .... ....|--- .... ....|--- .... ....
 C#4|..|C-4 AF.F ....|F#3 UF1F ....|C#3 2CFF ....
 C#4|..|C#3 2C.F ....|--- .... ....|--- .... ....
 C#4|..|C#3 2C.F ....|--- .... ....|--- .... ....
....|..|C#3 2F.A ....|F#3 UF1A ....|C#3 2FFA ....
 C#4|..|C-3 RF.F ....|F#3 UF1F ....|C#3 2CFF ....
 C#4|..|C#3 2C.F ....|--- .... ....|--- .... ....
....|..|C#3 2F.7 ....|F#3 UF17 ....|C#3 2FF7 ....
....|..|C#3 2F.A ....|F#3 UF1A ....|C#3 2FFA ....
 C#4|..|C-4 AF.F ....|F#3 UF1F ....|C#3 2CFF ....
 C#4|..|C#3 2C.F ....|--- .... ....|--- .... ....
....|..|C#3 2F.7 ....|F#3 UF17 ....|C#3 2FF7 ....
....|..|C#3 2F.A ....|F#3 UF1A ....|C#3 2FFA ....
 C#4|..|C-4 AF.F ....|F#3 UF1F ....|C#3 2CFF ....
 C#4|..|C#3 2C.F ....|--- .... ....|--- .... ....
....|..|C#3 2F.7 ....|F#3 UF17 ....|C#3 2FF7 ....
....|..|C#3 2F.A ....|F#3 UF1A ....|C#3 2FFA ....
 C#4|..|C#3 2C.F ....|F#3 UF1F ....|C#3 2CFF ....
....|..|C#3 2F.7 ....|--- .... ....|--- .... ....
....|..|C#3 2F.7 ....|F#3 UF17 ....|C#3 2FF7 ....
....|..|C#3 2F.A ....|F#3 UF1A ....|C#3 2FFA ....
 C#4|..|C-4 AF.F ....|C#5 2C.F ....|C#5 2CEF ....
 C#4|..|C#3 2C.F ....|F#3 UF1F ....|C#3 2CFF ....
....|..|C#3 2F.7 ....|F#3 UF17 ....|C#3 2FF7 ....
....|..|C#3 2F.A ....|C#5 2F.A ....|C#5 2FEA ....
 C#4|..|C#3 2C.F ....|F#3 UF1F ....|C#3 2CFF ....
....|..|C#3 2F.7 ....|--- .... ....|--- .... ....
....|..|C#3 2F.7 ....|C#5 2F.7 ....|C#5 2FE7 ....
....|..|C#3 2F.A ....|F#3 UF1A ....|C#3 2FFA ....
 C#4|..|C-4 AF.F ....|F#3 UF1F ....|C#3 2CFF ....
 C#4|..|C#3 2C.F ....|--- .... ....|--- .... ....
....|..|C#3 2F.7 ....|F#3 UF17 ....|C#3 2FF7 ....
....|..|C#3 2F.A ....|F#3 UF1A ....|C#3 2FFA ....
 B-4|..|C-4 AF.F ....|B-4 2C.F ....|B-4 2CEF ....
 C#4|..|C#3 2C.F ....|F#3 UF1F ....|C#3 2CFF ....
....|..|C#3 2F.7 ....|F#3 UF17 ....|C#3 2FF7 ....
....|..|C#3 2F.A ....|B-4 2F.A ....|B-4 2FEA ....
 C#4|..|C-5 VF.F ....|F#3 UF1F ....|C#3 2CFF ....
 C#4|..|C#3 2C.F ....|--- .... ....|--- .... ....
....|..|C-5 VF.F ....|B-4 2F.7 ....|B-4 2FE7 ....
....|..|C#3 2F.A ....|F#3 UF1A ....|C#3 2FFA ....
 C#4|..|C-4 AF.F ....|F#3 UF1F ....|C#3 2CFF ....
 C#4|..|C#3 2C.F ....|--- .... ....|--- .... ....
....|..|C-5 VF.F ....|F#3 UF17 ....|C#3 2FF7 ....
....|..|C#3 2F.A ....|F#3 UF1A ....|C#3 2FFA ....
 A#3|..|C-4 AF.F ....|A#4 2C.F ....|A#4 2CEF ....
 C#4|..|C#3 2C.F ....|F#3 UF1F ....|C#3 2CFF ....
....|..|C#3 2F.7 ....|F#3 UF17 ....|C#3 2FF7 ....
....|..|C#3 2F.A ....|A#4 2F.A ....|A#4 2FEA ....
 C#4|..|C-4 CF.F ....|F#3 UF1F ....|C#3 2CFF ....
 C#4|..|C#3 2C.F ....|--- .... ....|--- .... ....
....|..|C#3 2F.7 ....|A#4 2F.7 ....|A#4 2FE7 ....
....|..|C#3 2F.A ....|F#3 UF1A ....|C#3 2FFA ....

[Pattern27]
 D#4|..|C-4 AF.F ....|D#5 2C.F ....|D#5 2CEF ....
 F#4|..|F#3 2C.F ....|B-3 UF1F ....|F#3 2CFF ....
....|..|C#3 2F.7 ....|F#3 UF17 ....|C#3 2FF7 ....
....|..|F#3 2F.A ....|D#5 2F.A ....|D#5 2FEA ....
....|..|C#3 2F.7 ....|B-3 UF1A ....|F#3 2FFA ....
....|..|F#3 2F.A ....|--- .... ....|--- .... ....
....|..|F#3 2F.7 ....|D#5 2F.7 ....|D#5 2FE7 ....
....|..|F#3 2F.7 ....|B-3 UF17 ....|F#3 2FF7 ....
....|..|C-4 AF.F ....|--- .... ....|--- .... ....
....|..|--- .... ....|--- .... ....|--- .... ....
....|..|--- .... ....|--- .... ....|--- .... ....
....|..|--- .... ....|--- .... ....|--- .... ....
 D#4|..|C-4 AF.F ....|D#5 2C.F ....|D#5 2CEF ....
 F#4|..|F#3 2C.F ....|B-3 UF1F ....|--- .F.. ....
....|..|--- .... ....|--- .... ....|--- .... ....
....|..|F#3 2F.A ....|D#5 2F.A ....|D#5 2FEA ....
....|..|C-3 RF.F ....|B-3 UF1A ....|--- .... ....
....|..|--- .... ....|--- .... ....|--- .... ....
....|..|F#3 2F.7 ....|D#5 2F.7 ....|D#5 2FE7 ....
....|..|--- .... ....|B-3 UF17 ....|--- .... ....
....|..|C-4 AF.F ....|--- .... ....|--- .... ....
....|..|--- .... ....|--- .... ....|--- .... ....
....|..|--- .... ....|--- .... ....|--- .... ....
....|..|--- .... ....|--- .... ....|--- .... ....
 D#4|..|C-4 AF.F ....|D#5 2C.F ....|D#5 2CEF ....
 F#4|..|F#3 2C.F ....|B-3 UF1F ....|--- .F.. ....
....|..|--- .... ....|--- .... ....|--- .... ....
....|..|F#3 2F.A ....|D#5 2F.A ....|D#5 2FEA ....
....|..|--- .... ....|B-3 UF1A ....|--- .... ....
....|..|--- .... ....|--- .... ....|--- .... ....
....|..|F#3 2F.7 ....|D#5 2F.7 ....|D#5 2FE7 ....
....|..|--- .... ....|B-3 UF17 ....|--- .... ....
 C#4|..|C-4 AF.F ....|C#5 2C.F ....|C#5 2CEF ....
 C#4|..|C#3 2C.F ....|F#3 UF1F ....|C#3 2CFF ....
 C#4|..|C#3 2C.F ....|--- .... ....|--- .... ....
....|..|C#3 2F.A ....|C#5 2F.A ....|C#5 2FEA ....
....|..|C#3 2F.A ....|F#3 UF1A ....|C#3 2FFA ....
....|..|--- .... ....|--- .... ....|--- .... ....
....|..|C#3 2F.7 ....|C#5 2F.7 ....|C#5 2FE7 ....
....|..|C#3 2F.7 ....|F#3 UF17 ....|C#3 2FF7 ....
....|..|C-4 AF.F ....|--- .... ....|--- .... ....
....|..|--- .... ....|--- .... ....|--- .... ....
....|..|--- .... ....|--- .... ....|--- .... ....
....|..|--- .... ....|--- .... ....|--- .... ....
 C#4|..|C-4 AF.F ....|C#5 2C.F ....|C#5 2CEF ....
 C#4|..|C#3 2C.F ....|F#3 UF1F ....|--- .... ....
....|..|--- .... ....|--- .... ....|--- .... ....
....|..|C#3 2F.A ....|C#5 2F.A ....|C#5 2FEA ....
....|..|C-3 RF.F ....|F#3 UF1A ....|--- .... ....
....|..|--- .... ....|--- .... ....|--- .... ....
....|..|C#3 2F.7 ....|C#5 2F.7 ....|C#5 2FE7 ....
....|..|--- .... ....|F#3 UF17 ....|--- .... ....
....|..|C-4 AF.F ....|--- .... ....|--- .... ....
....|..|--- .... ....|--- .... ....|--- .... ....
....|..|--- .... ....|--- .... ....|--- .... ....
....|..|--- .... ....|--- .... ....|--- .... ....
 C#4|..|C-4 AF.F ....|C#5 2C.F ....|C#5 2CEF ....
 C#4|..|C#3 2C.F ....|F#3 UF1F ....|--- .... ....
....|..|--- .... ....|--- .... ....|--- .... ....
....|..|C#3 2F.A ....|C#5 2F.A ....|C#5 2FEA ....
....|..|--- .... ....|F#3 UF1A ....|--- .... ....
....|..|--- .... ....|--- .... ....|--- .... ....
....|..|C#3 2F.7 ....|C#5 2F.7 ....|C#5 2FE7 ....
....|..|--- .... ....|F#3 UF17 ....|--- .... ....
 B-4|..|C-4 AF.F ....|B-4 2C.F ....|B-4 2CEF ....
 D#4|..|D#3 2C.F ....|G#3 UF1F ....|D#3 2CFF ....
 D#4|..|D#3 2C.F ....|--- .... ....|--- .... ....
....|..|D#3 2F.A ....|B-4 2F.A ....|B-4 2FEA ....
....|..|D#3 2F.A ....|G#3 UF1A ....|D#3 2FFA ....
....|..|--- .... ....|--- .... ....|--- .... ....
....|..|D#3 2F.7 ....|B-4 2F.7 ....|B-4 2FE7 ....
....|..|D#3 2F.7 ....|G#3 UF17 ....|D#3 2FF7 ....
....|..|C-4 AF.F ....|--- .... ....|--- .... ....
....|..|--- .... ....|--- .... ....|--- .... ....
....|..|--- .... ....|--- .... ....|--- .... ....
....|..|--- .... ....|--- .... ....|--- .... ....
 B-4|..|C-4 AF.F ....|B-4 2C.F ....|B-4 2CEF ....
 D#4|..|D#3 2C.F ....|G#3 UF1F ....|--- .F.. ....
....|..|--- .... ....|--- .... ....|--- .... ....
....|..|D#3 2F.A ....|B-4 2F.A ....|B-4 2FEA ....
....|..|C-3 RF.F ....|G#3 UF1A ....|--- .... ....
....|..|--- .... ....|--- .... ....|--- .... ....
....|..|D#3 2F.7 ....|B-4 2F.7 ....|B-4 2FE7 ....
....|..|--- .... ....|G#3 UF17 ....|--- .... ....
....|..|C-4 AF.F ....|--- .... ....|--- .... ....
....|..|--- .... ....|--- .... ....|--- .... ....
....|..|--- .... ....|--- .... ....|--- .... ....
....|..|--- .... ....|--- .... ....|--- .... ....
 B-4|..|C-4 AF.F ....|B-4 2C.F ....|B-4 2CEF ....
 D#4|..|D#3 2C.F ....|G#3 UF1F ....|--- .F.. ....
....|..|--- .... ....|--- .... ....|--- .... ....
....|..|D#3 2F.A ....|B-4 2F.A ....|B-4 2FEA ....
....|..|--- .... ....|G#3 UF1A ....|--- .... ....
....|..|--- .... ....|--- .... ....|--- .... ....
....|..|D#3 2F.7 ....|B-4 2F.7 ....|B-4 2FE7 ....
....|..|--- .... ....|G#3 UF17 ....|--- .... ....
 F#3|..|C-4 AF.F ....|F#4 2C.F ....|F#4 2CEF ....
 A#3|..|A#2 2C.F ....|D#3 UF1F ....|A#2 2CFF ....
 A#3|..|A#2 2C.F ....|--- .... ....|--- .... ....
....|..|A#2 2F.A ....|F#4 2F.A ....|F#4 2FEA ....
....|..|A#2 2F.A ....|D#3 UF1A ....|A#2 2FFA ....
....|..|--- .... ....|--- .... ....|--- .... ....
....|..|A#2 2F.7 ....|F#4 2F.7 ....|F#4 2FE7 ....
....|..|A#2 2F.7 ....|D#3 UF17 ....|A#2 2FF7 ....
....|..|C-4 AF.F ....|--- .... ....|--- .... ....
....|..|--- .... ....|--- .... ....|--- .... ....
....|..|--- .... ....|--- .... ....|--- .... ....
....|..|--- .... ....|--- .... ....|--- .... ....
 F#3|..|C-4 AF.F ....|F#4 2C.F ....|F#4 2CEF ....
 A#3|..|A#2 2C.F ....|D#3 UF1F ....|--- .F.. ....
....|..|--- .... ....|--- .... ....|--- .... ....
....|..|A#2 2F.A ....|F#4 2F.A ....|F#4 2FEA ....
....|..|C-3 RF.F ....|D#3 UF1A ....|--- .... ....
....|..|--- .... ....|--- .... ....|--- .... ....
....|..|A#2 2F.7 ....|F#4 2F.7 ....|F#4 2FE7 ....
....|..|--- .... ....|D#3 UF17 ....|--- .... ....
....|..|C-4 AF.F ....|--- .... ....|--- .... ....
....|..|--- .... ....|--- .... ....|--- .... ....
....|..|--- .... ....|--- .... ....|--- .... ....
....|..|--- .... ....|--- .... ....|--- .... ....
 F#3|..|C-4 AF.F ....|F#4 2C.F ....|F#4 2CEF ....
 A#3|..|A#2 2C.F ....|D#3 UF1F ....|--- .F.. ....
....|..|--- .... ....|--- .... ....|--- .... ....
....|..|A#2 2F.A ....|F#4 2F.A ....|F#4 2FEA ....
....|..|--- .... ....|D#3 UF1A ....|--- .... ....
....|..|--- .... ....|--- .... ....|--- .... ....
....|..|A#2 2F.7 ....|F#4 2F.7 ....|F#4 2FE7 ....
....|..|--- .... ....|D#3 UF17 ....|--- .... ....

[Pattern28]
 B-4|..|C-4 AF.F ....|B-4 2C.F ....|B-4 2CEF ....
 D#4|..|D#3 2C.F ....|G#3 UF1F ....|D#3 2CFF ....
 D#4|..|D#3 2C.F ....|--- .... ....|--- .... ....
....|..|D#3 2F.A ....|B-4 2F.A ....|B-4 2FEA ....
....|..|D#3 2F.A ....|G#3 UF1A ....|D#3 2FFA ....
....|..|--- .... ....|--- .... ....|--- .... ....
....|..|D#3 2F.7 ....|B-4 2F.7 ....|B-4 2FE7 ....
....|..|D#3 2F.7 ....|G#3 UF17 ....|D#3 2FF7 ....
....|..|C-4 AF.F ....|--- .... ....|--- .... ....
....|..|--- .... ....|--- .... ....|--- .... ....
....|..|--- .... ....|--- .... ....|--- .... ....
....|..|--- .... ....|--- .... ....|--- .... ....
 B-4|..|C-4 AF.F ....|B-4 2C.F ....|B-4 2CEF ....
 D#4|..|D#3 2C.F ....|G#3 UF1F ....|--- .F.. ....
....|..|--- .... ....|--- .... ....|--- .... ....
....|..|D#3 2F.A ....|B-4 2F.A ....|B-4 2FEA ....
....|..|C-3 RF.F ....|G#3 UF1A ....|--- .... ....
....|..|--- .... ....|--- .... ....|--- .... ....
....|..|D#3 2F.7 ....|B-4 2F.7 ....|B-4 2FE7 ....
....|..|--- .... ....|G#3 UF17 ....|--- .... ....
....|..|C-4 AF.F ....|--- .... ....|--- .... ....
....|..|--- .... ....|--- .... ....|--- .... ....
....|..|--- .... ....|--- .... ....|--- .... ....
....|..|--- .... ....|--- .... ....|--- .... ....
 B-4|..|C-4 AF.F ....|B-4 2C.F ....|B-4 2CEF ....
 D#4|..|D#3 2C.F ....|G#3 UF1F ....|--- .F.. ....
....|..|--- .... ....|--- .... ....|--- .... ....
....|..|D#3 2F.A ....|B-4 2F.A ....|B-4 2FEA ....
....|..|--- .... ....|G#3 UF1A ....|--- .... ....
....|..|--- .... ....|--- .... ....|--- .... ....
....|..|D#3 2F.7 ....|B-4 2F.7 ....|B-4 2FE7 ....
....|..|--- .... ....|G#3 UF17 ....|--- .... ....
 F#3|..|C-4 AF.F ....|F#4 2C.F ....|F#4 2CEF ....
 A#3|..|A#2 2C.F ....|D#3 UF1F ....|A#2 2CFF ....
 A#3|..|A#2 2C.F ....|--- .... ....|--- .... ....
....|..|A#2 2F.A ....|F#4 2F.A ....|F#4 2FEA ....
....|..|A#2 2F.A ....|D#3 UF1A ....|A#2 2FFA ....
....|..|--- .... ....|--- .... ....|--- .... ....
....|..|A#2 2F.7 ....|F#4 2F.7 ....|F#4 2FE7 ....
....|..|A#2 2F.7 ....|D#3 UF17 ....|A#2 2FF7 ....
....|..|C-4 AF.F ....|--- .... ....|--- .... ....
....|..|--- .... ....|--- .... ....|--- .... ....
....|..|--- .... ....|--- .... ....|--- .... ....
....|..|--- .... ....|--- .... ....|--- .... ....
 F#3|..|C-4 AF.F ....|F#4 2C.F ....|F#4 2CEF ....
 A#3|..|A#2 2C.F ....|D#3 UF1F ....|--- .F.. ....
....|..|--- .... ....|--- .... ....|--- .... ....
....|..|A#2 2F.A ....|F#4 2F.A ....|F#4 2FEA ....
....|..|C-3 RF.F ....|D#3 UF1A ....|--- .... ....
....|..|--- .... ....|--- .... ....|--- .... ....
....|..|A#2 2F.7 ....|F#4 2F.7 ....|F#4 2FE7 ....
....|..|--- .... ....|D#3 UF17 ....|--- .... ....
....|..|C-4 AF.F ....|--- .... ....|--- .... ....
....|..|--- .... ....|--- .... ....|--- .... ....
....|..|--- .... ....|--- .... ....|--- .... ....
....|..|--- .... ....|--- .... ....|--- .... ....
 F#3|..|C-4 AF.F ....|F#4 2C.F ....|F#4 2CEF ....
 A#3|..|A#2 2C.F ....|D#3 UF1F ....|--- .F.. ....
....|..|--- .... ....|--- .... ....|--- .... ....
....|..|A#2 2F.A ....|F#4 2F.A ....|F#4 2FEA ....
....|..|--- .... ....|D#3 UF1A ....|--- .... ....
....|..|--- .... ....|--- .... ....|--- .... ....
....|..|A#2 2F.7 ....|F#4 2F.7 ....|F#4 2FE7 ....
....|..|--- .... ....|D#3 UF17 ....|--- .... ....
 A#3|..|C-4 AF.F ....|A#4 2C.F ....|A#4 2CEF ....
 C#4|..|C#3 2C.F ....|F#3 UF1F ....|C#3 2CFF ....
 C#4|..|C#3 2C.F ....|--- .... ....|--- .... ....
....|..|C#3 2F.A ....|A#4 2F.A ....|A#4 2FEA ....
....|..|C#3 2F.A ....|F#3 UF1A ....|C#3 2FFA ....
....|..|--- .... ....|--- .... ....|--- .... ....
....|..|C#3 2F.7 ....|A#4 2F.7 ....|A#4 2FE7 ....
....|..|C#3 2F.7 ....|F#3 UF17 ....|C#3 2FF7 ....
....|..|C-4 AF.F ....|--- .... ....|--- .... ....
....|..|--- .... ....|--- .... ....|--- .... ....
....|..|--- .... ....|--- .... ....|--- .... ....
....|..|--- .... ....|--- .... ....|--- .... ....
 C#4|..|C-4 AF.F ....|F#3 UF1F ....|C#3 2CFF ....
 C#4|..|C#3 2C.F ....|--- .... ....|--- .... ....
 C#4|..|C#3 2C.F ....|--- .... ....|--- .... ....
....|..|C#3 2F.A ....|F#3 UF1A ....|C#3 2FFA ....
 C#4|..|C-3 RF.F ....|F#3 UF1F ....|C#3 2CFF ....
 C#4|..|C#3 2C.F ....|--- .... ....|--- .... ....
....|..|C#3 2F.7 ....|F#3 UF17 ....|C#3 2FF7 ....
....|..|C#3 2F.A ....|F#3 UF1A ....|C#3 2FFA ....
 C#4|..|C-4 AF.F ....|F#3 UF1F ....|C#3 2CFF ....
 C#4|..|C#3 2C.F ....|--- .... ....|--- .... ....
....|..|C#3 2F.7 ....|F#3 UF17 ....|C#3 2FF7 ....
....|..|C#3 2F.A ....|F#3 UF1A ....|C#3 2FFA ....
 C#4|..|C-4 AF.F ....|F#3 UF1F ....|C#3 2CFF ....
 C#4|..|C#3 2C.F ....|--- .... ....|--- .... ....
....|..|C#3 2F.7 ....|F#3 UF17 ....|C#3 2FF7 ....
....|..|C#3 2F.A ....|F#3 UF1A ....|C#3 2FFA ....
 C#4|..|C#3 2C.F ....|F#3 UF1F ....|C#3 2CFF ....
....|..|C#3 2F.7 ....|--- .... ....|--- .... ....
....|..|C#3 2F.7 ....|F#3 UF17 ....|C#3 2FF7 ....
....|..|C#3 2F.A ....|F#3 UF1A ....|C#3 2FFA ....
 C#4|..|C-4 AF.F ....|C#5 2C.F ....|C#5 2CEF ....
 C#4|..|C#3 2C.F ....|F#3 UF1F ....|C#3 2CFF ....
....|..|C#3 2F.7 ....|F#3 UF17 ....|C#3 2FF7 ....
....|..|C#3 2F.A ....|C#5 2F.A ....|C#5 2FEA ....
 C#4|..|C-5 VF.F ....|F#3 UF1F ....|C#3 2CFF ....
 C#4|..|C#3 2C.F ....|--- .... ....|--- .... ....
....|..|C-5 VF.F ....|C#5 2F.7 ....|C#5 2FE7 ....
....|..|C#3 2F.A ....|F#3 UF1A ....|C#3 2FFA ....
 C#4|..|C-4 AF.F ....|F#3 UF1F ....|C#3 2CFF ....
 C#4|..|C#3 2C.F ....|--- .... ....|--- .... ....
....|..|C#3 2F.7 ....|F#3 UF17 ....|C#3 2FF7 ....
....|..|C#3 2F.A ....|F#3 UF1A ....|C#3 2FFA ....
 B-4|..|C-4 CF.F ....|B-4 2C.F ....|B-4 2CEF ....
 C#4|..|C#3 2C.F ....|F#3 UF1F ....|C#3 2CFF ....
....|..|C#3 2F.7 ....|F#3 UF17 ....|C#3 2FF7 ....
....|..|C#3 2F.A ....|B-4 2F.A ....|B-4 2FEA ....
 C#4|..|C-4 AF.F ....|F#3 UF1F ....|C#3 2CFF ....
 C#4|..|C#3 2C.F ....|--- .... ....|--- .... ....
....|..|C-5 VF.F ....|B-4 2F.7 ....|B-4 2FE7 ....
....|..|C#3 2F.A ....|F#3 UF1A ....|C#3 2FFA ....
 C#4|..|C-5 VF.F ....|F#3 UF1F ....|C#3 2CFF ....
 C#4|..|C#3 2C.F ....|--- .... ....|--- .... ....
....|..|C-5 VF.F ....|F#3 UF17 ....|C#3 2FF7 ....
....|..|C#3 2F.A ....|F#3 UF1A ....|C#3 2FFA ....
 A#3|..|C-4 AF.F ....|A#4 2C.F ....|A#4 2CEF ....
 C#4|..|C#3 2C.F ....|F#3 UF1F ....|C#3 2CFF ....
....|..|C#3 2F.7 ....|F#3 UF17 ....|C#3 2FF7 ....
....|..|C#3 2F.A ....|A#4 2F.A ....|A#4 2FEA ....
 C#4|..|C-4 9F.F ....|F#3 UF1F ....|C#3 2CFF ....
 C#4|..|C#3 2C.F ....|--- .... ....|--- .... ....
....|..|C#3 2F.7 ....|A#4 2F.7 ....|A#4 2FE7 ....
....|..|C#3 2F.A ....|F#3 UF1A ....|C#3 2FFA ....

[Pattern29]
 D#4|..|C-4 AF.F ....|G#2 UF.F ....|D#5 2CFF ....
 D#4|..|D#5 2C.F ....|--- .... ....|--- .... ....
 C#4|..|C#5 2C.F ....|F#3 UF17 ....|C#5 2CFF ....
....|..|D#5 2F.A ....|G#2 UF.A ....|D#5 2FFA ....
 B-4|..|C-3 RF.F ....|G#2 UF.F ....|B-4 2CFF ....
 B-4|..|B-4 2C.F ....|--- .... ....|C#5 2FFA ....
 A#3|..|A#4 2C.F ....|G#2 UF.7 ....|A#4 2CFF ....
....|..|B-4 2F.A ....|G#2 UF.A ....|B-4 2FFA ....
 G#4|..|C-4 AF.F ....|B-2 UF.F ....|G#4 2CFF ....
 G#4|..|G#4 2C.F ....|--- .... ....|A#4 2FFA ....
....|..|A#4 2F.A ....|G#2 UF.7 ....|B-4 2FF7 ....
....|..|G#4 2F.A ....|B-2 UF.A ....|G#4 2FFA ....
....|..|C-4 CF.F ....|B-2 UF.F ....|A#4 2FF7 ....
....|..|A#4 2F.7 ....|--- .... ....|--- .... ....
....|..|G#4 2F.7 ....|B-2 UF.7 ....|G#4 2FF7 ....
 B-4|..|B-2 2A.F ....|B-2 UF.A ....|--- .... ....
 D#4|..|C-4 AF.F ....|D#5 2C.F ....|R-- .... ....
....|..|B-2 2F.7 ....|D#3 UF.F ....|--- .... ....
 C#4|..|B-2 2F.A ....|C#5 2C.F ....|--- .... ....
 D#4|..|D#3 2C.F ....|D#5 2F.A ....|R-- .... ....
 B-4|..|C-4 CF.F ....|B-4 2C.F ....|--- .... ....
....|..|B-2 2F.7 ....|C#5 2F.A ....|--- .... ....
 A#3|..|D#3 2F.A ....|A#4 2C.F ....|R-- .... ....
 D#4|..|D#3 2C.F ....|B-4 2F.A ....|--- .... ....
 G#4|..|C-4 AF.F ....|G#4 2C.F ....|--- .... ....
....|..|D#3 2F.7 ....|A#4 2F.A ....|--- .... ....
....|..|D#3 2F.A ....|B-4 2F.7 ....|--- .... ....
 B-4|..|B-2 2A.F ....|G#4 2F.A ....|--- .... ....
....|..|C-4 CF.F ....|B-2 UF.F ....|--- .... ....
....|..|D#3 2F.7 ....|D#3 UF.7 ....|--- .... ....
....|..|B-2 2F.A ....|G#4 2F.7 ....|--- .... ....
 B-4|..|B-2 2A.F ....|B-2 UF.A ....|--- .... ....
 D#4|..|C-4 AF.F ....|G#2 UF.F ....|D#5 2CFF ....
 D#4|..|D#5 2C.F ....|--- .... ....|--- .... ....
 C#4|..|C#5 2C.F ....|B-2 UF.7 ....|C#5 2CFF ....
....|..|D#5 2F.A ....|G#2 UF.A ....|D#5 2FFA ....
 B-4|..|C-3 RF.F ....|G#2 UF.F ....|B-4 2CFF ....
 B-4|..|B-4 2C.F ....|--- .... ....|C#5 2FFA ....
 A#3|..|A#4 2C.F ....|G#2 UF.7 ....|A#4 2CFF ....
....|..|B-4 2F.A ....|G#2 UF.A ....|B-4 2FFA ....
 G#4|..|C-4 AF.F ....|B-2 UF.F ....|G#4 2CFF ....
 G#4|..|G#4 2C.F ....|--- .... ....|A#4 2FFA ....
....|..|A#4 2F.A ....|G#2 UF.7 ....|B-4 2FF7 ....
....|..|G#4 2F.A ....|B-2 UF.A ....|G#4 2FFA ....
....|..|C-4 CF.F ....|B-2 UF.F ....|A#4 2FF7 ....
....|..|A#4 2F.7 ....|--- .... ....|--- .... ....
....|..|G#4 2F.7 ....|B-2 UF.7 ....|G#4 2FF7 ....
 B-4|..|B-2 2A.F ....|B-2 UF.A ....|--- .... ....
 D#4|..|C-4 AF.F ....|D#5 2C.F ....|R-- .... ....
....|..|B-2 2F.7 ....|D#3 UF.F ....|--- .... ....
 C#4|..|B-2 2F.A ....|C#5 2C.F ....|--- .... ....
 D#4|..|D#3 2C.F ....|D#5 2F.A ....|R-- .... ....
 B-4|..|C-4 CF.F ....|B-4 2C.F ....|--- .... ....
....|..|B-2 2F.7 ....|C#5 2F.A ....|--- .... ....
 A#3|..|D#3 2F.A ....|A#4 2C.F ....|R-- .... ....
 D#4|..|D#3 2C.F ....|B-4 2F.A ....|--- .... ....
 G#4|..|C-4 AF.F ....|G#4 2C.F ....|--- .... ....
....|..|D#3 2F.7 ....|A#4 2F.A ....|--- .... ....
....|..|D#3 2F.A ....|B-4 2F.7 ....|--- .... ....
 B-4|..|B-2 2A.F ....|G#4 2F.A ....|--- .... ....
....|..|C-4 CF.F ....|B-2 UF.F ....|--- .... ....
....|..|D#3 2F.7 ....|D#3 UF.7 ....|--- .... ....
....|..|B-2 2F.A ....|G#4 2F.7 ....|--- .... ....
 B-4|..|B-2 2A.F ....|B-2 UF.A ....|--- .... ....
 C#4|..|C-4 AF.F ....|G-2 UF.F ....|C#5 2CFF ....
 C#4|..|C#5 2C.F ....|--- .... ....|--- .... ....
 B-4|..|B-4 2C.F ....|B-2 UF.7 ....|B-4 2CFF ....
....|..|C#5 2F.A ....|G-2 UF.A ....|C#5 2FFA ....
 A#3|..|C-3 RF.F ....|G-2 UF.F ....|A#4 2CFF ....
 A#3|..|A#4 2C.F ....|--- .... ....|B-4 2FFA ....
 G#4|..|G#4 2C.F ....|G-2 UF.7 ....|G#4 2CFF ....
....|..|A#4 2F.A ....|G-2 UF.A ....|A#4 2FFA ....
 G-4|..|C-4 AF.F ....|A#2 UF.F ....|G-4 2CFF ....
 G-4|..|G-4 2C.F ....|--- .... ....|G#4 2FFA ....
....|..|G#4 2F.A ....|G-2 UF.7 ....|A#4 2FF7 ....
....|..|G-4 2F.A ....|A#2 UF.A ....|G-4 2FFA ....
....|..|C-4 CF.F ....|A#2 UF.F ....|G#4 2FF7 ....
....|..|G#4 2F.7 ....|--- .... ....|--- .... ....
....|..|G-4 2F.7 ....|A#2 UF.7 ....|G-4 2FF7 ....
 A#3|..|A#2 2C.F ....|A#2 UF.A ....|--- .... ....
 C#4|..|C-4 AF.F ....|C#5 2C.F ....|R-- .... ....
....|..|A#2 2F.7 ....|C#3 UF.F ....|--- .... ....
 B-4|..|A#2 2F.A ....|B-4 2C.F ....|--- .... ....
 C#4|..|C#3 2C.F ....|C#5 2F.A ....|R-- .... ....
 A#3|..|C-4 CF.F ....|A#4 2C.F ....|--- .... ....
....|..|A#2 2F.7 ....|B-4 2F.A ....|--- .... ....
 G#4|..|C#3 2F.A ....|G#4 2C.F ....|R-- .... ....
 C#4|..|C#3 2C.F ....|A#4 2F.A ....|--- .... ....
 G-4|..|C-4 AF.F ....|G-4 2C.F ....|--- .... ....
....|..|C#3 2F.7 ....|G#4 2F.A ....|--- .... ....
....|..|C#3 2F.A ....|A#4 2F.7 ....|--- .... ....
 A#3|..|A#2 2C.F ....|G-4 2F.A ....|--- .... ....
....|..|C-4 CF.F ....|A#2 UF.F ....|--- .... ....
....|..|C#3 2F.7 ....|C#3 UF.7 ....|--- .... ....
....|..|A#2 2F.A ....|G-4 2F.7 ....|--- .... ....
 A#3|..|A#2 2C.F ....|A#2 UF.A ....|--- .... ....
 C#4|..|C-4 AF.F ....|G-2 UF.F ....|C#5 2CFF ....
 C#4|..|C#5 2C.F ....|--- .... ....|--- .... ....
 B-4|..|B-4 2C.F ....|A#2 UF.7 ....|B-4 2CFF ....
....|..|C#5 2F.A ....|G-2 UF.A ....|C#5 2FFA ....
 A#3|..|C-3 RF.F ....|G-2 UF.F ....|A#4 2CFF ....
 A#3|..|A#4 2C.F ....|--- .... ....|B-4 2FFA ....
 G#4|..|G#4 2C.F ....|G-2 UF.7 ....|G#4 2CFF ....
....|..|A#4 2F.A ....|G-2 UF.A ....|A#4 2FFA ....
 G-4|..|C-4 AF.F ....|A#2 UF.F ....|G-4 2CFF ....
 G-4|..|G-4 2C.F ....|--- .... ....|G#4 2FFA ....
....|..|G#4 2F.A ....|G-2 UF.7 ....|A#4 2FF7 ....
....|..|G-4 2F.A ....|A#2 UF.A ....|G-4 2FFA ....
....|..|C-4 CF.F ....|A#2 UF.F ....|G#4 2FF7 ....
....|..|G#4 2F.7 ....|--- .... ....|--- .... ....
....|..|G-4 2F.7 ....|A#2 UF.7 ....|G-4 2FF7 ....
 A#3|..|A#2 2C.F ....|A#2 UF.A ....|--- .... ....
 C#4|..|C-4 AF.F ....|C#5 2C.F ....|R-- .... ....
....|..|A#2 2F.7 ....|C#3 UF.F ....|--- .... ....
 B-4|..|A#2 2F.A ....|B-4 2C.F ....|--- .... ....
 C#4|..|C#3 2C.F ....|C#5 2F.A ....|R-- .... ....
 A#3|..|C-4 CF.F ....|A#4 2C.F ....|--- .... ....
....|..|A#2 2F.7 ....|B-4 2F.A ....|--- .... ....
 G#4|..|C#3 2F.A ....|G#4 2C.F ....|R-- .... ....
 C#4|..|C#3 2C.F ....|A#4 2F.A ....|--- .... ....
 G-4|..|C-4 AF.F ....|G-4 2C.F ....|--- .... ....
....|..|C#3 2F.7 ....|G#4 2F.A ....|--- .... ....
....|..|C#3 2F.A ....|A#4 2F.7 ....|--- .... ....
 A#3|..|A#2 2C.F ....|G-4 2F.A ....|--- .... ....
....|..|C-4 CF.F ....|A#2 UF.F ....|--- .... ....
....|..|C#3 2F.7 ....|C#3 UF.7 ....|--- .... ....
....|..|A#2 2F.A ....|G-4 2F.7 ....|--- .... ....
 A#3|..|A#2 2C.F ....|A#2 UF.A ....|--- .... ....

[Pattern30]
 E-4|..|C-4 AF.F ....|A#2 UF.F ....|E-5 2CFF ....
 E-4|..|E-5 2C.F ....|--- .... ....|--- .... ....
 D#4|..|D#5 2C.F ....|A#2 UF.7 ....|D#5 2CFF ....
....|..|E-5 2F.A ....|A#2 UF.A ....|E-5 2FFA ....
 C#4|..|C-3 RF.F ....|A#2 UF.F ....|C#5 2CFF ....
 C#4|..|C#5 2C.F ....|--- .... ....|D#5 2FFA ....
 B-4|..|B-4 2C.F ....|A#2 UF.7 ....|B-4 2CFF ....
....|..|C#5 2F.A ....|A#2 UF.A ....|C#5 2FFA ....
 A#3|..|C-4 AF.F ....|C#3 UF.F ....|A#4 2CFF ....
 A#3|..|A#4 2C.F ....|--- .... ....|B-4 2FFA ....
....|..|B-4 2F.A ....|A#2 UF.7 ....|C#5 2FF7 ....
....|..|A#4 2F.A ....|C#3 UF.A ....|A#4 2FFA ....
....|..|C-4 CF.F ....|C#3 UF.F ....|B-4 2FF7 ....
....|..|B-4 2F.7 ....|--- .... ....|--- .... ....
....|..|A#4 2F.7 ....|C#3 UF.7 ....|A#4 2FF7 ....
 C#4|..|C#3 2C.F ....|C#3 UF.A ....|--- .... ....
 E-4|..|C-4 AF.F ....|E-5 2C.F ....|R-- .... ....
....|..|C#3 2F.7 ....|E-3 UF.F ....|--- .... ....
 D#4|..|C#3 2F.A ....|D#5 2C.F ....|--- .... ....
 E-4|..|E-3 2C.F ....|E-5 2F.A ....|R-- .... ....
 C#4|..|C-4 CF.F ....|C#5 2C.F ....|--- .... ....
....|..|C#3 2F.7 ....|D#5 2F.A ....|--- .... ....
 B-4|..|E-3 2F.A ....|B-4 2C.F ....|R-- .... ....
 E-4|..|E-3 2C.F ....|C#5 2F.A ....|--- .... ....
 A#3|..|C-4 AF.F ....|A#4 2C.F ....|--- .... ....
....|..|E-3 2F.7 ....|B-4 2F.A ....|--- .... ....
....|..|E-3 2F.A ....|C#5 2F.7 ....|--- .... ....
 C#4|..|C#3 2C.F ....|A#4 2F.A ....|--- .... ....
....|..|C-4 CF.F ....|C#3 UF.F ....|--- .... ....
....|..|E-3 2F.7 ....|E-3 UF.7 ....|--- .... ....
....|..|C#3 2F.A ....|A#4 2F.7 ....|--- .... ....
 C#4|..|C#3 2C.F ....|C#3 UF.A ....|--- .... ....
 E-4|..|C-4 AF.F ....|A#2 UF.F ....|E-5 2CFF ....
 E-4|..|E-5 2C.F ....|--- .... ....|--- .... ....
 D#4|..|D#5 2C.F ....|C#3 UF.7 ....|D#5 2CFF ....
....|..|E-5 2F.A ....|A#2 UF.A ....|E-5 2FFA ....
 C#4|..|C-3 RF.F ....|A#2 UF.F ....|C#5 2CFF ....
 C#4|..|C#5 2C.F ....|--- .... ....|D#5 2FFA ....
 B-4|..|B-4 2C.F ....|A#2 UF.7 ....|B-4 2CFF ....
....|..|C#5 2F.A ....|A#2 UF.A ....|C#5 2FFA ....
 A#3|..|C-4 AF.F ....|C#3 UF.F ....|A#4 2CFF ....
 A#3|..|A#4 2C.F ....|--- .... ....|B-4 2FFA ....
....|..|B-4 2F.A ....|A#2 UF.7 ....|C#5 2FF7 ....
....|..|A#4 2F.A ....|C#3 UF.A ....|A#4 2FFA ....
....|..|C-4 CF.F ....|C#3 UF.F ....|B-4 2FF7 ....
....|..|B-4 2F.7 ....|--- .... ....|--- .... ....
....|..|A#4 2F.7 ....|C#3 UF.7 ....|A#4 2FF7 ....
 C#4|..|C#3 2C.F ....|C#3 UF.A ....|--- .... ....
 E-4|..|C-4 AF.F ....|E-5 2C.F ....|R-- .... ....
....|..|C#3 2F.7 ....|E-3 UF.F ....|--- .... ....
 D#4|..|C#3 2F.A ....|D#5 2C.F ....|--- .... ....
 E-4|..|E-3 2C.F ....|E-5 2F.A ....|R-- .... ....
 C#4|..|C-4 CF.F ....|C#5 2C.F ....|--- .... ....
....|..|C#3 2F.7 ....|D#5 2F.A ....|--- .... ....
 B-4|..|E-3 2F.A ....|B-4 2C.F ....|R-- .... ....
 E-4|..|E-3 2C.F ....|C#5 2F.A ....|--- .... ....
 A#3|..|C-4 AF.F ....|A#4 2C.F ....|--- .... ....
....|..|E-3 2F.7 ....|B-4 2F.A ....|--- .... ....
....|..|E-3 2F.A ....|C#5 2F.7 ....|--- .... ....
 C#4|..|C#3 2C.F ....|A#4 2F.A ....|--- .... ....
....|..|C-4 CF.F ....|C#3 UF.F ....|--- .... ....
....|..|E-3 2F.7 ....|E-3 UF.7 ....|--- .... ....
....|..|C#3 2F.A ....|A#4 2F.7 ....|--- .... ....
 C#4|..|C#3 2C.F ....|C#3 UF.A ....|--- .... ....
 D#4|..|C-4 AF.F ....|G#2 UF.F ....|D#5 2CFF ....
 D#4|..|D#5 2C.F ....|--- .... ....|--- .... ....
 C#4|..|C#5 2C.F ....|C#3 UF.7 ....|C#5 2CFF ....
....|..|D#5 2F.A ....|G#2 UF.A ....|D#5 2FFA ....
 B-4|..|C-3 RF.F ....|G#2 UF.F ....|B-4 2CFF ....
 B-4|..|B-4 2C.F ....|--- .... ....|C#5 2FFA ....
 A#3|..|A#4 2C.F ....|G#2 UF.7 ....|A#4 2CFF ....
....|..|B-4 2F.A ....|G#2 UF.A ....|B-4 2FFA ....
 G#4|..|C-4 AF.F ....|B-2 UF.F ....|G#4 2CFF ....
 G#4|..|G#4 2C.F ....|--- .... ....|A#4 2FFA ....
....|..|A#4 2F.A ....|G#2 UF.7 ....|B-4 2FF7 ....
....|..|G#4 2F.A ....|B-2 UF.A ....|G#4 2FFA ....
....|..|C-4 CF.F ....|B-2 UF.F ....|A#4 2FF7 ....
....|..|A#4 2F.7 ....|--- .... ....|--- .... ....
....|..|G#4 2F.7 ....|B-2 UF.7 ....|G#4 2FF7 ....
 B-4|..|B-2 2A.F ....|B-2 UF.A ....|--- .... ....
 D#4|..|C-4 AF.F ....|D#5 2C.F ....|R-- .... ....
....|..|B-2 2F.7 ....|D#3 UF.F ....|--- .... ....
 C#4|..|B-2 2F.A ....|C#5 2C.F ....|--- .... ....
 D#4|..|D#3 2C.F ....|D#5 2F.A ....|R-- .... ....
 B-4|..|C-4 CF.F ....|B-4 2C.F ....|--- .... ....
....|..|B-2 2F.7 ....|C#5 2F.A ....|--- .... ....
 A#3|..|D#3 2F.A ....|A#4 2C.F ....|R-- .... ....
 D#4|..|D#3 2C.F ....|B-4 2F.A ....|--- .... ....
 G#4|..|C-4 AF.F ....|G#4 2C.F ....|--- .... ....
....|..|D#3 2F.7 ....|A#4 2F.A ....|--- .... ....
....|..|D#3 2F.A ....|B-4 2F.7 ....|--- .... ....
 B-4|..|B-2 2A.F ....|G#4 2F.A ....|--- .... ....
....|..|C-4 CF.F ....|B-2 UF.F ....|--- .... ....
....|..|D#3 2F.7 ....|D#3 UF.7 ....|--- .... ....
....|..|B-2 2F.A ....|G#4 2F.7 ....|--- .... ....
 B-4|..|B-2 2A.F ....|B-2 UF.A ....|--- .... ....
 D#4|..|C-4 AF.F ....|G#2 UF.F ....|D#5 2CFF ....
 D#4|..|D#5 2C.F ....|--- .... ....|--- .... ....
 C#4|..|C#5 2C.F ....|B-2 UF.7 ....|C#5 2CFF ....
....|..|D#5 2F.A ....|G#2 UF.A ....|D#5 2FFA ....
 B-4|..|B-4 2C.F ....|G#2 UF.F ....|B-4 2CFF ....
....|..|C#5 2F.A ....|--- .... ....|C#5 2FFA ....
 A#3|..|A#4 2C.F ....|G#2 UF.7 ....|A#4 2CFF ....
....|..|B-4 2F.A ....|G#2 UF.A ....|B-4 2FFA ....
 G#4|..|C-4 AF.F ....|B-2 UF.F ....|G#4 2CFF ....
 G#4|..|G#4 2C.F ....|--- .... ....|A#4 2FFA ....
....|..|A#4 2F.A ....|G#2 UF.7 ....|B-4 2FF7 ....
....|..|G#4 2F.A ....|B-2 UF.A ....|G#4 2FFA ....
....|..|C-4 AF.F ....|B-2 UF.F ....|A#4 2FF7 ....
....|..|A#4 2F.7 ....|--- .... ....|--- .... ....
....|..|G#4 2F.7 ....|B-2 UF.7 ....|G#4 2FF7 ....
 B-4|..|B-2 2A.F ....|B-2 UF.A ....|--- .... ....
 D#4|..|C-5 VF.F ....|D#5 2C.F ....|R-- .... ....
....|..|B-2 2F.7 ....|D#3 UF.F ....|--- .... ....
 C#4|..|C-5 VF.F ....|C#5 2C.F ....|--- .... ....
 D#4|..|D#3 2C.F ....|D#5 2F.A ....|R-- .... ....
 B-4|..|C-4 AF.F ....|B-4 2C.F ....|--- .... ....
....|..|B-2 2F.7 ....|C#5 2F.A ....|--- .... ....
 A#3|..|C-5 VF.F ....|A#4 2C.F ....|R-- .... ....
 D#4|..|D#3 2C.F ....|B-4 2F.A ....|--- .... ....
 G#4|..|C-4 AF.F ....|G#4 2C.F ....|--- .... ....
....|..|D#3 2F.7 ....|A#4 2F.A ....|--- .... ....
....|..|D#3 2F.A ....|B-4 2F.7 ....|--- .... ....
 B-4|..|B-2 2A.F ....|G#4 2F.A ....|--- .... ....
....|..|C-4 CF.F ....|B-2 UF.F ....|--- .... ....
....|..|D#3 2F.7 ....|D#3 UF.7 ....|--- .... ....
....|..|B-2 2F.A ....|G#4 2F.7 ....|--- .... ....
 B-4|..|B-2 2A.F ....|B-2 UF.A ....|--- .... ....

[Pattern31]
....|..|C-4 AF.F ....|G#2 UF.F ....|--- .... ....
....|..|B-2 2F.7 ....|--- .... ....|--- .... ....
....|..|B-2 2F.A ....|B-2 UF.7 ....|--- .... ....
 G#4|..|G#2 2A.F ....|G#2 UF.A ....|--- .... ....
....|..|C-3 RF.F ....|G#2 UF.F ....|--- .... ....
....|..|B-2 2F.7 ....|--- .... ....|--- .... ....
....|..|G#2 2F.A ....|G#2 UF.7 ....|--- .... ....
 G#4|..|G#2 2A.F ....|G#2 UF.A ....|--- .... ....
....|..|C-4 AF.F ....|B-2 UF.F ....|--- .... ....
....|..|G#2 2F.7 ....|--- .... ....|--- .... ....
....|..|G#2 2F.A ....|G#2 UF.7 ....|--- .... ....
 B-4|..|B-2 2A.F ....|B-2 UF.A ....|--- .... ....
....|..|C-4 CF.F ....|B-2 UF.F ....|--- .... ....
....|..|G#2 2F.7 ....|--- .... ....|--- .... ....
....|..|B-2 2F.A ....|B-2 UF.7 ....|--- .... ....
 B-4|..|B-2 2A.F ....|B-2 UF.A ....|--- .... ....
 D#4|..|C-4 AF.F ....|D#5 2C.F ....|--- .... ....
....|..|B-2 2F.7 ....|D#3 UF.F ....|--- .... ....
 C#4|..|B-2 2F.A ....|C#5 2C.F ....|--- .... ....
 D#4|..|D#3 2C.F ....|D#5 2F.A ....|--- .... ....
 B-4|..|C-4 CF.F ....|B-4 2C.F ....|--- .... ....
....|..|B-2 2F.7 ....|C#5 2F.A ....|--- .... ....
 A#3|..|D#3 2F.A ....|A#4 2C.F ....|--- .... ....
 D#4|..|D#3 2C.F ....|B-4 2F.A ....|--- .... ....
 G#4|..|C-4 AF.F ....|G#4 2C.F ....|--- .... ....
....|..|D#3 2F.7 ....|A#4 2F.A ....|--- .... ....
....|..|D#3 2F.A ....|B-4 2F.7 ....|--- .... ....
 B-4|..|B-2 2A.F ....|G#4 2F.A ....|--- .... ....
....|..|C-4 CF.F ....|B-2 UF.F ....|--- .... ....
....|..|D#3 2F.7 ....|D#3 UF.7 ....|--- .... ....
....|..|B-2 2F.A ....|G#4 2F.7 ....|--- .... ....
 B-4|..|B-2 2A.F ....|B-2 UF.A ....|--- .... ....
....|..|C-4 AF.F ....|G#3 UF4F ....|--- .... ....
....|..|B-2 2F.7 ....|--- .... ....|--- .... ....
....|..|B-2 2F.A ....|B-2 UF.7 ....|--- .... ....
 G#4|..|G#4 2C.F ....|G#3 UF4A ....|--- .... ....
....|..|C-3 RF.F ....|G#3 UF4F ....|--- .... ....
....|..|B-2 2F.7 ....|--- .... ....|--- .... ....
....|..|G#4 2F.A ....|G#3 UF47 ....|--- .... ....
 G#4|..|G#4 2C.F ....|G#3 UF4A ....|--- .... ....
....|..|C-4 AF.F ....|B-3 UF5F ....|--- .... ....
....|..|G#4 2F.7 ....|--- .... ....|--- .... ....
....|..|G#4 2F.A ....|G#3 UF47 ....|--- .... ....
 G#4|..|G#4 2C.F ....|B-3 UF5A ....|--- .... ....
....|..|C-4 CF.F ....|B-3 UF5F ....|--- .... ....
....|..|G#4 2F.7 ....|--- .... ....|--- .... ....
....|..|G#4 2F.A ....|B-3 UF57 ....|--- .... ....
 G#4|..|G#4 2C.F ....|B-3 UF5A ....|--- .... ....
 D#4|..|C-4 AF.F ....|D#5 2C.F ....|--- .... ....
....|..|G#4 2F.7 ....|D#3 UF6F ....|--- .... ....
 C#4|..|G#4 2F.A ....|C#5 2C.F ....|--- .... ....
 G#4|..|G#4 2C.F ....|D#5 2F.A ....|--- .... ....
 B-4|..|C-4 CF.F ....|B-4 2C.F ....|--- .... ....
....|..|G#4 2F.7 ....|C#5 2F.A ....|--- .... ....
 A#3|..|G#4 2F.A ....|A#4 2C.F ....|--- .... ....
 G#4|..|G#4 2C.F ....|B-4 2F.A ....|--- .... ....
 A#3|..|C-4 AF.F ....|G#4 2F.F ....|A#4 2CFF ....
 A#3|..|A#4 2C.F ....|A#4 2F.A ....|--- .... ....
....|..|G#4 2F.A ....|B-4 2F.7 ....|--- .... ....
....|..|A#4 2F.A ....|G#4 2F.A ....|A#4 2FFA ....
 G#4|..|C-4 CF.F ....|B-3 UF5F ....|G#4 2CFF ....
 G#4|..|G#4 2C.F ....|D#3 UF67 ....|--- .... ....
....|..|A#4 2F.7 ....|G#4 2F.7 ....|A#4 2FF7 ....
....|..|G#4 2F.A ....|B-3 UF5A ....|G#4 2FFA ....
....|..|C-4 AF.F ....|G#4 UF.F ....|R-- .... ....
....|..|G#4 2F.7 ....|--- .... ....|--- .... ....
....|..|G#4 2F.7 ....|B-3 UF57 ....|G#4 2FF7 ....
 G#4|..|G#4 2C.F ....|G#4 UF.A ....|R-- .... ....
....|..|C-3 RF.F ....|G#4 UF.F ....|--- .... ....
....|..|G#4 2F.7 ....|--- .... ....|--- .... ....
....|..|G#4 2F.A ....|G#4 UF.7 ....|R-- .... ....
 G#4|..|G#4 2C.F ....|G#4 UF.A ....|--- .... ....
....|..|C-4 AF.F ....|A#3 UF7F ....|--- .... ....
....|..|G#4 2F.7 ....|--- .... ....|--- .... ....
....|..|G#4 2F.A ....|G#4 UF.7 ....|--- .... ....
 G#4|..|G#4 2C.F ....|A#3 UF7A ....|--- .... ....
....|..|C-4 CF.F ....|A#3 UF7F ....|--- .... ....
....|..|G#4 2F.7 ....|--- .... ....|--- .... ....
....|..|G#4 2F.A ....|A#3 UF77 ....|--- .... ....
 G#4|..|G#4 2C.F ....|A#3 UF7A ....|--- .... ....
 C#4|..|C-4 AF.F ....|C#5 2C.F ....|--- .... ....
....|..|G#4 2F.7 ....|C#3 UF8F ....|--- .... ....
 B-4|..|G#4 2F.A ....|B-4 2C.F ....|--- .... ....
 G#4|..|G#4 2C.F ....|C#5 2F.A ....|--- .... ....
 A#3|..|C-4 CF.F ....|A#4 2C.F ....|--- .... ....
....|..|G#4 2F.7 ....|B-4 2F.A ....|--- .... ....
 G#4|..|G#4 2F.A ....|G#4 2C.F ....|--- .... ....
 G#4|..|G#4 2C.F ....|A#4 2F.A ....|--- .... ....
 G-4|..|C-4 AF.F ....|G-4 2C.F ....|--- .... ....
....|..|G#4 2F.7 ....|G#4 2F.A ....|--- .... ....
....|..|G#4 2F.A ....|A#4 2F.7 ....|--- .... ....
 A#3|..|A#2 2C.F ....|G-4 2F.A ....|--- .... ....
....|..|C-4 CF.F ....|A#2 UF.F ....|--- .... ....
....|..|G#4 2F.7 ....|C#3 UF87 ....|--- .... ....
....|..|A#2 2F.A ....|G-4 2F.7 ....|--- .... ....
 A#3|..|A#2 2C.F ....|A#2 UF.A ....|--- .... ....
....|..|C-4 AF.F ....|G-3 UF4F ....|--- .... ....
....|..|A#2 2F.7 ....|--- .... ....|--- .... ....
....|..|A#2 2F.A ....|A#2 UF.7 ....|--- .... ....
 G-4|..|G-4 2C.F ....|G-3 UF4A ....|--- .... ....
....|..|C-3 RF.F ....|G-3 UF4F ....|--- .... ....
....|..|A#2 2F.7 ....|--- .... ....|--- .... ....
....|..|G-4 2F.A ....|G-3 UF47 ....|--- .... ....
 G-4|..|G-4 2C.F ....|G-3 UF4A ....|--- .... ....
....|..|C-4 AF.F ....|A#3 UF5F ....|--- .... ....
....|..|G-4 2F.7 ....|--- .... ....|--- .... ....
....|..|G-4 2F.A ....|G-3 UF47 ....|--- .... ....
 G-4|..|G-4 2C.F ....|A#3 UF5A ....|--- .... ....
....|..|C-4 CF.F ....|A#3 UF5F ....|--- .... ....
....|..|G-4 2F.7 ....|--- .... ....|--- .... ....
....|..|G-4 2F.A ....|A#3 UF57 ....|--- .... ....
 G-4|..|G-4 2C.F ....|A#3 UF5A ....|--- .... ....
 C#4|..|C-4 AF.F ....|C#5 2C.F ....|--- .... ....
....|..|G-4 2F.7 ....|C#3 UF9F ....|--- .... ....
 B-4|..|G-4 2F.A ....|B-4 2C.F ....|--- .... ....
 G-4|..|G-4 2C.F ....|C#5 2F.A ....|--- .... ....
 A#3|..|C-4 CF.F ....|A#4 2C.F ....|--- .... ....
....|..|G-4 2F.7 ....|B-4 2F.A ....|--- .... ....
 G#4|..|G-4 2F.A ....|G#4 2C.F ....|--- .... ....
 G-4|..|G-4 2C.F ....|A#4 2F.A ....|--- .... ....
 G-4|..|C-4 AF.F ....|G-4 2C.F ....|G-4 2CFF ....
 G-4|..|G-4 2C.F ....|G#4 2F.A ....|--- .... ....
....|..|G-4 2F.A ....|A#4 2F.7 ....|--- .... ....
....|..|G-4 2F.A ....|G-4 2F.A ....|G-4 2FFA ....
 G#4|..|C-4 CF.F ....|A#3 UF5F ....|G#4 2CFF ....
 G#4|..|G#4 2C.F ....|C#3 UF97 ....|--- .... ....
....|..|G-4 2F.7 ....|G-4 2F.7 ....|G-4 2FF7 ....
....|..|G#4 2F.A ....|A#3 UF5A ....|G#4 2FFA ....

[Pattern32]
....|..|C-4 AF.F ....|A#3 UF5F ....|R-- .... ....
....|..|G-4 2F.7 ....|--- .... ....|--- .... ....
....|..|G#4 2F.7 ....|A#3 UF57 ....|G#4 2FF7 ....
 G-4|..|G-4 2C.F ....|A#3 UF5A ....|R-- .... ....
....|..|C-3 RF.F ....|A#3 UF5F ....|--- .... ....
....|..|G-4 2F.7 ....|--- .... ....|--- .... ....
....|..|G-4 2F.A ....|A#3 UF57 ....|R-- .... ....
 G-4|..|G-4 2C.F ....|A#3 UF5A ....|--- .... ....
....|..|C-4 AF.F ....|C#3 UF9F ....|--- .... ....
....|..|G-4 2F.7 ....|--- .... ....|--- .... ....
....|..|G-4 2F.A ....|A#3 UF57 ....|--- .... ....
 G-4|..|G-4 2C.F ....|C#3 UF9A ....|--- .... ....
....|..|C-4 CF.F ....|C#3 UF9F ....|--- .... ....
....|..|G-4 2F.7 ....|--- .... ....|--- .... ....
....|..|G-4 2F.A ....|C#3 UF97 ....|--- .... ....
 G-4|..|G-4 2C.F ....|C#3 UF9A ....|--- .... ....
 E-4|..|C-4 AF.F ....|E-5 2C.F ....|--- .... ....
....|..|G-4 2F.7 ....|E-3 UFAF ....|--- .... ....
 D#4|..|G-4 2F.A ....|D#5 2C.F ....|--- .... ....
 G-4|..|G-4 2C.F ....|E-5 2F.A ....|--- .... ....
 C#4|..|C-4 CF.F ....|C#5 2C.F ....|--- .... ....
....|..|G-4 2F.7 ....|D#5 2F.A ....|--- .... ....
 B-4|..|G-4 2F.A ....|B-4 2C.F ....|--- .... ....
 G-4|..|G-4 2C.F ....|C#5 2F.A ....|--- .... ....
 A#3|..|C-4 AF.F ....|A#4 2C.F ....|--- .... ....
....|..|G-4 2F.7 ....|B-4 2F.A ....|--- .... ....
....|..|G-4 2F.A ....|C#5 2F.7 ....|--- .... ....
 C#4|..|C#3 2C.F ....|A#4 2F.A ....|--- .... ....
....|..|C-4 CF.F ....|C#3 UF.F ....|--- .... ....
....|..|G-4 2F.7 ....|E-3 UFA7 ....|--- .... ....
....|..|C#3 2F.A ....|A#4 2F.7 ....|--- .... ....
 C#4|..|C#3 2C.F ....|C#3 UF.A ....|--- .... ....
....|..|C-4 AF.F ....|A#3 UF4F ....|--- .... ....
....|..|C#3 2F.7 ....|--- .... ....|--- .... ....
....|..|C#3 2F.A ....|C#3 UF.7 ....|--- .... ....
 A#3|..|A#4 2C.F ....|A#3 UF4A ....|--- .... ....
....|..|C-3 RF.F ....|A#3 UF4F ....|--- .... ....
....|..|C#3 2F.7 ....|--- .... ....|--- .... ....
....|..|A#4 2F.A ....|A#3 UF47 ....|--- .... ....
 A#3|..|A#4 2C.F ....|A#3 UF4A ....|--- .... ....
....|..|C-4 AF.F ....|C#3 UF5F ....|--- .... ....
....|..|A#4 2F.7 ....|--- .... ....|--- .... ....
....|..|A#4 2F.A ....|A#3 UF47 ....|--- .... ....
 A#3|..|A#4 2C.F ....|C#3 UF5A ....|--- .... ....
....|..|C-4 CF.F ....|C#3 UF5F ....|--- .... ....
....|..|A#4 2F.7 ....|--- .... ....|--- .... ....
....|..|A#4 2F.A ....|C#3 UF57 ....|--- .... ....
 A#3|..|A#4 2C.F ....|C#3 UF5A ....|--- .... ....
 E-4|..|C-4 AF.F ....|E-5 2C.F ....|C#5 2FFF ....
 C#4|..|C#5 2C.F ....|E-3 UF9F ....|--- .F.. ....
 D#4|..|A#4 2F.A ....|D#5 2C.F ....|--- .F.. ....
....|..|C#5 2F.A ....|E-5 2F.A ....|C#5 2FFA ....
 C#4|..|C-4 CF.F ....|C#5 2C.F ....|A#4 2FFF ....
 A#3|..|A#4 2C.F ....|D#5 2F.A ....|--- .F.. ....
 B-4|..|C#5 2F.7 ....|B-4 2C.F ....|C#5 2FF7 ....
....|..|A#4 2F.A ....|C#5 2F.A ....|A#4 2FFA ....
 A#3|..|C-4 AF.F ....|A#4 2C.F ....|G#4 2FFF ....
 G#4|..|G#4 2C.F ....|B-4 2F.A ....|--- .F.. ....
....|..|A#4 2F.7 ....|C#5 2F.7 ....|A#4 2FF7 ....
....|..|G#4 2F.A ....|A#4 2F.A ....|G#4 2FFA ....
 G-4|..|C-4 CF.F ....|C#3 UF5F ....|G-4 2CFF ....
 G-4|..|G-4 2C.F ....|E-3 UF97 ....|--- .... ....
....|..|G#4 2F.7 ....|A#4 2F.7 ....|G#4 2FF7 ....
....|..|G-4 2F.A ....|C#3 UF5A ....|G-4 2FFA ....
....|..|C-4 AF.F ....|A#4 UF.F ....|R-- .... ....
....|..|A#4 2F.7 ....|--- .... ....|--- .... ....
....|..|G-4 2F.7 ....|C#3 UF57 ....|G-4 2FF7 ....
 A#3|..|A#4 2C.F ....|A#4 UF.A ....|R-- .... ....
....|..|C-3 RF.F ....|A#4 UF.F ....|--- .... ....
....|..|A#4 2F.7 ....|--- .... ....|--- .... ....
....|..|A#4 2F.A ....|A#4 UF.7 ....|R-- .... ....
 A#3|..|A#4 2C.F ....|A#4 UF.A ....|--- .... ....
....|..|C-4 AF.F ....|B-3 UFBF ....|--- .... ....
....|..|A#4 2F.7 ....|--- .... ....|--- .... ....
....|..|A#4 2F.A ....|A#4 UF.7 ....|--- .... ....
 A#3|..|A#4 2C.F ....|B-3 UFBA ....|--- .... ....
....|..|C-4 CF.F ....|B-3 UFBF ....|--- .... ....
....|..|A#4 2F.7 ....|--- .... ....|--- .... ....
....|..|A#4 2F.A ....|B-3 UFB7 ....|--- .... ....
 A#3|..|A#4 2C.F ....|B-3 UFBA ....|--- .... ....
 D#4|..|C-4 AF.F ....|D#5 2C.F ....|--- .... ....
....|..|A#4 2F.7 ....|D#3 UF.F ....|--- .... ....
 C#4|..|A#4 2F.A ....|C#5 2C.F ....|--- .... ....
 D#4|..|D#3 2C.F ....|D#5 2F.A ....|--- .... ....
 B-4|..|C-4 CF.F ....|B-4 2C.F ....|--- .... ....
....|..|A#4 2F.7 ....|C#5 2F.A ....|--- .... ....
 A#3|..|D#3 2F.A ....|A#4 2C.F ....|--- .... ....
 D#4|..|D#3 2C.F ....|B-4 2F.A ....|--- .... ....
 G#4|..|C-4 AF.F ....|G#4 2C.F ....|--- .... ....
....|..|D#3 2F.7 ....|A#4 2F.A ....|--- .... ....
....|..|D#3 2F.A ....|B-4 2F.7 ....|--- .... ....
 B-4|..|B-2 2A.F ....|G#4 2F.A ....|--- .... ....
....|..|C-4 CF.F ....|B-2 UF.F ....|--- .... ....
....|..|D#3 2F.7 ....|D#3 UF.7 ....|--- .... ....
....|..|B-2 2F.A ....|G#4 2F.7 ....|--- .... ....
 B-4|..|B-2 2A.F ....|B-2 UF.A ....|--- .... ....
....|..|C-4 AF.F ....|G#3 UF4F ....|--- .... ....
....|..|B-2 2F.7 ....|--- .... ....|--- .... ....
....|..|B-2 2F.A ....|B-2 UF.7 ....|--- .... ....
 G#4|..|G#4 2C.F ....|G#3 UF4A ....|--- .... ....
....|..|C-5 VF.F ....|G#3 UF4F ....|--- .... ....
....|..|B-2 2F.7 ....|--- .... ....|--- .... ....
....|..|C-5 VF.F ....|G#3 UF47 ....|--- .... ....
 G#4|..|G#4 2C.F ....|G#3 UF4A ....|--- .... ....
....|..|C-4 AF.F ....|B-3 UF5F ....|--- .... ....
....|..|G#4 2F.7 ....|--- .... ....|--- .... ....
....|..|G#4 2F.A ....|G#3 UF47 ....|--- .... ....
 G#4|..|G#4 2C.F ....|B-3 UF5A ....|--- .... ....
 G-4|..|C-4 CF.F ....|B-3 UF5F ....|G-4 2CFF ....
 G-4|..|G-4 2C.F ....|--- .... ....|--- .... ....
....|..|G#4 2F.A ....|B-3 UF57 ....|--- .... ....
....|..|G-4 2F.A ....|B-3 UF5A ....|G-4 2FFA ....
 D#4|..|C-4 AF.F ....|D#5 2C.F ....|G#4 2FFF ....
 G#4|..|G#4 2C.F ....|D#3 UF6F ....|--- .F.. ....
 C#4|..|C-5 VF.F ....|C#5 2C.F ....|G-4 2FF7 ....
....|..|G#4 2F.A ....|D#5 2F.A ....|G#4 2FFA ....
 B-4|..|C-5 VF.F ....|B-4 2C.F ....|--- .... ....
....|..|G#4 2F.7 ....|C#5 2F.A ....|--- .... ....
 A#3|..|C-5 VF.F ....|A#4 2C.F ....|G#4 2FF7 ....
....|..|G#4 2F.A ....|B-4 2F.A ....|--- .... ....
 A#3|..|C-4 AF.F ....|G#4 2F.F ....|A#4 2CFF ....
 A#3|..|A#4 2C.F ....|A#4 2F.A ....|--- .... ....
....|..|D#4 9F.F ....|B-4 2F.7 ....|--- .... ....
....|..|A#4 2F.A ....|G#4 2F.A ....|A#4 2FFA ....
....|..|C-4 9F.F ....|B-3 UF5F ....|--- .... ....
....|..|G#4 2F.7 ....|D#3 UF67 ....|--- .... ....
....|..|C-4 9F.F ....|G#4 2F.7 ....|A#4 2FF7 ....
....|..|G#4 2F.A ....|B-3 UF5A ....|--- .... ....

[Pattern33]
....|..|C-4 AF.F ....|G#4 UF.F ....|R-- .... ....
....|..|G#4 2F.7 ....|--- .... ....|--- .... ....
 G#4|..|G#4 2C.F ....|B-3 UF57 ....|--- .... ....
....|..|G#4 2F.A ....|G#4 UF.A ....|R-- .... ....
....|..|--- .... ....|--- .... ....|--- .... ....
....|..|--- .... ....|--- .... ....|--- .... ....
....|..|G#4 2F.7 ....|G#4 UF.7 ....|R-- .... ....
....|..|--- .... ....|--- .... ....|--- .... ....
....|..|C-4 AF.F ....|--- .... ....|--- .... ....
....|..|--- .... ....|--- .... ....|--- .... ....
....|..|--- .... ....|--- .... ....|--- .... ....
....|..|--- .... ....|--- .... ....|--- .... ....
....|..|C-4 AF.F ....|R-- .... ....|--- .... ....
....|..|R-- .... ....|--- .... ....|--- .... ....
....|..|--- .... ....|--- .... ....|--- .... ....
....|..|R-- .... ....|R-- .... ....|--- .... ....
....|..|C-3 RF.F ....|--- .... ....|--- .... ....
....|..|--- .... ....|--- .... ....|--- .... ....
....|..|R-- .... ....|R-- .... ....|--- .... ....
....|..|--- .... ....|--- .... ....|--- .... ....
....|..|C-4 AF.F ....|--- .... ....|--- .... ....
....|..|--- .... ....|--- .... ....|--- .... ....
....|..|--- .... ....|--- .... ....|--- .... ....
....|..|--- .... ....|--- .... ....|--- .... ....
....|..|C-4 AF.F ....|--- .... ....|--- .... ....
....|..|--- .... ....|--- .... ....|--- .... ....
....|..|--- .... ....|--- .... ....|--- .... ....
....|..|--- .... ....|--- .... ....|--- .... ....
....|..|--- .... ....|--- .... ....|--- .... ....
....|..|--- .... ....|--- .... ....|--- .... ....
....|..|--- .... ....|--- .... ....|--- .... ....
....|..|--- .... ....|--- .... ....|--- .... ....
....|..|C-4 AF.F ....|D#4 UF.F ....|--- .... ....
 D#4|..|D#4 2C.F ....|--- .... ....|--- .... ....
....|..|--- .... ....|--- .... ....|--- .... ....
....|..|D#4 2F.A ....|D#4 UF.A ....|--- .... ....
....|..|--- .... ....|--- .... ....|--- .... ....
....|..|--- .... ....|--- .... ....|--- .... ....
....|..|D#4 2F.7 ....|D#4 UF.7 ....|--- .... ....
....|..|--- .... ....|--- .... ....|--- .... ....
....|..|C-4 AF.F ....|--- .... ....|--- .... ....
....|..|--- .... ....|--- .... ....|--- .... ....
....|..|--- .... ....|--- .... ....|--- .... ....
....|..|--- .... ....|--- .... ....|--- .... ....
....|..|C-4 AF.F ....|D#4 UF.F ....|--- .... ....
 D#4|..|D#4 2C.F ....|--- .... ....|--- .... ....
....|..|--- .... ....|--- .... ....|--- .... ....
....|..|D#4 2F.A ....|D#4 UF.A ....|--- .... ....
....|..|C-3 RF.F ....|--- .... ....|--- .... ....
....|..|--- .... ....|--- .... ....|--- .... ....
....|..|D#4 2F.7 ....|D#4 UF.7 ....|--- .... ....
....|..|--- .... ....|--- .... ....|--- .... ....
....|..|C-4 AF.F ....|--- .... ....|--- .... ....
....|..|--- .... ....|--- .... ....|--- .... ....
....|..|--- .... ....|--- .... ....|--- .... ....
....|..|--- .... ....|--- .... ....|--- .... ....
....|..|C-4 AF.F ....|D#4 UF.F ....|--- .... ....
 D#4|..|D#4 2C.F ....|--- .... ....|--- .... ....
....|..|--- .... ....|--- .... ....|--- .... ....
....|..|D#4 2F.A ....|D#4 UF.A ....|--- .... ....
....|..|--- .... ....|--- .... ....|--- .... ....
....|..|--- .... ....|--- .... ....|--- .... ....
....|..|D#4 2F.7 ....|D#4 UF.7 ....|--- .... ....
....|..|--- .... ....|--- .... ....|--- .... ....
....|..|C-4 AF.F ....|C#4 UF.F ....|--- .... ....
 C#4|..|C#4 2C.F ....|--- .... ....|--- .... ....
....|..|--- .... ....|--- .... ....|--- .... ....
....|..|C#4 2F.A ....|C#4 UF.A ....|--- .... ....
....|..|--- .... ....|--- .... ....|--- .... ....
....|..|--- .... ....|--- .... ....|--- .... ....
....|..|C#4 2F.7 ....|C#4 UF.7 ....|--- .... ....
....|..|--- .... ....|--- .... ....|--- .... ....
....|..|C-4 AF.F ....|--- .... ....|--- .... ....
....|..|--- .... ....|--- .... ....|--- .... ....
....|..|--- .... ....|--- .... ....|--- .... ....
....|..|--- .... ....|--- .... ....|--- .... ....
....|..|C-4 AF.F ....|C#4 UF.F ....|--- .... ....
 C#4|..|C#4 2C.F ....|--- .... ....|--- .... ....
....|..|--- .... ....|--- .... ....|--- .... ....
....|..|C#4 2F.A ....|C#4 UF.A ....|--- .... ....
....|..|C-3 RF.F ....|--- .... ....|--- .... ....
....|..|--- .... ....|--- .... ....|--- .... ....
....|..|C#4 2F.7 ....|C#4 UF.7 ....|--- .... ....
....|..|--- .... ....|--- .... ....|--- .... ....
....|..|C-4 AF.F ....|--- .... ....|--- .... ....
....|..|--- .... ....|--- .... ....|--- .... ....
....|..|--- .... ....|--- .... ....|--- .... ....
....|..|--- .... ....|--- .... ....|--- .... ....
....|..|C-4 AF.F ....|C#4 UF.F ....|--- .... ....
 C#4|..|C#4 2C.F ....|--- .... ....|--- .... ....
....|..|--- .... ....|--- .... ....|--- .... ....
....|..|C#4 2F.A ....|C#4 UF.A ....|--- .... ....
....|..|--- .... ....|--- .... ....|--- .... ....
....|..|--- .... ....|--- .... ....|--- .... ....
....|..|C#4 2F.7 ....|C#4 UF.7 ....|--- .... ....
....|..|--- .... ....|--- .... ....|--- .... ....
....|..|C-4 AF.F ....|B-3 UF.F ....|--- .... ....
 B-4|..|B-3 2C.F ....|--- .... ....|--- .... ....
....|..|--- .... ....|--- .... ....|--- .... ....
....|..|B-3 2F.A ....|B-3 UF.A ....|--- .... ....
....|..|--- .... ....|--- .... ....|--- .... ....
....|..|--- .... ....|--- .... ....|--- .... ....
....|..|B-3 2F.7 ....|B-3 UF.7 ....|--- .... ....
....|..|--- .... ....|--- .... ....|--- .... ....
....|..|C-4 AF.F ....|--- .... ....|--- .... ....
....|..|--- .... ....|--- .... ....|--- .... ....
....|..|--- .... ....|--- .... ....|--- .... ....
....|..|--- .... ....|--- .... ....|--- .... ....
....|..|C-4 AF.F ....|B-3 UF.F ....|--- .... ....
 B-4|..|B-3 2C.F ....|--- .... ....|--- .... ....
....|..|--- .... ....|--- .... ....|--- .... ....
....|..|B-3 2F.A ....|B-3 UF.A ....|--- .... ....
....|..|C-3 RF.F ....|--- .... ....|--- .... ....
....|..|--- .... ....|--- .... ....|--- .... ....
....|..|B-3 2F.7 ....|B-3 UF.7 ....|--- .... ....
....|..|--- .... ....|--- .... ....|--- .... ....
....|..|C-4 AF.F ....|--- .... ....|--- .... ....
....|..|--- .... ....|--- .... ....|--- .... ....
....|..|--- .... ....|--- .... ....|--- .... ....
....|..|--- .... ....|--- .... ....|--- .... ....
....|..|C-4 AF.F ....|B-3 UF.F ....|--- .... ....
 B-4|..|B-3 2C.F ....|--- .... ....|--- .... ....
....|..|--- .... ....|--- .... ....|--- .... ....
....|..|B-3 2F.A ....|B-3 UF.A ....|--- .... ....
....|..|--- .... ....|--- .... ....|--- .... ....
....|..|--- .... ....|--- .... ....|--- .... ....
....|..|B-3 2F.7 ....|B-3 UF.7 ....|--- .... ....
....|..|--- .... ....|--- .... ....|--- .... ....

[Pattern34]
....|..|C-4 AF.F ....|F#3 UF.F ....|--- .... ....
 F#4|..|F#3 2C.F ....|--- .... ....|--- .... ....
....|..|--- .... ....|--- .... ....|--- .... ....
....|..|F#3 2F.A ....|F#3 UF.A ....|--- .... ....
....|..|--- .... ....|--- .... ....|--- .... ....
....|..|--- .... ....|--- .... ....|--- .... ....
....|..|F#3 2F.7 ....|F#3 UF.7 ....|--- .... ....
....|..|--- .... ....|--- .... ....|--- .... ....
....|..|C-4 AF.F ....|--- .... ....|--- .... ....
....|..|--- .... ....|--- .... ....|--- .... ....
....|..|--- .... ....|--- .... ....|--- .... ....
....|..|--- .... ....|--- .... ....|--- .... ....
....|..|C-4 AF.F ....|F#3 UF.F ....|--- .... ....
 F#4|..|F#3 2C.F ....|--- .... ....|--- .... ....
....|..|--- .... ....|--- .... ....|--- .... ....
....|..|F#3 2F.A ....|F#3 UF.A ....|--- .... ....
....|..|C-3 RF.F ....|--- .... ....|--- .... ....
....|..|--- .... ....|--- .... ....|--- .... ....
....|..|F#3 2F.7 ....|F#3 UF.7 ....|--- .... ....
....|..|--- .... ....|--- .... ....|--- .... ....
....|..|C-4 AF.F ....|--- .... ....|--- .... ....
....|..|--- .... ....|--- .... ....|--- .... ....
....|..|--- .... ....|--- .... ....|--- .... ....
....|..|--- .... ....|--- .... ....|--- .... ....
....|..|C-4 AF.F ....|F#3 UF.F ....|--- .... ....
 F#4|..|F#3 2C.F ....|--- .... ....|--- .... ....
....|..|--- .... ....|--- .... ....|--- .... ....
....|..|F#3 2F.A ....|F#3 UF.A ....|--- .... ....
....|..|--- .... ....|--- .... ....|--- .... ....
....|..|--- .... ....|--- .... ....|--- .... ....
....|..|F#3 2F.7 ....|F#3 UF.7 ....|--- .... ....
....|..|--- .... ....|--- .... ....|--- .... ....
....|..|C-4 AF.F ....|B-3 UF.F ....|--- .... ....
 B-4|..|B-3 2C.F ....|--- .... ....|--- .... ....
....|..|--- .... ....|--- .... ....|--- .... ....
....|..|B-3 2F.A ....|B-3 UF.A ....|--- .... ....
....|..|--- .... ....|--- .... ....|--- .... ....
....|..|--- .... ....|--- .... ....|--- .... ....
....|..|B-3 2F.7 ....|B-3 UF.7 ....|--- .... ....
....|..|--- .... ....|--- .... ....|--- .... ....
....|..|C-4 AF.F ....|--- .... ....|--- .... ....
....|..|--- .... ....|--- .... ....|--- .... ....
....|..|--- .... ....|--- .... ....|--- .... ....
....|..|--- .... ....|--- .... ....|--- .... ....
....|..|C-4 AF.F ....|B-3 UF.F ....|--- .... ....
 B-4|..|B-3 2C.F ....|--- .... ....|--- .... ....
....|..|--- .... ....|--- .... ....|--- .... ....
....|..|B-3 2F.A ....|B-3 UF.A ....|--- .... ....
....|..|C-3 RF.F ....|--- .... ....|--- .... ....
....|..|--- .... ....|--- .... ....|--- .... ....
....|..|B-3 2F.7 ....|B-3 UF.7 ....|--- .... ....
....|..|--- .... ....|--- .... ....|--- .... ....
....|..|C-4 AF.F ....|--- .... ....|--- .... ....
....|..|--- .... ....|--- .... ....|--- .... ....
....|..|--- .... ....|--- .... ....|--- .... ....
....|..|--- .... ....|--- .... ....|--- .... ....
....|..|C-4 AF.F ....|B-3 UF.F ....|--- .... ....
 B-4|..|B-3 2C.F ....|--- .... ....|--- .... ....
....|..|--- .... ....|--- .... ....|--- .... ....
....|..|B-3 2F.A ....|B-3 UF.A ....|--- .... ....
....|..|--- .... ....|--- .... ....|--- .... ....
....|..|--- .... ....|--- .... ....|--- .... ....
....|..|B-3 2F.7 ....|B-3 UF.7 ....|--- .... ....
....|..|--- .... ....|--- .... ....|--- .... ....
....|..|C-4 AF.F ....|F#3 UF.F ....|--- .... ....
 F#4|..|F#3 2C.F ....|--- .... ....|--- .... ....
....|..|--- .... ....|--- .... ....|--- .... ....
....|..|F#3 2F.A ....|F#3 UF.A ....|--- .... ....
....|..|--- .... ....|--- .... ....|--- .... ....
....|..|--- .... ....|--- .... ....|--- .... ....
....|..|F#3 2F.7 ....|F#3 UF.7 ....|--- .... ....
....|..|--- .... ....|--- .... ....|--- .... ....
....|..|C-4 AF.F ....|--- .... ....|--- .... ....
....|..|--- .... ....|--- .... ....|--- .... ....
....|..|--- .... ....|--- .... ....|--- .... ....
....|..|--- .... ....|--- .... ....|--- .... ....
....|..|C-4 AF.F ....|F#3 UF.F ....|--- .... ....
 F#4|..|F#3 2C.F ....|--- .... ....|--- .... ....
....|..|--- .... ....|--- .... ....|--- .... ....
....|..|F#3 2F.A ....|F#3 UF.A ....|--- .... ....
....|..|C-3 RF.F ....|--- .... ....|--- .... ....
....|..|--- .... ....|--- .... ....|--- .... ....
....|..|F#3 2F.7 ....|F#3 UF.7 ....|--- .... ....
....|..|--- .... ....|--- .... ....|--- .... ....
....|..|C-4 AF.F ....|--- .... ....|--- .... ....
....|..|--- .... ....|--- .... ....|--- .... ....
....|..|--- .... ....|--- .... ....|--- .... ....
....|..|--- .... ....|--- .... ....|--- .... ....
....|..|C-4 AF.F ....|F#3 UF.F ....|--- .... ....
 F#4|..|F#3 2C.F ....|--- .... ....|--- .... ....
....|..|--- .... ....|--- .... ....|--- .... ....
....|..|F#3 2F.A ....|F#3 UF.A ....|--- .... ....
....|..|--- .... ....|--- .... ....|--- .... ....
....|..|--- .... ....|--- .... ....|--- .... ....
....|..|F#3 2F.7 ....|F#3 UF.7 ....|--- .... ....
....|..|--- .... ....|--- .... ....|--- .... ....
....|..|C-4 AF.F ....|A#3 UF.F ....|--- .... ....
 A#3|..|A#3 2C.F ....|--- .... ....|--- .... ....
....|..|--- .... ....|--- .... ....|--- .... ....
....|..|A#3 2F.A ....|A#3 UF.A ....|--- .... ....
....|..|--- .... ....|--- .... ....|--- .... ....
....|..|--- .... ....|--- .... ....|--- .... ....
....|..|A#3 2F.7 ....|A#3 UF.7 ....|--- .... ....
....|..|--- .... ....|--- .... ....|--- .... ....
....|..|C-4 AF.F ....|--- .... ....|--- .... ....
....|..|--- .... ....|--- .... ....|--- .... ....
....|..|--- .... ....|--- .... ....|--- .... ....
....|..|--- .... ....|--- .... ....|--- .... ....
....|..|C-4 AF.F ....|--- .... ....|--- .... ....
....|..|--- .... ....|--- .... ....|--- .... ....
....|..|--- .... ....|--- .... ....|--- .... ....
....|..|--- .... ....|--- .... ....|--- .... ....
....|..|C-5 VF.F ....|--- .... ....|--- .... ....
....|..|--- .... ....|--- .... ....|--- .... ....
....|..|C-5 VF.F ....|--- .... ....|--- .... ....
....|..|--- .... ....|--- .... ....|--- .... ....
....|..|C-4 AF.F ....|--- .... ....|--- .... ....
....|..|--- .... ....|--- .... ....|--- .... ....
....|..|C-5 VF.F ....|--- .... ....|--- .... ....
....|..|--- .... ....|--- .... ....|--- .... ....
....|..|C-4 AF.F ....|--- .... ....|--- .... ....
....|..|--- .... ....|--- .... ....|--- .... ....
....|..|--- .... ....|--- .... ....|--- .... ....
....|..|--- .... ....|--- .... ....|--- .... ....
....|..|C-4 CF.F ....|--- .... ....|--- .... ....
....|..|--- .... ....|--- .... ....|--- .... ....
....|..|--- .... ....|--- .... ....|--- .... ....
....|..|--- .... ....|--- .... ....|--- .... ....

[Pattern35]
....|..|C-4 AF.F ....|C#4 UF.F ....|--- .... ....
 C#4|..|C#4 2C.F ....|--- .... ....|--- .... ....
....|..|--- .... ....|--- .... ....|--- .... ....
....|..|C#4 2F.A ....|C#4 UF.A ....|--- .... ....
....|..|--- .... ....|--- .... ....|--- .... ....
....|..|--- .... ....|--- .... ....|--- .... ....
....|..|C#4 2F.7 ....|C#4 UF.7 ....|--- .... ....
....|..|--- .... ....|--- .... ....|--- .... ....
....|..|C-4 AF.F ....|--- .... ....|--- .... ....
....|..|--- .... ....|--- .... ....|--- .... ....
....|..|--- .... ....|--- .... ....|--- .... ....
....|..|--- .... ....|--- .... ....|--- .... ....
....|..|C-4 AF.F ....|B-3 UF.F ....|--- .... ....
 B-4|..|B-3 2C.F ....|--- .... ....|--- .... ....
....|..|--- .... ....|--- .... ....|--- .... ....
....|..|B-3 2F.A ....|B-3 UF.A ....|--- .... ....
....|..|C-3 RF.F ....|--- .... ....|--- .... ....
....|..|--- .... ....|--- .... ....|--- .... ....
....|..|B-3 2F.7 ....|B-3 UF.7 ....|--- .... ....
....|..|--- .... ....|--- .... ....|--- .... ....
....|..|C-4 AF.F ....|--- .... ....|--- .... ....
....|..|--- .... ....|--- .... ....|--- .... ....
....|..|--- .... ....|--- .... ....|--- .... ....
....|..|--- .... ....|--- .... ....|--- .... ....
....|..|C-4 AF.F ....|A#3 UF.F ....|--- .... ....
 A#3|..|A#3 2C.F ....|--- .... ....|--- .... ....
....|..|--- .... ....|--- .... ....|--- .... ....
....|..|A#3 2F.A ....|A#3 UF.A ....|--- .... ....
....|..|--- .... ....|--- .... ....|--- .... ....
....|..|--- .... ....|--- .... ....|--- .... ....
....|..|A#3 2F.7 ....|A#3 UF.7 ....|--- .... ....
....|..|--- .... ....|--- .... ....|--- .... ....
....|..|C-4 AF.F ....|D#4 UF.F ....|--- .... ....
 D#4|..|D#4 2C.F ....|--- .... ....|--- .... ....
....|..|--- .... ....|--- .... ....|--- .... ....
....|..|D#4 2F.A ....|D#4 UF.A ....|--- .... ....
....|..|--- .... ....|--- .... ....|--- .... ....
....|..|--- .... ....|--- .... ....|--- .... ....
....|..|D#4 2F.7 ....|D#4 UF.7 ....|--- .... ....
....|..|--- .... ....|--- .... ....|--- .... ....
....|..|C-4 AF.F ....|--- .... ....|--- .... ....
....|..|--- .... ....|--- .... ....|--- .... ....
....|..|--- .... ....|--- .... ....|--- .... ....
....|..|--- .... ....|--- .... ....|--- .... ....
....|..|C-4 AF.F ....|D#4 UF.F ....|--- .... ....
 D#4|..|D#4 2C.F ....|--- .... ....|--- .... ....
....|..|--- .... ....|--- .... ....|--- .... ....
....|..|D#4 2F.A ....|D#4 UF.A ....|--- .... ....
....|..|C-3 RF.F ....|--- .... ....|--- .... ....
....|..|--- .... ....|--- .... ....|--- .... ....
....|..|D#4 2F.7 ....|D#4 UF.7 ....|--- .... ....
....|..|--- .... ....|--- .... ....|--- .... ....
....|..|C-4 AF.F ....|--- .... ....|--- .... ....
....|..|--- .... ....|--- .... ....|--- .... ....
....|..|--- .... ....|--- .... ....|--- .... ....
....|..|--- .... ....|--- .... ....|--- .... ....
....|..|C-4 AF.F ....|D#4 UF.F ....|--- .... ....
 D#4|..|D#4 2C.F ....|--- .... ....|--- .... ....
....|..|--- .... ....|--- .... ....|--- .... ....
....|..|D#4 2F.A ....|D#4 UF.A ....|--- .... ....
....|..|--- .... ....|--- .... ....|--- .... ....
....|..|--- .... ....|--- .... ....|--- .... ....
....|..|D#4 2F.7 ....|D#4 UF.7 ....|--- .... ....
....|..|--- .... ....|--- .... ....|--- .... ....
....|..|C-4 AF.F ....|C#4 UF.F ....|--- .... ....
 C#4|..|C#4 2C.F ....|--- .... ....|--- .... ....
....|..|--- .... ....|--- .... ....|--- .... ....
....|..|C#4 2F.A ....|C#4 UF.A ....|--- .... ....
....|..|--- .... ....|--- .... ....|--- .... ....
....|..|--- .... ....|--- .... ....|--- .... ....
....|..|C#4 2F.7 ....|C#4 UF.7 ....|--- .... ....
....|..|--- .... ....|--- .... ....|--- .... ....
....|..|C-4 AF.F ....|--- .... ....|--- .... ....
....|..|--- .... ....|--- .... ....|--- .... ....
....|..|--- .... ....|--- .... ....|--- .... ....
....|..|--- .... ....|--- .... ....|--- .... ....
....|..|C-4 AF.F ....|C#4 UF.F ....|--- .... ....
 C#4|..|C#4 2C.F ....|--- .... ....|--- .... ....
....|..|--- .... ....|--- .... ....|--- .... ....
....|..|C#4 2F.A ....|C#4 UF.A ....|--- .... ....
....|..|C-3 RF.F ....|--- .... ....|--- .... ....
....|..|--- .... ....|--- .... ....|--- .... ....
....|..|C#4 2F.7 ....|C#4 UF.7 ....|--- .... ....
....|..|--- .... ....|--- .... ....|--- .... ....
....|..|C-4 AF.F ....|--- .... ....|--- .... ....
....|..|--- .... ....|--- .... ....|--- .... ....
....|..|--- .... ....|--- .... ....|--- .... ....
....|..|--- .... ....|--- .... ....|--- .... ....
....|..|C-4 AF.F ....|C#4 UF.F ....|--- .... ....
 C#4|..|C#4 2C.F ....|--- .... ....|--- .... ....
....|..|--- .... ....|--- .... ....|--- .... ....
....|..|C#4 2F.A ....|C#4 UF.A ....|--- .... ....
....|..|--- .... ....|--- .... ....|--- .... ....
....|..|--- .... ....|--- .... ....|--- .... ....
....|..|C#4 2F.7 ....|C#4 UF.7 ....|--- .... ....
....|..|--- .... ....|--- .... ....|--- .... ....
....|..|C-4 AF.F ....|B-3 UF.F ....|--- .... ....
 B-4|..|B-3 2C.F ....|--- .... ....|--- .... ....
....|..|--- .... ....|--- .... ....|--- .... ....
....|..|B-3 2F.A ....|B-3 UF.A ....|--- .... ....
....|..|--- .... ....|--- .... ....|--- .... ....
....|..|--- .... ....|--- .... ....|--- .... ....
....|..|B-3 2F.7 ....|B-3 UF.7 ....|--- .... ....
....|..|--- .... ....|--- .... ....|--- .... ....
....|..|C-4 AF.F ....|--- .... ....|--- .... ....
....|..|--- .... ....|--- .... ....|--- .... ....
....|..|--- .... ....|--- .... ....|--- .... ....
....|..|--- .... ....|--- .... ....|--- .... ....
....|..|C-4 AF.F ....|B-3 UF.F ....|--- .... ....
 B-4|..|B-3 2C.F ....|--- .... ....|--- .... ....
....|..|--- .... ....|--- .... ....|--- .... ....
....|..|B-3 2F.A ....|B-3 UF.A ....|--- .... ....
....|..|C-3 RF.F ....|--- .... ....|--- .... ....
....|..|--- .... ....|--- .... ....|--- .... ....
....|..|B-3 2F.7 ....|B-3 UF.7 ....|--- .... ....
....|..|--- .... ....|--- .... ....|--- .... ....
....|..|C-4 AF.F ....|--- .... ....|--- .... ....
....|..|--- .... ....|--- .... ....|--- .... ....
....|..|--- .... ....|--- .... ....|--- .... ....
....|..|--- .... ....|--- .... ....|--- .... ....
....|..|C-4 AF.F ....|B-3 UF.F ....|--- .... ....
 B-4|..|B-3 2C.F ....|--- .... ....|--- .... ....
....|..|--- .... ....|--- .... ....|--- .... ....
....|..|B-3 2F.A ....|B-3 UF.A ....|--- .... ....
....|..|--- .... ....|--- .... ....|--- .... ....
....|..|--- .... ....|--- .... ....|--- .... ....
....|..|B-3 2F.7 ....|B-3 UF.7 ....|--- .... ....
....|..|--- .... ....|--- .... ....|--- .... ....

[Pattern36]
....|..|C-4 AF.F ....|F#3 UF.F ....|--- .... ....
 F#4|..|F#3 2C.F ....|--- .... ....|--- .... ....
....|..|--- .... ....|--- .... ....|--- .... ....
....|..|F#3 2F.A ....|F#3 UF.A ....|--- .... ....
....|..|--- .... ....|--- .... ....|--- .... ....
....|..|--- .... ....|--- .... ....|--- .... ....
....|..|F#3 2F.7 ....|F#3 UF.7 ....|--- .... ....
....|..|--- .... ....|--- .... ....|--- .... ....
....|..|C-4 AF.F ....|--- .... ....|--- .... ....
....|..|--- .... ....|--- .... ....|--- .... ....
....|..|--- .... ....|--- .... ....|--- .... ....
....|..|--- .... ....|--- .... ....|--- .... ....
....|..|C-4 AF.F ....|F#3 UF.F ....|--- .... ....
 F#4|..|F#3 2C.F ....|--- .... ....|--- .... ....
....|..|--- .... ....|--- .... ....|--- .... ....
....|..|F#3 2F.A ....|F#3 UF.A ....|--- .... ....
....|..|C-3 RF.F ....|--- .... ....|--- .... ....
....|..|--- .... ....|--- .... ....|--- .... ....
....|..|F#3 2F.7 ....|F#3 UF.7 ....|--- .... ....
....|..|--- .... ....|--- .... ....|--- .... ....
....|..|C-4 AF.F ....|--- .... ....|--- .... ....
....|..|--- .... ....|--- .... ....|--- .... ....
....|..|--- .... ....|--- .... ....|--- .... ....
....|..|--- .... ....|--- .... ....|--- .... ....
....|..|C-4 AF.F ....|F#3 UF.F ....|--- .... ....
 F#4|..|F#3 2C.F ....|--- .... ....|--- .... ....
....|..|--- .... ....|--- .... ....|--- .... ....
....|..|F#3 2F.A ....|F#3 UF.A ....|--- .... ....
....|..|--- .... ....|--- .... ....|--- .... ....
....|..|--- .... ....|--- .... ....|--- .... ....
....|..|F#3 2F.7 ....|F#3 UF.7 ....|--- .... ....
....|..|--- .... ....|--- .... ....|--- .... ....
....|..|C-4 AF.F ....|B-3 UF.F ....|--- .... ....
 B-4|..|B-3 2C.F ....|--- .... ....|--- .... ....
....|..|--- .... ....|--- .... ....|--- .... ....
....|..|B-3 2F.A ....|B-3 UF.A ....|--- .... ....
....|..|--- .... ....|--- .... ....|--- .... ....
....|..|--- .... ....|--- .... ....|--- .... ....
....|..|B-3 2F.7 ....|B-3 UF.7 ....|--- .... ....
....|..|--- .... ....|--- .... ....|--- .... ....
....|..|C-4 AF.F ....|--- .... ....|--- .... ....
....|..|--- .... ....|--- .... ....|--- .... ....
....|..|--- .... ....|--- .... ....|--- .... ....
....|..|--- .... ....|--- .... ....|--- .... ....
....|..|C-4 AF.F ....|B-3 UF.F ....|--- .... ....
 B-4|..|B-3 2C.F ....|--- .... ....|--- .... ....
....|..|--- .... ....|--- .... ....|--- .... ....
....|..|B-3 2F.A ....|B-3 UF.A ....|--- .... ....
....|..|C-3 RF.F ....|--- .... ....|--- .... ....
....|..|--- .... ....|--- .... ....|--- .... ....
....|..|B-3 2F.7 ....|B-3 UF.7 ....|--- .... ....
....|..|--- .... ....|--- .... ....|--- .... ....
....|..|C-4 AF.F ....|--- .... ....|--- .... ....
....|..|--- .... ....|--- .... ....|--- .... ....
....|..|--- .... ....|--- .... ....|--- .... ....
....|..|--- .... ....|--- .... ....|--- .... ....
....|..|C-4 AF.F ....|B-3 UF.F ....|--- .... ....
 B-4|..|B-3 2C.F ....|--- .... ....|--- .... ....
....|..|--- .... ....|--- .... ....|--- .... ....
....|..|B-3 2F.A ....|B-3 UF.A ....|--- .... ....
....|..|--- .... ....|--- .... ....|--- .... ....
....|..|--- .... ....|--- .... ....|--- .... ....
....|..|B-3 2F.7 ....|B-3 UF.7 ....|--- .... ....
....|..|--- .... ....|--- .... ....|--- .... ....
....|..|C-4 AF.F ....|F#3 UF.F ....|--- .... ....
 F#4|..|F#3 2C.F ....|--- .... ....|--- .... ....
....|..|--- .... ....|--- .... ....|--- .... ....
....|..|F#3 2F.A ....|F#3 UF.A ....|--- .... ....
....|..|--- .... ....|--- .... ....|--- .... ....
....|..|--- .... ....|--- .... ....|--- .... ....
....|..|F#3 2F.7 ....|F#3 UF.7 ....|--- .... ....
....|..|--- .... ....|--- .... ....|--- .... ....
....|..|C-4 AF.F ....|--- .... ....|--- .... ....
....|..|--- .... ....|--- .... ....|--- .... ....
....|..|--- .... ....|--- .... ....|--- .... ....
....|..|--- .... ....|--- .... ....|--- .... ....
....|..|C-4 AF.F ....|F#3 UF.F ....|--- .... ....
 F#4|..|F#3 2C.F ....|--- .... ....|--- .... ....
....|..|--- .... ....|--- .... ....|--- .... ....
....|..|F#3 2F.A ....|F#3 UF.A ....|--- .... ....
....|..|C-3 RF.F ....|--- .... ....|--- .... ....
....|..|--- .... ....|--- .... ....|--- .... ....
....|..|F#3 2F.7 ....|F#3 UF.7 ....|--- .... ....
....|..|--- .... ....|--- .... ....|--- .... ....
....|..|C-4 AF.F ....|--- .... ....|--- .... ....
....|..|--- .... ....|--- .... ....|--- .... ....
....|..|--- .... ....|--- .... ....|--- .... ....
....|..|--- .... ....|--- .... ....|--- .... ....
....|..|C-4 AF.F ....|F#3 UF.F ....|--- .... ....
 F#4|..|F#3 2C.F ....|--- .... ....|--- .... ....
....|..|--- .... ....|--- .... ....|--- .... ....
....|..|F#3 2F.A ....|F#3 UF.A ....|--- .... ....
....|..|--- .... ....|--- .... ....|--- .... ....
....|..|--- .... ....|--- .... ....|--- .... ....
....|..|F#3 2F.7 ....|F#3 UF.7 ....|--- .... ....
....|..|--- .... ....|--- .... ....|--- .... ....
....|..|C-4 AF.F ....|A#3 UF.F ....|--- .... ....
 A#3|..|A#3 2C.F ....|--- .... ....|--- .... ....
....|..|--- .... ....|--- .... ....|--- .... ....
....|..|A#3 2F.A ....|A#3 UF.A ....|--- .... ....
....|..|C-5 VF.F ....|--- .... ....|--- .... ....
....|..|--- .... ....|--- .... ....|--- .... ....
....|..|C-5 VF.F ....|A#3 UF.7 ....|--- .... ....
....|..|A#3 2F.7 ....|--- .... ....|--- .... ....
....|..|C-4 AF.F ....|--- .... ....|--- .... ....
....|..|--- .... ....|--- .... ....|--- .... ....
....|..|--- .... ....|--- .... ....|--- .... ....
....|..|--- .... ....|--- .... ....|--- .... ....
....|..|C-4 CF.F ....|--- .... ....|--- .... ....
....|..|--- .... ....|--- .... ....|--- .... ....
....|..|--- .... ....|--- .... ....|--- .... ....
....|..|--- .... ....|--- .... ....|--- .... ....
....|..|C-4 AF.F ....|--- .... ....|--- .... ....
....|..|--- .... ....|--- .... ....|--- .... ....
....|..|C-5 VF.F ....|--- .... ....|--- .... ....
....|..|--- .... ....|--- .... ....|--- .... ....
....|..|C-5 VF.F ....|--- .... ....|--- .... ....
....|..|--- .... ....|--- .... ....|--- .... ....
....|..|C-5 VF.F ....|--- .... ....|--- .... ....
....|..|--- .... ....|--- .... ....|--- .... ....
....|..|C-4 AF.F ....|--- .... ....|--- .... ....
....|..|--- .... ....|--- .... ....|--- .... ....
....|..|--- .... ....|--- .... ....|--- .... ....
....|..|--- .... ....|--- .... ....|--- .... ....
....|..|C-4 9F.F ....|--- .... ....|--- .... ....
....|..|--- .... ....|--- .... ....|--- .... ....
....|..|--- .... ....|--- .... ....|--- .... ....
....|..|--- .... ....|--- .... ....|--- .... ....

[Pattern37]
 G#4|..|C-4 AF.F ....|C#3 UFCF ....|G#2 2AFF ....
 G#4|..|G#2 2A.F ....|--- .... ....|--- .... ....
 C#4|..|C#4 2C.F ....|--- .... ....|--- .F.. ....
....|..|G#2 2F.A ....|C#3 UFCA ....|G#2 2FFA ....
 E-4|..|C#4 2F.F ....|C#4 UF.F ....|E-5 2CEF ....
....|..|--- .... ....|--- .... ....|R-- .... ....
....|..|G#2 2F.7 ....|C#3 UFC7 ....|G#2 2FF7 ....
....|..|C#4 2F.A ....|C#4 UF.A ....|E-5 2FEA ....
 D#4|..|R-- .... ....|--- .... ....|D#5 2CEF ....
....|..|--- .... ....|--- .... ....|R-- .... ....
....|..|C#4 2F.7 ....|C#4 UF.7 ....|E-5 2FE7 ....
....|..|--- .... ....|--- .... ....|D#5 2FEA ....
 C#4|..|B-3 2F.F ....|B-3 UF.F ....|C#5 2CEF ....
....|..|--- .... ....|--- .... ....|R-- .... ....
....|..|--- .... ....|--- .... ....|D#5 2FE7 ....
....|..|B-3 2F.A ....|B-3 UF.A ....|C#5 2FEA ....
 C-3|..|--- .... ....|--- .... ....|C-5 2CEF ....
....|..|--- .... ....|--- .... ....|--- .... ....
....|..|B-3 2F.7 ....|B-3 UF.7 ....|C#5 2FE7 ....
....|..|--- .... ....|--- .... ....|C-5 2FEA ....
 C#4|..|--- .... ....|--- .... ....|C#5 2CEF ....
....|..|--- .... ....|--- .... ....|--- .... ....
....|..|--- .... ....|--- .... ....|C-5 2FE7 ....
....|..|--- .... ....|--- .... ....|C#5 2FEA ....
 D#4|..|A#3 2F.F ....|A#3 UF.F ....|D#5 2CEF ....
....|..|--- .... ....|--- .... ....|--- .... ....
....|..|--- .... ....|--- .... ....|C#5 2FE7 ....
....|..|A#3 2F.A ....|A#3 UF.A ....|D#5 2FEA ....
 C#4|..|--- .... ....|--- .... ....|C#5 2CEF ....
....|..|--- .... ....|--- .... ....|--- .... ....
....|..|A#3 2F.7 ....|A#3 UF.7 ....|D#5 2FE7 ....
....|..|--- .... ....|--- .... ....|C#5 2FEA ....
 G#4|..|C-4 AF.F ....|C#3 UF1F ....|G#2 2AFF ....
 G#4|..|G#2 2A.F ....|--- .... ....|--- .... ....
 G#4|..|G#2 2A.F ....|--- .... ....|C#5 2FE7 ....
....|..|G#2 2F.A ....|C#3 UF1A ....|G#2 2FFA ....
 E-4|..|R-- .... ....|R-- .... ....|E-5 2CEF ....
....|..|--- .... ....|--- .... ....|R-- .... ....
....|..|G#2 2F.7 ....|C#3 UF17 ....|G#2 2FF7 ....
....|..|R-- .... ....|R-- .... ....|E-5 2FEA ....
 D#4|..|R-- .... ....|--- .... ....|D#5 2CEF ....
....|..|--- .... ....|--- .... ....|R-- .... ....
....|..|R-- .... ....|R-- .... ....|E-5 2FE7 ....
....|..|--- .... ....|--- .... ....|D#5 2FEA ....
 C#4|..|--- .... ....|--- .... ....|C#5 2CEF ....
....|..|--- .... ....|--- .... ....|R-- .... ....
....|..|--- .... ....|--- .... ....|D#5 2FE7 ....
....|..|--- .... ....|--- .... ....|C#5 2FEA ....
 C-3|..|--- .... ....|--- .... ....|C-5 2CEF ....
....|..|--- .... ....|--- .... ....|--- .... ....
....|..|--- .... ....|--- .... ....|C#5 2FE7 ....
....|..|--- .... ....|--- .... ....|C-5 2FEA ....
 C#4|..|--- .... ....|--- .... ....|C#5 2CEF ....
....|..|--- .... ....|--- .... ....|--- .... ....
....|..|--- .... ....|--- .... ....|C-5 2FE7 ....
....|..|--- .... ....|--- .... ....|C#5 2FEA ....
 D#4|..|--- .... ....|--- .... ....|D#5 2CEF ....
....|..|--- .... ....|--- .... ....|--- .... ....
....|..|--- .... ....|--- .... ....|C#5 2FE7 ....
....|..|--- .... ....|--- .... ....|D#5 2FEA ....
 G#4|..|C-4 AF.F ....|C#3 UF1F ....|G#2 2AFF ....
 G#4|..|G#2 2A.F ....|--- .... ....|--- .... ....
 G#4|..|G#2 2A.F ....|--- .... ....|D#5 2FE7 ....
....|..|G#2 2F.A ....|C#3 UF1A ....|G#2 2FFA ....
 G#4|..|C-4 AF.F ....|C#3 UF1F ....|G#2 2AFF ....
 G#4|..|G#2 2A.F ....|--- .... ....|--- .... ....
....|..|G#2 2F.7 ....|C#3 UF17 ....|G#2 2FF7 ....
....|..|G#2 2F.A ....|C#3 UF1A ....|G#2 2FFA ....
 E-4|..|R-- .... ....|R-- .... ....|E-5 2CEF ....
....|..|G#2 2F.A ....|--- .... ....|R-- .... ....
....|..|G#2 2F.7 ....|C#3 UF17 ....|G#2 2FF7 ....
....|..|R-- .... ....|R-- .... ....|E-5 2FEA ....
 D#4|..|R-- .... ....|--- .... ....|D#5 2CEF ....
....|..|--- .... ....|--- .... ....|R-- .... ....
....|..|R-- .... ....|R-- .... ....|E-5 2FE7 ....
....|..|--- .... ....|--- .... ....|D#5 2FEA ....
 C#4|..|--- .... ....|--- .... ....|C#5 2CEF ....
....|..|--- .... ....|--- .... ....|R-- .... ....
....|..|--- .... ....|--- .... ....|D#5 2FE7 ....
....|..|--- .... ....|--- .... ....|C#5 2FEA ....
 C-3|..|--- .... ....|--- .... ....|C-5 2CEF ....
....|..|--- .... ....|--- .... ....|--- .... ....
....|..|--- .... ....|--- .... ....|C#5 2FE7 ....
....|..|--- .... ....|--- .... ....|C-5 2FEA ....
 C#4|..|--- .... ....|--- .... ....|C#5 2CEF ....
....|..|--- .... ....|--- .... ....|--- .... ....
....|..|--- .... ....|--- .... ....|C-5 2FE7 ....
....|..|--- .... ....|--- .... ....|C#5 2FEA ....
 D#4|..|--- .... ....|--- .... ....|D#5 2CEF ....
....|..|--- .... ....|--- .... ....|--- .... ....
....|..|--- .... ....|--- .... ....|C#5 2FE7 ....
....|..|--- .... ....|--- .... ....|D#5 2FEA ....
 C#4|..|--- .... ....|--- .... ....|C#5 2CEF ....
....|..|--- .... ....|--- .... ....|--- .... ....
....|..|--- .... ....|--- .... ....|D#5 2FE7 ....
....|..|--- .... ....|--- .... ....|C#5 2FEA ....
 G#4|..|C-4 AF.F ....|G#3 UF2F ....|G#3 2CFF ....
 G#4|..|G#3 2C.F ....|--- .... ....|--- .... ....
 G#4|..|G#3 2C.F ....|--- .... ....|C#5 2FE7 ....
....|..|G#3 2F.A ....|G#3 UF2A ....|G#3 2FFA ....
 D#4|..|G#3 2F.A ....|D#5 2C.F ....|--- .... ....
....|..|--- .... ....|--- .... ....|--- .... ....
....|..|G#3 2F.7 ....|G#3 UF27 ....|G#3 2FF7 ....
....|..|G#3 2F.7 ....|D#5 2F.A ....|--- .... ....
 C#4|..|C-3 RF.F ....|C#5 2C.F ....|--- .... ....
....|..|--- .... ....|--- .... ....|--- .... ....
....|..|--- .... ....|D#5 2F.7 ....|--- .... ....
....|..|--- .... ....|C#5 2F.A ....|--- .... ....
 C-3|..|--- .... ....|C-5 2C.F ....|--- .... ....
....|..|--- .... ....|--- .... ....|--- .... ....
....|..|--- .... ....|C#5 2F.7 ....|--- .... ....
....|..|--- .... ....|C-5 2F.A ....|--- .... ....
 A-3|..|C-3 RF.F ....|A-4 2C.F ....|--- .... ....
....|..|--- .... ....|--- .... ....|--- .... ....
....|..|--- .... ....|C-5 2F.7 ....|--- .... ....
....|..|--- .... ....|A-4 2F.A ....|--- .... ....
 G#4|..|--- .... ....|G#4 2C.F ....|--- .... ....
....|..|--- .... ....|--- .... ....|--- .... ....
....|..|--- .... ....|A-4 2F.7 ....|--- .... ....
....|..|--- .... ....|G#4 2F.A ....|--- .... ....
 F#3|..|C-3 RF.F ....|F#4 2C.F ....|--- .... ....
....|..|--- .... ....|--- .... ....|--- .... ....
....|..|--- .... ....|G#4 2F.7 ....|--- .... ....
....|..|--- .... ....|F#4 2F.A ....|--- .... ....
 E-4|..|C-3 9F.F ....|E-4 2C.F ....|--- .... ....
....|..|--- .... ....|--- .... ....|--- .... ....
....|..|--- .... ....|F#4 2F.7 ....|--- .... ....
....|..|--- .... ....|E-4 2F.A ....|--- .... ....

[Pattern38]
 D#4|..|C-4 AF.F ....|D#4 2C.F ....|--- .... ....
....|..|--- .... ....|--- .... ....|--- .... ....
....|..|C-4 9F.F ....|E-4 2F.7 ....|--- .... ....
....|..|--- .... ....|D#4 2F.A ....|--- .... ....
 C#4|..|R-- .... ....|C#4 2C.F ....|--- .... ....
....|..|--- .... ....|--- .... ....|--- .... ....
....|..|C-5 VF.F ....|D#4 2F.7 ....|--- .... ....
....|..|--- .... ....|C#4 2F.A ....|--- .... ....
 C-3|..|C-4 AF.F ....|C-4 2C.F ....|--- .... ....
....|..|--- .... ....|--- .... ....|--- .... ....
....|..|R-- .... ....|C#4 2F.7 ....|--- .... ....
....|..|--- .... ....|C-4 2F.A ....|--- .... ....
 C#4|..|C-4 AF.F ....|C#4 2C.F ....|--- .... ....
....|..|--- .... ....|--- .... ....|--- .... ....
....|..|C-5 VF.F ....|C-4 2F.7 ....|--- .... ....
....|..|--- .... ....|C#4 2F.A ....|--- .... ....
 D#4|..|C-4 AF.F ....|D#4 2C.F ....|--- .... ....
....|..|--- .... ....|--- .... ....|--- .... ....
....|..|C-3 RF.F ....|C#4 2F.7 ....|--- .... ....
....|..|--- .... ....|D#4 2F.A ....|--- .... ....
 C#4|..|C-4 AF.F ....|C#4 2C.F ....|--- .... ....
....|..|--- .... ....|--- .... ....|--- .... ....
....|..|R-- .... ....|D#4 2F.7 ....|--- .... ....
....|..|--- .... ....|C#4 2F.A ....|--- .... ....
 C-3|..|C-4 AF.F ....|C-4 2C.F ....|--- .... ....
....|..|--- .... ....|--- .... ....|--- .... ....
....|..|C-4 9F.F ....|C#4 2F.7 ....|--- .... ....
....|..|--- .... ....|C-4 2F.A ....|--- .... ....
 D#4|..|C-4 9F.F ....|D#4 2C.F ....|--- .... ....
....|..|--- .... ....|--- .... ....|--- .... ....
....|..|C-3 9F.F ....|C-4 2F.7 ....|--- .... ....
....|..|--- .... ....|D#4 2F.A ....|--- .... ....
 C#4|..|C-4 AF.F ....|C#4 2C.F ....|C#3 2CFF ....
 C#4|..|C#2 2A.F ....|C#2 UF.F ....|--- .... ....
 C#4|..|C#2 2A.F ....|D#4 2F.7 ....|--- .... ....
....|..|C#2 2F.A ....|C#4 2F.A ....|C#2 2FFA ....
 E-4|..|C#2 2F.F ....|C#2 UF.F ....|E-5 2CEF ....
 C#4|..|C#2 2F.A ....|--- .... ....|C#2 2AFF ....
 C#4|..|C#2 2A.F ....|C#2 UF.F ....|C#2 2AFF ....
....|..|C#2 2F.A ....|C#2 UF.A ....|E-5 2FEA ....
 D#4|..|C-4 CF.F ....|C#2 UF.F ....|D#5 2CEF ....
 C#4|..|C#2 2A.F ....|C#2 UF.A ....|C#2 2FFA ....
....|..|C#2 2F.A ....|C#2 UF.7 ....|E-5 2FE7 ....
....|..|C#2 2F.A ....|C#2 UF.A ....|D#5 2FEA ....
 C#4|..|C#3 2C.F ....|C#2 UF.F ....|C#5 2CEF ....
....|..|C#2 2F.7 ....|--- .... ....|C#2 2FF7 ....
 C#4|..|C#2 2A.F ....|C#2 UF.F ....|C#2 2AFF ....
....|..|C#2 2F.A ....|C#2 UF.A ....|C#5 2FEA ....
 C-3|..|C-4 AF.F ....|C#2 UF.F ....|C-5 2CEF ....
 C#4|..|C#2 2A.F ....|C#2 UF.A ....|C#2 2FFA ....
....|..|C#2 2F.A ....|C#2 UF.7 ....|C#5 2FE7 ....
....|..|C#2 2F.A ....|C#2 UF.A ....|C-5 2FEA ....
 C#4|..|C#3 2C.F ....|C#2 UF.F ....|C#5 2CEF ....
....|..|C#2 2F.7 ....|--- .... ....|C#2 2FF7 ....
 C#4|..|C#2 2A.F ....|C#2 UF.F ....|C#2 2AFF ....
....|..|C#2 2F.A ....|C#2 UF.A ....|C#5 2FEA ....
 D#4|..|C-4 CF.F ....|C#2 UF.F ....|D#5 2CEF ....
 C#4|..|C#2 2A.F ....|C#2 UF.A ....|C#2 2FFA ....
....|..|C#2 2F.A ....|C#2 UF.7 ....|C#5 2FE7 ....
....|..|C#2 2F.A ....|C#2 UF.A ....|D#5 2FEA ....
 C#4|..|C#3 2C.F ....|C#2 UF.F ....|C#5 2CEF ....
....|..|C#2 2F.7 ....|--- .... ....|C#2 2FF7 ....
 C#4|..|C#2 2A.F ....|C#2 UF.F ....|C#2 2AFF ....
....|..|C#2 2F.A ....|C#2 UF.A ....|C#5 2FEA ....
 C#4|..|C-4 AF.F ....|C#2 UF.F ....|C#2 2AFF ....
 C#4|..|C#2 2A.F ....|C#2 UF.A ....|C#2 2FFA ....
....|..|C#2 2F.A ....|C#2 UF.7 ....|C#5 2FE7 ....
....|..|C#2 2F.A ....|C#2 UF.A ....|C#2 2FFA ....
 E-4|..|C#2 2F.F ....|C#2 UF.F ....|E-5 2CEF ....
 C#4|..|C#2 2F.7 ....|--- .... ....|C#2 2AFF ....
 C#4|..|C#2 2A.F ....|C#2 UF.F ....|C#2 2AFF ....
....|..|C#2 2F.A ....|C#2 UF.A ....|E-5 2FEA ....
 D#4|..|C-4 CF.F ....|C#2 UF.F ....|D#5 2CEF ....
 C#4|..|C#2 2A.F ....|C#2 UF.A ....|C#2 2FFA ....
....|..|C#2 2F.A ....|C#2 UF.7 ....|E-5 2FE7 ....
....|..|C#2 2F.A ....|C#2 UF.A ....|D#5 2FEA ....
 C#4|..|C#3 2C.F ....|C#2 UF.F ....|C#5 2CEF ....
....|..|C#2 2F.7 ....|--- .... ....|C#2 2FF7 ....
 C#4|..|C#2 2A.F ....|C#2 UF.F ....|C#2 2AFF ....
....|..|C#2 2F.A ....|C#2 UF.A ....|C#5 2FEA ....
 C-3|..|C-4 AF.F ....|C#2 UF.F ....|C-5 2CEF ....
 C#4|..|C#2 2A.F ....|C#2 UF.A ....|C#2 2FFA ....
....|..|C#2 2F.A ....|C#2 UF.7 ....|C#5 2FE7 ....
....|..|C#2 2F.A ....|C#2 UF.A ....|C-5 2FEA ....
 C#4|..|C#3 2C.F ....|C#2 UF.F ....|C#5 2CEF ....
....|..|C#2 2F.7 ....|--- .... ....|C#2 2FF7 ....
 C#4|..|C#2 2A.F ....|C#2 UF.F ....|C#2 2AFF ....
....|..|C#2 2F.A ....|C#2 UF.A ....|C#5 2FEA ....
 D#4|..|C-4 CF.F ....|C#2 UF.F ....|D#5 2CEF ....
 C#4|..|C#2 2A.F ....|C#2 UF.A ....|C#2 2FFA ....
....|..|C#2 2F.A ....|C#2 UF.7 ....|C#5 2FE7 ....
....|..|C#2 2F.A ....|C#2 UF.A ....|D#5 2FEA ....
 C#4|..|C#3 2C.F ....|C#2 UF.F ....|C#5 2CEF ....
....|..|C#2 2F.7 ....|--- .... ....|C#2 2FF7 ....
 C#4|..|C#2 2A.F ....|C#2 UF.F ....|C#2 2AFF ....
....|..|C#2 2F.A ....|C#2 UF.A ....|C#5 2FEA ....
 C#4|..|C-4 AF.F ....|C#2 UF.F ....|C#2 2AFF ....
 C#4|..|C#2 2A.F ....|C#2 UF.A ....|C#2 2FFA ....
....|..|C#2 2F.A ....|C#2 UF.7 ....|C#5 2FE7 ....
....|..|C#2 2F.A ....|C#2 UF.A ....|C#2 2FFA ....
 E-4|..|C#2 2F.F ....|C#2 UF.F ....|E-5 2CEF ....
 C#4|..|C#2 2F.7 ....|--- .... ....|C#2 2AFF ....
 C#4|..|C#2 2A.F ....|C#2 UF.F ....|C#2 2AFF ....
....|..|C#2 2F.A ....|C#2 UF.A ....|E-5 2FEA ....
 D#4|..|C-4 CF.F ....|C#2 UF.F ....|D#5 2CEF ....
 C#4|..|C#2 2A.F ....|C#2 UF.A ....|C#2 2FFA ....
....|..|C#2 2F.A ....|C#2 UF.7 ....|E-5 2FE7 ....
....|..|C#2 2F.A ....|C#2 UF.A ....|D#5 2FEA ....
 C#4|..|C#3 2C.F ....|C#2 UF.F ....|C#5 2CEF ....
....|..|C#2 2F.7 ....|--- .... ....|C#2 2FF7 ....
 C#4|..|C#2 2A.F ....|C#2 UF.F ....|C#2 2AFF ....
....|..|C#2 2F.A ....|C#2 UF.A ....|C#5 2FEA ....
 G#4|..|C-4 AF.F ....|C#2 UF.F ....|G#5 2CEF ....
 C#4|..|C#2 2A.F ....|C#2 UF.A ....|C#2 2FFA ....
....|..|C#2 2F.A ....|C#2 UF.7 ....|C#5 2FE7 ....
....|..|C#2 2F.A ....|C#2 UF.A ....|G#5 2FEA ....
 E-4|..|C#2 2F.F ....|C#2 UF.F ....|E-5 2CEF ....
....|..|C#2 2F.7 ....|--- .... ....|C#2 2FF7 ....
 C#4|..|C#2 2A.F ....|C#2 UF.F ....|C#2 2AFF ....
....|..|C#2 2F.A ....|C#2 UF.A ....|E-5 2FEA ....
 C#4|..|C-4 CF.F ....|C#2 UF.F ....|C#5 2CEF ....
 C#4|..|C#2 2A.F ....|C#2 UF.A ....|C#2 2FFA ....
....|..|C#2 2F.A ....|C#2 UF.7 ....|E-5 2FE7 ....
....|..|C#2 2F.A ....|C#2 UF.A ....|C#5 2FEA ....
 D#4|..|C#2 2F.F ....|C#2 UF.F ....|D#5 2CEF ....
....|..|C#2 2F.7 ....|--- .... ....|C#2 2FF7 ....
 C#4|..|C#2 2A.F ....|C#2 UF.F ....|C#2 2AFF ....
....|..|C#2 2F.A ....|C#2 UF.A ....|D#5 2FEA ....

[Pattern39]
 G#4|..|C-4 AF.F ....|G#2 UF.F ....|G#2 2AFF ....
 G#4|..|G#2 2A.F ....|C#2 UF.A ....|C#2 2FFA ....
....|..|C#2 2F.A ....|C#2 UF.7 ....|D#5 2FE7 ....
....|..|G#2 2F.A ....|G#2 UF.A ....|G#2 2FFA ....
 D#4|..|G#2 2F.F ....|D#5 2C.F ....|G#2 2FFF ....
....|..|C#2 2F.7 ....|G#2 UF.F ....|--- .... ....
 G#4|..|G#2 2A.F ....|G#2 UF.F ....|G#2 2AFF ....
....|..|G#2 2F.A ....|D#5 2F.A ....|G#2 2FFA ....
 C#4|..|C-4 CF.F ....|C#5 2C.F ....|G#2 2FFF ....
 G#4|..|G#2 2A.F ....|G#2 UF.A ....|G#2 2FFA ....
....|..|G#2 2F.A ....|D#5 2F.7 ....|G#2 2FF7 ....
....|..|G#2 2F.A ....|C#5 2F.A ....|G#2 2FFA ....
 C-3|..|G#2 2F.F ....|C-5 2C.F ....|G#2 2FFF ....
....|..|G#2 2F.7 ....|G#2 UF.7 ....|--- .... ....
 G#4|..|G#2 2A.F ....|G#2 UF.F ....|G#2 2AFF ....
....|..|G#2 2F.A ....|C-5 2F.A ....|G#2 2FFA ....
 A-3|..|C-4 AF.F ....|A-4 2C.F ....|G#2 2FFF ....
 G#4|..|G#2 2A.F ....|G#2 UF.A ....|G#2 2FFA ....
....|..|G#2 2F.A ....|C-5 2F.7 ....|G#2 2FF7 ....
....|..|G#2 2F.A ....|A-4 2F.A ....|G#2 2FFA ....
 G#4|..|G#3 2C.F ....|G#4 2C.F ....|G#3 2CFF ....
....|..|G#2 2F.7 ....|G#2 UF.7 ....|--- .... ....
 G#4|..|G#2 2A.F ....|G#2 UF.F ....|G#2 2AFF ....
....|..|G#2 2F.A ....|G#4 2F.A ....|G#2 2FFA ....
 E-4|..|C-4 CF.F ....|E-4 2C.F ....|G#2 2FFF ....
 G#4|..|G#2 2A.F ....|G#2 UF.A ....|G#2 2FFA ....
....|..|G#2 2F.A ....|G#4 2F.7 ....|G#2 2FF7 ....
....|..|G#2 2F.A ....|E-4 2F.A ....|G#2 2FFA ....
 D#4|..|G#2 2F.F ....|D#4 2C.F ....|G#2 2FFF ....
....|..|G#2 2F.7 ....|G#2 UF.7 ....|--- .... ....
 G#4|..|G#2 2A.F ....|G#2 UF.F ....|G#2 2AFF ....
....|..|G#2 2F.A ....|D#4 2F.A ....|G#2 2FFA ....
 C#4|..|C-4 AF.F ....|C#4 2C.F ....|C#3 2CFF ....
 C#4|..|C#2 2A.F ....|G#2 UF.A ....|G#2 2FFA ....
....|..|G#2 2F.A ....|D#4 2F.7 ....|G#2 2FF7 ....
....|..|C#2 2F.A ....|C#4 2F.A ....|C#2 2FFA ....
 E-4|..|C#2 2F.F ....|C#2 UF.F ....|E-5 2CEF ....
 C#4|..|G#2 2F.7 ....|G#2 UF.7 ....|C#2 2AFF ....
 C#4|..|C#2 2A.F ....|C#2 UF.F ....|C#2 2AFF ....
....|..|C#2 2F.A ....|C#2 UF.A ....|E-5 2FEA ....
 D#4|..|C-4 CF.F ....|C#2 UF.F ....|D#5 2CEF ....
 C#4|..|C#2 2A.F ....|C#2 UF.A ....|C#2 2FFA ....
....|..|C#2 2F.A ....|C#2 UF.7 ....|E-5 2FE7 ....
....|..|C#2 2F.A ....|C#2 UF.A ....|D#5 2FEA ....
 C#4|..|C#3 2C.F ....|C#2 UF.F ....|C#5 2CEF ....
....|..|C#2 2F.7 ....|--- .... ....|C#2 2FF7 ....
 C#4|..|C#2 2A.F ....|C#2 UF.F ....|C#2 2AFF ....
....|..|C#2 2F.A ....|C#2 UF.A ....|C#5 2FEA ....
 C-3|..|C-4 AF.F ....|C#2 UF.F ....|C-5 2CEF ....
 C#4|..|C#2 2A.F ....|C#2 UF.A ....|C#2 2FFA ....
....|..|C#2 2F.A ....|C#2 UF.7 ....|C#5 2FE7 ....
....|..|C#2 2F.A ....|C#2 UF.A ....|C-5 2FEA ....
 C#4|..|C#3 2C.F ....|C#2 UF.F ....|C#5 2CEF ....
....|..|C#2 2F.7 ....|--- .... ....|C#2 2FF7 ....
 C#4|..|C#2 2A.F ....|C#2 UF.F ....|C#2 2AFF ....
....|..|C#2 2F.A ....|C#2 UF.A ....|C#5 2FEA ....
 D#4|..|C-4 CF.F ....|C#2 UF.F ....|D#5 2CEF ....
 C#4|..|C#2 2A.F ....|C#2 UF.A ....|C#2 2FFA ....
....|..|C#2 2F.A ....|C#2 UF.7 ....|C#5 2FE7 ....
....|..|C#2 2F.A ....|C#2 UF.A ....|D#5 2FEA ....
 C#4|..|C#3 2C.F ....|C#2 UF.F ....|C#5 2CEF ....
....|..|C#2 2F.7 ....|--- .... ....|C#2 2FF7 ....
 C#4|..|C#2 2A.F ....|C#2 UF.F ....|C#2 2AFF ....
....|..|C#2 2F.A ....|C#2 UF.A ....|C#5 2FEA ....
 C#4|..|C-4 AF.F ....|C#2 UF.F ....|C#2 2AFF ....
 C#4|..|C#2 2A.F ....|C#2 UF.A ....|C#2 2FFA ....
....|..|C#2 2F.A ....|C#2 UF.7 ....|C#5 2FE7 ....
....|..|C#2 2F.A ....|C#2 UF.A ....|C#2 2FFA ....
 E-4|..|C#2 2F.F ....|C#2 UF.F ....|E-5 2CEF ....
 C#4|..|C#2 2F.7 ....|--- .... ....|C#2 2AFF ....
 C#4|..|C#2 2A.F ....|C#2 UF.F ....|C#2 2AFF ....
....|..|C#2 2F.A ....|C#2 UF.A ....|E-5 2FEA ....
 D#4|..|C-4 CF.F ....|C#2 UF.F ....|D#5 2CEF ....
 C#4|..|C#2 2A.F ....|C#2 UF.A ....|C#2 2FFA ....
....|..|C#2 2F.A ....|C#2 UF.7 ....|E-5 2FE7 ....
....|..|C#2 2F.A ....|C#2 UF.A ....|D#5 2FEA ....
 C#4|..|C#3 2C.F ....|C#2 UF.F ....|C#5 2CEF ....
....|..|C#2 2F.7 ....|--- .... ....|C#2 2FF7 ....
 C#4|..|C#2 2A.F ....|C#2 UF.F ....|C#2 2AFF ....
....|..|C#2 2F.A ....|C#2 UF.A ....|C#5 2FEA ....
 C-3|..|C-4 AF.F ....|C#2 UF.F ....|C-5 2CEF ....
 C#4|..|C#2 2A.F ....|C#2 UF.A ....|C#2 2FFA ....
....|..|C#2 2F.A ....|C#2 UF.7 ....|C#5 2FE7 ....
....|..|C#2 2F.A ....|C#2 UF.A ....|C-5 2FEA ....
 C#4|..|C#3 2C.F ....|C#2 UF.F ....|C#5 2CEF ....
....|..|C#2 2F.7 ....|--- .... ....|C#2 2FF7 ....
 C#4|..|C#2 2A.F ....|C#2 UF.F ....|C#2 2AFF ....
....|..|C#2 2F.A ....|C#2 UF.A ....|C#5 2FEA ....
 D#4|..|C-4 CF.F ....|C#2 UF.F ....|D#5 2CEF ....
 C#4|..|C#2 2A.F ....|C#2 UF.A ....|C#2 2FFA ....
....|..|C#2 2F.A ....|C#2 UF.7 ....|C#5 2FE7 ....
....|..|C#2 2F.A ....|C#2 UF.A ....|D#5 2FEA ....
 C#4|..|C#3 2C.F ....|C#2 UF.F ....|C#5 2CEF ....
....|..|C#2 2F.7 ....|--- .... ....|C#2 2FF7 ....
 C#4|..|C#2 2A.F ....|C#2 UF.F ....|C#2 2AFF ....
....|..|C#2 2F.A ....|C#2 UF.A ....|C#5 2FEA ....
 C#4|..|C-4 AF.F ....|C#2 UF.F ....|C#2 2AFF ....
 C#4|..|C#2 2A.F ....|C#2 UF.A ....|C#2 2FFA ....
....|..|C#2 2F.A ....|C#2 UF.7 ....|C#5 2FE7 ....
....|..|C#2 2F.A ....|C#2 UF.A ....|C#2 2FFA ....
 E-4|..|C#2 2F.F ....|C#2 UF.F ....|E-5 2CEF ....
 C#4|..|C#2 2F.7 ....|--- .... ....|C#2 2AFF ....
 C#4|..|C#2 2A.F ....|C#2 UF.F ....|C#2 2AFF ....
....|..|C#2 2F.A ....|C#2 UF.A ....|E-5 2FEA ....
 D#4|..|C-4 CF.F ....|C#2 UF.F ....|D#5 2CEF ....
 C#4|..|C#2 2A.F ....|C#2 UF.A ....|C#2 2FFA ....
....|..|C#2 2F.A ....|C#2 UF.7 ....|E-5 2FE7 ....
....|..|C#2 2F.A ....|C#2 UF.A ....|D#5 2FEA ....
 C#4|..|C#3 2C.F ....|C#2 UF.F ....|C#5 2CEF ....
....|..|C#2 2F.7 ....|--- .... ....|C#2 2FF7 ....
 C#4|..|C#2 2A.F ....|C#2 UF.F ....|C#2 2AFF ....
....|..|C#2 2F.A ....|C#2 UF.A ....|C#5 2FEA ....
 G#4|..|C-4 AF.F ....|C#2 UF.F ....|G#5 2CEF ....
 C#4|..|C#2 2A.F ....|C#2 UF.A ....|C#2 2FFA ....
....|..|C#2 2F.A ....|C#2 UF.7 ....|C#5 2FE7 ....
....|..|C#2 2F.A ....|C#2 UF.A ....|G#5 2FEA ....
 E-4|..|C#2 2F.F ....|C#2 UF.F ....|E-5 2CEF ....
....|..|C#2 2F.7 ....|--- .... ....|C#2 2FF7 ....
 C#4|..|C#2 2A.F ....|C#2 UF.F ....|C#2 2AFF ....
....|..|C#2 2F.A ....|C#2 UF.A ....|E-5 2FEA ....
 C#4|..|C-4 CF.F ....|C#2 UF.F ....|C#5 2CEF ....
 C#4|..|C#2 2A.F ....|C#2 UF.A ....|C#2 2FFA ....
....|..|C#2 2F.A ....|C#2 UF.7 ....|E-5 2FE7 ....
....|..|C#2 2F.A ....|C#2 UF.A ....|C#5 2FEA ....
 D#4|..|C#2 2F.F ....|C#2 UF.F ....|D#5 2CEF ....
....|..|C#2 2F.7 ....|--- .... ....|C#2 2FF7 ....
 C#4|..|C#2 2A.F ....|C#2 UF.F ....|C#2 2AFF ....
....|..|C#2 2F.A ....|C#2 UF.A ....|D#5 2FEA ....

[Pattern42]
 G#4|..|C-4 AF.F ....|G#2 UF.F ....|G#2 2AFF ....
 G#4|..|G#2 2A.F ....|C#2 UF.A ....|C#2 2FFA ....
....|..|C#2 2F.A ....|C#2 UF.7 ....|D#5 2FE7 ....
....|..|G#2 2F.A ....|G#2 UF.A ....|G#2 2FFA ....
 D#4|..|G#2 2F.F ....|D#5 2C.F ....|G#2 2FFF ....
....|..|C#2 2F.7 ....|G#2 UF.F ....|--- .... ....
 G#4|..|G#2 2A.F ....|G#2 UF.F ....|G#2 2AFF ....
....|..|G#2 2F.A ....|D#5 2F.A ....|G#2 2FFA ....
 C#4|..|C-4 CF.F ....|C#5 2C.F ....|G#2 2FFF ....
 G#4|..|G#2 2A.F ....|G#2 UF.A ....|G#2 2FFA ....
....|..|G#2 2F.A ....|D#5 2F.7 ....|G#2 2FF7 ....
....|..|G#2 2F.A ....|C#5 2F.A ....|G#2 2FFA ....
 C-3|..|G#2 2F.F ....|C-5 2C.F ....|G#2 2FFF ....
....|..|G#2 2F.7 ....|G#2 UF.7 ....|--- .... ....
 G#4|..|G#2 2A.F ....|G#2 UF.F ....|G#2 2AFF ....
....|..|G#2 2F.A ....|C-5 2F.A ....|G#2 2FFA ....
 A-3|..|C-4 AF.F ....|A-4 2C.F ....|G#2 2FFF ....
 G#4|..|G#2 2A.F ....|G#2 UF.A ....|G#2 2FFA ....
....|..|G#2 2F.A ....|C-5 2F.7 ....|G#2 2FF7 ....
....|..|G#2 2F.A ....|A-4 2F.A ....|G#2 2FFA ....
 G#4|..|G#3 2C.F ....|G#4 2C.F ....|G#3 2CFF ....
....|..|G#2 2F.7 ....|G#2 UF.7 ....|--- .... ....
 G#4|..|G#2 2A.F ....|G#2 UF.F ....|G#2 2AFF ....
....|..|G#2 2F.A ....|G#4 2F.A ....|G#2 2FFA ....
 E-4|..|C-4 CF.F ....|E-4 2C.F ....|G#3 2FEF ....
 G#4|..|G#2 2A.F ....|G#2 UF.A ....|G#2 2AFF ....
....|..|G#2 2F.A ....|G#4 2F.7 ....|G#2 2FFA ....
....|..|G#2 2F.A ....|E-4 2F.A ....|G#3 2FEA ....
 D#4|..|G#2 2F.F ....|D#4 2C.F ....|G#2 2FFF ....
....|..|G#2 2F.7 ....|G#2 UF.7 ....|G#2 2FFA ....
 G#4|..|G#2 2A.F ....|G#2 UF.F ....|G#2 2AFF ....
....|..|G#2 2F.A ....|D#4 2F.A ....|G#2 2FFA ....
 C#4|..|C-4 AF.F ....|C#4 2C.F ....|G#3 2FEF ....
 C#4|..|C#3 2C.F ....|G#2 UF.A ....|C#3 2CFF ....
....|..|G#2 2F.A ....|D#4 2F.7 ....|G#2 2FFA ....
....|..|C#3 2F.A ....|C#4 2F.A ....|G#3 2FEA ....
....|..|G#2 2F.7 ....|G#2 UF.A ....|G#2 2FF7 ....
....|..|G#2 2F.7 ....|G#2 UF.7 ....|C#3 2FFA ....
....|..|C#3 2F.7 ....|C#4 2F.7 ....|G#3 2FE7 ....
....|..|G#2 2F.7 ....|G#2 UF.7 ....|G#2 2FF7 ....
....|..|C#3 2F.7 ....|C#3 UF27 ....|C#3 2FF7 ....
....|..|--- .... ....|--- .... ....|--- .... ....
....|..|--- .... ....|R-- .... ....|--- .... ....
....|..|--- .... ....|--- .... ....|--- .... ....
....|..|--- .... ....|--- .... ....|--- .... ....
....|..|--- .... ....|--- .... ....|--- .... ....
....|..|--- .... ....|--- .... ....|--- .... ....
....|..|--- .... ....|--- .... ....|--- .... ....
....|..|C-4 AF.F ....|--- .... ....|--- .... ....
....|..|--- .... ....|--- .... ....|--- .... ....
....|..|--- .... ....|--- .... ....|--- .... ....
....|..|--- .... ....|--- .... ....|--- .... ....
....|..|--- .... ....|--- .... ....|--- .... ....
....|..|--- .... ....|--- .... ....|--- .... ....
....|..|--- .... ....|--- .... ....|--- .... ....
....|..|--- .... ....|--- .... ....|--- .... ....
 G#4|..|--- .... ....|--- .... ....|G#3 2CEF ....
....|..|--- .... ....|--- .... ....|--- .... ....
....|..|--- .... ....|--- .... ....|--- .... ....
....|..|--- .... ....|--- .... ....|G#3 2FEA ....
....|..|--- .... ....|--- .... ....|--- .... ....
....|..|--- .... ....|--- .... ....|--- .... ....
....|..|--- .... ....|--- .... ....|G#3 2FE7 ....
....|..|--- .... ....|--- .... ....|--- .... ....
 G-4|..|C-4 AF.F ....|G-3 UF3F ....|G-3 2CEF ....
 C#4|..|C#3 2C.F ....|--- .... ....|C#3 2CFF ....
 C#4|..|C#3 2C.F ....|--- .... ....|--- .... ....
....|..|C#3 2F.A ....|G-3 UF3A ....|G-3 2FEA ....
....|..|C#3 2F.A ....|--- .... ....|C#3 2FFA ....
....|..|--- .... ....|--- .... ....|--- .... ....
....|..|C#3 2F.7 ....|G-3 UF37 ....|G-3 2FE7 ....
....|..|C#3 2F.7 ....|--- .... ....|C#3 2FF7 ....
....|..|C-4 AF.F ....|--- .... ....|--- .... ....
....|..|--- .... ....|--- .... ....|--- .... ....
....|..|--- .... ....|--- .... ....|--- .... ....
....|..|--- .... ....|--- .... ....|--- .... ....
....|..|--- .... ....|--- .... ....|--- .... ....
....|..|--- .... ....|--- .... ....|--- .... ....
....|..|--- .... ....|--- .... ....|--- .... ....
....|..|--- .... ....|--- .... ....|--- .... ....
....|..|--- .... ....|--- .... ....|--- .... ....
....|..|--- .... ....|--- .... ....|--- .... ....
....|..|--- .... ....|--- .... ....|--- .... ....
....|..|--- .... ....|--- .... ....|--- .... ....
....|..|C-4 CF.F ....|--- .... ....|--- .... ....
....|..|--- .... ....|--- .... ....|--- .... ....
....|..|--- .... ....|--- .... ....|--- .... ....
....|..|--- .... ....|--- .... ....|--- .... ....
 G#4|..|C-4 AF.F ....|--- .... ....|G#3 2CEF ....
....|..|--- .... ....|--- .... ....|--- .... ....
....|..|--- .... ....|--- .... ....|--- .... ....
....|..|--- .... ....|--- .... ....|G#3 2FEA ....
....|..|C-4 CF.F ....|--- .... ....|--- .... ....
....|..|--- .... ....|--- .... ....|--- .... ....
....|..|--- .... ....|--- .... ....|G#3 2FE7 ....
....|..|--- .... ....|--- .... ....|--- .... ....
 A-3|..|C-4 AF.F ....|G#3 UF1F ....|A-3 2CEF ....
 D#4|..|D#3 2C.F ....|--- .... ....|D#3 2CFF ....
 D#4|..|D#3 2C.F ....|--- .... ....|--- .... ....
....|..|D#3 2F.A ....|G#3 UF1A ....|A-3 2FEA ....
 D#4|..|D#3 2C.F ....|G#3 UF1F ....|D#3 2CFF ....
....|..|D#3 2F.A ....|--- .... ....|--- .... ....
....|..|D#3 2F.7 ....|G#3 UF17 ....|A-3 2FE7 ....
....|..|D#3 2F.A ....|G#3 UF1A ....|D#3 2FFA ....
 D#4|..|C-4 CF.F ....|G#3 UF1F ....|D#3 2CFF ....
 D#4|..|D#3 2C.F ....|--- .... ....|--- .... ....
....|..|D#3 2F.7 ....|G#3 UF17 ....|D#3 2FF7 ....
....|..|D#3 2F.A ....|G#3 UF1A ....|D#3 2FFA ....
 D#4|..|C-4 AF.F ....|G#3 UF1F ....|D#3 2CFF ....
 D#4|..|D#3 2C.F ....|--- .... ....|--- .... ....
....|..|D#3 2F.7 ....|G#3 UF17 ....|D#3 2FF7 ....
....|..|D#3 2F.A ....|G#3 UF1A ....|D#3 2FFA ....
 G#4|..|C-4 AF.F ....|G#3 UF1F ....|G#3 2CEF ....
 D#4|..|D#3 2C.F ....|--- .... ....|D#3 2CFF ....
....|..|D#3 2F.7 ....|G#3 UF17 ....|D#3 2FF7 ....
....|..|D#3 2F.A ....|G#3 UF1A ....|G#3 2FEA ....
 D#4|..|C-4 AF.F ....|G#3 UF1F ....|D#3 2CFF ....
 D#4|..|D#3 2C.F ....|--- .... ....|--- .... ....
....|..|D#3 2F.7 ....|G#3 UF17 ....|G#3 2FE7 ....
....|..|D#3 2F.A ....|G#3 UF1A ....|D#3 2FFA ....
 E-4|..|C-4 CF.F ....|A-3 UF1F ....|E-3 2CFF ....
 E-4|..|E-3 2C.F ....|--- .... ....|--- .... ....
....|..|D#3 2F.7 ....|G#3 UF17 ....|D#3 2FF7 ....
....|..|E-3 2F.A ....|A-3 UF1A ....|E-3 2FFA ....
 D#4|..|C-4 LF.F ....|G#3 UF1F ....|D#3 2CFF ....
 D#4|..|D#3 2C.F ....|--- .... ....|--- .... ....
....|..|E-3 2F.7 ....|A-3 UF17 ....|E-3 2FF7 ....
....|..|D#3 2F.A ....|G#3 UF1A ....|D#3 2FFA ....

[Pattern43]
....|..|C-4 AF.F ....|--- .... ....|--- .... ....
....|..|E-3 2F.7 ....|--- .... ....|--- .... ....
....|..|D#3 2F.7 ....|G#3 UF17 ....|D#3 2FF7 ....
....|..|D#3 2F.7 ....|--- .... ....|--- .... ....
 D#4|..|D#3 2C.F ....|G#3 UF1F ....|D#3 2CFF ....
 D#4|..|D#3 2C.F ....|--- .... ....|--- .... ....
....|..|--- .... ....|--- .... ....|--- .... ....
....|..|D#3 2F.A ....|G#3 UF1A ....|D#3 2FFA ....
 D#4|..|C-4 CF.F ....|G#3 UF1F ....|D#3 2CFF ....
 D#4|..|D#3 2C.F ....|--- .... ....|--- .... ....
....|..|D#3 2F.7 ....|G#3 UF17 ....|D#3 2FF7 ....
....|..|D#3 2F.A ....|G#3 UF1A ....|D#3 2FFA ....
 D#4|..|D#3 2C.F ....|G#3 UF1F ....|D#3 2CFF ....
....|..|D#3 2F.7 ....|--- .... ....|--- .... ....
....|..|D#3 2F.7 ....|G#3 UF17 ....|D#3 2FF7 ....
....|..|D#3 2F.A ....|G#3 UF1A ....|D#3 2FFA ....
 G-4|..|C-4 AF.F ....|C-4 UF1F ....|G-3 2CFF ....
 G-4|..|G-3 2C.F ....|--- .... ....|--- .... ....
....|..|D#3 2F.7 ....|G#3 UF17 ....|D#3 2FF7 ....
....|..|G-3 2F.A ....|C-4 UF1A ....|G-3 2FFA ....
 G-4|..|C-4 AF.F ....|C-4 UF1F ....|G-3 2CFF ....
 G-4|..|G-3 2C.F ....|--- .... ....|--- .... ....
....|..|G-3 2F.7 ....|C-4 UF17 ....|G-3 2FF7 ....
....|..|G-3 2F.A ....|C-4 UF1A ....|G-3 2FFA ....
 G-4|..|C-4 AF.F ....|C-4 UF1F ....|G-3 2CFF ....
 G-4|..|G-3 2C.F ....|--- .... ....|--- .... ....
....|..|G-3 2F.7 ....|C-4 UF17 ....|G-3 2FF7 ....
....|..|G-3 2F.A ....|C-4 UF1A ....|G-3 2FFA ....
 G-4|..|C-4 LF.F ....|C-4 UF1F ....|G-3 2CFF ....
 G-4|..|G-3 2C.F ....|--- .... ....|--- .... ....
....|..|G-3 2F.7 ....|C-4 UF17 ....|G-3 2FF7 ....
....|..|G-3 2F.A ....|C-4 UF1A ....|G-3 2FFA ....
 A-3|..|C-4 AF.F ....|G#3 UF1F ....|A-3 2CEF ....
 D#4|..|D#3 2C.F ....|--- .... ....|D#3 2CFF ....
....|..|G-3 2F.7 ....|C-4 UF17 ....|G-3 2FF7 ....
....|..|D#3 2F.A ....|G#3 UF1A ....|A-3 2FEA ....
 D#4|..|D#3 2C.F ....|G#3 UF1F ....|D#3 2CFF ....
....|..|G-3 2F.7 ....|--- .... ....|--- .... ....
....|..|D#3 2F.7 ....|G#3 UF17 ....|A-3 2FE7 ....
....|..|D#3 2F.A ....|G#3 UF1A ....|D#3 2FFA ....
 D#4|..|C-4 CF.F ....|G#3 UF1F ....|D#3 2CFF ....
 D#4|..|D#3 2C.F ....|--- .... ....|--- .... ....
....|..|D#3 2F.7 ....|G#3 UF17 ....|D#3 2FF7 ....
....|..|D#3 2F.A ....|G#3 UF1A ....|D#3 2FFA ....
 D#4|..|C-4 AF.F ....|G#3 UF1F ....|D#3 2CFF ....
 D#4|..|D#3 2C.F ....|--- .... ....|--- .... ....
....|..|D#3 2F.7 ....|G#3 UF17 ....|D#3 2FF7 ....
....|..|D#3 2F.A ....|G#3 UF1A ....|D#3 2FFA ....
 G#4|..|C-4 AF.F ....|G#3 UF1F ....|G#3 2CEF ....
 D#4|..|D#3 2C.F ....|--- .... ....|D#3 2CFF ....
....|..|D#3 2F.7 ....|G#3 UF17 ....|D#3 2FF7 ....
....|..|D#3 2F.A ....|G#3 UF1A ....|G#3 2FEA ....
 D#4|..|C-4 AF.F ....|G#3 UF1F ....|D#3 2CFF ....
 D#4|..|D#3 2C.F ....|--- .... ....|--- .... ....
....|..|D#3 2F.7 ....|G#3 UF17 ....|G#3 2FE7 ....
....|..|D#3 2F.A ....|G#3 UF1A ....|D#3 2FFA ....
 E-4|..|C-4 CF.F ....|A-3 UF1F ....|E-3 2CFF ....
 E-4|..|E-3 2C.F ....|--- .... ....|--- .... ....
....|..|D#3 2F.7 ....|G#3 UF17 ....|D#3 2FF7 ....
....|..|E-3 2F.A ....|A-3 UF1A ....|E-3 2FFA ....
 D#4|..|C-4 LF.F ....|G#3 UF1F ....|D#3 2CFF ....
 D#4|..|D#3 2C.F ....|--- .... ....|--- .... ....
....|..|E-3 2F.7 ....|A-3 UF17 ....|E-3 2FF7 ....
....|..|D#3 2F.A ....|G#3 UF1A ....|D#3 2FFA ....
....|..|C-4 AF.F ....|--- .... ....|--- .... ....
....|..|E-3 2F.7 ....|--- .... ....|--- .... ....
....|..|D#3 2F.7 ....|G#3 UF17 ....|D#3 2FF7 ....
....|..|D#3 2F.7 ....|--- .... ....|--- .... ....
 D#4|..|D#3 2C.F ....|G#3 UF1F ....|D#3 2CFF ....
 D#4|..|D#3 2C.F ....|--- .... ....|--- .... ....
....|..|--- .... ....|--- .... ....|--- .... ....
....|..|D#3 2F.A ....|G#3 UF1A ....|D#3 2FFA ....
 D#4|..|C-4 CF.F ....|G#3 UF1F ....|D#3 2CFF ....
 D#4|..|D#3 2C.F ....|--- .... ....|--- .... ....
....|..|D#3 2F.7 ....|G#3 UF17 ....|D#3 2FF7 ....
....|..|D#3 2F.A ....|G#3 UF1A ....|D#3 2FFA ....
 D#4|..|D#3 2C.F ....|G#3 UF1F ....|D#3 2CFF ....
....|..|D#3 2F.7 ....|--- .... ....|--- .... ....
....|..|D#3 2F.7 ....|G#3 UF17 ....|D#3 2FF7 ....
....|..|D#3 2F.A ....|G#3 UF1A ....|D#3 2FFA ....
 G-4|..|C-4 AF.F ....|C-4 UF1F ....|G-3 2CFF ....
 G-4|..|G-3 2C.F ....|--- .... ....|--- .... ....
....|..|D#3 2F.7 ....|G#3 UF17 ....|D#3 2FF7 ....
....|..|G-3 2F.A ....|C-4 UF1A ....|G-3 2FFA ....
 G-4|..|C-4 AF.F ....|C-4 UF1F ....|G-3 2CFF ....
 G-4|..|G-3 2C.F ....|--- .... ....|--- .... ....
....|..|G-3 2F.7 ....|C-4 UF17 ....|G-3 2FF7 ....
....|..|G-3 2F.A ....|C-4 UF1A ....|G-3 2FFA ....
 G#4|..|C-4 AF.F ....|C-4 UF1F ....|G#3 2CEF ....
 G-4|..|G-3 2C.F ....|--- .... ....|G-3 2CFF ....
....|..|G-3 2F.7 ....|C-4 UF17 ....|G-3 2FF7 ....
....|..|G-3 2F.A ....|C-4 UF1A ....|G#3 2FEA ....
 G-4|..|C-4 LF.F ....|C-4 UF1F ....|G-3 2CFF ....
 G-4|..|G-3 2C.F ....|--- .... ....|--- .... ....
....|..|G-3 2F.7 ....|C-4 UF17 ....|G#3 2FE7 ....
....|..|G-3 2F.A ....|C-4 UF1A ....|G-3 2FFA ....
 G#4|..|C-4 AF.F ....|C#3 UF2F ....|G#3 2CEF ....
 C#4|..|C#3 2C.F ....|--- .... ....|C#3 2CFF ....
....|..|G-3 2F.7 ....|C-4 UF17 ....|G-3 2FF7 ....
....|..|C#3 2F.A ....|C#3 UF2A ....|G#3 2FEA ....
....|..|G-3 2F.7 ....|--- .... ....|C#3 2FFA ....
....|..|C#3 2F.A ....|--- .... ....|--- .... ....
....|..|C#3 2F.7 ....|C#3 UF27 ....|G#3 2FE7 ....
....|..|C#3 2F.7 ....|--- .... ....|C#3 2FF7 ....
....|..|--- .... ....|--- .... ....|--- .... ....
....|..|--- .... ....|--- .... ....|--- .... ....
....|..|--- .... ....|--- .... ....|--- .... ....
....|..|--- .... ....|--- .... ....|--- .... ....
....|..|--- .... ....|--- .... ....|--- .... ....
....|..|--- .... ....|--- .... ....|--- .... ....
....|..|--- .... ....|--- .... ....|--- .... ....
....|..|--- .... ....|--- .... ....|--- .... ....
....|..|C-4 AF.F ....|--- .... ....|--- .... ....
....|..|--- .... ....|--- .... ....|--- .... ....
....|..|--- .... ....|--- .... ....|--- .... ....
....|..|--- .... ....|--- .... ....|--- .... ....
....|..|--- .... ....|--- .... ....|--- .... ....
....|..|--- .... ....|--- .... ....|--- .... ....
....|..|--- .... ....|--- .... ....|--- .... ....
....|..|--- .... ....|--- .... ....|--- .... ....
 G#4|..|--- .... ....|--- .... ....|G#3 2CEF ....
....|..|--- .... ....|--- .... ....|--- .... ....
....|..|--- .... ....|--- .... ....|--- .... ....
....|..|--- .... ....|--- .... ....|G#3 2FEA ....
....|..|--- .... ....|--- .... ....|--- .... ....
....|..|--- .... ....|--- .... ....|--- .... ....
....|..|--- .... ....|--- .... ....|G#3 2FE7 ....
....|..|--- .... ....|--- .... ....|--- .... ....

[Pattern44]
 G-4|..|C-4 AF.F ....|G-3 UF3F ....|G-3 2CEF ....
 C#4|..|C#3 2C.F ....|--- .... ....|C#3 2CFF ....
 C#4|..|C#3 2C.F ....|--- .... ....|--- .... ....
....|..|C#3 2F.A ....|G-3 UF3A ....|G-3 2FEA ....
....|..|C#3 2F.A ....|--- .... ....|C#3 2FFA ....
....|..|--- .... ....|--- .... ....|--- .... ....
....|..|C#3 2F.7 ....|G-3 UF37 ....|G-3 2FE7 ....
....|..|C#3 2F.7 ....|--- .... ....|C#3 2FF7 ....
....|..|C-4 AF.F ....|--- .... ....|--- .... ....
....|..|--- .... ....|--- .... ....|--- .... ....
....|..|--- .... ....|--- .... ....|--- .... ....
....|..|--- .... ....|--- .... ....|--- .... ....
....|..|--- .... ....|--- .... ....|--- .... ....
....|..|--- .... ....|--- .... ....|--- .... ....
....|..|--- .... ....|--- .... ....|--- .... ....
....|..|--- .... ....|--- .... ....|--- .... ....
....|..|--- .... ....|--- .... ....|--- .... ....
....|..|--- .... ....|--- .... ....|--- .... ....
....|..|--- .... ....|--- .... ....|--- .... ....
....|..|--- .... ....|--- .... ....|--- .... ....
....|..|C-4 CF.F ....|--- .... ....|--- .... ....
....|..|--- .... ....|--- .... ....|--- .... ....
....|..|--- .... ....|--- .... ....|--- .... ....
....|..|--- .... ....|--- .... ....|--- .... ....
 G#4|..|C-4 AF.F ....|--- .... ....|G#3 2CEF ....
....|..|--- .... ....|--- .... ....|--- .... ....
....|..|--- .... ....|--- .... ....|--- .... ....
....|..|--- .... ....|--- .... ....|G#3 2FEA ....
....|..|C-4 CF.F ....|--- .... ....|--- .... ....
....|..|--- .... ....|--- .... ....|--- .... ....
....|..|--- .... ....|--- .... ....|G#3 2FE7 ....
....|..|--- .... ....|--- .... ....|--- .... ....
 A-3|..|C-4 AF.F ....|G#3 UF1F ....|A-3 2CEF ....
 D#4|..|D#3 2C.F ....|--- .... ....|D#3 2CFF ....
 D#4|..|D#3 2C.F ....|--- .... ....|--- .... ....
....|..|D#3 2F.A ....|G#3 UF1A ....|A-3 2FEA ....
 D#4|..|D#3 2C.F ....|G#3 UF1F ....|D#3 2CFF ....
....|..|D#3 2F.A ....|--- .... ....|--- .... ....
....|..|D#3 2F.7 ....|G#3 UF17 ....|A-3 2FE7 ....
....|..|D#3 2F.A ....|G#3 UF1A ....|D#3 2FFA ....
 D#4|..|C-4 CF.F ....|G#3 UF1F ....|D#3 2CFF ....
 D#4|..|D#3 2C.F ....|--- .... ....|--- .... ....
....|..|D#3 2F.7 ....|G#3 UF17 ....|D#3 2FF7 ....
....|..|D#3 2F.A ....|G#3 UF1A ....|D#3 2FFA ....
 D#4|..|C-4 AF.F ....|G#3 UF1F ....|D#3 2CFF ....
 D#4|..|D#3 2C.F ....|--- .... ....|--- .... ....
....|..|D#3 2F.7 ....|G#3 UF17 ....|D#3 2FF7 ....
....|..|D#3 2F.A ....|G#3 UF1A ....|D#3 2FFA ....
 G#4|..|C-4 AF.F ....|G#3 UF1F ....|G#3 2CEF ....
 D#4|..|D#3 2C.F ....|--- .... ....|D#3 2CFF ....
....|..|D#3 2F.7 ....|G#3 UF17 ....|D#3 2FF7 ....
....|..|D#3 2F.A ....|G#3 UF1A ....|G#3 2FEA ....
 D#4|..|C-4 AF.F ....|G#3 UF1F ....|D#3 2CFF ....
 D#4|..|D#3 2C.F ....|--- .... ....|--- .... ....
....|..|D#3 2F.7 ....|G#3 UF17 ....|G#3 2FE7 ....
....|..|D#3 2F.A ....|G#3 UF1A ....|D#3 2FFA ....
 E-4|..|C-4 CF.F ....|A-3 UF1F ....|E-3 2CFF ....
 E-4|..|E-3 2C.F ....|--- .... ....|--- .... ....
....|..|D#3 2F.7 ....|G#3 UF17 ....|D#3 2FF7 ....
....|..|E-3 2F.A ....|A-3 UF1A ....|E-3 2FFA ....
 D#4|..|C-4 LF.F ....|G#3 UF1F ....|D#3 2CFF ....
 D#4|..|D#3 2C.F ....|--- .... ....|--- .... ....
....|..|E-3 2F.7 ....|A-3 UF17 ....|E-3 2FF7 ....
....|..|D#3 2F.A ....|G#3 UF1A ....|D#3 2FFA ....
....|..|C-4 AF.F ....|--- .... ....|--- .... ....
....|..|E-3 2F.7 ....|--- .... ....|--- .... ....
....|..|D#3 2F.7 ....|G#3 UF17 ....|D#3 2FF7 ....
....|..|D#3 2F.7 ....|--- .... ....|--- .... ....
 D#4|..|D#3 2C.F ....|G#3 UF1F ....|D#3 2CFF ....
 D#4|..|D#3 2C.F ....|--- .... ....|--- .... ....
....|..|--- .... ....|--- .... ....|--- .... ....
....|..|D#3 2F.A ....|G#3 UF1A ....|D#3 2FFA ....
 D#4|..|C-4 CF.F ....|G#3 UF1F ....|D#3 2CFF ....
 D#4|..|D#3 2C.F ....|--- .... ....|--- .... ....
....|..|D#3 2F.7 ....|G#3 UF17 ....|D#3 2FF7 ....
....|..|D#3 2F.A ....|G#3 UF1A ....|D#3 2FFA ....
 D#4|..|D#3 2C.F ....|G#3 UF1F ....|D#3 2CFF ....
....|..|D#3 2F.7 ....|--- .... ....|--- .... ....
....|..|D#3 2F.7 ....|G#3 UF17 ....|D#3 2FF7 ....
....|..|D#3 2F.A ....|G#3 UF1A ....|D#3 2FFA ....
 G-4|..|C-4 AF.F ....|C-4 UF1F ....|G-3 2CFF ....
 G-4|..|G-3 2C.F ....|--- .... ....|--- .... ....
....|..|D#3 2F.7 ....|G#3 UF17 ....|D#3 2FF7 ....
....|..|G-3 2F.A ....|C-4 UF1A ....|G-3 2FFA ....
 G-4|..|C-4 AF.F ....|C-4 UF1F ....|G-3 2CFF ....
 G-4|..|G-3 2C.F ....|--- .... ....|--- .... ....
....|..|G-3 2F.7 ....|C-4 UF17 ....|G-3 2FF7 ....
....|..|G-3 2F.A ....|C-4 UF1A ....|G-3 2FFA ....
 G-4|..|C-4 AF.F ....|C-4 UF1F ....|G-3 2CFF ....
 G-4|..|G-3 2C.F ....|--- .... ....|--- .... ....
....|..|G-3 2F.7 ....|C-4 UF17 ....|G-3 2FF7 ....
....|..|G-3 2F.A ....|C-4 UF1A ....|G-3 2FFA ....
 G-4|..|C-4 LF.F ....|C-4 UF1F ....|G-3 2CFF ....
 G-4|..|G-3 2C.F ....|--- .... ....|--- .... ....
....|..|G-3 2F.7 ....|C-4 UF17 ....|G-3 2FF7 ....
....|..|G-3 2F.A ....|C-4 UF1A ....|G-3 2FFA ....
 A-3|..|C-4 AF.F ....|G#3 UF1F ....|A-3 2CEF ....
 D#4|..|D#3 2C.F ....|--- .... ....|D#3 2CFF ....
....|..|G-3 2F.7 ....|C-4 UF17 ....|G-3 2FF7 ....
....|..|D#3 2F.A ....|G#3 UF1A ....|A-3 2FEA ....
 D#4|..|D#3 2C.F ....|G#3 UF1F ....|D#3 2CFF ....
....|..|G-3 2F.7 ....|--- .... ....|--- .... ....
....|..|D#3 2F.7 ....|G#3 UF17 ....|A-3 2FE7 ....
....|..|D#3 2F.A ....|G#3 UF1A ....|D#3 2FFA ....
 D#4|..|C-4 CF.F ....|G#3 UF1F ....|D#3 2CFF ....
 D#4|..|D#3 2C.F ....|--- .... ....|--- .... ....
....|..|D#3 2F.7 ....|G#3 UF17 ....|D#3 2FF7 ....
....|..|D#3 2F.A ....|G#3 UF1A ....|D#3 2FFA ....
 D#4|..|C-4 AF.F ....|G#3 UF1F ....|D#3 2CFF ....
 D#4|..|D#3 2C.F ....|--- .... ....|--- .... ....
....|..|D#3 2F.7 ....|G#3 UF17 ....|D#3 2FF7 ....
....|..|D#3 2F.A ....|G#3 UF1A ....|D#3 2FFA ....
 G#4|..|C-4 AF.F ....|G#3 UF1F ....|G#3 2CEF ....
 D#4|..|D#3 2C.F ....|--- .... ....|D#3 2CFF ....
....|..|D#3 2F.7 ....|G#3 UF17 ....|D#3 2FF7 ....
....|..|D#3 2F.A ....|G#3 UF1A ....|G#3 2FEA ....
 D#4|..|C-4 AF.F ....|G#3 UF1F ....|D#3 2CFF ....
 D#4|..|D#3 2C.F ....|--- .... ....|--- .... ....
....|..|D#3 2F.7 ....|G#3 UF17 ....|G#3 2FE7 ....
....|..|D#3 2F.A ....|G#3 UF1A ....|D#3 2FFA ....
 E-4|..|C-4 CF.F ....|A-3 UF1F ....|E-3 2CFF ....
 E-4|..|E-3 2C.F ....|--- .... ....|--- .... ....
....|..|D#3 2F.7 ....|G#3 UF17 ....|D#3 2FF7 ....
....|..|E-3 2F.A ....|A-3 UF1A ....|E-3 2FFA ....
 D#4|..|C-4 LF.F ....|G#3 UF1F ....|D#3 2CFF ....
 D#4|..|D#3 2C.F ....|--- .... ....|--- .... ....
....|..|E-3 2F.7 ....|A-3 UF17 ....|E-3 2FF7 ....
....|..|D#3 2F.A ....|G#3 UF1A ....|D#3 2FFA ....

[Pattern45]
....|..|C-4 AF.F ....|--- .... ....|--- .... ....
....|..|E-3 2F.7 ....|--- .... ....|--- .... ....
....|..|D#3 2F.7 ....|G#3 UF17 ....|D#3 2FF7 ....
....|..|D#3 2F.7 ....|--- .... ....|--- .... ....
 D#4|..|D#3 2C.F ....|G#3 UF1F ....|D#3 2CFF ....
 D#4|..|D#3 2C.F ....|--- .... ....|--- .... ....
....|..|--- .... ....|--- .... ....|--- .... ....
....|..|D#3 2F.A ....|G#3 UF1A ....|D#3 2FFA ....
 D#4|..|C-4 CF.F ....|G#3 UF1F ....|D#3 2CFF ....
 D#4|..|D#3 2C.F ....|--- .... ....|--- .... ....
....|..|D#3 2F.7 ....|G#3 UF17 ....|D#3 2FF7 ....
....|..|D#3 2F.A ....|G#3 UF1A ....|D#3 2FFA ....
 D#4|..|D#3 2C.F ....|G#3 UF1F ....|D#3 2CFF ....
....|..|D#3 2F.7 ....|--- .... ....|--- .... ....
....|..|D#3 2F.7 ....|G#3 UF17 ....|D#3 2FF7 ....
....|..|D#3 2F.A ....|G#3 UF1A ....|D#3 2FFA ....
 G-4|..|C-4 AF.F ....|C-4 UF1F ....|G-3 2CFF ....
 G-4|..|G-3 2C.F ....|--- .... ....|--- .... ....
....|..|D#3 2F.7 ....|G#3 UF17 ....|D#3 2FF7 ....
....|..|G-3 2F.A ....|C-4 UF1A ....|G-3 2FFA ....
 G-4|..|C-4 AF.F ....|C-4 UF1F ....|G-3 2CFF ....
 G-4|..|G-3 2C.F ....|--- .... ....|--- .... ....
....|..|G-3 2F.7 ....|C-4 UF17 ....|G-3 2FF7 ....
....|..|G-3 2F.A ....|C-4 UF1A ....|G-3 2FFA ....
 G-4|..|C-4 AF.F ....|C-4 UF1F ....|G-3 2CFF ....
 G-4|..|G-3 2C.F ....|--- .... ....|--- .... ....
....|..|G-3 2F.7 ....|C-4 UF17 ....|G-3 2FF7 ....
....|..|G-3 2F.A ....|C-4 UF1A ....|G-3 2FFA ....
 G-4|..|C-4 LF.F ....|C-4 UF1F ....|G-3 2CFF ....
 G-4|..|G-3 2C.F ....|--- .... ....|--- .... ....
....|..|G-3 2F.7 ....|C-4 UF17 ....|G-3 2FF7 ....
....|..|G-3 2F.A ....|C-4 UF1A ....|G-3 2FFA ....
 G-4|..|C-4 AF.F ....|C-4 UF1F ....|G-3 2CFF ....
 G-4|..|G-3 2C.F ....|--- .... ....|--- .... ....
....|..|G-3 2F.7 ....|C-4 UF17 ....|G-3 2FF7 ....
....|..|G-3 2F.A ....|C-4 UF1A ....|G-3 2FFA ....
 G-4|..|C-4 AF.F ....|C-4 UF1F ....|G-3 2CFF ....
 G-4|..|G-3 2C.F ....|--- .... ....|--- .... ....
....|..|G-3 2F.7 ....|C-4 UF17 ....|G-3 2FF7 ....
....|..|G-3 2F.A ....|C-4 UF1A ....|G-3 2FFA ....
 G-4|..|C-4 AF.F ....|C-4 UF1F ....|G-3 2CFF ....
 G-4|..|G-3 2C.F ....|--- .... ....|--- .... ....
....|..|G-3 2F.7 ....|C-4 UF17 ....|G-3 2FF7 ....
....|..|G-3 2F.A ....|C-4 UF1A ....|G-3 2FFA ....
 G-4|..|C-4 AF.F ....|C-4 UF1F ....|G-3 2CFF ....
 G-4|..|G-3 2C.F ....|--- .... ....|--- .... ....
....|..|G-3 2F.7 ....|C-4 UF17 ....|G-3 2FF7 ....
....|..|G-3 2F.A ....|C-4 UF1A ....|G-3 2FFA ....
 G-4|..|C-4 AF.F ....|C-4 UF1F ....|G-3 2CFF ....
 G-4|..|G-3 2C.F ....|--- .... ....|--- .... ....
....|..|G-3 2F.7 ....|C-4 UF17 ....|G-3 2FF7 ....
....|..|G-3 2F.A ....|C-4 UF1A ....|G-3 2FFA ....
 G-4|..|C-4 AF.F ....|C-4 UF1F ....|G-3 2CFF ....
 G-4|..|G-3 2C.F ....|--- .... ....|--- .... ....
....|..|G-3 2F.7 ....|C-4 UF17 ....|G-3 2FF7 ....
....|..|G-3 2F.A ....|C-4 UF1A ....|G-3 2FFA ....
 G-4|..|C-4 AF.F ....|C-4 UF1F ....|G-3 2CFF ....
 G-4|..|G-3 2C.F ....|--- .... ....|--- .... ....
....|..|G-3 2F.7 ....|C-4 UF17 ....|G-3 2FF7 ....
....|..|G-3 2F.A ....|C-4 UF1A ....|G-3 2FFA ....
 G-4|..|C-4 AF.F ....|C-4 UF1F ....|G-3 2CFF ....
 G-4|..|G-3 2C.F ....|--- .... ....|--- .... ....
....|..|G-3 2F.7 ....|C-4 UF17 ....|G-3 2FF7 ....
....|..|G-3 2F.A ....|C-4 UF1A ....|G-3 2FFA ....
 G-4|..|C-4 AF.F ....|C-4 UF1F ....|G-3 2CFF ....
 G-4|..|G-3 2C.F ....|--- .... ....|--- .... ....
....|..|G-3 2F.7 ....|C-4 UF17 ....|G-3 2FF7 ....
....|..|G-3 2F.A ....|C-4 UF1A ....|G-3 2FFA ....
 G-4|..|C-4 AF.F ....|C-4 UF1F ....|G-3 2CFF ....
 G-4|..|G-3 2C.F ....|--- .... ....|--- .... ....
....|..|G-3 2F.7 ....|C-4 UF17 ....|G-3 2FF7 ....
....|..|G-3 2F.A ....|C-4 UF1A ....|G-3 2FFA ....
 G-4|..|C-4 AF.F ....|C-4 UF1F ....|G-3 2CFF ....
 G-4|..|G-3 2C.F ....|--- .... ....|--- .... ....
....|..|G-3 2F.7 ....|C-4 UF17 ....|G-3 2FF7 ....
....|..|G-3 2F.A ....|C-4 UF1A ....|G-3 2FFA ....
 G-4|..|C-4 AF.F ....|C-4 UF1F ....|G-3 2CFF ....
 G-4|..|G-3 2C.F ....|--- .... ....|--- .... ....
....|..|G-3 2F.7 ....|C-4 UF17 ....|G-3 2FF7 ....
....|..|G-3 2F.A ....|C-4 UF1A ....|G-3 2FFA ....
 C#4|..|C-4 AF.F ....|C#2 UF.F ....|C#4 2CEF ....
 C#4|..|C#2 2A.F ....|--- .... ....|C#2 2AFF ....
....|..|G-3 2F.7 ....|C-4 UF17 ....|G-3 2FF7 ....
....|..|C#2 2F.A ....|C#2 UF.A ....|C#4 2FEA ....
 C#4|..|B-8 JF.F ....|C#2 UF.F ....|C#2 2AFF ....
 C#4|..|C#2 2A.F ....|--- .... ....|--- .... ....
....|..|C#2 2F.7 ....|C#2 UF.7 ....|C#4 2FE7 ....
....|..|C#2 2F.A ....|C#2 UF.A ....|C#2 2FFA ....
 C#4|..|C-4 AF.F ....|C#2 UF.F ....|C#2 2AFF ....
 C#4|..|C#2 2A.F ....|--- .... ....|--- .... ....
....|..|C#2 2F.7 ....|C#2 UF.7 ....|C#2 2FF7 ....
....|..|C#2 2F.A ....|C#2 UF.A ....|C#2 2FFA ....
 C#4|..|C-4 LF.F ....|C#2 UF.F ....|C#2 2AFF ....
 C#4|..|C#2 2A.F ....|--- .... ....|--- .... ....
 C#4|..|C#2 2A.F ....|C#2 UF.F ....|C#2 2AFF ....
....|..|C#2 2F.A ....|C#2 UF.A ....|C#2 2FFA ....
 C#4|..|C-4 AF.F ....|C#2 UF.F ....|C#2 2AFF ....
 C#4|..|C#2 2A.F ....|C#2 UF.A ....|C#2 2FFA ....
 C#4|..|C-4 LF.F ....|C#2 UF.F ....|C#2 2AFF ....
....|..|C#2 2F.A ....|C#2 UF.A ....|C#2 2FFA ....
 C#4|..|C-3 RF.F ....|C#2 UF.F ....|C#2 2AFF ....
 C#4|..|C#2 2A.F ....|C#2 UF.A ....|C#2 2FFA ....
 C#4|..|C#2 2A.F ....|C#2 UF.F ....|C#2 2AFF ....
 C#4|..|C#2 2A.F ....|C#2 UF.A ....|C#2 2FFA ....
 C#4|..|C-4 AF.F ....|C#2 UF.F ....|C#2 2AFF ....
....|..|C#2 2F.A ....|C#2 UF.A ....|C#2 2FFA ....
 C#4|..|C-4 LF.F ....|C#2 UF.F ....|C#2 2AFF ....
 C#4|..|C#2 2A.F ....|C#2 UF.A ....|C#2 2FFA ....
 D#4|..|C-3 RF.F ....|C#2 UF.F ....|D#4 2CEF ....
 C#4|..|C#2 2A.F ....|C#2 UF.A ....|C#2 2AFF ....
 E-4|..|C#2 2F.F ....|C#2 UF.F ....|E-4 2CEF ....
 C#4|..|C#2 2A.F ....|C#2 UF.A ....|D#4 2FEA ....
 A-3|..|C-4 AF.F ....|F#2 UF.F ....|A-4 2CEF ....
....|..|C#2 2F.A ....|C#2 UF.A ....|E-4 2FEA ....
 F#4|..|F#2 2A.F ....|C#2 UF.7 ....|D#4 2FE7 ....
....|..|C#2 2F.A ....|F#2 UF.A ....|A-4 2FEA ....
 F#4|..|B-8 JF.F ....|F#2 UF.F ....|F#2 2AFF ....
....|..|C#2 2F.7 ....|--- .... ....|C#2 2FF7 ....
....|..|F#2 2F.A ....|F#2 UF.7 ....|A-4 2FE7 ....
 F#4|..|F#2 2A.F ....|F#2 UF.A ....|F#2 2FFA ....
 F#4|..|C-4 AF.F ....|F#2 UF.F ....|F#2 2AFF ....
....|..|F#2 2F.7 ....|--- .... ....|--- .... ....
....|..|F#2 2F.A ....|F#2 UF.7 ....|F#2 2FF7 ....
 F#4|..|F#2 2A.F ....|F#2 UF.A ....|F#2 2FFA ....
 F#4|..|C-4 LF.F ....|F#2 UF.F ....|F#2 2AFF ....
....|..|F#2 2F.7 ....|--- .... ....|--- .... ....
 F#4|..|F#2 2A.F ....|F#2 UF.F ....|F#2 2AFF ....
 F#4|..|F#2 2A.F ....|F#2 UF.A ....|F#2 2FFA ....

[Pattern46]
 F#4|..|C-4 AF.F ....|F#2 UF.F ....|F#2 2AFF ....
....|..|F#2 2F.A ....|F#2 UF.A ....|F#2 2FFA ....
 F#4|..|C-4 LF.F ....|F#2 UF.F ....|F#2 2AFF ....
 F#4|..|F#2 2A.F ....|F#2 UF.A ....|F#2 2FFA ....
 F#4|..|C-3 RF.F ....|F#2 UF.F ....|F#2 2AFF ....
 F#4|..|F#2 2A.F ....|F#2 UF.A ....|F#2 2FFA ....
 F#4|..|F#2 2A.F ....|F#2 UF.F ....|F#2 2AFF ....
 F#4|..|F#2 2A.F ....|F#2 UF.A ....|F#2 2FFA ....
 G#4|..|C-4 AF.F ....|F#2 UF.F ....|G#4 2CEF ....
 F#4|..|F#2 2F.A ....|F#2 UF.A ....|F#2 2AFF ....
 F#4|..|C-4 LF.F ....|F#2 UF.F ....|F#2 2AFF ....
 F#4|..|F#2 2A.F ....|F#2 UF.A ....|G#4 2FEA ....
 F#4|..|C-3 RF.F ....|F#2 UF.F ....|F#2 2AFF ....
 F#4|..|F#2 2A.F ....|F#2 UF.A ....|F#2 2FFA ....
 F#4|..|F#2 2A.F ....|F#2 UF.F ....|F#2 2AFF ....
 F#4|..|F#2 2A.F ....|F#2 UF.A ....|F#2 2FFA ....
 F#3|..|C-4 AF.F ....|B-2 UF.F ....|F#4 2CEF ....
 B-4|..|F#2 2F.A ....|F#2 UF.A ....|B-2 2AFF ....
 B-4|..|B-2 2A.F ....|F#2 UF.7 ....|F#2 2FFA ....
....|..|F#2 2F.A ....|B-2 UF.A ....|F#4 2FEA ....
 B-4|..|B-8 JF.F ....|B-2 UF.F ....|B-2 2AFF ....
....|..|F#2 2F.7 ....|--- .... ....|B-2 2FFA ....
....|..|B-2 2F.A ....|B-2 UF.7 ....|F#4 2FE7 ....
 B-4|..|B-2 2A.F ....|B-2 UF.A ....|B-2 2FFA ....
 B-4|..|C-4 AF.F ....|B-2 UF.F ....|B-2 2AFF ....
....|..|B-2 2F.7 ....|--- .... ....|--- .... ....
....|..|B-2 2F.A ....|B-2 UF.7 ....|B-2 2FF7 ....
 B-4|..|B-2 2A.F ....|B-2 UF.A ....|B-2 2FFA ....
 B-4|..|C-4 LF.F ....|B-2 UF.F ....|B-2 2AFF ....
....|..|B-2 2F.7 ....|--- .... ....|--- .... ....
 B-4|..|B-2 2A.F ....|B-2 UF.F ....|B-2 2AFF ....
 B-4|..|B-2 2A.F ....|B-2 UF.A ....|B-2 2FFA ....
 B-4|..|C-4 AF.F ....|B-2 UF.F ....|B-2 2AFF ....
....|..|B-2 2F.A ....|B-2 UF.A ....|B-2 2FFA ....
 B-4|..|C-4 LF.F ....|B-2 UF.F ....|B-2 2AFF ....
 B-4|..|B-2 2A.F ....|B-2 UF.A ....|B-2 2FFA ....
 B-4|..|C-3 RF.F ....|B-2 UF.F ....|B-2 2AFF ....
 B-4|..|B-2 2A.F ....|B-2 UF.A ....|B-2 2FFA ....
 B-4|..|B-2 2A.F ....|B-2 UF.F ....|B-2 2AFF ....
 B-4|..|B-2 2A.F ....|B-2 UF.A ....|B-2 2FFA ....
 B-4|..|C-4 AF.F ....|B-2 UF.F ....|B-2 2AFF ....
....|..|B-2 2F.A ....|B-2 UF.A ....|B-2 2FFA ....
 B-4|..|C-4 LF.F ....|B-2 UF.F ....|B-2 2AFF ....
 B-4|..|B-2 2A.F ....|B-2 UF.A ....|B-2 2FFA ....
 E-4|..|C-3 RF.F ....|B-2 UF.F ....|E-4 2CEF ....
 B-4|..|B-2 2A.F ....|B-2 UF.A ....|B-2 2AFF ....
 F#3|..|B-2 2F.F ....|B-2 UF.F ....|F#4 2CEF ....
 B-4|..|B-2 2A.F ....|B-2 UF.A ....|E-4 2FEA ....
 G#4|..|C-4 AF.F ....|G#2 UF.F ....|G#4 2CEF ....
....|..|B-2 2F.A ....|B-2 UF.A ....|F#4 2FEA ....
 G#4|..|G#2 2A.F ....|B-2 UF.7 ....|E-4 2FE7 ....
....|..|B-2 2F.A ....|G#2 UF.A ....|G#4 2FEA ....
 G#4|..|B-8 JF.F ....|G#2 UF.F ....|G#2 2AFF ....
....|..|B-2 2F.7 ....|--- .... ....|B-2 2FF7 ....
....|..|G#2 2F.A ....|G#2 UF.7 ....|G#4 2FE7 ....
 G#4|..|G#2 2A.F ....|G#2 UF.A ....|G#2 2FFA ....
 F#3|..|C-4 AF.F ....|G#2 UF.F ....|F#4 2CEF ....
 G#4|..|G#2 2F.7 ....|--- .... ....|G#2 2AFF ....
....|..|G#2 2F.A ....|G#2 UF.7 ....|G#2 2FF7 ....
 G#4|..|G#2 2A.F ....|G#2 UF.A ....|F#4 2FEA ....
 G#4|..|C-4 LF.F ....|G#2 UF.F ....|G#2 2AFF ....
....|..|G#2 2F.7 ....|--- .... ....|--- .... ....
....|..|G#2 2F.A ....|G#2 UF.7 ....|F#4 2FE7 ....
 G#4|..|G#2 2A.F ....|G#2 UF.A ....|G#2 2FFA ....
 E-4|..|C-4 AF.F ....|G#2 UF.F ....|E-4 2CEF ....
 G#4|..|G#2 2F.7 ....|--- .... ....|G#2 2AFF ....
....|..|C-4 LF.F ....|G#2 UF.7 ....|G#2 2FF7 ....
 G#4|..|G#2 2A.F ....|G#2 UF.A ....|E-4 2FEA ....
 G#4|..|C-3 RF.F ....|G#2 UF.F ....|G#2 2AFF ....
....|..|G#2 2F.7 ....|--- .... ....|--- .... ....
....|..|G#2 2F.A ....|G#2 UF.7 ....|E-4 2FE7 ....
 G#4|..|G#2 2A.F ....|G#2 UF.A ....|G#2 2FFA ....
 D#4|..|C-4 AF.F ....|E-2 UF.F ....|D#4 2CEF ....
 E-4|..|G#2 2F.7 ....|--- .... ....|E-2 2AFF ....
....|..|C-4 LF.F ....|G#2 UF.7 ....|G#2 2FF7 ....
 E-4|..|E-2 2A.F ....|E-2 UF.A ....|D#4 2FEA ....
 D#4|..|C-3 RF.F ....|D#2 UF.F ....|D#2 2AFF ....
....|..|G#2 2F.7 ....|--- .... ....|--- .... ....
....|..|E-2 2F.A ....|E-2 UF.7 ....|D#4 2FE7 ....
 D#4|..|D#2 2A.F ....|D#2 UF.A ....|D#2 2FFA ....
 C#4|..|C-4 AF.F ....|C#2 UF.F ....|C#4 2CEF ....
 C#4|..|E-2 2F.7 ....|--- .... ....|C#2 2AFF ....
....|..|D#2 2F.A ....|D#2 UF.7 ....|D#2 2FF7 ....
 C#4|..|C#2 2A.F ....|C#2 UF.A ....|C#4 2FEA ....
 C#4|..|B-8 JF.F ....|C#2 UF.F ....|C#2 2AFF ....
....|..|D#2 2F.7 ....|--- .... ....|--- .... ....
....|..|C#2 2F.A ....|C#2 UF.7 ....|C#4 2FE7 ....
 C#4|..|C#2 2A.F ....|C#2 UF.A ....|C#2 2FFA ....
 C#4|..|C-4 AF.F ....|C#2 UF.F ....|C#2 2AFF ....
....|..|C#2 2F.7 ....|--- .... ....|--- .... ....
....|..|C#2 2F.A ....|C#2 UF.7 ....|C#2 2FF7 ....
 C#4|..|C#2 2A.F ....|C#2 UF.A ....|C#2 2FFA ....
 C#4|..|C-4 LF.F ....|C#2 UF.F ....|C#2 2AFF ....
....|..|C#2 2F.7 ....|--- .... ....|--- .... ....
 C#4|..|C#2 2A.F ....|C#2 UF.F ....|C#2 2AFF ....
 C#4|..|C#2 2A.F ....|C#2 UF.A ....|C#2 2FFA ....
 C#4|..|C-4 AF.F ....|C#2 UF.F ....|C#2 2AFF ....
....|..|C#2 2F.A ....|C#2 UF.A ....|C#2 2FFA ....
 C#4|..|C-4 LF.F ....|C#2 UF.F ....|C#2 2AFF ....
 C#4|..|C#2 2A.F ....|C#2 UF.A ....|C#2 2FFA ....
 C#4|..|C-3 RF.F ....|C#2 UF.F ....|C#2 2AFF ....
 C#4|..|C#2 2A.F ....|C#2 UF.A ....|C#2 2FFA ....
 C#4|..|C#2 2A.F ....|C#2 UF.F ....|C#2 2AFF ....
 C#4|..|C#2 2A.F ....|C#2 UF.A ....|C#2 2FFA ....
 C#4|..|C-4 AF.F ....|C#2 UF.F ....|C#2 2AFF ....
....|..|C#2 2F.A ....|C#2 UF.A ....|C#2 2FFA ....
 C#4|..|C-4 LF.F ....|C#2 UF.F ....|C#2 2AFF ....
 C#4|..|C#2 2A.F ....|C#2 UF.A ....|C#2 2FFA ....
 D#4|..|C-3 RF.F ....|C#2 UF.F ....|D#4 2CEF ....
 C#4|..|C#2 2A.F ....|C#2 UF.A ....|C#2 2AFF ....
 E-4|..|C#2 2F.F ....|C#2 UF.F ....|E-4 2CEF ....
 C#4|..|C#2 2A.F ....|C#2 UF.A ....|D#4 2FEA ....
 A-3|..|C-4 AF.F ....|F#2 UF.F ....|A-4 2CEF ....
....|..|C#2 2F.A ....|C#2 UF.A ....|E-4 2FEA ....
 F#4|..|F#2 2A.F ....|C#2 UF.7 ....|D#4 2FE7 ....
....|..|C#2 2F.A ....|F#2 UF.A ....|A-4 2FEA ....
 F#4|..|B-8 JF.F ....|F#2 UF.F ....|F#2 2AFF ....
....|..|C#2 2F.7 ....|--- .... ....|C#2 2FF7 ....
....|..|F#2 2F.A ....|F#2 UF.7 ....|A-4 2FE7 ....
 F#4|..|F#2 2A.F ....|F#2 UF.A ....|F#2 2FFA ....
 F#4|..|C-4 AF.F ....|F#2 UF.F ....|F#2 2AFF ....
....|..|F#2 2F.7 ....|--- .... ....|--- .... ....
....|..|F#2 2F.A ....|F#2 UF.7 ....|F#2 2FF7 ....
 F#4|..|F#2 2A.F ....|F#2 UF.A ....|F#2 2FFA ....
 F#4|..|C-4 LF.F ....|F#2 UF.F ....|F#2 2AFF ....
....|..|F#2 2F.7 ....|--- .... ....|--- .... ....
 F#4|..|F#2 2A.F ....|F#2 UF.F ....|F#2 2AFF ....
 F#4|..|F#2 2A.F ....|F#2 UF.A ....|F#2 2FFA ....

[Pattern47]
 F#4|..|C-4 AF.F ....|F#2 UF.F ....|F#2 2AFF ....
....|..|F#2 2F.A ....|F#2 UF.A ....|F#2 2FFA ....
 F#4|..|C-4 LF.F ....|F#2 UF.F ....|F#2 2AFF ....
 F#4|..|F#2 2A.F ....|F#2 UF.A ....|F#2 2FFA ....
 F#4|..|C-3 RF.F ....|F#2 UF.F ....|F#2 2AFF ....
 F#4|..|F#2 2A.F ....|F#2 UF.A ....|F#2 2FFA ....
 F#4|..|F#2 2A.F ....|F#2 UF.F ....|F#2 2AFF ....
 F#4|..|F#2 2A.F ....|F#2 UF.A ....|F#2 2FFA ....
 C#4|..|C-4 AF.F ....|F#2 UF.F ....|C#5 2CEF ....
 F#4|..|F#2 2F.A ....|F#2 UF.A ....|F#2 2AFF ....
 F#4|..|C-4 LF.F ....|F#2 UF.F ....|F#2 2AFF ....
 F#4|..|F#2 2A.F ....|F#2 UF.A ....|C#5 2FEA ....
 F#4|..|C-3 RF.F ....|F#2 UF.F ....|F#2 2AFF ....
 F#4|..|F#2 2A.F ....|F#2 UF.A ....|F#2 2FFA ....
 F#4|..|F#2 2A.F ....|F#2 UF.F ....|F#2 2AFF ....
 F#4|..|F#2 2A.F ....|F#2 UF.A ....|F#2 2FFA ....
 B-4|..|C-4 AF.F ....|B-2 UF.F ....|B-4 2CEF ....
 B-4|..|F#2 2F.A ....|F#2 UF.A ....|B-2 2AFF ....
 B-4|..|B-2 2A.F ....|F#2 UF.7 ....|F#2 2FFA ....
....|..|F#2 2F.A ....|B-2 UF.A ....|B-4 2FEA ....
 B-4|..|B-8 JF.F ....|B-2 UF.F ....|B-2 2AFF ....
....|..|F#2 2F.7 ....|--- .... ....|B-2 2FFA ....
....|..|B-2 2F.A ....|B-2 UF.7 ....|B-4 2FE7 ....
 B-4|..|B-2 2A.F ....|B-2 UF.A ....|B-2 2FFA ....
 B-4|..|C-4 AF.F ....|B-2 UF.F ....|B-2 2AFF ....
....|..|B-2 2F.7 ....|--- .... ....|--- .... ....
....|..|B-2 2F.A ....|B-2 UF.7 ....|B-2 2FF7 ....
 B-4|..|B-2 2A.F ....|B-2 UF.A ....|B-2 2FFA ....
 B-4|..|C-4 LF.F ....|B-2 UF.F ....|B-2 2AFF ....
....|..|B-2 2F.7 ....|--- .... ....|--- .... ....
 B-4|..|B-2 2A.F ....|B-2 UF.F ....|B-2 2AFF ....
 B-4|..|B-2 2A.F ....|B-2 UF.A ....|B-2 2FFA ....
 B-4|..|C-4 AF.F ....|B-2 UF.F ....|B-2 2AFF ....
....|..|B-2 2F.A ....|B-2 UF.A ....|B-2 2FFA ....
 B-4|..|C-4 LF.F ....|B-2 UF.F ....|B-2 2AFF ....
 B-4|..|B-2 2A.F ....|B-2 UF.A ....|B-2 2FFA ....
 B-4|..|C-3 RF.F ....|B-2 UF.F ....|B-2 2AFF ....
 B-4|..|B-2 2A.F ....|B-2 UF.A ....|B-2 2FFA ....
 B-4|..|B-2 2A.F ....|B-2 UF.F ....|B-2 2AFF ....
 B-4|..|B-2 2A.F ....|B-2 UF.A ....|B-2 2FFA ....
 B-4|..|C-4 AF.F ....|B-2 UF.F ....|B-2 2AFF ....
....|..|B-2 2F.A ....|B-2 UF.A ....|B-2 2FFA ....
 B-4|..|C-4 LF.F ....|B-2 UF.F ....|B-2 2AFF ....
 B-4|..|B-2 2A.F ....|B-2 UF.A ....|B-2 2FFA ....
 B-4|..|C-3 RF.F ....|B-2 UF.F ....|B-2 2AFF ....
 B-4|..|B-2 2A.F ....|B-2 UF.A ....|B-2 2FFA ....
 B-4|..|B-2 2A.F ....|B-2 UF.F ....|B-2 2AFF ....
 B-4|..|B-2 2A.F ....|B-2 UF.A ....|B-2 2FFA ....
 B-4|..|C-4 AF.F ....|G#2 UF.F ....|B-4 2CEF ....
 G#4|..|B-2 2F.A ....|B-2 UF.A ....|G#2 2AFF ....
....|..|C-4 9F.F ....|B-2 UF.7 ....|B-2 2FFA ....
 G#4|..|G#2 2A.F ....|G#2 UF.A ....|B-4 2FEA ....
 A-3|..|G#2 2F.F ....|G#2 UF.F ....|A-4 2CEF ....
....|..|B-2 2F.7 ....|--- .... ....|B-2 2FF7 ....
....|..|C-5 VF.F ....|G#2 UF.7 ....|B-4 2FE7 ....
....|..|G#2 2F.A ....|G#2 UF.A ....|A-4 2FEA ....
 G#4|..|C-4 AF.F ....|G#2 UF.F ....|G#4 2CEF ....
 G#4|..|G#2 2A.F ....|--- .... ....|G#2 2FF7 ....
....|..|G#2 2F.7 ....|G#2 UF.7 ....|A-4 2FE7 ....
....|..|G#2 2F.A ....|G#2 UF.A ....|G#4 2FEA ....
 A-3|..|C-4 AF.F ....|G#2 UF.F ....|A-4 2CEF ....
 G#4|..|G#2 2A.F ....|--- .... ....|G#2 2FF7 ....
....|..|C-5 VF.F ....|G#2 UF.7 ....|G#4 2FE7 ....
....|..|G#2 2F.A ....|G#2 UF.A ....|A-4 2FEA ....
 G#4|..|C-4 AF.F ....|G#2 UF.F ....|G#4 2CEF ....
 G#4|..|G#2 2A.F ....|--- .... ....|G#2 2FF7 ....
....|..|C-3 RF.F ....|G#2 UF.7 ....|A-4 2FE7 ....
....|..|G#2 2F.A ....|G#2 UF.A ....|G#4 2FEA ....
 F#3|..|C-4 AF.F ....|G#2 UF.F ....|F#4 2CEF ....
 G#4|..|G#2 2A.F ....|--- .... ....|G#2 2FF7 ....
....|..|G#2 2F.7 ....|G#2 UF.7 ....|G#4 2FE7 ....
....|..|G#2 2F.A ....|G#2 UF.A ....|F#4 2FEA ....
 G#4|..|C-4 AF.F ....|E-2 UF.F ....|G#4 2CEF ....
 E-4|..|E-2 2A.F ....|--- .... ....|G#2 2FF7 ....
....|..|C-4 9F.F ....|G#2 UF.7 ....|F#4 2FE7 ....
....|..|E-2 2F.A ....|E-2 UF.A ....|G#4 2FEA ....
 F#3|..|C-4 9F.F ....|D#2 UF.F ....|F#4 2CEF ....
 D#4|..|D#2 2A.F ....|--- .... ....|G#2 2FF7 ....
....|..|C-3 9F.F ....|E-2 UF.7 ....|G#4 2FE7 ....
....|..|D#2 2F.A ....|D#2 UF.A ....|F#4 2FEA ....
....|..|C-4 AF.F ....|C#2 UF.F ....|R-- .... ....
....|..|E-2 2F.7 ....|--- .... ....|D#2 2FFA ....
....|..|D#2 2F.7 ....|D#2 UF.7 ....|F#4 2FE7 ....
 C#4|..|C#2 2A.F ....|C#2 UF.A ....|R-- .... ....
 C#4|..|C#2 2A.F ....|C#2 UF.F ....|--- .... ....
....|..|C#2 2F.A ....|--- .... ....|--- .... ....
....|..|C#2 2F.7 ....|C#2 UF.7 ....|R-- .... ....
....|..|C#2 2F.A ....|C#2 UF.A ....|--- .... ....
....|..|B-8 JF.F ....|C#2 UF.F ....|--- .... ....
 C#4|..|C#2 2A.F ....|--- .... ....|--- .... ....
....|..|C#2 2F.7 ....|C#2 UF.7 ....|--- .... ....
....|..|C#2 2F.A ....|C#2 UF.A ....|--- .... ....
 C#4|..|C#2 2A.F ....|C#2 UF.F ....|--- .... ....
....|..|--- .... ....|--- .... ....|--- .... ....
 C#4|..|C#2 2A.F ....|C#2 UF.F ....|--- .... ....
....|..|C#2 2F.A ....|C#2 UF.A ....|--- .... ....
 C#4|..|C-4 AF.F ....|C#2 UF.F ....|C#5 2CFF ....
 C#4|..|C#5 2C.F ....|C#2 UF.A ....|--- .... ....
 C#4|..|C#2 2A.F ....|C#2 UF.F ....|--- .... ....
....|..|C#5 2F.A ....|C#2 UF.A ....|C#5 2FFA ....
 C#4|..|C#2 2A.F ....|C#2 UF.F ....|--- .... ....
 C#4|..|C#2 2A.F ....|C#2 UF.A ....|--- .... ....
 C#4|..|C#2 2A.F ....|C#2 UF.F ....|C#5 2FF7 ....
....|..|C#2 2F.A ....|C#2 UF.A ....|--- .... ....
 C#4|..|C#2 2A.F ....|C#2 UF.F ....|--- .... ....
....|..|C#2 2F.A ....|C#2 UF.A ....|--- .... ....
 C#4|..|C#2 2A.F ....|C#2 UF.F ....|--- .... ....
....|..|C#2 2F.A ....|C#2 UF.A ....|--- .... ....
 C#4|..|C#5 2C.F ....|C#2 UF.F ....|C#5 2CFF ....
 C#4|..|C#2 2A.F ....|C#2 UF.A ....|--- .... ....
 C#4|..|C#2 2A.F ....|C#2 UF.F ....|--- .... ....
....|..|C#5 2F.A ....|C#2 UF.A ....|C#5 2FFA ....
 B-4|..|C-4 AF.F ....|G#4 UFDF ....|B-4 2CFF ....
 B-4|..|B-4 2C.F ....|C#2 UF.A ....|--- .... ....
....|..|C#5 2F.7 ....|C#2 UF.7 ....|C#5 2FF7 ....
....|..|B-4 2F.A ....|G#4 UFDA ....|B-4 2FFA ....
 C#4|..|C#5 2C.F ....|G#4 UFDF ....|C#5 2CFF ....
....|..|C#2 2F.7 ....|--- .... ....|--- .... ....
....|..|B-4 2F.7 ....|G#4 UFD7 ....|B-4 2FF7 ....
....|..|C#5 2F.A ....|G#4 UFDA ....|C#5 2FFA ....
 A-3|..|C-4 AF.F ....|G#4 UFDF ....|A-4 2CFF ....
 A-3|..|A-4 2C.F ....|--- .... ....|--- .... ....
....|..|C#5 2F.7 ....|G#4 UFD7 ....|C#5 2FF7 ....
....|..|A-4 2F.A ....|G#4 UFDA ....|A-4 2FFA ....
 B-4|..|B-4 2C.F ....|G#4 UFDF ....|B-4 2CFF ....
....|..|C#5 2F.7 ....|--- .... ....|--- .... ....
 C#4|..|C#5 2C.F ....|G#4 UFDF ....|A-4 2FF7 ....
....|..|B-4 2F.A ....|G#4 UFDA ....|B-4 2FFA ....

[Pattern48]
 G#4|..|C-4 AF.F ....|F#2 UF.F ....|G#4 2CFF ....
 G#4|..|G#4 2C.F ....|G#4 UFDA ....|--- .... ....
 F#4|..|F#2 2A.F ....|F#2 UF.F ....|B-4 2FF7 ....
....|..|G#4 2F.A ....|F#2 UF.A ....|G#4 2FFA ....
 A-3|..|A-4 2C.F ....|F#2 UF.F ....|A-4 2CFF ....
....|..|F#2 2F.A ....|F#2 UF.A ....|--- .... ....
 F#4|..|F#2 2A.F ....|F#2 UF.F ....|G#4 2FF7 ....
....|..|A-4 2F.A ....|F#2 UF.A ....|A-4 2FFA ....
 F#3|..|F#4 2C.F ....|F#2 UF.F ....|F#4 2CFF ....
....|..|F#2 2F.A ....|F#2 UF.A ....|--- .... ....
 F#4|..|F#2 2A.F ....|F#2 UF.F ....|A-4 2FF7 ....
....|..|F#4 2F.A ....|F#2 UF.A ....|F#4 2FFA ....
 G#4|..|G#4 2C.F ....|F#2 UF.F ....|G#4 2CFF ....
....|..|F#2 2F.A ....|F#2 UF.A ....|--- .... ....
 F#4|..|F#2 2A.F ....|F#2 UF.F ....|F#4 2FF7 ....
....|..|G#4 2F.A ....|F#2 UF.A ....|G#4 2FFA ....
....|..|C-4 AF.F ....|B-2 UF.F ....|R-- .... ....
....|..|F#2 2F.A ....|F#2 UF.A ....|--- .... ....
....|..|G#4 2F.7 ....|F#2 UF.7 ....|G#4 2FF7 ....
 B-4|..|B-2 2A.F ....|B-2 UF.A ....|R-- .... ....
 B-4|..|B-2 2A.F ....|B-2 UF.F ....|--- .... ....
....|..|F#2 2F.7 ....|--- .... ....|--- .... ....
....|..|B-2 2F.A ....|B-2 UF.7 ....|R-- .... ....
....|..|B-2 2F.A ....|B-2 UF.A ....|--- .... ....
....|..|B-8 JF.F ....|B-2 UF.F ....|--- .... ....
 B-4|..|B-2 2A.F ....|--- .... ....|--- .... ....
....|..|B-2 2F.7 ....|B-2 UF.7 ....|--- .... ....
....|..|B-2 2F.A ....|B-2 UF.A ....|--- .... ....
 B-4|..|B-2 2A.F ....|B-2 UF.F ....|--- .... ....
....|..|--- .... ....|--- .... ....|--- .... ....
 B-4|..|B-2 2A.F ....|B-2 UF.F ....|--- .... ....
....|..|B-2 2F.A ....|B-2 UF.A ....|--- .... ....
 A-3|..|C-4 AF.F ....|B-2 UF.F ....|A-4 2CFF ....
 A-3|..|A-4 2C.F ....|B-2 UF.A ....|--- .... ....
 B-4|..|B-2 2A.F ....|B-2 UF.F ....|--- .F.. ....
....|..|A-4 2F.A ....|B-2 UF.A ....|A-4 2FFA ....
 B-4|..|B-2 2A.F ....|B-2 UF.F ....|--- .... ....
 B-4|..|B-2 2A.F ....|B-2 UF.A ....|--- .... ....
 B-4|..|B-2 2A.F ....|B-2 UF.F ....|A-4 2FF7 ....
....|..|B-2 2F.A ....|B-2 UF.A ....|--- .... ....
 B-4|..|B-2 2A.F ....|B-2 UF.F ....|--- .... ....
....|..|B-2 2F.A ....|B-2 UF.A ....|--- .... ....
 B-4|..|B-2 2A.F ....|B-2 UF.F ....|--- .... ....
....|..|B-2 2F.A ....|B-2 UF.A ....|--- .... ....
 A-3|..|A-4 2C.F ....|B-2 UF.F ....|A-4 2CFF ....
 B-4|..|B-2 2A.F ....|B-2 UF.A ....|--- .F.. ....
 B-4|..|B-2 2A.F ....|B-2 UF.F ....|--- .... ....
....|..|A-4 2F.A ....|B-2 UF.A ....|A-4 2FFA ....
 G#4|..|C-4 AF.F ....|A-4 UF.F ....|G#4 2CFF ....
 G#4|..|G#4 2C.F ....|B-2 UF.A ....|--- .... ....
....|..|A-4 2F.7 ....|B-2 UF.7 ....|A-4 2FF7 ....
....|..|G#4 2F.A ....|A-4 UF.A ....|G#4 2FFA ....
 A-3|..|A-4 2C.F ....|A-4 UF.F ....|A-4 2CFF ....
....|..|B-2 2F.7 ....|--- .... ....|--- .... ....
....|..|G#4 2F.7 ....|A-4 UF.7 ....|G#4 2FF7 ....
....|..|A-4 2F.A ....|A-4 UF.A ....|A-4 2FFA ....
 F#3|..|C-4 CF.F ....|A-4 UF.F ....|F#4 2CFF ....
 F#3|..|F#4 2C.F ....|--- .... ....|--- .... ....
....|..|A-4 2F.7 ....|A-4 UF.7 ....|A-4 2FF7 ....
....|..|F#4 2F.A ....|A-4 UF.A ....|F#4 2FFA ....
 G#4|..|G#4 2C.F ....|A-4 UF.F ....|G#4 2CFF ....
....|..|A-4 2F.7 ....|--- .... ....|--- .... ....
....|..|F#4 2F.7 ....|A-4 UF.7 ....|F#4 2FF7 ....
....|..|G#4 2F.A ....|A-4 UF.A ....|G#4 2FFA ....
 F#3|..|C-4 AF.F ....|G#2 UF.F ....|F#4 2CFF ....
 F#3|..|F#4 2C.F ....|--- .... ....|E-4 2FFF ....
 E-4|..|E-4 2C.F ....|A-4 UF.7 ....|G#4 2FF7 ....
 F#3|..|F#4 2C.F ....|G#2 UF.A ....|F#4 2CFF ....
 E-4|..|E-4 2C.F ....|G#2 UF.F ....|E-4 2CFF ....
 F#3|..|F#4 2C.F ....|--- .... ....|F#4 2CFF ....
....|..|F#4 2F.7 ....|G#2 UF.7 ....|F#4 2FF7 ....
 E-4|..|E-4 2C.F ....|G#2 UF.A ....|E-4 2CFF ....
 E-4|..|C-4 AF.F ....|E-2 UF.F ....|E-4 2CFF ....
 E-4|..|E-4 2C.F ....|--- .... ....|D#4 2FFF ....
 D#4|..|D#4 2C.F ....|G#2 UF.7 ....|E-4 2FF7 ....
 E-4|..|E-4 2C.F ....|E-2 UF.A ....|E-4 2CFF ....
 D#4|..|D#4 2C.F ....|D#2 UF.F ....|D#4 2CFF ....
 E-4|..|E-4 2C.F ....|--- .... ....|E-4 2CFF ....
....|..|E-4 2F.7 ....|E-2 UF.7 ....|E-4 2FF7 ....
 D#4|..|D#4 2C.F ....|D#2 UF.A ....|D#4 2CFF ....
....|..|C-4 AF.F ....|C#2 UF.F ....|E-4 2FFA ....
....|..|E-4 2F.A ....|--- .... ....|E-4 2FF7 ....
....|..|E-4 2F.7 ....|D#2 UF.7 ....|D#4 2FF7 ....
....|..|C#2 2F.A ....|C#2 UF.A ....|E-4 2FF7 ....
 C#4|..|C#2 2A.F ....|C#2 UF.F ....|--- .... ....
....|..|D#4 2F.7 ....|--- .... ....|D#4 2FF7 ....
....|..|C#2 2F.7 ....|C#2 UF.7 ....|R-- .... ....
....|..|C#2 2F.A ....|C#2 UF.A ....|--- .... ....
....|..|B-8 JF.F ....|C#2 UF.F ....|--- .... ....
 C#4|..|C#2 2A.F ....|--- .... ....|--- .... ....
....|..|C#2 2F.7 ....|C#2 UF.7 ....|--- .... ....
....|..|C#2 2F.A ....|C#2 UF.A ....|--- .... ....
 C#4|..|C#2 2A.F ....|C#2 UF.F ....|--- .... ....
....|..|--- .... ....|--- .... ....|--- .... ....
 C#4|..|C#2 2A.F ....|C#2 UF.F ....|--- .... ....
....|..|C#2 2F.A ....|C#2 UF.A ....|--- .... ....
 G#4|..|C-4 AF.F ....|C#2 UF.F ....|G#4 2CFF ....
 G#4|..|G#4 2C.F ....|C#2 UF.A ....|--- .... ....
 C#4|..|C#2 2A.F ....|C#2 UF.F ....|--- .F.. ....
....|..|G#4 2F.A ....|C#2 UF.A ....|G#4 2FFA ....
 C#4|..|C#2 2A.F ....|C#2 UF.F ....|--- .... ....
 C#4|..|C#2 2A.F ....|C#2 UF.A ....|--- .... ....
 C#4|..|C#2 2A.F ....|C#2 UF.F ....|G#4 2FF7 ....
....|..|C#2 2F.A ....|C#2 UF.A ....|--- .... ....
 C#4|..|C#2 2A.F ....|C#2 UF.F ....|--- .... ....
....|..|C#2 2F.A ....|C#2 UF.A ....|--- .... ....
 C#4|..|C#2 2A.F ....|C#2 UF.F ....|--- .... ....
....|..|C#2 2F.A ....|C#2 UF.A ....|--- .... ....
 B-4|..|B-4 2C.F ....|C#2 UF.F ....|B-4 2CFF ....
 C#4|..|C#2 2A.F ....|C#2 UF.A ....|--- .F.. ....
 B-4|..|B-4 2C.F ....|C#2 UF.F ....|B-4 2CFF ....
....|..|B-4 2F.A ....|C#2 UF.A ....|B-4 2FFA ....
 B-4|..|C-4 AF.F ....|G#4 UF.F ....|B-4 2CFF ....
 B-4|..|B-4 2C.F ....|C#2 UF.A ....|B-4 2FFA ....
....|..|B-4 2F.A ....|C#2 UF.7 ....|B-4 2FF7 ....
....|..|B-4 2F.A ....|G#4 UF.A ....|B-4 2FFA ....
 A-3|..|A-4 2C.F ....|G#4 UF.F ....|A-4 2CFF ....
....|..|C#2 2F.7 ....|--- .... ....|--- .... ....
 A-3|..|A-4 2C.F ....|G#4 UF.7 ....|A-4 2CFF ....
....|..|A-4 2F.A ....|G#4 UF.A ....|A-4 2FFA ....
 A-3|..|C-4 AF.F ....|G#4 UF.F ....|A-4 2CFF ....
 A-3|..|A-4 2C.F ....|--- .... ....|A-4 2FFA ....
....|..|A-4 2F.A ....|G#4 UF.7 ....|A-4 2FF7 ....
....|..|A-4 2F.A ....|G#4 UF.A ....|A-4 2FFA ....
 G#4|..|G#4 2C.F ....|G#4 UF.F ....|G#4 2CFF ....
....|..|G#4 2F.7 ....|--- .... ....|--- .... ....
 G#4|..|G#4 2C.F ....|G#4 UF.F ....|G#4 2CFF ....
....|..|G#4 2F.A ....|G#4 UF.A ....|G#4 2FFA ....

[Pattern49]
 G#4|..|C-4 AF.F ....|F#2 UF.F ....|G#4 2CFF ....
 G#4|..|G#4 2C.F ....|G#4 UF.A ....|G#4 2FFA ....
 F#4|..|F#2 2A.F ....|F#2 UF.F ....|G#4 2FF7 ....
....|..|G#4 2F.A ....|F#2 UF.A ....|G#4 2FFA ....
 F#3|..|F#4 2C.F ....|F#2 UF.F ....|F#4 2CFF ....
....|..|F#2 2F.A ....|F#2 UF.A ....|--- .... ....
 F#3|..|F#4 2C.F ....|F#2 UF.F ....|F#4 2CFF ....
....|..|F#4 2F.A ....|F#2 UF.A ....|F#4 2FFA ....
 F#3|..|F#4 2C.F ....|F#2 UF.F ....|F#4 2CFF ....
....|..|F#4 2F.A ....|F#2 UF.A ....|F#4 2FFA ....
 F#4|..|F#2 2A.F ....|F#2 UF.F ....|F#4 2FF7 ....
....|..|F#4 2F.A ....|F#2 UF.A ....|F#4 2FFA ....
 G#4|..|G#4 2C.F ....|F#2 UF.F ....|G#4 2CFF ....
....|..|F#2 2F.A ....|F#2 UF.A ....|--- .... ....
 F#4|..|F#2 2A.F ....|F#2 UF.F ....|F#4 2FF7 ....
....|..|G#4 2F.A ....|F#2 UF.A ....|G#4 2FFA ....
 G#4|..|C-4 AF.F ....|B-2 UF.F ....|G#4 2CFF ....
 G#4|..|G#4 2C.F ....|F#2 UF.A ....|--- .... ....
....|..|G#4 2F.7 ....|F#2 UF.7 ....|G#4 2FF7 ....
....|..|G#4 2F.A ....|B-2 UF.A ....|G#4 2FFA ....
 F#3|..|F#4 2C.F ....|B-2 UF.F ....|F#4 2CFF ....
....|..|F#2 2F.7 ....|--- .... ....|--- .... ....
....|..|G#4 2F.7 ....|B-2 UF.7 ....|G#4 2FF7 ....
....|..|F#4 2F.A ....|B-2 UF.A ....|F#4 2FFA ....
....|..|B-8 JF.F ....|B-2 UF.F ....|R-- .... ....
....|..|B-2 2F.7 ....|--- .... ....|--- .... ....
....|..|F#4 2F.7 ....|B-2 UF.7 ....|F#4 2FF7 ....
 B-4|..|B-2 2A.F ....|B-2 UF.A ....|R-- .... ....
 B-4|..|B-2 2A.F ....|B-2 UF.F ....|--- .... ....
....|..|B-2 2F.A ....|--- .... ....|--- .... ....
 B-4|..|B-2 2A.F ....|B-2 UF.F ....|R-- .... ....
....|..|B-2 2F.A ....|B-2 UF.A ....|--- .... ....
....|..|C-4 AF.F ....|B-2 UF.F ....|--- .... ....
 B-4|..|B-2 2A.F ....|B-2 UF.A ....|--- .... ....
 B-4|..|B-2 2A.F ....|B-2 UF.F ....|--- .... ....
....|..|B-2 2F.A ....|B-2 UF.A ....|--- .... ....
 B-4|..|B-2 2A.F ....|B-2 UF.F ....|--- .... ....
....|..|B-2 2F.A ....|B-2 UF.A ....|--- .... ....
 B-4|..|B-2 2A.F ....|B-2 UF.F ....|--- .... ....
....|..|B-2 2F.A ....|B-2 UF.A ....|--- .... ....
 E-4|..|E-4 2C.F ....|B-2 UF.F ....|E-4 2CFF ....
 B-4|..|B-2 2A.F ....|B-2 UF.A ....|--- .F.. ....
 B-4|..|B-2 2A.F ....|B-2 UF.F ....|--- .... ....
....|..|E-4 2F.A ....|B-2 UF.A ....|E-4 2FFA ....
 B-4|..|B-2 2A.F ....|B-2 UF.F ....|--- .... ....
....|..|B-2 2F.A ....|B-2 UF.A ....|--- .... ....
 B-4|..|B-2 2A.F ....|B-2 UF.F ....|E-4 2FF7 ....
....|..|B-2 2F.A ....|B-2 UF.A ....|--- .... ....
....|..|C-4 AF.F ....|G#2 UF.F ....|R-- .... ....
 G#4|..|G#2 2A.F ....|B-2 UF.A ....|--- .... ....
....|..|C-4 9F.F ....|B-2 UF.7 ....|--- .... ....
....|..|B-2 2F.A ....|G#2 UF.A ....|R-- .... ....
 G#4|..|G#2 2A.F ....|G#2 UF.F ....|--- .... ....
....|..|G#2 2F.A ....|--- .... ....|--- .... ....
....|..|C-5 VF.F ....|G#2 UF.7 ....|R-- .... ....
....|..|G#2 2F.A ....|G#2 UF.A ....|--- .... ....
....|..|C-4 AF.F ....|G#3 UF7F ....|--- .... ....
 F#3|..|F#4 2C.F ....|--- .... ....|--- .... ....
....|..|G#2 2F.7 ....|G#2 UF.7 ....|--- .... ....
....|..|F#4 2F.A ....|G#3 UF7A ....|--- .... ....
....|..|C-4 AF.F ....|G#3 UF7F ....|--- .... ....
 F#3|..|F#4 2C.F ....|--- .... ....|--- .... ....
....|..|C-5 VF.F ....|G#3 UF77 ....|--- .... ....
....|..|F#4 2F.A ....|G#3 UF7A ....|--- .... ....
 E-4|..|C-4 AF.F ....|G#3 UF7F ....|E-4 2CFF ....
 E-4|..|E-4 2C.F ....|--- .... ....|--- .... ....
....|..|C-3 RF.F ....|G#3 UF77 ....|--- .... ....
....|..|E-4 2F.A ....|G#3 UF7A ....|E-4 2FFA ....
....|..|C-4 AF.F ....|G#3 UF7F ....|--- .... ....
....|..|F#4 2F.7 ....|--- .... ....|--- .... ....
....|..|E-4 2F.7 ....|G#3 UF77 ....|E-4 2FF7 ....
 F#3|..|F#4 2C.F ....|G#3 UF7A ....|--- .... ....
 D#4|..|C-4 AF.F ....|E-2 UF.F ....|D#4 2CFF ....
 D#4|..|D#4 2C.F ....|--- .... ....|--- .... ....
....|..|C-4 9F.F ....|G#3 UF77 ....|--- .... ....
....|..|D#4 2F.A ....|E-2 UF.A ....|D#4 2FFA ....
....|..|C-4 9F.F ....|D#2 UF.F ....|--- .... ....
....|..|F#4 2F.7 ....|--- .... ....|--- .... ....
....|..|C-3 9F.F ....|E-2 UF.7 ....|D#4 2FF7 ....
....|..|D#2 2F.A ....|D#2 UF.A ....|--- .... ....
 G#4|..|C-4 AF.F ....|D#4 UF.F ....|G#5 2CEF ....
 C#4|..|C#4 2C.F ....|--- .... ....|C#4 2CFF ....
 E-4|..|D#4 2F.F ....|D#2 UF.7 ....|E-5 2CEF ....
....|..|C#4 2F.A ....|D#4 UF.A ....|G#5 2FEA ....
 C#4|..|D#4 2F.F ....|D#4 UF.F ....|C#5 2CEF ....
....|..|D#4 2F.A ....|--- .... ....|E-5 2FEA ....
 E-4|..|C#4 2F.7 ....|D#4 UF.7 ....|E-5 2CEF ....
....|..|D#4 2F.A ....|D#4 UF.A ....|C#5 2FEA ....
 G#4|..|B-8 JF.F ....|D#4 UF.F ....|G#5 2CEF ....
 D#4|..|D#4 2C.F ....|--- .... ....|E-5 2FEA ....
 E-4|..|D#4 2F.7 ....|D#4 UF.7 ....|E-5 2CEF ....
....|..|D#4 2F.A ....|D#4 UF.A ....|G#5 2FEA ....
 C#4|..|D#4 2F.F ....|D#4 UF.F ....|C#5 2CEF ....
....|..|--- .... ....|--- .... ....|E-5 2FEA ....
 E-4|..|D#4 2F.F ....|D#4 UF.F ....|E-5 2CEF ....
....|..|D#4 2F.A ....|D#4 UF.A ....|C#5 2FEA ....
 G#4|..|C-4 AF.F ....|C#2 UF.F ....|G#5 2CEF ....
 C#4|..|C#2 2A.F ....|D#4 UF.A ....|E-5 2FEA ....
 E-4|..|C#2 2F.F ....|C#2 UF.F ....|E-5 2CEF ....
....|..|C#2 2F.A ....|C#2 UF.A ....|G#5 2FEA ....
 C#4|..|C#3 2C.F ....|C#2 UF.F ....|C#5 2CEF ....
....|..|C#2 2F.A ....|C#2 UF.A ....|E-5 2FEA ....
 E-4|..|C#2 2F.F ....|C#2 UF.F ....|E-5 2CEF ....
....|..|C#2 2F.A ....|C#2 UF.A ....|C#5 2FEA ....
 G#4|..|C#2 2F.F ....|C#2 UF.F ....|G#5 2CEF ....
....|..|C#2 2F.A ....|C#2 UF.A ....|E-5 2FEA ....
 E-4|..|C#2 2F.F ....|C#2 UF.F ....|E-5 2CEF ....
....|..|C#2 2F.A ....|C#2 UF.A ....|G#5 2FEA ....
 C#4|..|C#3 2C.F ....|C#2 UF.F ....|C#5 2CEF ....
....|..|C#2 2F.A ....|C#2 UF.A ....|E-5 2FEA ....
 E-4|..|C#2 2F.F ....|C#2 UF.F ....|E-5 2CEF ....
....|..|C#2 2F.A ....|C#2 UF.A ....|C#5 2FEA ....
 A-3|..|C-4 AF.F ....|F#2 UF.F ....|A-5 2CEF ....
 F#4|..|F#2 2A.F ....|C#2 UF.A ....|E-5 2FEA ....
 F#3|..|F#3 2C.F ....|C#2 UF.7 ....|F#5 2CEF ....
....|..|F#2 2F.A ....|F#2 UF.A ....|A-5 2FEA ....
 C#4|..|F#2 2F.F ....|F#2 UF.F ....|C#5 2CEF ....
....|..|C#2 2F.7 ....|--- .... ....|F#5 2FEA ....
 F#3|..|F#2 2F.7 ....|F#2 UF.7 ....|F#5 2CEF ....
....|..|F#2 2F.A ....|F#2 UF.A ....|C#5 2FEA ....
 A-3|..|C-4 AF.F ....|F#2 UF.F ....|A-5 2CEF ....
 F#4|..|F#2 2A.F ....|--- .... ....|F#5 2FEA ....
 F#3|..|F#2 2F.7 ....|F#2 UF.7 ....|F#5 2CEF ....
....|..|F#2 2F.A ....|F#2 UF.A ....|A-5 2FEA ....
 C#4|..|F#2 2F.F ....|F#2 UF.F ....|C#5 2CEF ....
....|..|F#2 2F.7 ....|--- .... ....|F#5 2FEA ....
 F#3|..|F#3 2C.F ....|F#2 UF.F ....|F#5 2CEF ....
....|..|F#2 2F.A ....|F#2 UF.A ....|C#5 2FEA ....

[Pattern50]
 A-3|..|C-4 AF.F ....|F#2 UF.F ....|A-5 2CEF ....
 F#4|..|F#2 2A.F ....|F#2 UF.A ....|F#5 2FEA ....
 F#3|..|F#3 2C.F ....|F#2 UF.F ....|F#5 2CEF ....
....|..|F#2 2F.A ....|F#2 UF.A ....|A-5 2FEA ....
 C#4|..|F#2 2F.F ....|F#2 UF.F ....|C#5 2CEF ....
....|..|F#2 2F.A ....|F#2 UF.A ....|F#5 2FEA ....
 F#3|..|F#3 2C.F ....|F#2 UF.F ....|F#5 2CEF ....
....|..|F#2 2F.A ....|F#2 UF.A ....|C#5 2FEA ....
 A-3|..|F#2 2F.F ....|F#2 UF.F ....|A-5 2CEF ....
....|..|F#2 2F.A ....|F#2 UF.A ....|F#5 2FEA ....
 F#3|..|F#3 2C.F ....|F#2 UF.F ....|F#5 2CEF ....
....|..|F#2 2F.A ....|F#2 UF.A ....|A-5 2FEA ....
 C#4|..|F#2 2F.F ....|F#2 UF.F ....|C#5 2CEF ....
....|..|F#2 2F.A ....|F#2 UF.A ....|F#5 2FEA ....
 F#3|..|F#3 2C.F ....|F#2 UF.F ....|F#5 2CEF ....
....|..|F#2 2F.A ....|F#2 UF.A ....|C#5 2FEA ....
 F#3|..|C-4 AF.F ....|B-2 UF.F ....|F#5 2CEF ....
 B-4|..|B-2 2A.F ....|F#2 UF.A ....|F#5 2FEA ....
 D#4|..|F#2 2F.A ....|F#2 UF.7 ....|D#5 2CEF ....
....|..|B-2 2F.A ....|B-2 UF.A ....|F#5 2FEA ....
 B-4|..|B-3 2C.F ....|B-2 UF.F ....|B-4 2CEF ....
....|..|F#2 2F.7 ....|--- .... ....|D#5 2FEA ....
 D#4|..|B-2 2F.7 ....|B-2 UF.7 ....|D#5 2CEF ....
....|..|B-2 2F.A ....|B-2 UF.A ....|B-4 2FEA ....
 F#3|..|B-8 JF.F ....|B-2 UF.F ....|F#5 2CEF ....
 B-4|..|B-2 2A.F ....|--- .... ....|D#5 2FEA ....
 D#4|..|B-2 2F.7 ....|B-2 UF.7 ....|D#5 2CEF ....
....|..|B-2 2F.A ....|B-2 UF.A ....|F#5 2FEA ....
 B-4|..|B-3 2C.F ....|B-2 UF.F ....|B-4 2CEF ....
....|..|B-2 2F.7 ....|--- .... ....|D#5 2FEA ....
 D#4|..|B-2 2F.F ....|B-2 UF.F ....|D#5 2CEF ....
....|..|B-2 2F.A ....|B-2 UF.A ....|B-4 2FEA ....
 F#3|..|C-4 AF.F ....|B-2 UF.F ....|F#5 2CEF ....
 B-4|..|B-2 2A.F ....|B-2 UF.A ....|D#5 2FEA ....
 D#4|..|B-2 2F.F ....|B-2 UF.F ....|D#5 2CEF ....
....|..|B-2 2F.A ....|B-2 UF.A ....|F#5 2FEA ....
 B-4|..|B-3 2C.F ....|B-2 UF.F ....|B-4 2CEF ....
....|..|B-2 2F.A ....|B-2 UF.A ....|D#5 2FEA ....
 D#4|..|B-2 2F.F ....|B-2 UF.F ....|D#5 2CEF ....
....|..|B-2 2F.A ....|B-2 UF.A ....|B-4 2FEA ....
 F#3|..|B-2 2F.F ....|B-2 UF.F ....|F#5 2CEF ....
....|..|B-2 2F.A ....|B-2 UF.A ....|D#5 2FEA ....
 D#4|..|B-2 2F.F ....|B-2 UF.F ....|D#5 2CEF ....
....|..|B-2 2F.A ....|B-2 UF.A ....|F#5 2FEA ....
 B-4|..|B-3 2C.F ....|B-2 UF.F ....|B-4 2CEF ....
....|..|B-2 2F.A ....|B-2 UF.A ....|D#5 2FEA ....
 D#4|..|B-2 2F.F ....|B-2 UF.F ....|D#5 2CEF ....
....|..|B-2 2F.A ....|B-2 UF.A ....|B-4 2FEA ....
 G#4|..|C-4 AF.F ....|G#2 UF.F ....|G#5 2CEF ....
 G#4|..|G#2 2A.F ....|B-2 UF.A ....|D#5 2FEA ....
 D#4|..|B-2 2F.A ....|B-2 UF.7 ....|D#5 2CEF ....
....|..|G#2 2F.A ....|G#2 UF.A ....|G#5 2FEA ....
 B-4|..|G#2 2F.F ....|G#2 UF.F ....|B-4 2CEF ....
....|..|B-2 2F.7 ....|--- .... ....|D#5 2FEA ....
 D#4|..|G#2 2F.7 ....|G#2 UF.7 ....|D#5 2CEF ....
....|..|G#2 2F.A ....|G#2 UF.A ....|B-4 2FEA ....
 G#4|..|C-4 CF.F ....|G#2 UF.F ....|G#5 2CEF ....
 G#4|..|G#2 2A.F ....|--- .... ....|D#5 2FEA ....
 D#4|..|G#2 2F.7 ....|G#2 UF.7 ....|D#5 2CEF ....
....|..|G#2 2F.A ....|G#2 UF.A ....|G#5 2FEA ....
 B-4|..|G#2 2F.F ....|G#2 UF.F ....|B-4 2CEF ....
....|..|G#2 2F.7 ....|--- .... ....|D#5 2FEA ....
 D#4|..|G#2 2F.7 ....|G#2 UF.7 ....|D#5 2CEF ....
....|..|G#2 2F.A ....|G#2 UF.A ....|B-4 2FEA ....
 G#4|..|C-4 AF.F ....|G#2 UF.F ....|G#5 2CEF ....
 G#4|..|G#2 2A.F ....|--- .... ....|D#5 2FEA ....
 D#4|..|G#2 2F.7 ....|G#2 UF.7 ....|D#5 2CEF ....
....|..|G#2 2F.A ....|G#2 UF.A ....|G#5 2FEA ....
 B-4|..|G#2 2F.F ....|G#2 UF.F ....|B-4 2CEF ....
....|..|G#2 2F.7 ....|--- .... ....|D#5 2FEA ....
 D#4|..|G#2 2F.7 ....|G#2 UF.7 ....|D#5 2CEF ....
....|..|G#2 2F.A ....|G#2 UF.A ....|B-4 2FEA ....
 G#4|..|C-4 AF.F ....|E-2 UF.F ....|G#5 2CEF ....
 E-4|..|E-2 2A.F ....|--- .... ....|D#5 2FEA ....
 D#4|..|G#2 2F.7 ....|G#2 UF.7 ....|D#5 2CEF ....
....|..|E-2 2F.A ....|E-2 UF.A ....|G#5 2FEA ....
 B-4|..|C-5 VF.F ....|D#2 UF.F ....|B-4 2CEF ....
 D#4|..|D#2 2A.F ....|--- .... ....|D#5 2FEA ....
 D#4|..|E-2 2F.7 ....|E-2 UF.7 ....|D#5 2CEF ....
....|..|D#2 2F.A ....|D#2 UF.A ....|B-4 2FEA ....
 G#4|..|C-4 AF.F ....|C#2 UF.F ....|G#5 2CEF ....
 C#4|..|C#2 2A.F ....|--- .... ....|D#5 2FEA ....
 E-4|..|D#2 2F.7 ....|D#2 UF.7 ....|E-5 2CEF ....
....|..|C#2 2F.A ....|C#2 UF.A ....|G#5 2FEA ....
 C#4|..|C#3 2C.F ....|C#2 UF.F ....|C#5 2CEF ....
....|..|D#2 2F.7 ....|--- .... ....|E-5 2FEA ....
 E-4|..|C#2 2F.7 ....|C#2 UF.7 ....|E-5 2CEF ....
....|..|C#2 2F.A ....|C#2 UF.A ....|C#5 2FEA ....
 G#4|..|B-8 JF.F ....|C#2 UF.F ....|G#5 2CEF ....
 C#4|..|C#2 2A.F ....|--- .... ....|E-5 2FEA ....
 E-4|..|C#2 2F.7 ....|C#2 UF.7 ....|E-5 2CEF ....
....|..|C#2 2F.A ....|C#2 UF.A ....|G#5 2FEA ....
 C#4|..|C#3 2C.F ....|C#2 UF.F ....|C#5 2CEF ....
....|..|C#2 2F.7 ....|--- .... ....|E-5 2FEA ....
 E-4|..|C#2 2F.F ....|C#2 UF.F ....|E-5 2CEF ....
....|..|C#2 2F.A ....|C#2 UF.A ....|C#5 2FEA ....
 G#4|..|C-4 AF.F ....|C#2 UF.F ....|G#5 2CEF ....
 C#4|..|C#2 2A.F ....|C#2 UF.A ....|E-5 2FEA ....
 E-4|..|C#2 2F.F ....|C#2 UF.F ....|E-5 2CEF ....
....|..|C#2 2F.A ....|C#2 UF.A ....|G#5 2FEA ....
 C#4|..|C#3 2C.F ....|C#2 UF.F ....|C#5 2CEF ....
....|..|C#2 2F.A ....|C#2 UF.A ....|E-5 2FEA ....
 E-4|..|C#2 2F.F ....|C#2 UF.F ....|E-5 2CEF ....
....|..|C#2 2F.A ....|C#2 UF.A ....|C#5 2FEA ....
 G#4|..|C#2 2F.F ....|C#2 UF.F ....|G#5 2CEF ....
....|..|C#2 2F.A ....|C#2 UF.A ....|E-5 2FEA ....
 E-4|..|C#2 2F.F ....|C#2 UF.F ....|E-5 2CEF ....
....|..|C#2 2F.A ....|C#2 UF.A ....|G#5 2FEA ....
 C#4|..|C#3 2C.F ....|C#2 UF.F ....|C#5 2CEF ....
....|..|C#2 2F.A ....|C#2 UF.A ....|E-5 2FEA ....
 E-4|..|C#2 2F.F ....|C#2 UF.F ....|E-5 2CEF ....
....|..|C#2 2F.A ....|C#2 UF.A ....|C#5 2FEA ....
 A-3|..|C-4 AF.F ....|F#2 UF.F ....|A-5 2CEF ....
 F#4|..|F#2 2A.F ....|C#2 UF.A ....|E-5 2FEA ....
 F#3|..|C#2 2F.A ....|C#2 UF.7 ....|F#5 2CEF ....
....|..|F#2 2F.A ....|F#2 UF.A ....|A-5 2FEA ....
 C#4|..|F#2 2F.F ....|F#2 UF.F ....|C#5 2CEF ....
....|..|C#2 2F.7 ....|--- .... ....|F#5 2FEA ....
 F#3|..|F#2 2F.7 ....|F#2 UF.7 ....|F#5 2CEF ....
....|..|F#2 2F.A ....|F#2 UF.A ....|C#5 2FEA ....
 A-3|..|C-4 AF.F ....|F#2 UF.F ....|A-5 2CEF ....
 F#4|..|F#2 2A.F ....|--- .... ....|F#5 2FEA ....
 F#3|..|F#2 2F.7 ....|F#2 UF.7 ....|F#5 2CEF ....
....|..|F#2 2F.A ....|F#2 UF.A ....|A-5 2FEA ....
 C#4|..|F#2 2F.F ....|F#2 UF.F ....|C#5 2CEF ....
....|..|F#2 2F.7 ....|--- .... ....|F#5 2FEA ....
 F#3|..|F#3 2C.F ....|F#2 UF.F ....|F#5 2CEF ....
....|..|F#2 2F.A ....|F#2 UF.A ....|C#5 2FEA ....

[Pattern51]
 A-3|..|C-4 AF.F ....|F#2 UF.F ....|A-5 2CEF ....
 F#4|..|F#2 2A.F ....|F#2 UF.A ....|F#5 2FEA ....
 F#3|..|F#3 2C.F ....|F#2 UF.F ....|F#5 2CEF ....
....|..|F#2 2F.A ....|F#2 UF.A ....|A-5 2FEA ....
 C#4|..|F#2 2F.F ....|F#2 UF.F ....|C#5 2CEF ....
....|..|F#2 2F.A ....|F#2 UF.A ....|F#5 2FEA ....
 F#3|..|F#3 2C.F ....|F#2 UF.F ....|F#5 2CEF ....
....|..|F#2 2F.A ....|F#2 UF.A ....|C#5 2FEA ....
 A-3|..|F#2 2F.F ....|F#2 UF.F ....|A-5 2CEF ....
....|..|F#2 2F.A ....|F#2 UF.A ....|F#5 2FEA ....
 F#3|..|F#3 2C.F ....|F#2 UF.F ....|F#5 2CEF ....
....|..|F#2 2F.A ....|F#2 UF.A ....|A-5 2FEA ....
 C#4|..|F#2 2F.F ....|F#2 UF.F ....|C#5 2CEF ....
....|..|F#2 2F.A ....|F#2 UF.A ....|F#5 2FEA ....
 F#3|..|F#3 2C.F ....|F#2 UF.F ....|F#5 2CEF ....
....|..|F#2 2F.A ....|F#2 UF.A ....|C#5 2FEA ....
 F#3|..|C-4 AF.F ....|B-2 UF.F ....|F#5 2CEF ....
 B-4|..|B-2 2A.F ....|F#2 UF.A ....|F#5 2FEA ....
 D#4|..|F#2 2F.A ....|F#2 UF.7 ....|D#5 2CEF ....
....|..|B-2 2F.A ....|B-2 UF.A ....|F#5 2FEA ....
 B-4|..|B-3 2C.F ....|B-2 UF.F ....|B-4 2CEF ....
....|..|F#2 2F.7 ....|--- .... ....|D#5 2FEA ....
 D#4|..|B-2 2F.7 ....|B-2 UF.7 ....|D#5 2CEF ....
....|..|B-2 2F.A ....|B-2 UF.A ....|B-4 2FEA ....
 F#3|..|B-8 JF.F ....|B-2 UF.F ....|F#5 2CEF ....
 B-4|..|B-2 2A.F ....|--- .... ....|D#5 2FEA ....
 D#4|..|B-2 2F.7 ....|B-2 UF.7 ....|D#5 2CEF ....
....|..|B-2 2F.A ....|B-2 UF.A ....|F#5 2FEA ....
 B-4|..|B-3 2C.F ....|B-2 UF.F ....|B-4 2CEF ....
....|..|B-2 2F.7 ....|--- .... ....|D#5 2FEA ....
 D#4|..|B-2 2F.F ....|B-2 UF.F ....|D#5 2CEF ....
....|..|B-2 2F.A ....|B-2 UF.A ....|B-4 2FEA ....
 F#3|..|C-4 AF.F ....|B-2 UF.F ....|F#5 2CEF ....
 B-4|..|B-2 2A.F ....|B-2 UF.A ....|D#5 2FEA ....
 D#4|..|B-2 2F.F ....|B-2 UF.F ....|D#5 2CEF ....
....|..|B-2 2F.A ....|B-2 UF.A ....|F#5 2FEA ....
 B-4|..|B-3 2C.F ....|B-2 UF.F ....|B-4 2CEF ....
....|..|B-2 2F.A ....|B-2 UF.A ....|D#5 2FEA ....
 D#4|..|B-2 2F.F ....|B-2 UF.F ....|D#5 2CEF ....
....|..|B-2 2F.A ....|B-2 UF.A ....|B-4 2FEA ....
 F#3|..|B-2 2F.F ....|B-2 UF.F ....|F#5 2CEF ....
....|..|B-2 2F.A ....|B-2 UF.A ....|D#5 2FEA ....
 D#4|..|B-2 2F.F ....|B-2 UF.F ....|D#5 2CEF ....
....|..|B-2 2F.A ....|B-2 UF.A ....|F#5 2FEA ....
 B-4|..|B-3 2C.F ....|B-2 UF.F ....|B-4 2CEF ....
....|..|B-2 2F.A ....|B-2 UF.A ....|D#5 2FEA ....
 D#4|..|B-2 2F.F ....|B-2 UF.F ....|D#5 2CEF ....
....|..|B-2 2F.A ....|B-2 UF.A ....|B-4 2FEA ....
 G#4|..|C-4 AF.F ....|G#2 UF.F ....|G#5 2CEF ....
 G#4|..|G#2 2A.F ....|B-2 UF.A ....|D#5 2FEA ....
 D#4|..|B-2 2F.A ....|B-2 UF.7 ....|D#5 2CEF ....
....|..|G#2 2F.A ....|G#2 UF.A ....|G#5 2FEA ....
 B-4|..|C-5 VF.F ....|G#2 UF.F ....|B-4 2CEF ....
 G#4|..|G#2 2A.F ....|--- .... ....|D#5 2FEA ....
 D#4|..|C-5 VF.F ....|G#2 UF.7 ....|D#5 2CEF ....
....|..|G#2 2F.A ....|G#2 UF.A ....|B-4 2FEA ....
 G#4|..|C-4 CF.F ....|G#2 UF.F ....|G#5 2CEF ....
 G#4|..|G#2 2A.F ....|--- .... ....|D#5 2FEA ....
 D#4|..|G#2 2F.7 ....|G#2 UF.7 ....|D#5 2CEF ....
....|..|G#2 2F.A ....|G#2 UF.A ....|G#5 2FEA ....
 B-4|..|C-4 CF.F ....|G#2 UF.F ....|B-4 2CEF ....
 G#4|..|G#2 2A.F ....|--- .... ....|D#5 2FEA ....
 D#4|..|C-4 CF.F ....|G#2 UF.7 ....|D#5 2CEF ....
....|..|G#2 2F.A ....|G#2 UF.A ....|B-4 2FEA ....
 G#4|..|C-4 AF.F ....|G#2 UF.F ....|G#5 2CEF ....
 G#4|..|G#2 2A.F ....|--- .... ....|D#5 2FEA ....
 D#4|..|G#2 2F.7 ....|G#2 UF.7 ....|D#5 2CEF ....
....|..|G#2 2F.A ....|G#2 UF.A ....|G#5 2FEA ....
 B-4|..|C-4 9F.F ....|G#2 UF.F ....|B-4 2CEF ....
 G#4|..|G#2 2A.F ....|--- .... ....|D#5 2FEA ....
 D#4|..|C-4 9F.F ....|G#2 UF.7 ....|D#5 2CEF ....
....|..|G#2 2F.A ....|G#2 UF.A ....|B-4 2FEA ....
 G#4|..|C-4 AF.F ....|E-2 UF.F ....|G#5 2CEF ....
 E-4|..|E-2 2A.F ....|--- .... ....|D#5 2FEA ....
 D#4|..|C-4 CF.F ....|G#2 UF.7 ....|D#5 2CEF ....
....|..|E-2 2F.A ....|E-2 UF.A ....|G#5 2FEA ....
 B-4|..|C-5 VF.F ....|D#2 UF.F ....|B-4 2CEF ....
 D#4|..|D#2 2A.F ....|--- .... ....|D#5 2FEA ....
 D#4|..|C-5 VF.F ....|E-2 UF.7 ....|D#5 2CEF ....
....|..|D#2 2F.A ....|D#2 UF.A ....|B-4 2FEA ....
 C#4|..|C-4 AF.F ....|C#2 UF.F ....|C#4 2CEF ....
 E-4|..|C#5 2F.F ....|--- .... ....|E-5 2CFF ....
 E-4|..|E-5 2C.F ....|D#2 UF.7 ....|B-4 2FE7 ....
 G#4|..|G#5 2C.F ....|C#2 UF.A ....|G#5 2CFF ....
 C#4|..|C#5 2C.F ....|C#2 UF.F ....|C#5 2CFF ....
 E-4|..|E-5 2C.F ....|--- .... ....|E-5 2CFF ....
....|..|C#5 2F.7 ....|C#2 UF.7 ....|C#4 2FE7 ....
 G#4|..|G#5 2C.F ....|C#2 UF.A ....|G#5 2CFF ....
 C#4|..|B-8 JF.F ....|C#2 UF.F ....|C#5 2CFF ....
 E-4|..|C#5 2F.F ....|--- .... ....|E-5 2CFF ....
 E-4|..|E-5 2C.F ....|C#2 UF.7 ....|C#5 2FF7 ....
 G#4|..|G#5 2C.F ....|C#2 UF.A ....|G#5 2CFF ....
 C#4|..|C#5 2C.F ....|C#2 UF.F ....|C#5 2CFF ....
 E-4|..|E-5 2C.F ....|--- .... ....|E-5 2CFF ....
 C#4|..|C#2 2A.F ....|C#2 UF.F ....|C#5 2FF7 ....
 G#4|..|G#5 2C.F ....|C#2 UF.A ....|G#5 2CFF ....
 C#4|..|C-4 AF.F ....|C#2 UF.F ....|C#5 2CFF ....
 E-4|..|C#5 2F.F ....|C#2 UF.A ....|E-5 2CFF ....
 E-4|..|E-5 2C.F ....|C#2 UF.F ....|C#5 2FF7 ....
 G#4|..|G#5 2C.F ....|C#2 UF.A ....|G#5 2CFF ....
 C#4|..|C#5 2C.F ....|C#2 UF.F ....|C#5 2CFF ....
 E-4|..|E-5 2C.F ....|C#2 UF.A ....|E-5 2CFF ....
 C#4|..|C#2 2A.F ....|C#2 UF.F ....|C#5 2FF7 ....
 G#4|..|G#5 2C.F ....|C#2 UF.A ....|G#5 2CFF ....
 C#4|..|C#5 2C.F ....|C#2 UF.F ....|C#5 2CFF ....
 E-4|..|E-5 2C.F ....|C#2 UF.A ....|E-5 2CFF ....
 C#4|..|C#2 2A.F ....|C#2 UF.F ....|C#5 2FF7 ....
 G#4|..|G#5 2C.F ....|C#2 UF.A ....|G#5 2CFF ....
 C#4|..|C#5 2C.F ....|C#2 UF.F ....|D#4 2FEF ....
 E-4|..|E-5 2C.F ....|C#2 UF.A ....|C#5 2FFF ....
 E-4|..|C#2 2F.F ....|C#2 UF.F ....|E-4 2CEF ....
 G#4|..|G#5 2C.F ....|C#2 UF.A ....|G#5 2CFF ....
 A-3|..|C-4 AF.F ....|F#2 UF.F ....|A-4 2CEF ....
 F#3|..|C#5 2F.F ....|C#2 UF.A ....|F#5 2CFF ....
 F#3|..|F#5 2C.F ....|C#2 UF.7 ....|D#4 2FE7 ....
 A-3|..|A-5 2C.F ....|F#2 UF.A ....|A-5 2CFF ....
 C#4|..|C#5 2C.F ....|F#2 UF.F ....|C#5 2CFF ....
 F#3|..|F#5 2C.F ....|--- .... ....|F#5 2CFF ....
....|..|C#5 2F.7 ....|F#2 UF.7 ....|A-4 2FE7 ....
 A-3|..|A-5 2C.F ....|F#2 UF.A ....|A-5 2CFF ....
 C#4|..|C-4 AF.F ....|F#2 UF.F ....|C#5 2CFF ....
 F#3|..|C#5 2F.F ....|--- .... ....|F#5 2CFF ....
 F#3|..|F#5 2C.F ....|F#2 UF.7 ....|C#5 2FF7 ....
 A-3|..|A-5 2C.F ....|F#2 UF.A ....|A-5 2CFF ....
 C#4|..|C#5 2C.F ....|F#2 UF.F ....|C#5 2CFF ....
 F#3|..|F#5 2C.F ....|--- .... ....|F#5 2CFF ....
 F#4|..|F#2 2A.F ....|F#2 UF.F ....|C#5 2FF7 ....
 A-3|..|A-5 2C.F ....|F#2 UF.A ....|A-5 2CFF ....

[Pattern52]
 C#4|..|C-4 AF.F ....|F#2 UF.F ....|C#5 2CFF ....
 F#3|..|C#5 2F.F ....|F#2 UF.A ....|F#5 2CFF ....
 F#3|..|F#5 2C.F ....|F#2 UF.F ....|C#5 2FF7 ....
 A-3|..|A-5 2C.F ....|F#2 UF.A ....|A-5 2CFF ....
 C#4|..|C#5 2C.F ....|F#2 UF.F ....|C#5 2CFF ....
 F#3|..|F#5 2C.F ....|F#2 UF.A ....|F#5 2CFF ....
 F#4|..|F#2 2A.F ....|F#2 UF.F ....|C#5 2FF7 ....
 A-3|..|A-5 2C.F ....|F#2 UF.A ....|A-5 2CFF ....
 C#4|..|C#5 2C.F ....|F#2 UF.F ....|G#4 2FEF ....
 F#3|..|F#5 2C.F ....|F#2 UF.A ....|C#5 2FFF ....
 F#3|..|F#3 2C.F ....|F#2 UF.F ....|F#5 2CFF ....
 A-3|..|A-5 2C.F ....|F#2 UF.A ....|A-5 2CFF ....
 C#4|..|C#5 2C.F ....|F#2 UF.F ....|C#5 2CFF ....
 F#3|..|F#5 2C.F ....|F#2 UF.A ....|F#5 2CFF ....
 F#4|..|F#2 2A.F ....|F#2 UF.F ....|G#4 2FE7 ....
 A-3|..|A-5 2C.F ....|F#2 UF.A ....|A-5 2CFF ....
 F#3|..|C-4 AF.F ....|B-2 UF.F ....|F#4 2CEF ....
 B-4|..|B-4 2C.F ....|F#2 UF.A ....|B-4 2CFF ....
 D#4|..|D#5 2C.F ....|F#2 UF.7 ....|D#5 2CFF ....
 F#3|..|F#5 2C.F ....|B-2 UF.A ....|F#5 2CFF ....
 B-4|..|B-4 2C.F ....|B-2 UF.F ....|B-4 2CFF ....
 D#4|..|D#5 2C.F ....|--- .... ....|D#5 2CFF ....
....|..|B-4 2F.7 ....|B-2 UF.7 ....|F#4 2FE7 ....
 F#3|..|F#5 2C.F ....|B-2 UF.A ....|F#5 2CFF ....
 B-4|..|B-8 JF.F ....|B-2 UF.F ....|B-4 2CFF ....
 D#4|..|B-4 2F.F ....|--- .... ....|D#5 2CFF ....
 D#4|..|D#5 2C.F ....|B-2 UF.7 ....|B-4 2FF7 ....
 F#3|..|F#5 2C.F ....|B-2 UF.A ....|F#5 2CFF ....
 B-4|..|B-4 2C.F ....|B-2 UF.F ....|B-4 2CFF ....
 D#4|..|D#5 2C.F ....|--- .... ....|D#5 2CFF ....
 B-4|..|B-2 2A.F ....|B-2 UF.F ....|B-4 2FF7 ....
 F#3|..|F#5 2C.F ....|B-2 UF.A ....|F#5 2CFF ....
 B-4|..|C-4 AF.F ....|B-2 UF.F ....|B-4 2CFF ....
 D#4|..|B-4 2F.F ....|B-2 UF.A ....|D#5 2CFF ....
 D#4|..|D#5 2C.F ....|B-2 UF.F ....|B-4 2FF7 ....
 F#3|..|F#5 2C.F ....|B-2 UF.A ....|F#5 2CFF ....
 B-4|..|B-4 2C.F ....|B-2 UF.F ....|B-4 2CFF ....
 D#4|..|D#5 2C.F ....|B-2 UF.A ....|D#5 2CFF ....
 B-4|..|B-2 2A.F ....|B-2 UF.F ....|B-4 2FF7 ....
 F#3|..|F#5 2C.F ....|B-2 UF.A ....|F#5 2CFF ....
 B-4|..|B-4 2C.F ....|B-2 UF.F ....|B-4 2CFF ....
 D#4|..|D#5 2C.F ....|B-2 UF.A ....|D#5 2CFF ....
 B-4|..|B-2 2A.F ....|B-2 UF.F ....|B-4 2FF7 ....
 F#3|..|F#5 2C.F ....|B-2 UF.A ....|F#5 2CFF ....
 B-4|..|B-4 2C.F ....|B-2 UF.F ....|E-4 2FEF ....
 D#4|..|D#5 2C.F ....|B-2 UF.A ....|B-4 2FFF ....
 F#3|..|B-2 2F.F ....|B-2 UF.F ....|F#4 2CEF ....
 F#3|..|F#5 2C.F ....|B-2 UF.A ....|F#5 2CFF ....
 G#4|..|C-4 AF.F ....|G#2 UF.F ....|G#4 2CEF ....
 D#4|..|B-4 2F.F ....|B-2 UF.A ....|D#5 2CFF ....
 D#4|..|D#5 2C.F ....|B-2 UF.7 ....|E-4 2FE7 ....
 G#4|..|G#5 2C.F ....|G#2 UF.A ....|G#5 2CFF ....
 B-4|..|B-4 2C.F ....|G#2 UF.F ....|B-4 2CFF ....
 D#4|..|D#5 2C.F ....|--- .... ....|D#5 2CFF ....
....|..|B-4 2F.7 ....|G#2 UF.7 ....|G#4 2FE7 ....
 G#4|..|G#5 2C.F ....|G#2 UF.A ....|G#5 2CFF ....
 F#3|..|C-4 CF.F ....|G#2 UF.F ....|F#4 2CEF ....
 B-4|..|B-4 2C.F ....|--- .... ....|B-4 2CFF ....
 D#4|..|D#5 2C.F ....|G#2 UF.7 ....|D#5 2CFF ....
 G#4|..|G#5 2C.F ....|G#2 UF.A ....|G#5 2CFF ....
 B-4|..|B-4 2C.F ....|G#2 UF.F ....|B-4 2CFF ....
 D#4|..|D#5 2C.F ....|--- .... ....|D#5 2CFF ....
....|..|B-4 2F.7 ....|G#2 UF.7 ....|F#4 2FE7 ....
 G#4|..|G#5 2C.F ....|G#2 UF.A ....|G#5 2CFF ....
 E-4|..|C-4 AF.F ....|G#2 UF.F ....|E-4 2CEF ....
 B-4|..|B-4 2C.F ....|--- .... ....|B-4 2CFF ....
 D#4|..|D#5 2C.F ....|G#2 UF.7 ....|D#5 2CFF ....
 G#4|..|G#5 2C.F ....|G#2 UF.A ....|G#5 2CFF ....
 B-4|..|B-4 2C.F ....|G#2 UF.F ....|B-4 2CFF ....
 D#4|..|D#5 2C.F ....|--- .... ....|D#5 2CFF ....
....|..|B-4 2F.7 ....|G#2 UF.7 ....|E-4 2FE7 ....
 G#4|..|G#5 2C.F ....|G#2 UF.A ....|G#5 2CFF ....
 D#4|..|C-4 AF.F ....|E-2 UF.F ....|D#4 2CEF ....
 B-4|..|B-4 2C.F ....|--- .... ....|B-4 2CFF ....
 D#4|..|D#5 2C.F ....|G#2 UF.7 ....|D#5 2CFF ....
 G#4|..|G#5 2C.F ....|E-2 UF.A ....|G#5 2CFF ....
 B-4|..|C-5 VF.F ....|D#2 UF.F ....|B-4 2CFF ....
 D#4|..|B-4 2F.F ....|--- .... ....|D#5 2CFF ....
 D#4|..|D#5 2C.F ....|E-2 UF.7 ....|D#4 2FE7 ....
 G#4|..|G#5 2C.F ....|D#2 UF.A ....|G#5 2CFF ....
 C#4|..|C-4 AF.F ....|C#2 UF.F ....|C#4 2CEF ....
 C#4|..|C#5 2C.F ....|--- .... ....|C#5 2CFF ....
 E-4|..|E-5 2C.F ....|D#2 UF.7 ....|E-5 2CFF ....
 G#4|..|G#5 2C.F ....|C#2 UF.A ....|G#5 2CFF ....
 C#4|..|C#5 2C.F ....|C#2 UF.F ....|C#5 2CFF ....
 E-4|..|E-5 2C.F ....|--- .... ....|E-5 2CFF ....
....|..|C#5 2F.7 ....|C#2 UF.7 ....|C#4 2FE7 ....
 G#4|..|G#5 2C.F ....|C#2 UF.A ....|G#5 2CFF ....
 C#4|..|B-8 JF.F ....|C#2 UF.F ....|C#5 2CFF ....
 E-4|..|C#5 2F.F ....|--- .... ....|E-5 2CFF ....
 E-4|..|E-5 2C.F ....|C#2 UF.7 ....|C#5 2FF7 ....
 G#4|..|G#5 2C.F ....|C#2 UF.A ....|G#5 2CFF ....
 C#4|..|C#5 2C.F ....|C#2 UF.F ....|C#5 2CFF ....
 E-4|..|E-5 2C.F ....|--- .... ....|E-5 2CFF ....
 C#4|..|C#2 2A.F ....|C#2 UF.F ....|C#5 2FF7 ....
 G#4|..|G#5 2C.F ....|C#2 UF.A ....|G#5 2CFF ....
 C#4|..|C-4 AF.F ....|C#2 UF.F ....|C#5 2CFF ....
 E-4|..|C#5 2F.F ....|C#2 UF.A ....|E-5 2CFF ....
 E-4|..|E-5 2C.F ....|C#2 UF.F ....|C#5 2FF7 ....
 G#4|..|G#5 2C.F ....|C#2 UF.A ....|G#5 2CFF ....
 C#4|..|C#5 2C.F ....|C#2 UF.F ....|C#5 2CFF ....
 E-4|..|E-5 2C.F ....|C#2 UF.A ....|E-5 2CFF ....
 C#4|..|C#2 2A.F ....|C#2 UF.F ....|C#5 2FF7 ....
 G#4|..|G#5 2C.F ....|C#2 UF.A ....|G#5 2CFF ....
 C#4|..|C#5 2C.F ....|C#2 UF.F ....|C#5 2CFF ....
 E-4|..|E-5 2C.F ....|C#2 UF.A ....|E-5 2CFF ....
 C#4|..|C#2 2A.F ....|C#2 UF.F ....|C#5 2FF7 ....
 G#4|..|G#5 2C.F ....|C#2 UF.A ....|G#5 2CFF ....
 C#4|..|C#5 2C.F ....|C#2 UF.F ....|D#4 2FEF ....
 E-4|..|E-5 2C.F ....|C#2 UF.A ....|C#5 2FFF ....
 E-4|..|C#2 2F.F ....|C#2 UF.F ....|E-4 2CEF ....
 G#4|..|G#5 2C.F ....|C#2 UF.A ....|G#5 2CFF ....
 A-3|..|C-4 AF.F ....|F#2 UF.F ....|A-4 2CEF ....
 F#3|..|C#5 2F.F ....|C#2 UF.A ....|F#5 2CFF ....
 F#3|..|F#5 2C.F ....|C#2 UF.7 ....|D#4 2FE7 ....
 A-3|..|A-5 2C.F ....|F#2 UF.A ....|A-5 2CFF ....
 C#4|..|C#5 2C.F ....|F#2 UF.F ....|C#5 2CFF ....
 F#3|..|F#5 2C.F ....|--- .... ....|F#5 2CFF ....
....|..|C#5 2F.7 ....|F#2 UF.7 ....|A-4 2FE7 ....
 A-3|..|A-5 2C.F ....|F#2 UF.A ....|A-5 2CFF ....
 C#4|..|C-4 AF.F ....|F#2 UF.F ....|C#5 2CFF ....
 F#3|..|C#5 2F.F ....|--- .... ....|F#5 2CFF ....
 F#3|..|F#5 2C.F ....|F#2 UF.7 ....|C#5 2FF7 ....
 A-3|..|A-5 2C.F ....|F#2 UF.A ....|A-5 2CFF ....
 C#4|..|C#5 2C.F ....|F#2 UF.F ....|C#5 2CFF ....
 F#3|..|F#5 2C.F ....|--- .... ....|F#5 2CFF ....
 F#4|..|F#2 2A.F ....|F#2 UF.F ....|C#5 2FF7 ....
 A-3|..|A-5 2C.F ....|F#2 UF.A ....|A-5 2CFF ....

[Pattern53]
 C#4|..|C-4 AF.F ....|F#2 UF.F ....|C#5 2CFF ....
 F#3|..|C#5 2F.F ....|F#2 UF.A ....|F#5 2CFF ....
 F#3|..|F#5 2C.F ....|F#2 UF.F ....|C#5 2FF7 ....
 A-3|..|A-5 2C.F ....|F#2 UF.A ....|A-5 2CFF ....
 C#4|..|C#5 2C.F ....|F#2 UF.F ....|C#5 2CFF ....
 F#3|..|F#5 2C.F ....|F#2 UF.A ....|F#5 2CFF ....
 F#4|..|F#2 2A.F ....|F#2 UF.F ....|C#5 2FF7 ....
 A-3|..|A-5 2C.F ....|F#2 UF.A ....|A-5 2CFF ....
 C#4|..|C#5 2C.F ....|F#2 UF.F ....|C#5 2CEF ....
 F#3|..|F#5 2C.F ....|F#2 UF.A ....|C#5 2FFF ....
 F#3|..|F#3 2C.F ....|F#2 UF.F ....|F#5 2CFF ....
 A-3|..|A-5 2C.F ....|F#2 UF.A ....|A-5 2CFF ....
 C#4|..|C#5 2C.F ....|F#2 UF.F ....|C#5 2CFF ....
 F#3|..|F#5 2C.F ....|F#2 UF.A ....|F#5 2CFF ....
 F#4|..|F#2 2A.F ....|F#2 UF.F ....|C#5 2FE7 ....
 A-3|..|A-5 2C.F ....|F#2 UF.A ....|A-5 2CFF ....
 B-4|..|C-4 AF.F ....|B-2 UF.F ....|B-4 2CEF ....
 B-4|..|B-4 2C.F ....|F#2 UF.A ....|B-4 2CFF ....
 D#4|..|D#5 2C.F ....|F#2 UF.7 ....|D#5 2CFF ....
 F#3|..|F#5 2C.F ....|B-2 UF.A ....|F#5 2CFF ....
 B-4|..|B-4 2C.F ....|B-2 UF.F ....|B-4 2CFF ....
 D#4|..|D#5 2C.F ....|--- .... ....|D#5 2CFF ....
....|..|B-4 2F.7 ....|B-2 UF.7 ....|B-4 2FE7 ....
 F#3|..|F#5 2C.F ....|B-2 UF.A ....|F#5 2CFF ....
 B-4|..|B-8 JF.F ....|B-2 UF.F ....|B-4 2CFF ....
 D#4|..|B-4 2F.F ....|--- .... ....|D#5 2CFF ....
 D#4|..|D#5 2C.F ....|B-2 UF.7 ....|B-4 2FF7 ....
 F#3|..|F#5 2C.F ....|B-2 UF.A ....|F#5 2CFF ....
 B-4|..|B-4 2C.F ....|B-2 UF.F ....|B-4 2CFF ....
 D#4|..|D#5 2C.F ....|--- .... ....|D#5 2CFF ....
 B-4|..|B-2 2A.F ....|B-2 UF.F ....|B-4 2FF7 ....
 F#3|..|F#5 2C.F ....|B-2 UF.A ....|F#5 2CFF ....
 B-4|..|C-4 AF.F ....|B-2 UF.F ....|B-4 2CFF ....
 D#4|..|B-4 2F.F ....|B-2 UF.A ....|D#5 2CFF ....
 D#4|..|D#5 2C.F ....|B-2 UF.F ....|B-4 2FF7 ....
 F#3|..|F#5 2C.F ....|B-2 UF.A ....|F#5 2CFF ....
 B-4|..|B-4 2C.F ....|B-2 UF.F ....|B-4 2CFF ....
 D#4|..|D#5 2C.F ....|B-2 UF.A ....|D#5 2CFF ....
 B-4|..|B-2 2A.F ....|B-2 UF.F ....|B-4 2FF7 ....
 F#3|..|F#5 2C.F ....|B-2 UF.A ....|F#5 2CFF ....
 B-4|..|B-4 2C.F ....|B-2 UF.F ....|B-4 2CFF ....
 D#4|..|D#5 2C.F ....|B-2 UF.A ....|D#5 2CFF ....
 B-4|..|B-2 2A.F ....|B-2 UF.F ....|B-4 2FF7 ....
 F#3|..|F#5 2C.F ....|B-2 UF.A ....|F#5 2CFF ....
 B-4|..|B-4 2C.F ....|B-2 UF.F ....|B-4 2CFF ....
 D#4|..|D#5 2C.F ....|B-2 UF.A ....|D#5 2CFF ....
 B-4|..|B-2 2A.F ....|B-2 UF.F ....|B-4 2FF7 ....
 F#3|..|F#5 2C.F ....|B-2 UF.A ....|F#5 2CFF ....
 B-4|..|C-4 AF.F ....|G#2 UF.F ....|B-4 2CEF ....
 B-4|..|B-4 2C.F ....|B-2 UF.A ....|B-4 2CFF ....
 D#4|..|D#5 2C.F ....|B-2 UF.7 ....|D#5 2CFF ....
 G#4|..|G#5 2C.F ....|G#2 UF.A ....|G#5 2CFF ....
 A-3|..|C-5 VF.F ....|G#2 UF.F ....|A-4 2CEF ....
 D#4|..|B-4 2F.F ....|--- .... ....|D#5 2CFF ....
....|..|C-5 VF.F ....|G#2 UF.7 ....|B-4 2FE7 ....
 G#4|..|D#5 2F.F ....|G#2 UF.A ....|G#5 2CFF ....
 G#4|..|C-4 CF.F ....|G#2 UF.F ....|G#4 2CEF ....
 D#4|..|D#5 2C.F ....|--- .... ....|D#5 2CFF ....
 G#4|..|G#5 2C.F ....|G#2 UF.7 ....|A-4 2FE7 ....
 G#4|..|B-4 2F.F ....|G#2 UF.A ....|G#5 2CFF ....
 A-3|..|C-4 CF.F ....|G#2 UF.F ....|A-4 2CEF ....
 D#4|..|D#5 2C.F ....|--- .... ....|D#5 2CFF ....
....|..|C-4 CF.F ....|G#2 UF.7 ....|G#4 2FE7 ....
 G#4|..|B-4 2F.F ....|G#2 UF.A ....|G#5 2CFF ....
 G#4|..|C-4 AF.F ....|G#2 UF.F ....|G#4 2CEF ....
 D#4|..|D#5 2C.F ....|--- .... ....|D#5 2CFF ....
 G#4|..|G#5 2C.F ....|G#2 UF.7 ....|A-4 2FE7 ....
 G#4|..|B-4 2F.F ....|G#2 UF.A ....|G#5 2CFF ....
 F#3|..|C-4 9F.F ....|G#2 UF.F ....|F#4 2CEF ....
 D#4|..|D#5 2C.F ....|--- .... ....|D#5 2CFF ....
....|..|C-4 9F.F ....|G#2 UF.7 ....|G#4 2FE7 ....
 G#4|..|B-4 2F.F ....|G#2 UF.A ....|G#5 2CFF ....
 G#4|..|C-4 AF.F ....|E-2 UF.F ....|G#4 2CEF ....
 D#4|..|D#5 2C.F ....|--- .... ....|D#5 2CFF ....
....|..|C-4 CF.F ....|G#2 UF.7 ....|F#4 2FE7 ....
 G#4|..|B-4 2F.F ....|E-2 UF.A ....|G#5 2CFF ....
 F#3|..|C-5 VF.F ....|D#2 UF.F ....|F#4 2CEF ....
 D#4|..|D#5 2C.F ....|--- .... ....|D#5 2CFF ....
....|..|C-5 VF.F ....|E-2 UF.7 ....|G#4 2FE7 ....
 G#4|..|B-4 2F.F ....|D#2 UF.A ....|G#5 2CFF ....
 G#4|..|C-4 AF.F ....|C#4 2F.F ....|G#5 2CEF ....
....|..|B-4 2F.7 ....|C#2 UF.F ....|B-4 2FF7 ....
 G#4|..|G#5 2C.F ....|D#2 UF.7 ....|E-5 2FEF ....
 C#4|..|C#2 2A.F ....|C#4 2F.A ....|G#5 2FEA ....
 C#4|..|C-4 AF.F ....|G#3 2F.F ....|C#5 2CEF ....
....|..|B-4 2F.7 ....|C#2 UF.A ....|E-5 2FEA ....
 E-4|..|D#5 2F.7 ....|C#4 2F.7 ....|E-5 2CEF ....
 C#4|..|C#2 2A.F ....|G#3 2F.A ....|C#5 2FEA ....
 G#4|..|C-4 AF.F ....|E-4 2F.F ....|G#5 2CEF ....
....|..|C#2 2F.7 ....|C#2 UF.7 ....|E-5 2FEA ....
 E-4|..|C#2 2F.A ....|G#3 2F.7 ....|E-5 2CEF ....
 C#4|..|C#2 2A.F ....|E-4 2F.A ....|G#5 2FEA ....
 C#4|..|C-4 AF.F ....|D#4 2F.F ....|C#5 2CEF ....
....|..|C#2 2F.7 ....|C#2 UF.7 ....|E-5 2FEA ....
 E-4|..|C#2 2F.F ....|C#2 UF.F ....|E-5 2CEF ....
 C#4|..|C#2 2A.F ....|D#4 2F.A ....|C#5 2FEA ....
 G#4|..|C-4 AF.F ....|C#2 UF.F ....|G#5 2CEF ....
....|..|C#2 2F.A ....|C#2 UF.A ....|E-5 2FEA ....
 E-4|..|D#4 9F.F ....|C#2 UF.F ....|E-5 2CEF ....
 C#4|..|C#2 2A.F ....|C#2 UF.A ....|G#5 2FEA ....
 C#4|..|C-4 AF.F ....|C#2 UF.F ....|C#5 2CEF ....
 C#4|..|C#2 2A.F ....|C#2 UF.A ....|E-5 2FEA ....
 E-4|..|D#4 9F.F ....|C#2 UF.F ....|E-5 2CEF ....
 C#4|..|C#2 2A.F ....|C#2 UF.A ....|C#5 2FEA ....
 G#4|..|C-4 AF.F ....|C#2 UF.F ....|G#5 2CEF ....
 C#4|..|C#2 2A.F ....|C#2 UF.A ....|E-5 2FEA ....
 E-4|..|C-4 9F.F ....|C#2 UF.F ....|E-5 2CEF ....
 C#4|..|C#2 2A.F ....|C#2 UF.A ....|G#5 2FEA ....
 C#4|..|C-4 AF.F ....|C#2 UF.F ....|C#5 2CEF ....
 C#4|..|C#2 2A.F ....|C#2 UF.A ....|E-5 2FEA ....
 E-4|..|C-4 9F.F ....|C#2 UF.F ....|E-5 2CEF ....
 C#4|..|C#2 2A.F ....|C#2 UF.A ....|C#5 2FEA ....
 A-3|..|C-4 AF.F ....|C#4 2F.F ....|A-5 2CEF ....
 C#4|..|C#2 2A.F ....|F#2 UF.F ....|E-5 2FEA ....
 F#3|..|C#2 2F.A ....|C#2 UF.A ....|F#5 2CEF ....
 F#4|..|F#2 2A.F ....|C#4 2F.A ....|A-5 2FEA ....
 C#4|..|C-4 AF.F ....|G#3 2F.F ....|C#5 2CEF ....
....|..|C#2 2F.7 ....|C#2 UF.7 ....|F#5 2FEA ....
 F#3|..|F#2 2F.A ....|C#4 2F.7 ....|F#5 2CEF ....
 F#4|..|F#2 2A.F ....|G#3 2F.A ....|C#5 2FEA ....
 A-3|..|C-4 AF.F ....|F#4 2F.F ....|A-5 2CEF ....
....|..|F#2 2F.7 ....|F#2 UF.7 ....|F#5 2FEA ....
 F#3|..|F#2 2F.A ....|G#3 2F.7 ....|F#5 2CEF ....
 F#4|..|F#2 2A.F ....|F#4 2F.A ....|A-5 2FEA ....
 C#4|..|C-4 AF.F ....|E-4 2F.F ....|C#5 2CEF ....
....|..|F#2 2F.7 ....|F#2 UF.7 ....|F#5 2FEA ....
 F#3|..|F#3 2C.F ....|F#2 UF.F ....|F#5 2CEF ....
 F#4|..|F#2 2A.F ....|E-4 2F.A ....|C#5 2FEA ....

[Pattern54]
 A-3|..|C-4 AF.F ....|F#2 UF.F ....|A-5 2CEF ....
....|..|F#2 2F.A ....|F#2 UF.A ....|F#5 2FEA ....
 F#3|..|D#4 9F.F ....|F#2 UF.F ....|F#5 2CEF ....
 F#4|..|F#2 2A.F ....|F#2 UF.A ....|A-5 2FEA ....
 C#4|..|C-4 AF.F ....|F#2 UF.F ....|C#5 2CEF ....
 F#4|..|F#2 2A.F ....|F#2 UF.A ....|F#5 2FEA ....
 F#3|..|D#4 9F.F ....|F#2 UF.F ....|F#5 2CEF ....
 F#4|..|F#2 2A.F ....|F#2 UF.A ....|C#5 2FEA ....
 A-3|..|C-4 AF.F ....|F#2 UF.F ....|A-5 2CEF ....
 F#4|..|F#2 2A.F ....|F#2 UF.A ....|F#5 2FEA ....
 F#3|..|C-4 9F.F ....|F#2 UF.F ....|F#5 2CEF ....
 F#4|..|F#2 2A.F ....|F#2 UF.A ....|A-5 2FEA ....
 C#4|..|C-4 AF.F ....|F#2 UF.F ....|C#5 2CEF ....
 F#4|..|F#2 2A.F ....|F#2 UF.A ....|F#5 2FEA ....
 F#3|..|C-4 9F.F ....|F#2 UF.F ....|F#5 2CEF ....
 F#4|..|F#2 2A.F ....|F#2 UF.A ....|C#5 2FEA ....
 F#3|..|C-4 AF.F ....|F#5 2C.F ....|F#5 2CEF ....
 F#4|..|F#2 2A.F ....|B-2 UF.F ....|F#5 2FEA ....
 D#4|..|F#2 2F.A ....|F#2 UF.A ....|D#5 2CEF ....
 B-4|..|B-2 2A.F ....|F#4 2F.A ....|F#5 2FEA ....
 B-4|..|C-4 AF.F ....|D#4 2F.F ....|B-4 2CEF ....
....|..|F#2 2F.7 ....|F#2 UF.7 ....|D#5 2FEA ....
 D#4|..|B-2 2F.A ....|F#4 2F.7 ....|D#5 2CEF ....
 B-4|..|B-2 2A.F ....|D#4 2F.A ....|B-4 2FEA ....
 F#3|..|C-4 AF.F ....|B-3 2F.F ....|F#5 2CEF ....
....|..|B-2 2F.7 ....|B-2 UF.7 ....|D#5 2FEA ....
 D#4|..|B-2 2F.A ....|D#4 2F.7 ....|D#5 2CEF ....
 B-4|..|B-2 2A.F ....|B-3 2F.A ....|F#5 2FEA ....
 B-4|..|C-4 AF.F ....|F#3 2F.F ....|B-4 2CEF ....
....|..|B-2 2F.7 ....|B-2 UF.7 ....|D#5 2FEA ....
 D#4|..|B-2 2F.F ....|B-2 UF.F ....|D#5 2CEF ....
 B-4|..|B-2 2A.F ....|F#3 2F.A ....|B-4 2FEA ....
 F#3|..|C-4 AF.F ....|B-2 UF.F ....|F#5 2CEF ....
....|..|B-2 2F.A ....|B-2 UF.A ....|D#5 2FEA ....
 D#4|..|D#4 9F.F ....|B-2 UF.F ....|D#5 2CEF ....
 B-4|..|B-2 2A.F ....|B-2 UF.A ....|F#5 2FEA ....
 B-4|..|C-4 AF.F ....|B-2 UF.F ....|B-4 2CEF ....
 B-4|..|B-2 2A.F ....|B-2 UF.A ....|D#5 2FEA ....
 D#4|..|D#4 9F.F ....|B-2 UF.F ....|D#5 2CEF ....
 B-4|..|B-2 2A.F ....|B-2 UF.A ....|B-4 2FEA ....
 F#3|..|C-4 AF.F ....|B-2 UF.F ....|F#5 2CEF ....
 B-4|..|B-2 2A.F ....|B-2 UF.A ....|D#5 2FEA ....
 D#4|..|C-4 9F.F ....|B-2 UF.F ....|D#5 2CEF ....
 B-4|..|B-2 2A.F ....|B-2 UF.A ....|F#5 2FEA ....
 B-4|..|C-4 AF.F ....|G#3 2F.F ....|B-4 2CEF ....
 B-4|..|B-2 2A.F ....|B-2 UF.F ....|D#5 2FEA ....
 D#4|..|C-4 9F.F ....|A-3 2F.F ....|D#5 2CEF ....
 B-4|..|B-2 2A.F ....|G#3 2F.A ....|B-4 2FEA ....
 G#4|..|C-4 AF.F ....|B-3 2F.F ....|G#5 2CEF ....
 B-4|..|B-2 2A.F ....|A-3 2F.A ....|D#5 2FEA ....
 D#4|..|B-2 2F.A ....|G#3 2F.7 ....|D#5 2CEF ....
 G#4|..|G#2 2A.F ....|B-3 2F.A ....|G#5 2FEA ....
 B-4|..|C-4 AF.F ....|G#2 UF.F ....|B-4 2CEF ....
....|..|B-2 2F.7 ....|B-2 UF.7 ....|D#5 2FEA ....
 D#4|..|G#2 2F.A ....|B-3 2F.7 ....|D#5 2CEF ....
 G#4|..|G#2 2A.F ....|G#2 UF.A ....|B-4 2FEA ....
 G#4|..|C-4 AF.F ....|A-3 2F.F ....|G#5 2CEF ....
....|..|G#2 2F.7 ....|G#2 UF.F ....|D#5 2FEA ....
 D#4|..|G#2 2F.A ....|G#2 UF.7 ....|D#5 2CEF ....
 G#4|..|G#2 2A.F ....|A-3 2F.A ....|G#5 2FEA ....
 B-4|..|C-4 AF.F ....|G#3 2F.F ....|B-4 2CEF ....
....|..|G#2 2F.7 ....|G#2 UF.A ....|D#5 2FEA ....
 D#4|..|G#2 2F.A ....|A-3 2F.7 ....|D#5 2CEF ....
 G#4|..|G#2 2A.F ....|G#3 2F.A ....|B-4 2FEA ....
 G#4|..|C-4 AF.F ....|A-3 2F.F ....|G#5 2CEF ....
....|..|G#2 2F.7 ....|G#2 UF.7 ....|D#5 2FEA ....
 D#4|..|D#4 9F.F ....|G#3 2F.7 ....|D#5 2CEF ....
 G#4|..|G#2 2A.F ....|A-3 2F.A ....|G#5 2FEA ....
 B-4|..|C-4 AF.F ....|G#3 2F.F ....|B-4 2CEF ....
....|..|G#2 2F.7 ....|G#2 UF.7 ....|D#5 2FEA ....
 D#4|..|D#4 9F.F ....|A-3 2F.7 ....|D#5 2CEF ....
 G#4|..|G#2 2A.F ....|G#3 2F.A ....|B-4 2FEA ....
 G#4|..|C-4 AF.F ....|E-3 2F.F ....|G#5 2CEF ....
....|..|G#2 2F.7 ....|G#2 UF.7 ....|D#5 2FEA ....
 D#4|..|C-4 9F.F ....|G#3 2F.7 ....|D#5 2CEF ....
 E-4|..|E-2 2A.F ....|E-3 2F.A ....|G#5 2FEA ....
 B-4|..|C-4 AF.F ....|D#3 2F.F ....|B-4 2CEF ....
....|..|G#2 2F.7 ....|G#2 UF.7 ....|D#5 2FEA ....
 D#4|..|C-4 9F.F ....|E-3 2F.7 ....|D#5 2CEF ....
 D#4|..|D#2 2A.F ....|D#3 2F.A ....|B-4 2FEA ....
 G#4|..|C-4 AF.F ....|C#4 2F.F ....|G#5 2CEF ....
....|..|E-2 2F.7 ....|E-2 UF.7 ....|D#5 2FEA ....
 E-4|..|D#2 2F.A ....|D#3 2F.7 ....|E-5 2CEF ....
 C#4|..|C#2 2A.F ....|C#4 2F.A ....|G#5 2FEA ....
 C#4|..|C-4 AF.F ....|G#3 2F.F ....|C#5 2CEF ....
....|..|D#2 2F.7 ....|D#2 UF.7 ....|E-5 2FEA ....
 E-4|..|C#2 2F.A ....|C#4 2F.7 ....|E-5 2CEF ....
 C#4|..|C#2 2A.F ....|G#3 2F.A ....|C#5 2FEA ....
 G#4|..|C-4 AF.F ....|E-4 2F.F ....|G#5 2CEF ....
....|..|C#2 2F.7 ....|C#2 UF.7 ....|E-5 2FEA ....
 E-4|..|C#2 2F.A ....|G#3 2F.7 ....|E-5 2CEF ....
 C#4|..|C#2 2A.F ....|E-4 2F.A ....|G#5 2FEA ....
 C#4|..|C-4 AF.F ....|D#4 2F.F ....|C#5 2CEF ....
....|..|C#2 2F.7 ....|C#2 UF.7 ....|E-5 2FEA ....
 E-4|..|C#2 2F.F ....|C#2 UF.F ....|E-5 2CEF ....
 C#4|..|C#2 2A.F ....|D#4 2F.A ....|C#5 2FEA ....
 G#4|..|C-4 AF.F ....|C#2 UF.F ....|G#5 2CEF ....
....|..|C#2 2F.A ....|C#2 UF.A ....|E-5 2FEA ....
 E-4|..|D#4 9F.F ....|C#2 UF.F ....|E-5 2CEF ....
 C#4|..|C#2 2A.F ....|C#2 UF.A ....|G#5 2FEA ....
 C#4|..|C-4 AF.F ....|C#2 UF.F ....|C#5 2CEF ....
 C#4|..|C#2 2A.F ....|C#2 UF.A ....|E-5 2FEA ....
 E-4|..|D#4 9F.F ....|C#2 UF.F ....|E-5 2CEF ....
 C#4|..|C#2 2A.F ....|C#2 UF.A ....|C#5 2FEA ....
 G#4|..|C-4 AF.F ....|C#2 UF.F ....|G#5 2CEF ....
 C#4|..|C#2 2A.F ....|C#2 UF.A ....|E-5 2FEA ....
 E-4|..|C-4 9F.F ....|C#2 UF.F ....|E-5 2CEF ....
 C#4|..|C#2 2A.F ....|C#2 UF.A ....|G#5 2FEA ....
 C#4|..|C-4 AF.F ....|C#2 UF.F ....|C#5 2CEF ....
 C#4|..|C#2 2A.F ....|C#2 UF.A ....|E-5 2FEA ....
 E-4|..|C-4 9F.F ....|C#2 UF.F ....|E-5 2CEF ....
 C#4|..|C#2 2A.F ....|C#2 UF.A ....|C#5 2FEA ....
 A-3|..|C-4 AF.F ....|C#4 2F.F ....|A-5 2CEF ....
 C#4|..|C#2 2A.F ....|F#2 UF.F ....|E-5 2FEA ....
 F#3|..|C#2 2F.A ....|C#2 UF.A ....|F#5 2CEF ....
 F#4|..|F#2 2A.F ....|C#4 2F.A ....|A-5 2FEA ....
 C#4|..|C-4 AF.F ....|G#3 2F.F ....|C#5 2CEF ....
....|..|C#2 2F.7 ....|C#2 UF.7 ....|F#5 2FEA ....
 F#3|..|F#2 2F.A ....|C#4 2F.7 ....|F#5 2CEF ....
 F#4|..|F#2 2A.F ....|G#3 2F.A ....|C#5 2FEA ....
 A-3|..|C-4 AF.F ....|F#4 2F.F ....|A-5 2CEF ....
....|..|F#2 2F.7 ....|F#2 UF.7 ....|F#5 2FEA ....
 F#3|..|F#2 2F.A ....|G#3 2F.7 ....|F#5 2CEF ....
 F#4|..|F#2 2A.F ....|F#4 2F.A ....|A-5 2FEA ....
 C#4|..|C-4 AF.F ....|E-4 2F.F ....|C#5 2CEF ....
....|..|F#2 2F.7 ....|F#2 UF.7 ....|F#5 2FEA ....
 F#3|..|F#3 2C.F ....|F#2 UF.F ....|F#5 2CEF ....
 F#4|..|F#2 2A.F ....|E-4 2F.A ....|C#5 2FEA ....

[Pattern55]
 A-3|..|C-4 AF.F ....|F#2 UF.F ....|A-5 2CEF ....
....|..|F#2 2F.A ....|F#2 UF.A ....|F#5 2FEA ....
 F#3|..|D#4 9F.F ....|F#2 UF.F ....|F#5 2CEF ....
 F#4|..|F#2 2A.F ....|F#2 UF.A ....|A-5 2FEA ....
 C#4|..|C-4 AF.F ....|F#2 UF.F ....|C#5 2CEF ....
 F#4|..|F#2 2A.F ....|F#2 UF.A ....|F#5 2FEA ....
 F#3|..|D#4 9F.F ....|F#2 UF.F ....|F#5 2CEF ....
 F#4|..|F#2 2A.F ....|F#2 UF.A ....|C#5 2FEA ....
 A-3|..|C-4 AF.F ....|F#2 UF.F ....|A-5 2CEF ....
 F#4|..|F#2 2A.F ....|F#2 UF.A ....|F#5 2FEA ....
 F#3|..|C-4 9F.F ....|F#2 UF.F ....|F#5 2CEF ....
 F#4|..|F#2 2A.F ....|F#2 UF.A ....|A-5 2FEA ....
 C#4|..|C-4 AF.F ....|F#2 UF.F ....|C#5 2CEF ....
 F#4|..|F#2 2A.F ....|F#2 UF.A ....|F#5 2FEA ....
 F#3|..|C-4 9F.F ....|F#2 UF.F ....|F#5 2CEF ....
 F#4|..|F#2 2A.F ....|F#2 UF.A ....|C#5 2FEA ....
 F#3|..|C-4 AF.F ....|F#5 2C.F ....|F#5 2CEF ....
 F#4|..|F#2 2A.F ....|B-2 UF.F ....|F#5 2FEA ....
 D#4|..|F#2 2F.A ....|F#2 UF.A ....|D#5 2CEF ....
 B-4|..|B-2 2A.F ....|F#4 2F.A ....|F#5 2FEA ....
 B-4|..|C-4 AF.F ....|D#4 2F.F ....|B-4 2CEF ....
....|..|F#2 2F.7 ....|F#2 UF.7 ....|D#5 2FEA ....
 D#4|..|B-2 2F.A ....|F#4 2F.7 ....|D#5 2CEF ....
 B-4|..|B-2 2A.F ....|D#4 2F.A ....|B-4 2FEA ....
 F#3|..|C-4 AF.F ....|B-3 2F.F ....|F#5 2CEF ....
....|..|B-2 2F.7 ....|B-2 UF.7 ....|D#5 2FEA ....
 D#4|..|B-2 2F.A ....|D#4 2F.7 ....|D#5 2CEF ....
 B-4|..|B-2 2A.F ....|B-3 2F.A ....|F#5 2FEA ....
 B-4|..|C-4 AF.F ....|F#3 2F.F ....|B-4 2CEF ....
....|..|B-2 2F.7 ....|B-2 UF.7 ....|D#5 2FEA ....
 D#4|..|B-2 2F.F ....|B-2 UF.F ....|D#5 2CEF ....
 B-4|..|B-2 2A.F ....|F#3 2F.A ....|B-4 2FEA ....
 F#3|..|C-4 AF.F ....|B-2 UF.F ....|F#5 2CEF ....
....|..|B-2 2F.A ....|B-2 UF.A ....|D#5 2FEA ....
 D#4|..|D#4 9F.F ....|B-2 UF.F ....|D#5 2CEF ....
 B-4|..|B-2 2A.F ....|B-2 UF.A ....|F#5 2FEA ....
 B-4|..|C-4 AF.F ....|B-2 UF.F ....|B-4 2CEF ....
 B-4|..|B-2 2A.F ....|B-2 UF.A ....|D#5 2FEA ....
 D#4|..|D#4 9F.F ....|B-2 UF.F ....|D#5 2CEF ....
 B-4|..|B-2 2A.F ....|B-2 UF.A ....|B-4 2FEA ....
 F#3|..|C-4 AF.F ....|B-2 UF.F ....|F#5 2CEF ....
 B-4|..|B-2 2A.F ....|B-2 UF.A ....|D#5 2FEA ....
 D#4|..|C-4 9F.F ....|B-2 UF.F ....|D#5 2CEF ....
 B-4|..|B-2 2A.F ....|B-2 UF.A ....|F#5 2FEA ....
 B-4|..|C-4 AF.F ....|G#3 2F.F ....|B-4 2CEF ....
 B-4|..|B-2 2A.F ....|B-2 UF.F ....|D#5 2FEA ....
 D#4|..|C-4 9F.F ....|A-3 2F.F ....|D#5 2CEF ....
 B-4|..|B-2 2A.F ....|G#3 2F.A ....|B-4 2FEA ....
 G#4|..|C-4 AF.F ....|B-3 2F.F ....|G#5 2CEF ....
 B-4|..|B-2 2A.F ....|A-3 2F.A ....|D#5 2FEA ....
 D#4|..|B-2 2F.A ....|G#3 2F.7 ....|D#5 2CEF ....
 G#4|..|G#2 2A.F ....|B-3 2F.A ....|G#5 2FEA ....
 B-4|..|C-4 AF.F ....|G#2 UF.F ....|B-4 2CEF ....
....|..|B-2 2F.7 ....|B-2 UF.7 ....|D#5 2FEA ....
 D#4|..|G#2 2F.A ....|B-3 2F.7 ....|D#5 2CEF ....
 G#4|..|G#2 2A.F ....|G#2 UF.A ....|B-4 2FEA ....
 G#4|..|C-4 AF.F ....|A-3 2F.F ....|G#5 2CEF ....
....|..|G#2 2F.7 ....|G#2 UF.F ....|D#5 2FEA ....
 D#4|..|G#2 2F.A ....|G#2 UF.7 ....|D#5 2CEF ....
 G#4|..|G#2 2A.F ....|A-3 2F.A ....|G#5 2FEA ....
 B-4|..|C-4 AF.F ....|G#3 2F.F ....|B-4 2CEF ....
....|..|G#2 2F.7 ....|G#2 UF.A ....|D#5 2FEA ....
 D#4|..|G#2 2F.A ....|A-3 2F.7 ....|D#5 2CEF ....
 G#4|..|G#2 2A.F ....|G#3 2F.A ....|B-4 2FEA ....
 G#4|..|C-4 AF.F ....|A-3 2F.F ....|G#5 2CEF ....
....|..|G#2 2F.7 ....|G#2 UF.7 ....|D#5 2FEA ....
 D#4|..|D#4 9F.F ....|G#3 2F.7 ....|D#5 2CEF ....
 G#4|..|G#2 2A.F ....|A-3 2F.A ....|G#5 2FEA ....
 B-4|..|C-4 AF.F ....|G#3 2F.F ....|B-4 2CEF ....
....|..|G#2 2F.7 ....|G#2 UF.7 ....|D#5 2FEA ....
 D#4|..|D#4 9F.F ....|A-3 2F.7 ....|D#5 2CEF ....
 G#4|..|G#2 2A.F ....|G#3 2F.A ....|B-4 2FEA ....
 G#4|..|C-4 AF.F ....|E-3 2F.F ....|G#5 2CEF ....
....|..|G#2 2F.7 ....|G#2 UF.7 ....|D#5 2FEA ....
 D#4|..|C-4 9F.F ....|G#3 2F.7 ....|D#5 2CEF ....
 E-4|..|E-2 2A.F ....|E-3 2F.A ....|G#5 2FEA ....
 B-4|..|C-4 AF.F ....|D#3 2F.F ....|B-4 2CEF ....
....|..|G#2 2F.7 ....|G#2 UF.7 ....|D#5 2FEA ....
 D#4|..|C-4 9F.F ....|E-3 2F.7 ....|D#5 2CEF ....
 D#4|..|D#2 2A.F ....|D#3 2F.A ....|B-4 2FEA ....
 G#4|..|C-4 AF.F ....|C#3 2F.F ....|G#5 2CEF ....
....|..|E-2 2F.7 ....|E-2 UF.7 ....|D#5 2FEA ....
....|..|D#2 2F.A ....|D#3 2F.7 ....|B-4 2FE7 ....
 C#4|..|C#3 2C.F ....|C#3 2F.A ....|G#5 2FEA ....
 G#4|..|D#2 2F.7 ....|D#2 UF.7 ....|G#5 2CEF ....
....|..|C#3 2F.A ....|C#3 UF2A ....|D#2 2FF7 ....
....|..|C#3 2F.7 ....|C#3 2F.7 ....|G#5 2FE7 ....
....|..|C#3 2F.7 ....|C#3 UF27 ....|G#5 2FEA ....
 G#4|..|--- .... ....|--- .... ....|G#5 2CEF ....
....|..|--- .... ....|--- .... ....|C#3 2FF7 ....
....|..|--- .... ....|--- .... ....|G#5 2FE7 ....
....|..|--- .... ....|--- .... ....|G#5 2FEA ....
 G#4|..|--- .... ....|--- .... ....|G#5 2CEF ....
....|..|--- .... ....|--- .... ....|--- .... ....
....|..|--- .... ....|--- .... ....|G#5 2FE7 ....
....|..|--- .... ....|--- .... ....|G#5 2FEA ....
 G#4|..|--- .... ....|--- .... ....|G#5 2CEF ....
....|..|--- .... ....|--- .... ....|--- .... ....
....|..|--- .... ....|--- .... ....|G#5 2FE7 ....
....|..|--- .... ....|--- .... ....|G#5 2FEA ....
....|..|--- .... ....|--- .... ....|--- .... ....
....|..|--- .... ....|--- .... ....|--- .... ....
....|..|--- .... ....|--- .... ....|G#5 2FE7 ....
....|..|--- .... ....|--- .... ....|--- .... ....
 E-4|..|--- .... ....|--- .... ....|E-5 2CEF ....
....|..|--- .... ....|--- .... ....|--- .... ....
....|..|--- .... ....|--- .... ....|--- .... ....
....|..|--- .... ....|--- .... ....|E-5 2FEA ....
....|..|--- .... ....|--- .... ....|--- .... ....
....|..|--- .... ....|--- .... ....|--- .... ....
....|..|--- .... ....|--- .... ....|E-5 2FE7 ....
....|..|--- .... ....|--- .... ....|--- .... ....
....|..|R-- .... ....|--- .... ....|--- .... ....
....|..|--- .... ....|--- .... ....|--- .... ....
....|..|--- .... ....|--- .... ....|--- .... ....
....|..|--- .... ....|--- .... ....|--- .... ....
 C#4|..|--- .... ....|--- .... ....|C#5 2CEF ....
....|..|--- .... ....|--- .... ....|--- .... ....
....|..|--- .... ....|--- .... ....|--- .... ....
....|..|--- .... ....|--- .... ....|C#5 2FEA ....
....|..|--- .... ....|--- .... ....|--- .... ....
....|..|--- .... ....|--- .... ....|--- .... ....
....|..|--- .... ....|--- .... ....|C#5 2FE7 ....
....|..|--- .... ....|--- .... ....|--- .... ....
....|..|--- .... ....|--- .... ....|--- .... ....
....|..|--- .... ....|--- .... ....|--- .... ....
....|..|--- .... ....|--- .... ....|--- .... ....
....|..|--- .... ....|--- .... ....|--- .... ....

[Pattern56]
....|..|--- .... ....|--- .... ....|--- .... ....
....|..|--- .... ....|--- .... ....|--- .... ....
....|..|--- .... ....|--- .... ....|--- .... ....
....|..|--- .... ....|--- .... ....|--- .... ....
....|..|--- .... ....|--- .... ....|R-- .... ....
....|..|--- .... ....|--- .... ....|--- .... ....
....|..|--- .... ....|--- .... ....|--- .... ....
....|..|--- .... ....|--- .... ....|R-- .... ....
....|..|--- .... ....|--- .... ....|--- .... ....
....|..|--- .... ....|--- .... ....|--- .... ....
....|..|--- .... ....|--- .... ....|R-- .... ....
....|..|--- .... ....|--- .... ....|--- .... ....
....|..|--- .... ....|--- .... ....|--- .... ....
....|..|--- .... ....|--- .... ....|--- .... ....
....|..|--- .... ....|--- .... ....|--- .... ....
....|..|--- .... ....|--- .... ....|--- .... ....
....|..|R-- .... ....|R-- .... ....|R-- .... ....
....|..|--- .... ....|--- .... ....|--- .... ....
....|..|--- .... ....|--- .... ....|--- .... ....
....|..|R-- .... ....|R-- .... ....|R-- .... ....
....|..|--- .... ....|--- .... ....|--- .... ....
....|..|--- .... ....|--- .... ....|--- .... ....
