[Module]
VortexTrackerII=0
Version=3.5
Title=3p[u]-5m[ud],4m[3e]-6m[uf]+,2me
Author=oisee ^ 4d 29.05.2010
NoteTable=4
ChipFreq=1750000
Speed=4
PlayOrder=L0,0,2,3,4,5,6,7,8,9,10,11,12,13,14,15,16,17,18,19,20,21,22,23,24,24,26,27,28,29,30,31,32,33



[Sample1]
TnE +000_ +00_ F_
TnE +000_ +00_ F_
TnE +000_ +00_ F_
TnE +000_ +00_ D_
TnE +000_ +00_ B_
TnE +000_ +00_ B_ L

[Sample2]
TnE +000_ +00_ F_ L

[Sample3]
TnE +001_ +00_ F_
TnE +002_ +00_ F_
TnE +001_ +00_ E_
TnE +002_ +00_ E_
TnE +000_ +00_ E_ L
TnE -001_ +00_ E_
TnE -002_ +00_ E_
TnE -001_ +00_ E_
TnE +000_ +00_ E_
TnE +001_ +00_ E_
TnE +002_ +00_ E_
TnE +001_ +00_ E_

[Sample4]
TnE +002_ +00_ D_
TnE +002_ +00_ D_
TnE +002_ +00_ C_
TnE +002_ +00_ B_
TnE +002_ +00_ A_ L
TnE +002_ +00_ A_
TnE +002_ +00_ A_
TnE +002_ +00_ A_
TnE +002_ +00_ A_
TnE +002_ +00_ A_
TnE +002_ +00_ A_
TnE +002_ +00_ A_

[Sample5]
TnE +000_ +00_ F_
TnE +000_ +00_ F_
tne +000_ +00_ 0_ L

[Sample6]
TnE -001_ +00_ F_ L

[Sample7]
TnE +006_ +00_ F_ L

[Sample8]
tNe +000_ +00_ F_
tNe +000_ +00_ B_
tNe +000_ +00_ 7_
tNe +000_ +00_ 6- L

[Sample9]
TnE +080_ +00_ F_
TnE +100_ +00_ E_
TnE +180_ +00_ E_
TnE +200_ +00_ E_
TnE +240_ +00_ D_
TnE +280_ +00_ D_
TnE +2C0_ +00_ D_
TnE +300_ +00_ C_
TnE +300_ +00_ C_
TnE +340_ +00_ C_
TnE +340_ +00_ C_
TnE +380_ +00_ B_
TnE +380_ +00_ B_
TnE +400_ +00_ B_
TnE +400_ +00_ B_
TnE +480_ +00_ A_
TnE +500_ +00_ 9_
TnE +580_ +00_ 7_
TnE +600_ +00_ 4_
TnE +680_ +00_ 1_
TnE +000_ +00_ 0_ L

[Sample10]
Tne +1C0_ +00_ F_
Tne +280_ +00_ E_
Tne +380_ +00_ C_
Tne +440_ +00_ A_
Tne +480_ +00_ 8_
TnE +000_ +00_ 0_ L

[Sample11]
TNe +200_ -0A_ F_
tNe +000_ +0F_ A_
TNe +200_ -07_ E_
tNe +000_ +0E_ B- L

[Sample12]
TNE +0A0_ +05_ F_
TNE +140_ +02_ D_
TNE +140_ +02_ B_
TNE +100_ +00_ A_ L
TNE +140_ +00_ A_
TNE +200_ +00_ A-

[Sample13]
Tne +200_ +00_ F_
Tne +2C0_ +00_ F_
Tne +380_ +00_ E_
Tne +500_ +00_ C_
Tne +520_ +00_ 9_
tne +000_ +00_ 0_ L

[Sample14]
TNE -100_ +00_ F_
TNE -100_ +00_ D_
TNE -100_ +00_ A_
TNE -100_ +00_ 5_
tne +000_ +00_ 0_ L

[Sample15]
TNE -100_ +00_ 5_
TNE -100_ +00_ 8_
TNE -100_ +00_ B_
TNE -100_ +00_ F_
TNe -100_ +00_ 9- L

[Sample16]
TnE +000_ +00_ C_
TnE +000_ +00_ E_
TnE +000_ +00_ F_
TnE +000_ +00_ F_
TnE +000_ +00_ E_
TnE +000_ +00_ D_
TnE +000_ +00_ C_
TnE +000_ +00_ C_ L
TnE +001_ +00_ C_
TnE +002_ +00_ C_
TnE +003_ +00_ C_
TnE +001_ +00_ C_
TnE +000_ +00_ C_
TnE -001_ +00_ C_
TnE -002_ +00_ C_
TnE -003_ +00_ C_
TnE -001_ +00_ C_
TnE +000_ +00_ C_
TnE +000_ +00_ C_

[Sample17]
Tne +1C0_ +00_ F_
Tne +280_ +00_ D_
Tne +380_ +00_ 7_
TNE +000_ +00_ 0_ L

[Sample18]
TnE -00C_ +00_ 0_ L

[Sample19]
TNe +000_ +00_ F_
TNe +000_ +00_ C_
TNe +000_ +00_ 6_
TNe +000_ +01_ A- L

[Sample20]
TNE +140_ +00_ F_
tNE +000_ +00_ B- L

[Sample21]
tNE +000_ +00_ D_
tNE +000_ +00_ 8_
tNE +000_ +00_ 1_
TNE +000_ +00_ 0_ L

[Sample22]
TnE +000_ +00_ D_ L
TnE +000_ +00_ D_
tne +000_ +00_ 9_
tne +000_ +00_ 9_
TnE +000_ +00_ D_
TnE +000_ +00_ D_
tne +000_ +00_ 9_
tne +000_ +00_ 9_
TnE +000_ +00_ D_
TnE +000_ +00_ D_
TnE +000_ +00_ D_
TnE +000_ +00_ D_
TnE +000_ +00_ D_
TnE +000_ +00_ D_
tne +000_ +00_ 9_
tne +000_ +00_ 9_

[Sample23]
TnE +000_ +00_ F_ L
TnE +010_ +01_ F_
TnE +010_ +01_ F_
TnE +010_ +01_ F_
TnE +010_ +01_ F_
TnE +000_ +00_ F_
TnE +000_ +00_ F_
TnE -010_ -01_ F_
TnE -010_ -01_ F_
TnE -010_ -01_ F_
TnE -010_ -01_ F_
TnE +000_ +00_ F_

[Sample24]
TNe +000_ -01_ C_
TNe +000_ -01_ D_
TNe +000_ -01_ E_
TNe +000_ -01_ F_
TNe +000_ -01_ F_
TNe +000_ -01_ F_
TNe +000_ -01_ F_
TNe +000_ -01_ F_
TNe +000_ -01_ E_
TNe +000_ -01_ E_
TNe +000_ -01_ E_
TNe +000_ -01_ F_
TNe +000_ -01_ F_ L

[Sample25]
TNE +000_ +00_ F_
TNE +000_ +00_ F_ L
TNE +000_ +00_ F_
TNE +000_ +00_ F_
TNE +000_ +00_ F-

[Sample26]
tne +000_ +00_ 0_ L

[Sample27]
TnE +100_ +05_ F_
TnE +200_ +02_ A_
TnE +300_ +02_ 7_
TNE +400_ +00_ 3- L

[Sample28]
tne +000_ +00_ 0_ L

[Sample29]
tnE +000_ +00_ 0_ L

[Sample30]
TNE +000_ +00_ C+ L

[Sample31]
TNe +1C0_ +00_ F_
Tne +280_ +00_ E_
Tne +380_ +00_ C_
Tne +440_ +00_ A_
Tne +480_ +00_ 8_
TnE +000_ +00_ 0_ L

[Pattern0]
....|..|--- .... ....|--- .... ....|--- .... ....
....|..|--- .... ....|--- .... ....|--- .... ....
....|..|--- .... ....|--- .... ....|--- .... ....
....|..|--- .... ....|--- .... ....|--- .... ....
....|..|--- .... ....|--- .... ....|--- .... ....
....|..|--- .... ....|--- .... ....|--- .... ....
....|..|--- .... ....|--- .... ....|--- .... ....
....|..|--- .... ....|--- .... ....|--- .... ....
....|..|--- .... ....|--- .... ....|--- .... ....
....|..|--- .... ....|--- .... ....|--- .... ....
....|..|--- .... ....|--- .... ....|--- .... ....
....|..|--- .... ....|--- .... ....|--- .... ....
....|..|--- .... ....|--- .... ....|--- .... ....
....|..|--- .... ....|--- .... ....|--- .... ....
....|..|--- .... ....|--- .... ....|--- .... ....
....|..|--- .... ....|--- .... ....|--- .... ....
....|..|--- .... ....|--- .... ....|--- .... ....
....|..|--- .... ....|--- .... ....|--- .... ....
....|..|--- .... ....|--- .... ....|--- .... ....
....|..|--- .... ....|--- .... ....|--- .... ....
....|..|--- .... ....|--- .... ....|--- .... ....
....|..|--- .... ....|--- .... ....|--- .... ....
....|..|--- .... ....|--- .... ....|--- .... ....
....|..|--- .... ....|--- .... ....|--- .... ....
....|..|--- .... ....|--- .... ....|--- .... ....
....|..|--- .... ....|--- .... ....|--- .... ....
....|..|--- .... ....|--- .... ....|--- .... ....
....|..|--- .... ....|--- .... ....|--- .... ....
....|..|--- .... ....|--- .... ....|--- .... ....
....|..|--- .... ....|--- .... ....|--- .... ....
....|..|--- .... ....|--- .... ....|--- .... ....
....|..|--- .... ....|--- .... ....|--- .... ....
....|..|C-2 UF.F ....|--- .... ....|--- .... ....
....|..|--- .... ....|--- .... ....|--- .... ....
....|..|--- .... ....|--- .... ....|--- .... ....
....|..|--- .... ....|--- .... ....|--- .... ....
....|..|--- .... ....|--- .... ....|--- .... ....
....|..|--- .... ....|--- .... ....|--- .... ....
....|..|--- .... ....|--- .... ....|--- .... ....
....|..|--- .... ....|--- .... ....|--- .... ....
....|..|--- .... ....|--- .... ....|--- .... ....
....|..|--- .... ....|--- .... ....|--- .... ....
....|..|--- .... ....|--- .... ....|--- .... ....
....|..|--- .... ....|--- .... ....|--- .... ....
....|..|C-2 UF.A ....|--- .... ....|--- .... ....
....|..|--- .... ....|--- .... ....|--- .... ....
....|..|--- .... ....|--- .... ....|--- .... ....
....|..|--- .... ....|--- .... ....|--- .... ....
....|..|--- .... ....|--- .... ....|--- .... ....
....|..|--- .... ....|--- .... ....|--- .... ....
....|..|--- .... ....|--- .... ....|--- .... ....
....|..|--- .... ....|--- .... ....|--- .... ....
....|..|--- .... ....|--- .... ....|--- .... ....
....|..|--- .... ....|--- .... ....|--- .... ....
....|..|--- .... ....|--- .... ....|--- .... ....
....|..|--- .... ....|--- .... ....|--- .... ....
....|..|C-2 UF.7 ....|--- .... ....|--- .... ....
....|..|--- .... ....|--- .... ....|--- .... ....
....|..|--- .... ....|--- .... ....|--- .... ....
....|..|--- .... ....|--- .... ....|--- .... ....
....|..|--- .... ....|--- .... ....|--- .... ....
....|..|--- .... ....|--- .... ....|--- .... ....
....|..|--- .... ....|--- .... ....|--- .... ....
....|..|--- .... ....|--- .... ....|--- .... ....
....|..|--- .... ....|--- .... ....|--- .... ....
....|..|--- .... ....|--- .... ....|--- .... ....
....|..|--- .... ....|--- .... ....|--- .... ....
....|..|--- .... ....|--- .... ....|--- .... ....
....|..|--- .... ....|--- .... ....|--- .... ....
....|..|--- .... ....|--- .... ....|--- .... ....
....|..|--- .... ....|--- .... ....|--- .... ....
....|..|--- .... ....|--- .... ....|--- .... ....
....|..|--- .... ....|--- .... ....|--- .... ....
....|..|--- .... ....|--- .... ....|--- .... ....
....|..|--- .... ....|--- .... ....|--- .... ....
....|..|--- .... ....|--- .... ....|--- .... ....
....|..|--- .... ....|--- .... ....|--- .... ....
....|..|--- .... ....|--- .... ....|--- .... ....
....|..|--- .... ....|--- .... ....|--- .... ....
....|..|--- .... ....|--- .... ....|--- .... ....
....|..|--- .... ....|--- .... ....|--- .... ....
....|..|--- .... ....|--- .... ....|--- .... ....
....|..|--- .... ....|--- .... ....|--- .... ....
....|..|--- .... ....|--- .... ....|--- .... ....
....|..|--- .... ....|--- .... ....|--- .... ....
....|..|--- .... ....|--- .... ....|--- .... ....
....|..|--- .... ....|--- .... ....|--- .... ....
....|..|--- .... ....|--- .... ....|--- .... ....
....|..|--- .... ....|--- .... ....|--- .... ....
....|..|--- .... ....|--- .... ....|--- .... ....
....|..|--- .... ....|--- .... ....|--- .... ....
....|..|--- .... ....|--- .... ....|--- .... ....
....|..|--- .... ....|--- .... ....|--- .... ....
....|..|--- .... ....|--- .... ....|--- .... ....
....|..|--- .... ....|--- .... ....|--- .... ....
....|..|--- .... ....|--- .... ....|--- .... ....
....|..|--- .... ....|--- .... ....|--- .... ....
....|..|--- .... ....|--- .... ....|--- .... ....
....|..|--- .... ....|--- .... ....|--- .... ....
....|..|--- .... ....|--- .... ....|--- .... ....
....|..|--- .... ....|--- .... ....|--- .... ....
....|..|--- .... ....|--- .... ....|--- .... ....
....|..|--- .... ....|--- .... ....|--- .... ....
....|..|--- .... ....|--- .... ....|--- .... ....
....|..|--- .... ....|--- .... ....|--- .... ....
....|..|--- .... ....|--- .... ....|--- .... ....
....|..|--- .... ....|--- .... ....|--- .... ....
....|..|--- .... ....|--- .... ....|--- .... ....
....|..|--- .... ....|--- .... ....|--- .... ....
....|..|--- .... ....|--- .... ....|--- .... ....
....|..|--- .... ....|--- .... ....|--- .... ....
....|..|--- .... ....|--- .... ....|--- .... ....
....|..|--- .... ....|--- .... ....|--- .... ....
....|..|--- .... ....|--- .... ....|--- .... ....
....|..|--- .... ....|--- .... ....|--- .... ....
....|..|--- .... ....|--- .... ....|--- .... ....
....|..|--- .... ....|--- .... ....|--- .... ....
....|..|--- .... ....|--- .... ....|--- .... ....
....|..|--- .... ....|--- .... ....|--- .... ....
....|..|--- .... ....|--- .... ....|--- .... ....
....|..|--- .... ....|--- .... ....|--- .... ....
....|..|--- .... ....|--- .... ....|--- .... ....
....|..|--- .... ....|--- .... ....|--- .... ....
....|..|--- .... ....|--- .... ....|--- .... ....
....|..|--- .... ....|--- .... ....|--- .... ....
....|..|--- .... ....|--- .... ....|--- .... ....
....|..|--- .... ....|--- .... ....|--- .... ....
....|..|--- .... ....|--- .... ....|--- .... ....

[Pattern2]
....|..|--- .... ....|--- .... ....|--- .... ....
....|..|--- .... ....|--- .... ....|--- .... ....
....|..|--- .... ....|--- .... ....|--- .... ....
....|..|--- .... ....|--- .... ....|--- .... ....
....|..|--- .... ....|--- .... ....|--- .... ....
....|..|--- .... ....|--- .... ....|--- .... ....
....|..|--- .... ....|--- .... ....|--- .... ....
....|..|--- .... ....|--- .... ....|--- .... ....
....|..|--- .... ....|--- .... ....|--- .... ....
....|..|--- .... ....|--- .... ....|--- .... ....
....|..|--- .... ....|--- .... ....|--- .... ....
....|..|--- .... ....|--- .... ....|--- .... ....
....|..|--- .... ....|--- .... ....|--- .... ....
....|..|--- .... ....|--- .... ....|--- .... ....
....|..|--- .... ....|--- .... ....|--- .... ....
....|..|--- .... ....|--- .... ....|--- .... ....
....|..|--- .... ....|--- .... ....|--- .... ....
....|..|--- .... ....|--- .... ....|--- .... ....
....|..|--- .... ....|--- .... ....|--- .... ....
....|..|--- .... ....|--- .... ....|--- .... ....
....|..|--- .... ....|--- .... ....|--- .... ....
....|..|--- .... ....|--- .... ....|--- .... ....
....|..|--- .... ....|--- .... ....|--- .... ....
....|..|--- .... ....|--- .... ....|--- .... ....
....|..|--- .... ....|--- .... ....|--- .... ....
....|..|--- .... ....|--- .... ....|--- .... ....
....|..|--- .... ....|--- .... ....|--- .... ....
....|..|--- .... ....|--- .... ....|--- .... ....
....|..|--- .... ....|--- .... ....|--- .... ....
....|..|--- .... ....|--- .... ....|--- .... ....
....|..|--- .... ....|--- .... ....|--- .... ....
....|..|--- .... ....|--- .... ....|--- .... ....
....|..|C-2 UF.F ....|--- .... ....|--- .... ....
....|..|--- .... ....|--- .... ....|--- .... ....
....|..|--- .... ....|--- .... ....|--- .... ....
....|..|--- .... ....|--- .... ....|--- .... ....
....|..|--- .... ....|--- .... ....|--- .... ....
....|..|--- .... ....|--- .... ....|--- .... ....
....|..|--- .... ....|--- .... ....|--- .... ....
....|..|--- .... ....|--- .... ....|--- .... ....
....|..|--- .... ....|--- .... ....|--- .... ....
....|..|--- .... ....|--- .... ....|--- .... ....
....|..|--- .... ....|--- .... ....|--- .... ....
....|..|--- .... ....|--- .... ....|--- .... ....
....|..|C-2 UF.A ....|--- .... ....|--- .... ....
....|..|--- .... ....|--- .... ....|--- .... ....
....|..|--- .... ....|--- .... ....|--- .... ....
....|..|--- .... ....|--- .... ....|--- .... ....
....|..|--- .... ....|--- .... ....|--- .... ....
....|..|--- .... ....|--- .... ....|--- .... ....
....|..|--- .... ....|--- .... ....|--- .... ....
....|..|--- .... ....|--- .... ....|--- .... ....
....|..|--- .... ....|--- .... ....|--- .... ....
....|..|--- .... ....|--- .... ....|--- .... ....
....|..|--- .... ....|--- .... ....|--- .... ....
....|..|--- .... ....|--- .... ....|--- .... ....
....|..|C-2 UF.7 ....|--- .... ....|--- .... ....
....|..|--- .... ....|--- .... ....|--- .... ....
....|..|--- .... ....|--- .... ....|--- .... ....
....|..|--- .... ....|--- .... ....|--- .... ....
....|..|--- .... ....|--- .... ....|--- .... ....
....|..|--- .... ....|--- .... ....|--- .... ....
....|..|--- .... ....|--- .... ....|--- .... ....
....|..|--- .... ....|--- .... ....|--- .... ....
....|..|--- .... ....|--- .... ....|--- .... ....
....|..|--- .... ....|--- .... ....|--- .... ....
....|..|--- .... ....|--- .... ....|--- .... ....
....|..|--- .... ....|--- .... ....|--- .... ....
....|..|--- .... ....|--- .... ....|--- .... ....
....|..|--- .... ....|--- .... ....|--- .... ....
....|..|--- .... ....|--- .... ....|--- .... ....
....|..|--- .... ....|--- .... ....|--- .... ....
....|..|--- .... ....|--- .... ....|--- .... ....
....|..|--- .... ....|--- .... ....|--- .... ....
....|..|--- .... ....|--- .... ....|--- .... ....
....|..|--- .... ....|--- .... ....|--- .... ....
....|..|--- .... ....|--- .... ....|--- .... ....
....|..|--- .... ....|--- .... ....|--- .... ....
....|..|--- .... ....|--- .... ....|--- .... ....
....|..|--- .... ....|--- .... ....|--- .... ....
....|..|--- .... ....|--- .... ....|--- .... ....
....|..|--- .... ....|--- .... ....|--- .... ....
....|..|--- .... ....|--- .... ....|--- .... ....
....|..|--- .... ....|--- .... ....|--- .... ....
....|..|--- .... ....|--- .... ....|--- .... ....
....|..|--- .... ....|--- .... ....|--- .... ....
....|..|--- .... ....|--- .... ....|--- .... ....
....|..|--- .... ....|--- .... ....|--- .... ....
....|..|--- .... ....|--- .... ....|--- .... ....
....|..|--- .... ....|--- .... ....|--- .... ....
....|..|--- .... ....|--- .... ....|--- .... ....
....|..|--- .... ....|--- .... ....|--- .... ....
....|..|--- .... ....|--- .... ....|--- .... ....
....|..|--- .... ....|--- .... ....|--- .... ....
....|..|R-- .... ....|--- .... ....|--- .... ....
....|..|--- .... ....|--- .... ....|--- .... ....
....|..|--- .... ....|E-5 3FEF ....|--- .... ....
....|..|--- .... ....|--- .... ....|--- .... ....
....|..|--- .... ....|--- .... ....|--- .... ....
....|..|--- .... ....|--- .... ....|--- .... ....
....|..|--- .... ....|R-- .... ....|--- .... ....
....|..|--- .... ....|--- .... ....|--- .... ....
....|..|--- .... ....|--- .... ....|--- .... ....
....|..|--- .... ....|--- .... ....|--- .... ....
....|..|--- .... ....|E-5 3FEF ....|--- .... ....
....|..|--- .... ....|--- .... ....|--- .... ....
....|..|R-- .... ....|--- .... ....|--- .... ....
....|..|--- .... ....|--- .... ....|--- .... ....
....|..|--- .... ....|D#5 3FEF ....|--- .... ....
....|..|--- .... ....|--- .... ....|--- .... ....
....|..|--- .... ....|--- .... ....|--- .... ....
....|..|--- .... ....|--- .... ....|--- .... ....
....|..|--- .... ....|E-5 3FEF ....|--- .... ....
....|..|--- .... ....|--- .... ....|--- .... ....
....|..|--- .... ....|--- .... ....|--- .... ....
....|..|--- .... ....|--- .... ....|--- .... ....
....|..|--- .... ....|C#5 3FEF ....|--- .... ....
....|..|--- .... ....|--- .... ....|--- .... ....
....|..|R-- .... ....|--- .... ....|--- .... ....
....|..|--- .... ....|--- .... ....|--- .... ....
....|..|--- .... ....|E-5 3FE7 ....|--- .... ....
....|..|--- .... ....|--- .... ....|--- .... ....
....|..|--- .... ....|--- .... ....|--- .... ....
....|..|--- .... ....|--- .... ....|--- .... ....
....|..|--- .... ....|E-5 3FEA ....|--- .... ....
....|..|--- .... ....|--- .... ....|--- .... ....
....|..|--- .... ....|--- .... ....|--- .... ....
....|..|--- .... ....|--- .... ....|--- .... ....

[Pattern3]
....|..|--- .... ....|E-5 3FE7 ....|--- .... ....
....|..|--- .... ....|--- .... ....|--- .... ....
....|..|--- .... ....|--- .... ....|--- .... ....
....|..|--- .... ....|--- .... ....|--- .... ....
....|..|--- .... ....|D#5 3FE7 ....|--- .... ....
....|..|--- .... ....|--- .... ....|--- .... ....
....|..|--- .... ....|--- .... ....|--- .... ....
....|..|--- .... ....|--- .... ....|--- .... ....
....|..|--- .... ....|E-5 3FE7 ....|--- .... ....
....|..|--- .... ....|--- .... ....|--- .... ....
....|..|--- .... ....|--- .... ....|--- .... ....
....|..|--- .... ....|--- .... ....|--- .... ....
....|..|--- .... ....|C#5 3FE7 ....|--- .... ....
....|..|--- .... ....|--- .... ....|--- .... ....
....|..|--- .... ....|--- .... ....|--- .... ....
....|..|--- .... ....|--- .... ....|--- .... ....
....|..|--- .... ....|R-- .... ....|--- .... ....
....|..|--- .... ....|--- .... ....|--- .... ....
....|..|--- .... ....|--- .... ....|--- .... ....
....|..|--- .... ....|--- .... ....|--- .... ....
....|..|--- .... ....|--- .... ....|--- .... ....
....|..|--- .... ....|--- .... ....|--- .... ....
....|..|--- .... ....|--- .... ....|--- .... ....
....|..|--- .... ....|--- .... ....|--- .... ....
....|..|--- .... ....|--- .... ....|--- .... ....
....|..|--- .... ....|--- .... ....|--- .... ....
....|..|--- .... ....|--- .... ....|--- .... ....
....|..|--- .... ....|--- .... ....|--- .... ....
....|..|--- .... ....|D#5 3FEF ....|--- .... ....
....|..|--- .... ....|--- .... ....|--- .... ....
....|..|--- .... ....|--- .... ....|--- .... ....
....|..|--- .... ....|R-- .... ....|--- .... ....
....|..|--- .... ....|E-5 3FEF ....|--- .... ....
....|..|--- .... ....|--- .... ....|--- .... ....
....|..|--- .... ....|--- .... ....|--- .... ....
....|..|--- .... ....|--- .... ....|--- .... ....
....|..|--- .... ....|R-- .... ....|--- .... ....
....|..|--- .... ....|--- .... ....|--- .... ....
....|..|--- .... ....|--- .... ....|--- .... ....
....|..|--- .... ....|--- .... ....|--- .... ....
....|..|--- .... ....|E-5 3FEF ....|--- .... ....
....|..|--- .... ....|--- .... ....|--- .... ....
....|..|--- .... ....|--- .... ....|--- .... ....
....|..|--- .... ....|R-- .... ....|--- .... ....
....|..|--- .... ....|D#5 3FEF ....|--- .... ....
....|..|--- .... ....|--- .... ....|--- .... ....
....|..|--- .... ....|--- .... ....|--- .... ....
....|..|--- .... ....|--- .... ....|--- .... ....
....|..|--- .... ....|E-5 3FEF ....|--- .... ....
....|..|--- .... ....|--- .... ....|--- .... ....
....|..|--- .... ....|--- .... ....|--- .... ....
....|..|--- .... ....|--- .... ....|--- .... ....
....|..|--- .... ....|C#5 3FEF ....|--- .... ....
....|..|--- .... ....|--- .... ....|--- .... ....
....|..|--- .... ....|--- .... ....|--- .... ....
....|..|--- .... ....|R-- .... ....|--- .... ....
....|..|--- .... ....|E-5 3FE7 ....|--- .... ....
....|..|--- .... ....|--- .... ....|--- .... ....
....|..|--- .... ....|--- .... ....|--- .... ....
....|..|--- .... ....|--- .... ....|--- .... ....
....|..|--- .... ....|E-5 3FEA ....|--- .... ....
....|..|--- .... ....|--- .... ....|--- .... ....
....|..|--- .... ....|--- .... ....|--- .... ....
....|..|--- .... ....|--- .... ....|--- .... ....
....|..|--- .... ....|E-5 3FEF ....|--- .... ....
....|..|--- .... ....|--- .... ....|--- .... ....
....|..|--- .... ....|--- .... ....|--- .... ....
....|..|--- .... ....|--- .... ....|--- .... ....
....|..|--- .... ....|D#5 3FE7 ....|--- .... ....
....|..|--- .... ....|--- .... ....|--- .... ....
....|..|--- .... ....|--- .... ....|--- .... ....
....|..|--- .... ....|--- .... ....|--- .... ....
....|..|--- .... ....|E-5 3FEF ....|--- .... ....
....|..|--- .... ....|--- .... ....|--- .... ....
....|..|--- .... ....|--- .... ....|--- .... ....
....|..|--- .... ....|--- .... ....|--- .... ....
....|..|--- .... ....|D#5 3FEF ....|--- .... ....
....|..|--- .... ....|--- .... ....|--- .... ....
....|..|--- .... ....|--- .... ....|--- .... ....
....|..|--- .... ....|--- .... ....|--- .... ....
....|..|--- .... ....|E-5 3FEF ....|--- .... ....
....|..|--- .... ....|--- .... ....|--- .... ....
....|..|--- .... ....|--- .... ....|--- .... ....
....|..|--- .... ....|--- .... ....|--- .... ....
....|..|--- .... ....|C#5 3FEF ....|--- .... ....
....|..|--- .... ....|--- .... ....|--- .... ....
....|..|--- .... ....|--- .... ....|--- .... ....
....|..|--- .... ....|--- .... ....|--- .... ....
....|..|--- .... ....|E-5 3FE7 ....|--- .... ....
....|..|--- .... ....|--- .... ....|--- .... ....
....|..|--- .... ....|--- .... ....|--- .... ....
....|..|--- .... ....|--- .... ....|--- .... ....
....|..|--- .... ....|E-5 3FEA ....|--- .... ....
....|..|--- .... ....|--- .... ....|--- .... ....
....|..|--- .... ....|--- .... ....|--- .... ....
....|..|--- .... ....|--- .... ....|--- .... ....
....|..|--- .... ....|E-5 3FE7 ....|--- .... ....
....|..|--- .... ....|--- .... ....|--- .... ....
....|..|--- .... ....|--- .... ....|--- .... ....
....|..|--- .... ....|--- .... ....|--- .... ....
....|..|--- .... ....|D#5 3FE7 ....|--- .... ....
....|..|--- .... ....|--- .... ....|--- .... ....
....|..|--- .... ....|--- .... ....|--- .... ....
....|..|--- .... ....|--- .... ....|--- .... ....
....|..|--- .... ....|E-5 3FE7 ....|--- .... ....
....|..|--- .... ....|--- .... ....|--- .... ....
....|..|--- .... ....|--- .... ....|--- .... ....
....|..|--- .... ....|--- .... ....|--- .... ....
....|..|--- .... ....|C#5 3FE7 ....|--- .... ....
....|..|--- .... ....|--- .... ....|--- .... ....
....|..|--- .... ....|--- .... ....|--- .... ....
....|..|--- .... ....|--- .... ....|--- .... ....
....|..|--- .... ....|R-- .... ....|--- .... ....
....|..|--- .... ....|--- .... ....|--- .... ....
....|..|--- .... ....|--- .... ....|--- .... ....
....|..|--- .... ....|--- .... ....|--- .... ....
....|..|--- .... ....|--- .... ....|--- .... ....
....|..|--- .... ....|--- .... ....|--- .... ....
....|..|--- .... ....|--- .... ....|--- .... ....
....|..|--- .... ....|--- .... ....|--- .... ....
....|..|--- .... ....|--- .... ....|--- .... ....
....|..|--- .... ....|--- .... ....|--- .... ....
....|..|--- .... ....|--- .... ....|--- .... ....
....|..|--- .... ....|--- .... ....|--- .... ....
....|..|--- .... ....|--- .... ....|--- .... ....
....|..|--- .... ....|--- .... ....|--- .... ....
....|..|--- .... ....|--- .... ....|--- .... ....
....|..|--- .... ....|--- .... ....|--- .... ....

[Pattern4]
....|..|--- .... ....|E-5 3FEF ....|--- .... ....
....|..|--- .... ....|--- .... ....|--- .... ....
....|..|--- .... ....|--- .... ....|--- .... ....
....|..|--- .... ....|--- .... ....|--- .... ....
....|..|--- .... ....|R-- .... ....|--- .... ....
....|..|--- .... ....|--- .... ....|--- .... ....
....|..|--- .... ....|--- .... ....|--- .... ....
....|..|--- .... ....|--- .... ....|--- .... ....
....|..|--- .... ....|E-5 3FEF ....|--- .... ....
....|..|--- .... ....|--- .... ....|--- .... ....
....|..|--- .... ....|--- .... ....|--- .... ....
....|..|--- .... ....|--- .... ....|--- .... ....
....|..|--- .... ....|D#5 3FEF ....|--- .... ....
....|..|--- .... ....|--- .... ....|--- .... ....
....|..|--- .... ....|--- .... ....|--- .... ....
....|..|--- .... ....|--- .... ....|--- .... ....
....|..|--- .... ....|E-5 3FEF ....|--- .... ....
....|..|--- .... ....|--- .... ....|--- .... ....
....|..|--- .... ....|--- .... ....|--- .... ....
....|..|--- .... ....|--- .... ....|--- .... ....
....|..|--- .... ....|C#5 3FEF ....|--- .... ....
....|..|--- .... ....|--- .... ....|--- .... ....
....|..|--- .... ....|--- .... ....|--- .... ....
....|..|--- .... ....|--- .... ....|--- .... ....
....|..|--- .... ....|E-5 3FEF ....|--- .... ....
....|..|--- .... ....|--- .... ....|--- .... ....
....|..|--- .... ....|--- .... ....|--- .... ....
....|..|--- .... ....|--- .... ....|--- .... ....
....|..|--- .... ....|D#5 3FEF ....|--- .... ....
....|..|--- .... ....|--- .... ....|--- .... ....
....|..|--- .... ....|--- .... ....|--- .... ....
....|..|--- .... ....|--- .... ....|--- .... ....
....|..|--- .... ....|E-5 3FEF ....|--- .... ....
....|..|--- .... ....|--- .... ....|--- .... ....
....|..|--- .... ....|--- .... ....|--- .... ....
....|..|--- .... ....|--- .... ....|--- .... ....
....|..|--- .... ....|C#5 3FEF ....|--- .... ....
....|..|--- .... ....|--- .... ....|--- .... ....
....|..|--- .... ....|--- .... ....|--- .... ....
....|..|--- .... ....|--- .... ....|--- .... ....
....|..|--- .... ....|E-5 3FEF ....|--- .... ....
....|..|--- .... ....|--- .... ....|--- .... ....
....|..|--- .... ....|--- .... ....|--- .... ....
....|..|--- .... ....|--- .... ....|--- .... ....
....|..|--- .... ....|D#5 3FEF ....|--- .... ....
....|..|--- .... ....|--- .... ....|--- .... ....
....|..|--- .... ....|--- .... ....|--- .... ....
....|..|--- .... ....|--- .... ....|--- .... ....
....|..|--- .... ....|E-5 3FEF ....|--- .... ....
....|..|--- .... ....|--- .... ....|--- .... ....
....|..|--- .... ....|--- .... ....|--- .... ....
....|..|--- .... ....|--- .... ....|--- .... ....
....|..|--- .... ....|C#5 3FEF ....|--- .... ....
....|..|--- .... ....|--- .... ....|--- .... ....
....|..|--- .... ....|--- .... ....|--- .... ....
....|..|--- .... ....|--- .... ....|--- .... ....
....|..|--- .... ....|E-5 3FE7 ....|--- .... ....
....|..|--- .... ....|--- .... ....|--- .... ....
....|..|--- .... ....|--- .... ....|--- .... ....
....|..|--- .... ....|--- .... ....|--- .... ....
....|..|--- .... ....|C#5 3FE7 ....|--- .... ....
....|..|--- .... ....|--- .... ....|--- .... ....
....|..|--- .... ....|--- .... ....|--- .... ....
....|..|--- .... ....|--- .... ....|--- .... ....
....|..|--- .... ....|E-5 3FE7 ....|--- .... ....
....|..|--- .... ....|--- .... ....|--- .... ....
....|..|--- .... ....|--- .... ....|--- .... ....
....|..|--- .... ....|--- .... ....|--- .... ....
....|..|--- .... ....|D#5 3FE7 ....|--- .... ....
....|..|--- .... ....|--- .... ....|--- .... ....
....|..|--- .... ....|--- .... ....|--- .... ....
....|..|--- .... ....|--- .... ....|--- .... ....
....|..|--- .... ....|E-5 3FE7 ....|--- .... ....
....|..|--- .... ....|--- .... ....|--- .... ....
....|..|--- .... ....|--- .... ....|--- .... ....
....|..|--- .... ....|--- .... ....|--- .... ....
....|..|--- .... ....|C#5 3FE7 ....|--- .... ....
....|..|--- .... ....|--- .... ....|--- .... ....
....|..|--- .... ....|--- .... ....|--- .... ....
....|..|--- .... ....|--- .... ....|--- .... ....
....|..|--- .... ....|R-- .... ....|--- .... ....
....|..|--- .... ....|--- .... ....|--- .... ....
....|..|--- .... ....|--- .... ....|--- .... ....
....|..|--- .... ....|--- .... ....|--- .... ....
....|..|--- .... ....|--- .... ....|--- .... ....
....|..|--- .... ....|--- .... ....|--- .... ....
....|..|--- .... ....|--- .... ....|--- .... ....
....|..|--- .... ....|--- .... ....|--- .... ....
....|..|--- .... ....|--- .... ....|--- .... ....
....|..|--- .... ....|--- .... ....|--- .... ....
....|..|--- .... ....|--- .... ....|--- .... ....
....|..|--- .... ....|--- .... ....|--- .... ....
....|..|--- .... ....|--- .... ....|--- .... ....
....|..|--- .... ....|--- .... ....|--- .... ....
....|..|--- .... ....|--- .... ....|--- .... ....
....|..|--- .... ....|--- .... ....|--- .... ....
 A-3|..|C#4 UFDF ....|E-5 3FEF ....|A-1 2A.F ....
....|..|--- .... ....|--- .... ....|--- .... ....
....|..|R-- .... ....|--- .... ....|--- .... ....
....|..|--- .... ....|--- .... ....|R-- .... ....
 A-3|..|E-4 UFDF ....|R-- .... ....|A-1 2A.F ....
....|..|R-- .... ....|--- .... ....|R-- .... ....
 A-3|..|--- .... ....|--- .... ....|A-1 2A.F ....
....|..|--- .... ....|--- .... ....|R-- .... ....
 A-3|..|D#4 UFDF ....|E-5 3FEF ....|A-1 2A.F ....
....|..|R-- .... ....|--- .... ....|--- .... ....
....|..|--- .... ....|--- .... ....|--- .... ....
....|..|--- .... ....|--- .... ....|R-- .... ....
 A-3|..|F#4 UFDF ....|D#5 3FEF ....|A-1 2A.F ....
....|..|R-- .... ....|--- .... ....|--- .... ....
 A-3|..|R-- .... ....|--- .... ....|A-1 2A.F ....
....|..|--- .... ....|--- .... ....|R-- .... ....
....|..|C#4 UFDF ....|E-5 3FEF ....|A-1 2F.A ....
....|..|R-- .... ....|--- .... ....|R-- .... ....
 A-3|..|R-- .... ....|--- .... ....|A-1 2A.F ....
....|..|--- .... ....|--- .... ....|R-- .... ....
 A-3|..|E-4 UFDF ....|C#5 3FEF ....|A-1 2A.F ....
....|..|R-- .... ....|--- .... ....|R-- .... ....
 A-3|..|R-- .... ....|--- .... ....|A-1 2A.F ....
....|..|--- .... ....|--- .... ....|R-- .... ....
 A-3|..|D#4 UFDF ....|E-5 3FE7 ....|A-1 2A.F ....
....|..|R-- .... ....|--- .... ....|--- .... ....
....|..|R-- .... ....|--- .... ....|A-1 2F.A ....
....|..|--- .... ....|--- .... ....|R-- .... ....
 A-3|..|E-4 UFD7 ....|E-5 3FEA ....|A-1 2A.F ....
....|..|R-- .... ....|--- .... ....|R-- .... ....
....|..|D#4 UFDF ....|--- .... ....|A-1 2F.7 ....
....|..|R-- .... ....|--- .... ....|R-- .... ....

[Pattern5]
 G#3|..|D#4 UFDF ....|E-5 3FE7 ....|G#1 2A.F ....
....|..|R-- .... ....|--- .... ....|R-- .... ....
....|..|R-- .... ....|--- .... ....|A-1 2F.A ....
....|..|--- .... ....|--- .... ....|R-- .... ....
 G#3|..|E-4 UFDF ....|D#5 3FE7 ....|G#1 2A.F ....
....|..|R-- .... ....|--- .... ....|R-- .... ....
 G#3|..|R-- .... ....|--- .... ....|G#1 2A.F ....
....|..|--- .... ....|--- .... ....|R-- .... ....
 G#3|..|D#4 UFDF ....|E-5 3FE7 ....|G#1 2A.F ....
....|..|--- .... ....|--- .... ....|--- .... ....
....|..|D#4 UFDA ....|--- .... ....|A-1 2F.7 ....
....|..|R-- .... ....|--- .... ....|R-- .... ....
 G#3|..|F#4 UFDF ....|C#5 3FE7 ....|G#1 2A.F ....
....|..|--- .... ....|--- .... ....|R-- .... ....
 G#3|..|D#4 UFDF ....|--- .... ....|G#1 2A.F ....
....|..|--- .... ....|--- .... ....|R-- .... ....
....|..|D#4 UFD7 ....|R-- .... ....|A-1 2F.7 ....
....|..|R-- .... ....|--- .... ....|R-- .... ....
 G#3|..|A-3 UFDF ....|--- .... ....|G#1 2A.F ....
....|..|--- .... ....|--- .... ....|R-- .... ....
 G#3|..|D#4 UFDF ....|--- .... ....|G#1 2A.F ....
....|..|--- .... ....|--- .... ....|R-- .... ....
 G#3|..|D#4 UFD7 ....|--- .... ....|G#1 2A.F ....
....|..|R-- .... ....|--- .... ....|R-- .... ....
 G#3|..|A-3 UFDF ....|--- .... ....|G#1 2A.F ....
....|..|R-- .... ....|--- .... ....|--- .... ....
....|..|D#4 UFDF ....|--- .... ....|G#1 2F.A ....
....|..|--- .... ....|--- .... ....|R-- .... ....
 E-4|..|F#4 UFDF ....|D#5 3FEF ....|E-2 2A.F ....
....|..|R-- .... ....|--- .... ....|R-- .... ....
....|..|D#4 UFDF ....|--- .... ....|G#1 2F.7 ....
....|..|--- .... ....|R-- .... ....|R-- .... ....
 C#4|..|D#4 UFDF ....|E-5 3FEF ....|C#2 2A.F ....
....|..|--- .... ....|--- .... ....|R-- .... ....
....|..|G#3 UFDF ....|--- .... ....|G#1 2F.A ....
....|..|--- .... ....|--- .... ....|R-- .... ....
 C#4|..|E-4 UFDF ....|R-- .... ....|C#2 2A.F ....
....|..|R-- .... ....|--- .... ....|R-- .... ....
 C#4|..|D#4 UFDF ....|--- .... ....|C#2 2A.F ....
....|..|--- .... ....|--- .... ....|R-- .... ....
 C#4|..|G#3 UFDF ....|E-5 3FEF ....|C#2 2A.F ....
....|..|--- .... ....|--- .... ....|--- .... ....
....|..|D#4 UFDF ....|--- .... ....|G#1 2F.7 ....
....|..|--- .... ....|R-- .... ....|R-- .... ....
 C#4|..|F#4 UFDF ....|D#5 3FEF ....|C#2 2A.F ....
....|..|--- .... ....|--- .... ....|R-- .... ....
 C#4|..|D#4 UFDF ....|--- .... ....|C#2 2A.F ....
....|..|G#3 UFDF ....|--- .... ....|R-- .... ....
....|..|A-3 UFD7 ....|E-5 3FEF ....|G#1 2F.7 ....
....|..|R-- .... ....|--- .... ....|R-- .... ....
 C#4|..|D#4 UFD7 ....|--- .... ....|C#2 2A.F ....
....|..|--- .... ....|--- .... ....|R-- .... ....
 C#4|..|D#4 UFDF ....|C#5 3FEF ....|C#2 2A.F ....
....|..|G#3 UFDF ....|--- .... ....|R-- .... ....
 C#4|..|E-4 UFDF ....|--- .... ....|C#2 2A.F ....
....|..|--- .... ....|R-- .... ....|R-- .... ....
 C#4|..|G#3 UFDF ....|E-5 3FE7 ....|C#2 2A.F ....
....|..|--- .... ....|--- .... ....|--- .... ....
....|..|E-4 UFDF ....|--- .... ....|C#2 2F.A ....
....|..|G#3 UFDA ....|--- .... ....|R-- .... ....
 B-3|..|F#4 UFDF ....|E-5 3FEA ....|B-1 2A.F ....
....|..|--- .... ....|--- .... ....|R-- .... ....
....|..|F#3 UFDF ....|--- .... ....|C#2 2F.7 ....
....|..|--- .... ....|--- .... ....|R-- .... ....
 E-4|..|G#3 UFDF ....|E-5 3FEF ....|E-2 2A.F ....
....|..|G#3 UFDA ....|--- .... ....|R-- .... ....
....|..|E-4 UFDF ....|--- .... ....|C#2 2F.A ....
....|..|--- .... ....|--- .... ....|R-- .... ....
 E-4|..|G#3 UFDF ....|D#5 3FE7 ....|E-2 2A.F ....
....|..|--- .... ....|--- .... ....|R-- .... ....
 E-4|..|D#4 UFD7 ....|--- .... ....|E-2 2A.F ....
....|..|G#3 UFD7 ....|--- .... ....|R-- .... ....
 E-4|..|E-4 UFDF ....|E-5 3FEF ....|E-2 2A.F ....
....|..|--- .... ....|--- .... ....|--- .... ....
....|..|G#3 UFDF ....|--- .... ....|C#2 2F.7 ....
....|..|--- .... ....|--- .... ....|R-- .... ....
 E-4|..|E-4 UFDF ....|D#5 3FEF ....|E-2 2A.F ....
....|..|G#3 UFDF ....|--- .... ....|R-- .... ....
 E-4|..|E-4 UFD7 ....|--- .... ....|E-2 2A.F ....
....|..|--- .... ....|--- .... ....|R-- .... ....
....|..|G#3 UFD7 ....|E-5 3FEF ....|C#2 2F.7 ....
....|..|--- .... ....|--- .... ....|R-- .... ....
 E-4|..|E-4 UFDF ....|--- .... ....|E-2 2A.F ....
....|..|--- .... ....|--- .... ....|R-- .... ....
 E-4|..|G#3 UFDF ....|C#5 3FEF ....|E-2 2A.F ....
....|..|--- .... ....|--- .... ....|R-- .... ....
 E-4|..|F#3 UFD7 ....|--- .... ....|E-2 2A.F ....
....|..|--- .... ....|--- .... ....|R-- .... ....
 E-4|..|G#3 UFD7 ....|E-5 3FE7 ....|E-2 2A.F ....
....|..|G#3 UFDA ....|--- .... ....|--- .... ....
....|..|D#4 UFDF ....|--- .... ....|E-2 2F.A ....
....|..|--- .... ....|--- .... ....|R-- .... ....
 E-4|..|F#4 UFDF ....|E-5 3FEA ....|E-2 2A.F ....
....|..|--- .... ....|--- .... ....|R-- .... ....
....|..|D#4 UFDF ....|--- .... ....|E-2 2F.7 ....
....|..|--- .... ....|--- .... ....|R-- .... ....
 A-3|..|E-4 UFD7 ....|E-5 3FE7 ....|A-1 2A.F ....
....|..|--- .... ....|--- .... ....|R-- .... ....
....|..|G#3 UFD7 ....|--- .... ....|E-2 2F.A ....
....|..|--- .... ....|--- .... ....|R-- .... ....
 A-3|..|E-4 UFDF ....|D#5 3FE7 ....|A-1 2A.F ....
....|..|G#3 UFD7 ....|--- .... ....|R-- .... ....
 A-3|..|D#4 UFDA ....|--- .... ....|A-1 2A.F ....
....|..|--- .... ....|--- .... ....|R-- .... ....
 A-3|..|D#4 UFDF ....|E-5 3FE7 ....|A-1 2A.F ....
....|..|R-- .... ....|--- .... ....|--- .... ....
....|..|E-4 UFD7 ....|--- .... ....|E-2 2F.7 ....
....|..|--- .... ....|--- .... ....|R-- .... ....
 A-3|..|F#4 UFDF ....|C#5 3FE7 ....|A-1 2A.F ....
....|..|R-- .... ....|--- .... ....|R-- .... ....
 A-3|..|--- .... ....|--- .... ....|A-1 2A.F ....
....|..|--- .... ....|--- .... ....|R-- .... ....
....|..|E-4 UFDA ....|R-- .... ....|E-2 2F.7 ....
....|..|R-- .... ....|--- .... ....|R-- .... ....
 A-3|..|D#4 UFD7 ....|--- .... ....|A-1 2A.F ....
....|..|--- .... ....|--- .... ....|R-- .... ....
 A-3|..|E-4 UFDF ....|--- .... ....|A-1 2A.F ....
....|..|R-- .... ....|--- .... ....|R-- .... ....
 A-3|..|E-4 UFDF ....|--- .... ....|A-1 2A.F ....
....|..|--- .... ....|--- .... ....|R-- .... ....
 A-3|..|D#4 UFDF ....|--- .... ....|A-1 2A.F ....
....|..|R-- .... ....|--- .... ....|--- .... ....
....|..|R-- .... ....|--- .... ....|A-1 2F.A ....
....|..|--- .... ....|--- .... ....|R-- .... ....
 A-3|..|F#4 UFDF ....|D#5 3FEF ....|A-1 2A.F ....
....|..|R-- .... ....|--- .... ....|R-- .... ....
....|..|D#4 UFDF ....|--- .... ....|A-1 2F.7 ....
....|..|R-- .... ....|R-- .... ....|R-- .... ....

[Pattern6]
 G#3|..|D#4 UFD7 ....|E-5 3FEF ....|G#1 2A.F ....
....|..|R-- .... ....|--- .... ....|R-- .... ....
....|..|E-4 UFDA ....|--- .... ....|A-1 2F.A ....
....|..|--- .... ....|--- .... ....|R-- .... ....
 G#3|..|E-4 UFDF ....|R-- .... ....|G#1 2A.F ....
....|..|R-- .... ....|--- .... ....|R-- .... ....
 G#3|..|E-4 UFDF ....|--- .... ....|G#1 2A.F ....
....|..|R-- .... ....|--- .... ....|R-- .... ....
 G#3|..|D#4 UFDF ....|E-5 3FEF ....|G#1 2A.F ....
....|..|R-- .... ....|--- .... ....|--- .... ....
....|..|D#4 UFDA ....|--- .... ....|A-1 2F.7 ....
....|..|R-- .... ....|R-- .... ....|R-- .... ....
 G#3|..|F#4 UFDF ....|D#5 3FEF ....|G#1 2A.F ....
....|..|R-- .... ....|--- .... ....|R-- .... ....
 G#3|..|E-4 UFD7 ....|--- .... ....|G#1 2A.F ....
....|..|--- .... ....|--- .... ....|R-- .... ....
....|..|D#4 UFD7 ....|E-5 3FEF ....|A-1 2F.7 ....
....|..|R-- .... ....|--- .... ....|R-- .... ....
 G#3|..|E-4 UFDA ....|--- .... ....|G#1 2A.F ....
....|..|R-- .... ....|--- .... ....|R-- .... ....
 G#3|..|E-4 UFDF ....|C#5 3FEF ....|G#1 2A.F ....
....|..|R-- .... ....|--- .... ....|R-- .... ....
 G#3|..|E-4 UFDF ....|--- .... ....|G#1 2A.F ....
....|..|R-- .... ....|R-- .... ....|R-- .... ....
 G#3|..|D#4 UFDF ....|E-5 3FE7 ....|G#1 2A.F ....
....|..|R-- .... ....|--- .... ....|--- .... ....
....|..|--- .... ....|--- .... ....|G#1 2F.A ....
....|..|--- .... ....|--- .... ....|R-- .... ....
 E-4|..|F#4 UFDF ....|E-5 3FEA ....|E-2 2A.F ....
....|..|R-- .... ....|--- .... ....|R-- .... ....
....|..|E-4 UFD7 ....|--- .... ....|G#1 2F.7 ....
....|..|R-- .... ....|--- .... ....|R-- .... ....
 C#4|..|D#4 UFDF ....|E-5 3FE7 ....|C#2 2A.F ....
....|..|D#4 UFDF ....|--- .... ....|R-- .... ....
....|..|G#3 UFDF ....|--- .... ....|G#1 2F.A ....
....|..|R-- .... ....|--- .... ....|R-- .... ....
 C#4|..|E-4 UFDF ....|D#5 3FE7 ....|C#2 2A.F ....
....|..|R-- .... ....|--- .... ....|R-- .... ....
 C#4|..|D#4 UFDF ....|--- .... ....|C#2 2A.F ....
....|..|--- .... ....|--- .... ....|R-- .... ....
 C#4|..|G#3 UFDF ....|E-5 3FE7 ....|C#2 2A.F ....
....|..|R-- .... ....|--- .... ....|--- .... ....
....|..|D#4 UFDF ....|--- .... ....|G#1 2F.7 ....
....|..|D#4 UFDF ....|--- .... ....|R-- .... ....
 C#4|..|F#4 UFDF ....|C#5 3FE7 ....|C#2 2A.F ....
....|..|D#4 UFDA ....|--- .... ....|R-- .... ....
 C#4|..|D#4 UFDF ....|--- .... ....|C#2 2A.F ....
....|..|R-- .... ....|--- .... ....|R-- .... ....
....|..|G#3 UFDF ....|R-- .... ....|G#1 2F.7 ....
....|..|R-- .... ....|--- .... ....|R-- .... ....
 C#4|..|G#3 UFDF ....|--- .... ....|C#2 2A.F ....
....|..|--- .... ....|--- .... ....|R-- .... ....
 C#4|..|D#4 UFDF ....|--- .... ....|C#2 2A.F ....
....|..|G#3 UFDF ....|--- .... ....|R-- .... ....
 C#4|..|E-4 UFDF ....|--- .... ....|C#2 2A.F ....
....|..|D#4 UFDA ....|--- .... ....|R-- .... ....
 C#4|..|G#3 UFDF ....|--- .... ....|C#2 2A.F ....
....|..|D#4 UFD7 ....|--- .... ....|--- .... ....
....|..|E-4 UFDF ....|--- .... ....|C#2 2F.A ....
....|..|R-- .... ....|--- .... ....|R-- .... ....
 B-3|..|F#4 UFDF ....|--- .... ....|B-1 2A.F ....
....|..|R-- .... ....|--- .... ....|R-- .... ....
....|..|F#3 UFDF ....|--- .... ....|C#2 2F.7 ....
....|..|--- .... ....|--- .... ....|R-- .... ....
....|..|G#3 UFDF ....|E-5 3FEF ....|C#2 2F.7 ....
....|..|G#3 UFDA ....|--- .... ....|R-- .... ....
....|..|D#4 UFD7 ....|--- .... ....|C#2 2F.A ....
....|..|D#4 UFD7 ....|--- .... ....|R-- .... ....
....|..|E-4 UFDF ....|R-- .... ....|C#2 2F.7 ....
....|..|G#3 UFDF ....|--- .... ....|--- .... ....
....|..|D#4 UFD7 ....|--- .... ....|C#2 2F.7 ....
....|..|R-- .... ....|--- .... ....|R-- .... ....
....|..|D#4 UFDF ....|E-5 3FEF ....|B-1 2F.A ....
....|..|R-- .... ....|--- .... ....|--- .... ....
....|..|G#3 UFDF ....|--- .... ....|C#2 2F.7 ....
....|..|--- .... ....|--- .... ....|R-- .... ....
....|..|F#4 UFDF ....|D#5 3FEF ....|C#2 2F.7 ....
....|..|F#4 UFDF ....|--- .... ....|R-- .... ....
....|..|E-4 UFD7 ....|--- .... ....|C#2 2F.7 ....
....|..|--- .... ....|--- .... ....|--- .... ....
....|..|G#3 UFD7 ....|E-5 3FEF ....|C#2 2F.7 ....
....|..|G#3 UFDA ....|--- .... ....|--- .... ....
....|..|E-4 UFD7 ....|--- .... ....|--- .... ....
....|..|--- .... ....|--- .... ....|R-- .... ....
....|..|E-4 UFDF ....|F#5 3FEF ....|B-1 2F.7 ....
....|..|R-- .... ....|--- .... ....|--- .... ....
....|..|E-4 UFDF ....|--- .... ....|--- .... ....
....|..|E-3 UFDF ....|--- .... ....|--- .... ....
....|..|D#4 UFDF ....|E-5 3FE7 ....|R-- .... ....
....|..|F#4 UFDA ....|--- .... ....|--- .... ....
....|..|D#4 UFDF ....|--- .... ....|--- .... ....
....|..|D#4 UFDF ....|--- .... ....|--- .... ....
....|..|F#4 UFDF ....|E-5 3FEA ....|--- .... ....
....|..|F#3 UFDF ....|--- .... ....|--- .... ....
....|..|D#4 UFDF ....|--- .... ....|--- .... ....
....|..|--- .... ....|--- .... ....|--- .... ....
....|..|D#4 UFD7 ....|F#5 3FEF ....|--- .... ....
....|..|R-- .... ....|--- .... ....|--- .... ....
....|..|G#3 UFD7 ....|--- .... ....|--- .... ....
....|..|E-3 UFDA ....|--- .... ....|--- .... ....
....|..|F#4 UFD7 ....|D#5 3FE7 ....|--- .... ....
....|..|F#4 UFD7 ....|--- .... ....|--- .... ....
....|..|D#4 UFDA ....|--- .... ....|--- .... ....
....|..|D#4 UFDA ....|F#5 3FEF ....|--- .... ....
....|..|F#4 UFDA ....|F#5 3FEF ....|--- .... ....
....|..|F#3 UFDA ....|F#5 3FEF ....|--- .... ....
....|..|D#4 UFDA ....|--- .... ....|--- .... ....
....|..|--- .... ....|--- .... ....|--- .... ....
....|..|E-4 UFD7 ....|F#5 3FEF ....|--- .... ....
....|..|R-- .... ....|--- .... ....|--- .... ....
....|..|E-4 UFD7 ....|F#5 3FEF ....|--- .... ....
....|..|E-3 UFD7 ....|--- .... ....|--- .... ....
....|..|D#4 UFD7 ....|F#5 3FEF ....|--- .... ....
....|..|R-- .... ....|--- .... ....|--- .... ....
....|..|D#4 UFD7 ....|--- .... ....|--- .... ....
....|..|D#4 UFD7 ....|F#5 3FEA ....|--- .... ....
....|..|F#4 UFD7 ....|F#5 3FEA ....|--- .... ....
....|..|F#3 UFD7 ....|F#5 3FEA ....|--- .... ....
....|..|D#4 UFD7 ....|--- .... ....|--- .... ....
....|..|--- .... ....|E-4 3FEF ....|--- .... ....
....|..|R-- .... ....|F#5 3FE7 ....|--- .... ....
....|..|--- .... ....|--- .... ....|--- .... ....
....|..|--- .... ....|F#5 3FEA ....|--- .... ....
....|..|--- .... ....|--- .... ....|--- .... ....
....|..|--- .... ....|F#5 3FEA ....|--- .... ....
....|..|--- .... ....|--- .... ....|--- .... ....
....|..|--- .... ....|--- .... ....|--- .... ....
....|..|--- .... ....|F#5 3FE7 ....|--- .... ....

[Pattern7]
....|..|--- .... ....|E-4 3FEF ....|--- .... ....
....|..|--- .... ....|F#5 3FE7 ....|--- .... ....
....|..|--- .... ....|--- .... ....|--- .... ....
....|..|--- .... ....|E-4 3FEA ....|--- .... ....
....|..|--- .... ....|F#5 3FE7 ....|--- .... ....
....|..|--- .... ....|R-- .... ....|--- .... ....
....|..|--- .... ....|F#5 3FE7 ....|--- .... ....
....|..|--- .... ....|--- .... ....|--- .... ....
....|..|--- .... ....|E-4 3FEF ....|--- .... ....
....|..|--- .... ....|--- .... ....|--- .... ....
....|..|--- .... ....|R-- .... ....|--- .... ....
....|..|--- .... ....|--- .... ....|--- .... ....
....|..|--- .... ....|D#4 3FEF ....|--- .... ....
....|..|--- .... ....|--- .... ....|--- .... ....
....|..|--- .... ....|R-- .... ....|--- .... ....
....|..|--- .... ....|E-4 3FE7 ....|--- .... ....
....|..|--- .... ....|E-4 3FEF ....|--- .... ....
....|..|--- .... ....|R-- .... ....|--- .... ....
....|..|--- .... ....|--- .... ....|--- .... ....
....|..|--- .... ....|--- .... ....|--- .... ....
....|..|--- .... ....|F#4 3FEF ....|--- .... ....
....|..|--- .... ....|--- .... ....|--- .... ....
....|..|--- .... ....|R-- .... ....|--- .... ....
....|..|--- .... ....|--- .... ....|--- .... ....
....|..|--- .... ....|E-4 3FE7 ....|--- .... ....
....|..|--- .... ....|--- .... ....|--- .... ....
....|..|--- .... ....|R-- .... ....|--- .... ....
....|..|--- .... ....|--- .... ....|--- .... ....
....|..|--- .... ....|E-4 3FEA ....|--- .... ....
....|..|--- .... ....|R-- .... ....|--- .... ....
....|..|--- .... ....|R-- .... ....|--- .... ....
....|..|--- .... ....|--- .... ....|--- .... ....
....|..|--- .... ....|E-4 3FE7 ....|--- .... ....
....|..|--- .... ....|--- .... ....|--- .... ....
....|..|--- .... ....|R-- .... ....|--- .... ....
....|..|--- .... ....|--- .... ....|--- .... ....
....|..|--- .... ....|D#4 3FE7 ....|--- .... ....
....|..|--- .... ....|--- .... ....|--- .... ....
....|..|--- .... ....|R-- .... ....|--- .... ....
....|..|--- .... ....|--- .... ....|--- .... ....
....|..|--- .... ....|E-4 3FEF ....|--- .... ....
....|..|--- .... ....|--- .... ....|--- .... ....
....|..|--- .... ....|R-- .... ....|--- .... ....
....|..|--- .... ....|--- .... ....|--- .... ....
....|..|--- .... ....|D#4 3FEF ....|--- .... ....
....|..|--- .... ....|R-- .... ....|--- .... ....
....|..|--- .... ....|--- .... ....|--- .... ....
....|..|--- .... ....|--- .... ....|--- .... ....
....|..|--- .... ....|E-4 3FEF ....|--- .... ....
....|..|--- .... ....|--- .... ....|--- .... ....
....|..|--- .... ....|--- .... ....|--- .... ....
....|..|--- .... ....|--- .... ....|--- .... ....
....|..|--- .... ....|E-4 3FEA ....|--- .... ....
....|..|--- .... ....|--- .... ....|--- .... ....
....|..|--- .... ....|R-- .... ....|--- .... ....
....|..|--- .... ....|R-- .... ....|--- .... ....
....|..|--- .... ....|D#4 3FEA ....|--- .... ....
....|..|--- .... ....|R-- .... ....|--- .... ....
....|..|--- .... ....|--- .... ....|--- .... ....
....|..|--- .... ....|--- .... ....|--- .... ....
....|..|--- .... ....|E-4 3FEA ....|--- .... ....
....|..|--- .... ....|--- .... ....|--- .... ....
....|..|--- .... ....|--- .... ....|--- .... ....
....|..|--- .... ....|--- .... ....|--- .... ....
....|..|--- .... ....|E-4 3FE7 ....|--- .... ....
....|..|--- .... ....|--- .... ....|--- .... ....
....|..|--- .... ....|R-- .... ....|--- .... ....
....|..|--- .... ....|R-- .... ....|--- .... ....
....|..|--- .... ....|E-4 3FEF ....|--- .... ....
....|..|--- .... ....|R-- .... ....|--- .... ....
....|..|--- .... ....|--- .... ....|--- .... ....
....|..|--- .... ....|--- .... ....|--- .... ....
....|..|--- .... ....|E-4 3FEF ....|--- .... ....
....|..|--- .... ....|--- .... ....|--- .... ....
....|..|--- .... ....|R-- .... ....|--- .... ....
....|..|--- .... ....|--- .... ....|--- .... ....
....|..|--- .... ....|D#4 3FEF ....|--- .... ....
....|..|--- .... ....|--- .... ....|--- .... ....
....|..|--- .... ....|--- .... ....|--- .... ....
....|..|--- .... ....|R-- .... ....|--- .... ....
....|..|--- .... ....|E-4 3FEF ....|--- .... ....
....|..|--- .... ....|R-- .... ....|--- .... ....
....|..|--- .... ....|--- .... ....|--- .... ....
....|..|--- .... ....|--- .... ....|--- .... ....
....|..|--- .... ....|F#4 3FEF ....|--- .... ....
....|..|--- .... ....|--- .... ....|--- .... ....
....|..|--- .... ....|R-- .... ....|--- .... ....
....|..|--- .... ....|--- .... ....|--- .... ....
....|..|--- .... ....|D#4 3FEA ....|--- .... ....
....|..|--- .... ....|--- .... ....|--- .... ....
....|..|--- .... ....|--- .... ....|--- .... ....
....|..|--- .... ....|R-- .... ....|--- .... ....
....|..|--- .... ....|E-4 3FE7 ....|--- .... ....
....|..|--- .... ....|R-- .... ....|--- .... ....
....|..|--- .... ....|--- .... ....|--- .... ....
....|..|--- .... ....|--- .... ....|--- .... ....
....|..|--- .... ....|E-4 3FEF ....|--- .... ....
....|..|--- .... ....|--- .... ....|--- .... ....
....|..|--- .... ....|R-- .... ....|--- .... ....
....|..|--- .... ....|--- .... ....|--- .... ....
....|..|--- .... ....|D#4 3FE7 ....|--- .... ....
....|..|--- .... ....|--- .... ....|--- .... ....
....|..|--- .... ....|R-- .... ....|--- .... ....
....|..|--- .... ....|R-- .... ....|--- .... ....
....|..|--- .... ....|E-4 3FEF ....|--- .... ....
....|..|--- .... ....|--- .... ....|--- .... ....
....|..|--- .... ....|--- .... ....|--- .... ....
....|..|--- .... ....|R-- .... ....|--- .... ....
....|..|--- .... ....|D#4 3FEF ....|--- .... ....
....|..|--- .... ....|--- .... ....|--- .... ....
....|..|--- .... ....|--- .... ....|--- .... ....
....|..|--- .... ....|R-- .... ....|--- .... ....
....|..|--- .... ....|E-4 3FEF ....|--- .... ....
....|..|--- .... ....|--- .... ....|--- .... ....
....|..|--- .... ....|R-- .... ....|--- .... ....
....|..|--- .... ....|--- .... ....|--- .... ....
....|..|--- .... ....|E-4 3FEA ....|--- .... ....
....|..|--- .... ....|--- .... ....|--- .... ....
....|..|--- .... ....|--- .... ....|--- .... ....
....|..|--- .... ....|R-- .... ....|--- .... ....
....|..|--- .... ....|E-4 3FE7 ....|--- .... ....
....|..|--- .... ....|--- .... ....|--- .... ....
....|..|--- .... ....|--- .... ....|--- .... ....
....|..|--- .... ....|R-- .... ....|--- .... ....
....|..|--- .... ....|E-4 3FEA ....|--- .... ....
....|..|--- .... ....|--- .... ....|--- .... ....
....|..|--- .... ....|R-- .... ....|--- .... ....
....|..|--- .... ....|--- .... ....|--- .... ....

[Pattern8]
....|..|--- .... ....|E-4 3FE7 ....|--- .... ....
....|..|--- .... ....|--- .... ....|--- .... ....
....|..|--- .... ....|--- .... ....|--- .... ....
....|..|--- .... ....|R-- .... ....|--- .... ....
....|..|--- .... ....|E-4 3FEF ....|--- .... ....
....|..|--- .... ....|R-- .... ....|--- .... ....
....|..|--- .... ....|--- .... ....|--- .... ....
....|..|--- .... ....|R-- .... ....|--- .... ....
....|..|--- .... ....|E-4 3FEF ....|--- .... ....
....|..|--- .... ....|--- .... ....|--- .... ....
....|..|--- .... ....|R-- .... ....|--- .... ....
....|..|--- .... ....|--- .... ....|--- .... ....
....|..|--- .... ....|D#4 3FEF ....|--- .... ....
....|..|--- .... ....|--- .... ....|--- .... ....
....|..|--- .... ....|R-- .... ....|--- .... ....
....|..|--- .... ....|--- .... ....|--- .... ....
....|..|--- .... ....|E-4 3FEF ....|--- .... ....
....|..|--- .... ....|R-- .... ....|--- .... ....
....|..|--- .... ....|--- .... ....|--- .... ....
....|..|--- .... ....|--- .... ....|--- .... ....
....|..|--- .... ....|F#4 3FEF ....|--- .... ....
....|..|--- .... ....|--- .... ....|--- .... ....
....|..|--- .... ....|R-- .... ....|--- .... ....
....|..|--- .... ....|--- .... ....|--- .... ....
....|..|--- .... ....|D#4 3FEA ....|--- .... ....
....|..|--- .... ....|--- .... ....|--- .... ....
....|..|--- .... ....|R-- .... ....|--- .... ....
....|..|--- .... ....|--- .... ....|--- .... ....
....|..|--- .... ....|E-4 3FE7 ....|--- .... ....
....|..|--- .... ....|R-- .... ....|--- .... ....
....|..|--- .... ....|R-- .... ....|--- .... ....
....|..|--- .... ....|--- .... ....|--- .... ....
....|..|--- .... ....|E-4 3FEF ....|--- .... ....
....|..|--- .... ....|--- .... ....|--- .... ....
....|..|--- .... ....|R-- .... ....|--- .... ....
....|..|--- .... ....|--- .... ....|--- .... ....
....|..|--- .... ....|D#4 3FE7 ....|--- .... ....
....|..|--- .... ....|--- .... ....|--- .... ....
....|..|--- .... ....|R-- .... ....|--- .... ....
....|..|--- .... ....|R-- .... ....|--- .... ....
....|..|--- .... ....|E-4 3FEF ....|--- .... ....
....|..|--- .... ....|--- .... ....|--- .... ....
....|..|--- .... ....|R-- .... ....|--- .... ....
....|..|--- .... ....|--- .... ....|--- .... ....
....|..|--- .... ....|D#4 3FEF ....|--- .... ....
....|..|--- .... ....|R-- .... ....|--- .... ....
....|..|--- .... ....|--- .... ....|--- .... ....
....|..|--- .... ....|--- .... ....|--- .... ....
....|..|--- .... ....|E-4 3FEF ....|--- .... ....
....|..|--- .... ....|--- .... ....|--- .... ....
....|..|--- .... ....|--- .... ....|--- .... ....
....|..|--- .... ....|R-- .... ....|--- .... ....
....|..|--- .... ....|E-4 3FEA ....|--- .... ....
....|..|--- .... ....|--- .... ....|--- .... ....
....|..|--- .... ....|R-- .... ....|--- .... ....
....|..|--- .... ....|R-- .... ....|--- .... ....
....|..|--- .... ....|E-4 3FE7 ....|--- .... ....
....|..|--- .... ....|R-- .... ....|--- .... ....
....|..|--- .... ....|--- .... ....|--- .... ....
....|..|--- .... ....|--- .... ....|--- .... ....
....|..|--- .... ....|B-3 3FEF ....|--- .... ....
....|..|--- .... ....|--- .... ....|--- .... ....
....|..|--- .... ....|--- .... ....|--- .... ....
....|..|--- .... ....|R-- .... ....|--- .... ....
....|..|--- .... ....|E-4 3FEF ....|--- .... ....
....|..|--- .... ....|--- .... ....|--- .... ....
....|..|--- .... ....|R-- .... ....|--- .... ....
....|..|--- .... ....|R-- .... ....|--- .... ....
....|..|--- .... ....|D#4 3FE7 ....|--- .... ....
....|..|--- .... ....|R-- .... ....|--- .... ....
....|..|--- .... ....|--- .... ....|--- .... ....
....|..|--- .... ....|--- .... ....|--- .... ....
....|..|--- .... ....|E-4 3FEF ....|--- .... ....
....|..|--- .... ....|--- .... ....|--- .... ....
....|..|--- .... ....|--- .... ....|--- .... ....
....|..|--- .... ....|R-- .... ....|--- .... ....
....|..|--- .... ....|D#4 3FEF ....|--- .... ....
....|..|--- .... ....|--- .... ....|--- .... ....
....|..|--- .... ....|R-- .... ....|--- .... ....
....|..|--- .... ....|R-- .... ....|--- .... ....
....|..|--- .... ....|A-4 3FEF ....|--- .... ....
....|..|--- .... ....|R-- .... ....|--- .... ....
....|..|--- .... ....|--- .... ....|--- .... ....
....|..|--- .... ....|R-- .... ....|--- .... ....
....|..|--- .... ....|G#4 3FEF ....|--- .... ....
....|..|--- .... ....|--- .... ....|--- .... ....
....|..|--- .... ....|--- .... ....|--- .... ....
....|..|--- .... ....|R-- .... ....|--- .... ....
....|..|--- .... ....|E-4 3FE7 ....|--- .... ....
....|..|--- .... ....|--- .... ....|--- .... ....
....|..|--- .... ....|R-- .... ....|--- .... ....
....|..|--- .... ....|--- .... ....|--- .... ....
....|..|--- .... ....|A-4 3FEA ....|--- .... ....
....|..|--- .... ....|R-- .... ....|--- .... ....
....|..|--- .... ....|--- .... ....|--- .... ....
....|..|--- .... ....|R-- .... ....|--- .... ....
 A-3|..|--- .... ....|E-4 3FEF ....|A-1 2A.F ....
....|..|--- .... ....|--- .... ....|--- .... ....
....|..|--- .... ....|--- .... ....|--- .... ....
....|..|--- .... ....|R-- .... ....|R-- .... ....
 A-3|..|--- .... ....|D#4 3FE7 ....|A-1 2A.F ....
....|..|--- .... ....|R-- .... ....|R-- .... ....
 A-3|..|--- .... ....|R-- .... ....|A-1 2A.F ....
....|..|--- .... ....|--- .... ....|R-- .... ....
 A-3|..|--- .... ....|E-4 3FEF ....|A-1 2A.F ....
....|..|--- .... ....|--- .... ....|--- .... ....
....|..|--- .... ....|--- .... ....|--- .... ....
....|..|--- .... ....|R-- .... ....|R-- .... ....
 A-3|..|--- .... ....|D#4 3FEF ....|A-1 2A.F ....
....|..|--- .... ....|--- .... ....|--- .... ....
 A-3|..|--- .... ....|--- .... ....|A-1 2A.F ....
....|..|--- .... ....|--- .... ....|R-- .... ....
....|..|--- .... ....|E-4 3FEF ....|A-1 2F.A ....
....|..|--- .... ....|R-- .... ....|R-- .... ....
 A-3|..|--- .... ....|R-- .... ....|A-1 2A.F ....
....|..|--- .... ....|--- .... ....|R-- .... ....
 A-3|..|--- .... ....|E-4 3FEA ....|A-1 2A.F ....
....|..|--- .... ....|--- .... ....|R-- .... ....
 A-3|..|--- .... ....|--- .... ....|A-1 2A.F ....
....|..|--- .... ....|R-- .... ....|R-- .... ....
 A-3|..|--- .... ....|E-4 3FE7 ....|A-1 2A.F ....
....|..|--- .... ....|--- .... ....|--- .... ....
....|..|--- .... ....|--- .... ....|A-1 2F.A ....
....|..|--- .... ....|--- .... ....|R-- .... ....
 A-3|..|--- .... ....|E-4 3FEA ....|A-1 2A.F ....
....|..|--- .... ....|R-- .... ....|R-- .... ....
....|..|--- .... ....|--- .... ....|A-1 2F.7 ....
....|..|--- .... ....|--- .... ....|R-- .... ....

[Pattern9]
 G#3|..|--- .... ....|E-4 3FEF ....|G#1 2A.F ....
....|..|--- .... ....|--- .... ....|R-- .... ....
....|..|--- .... ....|--- .... ....|A-1 2F.A ....
....|..|--- .... ....|R-- .... ....|R-- .... ....
 G#3|..|--- .... ....|D#4 3FE7 ....|G#1 2A.F ....
....|..|--- .... ....|--- .... ....|R-- .... ....
 G#3|..|--- .... ....|--- .... ....|G#1 2A.F ....
....|..|--- .... ....|--- .... ....|R-- .... ....
 G#3|..|--- .... ....|E-4 3FEF ....|G#1 2A.F ....
....|..|--- .... ....|--- .... ....|--- .... ....
....|..|--- .... ....|--- .... ....|A-1 2F.7 ....
....|..|--- .... ....|R-- .... ....|R-- .... ....
 G#3|..|--- .... ....|D#4 3FEF ....|G#1 2A.F ....
....|..|--- .... ....|--- .... ....|R-- .... ....
 G#3|..|--- .... ....|--- .... ....|G#1 2A.F ....
....|..|--- .... ....|R-- .... ....|R-- .... ....
....|..|--- .... ....|E-4 3FEF ....|A-1 2F.7 ....
....|..|--- .... ....|--- .... ....|R-- .... ....
 G#3|..|--- .... ....|--- .... ....|G#1 2A.F ....
....|..|--- .... ....|R-- .... ....|R-- .... ....
 G#3|..|--- .... ....|F#4 3FEF ....|G#1 2A.F ....
....|..|--- .... ....|--- .... ....|R-- .... ....
 G#3|..|--- .... ....|--- .... ....|G#1 2A.F ....
....|..|--- .... ....|R-- .... ....|R-- .... ....
 G#3|..|--- .... ....|E-4 3FE7 ....|G#1 2A.F ....
....|..|--- .... ....|--- .... ....|--- .... ....
....|..|--- .... ....|--- .... ....|G#1 2F.A ....
....|..|--- .... ....|R-- .... ....|R-- .... ....
 E-4|..|--- .... ....|E-4 3FEA ....|E-2 2A.F ....
....|..|--- .... ....|--- .... ....|R-- .... ....
....|..|--- .... ....|--- .... ....|G#1 2F.7 ....
....|..|--- .... ....|R-- .... ....|R-- .... ....
 C#4|..|--- .... ....|E-4 3FE7 ....|C#2 2A.F ....
....|..|--- .... ....|--- .... ....|R-- .... ....
....|..|--- .... ....|--- .... ....|G#1 2F.A ....
....|..|--- .... ....|R-- .... ....|R-- .... ....
 C#4|..|--- .... ....|E-4 3FEF ....|C#2 2A.F ....
....|..|--- .... ....|--- .... ....|R-- .... ....
 C#4|..|--- .... ....|--- .... ....|C#2 2A.F ....
....|..|--- .... ....|R-- .... ....|R-- .... ....
 C#4|..|--- .... ....|E-4 3FEF ....|C#2 2A.F ....
....|..|--- .... ....|--- .... ....|--- .... ....
....|..|--- .... ....|R-- .... ....|G#1 2F.7 ....
....|..|--- .... ....|R-- .... ....|R-- .... ....
 C#4|..|--- .... ....|D#4 3FEF ....|C#2 2A.F ....
....|..|--- .... ....|--- .... ....|R-- .... ....
 C#4|..|--- .... ....|--- .... ....|C#2 2A.F ....
....|..|--- .... ....|R-- .... ....|R-- .... ....
....|..|--- .... ....|E-4 3FEF ....|G#1 2F.7 ....
....|..|--- .... ....|--- .... ....|R-- .... ....
 C#4|..|--- .... ....|--- .... ....|C#2 2A.F ....
....|..|--- .... ....|R-- .... ....|R-- .... ....
 C#4|..|--- .... ....|E-4 3FEA ....|C#2 2A.F ....
....|..|--- .... ....|--- .... ....|R-- .... ....
 C#4|..|--- .... ....|R-- .... ....|C#2 2A.F ....
....|..|--- .... ....|--- .... ....|R-- .... ....
 C#4|..|--- .... ....|D#4 3FEA ....|C#2 2A.F ....
....|..|--- .... ....|--- .... ....|--- .... ....
....|..|--- .... ....|--- .... ....|C#2 2F.A ....
....|..|--- .... ....|R-- .... ....|R-- .... ....
 B-3|..|--- .... ....|E-4 3FE7 ....|B-1 2A.F ....
....|..|--- .... ....|--- .... ....|R-- .... ....
....|..|--- .... ....|--- .... ....|C#2 2F.7 ....
....|..|--- .... ....|R-- .... ....|R-- .... ....
 E-4|..|--- .... ....|E-4 3FEF ....|E-2 2A.F ....
....|..|--- .... ....|--- .... ....|R-- .... ....
....|..|--- .... ....|R-- .... ....|C#2 2F.A ....
....|..|--- .... ....|--- .... ....|R-- .... ....
 E-4|..|--- .... ....|D#4 3FE7 ....|E-2 2A.F ....
....|..|--- .... ....|--- .... ....|R-- .... ....
 E-4|..|--- .... ....|R-- .... ....|E-2 2A.F ....
....|..|--- .... ....|R-- .... ....|R-- .... ....
 E-4|..|--- .... ....|E-4 3FEF ....|E-2 2A.F ....
....|..|--- .... ....|--- .... ....|--- .... ....
....|..|--- .... ....|R-- .... ....|C#2 2F.7 ....
....|..|--- .... ....|--- .... ....|R-- .... ....
 E-4|..|--- .... ....|D#4 3FEF ....|E-2 2A.F ....
....|..|--- .... ....|--- .... ....|R-- .... ....
 E-4|..|--- .... ....|R-- .... ....|E-2 2A.F ....
....|..|--- .... ....|--- .... ....|R-- .... ....
....|..|--- .... ....|E-4 3FEF ....|C#2 2F.7 ....
....|..|--- .... ....|--- .... ....|R-- .... ....
 E-4|..|--- .... ....|R-- .... ....|E-2 2A.F ....
....|..|--- .... ....|--- .... ....|R-- .... ....
 E-4|..|--- .... ....|F#4 3FEF ....|E-2 2A.F ....
....|..|--- .... ....|--- .... ....|R-- .... ....
 E-4|..|--- .... ....|R-- .... ....|E-2 2A.F ....
....|..|--- .... ....|--- .... ....|R-- .... ....
 E-4|..|--- .... ....|E-4 3FE7 ....|E-2 2A.F ....
....|..|--- .... ....|R-- .... ....|--- .... ....
....|..|--- .... ....|R-- .... ....|E-2 2F.A ....
....|..|--- .... ....|--- .... ....|R-- .... ....
 E-4|..|--- .... ....|E-4 3FEA ....|E-2 2A.F ....
....|..|--- .... ....|--- .... ....|R-- .... ....
....|..|--- .... ....|R-- .... ....|E-2 2F.7 ....
....|..|--- .... ....|--- .... ....|R-- .... ....
 A-3|..|--- .... ....|E-4 3FEF ....|A-1 2A.F ....
....|..|--- .... ....|--- .... ....|R-- .... ....
....|..|--- .... ....|R-- .... ....|E-2 2F.A ....
....|..|--- .... ....|--- .... ....|R-- .... ....
....|..|--- .... ....|D#4 3FE7 ....|E-2 2F.7 ....
....|..|--- .... ....|R-- .... ....|--- .... ....
....|..|--- .... ....|A-4 UFFF ....|E-2 2F.7 ....
....|..|--- .... ....|--- .... ....|R-- .... ....
....|..|--- .... ....|E-4 3FEF ....|E-2 2F.A ....
....|..|--- .... ....|--- .... ....|--- .... ....
....|..|--- .... ....|--- .... ....|E-2 2F.7 ....
....|..|--- .... ....|R-- .... ....|R-- .... ....
....|..|--- .... ....|D#4 3FEF ....|E-2 2F.7 ....
....|..|--- .... ....|--- .... ....|R-- .... ....
....|..|--- .... ....|R-- .... ....|E-2 2F.7 ....
....|..|--- .... ....|--- .... ....|R-- .... ....
....|..|--- .... ....|E-4 3FEF ....|E-2 2F.7 ....
....|..|--- .... ....|R-- .... ....|--- .... ....
....|..|--- .... ....|A-4 UFFA ....|--- .... ....
....|..|--- .... ....|--- .... ....|R-- .... ....
....|..|--- .... ....|D#5 UFFF ....|E-2 2F.7 ....
....|..|--- .... ....|--- .... ....|--- .... ....
....|..|--- .... ....|D#5 UFFF ....|--- .... ....
....|..|--- .... ....|A-4 UFFF ....|--- .... ....
....|..|--- .... ....|E-5 UFFF ....|A-1 2F.7 ....
....|..|--- .... ....|E-5 UFFF ....|--- .... ....
....|..|--- .... ....|R-- .... ....|--- .... ....
....|..|--- .... ....|R-- .... ....|R-- .... ....
....|..|--- .... ....|B-3 3FEF ....|--- .... ....
....|..|--- .... ....|R-- .... ....|--- .... ....
....|..|--- .... ....|A-4 UFFF ....|--- .... ....
....|..|--- .... ....|R-- .... ....|--- .... ....

[Pattern10]
....|..|--- .... ....|E-4 3FEF ....|--- .... ....
....|..|--- .... ....|E-5 UFFF ....|--- .... ....
....|..|--- .... ....|D#5 UFFA ....|--- .... ....
....|..|--- .... ....|A-4 UFFA ....|--- .... ....
....|..|--- .... ....|D#5 UFFF ....|--- .... ....
....|..|--- .... ....|E-5 UFFA ....|--- .... ....
....|..|--- .... ....|B-4 UFFF ....|--- .... ....
....|..|--- .... ....|R-- .... ....|--- .... ....
....|..|--- .... ....|E-4 3FEF ....|--- .... ....
....|..|--- .... ....|E-5 UFFF ....|--- .... ....
....|..|--- .... ....|A-4 UFFA ....|--- .... ....
....|..|--- .... ....|R-- .... ....|--- .... ....
....|..|--- .... ....|D#4 3FEF ....|--- .... ....
....|..|--- .... ....|E-5 UFFA ....|--- .... ....
....|..|--- .... ....|B-4 UFFF ....|--- .... ....
....|..|--- .... ....|A-4 UFF7 ....|--- .... ....
....|..|--- .... ....|E-4 3FEF ....|--- .... ....
....|..|--- .... ....|E-5 UFFF ....|--- .... ....
....|..|--- .... ....|B-4 UFFA ....|--- .... ....
....|..|--- .... ....|R-- .... ....|--- .... ....
....|..|--- .... ....|F#4 3FEF ....|--- .... ....
....|..|--- .... ....|E-5 UFFA ....|--- .... ....
....|..|--- .... ....|B-4 UFFF ....|--- .... ....
....|..|--- .... ....|R-- .... ....|--- .... ....
....|..|--- .... ....|E-5 UFFF ....|--- .... ....
....|..|--- .... ....|E-5 UFFF ....|--- .... ....
....|..|--- .... ....|B-4 UFFA ....|--- .... ....
....|..|--- .... ....|R-- .... ....|--- .... ....
....|..|--- .... ....|D#5 UFFF ....|--- .... ....
....|..|--- .... ....|E-5 UFFA ....|--- .... ....
....|..|--- .... ....|B-4 UFFF ....|--- .... ....
....|..|--- .... ....|R-- .... ....|--- .... ....
....|..|--- .... ....|E-4 3FEF ....|--- .... ....
....|..|--- .... ....|E-5 UFFF ....|--- .... ....
....|..|--- .... ....|B-4 UFFA ....|--- .... ....
....|..|--- .... ....|R-- .... ....|--- .... ....
....|..|--- .... ....|D#5 UFFF ....|--- .... ....
....|..|--- .... ....|E-5 UFFA ....|--- .... ....
....|..|--- .... ....|C#5 UFFF ....|--- .... ....
....|..|--- .... ....|R-- .... ....|--- .... ....
....|..|--- .... ....|E-4 3FEF ....|--- .... ....
....|..|--- .... ....|E-5 UFFF ....|--- .... ....
....|..|--- .... ....|B-4 UFFA ....|--- .... ....
....|..|--- .... ....|R-- .... ....|--- .... ....
....|..|--- .... ....|D#4 3FEF ....|--- .... ....
....|..|--- .... ....|E-5 UFFA ....|--- .... ....
....|..|--- .... ....|C#5 UFFF ....|--- .... ....
....|..|--- .... ....|R-- .... ....|--- .... ....
....|..|--- .... ....|E-4 3FEF ....|--- .... ....
....|..|--- .... ....|E-5 UFFF ....|--- .... ....
....|..|--- .... ....|C#5 UFFA ....|--- .... ....
....|..|--- .... ....|R-- .... ....|--- .... ....
....|..|--- .... ....|C#4 3FEF ....|--- .... ....
....|..|--- .... ....|E-5 UFFA ....|--- .... ....
....|..|--- .... ....|C#5 UFFF ....|--- .... ....
....|..|--- .... ....|--- .... ....|--- .... ....
....|..|--- .... ....|E-5 UFFF ....|--- .... ....
....|..|--- .... ....|E-5 UFFF ....|--- .... ....
....|..|--- .... ....|C#5 UFFA ....|--- .... ....
....|..|--- .... ....|R-- .... ....|--- .... ....
....|..|--- .... ....|D#5 UFFF ....|--- .... ....
....|..|--- .... ....|E-5 UFFA ....|--- .... ....
....|..|--- .... ....|C#5 UFFF ....|--- .... ....
....|..|--- .... ....|--- .... ....|--- .... ....
....|..|--- .... ....|E-5 3FEF ....|--- .... ....
....|..|--- .... ....|E-5 UFFF ....|--- .... ....
....|..|--- .... ....|C#5 UFFA ....|--- .... ....
....|..|--- .... ....|--- .... ....|--- .... ....
....|..|--- .... ....|D#4 3FE7 ....|--- .... ....
....|..|--- .... ....|B-4 UFFF ....|--- .... ....
....|..|--- .... ....|C#5 UFF7 ....|--- .... ....
....|..|--- .... ....|R-- .... ....|--- .... ....
....|..|--- .... ....|E-5 3FEF ....|--- .... ....
....|..|--- .... ....|E-5 UFF7 ....|--- .... ....
....|..|--- .... ....|C#5 UFFA ....|--- .... ....
....|..|--- .... ....|--- .... ....|--- .... ....
....|..|--- .... ....|D#5 3FEF ....|--- .... ....
....|..|--- .... ....|E-5 UFFA ....|--- .... ....
....|..|--- .... ....|C#5 UFF7 ....|--- .... ....
....|..|--- .... ....|R-- .... ....|--- .... ....
....|..|--- .... ....|E-5 3FEF ....|--- .... ....
....|..|--- .... ....|E-5 UFF7 ....|--- .... ....
....|..|--- .... ....|R-- .... ....|--- .... ....
....|..|--- .... ....|--- .... ....|--- .... ....
....|..|--- .... ....|C#5 3FEF ....|--- .... ....
....|..|--- .... ....|--- .... ....|--- .... ....
....|..|--- .... ....|C#5 UFF7 ....|--- .... ....
....|..|--- .... ....|--- .... ....|--- .... ....
....|..|--- .... ....|E-5 3FE7 ....|--- .... ....
....|..|--- .... ....|E-5 UFF7 ....|--- .... ....
....|..|--- .... ....|R-- .... ....|--- .... ....
....|..|--- .... ....|R-- .... ....|--- .... ....
....|..|--- .... ....|E-5 3FEA ....|--- .... ....
....|..|--- .... ....|B-4 UFF7 ....|--- .... ....
....|..|--- .... ....|--- .... ....|--- .... ....
....|..|--- .... ....|--- .... ....|--- .... ....
 A-3|..|C#4 UFDF ....|A-4 3FEF ....|A-1 2A.F ....
....|..|--- .... ....|--- .... ....|--- .... ....
....|..|R-- .... ....|--- .... ....|--- .... ....
....|..|--- .... ....|--- .... ....|R-- .... ....
 A-3|..|E-4 UFDF ....|D#5 3FE7 ....|A-1 2A.F ....
....|..|R-- .... ....|R-- .... ....|R-- .... ....
 A-3|..|--- .... ....|--- .... ....|A-1 2A.F ....
....|..|--- .... ....|R-- .... ....|R-- .... ....
 A-3|..|D#4 UFDF ....|A-4 3FEF ....|A-1 2A.F ....
....|..|R-- .... ....|--- .... ....|--- .... ....
....|..|--- .... ....|--- .... ....|--- .... ....
....|..|--- .... ....|R-- .... ....|R-- .... ....
 A-3|..|F#4 UFDF ....|G#4 3FEF ....|A-1 2A.F ....
....|..|R-- .... ....|--- .... ....|--- .... ....
 A-3|..|R-- .... ....|--- .... ....|A-1 2A.F ....
....|..|--- .... ....|R-- .... ....|R-- .... ....
....|..|C#4 UFDF ....|A-4 3FEF ....|A-1 2F.A ....
....|..|R-- .... ....|R-- .... ....|R-- .... ....
 A-3|..|R-- .... ....|--- .... ....|A-1 2A.F ....
....|..|--- .... ....|R-- .... ....|R-- .... ....
 A-3|..|E-4 UFDF ....|F#4 3FEF ....|A-1 2A.F ....
....|..|R-- .... ....|--- .... ....|R-- .... ....
 A-3|..|R-- .... ....|--- .... ....|A-1 2A.F ....
....|..|--- .... ....|R-- .... ....|R-- .... ....
 A-3|..|D#4 UFDF ....|A-4 3FE7 ....|A-1 2A.F ....
....|..|R-- .... ....|--- .... ....|--- .... ....
....|..|R-- .... ....|--- .... ....|A-1 2F.A ....
....|..|--- .... ....|R-- .... ....|R-- .... ....
 A-3|..|E-4 UFD7 ....|A-4 3FEF ....|A-1 2A.F ....
....|..|R-- .... ....|R-- .... ....|R-- .... ....
....|..|D#4 UFDF ....|--- .... ....|A-1 2F.7 ....
....|..|R-- .... ....|R-- .... ....|R-- .... ....

[Pattern11]
 G#3|..|D#4 UFDF ....|A-4 3FE7 ....|G#1 2A.F ....
....|..|R-- .... ....|--- .... ....|R-- .... ....
....|..|R-- .... ....|--- .... ....|A-1 2F.A ....
....|..|--- .... ....|R-- .... ....|R-- .... ....
 G#3|..|E-4 UFDF ....|G#4 3FE7 ....|G#1 2A.F ....
....|..|R-- .... ....|--- .... ....|R-- .... ....
 G#3|..|R-- .... ....|--- .... ....|G#1 2A.F ....
....|..|--- .... ....|R-- .... ....|R-- .... ....
 G#3|..|D#4 UFDF ....|A-4 3FEF ....|G#1 2A.F ....
....|..|--- .... ....|--- .... ....|--- .... ....
....|..|D#4 UFDA ....|--- .... ....|A-1 2F.7 ....
....|..|R-- .... ....|R-- .... ....|R-- .... ....
 G#3|..|F#4 UFDF ....|G#4 3FEF ....|G#1 2A.F ....
....|..|--- .... ....|--- .... ....|R-- .... ....
 G#3|..|D#4 UFDF ....|R-- .... ....|G#1 2A.F ....
....|..|--- .... ....|--- .... ....|R-- .... ....
....|..|D#4 UFD7 ....|A-4 3FEF ....|A-1 2F.7 ....
....|..|R-- .... ....|--- .... ....|R-- .... ....
 G#3|..|A-3 UFDF ....|--- .... ....|G#1 2A.F ....
....|..|--- .... ....|--- .... ....|R-- .... ....
 G#3|..|D#4 UFDF ....|D#5 3FEF ....|G#1 2A.F ....
....|..|--- .... ....|--- .... ....|R-- .... ....
 G#3|..|D#4 UFD7 ....|--- .... ....|G#1 2A.F ....
....|..|R-- .... ....|R-- .... ....|R-- .... ....
 G#3|..|A-3 UFDF ....|G#4 3FEA ....|G#1 2A.F ....
....|..|R-- .... ....|R-- .... ....|--- .... ....
....|..|D#4 UFDF ....|R-- .... ....|G#1 2F.A ....
....|..|--- .... ....|--- .... ....|R-- .... ....
 E-4|..|F#4 UFDF ....|D#5 3FEF ....|E-2 2A.F ....
....|..|R-- .... ....|--- .... ....|R-- .... ....
....|..|D#4 UFDF ....|--- .... ....|G#1 2F.7 ....
....|..|--- .... ....|--- .... ....|R-- .... ....
 C#4|..|D#4 UFDF ....|E-5 3FEF ....|C#2 2A.F ....
....|..|--- .... ....|--- .... ....|R-- .... ....
....|..|G#3 UFDF ....|--- .... ....|G#1 2F.A ....
....|..|--- .... ....|R-- .... ....|R-- .... ....
 C#4|..|E-4 UFDF ....|G#4 3FE7 ....|C#2 2A.F ....
....|..|R-- .... ....|R-- .... ....|R-- .... ....
 C#4|..|D#4 UFDF ....|R-- .... ....|C#2 2A.F ....
....|..|--- .... ....|--- .... ....|R-- .... ....
 C#4|..|G#3 UFDF ....|E-5 3FEF ....|C#2 2A.F ....
....|..|--- .... ....|--- .... ....|--- .... ....
....|..|D#4 UFDF ....|--- .... ....|G#1 2F.7 ....
....|..|--- .... ....|--- .... ....|R-- .... ....
 C#4|..|F#4 UFDF ....|D#5 3FEF ....|C#2 2A.F ....
....|..|--- .... ....|--- .... ....|R-- .... ....
 C#4|..|D#4 UFDF ....|--- .... ....|C#2 2A.F ....
....|..|G#3 UFDF ....|--- .... ....|R-- .... ....
....|..|A-3 UFD7 ....|E-5 3FEF ....|G#1 2F.7 ....
....|..|R-- .... ....|R-- .... ....|R-- .... ....
 C#4|..|D#4 UFD7 ....|--- .... ....|C#2 2A.F ....
....|..|--- .... ....|--- .... ....|R-- .... ....
 C#4|..|D#4 UFDF ....|C#5 3FEF ....|C#2 2A.F ....
....|..|G#3 UFDF ....|--- .... ....|R-- .... ....
 C#4|..|E-4 UFDF ....|--- .... ....|C#2 2A.F ....
....|..|--- .... ....|--- .... ....|R-- .... ....
 C#4|..|G#3 UFDF ....|E-5 3FE7 ....|C#2 2A.F ....
....|..|--- .... ....|--- .... ....|--- .... ....
....|..|E-4 UFDF ....|--- .... ....|C#2 2F.A ....
....|..|G#3 UFDA ....|--- .... ....|R-- .... ....
 B-3|..|F#4 UFDF ....|D#5 3FEF ....|B-1 2A.F ....
....|..|--- .... ....|--- .... ....|R-- .... ....
....|..|F#3 UFDF ....|--- .... ....|C#2 2F.7 ....
....|..|--- .... ....|--- .... ....|R-- .... ....
 E-4|..|G#3 UFDF ....|E-5 3FEF ....|E-2 2A.F ....
....|..|G#3 UFDA ....|--- .... ....|R-- .... ....
....|..|E-4 UFDF ....|--- .... ....|C#2 2F.A ....
....|..|--- .... ....|--- .... ....|R-- .... ....
 E-4|..|G#3 UFDF ....|D#5 3FE7 ....|E-2 2A.F ....
....|..|--- .... ....|--- .... ....|R-- .... ....
 E-4|..|D#4 UFD7 ....|--- .... ....|E-2 2A.F ....
....|..|G#3 UFD7 ....|--- .... ....|R-- .... ....
 E-4|..|E-4 UFDF ....|E-5 3FEF ....|E-2 2A.F ....
....|..|--- .... ....|--- .... ....|--- .... ....
....|..|G#3 UFDF ....|--- .... ....|C#2 2F.7 ....
....|..|--- .... ....|--- .... ....|R-- .... ....
 E-4|..|E-4 UFDF ....|D#5 3FEF ....|E-2 2A.F ....
....|..|G#3 UFDF ....|--- .... ....|R-- .... ....
 E-4|..|E-4 UFD7 ....|--- .... ....|E-2 2A.F ....
....|..|--- .... ....|--- .... ....|R-- .... ....
....|..|G#3 UFD7 ....|E-5 3FEF ....|C#2 2F.7 ....
....|..|--- .... ....|--- .... ....|R-- .... ....
 E-4|..|E-4 UFDF ....|--- .... ....|E-2 2A.F ....
....|..|--- .... ....|--- .... ....|R-- .... ....
 E-4|..|G#3 UFDF ....|C#5 3FEF ....|E-2 2A.F ....
....|..|--- .... ....|--- .... ....|R-- .... ....
 E-4|..|F#3 UFD7 ....|--- .... ....|E-2 2A.F ....
....|..|--- .... ....|--- .... ....|R-- .... ....
 E-4|..|G#3 UFD7 ....|E-5 3FE7 ....|E-2 2A.F ....
....|..|G#3 UFDA ....|--- .... ....|--- .... ....
....|..|D#4 UFDF ....|--- .... ....|E-2 2F.A ....
....|..|--- .... ....|--- .... ....|R-- .... ....
 E-4|..|F#4 UFDF ....|E-5 3FEA ....|E-2 2A.F ....
....|..|--- .... ....|--- .... ....|R-- .... ....
....|..|D#4 UFDF ....|--- .... ....|E-2 2F.7 ....
....|..|--- .... ....|--- .... ....|R-- .... ....
 A-3|..|E-4 UFD7 ....|A-4 3FEF ....|A-1 2A.F ....
....|..|--- .... ....|--- .... ....|R-- .... ....
....|..|G#3 UFD7 ....|--- .... ....|E-2 2F.A ....
....|..|--- .... ....|--- .... ....|R-- .... ....
 A-3|..|E-4 UFDF ....|D#5 3FE7 ....|A-1 2A.F ....
....|..|G#3 UFD7 ....|R-- .... ....|R-- .... ....
 A-3|..|D#4 UFDA ....|--- .... ....|A-1 2A.F ....
....|..|--- .... ....|--- .... ....|R-- .... ....
 A-3|..|D#4 UFDF ....|A-4 3FEF ....|A-1 2A.F ....
....|..|R-- .... ....|--- .... ....|--- .... ....
....|..|E-4 UFD7 ....|--- .... ....|E-2 2F.7 ....
....|..|--- .... ....|R-- .... ....|R-- .... ....
 A-3|..|F#4 UFDF ....|G#4 3FEF ....|A-1 2A.F ....
....|..|R-- .... ....|--- .... ....|R-- .... ....
 A-3|..|--- .... ....|--- .... ....|A-1 2A.F ....
....|..|--- .... ....|R-- .... ....|R-- .... ....
....|..|E-4 UFDA ....|A-4 3FEF ....|E-2 2F.7 ....
....|..|R-- .... ....|R-- .... ....|R-- .... ....
 A-3|..|D#4 UFD7 ....|--- .... ....|A-1 2A.F ....
....|..|--- .... ....|R-- .... ....|R-- .... ....
 A-3|..|E-4 UFDF ....|F#4 3FEF ....|A-1 2A.F ....
....|..|R-- .... ....|--- .... ....|R-- .... ....
 A-3|..|E-4 UFDF ....|--- .... ....|A-1 2A.F ....
....|..|--- .... ....|R-- .... ....|R-- .... ....
 A-3|..|D#4 UFDF ....|A-4 3FE7 ....|A-1 2A.F ....
....|..|R-- .... ....|--- .... ....|--- .... ....
....|..|R-- .... ....|--- .... ....|A-1 2F.A ....
....|..|--- .... ....|R-- .... ....|R-- .... ....
 A-3|..|F#4 UFDF ....|A-4 3FEF ....|A-1 2A.F ....
....|..|R-- .... ....|R-- .... ....|R-- .... ....
....|..|D#4 UFDF ....|--- .... ....|A-1 2F.7 ....
....|..|R-- .... ....|R-- .... ....|R-- .... ....

[Pattern12]
 G#3|..|D#4 UFD7 ....|A-4 3FE7 ....|G#1 2A.F ....
....|..|R-- .... ....|--- .... ....|R-- .... ....
....|..|E-4 UFDA ....|--- .... ....|A-1 2F.A ....
....|..|--- .... ....|R-- .... ....|R-- .... ....
 G#3|..|E-4 UFDF ....|G#4 3FE7 ....|G#1 2A.F ....
....|..|R-- .... ....|--- .... ....|R-- .... ....
 G#3|..|E-4 UFDF ....|--- .... ....|G#1 2A.F ....
....|..|R-- .... ....|R-- .... ....|R-- .... ....
 G#3|..|D#4 UFDF ....|A-4 3FEF ....|G#1 2A.F ....
....|..|R-- .... ....|--- .... ....|--- .... ....
....|..|D#4 UFDA ....|--- .... ....|A-1 2F.7 ....
....|..|R-- .... ....|R-- .... ....|R-- .... ....
 G#3|..|F#4 UFDF ....|G#4 3FEF ....|G#1 2A.F ....
....|..|R-- .... ....|--- .... ....|R-- .... ....
 G#3|..|E-4 UFD7 ....|R-- .... ....|G#1 2A.F ....
....|..|--- .... ....|--- .... ....|R-- .... ....
....|..|D#4 UFD7 ....|A-4 3FEF ....|A-1 2F.7 ....
....|..|R-- .... ....|--- .... ....|R-- .... ....
 G#3|..|E-4 UFDA ....|--- .... ....|G#1 2A.F ....
....|..|R-- .... ....|--- .... ....|R-- .... ....
 G#3|..|E-4 UFDF ....|D#5 3FEF ....|G#1 2A.F ....
....|..|R-- .... ....|--- .... ....|R-- .... ....
 G#3|..|E-4 UFDF ....|--- .... ....|G#1 2A.F ....
....|..|R-- .... ....|R-- .... ....|R-- .... ....
 G#3|..|D#4 UFDF ....|G#4 3FEA ....|G#1 2A.F ....
....|..|R-- .... ....|R-- .... ....|--- .... ....
....|..|--- .... ....|R-- .... ....|G#1 2F.A ....
....|..|--- .... ....|--- .... ....|R-- .... ....
 E-4|..|F#4 UFDF ....|D#5 3FEF ....|E-2 2A.F ....
....|..|R-- .... ....|--- .... ....|R-- .... ....
....|..|E-4 UFD7 ....|--- .... ....|G#1 2F.7 ....
....|..|R-- .... ....|--- .... ....|R-- .... ....
 C#4|..|D#4 UFDF ....|E-5 3FEF ....|C#2 2A.F ....
....|..|D#4 UFDF ....|--- .... ....|R-- .... ....
....|..|G#3 UFDF ....|--- .... ....|G#1 2F.A ....
....|..|R-- .... ....|R-- .... ....|R-- .... ....
 C#4|..|E-4 UFDF ....|G#4 3FE7 ....|C#2 2A.F ....
....|..|R-- .... ....|R-- .... ....|R-- .... ....
 C#4|..|D#4 UFDF ....|R-- .... ....|C#2 2A.F ....
....|..|--- .... ....|--- .... ....|R-- .... ....
 C#4|..|G#3 UFDF ....|E-5 3FEF ....|C#2 2A.F ....
....|..|R-- .... ....|--- .... ....|--- .... ....
....|..|D#4 UFDF ....|--- .... ....|G#1 2F.7 ....
....|..|D#4 UFDF ....|--- .... ....|R-- .... ....
 C#4|..|F#4 UFDF ....|D#5 3FEF ....|C#2 2A.F ....
....|..|D#4 UFDA ....|--- .... ....|R-- .... ....
 C#4|..|D#4 UFDF ....|--- .... ....|C#2 2A.F ....
....|..|R-- .... ....|--- .... ....|R-- .... ....
....|..|G#3 UFDF ....|E-5 3FEF ....|G#1 2F.7 ....
....|..|R-- .... ....|R-- .... ....|R-- .... ....
 C#4|..|G#3 UFDF ....|--- .... ....|C#2 2A.F ....
....|..|--- .... ....|--- .... ....|R-- .... ....
 C#4|..|D#4 UFDF ....|C#5 3FEF ....|C#2 2A.F ....
....|..|G#3 UFDF ....|--- .... ....|R-- .... ....
 C#4|..|E-4 UFDF ....|--- .... ....|C#2 2A.F ....
....|..|D#4 UFDA ....|--- .... ....|R-- .... ....
 C#4|..|G#3 UFDF ....|E-5 3FE7 ....|C#2 2A.F ....
....|..|D#4 UFD7 ....|--- .... ....|--- .... ....
....|..|E-4 UFDF ....|--- .... ....|C#2 2F.A ....
....|..|R-- .... ....|--- .... ....|R-- .... ....
 B-3|..|F#4 UFDF ....|D#5 3FEF ....|B-1 2A.F ....
....|..|R-- .... ....|--- .... ....|R-- .... ....
....|..|F#3 UFDF ....|--- .... ....|C#2 2F.7 ....
....|..|--- .... ....|--- .... ....|R-- .... ....
....|..|G#3 UFD7 ....|E-5 3FEF ....|C#2 2F.7 ....
....|..|G#3 UFDA ....|--- .... ....|R-- .... ....
....|..|D#4 UFD7 ....|--- .... ....|C#2 2F.A ....
....|..|D#4 UFD7 ....|--- .... ....|R-- .... ....
....|..|F#4 UFD7 ....|D#5 3FE7 ....|C#2 2F.7 ....
....|..|--- .... ....|--- .... ....|--- .... ....
....|..|D#4 UFD7 ....|E-5 UFFF ....|C#2 2F.7 ....
....|..|R-- .... ....|--- .... ....|R-- .... ....
....|..|G#3 UFD7 ....|E-5 3FEF ....|B-1 2F.A ....
....|..|R-- .... ....|--- .... ....|--- .... ....
....|..|G#3 UFD7 ....|--- .... ....|C#2 2F.7 ....
....|..|--- .... ....|--- .... ....|R-- .... ....
....|..|D#4 UFD7 ....|D#5 3FEF ....|C#2 2F.7 ....
....|..|G#3 UFD7 ....|--- .... ....|R-- .... ....
....|..|E-4 UFD7 ....|--- .... ....|C#2 2F.7 ....
....|..|--- .... ....|--- .... ....|--- .... ....
....|..|G#3 UFD7 ....|E-5 3FEF ....|C#2 2F.7 ....
....|..|--- .... ....|--- .... ....|--- .... ....
....|..|E-4 UFD7 ....|E-5 UFFA ....|--- .... ....
....|..|--- .... ....|--- .... ....|R-- .... ....
....|..|F#4 UFD7 ....|C#5 3FEF ....|B-1 2F.7 ....
....|..|--- .... ....|--- .... ....|--- .... ....
....|..|F#3 UFD7 ....|--- .... ....|--- .... ....
....|..|--- .... ....|--- .... ....|--- .... ....
....|..|R-- .... ....|E-5 3FE7 ....|R-- .... ....
....|..|--- .... ....|--- .... ....|--- .... ....
....|..|--- .... ....|--- .... ....|--- .... ....
....|..|--- .... ....|--- .... ....|--- .... ....
....|..|--- .... ....|D#5 3FEF ....|--- .... ....
....|..|--- .... ....|--- .... ....|--- .... ....
....|..|--- .... ....|E-5 UFF7 ....|--- .... ....
....|..|--- .... ....|--- .... ....|--- .... ....
 A-3|..|C#4 UFDF ....|E-5 3FEF ....|A-1 2A.F ....
....|..|--- .... ....|--- .... ....|--- .... ....
....|..|R-- .... ....|--- .... ....|--- .... ....
....|..|--- .... ....|--- .... ....|R-- .... ....
 A-3|..|E-4 UFDF ....|D#5 3FE7 ....|A-1 2A.F ....
....|..|R-- .... ....|--- .... ....|R-- .... ....
 A-3|..|--- .... ....|--- .... ....|A-1 2A.F ....
....|..|--- .... ....|--- .... ....|R-- .... ....
 A-3|..|D#4 UFDF ....|E-5 3FEF ....|A-1 2A.F ....
....|..|R-- .... ....|--- .... ....|--- .... ....
....|..|--- .... ....|--- .... ....|--- .... ....
....|..|--- .... ....|R-- .... ....|R-- .... ....
 A-3|..|F#4 UFDF ....|D#5 3FEF ....|A-1 2A.F ....
....|..|R-- .... ....|--- .... ....|--- .... ....
 A-3|..|R-- .... ....|--- .... ....|A-1 2A.F ....
....|..|--- .... ....|--- .... ....|R-- .... ....
....|..|C#4 UFDF ....|E-5 3FEF ....|A-1 2F.A ....
....|..|R-- .... ....|--- .... ....|R-- .... ....
 A-3|..|R-- .... ....|--- .... ....|A-1 2A.F ....
....|..|--- .... ....|--- .... ....|R-- .... ....
 A-3|..|E-4 UFDF ....|F#5 3FEF ....|A-1 2A.F ....
....|..|R-- .... ....|--- .... ....|R-- .... ....
 A-3|..|R-- .... ....|--- .... ....|A-1 2A.F ....
....|..|--- .... ....|R-- .... ....|R-- .... ....
 A-3|..|D#4 UFDF ....|E-5 3FE7 ....|A-1 2A.F ....
....|..|R-- .... ....|--- .... ....|--- .... ....
....|..|R-- .... ....|--- .... ....|A-1 2F.A ....
....|..|--- .... ....|--- .... ....|R-- .... ....
 A-3|..|E-4 UFD7 ....|E-5 3FEA ....|A-1 2A.F ....
....|..|R-- .... ....|--- .... ....|R-- .... ....
....|..|D#4 UFDF ....|--- .... ....|A-1 2F.7 ....
....|..|R-- .... ....|--- .... ....|R-- .... ....

[Pattern13]
 G#3|..|D#4 UFDF ....|E-5 3FE7 ....|G#1 2A.F ....
....|..|R-- .... ....|--- .... ....|R-- .... ....
....|..|R-- .... ....|--- .... ....|A-1 2F.A ....
....|..|--- .... ....|R-- .... ....|R-- .... ....
 G#3|..|E-4 UFDF ....|D#5 3FE7 ....|G#1 2A.F ....
....|..|R-- .... ....|--- .... ....|R-- .... ....
 G#3|..|R-- .... ....|--- .... ....|G#1 2A.F ....
....|..|--- .... ....|--- .... ....|R-- .... ....
 G#3|..|D#4 UFDF ....|E-5 3FE7 ....|G#1 2A.F ....
....|..|--- .... ....|--- .... ....|--- .... ....
....|..|D#4 UFDA ....|--- .... ....|A-1 2F.7 ....
....|..|R-- .... ....|--- .... ....|R-- .... ....
 G#3|..|F#4 UFDF ....|F#5 3FE7 ....|G#1 2A.F ....
....|..|--- .... ....|--- .... ....|R-- .... ....
 G#3|..|D#4 UFDF ....|--- .... ....|G#1 2A.F ....
....|..|--- .... ....|--- .... ....|R-- .... ....
....|..|D#4 UFD7 ....|--- .... ....|A-1 2F.7 ....
....|..|R-- .... ....|--- .... ....|R-- .... ....
 G#3|..|A-3 UFDF ....|--- .... ....|G#1 2A.F ....
....|..|--- .... ....|--- .... ....|R-- .... ....
 G#3|..|D#4 UFDF ....|--- .... ....|G#1 2A.F ....
....|..|--- .... ....|--- .... ....|R-- .... ....
 G#3|..|D#4 UFD7 ....|--- .... ....|G#1 2A.F ....
....|..|R-- .... ....|--- .... ....|R-- .... ....
 G#3|..|A-3 UFDF ....|R-- .... ....|G#1 2A.F ....
....|..|R-- .... ....|--- .... ....|--- .... ....
....|..|D#4 UFDF ....|--- .... ....|G#1 2F.A ....
....|..|--- .... ....|--- .... ....|R-- .... ....
 E-4|..|F#4 UFDF ....|D#5 3FEF ....|E-2 2A.F ....
....|..|R-- .... ....|--- .... ....|R-- .... ....
....|..|D#4 UFDF ....|--- .... ....|G#1 2F.7 ....
....|..|--- .... ....|--- .... ....|R-- .... ....
 C#4|..|D#4 UFDF ....|E-5 3FEF ....|C#2 2A.F ....
....|..|--- .... ....|--- .... ....|R-- .... ....
....|..|G#3 UFDF ....|--- .... ....|G#1 2F.A ....
....|..|--- .... ....|--- .... ....|R-- .... ....
 C#4|..|E-4 UFDF ....|R-- .... ....|C#2 2A.F ....
....|..|R-- .... ....|--- .... ....|R-- .... ....
 C#4|..|D#4 UFDF ....|--- .... ....|C#2 2A.F ....
....|..|--- .... ....|--- .... ....|R-- .... ....
 C#4|..|G#3 UFDF ....|E-5 3FEF ....|C#2 2A.F ....
....|..|--- .... ....|--- .... ....|--- .... ....
....|..|D#4 UFDF ....|--- .... ....|G#1 2F.7 ....
....|..|--- .... ....|R-- .... ....|R-- .... ....
 C#4|..|F#4 UFDF ....|D#5 3FEF ....|C#2 2A.F ....
....|..|--- .... ....|--- .... ....|R-- .... ....
 C#4|..|D#4 UFDF ....|--- .... ....|C#2 2A.F ....
....|..|G#3 UFDF ....|--- .... ....|R-- .... ....
....|..|A-3 UFD7 ....|E-5 3FEF ....|G#1 2F.7 ....
....|..|R-- .... ....|--- .... ....|R-- .... ....
 C#4|..|D#4 UFD7 ....|--- .... ....|C#2 2A.F ....
....|..|--- .... ....|--- .... ....|R-- .... ....
 C#4|..|D#4 UFDF ....|C#5 3FEF ....|C#2 2A.F ....
....|..|G#3 UFDF ....|--- .... ....|R-- .... ....
 C#4|..|E-4 UFDF ....|--- .... ....|C#2 2A.F ....
....|..|--- .... ....|R-- .... ....|R-- .... ....
 C#4|..|G#3 UFDF ....|E-5 3FEF ....|C#2 2A.F ....
....|..|--- .... ....|--- .... ....|--- .... ....
....|..|E-4 UFDF ....|--- .... ....|C#2 2F.A ....
....|..|G#3 UFDA ....|--- .... ....|R-- .... ....
 B-3|..|F#4 UFDF ....|D#5 3FEF ....|B-1 2A.F ....
....|..|--- .... ....|--- .... ....|R-- .... ....
....|..|F#3 UFDF ....|--- .... ....|C#2 2F.7 ....
....|..|--- .... ....|--- .... ....|R-- .... ....
 E-4|..|G#3 UFDF ....|E-5 3FEF ....|E-2 2A.F ....
....|..|G#3 UFDA ....|--- .... ....|R-- .... ....
....|..|E-4 UFDF ....|--- .... ....|C#2 2F.A ....
....|..|--- .... ....|R-- .... ....|R-- .... ....
 E-4|..|G#3 UFDF ....|C#5 3FEF ....|E-2 2A.F ....
....|..|--- .... ....|--- .... ....|R-- .... ....
 E-4|..|D#4 UFD7 ....|--- .... ....|E-2 2A.F ....
....|..|G#3 UFD7 ....|R-- .... ....|R-- .... ....
 E-4|..|E-4 UFDF ....|E-5 UFFF ....|E-2 2A.F ....
....|..|--- .... ....|--- .... ....|--- .... ....
....|..|G#3 UFDF ....|--- .... ....|C#2 2F.7 ....
....|..|--- .... ....|R-- .... ....|R-- .... ....
 E-4|..|E-4 UFDF ....|D#5 UFFF ....|E-2 2A.F ....
....|..|G#3 UFDF ....|--- .... ....|R-- .... ....
 E-4|..|E-4 UFD7 ....|--- .... ....|E-2 2A.F ....
....|..|--- .... ....|--- .... ....|R-- .... ....
....|..|G#3 UFD7 ....|E-5 UFFF ....|C#2 2F.7 ....
....|..|--- .... ....|--- .... ....|R-- .... ....
 E-4|..|E-4 UFDF ....|--- .... ....|E-2 2A.F ....
....|..|--- .... ....|R-- .... ....|R-- .... ....
 E-4|..|G#3 UFDF ....|C#5 UFFF ....|E-2 2A.F ....
....|..|--- .... ....|--- .... ....|R-- .... ....
 E-4|..|F#3 UFD7 ....|--- .... ....|E-2 2A.F ....
....|..|--- .... ....|R-- .... ....|R-- .... ....
 E-4|..|G#3 UFD7 ....|E-5 3FE7 ....|E-2 2A.F ....
....|..|G#3 UFDA ....|--- .... ....|--- .... ....
....|..|D#4 UFDF ....|--- .... ....|E-2 2F.A ....
....|..|--- .... ....|--- .... ....|R-- .... ....
 E-4|..|F#4 UFDF ....|D#5 3FEF ....|E-2 2A.F ....
....|..|--- .... ....|--- .... ....|R-- .... ....
....|..|D#4 UFDF ....|--- .... ....|E-2 2F.7 ....
....|..|--- .... ....|R-- .... ....|R-- .... ....
 A-3|..|E-4 UFD7 ....|E-5 3FEF ....|A-1 2A.F ....
....|..|--- .... ....|--- .... ....|R-- .... ....
....|..|G#3 UFD7 ....|--- .... ....|E-2 2F.A ....
....|..|--- .... ....|R-- .... ....|R-- .... ....
 A-3|..|E-4 UFDF ....|D#5 UFF7 ....|A-1 2A.F ....
....|..|G#3 UFD7 ....|--- .... ....|R-- .... ....
 A-3|..|D#4 UFDA ....|--- .... ....|A-1 2A.F ....
....|..|--- .... ....|--- .... ....|R-- .... ....
 A-3|..|D#4 UFDF ....|E-5 3FEF ....|A-1 2A.F ....
....|..|R-- .... ....|--- .... ....|--- .... ....
....|..|E-4 UFD7 ....|--- .... ....|E-2 2F.7 ....
....|..|--- .... ....|R-- .... ....|R-- .... ....
 A-3|..|F#4 UFDF ....|D#5 3FEF ....|A-1 2A.F ....
....|..|R-- .... ....|--- .... ....|R-- .... ....
 A-3|..|--- .... ....|--- .... ....|A-1 2A.F ....
....|..|--- .... ....|--- .... ....|R-- .... ....
....|..|E-4 UFDA ....|E-5 3FEF ....|E-2 2F.7 ....
....|..|R-- .... ....|--- .... ....|R-- .... ....
 A-3|..|D#4 UFD7 ....|--- .... ....|A-1 2A.F ....
....|..|--- .... ....|--- .... ....|R-- .... ....
 A-3|..|E-4 UFDF ....|C#5 3FEF ....|A-1 2A.F ....
....|..|R-- .... ....|--- .... ....|R-- .... ....
 A-3|..|E-4 UFDF ....|--- .... ....|A-1 2A.F ....
....|..|--- .... ....|R-- .... ....|R-- .... ....
 A-3|..|D#4 UFDF ....|E-5 3FEF ....|A-1 2A.F ....
....|..|R-- .... ....|--- .... ....|--- .... ....
....|..|R-- .... ....|--- .... ....|A-1 2F.A ....
....|..|--- .... ....|--- .... ....|R-- .... ....
 A-3|..|F#4 UFDF ....|D#5 3FEF ....|A-1 2A.F ....
....|..|R-- .... ....|--- .... ....|R-- .... ....
....|..|D#4 UFDF ....|--- .... ....|A-1 2F.7 ....
....|..|R-- .... ....|--- .... ....|R-- .... ....

[Pattern14]
 G#3|..|D#4 UFD7 ....|E-5 3FEF ....|G#1 2A.F ....
....|..|R-- .... ....|--- .... ....|R-- .... ....
....|..|E-4 UFDA ....|--- .... ....|A-1 2F.A ....
....|..|--- .... ....|R-- .... ....|R-- .... ....
 G#3|..|E-4 UFDF ....|C#5 3FEF ....|G#1 2A.F ....
....|..|R-- .... ....|--- .... ....|R-- .... ....
 G#3|..|E-4 UFDF ....|--- .... ....|G#1 2A.F ....
....|..|R-- .... ....|R-- .... ....|R-- .... ....
 G#3|..|D#4 UFDF ....|E-5 3FEF ....|G#1 2A.F ....
....|..|R-- .... ....|--- .... ....|--- .... ....
....|..|D#4 UFDA ....|--- .... ....|A-1 2F.7 ....
....|..|R-- .... ....|--- .... ....|R-- .... ....
 G#3|..|F#4 UFDF ....|D#5 3FEF ....|G#1 2A.F ....
....|..|R-- .... ....|--- .... ....|R-- .... ....
 G#3|..|E-4 UFD7 ....|--- .... ....|G#1 2A.F ....
....|..|--- .... ....|--- .... ....|R-- .... ....
....|..|D#4 UFD7 ....|E-5 3FEF ....|A-1 2F.7 ....
....|..|R-- .... ....|--- .... ....|R-- .... ....
 G#3|..|E-4 UFDA ....|--- .... ....|G#1 2A.F ....
....|..|R-- .... ....|R-- .... ....|R-- .... ....
 G#3|..|E-4 UFDF ....|C#5 3FEF ....|G#1 2A.F ....
....|..|R-- .... ....|--- .... ....|R-- .... ....
 G#3|..|E-4 UFDF ....|--- .... ....|G#1 2A.F ....
....|..|R-- .... ....|R-- .... ....|R-- .... ....
 G#3|..|D#4 UFDF ....|E-5 3FE7 ....|G#1 2A.F ....
....|..|R-- .... ....|--- .... ....|--- .... ....
....|..|--- .... ....|--- .... ....|G#1 2F.A ....
....|..|--- .... ....|--- .... ....|R-- .... ....
 E-4|..|F#4 UFDF ....|C#5 3FE7 ....|E-2 2A.F ....
....|..|R-- .... ....|--- .... ....|R-- .... ....
....|..|E-4 UFD7 ....|--- .... ....|G#1 2F.7 ....
....|..|R-- .... ....|R-- .... ....|R-- .... ....
 C#4|..|D#4 UFDF ....|E-5 3FE7 ....|C#2 2A.F ....
....|..|D#4 UFDF ....|--- .... ....|R-- .... ....
....|..|G#3 UFDF ....|--- .... ....|G#1 2F.A ....
....|..|R-- .... ....|R-- .... ....|R-- .... ....
 C#4|..|E-4 UFDF ....|D#5 3FE7 ....|C#2 2A.F ....
....|..|R-- .... ....|--- .... ....|R-- .... ....
 C#4|..|D#4 UFDF ....|--- .... ....|C#2 2A.F ....
....|..|--- .... ....|--- .... ....|R-- .... ....
 C#4|..|G#3 UFDF ....|E-5 3FE7 ....|C#2 2A.F ....
....|..|R-- .... ....|--- .... ....|--- .... ....
....|..|D#4 UFDF ....|--- .... ....|G#1 2F.7 ....
....|..|D#4 UFDF ....|--- .... ....|R-- .... ....
 C#4|..|F#4 UFDF ....|C#5 3FE7 ....|C#2 2A.F ....
....|..|D#4 UFDA ....|--- .... ....|R-- .... ....
 C#4|..|D#4 UFDF ....|--- .... ....|C#2 2A.F ....
....|..|R-- .... ....|R-- .... ....|R-- .... ....
....|..|G#3 UFDF ....|--- .... ....|G#1 2F.7 ....
....|..|R-- .... ....|--- .... ....|R-- .... ....
 C#4|..|G#3 UFDF ....|--- .... ....|C#2 2A.F ....
....|..|--- .... ....|--- .... ....|R-- .... ....
 C#4|..|D#4 UFDF ....|--- .... ....|C#2 2A.F ....
....|..|G#3 UFDF ....|--- .... ....|R-- .... ....
 C#4|..|E-4 UFDF ....|--- .... ....|C#2 2A.F ....
....|..|D#4 UFDA ....|--- .... ....|R-- .... ....
 C#4|..|G#3 UFDF ....|--- .... ....|C#2 2A.F ....
....|..|D#4 UFD7 ....|--- .... ....|--- .... ....
....|..|E-4 UFDF ....|--- .... ....|C#2 2F.A ....
....|..|R-- .... ....|--- .... ....|R-- .... ....
 B-3|..|F#4 UFDF ....|--- .... ....|B-1 2A.F ....
....|..|R-- .... ....|--- .... ....|R-- .... ....
....|..|F#3 UFDF ....|--- .... ....|C#2 2F.7 ....
....|..|--- .... ....|--- .... ....|R-- .... ....
 G#4|..|G#3 UFDF ....|--- .... ....|G#2 2A.F ....
....|..|G#3 UFDA ....|--- .... ....|R-- .... ....
 G#4|..|G#3 UFDF ....|--- .... ....|G#2 2A.F ....
....|..|D#4 UFD7 ....|--- .... ....|R-- .... ....
 E-4|..|E-4 UFDF ....|--- .... ....|E-3 2C.F ....
....|..|R-- .... ....|--- .... ....|R-- .... ....
 G#4|..|G#3 UFDF ....|--- .... ....|G#2 2A.F ....
....|..|R-- .... ....|--- .... ....|R-- .... ....
 D#4|..|D#4 UFDF ....|--- .... ....|D#3 2C.F ....
....|..|R-- .... ....|--- .... ....|R-- .... ....
 G#4|..|G#3 UFDF ....|--- .... ....|G#2 2A.F ....
....|..|R-- .... ....|--- .... ....|R-- .... ....
 F#4|..|F#4 UFDF ....|--- .... ....|F#3 2C.F ....
....|..|G#3 UFD7 ....|--- .... ....|R-- .... ....
 G#4|..|G#3 UFDF ....|--- .... ....|G#2 2A.F ....
....|..|R-- .... ....|--- .... ....|R-- .... ....
 G#4|..|G#3 UFDF ....|--- .... ....|G#2 2A.F ....
....|..|R-- .... ....|--- .... ....|R-- .... ....
 G#4|..|G#3 UFDF ....|--- .... ....|G#2 2A.F ....
....|..|R-- .... ....|--- .... ....|R-- .... ....
 E-4|..|E-4 UFDF ....|--- .... ....|E-3 2C.F ....
....|..|R-- .... ....|--- .... ....|R-- .... ....
 E-4|..|E-4 UFDF ....|--- .... ....|E-3 2C.F ....
....|..|R-- .... ....|--- .... ....|R-- .... ....
 D#4|..|D#4 UFDF ....|--- .... ....|D#3 2C.F ....
....|..|R-- .... ....|--- .... ....|R-- .... ....
 D#4|..|D#4 UFDF ....|--- .... ....|D#3 2C.F ....
....|..|R-- .... ....|--- .... ....|R-- .... ....
 F#4|..|F#4 UFDF ....|--- .... ....|F#3 2C.F ....
....|..|R-- .... ....|--- .... ....|R-- .... ....
 D#4|..|D#4 UFDF ....|--- .... ....|D#3 2C.F ....
....|..|R-- .... ....|--- .... ....|R-- .... ....
 A-3|..|C#4 UFDF ....|--- .... ....|A-1 2A.F ....
....|..|R-- .... ....|--- .... ....|R-- .... ....
....|..|G#3 UFD7 ....|--- .... ....|G#2 2F.7 ....
....|..|R-- .... ....|--- .... ....|R-- .... ....
 A-3|..|E-4 UFDF ....|--- .... ....|A-1 2A.F ....
....|..|R-- .... ....|--- .... ....|R-- .... ....
 A-3|..|G#3 UFD7 ....|--- .... ....|A-1 2A.F ....
....|..|R-- .... ....|--- .... ....|R-- .... ....
 A-3|..|D#4 UFDF ....|--- .... ....|A-1 2A.F ....
....|..|R-- .... ....|--- .... ....|R-- .... ....
....|..|G#3 UFD7 ....|--- .... ....|G#2 2F.7 ....
....|..|--- .... ....|--- .... ....|R-- .... ....
 A-3|..|F#4 UFDF ....|--- .... ....|A-1 2A.F ....
....|..|R-- .... ....|--- .... ....|R-- .... ....
 A-3|..|E-4 UFD7 ....|--- .... ....|A-1 2A.F ....
....|..|R-- .... ....|--- .... ....|R-- .... ....
....|..|C#4 UFDF ....|--- .... ....|D#3 2F.7 ....
....|..|R-- .... ....|--- .... ....|R-- .... ....
 A-3|..|D#4 UFD7 ....|--- .... ....|A-1 2A.F ....
....|..|R-- .... ....|--- .... ....|R-- .... ....
 A-3|..|E-4 UFDF ....|--- .... ....|A-1 2A.F ....
....|..|R-- .... ....|--- .... ....|R-- .... ....
 A-3|..|D#4 UFD7 ....|--- .... ....|A-1 2A.F ....
....|..|--- .... ....|--- .... ....|R-- .... ....
 A-3|..|D#4 UFDF ....|--- .... ....|A-1 2A.F ....
....|..|R-- .... ....|--- .... ....|--- .... ....
....|..|R-- .... ....|--- .... ....|A-1 2F.A ....
....|..|--- .... ....|--- .... ....|R-- .... ....
 A-3|..|E-4 UFD7 ....|--- .... ....|A-1 2A.F ....
....|..|R-- .... ....|--- .... ....|R-- .... ....
....|..|D#4 UFDF ....|--- .... ....|A-1 2F.7 ....
....|..|R-- .... ....|--- .... ....|R-- .... ....

[Pattern15]
 G#3|..|D#4 UFDF ....|--- .... ....|G#1 2A.F ....
....|..|R-- .... ....|--- .... ....|R-- .... ....
....|..|R-- .... ....|--- .... ....|A-1 2F.A ....
....|..|--- .... ....|--- .... ....|R-- .... ....
 G#3|..|E-4 UFDF ....|--- .... ....|G#1 2A.F ....
....|..|R-- .... ....|--- .... ....|R-- .... ....
 G#3|..|R-- .... ....|--- .... ....|G#1 2A.F ....
....|..|--- .... ....|--- .... ....|R-- .... ....
 G#3|..|D#4 UFDF ....|--- .... ....|G#1 2A.F ....
....|..|--- .... ....|--- .... ....|--- .... ....
....|..|D#4 UFDA ....|--- .... ....|A-1 2F.7 ....
....|..|R-- .... ....|--- .... ....|R-- .... ....
 G#3|..|F#4 UFDF ....|--- .... ....|G#1 2A.F ....
....|..|--- .... ....|--- .... ....|R-- .... ....
 G#3|..|D#4 UFDF ....|--- .... ....|G#1 2A.F ....
....|..|--- .... ....|--- .... ....|R-- .... ....
....|..|D#4 UFD7 ....|--- .... ....|A-1 2F.7 ....
....|..|R-- .... ....|--- .... ....|R-- .... ....
 G#3|..|A-3 UFDF ....|--- .... ....|G#1 2A.F ....
....|..|--- .... ....|--- .... ....|R-- .... ....
 G#3|..|D#4 UFDF ....|--- .... ....|G#1 2A.F ....
....|..|--- .... ....|--- .... ....|R-- .... ....
 G#3|..|D#4 UFD7 ....|--- .... ....|G#1 2A.F ....
....|..|R-- .... ....|--- .... ....|R-- .... ....
 G#3|..|A-3 UFDF ....|--- .... ....|G#1 2A.F ....
....|..|R-- .... ....|--- .... ....|--- .... ....
....|..|D#4 UFDF ....|--- .... ....|G#1 2F.A ....
....|..|--- .... ....|--- .... ....|R-- .... ....
 E-4|..|F#4 UFDF ....|--- .... ....|E-2 2A.F ....
....|..|R-- .... ....|--- .... ....|R-- .... ....
....|..|D#4 UFDF ....|--- .... ....|G#1 2F.7 ....
....|..|--- .... ....|--- .... ....|R-- .... ....
 C#4|..|D#4 UFDF ....|--- .... ....|C#2 2A.F ....
....|..|--- .... ....|--- .... ....|R-- .... ....
....|..|G#3 UFDF ....|--- .... ....|G#1 2F.A ....
....|..|--- .... ....|--- .... ....|R-- .... ....
 C#4|..|E-4 UFDF ....|--- .... ....|C#2 2A.F ....
....|..|R-- .... ....|--- .... ....|R-- .... ....
 C#4|..|D#4 UFDF ....|--- .... ....|C#2 2A.F ....
....|..|--- .... ....|--- .... ....|R-- .... ....
 C#4|..|G#3 UFDF ....|--- .... ....|C#2 2A.F ....
....|..|--- .... ....|--- .... ....|--- .... ....
....|..|D#4 UFDF ....|--- .... ....|G#1 2F.7 ....
....|..|--- .... ....|--- .... ....|R-- .... ....
 C#4|..|F#4 UFDF ....|--- .... ....|C#2 2A.F ....
....|..|--- .... ....|--- .... ....|R-- .... ....
 C#4|..|D#4 UFDF ....|--- .... ....|C#2 2A.F ....
....|..|G#3 UFDF ....|--- .... ....|R-- .... ....
....|..|A-3 UFD7 ....|--- .... ....|G#1 2F.7 ....
....|..|R-- .... ....|--- .... ....|R-- .... ....
 C#4|..|D#4 UFD7 ....|--- .... ....|C#2 2A.F ....
....|..|--- .... ....|--- .... ....|R-- .... ....
 C#4|..|D#4 UFDF ....|--- .... ....|C#2 2A.F ....
....|..|G#3 UFDF ....|--- .... ....|R-- .... ....
 C#4|..|E-4 UFDF ....|--- .... ....|C#2 2A.F ....
....|..|--- .... ....|--- .... ....|R-- .... ....
 C#4|..|G#3 UFDF ....|--- .... ....|C#2 2A.F ....
....|..|--- .... ....|--- .... ....|--- .... ....
....|..|E-4 UFDF ....|--- .... ....|C#2 2F.A ....
....|..|G#3 UFDA ....|--- .... ....|R-- .... ....
 B-3|..|F#4 UFDF ....|--- .... ....|B-1 2A.F ....
....|..|--- .... ....|--- .... ....|R-- .... ....
....|..|F#3 UFDF ....|--- .... ....|C#2 2F.7 ....
....|..|--- .... ....|--- .... ....|R-- .... ....
 E-4|..|G#3 UFDF ....|E-5 3FEF ....|E-2 2A.F ....
....|..|G#3 UFDA ....|--- .... ....|R-- .... ....
....|..|E-4 UFDF ....|--- .... ....|C#2 2F.A ....
....|..|--- .... ....|--- .... ....|R-- .... ....
 E-4|..|G#3 UFDF ....|R-- .... ....|E-2 2A.F ....
....|..|--- .... ....|--- .... ....|R-- .... ....
 E-4|..|D#4 UFD7 ....|--- .... ....|E-2 2A.F ....
....|..|G#3 UFD7 ....|--- .... ....|R-- .... ....
 E-4|..|E-4 UFDF ....|E-5 3FEF ....|E-2 2A.F ....
....|..|--- .... ....|--- .... ....|--- .... ....
....|..|G#3 UFDF ....|--- .... ....|C#2 2F.7 ....
....|..|--- .... ....|--- .... ....|R-- .... ....
 E-4|..|E-4 UFDF ....|D#5 3FEF ....|E-2 2A.F ....
....|..|G#3 UFDF ....|--- .... ....|R-- .... ....
 E-4|..|E-4 UFD7 ....|--- .... ....|E-2 2A.F ....
....|..|--- .... ....|--- .... ....|R-- .... ....
....|..|G#3 UFD7 ....|E-5 3FEF ....|C#2 2F.7 ....
....|..|--- .... ....|--- .... ....|R-- .... ....
 E-4|..|E-4 UFDF ....|--- .... ....|E-2 2A.F ....
....|..|--- .... ....|--- .... ....|R-- .... ....
 E-4|..|G#3 UFDF ....|C#5 3FEF ....|E-2 2A.F ....
....|..|--- .... ....|--- .... ....|R-- .... ....
 E-4|..|F#3 UFD7 ....|--- .... ....|E-2 2A.F ....
....|..|--- .... ....|--- .... ....|R-- .... ....
 E-4|..|G#3 UFD7 ....|E-5 3FE7 ....|E-2 2A.F ....
....|..|G#3 UFDA ....|--- .... ....|--- .... ....
....|..|D#4 UFDF ....|--- .... ....|E-2 2F.A ....
....|..|--- .... ....|--- .... ....|R-- .... ....
 E-4|..|F#4 UFDF ....|E-5 3FEA ....|E-2 2A.F ....
....|..|--- .... ....|--- .... ....|R-- .... ....
....|..|D#4 UFDF ....|--- .... ....|E-2 2F.7 ....
....|..|--- .... ....|--- .... ....|R-- .... ....
 A-3|..|E-4 UFD7 ....|E-5 3FE7 ....|A-1 2A.F ....
....|..|--- .... ....|--- .... ....|R-- .... ....
....|..|G#3 UFD7 ....|--- .... ....|E-2 2F.A ....
....|..|--- .... ....|--- .... ....|R-- .... ....
 A-3|..|E-4 UFDF ....|D#5 3FE7 ....|A-1 2A.F ....
....|..|G#3 UFD7 ....|--- .... ....|R-- .... ....
 A-3|..|D#4 UFDA ....|--- .... ....|A-1 2A.F ....
....|..|--- .... ....|--- .... ....|R-- .... ....
 A-3|..|D#4 UFDF ....|E-5 3FE7 ....|A-1 2A.F ....
....|..|R-- .... ....|--- .... ....|--- .... ....
....|..|E-4 UFD7 ....|--- .... ....|E-2 2F.7 ....
....|..|--- .... ....|--- .... ....|R-- .... ....
 A-3|..|F#4 UFDF ....|C#5 3FE7 ....|A-1 2A.F ....
....|..|R-- .... ....|--- .... ....|R-- .... ....
 A-3|..|--- .... ....|--- .... ....|A-1 2A.F ....
....|..|--- .... ....|--- .... ....|R-- .... ....
....|..|E-4 UFDA ....|R-- .... ....|E-2 2F.7 ....
....|..|R-- .... ....|--- .... ....|R-- .... ....
 A-3|..|D#4 UFD7 ....|--- .... ....|A-1 2A.F ....
....|..|--- .... ....|--- .... ....|R-- .... ....
 A-3|..|E-4 UFDF ....|--- .... ....|A-1 2A.F ....
....|..|R-- .... ....|--- .... ....|R-- .... ....
 A-3|..|E-4 UFDF ....|--- .... ....|A-1 2A.F ....
....|..|--- .... ....|--- .... ....|R-- .... ....
 A-3|..|D#4 UFDF ....|--- .... ....|A-1 2A.F ....
....|..|R-- .... ....|--- .... ....|--- .... ....
....|..|R-- .... ....|--- .... ....|A-1 2F.A ....
....|..|--- .... ....|--- .... ....|R-- .... ....
 A-3|..|F#4 UFDF ....|--- .... ....|A-1 2A.F ....
....|..|R-- .... ....|--- .... ....|R-- .... ....
....|..|D#4 UFDF ....|--- .... ....|A-1 2F.7 ....
....|..|R-- .... ....|--- .... ....|R-- .... ....

[Pattern16]
 G#3|..|D#4 UFD7 ....|E-5 3FEF ....|G#1 2A.F ....
....|..|R-- .... ....|--- .... ....|R-- .... ....
....|..|E-4 UFDA ....|--- .... ....|A-1 2F.A ....
....|..|--- .... ....|--- .... ....|R-- .... ....
 G#3|..|E-4 UFDF ....|R-- .... ....|G#1 2A.F ....
....|..|R-- .... ....|--- .... ....|R-- .... ....
 G#3|..|E-4 UFDF ....|--- .... ....|G#1 2A.F ....
....|..|R-- .... ....|--- .... ....|R-- .... ....
 G#3|..|D#4 UFDF ....|E-5 3FEF ....|G#1 2A.F ....
....|..|R-- .... ....|--- .... ....|--- .... ....
....|..|D#4 UFDA ....|--- .... ....|A-1 2F.7 ....
....|..|R-- .... ....|--- .... ....|R-- .... ....
 G#3|..|F#4 UFDF ....|D#5 3FEF ....|G#1 2A.F ....
....|..|R-- .... ....|--- .... ....|R-- .... ....
 G#3|..|E-4 UFD7 ....|--- .... ....|G#1 2A.F ....
....|..|--- .... ....|--- .... ....|R-- .... ....
....|..|D#4 UFD7 ....|E-5 3FEF ....|A-1 2F.7 ....
....|..|R-- .... ....|--- .... ....|R-- .... ....
 G#3|..|E-4 UFDA ....|--- .... ....|G#1 2A.F ....
....|..|R-- .... ....|--- .... ....|R-- .... ....
 G#3|..|E-4 UFDF ....|C#5 3FEF ....|G#1 2A.F ....
....|..|R-- .... ....|--- .... ....|R-- .... ....
 G#3|..|E-4 UFDF ....|--- .... ....|G#1 2A.F ....
....|..|R-- .... ....|--- .... ....|R-- .... ....
 G#3|..|D#4 UFDF ....|E-5 3FEF ....|G#1 2A.F ....
....|..|R-- .... ....|--- .... ....|--- .... ....
....|..|--- .... ....|--- .... ....|G#1 2F.A ....
....|..|--- .... ....|--- .... ....|R-- .... ....
 E-4|..|F#4 UFDF ....|D#5 3FEF ....|E-2 2A.F ....
....|..|R-- .... ....|--- .... ....|R-- .... ....
....|..|E-4 UFD7 ....|--- .... ....|G#1 2F.7 ....
....|..|R-- .... ....|--- .... ....|R-- .... ....
 C#4|..|D#4 UFDF ....|E-5 3FEF ....|C#2 2A.F ....
....|..|D#4 UFDF ....|--- .... ....|R-- .... ....
....|..|G#3 UFDF ....|--- .... ....|G#1 2F.A ....
....|..|R-- .... ....|--- .... ....|R-- .... ....
 C#4|..|E-4 UFDF ....|C#5 3FEF ....|C#2 2A.F ....
....|..|R-- .... ....|--- .... ....|R-- .... ....
 C#4|..|D#4 UFDF ....|--- .... ....|C#2 2A.F ....
....|..|--- .... ....|--- .... ....|R-- .... ....
 C#4|..|G#3 UFDF ....|E-5 3FE7 ....|C#2 2A.F ....
....|..|R-- .... ....|--- .... ....|--- .... ....
....|..|D#4 UFDF ....|--- .... ....|G#1 2F.7 ....
....|..|D#4 UFDF ....|--- .... ....|R-- .... ....
 C#4|..|F#4 UFDF ....|C#5 3FE7 ....|C#2 2A.F ....
....|..|D#4 UFDA ....|--- .... ....|R-- .... ....
 C#4|..|D#4 UFDF ....|--- .... ....|C#2 2A.F ....
....|..|R-- .... ....|--- .... ....|R-- .... ....
....|..|G#3 UFDF ....|E-5 3FE7 ....|G#1 2F.7 ....
....|..|R-- .... ....|--- .... ....|R-- .... ....
 C#4|..|G#3 UFDF ....|--- .... ....|C#2 2A.F ....
....|..|--- .... ....|--- .... ....|R-- .... ....
 C#4|..|D#4 UFDF ....|D#5 3FE7 ....|C#2 2A.F ....
....|..|G#3 UFDF ....|--- .... ....|R-- .... ....
 C#4|..|E-4 UFDF ....|--- .... ....|C#2 2A.F ....
....|..|D#4 UFDA ....|--- .... ....|R-- .... ....
 C#4|..|G#3 UFDF ....|E-5 3FE7 ....|C#2 2A.F ....
....|..|D#4 UFD7 ....|--- .... ....|--- .... ....
....|..|E-4 UFDF ....|--- .... ....|C#2 2F.A ....
....|..|R-- .... ....|--- .... ....|R-- .... ....
 B-3|..|F#4 UFDF ....|C#5 3FE7 ....|B-1 2A.F ....
....|..|R-- .... ....|--- .... ....|R-- .... ....
....|..|F#3 UFDF ....|--- .... ....|C#2 2F.7 ....
....|..|--- .... ....|--- .... ....|R-- .... ....
 E-4|..|G#3 UFDF ....|E-5 3FEF ....|E-2 2A.F ....
....|..|G#3 UFDA ....|--- .... ....|R-- .... ....
....|..|D#4 UFD7 ....|--- .... ....|C#2 2F.A ....
....|..|D#4 UFD7 ....|--- .... ....|R-- .... ....
 E-4|..|E-4 UFDF ....|R-- .... ....|E-2 2A.F ....
....|..|G#3 UFDF ....|--- .... ....|R-- .... ....
 E-4|..|D#4 UFD7 ....|--- .... ....|E-2 2A.F ....
....|..|R-- .... ....|--- .... ....|R-- .... ....
 E-4|..|D#4 UFDF ....|E-5 3FEF ....|E-2 2A.F ....
....|..|R-- .... ....|--- .... ....|--- .... ....
....|..|G#3 UFDF ....|--- .... ....|C#2 2F.7 ....
....|..|--- .... ....|--- .... ....|R-- .... ....
 E-4|..|F#4 UFDF ....|D#5 3FEF ....|E-2 2A.F ....
....|..|F#4 UFDF ....|--- .... ....|R-- .... ....
 E-4|..|E-4 UFD7 ....|--- .... ....|E-2 2A.F ....
....|..|--- .... ....|--- .... ....|R-- .... ....
....|..|G#3 UFD7 ....|E-5 3FEF ....|C#2 2F.7 ....
....|..|G#3 UFDA ....|--- .... ....|R-- .... ....
 E-4|..|E-4 UFD7 ....|--- .... ....|E-2 2A.F ....
....|..|--- .... ....|--- .... ....|R-- .... ....
 E-4|..|E-4 UFDF ....|C#5 3FEF ....|E-2 2A.F ....
....|..|R-- .... ....|--- .... ....|R-- .... ....
 E-4|..|E-4 UFDF ....|--- .... ....|E-2 2A.F ....
....|..|E-3 UFDF ....|--- .... ....|R-- .... ....
 E-4|..|D#4 UFDF ....|E-5 3FE7 ....|E-2 2A.F ....
....|..|F#4 UFDA ....|--- .... ....|--- .... ....
....|..|D#4 UFDF ....|--- .... ....|E-2 2F.A ....
....|..|D#4 UFDF ....|--- .... ....|R-- .... ....
 E-4|..|F#4 UFDF ....|E-5 3FEA ....|E-2 2A.F ....
....|..|F#3 UFDF ....|--- .... ....|R-- .... ....
....|..|D#4 UFDF ....|--- .... ....|E-2 2F.7 ....
....|..|--- .... ....|--- .... ....|R-- .... ....
 A-3|..|C#4 UFDF ....|E-5 3FE7 ....|A-1 2A.F ....
....|..|R-- .... ....|--- .... ....|R-- .... ....
....|..|G#3 UFD7 ....|--- .... ....|E-2 2F.A ....
....|..|E-3 UFDA ....|--- .... ....|R-- .... ....
 A-3|..|E-4 UFDF ....|D#5 3FE7 ....|A-1 2A.F ....
....|..|F#4 UFD7 ....|--- .... ....|R-- .... ....
 A-3|..|D#4 UFDA ....|--- .... ....|A-1 2A.F ....
....|..|D#4 UFDA ....|--- .... ....|R-- .... ....
 A-3|..|D#4 UFDF ....|E-5 3FE7 ....|A-1 2A.F ....
....|..|F#3 UFDA ....|--- .... ....|--- .... ....
....|..|D#4 UFDA ....|--- .... ....|E-2 2F.7 ....
....|..|--- .... ....|--- .... ....|R-- .... ....
 A-3|..|F#4 UFDF ....|C#5 3FE7 ....|A-1 2A.F ....
....|..|R-- .... ....|--- .... ....|R-- .... ....
 A-3|..|E-4 UFD7 ....|--- .... ....|A-1 2A.F ....
....|..|E-3 UFD7 ....|--- .... ....|R-- .... ....
....|..|C#4 UFDF ....|R-- .... ....|E-2 2F.7 ....
....|..|R-- .... ....|--- .... ....|R-- .... ....
 A-3|..|D#4 UFD7 ....|--- .... ....|A-1 2A.F ....
....|..|D#4 UFD7 ....|--- .... ....|R-- .... ....
 A-3|..|E-4 UFDF ....|--- .... ....|A-1 2A.F ....
....|..|F#3 UFD7 ....|--- .... ....|R-- .... ....
 A-3|..|D#4 UFD7 ....|--- .... ....|A-1 2A.F ....
....|..|--- .... ....|--- .... ....|R-- .... ....
 A-3|..|D#4 UFDF ....|--- .... ....|A-1 2A.F ....
....|..|R-- .... ....|--- .... ....|--- .... ....
....|..|R-- .... ....|--- .... ....|A-1 2F.A ....
....|..|--- .... ....|--- .... ....|R-- .... ....
 A-3|..|E-4 UFD7 ....|--- .... ....|A-1 2A.F ....
....|..|R-- .... ....|--- .... ....|R-- .... ....
....|..|D#4 UFDF ....|--- .... ....|A-1 2F.7 ....
....|..|R-- .... ....|--- .... ....|R-- .... ....

[Pattern17]
 G#3|..|D#4 UFDF ....|E-5 3FEF ....|G#1 2A.F ....
....|..|R-- .... ....|--- .... ....|R-- .... ....
....|..|R-- .... ....|--- .... ....|A-1 2F.A ....
....|..|--- .... ....|--- .... ....|R-- .... ....
 G#3|..|E-4 UFDF ....|R-- .... ....|G#1 2A.F ....
....|..|R-- .... ....|--- .... ....|R-- .... ....
 G#3|..|R-- .... ....|--- .... ....|G#1 2A.F ....
....|..|--- .... ....|--- .... ....|R-- .... ....
 G#3|..|D#4 UFDF ....|E-5 3FEF ....|G#1 2A.F ....
....|..|--- .... ....|--- .... ....|--- .... ....
....|..|D#4 UFDA ....|--- .... ....|A-1 2F.7 ....
....|..|R-- .... ....|R-- .... ....|R-- .... ....
 G#3|..|F#4 UFDF ....|D#5 3FEF ....|G#1 2A.F ....
....|..|--- .... ....|--- .... ....|R-- .... ....
 G#3|..|D#4 UFDF ....|--- .... ....|G#1 2A.F ....
....|..|--- .... ....|--- .... ....|R-- .... ....
....|..|D#4 UFD7 ....|E-5 3FEF ....|A-1 2F.7 ....
....|..|R-- .... ....|--- .... ....|R-- .... ....
 G#3|..|A-3 UFDF ....|--- .... ....|G#1 2A.F ....
....|..|--- .... ....|--- .... ....|R-- .... ....
 G#3|..|D#4 UFDF ....|F#5 3FEF ....|G#1 2A.F ....
....|..|--- .... ....|--- .... ....|R-- .... ....
 G#3|..|D#4 UFD7 ....|--- .... ....|G#1 2A.F ....
....|..|R-- .... ....|R-- .... ....|R-- .... ....
 G#3|..|A-3 UFDF ....|E-5 3FE7 ....|G#1 2A.F ....
....|..|R-- .... ....|--- .... ....|--- .... ....
....|..|D#4 UFDF ....|--- .... ....|G#1 2F.A ....
....|..|--- .... ....|--- .... ....|R-- .... ....
 E-4|..|F#4 UFDF ....|E-5 3FEA ....|E-2 2A.F ....
....|..|R-- .... ....|--- .... ....|R-- .... ....
....|..|D#4 UFDF ....|--- .... ....|G#1 2F.7 ....
....|..|--- .... ....|--- .... ....|R-- .... ....
 C#4|..|D#4 UFDF ....|E-5 3FE7 ....|C#2 2A.F ....
....|..|--- .... ....|--- .... ....|R-- .... ....
....|..|G#3 UFDF ....|--- .... ....|G#1 2F.A ....
....|..|--- .... ....|R-- .... ....|R-- .... ....
 C#4|..|E-4 UFDF ....|D#5 3FE7 ....|C#2 2A.F ....
....|..|R-- .... ....|--- .... ....|R-- .... ....
 C#4|..|D#4 UFDF ....|--- .... ....|C#2 2A.F ....
....|..|--- .... ....|--- .... ....|R-- .... ....
 C#4|..|G#3 UFDF ....|E-5 UFFF ....|C#2 2A.F ....
....|..|--- .... ....|--- .... ....|--- .... ....
....|..|D#4 UFDF ....|--- .... ....|G#1 2F.7 ....
....|..|--- .... ....|R-- .... ....|R-- .... ....
 C#4|..|F#4 UFDF ....|D#5 UFFF ....|C#2 2A.F ....
....|..|--- .... ....|--- .... ....|R-- .... ....
 C#4|..|D#4 UFDF ....|--- .... ....|C#2 2A.F ....
....|..|G#3 UFDF ....|--- .... ....|R-- .... ....
....|..|A-3 UFD7 ....|E-5 UFFF ....|G#1 2F.7 ....
....|..|R-- .... ....|--- .... ....|R-- .... ....
 C#4|..|D#4 UFD7 ....|--- .... ....|C#2 2A.F ....
....|..|--- .... ....|--- .... ....|R-- .... ....
 C#4|..|D#4 UFDF ....|C#5 UFFF ....|C#2 2A.F ....
....|..|G#3 UFDF ....|--- .... ....|R-- .... ....
 C#4|..|E-4 UFDF ....|--- .... ....|C#2 2A.F ....
....|..|--- .... ....|R-- .... ....|R-- .... ....
 C#4|..|G#3 UFDF ....|D#5 UFFA ....|C#2 2A.F ....
....|..|--- .... ....|--- .... ....|--- .... ....
....|..|E-4 UFDF ....|--- .... ....|C#2 2F.A ....
....|..|G#3 UFDA ....|--- .... ....|R-- .... ....
 B-3|..|F#4 UFDF ....|E-5 UFFA ....|B-1 2A.F ....
....|..|--- .... ....|--- .... ....|R-- .... ....
....|..|F#3 UFDF ....|--- .... ....|C#2 2F.7 ....
....|..|--- .... ....|--- .... ....|R-- .... ....
 E-4|..|G#3 UFDF ....|E-5 UFF7 ....|E-2 2A.F ....
....|..|G#3 UFDA ....|--- .... ....|R-- .... ....
....|..|E-4 UFDF ....|--- .... ....|C#2 2F.A ....
....|..|--- .... ....|R-- .... ....|R-- .... ....
 E-4|..|G#3 UFDF ....|D#5 UFF7 ....|E-2 2A.F ....
....|..|--- .... ....|--- .... ....|R-- .... ....
 E-4|..|D#4 UFD7 ....|--- .... ....|E-2 2A.F ....
....|..|G#3 UFD7 ....|--- .... ....|R-- .... ....
 E-4|..|E-4 UFDF ....|E-5 UFF7 ....|E-2 2A.F ....
....|..|--- .... ....|--- .... ....|--- .... ....
....|..|G#3 UFDF ....|--- .... ....|C#2 2F.7 ....
....|..|--- .... ....|--- .... ....|R-- .... ....
 E-4|..|E-4 UFDF ....|C#5 UFF7 ....|E-2 2A.F ....
....|..|G#3 UFDF ....|--- .... ....|R-- .... ....
 E-4|..|E-4 UFD7 ....|--- .... ....|E-2 2A.F ....
....|..|--- .... ....|--- .... ....|R-- .... ....
....|..|G#3 UFD7 ....|E-5 3FEF ....|C#2 2F.7 ....
....|..|--- .... ....|--- .... ....|R-- .... ....
 E-4|..|E-4 UFDF ....|--- .... ....|E-2 2A.F ....
....|..|--- .... ....|--- .... ....|R-- .... ....
 E-4|..|G#3 UFDF ....|F#5 3FEF ....|E-2 2A.F ....
....|..|--- .... ....|--- .... ....|R-- .... ....
 E-4|..|F#3 UFD7 ....|--- .... ....|E-2 2A.F ....
....|..|--- .... ....|--- .... ....|R-- .... ....
 E-4|..|G#3 UFD7 ....|--- .... ....|E-2 2A.F ....
....|..|G#3 UFDA ....|--- .... ....|--- .... ....
....|..|D#4 UFDF ....|--- .... ....|E-2 2F.A ....
....|..|--- .... ....|--- .... ....|R-- .... ....
 E-4|..|F#4 UFDF ....|E-5 3FEA ....|E-2 2A.F ....
....|..|--- .... ....|--- .... ....|R-- .... ....
....|..|D#4 UFDF ....|--- .... ....|E-2 2F.7 ....
....|..|--- .... ....|--- .... ....|R-- .... ....
 A-3|..|E-4 UFD7 ....|E-5 3FEF ....|A-1 2A.F ....
....|..|--- .... ....|--- .... ....|R-- .... ....
....|..|G#3 UFD7 ....|--- .... ....|E-2 2F.A ....
....|..|--- .... ....|--- .... ....|R-- .... ....
 A-3|..|E-4 UFDF ....|F#5 3FEF ....|A-1 2A.F ....
....|..|G#3 UFD7 ....|--- .... ....|R-- .... ....
 A-3|..|D#4 UFDA ....|--- .... ....|A-1 2A.F ....
....|..|--- .... ....|--- .... ....|R-- .... ....
 A-3|..|D#4 UFDF ....|E-5 3FE7 ....|A-1 2A.F ....
....|..|R-- .... ....|--- .... ....|--- .... ....
....|..|E-4 UFD7 ....|--- .... ....|E-2 2F.7 ....
....|..|--- .... ....|--- .... ....|R-- .... ....
 A-3|..|F#4 UFDF ....|F#5 3FE7 ....|A-1 2A.F ....
....|..|R-- .... ....|--- .... ....|R-- .... ....
 A-3|..|--- .... ....|--- .... ....|A-1 2A.F ....
....|..|--- .... ....|--- .... ....|R-- .... ....
....|..|E-4 UFDA ....|F#5 3FEA ....|E-2 2F.7 ....
....|..|R-- .... ....|--- .... ....|R-- .... ....
 A-3|..|D#4 UFD7 ....|--- .... ....|A-1 2A.F ....
....|..|--- .... ....|--- .... ....|R-- .... ....
 A-3|..|E-4 UFDF ....|--- .... ....|A-1 2A.F ....
....|..|R-- .... ....|--- .... ....|R-- .... ....
 A-3|..|E-4 UFDF ....|--- .... ....|A-1 2A.F ....
....|..|--- .... ....|--- .... ....|R-- .... ....
 A-3|..|D#4 UFDF ....|E-5 3FE7 ....|A-1 2A.F ....
....|..|R-- .... ....|--- .... ....|--- .... ....
....|..|R-- .... ....|--- .... ....|A-1 2F.A ....
....|..|--- .... ....|--- .... ....|R-- .... ....
 A-3|..|F#4 UFDF ....|F#5 3FE7 ....|A-1 2A.F ....
....|..|R-- .... ....|--- .... ....|R-- .... ....
....|..|D#4 UFDF ....|--- .... ....|A-1 2F.7 ....
....|..|R-- .... ....|R-- .... ....|R-- .... ....

[Pattern18]
 G#3|..|D#4 UFD7 ....|E-5 3FEF ....|G#1 2A.F ....
....|..|R-- .... ....|--- .... ....|R-- .... ....
....|..|E-4 UFDA ....|--- .... ....|A-1 2F.A ....
....|..|--- .... ....|R-- .... ....|R-- .... ....
 G#3|..|E-4 UFDF ....|R-- .... ....|G#1 2A.F ....
....|..|R-- .... ....|--- .... ....|R-- .... ....
 G#3|..|E-4 UFDF ....|--- .... ....|G#1 2A.F ....
....|..|R-- .... ....|--- .... ....|R-- .... ....
 G#3|..|D#4 UFDF ....|E-5 3FEF ....|G#1 2A.F ....
....|..|R-- .... ....|--- .... ....|--- .... ....
....|..|D#4 UFDA ....|--- .... ....|A-1 2F.7 ....
....|..|R-- .... ....|R-- .... ....|R-- .... ....
 G#3|..|F#4 UFDF ....|D#5 3FEF ....|G#1 2A.F ....
....|..|R-- .... ....|--- .... ....|R-- .... ....
 G#3|..|E-4 UFD7 ....|--- .... ....|G#1 2A.F ....
....|..|--- .... ....|R-- .... ....|R-- .... ....
....|..|D#4 UFD7 ....|E-5 3FEF ....|A-1 2F.7 ....
....|..|R-- .... ....|--- .... ....|R-- .... ....
 G#3|..|E-4 UFDA ....|--- .... ....|G#1 2A.F ....
....|..|R-- .... ....|--- .... ....|R-- .... ....
 G#3|..|E-4 UFDF ....|C#5 3FEF ....|G#1 2A.F ....
....|..|R-- .... ....|--- .... ....|R-- .... ....
 G#3|..|E-4 UFDF ....|--- .... ....|G#1 2A.F ....
....|..|R-- .... ....|R-- .... ....|R-- .... ....
 G#3|..|D#4 UFDF ....|E-5 3FE7 ....|G#1 2A.F ....
....|..|R-- .... ....|--- .... ....|--- .... ....
....|..|--- .... ....|--- .... ....|G#1 2F.A ....
....|..|--- .... ....|R-- .... ....|R-- .... ....
 E-4|..|F#4 UFDF ....|E-5 3FEA ....|E-2 2A.F ....
....|..|R-- .... ....|--- .... ....|R-- .... ....
....|..|E-4 UFD7 ....|--- .... ....|G#1 2F.7 ....
....|..|R-- .... ....|--- .... ....|R-- .... ....
 C#4|..|D#4 UFDF ....|E-5 3FE7 ....|C#2 2A.F ....
....|..|D#4 UFDF ....|--- .... ....|R-- .... ....
....|..|G#3 UFDF ....|--- .... ....|G#1 2F.A ....
....|..|R-- .... ....|R-- .... ....|R-- .... ....
 C#4|..|E-4 UFDF ....|D#5 3FE7 ....|C#2 2A.F ....
....|..|R-- .... ....|--- .... ....|R-- .... ....
 C#4|..|D#4 UFDF ....|--- .... ....|C#2 2A.F ....
....|..|--- .... ....|--- .... ....|R-- .... ....
 C#4|..|G#3 UFDF ....|E-5 3FE7 ....|C#2 2A.F ....
....|..|R-- .... ....|--- .... ....|--- .... ....
....|..|D#4 UFDF ....|--- .... ....|G#1 2F.7 ....
....|..|D#4 UFDF ....|--- .... ....|R-- .... ....
 C#4|..|F#4 UFDF ....|C#5 3FE7 ....|C#2 2A.F ....
....|..|D#4 UFDA ....|--- .... ....|R-- .... ....
 C#4|..|D#4 UFDF ....|--- .... ....|C#2 2A.F ....
....|..|R-- .... ....|--- .... ....|R-- .... ....
....|..|G#3 UFDF ....|R-- .... ....|G#1 2F.7 ....
....|..|R-- .... ....|--- .... ....|R-- .... ....
 C#4|..|G#3 UFDF ....|--- .... ....|C#2 2A.F ....
....|..|--- .... ....|--- .... ....|R-- .... ....
 C#4|..|D#4 UFDF ....|--- .... ....|C#2 2A.F ....
....|..|G#3 UFDF ....|--- .... ....|R-- .... ....
 C#4|..|E-4 UFDF ....|--- .... ....|C#2 2A.F ....
....|..|D#4 UFDA ....|--- .... ....|R-- .... ....
 C#4|..|G#3 UFDF ....|--- .... ....|C#2 2A.F ....
....|..|D#4 UFD7 ....|--- .... ....|--- .... ....
....|..|E-4 UFDF ....|--- .... ....|C#2 2F.A ....
....|..|R-- .... ....|--- .... ....|R-- .... ....
 B-3|..|F#4 UFDF ....|--- .... ....|B-1 2A.F ....
....|..|R-- .... ....|--- .... ....|R-- .... ....
....|..|F#3 UFDF ....|--- .... ....|C#2 2F.7 ....
....|..|--- .... ....|--- .... ....|R-- .... ....
 G#4|..|G#3 UFD7 ....|--- .... ....|G#2 2A.F ....
....|..|G#3 UFDA ....|--- .... ....|R-- .... ....
 G#4|..|D#4 UFD7 ....|--- .... ....|G#2 2A.F ....
....|..|D#4 UFD7 ....|--- .... ....|R-- .... ....
 E-4|..|E-3 UFDF ....|--- .... ....|E-3 2C.F ....
....|..|R-- .... ....|--- .... ....|R-- .... ....
 G#4|..|D#4 UFD7 ....|--- .... ....|G#2 2A.F ....
....|..|R-- .... ....|--- .... ....|R-- .... ....
 D#4|..|D#3 UFDF ....|--- .... ....|D#3 2C.F ....
....|..|R-- .... ....|--- .... ....|R-- .... ....
 G#4|..|G#3 UFD7 ....|--- .... ....|G#2 2A.F ....
....|..|--- .... ....|--- .... ....|R-- .... ....
 F#4|..|F#3 UFDF ....|--- .... ....|F#3 2C.F ....
....|..|G#3 UFD7 ....|--- .... ....|R-- .... ....
 G#4|..|E-4 UFD7 ....|--- .... ....|G#2 2A.F ....
....|..|--- .... ....|--- .... ....|R-- .... ....
 G#4|..|G#3 UFD7 ....|--- .... ....|G#2 2A.F ....
....|..|R-- .... ....|--- .... ....|R-- .... ....
 G#4|..|E-4 UFD7 ....|--- .... ....|G#2 2A.F ....
....|..|--- .... ....|--- .... ....|R-- .... ....
 E-4|..|E-3 UFDF ....|--- .... ....|E-3 2C.F ....
....|..|R-- .... ....|--- .... ....|R-- .... ....
 E-4|..|E-3 UFDF ....|--- .... ....|E-3 2C.F ....
....|..|R-- .... ....|--- .... ....|R-- .... ....
 D#4|..|D#3 UFDF ....|--- .... ....|D#3 2C.F ....
....|..|R-- .... ....|--- .... ....|R-- .... ....
 D#4|..|D#3 UFDF ....|--- .... ....|D#3 2C.F ....
....|..|R-- .... ....|--- .... ....|R-- .... ....
 F#4|..|F#3 UFDF ....|--- .... ....|F#3 2C.F ....
....|..|R-- .... ....|--- .... ....|R-- .... ....
 D#4|..|D#3 UFDF ....|--- .... ....|D#3 2C.F ....
....|..|R-- .... ....|--- .... ....|R-- .... ....
 A-3|..|D#3 UFD7 ....|A-4 3FEF ....|A-1 2A.F ....
....|..|R-- .... ....|--- .... ....|R-- .... ....
....|..|E-3 UFDA ....|--- .... ....|G#2 2F.7 ....
....|..|R-- .... ....|--- .... ....|R-- .... ....
 A-3|..|F#3 UFD7 ....|--- .... ....|A-1 2A.F ....
....|..|R-- .... ....|--- .... ....|R-- .... ....
 A-3|..|D#3 UFDA ....|R-- .... ....|A-1 2A.F ....
....|..|R-- .... ....|--- .... ....|R-- .... ....
 A-3|..|F#3 UFDA ....|A-4 3FEF ....|A-1 2A.F ....
....|..|R-- .... ....|--- .... ....|R-- .... ....
....|..|D#3 UFDA ....|--- .... ....|G#2 2F.7 ....
....|..|R-- .... ....|--- .... ....|R-- .... ....
 A-3|..|E-3 UFD7 ....|G#4 3FEF ....|A-1 2A.F ....
....|..|R-- .... ....|--- .... ....|R-- .... ....
 A-3|..|E-3 UFD7 ....|--- .... ....|A-1 2A.F ....
....|..|R-- .... ....|--- .... ....|R-- .... ....
....|..|D#3 UFD7 ....|A-4 3FEF ....|D#3 2F.7 ....
....|..|R-- .... ....|--- .... ....|R-- .... ....
 A-3|..|D#3 UFD7 ....|R-- .... ....|A-1 2A.F ....
....|..|R-- .... ....|--- .... ....|R-- .... ....
 A-3|..|F#3 UFD7 ....|A-4 3FEA ....|A-1 2A.F ....
....|..|R-- .... ....|--- .... ....|R-- .... ....
 A-3|..|D#3 UFD7 ....|--- .... ....|A-1 2A.F ....
....|..|R-- .... ....|R-- .... ....|R-- .... ....
 A-3|..|--- .... ....|A-4 3FE7 ....|A-1 2A.F ....
....|..|--- .... ....|--- .... ....|--- .... ....
....|..|--- .... ....|--- .... ....|A-1 2F.A ....
....|..|--- .... ....|--- .... ....|R-- .... ....
 A-3|..|--- .... ....|A-4 3FEA ....|A-1 2A.F ....
....|..|--- .... ....|--- .... ....|R-- .... ....
....|..|--- .... ....|R-- .... ....|A-1 2F.7 ....
....|..|--- .... ....|--- .... ....|R-- .... ....

[Pattern19]
 G#3|..|--- .... ....|A-4 3FEF ....|G#1 2A.F ....
....|..|--- .... ....|R-- .... ....|R-- .... ....
....|..|--- .... ....|--- .... ....|A-1 2F.A ....
....|..|--- .... ....|R-- .... ....|R-- .... ....
 G#3|..|--- .... ....|A-4 3FEF ....|G#1 2A.F ....
....|..|--- .... ....|--- .... ....|R-- .... ....
 G#3|..|--- .... ....|--- .... ....|G#1 2A.F ....
....|..|--- .... ....|R-- .... ....|R-- .... ....
 G#3|..|--- .... ....|G#4 3FEF ....|G#1 2A.F ....
....|..|--- .... ....|--- .... ....|--- .... ....
....|..|--- .... ....|R-- .... ....|A-1 2F.7 ....
....|..|--- .... ....|--- .... ....|R-- .... ....
 G#3|..|--- .... ....|A-4 3FEF ....|G#1 2A.F ....
....|..|--- .... ....|R-- .... ....|R-- .... ....
 G#3|..|--- .... ....|--- .... ....|G#1 2A.F ....
....|..|--- .... ....|R-- .... ....|R-- .... ....
....|..|--- .... ....|D#5 3FEF ....|A-1 2F.7 ....
....|..|--- .... ....|--- .... ....|R-- .... ....
 G#3|..|--- .... ....|--- .... ....|G#1 2A.F ....
....|..|--- .... ....|R-- .... ....|R-- .... ....
 G#3|..|--- .... ....|G#4 3FEA ....|G#1 2A.F ....
....|..|--- .... ....|--- .... ....|R-- .... ....
 G#3|..|--- .... ....|R-- .... ....|G#1 2A.F ....
....|..|--- .... ....|R-- .... ....|R-- .... ....
 G#3|..|--- .... ....|A-4 3FE7 ....|G#1 2A.F ....
....|..|--- .... ....|R-- .... ....|--- .... ....
....|..|--- .... ....|--- .... ....|G#1 2F.A ....
....|..|--- .... ....|R-- .... ....|R-- .... ....
 E-4|..|--- .... ....|A-4 3FE7 ....|E-2 2A.F ....
....|..|--- .... ....|--- .... ....|R-- .... ....
....|..|--- .... ....|--- .... ....|G#1 2F.7 ....
....|..|--- .... ....|R-- .... ....|R-- .... ....
 C#4|..|--- .... ....|G#4 3FEF ....|C#2 2A.F ....
....|..|--- .... ....|--- .... ....|R-- .... ....
....|..|--- .... ....|R-- .... ....|G#1 2F.A ....
....|..|--- .... ....|R-- .... ....|R-- .... ....
 C#4|..|--- .... ....|A-4 3FE7 ....|C#2 2A.F ....
....|..|--- .... ....|--- .... ....|R-- .... ....
 C#4|..|--- .... ....|R-- .... ....|C#2 2A.F ....
....|..|--- .... ....|R-- .... ....|R-- .... ....
 C#4|..|--- .... ....|G#4 3FEF ....|C#2 2A.F ....
....|..|--- .... ....|--- .... ....|--- .... ....
....|..|--- .... ....|R-- .... ....|G#1 2F.7 ....
....|..|--- .... ....|--- .... ....|R-- .... ....
 C#4|..|--- .... ....|F#4 3FEF ....|C#2 2A.F ....
....|..|--- .... ....|--- .... ....|R-- .... ....
 C#4|..|--- .... ....|--- .... ....|C#2 2A.F ....
....|..|--- .... ....|R-- .... ....|R-- .... ....
....|..|--- .... ....|G#4 3FEF ....|G#1 2F.7 ....
....|..|--- .... ....|--- .... ....|R-- .... ....
 C#4|..|--- .... ....|R-- .... ....|C#2 2A.F ....
....|..|--- .... ....|--- .... ....|R-- .... ....
 C#4|..|--- .... ....|G#4 3FEA ....|C#2 2A.F ....
....|..|--- .... ....|--- .... ....|R-- .... ....
 C#4|..|--- .... ....|R-- .... ....|C#2 2A.F ....
....|..|--- .... ....|--- .... ....|R-- .... ....
 C#4|..|--- .... ....|G#4 3FE7 ....|C#2 2A.F ....
....|..|--- .... ....|--- .... ....|--- .... ....
....|..|--- .... ....|--- .... ....|C#2 2F.A ....
....|..|--- .... ....|R-- .... ....|R-- .... ....
 B-3|..|--- .... ....|G#4 3FEF ....|B-1 2A.F ....
....|..|--- .... ....|--- .... ....|R-- .... ....
....|..|--- .... ....|R-- .... ....|C#2 2F.7 ....
....|..|--- .... ....|--- .... ....|R-- .... ....
 E-4|..|--- .... ....|G#4 3FE7 ....|E-2 2A.F ....
....|..|--- .... ....|--- .... ....|R-- .... ....
....|..|--- .... ....|R-- .... ....|C#2 2F.A ....
....|..|--- .... ....|--- .... ....|R-- .... ....
 E-4|..|--- .... ....|F#4 3FE7 ....|E-2 2A.F ....
....|..|--- .... ....|--- .... ....|R-- .... ....
 E-4|..|--- .... ....|--- .... ....|E-2 2A.F ....
....|..|--- .... ....|R-- .... ....|R-- .... ....
 E-4|..|--- .... ....|G#4 3FEF ....|E-2 2A.F ....
....|..|--- .... ....|--- .... ....|--- .... ....
....|..|--- .... ....|--- .... ....|C#2 2F.7 ....
....|..|--- .... ....|R-- .... ....|R-- .... ....
 E-4|..|--- .... ....|F#4 3FEF ....|E-2 2A.F ....
....|..|--- .... ....|--- .... ....|R-- .... ....
 E-4|..|--- .... ....|R-- .... ....|E-2 2A.F ....
....|..|--- .... ....|--- .... ....|R-- .... ....
....|..|--- .... ....|G#4 3FEF ....|C#2 2F.7 ....
....|..|--- .... ....|--- .... ....|R-- .... ....
 E-4|..|--- .... ....|--- .... ....|E-2 2A.F ....
....|..|--- .... ....|--- .... ....|R-- .... ....
 E-4|..|--- .... ....|E-5 3FEF ....|E-2 2A.F ....
....|..|--- .... ....|--- .... ....|R-- .... ....
 E-4|..|--- .... ....|--- .... ....|E-2 2A.F ....
....|..|--- .... ....|R-- .... ....|R-- .... ....
 E-4|..|--- .... ....|F#4 3FEA ....|E-2 2A.F ....
....|..|--- .... ....|R-- .... ....|--- .... ....
....|..|--- .... ....|R-- .... ....|E-2 2F.A ....
....|..|--- .... ....|--- .... ....|R-- .... ....
 E-4|..|--- .... ....|G#4 3FEA ....|E-2 2A.F ....
....|..|--- .... ....|--- .... ....|R-- .... ....
....|..|--- .... ....|--- .... ....|E-2 2F.7 ....
....|..|--- .... ....|--- .... ....|R-- .... ....
 A-3|..|--- .... ....|A-4 3FEF ....|A-1 2A.F ....
....|..|--- .... ....|--- .... ....|R-- .... ....
....|..|--- .... ....|--- .... ....|E-2 2F.A ....
....|..|--- .... ....|R-- .... ....|R-- .... ....
 A-3|..|--- .... ....|F#4 3FE7 ....|A-1 2A.F ....
....|..|--- .... ....|R-- .... ....|R-- .... ....
 A-3|..|--- .... ....|R-- .... ....|A-1 2A.F ....
....|..|--- .... ....|--- .... ....|R-- .... ....
 A-3|..|--- .... ....|A-4 3FEF ....|A-1 2A.F ....
....|..|--- .... ....|--- .... ....|--- .... ....
....|..|--- .... ....|--- .... ....|E-2 2F.7 ....
....|..|--- .... ....|--- .... ....|R-- .... ....
 A-3|..|--- .... ....|G#4 3FEF ....|A-1 2A.F ....
....|..|--- .... ....|--- .... ....|R-- .... ....
 A-3|..|--- .... ....|--- .... ....|A-1 2A.F ....
....|..|--- .... ....|--- .... ....|R-- .... ....
....|..|--- .... ....|A-4 3FEF ....|E-2 2F.7 ....
....|..|--- .... ....|R-- .... ....|R-- .... ....
 A-3|..|--- .... ....|R-- .... ....|A-1 2A.F ....
....|..|--- .... ....|--- .... ....|R-- .... ....
 A-3|..|--- .... ....|A-4 3FEA ....|A-1 2A.F ....
....|..|--- .... ....|--- .... ....|R-- .... ....
 A-3|..|--- .... ....|--- .... ....|A-1 2A.F ....
....|..|--- .... ....|R-- .... ....|R-- .... ....
 A-3|..|--- .... ....|A-4 3FE7 ....|A-1 2A.F ....
....|..|--- .... ....|--- .... ....|--- .... ....
....|..|--- .... ....|--- .... ....|A-1 2F.A ....
....|..|--- .... ....|--- .... ....|R-- .... ....
 A-3|..|--- .... ....|E-4 3FEF ....|A-1 2A.F ....
....|..|--- .... ....|--- .... ....|R-- .... ....
....|..|--- .... ....|R-- .... ....|A-1 2F.7 ....
....|..|--- .... ....|R-- .... ....|R-- .... ....

[Pattern20]
 G#3|..|--- .... ....|A-4 3FEF ....|G#1 2A.F ....
....|..|--- .... ....|--- .... ....|R-- .... ....
....|..|--- .... ....|--- .... ....|A-1 2F.A ....
....|..|--- .... ....|R-- .... ....|R-- .... ....
 G#3|..|--- .... ....|A-4 3FEF ....|G#1 2A.F ....
....|..|--- .... ....|--- .... ....|R-- .... ....
 G#3|..|--- .... ....|--- .... ....|G#1 2A.F ....
....|..|--- .... ....|R-- .... ....|R-- .... ....
 G#3|..|--- .... ....|G#4 3FEF ....|G#1 2A.F ....
....|..|--- .... ....|--- .... ....|--- .... ....
....|..|--- .... ....|R-- .... ....|A-1 2F.7 ....
....|..|--- .... ....|R-- .... ....|R-- .... ....
 G#3|..|--- .... ....|A-4 3FEF ....|G#1 2A.F ....
....|..|--- .... ....|--- .... ....|R-- .... ....
 G#3|..|--- .... ....|--- .... ....|G#1 2A.F ....
....|..|--- .... ....|R-- .... ....|R-- .... ....
....|..|--- .... ....|D#5 3FEF ....|A-1 2F.7 ....
....|..|--- .... ....|--- .... ....|R-- .... ....
 G#3|..|--- .... ....|--- .... ....|G#1 2A.F ....
....|..|--- .... ....|R-- .... ....|R-- .... ....
 G#3|..|--- .... ....|E-4 3FE7 ....|G#1 2A.F ....
....|..|--- .... ....|--- .... ....|R-- .... ....
 G#3|..|--- .... ....|R-- .... ....|G#1 2A.F ....
....|..|--- .... ....|R-- .... ....|R-- .... ....
 G#3|..|--- .... ....|A-4 3FE7 ....|G#1 2A.F ....
....|..|--- .... ....|--- .... ....|--- .... ....
....|..|--- .... ....|--- .... ....|G#1 2F.A ....
....|..|--- .... ....|R-- .... ....|R-- .... ....
 E-4|..|--- .... ....|A-4 3FE7 ....|E-2 2A.F ....
....|..|--- .... ....|--- .... ....|R-- .... ....
....|..|--- .... ....|--- .... ....|G#1 2F.7 ....
....|..|--- .... ....|R-- .... ....|R-- .... ....
 C#4|..|--- .... ....|G#4 3FEF ....|C#2 2A.F ....
....|..|--- .... ....|--- .... ....|R-- .... ....
....|..|--- .... ....|R-- .... ....|G#1 2F.A ....
....|..|--- .... ....|R-- .... ....|R-- .... ....
 C#4|..|--- .... ....|A-4 3FE7 ....|C#2 2A.F ....
....|..|--- .... ....|--- .... ....|R-- .... ....
 C#4|..|--- .... ....|R-- .... ....|C#2 2A.F ....
....|..|--- .... ....|R-- .... ....|R-- .... ....
 C#4|..|--- .... ....|G#4 3FEF ....|C#2 2A.F ....
....|..|--- .... ....|--- .... ....|--- .... ....
....|..|--- .... ....|--- .... ....|G#1 2F.7 ....
....|..|--- .... ....|R-- .... ....|R-- .... ....
 C#4|..|--- .... ....|F#4 3FEF ....|C#2 2A.F ....
....|..|--- .... ....|--- .... ....|R-- .... ....
 C#4|..|--- .... ....|--- .... ....|C#2 2A.F ....
....|..|--- .... ....|R-- .... ....|R-- .... ....
....|..|--- .... ....|G#4 3FEF ....|G#1 2F.7 ....
....|..|--- .... ....|--- .... ....|R-- .... ....
 C#4|..|--- .... ....|R-- .... ....|C#2 2A.F ....
....|..|--- .... ....|--- .... ....|R-- .... ....
 C#4|..|--- .... ....|G#4 3FEA ....|C#2 2A.F ....
....|..|--- .... ....|R-- .... ....|R-- .... ....
 C#4|..|--- .... ....|--- .... ....|C#2 2A.F ....
....|..|--- .... ....|R-- .... ....|R-- .... ....
 C#4|..|--- .... ....|C#4 3FEF ....|C#2 2A.F ....
....|..|--- .... ....|--- .... ....|--- .... ....
....|..|--- .... ....|--- .... ....|C#2 2F.A ....
....|..|--- .... ....|R-- .... ....|R-- .... ....
 B-3|..|--- .... ....|G#4 3FEF ....|B-1 2A.F ....
....|..|--- .... ....|--- .... ....|R-- .... ....
 B-3|..|--- .... ....|R-- .... ....|B-1 2A.F ....
....|..|--- .... ....|--- .... ....|R-- .... ....
....|..|--- .... ....|G#4 3FE7 ....|C#2 2F.7 ....
....|..|--- .... ....|R-- .... ....|R-- .... ....
....|..|--- .... ....|--- .... ....|C#2 2F.A ....
....|..|--- .... ....|R-- .... ....|R-- .... ....
....|..|--- .... ....|F#4 3FE7 ....|C#2 2F.7 ....
....|..|--- .... ....|--- .... ....|--- .... ....
....|..|--- .... ....|--- .... ....|C#2 2F.7 ....
....|..|--- .... ....|R-- .... ....|R-- .... ....
....|..|--- .... ....|G#4 3FEF ....|B-1 2F.A ....
....|..|--- .... ....|--- .... ....|R-- .... ....
....|..|--- .... ....|--- .... ....|C#2 2F.7 ....
....|..|--- .... ....|R-- .... ....|R-- .... ....
....|..|--- .... ....|F#4 3FEF ....|C#2 2F.7 ....
....|..|--- .... ....|R-- .... ....|R-- .... ....
....|..|--- .... ....|--- .... ....|C#2 2F.7 ....
....|..|--- .... ....|--- .... ....|--- .... ....
....|..|--- .... ....|G#4 3FEF ....|C#2 2F.7 ....
....|..|--- .... ....|--- .... ....|--- .... ....
....|..|--- .... ....|--- .... ....|--- .... ....
....|..|--- .... ....|--- .... ....|R-- .... ....
....|..|--- .... ....|E-5 3FEF ....|B-1 2F.7 ....
....|..|--- .... ....|--- .... ....|R-- .... ....
....|..|--- .... ....|--- .... ....|B-1 2F.7 ....
....|..|--- .... ....|R-- .... ....|--- .... ....
....|..|--- .... ....|F#4 3FEA ....|R-- .... ....
....|..|--- .... ....|R-- .... ....|--- .... ....
....|..|--- .... ....|--- .... ....|--- .... ....
....|..|--- .... ....|--- .... ....|--- .... ....
....|..|--- .... ....|G#4 3FEA ....|--- .... ....
....|..|--- .... ....|--- .... ....|--- .... ....
....|..|--- .... ....|--- .... ....|--- .... ....
....|..|--- .... ....|--- .... ....|--- .... ....
 A-3|..|--- .... ....|A-4 3FEF ....|A-1 2A.F ....
....|..|--- .... ....|--- .... ....|--- .... ....
....|..|--- .... ....|--- .... ....|--- .... ....
....|..|--- .... ....|R-- .... ....|R-- .... ....
 A-3|..|--- .... ....|F#4 3FE7 ....|A-1 2A.F ....
....|..|--- .... ....|R-- .... ....|R-- .... ....
 A-3|..|--- .... ....|R-- .... ....|A-1 2A.F ....
....|..|--- .... ....|--- .... ....|R-- .... ....
 A-3|..|--- .... ....|A-4 3FEF ....|A-1 2A.F ....
....|..|--- .... ....|--- .... ....|--- .... ....
....|..|--- .... ....|--- .... ....|--- .... ....
....|..|--- .... ....|--- .... ....|R-- .... ....
 A-3|..|--- .... ....|G#4 3FEF ....|A-1 2A.F ....
....|..|--- .... ....|--- .... ....|--- .... ....
 A-3|..|--- .... ....|--- .... ....|A-1 2A.F ....
....|..|--- .... ....|--- .... ....|R-- .... ....
....|..|--- .... ....|A-4 3FEF ....|A-1 2F.A ....
....|..|--- .... ....|R-- .... ....|R-- .... ....
 A-3|..|--- .... ....|R-- .... ....|A-1 2A.F ....
....|..|--- .... ....|--- .... ....|R-- .... ....
 A-3|..|--- .... ....|A-4 3FEA ....|A-1 2A.F ....
....|..|--- .... ....|--- .... ....|R-- .... ....
 A-3|..|--- .... ....|--- .... ....|A-1 2A.F ....
....|..|--- .... ....|R-- .... ....|R-- .... ....
 A-3|..|--- .... ....|A-4 3FE7 ....|A-1 2A.F ....
....|..|--- .... ....|--- .... ....|--- .... ....
....|..|--- .... ....|--- .... ....|A-1 2F.A ....
....|..|--- .... ....|--- .... ....|R-- .... ....
 A-3|..|--- .... ....|A-4 3FEA ....|A-1 2A.F ....
....|..|--- .... ....|--- .... ....|R-- .... ....
....|..|--- .... ....|R-- .... ....|A-1 2F.7 ....
....|..|--- .... ....|--- .... ....|R-- .... ....

[Pattern21]
 G#3|..|--- .... ....|A-4 3FEF ....|G#1 2A.F ....
....|..|--- .... ....|--- .... ....|R-- .... ....
....|..|--- .... ....|--- .... ....|A-1 2F.A ....
....|..|--- .... ....|R-- .... ....|R-- .... ....
 G#3|..|--- .... ....|A-4 3FEF ....|G#1 2A.F ....
....|..|--- .... ....|--- .... ....|R-- .... ....
 G#3|..|--- .... ....|--- .... ....|G#1 2A.F ....
....|..|--- .... ....|R-- .... ....|R-- .... ....
 G#3|..|--- .... ....|G#4 3FEF ....|G#1 2A.F ....
....|..|--- .... ....|--- .... ....|--- .... ....
....|..|--- .... ....|R-- .... ....|A-1 2F.7 ....
....|..|--- .... ....|--- .... ....|R-- .... ....
 G#3|..|--- .... ....|A-4 3FEF ....|G#1 2A.F ....
....|..|--- .... ....|--- .... ....|R-- .... ....
 G#3|..|--- .... ....|--- .... ....|G#1 2A.F ....
....|..|--- .... ....|R-- .... ....|R-- .... ....
....|..|--- .... ....|D#5 3FEF ....|A-1 2F.7 ....
....|..|--- .... ....|--- .... ....|R-- .... ....
 G#3|..|--- .... ....|--- .... ....|G#1 2A.F ....
....|..|--- .... ....|R-- .... ....|R-- .... ....
 G#3|..|--- .... ....|G#4 3FEA ....|G#1 2A.F ....
....|..|--- .... ....|--- .... ....|R-- .... ....
 G#3|..|--- .... ....|R-- .... ....|G#1 2A.F ....
....|..|--- .... ....|R-- .... ....|R-- .... ....
 G#3|..|--- .... ....|A-4 3FE7 ....|G#1 2A.F ....
....|..|--- .... ....|--- .... ....|--- .... ....
....|..|--- .... ....|--- .... ....|G#1 2F.A ....
....|..|--- .... ....|R-- .... ....|R-- .... ....
 E-4|..|--- .... ....|A-4 3FE7 ....|E-2 2A.F ....
....|..|--- .... ....|--- .... ....|R-- .... ....
....|..|--- .... ....|--- .... ....|G#1 2F.7 ....
....|..|--- .... ....|R-- .... ....|R-- .... ....
 C#4|..|--- .... ....|G#4 3FEF ....|C#2 2A.F ....
....|..|--- .... ....|--- .... ....|R-- .... ....
....|..|--- .... ....|R-- .... ....|G#1 2F.A ....
....|..|--- .... ....|R-- .... ....|R-- .... ....
 C#4|..|--- .... ....|A-4 3FE7 ....|C#2 2A.F ....
....|..|--- .... ....|--- .... ....|R-- .... ....
 C#4|..|--- .... ....|R-- .... ....|C#2 2A.F ....
....|..|--- .... ....|R-- .... ....|R-- .... ....
 C#4|..|--- .... ....|G#4 3FEF ....|C#2 2A.F ....
....|..|--- .... ....|--- .... ....|--- .... ....
....|..|--- .... ....|R-- .... ....|G#1 2F.7 ....
....|..|--- .... ....|--- .... ....|R-- .... ....
 C#4|..|--- .... ....|F#4 3FEF ....|C#2 2A.F ....
....|..|--- .... ....|--- .... ....|R-- .... ....
 C#4|..|--- .... ....|--- .... ....|C#2 2A.F ....
....|..|--- .... ....|R-- .... ....|R-- .... ....
....|..|--- .... ....|G#4 3FEF ....|G#1 2F.7 ....
....|..|--- .... ....|--- .... ....|R-- .... ....
 C#4|..|--- .... ....|R-- .... ....|C#2 2A.F ....
....|..|--- .... ....|--- .... ....|R-- .... ....
 C#4|..|--- .... ....|G#4 3FEA ....|C#2 2A.F ....
....|..|--- .... ....|--- .... ....|R-- .... ....
 C#4|..|--- .... ....|R-- .... ....|C#2 2A.F ....
....|..|--- .... ....|--- .... ....|R-- .... ....
 C#4|..|--- .... ....|G#4 3FE7 ....|C#2 2A.F ....
....|..|--- .... ....|--- .... ....|--- .... ....
....|..|--- .... ....|--- .... ....|C#2 2F.A ....
....|..|--- .... ....|R-- .... ....|R-- .... ....
 B-3|..|--- .... ....|G#4 3FEF ....|B-1 2A.F ....
....|..|--- .... ....|--- .... ....|R-- .... ....
....|..|--- .... ....|R-- .... ....|C#2 2F.7 ....
....|..|--- .... ....|--- .... ....|R-- .... ....
 E-4|..|--- .... ....|G#4 3FE7 ....|E-2 2A.F ....
....|..|--- .... ....|--- .... ....|R-- .... ....
....|..|--- .... ....|R-- .... ....|C#2 2F.A ....
....|..|--- .... ....|--- .... ....|R-- .... ....
 E-4|..|--- .... ....|F#4 3FE7 ....|E-2 2A.F ....
....|..|--- .... ....|--- .... ....|R-- .... ....
 E-4|..|--- .... ....|--- .... ....|E-2 2A.F ....
....|..|--- .... ....|R-- .... ....|R-- .... ....
 E-4|..|--- .... ....|G#4 3FEF ....|E-2 2A.F ....
....|..|--- .... ....|--- .... ....|--- .... ....
....|..|--- .... ....|--- .... ....|C#2 2F.7 ....
....|..|--- .... ....|R-- .... ....|R-- .... ....
 E-4|..|--- .... ....|F#4 3FEF ....|E-2 2A.F ....
....|..|--- .... ....|--- .... ....|R-- .... ....
 E-4|..|--- .... ....|R-- .... ....|E-2 2A.F ....
....|..|--- .... ....|--- .... ....|R-- .... ....
....|..|--- .... ....|G#4 3FEF ....|C#2 2F.7 ....
....|..|--- .... ....|--- .... ....|R-- .... ....
 E-4|..|--- .... ....|--- .... ....|E-2 2A.F ....
....|..|--- .... ....|--- .... ....|R-- .... ....
 E-4|..|--- .... ....|E-5 3FEF ....|E-2 2A.F ....
....|..|--- .... ....|--- .... ....|R-- .... ....
 E-4|..|--- .... ....|--- .... ....|E-2 2A.F ....
....|..|--- .... ....|R-- .... ....|R-- .... ....
 E-4|..|--- .... ....|F#4 3FEA ....|E-2 2A.F ....
....|..|--- .... ....|R-- .... ....|--- .... ....
....|..|--- .... ....|R-- .... ....|E-2 2F.A ....
....|..|--- .... ....|--- .... ....|R-- .... ....
 E-4|..|--- .... ....|G#4 3FEA ....|E-2 2A.F ....
....|..|--- .... ....|--- .... ....|R-- .... ....
....|..|--- .... ....|--- .... ....|E-2 2F.7 ....
....|..|--- .... ....|--- .... ....|R-- .... ....
 A-3|..|--- .... ....|A-4 3FEF ....|A-1 2A.F ....
....|..|--- .... ....|--- .... ....|R-- .... ....
....|..|--- .... ....|--- .... ....|E-2 2F.A ....
....|..|--- .... ....|R-- .... ....|R-- .... ....
 A-3|..|--- .... ....|F#4 3FE7 ....|A-1 2A.F ....
....|..|--- .... ....|R-- .... ....|R-- .... ....
 A-3|..|--- .... ....|R-- .... ....|A-1 2A.F ....
....|..|--- .... ....|--- .... ....|R-- .... ....
 A-3|..|--- .... ....|A-4 3FEF ....|A-1 2A.F ....
....|..|--- .... ....|--- .... ....|--- .... ....
....|..|--- .... ....|--- .... ....|E-2 2F.7 ....
....|..|--- .... ....|--- .... ....|R-- .... ....
 A-3|..|--- .... ....|G#4 3FEF ....|A-1 2A.F ....
....|..|--- .... ....|--- .... ....|R-- .... ....
 A-3|..|--- .... ....|--- .... ....|A-1 2A.F ....
....|..|--- .... ....|--- .... ....|R-- .... ....
....|..|--- .... ....|A-4 3FEF ....|E-2 2F.7 ....
....|..|--- .... ....|R-- .... ....|R-- .... ....
 A-3|..|--- .... ....|--- .... ....|A-1 2A.F ....
....|..|--- .... ....|--- .... ....|R-- .... ....
 A-3|..|--- .... ....|A-4 3FEA ....|A-1 2A.F ....
....|..|--- .... ....|--- .... ....|R-- .... ....
 A-3|..|--- .... ....|--- .... ....|A-1 2A.F ....
....|..|--- .... ....|--- .... ....|R-- .... ....
 A-3|..|--- .... ....|A-4 3FE7 ....|A-1 2A.F ....
....|..|--- .... ....|--- .... ....|--- .... ....
....|..|--- .... ....|--- .... ....|A-1 2F.A ....
....|..|--- .... ....|--- .... ....|R-- .... ....
 A-3|..|--- .... ....|A-4 3FEA ....|A-1 2A.F ....
....|..|--- .... ....|--- .... ....|R-- .... ....
....|..|--- .... ....|--- .... ....|A-1 2F.7 ....
....|..|--- .... ....|--- .... ....|R-- .... ....

[Pattern22]
 G#3|..|--- .... ....|A-4 3FEF ....|G#1 2A.F ....
....|..|--- .... ....|--- .... ....|R-- .... ....
....|..|--- .... ....|--- .... ....|A-1 2F.A ....
....|..|--- .... ....|--- .... ....|R-- .... ....
 G#3|..|--- .... ....|G#4 3FE7 ....|G#1 2A.F ....
....|..|--- .... ....|--- .... ....|R-- .... ....
 G#3|..|--- .... ....|--- .... ....|G#1 2A.F ....
....|..|--- .... ....|--- .... ....|R-- .... ....
 G#3|..|--- .... ....|A-4 3FEF ....|G#1 2A.F ....
....|..|--- .... ....|--- .... ....|--- .... ....
....|..|--- .... ....|--- .... ....|A-1 2F.7 ....
....|..|--- .... ....|--- .... ....|R-- .... ....
 G#3|..|--- .... ....|G#4 3FEF ....|G#1 2A.F ....
....|..|--- .... ....|--- .... ....|R-- .... ....
 G#3|..|--- .... ....|--- .... ....|G#1 2A.F ....
....|..|--- .... ....|--- .... ....|R-- .... ....
....|..|--- .... ....|A-4 3FEF ....|A-1 2F.7 ....
....|..|--- .... ....|--- .... ....|R-- .... ....
 G#3|..|--- .... ....|--- .... ....|G#1 2A.F ....
....|..|--- .... ....|--- .... ....|R-- .... ....
 G#3|..|--- .... ....|D#5 3FEF ....|G#1 2A.F ....
....|..|--- .... ....|--- .... ....|R-- .... ....
 G#3|..|--- .... ....|--- .... ....|G#1 2A.F ....
....|..|--- .... ....|R-- .... ....|R-- .... ....
 G#3|..|--- .... ....|A-4 3FE7 ....|G#1 2A.F ....
....|..|--- .... ....|--- .... ....|--- .... ....
....|..|--- .... ....|--- .... ....|G#1 2F.A ....
....|..|--- .... ....|--- .... ....|R-- .... ....
 E-4|..|--- .... ....|D#5 3FEF ....|E-2 2A.F ....
....|..|--- .... ....|--- .... ....|R-- .... ....
....|..|--- .... ....|--- .... ....|G#1 2F.7 ....
....|..|--- .... ....|R-- .... ....|R-- .... ....
 C#4|..|--- .... ....|G#4 3FEF ....|C#2 2A.F ....
....|..|--- .... ....|--- .... ....|R-- .... ....
....|..|--- .... ....|--- .... ....|G#1 2F.A ....
....|..|--- .... ....|R-- .... ....|R-- .... ....
 C#4|..|--- .... ....|G#4 3FE7 ....|C#2 2A.F ....
....|..|--- .... ....|--- .... ....|R-- .... ....
 C#4|..|--- .... ....|R-- .... ....|C#2 2A.F ....
....|..|--- .... ....|--- .... ....|R-- .... ....
 C#4|..|--- .... ....|G#4 3FEF ....|C#2 2A.F ....
....|..|--- .... ....|--- .... ....|--- .... ....
....|..|--- .... ....|--- .... ....|G#1 2F.7 ....
....|..|--- .... ....|R-- .... ....|R-- .... ....
 C#4|..|--- .... ....|F#4 3FEF ....|C#2 2A.F ....
....|..|--- .... ....|--- .... ....|R-- .... ....
 C#4|..|--- .... ....|--- .... ....|C#2 2A.F ....
....|..|--- .... ....|R-- .... ....|R-- .... ....
....|..|--- .... ....|G#4 3FEF ....|G#1 2F.7 ....
....|..|--- .... ....|--- .... ....|R-- .... ....
 C#4|..|--- .... ....|R-- .... ....|C#2 2A.F ....
....|..|--- .... ....|--- .... ....|R-- .... ....
 C#4|..|--- .... ....|D#5 3FE7 ....|C#2 2A.F ....
....|..|--- .... ....|R-- .... ....|R-- .... ....
 C#4|..|--- .... ....|--- .... ....|C#2 2A.F ....
....|..|--- .... ....|R-- .... ....|R-- .... ....
 C#4|..|--- .... ....|G#4 3FE7 ....|C#2 2A.F ....
....|..|--- .... ....|--- .... ....|--- .... ....
....|..|--- .... ....|--- .... ....|C#2 2F.A ....
....|..|--- .... ....|R-- .... ....|R-- .... ....
 B-3|..|--- .... ....|D#5 3FEF ....|B-1 2A.F ....
....|..|--- .... ....|--- .... ....|R-- .... ....
 B-3|..|--- .... ....|R-- .... ....|B-1 2A.F ....
....|..|--- .... ....|R-- .... ....|R-- .... ....
....|..|--- .... ....|E-5 3FEF ....|C#2 2F.7 ....
....|..|--- .... ....|R-- .... ....|R-- .... ....
....|..|--- .... ....|--- .... ....|C#2 2F.A ....
....|..|--- .... ....|R-- .... ....|R-- .... ....
....|..|--- .... ....|F#4 3FE7 ....|C#2 2F.7 ....
....|..|--- .... ....|R-- .... ....|--- .... ....
....|..|--- .... ....|--- .... ....|C#2 2F.7 ....
....|..|--- .... ....|R-- .... ....|R-- .... ....
....|..|--- .... ....|E-5 3FEF ....|B-1 2F.A ....
....|..|--- .... ....|--- .... ....|R-- .... ....
....|..|--- .... ....|--- .... ....|C#2 2F.7 ....
....|..|--- .... ....|R-- .... ....|R-- .... ....
....|..|--- .... ....|D#5 3FEF ....|C#2 2F.7 ....
....|..|--- .... ....|R-- .... ....|R-- .... ....
....|..|--- .... ....|--- .... ....|C#2 2F.7 ....
....|..|--- .... ....|R-- .... ....|--- .... ....
....|..|--- .... ....|F#5 3FEF ....|C#2 2F.7 ....
....|..|--- .... ....|R-- .... ....|--- .... ....
....|..|--- .... ....|--- .... ....|--- .... ....
....|..|--- .... ....|--- .... ....|R-- .... ....
....|..|--- .... ....|E-5 3FEF ....|B-1 2F.7 ....
....|..|--- .... ....|--- .... ....|R-- .... ....
....|..|--- .... ....|--- .... ....|B-1 2F.7 ....
....|..|--- .... ....|R-- .... ....|--- .... ....
....|..|--- .... ....|E-5 3FE7 ....|R-- .... ....
....|..|--- .... ....|--- .... ....|--- .... ....
....|..|--- .... ....|--- .... ....|--- .... ....
....|..|--- .... ....|R-- .... ....|--- .... ....
....|..|--- .... ....|F#5 3FEA ....|--- .... ....
....|..|--- .... ....|R-- .... ....|--- .... ....
....|..|--- .... ....|--- .... ....|--- .... ....
....|..|--- .... ....|--- .... ....|--- .... ....
....|..|--- .... ....|E-5 3FEF ....|--- .... ....
....|..|--- .... ....|--- .... ....|--- .... ....
....|..|--- .... ....|--- .... ....|--- .... ....
....|..|--- .... ....|R-- .... ....|--- .... ....
....|..|--- .... ....|D#5 3FE7 ....|--- .... ....
....|..|--- .... ....|R-- .... ....|--- .... ....
....|..|--- .... ....|--- .... ....|--- .... ....
....|..|--- .... ....|R-- .... ....|--- .... ....
....|..|--- .... ....|E-5 3FEF ....|--- .... ....
....|..|--- .... ....|--- .... ....|--- .... ....
....|..|--- .... ....|--- .... ....|--- .... ....
....|..|--- .... ....|R-- .... ....|--- .... ....
....|..|--- .... ....|D#5 3FEF ....|--- .... ....
....|..|--- .... ....|--- .... ....|--- .... ....
....|..|--- .... ....|--- .... ....|--- .... ....
....|..|--- .... ....|R-- .... ....|--- .... ....
....|..|--- .... ....|F#5 3FEF ....|--- .... ....
....|..|--- .... ....|R-- .... ....|--- .... ....
....|..|--- .... ....|--- .... ....|--- .... ....
....|..|--- .... ....|--- .... ....|--- .... ....
....|..|--- .... ....|E-5 3FEF ....|--- .... ....
....|..|--- .... ....|--- .... ....|--- .... ....
....|..|--- .... ....|--- .... ....|--- .... ....
....|..|--- .... ....|R-- .... ....|--- .... ....
....|..|--- .... ....|E-5 3FE7 ....|--- .... ....
....|..|--- .... ....|--- .... ....|--- .... ....
....|..|--- .... ....|R-- .... ....|--- .... ....
....|..|--- .... ....|R-- .... ....|--- .... ....
....|..|--- .... ....|D#5 3FEF ....|--- .... ....
....|..|--- .... ....|R-- .... ....|--- .... ....
....|..|--- .... ....|--- .... ....|--- .... ....
....|..|--- .... ....|R-- .... ....|--- .... ....

[Pattern23]
....|..|--- .... ....|F#5 3FEF ....|--- .... ....
....|..|--- .... ....|--- .... ....|--- .... ....
....|..|--- .... ....|--- .... ....|--- .... ....
....|..|--- .... ....|R-- .... ....|--- .... ....
....|..|--- .... ....|E-5 3FEF ....|--- .... ....
....|..|--- .... ....|--- .... ....|--- .... ....
....|..|--- .... ....|R-- .... ....|--- .... ....
....|..|--- .... ....|R-- .... ....|--- .... ....
....|..|--- .... ....|F#5 3FE7 ....|--- .... ....
....|..|--- .... ....|--- .... ....|--- .... ....
....|..|--- .... ....|R-- .... ....|--- .... ....
....|..|--- .... ....|R-- .... ....|--- .... ....
....|..|--- .... ....|D#5 3FEF ....|--- .... ....
....|..|--- .... ....|--- .... ....|--- .... ....
....|..|--- .... ....|--- .... ....|--- .... ....
....|..|--- .... ....|R-- .... ....|--- .... ....
....|..|--- .... ....|F#5 3FEF ....|--- .... ....
....|..|--- .... ....|--- .... ....|--- .... ....
....|..|--- .... ....|R-- .... ....|--- .... ....
....|..|--- .... ....|--- .... ....|--- .... ....
....|..|--- .... ....|E-5 3FEF ....|--- .... ....
....|..|--- .... ....|--- .... ....|--- .... ....
....|..|--- .... ....|R-- .... ....|--- .... ....
....|..|--- .... ....|R-- .... ....|--- .... ....
....|..|--- .... ....|F#5 3FE7 ....|--- .... ....
....|..|--- .... ....|--- .... ....|--- .... ....
....|..|--- .... ....|R-- .... ....|--- .... ....
....|..|--- .... ....|R-- .... ....|--- .... ....
....|..|--- .... ....|E-5 3FE7 ....|--- .... ....
....|..|--- .... ....|--- .... ....|--- .... ....
....|..|--- .... ....|--- .... ....|--- .... ....
....|..|--- .... ....|--- .... ....|--- .... ....
....|..|--- .... ....|E-5 3FEA ....|--- .... ....
....|..|--- .... ....|--- .... ....|--- .... ....
....|..|--- .... ....|R-- .... ....|--- .... ....
....|..|--- .... ....|--- .... ....|--- .... ....
....|..|--- .... ....|D#5 3FE7 ....|--- .... ....
....|..|--- .... ....|--- .... ....|--- .... ....
....|..|--- .... ....|R-- .... ....|--- .... ....
....|..|--- .... ....|R-- .... ....|--- .... ....
....|..|--- .... ....|F#5 3FE7 ....|--- .... ....
....|..|--- .... ....|--- .... ....|--- .... ....
....|..|--- .... ....|--- .... ....|--- .... ....
....|..|--- .... ....|--- .... ....|--- .... ....
....|..|--- .... ....|E-5 3FE7 ....|--- .... ....
....|..|--- .... ....|--- .... ....|--- .... ....
....|..|--- .... ....|--- .... ....|--- .... ....
....|..|--- .... ....|--- .... ....|--- .... ....
....|..|--- .... ....|--- .... ....|--- .... ....
....|..|--- .... ....|--- .... ....|--- .... ....
....|..|--- .... ....|R-- .... ....|--- .... ....
....|..|--- .... ....|--- .... ....|--- .... ....
....|..|--- .... ....|--- .... ....|--- .... ....
....|..|--- .... ....|--- .... ....|--- .... ....
....|..|--- .... ....|--- .... ....|--- .... ....
....|..|--- .... ....|--- .... ....|--- .... ....
....|..|--- .... ....|--- .... ....|--- .... ....
....|..|--- .... ....|--- .... ....|--- .... ....
....|..|--- .... ....|--- .... ....|--- .... ....
....|..|--- .... ....|--- .... ....|--- .... ....
....|..|--- .... ....|--- .... ....|--- .... ....
....|..|--- .... ....|--- .... ....|--- .... ....
....|..|--- .... ....|--- .... ....|--- .... ....
....|..|--- .... ....|--- .... ....|--- .... ....
....|..|--- .... ....|--- .... ....|--- .... ....
....|..|--- .... ....|--- .... ....|--- .... ....
....|..|--- .... ....|--- .... ....|--- .... ....
....|..|--- .... ....|--- .... ....|--- .... ....
....|..|--- .... ....|--- .... ....|--- .... ....
....|..|--- .... ....|--- .... ....|--- .... ....
....|..|--- .... ....|--- .... ....|--- .... ....
....|..|--- .... ....|--- .... ....|--- .... ....
....|..|--- .... ....|--- .... ....|--- .... ....
....|..|--- .... ....|--- .... ....|--- .... ....
....|..|--- .... ....|--- .... ....|--- .... ....
....|..|--- .... ....|--- .... ....|--- .... ....
....|..|--- .... ....|--- .... ....|--- .... ....
....|..|--- .... ....|--- .... ....|--- .... ....
....|..|--- .... ....|--- .... ....|--- .... ....
....|..|--- .... ....|--- .... ....|--- .... ....
....|..|--- .... ....|--- .... ....|--- .... ....
....|..|--- .... ....|--- .... ....|--- .... ....
....|..|--- .... ....|--- .... ....|--- .... ....
....|..|--- .... ....|--- .... ....|--- .... ....
....|..|--- .... ....|--- .... ....|--- .... ....
....|..|--- .... ....|--- .... ....|--- .... ....
....|..|--- .... ....|--- .... ....|--- .... ....
....|..|--- .... ....|--- .... ....|--- .... ....
....|..|--- .... ....|--- .... ....|--- .... ....
....|..|--- .... ....|--- .... ....|--- .... ....
....|..|--- .... ....|--- .... ....|--- .... ....
....|..|--- .... ....|--- .... ....|--- .... ....
....|..|--- .... ....|--- .... ....|--- .... ....
....|..|--- .... ....|--- .... ....|--- .... ....
....|..|--- .... ....|--- .... ....|--- .... ....
....|..|--- .... ....|--- .... ....|--- .... ....
....|..|--- .... ....|E-5 3FEF ....|--- .... ....
....|..|--- .... ....|--- .... ....|--- .... ....
....|..|--- .... ....|--- .... ....|--- .... ....
....|..|--- .... ....|--- .... ....|--- .... ....
....|..|--- .... ....|R-- .... ....|--- .... ....
....|..|--- .... ....|--- .... ....|--- .... ....
....|..|--- .... ....|--- .... ....|--- .... ....
....|..|--- .... ....|--- .... ....|--- .... ....
....|..|--- .... ....|E-5 3FEF ....|--- .... ....
....|..|--- .... ....|--- .... ....|--- .... ....
....|..|--- .... ....|--- .... ....|--- .... ....
....|..|--- .... ....|R-- .... ....|--- .... ....
....|..|--- .... ....|D#5 3FEF ....|--- .... ....
....|..|--- .... ....|--- .... ....|--- .... ....
....|..|--- .... ....|--- .... ....|--- .... ....
....|..|--- .... ....|R-- .... ....|--- .... ....
....|..|--- .... ....|E-5 3FEF ....|--- .... ....
....|..|--- .... ....|--- .... ....|--- .... ....
....|..|--- .... ....|--- .... ....|--- .... ....
....|..|--- .... ....|R-- .... ....|--- .... ....
....|..|--- .... ....|C#5 3FEF ....|--- .... ....
....|..|--- .... ....|--- .... ....|--- .... ....
....|..|--- .... ....|--- .... ....|--- .... ....
....|..|--- .... ....|R-- .... ....|--- .... ....
....|..|--- .... ....|E-5 3FEF ....|--- .... ....
....|..|--- .... ....|E-5 3FEF ....|--- .... ....
....|..|--- .... ....|--- .... ....|--- .... ....
....|..|--- .... ....|R-- .... ....|--- .... ....
....|..|--- .... ....|D#5 3FEF ....|--- .... ....
....|..|--- .... ....|--- .... ....|--- .... ....
....|..|--- .... ....|--- .... ....|--- .... ....
....|..|--- .... ....|R-- .... ....|--- .... ....

[Pattern24]
....|..|--- .... ....|E-5 3FEF ....|--- .... ....
....|..|--- .... ....|--- .... ....|--- .... ....
....|..|--- .... ....|--- .... ....|--- .... ....
....|..|--- .... ....|R-- .... ....|--- .... ....
....|..|--- .... ....|C#5 3FEF ....|--- .... ....
....|..|--- .... ....|E-5 3FEA ....|--- .... ....
....|..|--- .... ....|--- .... ....|--- .... ....
....|..|--- .... ....|R-- .... ....|--- .... ....
....|..|--- .... ....|E-5 3FEF ....|--- .... ....
....|..|--- .... ....|E-5 3FEF ....|--- .... ....
....|..|--- .... ....|--- .... ....|--- .... ....
....|..|--- .... ....|R-- .... ....|--- .... ....
....|..|--- .... ....|D#5 3FEF ....|--- .... ....
....|..|--- .... ....|--- .... ....|--- .... ....
....|..|--- .... ....|--- .... ....|--- .... ....
....|..|--- .... ....|--- .... ....|--- .... ....
....|..|--- .... ....|E-5 3FEF ....|--- .... ....
....|..|--- .... ....|E-5 3FE7 ....|--- .... ....
....|..|--- .... ....|--- .... ....|--- .... ....
....|..|--- .... ....|--- .... ....|--- .... ....
....|..|--- .... ....|E-5 3FEF ....|--- .... ....
....|..|--- .... ....|C#5 3FEF ....|--- .... ....
....|..|--- .... ....|--- .... ....|--- .... ....
....|..|--- .... ....|R-- .... ....|--- .... ....
....|..|--- .... ....|E-5 3FE7 ....|--- .... ....
....|..|--- .... ....|--- .... ....|--- .... ....
....|..|--- .... ....|--- .... ....|--- .... ....
....|..|--- .... ....|--- .... ....|--- .... ....
....|..|--- .... ....|C#5 3FE7 ....|--- .... ....
....|..|--- .... ....|--- .... ....|--- .... ....
....|..|--- .... ....|--- .... ....|--- .... ....
....|..|--- .... ....|--- .... ....|--- .... ....
....|..|--- .... ....|E-5 3FE7 ....|--- .... ....
....|..|--- .... ....|E-5 3FE7 ....|--- .... ....
....|..|--- .... ....|--- .... ....|--- .... ....
....|..|--- .... ....|R-- .... ....|--- .... ....
....|..|--- .... ....|D#5 3FE7 ....|--- .... ....
....|..|--- .... ....|--- .... ....|--- .... ....
....|..|--- .... ....|--- .... ....|--- .... ....
....|..|--- .... ....|--- .... ....|--- .... ....
....|..|--- .... ....|E-5 3FE7 ....|--- .... ....
....|..|--- .... ....|--- .... ....|--- .... ....
....|..|--- .... ....|--- .... ....|--- .... ....
....|..|--- .... ....|--- .... ....|--- .... ....
....|..|--- .... ....|E-5 3FE7 ....|--- .... ....
....|..|--- .... ....|C#5 3FE7 ....|--- .... ....
....|..|--- .... ....|--- .... ....|--- .... ....
....|..|--- .... ....|--- .... ....|--- .... ....
....|..|--- .... ....|R-- .... ....|--- .... ....
....|..|--- .... ....|--- .... ....|--- .... ....
....|..|--- .... ....|--- .... ....|--- .... ....
....|..|--- .... ....|--- .... ....|--- .... ....
....|..|--- .... ....|--- .... ....|--- .... ....
....|..|--- .... ....|--- .... ....|--- .... ....
....|..|--- .... ....|--- .... ....|--- .... ....
....|..|--- .... ....|--- .... ....|--- .... ....
....|..|--- .... ....|--- .... ....|--- .... ....
....|..|--- .... ....|--- .... ....|--- .... ....
....|..|--- .... ....|--- .... ....|--- .... ....
....|..|--- .... ....|--- .... ....|--- .... ....
....|..|--- .... ....|--- .... ....|--- .... ....
....|..|--- .... ....|--- .... ....|--- .... ....
....|..|--- .... ....|--- .... ....|--- .... ....
....|..|--- .... ....|--- .... ....|--- .... ....
....|..|--- .... ....|--- .... ....|--- .... ....
....|..|--- .... ....|--- .... ....|--- .... ....
....|..|--- .... ....|--- .... ....|--- .... ....
....|..|--- .... ....|--- .... ....|--- .... ....
....|..|--- .... ....|--- .... ....|--- .... ....
....|..|--- .... ....|--- .... ....|--- .... ....
....|..|--- .... ....|--- .... ....|--- .... ....
....|..|--- .... ....|--- .... ....|--- .... ....
....|..|--- .... ....|--- .... ....|--- .... ....
....|..|--- .... ....|--- .... ....|--- .... ....
....|..|--- .... ....|--- .... ....|--- .... ....
....|..|--- .... ....|--- .... ....|--- .... ....
....|..|--- .... ....|--- .... ....|--- .... ....
....|..|--- .... ....|--- .... ....|--- .... ....
....|..|--- .... ....|--- .... ....|--- .... ....
....|..|--- .... ....|--- .... ....|--- .... ....
....|..|--- .... ....|--- .... ....|--- .... ....
....|..|--- .... ....|--- .... ....|--- .... ....
....|..|--- .... ....|--- .... ....|--- .... ....
....|..|--- .... ....|--- .... ....|--- .... ....
....|..|--- .... ....|--- .... ....|--- .... ....
....|..|--- .... ....|--- .... ....|--- .... ....
....|..|--- .... ....|--- .... ....|--- .... ....
....|..|--- .... ....|--- .... ....|--- .... ....
....|..|--- .... ....|--- .... ....|--- .... ....
....|..|--- .... ....|--- .... ....|--- .... ....
....|..|--- .... ....|--- .... ....|--- .... ....
....|..|--- .... ....|--- .... ....|--- .... ....
....|..|--- .... ....|--- .... ....|--- .... ....
....|..|--- .... ....|--- .... ....|--- .... ....
....|..|--- .... ....|--- .... ....|--- .... ....
....|..|--- .... ....|--- .... ....|--- .... ....
....|..|--- .... ....|E-5 3FEF ....|--- .... ....
....|..|--- .... ....|--- .... ....|--- .... ....
....|..|--- .... ....|--- .... ....|--- .... ....
....|..|--- .... ....|--- .... ....|--- .... ....
....|..|--- .... ....|R-- .... ....|--- .... ....
....|..|--- .... ....|--- .... ....|--- .... ....
....|..|--- .... ....|--- .... ....|--- .... ....
....|..|--- .... ....|--- .... ....|--- .... ....
....|..|--- .... ....|E-5 3FEF ....|--- .... ....
....|..|--- .... ....|--- .... ....|--- .... ....
....|..|--- .... ....|--- .... ....|--- .... ....
....|..|--- .... ....|R-- .... ....|--- .... ....
....|..|--- .... ....|D#5 3FEF ....|--- .... ....
....|..|--- .... ....|--- .... ....|--- .... ....
....|..|--- .... ....|--- .... ....|--- .... ....
....|..|--- .... ....|R-- .... ....|--- .... ....
....|..|--- .... ....|E-5 3FEF ....|--- .... ....
....|..|--- .... ....|--- .... ....|--- .... ....
....|..|--- .... ....|--- .... ....|--- .... ....
....|..|--- .... ....|R-- .... ....|--- .... ....
....|..|--- .... ....|C#5 3FEF ....|--- .... ....
....|..|--- .... ....|--- .... ....|--- .... ....
....|..|--- .... ....|--- .... ....|--- .... ....
....|..|--- .... ....|R-- .... ....|--- .... ....
....|..|--- .... ....|E-5 3FEF ....|--- .... ....
....|..|--- .... ....|E-5 3FEF ....|--- .... ....
....|..|--- .... ....|--- .... ....|--- .... ....
....|..|--- .... ....|R-- .... ....|--- .... ....
....|..|--- .... ....|D#5 3FEF ....|--- .... ....
....|..|--- .... ....|--- .... ....|--- .... ....
....|..|--- .... ....|--- .... ....|--- .... ....
....|..|--- .... ....|R-- .... ....|--- .... ....

[Pattern26]
....|..|--- .... ....|E-5 3FEF ....|--- .... ....
....|..|--- .... ....|--- .... ....|--- .... ....
....|..|--- .... ....|--- .... ....|--- .... ....
....|..|--- .... ....|R-- .... ....|--- .... ....
....|..|--- .... ....|C#5 3FEF ....|--- .... ....
....|..|--- .... ....|E-5 3FEA ....|--- .... ....
....|..|--- .... ....|--- .... ....|--- .... ....
....|..|--- .... ....|R-- .... ....|--- .... ....
....|..|--- .... ....|E-5 3FEF ....|--- .... ....
....|..|--- .... ....|E-5 3FEF ....|--- .... ....
....|..|--- .... ....|--- .... ....|--- .... ....
....|..|--- .... ....|R-- .... ....|--- .... ....
....|..|--- .... ....|D#5 3FEF ....|--- .... ....
....|..|--- .... ....|--- .... ....|--- .... ....
....|..|--- .... ....|--- .... ....|--- .... ....
....|..|--- .... ....|--- .... ....|--- .... ....
....|..|--- .... ....|E-5 3FEF ....|--- .... ....
....|..|--- .... ....|E-5 3FE7 ....|--- .... ....
....|..|--- .... ....|--- .... ....|--- .... ....
....|..|--- .... ....|--- .... ....|--- .... ....
....|..|--- .... ....|E-5 3FEF ....|--- .... ....
....|..|--- .... ....|C#5 3FEF ....|--- .... ....
....|..|--- .... ....|--- .... ....|--- .... ....
....|..|--- .... ....|R-- .... ....|--- .... ....
....|..|--- .... ....|E-5 3FE7 ....|--- .... ....
....|..|--- .... ....|--- .... ....|--- .... ....
....|..|--- .... ....|--- .... ....|--- .... ....
....|..|--- .... ....|--- .... ....|--- .... ....
....|..|--- .... ....|D#5 3FEF ....|--- .... ....
....|..|--- .... ....|--- .... ....|--- .... ....
....|..|--- .... ....|--- .... ....|--- .... ....
....|..|--- .... ....|R-- .... ....|--- .... ....
....|..|--- .... ....|E-5 3FEF ....|--- .... ....
....|..|--- .... ....|E-5 3FE7 ....|--- .... ....
....|..|--- .... ....|--- .... ....|--- .... ....
....|..|--- .... ....|R-- .... ....|--- .... ....
....|..|--- .... ....|D#5 3FE7 ....|--- .... ....
....|..|--- .... ....|--- .... ....|--- .... ....
....|..|--- .... ....|--- .... ....|--- .... ....
....|..|--- .... ....|--- .... ....|--- .... ....
....|..|--- .... ....|E-5 3FEF ....|--- .... ....
....|..|--- .... ....|--- .... ....|--- .... ....
....|..|--- .... ....|--- .... ....|--- .... ....
....|..|--- .... ....|R-- .... ....|--- .... ....
....|..|--- .... ....|D#5 3FEF ....|--- .... ....
....|..|--- .... ....|C#5 3FE7 ....|--- .... ....
....|..|--- .... ....|--- .... ....|--- .... ....
....|..|--- .... ....|R-- .... ....|--- .... ....
....|..|--- .... ....|E-5 3FEF ....|--- .... ....
....|..|--- .... ....|--- .... ....|--- .... ....
....|..|--- .... ....|--- .... ....|--- .... ....
....|..|--- .... ....|R-- .... ....|--- .... ....
....|..|--- .... ....|F#5 3FEF ....|--- .... ....
....|..|--- .... ....|--- .... ....|--- .... ....
....|..|--- .... ....|--- .... ....|--- .... ....
....|..|--- .... ....|R-- .... ....|--- .... ....
....|..|--- .... ....|E-5 3FE7 ....|--- .... ....
....|..|--- .... ....|--- .... ....|--- .... ....
....|..|--- .... ....|--- .... ....|--- .... ....
....|..|--- .... ....|R-- .... ....|--- .... ....
....|..|--- .... ....|D#5 3FEF ....|--- .... ....
....|..|--- .... ....|--- .... ....|--- .... ....
....|..|--- .... ....|--- .... ....|--- .... ....
....|..|--- .... ....|R-- .... ....|--- .... ....
....|..|--- .... ....|E-5 3FEF ....|--- .... ....
....|..|--- .... ....|--- .... ....|--- .... ....
....|..|--- .... ....|--- .... ....|--- .... ....
....|..|--- .... ....|--- .... ....|--- .... ....
....|..|--- .... ....|D#5 3FE7 ....|--- .... ....
....|..|--- .... ....|--- .... ....|--- .... ....
....|..|--- .... ....|--- .... ....|--- .... ....
....|..|--- .... ....|R-- .... ....|--- .... ....
....|..|--- .... ....|E-5 3FEF ....|--- .... ....
....|..|--- .... ....|--- .... ....|--- .... ....
....|..|--- .... ....|--- .... ....|--- .... ....
....|..|--- .... ....|R-- .... ....|--- .... ....
....|..|--- .... ....|D#5 3FEF ....|--- .... ....
....|..|--- .... ....|--- .... ....|--- .... ....
....|..|--- .... ....|--- .... ....|--- .... ....
....|..|--- .... ....|R-- .... ....|--- .... ....
....|..|--- .... ....|E-5 3FEF ....|--- .... ....
....|..|--- .... ....|--- .... ....|--- .... ....
....|..|--- .... ....|--- .... ....|--- .... ....
....|..|--- .... ....|R-- .... ....|--- .... ....
....|..|--- .... ....|F#5 3FEF ....|--- .... ....
....|..|--- .... ....|--- .... ....|--- .... ....
....|..|--- .... ....|--- .... ....|--- .... ....
....|..|--- .... ....|R-- .... ....|--- .... ....
....|..|--- .... ....|E-5 3FE7 ....|--- .... ....
....|..|--- .... ....|--- .... ....|--- .... ....
....|..|--- .... ....|--- .... ....|--- .... ....
....|..|--- .... ....|R-- .... ....|--- .... ....
....|..|--- .... ....|E-5 3FEA ....|--- .... ....
....|..|--- .... ....|--- .... ....|--- .... ....
....|..|--- .... ....|--- .... ....|--- .... ....
....|..|--- .... ....|R-- .... ....|--- .... ....
 A-3|..|C#4 UFDF ....|A-4 3FEF ....|A-1 2A.F ....
....|..|--- .... ....|--- .... ....|--- .... ....
....|..|R-- .... ....|--- .... ....|--- .... ....
....|..|--- .... ....|--- .... ....|R-- .... ....
 A-3|..|--- .... ....|D#5 3FE7 ....|A-1 2A.F ....
....|..|--- .... ....|--- .... ....|R-- .... ....
 A-3|..|--- .... ....|--- .... ....|A-1 2A.F ....
....|..|--- .... ....|R-- .... ....|R-- .... ....
 A-3|..|--- .... ....|A-4 3FEF ....|A-1 2A.F ....
....|..|--- .... ....|--- .... ....|--- .... ....
....|..|--- .... ....|--- .... ....|--- .... ....
....|..|--- .... ....|R-- .... ....|R-- .... ....
 A-3|..|C#4 UFDA ....|G#4 3FEF ....|A-1 2A.F ....
....|..|--- .... ....|--- .... ....|--- .... ....
 A-3|..|R-- .... ....|--- .... ....|A-1 2A.F ....
....|..|--- .... ....|--- .... ....|R-- .... ....
....|..|--- .... ....|A-4 3FEF ....|A-1 2F.A ....
....|..|--- .... ....|--- .... ....|R-- .... ....
 A-3|..|--- .... ....|--- .... ....|A-1 2A.F ....
....|..|--- .... ....|--- .... ....|R-- .... ....
 A-3|..|--- .... ....|F#4 3FEF ....|A-1 2A.F ....
....|..|--- .... ....|--- .... ....|R-- .... ....
 A-3|..|--- .... ....|--- .... ....|A-1 2A.F ....
....|..|--- .... ....|R-- .... ....|R-- .... ....
 A-3|..|C#4 UFD7 ....|A-4 3FE7 ....|A-1 2A.F ....
....|..|--- .... ....|--- .... ....|--- .... ....
....|..|R-- .... ....|--- .... ....|A-1 2F.A ....
....|..|--- .... ....|--- .... ....|R-- .... ....
 A-3|..|--- .... ....|A-4 3FEA ....|A-1 2A.F ....
....|..|--- .... ....|--- .... ....|R-- .... ....
....|..|--- .... ....|--- .... ....|A-1 2F.7 ....
....|..|--- .... ....|--- .... ....|R-- .... ....

[Pattern27]
 G#3|..|--- .... ....|A-4 3FEF ....|G#1 2A.F ....
....|..|--- .... ....|--- .... ....|R-- .... ....
....|..|--- .... ....|--- .... ....|A-1 2F.A ....
....|..|--- .... ....|--- .... ....|R-- .... ....
 G#3|..|--- .... ....|G#4 3FE7 ....|G#1 2A.F ....
....|..|--- .... ....|--- .... ....|R-- .... ....
 G#3|..|--- .... ....|R-- .... ....|G#1 2A.F ....
....|..|--- .... ....|--- .... ....|R-- .... ....
 G#3|..|--- .... ....|A-4 3FEF ....|G#1 2A.F ....
....|..|--- .... ....|--- .... ....|--- .... ....
....|..|--- .... ....|R-- .... ....|A-1 2F.7 ....
....|..|--- .... ....|--- .... ....|R-- .... ....
 G#3|..|--- .... ....|G#4 3FEF ....|G#1 2A.F ....
....|..|--- .... ....|--- .... ....|R-- .... ....
 G#3|..|--- .... ....|--- .... ....|G#1 2A.F ....
....|..|--- .... ....|R-- .... ....|R-- .... ....
....|..|--- .... ....|A-4 3FEF ....|A-1 2F.7 ....
....|..|--- .... ....|--- .... ....|R-- .... ....
 G#3|..|--- .... ....|R-- .... ....|G#1 2A.F ....
....|..|--- .... ....|--- .... ....|R-- .... ....
 G#3|..|--- .... ....|D#5 3FEF ....|G#1 2A.F ....
....|..|--- .... ....|--- .... ....|R-- .... ....
 G#3|..|--- .... ....|R-- .... ....|G#1 2A.F ....
....|..|--- .... ....|--- .... ....|R-- .... ....
 G#3|..|--- .... ....|A-4 3FE7 ....|G#1 2A.F ....
....|..|--- .... ....|--- .... ....|--- .... ....
....|..|--- .... ....|--- .... ....|G#1 2F.A ....
....|..|--- .... ....|R-- .... ....|R-- .... ....
 E-4|..|--- .... ....|D#5 3FEF ....|E-2 2A.F ....
....|..|--- .... ....|--- .... ....|R-- .... ....
....|..|--- .... ....|R-- .... ....|G#1 2F.7 ....
....|..|--- .... ....|--- .... ....|R-- .... ....
 C#4|..|G#3 UFDF ....|E-5 3FEF ....|C#2 2A.F ....
....|..|--- .... ....|--- .... ....|R-- .... ....
....|..|--- .... ....|R-- .... ....|G#1 2F.A ....
....|..|--- .... ....|--- .... ....|R-- .... ....
 C#4|..|--- .... ....|G#4 3FE7 ....|C#2 2A.F ....
....|..|--- .... ....|R-- .... ....|R-- .... ....
 C#4|..|--- .... ....|--- .... ....|C#2 2A.F ....
....|..|--- .... ....|R-- .... ....|R-- .... ....
 C#4|..|--- .... ....|E-5 3FEF ....|C#2 2A.F ....
....|..|--- .... ....|--- .... ....|--- .... ....
....|..|--- .... ....|R-- .... ....|G#1 2F.7 ....
....|..|--- .... ....|R-- .... ....|R-- .... ....
 C#4|..|G#3 UFDA ....|D#5 3FEF ....|C#2 2A.F ....
....|..|--- .... ....|--- .... ....|R-- .... ....
 C#4|..|--- .... ....|--- .... ....|C#2 2A.F ....
....|..|--- .... ....|R-- .... ....|R-- .... ....
....|..|--- .... ....|E-5 3FEF ....|G#1 2F.7 ....
....|..|--- .... ....|R-- .... ....|R-- .... ....
 C#4|..|--- .... ....|--- .... ....|C#2 2A.F ....
....|..|--- .... ....|R-- .... ....|R-- .... ....
 C#4|..|--- .... ....|C#5 3FEF ....|C#2 2A.F ....
....|..|--- .... ....|--- .... ....|R-- .... ....
 C#4|..|--- .... ....|--- .... ....|C#2 2A.F ....
....|..|--- .... ....|R-- .... ....|R-- .... ....
 C#4|..|G#3 UFD7 ....|E-5 3FE7 ....|C#2 2A.F ....
....|..|--- .... ....|--- .... ....|--- .... ....
....|..|--- .... ....|R-- .... ....|C#2 2F.A ....
....|..|--- .... ....|R-- .... ....|R-- .... ....
 B-3|..|F#3 UFDF ....|D#5 3FEF ....|B-1 2A.F ....
....|..|--- .... ....|R-- .... ....|R-- .... ....
....|..|--- .... ....|--- .... ....|C#2 2F.7 ....
....|..|--- .... ....|--- .... ....|R-- .... ....
 E-4|..|G#3 UFDF ....|E-5 3FEF ....|E-2 2A.F ....
....|..|--- .... ....|--- .... ....|R-- .... ....
....|..|--- .... ....|--- .... ....|C#2 2F.A ....
....|..|--- .... ....|R-- .... ....|R-- .... ....
 E-4|..|--- .... ....|D#5 3FE7 ....|E-2 2A.F ....
....|..|--- .... ....|R-- .... ....|R-- .... ....
 E-4|..|--- .... ....|R-- .... ....|E-2 2A.F ....
....|..|--- .... ....|R-- .... ....|R-- .... ....
 E-4|..|F#3 UFDA ....|E-5 3FEF ....|E-2 2A.F ....
....|..|--- .... ....|--- .... ....|--- .... ....
....|..|--- .... ....|--- .... ....|C#2 2F.7 ....
....|..|--- .... ....|R-- .... ....|R-- .... ....
 E-4|..|G#3 UFDA ....|D#5 3FEF ....|E-2 2A.F ....
....|..|--- .... ....|--- .... ....|R-- .... ....
 E-4|..|--- .... ....|--- .... ....|E-2 2A.F ....
....|..|--- .... ....|R-- .... ....|R-- .... ....
....|..|--- .... ....|E-5 3FEF ....|C#2 2F.7 ....
....|..|--- .... ....|R-- .... ....|R-- .... ....
 E-4|..|--- .... ....|R-- .... ....|E-2 2A.F ....
....|..|--- .... ....|--- .... ....|R-- .... ....
 E-4|..|F#3 UFD7 ....|C#5 3FEF ....|E-2 2A.F ....
....|..|--- .... ....|--- .... ....|R-- .... ....
 E-4|..|--- .... ....|--- .... ....|E-2 2A.F ....
....|..|--- .... ....|R-- .... ....|R-- .... ....
 E-4|..|G#3 UFD7 ....|E-5 3FE7 ....|E-2 2A.F ....
....|..|--- .... ....|--- .... ....|--- .... ....
....|..|--- .... ....|R-- .... ....|E-2 2F.A ....
....|..|--- .... ....|R-- .... ....|R-- .... ....
 E-4|..|--- .... ....|E-5 3FEA ....|E-2 2A.F ....
....|..|--- .... ....|R-- .... ....|R-- .... ....
....|..|--- .... ....|--- .... ....|E-2 2F.7 ....
....|..|--- .... ....|--- .... ....|R-- .... ....
 A-3|..|C#4 UFDF ....|A-4 3FEF ....|A-1 2A.F ....
....|..|--- .... ....|--- .... ....|R-- .... ....
....|..|R-- .... ....|--- .... ....|E-2 2F.A ....
....|..|--- .... ....|R-- .... ....|R-- .... ....
 A-3|..|--- .... ....|D#5 3FE7 ....|A-1 2A.F ....
....|..|--- .... ....|--- .... ....|R-- .... ....
 A-3|..|--- .... ....|R-- .... ....|A-1 2A.F ....
....|..|--- .... ....|R-- .... ....|R-- .... ....
 A-3|..|--- .... ....|A-4 3FEF ....|A-1 2A.F ....
....|..|--- .... ....|--- .... ....|--- .... ....
....|..|--- .... ....|--- .... ....|E-2 2F.7 ....
....|..|--- .... ....|--- .... ....|R-- .... ....
 A-3|..|C#4 UFDA ....|G#4 3FEF ....|A-1 2A.F ....
....|..|--- .... ....|--- .... ....|R-- .... ....
 A-3|..|R-- .... ....|--- .... ....|A-1 2A.F ....
....|..|--- .... ....|--- .... ....|R-- .... ....
....|..|--- .... ....|A-4 3FEF ....|E-2 2F.7 ....
....|..|--- .... ....|--- .... ....|R-- .... ....
 A-3|..|--- .... ....|R-- .... ....|A-1 2A.F ....
....|..|--- .... ....|--- .... ....|R-- .... ....
 A-3|..|--- .... ....|F#4 3FEF ....|A-1 2A.F ....
....|..|--- .... ....|--- .... ....|R-- .... ....
 A-3|..|--- .... ....|--- .... ....|A-1 2A.F ....
....|..|--- .... ....|--- .... ....|R-- .... ....
 A-3|..|C#4 UFD7 ....|A-4 3FE7 ....|A-1 2A.F ....
....|..|--- .... ....|--- .... ....|--- .... ....
....|..|R-- .... ....|--- .... ....|A-1 2F.A ....
....|..|--- .... ....|--- .... ....|R-- .... ....
 A-3|..|--- .... ....|A-4 3FEA ....|A-1 2A.F ....
....|..|--- .... ....|--- .... ....|R-- .... ....
....|..|--- .... ....|--- .... ....|A-1 2F.7 ....
....|..|--- .... ....|--- .... ....|R-- .... ....

[Pattern28]
 G#3|..|--- .... ....|A-4 3FEF ....|G#1 2A.F ....
....|..|--- .... ....|--- .... ....|R-- .... ....
....|..|--- .... ....|--- .... ....|A-1 2F.A ....
....|..|--- .... ....|--- .... ....|R-- .... ....
 G#3|..|--- .... ....|G#4 3FE7 ....|G#1 2A.F ....
....|..|--- .... ....|--- .... ....|R-- .... ....
 G#3|..|--- .... ....|R-- .... ....|G#1 2A.F ....
....|..|--- .... ....|--- .... ....|R-- .... ....
 G#3|..|--- .... ....|A-4 3FEF ....|G#1 2A.F ....
....|..|--- .... ....|--- .... ....|--- .... ....
....|..|--- .... ....|R-- .... ....|A-1 2F.7 ....
....|..|--- .... ....|--- .... ....|R-- .... ....
 G#3|..|--- .... ....|G#4 3FEF ....|G#1 2A.F ....
....|..|--- .... ....|--- .... ....|R-- .... ....
 G#3|..|--- .... ....|--- .... ....|G#1 2A.F ....
....|..|--- .... ....|R-- .... ....|R-- .... ....
....|..|--- .... ....|A-4 3FEF ....|A-1 2F.7 ....
....|..|--- .... ....|--- .... ....|R-- .... ....
 G#3|..|--- .... ....|R-- .... ....|G#1 2A.F ....
....|..|--- .... ....|--- .... ....|R-- .... ....
 G#3|..|--- .... ....|D#5 3FEF ....|G#1 2A.F ....
....|..|--- .... ....|--- .... ....|R-- .... ....
 G#3|..|--- .... ....|R-- .... ....|G#1 2A.F ....
....|..|--- .... ....|--- .... ....|R-- .... ....
 G#3|..|--- .... ....|A-4 3FE7 ....|G#1 2A.F ....
....|..|--- .... ....|--- .... ....|--- .... ....
....|..|--- .... ....|--- .... ....|G#1 2F.A ....
....|..|--- .... ....|R-- .... ....|R-- .... ....
 E-4|..|--- .... ....|D#5 3FEF ....|E-2 2A.F ....
....|..|--- .... ....|--- .... ....|R-- .... ....
....|..|--- .... ....|R-- .... ....|G#1 2F.7 ....
....|..|--- .... ....|--- .... ....|R-- .... ....
 C#4|..|G#3 UFDF ....|E-5 3FEF ....|C#2 2A.F ....
....|..|--- .... ....|--- .... ....|R-- .... ....
....|..|--- .... ....|R-- .... ....|G#1 2F.A ....
....|..|--- .... ....|--- .... ....|R-- .... ....
 C#4|..|--- .... ....|G#4 3FE7 ....|C#2 2A.F ....
....|..|--- .... ....|R-- .... ....|R-- .... ....
 C#4|..|--- .... ....|--- .... ....|C#2 2A.F ....
....|..|--- .... ....|R-- .... ....|R-- .... ....
 C#4|..|--- .... ....|E-5 3FEF ....|C#2 2A.F ....
....|..|--- .... ....|--- .... ....|--- .... ....
....|..|--- .... ....|R-- .... ....|G#1 2F.7 ....
....|..|--- .... ....|R-- .... ....|R-- .... ....
 C#4|..|G#3 UFDA ....|D#5 3FEF ....|C#2 2A.F ....
....|..|--- .... ....|--- .... ....|R-- .... ....
 C#4|..|--- .... ....|--- .... ....|C#2 2A.F ....
....|..|--- .... ....|R-- .... ....|R-- .... ....
....|..|--- .... ....|E-5 3FEF ....|G#1 2F.7 ....
....|..|--- .... ....|R-- .... ....|R-- .... ....
 C#4|..|--- .... ....|--- .... ....|C#2 2A.F ....
....|..|--- .... ....|R-- .... ....|R-- .... ....
 C#4|..|--- .... ....|C#5 3FEF ....|C#2 2A.F ....
....|..|--- .... ....|--- .... ....|R-- .... ....
 C#4|..|--- .... ....|--- .... ....|C#2 2A.F ....
....|..|--- .... ....|R-- .... ....|R-- .... ....
 C#4|..|G#3 UFD7 ....|E-5 3FE7 ....|C#2 2A.F ....
....|..|--- .... ....|--- .... ....|--- .... ....
....|..|--- .... ....|R-- .... ....|C#2 2F.A ....
....|..|--- .... ....|R-- .... ....|R-- .... ....
 B-3|..|F#3 UFDF ....|D#5 3FEF ....|B-1 2A.F ....
....|..|--- .... ....|R-- .... ....|R-- .... ....
....|..|--- .... ....|--- .... ....|C#2 2F.7 ....
....|..|--- .... ....|--- .... ....|R-- .... ....
 E-4|..|G#3 UFDF ....|E-5 3FEF ....|E-2 2A.F ....
....|..|--- .... ....|--- .... ....|R-- .... ....
....|..|--- .... ....|--- .... ....|C#2 2F.A ....
....|..|--- .... ....|R-- .... ....|R-- .... ....
 E-4|..|--- .... ....|D#5 3FE7 ....|E-2 2A.F ....
....|..|--- .... ....|R-- .... ....|R-- .... ....
 E-4|..|--- .... ....|R-- .... ....|E-2 2A.F ....
....|..|--- .... ....|R-- .... ....|R-- .... ....
 E-4|..|F#3 UFDA ....|E-5 3FEF ....|E-2 2A.F ....
....|..|--- .... ....|--- .... ....|--- .... ....
....|..|--- .... ....|--- .... ....|C#2 2F.7 ....
....|..|--- .... ....|R-- .... ....|R-- .... ....
 E-4|..|G#3 UFDA ....|D#5 3FEF ....|E-2 2A.F ....
....|..|--- .... ....|--- .... ....|R-- .... ....
 E-4|..|--- .... ....|--- .... ....|E-2 2A.F ....
....|..|--- .... ....|R-- .... ....|R-- .... ....
....|..|--- .... ....|E-5 3FEF ....|C#2 2F.7 ....
....|..|--- .... ....|R-- .... ....|R-- .... ....
 E-4|..|--- .... ....|R-- .... ....|E-2 2A.F ....
....|..|--- .... ....|--- .... ....|R-- .... ....
 E-4|..|F#3 UFD7 ....|C#5 3FEF ....|E-2 2A.F ....
....|..|--- .... ....|--- .... ....|R-- .... ....
 E-4|..|--- .... ....|--- .... ....|E-2 2A.F ....
....|..|--- .... ....|R-- .... ....|R-- .... ....
 E-4|..|G#3 UFD7 ....|E-5 3FE7 ....|E-2 2A.F ....
....|..|--- .... ....|--- .... ....|--- .... ....
....|..|--- .... ....|R-- .... ....|E-2 2F.A ....
....|..|--- .... ....|R-- .... ....|R-- .... ....
 E-4|..|--- .... ....|D#5 3FEF ....|E-2 2A.F ....
....|..|--- .... ....|R-- .... ....|R-- .... ....
....|..|--- .... ....|--- .... ....|E-2 2F.7 ....
....|..|--- .... ....|R-- .... ....|R-- .... ....
 A-3|..|R-- .... ....|E-5 3FEF ....|A-1 2A.F ....
....|..|--- .... ....|--- .... ....|R-- .... ....
....|..|--- .... ....|--- .... ....|E-2 2F.A ....
....|..|--- .... ....|R-- .... ....|R-- .... ....
 A-3|..|--- .... ....|D#5 3FE7 ....|A-1 2A.F ....
....|..|--- .... ....|--- .... ....|R-- .... ....
 A-3|..|--- .... ....|R-- .... ....|A-1 2A.F ....
....|..|--- .... ....|R-- .... ....|R-- .... ....
 A-3|..|--- .... ....|E-5 3FEF ....|A-1 2A.F ....
....|..|--- .... ....|--- .... ....|--- .... ....
....|..|--- .... ....|--- .... ....|E-2 2F.7 ....
....|..|--- .... ....|R-- .... ....|R-- .... ....
 A-3|..|R-- .... ....|D#5 3FEF ....|A-1 2A.F ....
....|..|--- .... ....|--- .... ....|R-- .... ....
 A-3|..|--- .... ....|--- .... ....|A-1 2A.F ....
....|..|--- .... ....|R-- .... ....|R-- .... ....
....|..|--- .... ....|E-5 3FEF ....|E-2 2F.7 ....
....|..|--- .... ....|--- .... ....|R-- .... ....
 A-3|..|--- .... ....|R-- .... ....|A-1 2A.F ....
....|..|--- .... ....|--- .... ....|R-- .... ....
 A-3|..|--- .... ....|F#5 3FEF ....|A-1 2A.F ....
....|..|--- .... ....|--- .... ....|R-- .... ....
 A-3|..|--- .... ....|--- .... ....|A-1 2A.F ....
....|..|--- .... ....|R-- .... ....|R-- .... ....
 A-3|..|R-- .... ....|E-5 3FE7 ....|A-1 2A.F ....
....|..|--- .... ....|--- .... ....|--- .... ....
....|..|--- .... ....|--- .... ....|A-1 2F.A ....
....|..|--- .... ....|--- .... ....|R-- .... ....
 A-3|..|--- .... ....|E-5 3FEA ....|A-1 2A.F ....
....|..|--- .... ....|--- .... ....|R-- .... ....
....|..|--- .... ....|--- .... ....|A-1 2F.7 ....
....|..|--- .... ....|--- .... ....|R-- .... ....

[Pattern29]
 G#3|..|--- .... ....|F#5 3FEF ....|G#1 2A.F ....
....|..|--- .... ....|--- .... ....|R-- .... ....
....|..|--- .... ....|--- .... ....|A-1 2F.A ....
....|..|--- .... ....|R-- .... ....|R-- .... ....
 G#3|..|--- .... ....|F#5 3FEF ....|G#1 2A.F ....
....|..|--- .... ....|--- .... ....|R-- .... ....
 G#3|..|--- .... ....|--- .... ....|G#1 2A.F ....
....|..|--- .... ....|--- .... ....|R-- .... ....
 G#3|..|--- .... ....|F#5 3FEF ....|G#1 2A.F ....
....|..|--- .... ....|--- .... ....|--- .... ....
....|..|--- .... ....|--- .... ....|A-1 2F.7 ....
....|..|--- .... ....|--- .... ....|R-- .... ....
 G#3|..|--- .... ....|F#5 3FEF ....|G#1 2A.F ....
....|..|--- .... ....|--- .... ....|R-- .... ....
 G#3|..|--- .... ....|--- .... ....|G#1 2A.F ....
....|..|--- .... ....|--- .... ....|R-- .... ....
....|..|--- .... ....|F#5 3FEF ....|A-1 2F.7 ....
....|..|--- .... ....|--- .... ....|R-- .... ....
 G#3|..|--- .... ....|--- .... ....|G#1 2A.F ....
....|..|--- .... ....|--- .... ....|R-- .... ....
 G#3|..|--- .... ....|F#5 3FEF ....|G#1 2A.F ....
....|..|--- .... ....|--- .... ....|R-- .... ....
 G#3|..|--- .... ....|--- .... ....|G#1 2A.F ....
....|..|--- .... ....|--- .... ....|R-- .... ....
 G#3|..|--- .... ....|F#5 3FE7 ....|G#1 2A.F ....
....|..|--- .... ....|--- .... ....|--- .... ....
....|..|--- .... ....|--- .... ....|G#1 2F.A ....
....|..|--- .... ....|--- .... ....|R-- .... ....
 E-4|..|--- .... ....|D#5 3FEF ....|E-2 2A.F ....
....|..|--- .... ....|--- .... ....|R-- .... ....
....|..|--- .... ....|--- .... ....|G#1 2F.7 ....
....|..|--- .... ....|--- .... ....|R-- .... ....
 C#4|..|--- .... ....|E-5 3FEF ....|C#2 2A.F ....
....|..|--- .... ....|--- .... ....|R-- .... ....
....|..|--- .... ....|--- .... ....|G#1 2F.A ....
....|..|--- .... ....|--- .... ....|R-- .... ....
 C#4|..|--- .... ....|F#5 3FE7 ....|C#2 2A.F ....
....|..|--- .... ....|--- .... ....|R-- .... ....
 C#4|..|--- .... ....|--- .... ....|C#2 2A.F ....
....|..|--- .... ....|--- .... ....|R-- .... ....
 C#4|..|--- .... ....|E-5 3FEF ....|C#2 2A.F ....
....|..|--- .... ....|--- .... ....|--- .... ....
....|..|--- .... ....|--- .... ....|G#1 2F.7 ....
....|..|--- .... ....|R-- .... ....|R-- .... ....
 C#4|..|--- .... ....|D#5 3FEF ....|C#2 2A.F ....
....|..|--- .... ....|--- .... ....|R-- .... ....
 C#4|..|--- .... ....|--- .... ....|C#2 2A.F ....
....|..|--- .... ....|--- .... ....|R-- .... ....
....|..|--- .... ....|E-5 3FEF ....|G#1 2F.7 ....
....|..|--- .... ....|--- .... ....|R-- .... ....
 C#4|..|--- .... ....|--- .... ....|C#2 2A.F ....
....|..|--- .... ....|--- .... ....|R-- .... ....
 C#4|..|--- .... ....|C#5 3FEF ....|C#2 2A.F ....
....|..|--- .... ....|--- .... ....|R-- .... ....
 C#4|..|--- .... ....|--- .... ....|C#2 2A.F ....
....|..|--- .... ....|R-- .... ....|R-- .... ....
 C#4|..|--- .... ....|E-5 3FEF ....|C#2 2A.F ....
....|..|--- .... ....|--- .... ....|--- .... ....
....|..|--- .... ....|--- .... ....|C#2 2F.A ....
....|..|--- .... ....|--- .... ....|R-- .... ....
 B-3|..|--- .... ....|D#5 3FEF ....|B-1 2A.F ....
....|..|--- .... ....|--- .... ....|R-- .... ....
....|..|--- .... ....|--- .... ....|C#2 2F.7 ....
....|..|--- .... ....|--- .... ....|R-- .... ....
 E-4|..|--- .... ....|E-5 3FEF ....|E-2 2A.F ....
....|..|--- .... ....|--- .... ....|R-- .... ....
....|..|--- .... ....|--- .... ....|C#2 2F.A ....
....|..|--- .... ....|R-- .... ....|R-- .... ....
 E-4|..|--- .... ....|C#5 3FEF ....|E-2 2A.F ....
....|..|--- .... ....|--- .... ....|R-- .... ....
 E-4|..|--- .... ....|--- .... ....|E-2 2A.F ....
....|..|--- .... ....|C#5 3FEF ....|R-- .... ....
 E-4|..|--- .... ....|E-5 3FE7 ....|E-2 2A.F ....
....|..|--- .... ....|--- .... ....|--- .... ....
....|..|--- .... ....|--- .... ....|C#2 2F.7 ....
....|..|--- .... ....|--- .... ....|R-- .... ....
 E-4|..|--- .... ....|C#5 3FE7 ....|E-2 2A.F ....
....|..|--- .... ....|--- .... ....|R-- .... ....
 E-4|..|--- .... ....|--- .... ....|E-2 2A.F ....
....|..|--- .... ....|--- .... ....|R-- .... ....
....|..|--- .... ....|E-5 3FE7 ....|C#2 2F.7 ....
....|..|--- .... ....|--- .... ....|R-- .... ....
 E-4|..|--- .... ....|--- .... ....|E-2 2A.F ....
....|..|--- .... ....|C#5 3FEA ....|R-- .... ....
 E-4|..|--- .... ....|D#5 3FE7 ....|E-2 2A.F ....
....|..|--- .... ....|--- .... ....|R-- .... ....
 E-4|..|--- .... ....|--- .... ....|E-2 2A.F ....
....|..|--- .... ....|--- .... ....|R-- .... ....
 E-4|..|--- .... ....|E-5 3FE7 ....|E-2 2A.F ....
....|..|--- .... ....|--- .... ....|--- .... ....
....|..|--- .... ....|--- .... ....|E-2 2F.A ....
....|..|--- .... ....|--- .... ....|R-- .... ....
 E-4|..|--- .... ....|D#5 3FEF ....|E-2 2A.F ....
....|..|--- .... ....|--- .... ....|R-- .... ....
....|..|--- .... ....|--- .... ....|E-2 2F.7 ....
....|..|--- .... ....|C#5 3FE7 ....|R-- .... ....
 A-3|..|--- .... ....|E-5 3FEF ....|A-1 2A.F ....
....|..|--- .... ....|--- .... ....|R-- .... ....
....|..|--- .... ....|--- .... ....|E-2 2F.A ....
....|..|--- .... ....|--- .... ....|R-- .... ....
 A-3|..|--- .... ....|R-- .... ....|A-1 2A.F ....
....|..|--- .... ....|--- .... ....|R-- .... ....
 A-3|..|--- .... ....|--- .... ....|A-1 2A.F ....
....|..|--- .... ....|--- .... ....|R-- .... ....
 A-3|..|--- .... ....|E-5 3FEF ....|A-1 2A.F ....
....|..|--- .... ....|--- .... ....|--- .... ....
....|..|--- .... ....|--- .... ....|E-2 2F.7 ....
....|..|--- .... ....|R-- .... ....|R-- .... ....
 A-3|..|--- .... ....|D#5 3FEF ....|A-1 2A.F ....
....|..|--- .... ....|--- .... ....|R-- .... ....
 A-3|..|--- .... ....|--- .... ....|A-1 2A.F ....
....|..|--- .... ....|--- .... ....|R-- .... ....
....|..|--- .... ....|E-5 3FEF ....|E-2 2F.7 ....
....|..|--- .... ....|--- .... ....|R-- .... ....
 A-3|..|--- .... ....|--- .... ....|A-1 2A.F ....
....|..|--- .... ....|--- .... ....|R-- .... ....
 A-3|..|--- .... ....|F#5 3FEF ....|A-1 2A.F ....
....|..|--- .... ....|--- .... ....|R-- .... ....
 A-3|..|--- .... ....|--- .... ....|A-1 2A.F ....
....|..|--- .... ....|R-- .... ....|R-- .... ....
 A-3|..|--- .... ....|E-5 3FE7 ....|A-1 2A.F ....
....|..|--- .... ....|--- .... ....|--- .... ....
....|..|--- .... ....|--- .... ....|A-1 2F.A ....
....|..|--- .... ....|--- .... ....|R-- .... ....
 A-3|..|--- .... ....|E-5 3FEA ....|A-1 2A.F ....
....|..|--- .... ....|--- .... ....|R-- .... ....
....|..|--- .... ....|--- .... ....|A-1 2F.7 ....
....|..|--- .... ....|--- .... ....|R-- .... ....

[Pattern30]
 G#3|..|--- .... ....|F#5 3FEF ....|G#1 2A.F ....
....|..|--- .... ....|--- .... ....|R-- .... ....
....|..|--- .... ....|--- .... ....|A-1 2F.A ....
....|..|--- .... ....|R-- .... ....|R-- .... ....
 G#3|..|--- .... ....|F#5 3FEF ....|G#1 2A.F ....
....|..|--- .... ....|--- .... ....|R-- .... ....
 G#3|..|--- .... ....|--- .... ....|G#1 2A.F ....
....|..|--- .... ....|--- .... ....|R-- .... ....
 G#3|..|--- .... ....|F#5 3FEF ....|G#1 2A.F ....
....|..|--- .... ....|--- .... ....|--- .... ....
....|..|--- .... ....|--- .... ....|A-1 2F.7 ....
....|..|--- .... ....|--- .... ....|R-- .... ....
 G#3|..|--- .... ....|F#5 3FEF ....|G#1 2A.F ....
....|..|--- .... ....|--- .... ....|R-- .... ....
 G#3|..|--- .... ....|--- .... ....|G#1 2A.F ....
....|..|--- .... ....|--- .... ....|R-- .... ....
....|..|--- .... ....|F#5 3FEF ....|A-1 2F.7 ....
....|..|--- .... ....|--- .... ....|R-- .... ....
 G#3|..|--- .... ....|--- .... ....|G#1 2A.F ....
....|..|--- .... ....|--- .... ....|R-- .... ....
 G#3|..|--- .... ....|F#5 3FEF ....|G#1 2A.F ....
....|..|--- .... ....|--- .... ....|R-- .... ....
 G#3|..|--- .... ....|--- .... ....|G#1 2A.F ....
....|..|--- .... ....|--- .... ....|R-- .... ....
 G#3|..|--- .... ....|F#5 3FE7 ....|G#1 2A.F ....
....|..|--- .... ....|--- .... ....|--- .... ....
....|..|--- .... ....|--- .... ....|G#1 2F.A ....
....|..|--- .... ....|--- .... ....|R-- .... ....
 E-4|..|--- .... ....|D#5 3FEF ....|E-2 2A.F ....
....|..|--- .... ....|--- .... ....|R-- .... ....
....|..|--- .... ....|--- .... ....|G#1 2F.7 ....
....|..|--- .... ....|--- .... ....|R-- .... ....
 C#4|..|--- .... ....|E-5 3FEF ....|C#2 2A.F ....
....|..|--- .... ....|--- .... ....|R-- .... ....
....|..|--- .... ....|--- .... ....|G#1 2F.A ....
....|..|--- .... ....|--- .... ....|R-- .... ....
 C#4|..|--- .... ....|F#5 3FE7 ....|C#2 2A.F ....
....|..|--- .... ....|--- .... ....|R-- .... ....
 C#4|..|--- .... ....|--- .... ....|C#2 2A.F ....
....|..|--- .... ....|--- .... ....|R-- .... ....
 C#4|..|--- .... ....|E-5 3FEF ....|C#2 2A.F ....
....|..|--- .... ....|--- .... ....|--- .... ....
....|..|--- .... ....|--- .... ....|G#1 2F.7 ....
....|..|--- .... ....|R-- .... ....|R-- .... ....
 C#4|..|--- .... ....|D#5 3FEF ....|C#2 2A.F ....
....|..|--- .... ....|--- .... ....|R-- .... ....
 C#4|..|--- .... ....|--- .... ....|C#2 2A.F ....
....|..|--- .... ....|--- .... ....|R-- .... ....
....|..|--- .... ....|E-5 3FEF ....|G#1 2F.7 ....
....|..|--- .... ....|--- .... ....|R-- .... ....
 C#4|..|--- .... ....|--- .... ....|C#2 2A.F ....
....|..|--- .... ....|--- .... ....|R-- .... ....
 C#4|..|--- .... ....|C#5 3FEF ....|C#2 2A.F ....
....|..|--- .... ....|--- .... ....|R-- .... ....
 C#4|..|--- .... ....|--- .... ....|C#2 2A.F ....
....|..|--- .... ....|R-- .... ....|R-- .... ....
 C#4|..|--- .... ....|E-5 3FEF ....|C#2 2A.F ....
....|..|--- .... ....|--- .... ....|--- .... ....
....|..|--- .... ....|--- .... ....|C#2 2F.A ....
....|..|--- .... ....|--- .... ....|R-- .... ....
 B-3|..|--- .... ....|D#5 3FEF ....|B-1 2A.F ....
....|..|--- .... ....|--- .... ....|R-- .... ....
....|..|--- .... ....|--- .... ....|C#2 2F.7 ....
....|..|--- .... ....|--- .... ....|R-- .... ....
....|..|--- .... ....|E-5 3FEF ....|C#2 2F.7 ....
....|..|--- .... ....|--- .... ....|R-- .... ....
....|..|--- .... ....|--- .... ....|C#2 2F.A ....
....|..|--- .... ....|R-- .... ....|R-- .... ....
....|..|--- .... ....|C#5 3FEF ....|C#2 2F.7 ....
....|..|--- .... ....|--- .... ....|--- .... ....
....|..|--- .... ....|--- .... ....|C#2 2F.7 ....
....|..|--- .... ....|C#5 3FEF ....|R-- .... ....
....|..|--- .... ....|E-5 3FE7 ....|B-1 2F.A ....
....|..|--- .... ....|--- .... ....|--- .... ....
....|..|--- .... ....|--- .... ....|C#2 2F.7 ....
....|..|--- .... ....|--- .... ....|R-- .... ....
....|..|--- .... ....|C#5 3FE7 ....|C#2 2F.7 ....
....|..|--- .... ....|--- .... ....|R-- .... ....
....|..|--- .... ....|--- .... ....|C#2 2F.7 ....
....|..|--- .... ....|--- .... ....|--- .... ....
....|..|--- .... ....|E-5 3FE7 ....|C#2 2F.7 ....
....|..|--- .... ....|--- .... ....|--- .... ....
....|..|--- .... ....|--- .... ....|--- .... ....
....|..|--- .... ....|C#5 3FEA ....|R-- .... ....
....|..|--- .... ....|D#5 3FE7 ....|B-1 2F.7 ....
....|..|--- .... ....|--- .... ....|--- .... ....
....|..|--- .... ....|--- .... ....|--- .... ....
....|..|--- .... ....|--- .... ....|--- .... ....
....|..|--- .... ....|E-5 3FE7 ....|R-- .... ....
....|..|--- .... ....|--- .... ....|--- .... ....
....|..|--- .... ....|--- .... ....|--- .... ....
....|..|--- .... ....|--- .... ....|--- .... ....
....|..|--- .... ....|D#5 3FEF ....|--- .... ....
....|..|--- .... ....|--- .... ....|--- .... ....
....|..|--- .... ....|--- .... ....|--- .... ....
....|..|--- .... ....|C#5 3FE7 ....|--- .... ....
....|..|--- .... ....|E-5 3FEF ....|--- .... ....
....|..|--- .... ....|--- .... ....|--- .... ....
....|..|--- .... ....|--- .... ....|--- .... ....
....|..|--- .... ....|--- .... ....|--- .... ....
....|..|--- .... ....|R-- .... ....|--- .... ....
....|..|--- .... ....|--- .... ....|--- .... ....
....|..|--- .... ....|--- .... ....|--- .... ....
....|..|--- .... ....|--- .... ....|--- .... ....
....|..|--- .... ....|E-5 3FEF ....|--- .... ....
....|..|--- .... ....|--- .... ....|--- .... ....
....|..|--- .... ....|--- .... ....|--- .... ....
....|..|--- .... ....|R-- .... ....|--- .... ....
....|..|--- .... ....|D#5 3FEF ....|--- .... ....
....|..|--- .... ....|--- .... ....|--- .... ....
....|..|--- .... ....|--- .... ....|--- .... ....
....|..|--- .... ....|--- .... ....|--- .... ....
....|..|--- .... ....|E-5 3FEF ....|--- .... ....
....|..|--- .... ....|--- .... ....|--- .... ....
....|..|--- .... ....|--- .... ....|--- .... ....
....|..|--- .... ....|--- .... ....|--- .... ....
....|..|--- .... ....|C#5 3FEF ....|--- .... ....
....|..|--- .... ....|--- .... ....|--- .... ....
....|..|--- .... ....|--- .... ....|--- .... ....
....|..|--- .... ....|R-- .... ....|--- .... ....
....|..|--- .... ....|E-5 3FEF ....|--- .... ....
....|..|--- .... ....|--- .... ....|--- .... ....
....|..|--- .... ....|--- .... ....|--- .... ....
....|..|--- .... ....|--- .... ....|--- .... ....
....|..|--- .... ....|D#5 3FEF ....|--- .... ....
....|..|--- .... ....|--- .... ....|--- .... ....
....|..|--- .... ....|--- .... ....|--- .... ....
....|..|--- .... ....|--- .... ....|--- .... ....

[Pattern31]
....|..|--- .... ....|E-5 3FEF ....|--- .... ....
....|..|--- .... ....|--- .... ....|--- .... ....
....|..|--- .... ....|--- .... ....|--- .... ....
....|..|--- .... ....|--- .... ....|--- .... ....
....|..|--- .... ....|C#5 3FEF ....|--- .... ....
....|..|--- .... ....|--- .... ....|--- .... ....
....|..|--- .... ....|--- .... ....|--- .... ....
....|..|--- .... ....|R-- .... ....|--- .... ....
....|..|--- .... ....|E-5 3FEF ....|--- .... ....
....|..|--- .... ....|--- .... ....|--- .... ....
....|..|--- .... ....|--- .... ....|--- .... ....
....|..|--- .... ....|--- .... ....|--- .... ....
....|..|--- .... ....|D#5 3FEF ....|--- .... ....
....|..|--- .... ....|--- .... ....|--- .... ....
....|..|--- .... ....|--- .... ....|--- .... ....
....|..|--- .... ....|--- .... ....|--- .... ....
....|..|--- .... ....|E-5 3FEF ....|--- .... ....
....|..|--- .... ....|--- .... ....|--- .... ....
....|..|--- .... ....|--- .... ....|--- .... ....
....|..|--- .... ....|R-- .... ....|--- .... ....
....|..|--- .... ....|C#5 3FEF ....|--- .... ....
....|..|--- .... ....|--- .... ....|--- .... ....
....|..|--- .... ....|--- .... ....|--- .... ....
....|..|--- .... ....|R-- .... ....|--- .... ....
....|..|--- .... ....|E-5 3FE7 ....|--- .... ....
....|..|--- .... ....|--- .... ....|--- .... ....
....|..|--- .... ....|--- .... ....|--- .... ....
....|..|--- .... ....|--- .... ....|--- .... ....
....|..|--- .... ....|C#5 3FE7 ....|--- .... ....
....|..|--- .... ....|--- .... ....|--- .... ....
....|..|--- .... ....|--- .... ....|--- .... ....
....|..|--- .... ....|R-- .... ....|--- .... ....
....|..|--- .... ....|E-5 3FE7 ....|--- .... ....
....|..|--- .... ....|--- .... ....|--- .... ....
....|..|--- .... ....|--- .... ....|--- .... ....
....|..|--- .... ....|R-- .... ....|--- .... ....
....|..|--- .... ....|D#5 3FE7 ....|--- .... ....
....|..|--- .... ....|--- .... ....|--- .... ....
....|..|--- .... ....|--- .... ....|--- .... ....
....|..|--- .... ....|--- .... ....|--- .... ....
....|..|--- .... ....|E-5 3FE7 ....|--- .... ....
....|..|--- .... ....|--- .... ....|--- .... ....
....|..|--- .... ....|--- .... ....|--- .... ....
....|..|--- .... ....|--- .... ....|--- .... ....
....|..|--- .... ....|C#5 3FE7 ....|--- .... ....
....|..|--- .... ....|--- .... ....|--- .... ....
....|..|--- .... ....|--- .... ....|--- .... ....
....|..|--- .... ....|R-- .... ....|--- .... ....
....|..|--- .... ....|--- .... ....|--- .... ....
....|..|--- .... ....|--- .... ....|--- .... ....
....|..|--- .... ....|--- .... ....|--- .... ....
....|..|--- .... ....|--- .... ....|--- .... ....
....|..|--- .... ....|--- .... ....|--- .... ....
....|..|--- .... ....|--- .... ....|--- .... ....
....|..|--- .... ....|--- .... ....|--- .... ....
....|..|--- .... ....|--- .... ....|--- .... ....
....|..|--- .... ....|--- .... ....|--- .... ....
....|..|--- .... ....|--- .... ....|--- .... ....
....|..|--- .... ....|--- .... ....|--- .... ....
....|..|--- .... ....|--- .... ....|--- .... ....
....|..|--- .... ....|--- .... ....|--- .... ....
....|..|--- .... ....|--- .... ....|--- .... ....
....|..|--- .... ....|--- .... ....|--- .... ....
....|..|--- .... ....|--- .... ....|--- .... ....
....|..|--- .... ....|--- .... ....|--- .... ....
....|..|--- .... ....|--- .... ....|--- .... ....
....|..|--- .... ....|--- .... ....|--- .... ....
....|..|--- .... ....|--- .... ....|--- .... ....
....|..|--- .... ....|--- .... ....|--- .... ....
....|..|--- .... ....|--- .... ....|--- .... ....
....|..|--- .... ....|--- .... ....|--- .... ....
....|..|--- .... ....|--- .... ....|--- .... ....
....|..|--- .... ....|--- .... ....|--- .... ....
....|..|--- .... ....|--- .... ....|--- .... ....
....|..|--- .... ....|--- .... ....|--- .... ....
....|..|--- .... ....|--- .... ....|--- .... ....
....|..|--- .... ....|--- .... ....|--- .... ....
....|..|--- .... ....|--- .... ....|--- .... ....
....|..|--- .... ....|--- .... ....|--- .... ....
....|..|--- .... ....|--- .... ....|--- .... ....
....|..|--- .... ....|--- .... ....|--- .... ....
....|..|--- .... ....|--- .... ....|--- .... ....
....|..|--- .... ....|--- .... ....|--- .... ....
....|..|--- .... ....|--- .... ....|--- .... ....
....|..|--- .... ....|--- .... ....|--- .... ....
....|..|--- .... ....|--- .... ....|--- .... ....
....|..|--- .... ....|--- .... ....|--- .... ....
....|..|--- .... ....|--- .... ....|--- .... ....
....|..|--- .... ....|--- .... ....|--- .... ....
....|..|--- .... ....|--- .... ....|--- .... ....
....|..|--- .... ....|--- .... ....|--- .... ....
....|..|--- .... ....|--- .... ....|--- .... ....
....|..|--- .... ....|--- .... ....|--- .... ....
....|..|--- .... ....|--- .... ....|--- .... ....
....|..|--- .... ....|--- .... ....|--- .... ....
....|..|--- .... ....|--- .... ....|--- .... ....
....|..|--- .... ....|E-5 3FEF ....|--- .... ....
....|..|--- .... ....|--- .... ....|--- .... ....
....|..|--- .... ....|--- .... ....|--- .... ....
....|..|--- .... ....|--- .... ....|--- .... ....
....|..|--- .... ....|R-- .... ....|--- .... ....
....|..|--- .... ....|--- .... ....|--- .... ....
....|..|--- .... ....|--- .... ....|--- .... ....
....|..|--- .... ....|--- .... ....|--- .... ....
....|..|--- .... ....|E-5 3FEF ....|--- .... ....
....|..|--- .... ....|--- .... ....|--- .... ....
....|..|--- .... ....|--- .... ....|--- .... ....
....|..|--- .... ....|--- .... ....|--- .... ....
....|..|--- .... ....|D#5 3FEF ....|--- .... ....
....|..|--- .... ....|--- .... ....|--- .... ....
....|..|--- .... ....|--- .... ....|--- .... ....
....|..|--- .... ....|--- .... ....|--- .... ....
....|..|--- .... ....|E-5 3FEF ....|--- .... ....
....|..|--- .... ....|--- .... ....|--- .... ....
....|..|--- .... ....|--- .... ....|--- .... ....
....|..|--- .... ....|--- .... ....|--- .... ....
....|..|--- .... ....|C#5 3FEF ....|--- .... ....
....|..|--- .... ....|--- .... ....|--- .... ....
....|..|--- .... ....|--- .... ....|--- .... ....
....|..|--- .... ....|--- .... ....|--- .... ....
....|..|--- .... ....|E-5 3FEF ....|--- .... ....
....|..|--- .... ....|--- .... ....|--- .... ....
....|..|--- .... ....|--- .... ....|--- .... ....
....|..|--- .... ....|--- .... ....|--- .... ....
....|..|--- .... ....|D#5 3FEF ....|--- .... ....
....|..|--- .... ....|--- .... ....|--- .... ....
....|..|--- .... ....|--- .... ....|--- .... ....
....|..|--- .... ....|--- .... ....|--- .... ....

[Pattern32]
....|..|--- .... ....|E-5 3FEF ....|--- .... ....
....|..|--- .... ....|--- .... ....|--- .... ....
....|..|--- .... ....|--- .... ....|--- .... ....
....|..|--- .... ....|--- .... ....|--- .... ....
....|..|--- .... ....|C#5 3FEF ....|--- .... ....
....|..|--- .... ....|--- .... ....|--- .... ....
....|..|--- .... ....|--- .... ....|--- .... ....
....|..|--- .... ....|R-- .... ....|--- .... ....
....|..|--- .... ....|E-5 3FEF ....|--- .... ....
....|..|--- .... ....|--- .... ....|--- .... ....
....|..|--- .... ....|--- .... ....|--- .... ....
....|..|--- .... ....|--- .... ....|--- .... ....
....|..|--- .... ....|D#5 3FEF ....|--- .... ....
....|..|--- .... ....|--- .... ....|--- .... ....
....|..|--- .... ....|--- .... ....|--- .... ....
....|..|--- .... ....|--- .... ....|--- .... ....
....|..|--- .... ....|E-5 3FEF ....|--- .... ....
....|..|--- .... ....|--- .... ....|--- .... ....
....|..|--- .... ....|--- .... ....|--- .... ....
....|..|--- .... ....|R-- .... ....|--- .... ....
....|..|--- .... ....|C#5 3FEF ....|--- .... ....
....|..|--- .... ....|--- .... ....|--- .... ....
....|..|--- .... ....|--- .... ....|--- .... ....
....|..|--- .... ....|R-- .... ....|--- .... ....
....|..|--- .... ....|E-5 3FE7 ....|--- .... ....
....|..|--- .... ....|--- .... ....|--- .... ....
....|..|--- .... ....|--- .... ....|--- .... ....
....|..|--- .... ....|--- .... ....|--- .... ....
....|..|--- .... ....|C#5 3FE7 ....|--- .... ....
....|..|--- .... ....|--- .... ....|--- .... ....
....|..|--- .... ....|--- .... ....|--- .... ....
....|..|--- .... ....|R-- .... ....|--- .... ....
....|..|--- .... ....|E-5 3FE7 ....|--- .... ....
....|..|--- .... ....|--- .... ....|--- .... ....
....|..|--- .... ....|--- .... ....|--- .... ....
....|..|--- .... ....|R-- .... ....|--- .... ....
....|..|--- .... ....|D#5 3FE7 ....|--- .... ....
....|..|--- .... ....|--- .... ....|--- .... ....
....|..|--- .... ....|--- .... ....|--- .... ....
....|..|--- .... ....|--- .... ....|--- .... ....
....|..|--- .... ....|E-5 3FE7 ....|--- .... ....
....|..|--- .... ....|--- .... ....|--- .... ....
....|..|--- .... ....|--- .... ....|--- .... ....
....|..|--- .... ....|--- .... ....|--- .... ....
....|..|--- .... ....|C#5 3FE7 ....|--- .... ....
....|..|--- .... ....|--- .... ....|--- .... ....
....|..|--- .... ....|--- .... ....|--- .... ....
....|..|--- .... ....|R-- .... ....|--- .... ....
....|..|--- .... ....|--- .... ....|--- .... ....
....|..|--- .... ....|--- .... ....|--- .... ....
....|..|--- .... ....|--- .... ....|--- .... ....
....|..|--- .... ....|--- .... ....|--- .... ....
....|..|--- .... ....|--- .... ....|--- .... ....
....|..|--- .... ....|--- .... ....|--- .... ....
....|..|--- .... ....|--- .... ....|--- .... ....
....|..|--- .... ....|--- .... ....|--- .... ....
....|..|--- .... ....|--- .... ....|--- .... ....
....|..|--- .... ....|--- .... ....|--- .... ....
....|..|--- .... ....|--- .... ....|--- .... ....
....|..|--- .... ....|--- .... ....|--- .... ....
....|..|--- .... ....|--- .... ....|--- .... ....
....|..|--- .... ....|--- .... ....|--- .... ....
....|..|--- .... ....|--- .... ....|--- .... ....
....|..|--- .... ....|--- .... ....|--- .... ....
....|..|--- .... ....|--- .... ....|--- .... ....
....|..|--- .... ....|--- .... ....|--- .... ....
....|..|--- .... ....|--- .... ....|--- .... ....
....|..|--- .... ....|--- .... ....|--- .... ....
....|..|--- .... ....|--- .... ....|--- .... ....
....|..|--- .... ....|--- .... ....|--- .... ....
....|..|--- .... ....|--- .... ....|--- .... ....
....|..|--- .... ....|--- .... ....|--- .... ....
....|..|--- .... ....|--- .... ....|--- .... ....
....|..|--- .... ....|--- .... ....|--- .... ....
....|..|--- .... ....|--- .... ....|--- .... ....
....|..|--- .... ....|--- .... ....|--- .... ....
....|..|--- .... ....|--- .... ....|--- .... ....
....|..|--- .... ....|--- .... ....|--- .... ....
....|..|--- .... ....|--- .... ....|--- .... ....
....|..|--- .... ....|--- .... ....|--- .... ....
....|..|--- .... ....|--- .... ....|--- .... ....
....|..|--- .... ....|--- .... ....|--- .... ....
....|..|--- .... ....|--- .... ....|--- .... ....
....|..|--- .... ....|--- .... ....|--- .... ....
....|..|--- .... ....|--- .... ....|--- .... ....
....|..|--- .... ....|--- .... ....|--- .... ....
....|..|--- .... ....|--- .... ....|--- .... ....
....|..|--- .... ....|--- .... ....|--- .... ....
....|..|--- .... ....|--- .... ....|--- .... ....
....|..|--- .... ....|--- .... ....|--- .... ....
....|..|--- .... ....|--- .... ....|--- .... ....
....|..|--- .... ....|--- .... ....|--- .... ....
....|..|--- .... ....|--- .... ....|--- .... ....
....|..|--- .... ....|--- .... ....|--- .... ....
....|..|--- .... ....|--- .... ....|--- .... ....
....|..|--- .... ....|--- .... ....|--- .... ....
....|..|--- .... ....|--- .... ....|--- .... ....
....|..|--- .... ....|--- .... ....|--- .... ....
....|..|--- .... ....|--- .... ....|--- .... ....
....|..|--- .... ....|--- .... ....|--- .... ....
....|..|--- .... ....|--- .... ....|--- .... ....
....|..|--- .... ....|--- .... ....|--- .... ....
....|..|--- .... ....|--- .... ....|--- .... ....
....|..|--- .... ....|--- .... ....|--- .... ....
....|..|--- .... ....|--- .... ....|--- .... ....
....|..|--- .... ....|--- .... ....|--- .... ....
....|..|--- .... ....|--- .... ....|--- .... ....
....|..|--- .... ....|--- .... ....|--- .... ....
....|..|--- .... ....|--- .... ....|--- .... ....
....|..|--- .... ....|--- .... ....|--- .... ....
....|..|--- .... ....|--- .... ....|--- .... ....
....|..|--- .... ....|--- .... ....|--- .... ....
....|..|--- .... ....|--- .... ....|--- .... ....
....|..|--- .... ....|--- .... ....|--- .... ....
....|..|--- .... ....|--- .... ....|--- .... ....
....|..|--- .... ....|--- .... ....|--- .... ....
....|..|--- .... ....|--- .... ....|--- .... ....
....|..|--- .... ....|--- .... ....|--- .... ....
....|..|--- .... ....|--- .... ....|--- .... ....
....|..|--- .... ....|--- .... ....|--- .... ....
....|..|--- .... ....|--- .... ....|--- .... ....
....|..|--- .... ....|--- .... ....|--- .... ....
....|..|--- .... ....|--- .... ....|--- .... ....
....|..|--- .... ....|--- .... ....|--- .... ....
....|..|--- .... ....|--- .... ....|--- .... ....
....|..|--- .... ....|--- .... ....|--- .... ....
....|..|--- .... ....|--- .... ....|--- .... ....
....|..|--- .... ....|--- .... ....|--- .... ....

[Pattern33]
....|..|--- .... ....|--- .... ....|--- .... ....
....|..|--- .... ....|--- .... ....|--- .... ....
....|..|--- .... ....|--- .... ....|--- .... ....
....|..|--- .... ....|--- .... ....|--- .... ....
....|..|--- .... ....|--- .... ....|--- .... ....
....|..|--- .... ....|--- .... ....|--- .... ....
....|..|--- .... ....|--- .... ....|--- .... ....
....|..|--- .... ....|--- .... ....|--- .... ....
....|..|--- .... ....|--- .... ....|--- .... ....
....|..|--- .... ....|--- .... ....|--- .... ....
....|..|--- .... ....|--- .... ....|--- .... ....
....|..|--- .... ....|--- .... ....|--- .... ....
....|..|--- .... ....|--- .... ....|--- .... ....
....|..|--- .... ....|--- .... ....|--- .... ....
....|..|--- .... ....|--- .... ....|--- .... ....
....|..|--- .... ....|--- .... ....|--- .... ....
....|..|--- .... ....|--- .... ....|--- .... ....
....|..|--- .... ....|--- .... ....|--- .... ....
....|..|--- .... ....|--- .... ....|--- .... ....
....|..|--- .... ....|--- .... ....|--- .... ....
....|..|--- .... ....|--- .... ....|--- .... ....
....|..|--- .... ....|--- .... ....|--- .... ....
....|..|--- .... ....|--- .... ....|--- .... ....
